<?xml version="1.0"?>
<svg xmlns="http://www.w3.org/2000/svg" xmlns:xlink="http://www.w3.org/1999/xlink" viewBox="0 0 600 600">
  <title>voluptuous-top-template</title>
  <g id="main-colour">
    <path d="M 367.1,360.63 c -7-31.25-18.5-48.75-23.25-55.75-4.39-6.47-3.44-11.45-1.09-18.49 h 0 l 1.63-6.62 a 37,37,0,0,0,3.88-13.87 c .27-5.37-3.57-13-10.21-18.61-9-5.29-20.48-8.57-28.67-10.39-24.75,22.25-63.5,33.25-63.5,33.25 a 106.35,106.35,0,0,0,4.25,16.75 c 3.25,9.75,2.25,15.5-2.75,22.75 s -15.75,17.5-22.25,44.75-.5,61.25,3,81.25-3.5,30-3.5,30,9.25,13.25,43.25,15.5,58-8.5,72.25-13.75,26.5-6.25,35.5-5 C 377.1,434.13,374.1,391.88,367.1,360.63Z" fill="param(main_colour)"/>
  </g>
  <g id="outline">
    <path d="M 374.68,392.54 c -2.83-24.17-11.17-52.33-18-67.67 s -11-19.4-13.33-23.33 c -2.87-4.92.55-16.08,2.38-22.42,6.63-9.87,3.13-20.62,1.25-24-2.74-4.93-8.5-9.5-12.62-11.37 C 328,240.85,313,236,313,236 s 8.53-9.12,10.37-12.46 a 5.72,5.72,0,0,0-1.67-4,115.58,115.58,0,0,1-12.83,15.33 A 94.61,94.61,0,0,1,278.52,220 a 6.81,6.81,0,0,0-1.67,4 c 5,4.17,18.33,10.5,28.67,13.67-26,21.83-60.88,31.5-60.88,31.5 A 84.51,84.51,0,0,0,247.85,284,40.49,40.49,0,0,1,251,296.71 c .44,6.21-4.5,12.13-9.5,19 s -14.83,19.21-18.83,45.54.5,57.33,2.5,66.17,5.83,25.83-2.33,38.83 c 34.5,30.83,97.67,10.67,110.67,5.17 s 31.33-10.33,43.83-7.5 C 377.35,454.88,377.52,416.71,374.68,392.54Z m -.17,68.17 A 74.6,74.6,0,0,0,348.35,463 c -13,3.83-28,11.33-44.5,14.17 s -55.5,7.83-77.5-11.67 c 6-11.17,4.17-24.83,1.5-38.67 s -6.17-40.17-2.83-63,13.33-39.67,21.33-50.67,7.83-17.67,5-26.17-4-14-4.13-16 c 0,0,14.58-3.46,35.5-14.87 s 27.54-17.67,27.54-17.67,6.88,2,16,5,15.08,7.63,18,12.88,4.13,14.63-1,23 c -2.25,6.83-5.5,16.38-2.63,21.92,2.36,4.57,6.42,9.17,11.08,18.25 s 11.17,28.17,14.67,43.67,7.33,31.5,8,75.67 C 374.68,451.54,374.52,460.71,374.52,460.71Z"/>
    <path d="M 284.19,288.21 a 26.21,26.21,0,0,0,23.5-10 C 304.69,285.71,296.53,291.21,284.19,288.21Z"/>
  </g>
<script type="text/ecmascript" xlink:href="param.min.js"/> 
</svg>
