<?xml version="1.0"?>
<svg xmlns="http://www.w3.org/2000/svg" xmlns:xlink="http://www.w3.org/1999/xlink" viewBox="0 0 600 600">
  <title>v-neck-t-shirt-dress-hourglass</title>
  <g id="main-colour">
    <path d="M 346.84,404.88 c .92-18.08,1.13-29.25-4.52-40.33 a 219.06,219.06,0,0,0-16.92-27.17 c -4.58-6.17-5.33-8.67-5.5-13.25 s 2.67-10.67,6.08-17.33 a 91.94,91.94,0,0,0,6.54-14.94 c 10.57-.89,22.87-12.12,21.48-24.73-1.5-13.58-8.58-18-12.17-20.17-2.32-1.4-4.64-2.73-6-3.5 a 12,12,0,0,0-16.07-15.23 l -.72-.52-4.25-2 a 26,26,0,0,1-5.17,7.75,6.75,6.75,0,0,1,2,5.87 l .59-.16.35-.14v0 a 13.61,13.61,0,0,0,4.9-3.43 c 2.5,1.67,6.33,5.92,9.42,11.25 S 329,260.29,329,260.29 c -3.42-.25-30-5.67-38.61-19.92,7,2,9.5,1.75,12.92,1.08 a 6.66,6.66,0,0,1-1.08-6.08 c -2.58.58-8.08.08-12.58-1.75 s -7.92-7.08-7.92-7.08-2.25,1.67-7.42,2.33 c -7.5-4.08-13.33-3.08-17.5-.17 A 13.24,13.24,0,0,0,263,252.38 a 78.51,78.51,0,0,0,8.42,45.5 c 3.75,7.33,6.42,14.42,8.08,27.33-1.75,3.75-11.42,12.5-16,17.33 s -10.55,13.21-15.3,26.21-1.76,29.5-.59,37.75,3.5,18.29,3,30.38 a 24.16,24.16,0,0,1-1.48,7.31 c 4,1.59,10.86,3.86,16.35,3.19-.06,1.17-.33,3.18-.63,5 a 83.73,83.73,0,0,1,35.73-.55 c 9.25,1.83,24.77,1.75,31.77.13,7.81-1.81,17-6.48,20.75-14.66 C 342,429.38,345.92,423,346.84,404.88Z" fill="param(main_colour)"/>
  </g>
  <g id="fixed-colours">
    <path d="M 299.4,235.44 l 2.83-.06 a 4.89,4.89,0,0,1,3.29-3.19,4.44,4.44,0,0,1,4,.94 l 1.69-1.5 s -3.94-2.94-7-1.69-3.62,2.75-4.06,3.5Z" fill="#d1d3d4"/>
    <path d="M 300.58,242.07 l 2.75-.37 s 2.31,2.31,4.94,1.56 a 5.2,5.2,0,0,0,3.31-3.56 l 2.13-.69 s -.37,4.75-4.31,6.38 S 302.21,244.69,300.58,242.07Z" fill="#d1d3d4"/>
  </g>
  <g id="outline">
    <path d="M 276.86,365.38 s -4.5,29.33,12.83,47.33 C 279.86,398.71,277.36,381.54,276.86,365.38Z"/>
    <path d="M 297.19,347.71 s -.33,45.33,38.67,73 C 318.19,405.38,303.19,383.21,297.19,347.71Z"/>
    <path d="M 275.17,283 s 6.83,17.83,26.17,14.33 C 290.34,297,281.34,291.21,275.17,283Z"/>
    <path d="M 297.31,448.38 c 9.92,2.08,30.67,3.5,38.54-1.12-10.62,3.13-21.13,2.54-29.79,1.46-6.36-.8-10.89-2.78-21.67-3.17 A 45.92,45.92,0,0,0,270,447.88,70.46,70.46,0,0,1,297.31,448.38Z"/>
    <path d="M 334,292.58 l .07.06 s 17.88-2.18,20.88-21.51 c 1.44-9.29-1.67-15.08-4.67-18.83 s -7.58-5.83-11.17-7.75 a 127.49,127.49,0,0,1-13.33-8.17 c 5.25,5.92,12.42,8.5,17.83,12.83 s 7.75,8.5,8.83,15.25-1.17,14.17-6.67,20 a 23.06,23.06,0,0,1-11.55,6.26 l -2,.35 h -.05 l 0,0 a 37,37,0,0,1-3.86,10 c -2.17,4-6,10.5-8.08,16.5 s -1.33,10.83,1.17,15.08,10.58,14.42,14,20.5,9.6,15.92,10.83,27.92 c 1.29,12.58-.42,23.22-1,31.58-.69,9.31-3.33,18.17,6.83,25-2.85,6.1-10.51,10.06-17.67,12.33-7.33,2.33-18.17,3.17-30.37,1.75-5.63-.65-18.94-4.09-37.78-1,1.16-8.59,1.93-21-.84-29.91 a 119.05,119.05,0,0,1-.67,25.58,35.13,35.13,0,0,1-13.67-2.79,69.34,69.34,0,0,0,1.22-20.21 c -.83-11.42-5.6-23.17-5.13-36.83.5-14.37,5.59-30.37,14.71-40.62,8.45-9.49,14.42-14.37,16.75-17.91-.3,5.59-2.71,11.13-5.44,13.85,10.19-7.75,6.88-23.94,4-33.56 s -9.25-18.37-11.56-30.56-1.62-20.44-1.5-26.56 c -9.81-.94-11.94-8.62-11.44-13.5 s 4.5-8.44,7.25-9.62 a 12.55,12.55,0,0,1,8.25-.37 c 2.5.69,6,2.06,6,2.06 a 39.84,39.84,0,0,0,7.5-2.25 c 6.75,10.44,19.91,8.53,19.91,8.53 a 7.47,7.47,0,0,0,1,5 c -4.37.94-9.84-.22-14.41-2.16,11.5,16.6,35.42,21.81,41.29,22.06,3-15.62-12.1-26.37-12.1-26.37 a 11.59,11.59,0,0,1-5.22,4.06,7.86,7.86,0,0,0-1.81-5.34 s 3.59-3.66,4.78-6.22 a 20.33,20.33,0,0,0,4.06,1.38 s 1.06-.5,2.13-.94,5.31-1.69,7.75-.56 c -4.75-3.44-10.25-.5-10.25-.5 s -3.37-.87-4.69-2.5 a 19.14,19.14,0,0,1-3.1,7.13,7.31,7.31,0,0,0-6.49-1.79,7.49,7.49,0,0,0-5.39,5.5 c -10.2-.3-14.7-5-17.27-9.6 a 20.54,20.54,0,0,1-7.25,2.44 c -2.75-.87-6.87-2.5-10.31-2.5 a 14,14,0,0,0-11.06,22.25,14.8,14.8,0,0,0,8.81,5.63 s -1,13.88.63,23,5.87,19.19,9.62,26.75 a 65.74,65.74,0,0,1,6.22,21.86,30.49,30.49,0,0,1-5.75,7 c -4.58,4.25-14,12.85-18.88,21.67-5.63,10.25-11,23.75-9,41.25,2,17.89,6.46,33.53,3.62,48.5 l -.34,1.7 c 5.82,3.49,13.38,4,16.22,4q-.35,2.41-.81,4.93 h 0 a 19.28,19.28,0,0,1,2.34-.8 h 0 c 8.22-2.29,23.36-2.16,31.06-.8,16.58,2.93,47.75,5.17,57.08-14.83-7.33-5.67-8.17-8.83-7.83-16.83 s 4.79-34.17-.21-49.33-15.25-27.42-18.5-32.08-6.58-8.33-6.83-13.92,2.67-11.08,4.67-15.17 C 327.08,306.53,331,301.51,334,292.58Z M 317.5,236.71 s 12.33,8.79,11.08,22.92 c -15.12-2.12-31.29-11.19-37.29-18.44 a 20.36,20.36,0,0,0,9,1.34 A 7.37,7.37,0,0,0,314.15,239,17.11,17.11,0,0,0,317.5,236.71Z m -4.3,2.73 a 6.44,6.44,0,0,1-11.89,3,19.53,19.53,0,0,0,2-.35,4.93,4.93,0,0,0,8.58-2.17 A 12.39,12.39,0,0,0,313.2,239.45Z m -2-.08 h 0 a 4.48,4.48,0,0,1-3.24,3.5,4.33,4.33,0,0,1-3.91-1.15,5.87,5.87,0,0,1-1.16-6.93 h 0 a 4.22,4.22,0,0,1,2.74-2.18,4.16,4.16,0,0,1,3.16.58 h 0 A 5.72,5.72,0,0,1,311.24,239.36Z m -6.5-9.06 a 6.47,6.47,0,0,1,5.68,1.53,7.54,7.54,0,0,1-.92.85,5,5,0,0,0-4.09-.93,5,5,0,0,0-3.46,3.07 c -.65,0-1.29,0-1.9,0 A 6.59,6.59,0,0,1,304.74,230.31Z"/>
  </g>
<script type="text/ecmascript" xlink:href="param.min.js"/> 
</svg>
