<?xml version="1.0"?>
<svg xmlns="http://www.w3.org/2000/svg" xmlns:xlink="http://www.w3.org/1999/xlink" viewBox="0 0 600 600">
  <title>voluptuous-bottoms-template</title>
  <g id="skin-tone">
    <path d="M 349.08,313.37 c -3.74-6.12-7.64-11-8.26-15.9 s 3.88-17.5,6-27-.49-15.61-.49-15.61 l -.22-.53-.32-.26 a 16.13,16.13,0,0,0-8.84-26.25v-.39 c -2.24-1.41-6.76-.84-11.76.54-5.58-6-6.4-19.35-6.49-22.47 a 73.85,73.85,0,0,1-37.12.18 c .06,2.13.07,4.29,0,6.29-.37,8.5-6.12,17.25-6.12,17.25 s -7.75-2.87-14.5-3.12-13.12,4.13-15.87,9.63-2.75,12.13,1.5,18.75 c -2.5,13.63.38,23.13,3.75,34 s .5,15.5-3.37,21.38 c -1.79,2.71-4.32,6.78-6.89,11.55,7.13,3.53,20.36,9.06,41.43,13.5,30.92,6.51,56.22,5.44,72.68-10.63 A 57.22,57.22,0,0,0,349.08,313.37Z" fill="param(skin_tone)"/>
  </g>
  <g id="main-colour">
    <path d="M 294.14,337.15 A 207,207,0,0,1,240,321.4 c -2.93,5.48-6.11,12.16-7.45,18.62-1.62,7.88-3.37,16-3.07,23.62-.59,10.54.21,21.65,3.91,29.75,8.77,16.25,24.06,22.91,39.56,21.75 s 24.93-12.78,24.93-12.78 l .48-.25 A 38.43,38.43,0,0,0,359,370.72 s 2.57-25.64-5.05-46.89 C 340.84,339.62,311.06,339.44,294.14,337.15Z" fill="param(main_colour)"/>
  </g>
  <g id="outline">
    <path d="M 245.77,253 s -3.17,14,.67,26.33,8.19,18.93,0,29.83 c -18.82,25.06-17.91,48.27-17.91,66.83 h 2 s -1.39-26.08,6.79-46.25 c 4.5-10.17,8.79-16.58,13-23.08 s 2.93-14.62.92-20.08 a 60.83,60.83,0,0,1-3.7-31.06 C 246.32,253.83,245.77,253,245.77,253Z"/>
    <path d="M 260.77,225.06 a 46.86,46.86,0,0,1,14.59,3.16 c 8.08,3.08,13.5,4.58,18.58,4.5-5.5,1.67-12.17-.25-15.75-1.58 s -10.84-4.08-17.42-4.08 C 260.77,225.89,260.77,225.06,260.77,225.06Z"/>
    <path d="M 336.95,227.44 a 20.2,20.2,0,0,0-10.59,1.21 c -5.42,2.24-12.67,4.66-16.5,4.08,3.75-.33,10.51-2.75,13.55-4.5 S 332.29,224.73,336.95,227.44Z"/>
    <path d="M 347,261.59 a 21.87,21.87,0,0,1,.86,9.11 c 1-5.44,1-10.6-1.52-15.85 A 19.7,19.7,0,0,1,347,261.59Z"/>
    <path d="M 343.65,302.42 c -2.8-5-1.88-8.61,1-19.11,1.06-3.93,2.19-7.62,3-11.19 a 23.47,23.47,0,0,1-4.32,8.83 c -.71,2.4-1.41,4.49-2,6-2.5,6.83-3,12.17,2.83,20.67 C 362.66,330.52,359,371.89,359,371.89 c 1.9-.54,1.9-3.71,1.9-12.16 C 360.95,321,346,306.54,343.65,302.42Z"/>
    <path d="M 347.57,272.11v0Z"/>
    <path d="M 330.84,240.23 a 105.45,105.45,0,0,0,9.53,11.17 c 7.61,7.8,7.77,18.41,3.77,26.36 a 20.31,20.31,0,0,1-12.82,10.3 c 7.38.52,15-6.61,17.5-16.17 a 21,21,0,0,0-4.32-18.28 C 339.88,247.9,334.06,244.23,330.84,240.23Z"/>
    <path d="M 304.67,284.2 c 9-7.43,11.45-24.29-.59-36.44,0,0,9.65,13.53,3.93,27.84-3.67,9.18-13.9,13.54-23.63,12.78 h 0 S 295.66,291.62,304.67,284.2Z"/>
    <path d="M 319.75,205.21q-1,.29-2,.54 c 0,5.85.82,17.23,6.61,22.84.81-.44,1.81-.87,1.81-.87 S 319.76,221.71,319.75,205.21Z"/>
    <path d="M 247.67,253.8v0 a 16.56,16.56,0,0,1,13.1-26.72 h 0 a 40.34,40.34,0,0,1,11.52,2,18.56,18.56,0,0,0-24.93,27.37Z"/>
    <path d="M 280.43,205.39 c 0,.27,0,.54.06.83.93,12.63-6.18,22.38-6.18,22.38 a 14.23,14.23,0,0,0,2.13.83 c 5.8-8.33,6.49-17.79,6.25-23.46Q281.55,205.7,280.43,205.39Z"/>
    <path d="M 297.75,401.44 A 38.43,38.43,0,0,1,230.53,376 h 0 c -.12-2.23.11-9.86.22-13.18 a 40.42,40.42,0,0,0,69.46,38.83 A 16.51,16.51,0,0,1,297.75,401.44Z"/>
    <path d="M 306.27,385.49 a 13.76,13.76,0,0,1,0,2.21 c 1.82-.26,6.78-.62,9.52-5.76 A 13.69,13.69,0,0,1,306.27,385.49Z"/>
    <path d="M 306.27,385.49 h 0 a 38.45,38.45,0,0,1-74.55-.2 l -2.09-.18 a 40.43,40.43,0,0,0,78.71.29Z"/>
    <path d="M 316.5,318 s -5.07,8.72-2.58,9.44 c 1,.2,1.7-1.44.9-3.34 A 29,29,0,0,1,316.5,318Z"/>
    <path d="M 241,321 s 20.87,10,41.25,13.63 c 19.14,3.41,29.5,3.75,43.25,2.13 s 23.75-7.87,28.13-13.25 a 3.47,3.47,0,0,1,.5,2 s -6.25,9.88-28.62,13.13-55.37-1.37-85.62-16.12 C 239.85,321.77,241,321,241,321Z"/>
  </g>
<script type="text/ecmascript" xlink:href="param.min.js"/> 
</svg>
