<?xml version="1.0"?>
<svg xmlns="http://www.w3.org/2000/svg" xmlns:xlink="http://www.w3.org/1999/xlink" viewBox="0 0 215 215">
  <title>nurse-hourglass</title>
  <g id="skin-tone">
    <g id="skin-tone-2" data-name="skin-tone">
      <path d="M 116.33,134.23 A 70.39,70.39,0,0,0,95.45,134 c .43,8.94,1.25,19.15,2.21,25.81,1.61,11.14,2.53,16.71,5.78,25.28,1.44,3.64,2.31,6.77,6,6.23 s 4.64-3.81,5.15-7.4,1.58-22.81,1.58-30.28 C 116.19,149.07,116.16,141,116.33,134.23Z" fill="param(skin_tone)"/>
    </g>
  </g>
  <g id="main-colour">
    <g id="main-colour-2" data-name="main-colour">
      <path d="M 106,133.32 a 54.6,54.6,0,0,1,10.63,1,35,35,0,0,0-.12,4.38 s 4.4-2.38,4.88-3.19 c -.62-4.37-2.59-22.09-2.35-23.42 a 3.23,3.23,0,0,0-.17-.43v-.5 A 12,12,0,0,0,100,97.92 a 12.39,12.39,0,0,0-4.3,11.92 c -.71,2.44-5.58,22.23-6.59,25.58,1.06,1.19,6.21,3.08,6.21,3.08 l -.06-4.62 A 90,90,0,0,1,106,133.32Z" fill="param(main_colour)"/>
    </g>
  </g>
  <g id="fixed-colours">
    <path d="M 91.86,126.93 a 45.86,45.86,0,0,1,15.76-2,40.25,40.25,0,0,1,13.31,3.06 l .31,2.5 s -16.47-5.25-30-.44Z" fill="#fff"/>
  </g>
  <g id="outline">
    <path d="M 120,111.89 a 13.48,13.48,0,0,0-.57-6.26 c .25,2.19-.52,4-1.16,6.27,0,0,.84,8.12,1.61,15-3.13-1.12-15.21-4.85-27.37-.58,2-7.79,3.5-15.52,3.5-15.52 a 13,13,0,0,1-.41-3.36v-2.51 a 3.59,3.59,0,0,0-2,3.5,13.54,13.54,0,0,0,.43,3.27 s -3.14,15.32-5.82,24 c .87,1.19,5.19,2.89,6.31,3.32.23,3,.52,6.22.91,9.69,2.69,24.16,4.85,32.3,8.16,39.62 a 6.47,6.47,0,0,0,.63,1.35 l .07.14 c .12.18.24.36.38.54 a 5.91,5.91,0,0,0,8.29,1,5.85,5.85,0,0,0,1.92-2.71,10.15,10.15,0,0,0,.23-1v-.15 c .23-1.19.41-2.6.48-3.29.29-3.08,1.71-30.73,2-45.31,1.35-.63,4.16-2,5-3 C 122,132,119.87,113.43,120,111.89Z m 0,16.06.2,1.77 c -3.63-1-16.86-4.24-28.52-.24.19-.72.39-1.46.57-2.19 A 42.09,42.09,0,0,1,119.95,128Z M 90.66,135.5 c 1.14-.31,2.3-.57,3.49-.77q.07,1.15.15,2.35 A 34.65,34.65,0,0,1,90.66,135.5Z m 24.47,22.94 c -.19,4.32-.66,12.88-.87,17.39-.09,1.87-.19,4.16-.34,6.37 a 41.57,41.57,0,0,1-.87,5.32,3.87,3.87,0,0,1-1.37,2.2,3.78,3.78,0,0,1-4.88,0 s -.21-.2-.23-.19 c -1-.81-2.61-4.62-2.83-5.15 a 95,95,0,0,1-4.5-18.23 c -.89-6.75-2.18-21.15-2.88-31.7 a 75.58,75.58,0,0,1,19,.5 C 115.14,142.86,115.29,154.9,115.13,158.44Z m 2.43-21.21 c 0-.7,0-1.36,0-2,1.23.21,2.2.4,2.88.54 A 18.54,18.54,0,0,1,117.56,137.23Z m -27.34-2.84 c .37-1.2.74-2.48,1.11-3.81 a 53.66,53.66,0,0,1,28.93.08 c .19,1.6.36,3,.5,4 A 63.36,63.36,0,0,0,90.22,134.39Z"/>
  </g>
<script type="text/ecmascript" xlink:href="param.min.js"/> 
</svg>
