<?xml version="1.0"?>
<svg xmlns="http://www.w3.org/2000/svg" xmlns:xlink="http://www.w3.org/1999/xlink" viewBox="0 0 600 600">
  <title>wedding-dress-hourglass</title>
  <g id="main-colour">
    <path d="M 281.34,315.88 c 2.13-7.3,2.25-11.75-1.5-16.5 s -16.75-18.25-16.75-41.75 c 6.75,2,15.39.33,23.43-2.12,11.88-3.62,20.25-7.25,32.25,1.25,6.5-8.5,9.13-10,16.13-10,11.75,7.38,23.5,27.88-.62,40.88-2.37,10.63-5.43,14.5-9.18,20.25 s -6.25,15.25-3,20,15.5,16.25,26.25,27.75,35.5,43.5,49.5,87.5,19,79.5,19,100.25 a 12.36,12.36,0,0,1-10.25,6.75 c -3.25,0-7,2.25-7,2.25 l .25,8.75 s -3.25,7.5-11.25,9.25-20.75,2.25-26.5,10.25 a 33.65,33.65,0,0,0,1.25,5.25 s -10.5.5-18.5,4.25-15.75,5.5-24.5,4.75-24.25-5.75-33.75-4.25 c 0-4.75.64-5.75.64-5.75 a 34.23,34.23,0,0,0-17.64-6.25 c -10.75-.75-25.25,6.25-33.5-3.25.8-4.33.25-6.25.25-6.25 a 26.39,26.39,0,0,0-12-3 c -7.5-.25-16.75-2-21.25-7.75.25-5.75.75-7,0-7.25 s -6.5-4.75-10.5-5.25-4.75-3.25-4.75-3.25-3-21.5,2-65,32.75-92.25,45.25-109.25,22-28,28.75-33.75 S 279.59,321.88,281.34,315.88Z" fill="param(main_colour)"/>
  </g>
  <g id="accent-colour-1">
    <circle cx="284" cy="225.3" r="2.58" fill="param(accent_colour_1)"/>
    <circle cx="288.72" cy="228.13" r="2.58" fill="param(accent_colour_1)"/>
    <circle cx="293.81" cy="230.05" r="2.58" fill="param(accent_colour_1)"/>
    <circle cx="299.08" cy="230.87" r="2.58" fill="param(accent_colour_1)"/>
    <circle cx="304.47" cy="230.05" r="2.58" fill="param(accent_colour_1)"/>
    <circle cx="309.39" cy="228.55" r="2.58" fill="param(accent_colour_1)"/>
    <circle cx="313.39" cy="225.21" r="2.58" fill="param(accent_colour_1)"/>
    <circle cx="314.39" cy="230.88" r="2.58" fill="param(accent_colour_1)"/>
    <circle cx="318.56" cy="227.21" r="2.58" fill="param(accent_colour_1)"/>
    <circle cx="309.72" cy="233.96" r="2.58" fill="param(accent_colour_1)"/>
    <circle cx="305.01" cy="235.6" r="2.58" fill="param(accent_colour_1)"/>
    <circle cx="307.89" cy="244.3" r="2.58" fill="param(accent_colour_1)"/>
    <circle cx="303.89" cy="240.46" r="2.58" fill="param(accent_colour_1)"/>
    <circle cx="309.22" cy="239.3" r="2.58" fill="param(accent_colour_1)"/>
    <circle cx="299.43" cy="236.58" r="2.58" fill="param(accent_colour_1)"/>
    <circle cx="294.06" cy="235.55" r="2.58" fill="param(accent_colour_1)"/>
    <circle cx="289.22" cy="233.63" r="2.58" fill="param(accent_colour_1)"/>
    <circle cx="283.89" cy="231.21" r="2.58" fill="param(accent_colour_1)"/>
    <circle cx="279.06" cy="228.21" r="2.58" fill="param(accent_colour_1)"/>
    <circle cx="274.02" cy="265.19" r="2.33" fill="param(accent_colour_1)"/>
    <circle cx="289.06" cy="269.21" r="2.33" fill="param(accent_colour_1)"/>
    <circle cx="304.12" cy="259.04" r="2.33" fill="param(accent_colour_1)"/>
    <circle cx="306.72" cy="275.21" r="2.33" fill="param(accent_colour_1)"/>
    <circle cx="322.2" cy="266.04" r="2.33" fill="param(accent_colour_1)"/>
    <circle cx="331.22" cy="256.71" r="2.33" fill="param(accent_colour_1)"/>
    <circle cx="343.22" cy="262.71" r="2.33" fill="param(accent_colour_1)"/>
    <circle cx="343.56" cy="275.55" r="2.33" fill="param(accent_colour_1)"/>
    <circle cx="334.65" cy="270.6" r="2.33" fill="param(accent_colour_1)"/>
    <circle cx="322.22" cy="281.38" r="2.33" fill="param(accent_colour_1)"/>
    <circle cx="290.56" cy="284.38" r="2.33" fill="param(accent_colour_1)"/>
    <circle cx="276.28" cy="278.45" r="2.33" fill="param(accent_colour_1)"/>
    <circle cx="281.89" cy="293.44" r="2.33" fill="param(accent_colour_1)"/>
    <circle cx="290.56" cy="323.38" r="2.33" fill="param(accent_colour_1)"/>
    <circle cx="292.72" cy="309.55" r="2.33" fill="param(accent_colour_1)"/>
    <circle cx="305.22" cy="290.21" r="2.33" fill="param(accent_colour_1)"/>
    <circle cx="318.39" cy="297.21" r="2.33" fill="param(accent_colour_1)"/>
    <circle cx="332.89" cy="284.21" r="2.33" fill="param(accent_colour_1)"/>
    <circle cx="315.03" cy="311.45" r="2.33" fill="param(accent_colour_1)"/>
    <circle cx="302.89" cy="304.55" r="2.33" fill="param(accent_colour_1)"/>
    <circle cx="300.56" cy="318.71" r="2.33" fill="param(accent_colour_1)"/>
    <circle cx="310.89" cy="327.55" r="2.33" fill="param(accent_colour_1)"/>
    <path d="M 319.22,256 s 7.55,9.5,2.88,29.67-13.38,51.5-13.88,59 c -.33.83-1.67.17-1.67.17 s 1.5-9.33,4.5-21,10.07-39,10.74-47.5-1.07-16-4.24-19.83 A 4.91,4.91,0,0,0,319.22,256Z" fill="param(accent_colour_1)"/>
    <path d="M 325.89,249.38 s 9.67,13,7.67,24.5-3.67,18.83-6,25.33-4.83,12.5-4.83,12.5 l 2.67-3.17 s 5.83-14,8.5-26,3.17-20.17-6.83-33.67 C 326.39,248.38,325.89,249.38,325.89,249.38Z" fill="param(accent_colour_1)"/>
    <path d="M 333.39,247.21 s 17,14.67,6.67,36.67 l 1.5-.67 s 10.5-18.08-6.67-36.46 C 334.22,246.55,333.39,247.21,333.39,247.21Z" fill="param(accent_colour_1)"/>
    <path d="M 303.89,252.38 s 5.83,17.33,1.83,39.83 S 298.89,334,298.89,334 l -1.33-1.33 s 1.78-11.33,3.78-23.83,7.88-35.67.72-56.67 C 302.22,251.71,303.89,252.38,303.89,252.38Z" fill="param(accent_colour_1)"/>
    <path d="M 288.72,255.55 s 2,23.5,4.33,40.83 a 64.82,64.82,0,0,1-3.33,30.83 l -1.17-.5 s 4.17-12.5,3.5-20.67-2.5-24.5-3.33-32-1.5-18-1.5-18Z" fill="param(accent_colour_1)"/>
    <path d="M 274.89,258.71 s -.83,16.17,5.5,28.83,5.67,25.17-2,35.5 c -1,0-.33-.5-.33-.5 s 6.17-7.5,5.67-14.5-.83-10.83-4.83-20.33-6.17-15.33-5.5-28.83 A 2.65,2.65,0,0,1,274.89,258.71Z" fill="param(accent_colour_1)"/>
  </g>
  <g id="outline">
    <path d="M 399.39,441.88 c -11.33-35.5-31-64.5-43.5-79.25 a 348.19,348.19,0,0,0-29.58-30.25 c -4.25-4-4.83-8.42-4.75-12.17 s 5.75-13.83,7.92-17.5 a 50,50,0,0,0,5.83-14.42 c 10.33-3.67,15.33-13.83,13.83-23.92 s -10-15.25-14.37-18.37 c -3.37-.75-13,1.63-16.5,9.75-10.62-10.62-26.62-2.37-38.37.63 s -18,.13-18,.13 c .33,20.63,7.67,31.88,12,37 s 7.5,9.33,8,13.83-2.5,12.33-7.5,16.33 a 210.27,210.27,0,0,0-31.17,30.67 c -13.83,16.67-31.33,44.5-43.5,80.5 s -13.5,55.5-14.17,72.17.5,36.17.5,36.17 a 16.6,16.6,0,0,0,8,5,21.09,21.09,0,0,1,7.77,4.28 c 0,2.26-.12,4.14-.27,5.55,3,7,14.33,9.5,20,9.33,4.82-.14,10.36.81,13.75,2.63 a 26.73,26.73,0,0,1-.92,6.37 c 6.67,6.33,19.17,5.83,27.17,4.33,7.73-1.45,15.92-1,24.13,6.08 a 14.57,14.57,0,0,1-1.13,5.75 c 8-1.5,14.83-.5,22.5,1.83 s 23.17,4,34.17-.83,21.17-6.83,24.5-6.5 c -.7-2.15-1.33-4.12-1.89-6,2.14-2.7,8.62-7.2,17.89-8,11.33-1,17.67-5.17,19.33-12.33-.13-2.49-.29-4.94-.47-7.38 a 15.23,15.23,0,0,1,7.13-2.12 c 2.83,0,8.33-.83,10.33-7.33 C 417.22,509.88,410.72,477.38,399.39,441.88Z M 345.33,275.62 a 1.64,1.64,0,0,1,0,.19q-.23.5-.49,1 a 1.68,1.68,0,0,1-1.18.48 h -.17 a 1.69,1.69,0,0,1-1.69-1.69v-.17 a 1.69,1.69,0,0,1,1.69-1.69 h .17 a 1.69,1.69,0,0,1,1.69,1.69Z m -61.94,27.13 c -1.75-3.75-10-12.75-12.87-18.12 s -5.87-13.12-6.12-25.37 c 8.13,2.38,24.5-3,33.13-5.5 s 14.88-.5,21.63,4.25 c 4-8,10.63-10.5,15.5-10.25,1.25,1.25,6.63,4.75,9.63,9.88 a 20,20,0,0,1,2.13,15.13,15.23,15.23,0,0,1-.47,1.56,2.5,2.5,0,0,0-2.23-1.4 h -.24 a 2.51,2.51,0,0,0-2.5,2.5v.24 a 2.51,2.51,0,0,0,2.5,2.5 h .24 a 2.47,2.47,0,0,0,.41,0 c -2.15,3.57-5.61,7.11-10.17,8.5 a 2.5,2.5,0,0,0,1.44-2.25v-.24 a 2.51,2.51,0,0,0-2.5-2.5 h -.24 a 2.51,2.51,0,0,0-2.5,2.5v.24 a 2.51,2.51,0,0,0,2.5,2.5 h .24 a 2.45,2.45,0,0,0,.32,0 l -.17,0 c -.37,10-8.75,20.5-10.87,25.38-1.4,3.21-2.9,7.13-2.69,11.08 a 123.81,123.81,0,0,1-11.89,20.88 c -8.45-15.36-23.82-20.71-28.36-22 C 285.53,314.17,284.86,305.9,283.39,302.75Z M 332.83,286 h -.17 a 1.69,1.69,0,0,1-1.69-1.69v-.17 a 1.69,1.69,0,0,1,1.69-1.69 h .17 a 1.69,1.69,0,0,1,1.69,1.69v.17 A 1.69,1.69,0,0,1,332.83,286Z m 74.89,262.53 a 21.81,21.81,0,0,0-7.34,2.1 c -2.06-25.27-6.84-47.95-13.33-76.1-7.33-31.83-29.33-82.67-41.33-100.17 s -20.67-26.17-20.67-26.17 c 17.17,22.5,29,42,43.17,78 s 19,60.83,23,79.17 A 418.07,418.07,0,0,1,398.89,560 c -.17,1.67-4.5,9.5-18.5,10.67-10.58.88-15.63,5.18-17.47,7.24-2.29-8.16-3.28-15-3.53-27.9-.33-17.33-2.67-44-6.5-63.67 s -13-50.33-18.5-68.5-18.33-52.33-22.33-60.17 c 6.67,17.5,17.33,51.67,22.17,68.17 s 15,50.33,19.17,81.17,3,44.83,3.83,56.17 a 88.77,88.77,0,0,0,4.5,21.33 s -11.33,1-18.83,4.83-19.5,4.5-25.67,3.67-19.33-5.83-28.67-4.33 c 2.5-12.83-2.33-34.67-4.17-46 s -3.89-44.44-1.83-75.17 c 2.17-32.33,8-58.17,12.33-77.33 s 6.83-30.33,6.83-30.33-17.5,52.17-21.83,97.33-.5,75,2.5,93.17 c 2,11.88,3.35,24.4,3.38,32.86-2.27-2.18-7.39-5.8-16.55-6-13.17-.33-23,4.17-31.5-2.33,1.67-13.83.67-28.83.5-40.83 s 1-45,5.67-70.67,13.5-48.5,20.5-65.83,21.33-46.83,21.33-46.83 a 455.94,455.94,0,0,0-32.67,68.83 c -14.5,38.83-16.17,76.33-17.17,95.67-.75,14.58.1,38.35-.43,51.88 a 27.85,27.85,0,0,0-13.24-2.55 c -7.83.67-16.5-4.5-17.5-6.67.33-12-1-37.67,1.83-61.17 s 9.67-52.5,15.83-68.17,17.83-42.67,34.5-66.5,17.67-25,17.67-25-26,29-44.5,67.83 S 204.72,480,202.89,504.71 c -1.32,17.78-1,33.66-1,44-3-2.65-8.1-3.32-12.31-6.51-1.5-14.17-3.17-50.67,7.83-88.67 s 23.75-63.92,38.75-85 a 206.5,206.5,0,0,1,38.62-41.75,32.62,32.62,0,0,0,2.67-2.51 c 11.36,1.78,22.43,11.62,30,23.63,6-6.37,10.94-16.58,12.84-20.78 a 12,12,0,0,0,1.16,2.28 c 3.75,5.75.5,1.33,16.5,17.5 s 28.83,32.33,40.83,54.83,18.67,41.5,25.67,68,9.83,59.5,11,73.67 A 8.84,8.84,0,0,1,407.72,548.54Z"/>
    <path d="M 290.44,281.66 a 2.51,2.51,0,0,0-2.5,2.5v.24 a 2.51,2.51,0,0,0,2.5,2.5 h .24 a 2.51,2.51,0,0,0,2.5-2.5v-.24 a 2.51,2.51,0,0,0-2.5-2.5Z m 1.89,2.54v.17 a 1.69,1.69,0,0,1-1.69,1.69 h -.17 a 1.69,1.69,0,0,1-1.69-1.69v-.17 a 1.69,1.69,0,0,1,1.69-1.69 h .17 A 1.69,1.69,0,0,1,292.33,284.2Z"/>
    <path d="M 289,271.78 h .24 a 2.51,2.51,0,0,0,2.5-2.5V269 a 2.51,2.51,0,0,0-2.5-2.5 H 289 a 2.51,2.51,0,0,0-2.5,2.5v.24 A 2.51,2.51,0,0,0,289,271.78Z m -1.65-2.7 a 1.69,1.69,0,0,1,1.69-1.69 h .17 a 1.69,1.69,0,0,1,1.69,1.69v.17 a 1.69,1.69,0,0,1-1.69,1.69 H 289 a 1.69,1.69,0,0,1-1.69-1.69Z"/>
    <path d="M 290.7,320.62 h -.24 a 2.51,2.51,0,0,0-2.5,2.5v.24 a 2.51,2.51,0,0,0,2.5,2.5 h .24 a 2.51,2.51,0,0,0,2.5-2.5v-.24 A 2.51,2.51,0,0,0,290.7,320.62Z m 1.65,2.7 a 1.69,1.69,0,0,1-1.69,1.69 h -.17 a 1.69,1.69,0,0,1-1.69-1.69v-.17 a 1.69,1.69,0,0,1,1.69-1.69 h .17 a 1.69,1.69,0,0,1,1.69,1.69Z"/>
    <path d="M 284.51,293.22 a 2.47,2.47,0,0,0,0-.42 c 10.08,6.77,20.79,2.37,26.92-3.92 a 33.13,33.13,0,0,1-3.72,2.27,2.46,2.46,0,0,0,.15-.82v-.24 a 2.51,2.51,0,0,0-2.5-2.5 h -.24 a 2.51,2.51,0,0,0-2.5,2.5v.24 a 2.5,2.5,0,0,0,1.68,2.35,25.85,25.85,0,0,1-20.25-.95,2.49,2.49,0,0,0-1.88-1 c -.69-.41-1.07-.68-1.07-.68.25.23.49.45.74.67 h 0 a 2.51,2.51,0,0,0-2.5,2.5v.24 a 2.51,2.51,0,0,0,2.5,2.5 H 282 a 2.51,2.51,0,0,0,2.5-2.5Z m 18.91-2.93v-.17 a 1.69,1.69,0,0,1,1.69-1.69 h .17 a 1.69,1.69,0,0,1,1.69,1.69v.17 a 1.69,1.69,0,0,1-1.69,1.69 h -.17 A 1.69,1.69,0,0,1,303.43,290.29Z m -19.76,3.14 a 1.69,1.69,0,0,1-1.69,1.69 h -.17 a 1.69,1.69,0,0,1-1.69-1.69v-.17 a 1.69,1.69,0,0,1,1.69-1.69 H 282 a 1.69,1.69,0,0,1,1.69,1.69Z"/>
    <path d="M 276.41,275.73 h -.24 a 2.51,2.51,0,0,0-2.5,2.5v.24 a 2.51,2.51,0,0,0,2.5,2.5 h .24 a 2.51,2.51,0,0,0,2.5-2.5v-.24 A 2.51,2.51,0,0,0,276.41,275.73Z m 1.65,2.7 a 1.69,1.69,0,0,1-1.69,1.69 h -.17 a 1.69,1.69,0,0,1-1.69-1.69v-.17 a 1.69,1.69,0,0,1,1.69-1.69 h .17 a 1.69,1.69,0,0,1,1.69,1.69Z"/>
    <path d="M 274.16,267.76 a 2.51,2.51,0,0,0,2.5-2.5V265 a 2.51,2.51,0,0,0-2.5-2.5 h -.24 a 2.51,2.51,0,0,0-2.5,2.5v.24 a 2.51,2.51,0,0,0,2.5,2.5Z m -1.89-2.54v-.17 a 1.69,1.69,0,0,1,1.69-1.69 h .17 a 1.69,1.69,0,0,1,1.69,1.69v.17 a 1.69,1.69,0,0,1-1.69,1.69 H 274 A 1.69,1.69,0,0,1,272.27,265.22Z"/>
    <path d="M 292.86,306.93 h -.24 a 2.51,2.51,0,0,0-2.5,2.5v.24 a 2.51,2.51,0,0,0,2.5,2.5 h .24 a 2.51,2.51,0,0,0,2.5-2.5v-.24 A 2.51,2.51,0,0,0,292.86,306.93Z m 1.65,2.7 a 1.69,1.69,0,0,1-1.69,1.69 h -.17 a 1.69,1.69,0,0,1-1.69-1.69v-.17 a 1.69,1.69,0,0,1,1.69-1.69 h .17 a 1.69,1.69,0,0,1,1.69,1.69Z"/>
    <path d="M 304,261.58 h .24 a 2.51,2.51,0,0,0,2.5-2.5v-.24 a 2.51,2.51,0,0,0-2.5-2.5 H 304 a 2.51,2.51,0,0,0-2.5,2.5v.24 A 2.51,2.51,0,0,0,304,261.58Z m -1.65-2.7 a 1.69,1.69,0,0,1,1.69-1.69 h .17 a 1.69,1.69,0,0,1,1.69,1.69V259 a 1.69,1.69,0,0,1-1.69,1.69 h -.17 a 1.69,1.69,0,0,1-1.69-1.69Z"/>
    <path d="M 311.08,325.08 h -.24 a 2.51,2.51,0,0,0-2.5,2.5v.24 a 2.51,2.51,0,0,0,2.5,2.5 h .24 a 2.51,2.51,0,0,0,2.5-2.5v-.24 A 2.51,2.51,0,0,0,311.08,325.08Z m 1.65,2.7 a 1.69,1.69,0,0,1-1.69,1.69 h -.17 a 1.69,1.69,0,0,1-1.69-1.69v-.17 a 1.69,1.69,0,0,1,1.69-1.69 H 311 a 1.69,1.69,0,0,1,1.69,1.69Z"/>
    <path d="M 300.74,316.08 h -.24 a 2.51,2.51,0,0,0-2.5,2.5v.24 a 2.51,2.51,0,0,0,2.5,2.5 h .24 a 2.51,2.51,0,0,0,2.5-2.5v-.24 A 2.51,2.51,0,0,0,300.74,316.08Z m 1.65,2.7 a 1.69,1.69,0,0,1-1.69,1.69 h -.17 a 1.69,1.69,0,0,1-1.69-1.69v-.17 a 1.69,1.69,0,0,1,1.69-1.69 h .17 a 1.69,1.69,0,0,1,1.69,1.69Z"/>
    <path d="M 318.35,299.82 h .24 a 2.51,2.51,0,0,0,2.5-2.5v-.24 a 2.51,2.51,0,0,0-2.5-2.5 h -.24 a 2.51,2.51,0,0,0-2.5,2.5v.24 A 2.51,2.51,0,0,0,318.35,299.82Z m -1.65-2.7 a 1.69,1.69,0,0,1,1.69-1.69 h .17 a 1.69,1.69,0,0,1,1.69,1.69v.17 a 1.69,1.69,0,0,1-1.69,1.69 h -.17 a 1.69,1.69,0,0,1-1.69-1.69Z"/>
    <path d="M 331.08,259.28 h .24 a 2.51,2.51,0,0,0,2.5-2.5v-.24 a 2.51,2.51,0,0,0-2.5-2.5 h -.24 a 2.51,2.51,0,0,0-2.5,2.5v.24 A 2.51,2.51,0,0,0,331.08,259.28Z m -1.65-2.7 a 1.69,1.69,0,0,1,1.69-1.69 h .17 a 1.69,1.69,0,0,1,1.69,1.69v.17 a 1.69,1.69,0,0,1-1.69,1.69 h -.17 a 1.69,1.69,0,0,1-1.69-1.69Z"/>
    <path d="M 314.87,314.08 h .24 a 2.51,2.51,0,0,0,2.5-2.5v-.24 a 2.51,2.51,0,0,0-2.5-2.5 h -.24 a 2.51,2.51,0,0,0-2.5,2.5v.24 A 2.51,2.51,0,0,0,314.87,314.08Z m -1.65-2.7 a 1.69,1.69,0,0,1,1.69-1.69 h .17 a 1.69,1.69,0,0,1,1.69,1.69v.17 a 1.69,1.69,0,0,1-1.69,1.69 h -.17 a 1.69,1.69,0,0,1-1.69-1.69Z"/>
    <path d="M 322.28,278.7 H 322 a 2.51,2.51,0,0,0-2.5,2.5v.24 a 2.51,2.51,0,0,0,2.5,2.5 h .24 a 2.51,2.51,0,0,0,2.5-2.5v-.24 A 2.51,2.51,0,0,0,322.28,278.7Z m 1.65,2.7 a 1.69,1.69,0,0,1-1.69,1.69 h -.17 a 1.69,1.69,0,0,1-1.69-1.69v-.17 a 1.69,1.69,0,0,1,1.69-1.69 h .17 a 1.69,1.69,0,0,1,1.69,1.69Z"/>
    <path d="M 303,301.92 h -.24 a 2.51,2.51,0,0,0-2.5,2.5v.24 a 2.51,2.51,0,0,0,2.5,2.5 H 303 a 2.51,2.51,0,0,0,2.5-2.5v-.24 A 2.51,2.51,0,0,0,303,301.92Z m 1.65,2.7 a 1.69,1.69,0,0,1-1.69,1.69 h -.17 a 1.69,1.69,0,0,1-1.69-1.69v-.17 a 1.69,1.69,0,0,1,1.69-1.69 H 303 a 1.69,1.69,0,0,1,1.69,1.69Z"/>
    <path d="M 322,268.58 h .24 a 2.51,2.51,0,0,0,2.5-2.5v-.24 a 2.51,2.51,0,0,0-2.5-2.5 H 322 a 2.51,2.51,0,0,0-2.5,2.5v.24 A 2.51,2.51,0,0,0,322,268.58Z m -1.65-2.7 a 1.69,1.69,0,0,1,1.69-1.69 h .17 a 1.69,1.69,0,0,1,1.69,1.69V266 a 1.69,1.69,0,0,1-1.69,1.69 h -.17 a 1.69,1.69,0,0,1-1.69-1.69Z"/>
    <path d="M 332,270.47v.24 a 2.51,2.51,0,0,0,2.5,2.5 h .24 a 2.51,2.51,0,0,0,2.5-2.5v-.24 a 2.51,2.51,0,0,0-2.5-2.5 h -.24 A 2.51,2.51,0,0,0,332,270.47Z m .85,0 a 1.69,1.69,0,0,1,1.69-1.69 h .17 a 1.69,1.69,0,0,1,1.69,1.69v.17 a 1.69,1.69,0,0,1-1.69,1.69 h -.17 a 1.69,1.69,0,0,1-1.69-1.69Z"/>
    <path d="M 343.11,265.32 h .24 a 2.51,2.51,0,0,0,2.5-2.5v-.24 a 2.51,2.51,0,0,0-2.5-2.5 h -.24 a 2.51,2.51,0,0,0-2.5,2.5v.24 A 2.51,2.51,0,0,0,343.11,265.32Z m -1.65-2.7 a 1.69,1.69,0,0,1,1.69-1.69 h .17 a 1.69,1.69,0,0,1,1.69,1.69v.17 a 1.69,1.69,0,0,1-1.69,1.69 h -.17 a 1.69,1.69,0,0,1-1.69-1.69Z"/>
    <path d="M 304,275v.24 a 2.51,2.51,0,0,0,2.5,2.5 h .24 a 2.51,2.51,0,0,0,2.5-2.5V275 a 2.51,2.51,0,0,0-2.5-2.5 h -.24 A 2.51,2.51,0,0,0,304,275Z m 2.7-1.65 a 1.69,1.69,0,0,1,1.69,1.69v.17 a 1.69,1.69,0,0,1-1.69,1.69 h -.17 a 1.69,1.69,0,0,1-1.69-1.69v-.17 a 1.69,1.69,0,0,1,1.69-1.69Z"/>
    <path d="M 279,231.14 h .27 a 2.8,2.8,0,0,0,1.79-.66,2.81,2.81,0,0,0-.06.55v.27 a 2.84,2.84,0,0,0,2.83,2.83 h .27 a 2.82,2.82,0,0,0,2.28-1.17,2.79,2.79,0,0,0,0,.48v.27 a 2.84,2.84,0,0,0,2.83,2.83 h .27 a 2.8,2.8,0,0,0,1.76-.63,2.83,2.83,0,0,0,2.8,2.55 h .27 a 2.83,2.83,0,0,0,2.33-1.23,2.84,2.84,0,0,0,2.77,2.27 h .27 a 2.8,2.8,0,0,0,1.74-.62,2.79,2.79,0,0,0-.38,1.4v.27 a 2.84,2.84,0,0,0,2.83,2.83 h .27 a 2.8,2.8,0,0,0,1.07-.21,2.78,2.78,0,0,0-.18.94v.27 a 2.84,2.84,0,0,0,2.83,2.83 h .27 a 2.84,2.84,0,0,0,2.83-2.83v-.27 a 2.82,2.82,0,0,0-.82-2,2.83,2.83,0,0,0,2.16-2.74v-.27 a 2.83,2.83,0,0,0-1.37-2.41,2.83,2.83,0,0,0,1.87-2.65v-.27 a 2.8,2.8,0,0,0,0-.49,2.8,2.8,0,0,0,1.61.51 h .27 a 2.84,2.84,0,0,0,2.83-2.83v-.27 a 2.78,2.78,0,0,0-.14-.85,2.79,2.79,0,0,0,1.21.28 h .27 a 2.84,2.84,0,0,0,2.83-2.83V227 a 2.84,2.84,0,0,0-2.83-2.83 h -.27 a 2.81,2.81,0,0,0-2.06.91V225 a 2.84,2.84,0,0,0-2.83-2.83 h -.27 a 2.84,2.84,0,0,0-2.83,2.83v.27 a 2.78,2.78,0,0,0,0,.4,2.78,2.78,0,0,0-.94-.17 h -.27 a 2.84,2.84,0,0,0-2.76,2.23,2.81,2.81,0,0,0-1.88-.73 h -.27 a 2.83,2.83,0,0,0-2.74,2.14,2.83,2.83,0,0,0-2.38-1.32 H 299 a 2.83,2.83,0,0,0-2.3,1.2,2.83,2.83,0,0,0-2.7-2 h -.27 a 2.82,2.82,0,0,0-2,.82,2.83,2.83,0,0,0-2.82-2.74 h -.27 a 2.8,2.8,0,0,0-1.65.54 c 0-.09,0-.18,0-.27v-.27 a 2.84,2.84,0,0,0-2.83-2.83 h -.27 a 2.84,2.84,0,0,0-2.83,2.83v.27 a 2.81,2.81,0,0,0,.06.56,2.81,2.81,0,0,0-1.89-.74 H 279 a 2.84,2.84,0,0,0-2.83,2.83v.27 A 2.84,2.84,0,0,0,279,231.14Z m 3-3.66 a 2.81,2.81,0,0,0,1.76.73,2.8,2.8,0,0,0-1.76.65,2.81,2.81,0,0,0,.06-.55V228 A 2.81,2.81,0,0,0,282,227.48Z m 3.88,1.41 a 2.8,2.8,0,0,0-1.68-.67,2.8,2.8,0,0,0,1.62-.54 c 0,.09,0,.18,0,.27v.27 A 2.79,2.79,0,0,0,285.88,228.89Z m .05,2.38 a 1.92,1.92,0,0,1-1.91,1.91 h -.19 a 1.92,1.92,0,0,1-1.91-1.91v-.19 a 1.92,1.92,0,0,1,1.91-1.91 H 284 a 1.92,1.92,0,0,1,1.91,1.91Z m .91.53 a 2.79,2.79,0,0,0,0-.48V231 a 2.79,2.79,0,0,0-.09-.66,2.81,2.81,0,0,0,1.05.56 A 2.85,2.85,0,0,0,286.84,231.8Z m 5.35,1.38 a 2.8,2.8,0,0,0-.18-.78,2.81,2.81,0,0,0,.76.41 A 2.83,2.83,0,0,0,292.2,233.18Z m -1.11-2 a 2.81,2.81,0,0,0-.92-.46,2.85,2.85,0,0,0,.72-.51 A 2.8,2.8,0,0,0,291.09,231.2Z m -1.73,4.4 h -.19 a 1.92,1.92,0,0,1-1.91-1.91v-.19 a 1.92,1.92,0,0,1,1.91-1.91 h .19 a 1.92,1.92,0,0,1,1.91,1.91v.19 A 1.92,1.92,0,0,1,289.35,235.6Z m 6.74,0 a 1.92,1.92,0,0,1-1.91,1.91 H 294 a 1.92,1.92,0,0,1-1.91-1.91v-.19 A 1.92,1.92,0,0,1,294,233.5 h .19 a 1.92,1.92,0,0,1,1.91,1.91Z m 3.46,2.95 h -.19 a 1.92,1.92,0,0,1-1.91-1.91v-.19 a 1.92,1.92,0,0,1,1.91-1.91 h .19 a 1.92,1.92,0,0,1,1.91,1.91v.19 A 1.92,1.92,0,0,1,299.56,238.55Z M 302.4,237 a 2.84,2.84,0,0,0,.45.64,2.81,2.81,0,0,0-.8.44 A 2.79,2.79,0,0,0,302.4,237Z m 5-6.25 a 2.82,2.82,0,0,0,.91.55,2.84,2.84,0,0,0-1.46,1.88,2.81,2.81,0,0,0-1-.48 A 2.84,2.84,0,0,0,307.41,230.74Z m 4.94-2.77 a 2.79,2.79,0,0,0,.79.16,2.84,2.84,0,0,0-.75.5v-.25 A 2.78,2.78,0,0,0,312.35,228Z m -.84,3.5 a 2.82,2.82,0,0,0-.64-.33,2.84,2.84,0,0,0,.59-.41V231 A 2.8,2.8,0,0,0,311.51,231.47Z m -3.35,5-.32.14 a 2.77,2.77,0,0,0,.09-.29Z m -1.82,2.16 a 2.86,2.86,0,0,0-.22-.27 l .34-.15 A 2.77,2.77,0,0,0,306.34,238.63Z m .5,2.42 a 2.87,2.87,0,0,0,.27.33,2.81,2.81,0,0,0-.4.12 A 2.77,2.77,0,0,0,306.84,241.05Z m -1.89-7.49 h .19 a 1.91,1.91,0,0,1,1.72,1.1,2.81,2.81,0,0,0,.15.49,1.89,1.89,0,0,1,0,.31v.19 a 1.92,1.92,0,0,1-1.91,1.91 h -.19 l -.21,0-.29-.05 a 1.91,1.91,0,0,1-1.42-1.84v-.19 A 1.92,1.92,0,0,1,304.95,233.56Z m -.93,8.87 h -.19 a 1.92,1.92,0,0,1-1.91-1.91v-.19 a 1.92,1.92,0,0,1,1.91-1.91 H 304 l .21,0,.29.05 a 1.91,1.91,0,0,1,1.42,1.84v.19 A 1.92,1.92,0,0,1,304,242.43Z m 5.91,1.92 a 1.92,1.92,0,0,1-1.91,1.91 h -.19 a 1.92,1.92,0,0,1-1.91-1.91v-.19 a 1.92,1.92,0,0,1,1.91-1.91 H 308 a 1.92,1.92,0,0,1,1.91,1.91Z m 1.33-5 a 1.92,1.92,0,0,1-1.91,1.91 h -.19 a 1.92,1.92,0,0,1-1.91-1.91v-.19 a 1.92,1.92,0,0,1,1.91-1.91 h .19 a 1.92,1.92,0,0,1,1.91,1.91Z m .5-5.33 a 1.92,1.92,0,0,1-1.91,1.91 h -.19 a 1.91,1.91,0,0,1-1.72-1.1,2.81,2.81,0,0,0-.15-.49,1.89,1.89,0,0,1,0-.31v-.19 a 1.92,1.92,0,0,1,1.91-1.91 h .19 a 1.92,1.92,0,0,1,1.91,1.91Z m 4.67-3.08 a 1.92,1.92,0,0,1-1.91,1.91 h -.19 a 1.92,1.92,0,0,1-1.91-1.91v-.19 a 1.92,1.92,0,0,1,1.91-1.91 h .19 a 1.92,1.92,0,0,1,1.91,1.91Z m .16-3.86 a 1.92,1.92,0,0,1,1.91-1.91 h .19 a 1.92,1.92,0,0,1,1.91,1.91v.19 a 1.92,1.92,0,0,1-1.91,1.91 h -.19 a 1.92,1.92,0,0,1-1.91-1.91Z m -1,.15v.08 a 2.78,2.78,0,0,0,.14.85,2.79,2.79,0,0,0-1.06-.27 A 2.84,2.84,0,0,0,315.63,227.23Z m -4.2-2.15 a 1.92,1.92,0,0,1,1.91-1.91 h .19 a 1.92,1.92,0,0,1,1.91,1.91v.19 a 1.92,1.92,0,0,1-1.91,1.91 h -.19 a 1.92,1.92,0,0,1-1.91-1.91Z m -4,3.33 a 1.92,1.92,0,0,1,1.91-1.91 h .19 a 1.92,1.92,0,0,1,1.91,1.91v.19 a 1.92,1.92,0,0,1-1.91,1.91 h -.19 a 1.92,1.92,0,0,1-1.91-1.91Z m -4.92,1.5 a 1.92,1.92,0,0,1,1.91-1.91 h .19 a 1.92,1.92,0,0,1,1.91,1.91v.19 A 1.92,1.92,0,0,1,304.6,232 h -.19 a 1.92,1.92,0,0,1-1.91-1.91Z m -.51,1.74 a 2.84,2.84,0,0,0,1.71,1.23,2.83,2.83,0,0,0-1.59,2.24,2.84,2.84,0,0,0-1.94-1.49 A 2.83,2.83,0,0,0,302,231.66Z m -4.88-.92 a 1.92,1.92,0,0,1,1.91-1.91 h .19 a 1.92,1.92,0,0,1,1.91,1.91v.19 a 1.92,1.92,0,0,1-1.91,1.91 H 299 a 1.92,1.92,0,0,1-1.91-1.91Z m -.83,1 a 2.84,2.84,0,0,0,2.14,2,2.84,2.84,0,0,0-1.42,1.06,2.84,2.84,0,0,0-1.85-2.1 A 2.85,2.85,0,0,0,296.28,231.78Z m -4.44-1.86 a 1.92,1.92,0,0,1,1.91-1.91 h .19 a 1.92,1.92,0,0,1,1.91,1.91v.19 a 1.92,1.92,0,0,1-1.91,1.91 h -.19 a 1.92,1.92,0,0,1-1.91-1.91Z m -3.17-3.83 h .19 a 1.92,1.92,0,0,1,1.91,1.91v.19 a 1.92,1.92,0,0,1-1.91,1.91 h -.19 a 1.92,1.92,0,0,1-1.91-1.91V228 A 1.92,1.92,0,0,1,288.67,226.09Z m -6.64-.92 a 1.92,1.92,0,0,1,1.91-1.91 h .19 a 1.92,1.92,0,0,1,1.91,1.91v.19 a 1.92,1.92,0,0,1-1.91,1.91 h -.19 a 1.92,1.92,0,0,1-1.91-1.91Z m -4.94,2.92 a 1.92,1.92,0,0,1,1.91-1.91 h .19 a 1.92,1.92,0,0,1,1.91,1.91v.19 a 1.92,1.92,0,0,1-1.91,1.91 H 279 a 1.92,1.92,0,0,1-1.91-1.91Z"/>
  </g>
<script type="text/ecmascript" xlink:href="param.min.js"/> 
</svg>
