<?xml version="1.0"?>
<svg xmlns="http://www.w3.org/2000/svg" xmlns:xlink="http://www.w3.org/1999/xlink" viewBox="0 0 600 600">
  <title>slender-top-template</title>
  <g id="main-colour">
    <path d="M 367.52,407.88 c -10.33-3-14-8.17-18.17-16 s -7.17-24.17-9.5-36.33-8-18.33-12.5-25.83-4.17-10.17-2.5-19.67 c 1-5.82,3.36-13.71,5.55-22.36 a 17.2,17.2,0,0,0,12-4.19 c 7.13-6.12,8.88-14.12,7.25-20.25 s -7.5-10.12-11.37-12.75 A 84.26,84.26,0,0,1,327,240.12 c -.4-.64-.78-1.24-1.13-1.75 A 60.62,60.62,0,0,1,320,226.71 a 12.89,12.89,0,0,0-4.33,1 c 1,4.17,11,19.5,11,19.5 a 82.09,82.09,0,0,0-2.41,12.92 c -6.25-6.25-18.59-10.92-30.42-15.08-.33-5.67-2.83-16.67-5.5-19.83-1,1.67-4,2.67-4,2.67 S 287.86,237,288,246 c -2.33,7.67-16.67,14.17-16.67,14.17.17,11.5,5.17,28.83,8.67,37.67 s 3.17,16.5-.17,22.83-14.33,16.17-22.17,26.83-14.17,31.67-17.5,39-9.5,15.5-21.5,17.67 A 39.2,39.2,0,0,0,240.19,427 a 59.06,59.06,0,0,0-4.33,5 c 12-1.67,21,8,26.5,10.5 s 11.17,1.5,19.5-.33,10.67-.5,16.5,2.67,13.67,1.67,17.5,0,6.17-3.17,11.83-4.83 a 31.32,31.32,0,0,1,13.67-.33 c 1.17.33.67-1.33-1.33-4.33 C 352.36,431.71,364.19,415.71,367.52,407.88Z" fill="param(main_colour)"/>
  </g>
  <g id="fixed-colours">
    <path d="M 300,321.75 c -.87,5.25-3.75,10.25-6.37,15.38 a 93.6,93.6,0,0,0-8.12,27.13,138.61,138.61,0,0,0-.75,19.63 c 0,3.25-1,12.63-1,12.63 s 2.88-9.87,3-18.25 c .08-5.16,1.67-13.87,3.56-21.29,1.49-4,3.93-9.42,6.24-9.42,3.3,0,4.71,3.53,4.47,10.55q-.12,1.58-.26,3.15 c -1,11,.13,28.25,3,34-1-9.25-.5-22.37.13-31.25 S 306.23,333.63,300,321.75Z" opacity="0.15"/>
    <path d="M 323.92,341.75 c 3.21,8.1,7.06,18.88,7.06,18.88 s -4-23.75-14.5-37.62 c 2.75,9.5,6.38,29.88,6.75,39.63 a 85.72,85.72,0,0,0-.12-19.5 C 322.83,341.94,323.3,340.61,323.92,341.75Z" opacity="0.15"/>
    <path d="M 274.61,339 c -6.75,7.38-12,18-12,18,2.4-4.46,7.84-10.91,10.47-13.6.92-.37,3.78-2.46,2.45.81v0 l -.18.26 c -4.5,6.63-11.87,22-14,31.63,5.5-14.87,18.5-35.12,20.25-38.12 a 44.3,44.3,0,0,0,5.63-16.75 C 286.36,324.63,281.36,331.63,274.61,339Z" opacity="0.15"/>
  </g>
  <g id="outline">
    <path d="M 339.31,434.67 a 32.93,32.93,0,0,0,8.61-4.56,55.72,55.72,0,0,0,7.51-6.45,56.37,56.37,0,0,0,11.22-16.21 h 0 l .71,1.44 a 25.92,25.92,0,0,1-14.53-9.32,48.1,48.1,0,0,1-7.6-15.42,159.08,159.08,0,0,1-4-16.53 l -1.62-8.3 a 74.89,74.89,0,0,0-2-8.11,55.19,55.19,0,0,0-7.15-14.93 c -1.53-2.33-3.21-4.61-4.67-7.12 a 20.91,20.91,0,0,1-2.88-8.32,37.68,37.68,0,0,1,.25-8.69,67.48,67.48,0,0,1,1.92-8.36 c 1.58-5.44,3.16-10.79,4.3-16.28 l .17-.8 h .82 a 19.4,19.4,0,0,0,9.46-2.66,16.83,16.83,0,0,0,6.9-6.87,20.15,20.15,0,0,0,2.28-9.58,15.54,15.54,0,0,0-3-9.19 c -2-2.65-4.73-4.7-7.54-6.73 a 75.6,75.6,0,0,1-8.3-6.57,36.86,36.86,0,0,1-6.62-8.41,57.76,57.76,0,0,1-4.49-9.66 l .81.67 h 0 a 4.93,4.93,0,0,0-.88,0,7.83,7.83,0,0,0-1,.17,9.5,9.5,0,0,0-1.9.71 l .52-1.16 a 29.18,29.18,0,0,0,2.14,4.92 c .85,1.62,1.76,3.23,2.7,4.82,1.89,3.18,3.88,6.31,5.94,9.38 l .25.37-.11.44 c -.51,2.08-.94,4.23-1.33,6.36 s -.73,4.29-1,6.44 l -.28,2.09-1.45-1.55 a 29.57,29.57,0,0,0-6.61-4.83 c -2.43-1.4-4.95-2.65-7.51-3.83 a 121.88,121.88,0,0,0-15.8-6 l -.65-.19-.06-.68 a 63.86,63.86,0,0,0-1.74-10.08 c -.42-1.66-.91-3.29-1.46-4.91 a 49,49,0,0,0-1.86-4.72 l 1.61.27 c -.33.33-.65.63-1,.94 a 10.6,10.6,0,0,1-1.13.9,13.66,13.66,0,0,1-2.58,1.19 l .55-1.41 a 29.91,29.91,0,0,1,1.66,4.67 c .44,1.56.79,3.13,1.1,4.71 s .56,3.16.79,4.75.4,3.18.55,4.77 l 0,.37-.2.29 a 37.85,37.85,0,0,1-3.56,4.43,36.91,36.91,0,0,1-4.16,3.85,39.43,39.43,0,0,1-4.65,3.23 A 34.24,34.24,0,0,1,271.7,261 h 0 l .66-1 a 117.44,117.44,0,0,0,3.4,20.71q1.31,5.09,3.09,10 l 1.88,5 c .61,1.69,1.17,3.4,1.64,5.15 a 35.86,35.86,0,0,1,1.34,10.84,22.49,22.49,0,0,1-3.18,10.59,50.46,50.46,0,0,1-6.81,8.44 c -2.41,2.59-4.82,5.16-7.14,7.81 a 95.44,95.44,0,0,0-12.31,16.89,47.23,47.23,0,0,0-2.23,4.66 c -.66,1.59-1.27,3.26-1.87,4.91-1.2,3.31-2.37,6.66-3.63,10-2.54,6.64-5.35,13.3-9.57,19.27 a 32.69,32.69,0,0,1-7.7,7.91,21.65,21.65,0,0,1-10.52,3.93 h 0 l 1.23-2 A 42.34,42.34,0,0,0,223.3,411 a 37.7,37.7,0,0,0,4.61,6.13,39.61,39.61,0,0,0,12.35,9.09 l -.81,1.83 a 41.82,41.82,0,0,1-13.33-9.23,40.27,40.27,0,0,1-5.1-6.39,45.13,45.13,0,0,1-3.78-7.27 l -.72-1.75,1.95-.23 h 0 a 18.74,18.74,0,0,0,9.15-3.37,29.9,29.9,0,0,0,7.06-7.19 c 4-5.59,6.8-12.07,9.34-18.6,1.27-3.28,2.45-6.6,3.68-9.94.62-1.67,1.23-3.33,1.94-5 a 49.8,49.8,0,0,1,2.38-4.89,97.84,97.84,0,0,1,12.72-17.28 c 2.36-2.66,4.81-5.24,7.23-7.82 a 48.38,48.38,0,0,0,6.55-8,20.14,20.14,0,0,0,2.91-9.51,33.64,33.64,0,0,0-1.22-10.15 c -.43-1.67-1-3.33-1.55-5 l -1.86-5q-1.79-5.06-3.09-10.26 a 119.29,119.29,0,0,1-3.34-21.14 l 0-.72.71-.27 h 0 a 32.58,32.58,0,0,0,4.77-2.38,37.44,37.44,0,0,0,4.43-3.07,34.92,34.92,0,0,0,3.95-3.65,35.85,35.85,0,0,0,3.36-4.19 l -.17.65 c -.15-1.56-.33-3.13-.54-4.68 s -.47-3.1-.78-4.64-.65-3.06-1.07-4.55 a 28.81,28.81,0,0,0-1.51-4.29 l -.48-1,1-.38 a 12.16,12.16,0,0,0,2.15-1,8.85,8.85,0,0,0,.9-.72 c .3-.27.62-.57.9-.85 l 1-1,.59,1.28 a 50.57,50.57,0,0,1,2,4.95 c .57,1.67,1.08,3.35,1.51,5.06 a 65.86,65.86,0,0,1,1.8,10.4 l -.72-.87 a 123.81,123.81,0,0,1,16.07,6.08 c 2.6,1.2,5.17,2.47,7.68,3.91,1.25.72,2.48,1.48,3.68,2.32 a 21,21,0,0,1,3.42,2.89 l -1.73.54q.44-3.28,1-6.54 c .4-2.17.83-4.32,1.36-6.49 l .14.81 c -2.09-3.12-4.08-6.26-6-9.48-1-1.61-1.88-3.25-2.76-4.92 a 30.68,30.68,0,0,1-2.29-5.31 l -.24-.78.75-.38 a 11.5,11.5,0,0,1,2.31-.86,9.83,9.83,0,0,1,1.24-.22,6.39,6.39,0,0,1,1.36,0 h 0 l .6.08.21.59 a 55.91,55.91,0,0,0,4.32,9.28,34.82,34.82,0,0,0,6.28,8,73.8,73.8,0,0,0,8.09,6.39 c 2.81,2,5.76,4.18,8,7.16 a 17.58,17.58,0,0,1,3.41,10.35,22.15,22.15,0,0,1-2.51,10.56,16.36,16.36,0,0,1-3.3,4.43,22.34,22.34,0,0,1-4.39,3.26,21.41,21.41,0,0,1-10.46,2.93 l 1-.8 c -1.16,5.56-2.76,11-4.33,16.41 a 65.56,65.56,0,0,0-1.86,8.1,35.77,35.77,0,0,0-.24,8.17,18.84,18.84,0,0,0,2.62,7.53 c 1.37,2.37,3,4.64,4.61,7 a 57.29,57.29,0,0,1,7.41,15.45,77,77,0,0,1,2,8.32 l 1.62,8.29 a 157.18,157.18,0,0,0,4,16.31,46.11,46.11,0,0,0,7.26,14.75,23.84,23.84,0,0,0,13.39,8.59 l 1.23.3-.53,1.14 h 0 a 58.42,58.42,0,0,1-11.67,16.79,57.74,57.74,0,0,1-7.8,6.67,34.84,34.84,0,0,1-9.18,4.81Z"/>
    <path d="M 327.86,408.38 c .43,1.81,1,3.57,1.59,5.31 s 1.3,3.45,2,5.14 a 85.9,85.9,0,0,0,5,9.81q.68,1.2,1.43,2.35 c .5.77,1,1.56,1.5,2.31 l 1.55,2.27,1.64,2.2.41.55 a 2.87,2.87,0,0,1,.31.46,1.54,1.54,0,0,1-1.26,2.2,1.64,1.64,0,0,1-.48,0 l -.18,0-.33-.07 c -.88-.2-1.76-.33-2.65-.46 a 27.94,27.94,0,0,0-5.35-.14,31.74,31.74,0,0,0-10.37,2.65 c -1.65.7-3.29,1.57-5,2.33 a 35,35,0,0,1-5.41,1.9,22.68,22.68,0,0,1-11.57,0,28.46,28.46,0,0,1-5.39-2.14 c -.45-.23-.84-.41-1.22-.58 l -1.17-.54 a 16.71,16.71,0,0,0-2.47-.69 c -3.37-.71-6.93-.12-10.52.64 s -7.38,1.64-11.32,1.34 l -1.47-.16 c -.49-.06-1-.2-1.45-.29 a 21.71,21.71,0,0,1-2.81-.84,32.62,32.62,0,0,1-5.12-2.65 c -3.19-2-6.08-4.31-9.29-5.88 a 21.5,21.5,0,0,0-10.29-2.15 l -1.34.08-.67,0 h -.4 a 1.5,1.5,0,0,1-.48-.15,1.54,1.54,0,0,1-.39-2.48 l .62-.5,1-.83 c .71-.54,1.31-1.22,2-1.82 s 1.21-1.33,1.82-2 a 61.21,61.21,0,0,0,10.23-19.35,44.87,44.87,0,0,1-1.35,5.41,46.6,46.6,0,0,1-1.93,5.26,44.16,44.16,0,0,1-5.59,9.78 c -.62.72-1.19,1.48-1.85,2.17 s -1.31,1.39-2.06,2 l -1.11.92-.45.38 a .46.46,0,0,0,.1-.53.44.44,0,0,0-.2-.2 l -.15,0 H 236 l .72,0,1.44-.1 a 23.6,23.6,0,0,1,11.27,2.27 c 3.48,1.68,6.48,4,9.54,5.91 a 30.45,30.45,0,0,0,4.76,2.41,19.45,19.45,0,0,0,2.51.73 c .43.08.84.2,1.27.25 l 1.3.13 c 3.49.24,7-.59,10.66-1.39 a 46,46,0,0,1,5.62-1,18.65,18.65,0,0,1,5.88.25,19.12,19.12,0,0,1,2.87.83 c .45.2.9.42,1.35.63 s .9.43,1.28.62 a 26.1,26.1,0,0,0,4.9,2,20.34,20.34,0,0,0,10.41.1,32.72,32.72,0,0,0,5.08-1.74 c 1.66-.7,3.31-1.55,5.07-2.29 A 33.87,33.87,0,0,1,333,438.16 a 30,30,0,0,1,5.74.2 c .95.14,1.89.3,2.82.52 l .35.08.16,0 h -.13 a .45.45,0,0,0-.41.36 c -.08.17.2.53,0,.18 l -.41-.57 a 77.56,77.56,0,0,1-6-9.5,73.92,73.92,0,0,1-4.53-10.25,55.44,55.44,0,0,1-1.63-5.35 A 40.31,40.31,0,0,1,327.86,408.38Z"/>
    <path d="M 282.61,314.38 s 26,12.5,40.75.25" fill="none" stroke="#000" stroke-miterlimit="10" stroke-width="1.5"/>
    <path d="M 258.82,365.37 a 112.3,112.3,0,0,1,5.95-13.05,68.1,68.1,0,0,1,8-12,100.88,100.88,0,0,0,8.74-11.23 A 53.66,53.66,0,0,0,285,323 a 20.44,20.44,0,0,0,2.1-6.45 h 0 l 2,.08 a 33.92,33.92,0,0,1-1.4,9.79,50.61,50.61,0,0,1-3.81,9 c -1.53,2.86-3.2,5.62-4.85,8.37 s -3.33,5.51-5,8.24 a 173.49,173.49,0,0,0-9.31,16.82,99.34,99.34,0,0,0-6.55,18.06 l -.16,0 a 99.73,99.73,0,0,1,6.14-18.28,174.32,174.32,0,0,1,8.94-17.11 c 1.62-2.78,3.23-5.54,4.81-8.35 s 3.19-5.57,4.61-8.41 a 49,49,0,0,0,3.48-8.79,32,32,0,0,0,1.1-9.26 l 2,.08 h 0 a 22.08,22.08,0,0,1-2.52,7,55.28,55.28,0,0,1-3.83,6.18 A 102.14,102.14,0,0,1,273.52,341 a 67.33,67.33,0,0,0-8.27,11.56,112,112,0,0,0-6.36,12.81Z"/>
    <path d="M 281,409.35 a 159.25,159.25,0,0,0,3-22.51 l .09-2.83 c 0-.94,0-1.88,0-2.82-.06-1.85-.24-3.8-.21-5.72 a 87.68,87.68,0,0,1,.82-11.45,97,97,0,0,1,2.16-11.28,79,79,0,0,1,3.57-10.95,46.17,46.17,0,0,1,2.55-5.22,49.69,49.69,0,0,0,2.55-5,38.58,38.58,0,0,0,3-10.65 l .08-.69,0-.17 a 1.54,1.54,0,0,1,.06-.3,1.27,1.27,0,0,1,2.31-.22,1.62,1.62,0,0,1,.14.34 l .11.35.22.69q.42,1.38.79,2.78 c .5,1.86.92,3.73,1.3,5.61 a 103,103,0,0,1,1.62,11.38,94.32,94.32,0,0,1,.29,11.49 c -.14,3.85-.57,7.61-.87,11.39-.61,7.56-1.06,15.13-.92,22.7 a 84.66,84.66,0,0,0,.81,11.31,30,30,0,0,0,3.38,10.76 A 28.7,28.7,0,0,1,304,397.7 a 85.39,85.39,0,0,1-1.27-11.37 c -.33-7.62-.06-15.24.36-22.84.19-3.8.57-7.6.68-11.34 a 92.56,92.56,0,0,0-.38-11.27,101.12,101.12,0,0,0-1.69-11.16 c -.39-1.84-.82-3.67-1.32-5.48q-.37-1.36-.79-2.7 l -.21-.67-.11-.33 s -.08-.2,0,0 a .74.74,0,0,0,.36.32.73.73,0,0,0,1-.45.65.65,0,0,0,0-.12 l 0,.18-.09.73 a 40.53,40.53,0,0,1-3.25,11.18,51.64,51.64,0,0,1-2.68,5.14,44.33,44.33,0,0,0-2.47,5,95.79,95.79,0,0,0-5.84,21.73,86.21,86.21,0,0,0-1,11.24 c -.07,1.89.06,3.72.08,5.67 s -.05,3.84-.2,5.74 c -.31,3.81-.85,7.59-1.5,11.34 s -1.44,7.47-2.38,11.16Z"/>
    <path d="M 323.7,373.13 c -.37-4.72-.78-9.43-1.34-14.12 s -1.11-9.38-1.91-14-1.66-9.28-2.9-13.8 a 68.33,68.33,0,0,0-2.14-6.65,28.37,28.37,0,0,0-1.38-3.17 l -.37-.78-.09-.19,0-.1,0,0 a 1.11,1.11,0,0,1-.12-.64,1.08,1.08,0,0,1,1.65-.79,1.1,1.1,0,0,1,.24.21 l 0,0,.14.18,1.15,1.44 a 50.41,50.41,0,0,1,3.85,6.13 c .58,1.05,1.14,2.11,1.64,3.2 s 1,2.16,1.49,3.26 a 118.91,118.91,0,0,1,4.88,13.43,128.06,128.06,0,0,1,5.25,28 l -.15,0 c -.69-4.69-1.55-9.33-2.67-13.92 s -2.35-9.14-3.87-13.6-3.18-8.86-5.13-13.14 A 66.14,66.14,0,0,0,315,321.84 l -1.08-1.33-.13-.17,0,0 a .9.9,0,0,0,.2.17.93.93,0,0,0,.63.13.91.91,0,0,0,.66-1.33 l 0,.05,0,.1.1.21.39.83 a 30.22,30.22,0,0,1,1.43,3.34,70.25,70.25,0,0,1,2.18,6.87,126.8,126.8,0,0,1,2.67,14 c .65,4.71,1.09,9.44,1.44,14.17 s .51,9.47.47,14.22Z"/>
    <path d="M 308.84,289.82 a 26.8,26.8,0,0,1-17-2.46,23.38,23.38,0,0,0,12.9,4.59 c 1.62.07,8.34.93,14.65-6.46 A 28.12,28.12,0,0,1,308.84,289.82Z"/>
  </g>
<script type="text/ecmascript" xlink:href="param.min.js"/> 
</svg>
