<?xml version="1.0"?>
<svg xmlns="http://www.w3.org/2000/svg" xmlns:xlink="http://www.w3.org/1999/xlink" viewBox="0 0 600 600">
  <title>wedding-dress-curvy</title>
  <g id="main-colour">
    <path d="M 254.65,266.8 s 8.19,2.93,19.75-1.75,10.69-6.58,19.28-6.92 A 26.14,26.14,0,0,1,310,262.71 c 7.5-6.92,17.42-10.08,29.58-9.83,6.33,14.92,3.53,21.42-.67,34.83-2.5,8.33-6.28,18.5-4.44,26.5 s 5.67,14.25,13.67,24.58,27,35,39.08,55.42,29,55.33,35.67,105.17 c 2.5,17.17,1.83,45.33,1.83,45.33 s -3.83,7-16,7.33 c -.83,5.67-1.17,11-1.17,11 s -3.33,5.5-12.83,6.83-18,1-20.67,5 c .5,6.5.5,7.67.5,7.67 a 46,46,0,0,0-17,6.83 c -9.17,5.83-17.17,7.17-27,6 s -24.83-7.17-31.67-3.5 c -.83-4.33-1-5.83-1-5.83 s -6-3.67-20.17-2.83-28.17-3.33-32-8.67 c -1-5.5-1.33-7.17-1.33-7.17 s -8.83-3.83-14.33-3.83-18,1.33-22.67-6.33 c -1.67-9.83-2-10.33-2-10.33 a 24,24,0,0,0-6.17-1.17 c -2.67,0-7.67-1.33-8.33-4.17 s -5.17-39.17-.83-67.17,16.17-74.33,36-106,34.5-44,38-50.83,4.33-14.5,1.5-19.33 S 254.4,279,254.65,266.8Z" fill="param(main_colour)"/>
  </g>
  <g id="accent-colour-1">
    <path d="M 310.51,262.21 s 4.17,17.17,3.83,33.5,3.5,47.67,3.5,47.67 h -1.17 s -2.23-16.65-3.17-32.5 c -1-17,.5-25.67-4.67-48.17 C 309.51,262.55,310.51,262.21,310.51,262.21Z" fill="param(accent_colour_1)"/>
    <path d="M 323.17,255.38 a 138,138,0,0,1,2,38.5,157.92,157.92,0,0,0,.5,36.17 l 1.17-1.5 s -1.41-16.68-.55-27.67 c 1-12.83,2.38-32-1.78-46 C 323.34,254.55,323.17,255.38,323.17,255.38Z" fill="param(accent_colour_1)"/>
    <path d="M 335.51,253 s 2.83,16,.67,30.17 c -2.07,13.54-6,27-.83,37.67-1-7.67-2.67-9,.67-27.5 s 3.67-27.83.67-40.5 A 9.4,9.4,0,0,0,335.51,253Z" fill="param(accent_colour_1)"/>
    <path d="M 293,258.38 s 2.12,18.36,5,29.83 c 4,15.67,3.45,33.67,1.45,42 l -1-.33 s 2.17-17.17-.5-33.33-6.17-24-6.5-38 A .92.92,0,0,1,293,258.38Z" fill="param(accent_colour_1)"/>
    <path d="M 278.34,263.71 s 2.78,15.13,6.5,26.17 c 5,14.83-1.5,34.33-1.5,34.33 h -1.17 s 4.83-20.83,1.5-31.83 c -3-9.84-6.67-22.67-6.83-28 A 1.53,1.53,0,0,1,278.34,263.71Z" fill="param(accent_colour_1)"/>
    <path d="M 265.17,268 s 3,14.83,8,25.67,3.17,23.83-1.17,29.83 a 14.43,14.43,0,0,0-1.83-.17 s 6.17-9.67,4.33-19.17-7.67-18.5-10.83-36.33Z" fill="param(accent_colour_1)"/>
    <circle cx="275.06" cy="229.71" r="2.58" fill="param(accent_colour_1)"/>
    <circle cx="280.06" cy="232.55" r="2.58" fill="param(accent_colour_1)"/>
    <circle cx="285.4" cy="235.05" r="2.58" fill="param(accent_colour_1)"/>
    <circle cx="290.89" cy="237.15" r="2.58" fill="param(accent_colour_1)"/>
    <circle cx="296.41" cy="238.59" r="2.58" fill="param(accent_colour_1)"/>
    <circle cx="302.12" cy="239.5" r="2.58" fill="param(accent_colour_1)"/>
    <circle cx="308.02" cy="238.92" r="2.58" fill="param(accent_colour_1)"/>
    <circle cx="313.69" cy="237.85" r="2.58" fill="param(accent_colour_1)"/>
    <circle cx="318.65" cy="234.63" r="2.58" fill="param(accent_colour_1)"/>
    <circle cx="322.62" cy="230.71" r="2.58" fill="param(accent_colour_1)"/>
    <circle cx="311.16" cy="243.13" r="2.58" transform="translate(47.33 536.95) rotate(-86.08)" fill="param(accent_colour_1)"/>
    <circle cx="304.87" cy="243.9" r="2.58" transform="translate(40.69 531.38) rotate(-86.08)" fill="param(accent_colour_1)"/>
    <circle cx="308.44" cy="247.8" r="2.58" transform="translate(40.14 538.58) rotate(-86.08)" fill="param(accent_colour_1)"/>
    <circle cx="279.73" cy="226.19" r="2.58" fill="param(accent_colour_1)"/>
    <circle cx="284.31" cy="228.96" r="2.58" fill="param(accent_colour_1)"/>
    <circle cx="289.31" cy="231.23" r="2.58" fill="param(accent_colour_1)"/>
    <circle cx="294.31" cy="233.25" r="2.58" fill="param(accent_colour_1)"/>
    <circle cx="299.7" cy="234.23" r="2.58" fill="param(accent_colour_1)"/>
    <circle cx="305.4" cy="234.3" r="2.58" fill="param(accent_colour_1)"/>
    <circle cx="310.78" cy="233.44" r="2.58" fill="param(accent_colour_1)"/>
    <circle cx="315.42" cy="230.75" r="2.58" fill="param(accent_colour_1)"/>
    <circle cx="319.48" cy="226.64" r="2.58" fill="param(accent_colour_1)"/>
    <circle cx="265.34" cy="273" r="2.19" fill="param(accent_colour_1)"/>
    <circle cx="268.4" cy="285.12" r="2.19" fill="param(accent_colour_1)"/>
    <circle cx="279.43" cy="275.24" r="2.19" fill="param(accent_colour_1)"/>
    <circle cx="293.08" cy="264.76" r="2.19" fill="param(accent_colour_1)"/>
    <circle cx="295.14" cy="278.68" r="2.19" fill="param(accent_colour_1)"/>
    <circle cx="283.05" cy="287.2" r="2.19" fill="param(accent_colour_1)"/>
    <circle cx="273.2" cy="296.96" r="2.19" fill="param(accent_colour_1)"/>
    <circle cx="275.22" cy="308.32" r="2.19" fill="param(accent_colour_1)"/>
    <circle cx="285.73" cy="300.63" r="2.19" fill="param(accent_colour_1)"/>
    <circle cx="298.51" cy="292.97" r="2.19" fill="param(accent_colour_1)"/>
    <circle cx="313.03" cy="283.36" r="2.19" fill="param(accent_colour_1)"/>
    <circle cx="311.29" cy="270.51" r="2.19" fill="param(accent_colour_1)"/>
    <circle cx="325.07" cy="260.9" r="2.19" fill="param(accent_colour_1)"/>
    <circle cx="326.48" cy="276.31" r="2.19" fill="param(accent_colour_1)"/>
    <circle cx="326.08" cy="291.86" r="2.19" fill="param(accent_colour_1)"/>
    <circle cx="336.89" cy="282.74" r="2.19" fill="param(accent_colour_1)"/>
    <circle cx="337.94" cy="268.17" r="2.19" fill="param(accent_colour_1)"/>
    <circle cx="313.62" cy="301.14" r="2.19" fill="param(accent_colour_1)"/>
    <circle cx="325.23" cy="308.47" r="2.19" fill="param(accent_colour_1)"/>
    <circle cx="300.04" cy="309.36" r="2.19" fill="param(accent_colour_1)"/>
    <circle cx="284.67" cy="315.55" r="2.19" fill="param(accent_colour_1)"/>
    <circle cx="273.03" cy="319.03" r="2.19" fill="param(accent_colour_1)"/>
    <circle cx="299.89" cy="323.78" r="2.19" fill="param(accent_colour_1)"/>
    <circle cx="314.43" cy="316.79" r="2.19" fill="param(accent_colour_1)"/>
    <circle cx="325.68" cy="321.39" r="2.19" fill="param(accent_colour_1)"/>
    <circle cx="315.94" cy="330.62" r="2.19" fill="param(accent_colour_1)"/>
  </g>
  <g id="outline">
    <path d="M 275,232.64 h .27 a 2.81,2.81,0,0,0,1.95-.79,2.8,2.8,0,0,0-.05.52v.27 a 2.84,2.84,0,0,0,2.83,2.83 h .27 a 2.83,2.83,0,0,0,2.29-1.19,2.81,2.81,0,0,0-.06.58v.27 A 2.84,2.84,0,0,0,285.3,238 h .27 a 2.82,2.82,0,0,0,2.43-1.41,2.77,2.77,0,0,0,0,.41v.27 a 2.84,2.84,0,0,0,2.83,2.83 h .27 a 2.83,2.83,0,0,0,2.42-1.38,2.84,2.84,0,0,0,2.83,2.82 h .27 a 2.83,2.83,0,0,0,2.64-1.85,2.83,2.83,0,0,0,2.82,2.77 h .07 a 2.8,2.8,0,0,0-.29,1.07 l 0,.27 a 2.84,2.84,0,0,0,2.63,3 l .27,0 a 2.78,2.78,0,0,0,.93-.1,2.78,2.78,0,0,0-.18.78 l 0,.27 a 2.84,2.84,0,0,0,2.63,3 l .27,0 a 2.84,2.84,0,0,0,3-2.63 l 0-.27 a 2.8,2.8,0,0,0-.48-1.75 h .17 a 2.84,2.84,0,0,0,3-2.63 l 0-.27 a 2.83,2.83,0,0,0-1.33-2.58,2.78,2.78,0,0,0,.78.12 h .27 a 2.84,2.84,0,0,0,2.83-2.83v-.27 a 2.78,2.78,0,0,0-.15-.85,2.81,2.81,0,0,0,1.94.78 h .27 a 2.84,2.84,0,0,0,2.83-2.83v-.27 a 2.79,2.79,0,0,0-.26-1.16,2.79,2.79,0,0,0,1.21.29 h .27 a 2.84,2.84,0,0,0,2.83-2.83v-.27 a 2.84,2.84,0,0,0-2.83-2.83 h -.27 a 2.75,2.75,0,0,0-.33,0,2.78,2.78,0,0,0,.17-.93v-.27 a 2.84,2.84,0,0,0-2.83-2.83 h -.27 a 2.84,2.84,0,0,0-2.83,2.83v.27 a 2.78,2.78,0,0,0,.32,1.27,2.79,2.79,0,0,0-1.2-.28 h -.27 a 2.84,2.84,0,0,0-2.83,2.83v.25 a 2.8,2.8,0,0,0-1.5-.44 h -.27 a 2.84,2.84,0,0,0-2.76,2.21,2.83,2.83,0,0,0-2.33-1.24 h -.27 a 2.83,2.83,0,0,0-2.64,1.85,2.83,2.83,0,0,0-2.71-2.06 h -.27 a 2.83,2.83,0,0,0-2.41,1.37,2.84,2.84,0,0,0-2.78-2.32 h -.27 a 2.81,2.81,0,0,0-1.9.75,2.83,2.83,0,0,0-2.82-2.77 h -.27 a 2.81,2.81,0,0,0-1.89.74v-.18 a 2.84,2.84,0,0,0-2.83-2.83 h -.27 a 2.8,2.8,0,0,0-1.5.44 s 0-.07,0-.11V226 a 2.84,2.84,0,0,0-2.83-2.83 h -.27 a 2.84,2.84,0,0,0-2.83,2.83v.27 a 2.8,2.8,0,0,0,.21,1.06,2.8,2.8,0,0,0-1.77-.64 H 275 a 2.84,2.84,0,0,0-2.83,2.83v.27 A 2.84,2.84,0,0,0,275,232.64Z m 6.55-2.78 a 2.79,2.79,0,0,0-1.28-.32 H 280 a 2.81,2.81,0,0,0-1.95.79,2.8,2.8,0,0,0,.05-.52v-.27 a 2.8,2.8,0,0,0-.21-1.06,2.8,2.8,0,0,0,1.77.64 h .27 a 2.8,2.8,0,0,0,1.5-.44 s 0,.07,0,.11v.27 A 2.78,2.78,0,0,0,281.51,229.86Z m .59,2.74 a 1.92,1.92,0,0,1-1.91,1.91 H 280 a 1.92,1.92,0,0,1-1.91-1.91v-.19 A 1.92,1.92,0,0,1,280,230.5 h .19 a 1.92,1.92,0,0,1,1.91,1.91Z m .9.63 a 2.81,2.81,0,0,0,.06-.58v-.27 a 2.78,2.78,0,0,0-.13-.8,2.79,2.79,0,0,0,1.28.32 h .27 a 2.81,2.81,0,0,0,1.89-.74v.18 a 2.78,2.78,0,0,0,.16.89,2.79,2.79,0,0,0-1-.18 h -.27 A 2.83,2.83,0,0,0,283,233.23Z m 4.43,1.87 a 1.92,1.92,0,0,1-1.91,1.91 h -.19 a 1.92,1.92,0,0,1-1.91-1.91v-.19 a 1.92,1.92,0,0,1,1.91-1.91 h .19 a 1.92,1.92,0,0,1,1.91,1.91Z m .92.45 a 2.78,2.78,0,0,0,0-.41v-.27 a 2.78,2.78,0,0,0-.16-.89,2.79,2.79,0,0,0,1,.18 h .27 a 2.81,2.81,0,0,0,1.9-.75,2.78,2.78,0,0,0,.14.78,2.79,2.79,0,0,0-.45,0 h -.27 A 2.82,2.82,0,0,0,288.36,235.56Z m 4.57,1.65 a 1.92,1.92,0,0,1-1.91,1.91 h -.19 a 1.92,1.92,0,0,1-1.91-1.91V237 a 1.92,1.92,0,0,1,1.91-1.91 H 291 a 1.92,1.92,0,0,1,1.91,1.91Z m 1-.24 a 2.78,2.78,0,0,0-.14-.83,2.79,2.79,0,0,0,.45,0 h .4 A 2.84,2.84,0,0,0,293.89,237Z m 4.56,1.68 a 1.92,1.92,0,0,1-1.91,1.91 h -.19 a 1.92,1.92,0,0,1-1.91-1.91v-.19 a 1.92,1.92,0,0,1,1.91-1.91 h .19 a 1.92,1.92,0,0,1,1.91,1.91Z m 1-.29 a 2.79,2.79,0,0,0-.35-1.29,2.8,2.8,0,0,0,.61.07 h .27 a 2.77,2.77,0,0,0,.39,0 A 2.84,2.84,0,0,0,299.41,238.35Z m .78,1.21v-.19 a 1.92,1.92,0,0,1,1.91-1.91 h .19 a 1.92,1.92,0,0,1,1.91,1.91v.19 a 1.92,1.92,0,0,1-1.91,1.91 h -.19 A 1.92,1.92,0,0,1,300.19,239.56Z m 5,.16 a 2.81,2.81,0,0,0,.64,1.3,2.79,2.79,0,0,0-.66-.13 l -.27,0 h 0 A 2.79,2.79,0,0,0,305.15,239.72Z m 3.51,5.14 h -.17 a 2.78,2.78,0,0,0-.93.1,2.78,2.78,0,0,0,.18-.78 l 0-.27 a 2.82,2.82,0,0,0-.68-2,2.78,2.78,0,0,0,.84.14 h .27 l .21,0 a 2.77,2.77,0,0,0-.21.85 l 0,.27 A 2.8,2.8,0,0,0,308.65,244.87Z m 1.41-5.73 a 1.92,1.92,0,0,1-1.91,1.91 H 308 a 1.92,1.92,0,0,1-1.91-1.91V239 A 1.92,1.92,0,0,1,308,237 h .19 a 1.92,1.92,0,0,1,1.91,1.91Z m -5.51,6.69 a 1.92,1.92,0,0,1-1.78-2v-.19 a 1.92,1.92,0,0,1,2-1.78 H 305 a 1.92,1.92,0,0,1,1.77,2v.19 a 1.92,1.92,0,0,1-2,1.78Z m 5.85,2.23 a 1.92,1.92,0,0,1-2,1.77 h -.19 a 1.92,1.92,0,0,1-1.78-2v-.19 a 1.92,1.92,0,0,1,2-1.77 h .19 a 1.92,1.92,0,0,1,1.77,2Z m 2.73-4.64 a 1.92,1.92,0,0,1-2,1.77 h -.19 a 1.92,1.92,0,0,1-1.77-2V243 a 1.92,1.92,0,0,1,2-1.78 h .19 a 1.92,1.92,0,0,1,1.77,2Z m -1.65-3.18-.27,0 a 2.77,2.77,0,0,0-.39,0,2.79,2.79,0,0,0,.2-1,2.85,2.85,0,0,0,1,1.13 A 2.81,2.81,0,0,0,311.48,240.23Z m 2.28-6.69v-.25 a 2.8,2.8,0,0,0,1.5.44 h .27 l .23,0 a 2.78,2.78,0,0,0-.13.81v.27 a 2.78,2.78,0,0,0,.15.85,2.81,2.81,0,0,0-1.94-.78 h -.42 A 2.79,2.79,0,0,0,313.76,233.54Z m 1.94,4.38 a 1.92,1.92,0,0,1-1.91,1.91 h -.19 a 1.92,1.92,0,0,1-1.91-1.91v-.19 a 1.92,1.92,0,0,1,1.91-1.91 h .19 a 1.92,1.92,0,0,1,1.91,1.91Z m 4.9-3.17 a 1.92,1.92,0,0,1-1.91,1.91 h -.19 a 1.92,1.92,0,0,1-1.91-1.91v-.19 a 1.9,1.9,0,0,1,.54-1.32,2.84,2.84,0,0,0,.33-.28,1.89,1.89,0,0,1,1-.31 h .19 a 1.92,1.92,0,0,1,1.91,1.91Z m -2.55-5.39 a 2.79,2.79,0,0,0,1.2.28 h .27 a 2.76,2.76,0,0,0,.33,0,2.78,2.78,0,0,0-.17.93v.27 a 2.79,2.79,0,0,0,.26,1.16,2.79,2.79,0,0,0-1.21-.29 h -.27 l -.23,0 a 2.78,2.78,0,0,0,.13-.81v-.27 A 2.79,2.79,0,0,0,318.05,229.36Z m 4.51-.69 h .19 a 1.92,1.92,0,0,1,1.91,1.91v.19 a 1.92,1.92,0,0,1-1.91,1.91 h -.19 a 1.92,1.92,0,0,1-1.91-1.91v-.19 A 1.92,1.92,0,0,1,322.56,228.67Z m -5.18-2.09 a 1.92,1.92,0,0,1,1.91-1.91 h .19 a 1.92,1.92,0,0,1,1.91,1.91v.19 a 1.92,1.92,0,0,1-1.91,1.91 h -.19 a 1.92,1.92,0,0,1-1.91-1.91Z m -4,4.09 a 1.92,1.92,0,0,1,1.91-1.91 h .19 a 1.92,1.92,0,0,1,1.91,1.91v.19 a 1.9,1.9,0,0,1-.54,1.32,2.86,2.86,0,0,0-.33.27,1.89,1.89,0,0,1-1,.31 h -.19 a 1.92,1.92,0,0,1-1.91-1.91Z m -4.6,2.64 a 1.92,1.92,0,0,1,1.91-1.91 h .19 a 1.92,1.92,0,0,1,1.91,1.91v.19 a 1.92,1.92,0,0,1-1.91,1.91 h -.19 a 1.92,1.92,0,0,1-1.91-1.91Z m 1.87,3.06 h .42 a 2.79,2.79,0,0,0-.35,1.33,2.83,2.83,0,0,0-2.54-1.6 h -.27 a 2.82,2.82,0,0,0,.4-.95 A 2.83,2.83,0,0,0,310.66,236.37Z m -7.23-2.08 a 1.92,1.92,0,0,1,1.91-1.91 h .19 a 1.92,1.92,0,0,1,1.91,1.91v.19 a 1.92,1.92,0,0,1-1.91,1.91 h -.19 a 1.92,1.92,0,0,1-1.91-1.91Z m -.84,1 a 2.83,2.83,0,0,0,2.71,2.06 h .27 a 2.8,2.8,0,0,0-.46,1.44,2.84,2.84,0,0,0-2.78-2.29 h -.27 a 2.77,2.77,0,0,0-.39,0 A 2.84,2.84,0,0,0,302.59,235.29Z m -4.78-1.21 a 1.92,1.92,0,0,1,1.91-1.91 h .19 a 1.92,1.92,0,0,1,1.91,1.91v.19 a 1.92,1.92,0,0,1-1.91,1.91 h -.19 a 1.92,1.92,0,0,1-1.91-1.91Z m -.91.74 a 2.79,2.79,0,0,0,.31.84,2.8,2.8,0,0,0-.61-.07 h -.4 A 2.85,2.85,0,0,0,296.89,234.81Z m -4.55-1.69 a 1.92,1.92,0,0,1,1.91-1.91 h .19 a 1.92,1.92,0,0,1,1.91,1.91v.19 a 1.92,1.92,0,0,1-1.91,1.91 h -.19 a 1.92,1.92,0,0,1-1.91-1.91Z m -5-2 a 1.92,1.92,0,0,1,1.91-1.91 h .19 a 1.92,1.92,0,0,1,1.91,1.91v.19 a 1.92,1.92,0,0,1-1.91,1.91 h -.19 a 1.92,1.92,0,0,1-1.91-1.91Z m -3.09-4.18 h .19 a 1.92,1.92,0,0,1,1.91,1.91V229 a 1.92,1.92,0,0,1-1.91,1.91 h -.19 a 1.92,1.92,0,0,1-1.91-1.91v-.19 A 1.92,1.92,0,0,1,284.25,226.92Z m -6.5-.86 a 1.92,1.92,0,0,1,1.91-1.91 h .19 a 1.92,1.92,0,0,1,1.91,1.91v.19 a 1.92,1.92,0,0,1-1.91,1.91 h -.19 a 1.92,1.92,0,0,1-1.91-1.91Z m -4.66,3.52 a 1.92,1.92,0,0,1,1.91-1.91 h .19 a 1.92,1.92,0,0,1,1.91,1.91v.19 a 1.92,1.92,0,0,1-1.91,1.91 H 275 a 1.92,1.92,0,0,1-1.91-1.91Z"/>
    <path d="M 426.4,523.54 c -.67-28.33-9.83-72.5-22-99.83 s -32.12-57-39.62-66.33-21-24.62-26.75-35.5-2.37-23.12,1.63-33.62 c .44-1.29,2.57-7.69,3.19-9.37 s 2.52-8.92,1.17-15.33 A 47.7,47.7,0,0,0,339.87,252 a 42,42,0,0,0-30.16,9.58 A 30.05,30.05,0,0,0,292.17,257 c -5.62.25-11,4-20,7.63-11.21,4.45-18.62.88-18.62.88.63,13.79,5.71,22.71,9.88,30.54 s 3.5,14.17.33,19.83-20.5,24.17-30.5,38.67-29.33,49.33-39.17,92-9.17,65.83-4.17,96.33 a 16,16,0,0,0,8.67,4.17,21.05,21.05,0,0,1,5.87,1.61q.64,4.62,1.46,9.22 c 6.25,7.25,14,6.75,21.25,6.75,6,0,13.19,2.74,16.2,4.53.18,2.22.36,4.46.55,6.72,13,9.75,23.75,9.5,31.75,8.75,7.26-.68,15.94.29,21.23,2.9.47,3.82.77,5.85.77,5.85 s 9-2.75,17.25.25,25.75,7.5,39-.5,19-8.75,21.75-8.25 c 0-2.95,0-6,0-9.25,2.09-1.59,6.84-3.39,16.49-4,11.75-.75,16.75-8.25,16.75-8.25 s .39-4.05.73-9.78 c 1.21-.27,3.2-.67,6.43-1.22,6.83-1.17,10.17-7.83,10.17-7.83 A 130.51,130.51,0,0,0,426.4,523.54Z M 267.77,303.13 a 34,34,0,0,1,3.13,11.63 c .63-2.37-1-11.5-5.87-19.62 s -8.5-17-9.37-27 c 13.13,2.13,19.6-2.74,29-6.75,7.83-3.33,18-2.92,25.33,2.33,5.38-7,21.87-11,29.12-9.83,0,0,3.26,7,3.22,13.17 s -2.43,15.17-3.8,19.33 C 335.15,296.64,332.4,306.5,333,313 a 25.42,25.42,0,0,0,2,7 c -10.08,5.69-17.8,22.71-17.8,22.71 s -8.83-12.5-27.5-17.33 c -14.4-3.73-24.33-3.19-28.12-2.75 C 266.06,317.2,269.3,311.61,267.77,303.13Z M 423.56,543.88 c -1,2.5-5.33,5.33-7.33,5.83-1.38.35-4.6.93-6.45,1.26.27-5.08.47-11.05.37-16.59 a 284.21,284.21,0,0,0-24.75-114 c -16.5-36.25-49-80.5-49-80.5 s 31.75,50.75,42.25,73.25,23,59.5,26.25,91.25 a 370.77,370.77,0,0,1,1.25,58.5 s -8.75,6.5-17.75,6.25 a 27.75,27.75,0,0,0-12.76,2.65 c -.32-32.08-2.87-75.11-12.49-114.9-11-45.5-28-89.75-38.75-104.75,12.5,27.75,21,48.25,34,98.75 s 13.25,98,14.25,130.25 c -8,1-18.25,8-22.25,10 s -15.25,4.5-25,1.75-19.5-5.25-24.75-3 c -3.25-36.25-4.5-61.25-4.75-100 s 6-99.75,14.5-137 c 0,0-16,53.5-18,123 a 781.07,781.07,0,0,0,4.08,108.32 c -2.48-1.08-9.86-3.72-20.33-2.32 a 38.8,38.8,0,0,1-29-8 c -1.25-21.25-4.5-38.5-1.25-83 s 12.5-77.25,41-145 c 0,0-27.5,49-37.75,99.25-9.44,46.27-9.12,80.67-6.09,120.38-2.85-1.46-9.12-4.18-15.41-3.63-8.5.75-13.75-1.25-19-5.5-3-26-5.5-48.75,1.25-90.75 s 27.25-81,33-92.5,21.83-35.42,21.83-35.42-25.17,27.83-42.67,74 c -16,42.31-23.6,88.88-18,133.89-2.84-1-6.42-.34-11.32-4.05-5-26.83-4-57.17,3.17-90 s 19.88-62.79,31.63-82.67 c 10.81-18.28,25.73-36.34,31.85-43.59,30.91-3.11,49.29,10.2,58.53,20.76 a 62.06,62.06,0,0,1,18-24.16 c 3.11,6.65,8.76,15.31,17.2,25.16,13,15.17,34.83,50,41,61.5 s 17.83,38.83,23.5,67.33 S 424.23,524.71,423.56,543.88Z"/>
    <path d="M 280.49,287.09v.24 a 2.51,2.51,0,0,0,2.5,2.5 h .24 a 2.51,2.51,0,0,0,2.5-2.5v-.24 a 2.51,2.51,0,0,0-2.5-2.5 H 283 A 2.51,2.51,0,0,0,280.49,287.09Z m .85,0 a 1.69,1.69,0,0,1,1.69-1.69 h .17 a 1.69,1.69,0,0,1,1.69,1.69v.17 a 1.69,1.69,0,0,1-1.69,1.69 H 283 a 1.69,1.69,0,0,1-1.69-1.69Z"/>
    <path d="M 279.38,277.87 h .24 a 2.51,2.51,0,0,0,2.5-2.5v-.24 a 2.51,2.51,0,0,0-2.5-2.5 h -.24 a 2.51,2.51,0,0,0-2.5,2.5v.24 A 2.51,2.51,0,0,0,279.38,277.87Z m -1.65-2.7 a 1.69,1.69,0,0,1,1.69-1.69 h .17 a 1.69,1.69,0,0,1,1.69,1.69v.17 a 1.69,1.69,0,0,1-1.69,1.69 h -.17 a 1.69,1.69,0,0,1-1.69-1.69Z"/>
    <path d="M 284.83,312.88 h -.24 a 2.51,2.51,0,0,0-2.5,2.5v.24 a 2.51,2.51,0,0,0,2.5,2.5 h .24 a 2.51,2.51,0,0,0,2.5-2.5v-.24 A 2.51,2.51,0,0,0,284.83,312.88Z m 1.65,2.7 a 1.69,1.69,0,0,1-1.69,1.69 h -.17 a 1.69,1.69,0,0,1-1.69-1.69v-.17 a 1.69,1.69,0,0,1,1.69-1.69 h .17 a 1.69,1.69,0,0,1,1.69,1.69Z"/>
    <path d="M 275.36,305.71 h -.24 a 2.51,2.51,0,0,0-2.5,2.5v.24 a 2.51,2.51,0,0,0,2.5,2.5 h .24 a 2.51,2.51,0,0,0,2.5-2.5v-.24 A 2.51,2.51,0,0,0,275.36,305.71Z m 1.65,2.7 a 1.69,1.69,0,0,1-1.69,1.69 h -.17 a 1.69,1.69,0,0,1-1.69-1.69v-.17 a 1.69,1.69,0,0,1,1.69-1.69 h .17 a 1.69,1.69,0,0,1,1.69,1.69Z"/>
    <path d="M 273.11,299.45 h .24 a 2.51,2.51,0,0,0,2.5-2.5v-.24 a 2.51,2.51,0,0,0-2.5-2.5 h -.24 a 2.51,2.51,0,0,0-2.5,2.5V297 A 2.51,2.51,0,0,0,273.11,299.45Z m -1.65-2.7 a 1.69,1.69,0,0,1,1.69-1.69 h .17 a 1.69,1.69,0,0,1,1.69,1.69v.17 a 1.69,1.69,0,0,1-1.69,1.69 h -.17 a 1.69,1.69,0,0,1-1.69-1.69Z"/>
    <path d="M 271.09,285 a 2.51,2.51,0,0,0-2.5-2.5 h -.24 a 2.51,2.51,0,0,0-2.5,2.5v.24 a 2.51,2.51,0,0,0,2.5,2.5 h .24 a 2.51,2.51,0,0,0,2.5-2.5Z m -.85.2 a 1.69,1.69,0,0,1-1.69,1.69 h -.17 a 1.69,1.69,0,0,1-1.69-1.69V285 a 1.69,1.69,0,0,1,1.69-1.69 h .17 a 1.69,1.69,0,0,1,1.69,1.69Z"/>
    <path d="M 268,273.12v-.24 a 2.51,2.51,0,0,0-2.5-2.5 h -.24 a 2.51,2.51,0,0,0-2.5,2.5v.24 a 2.51,2.51,0,0,0,2.5,2.5 h .24 A 2.51,2.51,0,0,0,268,273.12Z m -.85,0 a 1.69,1.69,0,0,1-1.69,1.69 h -.17 a 1.69,1.69,0,0,1-1.69-1.69v-.17 a 1.69,1.69,0,0,1,1.69-1.69 h .17 a 1.69,1.69,0,0,1,1.69,1.69Z"/>
    <path d="M 283.1,300.51v.24 a 2.51,2.51,0,0,0,2.5,2.5 h .24 a 2.51,2.51,0,0,0,2.5-2.5v-.24 a 2.51,2.51,0,0,0-2.5-2.5 h -.24 A 2.51,2.51,0,0,0,283.1,300.51Z m 2.7-1.65 a 1.69,1.69,0,0,1,1.69,1.69v.17 a 1.69,1.69,0,0,1-1.69,1.69 h -.17 a 1.69,1.69,0,0,1-1.69-1.69v-.17 a 1.69,1.69,0,0,1,1.69-1.69Z"/>
    <path d="M 292.93,267.35 h .24 a 2.51,2.51,0,0,0,2.5-2.5v-.24 a 2.51,2.51,0,0,0-2.5-2.5 h -.24 a 2.51,2.51,0,0,0-2.5,2.5v.24 A 2.51,2.51,0,0,0,292.93,267.35Z m -1.65-2.7 A 1.69,1.69,0,0,1,293,263 h .17 a 1.69,1.69,0,0,1,1.69,1.69v.17 a 1.69,1.69,0,0,1-1.69,1.69 H 293 a 1.69,1.69,0,0,1-1.69-1.69Z"/>
    <path d="M 272.87,321.69 h .24 a 2.51,2.51,0,0,0,2.5-2.5v-.24 a 2.51,2.51,0,0,0-2.5-2.5 h -.24 a 2.51,2.51,0,0,0-2.5,2.5v.24 A 2.51,2.51,0,0,0,272.87,321.69Z m -1.65-2.7 a 1.69,1.69,0,0,1,1.69-1.69 h .17 a 1.69,1.69,0,0,1,1.69,1.69v.17 a 1.69,1.69,0,0,1-1.69,1.69 h -.17 a 1.69,1.69,0,0,1-1.69-1.69Z"/>
    <path d="M 315.8,328 a 2.51,2.51,0,0,0-2.5,2.5v.24 a 2.51,2.51,0,0,0,2.5,2.5 H 316 a 2.51,2.51,0,0,0,2.5-2.5v-.24 A 2.51,2.51,0,0,0,316,328Z m 1.89,2.54v.17 a 1.69,1.69,0,0,1-1.69,1.69 h -.17 a 1.69,1.69,0,0,1-1.69-1.69v-.17 a 1.69,1.69,0,0,1,1.69-1.69 H 316 A 1.69,1.69,0,0,1,317.69,330.51Z"/>
    <path d="M 300,321.22 h -.24 a 2.51,2.51,0,0,0-2.5,2.5V324 a 2.51,2.51,0,0,0,2.5,2.5 H 300 a 2.51,2.51,0,0,0,2.5-2.5v-.24 A 2.51,2.51,0,0,0,300,321.22Z m 1.65,2.7 a 1.69,1.69,0,0,1-1.69,1.69 h -.17 a 1.69,1.69,0,0,1-1.69-1.69v-.17 a 1.69,1.69,0,0,1,1.69-1.69 H 300 a 1.69,1.69,0,0,1,1.69,1.69Z"/>
    <path d="M 295.91,292.8V293 a 2.51,2.51,0,0,0,2.5,2.5 h .24 a 2.51,2.51,0,0,0,2.5-2.5v-.24 a 2.51,2.51,0,0,0-2.5-2.5 h -.24 A 2.51,2.51,0,0,0,295.91,292.8Z m .85,0 a 1.69,1.69,0,0,1,1.69-1.69 h .17 a 1.69,1.69,0,0,1,1.69,1.69V293 a 1.69,1.69,0,0,1-1.69,1.69 h -.17 a 1.69,1.69,0,0,1-1.69-1.69Z"/>
    <path d="M 313.76,298.55 h -.24 a 2.51,2.51,0,0,0-2.5,2.5v.24 a 2.51,2.51,0,0,0,2.5,2.5 h .24 a 2.51,2.51,0,0,0,2.5-2.5v-.24 A 2.51,2.51,0,0,0,313.76,298.55Z m 1.65,2.7 a 1.69,1.69,0,0,1-1.69,1.69 h -.17 a 1.69,1.69,0,0,1-1.69-1.69v-.17 a 1.69,1.69,0,0,1,1.69-1.69 h .17 a 1.69,1.69,0,0,1,1.69,1.69Z"/>
    <path d="M 325.1,311.12 h .24 a 2.51,2.51,0,0,0,2.5-2.5v-.24 a 2.51,2.51,0,0,0-2.5-2.5 h -.24 a 2.51,2.51,0,0,0-2.5,2.5v.24 A 2.51,2.51,0,0,0,325.1,311.12Z m -1.65-2.7 a 1.69,1.69,0,0,1,1.69-1.69 h .17 a 1.69,1.69,0,0,1,1.69,1.69v.17 a 1.69,1.69,0,0,1-1.69,1.69 h -.17 a 1.69,1.69,0,0,1-1.69-1.69Z"/>
    <path d="M 324.92,263.54 h .24 a 2.51,2.51,0,0,0,2.5-2.5v-.24 a 2.51,2.51,0,0,0-2.5-2.5 h -.24 a 2.51,2.51,0,0,0-2.5,2.5V261 A 2.51,2.51,0,0,0,324.92,263.54Z m -1.65-2.7 a 1.69,1.69,0,0,1,1.69-1.69 h .17 a 1.69,1.69,0,0,1,1.69,1.69V261 a 1.69,1.69,0,0,1-1.69,1.69 H 325 a 1.69,1.69,0,0,1-1.69-1.69Z"/>
    <path d="M 314.32,314.15 a 2.51,2.51,0,0,0-2.5,2.5v.24 a 2.51,2.51,0,0,0,2.5,2.5 h .24 a 2.51,2.51,0,0,0,2.5-2.5v-.24 a 2.51,2.51,0,0,0-2.5-2.5Z m 1.89,2.54v.17 a 1.69,1.69,0,0,1-1.69,1.69 h -.17 a 1.69,1.69,0,0,1-1.69-1.69v-.17 a 1.69,1.69,0,0,1,1.69-1.69 h .17 A 1.69,1.69,0,0,1,316.21,316.69Z"/>
    <path d="M 325.77,318.74 h -.24 a 2.51,2.51,0,0,0-2.5,2.5v.24 a 2.51,2.51,0,0,0,2.5,2.5 h .24 a 2.51,2.51,0,0,0,2.5-2.5v-.24 A 2.51,2.51,0,0,0,325.77,318.74Z m 1.65,2.7 a 1.69,1.69,0,0,1-1.69,1.69 h -.17 a 1.69,1.69,0,0,1-1.69-1.69v-.17 a 1.69,1.69,0,0,1,1.69-1.69 h .17 a 1.69,1.69,0,0,1,1.69,1.69Z"/>
    <path d="M 312.92,280.76 a 2.51,2.51,0,0,0-2.5,2.5v.24 a 2.51,2.51,0,0,0,2.5,2.5 h .24 a 2.51,2.51,0,0,0,2.5-2.5v-.24 a 2.51,2.51,0,0,0-2.5-2.5Z m 1.89,2.54v.17 a 1.69,1.69,0,0,1-1.69,1.69 H 313 a 1.69,1.69,0,0,1-1.69-1.69v-.17 a 1.69,1.69,0,0,1,1.69-1.69 h .17 A 1.69,1.69,0,0,1,314.81,283.29Z"/>
    <path d="M 326.25,289.22 H 326 a 2.51,2.51,0,0,0-2.5,2.5V292 a 2.51,2.51,0,0,0,2.5,2.5 h .24 a 2.51,2.51,0,0,0,2.5-2.5v-.24 A 2.51,2.51,0,0,0,326.25,289.22Z m 1.65,2.7 a 1.69,1.69,0,0,1-1.69,1.69 H 326 a 1.69,1.69,0,0,1-1.69-1.69v-.17 a 1.69,1.69,0,0,1,1.69-1.69 h .17 a 1.69,1.69,0,0,1,1.69,1.69Z"/>
    <path d="M 299.94,306.72 a 2.51,2.51,0,0,0-2.5,2.5v.24 a 2.51,2.51,0,0,0,2.5,2.5 h .24 a 2.51,2.51,0,0,0,2.5-2.5v-.24 a 2.51,2.51,0,0,0-2.5-2.5Z m 1.89,2.54v.17 a 1.69,1.69,0,0,1-1.69,1.69 H 300 a 1.69,1.69,0,0,1-1.69-1.69v-.17 a 1.69,1.69,0,0,1,1.69-1.69 h .17 A 1.69,1.69,0,0,1,301.83,309.26Z"/>
    <path d="M 311.23,273 h .24 a 2.51,2.51,0,0,0,2.5-2.5v-.24 a 2.51,2.51,0,0,0-2.5-2.5 h -.24 a 2.51,2.51,0,0,0-2.5,2.5v.24 A 2.51,2.51,0,0,0,311.23,273Z m -1.65-2.7 a 1.69,1.69,0,0,1,1.69-1.69 h .17 a 1.69,1.69,0,0,1,1.69,1.69v.17 a 1.69,1.69,0,0,1-1.69,1.69 h -.17 a 1.69,1.69,0,0,1-1.69-1.69Z"/>
    <path d="M 326.36,273.64 a 2.51,2.51,0,0,0-2.5,2.5v.24 a 2.51,2.51,0,0,0,2.5,2.5 h .24 a 2.51,2.51,0,0,0,2.5-2.5v-.24 a 2.51,2.51,0,0,0-2.5-2.5Z m 1.89,2.54v.17 a 1.69,1.69,0,0,1-1.69,1.69 h -.17 a 1.69,1.69,0,0,1-1.69-1.69v-.17 a 1.69,1.69,0,0,1,1.69-1.69 h .17 A 1.69,1.69,0,0,1,328.26,276.17Z"/>
    <path d="M 337.78,270.79 H 338 a 2.51,2.51,0,0,0,2.5-2.5v-.24 a 2.51,2.51,0,0,0-2.5-2.5 h -.24 a 2.51,2.51,0,0,0-2.5,2.5v.24 A 2.51,2.51,0,0,0,337.78,270.79Z m -1.65-2.7 a 1.69,1.69,0,0,1,1.69-1.69 H 338 a 1.69,1.69,0,0,1,1.69,1.69v.17 a 1.69,1.69,0,0,1-1.69,1.69 h -.17 a 1.69,1.69,0,0,1-1.69-1.69Z"/>
    <path d="M 336.76,285.35 H 337 a 2.51,2.51,0,0,0,2.5-2.5v-.24 a 2.51,2.51,0,0,0-2.5-2.5 h -.24 a 2.51,2.51,0,0,0-2.5,2.5v.24 A 2.51,2.51,0,0,0,336.76,285.35Z m -1.65-2.7 A 1.69,1.69,0,0,1,336.8,281 H 337 a 1.69,1.69,0,0,1,1.69,1.69v.17 A 1.69,1.69,0,0,1,337,284.5 h -.17 a 1.69,1.69,0,0,1-1.69-1.69Z"/>
    <path d="M 295.13,276 a 2.51,2.51,0,0,0-2.5,2.5v.24 a 2.51,2.51,0,0,0,2.5,2.5 h .24 a 2.51,2.51,0,0,0,2.5-2.5v-.24 a 2.51,2.51,0,0,0-2.5-2.5Z m 1.89,2.54v.17 a 1.69,1.69,0,0,1-1.69,1.69 h -.17 a 1.69,1.69,0,0,1-1.69-1.69v-.17 a 1.69,1.69,0,0,1,1.69-1.69 h .17 A 1.69,1.69,0,0,1,297,278.54Z"/>
  </g>
<script type="text/ecmascript" xlink:href="param.min.js"/> 
</svg>
