<?xml version="1.0"?>
<svg xmlns="http://www.w3.org/2000/svg" xmlns:xlink="http://www.w3.org/1999/xlink" viewBox="0 0 150 150">
  <title>BT002_OA001</title>
  <g id="skin-tone">
    <path d="M 85.22,87.67 c -.62-1.06-5.49-13.1-5.49-13.1 h 0 a 4.75,4.75,0,1,0-9.46.86 h 0 s -1.22,1.87-1.13,3,2.54,9.29,5.69,12.87,6.73,6.23,10.8,4.31 S 85.83,88.73,85.22,87.67Z" fill="param(skin_tone)"/>
  </g>
  <g id="main-colour">
    <path d="M 66.48,93.44 a 7.75,7.75,0,0,1-.3-5.77 c 1.16-2.85,3.32-6.41,2.35-9.43,1.1,1.46,2.1,5.16,3.58,8.38 s 5,8.55,9.7,9.46,6.75-2.61,5.14-5.67 a 20,20,0,0,1,7.46,6.09 c 1.85,2.44,2.08,6.65.19,7.94 a 15,15,0,0,1-10.46,1.91 c -4.75-.76-7.57-4-9.59-6.65 a 11.52,11.52,0,0,0-4.83-4.1Z" fill="param(main_colour)"/>
  </g>
  <g id="accent-colour-1">
    <path d="M 66.78,93.49 A 20.76,20.76,0,0,0,70.65,96 c 1.23.41,2.72,2.13,3.31,2.9 s 4.09,5.8,8.51,7,10.5.17,12.55-1.8 c -.38,2.41-1.9,4.56-7.08,5.62 s -10.28-2.72-12.48-4.9-3.11-4.78-5.17-5.41 S 64.49,96.15,66.78,93.49Z" fill="param(accent_colour_1)"/>
  </g>
  <g id="outline">
    <path d="M 93.63,94.26 C 91,91.43,86,89.15,83.31,82.47 a 18.56,18.56,0,0,1-1.58-6.93 c 0-.1,0-.2,0-.29 a 5.92,5.92,0,0,0,0-.86,6.76,6.76,0,0,0-7.33-6.11 h 0 a 6.57,6.57,0,0,0-5.92,7.29,18.2,18.2,0,0,1-2.19,9.34 c -1.84,3.78-1.75,7-.75,8.79-1.3,2.07.17,4.39,2.56,5.61 s 2.71,1.22,4.59,3.93 a 16.4,16.4,0,0,0,11,7.11 c 5.91,1.05,11.32-1.51,11.79-5.14 C 98.91,101.88,95.54,96.3,93.63,94.26Z M 70.27,75.43 a 4.75,4.75,0,0,1,4.3-5.16 h 0 a 4.75,4.75,0,0,1,5.16,4.3 s 0,0,0,0 h 0 c 0,.15.12,5.18,1.56,8.22 a 34.81,34.81,0,0,0,2.42,4.27,18.37,18.37,0,0,0,1.93,3.07 c 1,1.1,2.33,3.31-.22,4.78-2.79,1.61-7.38.56-11.11-5.31 a 35.14,35.14,0,0,1-4.31-11 A 12.3,12.3,0,0,0,70.27,75.43Z m 15.58,33.29 a 14.33,14.33,0,0,1-10.91-5.82 c -2.53-3.39-3.29-4.07-5.26-5 s -3.14-2.17-2.25-3.32 a 11.74,11.74,0,0,0,3.19,2.15 A 5.81,5.81,0,0,1,73.5,99,26.56,26.56,0,0,0,79,104.86 c 3,2.26,7.91,2.51,10.45,2.08 a 20.69,20.69,0,0,0,4.47-1.43 C 93.44,107,90.05,108.83,85.85,108.72Z M 94.93,103 c -.48.93-1.78,2.33-5.26,2.74 s -7,.41-9.8-1.5 A 30.87,30.87,0,0,1,73.8,98 c -1-1.35-2-1.73-4-2.83 A 9.86,9.86,0,0,1,67,93 a 10.88,10.88,0,0,1,.56-5.93,15.74,15.74,0,0,0,1.87-5.87,38,38,0,0,0,2.94,7.57 c 1.9,3.24,5.65,7.47,9.12,8 s 5.28-.55,6.26-2.27 a 3.12,3.12,0,0,0,0-2.82 c .36.3.73.6,1.12.88 C 92.42,95,96.11,98.5,94.93,103Z"/>
  </g>
<script type="text/ecmascript" xlink:href="param.min.js"/> 
</svg>
