<?xml version="1.0"?>
<svg xmlns="http://www.w3.org/2000/svg" xmlns:xlink="http://www.w3.org/1999/xlink" viewBox="0 0 150 150">
  <title>BT002_OA001</title>
  <g id="skin-tone">
    <path d="M 68.48,80.71 c 2.28,2.52,5,5.45,6.82,7,3.51,3,8.46,7.65,14.71,6.4,2-.41,2.67-2.06,2.62-4.11 A 23.79,23.79,0,0,1,82.29,79.94 c -2-3.67-1.17-5-2.42-7.75 s -5-3.58-7.83-2-2.75,4.5-2.75,6.5 A 12,12,0,0,1,68.48,80.71Z" fill="param(skin_tone)"/>
  </g>
  <g id="main-colour">
    <path d="M 68.14,80.11 A 63.05,63.05,0,0,0,78.81,90.75 c 2.74,2.07,6.09,4.07,9.67,3.65,2.2-.26,5.54-2.19,3.66-4.79,3.35,2.12,6.74,2.27,10.53,2.34,3,.06,6.15,1.2,5.12,4.74-2.39,8.19-14.29,9.53-20.42,5.62-3.63-2.31-6-4.23-10.46-4.48-3.75-.21-7.88.91-11.26-1.25 C 57.68,91.5,67.77,85.7,68.14,80.11Z" fill="param(main_colour)"/>
  </g>
  <g id="accent-colour-1">
    <path d="M 63,93.78 s 3.08,1.92,5.92,1.75,9.83-.92,13.42.92,8.33,5.83,11.92,6,9.25-1.5,12.17-4.08 a 11,11,0,0,1-6.42,5.42,12.23,12.23,0,0,1-10.08-.42 c -3.58-1.75-9.13-5.71-13-5.52-.1,1.27-1,2.19-4.35,2.27 S 66,99.69,65.8,97 A 9.41,9.41,0,0,1,63,93.78Z" fill="param(accent_colour_1)"/>
  </g>
  <g id="outline">
    <path d="M 97.26,90.9 c -1.29-.3-2.36-.9-3.6-1.29 a 11.55,11.55,0,0,1-1.76-.87,24.71,24.71,0,0,1-7.84-7.51 c -2.27-3.51-2.34-5.61-2.32-6.12,0,0,0-.08,0-.12 A 6.76,6.76,0,0,0,75,68.25 h 0 A 6.76,6.76,0,0,0,68.25,75 a 20.4,20.4,0,0,1-.75,4.89.81.81,0,0,0-.11.16,43.2,43.2,0,0,1-2.3,4.3,31.54,31.54,0,0,0-2.36,3.83 c -1.23,2.66-1.17,5.42.85,7.68 a 7.8,7.8,0,0,0,1,.95 c 1.26,3.59,3.25,4,7.16,4,2.7,0,5,.3,5.89-2.17.32,0,.63.06.93.1,6.23.92,9.74,6.63,16.42,6.63,4.87,0,13.8-3.82,13.79-9.86 C 108.79,89.78,100.78,91.72,97.26,90.9Z M 69.75,79.23 a 16,16,0,0,0,.5-4.22 A 4.75,4.75,0,0,1,75,70.25 h 0 A 4.75,4.75,0,0,1,79.75,75 s 0,.09,0,.23 a 9.12,9.12,0,0,0,.92,3.41 h 0 a 19,19,0,0,0,2,3.6,26.09,26.09,0,0,0,9.12,8.24,3.11,3.11,0,0,1-.93,2.35 c -.9.87-3.16.79-4.66.54-5.13-.86-8.87-4.51-12.31-8 a 65.86,65.86,0,0,0-4.51-5 c .12-.38.23-.76.33-1.17Z m -1.28,2.45 c 3.38,4,7.15,8,11.56,10.86,2.76,1.79,13.33,5.42,13.38-1.39 a 17.77,17.77,0,0,0,7.26,1.67 c 1.78,0,4.64-.64,6,1 a 2.81,2.81,0,0,1,.34,3.08 c -.62.53-1.47,1.52-2,1.93 a 18.47,18.47,0,0,1-6.19,2.81 c -5.75,1.44-8.62-1-12.62-3.69-4.64-3.15-8.06-3.45-13.44-3-2.25.19-5.37.56-7.81-.62-.45-.22-.73-.47-.94-.54 C 61.71,89.54,66.86,85.3,68.47,81.68Z M 76,99 c -1.33.6-3.8.35-5.23.28-1.92-.09-2.77-.21-3.82-1.21,2.9,1,6.29.46,9.44.51 A .77.77,0,0,1,76,99Z m 12.87,3.34 c -4.8-2.57-7.46-5.28-13.29-5.28-3.39,0-7.55.73-10.26-1.63,4.21,1.26,8,0,12.58.34,6.81.54,10.4,7.08,16.9,7.1 a 19.14,19.14,0,0,0,10-3,17,17,0,0,1-3.37,2.47 A 13.5,13.5,0,0,1,88.86,102.34Z"/>
  </g>
<script type="text/ecmascript" xlink:href="param.min.js"/> 
</svg>
