<?xml version="1.0"?>
<svg xmlns="http://www.w3.org/2000/svg" xmlns:xlink="http://www.w3.org/1999/xlink" viewBox="0 0 150 150">
  <title>basic-flip-flops</title>
  <g id="skin-tone">
    <path d="M 66.85,84 a 13.13,13.13,0,0,0,2.85-7.31 c 0-1.86-.48-4.92,2.35-6.5 s 6.58-.75,7.83,2-.39,4.7,1.54,8.24,6,7.35,12,9.84 a 20.85,20.85,0,0,0,8.92,2.09 c 2.57.08,3.57.8,3.61,2.17 a 2,2,0,0,1-1.37,1.85 A 2.42,2.42,0,0,1,102.07,99 a 2.27,2.27,0,0,1-2.61,1.69 c -.84,1.41-2.57,2.53-4.46,1.33-1.33,1.16-3.66,1.65-6.27-.08 s -4.06-3.37-5.58-4.3 a 13,13,0,0,0-8-1.61 c -4,.28-7.59,1.08-10-1.65 S 63.39,88.3,66.85,84Z" fill="param(skin_tone)"/>
  </g>
  <g id="main-colour">
    <path d="M 95,91.24 a 2.22,2.22,0,0,0-2.07-1 A 3,3,0,0,0,90,93.78,7.5,7.5,0,0,0,83.4,93 c -2.17.79-4.37,2.46-6,3-2.92.63-8.29.88-9.75-.54 A 36.86,36.86,0,0,1,65,92.57 a 3.18,3.18,0,0,0-1.62,2.17 A 25.64,25.64,0,0,0,64,99.53 s 1.75,1.5,6,1.58,8.88-.25,11.46,1.5,5.21,4.21,9.08,4.83,11.37.46,16.37-6 c .33-2.21.83-4.46-.87-5.71 a 3.79,3.79,0,0,1-1.08.5 s 0,3-2.58,3 c -.42,1.25-1.71,2.17-2.83,1.67-.67,1.42-3,2.58-4.5,1.46-1.75,1.33-3.5,1.42-5.71.33 s -5.21-6-9.67-6 c 2.42-1.12,4.5-2.46,6.58-2.54 a 8.88,8.88,0,0,1,5.25,1.71,3.43,3.43,0,0,1,1.58-4Z" fill="param(main_colour)"/>
  </g>
  <g id="fixed-colours">
    <path d="M 94.17,97.52 s -1.37.26-1.69,1 a 1.92,1.92,0,0,0,.28,1.83 c .54-.66,2.71-1.12,2.71-1.12 S 95.45,98.32,94.17,97.52Z" fill="#fff"/>
    <path d="M 99.31,98.61 a 3.8,3.8,0,0,0-2.27.78 c -.38-.82-.58-2,1.47-2.17 A 5,5,0,0,1,99.31,98.61Z" fill="#fff"/>
    <path d="M 101.78,97.44 s -1.29.18-1.61.9 c -.26-.68-.52-1.69,1.16-1.89Z" fill="#fff"/>
    <path d="M 103.29,94.81 s -.82.3-1,.72.08,1.14.4,1.25 a 2.88,2.88,0,0,1,1.37-1.25Z" fill="#fff"/>
    <path d="M 104.27,93.14 a .89.89,0,0,0,.14,1.53,3.89,3.89,0,0,1,.66-1 A 1.52,1.52,0,0,0,104.27,93.14Z" fill="#fff"/>
  </g>
  <g id="outline">
    <path d="M 107.68,97.41 h 0 a 3.2,3.2,0,0,0-1.21-2,1.83,1.83,0,0,0,.22-1.08 c -.23-2.22-2.23-3.13-4.1-2.83 s -7.41-1-10.06-2.41 a 44,44,0,0,1-9.37-7.48 c -1.91-1.89-1.44-6-1.42-6.52,0,0,0-.08,0-.12 A 6.76,6.76,0,0,0,75,68.25 h 0 A 6.76,6.76,0,0,0,68.25,75 a 12.17,12.17,0,0,1-1.73,8.27 c -1.91,2.72-4.06,5.84-2.67,9.4 a 2.85,2.85,0,0,0-1,2.14 h 0v0 a 2.72,2.72,0,0,0,.08.54 l .59,4.22 s 1.79,2.08,7.13,2.08,9.46.46,11.71,2.21,7.88,5.54,14.38,4.13 c 7.37-1.61,8.79-4.17,10.54-6.33 a 21.8,21.8,0,0,0,.44-3.74 A 2.41,2.41,0,0,0,107.68,97.41Z m -3.16,3.79 c -4.25,3.5-11.58,5.17-15.92,2.92 s -6.92-5.83-11.08-5.92-8.32.4-11.08-.71 c -2.47-1-2.9-2.54-2.07-3.75,2,3.48,5.67,3.72,9.79,3.38 l .44,0 c -1,.39-1.65.6-1.65.6 l 5,0 L 79,97.22 a 10.1,10.1,0,0,1,5.8,2.85 c 2.81,2.81,7,5.14,10,3.21 l .21-.15 a 4.94,4.94,0,0,0,3.33-.23,3.31,3.31,0,0,0,1.53-1.43,2.74,2.74,0,0,0,2.78-1.8,3,3,0,0,0,2.63-3.07 A 3.69,3.69,0,0,0,106,96 C 106.71,96.67,107.83,98.47,104.53,101.19Z M 92.19,90.59 c 1.85-.56,2.44.6,2.44.6-3,.13-3.95,2.39-3.46,4.23-4.62-3-7.79-.89-9.08-.22 s -4.33,2-4.33,2 a 24,24,0,0,0-2.69,0 c 3.5-.85,6.1-3.5,9-4.17 a 7.2,7.2,0,0,1,6.31,1.23 A 2.89,2.89,0,0,1,92.19,90.59Z M 92,96.73 a 3.59,3.59,0,0,0-1.46.93,3.72,3.72,0,0,1,2.86-.1,2,2,0,0,0-1.07.82,1.82,1.82,0,0,0,.23,2.12 l .18.22.19-.21 a 4.31,4.31,0,0,1,2.36-1 c .37,1.91-1.78,3-3.46,2.78 a 11.57,11.57,0,0,1-5.94-3.7 A 9.81,9.81,0,0,0,81.72,96 L 84,95 a 6.83,6.83,0,0,1,6,.21 A 8,8,0,0,0,92,96.73Z m 2,1.1 A 2.56,2.56,0,0,1,95.16,99 a 6,6,0,0,0-2.4,1.1,1.63,1.63,0,0,1-.12-1.54 A 1.87,1.87,0,0,1,94,97.83Z m 6.24.72.15-.19 a 1.93,1.93,0,0,1,1.21-.64,3.41,3.41,0,0,1-.05,1 A 1.48,1.48,0,0,1,100.3,100,3.94,3.94,0,0,0,100.26,98.54Z m 0-.61 a 1.3,1.3,0,0,1-.09-.63,1.54,1.54,0,0,1,1-.67,2,2,0,0,1,.31.63 A 3.4,3.4,0,0,0,100.28,97.93Z m 4-4.54 a 2.23,2.23,0,0,1,.54.33,4.12,4.12,0,0,0-.41.73 c -.07-.09-.3-.24-.32-.48 A 1.06,1.06,0,0,1,104.26,93.39Z m -2-.31 a 4.63,4.63,0,0,1,1.66.19,1.06,1.06,0,0,0-.23.66,1.1,1.1,0,0,0,.52.82 l .24.18.12-.28 a 2.14,2.14,0,0,1,.46-.66,1.14,1.14,0,0,1-.21,1.45,2,2,0,0,0-.39-.44,2.74,2.74,0,0,0-2.37-.66,14.14,14.14,0,0,1-4.35-.71,10.24,10.24,0,0,0,3.59,1,2.16,2.16,0,0,0-.24.14,3.69,3.69,0,0,1,1.69.1,1.39,1.39,0,0,0-.72.83,1.33,1.33,0,0,0,.39,1.16 l .26.31.15-.37 a 1.45,1.45,0,0,1,1.08-1,1.77,1.77,0,0,1,0,1.37,1.7,1.7,0,0,1-1.22,1.14,2.93,2.93,0,0,0-.35-1.14 A 3.09,3.09,0,0,0,100,95.45 H 100 l -.43,0 a 12,12,0,0,1-4-.9,10.75,10.75,0,0,0,4.23,1.33,2.15,2.15,0,0,1,1.13.46,1.65,1.65,0,0,0-1.11.87,1,1,0,0,0-.05.23 A 2.49,2.49,0,0,0,99.4,97 a 3.43,3.43,0,0,0-2.63-.8,9.49,9.49,0,0,1-4.18-1.67 A 7.29,7.29,0,0,0,96,96.34 a 3.66,3.66,0,0,0-.49.17,4.29,4.29,0,0,1,2.58.59,1.75,1.75,0,0,0-1.4.76,1.66,1.66,0,0,0,.19,1.49 l .15.25.22-.19 a 3.11,3.11,0,0,1,1.86-.57,2.92,2.92,0,0,1-.46,1.83,2.41,2.41,0,0,1-2.37,1 A 3.54,3.54,0,0,0,95,97.1 a 3.48,3.48,0,0,0-1.81-.56,11.76,11.76,0,0,1-1.56-.63 c -.81-2.42,1.24-4.13,3.19-4.28 A 22.46,22.46,0,0,0,102.29,93.08Z m 1.39,2.34 a 2.55,2.55,0,0,0-1,1,.9.9,0,0,1-.21-.69 c 0-.23.37-.46.8-.66 A 1.79,1.79,0,0,1,103.68,95.42Z m -4.68,3 a 5.29,5.29,0,0,0-1.85.66,1.17,1.17,0,0,1-.09-1,1.72,1.72,0,0,1,1.37-.62 A 2.24,2.24,0,0,1,99,98.39Z M 67.45,85.14 a 23.59,23.59,0,0,0,2.76-5.49 c .47-1.41,0-4.64,0-4.64 A 4.75,4.75,0,0,1,75,70.25 h 0 A 4.75,4.75,0,0,1,79.75,75 s 0,.09,0,.23-.28,3.77.82,5.62 c 1.55,2.62,7.25,7.44,11,9.41 a 3.08,3.08,0,0,0-1.75,3.2 c -2.28-1.91-6.15-1.59-10.15,1.07-.4.27-.82.52-1.24.76 a 18.65,18.65,0,0,0-4.06,0 c -5.62.56-7.1-.76-8.34-2.75 C 64.67,90.25,66,87,67.45,85.14Z m 39,16.3 a 15.51,15.51,0,0,1-7.33,5.08 c -4.75,1.5-10,.75-13-1.17 s -5.29-4.33-9-4.58-9.71.58-12.54-1.5 c -.13-.6-.25-1.28-.34-1.92,1.73,1.51,4.73,1.76,7.46,1.76,3.33,0,7.33-.25,9.67,1.25 s 6.28,5.38,10.83,5.67 a 17.86,17.86,0,0,0,13.6-4.82,12.07,12.07,0,0,0,.89-1Z"/>
  </g>
<script type="text/ecmascript" xlink:href="param.min.js"/> 
</svg>
