<?xml version="1.0"?>
<svg xmlns="http://www.w3.org/2000/svg" xmlns:xlink="http://www.w3.org/1999/xlink" viewBox="0 0 600 600">
  <title>midi-crew-neck-t-shirt-slender</title>
  <g id="main-colour">
    <path d="M 333.29,249.21 c -1-1.38-1.89-2.67-2.56-3.68 l -.14-.3 a 11.19,11.19,0,0,0-14.31-16.6,3.12,3.12,0,0,0-1.56-.2 l -.14-.05 c 1,2.93,3.66,6.82,3,10.42-1,5.05-12.08,10.38-23.18,3.08 a 25.34,25.34,0,0,1-10.29-13.63,14.27,14.27,0,0,1-2.16.69 c -7.45-6.36-19.55-1.14-20,7.95 s 6,12.33,9.33,13.42 c -1.25,5.92,1.32,21.18,2.47,27.83,1.63,9.38,4.66,20.41,6.5,28.91,3.38,15.59.78,18.59-6.39,31-7,12.12-9,16.95-11.41,26.55,2.8-1.57,8.23-3.48,16.79-2,13.38,2.38,24.5,7.25,36.5,5.25,8.9-1.48,13.33-5,16.25-9.47-.15-.46-.29-.92-.47-1.37,0,0,.6.35.6.34.08-1.37-.43-4.08-4.43-12 s -4.57-12.7-4.73-21.12,1.82-20.63,3.91-27.88 c 1.08-3.75,2.8-8.6,4.32-14,5.4-3.13,8.21-9.24,9-15.06 C 341.29,259.71,335.62,252.38,333.29,249.21Z" fill="param(main_colour)"/>
  </g>
  <g id="outline">
    <path d="M 337.36,253.63 c -3.55-5-6.61-7.66-9.47-13.38,0,0,1.52,4.77,6.4,11.64,5.49,7.73,6.14,15.88,2.57,23 a 18.52,18.52,0,0,1-6.88,7.63 l -.37,1.32 c 5.1-1.55,9.43-7,11.26-13.95 C 342.12,265.16,341.62,259.61,337.36,253.63Z"/>
    <path d="M 332.28,359.12 s .43-.62.91-1.35 A 47,47,0,0,0,329,345.63 c -3-6.13-5.8-11.93-4.5-26.84,1-11.72,5.23-25.16,8.13-37.27 a 14.84,14.84,0,0,1-2.81,1.72 c -5.92,20.79-10.18,35.49-7.32,50.47,2.14,9.8,7.62,16.16,9.82,25.42Z"/>
    <path d="M 284.41,226.93 a 11.64,11.64,0,0,1-2.89.89 c -.18,1.23,1.49,1.9,1.49,1.9 a 9.26,9.26,0,0,0,2.17-.83 S 284.8,228,284.41,226.93Z"/>
    <path d="M 316.63,226.24 a 18.37,18.37,0,0,0-3.58,2 c .56,1,1.19,1.46,1,1.53 a 12.06,12.06,0,0,0,2.56-1.33 l .54-.24 a 11.26,11.26,0,0,1,8.35-.33 C 322.94,225.38,318.51,225.38,316.63,226.24Z"/>
    <path d="M 306.59,246.19 c -17.13,0-23.61-17.42-23.68-17.61 l 1.89-.65 a 31.14,31.14,0,0,0,5.49,9.15,21.65,21.65,0,0,0,19.81,6.81 c 3.16-.52,5.27-1.82,6.26-3.84,2.19-4.49-3-11.25-3-11.31 l 1.76-1 c .17.31,5.23,7.78,2.59,13.19-1.29,2.64-3.44,4.27-7.28,4.9 A 23.47,23.47,0,0,1,306.59,246.19Z"/>
    <path d="M 310.44,369.13 c -8,0-16.45-2.14-24.39-4.29-16.77-4.54-23.29.74-23.35.79 l -.61-2.48 c .28-.22,8-5.27,25.43.06,18.77,5.74,37.78,6.29,44.72-7 l 1,1.52 C 328.29,366.13,319.14,369.13,310.44,369.13Z"/>
    <path d="M 274,227.22 a 11.14,11.14,0,0,1,6.16,1.85 h 0 l 1.56.85 c .76-.15,1.54-.21,2.07-.37 a 13.53,13.53,0,0,0-9.78-4.33,13.2,13.2,0,0,0-1.54,26.31 c 0-.54,0-2,0-2 h 0 A 11.2,11.2,0,0,1,274,227.22Z"/>
    <path d="M 271.23,268.19 c 2.5,9.5,6.15,21.81,8.36,31.38,1.85,8,3.7,15.63,3,23.92-.69,7.75-2.53,16.72-6.19,22.39,4.07-9.88,5.5-23.87,2.82-37.26 C 276.65,296.07,271.29,273.38,271.23,268.19Z"/>
    <path d="M 276.68,288.08 a 154.43,154.43,0,0,1-3.2-19,89.38,89.38,0,0,1-1-18.68 h -2.55 a 112.56,112.56,0,0,0,1.33,18.33 A 116,116,0,0,0,276.68,288.08Z"/>
    <path d="M 282.53,315.53 h 0 c -2,11.61-12,24.94-16.6,34.86 A 60.3,60.3,0,0,0,261,366.77 a 23.67,23.67,0,0,1,2.29-1.56 h 0 a 70.79,70.79,0,0,1,5.76-15.95 c 2.54-5,9.81-16.3,13.37-25.29 A 71.2,71.2,0,0,0,282.53,315.53Z"/>
    <path d="M 317.86,334.38 a 52,52,0,0,0-3.69,23.81 C 314.3,348.27,317.86,334.38,317.86,334.38Z"/>
    <path d="M 267.11,359.63 s 6.25-3,19,1.13,23.13,5.13,27.5,4.38 a 89.8,89.8,0,0,1-17.5-2.18 C 289.61,361.45,273.86,354.75,267.11,359.63Z"/>
    <path d="M 292.16,285.22 c 7.84.9,14.21-.68,20.22-7.6 C 309.53,285.36,299.45,288.84,292.16,285.22Z"/>
  </g>
<script type="text/ecmascript" xlink:href="param.min.js"/> 
</svg>
