<?xml version="1.0"?>
<svg xmlns="http://www.w3.org/2000/svg" xmlns:xlink="http://www.w3.org/1999/xlink" viewBox="0 0 600 600">
  <title>city-classic-top-voluptuous</title>
  <g id="main-colour">
    <path d="M 231.94,340 a 134.4,134.4,0,0,0-4,13.73,82.74,82.74,0,0,0,42.83,9.43 c 27.88-1.25,41.5-13,47.63-19.37,3.35,5.14,19.53,12.92,43.82,9.74-1-11.69-3.76-27.16-11.07-39.11-3.74-6.12-9.67-12-10.29-16.9 s 3.88-17.5,6-27-.49-15.61-.49-15.61 l -.22-.53 a 16.57,16.57,0,0,0-9.16-26.89 h 0 c -2.24-1.41-6.76-.84-11.76.54 a 16.24,16.24,0,0,1-2.5-3.72 A 93.72,93.72,0,0,1,310.19,248 a 57.83,57.83,0,0,1-31.75-24.37,17,17,0,0,1-4.75,4.7,50.72,50.72,0,0,0-12.75-2.28 c -6.75-.25-13.13,4.13-15.88,9.63 s -2.75,12.13,1.5,18.75 c -2.5,13.63.38,23.13,3.75,34 s .5,15.5-3.37,21.38 S 235.69,328,231.94,340Z" fill="param(main_colour)"/>
  </g>
  <g id="accent-colour-1">
    <path d="M 278.36,223.63 s 11.17,18.71,31.83,24.42 a 77.12,77.12,0,0,0,12.42-23.92 c 1,.88,1.13,1.38,1.13,1.38 s 1.4,12.25,1.4,24-1.9,24.63-8.28,49.38 c -1.12-1.5-2.62-7.37-5.5-15.37 a 115.47,115.47,0,0,0-17.75-31.62,178.23,178.23,0,0,1-16.5-26.25Z" fill="param(accent_colour_1)"/>
  </g>
  <g id="accent-colour-2">
    <path d="M 247,310 s 3.88,5.38,23,7.75 c -2.37,9.38-6,17-16.38,17.75 S 238.9,329.38,238.4,325Z" fill="param(accent_colour_2)"/>
    <path d="M 342.4,318.75 s 5.13-1.62,8-4.62 a 70.66,70.66,0,0,1,7.88,19 S 345.28,338.25,342.4,318.75Z" fill="param(accent_colour_2)"/>
    <path d="M 280.11,255.88 a 50.45,50.45,0,0,0,12.38,5.25 c .38,6.13.25,10.88-1.25,12.88,8,4,17.63,13.88,24.13,25.75.13-3.75-2.12-12.25-6.62-22.62 s -11-19.12-17-27.37-14-22.12-14.62-24.12 c -2,1.25-3.2,2.07-3.2,2.07 S 280.86,241.5,280.11,255.88Z" fill="param(accent_colour_2)"/>
    <path d="M 334,248.5 s -.62,4-5.37,10.13 a 35.93,35.93,0,0,0,6.25,9.25 A 184.45,184.45,0,0,1,317,299.13 c 1.63-6.12,5.25-19,6.88-29.25 s 1-32.12-.12-44.87 a 11.13,11.13,0,0,0,2.73,1.88 S 327.11,238.88,334,248.5Z" fill="param(accent_colour_2)"/>
  </g>
  <g id="outline">
    <path d="M 343.65,302.42 c -2.66-4.77-2-8.28.57-17.67,0,0,.34-1.68,1.4-5.3 s 3.25-10.5,2.88-15.87 a 23.5,23.5,0,0,0-2.19-8.75 c 1.38,6.06.34,10.63-.29,14.56 a 66.19,66.19,0,0,1-1.58,7.33 c -.33,1.33-1.94,6.73-3.06,10 l -.11.31 c -2.5,6.83-3,12.17,2.83,20.67 a 48.8,48.8,0,0,1,5.07,6.51 c -1,.95-3.29,2.74-7.79,4,1.46,8.62,4.21,18.88,16.49,16 a 109.78,109.78,0,0,1,3.24,18.78 c -3.82.51-28.93,3.29-42.05-9.27-.79-3.62-3.69-19-2.2-42,3.53-5.42,16.52-25.68,18.89-33.76 a 51.78,51.78,0,0,1-6.24-9.35,25.28,25.28,0,0,0,5.36-9.65,56.68,56.68,0,0,1-7.63-20.56,20.4,20.4,0,0,1,9.69-.89 c -3.18-1.85-6.91-1.61-9.92-.72v-.09 a 10.31,10.31,0,0,1-4.62-4.62 c -2.25,8.63-8.28,20.75-12.53,25.38-12.75-3.37-24.72-14.12-31.72-25.62 a 11.39,11.39,0,0,1-5.5,5.38 l .1.18 a 50.05,50.05,0,0,0-9.15-2,18.48,18.48,0,0,0-2.15-.2 l -.67,0 a 18.6,18.6,0,0,0-18.58,18.58,18.41,18.41,0,0,0,3.34,10.57 c -.66,3.67-2.25,14.95.91,25.1,3.83,12.33,8.19,18.93,0,29.83-12,15.92-17.31,31.15-19.64,44.91.51.28,1,.56,1.58.83 h 0 l .71.37v0 c 43.06,20.44,79.09,1.22,89.16-10.34,13.15,12.81,38.43,10.51,43,10v.09 a 4.89,4.89,0,0,1,.72-.18 l 1.15-.2 C 361.64,319.86,345.84,306.35,343.65,302.42Z m -50.06-40 c 3.37,1,6.06,1.61,7.65,1.93 a 110.22,110.22,0,0,1,13.39,32.41 c -3.29-5.6-11.45-17.87-22.37-23 A 25.31,25.31,0,0,0,293.6,262.41Z m 23.25,33.72 c -.08-7.62-.74-29.48-5.39-44.71,1.51,1.11,6.06,4.52,9.55,7.7,1.41-1.63,2.59-4.7,3.33-6.94 A 112.27,112.27,0,0,1,323,268.54,213.6,213.6,0,0,1,316.85,296.13Z m -6.14-42.68 c 1.27,5.2,4.07,18.9,5,41.63-1.6-6.06-6.21-21.73-13.53-32.71-1.46-2.19-2.87-4.25-4.26-6.24,2.92,2.13,7.47,5.44,10.2,7.37 A 35.24,35.24,0,0,0,310.7,253.46Z M 334.14,268 c -3.12,8.29-12.26,22.88-16.13,28.9,4.3-13.64,7-26.82,7.66-34.35.61-.56,1.61-1.5,2.74-2.74 C 329.27,261.31,332.24,266.21,334.14,268Z m -1.25-19.37 a 28.58,28.58,0,0,1-7.09,12 A 305.16,305.16,0,0,0,324.69,227 a 6.54,6.54,0,0,0,.82.28 C 327.26,236,328.89,242.75,332.89,248.63Z m -9.76-22.72 c .31,2.93,1.15,11.81,1.23,21.85 a 40.12,40.12,0,0,1-3.66,8.95 l -9.73-8 C 317.63,240.22,322.87,226.57,323.12,225.91Z m -13,23.09 a 95.46,95.46,0,0,1-2.32,12 c -1.74-.73-8.88-6-12.58-8.8-6-8.57-11.46-16.09-17-26.12 a 4.4,4.4,0,0,0,.4-.58 C 285.39,237.53,300.77,246.77,310.08,249Z M 277,227.24 c 1.86,3.5,10,18.62,15.41,25 a 101.76,101.76,0,0,1,7.17,9.53 c -4-1-13.2-3.49-18.47-6.66 C 282,243.63,275,228.5,275,228.5 A 12.36,12.36,0,0,0,277,227.24Z m -29.82,84.18 c 4.42,4.22,16.92,7.2,21.93,7.2 a 31.73,31.73,0,0,1-1.3,4.48 c -13.08-.16-21-5.62-23.26-7.41 C 245.46,314.22,246.33,312.8,247.21,311.42Z m 19.95,13.34 c -5.67,12.35-17.62,10.12-21.89,8.37-3.66-1.5-5.42-5.54-6.07-7.46,1.61-3.34,3.2-6.26,4.77-8.93 C 253.37,324.25,264.46,324.76,267.15,324.76Z m -37.7,28.77 a 106.36,106.36,0,0,1,7.86-23.8 c .35-.8.7-1.56,1.05-2.31,2.11,8,11.31,10,19,8.34,8-1.75,11.75-7.87,13.88-19-13.79-1.16-21.17-5.4-23.17-6.72 l 2.18-3.39 c 4.17-6.5,2.93-14.62.92-20.08 a 60.83,60.83,0,0,1-3.7-31.06 l 0,0,.2-1.67v0 a 16.56,16.56,0,0,1,13.1-26.72 h 0 c .6,0,1.2,0,1.8.07 h .1 a 47.73,47.73,0,0,1,11.17,2.45 A 62.79,62.79,0,0,1,279,256.75 a 94,94,0,0,0,12.62,5.05 c .13,2.33.28,8.59-1.62,12.7,12.3,5.26,22.28,21.82,25.14,27-.35,5.08-1.57,27,2.29,41.89 C 280.57,375.92,236,356.62,229.45,353.53Z m 120.76-37.79 c .7,1.14,1.34,2.31,2,3.5 a 22.27,22.27,0,0,1-8,3.85,31.34,31.34,0,0,1-.79-4 A 24.39,24.39,0,0,0,350.21,315.73Z m -5.67,8.57 c 1.78-.43,5.82-1.58,8.35-3.63 a 74.82,74.82,0,0,1,4.58,12 C 354.68,333.37,347.68,333.91,344.54,324.3Z"/>
    <circle cx="315.89" cy="259.55" r="1"/>
    <circle cx="317.19" cy="266.79" r="1"/>
    <circle cx="317.72" cy="274.09" r="1"/>
    <circle cx="318.02" cy="281.88" r="1"/>
    <circle cx="319.63" cy="305.5" r="1.78" transform="translate(9.48 620.62) rotate(-89.16)"/>
    <circle cx="319.52" cy="317.4" r="1.78" transform="translate(-2.52 632.25) rotate(-89.16)"/>
    <circle cx="320.08" cy="328.49" r="1.78" transform="translate(-13.06 643.72) rotate(-89.16)"/>
    <circle cx="321.79" cy="339.28" r="1.78" transform="translate(-22.17 656.06) rotate(-89.16)"/>
  </g>
<script type="text/ecmascript" xlink:href="param.min.js"/> 
</svg>
