<?xml version="1.0"?>
<svg xmlns="http://www.w3.org/2000/svg" xmlns:xlink="http://www.w3.org/1999/xlink" viewBox="0 0 600 600">
  <title>slender-top-template</title>
  <g id="main-colour">
    <path d="M 338.85,367.54 c -3.5-11.67-11.67-23.33-14.67-33-2.94-9.49-.58-27,5.65-47 a 34.39,34.39,0,0,0,11.83-4.26 c 7-4.25,9.13-12.75,7-20.25 s -8.5-11.25-15.37-15.25 c -2.49-1.45-6.47-3.42-10.53-5.35-4.66-2.65-9.83-5.06-15.24-7.7-3.33,7.83-24,25.67-35.5,30-.83,6.17,4.67,20.67,7,26.83 s 3.33,7.17,4.5,18.5-9.33,23.83-16.83,39.67-8.83,33.83-7.5,51.67,5.33,25.5,4.5,42-7,25.5-7,25.5 c 8.83,6.83,16.67,9,29.17,9.33 s 29-8.33,37.67-10.83,20.83-4.17,29.17.5 C 355.68,410.21,342.35,379.21,338.85,367.54Z" fill="param(main_colour)"/>
  </g>
  <g id="outline">
    <path d="M 336.26,358.63 c -4.37-9-9.5-17-11.25-25.37 s .63-23,2-28.62,3.27-12.25,4-16.25 c 5.5-.5,10.64-2.87,13.38-5.37 a 20.44,20.44,0,0,0,5.25-21.87 c -3.12-7.62-12.27-11.5-16.77-15 s -15-8.25-23.37-11.75 a 68.21,68.21,0,0,0,3.88-7.25,4.38,4.38,0,0,0-2.37-1.75 c -.5,1.75-.87,3.38-4.25,8.13 a 119.53,119.53,0,0,1-18.25-9.5,3.19,3.19,0,0,0-2.62,2 s 11,6.88,19.75,9.88 a 102,102,0,0,1-35,28.38 s .47,8.88,5,21.88,6.5,12.5,6.75,24.5-8,21.75-18.5,42.5-5,58-2.75,71.25,3.25,30.5-6,44.75 c 26,20.25,52.25,4.75,63.25.75 s 25.75-5.75,35.25-.25 C 358.14,415.13,340.64,367.63,336.26,358.63Z m 15.38,107.75 c -7.75-4.87-25.87-1.37-34,1.88 s -23.25,10.5-39.12,8.75-20.62-8.37-20.62-8.37,7.13-9.87,6.88-28.62-4.12-27-4.75-44.12.88-35,9.13-48.5,13.5-21.75,15.13-30-.62-18.5-4-26 a 110.34,110.34,0,0,1-7.37-26 s 19.25-7.58,35.33-28.67 c 14.42,5.92,27.19,12.76,33.56,17.92,11.75,9.5,7.38,30.25-13.12,32.38-1.17,3.83-1.44,7.38-3.27,13.79 s -4.33,18.42-3.33,28.5 S 328,347,331,352.29 s 7.58,17.25,11.25,30.25,5.17,18.46,7.92,39.08 S 352.64,454.25,351.64,466.38Z"/>
    <path d="M 292.64,287.75 s 11.06,6.38,22.16.26 C 312.05,291.4,303.42,295.48,292.64,287.75Z"/>
  </g>
<script type="text/ecmascript" xlink:href="param.min.js"/> 
</svg>
