<?xml version="1.0"?>
<svg xmlns="http://www.w3.org/2000/svg" xmlns:xlink="http://www.w3.org/1999/xlink" viewBox="0 0 215 215">
  <title>nurse-slender</title>
  <g id="skin-tone">
    <g id="skin-tone-2" data-name="skin-tone">
      <path d="M 96.83,133.89 c .25,3.33.53,6.82.86,10.4,1.8,19.59,5.19,38.23,6.46,43.39 h 0 a 5.31,5.31,0,0,0,10.59-.55 s .15-13.1,1.06-27 c .52-8,1.29-17.83,1.93-25.78 A 56.44,56.44,0,0,0,96.83,133.89Z" fill="param(skin_tone)"/>
    </g>
  </g>
  <g id="main-colour">
    <g id="main-colour-2" data-name="main-colour">
      <path d="M 94.41,119.3 c -.25,2-2.19,13.19-3.56,15.77.79.92,5.78,2.84,5.9,2.84 a 27.69,27.69,0,0,0-.09-4 A 33.35,33.35,0,0,1,107,133.1 a 59.83,59.83,0,0,1,10.81,1.44 l -.25,3.88 s 4.06-1.87,4.81-2.87 c -.92-1.37-2.87-25.15-3.12-27.06 l -.61-1.66 a 11.19,11.19,0,1,0-22.38.6 h 0 l -.89.37Z" fill="param(main_colour)"/>
    </g>
  </g>
  <g id="fixed-colours">
    <path d="M 93.31,127 a 33.84,33.84,0,0,1,14.31-2.12,40.25,40.25,0,0,1,13.31,3.06 l .31,2.5 s -15.12-5.25-28.63-.44Z" fill="#fff"/>
  </g>
  <g id="outline">
    <path d="M 120.17,112.43 c -.08-1.19-.11-2-.11-2-.34-3.47-1.18-4.5-1.5-4.76 a 11.2,11.2,0,0,1,.14,1.62 c 0,.8,0,2-.06,3.15,0,.44.06,1.14.11,2,0,0,.83,8,1.6,14.73-3-1.23-14.13-5.18-26.24-.87,1.43-7.18,2.07-13.85,2.07-13.85.1-.87.18-1.73.22-2.53-.05-1.39-.08-2.45-.08-2.45 a 11.2,11.2,0,0,1,.14-1.73 h -.08 a 4.53,4.53,0,0,0-1.95,4.15 s -.1,1-.3,2.53 c 0,0-1.34,14.4-4,23.08.82,1.13,4.73,2.7,6.1,3.23.27,3.42.57,6.87.9,10.19 a 345.38,345.38,0,0,0,6.26,39.24,6.21,6.21,0,0,0,12.33-1 c 0-7.87,1.67-35.35,2.73-48.41,1.37-.7,3.81-1.89,4.61-2.81 C 122.48,132,120.19,114.25,120.17,112.43Z m .3,15.76.19,1.67 c -2.52-.83-15.1-4.57-27.16-.69q.22-1,.42-1.91 A 38.18,38.18,0,0,1,120.47,128.19Z M 92.6,135.37q1.61-.44,3.26-.73.08,1.11.17,2.23 A 32.88,32.88,0,0,1,92.6,135.37Z m 21.91,32.17 c -.26,5.43-.51,11.34-.67,15.24,0,2.32-.18,4.36-.18,4.36 a 4.2,4.2,0,0,1-8,1.78 l -.07-.16 c -.43-1.13-1.35-4.89-1.35-4.89-1.78-8-4-23-5.32-34.72-.47-4.31-.88-9.52-1.22-14.78 a 67.39,67.39,0,0,1,19.21.61 C 115.85,148.55,114.73,163,114.51,167.54Z m 4-30.5 c .07-.46.11-.9.15-1.31v-.44 c 1,.18,1.75.35,2.31.48 A 15.92,15.92,0,0,1,118.49,137Z m -26.31-2.83 c .4-1.31.76-2.7,1.1-4.1 a 50.31,50.31,0,0,1,27.5.7 c .18,1.51.35,2.83.48,3.78 A 58.51,58.51,0,0,0,92.18,134.21Z"/>
  </g>
<script type="text/ecmascript" xlink:href="param.min.js"/> 
</svg>
