<?xml version="1.0"?>
<svg xmlns="http://www.w3.org/2000/svg" xmlns:xlink="http://www.w3.org/1999/xlink" viewBox="0 0 600 600">
  <title>curvy-top-template</title>
  <g id="main-colour">
    <path d="M 353.34,362.63 c -3.08-13.08-9.5-24.5-12.67-29.67 s -6.5-10.17-7.08-18.42,1.58-16.67,4.58-24.75 c .33-.9.64-1.75.94-2.58 a 20.16,20.16,0,0,0,6.28-4 c 4.5-4.33,7-12.17,6.17-18.33 s -7-13-10.67-16 c -1.2-1-2.73-2.28-4.26-3.59-.65-.87-1.33-1.73-2.08-2.58 a 67.44,67.44,0,0,1-9.88-15.25,12.88,12.88,0,0,1-5.75-1.33 c 3,9.08.42,17.08-1.92,20.67 s -9.33,6.58-17.92,1.5-16-17.83-18.67-23.25 a 10.57,10.57,0,0,1-6.58,3.08 s 3.5,6.5,3.42,13.25-5.58,12.75-10.58,15.25-12.08.25-12.08.25-.42,12.83,1.92,21.83,7.67,15.67,10,23,1.67,14.08-5.33,23.42 S 248.5,342.29,245.09,355 s -6.25,35.58-1,60.92 c 15.58-6.58,31.58-2.67,43,.42 a 96.19,96.19,0,0,0,38,2.78 c 14.65-1.74,28.5-7.28,33.17-13.87 C 359.17,392.13,356.42,375.71,353.34,362.63Z" fill="param(main_colour)"/>
  </g>
  <g id="outline">
    <path d="M 276.64,286.88 s 6.63,12.75,23.5,8 A 29.17,29.17,0,0,1,276.64,286.88Z"/>
    <path d="M 343.59,336.38 c -6.75-11.75-9.25-14.5-9.08-25 s 2.5-15.67,4.17-20.33 c .3-.83.67-1.87,1.09-3.06,2.5-.83,5.64-2.71,8.62-6.86,6.38-8.87,4.76-15.42,3-20.62-2.75-8.12-12-12.87-16.42-18.46 A 70,70,0,0,1,325,226.75 c -3.25.25-5.56-.37-7.52-2,2.67,5.83,4.17,24-8.33,25.5 S 284.88,233.13,280.71,224 c -3,3.29-8,3.54-8,3.54 s 6.13,8.13,2.75,18.38-13.37,12.69-22,9.94 c -.5,11.75,1.5,25.31,7.5,35.81 S 268.59,310,264.84,318 s -12.14,13.26-18.37,28.75 c -12.63,31.38-3.88,56.63-3.63,70.38,12.75-4.75,22-5.08,39.83-.42,20.73,5.43,60.67,8.17,76.67-10.33 C 360.59,371.88,350.34,348.13,343.59,336.38Z m 13.87,68.88 c -3.79,6.13-17.31,11-28.31,12.48-10.55,1.44-25.15,1.81-36.82-.61 s -18.12-4.4-25-5.27-17.62.52-22.5,2.77 c 0,0-4.37-23.25-2.25-42 s 6-27.75,12.25-37.12,12.37-15.12,13.37-23-1.75-13.62-3.62-17.5-9.75-15.12-9.37-37.06 c 0,0,9,2.81,16-3.12 a 19.61,19.61,0,0,0,6.5-18.44,29.43,29.43,0,0,0-2.75-7.69 s 3.75-.75,5.19-2.44 a 75.5,75.5,0,0,0,12.19,17.63 c 5.31,5.5,12.06,9.06,18.88,7.69 s 8.94-8.37,9.38-12.19.38-9.12-.94-12.06 c 1.63.88,4.69.69,4.69.69 s 5.55,12.79,16,22 c 10,8.77,11.88,16.67,8.88,24.79 s -11,12.88-14.37,13.75 a 9,9,0,0,0,3-.06 c -2.2,6.43-5.42,15.16-5.14,22.87.31,8.88,1.5,12.19,3.69,16.31 s 10.87,16.25,15.29,32.92 C 354.52,371,358.09,382.13,357.46,405.25Z"/>
  </g>
<script type="text/ecmascript" xlink:href="param.min.js"/> 
</svg>
