<?xml version="1.0"?>
<svg xmlns="http://www.w3.org/2000/svg" xmlns:xlink="http://www.w3.org/1999/xlink" viewBox="0 0 600 600">
  <title>default-top-voluptuous</title>
  <g id="main-colour">
    <path d="M 318.47,271.46 a 31,31,0,0,1,6.25-12.83,26.87,26.87,0,0,1,9.51-7 c -7.92-10-12.19-16.72-12.19-29.47 a 14,14,0,0,0,1.93,3.52 s 2.33,14.25,14.33,24 c 4.33,1.33,9.83,3.67,12.42,10.75 s 1.42,15.83-3.92,21.42-15.33,10.58-24.75,1.17 a 18.8,18.8,0,0,0-9.5,2.08 s -2.42,4.83-9.33,8.33 S 287.3,296,275.55,293 s -27.5-10-27.5-10 l -1.67-8.42 s 21.42,7.33,25.75,2.92,10.08-15.67,18.5-21.83 C 287.8,246,278.89,230,276.14,227 a 27.55,27.55,0,0,0,1.58-3.25 s 12.67,15.5,16.75,30.92 c 0,0,8.67,2.17,14.33,6 S 318.47,271.46,318.47,271.46Z" fill="param(main_colour)"/>
  </g>
  <g id="outline">
    <path d="M 295.05,254.38 c -4.58-13.33-12.33-26.08-17.5-31.75 a 30.27,30.27,0,0,1-2.17,4.25 s 10,14.25,14.38,28.75 C 275.89,267,275.55,273.55,271.22,277 s -22.33-2-26-4 c -.67,1.33,2.5,10.5,2.5,10.5 s 23.67,10.33,38.5,12.33,22.67-3.75,28-10.92 c 4-1.17,6.08-1.83,7.67-1.33,1.17,1.17,3.33,4.92,10.83,5.25 s 14.21-3.81,18.17-11.67 a 21.11,21.11,0,0,0,1.67-13.33 c -.54-3-3.67-12.62-14.17-15 a 41.52,41.52,0,0,1-14.12-23.66,23.87,23.87,0,0,1-2.47-5.59 s -1.21,10.08,3.34,19.33 c 2.5,5.08,8.08,11.92,8.08,11.92 s -12.5,5.75-15,19.25 c 0,0-.83-4.25-8.33-9.42 A 38.64,38.64,0,0,0,295.05,254.38Z m 23.33,19.33 s 3.17-15.75,16.92-22.25 c -6.75-7.42-11.68-15-13-28,.5,1,1.22,2.09,1.22,2.09 a 42.84,42.84,0,0,0,14.38,24.81 c 8.42,1.54,12.5,9.13,13.38,15 a 20.45,20.45,0,0,1-9.87,20.17 c -6.85,3.94-16.33,1-18.83-3.17-4-.5-9.75,1.92-9.75,1.92 a 28.13,28.13,0,0,1-16.17,10.25 c -11,2.2-37.92-8.67-47.08-12.33-.33-1.83-1.67-6.33-1.67-6.33 s 18.36,7,23.86,3.52 c 5.22-3.25,6.31-12.19,19.62-23.33-3.67-13.08-12.56-26.19-14.56-29 a 15.53,15.53,0,0,0,1.17-2.17,110,110,0,0,1,16.08,30.5 s 6.67.83,14.5,6.17 S 318.39,273.71,318.39,273.71Z"/>
    <path d="M 281.64,290.13 s 9.62,4.18,19.38.38 c 8.88-3.46,10.88-8.5,10.88-8.5 s -5,5.63-11.25,7.63 S 289.26,291.63,281.64,290.13Z"/>
    <path d="M 324.39,281 s 3.83,4.33,11.42,4.25 A 17.39,17.39,0,0,0,347.89,280 L 349,278.3 s -4.17,4.42-9.58,5.67 A 19.7,19.7,0,0,1,324.39,281Z"/>
  </g>
<script type="text/ecmascript" xlink:href="param.min.js"/> 
</svg>
