<?xml version="1.0"?>
<svg xmlns="http://www.w3.org/2000/svg" xmlns:xlink="http://www.w3.org/1999/xlink" viewBox="0 0 215 215">
  <title>voluptuous-top-template</title>
  <g id="skin-tone">
    <path d="M 124.08,107.71 a 16.57,16.57,0,0,0-31.92-6.45 h 0 s -2.94,4.16-4.78,12.73 a 88.41,88.41,0,0,0,.32,39.59 c 4.07,16.49,10.36,28.88,12.66,31.56 s 7.73,5.26,12.3,2.71,5.4-6.11,6.31-13.35,1.94-25.65,2.35-32.06 S 123,119.19,123,119.19 l .78-8.48 h 0 A 16.62,16.62,0,0,0,124.08,107.71Z" fill="param(skin_tone)"/>
  </g>
  <g id="main-colour">
    <path d="M 86,121.28 s 19.26,8.35,36.92,1 c -.2,5.92-1.57,18.45-1.57,18.45 s -18.58,6.53-36-1.43 A 164.94,164.94,0,0,1,86,121.28Z" fill="param(main_colour)"/>
  </g>
  <g id="outline">
    <path d="M 107.7,88.95 A 18.61,18.61,0,0,0,89.77,102 l 0,0 c -.77,1.41-1.81,5.37-2.93,9.52 a 82.26,82.26,0,0,0-.21,42.92,131.85,131.85,0,0,0,11.55,29.19,11.09,11.09,0,0,0,.83,1.46v0 h 0 a 11.08,11.08,0,0,0,20-3.76 h 0v0 c .05-.24.09-.48.13-.72 A 139.57,139.57,0,0,0,121,166 c .18-5.12,1.29-27,1.74-33.61.41-6.12,3.11-20.45,3.23-23.09,0-.19,0-.36,0-.53,0-.35.06-.7.06-1.05 A 18.6,18.6,0,0,0,107.7,88.95Z m 12.73,50.67 c -15.13,5.27-31.08.55-33.9-.37 a 93.4,93.4,0,0,1,.18-16.88 c 18.85,6.54,31.49,3.18,35,2-.46,3.51-.85,7-1,9.42 C 120.68,135.23,120.57,137.27,120.43,139.62Z m -1.66,26.62 c -.19,3.22-.47,6.25-.8,8.84-.21,1.63-.53,3.47-.77,4.73,0,.24-.06.47-.1.7 s -.13.59-.19.85 h 0 A 9.08,9.08,0,0,1,100,183 h 0 l -.15-.24 c -1.73-2.89-9.63-20-12-32.73-.53-2.85-.94-5.91-1.23-9.06,14.45,5.75,29.18,2,33.64.63 C 119.79,150.39,119,162.28,118.77,166.23Z m 3.79-47.85 c -.16,1.08-.33,2.22-.49,3.39-14.68,5.91-31.19,0-35.08-1.54.17-1.22.37-2.42.61-3.58.51-2.45,1-4.6,1.54-6.47 a 73.86,73.86,0,0,1,2.92-8.68 h 0 a 16.57,16.57,0,0,1,32,6.22 C 124.08,111,122.56,118.38,122.56,118.38Z"/>
  </g>
<script type="text/ecmascript" xlink:href="param.min.js"/> 
</svg>
