<?xml version="1.0"?>
<svg xmlns="http://www.w3.org/2000/svg" xmlns:xlink="http://www.w3.org/1999/xlink" viewBox="0 0 600 600">
  <title>basic-crew-neck-t-shirt-voluptuous</title>
  <g id="main-colour">
    <path d="M 231.94,340 c -.32,1-.62,2.1-.9,3.2,5.07-.81,13.11-1.62,19.57,0,10.25,2.5,27,9.5,41.25,12 s 34.75,2.75,49.25-3.5 a 88.94,88.94,0,0,0,17.14-9.88 c -1.33-9.58-4-19.94-9.17-28.38-3.74-6.12-7.64-11-8.26-15.9 s 3.88-17.5,6-27-.49-15.61-.49-15.61 l -.22-.53 a 16.57,16.57,0,0,0-9.16-26.89 h 0 c -2.21-1.39-6.62-.85-11.53.48-.58,11.88-9.39,20.49-21.4,20.8-13.17.33-22.83-8.5-25.83-13.5 a 23.54,23.54,0,0,1-2.6-6.22 l -.15.23 s -7.75-2.87-14.5-3.12-13.12,4.13-15.87,9.63-2.75,12.13,1.5,18.75 c -2.5,13.63.38,23.13,3.75,34 s .5,15.5-3.37,21.38 S 235.69,328,231.94,340Z" fill="param(main_colour)"/>
  </g>
  <g id="outline">
    <path d="M 232,344 s 11.17-4.17,34.83,5,63.33,17,91.67-6.5 c 0-.83-.17-2.42-.17-2.42 s -14.83,13.08-34.67,15.08 S 289.52,355,272.52,349 s -29.67-10.33-40.5-6.83 A 5.64,5.64,0,0,0,232,344Z"/>
    <path d="M 238.86,338.5 s 5.25-2.37,28.13,5.88,36.13,9.25,48.38,9,26.13-4.87,33.88-10.25 c -6.87,3.13-20.5,9.25-34,9.13 s -22.62-.75-37.87-5.62 S 244.11,335.13,238.86,338.5Z"/>
    <path d="M 276.61,236.63 s 7.46,16.88,31.83,14.5 c 13.5-1.5,18.92-13.37,18.92-19.37.75,6.38-5.33,19.15-19.33,20.38 C 295.46,253.22,281.86,248.5,276.61,236.63Z"/>
    <path d="M 246.44,279.31 c 3.83,12.33,8.19,18.93,0,29.83 a 84.46,84.46,0,0,0-15.86,35.09 c 1-.21,1.91-.39,2.57-.5 h 0 a 82.53,82.53,0,0,1,4.16-14 c 4.5-10.17,8.79-16.58,13-23.08 a 17,17,0,0,0,2.16-5 A 175.88,175.88,0,0,1,254,322.88 a 74.72,74.72,0,0,0-1.88-33.38 c -.27-1-.58-2-.92-2.94 a 60.83,60.83,0,0,1-3.7-31.06 l 0,0,.2-1.67v0 a 16.56,16.56,0,0,1,13.1-26.72 h 0 l 1.17,0,.25,0,1,.07 h .11 a 50.93,50.93,0,0,1,11.29,2.66 c 3.92,12.64,17.15,19.78,29.75,19.78,11.2,0,21.9-9.21,21.76-20.88 l .24-.1 a 20.2,20.2,0,0,1,10.59-1.21 c -4.24-2.46-9.47-1.24-12.66.32,0,.64,0,1.25-.09,1.71 a 26.24,26.24,0,0,1-1.09,5.4,19.34,19.34,0,0,1-8.35,10 c -6.91,4.22-16.65,3.25-23.79,0 a 27.3,27.3,0,0,1-12.08-10.75 c -.61-1-1-2.29-1.57-3.39 h 0 c -.09-.21-.48-1.16-.83-2.17 l -1.14-.43 a 50.35,50.35,0,0,0-11.7-2.92,18.49,18.49,0,0,0-2.19-.21 l -.69,0 a 18.6,18.6,0,0,0-18.58,18.58,18.41,18.41,0,0,0,3.34,10.57 C 244.87,257.88,243.28,269.16,246.44,279.31Z"/>
    <path d="M 292.54,288.54 c -7.37,1.34-12.83-1.17-19.33-5.83 C 277.62,288.88,286.14,292,292.54,288.54Z"/>
    <path d="M 330.84,240.23 a 105.46,105.46,0,0,0,9.53,11.17,22.26,22.26,0,0,1,5.48,21.9 h 0 c -.81,2-2,5.54-2.65,7.78 l 0,0 c -.69,2.32-1.37,4.36-1.92,5.86-2.5,6.83-3,12.17,2.83,20.67,8.09,10,11.95,23.44,13.75,35.47v0 l 1.67-1.37 c -3.66-25.13-14-35.92-15.88-39.3-2.8-5-1.88-8.61,1-19.11.4-1.5.81-3,1.21-4.39 a 26,26,0,0,0,3-7,20.27,20.27,0,0,0-.93-12.51,19.78,19.78,0,0,0-1.8-5.05,16.55,16.55,0,0,1,.58,2.5,22.56,22.56,0,0,0-2.17-3.22 C 339.88,247.9,334.06,244.23,330.84,240.23Z"/>
  </g>
<script type="text/ecmascript" xlink:href="param.min.js"/> 
</svg>
