<?xml version="1.0"?>
<svg xmlns="http://www.w3.org/2000/svg" xmlns:xlink="http://www.w3.org/1999/xlink" viewBox="0 0 600 600">
  <title>wedding-dress-slender</title>
  <g id="main-colour">
    <path d="M 271.37,260 a 50.7,50.7,0,0,0,15-2.83 c 7.08-2.75,17.17-8.5,32.83,1,6-5.5,17.17-8.33,17.17-8.33 s 6.33,7.17,7,11.33,2,16.67-12.25,22 c -2.67,9.67-4.77,18.79-6.77,27.46 s -1.5,13.67,5.67,24.67,20.33,28.17,35.67,58,26.83,63.5,31.83,96.5,4.17,46,4.17,46-5,8.83-10.17,12 c .17,6.17.83,13.5.83,13.5 s -2.17,3.83-7.83,3.83-17.67-1-20.5,2 l -.67,3.5 a 30,30,0,0,1-12,11.33 C 343,586.38,335,583.88,330,583.38 s -9.5-2.33-12.33-.83 c -.17-2.33-.17-3-.17-3 a 32.72,32.72,0,0,0-12.17,3.83 c -5.83,3.33-19,7-25,1.33 a 37.94,37.94,0,0,0-.5-4.83,58.49,58.49,0,0,0-14-2 c -7,0-18.83,4.5-30.33-7-2-6.83-2.5-9.5-2.5-9.5 s -7.33-4.33-13.5-5.17-14.67-4.83-16.17-9.83 c -.83-10.83-1.33-42.33,4.5-68.83 s 18.33-62.83,30.5-88 a 361.59,361.59,0,0,1,33.35-55.83 c 8.65-11.83,12.15-18.5,11.48-25.5 s -3-14.33-5.83-21.83 S 271.2,268.38,271.37,260Z" fill="param(main_colour)"/>
  </g>
  <g id="accent-colour-1">
    <path d="M 317.76,258.13 s 5.88,10.75.88,28.5-12,30-8.12,58.38 h 1 s -1.62-15.75-.12-26.87,6.13-23.37,8.25-30.87,4.25-19.25-.12-28.75 A 3.11,3.11,0,0,0,317.76,258.13Z" fill="param(accent_colour_1)"/>
    <path d="M 300.51,253.38 s 11.13,9.63,6.75,34.38-8,36.38-8,46 a 3.39,3.39,0,0,0,1,.88,178.14,178.14,0,0,1,3.5-22.62 c 2.63-11.5,5.38-25.12,5.75-33.75 s -.75-17.37-7.75-25 A 6.41,6.41,0,0,1,300.51,253.38Z" fill="param(accent_colour_1)"/>
    <path d="M 286.14,257.63 s 9.25,11.75,8.5,32-4,19.88-4.5,38.38 c -.87-.5-1.37-.75-1.37-.75 a 130.58,130.58,0,0,1,1.75-15.5 c 1.5-8.75,3.75-21.12,2.25-32.37 S 285,258,285,258Z" fill="param(accent_colour_1)"/>
    <path d="M 329.89,252.13 s 4.75,4.5,3.5,16.75-2.25,14.38-2.25,14.38 l 1.13-.25 s 7.38-22-1.5-31.37 C 329.76,251.38,329.89,252.13,329.89,252.13Z" fill="param(accent_colour_1)"/>
    <path d="M 276.89,260 a 120.53,120.53,0,0,0,5.5,22.63 c 3.88,10.38,6.88,28.5-1,40.75 a 1.79,1.79,0,0,1-1.37.13 s 6.13-10.37,4.88-22.5-3-15.62-4.75-20.87-4.75-17-4.75-20.12 A 5.65,5.65,0,0,1,276.89,260Z" fill="param(accent_colour_1)"/>
    <circle cx="287.25" cy="224.82" r="2.58" fill="param(accent_colour_1)"/>
    <circle cx="291.54" cy="227.59" r="2.58" fill="param(accent_colour_1)"/>
    <circle cx="296.62" cy="229.57" r="2.58" fill="param(accent_colour_1)"/>
    <circle cx="301.84" cy="229.96" r="2.58" fill="param(accent_colour_1)"/>
    <circle cx="306.89" cy="229.1" r="2.58" fill="param(accent_colour_1)"/>
    <circle cx="311.21" cy="226.19" r="2.58" fill="param(accent_colour_1)"/>
    <circle cx="316.2" cy="228.19" r="2.58" fill="param(accent_colour_1)"/>
    <circle cx="312.6" cy="231.86" r="2.58" fill="param(accent_colour_1)"/>
    <circle cx="308.2" cy="234.57" r="2.58" fill="param(accent_colour_1)"/>
    <circle cx="310.71" cy="242.94" r="2.58" fill="param(accent_colour_1)"/>
    <circle cx="306.52" cy="239.67" r="2.58" fill="param(accent_colour_1)"/>
    <circle cx="312.41" cy="237.69" r="2.58" fill="param(accent_colour_1)"/>
    <circle cx="302.68" cy="235.36" r="2.58" fill="param(accent_colour_1)"/>
    <circle cx="297.31" cy="235.07" r="2.58" fill="param(accent_colour_1)"/>
    <circle cx="292.48" cy="233.15" r="2.58" fill="param(accent_colour_1)"/>
    <circle cx="287.14" cy="230.74" r="2.58" fill="param(accent_colour_1)"/>
    <circle cx="282.31" cy="227.74" r="2.58" fill="param(accent_colour_1)"/>
    <circle cx="279.95" cy="274.5" r="2.33" fill="param(accent_colour_1)"/>
    <circle cx="293.24" cy="280.88" r="2.33" fill="param(accent_colour_1)"/>
    <circle cx="289.78" cy="265.88" r="2.33" fill="param(accent_colour_1)"/>
    <circle cx="304.01" cy="258.38" r="2.33" fill="param(accent_colour_1)"/>
    <circle cx="308.7" cy="273.38" r="2.33" fill="param(accent_colour_1)"/>
    <circle cx="320.55" cy="265.95" r="2.33" fill="param(accent_colour_1)"/>
    <circle cx="332.95" cy="256.63" r="2.33" fill="param(accent_colour_1)"/>
    <circle cx="333.72" cy="272.88" r="2.33" fill="param(accent_colour_1)"/>
    <circle cx="320.22" cy="281.3" r="2.33" fill="param(accent_colour_1)"/>
    <circle cx="293.54" cy="297.55" r="2.33" fill="param(accent_colour_1)"/>
    <circle cx="284.07" cy="291.38" r="2.33" fill="param(accent_colour_1)"/>
    <circle cx="285.56" cy="305.63" r="2.33" fill="param(accent_colour_1)"/>
    <circle cx="290.5" cy="314.21" r="2.33" fill="param(accent_colour_1)"/>
    <circle cx="307.11" cy="290" r="2.33" fill="param(accent_colour_1)"/>
    <circle cx="315.39" cy="298.13" r="2.33" fill="param(accent_colour_1)"/>
    <circle cx="320.05" cy="320.38" r="2.33" fill="param(accent_colour_1)"/>
    <circle cx="311.51" cy="314" r="2.33" fill="param(accent_colour_1)"/>
    <circle cx="304.46" cy="305.46" r="2.33" fill="param(accent_colour_1)"/>
    <circle cx="301.32" cy="321.38" r="2.33" fill="param(accent_colour_1)"/>
    <circle cx="309.95" cy="330.38" r="2.33" fill="param(accent_colour_1)"/>
  </g>
  <g id="outline">
    <path d="M 293.66,294.82 h -.24 a 2.51,2.51,0,0,0-2.5,2.5v.24 a 2.51,2.51,0,0,0,2.5,2.5 h .24 a 2.51,2.51,0,0,0,2.5-2.5v-.24 A 2.51,2.51,0,0,0,293.66,294.82Z m 1.65,2.7 a 1.69,1.69,0,0,1-1.69,1.69 h -.17 a 1.69,1.69,0,0,1-1.69-1.69v-.17 a 1.69,1.69,0,0,1,1.69-1.69 h .17 a 1.69,1.69,0,0,1,1.69,1.69Z"/>
    <path d="M 290.64,280.7v.24 a 2.51,2.51,0,0,0,2.5,2.5 h .24 a 2.51,2.51,0,0,0,2.5-2.5v-.24 a 2.51,2.51,0,0,0-2.5-2.5 h -.24 A 2.51,2.51,0,0,0,290.64,280.7Z m .85,0 a 1.69,1.69,0,0,1,1.69-1.69 h .17 a 1.69,1.69,0,0,1,1.69,1.69v.17 a 1.69,1.69,0,0,1-1.69,1.69 h -.17 a 1.69,1.69,0,0,1-1.69-1.69Z"/>
    <path d="M 289.92,268.45 a 2.51,2.51,0,0,0,2.5-2.5v-.24 a 2.51,2.51,0,0,0-2.5-2.5 h -.24 a 2.51,2.51,0,0,0-2.5,2.5v.24 a 2.51,2.51,0,0,0,2.5,2.5Z M 288,265.91v-.17 a 1.69,1.69,0,0,1,1.69-1.69 h .17 a 1.69,1.69,0,0,1,1.69,1.69v.17 a 1.69,1.69,0,0,1-1.69,1.69 h -.17 A 1.69,1.69,0,0,1,288,265.91Z"/>
    <path d="M 284.2,288.66 H 284 a 2.51,2.51,0,0,0-2.5,2.5v.24 a 2.51,2.51,0,0,0,2.5,2.5 h .24 a 2.51,2.51,0,0,0,2.5-2.5v-.24 A 2.51,2.51,0,0,0,284.2,288.66Z m 1.65,2.7 a 1.69,1.69,0,0,1-1.69,1.69 H 284 a 1.69,1.69,0,0,1-1.69-1.69v-.17 a 1.69,1.69,0,0,1,1.69-1.69 h .17 a 1.69,1.69,0,0,1,1.69,1.69Z"/>
    <path d="M 282.59,274.57v-.24 a 2.51,2.51,0,0,0-2.5-2.5 h -.24 a 2.51,2.51,0,0,0-2.5,2.5v.24 a 2.51,2.51,0,0,0,2.5,2.5 h .24 A 2.51,2.51,0,0,0,282.59,274.57Z m -.85,0 a 1.69,1.69,0,0,1-1.69,1.69 h -.17 a 1.69,1.69,0,0,1-1.69-1.69v-.17 a 1.69,1.69,0,0,1,1.69-1.69 h .17 a 1.69,1.69,0,0,1,1.69,1.69Z"/>
    <path d="M 290.4,316.84 h .24 a 2.51,2.51,0,0,0,2.5-2.5v-.24 a 2.51,2.51,0,0,0-2.5-2.5 h -.24 a 2.51,2.51,0,0,0-2.5,2.5v.24 A 2.51,2.51,0,0,0,290.4,316.84Z m -1.65-2.7 a 1.69,1.69,0,0,1,1.69-1.69 h .17 a 1.69,1.69,0,0,1,1.69,1.69v.17 a 1.69,1.69,0,0,1-1.69,1.69 h -.17 a 1.69,1.69,0,0,1-1.69-1.69Z"/>
    <path d="M 303.9,260.92 h .24 a 2.51,2.51,0,0,0,2.5-2.5v-.24 a 2.51,2.51,0,0,0-2.5-2.5 h -.24 a 2.51,2.51,0,0,0-2.5,2.5v.24 A 2.51,2.51,0,0,0,303.9,260.92Z m -1.65-2.7 a 1.69,1.69,0,0,1,1.69-1.69 h .17 a 1.69,1.69,0,0,1,1.69,1.69v.17 a 1.69,1.69,0,0,1-1.69,1.69 h -.17 a 1.69,1.69,0,0,1-1.69-1.69Z"/>
    <path d="M 310.13,327.92 h -.24 a 2.51,2.51,0,0,0-2.5,2.5v.24 a 2.51,2.51,0,0,0,2.5,2.5 h .24 a 2.51,2.51,0,0,0,2.5-2.5v-.24 A 2.51,2.51,0,0,0,310.13,327.92Z m 1.65,2.7 a 1.69,1.69,0,0,1-1.69,1.69 h -.17 a 1.69,1.69,0,0,1-1.69-1.69v-.17 a 1.69,1.69,0,0,1,1.69-1.69 h .17 a 1.69,1.69,0,0,1,1.69,1.69Z"/>
    <path d="M 301.5,318.75 h -.24 a 2.51,2.51,0,0,0-2.5,2.5v.24 a 2.51,2.51,0,0,0,2.5,2.5 h .24 a 2.51,2.51,0,0,0,2.5-2.5v-.24 A 2.51,2.51,0,0,0,301.5,318.75Z m 1.65,2.7 a 1.69,1.69,0,0,1-1.69,1.69 h -.17 a 1.69,1.69,0,0,1-1.69-1.69v-.17 a 1.69,1.69,0,0,1,1.69-1.69 h .17 a 1.69,1.69,0,0,1,1.69,1.69Z"/>
    <path d="M 309.71,290.12v-.24 a 2.51,2.51,0,0,0-2.5-2.5 H 307 a 2.51,2.51,0,0,0-2.5,2.5v.24 a 2.51,2.51,0,0,0,2.5,2.5 h .24 A 2.51,2.51,0,0,0,309.71,290.12Z m -.85,0 a 1.69,1.69,0,0,1-1.69,1.69 H 307 a 1.69,1.69,0,0,1-1.69-1.69v-.17 a 1.69,1.69,0,0,1,1.69-1.69 h .17 a 1.69,1.69,0,0,1,1.69,1.69Z"/>
    <path d="M 312.85,298.24 a 2.51,2.51,0,0,0,2.5,2.5 h .24 a 2.51,2.51,0,0,0,2.5-2.5V298 a 2.51,2.51,0,0,0-2.5-2.5 h -.24 a 2.51,2.51,0,0,0-2.5,2.5Z m .85-.2 a 1.69,1.69,0,0,1,1.69-1.69 h .17 a 1.69,1.69,0,0,1,1.69,1.69v.17 a 1.69,1.69,0,0,1-1.69,1.69 h -.17 a 1.69,1.69,0,0,1-1.69-1.69Z"/>
    <path d="M 332.81,259.2 H 333 a 2.51,2.51,0,0,0,2.5-2.5v-.24 A 2.51,2.51,0,0,0,333,254 h -.24 a 2.51,2.51,0,0,0-2.5,2.5v.24 A 2.51,2.51,0,0,0,332.81,259.2Z m -1.65-2.7 a 1.69,1.69,0,0,1,1.69-1.69 H 333 a 1.69,1.69,0,0,1,1.69,1.69v.17 a 1.69,1.69,0,0,1-1.69,1.69 h -.17 a 1.69,1.69,0,0,1-1.69-1.69Z"/>
    <path d="M 311.59,311.38 h -.24 a 2.51,2.51,0,0,0-2.5,2.5v.24 a 2.51,2.51,0,0,0,2.5,2.5 h .24 a 2.51,2.51,0,0,0,2.5-2.5v-.24 A 2.51,2.51,0,0,0,311.59,311.38Z m 1.65,2.7 a 1.69,1.69,0,0,1-1.69,1.69 h -.17 a 1.69,1.69,0,0,1-1.69-1.69v-.17 a 1.69,1.69,0,0,1,1.69-1.69 h .17 a 1.69,1.69,0,0,1,1.69,1.69Z"/>
    <path d="M 320,283.86 h .24 a 2.51,2.51,0,0,0,2.5-2.5v-.24 a 2.51,2.51,0,0,0-2.5-2.5 H 320 a 2.51,2.51,0,0,0-2.5,2.5v.24 A 2.51,2.51,0,0,0,320,283.86Z m -1.65-2.7 a 1.69,1.69,0,0,1,1.69-1.69 h .17 a 1.69,1.69,0,0,1,1.69,1.69v.17 a 1.69,1.69,0,0,1-1.69,1.69 h -.17 a 1.69,1.69,0,0,1-1.69-1.69Z"/>
    <path d="M 320,317.79 h -.24 a 2.51,2.51,0,0,0-2.5,2.5v.24 a 2.51,2.51,0,0,0,2.5,2.5 H 320 a 2.51,2.51,0,0,0,2.5-2.5v-.24 A 2.51,2.51,0,0,0,320,317.79Z m 1.65,2.7 a 1.69,1.69,0,0,1-1.69,1.69 h -.17 a 1.69,1.69,0,0,1-1.69-1.69v-.17 a 1.69,1.69,0,0,1,1.69-1.69 H 320 a 1.69,1.69,0,0,1,1.69,1.69Z"/>
    <path d="M 304.58,302.83 h -.24 a 2.51,2.51,0,0,0-2.5,2.5v.24 a 2.51,2.51,0,0,0,2.5,2.5 h .24 a 2.51,2.51,0,0,0,2.5-2.5v-.24 A 2.51,2.51,0,0,0,304.58,302.83Z m 1.65,2.7 a 1.69,1.69,0,0,1-1.69,1.69 h -.17 a 1.69,1.69,0,0,1-1.69-1.69v-.17 a 1.69,1.69,0,0,1,1.69-1.69 h .17 a 1.69,1.69,0,0,1,1.69,1.69Z"/>
    <path d="M 320.39,268.5 h .24 a 2.51,2.51,0,0,0,2.5-2.5v-.24 a 2.51,2.51,0,0,0-2.5-2.5 h -.24 a 2.51,2.51,0,0,0-2.5,2.5V266 A 2.51,2.51,0,0,0,320.39,268.5Z m -1.65-2.7 a 1.69,1.69,0,0,1,1.69-1.69 h .17 a 1.69,1.69,0,0,1,1.69,1.69V266 a 1.69,1.69,0,0,1-1.69,1.69 h -.17 a 1.69,1.69,0,0,1-1.69-1.69Z"/>
    <path d="M 333.6,270.25 a 2.51,2.51,0,0,0-2.5,2.5V273 a 2.51,2.51,0,0,0,2.5,2.5 h .24 a 2.51,2.51,0,0,0,2.5-2.5v-.24 a 2.51,2.51,0,0,0-2.5-2.5Z m 1.89,2.54V273 a 1.69,1.69,0,0,1-1.69,1.69 h -.17 A 1.69,1.69,0,0,1,332,273v-.17 a 1.69,1.69,0,0,1,1.69-1.69 h .17 A 1.69,1.69,0,0,1,335.5,272.79Z"/>
    <path d="M 306,273.45 a 2.51,2.51,0,0,0,2.5,2.5 h .24 a 2.51,2.51,0,0,0,2.5-2.5v-.24 a 2.51,2.51,0,0,0-2.5-2.5 h -.24 a 2.51,2.51,0,0,0-2.5,2.5Z m .85-.2 a 1.69,1.69,0,0,1,1.69-1.69 h .17 a 1.69,1.69,0,0,1,1.69,1.69v.17 a 1.69,1.69,0,0,1-1.69,1.69 h -.17 a 1.69,1.69,0,0,1-1.69-1.69Z"/>
    <path d="M 282.21,230.67 h .27 a 2.8,2.8,0,0,0,1.79-.66,2.81,2.81,0,0,0-.06.55v.27 a 2.84,2.84,0,0,0,2.83,2.83 h .27 a 2.82,2.82,0,0,0,2.28-1.17,2.79,2.79,0,0,0,0,.48v.27 a 2.84,2.84,0,0,0,2.83,2.83 h .27 a 2.8,2.8,0,0,0,1.76-.63,2.83,2.83,0,0,0,2.8,2.55 h .27 a 2.83,2.83,0,0,0,2.48-1.49,2.84,2.84,0,0,0,2.62,1.78 h .27 A 2.79,2.79,0,0,0,304,238 a 2.8,2.8,0,0,0-.42,1.47v.27 a 2.84,2.84,0,0,0,2.83,2.83 h .27 a 2.8,2.8,0,0,0,1.12-.24,2.77,2.77,0,0,0,0,.4V243 a 2.84,2.84,0,0,0,2.83,2.83 h .27 a 2.84,2.84,0,0,0,2.83-2.83v-.27 a 2.81,2.81,0,0,0-1-2.16,2.83,2.83,0,0,0,2.73-2.82v-.27 a 2.84,2.84,0,0,0-2.25-2.77 A 2.83,2.83,0,0,0,315.6,232v-.27 a 2.79,2.79,0,0,0-.08-.62,2.82,2.82,0,0,0,.57.06 h .27 a 2.84,2.84,0,0,0,2.83-2.83V228 a 2.84,2.84,0,0,0-2.83-2.83 h -.27 a 2.81,2.81,0,0,0-1.9.75,2.83,2.83,0,0,0-2.82-2.74 h -.27 a 2.84,2.84,0,0,0-2.83,2.83v.27 s 0,.06,0,.09 a 2.79,2.79,0,0,0-1.23-.29 h -.27 a 2.83,2.83,0,0,0-2.64,1.85,2.81,2.81,0,0,0-2.13-1 h -.27 a 2.83,2.83,0,0,0-2.36,1.29,2.83,2.83,0,0,0-2.57-1.67 h -.27 a 2.82,2.82,0,0,0-2,.82,2.84,2.84,0,0,0-2.83-2.8 h -.27 a 2.79,2.79,0,0,0-1.18.27v-.21 a 2.84,2.84,0,0,0-2.83-2.83 h -.27 a 2.84,2.84,0,0,0-2.83,2.83v.27 a 2.81,2.81,0,0,0,.06.56,2.81,2.81,0,0,0-1.89-.75 h -.27 a 2.84,2.84,0,0,0-2.83,2.83v.27 A 2.84,2.84,0,0,0,282.21,230.67Z m 3-3.66 a 2.81,2.81,0,0,0,1.76.73,2.8,2.8,0,0,0-1.76.65,2.81,2.81,0,0,0,.06-.55v-.27 A 2.81,2.81,0,0,0,285.26,227Z m 3.39,1.08 a 2.79,2.79,0,0,0-1.2-.34,2.79,2.79,0,0,0,1.16-.27v.21 A 2.77,2.77,0,0,0,288.65,228.08Z m .54,2.71 a 1.92,1.92,0,0,1-1.91,1.91 h -.19 a 1.92,1.92,0,0,1-1.91-1.91v-.19 a 1.92,1.92,0,0,1,1.91-1.91 h .19 a 1.92,1.92,0,0,1,1.91,1.91Z m .91.53 a 2.79,2.79,0,0,0,0-.48v-.27 a 2.77,2.77,0,0,0,0-.39,2.78,2.78,0,0,0,1,.31 A 2.85,2.85,0,0,0,290.1,231.32Z m 5.35,1.38 a 2.79,2.79,0,0,0-.08-.45,2.8,2.8,0,0,0,.5.17 A 2.83,2.83,0,0,0,295.45,232.7Z m -1.65-2.3 a 2.79,2.79,0,0,0-.79-.21,2.85,2.85,0,0,0,.68-.48 A 2.78,2.78,0,0,0,293.8,230.4Z m -1.19,4.72 h -.19 a 1.92,1.92,0,0,1-1.91-1.91V233 a 1.92,1.92,0,0,1,1.91-1.91 h .19 a 1.92,1.92,0,0,1,1.91,1.91v.19 A 1.92,1.92,0,0,1,292.61,235.12Z m 6.74,0 a 1.92,1.92,0,0,1-1.91,1.91 h -.19 a 1.92,1.92,0,0,1-1.91-1.91v-.19 a 1.92,1.92,0,0,1,1.91-1.91 h .19 a 1.92,1.92,0,0,1,1.91,1.91Z m 3.46,2.2 h -.19 a 1.92,1.92,0,0,1-1.91-1.91v-.19 a 1.92,1.92,0,0,1,1.91-1.91 h .19 a 1.92,1.92,0,0,1,1.91,1.91v.19 A 1.92,1.92,0,0,1,302.81,237.33Z m 1.84-6.29 a 2.81,2.81,0,0,0,1.94,1,2.84,2.84,0,0,0-1.27,1.82,2.83,2.83,0,0,0-1.81-1.39 A 2.84,2.84,0,0,0,304.65,231Z m 5.23-2.2 a 2.79,2.79,0,0,0,1.23.29 h .22 a 2.83,2.83,0,0,0-1.65,2.56v.21 a 2.79,2.79,0,0,0-1.11-.31,2.83,2.83,0,0,0,1.32-2.39v-.27 S 309.88,228.86,309.88,228.83Z m 3.46.08 a 2.82,2.82,0,0,0-.57-.06 h -.22 a 2.84,2.84,0,0,0,.72-.48 A 2.81,2.81,0,0,0,313.34,228.92Z m -4.69,8.55 a 2.8,2.8,0,0,0,.86-.22 c 0,.09,0,.18,0,.27v.27 a 2.81,2.81,0,0,0,1,2.16,2.8,2.8,0,0,0-1,.23,2.77,2.77,0,0,0,0-.4v-.27 A 2.82,2.82,0,0,0,308.65,237.47Z m -3-1.45 a 2.84,2.84,0,0,0,.51.68,2.8,2.8,0,0,0-.88.23 A 2.8,2.8,0,0,0,305.63,236Z m 2.51-3.49 h .19 a 1.92,1.92,0,0,1,1.91,1.91v.19 a 1.92,1.92,0,0,1-1.91,1.91 h -.19 a 1.92,1.92,0,0,1-1.91-1.91v-.19 A 1.92,1.92,0,0,1,308.14,232.53Z m 3.06,2.14v-.21 a 2.78,2.78,0,0,0,.72.27,2.8,2.8,0,0,0-.75.21 C 311.18,234.85,311.2,234.76,311.2,234.67Z m -4.55,7 h -.19 a 1.92,1.92,0,0,1-1.91-1.91v-.19 a 1.92,1.92,0,0,1,1.91-1.91 h .19 a 1.92,1.92,0,0,1,1.91,1.91v.19 A 1.92,1.92,0,0,1,306.65,241.64Z m 6.1,1.36 a 1.92,1.92,0,0,1-1.91,1.91 h -.19 a 1.92,1.92,0,0,1-1.91-1.91v-.19 a 1.92,1.92,0,0,1,1.91-1.91 h .19 a 1.92,1.92,0,0,1,1.91,1.91Z m 1.71-5.44v.19 a 1.92,1.92,0,0,1-1.91,1.91 h -.19 a 1.92,1.92,0,0,1-1.91-1.91v-.19 a 1.92,1.92,0,0,1,1.91-1.91 h .19 A 1.92,1.92,0,0,1,314.45,237.56Z m .19-5.64 a 1.92,1.92,0,0,1-1.91,1.91 h -.19 a 1.92,1.92,0,0,1-1.91-1.91v-.19 a 1.92,1.92,0,0,1,1.91-1.91 h .19 a 1.92,1.92,0,0,1,1.91,1.91Z m -.41-3.86 a 1.92,1.92,0,0,1,1.91-1.91 h .19 a 1.92,1.92,0,0,1,1.91,1.91v.19 a 1.92,1.92,0,0,1-1.91,1.91 h -.19 a 1.92,1.92,0,0,1-1.91-1.91Z m -5-2 a 1.92,1.92,0,0,1,1.91-1.91 h .19 a 1.92,1.92,0,0,1,1.91,1.91v.19 a 1.92,1.92,0,0,1-1.91,1.91 h -.19 a 1.92,1.92,0,0,1-1.91-1.91Z m -4.32,2.9 a 1.92,1.92,0,0,1,1.91-1.91 H 307 a 1.92,1.92,0,0,1,1.91,1.91v.19 a 1.92,1.92,0,0,1-1.91,1.91 h -.19 a 1.92,1.92,0,0,1-1.91-1.91Z m -5.05.86 a 1.92,1.92,0,0,1,1.91-1.91 H 302 a 1.92,1.92,0,0,1,1.91,1.91V230 a 1.92,1.92,0,0,1-1.91,1.91 h -.19 a 1.92,1.92,0,0,1-1.91-1.91Z m -.71,1.39 a 2.84,2.84,0,0,0,1.91,1.59,2.85,2.85,0,0,0-1,1,2.84,2.84,0,0,0-2-1.7 A 2.85,2.85,0,0,0,299.16,231.22Z m -4.51-1.78 a 1.92,1.92,0,0,1,1.91-1.91 h .19 a 1.92,1.92,0,0,1,1.91,1.91v.19 a 1.92,1.92,0,0,1-1.91,1.91 h -.19 a 1.92,1.92,0,0,1-1.91-1.91Z m -3.17-3.89 h .19 a 1.92,1.92,0,0,1,1.91,1.91v.19 a 1.92,1.92,0,0,1-1.91,1.91 h -.19 a 1.92,1.92,0,0,1-1.91-1.91v-.19 A 1.92,1.92,0,0,1,291.48,225.55Z m -6.2-.86 a 1.92,1.92,0,0,1,1.91-1.91 h .19 a 1.92,1.92,0,0,1,1.91,1.91v.19 a 1.92,1.92,0,0,1-1.91,1.91 h -.19 a 1.92,1.92,0,0,1-1.91-1.91Z m -4.94,2.92 a 1.92,1.92,0,0,1,1.91-1.91 h .19 a 1.92,1.92,0,0,1,1.91,1.91v.19 a 1.92,1.92,0,0,1-1.91,1.91 h -.19 a 1.92,1.92,0,0,1-1.91-1.91Z"/>
    <path d="M 399.72,492.88 c -4.33-27.67-11.21-51.75-17.58-67.62 S 362.26,381,354.39,369 s -21-30.75-24.25-35.62-6.5-11.37-5-20.62,5.25-22.25,6.88-29 c 13.25-4.12,14-16.37,12.75-21.87-1.31-5.77-5.62-10-8.5-12.75 a 33.71,33.71,0,0,0-17.87,8.25 A 27.5,27.5,0,0,0,306,252.13 c -7.87-1.37-15.79,2.75-24.12,5.38-8,2.52-12,1-12,1,0,11.13,5.33,26.38,9.17,37.21 s 4.17,14.17.67,22.83-16.5,22.17-27.33,40.83-32.17,61-41.5,99.33-11.67,68.33-8.5,89 c 4.5,6.67,13,9.17,19.17,10.5 a 32.88,32.88,0,0,1,10.39,4.71,81.07,81.07,0,0,0,2.61,8.63 c 8.17,9.17,19.17,9.5,27.83,8.33,6.47-.87,13,.76,15.94,1.65.39,2.51.56,4,.56,4 s 6.33,5.83,16.67,3.33 c 9.44-2.28,14.57-6.92,20.34-7.71 a 34,34,0,0,1-.5,3.37 c 6.17-3,12.67-.17,19.33,1.17 a 29.62,29.62,0,0,0,30.33-14.5 c 0-.94,0-1.89,0-2.83,2.42-.93,8.09-2.77,13.29-2,6.83,1,12,0,15-4.83,0-3-.11-7-.32-11.43,6.72-5.56,10.15-13.9,10.15-13.9 S 404.05,520.54,399.72,492.88Z m -115.41-185 a 2.46,2.46,0,0,0,1.13.28 h .24 a 2.51,2.51,0,0,0,2.5-2.5v-.24 a 2.51,2.51,0,0,0-2.5-2.5 h -.24 a 2.47,2.47,0,0,0-1.57.57,53,53,0,0,0-2.86-9.85 c -2.25-6-7.62-20.75-8.5-32.62,8.5.25,18.21-5.12,25.5-6.5,5.1-1,14.63.75,21.25,5.13,2.88-3.62,11.5-8.25,16.88-8.62,7.75,7.38,7.13,14.63,5.75,19.88 s -5.75,10-11.87,12.25 c -.87,5.13-5.87,18.38-7.25,29.63 a 31.64,31.64,0,0,0,.06,8.66 c -2.08,2.12-8.15,9.17-12.1,22.8-9.36-13.47-25.69-19.82-30.37-21.41q.53-.94,1-1.92 A 25.84,25.84,0,0,0,284.31,307.86Z m -.05-1.1 c -.05-.74-.13-1.47-.22-2.18 a 1.68,1.68,0,0,1,1.45-.83 h .17 a 1.69,1.69,0,0,1,1.69,1.69v.17 a 1.69,1.69,0,0,1-1.69,1.69 h -.17 A 1.68,1.68,0,0,1,284.26,306.77Z M 392.84,545.62 c -.71-12.87-2.05-28.48-3.62-38.91-2.33-15.5-7.17-44.67-13.5-64.33 s -16.17-44.33-26-62.5 a 420,420,0,0,0-23.5-37.33 s 20.83,35.17,25.83,46.67,16,36.17,21.17,54.5,12.17,51.5,13.83,68.33,2.83,33.83,4,48.67 c -2,3-9,3.17-15,2.83 a 33.94,33.94,0,0,0-10.91,1.54,582,582,0,0,0-6.59-90.37 c -4.83-32.67-12.5-60-19.33-74.67 s -22.17-49.33-22.17-49.33,8.83,24.67,13.5,34.83 a 284.84,284.84,0,0,1,16.5,46.33,481.45,481.45,0,0,1,11.67,63.5 c 2.5,22.67,4.5,66,3.83,75-7.5,9.5-14.33,12.67-22.83,12.5 s -16.83-2.83-21-2.17 c .67-16.83-2.67-40.83-5.17-54.17 a 542.3,542.3,0,0,1-9-66.33 c -2-29.5,0-62.5.5-72.33 s 1.67-35.67,1.67-35.67 c -.33.5-5.17,45.83-5.67,74.5 a 473,473,0,0,0,6.17,80.67 c 3.14,18.51,9.87,52.79,8.85,71.36 a 19.73,19.73,0,0,0-7.18,1.81 c -4.17,2-15.33,8.83-26.83,4-1.17-11.17-5.67-25.67-8-32.83 s -13-40.33-11-80.83,14-74.67,17.33-85.67,11.83-33.67,12.17-38 c 0,0-10.17,26.33-16,43.67 s -15,48-16.33,82.5,7.17,67.5,12,82 a 162.81,162.81,0,0,1,5.61,23.14 A 38.12,38.12,0,0,0,261.72,577 c -10.67,1.17-19.17-1.17-24.83-6.5-4.83-16.17-8.5-41.83-5.33-75.67 A 352.67,352.67,0,0,1,250.72,408 c 8.83-24.83,29-64.83,29.5-69,0,0-15.67,30.33-22,44.17 a 378.21,378.21,0,0,0-24,72.83 c -5.92,27.3-9.46,72-3.25,102.51-3.19-2.19-8.23-3.63-14.59-4.85 a 18,18,0,0,1-11.5-7.83 s -1.67-4.5-1-21 c 1-26.17,7.67-61,16.33-86.5 s 24.29-60.62,36.29-80 c 10.35-16.7,17.16-24.49,22.45-33.21,10.87,2.43,26.89,14.62,32.45,23,3.46-13.31,9.65-21.18,12-23.82,1.52,5.79,4.86,11.29,9.79,18.48,8,11.67,21.17,30.17,32.17,52.5 a 357.55,357.55,0,0,1,26.17,71.17 c 6.5,25.67,7.67,48,9,69 C 398.93,539.14,395.05,543.37,392.84,545.62Z"/>
    <path d="M 313.55,281.88 c -12,7.5-21.17,3.5-21.17,3.5 C 301.05,289.88,309.39,287.38,313.55,281.88Z"/>
  </g>
<script type="text/ecmascript" xlink:href="param.min.js"/> 
</svg>
