<?xml version="1.0"?>
<svg xmlns="http://www.w3.org/2000/svg" xmlns:xlink="http://www.w3.org/1999/xlink" viewBox="0 0 600 600">
  <title>police-shirt-voluptuous</title>
  <g id="main-colour">
    <path d="M 354.48,279.38 c 4.25-8.08,3.17-19.17-.42-24.17 a 28.15,28.15,0,0,0-5.2-5.56,16.36,16.36,0,0,0,1.15-6,16.58,16.58,0,0,0-13.07-16.2 h 0 c -1.66-1-4.57-1-8-.35 a 19.09,19.09,0,0,0-7.66-5.9,16.29,16.29,0,0,0,2.69,6.06 l 1.34,1.29 c .75,7.75-9.08,22.17-9.08,22.17 s -23.38-5-33-13.83 a 35.13,35.13,0,0,1-6.69-8.2,38.71,38.71,0,0,0,3.19-8,7.82,7.82,0,0,0-5.46,2.54,8.3,8.3,0,0,0-1.69,5,49.72,49.72,0,0,0-11.68-2.2 c -6.75-.25-13.12,4.13-15.87,9.63 s -2.75,12.13,1.5,18.75 c -2.5,13.63.38,23.13,3.75,34 s .5,15.5-3.37,21.38 a 154,154,0,0,0-9.62,16.86 c 7.56,4.57,22.84,12.82,39.21,16,23.17,4.5,47.17,1.5,61-6.17 a 117.69,117.69,0,0,0,16.93-11.41,58,58,0,0,0-5.37-11.77 c -3.74-6.12-7.64-11-8.26-15.9 a 22.55,22.55,0,0,1,.74-6.75 A 22.74,22.74,0,0,0,354.48,279.38Z" fill="param(main_colour)"/>
  </g>
  <g id="accent-colour-1">
    <path d="M 237.32,326.71 s 23.57,15.17,49.82,17.67,46.63-2.23,67.31-19.24 c 4.44,13.74,11.94,38.74,12.44,49.74 s -2.25,40.25,4,51.5 c -15.5,13.5-29.75,17.25-57.75,18.75 s -42.25-4-57.5-5.25-23.75.75-26.5,2.25 c 3-13.75-1-33-2.75-42.5 s -5-24.12,1-47.37Z" fill="param(accent_colour_1)"/>
  </g>
  <g id="fixed-colours">
    <circle cx="320.9" cy="347.05" r="1.92" fill="#ffcc50"/>
    <path d="M 316.28,251.38 A 47.22,47.22,0,0,1,332.53,276 a 72.15,72.15,0,0,1-12.37,21.88 c -4.5-7.87-10.37-19.5-10.37-19.5 S 313.4,259.13,316.28,251.38Z" fill="#fff"/>
  </g>
  <g id="outline">
    <path d="M 323.67,264.4 s -.7-2.06-1.6-4.5 a 19.3,19.3,0,0,0-4.26.89q.48,2.16.89,4.32 C 320.72,264.71,323.67,264.4,323.67,264.4Z"/>
    <path d="M 319.69,269.07 a 35.37,35.37,0,0,0-1-4 s -2.65.53-4.16.9 c .61,2.55.82,4.2.82,4.2 S 318.19,268.95,319.69,269.07Z"/>
    <path d="M 325.67,272.72 a 21.85,21.85,0,0,0-.74-4.46 s -3.53.46-5.06.83 c .42,1.79.75,4.08.75,4.08 A 34.62,34.62,0,0,1,325.67,272.72Z"/>
    <path d="M 321.08,277.87 a 42.3,42.3,0,0,0-.46-4.7 c -1.66.36-4.5,1.38-4.5,1.38 a 31.12,31.12,0,0,1,.76,5 C 317.2,278.93,321.08,277.87,321.08,277.87Z"/>
    <path d="M 325.67,272.72 s .21,2.28.18,4.48 a 11.06,11.06,0,0,1,3.94.14 s .13-2.51,0-4.53 C 328.43,272.7,325.67,272.72,325.67,272.72Z"/>
    <path d="M 321.08,277.87q.16,2.66.23,5.32 a 28.29,28.29,0,0,1,4.21-.53 c .3-3.13.33-5.46.33-5.46 A 25.77,25.77,0,0,0,321.08,277.87Z"/>
    <path d="M 317.25,284.36 s 0,2.21,0,4.8 a 14.47,14.47,0,0,1,3.78-.82 s .25-2.13.3-5.15 A 21.63,21.63,0,0,0,317.25,284.36Z"/>
    <path d="M 301.32,296 c -19.25,4.17-30.33-8.17-30.33-8.17 C 280.15,300.63,292.82,300,301.32,296Z"/>
    <circle cx="316.59" cy="299.96" r="1.13"/>
    <circle cx="316.43" cy="308.75" r="1.13"/>
    <circle cx="316.43" cy="317" r="1.13"/>
    <circle cx="316.43" cy="325.13" r="1.13"/>
    <circle cx="317.18" cy="332.38" r="1.13"/>
    <circle cx="317.93" cy="339.38" r="1.13"/>
    <path d="M 286.89,289.27 c 2.75-.78,12.35-5.11,12.35-5.11 s 1-7.63,1.73-16.05 c -13.82,1.27-20.49-2.54-20.49-2.54 l -2.26,15 A 67.19,67.19,0,0,0,286.89,289.27Z m -5.35-21.68 a 38.92,38.92,0,0,0,18,2q-.13,1-.25,2 c -1.66.93-6.6,3.58-9.65,4.19 a 44.13,44.13,0,0,1-8.55-5.28Z m -.69,4.3 a 59.2,59.2,0,0,0,8.44,5.28,61.78,61.78,0,0,0,9.76-3.81 C 298.44,278.57,298,283,298,283 s -8.81,4.13-10.77,4.86 c -3.93-3.55-7.66-7.75-7.66-7.75Z"/>
    <path d="M 368.39,378.21 c -.83-16.67-9.67-44.5-12.5-52.92 a 65.29,65.29,0,0,0-5.62-13 c -3.69-6.31-6.75-9.06-7.81-12.62-.66-2.22-.51-4.9.15-8.2 a 25.83,25.83,0,0,0,3.68-1.8,25.36,25.36,0,0,0,11-13.37 c .81-2.5,2.75-11.62-.75-18.81 a 22.66,22.66,0,0,0-11.25-11.25,122.23,122.23,0,0,1-11.06-5.94 c .69.81,6,4.56,10.06,7.13 a 27,27,0,0,1,9.31,9.69,16.3,16.3,0,0,1,.91,2 c -.91.89-4.81,4.3-12.45,6 a 73,73,0,0,1,2,13.5 l 8.1,2.18 a 23.31,23.31,0,0,1-7.44,7.38,45.08,45.08,0,0,1-8.62,3.88 s 1.14.68,3.7.23 c -.06.28-.11.56-.15.83-.44,2.75-.25,6.25,2.5,11.38 s 6.88,8.13,11.31,20.38 c -5.84,4.34-15.13,12.14-31,16.23-.64-2.5-1.89-8.56-2.2-18.9-.33-11.3,0-20.44.11-23.62,2.34-2.71,10.08-12.27,12.88-22.46-1.44-7.57-5.93-14.23-10-19,8.07-14.15,7-25.11,6.56-29.57 a 17.88,17.88,0,0,1,7.14-.13 c -2.43-1.78-6.41-1.42-7.75-1.24 a 17.24,17.24,0,0,0-9.83-6.78,17.78,17.78,0,0,0,5.65,9.62 c -.36,4-2.21,11.08-9.41,20.65 h 0 c -4.84-1.17-17.49-3.71-27-9.83 a 42.18,42.18,0,0,1-11.56-11.16 c .89-1.54,3.42-6.09,3.94-9-5.25,0-8.87,3.88-9,6.63 a 5,5,0,0,0,0,.73,67.36,67.36,0,0,0-6.91-1.54 c -4.44-.75-8.19-1.06-14,2.13 s -8.94,10.38-9,15.56 a 19.88,19.88,0,0,0,3.38,11 c -1.37,5.88-1.06,15.38-.25,19.94 a 159.06,159.06,0,0,0,4.88,19.56 c .3.88.66,2,1.06,3.24 a 24.94,24.94,0,0,1-1.12,5.76 c -1.5,4.75-9.25,11.94-14.19,24.31-3.83,8.81-13.17,31-13.33,47.31 s 3,26.33,4.67,37.33,1.17,27.83-.17,32.33 c 8.5-4.33,22.5-4,41.33-1 s 78.83,10.67,104.17-16.17 C 366.22,410.71,369.22,394.88,368.39,378.21Z m -24.5-112.08 A 41.28,41.28,0,0,0,355,260.59 a 24,24,0,0,1,.7,3 l -2.92,4.53 a 50.6,50.6,0,0,1-8.52-.5 A 15.29,15.29,0,0,0,343.89,266.13Z m 1.67,11.42 s -.36-5-1-8.7 c 1.52.12,5.82.45,8.86.45.88-1.25,1.93-2.76,2.59-3.71 a 23.1,23.1,0,0,1-1,9.3,27.14,27.14,0,0,1-2.09,4.75Z m -20.67-52.42 a 7.78,7.78,0,0,1,.2,1.41 c -.67-.88-2.26-3.91-2.26-3.91 a 21.93,21.93,0,0,1,5.63,4.56 c 2.27,12.79-5,26.09-6.42,28.58 a 63.88,63.88,0,0,0-4.86-4.76 C 318.88,248.6,328.31,234.69,324.89,225.13Z m -7.08,35.66q-.54-2.13-1.14-4.26 l -1,.14.55-2.22 c .15.69.32,1.38.46,2.07 l 3.56-.73.22.23q.83,1.93,1.61,3.86 l 1.51-.23 a 49.21,49.21,0,0,1,3.18,4.6,9.26,9.26,0,0,0-3.09.13 c .72,1.93,1.26,3.86,1.26,3.86 l 4-.09 c .26.53.51,1.08.76,1.63.05,1,.11,2,.15,3 l 1.12.16q.48,1.35.89,2.78 c -.18.65-.39,1.3-.6,1.95 l -1.43-.35q-.16,2.48-.4,5 l 0,.05 a 30.38,30.38,0,0,0-3.85.3q-.11,2.7-.32,5.41 l 1.25-.13 c -.52.89-1,1.73-1.55,2.51.1-.79.2-1.59.29-2.39 l -4.19.28q-.23,2.26-.52,4.51 l 2.89-.12 c -1.65,2.37-2.85,3.79-2.85,3.79 l -.28-.41 c .09-1.08.18-2.17.25-3.25 h -2.39 l -.88-1.41 c 0-1,0-2.29,0-2.29 l -1.2.31 c -.72-1.23-1.45-2.55-2.16-3.94,1.22-.51,3.39-1.18,3.39-1.18 s -.08-2.41-.37-4.83 c -1.2.32-4.1,1.49-5,1.84 l -.26-.63 c 0-1.43.06-2.86.05-4.3 l -.61.22q.27-1.35.56-2.7 c 0,.66,0,1.49,0,2.49 a 15.89,15.89,0,0,1,4.44-1.89 c .37,0-.32-2.17-.57-4.32 a 13.52,13.52,0,0,0-3.44,1.54 c .4-1.84.81-3.65,1.21-5.38 l 1.22-.38 c -.16-.86-.35-1.72-.52-2.59 l .43-1.81 A 18.78,18.78,0,0,1,317.81,260.79Z m -39.92-38.54 A 15,15,0,0,1,276,227 c -.64-1-1-1.66-1-1.66.5,4.75,5.2,11.19,14.14,16.81,7.94,5,23.06,8.5,25.95,9.14-.48,1.62-1.26,4.39-2.15,8.08-2.93-.66-22.1-5.42-31.68-18-7.62-10-7-11.62-7.75-14 C 274,223.63,276,222.25,277.89,222.25Z m -30.5,88.88 c 1.94-2.82,4.35-6.35,5.19-9.77,2.16,6.74,5,14.88,7.37,17.21-3.5-7.69-5.94-18.37-7.62-24.56 s -4.44-17-5.19-23.94 a 71.63,71.63,0,0,1,.56-16.31 c -3-2.81-4.12-9.56-3.19-13.31 a 17,17,0,0,1,9.94-12.12 c 6.22-2.8,14.56-.18,18.06.87,1.13,3.63,4.29,9.46,10.38,16.32,8.64,9.74,27.11,15.34,29.55,16-1.07,4.58-2.26,10.3-3.33,16.82,1.66,5.37,7.77,15.93,9.89,19.65-.16,2.42-.65,10.93-.37,22.36 a 116.72,116.72,0,0,0,2.31,21.13 l -.24.06 c -16.94,3.94-33.44,2.19-43.94.19 s -24.81-7.44-37.75-15.81 A 85.85,85.85,0,0,1,247.39,311.13Z M 238,328.32 c 14.08,8.16,29.28,15.23,49.1,17,20.83,1.83,40.5-1.67,51.58-8.08 A 122.74,122.74,0,0,0,354,326.84 c .46,1.51,1.15,3.82,2,6.64-8.63,9.06-34.79,23.12-69.47,19.24-31-3.47-48-13.86-51.93-16.53Q236.17,332.38,238,328.32Z m 90.52,114.22 a 187.47,187.47,0,0,1-46.17-.5 c -17-2.5-43-5.83-51.67-1.83,1.5-20.33-1.33-30.83-3.17-41.33-1.67-9.55-6.77-27.64,6.35-60.92,27,18.93,68.69,19.87,88.49,14.92 A 93.76,93.76,0,0,0,356.75,336 c 2.14,7.45,4.85,17.34,6.63,25.53,3.33,15.33,2.67,25.83,2.5,34.67 s .5,24.33,3.5,29.83 C 360.55,435.71,340.72,441.21,328.55,442.54Z"/>
    <path d="M 320.89,349.46 a 2.42,2.42,0,1,0-2.42-2.42 A 2.42,2.42,0,0,0,320.89,349.46Z m 0-3.83 a 1.42,1.42,0,1,1-1.42,1.42 A 1.42,1.42,0,0,1,320.89,345.63Z"/>
    <path d="M 293.64,418.88 c 19-7,33.5-21,40.25-36 C 333.89,382.88,317.89,406.13,293.64,418.88Z"/>
    <path d="M 330.39,410.88 c -11.25,10-26,14-26,14 C 313.14,424.63,325.89,418.63,330.39,410.88Z"/>
  </g>
<script type="text/ecmascript" xlink:href="param.min.js"/> 
</svg>
