<?xml version="1.0"?>
<svg xmlns="http://www.w3.org/2000/svg" xmlns:xlink="http://www.w3.org/1999/xlink" viewBox="0 0 600 600">
  <title>basic-bikini-top-voluptuous</title>
  <g id="main-colour">
    <path d="M 247.15,279.75 s 19.38,7.88,28,10 c 1.75-12.37,10.75-25.87,16-32.25-4.37-12.37-13.5-28.12-14.75-30.5 a 14.92,14.92,0,0,0,1.5-4 s 13.75,20.13,17.13,32.75 c 11.25,2.5,23.75,10.13,24.5,26.25,2.5-.25,4.75-.5,4.75-.5 a 68.3,68.3,0,0,1,13.13-30.29 c -10.12-9.12-16-17.58-15.75-30.08 a 21.81,21.81,0,0,0,1.5,3.25 s 1.13,13.5,18.5,24.88 c 2.25.5,10.83,2,14.08,8.38,3.25,9.88,3.38,18-4.75,27.67 s -20.21,7.33-24.83-.29 c -3.25-.37-8.25.5-9.12,1.13-5,5.25-11.25,11.13-23.12,11.75 s -25.5-6.62-29.75-8.12-16.25-6.37-16.25-6.37Z" fill="param(main_colour)"/>
  </g>
  <g id="outline">
    <path d="M 355.9,256.38 c -3.37-3.87-6.62-6.12-13.87-7.75-6.37-3.75-15.87-11.62-18.29-24.25-1.5-3.17-2.33-5.33-2.33-5.33 s -2.83,17.33,14.83,32.33 c -6.67,10.33-11.33,20.5-12.5,29.83 l -3.5.5 S 321.07,262,295.57,255 c -3.67-12.5-17.83-33.5-17.83-33.5 L 275.4,227 a 133.89,133.89,0,0,1,15.17,30.17 c -8.67,10.83-14.83,22-16,32-7.83-1.83-28.5-10.5-28.5-10.5 l 1.67,5.17 s 26.5,10.83,33.83,13,17.33,4.5,30-4.17 c 4.83-4,6.33-6.5,6.33-6.5 s 5-1.5,7.33-.5 c 0,0,2.5,6.67,12.83,7 s 19.33-12.17,20.33-21.08 C 359.26,264,357.23,258.54,355.9,256.38Z m -60.42,41 c -9.62,1-21.21-4.25-28-6.87 s -18.75-7.25-18.75-7.25 l -.87-2.62 s 19.38,7.63,27.88,9.75 c 1.63-10.62,8.5-24.37,16-32.75-5.12-15.87-14.62-30.5-14.62-30.5 s .63-1.5,1.25-2.62 c 5.63,8.13,14,23.75,16.13,31.75,1.5.13,12.63,3.38,18.25,10.13,3.84,4.61,5.18,10.5,5.64,13.77 l 0,0 a 7.89,7.89,0,0,1-1.73,5.44 A 29,29,0,0,1,295.48,297.38Z m 59.25-18.67 a 21.71,21.71,0,0,1-4.29,6.14,24.55,24.55,0,0,1-4.05,2,10.34,10.34,0,0,0,1.26-5.43,14.27,14.27,0,0,1-2.66,5.93,17.76,17.76,0,0,1-7.25.82,18.24,18.24,0,0,1-9.67-4.33 s 3.58,4.83,9.42,5.25 a 20,20,0,0,0,9.46-1.31,17.36,17.36,0,0,1-8.21,3.39 c -5.25.38-10.75-2.33-12.5-6.42 a 10.28,10.28,0,0,0-7.26-.07,8.2,8.2,0,0,0,.85-2.2 c 1-.09,2.63-.25,5.19-.52,2.38-18,13.54-30.62,13.54-30.62 s -9.42-7.87-12.79-14.12-4-14.75-4-14.75 a 5.47,5.47,0,0,0,.88,2.13 c 2.5,12,11,20.38,18.63,25.13,3.38,1.13,8.25,1,13.79,8 A 25.27,25.27,0,0,1,354.73,278.71Z"/>
    <path d="M 301.67,291.73 a 11.75,11.75,0,0,0-.6-6.94,15.75,15.75,0,0,1-.71,7.31 c -6.61,1.76-12.69,1.63-21-.39,0,0,12.67,5.17,23,1.17 s 13.42-9.5,13.42-9.5-6.92,6.17-14.08,8.33Z"/>
  </g>
<script type="text/ecmascript" xlink:href="param.min.js"/> 
</svg>
