<?xml version="1.0"?>
<svg xmlns="http://www.w3.org/2000/svg" xmlns:xlink="http://www.w3.org/1999/xlink" viewBox="0 0 600 600">
  <title>nurse-voluptuous</title>
  <g id="main-colour">
    <path d="M 368.86,387.71 c -.67-10.33-1.67-36.17-5.33-47.83-2.56-8.15-7.57-18.25-13.59-25-.28-.5-.56-1-.86-1.48-3.74-6.12-7.64-11-8.26-15.9 s 4.18-17.1,6.31-26.6-.8-16-.8-16 l -.22-.53 a 16.57,16.57,0,0,0-9.16-26.89 h 0 c -1.56-1-4.23-1-7.38-.45-.66-4.79-7.38-6.78-7.38-6.78 a 18.06,18.06,0,0,1,0,3 l -.12-.25 c -.85,7.3-3,13.38-4.56,15.93-1.92,3.17-7.75,8.92-10.49,12.51-1.4-3.49-8.85-9.43-13.26-11.84 a 42.81,42.81,0,0,1-12.83-10.83,10.48,10.48,0,0,1-1.29-2.32 c 0-.06,0-.12,0-.18 a 8.65,8.65,0,0,1-.49-1.08,17.14,17.14,0,0,1-.49-2.15 l -.08.18 a 9.55,9.55,0,0,1-.19-3 c -5.77,1.31-6.31,5.42-6,8.12 a 49.32,49.32,0,0,0-11.5-2.15 c -6.75-.25-13.12,4.13-15.87,9.63 s -2.75,12.13,1.5,18.75 c -2.47,13.44.3,22.88,3.62,33.57 a 44.16,44.16,0,0,1-2.33,13.67 c -4,11.17-7.67,16-12.5,27 s -11.83,29.33-10.67,51.5,4.67,32.83,4.5,40.5 a 148.38,148.38,0,0,1-1.67,17 S 234,437,247.19,440 s 35,10.83,65.5,10.33,47.83-9.17,63.67-23.17 C 369.36,415.54,369.52,398,368.86,387.71Z" fill="param(main_colour)"/>
  </g>
  <g id="fixed-colours">
    <path d="M 274.29,222.46 s -.67,5.42,1.83,8.92,6.58,5.25,10.08,7.33,6.33,3.83,6.33,3.83.08,1.75-.17,1.75 A 90.51,90.51,0,0,1,279.29,237 C 275.29,234,269.7,228.55,274.29,222.46Z" fill="#fff"/>
    <path d="M 294,249.3 s 9.83.92,12.5,1.58 c .5,1.25.92,2.42.92,2.42 l -12.75-1.83Z" fill="#fff"/>
    <path d="M 308.45,253 s 8.58-6.58,14.75-7.83 c .25,1.25.33,2,.33,2 s -9.33,3.33-14.33,7.67Z" fill="#fff"/>
    <path d="M 328.79,224.88 a 8.24,8.24,0,0,1-.42,7.17,44.78,44.78,0,0,1-6.33,7.83 l -.83-2.08 s 4.75-4.42,6.75-9.5Z" fill="#fff"/>
    <path d="M 277.45,261.13 s 10.58,2.67,21.17.75 c -.17,1.67-.25,4.17-.25,4.17 s -12.17,1.58-20.75-1.17 C 277.54,262.71,277.45,261.13,277.45,261.13Z" fill="#fff"/>
    <polygon points="331.37 260.05 336.04 258.96 336.95 262.21 340.45 261.05 341.2 263.21 332.29 265.21 331.37 260.05" fill="#fff"/>
    <polygon points="345.54 258.55 343.04 260.13 343.87 262.38 346.62 260.71 345.54 258.55" fill="#fff"/>
    <polygon points="282.61 272.46 286.02 272.38 286.11 269.63 289.02 269.63 289.36 272.21 292.27 272.21 292.19 274.8 289.11 274.96 288.94 277.88 285.86 277.96 286.02 275.13 282.77 275.13 282.61 272.46" fill="#f0356a"/>
    <path d="M 336.15,259.13 l 7.5-3.58,1.42,3.17-2,1.42,2,6 a 4.74,4.74,0,0,1,2,1.25 c .05,2.42-.11,4.5-.11,4.5 s -4.33,2.42-5.64-.58 a 3.87,3.87,0,0,1,1.08-4.58 c -.75-2.08-1.92-5.5-1.92-5.5 l -3.58.83Z" fill="#d6d6d6"/>
  </g>
  <g id="outline">
    <path d="M 367.22,351.54 c -3.67-23.5-19.75-43.67-22.5-47.67 s -3.17-7.17-2.33-11.83 c .66-3.69,2.73-10.74,3.56-13.54 A 22.61,22.61,0,0,0,349.5,268 c .25-4-1.37-9.75-3.12-13.12 a 5,5,0,0,1,.38,2.25 s -1.25-3.37-6.37-8-9.12-8.5-9.12-8.5 a 109,109,0,0,0,8.25,9.88,24.54,24.54,0,0,1,3.4,4.12,41.75,41.75,0,0,1-12.72,4.67 c 1.58,5.42,2.83,15.58,2.83,15.58 l 11.5,2.55 c -.13.24-.25.47-.39.7-2.75,4.5-7.37,8.63-12.62,9.88,5,0,7.87-1.68,11.28-5.41-3.92,13.54-4.25,17.67,2.27,26,4.5,5.71,12.83,20.83,17.5,33 s 4.83,42.33,5.5,51.33.67,20.67,6.83,34.67 c -16.17,14.2-32.69,18.55-49.76,20.57.3-4.8,2.11-34.63,1.08-52.07-1.12-19-2.75-32.37-6.75-48 s -6-27.12-5-39.5,3-34.37-2.5-49.12 c -.63-1.71-1.25-3.21-1.88-4.55 a 48.46,48.46,0,0,1,14.23-7.32,65.26,65.26,0,0,0-1.77-7.23 c 1.46-1.18,6.6-5.63,7.6-10.77 a 8.83,8.83,0,0,0,.16-2,20.6,20.6,0,0,1,6.76-.09 c -1.87-1.47-5.55-1.44-6.94-1.37-1-4.21-5.59-6.14-8.48-6.88,0,0-.26,14.79-6.89,22.17-4.05,4.51-6.58,7.87-7.29,8.83-3.26-4.74-7.32-7.18-14.45-12-10.62-7.12-14.5-12.12-14-19,0,0-4.5-.62-7,5.13 a 6.17,6.17,0,0,0-.51,2.59,48.14,48.14,0,0,0-8.43-1.77,18.61,18.61,0,0,0-17.56,29.06 c -1.25,6.44-1.5,15.69.31,22.88 a 95.09,95.09,0,0,0,3.66,11 c -1,17.59-10.18,28.76-18.77,50.62-8.83,22.5-8.5,48.33-5.5,61.67 s 3.17,28,.5,38.17 c 9.5-.67,27,4.17,44.5,8.5 s 36,6,59.33,3,41.5-14.33,48.33-22.33 C 368.72,416,370.89,375,367.22,351.54Z m -23.74-95.37 a 21.44,21.44,0,0,0,1,2.37 c -1.92,1.58-7.17,3.08-7.17,3.08 l -.65-2.34 A 71.2,71.2,0,0,0,343.47,256.17Z m 2.77,6.21 a 24.53,24.53,0,0,1,.43,3.91,3.66,3.66,0,0,0-1.49-.71 l -1-3 a 9.71,9.71,0,0,0,1.87-1 C 346.12,261.9,346.2,262.14,346.25,262.38Z m -2.34-.6-.53-1.58 c .82-.42,1.49-.79,1.91-1q.32.81.56,1.62 A 11,11,0,0,1,343.91,261.77Z m -2.94-.45 c .62-.26,1.21-.53,1.75-.8 l 1.75,5 a 3,3,0,0,0-1.08.17,6.38,6.38,0,0,0-.81.38Z m 2.74,5.35 a 3.12,3.12,0,0,1,3,.89,27.56,27.56,0,0,1-.31,3.92 c -2.24,1.64-4.38.51-4.93-.93 A 3,3,0,0,1,343.7,266.67Z m -8-7 c .16.54.44,1.54.85,3.07 a 18.88,18.88,0,0,0,3.79-1.12 l .43,1.21 a 74,74,0,0,1-7.91,1.83 c -.23-1.39-.48-2.75-.72-3.92 A 31.78,31.78,0,0,0,335.66,259.64Z m -1.48,14 s -.53-3.93-1.19-7.95 a 74.34,74.34,0,0,0,8.08-1.92 l .93,2.64 a 3.6,3.6,0,0,0-1.43,4.39 c 1.16,3.49,4.15,2.55,5.59,1.86 a 19.42,19.42,0,0,1-1.08,3.58Z m -24.63-19.84-.44-.86 a 56.92,56.92,0,0,1,13.59-7.47 c .11.44.21.84.28,1.17 A 68.18,68.18,0,0,0,309.55,253.79Z m -3.72-2.65 c .3.44.58.9.86,1.37-3.15-.6-7.09-1.24-11.22-1.63q-.18-.65-.34-1.28 C 296.71,249.76,301.36,250.25,305.83,251.14Z m 22.89-21.43 c -.89,3.63-5.58,8.23-6.62,9.22-.12-.37-.24-.73-.36-1.07 a 35.92,35.92,0,0,0,5.23-6.64,16.58,16.58,0,0,0,1.78-4.65 A 6.51,6.51,0,0,1,328.72,229.71Z m -5.83-8.42 a 9,9,0,0,1,5.26,3.76 c 0,2-1,6.07-6.63,12.17-.47-1.31-.86-2.27-1.08-2.78 C 322.3,229.55,323.24,224.2,322.89,221.29Z m -7.26,21.46 a 22.56,22.56,0,0,0,4.15-6.67 c .54,1.59,1.95,5.84,2.74,8.72 a 43.45,43.45,0,0,0-13.65,7.69 c -.23-.41-.45-.8-.69-1.18 A 80.32,80.32,0,0,1,315.62,242.75Z m -10.42,7.51 A 65.82,65.82,0,0,0,295,249 c -.95-3.77-1.53-7-1.78-8.52 C 297.2,243,302.22,246.35,305.2,250.26Z m -27.31-29.14 c -.37,6.63,7.13,13.88,10.88,16.5.61.43,1.38.92,2.24,1.46.1.66.25,1.53.43,2.54-1.65-1-6.76-4.14-9-5.67-2.66-1.77-8.34-4.5-7.73-12.73 A 4.78,4.78,0,0,1,277.89,221.13Z m -4,3.54 a 11.22,11.22,0,0,0,4.22,9.12,136,136,0,0,0,13.5,8.52 l .15.78 c -2.9-1.23-10-4.52-15.06-9.09 C 273,230.74,272.77,227.21,273.84,224.67Z M 262.89,443 c -7.67-1.83-23.83-7.17-34.17-6.67,2.83-9,.83-27.5-1.17-38.17 s -3.33-30,1.83-47.33,12-30.67,16.5-40.5 a 68.62,68.62,0,0,0,5-18.62 c .53,1.36,1,2.56,1.28,3.55,1.19,3.88,3.25,11.38,3.56,14.31,0,0-1.12-13.5-4.87-24.12 s -5.17-19.54-3.17-31.62 c -4.25-4.58-4.83-13.25-.83-19.25 a 16.87,16.87,0,0,1,15.25-7.5,43.39,43.39,0,0,1,9.7,1.89 c 1.77,5.81,10.3,12,20.21,15.85 a 68.57,68.57,0,0,0,1.92,7.51 c 4.58.42,9.71,1.2,13.69,1.87,4.83,9.26,7.16,23.24,6,36.8-1.25,15.25-3.37,29.38.63,45.13 s 8.75,32.63,9.63,58.63 c .79,23.6-.57,49-.83,53.55-2.51.27-5,.5-7.57.7 C 295.05,450.71,270.55,444.88,262.89,443Z"/>
    <path d="M 298.2,277.5 c .72-7.78,1.26-16.63,1.26-16.63 s -12.29,2-22.76-.81 c 0,0-.44,11.38.29,17 A 40.64,40.64,0,0,0,287.14,284 S 296,279.42,298.2,277.5Z M 298,262.61 c -.08.79-.16,1.67-.23,2.58-8.18,1.75-17,0-19.59-.59,0-1,0-1.93.07-2.52 C 278.22,262.08,291.05,264.47,298,262.61Z m -19.83,3 c 7.84,2.12,17.12,1.23,19.48,1-.4,4.77-.77,10-.77,10 s -7.29,4.56-9.55,5.64 a 59.9,59.9,0,0,1-9-6.05 S 278.13,270,278.14,265.64Z"/>
    <path d="M 289.24,278.36 l .21-2.77,3.15,0,.09-3.88 h -3.07 l 0-2.69-4.15-.16,0,2.8-3.3,0,0,3.72,3.3,0-.05,2.84Z m -6.13-4,0-1.65 h 3.24v-2.69 l 2.27,0,.1,2.72,2.88.09v1.5 l -3,.07-.18,2.92-2.18-.08.06-2.77Z"/>
    <path d="M 284.62,288.38 c 11.75,2.25,19-1.75,23-9.75 C 297.37,290.13,284.62,288.38,284.62,288.38Z"/>
  </g>
<script type="text/ecmascript" xlink:href="param.min.js"/> 
</svg>
