<?xml version="1.0"?>
<svg xmlns="http://www.w3.org/2000/svg" xmlns:xlink="http://www.w3.org/1999/xlink" viewBox="0 0 600 600">
  <title>police-shirt-voluptuous</title>
  <g id="main-colour">
    <path d="M 349.08,313.37 c -3.74-6.12-7.64-11-8.26-15.9-.46-3.57,1.84-11.31,3.93-18.92 a 20.11,20.11,0,0,0,2.89-15.29,23.2,23.2,0,0,0-1.32-8.4 l -.22-.53 a 16.57,16.57,0,0,0-9.16-26.89 h 0 c -1.66-1-4.57-1-8-.35 a 19.09,19.09,0,0,0-7.66-5.9,16.29,16.29,0,0,0,2.69,6.06 l .34.38 c -.17.49-.35,1-.54,1.49-4.75,12.5-15.21,21.44-15.21,21.44 s -15.7-4.85-25.29-13.69 a 35.13,35.13,0,0,1-6.69-8.2,38.71,38.71,0,0,0,3.19-8,7.82,7.82,0,0,0-5.46,2.54,8.3,8.3,0,0,0-1.69,5,49.72,49.72,0,0,0-11.68-2.2 c -6.75-.25-13.13,4.13-15.88,9.63 s -2.75,12.13,1.5,18.75 c -2.5,13.63.38,23.13,3.75,34 s .5,15.5-3.37,21.38 a 154,154,0,0,0-9.62,16.86 c 7.56,4.57,22.84,12.82,39.21,16,23.17,4.5,47.17,1.5,61-6.17 a 117.69,117.69,0,0,0,16.93-11.41 A 58,58,0,0,0,349.08,313.37Z" fill="param(main_colour)"/>
  </g>
  <g id="accent-colour-1">
    <path d="M 237.32,326.71 s 23.57,15.17,49.82,17.67,46.63-2.23,67.31-19.24 c 4.44,13.74,11.94,38.74,12.44,49.74 s -2.25,40.25,4,51.5 c -15.5,13.5-29.75,17.25-57.75,18.75 s -42.25-4-57.5-5.25-23.75.75-26.5,2.25 c 3-13.75-1-33-2.75-42.5 s -5-24.12,1-47.37Z" fill="param(accent_colour_1)"/>
  </g>
  <g id="fixed-colours">
    <circle cx="313.87" cy="348.38" r="1.92" fill="#ffcc50"/>
    <path d="M 302.37,277.75 l 6.5-26.5 s 13.38,10.38,16.25,25.38 C 321.5,286.75,310.87,298,310.87,298Z" fill="#fff"/>
  </g>
  <g id="outline">
    <path d="M 316.61,264.6 s -.69-2.09-1.6-4.55 a 19,19,0,0,0-4.27.72q.49,2.17.89,4.34 C 313.65,264.8,316.61,264.6,316.61,264.6Z"/>
    <path d="M 312.55,269.12 a 32.46,32.46,0,0,0-.92-4 s -2.66.43-4.18.74 a 39.55,39.55,0,0,1,.75,4.24 S 311.05,268.94,312.55,269.12Z"/>
    <path d="M 313.37,273.27 a 34.49,34.49,0,0,1,5.07-.26,20.62,20.62,0,0,0-.62-4.49 s -3.55.32-5.08.63 C 313.12,271,313.37,273.27,313.37,273.27Z"/>
    <path d="M 313.63,278 a 37.67,37.67,0,0,0-.26-4.73 c -1.67.3-4.55,1.21-4.55,1.21 a 28.71,28.71,0,0,1,.53,5 C 309.71,278.91,313.63,278,313.63,278Z"/>
    <path d="M 318.42,277.51 a 11,11,0,0,1,3.92.3,44.47,44.47,0,0,0,.22-4.54 c -1.37-.17-4.13-.26-4.13-.26 A 40.9,40.9,0,0,1,318.42,277.51Z"/>
    <path d="M 313.63,278q0,2.68-.08,5.35 a 28.2,28.2,0,0,1,4.23-.37 c .51-3.13.64-5.47.65-5.47 A 25.72,25.72,0,0,0,313.63,278Z"/>
    <path d="M 309.43,284.36 s -.15,2.22-.39,4.82 a 14.66,14.66,0,0,1,3.83-.67,48.78,48.78,0,0,0,.68-5.16 A 21.89,21.89,0,0,0,309.43,284.36Z"/>
    <path d="M 284.29,288.38 c 5.67,1.75,14.75.42,17.17-3.25 C 301.45,285.13,293,289,284.29,288.38Z"/>
    <circle cx="307.76" cy="299.96" r="1.13"/>
    <circle cx="307.59" cy="308.75" r="1.13"/>
    <circle cx="307.59" cy="317" r="1.13"/>
    <circle cx="307.59" cy="325.13" r="1.13"/>
    <circle cx="308.5" cy="332.75" r="1.13"/>
    <circle cx="309.52" cy="339.95" r="1.13"/>
    <path d="M 282.33,283.88 c 2.46-.7,11.05-4.57,11.05-4.57 s .86-6.83,1.55-14.37 c -12.37,1.14-18.34-2.27-18.34-2.27 l -2,13.46 A 60.14,60.14,0,0,0,282.33,283.88Z m -4.78-19.4 a 34.84,34.84,0,0,0,16.1,1.82q-.11.89-.22,1.78 c -1.49.83-5.91,3.2-8.64,3.75 a 39.5,39.5,0,0,1-7.65-4.73Z m -.62,3.85 a 53,53,0,0,0,7.56,4.72,55.29,55.29,0,0,0,8.74-3.41 c -.56,4.66-1,8.58-1,8.58 s -7.88,3.69-9.64,4.35 c -3.52-3.18-6.86-6.94-6.86-6.94Z"/>
    <path d="M 368.39,378.21 c -.83-16.67-9.67-44.5-12.5-52.92 a 65.29,65.29,0,0,0-5.62-13 c -3.69-6.31-6.75-9.06-7.81-12.62 s -.06-8.25,1.81-14.87 l 1.45-5.57 a 26.93,26.93,0,0,0,1.91-3.78,20.5,20.5,0,0,0,.42-15.92 c 0-.13-.11-.26-.16-.39 a 20.24,20.24,0,0,0-1.77-4.9,19.61,19.61,0,0,1,.55,2.55,44.15,44.15,0,0,0-8.79-9.93,71.11,71.11,0,0,1-7.08-6.67 s 5.08,6.42,7.08,8.5,5.33,5.42,7.17,9.58 l .17.43 a 24.66,24.66,0,0,1-10.53,5.21,65.31,65.31,0,0,1,2.09,12 l 7.51,1.83 c -3.44,5.65-6.39,8.11-12.75,10.34 a 16.84,16.84,0,0,0,11-4.82 c -.52,1.45-.95,2.52-1.17,3.26 a 45.34,45.34,0,0,0-1.69,6.56 c -.44,2.75-.25,6.25,2.5,11.38 s 6.88,8.13,11.31,20.38 c -6.06,4.5-15.81,12.75-32.75,16.69-2,.47-4.06.86-6.07,1.18-.49-1.72-2.4-9.21-2.76-21.49-.34-11.47-.28-20.09-.25-22.9,3-3,11.15-11.94,14.28-21.63-.91-6.65-4.42-12.66-8.06-17.32,5.76-8.32,10.39-17,12.1-31.85 a 18.1,18.1,0,0,1,7-.09 c -2.32-1.7-6-1.45-7.54-1.27 a 18,18,0,0,0-10-6.76,21.18,21.18,0,0,0,4.44,8.7 c -1.77,4.33-6.1,12.77-15.53,21.57 h 0 c -4.84-1.17-10.16-3.71-19.66-9.83 a 42.18,42.18,0,0,1-11.56-11.16 c .89-1.54,3.42-6.09,3.94-9-5.25,0-8.87,3.88-9,6.63 a 4.76,4.76,0,0,0,0,.73,67.34,67.34,0,0,0-6.91-1.54 c -4.44-.75-8.19-1.06-14,2.13 s -8.94,10.38-9,15.56 a 19.88,19.88,0,0,0,3.38,11 c -1.37,5.88-1.06,15.38-.25,19.94 a 159.06,159.06,0,0,0,4.88,19.56 c .3.88.66,2,1.06,3.24 a 24.93,24.93,0,0,1-1.12,5.76 c -1.5,4.75-9.25,11.94-14.19,24.31-3.83,8.81-13.17,31-13.33,47.31 s 3,26.33,4.67,37.33,1.17,27.83-.17,32.33 c 8.5-4.33,22.5-4,41.33-1 s 78.83,10.67,104.17-16.17 C 366.22,410.71,369.22,394.88,368.39,378.21Z M 336.74,266.12 a 13.66,13.66,0,0,0-.39-1.33,36.37,36.37,0,0,0,9.33-4.83,25.45,25.45,0,0,1,.8,3 l -2.1,3.44 A 45.28,45.28,0,0,1,336.74,266.12Z m 1.35,8.85 s -.43-4.44-1.11-7.76 c 1.36.08,5.22.28,7.94.21.61-.9,1.3-1.95,1.84-2.78 a 19.42,19.42,0,0,1-1.85,12.09Z m -13.21-49.84 s -.08.33-.28.92 c -.69-1.1-1.78-3.42-1.78-3.42 a 21.93,21.93,0,0,1,5.63,4.56 c -.44,14.45-9.5,28.09-11.57,31 a 62.81,62.81,0,0,0-7.13-7.29 C 311.92,248.71,325.92,234.12,324.89,225.13Z m -14.15,35.65q-.55-2.14-1.19-4.28 l -1,.1.51-2.15 c .17.68.35,1.36.51,2 l 3.57-.58.22.23q.87,2,1.67,3.91 l 1.52-.17 a 46.18,46.18,0,0,1,3.18,4.71,9.29,9.29,0,0,0-3.09,0 c .7,2,1.2,3.91,1.2,3.91 l 4,.06 c .25.54.49,1.1.72,1.67,0,1,.06,2,.06,3 l 1.11.2q.43,1.37.78,2.82 c -.21.65-.45,1.29-.7,1.93 l -1.41-.41q-.28,2.48-.68,4.95 l 0,.07 a 30.37,30.37,0,0,0-3.85.16q-.29,2.71-.73,5.41 l 1.25-.08 c -.59.87-1.18,1.7-1.75,2.46.17-.79.35-1.59.51-2.38 l -4.19.12q-.42,2.25-.93,4.5 h 2.87 c -1.87,2.31-3.23,3.68-3.22,3.68 l -.24-.44 c .21-1.08.42-2.15.59-3.23 l -2.38-.08-.74-1.44 c .14-1,.23-2.3.22-2.3 l -1.23.27 c -.61-1.26-1.23-2.62-1.84-4,1.25-.46,3.46-1,3.46-1 s .09-2.42-.08-4.86 c -1.21.28-4.16,1.33-5.07,1.66 l -.22-.63 c .11-1.44.2-2.88.26-4.32 l -.61.19.65-2.64 c 0,.66,0,1.47,0,2.45 a 15.86,15.86,0,0,1,4.51-1.73 c .37,0-.23-2.19-.44-4.35 a 13.3,13.3,0,0,0-3.47,1.41 l 1.31-5.34,1.23-.33 c -.16-.87-.34-1.73-.51-2.6 l .43-1.79 A 18.46,18.46,0,0,1,310.73,260.78Z m -32.85-38.52 A 15,15,0,0,1,276,227 c -.64-1-1-1.66-1-1.66.5,4.75,5.87,11.19,14.44,17.08 a 72.48,72.48,0,0,0,18.31,9 c -.49,1.84-1.31,5.09-2.33,9.44-3.26-1.91-17.56-10.58-24.18-19.52-7.5-10.12-7-11.62-7.75-14 C 274,223.63,276,222.25,277.89,222.25Z m -30.5,88.88 c 1.94-2.82,4.35-6.35,5.19-9.77,2.16,6.74,5,14.88,7.37,17.21-3.5-7.69-5.94-18.37-7.62-24.56 s -4.44-17-5.19-23.94 a 71.63,71.63,0,0,1,.56-16.31 c -3-2.81-4.12-9.56-3.19-13.31 a 17,17,0,0,1,9.94-12.12 c 6.24-2.8,14.61-.16,18.09.88,1.19,3.6,4.42,9.35,10.35,16.31,5.51,6.47,19.16,15.64,22.06,17.55-1,4.21-2.09,9.27-3.29,15,1.61,5.79,7.18,17.55,8.53,20.67-.07,3.18-.2,11.5.06,22.06 A 129.91,129.91,0,0,0,312.66,343 a 113.73,113.73,0,0,1-35.9-1.27 c -10.5-2-24.81-7.44-37.75-15.81 A 85.85,85.85,0,0,1,247.39,311.13Z M 238,328.32 c 14.08,8.16,29.28,15.23,49.1,17,20.83,1.83,40.5-1.67,51.58-8.08 A 122.73,122.73,0,0,0,354,326.84 c .46,1.51,1.15,3.82,2,6.64-8.63,9.06-34.79,23.12-69.47,19.24-31-3.47-48-13.86-51.93-16.53Q236.17,332.38,238,328.32Z m 90.52,114.22 a 187.47,187.47,0,0,1-46.17-.5 c -17-2.5-43-5.83-51.67-1.83,1.5-20.33-1.33-30.83-3.17-41.33-1.67-9.55-6.77-27.64,6.35-60.92,27,18.93,68.69,19.87,88.49,14.92 A 93.76,93.76,0,0,0,356.75,336 c 2.14,7.45,4.85,17.34,6.63,25.53,3.33,15.33,2.67,25.83,2.5,34.67 s .5,24.33,3.5,29.83 C 360.55,435.71,340.72,441.21,328.55,442.54Z"/>
    <path d="M 314,350.8 a 2.42,2.42,0,1,0-2.42-2.42 A 2.42,2.42,0,0,0,314,350.8Z m 0-3.83 a 1.42,1.42,0,1,1-1.42,1.42 A 1.42,1.42,0,0,1,314,347Z"/>
    <path d="M 293.64,418.88 c 19-7,33.5-21,40.25-36 C 333.89,382.88,317.89,406.13,293.64,418.88Z"/>
    <path d="M 330.39,410.88 c -11.25,10-26,14-26,14 C 313.14,424.63,325.89,418.63,330.39,410.88Z"/>
  </g>
<script type="text/ecmascript" xlink:href="param.min.js"/> 
</svg>
