<?xml version="1.0"?>
<svg xmlns="http://www.w3.org/2000/svg" xmlns:xlink="http://www.w3.org/1999/xlink" viewBox="0 0 600 600">
  <title>hourglass-top-template</title>
  <g id="main-colour">
    <path d="M 263.84,265 s 14.67-10.83,16.5-17 c -.33-9.83-1.83-20.17-1.83-20.17 l 2.67-.83 s 3.67,10.5,4.17,20.17 c 7.67,2,21.5,9,26,13.17,3.83-6,13-12.33,16.83-13.5-4.5-8.5-6.67-18.83-7.17-20.17 a 6.49,6.49,0,0,1,2-.5,129.93,129.93,0,0,0,5.67,13.67 c 2.5,4.67,8,15,7.17,27 s -1,22.67-5,30.67-10.5,18.5-10.33,24.67,6.33,13.67,9.83,17.67,12.17,16.33,16.33,31.83,10.67,32.67,23.83,41 a 37.93,37.93,0,0,1-25,22.83 c 1,2,1.83,3.83,1.83,3.83 a 24,24,0,0,0-16.5,0 c -8.5,3.33-12.67,8.33-20.67,8 A 33.24,33.24,0,0,1,293,442.21 c -4.5-2.67-10.5-2.83-18.83.33 s -13.83,3.67-22.67-.67-13-10.83-22.67-9.33 c 3.33-3.17,3-5.33,3-5.33 s -14.83-4.83-23-18.67 c 9.83-2,17.83-7.17,24.67-20.17 s 15-33.67,24.17-45.67,17-19,23.33-21.33 c 3.5-9.67,1.83-17.33-1.33-22 S 264.17,281.21,263.84,265Z" fill="param(main_colour)"/>
  </g>
  <g id="fixed-colours">
    <path d="M 256.5,357.21 s 6.5-8.67,10.67-13,10.17-11.33,11.5-10.5-8.5,17.5-11.17,24.17-5.67,18-5.67,18,7.83-18.5,13.83-29.83,10.33-19.83,10.5-23.67 c -1.5-.67-2.83-1.33-2.83-1.33 s -1.06,5-6.53,10.58-14.47,15.17-18.39,22Z" opacity="0.15"/>
    <path d="M 286,382.46 s 2.08-13.08,4-21.25,4.08-15.83,6.83-15.33,1.33,11.5,1.75,17.33,2.08,20.42,3.33,24.58 c -.75-13.58-.75-27.08-.67-35.25 s .5-20.25-1.83-25.58 c -2.25,3.92-8.58,20.25-10.83,32.33 A 170.74,170.74,0,0,0,286,382.46Z" opacity="0.15"/>
    <path d="M 322.25,363.71 a 68.65,68.65,0,0,0-.83-13.5 c -1.17-6.17,2.25-2.08,5.58,6.83-.58-4.33-4.17-14.25-12.58-23.83 C 316.34,338.21,321.42,356.46,322.25,363.71Z" opacity="0.15"/>
  </g>
  <g id="outline">
    <path d="M 334.46,250.25 c -2.6-6.21-7.95-15-11.07-25 a 5.69,5.69,0,0,0-3.12.75,81.82,81.82,0,0,0,7.1,20.57 c -8.67,3-16.26,12.68-16.26,12.68 s -7.77-7.37-25-12.37 c -1.5-12.37-3.42-18.54-4.92-21.17 a 35.44,35.44,0,0,1-3.71,1.42 s 2.38,11.75,2.13,21 c -5.75,9.13-14.62,15-17.12,15.75,0,0,1,14.13,7.38,23.5 a 135.21,135.21,0,0,0,8.5,11.63,22.57,22.57,0,0,1,3.38,16.63,23.47,23.47,0,0,1-1.87,5.63 s -11,4-22,19.5 S 239.27,374,234.27,384.5 s -12.37,20.5-27.37,23.75 c 5,9.38,18.13,17.63,24.63,19.5.63-1,.88-1.5.88-1.5 s -14-5.87-21-16.62 c 10.13-1.5,19.38-12.75,24-22.5 s 15.13-33.12,23.25-44,15.88-18,23.5-21.25 c 3.25-7.75,3.25-14.5,0-20.62 S 270.89,287,268.27,279.63 A 64.71,64.71,0,0,1,265,265.75 s 13.75-11.25,16.38-17.62 a 102.48,102.48,0,0,0-2.37-19.5 l 1.88-.62 s 2.55,7.17,3.92,19.54 c 12.88,4.75,15.91,6.46,26.79,13.83,5.67-9.5,17.68-14.28,17.68-14.28 s -5.62-10-7.4-19.72 c .63-.5,1-.37,1-.37 a 114.16,114.16,0,0,0,8.2,20.13 c 5.63,10.88,3.51,27.75,2.75,36.75-.83,9.83-8.2,21.88-9.57,24.25 s -4.87,10.25-5.12,13.5 a 31.89,31.89,0,0,0,8,15.88 c 3.63,4.13,13.63,17.88,16.38,28 s 8.5,28.63,13.88,36.38 A 37.84,37.84,0,0,0,369,413 s -4.12,15.5-24.12,22.13 c 0,0,.38,1.25.75,1.38 s 19.88-5.12,26.25-24.62 c -6.75-2.5-14.5-11.5-19-24.5 s -7.37-27.12-14-37.25-18.62-21.87-17.75-29.5,12.8-20.42,14.7-36.87 C 337.71,267.5,337.06,256.46,334.46,250.25Z"/>
    <path d="M 243.39,403.55 s -7.58,19.42-16.83,30 c 6.75-.42,9.67-.83,19.08,5.83 s 18.5,8.75,29.25,3.92,16.17-.67,22.75,2.42,18.08,4.67,26.08-1.58,18.83-6.25,26.17-2.83 c -4.17-7.67-7.83-12.5-11.08-17.33 a 62.08,62.08,0,0,1-7.5-16.25 c .33,7.42,5,15.17,6.92,18.42 s 6.42,9.75,7.08,11.75 c -6.42-2.5-15-.17-18.92,2.25 s -9,6.67-17.08,6.25 S 298,443.55,294.89,442 s -8.42-5.25-19.33-1.33-13.58,4.42-22.5.75 S 239.81,430.55,231.64,431 C 236.39,423,242.14,409.38,243.39,403.55Z"/>
    <path d="M 282,320.13 s 21.88,11.5,38.13,0 a 2.48,2.48,0,0,1-.12,1.5 s -13.12,10.88-38.25-.5 C 281.52,320.63,282,320.13,282,320.13Z"/>
    <path d="M 283.89,321.63 a 27.1,27.1,0,0,1-7.12,11 c -5.37,5-18.37,18.63-22.87,31.13,2.5-12.37,14.75-24.12,17.75-27.62 s 9.25-8.12,11.13-14.75 A 1.54,1.54,0,0,1,283.89,321.63Z"/>
    <path d="M 285.52,322.13 s -.75,6.75-8.12,19.5-15.25,30.88-17.62,39.25-3.25,22.38-3.25,22.38,1.75-17.37,7.38-30.87,17.5-34.75,19.38-39.37,3.5-10.25,3.5-10.25Z"/>
    <path d="M 298.77,325.63 a 166.1,166.1,0,0,0-9.87,28.25 c -3.37,14.38-3.62,33.63-3.87,44.25 a 115.07,115.07,0,0,1-2.87,21.38 s 4.13-13.25,3.88-25.62,2.38-31,4.38-40.25,9-24.75,9-24.75 a 54.3,54.3,0,0,1,1.38,16.88 c -.75,9.13-.25,36.13,1.5,48.13 s 8,25,10.5,29.13 c -3.12-7-8.62-20.25-9.75-33.37 a 304.79,304.79,0,0,1-.87-35.87 c .38-9,.25-24.87-1.75-28.12Z"/>
    <path d="M 309.39,325.38 s 7.25,14.5,10.5,28.63 a 243.2,243.2,0,0,1,4.5,26 s -1.62-27.62-8.62-44 c 4.13,4.88,9.47,14.81,10.63,19.38,1.88,7.38,4.5,17.38,8.63,20.63-2.5-3.5-5.5-11.75-7.25-19.75 s -7.5-19.5-17.12-31.12 A 3.87,3.87,0,0,0,309.39,325.38Z"/>
  </g>
<script type="text/ecmascript" xlink:href="param.min.js"/> 
</svg>
