<?xml version="1.0"?>
<svg xmlns="http://www.w3.org/2000/svg" xmlns:xlink="http://www.w3.org/1999/xlink" viewBox="0 0 600 600">
  <title>voluptuous-top-template</title>
  <g id="main-colour">
    <path d="M 247,277.21 s 19.33-.83,27.5-14,2-31.5-.17-35.33 a 12.16,12.16,0,0,0,3.67-3.67 s 17.73,26.92,41.11,45.54 c 6-18.67,6.39-43.37,6.39-43.37 s 3.5,1.17,5.67.5 c 0,5.83,3.67,14,8.67,19.33 s 14.23,15.71,11.27,26.29 c -1.44,5.17-5.67,8.44-8,12.75-2.51,4.65-3.06,10.26-2.11,13.46,1.83,6.17,11.5,17.83,19.17,35.17 s 12.17,34.33,8.67,79.5 S 362.66,507,382,531.55 c -5.33,7.83-24.17,17.67-24.17,17.67 l .83,2 s -28.83,16.67-68.5,10.67 c 1.67-3.17,1.67-3.67,1.67-3.67 S 271.49,559.55,258,554 a 11.34,11.34,0,0,0,2.17-3.83 S 243,549,235,542.88 c 2-2.5,2.17-4,2.17-4 s -8.83-1.17-19-10.67 c 9-11.17,15.67-26.5,15.5-47.67 s -5.83-53.83-8.5-69.83-1.5-50.17,11.5-81.17 c 6-16.17,15.67-25.5,15.5-31.5 S 247,277.21,247,277.21Z" fill="param(main_colour)"/>
  </g>
  <g id="accent-colour-1">
    <path d="M 321.68,320.28 l -3-.14 c .1-2,.26-4.29.44-6.7.45-6.17,1-13.85.89-23.21-.16-12.77-2.42-20.52-2.44-20.59 l 2.88-.86 c .1.33,2.39,8.19,2.56,21.41.12,9.49-.45,17.24-.9,23.47 C 321.93,316.16,321.77,318.31,321.68,320.28Z" fill="param(accent_colour_1)"/>
    <path d="M 337.62,315.06 c -5.17-7.49-7.52-24.47-2.8-35.13,4.25-9.61,5.18-14.34-2.07-25.93-5.56-8.89-5.72-26.06-5.73-26.79 l 3,0 c 0,.17.17,17,5.27,25.21,7.94,12.71,6.79,18.51,2.27,28.73-4.26,9.63-2.1,25.5,2.53,32.21Z" fill="param(accent_colour_1)"/>
    <path d="M 295.94,320.86 l -2.84-1 c 7.66-22.64,7.22-32.81,2.15-50.1 C 290,252,275.86,227.21,275.72,227 l 2.6-1.49 c .14.25,14.48,25.36,19.8,43.49 C 303.73,288.06,303.26,299.21,295.94,320.86Z" fill="param(accent_colour_1)"/>
    <path d="M 270.1,316.21 l -2.5-1.66 c 14.09-21.22-.19-43.46-.34-43.68 l 2.5-1.65 C 269.93,269.46,285.31,293.31,270.1,316.21Z" fill="param(accent_colour_1)"/>
    <path d="M 371.17,541 c -5.08-6.46-12.4-21.74-16.3-43.5-4.58-25.53-1.92-59.77.83-75.36 a 208.55,208.55,0,0,0,1.16-61.53 c -2.92-20.92-18.44-44.31-18.59-44.54 l 2.49-1.67 c .65,1,16.06,24.2,19.07,45.79 a 211.71,211.71,0,0,1-1.17,62.47 c -2.72,15.38-5.34,49.16-.83,74.31,5,27.94,14.62,40.8,15.7,42.17Z" fill="param(accent_colour_1)"/>
    <path d="M 327.56,561.06 c -.09-.38-9.21-38.27-9-60.86.17-23.12,2.26-55.72,4-76.61,1.78-21.34-2.36-84.06-3.67-102.77 l 3-.21 c 1.68,24.05,5.41,82.26,3.67,103.23 s -3.83,53.35-4,76.39 c -.16,22.22,8.87,59.76,9,60.14Z" fill="param(accent_colour_1)"/>
    <path d="M 272.73,557.79,270,556.63 l .38-.89 A 124,124,0,0,0,280,521 c 2.2-18.75-.83-45.43-4.33-76.32 A 304,304,0,0,1,277,364.15 C 280.2,344,291.86,321.93,292.36,321 l 2.65,1.41 c -.12.22-11.92,22.52-15,42.19 a 301.08,301.08,0,0,0-1.33,79.77 c 3.52,31.08,6.57,57.92,4.33,77 a 126.86,126.86,0,0,1-9.9,35.54Z" fill="param(accent_colour_1)"/>
    <path d="M 241.89,546.15 l -2.74-1.21 c .11-.24,10.76-24.49,12.55-41.22,1.74-16.26.39-30.07-5-51-7-27.18-7.5-53.45-1.68-82.67,6.08-30.56,15.42-44.62,19.9-51.38.71-1.08,1.33-2,1.77-2.76 l 2.59,1.52 c -.49.82-1.12,1.78-1.86,2.9 C 263.07,327,254,340.69,248,370.67 c -5.72,28.76-5.2,54.6,1.65,81.33,5.45,21.28,6.82,35.38,5,52 C 252.84,521.24,242.34,545.14,241.89,546.15Z" fill="param(accent_colour_1)"/>
  </g>
  <g id="outline">
    <path d="M 283,294.75 c 9.13,3.38,15.75.13,19.75-2.12-5.25,1.63-11.87,2.75-19.25.25 s -12.5-10-12.5-10 A 21,21,0,0,0,283,294.75Z"/>
    <path d="M 383.35,532.21 c -7.33-12.33-14-25.67-14.83-50.83 s 1-53.33,2.33-76.83,2.33-46.67-9-70.5-17-29-19.35-34.17,1.68-14.16,1.68-14.16,8.17-5.67,8.83-16-4.5-15.33-10.83-22.17 S 331.47,231.17,332,226 a 12.8,12.8,0,0,1-7.5-.87 s .42,16.21-5.58,42.54 c -13.79-10.42-38.71-38.79-41-45.62-1.67,3.17-3.67,5-4.92,5.33 A 33.94,33.94,0,0,1,277.67,244 c 0,9.25-.9,18.17-9.65,24.67 s -22.5,7.58-22.5,7.58,2.08,7,3.33,10.42,3.08,10.25,1.75,14.42-9.17,14.67-12.17,20.75-11.25,23.42-15.25,54.58,3,42.67,6.17,67.67,8,61.67-13.83,84.83 a 62.37,62.37,0,0,0,20,11.2 c -1.16,2.55-1.82,3.63-1.82,3.63 s 12.49,7.76,24.65,7.86 c -.59,1-1.19,2-1.82,3,8.74,5.16,28.32,5,33.63,4.88-.57,1.16-1.17,2.32-1.8,3.45,23.17,5.33,60.17-2.5,72-11.33-.33-.59-.65-1.21-1-1.82 C 363.51,548,377.29,541.65,383.35,532.21Z m -130.17-238 c -1.17-11.33-3-12-4.67-16,8.5-.17,22-5.5,27.83-15.83 s 2.58-27.73-.75-34.06 a 7.41,7.41,0,0,0,2.44-2.06 A 226,226,0,0,0,319.22,271 c 5.38-12,7.25-43.62,7.25-43.62 a 5.44,5.44,0,0,0,4,.13,33.83,33.83,0,0,0,10,21.38 c 5.59,5.45,10.17,12.33,9.83,20.67 S 342,284.38,342,284.38 c -3.67,9.17-3.17,13.67-.5,18.83.82,1.58,2.17,3.64,3.92,6.39-37.61,23.41-87.76,1.58-95.55-2.06 C 252.38,303.55,253.8,300.17,253.18,294.21Z m 105,253.15 A 152.78,152.78,0,0,1,344,497.54 c -2.17-20.5-.67-39.33,2.67-62 s 4.33-45.83.33-54.33 c 1.5,9.5,1.83,26.33-1.67,47.83 s -6.83,47.17-3.5,73.17,15.33,48.67,15.33,48.67-30.17,15.5-65,10 c 12.67-25,11.17-60.67,9.67-74 s -3.83-36.33-2.67-56.33 a 238.62,238.62,0,0,0-.5,48.17 c 2.32,23.21,3.91,53.46-7.47,78.48 A 72.74,72.74,0,0,1,260,553.54 c 7.5-11.67,10.67-38.33,9.67-54.83 s -9.33-53.67-4-95 a 173,173,0,0,0-3,46.83 c 2,25,6.17,36.67,4.5,62-1.29,19.57-3.87,29.19-7.36,36.24 a 42.94,42.94,0,0,1-23.14-6.08 c 8.67-17.83,20.33-51.17,9.33-79.33,0,0,6.17,24.67-.67,48.5 a 227.76,227.76,0,0,1-8.78,25.78 c -2.43-.88-11.55-4.38-16.72-9.11,9.67-12,14.5-29.83,15.17-45 s -3.5-44.5-6.17-59.17-5.17-27-2.5-48.17,7.83-39.33,14.83-54 a 97.29,97.29,0,0,1,7.5-12.8 c 5.6,2.84,28.38,13.47,55.67,13.47,25.86,0,38.68-8.19,42.45-11.13 A 192.49,192.49,0,0,1,362,341.54 c 9.5,23,6.17,56.33,5.17,71 s -3.67,52-1.33,73.67,6.33,33.67,14.33,45.67 C 374.17,539.57,362,545.61,358.17,547.36Z"/>
  </g>
<script type="text/ecmascript" xlink:href="param.min.js"/> 
</svg>
