<?xml version="1.0"?>
<svg xmlns="http://www.w3.org/2000/svg" xmlns:xlink="http://www.w3.org/1999/xlink" viewBox="0 0 215 215">
  <title>nurse-voluptuous</title>
  <g id="skin-tone">
    <g id="skin-tone-2" data-name="skin-tone">
      <path d="M 85.3,135.36 a 83.57,83.57,0,0,0,2.39,18.21 c 4.07,16.49,10.35,28.88,12.65,31.57 s 7.73,5.27,12.3,2.71,5.4-6.11,6.31-13.35,1.95-25.65,2.35-32.06 c .1-1.59.25-3.82.43-6.28 A 103,103,0,0,0,85.3,135.36Z" fill="param(skin_tone)"/>
    </g>
  </g>
  <g id="main-colour">
    <g id="main-colour-2" data-name="main-colour">
      <path d="M 128.36,137.46 c -.92-4-4.9-23.73-4.59-26.73 h 0 a 16.57,16.57,0,0,0-31.6-9.46 h 0 A 24.07,24.07,0,0,0,90,105.35 a 3.72,3.72,0,0,0-.33.69 C 88.21,110.3,80,135.38,79,137 c 1.33,2.17,6.42,3.33,6.42,3.33 l -.08-4.75 a 99.5,99.5,0,0,1,20.42-1.42,138,138,0,0,1,16,1.75 c -.18,1.15-.33,4.25-.33,4.25 S 127.19,139.13,128.36,137.46Z" fill="param(main_colour)"/>
    </g>
  </g>
  <g id="fixed-colours">
    <path d="M 83.26,126.7 s 11.08-3.75,20.83-3.42,16.17,2.17,21,4.75 c .75,2.17.92,2.92.92,2.92 s -11.42-4.67-22.58-4.25 a 111.46,111.46,0,0,0-21.33,3.08Z" fill="#fff"/>
  </g>
  <g id="outline">
    <path d="M 125.77,124.05 c -.67-2.41-2-13.32-2-13.32 s -.32,1.87-.75,4.62 c 0,0,.57,5.53,1.09,8.36.18,1,.39,2,.6,3-2.71-1.29-19.19-8.35-40.81-1,1.11-3.64,2.12-7.18,2.85-9.36,1.6-4.79,3.28-9.31,3.28-9.31 a 49.24,49.24,0,0,1,2.12-5.79,13.08,13.08,0,0,0-2.76,3,18.81,18.81,0,0,0-1.21,2.8 c -.47,1.49-2.94,8-3.67,10.37 S 81,131.31,77.89,137.24 a 13.52,13.52,0,0,0,6.32,3.51,84,84,0,0,0,2.39,13.73,131.84,131.84,0,0,0,11.55,29.19,11.08,11.08,0,0,0,20.83-2.3 c .05-.24.09-.48.13-.72 A 139.46,139.46,0,0,0,121,166 c .13-3.69.81-16,1.3-25.15,1.53-.43,5.48-1.69,7.14-3.22 C 127.61,135.21,126.44,126.46,125.77,124.05Z m -.63,4.56 c .12.53.24,1.07.37,1.6-3.32-1.57-18.81-7.83-42.65-1.13q.32-1,.64-2 C 84.6,126.68,107.48,119.24,125.14,128.61Z m -44.69,8.93 h 0q1.67-.54,3.49-.94.05,1.34.15,2.72 A 12.77,12.77,0,0,1,80.45,137.54Z m 38.31,28.71 h 0 c -.19,3.22-.47,6.25-.8,8.83-.21,1.63-.53,3.47-.77,4.74 a 4.07,4.07,0,0,1-.1.7 c 0,.23-.13.59-.19.85 A 9.08,9.08,0,0,1,100,183 l -.15-.24 c -1.73-2.89-9.63-20-12-32.74 a 103.18,103.18,0,0,1-1.53-13.87 c 11.5-2,25.84-.55,34.23.62 C 120.11,145.36,119,161.51,118.76,166.25Z M 80.39,135.94 c .66-1.52,1.36-3.48,2.06-5.6,3.66-1.14,22.91-6.43,43.39,1.12.44,1.67.91,3.34,1.42,5 C 101.37,130.45,84.47,134.7,80.39,135.94Z m 42,3.55.13-2.46 c 1.92.29,3.39.54,4.24.7 A 23,23,0,0,1,122.38,139.49Z"/>
  </g>
<script type="text/ecmascript" xlink:href="param.min.js"/> 
</svg>
