<?xml version="1.0"?>
<svg xmlns="http://www.w3.org/2000/svg" xmlns:xlink="http://www.w3.org/1999/xlink" viewBox="0 0 215 215">
  <title>midi-crew-neck-t-shirt-hourglass</title>
  <g id="skin-tone">
    <path d="M 117.14,123 a 42.52,42.52,0,0,0-22-.27,328.62,328.62,0,0,0,2.54,37.17 c 1.61,11.14,2.53,16.71,5.78,25.28,1.44,3.64,2.31,6.77,6,6.23 s 4.64-3.81,5.15-7.4,1.58-22.81,1.58-30.28-.09-24,.73-29.38 C 117,123.9,117.06,123.44,117.14,123Z" fill="param(skin_tone)"/>
  </g>
  <g id="main-colour">
    <path d="M 119,112.09 a 3.23,3.23,0,0,0-.17-.43 c 0-.16,0-.34,0-.5 a 12,12,0,0,0-18.84-13.24,12.39,12.39,0,0,0-4.3,11.92 c -.71,2.44-3.17,10.87-4.18,14.22 a 12.13,12.13,0,0,0,3.15,2.19V123 s .56-.2,1.58-.46 a 46.77,46.77,0,0,1,16.8-.5,38.27,38.27,0,0,1,4,1 c -.21,1.32-.3,2.2-.3,2.2 s 2.21-1.07,2.68-1.87 A 55.39,55.39,0,0,1,119,112.09Z" fill="param(main_colour)"/>
  </g>
  <g id="outline">
    <path d="M 120.48,110.73 a 12.24,12.24,0,0,0,.95-4.75,14,14,0,0,0-13.94-12.5 h 0 a 14,14,0,0,0-14,14.83 s 0,0,0,0 a 13.53,13.53,0,0,0,.43,3.27 h 0 a 93.69,93.69,0,0,1-3.26,12.8,11.36,11.36,0,0,0,3.13,2.28 c .14,5.87.54,13.13,1.53,21.93,2.69,24.16,4.85,32.3,8.16,39.62 a 6.5,6.5,0,0,0,.63,1.35 l .07.14,0,0 c .12.18.24.36.38.54 a 5.91,5.91,0,0,0,8.29,1,5.85,5.85,0,0,0,1.92-2.71 h 0 c .08-.28.16-.61.23-1,0,0,0-.1,0-.15.23-1.19.41-2.6.48-3.29.33-3.49,2.11-38.5,2-50.35 a 66.36,66.36,0,0,1,.53-8.44,14,14,0,0,0,2-1.8,59.06,59.06,0,0,1-.27-9.5 A 8.67,8.67,0,0,1,120.48,110.73Z M 92.65,124.21 l 1.12-.34 c 0,.35,0,.69,0,1 A 11.85,11.85,0,0,1,92.65,124.21Z m 22.49,34.19 c -.2,4.37-.67,12.92-.88,17.43-.09,1.87-.19,4.16-.34,6.37 a 41.55,41.55,0,0,1-.87,5.32,3.87,3.87,0,0,1-1.37,2.2,3.78,3.78,0,0,1-4.88,0 s -.21-.2-.23-.19 c -1-.81-2.61-4.62-2.83-5.15 a 95,95,0,0,1-4.5-18.23 c -1.31-9.91-3.47-36.32-3.37-42.77 a 48.89,48.89,0,0,1,20.49.09 c -.25,2.2-.45,4.15-.63,5.51 C 115,134.09,115.35,153.71,115.14,158.39Z m 3.09-46.54 s 0,.63-.07,1.6 a 20.42,20.42,0,0,0-.08,3.25 h 0 a 51.25,51.25,0,0,0,.26,6 c -11.49-3.78-22.23-.93-25.57.16,1.19-3.79,2-6.62,2.43-8.58 h 0v-.06 c .57-2.34.74-3.43.74-3.43 h 0 a 13,13,0,0,1-.41-3.36v-.86 c 0-.23,0-.46.06-.68,0-.05,0-.11,0-.16 h 0 a 12,12,0,0,1,23.77.23 C 119.54,107.95,118.83,109.67,118.23,111.86Z"/>
  </g>
<script type="text/ecmascript" xlink:href="param.min.js"/> 
</svg>
