<?xml version="1.0"?>
<svg xmlns="http://www.w3.org/2000/svg" xmlns:xlink="http://www.w3.org/1999/xlink" viewBox="0 0 600 600">
  <title>wedding-dress-curvy</title>
  <g id="main-colour">
    <path d="M 254.65,266.8 s 8.08,2.67,19.75-1.75,18.33-7.17,26.92-7.5,19.53,1.17,26.2,5.17 c 4-6.17,12.67-11,25.17-9.83,7.75,9.25,7.5,34-15.33,39.17-2.5,8.33-4.7,14.17-2.87,22.17 s 5.67,14.25,13.67,24.58,27,35,39.08,55.42,29,55.33,35.67,105.17 c 2.5,17.17,1.83,45.33,1.83,45.33 s -3.83,7-16,7.33 c -.83,5.67-1.17,11-1.17,11 s -3.33,5.5-12.83,6.83-18,1-20.67,5 c .5,6.5.5,7.67.5,7.67 a 46,46,0,0,0-17,6.83 c -9.17,5.83-17.17,7.17-27,6 s -24.83-7.17-31.67-3.5 c -.83-4.33-1-5.83-1-5.83 s -6-3.67-20.17-2.83-28.17-3.33-32-8.67 c -1-5.5-1.33-7.17-1.33-7.17 s -8.83-3.83-14.33-3.83-18,1.33-22.67-6.33 c -1.67-9.83-2-10.33-2-10.33 a 24,24,0,0,0-6.17-1.17 c -2.67,0-7.67-1.33-8.33-4.17 s -5.17-39.17-.83-67.17,16.17-74.33,36-106,34.5-44,38-50.83,4.33-14.5,1.5-19.33 S 254.4,279,254.65,266.8Z" fill="param(main_colour)"/>
  </g>
  <g id="accent-colour-1">
    <circle cx="279.85" cy="226.05" r="2.58" fill="param(accent_colour_1)"/>
    <circle cx="275.1" cy="229.61" r="2.58" fill="param(accent_colour_1)"/>
    <circle cx="280.1" cy="232.48" r="2.58" fill="param(accent_colour_1)"/>
    <circle cx="284.22" cy="229.11" r="2.58" fill="param(accent_colour_1)"/>
    <circle cx="289.28" cy="231.11" r="2.58" fill="param(accent_colour_1)"/>
    <circle cx="294.28" cy="233.36" r="2.58" fill="param(accent_colour_1)"/>
    <circle cx="285.35" cy="234.98" r="2.58" fill="param(accent_colour_1)"/>
    <circle cx="291.03" cy="237.3" r="2.58" fill="param(accent_colour_1)"/>
    <circle cx="296.35" cy="238.61" r="2.58" fill="param(accent_colour_1)"/>
    <circle cx="299.85" cy="234.3" r="2.58" fill="param(accent_colour_1)"/>
    <circle cx="302.28" cy="239.42" r="2.58" fill="param(accent_colour_1)"/>
    <circle cx="305.41" cy="235.23" r="2.58" fill="param(accent_colour_1)"/>
    <circle cx="310.66" cy="233.42" r="2.58" fill="param(accent_colour_1)"/>
    <circle cx="315.22" cy="230.98" r="2.58" fill="param(accent_colour_1)"/>
    <circle cx="319.16" cy="226.73" r="2.58" fill="param(accent_colour_1)"/>
    <circle cx="322.6" cy="230.61" r="2.58" fill="param(accent_colour_1)"/>
    <circle cx="318.53" cy="234.67" r="2.58" fill="param(accent_colour_1)"/>
    <circle cx="313.47" cy="237.76" r="2.58" fill="param(accent_colour_1)"/>
    <circle cx="307.72" cy="240.48" r="2.58" fill="param(accent_colour_1)"/>
    <circle cx="312.69" cy="243.23" r="2.58" fill="param(accent_colour_1)"/>
    <circle cx="318.41" cy="240.39" r="2.58" fill="param(accent_colour_1)"/>
    <circle cx="317.38" cy="245.42" r="2.58" fill="param(accent_colour_1)"/>
    <path d="M 328.18,262 s 3.33,6.5-2.17,28-9.83,42.17-7.5,52.67 a 2.36,2.36,0,0,1-1.83.83 s -2.81-5.83,2.52-30.83 c 5.43-25.46,11.48-40.67,7-50.5 A 4.64,4.64,0,0,1,328.18,262Z" fill="param(accent_colour_1)"/>
    <path d="M 337.68,255 s 4.83,9-.83,26.33-12.17,37.67-9.17,45.33 l 1.33-1.17 s -2.33-5,3.33-24.5,12.5-31.83,6.67-46.67 A 9.06,9.06,0,0,1,337.68,255Z" fill="param(accent_colour_1)"/>
    <path d="M 349,253.21 s 6,16.83-4.17,36 a 11.51,11.51,0,0,0,1.67-.83 s 9.67-13.5,3.83-35.17 C 349.85,252.71,349,253.21,349,253.21Z" fill="param(accent_colour_1)"/>
    <path d="M 309.51,258.38 s 6.83,20.33,3.17,35.67 c -5.12,21.4-8.17,38.83-8.17,38.83 l -1.17-.5 s 1.91-13.94,5-27 c 3.19-13.5,6.5-27.33-.83-47.33 A 6.22,6.22,0,0,1,309.51,258.38Z" fill="param(accent_colour_1)"/>
    <path d="M 287.85,261 s 5,22.53,7.33,37 a 46.48,46.48,0,0,1-4,28.17 l -1.83-.17 s 6.33-13.67,4.5-27-6.1-23.54-7.67-37.5 C 287,260,287.85,261,287.85,261Z" fill="param(accent_colour_1)"/>
    <path d="M 267.68,267.21 a 105.65,105.65,0,0,0,9.33,26.5 c 8.64,16.43-.67,29.33-.67,29.33 h -2 s 6.17-9.83,4.5-19.17 c -1.94-10.84-11.5-19.67-12.67-36.5Z" fill="param(accent_colour_1)"/>
    <circle cx="267.93" cy="272.7" r="2.19" fill="param(accent_colour_1)"/>
    <circle cx="271.21" cy="284.28" r="2.19" fill="param(accent_colour_1)"/>
    <circle cx="275.87" cy="296.28" r="2.19" fill="param(accent_colour_1)"/>
    <circle cx="279.8" cy="306.96" r="2.19" fill="param(accent_colour_1)"/>
    <circle cx="277.31" cy="318.63" r="2.19" fill="param(accent_colour_1)"/>
    <circle cx="293.57" cy="314.19" r="2.19" fill="param(accent_colour_1)"/>
    <circle cx="294.42" cy="301.33" r="2.19" fill="param(accent_colour_1)"/>
    <circle cx="292.44" cy="288.16" r="2.19" fill="param(accent_colour_1)"/>
    <circle cx="289.48" cy="274.58" r="2.19" fill="param(accent_colour_1)"/>
    <circle cx="310.2" cy="264.2" r="2.19" fill="param(accent_colour_1)"/>
    <circle cx="312.57" cy="278" r="2.19" fill="param(accent_colour_1)"/>
    <circle cx="311.64" cy="293" r="2.19" fill="param(accent_colour_1)"/>
    <circle cx="308.82" cy="305.28" r="2.19" fill="param(accent_colour_1)"/>
    <circle cx="305.82" cy="321.37" r="2.19" fill="param(accent_colour_1)"/>
    <circle cx="319.99" cy="313.53" r="2.19" fill="param(accent_colour_1)"/>
    <circle cx="317.07" cy="329.44" r="2.19" fill="param(accent_colour_1)"/>
    <circle cx="323.43" cy="297.81" r="2.19" fill="param(accent_colour_1)"/>
    <circle cx="326.01" cy="284.48" r="2.19" fill="param(accent_colour_1)"/>
    <circle cx="328.35" cy="269.81" r="2.19" fill="param(accent_colour_1)"/>
    <circle cx="339.6" cy="260.31" r="2.19" fill="param(accent_colour_1)"/>
    <circle cx="351.18" cy="267.9" r="2.19" fill="param(accent_colour_1)"/>
    <circle cx="348.68" cy="281.23" r="2.19" fill="param(accent_colour_1)"/>
    <circle cx="339.1" cy="276.23" r="2.19" fill="param(accent_colour_1)"/>
    <circle cx="334.26" cy="290.9" r="2.19" fill="param(accent_colour_1)"/>
    <circle cx="330.18" cy="305.73" r="2.19" fill="param(accent_colour_1)"/>
    <circle cx="327.43" cy="320.06" r="2.19" fill="param(accent_colour_1)"/>
  </g>
  <g id="outline">
    <path d="M 426.4,523.54 c -.67-28.33-9.83-72.5-22-99.83 s -32.12-57-39.62-66.33-21-24.62-26.75-35.5 c -4.93-9.33-3.15-19.68,0-29.06 a 17.06,17.06,0,0,0,7.34-2.52 c 10.92-6.67,13.5-15.67,13.17-24.42 A 21.77,21.77,0,0,0,353,252 c -19.25-1.87-26.12,9.38-26.12,9.38 s -9-5-24.7-4.87 c -10.5.08-18.5,4.5-30,8.13 s -18.62.88-18.62.88 c .63,13.79,5.71,22.71,9.88,30.54 s 3.5,14.17.33,19.83-20.5,24.17-30.5,38.67-29.33,49.33-39.17,92-9.17,65.83-4.17,96.33 a 16,16,0,0,0,8.67,4.17,21.05,21.05,0,0,1,5.87,1.61q.64,4.62,1.46,9.22 c 6.25,7.25,14,6.75,21.25,6.75,6,0,13.19,2.74,16.2,4.53.18,2.22.36,4.46.55,6.72,13,9.75,23.75,9.5,31.75,8.75,7.26-.68,15.94.29,21.23,2.9.47,3.82.77,5.85.77,5.85 s 9-2.75,17.25.25,25.75,7.5,39-.5,19-8.75,21.75-8.25 c 0-2.95,0-6,0-9.25,2.09-1.59,6.84-3.39,16.49-4,11.75-.75,16.75-8.25,16.75-8.25 s .39-4.05.73-9.78 c 1.21-.27,3.2-.67,6.43-1.22,6.83-1.17,10.17-7.83,10.17-7.83 A 130.52,130.52,0,0,0,426.4,523.54Z M 267.77,303.13 a 34,34,0,0,1,3.13,11.63 c .63-2.37-1-11.5-5.87-19.62 s -8.5-17-9.37-27 c 13.13,2.13,25.29-4.9,35-7.62,11.57-3.25,27.82-1.75,36.82,3.13 a 25.93,25.93,0,0,1,24.13-9.5 s 7.5,8.08,3.33,21.08 a 23.5,23.5,0,0,1-18.08,16 c 0-.06,0-.11,0-.17v-.24 a 2.51,2.51,0,0,0-2.5-2.5 h -.24 a 2.51,2.51,0,0,0-2.5,2.5v.24 a 2.51,2.51,0,0,0,2.5,2.5 h .24 a 2.48,2.48,0,0,0,1.7-.68 c -2.66,8.27-3.47,15.65-3,20.1 a 25.42,25.42,0,0,0,2,7 c -10.08,5.69-17.8,22.71-17.8,22.71 s -8.83-12.5-27.5-17.33 c -14.4-3.73-24.33-3.19-28.12-2.75 C 266.06,317.2,269.3,311.61,267.77,303.13Z M 336,290.88V291 a 1.69,1.69,0,0,1-1.69,1.69 h -.17 a 1.69,1.69,0,0,1-1.69-1.69v-.17 a 1.69,1.69,0,0,1,1.69-1.69 h .17 A 1.69,1.69,0,0,1,336,290.88Z m 87.55,253 c -1,2.5-5.33,5.33-7.33,5.83-1.38.35-4.6.93-6.45,1.26.27-5.08.47-11.05.37-16.59 a 284.21,284.21,0,0,0-24.75-114 c -16.5-36.25-49-80.5-49-80.5 s 31.75,50.75,42.25,73.25,23,59.5,26.25,91.25 a 370.77,370.77,0,0,1,1.25,58.5 s -8.75,6.5-17.75,6.25 a 27.75,27.75,0,0,0-12.76,2.65 c -.32-32.08-2.87-75.11-12.49-114.9-11-45.5-28-89.75-38.75-104.75,12.5,27.75,21,48.25,34,98.75 s 13.25,98,14.25,130.25 c -8,1-18.25,8-22.25,10 s -15.25,4.5-25,1.75-19.5-5.25-24.75-3 c -3.25-36.25-4.5-61.25-4.75-100 s 6-99.75,14.5-137 c 0,0-16,53.5-18,123 a 781.07,781.07,0,0,0,4.08,108.32 c -2.48-1.08-9.86-3.72-20.33-2.32 a 38.8,38.8,0,0,1-29-8 c -1.25-21.25-4.5-38.5-1.25-83 s 12.5-77.25,41-145 c 0,0-27.5,49-37.75,99.25-9.44,46.27-9.12,80.67-6.09,120.38-2.85-1.46-9.12-4.18-15.41-3.63-8.5.75-13.75-1.25-19-5.5-3-26-5.5-48.75,1.25-90.75 s 27.25-81,33-92.5,21.83-35.42,21.83-35.42-25.17,27.83-42.67,74 c -16,42.31-23.6,88.88-18,133.89-2.84-1-6.42-.34-11.32-4.05-5-26.83-4-57.17,3.17-90 s 19.88-62.79,31.63-82.67 c 10.81-18.28,25.73-36.34,31.85-43.59,30.91-3.11,49.29,10.2,58.53,20.76 a 62.06,62.06,0,0,1,18-24.16 c 3.11,6.65,8.76,15.31,17.2,25.16,13,15.17,34.83,50,41,61.5 s 17.83,38.83,23.5,67.33 S 424.23,524.71,423.56,543.88Z"/>
    <path d="M 301.71,297 a 29.87,29.87,0,0,1-24-9 S 284.42,301.87,301.71,297Z"/>
    <path d="M 289.82,288v.24 a 2.51,2.51,0,0,0,2.5,2.5 h .24 a 2.51,2.51,0,0,0,2.5-2.5V288 a 2.51,2.51,0,0,0-2.5-2.5 h -.24 A 2.51,2.51,0,0,0,289.82,288Z m .85,0 a 1.69,1.69,0,0,1,1.69-1.69 h .17 a 1.69,1.69,0,0,1,1.69,1.69v.17 a 1.69,1.69,0,0,1-1.69,1.69 h -.17 a 1.69,1.69,0,0,1-1.69-1.69Z"/>
    <path d="M 289.48,277.23 h .24 a 2.51,2.51,0,0,0,2.5-2.5v-.24 a 2.51,2.51,0,0,0-2.5-2.5 h -.24 a 2.51,2.51,0,0,0-2.5,2.5v.24 A 2.51,2.51,0,0,0,289.48,277.23Z m -1.65-2.7 a 1.69,1.69,0,0,1,1.69-1.69 h .17 a 1.69,1.69,0,0,1,1.69,1.69v.17 a 1.69,1.69,0,0,1-1.69,1.69 h -.17 a 1.69,1.69,0,0,1-1.69-1.69Z"/>
    <path d="M 293.85,311.64 h -.24 a 2.51,2.51,0,0,0-2.5,2.5v.24 a 2.51,2.51,0,0,0,2.5,2.5 h .24 a 2.51,2.51,0,0,0,2.5-2.5v-.24 A 2.51,2.51,0,0,0,293.85,311.64Z m 1.65,2.7 a 1.69,1.69,0,0,1-1.69,1.69 h -.17 a 1.69,1.69,0,0,1-1.69-1.69v-.17 a 1.69,1.69,0,0,1,1.69-1.69 h .17 a 1.69,1.69,0,0,1,1.69,1.69Z"/>
    <path d="M 279.9,304.38 h -.24 a 2.51,2.51,0,0,0-2.5,2.5v.24 a 2.51,2.51,0,0,0,2.5,2.5 h .24 a 2.51,2.51,0,0,0,2.5-2.5v-.24 A 2.51,2.51,0,0,0,279.9,304.38Z m 1.65,2.7 a 1.69,1.69,0,0,1-1.69,1.69 h -.17 a 1.69,1.69,0,0,1-1.69-1.69v-.17 a 1.69,1.69,0,0,1,1.69-1.69 h .17 a 1.69,1.69,0,0,1,1.69,1.69Z"/>
    <path d="M 273.23,296.45 a 2.51,2.51,0,0,0,2.5,2.5 H 276 a 2.51,2.51,0,0,0,2.5-2.5v-.24 a 2.51,2.51,0,0,0-2.5-2.5 h -.24 a 2.51,2.51,0,0,0-2.5,2.5Z m .85-.2 a 1.69,1.69,0,0,1,1.69-1.69 h .17 a 1.69,1.69,0,0,1,1.69,1.69v.17 a 1.69,1.69,0,0,1-1.69,1.69 h -.17 a 1.69,1.69,0,0,1-1.69-1.69Z"/>
    <path d="M 271.35,286.88 a 2.51,2.51,0,0,0,2.5-2.5v-.24 a 2.51,2.51,0,0,0-2.5-2.5 h -.24 a 2.51,2.51,0,0,0-2.5,2.5v.24 a 2.51,2.51,0,0,0,2.5,2.5Z m -1.89-2.54v-.17 a 1.69,1.69,0,0,1,1.69-1.69 h .17 a 1.69,1.69,0,0,1,1.69,1.69v.17 a 1.69,1.69,0,0,1-1.69,1.69 h -.17 A 1.69,1.69,0,0,1,269.45,284.34Z"/>
    <path d="M 270.58,272.92v-.24 a 2.51,2.51,0,0,0-2.5-2.5 h -.24 a 2.51,2.51,0,0,0-2.5,2.5v.24 a 2.51,2.51,0,0,0,2.5,2.5 h .24 A 2.51,2.51,0,0,0,270.58,272.92Z m -.85,0 a 1.69,1.69,0,0,1-1.69,1.69 h -.17 a 1.69,1.69,0,0,1-1.69-1.69v-.17 a 1.69,1.69,0,0,1,1.69-1.69 H 268 a 1.69,1.69,0,0,1,1.69,1.69Z"/>
    <path d="M 294.58,298.65 h -.24 a 2.51,2.51,0,0,0-2.5,2.5v.24 a 2.51,2.51,0,0,0,2.5,2.5 h .24 a 2.51,2.51,0,0,0,2.5-2.5v-.24 A 2.51,2.51,0,0,0,294.58,298.65Z m 1.65,2.7 a 1.69,1.69,0,0,1-1.69,1.69 h -.17 a 1.69,1.69,0,0,1-1.69-1.69v-.17 a 1.69,1.69,0,0,1,1.69-1.69 h .17 a 1.69,1.69,0,0,1,1.69,1.69Z"/>
    <path d="M 310,266.9 h .24 a 2.51,2.51,0,0,0,2.5-2.5v-.24 a 2.51,2.51,0,0,0-2.5-2.5 H 310 a 2.51,2.51,0,0,0-2.5,2.5v.24 A 2.51,2.51,0,0,0,310,266.9Z m -1.65-2.7 A 1.69,1.69,0,0,1,310,262.5 h .17 a 1.69,1.69,0,0,1,1.69,1.69v.17 a 1.69,1.69,0,0,1-1.69,1.69 H 310 a 1.69,1.69,0,0,1-1.69-1.69Z"/>
    <path d="M 277.53,316 h -.24 a 2.51,2.51,0,0,0-2.5,2.5v.24 a 2.51,2.51,0,0,0,2.5,2.5 h .24 a 2.51,2.51,0,0,0,2.5-2.5v-.24 A 2.51,2.51,0,0,0,277.53,316Z m 1.65,2.7 a 1.69,1.69,0,0,1-1.69,1.69 h -.17 a 1.69,1.69,0,0,1-1.69-1.69v-.17 a 1.69,1.69,0,0,1,1.69-1.69 h .17 a 1.69,1.69,0,0,1,1.69,1.69Z"/>
    <path d="M 314.46,329.54 A 2.51,2.51,0,0,0,317,332 h .24 a 2.51,2.51,0,0,0,2.5-2.5v-.24 a 2.51,2.51,0,0,0-2.5-2.5 H 317 a 2.51,2.51,0,0,0-2.5,2.5Z m .85-.2 a 1.69,1.69,0,0,1,1.69-1.69 h .17 a 1.69,1.69,0,0,1,1.69,1.69v.17 a 1.69,1.69,0,0,1-1.69,1.69 H 317 a 1.69,1.69,0,0,1-1.69-1.69Z"/>
    <path d="M 305.71,324 h .24 a 2.51,2.51,0,0,0,2.5-2.5v-.24 a 2.51,2.51,0,0,0-2.5-2.5 h -.24 a 2.51,2.51,0,0,0-2.5,2.5v.24 A 2.51,2.51,0,0,0,305.71,324Z m -1.65-2.7 a 1.69,1.69,0,0,1,1.69-1.69 h .17 a 1.69,1.69,0,0,1,1.69,1.69v.17 a 1.69,1.69,0,0,1-1.69,1.69 h -.17 a 1.69,1.69,0,0,1-1.69-1.69Z"/>
    <path d="M 311.78,290.3 h -.24 a 2.51,2.51,0,0,0-2.5,2.5V293 a 2.51,2.51,0,0,0,2.5,2.5 h .24 a 2.51,2.51,0,0,0,2.5-2.5v-.24 A 2.51,2.51,0,0,0,311.78,290.3Z m 1.65,2.7 a 1.69,1.69,0,0,1-1.69,1.69 h -.17 a 1.69,1.69,0,0,1-1.69-1.69v-.17 a 1.69,1.69,0,0,1,1.69-1.69 h .17 a 1.69,1.69,0,0,1,1.69,1.69Z"/>
    <path d="M 323.23,300.38 h .24 a 2.51,2.51,0,0,0,2.5-2.5v-.24 a 2.51,2.51,0,0,0-2.5-2.5 h -.24 a 2.51,2.51,0,0,0-2.5,2.5v.24 A 2.51,2.51,0,0,0,323.23,300.38Z m -1.65-2.7 a 1.69,1.69,0,0,1,1.69-1.69 h .17 a 1.69,1.69,0,0,1,1.69,1.69v.17 a 1.69,1.69,0,0,1-1.69,1.69 h -.17 a 1.69,1.69,0,0,1-1.69-1.69Z"/>
    <path d="M 330.06,303.14 a 2.51,2.51,0,0,0-2.5,2.5v.24 a 2.51,2.51,0,0,0,2.5,2.5 h .24 a 2.51,2.51,0,0,0,2.5-2.5v-.24 a 2.51,2.51,0,0,0-2.5-2.5Z m 1.89,2.54v.17 a 1.69,1.69,0,0,1-1.69,1.69 h -.17 a 1.69,1.69,0,0,1-1.69-1.69v-.17 A 1.69,1.69,0,0,1,330.1,304 h .17 A 1.69,1.69,0,0,1,332,305.67Z"/>
    <path d="M 339.55,262.92 h .24 a 2.51,2.51,0,0,0,2.5-2.5v-.24 a 2.51,2.51,0,0,0-2.5-2.5 h -.24 a 2.51,2.51,0,0,0-2.5,2.5v.24 A 2.51,2.51,0,0,0,339.55,262.92Z m -1.65-2.7 a 1.69,1.69,0,0,1,1.69-1.69 h .17 a 1.69,1.69,0,0,1,1.69,1.69v.17 a 1.69,1.69,0,0,1-1.69,1.69 h -.17 a 1.69,1.69,0,0,1-1.69-1.69Z"/>
    <path d="M 319.79,316.25 H 320 a 2.51,2.51,0,0,0,2.5-2.5v-.24 A 2.51,2.51,0,0,0,320,311 h -.24 a 2.51,2.51,0,0,0-2.5,2.5v.24 A 2.51,2.51,0,0,0,319.79,316.25Z m -1.65-2.7 a 1.69,1.69,0,0,1,1.69-1.69 H 320 a 1.69,1.69,0,0,1,1.69,1.69v.17 A 1.69,1.69,0,0,1,320,315.4 h -.17 a 1.69,1.69,0,0,1-1.69-1.69Z"/>
    <path d="M 327.77,317.49 h -.24 A 2.51,2.51,0,0,0,325,320v.24 a 2.51,2.51,0,0,0,2.5,2.5 h .24 a 2.51,2.51,0,0,0,2.5-2.5V320 A 2.51,2.51,0,0,0,327.77,317.49Z m 1.65,2.7 a 1.69,1.69,0,0,1-1.69,1.69 h -.17 a 1.69,1.69,0,0,1-1.69-1.69V320 a 1.69,1.69,0,0,1,1.69-1.69 h .17 a 1.69,1.69,0,0,1,1.69,1.69Z"/>
    <path d="M 325.84,286.92 h .24 a 2.51,2.51,0,0,0,2.5-2.5v-.24 a 2.51,2.51,0,0,0-2.5-2.5 h -.24 a 2.51,2.51,0,0,0-2.5,2.5v.24 A 2.51,2.51,0,0,0,325.84,286.92Z m -1.65-2.7 a 1.69,1.69,0,0,1,1.69-1.69 H 326 a 1.69,1.69,0,0,1,1.69,1.69v.17 a 1.69,1.69,0,0,1-1.69,1.69 h -.17 a 1.69,1.69,0,0,1-1.69-1.69Z"/>
    <path d="M 308.73,307.88 H 309 a 2.51,2.51,0,0,0,2.5-2.5v-.24 a 2.51,2.51,0,0,0-2.5-2.5 h -.24 a 2.51,2.51,0,0,0-2.5,2.5v.24 A 2.51,2.51,0,0,0,308.73,307.88Z m -1.65-2.7 a 1.69,1.69,0,0,1,1.69-1.69 h .17 a 1.69,1.69,0,0,1,1.69,1.69v.17 a 1.69,1.69,0,0,1-1.69,1.69 h -.17 a 1.69,1.69,0,0,1-1.69-1.69Z"/>
    <path d="M 328.19,272.4 h .24 a 2.51,2.51,0,0,0,2.5-2.5v-.24 a 2.51,2.51,0,0,0-2.5-2.5 h -.24 a 2.51,2.51,0,0,0-2.5,2.5v.24 A 2.51,2.51,0,0,0,328.19,272.4Z m -1.65-2.7 a 1.69,1.69,0,0,1,1.69-1.69 h .17 a 1.69,1.69,0,0,1,1.69,1.69v.17 a 1.69,1.69,0,0,1-1.69,1.69 h -.17 a 1.69,1.69,0,0,1-1.69-1.69Z"/>
    <path d="M 338.94,278.88 h .24 a 2.51,2.51,0,0,0,2.5-2.5v-.24 a 2.51,2.51,0,0,0-2.5-2.5 h -.24 a 2.51,2.51,0,0,0-2.5,2.5v.24 A 2.51,2.51,0,0,0,338.94,278.88Z m -1.65-2.7 a 1.69,1.69,0,0,1,1.69-1.69 h .17 a 1.69,1.69,0,0,1,1.69,1.69v.17 a 1.69,1.69,0,0,1-1.69,1.69 H 339 a 1.69,1.69,0,0,1-1.69-1.69Z"/>
    <path d="M 351.16,270.54 h .24 a 2.51,2.51,0,0,0,2.5-2.5v-.24 a 2.51,2.51,0,0,0-2.5-2.5 h -.24 a 2.51,2.51,0,0,0-2.5,2.5V268 A 2.51,2.51,0,0,0,351.16,270.54Z m -1.65-2.7 a 1.69,1.69,0,0,1,1.69-1.69 h .17 a 1.69,1.69,0,0,1,1.69,1.69V268 a 1.69,1.69,0,0,1-1.69,1.69 h -.17 a 1.69,1.69,0,0,1-1.69-1.69Z"/>
    <path d="M 348.49,283.88 h .24 a 2.51,2.51,0,0,0,2.5-2.5v-.24 a 2.51,2.51,0,0,0-2.5-2.5 h -.24 a 2.51,2.51,0,0,0-2.5,2.5v.24 A 2.51,2.51,0,0,0,348.49,283.88Z m -1.65-2.7 a 1.69,1.69,0,0,1,1.69-1.69 h .17 a 1.69,1.69,0,0,1,1.69,1.69v.17 a 1.69,1.69,0,0,1-1.69,1.69 h -.17 a 1.69,1.69,0,0,1-1.69-1.69Z"/>
    <path d="M 312.45,275.34 a 2.51,2.51,0,0,0-2.5,2.5v.24 a 2.51,2.51,0,0,0,2.5,2.5 h .24 a 2.51,2.51,0,0,0,2.5-2.5v-.24 a 2.51,2.51,0,0,0-2.5-2.5Z m 1.89,2.54V278 a 1.69,1.69,0,0,1-1.69,1.69 h -.17 A 1.69,1.69,0,0,1,310.8,278v-.17 a 1.69,1.69,0,0,1,1.69-1.69 h .17 A 1.69,1.69,0,0,1,314.35,277.88Z"/>
    <path d="M 275,232.64 h .27 a 2.81,2.81,0,0,0,1.95-.79,2.8,2.8,0,0,0-.05.52v.27 a 2.84,2.84,0,0,0,2.83,2.83 h .27 a 2.83,2.83,0,0,0,2.29-1.19,2.81,2.81,0,0,0-.06.58v.27 A 2.84,2.84,0,0,0,285.3,238 h .27 a 2.82,2.82,0,0,0,2.43-1.41,2.78,2.78,0,0,0,0,.41v.27 a 2.84,2.84,0,0,0,2.83,2.83 h .27 a 2.83,2.83,0,0,0,2.42-1.38,2.84,2.84,0,0,0,2.83,2.82 h .27 a 2.83,2.83,0,0,0,2.64-1.85,2.83,2.83,0,0,0,2.82,2.77 h .27 a 2.83,2.83,0,0,0,2.47-1.49,2.83,2.83,0,0,0,2.79,2.4 h .27 a 2.81,2.81,0,0,0,1.87-.72v0 l 0,.27 a 2.84,2.84,0,0,0,2.63,3 l .27,0 a 2.8,2.8,0,0,0,1.72-.45,2.83,2.83,0,0,0,2.62,2.84 l .27,0 a 2.84,2.84,0,0,0,3-2.63 l 0-.27 a 2.83,2.83,0,0,0-1.13-2.45,2.83,2.83,0,0,0,2.13-2.54 l 0-.27 a 2.83,2.83,0,0,0-1.64-2.75,2.83,2.83,0,0,0,1.93-2.67v-.27 a 2.79,2.79,0,0,0-.26-1.16,2.79,2.79,0,0,0,1.21.29 h .27 a 2.84,2.84,0,0,0,2.83-2.83v-.27 a 2.84,2.84,0,0,0-2.83-2.83 h -.27 a 2.76,2.76,0,0,0-.33,0,2.78,2.78,0,0,0,.17-.93v-.27 a 2.84,2.84,0,0,0-2.83-2.83 h -.27 a 2.84,2.84,0,0,0-2.83,2.83v.27 a 2.79,2.79,0,0,0,.32,1.27,2.79,2.79,0,0,0-1.2-.28 h -.27 a 2.84,2.84,0,0,0-2.83,2.83v.25 a 2.8,2.8,0,0,0-1.5-.44 h -.27 a 2.84,2.84,0,0,0-2.83,2.83v.13 a 2.82,2.82,0,0,0-2.26-1.15 h -.27 a 2.83,2.83,0,0,0-2.54,1.61,2.83,2.83,0,0,0-2.81-2.66 h -.27 a 2.83,2.83,0,0,0-2.41,1.37,2.84,2.84,0,0,0-2.78-2.32 h -.27 a 2.81,2.81,0,0,0-1.9.75,2.83,2.83,0,0,0-2.82-2.77 h -.27 a 2.81,2.81,0,0,0-1.89.74v-.18 a 2.84,2.84,0,0,0-2.83-2.83 h -.27 a 2.8,2.8,0,0,0-1.5.44 s 0-.07,0-.11V226 a 2.84,2.84,0,0,0-2.83-2.83 h -.27 a 2.84,2.84,0,0,0-2.83,2.83v.27 a 2.8,2.8,0,0,0,.21,1.06,2.8,2.8,0,0,0-1.77-.64 H 275 a 2.84,2.84,0,0,0-2.83,2.83v.27 A 2.84,2.84,0,0,0,275,232.64Z m 6.55-2.78 a 2.79,2.79,0,0,0-1.28-.32 H 280 a 2.81,2.81,0,0,0-1.95.79,2.81,2.81,0,0,0,.05-.52v-.27 a 2.8,2.8,0,0,0-.21-1.06,2.8,2.8,0,0,0,1.77.64 h .27 a 2.8,2.8,0,0,0,1.5-.44 s 0,.07,0,.11v.27 A 2.78,2.78,0,0,0,281.51,229.86Z m .59,2.74 a 1.92,1.92,0,0,1-1.91,1.91 H 280 a 1.92,1.92,0,0,1-1.91-1.91v-.19 A 1.92,1.92,0,0,1,280,230.5 h .19 a 1.92,1.92,0,0,1,1.91,1.91Z m .9.63 a 2.81,2.81,0,0,0,.06-.58v-.27 a 2.78,2.78,0,0,0-.13-.8,2.79,2.79,0,0,0,1.28.32 h .27 a 2.81,2.81,0,0,0,1.89-.74v.18 a 2.78,2.78,0,0,0,.16.89,2.79,2.79,0,0,0-1-.18 h -.27 A 2.83,2.83,0,0,0,283,233.23Z m 4.43,1.87 a 1.92,1.92,0,0,1-1.91,1.91 h -.19 a 1.92,1.92,0,0,1-1.91-1.91v-.19 a 1.92,1.92,0,0,1,1.91-1.91 h .19 a 1.92,1.92,0,0,1,1.91,1.91Z m .92.45 a 2.78,2.78,0,0,0,0-.41v-.27 a 2.78,2.78,0,0,0-.16-.89,2.79,2.79,0,0,0,1,.18 h .27 a 2.81,2.81,0,0,0,1.9-.75,2.78,2.78,0,0,0,.14.78,2.79,2.79,0,0,0-.45,0 h -.27 A 2.82,2.82,0,0,0,288.36,235.56Z m 4.57,1.65 a 1.92,1.92,0,0,1-1.91,1.91 h -.19 a 1.92,1.92,0,0,1-1.91-1.91V237 a 1.92,1.92,0,0,1,1.91-1.91 H 291 a 1.92,1.92,0,0,1,1.91,1.91Z m 1-.24 a 2.78,2.78,0,0,0-.14-.83,2.79,2.79,0,0,0,.45,0 h .4 A 2.85,2.85,0,0,0,293.89,237Z m 4.56,1.68 a 1.92,1.92,0,0,1-1.91,1.91 h -.19 a 1.92,1.92,0,0,1-1.91-1.91v-.19 a 1.92,1.92,0,0,1,1.91-1.91 h .19 a 1.92,1.92,0,0,1,1.91,1.91Z m 1-.29 a 2.79,2.79,0,0,0-.35-1.29,2.8,2.8,0,0,0,.61.07 h .27 a 2.77,2.77,0,0,0,.39,0 A 2.84,2.84,0,0,0,299.41,238.35Z m 4.79,1.21 a 1.92,1.92,0,0,1-1.91,1.91 h -.19 a 1.92,1.92,0,0,1-1.91-1.91v-.19 a 1.92,1.92,0,0,1,1.91-1.91 h .19 a 1.92,1.92,0,0,1,1.91,1.91Z m .92-.66 a 2.79,2.79,0,0,0-.23-.76,2.78,2.78,0,0,0,.41,0 h .38 A 2.84,2.84,0,0,0,305.11,238.9Z m 4.61,1.58 a 1.92,1.92,0,0,1-1.91,1.91 h -.19 a 1.92,1.92,0,0,1-1.91-1.91v-.19 a 1.92,1.92,0,0,1,1.91-1.91 h .19 a 1.92,1.92,0,0,1,1.91,1.91Z m 2.9,4.53 h -.19 a 1.92,1.92,0,0,1-1.77-2v-.19 a 1.92,1.92,0,0,1,2-1.78 h .19 a 1.92,1.92,0,0,1,1.78,2v.19 A 1.92,1.92,0,0,1,312.63,245Z m 4.61-7.67 a 2.84,2.84,0,0,0-.85.48v-.11 a 2.84,2.84,0,0,0-2.83-2.83 h -.16 a 2.79,2.79,0,0,0,.35-1.34v-.25 a 2.8,2.8,0,0,0,1.5.44 h .27 l .23,0 a 2.78,2.78,0,0,0-.13.81v.27 A 2.83,2.83,0,0,0,317.25,237.34Z m -1.61,5.56 a 2.83,2.83,0,0,0-1.1-2.26,2.82,2.82,0,0,0,.81-.46,2.83,2.83,0,0,0,1.13,2.37 A 2.81,2.81,0,0,0,315.64,242.9Z m -4.21-5.14 a 1.92,1.92,0,0,1,1.91-1.91 h .19 a 1.92,1.92,0,0,1,1.91,1.91v.19 a 1.92,1.92,0,0,1-1.91,1.91 h -.19 a 1.92,1.92,0,0,1-1.91-1.91Z m 7.86,7.89 a 1.92,1.92,0,0,1-2,1.77 h -.19 a 1.92,1.92,0,0,1-1.77-2v-.19 a 1.92,1.92,0,0,1,2-1.78 h .19 a 1.92,1.92,0,0,1,1.77,2Z m 1-5.45v.19 a 1.92,1.92,0,0,1-2,1.77 h -.19 a 1.92,1.92,0,0,1-1.77-2v-.19 a 1.92,1.92,0,0,1,2-1.77 h .19 A 1.92,1.92,0,0,1,320.32,240.19Z m .29-5.44 a 1.92,1.92,0,0,1-1.91,1.91 h -.19 a 1.92,1.92,0,0,1-1.91-1.91v-.19 a 1.9,1.9,0,0,1,.54-1.32,2.86,2.86,0,0,0,.33-.28,1.89,1.89,0,0,1,1-.31 h .19 a 1.92,1.92,0,0,1,1.91,1.91Z m -2.55-5.39 a 2.79,2.79,0,0,0,1.2.28 h .27 a 2.76,2.76,0,0,0,.33,0,2.78,2.78,0,0,0-.17.93v.27 a 2.79,2.79,0,0,0,.26,1.16,2.79,2.79,0,0,0-1.21-.29 h -.27 l -.23,0 a 2.78,2.78,0,0,0,.13-.81v-.27 A 2.79,2.79,0,0,0,318.05,229.36Z m 4.51-.69 h .19 a 1.92,1.92,0,0,1,1.91,1.91v.19 a 1.92,1.92,0,0,1-1.91,1.91 h -.19 a 1.92,1.92,0,0,1-1.91-1.91v-.19 A 1.92,1.92,0,0,1,322.56,228.67Z m -5.18-2.09 a 1.92,1.92,0,0,1,1.91-1.91 h .19 a 1.92,1.92,0,0,1,1.91,1.91v.19 a 1.92,1.92,0,0,1-1.91,1.91 h -.19 a 1.92,1.92,0,0,1-1.91-1.91Z m -4,4.09 a 1.92,1.92,0,0,1,1.91-1.91 h .19 a 1.92,1.92,0,0,1,1.91,1.91v.19 a 1.9,1.9,0,0,1-.54,1.32,2.86,2.86,0,0,0-.33.27,1.89,1.89,0,0,1-1,.31 h -.19 a 1.92,1.92,0,0,1-1.91-1.91Z m -4.6,2.64 a 1.92,1.92,0,0,1,1.91-1.91 h .19 a 1.92,1.92,0,0,1,1.91,1.91v.19 a 1.92,1.92,0,0,1-1.91,1.91 h -.19 a 1.92,1.92,0,0,1-1.91-1.91Z m -.39,2v-.13 a 2.82,2.82,0,0,0,2.26,1.15 h .16 a 2.79,2.79,0,0,0-.35,1.34V238 a 2.82,2.82,0,0,0,1.1,2.22,2.85,2.85,0,0,0-.9.54 c 0-.08,0-.15,0-.23v-.27 a 2.84,2.84,0,0,0-2.83-2.83 h -.38 A 2.81,2.81,0,0,0,308.4,235.35Z m -5-.23 a 1.92,1.92,0,0,1,1.91-1.91 h .19 a 1.92,1.92,0,0,1,1.91,1.91v.19 a 1.92,1.92,0,0,1-1.91,1.91 h -.19 a 1.92,1.92,0,0,1-1.91-1.91Z m -.94.41 a 2.79,2.79,0,0,0,.25,1,2.78,2.78,0,0,0-.41,0 h -.27 a 2.77,2.77,0,0,0-.39,0 A 2.84,2.84,0,0,0,302.48,235.53Z m -4.68-1.45 a 1.92,1.92,0,0,1,1.91-1.91 h .19 a 1.92,1.92,0,0,1,1.91,1.91v.19 a 1.92,1.92,0,0,1-1.91,1.91 h -.19 a 1.92,1.92,0,0,1-1.91-1.91Z m -.91.74 a 2.79,2.79,0,0,0,.31.84,2.8,2.8,0,0,0-.61-.07 h -.4 A 2.85,2.85,0,0,0,296.89,234.81Z m -4.55-1.69 a 1.92,1.92,0,0,1,1.91-1.91 h .19 a 1.92,1.92,0,0,1,1.91,1.91v.19 a 1.92,1.92,0,0,1-1.91,1.91 h -.19 a 1.92,1.92,0,0,1-1.91-1.91Z m -5-2 a 1.92,1.92,0,0,1,1.91-1.91 h .19 a 1.92,1.92,0,0,1,1.91,1.91v.19 a 1.92,1.92,0,0,1-1.91,1.91 h -.19 a 1.92,1.92,0,0,1-1.91-1.91Z m -3.09-4.18 h .19 a 1.92,1.92,0,0,1,1.91,1.91V229 a 1.92,1.92,0,0,1-1.91,1.91 h -.19 a 1.92,1.92,0,0,1-1.91-1.91v-.19 A 1.92,1.92,0,0,1,284.25,226.92Z m -6.5-.86 a 1.92,1.92,0,0,1,1.91-1.91 h .19 a 1.92,1.92,0,0,1,1.91,1.91v.19 a 1.92,1.92,0,0,1-1.91,1.91 h -.19 a 1.92,1.92,0,0,1-1.91-1.91Z m -4.66,3.52 a 1.92,1.92,0,0,1,1.91-1.91 h .19 a 1.92,1.92,0,0,1,1.91,1.91v.19 a 1.92,1.92,0,0,1-1.91,1.91 H 275 a 1.92,1.92,0,0,1-1.91-1.91Z"/>
  </g>
<script type="text/ecmascript" xlink:href="param.min.js"/> 
</svg>
