<?xml version="1.0"?>
<svg xmlns="http://www.w3.org/2000/svg" xmlns:xlink="http://www.w3.org/1999/xlink" viewBox="0 0 600 600">
  <title>curvy-top-template</title>
  <g id="main-colour">
    <path d="M 353.34,362.63 c -3.08-13.08-9.5-24.5-12.67-29.67 s -6.5-10.17-7.08-18.42 c -.52-7.41,1.17-15,3.7-22.28,5.46-1.33,12.16-5,16-10.64,4.88-7.12,4.63-16.87,2.38-22.87 A 21.17,21.17,0,0,0,345.08,247 c -4.12-2-8.87-5-8.87-5 a 34.31,34.31,0,0,1-11.53-14.54,12.88,12.88,0,0,1-5.75-1.33 c 4.41,9.42,5.58,16.5,3.24,20.08 s -12.33,7-23.33,1 c -8.76-4.78-15.74-16.75-18.41-22.17 a 10.57,10.57,0,0,1-6.58,3.08 s 3.5,6.5,3.42,13.25-5.58,12.75-10.58,15.25-12.08.25-12.08.25-.42,12.83,1.92,21.83,7.67,15.67,10,23,1.67,14.08-5.33,23.42 S 248.5,342.29,245.09,355 s -6.25,35.58-1,60.92 c 15.58-6.58,31.58-2.67,43,.42 a 96.19,96.19,0,0,0,38,2.78 c 14.65-1.74,28.5-7.28,33.17-13.87 C 359.17,392.13,356.42,375.71,353.34,362.63Z" fill="param(main_colour)"/>
  </g>
  <g id="outline">
    <path d="M 276.35,286.94 s 5.42,13.31,22.66,10.13 A 29.17,29.17,0,0,1,276.35,286.94Z"/>
    <path d="M 343.59,336.38 c -6.75-11.75-9.18-14.5-9.08-25,.08-8.37,1-11.33,2.7-16,.3-.83.58-1.43,1-2.62,4.25-.75,10.88-4,14.38-8.25,8.55-10.39,6.5-20.12,4-26.75-3-8-10.37-11.25-19.75-16.25-3.44-1.83-8.19-7-11.8-14.75-3.25.25-5.56-.37-7.52-2,4.16,8.67,11.66,22.83-2.67,24.83 C 297.48,252,285.16,235.38,280.71,224 c -3,3.29-8,3.54-8,3.54 s 6.13,8.13,2.75,18.38-13.37,12.69-22,9.94 c -.5,11.75,1.5,25.31,7.5,35.81 S 268.59,310,264.84,318 s -12.14,13.26-18.37,28.75 c -12.63,31.38-3.88,56.63-3.63,70.38,12.75-4.75,22-5.08,39.83-.42,20.73,5.43,60.67,8.17,76.67-10.33 C 360.59,371.88,350.34,348.13,343.59,336.38Z m 13.87,68.88 c -3.79,6.13-17.31,11-28.31,12.48-10.55,1.44-25.15,1.81-36.82-.61 s -18.12-4.4-25-5.27-17.62.52-22.5,2.77 c 0,0-4.37-23.25-2.25-42 s 6-27.75,12.25-37.12,12.38-15.12,13.38-23-1.75-13.62-3.62-17.5-9.75-15.12-9.37-37.06 c 0,0,9,2.81,16-3.12 a 19.61,19.61,0,0,0,6.5-18.44,29.43,29.43,0,0,0-2.75-7.69 s 3.75-.75,5.19-2.44 c 2.38,4.81,8.18,14.29,14.85,19.46 a 26.44,26.44,0,0,0,20.83,5.17 c 6.81-1.37,9.5-5.67,8.83-11.33-.45-3.81-3.7-9.29-5-12.23,1.63.88,4.69.69,4.69.69 s 2.41,11.67,20.74,20.38 c 10,4.75,13.41,19.14,8.63,29.75-5.12,11.38-16.91,13.83-20.29,14.71 a 9,9,0,0,0,3-.06 c -2.2,6.43-3.95,10.83-3.68,18.54.31,8.88,1.5,12.19,3.69,16.31 s 10.87,16.25,15.29,32.92 C 354.52,371,358.09,382.13,357.46,405.25Z"/>
  </g>
<script type="text/ecmascript" xlink:href="param.min.js"/> 
</svg>
