<?xml version="1.0"?>
<svg xmlns="http://www.w3.org/2000/svg" xmlns:xlink="http://www.w3.org/1999/xlink" viewBox="0 0 600 600">
  <title>one-piece-swimsuit-voluptuous</title>
  <g id="skin-tone">
    <g id="skin-tone-2" data-name="skin-tone">
      <path d="M 239.81,321.84 A 107.53,107.53,0,0,0,231.94,340 a 56.16,56.16,0,0,0-2.41,23.67 c -.59,10.54.21,21.65,3.91,29.75,8.77,16.25,24.06,22.91,39.56,21.75 s 24.93-12.78,24.93-12.78 l .48-.25 A 38.43,38.43,0,0,0,359,370.72 s 2.53-25.28-4.9-46.44 h 0 l -.12-.33v-.11 h 0 a 56.77,56.77,0,0,0-4.91-10.46 c -3.74-6.12-7.64-11-8.26-15.9 s 3.88-17.5,6-27-.49-15.61-.49-15.61 l -.22-.53-.32-.26 a 16.13,16.13,0,0,0-8.84-26.25v-.39 c -2.24-1.41-6.76-.84-11.76.54-5.58-6-6.4-19.35-6.49-22.47 a 73.41,73.41,0,0,1-37.11.21 c .06,2.13.07,4.29,0,6.29-.37,8.5-6.12,17.25-6.12,17.25 s -7.75-2.87-14.5-3.12-13.12,4.13-15.87,9.63-2.75,12.13,1.5,18.75 c -2.5,13.63.38,23.13,3.75,34 s .5,15.5-3.37,21.38 c -1.79,2.71-4.32,6.78-6.89,11.55Z" fill="param(skin_tone)"/>
    </g>
  </g>
  <g id="main-colour">
    <path d="M 232.12,343.25 a 98.75,98.75,0,0,1,10.5-26 c 7.5-12.5,10.75-16.5,9.25-24 s -5.5-15.62-5.5-20.75 c 5.75,1.38,18.38,2.38,26.88-10.12 s 6.63-23-.62-35.12 a 21.13,21.13,0,0,0,5.13-2.75 s 5.25,9.13,6.88,13.25,5.88,15.25,15.75,18.88,18.75,1.88,22.5-4.12 S 327,239,327,235.38 s -.25-7.62-.25-7.62 a 9.46,9.46,0,0,1,5.25-.62 c 0,6.88,2.13,16,6.63,21.5 s 9.38,7.88,9.75,19.13 A 32.24,32.24,0,0,1,345.25,278 s -3.37,10.13-4,16.5,2.53,9.88,5.76,14.25,9.11,18.25,9.36,21.13 c -5.12.38-16.87,2.5-24.25,10.88 s -9,17.5-10.5,22.63 S 316,387.25,307,386.25 c 1.75-8.75,2.88-18.37-3-29 S 285.37,336.38,267,335 A 59.38,59.38,0,0,0,232.12,343.25Z" fill="param(main_colour)"/>
  </g>
  <g id="outline">
    <path d="M 271.15,226.83 s 5.56,6.91,6.45,14.55 c 1.17,10-2.14,22.18-15.17,28.75 a 22.2,22.2,0,0,1-17.58,1.08 l .25,2.33 s 8.9,2.92,19.33-2.5 c 10.58-5.5,23.26-24.07,9.14-43.45 C 272.7,227.35,271.15,226.83,271.15,226.83Z"/>
    <path d="M 276.94,224.88 a 173.68,173.68,0,0,1,8.75,17.42 c 4.75,10.75,12.79,16.83,24.42,17,23.16.33,17.13-32.54,17.13-32.54 l -1.5.38 s 4.29,29-12.87,30.5 c -24.67,2.16-25.75-22.12-35.37-34.75 A 4.58,4.58,0,0,0,276.94,224.88Z"/>
    <path d="M 331.36,226.05 a 5.35,5.35,0,0,1,1.7.11 s -.56,14,5.89,21.72 l -2.33-.58 a 35.86,35.86,0,0,1-4.58-13 C 331.63,231.67,331.36,226.05,331.36,226.05Z"/>
    <path d="M 325.73,227.13 s 4.13-1.69,7.33-1 c 0,.34-.23,1.44-.23,1.44 s -4.22-.41-6.53,1 A 12.09,12.09,0,0,0,325.73,227.13Z"/>
    <path d="M 271.15,226.83 a 8,8,0,0,0,6.33-4 c 0,.79,0,2.46,0,2.46 s -2.37,2.33-4.87,2.5 A 16,16,0,0,1,271.15,226.83Z"/>
    <path d="M 348.61,309.75 c -5.75-8.75-6.75-9.25-6.62-14 s 3.13-14.37,4.5-19.5 c .13-.47.25-.94.36-1.4 a 33.2,33.2,0,0,1-3.24,5.22 c -.34,1.26-.71,2.57-1.12,3.93-3.75,12.38-2.62,15.25-1,18.63 s 10.5,13.75,13.88,27 c -8.5-1.62-24,5-30.12,19.5 s -8,35.75-17,36.25 c 4.13-19.75-3.5-30.37-10.12-37.75 s -31.75-22.87-64.5-6.25 c 2.25-11.37,9-22.37,13.75-30 s 6.63-10.5,5.38-18.25-4.37-13.12-5.25-19.87 a 8.83,8.83,0,0,1-2.62-2,41.66,41.66,0,0,0,2,9.42 c 1.75,5.33,4.75,12.67,4.17,17.75 a 23,23,0,0,1-5.42,11.83 c -2.25,2.75-12.67,18.5-15.33,35.58,15.08-12.25,43.17-12.08,56.83-3.92 s 19,19.83,20.08,29.17 a 39.38,39.38,0,0,1-1.33,16.17 s 6.25,1.29,9.88-5.33,6.5-16.75,7.63-21.87,5-16.5,15.25-23.25,19.25-5.25,19.25-5.25 S 354.36,318.5,348.61,309.75Z"/>
    <path d="M 343.18,281.67 a 28.36,28.36,0,0,0,2.63-2.75,26,26,0,0,0,3-7,20.27,20.27,0,0,0-.93-12.51 s -1-2.16-1.22-2.55 a 33.72,33.72,0,0,0-2.17-3.22,75.67,75.67,0,0,0-9.33-9.05,16.21,16.21,0,0,0,3,4.79 l 2.31,2.19 c 6.26,6.42,7.32,14.59,5.33,21.76 h 0 c -.81,2-1.74,5.16-2.44,7.4Z"/>
    <path d="M 273.2,282.71 c 4.42,6.17,12.93,9.28,19.33,5.83 C 285.17,289.88,279.7,287.38,273.2,282.71Z"/>
    <path d="M 245,272.32 c 1,.2,1.86.35,2.6.46 a 60.81,60.81,0,0,1,0-17.26 l .2-1.67 a 16.56,16.56,0,0,1,13.1-26.72 h 1.43 l 1,.07 h .11 a 49.48,49.48,0,0,1,10.71,2.46 c -.42-.74-.9-1.56-1.41-2.35 a 50.41,50.41,0,0,0-9-2,18.48,18.48,0,0,0-2.19-.21 h -.69 a 18.6,18.6,0,0,0-18.58,18.55,18.41,18.41,0,0,0,3.34,10.57 A 63.15,63.15,0,0,0,245,272.32Z"/>
    <path d="M 281.95,232.33 c 3.58,1,8.11,1.6,12.05.4-3.86.06-7.94-.8-13.2-2.57 C 281.18,230.85,281.57,231.58,281.95,232.33Z"/>
    <path d="M 283,411.76 a 39.58,39.58,0,0,1-20.24,2.14,38.8,38.8,0,0,1-14.45-5.5,37.85,37.85,0,0,1-12.48-12.9,38.81,38.81,0,0,1-5-14.84,101.24,101.24,0,0,1-.14-14.82q0-1.51.09-3 l -.06.17 a 127.18,127.18,0,0,1,2.87-21 l -1.43.58 c -.29.12-1.12.28-1.31.51 a 4.84,4.84,0,0,0-.31,1.54q-.18,1-.35,1.92 c -.36,2.12-.65,4.26-.88,6.4-.42,4-.62,8-.7,12-.16,7.88-.53,15.93,1.91,23.53 a 40.66,40.66,0,0,0,19.66,23.44,39.45,39.45,0,0,0,20.34,4.51 A 40.26,40.26,0,0,0,292,409.12 a 42.47,42.47,0,0,0,7.74-7.06,39.42,39.42,0,0,0,6.1-9.73q.56-1.26,1-2.55.24-.65.45-1.3 a 4.53,4.53,0,0,1,.21-.66 c .19-.36.11-.26.54-.4 a 14.17,14.17,0,0,0,4.47-1.9,10.62,10.62,0,0,0,3.09-3.58,14.4,14.4,0,0,1-9.39,3.56 A 38.62,38.62,0,0,1,283,411.76Z"/>
    <path d="M 278.41,226.27 a 39.75,39.75,0,0,0,4.34-20.3q-1.13-.27-2.25-.57 a 4,4,0,0,0,.06.83,36.38,36.38,0,0,1-3.67,17.85 C 277.2,224.49,277.74,225.25,278.41,226.27Z"/>
    <path d="M 346.83,257 c -.09-.16-.2-.32-.29-.48 l .15.3,1.31,2.71 a 21,21,0,0,0-1.64-4.68 A 12.82,12.82,0,0,1,346.83,257Z"/>
    <path d="M 332.17,227.28 a 20.19,20.19,0,0,1,4.78.16,10.65,10.65,0,0,0-4.89-1.38Z"/>
    <path d="M 357.49,330.49 l -2.32-.14 c 5.7,20.41,3.83,41.54,3.83,41.54,1.9-.54,1.9-3.71,1.9-12.16 A 114.65,114.65,0,0,0,357.49,330.49Z"/>
    <path d="M 326.5,226.88 l -.86.3 c -1.49-1.81-5.87-8.27-5.88-22q-1,.29-2,.54 c 0,5.66.78,16.48,6.08,22.26 l -.38.21 c -3,1.75-9.8,4.17-13.55,4.5,3.83.58,11.08-1.83,16.5-4.08 l .26-.09 C 326.61,228,326.55,227.41,326.5,226.88Z"/>
    <path d="M 310.82,258.38 a 28.39,28.39,0,0,0-6.74-10.61,35.51,35.51,0,0,1,4.72,10.61Z"/>
  </g>
<script type="text/ecmascript" xlink:href="param.min.js"/> 
</svg>
