<?xml version="1.0"?>
<svg xmlns="http://www.w3.org/2000/svg" xmlns:xlink="http://www.w3.org/1999/xlink" viewBox="0 0 600 600">
  <title>basic-tank-top-curvy</title>
  <g id="main-colour">
    <path d="M 348.07,248.88 c -1.81-1.18-4.37-2.7-6.32-3.85 a 48.4,48.4,0,0,1-9.18-6.4,22.83,22.83,0,0,1-5.92-11.5,11.77,11.77,0,0,0-4.22,1.13 c 5.17,10.3,9.68,23.48-2.41,25.49-14.25,2.38-25.81-4.19-33.37-13.19-2.43-2.89-5.19-11.06-6.25-14.62 l -.08-.17 c -1.28.93-2.83,2-4.17,3,1.88,8.38,1.13,24.38-6.37,31.13-5.49,4.94-12.37,5.19-15.68,5 a 59.13,59.13,0,0,0,7.72,26.37 c 2.63,4.75,4.63,8.5,5.5,15.13,1.38,11.88-6.87,19.38-14.12,29.88 a 66.48,66.48,0,0,0-5.37,9.33,31.27,31.27,0,0,1,9.82-1.42 c 10-.12,15.13,1.5,26.25,4.75 s 30.63,7.38,45.5,3 a 60,60,0,0,0,16.43-7.52,25.07,25.07,0,0,0-1.93-5.23 c -2.67-4.92-6.25-7.4-8.75-15.15 s -1.58-17.67-.5-22.83 a 66.6,66.6,0,0,1,2.76-9.25,24.59,24.59,0,0,0,20-22.35 C 358.07,257.71,351.4,251,348.07,248.88Z" fill="param(main_colour)"/>
  </g>
  <g id="outline">
    <path d="M 299.9,297.21 c -11.5-1.33-21.15-4.26-29.11-19.57 C 275.57,293.38,286.73,299.38,299.9,297.21Z"/>
    <path d="M 254.11,341.54 s 8-2.08,23.5,2.58,39.75,11,58.75,1.92 c -8.25,2.5-15.33,4.7-30.83,3.5 C 288.27,348.21,263.36,336.88,254.11,341.54Z"/>
    <path d="M 345.92,246.52 a 86,86,0,0,1-16-10.2 c 1.59,2.21,7.25,7.38,12.36,10,5.29,2.67,11.13,8.07,12.83,14.58,2,7.67,1.29,14.67-4.46,22.17 a 22.92,22.92,0,0,1-13.75,8.17 h 0 l -.6,1.76 h 0 a 58.9,58.9,0,0,0-3.47,16 c -.62,13.75,2.14,18.35,5.94,24 a 50.87,50.87,0,0,1,5.7,11.07 c -23,15-49.79,7.48-67.27,2.2-14.79-4.47-24.67-2.62-27.5-1.9,2.58-5,8.69-13.84,12.46-18.83 s 6.65-10.08,6.32-17.3 c 1.58,6,2.29,11.43,3.39,19.45.18-11.14-1.37-24.22-7.64-33.77-2.53-4.85-5.46-9.24-7.59-19.72 a 66.63,66.63,0,0,1-1.18-9.29 l -1.87-.12 c .15,2.2.39,4.58.75,7.1,1.75,12.27,5.5,17.39,9.12,24.39 s 6.07,17.93-2.62,28.16 c -7.27,8.55-11.72,15.94-14.45,22.81 l 1.33-.49 h 0 c 7.67-3.17,22.83-.83,32.17,2 s 20.67,6.5,37.83,6 a 52.44,52.44,0,0,0,27.47-8.7 h 0 s .83-.55,1.8-1.33 a 54.13,54.13,0,0,0-7.06-14.45 c -3.57-6.17-7-11.63-4.71-27.38 a 60.74,60.74,0,0,1,2.8-10,19.05,19.05,0,0,0,4.14-1 c 4.38-1.62,14.89-7.68,16.27-20.81 S 352.83,249.77,345.92,246.52Z"/>
    <path d="M 275.08,228.47 a 38.9,38.9,0,0,1-1.66,24.22 c -5.7,13.57-19.94,11.19-19.94,11.19 l .19,2 s 15.75,1.69,21.44-12.62 a 40.43,40.43,0,0,0,1.63-25.75Z"/>
    <path d="M 279.25,225.5 s 2.83,8.8,4.14,11.21 c 7.39,13.54,23.7,20.65,36.33,18 s 9.81-13.19,3.23-27.48 l -1.42.75 s 7.43,13.44,5.13,20 c -2.67,7.58-20,7.25-30.87-.08 s -12.75-16.25-15-24 A 7.19,7.19,0,0,1,279.25,225.5Z"/>
    <path d="M 275.08,228.47 s 4.37-2.58,5.66-4.6 a 20.28,20.28,0,0,1,.61,2.38,30,30,0,0,1-5.87,4.06 A 9.45,9.45,0,0,0,275.08,228.47Z"/>
    <path d="M 321.52,228 a 10.33,10.33,0,0,1,5.5-1.75,1.19,1.19,0,0,0,.26,1.25,12.69,12.69,0,0,0-5.07,1.88 A 6,6,0,0,0,321.52,228Z"/>
    <path d="M 325.82,226.71 a 40.41,40.41,0,0,0,4.21,10 c 2.35,3.67,8.71,7.44,8.71,7.44 l .35-1.31 a 24.76,24.76,0,0,1-7.94-6.69 c -2.75-3.67-4.13-9.92-4.13-9.92Z"/>
  </g>
<script type="text/ecmascript" xlink:href="param.min.js"/> 
</svg>
