<?xml version="1.0"?>
<svg xmlns="http://www.w3.org/2000/svg" xmlns:xlink="http://www.w3.org/1999/xlink" viewBox="0 0 600 600">
  <title>basic-crew-neck-t-shirt-curvy</title>
  <g id="main-colour">
    <path d="M 254.57,251 c -2.75,22.25,4.63,35.5,7.25,40.25 s 4.63,8.5,5.5,15.13 c 1.38,11.88-6.87,19.38-14.12,29.88 a 66.45,66.45,0,0,0-5.44,9.5,33,33,0,0,1,12-1.4 c 9.75.5,16.13,2.5,24.56,4.78 s 21.81,5.53,33.44,4.47 c 10.08-.92,21.85-3.78,27.65-9-.64-1.54-1.37-3.1-2.16-4.55-2.67-4.92-5.58-8.25-8.08-16 s -1.58-17.67-.5-22.83,2.75-9.08,5.08-15.67 a 60.47,60.47,0,0,0,3.75-23.25 c -.33-9.33-3.26-14.6-3.26-14.6 h 0 a 12.69,12.69,0,0,0-6.41-19.85 h 0 c -4-2.33-11.4.46-11.4.46 s -.08.22-.47.27 c 2.32,9.63,1.42,17.61-10.7,19.63 C 297,250.5,286.36,243,281.48,237.88 a 33.91,33.91,0,0,1-5.68-8.52 l -.23.12 a 54.44,54.44,0,0,0-11-3.12,13.69,13.69,0,0,0-13.87,6.13 C 246.07,241.22,250.57,248.1,254.57,251Z" fill="param(main_colour)"/>
  </g>
  <g id="outline">
    <path d="M 254.11,341.54 s 8-2.08,23.5,2.58,39.75,11,58.75,1.92 c -8.25,2.5-15.33,4.7-30.83,3.5 C 288.27,348.21,263.36,336.88,254.11,341.54Z"/>
    <path d="M 323.54,245 c -3.83,5.17-13.18,9-28.26,4.73 a 33.68,33.68,0,0,1-20.75-17.56 c 2.92,7.58,9.55,14.84,20.42,18.08,12,3.58,23.46,2.11,28.51-4.08,4.83-5.92,2.75-11.5,1.49-14.33 C 325.45,234,327.37,239.88,323.54,245Z"/>
    <path d="M 345.66,345.65 l .36-.27 h 0 c .32-.26.64-.53.94-.8 a 53.73,53.73,0,0,0-7.05-14.34 c -3.57-6.17-7-11.63-4.71-27.38,1.21-7.45,5.39-15.9,7.66-24.66 a 26.14,26.14,0,0,0,2.58-6.3,20.54,20.54,0,0,0-1.78-14.35 c -.72-4.47-1.95-8.2-3.44-9.92 l .08.21 c .12.33.38,1.09.69,2.22 a 42.52,42.52,0,0,1,.93,4.62 c -.25-.35-.52-.7-.8-1-4.63-5.72-9.9-12.34-11.9-17 A 85,85,0,0,0,337.73,252 c 5.79,8.23,6.87,16.42,3.85,23.89-.7,2.37-1.27,5-1.67,6.36-2.76,8.82-6.67,17.33-7.09,26.71-.62,13.75,2.14,18.35,5.94,24 a 50.87,50.87,0,0,1,5.7,11.07 c -23,15-49.79,7.48-67.27,2.2-14.79-4.47-24.67-2.62-27.5-1.9,2.58-5,8.69-13.84,12.46-18.83 s 6.65-10.08,6.32-17.3 c 1.58,6,2.29,11.43,3.39,19.45.18-11.14-1.37-24.22-7.64-33.77-2.53-4.85-5.46-9.24-7.59-19.72 a 83.89,83.89,0,0,1-1.13-21.29v-.18 l 0-.25,0-.33 c 0-.29,0-.45,0-.45 h 0 l .08-.93 a 12.7,12.7,0,0,1,6.69-23.5 h 0 c .43,0,.87,0,1.32.07 a 39.48,39.48,0,0,1,6.89,1.43 l .87.26.08,0 c 1.21.38,2.42.8,3.61,1.21 a 36.56,36.56,0,0,0,32.36,19.26 c .94,0,1.9,0,2.89-.1,5.34-.35,9.33-2.41,11.86-6.13,3-4.38,1.85-10.25.8-14.12 a 15.19,15.19,0,0,1,10.76-1.36 s -3-2.13-8.11-1.29 a 17.86,17.86,0,0,0-4.93,1.83 l .23.87 h 0 c 0,.09.06.2.08.3 l .12.47 c .72,3,2.1,8.21-.6,12.17-2.17,3.18-5.65,5-10.34,5.26-19.35,1.29-29.69-11.36-32.4-16.23,0,0-.31-.7-.94-1.94 l -1.83-.74 a 42.53,42.53,0,0,0-10.9-3.13 l -.61-.07 a 11,11,0,0,0-1.2-.06,14.7,14.7,0,0,0-8.79,26.48,93.51,93.51,0,0,0,.74,20.13 c 1.75,12.27,5.5,17.39,9.13,24.39 s 6.07,17.93-2.62,28.16 c -7.32,8.6-11.78,16-14.51,22.94.59-.28,1.11-.5,1.52-.66,7.71-3.08,22.75-.77,32,2 s 20.67,6.5,37.83,6 a 52.44,52.44,0,0,0,27.47-8.7 h 0 l 0,0,.16-.11Z"/>
    <path d="M 304.23,283.15 c -8.46,4.78-13.95,5.54-21.42,5 C 289.71,291.7,299.52,289.12,304.23,283.15Z"/>
  </g>
<script type="text/ecmascript" xlink:href="param.min.js"/> 
</svg>
