<?xml version="1.0"?>
<svg xmlns="http://www.w3.org/2000/svg" xmlns:xlink="http://www.w3.org/1999/xlink" viewBox="0 0 600 600">
  <title>basic-jeans-slender</title>
  <g id="skin-tone">
    <path d="M 335,248.46 c -1-1-2-1.93-2.83-2.87 l -.08,0-1.18-1.34 a 10.81,10.81,0,0,0-5.37-16.11v-.27 a 11.12,11.12,0,0,0-9.24.73,3.12,3.12,0,0,0-1.56-.2,12,12,0,0,1-8.28-8.84,73.66,73.66,0,0,1-1.49-11.94 c -1.86.14-3.74.22-5.64.22q-2.61,0-5.17-.18 c -.13,2.22-.56,8.42-1.37,10.5-1,2.56-3.33,9-10.86,10.75-7.45-6.36-19.55-1.14-20,7.95 s 6,12.33,9.33,13.42 c -1.25,5.92,1.33,21,3.17,27.5 s 6.92,19.67,9.08,28.08 c 1.9,7.38-1.45,17-7.13,27.62 a 51.77,51.77,0,0,0,11.34,5.74 c 10.8,4.07,25.28,7.4,37.49-1 a 41.05,41.05,0,0,1-2.27-13.93 c -.17-8.42,1.82-20.63,3.91-27.88,1-3.41,2.49-7.72,3.9-12.55 A 8.79,8.79,0,0,0,334.8,282 a 20.45,20.45,0,0,0,8.92-15.42 C 344.12,259.91,342.39,256.38,335,248.46Z" fill="param(skin_tone)"/>
  </g>
  <g id="main-colour">
    <path d="M 331,352.65 a 140.8,140.8,0,0,1-6.12-14 l -.81.48q-.45-1.22-.84-2.51 c -.15.09-.39.22-.71.36-1.24-.69-1.51.74-1.51.74 s -2.37,1-5.24,2.09 a 1,1,0,0,0-1.69.37,26.12,26.12,0,0,1-13.51,0 c -.84-1-1.59-.17-1.59-.17 s -5.88-1.59-7.8-2.46 c -.72-1-1.44-.51-1.44-.51 s -6.1-2.71-7.26-3.48 c -.5-1.6-1.53-.51-1.53-.51 L 278.73,332 c -.35.67-.71,1.32-1.06,2 l -.66-.46 s -3.87,6.63-6.12,10.13 A 57.86,57.86,0,0,0,262.14,370 a 24.81,24.81,0,0,0,2.68,13,24,24,0,0,0,39.09,6.26,24,24,0,0,0,29.29-23.41 h 0 C 333.75,362.61,332.76,355.77,331,352.65Z" fill="param(main_colour)"/>
  </g>
  <g id="fixed-colours">
    <path d="M 313.83,348.07 a 49.36,49.36,0,0,1,3,28.33 C 317.12,367.59,316.83,358.4,313.83,348.07Z" opacity="0.5"/>
  </g>
  <g id="outline">
    <path d="M 308.25,327.37 c 1,.2,1.7-1.44.9-3.34 a 29,29,0,0,1,1.68-6.1 S 305.76,326.65,308.25,327.37Z"/>
    <path d="M 312.64,228.5 a 30.41,30.41,0,0,1-6.13,3.13,26.5,26.5,0,0,0,10.12-3.19 l .54-.24 a 11.26,11.26,0,0,1,8.35-.33 c -2.58-2.5-7-2.5-8.89-1.64 a 9.91,9.91,0,0,0-2.38,1.26 c -7.61-3.24-7.75-12.23-8.24-19.94 l -1.48.12 a 41.37,41.37,0,0,0,1.15,11.62 A 12.61,12.61,0,0,0,312.64,228.5Z"/>
    <path d="M 321.26,266.38 a 23.49,23.49,0,0,0-12.51-18.75 c 8.49,5.38,14,18.75,7.76,28.75 s -15.87,11.63-24.37,9 A 19.92,19.92,0,0,0,321.26,266.38Z"/>
    <path d="M 336.14,249.13 a 102.91,102.91,0,0,1-8.24-8.88 c 2.76,6,11,12.38,13.37,17.88 s 1.44,13.21-1.75,18 c -3.75,5.63-7.5,7.63-13.5,8.12 a 14.76,14.76,0,0,0,3.48,0 c -5.77,20.26-9.85,34.71-7,49.45.17.79.37,1.55.58,2.3 l -.69.36 a .91.91,0,0,0-.49-.13,1.15,1.15,0,0,0-1.08.88,42.53,42.53,0,0,1-5.19,2,.7.7,0,0,0-.2-.08,1.13,1.13,0,0,0-1.22.48,29.85,29.85,0,0,1-6,1,31.52,31.52,0,0,1-7.7-.77 c -.3-.54-.72-.86-1.3-.28 a 67.54,67.54,0,0,1-8.31-2.57.7.7,0,0,0-.68-.26,76.9,76.9,0,0,1-7.59-3.42 c -.13-.66-.46-1.19-1.24-.83 l -.16.09 c -.7-.39-1.39-.78-2-1.17 a 73.22,73.22,0,0,0,4.15-9.45 c 2.77-8.21,2.63-11.5.46-19.62 s -6.86-18.78-9.46-29.28 c -2.12-8.56-2-18.12-1.85-21.36 h 0 c 0-.22,0-.59,0-1v-.19 h 0 c 0-.46,0-.86,0-.86 h 0 a 11.19,11.19,0,1,1,6.1-21.31 l 1.54.84.06,0 h 0 l 1,.55,3.34,1.84 c .24.13.52.25.78.37 l .18.1 h 0 a 21.13,21.13,0,0,0,11.55,1 c -3.44,0-8.74-.68-13-3.46,2.8-1,10.8-5.42,11.18-21.67 l -1.59-.11 c 0,1.76-.57,18-11.81,20.13 A 13.19,13.19,0,1,0,269.92,251 a 110.89,110.89,0,0,0,1.34,17.75 c 2.5,15,9.62,27.5,11.46,40.33 s -11.29,29.5-16.79,41.33 a 59.89,59.89,0,0,0-5.31,20.07 c 0,.13,0,.26,0,.39-.08,1.22-.08,1.91-.08,1.91 a 26,26,0,0,0,50.08,9.79 c 2.14-.82,5.25-2.75,6.42-5.2,0,0-2,2.38-6.59,3.39-.34.07-.79.15-1.35.23 a 24,24,0,0,1-46.56-8.22 c 0-.45,0-.92,0-1.39,0-.06,0-.1,0-.16,0-.26,0-.52,0-.78 a 51.19,51.19,0,0,1,3-13,71.58,71.58,0,0,1,3.48-8.13 c 1.42-2.76,4.3-7.52,7.2-12.74q.79.59,1.6,1.15 a .94.94,0,0,0,.13.52,1.25,1.25,0,0,0,1.43.53,51.18,51.18,0,0,0,7.67,4.06.83.83,0,0,0,.18.35,1.25,1.25,0,0,0,1.47.31 A 49.87,49.87,0,0,0,298,346 a .69.69,0,0,0,.14.14,1.13,1.13,0,0,0,1.21.09,53.64,53.64,0,0,0,8.46.57,36.1,36.1,0,0,0,8-1 c .51.4,1.06.56,1.36-.3v-.06 a 33.52,33.52,0,0,0,6.9-2.77 c .56.24,1.11.25,1.22-.5,3.26,7.49,7.55,13.81,7.9,23.7.5-2,1.62-8.25-4.23-20.25-3-6.13-5.8-11.93-4.5-26.84,1-11,4.72-23.51,7.58-35 a 17.86,17.86,0,0,0,12.72-13.53 C 347,259.53,341,253.7,336.14,249.13Z m -12.74,88,.1.32-.21-.26Z m -8.68,7.43.12.18 a 32.76,32.76,0,0,1-6.12.86,31,31,0,0,0,0-4,30.49,30.49,0,0,0,5.1-.79,2.26,2.26,0,0,0,0,.24 c .4-.89,1.54-2.18,2.34.62 S 316.79,346.33,314.72,344.59Z m -27.55-3.17 a 56.17,56.17,0,0,1-6.66-3.41,2.68,2.68,0,0,0,.24-.33 c -1.07.61-2.79.56-1.41-2 s 2.95-3.51,3.26-.86 c 0,0,0-.1,0-.26,1.73.88,3.9,1.91,6.35,2.9 A 10,10,0,0,0,287.17,341.42Z m -10.33-5.87q.87-1.59,1.72-3.22 c .27.16.81.48,1.59.91 a 10.09,10.09,0,0,0-2,3.26 C 277.57,336.1,277.13,335.78,276.84,335.55Z m 12.94,6.92 a 2.65,2.65,0,0,0,.13-.27 c -1,.78-2.67,1-1.71-1.75 s 2.25-4.15,3.22-1.78 c 0,0,0-.1,0-.27 a 61.62,61.62,0,0,0,7,2.13,10.11,10.11,0,0,0-.77,4.2 A 52.35,52.35,0,0,1,289.77,342.47Z m 10.47,2.72 a 2.27,2.27,0,0,0,.11-.38 c -.72.66-2.27,1.4-1.91-1.49 s 1.28-4.46,2.51-2 l 0-.22 a 37,37,0,0,0,6.9.63 c 0,.87.07,2.51,0,4 A 45.21,45.21,0,0,1,300.25,345.18Z m 17.09-1.12 a 10.2,10.2,0,0,0-.91-3.91,39.7,39.7,0,0,0,4.46-1.71,2.25,2.25,0,0,0,.1.23 c .15-1,.89-2.51,2.42,0 s 1.79,4.28-.68,3.16 l 0,0 A 38.19,38.19,0,0,1,317.33,344.06Z"/>
    <path d="M 270.5,348.51 a 8.25,8.25,0,0,0,12.93-5.14 A 11,11,0,0,1,270.5,348.51Z"/>
    <path d="M 299.71,344.75 a 19.56,19.56,0,0,1,.51-3.59 A 4.93,4.93,0,0,0,299.71,344.75Z"/>
    <path d="M 315.44,344.4 a 4.93,4.93,0,0,0-.94-3.51 A 19.56,19.56,0,0,1,315.44,344.4Z"/>
    <path d="M 321.52,338.3 a 19.56,19.56,0,0,1,1.85,3.12 A 4.93,4.93,0,0,0,321.52,338.3Z"/>
    <path d="M 290.39,338.72 a 4.93,4.93,0,0,0-1.26,3.4 A 19.56,19.56,0,0,1,290.39,338.72Z"/>
    <path d="M 280,337.47 a 19.55,19.55,0,0,1,1.78-3.16 A 4.93,4.93,0,0,0,280,337.47Z"/>
  </g>
<script type="text/ecmascript" xlink:href="param.min.js"/> 
</svg>
