<?xml version="1.0"?>
<svg xmlns="http://www.w3.org/2000/svg" xmlns:xlink="http://www.w3.org/1999/xlink" viewBox="0 0 600 600">
  <title>basic-tank-top-slender</title>
  <g id="main-colour">
    <path d="M 338.07,250.13 c -2.21-1.92-4.32-3.84-5.89-5.3 l -.19-.12 c -3.33-2.33-7.83-9-9.5-11.92-.87-1.52-2.29-3.86-3.47-5.77 l -3.45.77 c 1,2.93,4.83,7.58,5.67,14.75,1,8.91-7.64,12.87-20,5.5-9.08-5.42-12.42-18.16-13.58-21.75-.42.17-2.26,1.09-3.78,1.8 a 37.68,37.68,0,0,1,2.65,12.53 c .23,7.8-5.18,15.57-15.45,17.74.45,6.82,1.88,15.26,2.66,19.76,1.63,9.38,4.66,20.41,6.5,28.91,3.38,15.59.78,18.59-6.39,31 a 121.7,121.7,0,0,0-8,15.69,44,44,0,0,1,9.41-.44 c 8.33.5,20.67,4.75,32.67,4.83,10.74.07,16.21-1.53,22.62-6.65-.66-1.59-1.58-3.58-2.85-6.1-4-7.92-4.57-12.7-4.73-21.12 s 1.82-20.63,3.91-27.88 c .72-2.5,1.72-5.49,2.76-8.8 a 22.85,22.85,0,0,0,4.54-.62 c 7.92-2,14.75-8.42,15.25-18.5 S 342.48,254,338.07,250.13Z" fill="param(main_colour)"/>
  </g>
  <g id="outline">
    <path d="M 271.23,268.19 c 2.5,9.5,6.15,21.81,8.36,31.38,1.85,8,3.7,15.63,3,23.92-.69,7.75-2.53,16.72-6.19,22.39,4.07-9.88,5.5-23.87,2.82-37.26 C 276.65,296.07,271.29,273.38,271.23,268.19Z"/>
    <path d="M 342,252.15 c -6.17-3.83-14.1-11.9-14.1-11.9,1.72,3.27,8.13,9.63,14.5,14.38,8.39,6.25,6.74,19,2.5,24.38-4.52,5.71-10.83,7.42-16.17,8.07 l -.37,1.19 c 9.28.54,18-4.53,21.14-12.81 C 352.48,267.56,350.6,257.49,342,252.15Z"/>
    <path d="M 289.35,285.05 A 29.19,29.19,0,0,0,311,289.76 C 304.17,293.63,294,291.6,289.35,285.05Z"/>
    <path d="M 270.73,350.63 s 3.25-1.12,13.75,1.5,31,6.25,40.25.5 A 41.37,41.37,0,0,1,310.86,355 a 127.21,127.21,0,0,1-23.21-2.83 C 280.27,350.56,273.61,349.25,270.73,350.63Z"/>
    <path d="M 264,355.17 s 5.66-2.33,17.52-.17 c 12.25,2.23,37,8.88,49.25-2.75 a 4.6,4.6,0,0,0-.5-1.25,31.28,31.28,0,0,1-18.75,6.5 c -11.37.13-19.5-2-24.62-3 s -16.81-3.87-21.62-1.12 C 264.73,354,264,355.17,264,355.17Z"/>
    <path d="M 282.53,315.53 h 0 c -2,11.61-12,24.94-16.6,34.86-.76,1.63-1.41,3.24-2,4.79,1.55-.4,2.76-.69,2.76-.69 h 0 c .81-2,1.64-3.8,2.37-5.23,2.54-5,9.81-16.3,13.37-25.29 A 71.2,71.2,0,0,0,282.53,315.53Z"/>
    <path d="M 276.68,288.08 a 154.43,154.43,0,0,1-3.2-19,89.38,89.38,0,0,1-1-18.68 h -2.55 a 112.56,112.56,0,0,0,1.33,18.33 A 116,116,0,0,0,276.68,288.08Z"/>
    <path d="M 330.18,352.76 a 8.24,8.24,0,0,0,1.26-1.32,58.88,58.88,0,0,0-2.47-5.81 c -3-6.13-5.8-11.93-4.5-26.84.86-9.82,4-20.85,6.64-31.3-.92.14-1.89.26-2.63.35-5.21,18.4-8.66,32-6,45.87,1.62,7.4,5.14,12.84,7.71,19.05Z"/>
    <path d="M 282.65,227.55 s 5.79,12,1.29,21.25 c -3.54,7.27-13.42,8.92-13.92,8.67,0,.75.17,1.83.17,1.83 a 20,20,0,0,0,12.17-5.58 c 6.42-5.92,5.83-19.58,1.83-26.67 A 8.17,8.17,0,0,1,282.65,227.55Z"/>
    <path d="M 286.61,225.63 s 2.59,7.3,4.38,11.38 c 3.78,8.63,12.93,16,23.17,15.54 s 10.61-11.29,1.52-25.85 c -.87.46-1.4.77-1.4.77 a 35.87,35.87,0,0,1,5.63,11.92 c 1.81,7.88,0,10.08-3.75,11.5-4.36,1.65-15.46-1.83-20.58-8.83-4.19-5.73-4.79-11.5-7.63-17.5 C 287.27,225.13,286.61,225.63,286.61,225.63Z"/>
    <path d="M 318.94,225.73 s 2.06,3.21,6.18,10 a 41,41,0,0,0,7.84,9.38 l .88,2.16 a 50.19,50.19,0,0,1-8.33-8.66 c -3.83-5.59-4.06-7.27-8.38-12.46 A 8.33,8.33,0,0,1,318.94,225.73Z"/>
    <path d="M 314.27,227.46 a 9.57,9.57,0,0,1,4.67-1.73,13.7,13.7,0,0,1,1,1.6,18.53,18.53,0,0,0-2.58.79 c -1,.44-1.64.88-1.89.94 A 6.08,6.08,0,0,0,314.27,227.46Z"/>
    <path d="M 284.19,227 a 16.5,16.5,0,0,0,2.42-1.42 c .94.44.81,1.88.81,1.88 a 14.55,14.55,0,0,1-2.56,1.44 C 283.92,229.25,284.19,227,284.19,227Z"/>
  </g>
<script type="text/ecmascript" xlink:href="param.min.js"/> 
</svg>
