<?xml version="1.0"?>
<svg xmlns="http://www.w3.org/2000/svg" xmlns:xlink="http://www.w3.org/1999/xlink" viewBox="0 0 600 600">
  <title>midi-crew-neck-t-shirt-slender</title>
  <g id="main-colour">
    <path d="M 271.26,250.29 c -1.25,5.92,1.32,21.18,2.47,27.83,1.63,9.38,4.66,20.41,6.5,28.91,3.38,15.59.78,18.59-6.39,31-7,12.12-9,16.95-11.41,26.55,2.8-1.57,8.23-3.48,16.79-2,13.38,2.38,24.5,7.25,36.5,5.25,8.9-1.48,13.33-5,16.25-9.47-.15-.46-.29-.92-.47-1.37,0,0,.6.35.6.34.08-1.37-.43-4.08-4.43-12 s -4.57-12.7-4.73-21.12,1.82-20.63,3.91-27.88,6.59-18.59,7.33-30.33 c .59-9.21-1.19-15.76-3.59-20.81 a 11.19,11.19,0,0,0-14.31-16.6,3.12,3.12,0,0,0-1.56-.2 l -.14-.05 c 1,2.93,2.2,7.11,1.9,10.13-.5,5.13-11.87,10.5-22.12,3.38 a 26.57,26.57,0,0,1-10.29-13.63,14.27,14.27,0,0,1-2.16.69 c -7.45-6.36-19.55-1.14-20,7.95 S 267.93,249.21,271.26,250.29Z" fill="param(main_colour)"/>
  </g>
  <g id="outline">
    <path d="M 332.28,359.12 s .43-.62.91-1.35 A 47,47,0,0,0,329,345.63 c -3-6.13-5.8-11.93-4.5-26.84,1-11.72,5.23-25.16,8.13-37.27 a 14.84,14.84,0,0,1-2.81,1.72 c -5.92,20.79-10.18,35.49-7.32,50.47,2.14,9.8,7.62,16.16,9.82,25.42Z"/>
    <path d="M 284.41,226.93 a 11.64,11.64,0,0,1-2.89.89 c -.18,1.23,1.49,1.9,1.49,1.9 a 9.26,9.26,0,0,0,2.17-.83 S 284.8,228,284.41,226.93Z"/>
    <path d="M 316.63,226.24 a 18.37,18.37,0,0,0-3.58,2,11.12,11.12,0,0,1,.81,1.53,21.51,21.51,0,0,0,2.77-1.33 l .54-.24 a 11.26,11.26,0,0,1,8.35-.33 C 322.94,225.38,318.51,225.38,316.63,226.24Z"/>
    <path d="M 327.9,240.25 a 41.31,41.31,0,0,1,6.73,17.23 c 1.67,10.58-.86,19.54-2,24-1.57,2.57-2.81,1.72-2.81,1.72 S 338,260.57,327.9,240.25Z"/>
    <path d="M 305.06,246.19 c -15.89,0-22.08-17.42-22.15-17.61 l 1.89-.65 a 31.14,31.14,0,0,0,5.49,9.15 c 5,5.7,11.14,8,18.28,6.81,3.16-.52,5.27-1.82,6.26-3.84,2.19-4.49-1.44-11.25-1.47-11.31 l 1.76-1 c .17.31,4.15,7.74,1.51,13.15-1.29,2.64-3.89,4.31-7.73,4.94 A 23.47,23.47,0,0,1,305.06,246.19Z"/>
    <path d="M 310.44,369.13 c -8,0-16.45-2.14-24.39-4.29-16.77-4.54-23.29.74-23.35.79 l -.61-2.48 c .28-.22,8-5.27,25.43.06,18.77,5.74,37.78,6.29,44.72-7 l 1,1.52 C 328.29,366.13,319.14,369.13,310.44,369.13Z"/>
    <path d="M 274,227.22 a 11.14,11.14,0,0,1,6.16,1.85 h 0 l 1.56.85 c .76-.15,1.54-.21,2.07-.37 a 13.53,13.53,0,0,0-9.78-4.33,13.2,13.2,0,0,0-1.54,26.31 c 0-.54,0-2,0-2 h 0 A 11.2,11.2,0,0,1,274,227.22Z"/>
    <path d="M 271.23,268.19 c 2.5,9.5,6.15,21.81,8.36,31.38,1.85,8,3.7,15.63,3,23.92-.69,7.75-2.53,16.72-6.19,22.39,4.07-9.88,5.5-23.87,2.82-37.26 C 276.65,296.07,271.29,273.38,271.23,268.19Z"/>
    <path d="M 276.68,288.08 a 154.43,154.43,0,0,1-3.2-19,89.38,89.38,0,0,1-1-18.68 h -2.55 a 112.56,112.56,0,0,0,1.33,18.33 A 116,116,0,0,0,276.68,288.08Z"/>
    <path d="M 282.53,315.53 h 0 c -2,11.61-12,24.94-16.6,34.86 A 60.3,60.3,0,0,0,261,366.77 a 23.67,23.67,0,0,1,2.29-1.56 h 0 a 70.79,70.79,0,0,1,5.76-15.95 c 2.54-5,9.81-16.3,13.37-25.29 A 71.2,71.2,0,0,0,282.53,315.53Z"/>
    <path d="M 317.86,334.38 a 52,52,0,0,0-3.69,23.81 C 314.3,348.27,317.86,334.38,317.86,334.38Z"/>
    <path d="M 267.11,359.63 s 6.25-3,19,1.13,23.13,5.13,27.5,4.38 a 89.8,89.8,0,0,1-17.5-2.18 C 289.61,361.45,273.86,354.75,267.11,359.63Z"/>
  </g>
<script type="text/ecmascript" xlink:href="param.min.js"/> 
</svg>
