<?xml version="1.0"?>
<svg xmlns="http://www.w3.org/2000/svg" xmlns:xlink="http://www.w3.org/1999/xlink" viewBox="0 0 215 215">
  <title>slender-top-template</title>
  <g id="skin-tone">
    <path d="M 107.43,96.17 A 11.2,11.2,0,0,0,96.3,107.45 l -.89.37 c .08,2.56.64,18.53,2.28,36.47,1.8,19.59,5.19,38.23,6.47,43.39 h 0 a 5.31,5.31,0,0,0,10.59-.55 s .15-13.1,1.06-27,2.58-33.52,3-38.77 c .29-4,.61-10.12.74-12.77 l -.83-1.31 A 11.2,11.2,0,0,0,107.43,96.17Z" fill="param(skin_tone)"/>
  </g>
  <g id="main-colour">
    <path d="M 95.69,116.76 s 12.33,6.33,23.43,0 c .25,4.38-.94,12.38-.94,12.38 a 23.35,23.35,0,0,1-21.82-.25Z" fill="param(main_colour)"/>
  </g>
  <g id="outline">
    <path d="M 120.68,107.65 c 0-.12,0-.24,0-.37 a 13.2,13.2,0,1,0-26.27,1.85,5.43,5.43,0,0,0,0,.76 c .29,6.35,1.17,24,2.67,39 a 345.37,345.37,0,0,0,6.26,39.24,6.18,6.18,0,0,0,.2.86 h 0 a 6.21,6.21,0,0,0,12.13-1.91 c 0-8.53,2-40.11,3-51.39.56-6.29,1.14-14.4,1.54-20.35.25-3.59.38-5.63.46-6.71,0-.07,0-.15,0-.22,0-.61.05-.84.05-.84Z m -24.34-1.15q0-.38.09-.75 a 11.19,11.19,0,0,1,22.14,0 c 0,.22.06.45.08.67 s .05.6.05.91 c 0,1.92-.37,7.59-.37,7.59 h 0 l -.07,1.05 c -9.35,5.4-18.38,1.73-21.61.06 l -.05-1.19 h 0 c -.23-3.13-.3-7.37-.3-7.37 C 96.3,107.13,96.32,106.82,96.34,106.51Z m .4,11.32 c 10.72,4.75,18.69,1.54,21.39.11-.21,3.06-.47,6.59-.75,10.33 a 21,21,0,0,1-20.09,0 C 97.07,124.52,96.89,120.94,96.74,117.82Z m 17.77,49.71 c -.26,5.43-.51,11.34-.67,15.24,0,2.32-.18,4.36-.18,4.36 a 4.2,4.2,0,0,1-8,1.78 l -.07-.16 c -.43-1.13-1.35-4.89-1.35-4.89-1.78-8-4-23-5.32-34.72-.6-5.49-1.1-12.46-1.5-19.13,9.85,4.27,16.93,1.78,19.84.29 C 116.12,145.09,114.76,162.42,114.51,167.54Z"/>
  </g>
<script type="text/ecmascript" xlink:href="param.min.js"/> 
</svg>
