<?xml version="1.0"?>
<svg xmlns="http://www.w3.org/2000/svg" xmlns:xlink="http://www.w3.org/1999/xlink" viewBox="0 0 215 215">
  <title>professionally-pink-slender</title>
  <g id="skin-tone">
    <path d="M 107.13,163.09 a 11.26,11.26,0,0,0-3.55.85,67.39,67.39,0,0,0,1.32,8.41 H 105 a 3.32,3.32,0,0,0,6.56-.46 h 0 a 54.79,54.79,0,0,0-.25-8.23 l 0-.18 A 9.61,9.61,0,0,0,107.13,163.09Z" fill="param(skin_tone)"/>
  </g>
  <g id="main-colour">
    <path d="M 101.9,152 c .14.77.28,2.24.4,3.16 l 1.17-.22 a 17.64,17.64,0,0,1,7.26.09,55.62,55.62,0,0,1,1-9.6 c 1.39-6.5,2.69-21.16,2.23-28.17 a 30.49,30.49,0,0,0-2.45-11.07,4.18,4.18,0,0,0-.57-1.12 l 0,0 h 0 a 4.16,4.16,0,0,0-6-.82 h 0 s -1.55.67-3,4.92-2.16,13.75-2,18.5 S 100.38,143.4,101.9,152Z" fill="param(main_colour)"/>
  </g>
  <g id="accent-colour-2">
    <path d="M 103.57,166.94 s -2.81.5-3.87-1.12.81-3.69.81-3.69 a 3.36,3.36,0,0,1-.75-4.75 c 1.87-2.94,7.81-3.19,11.12-2.06 s 4.56,4,3.38,5.94 c 1.06,1.44,1.38,4.81-2.37,5.13 a 18.51,18.51,0,0,0-.59-2.72 s -4.48-1.34-7.79.54 C 103.51,165.26,103.57,166.94,103.57,166.94Z" fill="param(accent_colour_2)"/>
  </g>
  <g id="outline">
    <path d="M 114.95,161.51 l -.12-.12 a 3.18,3.18,0,0,0-.13-4,7.91,7.91,0,0,0-2.87-2.14,125.52,125.52,0,0,1,1.62-14.3 c 1.39-8.86,3.9-27.12-2.54-35.9.2.32,2.19,3.86,2.26,16.28.08,13.08-2.34,21.42-3.18,30.83-.06.69-.14,1.7-.17,2.43 a 13.67,13.67,0,0,0-3.26-.33,15.28,15.28,0,0,0-3.46.43 c -.2-1.43-.42-3.16-.65-4.66-1.37-8.82-2.21-26.79-.87-36 s 3.31-9.88,3.31-9.88 c -5.44,1.78-6.06,16-6,27.55 a 171.37,171.37,0,0,0,2.23,23.65,4.45,4.45,0,0,0-2.7,3.24,3.78,3.78,0,0,0,1.18,3.62 A 3.49,3.49,0,0,0,98.7,165 c .26,2.26,2.6,2.65,4,2.69.19,2.61.19,4.14.19,4.14 a 5.31,5.31,0,0,0,5.33,5.16 h .18 a 5.32,5.32,0,0,0,4.75-7.35 c -.14-.7-.31-1.58-.48-2.55 C 115.34,166.46,116.82,163.55,114.95,161.51Z M 108.32,175 h -.11 a 3.33,3.33,0,0,1-3.33-3.22 c -.05-1.42-.24-4.11-.6-7.63 a 13.65,13.65,0,0,1,6-.3,71.84,71.84,0,0,0,1.28,7.72 A 3.33,3.33,0,0,1,108.32,175Z m 4.13-9.25 c -.07-.49-.14-1-.21-1.5 l .73.19 c -.87-2.33-9.92-2.54-11.21.92 a 4.68,4.68,0,0,1,.7-.46 c .05.52.1,1,.14,1.49-1.5-.11-2.58-.72-2.58-1.74,0-1.25,1.44-2.94,4.69-4.69 a 7.79,7.79,0,0,0-4,1.38,2.72,2.72,0,0,1-.53-3.45 c .81-1.44,4-2.5,6.44-2.5 s 5,.25,6.75,2 a 2.78,2.78,0,0,1,.57,3.27,7.31,7.31,0,0,0-4.07-.9 s 4.5,1,4.63,3.44 A 2.47,2.47,0,0,1,112.45,165.74Z"/>
  </g>
<script type="text/ecmascript" xlink:href="param.min.js"/> 
</svg>
