<?xml version="1.0"?>
<svg xmlns="http://www.w3.org/2000/svg" xmlns:xlink="http://www.w3.org/1999/xlink" viewBox="0 0 600 600">
  <title>slender-bottoms-template</title>
  <g id="skin-tone">
    <path d="M 335,248.46 c -1-1-2-1.93-2.83-2.87 l -.08,0-1.18-1.34 a 10.81,10.81,0,0,0-5.37-16.11v-.27 a 11.12,11.12,0,0,0-9.24.73,3.12,3.12,0,0,0-1.56-.2,12,12,0,0,1-8.28-8.84,73.66,73.66,0,0,1-1.49-11.94 c -1.86.14-3.74.22-5.64.22q-2.61,0-5.17-.18 c -.13,2.22-.56,8.42-1.37,10.5-1,2.56-3.33,9-10.86,10.75-7.45-6.36-19.55-1.14-20,7.95 s 6,12.33,9.33,13.42 c -1.25,5.92,1.33,21,3.17,27.5 s 6.92,19.67,9.08,28.08 c 1.9,7.38-1.45,17-7.13,27.62 a 51.77,51.77,0,0,0,11.34,5.74 c 10.8,4.07,25.28,7.4,37.49-1 a 41.05,41.05,0,0,1-2.27-13.93 c -.17-8.42,1.82-20.63,3.91-27.88,1-3.41,2.49-7.72,3.9-12.55 A 8.79,8.79,0,0,0,334.8,282 a 20.45,20.45,0,0,0,8.92-15.42 C 344.12,259.91,342.39,256.38,335,248.46Z" fill="param(skin_tone)"/>
  </g>
  <g id="main-colour">
    <path d="M 331,352.65 a 140.8,140.8,0,0,1-6.12-14 l -.81.48 c -.25-.69-.48-1.4-.71-2.11 a 33.89,33.89,0,0,1-15.16,4.7 c -9.56.57-23.23-5.92-29.7-9.3 l -.84,1.57-.66-.46 s -3.87,6.63-6.12,10.13 A 57.86,57.86,0,0,0,262.14,370 a 24.81,24.81,0,0,0,2.68,13,24,24,0,0,0,39.09,6.26,24,24,0,0,0,29.29-23.41 h 0 C 333.75,362.61,332.76,355.77,331,352.65Z" fill="param(main_colour)"/>
  </g>
  <g id="fixed-colours">
    <circle cx="313.6" cy="351.79" r="1.94" fill="#a7a9ac"/>
  </g>
  <g id="outline">
    <path d="M 260.51,372.76 a 57.69,57.69,0,0,1,5.42-22.38 c 5.5-11.83,18.62-28.5,16.79-41.33 s -9-25.33-11.46-40.33 a 112.55,112.55,0,0,1-1.33-18.33 h 2.55 s -.81,12,1.8,22.5,7.29,21.16,9.46,29.28,2.31,11.42-.46,19.63 c -3.12,9.25-11.43,22.1-14.18,27.47 s -6.83,15.88-6.58,23.5 C 262,373.5,260.51,372.76,260.51,372.76Z"/>
    <path d="M 324.47,318.79 c 1-11.14,4.82-23.83,7.69-35.45 a 17.35,17.35,0,0,1-2.58.63 c -5.81,20.41-9.94,34.93-7.11,49.74,2.62,12,10.25,18.83,10.73,32.17.5-2,1.62-8.25-4.23-20.25 C 326,339.5,323.16,333.7,324.47,318.79Z"/>
    <path d="M 309.07,381 a 24,24,0,0,1-46.56-8.22 s -.43-5.55,3.16-15.53 a 26,26,0,1,0,45.66,23.29 A 13.75,13.75,0,0,1,309.07,381Z"/>
    <path d="M 311.33,380.5 l 0-.06Z"/>
    <path d="M 310.83,317.93 s -5.07,8.72-2.58,9.44 c 1,.2,1.7-1.44.9-3.34 A 29,29,0,0,1,310.83,317.93Z"/>
    <path d="M 309.21,381 a 11.07,11.07,0,0,1,0,2 c 1.82-.26,6.35-2.53,7.82-5.6 C 317,377.36,314.68,380.16,309.21,381Z"/>
    <path d="M 278.46,228.15 s 3,1.65,6,3.31,7.83,2.25,12.5,1.42 c -3.92,0-10.23-.88-14.74-4.73 A 7.09,7.09,0,0,0,278.46,228.15Z"/>
    <path d="M 293.57,207.64 c 0,1.77-.57,18.2-12,20.18-.18,1.23,1.49,1.9,1.49,1.9 s 11.68-2.25,12.15-22Z"/>
    <path d="M 316.63,228.44 a 26.5,26.5,0,0,1-10.12,3.19 c 3.75-1.17,9.06-5.28,10.12-5.39,1.88-.86,6.31-.86,8.89,1.64 a 11.26,11.26,0,0,0-8.35.33Z"/>
    <path d="M 306,207.56 l -1.48.12 a 41.37,41.37,0,0,0,1.15,11.62 c 1.67,7.92,8.08,9.64,8.08,9.64 a 3.06,3.06,0,0,0,1.42-1.05 C 306.62,225,306.51,215.58,306,207.56Z"/>
    <path d="M 311.12,230.57 s 2-.85,6.2-2.46"/>
    <path d="M 272.45,249.51 h 0 a 11.2,11.2,0,1,1,7.7-20.44 h 0 c 2.33,1.28,5.19,2.79,5.32,2.86 a 13.2,13.2,0,1,0-13,19.6 C 272.49,251,272.45,249.51,272.45,249.51Z"/>
    <path d="M 308.75,247.63 a 23.49,23.49,0,0,1,12.51,18.75,19.92,19.92,0,0,1-29.12,19 c 8.5,2.63,18.13,1,24.38-9 S 317.24,253,308.75,247.63Z"/>
    <path d="M 327.9,240.25 a 102.91,102.91,0,0,0,8.24,8.88 c 4.84,4.57,10.88,10.4,8.63,21.13-2,9.5-11,15-18.75,14,6-.49,9.75-2.49,13.5-8.12,3.19-4.79,4.13-12.5,1.75-18 S 330.66,246.25,327.9,240.25Z"/>
    <path d="M 278,331.86 s 9.92,5.17,17.29,7.46,11.79,2.21,13.42,2.08 a 34.89,34.89,0,0,0,14.83-4.71,9.71,9.71,0,0,0,.4,1.27 s -7.17,4.44-15.12,4.69-17.6-2-31.44-9.56 A 10,10,0,0,1,278,331.86Z"/>
    <path d="M 268.05,349.88 s 40.67,14.33,62,0 l .67,1.83 s -18.33,14.17-63.33-.5 C 267.05,350.55,268.05,349.88,268.05,349.88Z"/>
    <path d="M 311.39,360.71 s .67,6.33-1.5,19 C 312.55,375.21,313.05,365,311.39,360.71Z"/>
    <path d="M 318.39,359.88 s .83,6-1.33,15.83 C 320.39,369.71,319.22,363,318.39,359.88Z"/>
    <path d="M 313.6,349.58 a 2.31,2.31,0,1,0,2.31,2.31 A 2.31,2.31,0,0,0,313.6,349.58Z m 0,3.88 a 1.56,1.56,0,1,1,1.56-1.56 A 1.56,1.56,0,0,1,313.6,353.45Z"/>
  </g>
<script type="text/ecmascript" xlink:href="param.min.js"/> 
</svg>
