<?xml version="1.0"?>
<svg xmlns="http://www.w3.org/2000/svg" xmlns:xlink="http://www.w3.org/1999/xlink" viewBox="0 0 600 600">
  <title>voluptuous-top-template</title>
  <g id="main-colour">
    <path d="M 231,420.63 s -6-27.42-4.17-50.75,3.83-33.5,11.83-47,12.67-16.67,13.33-25.17-7.17-20-6.5-31.67 c 9.33,3,21.83,1.17,28-6.67 s 10.17-19-3.17-32.17 A 13.06,13.06,0,0,0,277,224.5 c 3.67,4.83,12.38,18,20.21,21.88 s 14.92,3.5,19.42-.12 c 3.43-2.76,7.75-6.87,7.5-21.12 a 9.21,9.21,0,0,0,5.08,1.58 A 135.79,135.79,0,0,1,342,247 c 5.17,10.5,7.59,16.89,5.46,24-2.37,7.88-6.3,19-6.3,23.88 s .33,7.33,4.83,13.17,11.67,20.17,15.5,39.17,8,49.5,8.67,67.17 c -13.67,4.17-24.5,4.67-37.67,4 S 309,417,295.38,414,254.38,406.46,231,420.63Z" fill="param(main_colour)"/>
  </g>
  <g id="outline">
    <path d="M 354,319.71 c -5.92-12.95-12.67-18.08-12.17-23.33.3-3.2,2.28-10.29,4-17.55 a 22.1,22.1,0,0,0,3.5-9.79,19.57,19.57,0,0,0-1.76-10.21 c -2.73-10.78-11.79-26.05-18.24-32.71 a 7,7,0,0,1-6.37-3 c 2.25,8.75-1.25,25.38-15.87,25.38 s -29.87-25.25-29.87-25.25 a 18,18,0,0,1-8.37,3.38 s 8.5,6.75,9.5,15.63-3.25,17.88-13.25,22-20.75.75-20.75.75.25,10.13,3.25,17.88,4.75,14,2.38,19.88 S 238.3,320,233.38,331 c -6.67,15-9,46.08-3,91.08,13.67-10.33,41-13.17,63.67-7.5 s 54,8.08,77.33.42 C 368.71,371.71,363,339.38,354,319.71Z m -25.67,97.92 a 208,208,0,0,1-35-5 c -12.83-3-40-6.33-61.83,6.83-1.5-19.67-5.33-36.08-2.17-63.08 s 14.67-40,18.33-45.5,7.17-12.5,4.17-21.33 a 119.84,119.84,0,0,1-5.17-22 s 14.17,3.5,23.5-3.83,9.67-14.17,9.83-19.5-5-14.17-8.5-16.67 a 14,14,0,0,0,5.33-2.17 c 5.83,9.17,14.34,21,25,23.67,9.17,2.33,16.38-.92,20.13-7.79,2.64-4.85,2.75-15,2.75-15 a 6.38,6.38,0,0,0,4.13,1.13 c 4.34,5.15,11.75,17.12,15.27,25.9 a 23.38,23.38,0,0,0-2.93-3.06 s 6.33,9.67,6,16.5 c -.41,8.33-4.17,14.5-9.33,20 a 24.22,24.22,0,0,0,4.64-3.71 c -1.26,4.44-3.11,11.89-2.67,14.21.5,2.67,2,7,6,12.17 s 10.17,20,12.83,30.67,7.33,28,10.5,73.5 C 357.88,417.21,346.6,418.84,328.38,417.63Z"/>
    <path d="M 284.55,288.38 c 10.33,2.33,20.17-1.5,23.17-9.67 A 27.64,27.64,0,0,1,284.55,288.38Z"/>
  </g>
<script type="text/ecmascript" xlink:href="param.min.js"/> 
</svg>
