<?xml version="1.0"?>
<svg xmlns="http://www.w3.org/2000/svg" xmlns:xlink="http://www.w3.org/1999/xlink" viewBox="0 0 150 150">
  <title>basic-flip-flops</title>
  <g id="skin-tone">
    <path d="M 80.53,76.19 c .38-3.07-.75-6.75-5.25-6.83 a 5.68,5.68,0,0,0-6,6.64 c .65,2.78.63,5.62-1.35,8.27 s -3.69,7.38-1.32,9.46,4.35,2.55,5.2,5,1.8,6.91,6.05,6.91 c 2.27,2.93,5.39,3.41,7.76.76,2.18.38,3.6-.38,3.88-1.42,1.23,0,2.74-.38,3-1.7 a 3,3,0,0,0,2.84-2.08 c 1.23-1.23,2.18-3.69-1.23-4.54 s -8.89-2.18-11.35-7.95 S 80.11,79.53,80.53,76.19Z" fill="param(skin_tone)"/>
  </g>
  <g id="main-colour">
    <path d="M 96.61,99.44 a 5.51,5.51,0,0,1,.79,2.87 c -.08,1.5-.54,4.71-.54,4.71 a 12.64,12.64,0,0,1-6,4.29,24.71,24.71,0,0,1-12.75.92 c -2.79-.71-6.17-2.92-7.37-6.12 s -1.83-5.37-3.29-6.42-4.33-2.29-4.62-4.21 c 0-2.21-.17-4.67-.17-4.67 s 0-2.92,3.42-2.92 c -1,2.92-.42,6.08,4,7.63,2.46-.58,5-1,8.75,1.92 a 12.62,12.62,0,0,1,5.21-5.54,6.63,6.63,0,0,0,1.83,1.54 s -5.33,2.67-6.37,6.62 c -2.37-2.12-3.79-2.92-5.92-2.92 a 15.74,15.74,0,0,0-1.81.08 s 1.23,3.54,1.6,5.25,2.25,3.88,4,3.46 c 1.92,1.79,4.58,4.5,8.42.83,1.71.38,3,.21,4-1.79 a 2.07,2.07,0,0,0,2.63-1.7 c 1.41.12,2.74,0,2.91-2.21Z" fill="param(main_colour)"/>
  </g>
  <g id="fixed-colours">
    <path d="M 84.72,103.68 A 5.45,5.45,0,0,0,81,105.07 a 1.83,1.83,0,0,1,1.14-2.59 A 2.15,2.15,0,0,1,84.72,103.68Z" fill="#fff"/>
    <path d="M 88.33,102.34 a 3.41,3.41,0,0,0-2.16.92 c -.39-.75-.43-1.21.32-1.6 A 1.42,1.42,0,0,1,88.33,102.34Z" fill="#fff"/>
    <path d="M 91.46,101 a 2.08,2.08,0,0,0-1.74,1,1,1,0,0,1,.25-1.6 A 1.11,1.11,0,0,1,91.46,101Z" fill="#fff"/>
    <path d="M 94,99.5 a 3.24,3.24,0,0,0-1.45.89.94.94,0,0,1,.35-1.28 A 1,1,0,0,1,94,99.5Z" fill="#fff"/>
    <path d="M 95.39,97.94 s -.78.25-.89.92q-.74-1.12.11-1.28Z" fill="#fff"/>
  </g>
  <g id="outline">
    <path d="M 85,103.86 a 2.26,2.26,0,0,0-3-1.56,1.88,1.88,0,0,0-1,3 A 5.6,5.6,0,0,1,85,103.86Z m -2.84-1.21 a 1.89,1.89,0,0,1,2.34.85 A 5.05,5.05,0,0,0,81,104.71,1.62,1.62,0,0,1,82.13,102.66Z"/>
    <path d="M 91.74,101.17 a 1.46,1.46,0,0,0-1.92-1 c -.67.39-.82,1.14-.11,2 C 90.14,101.06,91.74,101.17,91.74,101.17Z m -1.67-.67 c .32-.14.71-.28,1.21.39 a 1.88,1.88,0,0,0-1.56.82 A .84.84,0,0,1,90.07,100.49Z"/>
    <path d="M 94.29,99.6 c -.35-.53-1-.89-1.49-.6 a 1.15,1.15,0,0,0-.28,1.7 A 2.47,2.47,0,0,1,94.29,99.6Z m -.43-.14 a 2,2,0,0,0-1.28.74 C 92.48,99.57,92.91,98.72,93.87,99.46Z"/>
    <path d="M 88.69,102.48 c -.6-.82-1.49-1.38-2.34-1 s -.82,1.17-.21,2 A 3.59,3.59,0,0,1,88.69,102.48Z m -2.09-.71 c .5-.21,1,0,1.53.43 a 3.35,3.35,0,0,0-1.88.82 C 85.78,102.41,86.1,102,86.6,101.77Z"/>
    <path d="M 97.77,102 c 0-.15,0-.24,0-.24 h 0 a 6.36,6.36,0,0,0-.71-2.44 A 3,3,0,0,0,95.94,97 c -1.7-1.61-4.87-1.55-7.6-3.22-7.83-4.79-7-13.52-6.8-17.17,0-.54.21-1.07.21-1.64 A 6.76,6.76,0,0,0,75,68.25 h 0 A 6.76,6.76,0,0,0,68.25,75 c -.11,1.46.72,3.16.53,5.25 s -1.23,3.45-3.27,6.62 a 4,4,0,0,0-3.34,3.32 h 0v.15 a 4.5,4.5,0,0,0,0,1.55 l .08,3.27 s 0,2.33,3.31,3.71 c 2.94,1.23,4,5.07,4.69,7.06,1.19,3.63,4.63,7.31,11.94,7.25 s 12.65-2.48,15-6 a 28.57,28.57,0,0,0,.51-4.16 A 5.88,5.88,0,0,0,97.77,102Z m -2.47-1.56 a 2.69,2.69,0,0,0-.67-1.66,1.23,1.23,0,0,1,.71-.65 A 1.64,1.64,0,0,1,95.3,100.46Z m -.19-2.52 s -.6.28-.64.64 C 94.15,98.15,94.26,97.44,95.11,97.94Z M 93.9,97.3 a 2.9,2.9,0,0,1,.62.21,1.15,1.15,0,0,0-.37.14.51.51,0,0,0-.17.63,4,4,0,0,0-1.78-.34,8.46,8.46,0,0,1-3.33-.5 c .57.71,2.13,1,3.48,1.06 a 2.3,2.3,0,0,1,2.41,2.13 c 0,1.21-1.35,2.2-2,1.56-.43-3.41-2.84-3.26-3.69-3.26 a 7.41,7.41,0,0,1-3.26-.85 c .78.92,1.84,1.21,3.48,1.42 s 2.63,1.06,2.77,2.48 a 1.92,1.92,0,0,1-2.2,2.2 c 0-3.48-2.77-3.83-4-4 a 5.74,5.74,0,0,1-3.22-1.35 c .18.85,1.95,1.84,3.72,2.2 s 2.55,1.06,2.77,2.41 a 2.33,2.33,0,0,1-3.05,2.27,4.21,4.21,0,0,0-3.83-4.82,4.87,4.87,0,0,1-2.51-.76 A 11.85,11.85,0,0,1,85.87,94 L 86,94 A 20.12,20.12,0,0,0,93.9,97.3Z m -16.7,7.41 c -2-.27-2.78-3.39-3.92-6.79-.06-.19-.13-.35-.2-.52 l .31,0 c 2.1-.1,4.63,1.68,5.8,2.74 a 3.94,3.94,0,0,0,3,1.36 c 1.7.07,3.69,2.34,2.91,4.4-2.91,2.77-6,.78-7.1-1.14 a 12.14,12.14,0,0,0-1.56-1.67 A 4,4,0,0,1,77.2,104.71Z m -4-9.31 a 9.23,9.23,0,0,1,5.88,2.5,10.64,10.64,0,0,1,4.88-5.46 l .55.46 c .24.22.48.43.74.62 h 0 c -1.75.58-4.62,3.25-5.79,6.08-2-1.83-4.67-3-6-3 a 10.37,10.37,0,0,0-3.08.54 l -1.25-1 A 15.33,15.33,0,0,1,73.19,95.4Z m -5.35-9.05 c 1.19-1.88,2.3-3.22,2.69-5.39 a 19.71,19.71,0,0,0-.25-5.58 c 0-.24,0-.39,0-.39 A 4.75,4.75,0,0,1,75,70.25 h 0 A 4.75,4.75,0,0,1,79.75,75 s -.12,1.13-.2,2.74 c 0,0-.67,8.82,4,14.18 a 10.68,10.68,0,0,0-4.67,5.19,8.91,8.91,0,0,0-5.79-2.25,15.25,15.25,0,0,0-1.69.18 c -1-.68-2.13-.83-3.34-1.87 C 66,91.38,66.52,88.43,67.84,86.35Z m -3.1,2.23 c -.77,2.8.72,5.61,2.36,6.41 l 1.59.74-1,.34 a 4.2,4.2,0,0,1,2.5,2,2.5,2.5,0,0,1,.79-.34,7.43,7.43,0,0,1,.54,1.17 c 1,2.84,1.66,7.79,5.45,7.69,2.46,3.5,7.1,3.6,9.08.85 a 3.34,3.34,0,0,0,4.07-1.8 s 2.46-.09,2.65-1.51 c 2.08-.09,3-1,3.12-2.65 a 4.52,4.52,0,0,0,.68-.86,5.68,5.68,0,0,1-2.68,6.23 c -5,3.24-14.84,4.74-18.57.93 s -4.14-9.52-7.85-11.27 C 63.43,94.59,62.16,90,64.74,88.58Z m 31.75,18.36 a 14.11,14.11,0,0,1-6.08,4 c -4.11,1.36-9.87,2.21-13.94.21 s -5.06-4.25-6.06-7-2-5-4.25-5.94 a 5.16,5.16,0,0,1-2.87-2.6 l -.05-1.35 A 7.92,7.92,0,0,0,66,96.78 a 9.35,9.35,0,0,1,4.67,5 c 1.13,2.5,2.13,7.17,8,8.8 s 11.24-.32,15.17-2.47 a 8.19,8.19,0,0,0,2.77-2.36Z"/>
  </g>
<script type="text/ecmascript" xlink:href="param.min.js"/> 
</svg>
