<?xml version="1.0"?>
<svg xmlns="http://www.w3.org/2000/svg" xmlns:xlink="http://www.w3.org/1999/xlink" viewBox="0 0 600 600">
  <title>nurse-hourglass</title>
  <g id="main-colour">
    <path d="M 346.86,400.54 c 0-15.33-.83-29-7.5-42 s -8.17-15-11.5-19 c -1.72-2.06-4.63-6.38-7-10.08 a 16.16,16.16,0,0,1-.76-7 c .42-5.25,4.92-13.67,8.5-19.67,2.41-4,3.66-9.31,4.56-12.51 l 1.1-7,.11-.54 c 2-2.17,5.11-6.13,6.39-10.5,1.92-6.58-.67-14.17-3.25-17.75 L 332.82,248 a 12.11,12.11,0,0,0,1.45-1.63 h 0q.27-.36.51-.74 l 0,0 c .15-.24.29-.48.42-.73 l .1-.2 c .12-.23.24-.47.34-.71 l .07-.18 a 11.91,11.91,0,0,0,.41-1.17 c .06-.2.12-.41.17-.61 s .07-.31.1-.46.09-.49.12-.74,0-.26,0-.39 c 0-.38.06-.77.06-1.17 h 0 a 12,12,0,0,0-12-12,11.68,11.68,0,0,0-1.78.15 c -2.78-8-14.23-9-14.23-9 a 11.69,11.69,0,0,1,3.81,5 l 1.31,5.89 c .63,5.25-2,13.44-5.25,17.75-1.25-1.87-8.5-6.81-12.25-9.69 s -7-5.12-8.69-8.75 c -1.1-2.36-1.06-4-.6-5.3.54-.66,1.45-1.82,2.54-3.45 a 14.45,14.45,0,0,0-11.35,8.19 c -.94.35-1.91.69-2.92,1-5.33-2.17-11.92-4-16.83-1.17 s -7.33,8-6.42,14 S 257.88,251,263,252.18 c -.08,8.08,1.5,22.33,4.83,29.25 s 9.33,14.42,11.92,17.92,4.42,9.42,2.92,18.08-11.92,18.08-16.25,22.17 S 258,348.18,254.88,356 c 0,0-4.69,7.37-4.52,19.7 s 3.17,22,3.83,34.33 A 86.4,86.4,0,0,1,252,433.38 a 94.69,94.69,0,0,0,32.67,11 c 19.33,2.83,43.5,5.67,67.33-15.5 C 348.69,422.71,346.86,415.88,346.86,400.54Z" fill="param(main_colour)"/>
  </g>
  <g id="fixed-colours">
    <path d="M 282.71,262 s 10.36,1.35,20-1.47 a 29.43,29.43,0,0,1,.28,3.81 s -10.59,3.07-19.63,1.27 A 23.69,23.69,0,0,1,282.71,262Z" fill="#fff"/>
    <polygon points="288.7 272.27 291.95 271.89 291.78 269.26 294.56 269 295.1 271.43 297.88 271.17 298.03 273.64 295.11 274.07 295.21 276.86 292.28 277.21 292.19 274.5 289.1 274.79 288.7 272.27" fill="#f0356a"/>
    <path d="M 329.15,258.12 l .43,2.19,3.14-.36.54,5.34 a 4,4,0,0,0-1.37,3.22,2.93,2.93,0,0,0,3.52,2.38,3.07,3.07,0,0,0,2.83-3.59 c -.23-1.28-2.1-2.28-2.49-2.46-.15-1.87-.7-5.78-.7-5.78 l 1.32-1.32-.82-2.06Z" fill="#d6d6d6"/>
    <path d="M 325.93,258.19 a 11.63,11.63,0,0,0,3.23-.07 c .21,1,.45,2,.45,2 l 3.12-.2.11,1.27 s -1.33.65-6.58.32 C 326.1,260,325.93,258.19,325.93,258.19Z" fill="#fff"/>
    <polygon points="335.04 259.07 336.36 257.75 335.65 255.91 336.64 254.84 338.19 258.66 335.41 260.66 335.04 259.07" fill="#fff"/>
    <path d="M 277.79,230.46 s 1.42,6.25,5.25,6.83 a 39.69,39.69,0,0,0,9.25-.17 l .25,3.17 s -7.17.83-9.75.08-5.25-2.33-5.5-5.25Z" fill="#fff"/>
    <path d="M 293,242.46 s 8.58.33,13.75,2.83 a 24.25,24.25,0,0,1,2.58,2.75 s -11.25-2.92-16-2.92Z" fill="#fff"/>
    <polygon points="308.87 247 320.12 236.75 321.25 238.07 310.06 248.5 308.87 247" fill="#fff"/>
    <path d="M 320,222.94 a 13.58,13.58,0,0,1-1.62,11.56 c .31.38,1.44,1.5,1.44,1.5 s 4.88-5.12,1.94-11.12Z" fill="#fff"/>
  </g>
  <g id="outline">
    <path d="M 347.8,399.38 c 0-8.92,0-20.75-4.08-32.75 a 86.38,86.38,0,0,0-16.25-28.83 c -6.67-7.92-7.58-13-6-18.42 s 5.79-12.94,8.85-18.25 c 2.87-5,4.87-13.51,5.11-18.13 a 22.84,22.84,0,0,0,6.77-11.78,21.2,21.2,0,0,0-4.33-17.58 c -1.67-2.08-2.5-3.25-5.75-7.25 a 66.45,66.45,0,0,1-6.25-9.92 c 1.58,4.75,6.42,12.25,8.75,15.83 l 1,1.5 c -4.05,4.37-10.74,3.49-10.74,3.49 a 50.29,50.29,0,0,1-.21,14.43 c 2.1,1.39,10.59,6.27,10.59,6.27 l 3-2.35 a 23.06,23.06,0,0,1-2.44,4.51,26.17,26.17,0,0,1-6,6.25 A 6.4,6.4,0,0,0,333,285 a 77.28,77.28,0,0,1-2.63,11.54 c -1.56,4.31-4.62,8.81-7.06,13.94 s -4.31,10.06-4.19,14.63,2.5,8.06,6.06,12.69,7.25,6.88,14.75,23.5,6.27,33.29,6.19,39.88.42,21.67,4.83,27.5 c -6.43,5.69-19.32,15.21-36.88,16.61.27-3.28,1.85-23.48,1.54-38.45-.33-16.33-1.5-33.75-3-47.92 s -2.13-23.29-2-31.17 c .15-9.33,3.34-20.9,4.9-32.5 a 136.9,136.9,0,0,0,1.17-29.42,33.83,33.83,0,0,0-6.06-17 L 322,238 l -1.58-1.81 a 9.85,9.85,0,0,0,3.18-8.52,7,7,0,0,0-.18-.79,8.17,8.17,0,0,1,5.68.21,8.8,8.8,0,0,0-6.3-1.78 c -2.33-4.48-9.06-7.72-15.62-7.72,0,0,12.85,9.55,1.13,28.4 l -.06-.07 c -6.15-6.37-21.65-12.58-20.9-22.58 a 28.46,28.46,0,0,0,3.42-4.58 s -5.33-.75-11,5.17 a 12.85,12.85,0,0,0-2.07,2.88,11.91,11.91,0,0,1-3.47.73 c -.81-.19-6.69-2.81-10.69-2.44 a 14.87,14.87,0,0,0-11.19,7.06 c -2.81,4.5-2.25,11.06.81,15.19 a 13.86,13.86,0,0,0,8.94,5.69 c -.69,4.13.88,14.88,2.38,21.38 s 4.19,11.75,10.25,20 c 1.64,2.24,3.25,4.21,4.78,6.06 a 36.52,36.52,0,0,1,2.41,6.69 c .88,3.94.38,13.88-5.75,20.88 s -14.81,13.81-19.25,21.19 a 55.16,55.16,0,0,0-7.25,26.63 c 0,8.88,3.13,24.69,3.44,32.06 s .58,18.85-2.17,25.85 c 15.58,9.58,41.75,14.92,62.67,12.92 s 34.92-12.83,39.58-17.75 C 348.22,422.54,347.8,408.29,347.8,399.38Z M 338,258.22 a 8.26,8.26,0,0,1-2.44,1.81 c 0-.38-.07-.72-.09-1 a 5,5,0,0,0,1.28-1.2 c -.33-.86-.67-1.65-.83-2,.23-.2.42-.39.58-.55 A 26.46,26.46,0,0,1,338,258.22Z m -3.35,7.23 c 1.89-.22,3,.69,3.17,2.24 a 2.83,2.83,0,0,1-2.56,2.9,2.66,2.66,0,0,1-3.12-2.19 A 2.76,2.76,0,0,1,334.63,265.45Z m -.17-1.12 a 4.51,4.51,0,0,0-1,.29 c -.07-1.09-.23-3.6-.41-4.54 a 8.6,8.6,0,0,0,1.74-.65,36.84,36.84,0,0,1,.64,4.87 A 4,4,0,0,0,334.46,264.33Z m 1-8.15.64,1.41 s -1,2.18-6.29,2.28 c -.15-.5-.28-1.08-.35-1.41 A 12.24,12.24,0,0,0,335.45,256.18Z m -6.65,2.35.45,1.94 a 13.69,13.69,0,0,0,3.19-.25 c 0,.16.05.45.09.81 a 18.18,18.18,0,0,1-5.76,0 c -.05-.82-.14-1.65-.27-2.48 A 19.11,19.11,0,0,0,328.8,258.53Z m 6.44,18 c -2.09-.66-9.1-5.54-9.1-5.54 a 40.82,40.82,0,0,0,.69-9.13,24.93,24.93,0,0,0,5.79-.13 c .1,1,.21,2.15.25,3.13 a 3.61,3.61,0,0,0,2.17,6.77,4.05,4.05,0,0,0,3.9-4.14 A 3.88,3.88,0,0,0,336,264.4 c -.06-.54-.22-2-.36-3.42 a 6.51,6.51,0,0,0,2.67-1.95,25.75,25.75,0,0,1,1.39,5.51,20.86,20.86,0,0,1-.8,9.19 A 31.79,31.79,0,0,1,335.23,276.57Z M 308,247.43 a 77.77,77.77,0,0,0-14.07-3 c -.08-.51-.14-1-.21-1.47 A 56.06,56.06,0,0,1,306,245.42 C 306.68,246.07,307.34,246.74,308,247.43Z m 14.09-18.72 a 9.66,9.66,0,0,1-2.33,6.68 l -.9-1 a 11.9,11.9,0,0,0,1.65-9.94 A 6.78,6.78,0,0,1,322.05,228.71Z m -11.83-9.83 a 21.81,21.81,0,0,1,9.17,4.39,11.61,11.61,0,0,1-1,10.61 l -3.92-4.49 A 17.37,17.37,0,0,0,310.22,218.88Z m 4.3,11.9,5,5.85-8.8,8.08 A 31.63,31.63,0,0,0,314.52,230.78Z m -5.05,16.1,10.63-9.54.6.71 L 310,248 c -.23-.29-.47-.58-.71-.86Z m -4.82-2.67 a 45.32,45.32,0,0,0-11.09-2 c -.46-3.38-.69-5.82-.78-7,2.4,2,5.34,4.15,8.68,6.51 C 302.58,242.51,303.65,243.34,304.65,244.21Z m -26.6-12.07 c .62,2.23,1.88,4.92,4.44,5.45 a 26.69,26.69,0,0,0,9.24-.07 c 0,.59.1,1.24.16,1.92-1.94.39-7.79,1.35-11.1-.64 C 278.41,237.35,277.73,234.83,278.05,232.14Z m 1.83-5.42 c 2.33-4.25,8-6,8-6 a 6.39,6.39,0,0,0-1.25,7.5,19.71,19.71,0,0,0,4.85,5.87 c 0,.45.09,1.42.19,2.72-1.51.19-7.23.8-9.5-.28-2-1-3.2-3.18-3.77-6.2 A 16.74,16.74,0,0,1,279.89,226.71Z m -26.75,206 c 3.42-12.67,1.75-28.83.42-38.25 s -4.33-20.58.33-34.25,11.25-17.42,17.58-24.17,11.08-12.67,12.08-20.75 c .64-5.17.05-8.52-.82-10.93 a 36.27,36.27,0,0,1,6.35,10.26 c -2-7.37-6.81-13.62-10.81-18.81 s -10.5-14-12.25-24.12 a 147.86,147.86,0,0,1-1.87-20.44,12,12,0,1,1,3.63-23.62 c 4.1,1,7.09,2.39,9,1.65-1.31,4.61.25,9.07,1.56,10.26,1.78,1.62,5.71,3.47,13.75,1.5.14,1.43.31,3,.5,4.5 a 109.27,109.27,0,0,1,16.57,3.28,28,28,0,0,1,6,16.06 c .88,13.64-.24,31-2.65,41.58 s -3.92,21.25-3.08,32.08,4.17,40.5,4.67,59 c .46,17-.92,43.7-1.14,47.78 C 295.12,446.46,270.1,443.09,253.14,432.71Z"/>
    <path d="M 287.12,288.13 c 11.38,2.75,19.25-2.12,21.75-7.37 C 297.12,290.25,287.12,288.13,287.12,288.13Z"/>
    <path d="M 304.07,275.48 c -.15-7.46-.59-15.92-.59-15.92 s -11.45,3.26-21.69,1.68 c 0,0,.8,10.85,2.11,16.14 a 38.82,38.82,0,0,0,10.37,5.42 S 302.22,277.54,304.07,275.48Z m -1.81-14.11 c 0,.76,0,1.6.05,2.48-7.58,2.54-16.12,1.83-18.66,1.54-.1-1-.18-1.83-.2-2.4 C 283.45,263,295.89,263.88,302.26,261.37Z m -17.26,15 s -.78-5.79-1.23-9.95 c 7.67,1.17,16.38-.67,18.59-1.19.13,4.58.34,9.53.34,9.53 s -6.43,5.11-8.46,6.38 A 57.23,57.23,0,0,1,285,276.33Z"/>
    <path d="M 298.55,274.3 l -.33-3.69-2.92.32-.31-2.55-4,.29.29,2.66-3.14.32.42,3.53,3.14-.32.25,2.7,3.66-.32-.1-2.65Z m -5.81,2.27-.24-2.63-3.08.2-.2-1.56,3.08-.35-.28-2.55,2.16-.21.38,2.57,2.75-.22.17,1.42-2.8.38.14,2.8Z"/>
  </g>
<script type="text/ecmascript" xlink:href="param.min.js"/> 
</svg>
