<?xml version="1.0"?>
<svg xmlns="http://www.w3.org/2000/svg" xmlns:xlink="http://www.w3.org/1999/xlink" viewBox="0 0 600 600">
  <title>default-top-curvy</title>
  <g id="main-colour">
    <path d="M 255.48,272.3 s 16.33,7.83,19.75,4.92,9.92-13,18.42-17.5 c -3.92-10.17-9.75-22.75-16.58-31.5 a 15.5,15.5,0,0,0,3.42-3 S 291.9,242,297.23,258.3 c 6.67,1,23.92,1.83,29.83,19.42,2-4.75,3.5-7.58,7.75-14 s 8.83-8.58,9.67-9.42 c -7.92-4.58-14.69-9.07-19-14-4.58-5.25-9-13.67-9.17-16.25 a 11.63,11.63,0,0,0,3.58,3.67 A 47.21,47.21,0,0,0,331,240 a 155.53,155.53,0,0,0,16.67,11.17 s 5.83.33,9.17,9.83 c 2,5.59.33,13.5-1.42,17.33 A 22.17,22.17,0,0,1,341.82,291 a 17.12,17.12,0,0,1-12.5-.5 c -2.67-1.42-6.25-3.17-9.83-.92 C 315.73,293.38,309,298,298,298 s -22.75-3.25-40.42-14.58 C 256.65,280.88,255.48,272.3,255.48,272.3Z" fill="param(main_colour)"/>
  </g>
  <g id="outline">
    <path d="M 326.9,276.25 c 3.5-8.87,9.13-17.25,16.5-22-13.33-6.5-25.25-17.75-28.37-33.12,1.5,3,4.13,5.75,5.25,6.13,2.13,5.63,13.63,17.21,27.71,23.38,7.25,2.25,9.17,7,10.29,13.5 A 25.16,25.16,0,0,1,348.9,288 c -9.12,7.13-18.5,4.75-21,2.38-2.87-1.87-5.25-1.75-8.37-.5 a 5.54,5.54,0,0,0,.75-1.25 s 4.63-1.5,8.5.88 c 3.5,2.13,8.25,2.63,14.63.13 s 10.88-9.5,12.63-15.12 a 20.58,20.58,0,0,0,.38-12 c -1.12-4.08-2.75-8.92-8.83-10.42-8.42-4.58-21.75-11.33-27.75-23.75 a 28.08,28.08,0,0,1-2.67-2.33 s 4.16,9.41,10.67,15.92 c 6.92,6.92,18.33,12.38,18.33,12.38 s -5.5,2.63-11.25,11.25 c -6.73,10.1-7.75,13.75-7.75,13.75Z"/>
    <path d="M 284.65,293.75 s 21.75,7.13,34.75-7.37 C 313,291.25,304.65,296.75,284.65,293.75Z"/>
    <path d="M 332.82,288.3 a 20,20,0,0,0,19.58-5.67 c 1.33-1.33,1.33-1.75,1.33-1.75 A 25.19,25.19,0,0,1,332.82,288.3Z"/>
    <path d="M 325.09,283.38 a 56.27,56.27,0,0,1-5.44,5.63 c -6.33,5.42-17,9.66-29.25,8-14.93-2-31.62-14.25-31.62-14.25 s -2.25-6.25-2.25-9.25 c 1.38.75,15.25,7,19.5,4.25 s 7.38-11.12,18.13-17.75 C 287.4,239.38,278,228.63,278,228.63 a 12,12,0,0,0,2.5-2.12 c 2.88,3.21,12.33,22.17,15.88,32.63,8.88,1.38,25.5,3.88,29.63,18.13 a 13.71,13.71,0,0,1,.55,3.17 c .52-1.11,1-2.11,1.32-2.92-2-11.5-16.5-19.5-30.12-19.62 a 152.06,152.06,0,0,0-17.31-33.69,15.76,15.76,0,0,1-4.56,3.94 c 8.13,8.88,17,31.25,17,31.25 s -6.75,2.75-16.62,16.13 c -3.59,4.87-22-4.5-22-4.5 s 1.13,8.75,3.08,12.92 c 0,0,20.54,14,37,14.79,13.32.62,21.5-4.33,26-8.93 A 32.48,32.48,0,0,0,325.09,283.38Z"/>
  </g>
<script type="text/ecmascript" xlink:href="param.min.js"/> 
</svg>
