<?xml version="1.0"?>
<svg xmlns="http://www.w3.org/2000/svg" xmlns:xlink="http://www.w3.org/1999/xlink" viewBox="0 0 150 150">
  <title>bare-feet</title>
  <g id="skin-tone">
    <path d="M 69.47,76.19 c -.38-3.07.75-6.75,5.25-6.83 a 5.68,5.68,0,0,1,6,6.64 c -.65,2.78-.63,5.62,1.35,8.27 s 3.69,7.38,1.32,9.46-4.35,2.55-5.2,5-1.8,6.91-6.05,6.91 c -2.27,2.93-5.39,3.41-7.76.76-2.18.38-3.6-.38-3.88-1.42-1.23,0-2.74-.38-3-1.7 a 3,3,0,0,1-2.84-2.08 c -1.23-1.23-2.18-3.69,1.23-4.54 s 8.89-2.18,11.35-7.95 S 69.89,79.53,69.47,76.19Z" fill="param(skin_tone)"/>
  </g>
  <g id="fixed-colours">
    <path d="M 65.28,103.68 A 5.45,5.45,0,0,1,69,105.07 a 1.83,1.83,0,0,0-1.14-2.59 A 2.15,2.15,0,0,0,65.28,103.68Z" fill="#fff"/>
    <path d="M 61.67,102.34 a 3.41,3.41,0,0,1,2.16.92 c .39-.75.43-1.21-.32-1.6 A 1.42,1.42,0,0,0,61.67,102.34Z" fill="#fff"/>
    <path d="M 58.54,101 a 2.08,2.08,0,0,1,1.74,1,1,1,0,0,0-.25-1.6 A 1.11,1.11,0,0,0,58.54,101Z" fill="#fff"/>
    <path d="M 56,99.5 a 3.24,3.24,0,0,1,1.45.89.94.94,0,0,0-.35-1.28 A 1,1,0,0,0,56,99.5Z" fill="#fff"/>
    <path d="M 54.61,97.94 s .78.25.89.92q.74-1.12-.11-1.28Z" fill="#fff"/>
  </g>
  <g id="outline">
    <path d="M 54.06,101.49 c .09,1.61,1,2.55,3.12,2.65.19,1.42,2.65,1.51,2.65,1.51 a 3.34,3.34,0,0,0,4.07,1.8 c 2,2.74,6.62,2.65,9.08-.85,3.78.09,4.41-4.85,5.45-7.69 s 2.51-3,4.47-3.92,3.72-4.79,1.64-8-3.14-4.63-3.33-6.71.64-3.78.53-5.25 A 6.76,6.76,0,0,0,75,68.25 h 0 A 6.76,6.76,0,0,0,68.25,75 c 0,.57.18,1.1.21,1.64.25,3.65,1,12.39-6.8,17.17-2.73,1.67-5.9,1.61-7.6,3.22 S 52.79,100.23,54.06,101.49Z m 1.47-2.91 c 0-.35-.64-.64-.64-.64 C 55.74,97.44,55.85,98.15,55.53,98.58Z m -.28,2.06 a 2.3,2.3,0,0,1,2.41-2.13 c 1.35-.07,2.91-.35,3.48-1.06 a 8.46,8.46,0,0,1-3.33.5,4,4,0,0,0-1.78.34.51.51,0,0,0-.17-.63,1.15,1.15,0,0,0-.37-.14,2.9,2.9,0,0,1,.62-.21 A 20.12,20.12,0,0,0,64,94 c 7.3-4.67,6.41-16.29,6.41-16.29-.08-1.61-.2-2.74-.2-2.74 A 4.75,4.75,0,0,1,75,70.25 h 0 A 4.75,4.75,0,0,1,79.75,75 s 0,.15,0,.39 A 19.71,19.71,0,0,0,79.47,81 c .39,2.17,1.49,3.51,2.69,5.39,1.32,2.08,1.88,5-.2,6.82 s -4,.92-5.25,4.75 c -1.13,3.4-1.9,6.52-3.92,6.79 a 4,4,0,0,1,.75-1.63 A 12.13,12.13,0,0,0,72,104.75 c -1.14,1.92-4.19,3.9-7.1,1.14-.78-2.06,1.21-4.33,2.91-4.4 a 3.57,3.57,0,0,0,3.48-2.27,4.91,4.91,0,0,1-3.55,1.63,4.21,4.21,0,0,0-3.83,4.82,2.33,2.33,0,0,1-3.05-2.27 c .21-1.35,1-2.06,2.77-2.41 s 3.54-1.35,3.72-2.2 a 5.74,5.74,0,0,1-3.22,1.35 c -1.21.21-4,.57-4,4 a 1.92,1.92,0,0,1-2.2-2.2 c .14-1.42,1.14-2.27,2.77-2.48 s 2.7-.5,3.48-1.42 a 7.41,7.41,0,0,1-3.26.85 c -.85,0-3.26-.14-3.69,3.26 C 56.59,102.83,55.24,101.84,55.24,100.63Z m -.59-2.48 a 1.23,1.23,0,0,1,.71.65,2.69,2.69,0,0,0-.67,1.66 A 1.64,1.64,0,0,1,54.65,98.15Z"/>
    <path d="M 69,105.28 a 1.88,1.88,0,0,0-1-3,2.26,2.26,0,0,0-3,1.56 A 5.6,5.6,0,0,1,69,105.28Z m -.07-.57 a 5.05,5.05,0,0,0-3.44-1.21,1.89,1.89,0,0,1,2.34-.85 A 1.62,1.62,0,0,1,69,104.71Z"/>
    <path d="M 63.87,103.54 c .6-.85.64-1.6-.21-2 s -1.74.14-2.34,1 A 3.59,3.59,0,0,1,63.87,103.54Z m -.11-.53 a 3.35,3.35,0,0,0-1.88-.82 c .57-.46,1-.64,1.53-.43 S 64.22,102.41,63.76,103Z"/>
    <path d="M 60.28,102.19 c .71-.85.57-1.6-.11-2 a 1.46,1.46,0,0,0-1.92,1 S 59.86,101.06,60.28,102.19Z m 0-.5 a 1.88,1.88,0,0,0-1.56-.82 c .5-.67.89-.53,1.21-.39 A .84.84,0,0,1,60.28,101.7Z"/>
    <path d="M 55.71,99.6 a 2.47,2.47,0,0,1,1.77,1.1 A 1.15,1.15,0,0,0,57.2,99 C 56.7,98.72,56.06,99.07,55.71,99.6Z m .43-.14 c 1-.74,1.38.11,1.28.74 A 2,2,0,0,0,56.13,99.46Z"/>
  </g>
<script type="text/ecmascript" xlink:href="param.min.js"/> 
</svg>
