<?xml version="1.0"?>
<svg xmlns="http://www.w3.org/2000/svg" xmlns:xlink="http://www.w3.org/1999/xlink" viewBox="0 0 600 600">
  <title>voluptuous-bottoms-template</title>
  <g id="skin-tone">
    <path d="M 340.81,297.47 a 22.77,22.77,0,0,1,.76-6.81,18.78,18.78,0,0,0,6.41-3.37,25.93,25.93,0,0,0,9.33-19.17,24,24,0,0,0-8.67-18.92,16.13,16.13,0,0,0-11.7-21.38v-.39 c -2.24-1.41-6.76-.84-11.76.54-5.58-6-6.4-19.35-6.49-22.47 a 73.85,73.85,0,0,1-37.12.18 c .06,2.13.07,4.29,0,6.29-.37,8.5-6.12,17.25-6.12,17.25 s -7.75-2.87-14.5-3.12-13.12,4.13-15.87,9.63-2.75,12.13,1.5,18.75 c -2.5,13.63.38,23.13,3.75,34 s .5,15.5-3.37,21.38 c -1.83,2.77-4.43,7-7.06,11.86,7.23,3.45,21.66,9.33,42.62,13.19,28.76,5.29,57.72,4.64,71.7-10.5 a 57.34,57.34,0,0,0-5.12-11 C 345.34,307.26,341.44,302.35,340.81,297.47Z" fill="param(skin_tone)"/>
  </g>
  <g id="main-colour">
    <path d="M 294.14,337.15 A 207,207,0,0,1,240,321.4 c -2.93,5.48-6.11,12.16-7.45,18.62-1.62,7.88-3.37,16-3.07,23.62-.59,10.54.21,21.65,3.91,29.75,8.77,16.25,24.06,22.91,39.56,21.75 s 24.93-12.78,24.93-12.78 l .48-.25 A 38.43,38.43,0,0,0,359,370.72 s 2.57-25.64-5.05-46.89 C 340.84,339.62,311.06,339.44,294.14,337.15Z" fill="param(main_colour)"/>
  </g>
  <g id="outline">
    <path d="M 309.86,232.72 c 3.83.58,11.08-1.83,16.5-4.08 a 20.2,20.2,0,0,1,10.59-1.21 c -3.69-2.14-8.12-1.49-11.31-.26-1.49-1.81-5.87-8.27-5.88-22q-1,.29-2,.54 c 0,5.66.78,16.48,6.08,22.26 l -.38.21 C 320.36,230,313.61,232.39,309.86,232.72Z"/>
    <path d="M 343.65,302.42 c -1.89-3.38-2.06-6.16-1.12-10.81,4.58-1.82,14.53-7.89,15.87-20.65,1.38-13.12-5.62-21.08-12.48-24.44 a 164.81,164.81,0,0,1-16.71-9.92 c 1.59,2.21,8.54,7.25,13,9.67,5.21,2.8,11.13,8.07,12.83,14.58,2,7.67,1.29,14.67-4.46,22.17 s -16.25,9.75-22.37,8.13 a 16.59,16.59,0,0,0,11.48,1.35 c -.74,4.57.17,9,4.37,15.15 a 57.59,57.59,0,0,1,9,16.41 c -4.58,5.25-14.36,11.15-27.67,12.72-13.75,1.63-24.11,1.28-43.25-2.12-18.61-3.31-37.63-11.94-40.79-13.41,3-5.67,6-10.12,8.83-14.6,4.17-6.5,2.93-14.62.92-20.08 a 60.83,60.83,0,0,1-3.7-31.06 l 0,0,.2-1.67v0 a 16.56,16.56,0,0,1,13.1-26.72 h 0 l 1.17,0,.26,0,1,.07 h .12 c 5.83.55,11.74,2.79,14.87,3.95,3.58,1.33,10.25,3.25,15.75,1.58-4.76.08-9.82-1.23-17.08-3.94,5.41-8.18,6.07-17.3,5.83-22.82q-1.13-.27-2.25-.57 c 0,.27,0,.54.06.83.79,10.79-4.27,19.47-5.77,21.77 a 50.42,50.42,0,0,0-11.07-2.69,18.49,18.49,0,0,0-2.19-.21 l -.69,0 a 18.6,18.6,0,0,0-18.58,18.58,18.41,18.41,0,0,0,3.34,10.57 c -.66,3.67-2.25,14.95.91,25.1,3.83,12.33,8.19,18.93,0,29.83-18.82,25.06-17.91,48.27-17.91,66.83 a 40.38,40.38,0,0,0,1.05,9.13 h 0 a 40.17,40.17,0,0,0,4.32,11 l 0,.08q.4.7.83,1.37 l 0,.07 a 40.7,40.7,0,0,0,5,6.35 l .22.23 c .31.31.62.62.94.93 l .34.33.93.84.4.34.94.79.4.32q1.57,1.24,3.27,2.33 l .57.37.86.51.72.42.83.45.8.41.82.4.87.4.79.34,1,.39.71.27q.8.29,1.61.55 l .46.14 c .48.14,1,.28,1.44.41 l .67.16,1.17.27.74.15,1.14.2.76.12,1.17.15.73.08,1.3.1.63,0 c .65,0,1.29,0,1.95,0 h 0 c .71,0,1.41,0,2.11-.06 l .63,0,1.52-.13.64-.07q.92-.11,1.83-.26 l .22,0 c .67-.12,1.33-.25,2-.4 l .6-.14,1.41-.37.64-.18q.78-.23,1.55-.5 l .38-.13 c .62-.22,1.23-.46,1.83-.71 l .59-.25,1.25-.56.66-.32,1.25-.65.52-.28q.82-.46,1.62-1 l .61-.39,1-.69.68-.48.95-.71.63-.49q.7-.56,1.37-1.14 l .65-.59.77-.71.7-.68.67-.69.69-.73 c .23-.26.46-.52.69-.79 s .38-.43.56-.65 h 0 a 40.4,40.4,0,0,0,7.53-14.15,10.59,10.59,0,0,0,8-5.55,13.87,13.87,0,0,1-7.47,3.47 h 0 l -2,.09 h 0 a 38.57,38.57,0,0,1-12.74,20.09 l 0,0q-.75.62-1.52,1.2 l 0,0 a 38.51,38.51,0,0,1-3.3,2.2 l 0,0q-.79.47-1.6.89 l -.25.13q-.77.4-1.57.77 l -.15.07 a 38.15,38.15,0,0,1-3.57,1.42 l -.4.13q-.71.23-1.42.44 l -.47.13q-.79.22-1.59.4 l -.26.06q-.93.21-1.88.36 l -.43.06-1.46.2-.62.07-1.37.11-.59,0 c -.64,0-1.29.05-1.94.05 h 0 c -.62,0-1.23,0-1.84,0 l -.59,0-1.24-.09-.68-.07-1.13-.14-.69-.1-1.12-.2-.65-.13-1.24-.29-.5-.12q-.85-.22-1.68-.48 l -.44-.15-1.22-.41-.64-.24-1-.39-.68-.29-.91-.41-.69-.33-.89-.46-.65-.35-1-.55-.7-.42 c -.41-.25-.81-.51-1.21-.77 l -.66-.46-.73-.52-.69-.53-.65-.51-.7-.57-.6-.52-.69-.62-.53-.51-.7-.68-.33-.34q-.78-.81-1.51-1.65 l -.33-.38 c -.23-.28-.46-.56-.68-.84 l -.37-.48-.64-.86-.35-.49-.61-.9-.3-.47 c -.21-.32-.41-.65-.61-1 l -.18-.32 a 38.32,38.32,0,0,1-1.9-3.7 l -.14-.31 c -.16-.37-.31-.75-.46-1.13 l -.18-.45q-.21-.55-.41-1.12 l -.16-.48 c -.13-.38-.25-.77-.37-1.15 l -.12-.42 c -.12-.41-.23-.83-.34-1.25 h 0 a 38.51,38.51,0,0,1-1.14-9.31 c -.12-2.23.11-9.86.22-13.18 l -.06.17 c .54-9.34,2.14-22.18,6.63-33.25,1.1-2.49,2.19-4.75,3.27-6.85,30,14.47,62.7,19,84.89,15.77,19.68-2.86,26.88-10.84,28.33-12.72,7.37,21.65,5.24,46,5.24,46,1.9-.54,1.9-3.71,1.9-12.16 C 360.95,321,346,306.54,343.65,302.42Z"/>
    <path d="M 296,296 c -22,3.63-30.87-18.37-30.87-18.37,9.5,26.25,31,21.75,38.63,19.13 s 18.75-11,19.75-27.37-14.75-25.5-14.75-25.5 c 9.25,8.25,12.25,16.88,12.38,23.88 S 318,292.39,296,296Z"/>
    <path d="M 313.92,327.46 c 1,.2,1.7-1.44.9-3.34 a 29,29,0,0,1,1.68-6.1 S 311.42,326.74,313.92,327.46Z"/>
  </g>
<script type="text/ecmascript" xlink:href="param.min.js"/> 
</svg>
