<?xml version="1.0"?>
<svg xmlns="http://www.w3.org/2000/svg" xmlns:xlink="http://www.w3.org/1999/xlink" viewBox="0 0 150 150">
  <title>basic-flip-flops</title>
  <g id="skin-tone">
    <path d="M 69.47,76.19 c -.38-3.07.75-6.75,5.25-6.83 a 5.68,5.68,0,0,1,6,6.64 c -.65,2.78-.63,5.62,1.35,8.27 s 3.69,7.38,1.32,9.46-4.35,2.55-5.2,5-1.8,6.91-6.05,6.91 c -2.27,2.93-5.39,3.41-7.76.76-2.18.38-3.6-.38-3.88-1.42-1.23,0-2.74-.38-3-1.7 a 3,3,0,0,1-2.84-2.08 c -1.23-1.23-2.18-3.69,1.23-4.54 s 8.89-2.18,11.35-7.95 S 69.89,79.53,69.47,76.19Z" fill="param(skin_tone)"/>
  </g>
  <g id="main-colour">
    <path d="M 53.39,99.44 a 5.51,5.51,0,0,0-.79,2.87 c .08,1.5.54,4.71.54,4.71 a 12.64,12.64,0,0,0,6,4.29,24.71,24.71,0,0,0,12.75.92 c 2.79-.71,6.17-2.92,7.38-6.12 s 1.83-5.37,3.29-6.42,4.33-2.29,4.63-4.21 c 0-2.21.17-4.67.17-4.67 s 0-2.92-3.42-2.92 c 1,2.92.42,6.08-4,7.63-2.46-.58-5-1-8.75,1.92 a 12.62,12.62,0,0,0-5.21-5.54,6.63,6.63,0,0,1-1.83,1.54 s 5.33,2.67,6.38,6.62 c 2.38-2.12,3.79-2.92,5.92-2.92 a 15.74,15.74,0,0,1,1.81.08 s -1.23,3.54-1.6,5.25-2.25,3.88-4,3.46 c -1.92,1.79-4.58,4.5-8.42.83-1.71.38-3,.21-4-1.79 a 2.07,2.07,0,0,1-2.63-1.7 c -1.41.12-2.74,0-2.91-2.21Z" fill="param(main_colour)"/>
  </g>
  <g id="fixed-colours">
    <path d="M 65.28,103.68 A 5.45,5.45,0,0,1,69,105.07 a 1.83,1.83,0,0,0-1.14-2.59 A 2.15,2.15,0,0,0,65.28,103.68Z" fill="#fff"/>
    <path d="M 61.67,102.34 a 3.41,3.41,0,0,1,2.16.92 c .39-.75.43-1.21-.32-1.6 A 1.42,1.42,0,0,0,61.67,102.34Z" fill="#fff"/>
    <path d="M 58.54,101 a 2.08,2.08,0,0,1,1.74,1,1,1,0,0,0-.25-1.6 A 1.11,1.11,0,0,0,58.54,101Z" fill="#fff"/>
    <path d="M 56,99.5 a 3.24,3.24,0,0,1,1.45.89.94.94,0,0,0-.35-1.28 A 1,1,0,0,0,56,99.5Z" fill="#fff"/>
    <path d="M 54.61,97.94 s .78.25.89.92q.74-1.12-.11-1.28Z" fill="#fff"/>
  </g>
  <g id="outline">
    <path d="M 68,102.3 a 2.26,2.26,0,0,0-3,1.56,5.6,5.6,0,0,1,4,1.42 A 1.88,1.88,0,0,0,68,102.3Z m 1,2.41 a 5.05,5.05,0,0,0-3.44-1.21,1.89,1.89,0,0,1,2.34-.85 A 1.62,1.62,0,0,1,69,104.71Z"/>
    <path d="M 60.18,100.21 a 1.46,1.46,0,0,0-1.92,1 s 1.6-.11,2,1 C 61,101.34,60.85,100.6,60.18,100.21Z m .11,1.49 a 1.88,1.88,0,0,0-1.56-.82 c .5-.67.89-.53,1.21-.39 A .84.84,0,0,1,60.28,101.7Z"/>
    <path d="M 57.2,99 c -.5-.28-1.14.07-1.49.6 a 2.47,2.47,0,0,1,1.77,1.1 A 1.15,1.15,0,0,0,57.2,99Z m .21,1.21 a 2,2,0,0,0-1.28-.74 C 57.09,98.72,57.52,99.57,57.41,100.21Z"/>
    <path d="M 63.65,101.52 c -.85-.43-1.74.14-2.34,1 a 3.59,3.59,0,0,1,2.55,1.06 C 64.47,102.69,64.5,101.95,63.65,101.52Z m .11,1.49 a 3.35,3.35,0,0,0-1.88-.82 c .57-.46,1-.64,1.53-.43 S 64.22,102.41,63.76,103Z"/>
    <path d="M 87.84,90.32v-.15 h 0 a 4.3,4.3,0,0,0-.26-.91,4.25,4.25,0,0,0-3.07-2.42 c -2-3.18-3.08-4.56-3.27-6.62 s .64-3.78.53-5.25 A 6.76,6.76,0,0,0,75,68.25 h 0 A 6.76,6.76,0,0,0,68.25,75 c 0,.57.18,1.1.21,1.64.25,3.65,1,12.39-6.8,17.17-2.73,1.67-5.9,1.61-7.6,3.22 a 3,3,0,0,0-1.11,2.3,6.36,6.36,0,0,0-.71,2.44 h 0 s 0,.09,0,.24 a 5.87,5.87,0,0,0,0,1,28.59,28.59,0,0,0,.51,4.16 c 2.38,3.54,7.71,6,15,6 s 10.75-3.62,11.94-7.25 c .65-2,1.75-5.83,4.69-7.06,3.27-1.37,3.31-3.71,3.31-3.71 l .08-3.27 A 4.49,4.49,0,0,0,87.84,90.32Z M 70.45,77.74 c -.08-1.61-.2-2.74-.2-2.74 A 4.75,4.75,0,0,1,75,70.25 h 0 A 4.75,4.75,0,0,1,79.75,75 s 0,.15,0,.39 A 19.71,19.71,0,0,0,79.47,81 c .39,2.17,1.49,3.51,2.69,5.39,1.32,2.08,1.88,5-.2,6.82-1.2,1-2.34,1.19-3.34,1.87 a 15.26,15.26,0,0,0-1.69-.18,8.92,8.92,0,0,0-5.79,2.25,10.68,10.68,0,0,0-4.67-5.19 C 71.12,86.56,70.45,77.74,70.45,77.74Z m 1.54,27 c -1.14,1.92-4.19,3.9-7.1,1.14-.78-2.06,1.21-4.33,2.91-4.4 a 3.94,3.94,0,0,0,3-1.36 c 1.17-1.07,3.7-2.85,5.8-2.74 l .31,0 c -.07.17-.14.33-.2.52-1.13,3.4-1.9,6.52-3.92,6.79 a 4,4,0,0,1,.75-1.63 A 12.14,12.14,0,0,0,72,104.75Z m 4.61-8.1 c -1.37,0-4,1.13-6,3-1.17-2.83-4-5.5-5.79-6.08 h 0 c .26-.2.51-.41.74-.62 l .55-.46 a 10.64,10.64,0,0,1,4.88,5.46,9.23,9.23,0,0,1,5.88-2.5,15.34,15.34,0,0,1,4.13.75 l -1.25,1 A 10.37,10.37,0,0,0,76.6,96.65Z m -20.5.65 A 20.12,20.12,0,0,0,64,94 l .09-.06 a 11.85,11.85,0,0,1,6.11,6.12,4.87,4.87,0,0,1-2.51.76,4.21,4.21,0,0,0-3.83,4.82,2.33,2.33,0,0,1-3.05-2.27 c .21-1.35,1-2.06,2.77-2.41 s 3.54-1.35,3.72-2.2 a 5.74,5.74,0,0,1-3.22,1.35 c -1.21.21-4,.57-4,4 a 1.92,1.92,0,0,1-2.2-2.2 c .14-1.42,1.14-2.27,2.77-2.48 s 2.7-.5,3.48-1.42 a 7.41,7.41,0,0,1-3.26.85 c -.85,0-3.26-.14-3.69,3.26-.64.64-2-.35-2-1.56 a 2.3,2.3,0,0,1,2.41-2.13 c 1.35-.07,2.91-.35,3.48-1.06 a 8.46,8.46,0,0,1-3.33.5,4,4,0,0,0-1.78.34.51.51,0,0,0-.17-.63,1.15,1.15,0,0,0-.37-.14 A 2.9,2.9,0,0,1,56.1,97.3Z m -.57,1.28 c 0-.35-.64-.64-.64-.64 C 55.74,97.44,55.85,98.15,55.53,98.58Z m -.88-.42 a 1.23,1.23,0,0,1,.71.65,2.69,2.69,0,0,0-.67,1.66 A 1.64,1.64,0,0,1,54.65,98.15Z m 2.53,6 c .19,1.42,2.65,1.51,2.65,1.51 a 3.34,3.34,0,0,0,4.07,1.8 c 2,2.74,6.62,2.65,9.08-.85,3.78.09,4.41-4.85,5.45-7.69 A 7.45,7.45,0,0,1,79,97.73 a 2.5,2.5,0,0,1,.79.34,4.2,4.2,0,0,1,2.5-2 l -1-.34 L 82.9,95 c 1.64-.79,3.13-3.61,2.36-6.41,2.57,1.46,1.31,6-2.79,7.95-3.71,1.75-4.12,7.46-7.85,11.27 s -13.56,2.3-18.57-.93 a 5.68,5.68,0,0,1-2.68-6.23,4.52,4.52,0,0,0,.68.86 C 54.16,103.09,55.1,104,57.18,104.13Z m 29.54-8.57 a 5.16,5.16,0,0,1-2.87,2.6 c -2.25.94-3.25,3.19-4.25,5.94 s -2,5-6.06,7-9.83,1.15-13.94-.21 a 14.11,14.11,0,0,1-6.08-4 l -.15-1.2 a 8.19,8.19,0,0,0,2.77,2.36 c 3.92,2.15,9.29,4.09,15.17,2.47 s 6.88-6.3,8-8.8 a 9.35,9.35,0,0,1,4.67-5,7.92,7.92,0,0,0,2.8-2.56Z"/>
  </g>
<script type="text/ecmascript" xlink:href="param.min.js"/> 
</svg>
