<?xml version="1.0"?>
<svg xmlns="http://www.w3.org/2000/svg" xmlns:xlink="http://www.w3.org/1999/xlink" viewBox="0 0 600 600">
  <title>basic-v-neck-t-shirt-slender</title>
  <g id="main-colour">
    <path d="M 313.43,246.8 c -19-1.29-28.2-15-29.37-18.55 a 14.27,14.27,0,0,1-2.16.69 c -7.45-6.36-19.55-1.14-20,7.95 s 6,12.33,9.33,13.42 c -1.25,5.92,1.32,21.18,2.47,27.83,1.63,9.38,4.66,20.41,6.5,28.91,3.38,15.59.78,18.59-6.39,31 a 121.58,121.58,0,0,0-8,15.7,41.63,41.63,0,0,1,13.49.13 c 10.58,1.83,22.75,5.08,33.5,4.33,8.26-.58,13.91-3.57,17.67-6.85-.66-1.57-1.56-3.52-2.8-6-4-7.92-4.57-12.7-4.73-21.12 s 1.82-20.63,3.91-27.88 c 1-3.42,2.5-7.76,3.91-12.61 a 35.94,35.94,0,0,0,4.63-2.06 c 2.92-1.58,7.67-6.42,8.5-14.17 s -4.33-14.25-6.92-16.83 c -1.72-1.72-4.33-4.51-5.88-6.19 a 11.19,11.19,0,0,0-14.81-15.9,3.12,3.12,0,0,0-1.56-.2 S 319.22,242.13,313.43,246.8Z" fill="param(main_colour)"/>
  </g>
  <g id="outline">
    <path d="M 336.14,249.13 a 102.91,102.91,0,0,1-8.24-8.88 c 2.76,6,11,12.38,13.37,17.88 s 1.44,13.21-1.75,18 c -2.93,4.39-5.86,6.57-9.85,7.55 l -.17.58 a 17.79,17.79,0,0,0,15.27-14 C 347,259.53,341,253.7,336.14,249.13Z"/>
    <path d="M 284.41,226.93 a 11.64,11.64,0,0,1-2.89.89 c -.18,1.23,1.49,1.9,1.49,1.9 a 9.26,9.26,0,0,0,2.17-.83 S 284.8,228,284.41,226.93Z"/>
    <path d="M 316.63,226.24 a 18.37,18.37,0,0,0-3.58,2 c .53.86,1,1.45,1,1.45 a 17.08,17.08,0,0,0,2.59-1.26 l .54-.24 a 11.26,11.26,0,0,1,8.35-.33 C 322.94,225.38,318.51,225.38,316.63,226.24Z"/>
    <path d="M 274,227.22 a 11.14,11.14,0,0,1,6.16,1.85 h 0 l 1.56.85 c .76-.15,1.54-.21,2.07-.37 a 13.53,13.53,0,0,0-9.78-4.33,13.2,13.2,0,0,0-1.54,26.31 c 0-.54,0-2,0-2 h 0 A 11.2,11.2,0,0,1,274,227.22Z"/>
    <path d="M 271.23,268.19 c 2.5,9.5,6.15,21.81,8.36,31.38,1.85,8,3.7,15.63,3,23.92-.69,7.75-2.53,16.72-6.19,22.39,4.07-9.88,5.5-23.87,2.82-37.26 C 276.65,296.07,271.29,273.38,271.23,268.19Z"/>
    <path d="M 276.68,288.08 a 154.43,154.43,0,0,1-3.2-19,89.38,89.38,0,0,1-1-18.68 h -2.55 a 112.56,112.56,0,0,0,1.33,18.33 A 116,116,0,0,0,276.68,288.08Z"/>
    <path d="M 282.53,315.53 h 0 c -2,11.61-12,24.94-16.6,34.86-.76,1.64-1.41,3.26-2,4.82 l 2.77-.71 h 0 c .81-2,1.64-3.8,2.37-5.23,2.54-5,9.81-16.3,13.37-25.29 A 71.2,71.2,0,0,0,282.53,315.53Z"/>
    <path d="M 292.14,285.38 c 6.87,2.13,15.94,1.39,21.83-3.67 C 309.22,289.38,297.38,289.89,292.14,285.38Z"/>
    <path d="M 270.73,350.63 s 3.25-1.12,13.75,1.5,31,6.25,40.25.5 A 41.37,41.37,0,0,1,310.86,355 a 127.21,127.21,0,0,1-23.21-2.83 C 280.27,350.56,273.61,349.25,270.73,350.63Z"/>
    <path d="M 264,355.2 s 5.45-2.33,17.53-.2 c 12.27,2.16,37,8.88,49.25-2.75 a 4.6,4.6,0,0,0-.5-1.25,31.28,31.28,0,0,1-18.75,6.5 c -11.37.13-19.5-2-24.62-3 s -16.81-3.87-21.62-1.12 A 9.66,9.66,0,0,0,264,355.2Z"/>
    <path d="M 331.49,351.58 a 58.61,58.61,0,0,0-2.52-6 c -3-6.13-5.8-11.93-4.5-26.84,1-11.15,4.83-23.86,7.7-35.5-1,.31-2,.57-2.6.72-5.8,20.38-9.93,34.9-7.1,49.7,1.62,7.4,5.14,12.84,7.71,19Z"/>
    <path d="M 284.41,226.93 s 6.41,17.27,28.72,19.12 c 5.83-4.71-.09-17.8-.09-17.8 l 2.09.38 s 5.58,14.08-1.69,18.69 c -8.58.42-24.26-6.08-29.9-18.44 A 3.43,3.43,0,0,1,284.41,226.93Z"/>
    <path d="M 286.19,237 a 35.87,35.87,0,0,0,27.92,11.46 c 5.44-3.83,4.69-10.5,3.48-16.58,1.67,5.63,2.9,12.17-3.29,17.21 C 307.55,249.32,293.7,247.44,286.19,237Z"/>
  </g>
<script type="text/ecmascript" xlink:href="param.min.js"/> 
</svg>
