<?xml version="1.0"?>
<svg xmlns="http://www.w3.org/2000/svg" xmlns:xlink="http://www.w3.org/1999/xlink" viewBox="0 0 215 215">
  <title>midi-crew-neck-t-shirt-slender</title>
  <g id="skin-tone">
    <path d="M 96.09,122.52 c .35,6.19.87,13.78,1.6,21.77,1.8,19.59,5.19,38.23,6.46,43.39 h 0 a 5.31,5.31,0,0,0,10.59-.55 s .15-13.1,1.06-27 c .84-12.84,2.33-30.6,2.85-37.35 C 110.06,120.13,100.87,121.46,96.09,122.52Z" fill="param(skin_tone)"/>
  </g>
  <g id="main-colour">
    <path d="M 119.58,114.18 c -.1-.8-.13-1.91-.18-3 s .1-1.87.13-2.52 l -.44-.7 a 4.61,4.61,0,0,0-.26-.89.54.54,0,0,0-.15-.18,11.19,11.19,0,0,0-22.38.6 l -.89.37 c 0,.37,0,1,.07,1.9,0,0,0,.06,0,.08-.25,2-1.37,10.83-2.75,13.42 a 11.35,11.35,0,0,0,3.67,2,18.45,18.45,0,0,0,0-2.71,52.87,52.87,0,0,1,13-1.19 c 3.76.35,6.44.86,6.44.86 l 2.85.67.15,1.58 a 9.87,9.87,0,0,0,2.21-1 C 120.13,122,119.83,116.09,119.58,114.18Z" fill="param(main_colour)"/>
  </g>
  <g id="outline">
    <path d="M 121.77,123.45 c -.85-2.39-1.31-7.12-1.54-10.17-.1-1.5.52-4.24.43-5.82 A 13.16,13.16,0,1,0,94.44,109 a 5.49,5.49,0,0,0,0,.88 s -.92,9.26-2.67,13.58 a 19.18,19.18,0,0,0,3.51,2 c .45,7.25,1.06,15.7,1.83,23.45 a 345.39,345.39,0,0,0,6.26,39.24,6.16,6.16,0,0,0,.2.86 h 0 a 6.21,6.21,0,0,0,12.13-1.91 c 0-8.53,2-40.11,3-51.39.29-3.28.59-7.05.87-10.76 A 4.9,4.9,0,0,0,121.77,123.45Z M 96.38,109.89 h 0 c 0-.57,0-1.08-.05-1.49 s 0-.63,0-.94 a 11.16,11.16,0,0,1,22.33,0 c 0,.39,0,1,0,1.65,0,.43,0,.87-.05,1.33 h 0 c 0,.67.1,1.93.2,3.42v.23 h 0 a 47,47,0,0,0,1.17,8.49,48.53,48.53,0,0,0-25.93-.18 A 54.86,54.86,0,0,0,96.38,109.89Z m -1.79,13.65.53-.14,0,.39Z m 19.92,44 c -.26,5.43-.51,11.34-.67,15.24,0,2.32-.18,4.36-.18,4.36 a 4.2,4.2,0,0,1-8,1.78 l -.07-.16 c -.43-1.13-1.35-4.89-1.35-4.89-1.78-8-4-23-5.32-34.72-.81-7.49-1.45-17.71-1.89-26.17 a 50,50,0,0,1,20.75.25 C 116.6,139,114.8,161.57,114.51,167.54Z"/>
  </g>
<script type="text/ecmascript" xlink:href="param.min.js"/> 
</svg>
