<?xml version="1.0"?>
<svg xmlns="http://www.w3.org/2000/svg" xmlns:xlink="http://www.w3.org/1999/xlink" viewBox="0 0 600 600">
  <title>voluptuous-top-template</title>
  <g id="main-colour">
    <path d="M 247.45,279.75 s 7.5-5.87,13.88-6.87 c 0,0,6-12.62,18-17.12 s 21.75-1.62,29.38,3.5 c 7.5-8.5,25.88-12,36.88-4,3.63,6.38,1.88,14.25.13,20 s -6.62,20-3.75,26,11,13.88,17.5,23.13 a 72.79,72.79,0,0,1,11.63,27.5 c 1.88,8.88,6.25,28.25,11.25,32.38 s 9.63,3,9.63,3 a 58.37,58.37,0,0,1-18.37,26,6.61,6.61,0,0,0,3.13,1.5 S 366,430,338.58,439.38 A 19.27,19.27,0,0,0,340,441 s -13.25,11.63-51.87,10-55.5-19.5-59.25-22.37 a 20.42,20.42,0,0,0,4.13-4.25 s -21.75-9.87-29.5-27.62 c 8.88-1.62,14.5-5.62,17.5-12.75 s 3.13-13.37,3.13-19,4.5-29.25,13-41.62,13.25-17.37,14.38-23 S 250,287.38,247.45,279.75Z" fill="param(main_colour)"/>
  </g>
  <g id="outline">
    <path d="M 393.85,385.5 c -5.87,1.38-10.37-.37-14.25-8.75 s -7.17-30.46-12.75-41.87-18.42-26-19.92-27.92-3.66-4.61-4.67-7.83 c -1.28-4.12,2.07-15.58,3.4-20 a 98,98,0,0,0,2.57-11.33 A 20.22,20.22,0,0,0,346,254.13 c -18.91-12.25-37.12,3.92-37.12,3.92 s -12.21-8.5-25.37-5 c -18,4.77-23,18.42-23,18.42 a 55.84,55.84,0,0,0-14.25,7.5 s 1.58,4.92,2.58,8,2.63,5.13,1.88,12.88-9.12,11.38-17,26.88-10.62,29.13-11,39.13-.87,14.75-4.25,20.38-9.75,9.13-16.87,9.63 c 8.09,18.84,26.47,27.45,29.49,28.74 a 42.3,42.3,0,0,1-3.87,3.76 c 16.25,21,80,35.25,114.87,13-.46-.4-.89-.82-1.33-1.25,9.33-3.58,29.29-13,38.45-25.75-1.21-.43-2.38-.91-3.51-1.43 C 386.68,404.09,392.39,393.27,393.85,385.5Z m -20.7,26.18 A 56.6,56.6,0,0,1,354.47,395 c 2.88,5.88,11.88,16.63,20.63,20.63 A 99.76,99.76,0,0,1,338.74,438 c -8.61-9.61-13.45-23.85-15.89-34.53-.12,13,7.88,29,15,37.25-13.87,10.63-73.12,17.88-107.25-12,9.5-8.25,16.38-26.87,16.63-33.12,0,0-5,15.57-14.47,27.08-10.64-4.19-19.41-12.41-27.41-25,11.25-2.5,16-9.87,18.38-17.37 s .25-22.25,6.5-39 S 242,317.63,246.47,312 s 6.13-8.62,6.5-15.12-2.65-11.87-4.15-17.62 c 4.5-3.5,12.5-6.37,12.5-6.37 s 7-13.79,20.75-17.62 c 13-3.62,19.67.25,27,4.75,12.75-12.75,31.63-9.37,35.75-4.5,1,1.5,2.3,5.71,1.67,10.54 a 93.41,93.41,0,0,1-2.83,13.25 c -4,14.13-7.68,18.46,2.82,30.83,3.89,4.59,13.5,16.75,18.25,26.5 s 7.25,26.75,10.5,37,9.25,15.75,14.88,15.38 C 385.93,400.05,376.47,409,373.14,411.68Z"/>
  </g>
<script type="text/ecmascript" xlink:href="param.min.js"/> 
</svg>
