<?xml version="1.0"?>
<svg xmlns="http://www.w3.org/2000/svg" xmlns:xlink="http://www.w3.org/1999/xlink" viewBox="0 0 600 600">
  <title>professionally-pink-slender</title>
  <g id="main-colour">
    <path d="M 338.73,365.63 a 98.93,98.93,0,0,0-9.38-18.22 c -.29-.64-.6-1.3-1-2-4-7.92-5.28-12.7-5.44-21.12 s 1.82-20.63,3.91-27.88 c .71-2.46,1.69-5.4,2.71-8.66 A 22.7,22.7,0,0,0,343.33,282 c 7.13-6.62,7-16,4.75-20.87 s -7.87-8.62-11.25-11.75 c -1.59-1.47-3.66-3.58-5.41-5.41 a 11.07,11.07,0,0,0,1.5-5.55,11.2,11.2,0,0,0-16.64-9.79,3.12,3.12,0,0,0-1.56-.2,11.75,11.75,0,0,1-7.08-5.77 l .13-.11 c 3.08-2.67,1.25-5.42,1.25-5.42 s .67-.42.5-2.75-3.83-3.5-3.83-3.5-.08,1.92,0,5 a 21.1,21.1,0,0,1-9.48.46,22.71,22.71,0,0,1-2.56-.74 s .17-1.84.42-4.92 c -4.17.33-6.67,2.25-5.08,6.08-2.37,3.61-.38,5.62,1.15,6.54 a 13.48,13.48,0,0,1-8.27,5.6 c -7.45-6.36-19.55-1.14-20,7.95 s 6,12.33,9.33,13.42 c -1.25,5.92,1.33,21,3.17,27.5 s 6.92,19.67,9.08,28.08 S 281,325.63,273.85,338 c -6.09,10.56-8.39,15.58-10.48,23 a 9.93,9.93,0,0,0-1.51,3.54 c -1.37,6-4.37,13.5-3.37,29.88 s 5.25,28.38.38,36.63 c 5.5-1.12,15.38.25,24.38,2.63 s 47.13,12.38,65.38-7.5 c -2.25-7.5-2.75-17.5-3-25.87 A 100.84,100.84,0,0,0,338.73,365.63Z" fill="param(main_colour)"/>
  </g>
  <g id="accent-colour-1">
    <path d="M 281.86,321.88 s 26.33,11.17,41,.33 a 67.9,67.9,0,0,0,.83,11.33 s -13.83,13.5-46.5-.67Z" fill="param(accent_colour_1)"/>
    <path d="M 266,352.88 l 14.67,4.33 s -1.5,23.33-20.83,17.33 C 261,364.71,266,352.88,266,352.88Z" fill="param(accent_colour_1)"/>
    <path d="M 332.36,352.55 s -3.83,3.83-7.67,4.17 c 2.17,6.5,6,19.5,15.67,13.5-3.67-10.33-6.17-14.33-6.17-14.33Z" fill="param(accent_colour_1)"/>
  </g>
  <g id="outline">
    <path d="M 291.87,287.46 c 9.08,6.08,15.92,4.75,20.5,2.5 C 300.29,292,291.87,287.46,291.87,287.46Z"/>
    <path d="M 320.42,380 s -12,21.33-35,32 C 302.75,407,316.42,392.71,320.42,380Z"/>
    <path d="M 323.09,401 c -10.33,10-19.33,12-19.33,12 C 309.42,413,318.42,409,323.09,401Z"/>
    <path d="M 342,371.54 c -4.17-12.58-13.08-26.83-15.33-32.42 s -2.58-11.17-2.33-17.42 a 116.42,116.42,0,0,1,3.5-21.25 c .94-3.74,2.21-8.58,3.14-12.17,8.44-.54,14.3-5.23,16.9-9.58 a 19.81,19.81,0,0,0,1.75-17.21 c -2.46-6.29-6.17-8.37-8.67-10 a 80.62,80.62,0,0,1-7.21-5.75 c -1.62-1.42-5.83-5.46-5.83-5.46,1.83,3.63,11.33,12,13.67,14.08 a 18,18,0,0,1,5.75,8.92 A 17.12,17.12,0,0,1,344,279.63 c -4.31,5-11.23,6.8-12.58,7.11 h 0 s -.85.18-1.28.22-1.24.1-1.24.1 c -.74,3.14-2,8.24-3.26,13.32 a 105.34,105.34,0,0,0-3.42,21.47 c -14.37,8.32-34.85,1.36-39.17-.27 a 25.77,25.77,0,0,0,1.5-11.7,87.44,87.44,0,0,0-3.19-12.81 c .91,1.82,1.75,3.49,2.44,4.89,2.58,5.25,6.25,11.67,6.5,16.42-.17-7.33-5-16.25-7.92-21.58 s -8.33-21.08-9.75-31.33-.14-15.95-.14-15.95 a 11.32,11.32,0,0,1-9.19-7.8 c -2.67-7.33,3.83-13.17,7.83-14.08 s 11.33,2.33,13.58.67 c 0,0,3-.63,6-4.45 a 13.72,13.72,0,0,0,3,.53 s -6.68-2.27-4.52-6.52 a 13,13,0,0,0,5.44,1.86 s -3.62-.75-4.79-3.58 c -.92-2.24.53-3.9,3.48-4.58-.2,1.37-.56,3-.69,3.52 a 12.29,12.29,0,0,1-1.29-.56 c 4,3.83,14.31,3.48,16.31.31-.34.14-.67.25-1,.37-.08-.65-.26-2.27-.35-3.46 l .11,0 c 2.67.83,4.63,4.94-2.27,7.79 a 14.08,14.08,0,0,0,4.65-1.69 c .38,1,.83,3.77-3.94,6.21 a 8.73,8.73,0,0,0,2.31-.8,15.83,15.83,0,0,0,3.5,4 c 1.13.75,3.63,2.44,5.13,1.56 a 12.37,12.37,0,0,1,2.84-1.13 l 0,.07 a 1.91,1.91,0,0,1,.51-.21 h .05 a 10.94,10.94,0,0,1,6.35.35,9.16,9.16,0,0,0-8-1.94,8.91,8.91,0,0,0-1.28.41,5.28,5.28,0,0,1-2.47.69 c -2.53-.69-4.47-3.65-5.13-4.78 a 4.66,4.66,0,0,0,1.38-5.48,3,3,0,0,0,.69-1.9 c 0-1.81-1.16-4.35-6.19-5,0,.2,0,.43,0,.66 h 0 s .17,2.82.55,5.11 a 20.62,20.62,0,0,1-10.8-.08,34.56,34.56,0,0,0,.75-5.19 h 0 l .05-.63 a 16.26,16.26,0,0,0-4.36,1 c -2.37,1-4.37,2.79-2.87,5.63 a 3.67,3.67,0,0,0,.32.5,5.1,5.1,0,0,0-.82,4.13,3.23,3.23,0,0,0,1.63,2.09,10,10,0,0,1-3.84,3.45 s -2,1.42-5.25,0 a 13.21,13.21,0,0,0-11.42-.08 A 12.8,12.8,0,0,0,261,240.21 c 1,6.25,4.67,9.17,9,10.83-.83,7.83,1.08,24.17,3.75,30.33.69,1.6,1.52,3.4,2.42,5.28,1.09,3.11,2.37,6.77,3.16,9.05,1.58,4.58,4.75,15.25,2.83,21.58 s -3.67,11.17-10.08,21.58-14.17,26.5-14.5,50.5 c -.3,21.34,6.18,29.25.18,42.87,12.68-2.13,21.49,1.8,28.49,3.3 a 126,126,0,0,0,39.33,2.5 c 17.33-1.83,24.06-11.72,24.06-11.72 a 71.82,71.82,0,0,1-2.48-19.94 C 347.17,398.54,346.17,384.13,342,371.54Z m -7.8-13.73 a 31.41,31.41,0,0,1-7.15,3.78 c -1-2.39-1.55-4.29-1.55-4.29 a 20.91,20.91,0,0,0,6.72-3.37Q333.26,355.86,334.2,357.81Z m .48,1 a 106.4,106.4,0,0,1,4.48,11.24 c -.63.6-2.47,1.9-5.83.64-2.3-.86-4.4-4.71-5.85-8.06 A 20.48,20.48,0,0,0,334.69,358.83Z m -12.56-34.72 c 0,.82,0,1.64,0,2.44 a 56.86,56.86,0,0,0,.66,6.67 c -13.34,11-40.69.81-44.65-.76 a 76.49,76.49,0,0,0,4.29-9.34 C 304.39,331.9,318.35,326.11,322.13,324.11Z m -58,36.72 a 60,60,0,0,0,14.12,3 c -1.39,3.85-3.4,7.18-6.6,9.28-3.58,2.36-8.51,1.3-10.72.64 A 77.47,77.47,0,0,1,264.15,360.83Z m 14.61,1.57 c -4.68.12-12-2.09-14.17-2.81q.94-2.65,2-5.16 A 76.91,76.91,0,0,0,279.92,358 C 279.59,359.48,279.21,361,278.76,362.4Z m -.34,69.31 c -8.24-2-14.75-2-18.08-1.34,2.65-7.64,1.78-13.15.92-19.32-1.06-7.59-2.59-20.72-.54-35.67,15.45,4.8,19.08-8.06,21.29-18.75 a 110.06,110.06,0,0,1-14.57-4.09,170.59,170.59,0,0,1,8.32-15.74 c .57-1,1.12-2,1.65-2.92,29.24,12.16,42.59,4,45.83,1.36,1,4.14,2.77,8.2,6.36,14.06.69,1.13,1.35,2.27,2,3.42 a 29.86,29.86,0,0,1-7.43,3.75 s 2.69,12.41,8.11,15.16 c 4.14,2.1,6.47.56,7.34-.29q1.3,4,2.32,8.12 A 97.16,97.16,0,0,1,345,404.21 c -.06,4.3.45,14.68,2.44,22.3 C 328.46,443.49,294.59,435.54,278.42,431.71Z"/>
  </g>
<script type="text/ecmascript" xlink:href="param.min.js"/> 
</svg>
