<?xml version="1.0"?>
<svg xmlns="http://www.w3.org/2000/svg" xmlns:xlink="http://www.w3.org/1999/xlink" viewBox="0 0 600 600">
  <title>basic-tank-top-voluptuous</title>
  <g id="main-colour">
    <path d="M 349.08,313.37 c -3.74-6.12-7.64-11-8.26-15.9 a 22.62,22.62,0,0,1,.74-6.76 c 15.89-6.27,16.81-21.29,15.06-29.34-1.2-5.52-5.1-9.54-7.74-11.72.05-.14.09-.28.14-.42 a 43.65,43.65,0,0,0-6-3.36 c -2.83-1.25-4.92-2.58-7.83-6.67-2.16-3-2.81-9.5-3-12.67 a 47.45,47.45,0,0,0-5.25.84 c 4.25,15.94,3.61,29.5-8.37,30.25-22,1.38-30.75-16.5-33.75-21.5-1.39-2.31-6.56-10.42-7-12.12 l -.11-.13 c -1.36,2.13-2.49,2.59-5.26,3.51,10,13.75,6.38,24.5,2.63,32 s -13,13.5-21.37,13.88 a 28.21,28.21,0,0,1-7.37-.51,110.42,110.42,0,0,0,4,15.73 c 3.38,10.88.5,15.5-3.37,21.38 S 235.69,328,231.94,340 c -.32,1-.62,2.1-.9,3.2,5.07-.81,13.11-1.62,19.57,0,10.25,2.5,27,9.5,41.25,12 s 34.75,2.75,49.25-3.5 a 88.94,88.94,0,0,0,17.14-9.88 C 356.91,332.17,354.24,321.82,349.08,313.37Z" fill="param(main_colour)"/>
  </g>
  <g id="outline">
    <path d="M 232,344 s 11.17-4.17,34.83,5,63.33,17,91.67-6.5 c 0-.83-.17-2.42-.17-2.42 s -14.83,13.08-34.67,15.08 S 289.52,355,272.52,349 s -29.67-10.33-40.5-6.83 A 5.64,5.64,0,0,0,232,344Z"/>
    <path d="M 238.86,338.5 s 5.25-2.37,28.13,5.88,36.13,9.25,48.38,9,26.13-4.87,33.88-10.25 c -6.87,3.13-20.5,9.25-34,9.13 s -22.62-.75-37.87-5.62 S 244.11,335.13,238.86,338.5Z"/>
    <path d="M 251.19,286.56 A 67.15,67.15,0,0,1,247.54,273 c -.94-.11-1.8-.23-2.53-.35 a 40.59,40.59,0,0,0,1.43,6.67 c 3.83,12.33,8.19,18.93,0,29.83 a 84.46,84.46,0,0,0-15.86,35.09 c 1-.21,1.91-.39,2.57-.5 h 0 a 82.53,82.53,0,0,1,4.16-14 c 4.5-10.17,8.79-16.58,13-23.08 a 17,17,0,0,0,2.16-5 A 175.88,175.88,0,0,1,254,322.88 a 74.72,74.72,0,0,0-1.88-33.38 C 251.84,288.46,251.53,287.47,251.19,286.56Z"/>
    <path d="M 265.09,277.64 c 3,15.07,16.51,23.26,30,19.9 C 282.73,297.21,271.73,290.21,265.09,277.64Z"/>
    <path d="M 343.65,302.42 c -1.89-3.39-2.08-6.14-1.13-10.81,4.57-1.82,14.54-7.89,15.87-20.65,1.38-13.12-5.62-21.08-12.48-24.44-2.85-1.4-5.88-3.12-8.57-4.74 l 2.27,2.95 h 0 c .93.58,1.82,1.1,2.63,1.54,5.21,2.8,11.13,8.07,12.83,14.58,2,7.67,1.29,14.67-4.46,22.17 a 22.09,22.09,0,0,1-10.39,7.25 c -1.75,6.17-.68,10.75,3.86,17.37,8.09,10,11.95,23.44,13.75,35.47v0 l 1.67-1.37 C 355.87,316.59,345.54,305.8,343.65,302.42Z"/>
    <path d="M 271.15,226.83 s 5.56,6.91,6.45,14.55 c 1.17,10-2.14,22.18-15.17,28.75 a 22.2,22.2,0,0,1-17.58,1.08 l .25,2.33 s 8.9,2.92,19.33-2.5 c 10.58-5.5,23.26-24.07,9.14-43.45 C 272.7,227.35,271.15,226.83,271.15,226.83Z"/>
    <path d="M 276.94,224.88 s 4.47,6.67,10.21,17.17 c 5.83,10.67,19,18,32,16.42,18.28-2.28,8.08-31.71,8.08-31.71 l -1.5.38 s 8.7,28.26-6.83,29.58 c -26.42,2.25-31.58-21.58-41.42-33.83 A 4.58,4.58,0,0,0,276.94,224.88Z"/>
    <path d="M 331.36,226.05 a 5.35,5.35,0,0,1,1.7.11 s -.72,12.72,7.06,17.25 l -.5,1.31 a 17.85,17.85,0,0,1-7.35-11.29 C 331.77,230.84,331.36,226.05,331.36,226.05Z"/>
    <path d="M 325.73,227.13 s 4.13-1.69,7.33-1 c 0,.34-.23,1.44-.23,1.44 s -4.22-.41-6.53,1 A 12.09,12.09,0,0,0,325.73,227.13Z"/>
    <path d="M 271.15,226.83 a 8,8,0,0,0,6.33-4 c 0,.79,0,2.46,0,2.46 s -2.37,2.33-4.87,2.5 A 16,16,0,0,1,271.15,226.83Z"/>
  </g>
<script type="text/ecmascript" xlink:href="param.min.js"/> 
</svg>
