<?xml version="1.0"?>
<svg xmlns="http://www.w3.org/2000/svg" xmlns:xlink="http://www.w3.org/1999/xlink" viewBox="0 0 600 600">
  <title>curvy-top-template</title>
  <g id="main-colour">
    <path d="M 379,397.88 c -10.17-.67-12.67-13-15.83-24.67 s -11.17-28.5-16.83-34.5-8.67-8.17-11.67-17.17-.67-20.17,1.67-26.67,4.74-14.82,6.66-20.25 c 2.38-6.74,1.81-15.34-1.94-23.61 a 17.35,17.35,0,0,1-2.85-.56 l -2.6-3.3 c -10.54-2.3-21,3.79-25,11.72-3.83-4.83-14.15-11.05-24.25-9.62-8.55,1.21-19.2,8.46-22.87,17.79-3.17.17-8.67,3.33-8.67,3.33,1.67,12.17,5.5,18,10,26.83 a 24.25,24.25,0,0,1-.33,22.83 c -3,5.67-13.83,17.67-20.67,28.5 S 232.17,378.21,230,384.88 s -9.17,14.5-17,14.83 c 6.33,21.5,33.33,32.5,33.33,32.5 l -3,3.67 s 18,14,48.67,15.5 S 342.34,441,342.34,441 a 8.14,8.14,0,0,0-1.67-2 c 19.17-8.83,26.17-19,26.17-19 a 14.78,14.78,0,0,1-3.17-1.83 C 372.17,412.88,376.67,404.54,379,397.88Z" fill="param(main_colour)"/>
  </g>
  <g id="outline">
    <path d="M 380.52,396.63 c -12,.25-11.75-11-19.25-32.5 s -16.75-27.87-21.12-33.75-6-13.5-5.62-21.87,8.35-30.37,8.35-30.37 a 19.06,19.06,0,0,0,2.88-7.37 c .86-6.05-.06-12-6.2-19.69 a 9.41,9.41,0,0,0,2.49.57,3.57,3.57,0,0,0-.17-1,6.65,6.65,0,0,1-3.59-1.09 c -.62-.72-1.28-1.45-2-2.21-8.42-2.46-19.08,0-25.92,10.17-16.17-15.62-36.83-8.46-47.1,8.13 a 39.06,39.06,0,0,0-9.38,3.75 c 1,10.25,5.63,20.5,8.75,25.75 s 5.25,12.63,3,20.25-11.5,15-21.38,30.5-12.37,30.63-15.5,38.75-9.37,13.5-17.12,14.38 c 3.46,18.11,27.7,31.21,32.8,33.78q-1.39,1.68-2.92,3.35 c 23.13,18.88,71,23.25,103,4.88-.59-.5-1.15-1-1.7-1.54,4.2-2.2,20-10.86,25.7-19.71q-1.17-.56-2.28-1.2 C 371.7,414.16,379.09,404.89,380.52,396.63Z M 364,417.14 c -9.73-6.63-15-17-15-17,2.13,7.25,10,17.13,16.25,20.38-8.6,9-20.71,15.52-24.17,17.27-9-9.3-13.52-20.88-15.08-32.27-1.12,12.25,6.63,26.88,14.63,35-7.87,6.38-60,20.13-96-4.75,5.5-5.25,14.88-24,16.25-34.25 a 84.48,84.48,0,0,1-15,29.45 c -8.68-2.93-27.79-18.18-31.64-30.2,16.5-3.87,18.63-21,22.38-33.25 s 9.25-20.37,15.75-29.37,11.38-13.25,14.88-21.87-.87-19.12-3.37-23.12-7.75-16.12-7.75-22 c 2.88-2.25,8-3,8-3 s 3.69-9.73,16.72-15.5 c 11-4.87,23.75-.12,30,7.25,7.5-13.17,21.17-12.5,25.33-10.5,2.13,2,8.92,9.88,7.79,19.75-.37,3.2-2.75,7.63-2.75,7.63 s -6.72,17.88-8,27.38-.62,18.88,3.5,25.13,10.38,10.38,16.75,22.38,9.63,25.88,11.88,33.63,7.63,14,12.13,13.5 C 374.11,408.78,366.52,415.21,364,417.14Z"/>
    <path d="M 284.47,288.42 c 11.6,2.27,18-2,21.53-7.91 C 295.37,289.64,286,288.66,284.47,288.42Z"/>
    <path d="M 284.47,288.42 l -.22,0Z"/>
  </g>
<script type="text/ecmascript" xlink:href="param.min.js"/> 
</svg>
