<?xml version="1.0"?>
<svg xmlns="http://www.w3.org/2000/svg" xmlns:xlink="http://www.w3.org/1999/xlink" viewBox="0 0 600 600">
  <title>city-classic-top-curvy</title>
  <g id="main-colour">
    <path d="M 339.16,287.09 a 20.16,20.16,0,0,0,10.81-11 c 4.5-10.75-1.67-20-3.33-22 a 48.81,48.81,0,0,0-5.73-5,16.15,16.15,0,0,0-.69-1.51 h 0 a 12.69,12.69,0,0,0-6.41-19.85 h 0 c -4-2.33-12.07,1.18-12.07,1.18 s -1.69-1.5-4.75-4.75 c -.23-.25-.52.62-.45,1.52.52,6.58.6,16.75-2.48,25.66-15.25-4.58-28.5-20.69-32-27.87 a 19.23,19.23,0,0,1-6.52,6,54.44,54.44,0,0,0-11-3.12,13.69,13.69,0,0,0-13.87,6.13 c -4.62,8.75-.12,15.63,3.88,18.5-2.75,22.25,4.63,35.5,7.25,40.25 s 4.63,8.5,5.5,15.13 c 1.38,11.88-6.84,18.9-16.21,30.78-7,8.81-10.38,18.38-11.1,24.12 A 69,69,0,0,0,262.44,368 c 16.08,2.25,44.61-1,58.7-20.42,7.58,7.58,17.16,10.89,28.55,11.93,0-2.46-.08-5.43-.08-5.43,0-2.48-3.58-11.08-6.25-16 s -5.42-8.6-7.62-14 c -3.08-7.54-2.16-17.82-1.08-23 C 335.64,296.41,337.12,292.73,339.16,287.09Z" fill="param(main_colour)"/>
  </g>
  <g id="accent-colour-1">
    <path d="M 282.05,224.46 s 8.5,16.75,32,26.92 c 3.83-11.42,2.24-27.65,2.58-27.42 a 12.54,12.54,0,0,1,3.58,4.42,82.7,82.7,0,0,1,6.42,25.75 c .83,12.17-1,30-6.62,41-1-2.75-1.87-9.75-3.37-15.58 s -6.42-18-13.58-24.5-13.17-10.25-17.75-17.83-5.08-11.08-5.08-11.08Z" fill="param(accent_colour_1)"/>
  </g>
  <g id="accent-colour-2">
    <path d="M 266.23,317 s 7.38,4.75,19.13,5 c -1.75,7.88-7.75,17-16,17.25 s -12.87-6.37-12.87-8.87 a 95.93,95.93,0,0,0,7.74-9Z" fill="param(accent_colour_2)"/>
    <path d="M 334.36,320.13 a 47.64,47.64,0,0,0,4.5,10.13 c 2.63,4,4.13,6.25,4.13,6.25 s -3.87,2.5-7.37-2.12 S 331,322.5,331,322.5Z" fill="param(accent_colour_2)"/>
    <path d="M 280.22,226.13 l -2.5,1.58 A 91.68,91.68,0,0,0,280.14,252 a 94.81,94.81,0,0,0,22.17,7.17,21,21,0,0,0-4.67,7.67 c 10.58,5.17,18.42,21.42,21.67,29-1.42-13-4.08-24.83-9.58-32.58 s -12.5-13.33-16.33-16.58 S 282.39,234.63,280.22,226.13Z" fill="param(accent_colour_2)"/>
    <path d="M 320.05,227.55 s 4.5,9.08,6.17,23.33-.83,30.75-5.46,44 c 3.13-2.67,5.38-7.58,7-11.17 s 5.75-15.92,6.33-23.25 a 41.44,41.44,0,0,0-5.67-7.25,21.78,21.78,0,0,0,5-8.17,118,118,0,0,0-10.08-14.17Z" fill="param(accent_colour_2)"/>
  </g>
  <g id="outline">
    <path d="M 275.89,285.5 c 7.75,13.75,20.25,11.75,27.13,8.38 C 285.14,298.13,275.89,285.5,275.89,285.5Z"/>
    <circle cx="319.76" cy="256.63" r="1"/>
    <circle cx="321.89" cy="263" r="1"/>
    <circle cx="323.14" cy="269.88" r="1"/>
    <circle cx="323.39" cy="276.38" r="1"/>
    <path d="M 350.7,358.4 c -.12-6-1.85-15-10.8-28.18-3.57-6.17-7-11.63-4.71-27.38.74-4.58,2.6-9.54,4.46-14.71 a 11.65,11.65,0,0,0,2.07-1 c 5.8-3.41,11.42-10.49,11.1-19.33-.33-9.25-5.1-15-11.68-19.5 S 328,235.13,328,235.13 l 0,.06 c -1.72-2.16-3.52-4.15-5.22-5.94 a 15.27,15.27,0,0,1,11-1.47 s -3-2.13-8.11-1.29 a 15.89,15.89,0,0,0-4.13,1.45,68.1,68.1,0,0,1-6-6.55,76.89,76.89,0,0,1-2,29.38 c -12-5.87-26.37-18-31.75-28.62 a 19.74,19.74,0,0,1-5.37,4.88 s 0,.24,0,.68 c -.58.36-1.18.85-1.7.64-8.24-3.42-12.33-3.1-12.33-3.1 a 14.7,14.7,0,0,0-8.79,26.48,93.5,93.5,0,0,0,.74,20.13 c 1.75,12.27,5.5,17.39,9.13,24.39 s 4.91,20-2.62,28.16 c -15.58,16.86-20.15,26.76-21.54,36.39,0,.23-.07.47-.1.72,28.55,15.82,67.72,7.28,82.15-12.86,8.34,9.58,26,11.54,29.36,11.83 a 17.36,17.36,0,0,0,0-2.06Z m -9.23-22 c -1.26.31-3.63.26-5.93-3.18 a 22.55,22.55,0,0,1-2.69-5.68 l 2.41-1.32 a 42.7,42.7,0,0,0,4.24,7.17 C 340.23,334.42,340.87,335.42,341.48,336.39Z m -9.59-13.52 a 19.66,19.66,0,0,0,1.86-1.25,27.38,27.38,0,0,0,1,3.21 c -.62.42-1.53,1-2.23,1.38 A 19.9,19.9,0,0,1,331.89,322.88Z m -25.44-62.49 a 53.54,53.54,0,0,1,5.57,8.74 c 3.32,6.65,4.78,14.84,6.4,23.52-4.57-11.54-11-20.43-19.77-26.27 a 18.82,18.82,0,0,1,4.12-6.5 C 304.35,260.13,305.62,260.3,306.44,260.39Z m 19.69-2.26 c .73,13.89-2.83,27.11-4.83,33.31,1-7.65,2.42-26.41-5.72-38.9 a 44.85,44.85,0,0,1,8.93,4.71,23.92,23.92,0,0,0,1.08-5.71 C 325.83,253.62,326,255.82,326.14,258.13Z m -6.48,34.67 c -.77-4.89-2.66-16.11-4.39-20.17 a 54.82,54.82,0,0,0-6-11.49,44.57,44.57,0,0,0,5-8.51 C 316.35,256.22,323.56,270.79,319.65,292.79Z m 7.6-37.17 c .24-.26.66-.71,1.16-1.3 a 79.11,79.11,0,0,1,5.1,6.42,81.39,81.39,0,0,1-11.66,32.79 A 94.68,94.68,0,0,0,327.25,255.62Z m -.15-2 c -1.19-12.19-4.12-20.24-6-24.3,3.34,3.76,8.34,9.84,11.51,15.88 C 331.53,248.89,328.3,252.43,327.1,253.67Z m -9.46-28,.64.66 c 2,3.23,4.54,9.28,6.21,18 a 60.2,60.2,0,0,1-.6,11 A 34.58,34.58,0,0,0,315,251 C 318.79,241.38,317.64,225.63,317.64,225.63Z m -35.75,0 c 6.65,11.36,21.8,23,31.61,26.18-1.46,2.85-4.07,6.87-5,8.29-5-6.74-10.62-10-16.73-16 a 41,41,0,0,1-10.68-17.71 A 9.2,9.2,0,0,0,281.89,225.63Z m -3.12,2.75,1-.84 c 2.19,9.21,12.22,19.65,17.47,23.59 a 48.71,48.71,0,0,1,8,7.75 c -6.61-.95-13.21-2.24-24.34-7.75 A 127.17,127.17,0,0,1,278.76,228.38Z m 4.13,98.12 a 41.91,41.91,0,0,1-17.94-4.7,23.86,23.86,0,0,0,1.81-3.35,44.19,44.19,0,0,0,17.46,4.43 A 36.12,36.12,0,0,1,282.89,326.5Z m -20.74-1q1.08-1.23,2-2.54 c 6.68,3.77,15,4.89,18,5.18-4,8.15-10.26,11.41-15.59,10.09-6.36-1.57-8.52-5.67-9.13-7.22 C 259.15,328.91,260.79,327,262.15,325.47Z m 18.65,41.65 c -20.34,1.9-33.45-3.14-39.33-6.21 a 49.52,49.52,0,0,1,4.16-13.54,107.25,107.25,0,0,1,10.52-14.86,14,14,0,0,0,8.73,7.19 c 10.17,2.67,17.67-3.17,21.83-18.33-10.69-.42-17.31-3.72-19.24-4.81,1.36-4.11,1.57-8.92-.08-14.85-2.77-9.94-7.63-12.17-10.77-27.58 a 83.89,83.89,0,0,1-1.13-21.29v-.19 l 0-.24,0-.35 c 0-.28,0-.43,0-.43 h 0 l .08-.93 a 12.7,12.7,0,0,1,6.69-23.5 h 0 c .43,0,.87,0,1.32.07 a 39.48,39.48,0,0,1,6.89,1.43 l .87.26.08,0 c 1.69.53,3.37,1.12,5,1.69 a 140.5,140.5,0,0,0,2.5,21.69 c 7.46,4.07,16.29,6.19,22.12,7.22 a 29.45,29.45,0,0,0-4.62,7.4 c 11.52,5.31,20.08,23.38,22.55,30.22-.51,3-2.68,16.91-1.38,28.74,1.23,11.27,2.61,19.13,3,21.29 A 61.3,61.3,0,0,1,280.8,367.13Z m 41.07-19.82 a 231.39,231.39,0,0,1-3-26.16 A 137.87,137.87,0,0,1,320.45,298 c 5.71-7.42,12.41-21.24,14.56-37.46 a 37.22,37.22,0,0,0-5.88-7,29.63,29.63,0,0,0,5.13-8.35 c -.37-.85-.79-1.68-1.23-2.5 a 74,74,0,0,0,9.19,8.8,21.83,21.83,0,0,1,8.08,14.67 c .92,6.67-3,13.92-7.11,17.33 a 21.63,21.63,0,0,1-4.58,2.88 c -.14.35-.27.74-.4,1.12 h 0 c -2.44,7-5,14-5.38,21.54 a 49.5,49.5,0,0,0,.52,10.71 c -.93.8-2.39,1.92-3.45,2,1.3,8.27,5.59,18.27,12.43,16 a 43.64,43.64,0,0,1,6.63,20.61 C 342.69,358,329,354.93,321.87,347.31Z"/>
    <circle cx="323" cy="305.63" r="1.78" transform="translate(12.68 624.12) rotate(-89.16)"/>
    <circle cx="322.71" cy="317.38" r="1.78" transform="translate(0.64 635.4) rotate(-89.16)"/>
    <circle cx="323.18" cy="327.88" r="1.78" transform="translate(-9.4 646.23) rotate(-89.16)"/>
    <circle cx="324.39" cy="338.78" r="1.78" transform="translate(-19.1 658.18) rotate(-89.16)"/>
  </g>
<script type="text/ecmascript" xlink:href="param.min.js"/> 
</svg>
