<?xml version="1.0"?>
<svg xmlns="http://www.w3.org/2000/svg" xmlns:xlink="http://www.w3.org/1999/xlink" viewBox="0 0 600 600">
  <title>wedding-dress-voluptuous</title>
  <g id="main-colour">
    <path d="M 245.85,265.63 s 4.88,2.63,13-.5,17.38-8.25,29.25-11,21,.5,29.38,6.38 c 7.38-7.75,18.13-10.75,24.88-10.37,8,6.88,11,16,8.38,24 s -8,11.38-8,11.38-3.25,7.5-.75,13.13,11.88,18.75,21.5,30.38,23.5,32.5,40.63,72.38,27.25,94.13,29.13,109.75,1.25,21.38,1.25,21.38-3.62,4.25-7.75,6-9.75,8-9.75,8 l .25,7.63 s -5.87,12.25-19,16.38-26.75,2.5-30.5,6.25 c .13,4.88.5,11.13.5,11.13 a 35,35,0,0,0-17.37,1 c -9.12,3-13.75,7.25-23.62,7.5 s -17.75-2.12-24.5-2.87-17.25.63-21.37,2.38 c 1-5.37.38-6.62.38-6.62 s -12.37-6.37-20.37-5 S 239.72,586.5,229,578 c -1-6-1-6.62-1-6.62 s -6-3.62-11.62-4.25-23-3.12-25.5-9.5 c -.25-7.75-.5-8.37-.5-8.37 s -6.87-4.5-11.12-5.12-6.62-3.62-7.87-9-3.87-28.75-1.37-55.87,9.88-58.25,18-77.5,17-38.62,34.38-62.87,27.75-32.5,28.88-38.37-.12-10.25-1.5-14.25 S 245.1,272.38,245.85,265.63Z" fill="param(main_colour)"/>
  </g>
  <g id="accent-colour-1">
    <circle cx="277.53" cy="226.19" r="2.58" fill="param(accent_colour_1)"/>
    <circle cx="272.6" cy="229.25" r="2.58" fill="param(accent_colour_1)"/>
    <circle cx="277.29" cy="232.44" r="2.58" fill="param(accent_colour_1)"/>
    <circle cx="282.54" cy="235.19" r="2.58" fill="param(accent_colour_1)"/>
    <circle cx="287.85" cy="237.38" r="2.58" fill="param(accent_colour_1)"/>
    <circle cx="293.35" cy="239.5" r="2.58" fill="param(accent_colour_1)"/>
    <circle cx="298.79" cy="240.94" r="2.58" fill="param(accent_colour_1)"/>
    <circle cx="304.29" cy="241.19" r="2.58" fill="param(accent_colour_1)"/>
    <circle cx="310.04" cy="240.82" r="2.58" fill="param(accent_colour_1)"/>
    <circle cx="315.6" cy="239.57" r="2.58" fill="param(accent_colour_1)"/>
    <circle cx="320.22" cy="236.38" r="2.58" fill="param(accent_colour_1)"/>
    <circle cx="324.66" cy="232.82" r="2.58" fill="param(accent_colour_1)"/>
    <circle cx="328.66" cy="228.82" r="2.58" fill="param(accent_colour_1)"/>
    <circle cx="313.51" cy="244.88" r="2.58" transform="translate(47.78 540.92) rotate(-86.08)" fill="param(accent_colour_1)"/>
    <circle cx="308" cy="245.82" r="2.58" transform="translate(41.7 536.29) rotate(-86.08)" fill="param(accent_colour_1)"/>
    <circle cx="311.99" cy="249.79" r="2.58" transform="translate(41.46 543.97) rotate(-86.08)" fill="param(accent_colour_1)"/>
    <circle cx="282.35" cy="229.38" r="2.58" fill="param(accent_colour_1)"/>
    <circle cx="287.6" cy="231.88" r="2.58" fill="param(accent_colour_1)"/>
    <circle cx="292.85" cy="234" r="2.58" fill="param(accent_colour_1)"/>
    <circle cx="298.35" cy="235.44" r="2.58" fill="param(accent_colour_1)"/>
    <circle cx="304.04" cy="235.88" r="2.58" fill="param(accent_colour_1)"/>
    <circle cx="309.6" cy="235.19" r="2.58" fill="param(accent_colour_1)"/>
    <circle cx="314.97" cy="233.82" r="2.58" fill="param(accent_colour_1)"/>
    <circle cx="319.97" cy="230.82" r="2.58" fill="param(accent_colour_1)"/>
    <circle cx="323.6" cy="226.63" r="2.58" fill="param(accent_colour_1)"/>
    <circle cx="258.27" cy="276.8" r="2.33" fill="param(accent_colour_1)"/>
    <circle cx="261.42" cy="288.98" r="2.33" fill="param(accent_colour_1)"/>
    <circle cx="260.6" cy="303.52" r="2.33" fill="param(accent_colour_1)"/>
    <circle cx="277.31" cy="268.72" r="2.33" fill="param(accent_colour_1)"/>
    <circle cx="281.71" cy="283.4" r="2.33" fill="param(accent_colour_1)"/>
    <circle cx="280.81" cy="297.21" r="2.33" fill="param(accent_colour_1)"/>
    <circle cx="278.24" cy="308.54" r="2.33" fill="param(accent_colour_1)"/>
    <circle cx="299.6" cy="307.78" r="2.33" fill="param(accent_colour_1)"/>
    <circle cx="302.42" cy="289.34" r="2.33" fill="param(accent_colour_1)"/>
    <circle cx="299.53" cy="273.34" r="2.33" fill="param(accent_colour_1)"/>
    <circle cx="292.39" cy="258.62" r="2.33" fill="param(accent_colour_1)"/>
    <circle cx="318.54" cy="265.45" r="2.33" fill="param(accent_colour_1)"/>
    <circle cx="320.13" cy="279.92" r="2.33" fill="param(accent_colour_1)"/>
    <circle cx="316.57" cy="301.69" r="2.33" fill="param(accent_colour_1)"/>
    <circle cx="313.73" cy="320.29" r="2.33" fill="param(accent_colour_1)"/>
    <circle cx="330.83" cy="309.13" r="2.33" fill="param(accent_colour_1)"/>
    <circle cx="332.64" cy="292.31" r="2.33" fill="param(accent_colour_1)"/>
    <circle cx="337.45" cy="273.8" r="2.33" fill="param(accent_colour_1)"/>
    <circle cx="335.4" cy="257.06" r="2.33" fill="param(accent_colour_1)"/>
    <path d="M 316.35,259.88 S 322,272.71,318.18,291 s -6.5,33-3.67,43 l .83.83 h 0 a 66.17,66.17,0,0,1-.33-19 c 1.33-10.5,3.5-19,4.83-27.33 s 1.08-19.92-1.87-28 A 3.64,3.64,0,0,0,316.35,259.88Z" fill="param(accent_colour_1)"/>
    <path d="M 332.68,251.55 s 6,11.5,4,22.5-8.67,29.33-5.83,43.67 l 1-.83 a 72.08,72.08,0,0,1,0-14.83 c .85-8,4.83-21.5,5.83-27.67 s -.33-16.5-4-23.17 C 333.35,250.55,332.68,251.55,332.68,251.55Z" fill="param(accent_colour_1)"/>
    <path d="M 289.68,254.21 s 8.83,15.5,11,25,1.5,18.67-5,41.67 l .67.83 h 0 s 6.28-17.57,6.68-32.7 c .43-16.13-12.52-35.3-12.52-35.3Z" fill="param(accent_colour_1)"/>
    <path d="M 271.85,260 s 8.5,12.33,9.33,25.5-4.83,27.5-4.83,27.5 l 1,.33 s 6.33-14.5,5-28.17-9.17-25.33-9.17-25.33Z" fill="param(accent_colour_1)"/>
    <path d="M 254.85,266.71 s 1.29,7.38,3.31,11.85,5.52,17.48-.15,30.15 c 1.83.33,1.33.33,1.33.33 s 4.59-11.3,2.3-21.82-5.13-17.68-5.46-21 A 4.51,4.51,0,0,1,254.85,266.71Z" fill="param(accent_colour_1)"/>
  </g>
  <g id="outline">
    <path d="M 432.85,498.5 a 483.25,483.25,0,0,0-24.25-90.25 C 399.35,384,384.35,352,369.22,334 s -24.5-31.87-26.37-35.75,1.13-12.5,1.13-12.5 A 22.74,22.74,0,0,0,352.85,270 c .88-10.25-5-16.75-10.62-21.12 C 329,247.38,317,259.21,317,259.21 S 309.35,252,296.18,252 s -29.17,9.17-37.33,11.83 a 23,23,0,0,1-14.5.17 c -.17,13.17,5.33,23.67,6.33,29 s 1.33,6.5-15.17,26.5-32.5,43.17-44.67,69.83 S 172,442.88,169,473 s -1.67,47.33,1,64.83 a 14.81,14.81,0,0,0,11.33,8.67,15.54,15.54,0,0,1,7.51,3.63 c .34,3.54.76,6.63,1.24,9.2,7.5,6.75,16.5,8.25,23.75,8.75 a 29.36,29.36,0,0,1,13,4.35q.2,3.14.46,6.15 c 12,8.5,23.25,9,30.25,7.75,6.05-1.08,15.45.09,20.64,3.33.44,2.72.9,5.42,1.36,8.17,8.5-3.75,19-3.5,26.25-2 s 25.5,4.25,35.75-1.25,19.75-6.75,28.25-4.5 c -.27-4-.58-8.18-.91-12.39,6-4.05,16.72-.93,30.66-6.11,15.5-5.75,18.75-17.25,18.75-17.25 s 0-2.77-.19-7.73 a 35,35,0,0,1,9.07-6.89 c 6.5-3.37,8.5-7.37,8.5-7.37 S 435.6,510.75,432.85,498.5Z M 251.72,288 c -1.87-5.62-4.62-12-4.75-20.87,4.13,1.38,11.25.13,18-2.75 s 18.5-8.5,27.75-9.62,18.13,2.5,24.88,7.13 a 36.5,36.5,0,0,1,24.13-10.75,22.67,22.67,0,0,1,8.63,14.75 c .75,6.25-1.75,13.13-8.12,18.38-5,10.82-1.39,16.44,2.2,21.69-3.35,2.28-20.24,14.18-29.07,28.1-15.61-15.13-44.74-27.14-66.68-25.85.85-1,1.51-1.87,1.93-2.44 C 253.72,301.5,253.6,293.63,251.72,288Z M 424.35,538.5 a 24.68,24.68,0,0,0-6.31,5.4 c -1-20.67-4.88-68.89-20.94-117.27-21.25-64-50.5-96.25-50.5-96.25,24.25,32.75,47.5,92.25,55.75,126 s 11.75,73.5,13,97.25 c -5,11.75-18.25,18-31,18-8.42,0-13.33,1.41-15.71,2.38-2.11-25.83-5.2-54-8.29-78.13-3.75-29.25-14.75-110-39.5-149.25,9.75,22,19,46.5,29,100.5 s 16.5,138.75,16.5,138.75-14.25-.5-22.5,4-17,5.75-22.75,5.25-17.75-2.75-22-3.25-13.33-.58-16.58,1.17 c -4.5-22-4.56-39.74-4-58,.67-21.58,4.83-71.42,13.33-117.67 s 13.25-72.25,13.25-72.25 S 284.79,416.79,277.85,488 c -5.31,54.5-3.36,77.59-.18,98.08 a 26.39,26.39,0,0,0-17.32-2.74 c -12.5,2.25-26-3-29.25-5.75-1.5-30.5-1.5-52.75,3.25-90.75 s 14.5-78.75,22.25-101.25,21.25-49,21.25-49-22.5,29.75-36.75,94.5 c -13,59.09-16.22,104.43-14.4,138.13 a 39.58,39.58,0,0,0-14.35-3.88 c -9-.5-20.25-7.75-20.25-7.75 s -2.5-40,0-67,9-64.25,20.25-94.75,36-69.25,36-69.25-24,24.25-43,81.25 c -16.34,49-19.18,107.85-16.79,138.78 a 26.94,26.94,0,0,0-7.54-3.28 c -4.5-1-7.67-4-8.17-7.33-4.17-26.5-2.5-72.33,8.17-109.5 s 25-60.92,37.71-79.79 c 10-14.75,21.92-28.9,28.15-36.4,7.39-.55,36.07-.64,68.47,26,10.27-14.9,26.32-25.91,30.37-28.55,4,5.74,11.94,15.8,20.5,27.18,9.13,12.13,19.63,27.75,33.88,61.75 s 19,53.5,23.88,73.5,9,48.5,9.25,61.63 C 432.47,534,428.35,536.38,424.35,538.5Z"/>
    <path d="M 293.35,295.54 c -5.33-.5-15.5-1.83-23.67-15.83 C 269.68,279.71,273.85,297.71,293.35,295.54Z"/>
    <path d="M 277.11,271.37 h .24 a 2.51,2.51,0,0,0,2.5-2.5v-.24 a 2.51,2.51,0,0,0-2.5-2.5 h -.24 a 2.51,2.51,0,0,0-2.5,2.5v.24 A 2.51,2.51,0,0,0,277.11,271.37Z m -1.65-2.7 a 1.69,1.69,0,0,1,1.69-1.69 h .17 a 1.69,1.69,0,0,1,1.69,1.69v.17 a 1.69,1.69,0,0,1-1.69,1.69 h -.17 a 1.69,1.69,0,0,1-1.69-1.69Z"/>
    <path d="M 279.11,283.29v.24 a 2.51,2.51,0,0,0,2.5,2.5 h .24 a 2.51,2.51,0,0,0,2.5-2.5v-.24 a 2.51,2.51,0,0,0-2.5-2.5 h -.24 A 2.51,2.51,0,0,0,279.11,283.29Z m .85,0 a 1.69,1.69,0,0,1,1.69-1.69 h .17 a 1.69,1.69,0,0,1,1.69,1.69v.17 a 1.69,1.69,0,0,1-1.69,1.69 h -.17 A 1.69,1.69,0,0,1,280,283.5Z"/>
    <path d="M 281,294.63 h -.24 a 2.51,2.51,0,0,0-2.5,2.5v.24 a 2.51,2.51,0,0,0,2.5,2.5 H 281 a 2.51,2.51,0,0,0,2.5-2.5v-.24 A 2.51,2.51,0,0,0,281,294.63Z m 1.65,2.7 A 1.69,1.69,0,0,1,281,299 h -.17 a 1.69,1.69,0,0,1-1.69-1.69v-.17 a 1.69,1.69,0,0,1,1.69-1.69 H 281 a 1.69,1.69,0,0,1,1.69,1.69Z"/>
    <path d="M 278.35,306 h -.24 a 2.51,2.51,0,0,0-2.5,2.5v.24 a 2.51,2.51,0,0,0,2.5,2.5 h .24 a 2.51,2.51,0,0,0,2.5-2.5v-.24 A 2.51,2.51,0,0,0,278.35,306Z m 1.65,2.7 a 1.69,1.69,0,0,1-1.69,1.69 h -.17 a 1.69,1.69,0,0,1-1.69-1.69v-.17 a 1.69,1.69,0,0,1,1.69-1.69 h .17 A 1.69,1.69,0,0,1,280,308.5Z"/>
    <path d="M 260.7,300.84 h -.24 a 2.51,2.51,0,0,0-2.5,2.5v.24 a 2.51,2.51,0,0,0,2.5,2.5 h .24 a 2.51,2.51,0,0,0,2.5-2.5v-.24 A 2.51,2.51,0,0,0,260.7,300.84Z m 1.65,2.7 a 1.69,1.69,0,0,1-1.69,1.69 h -.17 a 1.69,1.69,0,0,1-1.69-1.69v-.17 a 1.69,1.69,0,0,1,1.69-1.69 h .17 a 1.69,1.69,0,0,1,1.69,1.69Z"/>
    <path d="M 258.77,288.88v.24 a 2.51,2.51,0,0,0,2.5,2.5 h .24 a 2.51,2.51,0,0,0,2.5-2.5v-.24 a 2.51,2.51,0,0,0-2.5-2.5 h -.24 A 2.51,2.51,0,0,0,258.77,288.88Z m .85,0 a 1.69,1.69,0,0,1,1.69-1.69 h .17 a 1.69,1.69,0,0,1,1.69,1.69v.17 a 1.69,1.69,0,0,1-1.69,1.69 h -.17 a 1.69,1.69,0,0,1-1.69-1.69Z"/>
    <path d="M 258.12,279.42 h .24 a 2.51,2.51,0,0,0,2.5-2.5v-.24 a 2.51,2.51,0,0,0-2.5-2.5 h -.24 a 2.51,2.51,0,0,0-2.5,2.5v.24 A 2.51,2.51,0,0,0,258.12,279.42Z m -1.65-2.7 a 1.69,1.69,0,0,1,1.69-1.69 h .17 a 1.69,1.69,0,0,1,1.69,1.69v.17 a 1.69,1.69,0,0,1-1.69,1.69 h -.17 a 1.69,1.69,0,0,1-1.69-1.69Z"/>
    <path d="M 299.46,275.92 h .24 a 2.51,2.51,0,0,0,2.5-2.5v-.24 a 2.51,2.51,0,0,0-2.5-2.5 h -.24 a 2.51,2.51,0,0,0-2.5,2.5v.24 A 2.51,2.51,0,0,0,299.46,275.92Z m -1.65-2.7 a 1.69,1.69,0,0,1,1.69-1.69 h .17 a 1.69,1.69,0,0,1,1.69,1.69v.17 a 1.69,1.69,0,0,1-1.69,1.69 h -.17 a 1.69,1.69,0,0,1-1.69-1.69Z"/>
    <path d="M 299.79,289.17v.24 a 2.51,2.51,0,0,0,2.5,2.5 h .24 a 2.51,2.51,0,0,0,2.5-2.5v-.24 a 2.51,2.51,0,0,0-2.5-2.5 h -.24 A 2.51,2.51,0,0,0,299.79,289.17Z m .85,0 a 1.69,1.69,0,0,1,1.69-1.69 h .17 a 1.69,1.69,0,0,1,1.69,1.69v.17 a 1.69,1.69,0,0,1-1.69,1.69 h -.17 a 1.69,1.69,0,0,1-1.69-1.69Z"/>
    <path d="M 299.46,310.42 h .24 a 2.51,2.51,0,0,0,2.5-2.5v-.24 a 2.51,2.51,0,0,0-2.5-2.5 h -.24 a 2.51,2.51,0,0,0-2.5,2.5v.24 A 2.51,2.51,0,0,0,299.46,310.42Z m -1.65-2.7 A 1.69,1.69,0,0,1,299.5,306 h .17 a 1.69,1.69,0,0,1,1.69,1.69v.17 a 1.69,1.69,0,0,1-1.69,1.69 h -.17 a 1.69,1.69,0,0,1-1.69-1.69Z"/>
    <path d="M 313.62,322.92 h .24 a 2.51,2.51,0,0,0,2.5-2.5v-.24 a 2.51,2.51,0,0,0-2.5-2.5 h -.24 a 2.51,2.51,0,0,0-2.5,2.5v.24 A 2.51,2.51,0,0,0,313.62,322.92Z m -1.65-2.7 a 1.69,1.69,0,0,1,1.69-1.69 h .17 a 1.69,1.69,0,0,1,1.69,1.69v.17 a 1.69,1.69,0,0,1-1.69,1.69 h -.17 a 1.69,1.69,0,0,1-1.69-1.69Z"/>
    <path d="M 316.46,304.25 h .24 a 2.51,2.51,0,0,0,2.5-2.5v-.24 a 2.51,2.51,0,0,0-2.5-2.5 h -.24 a 2.51,2.51,0,0,0-2.5,2.5v.24 A 2.51,2.51,0,0,0,316.46,304.25Z m -1.65-2.7 a 1.69,1.69,0,0,1,1.69-1.69 h .17 a 1.69,1.69,0,0,1,1.69,1.69v.17 a 1.69,1.69,0,0,1-1.69,1.69 h -.17 a 1.69,1.69,0,0,1-1.69-1.69Z"/>
    <path d="M 320,277.34 a 2.51,2.51,0,0,0-2.5,2.5v.24 a 2.51,2.51,0,0,0,2.5,2.5 h .24 a 2.51,2.51,0,0,0,2.5-2.5v-.24 a 2.51,2.51,0,0,0-2.5-2.5Z m 1.89,2.54V280 a 1.69,1.69,0,0,1-1.69,1.69 H 320 a 1.69,1.69,0,0,1-1.69-1.69v-.17 a 1.69,1.69,0,0,1,1.69-1.69 h .17 A 1.69,1.69,0,0,1,321.85,279.88Z"/>
    <path d="M 332.5,294.92 h .24 a 2.51,2.51,0,0,0,2.5-2.5v-.24 a 2.51,2.51,0,0,0-2.5-2.5 h -.24 a 2.51,2.51,0,0,0-2.5,2.5v.24 A 2.51,2.51,0,0,0,332.5,294.92Z m -1.65-2.7 a 1.69,1.69,0,0,1,1.69-1.69 h .17 a 1.69,1.69,0,0,1,1.69,1.69v.17 a 1.69,1.69,0,0,1-1.69,1.69 h -.17 a 1.69,1.69,0,0,1-1.69-1.69Z"/>
    <path d="M 330.65,311.73 h .24 a 2.51,2.51,0,0,0,2.5-2.5V309 a 2.51,2.51,0,0,0-2.5-2.5 h -.24 a 2.51,2.51,0,0,0-2.5,2.5v.24 A 2.51,2.51,0,0,0,330.65,311.73Z M 329,309 a 1.69,1.69,0,0,1,1.69-1.69 h .17 a 1.69,1.69,0,0,1,1.69,1.69v.17 a 1.69,1.69,0,0,1-1.69,1.69 h -.17 a 1.69,1.69,0,0,1-1.69-1.69Z"/>
    <path d="M 337.29,271.17 a 2.51,2.51,0,0,0-2.5,2.5v.24 a 2.51,2.51,0,0,0,2.5,2.5 h .24 a 2.51,2.51,0,0,0,2.5-2.5v-.24 a 2.51,2.51,0,0,0-2.5-2.5Z m 1.89,2.54v.17 a 1.69,1.69,0,0,1-1.69,1.69 h -.17 a 1.69,1.69,0,0,1-1.69-1.69v-.17 a 1.69,1.69,0,0,1,1.69-1.69 h .17 A 1.69,1.69,0,0,1,339.18,273.71Z"/>
    <path d="M 318.46,268.08 h .24 a 2.51,2.51,0,0,0,2.5-2.5v-.24 a 2.51,2.51,0,0,0-2.5-2.5 h -.24 a 2.51,2.51,0,0,0-2.5,2.5v.24 A 2.51,2.51,0,0,0,318.46,268.08Z m -1.65-2.7 a 1.69,1.69,0,0,1,1.69-1.69 h .17 a 1.69,1.69,0,0,1,1.69,1.69v.17 a 1.69,1.69,0,0,1-1.69,1.69 h -.17 a 1.69,1.69,0,0,1-1.69-1.69Z"/>
    <path d="M 335.29,259.58 h .24 a 2.51,2.51,0,0,0,2.5-2.5v-.24 a 2.51,2.51,0,0,0-2.5-2.5 h -.24 a 2.51,2.51,0,0,0-2.5,2.5v.24 A 2.51,2.51,0,0,0,335.29,259.58Z m -1.65-2.7 a 1.69,1.69,0,0,1,1.69-1.69 h .17 a 1.69,1.69,0,0,1,1.69,1.69V257 a 1.69,1.69,0,0,1-1.69,1.69 h -.17 a 1.69,1.69,0,0,1-1.69-1.69Z"/>
    <path d="M 292.29,261.25 h .24 a 2.51,2.51,0,0,0,2.5-2.5v-.24 a 2.51,2.51,0,0,0-2.5-2.5 h -.24 a 2.51,2.51,0,0,0-2.5,2.5v.24 A 2.51,2.51,0,0,0,292.29,261.25Z m -1.65-2.7 a 1.69,1.69,0,0,1,1.69-1.69 h .17 a 1.69,1.69,0,0,1,1.69,1.69v.17 a 1.69,1.69,0,0,1-1.69,1.69 h -.17 a 1.69,1.69,0,0,1-1.69-1.69Z"/>
    <path d="M 272.5,232.18 h .27 a 2.8,2.8,0,0,0,1.66-.55,2.79,2.79,0,0,0-.08.64v.27 a 2.84,2.84,0,0,0,2.83,2.83 h .27 a 2.82,2.82,0,0,0,2.28-1.18,2.78,2.78,0,0,0-.14.82v.27 a 2.84,2.84,0,0,0,2.83,2.83 h .27 a 2.82,2.82,0,0,0,2.23-1.11 c 0,.07,0,.13,0,.19v.27 a 2.84,2.84,0,0,0,2.83,2.83 H 288 a 2.82,2.82,0,0,0,2.44-1.43,2.79,2.79,0,0,0,0,.45v.27 a 2.84,2.84,0,0,0,2.83,2.83 h .27 a 2.83,2.83,0,0,0,2.35-1.26,2.83,2.83,0,0,0,2.82,2.69 H 299 a 2.83,2.83,0,0,0,2.57-1.66,2.83,2.83,0,0,0,2.66,1.91 h .27 a 2.79,2.79,0,0,0,1.35-.36,2.8,2.8,0,0,0-.73,1.68 l 0,.27 a 2.84,2.84,0,0,0,2.63,3 l .27,0 a 2.79,2.79,0,0,0,1.34-.25,2.78,2.78,0,0,0-.23.91 l 0,.27 a 2.84,2.84,0,0,0,2.63,3 l .27,0 a 2.84,2.84,0,0,0,3-2.63 l 0-.27 a 2.82,2.82,0,0,0-.72-2.08,2.83,2.83,0,0,0,2.23-2.56 l 0-.27 a 2.83,2.83,0,0,0-1.08-2.42 h .34 a 2.84,2.84,0,0,0,2.83-2.83v-.27 a 2.81,2.81,0,0,0-.06-.57,2.81,2.81,0,0,0,1.58.48 h .27 a 2.84,2.84,0,0,0,2.83-2.83v-.27 a 2.78,2.78,0,0,0-.16-.9,2.8,2.8,0,0,0,1.49.44 h .27 a 2.84,2.84,0,0,0,2.83-2.83v-.27 a 2.8,2.8,0,0,0-.25-1.14,2.8,2.8,0,0,0,1.14.25 h .27 a 2.84,2.84,0,0,0,2.83-2.83v-.27 a 2.84,2.84,0,0,0-2.83-2.83 h -.27 a 2.82,2.82,0,0,0-2,.8v-.16 a 2.84,2.84,0,0,0-2.83-2.83 h -.27 a 2.84,2.84,0,0,0-2.83,2.83v.27 a 2.79,2.79,0,0,0,.29,1.22,2.78,2.78,0,0,0-.81-.13 h -.27 a 2.84,2.84,0,0,0-2.83,2.83v.27 a 2.78,2.78,0,0,0,.11.74,2.82,2.82,0,0,0-2-.84 h -.27 a 2.83,2.83,0,0,0-2.8,2.57,2.83,2.83,0,0,0-2.3-1.19 h -.27 a 2.84,2.84,0,0,0-2.77,2.26,2.83,2.83,0,0,0-2.52-1.57 h -.27 a 2.83,2.83,0,0,0-2.64,1.84,2.84,2.84,0,0,0-2.77-2.28 h -.27 a 2.83,2.83,0,0,0-2.4,1.35 A 2.84,2.84,0,0,0,293,231 h -.27 a 2.81,2.81,0,0,0-2.15,1 s 0,0,0,0v-.27 a 2.84,2.84,0,0,0-2.83-2.83 h -.27 a 2.82,2.82,0,0,0-2.19,1.07,2.79,2.79,0,0,0,0-.46v-.27 a 2.84,2.84,0,0,0-2.83-2.83 h -.27 a 2.8,2.8,0,0,0-1.84.7,2.78,2.78,0,0,0,.12-.78V226 a 2.84,2.84,0,0,0-2.83-2.83 h -.27 A 2.84,2.84,0,0,0,274.6,226v.27 a 2.78,2.78,0,0,0,.11.74,2.81,2.81,0,0,0-1.94-.78 h -.27 a 2.84,2.84,0,0,0-2.83,2.83v.27 A 2.84,2.84,0,0,0,272.5,232.18Z m 6.83.32 a 1.92,1.92,0,0,1-1.91,1.91 h -.19 a 1.92,1.92,0,0,1-1.91-1.91v-.19 a 1.92,1.92,0,0,1,1.91-1.91 h .19 a 1.92,1.92,0,0,1,1.91,1.91Z m -1.87-3.06 h -.27 a 2.8,2.8,0,0,0-1.66.55,2.79,2.79,0,0,0,.08-.64v-.27 a 2.78,2.78,0,0,0-.11-.74,2.81,2.81,0,0,0,1.94.78 h .27 a 2.8,2.8,0,0,0,1.84-.7,2.78,2.78,0,0,0-.12.78v.27 a 2.79,2.79,0,0,0,.18,1 A 2.81,2.81,0,0,0,277.46,229.44Z m 2.69,3.93 a 2.78,2.78,0,0,0,.14-.82v-.27 a 2.79,2.79,0,0,0-.18-1,2.82,2.82,0,0,0,1.7,1 A 2.84,2.84,0,0,0,280.15,233.36Z m 4.42,1.89 a 1.92,1.92,0,0,1-1.91,1.91 h -.19 a 1.92,1.92,0,0,1-1.91-1.91v-.19 a 1.92,1.92,0,0,1,1.91-1.91 h .19 a 1.92,1.92,0,0,1,1.91,1.91Z m 5.31,2.19 a 1.92,1.92,0,0,1-1.91,1.91 h -.19 a 1.92,1.92,0,0,1-1.91-1.91v-.19 a 1.92,1.92,0,0,1,1.91-1.91 H 288 a 1.92,1.92,0,0,1,1.91,1.91Z m 5.5,2.13 a 1.92,1.92,0,0,1-1.91,1.91 h -.19 a 1.92,1.92,0,0,1-1.91-1.91v-.19 a 1.92,1.92,0,0,1,1.91-1.91 h .19 a 1.92,1.92,0,0,1,1.91,1.91Z m 5.44,1.44 a 1.92,1.92,0,0,1-1.91,1.91 h -.19 a 1.92,1.92,0,0,1-1.91-1.91v-.19 a 1.92,1.92,0,0,1,1.91-1.91 h .19 a 1.92,1.92,0,0,1,1.91,1.91Z m 3.59,2.16 h -.19 a 1.92,1.92,0,0,1-1.91-1.91v-.19 a 1.92,1.92,0,0,1,1.91-1.91 h .19 a 1.92,1.92,0,0,1,1.91,1.91v.19 A 1.92,1.92,0,0,1,304.42,243.16Z m 2.83-1.42 a 2.82,2.82,0,0,0,.62,1.08,2.8,2.8,0,0,0-1.29.33 A 2.81,2.81,0,0,0,307.24,241.74Z m 2.73-3 h .19 a 1.92,1.92,0,0,1,1.91,1.91v.19 a 1.92,1.92,0,0,1-1.91,1.91 H 310 a 1.92,1.92,0,0,1-1.91-1.91v-.19 A 1.92,1.92,0,0,1,310,238.78Z m 1,7.59 a 2.86,2.86,0,0,0,.35.49,2.8,2.8,0,0,0-.55.18 A 2.79,2.79,0,0,0,310.94,246.36Z m -.3-2.1 a 2.85,2.85,0,0,0-.39-.53,2.81,2.81,0,0,0,.55-.06 A 2.78,2.78,0,0,0,310.64,244.27Z m -2.84,3.51 a 1.92,1.92,0,0,1-1.78-2v-.19 a 1.92,1.92,0,0,1,2-1.77 h .19 a 1.92,1.92,0,0,1,1.78,2V246 a 1.92,1.92,0,0,1-2,1.77Z M 314,250 a 1.92,1.92,0,0,1-2,1.77 h -.19 a 1.92,1.92,0,0,1-1.77-2v-.19 a 1.92,1.92,0,0,1,2-1.78 h .19 a 1.92,1.92,0,0,1,1.77,2Z m 1.53-4.91 a 1.92,1.92,0,0,1-2,1.78 h -.19 a 1.92,1.92,0,0,1-1.77-2v-.19 a 1.92,1.92,0,0,1,2-1.77 h .19 a 1.92,1.92,0,0,1,1.77,2Z m -1.93-3.2 a 2.78,2.78,0,0,0-.78.07 A 2.8,2.8,0,0,0,313,241 a 2.84,2.84,0,0,0,.74.87Z m 4-2.25 a 1.92,1.92,0,0,1-1.91,1.91 h -.19 a 1.92,1.92,0,0,1-1.91-1.91v-.19 a 1.92,1.92,0,0,1,1.91-1.91 h .19 a 1.92,1.92,0,0,1,1.91,1.91Z m 4.63-3.19 a 1.92,1.92,0,0,1-1.91,1.91 h -.19 a 1.92,1.92,0,0,1-1.91-1.91v-.19 a 1.92,1.92,0,0,1,1.91-1.91 h .19 a 1.92,1.92,0,0,1,1.91,1.91Z m 3.71-6.38 a 2.8,2.8,0,0,0-1.14-.25 h -.27 a 2.8,2.8,0,0,0-1.62.52,2.79,2.79,0,0,0-.26-.9,2.78,2.78,0,0,0,.81.13 h .27 a 2.82,2.82,0,0,0,2-.8v.16 A 2.8,2.8,0,0,0,326,230.06Z m -4.22,3.17 a 2.79,2.79,0,0,0,.13.58,2.81,2.81,0,0,0-.64-.29 A 2.83,2.83,0,0,0,321.76,233.23Z m 4.94-.36 a 1.92,1.92,0,0,1-1.91,1.91 h -.19 a 1.92,1.92,0,0,1-1.91-1.91v-.19 a 1.92,1.92,0,0,1,1.91-1.91 h .19 a 1.92,1.92,0,0,1,1.91,1.91Z m 0-4.19 a 1.92,1.92,0,0,1,1.91-1.91 h .19 a 1.92,1.92,0,0,1,1.91,1.91v.19 a 1.92,1.92,0,0,1-1.91,1.91 h -.19 a 1.92,1.92,0,0,1-1.91-1.91Z m -5.06-2.19 a 1.92,1.92,0,0,1,1.91-1.91 h .19 a 1.92,1.92,0,0,1,1.91,1.91v.19 a 1.92,1.92,0,0,1-1.91,1.91 h -.19 a 1.92,1.92,0,0,1-1.91-1.91Z M 318,230.69 a 1.92,1.92,0,0,1,1.91-1.91 h .19 a 1.92,1.92,0,0,1,1.91,1.91v.19 a 1.92,1.92,0,0,1-1.91,1.91 h -.19 a 1.92,1.92,0,0,1-1.91-1.91Z m 1,2.92 a 2.84,2.84,0,0,0-1.1.85,2.81,2.81,0,0,0,.05-.53v-.27 a 2.78,2.78,0,0,0-.11-.74 A 2.83,2.83,0,0,0,319,233.6Z m -1.67,2.07 a 2.81,2.81,0,0,0-.05.53v.27 a 2.81,2.81,0,0,0,.06.57,2.81,2.81,0,0,0-1.32-.46 A 2.83,2.83,0,0,0,317.35,235.67Z m -4.34-2 a 1.92,1.92,0,0,1,1.91-1.91 h .19 a 1.92,1.92,0,0,1,1.91,1.91v.19 a 1.92,1.92,0,0,1-1.91,1.91 h -.19 a 1.92,1.92,0,0,1-1.91-1.91Z m -.43,1.87 a 2.82,2.82,0,0,0,2,1.17,2.83,2.83,0,0,0-1.93,2.57,2.83,2.83,0,0,0-1.81-1.39 A 2.83,2.83,0,0,0,312.58,235.55Z m -4.94-.49 a 1.92,1.92,0,0,1,1.91-1.91 h .19 a 1.92,1.92,0,0,1,1.91,1.91v.19 a 1.92,1.92,0,0,1-1.91,1.91 h -.19 a 1.92,1.92,0,0,1-1.91-1.91Z m -.65,1.49 a 2.84,2.84,0,0,0,1.86,1.48,2.84,2.84,0,0,0-1.69,2.16,2.84,2.84,0,0,0-1.56-1.76 A 2.84,2.84,0,0,0,307,236.55Z m -4.91-.8 a 1.92,1.92,0,0,1,1.91-1.91 h .19 a 1.92,1.92,0,0,1,1.91,1.91v.19 a 1.92,1.92,0,0,1-1.91,1.91 H 304 a 1.92,1.92,0,0,1-1.91-1.91Z m -.91.79 a 2.85,2.85,0,0,0,1.64,2,2.84,2.84,0,0,0-1.18,1.28,2.83,2.83,0,0,0-1.86-1.77 A 2.84,2.84,0,0,0,301.16,236.53Z m -4.78-1.22 a 1.92,1.92,0,0,1,1.91-1.91 h .19 a 1.92,1.92,0,0,1,1.91,1.91v.19 a 1.92,1.92,0,0,1-1.91,1.91 h -.19 a 1.92,1.92,0,0,1-1.91-1.91Z m -1,.27 a 2.83,2.83,0,0,0,2,2.66,2.85,2.85,0,0,0-1.1,1,2.83,2.83,0,0,0-2.05-2.57 A 2.84,2.84,0,0,0,295.42,235.58Z m -4.54-1.71 a 1.92,1.92,0,0,1,1.91-1.91 H 293 a 1.92,1.92,0,0,1,1.91,1.91v.19 A 1.92,1.92,0,0,1,293,236 h -.19 a 1.92,1.92,0,0,1-1.91-1.91Z m -1-.08 s 0,0,0,0v.27 a 2.83,2.83,0,0,0,2.06,2.71,2.84,2.84,0,0,0-1.18,1.11,2.79,2.79,0,0,0,0-.45v-.27 a 2.83,2.83,0,0,0-1.91-2.66 A 2.84,2.84,0,0,0,289.92,233.79Z m -4.29-2 a 1.92,1.92,0,0,1,1.91-1.91 h .19 a 1.92,1.92,0,0,1,1.91,1.91v.19 a 1.92,1.92,0,0,1-1.91,1.91 h -.19 a 1.92,1.92,0,0,1-1.91-1.91Z m -.92-.51 a 2.79,2.79,0,0,0,0,.46V232 a 2.83,2.83,0,0,0,1.91,2.66,2.84,2.84,0,0,0-1.05.85 c 0-.07,0-.13,0-.19V235 a 2.83,2.83,0,0,0-2.39-2.78 A 2.83,2.83,0,0,0,284.72,231.24Z m -2.42-3.9 h .19 a 1.92,1.92,0,0,1,1.91,1.91v.19 a 1.92,1.92,0,0,1-1.91,1.91 h -.19 a 1.92,1.92,0,0,1-1.91-1.91v-.19 A 1.92,1.92,0,0,1,282.29,227.34Z m -6.73-1.28 a 1.92,1.92,0,0,1,1.91-1.91 h .19 a 1.92,1.92,0,0,1,1.91,1.91v.19 a 1.92,1.92,0,0,1-1.91,1.91 h -.19 a 1.92,1.92,0,0,1-1.91-1.91Z m -4.93,3.06 a 1.92,1.92,0,0,1,1.91-1.91 h .19 a 1.92,1.92,0,0,1,1.91,1.91v.19 a 1.92,1.92,0,0,1-1.91,1.91 h -.19 a 1.92,1.92,0,0,1-1.91-1.91Z"/>
  </g>
<script type="text/ecmascript" xlink:href="param.min.js"/> 
</svg>
