<?xml version="1.0"?>
<svg xmlns="http://www.w3.org/2000/svg" xmlns:xlink="http://www.w3.org/1999/xlink" viewBox="0 0 150 150">
  <title>bare-feet</title>
  <g id="skin-tone">
    <path d="M 83.15,84 a 13.13,13.13,0,0,1-2.85-7.31 c 0-1.86.48-4.92-2.35-6.5 s -6.58-.75-7.83,2,.39,4.7-1.54,8.24-6,7.35-12,9.84 a 20.85,20.85,0,0,1-8.92,2.09 c -2.57.08-3.57.8-3.61,2.17 a 2,2,0,0,0,1.37,1.85 A 2.42,2.42,0,0,0,47.93,99 a 2.27,2.27,0,0,0,2.61,1.69 c .84,1.41,2.57,2.53,4.46,1.33,1.33,1.16,3.66,1.65,6.27-.08 s 4.06-3.37,5.58-4.3 a 13,13,0,0,1,8-1.61 c 4,.28,7.59,1.08,10-1.65 S 86.61,88.3,83.15,84Z" fill="param(skin_tone)"/>
  </g>
  <g id="fixed-colours">
    <path d="M 55.83,97.52 s 1.37.26,1.69,1 a 1.92,1.92,0,0,1-.28,1.83 c -.54-.66-2.71-1.12-2.71-1.12 S 54.55,98.32,55.83,97.52Z" fill="#fff"/>
    <path d="M 50.69,98.61 a 3.8,3.8,0,0,1,2.27.78 c .38-.82.58-2-1.47-2.17 A 5,5,0,0,0,50.69,98.61Z" fill="#fff"/>
    <path d="M 48.22,97.44 s 1.29.18,1.61.9 c .26-.68.52-1.69-1.16-1.89Z" fill="#fff"/>
    <path d="M 46.71,94.81 s .82.3,1,.72-.08,1.14-.4,1.25 a 2.88,2.88,0,0,0-1.37-1.25Z" fill="#fff"/>
    <path d="M 45.73,93.14 a .89.89,0,0,1-.14,1.53,3.89,3.89,0,0,0-.66-1 A 1.52,1.52,0,0,1,45.73,93.14Z" fill="#fff"/>
  </g>
  <g id="outline">
    <path d="M 43.31,94.34 a 2.39,2.39,0,0,0,1.5,2.25,3,3,0,0,0,2.63,3.07,2.74,2.74,0,0,0,2.78,1.8,3.31,3.31,0,0,0,1.53,1.43,4.94,4.94,0,0,0,3.33.23 l .21.15 c 3,1.93,7.15-.4,10-3.21 s 6.43-3.29,10.6-2.95,7.86.1,9.88-3.53 c 2.19-3.94-.18-7.36-2.25-10.3 A 12.17,12.17,0,0,1,81.75,75,6.76,6.76,0,0,0,75,68.25 h 0 A 6.76,6.76,0,0,0,68.25,75 s 0,.08,0,.12 c 0,.5.48,4.62-1.42,6.52 a 44,44,0,0,1-9.37,7.48 c -2.65,1.39-8.19,2.71-10.06,2.41 S 43.54,92.12,43.31,94.34Z M 45.93,94 c 0,.24-.25.4-.32.48 a 4.11,4.11,0,0,0-.41-.73,2.24,2.24,0,0,1,.54-.33 A 1.06,1.06,0,0,1,45.93,94Z m 3.79,4 a 3.4,3.4,0,0,0-1.26-.66,2,2,0,0,1,.31-.63,1.54,1.54,0,0,1,1,.67 A 1.3,1.3,0,0,1,49.72,97.93Z m -1.34-.22 a 1.93,1.93,0,0,1,1.21.64 l .15.19 a 4,4,0,0,0,0,1.46,1.48,1.48,0,0,1-1.27-1.32 A 3.42,3.42,0,0,1,48.38,97.71Z M 44.94,94 a 2.15,2.15,0,0,1,.46.66 l .12.28.24-.18 a 1.1,1.1,0,0,0,.52-.82,1.06,1.06,0,0,0-.23-.66,4.63,4.63,0,0,1,1.66-.19 c 2.11.12,6.21-.78,9.88-2.41 s 10.16-7,11.83-9.82 c 1.1-1.85.82-5.62.82-5.62 s 0-.23,0-.23 A 4.75,4.75,0,0,1,75,70.25 h 0 A 4.75,4.75,0,0,1,79.75,75 s -.43,3.23,0,4.64 a 23.59,23.59,0,0,0,2.76,5.49 C 84,87,85.33,90.25,83.94,92.5 c -1.24,2-2.71,3.31-8.34,2.75 s -9.8,1.37-11.49,3.29 a 11.57,11.57,0,0,1-5.94,3.7 c -1.68.24-3.83-.87-3.46-2.78 a 4.31,4.31,0,0,1,2.36,1 l .19.21.18-.22 a 1.82,1.82,0,0,0,.23-2.12,2,2,0,0,0-1.07-.82,3.72,3.72,0,0,1,2.86.1 A 3.59,3.59,0,0,0,58,96.73 a 7.22,7.22,0,0,0,2.63-2.32,11.13,11.13,0,0,1-3.86,2.13 A 3.48,3.48,0,0,0,55,97.1 a 3.54,3.54,0,0,0-1.21,4.6,2.41,2.41,0,0,1-2.37-1,2.92,2.92,0,0,1-.46-1.83,3.11,3.11,0,0,1,1.86.57 l .22.19.15-.25 a 1.66,1.66,0,0,0,.19-1.49,1.75,1.75,0,0,0-1.4-.76,4.29,4.29,0,0,1,2.58-.59,3.64,3.64,0,0,0-.49-.17,7.29,7.29,0,0,0,3.38-1.82,9.49,9.49,0,0,1-4.18,1.67,3.43,3.43,0,0,0-2.63.8,2.49,2.49,0,0,0-.36.42,1,1,0,0,0-.05-.23,1.65,1.65,0,0,0-1.11-.87,2.14,2.14,0,0,1,1.13-.46,10.75,10.75,0,0,0,4.23-1.33,12,12,0,0,1-4,.9 l -.43,0 H 50 a 3.09,3.09,0,0,0-2.39,1.72,2.93,2.93,0,0,0-.35,1.14 A 1.7,1.7,0,0,1,46,97.18 a 1.77,1.77,0,0,1,0-1.37,1.45,1.45,0,0,1,1.08,1 l .15.37.26-.31 a 1.33,1.33,0,0,0,.39-1.16,1.39,1.39,0,0,0-.72-.83,3.69,3.69,0,0,1,1.69-.1,2.18,2.18,0,0,0-.24-.14,10.24,10.24,0,0,0,3.59-1,14.14,14.14,0,0,1-4.35.71,2.74,2.74,0,0,0-2.37.66,2,2,0,0,0-.39.44 A 1.14,1.14,0,0,1,44.94,94Z m 1.84,1 c .43.2.76.43.8.66 a .9.9,0,0,1-.21.69,2.55,2.55,0,0,0-1-1 A 1.8,1.8,0,0,1,46.78,95Z m 4.79,2.36 a 1.72,1.72,0,0,1,1.37.62,1.17,1.17,0,0,1-.09,1 A 5.29,5.29,0,0,0,51,98.39,2.25,2.25,0,0,1,51.57,97.41Z m 4.4.42 a 1.87,1.87,0,0,1,1.39.77,1.63,1.63,0,0,1-.12,1.54,6,6,0,0,0-2.4-1.1 A 2.56,2.56,0,0,1,56,97.83Z"/>
  </g>
<script type="text/ecmascript" xlink:href="param.min.js"/> 
</svg>
