<?xml version="1.0"?>
<svg xmlns="http://www.w3.org/2000/svg" xmlns:xlink="http://www.w3.org/1999/xlink" viewBox="0 0 600 600">
  <title>professionally-pink-hourglass</title>
  <g id="main-colour">
    <path d="M 333.54,288 a 20.73,20.73,0,0,0,6.72-3.58 c 7-5.73,9.13-15.5,7.38-22.25 s -7.75-12-10.75-14.12 a 26,26,0,0,1-2.4-1.94 c .1-.14.2-.28.29-.42 l 0,0 c .15-.24.29-.48.42-.73 l .1-.2 c .12-.23.24-.47.34-.71 l .07-.18 a 11.91,11.91,0,0,0,.41-1.17 c .06-.2.12-.41.17-.61 s .07-.31.1-.46.09-.49.12-.74,0-.26,0-.39 c 0-.38.06-.77.06-1.17 h 0 a 12,12,0,0,0-16-11.31,15.13,15.13,0,0,1-6.18-2.79 c 1.53-2.08,1.52-3.21-.63-5.42,1.42-3.83,1.58-7.33-7.25-8.42 a 38.66,38.66,0,0,0,1.43,6,26.25,26.25,0,0,1-14.43.61 c -.79-.24-1.5-.51-2.16-.78.28-1.29.74-3.37,1.16-5-5.42.67-7.67,4.92-5.83,8.42 a 4.44,4.44,0,0,0-1.87,3.77,28.14,28.14,0,0,1-9.61,4.61 c -5.33-2.17-11.92-4-16.83-1.17 s -7.33,8-6.42,14 S 257.88,251,263,252.18 c -.08,8.08,1.5,22.33,4.83,29.25 s 9.33,14.42,11.92,17.92,4.42,9.42,2.92,18.08-11.92,18.08-16.25,22.17 S 258,348.18,254.88,356 a 49.72,49.72,0,0,0-4.19,23 c .66,13.39,7.51,39.18,1.94,56 a 77.12,77.12,0,0,1,20.49-1.44 c 13.75,1.13,25.75,6.13,37.75,8.13,7.49,1.25,18.24,1.28,28-2.64 A 59.94,59.94,0,0,0,351.2,431 c .37-.38.74-.76,1.1-1.17-4.92-8.8-5.1-19.37-5.27-29.31 s -.36-26.92-6.26-40-12.24-20.29-14.24-22 a 7.56,7.56,0,0,0-.63-.46 l -1-1.41 c -4.17-5.92-5.25-9-4.83-14.25 s 4.92-13.67,8.5-19.67 A 57.44,57.44,0,0,0,333.62,290Z" fill="param(main_colour)"/>
  </g>
  <g id="accent-colour-1">
    <path d="M 281.65,319.8 a 38.41,38.41,0,0,0,19.25,8.58 c 11.67,1.58,19-3.25,19-3.25 s -.33,4.5,4.33,10.08 c -5.67,2.67-13.08,5.58-22,4.92 s -19.92-4.42-25.75-10.92 C 279.23,325.88,281.65,319.8,281.65,319.8Z" fill="param(accent_colour_1)"/>
    <path d="M 259.48,347.13 s 6.5,6.33,19.25,10.33 c -3.92,8-7.58,16.25-13.25,18.67 a 13.46,13.46,0,0,1-14.83-2.75 C 251.65,361.63,254.48,354.71,259.48,347.13Z" fill="param(accent_colour_1)"/>
    <path d="M 329.57,354.46 l 5.67-4.08 A 80.54,80.54,0,0,1,344.9,375 c -3.08.92-7.42-.33-10.25-5.92 S 329.57,354.46,329.57,354.46Z" fill="param(accent_colour_1)"/>
  </g>
  <g id="outline">
    <path d="M 277.8,287 s 8.5,15,27.17,6.67 C 297.64,295.54,286.47,295.46,277.8,287Z"/>
    <path d="M 347.8,399.38 c 0-8.92,0-20.75-4.08-32.75 a 86.38,86.38,0,0,0-16.25-28.83 c -6.67-7.92-7.58-13-6-18.42 s 5.79-12.94,8.85-18.25 a 46.53,46.53,0,0,0,4.86-12.87,14.4,14.4,0,0,0,1.79-.63 c 4.25-1.83,10.25-7.33,11.75-14.42 s .08-12.75-3.08-17.42-8.42-8-10.17-9.33 a 91.21,91.21,0,0,1-9.58-9.92,49.17,49.17,0,0,0,9,11.25 c 2.58,2.42,8.75,6.83,10.5,12.17 s 3.08,10.17-1.58,18.25-14.75,10.42-14.75,10.42 a 12.29,12.29,0,0,0,3.56.12,65.24,65.24,0,0,1-2.23,7.76 c -1.56,4.31-4.62,8.81-7.06,13.94 s -4.26,9.93-4.18,14.45 c -18.81,8.13-33.68-3-36.51-5.33 a 24.2,24.2,0,0,0,.92-4.26 c .64-5.17.05-8.52-.82-10.93 a 36.27,36.27,0,0,1,6.35,10.26 c -2-7.37-6.81-13.62-10.81-18.81 s -10.5-14-12.25-24.12 a 147.86,147.86,0,0,1-1.87-20.44,12,12,0,1,1,3.63-23.62 c 3.73.91,6.54,2.14,8.44,1.8 l 0,0 a 19.87,19.87,0,0,0,8.33-3.62,9.5,9.5,0,0,0,4.59,3.62 c -2.84-2-4-5.48-2.55-7.45 a 11.08,11.08,0,0,0,6.17,2.74 c -4.87-2.25-9.94-7.75-1.75-11.25 a 15.54,15.54,0,0,1-1.07,2.79 c -.72-.24-1.12-.42-1.12-.42,6.94,5.56,19.13,3.06,22.13,0-.57.22-1.14.41-1.71.59 a 23.74,23.74,0,0,1-1.06-4 c 2.42.21,6.08,1.71,5.79,4.25 s -2.5,5.63-5.46,7.33 a 10.59,10.59,0,0,0,5.11-3.44,3.31,3.31,0,0,1,1.3,2.77 c -.29,1.67-3,4.25-3,4.25 a 10.15,10.15,0,0,0,2-1.19,14.31,14.31,0,0,0,2.55,1.32 c 2.25.88,4.88,0,6.06-.5 a 8.52,8.52,0,0,1,6.56-.12,9.09,9.09,0,0,0-7-1.69 c -1.42.15-1.87.77-3.33.94-1.1.13-2.68-.87-3.39-1.36 a 4.88,4.88,0,0,0,.72-1.31 c .7-2-.95-3.57-1.75-4.2 a 5.23,5.23,0,0,0,.59-5 c -1.52-2.94-5.67-4.17-9.42-4.1 a 39,39,0,0,0,1.43,6.64,32.27,32.27,0,0,1-15.26-.26,22.17,22.17,0,0,0,2.09-6.26 c -3.87.06-7.75,2.81-8.81,5.25 a 5.43,5.43,0,0,0,.41,4.66,4,4,0,0,0-1.53,3.44,15.15,15.15,0,0,1-5.31,2.65 s -3.5,1.19-4.31,1-6.69-2.81-10.69-2.44 a 14.87,14.87,0,0,0-11.19,7.06 c -2.81,4.5-2.25,11.06.81,15.19 a 13.86,13.86,0,0,0,8.94,5.69 c -.69,4.13.88,14.88,2.38,21.38 s 4.19,11.75,10.25,20 c 1.64,2.24,3.25,4.21,4.78,6.06 a 36.53,36.53,0,0,1,2.41,6.69 c .88,3.94.38,13.88-5.75,20.88 s -14.81,13.81-19.25,21.19 a 55.16,55.16,0,0,0-7.25,26.63 c 0,8.88,3.13,24.69,3.44,32.06 S 254,430,251.22,437 c 0,0,8.17-3.17,21.83-2 s 19,3.41,28.17,5.83 c 12,3.17,36.67,6.67,52.5-10.67 C 348.72,423.79,347.8,408.29,347.8,399.38Z m -3.5-24.84 a 9.58,9.58,0,0,1-8.92-6 c -1.29-2.84-2.34-5.67-3.14-8 a 25.89,25.89,0,0,0,5.58-3.75 c .67,1.38,1.37,2.88,2.12,4.52 A 67.6,67.6,0,0,1,344.31,374.54Z m -13.8-19.78 s 3.06-2,4.63-3.25 c .65,1.17,1.33,2.47,2.05,3.92 a 41.75,41.75,0,0,1-5.46,3.49 C 330.93,356.41,330.51,354.75,330.51,354.75Z m -11.26-28.36 c .39,3,1.81,5.68,3.92,8.64-24,11.36-42.77-3.17-45.84-5.76 a 33.17,33.17,0,0,0,4.76-8.18 C 299.84,334.38,315.69,328.1,319.26,326.39Z m -59.67,22.3 a 56.54,56.54,0,0,0,18.18,9.19 c -.68,1.57-1.37,3.07-2.08,4.51 a 87.4,87.4,0,0,1-18.9-9.06 A 39.28,39.28,0,0,1,259.58,348.69Z m -3.38,5.8 a 71.76,71.76,0,0,0,18.93,9 c -3.07,6-6.49,10.57-10.74,12.4-4.47,1.93-10.76-1.26-13-2.52 a 46.37,46.37,0,0,1,2.46-13.14 A 52.51,52.51,0,0,1,256.2,354.5Z m 75.19,85.72 c -13.67,2.5-23.67,1.17-35.83-3.17 s -31.17-5.5-41.5-2.67 c 3.42-12.67.83-30.5-.5-39.92-.81-5.74-2.24-12.14-2.17-19.36 C 254,377,263,382.45,271.64,372 c 4.63-5.87,8.13-15,8.13-15 a 64.7,64.7,0,0,1-19-9.83 c 3.39-4.35,7.12-7.24,10.76-11.12,1.77-1.89,3.41-3.71,4.89-5.53,21.83,18.2,44.34,7.68,47.8,5.87 l 1,1.37 c 2.51,3.26,5.09,5.35,9,12.13-2,1.44-4.36,3.21-6,4.24,2.38,7.38,4.38,13.13,6.75,17.13,2.2,3.71,6.77,5.05,9.62,4.83,2.18,11,1.56,20.46,1.51,25-.08,6.58.83,22.92,5.25,28.75 C 351.39,429.88,345.05,437.71,331.39,440.21Z"/>
    <path d="M 323.14,379.88 a 92.06,92.06,0,0,1-34.87,29.88 C 302.39,405.75,317.76,392.88,323.14,379.88Z"/>
    <path d="M 301.64,413.88 c 9.88-.25,20.63-7.37,24.88-14.25 C 316.89,409.88,301.64,413.88,301.64,413.88Z"/>
  </g>
<script type="text/ecmascript" xlink:href="param.min.js"/> 
</svg>
