<?xml version="1.0"?>
<svg xmlns="http://www.w3.org/2000/svg" xmlns:xlink="http://www.w3.org/1999/xlink" viewBox="0 0 600 600">
  <title>police-shirt-slender</title>
  <g id="main-colour">
    <path d="M 330.51,245 a 1.71,1.71,0,0,0,.62-.54,11.18,11.18,0,0,0-5.66-16.61,7.39,7.39,0,0,0-3.94-1.31,6.49,6.49,0,0,0-2.79.72 L 312,221.13 a 32.22,32.22,0,0,0-5-.5 c 1.17,4.38,5.73,7.16,7.73,8.17,0,.29,0,.57,0,.86 l 0,0 a 32.93,32.93,0,0,1-3,13.31,11,11,0,0,1-1.55-.82 c -6-1.82-14.85-6.46-19.14-10.12 a 16.43,16.43,0,0,1-3.78-4.86,25.53,25.53,0,0,0,3-4.95 c -3.07,1.12-5.75,4.58-6.93,6.28 a 14.44,14.44,0,0,1-1.41.4 c -7.45-6.36-19.55-1.14-20,7.95 s 6,12.33,9.33,13.42 c -1.25,5.92,1.33,21,3.17,27.5 s 6.92,19.67,9.08,28.08 c 1.89,7.35-1.42,16.91-7.06,27.48,3.17,1.54,9,3.73,19.22,5.64,14.9,2.79,23.88.19,28.87-2.85 a 43.2,43.2,0,0,1-1.6-11.9 c -.17-8.42,2.49-20.51,4.58-27.76,1-3.41,2.28-9.23,3.69-14.06,1.7-.39,3.13-2.53,3.88-3.31,2.56-3.56,4.91-5.78,5.31-12.5 S 337.26,254.75,330.51,245Z" fill="param(main_colour)"/>
  </g>
  <g id="accent-colour-1">
    <path d="M 276.92,333.63 s 29.5,12.75,47.5,3 c 1.63,4.63,6.25,13.88,10.13,21.88 s 8.5,20,10.13,28.63,4.25,43.75,4.25,43.75-9.75,8.25-31,12.5-45.87-.25-56.62-8.5 c 2-7.25.13-15.5-1.25-21.75 s -3-25,.38-42.12,8.38-25.5,11-29.75Z" fill="param(accent_colour_1)"/>
  </g>
  <g id="fixed-colours">
    <circle cx="312.25" cy="344.33" r="1.92" fill="#ffcc50"/>
    <path d="M 310.56,242.71 s 12.67,11.33,16,24.5 c -2,9.17-6,18-9,22 A 150.6,150.6,0,0,1,303.89,271 C 305.56,261,307.56,249.38,310.56,242.71Z" fill="#fff"/>
  </g>
  <g id="outline">
    <path d="M 309.91,241.79 A 99.44,99.44,0,0,0,303.48,271 c 2.41,6.41,14,20.08,14,20.08 s 7.55-11.77,10-24 C 323.38,252.37,309.91,241.79,309.91,241.79Z m -4.8,29.06 c 1.05-12.11,5.64-26.3,5.64-26.3 s 9.77,7.39,15.18,22.22 a 78.93,78.93,0,0,1-8.31,21.38 S 308.73,279.16,305.1,270.85Z"/>
    <path d="M 308.55,249 l 1.94-.41,1,4.2 s -3.14.7-3.77,1.32 A 39.62,39.62,0,0,1,308.55,249Z"/>
    <path d="M 309.81,244.42 l .69,4.2,3.7-1 a 27.67,27.67,0,0,0-3.32-3.92 C 310.14,243.17,309.81,244.42,309.81,244.42Z"/>
    <path d="M 317.9,251.16 l -2.13.47-1.57-4 S 316.06,248.13,317.9,251.16Z"/>
    <path d="M 312.37,257.08 l -.88-4.26 a 20.38,20.38,0,0,1,4.27-1.19 c .84,2.39,1.56,4.4,1.56,4.4 S 314.38,256.55,312.37,257.08Z"/>
    <path d="M 321.2,255.71 a 12.4,12.4,0,0,0-3.88.32 c .72,1.89,1.32,3.77,1.32,3.77 l 4.63-.43Z"/>
    <path d="M 309.17,262.41 s 2.77-1.46,4.27-1.44 c -.59-2.51-1.07-3.89-1.07-3.89 s -2.64.71-4.14,1.19 C 308.88,260.78,309.17,262.41,309.17,262.41Z"/>
    <path d="M 305.57,264.48 a 15.58,15.58,0,0,1,3.78-2.07 c .34,2.13,1.19,4.27.81,4.26 a 15.73,15.73,0,0,0-4.28,2.19 A 37.93,37.93,0,0,1,305.57,264.48Z"/>
    <path d="M 314.57,265 a 34.83,34.83,0,0,1,5-.8,24.7,24.7,0,0,0-.94-4.39 s -3.51.7-5,1.18 C 314.1,262.73,314.57,265,314.57,265Z"/>
    <polygon points="307.47 254.63 308.23 258.27 306.03 259.11 307.47 254.63"/>
    <path d="M 310.17,266.68 s 2.77-1.21,4.4-1.69 c .58,2.76.81,4.64.81,4.64 s -3.77,1.32-4,1.94 A 38.26,38.26,0,0,0,310.17,266.68Z"/>
    <path d="M 319.58,264.19 s 2.75-.21,4.13-.19 c .22,2,.31,4.51.31,4.51 a 11.13,11.13,0,0,0-3.94.13 C 319.92,266.44,319.58,264.19,319.58,264.19Z"/>
    <polygon points="325.83 264.15 323.71 264 323.27 259.37 325.83 264.15"/>
    <path d="M 306.31,273.87 s 3.65-1.82,5-2.3 c .53,2.38.93,4.76.93,4.76 a 26.28,26.28,0,0,0-3.9,1.82 A 20,20,0,0,1,306.31,273.87Z"/>
    <path d="M 315.37,269.63 l .8,5.26 a 27.74,27.74,0,0,1,4.14-.81 c -.08-3.13-.23-5.44-.23-5.44 A 25.64,25.64,0,0,0,315.37,269.63Z"/>
    <polygon points="324.02 268.5 324.13 273.51 324.95 272.89 326.39 268.91 324.02 268.5"/>
    <path d="M 312.28,276.33 a 20.58,20.58,0,0,1,3.9-1.44 c .33,3,.42,5.13.42,5.13 a 13.72,13.72,0,0,0-3.64,1.07 C 312.56,278.52,312.28,276.33,312.28,276.33Z"/>
    <path d="M 320.31,274.07 a 29.66,29.66,0,0,1,3.82-.57 c .08,2.88-.1,2.25-.1,2.25 l -1.3,3.36-2,.35Z"/>
    <polygon points="316.6 280.02 320.73 279.46 320.87 282.77 320.35 284.14 316.84 284.52 316.6 280.02"/>
    <path d="M 311.2,281.69 l 1.76-.6 s .7,3.64.33,3.26 S 311.2,281.69,311.2,281.69Z"/>
    <polygon points="316.84 284.52 314.03 284.73 317.4 289.03 316.84 284.52"/>
    <polygon points="304.5 269.47 305.88 268.86 306.31 273.87 303.79 270.89 304.5 269.47"/>
    <path d="M 287.92,227.21 a 12.86,12.86,0,0,0,3.33-6.17 s -5.5,2.33-8,6.5 c 3.5,8.83,11.5,21.67,24.67,26.33 a 47.18,47.18,0,0,0,2-12.08 S 291.09,235,287.92,227.21Z M 306.84,252 c -10.75-5.17-18.58-15.5-22-24,1.08-3,4.42-4.67,4.42-4.67 a 41.93,41.93,0,0,1-2.42,3.67 c 2.83,9.17,21.55,15.83,21.55,15.83 A 56.15,56.15,0,0,1,306.84,252Z"/>
    <path d="M 307.17,219.8 s 3.92.42,5.17.75 a 74.86,74.86,0,0,1,7.55,6.58 s 2.25,10.25-1.25,24.13 a 92.51,92.51,0,0,0-9-9.5 s 4.28-3.87,4.53-14.37 c -1.42-2.42-2.42-2.83-2.42-2.83 a 6.57,6.57,0,0,1,3.42,3 c .59,7.21-1.82,11-3.16,14,1.84,2.25,5.63,6,5.63,6 s 3.75-11,.5-20.37 c -4.92-5.92-6.38-5.5-6.38-5.5 a 38.13,38.13,0,0,0-4.17-.33 A 11.44,11.44,0,0,1,307.17,219.8Z"/>
    <path d="M 303.34,262 c -9.33,2-15.58-.42-15.58-.42-.33,4-.58,14.75-.58,14.75 a 32.37,32.37,0,0,0,9,5.5 c 2.67-1.5,7.92-7.58,7.92-7.58 S 303.5,265.38,303.34,262Z m -7.08,18.33 a 41,41,0,0,1-7.75-4.58 l .5-12.42 s 4.67,2,13.08.33 c .17,4.42.75,10.08.75,10.08 S 298.09,279.13,296.25,280.29Z"/>
    <path d="M 288.17,265.21 a 33.26,33.26,0,0,0,7.25,4.25,46.39,46.39,0,0,0,7.33-3.83 l .08,1.17 a 41,41,0,0,1-7.5,3.92,30.91,30.91,0,0,1-7.25-4.25Z"/>
    <path d="M 277.3,332.88 s 29.63,12.75,46.38,2.75 a 16.69,16.69,0,0,1,.63,1.75 s -12.87,9.63-47.5-3 C 277,333.75,277.3,332.88,277.3,332.88Z"/>
    <path d="M 316.8,289.13 s -1.75,9.63-4,21 a 109.66,109.66,0,0,0-1.37,29.5 l 1.25.13 a 93.06,93.06,0,0,1,.63-25.12 c 2.25-13.12,5.13-24.12,5.13-25.5 A 1.21,1.21,0,0,1,316.8,289.13Z"/>
    <path d="M 338.38,256.09 s -2.42,2.17-8,2.83 c 1.42,4.17,1,8.5-.08,12.67 a 57.62,57.62,0,0,0,5.84,5.54 l .58-1 s -4-3.62-4.93-4.71 a 22.39,22.39,0,0,0,.08-11.67,13.56,13.56,0,0,0,7-2.33 A 11.29,11.29,0,0,1,338.38,256.09Z"/>
    <path d="M 331.71,261.09 s 3.25.83,6.08,1.33 a 8.44,8.44,0,0,0,1.67-2.75 l .5,1.08 a 9.75,9.75,0,0,1-1.92,3.08,53.56,53.56,0,0,1-6.42-1.58Z"/>
    <circle cx="314.64" cy="291.13" r="1.13"/>
    <circle cx="312.89" cy="298.88" r="1.13"/>
    <circle cx="311.26" cy="306.25" r="1.13"/>
    <circle cx="309.89" cy="313.5" r="1.13"/>
    <circle cx="309.01" cy="321.63" r="1.13"/>
    <circle cx="308.64" cy="329.13" r="1.13"/>
    <circle cx="308.89" cy="335.63" r="1.13"/>
    <path d="M 292,285.25 s 8.51,2,17.31-4.65 C 308.32,283.21,302.62,288.74,292,285.25Z"/>
    <path d="M 317.55,225.94 a 9.18,9.18,0,0,1,7.88,1.88,10.88,10.88,0,0,0-6.44-.25 A 12.05,12.05,0,0,1,317.55,225.94Z"/>
    <path d="M 284,227 a 24.06,24.06,0,0,1-2.31.81 c -1.62-1.69-8-4.44-14.12-1.06 a 13.28,13.28,0,0,0-4.69,18.88 c 2.13,3.38,6.19,5.06,6.94,5.38 a 106.2,106.2,0,0,0,2.5,23.25 c 1.69,6.63,6.81,19.25,10.31,26.75 s 5.69,12.75,6.13,17.88 c .13-6.19-1.31-10.94-4-16.56 A 240.7,240.7,0,0,1,275,275.63 a 87,87,0,0,1-2.56-26.12 c -3.5-.12-7.81-3.5-9.12-7.69 a 11.35,11.35,0,0,1,4.31-12.62,11.49,11.49,0,0,1,13.5.44,14.57,14.57,0,0,0,3.38-.81Z"/>
    <path d="M 272.09,270.21 a 109.91,109.91,0,0,0,5,19.5 c 3.58,9.75,7,20.17,5.25,27 a 77.58,77.58,0,0,1-7.17,16.92,23.9,23.9,0,0,0,2.17,1.08,98.45,98.45,0,0,0,6.42-14.5 c 2-6.42,2.42-10.5-.75-19.92 C 279.17,291.88,273.34,276.46,272.09,270.21Z"/>
    <path d="M 332.64,281.75 s -5.13,19.71-6.63,26.71-2.92,19.42-.5,28.25 c -.5.33-1.83,1.17-1.83,1.17 a 40.11,40.11,0,0,1-1.92-11.33 c -.33-7.17,1.92-17.58,3.42-24.25 s 5-19.42,5-19.42Z"/>
    <path d="M 307.63,219.84 s 1.54,5.92,7.13,7.83 a 3.14,3.14,0,0,1-.58,1.54,13.45,13.45,0,0,1-8.33-9.25 A 2.8,2.8,0,0,1,307.63,219.84Z"/>
    <path d="M 327.76,240.25 a 92.82,92.82,0,0,0,8,11.25 c 4.88,5.88,8.13,12.63,3.75,22.63 s -13.37,10.38-13.37,10.38 a 19.48,19.48,0,0,0,9.88-8 c 3.75-6.12,4-12.37,2.13-17.5 S 329.26,245.25,327.76,240.25Z"/>
    <path d="M 275.17,333.63 c -1.12,2.13-10.25,13.75-14.5,31.38 s -3.86,37.27-2.12,45.88 c 2.33,11.54,3.64,21.15,1,24.33,13,8,32.21,12.54,54.21,9.79 a 81.58,81.58,0,0,0,36.29-13.62 s -1.42-31.5-5-47-12.75-32.87-15.5-38.5-4-9.17-4-9.17-1.46-.46-1.71.54 c 1.38,4.38,6.25,13.63,8.63,18.75 s 9,19.63,11.38,31.88,4.29,42.63,4.29,42.63-8,6.25-23.79,10.63-47,3.54-61.71-6.58 c 1.5-7.67.67-12.33-1.17-20.42-1.49-6.56-2.75-22.75-.87-37 s 5.75-23.37,8.38-28.62,8.42-13.79,8.42-13.79 l 0-1.83Z"/>
    <path d="M 272,341 s 22.13,9.25,41.25,7.25 a 47.39,47.39,0,0,0,14-4.25 l .63,1.5 s -7.75,3.5-15,4.13-21.75.5-41.37-7.5 A 4.9,4.9,0,0,1,272,341Z"/>
    <path d="M 312.24,341.91 a 2.42,2.42,0,1,0,2.42,2.42 A 2.42,2.42,0,0,0,312.24,341.91Z m 0,3.83 a 1.42,1.42,0,1,1,1.42-1.42 A 1.42,1.42,0,0,1,312.24,345.75Z"/>
    <path d="M 321.67,379.38 s -9.5,31.75-21.25,44.75 C 313.92,412.38,321.67,386.63,321.67,379.38Z"/>
    <path d="M 322.67,407.13 s -8.75,16.25-18.5,23.5 C 312.67,428.38,322.17,411.63,322.67,407.13Z"/>
  </g>
<script type="text/ecmascript" xlink:href="param.min.js"/> 
</svg>
