<?xml version="1.0"?>
<svg xmlns="http://www.w3.org/2000/svg" xmlns:xlink="http://www.w3.org/1999/xlink" viewBox="0 0 600 600">
  <title>nurse-curvy</title>
  <g id="main-colour">
    <path d="M 360.23,405.75 c -.37-13.25,1-30.75-3.75-44.12 s -10.75-21.25-15.12-27.87 a 78.18,78.18,0,0,1-7.4-15.27,55.22,55.22,0,0,1,.7-17.34 c 1.08-5.17,2.75-9.08,5.08-15.67 a 60.48,60.48,0,0,0,3.75-23.25 c -.33-9.33-3.26-14.6-3.26-14.6 h 0 a 12.69,12.69,0,0,0-6.41-19.85 h 0 c -3.11-1.81-8.23-.54-10.39.12 a 9,9,0,0,0-3.31-4.84,12.73,12.73,0,0,0-6.33-2.58,20.59,20.59,0,0,1,1.2,4.08,38.69,38.69,0,0,1-.45,10.58 c -.92,4.83-4.83,12.17-5.53,17-5-5.83-17.47-13.5-21.47-17.17 a 13.25,13.25,0,0,1-3.71-5.39 c -1.4-6.07.46-9.27.46-9.27-7.41.24-9.17,5.7-9.57,8.84 a 56.87,56.87,0,0,0-10.14-2.78,13.69,13.69,0,0,0-13.87,6.13 c -4.62,8.75-.12,15.63,3.88,18.5-2.75,22.25,4.63,35.5,7.25,40.25 s 4.63,8.5,5.5,15.13 c 1.38,11.88-6.87,19.38-14.12,29.88 a 61.1,61.1,0,0,0-9.81,22.5 c -.48,1.68-1,3.52-1.4,5.53-4,18,.88,34.25,2.63,42.88 s 2.25,23.75-.37,29.5 c 11,7.63,22.38,11.13,40.88,12 S 326,442.75,333,440.88 s 28.25-5.75,34.38-3.87 C 363.11,428.5,360.61,419,360.23,405.75Z" fill="param(main_colour)"/>
  </g>
  <g id="fixed-colours">
    <path d="M 334.49,257 l .54,2.16,3.12-.53 L 339,264 a 4,4,0,0,0-1.2,3.29,2.93,2.93,0,0,0,3.64,2.19,3.07,3.07,0,0,0,2.63-3.73 c -.3-1.26-2.22-2.16-2.62-2.32-.25-1.86-1-5.73-1-5.73 l 1.25-1.39-.93-2Z" fill="#d6d6d6"/>
    <path d="M 332,257.51 a 5.75,5.75,0,0,0,2.61-.27 c .32,1,.5,1.78.5,1.78 l 3.16-.53.16,1.56 s -.48.49-5.73.74 C 332.38,259.25,332,257.51,332,257.51Z" fill="#fff"/>
    <path d="M 280.21,262 s 10.35,1.4,20-1.37 a 29.43,29.43,0,0,1,.26,3.81 s -10.6,3-19.64,1.18 A 23.69,23.69,0,0,1,280.21,262Z" fill="#fff"/>
    <polygon points="286.15 272.27 289.4 271.9 289.25 269.28 292.02 269.03 292.56 271.46 295.33 271.21 295.47 273.68 292.55 274.1 292.64 276.89 289.71 277.23 289.63 274.52 286.54 274.79 286.15 272.27" fill="#f0356a"/>
    <path d="M 342.11,253.13,341,254.5 l .87,1.61 a 3.47,3.47,0,0,1-1.19,1.19 l 0,.16.47,1.69,2.07-1.4Z" fill="#fff"/>
    <path d="M 275.69,226.3 s -.08,6.42,3.67,10.67,9.25,5.33,13.25,5.33 a 19,19,0,0,1,.25,2.5 A 24.41,24.41,0,0,1,281.11,242 C 275.52,239,273.36,230.88,275.69,226.3Z" fill="#fff"/>
    <path d="M 293.11,246.3 s 9,1.25,12.5,2.5 a 9.44,9.44,0,0,1,2.67,3.17 s -9.08-2.58-14.75-3.08 A 7.63,7.63,0,0,1,293.11,246.3Z" fill="#fff"/>
    <path d="M 319.61,243.46 l -.3-2 a 50.34,50.34,0,0,0-9.86,8.67,5.18,5.18,0,0,0-.5,2.5Z" fill="#fff"/>
    <path d="M 318.56,238.88 a 13.8,13.8,0,0,0,2.83-5.58 c .92-3.54.29-7.83-1.46-10 a 9.77,9.77,0,0,1,3.88,7.25,12.9,12.9,0,0,1-4.67,10 A 9.4,9.4,0,0,0,318.56,238.88Z" fill="#fff"/>
  </g>
  <g id="outline">
    <path d="M 361.39,392.88 c 0-15.5-1.5-34.17-13-50.83 s -14.62-22.29-13.87-32.79,5.61-22.46,5.61-22.46 A 138.52,138.52,0,0,0,344.45,272 c 1-5.33-.75-19.92-4.25-24.33 a 23.4,23.4,0,0,1,1.3,4.16 l -.08-.11 c -3.45,5.22-10.59,5-10.59,5 a 50.3,50.3,0,0,1,1.38,14.36 c 1.64.85,7.22,3.17,10.08,4.35 a 50.79,50.79,0,0,1-2.34,7 c -1.17,3.08-1.47,4.5-1.94,5.54,0,0-5.12,11.75-5.37,23.5 s 8,22.38,12,28.75,11.5,17,13.13,33.75 A 303.58,303.58,0,0,1,359,409.13 c 0,7.88,2,19.38,6.13,26.25-7.75-1.12-19.12,1.38-26.5,3.25-4.08,1-10.89,2.92-18.66,4.71.36-5.54,1.67-26.59,1.24-37-.5-12-2.17-28.17-4-42.67 a 381.69,381.69,0,0,1-2.68-42 c -.18-12.67-.17-21.83.71-34.46.86-12.44.88-23.21-2.62-29.87 a 40,40,0,0,0-2.7-4.47 c 1.22-1.16,6-5.66,10.26-9.34-.13-.78-.29-1.58-.48-2.38 a 11.8,11.8,0,0,0,4.94-10.64,11.62,11.62,0,0,0-.34-2.09 c 3-1.33,7.55-1.38,9.59-.58-1.33-1-4.08-1.71-6.58-1.58 a 11.83,11.83,0,0,0-3.5.66,11.48,11.48,0,0,0-10.92-7.41 c 1.33,4.33,3.67,10.08-.33,20.46-2.13,5.53-3.68,10.14-4,11.12 a 45.39,45.39,0,0,0-7.56-6.87 c -4.35-3.39-12.44-7.46-15.53-13.12 s -.5-11.67-.5-11.67-5.92-1.08-9.5,5.08 a 12.3,12.3,0,0,0-1.39,3.53,39.9,39.9,0,0,0-7.19-2.33 c -5.06-1.19-10.56-.56-14.94,3.81 a 14.32,14.32,0,0,0-4.06,12.81,14.61,14.61,0,0,0,5.69,9.31 c -.75,5.44.06,14,.5,18.56 a 62.42,62.42,0,0,0,5.63,19.13 c 1.29,2.55,3.24,5.7,5.24,9.71,1.15,3.71,2.43,9.38,1.44,14.17-1.62,7.88-8.17,13.71-12,19.21 a 81.71,81.71,0,0,0-12.83,29.08 c -3.5,14.67-1.33,30.17.67,39.83 s 5.33,24.83.5,35.5 c 15.17,13,45.17,14,61.17,11.83 s 46.67-13.83,64.5-10.33 C 361.22,424.38,361.39,408.38,361.39,392.88Z M 338.65,258.66 a 8.61,8.61,0,0,0,1.7-.74,36.85,36.85,0,0,1,.9,4.83,4,4,0,0,0-1,.08,4.52,4.52,0,0,0-1,.34 C 339.18,262.09,338.88,259.6,338.65,258.66Z m 3.17,4.16 c -.09-.53-.33-2-.54-3.38 a 14,14,0,0,0,1.34-.91 c .21,1.84.35,3.51.45,4.76 A 3.81,3.81,0,0,0,341.82,262.82Z M 340.51,264 a 2.78,2.78,0,0,1,2.66.69 c .07.92.14,2,.14,3.2 a 3.46,3.46,0,0,1-1.91,1.21,2.66,2.66,0,0,1-3.23-2 A 2.76,2.76,0,0,1,340.51,264Z m 1.41-10.18 c .22,1.22.41,2.46.56,3.66 a 13.84,13.84,0,0,1-1.35,1.06 c -.06-.37-.1-.71-.14-1 a 5,5,0,0,0,1.21-1.27 c -.34-.75-.67-1.44-.87-1.84 C 341.56,254.17,341.75,254,341.92,253.77Z m -1,1,.64,1.24 s -.91,2.24-6.16,2.61 c -.14-.37-.26-.8-.35-1.13 A 12.74,12.74,0,0,0,340.9,254.78Z m -6.51,2.83.48,1.64 a 13.69,13.69,0,0,0,3.17-.42 l .14.81 a 18.15,18.15,0,0,1-5,.49 c -.14-.76-.31-1.53-.52-2.3 C 333.26,257.79,333.84,257.71,334.4,257.62Z m -.77,12.64 a 40.86,40.86,0,0,0-.34-9.29,23.16,23.16,0,0,0,5-.61 c .15,1,.33,2.16.42,3.15 a 3.61,3.61,0,0,0,2.53,6.65,4.63,4.63,0,0,0,2-.79 c 0-.28.05-.56.08-.83 a 30.91,30.91,0,0,1-.71,5.7 C 339.3,273,333.63,270.25,333.63,270.25Z m -24.18-18.53 c .15-.52.32-1,.5-1.58 a 70.81,70.81,0,0,1,8.79-8.17 c .17.71.27,1.16.27,1.16Z m 9.9-11.93 c -.09-.34-.19-.68-.29-1,.68-.87,5.56-7.43,2.1-13.7 a 9.06,9.06,0,0,1,2.24,5.8 C 323.45,235.37,320.5,238.68,319.34,239.79Z m .2-16.25 c 1.41,2,4,7.35-.75,14.4 a 69.54,69.54,0,0,0-2.87-7.43,22.49,22.49,0,0,0-1-9 A 10,10,0,0,1,319.54,223.54Z m -3.9,9.24 a 42.6,42.6,0,0,1,2.87,8.29,63.91,63.91,0,0,0-7.93,7.25 C 312.34,243.56,314.73,238.34,315.64,232.78Z m -8.83,18.42 a 73,73,0,0,0-12.83-3 l -.14-1.3 a 69.25,69.25,0,0,1,11,2.29 C 305.54,249.87,306.19,250.53,306.8,251.21Z m -5.43-4.91 c .65.5,1.27,1,1.86,1.49 a 89.5,89.5,0,0,0-9.51-1.9 c -.23-2.17-.48-4.32-.62-5.59 C 295,241.62,297.48,243.33,301.37,246.29Z m -25.83-17.48 c .44,2.95,1.62,7.44,5.78,10.48,3.87,2.84,9,3.37,10.63,3.48 l .17,1.44 c -1.56,0-8-.32-11.82-3.75 S 275,232.89,275.54,228.81Z m 7.1-7.77 c -2,4.75.33,10.42,4.33,14.33 a 35.15,35.15,0,0,0,4.54,3.8 l .33,2.69 c -3.48-.12-9-1.39-12.36-5.57-2.67-3.37-3.25-7.81-3.38-9.72 C 277.52,222.94,281.13,221,282.64,221Z m 17.63,226 c -14.75,1.88-41.75-.37-54.87-10.75,3.5-11.87,1-27-.87-35.12 s -4.75-21-1-38.62,10.75-26.25,15.13-32.25 c 4-5.51,11.19-12.4,9.82-23 a 69.91,69.91,0,0,1,3.56,15 c -.06-7.62-3.31-19.12-6.44-25.62 s -8.19-13.94-9.69-27.25-.19-18.75-.19-18.75-4.5-2.62-5.62-7.44 a 12.78,12.78,0,0,1,5.75-14.19 c 5.51-3.66,13.26-1,18,.72 a 14.67,14.67,0,0,0,5,11.59 c 4.11,3.71,9.78,4.06,13.41,4.29 l .42,3.46 a 139.89,139.89,0,0,1,15.15,3.3 c 4.86,5.88,6.5,12.33,6.5,20.62,0,11.26-1.41,24.17-1.33,33.5.08,10.21-.28,15.71,1.22,39.58 s 6.46,50.92,5.29,73.58 c -.79,15.29-1.12,21.55-1.25,24 C 312.5,445,306.26,446.24,300.26,447Z"/>
    <path d="M 279.29,261.2 s .75,10.85,2,16.15 a 38.82,38.82,0,0,0,10.34,5.47 s 8-5.22,9.84-7.27 c -.11-7.46-.52-15.92-.52-15.92 S 289.52,262.84,279.29,261.2Z m 20.48.23 c 0,.76,0,1.6,0,2.48-7.59,2.5-16.13,1.76-18.67,1.45-.1-1-.17-1.84-.19-2.4 C 280.95,263,293.38,263.91,299.76,261.44Z m -8.12,19.69 a 57.22,57.22,0,0,1-9.21-4.82 s -.75-5.79-1.19-10 c 7.66,1.2,16.39-.59,18.6-1.1.11,4.58.3,9.54.3,9.54 S 293.68,279.87,291.64,281.13Z"/>
    <path d="M 296,274.35 l -.31-3.7-2.92.31-.29-2.55-4,.27.27,2.66-3.14.3.4,3.53,3.14-.3.24,2.71,3.66-.31-.09-2.65Z m -5.82,2.25-.23-2.63-3.08.19-.19-1.57,3.08-.33-.27-2.55,2.16-.2.37,2.58,2.75-.21.17,1.42-2.8.37.13,2.8Z"/>
  </g>
<script type="text/ecmascript" xlink:href="param.min.js"/> 
</svg>
