<?xml version="1.0"?>
<svg xmlns="http://www.w3.org/2000/svg" xmlns:xlink="http://www.w3.org/1999/xlink" viewBox="0 0 600 600">
  <title>nurse-voluptuous</title>
  <g id="main-colour">
    <path d="M 368.86,387.71 c -.67-10.33-1.67-36.17-5.33-47.83-2.56-8.15-7.57-18.25-13.59-25-.28-.5-.56-1-.86-1.48-3.74-6.12-7.64-11-8.26-15.9 a 22.31,22.31,0,0,1,.72-6.66,23.39,23.39,0,0,0,14-14.18 c 3.38-9.12,1.75-17-1.62-22.12 a 21.53,21.53,0,0,0-4.93-5.05,16.58,16.58,0,0,0-12-22 h 0 c -1.56-1-4.23-1-7.38-.45-.66-4.79-7.38-6.78-7.38-6.78 a 18.06,18.06,0,0,1,0,3 l -.12-.25 c -.85,7.3-1.18,11.55-2.18,15.18 s -3.25,9.25-4.87,13.38 c -4.12-3.5-16.84-9.54-21.25-12 a 42.81,42.81,0,0,1-12.83-10.83,10.48,10.48,0,0,1-1.29-2.32 c 0-.06,0-.12,0-.18 a 8.65,8.65,0,0,1-.49-1.08,17.14,17.14,0,0,1-.49-2.15 l -.08.18 a 9.55,9.55,0,0,1-.19-3 c -5.77,1.31-6.31,5.42-6,8.12 a 49.32,49.32,0,0,0-11.5-2.15 c -6.75-.25-13.12,4.13-15.87,9.63 s -2.75,12.13,1.5,18.75 c -2.47,13.44.3,22.88,3.62,33.57 a 44.16,44.16,0,0,1-2.33,13.67 c -4,11.17-7.67,16-12.5,27 s -11.83,29.33-10.67,51.5,4.67,32.83,4.5,40.5 a 148.38,148.38,0,0,1-1.67,17 S 234,437,247.19,440 s 35,10.83,65.5,10.33,47.83-9.17,63.67-23.17 C 369.36,415.54,369.52,398,368.86,387.71Z" fill="param(main_colour)"/>
  </g>
  <g id="fixed-colours">
    <path d="M 274.15,222.63 a 14.34,14.34,0,0,0,1.58,8.08 c 2.17,3.92,7.33,6,11.08,8.42 s 5.42,3.33,5.42,3.33.33,1.58,0,1.5-10-3.67-14.75-8.25 S 270.82,227.3,274.15,222.63Z" fill="#fff"/>
    <path d="M 294.07,249.3 s 13,.83,21.33,2.58 a 6.71,6.71,0,0,1,1.58,1.83 s -15.58-2.58-22.33-2.17 A 20.92,20.92,0,0,1,294.07,249.3Z" fill="#fff"/>
    <path d="M 323.15,245 s -3.75,1-8,6.29 a 7.6,7.6,0,0,1,1.46,1.21,19.26,19.26,0,0,1,6.92-5.42 A 5.56,5.56,0,0,0,323.15,245Z" fill="#fff"/>
    <path d="M 321.9,239.88 s 4.5-3.58,6.58-7.92.17-7.08.17-7.08.05,6.33-7.35,12.58Z" fill="#fff"/>
    <path d="M 280.57,266.13 s 12.92,3.25,22.83,1.25 c -.33,2.17-.5,4.67-.5,4.67 s -8.83,1.5-22.58-1.67 C 280.4,267.71,280.57,266.13,280.57,266.13Z" fill="#fff"/>
    <polygon points="340.48 265.13 345.32 263.71 346.15 267.05 349.73 266.21 350.4 268.3 341.57 270.3 340.48 265.13" fill="#fff"/>
    <path d="M 352.9,260.55 l 1.42,3.17-2,1.42.83,2.33 s 3.58-1.75,3.58-2-.92-6.42-.92-6.42Z" fill="#fff"/>
    <polygon points="285.75 278.52 289.17 278.51 289.32 275.76 292.64 275.96 292.51 278.42 295.8 278.8 295.64 281.71 292.39 281.55 291.97 284.46 288.89 284.55 289.11 281.26 285.86 281.19 285.75 278.52" fill="#f0356a"/>
    <path d="M 345.4,264.13 l 7.5-3.58,1.42,3.17-2,1.42,2,6 a 4.74,4.74,0,0,1,2,1.25 c -.67,2.25-1.83,5.42-1.83,5.42 s -2.83.67-3.92-1.5 a 3.75,3.75,0,0,1,1.08-4.58 c -.75-2.08-1.92-5.5-1.92-5.5 l -3.58.83Z" fill="#d6d6d6"/>
  </g>
  <g id="outline">
    <path d="M 279.64,264.88 s -.92,12.33-.33,18.5 a 44.13,44.13,0,0,0,10.75,7.83 s 9.83-4.58,12.25-6.58 c 1.08-8.42,2-18,2-18 S 290.89,268.38,279.64,264.88Z m 10.67,24.42 a 65.05,65.05,0,0,1-9.58-6.92 s .09-6.64.28-11.39 c 8.42,2.6,18.53,2,21.1,1.78-.62,5.17-1.21,10.78-1.21,10.78 S 292.8,288.21,290.3,289.29Z m 12.33-20.83 c -.11.86-.23,1.81-.35,2.79-8.94,1.58-18.43-.64-21.24-1.39.05-1.13.11-2.09.17-2.73 C 281.22,267.13,295.05,270.21,302.64,268.46Z"/>
    <path d="M 293.3,275.13 l -4.5-.33-.12,3-3.58-.17-.12,4,3.58.17-.17,3.08,4.17.25.33-3,3.42.17.25-4.21-3.33-.12Z m 2,4.25,0,1.63-3.21,0-.31,3.17-2.36-.17.17-3-3.5-.29,0-1.79,3.52.13.11-2.92,2.46.13v3Z"/>
    <path d="M 271.73,288.71 c 9,13,23.83,10.67,30.33,7.17 C 281.57,299.54,271.73,288.71,271.73,288.71Z"/>
    <path d="M 367.22,351.54 c -3.67-23.5-19.75-43.67-22.5-47.67 s -3.17-7.17-2.33-11.83 c 0-.16.06-.29.09-.44 l .43-.14 c 1.75-.58,11.58-5.33,14.67-16.33 s -1.08-19.5-4.92-23.67-8.67-5.75-12.33-7.83 S 329.57,237,329.57,237 a 92.76,92.76,0,0,0,16,11,19.63,19.63,0,0,1,9,10.22,42.45,42.45,0,0,1-15.09,6.12 c 1.58,5.42,2.83,15.58,2.83,15.58 l 9.27,2 c -3.37,4.52-8.69,8-16.46,9.89 a 35,35,0,0,0,4.7.23 c -1.22,6.7,1.87,11.84,5.29,16.44,4.33,5.83,12.83,20.83,17.5,33 s 4.83,42.33,5.5,51.33.67,20.67,6.83,34.67 C 360.59,440.1,346,445,331,447.31 c .46-7.59,2-34.49,1-50.68-1.12-19-2.75-32.37-6.75-48 s -6-27.12-5-39.5,7.12-34.82,1.64-49.58 a 19.46,19.46,0,0,0-4.3-6.81 c .7-1.06,2.53-3.25,6.7-5.19-.53-2.88-1.13-5.34-1.69-7.3,1.56-1.27,6.54-5.66,7.52-10.7 a 8.83,8.83,0,0,0,.16-2,20.6,20.6,0,0,1,6.76-.09 c -1.87-1.47-5.55-1.44-6.94-1.37-1-4.21-5.59-6.14-8.48-6.88,0,0,.17,13.5-4.17,24.08-1.26,3.24-2.17,5.83-2.57,7-6.21-4.79-14.75-7.28-21.88-12.07-10.62-7.12-14.5-12.12-14-19,0,0-4.5-.62-7,5.13 a 6.17,6.17,0,0,0-.51,2.59,48.14,48.14,0,0,0-8.43-1.77,18.61,18.61,0,0,0-17.56,29.06 c -1.25,6.44-1.5,15.69.31,22.88 a 95.1,95.1,0,0,0,3.66,11 c -1,17.59-10.18,28.76-18.77,50.62-8.83,22.5-8.5,48.33-5.5,61.67 s 3.17,28,.5,38.17 c 9.5-.67,27,4.17,44.5,8.5 s 36,6,59.33,3,41.5-14.33,48.33-22.33 C 368.72,416,370.89,375,367.22,351.54Z m -13-74.27 a 2.7,2.7,0,0,1-3.51-1.64,3,3,0,0,1,2.25-3.87,3,3,0,0,1,2.74.66 c 0,.21-.07.42-.12.63 A 25.26,25.26,0,0,1,354.21,277.27Z m -7.7-10.56-.65-2.34 a 71.31,71.31,0,0,0,6.86-3.11,21.44,21.44,0,0,0,1,2.37 C 351.76,265.21,346.51,266.71,346.51,266.71Z m 3.7-.31 c .65-.27,1.26-.56,1.83-.83 l 1.76,5 a 3,3,0,0,0-1.16.17,6.42,6.42,0,0,0-.81.38Z m 5.68,4.94 a 3.68,3.68,0,0,0-1.36-.66 l -1-3 a 10.83,10.83,0,0,0,2.67-1.54 A 26.39,26.39,0,0,1,355.89,271.34Z m .22-6.18 a 13.22,13.22,0,0,1-2.88,1.66 l -.53-1.59 c 1.38-.71,2.32-1.28,2.32-1.28 l -1.46-3.14 c .72-.38,1.26-.68,1.57-.85 A 24.46,24.46,0,0,1,356.11,265.17Z m -11.2-.44 c .16.54.44,1.54.85,3.07 a 18.87,18.87,0,0,0,3.79-1.12 l .43,1.21 a 74,74,0,0,1-7.91,1.83 c -.23-1.39-.48-2.75-.72-3.92 A 31.78,31.78,0,0,0,344.91,264.72Z m -1.48,14 s -.53-3.93-1.19-7.95 a 74.34,74.34,0,0,0,8.08-1.92 l .93,2.64 a 3.58,3.58,0,0,0-1.43,4.39,3.28,3.28,0,0,0,3.95,2.37,22.32,22.32,0,0,1-1.42,2.56Z m -50.27-38.48 c 5.91,3.17,14.26,6.91,20.07,10.94 A 130.94,130.94,0,0,0,295,249 C 294,245,293.38,241.62,293.16,240.23Z m 21.37,11.89 c .45.34.88.68,1.28,1 a 142.73,142.73,0,0,0-20.34-2.27q-.18-.65-.34-1.28 C 297.75,249.84,308.68,250.91,314.53,252.12Z m 2.13-.31q-.42-.39-.85-.75v0 a 20.22,20.22,0,0,1,6.88-5.62 c .11.45.2.87.27,1.23 A 20.05,20.05,0,0,0,316.65,251.8Z m 12.06-22.09 c -.86,3.52-5.31,8-6.52,9.12-.12-.39-.24-.76-.35-1.1 a 35.27,35.27,0,0,0,5.12-6.53,16.58,16.58,0,0,0,1.78-4.65 A 6.51,6.51,0,0,1,328.72,229.71Z m -5.83-8.42 a 9,9,0,0,1,5.26,3.76 c 0,2-1,6-6.51,12-.23-.68-.42-1.2-.55-1.54 C 322.29,230.33,323.26,224.4,322.89,221.29Z M 319.05,243 c .47-1.4,1-3.28,1.54-5.37.41,1.43,1.35,4.72,2,7.21 a 16.06,16.06,0,0,0-6,4.64 C 317.23,247.85,318.16,245.59,319.05,243Z m -41.17-21.83 c -.37,6.63,7.11,13.9,10.88,16.5.65.45,1.4.91,2.23,1.39.11.66.25,1.56.44,2.61-1.65-1-6.76-4.14-9-5.67-2.66-1.77-8.34-4.5-7.73-12.73 A 4.78,4.78,0,0,1,277.89,221.13Z m -4,3.54 a 11.22,11.22,0,0,0,4.22,9.12,136,136,0,0,0,13.5,8.52 l .15.78 c -2.9-1.23-10-4.52-15.06-9.09 C 273,230.74,272.77,227.21,273.84,224.67Z M 262.89,443 c -7.67-1.83-23.83-7.17-34.17-6.67,2.83-9,.83-27.5-1.17-38.17 s -3.33-30,1.83-47.33,12-30.67,16.5-40.5 a 68.61,68.61,0,0,0,5-18.62 c .53,1.36,1,2.56,1.28,3.55,1.19,3.88,3.25,11.38,3.56,14.31,0,0-1.12-13.5-4.87-24.12 s -5.17-19.54-3.17-31.62 c -4.25-4.58-4.83-13.25-.83-19.25 a 16.87,16.87,0,0,1,15.25-7.5,43.39,43.39,0,0,1,9.7,1.89 c 1.77,5.81,10.3,12,20.21,15.85 a 68.58,68.58,0,0,0,1.92,7.51 c 7.57-.51,19.89,1.26,22.91,1.73 a 15.91,15.91,0,0,1,1.19,1.27 c 5.29,6.37,4.89,23.92,2.33,38.17-2.7,15.06-4.26,27.46-.26,43.21 s 8.75,32.63,9.63,58.63 c .74,21.88-.39,45.34-.76,52.23-4.44.63-8.93,1.06-13.45,1.43 C 295.05,450.71,270.55,444.88,262.89,443Z"/>
  </g>
<script type="text/ecmascript" xlink:href="param.min.js"/> 
</svg>
