<?xml version="1.0"?>
<svg xmlns="http://www.w3.org/2000/svg" xmlns:xlink="http://www.w3.org/1999/xlink" viewBox="0 0 600 600">
  <title>default-top-voluptuous</title>
  <g id="main-colour">
    <path d="M 322.15,274.88 a 48.44,48.44,0,0,1,15.25-23.67 c -10.12-9.12-16-17.58-15.75-30.08 a 21.81,21.81,0,0,0,1.5,3.25 s 1.13,13.5,18.5,24.88 c 2.25.5,10.83,2,14.08,8.38,3.25,9.88,3.38,18-4.75,27.67 s -20.21,7.33-24.83-.29 c -3.25-.37-6.87.17-7.75.79-5.75,6.67-12.62,11.46-24.5,12.08 s -25.5-6.62-29.75-8.12-16.25-6.37-16.25-6.37 l -1.5-8.12 s 20.38,7.5,24.5,4.63,12.88-15.25,20.25-22.37 c -4.37-12.37-13.5-28.12-14.75-30.5 a 14.92,14.92,0,0,0,1.5-4 s 13.75,20.13,17.13,32.75 a 38.85,38.85,0,0,1,15.63,6.5 A 35,35,0,0,1,322.15,274.88Z" fill="param(main_colour)"/>
  </g>
  <g id="outline">
    <path d="M 295.57,255 c -3.67-12.5-17.83-33.5-17.83-33.5 L 275.4,227 a 133.89,133.89,0,0,1,15.17,30.17 c -13.29,11.79-16.17,19.42-20,21.79 s -25.38-5.25-25.38-5.25 l 2.58,10.13 s 26.52,10.78,33.83,13 c 8.5,2.58,19.75,3.33,30.5-4.17,5.69-4,7.58-6.5,7.58-6.5 s 3.33-1.08,5.67-.08 c 0,0,2.42,6.25,12.75,6.58 s 19.33-12.17,20.33-21.08 c .86-7.66-1.17-13.08-2.5-15.25-3.38-3.87-6.63-6.12-13.88-7.75-6.37-3.75-15.87-11.62-18.29-24.25-1.5-3.17-2.33-5.33-2.33-5.33 s -2.83,17.33,14.83,32.33 c -6.21,4.75-11.33,11.5-14.08,21.63 a 47,47,0,0,0-10.37-10.75 A 51.74,51.74,0,0,0,295.57,255Z M 322.4,276.5 c 4.63-16.87,16.17-25.12,16.17-25.12 s -9.42-7.87-12.79-14.12-4-14.75-4-14.75 a 5.47,5.47,0,0,0,.88,2.13 c 2.5,12,11,20.38,18.62,25.13,3.38,1.13,8.25,1,13.79,8 a 25.27,25.27,0,0,1-.33,21 c -3.12,6.89-10.75,12.13-16,12.5 s -10.83-2.12-12.58-6.21 c -2.62-1.12-4.75-.79-7.42.21-5,6.5-13.62,11.17-23.25,12.17 s -21.21-4.25-28-6.87-17.75-7-17.75-7 l -1.87-6.87 S 264,282.25,270,280.75 s 5.75-6.87,22.13-22.87 c -5.12-15.87-15-30.75-15-30.75 s .63-1.5,1.25-2.62 c 5.63,8.13,14,23.75,16.13,31.75 a 44.7,44.7,0,0,1,15.75,7 A 41.6,41.6,0,0,1,322.4,276.5Z"/>
    <path d="M 279.4,291.71 s 12.67,5.17,23,1.17,13.42-9.5,13.42-9.5-6.92,6.17-14.08,8.33 S 288.23,293.88,279.4,291.71Z"/>
    <path d="M 328.07,283.88 s 3.58,4.83,9.42,5.25,9.33-.92,12.42-2.83 a 13.42,13.42,0,0,0,2.17-2.58 s -6.5,5.33-14.33,4.5 A 18.24,18.24,0,0,1,328.07,283.88Z"/>
  </g>
<script type="text/ecmascript" xlink:href="param.min.js"/> 
</svg>
