<?xml version="1.0"?>
<svg xmlns="http://www.w3.org/2000/svg" xmlns:xlink="http://www.w3.org/1999/xlink" viewBox="0 0 600 600">
  <title>city-classic-top-curvy</title>
  <g id="main-colour">
    <path d="M 349.61,354.13 c 0-2.48-3.58-11.08-6.25-16 s -5.42-8.6-7.62-14 c -3.08-7.54-2.16-17.82-1.08-23 s 2.75-9.08,5.08-15.67 a 60.47,60.47,0,0,0,3.75-23.25 c -.33-9.33-3.26-14.6-3.26-14.6 h 0 a 12.69,12.69,0,0,0-6.41-19.85 h 0 c -4-2.33-12.07,1.18-12.07,1.18 s -1.69-1.5-4.75-4.75 c -.24-.25-.37.63-.45,1.52-.67,8.12-2.55,15.19-6.93,24.41-15.25-4.58-24.06-19.44-27.52-26.62 a 19.23,19.23,0,0,1-6.52,6,54.44,54.44,0,0,0-11-3.12,13.69,13.69,0,0,0-13.87,6.13 c -4.62,8.75-.12,15.63,3.88,18.5-2.75,22.25,4.63,35.5,7.25,40.25 s 4.63,8.5,5.5,15.13 c 1.38,11.88-6.84,18.9-16.21,30.78-7,8.81-10.38,18.38-11.1,24.12 A 69,69,0,0,0,262.44,368 c 16.08,2.25,41.17-.67,54.17-20.17,5.64,7.94,21.69,10.64,33.08,11.68 C 349.65,357.1,349.61,354.13,349.61,354.13Z" fill="param(main_colour)"/>
  </g>
  <g id="accent-colour-1">
    <path d="M 280.36,226 a 44.55,44.55,0,0,0,6.94,19.38 c 6.25,9.44,9.75,12.38,14.63,18.75 s 7.81,13.69,10.25,20.06 a 114.45,114.45,0,0,1,3.94,12.69 s 3.13-8.12,4.75-14.06 a 104.86,104.86,0,0,0,2.63-31.37 c -1-11.87-2.56-24.37-6.5-26.81-.69,7-3.19,18.88-7.69,25.5-9.25-3.25-18.75-9.69-27-26.12 A 11.51,11.51,0,0,1,280.36,226Z" fill="param(accent_colour_1)"/>
  </g>
  <g id="accent-colour-2">
    <path d="M 279.94,226.3,277.19,228 s -1.83,15.58.67,24.5 c 7.42,3.5,18.67,7.42,18.67,7.42 l -3.17,9.17 s 14.08,7.42,22,28 c -2.92-13.25-4.92-20.42-11.33-30.25 S 290.69,252,286.94,245 s -6.42-16.83-6.42-16.83Z" fill="param(accent_colour_2)"/>
    <path d="M 319.19,226.55 s 4.58,11.83,4.75,32.75 a 92.51,92.51,0,0,1-7.75,37.25 s 14.17-15.17,18.08-36.08 c -2.33-2.92-6-7.25-6-7.25 s 4.08-5.5,5.17-8.25 C 330.61,239.3,322.36,229,319.19,226.55Z" fill="param(accent_colour_2)"/>
    <path d="M 266.23,317 s 7.38,4.75,19.13,5 c -1.75,7.88-7.75,17-16,17.25 s -12.87-6.37-12.87-8.87 a 95.93,95.93,0,0,0,7.74-9Z" fill="param(accent_colour_2)"/>
    <path d="M 334.36,320.13 a 47.64,47.64,0,0,0,4.5,10.13 c 2.63,4,4.13,6.25,4.13,6.25 s -3.87,2.5-7.37-2.12 S 331,322.5,331,322.5Z" fill="param(accent_colour_2)"/>
  </g>
  <g id="outline">
    <circle cx="314.69" cy="256.63" r="1"/>
    <circle cx="316.54" cy="265.79" r="1"/>
    <circle cx="317.52" cy="273.46" r="1"/>
    <circle cx="318.3" cy="281.79" r="1"/>
    <path d="M 350.71,358.4 h 0 c -.12-6-1.85-15-10.8-28.18-3.57-6.17-7-11.63-4.71-27.38.81-5,3-10.51,5-16.24,0,0,1.28-3.73,1.91-5.86 s 2.75-11.12,2.25-17.62 c -.75-12.12-4.12-15.37-4.12-15.37,5.25,17.13,0,33.75-2,39.68-2.44,7-5,14-5.38,21.54 a 49.5,49.5,0,0,0,.52,10.71 c -.93.8-2.39,1.92-3.45,2,1.3,8.27,5.59,18.27,12.43,16 a 43.65,43.65,0,0,1,6.64,20.63 c -6.81-.29-24-2.87-31.52-10.3.21-3.42.86-15.42.44-26.7-.36-9.63-1-20-1.24-23.18,6.09-7.55,16.26-21.7,18.38-37.69 a 40.77,40.77,0,0,0-6.27-7.44 c 2.26-2.44,4.67-5.45,5.52-7.93-2.75-6.27-7.37-11.76-11.37-15.92 a 15.24,15.24,0,0,1,10.92-1.44 s -3-2.13-8.11-1.29 a 15.75,15.75,0,0,0-4.08,1.42 c -2.55-2.58-4.7-4.53-5.71-5.71.38,2.13.07,15-6.76,27.4-12.7-4.87-22-16.83-27.38-27.46 a 19.74,19.74,0,0,1-5.37,4.88 s 0,.28-.09.77 c -.4.35-.94.64-2.24.1-8.22-3.45-11.69-2.66-11.69-2.66 a 14.7,14.7,0,0,0-8.79,26.48,93.51,93.51,0,0,0,.74,20.13 c 1.75,12.27,5.5,17.39,9.13,24.39 s 4.91,20-2.62,28.16 c -15.58,16.86-20.15,26.76-21.54,36.39,0,.23-.07.47-.1.72,28.55,15.82,63,7.78,77.42-12.36,8.34,9.58,30.69,11,34.08,11.33 A 17.35,17.35,0,0,0,350.71,358.4Z m -17-36.77 a 27.4,27.4,0,0,0,1,3.21 c -.62.42-1.53,1-2.23,1.38 a 19.92,19.92,0,0,1-.6-3.34 A 19.64,19.64,0,0,0,333.74,321.63Z m 1.81,11.58 a 22.55,22.55,0,0,1-2.69-5.68 l 2.41-1.32 a 42.69,42.69,0,0,0,4.24,7.17 c .72,1,1.36,2,2,3 C 340.22,336.7,337.85,336.65,335.55,333.21Z m -37-72.24 a 72.49,72.49,0,0,1,5.39,7.45,83,83,0,0,1,9.81,23.6,51.18,51.18,0,0,0-19.48-23.26 c 1.46-3.88,2.73-6.9,3.06-8.06Z m 24.6-2.93 c .53,15.42-4.51,30.41-6.5,35.65.06-6.23-.2-28.07-6.32-42.29,2.29.84,9.17,3.46,12.78,5.87 C 323.17,257.54,323.18,257.78,323.19,258Z m -7.93,34.66 c -1.17-4.9-3.92-14.91-8.4-22.66 a 57.07,57.07,0,0,0-4.42-6.41,80.93,80.93,0,0,0,6.81-11.77 A 122.93,122.93,0,0,1,315.26,292.71Z m 18.25-32 c -1.25,10.22-8.05,21.72-15.47,33 a 90.91,90.91,0,0,0,6.56-36.58 c .66-.6,1.94-1.8,3.37-3.3 A 87.4,87.4,0,0,1,333.51,260.75Z m -9-5.5 c 0-.3,0-.58,0-.88-.59-13.61-2.87-22.07-4.14-25.83,3.3,3.65,8.84,10.2,12.25,16.71 C 331.46,249.09,326.1,253.91,324.55,255.26Z m -6.91-29.63.34.35 c 2.33,4.29,4.4,14.12,5.1,29.48 a 105.62,105.62,0,0,0-12.77-5.36 C 316.06,241.27,317.64,225.63,317.64,225.63Z m -35.75,0 c 6.14,10.79,14.3,20.78,26.73,25.15-1.74,3.42-5.78,10-7,11.86-4.66-5.83-10.12-11.47-13.29-16.76 A 60.76,60.76,0,0,1,281,226.51,10.08,10.08,0,0,0,281.89,225.63Z m -2.14,1.95 a 57.9,57.9,0,0,0,9.74,22.68 c 2.35,3.19,4.92,5.81,7.7,9-5.07-1.27-9-2.85-18.86-7.7-2.17-13.5.45-23.21.45-23.21Z m 3.15,98.93 a 41.91,41.91,0,0,1-17.94-4.7,23.87,23.87,0,0,0,1.81-3.35,44.19,44.19,0,0,0,17.46,4.43 A 36.13,36.13,0,0,1,282.89,326.5Z m -20.74-1q1.08-1.23,2-2.54 c 6.68,3.77,15,4.89,18,5.18-4,8.15-10.26,11.41-15.59,10.09-6.36-1.57-8.52-5.67-9.13-7.22 C 259.15,328.91,260.79,327,262.15,325.47Z m 18.65,41.65 c -20.34,1.9-33.45-3.14-39.33-6.21 a 49.52,49.52,0,0,1,4.16-13.54,107.24,107.24,0,0,1,10.52-14.86,14,14,0,0,0,8.73,7.19 c 10.17,2.67,17.67-3.17,21.83-18.33-10.69-.42-17.31-3.72-19.24-4.81,1.36-4.11,1.57-8.92-.08-14.85-2.77-9.94-7.63-12.17-10.78-27.58 a 83.89,83.89,0,0,1-1.13-21.29v-.19 l 0-.24,0-.35 c 0-.28,0-.43,0-.43 h 0 l .08-.93 a 12.7,12.7,0,0,1,6.69-23.5 c .37,0,.76,0,1.15.06 l .63.06 h 0 c 4.45.54,10.34,2.69,11.38,2.91 a 1.36,1.36,0,0,0,.49,0 c -.44,5-1,15,.74,22.66 a 84.42,84.42,0,0,0,18.79,7.33 c -.38,1-2.16,5.79-3.38,9.13,11.78,5.43,20.65,22.62,22.92,28.85.14,3.37.58,14.33,1.1,25.48 a 145.07,145.07,0,0,1-.93,24.86 C 310.14,354.54,301.55,365.19,280.8,367.13Z"/>
    <circle cx="320.34" cy="304.46" r="1.78" transform="translate(11.22 620.31) rotate(-89.16)"/>
    <circle cx="321.04" cy="316.71" r="1.78" transform="translate(-0.34 633.08) rotate(-89.16)"/>
    <circle cx="321.01" cy="329.38" r="1.78" transform="translate(-13.03 645.55) rotate(-89.16)"/>
    <circle cx="321.06" cy="341.28" r="1.78" transform="translate(-24.88 657.31) rotate(-89.16)"/>
  </g>
<script type="text/ecmascript" xlink:href="param.min.js"/> 
</svg>
