<?xml version="1.0"?>
<svg xmlns="http://www.w3.org/2000/svg" xmlns:xlink="http://www.w3.org/1999/xlink" viewBox="0 0 600 600">
  <title>one-piece-swimsuit-curvy</title>
  <g id="skin-tone">
    <g id="skin-tone-2" data-name="skin-tone">
      <path d="M 335.15,324 c -2.5-7.75-1.58-17.67-.5-22.83,1-4.74,2.48-8.44,4.52-14.1 a 23.08,23.08,0,0,0,5-3.24,20.23,20.23,0,0,0,7.5-18.17 c -.67-6.23-5-11.66-10.74-16.48 l -.92-.91-.12-1 a 12.1,12.1,0,0,0-6.08-19.09v-.44 h 0 c -4-2.33-11.4.46-11.4.46 s -.46,1.38-5.08-1.87-4-10.37-4-14.87 a 46.89,46.89,0,0,0-.13-4.74,72.37,72.37,0,0,1-27,0,5.78,5.78,0,0,0-.08.91 c 0,3.5,1.5,4.75-1.75,12 a 20.53,20.53,0,0,1-8.75,9.88,54.44,54.44,0,0,0-11-3.12,13.69,13.69,0,0,0-13.87,6.13 c -4.62,8.75-.12,15.63,3.88,18.5-2.75,22.25,4.63,35.5,7.25,40.25 s 4.63,8.5,5.5,15.13 c 1,9-3.42,15.45-8.78,22.61-1.74,2.32-3.57,4.7-5.34,7.27 C 246,346.79,243,357.67,243,362.92 c 0,3.31-.47,6.27.28,9.22,0,.25.17,2.09.17,2.33,0,18.14,15,32.33,33.17,32.33,8.84,0,16.93-3,22.83-8.67.31.17.91-1.09,1.22-.93 A 32.85,32.85,0,0,0,348.44,368 c .14-1.85-.16-12.64-.46-14.4 h 0 c 0-2.48-2.06-8.6-4.73-13.52-1.91-3.52-3.95-6.24-5.87-10.34Z" fill="#f9d9c7"/>
    </g>
  </g>
  <g id="main-colour">
    <path d="M 254.89,265.13 s 12.62-.25,17.25-8.12,6.75-20,3.75-28.12 a 52.55,52.55,0,0,0,4.75-3 s 1.63,14.63,13.5,22.88,23.5,6.5,27.5,3.5,5.38-12.62.88-24.12 a 8.38,8.38,0,0,1,4-1.12 s 1.88,9,6,14.13,12.25,10,16.25,16.5,6.38,19.5-9.75,29.75 c -2.75,8.88-5,13.75-5.25,23.63 s 1.5,15.25,4.63,19 a 41.33,41.33,0,0,1,5.25,8.63,23.15,23.15,0,0,0-15.75,8.63 c -6.62,8.25-5.12,17.13-8.62,25.25 s -7.25,9.25-9.62,9.25 a 33.82,33.82,0,0,0-3.87-26.25 c -5-8-10.62-13.62-24-16.5 s -26.12,2-34.25,8.63 C 251.14,337.75,259,329,262.89,323 s 5.88-12,4.38-18.87-4.62-11-5.87-13.25-5.5-13.5-6.37-19.62Z" fill="param(main_colour)"/>
  </g>
  <g id="outline">
    <path d="M 294.05,295.38 a 31.9,31.9,0,0,1-11.43-4.1 c -5.28-3.41-8.24-7.65-10.74-14.34 A 20,20,0,0,0,294.05,295.38Z"/>
    <path d="M 275.08,228.47 a 38.9,38.9,0,0,1-1.66,24.22 c -5.7,13.57-19.94,11.19-19.94,11.19 l .19,2 s 15.75,1.69,21.44-12.62 a 40.43,40.43,0,0,0,1.63-25.75Z"/>
    <path d="M 279.25,225.5 s 3,8.72,4.14,11.21 c 5.42,11.67,17.75,19.92,31,18.67,14.35-1.35,13.64-14,8.55-28.17 l -1.42.75 s 5.94,12.1,1.78,20.83 c -3.42,7.17-17.33,7.08-28.17-.25 s -12.56-18.83-14.39-24.67 A 7.19,7.19,0,0,1,279.25,225.5Z"/>
    <path d="M 275.08,228.47 s 4.37-2.58,5.66-4.6 a 20.28,20.28,0,0,1,.61,2.38,30,30,0,0,1-5.87,4.06 A 9.45,9.45,0,0,0,275.08,228.47Z"/>
    <path d="M 321.52,228 a 10.33,10.33,0,0,1,5.5-1.75,1.19,1.19,0,0,0,.26,1.25 s -3.36.45-5.15,1.87 A 8.12,8.12,0,0,0,321.52,228Z"/>
    <path d="M 337.93,247.5 a 36.69,36.69,0,0,1-8.12-9.62,55.72,55.72,0,0,1-3.89-11.44 l 1.11-.23 a 43.28,43.28,0,0,0,3.78,11.21,23.68,23.68,0,0,0,7.38,8.67 c 1.63,1.29,7.21,5,9.38,7.79 s 6.83,9.5,4.83,18.58 a 22.43,22.43,0,0,1-11.75,15.25,15.84,15.84,0,0,1-7.42,1 s 6.46-1.12,10.54-5,7.23-11,7.13-16.12 a 20.27,20.27,0,0,0-7.33-15.08 C 339.22,248.71,338.72,248.21,337.93,247.5Z"/>
    <path d="M 334.54,311.63 c .19-9.31,1.13-11.62,3.06-17.5.77-2.33,1.71-4.93,2.63-7.54 a 14.28,14.28,0,0,1-2,.86 c -.82,2.25-1.67,4.37-2.49,7-1.94,6.19-3.19,11-3,19.5 s 1.81,12.38,4.38,16.44,4.31,6.75,4.56,7.44 c -5.75.5-12.31,5.5-15.37,9.88 s -4.62,11.69-6,17.63-3.63,14.75-9.5,15.53 c 1.57-8.34,1.5-16.53-4.31-26 S 294.61,341.75,284.67,339 s -24.87-2.81-35.56,6.38 a 130.24,130.24,0,0,1,11.38-17.75 c 3.94-5.25,8.06-10.81,8-17.69 s -2.37-13.19-6.12-19.5-6.56-16.56-6.81-25.31 l -2.06-1.25 a 61.63,61.63,0,0,0,4.21,21 c 4.33,11,6.29,9.88,8.67,20.25 s -5.5,18.88-6.75,20.38-11,12.5-14.87,26 c 12.25-13.62,30.75-14.12,42.38-10.12 a 34,34,0,0,1,21.5,22.17 c 3,9.25-.17,19.17-.17,19.17 s 5.36.73,9.14-5.26,5.11-18.33,9.11-26.41,14.92-11.83,18.58-11.5 c -2-4.75-4.42-7.85-6-10.48 A 30.37,30.37,0,0,1,334.54,311.63Z"/>
    <path d="M 280.86,226.93 c 3.13-3.12,6.75-9.13,6.21-20.07 l -1.9-.35v1.22 s 1.2,9.78-5,16.76Z"/>
    <path d="M 253.58,251.7 a 93.5,93.5,0,0,0,0,13.05 h 1.9 a 83.89,83.89,0,0,1,0-11.89v-1.21 l .08-.93 a 12.7,12.7,0,0,1,6.69-23.5,8.47,8.47,0,0,1,1.32.07,39.48,39.48,0,0,1,6.89,1.43 l .87.26 h .08 c 1.72.55,3.43,1.15,5.06,1.72 l -.44-2.8 c -.32.2-.65.39-1,.57 a 42.52,42.52,0,0,0-10.9-3.13 l -.61-.07 a 11,11,0,0,0-1.2-.06,14.7,14.7,0,0,0-8.76,26.49Z"/>
    <path d="M 282.53,232.59 a 25.38,25.38,0,0,0,11.1.61 c -2.6.23-6.6-.51-11.58-2.13Z"/>
    <path d="M 308.75,381.12 A 32.85,32.85,0,0,1,244.07,373 s 0-1.47.06-3.58 c .22-5.18,1.12-15,4.73-23.29-1,.73-2,1.47-2.9,2.15-3.24,8.63-3.82,16.46-3.89,24.72 a 34.84,34.84,0,0,0,68.22,10 c 2-.54,5.94-2.68,7.29-5.48 a 13.24,13.24,0,0,1-6.73,3.36 C 310.38,380.95,309.62,381.06,308.75,381.12Z"/>
    <path d="M 326.55,226.37 l .26,1.36 a 15.49,15.49,0,0,1,7,0 A 11.16,11.16,0,0,0,326.55,226.37Z"/>
    <path d="M 344.65,338.55 l -2.41.38 c 5,10,5.13,18.4,6.15,23.83 C 348.67,358.07,349.92,349.88,344.65,338.55Z"/>
    <path d="M 322.44,227.51 c -.32.14-.63.29-.94.44-2.12-.86-4.65-3.36-6.18-6.85-1.66-3.79-1.05-11.33-1.06-14.57q-1,.21-2.08.38 c -.09,2.67-.51,7.43.47,11.73,1.32,6.69,5,9.35,6.89,10.3-3.55,1.89-7.24,4.11-10.6,4,5.38.53,8.35-1.24,11.13-2.34.85-.34,1.79-.88,2.89-1.43Z"/>
    <path d="M 315.46,254.64 c .53-.1,1.08-.21,1.62-.34 a 28.16,28.16,0,0,0-9.87-7.45 A 30.2,30.2,0,0,1,315.46,254.64Z"/>
  </g>
<script type="text/ecmascript" xlink:href="param.min.js"/> 
</svg>
