<?xml version="1.0"?>
<svg xmlns="http://www.w3.org/2000/svg" xmlns:xlink="http://www.w3.org/1999/xlink" viewBox="0 0 600 600">
  <title>voluptuous-top-template</title>
  <g id="main-colour">
    <path d="M 245.84,264.88 a 95.19,95.19,0,0,0,19.5-3.67 c 10.67-3.17,31.19-10.08,46.19,2.25,9.75-7.58,21-12.08,31-12.58 a 26.09,26.09,0,0,1,4.83,18.83 c -1,5.67-7.28,21.92-6.11,28.42 s 5.11,9.25,7.95,13.42,17.67,25,25.5,38.33,30.5,59.83,35.17,95.17 c -3.33,9.67-15.5,16-20.33,13.83 s -19.67-4.17-29.83,7.67 c -1.5,2.67-6.83,11.5-23.17,14 s -27.67-4.67-27.67-4.67 l .67-2.33 s -7.83-8.5-22.67-1.83 c -7,4.83-21.67,9.5-41-1.5-1.67-4.67-4.67-11-13.5-14 s -20.17-.83-20.17-.83-16.5,4.67-25.67-14.17 a 14,14,0,0,0,.5-4.5,16.12,16.12,0,0,0-14-5.17 c 4.5-18.17,15.67-41.5,27.5-59.67 s 36.14-47.25,42.14-55.75,11.2-13.92,8.86-24.08 S 245.34,274.71,245.84,264.88Z" fill="param(main_colour)"/>
  </g>
  <g id="fixed-colours">
    <path d="M 178.59,431.88 s 2.75,1,7.75-10,22.5-46.25,33.5-57.5 c -13,21.5-27.75,52.5-32,72.5 A 19.29,19.29,0,0,0,178.59,431.88Z" opacity="0.15"/>
    <path d="M 231.34,386.88 s -8.5,31.75-9.5,44.75-1.5,19.75,3.5,22 c -4.25.25-13.17,1.75-13.17,1.75 s 1.17-17.75,8.92-42.25Z" opacity="0.15"/>
    <path d="M 232.59,455.38 s 6.25-3.25,7.5-13.75,4.25-41,18.5-63.25 c -6.25,16.75-10,37-11.25,49.75 s -2,38.25-2,38.25 S 237.84,455.63,232.59,455.38Z" opacity="0.15"/>
    <path d="M 280.84,405.63 s 2.25,40.25,7,50.75,7.5,12,7.5,12 l -8.5,3.33 S 275.09,436.88,280.84,405.63Z" opacity="0.15"/>
    <path d="M 300.59,468.88 s 6-2.75,10.25-24.75,7.75-54.5,7.75-54.5,3.83,38.08-9.08,83.92 C 306.34,469.88,300.59,468.88,300.59,468.88Z" opacity="0.15"/>
    <path d="M 353.34,398.63 s 9.17,30.25,10.5,42 c 1.36,11.95,3.5,17.75,6.75,18 a 27.4,27.4,0,0,0-10.92,7.92 s -2.58-38.67-3.83-49.17Z" opacity="0.15"/>
    <path d="M 380.34,400.38 s 5.75,43.75,3.25,50-5.5,6.75-5.5,6.75,7.58.25,11.42,1.75 C 390.09,447.13,384.84,417.38,380.34,400.38Z" opacity="0.15"/>
  </g>
  <g id="outline">
    <path d="M 375.89,349.88 A 320.27,320.27,0,0,0,346,305.71 c -5.16-6.69-5.56-8.83,0-27 a 26.88,26.88,0,0,0,2.84-6.83,18.12,18.12,0,0,0,.55-3.76 c .34-3.39-.34-6.86-2.14-11.25 a 24,24,0,0,0-3.2-5.5 h 0 l -.22-.25 c -.64-.8-1.08-1.25-1.08-1.25 A 63,63,0,0,0,311.12,262 c -10.15-9.16-26.22-7.5-43.22-2.67-14.09,4-23.17,4.33-23.17,4.33-1.33,12.33,5.17,22.83,6.17,31.17 s -3,11.67-9.5,21.33-23.33,26.67-39.67,51.33-27.33,50.17-30.17,65.17 c 7.84-.58,12,2.77,13.74,4.82-.24,1.12-.47,2.24-.66,3.35,3.75,12.25,17.25,18,28.5,17,.07-.55.15-1.1.22-1.65,5.54-1.13,23-3.3,30.51,12q.12,1.43.28,2.86 c 18,9.75,31,9.25,44.5,2.5-.12-.41-.24-.84-.37-1.27,3.32-1.4,13.21-4.74,19.51,2-.4,1.6-.64,2.5-.64,2.5 s 32.5,17.25,53.5-8 c 0-.77,0-1.54,0-2.31,3.13-3,13.21-11.05,27.4-6.62,0,.48,0,1,.06,1.43,12,1,21.25-8.5,23.25-16.25 C 404.64,405.13,388.39,372.38,375.89,349.88Z m -125.67-66 A 49.57,49.57,0,0,1,247.06,266 c 12.5-1.17,46.39-17.67,64.56-1.17,8-7.88,24.62-11.9,30.41-13.1,2.34,3,4,8.2,4.59,13.73,0,.27.06.52.09.78 a 24.18,24.18,0,0,1-2.56,11.49 l 0,.09 c -.74,1.82-1.36,3.84-2.06,5.85 h 0 c -1.75,4.36-4.72,14.15.36,20.92.88,1.17,1.92,2.59,3.07,4.2-7.27,4.73-22.26,11.27-51.32,10.3-26.07-.87-41.18-8.91-44.7-11,.51-.78.94-1.49,1.28-2.08 C 255.23,298,251.89,288.54,250.23,283.88Z m 140.67,174.5 c 0-28.75-12.8-77.53-24.65-93,0,0,18.67,37.08,21.69,91.75-4.22-1.3-16.89-3.93-27.24,7.08.12-42.31-10.86-88.91-19.06-104.58 a 353.33,353.33,0,0,1,16.25,107.5 c -9.75,12.5-26.75,15.25-47,8.25,11-39.5,12.75-100,2.25-132 a 312.37,312.37,0,0,1,3,85.5 c -1.43,15.5-5.39,33.29-7.55,42.23-3-2.08-10.77-6.18-20.93-1-6.77-25-11.58-68.9,2.73-113.27-12.5,28.25-16.75,83.25-5.5,114.75-9.5,7.25-32.75,1.75-37.5-2.25-.5-26-1-62.5,26.5-130.75,0,0-33.25,63.55-30.41,123.9-3.27-4.26-12.47-13.14-29.85-8.4,4.27-32,13.86-60.65,29.26-90.25-17.5,24.5-30.25,67.75-32.25,90.25-11.5,1.5-19.5-6.75-22.25-12.5,6.75-33,27.75-69.5,46-99,0,0-38,50.08-48.3,91.5-2.24-1.76-6.76-4.72-11.37-4.25,7.67-29.67,32.17-66.5,41.67-78.67,7.89-10.11,24.79-31,31.92-41.38,13.16,9.71,40.87,13,63.58,11.3,19.45-1.46,31.54-8.17,35-10.33,7.3,10.3,18.43,26.93,27.52,42.08,11.25,18.75,27.25,55.25,34,91.5 C 406.14,454.13,394.39,458.13,390.89,458.38Z"/>
    <path d="M 308.13,278.25 c -7.37,12.75-24.45,9.9-23.74,10.12 C 296.5,292.13,305.5,287.13,308.13,278.25Z"/>
  </g>
<script type="text/ecmascript" xlink:href="param.min.js"/> 
</svg>
