<?xml version="1.0"?>
<svg xmlns="http://www.w3.org/2000/svg" xmlns:xlink="http://www.w3.org/1999/xlink" viewBox="0 0 150 150">
  <title>bare-feet</title>
  <g id="skin-tone">
    <path d="M 68,84 a 11,11,0,0,0,1.93-7.19 c -.06-1.6-.25-6.1,2.69-6.72 s 6.75-.94,7.94,4-1,6.52,3.3,14.44,9.15,9.8,11,10.81,2.16,5.12.43,6.2 a 3.22,3.22,0,0,1-3.1.36 s -1.08,2.63-4.25,1.44 c -1.22,1.15-2.23,2.09-4.25.79-1.95,1.3-3.75.72-4.11.14 A 2.75,2.75,0,0,1,75.26,106 c -1.73-1.22-3.17-2.69-3.28-5.08-.18-3.72-1.05-4.69-3.5-5.55 S 62.89,90.69,68,84Z" fill="param(skin_tone)"/>
  </g>
  <g id="fixed-colours">
    <path d="M 93,103.42 a 2.32,2.32,0,0,1,.89-2.28,1.47,1.47,0,0,1,2.19,1.3 A 5.16,5.16,0,0,0,93,103.42Z" fill="#fff"/>
    <path d="M 88.85,104.93 a 1.48,1.48,0,0,1,.94-1.61,1.28,1.28,0,0,1,1.66,1 A 4.63,4.63,0,0,0,88.85,104.93Z" fill="#fff"/>
    <path d="M 84.77,106 s .24-1.18,1.3-1.27 a 1.14,1.14,0,0,1,1.34,1 A 7.69,7.69,0,0,0,84.77,106Z" fill="#fff"/>
    <path d="M 80.83,106.08 s .24-.94,1.08-.91 a 1.12,1.12,0,0,1,1.15,1 A 5.19,5.19,0,0,0,80.83,106.08Z" fill="#fff"/>
    <path d="M 77,105.89 a 1.45,1.45,0,0,1,1.25-.72 c .82,0,1.06,1,1.06,1 A 2.83,2.83,0,0,0,77,105.89Z" fill="#fff"/>
  </g>
  <g id="outline">
    <path d="M 94,98.06 c -2.59-1-8.77-6.12-10.93-12-2-5.35-1.42-7.61-1.33-10.57 h 0 a 6.77,6.77,0,0,0,0-.87 s 0,0,0-.07 h 0 a 6.76,6.76,0,0,0-6.27-6.25 h 0 a 6.76,6.76,0,0,0-7.19,6.29 c 0,.15,0,.3.07.45 h -.08 c -.09,3,1.27,4.52,0,7.11 s -5.43,6.2-3.56,10.67,5.68,2.28,5.81,6.08 c .17,4.86,2.84,7.34,4.14,7.85.72,1.8,2.59,4,4.9,2.38 a 3.23,3.23,0,0,0,4.11-.14,2.78,2.78,0,0,0,4.18-.72,3.16,3.16,0,0,0,4.61-1.51 c 3.1.79,4.76-1.66,4.9-3.67 A 4.7,4.7,0,0,0,94,98.06Z m 1.39,6 a 2.21,2.21,0,0,1-2.79,1.14,3.06,3.06,0,0,0-.91-2.94 c -1.48-1.15-2.63-1.77-3.42-3.46 A 5.64,5.64,0,0,0,90.5,102 c 1.84,1.26,1.6,2.37,1.43,3 a 3,3,0,0,1-3.56,1.82,4.55,4.55,0,0,0-.57-3.17 c -1-1.37-1.73-1.51-2.56-3.93 a 5.72,5.72,0,0,0,1.08,2.88 c 1,1.19,2,2.51,1.38,4-.29,1.38-2.34,1.63-3.65.94.82-1.73-.24-3.21-1-4.12 a 7.2,7.2,0,0,1-1.69-3.24,5.77,5.77,0,0,0,1.15,3.31,6.81,6.81,0,0,1,1.22,2.38,2,2,0,0,1-.2,1.31,2.26,2.26,0,0,1-3.46.42,3.12,3.12,0,0,0-.16-3.06 c -.76-1.19-1.51-1.77-1.84-3.21 a 6,6,0,0,0,.83,2.59 c .76,1.19,1.34,2.08.78,3.25 a 2,2,0,0,1-3.41,0 c -.72-1.35,0-2.88-1.78-4.28 a 3.66,3.66,0,0,1,.51,1.83,5.36,5.36,0,0,1-2.19-3.53 c -.38-2.4.45-5.27-2.53-6.28 s -4.83-2.41-4-6.12 c 1-4.32,4.87-4.74,4.39-10.14-.12-1.3-.4-3.86-.4-3.86 a 4.75,4.75,0,0,1,5.05-4.42 h 0 a 4.74,4.74,0,0,1,4.41,4.86 c -.08.78-.77,6.59,1,11,1.84,4.69,4.08,8.23,8,10.73,3.25,2.1,5,2.67,5.87,3.29 a 3.25,3.25,0,0,1,.82.79,1.63,1.63,0,0,0-1.45,0,2,2,0,0,0-1,2.85,4.42,4.42,0,0,1,2.86-1.08 A 4.33,4.33,0,0,1,95.38,104Z m -2.26-1 a 1.61,1.61,0,0,1,.83-1.77,1.65,1.65,0,0,1,1.73.41,2.54,2.54,0,0,1,.09.63 A 4,4,0,0,0,93.13,103Z"/>
    <path d="M 91.69,104.48 a 1.43,1.43,0,0,0-1.95-1.26,1.39,1.39,0,0,0-1,2 A 3.71,3.71,0,0,1,91.69,104.48Z m -1.8-1 a 1.12,1.12,0,0,1,1.37.65,3.91,3.91,0,0,0-2.27.54 A 1.16,1.16,0,0,1,89.88,103.5Z"/>
    <path d="M 84.7,106.17 a 5.62,5.62,0,0,1,2.88-.29,1.36,1.36,0,0,0-1.55-1.4 A 1.47,1.47,0,0,0,84.7,106.17Z m 1.37-1.33 a 1,1,0,0,1,1.15.72,4.53,4.53,0,0,0-2.31.22 A 1.58,1.58,0,0,1,86.07,104.84Z"/>
    <path d="M 80.66,106.28 a 7.16,7.16,0,0,1,2.56.11 A 1.25,1.25,0,0,0,82,105,1.31,1.31,0,0,0,80.66,106.28Z m 1.26-1 a 1,1,0,0,1,1,.72 A 4.29,4.29,0,0,0,81,106,1,1,0,0,1,81.92,105.3Z"/>
    <path d="M 76.73,106.06 a 4.3,4.3,0,0,1,2.7.29 A 1.29,1.29,0,0,0,78.07,105 C 77.17,105,76.73,106.06,76.73,106.06Z m 2.34-.14 a 4.41,4.41,0,0,0-1.87-.22 A 1.14,1.14,0,0,1,79.08,105.92Z"/>
  </g>
<script type="text/ecmascript" xlink:href="param.min.js"/> 
</svg>
