<?xml version="1.0"?>
<svg xmlns="http://www.w3.org/2000/svg" xmlns:xlink="http://www.w3.org/1999/xlink" viewBox="0 0 600 600">
  <title>city-classic-top-curvy</title>
  <g id="main-colour">
    <path d="M 346.65,248 a 30.14,30.14,0,0,0-5-2.8,12.57,12.57,0,0,0,1.16-5.27,12.71,12.71,0,0,0-9-12.16 h 0 c -4-2.33-12.07,1.18-12.07,1.18 s -1.69-1.5-4.75-4.75 c -.23-.25,0,.62.09,1.52.52,6.58,1.67,10.08-1.42,19-20.67-5.08-30.1-14-33.57-21.21 a 19.23,19.23,0,0,1-6.52,6,54.44,54.44,0,0,0-11-3.12,13.69,13.69,0,0,0-13.87,6.13 c -4.62,8.75-.12,15.63,3.88,18.5-2.75,22.25,4.62,35.5,7.25,40.25 s 4.63,8.5,5.5,15.13 c 1.38,11.88-6.84,18.9-16.21,30.78-7,8.81-10.38,18.38-11.1,24.12 A 69,69,0,0,0,262.44,368 c 16.08,2.25,44.75-.72,58.84-20.13,7.58,7.58,17,10.61,28.41,11.65 l -.08-5.43 c 0-2.48-3.58-11.08-6.25-16 s -5.42-8.6-7.62-14 c -3.08-7.54-2.16-17.82-1.08-23 a 67.14,67.14,0,0,1,2.79-9.33 c 8.61-1.38,18-7.15,19.58-20.56 C 358.78,256.38,349.4,250,346.65,248Z" fill="param(main_colour)"/>
  </g>
  <g id="accent-colour-1">
    <path d="M 281.9,224.13 s 8.33,15.25,33.75,20.58 c 2.75-8.08,2.33-17.33,1-20.92 a 46.93,46.93,0,0,1,12.75,17.08,40.59,40.59,0,0,1,2.5,25.42,94.87,94.87,0,0,1-11.42,28.92 c -.42-1-1-1.42-.92-6 s -.25-18-8.58-28.58-12.33-8.33-21.58-18.5-9.08-16.33-9.08-16.33Z" fill="param(accent_colour_1)"/>
  </g>
  <g id="accent-colour-2">
    <path d="M 266.23,317 s 7.38,4.75,19.13,5 c -1.75,7.88-7.75,17-16,17.25 s -12.87-6.37-12.87-8.87 a 95.93,95.93,0,0,0,7.74-9Z" fill="param(accent_colour_2)"/>
    <path d="M 334.36,320.13 a 47.64,47.64,0,0,0,4.5,10.13 c 2.63,4,4.13,6.25,4.13,6.25 s -3.87,2.5-7.37-2.12 S 331,322.5,331,322.5Z" fill="param(accent_colour_2)"/>
    <path d="M 277.64,229.5 l 2.59-2.79 a 42.91,42.91,0,0,0,9.58,15.75 c 6.92,7,15,11.25,19.92,16.75 s 8.75,14.92,9.67,23 a 88.71,88.71,0,0,1,.49,14.42,54.27,54.27,0,0,1-2.82-5.83 c -2.33-5.17-9.67-19.08-19.5-24.25 a 19.83,19.83,0,0,1,5.17-7.75 s -15.08-2.67-22.83-7Z" fill="param(accent_colour_2)"/>
    <path d="M 321.82,228 s 12,5.92,16.5,16.33 c -1.83,4.42-3.92,8.33-3.92,8.33 L 340,261 s -1.08,14.08-18.83,34.08 c 9.08-18.17,10.58-25.83,11.25-30.83 s .5-14-2-21.17 A 43.42,43.42,0,0,0,323,230.38Z" fill="param(accent_colour_2)"/>
  </g>
  <g id="outline">
    <circle cx="325.53" cy="253" r="1"/>
    <circle cx="327.78" cy="259" r="1"/>
    <circle cx="328.78" cy="265.13" r="1"/>
    <circle cx="328.65" cy="271" r="1"/>
    <circle cx="322.76" cy="308.64" r="1.78"/>
    <circle cx="322.64" cy="320.39" r="1.78"/>
    <circle cx="323.26" cy="330.89" r="1.78"/>
    <circle cx="324.64" cy="341.76" r="1.78"/>
    <path d="M 278.4,289.75 s 8.38,13.5,26.38,6.88 A 35.88,35.88,0,0,1,278.4,289.75Z"/>
    <path d="M 345.92,246.52 c -2.49-1.22-5.1-2.69-7.52-4.12-3.09-5.54-8.89-10.24-13.92-13.93 a 15,15,0,0,1,9.32-.71 s -3-2.13-8.11-1.29 a 13,13,0,0,0-2.78.85 c -3.56-2.57-6.5-4.57-7.4-5.95.38,2.13,3.64,8.63-.24,22.63-15.25-4-28.14-11.25-33.51-21.87 a 19.68,19.68,0,0,1-5.14,5.5 c -.7.42-1.16,1-2,.66-8.24-3.42-12.24-3.08-12.24-3.08 h 0 a 14.7,14.7,0,0,0-8.79,26.48,93.51,93.51,0,0,0,.74,20.13 c 1.75,12.27,5.5,17.39,9.12,24.39 s 4.91,20-2.62,28.16 c -15.58,16.86-20.15,26.76-21.54,36.39,0,.23-.07.47-.1.72,28.55,15.82,67.72,7.28,82.15-12.86,8.34,9.58,26,11.54,29.36,11.83 a 17.36,17.36,0,0,0,0-2.06 h 0 c -.12-6-1.85-15-10.8-28.18-3.57-6.17-7-11.63-4.71-27.38 a 60.71,60.71,0,0,1,2.79-10,17.93,17.93,0,0,0,4.15-1 c 4.38-1.62,14.89-7.68,16.27-20.81 S 352.78,249.88,345.92,246.52Z m -8.27-2.26 a 39.62,39.62,0,0,1-4.33,8.67,40.93,40.93,0,0,0-10.55-23.66 l .17-.08 C 327.73,232.66,334.52,238.29,337.65,244.25Z m -27.93,16.16 a 31.44,31.44,0,0,1,5.55,8.59 c 4.21,9.68,3.73,18,4.06,25.71 l -.07.16.09.24 h 0 c -4.61-12.76-11.33-22.5-20.71-28.75 a 19,19,0,0,1,4.42-6.81 C 306.06,260,308.44,260.29,309.72,260.41Z M 329.65,243 A 45,45,0,0,1,332,255.5 c .71,13.54-5.6,27.75-9.35,34.91,3.57-9.29,9.71-31-4.19-44.21,3,1,8.47,3,11.34,5.09 A 23.5,23.5,0,0,0,329.65,243Z m -13.47,2.84 c 3.89,3.07,16.94,16.25,4,46.92.2-4.55.21-14.81-3-22.28 a 40.59,40.59,0,0,0-6.41-11.23 C 313.51,254.91,315.7,247.55,316.17,245.87Z M 333.5,255 l .77-1.21 c 1.24,1.74,4.4,6.2,5,7.3-1.18,9.69-8.59,19.84-15.89,30.37 C 328.14,282.11,334.32,268.87,333.5,255Z m -15.87-29.41 s .49.29,1.3.82 a 47.52,47.52,0,0,1,6.24,7.53 c 4.56,9,3.47,15.23,3.47,15.23 a 55.88,55.88,0,0,0-12.25-4.94 C 319.89,235.18,317.64,225.63,317.64,225.63Z m -35.75,0 c 6.67,11.4,23.13,17.16,33,19.88 a 71.55,71.55,0,0,1-5,12.78 c -5.4-6-11.57-8.4-17.62-14.29 a 45.17,45.17,0,0,1-11.12-17.57 C 281.47,226.09,281.74,225.8,281.89,225.63Z m -2,2.18 c 2.28,9,11.73,18.29,16.93,22.19,3.26,2.44,7.55,5,11.45,8.85-7-.95-16.32-2.27-27.34-7.72 a 145.06,145.06,0,0,1-2.49-21.83Z m 3,98.69 a 41.91,41.91,0,0,1-17.94-4.7,23.86,23.86,0,0,0,1.81-3.35,44.19,44.19,0,0,0,17.46,4.43 A 36.11,36.11,0,0,1,282.89,326.5Z m -20.74-1q1.08-1.23,2-2.54 c 6.68,3.77,15,4.89,18,5.18-4,8.15-10.26,11.41-15.59,10.09-6.36-1.57-8.52-5.67-9.13-7.22 C 259.15,328.91,260.79,327,262.15,325.47Z m 18.65,41.65 c -20.34,1.9-33.45-3.14-39.33-6.21 a 49.52,49.52,0,0,1,4.16-13.54,107.25,107.25,0,0,1,10.52-14.86,14,14,0,0,0,8.73,7.19 c 10.17,2.67,17.67-3.17,21.83-18.33-10.69-.42-17.31-3.72-19.24-4.81,1.36-4.11,1.57-8.92-.08-14.85-2.77-9.94-7.63-12.17-10.77-27.58 a 83.87,83.87,0,0,1-1.13-21.27 l 0-.24v-.17 l 0-.4 c 0-.27,0-.42,0-.42 h 0 l .08-.93 a 12.7,12.7,0,0,1,6.69-23.5 h 0 c .43,0,.87,0,1.32.07 a 39.48,39.48,0,0,1,6.89,1.43 l .88.26.07,0 c 1.65.52,3.29,1.09,4.86,1.65 A 144.64,144.64,0,0,0,279,252.38 c 6.8,3.71,15.72,5.79,22.37,6.92 a 30.35,30.35,0,0,0-4.87,7.7 c 11.52,5.31,20.08,23.38,22.55,30.22-.51,3-2.68,16.91-1.38,28.74,1.23,11.27,2.61,19.13,3,21.29 A 61.3,61.3,0,0,1,280.8,367.13Z m 60.68-30.73 c -1.26.31-3.63.26-5.93-3.18 a 22.55,22.55,0,0,1-2.69-5.68 l 2.41-1.32 a 42.7,42.7,0,0,0,4.24,7.17 C 340.23,334.42,340.87,335.42,341.48,336.39Z m -9.59-13.52 a 19.65,19.65,0,0,0,1.86-1.25,27.39,27.39,0,0,0,1,3.21 c -.62.42-1.53,1-2.23,1.38 A 19.9,19.9,0,0,1,331.89,322.88Z M 350.63,283 a 22.91,22.91,0,0,1-13.72,8.16 c -.1.26-.19.53-.29.8 h 0 l -.1.29-.23.66 h 0 a 58.85,58.85,0,0,0-3.49,16,49.5,49.5,0,0,0,.52,10.71 c -.93.8-2.39,1.92-3.45,2,1.3,8.27,5.59,18.27,12.43,16 a 43.64,43.64,0,0,1,6.63,20.61 c -6.26-.4-20-3.44-27.08-11.06 a 231.42,231.42,0,0,1-3-26.16 A 137.69,137.69,0,0,1,320.44,298 c 6.18-7.38,18.18-20.89,20.33-37.15 a 73,73,0,0,0-5.88-8,50.48,50.48,0,0,0,4.27-8.4 c 1.09.69,2.15,1.32,3.1,1.83,5.21,2.8,11.13,8.07,12.83,14.58 C 357.09,268.52,356.38,275.52,350.63,283Z"/>
  </g>
<script type="text/ecmascript" xlink:href="param.min.js"/> 
</svg>
