<?xml version="1.0"?>
<svg xmlns="http://www.w3.org/2000/svg" xmlns:xlink="http://www.w3.org/1999/xlink" viewBox="0 0 600 600">
  <title>police-shirt-hourglass</title>
  <g id="main-colour">
    <path d="M 333.23,290.1 l 1-6.84 a 23.59,23.59,0,0,0,6.91-20 c -1-6.87-8.4-15.14-8.4-15.14 a 12.06,12.06,0,0,0,1.55-1.73 h 0q.27-.36.51-.74 l 0,0 c .15-.24.29-.48.42-.73 l .1-.2 c .12-.23.24-.47.34-.71 l .07-.18 a 11.91,11.91,0,0,0,.41-1.17 c .06-.2.12-.41.17-.61 s .07-.31.1-.46.09-.49.12-.74,0-.26,0-.39 c 0-.38.06-.77.06-1.17 h 0 a 12,12,0,0,0-16-11.31 c -.21,0-.39-.11-.59-.16 a 15.87,15.87,0,0,0-3-7.05 A 12.58,12.58,0,0,0,310,216 l -1.58-.25 s 1.58,6.75,6.17,9 l .68,1.67 c 1.17,4.5.26,14.15-5.92,20.08-13.75-5.25-22-12.9-25.68-21,2.32-1.15,5.1-5.41,6.33-8.87-9.83.42-11.58,9.67-11.58,9.67 l .42,1.36 c -1.17.47-2.37.9-3.64,1.27-5.33-2.17-11.92-4-16.83-1.17 s -7.33,8-6.42,14 S 257.88,251,263,252.18 c -.08,8.08,1.5,22.33,4.83,29.25 s 9.33,14.42,11.92,17.92,4.42,9.42,2.92,18.08 c -1,5.67-5.77,11.65-10.18,16.25,2.93,2.58,8.36,5.75,18.16,7.37,15.66,2.59,27.47-1,33.42-5.48-3.53-5.21-4.45-8.22-4.06-13.13.42-5.25,4.92-13.67,8.5-19.67Z" fill="param(main_colour)"/>
  </g>
  <g id="accent-colour-1">
    <path d="M 272.53,333.68 s 10.73,10.82,36.73,7.7 c 7.75-.87,14.85-5.82,14.85-5.82 A 176.19,176.19,0,0,1,334.26,351 c 4.25,7.5,10.88,25.38,12.75,43.13 s 1.5,39.75,1.5,39.75 a 48.54,48.54,0,0,1-23.62,15 c -15.12,4.13-32,2-42.75-.87 s -21-5-25.37-2.25 c 0-9.12-2.37-17.62-4-25.25 s -4.12-18.5-4-34.5,3.5-27,8.25-35.37 S 272.53,333.68,272.53,333.68Z" fill="param(accent_colour_1)"/>
  </g>
  <g id="fixed-colours">
    <circle cx="309.42" cy="345.48" r="2.04" fill="#ffcc50"/>
    <path d="M 309.62,247.38 A 48.62,48.62,0,0,1,325.5,270 c -1.25,6.63-6.1,18.32-8.93,21.22 a 68.28,68.28,0,0,1-12.7-17 c .5-7.5,4-22.25,4-22.25Z" fill="#fff"/>
  </g>
  <g id="outline">
    <path d="M 316.37,259.43 s -.7-1.93-1.52-4.23 a 19.63,19.63,0,0,0-4.11,1.16 l .86,4.1 C 313.54,259.94,316.37,259.43,316.37,259.43Z"/>
    <path d="M 312.65,264.21 c -.58-2.41-1-3.74-1-3.74 s -2.54.7-4,1.16 c .64,2.42.92,4,.92,4 S 311.2,264.19,312.65,264.21Z"/>
    <path d="M 313.75,268.07 a 33.55,33.55,0,0,1,4.83-.79,23.8,23.8,0,0,0-.92-4.22 s -3.38.69-4.83,1.15 C 313.29,265.9,313.75,268.07,313.75,268.07Z"/>
    <path d="M 314.54,272.54 s -.22-1.81-.79-4.46 c -1.57.46-4.23,1.64-4.23,1.64 a 36.85,36.85,0,0,1,1.15,4.71 C 310.92,273.82,314.54,272.54,314.54,272.54Z"/>
    <path d="M 318.58,267.28 s .34,2.17.5,4.28 a 10.72,10.72,0,0,1,3.79-.14 s -.09-2.41-.31-4.34 C 321.23,267.07,318.58,267.28,318.58,267.28Z"/>
    <path d="M 314.54,272.54 l .79,5.07 a 26.73,26.73,0,0,1,4-.8 c -.09-3-.24-5.24-.24-5.24 A 24.7,24.7,0,0,0,314.54,272.54Z"/>
    <path d="M 311.58,279 s .28,2.11.67,4.58 a 13.21,13.21,0,0,1,3.5-1 s -.1-2-.43-4.94 A 19.82,19.82,0,0,0,311.58,279Z"/>
    <path d="M 299.11,277.63 s .68-11.4.72-14.82 c -9.44,1.44-19.55-1.17-19.55-1.17,0,4.76.21,15.21.21,15.21 a 32.37,32.37,0,0,0,8.66,6 C 292.92,282.1,299.11,277.63,299.11,277.63Z m -.8-13.07 c 0,.7,0,1.49-.08,2.31 a 59.43,59.43,0,0,1-8.3,3.78,75.21,75.21,0,0,1-8-4.78v-2.3 A 46,46,0,0,0,298.31,264.56Z m -16.4,2.66 a 73.78,73.78,0,0,0,7.87,4.67,49.47,49.47,0,0,0,8.41-3.82 c -.19,4.08-.51,8.55-.51,8.55 s -5.16,3.95-8.35,4.76 a 41,41,0,0,1-7.46-5Z"/>
    <circle cx="313.45" cy="294.59" r="1.13"/>
    <circle cx="312.7" cy="301.59" r="1.13"/>
    <circle cx="310.2" cy="308.38" r="1.13"/>
    <circle cx="307.83" cy="315.63" r="1.13"/>
    <circle cx="306.38" cy="323.25" r="1.13"/>
    <circle cx="305.61" cy="330.5" r="1.13"/>
    <circle cx="305.7" cy="337.63" r="1.13"/>
    <path d="M 287.12,288.25 c 7.63,1.88,14.13,0,17.75-3.87 C 294.87,289.5,287.12,288.25,287.12,288.25Z"/>
    <path d="M 341.22,364.38 a 117.76,117.76,0,0,0-16-28.67 c -4.83-7.08-4.67-10.42-4.08-14.25 s 3.67-11,8.42-19,5.94-19.27,5.94-19.27,4.75-4.75,6.31-10.69 a 21.43,21.43,0,0,0-3.37-18.19 c -4-5.25-9.94-12.06-12.62-17.87 a 76.59,76.59,0,0,0,6.56,12.5,54.8,54.8,0,0,1,5.2,8.72 c -1.15,1.08-3.76,2.81-9.2,3.63.42,4.83,1.26,14.58,1.26,14.58 l 7.21,2.56 a 19.94,19.94,0,0,1-3.72,4.76,18.73,18.73,0,0,0-.25,2,50,50,0,0,1-5.8,18.56 c -2.94,5.56-5.25,9.25-7.06,15.75 a 18.34,18.34,0,0,0,3.06,15.88 c -1.69,1.48-6.47,3.65-13,4.87 a 72.89,72.89,0,0,1-.19-15.18 c .88-6.75,3.75-15,5.65-20.1 a 33.54,33.54,0,0,0,1.94-13.25 c 2-3.41,6.85-12.43,8.66-21.7 a 44.56,44.56,0,0,0-8.3-15.44,30.23,30.23,0,0,0,4.73-12.69,40.68,40.68,0,0,0-1.68-13.94 c 2.49-1.17,5.55-1.82,8.18-.9-3.48-2.66-7.52-1.63-8.87-1.18 a 23.49,23.49,0,0,0-2.32-4.74,13.61,13.61,0,0,0-9.15-6.11v0 l -.35,0 h -.74 a 15.56,15.56,0,0,0,6.77,10.45,21.94,21.94,0,0,1,.3,10 c -1.08,5.67-5.53,10.28-5.53,10.28 S 302,244,293,236.29 c -5.74-4.85-8.07-8.26-8.81-10.6,6.71-5.14,6.4-9.65,6.4-9.65 a .53.53,0,0,0-.48,0,10.57,10.57,0,0,0-8.35,3.45,17.94,17.94,0,0,0-4.21,7.62,10.35,10.35,0,0,1-4.25.17 c -2.81-.5-5.06-2.87-11.44-1.75 a 14,14,0,0,0-6.44,24.25,14.83,14.83,0,0,0,6.75,3.31 c -.37,4.44.56,14.19,2.38,21.31 A 54.94,54.94,0,0,0,274.45,294 c 1.65,2.09,3.63,4.65,5.56,7.58 a 22.77,22.77,0,0,1,2.13,10.8,25.85,25.85,0,0,1-6.06,15.88,46.53,46.53,0,0,1-5,5,98.09,98.09,0,0,0-11.17,11.33 c -4.17,5.33-11.83,16.5-12.17,43.67 s 10,48.67,7.67,58.5 c 10.33-3.33,19.67,1.67,33,4 s 42,5,61-16.17 C 351.39,406.54,347.05,380.21,341.22,364.38Z m -3-105.22 c .29.75.55,1.52.77,2.3 a 15.63,15.63,0,0,1-2.33,3.59,26.68,26.68,0,0,1-6.35.44 l -.17-2.69 S 335.89,261.77,338.19,259.15Z m -7.31,16-.54-8.65 a 43.46,43.46,0,0,0,6.62-.35,14.69,14.69,0,0,0,2.32-3.36 c 0,.12.06.24.08.36 a 22.93,22.93,0,0,1-1.9,14.1Z m -6.62-3.47-1.4-.24.13,4.76,0,.06 a 29,29,0,0,0-3.66.56 l .43,5.18,1.19-.21 c -.37.88-.73,1.72-1.08,2.5 l -.1-2.29-4,.56.25,4.34,2.75-.31 c -1.16,2.38-2,3.81-2,3.81 l -.34-.35-.4-3.15-2.3.18-1.1-1.29 c -.12-.93-.37-2.18-.37-2.18 l -1.1.38 c -.88-1.12-1.79-2.33-2.67-3.6,1.1-.57,3.1-1.36,3.1-1.36 s -.4-2.29-.91-4.59 c -1.12.4-3.8,1.72-4.6,2.12 l -.3-.55-.37-4.15-.58.26 c .1-.91.21-1.83.34-2.75,0,.65.12,1.48.24,2.49 a 15.15,15.15,0,0,1,4.12-2.12 c .36,0-.46-2.05-.8-4.1 a 13.4,13.4,0,0,0-3.25,1.74 c .29-1.79.63-3.57,1-5.27 l 1.16-.45-.52-2.46q.21-.92.42-1.78 a 19.25,19.25,0,0,1,3.23-1 l -1-4-1,.21 c .24-.87.46-1.63.64-2.25 l .34,2,3.45-1,.22.23,1.42,3.61,1.45-.32 c 1,1.23,2,2.64,3,4.21 a 9,9,0,0,0-3,.34 c .7,1.81,1.29,3.63,1.29,3.63 l 3.82-.37 c .27.49.53,1,.79,1.53 l .28,2.87,1.1.08q.54,1.26,1,2.6Q324.5,270.71,324.27,271.66Z m -13-50.88 a 6.53,6.53,0,0,1,2.52,3.07 A 11.2,11.2,0,0,1,311.3,220.78Z m 3.76,3.47 c -1.31-4-3.62-5.24-4.91-5.62q-.41-.87-.82-1.92 c 2.88.39,5.58,1.74,7.8,5.41,2.42,4,4.41,10,4.17,19.42 a 20.61,20.61,0,0,1-4.56,11.7,61.57,61.57,0,0,0-6.37-6.5 C 313.74,242.83,318.25,234.05,315.06,224.25Z m -31.2-.28 a 3.56,3.56,0,0,1,1.2-2.76,6.43,6.43,0,0,1,2.48-1.11 A 22.2,22.2,0,0,1,283.86,224Z m .2-4.76 a 9.76,9.76,0,0,1,5.2-1.81q-.31.58-.64,1.12 a 7.13,7.13,0,0,0-5.4,3 c -2,3.25-.33,6.33,3.67,10.92 a 55.06,55.06,0,0,0,21.71,14.77,87.41,87.41,0,0,0-2.73,9 c -1.55-.55-7.81-3.2-15.82-12.21-9.25-10.42-10.83-17.67-10.83-17.67 S 280.47,221.54,284.05,219.21Z m -3,105.23 c 2.38-4.56,3.56-8.12,3.25-15.31,0,0,0-.06,0-.09 a 41.41,41.41,0,0,1,3.07,8.78 s -1.5-10.19-4.12-14.81 c -.26-.46-.54-.92-.83-1.39 a 14.14,14.14,0,0,0-1.72-2.66 c -2.24-3.32-4.72-6.51-6.46-8.82 a 47.66,47.66,0,0,1-9.06-22.87 c -1.5-11.94-1.06-16-1.06-16 a 12.92,12.92,0,0,1-8.44-4,12,12,0,0,1-1.75-13.44,12.13,12.13,0,0,1,10.69-6.62 c 5-.06,7.73,3.26,13.68,1.82,1.56,3.27,5.29,10.53,9.88,15.62,8.64,9.59,15.43,12.65,17.32,13.37 a 103.08,103.08,0,0,0-2.36,15.86 c 2,5.21,10.25,15.37,12.78,18.41 a 36.09,36.09,0,0,1-1.92,12.54,87.1,87.1,0,0,0-5.25,18.88,62.74,62.74,0,0,0-.08,16.81,53.33,53.33,0,0,1-15.23.19 c -14.56-1.94-19.5-7.06-19.5-7.06 A 44,44,0,0,0,281,324.44Z m -8.71,10.31 c 1.92,1.87,6.53,5,16.83,7,14.53,2.75,28.39-.2,35-5.09.55.78,1.83,2.61,3.39,5-7.65,7-23.46,9.61-37.22,7.4 A 58.34,58.34,0,0,1,267,339.62 C 269.21,337.49,271.32,335.61,272.3,334.76Z m 75.33,98.75 c -8.5,8.38-18.62,14.25-31.12,15.75 s -21.75.63-28.37-.87-25-6.87-30.37-3.87 c .38-5.87-2-15.25-3.62-22.5 s -5.37-23.25-4.37-39.75,4.75-26.75,11.75-36.5 a 41.6,41.6,0,0,1,4.6-5.24 c 14.41,10.63,30.75,11.73,43.65,10,11-1.48,17.06-6.1,18.66-7.48 a 109.35,109.35,0,0,1,7.8,13.61 c 3.5,7.92,8.17,24.25,9.54,34.38 S 348.51,425.13,347.64,433.5Z"/>
    <path d="M 309.41,348.06 a 2.57,2.57,0,1,0-2.57-2.57 A 2.57,2.57,0,0,0,309.41,348.06Z m 0-4.08 a 1.51,1.51,0,1,1-1.51,1.51 A 1.51,1.51,0,0,1,309.41,344Z"/>
    <path d="M 320,385.71 s -9.58,23.17-28.33,37.5 C 311.22,410.13,315.22,400,320,385.71Z"/>
    <path d="M 300.64,430.13 c 8.83-1.83,17.25-11.08,19.67-18 C 313.3,423.38,300.64,430.13,300.64,430.13Z"/>
  </g>
<script type="text/ecmascript" xlink:href="param.min.js"/> 
</svg>
