<?xml version="1.0"?>
<svg xmlns="http://www.w3.org/2000/svg" xmlns:xlink="http://www.w3.org/1999/xlink" viewBox="0 0 600 600">
  <title>default-top-curvy</title>
  <g id="main-colour">
    <path d="M 329.12,252.63 c -6-10.42-12.27-23.83-13.19-29.5 a 23.89,23.89,0,0,0,3.19,3.69 s 11.58,20.4,13.92,24.31 c 4.25,2.5,10.33,7,10.33,7 s 3,7.42.75,14.5-6.83,12.92-12.33,14.08-8.5-.25-11.5-1.67-11.83-1.83-17-.33 c -5.17,2.08-8.17,4-16.42,3.92 s -20.75-2.42-30.17-8.08 c -.75-1.58-1-7.54-1-7.54 s 8.75,4,13.38-.37,5.25-9.75,14.42-18.83 c -.92-11.25-4.42-24.67-5-26.83 a 15.5,15.5,0,0,0,3.33-3.67 s 5.25,20.08,6.33,29.67 c 6.67.92,20.54,5.58,23,18.67 a 36.53,36.53,0,0,1,6.63-11.37 C 322.25,255.5,329.12,252.63,329.12,252.63Z" fill="param(main_colour)"/>
  </g>
  <g id="outline">
    <path d="M 310.91,273.8 c 3-8.67,11-18,19.38-20.75-9.59-15.9-13.48-27.83-13.48-27.83 a 11.37,11.37,0,0,0,2.29,2.25 c 1,2.83,13.28,24,13.28,24 a 34.93,34.93,0,0,1,10.33,7.25 c 4.42,11.54-.75,20.42-5.58,24.42 s -11.5,4.25-17.12.63 c -7.92-3.17-17.58.79-17.58.79 s -1.17,1.58.29,1 c 4.33-1.5,13.08-2.21,18.08.29,7.67,4.83,17.42,1.71,22.7-8.71 a 22.09,22.09,0,0,0,.22-19.58 s -3.08-3.54-10.17-6.83 c -7.5-11.83-13.83-23.92-13.83-23.92 a 13.84,13.84,0,0,1-4.78-6.81 c 1,7.67,7.36,21.72,13.36,32.22-5.25,1.92-15,8.92-17.37,18.67Z"/>
    <path d="M 311.41,271 c -1.37-10.75-12.87-17.25-22.29-18.58 a 308.6,308.6,0,0,0-7-30.5 s -2.5,3.75-4.25,5 c 2,8.25,4.42,16.33,4.92,26.83-9.67,9.33-12,15.81-13.42,17.25-1.83,1.83-5.58,5.13-15.08.75.13,2.5,2.08,9.42,2.08,9.42 a 67,67,0,0,0,31.12,8.13 c 9.17,0,14.47-2.41,17.58-5.21 l -2.66.5 c -5,2.88-10.5,3.63-16.12,3.46-10.87-.32-21-4-28.25-7.46-.37-1.12-1.5-6.42-1.5-6.42 s 9.83,3.25,13.58-1.25 S 274.87,264,284.29,254 a 131.76,131.76,0,0,0-4.79-26.54,11.85,11.85,0,0,0,2.25-2.25 c 1.63,5.88,5.5,23,6,28.25,7.46,1.63,20.33,5.21,23.17,20.29Z"/>
    <path d="M 276,284.55 s 15.42,5.5,28.58-2.5 C 299.29,284.3,290.2,286.63,276,284.55Z"/>
    <path d="M 322.79,282.46 s 9.67,5.75,17.75-3.08 a 4.87,4.87,0,0,0,1-1.67 S 335.29,286.8,322.79,282.46Z"/>
  </g>
<script type="text/ecmascript" xlink:href="param.min.js"/> 
</svg>
