<?xml version="1.0"?>
<svg xmlns="http://www.w3.org/2000/svg" xmlns:xlink="http://www.w3.org/1999/xlink" viewBox="0 0 150 150">
  <title>BT002_OA011</title>
  <g id="skin-tone">
    <path d="M 69.49,75.42 c 0-2.64,2.43-5.71,5.05-5.91 a 5.93,5.93,0,0,1,6,4.25 c .53,2.51.62,4.79,1.48,6-3.77,1.07-7.93,3.09-5.81,7.81-2.14,1.61-3.56,3.16-4.81,3 s -3.6-3.88-3.85-6.38 C 69.06,81.35,69.49,75.42,69.49,75.42Z" fill="param(skin_tone)"/>
  </g>
  <g id="main-colour">
    <path d="M 68.47,80.47 a 3.55,3.55,0,0,0-3.8,2.72,6,6,0,0,0,.61,5.15 s -2.22,3.16.05,5.91,4.5,2.89,7.8,3.71,4.1,1.07,6,4,5.11,5.51,7.33,6.16 c 3-2.75,4.06-5.31,3-7.54 a 16,16,0,0,1,10.85-4 A 17.32,17.32,0,0,1,90.24,89 c -2.54-4.12-2.49-6.75-3.78-8.19 s -3.18-1.91-6.42-.47-5.48,2.9-3.81,7.14 c -1.81,1.12-3.3,2.47-4,2.94 s -2.31-.59-3.15-2.12 a 20.82,20.82,0,0,1-1.44-4.57Z" fill="param(main_colour)"/>
  </g>
  <g id="accent-colour-1">
    <path d="M 65.34,94.25 a 5,5,0,0,0,3.11,2.33 c 2.26.59,7.2,1.23,8.63,3.13 s 6.14,7.44,9.25,8.38 c 2.54-1.74,4.23-5.06,3.16-7.5,4-3,9-4.36,11-3.75 s 4.83,3.22,3.5,6.57 c .91,1.11,2.08,3.59-.74,6.33 s -10.9,3.28-14.86,2.71-7.69-3.66-10.17-7-4.94-3.93-7.21-4-6.16-1.78-6.24-4.19Z" fill="param(accent_colour_1)"/>
    <path d="M 92.08,96.21 a 21,21,0,0,1,4-1.34 c .35-.08.69-.41-.08-1 s -3-.84-6.09,1-3.47,4.23-2.77,4.64 S 90.19,97,92.08,96.21Z" fill="param(accent_colour_1)"/>
    <path d="M 88.91,93.06 a 10,10,0,0,1,4.58-.85 c .8-.7-.15-1.6-2.06-1.76 a 9.15,9.15,0,0,0-7.1,3.3 c -1.62,2.28-.76,3.29-.16,3.09 S 87.06,93.82,88.91,93.06Z" fill="param(accent_colour_1)"/>
    <path d="M 80,93.55 c -.57-.29-.73-2.05.88-3.82 s 4.83-4,7.75-3.44 c 1.73.38,1.85,1.15,1.44,1.9 a 6.52,6.52,0,0,0-5.67,1.16 C 82.1,90.87,81.55,94.31,80,93.55Z" fill="param(accent_colour_1)"/>
  </g>
  <g id="fixed-colours">
    <path d="M 79.52,92.26 a 1.19,1.19,0,0,0-1.16.4 c -.46.58-.09,1.82,1,2.35 s 3.19-.14,2-1.93 a 1.33,1.33,0,0,1-1.63.32Z" fill="#a7a9ac"/>
    <path d="M 83.52,95.53 s -1.18-.29-1.48.27 a 2,2,0,0,0,1,2.31 c 1,.5,2.77.4,1.68-1.68 C 84.22,97,83.21,96.94,83.52,95.53Z" fill="#a7a9ac"/>
    <path d="M 86.7,98.64 a 1.12,1.12,0,0,0-1.32.34 c -.45.69.33,1.79,1.29,2.14 s 2-.27,1.19-1.6 a 1,1,0,0,1-1.09-.15Z" fill="#a7a9ac"/>
  </g>
  <g id="outline">
    <path d="M 105.08,103 a 8.37,8.37,0,0,0,0-1.45,6.22,6.22,0,0,0-3.53-5.16 c -2.36-1.18-3.13-.82-4.53-1.45 a 2.26,2.26,0,0,0-2-1.74,4.19,4.19,0,0,0-.54,0 l -.62-.56 a 1.53,1.53,0,0,0-1-2.27,5.15,5.15,0,0,0-1.29-.17q-.61-.73-1.14-1.49 c .27-.42.93-1.68-.14-2.36 a 4.56,4.56,0,0,0-1.37-.57 c -1.16-3.83-1-4.31-2.14-5.45 S 84.32,78.55,81.85,79 c -.44-.37-.29-1.07-.17-1.76 a 9.56,9.56,0,0,0,0-2.8,6.76,6.76,0,0,0-7.26-6.19 h 0 a 6.76,6.76,0,0,0-6.19,7.27 c 0,.3.06.57.11.83 h 0 l 0,.15 h 0 A 7.75,7.75,0,0,1,68,79.68 a 4.31,4.31,0,0,0-4.19,3.94,6.81,6.81,0,0,0,.81,4.25,5.23,5.23,0,0,0-.77,4.47,6.68,6.68,0,0,0,.54,1.42,5.35,5.35,0,0,0-.3,4.2 c .94,2.55,3.79,3.83,6.12,4.34 s 6.13,1.25,7.49,3.77,3.83,6.45,11.4,7.67,13.81-2.4,15.62-4.43 A 5.27,5.27,0,0,0,105.08,103Z m -2-3.53 c 1.69,2.8.88,4.83-1.94,6.75 a 16,16,0,0,1-12.45,2.18 c -.46-.11-.89-.24-1.31-.39 A 9.93,9.93,0,0,0,90,104 a 6.06,6.06,0,0,0,0-3.29 c 1.33-1,6-4.29,10.38-3.46 A 4.77,4.77,0,0,1,103,99.47Z M 95.78,95.3 a 11.22,11.22,0,0,0,1.21.75,8.07,8.07,0,0,0,1.09.47,13.09,13.09,0,0,0-8.31,3.58 A 5.32,5.32,0,0,0,89.1,99 a 11.74,11.74,0,0,1,2.43-2.09 A 12.52,12.52,0,0,1,95.78,95.3Z m .38-.88 c -5.28,1.07-7.32,4-8.24,4.66 s -1-.39-.38-1.36 A 10.17,10.17,0,0,1,92.85,94 C 95.38,93.32,96.16,94.42,96.16,94.42Z m -10,6.24 c -.63-.47-1-1.18-.64-1.57 a .86.86,0,0,1,.79-.31,1.7,1.7,0,0,0,0,.31 c -.18,0-.44.1-.41.4,0,.46.3.88,1.16,1 a .36.36,0,0,0,.45-.35,1.47,1.47,0,0,0,.32-.14 C 88.29,100.93,87,101.26,86.19,100.66Z m 6.52-8.08.63.64 a 10,10,0,0,0-4.7,2.22,10.83,10.83,0,0,0-1.42,1.49 l -1.17-1.26 A 10.37,10.37,0,0,1,87.91,94,8.31,8.31,0,0,1,92.71,92.57Z m .23-1.45 a .63.63,0,0,1,.37.74,11.11,11.11,0,0,0-4.33.84 c -2.55,1-3.7,3-4.5,3.59 s -.73-.48-.62-1 a 6.4,6.4,0,0,1,3.54-3.52 A 8,8,0,0,1,92.93,91.12Z M 83,96 c -.17,0-.4,0-.37.37 a 1.38,1.38,0,0,0,1.23,1.27 c .54.11.65-.15.63-.4 a 1.63,1.63,0,0,0,.37-.28,1,1,0,0,1-.09.91 A 1.37,1.37,0,0,1,83,97.82 a 1.63,1.63,0,0,1-.74-1.95.87.87,0,0,1,.75-.22 A 3.09,3.09,0,0,0,83,96Z m 6.27-7.47 a 15.88,15.88,0,0,0,1.2,1.62,10.08,10.08,0,0,0-3.27.89,9.12,9.12,0,0,0-3.08,2.41 l -1.53-1.74 A 6.61,6.61,0,0,1,84,90.13 C 85.52,88.92,86.7,88.12,89.25,88.57Z m .83-.77 c -4.53-1.22-7.72,2.92-8.26,3.89 s -1,2-1.73,1.49.21-2.29,1.38-3.58,4.47-3.44,6.66-3.15 S 90.09,87.8,90.09,87.8Z M 81.4,94.42 a 1.56,1.56,0,0,1-2.06.29 A 1.45,1.45,0,0,1,78.46,93 a .88.88,0,0,1,.7-.53,2,2,0,0,0,.06.46.43.43,0,0,0-.23.57,1.42,1.42,0,0,0,1.51.86 c .43,0,.5-.25.46-.46 a 1.3,1.3,0,0,0,.42-.34 A .81.81,0,0,1,81.4,94.42Z m 5.51-11.16 a 10.13,10.13,0,0,0,.74,2.32,9.08,9.08,0,0,0-3.68,1,9.44,9.44,0,0,0-3.4,2.75 c -1.35-1.78-2.16-3-4-2.51 h 0 c -.25-.83-.61-2.44.11-3.33 a 12.2,12.2,0,0,1,6.47-3.33 A 3.48,3.48,0,0,1,86.91,83.27Z m -12.29-13 h 0 a 4.75,4.75,0,0,1,5.11,4.36,15.18,15.18,0,0,1-.16,3.2 A 1.8,1.8,0,0,0,80,79.59 c -2.24.79-4.28,2.26-4.87,4.26 a 5.64,5.64,0,0,0,.4,3.35 C 74,88,73.27,89.43,72,89.72 c -1.48.35-3-2-3.66-4.8 a 15.43,15.43,0,0,0,1.89-9.54 A 4.75,4.75,0,0,1,74.62,70.27Z M 69.29,92.6 c -2.27-1.36-5-7.21-3.86-9.4 a 3.34,3.34,0,0,1,2.25-1.89,5.26,5.26,0,0,1-.87,1.78 c .15,3.83,3.41,8.47,4.45,8.47 s 2.78-1.49,3.82-2.42,2.19-2,3.57-.71 c .41.39.91,1,1.45,1.59 a 6.1,6.1,0,0,0-.88,2,1.24,1.24,0,0,0-1.17.64 c -.5.86.35,2.18,1,2.52 a 2.17,2.17,0,0,0,2.7-.37,1.33,1.33,0,0,0-.08-1.65 l .41-.68 c .5.59,1,1.17,1.48,1.71 a 4.27,4.27,0,0,0-.49,1.07,1.39,1.39,0,0,0-1.16.28 c -.87,1.07.38,2.49.78,2.77 a 2,2,0,0,0,2.29,0,1.22,1.22,0,0,0,.07-1.53 l .46-.51 c .42.44.84.88,1.24,1.32 a 3.8,3.8,0,0,0-.37.78,1.21,1.21,0,0,0-1.07.25 c -.65.54-.29,1.87.55,2.45 a 1.68,1.68,0,0,0,2.22.06 c .44-.36.23-.94.05-1.28 l .25-.21 a 5.17,5.17,0,0,1,.75,1.65 c .4,1.84-.58,4.53-2.72,6.41-3.5-1.49-5.31-4.07-6.63-5.72-1.58-2-2.45-3.7-6.06-4.46 s -7-1.65-8-4.11 c -.88-2-.77-3.26-.26-4.11 A 10.7,10.7,0,0,0,69.29,92.6Z m 34.07,15.72 c -1.6,1.71-6.3,3.74-11.34,3.4 s -8.21-1.44-11.17-4.64-3.42-5.17-6.88-6 c -3.27-.8-8.56-1.6-8-5.26 a 10.61,10.61,0,0,0,4.29,2 c 3.09.76,6,1.07,7.73,3.4 s 4.84,6.14,8.48,7.7,10.88,1.54,14.93-1.45 a 14,14,0,0,0,2.73-2.48 A 3.45,3.45,0,0,1,103.35,108.32Z"/>
  </g>
<script type="text/ecmascript" xlink:href="param.min.js"/> 
</svg>
