<?xml version="1.0"?>
<svg xmlns="http://www.w3.org/2000/svg" xmlns:xlink="http://www.w3.org/1999/xlink" viewBox="0 0 600 600">
  <title>default-top-voluptuous</title>
  <g id="main-colour">
    <path d="M 326.94,251.71 c -4.37-12.75-5.33-23.58-4.71-29.71 a 42.44,42.44,0,0,0,2,3.75,67,67,0,0,0,7.29,25,63.46,63.46,0,0,1,6.75,8.83 c 4.92,7.25,4.92,17.33,7,17.75-.08,1.25-.25,2.33-.25,2.33 l -.92,3.83 s -3.92,3-7.92,3.5 a 30.29,30.29,0,0,1-14.25-1.67 c -5.83-2-10-2.33-15.83-.92 s -7.58,3.67-18.25,4.33-31.67-5.25-40.08-7.58 c -1.08-2.42-1.83-8.92-1.83-8.92 s 14.67,6.5,20.92.42,16.25-21.37,16.25-21.37-3.37-16.87-7.12-24 c .88-1.87,2.13-4.25,2.13-4.25 a 124.16,124.16,0,0,1,9.5,27.25 c 6.63,4.75,17.25,12.88,21.75,27.63 a 84,84,0,0,1,7.33-13.75 C 322,255.71,326.94,251.71,326.94,251.71Z" fill="param(main_colour)"/>
  </g>
  <g id="outline">
    <path d="M 327.73,252 a 93.52,93.52,0,0,1-5.46-28.71,14.13,14.13,0,0,0,1.51,2.83 s -.43,9.25,7.15,24.83 c 9.17,9.83,9.92,15.17,12.54,25.29.45,1.75,2.4,2,2.34,2.59 l .53-2 c -1.12-.25-1.5-.53-2-2.87-2.75-13-6.58-17.12-12-23.46-4-7-7.58-18.42-7.65-24.5-1.76-3.5-3-6.58-3-6.58 a 78.91,78.91,0,0,0,4.58,32.17 A 84,84,0,0,0,316.61,263 a 105,105,0,0,0-7.12,13.25 c -3.62-12.5-14.27-21.87-21.25-26.5 C 283.61,228.88,278,221.63,278,221.63 l -2.87,5.75 s 5.24,12.15,7.11,23.88 c -9.25,11.5-11.38,18.28-16.5,21.38-5.37,3.25-14.87,1.25-20.87-1.75 a 41.53,41.53,0,0,0,2.43,10.83 S 279,291.89,293,288.88 c 13.38-2.87,17.63-6.25,25.76-3.85,6.49,1.91,11.89,3.65,16.35,2.68 l -.65-1.12 c -3.9.61-10.49-1.22-14.71-2.71 a 25.08,25.08,0,0,0-14.12-.12 c -3.42,1.06-12.4,5.46-23.74,4 s -33-7.58-33-7.58 a 46.36,46.36,0,0,1-1.12-6.25 c 5,2.63,13.38,3.75,19.63-.5,5.65-3.84,9-12.42,16.38-21.75-1.08-6.33-2.25-14.37-7-24,0,0,.94-1.81,1.5-3.25,2.75,4.63,7.42,20.44,8.61,26.13,5.44,3.94,16.62,11.25,22.5,29.13 a 122.64,122.64,0,0,1,8.22-15.32 A 104.38,104.38,0,0,1,327.73,252Z"/>
    <path d="M 346.36,276.88 c -1.12,3.91-1.81,6.84-1.81,6.84 a 21.82,21.82,0,0,1-10.81,4.16 c -.25-.59.71-1.29.71-1.29 s 6.42-1.08,8.54-3.33 c .44-1.84,1.69-6.44,1.69-6.44Z"/>
    <path d="M 274.61,283.75 s 16.63,5.13,28.38-2 C 297.36,283.88,289.23,285.75,274.61,283.75Z"/>
    <path d="M 317,280.71 s 15,6,24,1.92 C 337.27,286,325.77,285.71,317,280.71Z"/>
  </g>
<script type="text/ecmascript" xlink:href="param.min.js"/> 
</svg>
