<?xml version="1.0"?>
<svg xmlns="http://www.w3.org/2000/svg" xmlns:xlink="http://www.w3.org/1999/xlink" viewBox="0 0 600 600">
  <title>basic-v-neck-t-shirt-slender</title>
  <g id="main-colour">
    <path d="M 284.06,228.25 a 14.27,14.27,0,0,1-2.16.69 c -7.45-6.36-19.55-1.14-20,7.95 s 6,12.33,9.33,13.42 c -1.25,5.92,1.32,21.18,2.47,27.83,1.63,9.38,4.66,20.41,6.5,28.91,3.38,15.59.78,18.59-6.39,31 a 121.7,121.7,0,0,0-8,15.69,44,44,0,0,1,9.41-.44 c 8.33.5,20.67,4.75,32.67,4.83,10.74.07,16.21-1.53,22.62-6.65-.66-1.59-1.58-3.58-2.85-6.1-4-7.92-4.57-12.7-4.73-21.12 s 1.82-20.63,3.91-27.88 c .72-2.5,1.72-5.49,2.76-8.8 a 22.85,22.85,0,0,0,4.54-.62 c 7.92-2,14.75-8.42,15.25-18.5 s -6.92-14.5-11.33-18.33 c -2.61-2.27-5.1-4.56-6.7-6.05 a 11.19,11.19,0,0,0-15.08-15.45,3.12,3.12,0,0,0-1.56-.2 l -.14-.05 c 1,2.93,3.95,14.19-.93,18.19 C 292,245.38,284.06,228.25,284.06,228.25Z" fill="param(main_colour)"/>
  </g>
  <g id="outline">
    <path d="M 284.41,226.93 a 11.64,11.64,0,0,1-2.89.89 c -.18,1.23,1.49,1.9,1.49,1.9 a 9.26,9.26,0,0,0,2.17-.83 S 284.8,228,284.41,226.93Z"/>
    <path d="M 316.63,226.24 a 18.37,18.37,0,0,0-3.58,2,16.1,16.1,0,0,0,1,1.45,16.61,16.61,0,0,0,2.57-1.25 l .54-.24 a 11.26,11.26,0,0,1,8.35-.33 C 322.94,225.38,318.51,225.38,316.63,226.24Z"/>
    <path d="M 274,227.22 a 11.14,11.14,0,0,1,6.16,1.85 h 0 l 1.56.85 c .76-.15,1.54-.21,2.07-.37 a 13.53,13.53,0,0,0-9.78-4.33,13.2,13.2,0,0,0-1.54,26.31 c 0-.54,0-2,0-2 h 0 A 11.2,11.2,0,0,1,274,227.22Z"/>
    <path d="M 271.23,268.19 c 2.5,9.5,6.15,21.81,8.36,31.38,1.85,8,3.7,15.63,3,23.92-.69,7.75-2.53,16.72-6.19,22.39,4.07-9.88,5.5-23.87,2.82-37.26 C 276.65,296.07,271.29,273.38,271.23,268.19Z"/>
    <path d="M 342,252.15 c -6.17-3.83-14.1-11.9-14.1-11.9,1.72,3.27,9,10,13.94,14.31,7.92,6.83,7.4,18.48,3.17,23.83 a 24.19,24.19,0,0,1-16.27,8.68 l -.37,1.19 c 9.28.54,18-4.53,21.14-12.81 C 352.48,267.56,350.6,257.49,342,252.15Z"/>
    <path d="M 289.35,285.05 A 29.19,29.19,0,0,0,311,289.76 C 304.17,293.63,294,291.6,289.35,285.05Z"/>
    <path d="M 270.73,350.63 s 3.25-1.12,13.75,1.5,31,6.25,40.25.5 A 41.37,41.37,0,0,1,310.86,355 a 127.21,127.21,0,0,1-23.21-2.83 C 280.27,350.56,273.61,349.25,270.73,350.63Z"/>
    <path d="M 264,355.17 s 5.66-2.33,17.52-.17 c 12.25,2.23,37,8.88,49.25-2.75 a 4.6,4.6,0,0,0-.5-1.25,31.28,31.28,0,0,1-18.75,6.5 c -11.37.13-19.5-2-24.62-3 s -16.81-3.87-21.62-1.12 C 264.73,354,264,355.17,264,355.17Z"/>
    <path d="M 282.53,315.53 h 0 c -2,11.61-12,24.94-16.6,34.86-.76,1.63-1.41,3.24-2,4.79,1.55-.4,2.76-.69,2.76-.69 h 0 c .81-2,1.64-3.8,2.37-5.23,2.54-5,9.81-16.3,13.37-25.29 A 71.2,71.2,0,0,0,282.53,315.53Z"/>
    <path d="M 276.68,288.08 a 154.43,154.43,0,0,1-3.2-19,89.38,89.38,0,0,1-1-18.68 h -2.55 a 112.56,112.56,0,0,0,1.33,18.33 A 116,116,0,0,0,276.68,288.08Z"/>
    <path d="M 330.18,352.76 a 8.24,8.24,0,0,0,1.26-1.32,58.88,58.88,0,0,0-2.47-5.81 c -3-6.13-5.8-11.93-4.5-26.84.86-9.82,4-20.85,6.64-31.3-.92.14-1.89.26-2.63.35-5.21,18.4-8.66,32-6,45.87,1.62,7.4,5.14,12.84,7.71,19.05Z"/>
    <path d="M 284.41,226.93 s 6.42,16.89,28.95,18.93 c 5.29-5.29-.31-17.61-.31-17.61 l 2.06.67 s 5.23,13.4-1.27,18.27 c -8.58.42-24.37-5.75-30.06-18 A 5.06,5.06,0,0,1,284.41,226.93Z"/>
    <path d="M 286.19,237 A 39.23,39.23,0,0,0,314.4,248.5 c 4.5-4.12,5-9.5,3.31-16.5,2.56,6.06,1.56,13.5-3.12,17.13 C 307.84,249.32,293.9,246.88,286.19,237Z"/>
  </g>
<script type="text/ecmascript" xlink:href="param.min.js"/> 
</svg>
