<?xml version="1.0"?>
<svg xmlns="http://www.w3.org/2000/svg" xmlns:xlink="http://www.w3.org/1999/xlink" viewBox="0 0 600 600">
  <title>midi-crew-neck-baggy-t-shirt-voluptuous</title>
  <g id="main-colour">
    <path d="M 244,356.75 c 10,.38,13.88,2.75,27.75,8.75 s 37.5,14.25,62.5,5.5 c 11.94-4.18,20-9.18,25.21-13.27-.2-12.28-2.07-30.79-10.37-44.36-3.74-6.12-7.64-11-8.26-15.9 s 3.88-17.5,6-27-.49-15.61-.49-15.61 l -.22-.53 a 16.57,16.57,0,0,0-9.16-26.89 h 0 c -2.21-1.39-6.62-.85-11.53.48-.58,11.88-9.39,20.49-21.4,20.8-13.17.33-22.83-8.5-25.83-13.5 a 23.54,23.54,0,0,1-2.6-6.22 l -.15.23 s -7.75-2.87-14.5-3.12-13.13,4.13-15.88,9.63-2.75,12.13,1.5,18.75 c -2.5,13.63.38,23.13,3.75,34 s .5,15.5-3.37,21.38 S 235.69,328,231.94,340 a 59.22,59.22,0,0,0-2.79,18.19 A 58.7,58.7,0,0,1,244,356.75Z" fill="param(main_colour)"/>
  </g>
  <g id="outline">
    <path d="M 343.65,302.42 c -2.8-5-1.88-8.61,1-19.11,1-3.65,2-7.1,2.78-10.43,0-.19.09-.36.13-.54 l .05-.22 h 0 c .16-.78.28-1.55.37-2.3,0,.3-.05.6-.1.9,1-5.44.94-11.27-1.74-16.38 a 22.57,22.57,0,0,1,.88,7.26,91.81,91.81,0,0,1-3.74,19.35 c -.71,2.4-1.41,4.49-2,6-2.5,6.83-3,12.17,2.83,20.67,11.37,14,14.41,35,15.07,49.09-39.92,29.39-74.78,13.53-93.54,5 l -3.37-1.52 a 49.75,49.75,0,0,0-31.09-3.31 c .83-8.41,2.56-18.35,6.15-27.18,4.5-10.17,8.79-16.58,13-23.08 a 17,17,0,0,0,2.16-5 A 175.88,175.88,0,0,1,254,322.88 a 74.72,74.72,0,0,0-1.88-33.38 c -.27-1-.58-2-.92-2.94 a 60.83,60.83,0,0,1-3.7-31.06 l 0,0,.2-1.67v0 a 16.56,16.56,0,0,1,13.1-26.72 h 0 l 1.17,0,.25,0,1,.07 h .11 a 50.93,50.93,0,0,1,11.29,2.66 c 3.92,12.64,17.15,19.78,29.75,19.78,11.2,0,21.9-9.21,21.76-20.88 l .24-.1 a 20.2,20.2,0,0,1,10.59-1.21 c -4.24-2.46-9.47-1.24-12.66.32,0,.64,0,1.25-.09,1.71 a 26.24,26.24,0,0,1-1.09,5.4,19.34,19.34,0,0,1-8.35,10 c -6.91,4.22-16.65,3.25-23.79,0 a 27.3,27.3,0,0,1-12.08-10.75 c -.61-1-1-2.29-1.57-3.39 h 0 c -.09-.21-.48-1.16-.83-2.17 l -1.14-.43 a 50.35,50.35,0,0,0-11.7-2.92,18.49,18.49,0,0,0-2.19-.21 l -.69,0 a 18.6,18.6,0,0,0-18.58,18.58,18.41,18.41,0,0,0,3.34,10.57 c -.66,3.67-2.25,14.95.91,25.1,3.83,12.33,8.19,18.93,0,29.83-13.63,18.15-16.91,35.34-17.69,50.49 l 1.14-.33v0 s .39-.13,1.06-.3 h 0 a 48.09,48.09,0,0,1,30.49,3 l 3.35,1.51 c 10.81,4.92,26.86,12.22,46.14,12.22,14.55,0,30.94-4.18,48.32-16.65v0 h 0 s .61-.39,1.53-1.12 C 360.21,321,345.91,306.46,343.65,302.42Z"/>
    <path d="M 343.9,323.71 a 109.49,109.49,0,0,1-3.17,29.17 C 344.57,346.38,345.57,331.88,343.9,323.71Z"/>
    <path d="M 235,353.54 s 12.83-3.33,30.67,5.33,31.5,13,46,12.83 c -8.67-.83-21-3-32-7.83 S 250.69,348.71,235,353.54Z"/>
  </g>
<script type="text/ecmascript" xlink:href="param.min.js"/> 
</svg>
