<?xml version="1.0"?>
<svg xmlns="http://www.w3.org/2000/svg" xmlns:xlink="http://www.w3.org/1999/xlink" viewBox="0 0 600 600">
  <title>default-top-hourglass</title>
  <g id="main-colour">
    <path d="M 348.14,264.38 a 17.47,17.47,0,0,0-8.92-10.75,30.21,30.21,0,0,1-9.17-7.5,58.32,58.32,0,0,1-12.92-19.92 A 24.73,24.73,0,0,1,313.3,224 c 1.92,6.5,14.17,25.17,21.58,31.5-.33.33-.65.67-1,1-8.59,6.48-13.12,19.82-13.12,19.82 l -.06.05 c -1.58-11-13.35-17.16-21.44-19.8-4.08-21.75-13.48-33.35-13.48-33.35 s -.94.63-2.19,1.63 c 7.63,10.19,10.5,22.5,12.38,32.81-10,10-12.12,17.58-15.71,20.17 s -13.58-.08-13.58-.08 c .29,1.4,2.5,6.83,2.5,6.83 s 6.33,4.67,8.67,5.92,17.17,9,28.25,2.92,11.75-9.92,11.75-9.92 a 8.34,8.34,0,0,0,1.92.58,20.55,20.55,0,0,0,7.92,3.75 c 3.92,1,9.17.67,14.08-4.33 S 349.89,270.79,348.14,264.38Z" fill="param(main_colour)"/>
  </g>
  <g id="outline">
    <path d="M 299.7,256.21 s -3.83-20.33-13.83-33.83 a 34.51,34.51,0,0,1-2.94,2.25 s 9.44,12.08,12.6,32.75 c -10.28,10.38-11.73,15.92-13.9,18.25-2.69,2.88-7,4.5-16.5.75 a 64.85,64.85,0,0,0,3.57,8.83 s 14.56,11.73,28.24,11.1 c 11.37-.52,21.52-8.94,24.44-18.69 C 321.39,262.63,299.7,256.21,299.7,256.21Z m -.63,38.6 c -8.72,1.93-23.09-5.65-28.69-10.25-.92-1.67-2.75-5.94-2.75-5.94 s 8.31,2.88,12.94-.06,7-11.5,16-21 c -1.67-10.75-6.08-24.33-12.37-32.54 l 1.56-1.19 c 2.38,2.94,7.31,12.31,10.13,21.81 S 298.81,257,298.81,257 s 20.91,7,21.49,20.63 C 318.14,283.3,312.64,291.82,299.07,294.82Z"/>
    <path d="M 321.26,277.44 c 4.13-12.87,9.75-17.48,14.25-22.06-11.62-10-21.22-30-21.22-30 a 10,10,0,0,0,2.42,1.17,97.8,97.8,0,0,0,9.93,16.58 c 3.88,5,7,7.88,11,10.25,5.5,3.25,12.25,7.25,9.25,20.13-1.56,6.7-8.12,13.13-15,14-3,.38-7.42-.58-11.92-4-.5-.17-1-.31-1.46-.44-.15.23-.29.46-.44.67 a 9.06,9.06,0,0,1,1.4.56 c 5.14,3.88,12,5.87,17.17,3.54,8-3.62,12.88-11.54,12.88-20.87 S 338,252.38,338,252.38,325.7,245.21,317.54,226 a 20.2,20.2,0,0,1-6-4.5 s 9.6,22.46,22.47,34 c -6.25,4.63-11.88,13.38-13.25,20Z"/>
    <path d="M 325.7,284 s 5.76,5.33,14.18.58 a 11.72,11.72,0,0,0,1.42-1.17 A 15.9,15.9,0,0,1,325.7,284Z"/>
    <path d="M 287.14,291 s 7.42,4.5,17.33.42,13.67-11.67,13.67-11.67-5.42,7.5-13.83,10.92 S 287.14,291,287.14,291Z"/>
  </g>
<script type="text/ecmascript" xlink:href="param.min.js"/> 
</svg>
