<?xml version="1.0"?>
<svg xmlns="http://www.w3.org/2000/svg" xmlns:xlink="http://www.w3.org/1999/xlink" viewBox="0 0 600 600">
  <title>one-piece-swimsuit-voluptuous</title>
  <g id="skin-tone">
    <g id="skin-tone-2" data-name="skin-tone">
      <path d="M 239.81,321.84 A 107.53,107.53,0,0,0,231.94,340 a 56.16,56.16,0,0,0-2.41,23.67 c -.59,10.54.21,21.65,3.91,29.75,8.77,16.25,24.06,22.91,39.56,21.75 s 24.93-12.78,24.93-12.78 l .48-.25 A 38.43,38.43,0,0,0,359,370.72 s 2.53-25.28-4.9-46.44 h 0 l -.12-.33v-.11 h 0 a 56.77,56.77,0,0,0-4.91-10.46 c -3.74-6.12-7.64-11-8.26-15.9 s 3.88-17.5,6-27-.49-15.61-.49-15.61 l -.22-.53-.32-.26 a 16.13,16.13,0,0,0-8.84-26.25v-.39 c -2.24-1.41-6.76-.84-11.76.54-5.58-6-6.4-19.35-6.49-22.47 a 73.41,73.41,0,0,1-37.11.21 c .06,2.13.07,4.29,0,6.29-.37,8.5-6.12,17.25-6.12,17.25 s -7.75-2.87-14.5-3.12-13.12,4.13-15.87,9.63-2.75,12.13,1.5,18.75 c -2.5,13.63.38,23.13,3.75,34 s .5,15.5-3.37,21.38 c -1.79,2.71-4.32,6.78-6.89,11.55Z" fill="#f9d9c7"/>
    </g>
  </g>
  <g id="main-colour">
    <path d="M 232,343.25 s 3.5-15.37,9.63-25.25,9.38-13.12,10.25-19-1.12-10.87-3-15.62 a 51.74,51.74,0,0,1-2.62-10.62 s 10.38,2.5,18-2.5,14.38-13.12,14.63-23.25-6.25-19.62-6.25-19.62,3.38-1.12,5-3.12 c 4.38,7.75,7.5,15,9.75,19.63 s 7.13,11.88,16.25,13.88,16.13.5,20.13-6.62,3.5-16.62,2.75-23.37 a 16.7,16.7,0,0,1,5.63-1 s 1,17.13,4.38,23.5,5.88,10.25,11.25,12.5 a 116.21,116.21,0,0,1-4.5,21.63 c -1.87,6.13-3.62,12.13-1.12,16.75 s 12,18,14.5,29.5 c -8.25-1.12-21,4.38-26.62,12.75 s -7.12,15.5-8.75,21.5-5.12,15.75-6.75,17.88-4.25,4-7.5,3 c 3.13-8.37,1.63-21.87-5-31.75 s -19.87-17.5-33.75-18.75 S 236.86,339.38,232,343.25Z" fill="param(main_colour)"/>
  </g>
  <g id="outline">
    <path d="M 271.15,226.83 s 5.56,6.91,6.45,14.55 c 1.17,10-2.14,22.18-15.17,28.75 a 22.2,22.2,0,0,1-17.58,1.08 l .25,2.33 s 8.9,2.92,19.33-2.5 c 10.58-5.5,23.26-24.07,9.14-43.45 C 272.7,227.35,271.15,226.83,271.15,226.83Z"/>
    <path d="M 276.94,224.88 a 173.68,173.68,0,0,1,8.75,17.42 c 4.75,10.75,12.79,16.83,24.42,17,23.16.33,17.13-32.54,17.13-32.54 l -1.5.38 s 4.29,29-12.87,30.5 c -24.67,2.16-25.75-22.12-35.37-34.75 A 4.58,4.58,0,0,0,276.94,224.88Z"/>
    <path d="M 331.36,226.05 s .08,32.49,17.08,37.91 a 15.17,15.17,0,0,0-.12-1.92 s -8.07-1.64-12-15 c -3.67-12.33-3.21-20.89-3.21-20.89 A 5.35,5.35,0,0,0,331.36,226.05Z"/>
    <path d="M 325.73,227.13 s 4.13-1.69,7.33-1 c 0,.34-.23,1.44-.23,1.44 s -4.22-.41-6.53,1 A 12.09,12.09,0,0,0,325.73,227.13Z"/>
    <path d="M 271.15,226.83 a 8,8,0,0,0,6.33-4 c 0,.79,0,2.46,0,2.46 s -2.37,2.33-4.87,2.5 A 16,16,0,0,1,271.15,226.83Z"/>
    <path d="M 244.86,271.21 a 41.66,41.66,0,0,0,2,9.42 c 1.75,5.33,4.75,12.67,4.17,17.75 a 23,23,0,0,1-5.42,11.83 c -2.25,2.75-12.67,18.5-15.33,35.58,15.08-12.25,43.17-12.08,56.83-3.92 s 19,19.83,20.08,29.17 a 39.38,39.38,0,0,1-1.33,16.17 s 6.25,1.29,9.88-5.33,6.5-16.75,7.63-21.87,5-16.5,15.25-23.25,19.25-5.25,19.25-5.25-3.5-13-9.25-21.75-6.75-9.25-6.62-14,3.13-14.37,4.5-19.5,2.42-10,1.83-14.21 a 6,6,0,0,1-1.46,1,106.91,106.91,0,0,1-4.37,21 c -3.75,12.38-2.62,15.25-1,18.63 s 10.5,13.75,13.88,27 c -8.5-1.62-24,5-30.12,19.5 s -8,35.75-17,36.25 c 4.13-19.75-3.5-30.37-10.12-37.75 s -31.75-22.87-64.5-6.25 c 2.25-11.37,9-22.37,13.75-30 s 6.63-10.5,5.38-18.25-4.37-13.12-5.25-19.87 A 8.83,8.83,0,0,1,244.86,271.21Z"/>
    <path d="M 245,272.32 c .89.24,1.79.44,2.61.6 a 60.81,60.81,0,0,1,0-17.4 l .2-1.67 a 16.56,16.56,0,0,1,13.1-26.72 h 1.43 l 1,.07 h .11 a 49.58,49.58,0,0,1,10.75,2.48 l -1.37-2.34 a 50.4,50.4,0,0,0-9.11-2,18.48,18.48,0,0,0-2.19-.21 h -.69 a 18.6,18.6,0,0,0-18.58,18.55,18.41,18.41,0,0,0,3.34,10.57 A 63.15,63.15,0,0,0,245,272.32Z"/>
    <path d="M 281.93,232.32 c 3.58,1,8.12,1.61,12.07.41-3.86.06-7.94-.8-13.21-2.57Z"/>
    <path d="M 278.58,226 a 39.86,39.86,0,0,0,4.17-20q-1.13-.27-2.25-.57 a 4,4,0,0,0,.06.83,36.07,36.07,0,0,1-3.34,17.14Z"/>
    <path d="M 306.27,385.49 A 38.62,38.62,0,0,1,283,411.74 a 39.69,39.69,0,0,1-20.24,2.16,38.8,38.8,0,0,1-14.45-5.5,37.85,37.85,0,0,1-12.48-12.9,38.81,38.81,0,0,1-5-14.84,101.24,101.24,0,0,1-.14-14.82q0-1.51.09-3 l -.06.17 a 127.26,127.26,0,0,1,2.86-21,14.73,14.73,0,0,0-2.46.84 c -.64.41-.7,2.35-.84,3.16q-.57,3.2-.92,6.43 c -.44,4-.66,8-.74,12.07-.17,7.94-.58,16.09,1.85,23.75 a 40.66,40.66,0,0,0,19.7,23.6,39.64,39.64,0,0,0,20.19,4.53 A 40.08,40.08,0,0,0,292,409.12 a 42.45,42.45,0,0,0,7.74-7.06,39.42,39.42,0,0,0,6.1-9.73q.56-1.26,1-2.55.24-.65.45-1.3 a 4.52,4.52,0,0,1,.21-.66 c .19-.36.11-.26.54-.4 a 14.16,14.16,0,0,0,4.47-1.9,10.64,10.64,0,0,0,3.09-3.58 A 14.2,14.2,0,0,1,306.27,385.49Z"/>
    <path d="M 332.26,227.24 a 20.18,20.18,0,0,1,4.73.16,10.88,10.88,0,0,0-4.75-1.34Z"/>
    <path d="M 357.5,330.53 c -.64-.09-1.48-.18-2.36-.25,5.73,20.42,3.86,41.61,3.86,41.61,1.9-.54,1.9-3.71,1.9-12.16 A 114.69,114.69,0,0,0,357.5,330.53Z"/>
    <path d="M 347,261.67 c 0,.26-.05.51-.07.77 l 1.48.63 a 21.07,21.07,0,0,0-2.29-8.66 A 22.57,22.57,0,0,1,347,261.67Z"/>
    <path d="M 325.63,227.18 c -1.49-1.81-5.87-8.27-5.88-22q-1,.29-2,.54 c 0,5.66.78,16.48,6.08,22.26 l -.38.21 c -3,1.75-9.8,4.17-13.55,4.5,3.83.58,11.08-1.83,16.5-4.08 l .3-.11-.12-1.65 C 326.25,227,325.93,227.06,325.63,227.18Z"/>
  </g>
<script type="text/ecmascript" xlink:href="param.min.js"/> 
</svg>
