<?xml version="1.0"?>
<svg xmlns="http://www.w3.org/2000/svg" xmlns:xlink="http://www.w3.org/1999/xlink" viewBox="0 0 150 150">
  <title>BT002_OA029</title>
  <g id="skin-tone">
    <path d="M 68.69,80.74 a 11.65,11.65,0,0,0,4.23,1.43 c 1.84.07,5.67,0,6.69,1.91 a 8.44,8.44,0,0,0,4.51-2.46 S 81,80.42,80.91,79.11 s 1-4.56-1.31-7.25 S 74.85,68.92,73,69.8,69.16,72,69.35,74.67Z" fill="param(skin_tone)"/>
  </g>
  <g id="main-colour">
    <path d="M 68.41,80.47 a 10.82,10.82,0,0,0,3.69,1.64 c 2.25.55,5.05-.2,6.28.89 l 1.23,1.09 a 12.63,12.63,0,0,0,4.64-2.8 c 1.43.89,2.53,3.14,3.76,5.6 s 4.1,7.65,6.08,9.49,4.92,2.8,6.63,4.1,2.73,3.83,1.78,7.24-2,6.35-5.94,7.38-9.29,1-12-.07-3.42-4.3-4.51-6.83-2.12-5.6-6.49-8.4-7.45-3.42-8.33-6.42-.34-4.37.89-6.49 A 16.86,16.86,0,0,0,68.41,80.47Z" fill="param(main_colour)"/>
    <path d="M 65.07,94.81 a 11.46,11.46,0,0,0,1.23,4.3 c 1.23,2.66,2.39,10.11,1.84,12 a 32.51,32.51,0,0,0,4.17,2.39 l 3.42-1.16 a 54.86,54.86,0,0,1,2.19-8.95 c -3.48-3.55-5.67-4.85-8.2-5.74 S 65.68,95.77,65.07,94.81Z" fill="param(main_colour)"/>
  </g>
  <g id="fixed-colours">
    <path d="M 77,86.34 c .7-.35,1.43.38,1.57,1.06 a 1.23,1.23,0,0,1-.72,1.43,1.29,1.29,0,0,1-1.37-1 A 1.2,1.2,0,0,1,77,86.34Z" fill="#bcbec0"/>
    <path d="M 78.69,91.36 c .52-.19,1.09-.2,1.64.68 a 1.09,1.09,0,0,1-.61,1.64,1.42,1.42,0,0,1-1.33-.92 C 78.11,92,78.32,91.5,78.69,91.36Z" fill="#bcbec0"/>
    <path d="M 81.22,95.6 a 1.07,1.07,0,0,1,1.57.48 c .31.68,0,1.64-.44,1.71 A 1.24,1.24,0,0,1,81,97,1.06,1.06,0,0,1,81.22,95.6Z" fill="#bcbec0"/>
    <path d="M 84,99.25 a 1.29,1.29,0,0,1,1.64.55,1.09,1.09,0,0,1-.31,1.54,1.21,1.21,0,0,1-1.54-.51 A 1,1,0,0,1,84,99.25Z" fill="#bcbec0"/>
  </g>
  <g id="outline">
    <path d="M 103.11,102.53 c -1-2.87-3.83-3.78-5.74-4.6 a 7.51,7.51,0,0,1-3.87-3.37,87.81,87.81,0,0,1-5.65-9.65 c -.87-2.14-1.93-3.69-2.91-4.14 a 8.18,8.18,0,0,1-2.22-1.53,2.66,2.66,0,0,1-.85-2.17,24.29,24.29,0,0,0-.15-2.61,6.76,6.76,0,0,0-7.26-6.19 h 0 a 6.76,6.76,0,0,0-6.19,7.27 c 0,.3.06.57.11.83 h 0 l 0,.15 h 0 a 9.77,9.77,0,0,1-.67,3.4,24.43,24.43,0,0,1-2.32,5.74 c -1.19,2-2.64,4.4-1.59,7.51 a 9.08,9.08,0,0,0,1,4.33 c 1.59,3.1,2.73,7.7,2.78,14,2.28,1.37,4.46,2.87,4.46,2.87 L 76.43,113 s 1.09-5.17,1.74-7.45 a 34.15,34.15,0,0,1,2,5 C 81,112.78,81.89,115,85,116 s 12.2.91,14.84-1.78 a 12.06,12.06,0,0,0,2.73-4.55 A 10.41,10.41,0,0,0,103.11,102.53Z M 86.59,95.38 l -1.07-1.85.75-.76,4.28-.16.15.24 c -.41.4-1.26,1.25-2.24,2.3Z m -4.3,1.11 a 3.61,3.61,0,0,0,.16.84 h .05 a .66.66,0,0,1-.26.21,1,1,0,0,1-.79-1.86.66.66,0,0,1,.36,0 l 0,.05 A 1,1,0,0,0,82.29,96.49Z m -2.58-4.27 a .86.86,0,0,0,.38.84.72.72,0,0,1-.36.39,1.08,1.08,0,0,1-.83-1.94.72.72,0,0,1,.54,0 l -.06.07 A 1.17,1.17,0,0,0,79.71,92.22Z m 3.37-3,1.21-1.3 c 1.33,0,2.59,0,3.5.07 l .61,1 c -.52.48-1.5,1.4-2.6,2.48 l -1.41,0Z m 0,2.36-2.23.1,1.43-1.55Z m -.58-3.48-.09-.16 h .25Z m 4-2.48.68,1.21 H 85.3Z M 89,90.11 l .79,1.32-2.23,0 C 88.08,91,88.56,90.54,89,90.11Z M 84.69,94.4 l .71,1.16 c -.75.12-1.48.24-2.15.38Z m 6.64-.56.61.93-1.78.18 C 90.55,94.55,90.94,94.18,91.33,93.84Z m -5.49-9.36-2.21,2.35-1.86,0-1.46-2.67 a 8.91,8.91,0,0,0,3.75-1.92 A 5.87,5.87,0,0,1,85.84,84.47Z m -2.49-2.63 a 8.52,8.52,0,0,1-3.47,1.7 c -1.73-2.14-5.09-1.53-7.51-1.87 a 5.9,5.9,0,0,1-2.89-1.08 c .11-.65.55-.85.78-1.85 a 12.17,12.17,0,0,0,0-3.37,4.75,4.75,0,0,1,4.36-5.11 h 0 a 4.75,4.75,0,0,1,5.11,4.36,14.91,14.91,0,0,0,.45,3.57 A 9.86,9.86,0,0,0,83.35,81.84Z M 68.14,102 c -.62-2.33-1.63-3.86-2.22-5.61,1.39,1.14,3.19,1.66,5.42,2.77 A 47.82,47.82,0,0,1,72,112.66 l -3.1-1.75 A 40.12,40.12,0,0,0,68.14,102Z M 75,111.77 c -.72.32-1.7.72-2.24.94 a 46.46,46.46,0,0,0-.49-13.08 c .42.23.84.48,1.28.76 a 12.76,12.76,0,0,1,3.35,3.17 C 76.54,104.9,75.37,109.29,75,111.77Z m 9.9,2.28 c -2.14-.87-3.19-4.05-4.19-6.47 A 16.28,16.28,0,0,0,74,99.34 c -4-2.32-6.51-3.28-7.65-5.51 s -.23-4.19.55-5.78 a 46.38,46.38,0,0,0,2.39-6.56 c 2,1.28,4.38,1.18,6,1.18 a 4.54,4.54,0,0,1,3.55,1.38,2,2,0,0,0,.28.4 h .05 a 5.57,5.57,0,0,1,.36.53 c .29.49.64,1.15,1,1.88 l -1.88,0 a 1.48,1.48,0,0,0-1.67-1,1.75,1.75,0,0,0,1,3.27 A 1.33,1.33,0,0,0,78.8,88 L 81.09,88 l .55,1 c -.71.79-1.36,1.52-1.83,2.08 a 1.25,1.25,0,0,0-1.17-.15 A 1.75,1.75,0,0,0,80,94.05 a 1.26,1.26,0,0,0,.7-1 l 3.1-.16.23.39 c -.66.67-1.28,1.33-1.8,1.92 a 1.17,1.17,0,0,0-1-.07,1.68,1.68,0,0,0,1.28,3,1.19,1.19,0,0,0,.66-.89 l 3-.48.37.61 c -.46.55-.91,1.11-1.29,1.65 a 1.27,1.27,0,0,0-1.38-.14,1.68,1.68,0,0,0,1.66,2.81,1.38,1.38,0,0,0,.43-1.7 c .29-.38.7-.92,1.21-1.56 a 12.82,12.82,0,0,1,1.31,2.74 c .36,1.46-1.25,3.73-1.94,7.06 a 11.94,11.94,0,0,0,.9,6.4 A 11.11,11.11,0,0,1,84.9,114.05Z m -6.78-26 h .12 a .76.76,0,0,1-.49.5,1.08,1.08,0,0,1-.59-2,.84.84,0,0,1,.88.36 h -.09 A .9.9,0,0,0,78.11,88.08Z m 7,13.06 a 1,1,0,0,1-1-1.74.75.75,0,0,1,.75,0v0 c 0,.51.61,1.09.61,1.09 h 0 A .74.74,0,0,1,85.16,101.14Z M 101.7,106 c -.23,3-.68,7.42-4.83,8.33 a 29.53,29.53,0,0,1-8.35.43,10.63,10.63,0,0,1,.06-10 c 1.09-2.09,1.57-3.6-.57-7 l -.15-.24 c .32-.39.66-.78,1-1.18,1.3-.19,2.62-.37,3.8-.51 l 0,.07 a 10.66,10.66,0,0,0,4.43,3.45 c -1.35.18-4,.76-5.52,2.65 A 11.11,11.11,0,0,1,98.58,100,6.13,6.13,0,0,1,101.7,106Z"/>
  </g>
<script type="text/ecmascript" xlink:href="param.min.js"/> 
</svg>
