<?xml version="1.0"?>
<svg xmlns="http://www.w3.org/2000/svg" xmlns:xlink="http://www.w3.org/1999/xlink" viewBox="0 0 600 600">
  <title>one-piece-swimsuit-curvy</title>
  <g id="skin-tone">
    <g id="skin-tone-2" data-name="skin-tone">
      <path d="M 243.38,374.15 c 0,18.14,15.48,32.38,33.63,32.38,8.84,0,16.35-2.95,22.25-8.62.32.17,1.06-.91,1.38-.75 a 32.85,32.85,0,0,0,47.79-29.25 c .14-1.85-.16-12.64-.46-14.4 h 0 c 0-2.48-2.06-8.6-4.73-13.52-1.91-3.52-3.95-6.24-5.87-10.34 L 335.15,324 c -2.5-7.75-1.58-17.67-.5-22.83 a 65.16,65.16,0,0,1,2.65-8.94,22.17,22.17,0,0,0,10.66-5,25.87,25.87,0,0,0,9.27-21.67 c -.4-6.69-4.15-14.18-13.82-19.5-.57-.31-1.13-.64-1.69-1v-.11 l -.35-.18 a 12.1,12.1,0,0,0-7.6-16.59v-.44 h 0 c -4-2.33-11.4.46-11.4.46 s -.46,1.38-5.08-1.87-4-10.37-4-14.87 a 46.89,46.89,0,0,0-.13-4.74,72.15,72.15,0,0,1-27,0,5.78,5.78,0,0,0-.08.91 c 0,3.5,1.5,4.75-1.75,12 a 20.53,20.53,0,0,1-8.75,9.88,54.44,54.44,0,0,0-11-3.12,13.69,13.69,0,0,0-13.87,6.13 c -4.62,8.75-.12,15.63,3.88,18.5-2.75,22.25,4.63,35.5,7.25,40.25 s 4.63,8.5,5.5,15.13 c 1,9.07-3.51,15.59-9,22.83-1.69,2.25-3.45,4.56-5.17,7-7.25,10.5-10.25,21.38-10.25,26.63Z" fill="#f9d9c7"/>
    </g>
  </g>
  <g id="main-colour">
    <path d="M 254.73,265.13 s 11.83.33,17.42-8.08,5.33-21,4.17-27.92 c 2.83-2.25,4.17-3.42,4.17-3.42 A 37,37,0,0,0,289.07,243 a 34.45,34.45,0,0,0,26.58,11.42 c 10.17-.17,11.92-5.67,12.08-8.67 s -2.83-14.5-5.42-17.5 a 12.11,12.11,0,0,1,4.25-1.08 s 1.08,7.25,6.08,11.67,11.25,7.33,14.83,9.67 a 23.9,23.9,0,0,1,9.42,24.08 C 354.32,285.63,344,291.3,337.15,292 c -1.67,5.33-4.83,13.92-3.5,23.83 s 4.5,13.75,6.58,16.75 a 37.22,37.22,0,0,1,3.42,6.25 s -8.75.67-14.42,7-5.33,10.17-7.08,17-4.33,18.58-12.25,19 c 1.58-8.25,1.42-16-3-24.08 s -12-16.42-26.75-18.75-29.33,4.33-33.5,9.25 c 5.17-11.5,7.5-14.5,12.75-20.92 s 9.33-13,8.08-21.25-4.25-12.92-6.58-16.75 S 254.73,273,254.73,265.13Z" fill="param(main_colour)"/>
  </g>
  <g id="outline">
    <path d="M 299.9,297.21 c -11.5-1.33-21.15-4.26-29.11-19.57 C 275.57,293.38,286.73,299.38,299.9,297.21Z"/>
    <path d="M 275.08,228.47 a 38.9,38.9,0,0,1-1.66,24.22 c -5.7,13.57-19.94,11.19-19.94,11.19 l .19,2 s 15.75,1.69,21.44-12.62 a 40.43,40.43,0,0,0,1.63-25.75Z"/>
    <path d="M 279.25,225.5 s 2.83,8.8,4.14,11.21 c 7.39,13.54,23.7,20.65,36.33,18 s 9.81-13.19,3.23-27.48 l -1.42.75 s 7.43,13.44,5.13,20 c -2.67,7.58-20,7.25-30.87-.08 s -12.75-16.25-15-24 A 7.19,7.19,0,0,1,279.25,225.5Z"/>
    <path d="M 275.08,228.47 s 4.37-2.58,5.66-4.6 a 20.28,20.28,0,0,1,.61,2.38,30,30,0,0,1-5.87,4.06 A 9.45,9.45,0,0,0,275.08,228.47Z"/>
    <path d="M 321.52,228 a 10.33,10.33,0,0,1,5.5-1.75,1.19,1.19,0,0,0,.26,1.25,12.69,12.69,0,0,0-5.07,1.88 A 6,6,0,0,0,321.52,228Z"/>
    <path d="M 338.73,244.13 s -6.36-3.77-8.71-7.44 a 40.41,40.41,0,0,1-4.21-10 l 1.21-.5 s 1.38,6.25,4.13,9.92 a 24.76,24.76,0,0,0,7.94,6.69 c 1.65.9,6.75,3.63,8.31,4.44 a 22.81,22.81,0,0,1,10.44,14.19 c 2,8.75.25,17.56-6.5,24.31 s -14.56,8.19-19.19,6.38 c 4.13.31,11.5-2.25,14.63-4.75 s 8.31-7.87,9.5-15.5 A 22.63,22.63,0,0,0,352,254.13 C 348.9,250.25,344.75,247.38,338.73,244.13Z"/>
    <path d="M 334.54,311.63 c .19-9.31,1.13-11.62,3.06-17.5.25-.76.52-1.56.81-2.37 a 16.61,16.61,0,0,1-1.8.24 c -.27.78-.55,1.58-.82,2.44-1.94,6.19-3.19,11-3,19.5 s 1.81,12.38,4.38,16.44,4.31,6.75,4.56,7.44 c -5.75.5-12.31,5.5-15.37,9.88 s -4.62,11.69-6,17.63-3.63,14.75-9.5,15.53 c 1.57-8.34,1.5-16.53-4.31-26 S 294.61,341.75,284.67,339 s -24.87-2.81-35.56,6.38 a 130.24,130.24,0,0,1,11.37-17.75 c 3.94-5.25,8.06-10.81,8-17.69 s -2.37-13.19-6.12-19.5-6.56-16.56-6.81-25.31 l -2.06-1.25 a 61.63,61.63,0,0,0,4.21,21 c 4.33,11,6.29,9.88,8.67,20.25 s -5.5,18.88-6.75,20.38-11,12.5-14.87,26 c 12.25-13.62,30.75-14.12,42.37-10.12 a 34,34,0,0,1,21.5,22.17 c 3,9.25-.17,19.17-.17,19.17 s 5.36.73,9.14-5.26,5.11-18.33,9.11-26.41,14.92-11.83,18.58-11.5 c -2-4.75-4.42-7.85-6-10.48 A 30.37,30.37,0,0,1,334.54,311.63Z"/>
    <path d="M 280.86,226.92 c 3.13-3.12,6.74-9.13,6.21-20.07 l -1.9-.35v1.22 s 1.21,9.85-5.09,16.83Z"/>
    <path d="M 320.07,230.6 c .91-.36,1.91-1,3.1-1.53 l -.63-1.61q-.53.23-1,.49 c -2.12-.86-4.65-3.36-6.18-6.85-1.66-3.79-1-11.33-1.06-14.57q-1,.21-2.08.38 c -.09,2.67-.51,7.43.47,11.73,1.32,6.69,5,9.35,6.89,10.3-3.55,1.89-7.24,4.11-10.6,4 C 314.32,233.47,317.29,231.7,320.07,230.6Z"/>
    <path d="M 282.75,232.64 a 25.18,25.18,0,0,0,10.88.55 c -2.57.23-6.49-.49-11.37-2.06Z"/>
    <path d="M 253.58,251.7 a 93.48,93.48,0,0,0,0,13.07 c .59,0,1.23.06,1.9.07 a 83.85,83.85,0,0,1,0-12v-1.23 l .08-.93 a 12.7,12.7,0,0,1,6.69-23.5,8.47,8.47,0,0,1,1.32.07,39.47,39.47,0,0,1,6.89,1.43 l .87.26 h .08 c 1.71.54,3.41,1.14,5,1.71 l -.56-2.71 c -.28.17-.56.33-.86.49 a 42.52,42.52,0,0,0-10.9-3.13 l -.61-.07 a 11,11,0,0,0-1.2-.06,14.7,14.7,0,0,0-8.76,26.5Z"/>
    <path d="M 308.75,381.12 A 32.85,32.85,0,0,1,244.07,373 s 0-1.47.06-3.58 c .21-5.07,1.09-14.61,4.5-22.74 l -2.87,2.12 c -3.07,8.42-3.62,16.1-3.69,24.19 a 34.84,34.84,0,0,0,68.22,10 c 2.05-.54,5.94-2.68,7.29-5.48 a 13.25,13.25,0,0,1-6.73,3.36 C 310.38,380.95,309.62,381.06,308.75,381.12Z"/>
    <path d="M 314.41,243.89 a 41.77,41.77,0,0,1,7.88,9.24,11.26,11.26,0,0,0,1.42-.73 A 35.48,35.48,0,0,0,314.41,243.89Z"/>
    <path d="M 344.47,338.34 l -2.38.46 c 5.07,10,5.19,18.51,6.22,24 C 348.6,358,349.86,349.77,344.47,338.34Z"/>
    <path d="M 326.37,226.39 l .43,1.34 a 15.48,15.48,0,0,1,7,0 A 11.26,11.26,0,0,0,326.37,226.39Z"/>
  </g>
<script type="text/ecmascript" xlink:href="param.min.js"/> 
</svg>
