<?xml version="1.0"?>
<svg xmlns="http://www.w3.org/2000/svg" xmlns:xlink="http://www.w3.org/1999/xlink" viewBox="0 0 600 600">
  <title>midi-crew-neck-baggy-t-shirt-hourglass</title>
  <g id="main-colour">
    <path d="M 280.77,322.38 c -2.83,6.5-10,13.13-14.31,17.21 S 258,348.18,254.88,356 c -2.67,6.77-2.3,11.4-2.15,12.54 a 23.74,23.74,0,0,1,8.79-6.67 c 8.67-3.67,15-2.5,27.83.5 s 27.67,5.67,37-1 a 26.39,26.39,0,0,0,7.85-9.12 c -2-6.13-5.94-10.78-9.33-15.58-4.17-5.92-5.25-9-4.83-14.25 s 4.92-13.67,8.5-19.67 A 57.44,57.44,0,0,0,333.62,290 l -.39.11,1-6.84 s 2.7-12.76,1.65-21.26 l -3.13-13.89 a 12.06,12.06,0,0,0,1.55-1.73 h 0q.27-.36.51-.74 l 0,0 c .15-.24.29-.48.42-.73 l .1-.2 c .12-.23.24-.47.34-.71 l .07-.18 a 11.91,11.91,0,0,0,.41-1.17 c .06-.2.12-.41.17-.61 s .07-.31.1-.46.09-.49.12-.74,0-.26,0-.39 c 0-.38.06-.77.06-1.17 h 0 a 12,12,0,0,0-16-11.31 c -.53-.11-1-.26-1.51-.41 a 43.19,43.19,0,0,1,.91,6.74 c .13,4.88-1.62,12-12.75,12.63 S 286.61,241.25,281,236 a 29.69,29.69,0,0,1-5.63-7.12 l -.13,0 c -5.33-2.17-11.92-4-16.83-1.17 s -7.33,8-6.42,14 S 257.88,251,263,252.18 c -.08,8.08,1.5,22.33,4.83,29.25,0,0,4.06,10.79,8,20.87 A 86.33,86.33,0,0,1,280.77,322.38Z" fill="param(main_colour)"/>
  </g>
  <g id="outline">
    <path d="M 335.82,281.71 c 1.78-11.28,1-26.3-2.59-33.81 a 47.63,47.63,0,0,0-7.43-11.47 s 4.65,5.6,7.05,16.6 c 3.25,14.88,1.11,25.65.38,30.62 s -2.61,13.5-6.3,19.62 c -4.42,7.33-6.8,13.75-7.72,18.75 a 13.29,13.29,0,0,0-.18,3.13,33.16,33.16,0,0,0,4.82,16.24,44,44,0,0,1-2.58-8.7 c .31.57.64,1.11,1,1.61 l .69,1 c .71.91,1.49,2,2.31,3.12 l .7,1 c 2.63,3.71,5.57,8.19,7.82,12.13-9.06,17.31-27.58,13.62-43.48,10-5.57-1.25-10.83-2.43-15.38-2.63-12.11-.52-18.86,4.51-22,7.88 a 33.26,33.26,0,0,1,2.93-11.47,42.13,42.13,0,0,1,7.45-11 c 2.18-2.33,7.39-7.09,11.86-12 l .74-.84 c .82-.93,1.6-1.86,2.33-2.78 l .76-1 c .2-.27.38-.54.57-.8 a 28.68,28.68,0,0,1-5,13.3 C 283,332,283,321.65,279.86,311 a 163.84,163.84,0,0,0-7.49-19.94 h 0 a 125.18,125.18,0,0,1-5.32-14.91 h 0 c -2.54-8.6-2.85-19.59-2.88-22.93,0-.41,0-1.11-.1-2 a 12,12,0,0,1,.54-24,7.81,7.81,0,0,1,2,.18,12,12,0,0,1,1.62.38,64.35,64.35,0,0,1,6.36,2.18 c 2.08,3.1,13,18,31.23,18q.89,0,1.81,0 c 5.24-.28,9-2.08,11.24-5.36,3.35-4.95,2.07-11.74,1.37-14.43 A 10.54,10.54,0,0,1,329,227 c -2.08-1.37-5.25-2.7-10.34-.47 l -.9.39 c .21.74.49,1.61.61,2.08.63,2.64,1.53,8.37-1.19,12.39-1.84,2.73-5.1,4.24-9.69,4.48-15.38.83-25.64-9.74-29.67-14.84-.19-.25-1.14-1.52-2-2.8 l -1.33-.51 a 47.82,47.82,0,0,0-5.16-1.64 A 14,14,0,1,0,262.13,253 c 0,.18-.55,6.82,1.83,18.9 a 46.44,46.44,0,0,0,3.15,9.94 c 2.59,7,5.81,14.9,8,20.91,2.44,6.8,4.46,13.38,4.64,19.87-.26.57-.54,1.14-.84,1.69-4.5,8.08-17.5,15.75-23.42,27.83 a 41.22,41.22,0,0,0-4.07,13,27.64,27.64,0,0,0-.62,4.36 l 0,.08,0,0 c 0,.53,0,1.06,0,1.59 a 27.66,27.66,0,0,0,.16,3,21.39,21.39,0,0,1,1.84-4 h 0v-.06 c 1.3-2,7.41-9.93,22.06-9.29,4.37.19,9.55,1.35,15,2.58,15.77,3.55,35,8.1,44.8-10.44 h 0 s .13-.22.25-.49 l 0,0 h 0 c .05-.12.1-.24.15-.36 a 56.27,56.27,0,0,0-5.35-9.71 c -6.17-9.17-9.83-13-8.92-20.08.77-5.92,5.19-13.63,8.09-18.78 h 0 C 332.86,297.27,334,293,335.82,281.71Z"/>
    <path d="M 255.61,361.88 s 7.38-7,22-4.87,21.88,5,30.75,5.63 c -6.37-1.25-18.75-4.12-23.62-5.25 S 264.36,352.5,255.61,361.88Z"/>
  </g>
<script type="text/ecmascript" xlink:href="param.min.js"/> 
</svg>
