<?xml version="1.0"?>
<svg xmlns="http://www.w3.org/2000/svg" xmlns:xlink="http://www.w3.org/1999/xlink" viewBox="0 0 600 600">
  <title>professionally-pink-voluptuous</title>
  <g id="main-colour">
    <path d="M 368.19,385.71 c -.17-20.33-1-38.5-7.83-53.5-5.42-11.89-12-20.62-15.71-25.81-1.95-3.15-3.46-6-3.83-8.92-.32-2.52.72-7.1,2.1-12.25 a 21.84,21.84,0,0,0,8.72-18.35 c -.17-5.73-3.26-10.51-5.2-13 a 16.55,16.55,0,0,0-9.49-26.46 h 0 c -2.24-1.41-6.76-.84-11.76.54-.09-.09-.16-.2-.24-.3,3.12-2.74,4.56-6.64,1.41-11.21,1.33-4.92.67-6.67-7.83-6.92 a 40.74,40.74,0,0,0,.46,5.82,55.35,55.35,0,0,1-18.54,4.18,54.54,54.54,0,0,1-19-2.69 l -.16-.31.75-6.42 a 15.27,15.27,0,0,0-8.5,1.67 c -4,2.25-1.33,6.75-1.33,6.75 s -4.42,2.08-3.17,5.75 a 9.5,9.5,0,0,0,2.65,3.73,47.83,47.83,0,0,0-10.74-1.92 c -6.75-.25-13.12,4.13-15.87,9.63 s -2.75,12.13,1.5,18.75 c -2.5,13.63.38,23.13,3.75,34,0,0,.38,8.24-5.62,21.9 s -18.5,34.33-19.67,56,1.67,32,2.33,40.83-.17,21.83-2.5,26.17 c 9.67-2.83,22.67-1.5,42.5,1.83 S 314,444.88,340,437.38 s 34.17-25.5,34.17-25.5 S 368.36,406,368.19,385.71Z" fill="param(main_colour)"/>
  </g>
  <g id="accent-colour-1">
    <path d="M 243.55,312.71 s 25.67,15.83,59.17,14.83 c 19.33-1,31.67-5.67,44.33-18.33 a 139.91,139.91,0,0,1,7.5,12.83 s -10.5,10-28.33,16-40.33,7.5-67.33-1.5 c -10.17-3-21.5-10-21.5-10Z" fill="param(accent_colour_1)"/>
    <path d="M 242.72,347.71 s 18.83,8.33,30,9 c -1.67,7.5-5.67,16.5-12.83,19 s -15.33-1.67-17.33-8.17 S 241.72,353,242.72,347.71Z" fill="param(accent_colour_1)"/>
    <path d="M 347.55,345.71 s 9.5-5.17,13.83-10.5 c 3,8,5.67,21.5,5.83,26.33-5.67,4.33-10.67,7.33-15.33,1.17 S 347.55,345.71,347.55,345.71Z" fill="param(accent_colour_1)"/>
  </g>
  <g id="outline">
    <path d="M 286.64,294 c -8.25-1.92-14.25-9-14.25-9 A 22,22,0,0,0,286,295.63 c 8.33,2.25,13.5-1.25,13.5-1.25 S 294.89,295.88,286.64,294Z"/>
    <path d="M 367.22,351.54 c -3.67-23.5-19.75-43.67-22.5-47.67 s -3.17-7.17-2.33-11.83 a 44.11,44.11,0,0,1,1.71-6.61,20.8,20.8,0,0,0,4.29-4.23,21.43,21.43,0,0,0,3.67-18.58,25,25,0,0,0-10.17-13.83 c -4.25-3-7.92-6.17-7.92-6.17,1.42,2.08,6,7.25,8,8.67 a 20.75,20.75,0,0,1,7.25,10.08,20.1,20.1,0,0,1-1.33,16.42 c -2.67,4.92-6.33,7.75-9.92,10.08 a 10.67,10.67,0,0,0,3.49-.92 c -4.39,9.35-.65,15.87,3.6,21.59.25.34.52.71.79,1.1-3.1,3.4-17.19,16.89-45.71,17.1-29.75.23-51.59-12.12-55.21-14.29 l 1-2.08 a 68.62,68.62,0,0,0,5-18.62 c .53,1.36,1,2.56,1.28,3.55,1.19,3.88,3.25,11.38,3.56,14.31,0,0-1.12-13.5-4.87-24.12 s -5.17-19.54-3.17-31.62 c -4.25-4.58-4.83-13.25-.83-19.25 a 16.87,16.87,0,0,1,15.25-7.5,43.84,43.84,0,0,1,9.91,2,19.22,19.22,0,0,0,5.88,2.71 c .13,0-6.54-3.42-7.92-7.83-.75-2.39,1.3-3.7,2.31-4.19 a 18.4,18.4,0,0,0,7.28,5.19 c -5.42-3.62-7.62-6.5-7.29-10 s 8.08-3.37,8.08-3.37 a 33.2,33.2,0,0,1-.63,4.27,33.71,33.71,0,0,1-3.62-1.4 c 16.75,11.58,41,4,47.5-1.33-1,.48-2.07.91-3.09,1.32 a 18.44,18.44,0,0,1-.47-3.63 s 5.69-.37,6.31,2.13 c .73,2.93-3.75,7.69-7.5,10.75 a 24,24,0,0,0,7.37-5.77,7.06,7.06,0,0,1,.88,5.54 c -1,3.38-8.19,8.23-8.19,8.23 s 2.1,0,5.26-2.37 a 49.18,49.18,0,0,1,5.59-1.69 s 4.58-.83,7.25-.17 c -2.33-1.83-7.5-1.33-7.5-1.33 a 21.24,21.24,0,0,0-2.45.6 c 3.73-4,1.3-8.6.15-10.3 A 5.8,5.8,0,0,0,328,212 c -.66-2.37-4.75-3.5-10.17-3.37,0,2,.48,5.42.65,6.61 a 60,60,0,0,1-36.6,1.27,46.47,46.47,0,0,0,.87-7.76 c -6.12.29-11.33,1.58-12,5.67 a 6,6,0,0,0,.59,3.69 c -1.63.62-5,2.44-3.13,6.52 a 9.14,9.14,0,0,0,1,1.69,40.65,40.65,0,0,0-6.06-1.12,18.61,18.61,0,0,0-17.56,29.06 c -1.25,6.44-1.5,15.69.31,22.88 a 95.11,95.11,0,0,0,3.66,11 c -1,17.59-10.18,28.76-18.77,50.62-8.83,22.5-8.5,48.33-5.5,61.67 s 1.33,24-1.33,34.17 c 0,0,13.33-2.67,23.67-.83 s 22.17,2.83,34.67,5.17,45.5,7.67,67.67-4,25.5-23,25.5-23 C 366.22,400.21,370.89,375,367.22,351.54Z m -18.58-5.17 c 4-1.75,10.13-7.21,12.17-9.1.62,1.44,1.2,2.85,1.73,4.24-4,5.22-10.92,8.91-13.31,10.09 C 348.93,349.73,348.74,347.92,348.64,346.38Z M 363,343 c 1.5,4.67,2.43,11.2,3,18.05-2.64,2.4-8,5.78-11.57,3.23-2.59-1.84-4.17-6.63-5-11.32 A 40,40,0,0,0,363,343Z m -63-14.72 c 30.38,0,44-14.05,46.71-17.32,1.91,2.87,4.25,6.78,6.64,11.16-11,10-38.63,23.78-70.85,18.91-28.53-4.31-40.92-12.78-43.81-15,1.93-4.36,3.79-8.31,5.46-11.86 C 254.27,320.06,273.57,328.25,300,328.25Z m 37.54,108.63 c -22.17,5.33-40.33,1.83-55.67-.67 s -42.17-7.67-54.83-4.33 c 2.83-9,2.5-23,.5-33.67 s -3.33-30,1.83-47.33 a 204.33,204.33,0,0,1,8.47-23 c 9.16,5.92,35.72,18.13,67.28,15.36,28.43-2.5,45.08-16.2,49-19.77,2.09,3.9,4.18,8.1,6,12.2-2.07,1.78-8.75,7.39-13.35,9.69,1.52,30.43,15.79,20.8,19.5,17.77.89,11.4,1,23.21,1.46,28.4.5,5.5.17,13,5.17,20.83 C 372.89,412.38,359.72,431.54,337.55,436.88Z"/>
    <path d="M 241.64,367.25 c 2.88,9.63,15.63,13.63,23.75,5.88 A 25.73,25.73,0,0,0,273.51,356 s -17.12-2.5-31.25-9.75 C 242.26,346.25,238.76,357.63,241.64,367.25Z m 10,7.63 c -8.34-2.47-9.52-11.66-9.21-18.33,9.5,4.31,23.24,7.36,26.9,8.13 C 266.5,370.72,260.7,377.57,251.64,374.88Z m 19.75-17.25 A 17.15,17.15,0,0,1,270,363 a 131.12,131.12,0,0,1-27.51-8.12,41.8,41.8,0,0,1,.85-5.65 A 136.07,136.07,0,0,0,271.39,357.63Z"/>
    <path d="M 328.22,377.71 c -10.33,18.83-29.83,34.67-29.83,34.67 C 309.72,406.54,323.39,390.88,328.22,377.71Z"/>
    <path d="M 329.55,401.21 c -12.83,12-25.33,16.67-25.33,16.67 C 307.89,417.71,323.55,411.54,329.55,401.21Z"/>
  </g>
<script type="text/ecmascript" xlink:href="param.min.js"/> 
</svg>
