<?xml version="1.0"?>
<svg xmlns="http://www.w3.org/2000/svg" xmlns:xlink="http://www.w3.org/1999/xlink" viewBox="0 0 600 600">
  <title>basic-jeans-curvy</title>
  <g id="skin-tone">
    <path d="M 357.23,265.54 c -.4-6.69-4.15-14.18-13.82-19.5-.57-.31-1.13-.64-1.69-1 l 0-.11-.35-.18 a 12.1,12.1,0,0,0-7.6-16.59v-.44 h 0 c -4-2.33-11.4.46-11.4.46 s -.46,1.38-5.08-1.87-4-10.37-4-14.87 c 0-2.15,0-3.55-.13-4.74 a 73.83,73.83,0,0,1-27,0,5.78,5.78,0,0,0-.08.91 c 0,3.5,1.5,4.75-1.75,12 a 20.53,20.53,0,0,1-8.75,9.88,54.44,54.44,0,0,0-11-3.12,13.69,13.69,0,0,0-13.87,6.13 c -4.62,8.75-.12,15.63,3.88,18.5-2.75,22.25,4.63,35.5,7.25,40.25 s 4.63,8.5,5.5,15.13 c 1.05,9.07-3.52,15.59-9,22.85,7.22,2.63,22.85,7.86,37.4,9.7,17.28,2.19,33.22.55,41.46-9.61 a 48.08,48.08,0,0,1-2.05-5.32 c -2.5-7.75-1.58-17.67-.5-22.83 a 65.16,65.16,0,0,1,2.65-8.94,22.17,22.17,0,0,0,10.66-5 A 25.87,25.87,0,0,0,357.23,265.54Z" fill="param(skin_tone)"/>
  </g>
  <g id="main-colour">
    <path d="M 348,353.49 h 0 c 0-2.48-2.06-8.6-4.73-13.52-1.91-3.52-3.95-6.24-5.87-10.34 l -.44.47 c -.39-.65-.77-1.3-1.12-2 a 14.27,14.27,0,0,1-2.55,2.38 c -1.56-.81-1.62,1.31-1.62,1.31 a 34,34,0,0,1-7.06,3.44 c -1-1.69-2,.56-2,.56 a 30.62,30.62,0,0,1-8.12,1.44,109.44,109.44,0,0,1-16.69-.62 c -1.06-1.87-1.81-.19-1.81-.19 s -9.75-1.44-13.81-2.56 c -.56-1.62-1.31-1.25-2-.37-2.56-.69-10.37-3-13.06-3.87-.44-1.87-1.87-.56-1.87-.56 l -4.52-1.61-1.31,1.82-.81-.35 c -1.74,2.33-3.58,4.72-5.36,7.3-7.25,10.5-10.25,21.38-10.25,26.63 a 38,38,0,0,0,1.14,9.38 c 0,.25,0,.49,0,.74 a 32.84,32.84,0,0,0,55.6,23.68,32.85,32.85,0,0,0,48.74-28.75 C 348.56,366,348.25,355.26,348,353.49Z" fill="param(main_colour)"/>
  </g>
  <g id="fixed-colours">
    <path d="M 316.83,344.27 s 3.38,15.42.88,30.75 C 320.58,368.52,320.21,353,316.83,344.27Z" opacity="0.5"/>
  </g>
  <g id="outline">
    <path d="M 311.07,327.5 c 1,.2,1.7-1.44.9-3.34 a 29,29,0,0,1,1.68-6.1 S 308.58,326.79,311.07,327.5Z"/>
    <path d="M 320.07,230.6 c 2.78-1.1,6.48-4.42,13.74-2.83,0,0-3-2.13-8.11-1.29 a 16,16,0,0,0-4.2,1.47 c -2.12-.86-4.65-3.36-6.18-6.85-1.66-3.79-1.05-11.33-1.06-14.57q-1,.21-2.08.38 c -.09,2.67-.51,7.43.47,11.73,1.32,6.69,5,9.35,6.89,10.3-3.55,1.89-7.24,4.11-10.6,4 C 314.32,233.47,317.29,231.7,320.07,230.6Z"/>
    <path d="M 345.92,246.52 a 164.81,164.81,0,0,1-16.71-9.92 c 1.59,2.21,8.54,7.25,13,9.67,5.21,2.8,11.13,8.07,12.83,14.58,2,7.67,1.29,14.67-4.46,22.17 s -16.25,9.75-22.37,8.13 a 16.59,16.59,0,0,0,8,1.81,58.8,58.8,0,0,0-3.48,16 c -.43,9.4.73,14.52,2.72,18.62 a 21.79,21.79,0,0,1-2.35,2.29,1.12,1.12,0,0,0-.57-.19 c -.92,0-1.15.71-1.09,1.47 a 27.77,27.77,0,0,1-7,3.44,1.3,1.3,0,0,0-.55-.44 c -.85-.29-1.28.31-1.46,1.07-7.43,2.05-16.21,2-24.81,1-.31-.92-.84-1.77-1.65-.76 a 3.17,3.17,0,0,0-.32.51 c -4.72-.65-9.36-1.58-13.64-2.6-.2-.9-.65-1.71-1.68-.86 a 2.7,2.7,0,0,0-.35.36 c -5.06-1.27-9.54-2.64-13-3.78-.13-.74-.48-1.34-1.37-.85 a 2.76,2.76,0,0,0-.38.26 c -2-.67-3.46-1.22-4.35-1.56 l 1.08-1.45 c 4.68-6.21,8.26-13,5.25-23.75-2.77-9.94-7.63-12.17-10.77-27.58 a 83.87,83.87,0,0,1-1.13-21.27 l 0-.24v-.17 l 0-.4 c 0-.27,0-.42,0-.42 h 0 l .08-.93 a 12.7,12.7,0,0,1,6.69-23.5 h 0 c .43,0,.87,0,1.32.07 a 39.48,39.48,0,0,1,6.89,1.43 l .87.26.08,0 c 1.89.6,3.77,1.27,5.55,1.89,4.76,1.67,10.65,3.5,16.65,2.33-3.35.3-9-1-16.09-3.73,2.75-1.52,10.29-7.13,9.53-22.61 l -1.9-.35 c 0,.36,0,.75,0,1.22,0,0,1.78,14.42-10.12,20.74 h 0 a 42.52,42.52,0,0,0-10.9-3.13 l -.61-.07 a 11,11,0,0,0-1.2-.06,14.7,14.7,0,0,0-8.79,26.48,93.5,93.5,0,0,0,.74,20.13 c 1.75,12.27,5.5,17.39,9.13,24.39 s 6.07,17.93-2.62,28.16 C 244,344.21,242.19,357.87,242.07,373 a 34.84,34.84,0,0,0,68.22,10 c 2.05-.54,5.94-2.68,7.29-5.48,0,0-2,2.43-6.73,3.42v0 c -.47.07-1.23.18-2.1.24 A 32.85,32.85,0,0,1,244.07,373 h 0 s 0-1.47.06-3.58 c .22-5.22,1.13-15.19,4.8-23.46,1.31-3.17,5.22-9.21,8.89-14.46,1.5.7,3.14,1.4,4.91,2.08 a 1.18,1.18,0,0,0,.17.78,1.33,1.33,0,0,0,2.1.06,131.38,131.38,0,0,0,13.59,4,1.13,1.13,0,0,0,.31.67,1.28,1.28,0,0,0,1.85-.16,142.29,142.29,0,0,0,14.32,2.45,1.31,1.31,0,0,0,.47.83,1.24,1.24,0,0,0,1.88-.57,100.42,100.42,0,0,0,16.47.37,61.23,61.23,0,0,0,9.91-1.42 c .56.45,1.23.66,1.67-.25,0-.06,0-.13.07-.19 a 27,27,0,0,0,9.19-4.26 c .63.22,1.21.18,1.27-.7 a 2.77,2.77,0,0,0,0-.36,11.7,11.7,0,0,0,2.19-2.68 l .57.85 c 8.5,12.55,8.42,23.31,9.64,29.79.35-5.77,2.16-16.82-8.5-32.51-3.57-6.17-7-11.63-4.71-27.38 a 60.66,60.66,0,0,1,2.79-10,19.09,19.09,0,0,0,4.15-1 c 4.38-1.62,14.89-7.68,16.27-20.81 S 352.78,249.88,345.92,246.52Z M 295.38,337 a 10.73,10.73,0,0,0-.45,3.14 c -4.76-.58-9.3-1.4-13.46-2.33.07-.14.13-.28.19-.44-.84,1.09-2.83,1.76-2.19-1.09 s 2-4.35,2.84-1.35 c 0,0,0-.15,0-.38 C 286.66,335.56,291,336.39,295.38,337Z m -16.81.13 c -5-1.22-9.35-2.55-12.77-3.72.07-.12.15-.23.22-.36-1.22,1.31-3.18,1.32-2-1.33 s 2.78-3.67,3.15-.95 c 0,0,0-.22,0-.53,4,1.33,8.14,2.56,12.28,3.62 A 10.16,10.16,0,0,0,278.57,337.11Z m -20.18-6.47 c .69-1,1.36-1.92,2-2.8q2.09.76,4.2,1.49 a 10.29,10.29,0,0,0-1.64,3.07 C 260.82,331.63,259.25,331,258.39,330.64Z m 39.44,9.8 c 0-.14.06-.27.09-.42-.62,1.28-2.43,2.22-2.22-.7 s 1.41-4.37,2.41-1.68 c 0,0,0-.13-.06-.33 a 97,97,0,0,0,12.82.6 c 0,.73,0,1.85,0,3 A 108.49,108.49,0,0,1,297.83,340.44Z m 16.05.38 c -.72,0-1.44.05-2.17.07 a 25.17,25.17,0,0,0,.08-3 c .61,0,1.23,0,1.84-.06 a 44.65,44.65,0,0,0,8.84-1.34 c 0,.12,0,.24,0,.34.34-1.66,1.56-2.74,2.23.1 s -.16,4-2,2.4 c 0,0,.09.13.23.31 A 56.35,56.35,0,0,1,313.89,340.82Z m 11.88-1.92 a 8.31,8.31,0,0,0-.6-3.24,28.23,28.23,0,0,0,6.65-3.29,3.87,3.87,0,0,0,.16.36 c -.16-1.78.65-3.12,2.19-.64 s 1.5,4-1,2.86 l .3.22 A 25.22,25.22,0,0,1,325.77,338.9Z m 9.88-5.56 a 9.19,9.19,0,0,0-1.61-2.71,16.93,16.93,0,0,0,2-2.07 c .49.92,1,1.8,1.6,2.68 C 337.05,331.9,336.41,332.61,335.65,333.33Z"/>
    <path d="M 270.79,277.64 c 9.5,26.25,31,21.75,38.63,19.13 s 18.75-11,19.75-27.37-14.75-25.5-14.75-25.5 c 9.25,8.25,12.25,16.88,12.38,23.88 s -3.12,24.63-25.12,28.25 S 270.79,277.64,270.79,277.64Z"/>
    <path d="M 253.72,341.82 a 8.25,8.25,0,0,0,13.17-4.5 A 11,11,0,0,1,253.72,341.82Z"/>
    <path d="M 297,340.69 a 19.55,19.55,0,0,1,.32-3.61 A 4.93,4.93,0,0,0,297,340.69Z"/>
    <path d="M 323.06,336 a 20.58,20.58,0,0,1,.77,3.72 A 5.36,5.36,0,0,0,323.06,336Z"/>
    <path d="M 332.28,331.75 a 19.56,19.56,0,0,1,1.86,3.12 A 4.93,4.93,0,0,0,332.28,331.75Z"/>
    <path d="M 280.59,337.82 a 23.51,23.51,0,0,1,.92-3.81 A 5.9,5.9,0,0,0,280.59,337.82Z"/>
    <path d="M 264.84,333.47 a 22.41,22.41,0,0,1,1.8-3.75 A 5.65,5.65,0,0,0,264.84,333.47Z"/>
  </g>
<script type="text/ecmascript" xlink:href="param.min.js"/> 
</svg>
