<?xml version="1.0"?>
<svg xmlns="http://www.w3.org/2000/svg" xmlns:xlink="http://www.w3.org/1999/xlink" viewBox="0 0 600 600">
  <title>slender-top-template</title>
  <g id="main-colour">
    <path d="M 271.36,260.21 S 285.69,253.71,288,246 c -.17-9-3.67-18.17-3.67-18.17 s 3-1,4-2.67 c 2.67,3.17,5.17,14.17,5.5,19.83,11.83,4.17,21,11.33,23.67,14.67,2.33-7.83,9.17-12.5,9.17-12.5 s -10-15.33-11-19.5 a 12.89,12.89,0,0,1,4.33-1,60.62,60.62,0,0,0,5.83,11.67 c 3.5,5.17,10.5,17.5,8.17,32.33 s -7.5,29.83-9.17,39.33-2,12.17,2.5,19.67,10.17,13.67,12.5,25.83,5.33,28.5,9.5,36.33,7.83,13,18.17,16 c -3.33,7.83-15.17,23.83-27.5,27.5,2,3,2.5,4.67,1.33,4.33 a 31.32,31.32,0,0,0-13.67.33 c -5.67,1.67-8,3.17-11.83,4.83 s -11.67,3.17-17.5,0-8.17-4.5-16.5-2.67-14,2.83-19.5.33-14.5-12.17-26.5-10.5 a 59.07,59.07,0,0,1,4.33-5,39.2,39.2,0,0,1-21.5-22.83 c 12-2.17,18.17-10.33,21.5-17.67 s 9.67-28.33,17.5-39,18.83-20.5,22.17-26.83,3.67-14,.17-22.83 S 271.52,271.71,271.36,260.21Z" fill="param(main_colour)"/>
  </g>
  <g id="fixed-colours">
    <path d="M 300,321.75 c -.87,5.25-3.75,10.25-6.37,15.38 a 93.6,93.6,0,0,0-8.12,27.13,138.61,138.61,0,0,0-.75,19.63 c 0,3.25-1,12.63-1,12.63 s 2.88-9.87,3-18.25 c .08-5.16,1.67-13.87,3.56-21.29,1.49-4,3.93-9.42,6.24-9.42,3.3,0,4.71,3.53,4.47,10.55q-.12,1.58-.26,3.15 c -1,11,.13,28.25,3,34-1-9.25-.5-22.37.13-31.25 S 306.23,333.63,300,321.75Z" opacity="0.15"/>
    <path d="M 323.92,341.75 c 3.21,8.1,7.06,18.88,7.06,18.88 s -4-23.75-14.5-37.62 c 2.75,9.5,6.38,29.88,6.75,39.63 a 85.72,85.72,0,0,0-.12-19.5 C 322.83,341.94,323.3,340.61,323.92,341.75Z" opacity="0.15"/>
    <path d="M 274.61,339 c -6.75,7.38-12,18-12,18,2.4-4.46,7.84-10.91,10.47-13.6.92-.37,3.78-2.46,2.45.81v0 l -.18.26 c -4.5,6.63-11.87,22-14,31.63,5.5-14.87,18.5-35.12,20.25-38.12 a 44.3,44.3,0,0,0,5.63-16.75 C 286.36,324.63,281.36,331.63,274.61,339Z" opacity="0.15"/>
  </g>
  <g id="outline">
    <path d="M 339.31,434.67 a 33.87,33.87,0,0,0,8.61-4.56,55.24,55.24,0,0,0,7.51-6.45,57.16,57.16,0,0,0,11.23-16.21 h 0 l .71,1.44 a 26.1,26.1,0,0,1-11.4-6,33.14,33.14,0,0,1-7.47-10.4,70,70,0,0,1-4.31-11.9 c -1.11-4.05-2-8.14-2.83-12.23-1.7-8.18-2.74-16.45-6.24-23.87 a 67.78,67.78,0,0,0-6.23-10.6 c -1.16-1.73-2.38-3.45-3.4-5.35 a 21,21,0,0,1-2.29-6.11,25,25,0,0,1-.31-6.48,52.55,52.55,0,0,1,.82-6.31 c .78-4.15,1.88-8.19,3-12.21,2.21-8,4.57-16,5.79-24.15 a 55.3,55.3,0,0,0,.59-12.23,41.09,41.09,0,0,0-5.12-17.4 c -1-1.8-2.1-3.45-3.29-5.22 A 54.88,54.88,0,0,1,319.08,227 h 0 l .81.67 a 4.93,4.93,0,0,0-.88,0,7.83,7.83,0,0,0-1,.17,9.5,9.5,0,0,0-1.9.71 l .52-1.16 a 29.19,29.19,0,0,0,2.14,4.92 c .85,1.62,1.76,3.23,2.7,4.82,1.89,3.18,3.88,6.31,5.94,9.38 l .52.77-.75.59 a 27.84,27.84,0,0,0-2.8,2.56,29.78,29.78,0,0,0-2.47,2.93,23.09,23.09,0,0,0-2,3.23,19.21,19.21,0,0,0-1.36,3.49 l -.51,1.72-1.2-1.31 a 50.73,50.73,0,0,0-10.76-8.6,60.44,60.44,0,0,0-12.55-5.86 l -.63-.21-.06-.66 a 63.86,63.86,0,0,0-1.74-10.08 c -.42-1.66-.91-3.29-1.46-4.91 a 49,49,0,0,0-1.86-4.72 l 1.61.27 c -.33.33-.65.63-1,.94 a 10.62,10.62,0,0,1-1.13.9,13.67,13.67,0,0,1-2.58,1.19 l .55-1.41 a 29.9,29.9,0,0,1,1.66,4.67 c .44,1.56.79,3.13,1.1,4.71 s .56,3.16.79,4.75.4,3.18.55,4.77 l 0,.37-.2.29 a 37.86,37.86,0,0,1-3.55,4.43,36.92,36.92,0,0,1-4.16,3.85,39.38,39.38,0,0,1-4.65,3.23,34.29,34.29,0,0,1-5.11,2.54 h 0 l .66-1 a 117.45,117.45,0,0,0,3.4,20.71q1.31,5.09,3.09,10 a 101,101,0,0,1,3.5,10.11,36.58,36.58,0,0,1,1.36,10.83,25.28,25.28,0,0,1-.92,5.49,23.78,23.78,0,0,1-2.25,5.1,50.38,50.38,0,0,1-6.8,8.44 c -2.41,2.59-4.82,5.17-7.14,7.81 a 96.12,96.12,0,0,0-12.31,16.89,65.48,65.48,0,0,0-4.11,9.56 c -1.2,3.31-2.37,6.66-3.64,10-2.55,6.63-5.34,13.3-9.57,19.27 a 32.82,32.82,0,0,1-7.7,7.91,23.74,23.74,0,0,1-5,2.66,23.33,23.33,0,0,1-5.53,1.28 h 0 l 1.23-2 A 42.35,42.35,0,0,0,223.3,411 a 37.7,37.7,0,0,0,4.61,6.13,39.61,39.61,0,0,0,12.35,9.09 l -.81,1.83 a 41.82,41.82,0,0,1-13.33-9.23,40.27,40.27,0,0,1-5.1-6.39,45.12,45.12,0,0,1-3.78-7.27 l -.7-1.71,1.93-.26 h 0 a 20.46,20.46,0,0,0,4.79-1.08,20.87,20.87,0,0,0,4.36-2.3,30,30,0,0,0,7.06-7.2 c 4-5.59,6.79-12.07,9.33-18.6,1.26-3.28,2.45-6.6,3.68-9.93.62-1.67,1.23-3.33,1.95-5,.37-.83.73-1.67,1.12-2.49 l 1.25-2.41 a 98.52,98.52,0,0,1,12.72-17.28 c 2.36-2.66,4.8-5.24,7.22-7.82 a 48.3,48.3,0,0,0,6.54-8,21.45,21.45,0,0,0,2.05-4.57,23,23,0,0,0,.86-4.94,34.39,34.39,0,0,0-1.24-10.15,99.17,99.17,0,0,0-3.39-9.94q-1.79-5.06-3.09-10.26 a 119.29,119.29,0,0,1-3.34-21.14 l 0-.72.71-.27 h 0 a 32.62,32.62,0,0,0,4.77-2.38,37.4,37.4,0,0,0,4.42-3.07,34.94,34.94,0,0,0,3.95-3.65,35.85,35.85,0,0,0,3.36-4.18 l -.17.65 c -.15-1.56-.33-3.13-.54-4.68 s -.47-3.1-.78-4.64-.65-3.06-1.07-4.55 a 28.81,28.81,0,0,0-1.51-4.29 l -.48-1,1-.38 a 12.16,12.16,0,0,0,2.15-1,8.85,8.85,0,0,0,.9-.72 c .3-.27.62-.57.9-.85 l 1-1,.59,1.28 a 50.58,50.58,0,0,1,2,4.95 c .57,1.67,1.08,3.35,1.51,5.06 a 65.86,65.86,0,0,1,1.8,10.4 l -.69-.86 a 62.43,62.43,0,0,1,13,6.06,52.59,52.59,0,0,1,11.21,9 l -1.71.41 a 21.2,21.2,0,0,1,1.51-3.88,25.09,25.09,0,0,1,2.17-3.5,31.8,31.8,0,0,1,2.64-3.13,29.52,29.52,0,0,1,3-2.78 l -.23,1.36 c -2.09-3.12-4.08-6.26-6-9.48-1-1.61-1.88-3.25-2.76-4.92 a 30.69,30.69,0,0,1-2.29-5.31 l -.24-.78.75-.38 a 11.5,11.5,0,0,1,2.31-.86,9.82,9.82,0,0,1,1.24-.22,6.38,6.38,0,0,1,1.36,0 l .6.06.21.61 h 0 a 53,53,0,0,0,5.36,11 c 1.13,1.69,2.35,3.49,3.37,5.34 a 43.21,43.21,0,0,1,2.69,5.79,43.65,43.65,0,0,1,2.69,12.45,57.32,57.32,0,0,1-.6,12.67 c -1.25,8.34-3.63,16.38-5.83,24.39-1.1,4-2.18,8-2.93,12 a 50.54,50.54,0,0,0-.79,6.06,23,23,0,0,0,.28,6 c .73,3.88,3,7.28,5.38,10.71 a 69.8,69.8,0,0,1,6.4,10.9,59.17,59.17,0,0,1,3.94,12 c .93,4.12,1.61,8.19,2.46,12.26 s 1.71,8.12,2.8,12.09 a 67.93,67.93,0,0,0,4.18,11.55,31.09,31.09,0,0,0,7,9.76,24,24,0,0,0,10.49,5.49 l 1.25.31-.55,1.13 h 0 a 59.2,59.2,0,0,1-11.67,16.79,57.26,57.26,0,0,1-7.8,6.67,35.77,35.77,0,0,1-9.18,4.82Z"/>
    <path d="M 327.86,408.38 c .43,1.81,1,3.57,1.59,5.31 s 1.3,3.45,2,5.14 a 85.88,85.88,0,0,0,5,9.81q.68,1.2,1.43,2.35 c .5.77,1,1.56,1.5,2.31 l 1.55,2.27,1.64,2.2.41.55 a 2.88,2.88,0,0,1,.31.46,1.54,1.54,0,0,1-1.26,2.2,1.64,1.64,0,0,1-.48,0 l -.18,0-.33-.07 c -.88-.2-1.76-.33-2.65-.46 a 27.94,27.94,0,0,0-5.35-.14,31.74,31.74,0,0,0-10.37,2.65 c -1.65.7-3.29,1.57-5,2.33 a 35,35,0,0,1-5.41,1.9,22.68,22.68,0,0,1-11.57,0,28.46,28.46,0,0,1-5.39-2.14 c -.45-.23-.84-.41-1.22-.58 l -1.17-.54 a 16.71,16.71,0,0,0-2.47-.69 c -3.37-.71-6.93-.12-10.52.64 s -7.38,1.64-11.32,1.34 l -1.47-.16 c -.49-.06-1-.2-1.45-.29 a 21.71,21.71,0,0,1-2.81-.84,32.62,32.62,0,0,1-5.12-2.65 c -3.19-2-6.08-4.31-9.29-5.88 a 21.5,21.5,0,0,0-10.29-2.15 l -1.34.08-.67,0 h -.4 a 1.5,1.5,0,0,1-.48-.15,1.54,1.54,0,0,1-.39-2.48 l .62-.5,1-.83 c .71-.54,1.31-1.22,2-1.82 s 1.21-1.33,1.82-2 a 61.21,61.21,0,0,0,10.23-19.35,44.87,44.87,0,0,1-1.35,5.41,46.6,46.6,0,0,1-1.93,5.26,44.15,44.15,0,0,1-5.59,9.78 c -.62.72-1.19,1.48-1.85,2.17 s -1.31,1.39-2.06,2 l -1.11.92-.45.38 a .46.46,0,0,0,.1-.53.44.44,0,0,0-.2-.2 l -.15,0 H 236 l .72,0,1.44-.1 a 23.6,23.6,0,0,1,11.27,2.27 c 3.48,1.68,6.48,4,9.54,5.91 a 30.45,30.45,0,0,0,4.76,2.41,19.46,19.46,0,0,0,2.51.73 c .43.08.84.2,1.27.25 l 1.3.13 c 3.49.24,7-.59,10.66-1.39 a 46,46,0,0,1,5.62-1,18.65,18.65,0,0,1,5.88.25,19.12,19.12,0,0,1,2.87.83 c .45.2.9.42,1.35.63 s .9.43,1.28.62 a 26.11,26.11,0,0,0,4.9,2,20.34,20.34,0,0,0,10.41.1,32.73,32.73,0,0,0,5.08-1.74 c 1.66-.7,3.31-1.55,5.07-2.29 A 33.87,33.87,0,0,1,333,438.16 a 30,30,0,0,1,5.74.2 c .95.14,1.89.3,2.82.52 l .35.08.16,0 h -.13 a .45.45,0,0,0-.41.36 c -.08.17.2.53,0,.18 l -.41-.57 a 77.55,77.55,0,0,1-6-9.5,73.91,73.91,0,0,1-4.53-10.25,55.44,55.44,0,0,1-1.63-5.35 A 40.32,40.32,0,0,1,327.86,408.38Z"/>
    <path d="M 282.61,314.38 s 26,12.5,40.75.25" fill="none" stroke="#000" stroke-miterlimit="10" stroke-width="1.5"/>
    <path d="M 258.82,365.37 a 112.28,112.28,0,0,1,5.95-13.05,68.1,68.1,0,0,1,8-12,100.86,100.86,0,0,0,8.74-11.23 A 53.65,53.65,0,0,0,285,323 a 20.45,20.45,0,0,0,2.1-6.45 h 0 l 2,.08 a 33.92,33.92,0,0,1-1.4,9.79,50.6,50.6,0,0,1-3.81,9 c -1.53,2.86-3.2,5.62-4.85,8.37 s -3.33,5.51-5,8.24 a 173.47,173.47,0,0,0-9.31,16.82,99.33,99.33,0,0,0-6.55,18.06 l -.16,0 a 99.74,99.74,0,0,1,6.14-18.28,174.32,174.32,0,0,1,8.94-17.11 c 1.62-2.78,3.23-5.54,4.81-8.35 s 3.19-5.57,4.61-8.41 a 49,49,0,0,0,3.48-8.79,32,32,0,0,0,1.1-9.26 l 2,.08 h 0 a 22.07,22.07,0,0,1-2.52,7,55.26,55.26,0,0,1-3.83,6.18 A 102.14,102.14,0,0,1,273.52,341 a 67.33,67.33,0,0,0-8.27,11.56,112,112,0,0,0-6.36,12.81Z"/>
    <path d="M 281,409.35 a 159.35,159.35,0,0,0,3-22.45 l .1-2.82 c 0-.94,0-1.88,0-2.81-.06-1.84-.24-3.79-.21-5.7 a 87.37,87.37,0,0,1,.8-11.42,97.6,97.6,0,0,1,2.13-11.25 A 79.51,79.51,0,0,1,290.32,342 a 44.84,44.84,0,0,1,2.53-5.22 c .94-1.65,1.84-3.25,2.63-4.94 a 36,36,0,0,0,3.27-10.51 l .07-.67,0-.33v-.08 a 1.16,1.16,0,0,1,.27-.68,1.12,1.12,0,0,1,1.47-.19,1.16,1.16,0,0,1,.44.57 l 0,.09.06.17.12.34.22.69 c .29.92.56,1.84.81,2.76.5,1.85,1,3.71,1.33,5.59 a 95.29,95.29,0,0,1,1.62,11.35,90.9,90.9,0,0,1,.25,11.46 c -.15,3.84-.58,7.59-.88,11.36-.61,7.54-1,15.09-.91,22.64 a 86,86,0,0,0,.83,11.28 c .14.93.28,1.87.5,2.78 l .3,1.38 c .12.46.26.9.39,1.36 a 22.59,22.59,0,0,0,2.17,5.22 A 29.46,29.46,0,0,1,304,397.73 a 86.72,86.72,0,0,1-1.28-11.33 c -.33-7.6-.07-15.2.35-22.78.19-3.79.55-7.58.69-11.31 a 89.14,89.14,0,0,0-.34-11.24,93.41,93.41,0,0,0-1.68-11.12 c -.38-1.83-.84-3.65-1.34-5.45-.26-.9-.52-1.79-.81-2.68 l -.22-.66-.11-.33-.06-.16,0-.08 a .89.89,0,0,0,.34.43.87.87,0,0,0,1.15-.15.9.9,0,0,0,.21-.52v.09 l 0,.38-.08.74 a 37.92,37.92,0,0,1-3.51,11.09 c -.82,1.74-1.79,3.43-2.73,5.07 a 43,43,0,0,0-2.45,5,96.31,96.31,0,0,0-5.79,21.68,85.93,85.93,0,0,0-1,11.21 c -.07,1.88.06,3.72.09,5.66,0,1,0,1.91,0,2.87 s -.09,1.91-.17,2.86 c -.31,3.8-.85,7.56-1.5,11.3 s -1.44,7.45-2.37,11.13Z"/>
    <path d="M 323.7,373.13 c -.38-4.7-.8-9.4-1.37-14.07 s -1.13-9.35-1.94-14-1.68-9.24-2.92-13.74 a 69.55,69.55,0,0,0-2.15-6.63,29.19,29.19,0,0,0-1.37-3.16 l -.37-.78-.09-.19,0-.1,0,0 a 1.09,1.09,0,0,1,1.66-1.34 c .2.18.13.13.16.16 l .14.18,1.14,1.43 a 51.19,51.19,0,0,1,3.85,6.1 c .58,1,1.14,2.1,1.64,3.18 s 1,2.15,1.49,3.25 a 118.07,118.07,0,0,1,4.9,13.37,126.11,126.11,0,0,1,5.27,27.86 l -.15,0 c -.68-4.67-1.55-9.3-2.68-13.87 s -2.36-9.1-3.88-13.54-3.2-8.82-5.15-13.07 a 66.82,66.82,0,0,0-6.88-12.09 l -1.07-1.33-.13-.17.09.08 a .92.92,0,0,0,.54.2.9.9,0,0,0,.86-.53.92.92,0,0,0,.07-.55.9.9,0,0,0-.08-.23 s 0,0,0,0 l 0,.1.1.21.38.82 a 31.1,31.1,0,0,1,1.43,3.33,71.5,71.5,0,0,1,2.18,6.84,127.76,127.76,0,0,1,2.69,14 c .66,4.69,1.11,9.41,1.47,14.12 s .53,9.44.5,14.17Z"/>
  </g>
<script type="text/ecmascript" xlink:href="param.min.js"/> 
</svg>
