<?xml version="1.0"?>
<svg xmlns="http://www.w3.org/2000/svg" xmlns:xlink="http://www.w3.org/1999/xlink" viewBox="0 0 600 600">
  <title>hourglass-top-template</title>
  <g id="main-colour">
    <path d="M 338.91,362.25 c -2.5-12.62-11.17-24.25-15.79-29.37-3.84-4.25-3.62-9.87-2.25-14.5 s 5.13-11.5,7-14.75 a 52.9,52.9,0,0,0,5.88-15.5 c .37-1.79.68-3.62,1-5.53 a 22.07,22.07,0,0,0,6-10.47 c 1.63-8-.12-12.75-3.25-17.5-1.6-2.43-4.33-6.61-6.63-10.13-.75-1.44-1.52-2.78-2.29-4 a 162.46,162.46,0,0,0-10.12-13.37 l -3.5-1.25 s .38,6-.87,9.75-6.12,7.13-15.87,3.63-14.5-13.5-14.5-13.5 a 21,21,0,0,1-5.12,2.13 c 1.63,4.25,2.25,12.13-2.25,20.13 a 14.87,14.87,0,0,1-13.12,7.5,74.4,74.4,0,0,0,3.5,22.38 c 3.75,11.25,9.88,16.75,13.63,22.25 s 3.88,11,1.38,20.13 S 271.86,333.5,264,342 s -10.13,13.88-12.75,26.63-2.92,39.08-2.92,39.08 c 8.88-3,29.54-1.33,37.54.67 s 17,4.25,27.88,3.88,22.42-3.62,29.92-10.62 C 344.41,391.5,341.41,374.88,338.91,362.25Z" fill="param(main_colour)"/>
  </g>
  <g id="outline">
    <path d="M 287,288.25 c 10.63,2.5,19-1.75,22.25-8.12 A 30.23,30.23,0,0,1,287,288.25Z"/>
    <path d="M 323.11,331.75 c -4.3-6-2-12.5.63-18.75 s 8.38-12.5,10.38-21.75 c .55-2.52,1.08-5.35,1.55-8.36 a 21.35,21.35,0,0,0,6.51-12 c 1.69-9.75-2.81-15.19-4.69-17.75-1.75-2.39-5.25-7.84-7.48-11.45 a 95.66,95.66,0,0,0-11.38-15.24 c -2.12-.5-5.37-3.12-5.37-3.12 s 5.38,16-7.25,16.25-19-8.75-22.25-15.62 c -2,2-6.37,3-6.37,3 s 3.92,6.67-.25,17.67 S 262,254.29,262,254.29 c .17,28.75,12,38.92,16.83,45.58 s 3.83,14.33,1.33,21.67-11.58,13.08-20.58,24.08-12.25,35.08-12.25,63.08 c 7.67-3.67,33.5-.33,46.17,2.67 s 39.08,3,51.08-9.33 C 344.28,351,328.4,339.09,323.11,331.75Z m -1.25,78.88 c -13.92,2-27.75-.33-37.5-2.75 s -29-3.83-35.5-1 c .42-7.25.42-23.25,2.83-37.25 s 7.17-20.75,13.33-27.42,12.25-11.25,15.17-16.5,5.33-12.83,3.67-19.5-5.17-9.83-7.75-13.25 S 263.95,278.63,264,256.21 c 0,0,11.08-.33,14.58-10.75 s 1.08-17,1.08-17 a 26.51,26.51,0,0,0,3.83-1.92 c 1.83,4.25,6.33,11.08,14.92,13.58 s 13.92.83,16.08-3.58 a 15,15,0,0,0,.83-9.42,19.56,19.56,0,0,0,3,.92,85.16,85.16,0,0,1,9.42,13 s 2.88,5.15,4,6.84 a 55.33,55.33,0,0,1,6.56,11.69,22.35,22.35,0,0,1,0,15.75,24.37,24.37,0,0,1-10.5,12,14.92,14.92,0,0,0,5.55-2.57,57.54,57.54,0,0,1-7.2,20.47 c -4.5,7.42-8,16.81-6.83,22.42,1,4.63,7.88,10.38,11.67,17,3.4,5.94,7.75,17,10.08,33.25 s 1.83,23.33,1.83,23.33 S 335.78,408.63,321.86,410.63Z"/>
  </g>
<script type="text/ecmascript" xlink:href="param.min.js"/> 
</svg>
