<?xml version="1.0"?>
<svg xmlns="http://www.w3.org/2000/svg" xmlns:xlink="http://www.w3.org/1999/xlink" viewBox="0 0 150 150">
  <title>bare-feet</title>
  <g id="skin-tone">
    <path d="M 74.1,69.45 c 3.39-.69,7,2.51,6.52,5.93 s -1.41,5.33-1,8.82,2.48,10.48,1.86,14.28 c 1.62,3,2.6,7.39-1.36,9.22-2,1.87-5.31,2.93-7.64.94-2.25.85-3.47.72-4.39-.23-1.65.46-3.27.17-3.47-.94-1.2.19-3.45-.23-3.44-1.69-1.64-1.39-2.29-2.62-1.07-4.45 a 14.52,14.52,0,0,1,3.7-3.4 s 2.48-5.58,4.1-9.31,3.15-7.42,2-10.26 S 68.85,70.52,74.1,69.45Z" fill="param(skin_tone)"/>
  </g>
  <g id="fixed-colours">
    <path d="M 72.36,104.87 a 4.67,4.67,0,0,1,1.38-2.13 c 1.81-.39,3.68-.3,4,.65 s -.57,1.3-1.41,1.14 A 8.14,8.14,0,0,0,72.36,104.87Z" fill="#fff"/>
    <path d="M 69,103.79 a 4.28,4.28,0,0,1,2-.11 c .84.23,1,1,.6,1.31 s -1.86.15-2.23.12 a 7.37,7.37,0,0,0-1.07.06Z" fill="#fff"/>
    <path d="M 65.62,103.76 a 5.56,5.56,0,0,1,1.75-.09 c .61.14.87.81.61,1.07 s -.8.19-1.31.12 L 65,104.64Z" fill="#fff"/>
    <path d="M 62.95,103 a 3.41,3.41,0,0,1,1.31.25 c .6.27.74.83.36,1.05 s -.72-.09-1.12-.24 a 8.15,8.15,0,0,0-1.24-.24Z" fill="#fff"/>
    <path d="M 60.5,101.44 a 3.68,3.68,0,0,1,1.5.12 c .37.23.65.87.27,1 a 1.11,1.11,0,0,1-1-.14 c -.33-.16-1-.39-1-.39Z" fill="#fff"/>
  </g>
  <g id="outline">
    <path d="M 60.37,106 c .49,2.18,2.71,2.38,3.86,2.32.69,1.23,2.39,1.12,3.27.86 a 3.84,3.84,0,0,0,4.5.26 c 3,1.85,7.24.9,8.27-.81,1-.07,2.79-1.36,3.27-4.43 s -.4-5.4-1.3-6.33 a 27.69,27.69,0,0,0-.19-6.09 c -.72-4.84-2-7.39-1.78-10.53 s 1.33-3.67,1.46-5.83 a 6.76,6.76,0,0,0-6.28-7.18 h 0 a 6.7,6.7,0,0,0-7.1,7.84v.11 c 0,.1,0,.2.06.31.26,1.24,1.07,2.63,1.25,4.17.36,3-1.65,6.16-3.3,9.26-1.43,2.69-3.54,7.18-4.08,8.33-1.48,1-2.77,1.91-3.21,2.88 C 58.13,103.33,58.9,104.8,60.37,106Z m .31-4.52 a 1.7,1.7,0,0,1,1.44.43 c .35.43-.12.71-.41.55 a 4.93,4.93,0,0,0-1.24-.58 A 2.63,2.63,0,0,1,60.67,101.52Z m 7.86,4 a 4.17,4.17,0,0,1,2-.1,1.56,1.56,0,0,0,1,0,3.2,3.2,0,0,0,.45,2.22,3.36,3.36,0,0,1-2.77.65 A 3.19,3.19,0,0,1,68.54,105.53Z m 2.65-.61 a 12.34,12.34,0,0,0-2.48.09,5,5,0,0,1,.61-1,3.77,3.77,0,0,1,1.53-.13 C 71.66,104,71.88,104.87,71.19,104.93Z m -6,.18 c 0-.06.05-.11.07-.17 a 3.58,3.58,0,0,1,1.54.17,1.32,1.32,0,0,0,1,0,3.36,3.36,0,0,0-.23,2.3,2.17,2.17,0,0,1-2.13.09 A 3.05,3.05,0,0,1,65.22,105.1Z m 2.53-.41 c -.34.27-1.44-.2-2.29-.14 a 5.2,5.2,0,0,1,.43-.69,3.23,3.23,0,0,1,1.2,0 C 67.73,104,68.15,104.38,67.75,104.69Z m -5.51-.7 a 1.93,1.93,0,0,1,1.49.36.81.81,0,0,0,1.14,0,2.76,2.76,0,0,0-.48,2.26,2.45,2.45,0,0,1-1.6,0 C 61.8,105.5,61.82,104.68,62.24,104Z m 2,.18 a 3.2,3.2,0,0,0-1.69-.55,6.07,6.07,0,0,1,.53-.55,3.19,3.19,0,0,1,1.34.42 C 65,103.92,64.49,104.33,64.19,104.18Z M 78.88,78.92 a 10.21,10.21,0,0,0-.45,3.31,26,26,0,0,0,.5,4.53 c .55,2.34,1.66,8.3,1.42,11.43 a 4.71,4.71,0,0,1-2-2.61,2.7,2.7,0,0,0,1,2.43 c .91,1,2,1.57,2.54,3,.59,2.57-.24,5.4-1.81,5.91 a 3.86,3.86,0,0,0-.73-4.29,4.55,4.55,0,0,1,.1,4.38 c -1.3,1.75-4.11,1.87-6,1.32 a 3.77,3.77,0,0,1-.73-3.36,7,7,0,0,1,3.28-.21 c 1.62.38,2.18-.4,2.12-1 s -.39-2-3.85-1.29 c 1.8-2,1.41-3.6,1.41-3.6-.39,1.75-1.69,2.76-3.07,4.41 a 5.83,5.83,0,0,0-.6.88 c -.24-.61-1.36-.9-2.27-.65.34-.39.67-.7.87-.92.81-.87,1.44-2,1-2.8.1,1-.9,1.72-2.79,3.78 a 6.14,6.14,0,0,0-.54.69.67.67,0,0,0-.07-.19,2,2,0,0,0-2-.58 c .85-1,1.88-2.06,1.82-3.54 a 6.91,6.91,0,0,1-1.73,2.72 A 11.53,11.53,0,0,0,65,104.15 a .65.65,0,0,0,0-.53,1.85,1.85,0,0,0-1.63-.82,10.27,10.27,0,0,0,.86-.81,4.26,4.26,0,0,0,1.14-2.63 c -.5,1.75-3.1,3.25-3.77,4.6 a 2,2,0,0,0-.2,1 c -1.08-.34-1.12-1.19-1-2.55 a 1.62,1.62,0,0,1,.05-.23,1.83,1.83,0,0,1,.82.4 c .45.41,1.3.47,1.42-.18 s -.47-1.28-1.73-1.23 A 33.55,33.55,0,0,1,64.47,98 a 16.47,16.47,0,0,0,3-3.49,11.43,11.43,0,0,1-2.1,1.82 c .57-1.13,2-4,3.4-6.45 a 24.81,24.81,0,0,0,2.42-6.14 A 19,19,0,0,0,71,79 c -.23-1.12-.59-2.22-.72-3.23,0-.15,0-.31,0-.46v-.12 a 4.67,4.67,0,0,1,0-.5,4.75,4.75,0,0,1,5.05-4.42 h 0 a 4.87,4.87,0,0,1,4.42,5.05 A 11.5,11.5,0,0,1,78.88,78.92Z m -5.05,24 a 11.89,11.89,0,0,1,2.81-.14 c 1.08.18,1.09,1,.73,1.28 s -.64.33-1.76.15 a 9.12,9.12,0,0,0-2.79.25 A 5,5,0,0,1,73.83,102.93Z"/>
  </g>
<script type="text/ecmascript" xlink:href="param.min.js"/> 
</svg>
