<?xml version="1.0"?>
<svg xmlns="http://www.w3.org/2000/svg" xmlns:xlink="http://www.w3.org/1999/xlink" viewBox="0 0 150 150">
  <title>bare-feet</title>
  <g id="skin-tone">
    <path d="M 80.53,76.19 c .38-3.07-.75-6.75-5.25-6.83 a 5.68,5.68,0,0,0-6,6.64 c .65,2.78.63,5.62-1.35,8.27 s -3.69,7.38-1.32,9.46,4.35,2.55,5.2,5,1.8,6.91,6.05,6.91 c 2.27,2.93,5.39,3.41,7.76.76,2.18.38,3.6-.38,3.88-1.42,1.23,0,2.74-.38,3-1.7 a 3,3,0,0,0,2.84-2.08 c 1.23-1.23,2.18-3.69-1.23-4.54 s -8.89-2.18-11.35-7.95 S 80.11,79.53,80.53,76.19Z" fill="param(skin_tone)"/>
  </g>
  <g id="fixed-colours">
    <path d="M 84.72,103.68 A 5.45,5.45,0,0,0,81,105.07 a 1.83,1.83,0,0,1,1.14-2.59 A 2.15,2.15,0,0,1,84.72,103.68Z" fill="#fff"/>
    <path d="M 88.33,102.34 a 3.41,3.41,0,0,0-2.16.92 c -.39-.75-.43-1.21.32-1.6 A 1.42,1.42,0,0,1,88.33,102.34Z" fill="#fff"/>
    <path d="M 91.46,101 a 2.08,2.08,0,0,0-1.74,1,1,1,0,0,1,.25-1.6 A 1.11,1.11,0,0,1,91.46,101Z" fill="#fff"/>
    <path d="M 94,99.5 a 3.24,3.24,0,0,0-1.45.89.94.94,0,0,1,.35-1.28 A 1,1,0,0,1,94,99.5Z" fill="#fff"/>
    <path d="M 95.39,97.94 s -.78.25-.89.92q-.74-1.12.11-1.28Z" fill="#fff"/>
  </g>
  <g id="outline">
    <path d="M 95.94,97 c -1.7-1.61-4.87-1.55-7.6-3.22-7.83-4.79-7-13.52-6.8-17.17,0-.54.21-1.07.21-1.64 A 6.76,6.76,0,0,0,75,68.25 h 0 A 6.76,6.76,0,0,0,68.25,75 c -.11,1.46.72,3.16.53,5.25 S 67.54,83.7,65.46,87,65.14,94,67.1,95 s 3.43,1.08,4.47,3.92,1.66,7.79,5.45,7.69 c 2.46,3.5,7.1,3.59,9.08.85 a 3.34,3.34,0,0,0,4.07-1.8 s 2.46-.09,2.65-1.51 c 2.08-.09,3-1,3.12-2.65 C 97.21,100.23,97.64,98.65,95.94,97Z m -.83.9 s -.6.28-.64.64 C 94.15,98.15,94.26,97.44,95.11,97.94Z m -2.34,4.26 c -.43-3.41-2.84-3.26-3.69-3.26 a 7.41,7.41,0,0,1-3.26-.85 c .78.92,1.84,1.21,3.48,1.42 s 2.63,1.06,2.77,2.48 a 1.92,1.92,0,0,1-2.2,2.2 c 0-3.48-2.77-3.83-4-4 a 5.74,5.74,0,0,1-3.22-1.35 c .18.85,1.95,1.84,3.72,2.2 s 2.55,1.06,2.77,2.41 a 2.33,2.33,0,0,1-3.05,2.27,4.21,4.21,0,0,0-3.83-4.82,4.91,4.91,0,0,1-3.55-1.63,3.57,3.57,0,0,0,3.48,2.27 c 1.7.07,3.69,2.34,2.91,4.4-2.91,2.77-6,.78-7.1-1.14 a 12.13,12.13,0,0,0-1.56-1.67,4,4,0,0,1,.75,1.63 c -2-.27-2.78-3.39-3.92-6.79 C 72,94.09,70.12,95,68,93.17 s -1.52-4.74-.2-6.82 c 1.19-1.88,2.3-3.22,2.69-5.39 a 19.71,19.71,0,0,0-.25-5.58 c 0-.24,0-.39,0-.39 A 4.75,4.75,0,0,1,75,70.25 h 0 A 4.75,4.75,0,0,1,79.75,75 s -.12,1.13-.2,2.74 c 0,0-.89,11.62,6.41,16.29 A 20.12,20.12,0,0,0,93.9,97.3 a 2.9,2.9,0,0,1,.62.21,1.15,1.15,0,0,0-.37.14.51.51,0,0,0-.17.63,4,4,0,0,0-1.78-.34,8.46,8.46,0,0,1-3.33-.5 c .57.71,2.13,1,3.48,1.06 a 2.3,2.3,0,0,1,2.41,2.13 C 94.76,101.84,93.41,102.83,92.77,102.19Z m 2.53-1.73 a 2.69,2.69,0,0,0-.67-1.66,1.23,1.23,0,0,1,.71-.65 A 1.64,1.64,0,0,1,95.3,100.46Z"/>
    <path d="M 85,103.86 a 2.26,2.26,0,0,0-3-1.56,1.88,1.88,0,0,0-1,3 A 5.6,5.6,0,0,1,85,103.86Z m -2.84-1.21 a 1.89,1.89,0,0,1,2.34.85 A 5.05,5.05,0,0,0,81,104.71,1.62,1.62,0,0,1,82.13,102.66Z"/>
    <path d="M 88.69,102.48 c -.6-.82-1.49-1.38-2.34-1 s -.82,1.17-.21,2 A 3.59,3.59,0,0,1,88.69,102.48Z m -2.09-.71 c .5-.21,1,0,1.53.43 a 3.35,3.35,0,0,0-1.88.82 C 85.78,102.41,86.1,102,86.6,101.77Z"/>
    <path d="M 91.74,101.17 a 1.46,1.46,0,0,0-1.92-1 c -.67.39-.82,1.14-.11,2 C 90.14,101.06,91.74,101.17,91.74,101.17Z m -1.67-.67 c .32-.14.71-.28,1.21.39 a 1.88,1.88,0,0,0-1.56.82 A .84.84,0,0,1,90.07,100.49Z"/>
    <path d="M 92.8,99 a 1.15,1.15,0,0,0-.28,1.7,2.47,2.47,0,0,1,1.77-1.1 C 93.94,99.07,93.3,98.72,92.8,99Z m -.21,1.21 c -.11-.64.32-1.49,1.28-.74 A 2,2,0,0,0,92.59,100.21Z"/>
  </g>
<script type="text/ecmascript" xlink:href="param.min.js"/> 
</svg>
