<?xml version="1.0"?>
<svg xmlns="http://www.w3.org/2000/svg" xmlns:xlink="http://www.w3.org/1999/xlink" viewBox="0 0 150 150">
  <title>BT002_OA011</title>
  <g id="skin-tone">
    <path d="M 80.51,75.42 c 0-2.64-2.43-5.71-5.05-5.91 a 5.93,5.93,0,0,0-6,4.25 c -.53,2.51-.62,4.79-1.48,6,3.77,1.07,7.93,3.09,5.81,7.81,2.14,1.61,3.56,3.16,4.81,3 s 3.6-3.88,3.85-6.38 C 80.94,81.35,80.51,75.42,80.51,75.42Z" fill="param(skin_tone)"/>
  </g>
  <g id="main-colour">
    <path d="M 81.53,80.47 a 3.55,3.55,0,0,1,3.8,2.72,6,6,0,0,1-.61,5.15 s 2.22,3.16-.05,5.91-4.5,2.89-7.8,3.71-4.1,1.07-6,4-5.11,5.51-7.33,6.16 c -3-2.75-4.06-5.31-3-7.54 a 16,16,0,0,0-10.85-4 A 17.32,17.32,0,0,0,59.76,89 c 2.54-4.12,2.49-6.75,3.78-8.19 s 3.18-1.91,6.42-.47,5.48,2.9,3.81,7.14 c 1.81,1.12,3.3,2.47,4,2.94 s 2.31-.59,3.15-2.12 a 20.82,20.82,0,0,0,1.44-4.57Z" fill="param(main_colour)"/>
  </g>
  <g id="accent-colour-1">
    <path d="M 84.66,94.25 a 5,5,0,0,1-3.11,2.33 c -2.26.59-7.2,1.23-8.63,3.13 s -6.14,7.44-9.25,8.38 c -2.54-1.74-4.23-5.06-3.16-7.5-4-3-9-4.36-11-3.75 S 44.65,100,46,103.39 c -.91,1.11-2.08,3.59.74,6.33 s 10.9,3.28,14.86,2.71,7.69-3.66,10.17-7,4.94-3.93,7.21-4,6.16-1.78,6.24-4.19Z" fill="param(accent_colour_1)"/>
    <path d="M 57.92,96.21 a 21,21,0,0,0-4-1.34 c -.35-.08-.69-.41.08-1 s 3-.84,6.09,1,3.47,4.23,2.77,4.64 S 59.81,97,57.92,96.21Z" fill="param(accent_colour_1)"/>
    <path d="M 61.09,93.06 a 10,10,0,0,0-4.58-.85 c -.8-.7.15-1.6,2.06-1.76 a 9.15,9.15,0,0,1,7.1,3.3 c 1.62,2.28.76,3.29.16,3.09 S 62.94,93.82,61.09,93.06Z" fill="param(accent_colour_1)"/>
    <path d="M 70,93.55 c .57-.29.73-2.05-.88-3.82 s -4.83-4-7.75-3.44 c -1.73.38-1.85,1.15-1.44,1.9 a 6.52,6.52,0,0,1,5.67,1.16 C 67.9,90.87,68.45,94.31,70,93.55Z" fill="param(accent_colour_1)"/>
  </g>
  <g id="fixed-colours">
    <path d="M 70.48,92.26 a 1.19,1.19,0,0,1,1.16.4 c .46.58.09,1.82-1,2.35 s -3.19-.14-2-1.93 a 1.33,1.33,0,0,0,1.63.32Z" fill="#a7a9ac"/>
    <path d="M 66.48,95.53 s 1.18-.29,1.48.27 a 2,2,0,0,1-1,2.31 c -1,.5-2.77.4-1.68-1.68 C 65.78,97,66.79,96.94,66.48,95.53Z" fill="#a7a9ac"/>
    <path d="M 63.3,98.64 a 1.12,1.12,0,0,1,1.32.34 c .45.69-.33,1.79-1.29,2.14 s -2-.27-1.19-1.6 a 1,1,0,0,0,1.09-.15Z" fill="#a7a9ac"/>
  </g>
  <g id="outline">
    <path d="M 45.3,109.29 c 1.81,2,8,5.65,15.62,4.43 s 10-5.15,11.4-7.67,5.16-3.26,7.49-3.77,5.18-1.79,6.12-4.34 a 5.35,5.35,0,0,0-.3-4.2,6.68,6.68,0,0,0,.54-1.42,5.23,5.23,0,0,0-.77-4.47,6.81,6.81,0,0,0,.81-4.25 A 4.31,4.31,0,0,0,82,79.68 a 7.75,7.75,0,0,1-.42-3.14 h 0 l 0-.15 h 0 c 0-.27.08-.53.11-.83 a 6.76,6.76,0,0,0-6.19-7.27 h 0 a 6.76,6.76,0,0,0-7.26,6.19,9.56,9.56,0,0,0,0,2.8 c .13.69.27,1.38-.17,1.76-2.47-.47-3.94.24-4.94,1.25 s -1,1.62-2.14,5.45 a 4.56,4.56,0,0,0-1.37.57 c -1.07.68-.41,1.94-.14,2.36q-.53.77-1.14,1.49 a 5.15,5.15,0,0,0-1.29.17,1.53,1.53,0,0,0-1,2.27 l -.62.56 a 4.19,4.19,0,0,0-.54,0,2.26,2.26,0,0,0-2,1.74 c -1.4.63-2.17.27-4.53,1.45 a 6.22,6.22,0,0,0-3.53,5.16,8.37,8.37,0,0,0,0,1.45 A 5.27,5.27,0,0,0,45.3,109.29Z m 4.35-12.08 c 4.42-.83,9,2.43,10.38,3.46 A 6.06,6.06,0,0,0,60,104 a 9.93,9.93,0,0,0,2.67,4 c -.42.14-.85.28-1.31.39 a 16,16,0,0,1-12.45-2.18 c -2.82-1.92-3.62-3.95-1.94-6.75 A 4.77,4.77,0,0,1,49.65,97.22Z m 8.82-.35 A 11.74,11.74,0,0,1,60.9,99 a 5.32,5.32,0,0,0-.67,1.15,13.09,13.09,0,0,0-8.31-3.58 A 8.07,8.07,0,0,0,53,96.05 a 11.22,11.22,0,0,0,1.21-.75 A 12.52,12.52,0,0,1,58.47,96.87Z M 57.15,94 a 10.17,10.17,0,0,1,5.3,3.73 c .58,1,.54,2-.38,1.36 s -3-3.59-8.24-4.66 C 53.84,94.42,54.62,93.32,57.15,94Z m 5,6.06 a 1.47,1.47,0,0,0,.32.14.36.36,0,0,0,.45.35 c .86-.16,1.13-.58,1.16-1,0-.3-.23-.38-.41-.4 a 1.7,1.7,0,0,0,0-.31.86.86,0,0,1,.79.31 c .33.39,0,1.1-.64,1.57 C 63,101.26,61.71,100.93,62.16,100Z M 62.09,94 a 10.37,10.37,0,0,1,1.85,1.67 l -1.17,1.26 a 10.83,10.83,0,0,0-1.42-1.49,10,10,0,0,0-4.7-2.22 l .63-.64 A 8.31,8.31,0,0,1,62.09,94Z m .52-2.23 a 6.4,6.4,0,0,1,3.54,3.52 c .11.55.18,1.63-.62,1 s -2-2.62-4.5-3.59 a 11.11,11.11,0,0,0-4.33-.84.63.63,0,0,1,.37-.74 A 8,8,0,0,1,62.61,91.75Z M 67,95.65 a .87.87,0,0,1,.75.22 A 1.63,1.63,0,0,1,67,97.82 a 1.37,1.37,0,0,1-1.76.09,1,1,0,0,1-.09-.91,1.63,1.63,0,0,0,.37.28 c 0,.24.09.5.63.4 a 1.38,1.38,0,0,0,1.23-1.27 c 0-.35-.2-.39-.37-.37 A 3.09,3.09,0,0,0,67,95.65Z m -1-5.52 a 6.61,6.61,0,0,1,1.42,1.62 L 65.9,93.49 a 9.12,9.12,0,0,0-3.08-2.41,10.08,10.08,0,0,0-3.27-.89,15.88,15.88,0,0,0,1.2-1.62 C 63.3,88.12,64.48,88.92,66,90.13Z m -4.15-3.68 c 2.18-.29,5.49,1.86,6.66,3.15 s 2.07,3.09,1.38,3.58-1.19-.52-1.73-1.49-3.73-5.12-8.26-3.89 C 59.91,87.8,59.69,86.74,61.87,86.45Z m 6.75,7.14 a 1.3,1.3,0,0,0,.42.34 c 0,.21,0,.44.46.46 A 1.42,1.42,0,0,0,71,93.53 a .43.43,0,0,0-.23-.57,2,2,0,0,0,.06-.46.88.88,0,0,1,.7.53,1.45,1.45,0,0,1-.88,1.68,1.56,1.56,0,0,1-2.06-.29 A .81.81,0,0,1,68.62,93.59Z M 66.9,80.17 a 12.2,12.2,0,0,1,6.47,3.33 c .71.89.36,2.5.11,3.33 h 0 c -1.87-.45-2.68.73-4,2.51 A 9.44,9.44,0,0,0,66,86.58 a 9.08,9.08,0,0,0-3.68-1,10.13,10.13,0,0,0,.74-2.32 A 3.48,3.48,0,0,1,66.9,80.17Z m 12.83-4.79 a 15.43,15.43,0,0,0,1.89,9.54 c -.64,2.77-2.18,5.15-3.66,4.8 C 76.73,89.43,76,88,74.45,87.2 a 5.64,5.64,0,0,0,.4-3.35 c -.59-2-2.63-3.47-4.87-4.26 a 1.8,1.8,0,0,0,.45-1.76,15.18,15.18,0,0,1-.16-3.2,4.75,4.75,0,0,1,5.11-4.36 h 0 A 4.75,4.75,0,0,1,79.73,75.38Z m 4.81,13.89 c .51.85.62,2.11-.26,4.11-1.08,2.46-4.43,3.35-8,4.11 S 71.76,100,70.18,102 c -1.33,1.64-3.14,4.23-6.63,5.72-2.14-1.89-3.12-4.57-2.72-6.41 a 5.17,5.17,0,0,1,.75-1.65 l .25.21 c -.18.34-.39.91.05,1.28 a 1.68,1.68,0,0,0,2.22-.06 c .84-.58,1.2-1.91.55-2.45 a 1.21,1.21,0,0,0-1.07-.25,3.8,3.8,0,0,0-.37-.78 c .4-.44.82-.88,1.24-1.32 l .46.51 A 1.22,1.22,0,0,0,65,98.28 a 2,2,0,0,0,2.29,0 c .41-.28,1.65-1.7.78-2.77 a 1.39,1.39,0,0,0-1.16-.28,4.27,4.27,0,0,0-.49-1.07 c .49-.55,1-1.12,1.48-1.71 l .41.68 a 1.33,1.33,0,0,0-.08,1.65,2.17,2.17,0,0,0,2.7.37 c .69-.33,1.54-1.65,1-2.52 A 1.24,1.24,0,0,0,70.78,92 a 6.1,6.1,0,0,0-.88-2 c .54-.64,1-1.2,1.45-1.59,1.38-1.32,2.53-.23,3.57.71 s 2.78,2.42,3.82,2.42,4.3-4.64,4.45-8.47 a 5.26,5.26,0,0,1-.87-1.78,3.34,3.34,0,0,1,2.25,1.89 c 1.14,2.19-1.6,8-3.86,9.4 A 10.7,10.7,0,0,0,84.54,89.27Z M 45.84,105 a 14,14,0,0,0,2.73,2.48 c 4,3,11.3,3,14.93,1.45 s 6.79-5.37,8.48-7.7,4.64-2.64,7.73-3.4 a 10.61,10.61,0,0,0,4.29-2 c .6,3.67-4.69,4.47-8,5.26-3.46.85-3.92,2.82-6.88,6 S 63,111.38,58,111.72 s -9.74-1.69-11.34-3.4 A 3.45,3.45,0,0,1,45.84,105Z"/>
  </g>
<script type="text/ecmascript" xlink:href="param.min.js"/> 
</svg>
