<?xml version="1.0"?>
<svg xmlns="http://www.w3.org/2000/svg" xmlns:xlink="http://www.w3.org/1999/xlink" viewBox="0 0 600 600">
  <title>slender-top-template</title>
  <g id="main-colour">
    <path d="M 271,254.38 s 10-1.12,14.13-7.25,2.5-13.75-1.25-18.87 a 4.47,4.47,0,0,0,2.38-1.37 s 5.75,8.63,13.38,10.38 S 310.48,236,311.36,234 s 0-7.62,0-7.62 l 2.38,1.75 s 4.46,4,7,5.92 S 338,251.3,340,262.3 s -4.33,16.42-8.33,19.83 c -2,8.5-6,17.75-8,31.63 s -1.12,19.13,3.13,29.13,11.27,15.46,14.23,30 c 3,14.75,1.5,32.88,1.5,32.88 S 328,414.25,315.11,415 a 85.73,85.73,0,0,1-27.87-2.75 c -6.5-1.62-17.87-4.75-24.37-.62-3-15.62-4.75-31.75-1.62-45.62 s 13.5-29.12,17.63-37.87,6.13-15.75,3.88-23.87-6.87-19.87-8.62-26 S 270.23,259.63,271,254.38Z" fill="param(main_colour)"/>
  </g>
  <g id="outline">
    <path d="M 330.5,347.21 c -4.62-8.44-8.15-14.08-5.65-32.33,1.56-11.39,5.15-22.38,7.7-32.56 a 16.16,16.16,0,0,0,4.55-4.31,21.47,21.47,0,0,0,4.06-15.87 c -1.06-6.56-7.19-13.37-9.19-16.31 a 74.75,74.75,0,0,0-6.62-8.31 c -2.37-2.48-8.81-7.69-11.17-10.12 a 29.91,29.91,0,0,1-4.71-3.56 s 5.71,11.73-3.62,13.06-16.37-6.12-19.37-11.12 c -1.17,1.17-4.31,2-4.31,2 s 4.33,3,4.31,11.63 c 0,9-9.12,13.46-16.58,13.83-.37,4,.46,18,7,35.5 s 8.25,24.42,2.25,36.92-17,28-19.75,44.25,2.83,42.5,2.83,42.5,9.25-3.1,16.67-1.33 c 7,1.67,40.81,11.67,64.48-4.92 C 346.34,368.63,336.34,357.88,330.5,347.21Z m 11.33,57.54 c -7.5,5.54-21.31,9.16-32.31,9 a 100.78,100.78,0,0,1-26.33-3.52 c -7.3-2-14.17-2-19.62,0-3.21-16.54-4.46-30.37-1.83-43.12 s 9.63-22.75,14.63-32.12,9.25-16.25,8.13-26.12-6.25-21.5-8.5-28-4.37-21.25-3.87-25.62 c 0-.37,10.5-1.37,15-9.5 s -2.12-17-2.12-17 l 1.38-.62 s 4.25,6.5,10.13,8.75,10.85,2.06,13.75-.12,2-7.87,1.54-9.5 a 7,7,0,0,0,1.81,1.06 A 154,154,0,0,1,326.44,241 c 6,7.12,9.25,12.21,11.58,17.67,2.5,5.83.58,12.38-1.17,16.25 s -6.37,8.31-10.19,9.38 a 12.76,12.76,0,0,0,3.91-.94 c -.89,3.14-1.88,6.29-2.86,9.69-3.12,10.88-7.48,29.25-4.73,41.25 s 14.36,25.13,16.61,36.63 A 116.5,116.5,0,0,1,341.84,404.75Z"/>
    <path d="M 292.16,285.23 s 12.95,3.9,18.95-5.73 C 307.61,282.88,300.71,285.46,292.16,285.23Z"/>
  </g>
<script type="text/ecmascript" xlink:href="param.min.js"/> 
</svg>
