<?xml version="1.0"?>
<svg xmlns="http://www.w3.org/2000/svg" xmlns:xlink="http://www.w3.org/1999/xlink" viewBox="0 0 600 600">
  <title>v-neck-t-shirt-dress-voluptuous</title>
  <g id="main-colour">
    <path d="M 369.27,389.38 c .83-18.58-.25-30.75-4.92-45.08 S 348,309.88,345,305.63 s -3.92-5.67-3.83-11.08 c 0-2.78.89-5.72,2-9.41 a 18.26,18.26,0,0,0,7.65-11.34 c 2.37-10.61-3.77-17.2-4.72-19.44 a 16.57,16.57,0,0,0-9.43-27 c -2.62-1-4.68-.59-7.13-.75 a 10.93,10.93,0,0,1-5.5-1.83 c -3.58,6.42-11.15,12-11.15,12 A 7.45,7.45,0,0,1,314.5,243 c 3.75-1.37,6.79-1.83,9.88-4.5,2.18,9.29-1,21-5.32,28.63-9.25-4.58-27.14-16.71-29.06-23.37 a 43.41,43.41,0,0,0,15.25.88,7.91,7.91,0,0,1-.62-6.62 c -16.25.63-25.68-8.37-27.76-13.21-.92,1.33-3.75,3.58-10.5,1.83 s -13.67.17-17.58,4.08 S 239.61,245,246.61,254 c -3,17.25,3.33,32.75,4.92,37.75 s -.58,12-4.58,17.92-15.22,22.54-20.17,35.83 c -4.39,11.79-6.72,25.07-6.22,42.15 s 4.08,25.76,6,37.35 a 50.61,50.61,0,0,1-.26,16.42,27.19,27.19,0,0,0,17,3.6,47.38,47.38,0,0,1-.75,5.16,98.88,98.88,0,0,0,10.5,0 c 3.77-.28,10.41-1.37,16-1.23 a 74.87,74.87,0,0,1,24.2,2.23 c 11,3,24.36,3.42,43.86,3.92 s 29.88-3.25,37.25-15.5 C 362.55,430.13,368.44,408,369.27,389.38Z" fill="param(main_colour)"/>
  </g>
  <g id="fixed-colours">
    <path d="M 301.61,238 s 1.67-4.25,4.75-5.33,6.25.25,8.5,2.75 c -.75.5-2,1.17-2,1.17 s -2.33-2.08-4.58-1.5 a 5,5,0,0,0-3.67,3Z" fill="#d1d3d4"/>
    <path d="M 302.36,245 l 2.83-.25 s 2.33,2.92,5.42,2.25,3.83-4.08,3.83-4.08 l 2.25-.42 s -.42,5.67-5,7.08-7.83-2.17-8.75-3.42Z" fill="#d1d3d4"/>
  </g>
  <g id="outline">
    <path d="M 292.14,295.38 c -6.12-.75-14.87-3.25-22-14.62 C 270.14,280.75,273.51,296.5,292.14,295.38Z"/>
    <path d="M 285.89,409.71 c -10.5-10.5-22.5-32-24.5-57.33 C 261.39,352.38,259.22,388.88,285.89,409.71Z"/>
    <path d="M 281.05,330.88 s 15.33,52.33,61.5,76.33 C 320.05,392.21,296.22,365.71,281.05,330.88Z"/>
    <path d="M 369.86,400.71 c 1-12.71,4.4-28.21-3.85-54.58 S 343.8,303,342.64,300.21 s -.58-5.92-.17-8.08 c .3-1.57,1-4.81,1.43-6.47 a 22.82,22.82,0,0,0,7.24-9.1 c 1.56-3.31,3-10.56.06-16.75 s -5.75-8.25-11.5-12.56 a 60.81,60.81,0,0,1-10.5-10.69 c 1.31,3,6.06,8.44,9.38,11.75 s 7.38,4.94,10.13,11.69 a 19.46,19.46,0,0,1-.19,16.31 c -1.62,3.75-6.12,9.88-10,12.19 a 23.09,23.09,0,0,0,2.7-1.19,22.67,22.67,0,0,0-1.61,7.31 c -.5,5.25,2.53,9.88,6.4,15.25 s 7.63,12.63,12.13,22,8.63,23.88,10.13,36.25-.19,27.61-1.57,40.42 c -1.32,12.29-2.33,23.17,6.25,31.29-7,11.2-14.7,13.26-32.68,14.21-11,.58-27.62-.29-51.37-4.92 l -2.16-.4 h 0 a 62.58,62.58,0,0,0-13.5-1.44,91.52,91.52,0,0,0-13.87,1.22 c -2.57.47-11.5,1.88-15.5.75,2.75-13-.12-29.12-3.25-38.87,0,0,3.41,18.39,1.82,34 a 38.34,38.34,0,0,1-6.73-.46,25.14,25.14,0,0,1-7.64-2.65 c .8-5.39.43-10.73-.62-18.31-1.87-13.5-5.35-15.88-5.75-37.75-.32-17.62,2.68-28.12,7.21-40.87,3.65-10.27,14.38-27.87,18.88-34.12 a 28.91,28.91,0,0,0,4.72-11.51 c .23,1,.45,2,.65,2.95,1.69,8.44.5,19.88.5,19.88 s 3.06-8.31.88-20.81-4.37-16.44-5.56-20.94 a 62.54,62.54,0,0,1-1.25-25.94 c -4.19-4.12-3.62-11.75-3.31-13.12 a 17.51,17.51,0,0,1,8-11.5 c 5.51-3.45,12.37-2.13,16.35-1.15 a 10.68,10.68,0,0,0,7.9-1.89 s 1.58,5.17,12.75,10.17 c 2.7,1.21,8.58,2.4,14.5,2.25-.87,2.5.63,5.63.63,5.63 s -9.56.75-15.87-1.75 c 2.25,5.75,9.31,11.94,15.19,16.31 s 12.69,8.31,15.31,9.19 c 4.25-5,8.31-19.81,5.88-30.81-2.5,2.63-9.12,5-10.06,5.19 a 7.52,7.52,0,0,0-1.44-5.56 c 3.88-1.81,9.42-8.27,10.86-11.2,2.08,1.7,5.64,1.83,7.39,1.64 a 19.9,19.9,0,0,1,5.06.19,6.38,6.38,0,0,0-4-1.37 c -2.56-.06-7.37-.44-9.25-2.12-1,3.18-5.08,7.93-8.72,10.77 a 7.68,7.68,0,0,0-13.57,2.86 c -5-.42-12.13-2.1-16.72-5.19-6.12-4.12-7.5-8.87-7.5-8.87 s -2.87,3.88-7.37,2.88-10.87-2.56-17.31.63 a 18.59,18.59,0,0,0-6.87,27.19 c -.25.81-1.62,10.63-.69,17.25 a 50.79,50.79,0,0,0,2.69,11.25 c .52,1.64,2,5.51,3.42,10.3.87,11-7.25,18.82-12.71,27.72 C 231.89,331,221.64,352,219.8,371.13 c -2,21.31,3.13,41.38,5,50.75 a 52.81,52.81,0,0,1,.71,20.19 l .07,0v0 l .95.58,0,0 c 1.77,1.07,3.95,2.24,9.13,3.29 a 60.18,60.18,0,0,0,6.47.59 c -.21,1.54-.47,3.05-.8,4.5,9.88,1.5,15.78,0,21.63-1,8.94-1.52,22.13.7,24.25,1.08 h 0 l .3.05 h 0 l .47.08 c 12.38,2.13,35,5.43,50.88,4.92,16.12-.52,29.8-2.46,36.8-17.08 C 365,429,368.82,413.68,369.86,400.71Z M 318.95,266.44 c -10.75-4.75-25.75-17.5-27.94-21.94 a 43.3,43.3,0,0,0,11,1 c 1.8,3.5,5.38,5.57,9,4.84 s 6-3.9,6.34-7.72 c 3.33-1.2,6.19-2.66,6.74-3.26 C 325,245.5,323.45,258.32,318.95,266.44Z m -2.69-23.49 a 6.92,6.92,0,0,1-13.16,2.45 c .85-.06,1.55-.13,2.08-.2 a 5.32,5.32,0,0,0,9.58-1.79 C 315.27,243.27,315.77,243.11,316.26,242.95Z m -2.46.61 a 4.66,4.66,0,0,1-3.34,2.93,4.79,4.79,0,0,1-4.71-1.93 h 0 a 6.57,6.57,0,0,1-.48-6.75,4.51,4.51,0,0,1,3-2.21,4.65,4.65,0,0,1,4.13,1.29 l 0,0 C 314.14,238.3,314.44,241.62,313.8,243.56Z m -6.36-10.62 a 7,7,0,0,1,6.59,2.38 c -.41.3-.82.57-1.21.8 a 5.22,5.22,0,0,0-8.5,1.53 c -.59,0-1.26,0-2,0 A 7,7,0,0,1,307.44,232.94Z"/>
    <path d="M 257.12,446 a 2.78,2.78,0,0,0-.26.17Z"/>
    <path d="M 280.61,444.38 c 8.88,1,13,2.43,23.75,4.5,18.75,3.63,40.82,3.22,53.88-.25-5.34.27-11.08,1.51-21.87,1.75 a 149.13,149.13,0,0,1-31.37-2.5 c -7.78-1.63-36.08-9.87-47.86-1.92 C 258.36,445.24,264.27,442.54,280.61,444.38Z"/>
  </g>
<script type="text/ecmascript" xlink:href="param.min.js"/> 
</svg>
