<?xml version="1.0"?>
<svg xmlns="http://www.w3.org/2000/svg" xmlns:xlink="http://www.w3.org/1999/xlink" viewBox="0 0 600 600">
  <title>basic-bikini-top-hourglass</title>
  <g id="main-colour">
    <path d="M 267.26,281.44 s 8.56,6.38,16.19,7.13 c 2.06-13,5.75-22.25,12.56-30.94-1.87-10.31-4.75-22.62-12.37-32.81,1.25-1,2.19-1.62,2.19-1.62 s 9.4,11.6,13.48,33.35 c 8.42,2.75,20.83,9.33,21.58,21.17 a 11.07,11.07,0,0,1-1.42,3.42,19.66,19.66,0,0,1,3.17.67 c 2-8.58,5-19.25,12.25-26.33-7.42-6.33-19.67-25-21.58-31.5 a 24.73,24.73,0,0,0,3.83,2.25,58.32,58.32,0,0,0,12.92,19.92,30.2,30.2,0,0,0,9.17,7.5,17.47,17.47,0,0,1,8.92,10.75 c 1.75,6.42-1.42,14.08-6.33,19.08 s -10.17,5.33-14.08,4.33 A 20.56,20.56,0,0,1,319.8,284 a 8.34,8.34,0,0,1-1.92-.58 s -.67,3.83-11.75,9.92-25.92-1.67-28.25-2.92-9.33-5.92-9.33-5.92 A 12.8,12.8,0,0,1,267.26,281.44Z" fill="param(main_colour)"/>
  </g>
  <g id="outline">
    <path d="M 338,252.38 S 325.7,245.21,317.54,226 a 20.2,20.2,0,0,1-6-4.5 s 9.6,22.46,22.47,34 c -6.37,5.75-10.5,19-11.87,25.58 a 10.06,10.06,0,0,0-1.91-.46,22.41,22.41,0,0,0,1.16-3 c 0-15-21.68-21.42-21.68-21.42 s -3.83-20.33-13.83-33.83 a 34.51,34.51,0,0,1-2.94,2.25 s 9.44,12.08,12.6,32.75 a 52.75,52.75,0,0,0-12.49,30.75 s -7.67-1-16.68-7.75 a 13,13,0,0,0,2.33,4.83 s 14.56,11.73,28.24,11.1 a 28,28,0,0,0,21.44-12.42,8.27,8.27,0,0,1,1.08.45 c 5.14,3.88,12,5.87,17.17,3.54,8-3.62,12.88-11.54,12.88-20.87 S 338,252.38,338,252.38Z m -38.94,42.44 c -8.72,1.93-24.44-6-30-10.6-.92-1.67-1.25-2.17-1.25-2.17 s 7.51,6.33,16.1,7.17 c 2-11.37,3.41-18.54,12.74-31.67-1.67-10.75-6.08-24.33-12.37-32.54 l 1.56-1.19 c 2.38,2.94,7.31,12.31,10.13,21.81 S 298.81,257,298.81,257 s 20.91,7,21.49,20.63 C 318.14,283.29,312.64,291.82,299.07,294.82Z M 339,284.63 A 15.69,15.69,0,0,1,325.7,284 a 11.62,11.62,0,0,0,10.85,2,15,15,0,0,1-4.67,1.45 c -3,.38-7.42-.58-11.92-4-.39-.13-.76-.24-1.13-.34q.52-.84,1-1.72 a 8.73,8.73,0,0,1,3.14.89 c 2.88-13.81,8.06-22.42,12.56-27-11.62-10-21.22-30-21.22-30 a 10,10,0,0,0,2.42,1.17,97.8,97.8,0,0,0,9.93,16.58 c 3.88,5,7,7.88,11,10.25,5.5,3.25,12.25,7.25,9.25,20.13 A 19.64,19.64,0,0,1,339,284.63Z"/>
    <path d="M 304.3,290.63 l -.29.1 c .31-.8,1.68-4.59.79-7.19 a 18.8,18.8,0,0,1-1.72,7.52 c -8,2.67-15.94-.11-15.94-.11 s 7.42,4.5,17.33.42,13.67-11.67,13.67-11.67 S 312.72,287.21,304.3,290.63Z"/>
  </g>
<script type="text/ecmascript" xlink:href="param.min.js"/> 
</svg>
