<?xml version="1.0"?>
<svg xmlns="http://www.w3.org/2000/svg" xmlns:xlink="http://www.w3.org/1999/xlink" viewBox="0 0 600 600">
  <title>wedding-dress-curvy</title>
  <g id="main-colour">
    <path d="M 254.65,266.8 s 8.08,2.67,19.75-1.75,18.33-7.17,26.92-7.5 a 37.19,37.19,0,0,1,19.25,5 c 4-6.17,12.92-9.67,25.08-9.42,7.75,9.25,10.42,25.92-7,34.08-2.5,8.33-6,19-4.17,27 s 5.67,14.25,13.67,24.58,27,35,39.08,55.42,29,55.33,35.67,105.17 c 2.5,17.17,1.83,45.33,1.83,45.33 s -3.83,7-16,7.33 c -.83,5.67-1.17,11-1.17,11 s -3.33,5.5-12.83,6.83-18,1-20.67,5 c .5,6.5.5,7.67.5,7.67 a 46,46,0,0,0-17,6.83 c -9.17,5.83-17.17,7.17-27,6 s -24.83-7.17-31.67-3.5 c -.83-4.33-1-5.83-1-5.83 s -6-3.67-20.17-2.83-28.17-3.33-32-8.67 c -1-5.5-1.33-7.17-1.33-7.17 s -8.83-3.83-14.33-3.83-18,1.33-22.67-6.33 c -1.67-9.83-2-10.33-2-10.33 a 24,24,0,0,0-6.17-1.17 c -2.67,0-7.67-1.33-8.33-4.17 s -5.17-39.17-.83-67.17,16.17-74.33,36-106,34.5-44,38-50.83,4.33-14.5,1.5-19.33 S 254.4,279,254.65,266.8Z" fill="param(main_colour)"/>
  </g>
  <g id="accent-colour-1">
    <circle cx="275.06" cy="229.71" r="2.58" fill="param(accent_colour_1)"/>
    <circle cx="280.06" cy="232.55" r="2.58" fill="param(accent_colour_1)"/>
    <circle cx="285.4" cy="235.05" r="2.58" fill="param(accent_colour_1)"/>
    <circle cx="290.89" cy="237.15" r="2.58" fill="param(accent_colour_1)"/>
    <circle cx="296.41" cy="238.59" r="2.58" fill="param(accent_colour_1)"/>
    <circle cx="302.12" cy="239.5" r="2.58" fill="param(accent_colour_1)"/>
    <circle cx="308.02" cy="238.92" r="2.58" fill="param(accent_colour_1)"/>
    <circle cx="313.69" cy="237.85" r="2.58" fill="param(accent_colour_1)"/>
    <circle cx="318.65" cy="234.63" r="2.58" fill="param(accent_colour_1)"/>
    <circle cx="322.62" cy="230.71" r="2.58" fill="param(accent_colour_1)"/>
    <circle cx="312.16" cy="242.88" r="2.58" transform="translate(48.51 537.71) rotate(-86.08)" fill="param(accent_colour_1)"/>
    <circle cx="306.12" cy="244.03" r="2.58" transform="translate(41.73 532.75) rotate(-86.08)" fill="param(accent_colour_1)"/>
    <circle cx="310.31" cy="247.55" r="2.58" transform="translate(42.14 540.21) rotate(-86.08)" fill="param(accent_colour_1)"/>
    <circle cx="279.73" cy="226.19" r="2.58" fill="param(accent_colour_1)"/>
    <circle cx="284.31" cy="228.96" r="2.58" fill="param(accent_colour_1)"/>
    <circle cx="289.31" cy="231.23" r="2.58" fill="param(accent_colour_1)"/>
    <circle cx="294.31" cy="233.25" r="2.58" fill="param(accent_colour_1)"/>
    <circle cx="299.7" cy="234.23" r="2.58" fill="param(accent_colour_1)"/>
    <circle cx="305.4" cy="234.3" r="2.58" fill="param(accent_colour_1)"/>
    <circle cx="310.78" cy="233.44" r="2.58" fill="param(accent_colour_1)"/>
    <circle cx="315.42" cy="230.75" r="2.58" fill="param(accent_colour_1)"/>
    <circle cx="319.48" cy="226.64" r="2.58" fill="param(accent_colour_1)"/>
    <circle cx="267.94" cy="272.85" r="2.33" fill="param(accent_colour_1)"/>
    <circle cx="286.52" cy="275.68" r="2.33" fill="param(accent_colour_1)"/>
    <circle cx="297.94" cy="264.02" r="2.33" fill="param(accent_colour_1)"/>
    <circle cx="303.69" cy="279.18" r="2.33" fill="param(accent_colour_1)"/>
    <circle cx="320.52" cy="271.35" r="2.33" fill="param(accent_colour_1)"/>
    <circle cx="332.69" cy="261.35" r="2.33" fill="param(accent_colour_1)"/>
    <circle cx="344.27" cy="268.43" r="2.33" fill="param(accent_colour_1)"/>
    <circle cx="333.1" cy="277.77" r="2.33" fill="param(accent_colour_1)"/>
    <circle cx="319.35" cy="286.68" r="2.33" fill="param(accent_colour_1)"/>
    <circle cx="289.6" cy="289.18" r="2.33" fill="param(accent_colour_1)"/>
    <circle cx="272.27" cy="285.6" r="2.33" fill="param(accent_colour_1)"/>
    <circle cx="275.85" cy="296.43" r="2.33" fill="param(accent_colour_1)"/>
    <circle cx="276.1" cy="308.85" r="2.33" fill="param(accent_colour_1)"/>
    <circle cx="272.1" cy="318.68" r="2.33" fill="param(accent_colour_1)"/>
    <circle cx="289.44" cy="316.27" r="2.33" fill="param(accent_colour_1)"/>
    <circle cx="291.1" cy="302.93" r="2.33" fill="param(accent_colour_1)"/>
    <circle cx="305.69" cy="295.93" r="2.33" fill="param(accent_colour_1)"/>
    <circle cx="317.94" cy="302.43" r="2.33" fill="param(accent_colour_1)"/>
    <circle cx="330.27" cy="294.43" r="2.33" fill="param(accent_colour_1)"/>
    <circle cx="327.85" cy="308.52" r="2.33" fill="param(accent_colour_1)"/>
    <circle cx="327.69" cy="320.1" r="2.33" fill="param(accent_colour_1)"/>
    <circle cx="316.35" cy="315.77" r="2.33" fill="param(accent_colour_1)"/>
    <circle cx="304.19" cy="309.6" r="2.33" fill="param(accent_colour_1)"/>
    <circle cx="303.1" cy="323.1" r="2.33" fill="param(accent_colour_1)"/>
    <circle cx="315.85" cy="330.43" r="2.33" fill="param(accent_colour_1)"/>
    <path d="M 321.56,261.71 s 1.5,6.5-.17,17.83-7.33,48.5-3.17,63 a 4.44,4.44,0,0,1-.67,1.33 l -1.17-1 s -2.67-6-.5-30,6.5-43.5,3.67-50.67Z" fill="param(accent_colour_1)"/>
    <path d="M 330.56,255.21 A 53.55,53.55,0,0,1,332,282.36 c -3.15,14.69-7.48,37.85-3.48,44.35 a 12.14,12.14,0,0,1,1-1.17 s -2.25-5.77-.87-16.89,7-32.61,5.54-42.45-2.67-11.33-2.67-11.33Z" fill="param(accent_colour_1)"/>
    <path d="M 338.9,253 s 9.67,13,2,32.33 a 1.63,1.63,0,0,0,1.33.33 s 7.83-17.5-1.83-32.83 C 339.9,252.55,338.9,253,338.9,253Z" fill="param(accent_colour_1)"/>
    <path d="M 296.4,258 a 140,140,0,0,1,6.83,16.83,69,69,0,0,1,3,26.67 c -.88,11.45-3,31.74-3,30.5 l -2-.83 s 1-5.67,1.67-13,2.67-18.83,2.17-25.5-2-14.83-3.83-19.67-6.33-14.83-6.33-14.83Z" fill="param(accent_colour_1)"/>
    <path d="M 282.9,262.38 s 6.33,15.33,8.4,31.33 c 1.92,14.87-3.57,32-3.57,32 l -1.5-.17 S 290.3,312,290,302.86 c -.41-13.67-2.79-26.81-8.79-39.65 A 1.75,1.75,0,0,1,282.9,262.38Z" fill="param(accent_colour_1)"/>
    <path d="M 266.9,267.21 a 95.91,95.91,0,0,0,4,13 c 2.67,6.83,8.74,19.75,5.87,29.12 s -6,13.88-6,13.88 H 268.9 s 5.17-8.67,6.5-14,.54-10.73-1.33-16.33-6.83-19.33-8.83-25.83 A 8.55,8.55,0,0,0,266.9,267.21Z" fill="param(accent_colour_1)"/>
  </g>
  <g id="outline">
    <path d="M 426.4,523.54 c -.67-28.33-9.83-72.5-22-99.83 s -32.12-57-39.62-66.33-21-24.62-26.75-35.5-2.37-23.12,1.63-33.62 a 22.6,22.6,0,0,0,13-16.62 A 21.86,21.86,0,0,0,345.77,252 c -18.75-1.25-25.5,9.38-25.5,9.38 a 36.7,36.7,0,0,0-18.12-4.87 c -10.5,0-18.5,4.5-30,8.13 s -18.62.88-18.62.88 c .63,13.79,5.71,22.71,9.88,30.54 s 3.5,14.17.33,19.83-20.5,24.17-30.5,38.67-29.33,49.33-39.17,92-9.17,65.83-4.17,96.33 a 16,16,0,0,0,8.67,4.17,21.05,21.05,0,0,1,5.87,1.61q.64,4.62,1.46,9.22 c 6.25,7.25,14,6.75,21.25,6.75,6,0,13.19,2.74,16.2,4.53.18,2.22.36,4.46.55,6.72,13,9.75,23.75,9.5,31.75,8.75,7.26-.68,15.94.29,21.23,2.9.47,3.82.77,5.85.77,5.85 s 9-2.75,17.25.25,25.75,7.5,39-.5,19-8.75,21.75-8.25 c 0-2.95,0-6,0-9.25,2.09-1.59,6.84-3.39,16.49-4,11.75-.75,16.75-8.25,16.75-8.25 s .39-4.05.73-9.78 c 1.21-.27,3.2-.67,6.43-1.22,6.83-1.17,10.17-7.83,10.17-7.83 A 130.52,130.52,0,0,0,426.4,523.54Z M 267.77,303.13 a 34,34,0,0,1,3.13,11.63 c .63-2.37-1-11.5-5.87-19.62 s -8.5-17-9.37-27 c 13.13,2.13,25.38-4.62,35-7.62 a 40.51,40.51,0,0,1,30.25,3.13 c 5.38-7,16.88-10.87,24.13-9.75,2.5,2.63,6.25,9.63,5.38,16 s -6,14.63-11.87,16.25 c -3.25,7-6.12,20.38-5.5,26.88 a 25.42,25.42,0,0,0,2,7 c -10.08,5.69-17.8,22.71-17.8,22.71 s -8.83-12.5-27.5-17.33 c -14.4-3.73-24.33-3.19-28.12-2.75 C 266.06,317.2,269.3,311.61,267.77,303.13Z M 423.56,543.88 c -1,2.5-5.33,5.33-7.33,5.83-1.38.35-4.6.93-6.45,1.26.27-5.08.47-11.05.37-16.59 a 284.21,284.21,0,0,0-24.75-114 c -16.5-36.25-49-80.5-49-80.5 s 31.75,50.75,42.25,73.25,23,59.5,26.25,91.25 a 370.77,370.77,0,0,1,1.25,58.5 s -8.75,6.5-17.75,6.25 a 27.75,27.75,0,0,0-12.76,2.65 c -.32-32.08-2.87-75.11-12.49-114.9-11-45.5-28-89.75-38.75-104.75,12.5,27.75,21,48.25,34,98.75 s 13.25,98,14.25,130.25 c -8,1-18.25,8-22.25,10 s -15.25,4.5-25,1.75-19.5-5.25-24.75-3 c -3.25-36.25-4.5-61.25-4.75-100 s 6-99.75,14.5-137 c 0,0-16,53.5-18,123 a 781.07,781.07,0,0,0,4.08,108.32 c -2.48-1.08-9.86-3.72-20.33-2.32 a 38.8,38.8,0,0,1-29-8 c -1.25-21.25-4.5-38.5-1.25-83 s 12.5-77.25,41-145 c 0,0-27.5,49-37.75,99.25-9.44,46.27-9.12,80.67-6.09,120.38-2.85-1.46-9.12-4.18-15.41-3.63-8.5.75-13.75-1.25-19-5.5-3-26-5.5-48.75,1.25-90.75 s 27.25-81,33-92.5,21.83-35.42,21.83-35.42-25.17,27.83-42.67,74 c -16,42.31-23.6,88.88-18,133.89-2.84-1-6.42-.34-11.32-4.05-5-26.83-4-57.17,3.17-90 s 19.88-62.79,31.63-82.67 c 10.81-18.28,25.73-36.34,31.85-43.59,30.91-3.11,49.29,10.2,58.53,20.76 a 62.06,62.06,0,0,1,18-24.16 c 3.11,6.65,8.76,15.31,17.2,25.16,13,15.17,34.83,50,41,61.5 s 17.83,38.83,23.5,67.33 S 424.23,524.71,423.56,543.88Z"/>
    <path d="M 302.4,294.21 a 29.87,29.87,0,0,1-24.83-6.33 S 285.73,300.88,302.4,294.21Z"/>
    <path d="M 287,289v.24 a 2.51,2.51,0,0,0,2.5,2.5 h .24 a 2.51,2.51,0,0,0,2.5-2.5V289 a 2.51,2.51,0,0,0-2.5-2.5 h -.24 A 2.51,2.51,0,0,0,287,289Z m .85,0 a 1.69,1.69,0,0,1,1.69-1.69 h .17 a 1.69,1.69,0,0,1,1.69,1.69v.17 a 1.69,1.69,0,0,1-1.69,1.69 h -.17 a 1.69,1.69,0,0,1-1.69-1.69Z"/>
    <path d="M 286.42,278.25 h .24 a 2.51,2.51,0,0,0,2.5-2.5v-.24 a 2.51,2.51,0,0,0-2.5-2.5 h -.24 a 2.51,2.51,0,0,0-2.5,2.5v.24 A 2.51,2.51,0,0,0,286.42,278.25Z m -1.65-2.7 a 1.69,1.69,0,0,1,1.69-1.69 h .17 a 1.69,1.69,0,0,1,1.69,1.69v.17 a 1.69,1.69,0,0,1-1.69,1.69 h -.17 a 1.69,1.69,0,0,1-1.69-1.69Z"/>
    <path d="M 289.58,313.51 h -.24 a 2.51,2.51,0,0,0-2.5,2.5v.24 a 2.51,2.51,0,0,0,2.5,2.5 h .24 a 2.51,2.51,0,0,0,2.5-2.5V316 A 2.51,2.51,0,0,0,289.58,313.51Z m 1.65,2.7 a 1.69,1.69,0,0,1-1.69,1.69 h -.17 a 1.69,1.69,0,0,1-1.69-1.69V316 a 1.69,1.69,0,0,1,1.69-1.69 h .17 a 1.69,1.69,0,0,1,1.69,1.69Z"/>
    <path d="M 276.23,306.21 H 276 a 2.51,2.51,0,0,0-2.5,2.5V309 a 2.51,2.51,0,0,0,2.5,2.5 h .24 a 2.51,2.51,0,0,0,2.5-2.5v-.24 A 2.51,2.51,0,0,0,276.23,306.21Z m 1.65,2.7 a 1.69,1.69,0,0,1-1.69,1.69 H 276 a 1.69,1.69,0,0,1-1.69-1.69v-.17 a 1.69,1.69,0,0,1,1.69-1.69 h .17 a 1.69,1.69,0,0,1,1.69,1.69Z"/>
    <path d="M 273.23,296.21v.24 a 2.51,2.51,0,0,0,2.5,2.5 H 276 a 2.51,2.51,0,0,0,2.5-2.5v-.24 a 2.51,2.51,0,0,0-2.5-2.5 h -.24 A 2.51,2.51,0,0,0,273.23,296.21Z m .85,0 a 1.69,1.69,0,0,1,1.69-1.69 h .17 a 1.69,1.69,0,0,1,1.69,1.69v.17 a 1.69,1.69,0,0,1-1.69,1.69 h -.17 a 1.69,1.69,0,0,1-1.69-1.69Z"/>
    <path d="M 272.4,288.12 a 2.51,2.51,0,0,0,2.5-2.5v-.24 a 2.51,2.51,0,0,0-2.5-2.5 h -.24 a 2.51,2.51,0,0,0-2.5,2.5v.24 a 2.51,2.51,0,0,0,2.5,2.5Z m -1.89-2.54v-.17 a 1.69,1.69,0,0,1,1.69-1.69 h .17 a 1.69,1.69,0,0,1,1.69,1.69v.17 a 1.69,1.69,0,0,1-1.69,1.69 h -.17 A 1.69,1.69,0,0,1,270.51,285.58Z"/>
    <path d="M 270.58,272.92v-.24 a 2.51,2.51,0,0,0-2.5-2.5 h -.24 a 2.51,2.51,0,0,0-2.5,2.5v.24 a 2.51,2.51,0,0,0,2.5,2.5 h .24 A 2.51,2.51,0,0,0,270.58,272.92Z m -.85,0 a 1.69,1.69,0,0,1-1.69,1.69 h -.17 a 1.69,1.69,0,0,1-1.69-1.69v-.17 a 1.69,1.69,0,0,1,1.69-1.69 H 268 a 1.69,1.69,0,0,1,1.69,1.69Z"/>
    <path d="M 291.24,300.32 H 291 a 2.51,2.51,0,0,0-2.5,2.5v.24 a 2.51,2.51,0,0,0,2.5,2.5 h .24 a 2.51,2.51,0,0,0,2.5-2.5v-.24 A 2.51,2.51,0,0,0,291.24,300.32Z m 1.65,2.7 a 1.69,1.69,0,0,1-1.69,1.69 H 291 a 1.69,1.69,0,0,1-1.69-1.69v-.17 a 1.69,1.69,0,0,1,1.69-1.69 h .17 a 1.69,1.69,0,0,1,1.69,1.69Z"/>
    <path d="M 297.84,266.56 h .24 a 2.51,2.51,0,0,0,2.5-2.5v-.24 a 2.51,2.51,0,0,0-2.5-2.5 h -.24 a 2.51,2.51,0,0,0-2.5,2.5v.24 A 2.51,2.51,0,0,0,297.84,266.56Z m -1.65-2.7 a 1.69,1.69,0,0,1,1.69-1.69 H 298 a 1.69,1.69,0,0,1,1.69,1.69V264 a 1.69,1.69,0,0,1-1.69,1.69 h -.17 a 1.69,1.69,0,0,1-1.69-1.69Z"/>
    <path d="M 272,321.23 h .24 a 2.51,2.51,0,0,0,2.5-2.5v-.24 a 2.51,2.51,0,0,0-2.5-2.5 H 272 a 2.51,2.51,0,0,0-2.5,2.5v.24 A 2.51,2.51,0,0,0,272,321.23Z m -1.65-2.7 a 1.69,1.69,0,0,1,1.69-1.69 h .17 a 1.69,1.69,0,0,1,1.69,1.69v.17 a 1.69,1.69,0,0,1-1.69,1.69 H 272 a 1.69,1.69,0,0,1-1.69-1.69Z"/>
    <path d="M 315.8,333.21 H 316 a 2.51,2.51,0,0,0,2.5-2.5v-.24 A 2.51,2.51,0,0,0,316,328 h -.24 a 2.51,2.51,0,0,0-2.5,2.5v.24 A 2.51,2.51,0,0,0,315.8,333.21Z m -1.65-2.7 a 1.69,1.69,0,0,1,1.69-1.69 H 316 a 1.69,1.69,0,0,1,1.69,1.69v.17 a 1.69,1.69,0,0,1-1.69,1.69 h -.17 a 1.69,1.69,0,0,1-1.69-1.69Z"/>
    <path d="M 303.28,320.47 H 303 a 2.51,2.51,0,0,0-2.5,2.5v.24 a 2.51,2.51,0,0,0,2.5,2.5 h .24 a 2.51,2.51,0,0,0,2.5-2.5V323 A 2.51,2.51,0,0,0,303.28,320.47Z m 1.65,2.7 a 1.69,1.69,0,0,1-1.69,1.69 h -.17 a 1.69,1.69,0,0,1-1.69-1.69V323 a 1.69,1.69,0,0,1,1.69-1.69 h .17 a 1.69,1.69,0,0,1,1.69,1.69Z"/>
    <path d="M 305.54,293.3 a 2.51,2.51,0,0,0-2.5,2.5V296 a 2.51,2.51,0,0,0,2.5,2.5 h .24 a 2.51,2.51,0,0,0,2.5-2.5v-.24 a 2.51,2.51,0,0,0-2.5-2.5Z m 1.89,2.54V296 a 1.69,1.69,0,0,1-1.69,1.69 h -.17 a 1.69,1.69,0,0,1-1.69-1.69v-.17 a 1.69,1.69,0,0,1,1.69-1.69 h .17 A 1.69,1.69,0,0,1,307.43,295.84Z"/>
    <path d="M 317.9,305 h .24 a 2.51,2.51,0,0,0,2.5-2.5v-.24 a 2.51,2.51,0,0,0-2.5-2.5 h -.24 a 2.51,2.51,0,0,0-2.5,2.5v.24 A 2.51,2.51,0,0,0,317.9,305Z m -1.65-2.7 a 1.69,1.69,0,0,1,1.69-1.69 h .17 a 1.69,1.69,0,0,1,1.69,1.69v.17 a 1.69,1.69,0,0,1-1.69,1.69 h -.17 a 1.69,1.69,0,0,1-1.69-1.69Z"/>
    <path d="M 327.73,311.21 H 328 a 2.51,2.51,0,0,0,2.5-2.5v-.24 A 2.51,2.51,0,0,0,328,306 h -.24 a 2.51,2.51,0,0,0-2.5,2.5v.24 A 2.51,2.51,0,0,0,327.73,311.21Z m -1.65-2.7 a 1.69,1.69,0,0,1,1.69-1.69 h .17 a 1.69,1.69,0,0,1,1.69,1.69v.17 a 1.69,1.69,0,0,1-1.69,1.69 h -.17 a 1.69,1.69,0,0,1-1.69-1.69Z"/>
    <path d="M 332.55,263.92 h .24 a 2.51,2.51,0,0,0,2.5-2.5v-.24 a 2.51,2.51,0,0,0-2.5-2.5 h -.24 a 2.51,2.51,0,0,0-2.5,2.5v.24 A 2.51,2.51,0,0,0,332.55,263.92Z m -1.65-2.7 a 1.69,1.69,0,0,1,1.69-1.69 h .17 a 1.69,1.69,0,0,1,1.69,1.69v.17 a 1.69,1.69,0,0,1-1.69,1.69 h -.17 a 1.69,1.69,0,0,1-1.69-1.69Z"/>
    <path d="M 316.19,318.4 h .24 a 2.51,2.51,0,0,0,2.5-2.5v-.24 a 2.51,2.51,0,0,0-2.5-2.5 h -.24 a 2.51,2.51,0,0,0-2.5,2.5v.24 A 2.51,2.51,0,0,0,316.19,318.4Z m -1.65-2.7 a 1.69,1.69,0,0,1,1.69-1.69 h .17 a 1.69,1.69,0,0,1,1.69,1.69v.17 a 1.69,1.69,0,0,1-1.69,1.69 h -.17 a 1.69,1.69,0,0,1-1.69-1.69Z"/>
    <path d="M 327.53,322.73 h .24 a 2.51,2.51,0,0,0,2.5-2.5V320 a 2.51,2.51,0,0,0-2.5-2.5 h -.24 A 2.51,2.51,0,0,0,325,320v.24 A 2.51,2.51,0,0,0,327.53,322.73Z m -1.65-2.7 a 1.69,1.69,0,0,1,1.69-1.69 h .17 a 1.69,1.69,0,0,1,1.69,1.69v.17 a 1.69,1.69,0,0,1-1.69,1.69 h -.17 a 1.69,1.69,0,0,1-1.69-1.69Z"/>
    <path d="M 319.17,289.25 h .24 a 2.51,2.51,0,0,0,2.5-2.5v-.24 a 2.51,2.51,0,0,0-2.5-2.5 h -.24 a 2.51,2.51,0,0,0-2.5,2.5v.24 A 2.51,2.51,0,0,0,319.17,289.25Z m -1.65-2.7 a 1.69,1.69,0,0,1,1.69-1.69 h .17 a 1.69,1.69,0,0,1,1.69,1.69v.17 a 1.69,1.69,0,0,1-1.69,1.69 h -.17 a 1.69,1.69,0,0,1-1.69-1.69Z"/>
    <path d="M 330,297.08 h .24 a 2.51,2.51,0,0,0,2.5-2.5v-.24 a 2.51,2.51,0,0,0-2.5-2.5 H 330 a 2.51,2.51,0,0,0-2.5,2.5v.24 A 2.51,2.51,0,0,0,330,297.08Z m -1.65-2.7 a 1.69,1.69,0,0,1,1.69-1.69 h .17 a 1.69,1.69,0,0,1,1.69,1.69v.17 a 1.69,1.69,0,0,1-1.69,1.69 H 330 a 1.69,1.69,0,0,1-1.69-1.69Z"/>
    <path d="M 304.31,307 h -.24 a 2.51,2.51,0,0,0-2.5,2.5v.24 a 2.51,2.51,0,0,0,2.5,2.5 h .24 a 2.51,2.51,0,0,0,2.5-2.5v-.24 A 2.51,2.51,0,0,0,304.31,307Z m 1.65,2.7 a 1.69,1.69,0,0,1-1.69,1.69 h -.17 a 1.69,1.69,0,0,1-1.69-1.69v-.17 a 1.69,1.69,0,0,1,1.69-1.69 h .17 a 1.69,1.69,0,0,1,1.69,1.69Z"/>
    <path d="M 320.36,273.9 h .24 a 2.51,2.51,0,0,0,2.5-2.5v-.24 a 2.51,2.51,0,0,0-2.5-2.5 h -.24 a 2.51,2.51,0,0,0-2.5,2.5v.24 A 2.51,2.51,0,0,0,320.36,273.9Z m -1.65-2.7 a 1.69,1.69,0,0,1,1.69-1.69 h .17 a 1.69,1.69,0,0,1,1.69,1.69v.17 a 1.69,1.69,0,0,1-1.69,1.69 h -.17 a 1.69,1.69,0,0,1-1.69-1.69Z"/>
    <path d="M 333.23,275.14 H 333 a 2.51,2.51,0,0,0-2.5,2.5v.24 a 2.51,2.51,0,0,0,2.5,2.5 h .24 a 2.51,2.51,0,0,0,2.5-2.5v-.24 A 2.51,2.51,0,0,0,333.23,275.14Z m 1.65,2.7 a 1.69,1.69,0,0,1-1.69,1.69 H 333 a 1.69,1.69,0,0,1-1.69-1.69v-.17 A 1.69,1.69,0,0,1,333,276 h .17 a 1.69,1.69,0,0,1,1.69,1.69Z"/>
    <path d="M 344.16,271 h .24 a 2.51,2.51,0,0,0,2.5-2.5v-.24 a 2.51,2.51,0,0,0-2.5-2.5 h -.24 a 2.51,2.51,0,0,0-2.5,2.5v.24 A 2.51,2.51,0,0,0,344.16,271Z m -1.65-2.7 a 1.69,1.69,0,0,1,1.69-1.69 h .17 a 1.69,1.69,0,0,1,1.69,1.69v.17 a 1.69,1.69,0,0,1-1.69,1.69 h -.17 a 1.69,1.69,0,0,1-1.69-1.69Z"/>
    <path d="M 303.51,281.75 h .24 a 2.51,2.51,0,0,0,2.5-2.5V279 a 2.51,2.51,0,0,0-2.5-2.5 h -.24 A 2.51,2.51,0,0,0,301,279v.24 A 2.51,2.51,0,0,0,303.51,281.75Z m -1.65-2.7 a 1.69,1.69,0,0,1,1.69-1.69 h .17 A 1.69,1.69,0,0,1,305.4,279v.17 a 1.69,1.69,0,0,1-1.69,1.69 h -.17 a 1.69,1.69,0,0,1-1.69-1.69Z"/>
    <path d="M 275,232.64 h .27 a 2.81,2.81,0,0,0,1.95-.79,2.8,2.8,0,0,0-.05.52v.27 a 2.84,2.84,0,0,0,2.83,2.83 h .27 a 2.83,2.83,0,0,0,2.29-1.19,2.81,2.81,0,0,0-.06.58v.27 A 2.84,2.84,0,0,0,285.3,238 h .27 a 2.82,2.82,0,0,0,2.43-1.41,2.78,2.78,0,0,0,0,.41v.27 a 2.84,2.84,0,0,0,2.83,2.83 h .27 a 2.83,2.83,0,0,0,2.42-1.38,2.84,2.84,0,0,0,2.83,2.82 h .27 a 2.83,2.83,0,0,0,2.64-1.85,2.83,2.83,0,0,0,2.82,2.77 h .27 a 2.79,2.79,0,0,0,1.37-.37,2.81,2.81,0,0,0-.61,1.56 l 0,.27 a 2.84,2.84,0,0,0,2.63,3 l .27,0 a 2.8,2.8,0,0,0,1.49-.32,2.79,2.79,0,0,0-.12.63 l 0,.27 a 2.84,2.84,0,0,0,2.63,3 l .27,0 a 2.84,2.84,0,0,0,3-2.63 l 0-.27 a 2.8,2.8,0,0,0-.5-1.79,2.83,2.83,0,0,0,2.34-2.59 l 0-.27 a 2.81,2.81,0,0,0-.9-2.24,2.83,2.83,0,0,0,2.45-2.79v-.27 a 2.78,2.78,0,0,0-.15-.85,2.81,2.81,0,0,0,1.94.78 h .27 a 2.84,2.84,0,0,0,2.83-2.83v-.27 a 2.79,2.79,0,0,0-.26-1.16,2.79,2.79,0,0,0,1.21.29 h .27 a 2.84,2.84,0,0,0,2.83-2.83v-.27 a 2.84,2.84,0,0,0-2.83-2.83 h -.27 a 2.76,2.76,0,0,0-.33,0,2.78,2.78,0,0,0,.17-.93v-.27 a 2.84,2.84,0,0,0-2.83-2.83 h -.27 a 2.84,2.84,0,0,0-2.83,2.83v.27 a 2.79,2.79,0,0,0,.32,1.27,2.79,2.79,0,0,0-1.2-.28 h -.27 a 2.84,2.84,0,0,0-2.83,2.83v.25 a 2.8,2.8,0,0,0-1.5-.44 h -.27 a 2.84,2.84,0,0,0-2.76,2.21,2.83,2.83,0,0,0-2.33-1.24 h -.27 a 2.83,2.83,0,0,0-2.64,1.85,2.83,2.83,0,0,0-2.71-2.06 h -.27 a 2.83,2.83,0,0,0-2.41,1.37,2.84,2.84,0,0,0-2.78-2.32 h -.27 a 2.81,2.81,0,0,0-1.9.75,2.83,2.83,0,0,0-2.82-2.77 h -.27 a 2.81,2.81,0,0,0-1.89.74v-.18 a 2.84,2.84,0,0,0-2.83-2.83 h -.27 a 2.8,2.8,0,0,0-1.5.44 s 0-.07,0-.11V226 a 2.84,2.84,0,0,0-2.83-2.83 h -.27 a 2.84,2.84,0,0,0-2.83,2.83v.27 a 2.8,2.8,0,0,0,.21,1.06,2.8,2.8,0,0,0-1.77-.64 H 275 a 2.84,2.84,0,0,0-2.83,2.83v.27 A 2.84,2.84,0,0,0,275,232.64Z m 6.55-2.78 a 2.79,2.79,0,0,0-1.28-.32 H 280 a 2.81,2.81,0,0,0-1.95.79,2.8,2.8,0,0,0,.05-.52v-.27 a 2.8,2.8,0,0,0-.21-1.06,2.8,2.8,0,0,0,1.77.64 h .27 a 2.8,2.8,0,0,0,1.5-.44 s 0,.07,0,.11v.27 A 2.78,2.78,0,0,0,281.51,229.86Z m .59,2.74 a 1.92,1.92,0,0,1-1.91,1.91 H 280 a 1.92,1.92,0,0,1-1.91-1.91v-.19 A 1.92,1.92,0,0,1,280,230.5 h .19 a 1.92,1.92,0,0,1,1.91,1.91Z m .9.63 a 2.81,2.81,0,0,0,.06-.58v-.27 a 2.78,2.78,0,0,0-.13-.8,2.79,2.79,0,0,0,1.28.32 h .27 a 2.81,2.81,0,0,0,1.89-.74v.18 a 2.78,2.78,0,0,0,.16.89,2.79,2.79,0,0,0-1-.18 h -.27 A 2.83,2.83,0,0,0,283,233.23Z m 4.43,1.87 a 1.92,1.92,0,0,1-1.91,1.91 h -.19 a 1.92,1.92,0,0,1-1.91-1.91v-.19 a 1.92,1.92,0,0,1,1.91-1.91 h .19 a 1.92,1.92,0,0,1,1.91,1.91Z m .92.45 a 2.78,2.78,0,0,0,0-.41v-.27 a 2.78,2.78,0,0,0-.16-.89,2.79,2.79,0,0,0,1,.18 h .27 a 2.81,2.81,0,0,0,1.9-.75,2.78,2.78,0,0,0,.14.78,2.79,2.79,0,0,0-.45,0 h -.27 A 2.82,2.82,0,0,0,288.36,235.56Z m 4.58,1.65 a 1.92,1.92,0,0,1-1.91,1.91 h -.19 a 1.92,1.92,0,0,1-1.91-1.91V237 a 1.92,1.92,0,0,1,1.91-1.91 H 291 a 1.92,1.92,0,0,1,1.91,1.91Z m 1-.24 a 2.78,2.78,0,0,0-.14-.83,2.79,2.79,0,0,0,.45,0 h .4 A 2.85,2.85,0,0,0,293.89,237Z m 4.56,1.68 a 1.92,1.92,0,0,1-1.91,1.91 h -.19 a 1.92,1.92,0,0,1-1.91-1.91v-.19 a 1.92,1.92,0,0,1,1.91-1.91 h .19 a 1.92,1.92,0,0,1,1.91,1.91Z m 1-.29 a 2.79,2.79,0,0,0-.35-1.29,2.8,2.8,0,0,0,.61.07 h .27 a 2.77,2.77,0,0,0,.39,0 A 2.84,2.84,0,0,0,299.41,238.35Z m 2.88,3.12 h -.19 a 1.92,1.92,0,0,1-1.91-1.91v-.19 a 1.92,1.92,0,0,1,1.91-1.91 h .19 a 1.92,1.92,0,0,1,1.91,1.91v.19 A 1.92,1.92,0,0,1,302.29,241.47Z m 2.86-1.75 a 2.81,2.81,0,0,0,.63,1.28,2.8,2.8,0,0,0-1.24.35 A 2.8,2.8,0,0,0,305.15,239.72Z m 5.88-.54 a 2.85,2.85,0,0,0,.58.8,2.79,2.79,0,0,0-.78.25 A 2.8,2.8,0,0,0,311,239.19Z m 2.74-5.65v-.25 a 2.8,2.8,0,0,0,1.5.44 h .27 l .23,0 a 2.78,2.78,0,0,0-.13.81v.27 a 2.78,2.78,0,0,0,.15.85,2.81,2.81,0,0,0-1.94-.78 h -.42 A 2.79,2.79,0,0,0,313.76,233.54Z m -4.09,11.11 a 2.8,2.8,0,0,0-.81.28,2.79,2.79,0,0,0,.12-.63 l 0-.27 a 2.82,2.82,0,0,0-.68-2,2.79,2.79,0,0,0,1.07-.27,2.78,2.78,0,0,0-.21.86 l 0,.27 A 2.8,2.8,0,0,0,309.68,244.65Z m .39-5.51 a 1.92,1.92,0,0,1-1.91,1.91 H 308 a 1.92,1.92,0,0,1-1.91-1.91V239 A 1.92,1.92,0,0,1,308,237 h .19 a 1.92,1.92,0,0,1,1.91,1.91Z M 306,246 h -.19 a 1.92,1.92,0,0,1-1.78-2v-.19 a 1.92,1.92,0,0,1,2-1.78 h .19 a 1.92,1.92,0,0,1,1.77,2v.19 A 1.92,1.92,0,0,1,306,246Z m 6.29,1.84 a 1.92,1.92,0,0,1-2,1.77 h -.19 a 1.92,1.92,0,0,1-1.78-2v-.19 a 1.92,1.92,0,0,1,2-1.77 h .19 a 1.9,1.9,0,0,1,.35.06,2.77,2.77,0,0,0,.39.15,1.92,1.92,0,0,1,1,1.83Z m 1.85-4.64 a 1.92,1.92,0,0,1-2,1.77 h -.19 a 1.9,1.9,0,0,1-.35-.06,2.77,2.77,0,0,0-.39-.15,1.92,1.92,0,0,1-1-1.83v-.19 a 1.92,1.92,0,0,1,2-1.78 h .19 a 1.92,1.92,0,0,1,1.78,2Z m 1.57-5.24 a 1.92,1.92,0,0,1-1.91,1.91 h -.19 a 1.92,1.92,0,0,1-1.91-1.91v-.19 a 1.92,1.92,0,0,1,1.91-1.91 h .19 a 1.92,1.92,0,0,1,1.91,1.91Z m 4.9-3.17 a 1.92,1.92,0,0,1-1.91,1.91 h -.19 a 1.92,1.92,0,0,1-1.91-1.91v-.19 a 1.9,1.9,0,0,1,.54-1.32,2.86,2.86,0,0,0,.33-.28,1.89,1.89,0,0,1,1-.31 h .19 a 1.92,1.92,0,0,1,1.91,1.91Z m -2.55-5.39 a 2.79,2.79,0,0,0,1.2.28 h .27 a 2.76,2.76,0,0,0,.33,0,2.78,2.78,0,0,0-.17.93v.27 a 2.79,2.79,0,0,0,.26,1.16,2.79,2.79,0,0,0-1.21-.29 h -.27 l -.23,0 a 2.78,2.78,0,0,0,.13-.81v-.27 A 2.79,2.79,0,0,0,318.05,229.36Z m 4.51-.69 h .19 a 1.92,1.92,0,0,1,1.91,1.91v.19 a 1.92,1.92,0,0,1-1.91,1.91 h -.19 a 1.92,1.92,0,0,1-1.91-1.91v-.19 A 1.92,1.92,0,0,1,322.56,228.67Z m -5.18-2.09 a 1.92,1.92,0,0,1,1.91-1.91 h .19 a 1.92,1.92,0,0,1,1.91,1.91v.19 a 1.92,1.92,0,0,1-1.91,1.91 h -.19 a 1.92,1.92,0,0,1-1.91-1.91Z m -4,4.09 a 1.92,1.92,0,0,1,1.91-1.91 h .19 a 1.92,1.92,0,0,1,1.91,1.91v.19 a 1.9,1.9,0,0,1-.54,1.32,2.85,2.85,0,0,0-.33.27,1.89,1.89,0,0,1-1,.31 h -.19 a 1.92,1.92,0,0,1-1.91-1.91Z m -4.6,2.64 a 1.92,1.92,0,0,1,1.91-1.91 h .19 a 1.92,1.92,0,0,1,1.91,1.91v.19 a 1.92,1.92,0,0,1-1.91,1.91 h -.19 a 1.92,1.92,0,0,1-1.91-1.91Z m 1.87,3.06 h .42 a 2.79,2.79,0,0,0-.35,1.33,2.83,2.83,0,0,0-2.54-1.6 h -.27 a 2.82,2.82,0,0,0,.4-.95 A 2.83,2.83,0,0,0,310.66,236.37Z m -7.23-2.08 a 1.92,1.92,0,0,1,1.91-1.91 h .19 a 1.92,1.92,0,0,1,1.91,1.91v.19 a 1.92,1.92,0,0,1-1.91,1.91 h -.19 a 1.92,1.92,0,0,1-1.91-1.91Z m -.84,1 a 2.83,2.83,0,0,0,2.71,2.06 h .27 a 2.81,2.81,0,0,0-.46,1.44,2.84,2.84,0,0,0-2.78-2.29 h -.27 a 2.77,2.77,0,0,0-.39,0 A 2.84,2.84,0,0,0,302.59,235.29Z m -4.78-1.21 a 1.92,1.92,0,0,1,1.91-1.91 h .19 a 1.92,1.92,0,0,1,1.91,1.91v.19 a 1.92,1.92,0,0,1-1.91,1.91 h -.19 a 1.92,1.92,0,0,1-1.91-1.91Z m -.91.74 a 2.79,2.79,0,0,0,.31.84,2.8,2.8,0,0,0-.61-.07 h -.4 A 2.85,2.85,0,0,0,296.89,234.81Z m -4.55-1.69 a 1.92,1.92,0,0,1,1.91-1.91 h .19 a 1.92,1.92,0,0,1,1.91,1.91v.19 a 1.92,1.92,0,0,1-1.91,1.91 h -.19 a 1.92,1.92,0,0,1-1.91-1.91Z m -5-2 a 1.92,1.92,0,0,1,1.91-1.91 h .19 a 1.92,1.92,0,0,1,1.91,1.91v.19 a 1.92,1.92,0,0,1-1.91,1.91 h -.19 a 1.92,1.92,0,0,1-1.91-1.91Z m -3.09-4.18 h .19 a 1.92,1.92,0,0,1,1.91,1.91V229 a 1.92,1.92,0,0,1-1.91,1.91 h -.19 a 1.92,1.92,0,0,1-1.91-1.91v-.19 A 1.92,1.92,0,0,1,284.25,226.92Z m -6.5-.86 a 1.92,1.92,0,0,1,1.91-1.91 h .19 a 1.92,1.92,0,0,1,1.91,1.91v.19 a 1.92,1.92,0,0,1-1.91,1.91 h -.19 a 1.92,1.92,0,0,1-1.91-1.91Z m -4.66,3.52 a 1.92,1.92,0,0,1,1.91-1.91 h .19 a 1.92,1.92,0,0,1,1.91,1.91v.19 a 1.92,1.92,0,0,1-1.91,1.91 H 275 a 1.92,1.92,0,0,1-1.91-1.91Z"/>
  </g>
<script type="text/ecmascript" xlink:href="param.min.js"/> 
</svg>
