<?xml version="1.0"?>
<svg xmlns="http://www.w3.org/2000/svg" xmlns:xlink="http://www.w3.org/1999/xlink" viewBox="0 0 600 600">
  <title>basic-v-neck-t-shirt-voluptuous</title>
  <g id="main-colour">
    <path d="M 231.94,340 c -.32,1-.62,2.1-.9,3.2,5.07-.81,13.11-1.62,19.57,0,10.25,2.5,27,9.5,41.25,12 s 34.75,2.75,49.25-3.5 a 88.94,88.94,0,0,0,17.14-9.88 c -1.33-9.58-4-19.94-9.17-28.38-3.74-6.12-7.64-11-8.26-15.9 s 3.88-17.5,6-27-.49-15.61-.49-15.61 l -.22-.53 a 16.57,16.57,0,0,0-9.16-26.89 h 0 c -2.21-1.39-6.62-.85-11.53.48-.58,11.88-7,21-16.15,25.38-13.17.33-28.08-13.08-31.08-18.08 a 23.54,23.54,0,0,1-2.6-6.22 l -.15.23 s -7.75-2.87-14.5-3.12-13.13,4.13-15.88,9.63-2.75,12.13,1.5,18.75 c -2.5,13.63.38,23.13,3.75,34 s .5,15.5-3.37,21.38 S 235.69,328,231.94,340Z" fill="param(main_colour)"/>
  </g>
  <g id="outline">
    <path d="M 232,344 s 11.17-4.17,34.83,5,63.33,17,91.67-6.5 c 0-.83-.17-2.42-.17-2.42 s -14.83,13.08-34.67,15.08 S 289.52,355,272.52,349 s -29.67-10.33-40.5-6.83 A 5.64,5.64,0,0,0,232,344Z"/>
    <path d="M 238.86,338.5 s 5.25-2.37,28.13,5.88,36.13,9.25,48.38,9,26.13-4.87,33.88-10.25 c -6.87,3.13-20.5,9.25-34,9.13 s -22.62-.75-37.87-5.62 S 244.11,335.13,238.86,338.5Z"/>
    <path d="M 357.85,343.11v0 l 1.67-1.37 c -3.66-25.13-14-35.92-15.88-39.3-2.8-5-1.88-8.61,1-19.11,1-3.65,2-7.1,2.78-10.43,0-.19.09-.36.13-.54 l .05-.22 h 0 c .16-.78.28-1.55.37-2.3,0,.3-.05.6-.1.9,1-5.44.94-11.27-1.74-16.38 a 22.57,22.57,0,0,1,.88,7.26,91.81,91.81,0,0,1-3.74,19.35 c -.71,2.4-1.41,4.49-2,6-2.5,6.83-3,12.17,2.83,20.67 C 352.19,317.61,356.06,331.08,357.85,343.11Z"/>
    <path d="M 276.5,228.66 l -1.14-.43 a 50.35,50.35,0,0,0-11.7-2.92,18.49,18.49,0,0,0-2.19-.21 l -.69,0 a 18.6,18.6,0,0,0-18.58,18.58,18.41,18.41,0,0,0,3.34,10.57 c -.66,3.67-2.25,14.95.91,25.1,3.83,12.33,8.19,18.93,0,29.83 a 84.46,84.46,0,0,0-15.86,35.09 c 1-.21,1.91-.39,2.57-.5 h 0 a 82.54,82.54,0,0,1,4.16-14 c 4.5-10.17,8.79-16.58,13-23.08 a 17,17,0,0,0,2.16-5 A 175.88,175.88,0,0,1,254,322.88 a 74.72,74.72,0,0,0-1.88-33.38 c -.27-1-.58-2-.92-2.94 a 60.83,60.83,0,0,1-3.7-31.06 l 0,0,.2-1.67v0 a 16.56,16.56,0,0,1,13.1-26.72 h 0 l 1.17,0,.25,0,1,.07 h .11 a 50.93,50.93,0,0,1,11.29,2.66Z"/>
    <path d="M 326.12,228.75 l .24-.1 a 20.2,20.2,0,0,1,10.59-1.21 c -4.24-2.46-9.47-1.24-12.66.32Z"/>
    <path d="M 274.61,229.85 s -.09-1.42,1.89-1.19 c 2.11,7.6,11.54,20.47,32.48,24,13.88-7.25,15.11-20.48,15.3-24.87 a 3.15,3.15,0,0,1,1.83,1 s -.76,18-16.89,25.38 C 295.11,252.75,280.11,244.69,274.61,229.85Z"/>
    <path d="M 276.61,236.63 s 7.75,16.13,33,18.88 c 8.5-3.5,15.06-10.37,17.44-23.87-.31,6.94-4.5,20.06-17.37,24.56 C 294.73,255.38,280,245.75,276.61,236.63Z"/>
  </g>
<script type="text/ecmascript" xlink:href="param.min.js"/> 
</svg>
