<?xml version="1.0"?>
<svg xmlns="http://www.w3.org/2000/svg" xmlns:xlink="http://www.w3.org/1999/xlink" viewBox="0 0 600 600">
  <title>slender-top-template</title>
  <g id="main-colour">
    <path d="M 271.39,261.5 s 12.38-3.87,15.38-14.25-2.5-19.5-2.5-19.5 a 7.65,7.65,0,0,0,4.63-3.12 c 5.38,8.25,31.38,39.88,31.38,39.88 s -1.25-22.37-4.87-36.25 c 2.13-2.25,5.63-1.62,5.63-1.62 s 3.88,10.38,8.63,15.88 S 344,257,344.51,264.88 s -6.37,17.88-14.25,19 c -1.87,8.63-6,24.38-7,38.5 s 6.63,25.38,9.63,32.38,10.25,21.38,14.25,45.5,7,50,8.25,65.63,1.5,35,4.5,46.25,8,20.38,10.38,23.25 c -3.62,6-14.12,12.38-14.12,12.38 l 3.38,6 s -25,22.38-55.62,11.38 a 18.3,18.3,0,0,0,.38-2.5 s -5.87.25-9.87-1.5-14.62-4-20.12-1.37 A 28.52,28.52,0,0,0,275,555 s -6-.25-9.5-2 a 19.21,19.21,0,0,0-8.5-1.87,6.56,6.56,0,0,0,1-3.37 s -4.87-1.75-6.5-2.5-5.25-2.37-6.87-2.37 c 4.5-7.5,7.38-18.5,9.63-32.62 s 3.12-43.12.5-67.62-4.25-44.12.13-63.25,12.62-32,16.62-39.87,15.13-25.5,8.88-43.75 S 271.64,266.88,271.39,261.5Z" fill="param(main_colour)"/>
  </g>
  <g id="accent-colour-1">
    <path d="M 286.65,322.18 l -2.94-.6 a 59.78,59.78,0,0,0-.81-30.14 c -3.82-14.13-5.53-33.24-5.55-33.43 l 3-.26 c 0,.19,1.7,19,5.45,32.91 A 62.53,62.53,0,0,1,286.65,322.18Z" fill="param(accent_colour_1)"/>
    <path d="M 301,326.14 l -3-.53.34-1.86 c 1.65-9,3.7-20.19.15-47.68-3.76-29.07-12.62-48.54-12.71-48.73 l 2.72-1.26 c .09.2,9.14,20.05,13,49.6,3.61,28,1.51,39.41-.17,48.61Z" fill="param(accent_colour_1)"/>
    <path d="M 314.88,326.49 l -3-.23,0-.55 c .39-5,.92-12,2.77-17.91,9.63-30.82,4-44,3.93-44.09 l 2.42-1 c .27.55,6.57,13.83-3.49,46-1.75,5.61-2.27,12.33-2.64,17.24Z" fill="param(accent_colour_1)"/>
    <path d="M 322.35,323.38 h -3 c 0-7.84,5.18-36.4,10.89-45.66,5.55-9,5.15-16.85-1.3-25.44-8.34-11.12-11.58-24.33-11.71-24.88 l 2.92-.7 c 0,.13,3.24,13.17,11.2,23.78,7.19,9.59,7.66,18.75,1.45,28.81 C 327.42,288,322.35,316,322.35,323.38Z" fill="param(accent_colour_1)"/>
    <path d="M 331.68,566.55 h -3 c 0-7-4.39-87.44-8.64-111.24-4.45-24.94-9.54-60.62-10.19-80-.66-19.86,1.48-46.41,1.5-46.67 l 3,.24 c 0,.26-2.15,26.65-1.5,46.33.64,19.27,5.71,54.78,10.14,79.62 C 327.26,478.7,331.68,559.54,331.68,566.55Z" fill="param(accent_colour_1)"/>
    <path d="M 362.12,543.61 c -10.1-10.1-12.42-34.87-15.1-63.55-.91-9.77-1.86-19.86-3.16-30.15-5.84-46.19-14.27-76.35-18.77-90.23-6.17-19-6.36-33.35-6.37-34 l 3,0 c 0,.14.21,14.52,6.22,33.05,4.54,14,13,44.34,18.89,90.77,1.31,10.34,2.25,20.46,3.17,30.25,2.63,28.1,4.9,52.38,14.23,61.71Z" fill="param(accent_colour_1)"/>
    <path d="M 287.33,558.45 l -3-.47 c 6.91-43.16,3.43-67.94-.25-94.18-.9-6.4-1.83-13-2.59-19.91-4-36,1.11-68.79,7.23-87.47,6.23-19,8.27-28.1,8.29-28.19 l 2.93.65 c 0,.09-2.09,9.29-8.37,28.47-5.75,17.54-11.05,50.64-7.1,86.2.76,6.85,1.69,13.45,2.58,19.83 C 290.8,489.84,294.3,514.85,287.33,558.45Z" fill="param(accent_colour_1)"/>
    <path d="M 251.19,545.19 l -2.27-2 c 2.51-2.91,5.42-11.22,8-22.82,2.21-10,3.87-21.29,4.12-28.09.55-14.73.6-47.36-1.5-76.84-2.11-29.67,6.78-52.12,13.64-66.42 a 213.88,213.88,0,0,0,9.92-25.13 l 2.86.89 a 217,217,0,0,1-10.08,25.54 c -6.72,14-15.41,36-13.36,64.91,2.1,29.6,2.05,62.36,1.5,77.16 C 263.52,505.64,257.64,537.72,251.19,545.19Z" fill="param(accent_colour_1)"/>
  </g>
  <g id="outline">
    <path d="M 371.55,535 c -7.5-9.67-12.67-26-13.67-46 s -3.67-50.33-6.83-71.17-7.67-44.83-15.17-59.5-13.33-26.67-11.33-39.17,6.67-34.5,6.67-34.5,9.33-2.67,12.5-10.83,1.33-16-5.67-23.17-14.17-17-16.17-24.83 c -5.5-1.17-8,1.83-8,1.83 s 4.33,13.5,5.83,35.17 c -7.17-8.5-29-36.21-30.87-39.54-2,2.75-5.92,4.17-5.92,4.17 s 6,10.38,3.08,18.88-11.75,13.5-15.87,14.13 c .13,8.13,4.13,22.5,8.38,33 s 2.25,23.63-1.12,31.38-15.5,28.25-20.75,44.13-6.75,30.88-4.87,52.38,4.46,46.5,3.79,65.17-5.17,47.83-12.5,56.83 c 5.17.76,9.65,3.6,13.95,4.85q-.45,1.93-.95,3.82 c 5.83-1.07,10.68,3.78,17.4,3.9q-.51,2.79-1.07,5.68 c 11-3,16-1.25,21.5.5 a 33.15,33.15,0,0,0,8.4,1.48,16,16,0,0,1-.65,2.27 c 17.25,6,37.75,6.75,59.75-12q-1.85-2.89-3.46-5.85 C 361.34,546.44,368.14,542.48,371.55,535Z m -91.5-243.83 c -2.5-6.5-7.33-21-7.33-29.17,9-2.33,16.33-12,16.33-19.17 s -3.37-14.29-3.37-14.29,2.54-1.21,3.21-2.21 c 4.5,6.67,21.67,28.33,32.5,40.67 a 217.66,217.66,0,0,0-5.33-38.5,13.11,13.11,0,0,1,4.33-1.33 c 2,8,8.33,16.33,13.67,22 s 12,12.67,7.17,23.83 c -3.33,6.83-8.33,9.83-11.83,10.33-2.17,8.83-6.17,21.83-7.33,36.17-.07.86-.11,1.7-.14,2.54-15,8.74-36-.34-40.67-2.59 C 285,306.29,282.32,297.1,280.05,291.21Z m 76.77,254.69 c -7.06-13.78-10.43-28.51-11.68-43.78-1.5-18.25-5-41.75-8-50.5,2.5,15.75,5.25,39.25,5.5,53 s 11.25,44.5,14.25,49 c -7,7.5-29.25,18-51.5,10.5,2.75-33-1-57-2.75-71.25 s -4.75-37.75-5.25-44.75 c 0,0,.25,26.5,3.25,49,2.62,19.66,4.1,50.56,2.09,64.07 a 24.42,24.42,0,0,1-7.59-1.32 c -5.25-1.75-14.5-3.5-18.75-2.25,3.75-14.5,7.5-55.5,3.5-81.75 s -7.5-46-7.5-61.25,1.75-34,1.75-34 a 206.87,206.87,0,0,0-2,62.25 c 4.07,31.6,11.57,55.21,1.65,111.17 a 13.58,13.58,0,0,1-4.57-.83 c -3.67-1.33-8.33-3.17-10-3.17,5-15.83,6.83-51.33,4.67-67,0,0,0,34.25-6.41,63.09 a 25.55,25.55,0,0,1-5.09-1.76,36.3,36.3,0,0,0-5.67-2.17 s 7.17-11.33,10-44.33-1-54.83-2.33-69.83-2.83-37.5,4.67-59.67,15.17-29.17,20.83-44.67 c .08-.23.15-.44.23-.67,23.77,11.81,38.2,5.19,41.85,3.05 a 56.78,56.78,0,0,0,7.93,25.61 c 3.83,6.67,10.83,22.67,13.5,37 s 8.33,48.67,10.5,71.67-1,51.5,14.5,75.67 C 365.24,541.24,359.66,544.5,356.82,545.91Z"/>
    <path d="M 314.89,280.21 a 24,24,0,0,1-22.67,5.33 C 303.55,290.54,312.05,285.88,314.89,280.21Z"/>
  </g>
<script type="text/ecmascript" xlink:href="param.min.js"/> 
</svg>
