<?xml version="1.0"?>
<svg xmlns="http://www.w3.org/2000/svg" xmlns:xlink="http://www.w3.org/1999/xlink" viewBox="0 0 600 600">
  <title>basic-tank-top-hourglass</title>
  <g id="main-colour">
    <path d="M 334.25,252.51 a 8.29,8.29,0,0,1-1.39-2.88 c -1.19-4.44-7.56-15.12-8.69-17.81-.67-1.6-1.48-3.94-2-5.56 a 6.9,6.9,0,0,0-3.08,1.26,43.19,43.19,0,0,1,.91,6.74 c .13,4.88.88,15.94-11.37,18.19-11,2-20.31-7.5-28.25-25.31,0-.07-.07-.11-.1-.17 a 34.41,34.41,0,0,1-3.53,1.36 c 1.06,2.44,3.94,11.25-.94,22 a 21.73,21.73,0,0,1-12.24,11.77 c .7,7.06,2.13,14.79,4.33,19.35,0,0,4.06,10.79,8,20.87 a 86.34,86.34,0,0,1,4.92,20.08 c -2.83,6.5-10,13.13-14.31,17.21 a 46.08,46.08,0,0,0-8.75,10.55,41.53,41.53,0,0,1,10.72-1.43 c 8.08,0,19.25,3.33,27.33,4.67 s 21,2.75,27.17-1.17 a 28.17,28.17,0,0,0,7.93-6.93 c -1.86-3-4-5.79-6-8.6-4.17-5.92-5.25-9-4.83-14.25 s 4.92-13.67,8.5-19.67 A 57.44,57.44,0,0,0,333.62,290 l -.39.11,1-6.84 s 2.4-12.2,1.65-21.26 A 53.11,53.11,0,0,0,334.25,252.51Z" fill="param(main_colour)"/>
  </g>
  <g id="outline">
    <path d="M 322.17,225.48 a 9.74,9.74,0,0,0-3.45,1.06 l -.9.39 c .21.74.49,1.61.61,2.08,1.34-.57,2.59-1.44,4.2-2Z"/>
    <path d="M 319.11,323 s -1.08,8.58,4.75,18.38 c -3-7-3.75-15.87-3.5-18.37 C 320.23,321.63,319.11,323,319.11,323Z"/>
    <path d="M 264.86,275.5 c 7,13.63,11.78,24.69,15,35.5,3.17,10.64,3.11,21-5.25,29.13,8.26-12.21,5.13-24.39.48-37.35 C 272.23,294.83,267.53,283.52,264.86,275.5Z"/>
    <path d="M 257.36,351 s 7.25-3.5,24.13.25,30.89,6.29,39.75,2.75 c 8-3.21,10-8.25,10-8.25 l -.87-1 a 20.23,20.23,0,0,1-10,7.88 c -6.87,2.5-14.33,1.67-23.37.25-10.32-1.62-27.37-7.92-38.62-3.37 C 258,350,257.36,351,257.36,351Z"/>
    <path d="M 263,346.88 s 4.83-1.67,15.67.58,25.83,5.83,33.42,5.33 a 27.6,27.6,0,0,0,13.17-4.58 S 318,352,311.63,352.27 c -5.83.21-13.19-1.23-22.77-3.31 S 267.19,344.21,263,346.88Z"/>
    <path d="M 272.37,291.08 a 125.18,125.18,0,0,1-5.32-14.91 h 0 a 75.07,75.07,0,0,1-2.45-14.23,9.46,9.46,0,0,1-2.1.53 c .28,2.63.73,5.79,1.46,9.45 A 49.5,49.5,0,0,0,272.37,291.08Z"/>
    <path d="M 335.82,281.71 c 1.78-11.28,1-26.3-2.59-33.81 a 47.63,47.63,0,0,0-7.43-11.47 s 4.65,5.6,7.05,16.6 c 3.25,14.88,1.11,25.65.38,30.62 s -2.61,13.5-6.3,19.62 c -4.42,7.33-6.8,13.75-7.72,18.75-.83,4.54.95,9.2,3,12.28 l .69,1 c .71.91,1.49,2,2.31,3.12 l .7,1 c 1.58,2.23,3.27,4.74,4.86,7.25 h 0 s .32-.55.72-1.32q-.82-1.35-1.81-2.84 c -6.17-9.17-9.83-13-8.92-20.08.77-5.92,5.19-13.63,8.09-18.78 h 0 C 332.86,297.27,334,293,335.82,281.71Z"/>
    <path d="M 278.88,324.34 c -4.42,7.94-17,15.48-23.07,27.19,1.41-.57,2.58-.91,2.58-.91 h 0 a 42.24,42.24,0,0,1,4.9-6.38 c 2.18-2.33,7.39-7.09,11.86-12 l .74-.84 c .82-.93,1.6-1.86,2.33-2.78 l .76-1 a 33,33,0,0,0,1.89-2.78 c 0-1.2-.06-2.77-.2-4.51 A 26.68,26.68,0,0,1,278.88,324.34Z"/>
    <path d="M 275.33,227.63 a 24.92,24.92,0,0,1,1.53,17.25 c -2.58,9-8.33,15.42-14.42,16.83 a 4.46,4.46,0,0,0,.17,1.83 s 11.58-2.67,16-18.42 c 2-7.13,0-15.5-1.62-17.87 C 276.23,227.38,275.33,227.63,275.33,227.63Z"/>
    <path d="M 280.69,225.88 s 6.25,16.17,15.25,22.58,29.33,4.69,21.88-21.53 c .9-.39,1.54-.72,1.54-.72 s 5,13.42-1.42,22.08-18.82,4.9-23.5,1.17 c -5.58-4.46-10.83-12.33-15.33-22.92 C 279.77,226.3,280.69,225.88,280.69,225.88Z"/>
    <path d="M 329.27,242.71 c -.48-1-1.72-3.16-3.73-6.65 a 53,53,0,0,1-4.25-10.44 l 1.38-.25 a 56,56,0,0,0,2.38,6.56 c 1.25,2.69,6.81,12.5,8,15.38 a 10.48,10.48,0,0,1,1,4.63 L 332.11,250 S 330.44,245.09,329.27,242.71Z"/>
    <path d="M 275.33,227.63 a 31.66,31.66,0,0,0,5.36-1.75 l .48,1.71 a 19.67,19.67,0,0,1-4.88,1.56 A 4.77,4.77,0,0,0,275.33,227.63Z"/>
  </g>
<script type="text/ecmascript" xlink:href="param.min.js"/> 
</svg>
