<?xml version="1.0"?>
<svg xmlns="http://www.w3.org/2000/svg" xmlns:xlink="http://www.w3.org/1999/xlink" viewBox="0 0 600 600">
  <title>hourglass-top-template</title>
  <g id="main-colour">
    <path d="M 348.54,252.13 c -2.37-3.12-12.12-8.12-17.5-12 a 84.34,84.34,0,0,1-8.72-7.57 c -2.3-3.09-4-5.43-4-5.43 l -3.5-1.25 s .38,6-.87,9.75-6.12,7.13-15.87,3.63-14.5-13.5-14.5-13.5 a 21,21,0,0,1-5.12,2.13 c 1.63,4.25,2.25,12.13-2.25,20.13 a 14.87,14.87,0,0,1-13.12,7.5,74.4,74.4,0,0,0,3.5,22.38 c 3.75,11.25,9.88,16.75,13.63,22.25 s 3.88,11,1.38,20.13 S 271.86,333.5,264,342 s -10.12,13.88-12.75,26.63-2.92,39.08-2.92,39.08 c 8.88-3,29.54-1.33,37.54.67 s 17,4.25,27.88,3.88,22.42-3.62,29.92-10.62 c .75-10.12-2.25-26.75-4.75-39.37 S 327.74,338,323.11,332.88 c -3.84-4.25-3.62-9.87-2.25-14.5 s 5.13-11.5,7-14.75 a 53.47,53.47,0,0,0,5-11.84 c 10.63-.87,17.68-8.31,20.33-17.91 C 356,263.5,350.92,255.25,348.54,252.13Z" fill="param(main_colour)"/>
  </g>
  <g id="outline">
    <path d="M 334,292.44 a 23,23,0,0,0,13.8-6.73 c 6.75-6.84,8.67-15.75,6.67-25 s -9.83-13.25-13.5-15.17 a 83.45,83.45,0,0,1-13.33-8.67,46.08,46.08,0,0,1-9.05-10.37 c -2.12-.5-5.37-3.12-5.37-3.12 s 5.38,16-7.25,16.25-19-8.75-22.25-15.62 c -2,2-6.37,3-6.37,3 s 3.92,6.67-.25,17.67 S 262,254.29,262,254.29 c .17,28.75,12,38.92,16.83,45.58 s 3.83,14.33,1.33,21.67-11.58,13.08-20.58,24.08-12.25,35.08-12.25,63.08 c 7.67-3.67,33.5-.33,46.17,2.67 s 39.08,3,51.08-9.33 c -.33-51-16.21-63-21.5-70.29-4.3-6-2-12.5.63-18.75 C 326.09,307.41,331.16,300.64,334,292.44Z m -14.67,35.19 c 1,4.63,7.88,10.38,11.67,17,3.4,5.94,7.75,17,10.08,33.25 s 1.83,23.33,1.83,23.33-7.17,7.42-21.08,9.42-27.75-.33-37.5-2.75-29-3.83-35.5-1 c .42-7.25.42-23.25,2.83-37.25 s 7.17-20.75,13.33-27.42,12.25-11.25,15.17-16.5,5.33-12.83,3.67-19.5-5.17-9.83-7.75-13.25 S 263.95,278.63,264,256.21 c 0,0,11.08-.33,14.58-10.75 s 1.08-17,1.08-17 a 26.51,26.51,0,0,0,3.83-1.92 c 1.83,4.25,6.33,11.08,14.92,13.58 s 13.92.83,16.08-3.58 a 15,15,0,0,0,.83-9.42,19.56,19.56,0,0,0,3,.92 c 3.86,7.08,15.89,15.5,19.14,17.25 s 8.58,5.25,11.58,9.67 a 24,24,0,0,1,3.25,17,25.13,25.13,0,0,1-11,16.08 c -5.83,3.58-14,3.67-14,3.67 a 13.14,13.14,0,0,0,4.31.82,52.39,52.39,0,0,1-5.45,12.68 C 321.7,312.63,318.15,322,319.36,327.63Z"/>
    <path d="M 278,285.91 s 4.5,14.73,23.94,11.37 C 295.36,297.74,282.62,293.86,278,285.91Z"/>
  </g>
<script type="text/ecmascript" xlink:href="param.min.js"/> 
</svg>
