<?xml version="1.0"?>
<svg xmlns="http://www.w3.org/2000/svg" xmlns:xlink="http://www.w3.org/1999/xlink" viewBox="0 0 600 600">
  <title>one-piece-swimsuit-slender</title>
  <g id="skin-tone">
    <g id="skin-tone-2" data-name="skin-tone">
      <path d="M 325.21,338.19 a 41.05,41.05,0,0,1-2.27-13.93 c -.17-8.42,1.82-20.63,3.91-27.88,1-3.41,2.49-7.72,3.9-12.55 A 8.79,8.79,0,0,0,334.8,282 a 20.45,20.45,0,0,0,8.92-15.42 c .4-6.72-1.33-10.25-8.75-18.17-1-1-2-1.93-2.83-2.87 h -.08 l -1.18-1.34 a 10.81,10.81,0,0,0-5.37-16.11v-.27 a 11.12,11.12,0,0,0-9.24.73,3.12,3.12,0,0,0-1.56-.2,12,12,0,0,1-8.28-8.84,73.66,73.66,0,0,1-1.49-11.94 c -1.86.14-3.74.22-5.64.22q-2.61,0-5.17-.18 c -.13,2.22-.56,8.42-1.37,10.5-1,2.56-3.33,9-10.86,10.75-7.45-6.36-19.55-1.14-20,8 s 6,12.33,9.33,13.42 c -1.25,5.92,1.33,21,3.17,27.5 s 6.92,19.67,9.08,28.08 c 1.9,7.38-1.45,17-7.13,27.62 l .47.31 c -.76,1.3-4,6.77-6,9.84 A 57.86,57.86,0,0,0,262.14,370 a 24.81,24.81,0,0,0,2.68,13,24,24,0,0,0,39.09,6.26,24,24,0,0,0,29.29-23.41 h 0 c .56-3.27-.43-10.1-2.18-13.23 a 140.8,140.8,0,0,1-6.12-14Z" fill="param(skin_tone)"/>
    </g>
  </g>
  <g id="main-colour">
    <path d="M 271.14,258.38 s 10.63-1.87,13.75-9.75 a 25.94,25.94,0,0,0-1.12-20.37 c 2.13-1.12,3.63-2,3.63-2 s 1.63,4.38,3.88,9.5,5.63,10.88,13.13,14.38,13.88,2.13,15.5-3-.75-14.37-4.75-19.37 a 6.94,6.94,0,0,1,3.5-1 s 3.88,5.63,6.63,10.13,4.5,6.75,11.25,13.25,8.38,13,7.38,19.5 A 17.28,17.28,0,0,1,331,283.5 c -2,8.25-7,21.88-7.87,36.25 s 1,16.63,5.13,25.63 c -3.12.88-7.5,8.13-8.5,13.38 s -1.62,11.75-2.37,15.5-3.75,7.38-7.75,7.38 a 25.49,25.49,0,0,0-.62-19.87 c -2.75-5.87-13.87-18.87-39.87-15.37,7.75-13,14.75-26.5,14.88-32.5 s -2.62-16.12-5-22 S 271.51,271.38,271.14,258.38Z" fill="param(main_colour)"/>
  </g>
  <g id="outline">
    <path d="M 292.14,285.38 c 6.87,2.13,15.94,1.39,21.83-3.67 C 309.22,289.38,297.38,289.89,292.14,285.38Z"/>
    <path d="M 282.65,227.55 s 5.79,12,1.29,21.25 c -3.54,7.27-13.35,8.9-13.85,8.65,0,.75.1,1.85.1,1.85 a 20,20,0,0,0,12.17-5.58 c 6.42-5.92,5.83-19.58,1.83-26.67 A 8.17,8.17,0,0,1,282.65,227.55Z"/>
    <path d="M 286.61,225.63 s 2.59,7.3,4.38,11.38 c 3.78,8.63,11.78,15.78,22,15.5,9.13-.25,11.75-11.25,2.66-25.81-.87.46-1.4.77-1.4.77 a 26.28,26.28,0,0,1,5,11.29 c 1.25,7.75-.32,10.35-3.87,12.13-4.17,2.08-14.62-1.37-19.75-8.37-4.19-5.73-4.86-12-7.7-18 C 287.27,225.13,286.61,225.63,286.61,225.63Z"/>
    <path d="M 318.94,225.73 s 2.9,4.39,7,11.15 a 41.3,41.3,0,0,0,6.56,8.58 l 1,2.51 a 52.18,52.18,0,0,1-8-9.41 c -3.69-5.69-4.06-7.27-8.38-12.46 A 8.33,8.33,0,0,1,318.94,225.73Z"/>
    <path d="M 314.27,227.46 a 9.57,9.57,0,0,1,4.67-1.73,13.7,13.7,0,0,1,1,1.6,18.53,18.53,0,0,0-2.58.79 c -1,.44-1.64.88-1.89.94 A 6.08,6.08,0,0,0,314.27,227.46Z"/>
    <path d="M 284.19,227 a 16.5,16.5,0,0,0,2.42-1.42 c .94.44.81,1.88.81,1.88 a 14.55,14.55,0,0,1-2.56,1.44 C 283.92,229.25,284.19,227,284.19,227Z"/>
    <path d="M 336.14,249.13 a 102.91,102.91,0,0,1-8.24-8.88 c 2.82,6.33,12.49,13.63,14.24,19,2,6.23,1.19,12-2,16.83 a 17,17,0,0,1-10.48,7.55 l 0,.58 a 17.64,17.64,0,0,0,15.13-14 C 347,259.53,341,253.7,336.14,249.13Z"/>
    <path d="M 270.09,257.44 a 105.06,105.06,0,0,0,1.79,14.63,188.79,188.79,0,0,0,5.69,18.75 c 1.88,5.44,5.25,13.94,5.31,21.69 s -7.12,19.88-8.94,23.25-5.69,9.75-6.94,12.5 c 8.75-3.87,28.44-.81,36,6.81 s 9.63,17.44,5.63,27.56 c 3.69-.5,6.56-2,8.44-5.37 s 2.5-19.81,6.06-25.19,5.06-5.81,5.94-6.12 a 43.83,43.83,0,0,1-4.56-13.56,82,82,0,0,1,1.94-26.31 c 2.69-11.69,5.75-22.87,5.75-22.87 l -2.56.88 s -1.44,4.63-2.62,8.88-4.37,16.25-5.12,24.13.06,15.75,1.56,20.13 a 88,88,0,0,0,3.31,8.19 s -5.78,3.94-7.47,13-2.4,17.38-4.09,19.63 a 8.24,8.24,0,0,1-4.5,2.81 s 2.63-5,1-13.75-8.87-15-14-17.69-16.56-6.44-26.62-4.06 c 3.81-6.62,7-11.87,9.69-17.69 s 5.5-13.31,4-20.81-5.81-18.81-7.37-23.37-5.44-17.44-5-25.19 A 10.58,10.58,0,0,1,270.09,257.44Z"/>
    <path d="M 265.92,249 a 13.19,13.19,0,0,0,4,2 c 0,2.48.08,5,.23,7.43 l 2.14-.63 c -.08-2.74,0-5,0-6.23v-2.05 a 11.19,11.19,0,1,1,6.1-21.31 L 280,229 H 280 l 1,.55,3.34,1.84.41.2,0-1.65 c -.32-.18-.64-.34-.94-.54,2.8-1,10.8-5.42,11.18-21.67 l -1.59-.11 c 0,1.76-.57,18-11.81,20.13 A 13.19,13.19,0,0,0,265.92,249Z"/>
    <path d="M 309.07,381 a 24,24,0,0,1-46.56-8.22v-2.33 a 51.19,51.19,0,0,1,3-13 A 71.59,71.59,0,0,1,269,349.3 c .46-.91,1.1-2,1.83-3.32 l -2.82.36 c -.76,1.41-1.46,2.77-2.07,4.07 a 59.89,59.89,0,0,0-5.31,20.07v.39 c -.08,1.22-.08,1.91-.08,1.91 a 26,26,0,0,0,50.08,9.79 c 2.14-.82,5.25-2.75,6.42-5.2 a 13,13,0,0,1-6.62,3.38 C 310.08,380.82,309.63,380.9,309.07,381Z"/>
    <path d="M 296.87,232.91 a 28.46,28.46,0,0,1-7-.9 l .47,1.13 A 21.12,21.12,0,0,0,296.87,232.91Z"/>
    <path d="M 329,345.62 l -.3-.61 c -.54.35-1.1.72-1.58,1,2.86,6,5.81,11.67,6.11,19.81 C 333.73,363.87,334.85,357.62,329,345.62Z"/>
    <path d="M 316.63,226.23 a 9.91,9.91,0,0,0-2.38,1.26 c -7.61-3.24-7.75-12.23-8.24-19.94 l -1.48.12 a 41.37,41.37,0,0,0,1.15,11.62,12.61,12.61,0,0,0,7,9.21,30.41,30.41,0,0,1-6.13,3.13,26.5,26.5,0,0,0,10.12-3.19 l .54-.24 a 11.26,11.26,0,0,1,8.35-.33 A 9.08,9.08,0,0,0,316.63,226.23Z"/>
    <path d="M 313.52,251.86 a 7.92,7.92,0,0,0,.83-.13,23.46,23.46,0,0,0-5.6-4.1 A 21.05,21.05,0,0,1,313.52,251.86Z"/>
  </g>
<script type="text/ecmascript" xlink:href="param.min.js"/> 
</svg>
