<?xml version="1.0"?>
<svg xmlns="http://www.w3.org/2000/svg" xmlns:xlink="http://www.w3.org/1999/xlink" viewBox="0 0 600 600">
  <title>midi-crew-neck-t-shirt-curvy</title>
  <g id="main-colour">
    <path d="M 348.07,248.88 c -1.81-1.18-4.37-2.7-6.32-3.85 a 12.58,12.58,0,0,0,1.08-5.1,12.71,12.71,0,0,0-9-12.16 h 0 c -4-2.33-11.4.46-11.4.46 s -.08.22-.47.27 c 4,6.71,4.76,17.61-7.36,19.63-14.25,2.38-27.87-5.54-32.75-10.67 a 34.61,34.61,0,0,1-6-8.11 l -.23.12 a 54.44,54.44,0,0,0-11-3.12,13.69,13.69,0,0,0-13.87,6.13 c -4.62,8.75-.12,15.63,3.88,18.5-2.75,22.25,4.62,35.5,7.25,40.25 s 4.63,8.5,5.5,15.13 c 1.38,11.88-6.87,19.38-14.12,29.88 a 62.23,62.23,0,0,0-9.59,21.39 c 2.73-2.28,6.5-5,10.09-6.07,6.67-2,13.67-.67,24.33,3.17 s 30.5,11.17,44.5,8.5 a 44.62,44.62,0,0,0,24.61-13.89,52,52,0,0,0-3.9-9.35 c -2.67-4.92-5.58-8.25-8.08-16 s -1.58-17.67-.5-22.83 a 66.6,66.6,0,0,1,2.76-9.25,24.59,24.59,0,0,0,20-22.35 C 358.07,257.71,351.4,251,348.07,248.88Z" fill="param(main_colour)"/>
  </g>
  <g id="outline">
    <path d="M 345.92,246.52 a 164.81,164.81,0,0,1-16.71-9.92 c 1.59,2.21,8.54,7.25,13,9.67,5.21,2.8,11.13,8.07,12.83,14.58,2,7.67,1.29,14.67-4.46,22.17 a 22.92,22.92,0,0,1-13.75,8.17 h 0 l -.6,1.76 h 0 a 58.9,58.9,0,0,0-3.47,16 c -.62,13.75,2.14,18.35,5.94,24 a 50.6,50.6,0,0,1,7.32,16.28 c -21.21,20.91-43.71,13-65.48,5.36-2.06-.72-4.12-1.45-6.17-2.15-16.19-5.51-24.51-1.33-28.37,2.29 a 49.74,49.74,0,0,1,2.88-8.81 c 1.86-4.51,9-14.87,13.22-20.44,3.67-4.86,6.65-10.08,6.32-17.3,1.58,6,2.29,11.43,3.39,19.45.18-11.14-1.37-24.22-7.64-33.77-2.53-4.85-5.46-9.24-7.59-19.72 a 83.89,83.89,0,0,1-1.13-21.29v-.18 l 0-.25,0-.33 c 0-.29,0-.45,0-.45 h 0 l .08-.93 a 12.7,12.7,0,0,1,6.69-23.5 h 0 c .43,0,.87,0,1.32.07 a 39.48,39.48,0,0,1,6.89,1.43 l .87.26.08,0 c 1.21.38,2.42.8,3.61,1.21.81,1.86,12.25,19.23,34.18,19.23.94,0,1.9,0,2.89-.1,5.34-.35,9.33-2.41,11.86-6.13,3-4.38,1-10.4-1-14.09 a 15.19,15.19,0,0,1,10.76-1.36 s -3-2.13-8.11-1.29 a 20.56,20.56,0,0,0-5.29,2 l .79,1.51 c 1.52,2.74,3.74,8.3,1,12.26-2.17,3.18-5.65,5-10.34,5.26-19.35,1.29-31.33-11.45-34-16.32,0,0-.31-.7-.94-1.94 l -1.83-.74 a 42.52,42.52,0,0,0-10.9-3.13 l -.61-.07 a 11,11,0,0,0-1.2-.06,14.7,14.7,0,0,0-8.79,26.48,93.51,93.51,0,0,0,.74,20.13 c 1.75,12.27,5.5,17.39,9.12,24.39 s 6.07,17.93-2.62,28.16 c -12,14.16-16.38,25.18-17.93,35.82,0,0,.54-.62,1.42-1.5 l .24-.23.42-.41 a 23.75,23.75,0,0,1,7.38-5 l .29-.11.11,0 h 0 c 4.41-1.58,11.1-2,21,1.38,2,.7,4.1,1.42,6.15,2.14,11.61,4.08,23.41,8.23,35.18,8.23,10.59,0,21.15-3.39,31.5-13.21v0 h 0 a 20.47,20.47,0,0,0,1.63-1.5,49.91,49.91,0,0,0-8.35-19.77 c -3.57-6.17-7-11.63-4.71-27.38 a 60.74,60.74,0,0,1,2.8-10,19.05,19.05,0,0,0,4.14-1 c 4.38-1.62,14.89-7.68,16.27-20.81 S 352.78,249.88,345.92,246.52Z"/>
    <path d="M 270.79,277.64 c 4.78,15.74,15.94,21.74,29.11,19.57 C 288.4,295.88,278.75,293,270.79,277.64Z"/>
    <path d="M 332.86,331.71 a 53.39,53.39,0,0,1-4.5,20.17 C 332.48,345.5,334.19,336.38,332.86,331.71Z"/>
  </g>
<script type="text/ecmascript" xlink:href="param.min.js"/> 
</svg>
