<?xml version="1.0"?>
<svg xmlns="http://www.w3.org/2000/svg" xmlns:xlink="http://www.w3.org/1999/xlink" viewBox="0 0 600 600">
  <title>police-shirt-slender</title>
  <g id="main-colour">
    <path d="M 331.67,281.5 c .75-3.56,2.88-12.06,2.56-20.56 a 45.81,45.81,0,0,0-3.69-15.75 l .58-.72 a 11.18,11.18,0,0,0-5.66-16.61,7.38,7.38,0,0,0-3.94-1.31,6.49,6.49,0,0,0-2.79.72 l -2.83-3.52 L 312,221.13 a 32.22,32.22,0,0,0-5-.5 c 1.17,4.38,5.73,7.16,7.73,8.17,0,.29,0,.57,0,.86 l 0,0 c -.08,3.32-3.48,9.94-7.1,12.56-.44.38-.76.68-1.25.38-6-1.82-11-6.9-15.31-10.56 a 16.43,16.43,0,0,1-3.78-4.86,25.53,25.53,0,0,0,3-4.95 c -3.07,1.12-5.75,4.58-6.93,6.28 a 14.45,14.45,0,0,1-1.41.4 c -7.45-6.36-19.55-1.14-20,7.95 s 6,12.33,9.33,13.42 c -1.25,5.92,1.33,21,3.17,27.5 s 6.92,19.67,9.08,28.08 c 1.89,7.35-1.42,16.91-7.06,27.48,3.17,1.54,9,3.73,19.22,5.64,14.9,2.79,23.88.19,28.87-2.85 a 43.2,43.2,0,0,1-1.6-11.9 c -.17-8.42,2.4-20,4.48-27.26,1-3.41,1.92-8.35,3.32-13.18Z" fill="param(main_colour)"/>
  </g>
  <g id="accent-colour-1">
    <path d="M 276.92,333.63 s 29.5,12.75,47.5,3 c 1.63,4.63,6.25,13.88,10.13,21.88 s 8.5,20,10.13,28.63,4.25,43.75,4.25,43.75-9.75,8.25-31,12.5-45.87-.25-56.62-8.5 c 2-7.25.13-15.5-1.25-21.75 s -3-25,.38-42.12,8.38-25.5,11-29.75Z" fill="param(accent_colour_1)"/>
  </g>
  <g id="fixed-colours">
    <circle cx="308.42" cy="344.47" r="1.92" fill="#ffcc50"/>
    <path d="M 307.19,243.88 s 9.5,7.83,14.67,24.83 a 80.11,80.11,0,0,1-11,21 c -5.17-6-10.17-13.5-12.17-19.17 C 301.36,257.88,307.19,243.88,307.19,243.88Z" fill="#fff"/>
  </g>
  <g id="outline">
    <path d="M 306.49,242.23 a 99.44,99.44,0,0,0-8.35,28.67 c 2,6.56,12.59,21,12.59,21 s 8.31-11.24,11.55-23.27 C 319.23,253.67,306.49,242.23,306.49,242.23Z m -6.72,28.68 c 1.85-12,7.37-25.86,7.37-25.86 s 9.26,8,13.67,23.18 A 78.93,78.93,0,0,1,311.09,289 S 302.84,279.43,299.77,270.9Z"/>
    <path d="M 304.66,249.35 l 2-.28.72,4.26 s -3.18.49-3.85,1.07 A 39.62,39.62,0,0,1,304.66,249.35Z"/>
    <path d="M 306.22,244.84 l .41,4.23,3.76-.76 a 27.67,27.67,0,0,0-3.05-4.14 C 306.63,243.62,306.22,244.84,306.22,244.84Z"/>
    <path d="M 313.84,252.11 l -2.16.33-1.3-4.12 S 312.21,249,313.84,252.11Z"/>
    <path d="M 307.93,257.65 l -.59-4.31 a 20.38,20.38,0,0,1,4.34-.9 c .68,2.44,1.27,4.49,1.27,4.49 S 310,257.25,307.93,257.65Z"/>
    <path d="M 316.84,256.86 a 12.4,12.4,0,0,0-3.89.06 c .6,1.93,1.07,3.85,1.07,3.85 l 4.65-.12Z"/>
    <path d="M 304.38,262.75 s 2.86-1.27,4.36-1.15 c -.42-2.54-.81-4-.81-4 s -2.68.54-4.21.91 C 304.2,261.11,304.38,262.75,304.38,262.75Z"/>
    <path d="M 300.66,264.58 a 15.58,15.58,0,0,1,3.91-1.81 c .2,2.15.9,4.34.53,4.31 a 15.73,15.73,0,0,0-4.42,1.9 A 37.93,37.93,0,0,1,300.66,264.58Z"/>
    <path d="M 309.6,265.68 a 34.83,34.83,0,0,1,5.05-.47,24.7,24.7,0,0,0-.64-4.44 s -3.55.46-5.08.84 C 309.29,263.4,309.6,265.68,309.6,265.68Z"/>
    <polygon points="303.2 254.88 303.72 258.56 301.47 259.25 303.2 254.88"/>
    <path d="M 305.1,267.07 s 2.84-1,4.5-1.39 c .4,2.79.5,4.68.5,4.68 s -3.85,1.07-4.15,1.67 A 38.26,38.26,0,0,0,305.1,267.07Z"/>
    <path d="M 314.66,265.21 s 2.76,0,4.13.08 c .09,2,0,4.52,0,4.52 a 11.13,11.13,0,0,0-3.94-.13 C 314.85,267.49,314.66,265.21,314.66,265.21Z"/>
    <polygon points="320.9 265.6 318.79 265.3 318.66 260.65 320.9 265.6"/>
    <path d="M 300.78,274 s 3.76-1.58,5.18-2 c .37,2.41.61,4.82.61,4.82 a 26.28,26.28,0,0,0-4,1.56 A 20,20,0,0,1,300.78,274Z"/>
    <path d="M 310.1,270.36 l .45,5.3 a 27.74,27.74,0,0,1,4.18-.54 c .13-3.12.13-5.44.13-5.44 A 25.64,25.64,0,0,0,310.1,270.36Z"/>
    <polygon points="318.8 269.81 318.58 274.81 319.44 274.26 321.13 270.38 318.8 269.81"/>
    <path d="M 306.56,276.85 a 20.58,20.58,0,0,1,4-1.18 c .13,3,.08,5.15.08,5.15 a 13.72,13.72,0,0,0-3.7.83 C 306.7,279.05,306.56,276.85,306.56,276.85Z"/>
    <path d="M 314.73,275.13 a 29.66,29.66,0,0,1,3.85-.31 c -.11,2.88-.24,2.24-.24,2.24 l -1.52,3.26-2,.21Z"/>
    <polygon points="310.63 280.81 314.79 280.53 314.71 283.84 314.1 285.17 310.58 285.33 310.63 280.81"/>
    <path d="M 305.13,282.12 l 1.79-.48 s .45,3.67.11,3.27 S 305.13,282.12,305.13,282.12Z"/>
    <polygon points="310.58 285.33 307.75 285.35 310.84 289.86 310.58 285.33"/>
    <polygon points="299.26 269.48 300.68 268.97 300.77 274 298.46 270.86 299.26 269.48"/>
    <path d="M 287.92,227.21 a 12.86,12.86,0,0,0,3.33-6.17 s -5.5,2.33-8,6.5 c 3.5,8.83,7.44,20,20.6,24.67,2-6.83,2.63-10,2.63-10 S 291.09,235,287.92,227.21Z m 15.19,23.17 c -10.75-5.17-14.85-13.83-18.27-22.33,1.08-3,4.42-4.67,4.42-4.67 a 41.93,41.93,0,0,1-2.42,3.67 c 2.83,9.17,18.52,16.21,18.52,16.21 A 67.74,67.74,0,0,1,303.11,250.38Z"/>
    <path d="M 307.17,219.8 s 3.92.42,5.17.75 a 23.69,23.69,0,0,1,7,6.46 s 2.17,13-5.17,24.63 c -3.83-4.83-7.7-9.4-7.7-9.4 s 7.43-4.35,7.68-14.85 c -1.42-2.42-2.42-2.83-2.42-2.83 a 6.57,6.57,0,0,1,3.42,3 c .17,5.33-2.73,11.67-6.81,14.75,2.83,3.17,5.75,6.58,5.75,6.58 s 5.25-9.87,4.25-21.37 c -4.92-5.92-6.6-5.87-6.6-5.87 a 38.13,38.13,0,0,0-4.17-.33 A 11.44,11.44,0,0,1,307.17,219.8Z"/>
    <path d="M 284.67,265.21 a 33.26,33.26,0,0,0,7.25,4.25,46.39,46.39,0,0,0,7.33-3.83 l .08,1.17 a 41,41,0,0,1-7.5,3.92,30.91,30.91,0,0,1-7.25-4.25Z"/>
    <path d="M 277.3,332.88 s 29.63,12.75,46.38,2.75 a 16.69,16.69,0,0,1,.63,1.75 s -12.87,9.63-47.5-3 C 277,333.75,277.3,332.88,277.3,332.88Z"/>
    <path d="M 309.86,290.13 a 212.09,212.09,0,0,1-1.37,22.38 c -1.39,11.51-1.44,22.44-.81,28.06,1.37-.37,1.25,0,1.25,0 a 200,200,0,0,1,.63-24.69 c 1.19-13.26,2.31-24.75,2.31-26.12 A 2.2,2.2,0,0,1,309.86,290.13Z"/>
    <path d="M 328.61,278.5 a 56.4,56.4,0,0,1-5.48-5.29 c 1.08-4.17,1.5-8.5.08-12.67 a 25.52,25.52,0,0,0,10.15-3.79,6.28,6.28,0,0,0,.44,1.44 c -.67.5-5.83,3.19-9.08,3.19 a 22.39,22.39,0,0,1-.08,11.67 c .92,1.08,4.2,4.34,4.2,4.34 a 25.78,25.78,0,0,0,4-3.63 c 0,1.33,0,1.54,0,1.54 A 23.12,23.12,0,0,1,328.61,278.5Z"/>
    <path d="M 324.55,262.71 s 3.25.83,6.08,1.33 c 1.42-1.42,3.1-3.35,3.1-3.35 l .19,1.31 s -1.71,2-3,3.46 a 53.56,53.56,0,0,1-6.42-1.58Z"/>
    <circle cx="307.98" cy="292.13" r="1.13"/>
    <circle cx="307.48" cy="299" r="1.13"/>
    <circle cx="306.98" cy="305.75" r="1.13"/>
    <circle cx="305.98" cy="312.75" r="1.13"/>
    <circle cx="305.36" cy="320.5" r="1.13"/>
    <circle cx="305.05" cy="328.13" r="1.13"/>
    <circle cx="305.23" cy="335.63" r="1.13"/>
    <path d="M 317.55,225.94 a 9.18,9.18,0,0,1,7.88,1.88,10.88,10.88,0,0,0-6.44-.25 A 12.05,12.05,0,0,1,317.55,225.94Z"/>
    <path d="M 284,227 a 24.06,24.06,0,0,1-2.31.81 c -1.62-1.69-8-4.44-14.12-1.06 a 13.28,13.28,0,0,0-4.69,18.88 c 2.13,3.38,6.19,5.06,6.94,5.38 a 106.2,106.2,0,0,0,2.5,23.25 c 1.69,6.63,6.81,19.25,10.31,26.75 s 5.69,12.75,6.13,17.88 c .13-6.19-1.31-10.94-4-16.56 A 240.7,240.7,0,0,1,275,275.63 a 87,87,0,0,1-2.56-26.12 c -3.5-.12-7.81-3.5-9.12-7.69 a 11.35,11.35,0,0,1,4.31-12.62,11.49,11.49,0,0,1,13.5.44,14.57,14.57,0,0,0,3.38-.81Z"/>
    <path d="M 272.09,270.21 a 109.91,109.91,0,0,0,5,19.5 c 3.58,9.75,7,20.17,5.25,27 a 77.58,77.58,0,0,1-7.17,16.92,23.9,23.9,0,0,0,2.17,1.08,98.45,98.45,0,0,0,6.42-14.5 c 2-6.42,2.42-10.5-.75-19.92 C 279.17,291.88,273.34,276.46,272.09,270.21Z"/>
    <path d="M 330.09,283.88 c -1.06,3.75-3.42,11.75-4.92,18.42 s -3.75,17.08-3.42,24.25 a 40.11,40.11,0,0,0,1.92,11.33 s 1.33-.83,1.83-1.17 c -2.42-8.83-1-21.25.5-28.25 s 6.25-25.17,6.25-25.17 c .85-4,3.35-12.75,3.1-19.08 s -1.5-15.33-7.33-23.92 C 331.11,248,337.11,259.13,330.09,283.88Z"/>
    <path d="M 307.63,219.84 s 1.54,5.92,7.13,7.83 a 3.14,3.14,0,0,1-.58,1.54,13.45,13.45,0,0,1-8.33-9.25 A 2.8,2.8,0,0,1,307.63,219.84Z"/>
    <path d="M 299.08,271 c .14,1.6.25,2.69.25,2.69 s -4.75,5.42-6.58,6.58 a 41,41,0,0,1-7.75-4.58 l .5-12.42 s 4.67,2,13.08.33 c .09,2.27.28,4.86.45,6.85 l 1-4.86 c -.09-1.43-.16-2.74-.21-3.66-9.33,2-15.58-.42-15.58-.42-.33,4-.58,14.75-.58,14.75 a 32.37,32.37,0,0,0,9,5.5 c 2.4-1.35,6.87-6.39,7.75-7.4 C 299.87,273.05,299.31,271.6,299.08,271Z"/>
    <path d="M 275.17,333.63 c -1.12,2.13-10.25,13.75-14.5,31.38 s -3.86,37.27-2.12,45.88 c 2.33,11.54,3.64,21.15,1,24.33,13,8,32.21,12.54,54.21,9.79 a 81.58,81.58,0,0,0,36.29-13.62 s -1.42-31.5-5-47-12.75-32.87-15.5-38.5-4-9.17-4-9.17-1.46-.46-1.71.54 c 1.38,4.38,6.25,13.63,8.63,18.75 s 9,19.63,11.38,31.88,4.29,42.63,4.29,42.63-8,6.25-23.79,10.63-47,3.54-61.71-6.58 c 1.5-7.67.67-12.33-1.17-20.42-1.49-6.56-2.75-22.75-.87-37 s 5.75-23.37,8.38-28.62,8.42-13.79,8.42-13.79 l 0-1.83Z"/>
    <path d="M 272,341 s 22.13,9.25,41.25,7.25 a 47.39,47.39,0,0,0,14-4.25 l .63,1.5 s -7.75,3.5-15,4.13-21.75.5-41.37-7.5 A 4.9,4.9,0,0,1,272,341Z"/>
    <path d="M 308.41,342.05 a 2.42,2.42,0,1,0,2.42,2.42 A 2.42,2.42,0,0,0,308.41,342.05Z m 0,3.83 a 1.42,1.42,0,1,1,1.42-1.42 A 1.42,1.42,0,0,1,308.41,345.89Z"/>
    <path d="M 321.67,379.38 s -9.5,31.75-21.25,44.75 C 313.92,412.38,321.67,386.63,321.67,379.38Z"/>
    <path d="M 322.67,407.13 s -8.75,16.25-18.5,23.5 C 312.67,428.38,322.17,411.63,322.67,407.13Z"/>
  </g>
<script type="text/ecmascript" xlink:href="param.min.js"/> 
</svg>
