<?xml version="1.0"?>
<svg xmlns="http://www.w3.org/2000/svg" xmlns:xlink="http://www.w3.org/1999/xlink" viewBox="0 0 600 600">
  <title>slender-top-template</title>
  <g id="main-colour">
    <path d="M 367.52,407.88 c -10.33-3-14-8.17-18.17-16 s -7.17-24.17-9.5-36.33-8-18.33-12.5-25.83-4.17-10.17-2.5-19.67 c 1.19-6.77,4.15-16.35,6.61-26.66 a 15.55,15.55,0,0,0,7.59-4.17 c 3.83-4.17,6.5-13.67,4.5-18.5 a 36.92,36.92,0,0,0-10-13.17,47.34,47.34,0,0,1-6.2-6.83 c -.54-.89-1-1.68-1.5-2.34 A 60.62,60.62,0,0,1,320,226.71 a 12.89,12.89,0,0,0-4.33,1 c 1,4.17,11,19.5,11,19.5 a 33.2,33.2,0,0,0-7.64,13 c -2.67-3.33-13.36-11-25.2-15.17-.33-5.67-2.83-16.67-5.5-19.83-1,1.67-4,2.67-4,2.67 S 287.86,237,288,246 c -2.33,7.67-16.67,14.17-16.67,14.17.17,11.5,5.17,28.83,8.67,37.67 s 3.17,16.5-.17,22.83-14.33,16.17-22.17,26.83-14.17,31.67-17.5,39-9.5,15.5-21.5,17.67 A 39.2,39.2,0,0,0,240.19,427 a 59.07,59.07,0,0,0-4.33,5 c 12-1.67,21,8,26.5,10.5 s 11.17,1.5,19.5-.33,10.67-.5,16.5,2.67,13.67,1.67,17.5,0,6.17-3.17,11.83-4.83 a 31.32,31.32,0,0,1,13.67-.33 c 1.17.33.67-1.33-1.33-4.33 C 352.36,431.71,364.19,415.71,367.52,407.88Z" fill="param(main_colour)"/>
  </g>
  <g id="fixed-colours">
    <path d="M 300,321.75 c -.87,5.25-3.75,10.25-6.37,15.38 a 93.6,93.6,0,0,0-8.12,27.13,138.61,138.61,0,0,0-.75,19.63 c 0,3.25-1,12.63-1,12.63 s 2.88-9.87,3-18.25 c .08-5.16,1.67-13.87,3.56-21.29,1.49-4,3.93-9.42,6.24-9.42,3.3,0,4.71,3.53,4.47,10.55q-.12,1.58-.26,3.15 c -1,11,.13,28.25,3,34-1-9.25-.5-22.37.13-31.25 S 306.23,333.63,300,321.75Z" opacity="0.15"/>
    <path d="M 323.92,341.75 c 3.21,8.1,7.06,18.88,7.06,18.88 s -4-23.75-14.5-37.62 c 2.75,9.5,6.38,29.88,6.75,39.63 a 85.72,85.72,0,0,0-.12-19.5 C 322.83,341.94,323.3,340.61,323.92,341.75Z" opacity="0.15"/>
    <path d="M 274.61,339 c -6.75,7.38-12,18-12,18,2.4-4.46,7.84-10.91,10.47-13.6.92-.37,3.78-2.46,2.45.81v0 l -.18.26 c -4.5,6.63-11.87,22-14,31.63,5.5-14.87,18.5-35.12,20.25-38.12 a 44.3,44.3,0,0,0,5.63-16.75 C 286.36,324.63,281.36,331.63,274.61,339Z" opacity="0.15"/>
  </g>
  <g id="outline">
    <path d="M 339.31,434.67 a 32.93,32.93,0,0,0,8.61-4.56,55.72,55.72,0,0,0,7.51-6.45,56.37,56.37,0,0,0,11.22-16.21 h 0 l .71,1.44 a 25.82,25.82,0,0,1-14.86-9.76 c -3.66-4.8-5.87-10.41-7.59-16 s -2.88-11.36-4-17.07 l -1.67-8.55 a 65.38,65.38,0,0,0-2.24-8.28,52.53,52.53,0,0,0-3.43-7.83,78.76,78.76,0,0,0-4.56-7.3,47.25,47.25,0,0,1-4.56-7.64,19.54,19.54,0,0,1-1.33-4.39,22.63,22.63,0,0,1-.26-2.28 c 0-.75,0-1.5,0-2.25.1-6,1.68-11.76,3.22-17.36 s 3.18-11.16,4.38-16.81 l .13-.64.63-.14 a 14.89,14.89,0,0,0,7-4.11,18.84,18.84,0,0,0,2.62-3.25,12,12,0,0,0,.94-1.8 c .25-.64.5-1.32.7-2 a 18.12,18.12,0,0,0,.74-8.25,19.51,19.51,0,0,0-3.5-7.53 c -3.32-4.66-8-8.35-11.9-12.89 a 30,30,0,0,1-2.72-3.66 c -.8-1.27-1.54-2.57-2.24-3.89 a 79.34,79.34,0,0,1-3.75-8.13 h 0 l .8.64 a 4.93,4.93,0,0,0-.88,0,7.84,7.84,0,0,0-1,.17,9.5,9.5,0,0,0-1.9.71 l .52-1.16 a 29.18,29.18,0,0,0,2.14,4.92 c .85,1.62,1.76,3.23,2.7,4.82,1.89,3.18,3.88,6.31,5.94,9.38 l .46.68-.59.6 a 30.52,30.52,0,0,0-2.4,2.8,34.14,34.14,0,0,0-2.09,3.08,28.09,28.09,0,0,0-1.72,3.29,24.88,24.88,0,0,0-1.24,3.46 l -.51,1.72-1.21-1.32 a 38.38,38.38,0,0,0-5.37-4.73,69.82,69.82,0,0,0-6.05-4,68.59,68.59,0,0,0-13.17-6.05 l -.63-.21-.06-.66 a 63.86,63.86,0,0,0-1.74-10.08 c -.42-1.66-.91-3.29-1.46-4.91 a 49,49,0,0,0-1.86-4.72 l 1.61.27 c -.33.33-.65.63-1,.94 a 10.6,10.6,0,0,1-1.13.9,13.66,13.66,0,0,1-2.58,1.19 l .55-1.41 a 29.91,29.91,0,0,1,1.66,4.67 c .44,1.56.79,3.13,1.1,4.71 s .56,3.16.79,4.75.4,3.18.55,4.77 l 0,.37-.2.29 a 37.85,37.85,0,0,1-3.56,4.43,36.91,36.91,0,0,1-4.16,3.85,39.43,39.43,0,0,1-4.65,3.23 A 34.24,34.24,0,0,1,271.7,261 h 0 l .66-1 a 117.44,117.44,0,0,0,3.4,20.71q1.31,5.09,3.09,10 l 1.88,5 c .61,1.69,1.17,3.4,1.64,5.15 a 35.86,35.86,0,0,1,1.34,10.84,22.49,22.49,0,0,1-3.18,10.59,50.47,50.47,0,0,1-6.81,8.44 c -2.41,2.59-4.82,5.16-7.14,7.81 a 95.44,95.44,0,0,0-12.31,16.89,47.22,47.22,0,0,0-2.23,4.66 c -.66,1.59-1.27,3.26-1.87,4.91-1.2,3.31-2.37,6.66-3.63,10-2.54,6.64-5.35,13.3-9.57,19.27 a 32.69,32.69,0,0,1-7.7,7.91,21.65,21.65,0,0,1-10.52,3.93 h 0 l 1.23-2 A 42.34,42.34,0,0,0,223.3,411 a 37.7,37.7,0,0,0,4.61,6.13,39.61,39.61,0,0,0,12.35,9.09 l -.81,1.83 a 41.82,41.82,0,0,1-13.33-9.23,40.27,40.27,0,0,1-5.1-6.39,45.13,45.13,0,0,1-3.78-7.27 l -.72-1.75,1.95-.23 h 0 a 18.74,18.74,0,0,0,9.15-3.37,29.9,29.9,0,0,0,7.06-7.19 c 4-5.59,6.8-12.07,9.34-18.6,1.27-3.28,2.45-6.6,3.68-9.94.62-1.67,1.23-3.33,1.94-5 a 49.78,49.78,0,0,1,2.38-4.89,97.84,97.84,0,0,1,12.72-17.28 c 2.36-2.66,4.81-5.24,7.23-7.82 a 48.38,48.38,0,0,0,6.55-8,20.14,20.14,0,0,0,2.91-9.51,33.64,33.64,0,0,0-1.22-10.15 c -.43-1.67-1-3.33-1.55-5 l -1.86-5q-1.79-5.06-3.09-10.26 a 119.3,119.3,0,0,1-3.35-21.14 l 0-.72.71-.27 h 0 a 32.58,32.58,0,0,0,4.77-2.38,37.44,37.44,0,0,0,4.43-3.07,34.92,34.92,0,0,0,3.95-3.65,35.85,35.85,0,0,0,3.36-4.19 l -.17.65 c -.15-1.56-.33-3.13-.54-4.68 s -.47-3.1-.78-4.64-.65-3.06-1.07-4.55 a 28.81,28.81,0,0,0-1.51-4.29 l -.48-1,1-.38 a 12.16,12.16,0,0,0,2.15-1,8.85,8.85,0,0,0,.9-.72 c .3-.27.62-.57.9-.85 l 1-1,.59,1.28 a 50.57,50.57,0,0,1,2,4.95 c .57,1.67,1.08,3.35,1.51,5.06 a 65.86,65.86,0,0,1,1.8,10.4 l -.69-.86 a 70.56,70.56,0,0,1,13.57,6.23,71.82,71.82,0,0,1,6.23,4.13,40.2,40.2,0,0,1,5.67,5 l -1.71.41 a 26.89,26.89,0,0,1,1.34-3.76,30.08,30.08,0,0,1,1.83-3.51,36.16,36.16,0,0,1,2.22-3.26,32.17,32.17,0,0,1,2.6-3 l -.13,1.28 c -2.09-3.12-4.09-6.26-6-9.48-1-1.61-1.88-3.25-2.76-4.92 a 30.68,30.68,0,0,1-2.29-5.31 l -.24-.78.75-.38 a 11.5,11.5,0,0,1,2.31-.86,9.82,9.82,0,0,1,1.24-.22,6.38,6.38,0,0,1,1.36,0 l .58.06.22.58 h 0 a 77.52,77.52,0,0,0,3.64,7.89 c .68,1.28,1.4,2.54,2.17,3.76 a 28,28,0,0,0,2.55,3.41 c 3.75,4.35,8.47,8.07,12,13 a 21.4,21.4,0,0,1,3.85,8.36,20.1,20.1,0,0,1-.79,9.18 c -.22.74-.47,1.44-.76,2.17 a 13.94,13.94,0,0,1-1.1,2.11,20.84,20.84,0,0,1-2.91,3.61,16.88,16.88,0,0,1-8,4.65 l .77-.78 c -1.21,5.73-2.82,11.36-4.4,16.94 s -3.05,11.18-3.14,16.84 a 23.42,23.42,0,0,0,.28,4.16,17.48,17.48,0,0,0,1.2,3.93,45.54,45.54,0,0,0,4.38,7.3,80.75,80.75,0,0,1,4.67,7.48,54.59,54.59,0,0,1,3.56,8.13,67.42,67.42,0,0,1,2.31,8.54 l 1.68,8.57 c 1.13,5.69,2.3,11.37,4,16.87 s 3.84,10.87,7.26,15.35 a 23.75,23.75,0,0,0,13.71,9 l 1.23.3-.53,1.13 h 0 a 58.42,58.42,0,0,1-11.67,16.79,57.74,57.74,0,0,1-7.8,6.67,34.83,34.83,0,0,1-9.18,4.81Z"/>
    <path d="M 327.86,408.38 c .43,1.81,1,3.57,1.59,5.31 s 1.3,3.45,2,5.14 a 85.92,85.92,0,0,0,5,9.81q.68,1.2,1.43,2.35 c .5.77,1,1.56,1.5,2.31 l 1.55,2.27,1.64,2.2.41.55 a 2.87,2.87,0,0,1,.31.46,1.54,1.54,0,0,1-1.26,2.2,1.64,1.64,0,0,1-.48,0 l -.18,0-.33-.07 c -.88-.2-1.76-.33-2.65-.46 a 27.94,27.94,0,0,0-5.35-.14,31.74,31.74,0,0,0-10.37,2.65 c -1.65.7-3.29,1.57-5,2.33 a 35,35,0,0,1-5.41,1.9,22.68,22.68,0,0,1-11.57,0,28.46,28.46,0,0,1-5.39-2.14 c -.45-.23-.84-.41-1.22-.58 l -1.17-.54 a 16.7,16.7,0,0,0-2.47-.69 c -3.37-.71-6.93-.12-10.52.64 s -7.38,1.64-11.32,1.34 l -1.47-.16 c -.49-.06-1-.2-1.45-.29 a 21.72,21.72,0,0,1-2.81-.84,32.61,32.61,0,0,1-5.12-2.65 c -3.19-2-6.08-4.31-9.29-5.88 a 21.5,21.5,0,0,0-10.29-2.15 l -1.34.08-.67,0 h -.4 a 1.5,1.5,0,0,1-.48-.15,1.54,1.54,0,0,1-.39-2.48 l .62-.5,1-.83 c .71-.54,1.31-1.22,2-1.82 s 1.21-1.33,1.82-2 a 61.21,61.21,0,0,0,10.23-19.35,44.86,44.86,0,0,1-1.35,5.41,46.58,46.58,0,0,1-1.93,5.26,44.15,44.15,0,0,1-5.59,9.78 c -.62.72-1.19,1.48-1.85,2.17 s -1.31,1.39-2.06,2 l -1.11.92-.45.38 a .46.46,0,0,0,.1-.53.44.44,0,0,0-.2-.2 l -.15,0 H 236 l .72,0,1.44-.1 a 23.6,23.6,0,0,1,11.27,2.27 c 3.48,1.68,6.48,4,9.54,5.91 a 30.45,30.45,0,0,0,4.76,2.41,19.45,19.45,0,0,0,2.51.73 c .43.08.84.2,1.27.25 l 1.3.13 c 3.49.24,7-.59,10.66-1.39 a 46,46,0,0,1,5.62-1,18.65,18.65,0,0,1,5.88.25,19.12,19.12,0,0,1,2.87.83 c .45.2.9.42,1.35.63 s .9.43,1.28.62 a 26.1,26.1,0,0,0,4.9,2,20.34,20.34,0,0,0,10.41.1,32.72,32.72,0,0,0,5.08-1.74 c 1.66-.7,3.31-1.55,5.07-2.29 A 33.87,33.87,0,0,1,333,438.16 a 30,30,0,0,1,5.74.2 c .95.14,1.89.3,2.82.52 l .35.08.16,0 h -.13 a .45.45,0,0,0-.41.36 c -.08.17.2.53,0,.18 l -.41-.57 a 77.56,77.56,0,0,1-6-9.5,73.91,73.91,0,0,1-4.53-10.25,55.44,55.44,0,0,1-1.63-5.35 A 40.3,40.3,0,0,1,327.86,408.38Z"/>
    <path d="M 282.61,314.38 s 26,12.5,40.75.25" fill="none" stroke="#000" stroke-miterlimit="10" stroke-width="1.5"/>
    <path d="M 258.82,365.37 a 112.3,112.3,0,0,1,5.95-13.05,68.1,68.1,0,0,1,8-12,100.87,100.87,0,0,0,8.74-11.23 A 53.67,53.67,0,0,0,285,323 a 20.45,20.45,0,0,0,2.1-6.45 h 0 l 2,.08 a 33.93,33.93,0,0,1-1.4,9.79,50.61,50.61,0,0,1-3.81,9 c -1.53,2.86-3.2,5.62-4.85,8.37 s -3.33,5.51-5,8.24 a 173.5,173.5,0,0,0-9.31,16.82,99.34,99.34,0,0,0-6.55,18.06 l -.16,0 a 99.73,99.73,0,0,1,6.14-18.28,174.31,174.31,0,0,1,8.94-17.11 c 1.62-2.78,3.23-5.54,4.81-8.35 s 3.19-5.57,4.61-8.41 a 49,49,0,0,0,3.48-8.79,32,32,0,0,0,1.1-9.26 l 2,.08 h 0 a 22.08,22.08,0,0,1-2.52,7,55.28,55.28,0,0,1-3.83,6.18 A 102.14,102.14,0,0,1,273.52,341 a 67.33,67.33,0,0,0-8.27,11.56,112,112,0,0,0-6.36,12.81Z"/>
    <path d="M 280.79,408.63 a 159.64,159.64,0,0,0,3-22.31 l .1-2.8 c 0-.93,0-1.87,0-2.79-.06-1.83-.23-3.76-.22-5.66 a 86.73,86.73,0,0,1,.77-11.36 A 91.37,91.37,0,0,1,290,341.64 c .36-.89.73-1.77,1.15-2.63 l .62-1.3.69-1.27 c .93-1.68,1.85-3.23,2.65-4.92 a 37.58,37.58,0,0,0,3.4-10.41 l .09-.67,0-.17,0-.14 a 1.32,1.32,0,0,1,.12-.37,1.28,1.28,0,0,1,2.28,0 l .07.17,0,.06.11.34.22.68q.42,1.37.79,2.75 c .49,1.84.91,3.7,1.28,5.56 A 97.79,97.79,0,0,1,305,340.61 a 92.75,92.75,0,0,1,.2,11.39 c -.17,3.81-.59,7.54-.88,11.28-.6,7.49-1,15-.88,22.5 a 85.5,85.5,0,0,0,.84,11.21 c .14.93.28,1.85.5,2.76 l .3,1.37.39,1.35 a 22.59,22.59,0,0,0,2.16,5.18,29.35,29.35,0,0,1-3.86-10.58,86.23,86.23,0,0,1-1.29-11.26 c -.34-7.55-.08-15.11.33-22.64.19-3.76.54-7.54.69-11.25 a 91,91,0,0,0-.29-11.18,95.93,95.93,0,0,0-1.63-11.06 c -.38-1.82-.81-3.64-1.31-5.43q-.37-1.34-.79-2.67 l -.22-.66-.11-.33v0 l 0,.09 a .71.71,0,0,0,.13.18.71.71,0,0,0,1.15-.19.69.69,0,0,0,.07-.2 c 0-.09,0,0,0,0 l 0,.18-.1.73 a 39.47,39.47,0,0,1-3.64,11 c -.82,1.72-1.83,3.4-2.73,5 l -.67,1.2-.6,1.24 c -.41.82-.77,1.68-1.13,2.53 A 97.3,97.3,0,0,0,286,363.93 a 85.28,85.28,0,0,0-1,11.14 c -.06,1.86.07,3.7.1,5.63 s -.06,3.8-.22,5.69 c -.32,3.78-.85,7.52-1.5,11.23 S 282,405,281,408.69Z"/>
    <path d="M 323.7,373.13 c -.29-4.59-.73-9.17-1.25-13.73 s -1.17-9.12-2-13.64 a 135.58,135.58,0,0,0-2.94-13.41,53.77,53.77,0,0,0-4.9-12.6 l 1.6-1.18 h 0 a 54.91,54.91,0,0,1,7.91,12.9,125.62,125.62,0,0,1,5.43,14,136.68,136.68,0,0,1,6.09,29.19 l -.15,0 a 136.07,136.07,0,0,0-7-28.86,124.32,124.32,0,0,0-5.8-13.64,53.4,53.4,0,0,0-8-12.2 h 0 l 1.6-1.18 a 55.36,55.36,0,0,1,4.69,13.2,136.94,136.94,0,0,1,2.56,13.63q1,6.85,1.55,13.74 c .38,4.59.68,9.19.83,13.79Z"/>
    <path d="M 309,283.9 c -5.26,3.07-11.3,3.19-16.86,1.48 a 20.4,20.4,0,0,0,13.72,1.8 c 1.57-.39,8.21-2.54,12.16-11.42 A 29.58,29.58,0,0,1,309,283.9Z"/>
  </g>
<script type="text/ecmascript" xlink:href="param.min.js"/> 
</svg>
