<?xml version="1.0"?>
<svg xmlns="http://www.w3.org/2000/svg" xmlns:xlink="http://www.w3.org/1999/xlink" viewBox="0 0 600 600">
  <title>one-piece-swimsuit-curvy</title>
  <g id="skin-tone">
    <g id="skin-tone-2" data-name="skin-tone">
      <path d="M 253.19,336.22 c -7.25,10.5-10.25,21.38-10.25,26.63,0,3.31-.72,6.77,0,9.72,0,.25.17,1.75.17,2,0,18.14,16.19,32,34.33,32,8.84,0,15.76-2.82,21.67-8.5.37.21,1.28-1,1.66-.83 a 32.85,32.85,0,0,0,47.61-29.34 c .14-1.85-.16-12.64-.46-14.4 h 0 c 0-2.48-2.06-8.6-4.73-13.52 a 102.52,102.52,0,0,0-5.87-10.34 L 335.15,324 c -2.5-7.75-1.58-17.67-.5-22.83 s 2.75-9.08,5.08-15.67 a 60.47,60.47,0,0,0,3.75-23.25 c -.33-9.33-3.26-14.6-3.26-14.6 h 0 l -.32-.33 a 12.1,12.1,0,0,0-6.08-19.09v-.44 h 0 c -4-2.33-11.4.46-11.4.46 s -.46,1.38-5.08-1.87-4-10.37-4-14.87 a 46.89,46.89,0,0,0-.13-4.74,73.85,73.85,0,0,1-27.06,0,5.78,5.78,0,0,0-.08.91 c 0,3.5,1.5,4.75-1.75,12 a 20.53,20.53,0,0,1-8.75,9.88,54.44,54.44,0,0,0-11-3.12,13.69,13.69,0,0,0-13.87,6.13 c -4.62,8.75-.12,15.63,3.88,18.5-2.75,22.25,4.63,35.5,7.25,40.25 s 4.63,8.5,5.5,15.13 c 1,9-3.4,15.42-8.75,22.56Z" fill="#f9d9c7"/>
    </g>
  </g>
  <g id="main-colour">
    <path d="M 254.5,264.88 s 12.13,1.38,18-8.5,5.13-20.87,3.75-27.5 a 23.84,23.84,0,0,0,4-3.12 s 2,11.75,9,18.75,12.88,10.88,22.25,10.13,12.88-7.75,13.25-13.87 a 30.9,30.9,0,0,0-2.25-12.25 s 2.5-1.62,4.38-1.62 a 101,101,0,0,0,7.5,18.75 c 3.75,6.75,8.25,9.88,9.5,15 s 1.38,12-1.75,16.75 c -1.87,7.88-5.25,15.88-6.75,21.5 s -3.25,16.63,1,26 a 80.05,80.05,0,0,0,7.75,14,21.31,21.31,0,0,0-13.62,5.75 c -5.87,5.75-8,14-9.25,19.88 s -3.37,16.63-11.62,17.25 c 2.13-8.37,1.13-17.37-2.37-23.75 s -10.37-15.25-22.37-18.12-27.37-2.62-38.25,8.63 c 3.63-8.62,9.13-16.25,14.88-24 s 7.75-14.12,5.5-21.37-5.37-11.25-7-14.87-4.75-13-5.25-18.62Z" fill="param(main_colour)"/>
  </g>
  <g id="outline">
    <path d="M 304.23,283.15 c -8.46,4.78-13.95,5.54-21.42,5 C 289.71,291.7,299.52,289.12,304.23,283.15Z"/>
    <path d="M 275.08,228.47 a 38.9,38.9,0,0,1-1.66,24.22 c -5.7,13.57-19.94,11.19-19.94,11.19 l .19,2 s 15.75,1.69,21.44-12.62 a 40.43,40.43,0,0,0,1.63-25.75Z"/>
    <path d="M 279.25,225.5 s 2.94,9.57,4.13,12 c 2.76,5.75,12.71,19.21,27.63,18,14.36-1.2,17-14.12,11.94-28.29 l -1.42.75 s 5.26,10.65.9,19.29 c -4.67,9.26-18.46,9-28.64.86 s -11.2-18.4-13-24.23 A 7.19,7.19,0,0,1,279.25,225.5Z"/>
    <path d="M 275.08,228.47 s 4.37-2.58,5.66-4.6 a 20.28,20.28,0,0,1,.61,2.38,30,30,0,0,1-5.87,4.06 A 9.45,9.45,0,0,0,275.08,228.47Z"/>
    <path d="M 321.52,228 a 10.33,10.33,0,0,1,5.5-1.75,1.19,1.19,0,0,0,.26,1.25 s -3.36.45-5.15,1.87 A 8.12,8.12,0,0,0,321.52,228Z"/>
    <path d="M 337.29,251.46 a 70.46,70.46,0,0,1-5.22-8.82 c -2.68-5.32-6-16.39-6-16.39 l 1,0 s 1.81,5.63,4.18,11.42 a 71.62,71.62,0,0,0,6.58,11.79 c 1.17,1.54,4.83,5.29,6.75,10.12 a 20.77,20.77,0,0,1-1.67,18.5 c -4.08,7-9.25,10.08-14.92,10.08 a 21.19,21.19,0,0,0,11.83-8.75 c 2.08-3.25,5.46-10.71,3.21-17.87 C 341.33,256.34,338.62,253.38,337.29,251.46Z"/>
    <path d="M 334.54,311.63 c .19-9.31,1.13-11.62,3.06-17.5 s 5-13.44,5.88-18.75 l .15-.91 a 23.19,23.19,0,0,1-3,5.28 c -1.47,6.26-3.19,9.49-4.82,14.7-1.94,6.19-3.19,11-3,19.5 s 1.81,12.38,4.38,16.44,4.31,6.75,4.56,7.44 c -5.75.5-12.31,5.5-15.37,9.88 s -4.62,11.69-6,17.63-3.63,14.75-9.5,15.53 c 1.56-8.34,1.5-16.53-4.31-26 S 294.61,341.75,284.67,339 s -24.87-2.81-35.56,6.38 a 130.24,130.24,0,0,1,11.37-17.75 c 3.94-5.25,8.06-10.81,8-17.69 s -2.37-13.19-6.12-19.5-6.56-16.56-6.81-25.31 l -2.06-1.25 a 61.63,61.63,0,0,0,4.21,21 c 4.33,11,6.29,9.88,8.67,20.25 s -5.5,18.88-6.75,20.38-11,12.5-14.87,26 c 12.25-13.62,30.75-14.12,42.37-10.12 a 34,34,0,0,1,21.5,22.17 c 3,9.25-.17,19.17-.17,19.17 s 5.36.73,9.14-5.26,5.11-18.33,9.11-26.41,14.92-11.83,18.58-11.5 c -2-4.75-4.42-7.85-6-10.48 A 30.37,30.37,0,0,1,334.54,311.63Z"/>
    <path d="M 253.58,251.7 a 93.51,93.51,0,0,0,0,13.42 l 1.89,0 a 83.85,83.85,0,0,1,0-12.3v-1.23 l .08-.93 a 12.7,12.7,0,0,1,6.69-23.5,8.47,8.47,0,0,1,1.32.07,39.47,39.47,0,0,1,6.89,1.43 l .87.26 h .08 c 1.89.6,3.77,1.27,5.55,1.89 l .07,0,.49-1.43 c 2.75-1.52,10.29-7.13,9.53-22.61 l -1.9-.35v1.22 S 287,222.14,275,228.46 a 42.52,42.52,0,0,0-10.9-3.13 l -.61-.07 a 11,11,0,0,0-1.2-.06,14.7,14.7,0,0,0-8.76,26.5Z"/>
    <path d="M 282.42,232.55 a 25.47,25.47,0,0,0,11.21.64 c -2.63.24-6.69-.53-11.73-2.18Z"/>
    <path d="M 343.79,258 c -.72-4.47-2.08-8.7-3.57-10.43 a 41.9,41.9,0,0,1,1.82,7.63Z"/>
    <path d="M 333.81,227.77 s -3-2.13-8.11-1.29 a 16,16,0,0,0-4.2,1.47 c -2.12-.86-4.65-3.36-6.18-6.85-1.66-3.79-1-11.33-1.06-14.57q-1,.21-2.08.38 c -.09,2.67-.51,7.43.47,11.73,1.32,6.69,5,9.35,6.89,10.3-3.55,1.89-7.24,4.11-10.6,4,5.38.5,8.35-1.28,11.13-2.37 S 326.54,226.18,333.81,227.77Z"/>
    <path d="M 308.75,381.12 A 32.85,32.85,0,0,1,244.07,373 s 0-1.47.06-3.59 c .22-5.16,1.11-15,4.68-23.18-1.07.75-2.06,1.45-2.85,2-3.25,8.64-3.83,16.47-3.89,24.74 a 34.84,34.84,0,0,0,68.22,10 c 2.05-.54,5.94-2.68,7.29-5.48 a 13.25,13.25,0,0,1-6.73,3.36 C 310.38,380.95,309.62,381.06,308.75,381.12Z"/>
    <path d="M 342.17,338.73 c 5.1,10.05,5.22,18.56,6.25,24,.28-4.7,1.53-12.95-3.83-24.36Z"/>
    <path d="M 304,247.76 a 34.15,34.15,0,0,1,3.6,7.08 c .47,0,1,.06,1.65.05 A 29.39,29.39,0,0,0,304,247.76Z"/>
  </g>
<script type="text/ecmascript" xlink:href="param.min.js"/> 
</svg>
