<?xml version="1.0"?>
<svg xmlns="http://www.w3.org/2000/svg" xmlns:xlink="http://www.w3.org/1999/xlink" viewBox="0 0 600 600">
  <title>curvy-top-template</title>
  <g id="main-colour">
    <path d="M 255,269.55 s 15.33-5.08,23.75-17.83 a 126.36,126.36,0,0,0-1.5-23.42 s 3.17-2.17,3.92-3.58 c 3,7.25,6.88,19.13,7.3,24.79,7,.13,27,.63,39.75,12.88.13-5,1.25-10,4.44-13.17-6.83-8.67-9.75-19.67-9.83-21.17,2.83-.67,4.83-1.17,4.83-1.17 s 2.3,8.18,5.76,12.5 c 4.41,5.5,22.91,10.33,24.08,24,.95,11.1-2.5,24.83-20,29-2.33,6.67-5.33,16.5-3.83,24.08 s 2.75,6.92,5.25,9.08,12,15,16.5,24.83,7.33,16.17,13.5,25.08,13.83,15.83,21.42,19 c -.25,10.08-14.17,26.83-30.33,34.92 a 17.47,17.47,0,0,0,5,4.83 s -11-1.08-19,3.17-11.25,9.42-20.33,10.17 S 311.92,444,303.42,443 s -11.5,1.58-15.75,3.5-10.58,4.08-20.08-.25-22-13.33-41.5-8.92 c 3.58-3.33,4.58-5.75,4.58-5.75 S 207,424.13,200.42,400 c 12.08-1.83,23.67-11.17,29.5-24.58 s 13.67-32.75,25.67-45.08,14.83-18.67,10.25-31.42 S 258.59,291.71,255,269.55Z" fill="param(main_colour)"/>
  </g>
  <g id="fixed-colours">
    <path d="M 246,357.88 s 6.17-10.17,11.67-16.33,8.5-10.5,8.17-7.33-10,13.67-13.83,30.67 a 150.5,150.5,0,0,1,13.83-25.67,132.3,132.3,0,0,0,8.5-16.5,9.11,9.11,0,0,1-4.33-1.33,48.23,48.23,0,0,1-9.17,13.5 c -6.67,7.17-12.67,18.5-12.67,18.5Z" opacity="0.15"/>
    <path d="M 277,394.21 s 3.17-8.5,6.5-20.17,7.17-32.67,10.67-32,1.5,16.33,2,24.83,3.83,22.67,6.83,28.5 a 157.61,157.61,0,0,1-3.17-34.17 c .17-15-1-28.83-4.5-33-3,4.17-7.17,13.83-8.83,20.33 s -4.83,19-5.83,25-3.17,17-3.17,17Z" opacity="0.15"/>
    <path d="M 334.84,364.55 s .17-8.83-1.17-14.33-3.83-13-2.83-13.67,5.33,5.67,7.17,12.67,8.67,24.5,12,26.33 c -2.67-6.33-5.67-16-8.17-22.83 s -7.67-21.5-18.67-26.33 c -.54.13-.83,1,.5,2.83 S 330.84,343.55,334.84,364.55Z" opacity="0.15"/>
  </g>
  <g id="outline">
    <path d="M 391.55,393.88 c -15.5-7-25.5-22.5-31.67-37 s -15.33-28.5-24-35.17 c -2.5-13,.11-20.17,2.61-28.5,12.17-3,18.5-11.83,20.17-21,1.5-10.17-1.17-22.17-17.17-28.33-12.58-4.85-12.94-17.67-12.94-17.67 a 8.68,8.68,0,0,0-6.5,1.33 c 1.67,11,9.67,21.83,9.67,21.83 a 18.75,18.75,0,0,0-4.63,11 c -7.87-9.37-26.5-11.5-38.12-12-.33-3.83-5.58-21.33-7.58-25.67-1.33,2.67-5.17,4.83-5.17,4.83 a 105.53,105.53,0,0,1,1.67,24.33 c -3.33,4.67-15,15-24,16.5,0,6.5,3.83,18.17,6,21.83 s 7.67,10.33,6.17,22-11.5,15.67-19.17,27.17-15.17,28.5-19.83,38.83-18.83,21.33-29.33,21 c 10.6,24,26.76,31.47,30.75,33-1.71,2.07-3.61,4.19-5.75,6.33,6.83-1.67,23.17-2.83,35.67,4.17 s 19.5,9.5,30.33,4.33,19.33-2,23.83-.17 S 329.72,451,338.72,443 s 23.17-9.17,29.5-7.67 c -2-1.73-4.06-3.54-6.07-5.55 C 372.09,425,389.82,409.66,391.55,393.88Z M 263.72,292.54 c -4-6.83-7-13.83-7.67-22,3.83-2.17,17.33-7.5,23.67-18.33,1-10.5-1.33-23.33-1.33-23.33 a 10.07,10.07,0,0,0,2.67-2.5 c 1.17,2.17,5.17,14.67,6.67,24,14.38-.5,32.38,4.13,40.25,13,.33-2,.38-8.75,5.58-14-8.5-11-9.33-20.67-9.33-20.67 a 4.21,4.21,0,0,1,2.83-1 c 1.33,7.33,4.76,13.53,11.94,17,15.17,7.33,17.1,14.5,17.33,22,.5,16.17-12.67,23.83-19.5,24.5-3,8-5.42,16.92-3.36,30.89-26.88,11.9-61.65-.66-67.38-2.89 a 18.87,18.87,0,0,0,2.3-6 C 269.39,307,267.72,299.38,263.72,292.54Z m 96.5,135.3 c -6.29-6.7-12.48-15.66-18.33-30.3 A 84.81,84.81,0,0,0,361.55,433 c -11.5-1.17-19.83,4.67-24.17,7.5 s -9.5,6.67-20.33,4.5-15.5-6.33-27.67-.67-19.83,1.67-25.83-1.67-19-10.67-33.67-7 c 6.5-8.17,12.5-22.33,12.67-29.67,0-1.38-1.52,10-12.44,24.11-11.28-3.36-23.34-15.91-28.4-28.95,20.5-2.83,30.5-27.5,34.17-36.33 s 13.17-27.17,19-32.33 a 58.28,58.28,0,0,0,10.47-12.11q1.85.79,3.77,1.51 c -2,5.3-8,11-16,21.94-8.37,11.38-12,28.75-12,28.75,5.75-21.87,18-34.37,22.87-40.12 a 37.2,37.2,0,0,0,6.24-10.15q1.6.57,3.24,1.09 c -2.73,6.91-8.26,14.21-16.85,30.06 a 82.63,82.63,0,0,0-9.25,33.63 c 3.63-25.37,13.5-38.5,19.12-47.87 a 129.68,129.68,0,0,0,8-15.49 A 112.92,112.92,0,0,0,295,328 c -3.27,3.23-7.8,14.56-9.9,22.29-2.37,8.75-6,28.13-7.75,38 s -5,22-5,22,4.13-10,7.13-26.37 S 287,342,295.64,329.75 c 4.5,11,3.13,24.75,3.25,32.88 S 300,397.75,308.26,408 c -4.75-8.87-6.75-21.12-7.37-34.25-.6-12.58,1.32-37-3.91-45.6 a 109.74,109.74,0,0,0,12.91.47,71.21,71.21,0,0,0,11.86-1.3,83,83,0,0,1,9.64,24.55 c 3.13,14.63,4.5,23.88,7.13,28.25-1.87-6.62-4-18.87-5.12-25.87-1.06-6.59-6.88-23.59-10.17-27.23 l .31-.07 c 5.33,2.91,11.66,10.5,14.85,18.54,3.38,8.5,8.13,22.13,10.38,28.5 s 8.5,18.38,16.5,23.38 c -5.12-4.12-10.62-12.12-14.87-22.5 s -8-24.87-12-33 c -3.79-7.69-8-12-13.13-15.33 a 58.15,58.15,0,0,0,9.29-3.09 c 11.4,8.92,20.95,29,24.67,37.75,3.83,9,17,29.33,29.83,34.17 C 383.67,415.05,365.56,425.23,360.22,427.85Z"/>
    <path d="M 293.18,297.21 c -6.5-.87-16.12-6.12-21-17.5 C 271.62,278.4,276.3,298.09,293.18,297.21Z"/>
  </g>
<script type="text/ecmascript" xlink:href="param.min.js"/> 
</svg>
