<?xml version="1.0"?>
<svg xmlns="http://www.w3.org/2000/svg" xmlns:xlink="http://www.w3.org/1999/xlink" viewBox="0 0 600 600">
  <title>curvy-top-template</title>
  <g id="main-colour">
    <path d="M 254.23,257.38 s 34.65-13.87,63.78-.5 c 3.5-3.87,10.15-8.12,20.25-10.12,7.38,4.88,15.25,15,13.25,24.63 a 22.55,22.55,0,0,1-12.5,16 c -6.37,14-7,28.38-1.78,37.25 s 10.43,12.25,24.53,30.75,28.47,44.75,32.72,56.25 S 405,440.75,405,440.75 s -4,12.25-20.87,13.5 c .13-1.5-8.5-3.87-14.37-3.12 s -14.75,6.25-19.5,12.25 c -.12,1.13-.25,2.63-.25,2.63 s -17.12,17.13-38.75,4.88 c -.5-1.75-6.25-7.25-13.37-7.75 s -15.12,4.75-15.12,4.75 l .38,2.25 s -18.37,11.5-33.25-1.25 c -2.75-9.37-10.12-20.37-26-13.75 a 4,4,0,0,1-.25,1.63 s -12,4.63-18-4.87 a 30.78,30.78,0,0,0,.38-5.62 s -7.75-8.5-15-5.37 c 2-12,9.75-35.5,25.63-59.87 s 36.88-45.25,43-53.75,9.5-12.87,7.5-22.12-5.5-13.75-7.75-17.87 S 253.61,270.13,254.23,257.38Z" fill="param(main_colour)"/>
  </g>
  <g id="outline">
    <path d="M 378.55,377.71 c -11-17.83-28.33-38.33-35.33-46.33 s -9.71-15.37-8.33-26.12 A 54.92,54.92,0,0,1,340.06,288 a 11.55,11.55,0,0,0,1.66-.81 c 5.8-3.41,11.42-10.49,11.1-19.33-.33-9.25-5.1-15-11.68-19.5 a 38.38,38.38,0,0,1-3.12-2.4 l -1.37.39 h 0 c -3,.91-14.7,4.64-19.14,9.41-20.87-9-40.94-4.94-47.44-3.94 s -16.87,4.81-16.87,4.81 c -.87,24.25,7.19,34.25,10.44,40.63 s 3.75,12.88,2.25,17.88-9.33,15.08-16.83,23.25-26.5,29.17-34.83,43.5 S 192.39,419.21,189.55,442 c 9.59-1.56,13.84,3,15.25,5.15-.21,2-.33,3.7-.42,5,5,8.83,14.83,7.5,20.17,5.17.05-.59.13-1.2.2-1.8,3.75-1.47,17.32-5.41,23.46,11.35 a 29.86,29.86,0,0,0,.34,3.12 s 19.33,14.67,36,.67 c -.09-.82-.19-1.67-.28-2.54,3.36-2.09,15.7-8.54,25.5,1.84-.14,1.1-.22,1.71-.22,1.71 s 20,13.5,41.83-4.5q.07-1.95.11-3.92 c 3.16-3.79,14.92-15.89,31.33-9.38q.12.82.23,1.63 c 10.33,1.33,21.33-8,23.17-14.5 A 243,243,0,0,0,378.55,377.71Z M 264.14,293.54 a 87.52,87.52,0,0,1-5.58-11.92 A 66.27,66.27,0,0,1,255.39,258 c 31.19-10.81,52.87-4,62.87-.12,3.54-4.65,16.76-9.19,19.76-10.18,1.49,1.43,2.94,2.72,4.2,3.73 a 21.61,21.61,0,0,1,8.08,14.67 c .92,6.67-3,13.92-7.11,17.33 a 21.72,21.72,0,0,1-4.82,3 l -.84,2.29 a 57,57,0,0,0-4.89,18.5,33.36,33.36,0,0,0,1.08,12.06 c -21.6,20.4-63.33-.23-66.83-2 A 22.14,22.14,0,0,0,268,314 C 269.89,306.29,266.14,297.21,264.14,293.54Z M 385.05,452.88 c -3.17-22.67-16.67-60.17-28.33-77,0,0,19.55,37.55,25.71,75.51-3.56-1.42-18-5.87-30.9,9.19.29-35.2-6.83-75.33-15-95.71,4.17,16.5,13.83,63.83,12.33,100.5-4.33,5.5-20.83,13.33-36.67,4.83 a 457.64,457.64,0,0,0,6-70.67 c .17-17.33-2.83-44.67-6.17-52.17,0,0,5.67,34,3.5,64.83-1.65,23.41-4.25,45.56-5.41,54.87-2.79-2.35-12.23-8.67-26.1-1.22-2.55-25.82-3.88-68.81,8-104.32-9.83,21.33-12.5,54.83-12.67,71.67 s 2.5,36.33,2.5,36.33-13.33,9.83-30.67-1.5 c -.5-24.5,4.83-52.5,10.33-71.83 s 18.33-52.5,18.33-52.5 S 260.72,382.54,253.22,419 c -4.42,21.51-5.25,35.37-5.19,43.13-2.4-4.73-9.06-13.82-23.09-8.41,3-25.5,14-57.78,29.94-83.55-13.33,15.83-30,55.17-32.5,85.33-5.83,3.5-15-1.67-15.83-4,2.33-16,6.5-37,18.33-58 s 28-44,28-44 S 230.22,377,218.22,402 c -8.64,18-11.75,32.38-13,41.69-2.45-3.15-7.65-5.67-12.5-4.53,4.67-23.5,20.67-51.46,29.17-64.21 s 29.58-35.62,33.08-40.21 c 2.78-3.64,8.13-9.7,11.17-15.92,45,22.4,64.34,6.38,68.24,2.36 a 26.36,26.36,0,0,0,4.26,7.15 c 3.88,4.75,22.38,27,27.75,35.25 s 27,38.92,36.67,76.92 C 400.72,448.21,390.89,452.88,385.05,452.88Z"/>
    <path d="M 293,295.38 c -6.5-.87-16.12-6.12-21-17.5 C 271.45,276.57,276.14,296.25,293,295.38Z"/>
  </g>
<script type="text/ecmascript" xlink:href="param.min.js"/> 
</svg>
