<?xml version="1.0"?>
<svg xmlns="http://www.w3.org/2000/svg" xmlns:xlink="http://www.w3.org/1999/xlink" viewBox="0 0 600 600">
  <title>midi-crew-neck-baggy-t-shirt-slender</title>
  <g id="main-colour">
    <path d="M 271.26,250.29 c -1.25,5.92,1.32,21.18,2.47,27.83,1.63,9.38,4.66,20.41,6.5,28.91,3.38,15.59.78,18.59-6.39,31-7,12.12-9,16.95-11.41,26.55,2.8-1.57,8.23-3.48,16.79-2,13.38,2.38,24.5,7.25,36.5,5.25,8.9-1.48,13.33-5,16.25-9.47-.15-.46-.29-.92-.47-1.37,0,0,.6.35.6.34.08-1.37-.43-4.08-4.43-12 s -4.57-12.7-4.73-21.12,1.82-20.63,3.91-27.88,6.59-18.59,7.33-30.33 c .59-9.21-1.19-15.76-3.59-20.81 a 11.19,11.19,0,0,0-14.31-16.6,3.12,3.12,0,0,0-1.56-.2 l -.14-.05 c 1,2.93,2.2,7.11,1.9,10.13-.5,5.13-11.87,10.5-22.12,3.38 a 26.57,26.57,0,0,1-10.29-13.63,14.27,14.27,0,0,1-2.16.69 c -7.45-6.36-19.55-1.14-20,7.95 S 267.93,249.21,271.26,250.29Z" fill="param(main_colour)"/>
  </g>
  <g id="outline">
    <path d="M 324.47,318.79 c 1-11.72,5.23-25.16,8.13-37.27 h 0 c 1.17-4.5,3.7-13.45,2-24 a 41.31,41.31,0,0,0-6.73-17.23 c 10.06,20.31,1.89,43,1.89,43 h 0 c -5.92,20.79-10.18,35.49-7.32,50.47,2,9.07,6.82,15.19,9.27,23.39-7.31,12.36-25.88,11.71-44.23,6.11-12.58-3.84-20.09-2.29-23.41-1 a 72.92,72.92,0,0,1,5-12.91 c 2.09-4.08,7.37-12.46,11.17-20.32 a 58.55,58.55,0,0,1-3.9,16.94 c 3.67-5.67,5.5-14.63,6.19-22.39 a 45.57,45.57,0,0,0,0-7.91v-.05 h 0 a 114.66,114.66,0,0,0-2.94-16 c -.82-3.57-1.85-7.53-2.94-11.57 l 0,.08 a 154.45,154.45,0,0,1-3.2-19,89.07,89.07,0,0,1-1.05-17.53 h 0 c 0-.22,0-.58,0-.95v-.2 h 0 c 0-.46,0-.86,0-.86 h 0 a 11.2,11.2,0,1,1,7.7-20.44 h 0 l 1.56.85 c .44-.09.89-.14,1.29-.21 h 0 l .15,0,.18,0 c 1.64,3.81,8.13,16.54,21.72,16.54 a 23.47,23.47,0,0,0,3.84-.32 c 3.84-.64,6.44-2.3,7.73-4.94,2.05-4.2.1-9.62-.95-12,.61-.3.95-.51.95-.51 l .54-.24 a 11.26,11.26,0,0,1,8.35-.33 c -2.58-2.5-7-2.5-8.89-1.64 a 18.37,18.37,0,0,0-3.58,2 c .26.42.46.8.6,1.08.82,1.74,3,7,1.18,10.72-1,2-3.1,3.32-6.26,3.84-7.13,1.18-13.28-1.11-18.28-6.81 a 31.63,31.63,0,0,1-5.14-8.26 l -.21-.51-.14-.38 h 0 c -.12-.3-.25-.64-.38-1 a 11.66,11.66,0,0,1-2.67.84,13.37,13.37,0,0,0-7.75-2.54 A 13.19,13.19,0,0,0,269.92,251 a 111.16,111.16,0,0,0,1.33,17.67 c .32,5.92,5.47,27.76,7.92,40 a 71.37,71.37,0,0,1,1.36,13.86 c -3.71,9.73-10.89,19.91-14.6,27.9 A 60.31,60.31,0,0,0,261,366.77 c .65-.5,1.23-.89,1.65-1.16v0 a 5,5,0,0,1,.46-.31 l .14-.08,0,0 h 0 c 2-1.17,8.86-4.12,22.7-.37,7.95,2.15,16.44,4.29,24.39,4.29,8.71,0,17.86-3,22.76-11.36 A 47,47,0,0,0,329,345.63 C 326,339.5,323.16,333.7,324.47,318.79Z"/>
    <path d="M 314.16,358.18 c .14-9.91,3.69-23.81,3.69-23.81 A 52,52,0,0,0,314.16,358.18Z"/>
    <path d="M 267.11,359.63 s 6.25-3,19,1.13,23.13,5.13,27.5,4.38 a 89.8,89.8,0,0,1-17.5-2.18 C 289.61,361.45,273.86,354.75,267.11,359.63Z"/>
  </g>
<script type="text/ecmascript" xlink:href="param.min.js"/> 
</svg>
