<?xml version="1.0"?>
<svg xmlns="http://www.w3.org/2000/svg" xmlns:xlink="http://www.w3.org/1999/xlink" viewBox="0 0 150 150">
  <title>basic-flip-flops</title>
  <g id="skin-tone">
    <path d="M 74.1,69.45 c 3.39-.69,7,2.51,6.52,5.93 s -1.41,5.33-1,8.82,2.48,10.48,1.86,14.28 c 1.62,3,2.6,7.39-1.36,9.22-2,1.87-5.31,2.93-7.64.94-2.25.85-3.47.72-4.39-.23-1.65.46-3.27.17-3.47-.94-1.2.19-3.45-.23-3.44-1.69-1.64-1.39-2.29-2.62-1.07-4.45 a 14.52,14.52,0,0,1,3.7-3.4 s 2.48-5.58,4.1-9.31,3.15-7.42,2-10.26 S 68.85,70.52,74.1,69.45Z" fill="param(skin_tone)"/>
  </g>
  <g id="main-colour">
    <path d="M 67.94,95.36 a 11.34,11.34,0,0,0-2.69.81,2.49,2.49,0,0,1,2.16-2.59 c 1.59-.31,6-.12,8.16,3.22,1.34-1.56,3-2.41,4.16-2.22 s 1.63,1.16.94,2 a 4.08,4.08,0,0,0-5,2.25 C 73.82,96.8,71.44,94.89,67.94,95.36Z" fill="param(main_colour)"/>
    <path d="M 59.22,103.36 c -.46.42-.83.75-.92,2.29 a 35.23,35.23,0,0,0,.42,4.88 s 4.73,4.38,13.63,4.08,11-3.37,11-3.37,1.13-4.08,1-5.46 a 7,7,0,0,0-1.17-2.83 s .17,4.67-3.37,5 c -.75,1.58-4.42,2.46-7.54.83-1.75,1.08-4,.83-4.75-.37 a 2.25,2.25,0,0,1-3.17-1 c -1,.29-3,.42-3.46-1.79 C 60.89,105.65,59.35,104.11,59.22,103.36Z" fill="param(main_colour)"/>
  </g>
  <g id="fixed-colours">
    <path d="M 72.36,104.87 a 4.67,4.67,0,0,1,1.38-2.13 c 1.81-.39,3.68-.3,4,.65 s -.57,1.3-1.41,1.14 A 8.14,8.14,0,0,0,72.36,104.87Z" fill="#fff"/>
    <path d="M 69,103.79 a 4.28,4.28,0,0,1,2-.11 c .84.23,1,1,.6,1.31 s -1.86.15-2.23.12 a 7.37,7.37,0,0,0-1.07.06Z" fill="#fff"/>
    <path d="M 65.62,103.76 a 5.56,5.56,0,0,1,1.75-.09 c .61.14.87.81.61,1.07 s -.8.19-1.31.12 L 65,104.64Z" fill="#fff"/>
    <path d="M 62.95,103 a 3.41,3.41,0,0,1,1.31.25 c .6.27.74.83.36,1.05 s -.72-.09-1.12-.24 a 8.15,8.15,0,0,0-1.24-.24Z" fill="#fff"/>
    <path d="M 60.5,101.44 a 3.68,3.68,0,0,1,1.5.12 c .37.23.65.87.27,1 a 1.11,1.11,0,0,1-1-.14 c -.33-.16-1-.39-1-.39Z" fill="#fff"/>
  </g>
  <g id="outline">
    <path d="M 84.64,106.74 l .08-.44 h 0 a 8.82,8.82,0,0,0-1-4.21,6.71,6.71,0,0,0-1.42-4.18,27.69,27.69,0,0,0-.19-6.09 c -.72-4.84-2-7.39-1.78-10.53 s 1.33-3.67,1.46-5.83 a 6.76,6.76,0,0,0-6.28-7.18 h 0 a 6.7,6.7,0,0,0-7.1,7.84v.11 c 0,.1,0,.2.06.31.26,1.24,1.07,2.63,1.25,4.17.36,3-1.65,6.16-3.3,9.26-1.43,2.69-3.54,7.18-4.08,8.33-1.48,1-2.78,1.91-3.21,2.88 a 4.22,4.22,0,0,0-.41,2.06,3.5,3.5,0,0,0-1,2.39 h 0 l .63,5 s 3.5,4.56,14.37,4.56 c 8.63,0,11.13-3.62,11.13-3.62 l .78-4.39 C 84.6,107,84.63,106.88,84.64,106.74Z m -4.59.19 a 3.86,3.86,0,0,0-.73-4.29,4.55,4.55,0,0,1,.1,4.38 c -1.3,1.75-4.11,1.87-6,1.32 a 3.77,3.77,0,0,1-.73-3.36,7,7,0,0,1,3.28-.21 c 1.62.38,2.18-.4,2.12-1 s -.39-2-3.85-1.29 a 4.66,4.66,0,0,0,1.44-3.26,4.83,4.83,0,0,1,2.82-2.49,3.72,3.72,0,0,0,.84,1.3 c .91,1,2,1.57,2.54,3 C 82.46,103.6,81.63,106.42,80.05,106.93Z m -7.22-2.44 a 5,5,0,0,1,1-1.55,11.89,11.89,0,0,1,2.81-.14 c 1.08.18,1.09,1,.73,1.28 s -.64.33-1.76.15 A 9.12,9.12,0,0,0,72.83,104.49Z m -7.19-8.84 s -.14-1,1.21-1.62 c 1.13-.54,7.08-.29,8.71,3.29,1.7-2.52,3.66-2.71,4.57-2.21,1.09.6.47,1.17.47,1.17 s -3-1.29-5,2.25 C 74.18,96.15,70.35,93.94,65.64,95.65Z m 14.7,2.54 a 6.3,6.3,0,0,1-1.51-1.55,3.68,3.68,0,0,1,1.53.13 C 80.38,97.28,80.38,97.77,80.34,98.2Z m -9.17-14.5 A 19,19,0,0,0,71,79 c -.23-1.12-.59-2.22-.72-3.23,0-.15,0-.31,0-.46v-.12 a 4.67,4.67,0,0,1,0-.5,4.75,4.75,0,0,1,5.05-4.42 h 0 a 4.87,4.87,0,0,1,4.42,5.05,11.5,11.5,0,0,1-.86,3.61,10.21,10.21,0,0,0-.45,3.31,26,26,0,0,0,.5,4.53,68.67,68.67,0,0,1,1.27,7.55 c -1-.33-2.76-.24-4.57,2-2.22-3-6.86-3.55-8.86-2.82.61-1.16,1.3-2.47,2-3.68 A 24.82,24.82,0,0,0,71.17,83.69Z M 60.67,101.52 a 1.7,1.7,0,0,1,1.44.43 c .35.43-.12.71-.41.55 a 4.93,4.93,0,0,0-1.24-.58 A 2.63,2.63,0,0,1,60.67,101.52Z m -.34.91 a 1.61,1.61,0,0,1,.05-.23,1.83,1.83,0,0,1,.82.4 c .45.41,1.3.47,1.42-.18 s -.47-1.28-1.73-1.23 A 33.56,33.56,0,0,1,64.47,98 a 17.14,17.14,0,0,0,1.79-1.87 c 2-.67,5.92-1.16,9.25,3.17-.49,1.51-1.68,2.49-3,4 a 5.83,5.83,0,0,0-.6.88 c -.24-.61-1.36-.9-2.27-.65.34-.39.67-.7.87-.92.81-.87,1.44-2,1-2.8.1,1-.9,1.72-2.79,3.78 a 6.14,6.14,0,0,0-.54.69.67.67,0,0,0-.07-.19,2,2,0,0,0-2-.58 c .85-1,1.88-2.06,1.82-3.54 a 6.91,6.91,0,0,1-1.73,2.72 A 11.53,11.53,0,0,0,65,104.15 a .65.65,0,0,0,0-.53,1.85,1.85,0,0,0-1.63-.82,10.26,10.26,0,0,0,.86-.81,4.26,4.26,0,0,0,1.14-2.63 c -.5,1.75-3.1,3.25-3.77,4.6 a 2,2,0,0,0-.2,1 C 60.28,104.64,60.24,103.79,60.34,102.43Z m 10.2,3 a 1.56,1.56,0,0,0,1,0,3.2,3.2,0,0,0,.45,2.22,3.36,3.36,0,0,1-2.77.65,3.19,3.19,0,0,1-.63-2.76 A 4.17,4.17,0,0,1,70.54,105.43Z M 68.71,105 a 5,5,0,0,1,.61-1,3.77,3.77,0,0,1,1.53-.12 c .81.16,1,1,.34,1.08 A 12.34,12.34,0,0,0,68.71,105Z m -1.13,2.38 a 2.17,2.17,0,0,1-2.13.09,3,3,0,0,1-.22-2.38 c 0-.06.05-.11.07-.17 a 3.58,3.58,0,0,1,1.54.17,1.32,1.32,0,0,0,1,0 A 3.36,3.36,0,0,0,67.58,107.4Z m .17-2.7 c -.34.27-1.44-.2-2.29-.14 a 5.2,5.2,0,0,1,.43-.69,3.23,3.23,0,0,1,1.2,0 C 67.73,104,68.15,104.38,67.75,104.69Z m -3.36,1.94 a 2.45,2.45,0,0,1-1.6,0 c -1-1.11-1-1.93-.55-2.62 a 1.93,1.93,0,0,1,1.49.36.81.81,0,0,0,1.14,0 A 2.76,2.76,0,0,0,64.39,106.63Z m -1.88-3 a 6.09,6.09,0,0,1,.53-.55,3.19,3.19,0,0,1,1.34.42 c .59.42.11.83-.18.67 A 3.2,3.2,0,0,0,62.5,103.63Z M 60.37,106 c .49,2.18,2.71,2.38,3.86,2.32.69,1.23,2.39,1.12,3.27.86 a 3.84,3.84,0,0,0,4.5.26 c 3,1.85,7.24.9,8.27-.81,1-.07,2.79-1.36,3.27-4.43,0,0,0-.1,0-.14 A 4.57,4.57,0,0,1,82,109.42 c -3.69,3.13-12.81,3.44-18.87.81-5.16-2.23-4.48-5.18-4.16-6 A 5,5,0,0,0,60.37,106Z m 10.73,8.07 c -3.9-.09-8.94-1.19-11.87-4.06-.07-.58-.13-1.11-.2-1.6,2.74,3,8.22,4.59,13.76,4.47,4.76-.1,8.44-1.19,10.42-3.3 l -.29,1.55 S 80.26,114.31,71.1,114.11Z"/>
  </g>
<script type="text/ecmascript" xlink:href="param.min.js"/> 
</svg>
