<?xml version="1.0"?>
<svg xmlns="http://www.w3.org/2000/svg" xmlns:xlink="http://www.w3.org/1999/xlink" viewBox="0 0 215 215">
  <title>nurse-hourglass</title>
  <g id="skin-tone">
    <g id="skin-tone-2" data-name="skin-tone">
      <path d="M 116.32,134.33 c -8.24-1.77-17-.85-20.88-.28.43,8.94,1.25,19.15,2.21,25.81,1.61,11.14,2.53,16.71,5.78,25.28,1.44,3.64,2.31,6.77,6,6.23 s 4.64-3.81,5.15-7.4,1.58-22.81,1.58-30.28 C 116.19,149.09,116.16,141.08,116.32,134.33Z" fill="param(skin_tone)"/>
    </g>
  </g>
  <g id="main-colour">
    <g id="main-colour-2" data-name="main-colour">
      <path d="M 106,133.32 a 91.75,91.75,0,0,1,10.63,1,35,35,0,0,0-.12,4.38 s 4.4-2.38,4.88-3.19 c -.62-4.37-2.59-22.09-2.35-23.42 a 3.23,3.23,0,0,0-.17-.43v-.5 c 1.23-3.71,1.41-7.91-1.84-11.66 a 13,13,0,0,0-17.5-1.75 c -3.63,2.86-5.75,8.38-3.8,12.09 C 95,112.28,90.41,131.65,89.4,135 c 1.06,1.19,5.94,3.5,5.94,3.5 l -.06-4.62Z" fill="param(main_colour)"/>
    </g>
  </g>
  <g id="fixed-colours">
    <path d="M 91.86,126.93 a 45.86,45.86,0,0,1,15.76-2,40.25,40.25,0,0,1,13.31,3.06 l .31,2.5 s -16.47-5.25-30-.44Z" fill="#fff"/>
  </g>
  <g id="outline">
    <path d="M 120,112.56 a 7.89,7.89,0,0,1,.51-1.83,12.24,12.24,0,0,0,1-4.75,14,14,0,0,0-28,1.48q0,.43,0,.85 a 13.53,13.53,0,0,0,.43,3.27 s -3.14,15.32-5.82,24 c .87,1.19,5.19,2.89,6.31,3.32.23,3,.52,6.22.91,9.69,2.69,24.16,4.85,32.3,8.16,39.62 a 6.49,6.49,0,0,0,.63,1.35 l .07.14 c .12.18.24.36.38.54 a 5.91,5.91,0,0,0,8.29,1,5.85,5.85,0,0,0,1.92-2.71,10.14,10.14,0,0,0,.23-1v-.15 c .23-1.19.41-2.6.48-3.29.29-3.08,1.71-30.73,2-45.31,1.39-.53,4.2-1.89,5.07-2.89 C 122,132.29,120.2,116.36,120,112.56Z M 92.22,127.28 A 42.09,42.09,0,0,1,120,128 l .2,1.76 c -3.6-1-16.85-4.25-28.53-.25 C 91.84,128.75,92,128,92.22,127.28Z m 3.53-17.68 a 15,15,0,0,1-.16-2.14v-1 a 2.57,2.57,0,0,1,.06-.68v-.16 a 12,12,0,0,1,23.77.23 c .14,2-.57,3.76-1.18,6,0,0,.84,8.13,1.61,15-3.09-1.11-15.19-4.87-27.38-.59,2-7.82,3.53-15.56,3.53-15.56 A 8.17,8.17,0,0,1,95.75,109.6Z m -5.1,25.89 h 0 c 1.14-.31,2.31-.57,3.5-.77q.07,1.15.15,2.35 A 34.66,34.66,0,0,1,90.65,135.49Z m 24.53,22.94 c -.24,4.33-.71,12.89-.92,17.4 h 0 c -.09,1.87-.19,4.16-.34,6.37 a 41.5,41.5,0,0,1-.87,5.32,3.87,3.87,0,0,1-1.37,2.2,3.78,3.78,0,0,1-4.88,0 s -.21-.2-.23-.19 c -1-.81-2.61-4.62-2.83-5.15 a 95,95,0,0,1-4.5-18.23 c -.89-6.75-2.18-21.15-2.88-31.7 a 75.58,75.58,0,0,1,19,.5 C 115.19,142.85,115.34,154.89,115.18,158.43Z m 2.43-21.21 c 0-.69,0-1.35,0-2 h 0 c 1.23.21,2.21.4,2.88.54 A 18.54,18.54,0,0,1,117.61,137.22Z m -27.37-2.83 c .37-1.2.74-2.49,1.1-3.81 a 53.68,53.68,0,0,1,28.94.09 c .19,1.59.36,3,.5,4 A 63.36,63.36,0,0,0,90.24,134.39Z"/>
  </g>
<script type="text/ecmascript" xlink:href="param.min.js"/> 
</svg>
