<?xml version="1.0"?>
<svg xmlns="http://www.w3.org/2000/svg" xmlns:xlink="http://www.w3.org/1999/xlink" viewBox="0 0 600 600">
  <title>basic-jeans-hourglass</title>
  <g id="skin-tone">
    <path d="M 333.12,249.41 l -.15.11-.62-1.55 a 11.64,11.64,0,0,0-11.8-19.68v-.38 c -10.71-2.26-13.38-13.35-14.21-20.26-2.16.19-4.35.31-6.56.31 s -4.42-.12-6.6-.31 a 26.62,26.62,0,0,1-3.55,11 c -3.25,5.75-8.25,8.42-14.42,10.25-5.33-2.17-11.92-4-16.83-1.17 s -7.33,8-6.42,14 S 257.88,251,263,252.18 c -.08,8.08,1.5,22.33,4.83,29.25 s 9.33,14.42,11.92,17.92,4.42,9.42,2.92,18.08 c -.68,3.92-3.19,8-6.13,11.66,2.12,1.86,6.49,4.93,14.89,8.31,12.67,5.1,24.62,3.89,33.33-.83-4.1-5.85-5.17-8.93-4.76-14.14 s 4.92-13.67,8.5-19.67 A 57.44,57.44,0,0,0,333.62,290 l -.39.11,1-6.84 s .89-5.48,1.43-14 c .42-6.66.49-8.53-.67-13.33 C 334.57,254.21,333.65,251.15,333.12,249.41Z" fill="param(skin_tone)"/>
  </g>
  <g id="main-colour">
    <path d="M 335.74,357.38 c -.49-7.77-10.86-20.7-10.86-20.7 s -6.5,3.72-17.16,3.89 c -15.5.5-31-11.17-31-11.17-4,4.67-12.17,10-18.41,19.32 s -5.59,22.44-5.59,22.44 h 0 s 0,.07,0,.1 a 25.5,25.5,0,0,0,45.14,16.26,25.51,25.51,0,0,0,37.88-30.14Z" fill="param(main_colour)"/>
    <path d="M 278.23,328.6 l 2.11.72 s 1.08-1,1.5.58 c 1.13.83,7.08,3.83,7.08,3.83 s .75-.46,1.42.58 c 1.88,1,7.67,2.83,7.67,2.83 s .79-.83,1.58.25 a 26.12,26.12,0,0,0,13.5.63,1,1,0,0,1,1.71-.29 c 2.92-.92,5.33-1.83,5.33-1.83 s .33-1.42,1.54-.67 a 6.58,6.58,0,0,0,.94-.45 l 3.11,4.11 s -1,.46-1.93,1 c 0,.67-.79,1-1.75.71 a 38.69,38.69,0,0,1-6.17,2.17,1,1,0,0,1-1.62.54,44.78,44.78,0,0,1-15.83-.58 c -.79.29-1.08.54-1.46-.25 a 51.64,51.64,0,0,1-8.92-3 c -1.21.38-1.62.13-1.71-.71-1.67-.79-6.17-3.58-7.42-4.42-.87.17-1.46.25-1.46-1 a 12.72,12.72,0,0,1-1.88-1.71Z" fill="param(main_colour)"/>
  </g>
  <g id="fixed-colours">
    <path d="M 311,350.45 s 3.32,13.7-.58,32.09 C 313.15,375.86,315.45,362,311,350.45Z" opacity="0.5"/>
  </g>
  <g id="outline">
    <path d="M 308.72,323.84 s -3.62,9.42-1.05,9.73 c 1.05,0,1.45-1.69.36-3.44 A 29,29,0,0,1,308.72,323.84Z"/>
    <path d="M 318.71,226.54 a 13.57,13.57,0,0,1-8.33-7.28,32.56,32.56,0,0,1-2.86-11.7 c -.75.08-1.51.13-2.26.18.29,3.66,1.23,10.58,4.2,14.44,3.1,4,5.87,5.24,7.09,5.6-.27.19-.54.39-.8.6 a 45.79,45.79,0,0,1-4.92,2.38 l 3.08-.58 a 33.59,33.59,0,0,0,4.13-1 c 2.86-1.07,5.16-3.73,11-2.15 C 327,225.63,323.79,224.31,318.71,226.54Z"/>
    <path d="M 332.89,284.91 a 46.12,46.12,0,0,1-5.68,18.35 c -4.42,7.33-7.08,13.75-8,18.75 s 1.33,10.15,3.67,13.17 c 4.25,5.5,11.33,16.08,13.75,21.92,0,0-.75-5.5-6.92-14.67 s -9.83-13-8.92-20.08 c .77-5.92,5.19-13.63,8.09-18.78 h 0 c 4-6.29,6.26-15.15,6.64-20.91Z"/>
    <path d="M 310.58,384.27 s -6.4,3.29-12.73,3.26 a 2.72,2.72,0,0,0-.52,2 S 305.35,388.76,310.58,384.27Z"/>
    <path d="M 297.86,387.49 a 25.48,25.48,0,0,1-45.15-16.23,25.7,25.7,0,0,1,.21-3.25 h 0 s -.44-4.85,2.92-12.72 a 42.13,42.13,0,0,1,7.45-11 c 3.5-3.75,14.83-13.75,18.33-20.75 s 4.25-17,0-23.33-7.83-9.08-12.75-19.17 c -4.23-8.68-4.67-23.75-4.71-27.77,0-.41,0-1.11-.1-2 a 12,12,0,0,1,.54-24,7.81,7.81,0,0,1,2,.18,12,12,0,0,1,1.62.38,68.27,68.27,0,0,1,7.12,2.48,71.52,71.52,0,0,0,8.34,2.35,45.44,45.44,0,0,0,15.17.32 c -7.64.23-15.54-1.92-20.85-3.88 a 21.35,21.35,0,0,0,11.69-8.45,27.22,27.22,0,0,0,4.47-12.86 c -.71-.05-1.42-.1-2.12-.17 a 23.65,23.65,0,0,1-5.85,14.28,19.43,19.43,0,0,1-11.63,5.88,47.82,47.82,0,0,0-5.16-1.64 A 14,14,0,1,0,262.13,253 c 0,.18-.55,6.82,1.83,18.9,2.42,12.25,8.83,20,14.25,26.83 s 5.17,17.5.67,25.58-17.5,15.75-23.42,27.83 a 41.22,41.22,0,0,0-4.07,13,27.48,27.48,0,0,0,48.18,23.32 C 299,388.22,298.44,387.85,297.86,387.49Z"/>
    <path d="M 281.36,329.15 c .48.33.54,1.17.54,1.7,1.76,1,4,2.2,6.53,3.37 a 2.14,2.14,0,0,1,.87-.5 c .4,0,.91.34,1.16,1.4 a 61.18,61.18,0,0,0,7.31,2.59 c .2-.37.66-1.1,1.13-.91 s .81,1,.95,1.44 a 36.35,36.35,0,0,0,7.45,1,30.13,30.13,0,0,0,5.59-.56 c .08-.36.29-1,.8-1.11 a 1.09,1.09,0,0,1,1.29.65,39.51,39.51,0,0,0,5-1.63,1.57,1.57,0,0,1,.53-1.27 c .46-.4,1.06,0,1.45.4 a 16.06,16.06,0,0,0,1.45-.78 c -.25-.33-.62-.94-.62-.94 s -7.6,4-15.69,4-20.62-5.27-28.62-10.69 c -.33.42-.71,1-.71,1 s .76.53,2.1,1.34 C 280.31,329.33,281,328.89,281.36,329.15Z"/>
    <path d="M 325.57,338.19 l -1.8.9v0 c .1.81,0,1.63-.54,1.56 a 2.57,2.57,0,0,1-1.57-.62,37.74,37.74,0,0,1-5.89,2.08 c -.06.5-.23,1.34-.67,1.37 s -1.11-.5-1.46-.9 a 32.59,32.59,0,0,1-7,.57,45.28,45.28,0,0,1-7.77-.88,1.56,1.56,0,0,1-1.35.61 c -.47-.06-.65-.61-.72-1.07 a 52.22,52.22,0,0,1-8.17-2.76,2.43,2.43,0,0,1-1.07.58,1.29,1.29,0,0,1-1.1-1.57,56.07,56.07,0,0,1-6.9-3.95,2.82,2.82,0,0,1-.78.33 c -.81,0-1.38-.5-1.07-1.64 a 18.17,18.17,0,0,1-2-1.65 s -.81.19-.81.81 a 50.72,50.72,0,0,0,31.63,12.31,35.13,35.13,0,0,0,19.75-5.19Z"/>
    <path d="M 280.89,338.32 a 11,11,0,0,1-13.17,4.5 A 8.25,8.25,0,0,0,280.89,338.32Z"/>
    <path d="M 306.76,338.57 s 0,3-.25,5.25 l .88.13 a 29,29,0,0,0,.25-5.37 A 1.86,1.86,0,0,1,306.76,338.57Z"/>
    <path d="M 299.93,338.47 s -.42-3.27-1.79-1.9-2.25,5.88-1.25,6.63,2-.23,2.27-1.23 c -.75.63-2.33,1.29-1.83-1.58 S 298.82,336,299.93,338.47Z"/>
    <path d="M 299.2,338.32 a 4.93,4.93,0,0,0-.69,3.56 A 19.56,19.56,0,0,1,299.2,338.32Z"/>
    <path d="M 313.51,342.45 s 1.67,2.85,2.39,1-.23-6.29-1.45-6.58-1.77,1-1.61,2 c .44-.87,1.64-2.1,2.31.74 S 315.5,344.3,313.51,342.45Z"/>
    <path d="M 314.24,342.3 a 4.93,4.93,0,0,0-.76-3.55 A 19.56,19.56,0,0,1,314.24,342.3Z"/>
    <path d="M 321.64,340.06 s 2.37,2.29,2.58.36-1.93-6-3.18-5.95-1.43,1.44-1,2.38 c .19-1,1-2.47,2.42.09 S 324.05,341.3,321.64,340.06Z"/>
    <path d="M 322.3,339.71 a 4.93,4.93,0,0,0-1.7-3.21 A 19.56,19.56,0,0,1,322.3,339.71Z"/>
    <path d="M 290.53,335.4 s -.07-3-1.71-1.93-3.44,5.27-2.62,6.21,2.1.39,2.64-.82 c -1,.73-2.71.87-1.62-1.84 S 289.68,333,290.53,335.4Z"/>
    <path d="M 289.49,335.41 a 4.93,4.93,0,0,0-1.42,3.34 A 19.56,19.56,0,0,1,289.49,335.41Z"/>
    <path d="M 281.91,331.13 s .53-3.24-1.16-2.56-4.23,4.66-3.57,5.72,2,.71,2.74-.39 c -1.1.56-2.82.43-1.31-2.07 S 281.72,328.47,281.91,331.13Z"/>
    <path d="M 281.1,330.59 a 4.93,4.93,0,0,0-1.94,3.07 A 19.56,19.56,0,0,1,281.1,330.59Z"/>
    <path d="M 325.8,236.43 a 47.63,47.63,0,0,1,7.43,11.47 c 3.6,7.51,4.75,19,2.3,34.76-1,3-2.62,2.25-2.62,2.25 s 3.2-17,0-31.88 C 330.45,242,325.8,236.43,325.8,236.43Z"/>
  </g>
<script type="text/ecmascript" xlink:href="param.min.js"/> 
</svg>
