<?xml version="1.0"?>
<svg xmlns="http://www.w3.org/2000/svg" xmlns:xlink="http://www.w3.org/1999/xlink" viewBox="0 0 600 600">
  <title>voluptuous-top-template</title>
  <g id="main-colour">
    <path d="M 247.45,279.75 s 7.5-5.87,13.88-6.87 c 0,0,6-12.62,18-17.12 s 21.28-4.12,31.28,3.38 c 7.5-8.5,24-11.87,35-3.87,3.63,6.38,3.28,17,0,22.25 s -6.53,17.75-3.66,23.75,11,13.88,17.5,23.13 a 72.79,72.79,0,0,1,11.63,27.5 c 1.88,8.88,6.25,28.25,11.25,32.38 s 9.63,3,9.63,3 a 58.37,58.37,0,0,1-18.37,26,6.61,6.61,0,0,0,3.13,1.5 S 366,430,338.58,439.38 A 19.27,19.27,0,0,0,340,441 s -13.25,11.63-51.87,10-55.5-19.5-59.25-22.37 a 20.42,20.42,0,0,0,4.13-4.25 s -21.75-9.87-29.5-27.62 c 8.88-1.62,14.5-5.62,17.5-12.75 s 3.13-13.37,3.13-19,4.5-29.25,13-41.62,13.25-17.37,14.38-23 S 250,287.38,247.45,279.75Z" fill="param(main_colour)"/>
  </g>
  <g id="outline">
    <path d="M 393.85,385.5 c -5.87,1.38-10.37-.37-14.25-8.75 s -7.17-30.46-12.75-41.87-18.42-26-19.92-27.92-3.66-4.61-4.67-7.83 c -1.28-4.12,2.07-15.58,3.4-20 a 22,22,0,0,0,3.63-9.31 c .76-4.68-.75-10.87-3.31-15.69-20.37-12.25-35.75,3.63-35.75,3.63 S 301,248.5,285.18,252 a 36.15,36.15,0,0,0-24.67,19.5,55.85,55.85,0,0,0-14.25,7.5 s 1.58,4.92,2.58,8,2.63,5.13,1.88,12.88-9.12,11.38-17,26.88-10.62,29.13-11,39.13-.87,14.75-4.25,20.38-9.75,9.13-16.87,9.63 c 8.09,18.84,26.47,27.45,29.49,28.74 a 42.32,42.32,0,0,1-3.87,3.76 c 16.25,21,80,35.25,114.88,13-.46-.4-.89-.82-1.33-1.25,9.33-3.58,29.29-13,38.45-25.75-1.21-.43-2.38-.91-3.51-1.43 C 386.68,404.09,392.39,393.27,393.85,385.5Z m -20.7,26.18 A 56.6,56.6,0,0,1,354.47,395 c 2.88,5.88,11.88,16.63,20.63,20.63 A 99.76,99.76,0,0,1,338.74,438 c -8.61-9.61-13.45-23.85-15.89-34.53-.12,13,7.88,29,15,37.25-13.87,10.63-73.12,17.88-107.25-12,9.5-8.25,16.38-26.87,16.63-33.12,0,0-5,15.57-14.47,27.08-10.64-4.19-19.41-12.41-27.41-25,11.25-2.5,16-9.87,18.38-17.37 s .25-22.25,6.5-39 S 242,317.63,246.47,312 s 6.13-8.62,6.5-15.12-2.95-11.58-4.45-17.33 c 4.5-3.5,12.8-6.67,12.8-6.67 s 7.37-15.17,22.87-18.83 c 13.14-3.11,19.63.79,26.5,5.67,12.75-12.75,27.67-9,34.17-4.33,1,1.5,2.13,6.31,2.25,11.19 s -1.37,8-3.5,12.44 c -4,14.13-7.62,18.75,2.87,31.13,3.89,4.59,13.5,16.75,18.25,26.5 s 7.25,26.75,10.5,37,9.25,15.75,14.88,15.38 C 385.93,400.05,376.47,409,373.14,411.68Z"/>
    <path d="M 284.36,288.46 c 12,1.92,17.5-1.17,21.67-7.25 A 30.7,30.7,0,0,1,284.36,288.46Z"/>
  </g>
<script type="text/ecmascript" xlink:href="param.min.js"/> 
</svg>
