<?xml version="1.0"?>
<svg xmlns="http://www.w3.org/2000/svg" xmlns:xlink="http://www.w3.org/1999/xlink" viewBox="0 0 600 600">
  <title>city-classic-top-curvy</title>
  <g id="main-colour">
    <path d="M 349.61,354.13 c 0-2.48-3.58-11.08-6.25-16 s -5.42-8.6-7.62-14 c -3.08-7.54-2.16-17.82-1.08-23 s 2.75-9.08,5.08-15.67 a 71.7,71.7,0,0,0,2.16-7.24 c 4.32-6.77,3.25-13.59,1.44-18.31-.67-7.89-3.12-12.31-3.12-12.31 h 0 a 12.69,12.69,0,0,0-6.41-19.85 h 0 c -4-2.33-12.07,1.18-12.07,1.18 s -1.69-1.5-4.75-4.75 c -.23-.25-.37.63-.45,1.52-.67,8.12-1.62,15.36-6,24.58-15.25-4.58-25-19.61-28.45-26.79 a 19.23,19.23,0,0,1-6.52,6,54.44,54.44,0,0,0-11-3.12,13.69,13.69,0,0,0-13.87,6.13 c -4.62,8.75-.12,15.63,3.88,18.5-2.75,22.25,4.63,35.5,7.25,40.25 s 4.63,8.5,5.5,15.13 c 1.38,11.88-6.84,18.9-16.21,30.78-7,8.81-10.38,18.38-11.1,24.12 A 69,69,0,0,0,262.44,368 c 16.08,2.25,41.17-.67,54.17-20.17,5.64,7.94,21.69,10.64,33.08,11.68 C 349.65,357.1,349.61,354.13,349.61,354.13Z" fill="param(main_colour)"/>
  </g>
  <g id="accent-colour-1">
    <path d="M 280.43,225.82 l 1.63-1.62 s 10.25,19.63,28.81,26.19 c 5.88-15.37,5.94-26.44,5.94-26.44 s 2.25,1.81,3.88,6.69 a 100.07,100.07,0,0,1,4.63,32 c -.37,14.44-5.31,25.31-9.19,34-1.5-3.87-2.69-12.75-4.62-18.69 s -6.19-13.44-12.19-20.44-13.12-16.25-15.75-22.12 A 39.08,39.08,0,0,1,280.43,225.82Z" fill="param(accent_colour_1)"/>
  </g>
  <g id="accent-colour-2">
    <path d="M 266.23,317 s 7.38,4.75,19.13,5 c -1.75,7.88-7.75,17-16,17.25 s -12.87-6.37-12.87-8.87 a 95.93,95.93,0,0,0,7.74-9Z" fill="param(accent_colour_2)"/>
    <path d="M 334.36,320.13 a 47.64,47.64,0,0,0,4.5,10.13 c 2.63,4,4.13,6.25,4.13,6.25 s -3.87,2.5-7.37-2.12 S 331,322.5,331,322.5Z" fill="param(accent_colour_2)"/>
    <path d="M 279.87,226.38 l -2.17,1.42 a 135.19,135.19,0,0,0,2.08,23.92,62.06,62.06,0,0,0,19.08,7.67 l -3.42,9.25 a 34.9,34.9,0,0,1,12.08,12.17,99,99,0,0,1,7.63,14.63 s -1.54-12.29-4.71-20.87-14.83-20.83-17.92-24.75 S 281.29,233.63,279.87,226.38Z" fill="param(accent_colour_2)"/>
    <path d="M 319.45,226.71 a 94.12,94.12,0,0,1,5.75,29.67 c .33,16.17-3,26.92-8.46,39.38,6.38-7.21,15.46-20.87,17.54-35.21 a 57.19,57.19,0,0,0-5.92-7 s 4.5-4.83,5-8.42 C 328.87,235.63,319.45,226.71,319.45,226.71Z" fill="param(accent_colour_2)"/>
  </g>
  <g id="outline">
    <circle cx="317.89" cy="258.34" r="1"/>
    <circle cx="319.79" cy="266.13" r="1"/>
    <circle cx="320.47" cy="273.29" r="1"/>
    <circle cx="320.05" cy="281.38" r="1"/>
    <path d="M 350.71,358.4 h 0 c -.12-6-1.85-15-10.8-28.18-3.57-6.17-6.83-11.61-4.71-27.38.9-6.67,6-18.2,7.86-25 a 26.3,26.3,0,0,0,2.39-5.95,20.53,20.53,0,0,0-1.75-14.31 c -1.42-8.39-3.52-10-3.52-10 a 31.23,31.23,0,0,1,1.79,7.08q-.4-.55-.83-1.1 c -2.44-3-5.06-6.29-7.29-9.39 a 45.76,45.76,0,0,0-4.58-7.55 l 0-.07,0,.06 a 76.12,76.12,0,0,0-6.35-7.46,15.24,15.24,0,0,1,10.92-1.44 s -3-2.13-8.11-1.29 a 15.75,15.75,0,0,0-4.08,1.42 c -2.55-2.58-4.7-4.53-5.71-5.71.38,2.13,0,12.44-5.53,27.52-12.42-5.08-23.24-17-28.61-27.58 a 19.74,19.74,0,0,1-5.37,4.88 s 0,.24,0,.68 c -.42.38-.93.79-2.34.19-8.22-3.45-11.69-2.66-11.69-2.66 a 14.7,14.7,0,0,0-8.79,26.48,93.51,93.51,0,0,0,.74,20.13 c 1.75,12.27,5.5,17.39,9.13,24.39 s 4.91,20-2.62,28.16 c -15.58,16.86-20.15,26.76-21.54,36.39,0,.23-.07.47-.1.72,28.55,15.82,63,7.78,77.42-12.36,8.34,9.58,30.69,11,34.08,11.33 A 17.35,17.35,0,0,0,350.71,358.4Z m -9.23-22 c -1.26.31-3.63.26-5.93-3.18 a 22.55,22.55,0,0,1-2.69-5.68 l 2.41-1.32 a 42.7,42.7,0,0,0,4.24,7.17 C 340.23,334.42,340.87,335.42,341.48,336.39Z m -9.59-13.52 a 19.66,19.66,0,0,0,1.86-1.25,27.35,27.35,0,0,0,1,3.21 c -.62.42-1.53,1-2.23,1.38 A 19.9,19.9,0,0,1,331.89,322.88Z M 337.73,252 c 6.27,8.92,7,17.79,3,25.75 a 20.31,20.31,0,0,1-12.82,10.3 c 4.28.3,8.62-2,12-5.8-2.53,7.26-6.81,19.58-7.14,26.71 a 49.5,49.5,0,0,0,.52,10.71 c -.93.8-2.39,1.92-3.45,2,1.3,8.27,5.59,18.27,12.43,16 a 43.65,43.65,0,0,1,6.64,20.63 c -6.81-.29-24-2.87-31.52-10.3.21-3.42.86-15.42.44-26.7-.36-9.63-1-20-1.24-23.18,6.09-7.55,16.26-21.7,18.38-37.69 a 37.4,37.4,0,0,0-5.94-7.09 A 31.37,31.37,0,0,0,333.9,246 C 335,247.89,336.28,250,337.73,252Z m -36.92,8.41 a 72.49,72.49,0,0,1,5.39,7.45 c 5,8,6.26,16.48,8.25,25.56-4.27-11.45-9.09-19.35-17.91-25.23,1.46-3.88,2.73-6.9,3.06-8.06Z m 25.06-3.67 c .53-.49,1.42-1.35,2.47-2.52 a 81.1,81.1,0,0,1,5.17,6.51 c -1.21,9.9-7.62,21-14.76,31.93 A 79.77,79.77,0,0,0,325.87,256.76Z m -.1-1.82 c 0-.14,0-.27,0-.41-1.14-13.73-3.63-21.89-5.09-25.69,3.33,3.7,8.66,10.08,12,16.41 C 331.48,249,327.15,253.56,325.77,254.95Z m -1.06,3.43 c .79,15.07-5.12,29.53-7.66,35,1.13-6.7,3.87-28.35-4.91-41.79,2.5.84,9,3.16,12.49,5.47 C 324.65,257.5,324.68,257.93,324.7,258.38Z m -9.11,35 c -.73-4.71-2.75-15.72-6.78-23.44 a 52.52,52.52,0,0,0-4.31-6.64 c 2.85-3.66,5.65-9.82,6.41-11.56 C 313,255.27,320.32,269.77,315.59,293.38Z m 2-67.75.43.44 c 2.51,4.37,5.37,14.35,6.44,29.24 a 113,113,0,0,0-12.91-5.16 C 315.65,240.57,317.64,225.63,317.64,225.63Z m -35.75,0 c 6.64,11.35,18.63,22.22,28.23,25.31-1.72,3.46-5.48,9.84-6.38,11.35-4.87-6.41-11.12-13.25-14.29-17.83 a 57.79,57.79,0,0,1-8.39-18 A 9.39,9.39,0,0,0,281.89,225.63Z m -3.12,2.75,1-.82 c 1.86,9,8,16.75,11.94,22.15,2.35,3.19,4.92,5.81,7.7,9-5.07-1.27-9-2.85-18.86-7.7 A 124.75,124.75,0,0,1,278.76,228.38Z m 4.13,98.12 a 41.91,41.91,0,0,1-17.94-4.7,23.88,23.88,0,0,0,1.81-3.35,44.19,44.19,0,0,0,17.46,4.43 A 36.13,36.13,0,0,1,282.89,326.5Z m -20.74-1q1.08-1.23,2-2.54 c 6.68,3.77,15,4.89,18,5.18-4,8.15-10.26,11.41-15.59,10.09-6.36-1.57-8.52-5.67-9.13-7.22 C 259.15,328.91,260.79,327,262.15,325.47Z m 18.65,41.65 c -20.34,1.9-33.45-3.14-39.33-6.21 a 49.52,49.52,0,0,1,4.16-13.54,107.23,107.23,0,0,1,10.52-14.86,14,14,0,0,0,8.73,7.19 c 10.17,2.67,17.67-3.17,21.83-18.33-10.69-.42-17.31-3.72-19.24-4.81,1.36-4.11,1.57-8.92-.08-14.85-2.77-9.94-7.63-12.17-10.77-27.58 a 83.89,83.89,0,0,1-1.13-21.29v-.19 l 0-.24,0-.35 c 0-.28,0-.43,0-.43 h 0 l .08-.93 a 12.7,12.7,0,0,1,6.69-23.5 c .37,0,.76,0,1.15.06 l .63.06 h 0 c 4.45.54,10.34,2.69,11.38,2.91 a 1.39,1.39,0,0,0,.93-.13 A 142.5,142.5,0,0,0,279,252.38 a 84.42,84.42,0,0,0,18.79,7.33 c -.38,1-2.16,5.79-3.38,9.13,11.69,5.39,18.65,22.82,20.69,29.24.13,3.19.58,14.32,1.1,25.63 a 145.08,145.08,0,0,1-.93,24.86 C 310.14,354.54,301.55,365.19,280.8,367.13Z"/>
    <circle cx="320.34" cy="304.46" r="1.78" transform="translate(11.22 620.31) rotate(-89.16)"/>
    <circle cx="321.04" cy="316.71" r="1.78" transform="translate(-0.34 633.08) rotate(-89.16)"/>
    <circle cx="321.01" cy="329.38" r="1.78" transform="translate(-13.04 645.54) rotate(-89.16)"/>
    <circle cx="321.06" cy="341.28" r="1.78" transform="translate(-24.88 657.31) rotate(-89.16)"/>
    <path d="M 284.62,288.38 c 8.5,2,16.75-.12,20.25-6.12 C 294.25,289.75,284.62,288.38,284.62,288.38Z"/>
  </g>
<script type="text/ecmascript" xlink:href="param.min.js"/> 
</svg>
