<?xml version="1.0"?>
<svg xmlns="http://www.w3.org/2000/svg" xmlns:xlink="http://www.w3.org/1999/xlink" viewBox="0 0 600 600">
  <title>hourglass-top-template</title>
  <g id="main-colour">
    <path d="M 367.22,394 c -8.5-20.5-28.12-45.25-32.62-49.87 s -13-11.75-14.62-17.37,3-14.25,6.88-21.62 a 90.58,90.58,0,0,0,6-13.15 c 2.68-.32,7.86-1.31,11.26-4.35,4.75-4.25,9.42-10.33,9.75-18.75 S 351.68,255,348,251.79 a 83.1,83.1,0,0,0-7.75-5.83 c -4.58,2.33-8.83,6-12.58,12.67-40.5-15.92-64.58-5-64.58-5,0,4.25.24,16.88,4.37,27.38 s 12.13,15.75,14.85,23.33-.47,17.42-4.6,22.79 S 253.22,349,236,373.38 s -25,50.5-26.5,61.13 c 7.88-.5,12.25,6.25,12.25,6.25 a 12.36,12.36,0,0,0-.12,2.75 c 3.63,12.88,17.63,9.25,17.63,9.25 a 4.81,4.81,0,0,0,0-1.62 c 11.63-2.87,20.63,9.13,20.63,9.13 a 5.91,5.91,0,0,1,.38,2.25 c 18,14.5,33.38,3,33.38,3 s 0-.5-.12-1.75 c 12.88-7.62,22.25-.25,22.25-.25 a 9.79,9.79,0,0,0-.25,1.88 c 15.75,10.25,30-5.62,30-5.62 a 26.62,26.62,0,0,0,0-3.62 c 9-13,21.25-7.87,21.25-7.87 a 8.6,8.6,0,0,0,.38,1.88 c 6.75,3.13,11.88-.25,14.38-3.87 C 380.72,436.5,375.72,414.5,367.22,394Z" fill="param(main_colour)"/>
  </g>
  <g id="fixed-colours">
    <path d="M 217.35,436.38 s 8-32.17,29.17-57.33 c -12.83,19.83-22.33,51.5-24.17,61.83 A 19.63,19.63,0,0,0,217.35,436.38Z" opacity="0.15"/>
    <path d="M 255.52,387.71 s -12.33,44.33-8.67,63.17 a 26.89,26.89,0,0,0-7.63.25 S 243.35,414,255.52,387.71Z" opacity="0.15"/>
    <path d="M 252,453.55 s 3.23-.38,4.5-7 c 1.5-7.83,6.33-45.17,17.33-62.67-5.83,15-13.83,53-13.5,76.83 A 21.55,21.55,0,0,0,252,453.55Z" opacity="0.15"/>
    <path d="M 291,392.71 s 2.67,65.5,12.17,67.5 c -5,0-9.72,3.54-9.72,3.54 S 286.52,425.21,291,392.71Z" opacity="0.15"/>
    <path d="M 317.85,395.71 s -1.5,59.33-11.17,64 c 4,.33,9,3.79,9,3.79 S 320.85,428.88,317.85,395.71Z" opacity="0.15"/>
    <path d="M 338.35,397 a 241.64,241.64,0,0,1,9,32.33 c 3,15.83,4.5,19.33,6.83,19.17-3.33,1.83-7.77,6-8.72,7.58 C 344.85,439.55,341.68,405,338.35,397Z" opacity="0.15"/>
    <path d="M 353.85,398.88 s 8,36.67,7.5,42.5-3.5,6.17-3.5,6.17 a 14.31,14.31,0,0,1,9.2,1.38 C 364,431.55,356.68,405.55,353.85,398.88Z" opacity="0.15"/>
  </g>
  <g id="outline">
    <path d="M 364.57,385.29 c -4.92-8.92-19.17-31.75-26.58-39.08 s -16.5-15.42-17.25-21.33,5.75-16.42,9.75-23.92 a 52.81,52.81,0,0,0,3.55-8.27,18.49,18.49,0,0,0,4.67-1.09 c 4.38-1.62,14.89-7.68,16.27-20.81 s -3.92-19.66-12.48-24.44 c -.78-.44-1.61-.83-2.43-1.26-.53.28-1,.62-1.42.89 a 35.7,35.7,0,0,0-11.6,11.82 c -39.37-16.42-64.93-4.77-64.93-4.77-.27,2.31.11,10.27,1.75,19.32 s 7.94,19,12.27,24,5.58,7.83,6.08,15.33-4.08,14.92-8.75,19.42-25.25,20.83-41.58,47.17-21.67,45-23.17,57 c 7-.56,11.29,4.28,12.48,5.84-.33,1.6-.48,2.49-.48,2.49 s 3.33,14.17,19.5,10 c 0-.55.07-1.13.11-1.72,2.5-.54,11.34-1.51,19.21,9.28 a 16.89,16.89,0,0,0,.18,1.78 s 15.83,15.83,35.17,3.17 c -.1-.63-.19-1.27-.28-1.92 a 19.29,19.29,0,0,1,20.42-.18 c -.18,1.28-.3,1.93-.3,1.93 s 16,12.17,32.17-6 c 0-1.21-.07-2.5-.13-3.86,2.17-3,9-10.64,19.26-7,.08.65.15,1.27.2,1.84,6.17,3.67,14.17.33,16.67-4 C 381.9,426.88,369.49,394.21,364.57,385.29Z M 280.15,298 a 77.38,77.38,0,0,1-10.58-15.83 c -3.83-7.75-5.33-18.92-5.42-28,21.4-8.71,54.15,1.33,63.9,5.42,2.63-5.95,9.2-10.71,12.31-12.71,5.65,3.23,10.26,8.23,11.82,14.21 a 24.8,24.8,0,0,1-4.87,22.25 c -4,4.82-9.86,7.12-15.2,7.86 a 8.15,8.15,0,0,1-.3,1.49 c -1.47,4.93-4.47,10.46-6.27,13.77-2.37,4.38-6.62,12.5-6.37,18.25 a 8.65,8.65,0,0,0,.79,3 c -14.82,7.66-34.16-1.13-38.77-3.46 a 31.83,31.83,0,0,0,2.9-8.49 A 21.47,21.47,0,0,0,280.15,298Z m 88.08,151.33 c -2.67-20.17-16.33-61.5-22.5-70.83,7.74,16.41,17.63,51.78,20.07,68.75-2.8-1-12-3.11-19.13,6.76-1.53-28.3-10.07-83.79-20.78-98.68,6.5,15.83,16.17,49.5,19,103.5-3.17,5.33-16.5,13.67-28.17,6,3.67-20.33,2.83-45.17,2.83-57.67 s -3.93-44.07-8.5-55.33 c 0,0,6.83,31.83,6.83,63.83 A 364.14,364.14,0,0,1,315.31,462 a 19.19,19.19,0,0,0-20.92.55 c -3.89-27.19-6.43-63.8,2.35-98-6.83,17.17-11.83,51.17-3.83,100.33-5.33,4.67-20.67,6.5-31.5-2.83.83-25,7.17-69.67,25.5-111,0,0-13.67,24.67-21.5,62.5-5.16,24.91-6,38.4-5.94,44.71-2.39-2.77-9.84-10.22-19-8,1.83-20.61,11.47-60.7,27.09-84.37-18,21.17-28.67,70.33-29,86.17-6.33,2.33-14.5-2-15.83-8.5,2.17-11,9.67-36.33,17.83-51.67 s 23-39.17,23-39.17-18.67,24.83-29,47.5 a 201.15,201.15,0,0,0-13,39 c -1.59-2.59-6.54-5.76-11.21-5.29,8.67-39.33,32.42-68.5,41.33-78.75 s 19.67-18.33,23.84-23.37 a 64.65,64.65,0,0,0,4.72-6 c 23.59,12,37.35,5.23,40.35,3.41,2.9,5.23,9.51,11.52,14.88,17.08,7,7.25,16.71,20.79,26.54,38.79 s 15.83,42.33,18.67,61.33 C 377.74,450.54,372.24,451,368.24,449.38Z"/>
    <path d="M 305.3,295.86 c -16.74,3.57-25.91-7.11-25.91-7.11 C 287.65,301.58,301.08,298.2,305.3,295.86Z"/>
  </g>
<script type="text/ecmascript" xlink:href="param.min.js"/> 
</svg>
