<?xml version="1.0"?>
<svg xmlns="http://www.w3.org/2000/svg" xmlns:xlink="http://www.w3.org/1999/xlink" viewBox="0 0 150 150">
  <title>bare-feet</title>
  <g id="skin-tone">
    <path d="M 82.22,84.11 a 9.4,9.4,0,0,1-2.13-7.28 c .63-2.89-.35-6.44-3.29-7.07 s -6.16-.59-7.34,4.34,1,6.52-3.3,14.44-9.15,9.8-11,10.81-2.16,5.12-.43,6.2 a 3.22,3.22,0,0,0,3.1.36 s 1.08,2.63,4.25,1.44 c 1.22,1.15,2.23,2.09,4.25.79,1.95,1.3,3.75.72,4.11.14 A 2.75,2.75,0,0,0,74.74,106 c 1.73-1.22,3.17-2.69,3.28-5.08.18-3.72,1.05-4.69,3.5-5.55 S 87.14,89.94,82.22,84.11Z" fill="param(skin_tone)"/>
  </g>
  <g id="fixed-colours">
    <path d="M 57,103.42 a 2.32,2.32,0,0,0-.89-2.28,1.47,1.47,0,0,0-2.19,1.3 A 5.16,5.16,0,0,1,57,103.42Z" fill="#fff"/>
    <path d="M 61.15,104.93 a 1.48,1.48,0,0,0-.94-1.61,1.28,1.28,0,0,0-1.66,1 A 4.63,4.63,0,0,1,61.15,104.93Z" fill="#fff"/>
    <path d="M 65.23,106 s -.24-1.18-1.3-1.27 a 1.14,1.14,0,0,0-1.34,1 A 7.69,7.69,0,0,1,65.23,106Z" fill="#fff"/>
    <path d="M 69.17,106.08 s -.24-.94-1.08-.91 a 1.12,1.12,0,0,0-1.15,1 A 5.19,5.19,0,0,1,69.17,106.08Z" fill="#fff"/>
    <path d="M 73,105.89 a 1.45,1.45,0,0,0-1.25-.72 c -.82,0-1.06,1-1.06,1 A 2.83,2.83,0,0,1,73,105.89Z" fill="#fff"/>
  </g>
  <g id="outline">
    <path d="M 52.69,103 c .14,2,1.8,4.47,4.9,3.67 a 3.16,3.16,0,0,0,4.61,1.51,2.78,2.78,0,0,0,4.18.72,3.23,3.23,0,0,0,4.11.14 c 2.31,1.59,4.18-.58,4.9-2.38,1.3-.5,4-3,4.14-7.85.13-3.8,3.93-1.62,5.81-6.08 s -2.26-8.07-3.56-10.67.06-4.12,0-7.11 h -.08 c 0-.15,0-.29.07-.45 a 6.76,6.76,0,0,0-7.19-6.29 h 0 a 6.76,6.76,0,0,0-6.27,6.25 h 0 s 0,0,0,.07 a 6.77,6.77,0,0,0,0,.87 h 0 c .08,3,.62,5.22-1.33,10.57-2.16,5.91-8.33,11-10.93,12 A 4.7,4.7,0,0,0,52.69,103Z m 1.53-.36 a 4.42,4.42,0,0,1,2.86,1.08,2,2,0,0,0-1-2.85,1.63,1.63,0,0,0-1.45,0,3.25,3.25,0,0,1,.82-.79 c .91-.62,2.62-1.19,5.87-3.29,3.88-2.5,6.12-6,8-10.73,1.73-4.42,1-10.23,1-11 a 4.74,4.74,0,0,1,4.41-4.86 h 0 a 4.75,4.75,0,0,1,5.05,4.42 s -.29,2.56-.4,3.86 c -.48,5.4,3.44,5.81,4.39,10.14.82,3.71-1,5.11-4,6.12 s -2.15,3.88-2.53,6.28 A 5.36,5.36,0,0,1,75,104.62 a 3.66,3.66,0,0,1,.51-1.83 c -1.83,1.39-1.06,2.93-1.78,4.28 a 2,2,0,0,1-3.41,0 c -.56-1.18,0-2.07.78-3.25 a 6,6,0,0,0,.83-2.59 c -.32,1.44-1.08,2-1.84,3.21 a 3.12,3.12,0,0,0-.16,3.06,2.26,2.26,0,0,1-3.46-.42,2,2,0,0,1-.2-1.31,6.81,6.81,0,0,1,1.22-2.38,5.77,5.77,0,0,0,1.15-3.31 A 7.2,7.2,0,0,1,67,103.36 c -.77.91-1.82,2.39-1,4.12-1.32.69-3.36.44-3.65-.94-.59-1.47.41-2.79,1.38-4 a 5.72,5.72,0,0,0,1.08-2.88 c -.83,2.41-1.55,2.56-2.56,3.93 a 4.55,4.55,0,0,0-.57,3.17 A 3,3,0,0,1,58.07,105 c -.17-.6-.41-1.71,1.43-3 a 5.64,5.64,0,0,0,2.23-3.21 c -.79,1.69-1.95,2.31-3.42,3.46 a 3.06,3.06,0,0,0-.91,2.94 A 2.21,2.21,0,0,1,54.62,104,4.33,4.33,0,0,1,54.22,102.68Z m 0-.36 a 2.54,2.54,0,0,1,.09-.63,1.65,1.65,0,0,1,1.73-.41,1.61,1.61,0,0,1,.83,1.77 A 4,4,0,0,0,54.22,102.31Z"/>
    <path d="M 61.23,105.2 a 1.39,1.39,0,0,0-1-2,1.43,1.43,0,0,0-1.95,1.26 A 3.71,3.71,0,0,1,61.23,105.2Z m -.22-.5 a 3.91,3.91,0,0,0-2.27-.54,1.12,1.12,0,0,1,1.37-.65 A 1.16,1.16,0,0,1,61,104.69Z"/>
    <path d="M 64,104.48 a 1.36,1.36,0,0,0-1.55,1.4,5.62,5.62,0,0,1,2.88.29 A 1.47,1.47,0,0,0,64,104.48Z m 1.12,1.3 a 4.53,4.53,0,0,0-2.31-.22,1,1,0,0,1,1.15-.72 A 1.58,1.58,0,0,1,65.09,105.77Z"/>
    <path d="M 68,105 a 1.25,1.25,0,0,0-1.26,1.37,7.16,7.16,0,0,1,2.56-.11 A 1.31,1.31,0,0,0,68,105Z m 1,1 a 4.29,4.29,0,0,0-1.95,0,1,1,0,0,1,1-.72 A 1,1,0,0,1,69,106Z"/>
    <path d="M 71.93,105 a 1.29,1.29,0,0,0-1.37,1.33,4.3,4.3,0,0,1,2.7-.29 S 72.83,105,71.93,105Z m .86.68 a 4.41,4.41,0,0,0-1.87.22 A 1.14,1.14,0,0,1,72.8,105.7Z"/>
  </g>
<script type="text/ecmascript" xlink:href="param.min.js"/> 
</svg>
