<?xml version="1.0"?>
<svg xmlns="http://www.w3.org/2000/svg" xmlns:xlink="http://www.w3.org/1999/xlink" viewBox="0 0 600 600">
  <title>midi-crew-neck-t-shirt-hourglass</title>
  <g id="main-colour">
    <path d="M 337.37,254.5 c -1-1.38-3.33-4.56-4.65-6.39 h 0 a 12.06,12.06,0,0,0,1.55-1.73 h 0q.27-.36.51-.74 l 0,0 c .15-.24.29-.48.42-.73 l .1-.2 c .12-.23.24-.47.34-.71 l .07-.18 a 11.91,11.91,0,0,0,.41-1.17 c .06-.2.12-.41.17-.61 s .07-.31.1-.46.09-.49.12-.74,0-.26,0-.39 c 0-.38.06-.77.06-1.17 h 0 a 12,12,0,0,0-16-11.31 c -.53-.11-1-.26-1.51-.41 a 43.19,43.19,0,0,1,.91,6.74 c .13,4.88-1.62,12-12.75,12.63 S 286.61,241.25,281,236 a 29.69,29.69,0,0,1-5.63-7.12 l -.13,0 c -5.33-2.17-11.92-4-16.83-1.17 s -7.33,8-6.42,14 S 257.88,251,263,252.18 c -.08,8.08,1.5,22.33,4.83,29.25,0,0,4.06,10.79,8,20.87 a 86.34,86.34,0,0,1,4.92,20.08 c -2.83,6.5-10,13.13-14.31,17.21 S 258,348.18,254.88,356 c -2.67,6.77-2.3,11.4-2.15,12.54 a 23.74,23.74,0,0,1,8.79-6.67 c 8.67-3.67,15-2.5,27.83.5 s 27.67,5.67,37-1 a 26.39,26.39,0,0,0,7.85-9.12 c -2-6.13-5.94-10.78-9.33-15.58-4.17-5.92-5.25-9-4.83-14.25 s 4.92-13.67,8.5-19.67 A 57.44,57.44,0,0,0,333.62,290 l -.39.11,1-6.84 C 346.79,270.39,338.87,256.5,337.37,254.5Z" fill="param(main_colour)"/>
  </g>
  <g id="outline">
    <path d="M 264.86,275.5 c 7,13.63,11.78,24.69,15,35.5,3.17,10.64,3.11,21-5.25,29.13,8.26-12.21,5.13-24.39.48-37.35 C 272.23,294.83,267.53,283.52,264.86,275.5Z"/>
    <path d="M 318.71,226.54 l -.9.39 c .21.74.49,1.61.61,2.08,2.7-1.15,5-3.51,10.62-2 C 327,225.63,323.79,224.31,318.71,226.54Z"/>
    <path d="M 252.48,370.61 l -1.75-1 c .26-.47,6.5-11.53,24.17-10.77,4.55.2,9.81,1.38,15.38,2.63,16,3.6,34.72,7.33,43.7-10.45 l .94,1.44 c -9.68,19.16-29.16,14.54-45.08,11-5.48-1.23-10.65-2.39-15-2.58 C 258.43,360.17,252.72,370.18,252.48,370.61Z"/>
    <path d="M 305.85,247.93 c -20.22,0-31.49-18.34-31.6-18.53 l 1.71-1 c .11.19,11.48,18.6,31.59,17.52,4.58-.25,7.84-1.75,9.69-4.48,3.62-5.35.82-13.74.8-13.82 l 1.89-.64 c .13.38,3.14,9.42-1,15.59-2.21,3.27-6,5.08-11.24,5.36Q306.74,247.93,305.85,247.93Z"/>
    <path d="M 262.13,253 c 0,.18-.55,6.82,1.83,18.9 a 49.5,49.5,0,0,0,8.41,19.16,125.18,125.18,0,0,1-5.32-14.91 h 0 c -2.54-8.6-2.85-19.59-2.88-22.93,0-.41,0-1.11-.1-2 a 12,12,0,0,1,.54-24,7.81,7.81,0,0,1,2,.18,12,12,0,0,1,1.62.38,68.27,68.27,0,0,1,7.12,2.48 c .75.25,1.63.54,2.56.83,0,0-1.09-1.43-2-2.86 l -1.33-.51 a 47.82,47.82,0,0,0-5.16-1.64 A 14,14,0,1,0,262.13,253Z"/>
    <path d="M 335.82,281.71 c 0-.13,0-.28.06-.41 a 30.85,30.85,0,0,1-2.67,2.54 c -.75,5-2.63,13.37-6.27,19.42-4.42,7.33-6.8,13.75-7.72,18.75-.83,4.54.95,9.2,3,12.28 l .69,1 c .71.91,1.49,2,2.31,3.12 l .7,1 a 149.15,149.15,0,0,1,8.7,13.7 h 0 a 5.78,5.78,0,0,0,.42-.89,56.26,56.26,0,0,0-5.35-9.71 c -6.17-9.17-9.83-13-8.92-20.08.77-5.92,5.19-13.63,8.09-18.78 h 0 C 332.86,297.27,334,293,335.82,281.71Z"/>
    <path d="M 278.88,324.34 c -4.5,8.08-17.5,15.75-23.42,27.83 a 41.22,41.22,0,0,0-4.07,13,27.24,27.24,0,0,0-.51,9,21.4,21.4,0,0,1,1.84-4 h 0 c 0-.75.09-1.49.18-2.22 h 0 s -.44-4.85,2.92-12.72 a 42.13,42.13,0,0,1,7.45-11 c 2.18-2.33,7.39-7.09,11.86-12 l .74-.84 c .82-.93,1.6-1.86,2.33-2.78 l .76-1 a 33,33,0,0,0,1.89-2.78 c 0-1.2-.06-2.77-.2-4.51 A 26.68,26.68,0,0,1,278.88,324.34Z"/>
    <path d="M 255.61,361.88 s 7.38-7,22-4.87,21.88,5,30.75,5.63 c -6.37-1.25-18.75-4.12-23.62-5.25 S 264.36,352.5,255.61,361.88Z"/>
    <path d="M 319.11,323 s -1.08,8.58,4.75,18.38 c -3-7-3.75-15.87-3.5-18.37 C 320.23,321.63,319.11,323,319.11,323Z"/>
    <path d="M 337.7,253.44 c -4.63-5.72-9.9-12.34-11.9-17 a 85,85,0,0,0,8.51,15.42 c 6.27,8.92,7,17.79,3,25.75 a 19.19,19.19,0,0,1-4.08,5.44 c -.15,1.2-.28,2.17-.29,2.25 A 24.08,24.08,0,0,0,342,271.72,21,21,0,0,0,337.7,253.44Z"/>
    <path d="M 287.09,288.2 c 7.12.34,13.78-.82,20.78-6.32 C 304.11,288.81,294.11,291.43,287.09,288.2Z"/>
  </g>
<script type="text/ecmascript" xlink:href="param.min.js"/> 
</svg>
