<?xml version="1.0"?>
<svg xmlns="http://www.w3.org/2000/svg" xmlns:xlink="http://www.w3.org/1999/xlink" viewBox="0 0 150 150">
  <title>basic-flip-flops</title>
  <g id="skin-tone">
    <path d="M 94.78,99.36 c -1.8-1-6.7-2.88-11-10.81 s -2.11-9.5-3.3-14.44-5-4.62-7.94-4-2.75,5.13-2.69,6.72 A 11,11,0,0,1,68,84 c -5.08,6.67-1.95,10.47.5,11.33 a 6.16,6.16,0,0,1,2,1.06,6.26,6.26,0,0,0,1.4-.22 c 1.83-.54,9.42-2.42,14.46.54 a 4.67,4.67,0,0,1-.54-2.62 l 1.75,1.54 a 5.71,5.71,0,0,0,.54,3.13 c -3.21-2.38-8.15-2.1-10.72-1.57 a 44.34,44.34,0,0,1-5.84.83,10.91,10.91,0,0,1,.44,2.87 c .12,2.38,1.55,3.85,3.28,5.08 a 2.75,2.75,0,0,0,4.25,2.31 c .36.58,2.16,1.15,4.11-.14,2,1.3,3,.36,4.25-.79,3.17,1.19,4.25-1.44,4.25-1.44 a 3.22,3.22,0,0,0,3.1-.36 C 96.95,104.48,96.59,100.37,94.78,99.36Z" fill="param(skin_tone)"/>
  </g>
  <g id="main-colour">
    <path d="M 67.52,96.19 a 10.74,10.74,0,0,0,4.38,0 c 1.83-.54,9.42-2.42,14.46.54 a 4.67,4.67,0,0,1-.54-2.62 l 1.75,1.54 a 5.71,5.71,0,0,0,.54,3.13 c -3.21-2.38-8.15-2.1-10.72-1.57 s -6.48,1.11-7.9.73 A 23,23,0,0,0,67.52,96.19Z" fill="param(main_colour)"/>
    <path d="M 65.1,89.15 s -.58,2.83,1.13,4.46,5.29,2,5.08,3.83.63,7,4.08,8.67 c .5,2,1.42,3.5,4.08,2.17,1.08.92,3.2,1.08,4.14-.13.94.84,3.61.88,4.27-1 a 3,3,0,0,0,4.46-1.42 c 1.92.33,3.75-.17,3.88-1.25-.08,1.75-.83,5.58-.83,5.58 s -1.08,2.42-5.62,3.38 a 26.69,26.69,0,0,1-14.93-1.8 c -3.86-1.86-5.48-4.15-6.19-7.2 s -.83-4.62-3.17-6-2.79-1.92-2.92-2.87 a 24.69,24.69,0,0,1,0-3.92 A 2.67,2.67,0,0,1,65.1,89.15Z" fill="param(main_colour)"/>
  </g>
  <g id="fixed-colours">
    <path d="M 93,103.42 a 2.32,2.32,0,0,1,.89-2.28,1.47,1.47,0,0,1,2.19,1.3 A 5.16,5.16,0,0,0,93,103.42Z" fill="#fff"/>
    <path d="M 88.85,104.93 a 1.48,1.48,0,0,1,.94-1.61,1.28,1.28,0,0,1,1.66,1 A 4.63,4.63,0,0,0,88.85,104.93Z" fill="#fff"/>
    <path d="M 84.77,106 s .24-1.18,1.3-1.27 a 1.14,1.14,0,0,1,1.34,1 A 7.69,7.69,0,0,0,84.77,106Z" fill="#fff"/>
    <path d="M 80.83,106.08 s .24-.94,1.08-.91 a 1.12,1.12,0,0,1,1.15,1 A 5.19,5.19,0,0,0,80.83,106.08Z" fill="#fff"/>
    <path d="M 77,105.89 a 1.45,1.45,0,0,1,1.25-.72 c .82,0,1.06,1,1.06,1 A 2.83,2.83,0,0,0,77,105.89Z" fill="#fff"/>
  </g>
  <g id="outline">
    <path d="M 76.73,106.06 a 4.3,4.3,0,0,1,2.7.29 A 1.29,1.29,0,0,0,78.07,105 C 77.17,105,76.73,106.06,76.73,106.06Z m 2.34-.14 a 4.41,4.41,0,0,0-1.87-.22 A 1.14,1.14,0,0,1,79.08,105.92Z"/>
    <path d="M 94,98.06 c -2.59-1-8.77-6.12-10.93-12-2-5.35-1.42-7.61-1.33-10.57 h 0 a 6.77,6.77,0,0,0,0-.87 s 0,0,0-.07 h 0 a 6.76,6.76,0,0,0-6.27-6.25 h 0 a 6.76,6.76,0,0,0-7.19,6.29 c 0,.15,0,.3.07.45 h -.08 c -.09,3,1.27,4.52,0,7.11-.8,1.61-2.7,3.61-3.57,6 a 4.52,4.52,0,0,0-2.54,3.55 h 0v.09 a 3.89,3.89,0,0,0,0,.44v4.22 s .31.9,3.25,2.56 C 67.28,100,67.6,102.11,68,104 s 1,5.79,7,8.47 a 26.51,26.51,0,0,0,16.47,1.21,7.67,7.67,0,0,0,4.63-3.56 l .89-5.72 a 4.6,4.6,0,0,0,.32-1.35 A 4.7,4.7,0,0,0,94,98.06Z m 1.79,4.25 a 4,4,0,0,0-2.65.72,1.61,1.61,0,0,1,.83-1.77,1.65,1.65,0,0,1,1.73.41 A 2.54,2.54,0,0,1,95.78,102.31Z m -7.13-5.45 c 3.25,2.1,5,2.67,5.87,3.29 a 3.25,3.25,0,0,1,.82.79,1.63,1.63,0,0,0-1.45,0,2,2,0,0,0-1,2.85,4.41,4.41,0,0,1,2.86-1.08,4.33,4.33,0,0,1-.39,1.37,2.21,2.21,0,0,1-2.79,1.14,3.06,3.06,0,0,0-.91-2.94 c -1.45-1.13-2.59-1.75-3.38-3.38 a 16,16,0,0,1-.49-2.6 C 88.09,96.47,88.36,96.67,88.65,96.86Z m -.85,6.75 c -1-1.37-1.73-1.51-2.56-3.93 a 5.72,5.72,0,0,0,1.08,2.88 c 1,1.19,2,2.51,1.38,4-.29,1.38-2.34,1.63-3.65.94.82-1.73-.24-3.21-1-4.12 a 7.2,7.2,0,0,1-1.69-3.24,5.77,5.77,0,0,0,1.15,3.31,6.81,6.81,0,0,1,1.22,2.38,2,2,0,0,1-.2,1.31,2.26,2.26,0,0,1-3.46.42,3.12,3.12,0,0,0-.16-3.06 c -.76-1.19-1.51-1.77-1.84-3.21 a 6,6,0,0,0,.83,2.59 c .76,1.19,1.34,2.08.78,3.25 a 2,2,0,0,1-3.41,0 c -.72-1.35,0-2.88-1.78-4.28 a 3.66,3.66,0,0,1,.51,1.83,5.36,5.36,0,0,1-2.19-3.53 c -.15-.91-.12-1.89-.19-2.81 a 73,73,0,0,1,7.78-1 c 5.5-.25,8,2.08,8,2.08 A 5.63,5.63,0,0,0,90.5,102 c 1.84,1.26,1.6,2.37,1.43,3 a 3,3,0,0,1-3.56,1.82 A 4.55,4.55,0,0,0,87.8,103.61Z M 77.43,95.49 c 3.92-.29,6.75.13,9.33,1.79 a 8.92,8.92,0,0,1-.71-2.46 c .35.34.73.67,1.12,1 a 6.37,6.37,0,0,0,.55,2.57 c -3.29-2.37-8.21-2.08-12.17-1.12 a 14.89,14.89,0,0,1-5.92.54 l -1.42-1.25 C 72,97.11,73.52,95.78,77.43,95.49Z m -11.16-6.8 c 1-4.32,4.87-4.74,4.39-10.14-.12-1.3-.4-3.86-.4-3.86 a 4.75,4.75,0,0,1,5.05-4.42 h 0 a 4.74,4.74,0,0,1,4.41,4.86 c -.08.78-.77,6.59,1,11 A 24.74,24.74,0,0,0,85.29,94 a 4.47,4.47,0,0,0,.64,2.27 c -4.28-2.45-10.39-1.17-14.06-.38 a 3.21,3.21,0,0,0-1.6-1.09 C 67.3,93.8,65.45,92.39,66.27,88.68Z m -2,1.19 a 5.88,5.88,0,0,0,.44,2.9 A 5.39,5.39,0,0,0,68,96 a 14.88,14.88,0,0,1-1.84-.34 A 16.56,16.56,0,0,1,69.27,98 a 4.47,4.47,0,0,0,1.15.3,3.92,3.92,0,0,1,.06.54 c .17,4.86,2.84,7.34,4.14,7.85.72,1.8,2.59,4,4.9,2.38 a 3.23,3.23,0,0,0,4.11-.14,2.78,2.78,0,0,0,4.18-.72,3.16,3.16,0,0,0,4.61-1.51,3.66,3.66,0,0,0,3.38-.64 c -1.95,5.72-9.51,6.07-16.19,4.66-7.12-1.5-8.12-4.62-9.62-9.62 s -5.12-4.75-6.5-7.37 A 3,3,0,0,1,64.23,89.88Z m 24.12,23.34 c -5.06.5-11.56,0-16.25-3.79 S 70,101.59,66.47,98.67 c -2.08-1.72-2.8-1.77-3.42-2.6 L 63,94.55 a 7,7,0,0,0,2,1.81 c 4,2.5,3.63,3.75,4.38,5.88 s .88,4.75,4.38,7.25,12.75,4.13,18.38,1.75 a 7.74,7.74,0,0,0,3.42-2.66 L 95.22,110 S 93.41,112.71,88.35,113.21Z"/>
    <path d="M 91.69,104.48 a 1.43,1.43,0,0,0-1.95-1.26,1.39,1.39,0,0,0-1,2 A 3.71,3.71,0,0,1,91.69,104.48Z m -1.8-1 a 1.12,1.12,0,0,1,1.37.65,3.91,3.91,0,0,0-2.27.54 A 1.16,1.16,0,0,1,89.88,103.5Z"/>
    <path d="M 80.66,106.28 a 7.16,7.16,0,0,1,2.56.11 A 1.25,1.25,0,0,0,82,105,1.31,1.31,0,0,0,80.66,106.28Z m 1.26-1 a 1,1,0,0,1,1,.72 A 4.29,4.29,0,0,0,81,106,1,1,0,0,1,81.92,105.3Z"/>
    <path d="M 84.7,106.17 a 5.62,5.62,0,0,1,2.88-.29,1.36,1.36,0,0,0-1.55-1.4 A 1.47,1.47,0,0,0,84.7,106.17Z m 1.37-1.33 a 1,1,0,0,1,1.15.72,4.53,4.53,0,0,0-2.31.22 A 1.57,1.57,0,0,1,86.07,104.84Z"/>
  </g>
<script type="text/ecmascript" xlink:href="param.min.js"/> 
</svg>
