<?xml version="1.0"?>
<svg xmlns="http://www.w3.org/2000/svg" xmlns:xlink="http://www.w3.org/1999/xlink" viewBox="0 0 600 600">
  <title>wedding-dress-curvy</title>
  <g id="main-colour">
    <path d="M 254.65,266.8 s 8.08,2.67,19.75-1.75,17.89-7.43,26.47-7.17 c 2.68.08,7.88,3,10.38,4.63,6.25-6.5,17-10.62,28.13-9.62,9.13,12.13,4.13,20.88-.37,34.5-2.5,8.33-6.35,18.83-4.52,26.83 s 5.67,14.25,13.67,24.58,27,35,39.08,55.42,29,55.33,35.67,105.17 c 2.5,17.17,1.83,45.33,1.83,45.33 s -3.83,7-16,7.33 c -.83,5.67-1.17,11-1.17,11 s -3.33,5.5-12.83,6.83-18,1-20.67,5 c .5,6.5.5,7.67.5,7.67 a 46,46,0,0,0-17,6.83 c -9.17,5.83-17.17,7.17-27,6 s -24.83-7.17-31.67-3.5 c -.83-4.33-1-5.83-1-5.83 s -6-3.67-20.17-2.83-28.17-3.33-32-8.67 c -1-5.5-1.33-7.17-1.33-7.17 s -8.83-3.83-14.33-3.83-18,1.33-22.67-6.33 c -1.67-9.83-2-10.33-2-10.33 a 24,24,0,0,0-6.17-1.17 c -2.67,0-7.67-1.33-8.33-4.17 s -5.17-39.17-.83-67.17,16.17-74.33,36-106,34.5-44,38-50.83,4.33-14.5,1.5-19.33 S 254.4,279,254.65,266.8Z" fill="param(main_colour)"/>
  </g>
  <g id="accent-colour-1">
    <path d="M 311.87,262.21 s 4.17,9.17,1.67,28.5,4.33,52.17,4.33,52.17-.17,1.5-1.5.17 a 269.12,269.12,0,0,1-4.48-32.5 c -.83-11.83.48-24.83.81-30.5 s -2.33-17.5-2.33-17.5Z" fill="param(accent_colour_1)"/>
    <path d="M 321.37,256.55 a 46.14,46.14,0,0,1,3.67,28 c -3,15.5-.67,39.67,1.33,44.17 l -.83,1.67 s -2.5-8.17-3.17-22.83,2.33-27.83,1.83-33.67-4.33-17.17-4.33-17.17Z" fill="param(accent_colour_1)"/>
    <path d="M 332.87,253.38 a 45.55,45.55,0,0,1,1.33,28.33 c -5,17.17-6.67,34.5-.5,40.67 l .83-.67 s -4.5-4.33-3-19.83,11.5-32.17,2.33-49Z" fill="param(accent_colour_1)"/>
    <path d="M 297,258.38 a 76.08,76.08,0,0,1,5.33,33.83 c -1.5,18.67.5,39.67.5,39.67 l -1.5-1 s -1.83-15.5-1-28.83 c .92-14.65.17-30.83-5.17-43.5 C 295.37,257.71,297,258.38,297,258.38Z" fill="param(accent_colour_1)"/>
    <path d="M 279.54,263.71 s 10.17,17.83,11.83,31.83-3.5,29.67-3.5,29.67 h -2 s 6.67-16.17,3.33-32.33 a 92.54,92.54,0,0,0-11.5-28.67Z" fill="param(accent_colour_1)"/>
    <path d="M 266.37,267.55 s 3.67,10.17,7.67,20,7,24.5-2.17,35.67 l -2,.33 s 7.17-10.33,6.33-20.83-10.5-28.17-11.17-35 C 265.2,267.38,266.37,267.55,266.37,267.55Z" fill="param(accent_colour_1)"/>
    <circle cx="275.06" cy="229.71" r="2.58" fill="param(accent_colour_1)"/>
    <circle cx="280.06" cy="232.55" r="2.58" fill="param(accent_colour_1)"/>
    <circle cx="285.4" cy="235.05" r="2.58" fill="param(accent_colour_1)"/>
    <circle cx="290.89" cy="237.15" r="2.58" fill="param(accent_colour_1)"/>
    <circle cx="296.41" cy="238.59" r="2.58" fill="param(accent_colour_1)"/>
    <circle cx="302.12" cy="239.5" r="2.58" fill="param(accent_colour_1)"/>
    <circle cx="308.02" cy="238.92" r="2.58" fill="param(accent_colour_1)"/>
    <circle cx="313.69" cy="237.85" r="2.58" fill="param(accent_colour_1)"/>
    <circle cx="318.65" cy="234.63" r="2.58" fill="param(accent_colour_1)"/>
    <circle cx="322.62" cy="230.71" r="2.58" fill="param(accent_colour_1)"/>
    <circle cx="311.41" cy="243.26" r="2.58" transform="translate(47.44 537.32) rotate(-86.08)" fill="param(accent_colour_1)"/>
    <circle cx="305.12" cy="244.03" r="2.58" transform="translate(40.8 531.75) rotate(-86.08)" fill="param(accent_colour_1)"/>
    <circle cx="308.69" cy="247.92" r="2.58" transform="translate(40.25 538.94) rotate(-86.08)" fill="param(accent_colour_1)"/>
    <circle cx="279.73" cy="226.19" r="2.58" fill="param(accent_colour_1)"/>
    <circle cx="284.31" cy="228.96" r="2.58" fill="param(accent_colour_1)"/>
    <circle cx="289.31" cy="231.23" r="2.58" fill="param(accent_colour_1)"/>
    <circle cx="294.31" cy="233.25" r="2.58" fill="param(accent_colour_1)"/>
    <circle cx="299.7" cy="234.23" r="2.58" fill="param(accent_colour_1)"/>
    <circle cx="305.4" cy="234.3" r="2.58" fill="param(accent_colour_1)"/>
    <circle cx="310.78" cy="233.44" r="2.58" fill="param(accent_colour_1)"/>
    <circle cx="315.42" cy="230.75" r="2.58" fill="param(accent_colour_1)"/>
    <circle cx="319.48" cy="226.64" r="2.58" fill="param(accent_colour_1)"/>
    <circle cx="267.92" cy="272.82" r="2.19" fill="param(accent_colour_1)"/>
    <circle cx="272.22" cy="285.52" r="2.19" fill="param(accent_colour_1)"/>
    <circle cx="275.88" cy="296.24" r="2.19" fill="param(accent_colour_1)"/>
    <circle cx="276.71" cy="308.45" r="2.19" fill="param(accent_colour_1)"/>
    <circle cx="272.22" cy="318.62" r="2.19" fill="param(accent_colour_1)"/>
    <circle cx="283.51" cy="274.13" r="2.19" fill="param(accent_colour_1)"/>
    <circle cx="289.69" cy="289.14" r="2.19" fill="param(accent_colour_1)"/>
    <circle cx="291.21" cy="302.91" r="2.19" fill="param(accent_colour_1)"/>
    <circle cx="289.36" cy="316.08" r="2.19" fill="param(accent_colour_1)"/>
    <circle cx="301.27" cy="323.39" r="2.19" fill="param(accent_colour_1)"/>
    <circle cx="301.03" cy="309.81" r="2.19" fill="param(accent_colour_1)"/>
    <circle cx="301.6" cy="295.05" r="2.19" fill="param(accent_colour_1)"/>
    <circle cx="301.28" cy="278.35" r="2.19" fill="param(accent_colour_1)"/>
    <circle cx="297.94" cy="263.95" r="2.19" fill="param(accent_colour_1)"/>
    <circle cx="312.66" cy="269.81" r="2.19" fill="param(accent_colour_1)"/>
    <circle cx="313.09" cy="284.55" r="2.19" fill="param(accent_colour_1)"/>
    <circle cx="312.19" cy="298.97" r="2.19" fill="param(accent_colour_1)"/>
    <circle cx="313.16" cy="314.49" r="2.19" fill="param(accent_colour_1)"/>
    <circle cx="316" cy="330.64" r="2.19" fill="param(accent_colour_1)"/>
    <circle cx="324.45" cy="321.19" r="2.19" fill="param(accent_colour_1)"/>
    <circle cx="330.93" cy="313.7" r="2.19" fill="param(accent_colour_1)"/>
    <circle cx="322.97" cy="307.44" r="2.19" fill="param(accent_colour_1)"/>
    <circle cx="323.48" cy="292.38" r="2.19" fill="param(accent_colour_1)"/>
    <circle cx="324.94" cy="275.57" r="2.19" fill="param(accent_colour_1)"/>
    <circle cx="322.72" cy="261.84" r="2.19" fill="param(accent_colour_1)"/>
    <circle cx="336.67" cy="266.45" r="2.19" fill="param(accent_colour_1)"/>
    <circle cx="335.31" cy="281.36" r="2.19" fill="param(accent_colour_1)"/>
    <circle cx="331.51" cy="298.07" r="2.19" fill="param(accent_colour_1)"/>
  </g>
  <g id="outline">
    <path d="M 426.4,523.54 c -.67-28.33-9.83-72.5-22-99.83 s -32.12-57-39.62-66.33-21-24.62-26.75-35.5-2.37-23.12,1.63-33.62 c .44-1.29,3.1-8.25,3.72-9.94 s 3.69-8.44,2.33-14.85 A 28.35,28.35,0,0,0,339.87,252 c -18.75-1.25-28.92,9.5-28.92,9.5 s -3.84-5-14.33-4.5 c -5.62.25-13,3.13-24.47,7.63-11.23,4.4-18.63.88-18.63.88.63,13.79,5.71,22.71,9.88,30.54 s 3.5,14.17.33,19.83-20.5,24.17-30.5,38.67-29.33,49.33-39.17,92-9.17,65.83-4.17,96.33 a 16,16,0,0,0,8.67,4.17,21.05,21.05,0,0,1,5.87,1.61q.64,4.62,1.46,9.22 c 6.25,7.25,14,6.75,21.25,6.75,6,0,13.19,2.74,16.2,4.53.18,2.22.36,4.46.55,6.72,13,9.75,23.75,9.5,31.75,8.75,7.26-.68,15.94.29,21.23,2.9.47,3.82.77,5.85.77,5.85 s 9-2.75,17.25.25,25.75,7.5,39-.5,19-8.75,21.75-8.25 c 0-2.95,0-6,0-9.25,2.09-1.59,6.84-3.39,16.49-4,11.75-.75,16.75-8.25,16.75-8.25 s .39-4.05.73-9.78 c 1.21-.27,3.2-.67,6.43-1.22,6.83-1.17,10.17-7.83,10.17-7.83 A 130.52,130.52,0,0,0,426.4,523.54Z M 267.77,303.13 a 34,34,0,0,1,3.13,11.63 c .63-2.37-1-11.5-5.87-19.62 s -8.5-17-9.38-27 c 13.13,2.13,23.72-4.5,33.35-7.5 s 14.88-2.25,22.25,3 c 5.38-7,20.63-10.87,27.88-9.75,0,0,4.48,6.71,4.44,12.88 s -3.65,15.46-5,19.63 c -3.21,9.73-5.85,19.1-5.58,25.59 a 2.49,2.49,0,0,0-2-1 h -.24 a 2.51,2.51,0,0,0-2.5,2.5v.24 a 2.51,2.51,0,0,0,2.5,2.5 H 331 a 2.51,2.51,0,0,0,2.31-1.57 A 30.08,30.08,0,0,0,335,320 c -10.08,5.69-17.8,22.71-17.8,22.71 s -8.83-12.5-27.5-17.33 c -14.4-3.73-24.33-3.19-28.12-2.75 C 266.06,317.2,269.3,311.61,267.77,303.13Z m 64.85,10.38v.17 a 1.69,1.69,0,0,1-1.69,1.69 h -.17 a 1.69,1.69,0,0,1-1.69-1.69v-.17 a 1.69,1.69,0,0,1,1.69-1.69 h .17 A 1.69,1.69,0,0,1,332.62,313.51Z m 90.94,230.37 c -1,2.5-5.33,5.33-7.33,5.83-1.38.35-4.6.93-6.45,1.26.27-5.08.47-11.05.37-16.59 a 284.21,284.21,0,0,0-24.75-114 c -16.5-36.25-49-80.5-49-80.5 s 31.75,50.75,42.25,73.25,23,59.5,26.25,91.25 a 370.77,370.77,0,0,1,1.25,58.5 s -8.75,6.5-17.75,6.25 a 27.75,27.75,0,0,0-12.77,2.65 c -.32-32.08-2.87-75.11-12.48-114.9-11-45.5-28-89.75-38.75-104.75,12.5,27.75,21,48.25,34,98.75 s 13.25,98,14.25,130.25 c -8,1-18.25,8-22.25,10 s -15.25,4.5-25,1.75-19.5-5.25-24.75-3 c -3.25-36.25-4.5-61.25-4.75-100 s 6-99.75,14.5-137 c 0,0-16,53.5-18,123 a 781.06,781.06,0,0,0,4.08,108.32 c -2.48-1.08-9.86-3.72-20.33-2.32 a 38.8,38.8,0,0,1-29-8 c -1.25-21.25-4.5-38.5-1.25-83 s 12.5-77.25,41-145 c 0,0-27.5,49-37.75,99.25-9.44,46.27-9.12,80.67-6.09,120.38-2.85-1.46-9.12-4.18-15.41-3.63-8.5.75-13.75-1.25-19-5.5-3-26-5.5-48.75,1.25-90.75 s 27.25-81,33-92.5,21.83-35.42,21.83-35.42-25.17,27.83-42.67,74 c -16,42.31-23.6,88.88-18,133.89-2.84-1-6.42-.34-11.32-4.05-5-26.83-4-57.17,3.17-90 s 19.88-62.79,31.63-82.67 c 10.81-18.28,25.73-36.34,31.85-43.59,30.91-3.11,49.29,10.2,58.53,20.76 a 62.05,62.05,0,0,1,18-24.16 c 3.11,6.65,8.76,15.31,17.2,25.16,13,15.17,34.83,50,41,61.5 s 17.83,38.83,23.5,67.33 S 424.23,524.71,423.56,543.88Z"/>
    <path d="M 283.34,276.75 h .24 a 2.51,2.51,0,0,0,2.5-2.5V274 a 2.51,2.51,0,0,0-2.5-2.5 h -.24 a 2.51,2.51,0,0,0-2.5,2.5v.24 A 2.51,2.51,0,0,0,283.34,276.75Z m -1.65-2.7 a 1.69,1.69,0,0,1,1.69-1.69 h .17 a 1.69,1.69,0,0,1,1.69,1.69v.17 a 1.69,1.69,0,0,1-1.69,1.69 h -.17 a 1.69,1.69,0,0,1-1.69-1.69Z"/>
    <path d="M 289.58,313.51 h -.24 a 2.51,2.51,0,0,0-2.5,2.5v.24 a 2.51,2.51,0,0,0,2.5,2.5 h .24 a 2.51,2.51,0,0,0,2.5-2.5V316 A 2.51,2.51,0,0,0,289.58,313.51Z m 1.65,2.7 a 1.69,1.69,0,0,1-1.69,1.69 h -.17 a 1.69,1.69,0,0,1-1.69-1.69V316 a 1.69,1.69,0,0,1,1.69-1.69 h .17 a 1.69,1.69,0,0,1,1.69,1.69Z"/>
    <path d="M 276.63,305.88 a 2.51,2.51,0,0,0-2.5,2.5v.24 a 2.51,2.51,0,0,0,2.5,2.5 h .24 a 2.51,2.51,0,0,0,2.5-2.5v-.24 a 2.51,2.51,0,0,0-2.5-2.5Z m 1.89,2.54v.17 a 1.69,1.69,0,0,1-1.69,1.69 h -.17 a 1.69,1.69,0,0,1-1.69-1.69v-.17 a 1.69,1.69,0,0,1,1.69-1.69 h .17 A 1.69,1.69,0,0,1,278.52,308.42Z"/>
    <path d="M 273.23,296.21v.24 a 2.51,2.51,0,0,0,2.5,2.5 H 276 a 2.51,2.51,0,0,0,2.5-2.5v-.24 a 2.51,2.51,0,0,0-2.5-2.5 h -.24 A 2.51,2.51,0,0,0,273.23,296.21Z m .85,0 a 1.69,1.69,0,0,1,1.69-1.69 h .17 a 1.69,1.69,0,0,1,1.69,1.69v.17 a 1.69,1.69,0,0,1-1.69,1.69 h -.17 a 1.69,1.69,0,0,1-1.69-1.69Z"/>
    <path d="M 272.4,288.12 a 2.51,2.51,0,0,0,2.5-2.5v-.24 a 2.51,2.51,0,0,0-2.5-2.5 h -.24 a 2.51,2.51,0,0,0-2.5,2.5v.24 a 2.51,2.51,0,0,0,2.5,2.5Z m -1.89-2.54v-.17 a 1.69,1.69,0,0,1,1.69-1.69 h .17 a 1.69,1.69,0,0,1,1.69,1.69v.17 a 1.69,1.69,0,0,1-1.69,1.69 h -.17 A 1.69,1.69,0,0,1,270.51,285.58Z"/>
    <path d="M 270.58,272.92v-.24 a 2.51,2.51,0,0,0-2.5-2.5 h -.24 a 2.51,2.51,0,0,0-2.5,2.5v.24 a 2.51,2.51,0,0,0,2.5,2.5 h .24 A 2.51,2.51,0,0,0,270.58,272.92Z m -.85,0 a 1.69,1.69,0,0,1-1.69,1.69 h -.17 a 1.69,1.69,0,0,1-1.69-1.69v-.17 a 1.69,1.69,0,0,1,1.69-1.69 H 268 a 1.69,1.69,0,0,1,1.69,1.69Z"/>
    <path d="M 291.24,300.32 H 291 a 2.51,2.51,0,0,0-2.5,2.5v.24 a 2.51,2.51,0,0,0,2.5,2.5 h .24 a 2.51,2.51,0,0,0,2.5-2.5v-.24 A 2.51,2.51,0,0,0,291.24,300.32Z m 1.65,2.7 a 1.69,1.69,0,0,1-1.69,1.69 H 291 a 1.69,1.69,0,0,1-1.69-1.69v-.17 a 1.69,1.69,0,0,1,1.69-1.69 h .17 a 1.69,1.69,0,0,1,1.69,1.69Z"/>
    <path d="M 297.84,266.56 h .24 a 2.51,2.51,0,0,0,2.5-2.5v-.24 a 2.51,2.51,0,0,0-2.5-2.5 h -.24 a 2.51,2.51,0,0,0-2.5,2.5v.24 A 2.51,2.51,0,0,0,297.84,266.56Z m -1.65-2.7 a 1.69,1.69,0,0,1,1.69-1.69 H 298 a 1.69,1.69,0,0,1,1.69,1.69V264 a 1.69,1.69,0,0,1-1.69,1.69 h -.17 a 1.69,1.69,0,0,1-1.69-1.69Z"/>
    <path d="M 272,321.23 h .24 a 2.51,2.51,0,0,0,2.5-2.5v-.24 a 2.51,2.51,0,0,0-2.5-2.5 H 272 a 2.51,2.51,0,0,0-2.5,2.5v.24 A 2.51,2.51,0,0,0,272,321.23Z m -1.65-2.7 a 1.69,1.69,0,0,1,1.69-1.69 h .17 a 1.69,1.69,0,0,1,1.69,1.69v.17 a 1.69,1.69,0,0,1-1.69,1.69 H 272 a 1.69,1.69,0,0,1-1.69-1.69Z"/>
    <path d="M 313.3,330.47v.24 a 2.51,2.51,0,0,0,2.5,2.5 H 316 a 2.51,2.51,0,0,0,2.5-2.5v-.24 A 2.51,2.51,0,0,0,316,328 h -.24 A 2.51,2.51,0,0,0,313.3,330.47Z m .85,0 a 1.69,1.69,0,0,1,1.69-1.69 H 316 a 1.69,1.69,0,0,1,1.69,1.69v.17 a 1.69,1.69,0,0,1-1.69,1.69 h -.17 a 1.69,1.69,0,0,1-1.69-1.69Z"/>
    <path d="M 301.54,320.8 h -.24 a 2.51,2.51,0,0,0-2.5,2.5v.24 a 2.51,2.51,0,0,0,2.5,2.5 h .24 a 2.51,2.51,0,0,0,2.5-2.5v-.24 A 2.51,2.51,0,0,0,301.54,320.8Z m 1.65,2.7 a 1.69,1.69,0,0,1-1.69,1.69 h -.17 a 1.69,1.69,0,0,1-1.69-1.69v-.17 a 1.69,1.69,0,0,1,1.69-1.69 h .17 a 1.69,1.69,0,0,1,1.69,1.69Z"/>
    <path d="M 301.7,292.54 h -.24 A 2.51,2.51,0,0,0,299,295v.24 a 2.51,2.51,0,0,0,2.5,2.5 h .24 a 2.51,2.51,0,0,0,2.5-2.5V295 A 2.51,2.51,0,0,0,301.7,292.54Z m 1.65,2.7 a 1.69,1.69,0,0,1-1.69,1.69 h -.17 a 1.69,1.69,0,0,1-1.69-1.69v-.17 a 1.69,1.69,0,0,1,1.69-1.69 h .17 a 1.69,1.69,0,0,1,1.69,1.69Z"/>
    <path d="M 312.15,301.58 h .24 a 2.51,2.51,0,0,0,2.5-2.5v-.24 a 2.51,2.51,0,0,0-2.5-2.5 h -.24 a 2.51,2.51,0,0,0-2.5,2.5v.24 A 2.51,2.51,0,0,0,312.15,301.58Z m -1.65-2.7 a 1.69,1.69,0,0,1,1.69-1.69 h .17 a 1.69,1.69,0,0,1,1.69,1.69V299 a 1.69,1.69,0,0,1-1.69,1.69 h -.17 A 1.69,1.69,0,0,1,310.5,299Z"/>
    <path d="M 323.14,310 a 2.51,2.51,0,0,0,2.5-2.5v-.24 a 2.51,2.51,0,0,0-2.5-2.5 h -.24 a 2.51,2.51,0,0,0-2.5,2.5v.24 a 2.51,2.51,0,0,0,2.5,2.5Z m -1.89-2.54v-.17 a 1.69,1.69,0,0,1,1.69-1.69 h .17 a 1.69,1.69,0,0,1,1.69,1.69v.17 a 1.69,1.69,0,0,1-1.69,1.69 h -.17 A 1.69,1.69,0,0,1,321.25,307.51Z"/>
    <path d="M 324.88,273 a 2.51,2.51,0,0,0-2.5,2.5v.24 a 2.51,2.51,0,0,0,2.5,2.5 h .24 a 2.51,2.51,0,0,0,2.5-2.5v-.24 a 2.51,2.51,0,0,0-2.5-2.5Z m 1.89,2.54v.17 a 1.69,1.69,0,0,1-1.69,1.69 h -.17 a 1.69,1.69,0,0,1-1.69-1.69v-.17 a 1.69,1.69,0,0,1,1.69-1.69 h .17 A 1.69,1.69,0,0,1,326.77,275.54Z"/>
    <path d="M 336.55,269.08 h .24 a 2.51,2.51,0,0,0,2.5-2.5v-.24 a 2.51,2.51,0,0,0-2.5-2.5 h -.24 a 2.51,2.51,0,0,0-2.5,2.5v.24 A 2.51,2.51,0,0,0,336.55,269.08Z m -1.65-2.7 a 1.69,1.69,0,0,1,1.69-1.69 h .17 a 1.69,1.69,0,0,1,1.69,1.69v.17 a 1.69,1.69,0,0,1-1.69,1.69 h -.17 a 1.69,1.69,0,0,1-1.69-1.69Z"/>
    <path d="M 335.15,283.92 h .24 a 2.51,2.51,0,0,0,2.5-2.5v-.24 a 2.51,2.51,0,0,0-2.5-2.5 h -.24 a 2.51,2.51,0,0,0-2.5,2.5v.24 A 2.51,2.51,0,0,0,335.15,283.92Z m -1.65-2.7 a 1.69,1.69,0,0,1,1.69-1.69 h .17 a 1.69,1.69,0,0,1,1.69,1.69v.17 a 1.69,1.69,0,0,1-1.69,1.69 h -.17 a 1.69,1.69,0,0,1-1.69-1.69Z"/>
    <path d="M 315.7,314.45v-.24 a 2.51,2.51,0,0,0-2.5-2.5 H 313 a 2.51,2.51,0,0,0-2.5,2.5v.24 A 2.51,2.51,0,0,0,313,317 h .24 A 2.51,2.51,0,0,0,315.7,314.45Z m -.85,0 a 1.69,1.69,0,0,1-1.69,1.69 H 313 a 1.69,1.69,0,0,1-1.69-1.69v-.17 a 1.69,1.69,0,0,1,1.69-1.69 h .17 a 1.69,1.69,0,0,1,1.69,1.69Z"/>
    <path d="M 324.54,318.54 h -.24 a 2.51,2.51,0,0,0-2.5,2.5v.24 a 2.51,2.51,0,0,0,2.5,2.5 h .24 a 2.51,2.51,0,0,0,2.5-2.5V321 A 2.51,2.51,0,0,0,324.54,318.54Z m 1.65,2.7 a 1.69,1.69,0,0,1-1.69,1.69 h -.17 a 1.69,1.69,0,0,1-1.69-1.69v-.17 a 1.69,1.69,0,0,1,1.69-1.69 h .17 a 1.69,1.69,0,0,1,1.69,1.69Z"/>
    <path d="M 313.2,281.88 H 313 a 2.51,2.51,0,0,0-2.5,2.5v.24 a 2.51,2.51,0,0,0,2.5,2.5 h .24 a 2.51,2.51,0,0,0,2.5-2.5v-.24 A 2.51,2.51,0,0,0,313.2,281.88Z m 1.65,2.7 a 1.69,1.69,0,0,1-1.69,1.69 H 313 a 1.69,1.69,0,0,1-1.69-1.69v-.17 a 1.69,1.69,0,0,1,1.69-1.69 h .17 a 1.69,1.69,0,0,1,1.69,1.69Z"/>
    <path d="M 323.34,295.08 h .24 a 2.51,2.51,0,0,0,2.5-2.5v-.24 a 2.51,2.51,0,0,0-2.5-2.5 h -.24 a 2.51,2.51,0,0,0-2.5,2.5v.24 A 2.51,2.51,0,0,0,323.34,295.08Z m -1.65-2.7 a 1.69,1.69,0,0,1,1.69-1.69 h .17 a 1.69,1.69,0,0,1,1.69,1.69v.17 a 1.69,1.69,0,0,1-1.69,1.69 h -.17 a 1.69,1.69,0,0,1-1.69-1.69Z"/>
    <path d="M 331.34,300.75 h .24 a 2.51,2.51,0,0,0,2.5-2.5V298 a 2.51,2.51,0,0,0-2.5-2.5 h -.24 a 2.51,2.51,0,0,0-2.5,2.5v.24 A 2.51,2.51,0,0,0,331.34,300.75Z m -1.65-2.7 a 1.69,1.69,0,0,1,1.69-1.69 h .17 a 1.69,1.69,0,0,1,1.69,1.69v.17 a 1.69,1.69,0,0,1-1.69,1.69 h -.17 a 1.69,1.69,0,0,1-1.69-1.69Z"/>
    <path d="M 300.9,312.54 h .24 a 2.51,2.51,0,0,0,2.5-2.5v-.24 a 2.51,2.51,0,0,0-2.5-2.5 h -.24 a 2.51,2.51,0,0,0-2.5,2.5V310 A 2.51,2.51,0,0,0,300.9,312.54Z m -1.65-2.7 a 1.69,1.69,0,0,1,1.69-1.69 h .17 a 1.69,1.69,0,0,1,1.69,1.69V310 a 1.69,1.69,0,0,1-1.69,1.69 h -.17 a 1.69,1.69,0,0,1-1.69-1.69Z"/>
    <path d="M 312.53,272.4 h .24 a 2.51,2.51,0,0,0,2.5-2.5v-.24 a 2.51,2.51,0,0,0-2.5-2.5 h -.24 a 2.51,2.51,0,0,0-2.5,2.5v.24 A 2.51,2.51,0,0,0,312.53,272.4Z m -1.65-2.7 a 1.69,1.69,0,0,1,1.69-1.69 h .17 a 1.69,1.69,0,0,1,1.69,1.69v.17 a 1.69,1.69,0,0,1-1.69,1.69 h -.17 a 1.69,1.69,0,0,1-1.69-1.69Z"/>
    <path d="M 322.66,264.38 h .24 a 2.51,2.51,0,0,0,2.5-2.5v-.24 a 2.51,2.51,0,0,0-2.5-2.5 h -.24 a 2.51,2.51,0,0,0-2.5,2.5v.24 A 2.51,2.51,0,0,0,322.66,264.38Z m -1.65-2.7 a 1.69,1.69,0,0,1,1.69-1.69 h .17 a 1.69,1.69,0,0,1,1.69,1.69v.17 a 1.69,1.69,0,0,1-1.69,1.69 h -.17 a 1.69,1.69,0,0,1-1.69-1.69Z"/>
    <path d="M 298.67,278.34v.24 a 2.51,2.51,0,0,0,2.5,2.5 h .24 a 2.51,2.51,0,0,0,2.5-2.5v-.24 a 2.51,2.51,0,0,0-2.5-2.5 h -.24 A 2.51,2.51,0,0,0,298.67,278.34Z m .85,0 a 1.69,1.69,0,0,1,1.69-1.69 h .17 a 1.69,1.69,0,0,1,1.69,1.69v.17 a 1.69,1.69,0,0,1-1.69,1.69 h -.17 a 1.69,1.69,0,0,1-1.69-1.69Z"/>
    <path d="M 275,232.64 h .27 a 2.81,2.81,0,0,0,1.95-.79,2.81,2.81,0,0,0-.05.52v.27 a 2.84,2.84,0,0,0,2.83,2.83 h .27 a 2.83,2.83,0,0,0,2.29-1.19,2.8,2.8,0,0,0-.06.58v.27 A 2.84,2.84,0,0,0,285.3,238 h .27 a 2.83,2.83,0,0,0,2.43-1.41,2.78,2.78,0,0,0,0,.41v.27 a 2.84,2.84,0,0,0,2.83,2.83 h .27 a 2.83,2.83,0,0,0,2.42-1.38,2.84,2.84,0,0,0,2.83,2.82 h .27 a 2.83,2.83,0,0,0,2.64-1.85,2.83,2.83,0,0,0,2.82,2.77 h .41 a 2.79,2.79,0,0,0-.38,1.2 l 0,.27 a 2.84,2.84,0,0,0,2.63,3 l .27,0 a 2.78,2.78,0,0,0,.93-.1,2.78,2.78,0,0,0-.18.78 l 0,.27 a 2.84,2.84,0,0,0,2.63,3 l .27,0 a 2.84,2.84,0,0,0,3-2.63 l 0-.27 a 2.8,2.8,0,0,0-.48-1.75 h .17 a 2.84,2.84,0,0,0,3-2.63 l 0-.27 a 2.83,2.83,0,0,0-1.48-2.67,2.78,2.78,0,0,0,.68.09 h .27 a 2.84,2.84,0,0,0,2.83-2.83v-.27 a 2.78,2.78,0,0,0-.15-.85,2.81,2.81,0,0,0,1.94.78 h .27 a 2.84,2.84,0,0,0,2.83-2.83v-.27 a 2.79,2.79,0,0,0-.26-1.16,2.79,2.79,0,0,0,1.21.29 h .27 a 2.84,2.84,0,0,0,2.83-2.83v-.27 a 2.84,2.84,0,0,0-2.83-2.83 h -.27 a 2.76,2.76,0,0,0-.33,0,2.78,2.78,0,0,0,.17-.93v-.27 a 2.84,2.84,0,0,0-2.83-2.83 h -.27 a 2.84,2.84,0,0,0-2.83,2.83v.27 a 2.79,2.79,0,0,0,.32,1.27,2.79,2.79,0,0,0-1.2-.28 h -.27 a 2.84,2.84,0,0,0-2.83,2.83v.25 a 2.8,2.8,0,0,0-1.5-.44 h -.27 a 2.84,2.84,0,0,0-2.76,2.21,2.83,2.83,0,0,0-2.33-1.24 h -.27 a 2.83,2.83,0,0,0-2.64,1.85,2.83,2.83,0,0,0-2.71-2.06 h -.27 a 2.83,2.83,0,0,0-2.41,1.37,2.84,2.84,0,0,0-2.78-2.32 h -.27 a 2.81,2.81,0,0,0-1.9.75,2.83,2.83,0,0,0-2.82-2.77 h -.27 a 2.81,2.81,0,0,0-1.89.74v-.18 a 2.84,2.84,0,0,0-2.83-2.83 h -.27 a 2.8,2.8,0,0,0-1.5.44 s 0-.07,0-.11V226 a 2.84,2.84,0,0,0-2.83-2.83 h -.27 a 2.84,2.84,0,0,0-2.83,2.83v.27 a 2.8,2.8,0,0,0,.21,1.06,2.8,2.8,0,0,0-1.77-.64 H 275 a 2.84,2.84,0,0,0-2.83,2.83v.27 A 2.84,2.84,0,0,0,275,232.64Z m 6.55-2.78 a 2.79,2.79,0,0,0-1.28-.32 H 280 a 2.81,2.81,0,0,0-1.95.79,2.81,2.81,0,0,0,.05-.52v-.27 a 2.8,2.8,0,0,0-.21-1.06,2.8,2.8,0,0,0,1.77.64 h .27 a 2.8,2.8,0,0,0,1.5-.44 s 0,.07,0,.11v.27 A 2.78,2.78,0,0,0,281.51,229.86Z m .59,2.74 a 1.92,1.92,0,0,1-1.91,1.91 H 280 a 1.92,1.92,0,0,1-1.91-1.91v-.19 A 1.92,1.92,0,0,1,280,230.5 h .19 a 1.92,1.92,0,0,1,1.91,1.91Z m .9.63 a 2.81,2.81,0,0,0,.06-.58v-.27 a 2.78,2.78,0,0,0-.13-.8,2.79,2.79,0,0,0,1.28.32 h .27 a 2.81,2.81,0,0,0,1.89-.74v.18 a 2.78,2.78,0,0,0,.16.89,2.79,2.79,0,0,0-1-.18 h -.27 A 2.83,2.83,0,0,0,283,233.23Z m 4.43,1.87 a 1.92,1.92,0,0,1-1.91,1.91 h -.19 a 1.92,1.92,0,0,1-1.91-1.91v-.19 a 1.92,1.92,0,0,1,1.91-1.91 h .19 a 1.92,1.92,0,0,1,1.91,1.91Z m .92.45 a 2.77,2.77,0,0,0,0-.41v-.27 a 2.78,2.78,0,0,0-.16-.89,2.79,2.79,0,0,0,1,.18 h .27 a 2.81,2.81,0,0,0,1.9-.75,2.78,2.78,0,0,0,.14.78,2.79,2.79,0,0,0-.45,0 h -.27 A 2.82,2.82,0,0,0,288.36,235.56Z m 4.57,1.65 a 1.92,1.92,0,0,1-1.91,1.91 h -.19 a 1.92,1.92,0,0,1-1.91-1.91V237 a 1.92,1.92,0,0,1,1.91-1.91 H 291 a 1.92,1.92,0,0,1,1.91,1.91Z m 1-.24 a 2.78,2.78,0,0,0-.14-.83,2.79,2.79,0,0,0,.45,0 h .4 A 2.85,2.85,0,0,0,293.89,237Z m 4.56,1.68 a 1.92,1.92,0,0,1-1.91,1.91 h -.19 a 1.92,1.92,0,0,1-1.91-1.91v-.19 a 1.92,1.92,0,0,1,1.91-1.91 h .19 a 1.92,1.92,0,0,1,1.91,1.91Z m 1-.29 a 2.79,2.79,0,0,0-.35-1.29,2.8,2.8,0,0,0,.61.07 h .27 a 2.77,2.77,0,0,0,.39,0 A 2.84,2.84,0,0,0,299.41,238.35Z m 2.88,3.12 h -.19 a 1.92,1.92,0,0,1-1.91-1.91v-.19 a 1.92,1.92,0,0,1,1.91-1.91 h .19 a 1.92,1.92,0,0,1,1.91,1.91v.19 A 1.92,1.92,0,0,1,302.29,241.47Z m 2.86-1.75 a 2.82,2.82,0,0,0,.7,1.37,2.79,2.79,0,0,0-.47-.08 l -.27,0 a 2.76,2.76,0,0,0-.33,0 A 2.79,2.79,0,0,0,305.15,239.72Z M 308.9,245 h -.17 a 2.78,2.78,0,0,0-.93.1,2.78,2.78,0,0,0,.18-.78 l 0-.27 a 2.82,2.82,0,0,0-.74-2.1,2.79,2.79,0,0,0,.66.09 h .27 a 2.8,2.8,0,0,0,.52-.05,2.79,2.79,0,0,0-.27,1 l 0,.27 A 2.8,2.8,0,0,0,308.9,245Z m 1.16-5.85 a 1.92,1.92,0,0,1-1.91,1.91 H 308 a 1.92,1.92,0,0,1-1.91-1.91V239 A 1.92,1.92,0,0,1,308,237 h .19 a 1.92,1.92,0,0,1,1.91,1.91Z M 304.81,246 a 1.92,1.92,0,0,1-1.78-2v-.19 a 1.92,1.92,0,0,1,2-1.78 h .19 a 1.92,1.92,0,0,1,1.78,2v.19 a 1.92,1.92,0,0,1-2,1.78Z m 5.85,2.23 a 1.92,1.92,0,0,1-2,1.77 h -.19 a 1.92,1.92,0,0,1-1.78-2v-.19 a 1.92,1.92,0,0,1,2-1.77 h .19 a 1.92,1.92,0,0,1,1.78,2Z m 2.74-4.83v.19 a 1.92,1.92,0,0,1-2,1.77 h -.19 a 1.92,1.92,0,0,1-1.78-2v-.19 a 1.92,1.92,0,0,1,2-1.78 h .19 A 1.92,1.92,0,0,1,313.4,243.35Z m -1.67-3-.27,0 a 2.78,2.78,0,0,0-.72.05,2.79,2.79,0,0,0,.28-1.2,2.84,2.84,0,0,0,1.21,1.25 A 2.8,2.8,0,0,0,311.73,240.36Z m 2-6.81v-.25 a 2.8,2.8,0,0,0,1.5.44 h .27 l .23,0 a 2.78,2.78,0,0,0-.13.81v.27 a 2.78,2.78,0,0,0,.15.85,2.81,2.81,0,0,0-1.94-.78 h -.42 A 2.79,2.79,0,0,0,313.76,233.54Z m 1.94,4.38 a 1.92,1.92,0,0,1-1.91,1.91 h -.19 a 1.92,1.92,0,0,1-1.91-1.91v-.19 a 1.92,1.92,0,0,1,1.91-1.91 h .19 a 1.92,1.92,0,0,1,1.91,1.91Z m 4.9-3.17 a 1.92,1.92,0,0,1-1.91,1.91 h -.19 a 1.92,1.92,0,0,1-1.91-1.91v-.19 a 1.9,1.9,0,0,1,.54-1.32,2.87,2.87,0,0,0,.33-.28,1.89,1.89,0,0,1,1-.31 h .19 a 1.92,1.92,0,0,1,1.91,1.91Z m -2.55-5.39 a 2.79,2.79,0,0,0,1.2.28 h .27 a 2.75,2.75,0,0,0,.33,0,2.78,2.78,0,0,0-.17.93v.27 a 2.79,2.79,0,0,0,.26,1.16,2.79,2.79,0,0,0-1.21-.29 h -.27 l -.23,0 a 2.78,2.78,0,0,0,.13-.81v-.27 A 2.78,2.78,0,0,0,318.05,229.36Z m 4.51-.69 h .19 a 1.92,1.92,0,0,1,1.91,1.91v.19 a 1.92,1.92,0,0,1-1.91,1.91 h -.19 a 1.92,1.92,0,0,1-1.91-1.91v-.19 A 1.92,1.92,0,0,1,322.56,228.67Z m -5.18-2.09 a 1.92,1.92,0,0,1,1.91-1.91 h .19 a 1.92,1.92,0,0,1,1.91,1.91v.19 a 1.92,1.92,0,0,1-1.91,1.91 h -.19 a 1.92,1.92,0,0,1-1.91-1.91Z m -4,4.09 a 1.92,1.92,0,0,1,1.91-1.91 h .19 a 1.92,1.92,0,0,1,1.91,1.91v.19 a 1.9,1.9,0,0,1-.54,1.32,2.87,2.87,0,0,0-.33.27,1.89,1.89,0,0,1-1,.31 h -.19 a 1.92,1.92,0,0,1-1.91-1.91Z m -4.6,2.64 a 1.92,1.92,0,0,1,1.91-1.91 h .19 a 1.92,1.92,0,0,1,1.91,1.91v.19 a 1.92,1.92,0,0,1-1.91,1.91 h -.19 a 1.92,1.92,0,0,1-1.91-1.91Z m 1.87,3.06 h .42 a 2.79,2.79,0,0,0-.35,1.33,2.83,2.83,0,0,0-2.54-1.6 h -.27 a 2.81,2.81,0,0,0,.4-.95 A 2.83,2.83,0,0,0,310.66,236.37Z m -7.23-2.08 a 1.92,1.92,0,0,1,1.91-1.91 h .19 a 1.92,1.92,0,0,1,1.91,1.91v.19 a 1.92,1.92,0,0,1-1.91,1.91 h -.19 a 1.92,1.92,0,0,1-1.91-1.91Z m -.84,1 a 2.83,2.83,0,0,0,2.71,2.06 h .27 a 2.81,2.81,0,0,0-.46,1.44,2.84,2.84,0,0,0-2.77-2.29 h -.27 a 2.77,2.77,0,0,0-.39,0 A 2.84,2.84,0,0,0,302.59,235.29Z m -4.78-1.21 a 1.92,1.92,0,0,1,1.91-1.91 h .19 a 1.92,1.92,0,0,1,1.91,1.91v.19 a 1.92,1.92,0,0,1-1.91,1.91 h -.19 a 1.92,1.92,0,0,1-1.91-1.91Z m -.91.74 a 2.79,2.79,0,0,0,.31.84,2.8,2.8,0,0,0-.61-.07 h -.4 A 2.85,2.85,0,0,0,296.89,234.81Z m -4.55-1.69 a 1.92,1.92,0,0,1,1.91-1.91 h .19 a 1.92,1.92,0,0,1,1.91,1.91v.19 a 1.92,1.92,0,0,1-1.91,1.91 h -.19 a 1.92,1.92,0,0,1-1.91-1.91Z m -5-2 a 1.92,1.92,0,0,1,1.91-1.91 h .19 a 1.92,1.92,0,0,1,1.91,1.91v.19 a 1.92,1.92,0,0,1-1.91,1.91 h -.19 a 1.92,1.92,0,0,1-1.91-1.91Z m -3.09-4.18 h .19 a 1.92,1.92,0,0,1,1.91,1.91V229 a 1.92,1.92,0,0,1-1.91,1.91 h -.19 a 1.92,1.92,0,0,1-1.91-1.91v-.19 A 1.92,1.92,0,0,1,284.25,226.92Z m -6.5-.86 a 1.92,1.92,0,0,1,1.91-1.91 h .19 a 1.92,1.92,0,0,1,1.91,1.91v.19 a 1.92,1.92,0,0,1-1.91,1.91 h -.19 a 1.92,1.92,0,0,1-1.91-1.91Z m -4.66,3.52 a 1.92,1.92,0,0,1,1.91-1.91 h .19 a 1.92,1.92,0,0,1,1.91,1.91v.19 a 1.92,1.92,0,0,1-1.91,1.91 H 275 a 1.92,1.92,0,0,1-1.91-1.91Z"/>
    <path d="M 284.37,288.54 c .89.18,1.76.3,2.62.4v.26 a 2.51,2.51,0,0,0,2.5,2.5 h .24 a 2.51,2.51,0,0,0,2.5-2.5V289 c 7.89-.66,13.89-5.08,16.31-12.33 C 303.17,284,296.86,286.89,292,288 a 2.51,2.51,0,0,0-2.31-1.54 h -.24 a 2.5,2.5,0,0,0-2.47,2.2 A 16.55,16.55,0,0,1,284.37,288.54Z m 7,.62 a 1.69,1.69,0,0,1-1.69,1.69 h -.17 a 1.69,1.69,0,0,1-1.69-1.69V289 a 26.72,26.72,0,0,0,3.54.07Z m -1.85-1.85 h .17 a 1.68,1.68,0,0,1,1.47.88,25.38,25.38,0,0,1-3.28.43 A 1.69,1.69,0,0,1,289.53,287.31Z"/>
  </g>
<script type="text/ecmascript" xlink:href="param.min.js"/> 
</svg>
