<?xml version="1.0"?>
<svg xmlns="http://www.w3.org/2000/svg" xmlns:xlink="http://www.w3.org/1999/xlink" viewBox="0 0 215 215">
  <title>voluptuous-top-template</title>
  <g id="skin-tone">
    <path d="M 124.08,107.72 a 16.57,16.57,0,0,0-31.91-6.46 h 0 s -2.94,4.16-4.78,12.72 a 88.41,88.41,0,0,0,.31,39.59 c 4.07,16.49,10.35,28.88,12.65,31.57 s 7.73,5.27,12.3,2.71,5.4-6.11,6.31-13.35,1.95-25.65,2.35-32.06 S 123,119.21,123,119.21 l .79-8.48 h 0 A 16.62,16.62,0,0,0,124.08,107.72Z" fill="param(skin_tone)"/>
  </g>
  <g id="main-colour">
    <path d="M 87.34,113.13 s 18.21,8.17,35.87.82 c -.2,5.92-1.57,18.45-1.57,18.45 s -18.58,6.53-36-1.43 C 85.3,123.42,87.34,113.13,87.34,113.13Z" fill="param(main_colour)"/>
  </g>
  <g id="outline">
    <path d="M 123.31,113.54 c -14.33,6.21-30.19.73-34.76-1.11 a 65.65,65.65,0,0,1,3.61-11.18,13.08,13.08,0,0,0-2.76,3,32.71,32.71,0,0,0-2.58,7.31,82.26,82.26,0,0,0-.22,42.92,131.84,131.84,0,0,0,11.55,29.19,11.12,11.12,0,0,0,.83,1.46v0 h 0 a 11.08,11.08,0,0,0,20-3.76 h 0v0 c .05-.24.09-.48.13-.72 A 139.49,139.49,0,0,0,121,166 c .18-5.12,1.42-27,1.75-33.61 s 1-21.69,1-21.69 S 123.58,111.81,123.31,113.54Z m -4.55,52.7 c -.19,3.22-.47,6.25-.8,8.83-.21,1.63-.53,3.47-.77,4.74,0,.24-.06.47-.1.7 s -.13.59-.19.85 h 0 A 9.08,9.08,0,0,1,100,183 h 0 l -.15-.24 c -1.73-2.89-9.63-20-12-32.74 a 104.15,104.15,0,0,1-1.66-17.71 c 15.26,6,30.21,2.24,34.53.9,0,.2,0,.4,0,.59 C 120.41,140.89,119.08,160.88,118.76,166.25Z m 2.16-35 c -16.1,5.75-32.3.37-34.68-.49 a 73.81,73.81,0,0,1,1.36-14.09 c .16-.76.32-1.48.47-2.18,22.21,7.65,34,1.7,34.91,1.19 C 122.28,120.07,121.34,126.54,120.92,131.23Z"/>
  </g>
<script type="text/ecmascript" xlink:href="param.min.js"/> 
</svg>
