<?xml version="1.0"?>
<svg xmlns="http://www.w3.org/2000/svg" xmlns:xlink="http://www.w3.org/1999/xlink" viewBox="0 0 600 600">
  <title>OA032-bikini-bottoms-hourglass</title>
  <g id="skin-tone">
    <path d="M 324.81,336.57 c -4.1-5.85-5.17-8.93-4.76-14.14 s 4.92-13.67,8.5-19.67 A 57.44,57.44,0,0,0,333.62,290 l -.39.11,1-6.84 s .89-5.48,1.43-14 c .42-6.66.49-8.53-.67-13.33-.41-1.69-1.32-4.74-1.85-6.49 l -.15.11-.62-1.55 a 11.64,11.64,0,0,0-11.8-19.68v-.38 c -10.71-2.26-13.38-13.35-14.21-20.26-2.16.19-4.35.31-6.56.31 s -4.42-.12-6.6-.31 a 26.62,26.62,0,0,1-3.55,11 c -3.25,5.75-8.25,8.42-14.42,10.25-5.33-2.17-11.92-4-16.83-1.17 s -7.33,8-6.42,14 S 257.88,251,263,252.18 c -.08,8.08,1.5,22.33,4.83,29.25 s 9.33,14.42,11.92,17.92,4.42,9.42,2.92,18.08 c -.68,3.92-3.19,8-6.13,11.66 l .14.31 c -4,4.67-12.17,10-18.41,19.32 s -5.59,22.44-5.59,22.44 h 0 s 0,.07,0,.1 a 25.5,25.5,0,0,0,45.14,16.26,25.51,25.51,0,0,0,37.88-30.14 c -.49-7.77-10.86-20.7-10.86-20.7Z" fill="param(skin_tone)"/>
  </g>
  <g id="main-colour">
    <path d="M 287.47,345.65 s 3.13.25,10.13,3.38,10.38,4.63,16.25,2.38,9.75-5.25,14.38-5.25 c -4.5,3-8.62,8.5-11,14.25 s -3.75,14.75-7.37,19.75-9.5,7.5-11,7.63 a 28.42,28.42,0,0,0,5-22.75 C 302.22,357.9,297.1,351.9,287.47,345.65Z" fill="param(main_colour)"/>
  </g>
  <g id="outline">
    <path d="M 307.66,333.57 c 1.05,0,1.45-1.69.36-3.44 a 29,29,0,0,1,.69-6.29 S 305.09,333.26,307.66,333.57Z"/>
    <path d="M 316.56,227.78 c -.27.19-.54.39-.8.6 a 45.79,45.79,0,0,1-4.92,2.38 l 3.08-.58 a 33.59,33.59,0,0,0,4.13-1 c 2.86-1.07,5.16-3.73,11-2.15-2.08-1.37-5.25-2.7-10.34-.47 a 13.57,13.57,0,0,1-8.33-7.28,32.56,32.56,0,0,1-2.86-11.7 c -.75.08-1.51.13-2.26.18.29,3.66,1.23,10.58,4.2,14.44 C 312.57,226.21,315.34,227.42,316.56,227.78Z"/>
    <path d="M 325.94,339.34 c 4,5.68,8.79,13.18,10.69,17.75,0,0-.75-5.5-6.92-14.67 s -9.83-13-8.92-20.08 c .77-5.92,5.19-13.63,8.09-18.78 h 0 c 4-6.29,6.26-15.15,6.64-20.91,2.45-15.76,1.3-27.24-2.3-34.76 a 47.63,47.63,0,0,0-7.43-11.47 s 4.65,5.6,7.05,16.6 c 3.25,14.88,0,31.88,0,31.88 a 46.12,46.12,0,0,1-5.68,18.35 c -4.42,7.33-7.08,13.75-8,18.75-.83,4.54.95,9.2,3,12.28Z m -28,48.18-.05,0 a 25.48,25.48,0,0,1-45.15-16.23,25.7,25.7,0,0,1,.21-3.25 h 0 s -.44-4.85,2.92-12.72 a 42.13,42.13,0,0,1,7.45-11 c 2.18-2.33,7.39-7.09,11.86-12 l 3.83-4.59 a 27.78,27.78,0,0,0,2.64-4.12 c 3.5-7,4.25-17,0-23.33 s -7.83-9.08-12.75-19.17 c -4.23-8.68-4.67-23.75-4.71-27.77,0-.41,0-1.11-.1-2 a 12,12,0,0,1,.54-24,7.81,7.81,0,0,1,2,.18,12,12,0,0,1,1.62.38,68.27,68.27,0,0,1,7.12,2.48,71.52,71.52,0,0,0,8.34,2.35,45.44,45.44,0,0,0,15.17.32 c -7.64.23-15.54-1.92-20.85-3.88 a 21.35,21.35,0,0,0,11.69-8.45,27.22,27.22,0,0,0,4.47-12.86 c -.71-.05-1.42-.1-2.12-.17 a 23.65,23.65,0,0,1-5.85,14.28,19.43,19.43,0,0,1-11.63,5.88,47.82,47.82,0,0,0-5.16-1.64 A 14,14,0,1,0,262.13,253 c 0,.18-.55,6.82,1.83,18.9,2.42,12.25,8.83,20,14.25,26.83 s 5.17,17.5.67,25.58-17.5,15.75-23.42,27.83 a 41.22,41.22,0,0,0-4.07,13,27.47,27.47,0,0,0,47.5,24.11Z"/>
    <path d="M 265.21,342.34 l .31-1.38 s -8.65-8-15.86-4.28 c -6.75,3.44,1.5,7.81,11.81,5.74-2.13,1.07-5.72,2.62-8.54,2.63-4.3,0-6.65,2.56-7.42,5.2,1.34-1.7,3.11-3.79,6-3.77 a 19.56,19.56,0,0,0,7.75-2,22.63,22.63,0,0,0-4.08,5.43,10.22,10.22,0,0,1-4.15,4.27 c 1.33.57,4-1.67,5.45-4.85 a 13.27,13.27,0,0,1,3.55-4.18 c -3.1,4.46-2.18,10.23,1.51,6.85 C 267.39,346.61,265.21,342.34,265.21,342.34Z m -14.5-2 c -2.85-1.41-.94-3.07,3.21-3.31,5.54-.32,10.09,3.69,10.09,3.69 C 259.64,342.11,253.71,341.86,250.7,340.37Z m 9,7.39 c 1.27-3.59,5.12-5.76,5.12-5.76 a 10.71,10.71,0,0,1-2.26,7.26 C 259.81,352.93,258.42,351.34,259.69,347.75Z"/>
    <path d="M 342,349.58 c -.62-6.08-12.54-5-12.54-5 S 342.59,355.66,342,349.58Z m -1.82.2 c -1,1.17-8.81-4.63-8.81-4.63 C 338.1,345.45,341.12,348.6,340.16,349.77Z"/>
    <path d="M 333,347.91 s -1.46-.32.59,1.36 c 5.72,5.44,8.38,5.9,11,4.48 C 340.85,354.53,333,347.91,333,347.91Z"/>
    <path d="M 329.81,344.23 a 39.94,39.94,0,0,0-11.46,4.29 c -7,4-11.5,3.88-18.37.75-7.74-3.52-17-7.37-35.5-8.12 a 3.81,3.81,0,0,0-1,1.42 s 11,1.17,13.92,1.67 C 294,347.09,301.31,358.4,303,365.57 s -.08,17.33-7,24 c 3.08-.08,9.75-1.67,15-9.17,3.5-5,4.43-14.45,8.67-22.83,5.33-10.54,11.21-11.92,11.21-11.92Z m -19.5,33.5 c -1.86,3.45-4.33,7-9.46,8.54,5.13-7.75,6.63-17.75,1.38-27.25 s -12.5-12.25-12.5-12.25 c 5.88,1.75,9.13,4.25,13.75,5.88 a 14.41,14.41,0,0,0,11.5-.5 c 3.13-1.5,8.13-5,11.63-5.25 C 315.1,354.52,313.81,371.23,310.31,377.73Z"/>
  </g>
<script type="text/ecmascript" xlink:href="param.min.js"/> 
</svg>
