<?xml version="1.0"?>
<svg xmlns="http://www.w3.org/2000/svg" xmlns:xlink="http://www.w3.org/1999/xlink" viewBox="0 0 150 150">
  <title>basic-flip-flops</title>
  <g id="skin-tone">
    <path d="M 105.3,93 a 4,4,0,0,0-3.61-.71 c -1.31.24-6.86,0-12-4.43 s -8.24-8-9.56-11 a 4,4,0,0,1-.39-2.31 h 0 a 4.74,4.74,0,0,0-9.46.43,20.12,20.12,0,0,1-1.42,5.71 c -1.19,2.7-4.59,6.12-4.59,8.81 s .4,5.39,2.79,6.34,6,.47,8.73.28 A 11.62,11.62,0,0,1,84,98.4 c 2.68,2.08,5,3.94,6.45,4.14 a 3.54,3.54,0,0,0,3.05-.8 c 1.55.67,3.45.63,4.28-1,1.9.12,2.7-.44,3.13-1.39,1.55.2,2.86-.2,3.05-2.3 C 105.86,96.41,106.49,93.95,105.3,93Z" fill="param(skin_tone)"/>
  </g>
  <g id="main-colour">
    <path d="M 64.6,92.82 s 1.5,3.58,4.5,3.75,9-.29,9.17-.29,2.58-1.37,4.5-2.21 a 19.28,19.28,0,0,1,12-1.92,10.78,10.78,0,0,0-3-2.25,4.11,4.11,0,0,1,3.63.88,4.71,4.71,0,0,1,1.58,3,16.17,16.17,0,0,0-7-.21 c -2.67.46-6.37,3.33-7.58,3.83 a 12.31,12.31,0,0,1,3.33,2.29 c .79.79,5.38,4.75,7.67,2.12,2.21.67,4,.44,4.46-1.11,1.45.41,3-.32,3.13-1.39 a 2.42,2.42,0,0,0,3.11-2.16,2.7,2.7,0,0,0,1.79-1.83,2.53,2.53,0,0,1,.92,2 c 0,1.46-.46,3.79-.37,4.63 a 14.42,14.42,0,0,1-8.08,4.83,17.33,17.33,0,0,1-11.87-1.23 c -4.58-2.19-4.67-3.35-9.62-3.77 s -10.54,0-13.79-1.67 c -.46-2.63-.92-4.71-.54-5.29 A 17.5,17.5,0,0,1,64.6,92.82Z" fill="param(main_colour)"/>
  </g>
  <g id="fixed-colours">
    <path d="M 93.18,100.57 s -1.35-.12-1.82.63 c -.24-.56,0-1.65,1.47-1.45Z" fill="#fff"/>
    <path d="M 97.76,99.59 a 3.19,3.19,0,0,0-2.32.91 c -.28-.65-.18-1.82,1.8-1.92 C 97.66,98.82,97.76,99.59,97.76,99.59Z" fill="#fff"/>
    <path d="M 100.78,98.17 s -1.59.06-2.08.75 c -.22-.54-.06-1.78,1.8-1.73 A 1.27,1.27,0,0,1,100.78,98.17Z" fill="#fff"/>
    <path d="M 103.57,96.26 s -1.31.42-1.61,1.13 c -.52-.44-.56-1.69,1-1.92Z" fill="#fff"/>
    <path d="M 104.25,92.65 a 1.49,1.49,0,0,0-.06,2.43,4.76,4.76,0,0,1,1.05-1.52 A 2.9,2.9,0,0,0,104.25,92.65Z" fill="#fff"/>
  </g>
  <g id="outline">
    <path d="M 106.46,95 a 2.68,2.68,0,0,0-1.07-2.71 c -2.06-1.35-3.32-.29-6.77-.49 A 8.11,8.11,0,0,1,95.94,91 a 4.54,4.54,0,0,0-2.59-1.41,50,50,0,0,1-6-4.63 c -3.75-3.3-5.44-5.61-5.58-10 A 6.76,6.76,0,0,0,75,68.25 h 0 A 6.75,6.75,0,0,0,68.25,75 c 0,.11,0,.2,0,.31v.06 s 0,.06,0,.09 l 0,0 a 17.63,17.63,0,0,1-3.23,10,8.52,8.52,0,0,0-1.19,7.33,4.3,4.3,0,0,0-1.93,2.71 h 0v.1 a 2,2,0,0,0,.1.69 l .6,4.23 s 3,1.4,9.46,1.48,8.75.83,12.17,2.92 a 18.41,18.41,0,0,0,17.37,1.17 c 4-1.75,5-3.92,5-3.92 l .34-3.32 A 5.4,5.4,0,0,0,106.46,95Z M 105,93.5 a 2.58,2.58,0,0,0-.88,1.36,1,1,0,0,1-.39-1.19,1.51,1.51,0,0,1,.46-.75 A 2.25,2.25,0,0,1,105,93.5Z M 98.8,93 c 2.71.2,2.89-.33,4.43-.27 a 2.62,2.62,0,0,1,.65.11,1.87,1.87,0,0,0-.46,1,1.14,1.14,0,0,0,.42,1.13 l .41.32.08-.34 a 2,2,0,0,1,.87-1.13,1.7,1.7,0,0,1,.22,1.28,2.38,2.38,0,0,1-1,1.32 c -.28-1.68-1.53-2.49-3.46-2.24 a 9.28,9.28,0,0,1-3.7-.45,7.52,7.52,0,0,0-.31-1.11 A 9.48,9.48,0,0,0,98.8,93Z m 2.5,3.74 c -.89-1.46-4.4-.95-7.11-3 a 11.26,11.26,0,0,0,4,2.37,2,2,0,0,0-.62.42 s 1.63-.63,2.41.44 h 0 a 1.81,1.81,0,0,0-1.33.7 A 1.42,1.42,0,0,0,98.52,99 l .1.27.21-.21 a 2.64,2.64,0,0,1,1.77-.66,1.83,1.83,0,0,1-.4,1.06,2.77,2.77,0,0,1-1.79.88 c .09-2.59-1.52-3.58-3.42-3.43 a 7.34,7.34,0,0,1-3.63-1.78,5.07,5.07,0,0,0,4.08,2.46,2.22,2.22,0,0,0-1.09.89 s 1.49-1.07,2.46,0 h 0 a 2.16,2.16,0,0,0-1.56.88,1.31,1.31,0,0,0,0,1.27 l .13.25.19-.22 a 3.74,3.74,0,0,1,1.91-1,1.88,1.88,0,0,1-.7,1.52,3.37,3.37,0,0,1-2.5.35,2.24,2.24,0,0,0-1.54-2.74,7.63,7.63,0,0,1-3.81-2.41,6.81,6.81,0,0,0,3.31,3.19 h -.16 a 1.19,1.19,0,0,0-.94.62,1.13,1.13,0,0,0,0,1.09 l .11.2.18-.15 a 2.51,2.51,0,0,1,1.48-.63 c .06.64-.29,1.29-1.4,1.27-1.86,0-4.4-2-7.46-4.47 a 5.23,5.23,0,0,0-.61-.41 A 18.1,18.1,0,0,0,85.18,96,14.56,14.56,0,0,1,97,94 a 7.52,7.52,0,0,0,4.14.89,1,1,0,0,0-.45.51,2.59,2.59,0,0,1,2.17-.11,2.77,2.77,0,0,0-1.31.94,1.39,1.39,0,0,0,.29,1.32 l .17.22.14-.24 a 3,3,0,0,1,1.46-1.06,3,3,0,0,1-.16,1.11 A 1.77,1.77,0,0,1,101.6,99,2.86,2.86,0,0,0,101.3,96.72Z M 100.59,98 a 3.86,3.86,0,0,0-1.83.66,1.37,1.37,0,0,1,.12-.77,1.77,1.77,0,0,1,1.35-.68 A 1.53,1.53,0,0,1,100.59,98Z m -3.14,1.29 a 4.18,4.18,0,0,0-1.93.91,1.14,1.14,0,0,1,0-.77,2,2,0,0,1,1.59-.8 A 1.37,1.37,0,0,1,97.45,99.31Z m -4.53,1.12 a 3.08,3.08,0,0,0-1.49.6.82.82,0,0,1,0-.68,1.14,1.14,0,0,1,.64-.52,1,1,0,0,1,.49,0 A 1.47,1.47,0,0,1,92.91,100.42Z M 85.1,93.32 a 17.43,17.43,0,0,1,10-.87 c 0-.71-1-1.62-2.79-2.5 a 4.38,4.38,0,0,1,4.42,3.58 c -4.67-1.21-8.58-.25-11,1.42 A 23.1,23.1,0,0,1,80.18,98 a 11.74,11.74,0,0,0-3.92-.75 C 78.31,96.82,81.81,94.65,85.1,93.32Z m 18.19,2.92 a 3.59,3.59,0,0,0-1.33,1,1.13,1.13,0,0,1-.19-1,1.41,1.41,0,0,1,1-.74 A 1.63,1.63,0,0,1,103.29,96.24Z m -34.9-12.9 A 13.2,13.2,0,0,0,70.25,75,4.75,4.75,0,0,1,75,70.25 h 0 A 4.75,4.75,0,0,1,79.75,75 a 15.29,15.29,0,0,0,.72,4.49 c 2.34,4.34,8.09,8.54,10,9.85 a 31.25,31.25,0,0,0,3,1.81,6,6,0,0,1,.83.72,20.44,20.44,0,0,0-8.42.58,44.46,44.46,0,0,0-7.34,3.17,37.15,37.15,0,0,0-6.07,0 c -2,.12-5.56,1-6.72-2.93 S 66.1,86.83,68.39,83.33Z M 64.19,93.71q.15.3.33.61 c 1.95,3.29,4.31,3.38,9.19,3 l 1.19-.06 c -.49.2-1,.41-1.5.6 a 15.19,15.19,0,0,1,6.79.83 s .46-.19,1.15-.52 c .52.18,1,.38,1.5.57,2.14.83,5,3.64,6.47,4.31,1.21.57,3.51.68,4.51-.45,1.51.44,3.79.41,4.44-1.29 A 3.08,3.08,0,0,0,101,100.2 l .11-.17 c 1,.07,3.09-.2,3.3-2.41 A 2.77,2.77,0,0,0,106,96.27 c 1.41,3.72-4.24,8.18-11.8,8.34-7,.15-7.29-2.21-12.67-4.58 s -8.46-.54-15.08-1.92 C 60.89,97,63.3,94.46,64.19,93.71Z M 98,106.53 c -5.17,1.17-9.14.08-13.25-2.35 a 18.22,18.22,0,0,0-10.83-3 c -3.75,0-8.06-.15-10.48-1.4-.16-.76-.28-1.46-.38-2.08,2,1.65,6.39,1.82,11.72,2,5.53.15,7.22,1.68,10.56,3.6 A 16.39,16.39,0,0,0,96,105.53 c 4.07-.34,8.24-2.35,10.11-4.86 L 106,102 A 15.63,15.63,0,0,1,98,106.53Z"/>
  </g>
<script type="text/ecmascript" xlink:href="param.min.js"/> 
</svg>
