<?xml version="1.0"?>
<svg xmlns="http://www.w3.org/2000/svg" xmlns:xlink="http://www.w3.org/1999/xlink" viewBox="0 0 600 600">
  <title>denim-shorts-voluptuous</title>
  <g id="skin-tone">
    <path d="M 349.08,313.37 c -3.74-6.12-7.64-11-8.26-15.9 s 3.88-17.5,6-27-.49-15.61-.49-15.61 l -.22-.53-.32-.26 a 16.13,16.13,0,0,0-8.84-26.25v-.39 c -2.24-1.41-6.76-.84-11.76.54-5.58-6-6.4-19.35-6.49-22.47 a 73.85,73.85,0,0,1-37.12.18 c .06,2.13.07,4.29,0,6.29-.37,8.5-6.12,17.25-6.12,17.25 s -7.75-2.87-14.5-3.12-13.12,4.13-15.87,9.63-2.75,12.13,1.5,18.75 c -2.5,13.63.38,23.13,3.75,34 s .5,15.5-3.37,21.38 c -1.79,2.71-4.32,6.78-6.89,11.55,7.13,3.53,20.36,9.06,41.43,13.5,30.92,6.51,56.22,5.44,72.68-10.63 A 57.22,57.22,0,0,0,349.08,313.37Z" fill="param(skin_tone)"/>
  </g>
  <g id="main-colour">
    <path d="M 294.14,337.15 a 213.32,213.32,0,0,1-54.33-15.31 A 107.54,107.54,0,0,0,231.94,340 a 56.16,56.16,0,0,0-2.41,23.67 c -.59,10.54.21,21.65,3.91,29.75,8.77,16.25,24.06,22.91,39.56,21.75 s 24.93-12.78,24.93-12.78 l .48-.25 A 38.43,38.43,0,0,0,359,370.72 s 2.57-25.64-5.05-46.89 C 340.84,339.62,311.06,339.44,294.14,337.15Z" fill="param(main_colour)"/>
    <path d="M 354.13,326.9q-.71-2.19-1.56-4.33 a 23.94,23.94,0,0,1-5.28,4.36 c -1.55-1.72-3.09-.51-2.9,1.64 a 63.66,63.66,0,0,1-12,4.55 c -1-1.29-2.33-.77-2.84.73 a 76.43,76.43,0,0,1-13.69,2,153.53,153.53,0,0,1-20.4-1 c -.42-1.89-2.17-1.88-3.18-.39 a 174.68,174.68,0,0,1-19.58-3.77 c .1-2.2-1.92-2.49-3.2-.84 a 177.68,177.68,0,0,1-18.75-6.21 c .24-2.39-1.73-3.12-3.15-1.29-2.74-1.16-4.6-2-5.48-2.47-.73,1.33-1.46,2.73-2.2,4.2,1.81.85,3.84,1.75,6.08,2.68 a 2.18,2.18,0,0,0,.11.86 c .69,1.75,2,1.48,2.88.35 a 195.7,195.7,0,0,0,19.13,6.37,2.27,2.27,0,0,0,.18.95 c .86,1.8,2.29,1.27,3-.09 a 180.55,180.55,0,0,0,20.07,4,2.45,2.45,0,0,0,.34,1.07 c 1.15,1.69,2.52.89,3-.64 a 139.9,139.9,0,0,0,18.77,1,84.46,84.46,0,0,0,16.5-1.81 c .7,1.42,2.35,1.89,3.26.25 a 2.75,2.75,0,0,0,.28-1.11,53.92,53.92,0,0,0,12.81-5.21 c 1,.95,2.15,1.21,2.77-.52 a 2.59,2.59,0,0,0,0-1.26 A 28.49,28.49,0,0,0,354.13,326.9Z" fill="param(main_colour)"/>
  </g>
  <g id="fixed-colours">
    <path d="M 318.47,344.9 s .5,19-2,34.33 A 76.15,76.15,0,0,0,318.47,344.9Z" opacity="0.5"/>
  </g>
  <g id="outline">
    <path d="M 245.77,253 s -3.17,14,.67,26.33,8.19,18.93,0,29.83 c -18.82,25.06-17.91,48.27-17.91,66.83 h 2 s -1.39-26.08,6.79-46.25 c 4.5-10.17,8.79-16.58,13-23.08 s 2.93-14.62.92-20.08 a 60.83,60.83,0,0,1-3.7-31.06 C 246.32,253.83,245.77,253,245.77,253Z"/>
    <path d="M 260.77,225.06 a 46.86,46.86,0,0,1,14.59,3.16 c 8.08,3.08,13.5,4.58,18.58,4.5-5.5,1.67-12.17-.25-15.75-1.58 s -10.84-4.08-17.42-4.08 C 260.77,225.89,260.77,225.06,260.77,225.06Z"/>
    <path d="M 336.95,227.44 a 20.2,20.2,0,0,0-10.59,1.21 c -5.42,2.24-12.67,4.66-16.5,4.08,3.75-.33,10.51-2.75,13.55-4.5 S 332.29,224.73,336.95,227.44Z"/>
    <path d="M 347,261.59 a 21.87,21.87,0,0,1,.86,9.11 c 1-5.44,1-10.6-1.52-15.85 A 19.7,19.7,0,0,1,347,261.59Z"/>
    <path d="M 343.65,302.42 c -2.8-5-1.88-8.61,1-19.11,1.06-3.93,2.19-7.62,3-11.19 a 23.47,23.47,0,0,1-4.32,8.83 c -.71,2.4-1.41,4.49-2,6-2.5,6.83-3,12.17,2.83,20.67 C 362.66,330.52,359,371.89,359,371.89 c 1.9-.54,1.9-3.71,1.9-12.16 C 360.95,321,346,306.54,343.65,302.42Z"/>
    <path d="M 347.57,272.11v0Z"/>
    <path d="M 330.84,240.23 a 105.45,105.45,0,0,0,9.53,11.17 c 7.61,7.8,7.77,18.41,3.77,26.36 a 20.31,20.31,0,0,1-12.82,10.3 c 7.38.52,15-6.61,17.5-16.17 a 21,21,0,0,0-4.32-18.28 C 339.88,247.9,334.06,244.23,330.84,240.23Z"/>
    <path d="M 304.67,284.2 c 9-7.43,11.45-24.29-.59-36.44,0,0,9.65,13.53,3.93,27.84-3.67,9.18-13.9,13.54-23.63,12.78 h 0 S 295.66,291.62,304.67,284.2Z"/>
    <path d="M 319.75,205.21q-1,.29-2,.54 c 0,5.85.82,17.23,6.61,22.84.81-.44,1.81-.87,1.81-.87 S 319.76,221.71,319.75,205.21Z"/>
    <path d="M 247.67,253.8v0 a 16.56,16.56,0,0,1,13.1-26.72 h 0 a 40.34,40.34,0,0,1,11.52,2,18.56,18.56,0,0,0-24.93,27.37Z"/>
    <path d="M 280.43,205.39 c 0,.27,0,.54.06.83.93,12.63-6.18,22.38-6.18,22.38 a 14.23,14.23,0,0,0,2.13.83 c 5.8-8.33,6.49-17.79,6.25-23.46Q281.55,205.7,280.43,205.39Z"/>
    <path d="M 297.75,401.44 A 38.43,38.43,0,0,1,230.53,376 h 0 c -.12-2.23.11-9.86.22-13.18 a 40.42,40.42,0,0,0,69.46,38.83 A 16.51,16.51,0,0,1,297.75,401.44Z"/>
    <path d="M 306.27,385.49 a 13.76,13.76,0,0,1,0,2.21 c 1.82-.26,6.78-.62,9.52-5.76 A 13.69,13.69,0,0,1,306.27,385.49Z"/>
    <path d="M 306.27,385.49 h 0 a 38.45,38.45,0,0,1-74.55-.2 l -2.09-.18 a 40.43,40.43,0,0,0,78.71.29Z"/>
    <path d="M 316.5,318 s -5.07,8.72-2.58,9.44 c 1,.2,1.7-1.44.9-3.34 A 29,29,0,0,1,316.5,318Z"/>
    <path d="M 250.55,332 a 11,11,0,0,1-13.17,4.5 A 8.25,8.25,0,0,0,250.55,332Z"/>
    <path d="M 272.63,331.43 a 166.49,166.49,0,0,0,19.3,3.83,3.2,3.2,0,0,1,1.05-1.44 c -5.42-.81-10.76-1.91-15.9-3.16-1.55-.37-3.09-.77-4.62-1.18 A 2.68,2.68,0,0,1,272.63,331.43Z"/>
    <path d="M 250.69,324.2 a 179.59,179.59,0,0,0,18.45,6.29,3.13,3.13,0,0,1,1.51-1.49q-10.06-2.78-19.81-6.55 l -.22-.09 A 3.28,3.28,0,0,1,250.69,324.2Z"/>
    <path d="M 332.92,334 a 52,52,0,0,0,11.68-4.47,4,4,0,0,1-.12-2.14q-1.09.6-2.2,1.16 a 59.69,59.69,0,0,1-10.49,4 A 2.8,2.8,0,0,1,332.92,334Z"/>
    <path d="M 350.57,323.27 a 36.51,36.51,0,0,1-4.13,3,3.53,3.53,0,0,1,1.36,1.36,29.84,29.84,0,0,0,6-5.3 C 352.66,320.4,351.64,322.38,350.57,323.27Z"/>
    <path d="M 248.62,321.57 c -1.67-.67-3.34-1.35-5-2.07-1.18-.52-2.31-1.54-2.57.49,2.06,1,4.16,1.91,6.29,2.82 A 3.19,3.19,0,0,1,248.62,321.57Z"/>
    <path d="M 330,333 c -11.22,2.8-23.19,2.67-34.84,1.11 a 3.07,3.07,0,0,1,.4,1.57,140.25,140.25,0,0,0,15.56.91,92.26,92.26,0,0,0,18.25-1.78 A 3.33,3.33,0,0,1,330,333Z"/>
    <path d="M 270.52,336.24 a 166.06,166.06,0,0,0,21.27,4.16 l 0,0 a 3.1,3.1,0,0,1-.38-1.64 c -5.36-.8-10.62-1.86-15.68-3.08-1.36-.33-2.72-.68-4.08-1 A 3.11,3.11,0,0,1,270.52,336.24Z"/>
    <path d="M 268.52,335.71 a 3.34,3.34,0,0,1-.2-.36,3.11,3.11,0,0,1-.13-1.68q-9.54-2.69-18.81-6.26 a 3,3,0,0,1-1.2,1.36 A 179.45,179.45,0,0,0,268.52,335.71Z"/>
    <path d="M 333.34,339.11 a 50,50,0,0,0,14.2-5.55 A 3.07,3.07,0,0,1,346,332.4 c -1.23.67-2.48,1.3-3.76,1.85 a 65.91,65.91,0,0,1-8.65,3 A 3.85,3.85,0,0,1,333.34,339.11Z"/>
    <path d="M 350.79,329.26 c -.55.44-1.12.84-1.69,1.24 a 3.2,3.2,0,0,1,.08,1.83 c 0,.09-.07.16-.1.24 a 29.41,29.41,0,0,0,6.4-5.78 C 354.13,324.87,352.09,328.22,350.79,329.26Z"/>
    <path d="M 246.13,327.69 a 3,3,0,0,1,0-1.57 c -1.54-.62-3.07-1.25-4.59-1.92-1.19-.52-2.35-1.57-2.61.47,2.41,1.15,4.87,2.25,7.36,3.31 C 246.21,327.88,246.17,327.79,246.13,327.69Z"/>
    <path d="M 329.81,338.25 c -11.28,2.49-23.25,2.41-34.89,1 a 3.3,3.3,0,0,1-.64,1.48,139.9,139.9,0,0,0,15.24.87,109.88,109.88,0,0,0,21.1-1.85 A 2.81,2.81,0,0,1,329.81,338.25Z"/>
    <path d="M 315.79,340.8 l -1.47-.29 a 14.18,14.18,0,0,0,.16-4.4 l 1.48-.23 A 15.55,15.55,0,0,1,315.79,340.8Z"/>
    <path d="M 272.57,331.69 c .14-4.22-2.66-2.2-3.33.51-.62,2.52.55,6,2.47,2.17-.1,1.71-1.66,3.48-3.36,2.21-1.21-.91-.69-3.52-.39-4.7 s .93-3.35,2.35-3.73 C 272.38,327.6,273.27,330,272.57,331.69Z"/>
    <path d="M 271.56,330.23 a 26.53,26.53,0,0,0-1.29,5.14 A 7.1,7.1,0,0,1,271.56,330.23Z"/>
    <path d="M 295.57,336.07 c -.74-4.15-3.11-1.75-3.37,1-.24,2.59,1.44,5.9,2.76,1.78.13,1.39-.6,3.22-2.28,2.95-1.86-.3-1.88-2.9-1.83-4.3 s .32-4,1.8-4.6 C 294.59,332.11,295.9,334.3,295.57,336.07Z"/>
    <path d="M 294.21,334.82 a 26.53,26.53,0,0,0-.52,5.27 A 7.1,7.1,0,0,1,294.21,334.82Z"/>
    <path d="M 250.57,324.69 c .1-.88.07-3.21-1.33-3.17-1.16,0-1.86,2.71-2.07,3.44-.72,2.45.27,5.59,2.4,2-.23,1.67-2.07,3.48-3.59,1.86-1-1.11-.34-3.58.09-4.79 s 1.3-3.39,2.88-3.44 C 251.19,320.53,251.27,323.2,250.57,324.69Z"/>
    <path d="M 249.74,322.82 a 26.53,26.53,0,0,0-1.67,5 A 7.1,7.1,0,0,1,249.74,322.82Z"/>
    <path d="M 329.39,335.69 c -.32-1.37-.14-3.94,1.79-4.08 s 2.57,2.51,2.81,3.92.51,3.5-.52,4.52 c -1.56,1.54-3.8.07-3.7-2,1.43,3.89,3.94,1.14,3.37-1.77-.34-1.76-.66-3.18-1.63-3.51 C 330,332.2,329.48,334.58,329.39,335.69Z"/>
    <path d="M 330.6,333.76 a 26.53,26.53,0,0,1,.78,5.24 A 7.1,7.1,0,0,0,330.6,333.76Z"/>
    <path d="M 344.7,329.88 c -2.36-4.44,2.23-5.92,4.25-1.52.6,1.31,1.58,4,.31,5.11-1.56,1.42-3,0-3.62-1.59,2.82,2.89,3.53.2,2.5-2.48 C 346.83,326,343.86,325.53,344.7,329.88Z"/>
    <path d="M 345.29,327.59 a 26.53,26.53,0,0,1,2,4.9 A 7.1,7.1,0,0,0,345.29,327.59Z"/>
  </g>
<script type="text/ecmascript" xlink:href="param.min.js"/> 
</svg>
