<?xml version="1.0"?>
<svg xmlns="http://www.w3.org/2000/svg" xmlns:xlink="http://www.w3.org/1999/xlink" viewBox="0 0 600 600">
  <title>police-shirt-voluptuous</title>
  <g id="main-colour">
    <path d="M 349.08,313.37 c -3.74-6.12-7.64-11-8.26-15.9-.32-2.48.69-7,2-12 a 24.26,24.26,0,0,0,3.59-3.25 c 4.88-5.31,6.13-13.31,4.81-19.19 a 22.37,22.37,0,0,0-4.76-9.18,16.55,16.55,0,0,0-9.55-26.38 h 0 c -1.66-1-4.57-1-8-.35 a 19.09,19.09,0,0,0-7.66-5.9,16.29,16.29,0,0,0,2.69,6.06 l .59,1.19 a 65.78,65.78,0,0,1-11.37,22.19 s -20.34-4.92-29.92-13.75 a 35.13,35.13,0,0,1-6.69-8.2,38.71,38.71,0,0,0,3.19-8,7.82,7.82,0,0,0-5.46,2.54,8.3,8.3,0,0,0-1.69,5,49.72,49.72,0,0,0-11.68-2.2 c -6.75-.25-13.12,4.13-15.87,9.63 s -2.75,12.13,1.5,18.75 c -2.5,13.63.38,23.13,3.75,34 s .5,15.5-3.37,21.38 a 154,154,0,0,0-9.62,16.86 c 7.56,4.57,22.84,12.82,39.21,16,23.17,4.5,47.17,1.5,61-6.17 a 117.69,117.69,0,0,0,16.93-11.41 A 58,58,0,0,0,349.08,313.37Z" fill="param(main_colour)"/>
  </g>
  <g id="accent-colour-1">
    <path d="M 237.32,326.71 s 23.57,15.17,49.82,17.67,46.63-2.23,67.31-19.24 c 4.44,13.74,11.94,38.74,12.44,49.74 s -2.25,40.25,4,51.5 c -15.5,13.5-29.75,17.25-57.75,18.75 s -42.25-4-57.5-5.25-23.75.75-26.5,2.25 c 3-13.75-1-33-2.75-42.5 s -5-24.12,1-47.37Z" fill="param(accent_colour_1)"/>
  </g>
  <g id="fixed-colours">
    <circle cx="321.89" cy="347.05" r="1.92" fill="#ffcc50"/>
    <path d="M 313.14,251.25 s 12.38,10.63,15.5,24.25 c -2,7.63-6.25,17.5-10.12,22.25-3.87-4.75-11.12-14.75-12.62-19.62 a 175.48,175.48,0,0,1,6.25-24.37Z" fill="#fff"/>
  </g>
  <g id="outline">
    <path d="M 314.7,265.08 c 2-.46,5-.87,5-.87 s -.65-2-1.4-4.45 a 20.37,20.37,0,0,0-4.31,1Z"/>
    <path d="M 315.63,269 c -.5-2.53-.93-3.93-.93-3.93 s -2.66.62-4.18,1 c .56,2.53.79,4.17.79,4.17 S 314.13,268.93,315.63,269Z"/>
    <path d="M 316.61,273.06 a 34.83,34.83,0,0,1,5-.62,24.7,24.7,0,0,0-.78-4.42 s -3.53.57-5.06,1 C 316.23,270.79,316.61,273.06,316.61,273.06Z"/>
    <path d="M 317.25,277.72 s -.15-1.89-.64-4.66 c -1.65.42-4.46,1.53-4.46,1.53 a 38.26,38.26,0,0,1,1,4.93 C 313.44,278.91,317.25,277.72,317.25,277.72Z"/>
    <path d="M 321.65,272.44 s .26,2.27.34,4.46 a 11.13,11.13,0,0,1,3.94,0 s 0-2.5-.15-4.51 C 324.41,272.33,321.65,272.44,321.65,272.44Z"/>
    <path d="M 322,276.9 a 25.64,25.64,0,0,0-4.74.82 l .61,5.29 a 27.74,27.74,0,0,1,4.16-.66 C 322.06,279.22,322,276.9,322,276.9Z"/>
    <path d="M 313.91,284.31 s .2,2.2.51,4.78 a 13.72,13.72,0,0,1,3.68-.94 s 0-2.13-.24-5.14 A 20.58,20.58,0,0,0,313.91,284.31Z"/>
    <path d="M 302.39,292.88 c -17.25,5.5-27.5-5-27.5-5 C 284.39,300.25,298.89,296.38,302.39,292.88Z"/>
    <path d="M 284.9,289.6 c 2.75-.78,12.35-5.11,12.35-5.11 s 1-7.63,1.73-16.05 c -13.82,1.27-20.49-2.54-20.49-2.54 l -2.26,15 A 67.18,67.18,0,0,0,284.9,289.6Z m -5.35-21.68 a 38.92,38.92,0,0,0,18,2q-.13,1-.25,2 c -1.66.93-6.6,3.58-9.65,4.19 a 44.13,44.13,0,0,1-8.55-5.28Z m -.69,4.3 a 59.21,59.21,0,0,0,8.44,5.28,61.78,61.78,0,0,0,9.76-3.81 c -.63,5.21-1.09,9.59-1.09,9.59 s -8.81,4.13-10.77,4.86 c -3.93-3.55-7.66-7.75-7.66-7.75Z"/>
    <circle cx="315.43" cy="299.96" r="1.13"/>
    <circle cx="315.26" cy="308.75" r="1.13"/>
    <circle cx="315.26" cy="317" r="1.13"/>
    <circle cx="315.26" cy="325.13" r="1.13"/>
    <circle cx="316.01" cy="332.38" r="1.13"/>
    <circle cx="316.76" cy="339.38" r="1.13"/>
    <path d="M 368.39,378.21 c -.83-16.67-9.67-44.5-12.5-52.92 a 65.29,65.29,0,0,0-5.62-13 c -3.69-6.31-6.75-9.06-7.81-12.62 s -.1-8,1.68-14.39 a 18.89,18.89,0,0,0,5.51-5.92 c 3-5.08,3.75-9.75,2.67-16 s -6.58-12.08-10.25-14.42 a 87.13,87.13,0,0,1-9.17-7.42 c .33.83,4,5.42,8.08,8.83,3.22,2.69,5.66,5,7.4,9-1.3,1.17-5.15,4.17-12.15,5.75 a 73,73,0,0,1,2,13.5 l 7.58,2 a 29.69,29.69,0,0,1-7.66,7.29,15,15,0,0,0,3.07-1,50.27,50.27,0,0,0-1.57,6.18 c -.44,2.75-.25,6.25,2.5,11.38 s 6.88,8.13,11.31,20.38 c -6,4.44-15.55,12.51-32,16.51-.62-2.31-1.95-8.43-2.27-19.17-.35-12,0-21.52.13-24.13,2-3.15,7.77-12.61,10.11-22.5 a 46.29,46.29,0,0,0-8-16.4 c 7.8-13.9,8.93-27.08,8.66-31.66 a 18.14,18.14,0,0,1,6.92-.07 c -2.32-1.7-6-1.45-7.54-1.27 a 18,18,0,0,0-10-6.76,21,21,0,0,0,4.84,9.14 c -1.08,3.95-3.93,11.17-11.43,21.13-4.84-1.17-14.66-3.71-24.16-9.83 a 42.18,42.18,0,0,1-11.56-11.16 c .89-1.54,3.42-6.09,3.94-9-5.25,0-8.87,3.88-9,6.63 a 4.76,4.76,0,0,0,0,.73,67.34,67.34,0,0,0-6.91-1.54 c -4.44-.75-8.19-1.06-14,2.13 s -8.94,10.38-9,15.56 a 19.88,19.88,0,0,0,3.38,11 c -1.37,5.88-1.06,15.38-.25,19.94 a 159.06,159.06,0,0,0,4.88,19.56 c .3.88.66,2,1.06,3.24 a 24.93,24.93,0,0,1-1.12,5.76 c -1.5,4.75-9.25,11.94-14.19,24.31-3.83,8.81-13.17,31-13.33,47.31 s 3,26.33,4.67,37.33,1.17,27.83-.17,32.33 c 8.5-4.33,22.5-4,41.33-1 s 78.83,10.67,104.17-16.17 C 366.22,410.71,369.22,394.88,368.39,378.21Z M 338.05,266.13 a 41,41,0,0,0,10.88-5.36 c .25.68.48,1.41.7,2.19.07.25.13.5.18.75 L 347,268.13 a 50.6,50.6,0,0,1-8.52-.5 A 15.29,15.29,0,0,0,338.05,266.13Z m 1.67,11.42 s -.36-5-1-8.7 c 1.52.12,5.82.45,8.86.45.9-1.27,2-2.8,2.62-3.75 a 19,19,0,0,1-2.62,12.5 c -.28.48-.59,1-.92,1.46Z m -14.83-52.42 a 10,10,0,0,1-.14,1.13,37.51,37.51,0,0,1-1.92-3.63,21.93,21.93,0,0,1,5.63,4.56 c -.44,14.45-6.57,27.92-8,30.8 a 64,64,0,0,0-6.31-7 C 316.41,247.78,325.88,233.73,324.89,225.13Z m -12,29.29.27,2.13,3.62-.85.21.24,1.32,3.81,1.52-.28 c 1,1.31,2,2.82,3,4.5 a 9.34,9.34,0,0,0-3.09.23 c .65,1.91,1.18,3.82,1.18,3.82 l 4-.23 c .26.52.51,1.07.76,1.62 l .17,3,1.14.13q.51,1.32,1,2.74-.24,1-.51,2 l -1.45-.3-.07,4.94,0,.06 a 30.13,30.13,0,0,0-3.82.43 l .23,5.39,1.24-.17 c -.42.9-.83,1.75-1.23,2.55v-2.38 l -4.15.41.08,4.51,2.87-.21 c -1.3,2.42-2.24,3.87-2.24,3.87 l -.34-.38-.29-3.28-2.39.09-1.08-1.38 c -.09-1-.29-2.28-.29-2.28 l -1.16.35 c -.87-1.2-1.76-2.5-2.62-3.85,1.17-.55,3.27-1.28,3.27-1.28 s -.32-2.39-.76-4.79 c -1.18.36-4,1.62-4.86,2 l -.29-.58-.21-4.32-.61.24q.21-1.41.47-2.83 c 0,.68.06,1.54.15,2.59 a 15.73,15.73,0,0,1,4.36-2 c .37,0-.39-2.15-.66-4.29 a 13.9,13.9,0,0,0-3.45,1.66 c .38-1.85.8-3.67,1.24-5.43 l 1.23-.42-.44-2.57q.26-.94.51-1.83 a 20,20,0,0,1,3.39-.93 l -.85-4.24-1,.18 C 312.39,255.83,312.65,255.06,312.86,254.42Z m -35-32.17 A 15,15,0,0,1,276,227 c -.64-1-1-1.66-1-1.66.5,4.75,5.38,11.5,14.13,17.13,7.38,4.74,19.29,8.15,22.84,9.11 a 94.94,94.94,0,0,0-3.66,11.06 c -3.31-1.94-20.3-12.17-27.06-21.29-7.5-10.12-7-11.62-7.75-14 C 274,223.63,276,222.25,277.89,222.25Z m -30.5,88.88 c 1.94-2.82,4.35-6.35,5.19-9.77,2.16,6.74,5,14.88,7.37,17.21-3.5-7.69-5.94-18.37-7.62-24.56 s -4.44-17-5.19-23.94 a 71.63,71.63,0,0,1,.56-16.31 c -3-2.81-4.12-9.56-3.19-13.31 a 17,17,0,0,1,9.94-12.12 c 6.24-2.8,14.61-.16,18.09.88,1.19,3.6,4.42,9.35,10.35,16.31,5.59,6.57,21.85,17.32,24.88,19.31 a 106.64,106.64,0,0,0-2.45,13.81 c 1.84,5.49,10,16.41,12.5,19.65-.18,2.74-.62,11.08-.35,22.11 a 116,116,0,0,0,2.36,21.37 c -16.63,3.68-32.75,2-43.07,0-10.5-2-24.81-7.44-37.75-15.81 A 85.85,85.85,0,0,1,247.39,311.13Z M 238,328.32 c 14.08,8.16,29.28,15.23,49.1,17,20.83,1.83,40.5-1.67,51.58-8.08 A 122.74,122.74,0,0,0,354,326.84 c .46,1.51,1.15,3.82,2,6.64-8.63,9.06-34.79,23.12-69.47,19.24-31-3.47-48-13.86-51.93-16.53Q236.17,332.38,238,328.32Z m 90.52,114.22 a 187.47,187.47,0,0,1-46.17-.5 c -17-2.5-43-5.83-51.67-1.83,1.5-20.33-1.33-30.83-3.17-41.33-1.67-9.55-6.77-27.64,6.35-60.92,27,18.93,68.69,19.87,88.49,14.92 A 93.75,93.75,0,0,0,356.75,336 c 2.14,7.45,4.85,17.34,6.63,25.53,3.33,15.33,2.67,25.83,2.5,34.67 s .5,24.33,3.5,29.83 C 360.55,435.71,340.72,441.21,328.55,442.54Z"/>
    <path d="M 321.89,349.46 a 2.42,2.42,0,1,0-2.42-2.42 A 2.42,2.42,0,0,0,321.89,349.46Z m 0-3.83 a 1.42,1.42,0,1,1-1.42,1.42 A 1.42,1.42,0,0,1,321.89,345.63Z"/>
    <path d="M 293.64,418.88 c 19-7,33.5-21,40.25-36 C 333.89,382.88,317.89,406.13,293.64,418.88Z"/>
    <path d="M 330.39,410.88 c -11.25,10-26,14-26,14 C 313.14,424.63,325.89,418.63,330.39,410.88Z"/>
  </g>
<script type="text/ecmascript" xlink:href="param.min.js"/> 
</svg>
