<?xml version="1.0"?>
<svg xmlns="http://www.w3.org/2000/svg" xmlns:xlink="http://www.w3.org/1999/xlink" viewBox="0 0 600 600">
  <title>basic-bikini-top-hourglass</title>
  <g id="main-colour">
    <path d="M 267.09,281.38 s 9,6.69,16.31,7.13 c 2.25-12.94,7.17-23.62,13.67-31.54-2.17-11.25-7.75-25.08-13.5-32.08,1.25-1,2.25-1.67,2.25-1.67 s 8.58,10.25,15.83,32.92 c 9,2.33,16.83,6.75,20.67,13 s 2.58,16.08.33,19.17 a 49,49,0,0,1,5.67.67 s 1.5-20,8.92-36.75 c -10.5-9.42-20.17-20.5-23.75-28.08 a 9.4,9.4,0,0,0,3.92,2.17 s 11.17,15.33,23.5,22.42 c 5.67,1.67,10.75,4.75,12.5,11.33 s 2,16.17-5.58,24.33-14.33,8.25-17.67,7.75-8.42-1.42-10.33-1 A 35.55,35.55,0,0,1,301.73,298 c -7.58.5-16.33-3.25-20.67-5.42 s -12.58-8-12.58-8Z" fill="param(main_colour)"/>
  </g>
  <g id="outline">
    <path d="M 353.73,258.13 c -3-8.62-11.33-9.62-12.92-10.25-2.92-1.92-8.67-5-23.28-21.83 a 20.2,20.2,0,0,1-6-4.5 s 6.36,15.25,24.86,30.83 c -6.17,13.83-8.67,29-8.75,36.13 a 16.38,16.38,0,0,0-4.09-.51 l .17-.2 c 10-25.67-21.46-32.29-21.46-32.29 s -6.4-19.62-16.4-33.12 a 34.51,34.51,0,0,1-2.94,2.25,77.18,77.18,0,0,1,13.47,32.25,58.7,58.7,0,0,0-13.35,31.25 s -7.67-1-16.68-7.75 a 13,13,0,0,0,2.33,4.83 s 16.88,14.2,30.57,13.54 c 11-.53,17.14-4,20.71-7.11,4-.74,11.51,2.56,17.91.23 C 350.39,287.34,359.25,274.22,353.73,258.13Z M 269,284.21 c -.92-1.67-1.25-2.17-1.25-2.17 s 7.51,6.33,16.1,7.17 c 2-11.37,4.57-19.08,13.89-32.21-1.67-10.75-7.24-23.79-13.53-32 l 1.56-1.19 c 2.38,2.94,6.84,10.81,10.72,20.31,3.74,9.17,4.88,12.38,4.88,12.38 s 29.75,7,21.25,30.29 c -1.08,2.08-5.92,7.67-18.37,10.33 C 292.34,299.68,274.64,288.82,269,284.21Z m 82.5-6.71 c -2.59,6.56-10.39,12-17.14,13.81-3.43.93-10.21-1-13.2-.77.58-.57,1.08-1.1,1.5-1.58,1.8-.28,4,.24,6.16.54,1.87-13.62,3.54-24.62,9.37-37.62-13.08-9.33-23.42-26.25-23.42-26.25 a 5.41,5.41,0,0,0,1.89.92,104.32,104.32,0,0,0,13.45,14.83 c 4,3.75,6.08,5.8,10.08,8.17,5.42,1,9.42,4,11.54,8 S 354.13,271,351.54,277.5Z"/>
    <path d="M 343.08,285.25 a 11.15,11.15,0,0,0,.66-4.79,19.94,19.94,0,0,1-1.54,5.29,15.69,15.69,0,0,1-9.13,1.94,13.7,13.7,0,0,0,14-5.23,11.73,11.73,0,0,0,.88-1.61 A 18.32,18.32,0,0,1,343.08,285.25Z"/>
    <path d="M 307.09,293.62 c -.59.19-1.17.34-1.75.47.22-1.07.92-5,.06-7.46 a 15.93,15.93,0,0,1-1.19,7.67 A 27.83,27.83,0,0,1,290,292.61 s 7,5.07,17.25,1.77,14.54-10.56,14.54-10.56 S 315.75,290.87,307.09,293.62Z"/>
  </g>
<script type="text/ecmascript" xlink:href="param.min.js"/> 
</svg>
