<?xml version="1.0"?>
<svg xmlns="http://www.w3.org/2000/svg" xmlns:xlink="http://www.w3.org/1999/xlink" viewBox="0 0 150 150">
  <title>BT002_OA011</title>
  <g id="skin-tone">
    <path d="M 66.77,83.79 s 3.11-3.18,2.7-6.1-.42-6.67,3.75-8 a 5.66,5.66,0,0,1,7.33,3.5,8.55,8.55,0,0,0,2.7,5.35 c -2.12,1.56-2.85,3.77-2.3,5.43-1.93-.18-4.23,1.93-5.06,2.3 a 10.73,10.73,0,0,1-4.69.74 A 5.59,5.59,0,0,1,68,85,3.77,3.77,0,0,0,66.77,83.79Z" fill="param(skin_tone)"/>
  </g>
  <g id="main-colour">
    <path d="M 64.65,98.45 a 9.53,9.53,0,0,1-1.93-8.35 c 1.24-4.9,4-7.32,4.94-5.63 s 3.28,3.35,6.87,2.31,4.28-3.13,6.42-2.81 c 0-2.51.9-4.72,2.55-5.62 s 2.28-.28,2.35,1.17-.48,2.9,3.24,6.14,6.35,4.69,9.53,5.45 a 24.07,24.07,0,0,0-4.69,4.76 l -1.45,3.18Z" fill="param(main_colour)"/>
  </g>
  <g id="accent-colour-1">
    <path d="M 71,103 c -2.55,0-7.11-.35-7.66-1.38 s -1-3.18,2.28-3.18,26.86.62,26.86.62 a 6.34,6.34,0,0,0,1.45-3.18 c 1.66-1.86,4.69-6.14,9.46-5.94 s 7.32,3.87,7.39,8.7 a 2,2,0,0,1,.35,3.59 c -1.66,1-9.11.76-13.46.76Z" fill="param(accent_colour_1)"/>
    <path d="M 84.78,84.68 c 1.31-1.07,2.52-1.83,3.28-1.24 s -.72,1.8-1.83,2.66-2.42,2.49-3.14,2.38-1.32-.65-.42-1.72 A 19.43,19.43,0,0,1,84.78,84.68Z" fill="param(accent_colour_1)"/>
    <path d="M 87.68,88 c 1.17-1.51,2.52-2.49,3.11-1.9 s -.24,2.21-1.1,3 S 87.4,92,86.3,91.27,87,88.93,87.68,88Z" fill="param(accent_colour_1)"/>
    <path d="M 91.89,90.2 c 1.2-1.26,1.93-2,2.8-1.52 s .1,1.62-.59,2.38 S 91,94.31,90.41,93.76,90.34,91.83,91.89,90.2Z" fill="param(accent_colour_1)"/>
  </g>
  <g id="fixed-colours">
    <path d="M 82.47,87.34 a 1,1,0,0,0-1.1.48 A 1.56,1.56,0,0,0,82.71,90 c 1.28.1,1.69-.83,1.24-1.73 C 83.36,88.51,82.05,88.55,82.47,87.34Z" fill="#a7a9ac"/>
    <path d="M 85.88,90.44 s -1,0-1,.79 A 1.78,1.78,0,0,0,86.78,93 a 1,1,0,0,0,.79-1.62 A 1.13,1.13,0,0,1,85.88,90.44Z" fill="#a7a9ac"/>
    <path d="M 90.09,93.07 s -1-.07-1.24.45-.14,1.28,1.1,1.69,2-.52,1.42-1.48 a 1.34,1.34,0,0,1-1.14-.17Z" fill="#a7a9ac"/>
  </g>
  <g id="outline">
    <path d="M 111.82,98.59 a 13.1,13.1,0,0,0-1.87-6.14 c -1.93-3-6.49-4.1-9.57-3.13 a 6.52,6.52,0,0,0-2,1.14,23.23,23.23,0,0,1-2.77-.95,1,1,0,0,0-.44-1.27,1.64,1.64,0,0,0-1.92.12,14.69,14.69,0,0,1-1.71-1.18,1.17,1.17,0,0,0-.23-1.43,1.3,1.3,0,0,0-1.49-.09 c -.35-.34-.68-.67-1-1,.88-1.16-.75-2.39-1.67-2.1 l -.09,0 c -.49-1-.24-3.76-1.09-4.87-.5-.65-2-.69-3,.24 a 7.32,7.32,0,0,1-1.2-3 A 6.76,6.76,0,0,0,75,68.25 h 0 A 6.76,6.76,0,0,0,68.25,75 s .09,1.63.32,3 c .19,1.16-1.9,4-2.66,5.16 a 2.59,2.59,0,0,0-1.06.75,16.7,16.7,0,0,0-3.42,8.35,7.51,7.51,0,0,0,1.94,5.88,1.77,1.77,0,0,0-1.08,1.21 c -.23,1.2-.18,3.77,3.82,4.05 s 30.15.28,30.15.28,10.82-.14,12.38-.18,3.73-.51,4-2.49 A 2.38,2.38,0,0,0,111.82,98.59Z m -3.94-6.19 a 9.78,9.78,0,0,1,2.37,5.94 l -10.74.2-6.07,0 a 4.5,4.5,0,0,0,1-2.83,19.92,19.92,0,0,1,3.59-3.29 C 100.6,90.65,105.34,89.73,107.87,92.4Z m -10.66-.91 A 25.33,25.33,0,0,0,94.36,95 a 5.18,5.18,0,0,0-1.3-2.14 l 0,0,.49-.51 a 20.06,20.06,0,0,0,1.5-1.7 C 95.88,91,96.64,91.29,97.21,91.49Z M 94.34,89 c .55.24.17,1.28-.79,2.28 s -2.14,2.66-2.9,2.14.69-2.07,1.28-2.69 C 93,89.51,93.79,88.72,94.34,89Z M 91.16,94.9 a 1.51,1.51,0,0,1-1.83-.24.72.72,0,0,1,.42-1.33,1.37,1.37,0,0,0,0,.31 c -.2.09-.51.33,0,.75.71.56,1.17.39,1.08-.07 a 1.67,1.67,0,0,0,.34-.11 A .6.6,0,0,1,91.16,94.9Z m 1.22-5.76 c -.3.33-.6.68-.91,1 s -.41.46-.59.68 l -1.23-1,.51-.55 A 11.57,11.57,0,0,0,91,88.18 C 91.46,88.52,91.92,88.84,92.38,89.13Z m -1.8-2.62 c .52.38-.24,1.48-1,2.28 a 27.81,27.81,0,0,1-2.28,2.28 c -.41.28-1.21,0-.9-.69 A 15.58,15.58,0,0,1,88.16,88 C 89.2,86.92,90.06,86.13,90.58,86.51Z m -3.31,6 c -.38.45-1,.35-1.66-.1 s -.76-1.48,0-1.68 a 1.11,1.11,0,0,0,.07.4.34.34,0,0,0-.19.42,1.34,1.34,0,0,0,1.21.79 c .31,0,.36-.2.29-.42 a 1.63,1.63,0,0,0,.4-.17 A .84.84,0,0,1,87.26,92.48Z m .66-5.25-.57.69-.3-.24 c -.3-.25-.59-.54-.88-.83.55-.39,1.18-.84,1.79-1.36 l .86.83 A 12.28,12.28,0,0,0,87.92,87.23Z m -.14-3.56 c .45.38-.93,1.59-1.62,2.14 S 84.09,87.75,83.61,88 s -1.35.21-.83-.72 A 7.77,7.77,0,0,1,84.92,85 C 86.4,83.84,87.33,83.3,87.78,83.68Z m -4.28,5.9 a 1.29,1.29,0,0,1-1.76-.45 c -.36-.54-.38-1.31.16-1.44 a 1.31,1.31,0,0,0,0,.46.45.45,0,0,0,0,.42,1.09,1.09,0,0,0,1.14.72.39.39,0,0,0,.41-.44,2.73,2.73,0,0,0,.37-.19 A .7.7,0,0,1,83.5,89.58Z m 2-8.7 a 4.86,4.86,0,0,0,.6,2.29,24.29,24.29,0,0,0-2,1.6,6.14,6.14,0,0,0-1.9-1.23,3.26,3.26,0,0,0-.89-.18 c -.22-1.79,1.63-4.11,2.75-4.69 S 85.37,78.95,85.47,80.88Z m -15.3-2 A 38.11,38.11,0,0,0,70.25,75,4.75,4.75,0,0,1,75,70.25 h 0 A 4.75,4.75,0,0,1,79.75,75 a 11.28,11.28,0,0,0,1.95,4.3,8.4,8.4,0,0,0-.94,1.19 c -.94,1.63-.75,2.38-.39,2.91 a 9.55,9.55,0,0,0-4.08,1.87 c -1.45,1.1-4.69,1.69-6.46.76-1.29-.68-1.47-1.89-2.06-2.54 C 68.47,82.51,70.06,80.51,70.17,78.89Z M 63.38,94.07 c -.4-2.08,1.14-7,2.31-8.28 s 1.52-.59,2.73.59,3.42,1.55,5.9,1.1,4.07-2.55,6-3 a 3.06,3.06,0,0,1,3.05,1 A 6.15,6.15,0,0,0,82.14,87 a 1.59,1.59,0,0,0-.95.41 c -.55.52-.28,1.8.59,2.45 a 1.83,1.83,0,0,0,2.42-.24,1.57,1.57,0,0,0,0-1.27 c .35-.27.68-.57,1-.8 l .1-.08 c .41.39.89.82,1.4,1.26-.33.43-.64.86-.84,1.19 a 1.54,1.54,0,0,0-.09.2,1.49,1.49,0,0,0-.95.43 c -.59.55-.2,1.83.86,2.42 a 1.58,1.58,0,0,0,2.17-.38,2,2,0,0,0,0-1.18,11.51,11.51,0,0,0,1-.85 l 1.4,1.16 a 4.05,4.05,0,0,0-.44,1,1.55,1.55,0,0,0-1.2.42 c -.83.69.09,1.78.83,2.14 s 1.76.48,2.28-.28 a 1.13,1.13,0,0,0,0-1.11,5.45,5.45,0,0,0,.54-.41,3.26,3.26,0,0,1,1.05,2.24,6.13,6.13,0,0,1-1.06,2.75 l -26.87-.6 A 7.43,7.43,0,0,1,63.38,94.07Z m 47.72,7.4 c -.6.92-4.88,1.06-9.48,1.06 s -26.65-.28-31.21-.28-7-.41-6.86-2 S 64.88,99,66.45,99 c 0,0,18.36.46,21.91.51 s 20.57-.09,21.86,0 S 111.69,100.55,111.09,101.47Z"/>
  </g>
<script type="text/ecmascript" xlink:href="param.min.js"/> 
</svg>
