<?xml version="1.0"?>
<svg xmlns="http://www.w3.org/2000/svg" xmlns:xlink="http://www.w3.org/1999/xlink" viewBox="0 0 600 600">
  <title>wedding-dress-hourglass</title>
  <g id="main-colour">
    <path d="M 281.34,315.88 c 2.13-7.3,2.25-11.75-1.5-16.5 s -16.75-18.25-16.75-41.75 c 6.75,2,12.5,1,20.25-2.25 s 13.75-7,25.75,1.5 c 6.5-8.5,15.5-10,22.5-10,3.75,8.5,5,22.25,2.75,36 s -5.5,19.25-9.25,25-6.25,15.25-3,20,15.5,16.25,26.25,27.75,35.5,43.5,49.5,87.5,19,79.5,19,100.25 a 12.36,12.36,0,0,1-10.25,6.75 c -3.25,0-7,2.25-7,2.25 l .25,8.75 s -3.25,7.5-11.25,9.25-20.75,2.25-26.5,10.25 a 33.65,33.65,0,0,0,1.25,5.25 s -10.5.5-18.5,4.25-15.75,5.5-24.5,4.75-24.25-5.75-33.75-4.25 c 0-4.75.64-5.75.64-5.75 a 34.23,34.23,0,0,0-17.64-6.25 c -10.75-.75-25.25,6.25-33.5-3.25.8-4.33.25-6.25.25-6.25 a 26.39,26.39,0,0,0-12-3 c -7.5-.25-16.75-2-21.25-7.75.25-5.75.75-7,0-7.25 s -6.5-4.75-10.5-5.25-4.75-3.25-4.75-3.25-3-21.5,2-65,32.75-92.25,45.25-109.25,22-28,28.75-33.75 S 279.59,321.88,281.34,315.88Z" fill="param(main_colour)"/>
  </g>
  <g id="accent-colour-1">
    <circle cx="283.51" cy="225.3" r="2.58" fill="param(accent_colour_1)"/>
    <circle cx="288.23" cy="228.13" r="2.58" fill="param(accent_colour_1)"/>
    <circle cx="293.32" cy="230.05" r="2.58" fill="param(accent_colour_1)"/>
    <circle cx="298.59" cy="230.87" r="2.58" fill="param(accent_colour_1)"/>
    <circle cx="303.98" cy="230.05" r="2.58" fill="param(accent_colour_1)"/>
    <circle cx="308.9" cy="228.55" r="2.58" fill="param(accent_colour_1)"/>
    <circle cx="312.9" cy="225.21" r="2.58" fill="param(accent_colour_1)"/>
    <circle cx="313.9" cy="230.88" r="2.58" fill="param(accent_colour_1)"/>
    <circle cx="318.07" cy="227.21" r="2.58" fill="param(accent_colour_1)"/>
    <circle cx="309.23" cy="233.96" r="2.58" fill="param(accent_colour_1)"/>
    <circle cx="304.52" cy="235.6" r="2.58" fill="param(accent_colour_1)"/>
    <circle cx="307.4" cy="244.3" r="2.58" fill="param(accent_colour_1)"/>
    <circle cx="303.4" cy="240.46" r="2.58" fill="param(accent_colour_1)"/>
    <circle cx="308.73" cy="239.3" r="2.58" fill="param(accent_colour_1)"/>
    <circle cx="298.94" cy="236.58" r="2.58" fill="param(accent_colour_1)"/>
    <circle cx="293.57" cy="235.55" r="2.58" fill="param(accent_colour_1)"/>
    <circle cx="288.73" cy="233.63" r="2.58" fill="param(accent_colour_1)"/>
    <circle cx="283.4" cy="231.21" r="2.58" fill="param(accent_colour_1)"/>
    <circle cx="278.57" cy="228.21" r="2.58" fill="param(accent_colour_1)"/>
    <circle cx="280.83" cy="264.86" r="2.33" fill="param(accent_colour_1)"/>
    <circle cx="295.34" cy="270.25" r="2.33" fill="param(accent_colour_1)"/>
    <circle cx="310.34" cy="262.55" r="2.33" fill="param(accent_colour_1)"/>
    <circle cx="311.36" cy="277.21" r="2.33" fill="param(accent_colour_1)"/>
    <circle cx="321.5" cy="269.55" r="2.33" fill="param(accent_colour_1)"/>
    <circle cx="330" cy="258.55" r="2.33" fill="param(accent_colour_1)"/>
    <circle cx="271.36" cy="275.05" r="2.33" fill="param(accent_colour_1)"/>
    <circle cx="278" cy="290.21" r="2.33" fill="param(accent_colour_1)"/>
    <circle cx="331" cy="275.38" r="2.33" fill="param(accent_colour_1)"/>
    <circle cx="321.17" cy="284.55" r="2.33" fill="param(accent_colour_1)"/>
    <circle cx="297.34" cy="285.13" r="2.33" fill="param(accent_colour_1)"/>
    <circle cx="284.34" cy="280.71" r="2.33" fill="param(accent_colour_1)"/>
    <circle cx="288.53" cy="294.94" r="2.33" fill="param(accent_colour_1)"/>
    <circle cx="291.5" cy="308.55" r="2.33" fill="param(accent_colour_1)"/>
    <circle cx="290.5" cy="323.05" r="2.33" fill="param(accent_colour_1)"/>
    <circle cx="299.84" cy="316.21" r="2.33" fill="param(accent_colour_1)"/>
    <circle cx="299.09" cy="299.63" r="2.33" fill="param(accent_colour_1)"/>
    <circle cx="310.84" cy="292.21" r="2.33" fill="param(accent_colour_1)"/>
    <circle cx="319" cy="299.21" r="2.33" fill="param(accent_colour_1)"/>
    <circle cx="328.84" cy="292.05" r="2.33" fill="param(accent_colour_1)"/>
    <circle cx="309.69" cy="307.05" r="2.33" fill="param(accent_colour_1)"/>
    <circle cx="308.5" cy="325.71" r="2.33" fill="param(accent_colour_1)"/>
    <circle cx="317.34" cy="314.55" r="2.33" fill="param(accent_colour_1)"/>
    <path d="M 309.84,256.25 s 4.48,11.13,1.86,35.63-3,52-3.36,52.25-1.25.88-1.5.13 c .13-6,1-20.75,1.5-30.87 s 2.25-25.5,2.5-33.5-1.75-20.12-2.25-23 A 2.79,2.79,0,0,0,309.84,256.25Z" fill="param(accent_colour_1)"/>
    <path d="M 317,250.63 s 6.38,14.75,3,37.5 a 337.52,337.52,0,0,0-3.87,43.5,3.07,3.07,0,0,0,1.25-1.25 s 1-16,1.89-25.37,3.63-19,3.25-33.25-4.27-21.62-4.27-21.62Z" fill="param(accent_colour_1)"/>
    <path d="M 326.09,247.63 s 7.5,13.88,3.38,36-5.25,25.63-5.25,25.63 l 1.88-2.37 s 4.25-18.37,5.13-24.5 S 334,259,327.09,247.25 A 3,3,0,0,0,326.09,247.63Z" fill="param(accent_colour_1)"/>
    <path d="M 295.34,252.63 A 211.6,211.6,0,0,0,298.09,284 c 2.88,18.38,3.5,43.88,0,50.25-.75-.62-1.12-.87-1.12-.87 a 91,91,0,0,0,2-21.12 c -.25-11.87-3.25-31-4.25-39.62 a 194.24,194.24,0,0,1-.87-20.12Z" fill="param(accent_colour_1)"/>
    <path d="M 281,256.75 a 103.27,103.27,0,0,0,5.38,28 c 5.13,15.13,9,34.38,3.38,42.63 a 8,8,0,0,1-1.12-.25 A 30.83,30.83,0,0,0,291,310.38 a 121,121,0,0,0-5.62-24.25 c -1.75-4.5-4.75-16.25-5.75-29 A 4.84,4.84,0,0,0,281,256.75Z" fill="param(accent_colour_1)"/>
    <path d="M 269.71,259.5 a 57.31,57.31,0,0,0,7.5,28 c 8.13,14.38,9.63,16.13,9,23.5 a 32.33,32.33,0,0,1-3.87,12.75 l -1.25-.37 s 4.25-8.25,4.13-14.12-2.5-9.37-6.5-16.12-10.87-20.12-10.12-34 A 5,5,0,0,1,269.71,259.5Z" fill="param(accent_colour_1)"/>
  </g>
  <g id="outline">
    <path d="M 399.39,441.88 c -11.33-35.5-31-64.5-43.5-79.25 a 348.19,348.19,0,0,0-29.58-30.25 c -4.25-4-4.83-8.42-4.75-12.17 s 5.75-13.83,7.92-17.5 A 61.22,61.22,0,0,0,335.42,285 c .58-5,4.42-26.17-3.4-39-3.37-.75-19.44,1.63-22.94,9.75-11.12-8.12-17.5-4.71-29.25.13-11.22,4.61-17.94.63-17.94.63.33,20.63,7.67,31.88,12,37 s 7.5,9.33,8,13.83-2.5,12.33-7.5,16.33 a 210.28,210.28,0,0,0-31.17,30.67 c -13.83,16.67-31.33,44.5-43.5,80.5 s -13.5,55.5-14.17,72.17.5,36.17.5,36.17 a 16.6,16.6,0,0,0,8,5,21.08,21.08,0,0,1,7.77,4.28 c 0,2.26-.12,4.14-.27,5.55,3,7,14.33,9.5,20,9.33,4.82-.14,10.36.81,13.75,2.63 a 26.73,26.73,0,0,1-.92,6.37 c 6.67,6.33,19.17,5.83,27.17,4.33,7.73-1.45,15.92-1,24.13,6.08 a 14.57,14.57,0,0,1-1.13,5.75 c 8-1.5,14.83-.5,22.5,1.83 s 23.17,4,34.17-.83,21.17-6.83,24.5-6.5 c -.7-2.15-1.33-4.12-1.89-6,2.14-2.7,8.62-7.2,17.89-8,11.33-1,17.67-5.17,19.33-12.33-.13-2.49-.29-4.94-.47-7.38 a 15.23,15.23,0,0,1,7.13-2.12 c 2.83,0,8.33-.83,10.33-7.33 C 417.22,509.88,410.72,477.38,399.39,441.88Z m -116-139.12 c -1.75-3.75-10-12.75-12.87-18.12 s -5.87-13.12-6.12-25.37 c 8.13,2.38,17.24-2.75,25.86-5.25 s 12.5-.75,19.25,4 c 4-8,17-10.5,21.92-10.25,4.75,14.21,2.32,29.13,1.64,35.42 a 58.17,58.17,0,0,1-1.79,9.42,2.45,2.45,0,0,0,0-.39V292 a 2.51,2.51,0,0,0-2.5-2.5 h -.24 a 2.51,2.51,0,0,0-2.5,2.5v.24 a 2.51,2.51,0,0,0,2.5,2.5 h .24 a 2.51,2.51,0,0,0,2.3-1.52 c -2.81,9.69-7.34,15.34-9,19.07-1.4,3.21-2.9,7.13-2.69,11.08 a 123.82,123.82,0,0,1-11.89,20.88 c -8.45-15.36-23.82-20.71-28.36-22 C 285.53,314.17,284.86,305.9,283.39,302.75Z M 330.46,292v.17 a 1.69,1.69,0,0,1-1.69,1.69 h -.17 a 1.69,1.69,0,0,1-1.69-1.69V292 a 1.69,1.69,0,0,1,1.69-1.69 h .17 A 1.69,1.69,0,0,1,330.46,292Z m 77.26,256.55 a 21.81,21.81,0,0,0-7.34,2.1 c -2.06-25.27-6.84-47.95-13.33-76.1-7.33-31.83-29.33-82.67-41.33-100.17 s -20.67-26.17-20.67-26.17 c 17.17,22.5,29,42,43.17,78 s 19,60.83,23,79.17 A 418.06,418.06,0,0,1,398.89,560 c -.17,1.67-4.5,9.5-18.5,10.67-10.58.88-15.63,5.18-17.47,7.24-2.29-8.16-3.28-15-3.53-27.9-.33-17.33-2.67-44-6.5-63.67 s -13-50.33-18.5-68.5-18.33-52.33-22.33-60.17 c 6.67,17.5,17.33,51.67,22.17,68.17 s 15,50.33,19.17,81.17,3,44.83,3.83,56.17 a 88.78,88.78,0,0,0,4.5,21.33 s -11.33,1-18.83,4.83-19.5,4.5-25.67,3.67-19.33-5.83-28.67-4.33 c 2.5-12.83-2.33-34.67-4.17-46 s -3.89-44.44-1.83-75.17 c 2.17-32.33,8-58.17,12.33-77.33 s 6.83-30.33,6.83-30.33-17.5,52.17-21.83,97.33-.5,75,2.5,93.17 c 2,11.88,3.35,24.4,3.38,32.86-2.27-2.18-7.39-5.8-16.55-6-13.17-.33-23,4.17-31.5-2.33,1.67-13.83.67-28.83.5-40.83 s 1-45,5.67-70.67,13.5-48.5,20.5-65.83,21.33-46.83,21.33-46.83 a 456,456,0,0,0-32.67,68.83 c -14.5,38.83-16.17,76.33-17.17,95.67-.75,14.58.1,38.35-.43,51.88 a 27.85,27.85,0,0,0-13.24-2.55 c -7.83.67-16.5-4.5-17.5-6.67.33-12-1-37.67,1.83-61.17 s 9.67-52.5,15.83-68.17,17.83-42.67,34.5-66.5,17.67-25,17.67-25-26,29-44.5,67.83 S 204.72,480,202.89,504.71 c -1.32,17.78-1,33.66-1,44-3-2.65-8.1-3.32-12.31-6.51-1.5-14.17-3.17-50.67,7.83-88.67 s 23.75-63.92,38.75-85 a 206.5,206.5,0,0,1,38.63-41.75,32.61,32.61,0,0,0,2.67-2.51 c 11.36,1.78,22.43,11.62,30,23.63,6-6.37,10.94-16.58,12.84-20.78 a 12,12,0,0,0,1.16,2.28 c 3.75,5.75.5,1.33,16.5,17.5 s 28.83,32.33,40.83,54.83,18.67,41.5,25.67,68,9.83,59.5,11,73.67 A 8.84,8.84,0,0,1,407.72,548.54Z"/>
    <path d="M 297.22,282.41 a 2.51,2.51,0,0,0-2.5,2.5v.24 a 2.51,2.51,0,0,0,2.5,2.5 h .24 a 2.51,2.51,0,0,0,2.5-2.5v-.24 a 2.51,2.51,0,0,0-2.5-2.5Z m 1.89,2.54v.17 a 1.69,1.69,0,0,1-1.69,1.69 h -.17 a 1.69,1.69,0,0,1-1.69-1.69v-.17 a 1.69,1.69,0,0,1,1.69-1.69 h .17 A 1.69,1.69,0,0,1,299.11,284.95Z"/>
    <path d="M 295.24,272.82 h .24 a 2.51,2.51,0,0,0,2.5-2.5v-.24 a 2.51,2.51,0,0,0-2.5-2.5 h -.24 a 2.51,2.51,0,0,0-2.5,2.5v.24 A 2.51,2.51,0,0,0,295.24,272.82Z m -1.65-2.7 a 1.69,1.69,0,0,1,1.69-1.69 h .17 a 1.69,1.69,0,0,1,1.69,1.69v.17 a 1.69,1.69,0,0,1-1.69,1.69 h -.17 a 1.69,1.69,0,0,1-1.69-1.69Z"/>
    <path d="M 299.74,313.45 a 2.51,2.51,0,0,0-2.5,2.5v.24 a 2.51,2.51,0,0,0,2.5,2.5 H 300 a 2.51,2.51,0,0,0,2.5-2.5V316 a 2.51,2.51,0,0,0-2.5-2.5Z m 1.89,2.54v.17 a 1.69,1.69,0,0,1-1.69,1.69 h -.17 a 1.69,1.69,0,0,1-1.69-1.69V316 a 1.69,1.69,0,0,1,1.69-1.69 h .17 A 1.69,1.69,0,0,1,301.63,316Z"/>
    <path d="M 285.91,294.72V295 a 2.51,2.51,0,0,0,2.5,2.5 h .24 a 2.51,2.51,0,0,0,2.5-2.5v-.24 a 2.51,2.51,0,0,0-2.5-2.5 h -.24 A 2.51,2.51,0,0,0,285.91,294.72Z m .85,0 a 1.69,1.69,0,0,1,1.69-1.69 h .17 a 1.69,1.69,0,0,1,1.69,1.69v.17 a 1.69,1.69,0,0,1-1.69,1.69 h -.17 a 1.69,1.69,0,0,1-1.69-1.69Z"/>
    <path d="M 288.88,308.32v.24 a 2.51,2.51,0,0,0,2.5,2.5 h .24 a 2.51,2.51,0,0,0,2.5-2.5v-.24 a 2.51,2.51,0,0,0-2.5-2.5 h -.24 A 2.51,2.51,0,0,0,288.88,308.32Z m .85,0 a 1.69,1.69,0,0,1,1.69-1.69 h .17 a 1.69,1.69,0,0,1,1.69,1.69v.17 a 1.69,1.69,0,0,1-1.69,1.69 h -.17 a 1.69,1.69,0,0,1-1.69-1.69Z"/>
    <path d="M 290.62,320.32 h -.24 a 2.51,2.51,0,0,0-2.5,2.5v.24 a 2.51,2.51,0,0,0,2.5,2.5 h .24 a 2.51,2.51,0,0,0,2.5-2.5v-.24 A 2.51,2.51,0,0,0,290.62,320.32Z m 1.65,2.7 a 1.69,1.69,0,0,1-1.69,1.69 h -.17 a 1.69,1.69,0,0,1-1.69-1.69v-.17 a 1.69,1.69,0,0,1,1.69-1.69 h .17 a 1.69,1.69,0,0,1,1.69,1.69Z"/>
    <path d="M 287,280.73v-.24 a 2.51,2.51,0,0,0-2.5-2.5 h -.24 a 2.51,2.51,0,0,0-2.5,2.5v.24 a 2.51,2.51,0,0,0,2.5,2.5 h .24 A 2.51,2.51,0,0,0,287,280.73Z m -2.7,1.65 a 1.69,1.69,0,0,1-1.69-1.69v-.17 a 1.69,1.69,0,0,1,1.69-1.69 h .17 a 1.69,1.69,0,0,1,1.69,1.69v.17 a 1.69,1.69,0,0,1-1.69,1.69Z"/>
    <path d="M 283.47,264.93v-.24 a 2.51,2.51,0,0,0-2.5-2.5 h -.24 a 2.51,2.51,0,0,0-2.5,2.5v.24 a 2.51,2.51,0,0,0,2.5,2.5 H 281 A 2.51,2.51,0,0,0,283.47,264.93Z m -.85,0 a 1.69,1.69,0,0,1-1.69,1.69 h -.17 a 1.69,1.69,0,0,1-1.69-1.69v-.17 a 1.69,1.69,0,0,1,1.69-1.69 h .17 a 1.69,1.69,0,0,1,1.69,1.69Z"/>
    <path d="M 299,297 a 2.51,2.51,0,0,0-2.5,2.5v.24 a 2.51,2.51,0,0,0,2.5,2.5 h .24 a 2.51,2.51,0,0,0,2.5-2.5v-.24 a 2.51,2.51,0,0,0-2.5-2.5Z m 1.89,2.54v.17 a 1.69,1.69,0,0,1-1.69,1.69 H 299 a 1.69,1.69,0,0,1-1.69-1.69v-.17 a 1.69,1.69,0,0,1,1.69-1.69 h .17 A 1.69,1.69,0,0,1,300.88,299.55Z"/>
    <path d="M 310.23,265.09 h .24 a 2.51,2.51,0,0,0,2.5-2.5v-.24 a 2.51,2.51,0,0,0-2.5-2.5 h -.24 a 2.51,2.51,0,0,0-2.5,2.5v.24 A 2.51,2.51,0,0,0,310.23,265.09Z m -1.65-2.7 a 1.69,1.69,0,0,1,1.69-1.69 h .17 a 1.69,1.69,0,0,1,1.69,1.69v.17 a 1.69,1.69,0,0,1-1.69,1.69 h -.17 a 1.69,1.69,0,0,1-1.69-1.69Z"/>
    <path d="M 317.28,317.32 h .24 a 2.51,2.51,0,0,0,2.5-2.5v-.24 a 2.51,2.51,0,0,0-2.5-2.5 h -.24 a 2.51,2.51,0,0,0-2.5,2.5v.24 A 2.51,2.51,0,0,0,317.28,317.32Z m -1.65-2.7 a 1.69,1.69,0,0,1,1.69-1.69 h .17 a 1.69,1.69,0,0,1,1.69,1.69v.17 a 1.69,1.69,0,0,1-1.69,1.69 h -.17 a 1.69,1.69,0,0,1-1.69-1.69Z"/>
    <path d="M 308.44,328.32 h .24 a 2.51,2.51,0,0,0,2.5-2.5v-.24 a 2.51,2.51,0,0,0-2.5-2.5 h -.24 a 2.51,2.51,0,0,0-2.5,2.5v.24 A 2.51,2.51,0,0,0,308.44,328.32Z m -1.65-2.7 a 1.69,1.69,0,0,1,1.69-1.69 h .17 a 1.69,1.69,0,0,1,1.69,1.69v.17 a 1.69,1.69,0,0,1-1.69,1.69 h -.17 a 1.69,1.69,0,0,1-1.69-1.69Z"/>
    <path d="M 310.93,289.58 h -.24 a 2.51,2.51,0,0,0-2.5,2.5v.24 a 2.51,2.51,0,0,0,2.5,2.5 h .24 a 2.51,2.51,0,0,0,2.5-2.5v-.24 A 2.51,2.51,0,0,0,310.93,289.58Z m 1.65,2.7 a 1.69,1.69,0,0,1-1.69,1.69 h -.17 a 1.69,1.69,0,0,1-1.69-1.69v-.17 a 1.69,1.69,0,0,1,1.69-1.69 h .17 a 1.69,1.69,0,0,1,1.69,1.69Z"/>
    <path d="M 319,301.82 h .24 a 2.51,2.51,0,0,0,2.5-2.5v-.24 a 2.51,2.51,0,0,0-2.5-2.5 H 319 a 2.51,2.51,0,0,0-2.5,2.5v.24 A 2.51,2.51,0,0,0,319,301.82Z m -1.65-2.7 a 1.69,1.69,0,0,1,1.69-1.69 h .17 a 1.69,1.69,0,0,1,1.69,1.69v.17 a 1.69,1.69,0,0,1-1.69,1.69 H 319 a 1.69,1.69,0,0,1-1.69-1.69Z"/>
    <path d="M 329.86,261.11 h .24 a 2.51,2.51,0,0,0,2.5-2.5v-.24 a 2.51,2.51,0,0,0-2.5-2.5 h -.24 a 2.51,2.51,0,0,0-2.5,2.5v.24 A 2.51,2.51,0,0,0,329.86,261.11Z m -1.65-2.7 a 1.69,1.69,0,0,1,1.69-1.69 h .17 a 1.69,1.69,0,0,1,1.69,1.69v.17 a 1.69,1.69,0,0,1-1.69,1.69 h -.17 a 1.69,1.69,0,0,1-1.69-1.69Z"/>
    <path d="M 321,287.11 h .24 a 2.51,2.51,0,0,0,2.5-2.5v-.24 a 2.51,2.51,0,0,0-2.5-2.5 H 321 a 2.51,2.51,0,0,0-2.5,2.5v.24 A 2.51,2.51,0,0,0,321,287.11Z m -1.65-2.7 a 1.69,1.69,0,0,1,1.69-1.69 h .17 a 1.69,1.69,0,0,1,1.69,1.69v.17 a 1.69,1.69,0,0,1-1.69,1.69 H 321 a 1.69,1.69,0,0,1-1.69-1.69Z"/>
    <path d="M 309.57,309.66 h .24 a 2.51,2.51,0,0,0,2.5-2.5v-.24 a 2.51,2.51,0,0,0-2.5-2.5 h -.24 a 2.51,2.51,0,0,0-2.5,2.5v.24 A 2.51,2.51,0,0,0,309.57,309.66Z m -1.65-2.7 a 1.69,1.69,0,0,1,1.69-1.69 h .17 a 1.69,1.69,0,0,1,1.69,1.69v.17 a 1.69,1.69,0,0,1-1.69,1.69 h -.17 a 1.69,1.69,0,0,1-1.69-1.69Z"/>
    <path d="M 321.34,272.09 h .24 a 2.51,2.51,0,0,0,2.5-2.5v-.24 a 2.51,2.51,0,0,0-2.5-2.5 h -.24 a 2.51,2.51,0,0,0-2.5,2.5v.24 A 2.51,2.51,0,0,0,321.34,272.09Z m -1.65-2.7 a 1.69,1.69,0,0,1,1.69-1.69 h .17 a 1.69,1.69,0,0,1,1.69,1.69v.17 a 1.69,1.69,0,0,1-1.69,1.69 h -.17 a 1.69,1.69,0,0,1-1.69-1.69Z"/>
    <path d="M 330.89,272.75 a 2.51,2.51,0,0,0-2.5,2.5v.24 a 2.51,2.51,0,0,0,2.5,2.5 h .24 a 2.51,2.51,0,0,0,2.5-2.5v-.24 a 2.51,2.51,0,0,0-2.5-2.5Z m 1.89,2.54v.17 a 1.69,1.69,0,0,1-1.69,1.69 h -.17 a 1.69,1.69,0,0,1-1.69-1.69v-.17 a 1.69,1.69,0,0,1,1.69-1.69 h .17 A 1.69,1.69,0,0,1,332.78,275.29Z"/>
    <path d="M 271.49,272.42 h -.24 a 2.51,2.51,0,0,0-2.5,2.5v.24 a 2.51,2.51,0,0,0,2.5,2.5 h .24 a 2.51,2.51,0,0,0,2.5-2.5v-.24 A 2.51,2.51,0,0,0,271.49,272.42Z m 1.65,2.7 a 1.69,1.69,0,0,1-1.69,1.69 h -.17 a 1.69,1.69,0,0,1-1.69-1.69V275 a 1.69,1.69,0,0,1,1.69-1.69 h .17 a 1.69,1.69,0,0,1,1.69,1.69Z"/>
    <path d="M 278.13,287.58 h -.24 a 2.51,2.51,0,0,0-2.5,2.5v.24 a 2.51,2.51,0,0,0,2.5,2.5 h .24 a 2.51,2.51,0,0,0,2.5-2.5v-.24 A 2.51,2.51,0,0,0,278.13,287.58Z m 1.65,2.7 a 1.69,1.69,0,0,1-1.69,1.69 h -.17 a 1.69,1.69,0,0,1-1.69-1.69v-.17 a 1.69,1.69,0,0,1,1.69-1.69 h .17 a 1.69,1.69,0,0,1,1.69,1.69Z"/>
    <path d="M 311.18,274.54 a 2.51,2.51,0,0,0-2.5,2.5v.24 a 2.51,2.51,0,0,0,2.5,2.5 h .24 a 2.51,2.51,0,0,0,2.5-2.5V277 a 2.51,2.51,0,0,0-2.5-2.5Z m 1.89,2.54v.17 a 1.69,1.69,0,0,1-1.69,1.69 h -.17 a 1.69,1.69,0,0,1-1.69-1.69v-.17 a 1.69,1.69,0,0,1,1.69-1.69 h .17 A 1.69,1.69,0,0,1,313.07,277.07Z"/>
    <path d="M 278.46,231.14 h .27 a 2.8,2.8,0,0,0,1.79-.66,2.82,2.82,0,0,0-.06.55v.27 a 2.84,2.84,0,0,0,2.83,2.83 h .27 a 2.82,2.82,0,0,0,2.28-1.17,2.79,2.79,0,0,0,0,.48v.27 a 2.84,2.84,0,0,0,2.83,2.83 h .27 a 2.8,2.8,0,0,0,1.76-.63,2.83,2.83,0,0,0,2.8,2.55 h .27 a 2.83,2.83,0,0,0,2.33-1.23,2.84,2.84,0,0,0,2.77,2.27 h .27 a 2.8,2.8,0,0,0,1.74-.62,2.79,2.79,0,0,0-.38,1.39v.27 a 2.84,2.84,0,0,0,2.83,2.83 h .27 a 2.8,2.8,0,0,0,1.07-.21,2.78,2.78,0,0,0-.18.94v.27 a 2.84,2.84,0,0,0,2.83,2.83 h .27 a 2.84,2.84,0,0,0,2.83-2.83v-.27 a 2.82,2.82,0,0,0-.82-2,2.83,2.83,0,0,0,2.16-2.74v-.27 a 2.83,2.83,0,0,0-1.37-2.41,2.83,2.83,0,0,0,1.87-2.65v-.27 a 2.8,2.8,0,0,0,0-.49,2.8,2.8,0,0,0,1.61.51 h .27 A 2.84,2.84,0,0,0,316.9,231v-.27 a 2.78,2.78,0,0,0-.14-.85,2.79,2.79,0,0,0,1.21.28 h .27 a 2.84,2.84,0,0,0,2.83-2.83V227 a 2.84,2.84,0,0,0-2.83-2.83 H 318 a 2.82,2.82,0,0,0-2.06.91V225 a 2.84,2.84,0,0,0-2.83-2.83 h -.27 A 2.84,2.84,0,0,0,310,225v.27 a 2.77,2.77,0,0,0,0,.4,2.78,2.78,0,0,0-.94-.17 h -.27 a 2.84,2.84,0,0,0-2.76,2.23,2.81,2.81,0,0,0-1.88-.73 h -.27 a 2.83,2.83,0,0,0-2.74,2.14,2.83,2.83,0,0,0-2.38-1.32 h -.27 a 2.83,2.83,0,0,0-2.3,1.2,2.83,2.83,0,0,0-2.7-2 h -.27 a 2.82,2.82,0,0,0-2,.82,2.83,2.83,0,0,0-2.82-2.74 h -.27 a 2.8,2.8,0,0,0-1.65.54 c 0-.09,0-.18,0-.27v-.27 a 2.84,2.84,0,0,0-2.83-2.83 h -.27 a 2.84,2.84,0,0,0-2.83,2.83v.27 a 2.8,2.8,0,0,0,.06.56,2.81,2.81,0,0,0-1.89-.74 h -.27 a 2.84,2.84,0,0,0-2.83,2.83v.27 A 2.84,2.84,0,0,0,278.46,231.14Z m 3-3.66 a 2.81,2.81,0,0,0,1.76.73,2.8,2.8,0,0,0-1.76.65,2.82,2.82,0,0,0,.06-.55V228 A 2.8,2.8,0,0,0,281.51,227.48Z m 3.88,1.41 a 2.8,2.8,0,0,0-1.68-.67,2.8,2.8,0,0,0,1.62-.54 c 0,.09,0,.18,0,.27v.27 A 2.79,2.79,0,0,0,285.39,228.89Z m .05,2.38 a 1.92,1.92,0,0,1-1.91,1.91 h -.19 a 1.92,1.92,0,0,1-1.91-1.91v-.19 a 1.92,1.92,0,0,1,1.91-1.91 h .19 a 1.92,1.92,0,0,1,1.91,1.91Z m .91.53 a 2.79,2.79,0,0,0,0-.48V231 a 2.79,2.79,0,0,0-.09-.66,2.81,2.81,0,0,0,1.05.56 A 2.85,2.85,0,0,0,286.35,231.8Z m 5.35,1.38 a 2.8,2.8,0,0,0-.18-.78,2.81,2.81,0,0,0,.76.41 A 2.83,2.83,0,0,0,291.71,233.18Z m -1.11-2 a 2.81,2.81,0,0,0-.92-.46,2.85,2.85,0,0,0,.72-.51 A 2.8,2.8,0,0,0,290.59,231.2Z m -1.73,4.4 h -.19 a 1.92,1.92,0,0,1-1.91-1.91v-.19 a 1.92,1.92,0,0,1,1.91-1.91 h .19 a 1.92,1.92,0,0,1,1.91,1.91v.19 A 1.92,1.92,0,0,1,288.86,235.6Z m 6.74,0 a 1.92,1.92,0,0,1-1.91,1.91 h -.19 a 1.92,1.92,0,0,1-1.91-1.91v-.19 a 1.92,1.92,0,0,1,1.91-1.91 h .19 a 1.92,1.92,0,0,1,1.91,1.91Z m 3.46,2.95 h -.19 a 1.92,1.92,0,0,1-1.91-1.91v-.19 a 1.92,1.92,0,0,1,1.91-1.91 h .19 a 1.92,1.92,0,0,1,1.91,1.91v.19 A 1.92,1.92,0,0,1,299.07,238.55Z m 2.84-1.56 a 2.84,2.84,0,0,0,.45.64,2.81,2.81,0,0,0-.8.45 A 2.79,2.79,0,0,0,301.91,237Z m 5-6.25 a 2.82,2.82,0,0,0,.91.55,2.84,2.84,0,0,0-1.45,1.88,2.81,2.81,0,0,0-1-.48 A 2.84,2.84,0,0,0,306.92,230.74Z m 4.94-2.77 a 2.79,2.79,0,0,0,.79.16,2.84,2.84,0,0,0-.75.5v-.25 A 2.79,2.79,0,0,0,311.86,228Z m -.84,3.5 a 2.81,2.81,0,0,0-.64-.33,2.84,2.84,0,0,0,.59-.41V231 A 2.8,2.8,0,0,0,311,231.47Z m -3.35,5-.32.14 a 2.77,2.77,0,0,0,.09-.29Z m -1.82,2.16 a 2.84,2.84,0,0,0-.22-.27 l .34-.15 A 2.77,2.77,0,0,0,305.85,238.63Z m .5,2.42 a 2.87,2.87,0,0,0,.27.33,2.82,2.82,0,0,0-.4.12 A 2.78,2.78,0,0,0,306.35,241.05Z m -1.89-7.49 h .19 a 1.91,1.91,0,0,1,1.72,1.1,2.8,2.8,0,0,0,.15.49,1.89,1.89,0,0,1,0,.31v.19 a 1.92,1.92,0,0,1-1.91,1.91 h -.19 l -.21,0-.29-.05 a 1.91,1.91,0,0,1-1.42-1.84v-.19 A 1.92,1.92,0,0,1,304.46,233.56Z m -.93,8.87 h -.19 a 1.92,1.92,0,0,1-1.91-1.91v-.19 a 1.92,1.92,0,0,1,1.91-1.91 h .19 l .21,0,.29.05 a 1.91,1.91,0,0,1,1.42,1.84v.19 A 1.92,1.92,0,0,1,303.53,242.43Z m 5.91,1.92 a 1.92,1.92,0,0,1-1.91,1.91 h -.19 a 1.92,1.92,0,0,1-1.91-1.91v-.19 a 1.92,1.92,0,0,1,1.91-1.91 h .19 a 1.92,1.92,0,0,1,1.91,1.91Z m 1.33-5 a 1.92,1.92,0,0,1-1.91,1.91 h -.19 a 1.92,1.92,0,0,1-1.91-1.91v-.19 a 1.92,1.92,0,0,1,1.91-1.91 h .19 a 1.92,1.92,0,0,1,1.91,1.91Z m .5-5.33 a 1.92,1.92,0,0,1-1.91,1.91 h -.19 a 1.91,1.91,0,0,1-1.72-1.1,2.79,2.79,0,0,0-.15-.49,1.89,1.89,0,0,1,0-.31v-.19 a 1.92,1.92,0,0,1,1.91-1.91 h .19 a 1.92,1.92,0,0,1,1.91,1.91Z m 4.67-3.08 a 1.92,1.92,0,0,1-1.91,1.91 h -.19 a 1.92,1.92,0,0,1-1.91-1.91v-.19 a 1.92,1.92,0,0,1,1.91-1.91 H 314 a 1.92,1.92,0,0,1,1.91,1.91Z m .16-3.86 a 1.92,1.92,0,0,1,1.91-1.91 h .19 a 1.92,1.92,0,0,1,1.91,1.91v.19 a 1.92,1.92,0,0,1-1.91,1.91 H 318 a 1.92,1.92,0,0,1-1.91-1.91Z m -1,.15v.08 a 2.78,2.78,0,0,0,.14.85,2.79,2.79,0,0,0-1.06-.27 A 2.84,2.84,0,0,0,315.13,227.23Z m -4.2-2.15 a 1.92,1.92,0,0,1,1.91-1.91 H 313 a 1.92,1.92,0,0,1,1.91,1.91v.19 a 1.92,1.92,0,0,1-1.91,1.91 h -.19 a 1.92,1.92,0,0,1-1.91-1.91Z m -4,3.33 a 1.92,1.92,0,0,1,1.91-1.91 H 309 a 1.92,1.92,0,0,1,1.91,1.91v.19 a 1.92,1.92,0,0,1-1.91,1.91 h -.19 a 1.92,1.92,0,0,1-1.91-1.91Z m -4.92,1.5 a 1.92,1.92,0,0,1,1.91-1.91 h .19 a 1.92,1.92,0,0,1,1.91,1.91v.19 a 1.92,1.92,0,0,1-1.91,1.91 h -.19 A 1.92,1.92,0,0,1,302,230.1Z m -.51,1.74 a 2.84,2.84,0,0,0,1.71,1.23,2.83,2.83,0,0,0-1.59,2.24,2.84,2.84,0,0,0-1.94-1.49 A 2.83,2.83,0,0,0,301.5,231.66Z m -4.88-.92 a 1.92,1.92,0,0,1,1.91-1.91 h .19 a 1.92,1.92,0,0,1,1.91,1.91v.19 a 1.92,1.92,0,0,1-1.91,1.91 h -.19 a 1.92,1.92,0,0,1-1.91-1.91Z m -.83,1 a 2.84,2.84,0,0,0,2.14,2,2.84,2.84,0,0,0-1.42,1.06,2.84,2.84,0,0,0-1.85-2.1 A 2.85,2.85,0,0,0,295.79,231.78Z m -4.44-1.86 a 1.92,1.92,0,0,1,1.91-1.91 h .19 a 1.92,1.92,0,0,1,1.91,1.91v.19 a 1.92,1.92,0,0,1-1.91,1.91 h -.19 a 1.92,1.92,0,0,1-1.91-1.91Z m -3.17-3.83 h .19 a 1.92,1.92,0,0,1,1.91,1.91v.19 a 1.92,1.92,0,0,1-1.91,1.91 h -.19 a 1.92,1.92,0,0,1-1.91-1.91V228 A 1.92,1.92,0,0,1,288.17,226.09Z m -6.64-.92 a 1.92,1.92,0,0,1,1.91-1.91 h .19 a 1.92,1.92,0,0,1,1.91,1.91v.19 a 1.92,1.92,0,0,1-1.91,1.91 h -.19 a 1.92,1.92,0,0,1-1.91-1.91Z m -4.94,2.92 a 1.92,1.92,0,0,1,1.91-1.91 h .19 a 1.92,1.92,0,0,1,1.91,1.91v.19 a 1.92,1.92,0,0,1-1.91,1.91 h -.19 a 1.92,1.92,0,0,1-1.91-1.91Z"/>
  </g>
<script type="text/ecmascript" xlink:href="param.min.js"/> 
</svg>
