<?xml version="1.0"?>
<svg xmlns="http://www.w3.org/2000/svg" xmlns:xlink="http://www.w3.org/1999/xlink" viewBox="0 0 600 600">
  <title>basic-v-neck-t-shirt-slender</title>
  <g id="main-colour">
    <path d="M 314.58,228.37 c 3.73,11.32.42,17-1.14,18.07-20.62-.56-29.37-18.19-29.37-18.19 a 14.27,14.27,0,0,1-2.16.69 c -7.45-6.36-19.55-1.14-20,7.95 s 6,12.33,9.33,13.42 c -1.25,5.92,1.32,21.18,2.47,27.83,1.63,9.38,4.66,20.41,6.5,28.91,3.38,15.59.78,18.59-6.39,31 a 123.34,123.34,0,0,0-7.94,15.47,35.52,35.52,0,0,1,12.3.11 c 10.42,1.67,21.92,4.75,31.25,4.5,8.09-.22,16.48-1.5,21-6.78-.66-1.57-1.56-3.52-2.8-6-4-7.92-4.57-12.7-4.73-21.12 s 1.82-20.63,3.91-27.88 c 1.08-3.75,2.8-8.6,4.32-14,5.4-3.13,8.21-9.24,9-15.06,1.08-7.58-4.58-14.92-6.92-18.08-1-1.38-1.89-2.67-2.56-3.68 l -.14-.3 a 11.19,11.19,0,0,0-8.88-18 c -2,0-4-.17-5.66.72Z" fill="param(main_colour)"/>
  </g>
  <g id="outline">
    <path d="M 337.36,253.63 c -3.55-5-6.61-7.66-9.47-13.38,0,0,1.52,4.77,6.4,11.64,5.49,7.73,6.14,15.88,2.57,23 a 18.52,18.52,0,0,1-6.88,7.63 l -.37,1.32 c 5.1-1.55,9.43-7,11.26-13.95 C 342.12,265.16,341.62,259.61,337.36,253.63Z"/>
    <path d="M 330.18,352.76 a 7.32,7.32,0,0,0,1.26-1.33,58.92,58.92,0,0,0-2.47-5.8 c -3-6.13-5.8-11.93-4.5-26.84,1-11.72,5.23-25.16,8.13-37.27 a 14.84,14.84,0,0,1-2.81,1.72 c -5.92,20.79-10.18,35.49-7.32,50.47,1.62,7.4,5.14,12.84,7.71,19.05Z"/>
    <path d="M 284.41,226.93 a 11.64,11.64,0,0,1-2.89.89 c -.18,1.23,1.49,1.9,1.49,1.9 a 9.26,9.26,0,0,0,2.17-.83 S 284.8,228,284.41,226.93Z"/>
    <path d="M 316.63,226.24 a 18.37,18.37,0,0,0-3.58,2 c .56,1,1.19,1.46,1,1.53 a 12.06,12.06,0,0,0,2.56-1.33 l .54-.24 a 11.26,11.26,0,0,1,8.35-.33 C 322.94,225.38,318.51,225.38,316.63,226.24Z"/>
    <path d="M 274,227.22 a 11.14,11.14,0,0,1,6.16,1.85 h 0 l 1.56.85 c .76-.15,1.54-.21,2.07-.37 a 13.53,13.53,0,0,0-9.78-4.33,13.2,13.2,0,0,0-1.54,26.31 c 0-.54,0-2,0-2 h 0 A 11.2,11.2,0,0,1,274,227.22Z"/>
    <path d="M 271.23,268.19 c 2.5,9.5,6.15,21.81,8.36,31.38,1.85,8,3.7,15.63,3,23.92-.69,7.75-2.53,16.72-6.19,22.39,4.07-9.88,5.5-23.87,2.82-37.26 C 276.65,296.07,271.29,273.38,271.23,268.19Z"/>
    <path d="M 276.68,288.08 a 154.45,154.45,0,0,1-3.2-19,89.38,89.38,0,0,1-1-18.68 h -2.55 a 112.56,112.56,0,0,0,1.33,18.33 A 115.94,115.94,0,0,0,276.68,288.08Z"/>
    <path d="M 282.53,315.53 h 0 c -2,11.61-12,24.94-16.6,34.86-.76,1.64-1.41,3.25-2,4.82,1.54-.44,2.77-.71,2.77-.71 h 0 c .81-2,1.64-3.8,2.37-5.23,2.54-5,9.81-16.3,13.37-25.29 A 71.18,71.18,0,0,0,282.53,315.53Z"/>
    <path d="M 292.16,285.22 c 7.84.9,14.21-.68,20.22-7.6 C 309.53,285.36,299.45,288.84,292.16,285.22Z"/>
    <path d="M 270.73,350.63 s 3.25-1.12,13.75,1.5,31,6.25,40.25.5 A 41.37,41.37,0,0,1,310.86,355 a 127.21,127.21,0,0,1-23.21-2.83 C 280.27,350.56,273.61,349.25,270.73,350.63Z"/>
    <path d="M 264.27,355.11 s 5.1-2.24,17.21-.11 c 12.27,2.16,37,8.88,49.25-2.75 a 4.6,4.6,0,0,0-.5-1.25,31.28,31.28,0,0,1-18.75,6.5 c -11.37.13-19.5-2-24.62-3 s -16.81-3.87-21.62-1.12 A 9,9,0,0,0,264.27,355.11Z"/>
    <path d="M 284.41,226.93 s 7.87,17.7,28.54,19 c 5.75-5.94.09-17.63.09-17.63 l 2.06.67 s 4.85,12.63-1.8,18.33 c -9,0-23.52-5.79-29.6-18.21 A 5.47,5.47,0,0,1,284.41,226.93Z"/>
    <path d="M 286.33,236.34 a 35,35,0,0,0,27.5,12.17 c 4.5-4.12,4.88-9,3.54-16.31,2.17,6.81,1.19,13.23-3.5,16.85 C 307.12,249.67,293,246,286.33,236.34Z"/>
  </g>
<script type="text/ecmascript" xlink:href="param.min.js"/> 
</svg>
