<?xml version="1.0"?>
<svg xmlns="http://www.w3.org/2000/svg" xmlns:xlink="http://www.w3.org/1999/xlink" viewBox="0 0 600 600">
  <title>basic-bikini-top-voluptuous</title>
  <g id="main-colour">
    <path d="M 247.14,279 s 20.42,8.08,30.25,9.08 c .67-11.83,7.08-27,13.25-32.42 C 287.8,246,278.89,230,276.14,227 a 27.55,27.55,0,0,0,1.58-3.25 s 12.67,15.5,16.75,30.92 c 12,4.17,18.92,11.42,20.42,24.5 a 38.74,38.74,0,0,1,6-.58 s 3.68-17.14,13.34-27 c -7.92-10-12.19-16.72-12.19-29.47 a 14,14,0,0,0,1.93,3.52 s 2.33,14.25,14.33,24 c 4.33,1.33,9.83,3.67,12.42,10.75 s 1.42,15.83-3.92,21.42-15.33,10.58-24.75,1.17 a 18.8,18.8,0,0,0-9.5,2.08 s -2.42,4.83-9.33,8.33 S 287.3,296,275.55,293 s -27.5-10-27.5-10Z" fill="param(main_colour)"/>
  </g>
  <g id="outline">
    <path d="M 352.55,263.88 c -.54-3-3.67-12.62-14.17-15 a 41.52,41.52,0,0,1-14.12-23.66,23.87,23.87,0,0,1-2.47-5.59 s -1.21,10.08,3.34,19.33 c 2.5,5.08,8.33,12.5,8.33,12.5 s -9.25,9.58-13,26.67 a 11.64,11.64,0,0,0-4.92.58 s .42-17.75-20.5-24.33 c -4.58-13.33-12.33-26.08-17.5-31.75 a 30.27,30.27,0,0,1-2.17,4.25 s 10,14.25,14.38,28.75 c -9.33,11.5-11.93,21.58-13.1,31.75-7.28-.37-31-9.5-31-9.5 l 2,5.67 s 23.67,10.33,38.5,12.33,22.67-3.75,28-10.92 c 4-1.17,6.08-1.83,7.67-1.33,1.17,1.17,3.33,4.92,10.83,5.25 s 14.21-3.81,18.17-11.67 A 21.11,21.11,0,0,0,352.55,263.88Z m -55.92,30.67 c -11,2.2-38.92-8.33-48.08-12 a 15.46,15.46,0,0,0-.67-2.67 s 20.5,8.33,30,9 c 1.83-12,4.58-22.08,13.42-33.08-3.67-13.08-12.5-25.92-14.5-28.75 a 15.53,15.53,0,0,0,1.17-2.17 A 107.14,107.14,0,0,1,293.89,255 c 13.92,4.42,19.67,13.92,20.33,25.42 a 9.5,9.5,0,0,1-1.42,3.83 A 28.13,28.13,0,0,1,296.64,294.54Z m 51.44-15.4 a 24.43,24.43,0,0,1-3.92,2.86,12.81,12.81,0,0,0,.74-4.63,12.67,12.67,0,0,1-1.92,5.27,16.31,16.31,0,0,1-3.58,1.32,19.7,19.7,0,0,1-15-3 s 3.83,4.33,11.42,4.25 a 17.4,17.4,0,0,0,10.48-3.72,19.8,19.8,0,0,1-4.89,4.06 c -6.85,3.94-16.33,1-18.83-3.17 a 19.74,19.74,0,0,0-7.68,1.17,11.84,11.84,0,0,0,.7-3.57,22.17,22.17,0,0,1,5.82-.51 s 3.92-17.83,13.92-28 c -6.75-7.42-11.68-15-13-28,.5,1,1.22,2.09,1.22,2.09 a 42.84,42.84,0,0,0,14.38,24.81 c 8.42,1.54,12.5,9.13,13.38,15 A 20,20,0,0,1,348.07,279.15Z"/>
    <path d="M 300.64,289.63 l -.62.19 a 22.89,22.89,0,0,0-.47-6.6,21.52,21.52,0,0,1-.71,6.94 c -5.48,1.46-10.32,1.33-17.21,0,0,0,9.62,4.18,19.38.38,8.88-3.46,10.88-8.5,10.88-8.5 S 306.89,287.63,300.64,289.63Z"/>
  </g>
<script type="text/ecmascript" xlink:href="param.min.js"/> 
</svg>
