<?xml version="1.0"?>
<svg xmlns="http://www.w3.org/2000/svg" xmlns:xlink="http://www.w3.org/1999/xlink" viewBox="0 0 600 600">
  <title>default-top-voluptuous</title>
  <g id="main-colour">
    <path d="M 311.62,272.38 a 70.06,70.06,0,0,1,20-21.12 c -5.87-8.12-10.12-17-9.62-29.37 a 31.23,31.23,0,0,0,2.25,4 s 1.63,14.25,10.88,25.5 c 8.75,3.58,12.33,9.83,13.63,16.63-1,7.88-2.75,11.13-8.37,16.13 s -10.87,3-13.87,2.38-10.12-3.25-13.12-3.12-5.37,1-9.12,2.25-10.62,4.13-25.12,2.38-31.62-6.75-31.62-6.75-1.12-6-1.37-8.25 c 0,0,14.75,6.75,22.25-.37,7.63-13.12,12.5-17.75,16.75-22.5-3.5-13.62-7.87-20.87-9.25-22.62 a 30.32,30.32,0,0,1,2.25-4.62 s 9.63,17.63,11.75,27 A 57.68,57.68,0,0,1,302.62,258 C 308.12,262.88,311.62,272.38,311.62,272.38Z" fill="param(main_colour)"/>
  </g>
  <g id="outline">
    <path d="M 311.87,271.25 c -4.5-12.5-13.37-18.12-21.17-21.87 C 286.7,236,278,221.63,278,221.63 l -2.87,5.75 s 7.38,10.94,9.25,22.67 c -11.88,10.83-14,20.32-18.38,23.21-4.87,3.25-15.12.88-21.12-2.12 a 48.66,48.66,0,0,0,2.42,10.58 s 33.34,9.85,47.42,7.08 c 14.42-2.83,15.75-6.46,24-3.77 s 14.61,3.92,20,1.19 c 5.54-2.83,11.67-11,10.54-22 a 30.89,30.89,0,0,0-13.79-14 C 331.12,246.63,324.7,231,324.7,226 a 40.13,40.13,0,0,1-2.92-6.25 s -2.75,14.92,8.92,31.58 c 0,0-7.49,4.75-12,9.88 A 56,56,0,0,0,311.87,271.25Z m 20.63-19.37 c -3.75-5.58-9.5-13.19-10.21-28.54 a 19.29,19.29,0,0,0,1.5,2.79 s .92,12.5,10.67,25 c 7,3.25,13.33,10.33,13.67,17-.62,8.94-6.52,16.23-12.94,18.31-3.87.94-10.15-.56-14.65-2.15 s -8.67-1.83-12-.67-15.33,5.58-26.67,4.08-32.75-7-32.75-7 a 42.22,42.22,0,0,1-1.25-6.25 c 5.67,1.83,14,3.75,19.25.25 s 7.5-13.62,18.75-24.46 a 65.15,65.15,0,0,0-9.12-22.67 s .94-1.81,1.5-3.25 c 2.75,4.63,9.94,20,11.13,25.69,5.44,3.94,17,8.19,22.12,24.19,0,0,4.88-7.5,9.13-12.62 S 332.5,251.88,332.5,251.88Z"/>
    <path d="M 274.12,283.38 s 15.5,5.38,31.25-1.37 A 68.39,68.39,0,0,1,274.12,283.38Z"/>
    <path d="M 320.25,281.19 s 10.75,3.94,16.88,2.06 a 17.69,17.69,0,0,0,8.31-5.12,8.81,8.81,0,0,1-1.06,2 s -4.19,4.4-9.56,4.63 A 29.33,29.33,0,0,1,320.25,281.19Z"/>
  </g>
<script type="text/ecmascript" xlink:href="param.min.js"/> 
</svg>
