<?xml version="1.0"?>
<svg xmlns="http://www.w3.org/2000/svg" xmlns:xlink="http://www.w3.org/1999/xlink" viewBox="0 0 215 215">
  <title>professionally-pink-voluptuous</title>
  <g id="skin-tone">
    <path d="M 108.42,164.82 a 13.88,13.88,0,0,0-5.66,1.46 c .69,2.65,1.23,4.93,1.48,6.38.76,4.47,1.38,6.88,4.67,6.82 s 4.61-2.79,4.35-5.24 a 54.62,54.62,0,0,1,.4-8.64 A 13.3,13.3,0,0,0,108.42,164.82Z" fill="param(skin_tone)"/>
  </g>
  <g id="main-colour">
    <path d="M 115.2,102.67 a 9.08,9.08,0,0,0-15.27-.2 h 0 A 34.79,34.79,0,0,0,93,121.58 c -.58,11.54,2.45,20.43,4.68,27.27.61,1.89,1.86,5.67,2.79,8.7 a 18,18,0,0,1,14.4-.28 c .21-.92.45-1.94.53-2.28,1.78-7.41,4.49-21.23,4.68-29.48 S 119.79,108.61,115.2,102.67Z" fill="param(main_colour)"/>
  </g>
  <g id="accent-colour-2">
    <path d="M 103.23,169 a 4,4,0,0,1-3.75-1.25,3.29,3.29,0,0,1,.25-4.12 c -1.56-.94-2.62-2.94-.19-5.31 s 6.81-3,11.88-2.25,6.56,3.56,6.38,4.63 a 9.4,9.4,0,0,1-1.31,2.69 s 2.88,3.75-2.94,5.06 c .13-2,.12-2.85.12-2.85 s -6.37-2-10.68.85 C 103.11,167.44,103.23,169,103.23,169Z" fill="param(accent_colour_2)"/>
  </g>
  <g id="outline">
    <path d="M 115.2,102.67 c 2.1,3.93,4.48,9.84,4.06,21.59-.36,10.1-3.31,23.42-5.1,32 a 19.17,19.17,0,0,0-6-1,17.48,17.48,0,0,0-6.9,1 l -.32-1.15 C 98.67,147,93.6,135,94,123.55 c .32-9,3.81-18,5.91-21.08-2.66,1.64-7.71,8.79-8.16,18.28-.67,14.41,3.73,25.05,6.87,34.69q.33,1,.63,2 a 5.37,5.37,0,0,0-1.4,1.67,3.4,3.4,0,0,0,1,4.65 c -.07.09-.14.17-.21.27-2,2.92.42,5.87,3.8,5.72.76,3.52,1.09,5.68,1.09,5.68 a 5.32,5.32,0,0,0,5.31,5.13 h .22 a 5.34,5.34,0,0,0,5.13-5.53,43.73,43.73,0,0,1,.1-6.19 c 3.31-.84,3.58-2.94,3.15-4.3 a 3.28,3.28,0,0,0-.37-.74,4,4,0,0,0-1-6.62 c 1.69-8.48,4.06-18.48,5-30.25 C 122.82,105.9,115.2,102.67,115.2,102.67Z M 109,178.53 h -.14 a 3.33,3.33,0,0,1-3.32-3.21 h 0 a 22,22,0,0,0-.45-3.77v-.08 h 0 c -.29-1.52-.7-3.32-1.19-5.3 a 16.78,16.78,0,0,1,8.64-.51,68.82,68.82,0,0,0-.32,9.41 A 3.33,3.33,0,0,1,109,178.53Z m 7.79-19.15 c .73,1,.32,2.26-.68,3.3 a 7.31,7.31,0,0,0-4.91-1.51 c 4.75.58,5.75,3.85,5.13,5 a 2.82,2.82,0,0,1-1.91,1.37 c 0-.46.09-.92.15-1.38 l .37.11 c -1-2.54-12.21-2.52-13.5.94 l .41-.23.29,1.24 a 2.48,2.48,0,0,1-2.26-1.38 c -.71-1.67.88-5.25,6-5.92-2.55-.14-4.57.21-6.24,1.92 a 2,2,0,0,1-.72-2.63 c .88-2.17,3.65-3.85,9.35-3.8 S 116,158.34,116.84,159.38Z"/>
  </g>
<script type="text/ecmascript" xlink:href="param.min.js"/> 
</svg>
