<?xml version="1.0"?>
<svg xmlns="http://www.w3.org/2000/svg" xmlns:xlink="http://www.w3.org/1999/xlink" viewBox="0 0 600 600">
  <title>city-classic-top-hourglass</title>
  <g id="main-colour">
    <path d="M 353.9,264.25 c -.5-7.87-7.25-14.25-12.12-17.37 L 336,243.13 c .06-.18.13-.35.18-.53 s .12-.41.17-.61.07-.31.1-.46.09-.49.12-.74,0-.26,0-.39 c 0-.38.06-.77.06-1.17 h 0 a 12,12,0,0,0-16-11.31 c -.43-2.71-4.5-5-8.18-6.8,2.06,3.88,8.22,13.08,4.63,21.13-19-3.12-28.1-13.92-29.53-20.51-3.14,3.7-7.34,5.71-12.28,7.18-5.33-2.17-11.92-4-16.83-1.17 s -7.33,8-6.42,14 S 257.88,251,263,252.18 c -.08,8.08,1.5,22.33,4.83,29.25 s 7.77,13,9.85,16.83 c 2.52,4.62,4,10.46,2.5,19.13 s -11.92,16.92-16.25,21-8.29,9.92-11.37,17.75 a 31.24,31.24,0,0,0-2.08,8.77 c 3.5.74,11.72,1.59,24-2.64 C 291.11,356.5,304,344,308,339.88 c 4.36,5.32,16.25,16.7,28.78,19.43 a 14.67,14.67,0,0,0-.66-1.81 c -1.44-8-6.38-14.59-10.12-20.5-4.12-6.5-5.17-11-4.75-16.25 s 3.73-12,7.32-18 a 52.89,52.89,0,0,0,4.56-11,26.37,26.37,0,0,0,10.67-4.25 C 352.28,281.5,354.4,272.13,353.9,264.25Z" fill="param(main_colour)"/>
  </g>
  <g id="accent-colour-1">
    <path d="M 287.28,222 s 6.58,18.5,29.79,19.88 c 2.83-6.87-1.79-16.12-5.17-21.37 a 19.57,19.57,0,0,0,4.13,3.38 s 4.88,9.5,8.63,15,9.5,13,10.38,19.75-.75,18.5-14.25,31.13 c .5-10.12-2.62-22.62-11.87-31.75 s -24.37-19.37-24.75-34 C 285.78,223,287.28,222,287.28,222Z" fill="param(accent_colour_1)"/>
  </g>
  <g id="accent-colour-2">
    <path d="M 320.73,289.38 s -8.08-13.92-27.33-20.92 c 2-7,3-9.92,3-9.92 s -4.83-2.25-12.75-2.08 c -3.17-12-4.25-23.5-3.5-30.08,1.83-1,4-2.37,4-2.37 a 26.32,26.32,0,0,0,4.42,13.38 c 4.5,6.92,13.33,14.42,19,19.58 S 322.15,273.46,320.73,289.38Z" fill="param(accent_colour_2)"/>
    <path d="M 328.82,281 a 33,33,0,0,0,6.33-16.5 c .75-9.58-4.58-16.25-8.08-21.83 s -9.5-13.58-10.5-18.75 a 5.63,5.63,0,0,0,2.5,1.17 s 6.17,11.25,16.58,17.92 c -1.42,5.75-1.25,7.33-1.25,7.33 s 5.83,4.75,7.75,10.75 a 58.48,58.48,0,0,1-7.83,14Z" fill="param(accent_colour_2)"/>
    <path d="M 279.48,319.38 s 6.38,3.63,12.75,4 c -3,6.75-7.37,12.63-12,11.75 s -7.12-3.75-7.62-5.62 a 21.33,21.33,0,0,0,5.63-7.5Z" fill="param(accent_colour_2)"/>
    <path d="M 324.92,335 s -6.94.81-7.44-10.37 c 2.44-.56,3.38-.81,3.38-.81 S 320,326.38,324.92,335Z" fill="param(accent_colour_2)"/>
  </g>
  <g id="outline">
    <circle cx="326.31" cy="250.89" r="1.21"/>
    <circle cx="329.15" cy="257.29" r="1.21"/>
    <circle cx="330.79" cy="263.91" r="1.21"/>
    <circle cx="330.93" cy="271.01" r="1.21"/>
    <circle cx="320.52" cy="298.39" r="1.78"/>
    <circle cx="315.15" cy="309.01" r="1.78"/>
    <circle cx="312.32" cy="320.89" r="1.78"/>
    <circle cx="311.32" cy="333.26" r="1.78"/>
    <path d="M 282.4,291.54 c 7.33,8.83,19.83,7.67,25.83,4.33 A 38.53,38.53,0,0,1,282.4,291.54Z"/>
    <path d="M 342.5,246.34 c -2-1-4.16-2.19-6.19-3.37 l .08-.47 a 46.77,46.77,0,0,1-15-14.89 A 10.39,10.39,0,0,1,329,227 a 9.46,9.46,0,0,0-8.63-1.1 c -.24-.42-.47-.84-.7-1.28-6.5-3.75-9.31-6.33-9.89-6.33,2.83,5.58,10.66,15.08,6.32,23.42-7.5-1.42-27.26-7.92-28-22.58 a 29.67,29.67,0,0,1-5.08,4.42 c -2.25,1.33-4.08,2.67-4.08,2.67 s 0,.14,0,.41 a 11.71,11.71,0,0,1-4.69.76 c -1.07-.16-3.3-.91-4.84-1.29 A 14,14,0,1,0,262.13,253 c 0,.17-.49,6.17,1.5,17.11 h 0 c .11.59.22,1.18.34,1.79.18.92.39,1.8.62,2.67 l .16.6 c .23.84.47,1.66.73,2.45 l .11.32q.36,1.06.76,2.08 l .22.54q.45,1.09.93,2.14 l .22.45q.43.9.89,1.76 l .22.42.11.21 h 0 a 61.86,61.86,0,0,0,3.76,6v0 c 4,6.33,10,15.17,6.5,25.83 s -14,16.83-20.67,25.83 a 45.05,45.05,0,0,0-8.67,22.67 c 16.33,2.83,40.17-5.33,58-24.83,11.33,11.83,21.63,18.58,29.38,19-.75-8-4-13.37-9-20.87 s -6.37-11-6.37-15.87,4.63-14.62,7.5-20.25 A 100.3,100.3,0,0,0,334,292.68 a 18.81,18.81,0,0,0,4.67-1.09 c 4.38-1.62,14.89-7.68,16.27-20.81 S 350.63,250.4,342.5,246.34Z m -7.73-3.09 a 37,37,0,0,0-1.85,7.58 c -3.8-7.45-9.67-14.49-11.54-17.87-1.75-3.16-3-5.71-3.7-7.3 a 12.52,12.52,0,0,0,1.2.46 A 50.19,50.19,0,0,0,334.78,243.25Z m -21.94,21.05 c .23.32.47.63.69.95 a 41,41,0,0,1,7,22.09 c -4.7-8.71-16-14.74-25.79-19.63 a 47.5,47.5,0,0,1,2.35-8.33 A 96.72,96.72,0,0,1,312.83,264.31Z m 13.59-21.82.1.14 c 7.42,10.15,14.19,22.13-1.44,41.69,10.86-20.66-2.53-36.86-6.79-41.26,1.68,1.09,4.78,3.17,7.74,5.44 A 12.11,12.11,0,0,0,326.43,242.49Z m -5.07,45.29 c 1-8.59-1.58-17.37-8-25.9-2.31-3.1-10.72-10.38-17.11-16.76,9.56,7.36,18.49,8,18.49,8 l 2.27-9.48 C 336.11,265.12,323.94,284.22,321.35,287.78Z M 336.23,264 c .42-3.18-.44-6.71-1.92-10.24 l .42-2.19 c 1.57,1.58,5.53,5.8,6.59,9.18-.8,3.47-4.3,9.33-8.55,15 A 38.2,38.2,0,0,0,336.23,264Z m -22.85-41.5 a 11.67,11.67,0,0,0,2.53,2.15 c 1.33,2.63,4.05,7.85,7.24,12.92 a 16,16,0,0,1,2.25,9.07 l -7.32-5.64 C 320.91,232.34,313.39,222.54,313.39,222.54Z m 2.72,20.58 c -.46,1.44-1.39,4.47-2.46,8.37-11.54-2.2-21.9-12-24.48-14.65 A 25.32,25.32,0,0,1,284.84,225 a 17.64,17.64,0,0,0,1.8-1.47 C 287.69,228.67,301.87,241.81,316.11,243.13Z M 281.3,227 a 14,14,0,0,0,2.46-1.23,29.75,29.75,0,0,0,5,13.31 c 4.58,7,15.14,14.45,22.18,22.89-3.54-1.25-15.84-5.39-26.35-6.31 C 279.4,236,281.3,227,281.3,227Z m 8.44,100 a 25.78,25.78,0,0,1-11.31-3.75,26.53,26.53,0,0,0,1.37-2.88 A 35.23,35.23,0,0,0,291.14,324 C 290.68,325.1,290.22,326.08,289.74,327Z m -.63,1.12 c -3.43,5.77-7.27,6.82-10.6,5.78 a 8.35,8.35,0,0,1-4.82-4.06,38.08,38.08,0,0,0,4.26-5.72 A 25.13,25.13,0,0,0,289.11,328.1Z M 251.39,364.5 c 3.25-15.37,9.25-21.5,15-27.25,2-2,4.13-4,6.17-6.19 a 9.47,9.47,0,0,0,5,4.31 c 8,2.75,12.75-4.37,15.75-12.5 a 33,33,0,0,1-13-3.89,24.39,24.39,0,0,0,.83-3.11 c 1.88-9.62-1-15.62-3.25-19.12 a 58.57,58.57,0,0,1-3.62-6.5 h 0 c -.39-.56-.79-1.15-1.2-1.78 l -.12-.19-.5-.79-.13-.21 c -.4-.66-.82-1.36-1.24-2.1 l -.2-.36-.44-.79-.23-.43-.44-.84-.22-.42-.64-1.28,0-.05 c -.18-.37-.35-.75-.52-1.14 l -.12-.27 c -.16-.39-.32-.79-.47-1.2v0 c -.15-.41-.29-.82-.42-1.24 l -.09-.29 c -.14-.43-.27-.87-.39-1.32v0 c -.12-.44-.24-.89-.35-1.34 l -.06-.26q-.17-.7-.32-1.41v0q-.15-.71-.29-1.42 l 0-.21q-.14-.73-.26-1.47 a 110.58,110.58,0,0,1-1.35-16.11 c 0-.41,0-1.11-.1-2 a 12,12,0,0,1,.54-24,7.81,7.81,0,0,1,2,.18,8.77,8.77,0,0,1,2.07.48 c 7,2.89,9.33,1.16,9.33,1.16.29-.07.59-.16.89-.26 a 108.62,108.62,0,0,0,4.22,28.35 A 73.05,73.05,0,0,1,295.21,259 a 79.25,79.25,0,0,1-3,9.93 c 12.73,5.28,24.61,13.67,27.65,21.33-1.77,2.85-9.62,15.85-11.9,26.17 a 70,70,0,0,0-.65,23.17 C 300,347.67,276.26,367.87,251.39,364.5Z m 72.56-30.19 c -1.21,0-3.73-.73-5.2-5.63 a 19.93,19.93,0,0,0,2.13-.52 A 43,43,0,0,0,323.95,334.31Z M 318,325.25 c .76-.14,1.62-.35,2.25-.51 a 15,15,0,0,0,.25,2.14 c 0,.11.06.24.09.36 a 15.21,15.21,0,0,1-2.12.44 C 318.3,327,318.14,326.15,318,325.25Z m 29.2-42.41 a 23.15,23.15,0,0,1-15,8.37 c -.07.25-.16.52-.24.78 h 0 a 52.94,52.94,0,0,1-5.1,11.87 c -4.12,7.14-6.46,14-6.63,19.34 a 9.16,9.16,0,0,1-3.62,1 c 1,6.56,2.49,11.63,8.17,11.54,4,6.91,9.58,15.68,11,22.34-8-.86-21.23-11.92-27.36-19.18 a 67.7,67.7,0,0,1,1.15-22.74 c 2.64-10.7,8.68-19.74,11.29-24.77,1.76-1.72,3.36-3.4,4.82-5.08,7.38-7.93,14.95-17.16,17.36-25.61-2.1-4.33-6.23-9.35-7.9-11.29.36-2,.69-3.73.92-5,1,.61,1.93,1.17,2.79,1.63,5.21,2.8,11.13,8.07,12.83,14.58 C 353.67,268.34,353,275.34,347.21,282.84Z"/>
  </g>
<script type="text/ecmascript" xlink:href="param.min.js"/> 
</svg>
