<?xml version="1.0"?>
<svg xmlns="http://www.w3.org/2000/svg" xmlns:xlink="http://www.w3.org/1999/xlink" viewBox="0 0 600 600">
  <title>police-shirt-slender</title>
  <g id="main-colour">
    <path d="M 349.45,266.5 a 21.18,21.18,0,0,0-8.37-14.12,93.55,93.55,0,0,1-9.62-8.46,11.09,11.09,0,0,0,1.46-5.5,11.21,11.21,0,0,0-7.45-10.56,7.39,7.39,0,0,0-3.94-1.31,6.49,6.49,0,0,0-2.79.72 L 312,221.13 a 32.22,32.22,0,0,0-5-.5 c 1.17,4.38,5.73,7.16,7.73,8.17,0,.29,0,.57,0,.86 l 0,0 a 113.9,113.9,0,0,1-.88,11.94 c -.54-.23-4.63-1.19-5.12-1.5-6-1.82-13.37-4.4-17.66-8.06 a 16.43,16.43,0,0,1-3.78-4.86,25.53,25.53,0,0,0,3-4.95 c -3.07,1.12-5.75,4.58-6.93,6.28 a 14.44,14.44,0,0,1-1.41.4 c -7.45-6.36-19.55-1.14-20,7.95 s 6,12.33,9.33,13.42 c -1.25,5.92,1.33,21,3.17,27.5 s 6.92,19.67,9.08,28.08 c 1.89,7.35-1.42,16.91-7.06,27.48,3.17,1.54,9,3.73,19.22,5.64,14.9,2.79,23.88.19,28.87-2.85 a 43.2,43.2,0,0,1-1.6-11.9 c -.17-8.42,1.89-15.63,3.64-23.26.79-3.42,1.95-8.45,3.34-13.24,3.36-.65,8.81-2,12.16-4.38 C 347.2,279.75,350.08,272.13,349.45,266.5Z" fill="param(main_colour)"/>
  </g>
  <g id="accent-colour-1">
    <path d="M 276.92,333.63 s 29.5,12.75,47.5,3 c 1.63,4.63,6.25,13.88,10.13,21.88 s 8.5,20,10.13,28.63,4.25,43.75,4.25,43.75-9.75,8.25-31,12.5-45.87-.25-56.62-8.5 c 2-7.25.13-15.5-1.25-21.75 s -3-25,.38-42.12,8.38-25.5,11-29.75Z" fill="param(accent_colour_1)"/>
  </g>
  <g id="fixed-colours">
    <circle cx="313.53" cy="344.05" r="1.92" fill="#ffcc50"/>
    <path d="M 314.45,242 s 15,12.67,17.83,22.5 c -1.33,9.33-5.17,19.33-7.33,22.83-6.5-6-13.67-13.17-15.17-17.33 C 310.45,257.21,312.79,245.55,314.45,242Z" fill="#fff"/>
  </g>
  <g id="outline">
    <path d="M 313.38,240.84 a 99.44,99.44,0,0,0-4,29.59 c 2.93,6.19,15.57,18.85,15.57,18.85 s 6.55-12.35,8-24.73 C 327.68,250.26,313.38,240.84,313.38,240.84Z M 311,270.2 c 0-12.16,3.44-26.67,3.44-26.67 s 10.35,6.56,17,20.89 a 78.93,78.93,0,0,1-6.51,22 S 315.31,278.17,311,270.2Z"/>
    <path d="M 312.63,248.16 l 1.9-.57,1.35,4.11 s -3.07,1-3.65,1.63 A 39.62,39.62,0,0,1,312.63,248.16Z"/>
    <path d="M 313.5,243.46 l 1,4.13,3.61-1.31 a 27.67,27.67,0,0,0-3.63-3.64 C 313.72,242.2,313.5,243.46,313.5,243.46Z"/>
    <path d="M 322.12,249.51 l -2.09.64-1.89-3.88 S 320,246.65,322.12,249.51Z"/>
    <path d="M 317.1,255.87 l -1.23-4.18 a 20.38,20.38,0,0,1,4.15-1.54 c 1,2.31,1.92,4.25,1.92,4.25 S 319.06,255.17,317.1,255.87Z"/>
    <path d="M 325.79,253.77 a 12.4,12.4,0,0,0-3.84.64 c .88,1.82,1.63,3.65,1.63,3.65 l 4.58-.81Z"/>
    <path d="M 314.35,261.45 s 2.64-1.68,4.14-1.79 c -.79-2.45-1.39-3.79-1.39-3.79 s -2.57.93-4,1.53 C 313.93,259.85,314.35,261.45,314.35,261.45Z"/>
    <path d="M 310.95,263.81 a 15.58,15.58,0,0,1,3.6-2.38 c .52,2.09,1.54,4.15,1.16,4.18 a 15.73,15.73,0,0,0-4.09,2.54 A 37.93,37.93,0,0,1,310.95,263.81Z"/>
    <path d="M 319.95,263.57 a 34.83,34.83,0,0,1,4.93-1.21,24.7,24.7,0,0,0-1.3-4.3 s -3.44,1-4.9,1.59 C 319.3,261.36,319.95,263.57,319.95,263.57Z"/>
    <polygon points="312.02 253.84 313.07 257.4 310.95 258.42 312.02 253.84"/>
    <path d="M 315.7,265.62 s 2.66-1.44,4.25-2 c .81,2.7,1.19,4.55,1.19,4.55 s -3.65,1.63-3.85,2.27 A 38.26,38.26,0,0,0,315.7,265.62Z"/>
    <path d="M 324.88,262.36 s 2.73-.44,4.1-.53 c .39,2,.68,4.46.68,4.46 a 11.13,11.13,0,0,0-3.92.46 C 325.41,264.58,324.88,262.36,324.88,262.36Z"/>
    <polygon points="331.11 261.8 328.98 261.82 328.16 257.25 331.11 261.8"/>
    <path d="M 312.46,273.11 s 3.49-2.12,4.83-2.71 c .72,2.33,1.32,4.67,1.32,4.67 a 26.28,26.28,0,0,0-3.74,2.14 A 20,20,0,0,1,312.46,273.11Z"/>
    <path d="M 321.14,268.13 l 1.23,5.18 a 27.74,27.74,0,0,1,4.06-1.15 c -.34-3.11-.68-5.4-.68-5.4 A 25.64,25.64,0,0,0,321.14,268.13Z"/>
    <polygon points="329.66 266.29 330.19 271.26 330.95 270.58 332.05 266.5 329.66 266.29"/>
    <path d="M 318.61,275.06 a 20.58,20.58,0,0,1,3.76-1.76 c .58,3,.85,5.08.85,5.08 a 13.72,13.72,0,0,0-3.54,1.37 C 319.07,277.23,318.61,275.06,318.61,275.06Z"/>
    <path d="M 326.43,272.15 a 29.66,29.66,0,0,1,3.76-.88 c .32,2.86.09,2.25.09,2.25 l -1,3.45-2,.51Z"/>
    <polygon points="323.22 278.38 327.29 277.48 327.71 280.77 327.3 282.17 323.84 282.85 323.22 278.38"/>
    <path d="M 318,280.5 l 1.7-.74 s 1,3.57.6,3.22 S 318,280.5,318,280.5Z"/>
    <polygon points="323.84 282.85 321.05 283.29 324.77 287.3 323.84 282.85"/>
    <polygon points="310.29 268.87 311.62 268.15 312.46 273.11 309.7 270.35 310.29 268.87"/>
    <path d="M 287.92,227.21 a 12.86,12.86,0,0,0,3.33-6.17 s -5.5,2.33-8,6.5 c 3.5,8.83,12.78,18.58,27.86,25.5,1.58-8.42,2.5-12.08,2.5-12.08 S 291.09,235,287.92,227.21Z M 311,251.55 c -10.75-5.17-22.78-15-26.2-23.5,1.08-3,4.42-4.67,4.42-4.67 a 41.93,41.93,0,0,1-2.42,3.67 c 2.83,9.17,26.11,15.08,26.11,15.08 S 312,245.63,311,251.55Z"/>
    <path d="M 307.17,219.8 s 3.92.42,5.17.75 a 43.87,43.87,0,0,1,6.95,6.42 s 3.58,5.83,1.17,20.5 a 48.57,48.57,0,0,0-7.07-6.62 s .54-3,.79-13.46 c -1.42-2.42-2.42-2.83-2.42-2.83 a 6.57,6.57,0,0,1,3.42,3,73.84,73.84,0,0,1-.22,13.17 c 2.75,2.42,4.5,4.17,4.5,4.17 s 1.92-9.25-.83-17 a 68.84,68.84,0,0,0-6.86-6.25,38.13,38.13,0,0,0-4.17-.33 A 11.44,11.44,0,0,1,307.17,219.8Z"/>
    <path d="M 307,262 c -9.33,2-15.58-.42-15.58-.42-.33,4-.58,14.75-.58,14.75 a 32.37,32.37,0,0,0,9,5.5 c 2.67-1.5,7.92-7.58,7.92-7.58 S 307.17,265.38,307,262Z m -7.08,18.33 a 41,41,0,0,1-7.75-4.58 l .5-12.42 s 4.67,2,13.08.33 c .17,4.42.75,10.08.75,10.08 S 301.75,279.13,299.92,280.29Z"/>
    <path d="M 291.84,265.21 a 33.26,33.26,0,0,0,7.25,4.25,46.39,46.39,0,0,0,7.33-3.83 l .08,1.17 a 41,41,0,0,1-7.5,3.92,30.91,30.91,0,0,1-7.25-4.25Z"/>
    <path d="M 277.3,332.88 s 29.63,12.75,46.38,2.75 a 16.69,16.69,0,0,1,.63,1.75 s -12.87,9.63-47.5-3 C 277,333.75,277.3,332.88,277.3,332.88Z"/>
    <path d="M 324,287.21 s .33,6.59-5.92,23.58 c -4.17,11.33-3.76,21.67-3.67,28.67 a 3.15,3.15,0,0,0,1.75-.17 s -1.34-6.74,1.08-19.83 c 1.67-9,5.83-14.25,8.5-32 C 325,288.21,324,287.21,324,287.21Z"/>
    <path d="M 343.2,278.71 a 61.37,61.37,0,0,1-5.7-5.5 c 1.08-4.17,1.5-8.5.08-12.67,5.58-.67,8-2.83,8-2.83 a 11.29,11.29,0,0,0,.5,1.33,13.56,13.56,0,0,1-7,2.33 A 22.39,22.39,0,0,1,339,273 c .92,1.08,4.36,4.33,4.36,4.33 a 33.24,33.24,0,0,0,5.17-5.58,3.74,3.74,0,0,1,.08,1.67 S 345.2,277.88,343.2,278.71Z"/>
    <path d="M 338.92,262.71 s 3.25.83,6.08,1.33 a 8.44,8.44,0,0,0,1.67-2.75 l .5,1.08 a 9.75,9.75,0,0,1-1.92,3.08,53.56,53.56,0,0,1-6.42-1.58Z"/>
    <circle cx="321.02" cy="291.13" r="1.13"/>
    <circle cx="319.13" cy="298.88" r="1.13"/>
    <circle cx="316.97" cy="306.25" r="1.13"/>
    <circle cx="314.58" cy="313.5" r="1.13"/>
    <circle cx="312.58" cy="320.49" r="1.13"/>
    <circle cx="311.65" cy="328.38" r="1.13"/>
    <circle cx="312.15" cy="334.75" r="1.13"/>
    <path d="M 317.55,225.94 a 9.18,9.18,0,0,1,7.88,1.88,10.88,10.88,0,0,0-6.44-.25 A 12.05,12.05,0,0,1,317.55,225.94Z"/>
    <path d="M 284,227 a 24.06,24.06,0,0,1-2.31.81 c -1.62-1.69-8-4.44-14.12-1.06 a 13.28,13.28,0,0,0-4.69,18.88 c 2.13,3.38,6.19,5.06,6.94,5.38 a 106.2,106.2,0,0,0,2.5,23.25 c 1.69,6.63,6.81,19.25,10.31,26.75 s 5.69,12.75,6.13,17.88 c .13-6.19-1.31-10.94-4-16.56 A 240.7,240.7,0,0,1,275,275.63 a 87,87,0,0,1-2.56-26.12 c -3.5-.12-7.81-3.5-9.12-7.69 a 11.35,11.35,0,0,1,4.31-12.62,11.49,11.49,0,0,1,13.5.44,14.57,14.57,0,0,0,3.38-.81Z"/>
    <path d="M 272.09,270.21 a 109.91,109.91,0,0,0,5,19.5 c 3.58,9.75,7,20.17,5.25,27 a 77.58,77.58,0,0,1-7.17,16.92,23.9,23.9,0,0,0,2.17,1.08,98.45,98.45,0,0,0,6.42-14.5 c 2-6.42,2.42-10.5-.75-19.92 C 279.17,291.88,273.34,276.46,272.09,270.21Z"/>
    <path d="M 307.63,219.84 s 1.54,5.92,7.13,7.83 a 3.14,3.14,0,0,1-.58,1.54,13.45,13.45,0,0,1-8.33-9.25 A 2.8,2.8,0,0,1,307.63,219.84Z"/>
    <path d="M 331.18,287.45 l -2.16.18 c -1.13,4-2.88,10.38-3.84,14.66-1.5,6.67-3.75,17.08-3.42,24.25 a 40.11,40.11,0,0,0,1.92,11.33 s 1.33-.83,1.83-1.17 c -2.42-8.83-1-21.25.5-28.25 C 327.05,303.57,329.68,293.24,331.18,287.45Z"/>
    <path d="M 328,287.55 a 32.59,32.59,0,0,0,12.33-4.83 C 346,278.8,348,274.13,348,268.3 a 17.34,17.34,0,0,0-5.08-12.67 c -3.08-3.33-12.25-10.58-15-15.33 a 123.68,123.68,0,0,0,10.67,9.42 c 2.83,2.17,7.5,4.08,10.25,9.75 s 2.63,10.87.5,16.58 C 346.7,283,335.62,290.63,328,287.55Z"/>
    <path d="M 291.79,287.38 s 9,5.08,22.92,1.58 C 308.2,292.8,300,293.38,291.79,287.38Z"/>
    <path d="M 275.17,333.63 c -1.12,2.13-10.25,13.75-14.5,31.38 s -3.86,37.27-2.12,45.88 c 2.33,11.54,3.64,21.15,1,24.33,13,8,32.21,12.54,54.21,9.79 a 81.58,81.58,0,0,0,36.29-13.62 s -1.42-31.5-5-47-12.75-32.87-15.5-38.5-4-9.17-4-9.17-1.46-.46-1.71.54 c 1.38,4.38,6.25,13.63,8.63,18.75 s 9,19.63,11.38,31.88,4.29,42.63,4.29,42.63-8,6.25-23.79,10.63-47,3.54-61.71-6.58 c 1.5-7.67.67-12.33-1.17-20.42-1.49-6.56-2.75-22.75-.87-37 s 5.75-23.37,8.38-28.62,8.42-13.79,8.42-13.79 l 0-1.83Z"/>
    <path d="M 272,341 s 22.13,9.25,41.25,7.25 a 47.39,47.39,0,0,0,14-4.25 l .63,1.5 s -7.75,3.5-15,4.13-21.75.5-41.37-7.5 A 4.9,4.9,0,0,1,272,341Z"/>
    <path d="M 313.51,341.63 a 2.42,2.42,0,1,0,2.42,2.42 A 2.42,2.42,0,0,0,313.51,341.63Z m 0,3.83 a 1.42,1.42,0,1,1,1.42-1.42 A 1.42,1.42,0,0,1,313.51,345.46Z"/>
    <path d="M 321.67,379.38 s -9.5,31.75-21.25,44.75 C 313.92,412.38,321.67,386.63,321.67,379.38Z"/>
    <path d="M 322.67,407.13 s -8.75,16.25-18.5,23.5 C 312.67,428.38,322.17,411.63,322.67,407.13Z"/>
  </g>
<script type="text/ecmascript" xlink:href="param.min.js"/> 
</svg>
