<?xml version="1.0"?>
<svg xmlns="http://www.w3.org/2000/svg" xmlns:xlink="http://www.w3.org/1999/xlink" viewBox="0 0 600 600">
  <title>default-top-hourglass</title>
  <g id="main-colour">
    <path d="M 266.61,278.25 s 9.88,3.13,13.13-.25,7.13-14.25,15.71-22.71 c -1.92-10.67-5.17-22.08-12.08-30.58 a 20.39,20.39,0,0,1,2.58-1.58 A 89.64,89.64,0,0,1,299.52,255 c 3.92,3.83,9.35,5.6,13.1,19.23 a 38.86,38.86,0,0,1,5.48-12.14 c 3.13-5,6.38-6.87,7.75-8.58-3.75-11-9.67-24.92-12.58-29.5 a 18.31,18.31,0,0,0,3.92,2.42 s 8.67,13.92,11.83,26.08 c 4,6.25,6.75,12.67,7.17,17.83 s -1.58,12.33-1.58,12.33-1.5,1.67-7.17,1.92 a 23,23,0,0,1-10.92-2.17 c -3.42-.58-5.75-.42-7.58.33-2.33,1.83-5.58,5.08-15.67,5.58 s -24.42-3.67-24.42-3.67 S 266.77,279.75,266.61,278.25Z" fill="param(main_colour)"/>
  </g>
  <g id="outline">
    <path d="M 312.61,276.5 a 37.81,37.81,0,0,1,14-22.37 c -6-18.75-12.32-28.75-12.32-28.75 a 6.1,6.1,0,0,0,2.25,1.33 c 1.82,2.29,3.82,6.17,6.07,10.67 s 6,15.5,6,15.5 a 41,41,0,0,1,6.5,14.67 c 1.19,6.31-.25,11.33-1.17,15-2.77,1.23-11.21,2.71-16.83-.67 a 11.28,11.28,0,0,0-9.09.66 l 1,.84 a 11.35,11.35,0,0,1,7.5-.37 c 4.36,2.56,14.25,3.5,18.88.25,0,0,2.38-10.63.75-16.87 a 42.88,42.88,0,0,0-6.33-13.83 c -2-4.75-7.67-20.92-12.24-26.5 a 20.19,20.19,0,0,1-6-4.5 s 8.82,15.46,13.69,31.83 c -7.38,6.13-12.13,14.38-12.75,20.75"/>
    <path d="M 319,280.88 s 8.83,3.83,15.75-.42 C 331,282,324.94,282,319,280.88Z"/>
    <path d="M 287.94,285.88 s 11.25,1.67,19.33-4.25 C 303,283.63,298.19,285.55,287.94,285.88Z"/>
    <path d="M 308,282.54 c -2.37,2-4.71,3.77-11,4.92-8.79,1.62-23.72-1.79-26.81-3 a 46,46,0,0,1-2.12-5.12 s 8.63,2.94,13-1.75 c 2.72-2.91,4.88-10.81,15-22.12-1.67-10.75-5.57-22.29-11.86-30.5 l 1.56-1.19 c 2.38,2.94,6.64,10.43,9.81,19.81,3,8.88,3.38,12.25,3.38,12.25 s 10.11,4.5,13.61,20.63 c .06-1.19.09-2.44.16-3.06 C 310.48,261,300.12,255,300.12,255 s -4.25-19.12-14.25-32.62 a 34.49,34.49,0,0,1-2.94,2.25 s 8.67,11.75,11.92,30.25 c -9.75,10-12.39,18.38-14.25,20.63-2.44,2.94-5.25,4.63-15.37,1.5.67,2.83,3.47,8.21,3.47,8.21 s 13.86,4.79,25,3.79 c 7.17-.64,11-1.62,16-6.12,0-.29,0-.57,0-.86 A 16.59,16.59,0,0,1,308,282.54Z"/>
  </g>
<script type="text/ecmascript" xlink:href="param.min.js"/> 
</svg>
