<?xml version="1.0"?>
<svg xmlns="http://www.w3.org/2000/svg" xmlns:xlink="http://www.w3.org/1999/xlink" viewBox="0 0 600 600">
  <title>basic-tank-top-hourglass</title>
  <g id="main-colour">
    <path d="M 340.14,251.13 c -1.93-1.62-4.29-3.58-5.81-4.83 a 44.11,44.11,0,0,1-12.33-20,11.13,11.13,0,0,0-2.93,1.22,29,29,0,0,1,1.73,8 c .13,4.88.92,15.5-9.17,16.17-11.12.74-22.83-7.33-31.17-24.42,0-.06-.07-.11-.1-.16 a 17.47,17.47,0,0,1-3.73,1.24 A 28.49,28.49,0,0,1,274,253.71 c -3.16,5-7,7.52-10.4,8.51.71,7,2.13,14.68,4.31,19.2,0,0,4.06,10.79,8,20.87 a 86.33,86.33,0,0,1,4.92,20.08 c -2.83,6.5-10,13.13-14.31,17.21 a 46.09,46.09,0,0,0-8.75,10.55,41.53,41.53,0,0,1,10.72-1.43 c 8.08,0,19.25,3.33,27.33,4.67 s 21,2.75,27.17-1.17 a 28.16,28.16,0,0,0,7.93-6.93 c -1.86-3-4-5.79-6-8.6-4.17-5.92-5.25-9-4.83-14.25 s 4.92-13.67,8.5-19.67 A 57.44,57.44,0,0,0,333.62,290 l -.39.11.34-2.38 A 21,21,0,0,0,348.26,270 C 349.14,260.88,343.26,253.75,340.14,251.13Z" fill="param(main_colour)"/>
  </g>
  <g id="outline">
    <path d="M 264.86,275.5 c 7,13.63,11.78,24.69,15,35.5,3.17,10.64,3.11,21-5.25,29.13,8.26-12.21,5.13-24.39.48-37.35 C 272.23,294.83,267.53,283.52,264.86,275.5Z"/>
    <path d="M 319.11,323 s -1.08,8.58,4.75,18.38 c -3-7-3.75-15.87-3.5-18.37 C 320.23,321.63,319.11,323,319.11,323Z"/>
    <path d="M 337.72,248.18 c -6.58-4.5-11.92-11.75-11.92-11.75,2.17,4.83,8.75,11.42,13,14.83 a 21.61,21.61,0,0,1,8.08,14.67 c .92,6.67-3,13.92-7.11,17.33 a 22.36,22.36,0,0,1-7.16,3.91 c -.18,1-.36,1.71-.36,1.72 l .21,0,2.81-.59 a 13.21,13.21,0,0,0,3-1.27 c 5.8-3.41,11.42-10.49,11.1-19.33 C 349.06,258.43,344.3,252.68,337.72,248.18Z"/>
    <path d="M 276.22,285.38 A 26.12,26.12,0,0,0,291.39,294 a 32.68,32.68,0,0,0,12.5-.33 C 294.19,298.69,280.93,296.08,276.22,285.38Z"/>
    <path d="M 257.36,351 s 7.25-3.5,24.13.25,30.89,6.29,39.75,2.75 c 8-3.21,10-8.25,10-8.25 l -.87-1 a 20.23,20.23,0,0,1-10,7.88 c -6.87,2.5-14.33,1.67-23.37.25-10.32-1.62-27.37-7.92-38.62-3.37 C 258,350,257.36,351,257.36,351Z"/>
    <path d="M 263,346.88 s 4.83-1.67,15.67.58,25.83,5.83,33.42,5.33 a 27.6,27.6,0,0,0,13.17-4.58 S 318,352,311.63,352.27 c -5.83.21-13.19-1.23-22.77-3.31 S 267.19,344.21,263,346.88Z"/>
    <path d="M 322.17,225.48 a 9.74,9.74,0,0,0-3.45,1.06 l -.9.39 c .21.74.49,1.61.61,2.08,1.34-.57,2.59-1.44,4.2-2Z"/>
    <path d="M 275.33,227.63 a 24.92,24.92,0,0,1,1.53,17.25 c -2.58,9-8.33,15.42-14.42,16.83.06,1,.17,1.83.17,1.83 s 11.58-2.67,16-18.42 c 2-7.13,0-15.5-1.62-17.87 C 276.23,227.38,275.33,227.63,275.33,227.63Z"/>
    <path d="M 280.69,225.88 s 7.82,16.23,17.53,21.5 c 11.67,6.33,27.75,6.5,19.6-20.45.9-.39,1.54-.72,1.54-.72 s 4.86,14.17.86,21.08 c -5.4,9.33-18,4.67-23.33,1.25-6-3.85-13.28-11.42-17.78-22 C 279.77,226.3,280.69,225.88,280.69,225.88Z"/>
    <path d="M 333.2,246.17 c -1.92-1.92-6.14-6.46-7.91-10 a 65.71,65.71,0,0,1-4-10.58 l 1.38-.25 s 1.32,3.79,2.38,6.56 c 2.51,6.6,5.76,9.73,10.43,14.56Z"/>
    <path d="M 275.33,227.63 a 31.66,31.66,0,0,0,5.36-1.75 l .48,1.71 a 19.67,19.67,0,0,1-4.88,1.56 A 4.77,4.77,0,0,0,275.33,227.63Z"/>
    <path d="M 272.37,291.08 a 125.18,125.18,0,0,1-5.32-14.91 h 0 a 75.71,75.71,0,0,1-2.47-14.5 c -.83.34-1.54.58-2.08.75.28,2.65.74,5.82,1.46,9.51 A 49.5,49.5,0,0,0,272.37,291.08Z"/>
    <path d="M 278.88,324.34 c -4.43,8-17.11,15.54-23.14,27.32,1.46-.65,2.65-1,2.65-1v0 a 42.24,42.24,0,0,1,4.91-6.38 c 2.18-2.33,7.39-7.09,11.86-12 l .74-.84 c .82-.93,1.6-1.86,2.33-2.78 l .76-1 a 33,33,0,0,0,1.89-2.78 c 0-1.2-.06-2.77-.2-4.51 A 26.68,26.68,0,0,1,278.88,324.34Z"/>
    <path d="M 320.8,322.34 c .77-5.92,5.19-13.63,8.09-18.78 h 0 c 3.22-5.09,4.6-8.87,6-16.11-.82.23-1.67.44-2.41.62-1,4.76-2.76,10.64-5.5,15.18-4.42,7.33-6.8,13.75-7.72,18.75-.83,4.54.95,9.2,3,12.28 l .69,1 c .71.91,1.49,2,2.31,3.12 l .7,1 c 1.58,2.23,3.27,4.75,4.87,7.25 a 6.46,6.46,0,0,0,.65-1.44 c -.53-.87-1.1-1.78-1.74-2.73 C 323.55,333.26,319.88,329.43,320.8,322.34Z"/>
  </g>
<script type="text/ecmascript" xlink:href="param.min.js"/> 
</svg>
