<?xml version="1.0"?>
<svg xmlns="http://www.w3.org/2000/svg" xmlns:xlink="http://www.w3.org/1999/xlink" viewBox="0 0 215 215">
  <title>slender-top-template</title>
  <g id="skin-tone">
    <path d="M 107.43,96.17 A 11.2,11.2,0,0,0,96.3,107.45 l -.89.37 c .08,2.56.64,18.53,2.28,36.47,1.8,19.59,5.19,38.23,6.46,43.39 h 0 a 5.31,5.31,0,0,0,10.59-.55 s .15-13.1,1.06-27,2.58-33.52,3-38.77 c .29-4,.61-10.12.74-12.77 l -.83-1.31 A 11.2,11.2,0,0,0,107.43,96.17Z" fill="param(skin_tone)"/>
  </g>
  <g id="main-colour">
    <path d="M 95.44,111.08 a 39.28,39.28,0,0,0,23.63.5,100.42,100.42,0,0,1-.5,11.88 s -9.33,5.05-22.62-.37Z" fill="param(main_colour)"/>
  </g>
  <g id="outline">
    <path d="M 118.56,105.68 a 11.23,11.23,0,0,1,.14,1.62 c 0,.93,0,2.37-.09,3.74-9.72,2.73-19.17.61-22.2-.22-.07-1.82-.12-3.37-.12-3.37 a 11.26,11.26,0,0,1,.14-1.73 l -.08,0 a 4.53,4.53,0,0,0-1.95,4.15 c .29,6.35,1.17,24,2.67,39 a 345.35,345.35,0,0,0,6.26,39.24,6.2,6.2,0,0,0,.2.86 h 0 a 6.21,6.21,0,0,0,12.13-1.91 c 0-8.53,2-40.11,3-51.39.56-6.28,1.14-14.4,1.54-20.35 C 120.42,107.81,119,106,118.56,105.68Z m 0,6.9 c -.09,1.31-.18,2.31-.18,2.31-.16,2.47-.37,5.42-.61,8.62 A 31.16,31.16,0,0,1,97,122.68 c -.15-2.9-.28-5.59-.38-7.87,0-.72-.09-1.6-.12-2.49 C 106.09,115.19,115.58,113.3,118.51,112.58Z m -4,55 c -.26,5.43-.51,11.34-.67,15.24,0,2.32-.18,4.36-.18,4.36 a 4.2,4.2,0,0,1-8,1.78 l -.07-.16 c -.43-1.13-1.35-4.89-1.35-4.89-1.78-8-4-23-5.32-34.72-.77-7.12-1.39-16.71-1.83-24.9,8.77,3.48,17.28,1.58,20.57.58 C 116.48,140.49,114.79,161.77,114.51,167.54Z"/>
  </g>
<script type="text/ecmascript" xlink:href="param.min.js"/> 
</svg>
