<?xml version="1.0"?>
<svg xmlns="http://www.w3.org/2000/svg" xmlns:xlink="http://www.w3.org/1999/xlink" viewBox="0 0 600 600">
  <title>basic-bikini-top-slender</title>
  <g id="main-colour">
    <path d="M 273.14,275.8 a 8.46,8.46,0,0,0,1.08,3.83 c 3.92,1.67,8.67,4.25,17.83,6.17 s 13.08,1.75,17.75-.83,5.5-3.83,5.5-3.83,5.75-.75,7.75-.17 c 3.25,1.83,7.58,3.75,12.5.83 s 8.33-8.25,8.92-12.75 a 20,20,0,0,0-3.58-14.25 c -3.25-4.5-9.08-8.17-12.67-10.92 s -11.42-9.42-14.67-13.25-4.5-6.75-4.83-8-1.33-1.25-1.17,0 a 21.41,21.41,0,0,0,4.25,8.75 A 99.11,99.11,0,0,0,325.47,244 c 3.83,2.75,9.92,7.92,9.92,7.92 s -8.75,7.67-12.08,25.17 c -1.92.83-5.33.42-5.33.42 s 4.33-6.42,2.08-13-6.25-8.67-12.58-11.33 c -3.75-8-12.5-21.25-20.08-27-.92.5-2.25,1.08-2.25,1.08 s 14.08,11.25,19.58,26.92 C 295.89,262,291.55,271,288.3,281.3,282.39,280.71,275.55,277.21,273.14,275.8Z" fill="param(main_colour)"/>
  </g>
  <g id="outline">
    <path d="M 338.55,251.21 c -2.5-2.33-15.23-11.62-19.83-15.67-4.77-4.2-7.78-8.52-9.11-11.85 a 16.86,16.86,0,0,1-1.72-3.16 s -1.83,1.68,1.5,7.84,13.33,14,17.67,17.17,7.83,6.33,7.83,6.33-8.83,6.67-12.17,24.83 a 7.85,7.85,0,0,1-3.67.33 s 3.33-5.5,2.33-11-6-11.17-13.5-13.33 c -6.17-11.83-14.17-22.67-20.67-27.83 a 23.67,23.67,0,0,1-3.33,2 s 12.69,8.44,20.25,26.75 c -9,8.67-12.75,16.08-16.5,27.25-6-.5-15-5.92-15-5.92 s .17,3.42,1.33,4.92 c 5.67,3.17,21.42,8.33,28.92,7.83 s 10.83-4.33,12.83-6 a 13.56,13.56,0,0,1,6.83-.33 s 4.5,2.83,8.67,2.67,12.33-5.33,14-14.83 S 341.05,253.54,338.55,251.21Z M 298,286.54 c -8.58-.83-17.33-4.67-23.42-7.17 a 4.27,4.27,0,0,1-.58-2.75 c 5.25,3.33,11.08,5.17,14.58,5.25,5.67-15.83,11.35-22.29,17-27.62 C 299.32,238,286.07,227,286.07,227 a 2.36,2.36,0,0,0,1.31-.69 c 9.5,8,17.17,21.56,19.75,27.48,4.5,1.25,7.73,2.69,10.88,7.4,3.79,5.67,1.68,13.07-1.44,17.44 C 312.82,283.88,306.55,287.38,298,286.54Z m 40.29-7.79-.36.33 a 17.57,17.57,0,0,1-2.53,1.32,5.46,5.46,0,0,0,.85-2.7,6.27,6.27,0,0,1-2.05,3.14,12.24,12.24,0,0,1-7,.28,10.71,10.71,0,0,0,7.67.27 c -3.83,2.13-7.69,1.62-11.92-.94 a 24.21,24.21,0,0,0-6.42.17,20.36,20.36,0,0,0,1.92-2.58,10.13,10.13,0,0,0,5.5-.75 C 325,271,328.05,259.71,336.05,252 c -5.25-4.5-7.83-6.5-11.42-9.25 s -9.92-8.33-12-10.83-4.59-6.65-4.5-9.61 a 7.47,7.47,0,0,0,1.22,2,31.14,31.14,0,0,0,6.45,9.25,203.55,203.55,0,0,0,18,15,25,25,0,0,1,10.08,15.75 C 344.51,268.13,343.26,273.84,338.26,278.75Z"/>
    <path d="M 308.27,278.35 a 15.1,15.1,0,0,1-3.28,5.51,29,29,0,0,1-12.66-.35 s 12,4.08,20.58-2.33 a 38.13,38.13,0,0,1-6.8,2.43 C 306.68,282.79,308.22,280.38,308.27,278.35Z"/>
  </g>
<script type="text/ecmascript" xlink:href="param.min.js"/> 
</svg>
