<?xml version="1.0"?>
<svg xmlns="http://www.w3.org/2000/svg" xmlns:xlink="http://www.w3.org/1999/xlink" viewBox="0 0 600 600">
  <title>OA000-default-bottoms-voluptuous</title>
  <g id="skin-tone">
    <path d="M 239.81,321.84 A 107.53,107.53,0,0,0,231.94,340 a 56.16,56.16,0,0,0-2.41,23.67 c -.59,10.54.21,21.65,3.91,29.75,8.77,16.25,24.06,22.91,39.56,21.75 s 24.93-12.78,24.93-12.78 l .48-.25 A 38.43,38.43,0,0,0,359,370.72 s 3.84-23.41-4.74-46.91 l -5.23-10.44 c -3.74-6.12-7.64-11-8.26-15.9 s 3.88-17.5,6-27-.49-15.61-.49-15.61 l -.22-.53-.32-.26 a 16.13,16.13,0,0,0-8.84-26.25v-.39 c -2.24-1.41-6.76-.84-11.76.54-5.58-6-6.4-19.35-6.49-22.47 a 73.85,73.85,0,0,1-37.12.18 c .06,2.13.07,4.29,0,6.29-.37,8.5-6.12,17.25-6.12,17.25 s -7.75-2.87-14.5-3.12-13.12,4.13-15.87,9.63-2.75,12.13,1.5,18.75 c -2.5,13.63.38,23.13,3.75,34 s .5,15.5-3.37,21.38Z" fill="param(skin_tone)"/>
  </g>
  <g id="main-colour">
    <path d="M 241,319 s 35.12,15.13,47,18.38,24.92,5.87,36.88,3.5 c 13.25-2.62,22.13-9.37,28-20.12.63,3.5,2.75,7.5,4.25,14.38-15.37-.25-25.41,13.64-28.62,19 A 197.72,197.72,0,0,0,316,379.27 c -1.87,4.75-4.12,6.63-8.62,6.38,1-14-.12-23.87-5-30.5-7.5-15.87-50.5-34.37-71.62,5.25 C 228.85,346.9,234.85,331.52,241,319Z" fill="param(main_colour)"/>
  </g>
  <g id="outline">
    <path d="M 245.77,253 s -3.17,14,.67,26.33,8.19,18.93,0,29.83 c -18.82,25.06-17.91,48.27-17.91,66.83 h 2 s -1.39-26.08,6.79-46.25 c 4.5-10.17,8.79-16.58,13-23.08 s 2.93-14.62.92-20.08 a 60.83,60.83,0,0,1-3.7-31.06 C 246.32,253.83,245.77,253,245.77,253Z"/>
    <path d="M 260.77,225.06 a 46.86,46.86,0,0,1,14.59,3.16 c 8.08,3.08,13.5,4.58,18.58,4.5-5.5,1.67-12.17-.25-15.75-1.58 s -10.84-4.08-17.42-4.08 C 260.77,225.89,260.77,225.06,260.77,225.06Z"/>
    <path d="M 336.95,227.44 a 20.2,20.2,0,0,0-10.59,1.21 c -5.42,2.24-12.67,4.66-16.5,4.08,3.75-.33,10.51-2.75,13.55-4.5 S 332.29,224.73,336.95,227.44Z"/>
    <path d="M 319.75,205.21q-1,.29-2,.54 c 0,5.85.82,17.23,6.61,22.84.81-.44,1.81-.87,1.81-.87 S 319.76,221.71,319.75,205.21Z"/>
    <path d="M 247.67,253.8v0 a 16.56,16.56,0,0,1,13.1-26.72 h 0 a 40.34,40.34,0,0,1,11.52,2,18.56,18.56,0,0,0-24.93,27.37Z"/>
    <path d="M 280.43,205.39 c 0,.27,0,.54.06.83.93,12.63-6.18,22.38-6.18,22.38 a 14.23,14.23,0,0,0,2.13.83 c 5.8-8.33,6.49-17.79,6.25-23.46Q281.55,205.7,280.43,205.39Z"/>
    <path d="M 297.75,401.44 A 38.43,38.43,0,0,1,230.53,376 h 0 c -.12-2.23.11-9.86.22-13.18 a 40.42,40.42,0,0,0,69.46,38.83 A 16.51,16.51,0,0,1,297.75,401.44Z"/>
    <path d="M 306.27,385.49 a 13.76,13.76,0,0,1,0,2.21 c 1.82-.26,6.78-.62,9.52-5.76 A 13.69,13.69,0,0,1,306.27,385.49Z"/>
    <path d="M 306.27,385.49 h 0 a 38.45,38.45,0,0,1-74.55-.2 l -2.09-.18 a 40.43,40.43,0,0,0,78.71.29Z"/>
    <path d="M 316.5,318 s -5.07,8.72-2.58,9.44 c 1,.2,1.7-1.44.9-3.34 A 29,29,0,0,1,316.5,318Z"/>
    <path d="M 343.65,302.42 c -2.8-5-1.88-8.61,1-19.11,1-3.65,2-7.1,2.78-10.43,0-.19.09-.36.13-.54 l .05-.22 h 0 c .16-.78.28-1.55.37-2.3,0,.3-.05.6-.1.9,1-5.44.94-11.27-1.74-16.38 a 22.57,22.57,0,0,1,.88,7.26,91.81,91.81,0,0,1-3.74,19.35 c -.71,2.4-1.41,4.49-2,6-2.5,6.83-3,12.17,2.83,20.67 C 362.66,330.52,359,371.89,359,371.89 c 1.9-.54,1.9-3.71,1.9-12.16 C 360.95,321,346,306.54,343.65,302.42Z"/>
    <path d="M 352.47,319.9 s -5.17,8.6-11.37,13.13 c -7.37,5.38-15,8.29-32.29,7.38-19.62-1-45.58-11.87-66.71-22,0,0-6.92,10.06-9.62,20.13-4.37,16.25-2.22,25.6-2.5,26.5,2.88-7.37,8.75-24.75,36.12-27.5,10.61-1.07,24.38,3.75,32.88,14.38 s 9.5,23.63,7,34.88 a 8.07,8.07,0,0,0,9.78-4.84 c 2-4.66,11.82-27,21.35-36.91,10-10.37,19.75-8.62,20.38-8.75 C 357.1,329.52,352.47,319.9,352.47,319.9Z M 315.1,379.27 c -1.5,4.38-3.62,5.38-7,5.38 a 47.65,47.65,0,0,0-3.54-27.42 C 302.11,351.6,291,337.42,271.22,336 c -15.75-1.12-32.62,4.64-41.25,23.77,3.75-30.5,11.38-39.5,11.38-39.5 C 291.47,343.9,332.6,354.65,353,322.9 c 1.38,4.88,3,8.38,3.75,11.25 C 329,335.65,316.39,375.5,315.1,379.27Z"/>
  </g>
<script type="text/ecmascript" xlink:href="param.min.js"/> 
</svg>
