<?xml version="1.0"?>
<svg xmlns="http://www.w3.org/2000/svg" xmlns:xlink="http://www.w3.org/1999/xlink" viewBox="0 0 600 600">
  <title>curvy-top-template</title>
  <g id="main-colour">
    <path d="M 394.48,411.63 c -4.25-11.5-18.62-37.75-32.72-56.25 s -19.28-21.87-24.53-30.75-3.62-16.25-2.62-22.62,5.54-13.73,6.93-23.46 c 4.66-6.28,3.93-14.61.92-21.68 a 64.46,64.46,0,0,0-1.59-7.41,10.61,10.61,0,0,1-3.5-1 c -.41-.49-.83-1-1.25-1.4-11.75-.25-17.75,3.33-26.58,9.83-24-13.25-55.31.5-55.31.5-.62,12.75,2.88,25.75,5.13,29.88 s 5.75,8.63,7.75,17.88-1.37,13.63-7.5,22.13-27.12,29.38-43,53.75 S 193,428.88,191,440.88 c 7.25-3.12,15,5.38,15,5.38 a 30.78,30.78,0,0,1-.37,5.63 c 6,9.5,18,4.88,18,4.88 a 4,4,0,0,0,.25-1.62 c 15.88-6.62,23.25,4.38,26,13.75,14.88,12.75,33.25,1.25,33.25,1.25 l -.37-2.25 s 8-5.25,15.13-4.75,12.88,6,13.38,7.75 C 332.86,483.13,350,466,350,466 s .13-1.5.25-2.62 c 4.75-6,13.63-11.5,19.5-12.25 s 14.5,1.63,14.38,3.13 C 401,453,405,440.75,405,440.75 S 398.73,423.13,394.48,411.63Z" fill="param(main_colour)"/>
  </g>
  <g id="outline">
    <path d="M 378.55,377.71 c -11-17.83-28.33-38.33-35.33-46.33 s -9.71-15.37-8.33-26.12,4.56-15.48,5.63-18.12 a 53.39,53.39,0,0,0,2.27-8.82,26.17,26.17,0,0,0,2.65-6.42 c 1.13-4.28,0-14.45-5.74-21.77 a 4.9,4.9,0,0,0,1.75.17,1.37,1.37,0,0,0-.25-.92,6.7,6.7,0,0,1-2.48-.43,21.5,21.5,0,0,0-2.94-2.73,50.85,50.85,0,0,0-26.67,9.54 c -20.87-9-32.55-4.94-39-3.94 s -16.87,4.81-16.87,4.81 c -.87,24.25,7.19,34.25,10.44,40.63 s 3.75,12.88,2.25,17.88-9.33,15.08-16.83,23.25-26.5,29.17-34.83,43.5 S 192.39,419.21,189.55,442 c 9.59-1.56,13.84,3,15.25,5.15-.21,2-.33,3.7-.42,5,5,8.83,14.83,7.5,20.17,5.17.05-.59.13-1.2.2-1.8,3.75-1.47,17.32-5.41,23.46,11.35 a 29.82,29.82,0,0,0,.34,3.12 s 19.33,14.67,36,.67 c -.09-.82-.19-1.67-.28-2.54,3.36-2.09,15.7-8.54,25.5,1.84-.14,1.1-.22,1.71-.22,1.71 s 20,13.5,41.83-4.5q.07-1.95.11-3.92 c 3.16-3.79,14.92-15.89,31.33-9.38q.12.82.23,1.63 c 10.33,1.33,21.33-8,23.17-14.5 A 243,243,0,0,0,378.55,377.71Z M 264.14,293.54 a 87.53,87.53,0,0,1-5.58-11.92 A 66.27,66.27,0,0,1,255.39,258 c 29.24-10.62,44.49-4,54.49-.12,7.71-7.29,20.39-9.22,25.42-9.83,7.83,7,11.86,20.51,5.42,30.17 a 26.38,26.38,0,0,1-.83,4 c 0,.06,0,.12-.07.18 l .09-.1 c -.57,1.84-1.48,4.45-2,5.63 a 56.92,56.92,0,0,0-5.25,19.25,33.36,33.36,0,0,0,1.08,12.06 c -21.6,20.4-63.33-.23-66.83-2 A 22.12,22.12,0,0,0,268,314 C 269.89,306.29,266.14,297.21,264.14,293.54Z M 385.05,452.88 c -3.17-22.67-16.67-60.17-28.33-77,0,0,19.55,37.55,25.71,75.51-3.56-1.42-18-5.87-30.9,9.19.29-35.2-6.83-75.33-15-95.71,4.17,16.5,13.83,63.83,12.33,100.5-4.33,5.5-20.83,13.33-36.67,4.83 a 457.65,457.65,0,0,0,6-70.67 c .17-17.33-2.83-44.67-6.17-52.17,0,0,5.67,34,3.5,64.83-1.65,23.41-4.25,45.56-5.41,54.87-2.79-2.35-12.23-8.67-26.1-1.22-2.55-25.82-3.88-68.81,8-104.32-9.83,21.33-12.5,54.83-12.67,71.67 s 2.5,36.33,2.5,36.33-13.33,9.83-30.67-1.5 c -.5-24.5,4.83-52.5,10.33-71.83 s 18.33-52.5,18.33-52.5 S 260.72,382.54,253.22,419 c -4.42,21.51-5.25,35.37-5.19,43.13-2.4-4.73-9.06-13.82-23.09-8.41,3-25.5,14-57.78,29.94-83.55-13.33,15.83-30,55.17-32.5,85.33-5.83,3.5-15-1.67-15.83-4,2.33-16,6.5-37,18.33-58 s 28-44,28-44 S 230.22,377,218.22,402 c -8.64,18-11.75,32.38-13,41.69-2.45-3.15-7.65-5.67-12.5-4.53,4.67-23.5,20.67-51.46,29.17-64.21 s 29.58-35.62,33.08-40.21 c 2.78-3.64,8.13-9.7,11.17-15.92,45,22.4,64.34,6.38,68.24,2.36 a 26.36,26.36,0,0,0,4.26,7.15 c 3.88,4.75,22.38,27,27.75,35.25 s 27,38.92,36.67,76.92 C 400.72,448.21,390.89,452.88,385.05,452.88Z"/>
    <path d="M 307.36,278.75 c -8.25,11.38-23,9.61-23,9.61 C 296.36,292,305.7,285.71,307.36,278.75Z"/>
  </g>
<script type="text/ecmascript" xlink:href="param.min.js"/> 
</svg>
