<?xml version="1.0"?>
<svg xmlns="http://www.w3.org/2000/svg" xmlns:xlink="http://www.w3.org/1999/xlink" viewBox="0 0 600 600">
  <title>one-piece-swimsuit-slender</title>
  <g id="skin-tone">
    <g id="skin-tone-2" data-name="skin-tone">
      <path d="M 325.23,338.24 a 41,41,0,0,1-2.29-14 c -.17-8.42,1.82-20.63,3.91-27.88,1-3.64,2.7-8.3,4.18-13.53 a 7.43,7.43,0,0,0,2.24-1.45,20.42,20.42,0,0,0,7.57-14.89 c .4-6.72-2.81-11.06-7.33-17.38-.83-1.16-1.56-2.25-2.21-3.27 l -.59.18-.38-1 a 10.82,10.82,0,0,0-4.81-16.9v-.27 a 11.12,11.12,0,0,0-9.24.73,3.12,3.12,0,0,0-1.56-.2,12,12,0,0,1-8.28-8.84,73.66,73.66,0,0,1-1.49-11.94 c -1.86.14-3.74.22-5.64.22q-2.61,0-5.17-.18 c -.13,2.22-.56,8.42-1.37,10.5-1,2.56-3.33,9-10.86,10.75-7.45-6.36-19.55-1.14-20,8 s 6,12.33,9.33,13.42 c -1.25,5.92,1.33,21,3.17,27.5 s 6.92,19.67,9.08,28.08 c 1.88,7.3-1.38,16.79-7,27.28 l .45.37 s -3.87,6.63-6.12,10.13 A 57.86,57.86,0,0,0,262.14,370 a 24.81,24.81,0,0,0,2.68,13,24,24,0,0,0,39.09,6.26,24,24,0,0,0,29.29-23.41 h 0 c .56-3.27-.43-10.1-2.18-13.23 a 140.8,140.8,0,0,1-6.12-14Z" fill="#f9d9c7"/>
    </g>
  </g>
  <g id="main-colour">
    <path d="M 270.87,258.25 s 11.75-2.12,14.25-10.12.25-15.75-1.12-19.87 c 1.88-1,3.75-2.25,3.75-2.25 s 2.88,7.38,4.63,11.5 a 24.47,24.47,0,0,0,13.38,13.63 c 7.88,3.13,12.88-1.87,13.63-6.12 s -1-11.87-3.87-16.75 a 6.5,6.5,0,0,1,3.25-1.37 s 4.63,7.38,8.13,13,7.75,10.88,10,14.13,8.75,16.38-5.37,28.25 c -3.37,11-6.5,21.13-7.87,33 s -.5,21.13,4.25,30.13 c -6.87,4.13-8.5,15.88-9.12,20.38 s -.25,14.63-8.87,15.75 c 1.75-7.37,2.88-13.87-1.75-21.25 s -17-17.87-39-13.5 c 6.38-10.5,14.38-25.87,14.75-32.87 s -2.37-15.5-4.75-21.87 S 271.62,269.88,270.87,258.25Z" fill="param(main_colour)"/>
  </g>
  <g id="outline">
    <path d="M 337.36,253.63 c -3.55-5-6.61-7.66-9.47-13.38,0,0,1.49,4.8,6.4,11.64,6.67,9.31,6.14,15.88,2.57,23 a 18.61,18.61,0,0,1-6.36,7.28 l -.34,1.47 c 4.85-1.76,8.94-7.07,10.71-13.75 C 342.12,265.16,341.62,259.61,337.36,253.63Z"/>
    <path d="M 292.16,285.22 c 7.84.9,14.21-.68,20.22-7.6 C 309.53,285.36,299.45,288.84,292.16,285.22Z"/>
    <path d="M 282.65,227.55 s 5.79,12,1.29,21.25 c -3.54,7.27-13.42,8.92-13.92,8.67,0,.75.17,1.83.17,1.83 a 20,20,0,0,0,12.17-5.58 c 6.42-5.92,5.83-19.58,1.83-26.67 A 8.17,8.17,0,0,1,282.65,227.55Z"/>
    <path d="M 286.61,225.63 s 2.82,7.2,4.38,11.38 c 1.76,4.75,8.35,15.21,18.76,15.63 s 14.63-9.37,5.92-25.94 c -.87.46-1.4.77-1.4.77 a 33.63,33.63,0,0,1,4.47,12.17 c 1,7.63-2.57,10.51-6.87,11.38-3.75.75-10.5-.87-15.62-7.87-4.19-5.73-5.47-12.58-8.31-18.58 C 287.27,225.13,286.61,225.63,286.61,225.63Z"/>
    <path d="M 318.94,225.73 a 105,105,0,0,1,7,11.15,86.82,86.82,0,0,0,7.67,11.88 l -.42,1.54 a 98.7,98.7,0,0,1-7.58-10.83 c -3.33-5.67-4.17-8.17-8.49-13.35 A 8.33,8.33,0,0,1,318.94,225.73Z"/>
    <path d="M 314.27,227.46 a 9.57,9.57,0,0,1,4.67-1.73,13.7,13.7,0,0,1,1,1.6,18.53,18.53,0,0,0-2.58.79 c -1,.44-1.84,1-2.09,1.06 A 13.35,13.35,0,0,0,314.27,227.46Z"/>
    <path d="M 284.19,227 a 16.5,16.5,0,0,0,2.42-1.42 c .94.44.81,1.88.81,1.88 a 14.55,14.55,0,0,1-2.56,1.44 C 283.92,229.25,284.19,227,284.19,227Z"/>
    <path d="M 332.2,283.19 c .07-.33.21-.93.41-1.73 a 15.47,15.47,0,0,1-2.26,1.48 l -.29,1.13 s -1.44,4.63-2.62,8.88-4.37,16.25-5.12,24.13-.36,15.75,1.14,20.13 a 88,88,0,0,0,3.31,8.19 s -5.78,3.94-7.47,13-2.4,17.38-4.09,19.63 a 8.24,8.24,0,0,1-4.5,2.81 s 2.63-5,1-13.75-8.87-15-14-17.69-16.56-6.44-26.62-4.06 c 3.81-6.62,7-11.87,9.69-17.69 s 5.5-13.31,4-20.81-5.81-18.81-7.37-23.37-5.44-17.44-5-25.19 a 12.84,12.84,0,0,1-2.36-.79,110.34,110.34,0,0,0,1.86,14.6,188.79,188.79,0,0,0,5.69,18.75 c 1.88,5.44,5.25,13.94,5.31,21.69 s -7.12,19.88-8.94,23.25-5.69,9.75-6.94,12.5 c 8.75-3.87,28.44-.81,36,6.81 s 9.63,17.44,5.63,27.56 c 3.69-.5,6.56-2,8.44-5.37 s 2.5-19.81,6.06-25.19,5.06-5.81,5.94-6.12 a 43.83,43.83,0,0,1-4.56-13.56,82,82,0,0,1,1.94-26.31 C 329.14,294.38,332.2,283.19,332.2,283.19Z"/>
    <path d="M 296.87,232.9 a 28.55,28.55,0,0,1-6.67-.81 l .46,1.08 A 21.12,21.12,0,0,0,296.87,232.9Z"/>
    <path d="M 309.07,381 a 24,24,0,0,1-46.56-8.22v-2.33 a 51.19,51.19,0,0,1,3-13 A 71.56,71.56,0,0,1,269,349.3 c .44-.86,1-1.92,1.71-3.12 l -2.81.36 c -.72,1.34-1.38,2.63-2,3.87 a 59.89,59.89,0,0,0-5.31,20.07v.39 c -.08,1.22-.08,1.91-.08,1.91 a 26,26,0,0,0,50.08,9.79 c 2.14-.82,5.25-2.75,6.42-5.2 a 13,13,0,0,1-6.62,3.38 C 310.08,380.82,309.63,380.9,309.07,381Z"/>
    <path d="M 266,249 a 13.19,13.19,0,0,0,4,2 c 0,2.45.08,4.9.23,7.35 l 2.14-.54 c -.08-2.75,0-5,0-6.24v-2.06 a 11.19,11.19,0,1,1,6.1-21.31 L 280,229 H 280 l 1,.55,3.34,1.84.42.21-.08-1.71 c -.28-.16-.56-.3-.83-.48,2.8-1,10.8-5.42,11.18-21.67 l -1.59-.11 c 0,1.76-.57,18-11.81,20.13 A 13.19,13.19,0,1,0,266,249Z"/>
    <path d="M 329,345.63 l -.49-1 c -.51.46-1,.93-1.43,1.35,2.87,6,5.86,11.72,6.16,19.91 C 333.69,363.88,334.81,357.63,329,345.63Z"/>
    <path d="M 312.17,251.87 a 32.89,32.89,0,0,0-3.42-4.24 A 34.6,34.6,0,0,1,311.2,252 C 311.5,252,311.83,251.93,312.17,251.87Z"/>
    <path d="M 316.63,226.24 a 9.91,9.91,0,0,0-2.38,1.26 c -7.61-3.24-7.75-12.23-8.24-19.94 l -1.48.12 a 41.37,41.37,0,0,0,1.15,11.62,12.61,12.61,0,0,0,7,9.2,30.4,30.4,0,0,1-6.13,3.13,26.5,26.5,0,0,0,10.12-3.19 l .54-.24 a 11.26,11.26,0,0,1,8.35-.33 A 9.19,9.19,0,0,0,316.63,226.24Z"/>
  </g>
<script type="text/ecmascript" xlink:href="param.min.js"/> 
</svg>
