<?xml version="1.0"?>
<svg xmlns="http://www.w3.org/2000/svg" xmlns:xlink="http://www.w3.org/1999/xlink" viewBox="0 0 600 600">
  <title>v-neck-t-shirt-dress-slender</title>
  <g id="main-colour">
    <path d="M 323.21,440.58 c 7.48-.15,16.92-2.22,23.19-10.32-3.87-6.12-5.12-14.75-4.87-23.12 s 1.63-22.87,1.5-29.25 c 0-.59,0-1.2,0-1.81-1.38-9.07-4.26-18.61-7.93-25.19-4.5-8.06-9.87-16.44-11.12-25.44 s 1.56-20.75,3.31-27.81 c .91-3.69,2.46-8.62,3.85-14 a 31.8,31.8,0,0,0,5.11-2.39 c 4.08-2.42,7.83-9.58,7.75-16.67 s -6.33-13.42-8.58-15.58 c -1.49-1.43-3.3-3.26-4.36-4.34 a 11.18,11.18,0,0,0-11-17.28 c -2.05-.53-5.19,1.16-5.19,1.16 a 11.48,11.48,0,0,1-3.81-1.81 c -.56,2.06-5.18,4.7-5.18,4.7 l .86,4 s 6-2.19,7.59-3.94 a 100.1,100.1,0,0,1,1.78,22.94 c -11.33-4.42-23.19-13.62-25.25-18.5,4.31,1.81,10.31,1,10.31,1 l -.73-4.6 c -10.23-.1-13.39-5.4-13.89-5.77 s -.37,1.38-4.5,2.25 c -6.75-5.25-17.75-2.12-20,6.38 s 2.75,13.25,9.25,15.25 c -2.75,18.5,5.88,40,8.63,47.38 s 2,12.63,1.13,21.63-7.75,12.63-17.5,28.5 S 253.7,387,255.45,402 c 1.22,10.44,1.25,19.75-.44,28.18 a 32.27,32.27,0,0,0,12.63,3.07,33.81,33.81,0,0,1-.91,3.92 c 3-.42,6.59-.85,10.85-1.3,17-1.81,32.94,3.38,44.81,4.63Z" fill="param(main_colour)"/>
  </g>
  <g id="fixed-colours">
    <path d="M 297.58,232.17 s 1.58-4.33,5.21-4.58 a 5.86,5.86,0,0,1,5.25,2.17 l -1.79,1.46 a 3.88,3.88,0,0,0-6.12,1 A 11.15,11.15,0,0,1,297.58,232.17Z" fill="#d1d3d4"/>
    <path d="M 298.16,237.34 l 2.58-.25 a 3.71,3.71,0,0,0,3.92,1.38,4,4,0,0,0,2.79-3.33 l 2.29-.67 a 6.27,6.27,0,0,1-4.79,6.42 C 301.16,241.88,298.45,238.5,298.16,237.34Z" fill="#d1d3d4"/>
  </g>
  <g id="outline">
    <path d="M 312.72,282.54 c -8.33,6.33-20.33,3-20.33,3 C 303.22,289.88,309.06,287.21,312.72,282.54Z"/>
    <path d="M 297.39,332.88 s -3.83,46.67,36.17,81.83 C 317.72,398.54,299.22,369.88,297.39,332.88Z"/>
    <path d="M 296.89,405.21 c -5.5-9-9.67-20.17-11.5-44.17 C 285.39,361,283.89,394.38,296.89,405.21Z"/>
    <path d="M 342.83,399.63 c .35-9.33,4.5-30.75-6.6-49.42-7.16-12-13.5-21-11-38.17,1.29-6.89,5.65-23.72,6.83-28.26 l .08,0 c 1.13-.27,6.75-1.45,11-9.14,4.44-8,1.13-16-1.12-19.12 s -13.12-13.25-14.75-15.25 c 2.13,3.75,7.38,9,9.5,11.25 A 20.28,20.28,0,0,1,342,270.38 a 18.83,18.83,0,0,1-14.12,13.88,7.83,7.83,0,0,0,1.69-.08 c -.73,2.75-5.64,21.34-6.56,29.2-1,8.5-.25,16.13,2.63,22.25 s 10.82,17.9,13.94,27.25 c 3.75,11.25,2.06,26.26,1.78,34-.35,9.63-2.28,23.61,4.1,33.73-3.62,4.53-13,8.88-18.56,9-6.62.15-13.25-1.25-19.25-2.62-4.8-1.1-21.14-4.75-39.51-1.64,1.27-6.32,3.17-19.13.53-29.82 a 115.47,115.47,0,0,1-1.82,26.86,26.15,26.15,0,0,1-10.59-2.59 c 2-11.14.9-18.87,0-26.43-1.12-9.5-1.37-26.83,3.25-42.5,5.12-17.33,17.13-27.37,20.38-33.75 a 31.46,31.46,0,0,0,3-16.25 c .85,4.59,1.47,10.6.47,14.5,4.75-7.87-1.12-24.87-7-41.25 a 78.08,78.08,0,0,1-3.94-34.56,11.57,11.57,0,0,1-7.12-4.06 c -4.06-4.75-2.69-11,.38-14.62 a 11.29,11.29,0,0,1,10.94-3.44,22.33,22.33,0,0,1,5.31,2.63,26.55,26.55,0,0,0,4.94-2.31,16.12,16.12,0,0,0,13.25,5.06 s .31,1.94.5,3.69 a 26.31,26.31,0,0,1-11.44-1.62 c 4.13,8.63,19.56,17.88,27.31,20.19.63-8.19-.06-18.44-1.75-24.75 a 23.24,23.24,0,0,1-7.69,4.25 s -.25-1.62-.56-2.87 a 28,28,0,0,0,4.81-3.87,13,13,0,0,0,3.69,1.38 c 4-2.25,8.19-2.5,10.56-1.31 a 8.72,8.72,0,0,0-5.31-2.12,9.69,9.69,0,0,0-6,1.75,9.94,9.94,0,0,1-3.12-2 A 19.49,19.49,0,0,1,308,229 a 6.45,6.45,0,0,0-5.1-1.84,6.63,6.63,0,0,0-5.55,4.52,16.79,16.79,0,0,1-10.63-6.18,14.31,14.31,0,0,1-4.94,2.25,13.18,13.18,0,0,0-19.62,16.44 c 2.31,5.06,7.75,6.81,7.75,6.81-.37,4.75.12,15.23,1.5,23.5,1.21,7.27,6.25,19,9.2,27.68.17,4.26.31,13.78-1.45,20.45-2.33,8.83-16.42,18.25-21.5,36.17-5,17.5-5,33.67-3.33,43.5 a 84.78,84.78,0,0,1-.06,27 c -.08.41-.2.9-.32,1.39 a 29.57,29.57,0,0,0,12.54,3.47 c -.32,1.44-.67,2.89-1.08,4.33.63-.14,1.26-.25,1.85-.34,11.27-1.72,24.55-2.25,34.15-.29,15.5,3.17,31.56,8.63,46.1-7.32 C 341.32,423.56,342.48,409,342.83,399.63Z M 304,239 a 4.39,4.39,0,0,0,3.77-3.41 c .51-.16,1.07-.36,1.66-.6 a 6,6,0,0,1-5.28,5.64,5.85,5.85,0,0,1-5.52-2.89,10.76,10.76,0,0,0,1.8-.21 A 4.22,4.22,0,0,0,304,239Z m 11.76,14.83 c -4.5-1.5-18.81-9.87-23.94-17.12 a 22.53,22.53,0,0,0,5.92,1,6.67,6.67,0,0,0,6.49,3.72,6.85,6.85,0,0,0,6-6.81,19.06,19.06,0,0,0,3.84-2.14 A 112.19,112.19,0,0,1,315.77,253.82Z m -8.88-18 a 3.56,3.56,0,0,1-3,2.36,3.47,3.47,0,0,1-2.64-.89,3.34,3.34,0,0,0,.53-.23 s -.37-2.75-.81-5.31 h -.18 a 3.35,3.35,0,0,1,4.61-.72 l -.12.08 a 30.12,30.12,0,0,1,.94,4.81 A 5.79,5.79,0,0,0,306.89,235.82Z M 303,228 a 5.69,5.69,0,0,1,4.41,1.53 c -.49.41-.92.76-1.27,1 a 4.15,4.15,0,0,0-3-.92,4.24,4.24,0,0,0-3.26,2.17,15.65,15.65,0,0,1-1.72,0 A 5.84,5.84,0,0,1,303,228Z"/>
    <path d="M 328.89,437.63 c -4.33-.17-15.75-2.49-24.79-4.29 a 91.93,91.93,0,0,0-29.94-1 c 6.5-.13,11.46-.06,15.64.24,1.28.07,2.55.17,3.79.3q1.44.15,2.86.34 l .43.06 h 0 C 310.14,435,322.11,438.86,328.89,437.63Z"/>
  </g>
<script type="text/ecmascript" xlink:href="param.min.js"/> 
</svg>
