<?xml version="1.0"?>
<svg xmlns="http://www.w3.org/2000/svg" xmlns:xlink="http://www.w3.org/1999/xlink" viewBox="0 0 600 600">
  <title>basic-tank-top-slender</title>
  <g id="main-colour">
    <path d="M 323.36,238.13 a 57.33,57.33,0,0,0-4.5-11.37,24.19,24.19,0,0,0-3.29,1.2,1.13,1.13,0,0,1,0,.17 A 57.38,57.38,0,0,1,318,240.5 c .25,7.88-6.75,16-18.12,9.25-6.69-4-10.84-20-12-23.62-.44.18-2.53,1.25-4.14,2,5.33,12.49,1.73,22-3.11,26.1 a 18.31,18.31,0,0,1-9.55,3.87 c .44,6.86,1.89,15.45,2.68,20,1.63,9.38,4.66,20.41,6.5,28.91,3.38,15.59.78,18.59-6.39,31 a 122.54,122.54,0,0,0-8,15.58,34.26,34.26,0,0,1,12.37,0 c 10.25,1.69,21.53,4.94,32.79,4.69,9.52-.21,16.29-3.28,19.52-6.78-.66-1.6-1.59-3.6-2.87-6.15-4-7.92-4.57-12.7-4.73-21.12 s 1.82-20.63,3.91-27.88,6.59-18.59,7.33-30.33 a 44.33,44.33,0,0,0-1.33-14.74 A 22.42,22.42,0,0,1,323.36,238.13Z" fill="param(main_colour)"/>
    <path d="M 282.65,227.55 s 5.79,12,1.29,21.25 c -3.54,7.27-13.42,8.92-13.92,8.67,0,.75.17,1.83.17,1.83 a 20,20,0,0,0,12.17-5.58 c 6.42-5.92,5.83-19.58,1.83-26.67 A 8.17,8.17,0,0,1,282.65,227.55Z"/>
  </g>
  <g id="outline">
    <path d="M 330.18,352.76 a 11.12,11.12,0,0,0,1.31-1.22,61.6,61.6,0,0,0-2.52-5.91 c -3-6.13-5.8-11.93-4.5-26.84,1-11.72,5.23-25.16,8.13-37.27 a 14.84,14.84,0,0,1-2.81,1.72 c -5.92,20.79-10.18,35.49-7.32,50.47,1.62,7.4,5.14,12.84,7.71,19.05Z"/>
    <path d="M 334.63,257.48 a 43.85,43.85,0,0,0-1.64-6.8 c -.62-.31-1.06-.55-1.06-.55 l -.53-.23 c 4.2,17.23-1.61,33.34-1.61,33.34 s 1.24.85,2.81-1.72 C 333.76,277,336.29,268.07,334.63,257.48Z"/>
    <path d="M 271.23,268.19 c 2.5,9.5,6.15,21.81,8.36,31.38,1.85,8,3.7,15.63,3,23.92-.69,7.75-2.53,16.72-6.19,22.39,4.07-9.88,5.5-23.87,2.82-37.26 C 276.65,296.07,271.29,273.38,271.23,268.19Z"/>
    <path d="M 264.23,355.19 s 5-2.44,17.25-.19,37,8.88,49.25-2.75 a 4.6,4.6,0,0,0-.5-1.25,31.28,31.28,0,0,1-18.75,6.5 c -11.37.13-19.5-2-24.62-3 s -16.81-3.87-21.62-1.12 A 9.68,9.68,0,0,0,264.23,355.19Z"/>
    <path d="M 276.68,288.08 a 154.43,154.43,0,0,1-3.2-19,81.32,81.32,0,0,1-1.07-11.24 c -.83.17-1.63.29-2.28.38 a 91.7,91.7,0,0,0,1.14,10.52 A 116,116,0,0,0,276.68,288.08Z"/>
    <path d="M 282.53,315.52 c -2,11.61-12,24.94-16.6,34.86-.76,1.64-1.41,3.25-2,4.81,1.66-.48,2.77-.71,2.77-.71 h 0 c .81-2,1.64-3.8,2.37-5.23,2.54-5,9.81-16.3,13.37-25.29 a 71.2,71.2,0,0,0,.06-8.44Z"/>
    <path d="M 270.73,350.63 s 3.25-1.12,13.75,1.5,31,6.25,40.25.5 A 41.37,41.37,0,0,1,310.86,355 a 127.21,127.21,0,0,1-23.21-2.83 C 280.27,350.56,273.61,349.25,270.73,350.63Z"/>
    <path d="M 286.61,225.63 s 3,7.13,4.38,11.38,5.21,15.33,15.63,15.75,15.81-8.75,9.06-26.06 c -.87.46-1.4.77-1.4.77 A 33.3,33.3,0,0,1,317.11,240 c 0,7.58-3.27,10.63-7.62,11.17-3.8.47-9.56-.21-14-7.58-3.66-6.08-4.71-13.08-7.54-19.08 C 287.27,225.13,286.61,225.63,286.61,225.63Z"/>
    <path d="M 318.94,225.73 s 2.67,3.58,4.85,11.65 a 24.33,24.33,0,0,0,8.13,12.75 l .31,1.75 a 21.85,21.85,0,0,1-7.62-8.37 c -3-5.75-3.48-12.65-7.48-17.4 A 8.33,8.33,0,0,1,318.94,225.73Z"/>
    <path d="M 314.27,227.46 a 11.27,11.27,0,0,1,4.67-1.73,13.7,13.7,0,0,1,1,1.6,18.53,18.53,0,0,0-2.58.79 c -1,.44-2,1.06-2.25,1.13 C 314.72,228.42,314.27,227.46,314.27,227.46Z"/>
    <path d="M 284.19,227 a 16.5,16.5,0,0,0,2.42-1.42 c .94.44.81,1.88.81,1.88 a 14.55,14.55,0,0,1-2.56,1.44 C 283.92,229.25,284.19,227,284.19,227Z"/>
  </g>
<script type="text/ecmascript" xlink:href="param.min.js"/> 
</svg>
