<?xml version="1.0"?>
<svg xmlns="http://www.w3.org/2000/svg" xmlns:xlink="http://www.w3.org/1999/xlink" viewBox="0 0 215 215">
  <title>basic-v-neck-t-shirt-voluptuous</title>
  <g id="skin-tone">
    <path d="M 106.14,120 a 85.86,85.86,0,0,0-20.07,1.5,86.6,86.6,0,0,0,1.62,32 c 4.07,16.49,10.35,28.88,12.65,31.57 s 7.73,5.27,12.3,2.71,5.4-6.11,6.31-13.35,1.95-25.65,2.35-32.06 c .29-4.62,1-14.66,1.42-19.9 A 72.35,72.35,0,0,0,106.14,120Z" fill="param(skin_tone)"/>
  </g>
  <g id="main-colour">
    <path d="M 124.88,122.87 a 44,44,0,0,1-1.11-12.15 h 0 a 16.57,16.57,0,0,0-31.6-9.46 h 0 a 24.07,24.07,0,0,0-2.11,4.09,3.72,3.72,0,0,0-.33.69 c -1.5,4.25-6.08,14.75-7.08,16.42 a 14.32,14.32,0,0,0,2.83,1.75 l .25-2.58.36-.07 c 0,.16,0,.32-.07.48 a 35.65,35.65,0,0,1,4.76-1.21,93.76,93.76,0,0,1,21.46-.18 l .35,0,.8.1 a 79.35,79.35,0,0,1,9.36,1.78,13.14,13.14,0,0,0-.19,1.73 A 8.85,8.85,0,0,0,124.88,122.87Z" fill="param(main_colour)"/>
  </g>
  <g id="outline">
    <path d="M 126.09,107.73 a 18.58,18.58,0,0,0-18.37-18.78 h -.21 A 18.64,18.64,0,0,0,89.17,104.7 a 20.06,20.06,0,0,0-1,2.34 h 0 c -.86,2.7-3.85,11-6.6,15.68 a 5.74,5.74,0,0,0,2.74,2,83.08,83.08,0,0,0,2.27,29.79,131.85,131.85,0,0,0,11.55,29.19,11.11,11.11,0,0,0,.83,1.46v0 h 0 a 11.08,11.08,0,0,0,20-3.76 h 0v0 c .05-.24.09-.48.13-.72 A 139.5,139.5,0,0,0,121,166 c .18-5.12,1.42-27,1.75-33.61.1-2,.22-4.68.36-7.52 a 5.71,5.71,0,0,0,2.6-1.56 c -.57-1.78-.74-5.6-.86-9.19 A 18.24,18.24,0,0,0,126.09,107.73Z M 84.53,123 l -.2-.11.22-.07Z m 36.22,10.78 c -.33,7.12-1.66,27.11-2,32.48-.19,3.22-.47,6.25-.8,8.83-.21,1.63-.53,3.47-.77,4.74,0,.24-.06.47-.1.7 s -.13.59-.19.85 h 0 A 9.08,9.08,0,0,1,100,183 h 0 l -.15-.24 c -1.73-2.89-9.63-20-12-32.74 a 99.61,99.61,0,0,1-1.15-27.79 c 13.3-3.29,29.32-.38,35.13.9 C 121.35,127,120.87,131,120.75,133.76Z m 2.44-10.35v0 h 0Z m 0-6.15 h 0 l 0,.22.05-.09 a 38.61,38.61,0,0,0,.69,4.79 c -20.66-5.23-35.32-2.08-39.62-.88 C 86.54,116.87,90,107,90,107 h 0 c .15-.49.3-1,.44-1.38.56-1.5,1.18-3.1,1.63-4.27 A 16.57,16.57,0,0,1,107.5,90.95 h .19 A 16.59,16.59,0,0,1,123.4,102.8 h 0 a 11.38,11.38,0,0,1,.38,1.55v.05 c .07.4.14.87.2,1.4,0,.14,0,.27,0,.41 l -1,9.13 S 123.09,116.16,123.19,117.26Z"/>
  </g>
<script type="text/ecmascript" xlink:href="param.min.js"/> 
</svg>
