<?xml version="1.0"?>
<svg xmlns="http://www.w3.org/2000/svg" xmlns:xlink="http://www.w3.org/1999/xlink" viewBox="0 0 150 150">
  <title>BT002_OA001</title>
  <g id="skin-tone">
    <path d="M 70.56,79.44 c -.81-1.42-2.25-4.92-.25-7.67 s 6.12-2.93,7.84-1.58 c 1.54,1.21,2.82,2.92,2.41,5.17 a 31.18,31.18,0,0,0,0,7 c .34,4.43,1.8,10.8-1.38,12.83-2.2,1.4-5.42,1.11-6.74,0-3.23-2.72-2.63-8.46-2.49-9.46 C 70.18,83.7,71.39,80.9,70.56,79.44Z" fill="param(skin_tone)"/>
  </g>
  <g id="main-colour">
    <path d="M 81.19,87.13 s 0,2.63-.07,4.5-1.32,4.5-5.4,4.57-6-3.32-5.74-7.68 c -1.11,2.77-3.39,7.82-4.36,10.66 s -.42,6.58,3.67,8.17,10.17,1.59,14.4-1.38 S 86,96.89,84.86,94.4Z" fill="param(main_colour)"/>
  </g>
  <g id="accent-colour-1">
    <path d="M 84.51,105.89 s -2.35,2.35-9.21,2.42-8.65-2.56-8.65-2.56-1.18,5.05,8.51,5 S 84.93,107.14,84.51,105.89Z" fill="param(accent_colour_1)"/>
  </g>
  <g id="outline">
    <path d="M 86.38,95.74 c -1.85-5.44-3.6-7.84-4.15-10.38 S 80.38,80.27,81,78 a 6.74,6.74,0,0,0-6-9.76 h 0 A 6.76,6.76,0,0,0,68.25,75 a 6.67,6.67,0,0,0,1.22,3.83 l .06.1 c 1.11,1.78-.32,4.64-.86,7.89 a 37.1,37.1,0,0,1-2.77,9.09 c -2.12,4.43-2.21,7.71,0,10.11,0,0-1.48,5.26,9.87,5.35,7.13.06,10.34-2.86,9.6-5.17 C 86.43,104.83,88.23,101.18,86.38,95.74Z M 75,70.25 h 0 A 4.75,4.75,0,0,1,79.75,75 a 4.7,4.7,0,0,1-.49,2.07v0 a 4.56,4.56,0,0,0-.2,2.64 h 0v0 a 5.26,5.26,0,0,0,.33,1 c .12.41.27.92.44,1.52 a 41.41,41.41,0,0,1,.83,8.37 c .07,5-6.2,6.29-8.51,3.52-1.87-2.25-1.78-5.77-1.54-8.79 a 33.72,33.72,0,0,0,1-4.61,12.74,12.74,0,0,0-1-4.11 h 0 A 4.72,4.72,0,0,1,75,70.25Z M 82,109 a 17.53,17.53,0,0,1-6.45,1,20.5,20.5,0,0,1-6.1-.78 c -1.2-.51-2.34-1.66-2.34-2.68.78.92,3.15,2.32,8.24,2.28 a 17.69,17.69,0,0,0,8.86-2.08 S 84.17,108.24,82,109Z M 75.51,108 c -4.45.17-11.49-1.66-9.07-9.14,1.2-3.72,2.46-6.19,3.15-8.11.19,4.18,2.92,6.19,6.16,6.06,3-.12,5.59-1.7,5.87-4.19 a 17.7,17.7,0,0,0,0-3.46 c .18.57.36,1.1.54,1.53.76,1.8,4.79,7.45,2.7,12.6 C 83.2,107.34,79.11,107.83,75.51,108Z"/>
  </g>
<script type="text/ecmascript" xlink:href="param.min.js"/> 
</svg>
