<?xml version="1.0"?>
<svg xmlns="http://www.w3.org/2000/svg" xmlns:xlink="http://www.w3.org/1999/xlink" viewBox="0 0 215 215">
  <title>v-neck-t-shirt-dress-hourglass</title>
  <g id="skin-tone">
    <path d="M 116.32,134.33 c -8.24-1.77-17-.85-20.88-.28.43,8.94,1.25,19.15,2.21,25.81,1.61,11.14,2.53,16.71,5.78,25.28,1.44,3.64,2.31,6.77,6,6.23 s 4.64-3.81,5.15-7.4,1.58-22.81,1.58-30.28 C 116.19,149.09,116.16,141.08,116.32,134.33Z" fill="param(skin_tone)"/>
  </g>
  <g id="main-colour">
    <path d="M 106,133.32 a 91.75,91.75,0,0,1,10.63,1,35,35,0,0,0-.12,4.38 s 4.4-2.38,4.88-3.19 c -.62-4.37-2.59-22.09-2.35-23.42 a 3.23,3.23,0,0,0-.17-.43 c 0-.16,0-.34,0-.5,1.23-3.71,1.41-7.91-1.84-11.66 a 13,13,0,0,0-17.5-1.75 c -3.63,2.86-5.75,8.38-3.8,12.09-.71,2.44-5.32,21.81-6.33,25.16,1.06,1.19,5.94,3.5,5.94,3.5 l -.06-4.62Z" fill="param(main_colour)"/>
  </g>
  <g id="outline">
    <path d="M 122.56,135.89 c -.54-3.6-2.36-19.53-2.58-23.33 a 7.89,7.89,0,0,1,.51-1.83,12.24,12.24,0,0,0,.95-4.75,14,14,0,0,0-13.94-12.5 h 0 a 14,14,0,0,0-14,14.83 s 0,0,0,0 a 13.53,13.53,0,0,0,.43,3.27 s -3.14,15.32-5.82,24 c .87,1.19,5.19,2.89,6.31,3.32.23,3,.52,6.22.91,9.69,2.69,24.16,4.85,32.3,8.16,39.62 a 6.49,6.49,0,0,0,.63,1.35 l .07.14,0,0 c .12.18.24.36.38.54 a 5.91,5.91,0,0,0,8.29,1,5.85,5.85,0,0,0,1.92-2.71 h 0 c .08-.28.16-.61.23-1,0,0,0-.1,0-.15.23-1.19.41-2.6.48-3.29.29-3.08,1.71-30.73,2-45.31 C 118.88,138.25,121.69,136.89,122.56,135.89Z M 96,110.73 h 0 a 8.17,8.17,0,0,1-.25-1.13,15,15,0,0,1-.16-2.14 c 0-.06,0-.09,0-.09v-.86 c 0-.23,0-.46.06-.68,0-.05,0-.11,0-.16 h 0 a 12,12,0,0,1,23.77.23 h 0 c .14,2-.57,3.76-1.18,6,0,0,1.78,17.31,2.54,22.72 a 63.36,63.36,0,0,0-30.54-.23 C 93.11,125.05,96,110.73,96,110.73Z m -5.3,24.76 c 1.14-.31,2.31-.57,3.5-.77q.07,1.15.15,2.35 A 34.67,34.67,0,0,1,90.65,135.49Z m 23.61,40.33 c -.09,1.87-.19,4.16-.34,6.37 a 41.51,41.51,0,0,1-.87,5.32,3.87,3.87,0,0,1-1.37,2.2,3.78,3.78,0,0,1-4.88,0 s -.21-.2-.23-.19 c -1-.81-2.61-4.62-2.83-5.15 a 95,95,0,0,1-4.5-18.23 c -.89-6.75-2.18-21.15-2.88-31.7 a 75.58,75.58,0,0,1,19,.5 c -.22,7.91-.07,19.95-.23,23.49 C 114.94,162.76,114.47,171.32,114.26,175.83Z m 3.32-40.58 c 1.23.21,2.21.4,2.88.54 a 18.55,18.55,0,0,1-2.9,1.44 C 117.57,136.53,117.58,135.87,117.58,135.25Z"/>
  </g>
<script type="text/ecmascript" xlink:href="param.min.js"/> 
</svg>
