<?xml version="1.0"?>
<svg xmlns="http://www.w3.org/2000/svg" xmlns:xlink="http://www.w3.org/1999/xlink" viewBox="0 0 600 600">
  <title>curvy-top-template</title>
  <g id="main-colour">
    <path d="M 254.65,268.88 s 14.25-1.25,19-11.75,3.25-22.5,2.5-28 a 21.28,21.28,0,0,0,4.25-3.5 s 18,28.5,40.5,46 c 2.75-20.75,4-38.5,3-44,2.75-1.5,4.63-.75,4.63-.75 a 43.24,43.24,0,0,0,7.88,16 c 6.13,7.75,11.88,12.25,14.25,18.75 s 1.63,17.75-11.37,25.38 c -3.87,8.13-6.37,19.25-5,29 s 6.63,16.13,12.75,25.63,16.75,30.25,18.5,52.63-1,52.63-1.75,71.75-1.5,50,14.25,62.75 c -3.37,6.75-10.12,11.88-15.25,14.38 a 19.78,19.78,0,0,1,1.25,2.5 S 343.4,567.25,298,558 c 1.5-2.62,1.38-3.62,1.38-3.62 s -13.87.75-22.87-3.5 a 7.18,7.18,0,0,1,.88-1.87 s -9.25-5.5-19.5-4.87 c 1.88-2.37,1.88-3,1.88-3 s -10.38-1-18.25-6.37 c 7.75-5.75,11.75-13.37,10.75-27.12 s -8.87-44.5-12.12-61.5-7.37-45.25-3.87-64.75,9.38-34.12,18.63-47.5,14.88-18.37,11.88-30.75 S 256.27,285.63,254.65,268.88Z" fill="param(main_colour)"/>
  </g>
  <g id="accent-colour-1">
    <path d="M 319.4,327.88 h -3 a 207.33,207.33,0,0,1,2.85-31.41,77.87,77.87,0,0,0,.23-24.68 l 2.42-2.5 a 84.12,84.12,0,0,1,.31,27.65 A 211.2,211.2,0,0,0,319.4,327.88Z" fill="param(accent_colour_1)"/>
    <path d="M 326.94,325.24 c -2.42-9.85-2.18-27.13,6.47-43.39,6.74-12.7,3-21.29-.27-28.86-.67-1.54-1.3-3-1.81-4.42-3-8.29-6.5-20.64-6.53-20.77 l 2.89-.82 c 0,.12,3.52,12.38,6.47,20.57.48,1.34,1.1,2.75,1.74,4.25,3.38,7.79,7.59,17.49.17,31.46-8.25,15.52-8.49,31.93-6.2,41.27Z" fill="param(accent_colour_1)"/>
    <path d="M 297.67,328 l -2.87-.87 c 8-26.54,3.55-40.13-3.1-55.13-7.13-16.09-14.5-43.78-14.58-44.06 l 2.9-.77 c .07.28,7.38,27.74,14.42,43.61 C 301.1,285.81,305.95,300.5,297.67,328Z" fill="param(accent_colour_1)"/>
    <path d="M 278.95,323.13,276.18,322 c 7.54-17.77,4.85-27.46-1.51-36.55 a 45.07,45.07,0,0,1-7.94-20.93 l 3-.2 a 42.82,42.82,0,0,0,7.4,19.41 C 283.13,292.26,287.5,303,278.95,323.13Z" fill="param(accent_colour_1)"/>
    <path d="M 254.51,540.49 l -2.57-1.55 c 7.1-11.73,12.54-38.39,4.49-74.9-5.13-23.26-7.43-51.76-5.86-72.6,1.28-17,6.67-34.06,16-50.62 a 149.83,149.83,0,0,0,8.57-17.47 l 2.8,1.08 a 150.33,150.33,0,0,1-8.76,17.86 c -9.13,16.18-14.4,32.79-15.64,49.38-1.55,20.57.73,48.73,5.8,71.73 C 264.51,486.75,266.33,521,254.51,540.49Z" fill="param(accent_colour_1)"/>
    <path d="M 285.77,553.48 l -2.75-1.2 c 6.26-14.35,11.79-45,9.71-73.63-1.17-16-4.46-35.42-7.36-52.54-2-12-4-23.38-4.8-31.58-1.74-17.14.19-32.14,6.1-47.2,4.76-12.16,7.12-18.88,7.15-18.95 l 2.83,1 c 0,.07-2.4,6.83-7.19,19.05-5.72,14.6-7.6,29.15-5.9,45.8.82,8.1,2.74,19.41,4.77,31.39,2.92,17.18,6.22,36.65,7.4,52.82 C 297.3,500.13,294.35,533.81,285.77,553.48Z" fill="param(accent_colour_1)"/>
    <path d="M 327.58,559.73 c 0-.3-3.68-30-4.51-43.76-.38-6.32-.59-21.28-.81-37.12-.26-18.69-.55-39.87-1.19-49.2-.43-6.27-1.19-14.58-2-23.38-1.36-14.91-2.91-31.81-3-41.37-.17-14.85.16-35.5.17-35.71 l 3,0 c 0,.21-.33,20.82-.17,35.63.1,9.45,1.64,26.28,3,41.13.81,8.82,1.57,17.15,2,23.45.64,9.41.92,29.72,1.2,49.36.22,15.81.43,30.74.8,37,.82,13.63,4.46,43.28,4.49,43.57Z" fill="param(accent_colour_1)"/>
    <path d="M 367.89,539.39 c -21.83-43.37-19-74.37-17.15-94.89.18-2,.36-3.93.5-5.74.22-2.9.48-5.77.73-8.63,1.46-16.53,2.84-32.15-2.33-49.5-5.06-17-12.92-30.57-17.14-37.88-.88-1.53-1.58-2.74-2.08-3.68 a 36.68,36.68,0,0,1-3.5-12.76 l 3-.22 a 34.2,34.2,0,0,0,3.16,11.57 c .47.89,1.16,2.08,2,3.58,4.28,7.42,12.26,21.22,17.42,38.52,5.34,17.9,3.94,33.79,2.45,50.62-.25,2.84-.5,5.7-.72,8.59-.14,1.81-.31,3.74-.5,5.78-1.83,20.18-4.61,50.67,16.84,93.26Z" fill="param(accent_colour_1)"/>
  </g>
  <g id="outline">
    <path d="M 293,295.38 c -6.5-.87-16.12-6.12-21-17.5 C 271.45,276.57,276.14,296.25,293,295.38Z"/>
    <path d="M 379.55,528 c -7.83-4.5-12.33-18.17-13.67-33 s -1-28.83,1-63.67-.5-55.83-12.83-79.67-18.17-24.33-19-36.83,4.83-26.67,4.83-26.67,11.17-4.83,12.67-16.5-4-17.33-8.5-21.33-13-15-14.5-24 a 9.57,9.57,0,0,0-7,1.17 s 2.5,5.67-2.17,42.83 c -11-10-24.33-22.5-39.83-46.33 a 23.15,23.15,0,0,1-5.5,4.5 c 1.5,8.25,5.58,37.75-21.33,39.33 A 57.14,57.14,0,0,0,260.64,291 c 3.17,5.33,8.42,15.33,4.92,24.67 s -11.42,13.67-18.83,29.67-14.67,36.33-12.83,61,7.33,52.83,11.33,69.33,13.5,47.33-5.67,59.5 c 4.37,3.83,14.79,6,18.4,6.62 a 28.64,28.64,0,0,1-1.4,2.71 s 13.38,1.21,19.29,5 c -.49,1.26-.79,2-.79,2 a 44.38,44.38,0,0,0,22.49,4,17.09,17.09,0,0,1-1.65,3.29 s 46.5,10.67,69.83-13.17 c -.37-.55-.72-1.13-1.08-1.69 C 368,542.25,376.51,537,379.55,528Z M 263.22,291.54 c -6.33-11.17-7.33-20.67-7.17-21.83,10.5,0,20-9.17,21.5-20.5 a 59.28,59.28,0,0,0-.5-19.67 s 2.5-1.17,3.17-2.33 c 5.67,8.83,21.33,29.5,41,47,3-16,4.5-32.33,3.67-45.83 a 9.81,9.81,0,0,1,3-1 s 3,11,8.67,17.33,12.33,12.5,13.5,19.33-.83,16.33-11.33,22.33 c -6.64,13.42-6.87,26.83-4.88,34.94-27.69,14.55-62-1.15-67.23-3.74 C 270.26,308.41,268.86,301.49,263.22,291.54Z m 100,250.14 c -9.48-15.8-17-37.52-18.81-59-2-23.33.33-43.83,1.67-56.83 s 2.33-31.17-2.33-38 c 2.17,8.67,2.33,20.5.5,36 s -4.5,44.67-1.67,64.17,7.83,35.83,19.83,57.67 c -12,10.67-37.33,16-62.67,11.67,9.17-18.83,9.33-50,8.5-64.17 s -6.83-45.17-7.67-54.67 c 0,0,1.17,20.67,3.5,35.5 s 3.33,46.17-1,63.67 A 149.94,149.94,0,0,1,298.57,553 c -3.31.18-12.3.3-20-2.76,6-14.83,11.5-38.17,9.5-58 s -7.33-49.17-9.5-60.67-4-25.5-4.83-33 c 0,0-.33,17.83,4.67,43.67 s 8.67,49.17,7.17,68.67 c -1.1,14.29-6.22,29.47-8.89,36.56-2.72-1.3-9.65-4.26-16.28-4.39,8.17-17,14.33-47.83.17-76.67,0,0,9.5,26.33,5.5,47.83-2.35,12.64-5.22,20.9-7.19,25.56-2.55-.41-11.54-2-14.81-4.89,9-7,10.83-20.67,8.67-35.5 s -9.5-38.5-12.83-61.33-6.83-46.17,1.83-74.17 S 259.55,332,265.05,321 c .12-.23.21-.45.32-.68,39,19.09,63.9,7.1,69.37,3.9,2.86,7.51,14.16,20.81,20.15,34.78 s 12,32.83,10,66.17-7.83,86.67,11.17,104 C 374.07,535.17,366.3,540,363.19,541.69Z"/>
  </g>
<script type="text/ecmascript" xlink:href="param.min.js"/> 
</svg>
