<?xml version="1.0"?>
<svg xmlns="http://www.w3.org/2000/svg" xmlns:xlink="http://www.w3.org/1999/xlink" viewBox="0 0 150 150">
  <title>BT002_OA029</title>
  <g id="main-colour">
    <path d="M 80.42,81.58 s -2.7,1-3,2.84 c -1.59.69-5.26.62-5.88.14 a 13.25,13.25,0,0,0-2.49-3.11 A 48.46,48.46,0,0,1,66.73,86 c -1.38,2.35-1.11,6.09-.9,7.82 a 5.32,5.32,0,0,1-1,4.57 c -1.25,1.59-4.7,8.58-3,13.7.55,1.87,1.69,3.55,6.31,4.47 s 12.78,1.34,15.83-.67,2.84-5.74,2.21-8.92 a 25.87,25.87,0,0,0-3.11-7.68 c -.62-.9-.48-2.77.21-4.5 s .14-4.63-.48-6.43Z" fill="param(main_colour)"/>
  </g>
  <g id="fixed-colours">
    <ellipse cx="78.5" cy="87.89" rx="0.81" ry="1.02" fill="#bcbec0"/>
    <ellipse cx="70.03" cy="87.86" rx="1.02" ry="0.81" transform="translate(-23.77 149.7) rotate(-84.83)" fill="#bcbec0"/>
    <ellipse cx="69.69" cy="91.42" rx="1.02" ry="0.81" transform="translate(-27.64 152.59) rotate(-84.83)" fill="#bcbec0"/>
    <ellipse cx="69.16" cy="95.02" rx="1.06" ry="0.84" transform="translate(-32.08 154.72) rotate(-84.48)" fill="#bcbec0"/>
    <ellipse cx="68.31" cy="99.03" rx="1.09" ry="0.87" transform="translate(-41.79 147.52) rotate(-79.17)" fill="#bcbec0"/>
    <ellipse cx="78.89" cy="91.39" rx="0.81" ry="1.02" fill="#bcbec0"/>
    <ellipse cx="79.2" cy="95.05" rx="0.81" ry="1.02" transform="translate(-7.15 6.45) rotate(-4.46)" fill="#bcbec0"/>
    <ellipse cx="79.77" cy="99.03" rx="0.87" ry="1.09" transform="translate(-7.46 6.51) rotate(-4.46)" fill="#bcbec0"/>
  </g>
  <g id="outline">
    <path d="M 80.77,81.44 s -1.37-2.77-.56-4.33 a 5.56,5.56,0,0,0-2.12-6.87,5.66,5.66,0,0,0-7.69,1.31,5.74,5.74,0,0,0-.56,5.81 c .5,1.06-.2,3.53-.76,4.08,1.38.9,2.42,2.21,2.49,3.11 a 10.67,10.67,0,0,0,5.88-.14,7.78,7.78,0,0,1,2.08-2.49Z" fill="#f9d9c7"/>
    <path d="M 60.57,111.74 c .23,1.8,1.22,3.27,3.92,4.73 s 9.64,2.47,14.76,1.8,6.66-1.82,7.33-2.79,1.29-2.93,1.11-7 S 84.8,100,83.93,98.57 s .44-3.32.67-5.51-.78-6.55-2.21-9.75 a 11.2,11.2,0,0,1-1.25-5.06 h 0 A 8.09,8.09,0,0,0,81.75,75,6.76,6.76,0,0,0,75,68.25 h 0 A 6.76,6.76,0,0,0,68.25,75 a 7.31,7.31,0,0,0,.48,2.82 c .72,2.22-.84,4.21-1.79,5.84 A 16.91,16.91,0,0,0,65,88.8 a 17.77,17.77,0,0,0,0,6 c .37,1.57-.12,1.66-.85,2.7 a 29.42,29.42,0,0,0-3.34,7.12 A 23.92,23.92,0,0,0,60.57,111.74Z M 79.75,75 a 4.72,4.72,0,0,1-.32,1.68 c -.31.73,0,2.36.3,4.56 A 6.37,6.37,0,0,0,77.11,84 a 7.17,7.17,0,0,1-5.28.06 A 7.56,7.56,0,0,0,70,81.52 c .61-1.7,1.09-3.29.7-4.46 A 4.7,4.7,0,0,1,70.25,75,4.75,4.75,0,0,1,75,70.25 h 0 A 4.75,4.75,0,0,1,79.75,75Z M 70,92.12 a .57.57,0,0,1-.43.16.77.77,0,0,1-.56-.91 c .05-.46.39-.81.75-.77 a .58.58,0,0,1,.41.28 l -.33.14 a .27.27,0,0,0-.12.28 c -.07.09-.12.28,0,.71Z m -.4,3.62 a .62.62,0,0,1-.48.2.93.93,0,0,1,.16-1.79.58.58,0,0,1,.34.17 l -.31.12 a .72.72,0,0,0-.05.56 c -.08.11-.1.29,0,.59Z M 70.3,95 l 1.1-.4 c 0,.3-.08.59-.13.87 l -1-.37 S 70.3,95,70.3,95Z m 1.78-.64,1.94-.7,2.27.84q.06.58.13,1.15 l -2.4.89-2.15-.82 C 72,95.26,72,94.81,72.08,94.36Z M 72.81,97 l -1.28.47 c .07-.29.14-.58.2-.88Z m 3.75-.41q.08.5.16,1 L 75.33,97Z m 2.1-2.15 a .61.61,0,0,1,.43-.27.93.93,0,0,1,.16,1.79.62.62,0,0,1-.48-.2 l .37-.14 s .18-.41-.07-.63 a .53.53,0,0,0-.09-.42Z M 77,94.76 l .9.33-.84.31 C 77.06,95.19,77,95,77,94.76Z m -1.62-1.6.77-.28q0,.29,0,.57Z m -3.21.19 c 0-.12,0-.25,0-.37 l .48.18Z m .1-1.31 c 0-.36,0-.72.06-1.08 l 2-.83,1.71.67q0,.55,0,1.12 L 74,92.67Z m 6.15-1.26 a .55.55,0,0,1,.33-.19 c .36,0,.69.3.75.77 a .77.77,0,0,1-.56.91.6.6,0,0,1-.5-.21 l .26-.09 c .39-.29.29-.54.13-.71 a 1,1,0,0,0-.06-.35Z m -2.89-1.14.53-.22 c 0,.14,0,.28,0,.43Z m 1.26,1.45.78.3-.77.27Q76.82,91.38,76.81,91.09Z m -5.18.72-.73-.25.75-.31 C 71.65,91.44,71.64,91.62,71.63,91.82Z m .75-1.87 c 0-.21,0-.41,0-.61 l .73.3Z m 0-1.55 c 0-1-.06-1.95-.12-2.69 a 5,5,0,0,0-.11-.59 c .63.24,2,.5,4.52-.1-.06.18-.12.36-.17.55 a 15.2,15.2,0,0,0-.38,2.81 l -1.84.77Z m 10.91,26.85 a 25.41,25.41,0,0,0-.06-5.75,11.31,11.31,0,0,0-3-5.76,11.8,11.8,0,0,1-2.52-4.94 l 1,.37 s 0,.1,0,.15 a 1.17,1.17,0,1,0,.8-1.63,1,1,0,0,0-.71.63 l -1.33-.49 c -.09-.45-.17-1-.25-1.49 l 1.17-.44 a 1,1,0,0,0,.93.51,1.39,1.39,0,0,0-.24-2.71,1,1,0,0,0-.78.57 l -1.34-.52 c 0-.37,0-.73-.07-1.1 l 1.22-.43 a 1,1,0,0,0,.92.51,1.31,1.31,0,0,0-.28-2.55.94.94,0,0,0-.69.46 l -1.23-.48 c 0-.36,0-.69,0-1 l 1-.41 a 1,1,0,0,0,.85.45,1.31,1.31,0,0,0-.22-2.56,1.13,1.13,0,0,0-.9,1.19 l -.65.27 a 10.5,10.5,0,0,1,.19-1.53,6.35,6.35,0,0,1,2.87-4.16 c .52,2.49,1.83,5.18,2.43,8.33 s -.48,4.57-.76,6.71,2.63,5.33,3.46,8.09.55,7.61-.28,8.78 A 3.36,3.36,0,0,1,83.29,115.25Z M 77.9,87.63 a .68.68,0,0,1,.56-.59.87.87,0,0,1,.15,1.68.58.58,0,0,1-.44-.18 l .36-.15 a .7.7,0,0,0-.27-.91Z m 1.8,11-.5-.17 a .63.63,0,0,1,.39-.31 A 1,1,0,0,1,80,100 a .81.81,0,0,1-.87-.63 l .39.14 A .52.52,0,0,0,79.7,98.63Z m -5.5,17.81 a 27.63,27.63,0,0,1-7.59-1.1 c -.06-1.73-.17-6.68.58-9.21.87-2.91,2.92-4.14,4-7.59 l 2.89-1.06,2.79,1 a 13.24,13.24,0,0,0,.93,2.92 c 1.57,3.14,3.14,3.37,4.29,6.55 a 17.68,17.68,0,0,1,.45,7.52 A 28.84,28.84,0,0,1,74.2,116.44Z m -11.9-8 c .07-5.12,3.11-9.34,4-10.51 s .9-2.28.28-5.6,1.94-7.68,3-9.68 l .07-.16 a 7.25,7.25,0,0,1,1.66,2.79,16,16,0,0,1,.35,2.86 l -.6-.24 a 1.15,1.15,0,0,0-.91-1.26,1.31,1.31,0,0,0-.22,2.56,1,1,0,0,0,.88-.49 l .89.38q0,.57,0,1.19 l -1.13.48 a 1,1,0,0,0-.73-.56,1.31,1.31,0,0,0-.28,2.55,1,1,0,0,0,.87-.43 l 1.17.46 c 0,.29,0,.58-.07.88 l -1.43.54 a 1,1,0,0,0-.74-.46,1.39,1.39,0,0,0-.24,2.71,1,1,0,0,0,.92-.5 l 1.07.43q-.18.76-.4,1.44 l -1.39.51 a 1,1,0,0,0-.68-.59,1.45,1.45,0,1,0,.77,1.65 s 0-.08,0-.13 l .88-.31 a 18.54,18.54,0,0,1-1.89,3.47,12.56,12.56,0,0,0-2.4,6.5,47.23,47.23,0,0,0,.08,6.32,8.5,8.5,0,0,1-2-.88 C 63.34,113.74,62.23,113.54,62.3,108.42Z m 6.2-8.92.43-.14 a .81.81,0,0,1-.87.61,1,1,0,0,1,.44-1.81.62.62,0,0,1,.36.28 l -.55.2 A .76.76,0,0,0,68.5,99.5Z m 1.58-11.14.35.16 a .59.59,0,0,1-.49.21 A .87.87,0,0,1,70.09,87 a .7.7,0,0,1,.57.68 l -.31-.12 A .49.49,0,0,0,70.08,88.36Z"/>
    <path d="M 78.7,104.27 a 23.3,23.3,0,0,0-9.75,0 C 70.81,103.16,75.93,102.47,78.7,104.27Z"/>
  </g>
<script type="text/ecmascript" xlink:href="param.min.js"/> 
</svg>
