<?xml version="1.0"?>
<svg xmlns="http://www.w3.org/2000/svg" xmlns:xlink="http://www.w3.org/1999/xlink" viewBox="0 0 600 600">
  <title>basic-tank-top-voluptuous</title>
  <g id="main-colour">
    <path d="M 340.81,297.47 c -.62-4.87,3.88-17.5,6-27 a 33.28,33.28,0,0,0,.83-7.77 c -13.1-5.79-15.18-26.17-15.41-35.83 a 18,18,0,0,0-5.62.75 c 1.62,15.87-1,29.4-15.13,30.75-23.5,2.25-28.37-28.37-33.75-33.5 a 4.46,4.46,0,0,1-.38-.6,12.41,12.41,0,0,1-5.24,2.85 c 6.63,6.5,7.75,16.75,5.5,26.38 s -11,17.75-20.25,19.38 a 29.73,29.73,0,0,1-11.06,0,111,111,0,0,0,4,15.63 c 3.38,10.88.5,15.5-3.37,21.38 S 235.69,328,231.94,340 c -.32,1-.62,2.1-.9,3.2,5.07-.81,13.11-1.62,19.57,0,10.25,2.5,27,9.5,41.25,12 s 34.75,2.75,49.25-3.5 a 88.94,88.94,0,0,0,17.14-9.88 c -1.33-9.58-4-19.94-9.17-28.38 C 345.34,307.26,341.44,302.35,340.81,297.47Z" fill="param(main_colour)"/>
  </g>
  <g id="outline">
    <path d="M 232,344 s 11.17-4.17,34.83,5,63.33,17,91.67-6.5 c 0-.83-.17-2.42-.17-2.42 s -14.83,13.08-34.67,15.08 S 289.52,355,272.52,349 s -29.67-10.33-40.5-6.83 A 5.64,5.64,0,0,0,232,344Z"/>
    <path d="M 238.86,338.5 s 5.25-2.37,28.13,5.88,36.13,9.25,48.38,9,26.13-4.87,33.88-10.25 c -6.87,3.13-20.5,9.25-34,9.13 s -22.62-.75-37.87-5.62 S 244.11,335.13,238.86,338.5Z"/>
    <path d="M 251.19,286.56 a 67,67,0,0,1-3.67-13.67,23.57,23.57,0,0,1-2.56-.57,40.88,40.88,0,0,0,1.47,7 c 3.83,12.33,8.19,18.93,0,29.83 a 84.46,84.46,0,0,0-15.86,35.09 c 1-.21,1.91-.39,2.57-.5 h 0 a 82.54,82.54,0,0,1,4.16-14 c 4.5-10.17,8.79-16.58,13-23.08 a 17,17,0,0,0,2.16-5 A 175.88,175.88,0,0,1,254,322.88 a 74.72,74.72,0,0,0-1.88-33.38 C 251.84,288.46,251.53,287.47,251.19,286.56Z"/>
    <path d="M 343.65,302.42 c -2.8-5-1.88-8.61,1-19.11,1-3.65,2-7.1,2.78-10.43,0-.19.09-.36.13-.54 l .05-.22 h 0 c .16-.78.28-1.55.37-2.3,0,.3-.05.6-.1.9 a 31.83,31.83,0,0,0,.54-7.9 l -1.44-.52 a 93.89,93.89,0,0,1-3.7,18.65 c -.71,2.4-1.41,4.49-2,6-2.5,6.83-3,12.17,2.83,20.67,8.09,10,11.95,23.44,13.75,35.47v0 l 1.67-1.37 C 355.87,316.59,345.54,305.8,343.65,302.42Z"/>
    <path d="M 271.15,226.83 s 5.56,6.91,6.45,14.55 c 1.17,10-2.14,22.18-15.17,28.75 a 22.2,22.2,0,0,1-17.58,1.08 l .25,2.33 s 8.9,2.92,19.33-2.5 c 10.58-5.5,23.26-24.07,9.14-43.45 C 272.7,227.35,271.15,226.83,271.15,226.83Z"/>
    <path d="M 276.94,224.88 a 173.68,173.68,0,0,1,8.75,17.42 c 4.75,10.75,12.79,16.83,24.42,17,23.16.33,17.13-32.54,17.13-32.54 l -1.5.38 s 4.29,29-12.87,30.5 c -24.67,2.16-25.75-22.12-35.37-34.75 A 4.58,4.58,0,0,0,276.94,224.88Z"/>
    <path d="M 331.36,226.05 s .08,32.49,17.08,37.91 a 15.17,15.17,0,0,0-.12-1.92 s -8.07-1.64-12-15 c -3.67-12.33-3.21-20.89-3.21-20.89 A 5.35,5.35,0,0,0,331.36,226.05Z"/>
    <path d="M 325.73,227.13 s 4.13-1.69,7.33-1 c 0,.34-.23,1.44-.23,1.44 s -4.22-.41-6.53,1 A 12.09,12.09,0,0,0,325.73,227.13Z"/>
    <path d="M 271.15,226.83 a 8,8,0,0,0,6.33-4 c 0,.79,0,2.46,0,2.46 s -2.37,2.33-4.87,2.5 A 16,16,0,0,1,271.15,226.83Z"/>
  </g>
<script type="text/ecmascript" xlink:href="param.min.js"/> 
</svg>
