<?xml version="1.0"?>
<svg xmlns="http://www.w3.org/2000/svg" xmlns:xlink="http://www.w3.org/1999/xlink" viewBox="0 0 150 150">
  <title>basic-flip-flops</title>
  <g id="skin-tone">
    <path d="M 44.7,93 a 4,4,0,0,1,3.61-.71 c 1.31.24,6.86,0,12-4.43 s 8.24-8,9.56-11 a 4,4,0,0,0,.39-2.31 h 0 a 4.74,4.74,0,0,1,9.46.43,20.12,20.12,0,0,0,1.42,5.71 c 1.19,2.7,4.59,6.12,4.59,8.81 s -.4,5.39-2.79,6.34-6,.47-8.73.28 A 11.62,11.62,0,0,0,66,98.4 c -2.68,2.08-5,3.94-6.45,4.14 a 3.54,3.54,0,0,1-3.05-.8 c -1.55.67-3.45.63-4.28-1-1.9.12-2.7-.44-3.13-1.39-1.55.2-2.86-.2-3.05-2.3 C 44.14,96.41,43.51,93.95,44.7,93Z" fill="param(skin_tone)"/>
  </g>
  <g id="main-colour">
    <path d="M 85.4,92.82 s -1.5,3.58-4.5,3.75-9-.29-9.17-.29-2.58-1.37-4.5-2.21 a 19.28,19.28,0,0,0-12-1.92,10.78,10.78,0,0,1,3-2.25,4.11,4.11,0,0,0-3.62.88,4.71,4.71,0,0,0-1.58,3,16.17,16.17,0,0,1,7-.21 c 2.67.46,6.38,3.33,7.58,3.83 a 12.31,12.31,0,0,0-3.33,2.29 c -.79.79-5.37,4.75-7.67,2.12-2.21.67-4,.44-4.46-1.11-1.45.41-3-.32-3.13-1.39 a 2.42,2.42,0,0,1-3.11-2.16,2.7,2.7,0,0,1-1.79-1.83,2.53,2.53,0,0,0-.92,2 c 0,1.46.46,3.79.38,4.63 a 14.42,14.42,0,0,0,8.08,4.83,17.33,17.33,0,0,0,11.88-1.23 c 4.58-2.19,4.67-3.35,9.63-3.77 s 10.54,0,13.79-1.67 c .46-2.63.92-4.71.54-5.29 A 17.5,17.5,0,0,0,85.4,92.82Z" fill="param(main_colour)"/>
  </g>
  <g id="fixed-colours">
    <path d="M 56.82,100.57 s 1.35-.12,1.82.63 c .24-.56,0-1.65-1.47-1.45Z" fill="#fff"/>
    <path d="M 52.24,99.59 a 3.19,3.19,0,0,1,2.32.91 c .28-.65.18-1.82-1.8-1.92 C 52.34,98.82,52.24,99.59,52.24,99.59Z" fill="#fff"/>
    <path d="M 49.22,98.17 s 1.59.06,2.08.75 c .22-.54.06-1.78-1.8-1.73 A 1.27,1.27,0,0,0,49.22,98.17Z" fill="#fff"/>
    <path d="M 46.43,96.26 s 1.31.42,1.61,1.13 c .52-.44.56-1.69-1-1.92Z" fill="#fff"/>
    <path d="M 45.75,92.65 a 1.49,1.49,0,0,1,.06,2.43,4.76,4.76,0,0,0-1.05-1.52 A 2.9,2.9,0,0,1,45.75,92.65Z" fill="#fff"/>
  </g>
  <g id="outline">
    <path d="M 88.1,95.63v-.1 h 0 a 4.3,4.3,0,0,0-1.93-2.71 A 8.52,8.52,0,0,0,85,85.48 a 17.63,17.63,0,0,1-3.23-10 l 0,0 s 0-.06,0-.09v-.06 c 0-.1,0-.2,0-.31 A 6.75,6.75,0,0,0,75,68.25 h 0 A 6.76,6.76,0,0,0,68.25,75 c -.14,4.37-1.84,6.69-5.58,10 a 50,50,0,0,1-6,4.63 A 4.54,4.54,0,0,0,54.06,91 a 8.11,8.11,0,0,1-2.68.73 c -3.46.21-4.71-.85-6.77.49 A 2.68,2.68,0,0,0,43.54,95,5.4,5.4,0,0,0,43,98.87 l .34,3.32 s 1,2.17,5,3.92 a 18.41,18.41,0,0,0,17.37-1.17 c 3.42-2.08,5.75-2.83,12.17-2.92 s 9.46-1.48,9.46-1.48 l .6-4.23 A 2,2,0,0,0,88.1,95.63Z M 69.53,79.49 A 15.29,15.29,0,0,0,70.25,75,4.75,4.75,0,0,1,75,70.25 h 0 A 4.75,4.75,0,0,1,79.75,75 a 13.2,13.2,0,0,0,1.86,8.33 c 2.29,3.49,3.83,5.43,2.67,9.32 s -4.7,3.05-6.72,2.93 a 37.15,37.15,0,0,0-6.07,0,44.46,44.46,0,0,0-7.34-3.17,20.44,20.44,0,0,0-8.42-.58,6,6,0,0,1,.83-.72,31.23,31.23,0,0,0,3-1.81 C 61.44,88,67.19,83.82,69.53,79.49Z m -11,21.82.18.15.11-.2 a 1.13,1.13,0,0,0,0-1.09,1.19,1.19,0,0,0-.94-.62 h -.16 a 6.81,6.81,0,0,0,3.31-3.19,7.63,7.63,0,0,1-3.81,2.41,2.24,2.24,0,0,0-1.54,2.74,3.37,3.37,0,0,1-2.5-.35,1.88,1.88,0,0,1-.7-1.52,3.74,3.74,0,0,1,1.91,1 l .19.22.13-.25 a 1.31,1.31,0,0,0,0-1.27,2.16,2.16,0,0,0-1.56-.88 h 0 c 1-1,2.46,0,2.46,0 a 2.22,2.22,0,0,0-1.09-.89,5.07,5.07,0,0,0,4.08-2.46 A 7.34,7.34,0,0,1,55,96.88 c -1.91-.15-3.52.84-3.42,3.43 a 2.77,2.77,0,0,1-1.79-.88,1.83,1.83,0,0,1-.4-1.06,2.64,2.64,0,0,1,1.77.66 l .21.21.1-.27 a 1.42,1.42,0,0,0-.15-1.27 A 1.81,1.81,0,0,0,50,97 h 0 c .78-1.07,2.41-.44,2.41-.44 a 2,2,0,0,0-.62-.42,11.26,11.26,0,0,0,4-2.37 c -2.71,2-6.22,1.51-7.11,3 A 2.86,2.86,0,0,0,48.4,99 a 1.77,1.77,0,0,1-1.81-1.44,3,3,0,0,1-.16-1.11,3,3,0,0,1,1.46,1.06 l .14.24.17-.22 a 1.39,1.39,0,0,0,.29-1.32,2.77,2.77,0,0,0-1.31-.94,2.59,2.59,0,0,1,2.17.11,1,1,0,0,0-.45-.51 A 7.52,7.52,0,0,0,53,94 a 14.56,14.56,0,0,1,11.77,2,18.1,18.1,0,0,0,1.69,1.07,5.22,5.22,0,0,0-.61.41 c -3.06,2.48-5.6,4.43-7.46,4.47-1.11,0-1.46-.63-1.4-1.27 A 2.51,2.51,0,0,1,58.52,101.31Z m -1.43-.88 a 1.47,1.47,0,0,1,.37-.65,1,1,0,0,1,.49,0,1.14,1.14,0,0,1,.64.52.82.82,0,0,1,0,.68 A 3.08,3.08,0,0,0,57.09,100.42Z m -4.53-1.12 a 1.37,1.37,0,0,1,.34-.66,2,2,0,0,1,1.59.8,1.14,1.14,0,0,1,0,.77 A 4.18,4.18,0,0,0,52.55,99.31Z M 49.41,98 a 1.53,1.53,0,0,1,.36-.79,1.77,1.77,0,0,1,1.35.68,1.37,1.37,0,0,1,.12.77 A 3.86,3.86,0,0,0,49.41,98Z m -2.7-1.77 a 1.63,1.63,0,0,1,.57-.67,1.41,1.41,0,0,1,1,.74,1.13,1.13,0,0,1-.19,1 A 3.59,3.59,0,0,0,46.71,96.24Z m 17.56-1.29 c -2.42-1.67-6.33-2.62-11-1.42 a 4.38,4.38,0,0,1,4.42-3.58 c -1.79.88-2.79,1.79-2.79,2.5 a 17.43,17.43,0,0,1,10,.88 c 3.29,1.33,6.79,3.5,8.83,4 a 11.74,11.74,0,0,0-3.92.75 A 23.1,23.1,0,0,1,64.28,94.94Z m -18.45-2 a 1.51,1.51,0,0,1,.46.75,1,1,0,0,1-.39,1.19 A 2.58,2.58,0,0,0,45,93.5,2.25,2.25,0,0,1,45.83,92.92Z m -1,.88 a 2,2,0,0,1,.87,1.13 l .08.34.41-.32 a 1.14,1.14,0,0,0,.42-1.13,1.87,1.87,0,0,0-.46-1,2.62,2.62,0,0,1,.65-.11 c 1.55-.06,1.72.48,4.43.27 a 9.48,9.48,0,0,0,1.9-.38,7.52,7.52,0,0,0-.31,1.11,9.28,9.28,0,0,1-3.7.45 c -1.92-.25-3.18.56-3.46,2.24 a 2.38,2.38,0,0,1-1-1.32 A 1.7,1.7,0,0,1,44.82,93.8Z m .77,3.82 c .21,2.21,2.33,2.49,3.3,2.41 l .11.17 a 3.08,3.08,0,0,0,2.76,1.12 c .65,1.7,2.92,1.73,4.44,1.29,1,1.12,3.3,1,4.51.45,1.43-.67,4.33-3.48,6.47-4.31.49-.19,1-.38,1.5-.57.68.32,1.15.52,1.15.52 a 15.19,15.19,0,0,1,6.79-.83 c -.52-.19-1-.39-1.5-.6 l 1.19.06 c 4.88.36,7.24.28,9.19-3q.18-.3.33-.61 c .89.75,3.31,3.25-2.28,4.41-6.62,1.38-9.71-.46-15.08,1.92 s -5.66,4.74-12.67,4.58 c -7.56-.16-13.2-4.62-11.8-8.34 A 2.77,2.77,0,0,0,45.58,97.62Z m 30.53,3.58 a 18.22,18.22,0,0,0-10.83,3 c -4.11,2.43-8.08,3.52-13.25,2.35 A 15.63,15.63,0,0,1,44,102 l -.11-1.32 c 1.87,2.51,6,4.52,10.11,4.86 a 16.39,16.39,0,0,0,10.67-2.25 c 3.33-1.92,5-3.44,10.56-3.6,5.33-.15,9.69-.31,11.72-2-.1.62-.22,1.32-.38,2.08 C 84.17,101,79.86,101.19,76.11,101.19Z"/>
  </g>
<script type="text/ecmascript" xlink:href="param.min.js"/> 
</svg>
