<?xml version="1.0"?>
<svg xmlns="http://www.w3.org/2000/svg" xmlns:xlink="http://www.w3.org/1999/xlink" viewBox="0 0 600 600">
  <title>slender-top-template</title>
  <g id="main-colour">
    <path d="M 336.51,326.21 c -5.67-10.33-2.33-26,1-34.5 h .08 c 1-3.56,2.58-8.86,4.44-14.33,6.67-12.5.5-20.67.5-20.67 a 18.91,18.91,0,0,0-2.17-7.67 A 125.76,125.76,0,0,0,316,237.26 c -1.18-.39-2.31-.78-3.37-1.15-1.73-.56-3.21-1-4.37-1.32-18.56,20.17-53.77,30.92-53.77,30.92.5,16.67,7.67,24.5,11,33.5 s 2.17,17.33-4.5,25.5-16.33,21-20.5,41.83,1.5,48,3.67,57.5,4.67,28.17-3.33,38.33 c 28,19,65.33,4.33,80,1 s 31.5-4.83,43.33.33 c 1.5-17.33,3.17-48-4.17-81.33 S 342.18,336.54,336.51,326.21Z" fill="param(main_colour)"/>
  </g>
  <g id="outline">
    <path d="M 284.37,288.38 S 296,290,306.75,280.25 C 303.75,285.75,296.12,291.13,284.37,288.38Z"/>
    <path d="M 359.4,373.13 c -4-16.25-12.87-33-18.75-42.12 s -6.5-16.87-5.62-24.75,3.13-13.12,4.88-18.12 c 1.22-4,2.35-7.75,3.1-10.25,2.25-3.25,3-7.87,3.13-10.75 a 21.77,21.77,0,0,0-2.5-10.25 c -.37-2.5-.37-6.12-2.62-8.75-11.62-6.87-29.72-14-29.72-14 a 90,90,0,0,0,7.25-8.12 c -.75-2.37-2.12-2.75-2.12-2.75 s -4.37,6.63-8.12,10.13 c -7.25-2.25-19.5-10.12-24.62-14.25 A 6.68,6.68,0,0,0,281,223.5 s 17,9.75,25.13,12 c -22.5,20.38-52.61,29.75-52.61,29.75.25,14.25,6.48,24.25,9.36,30.25 s 4.75,10.88,2.25,19.88-11.75,12.5-21,35.5-6,46-2.75,63.75,7.5,35-2.25,48.25 c 22.75,17,61.25,8,76,3.25 s 37.5-7.5,50.25,0 C 369.15,422.63,363.4,389.38,359.4,373.13Z m -18.26-119.4-4.69-6 c 1.15.66,2.26,1.34,3.42,2.11 A 18.39,18.39,0,0,1,341.14,253.73Z M 363.4,461.88 c -8.75-4.87-32.37-3-45.25,1.13 s -49.87,15.13-75.88-.75 c 7.38-12,4.88-28.37,3-37.87 S 239,395.13,240.65,374 s 13.38-39.25,20.63-47.87,8.75-18.37,5-27.75-9.62-15.37-10.75-32.12 c 0,0,26.38-6.87,53.88-30.12,13.54,5.36,19.89,7.88,24.73,10.38,2.59,4.2,7.62,10.87,7.62,10.87 a 19.1,19.1,0,0,1,2,11.13,26,26,0,0,1-2.37,8.25 s -8.75,22.63-8.47,33.75 c .28,11.37,1.75,14.88,8.38,25.25 s 14,28.5,18.38,49.63 S 365.27,437.5,363.4,461.88Z"/>
  </g>
<script type="text/ecmascript" xlink:href="param.min.js"/> 
</svg>
