<?xml version="1.0"?>
<svg xmlns="http://www.w3.org/2000/svg" xmlns:xlink="http://www.w3.org/1999/xlink" viewBox="0 0 600 600">
  <title>midi-crew-neck-baggy-t-shirt-curvy</title>
  <g id="main-colour">
    <path d="M 254.57,251 c -2.75,22.25,4.63,35.5,7.25,40.25 s 4.63,8.5,5.5,15.13 c 1.38,11.88-6.87,19.38-14.12,29.88 a 62.23,62.23,0,0,0-9.59,21.39 c 2.73-2.28,6.5-5,10.09-6.07,6.67-2,13.67-.67,24.33,3.17 s 30.5,11.17,44.5,8.5 a 44.62,44.62,0,0,0,24.61-13.89,52,52,0,0,0-3.9-9.35 c -2.67-4.92-5.58-8.25-8.08-16 s -1.58-17.67-.5-22.83,2.75-9.08,5.08-15.67 a 60.47,60.47,0,0,0,3.75-23.25 c -.33-9.33-3.26-14.6-3.26-14.6 h 0 a 12.69,12.69,0,0,0-6.41-19.85 h 0 c -4-2.33-11.4.46-11.4.46 s -.08.22-.47.27 c 1.42,5.56,1.42,17.61-10.7,19.63 C 297,250.5,286.36,243,281.48,237.88 a 33.9,33.9,0,0,1-5.68-8.52 l -.23.12 a 54.44,54.44,0,0,0-11-3.12,13.69,13.69,0,0,0-13.87,6.13 C 246.07,241.22,250.57,248.1,254.57,251Z" fill="param(main_colour)"/>
  </g>
  <g id="outline">
    <path d="M 339.9,330.23 c -3.57-6.17-7-11.63-4.71-27.38,1.29-8,6-17.12,8.13-26.56,0,0,1.53-10.09.8-15.2-.56-6-2-11.31-3.9-13.47 l .08.21 c .12.33.38,1.09.69,2.22,1.2,4.53,3,15.26-.66,30.88-2.77,9.31-7.06,18.2-7.51,28.05-.62,13.75,2.14,18.35,5.94,24 a 50.61,50.61,0,0,1,7.32,16.28 c -21.21,20.91-43.71,13-65.48,5.36-2.06-.72-4.12-1.45-6.17-2.15-16.19-5.51-24.51-1.33-28.37,2.29 a 49.75,49.75,0,0,1,2.88-8.81 c 1.86-4.51,9-14.87,13.22-20.44,3.67-4.86,6.65-10.08,6.32-17.3,1.58,6,2.29,11.43,3.39,19.45.18-11.14-1.37-24.22-7.64-33.77-2.53-4.85-5.46-9.24-7.59-19.72 a 83.89,83.89,0,0,1-1.13-21.29v-.18 l 0-.25,0-.33 c 0-.29,0-.45,0-.45 h 0 l .08-.93 a 12.7,12.7,0,0,1,6.69-23.5 h 0 c .43,0,.87,0,1.32.07 a 39.48,39.48,0,0,1,6.89,1.43 l .87.26.08,0 c 1.21.38,2.42.8,3.61,1.21 a 33.63,33.63,0,0,0,31,19.26 c .94,0,1.9,0,2.89-.1,5.34-.35,9.33-2.41,11.86-6.13 A 18.08,18.08,0,0,0,323,229.12 a 15.19,15.19,0,0,1,10.76-1.36 s -3-2.13-8.11-1.29 a 17.86,17.86,0,0,0-4.93,1.83 l .23.87 h 0 c 0,.09.06.2.08.3 l .12.47 c .72,3,.73,8.21-2,12.17-2.17,3.18-5.65,5-10.34,5.26-19.35,1.29-28.31-11.36-31-16.23,0,0-.31-.7-.94-1.94 l -1.83-.74 a 42.53,42.53,0,0,0-10.9-3.13 l -.61-.07 a 11,11,0,0,0-1.2-.06,14.7,14.7,0,0,0-8.79,26.48,93.51,93.51,0,0,0,.74,20.13 c 1.75,12.27,5.5,17.39,9.13,24.39 s 6.07,17.93-2.62,28.16 c -12,14.16-16.38,25.18-17.93,35.82,0,0,.54-.62,1.42-1.5 l .24-.23.42-.41 a 23.75,23.75,0,0,1,7.38-5 l .29-.11.11,0 h 0 c 4.41-1.58,11.1-2,21,1.38,2,.7,4.1,1.42,6.15,2.14,11.61,4.08,23.41,8.23,35.18,8.23,10.59,0,21.15-3.39,31.5-13.21v0 h 0 a 20.46,20.46,0,0,0,1.63-1.5 A 49.91,49.91,0,0,0,339.9,330.23Z"/>
    <path d="M 332.86,331.71 a 53.39,53.39,0,0,1-4.5,20.17 C 332.48,345.5,334.19,336.38,332.86,331.71Z"/>
    <path d="M 249.23,350.63 s 9.25-5.62,22.12-1.5,25.25,9.13,31.63,10.13 c -5.5-1.87-22.75-7.87-26.62-9.37 S 258.36,343.38,249.23,350.63Z"/>
  </g>
<script type="text/ecmascript" xlink:href="param.min.js"/> 
</svg>
