<?xml version="1.0"?>
<svg xmlns="http://www.w3.org/2000/svg" xmlns:xlink="http://www.w3.org/1999/xlink" viewBox="0 0 215 215">
  <title>nurse-curvy</title>
  <g id="skin-tone">
    <g id="skin-tone-2" data-name="skin-tone">
      <path d="M 91.43,134 c -.09,2.88-.1,5.85,0,8.77.51,11.11,2,22.1,4.68,29.6 S 101.89,187,104.3,190 s 7.28,3.65,10,1.78 a 10.46,10.46,0,0,0,4.33-9 c 0-4,1.18-27.93,1.54-34.62.15-2.86.47-7.57.77-12.31 C 108.73,132.09,96.21,133.34,91.43,134Z" fill="param(skin_tone)"/>
    </g>
  </g>
  <g id="main-colour">
    <g id="main-colour-2" data-name="main-colour">
      <path d="M 126.78,138.64 c -.88-3.85-5.5-25.77-5.5-25.77 h 0 a 21.28,21.28,0,0,0-1.07-5.49 h 0 a 12.71,12.71,0,0,0-25.42,0,35.31,35.31,0,0,0-1.82,6.8 c -1,3.29-6.44,19.58-8.06,21.67,0,0,1.94,2,6.25,2.42 a 36.93,36.93,0,0,1,.2-3.71,64,64,0,0,1,14-1.2 c .58,0,3,.08,3.55.13 a 60.5,60.5,0,0,1,7.47,1.31 c 1,.27,3,1,4.76,1.69 l -.2,4.1 S 124.78,140.07,126.78,138.64Z" fill="param(main_colour)"/>
    </g>
  </g>
  <g id="fixed-colours">
    <path d="M 88.33,127.26 s 11.23-2.94,19.3-2.37 A 66.65,66.65,0,0,1,124,128.57 l .75,3.19 s -18.62-7.25-37.63-1.06Z" fill="#fff"/>
  </g>
  <g id="outline">
    <path d="M 124,123.06 c -.52-2.61-1.19-5.48-1.49-7.33 a 12.85,12.85,0,0,0-.16-1.56 c -.39-3.18-1-5.6-2.11-6.78,0,0,.28,2.7.45,6.78,0,0,.9,4.46,1.61,8.34.16.91.58,3.12,1.08,5.59 a 50.46,50.46,0,0,0-34.18-1.45 c .73-1.83,1.43-3.64,2.18-5.61 a 82,82,0,0,0,3-10.7 c .23-1.9.39-3,.39-3-1,.14-1.92,2.44-2.71,6.23-.48,1.68-1.23,4.22-2.67,8.15 S 83.32,137,83.32,137 a 19.06,19.06,0,0,0,6.85,2.33 c .06,4.39.28,9,.72,13.59,2.18,22.83,11.41,35.86,11.41,35.87 a 9.06,9.06,0,0,0,17.15-4.07 s 1.21-17.15,1.33-25.65 c 0-3.1.69-10,1.23-17.83 a 19.15,19.15,0,0,0,5.4-1.9 C 126.07,135,124,123.06,124,123.06Z m -.44,5.93.38,1.85 c -2.81-.92-20.17-6.15-36.07-.89 l .88-2.18 C 91.42,126.81,105.72,122.37,123.56,129Z m -33.39,8.65 a 12.73,12.73,0,0,1-4.11-1.46 c 1.08-.28,2.47-.61,4.11-.93Z M 118.72,154 c -.12,7-.47,19.15-.87,26-.08,1.27-.23,3.07-.33,4.16 a 3.57,3.57,0,0,1-.08.56v.36 a 7.05,7.05,0,0,1-13.35,2.79 c -.12-.18-.37-.58-.72-1.17-.72-1.25-1.48-2.76-1.77-3.33 a 89,89,0,0,1-6.77-21.14,130.27,130.27,0,0,1-2.23-27.42,63.06,63.06,0,0,1,27.08,1.6 C 119.23,143.12,118.8,149.85,118.72,154Z M 85.77,135 l 1.65-4 c 2.78-.9,17.45-5,36.76.89.43,2,.85,3.82,1.17,4.93 C 117.35,132.62,97.35,130.45,85.77,135Z m 36.5,2.23 c 1.09.38,2.19.79,3.29,1.26 a 8.37,8.37,0,0,1-3.45,1.17Z"/>
  </g>
<script type="text/ecmascript" xlink:href="param.min.js"/> 
</svg>
