<?xml version="1.0"?>
<svg xmlns="http://www.w3.org/2000/svg" xmlns:xlink="http://www.w3.org/1999/xlink" viewBox="0 0 250 250">
  <title>OA030-strappy-heel-curvy</title>
  <g id="main-colour">
    <path d="M 109.31,212.36 s 11.42,4.33,16.17,1 c .25,2.75.33,4.92.33,4.92 a 15.21,15.21,0,0,1-14.17.25 A 56.84,56.84,0,0,0,109.31,212.36Z" fill="param(main_colour)"/>
  </g>
  <g id="outline">
    <path d="M 126.06,212.61 C 119.06,216.42,108,211,108,211 a 69.69,69.69,0,0,1,3.13,7.81,15.71,15.71,0,0,0,15.5-.37 S 126.25,215,126.06,212.61Z m -14,5.58 a 44.17,44.17,0,0,0-2.1-5.27 s 7.75,3.81,15.19,1.31 c .19,2.38.38,3.81.38,3.81 S 118.73,221.75,112,218.19Z"/>
  </g>
<script type="text/ecmascript" xlink:href="param.min.js"/> 
</svg>
