<?xml version="1.0"?>
<svg xmlns="http://www.w3.org/2000/svg" xmlns:xlink="http://www.w3.org/1999/xlink" viewBox="0 0 215 215">
  <title>city-classic-top-curvy</title>
  <g id="skin-tone">
    <path d="M 114.3,164.72 a 13,13,0,0,0-9.75,0 c .37,1.81.63,3.29.69,4.07.19,2.25-.39,7.18,3.43,7.82 s 5.75-2,5.63-5.64 C 114.26,169.68,114.25,167.4,114.3,164.72Z" fill="param(skin_tone)"/>
  </g>
  <g id="main-colour">
    <path d="M 102.58,156.19 a 17,17,0,0,1,12.05-.2 c .14-2.34.33-4.6.57-6.48.86-6.62,3.06-18.81,3.19-25.18.12-6.08-1.83-16.28-5-20.75 a 7.1,7.1,0,0,0-.46-.61 h 0 a 7.05,7.05,0,0,0-9.93-.88 h 0 s -2.81,1.29-4.94,8-2.21,18.41-.87,25.6,3.28,12.57,4.71,17.82 C 102.11,154.34,102.35,155.25,102.58,156.19Z" fill="param(main_colour)"/>
  </g>
  <g id="accent-colour-2">
    <path d="M 100.29,157.42 a 19.78,19.78,0,0,1,8.67-2.25,18.23,18.23,0,0,1,8.25,1.88 s -.83,7.5-.29,9.21 a 4.88,4.88,0,0,1-2.75,1.08 l -.12-2.67 s -5.21-2.25-9.83.33 c .17,1.38.25,2.21.25,2.21 l -2.42-.5 S 101.29,159.71,100.29,157.42Z" fill="param(accent_colour_2)"/>
  </g>
  <g id="outline">
    <path d="M 113,103.12 c .54.7,2.54,3.89,4,14.32,1.41,7.75-1.65,24.83-2.71,31.08-.28,1.67-.51,4-.68,6.55 a 19.2,19.2,0,0,0-10.62.32 c -1.3-5.07-2.63-9.88-3.34-12.59-1.66-6.29-3.74-17-1.81-27.89 S 103,102.08,103,102.08 c -1.36,0-2.89,1.52-4.06,3.86-2,3.67-3.71,9.24-4,18.74 s 3.1,19.17,6.17,30.84 l .14.55 c -.58.25-1.17.53-1.77.86 a 53.39,53.39,0,0,1,1.92,10.25 s 1,.28,2.44.59 c .57,3.28.67,4.87.67,4.87 h 0 c 0,.06,0,.12,0,.18 a 5.31,5.31,0,0,0,5.32,5.16 H 110 a 5.34,5.34,0,0,0,5.15-5.51 s -.12-1.71-.13-4.48 a 8,8,0,0,0,2.45-1.14,64,64,0,0,1,.33-10.17,14.16,14.16,0,0,0-2.21-1 c .59-6.17,1.44-10.63,2.6-18.23 C 119.56,128.75,121.52,112.75,113,103.12Z m .14,69.51 A 3.33,3.33,0,0,1,110,176 h -.11 a 3.33,3.33,0,0,1-3.33-3.22,29.86,29.86,0,0,0-.44-3.84v0 h 0 c -.2-1.21-.47-2.56-.77-4 a 18.58,18.58,0,0,1,7.95-.07 c -.09,3.73-.1,6.78-.07,7.69 h 0v.11Z m 3.15-6.63 a 9.46,9.46,0,0,1-1.28.46q0-.59,0-1.22 l .68.18 c -1.58-1.92-9.4-3.56-12.81.35 a 5.32,5.32,0,0,1,.51-.25 c .08.41.15.8.22,1.18-.44-.08-.88-.17-1.34-.28 a 44.09,44.09,0,0,0-1.42-8.75,17.85,17.85,0,0,1,15.67-.25 A 34.54,34.54,0,0,0,116.34,166Z"/>
    <path d="M 113,103.12 a 1.75,1.75,0,0,0-.14-.17Z"/>
  </g>
<script type="text/ecmascript" xlink:href="param.min.js"/> 
</svg>
