<?xml version="1.0"?>
<svg xmlns="http://www.w3.org/2000/svg" xmlns:xlink="http://www.w3.org/1999/xlink" viewBox="0 0 600 600">
  <title>basic-tank-top-slender</title>
  <g id="main-colour">
    <path d="M 320.47,242.8 c 1.17,14.42-24.67,14.08-32.75-16.25-.92.42-2.42,1.42-3.58,1.83,1.07,3.14,2.78,9.45,2.25,14-.9,7.76-5.44,13.95-15.3,16.11.46,6.8,1.87,15.17,2.65,19.64,1.63,9.38,4.66,20.41,6.5,28.91,3.38,15.59.78,18.59-6.39,31 a 121.58,121.58,0,0,0-8,15.7,41.63,41.63,0,0,1,13.49.13 c 10.58,1.83,22.75,5.08,33.5,4.33,8.26-.58,13.91-3.57,17.67-6.85-.66-1.57-1.56-3.52-2.8-6-4-7.92-4.57-12.7-4.73-21.12 s 1.82-20.63,3.91-27.88 c 1-3.42,2.5-7.76,3.91-12.61 a 35.94,35.94,0,0,0,4.63-2.06 c 2.92-1.58,7.67-6.42,8.5-14.17 s -4.33-14.25-6.92-16.83 c -1.72-1.72-4.33-4.51-5.88-6.19-2.88-3-9.14-12.78-12.29-17.73 a 12.91,12.91,0,0,0-3.08,1.17 A 40.29,40.29,0,0,1,320.47,242.8Z" fill="param(main_colour)"/>
  </g>
  <g id="outline">
    <path d="M 336.14,249.13 a 102.91,102.91,0,0,1-8.24-8.88 c 2.76,6,11,12.38,13.37,17.88 s 1.44,13.21-1.75,18 c -2.93,4.39-5.86,6.57-9.85,7.55 l -.17.58 a 17.79,17.79,0,0,0,15.27-14 C 347,259.53,341,253.7,336.14,249.13Z"/>
    <path d="M 271.23,268.19 c 2.5,9.5,6.15,21.81,8.36,31.38,1.85,8,3.7,15.63,3,23.92-.69,7.75-2.53,16.72-6.19,22.39,4.07-9.88,5.5-23.87,2.82-37.26 C 276.65,296.07,271.29,273.38,271.23,268.19Z"/>
    <path d="M 282.53,315.53 h 0 c -2,11.61-12,24.94-16.6,34.86-.76,1.63-1.41,3.24-2,4.79,1.55-.4,2.76-.69,2.76-.69 h 0 c .81-2,1.64-3.8,2.37-5.23,2.54-5,9.81-16.3,13.37-25.29 A 71.2,71.2,0,0,0,282.53,315.53Z"/>
    <path d="M 272.39,257.13 c -.43.07-1.44.24-2.3.32 a 93.84,93.84,0,0,0,1.18,11.26,116,116,0,0,0,5.42,19.37,154.43,154.43,0,0,1-3.2-19 A 82.29,82.29,0,0,1,272.39,257.13Z"/>
    <path d="M 292.14,285.38 c 6.87,2.13,15.94,1.39,21.83-3.67 C 309.22,289.38,297.38,289.89,292.14,285.38Z"/>
    <path d="M 270.73,350.63 s 3.25-1.12,13.75,1.5,31,6.25,40.25.5 A 41.37,41.37,0,0,1,310.86,355 a 127.21,127.21,0,0,1-23.21-2.83 C 280.27,350.56,273.61,349.25,270.73,350.63Z"/>
    <path d="M 264,355.2 s 5.45-2.33,17.53-.2 c 12.27,2.16,37,8.88,49.25-2.75 a 4.6,4.6,0,0,0-.5-1.25,31.28,31.28,0,0,1-18.75,6.5 c -11.37.13-19.5-2-24.62-3 s -16.81-3.87-21.62-1.12 A 9.66,9.66,0,0,0,264,355.2Z"/>
    <path d="M 331.49,351.58 a 58.61,58.61,0,0,0-2.52-6 c -3-6.13-5.8-11.93-4.5-26.84,1-11.15,4.83-23.86,7.7-35.5-1,.31-2,.57-2.6.72-5.8,20.38-9.93,34.9-7.1,49.7,1.62,7.4,5.14,12.84,7.71,19Z"/>
    <path d="M 282.65,227.55 s 5.79,12,1.29,21.25 c -3.54,7.27-13.42,8.92-13.92,8.67,0,.75.17,1.83.17,1.83 a 20,20,0,0,0,12.17-5.58 c 6.42-5.92,5.83-19.58,1.83-26.67 A 8.17,8.17,0,0,1,282.65,227.55Z"/>
    <path d="M 286.61,225.63 s 2.59,7.3,4.38,11.38 c 3.78,8.63,11.78,15.78,22,15.5,9.13-.25,11.75-11.25,2.66-25.81-.87.46-1.4.77-1.4.77 a 26.28,26.28,0,0,1,5,11.29 c 1.25,7.75-.32,10.35-3.87,12.13-4.17,2.08-14.62-1.37-19.75-8.37-4.19-5.73-4.86-12-7.7-18 C 287.27,225.13,286.61,225.63,286.61,225.63Z"/>
    <path d="M 318.94,225.73 s 2.9,4.39,7,11.15 a 41.3,41.3,0,0,0,6.56,8.58 l 1,2.51 a 52.18,52.18,0,0,1-8-9.41 c -3.69-5.69-4.06-7.27-8.38-12.46 A 8.33,8.33,0,0,1,318.94,225.73Z"/>
    <path d="M 314.27,227.46 a 9.57,9.57,0,0,1,4.67-1.73,13.7,13.7,0,0,1,1,1.6,18.53,18.53,0,0,0-2.58.79 c -1,.44-1.64.88-1.89.94 A 6.08,6.08,0,0,0,314.27,227.46Z"/>
    <path d="M 284.19,227 a 16.5,16.5,0,0,0,2.42-1.42 c .94.44.81,1.88.81,1.88 a 14.55,14.55,0,0,1-2.56,1.44 C 283.92,229.25,284.19,227,284.19,227Z"/>
  </g>
<script type="text/ecmascript" xlink:href="param.min.js"/> 
</svg>
