<?xml version="1.0"?>
<svg xmlns="http://www.w3.org/2000/svg" xmlns:xlink="http://www.w3.org/1999/xlink" viewBox="0 0 215 215">
  <title>city-classic-top-hourglass</title>
  <g id="main-colour">
    <path d="M 116.94,99.93 a 12,12,0,0,0-16.88-2,12.43,12.43,0,0,0-4.1,12.8,84.42,84.42,0,0,0-.78,8.47 c -.34,8.46.87,29.52,2.48,40.66 s 2.53,16.71,5.78,25.28 c 1.44,3.64,2.31,6.77,6,6.23 s 4.64-3.81,5.15-7.4,1.58-22.81,1.58-30.28-.09-24,.73-29.38 c .53-3.5,1.66-9.05,2-13.15 A 12,12,0,0,0,116.94,99.93Z" fill="param(main_colour)"/>
  </g>
  <g id="outline">
    <path d="M 118.51,98.7 a 14,14,0,0,0-11-5.35 h 0 a 14,14,0,0,0-13.91,12.37,14.16,14.16,0,0,0-.06,2.78,13.13,13.13,0,0,0,.43,3.12,235,235,0,0,0,1.39,37 c 2.69,24.16,4.85,32.3,8.16,39.62 a 6.5,6.5,0,0,0,.63,1.35 l .07.14,0,0 c .12.18.24.36.38.54 a 5.9,5.9,0,0,0,10.21-1.72 h 0 c .08-.28.16-.61.23-1,0,0,0-.1,0-.15.23-1.19.41-2.6.48-3.29.33-3.49,2.11-38.5,2-50.35-.06-7.14,1.42-14.05,2.12-19.55 A 14,14,0,0,0,118.51,98.7Z m -.63,14.52-.06.28 c -.3,1.25-.29,2-.72,4.07-.67,4.41-1,8.86-1.38,11.35-.7,5.17-.37,24.78-.59,29.47-.2,4.37-.67,12.92-.88,17.43-.13,2.88-.32,6.75-.62,9.8 a 16.93,16.93,0,0,1-.59,1.89,3.87,3.87,0,0,1-1.37,2.2,3.78,3.78,0,0,1-4.88,0 s -.21-.2-.23-.19 c -1-.81-2.61-4.62-2.83-5.15 a 95,95,0,0,1-4.5-18.23 c -1.31-9.95-3.49-36.55-3.37-42.86,0-2.44.12-5.27.14-7.86 a 51,51,0,0,0-.23-5.37,14.64,14.64,0,0,1-.23-2.64v-1.25 a 12,12,0,0,1,23.84-.48 C 119.65,108.22,118.53,110.22,117.89,113.22Z"/>
  </g>
<script type="text/ecmascript" xlink:href="param.min.js"/> 
</svg>
