<?xml version="1.0"?>
<svg xmlns="http://www.w3.org/2000/svg" xmlns:xlink="http://www.w3.org/1999/xlink" viewBox="0 0 600 600">
  <title>default-top-curvy</title>
  <g id="main-colour">
    <path d="M 335.64,254.38 c -6.5-10.08-14.5-21.58-17.83-28.92 a 10.34,10.34,0,0,0,2.75,2.42 S 334.22,247.3,338.72,253 c 5.83,2,9.58,3.83,11.58,6.5,2.08,5.67,2.67,10.5-.08,17.5 s -13.17,15.58-26.92,9.08 c -3.25-.33-9.17,1-9.17,1 s -6.33,8-16.83,8-24-2.83-39.92-13 c -.83-2.67-2.12-10-2.12-10 s 12.06,5.69,16.25,3.5 c 2-1,5.16-6.19,8.88-10 a 51.59,51.59,0,0,1,8.63-7 s -5.29-19.92-12.29-30.5 a 11.35,11.35,0,0,0,3.25-2.25 s 10.25,19.42,14.67,32 c 6.56.69,12.25,1.25,17.63,4.38,6,3.48,7.13,6.38,9.19,10.19 a 57.64,57.64,0,0,1,5.25-10 A 23.6,23.6,0,0,1,335.64,254.38Z" fill="param(main_colour)"/>
  </g>
  <g id="outline">
    <path d="M 321.47,275.3 a 35.27,35.27,0,0,1,14.92-20.92 c -4.75-7.25-14.17-20.33-17.17-27,.83.67,1,.67,1,.67 s 13.83,20.17,18.25,25.5 c 4.25,1.08,8.92,3.08,11.5,6.5,1.75,4.75,2.79,10.91-2.17,19.5-4.67,8.08-17.42,9.83-24.25,6.17-4.17-.25-8.08.58-9,1.08 s -.67,1.17-.67,1.17,5.67-2.08,9-1.25 c 5.25,2.92,9.42,2.75,13.83,2.17,4.23-.56,10.5-4.33,14-11.33 a 22.23,22.23,0,0,0,.33-18.08 c -3.58-4.75-12-7.25-12-7.25 s -14.67-19.42-18.5-24.75 a 14.73,14.73,0,0,1-4.6-5.11 c 3.5,8.92,18.85,31.53,18.85,31.53 s -9,3.25-13.58,18.75Z"/>
    <path d="M 281.14,289.71 s 10,4.42,19.25,2.58 a 25.1,25.1,0,0,0,14.42-9.17 s -5.92,6.58-14.58,8.17 S 281.14,289.71,281.14,289.71Z"/>
    <path d="M 327.8,285 s 13.25,3.25,21-5.92 a 7.28,7.28,0,0,0,.58-1.08 S 343.22,286.21,327.8,285Z"/>
    <path d="M 320.55,278.46 a 49.47,49.47,0,0,1-3.67,5.42,29.08,29.08,0,0,1-18.42,10.75 c -7.67,1.08-18.75-2.75-25.83-5.25 a 68.68,68.68,0,0,1-14.33-7.67 l -2.17-8.25 s 13.17,5.58,17.17,2.17 S 279,265.88,289.8,259 c -2.08-9-7.79-24.21-12.23-30.48 a 19.85,19.85,0,0,0,2.25-1.81 c 2.63,4.81,11.81,24.56,14.19,31.81,5.63.48,21.46.81,26.63,14.23 a 17.8,17.8,0,0,1,.75,2.91,17.84,17.84,0,0,0,.66-3.16 s -3.92-14.75-26.83-15.17 a 302.82,302.82,0,0,0-15.08-32.67 s -2.62,2.67-4.12,3.29 c 2.13,3.25,9.75,18.5,12.38,30-10.5,7-13.18,13.69-15.75,16.13-3.08,2.92-13.67-.5-18.58-3.75 a 100.05,100.05,0,0,0,2.5,12 s 15.5,10.92,34.5,13.58 c 8.78,1.23,17.95-1.39,23.58-7.58.71-.78,1.34-1.56,1.94-2.33 A 39.61,39.61,0,0,0,320.55,278.46Z"/>
  </g>
<script type="text/ecmascript" xlink:href="param.min.js"/> 
</svg>
