<?xml version="1.0"?>
<svg xmlns="http://www.w3.org/2000/svg" xmlns:xlink="http://www.w3.org/1999/xlink" viewBox="0 0 600 600">
  <title>v-neck-t-shirt-dress-curvy</title>
  <g id="main-colour">
    <path d="M 358.67,402.13 c 1.83-15.67,3.67-21.25.33-35.75 s -14.35-26.5-19.6-35.25-6.67-16.25-5.42-25.75 c 1-7.56,1.82-8.63,3.5-13.45,4.18-.92,10.08-3.34,13.93-8,5-6.12,6.38-14,5.38-21.12 s -7-12.62-11-15.12 c -1.58-1-3-1.83-4.1-2.5 a 12.57,12.57,0,0,0,1.12-5.2,12.71,12.71,0,0,0-12.71-12.71,15.85,15.85,0,0,0-3.59.08,7.89,7.89,0,0,0-5.2,1.58,8.21,8.21,0,0,1-3.58-2.67 c -2.08,6.33-8.28,9.75-8.28,9.75 l .79,1 s .7.25,1.21,3.89 a 14,14,0,0,0,7.45-5.14 c 2.64,3,6,7.54,7.51,11.92,1.39,4.06,2.63,9.67,1.63,15.25-23.87-1.75-41.19-17.58-44.44-24.25,3.42,2.25,13.37,5.32,16.7,4.44-.42-.71-1.52-3.68-.61-6-15.57.3-20.21-10.3-20.21-10.3 l -3.83,2.67 s -7.67-2.5-11.25-3.25 S 252,227.79,249.58,235 s .25,12.75,5,16.08 a 93.12,93.12,0,0,0,2.08,28.08 c 1.83,8.08,6.25,12.75,9.25,20.08 s 1.42,14.5-.5,19.08-8.25,10.67-16.33,22.5 S 236,362.71,234.26,374.21 s .42,28.92,2.17,36.67,6,15.75,6,23.83 c 0,1.49-.05,3-.14,4.55 a 42.47,42.47,0,0,0,12.3,1.79 c 0,1.49.05,4,0,5.86 a 86.64,86.64,0,0,1,12.64-3.36,111,111,0,0,1,41.84,1.17 c 14.07,3,23.77,4.95,35.33,3.17,9.75-1.5,15.25-5,19.25-11.25 C 359.92,426.13,356.84,417.79,358.67,402.13Z" fill="param(main_colour)"/>
  </g>
  <g id="fixed-colours">
    <path d="M 296.72,237.11 s 1.36-5.61,6.63-6.48 a 8.75,8.75,0,0,1,8.24,3.4 l -2,1.87 s -3.1-2.83-5.7-2.15 a 5.42,5.42,0,0,0-4,3.32 C 298.62,237.18,296.72,237.11,296.72,237.11Z" fill="#d1d3d4"/>
    <path d="M 297.52,243.56 l 2.87-.25 a 7,7,0,0,0,4.42,3.35,5.61,5.61,0,0,0,6.55-5.71 c 1.07-.5,2.66-1.32,2.66-1.32 a 9.55,9.55,0,0,1-1.74,7.42 C 309.61,250.5,301.44,252.42,297.52,243.56Z" fill="#d1d3d4"/>
  </g>
  <g id="outline">
    <path d="M 281.89,404.71 c -6.83-13.5-10.67-34.33-11.17-50.17 C 270.73,354.54,268.56,384.54,281.89,404.71Z"/>
    <path d="M 291.56,326.54 s -.83,53.33,48.5,85 C 314.73,391.21,297.06,366.54,291.56,326.54Z"/>
    <path d="M 271.59,279.88 s 6,18.33,25,18 C 287.26,295.88,277.09,290.21,271.59,279.88Z"/>
    <path d="M 293,438.54 c 22.68,2.41,36.9,9.83,46.23,5.83-5.5,1-12,0-20.17-2.17 s -21.9-5.7-35.9-5.36 c -13.83.33-21.83,3.69-24,4.69 C 259.16,441.54,277.33,436.88,293,438.54Z"/>
    <path d="M 360.67,396.88 c 2-12.57,2-24.82-2.18-36.67-3.5-10-13.5-22.5-17.86-28.75 a 31.67,31.67,0,0,1-6.17-19.75 c 0-6.89,1.84-13.61,3.5-18.87 A 25.22,25.22,0,0,0,353,284 c 5-6.2,7.06-14.25,4.64-23.42 s -9.6-13.17-14-15.23 a 135.42,135.42,0,0,1-14.58-8.77 c 2.83,3.33,10.83,8.33,14.42,10.5 s 10,6.75,11.92,15.17-.08,14.33-4.92,20.83 c -3.59,4.83-9.29,7-12,7.76-.31.06-1.17.25-1.87.45 a 88.94,88.94,0,0,0-3.25,12.13 c -1.08,6.25-1.08,15.75,1.42,21.33 s 8.89,15.07,11.86,19.17 c 4.11,5.67,10.32,14,12.49,29 a 66.58,66.58,0,0,1-.49,23,77.13,77.13,0,0,0-1.25,22.75 c .46,5.54,3.25,14.25,5.16,18.63-2.25,2.88-7.25,7.88-18,9.38-13.05,1.82-21.92.5-29.08-1.25 s -13.1-3.83-31.44-3.92 a 115.06,115.06,0,0,0-28.62,3.72 c .82-8.61.54-21-5.86-29.8,0,0,4.87,9.3,4.26,24.77 a 35.89,35.89,0,0,1-10.17-1.5,28.38,28.38,0,0,0-1.08-11 c -2.55-8.75-5.81-15.67-6.89-33.25 s -.29-25.67,4.87-36.67 c 4.87-10.37,12.25-20.08,15.33-24.5 s 9.42-10.25,11.67-17.67 a 22.74,22.74,0,0,0,.82-9.05 c 2,5.65,3.1,20.38,3.1,20.38 s .75-4.5-.67-14.58-7.48-19.67-10.42-25.85-4.62-15.87-4.94-20.69 a 116.39,116.39,0,0,1,.19-15,12.64,12.64,0,0,1-5.94-9.31,13.16,13.16,0,0,1,6-12.37 c 4.25-2.62,8.88-2,12.31-1.06 s 8.13,2.5,8.13,2.5,1.72-1.1,3.41-2.29 c 5.14,5.85,10.29,8.71,19.6,9.75 a 7,7,0,0,0,.46,4.65 A 34.34,34.34,0,0,1,282,236.75 c 6.69,14.63,27.07,25,46.57,26.79 a 33.28,33.28,0,0,0-9.29-28.87,16,16,0,0,1-7.55,5.56,8.51,8.51,0,0,0-1.41-3.93 s 3.5-1.5,7.49-8.48 c 1.69,1.19,3.44,2.31,3.44,2.31 a 20.07,20.07,0,0,1,3.13-1.62,15.28,15.28,0,0,1,9.38-.75 c -3.06-2.19-8.33-1.79-12.21.17 a 9,9,0,0,1-3.85-3,23.77,23.77,0,0,1-5.87,8.63 c -2.78-3.14-7-4.41-10.65-2.81 a 8.64,8.64,0,0,0-4.73,5.49 c -10.24-1.49-14.78-7.94-17-10.88 a 27.86,27.86,0,0,1-4.25,3.13,35.65,35.65,0,0,0-9.75-3,14.9,14.9,0,0,0-12.25,2.94,14.59,14.59,0,0,0-5.5,12.94,14.1,14.1,0,0,0,5.94,10.25,86,86,0,0,0,.42,18.58,56.22,56.22,0,0,0,6.42,20.5 c .79,1.42,2.26,3.95,3.77,6.81,1.75,4.73,2.67,8.85,2.4,13.36-.33,5.5-3.12,10-8.37,16.38 s -20.75,22.46-24.69,44.38 c -3.45,19.23,1.32,38.68,6,52.5 a 38.67,38.67,0,0,1,1.86,14.94 h 0 c 0,.27-.07.57-.12.89 a 39.89,39.89,0,0,0,12.38,2.63 c -.13,1.73-.33,3.53-.61,5.39.4-.18.81-.34,1.21-.49 h 0 c .3-.11.61-.2.92-.29 h 0 a 83.4,83.4,0,0,1,8.79-2.32 c 12.5-2.5,31-2.25,41.12-.12 s 20.69,5.38,33.85,4.46 c 15.82-1.1,22.13-5.62,26-12.5 A 74.83,74.83,0,0,1,360.67,396.88Z m -60.39-153 c 1.82,2.79,5.14,4,7.93,2.81 a 6.13,6.13,0,0,0,3.5-5.32,17.42,17.42,0,0,0,2.06-.79,8.29,8.29,0,0,1-4.65,8.2 c -4.1,1.81-9.07-.43-11.22-5 A 17.81,17.81,0,0,0,300.28,243.92Z M 319.09,237 a 32.88,32.88,0,0,1,8.31,24.87 c -22-2.21-39.64-16.92-42.2-21.79 a 36.92,36.92,0,0,0,11.68,3.58 c 0,.08.06.16.09.24,2.31,5.24,7.94,7.84,12.57,5.8,3.58-1.58,5.5-5.46,5.13-9.56 A 15.4,15.4,0,0,0,319.09,237Z M 311,241.48 a 5.37,5.37,0,0,1-3.07,4.48,5.68,5.68,0,0,1-6.74-2.11 h 0 a 6.73,6.73,0,0,1-.56-7.26,5,5,0,0,1,2.28-2,5.9,5.9,0,0,1,6.4,1.63 A 6.93,6.93,0,0,1,311,241.48Z m -9.36-9.79 a 8.38,8.38,0,0,1,9.54,2.47q-.78.67-1.64,1.27 a 6.27,6.27,0,0,0-7-1.64,5.74,5.74,0,0,0-2.83,2.75q-1.18,0-2.27-.16 A 7.76,7.76,0,0,1,301.6,231.7Z"/>
  </g>
<script type="text/ecmascript" xlink:href="param.min.js"/> 
</svg>
