<?xml version="1.0"?>
<svg xmlns="http://www.w3.org/2000/svg" xmlns:xlink="http://www.w3.org/1999/xlink" viewBox="0 0 600 600">
  <title>ripped-skinny-jeans-voluptuous</title>
  <g id="skin-tone">
    <path d="M 349.08,313.37 c -3.74-6.12-7.64-11-8.26-15.9 s 3.88-17.5,6-27-.49-15.61-.49-15.61 l -.22-.53-.32-.26 a 16.13,16.13,0,0,0-8.84-26.25v-.39 c -2.24-1.41-6.76-.84-11.76.54-5.58-6-6.4-19.35-6.49-22.47 a 73.85,73.85,0,0,1-37.12.18 c .06,2.13.07,4.29,0,6.29-.37,8.5-6.12,17.25-6.12,17.25 s -7.75-2.87-14.5-3.12-13.12,4.13-15.87,9.63-2.75,12.13,1.5,18.75 c -2.5,13.63.38,23.13,3.75,34 s .5,15.5-3.37,21.38 c -1.79,2.71-4.32,6.78-6.89,11.55,7.13,3.53,20.36,9.06,41.43,13.5,30.92,6.51,56.22,5.44,72.68-10.63 A 57.22,57.22,0,0,0,349.08,313.37Z" fill="param(skin_tone)"/>
  </g>
  <g id="main-colour">
    <path d="M 294.14,337.15 a 213.32,213.32,0,0,1-54.33-15.31 A 107.54,107.54,0,0,0,231.94,340 a 56.16,56.16,0,0,0-2.41,23.67 c -.59,10.54.21,21.65,3.91,29.75,8.77,16.25,24.06,22.91,39.56,21.75 s 24.93-12.78,24.93-12.78 l .48-.25 A 38.43,38.43,0,0,0,359,370.72 s 2.57-25.64-5.05-46.89 C 340.84,339.62,311.06,339.44,294.14,337.15Z" fill="param(main_colour)"/>
    <path d="M 354.13,326.9q-.71-2.19-1.56-4.33 a 23.94,23.94,0,0,1-5.28,4.36 c -1.55-1.72-3.09-.51-2.9,1.64 a 63.66,63.66,0,0,1-12,4.55 c -1-1.29-2.33-.77-2.84.73 a 76.43,76.43,0,0,1-13.69,2,153.53,153.53,0,0,1-20.4-1 c -.42-1.89-2.17-1.88-3.18-.39 a 174.68,174.68,0,0,1-19.58-3.77 c .1-2.2-1.92-2.49-3.2-.84 a 177.68,177.68,0,0,1-18.75-6.21 c .24-2.39-1.73-3.12-3.15-1.29-2.74-1.16-4.6-2-5.48-2.47-.73,1.33-1.46,2.73-2.2,4.2,1.81.85,3.84,1.75,6.08,2.68 a 2.18,2.18,0,0,0,.11.86 c .69,1.75,2,1.48,2.88.35 a 195.7,195.7,0,0,0,19.13,6.37,2.27,2.27,0,0,0,.18.95 c .86,1.8,2.29,1.27,3-.09 a 180.55,180.55,0,0,0,20.07,4,2.45,2.45,0,0,0,.34,1.07 c 1.15,1.69,2.52.89,3-.64 a 139.9,139.9,0,0,0,18.77,1,84.46,84.46,0,0,0,16.5-1.81 c .7,1.42,2.35,1.89,3.26.25 a 2.75,2.75,0,0,0,.28-1.11,53.92,53.92,0,0,0,12.81-5.21 c 1,.95,2.15,1.21,2.77-.52 a 2.59,2.59,0,0,0,0-1.26 A 28.49,28.49,0,0,0,354.13,326.9Z" fill="param(main_colour)"/>
  </g>
  <g id="fixed-colours">
    <path d="M 318.47,344.9 s .5,19-2,34.33 A 76.15,76.15,0,0,0,318.47,344.9Z" opacity="0.5"/>
  </g>
  <g id="outline">
    <path d="M 309.86,232.72 c 3.83.58,11.08-1.83,16.5-4.08 a 20.2,20.2,0,0,1,10.59-1.21 c -3.69-2.14-8.12-1.49-11.31-.26-1.49-1.81-5.87-8.27-5.88-22q-1,.29-2,.54 c 0,5.66.78,16.48,6.08,22.26 l -.38.21 C 320.36,230,313.61,232.39,309.86,232.72Z"/>
    <path d="M 343.65,302.42 c -2.8-5-1.88-8.61,1-19.11.4-1.5.81-3,1.21-4.39 a 26.19,26.19,0,0,0,3-7,20.25,20.25,0,0,0-.87-12.35,21,21,0,0,0-1.64-4.68,12.83,12.83,0,0,1,.47,2.15,22.57,22.57,0,0,0-2.28-3.4 c -4.63-5.72-10.45-9.38-13.67-13.38 a 105.46,105.46,0,0,0,9.53,11.17 c 7.61,7.8,7.77,18.41,3.77,26.36 a 20.31,20.31,0,0,1-12.82,10.3 c 4,.28,8-1.67,11.26-5-.48,1.51-.93,2.84-1.32,3.91-2.5,6.83-3,12.17,2.83,20.67 a 55.67,55.67,0,0,1,8.12,14.06,21.41,21.41,0,0,0-1.65,1.57,35.94,35.94,0,0,1-3.74,2.71,1.79,1.79,0,0,0-2.78,1.64 c -.59.32-1.18.64-1.77.93 a 59.21,59.21,0,0,1-9.57,3.71,1.82,1.82,0,0,0-1.53-.66,1.94,1.94,0,0,0-1.72,1.54 c -11,2.64-22.71,2.52-34.11,1 a 2,2,0,0,0-2.68-1.22,2,2,0,0,0-.82.7 c -5-.79-10-1.81-14.76-3-1.48-.36-2.95-.74-4.41-1.13 a 1.86,1.86,0,0,0-2.36-1.39,2,2,0,0,0-.85.51q-9.39-2.66-18.52-6.17 a 1.86,1.86,0,0,0-2-1.89,2,2,0,0,0-1.29.59 c -1.35-.54-2.7-1.1-4-1.68-.34-.15-.67-.33-1-.48,2.59-4.64,5.13-8.5,7.62-12.38,4.17-6.5,2.93-14.62.92-20.08 a 60.82,60.82,0,0,1-3.7-31.06 l 0,0,.2-1.67v0 a 16.56,16.56,0,0,1,13.1-26.72 h 0 l 1.17,0,.26,0,1,.07 h .11 c 5.83.55,11.74,2.79,14.87,3.95,3.58,1.33,10.25,3.25,15.75,1.58-4.76.08-9.82-1.23-17.08-3.94,5.41-8.18,6.07-17.3,5.83-22.82q-1.13-.27-2.25-.57 c 0,.27,0,.54.06.83.79,10.79-4.27,19.47-5.77,21.77 a 50.42,50.42,0,0,0-11.07-2.69,18.49,18.49,0,0,0-2.19-.21 l -.69,0 a 18.6,18.6,0,0,0-18.58,18.58,18.41,18.41,0,0,0,3.34,10.57 c -.66,3.67-2.25,14.95.91,25.1,3.83,12.33,8.19,18.93,0,29.83-18.82,25.06-17.91,48.27-17.91,66.83 a 40.39,40.39,0,0,0,1.05,9.13 h 0 a 40.17,40.17,0,0,0,4.32,11 l 0,.08q.4.7.83,1.37 l 0,.07 a 40.7,40.7,0,0,0,5,6.35 l .22.23 c .31.31.62.62.94.93 l .34.33.93.84.4.34.94.79.4.32q1.57,1.24,3.27,2.33 l .57.37.86.51.72.42.83.45.8.41.82.4.87.4.79.34,1,.39.71.27q.8.29,1.61.55 l .46.14 c .48.14,1,.28,1.44.41 l .67.16,1.17.27.74.15,1.14.2.76.12,1.17.15.73.08,1.3.1.63,0 c .65,0,1.29,0,1.95,0 h 0 c .71,0,1.41,0,2.11-.06 l .63,0,1.52-.13.64-.07q.92-.11,1.83-.26 l .22,0 c .67-.12,1.33-.25,2-.4 l .6-.14,1.41-.37.64-.18q.78-.23,1.55-.5 l .38-.13 c .62-.22,1.23-.46,1.83-.71 l .59-.25,1.25-.56.66-.32,1.25-.65.52-.28q.82-.46,1.62-1 l .61-.39,1-.69.68-.48.95-.71.63-.49q.7-.56,1.37-1.14 l .65-.59.77-.71.7-.68.67-.69.69-.73 c .23-.26.46-.52.69-.79 s .38-.43.56-.65 h 0 a 40.4,40.4,0,0,0,7.53-14.15,10.59,10.59,0,0,0,8-5.55,13.87,13.87,0,0,1-7.47,3.47 h 0 l -2,.09 h 0 a 38.57,38.57,0,0,1-12.74,20.09 l 0,0q-.75.62-1.52,1.2 l 0,0 a 38.51,38.51,0,0,1-3.3,2.2 l 0,0q-.79.47-1.6.89 l -.25.13q-.78.4-1.57.77 l -.15.07 a 38.15,38.15,0,0,1-3.57,1.42 l -.4.13q-.71.23-1.42.44 l -.47.13q-.79.22-1.59.4 l -.26.06q-.93.21-1.88.36 l -.43.06-1.46.2-.62.07-1.37.11-.59,0 c -.64,0-1.29.05-1.94.05 h 0 c -.62,0-1.23,0-1.84,0 l -.59,0-1.24-.09-.68-.07-1.13-.14-.69-.1-1.12-.2-.65-.13-1.24-.29-.5-.12q-.85-.22-1.68-.48 l -.44-.15-1.22-.41-.64-.24-1-.39-.68-.29-.91-.41-.69-.33-.89-.46-.65-.35-1-.55-.7-.42 c -.41-.25-.81-.51-1.21-.77 l -.66-.46-.73-.52-.69-.53-.65-.51-.7-.57-.6-.52-.69-.62-.53-.51-.7-.68-.33-.34q-.78-.81-1.51-1.65 l -.33-.38 c -.23-.28-.46-.56-.68-.84 l -.37-.48-.64-.86-.35-.49q-.31-.45-.61-.9 l -.3-.47 c -.21-.32-.41-.65-.61-1 l -.18-.32 a 38.35,38.35,0,0,1-1.9-3.7 l -.14-.31 c -.16-.37-.31-.75-.46-1.13 l -.18-.45q-.21-.55-.41-1.12 l -.16-.48 c -.13-.38-.25-.77-.37-1.15 l -.12-.42 c -.12-.41-.23-.83-.34-1.25 h 0 a 38.51,38.51,0,0,1-1.14-9.31 c -.12-2.23.11-9.86.22-13.18 l -.06.17 c .54-9.34,2.14-22.18,6.63-33.25.75-1.69,1.49-3.26,2.22-4.76q2.93,1.38,5.94,2.67 a 2.11,2.11,0,0,0,.5,1.19,1.68,1.68,0,0,0,2.55.09,179.53,179.53,0,0,0,19.17,6.56,1.88,1.88,0,0,0,.64,1.1,1.77,1.77,0,0,0,2.55-.24,166.25,166.25,0,0,0,20.23,4,2,2,0,0,0,1.56,1.53,1.77,1.77,0,0,0,1.95-1.12,139.47,139.47,0,0,0,14.88.84,110.52,110.52,0,0,0,20.78-1.79,2,2,0,0,0,3.17.28,2.37,2.37,0,0,0,.59-1.12,49.78,49.78,0,0,0,13-5.11,1.71,1.71,0,0,0,2.17-.34,2.06,2.06,0,0,0,.59-1.46,29.62,29.62,0,0,0,4.6-4.07 C 361,349.06,359,371.89,359,371.89 c 1.9-.54,1.9-3.71,1.9-12.16 C 360.95,321,346,306.54,343.65,302.42Z M 240.23,323.58q.84-1.66,1.67-3.19,2.37,1.1,4.8,2.15 a 12.83,12.83,0,0,0-.63,1.5,12.57,12.57,0,0,0-.51,1.86 c -1.36-.55-2.71-1.11-4.05-1.7 C 241.06,324,240.62,323.73,240.23,323.58Z m 6.94,1.39 c .22-.73.91-3.41,2.07-3.44,1.4,0,1.43,2.3,1.33,3.17 a 3.9,3.9,0,0,0,.18-.47,179.63,179.63,0,0,0,17.7,6.06,13.36,13.36,0,0,0-.49,1.59,13.07,13.07,0,0,0-.31,1.64q-9.22-2.63-18.19-6.07 a 3,3,0,0,0,.11-.48 C 247.43,330.56,246.45,327.42,247.17,325Z m 28.55,10.67 c -1.35-.32-2.69-.67-4-1,0-.08,0-.17,0-.25-1.92,3.87-3.09.35-2.47-2.17.67-2.71,3.47-4.72,3.33-.51,0-.08.06-.17.09-.25 a 166.88,166.88,0,0,0,18.51,3.7,11.6,11.6,0,0,0-.32,2.39 c 0,.32,0,.7,0,1.1 C 285.68,337.84,280.6,336.82,275.71,335.64Z M 295,339.21 c 0-.11,0-.22,0-.33-1.32,4.12-3,.8-2.76-1.78.26-2.79,2.63-5.18,3.37-1 a 3,3,0,0,0,0-.36,140.18,140.18,0,0,0,15.51.9 c 1.1,0,2.24,0,3.4-.07 a 14.64,14.64,0,0,1-.15,3.6 A 121,121,0,0,1,295,339.21Z m 34.79-1.2 c 0,.08,0,.16,0,.25 a 85.22,85.22,0,0,1-13.86,1.82,16.1,16.1,0,0,0,.12-3.59,89.11,89.11,0,0,0,13.25-1.63,5.08,5.08,0,0,0,.11.84 c .09-1.12.58-3.49,2.12-3,1,.33,1.29,1.74,1.63,3.51 C 333.7,339.14,331.19,341.9,329.76,338Z m 15.88-6.12 a 5.37,5.37,0,0,0,.26.57 c -1.19.65-2.41,1.26-3.66,1.8 a 65.46,65.46,0,0,1-8.06,2.87,14.3,14.3,0,0,0-.2-1.6,11,11,0,0,0-.43-1.7,51.34,51.34,0,0,0,11-4.26 c 0,.11.08.2.14.31-.84-4.35,2.13-3.87,3.44-.48 C 349.17,332.08,348.45,334.78,345.64,331.88Z m 5.15-2.62 c -.38.31-.79.59-1.19.87 a 12.64,12.64,0,0,0-.66-1.76,6.15,6.15,0,0,0-.67-1.12,30.34,30.34,0,0,0,4.58-3.94q.58,1.51,1.08,3 C 352.85,326.86,351.66,328.56,350.79,329.26Z"/>
    <path d="M 308,275.59 c -3.67,9.18-13.9,13.54-23.63,12.78 h 0 s 11.28,3.25,20.29-4.18,11.45-24.29-.59-36.44 C 304.08,247.76,313.73,261.28,308,275.59Z"/>
    <path d="M 313.92,327.46 c 1,.2,1.7-1.44.9-3.34 a 29,29,0,0,1,1.68-6.1 S 311.42,326.74,313.92,327.46Z"/>
    <path d="M 237.39,336.49 a 8.25,8.25,0,0,0,13.17-4.5 A 11,11,0,0,1,237.39,336.49Z"/>
    <path d="M 270.27,335.37 a 26.52,26.52,0,0,1,1.29-5.14 A 7.1,7.1,0,0,0,270.27,335.37Z"/>
    <path d="M 293.69,340.09 a 26.52,26.52,0,0,1,.52-5.27 A 7.1,7.1,0,0,0,293.69,340.09Z"/>
    <path d="M 248.06,327.85 a 26.54,26.54,0,0,1,1.67-5 A 7.1,7.1,0,0,0,248.06,327.85Z"/>
    <path d="M 331.38,339 a 7.1,7.1,0,0,0-.78-5.24 A 26.53,26.53,0,0,1,331.38,339Z"/>
    <path d="M 347.3,332.5 a 7.1,7.1,0,0,0-2-4.9 A 26.52,26.52,0,0,1,347.3,332.5Z"/>
  </g>
<script type="text/ecmascript" xlink:href="param.min.js"/> 
</svg>
