<?xml version="1.0"?>
<svg xmlns="http://www.w3.org/2000/svg" xmlns:xlink="http://www.w3.org/1999/xlink" viewBox="0 0 600 600">
  <title>one-piece-swimsuit-slender</title>
  <g id="skin-tone">
    <g id="skin-tone-2" data-name="skin-tone">
      <path d="M 325.23,338.24 a 41,41,0,0,1-2.29-14 c -.17-8.42,1.82-20.63,3.91-27.88,1-3.64,2.7-8.3,4.18-13.53,1.56-5.7,5.77-19.14.51-34.7 l -.54-2.19-.29.09-.38-1 a 10.82,10.82,0,0,0-4.81-16.9v-.27 a 11.12,11.12,0,0,0-9.24.73,3.12,3.12,0,0,0-1.56-.2,12,12,0,0,1-8.28-8.84,73.66,73.66,0,0,1-1.49-11.94 c -1.86.14-3.74.22-5.64.22q-2.61,0-5.17-.18 c -.13,2.22-.56,8.42-1.37,10.5-1,2.56-3.33,9-10.86,10.75-7.45-6.36-19.55-1.14-20,8 s 6,12.33,9.33,13.42 c -1.25,5.92,1.33,21,3.17,27.5 s 6.92,19.67,9.08,28.08 c 1.88,7.3-1.38,16.79-7,27.28 l .45.37 s -3.88,6.63-6.13,10.13 A 57.86,57.86,0,0,0,262.14,370 a 24.81,24.81,0,0,0,2.68,13,24,24,0,0,0,39.09,6.26,24,24,0,0,0,29.29-23.41 h 0 c .56-3.27-.43-10.1-2.18-13.23 a 140.8,140.8,0,0,1-6.12-14Z" fill="#f9d9c7"/>
    </g>
  </g>
  <g id="main-colour">
    <path d="M 271.19,258.3 s 10.92-2.42,13.75-9.67,1-15.67-1.17-20.42 a 30.92,30.92,0,0,0,4.08-2.33 s 1.33,3.75,3.25,9.17,4,12.92,10.92,15.75,12.17.42,14.17-3.08,2.33-12.5-1.08-19.83 a 9.48,9.48,0,0,1,3.5-1.25 s 3.08,5,3.92,9.08,2.67,10.75,10.25,15.42 a 66.36,66.36,0,0,1,.17,24.33 c -1.42,7.75-5.08,19.5-7.5,30 s -5.33,24.25,2.58,39.75 c -6.08,4.33-7.83,11.17-8.92,18.33 s -1.25,17.25-9.08,17.83 c 2.08-7.17,2.5-15.17-3.42-23.75 s -25-15.25-37.58-11 c 5.92-10,13.67-23,14.67-31.08 s -1.83-16.58-4-22.17 S 271.77,273.46,271.19,258.3Z" fill="param(main_colour)"/>
  </g>
  <g id="outline">
    <path d="M 286.61,225.63 s 3,7.13,4.38,11.38,5.21,15.33,15.63,15.75,15.81-8.75,9.06-26.06 c -.87.46-1.4.77-1.4.77 A 33.3,33.3,0,0,1,317.11,240 c 0,7.58-3.27,10.63-7.62,11.17-3.8.47-9.56-.21-14-7.58-3.66-6.08-4.71-13.08-7.54-19.08 C 287.27,225.13,286.61,225.63,286.61,225.63Z"/>
    <path d="M 318.94,225.73 s 2.67,3.58,4.85,11.65 a 24.33,24.33,0,0,0,8.13,12.75 l .31,1.75 a 21.85,21.85,0,0,1-7.62-8.37 c -3-5.75-3.48-12.65-7.48-17.4 A 8.33,8.33,0,0,1,318.94,225.73Z"/>
    <path d="M 314.27,227.46 a 11.27,11.27,0,0,1,4.67-1.73,13.7,13.7,0,0,1,1,1.6,18.53,18.53,0,0,0-2.58.79 c -1,.44-2,1.06-2.25,1.13 C 314.72,228.42,314.27,227.46,314.27,227.46Z"/>
    <path d="M 284.19,227 a 16.5,16.5,0,0,0,2.42-1.42 c .94.44.81,1.88.81,1.88 a 14.55,14.55,0,0,1-2.56,1.44 C 283.92,229.25,284.19,227,284.19,227Z"/>
    <path d="M 332.2,283.19 s -3.06,11.19-5.75,22.88 a 82,82,0,0,0-1.94,26.31,43.83,43.83,0,0,0,4.56,13.56 c -.87.31-2.37.75-5.94,6.13 s -4.19,21.81-6.06,25.19-4.75,4.88-8.44,5.38 c 4-10.12,1.94-19.94-5.62-27.56 s -27.25-10.69-36-6.81 c 1.25-2.75,5.13-9.12,6.94-12.5 s 9-15.5,8.94-23.25-3.44-16.25-5.31-21.69 a 188.79,188.79,0,0,1-5.69-18.75,105.24,105.24,0,0,1-1.79-14.63,10.53,10.53,0,0,0,2.29.82 c -.44,7.75,3.44,20.63,5,25.19 s 5.88,15.88,7.38,23.38-1.31,15-4,20.81-5.87,11.06-9.69,17.69 c 10.06-2.37,21.5,1.38,26.63,4.06 s 12.38,8.94,14,17.69-1,13.75-1,13.75 a 8.24,8.24,0,0,0,4.5-2.81 c 1.69-2.25,2.4-10.56,4.09-19.62 s 7.47-13,7.47-13 a 88,88,0,0,1-3.31-8.19 c -1.5-4.37-1.89-12.25-1.14-20.12 s 3.94-19.87,5.13-24.12,2.63-8.87,2.63-8.87 c .72-2.87,2.83-10.5,3-17.31 s 0-8.5-1.72-17.06 a 6.34,6.34,0,0,0,1.69,1.13,50.72,50.72,0,0,1,2.13,14.25 C 335.11,272.57,332.54,281.44,332.2,283.19Z"/>
    <path d="M 282.65,227.55 s 5.79,12,1.29,21.25 c -3.54,7.27-13.25,8.87-13.75,8.62,0,.75,0,1.88,0,1.88 a 20,20,0,0,0,12.17-5.58 c 6.42-5.92,5.83-19.58,1.83-26.67 A 8.17,8.17,0,0,1,282.65,227.55Z"/>
    <path d="M 312.68,228.5 a 30.4,30.4,0,0,1-6.13,3.13,26.5,26.5,0,0,0,10.12-3.19 l .54-.24 a 11.26,11.26,0,0,1,8.35-.33,9.19,9.19,0,0,0-8.93-1.63,9.91,9.91,0,0,0-2.38,1.26 c -7.61-3.24-7.75-12.23-8.24-19.94 l -1.48.12 a 41.37,41.37,0,0,0,1.15,11.62 A 12.61,12.61,0,0,0,312.68,228.5Z"/>
    <path d="M 333.22,251.47 a 41.29,41.29,0,0,0-5.35-11.18,46.62,46.62,0,0,1,3.59,10.08 C 332,250.7,332.55,251.07,333.22,251.47Z"/>
    <path d="M 265.92,249 a 13.19,13.19,0,0,0,4,2 c 0,2.46.08,4.91.23,7.36 l 2.14-.5 c -.08-2.77,0-5,0-6.29v-2.05 a 11.19,11.19,0,1,1,6.1-21.31 L 280,229 H 280 l 1,.55,3.34,1.84 c .17.09.36.18.54.26 l -.47-1.93 c -.19-.11-.38-.21-.56-.33,2.8-1,10.8-5.42,11.18-21.67 l -1.59-.11 c 0,1.76-.57,18-11.81,20.13 A 13.19,13.19,0,1,0,265.92,249Z"/>
    <path d="M 328.55,344.86 l -1.5,1.23 c 2.86,6,5.83,11.69,6.12,19.84.5-2,1.62-8.25-4.23-20.25Z"/>
    <path d="M 309.07,381 a 24,24,0,0,1-46.56-8.22v-2.33 a 51.2,51.2,0,0,1,3-13 A 71.54,71.54,0,0,1,269,349.3 c .48-.93,1.13-2.1,1.88-3.42 h -2.63 c -.86,1.57-1.64,3.09-2.31,4.53 a 59.88,59.88,0,0,0-5.31,20.08v.39 c -.08,1.22-.08,1.91-.08,1.91 a 26,26,0,0,0,50.08,9.79 c 2.14-.82,5.25-2.75,6.42-5.2 a 13.09,13.09,0,0,1-6.62,3.37 C 310.08,380.82,309.63,380.9,309.07,381Z"/>
    <path d="M 290.43,233.15 a 21.11,21.11,0,0,0,6.44-.24 A 28.5,28.5,0,0,1,290,232Z"/>
  </g>
<script type="text/ecmascript" xlink:href="param.min.js"/> 
</svg>
