<?xml version="1.0"?>
<svg xmlns="http://www.w3.org/2000/svg" xmlns:xlink="http://www.w3.org/1999/xlink" viewBox="0 0 600 600">
  <title>OA000-default-bottoms-slender</title>
  <g id="skin-tone">
    <path d="M 325.23,338.24 a 41,41,0,0,1-2.29-14 c -.17-8.42,1.82-20.63,3.91-27.88,1-3.64,2.7-8.3,4.18-13.53,1.56-5.7,5.77-19.14.51-34.7 l -.54-2.21-.29.09-.38-1 a 10.82,10.82,0,0,0-4.81-16.9v-.27 a 11.12,11.12,0,0,0-9.24.73,3.12,3.12,0,0,0-1.56-.2,12,12,0,0,1-8.28-8.84,73.66,73.66,0,0,1-1.49-11.94 c -1.86.14-3.74.22-5.64.22q-2.61,0-5.17-.18 c -.13,2.22-.56,8.42-1.37,10.5-1,2.56-3.33,9-10.86,10.75-7.45-6.36-19.55-1.14-20,7.95 s 6,12.33,9.33,13.42 c -1.25,5.92,1.33,21,3.17,27.5 s 6.92,19.67,9.08,28.08 c 1.88,7.3-1.38,16.79-7,27.28 l -.35.91 s -3.07,6.08-5.32,9.58 A 57.86,57.86,0,0,0,262.14,370 a 24.81,24.81,0,0,0,2.68,13,24,24,0,0,0,39.09,6.26,24,24,0,0,0,29.29-23.41 h 0 c .56-3.27-.43-10.1-2.18-13.23 a 140.8,140.8,0,0,1-6.12-14Z" fill="param(skin_tone)"/>
  </g>
  <g id="main-colour">
    <path d="M 273,339.57 s 15.58,6.83,24.5,8.83 c 9.68,2.17,15.58,2,20.58.25,1.67-.59,4.92-3.17,7.17-6.92 a 13.66,13.66,0,0,1,1.92,2.92,61.37,61.37,0,0,0-5.83,8.83 c -1.75,3.67-2.67,10-3.92,15.75 s -2.92,11.67-7.83,12.5 A 27,27,0,0,0,308,361.07 c -3.05-6.59-10.09-11.26-16.92-12.5-9.57-1.74-19.68,2.48-26.25,10.75 C 264.63,352.15,271,343.9,273,339.57Z" fill="param(main_colour)"/>
  </g>
  <g id="outline">
    <path d="M 260.51,372.76 a 57.69,57.69,0,0,1,5.42-22.38 c 5.5-11.83,18.62-28.5,16.79-41.33 s -9-25.33-11.46-40.33 a 112.55,112.55,0,0,1-1.33-18.33 h 2.55 s -.81,12,1.8,22.5,7.29,21.16,9.46,29.28,2.31,11.42-.46,19.63 c -3.12,9.25-11.43,22.1-14.18,27.47 s -6.83,15.88-6.58,23.5 C 262,373.5,260.51,372.76,260.51,372.76Z"/>
    <path d="M 324.47,318.79 c 1-11.72,5.23-25.16,8.13-37.27 a 14.84,14.84,0,0,1-2.81,1.72 c -5.92,20.79-10.18,35.49-7.32,50.47,2.62,12,10.25,18.83,10.73,32.17.5-2,1.62-8.25-4.23-20.25 C 326,339.5,323.16,333.7,324.47,318.79Z"/>
    <path d="M 309.07,381 a 24,24,0,0,1-46.56-8.22 s -.43-5.55,3.16-15.53 a 26,26,0,1,0,45.66,23.29 A 13.75,13.75,0,0,1,309.07,381Z"/>
    <path d="M 311.33,380.5 l 0-.06Z"/>
    <path d="M 310.83,317.93 s -5.07,8.72-2.58,9.44 c 1,.2,1.7-1.44.9-3.34 A 29,29,0,0,1,310.83,317.93Z"/>
    <path d="M 278.46,228.15 s 3,1.65,6,3.31,7.83,2.25,12.5,1.42 c -3.92,0-10.23-.88-14.74-4.73 A 7.09,7.09,0,0,0,278.46,228.15Z"/>
    <path d="M 293.57,207.64 c 0,1.77-.57,18.2-12,20.18-.18,1.23,1.49,1.9,1.49,1.9 s 11.68-2.25,12.15-22Z"/>
    <path d="M 316.63,228.44 a 26.5,26.5,0,0,1-10.12,3.19 c 3.75-1.17,9.06-5.28,10.12-5.39,1.88-.86,6.31-.86,8.89,1.64 a 11.26,11.26,0,0,0-8.35.33Z"/>
    <path d="M 306,207.56 l -1.48.12 a 41.37,41.37,0,0,0,1.15,11.62 c 1.67,7.92,8.08,9.64,8.08,9.64 a 3.06,3.06,0,0,0,1.42-1.05 C 306.62,225,306.51,215.58,306,207.56Z"/>
    <path d="M 311.12,230.57 s 2-.85,6.2-2.46"/>
    <path d="M 272.45,249.51 h 0 a 11.2,11.2,0,1,1,7.7-20.44 h 0 c 2.33,1.28,5.19,2.79,5.32,2.86 a 13.2,13.2,0,1,0-13,19.6 C 272.49,251,272.45,249.51,272.45,249.51Z"/>
    <path d="M 327.9,240.25 a 41.31,41.31,0,0,1,6.73,17.23 c 1.67,10.58-.86,19.54-2,24-1.57,2.57-2.81,1.72-2.81,1.72 S 338,260.57,327.9,240.25Z"/>
    <path d="M 325.33,340.9 A 16.61,16.61,0,0,1,312,349.48 c -8.11.53-15.67-2-22.75-4.17-6.88-2.12-15.83-7-15.83-7 L 265,353.07 l -1.25,9.46 s 10.75-19.87,32.25-11.75 c 11.95,4.51,14.13,16.13,14.38,20.38 s -.79,9.38-1.92,11.5 c 3.29.42,5.92-2.87,7.38-5.87,2.38-4.92,3.26-16.81,6-22.75 s 4.63-7.75,5.88-9.12 A 26.83,26.83,0,0,1,325.33,340.9Z M 318,362 c -1.12,5.75-2.12,17.25-7.37,18.75,1.75-6.62.73-13.28-1.37-19-3.17-8.62-24.5-25.46-44.5-3,1.58-8.25,6.83-16.25,8.92-18.17,0,0,23.75,9.58,33,10.08,5.31.29,13.54,1.17,19.21-8.42.22.71.64,1.87.78,2.29 C 321.32,351.65,319,356.82,318,362Z"/>
  </g>
<script type="text/ecmascript" xlink:href="param.min.js"/> 
</svg>
