<?xml version="1.0"?>
<svg xmlns="http://www.w3.org/2000/svg" xmlns:xlink="http://www.w3.org/1999/xlink" viewBox="0 0 600 600">
  <title>curvy-bottoms-template</title>
  <g id="skin-tone">
    <path d="M 340.22,247.62 h 0 l -.32-.33 a 12.1,12.1,0,0,0-6.08-19.09v-.44 h 0 c -4-2.33-11.4.46-11.4.46 s -.46,1.38-5.08-1.87-4-10.37-4-14.87 c 0-2.15,0-3.55-.13-4.74 a 73.83,73.83,0,0,1-27,0,5.78,5.78,0,0,0-.08.91 c 0,3.5,1.5,4.75-1.75,12 a 20.53,20.53,0,0,1-8.75,9.88,54.44,54.44,0,0,0-11-3.12,13.69,13.69,0,0,0-13.87,6.13 c -4.62,8.75-.12,15.63,3.88,18.5-2.75,22.25,4.62,35.5,7.25,40.25 s 4.63,8.5,5.5,15.13 c 1,9-3.4,15.42-8.75,22.56,3.78,1.78,10.38,4.31,21.32,7,19.37,4.74,45.54,7.67,57.29-6.68 a 48.23,48.23,0,0,1-2-5.25 c -2.5-7.75-1.58-17.67-.5-22.83 s 2.75-9.08,5.08-15.67 a 60.47,60.47,0,0,0,3.75-23.25 C 343.15,252.89,340.22,247.62,340.22,247.62Z" fill="param(skin_tone)"/>
  </g>
  <g id="main-colour">
    <path d="M 348,353.49 h 0 c 0-2.48-2.06-8.6-4.73-13.52-1.91-3.52-3.95-6.24-5.87-10.34 l -.44.47 c -.3-.49-.58-1-.85-1.51-6.92,8.46-20,10.62-37,9 A 149.22,149.22,0,0,1,260.29,328 l -.92,1.28-.81-.35 c -1.74,2.33-3.58,4.72-5.36,7.3-7.25,10.5-10.25,21.38-10.25,26.63 a 38,38,0,0,0,1.14,9.38 c 0,.25,0,.49,0,.74 a 32.84,32.84,0,0,0,55.6,23.68,32.85,32.85,0,0,0,48.74-28.75 C 348.56,366,348.25,355.26,348,353.49Z" fill="param(main_colour)"/>
  </g>
  <g id="fixed-colours">
    <circle cx="319.57" cy="352.59" r="1.94" fill="#a7a9ac"/>
  </g>
  <g id="outline">
    <path d="M 311.07,327.5 c 1,.2,1.7-1.44.9-3.34 a 29,29,0,0,1,1.68-6.1 S 308.58,326.79,311.07,327.5Z"/>
    <path d="M 320.07,230.6 c 2.78-1.1,6.48-4.42,13.74-2.83,0,0-3-2.13-8.11-1.29 a 16,16,0,0,0-4.2,1.47 c -2.12-.86-4.65-3.36-6.18-6.85-1.66-3.79-1.05-11.33-1.06-14.57q-1,.21-2.08.38 c -.09,2.67-.51,7.43.47,11.73,1.32,6.69,5,9.35,6.89,10.3-3.55,1.89-7.24,4.11-10.6,4 C 314.32,233.47,317.29,231.7,320.07,230.6Z"/>
    <path d="M 339.9,330.23 c -3.57-6.17-7-11.63-4.71-27.38,1.29-8,6-17.12,8.13-26.56,0,0,1.53-10.09.8-15.2-.56-6-2-11.31-3.9-13.47 l .08.21 c .12.33.38,1.09.69,2.22,1.2,4.53,3,15.26-.66,30.88-2.77,9.31-7.06,18.2-7.51,28.05 s .83,14.91,3,19.09 c -4.24,5.73-14.25,9.1-23.69,9.46-22.68,1.61-48.51-8.94-51.35-10.14 l 1.42-1.91 c 4.68-6.21,8.26-13,5.25-23.75-2.77-9.94-7.63-12.17-10.78-27.58 a 83.89,83.89,0,0,1-1.13-21.29v-.39 l 0-.38 c 0-.28,0-.43,0-.43 h 0 l .08-.93 a 12.7,12.7,0,0,1,6.69-23.5 h 0 c .43,0,.87,0,1.32.07 a 39.48,39.48,0,0,1,6.89,1.43 l .87.26.08,0 c 1.89.6,3.77,1.27,5.55,1.89,4.76,1.67,10.65,3.5,16.65,2.33-3.35.3-9-1-16.09-3.73,2.75-1.52,10.29-7.13,9.53-22.61 l -1.9-.35 c 0,.36,0,.75,0,1.22,0,0,1.78,14.42-10.12,20.74 h 0 a 42.52,42.52,0,0,0-10.9-3.13 l -.61-.07 a 11,11,0,0,0-1.2-.06,14.7,14.7,0,0,0-8.79,26.48,93.5,93.5,0,0,0,.74,20.13 c 1.75,12.27,5.5,17.39,9.12,24.39 s 6.07,17.93-2.62,28.16 C 244,344.21,242.19,357.87,242.07,373 a 34.84,34.84,0,0,0,68.22,10 c 2.05-.54,5.94-2.68,7.29-5.48,0,0-2,2.43-6.73,3.42v0 c -.47.07-1.23.18-2.1.24 A 32.85,32.85,0,0,1,244.07,373 h 0 s 0-1.47.06-3.58 c .22-5.22,1.13-15.19,4.8-23.46,1.54-3.73,6.7-11.46,10.81-17.17 A 120.5,120.5,0,0,0,312,339.09 c 15.5-.52,22.63-7.23,24.63-9.54.67,1.14,1.4,2.25,2.17,3.39,8.5,12.55,8.42,23.31,9.64,29.79 C 348.76,357,350.56,345.92,339.9,330.23Z"/>
    <path d="M 346.72,348.4 s -25,20-98.83-2 c -1.8,2.46-.75,2-.75,2 s 65.42,22,100.08,1.85 A 4,4,0,0,0,346.72,348.4Z"/>
    <path d="M 308.75,381.09 s 1.26-6.71,3-23.33 a 4.34,4.34,0,0,1,1.63.13 s -1.5,14.63-3.5,23.5 C 309.26,381.88,308.75,381.09,308.75,381.09Z"/>
    <path d="M 323.76,357.13 s -1.46,15.33-6.87,21.42 c -2.17,2.42-4.25,2.25-4.25,2.25 s 7.17-2.42,9.75-23.54 C 322.64,357,323.76,357.13,323.76,357.13Z"/>
    <path d="M 319.57,350.38 a 2.31,2.31,0,1,0,2.31,2.31 A 2.31,2.31,0,0,0,319.57,350.38Z m 0,3.88 a 1.56,1.56,0,1,1,1.56-1.56 A 1.56,1.56,0,0,1,319.57,354.25Z"/>
  </g>
<script type="text/ecmascript" xlink:href="param.min.js"/> 
</svg>
