<?xml version="1.0"?>
<svg xmlns="http://www.w3.org/2000/svg" xmlns:xlink="http://www.w3.org/1999/xlink" viewBox="0 0 600 600">
  <title>wedding-dress-slender</title>
  <g id="main-colour">
    <path d="M 271.37,260 s 4.57.45,11.54-2 c 8.54-3,23.83-9.33,39.5.17,5.67-7,15.33-8.33,15.33-8.33 s 10,6.83,11,12.67 c .71,4.16,4,19.83-18.83,25.33-2.67,9.67-3.54,14.17-5.54,22.83 s -1.5,13.67,5.67,24.67,20.33,28.17,35.67,58,26.83,63.5,31.83,96.5,4.17,46,4.17,46-5,8.83-10.17,12 c .17,6.17.83,13.5.83,13.5 s -2.17,3.83-7.83,3.83-17.67-1-20.5,2 l -.67,3.5 a 30,30,0,0,1-12,11.33 C 343,586.38,335,583.88,330,583.38 s -9.5-2.33-12.33-.83 c -.17-2.33-.17-3-.17-3 a 32.72,32.72,0,0,0-12.17,3.83 c -5.83,3.33-19,7-25,1.33 a 37.94,37.94,0,0,0-.5-4.83,58.49,58.49,0,0,0-14-2 c -7,0-18.83,4.5-30.33-7-2-6.83-2.5-9.5-2.5-9.5 s -7.33-4.33-13.5-5.17-14.67-4.83-16.17-9.83 c -.83-10.83-1.33-42.33,4.5-68.83 s 18.33-62.83,30.5-88 a 361.59,361.59,0,0,1,33.35-55.83 c 8.65-11.83,12.15-18.5,11.48-25.5 s -3-14.33-5.83-21.83 S 271.2,268.38,271.37,260Z" fill="param(main_colour)"/>
  </g>
  <g id="accent-colour-1">
    <path d="M 323.16,258.13 s 7.63,7.13,1.75,22.25 S 311.53,316,311.53,344.63 c -.12,1-1.62.38-1.62.38 a 248.36,248.36,0,0,1,2.5-26.5 c 2.13-14,7.13-27.62,10.25-37 s 4.38-16.25-1.12-22.87 A 3.27,3.27,0,0,1,323.16,258.13Z" fill="param(accent_colour_1)"/>
    <path d="M 329.91,253.13 s 10.75,10.75.5,34.13 h 1.38 s 10.88-20.75-.75-34.87 A 1.74,1.74,0,0,0,329.91,253.13Z" fill="param(accent_colour_1)"/>
    <path d="M 337,250.38 s 9.13,9.88,7.88,19.75-4.37,13.63-4.37,13.63 l 1.38-.5 s 4-5.25,4.25-15-7.87-17.87-7.87-17.87Z" fill="param(accent_colour_1)"/>
    <path d="M 308.28,254.38 s 5.62,13.21.63,30.13 c -5.87,19.88-7.62,41.75-7.12,50.63 a 7.81,7.81,0,0,1-1.37-.62 s -1.37-10.25,2.13-30.37,10.5-30,4-50Z" fill="param(accent_colour_1)"/>
    <path d="M 293.91,254.75 s 0,14.38,1.88,35.13 a 125.44,125.44,0,0,1-3.25,39.5 l -1.12-.62 s 3.5-16.87,3.25-28.5-2.62-30.5-2.5-45.12 C 292.41,254.75,293.91,254.75,293.91,254.75Z" fill="param(accent_colour_1)"/>
    <path d="M 281,259.13 s 1,18,4.38,30.5,4.75,27.25-1.37,35.63 a 5.67,5.67,0,0,1-1.25-.12 s 4.38-7.62,4.13-15.37 a 99,99,0,0,0-3.5-21.62 c -1.62-6.12-4-24.37-4.25-28.5 A 2.91,2.91,0,0,1,281,259.13Z" fill="param(accent_colour_1)"/>
    <circle cx="286.47" cy="224.82" r="2.58" fill="param(accent_colour_1)"/>
    <circle cx="290.76" cy="227.59" r="2.58" fill="param(accent_colour_1)"/>
    <circle cx="295.84" cy="229.57" r="2.58" fill="param(accent_colour_1)"/>
    <circle cx="301.06" cy="229.96" r="2.58" fill="param(accent_colour_1)"/>
    <circle cx="306.11" cy="229.1" r="2.58" fill="param(accent_colour_1)"/>
    <circle cx="310.43" cy="226.19" r="2.58" fill="param(accent_colour_1)"/>
    <circle cx="315.42" cy="228.19" r="2.58" fill="param(accent_colour_1)"/>
    <circle cx="311.82" cy="231.86" r="2.58" fill="param(accent_colour_1)"/>
    <circle cx="307.42" cy="234.57" r="2.58" fill="param(accent_colour_1)"/>
    <circle cx="310.07" cy="242.66" r="2.58" fill="param(accent_colour_1)"/>
    <circle cx="305.74" cy="239.67" r="2.58" fill="param(accent_colour_1)"/>
    <circle cx="311.64" cy="237.69" r="2.58" fill="param(accent_colour_1)"/>
    <circle cx="301.91" cy="235.36" r="2.58" fill="param(accent_colour_1)"/>
    <circle cx="296.53" cy="235.07" r="2.58" fill="param(accent_colour_1)"/>
    <circle cx="291.7" cy="233.15" r="2.58" fill="param(accent_colour_1)"/>
    <circle cx="286.37" cy="230.74" r="2.58" fill="param(accent_colour_1)"/>
    <circle cx="281.53" cy="227.74" r="2.58" fill="param(accent_colour_1)"/>
    <circle cx="281.9" cy="274.5" r="2.33" fill="param(accent_colour_1)"/>
    <circle cx="294.43" cy="280.88" r="2.33" fill="param(accent_colour_1)"/>
    <circle cx="292.95" cy="265.88" r="2.33" fill="param(accent_colour_1)"/>
    <circle cx="308.57" cy="259.55" r="2.33" fill="param(accent_colour_1)"/>
    <circle cx="309.72" cy="275.1" r="2.33" fill="param(accent_colour_1)"/>
    <circle cx="325.88" cy="265.95" r="2.33" fill="param(accent_colour_1)"/>
    <circle cx="332.74" cy="256.63" r="2.33" fill="param(accent_colour_1)"/>
    <circle cx="344.86" cy="264.63" r="2.33" fill="param(accent_colour_1)"/>
    <circle cx="335.41" cy="272.88" r="2.33" fill="param(accent_colour_1)"/>
    <circle cx="323.24" cy="281.3" r="2.33" fill="param(accent_colour_1)"/>
    <circle cx="295.43" cy="297.55" r="2.33" fill="param(accent_colour_1)"/>
    <circle cx="285.18" cy="291.38" r="2.33" fill="param(accent_colour_1)"/>
    <circle cx="288.07" cy="305.63" r="2.33" fill="param(accent_colour_1)"/>
    <circle cx="286.07" cy="320.05" r="2.33" fill="param(accent_colour_1)"/>
    <circle cx="294.61" cy="313.21" r="2.33" fill="param(accent_colour_1)"/>
    <circle cx="317.74" cy="298.13" r="2.33" fill="param(accent_colour_1)"/>
    <circle cx="321.36" cy="320.88" r="2.33" fill="param(accent_colour_1)"/>
    <circle cx="314.24" cy="312.71" r="2.33" fill="param(accent_colour_1)"/>
    <circle cx="303.07" cy="305.46" r="2.33" fill="param(accent_colour_1)"/>
    <circle cx="301.07" cy="321.38" r="2.33" fill="param(accent_colour_1)"/>
    <circle cx="312.61" cy="330.38" r="2.33" fill="param(accent_colour_1)"/>
  </g>
  <g id="outline">
    <path d="M 295.56,294.82 h -.24 a 2.51,2.51,0,0,0-2.5,2.5v.24 a 2.51,2.51,0,0,0,2.5,2.5 h .24 a 2.51,2.51,0,0,0,2.5-2.5v-.24 A 2.51,2.51,0,0,0,295.56,294.82Z m 1.65,2.7 a 1.69,1.69,0,0,1-1.69,1.69 h -.17 a 1.69,1.69,0,0,1-1.69-1.69v-.17 a 1.69,1.69,0,0,1,1.69-1.69 h .17 a 1.69,1.69,0,0,1,1.69,1.69Z"/>
    <path d="M 294.33,278.2 a 2.51,2.51,0,0,0-2.5,2.5v.24 a 2.51,2.51,0,0,0,2.5,2.5 h .24 a 2.51,2.51,0,0,0,2.5-2.5v-.24 a 2.51,2.51,0,0,0-2.5-2.5Z m 1.89,2.54v.17 a 1.69,1.69,0,0,1-1.69,1.69 h -.17 a 1.69,1.69,0,0,1-1.69-1.69v-.17 a 1.69,1.69,0,0,1,1.69-1.69 h .17 A 1.69,1.69,0,0,1,296.22,280.74Z"/>
    <path d="M 292.85,268.45 h .24 a 2.51,2.51,0,0,0,2.5-2.5v-.24 a 2.51,2.51,0,0,0-2.5-2.5 h -.24 a 2.51,2.51,0,0,0-2.5,2.5v.24 A 2.51,2.51,0,0,0,292.85,268.45Z m -1.65-2.7 a 1.69,1.69,0,0,1,1.69-1.69 h .17 a 1.69,1.69,0,0,1,1.69,1.69v.17 a 1.69,1.69,0,0,1-1.69,1.69 h -.17 a 1.69,1.69,0,0,1-1.69-1.69Z"/>
    <path d="M 286,322.53 h .24 a 2.51,2.51,0,0,0,2.5-2.5v-.24 a 2.51,2.51,0,0,0-2.5-2.5 H 286 a 2.51,2.51,0,0,0-2.5,2.5V320 A 2.51,2.51,0,0,0,286,322.53Z m -1.65-2.7 a 1.69,1.69,0,0,1,1.69-1.69 h .17 a 1.69,1.69,0,0,1,1.69,1.69V320 a 1.69,1.69,0,0,1-1.69,1.69 H 286 a 1.69,1.69,0,0,1-1.69-1.69Z"/>
    <path d="M 285.45,305.41v.24 a 2.51,2.51,0,0,0,2.5,2.5 h .24 a 2.51,2.51,0,0,0,2.5-2.5v-.24 a 2.51,2.51,0,0,0-2.5-2.5 h -.24 A 2.51,2.51,0,0,0,285.45,305.41Z m .85,0 a 1.69,1.69,0,0,1,1.69-1.69 h .17 a 1.69,1.69,0,0,1,1.69,1.69v.17 a 1.69,1.69,0,0,1-1.69,1.69 H 288 a 1.69,1.69,0,0,1-1.69-1.69Z"/>
    <path d="M 285.31,293.9 a 2.51,2.51,0,0,0,2.5-2.5v-.24 a 2.51,2.51,0,0,0-2.5-2.5 h -.24 a 2.51,2.51,0,0,0-2.5,2.5v.24 a 2.51,2.51,0,0,0,2.5,2.5Z m -1.89-2.54v-.17 a 1.69,1.69,0,0,1,1.69-1.69 h .17 A 1.69,1.69,0,0,1,287,291.2v.17 a 1.69,1.69,0,0,1-1.69,1.69 h -.17 A 1.69,1.69,0,0,1,283.41,291.36Z"/>
    <path d="M 284.55,274.57v-.24 a 2.51,2.51,0,0,0-2.5-2.5 h -.24 a 2.51,2.51,0,0,0-2.5,2.5v.24 a 2.51,2.51,0,0,0,2.5,2.5 H 282 A 2.51,2.51,0,0,0,284.55,274.57Z m -.85,0 a 1.69,1.69,0,0,1-1.69,1.69 h -.17 a 1.69,1.69,0,0,1-1.69-1.69v-.17 a 1.69,1.69,0,0,1,1.69-1.69 H 282 a 1.69,1.69,0,0,1,1.69,1.69Z"/>
    <path d="M 294.75,310.6 h -.24 a 2.51,2.51,0,0,0-2.5,2.5v.24 a 2.51,2.51,0,0,0,2.5,2.5 h .24 a 2.51,2.51,0,0,0,2.5-2.5v-.24 A 2.51,2.51,0,0,0,294.75,310.6Z m 1.65,2.7 a 1.69,1.69,0,0,1-1.69,1.69 h -.17 a 1.69,1.69,0,0,1-1.69-1.69v-.17 a 1.69,1.69,0,0,1,1.69-1.69 h .17 a 1.69,1.69,0,0,1,1.69,1.69Z"/>
    <path d="M 308.47,262.09 h .24 a 2.51,2.51,0,0,0,2.5-2.5v-.24 a 2.51,2.51,0,0,0-2.5-2.5 h -.24 a 2.51,2.51,0,0,0-2.5,2.5v.24 A 2.51,2.51,0,0,0,308.47,262.09Z m -1.65-2.7 a 1.69,1.69,0,0,1,1.69-1.69 h .17 a 1.69,1.69,0,0,1,1.69,1.69v.17 a 1.69,1.69,0,0,1-1.69,1.69 h -.17 a 1.69,1.69,0,0,1-1.69-1.69Z"/>
    <path d="M 312.8,327.92 h -.24 a 2.51,2.51,0,0,0-2.5,2.5v.24 a 2.51,2.51,0,0,0,2.5,2.5 h .24 a 2.51,2.51,0,0,0,2.5-2.5v-.24 A 2.51,2.51,0,0,0,312.8,327.92Z m 1.65,2.7 a 1.69,1.69,0,0,1-1.69,1.69 h -.17 a 1.69,1.69,0,0,1-1.69-1.69v-.17 a 1.69,1.69,0,0,1,1.69-1.69 h .17 a 1.69,1.69,0,0,1,1.69,1.69Z"/>
    <path d="M 301.25,318.75 H 301 a 2.51,2.51,0,0,0-2.5,2.5v.24 A 2.51,2.51,0,0,0,301,324 h .24 a 2.51,2.51,0,0,0,2.5-2.5v-.24 A 2.51,2.51,0,0,0,301.25,318.75Z m 1.65,2.7 a 1.69,1.69,0,0,1-1.69,1.69 H 301 a 1.69,1.69,0,0,1-1.69-1.69v-.17 A 1.69,1.69,0,0,1,301,319.6 h .17 a 1.69,1.69,0,0,1,1.69,1.69Z"/>
    <path d="M 315.2,298v.24 a 2.51,2.51,0,0,0,2.5,2.5 h .24 a 2.51,2.51,0,0,0,2.5-2.5V298 a 2.51,2.51,0,0,0-2.5-2.5 h -.24 A 2.51,2.51,0,0,0,315.2,298Z m .85,0 a 1.69,1.69,0,0,1,1.69-1.69 h .17 a 1.69,1.69,0,0,1,1.69,1.69v.17 a 1.69,1.69,0,0,1-1.69,1.69 h -.17 A 1.69,1.69,0,0,1,316,298.2Z"/>
    <path d="M 332.6,259.2 h .24 a 2.51,2.51,0,0,0,2.5-2.5v-.24 a 2.51,2.51,0,0,0-2.5-2.5 h -.24 a 2.51,2.51,0,0,0-2.5,2.5v.24 A 2.51,2.51,0,0,0,332.6,259.2Z m -1.65-2.7 a 1.69,1.69,0,0,1,1.69-1.69 h .17 a 1.69,1.69,0,0,1,1.69,1.69v.17 a 1.69,1.69,0,0,1-1.69,1.69 h -.17 a 1.69,1.69,0,0,1-1.69-1.69Z"/>
    <path d="M 314.32,310.1 h -.24 a 2.51,2.51,0,0,0-2.5,2.5v.24 a 2.51,2.51,0,0,0,2.5,2.5 h .24 a 2.51,2.51,0,0,0,2.5-2.5v-.24 A 2.51,2.51,0,0,0,314.32,310.1Z m 1.65,2.7 a 1.69,1.69,0,0,1-1.69,1.69 h -.17 a 1.69,1.69,0,0,1-1.69-1.69v-.17 a 1.69,1.69,0,0,1,1.69-1.69 h .17 a 1.69,1.69,0,0,1,1.69,1.69Z"/>
    <path d="M 323.06,283.86 h .24 a 2.51,2.51,0,0,0,2.5-2.5v-.24 a 2.51,2.51,0,0,0-2.5-2.5 h -.24 a 2.51,2.51,0,0,0-2.5,2.5v.24 A 2.51,2.51,0,0,0,323.06,283.86Z m -1.65-2.7 a 1.69,1.69,0,0,1,1.69-1.69 h .17 a 1.69,1.69,0,0,1,1.69,1.69v.17 a 1.69,1.69,0,0,1-1.69,1.69 h -.17 a 1.69,1.69,0,0,1-1.69-1.69Z"/>
    <path d="M 303.19,302.83 h -.24 a 2.51,2.51,0,0,0-2.5,2.5v.24 a 2.51,2.51,0,0,0,2.5,2.5 h .24 a 2.51,2.51,0,0,0,2.5-2.5v-.24 A 2.51,2.51,0,0,0,303.19,302.83Z m 1.65,2.7 a 1.69,1.69,0,0,1-1.69,1.69 H 303 a 1.69,1.69,0,0,1-1.69-1.69v-.17 a 1.69,1.69,0,0,1,1.69-1.69 h .17 a 1.69,1.69,0,0,1,1.69,1.69Z"/>
    <path d="M 325.72,268.5 H 326 a 2.51,2.51,0,0,0,2.5-2.5v-.24 a 2.51,2.51,0,0,0-2.5-2.5 h -.24 a 2.51,2.51,0,0,0-2.5,2.5V266 A 2.51,2.51,0,0,0,325.72,268.5Z m -1.65-2.7 a 1.69,1.69,0,0,1,1.69-1.69 h .17 a 1.69,1.69,0,0,1,1.69,1.69V266 a 1.69,1.69,0,0,1-1.69,1.69 h -.17 a 1.69,1.69,0,0,1-1.69-1.69Z"/>
    <path d="M 332.79,272.75V273 a 2.51,2.51,0,0,0,2.5,2.5 h .24 A 2.51,2.51,0,0,0,338,273v-.24 a 2.51,2.51,0,0,0-2.5-2.5 h -.24 A 2.51,2.51,0,0,0,332.79,272.75Z m 2.7-1.65 a 1.69,1.69,0,0,1,1.69,1.69V273 a 1.69,1.69,0,0,1-1.69,1.69 h -.17 a 1.69,1.69,0,0,1-1.69-1.69v-.17 a 1.69,1.69,0,0,1,1.69-1.69Z"/>
    <path d="M 344.75,267.24 H 345 a 2.51,2.51,0,0,0,2.5-2.5v-.24 A 2.51,2.51,0,0,0,345,262 h -.24 a 2.51,2.51,0,0,0-2.5,2.5v.24 A 2.51,2.51,0,0,0,344.75,267.24Z m -1.65-2.7 a 1.69,1.69,0,0,1,1.69-1.69 H 345 a 1.69,1.69,0,0,1,1.69,1.69v.17 a 1.69,1.69,0,0,1-1.69,1.69 h -.17 a 1.69,1.69,0,0,1-1.69-1.69Z"/>
    <path d="M 309.54,272.42 a 2.51,2.51,0,0,0-2.5,2.5v.24 a 2.51,2.51,0,0,0,2.5,2.5 h .24 a 2.51,2.51,0,0,0,2.5-2.5v-.24 a 2.51,2.51,0,0,0-2.5-2.5Z m 1.89,2.54v.17 a 1.69,1.69,0,0,1-1.69,1.69 h -.17 a 1.69,1.69,0,0,1-1.69-1.69V275 a 1.69,1.69,0,0,1,1.69-1.69 h .17 A 1.69,1.69,0,0,1,311.43,275Z"/>
    <path d="M 281.43,230.67 h .27 a 2.8,2.8,0,0,0,1.79-.66,2.81,2.81,0,0,0-.06.55v.27 a 2.84,2.84,0,0,0,2.83,2.83 h .27 a 2.82,2.82,0,0,0,2.28-1.17,2.79,2.79,0,0,0,0,.48v.27 a 2.84,2.84,0,0,0,2.83,2.83 h .27 a 2.8,2.8,0,0,0,1.76-.63,2.83,2.83,0,0,0,2.8,2.55 h .27 a 2.83,2.83,0,0,0,2.48-1.49,2.84,2.84,0,0,0,2.62,1.78 h .27 a 2.79,2.79,0,0,0,1.16-.25,2.8,2.8,0,0,0-.42,1.47v.27 a 2.84,2.84,0,0,0,2.83,2.83 h .27 a 2.79,2.79,0,0,0,1.24-.3 c 0,.06,0,.12,0,.19v.27 a 2.84,2.84,0,0,0,2.83,2.83 h .27 a 2.84,2.84,0,0,0,2.83-2.83v-.27 a 2.81,2.81,0,0,0-.76-1.91,2.84,2.84,0,0,0,2.33-2.78v-.27 a 2.84,2.84,0,0,0-2.25-2.77,2.83,2.83,0,0,0,2.44-2.79v-.27 a 2.79,2.79,0,0,0-.08-.62,2.82,2.82,0,0,0,.57.06 h .27 a 2.84,2.84,0,0,0,2.83-2.83V228 a 2.84,2.84,0,0,0-2.83-2.83 h -.27 a 2.81,2.81,0,0,0-1.9.75,2.83,2.83,0,0,0-2.82-2.74 h -.27 A 2.84,2.84,0,0,0,307.5,226v.27 s 0,.06,0,.09 a 2.79,2.79,0,0,0-1.23-.29 H 306 a 2.83,2.83,0,0,0-2.64,1.85,2.81,2.81,0,0,0-2.13-1 H 301 a 2.83,2.83,0,0,0-2.36,1.29,2.83,2.83,0,0,0-2.57-1.67 h -.27 a 2.82,2.82,0,0,0-2,.82,2.84,2.84,0,0,0-2.83-2.8 h -.27 a 2.79,2.79,0,0,0-1.18.27v-.21 a 2.84,2.84,0,0,0-2.83-2.83 h -.27 a 2.84,2.84,0,0,0-2.83,2.83v.27 a 2.81,2.81,0,0,0,.06.56,2.81,2.81,0,0,0-1.89-.75 h -.27 a 2.84,2.84,0,0,0-2.83,2.83v.27 A 2.84,2.84,0,0,0,281.43,230.67Z m 3-3.66 a 2.81,2.81,0,0,0,1.76.73,2.8,2.8,0,0,0-1.76.65,2.81,2.81,0,0,0,.06-.55v-.27 A 2.81,2.81,0,0,0,284.48,227Z m 3.39,1.08 a 2.79,2.79,0,0,0-1.2-.34,2.79,2.79,0,0,0,1.16-.27v.21 A 2.77,2.77,0,0,0,287.87,228.08Z m .54,2.71 a 1.92,1.92,0,0,1-1.91,1.91 h -.19 a 1.92,1.92,0,0,1-1.91-1.91v-.19 a 1.92,1.92,0,0,1,1.91-1.91 h .19 a 1.92,1.92,0,0,1,1.91,1.91Z m .91.53 a 2.79,2.79,0,0,0,0-.48v-.27 a 2.77,2.77,0,0,0,0-.39,2.78,2.78,0,0,0,1,.31 A 2.85,2.85,0,0,0,289.32,231.32Z m 5.35,1.38 a 2.79,2.79,0,0,0-.08-.45,2.8,2.8,0,0,0,.5.17 A 2.84,2.84,0,0,0,294.67,232.7Z M 293,230.4 a 2.8,2.8,0,0,0-.79-.21,2.85,2.85,0,0,0,.68-.48 A 2.78,2.78,0,0,0,293,230.4Z m -1.19,4.72 h -.19 a 1.92,1.92,0,0,1-1.91-1.91V233 a 1.92,1.92,0,0,1,1.91-1.91 h .19 a 1.92,1.92,0,0,1,1.91,1.91v.19 A 1.92,1.92,0,0,1,291.83,235.12Z m 6.74,0 a 1.92,1.92,0,0,1-1.91,1.91 h -.19 a 1.92,1.92,0,0,1-1.91-1.91v-.19 a 1.92,1.92,0,0,1,1.91-1.91 h .19 a 1.92,1.92,0,0,1,1.91,1.91Z m 3.46,2.2 h -.19 a 1.92,1.92,0,0,1-1.91-1.91v-.19 a 1.92,1.92,0,0,1,1.91-1.91 H 302 a 1.92,1.92,0,0,1,1.91,1.91v.19 A 1.92,1.92,0,0,1,302,237.33Z m 1.84-6.29 a 2.81,2.81,0,0,0,1.94,1,2.84,2.84,0,0,0-1.27,1.82,2.83,2.83,0,0,0-1.81-1.39 A 2.84,2.84,0,0,0,303.87,231Z m 5.23-2.2 a 2.79,2.79,0,0,0,1.23.29 h .22 a 2.83,2.83,0,0,0-1.65,2.56v.21 a 2.79,2.79,0,0,0-1.11-.31,2.83,2.83,0,0,0,1.32-2.39v-.27 S 309.1,228.86,309.1,228.83Z m 3.46.08 a 2.82,2.82,0,0,0-.57-.06 h -.22 a 2.84,2.84,0,0,0,.72-.48 A 2.81,2.81,0,0,0,312.56,228.92Z m -4.69,8.55 a 2.8,2.8,0,0,0,.86-.22 c 0,.09,0,.18,0,.27v.27 a 2.81,2.81,0,0,0,.76,1.91,2.79,2.79,0,0,0-.74.25 c 0-.06,0-.12,0-.19v-.27 A 2.82,2.82,0,0,0,307.87,237.47Z m -3-1.45 a 2.84,2.84,0,0,0,.51.68,2.8,2.8,0,0,0-.88.23 A 2.8,2.8,0,0,0,304.85,236Z m 2.51-3.49 h .19 a 1.92,1.92,0,0,1,1.91,1.91v.19 a 1.92,1.92,0,0,1-1.91,1.91 h -.19 a 1.92,1.92,0,0,1-1.91-1.91v-.19 A 1.92,1.92,0,0,1,307.36,232.53Z m 3.06,2.14v-.21 a 2.78,2.78,0,0,0,.72.27,2.8,2.8,0,0,0-.75.21 C 310.4,234.85,310.42,234.76,310.42,234.67Z m -4.55,7 h -.19 a 1.92,1.92,0,0,1-1.91-1.91v-.19 a 1.92,1.92,0,0,1,1.91-1.91 h .19 a 1.92,1.92,0,0,1,1.91,1.91v.19 A 1.92,1.92,0,0,1,305.87,241.64Z m 6.24,1.08 a 1.92,1.92,0,0,1-1.91,1.91 H 310 a 1.92,1.92,0,0,1-1.91-1.91v-.19 a 1.92,1.92,0,0,1,1.91-1.91 h .19 a 1.92,1.92,0,0,1,1.91,1.91Z m 1.57-5.16v.19 a 1.92,1.92,0,0,1-1.91,1.91 h -.19 a 1.92,1.92,0,0,1-1.91-1.91v-.19 a 1.92,1.92,0,0,1,1.91-1.91 h .19 A 1.92,1.92,0,0,1,313.68,237.56Z m .19-5.64 a 1.92,1.92,0,0,1-1.91,1.91 h -.19 a 1.92,1.92,0,0,1-1.91-1.91v-.19 a 1.92,1.92,0,0,1,1.91-1.91 H 312 a 1.92,1.92,0,0,1,1.91,1.91Z m -.41-3.86 a 1.92,1.92,0,0,1,1.91-1.91 h .19 a 1.92,1.92,0,0,1,1.91,1.91v.19 a 1.92,1.92,0,0,1-1.91,1.91 h -.19 a 1.92,1.92,0,0,1-1.91-1.91Z m -5-2 a 1.92,1.92,0,0,1,1.91-1.91 h .19 a 1.92,1.92,0,0,1,1.91,1.91v.19 a 1.92,1.92,0,0,1-1.91,1.91 h -.19 a 1.92,1.92,0,0,1-1.91-1.91Z m -4.32,2.9 a 1.92,1.92,0,0,1,1.91-1.91 h .19 a 1.92,1.92,0,0,1,1.91,1.91v.19 a 1.92,1.92,0,0,1-1.91,1.91 H 306 a 1.92,1.92,0,0,1-1.91-1.91Z m -5.05.86 a 1.92,1.92,0,0,1,1.91-1.91 h .19 a 1.92,1.92,0,0,1,1.91,1.91V230 a 1.92,1.92,0,0,1-1.91,1.91 H 301 a 1.92,1.92,0,0,1-1.91-1.91Z m -.71,1.39 a 2.84,2.84,0,0,0,1.91,1.59,2.85,2.85,0,0,0-1,1,2.84,2.84,0,0,0-2-1.7 A 2.85,2.85,0,0,0,298.38,231.22Z m -4.51-1.78 a 1.92,1.92,0,0,1,1.91-1.91 H 296 a 1.92,1.92,0,0,1,1.91,1.91v.19 a 1.92,1.92,0,0,1-1.91,1.91 h -.19 a 1.92,1.92,0,0,1-1.91-1.91Z m -3.17-3.89 h .19 a 1.92,1.92,0,0,1,1.91,1.91v.19 a 1.92,1.92,0,0,1-1.91,1.91 h -.19 a 1.92,1.92,0,0,1-1.91-1.91v-.19 A 1.92,1.92,0,0,1,290.7,225.55Z m -6.2-.86 a 1.92,1.92,0,0,1,1.91-1.91 h .19 a 1.92,1.92,0,0,1,1.91,1.91v.19 a 1.92,1.92,0,0,1-1.91,1.91 h -.19 a 1.92,1.92,0,0,1-1.91-1.91Z m -4.94,2.92 a 1.92,1.92,0,0,1,1.91-1.91 h .19 a 1.92,1.92,0,0,1,1.91,1.91v.19 a 1.92,1.92,0,0,1-1.91,1.91 h -.19 a 1.92,1.92,0,0,1-1.91-1.91Z"/>
    <path d="M 399.72,492.88 c -4.33-27.67-11.21-51.75-17.58-67.62 S 362.26,381,354.39,369 s -21-30.75-24.25-35.62-6.5-11.37-5-20.62,4.14-17.71,5.77-24.46 c 18.08-1.58,21.58-17.58,19.25-25.25-2.48-8.16-8.92-11.33-12.48-13.92-10.87,1.38-15.9,8.25-15.9,8.25 A 39.5,39.5,0,0,0,306,252.13 c -8-.69-16.37,2.13-24.12,5.38 s -11.73,1-11.73,1 c 0,11.13,5.06,26.38,8.9,37.21 s 4.17,14.17.67,22.83-16.5,22.17-27.33,40.83-32.17,61-41.5,99.33-11.67,68.33-8.5,89 c 4.5,6.67,13,9.17,19.17,10.5 a 32.88,32.88,0,0,1,10.39,4.71,81.07,81.07,0,0,0,2.61,8.63 c 8.17,9.17,19.17,9.5,27.83,8.33,6.47-.87,13,.76,15.94,1.65.39,2.51.56,4,.56,4 s 6.33,5.83,16.67,3.33 c 9.44-2.28,14.57-6.92,20.34-7.71 a 34,34,0,0,1-.5,3.37 c 6.17-3,12.67-.17,19.33,1.17 a 29.62,29.62,0,0,0,30.33-14.5 c 0-.94,0-1.89,0-2.83,2.42-.93,8.09-2.77,13.29-2,6.83,1,12,0,15-4.83,0-3-.11-7-.32-11.43,6.72-5.56,10.15-13.9,10.15-13.9 S 404.05,520.54,399.72,492.88Z M 281,293.63 c -2.25-6-7.62-20.75-8.5-32.62,8.5.25,17.6-5.57,25.5-6.5,6.39-.75,18,.75,24.64,5.13,2.88-3.62,9.52-8.25,14.9-8.62,12,8.21,11.19,17.47,9.77,22.71-1.58,5.83-8.25,11.92-18.25,13.5-.87,5.13-4.94,14.29-6.31,25.54 a 33.94,33.94,0,0,0-.23,5.85,2.46,2.46,0,0,0-1.19-.32 h -.24 a 2.51,2.51,0,0,0-2.5,2.5V321 a 2.5,2.5,0,0,0,2.36,2.49 c -2.76,3.4-7.15,10-10.24,20.7-9.36-13.47-25.69-19.82-30.37-21.41q.53-.94,1-1.92 C 287,310.13,283.26,299.63,281,293.63Z m 40.29,29.05 h -.17 a 1.69,1.69,0,0,1-1.69-1.69v-.17 a 1.69,1.69,0,0,1,1.69-1.69 h .17 a 1.68,1.68,0,0,1,1.32.65q.08.82.2,1.63 c -.3.3-.67.7-1.11,1.21 A 1.66,1.66,0,0,1,321.3,322.68Z m 71.54,222.94 c -.71-12.87-2.05-28.48-3.62-38.91-2.33-15.5-7.17-44.67-13.5-64.33 s -16.17-44.33-26-62.5 a 420,420,0,0,0-23.5-37.33 s 20.83,35.17,25.83,46.67,16,36.17,21.17,54.5,12.17,51.5,13.83,68.33,2.83,33.83,4,48.67 c -2,3-9,3.17-15,2.83 a 33.94,33.94,0,0,0-10.91,1.54,582,582,0,0,0-6.59-90.37 c -4.83-32.67-12.5-60-19.33-74.67 s -22.17-49.33-22.17-49.33,8.83,24.67,13.5,34.83 a 284.84,284.84,0,0,1,16.5,46.33,481.45,481.45,0,0,1,11.67,63.5 c 2.5,22.67,4.5,66,3.83,75-7.5,9.5-14.33,12.67-22.83,12.5 s -16.83-2.83-21-2.17 c .67-16.83-2.67-40.83-5.17-54.17 a 542.3,542.3,0,0,1-9-66.33 c -2-29.5,0-62.5.5-72.33 s 1.67-35.67,1.67-35.67 c -.33.5-5.17,45.83-5.67,74.5 a 473,473,0,0,0,6.17,80.67 c 3.14,18.51,9.87,52.79,8.85,71.36 a 19.73,19.73,0,0,0-7.18,1.81 c -4.17,2-15.33,8.83-26.83,4-1.17-11.17-5.67-25.67-8-32.83 s -13-40.33-11-80.83,14-74.67,17.33-85.67,11.83-33.67,12.17-38 c 0,0-10.17,26.33-16,43.67 s -15,48-16.33,82.5,7.17,67.5,12,82 a 162.81,162.81,0,0,1,5.61,23.14 A 38.12,38.12,0,0,0,261.72,577 c -10.67,1.17-19.17-1.17-24.83-6.5-4.83-16.17-8.5-41.83-5.33-75.67 A 352.67,352.67,0,0,1,250.72,408 c 8.83-24.83,29-64.83,29.5-69,0,0-15.67,30.33-22,44.17 a 378.21,378.21,0,0,0-24,72.83 c -5.92,27.3-9.46,72-3.25,102.51-3.19-2.19-8.23-3.63-14.59-4.85 a 18,18,0,0,1-11.5-7.83 s -1.67-4.5-1-21 c 1-26.17,7.67-61,16.33-86.5 s 24.29-60.62,36.29-80 c 10.35-16.7,17.16-24.49,22.45-33.21,10.87,2.43,26.89,14.62,32.45,23,3.46-13.31,9.65-21.18,12-23.82,1.52,5.79,4.86,11.29,9.79,18.48,8,11.67,21.17,30.17,32.17,52.5 a 357.55,357.55,0,0,1,26.17,71.17 c 6.5,25.67,7.67,48,9,69 C 398.93,539.14,395.05,543.37,392.84,545.62Z"/>
    <path d="M 317.07,287.38 c -14.5,6.33-25.17-.17-25.17-.17 C 301.41,294.54,311.07,292.54,317.07,287.38Z"/>
  </g>
<script type="text/ecmascript" xlink:href="param.min.js"/> 
</svg>
