<?xml version="1.0"?>
<svg xmlns="http://www.w3.org/2000/svg" xmlns:xlink="http://www.w3.org/1999/xlink" viewBox="0 0 600 600">
  <title>slender-top-template</title>
  <g id="main-colour">
    <path d="M 271,254.38 s 10-1.12,14.13-7.25,2.5-13.75-1.25-18.87 a 4.47,4.47,0,0,0,2.38-1.37 s 5.75,8.63,13.38,10.38 S 310.48,236,311.36,234 s 0-7.62,0-7.62 l 2.38,1.75 s 5,3.51,7,5.92 c 3.94,4.77,21.69,19.77,23,29,1.6,11.07-5.9,19.4-12.33,20.43-2,8.5-5.64,16.41-7.64,30.28 s -1.12,19.13,3.13,29.13,11.27,15.46,14.23,30 c 3,14.75,1.5,32.88,1.5,32.88 S 328,414.25,315.11,415 a 85.73,85.73,0,0,1-27.87-2.75 c -6.5-1.62-17.87-4.75-24.37-.62-3-15.62-4.75-31.75-1.62-45.62 s 13.5-29.12,17.63-37.87,6.13-15.75,3.88-23.87-6.87-19.87-8.62-26 S 270.23,259.63,271,254.38Z" fill="param(main_colour)"/>
  </g>
  <g id="outline">
    <path d="M 324.86,314.88 c 1.6-11.68,4.8-20.89,7.33-31.21 a 14.81,14.81,0,0,0,6.19-3,19,19,0,0,0,6.46-18.87 c -1.42-6.67-8.46-12.37-11.46-15.37-2.51-2.51-5.75-6.54-7.87-8.62-2.45-2.41-8.87-8.5-11.31-10.37-2.36-.75-4.71-3.56-4.71-3.56 s 5.71,11.73-3.62,13.06-16.37-6.12-19.37-11.12 c -1.17,1.17-4.31,2-4.31,2 s 4.33,3,4.31,11.63 c 0,9-9.12,13.46-16.58,13.83-.37,4,.46,18,7,35.5 s 8.25,24.42,2.25,36.92-17,28-19.75,44.25,2.83,42.5,2.83,42.5,9.25-3.1,16.67-1.33 c 7,1.67,40.81,11.67,64.48-4.92,3-37.5-7-48.25-12.83-58.92 C 325.89,338.77,322.36,333.13,324.86,314.88Z m 17,89.88 c -7.5,5.54-21.31,9.16-32.31,9 a 100.78,100.78,0,0,1-26.33-3.52 c -7.3-2-14.17-2-19.62,0-3.21-16.54-4.46-30.37-1.83-43.12 s 9.63-22.75,14.63-32.12,9.25-16.25,8.13-26.12-6.25-21.5-8.5-28-4.37-21.25-3.87-25.62 c 0-.37,10.5-1.37,15-9.5 s -2.12-17-2.12-17 l 1.38-.62 s 4.25,6.5,10.13,8.75,10.85,2.06,13.75-.12,2-7.87,1.54-9.5 a 7,7,0,0,0,1.81,1.06 A 154,154,0,0,1,326.44,241 c 6,7.12,12.78,12.19,15.06,17.67,2.42,5.79.71,13.5-2,17.54-2.65,3.89-6.12,7.33-12.79,8.08,1.31-.1,2.52-.15,3.7-.29-.9,3.21-1.65,5.52-2.66,9-3.12,10.88-7.48,29.25-4.73,41.25 s 14.36,25.13,16.61,36.63 A 116.5,116.5,0,0,1,341.84,404.75Z"/>
    <path d="M 292.19,285.24 s 12,6.27,19.69-2.05 C 307.8,285.84,300.54,287.07,292.19,285.24Z"/>
  </g>
<script type="text/ecmascript" xlink:href="param.min.js"/> 
</svg>
