<?xml version="1.0"?>
<svg xmlns="http://www.w3.org/2000/svg" xmlns:xlink="http://www.w3.org/1999/xlink" viewBox="0 0 600 600">
  <title>wedding-dress-hourglass</title>
  <g id="main-colour">
    <path d="M 281.34,315.88 c 2.13-7.3,2.25-11.75-1.5-16.5 s -16.75-18.25-16.75-41.75 c 6.75,2,12.5,1,20.25-2.25 s 17.06-7,29.06,1.5 c 6.5-8.5,12.19-10,19.19-10,6.56,8.38,17.06,22.25,2.75,36-2.25,13.75-5.5,19.25-9.25,25 s -6.25,15.25-3,20,15.5,16.25,26.25,27.75,35.5,43.5,49.5,87.5,19,79.5,19,100.25 a 12.36,12.36,0,0,1-10.25,6.75 c -3.25,0-7,2.25-7,2.25 l .25,8.75 s -3.25,7.5-11.25,9.25-20.75,2.25-26.5,10.25 a 33.65,33.65,0,0,0,1.25,5.25 s -10.5.5-18.5,4.25-15.75,5.5-24.5,4.75-24.25-5.75-33.75-4.25 c 0-4.75.64-5.75.64-5.75 a 34.23,34.23,0,0,0-17.64-6.25 c -10.75-.75-25.25,6.25-33.5-3.25.8-4.33.25-6.25.25-6.25 a 26.39,26.39,0,0,0-12-3 c -7.5-.25-16.75-2-21.25-7.75.25-5.75.75-7,0-7.25 s -6.5-4.75-10.5-5.25-4.75-3.25-4.75-3.25-3-21.5,2-65,32.75-92.25,45.25-109.25,22-28,28.75-33.75 S 279.59,321.88,281.34,315.88Z" fill="param(main_colour)"/>
  </g>
  <g id="accent-colour-1">
    <circle cx="282.93" cy="225.3" r="2.58" fill="param(accent_colour_1)"/>
    <circle cx="287.65" cy="228.13" r="2.58" fill="param(accent_colour_1)"/>
    <circle cx="292.73" cy="230.05" r="2.58" fill="param(accent_colour_1)"/>
    <circle cx="298.01" cy="230.87" r="2.58" fill="param(accent_colour_1)"/>
    <circle cx="303.4" cy="230.05" r="2.58" fill="param(accent_colour_1)"/>
    <circle cx="308.32" cy="228.55" r="2.58" fill="param(accent_colour_1)"/>
    <circle cx="312.32" cy="225.21" r="2.58" fill="param(accent_colour_1)"/>
    <circle cx="313.32" cy="230.88" r="2.58" fill="param(accent_colour_1)"/>
    <circle cx="317.48" cy="227.21" r="2.58" fill="param(accent_colour_1)"/>
    <circle cx="308.65" cy="233.96" r="2.58" fill="param(accent_colour_1)"/>
    <circle cx="303.93" cy="235.6" r="2.58" fill="param(accent_colour_1)"/>
    <circle cx="306.82" cy="244.3" r="2.58" fill="param(accent_colour_1)"/>
    <circle cx="302.82" cy="240.46" r="2.58" fill="param(accent_colour_1)"/>
    <circle cx="308.15" cy="239.3" r="2.58" fill="param(accent_colour_1)"/>
    <circle cx="298.36" cy="236.58" r="2.58" fill="param(accent_colour_1)"/>
    <circle cx="292.98" cy="235.55" r="2.58" fill="param(accent_colour_1)"/>
    <circle cx="288.15" cy="233.63" r="2.58" fill="param(accent_colour_1)"/>
    <circle cx="282.82" cy="231.21" r="2.58" fill="param(accent_colour_1)"/>
    <circle cx="277.98" cy="228.21" r="2.58" fill="param(accent_colour_1)"/>
    <circle cx="274.08" cy="263.03" r="2.33" fill="param(accent_colour_1)"/>
    <circle cx="286.95" cy="267.38" r="2.33" fill="param(accent_colour_1)"/>
    <circle cx="300.51" cy="259.04" r="2.33" fill="param(accent_colour_1)"/>
    <circle cx="301.11" cy="274.88" r="2.33" fill="param(accent_colour_1)"/>
    <circle cx="315.76" cy="265.54" r="2.33" fill="param(accent_colour_1)"/>
    <circle cx="323.81" cy="256.71" r="2.33" fill="param(accent_colour_1)"/>
    <circle cx="335.15" cy="276.71" r="2.33" fill="param(accent_colour_1)"/>
    <circle cx="334.05" cy="261.45" r="2.33" fill="param(accent_colour_1)"/>
    <circle cx="326.65" cy="270.38" r="2.33" fill="param(accent_colour_1)"/>
    <circle cx="316.11" cy="280.38" r="2.33" fill="param(accent_colour_1)"/>
    <circle cx="288.95" cy="283.38" r="2.33" fill="param(accent_colour_1)"/>
    <circle cx="276.15" cy="276.88" r="2.33" fill="param(accent_colour_1)"/>
    <circle cx="281.95" cy="292.44" r="2.33" fill="param(accent_colour_1)"/>
    <circle cx="291.98" cy="297.88" r="2.33" fill="param(accent_colour_1)"/>
    <circle cx="288.95" cy="323.38" r="2.33" fill="param(accent_colour_1)"/>
    <circle cx="292.78" cy="311.38" r="2.33" fill="param(accent_colour_1)"/>
    <circle cx="302.65" cy="290.05" r="2.33" fill="param(accent_colour_1)"/>
    <circle cx="313.78" cy="296.21" r="2.33" fill="param(accent_colour_1)"/>
    <circle cx="324.28" cy="288.71" r="2.33" fill="param(accent_colour_1)"/>
    <circle cx="320.81" cy="303.71" r="2.33" fill="param(accent_colour_1)"/>
    <circle cx="317.81" cy="318.71" r="2.33" fill="param(accent_colour_1)"/>
    <circle cx="311.92" cy="311.45" r="2.33" fill="param(accent_colour_1)"/>
    <circle cx="302.61" cy="303.55" r="2.33" fill="param(accent_colour_1)"/>
    <circle cx="301.28" cy="319.55" r="2.33" fill="param(accent_colour_1)"/>
    <circle cx="309.28" cy="327.55" r="2.33" fill="param(accent_colour_1)"/>
    <path d="M 313.15,255.88 s 6.38,7.13,3.22,29.5 c -3.29,23.32-8,52.25-8,58.75-.25,2.25-1.5,1-1.5,1 s .5-10,1.75-19.25,5.25-35.5,6.5-45.5-.5-19.75-4-24.25 A 1.46,1.46,0,0,0,313.15,255.88Z" fill="param(accent_colour_1)"/>
    <path d="M 319,250.75 s 9.25,10.13,5.75,29.38-10.62,47-9.5,53.25 a 3.65,3.65,0,0,1,1-1.75 s 1.43-10.25,3.93-21.87,6.32-26.12,7.07-34.5-2.25-20.12-7.12-25 C 319.15,250.38,319,250.75,319,250.75Z" fill="param(accent_colour_1)"/>
    <path d="M 327.4,247.63 s 8.13,11.38,7.38,24-.75,12.25-.75,12.25 l 1-1.25 s 2.88-11-.12-21.62-6.5-13.87-6.5-13.87Z" fill="param(accent_colour_1)"/>
    <path d="M 302,252.63 a 55.13,55.13,0,0,0,.25,25.25 c 3.38,14,.5,48.38-2.5,57 a 2.5,2.5,0,0,0-1.12-.87 s 2.88-15,3.25-25.5.38-21.5-.87-28.37-3.37-19.87-.37-27.87 A 1.45,1.45,0,0,1,302,252.63Z" fill="param(accent_colour_1)"/>
    <path d="M 287.77,254.5 s -1,14.69,2,27.88 c 5.63,24.38,5.63,33.75.63,46 a 2,2,0,0,1-1.25-.25,57.85,57.85,0,0,0,3.13-23.5 c -.87-13.75-8.75-30.62-6-49.75 A 2.26,2.26,0,0,1,287.77,254.5Z" fill="param(accent_colour_1)"/>
    <path d="M 274.9,258.88 a 70.65,70.65,0,0,0,5.88,27.5 c 6.25,14.13,8.88,23.25,1.5,37.25 a 4.84,4.84,0,0,0-1.12-.12 s 4.63-9.37,4.25-15.87-2.5-12.75-6.37-21.37 a 70.72,70.72,0,0,1-5.62-27.5Z" fill="param(accent_colour_1)"/>
  </g>
  <g id="outline">
    <path d="M 399.39,441.88 c -11.33-35.5-31-64.5-43.5-79.25 a 348.19,348.19,0,0,0-29.58-30.25 c -4.25-4-4.83-8.42-4.75-12.17 s 5.75-13.83,7.92-17.5 a 44.65,44.65,0,0,0,6-19.46 c 1.75-1.37,8.69-9.21,7-19.37 C 340.9,254.5,335.52,251.82,332,246 c -3.37-.75-16.56,1.63-20.06,9.75-11.5-9.06-20.25-4.12-32.12.13-11.42,4.09-17.94.63-17.94.63.33,20.63,7.67,31.88,12,37 s 7.5,9.33,8,13.83-2.5,12.33-7.5,16.33 a 210.27,210.27,0,0,0-31.17,30.67 c -13.83,16.67-31.33,44.5-43.5,80.5 s -13.5,55.5-14.17,72.17.5,36.17.5,36.17 a 16.6,16.6,0,0,0,8,5,21.09,21.09,0,0,1,7.77,4.28 c 0,2.26-.12,4.14-.27,5.55,3,7,14.33,9.5,20,9.33,4.82-.14,10.36.81,13.75,2.63 a 26.73,26.73,0,0,1-.92,6.37 c 6.67,6.33,19.17,5.83,27.17,4.33,7.73-1.45,15.92-1,24.13,6.08 a 14.56,14.56,0,0,1-1.13,5.75 c 8-1.5,14.83-.5,22.5,1.83 s 23.17,4,34.17-.83,21.17-6.83,24.5-6.5 c -.7-2.15-1.33-4.12-1.89-6,2.14-2.7,8.62-7.2,17.89-8,11.33-1,17.67-5.17,19.33-12.33-.13-2.49-.29-4.94-.47-7.38 a 15.23,15.23,0,0,1,7.13-2.12 c 2.83,0,8.33-.83,10.33-7.33 C 417.22,509.88,410.72,477.38,399.39,441.88Z M 336.92,276.79 a 1.69,1.69,0,0,1-1.69,1.69 h -.17 a 1.69,1.69,0,0,1-1.69-1.69v-.17 a 1.69,1.69,0,0,1,1.69-1.69 h .17 a 1.69,1.69,0,0,1,1.69,1.69Z m -53.53,26 c -1.75-3.75-10-12.75-12.87-18.12 s -5.87-13.12-6.12-25.37 c 8.13,2.38,18.44-2.75,27.07-5.25 s 14.63-.75,21.38,4 c 4-8,13.88-10.5,18.75-10.25,1.19,1.69,3,4.61,6,9.75,2.5,4.31,2.69,9.94,1.56,14.69 a 28.46,28.46,0,0,1-1.37,4.42v0 a 2.51,2.51,0,0,0-2.5-2.5 H 335 a 2.51,2.51,0,0,0-2.5,2.5v.24 a 2.51,2.51,0,0,0,2.5,2.5 h .24 a 2.47,2.47,0,0,0,1.3-.38,21,21,0,0,1-3.51,4.22 c -1,15.42-8.8,24.21-10.92,29.08 a 40.09,40.09,0,0,0-2,5.5,2.5,2.5,0,0,0-2.34-1.64 h -.24 a 2.51,2.51,0,0,0-2.5,2.5v.24 a 2.51,2.51,0,0,0,2.5,2.5 h .24 a 2.49,2.49,0,0,0,1.76-.73,15.36,15.36,0,0,0-.1,2.7,123.8,123.8,0,0,1-11.89,20.88,45.82,45.82,0,0,0-19.66-18.54,2.47,2.47,0,0,0,1,.19 h .24 a 2.51,2.51,0,0,0,2.5-2.5v-.24 a 2.51,2.51,0,0,0-2.5-2.5 h -.24 a 2.51,2.51,0,0,0-2.5,2.5v.24 a 2.5,2.5,0,0,0,1.44,2.25,49.34,49.34,0,0,0-8.59-3.4 C 285.53,314.17,284.86,305.9,283.39,302.75Z m 36,15.9v.17 a 1.69,1.69,0,0,1-1.69,1.69 h -.17 a 1.69,1.69,0,0,1-1.69-1.69v-.17 a 1.69,1.69,0,0,1,1.69-1.69 h .17 A 1.69,1.69,0,0,1,319.44,318.66Z m -32.24,4.67v-.17 a 1.69,1.69,0,0,1,1.69-1.69 h .17 a 1.69,1.69,0,0,1,1.69,1.69v.17 a 1.69,1.69,0,0,1-1.69,1.69 h -.17 A 1.69,1.69,0,0,1,287.2,323.32Z M 407.72,548.54 a 21.81,21.81,0,0,0-7.34,2.1 c -2.06-25.27-6.84-47.95-13.33-76.1-7.33-31.83-29.33-82.67-41.33-100.17 s -20.67-26.17-20.67-26.17 c 17.17,22.5,29,42,43.17,78 s 19,60.83,23,79.17 A 418.08,418.08,0,0,1,398.89,560 c -.17,1.67-4.5,9.5-18.5,10.67-10.58.88-15.63,5.18-17.47,7.24-2.29-8.16-3.28-15-3.53-27.9-.33-17.33-2.67-44-6.5-63.67 s -13-50.33-18.5-68.5-18.33-52.33-22.33-60.17 c 6.67,17.5,17.33,51.67,22.17,68.17 s 15,50.33,19.17,81.17,3,44.83,3.83,56.17 a 88.77,88.77,0,0,0,4.5,21.33 s -11.33,1-18.83,4.83-19.5,4.5-25.67,3.67-19.33-5.83-28.67-4.33 c 2.5-12.83-2.33-34.67-4.17-46 s -3.89-44.44-1.83-75.17 c 2.17-32.33,8-58.17,12.33-77.33 s 6.83-30.33,6.83-30.33-17.5,52.17-21.83,97.33-.5,75,2.5,93.17 c 2,11.88,3.35,24.4,3.38,32.86-2.27-2.18-7.39-5.8-16.55-6-13.17-.33-23,4.17-31.5-2.33,1.67-13.83.67-28.83.5-40.83 s 1-45,5.67-70.67,13.5-48.5,20.5-65.83,21.33-46.83,21.33-46.83 a 455.93,455.93,0,0,0-32.67,68.83 c -14.5,38.83-16.17,76.33-17.17,95.67-.75,14.58.1,38.35-.43,51.88 a 27.85,27.85,0,0,0-13.23-2.55 c -7.83.67-16.5-4.5-17.5-6.67.33-12-1-37.67,1.83-61.17 s 9.67-52.5,15.83-68.17,17.83-42.67,34.5-66.5,17.67-25,17.67-25-26,29-44.5,67.83 S 204.72,480,202.89,504.71 c -1.32,17.78-1,33.66-1,44-3-2.65-8.1-3.32-12.31-6.51-1.5-14.17-3.17-50.67,7.83-88.67 s 23.75-63.92,38.75-85 a 206.5,206.5,0,0,1,38.62-41.75,32.63,32.63,0,0,0,2.67-2.51 c 11.36,1.78,22.43,11.62,30,23.63,6-6.37,10.94-16.58,12.84-20.78 a 12,12,0,0,0,1.16,2.28 c 3.75,5.75.5,1.33,16.5,17.5 s 28.83,32.33,40.83,54.83,18.67,41.5,25.67,68,9.83,59.5,11,73.67 A 8.84,8.84,0,0,1,407.72,548.54Z"/>
    <path d="M 287.06,288.13 c 12.33,2.92,19.5-2.67,21.75-7.5 C 300.31,289.88,287.06,288.13,287.06,288.13Z"/>
    <path d="M 288.83,280.66 a 2.51,2.51,0,0,0-2.5,2.5v.24 a 2.51,2.51,0,0,0,2.5,2.5 h .24 a 2.51,2.51,0,0,0,2.5-2.5v-.24 a 2.51,2.51,0,0,0-2.5-2.5Z m 1.89,2.54v.17 A 1.69,1.69,0,0,1,289,285 h -.17 a 1.69,1.69,0,0,1-1.69-1.69v-.17 a 1.69,1.69,0,0,1,1.69-1.69 H 289 A 1.69,1.69,0,0,1,290.72,283.2Z"/>
    <path d="M 286.85,269.95 h .24 a 2.51,2.51,0,0,0,2.5-2.5v-.24 a 2.51,2.51,0,0,0-2.5-2.5 h -.24 a 2.51,2.51,0,0,0-2.5,2.5v.24 A 2.51,2.51,0,0,0,286.85,269.95Z m -1.65-2.7 a 1.69,1.69,0,0,1,1.69-1.69 h .17 a 1.69,1.69,0,0,1,1.69,1.69v.17 a 1.69,1.69,0,0,1-1.69,1.69 h -.17 a 1.69,1.69,0,0,1-1.69-1.69Z"/>
    <path d="M 284.57,292.22 a 2.51,2.51,0,0,0-2.5-2.5 h -.24 a 2.51,2.51,0,0,0-2.5,2.5v.24 a 2.51,2.51,0,0,0,2.5,2.5 h .24 a 2.51,2.51,0,0,0,2.5-2.5Z m -.85.2 a 1.69,1.69,0,0,1-1.69,1.69 h -.17 a 1.69,1.69,0,0,1-1.69-1.69v-.17 a 1.69,1.69,0,0,1,1.69-1.69 H 282 a 1.69,1.69,0,0,1,1.69,1.69Z"/>
    <path d="M 292.1,300.4 a 2.51,2.51,0,0,0,2.5-2.5v-.24 a 2.51,2.51,0,0,0-2.5-2.5 h -.24 a 2.51,2.51,0,0,0-2.5,2.5v.24 a 2.51,2.51,0,0,0,2.5,2.5Z m -1.89-2.54v-.17 a 1.69,1.69,0,0,1,1.69-1.69 h .17 a 1.69,1.69,0,0,1,1.69,1.69v.17 a 1.69,1.69,0,0,1-1.69,1.69 h -.17 A 1.69,1.69,0,0,1,290.21,297.86Z"/>
    <path d="M 276.27,274.16 H 276 a 2.51,2.51,0,0,0-2.5,2.5v.24 a 2.51,2.51,0,0,0,2.5,2.5 h .24 a 2.51,2.51,0,0,0,2.5-2.5v-.24 A 2.51,2.51,0,0,0,276.27,274.16Z m 1.65,2.7 a 1.69,1.69,0,0,1-1.69,1.69 h -.17 a 1.69,1.69,0,0,1-1.69-1.69v-.17 a 1.69,1.69,0,0,1,1.69-1.69 h .17 a 1.69,1.69,0,0,1,1.69,1.69Z"/>
    <path d="M 274.22,265.6 a 2.51,2.51,0,0,0,2.5-2.5v-.24 a 2.51,2.51,0,0,0-2.5-2.5 H 274 a 2.51,2.51,0,0,0-2.5,2.5v.24 a 2.51,2.51,0,0,0,2.5,2.5Z m -1.89-2.54v-.17 A 1.69,1.69,0,0,1,274,261.2 h .17 a 1.69,1.69,0,0,1,1.69,1.69v.17 a 1.69,1.69,0,0,1-1.69,1.69 H 274 A 1.69,1.69,0,0,1,272.33,263.06Z"/>
    <path d="M 292.92,308.77 h -.24 a 2.51,2.51,0,0,0-2.5,2.5v.24 a 2.51,2.51,0,0,0,2.5,2.5 h .24 a 2.51,2.51,0,0,0,2.5-2.5v-.24 A 2.51,2.51,0,0,0,292.92,308.77Z m 1.65,2.7 a 1.69,1.69,0,0,1-1.69,1.69 h -.17 a 1.69,1.69,0,0,1-1.69-1.69v-.17 a 1.69,1.69,0,0,1,1.69-1.69 h .17 a 1.69,1.69,0,0,1,1.69,1.69Z"/>
    <path d="M 300.41,261.58 h .24 a 2.51,2.51,0,0,0,2.5-2.5v-.24 a 2.51,2.51,0,0,0-2.5-2.5 h -.24 a 2.51,2.51,0,0,0-2.5,2.5v.24 A 2.51,2.51,0,0,0,300.41,261.58Z m -1.65-2.7 a 1.69,1.69,0,0,1,1.69-1.69 h .17 a 1.69,1.69,0,0,1,1.69,1.69V259 a 1.69,1.69,0,0,1-1.69,1.69 h -.17 a 1.69,1.69,0,0,1-1.69-1.69Z"/>
    <path d="M 306.72,327.58v.24 a 2.51,2.51,0,0,0,2.5,2.5 h .24 a 2.51,2.51,0,0,0,2.5-2.5v-.24 a 2.51,2.51,0,0,0-2.5-2.5 h -.24 A 2.51,2.51,0,0,0,306.72,327.58Z m .85,0 a 1.69,1.69,0,0,1,1.69-1.69 h .17 a 1.69,1.69,0,0,1,1.69,1.69v.17 a 1.69,1.69,0,0,1-1.69,1.69 h -.17 a 1.69,1.69,0,0,1-1.69-1.69Z"/>
    <path d="M 301.46,316.92 h -.24 a 2.51,2.51,0,0,0-2.5,2.5v.24 a 2.51,2.51,0,0,0,2.5,2.5 h .24 a 2.51,2.51,0,0,0,2.5-2.5v-.24 A 2.51,2.51,0,0,0,301.46,316.92Z m 1.65,2.7 a 1.69,1.69,0,0,1-1.69,1.69 h -.17 a 1.69,1.69,0,0,1-1.69-1.69v-.17 a 1.69,1.69,0,0,1,1.69-1.69 h .17 a 1.69,1.69,0,0,1,1.69,1.69Z"/>
    <path d="M 302.74,287.42 h -.24 a 2.51,2.51,0,0,0-2.5,2.5v.24 a 2.51,2.51,0,0,0,2.5,2.5 h .24 a 2.51,2.51,0,0,0,2.5-2.5v-.24 A 2.51,2.51,0,0,0,302.74,287.42Z m 1.65,2.7 a 1.69,1.69,0,0,1-1.69,1.69 h -.17 a 1.69,1.69,0,0,1-1.69-1.69V290 a 1.69,1.69,0,0,1,1.69-1.69 h .17 a 1.69,1.69,0,0,1,1.69,1.69Z"/>
    <path d="M 313.74,298.82 H 314 a 2.51,2.51,0,0,0,2.5-2.5v-.24 a 2.51,2.51,0,0,0-2.5-2.5 h -.24 a 2.51,2.51,0,0,0-2.5,2.5v.24 A 2.51,2.51,0,0,0,313.74,298.82Z m -1.65-2.7 a 1.69,1.69,0,0,1,1.69-1.69 h .17 a 1.69,1.69,0,0,1,1.69,1.69v.17 a 1.69,1.69,0,0,1-1.69,1.69 h -.17 a 1.69,1.69,0,0,1-1.69-1.69Z"/>
    <path d="M 323.67,259.28 h .24 a 2.51,2.51,0,0,0,2.5-2.5v-.24 a 2.51,2.51,0,0,0-2.5-2.5 h -.24 a 2.51,2.51,0,0,0-2.5,2.5v.24 A 2.51,2.51,0,0,0,323.67,259.28Z m -1.65-2.7 a 1.69,1.69,0,0,1,1.69-1.69 h .17 a 1.69,1.69,0,0,1,1.69,1.69v.17 a 1.69,1.69,0,0,1-1.69,1.69 h -.17 a 1.69,1.69,0,0,1-1.69-1.69Z"/>
    <path d="M 311.76,314.08 H 312 a 2.51,2.51,0,0,0,2.5-2.5v-.24 a 2.51,2.51,0,0,0-2.5-2.5 h -.24 a 2.51,2.51,0,0,0-2.5,2.5v.24 A 2.51,2.51,0,0,0,311.76,314.08Z m -1.65-2.7 a 1.69,1.69,0,0,1,1.69-1.69 H 312 a 1.69,1.69,0,0,1,1.69,1.69v.17 a 1.69,1.69,0,0,1-1.69,1.69 h -.17 a 1.69,1.69,0,0,1-1.69-1.69Z"/>
    <path d="M 316.17,277.7 h -.24 a 2.51,2.51,0,0,0-2.5,2.5v.24 a 2.51,2.51,0,0,0,2.5,2.5 h .24 a 2.51,2.51,0,0,0,2.5-2.5v-.24 A 2.51,2.51,0,0,0,316.17,277.7Z m 1.65,2.7 a 1.69,1.69,0,0,1-1.69,1.69 H 316 a 1.69,1.69,0,0,1-1.69-1.69v-.17 a 1.69,1.69,0,0,1,1.69-1.69 h .17 a 1.69,1.69,0,0,1,1.69,1.69Z"/>
    <path d="M 324.26,286.12 H 324 a 2.51,2.51,0,0,0-2.5,2.5v.24 a 2.51,2.51,0,0,0,2.5,2.5 h .24 a 2.51,2.51,0,0,0,2.5-2.5v-.24 A 2.51,2.51,0,0,0,324.26,286.12Z m 1.65,2.7 a 1.69,1.69,0,0,1-1.69,1.69 h -.17 a 1.69,1.69,0,0,1-1.69-1.69v-.17 a 1.69,1.69,0,0,1,1.69-1.69 h .17 a 1.69,1.69,0,0,1,1.69,1.69Z"/>
    <path d="M 318,303.86 a 2.51,2.51,0,0,0,2.5,2.5 h .24 a 2.51,2.51,0,0,0,2.5-2.5v-.24 a 2.51,2.51,0,0,0-2.5-2.5 h -.24 a 2.51,2.51,0,0,0-2.5,2.5Z m .85-.2 a 1.69,1.69,0,0,1,1.69-1.69 h .17 a 1.69,1.69,0,0,1,1.69,1.69v.17 a 1.69,1.69,0,0,1-1.69,1.69 h -.17 a 1.69,1.69,0,0,1-1.69-1.69Z"/>
    <path d="M 302.73,300.92 h -.24 a 2.51,2.51,0,0,0-2.5,2.5v.24 a 2.51,2.51,0,0,0,2.5,2.5 h .24 a 2.51,2.51,0,0,0,2.5-2.5v-.24 A 2.51,2.51,0,0,0,302.73,300.92Z m 1.65,2.7 a 1.69,1.69,0,0,1-1.69,1.69 h -.17 a 1.69,1.69,0,0,1-1.69-1.69v-.17 a 1.69,1.69,0,0,1,1.69-1.69 h .17 a 1.69,1.69,0,0,1,1.69,1.69Z"/>
    <path d="M 315.6,268.08 h .24 a 2.51,2.51,0,0,0,2.5-2.5v-.24 a 2.51,2.51,0,0,0-2.5-2.5 h -.24 a 2.51,2.51,0,0,0-2.5,2.5v.24 A 2.51,2.51,0,0,0,315.6,268.08Z m -1.65-2.7 a 1.69,1.69,0,0,1,1.69-1.69 h .17 a 1.69,1.69,0,0,1,1.69,1.69v.17 a 1.69,1.69,0,0,1-1.69,1.69 h -.17 a 1.69,1.69,0,0,1-1.69-1.69Z"/>
    <path d="M 324,270.25v.24 a 2.51,2.51,0,0,0,2.5,2.5 h .24 a 2.51,2.51,0,0,0,2.5-2.5v-.24 a 2.51,2.51,0,0,0-2.5-2.5 h -.24 A 2.51,2.51,0,0,0,324,270.25Z m .85,0 a 1.69,1.69,0,0,1,1.69-1.69 h .17 a 1.69,1.69,0,0,1,1.69,1.69v.17 a 1.69,1.69,0,0,1-1.69,1.69 h -.17 a 1.69,1.69,0,0,1-1.69-1.69Z"/>
    <path d="M 333.93,264.07 h .24 a 2.51,2.51,0,0,0,2.5-2.5v-.24 a 2.51,2.51,0,0,0-2.5-2.5 h -.24 a 2.51,2.51,0,0,0-2.5,2.5v.24 A 2.51,2.51,0,0,0,333.93,264.07Z m -1.65-2.7 a 1.69,1.69,0,0,1,1.69-1.69 h .17 a 1.69,1.69,0,0,1,1.69,1.69v.17 a 1.69,1.69,0,0,1-1.69,1.69 H 334 a 1.69,1.69,0,0,1-1.69-1.69Z"/>
    <path d="M 301.17,272.2 h -.24 a 2.51,2.51,0,0,0-2.5,2.5v.24 a 2.51,2.51,0,0,0,2.5,2.5 h .24 a 2.51,2.51,0,0,0,2.5-2.5v-.24 A 2.51,2.51,0,0,0,301.17,272.2Z m 1.65,2.7 a 1.69,1.69,0,0,1-1.69,1.69 H 301 a 1.69,1.69,0,0,1-1.69-1.69v-.17 a 1.69,1.69,0,0,1,1.69-1.69 h .17 a 1.69,1.69,0,0,1,1.69,1.69Z"/>
    <path d="M 277.88,231.14 h .27 a 2.8,2.8,0,0,0,1.79-.66,2.82,2.82,0,0,0-.06.55v.27 a 2.84,2.84,0,0,0,2.83,2.83 H 283 a 2.82,2.82,0,0,0,2.28-1.17,2.79,2.79,0,0,0,0,.48v.27 a 2.84,2.84,0,0,0,2.83,2.83 h .27 a 2.8,2.8,0,0,0,1.76-.63,2.83,2.83,0,0,0,2.8,2.55 h .27 a 2.83,2.83,0,0,0,2.33-1.23,2.84,2.84,0,0,0,2.77,2.27 h .27 a 2.8,2.8,0,0,0,1.74-.62,2.79,2.79,0,0,0-.38,1.4v.27 a 2.84,2.84,0,0,0,2.83,2.83 H 303 a 2.8,2.8,0,0,0,1.07-.21,2.78,2.78,0,0,0-.18.94v.27 a 2.84,2.84,0,0,0,2.83,2.83 H 307 a 2.84,2.84,0,0,0,2.83-2.83v-.27 a 2.82,2.82,0,0,0-.82-2,2.83,2.83,0,0,0,2.16-2.74v-.27 a 2.83,2.83,0,0,0-1.37-2.41,2.83,2.83,0,0,0,1.87-2.65v-.27 a 2.8,2.8,0,0,0,0-.49,2.8,2.8,0,0,0,1.61.51 h .27 a 2.84,2.84,0,0,0,2.83-2.83v-.27 a 2.78,2.78,0,0,0-.14-.85,2.79,2.79,0,0,0,1.21.28 h .27 a 2.84,2.84,0,0,0,2.83-2.83V227 a 2.84,2.84,0,0,0-2.83-2.83 h -.27 a 2.81,2.81,0,0,0-2.06.91V225 a 2.84,2.84,0,0,0-2.83-2.83 h -.27 a 2.84,2.84,0,0,0-2.83,2.83v.27 a 2.79,2.79,0,0,0,0,.4,2.78,2.78,0,0,0-.94-.17 h -.27 a 2.84,2.84,0,0,0-2.76,2.23,2.81,2.81,0,0,0-1.88-.73 h -.27 a 2.83,2.83,0,0,0-2.74,2.14,2.83,2.83,0,0,0-2.38-1.32 h -.27 a 2.83,2.83,0,0,0-2.3,1.2,2.83,2.83,0,0,0-2.7-2 h -.27 a 2.82,2.82,0,0,0-2,.82,2.83,2.83,0,0,0-2.82-2.74 h -.27 a 2.8,2.8,0,0,0-1.65.54 c 0-.09,0-.18,0-.27v-.27 a 2.84,2.84,0,0,0-2.83-2.83 h -.27 a 2.84,2.84,0,0,0-2.83,2.83v.27 a 2.8,2.8,0,0,0,.06.56,2.81,2.81,0,0,0-1.89-.74 h -.27 a 2.84,2.84,0,0,0-2.83,2.83v.27 A 2.84,2.84,0,0,0,277.88,231.14Z m 3-3.66 a 2.81,2.81,0,0,0,1.76.73,2.8,2.8,0,0,0-1.76.65,2.81,2.81,0,0,0,.06-.55V228 A 2.82,2.82,0,0,0,280.93,227.48Z m 3.88,1.41 a 2.8,2.8,0,0,0-1.68-.67,2.8,2.8,0,0,0,1.62-.54 c 0,.09,0,.18,0,.27v.27 A 2.79,2.79,0,0,0,284.81,228.89Z m .05,2.38 a 1.92,1.92,0,0,1-1.91,1.91 h -.19 a 1.92,1.92,0,0,1-1.91-1.91v-.19 a 1.92,1.92,0,0,1,1.91-1.91 h .19 a 1.92,1.92,0,0,1,1.91,1.91Z m .91.53 a 2.79,2.79,0,0,0,0-.48V231 a 2.79,2.79,0,0,0-.09-.66,2.81,2.81,0,0,0,1.05.56 A 2.85,2.85,0,0,0,285.77,231.8Z m 5.35,1.38 a 2.8,2.8,0,0,0-.18-.78,2.81,2.81,0,0,0,.76.41 A 2.83,2.83,0,0,0,291.12,233.18Z m -1.11-2 a 2.81,2.81,0,0,0-.92-.46,2.85,2.85,0,0,0,.72-.51 A 2.8,2.8,0,0,0,290,231.2Z m -1.73,4.4 h -.19 a 1.92,1.92,0,0,1-1.91-1.91v-.19 a 1.92,1.92,0,0,1,1.91-1.91 h .19 a 1.92,1.92,0,0,1,1.91,1.91v.19 A 1.92,1.92,0,0,1,288.28,235.6Z m 6.74,0 a 1.92,1.92,0,0,1-1.91,1.91 h -.19 A 1.92,1.92,0,0,1,291,235.6v-.19 a 1.92,1.92,0,0,1,1.91-1.91 h .19 a 1.92,1.92,0,0,1,1.91,1.91Z m 3.46,2.95 h -.19 a 1.92,1.92,0,0,1-1.91-1.91v-.19 a 1.92,1.92,0,0,1,1.91-1.91 h .19 a 1.92,1.92,0,0,1,1.91,1.91v.19 A 1.92,1.92,0,0,1,298.49,238.55Z m 2.84-1.56 a 2.84,2.84,0,0,0,.45.64,2.81,2.81,0,0,0-.8.45 A 2.79,2.79,0,0,0,301.33,237Z m 5-6.25 a 2.82,2.82,0,0,0,.91.55,2.84,2.84,0,0,0-1.46,1.88,2.81,2.81,0,0,0-1-.48 A 2.84,2.84,0,0,0,306.34,230.74Z m 4.94-2.77 a 2.79,2.79,0,0,0,.79.16,2.84,2.84,0,0,0-.75.5v-.25 A 2.79,2.79,0,0,0,311.28,228Z m -.84,3.5 a 2.82,2.82,0,0,0-.64-.33,2.84,2.84,0,0,0,.59-.41V231 A 2.8,2.8,0,0,0,310.44,231.47Z m -3.35,5-.32.14 a 2.77,2.77,0,0,0,.09-.29Z m -1.82,2.16 a 2.84,2.84,0,0,0-.22-.27 l .34-.15 A 2.77,2.77,0,0,0,305.27,238.63Z m .5,2.42 a 2.87,2.87,0,0,0,.27.33,2.81,2.81,0,0,0-.4.12 A 2.77,2.77,0,0,0,305.77,241.05Z m -1.89-7.49 h .19 a 1.91,1.91,0,0,1,1.72,1.1,2.8,2.8,0,0,0,.15.49,1.89,1.89,0,0,1,0,.31v.19 a 1.92,1.92,0,0,1-1.91,1.91 h -.19 l -.21,0-.29-.05 a 1.91,1.91,0,0,1-1.42-1.84v-.19 A 1.92,1.92,0,0,1,303.88,233.56Z m -.93,8.87 h -.19 a 1.92,1.92,0,0,1-1.91-1.91v-.19 a 1.92,1.92,0,0,1,1.91-1.91 h .19 l .21,0,.29.05 a 1.91,1.91,0,0,1,1.42,1.84v.19 A 1.92,1.92,0,0,1,302.95,242.43Z m 5.91,1.92 a 1.92,1.92,0,0,1-1.91,1.91 h -.19 a 1.92,1.92,0,0,1-1.91-1.91v-.19 a 1.92,1.92,0,0,1,1.91-1.91 h .19 a 1.92,1.92,0,0,1,1.91,1.91Z m 1.33-5 a 1.92,1.92,0,0,1-1.91,1.91 h -.19 a 1.92,1.92,0,0,1-1.91-1.91v-.19 a 1.92,1.92,0,0,1,1.91-1.91 h .19 a 1.92,1.92,0,0,1,1.91,1.91Z m .5-5.33 a 1.92,1.92,0,0,1-1.91,1.91 h -.19 a 1.91,1.91,0,0,1-1.72-1.1,2.82,2.82,0,0,0-.15-.49,1.88,1.88,0,0,1,0-.31v-.19 a 1.92,1.92,0,0,1,1.91-1.91 h .19 a 1.92,1.92,0,0,1,1.91,1.91Z m 4.67-3.08 a 1.92,1.92,0,0,1-1.91,1.91 h -.19 a 1.92,1.92,0,0,1-1.91-1.91v-.19 a 1.92,1.92,0,0,1,1.91-1.91 h .19 a 1.92,1.92,0,0,1,1.91,1.91Z m .16-3.86 a 1.92,1.92,0,0,1,1.91-1.91 h .19 a 1.92,1.92,0,0,1,1.91,1.91v.19 a 1.92,1.92,0,0,1-1.91,1.91 h -.19 a 1.92,1.92,0,0,1-1.91-1.91Z m -1,.15v.08 a 2.78,2.78,0,0,0,.14.85,2.79,2.79,0,0,0-1.06-.27 A 2.84,2.84,0,0,0,314.55,227.23Z m -4.2-2.15 a 1.92,1.92,0,0,1,1.91-1.91 h .19 a 1.92,1.92,0,0,1,1.91,1.91v.19 a 1.92,1.92,0,0,1-1.91,1.91 h -.19 a 1.92,1.92,0,0,1-1.91-1.91Z m -4,3.33 a 1.92,1.92,0,0,1,1.91-1.91 h .19 a 1.92,1.92,0,0,1,1.91,1.91v.19 a 1.92,1.92,0,0,1-1.91,1.91 h -.19 a 1.92,1.92,0,0,1-1.91-1.91Z m -4.92,1.5 a 1.92,1.92,0,0,1,1.91-1.91 h .19 a 1.92,1.92,0,0,1,1.91,1.91v.19 a 1.92,1.92,0,0,1-1.91,1.91 h -.19 a 1.92,1.92,0,0,1-1.91-1.91Z m -.51,1.74 a 2.84,2.84,0,0,0,1.71,1.23,2.83,2.83,0,0,0-1.59,2.24,2.84,2.84,0,0,0-1.94-1.49 A 2.83,2.83,0,0,0,300.92,231.66Z m -4.88-.92 a 1.92,1.92,0,0,1,1.91-1.91 h .19 a 1.92,1.92,0,0,1,1.91,1.91v.19 a 1.92,1.92,0,0,1-1.91,1.91 H 298 a 1.92,1.92,0,0,1-1.91-1.91Z m -.83,1 a 2.84,2.84,0,0,0,2.14,2,2.84,2.84,0,0,0-1.42,1.06,2.84,2.84,0,0,0-1.85-2.1 A 2.85,2.85,0,0,0,295.21,231.78Z m -4.44-1.86 a 1.92,1.92,0,0,1,1.91-1.91 h .19 a 1.92,1.92,0,0,1,1.91,1.91v.19 a 1.92,1.92,0,0,1-1.91,1.91 h -.19 a 1.92,1.92,0,0,1-1.91-1.91Z m -3.17-3.83 h .19 a 1.92,1.92,0,0,1,1.91,1.91v.19 a 1.92,1.92,0,0,1-1.91,1.91 h -.19 a 1.92,1.92,0,0,1-1.91-1.91V228 A 1.92,1.92,0,0,1,287.59,226.09Z m -6.64-.92 a 1.92,1.92,0,0,1,1.91-1.91 h .19 a 1.92,1.92,0,0,1,1.91,1.91v.19 a 1.92,1.92,0,0,1-1.91,1.91 h -.19 a 1.92,1.92,0,0,1-1.91-1.91Z M 276,228.08 a 1.92,1.92,0,0,1,1.91-1.91 h .19 a 1.92,1.92,0,0,1,1.91,1.91v.19 a 1.92,1.92,0,0,1-1.91,1.91 h -.19 a 1.92,1.92,0,0,1-1.91-1.91Z"/>
  </g>
<script type="text/ecmascript" xlink:href="param.min.js"/> 
</svg>
