<?xml version="1.0"?>
<svg xmlns="http://www.w3.org/2000/svg" xmlns:xlink="http://www.w3.org/1999/xlink" viewBox="0 0 600 600">
  <title>basic-bikini-top-curvy</title>
  <g id="main-colour">
    <path d="M 256.12,277.55 s 9.75,4.42,16.58,4.83 C 274,271,279.87,259,283.54,253.8 c -.92-11.25-4.42-24.67-5-26.83 a 15.5,15.5,0,0,0,3.33-3.67 s 5.25,20.08,6.33,29.67 c 8.67,3.08,18.08,12.75,20.58,25.83,3.83-.08,8.25.33,8.25.33 s 6-17.75,12.08-26.5 c -6-10.42-12.27-23.83-13.19-29.5 a 23.89,23.89,0,0,0,3.19,3.69 s 11.58,20.4,13.92,24.31 c 4.25,2.5,10.33,7,10.33,7 s 3,7.42.75,14.5-6.83,12.92-12.33,14.08-8.5-.25-11.5-1.67-11.83-1.83-17-.33 c -5.17,2.08-8.58,3.58-16.83,3.5 s -20.33-2-29.75-7.67 A 6,6,0,0,1,256.12,277.55Z" fill="param(main_colour)"/>
  </g>
  <g id="outline">
    <path d="M 343.7,257.54 s -3.08-3.54-10.17-6.83 c -7.5-11.83-13.83-23.92-13.83-23.92 a 13.84,13.84,0,0,1-4.78-6.81 c 1,7.67,7.45,22.06,13.45,32.56 A 92.11,92.11,0,0,0,316.79,278 a 16.43,16.43,0,0,0-7.17.06 c -1.38-10.74-11-22-20.5-25.73 a 308.6,308.6,0,0,0-7-30.5 s -2.5,3.75-4.25,5 c 2,8.25,4.42,16.33,4.92,26.83-9.25,12.62-10.42,28.17-10.42,28.17 a 62.46,62.46,0,0,1-17.12-5.25,12.58,12.58,0,0,0,1.12,4.5,67,67,0,0,0,31.13,8.13 c 7.75,0,12.73-1.72,16-3.95,4.53-1.33,12.6-1.83,17.32.53,7.67,4.83,17.42,1.71,22.7-8.71 A 22.09,22.09,0,0,0,343.7,257.54Z m -7.25,20.58 a 12.31,12.31,0,0,1-1.7,4.54,17.29,17.29,0,0,1-12-.21 s 9.67,5.75,17.75-3.08 l .14-.17 a 19.56,19.56,0,0,1-3.56,3.92 c -4.83,4-11.5,4.25-17.12.63-7.92-3.17-17.58.79-17.58.79-5,2.88-10.5,3.63-16.12,3.46-10.87-.32-21.67-4-28.92-7.5 a 12.39,12.39,0,0,1-.5-2.12,43,43,0,0,0,16.5,4.63 c 1.63-10.37,5-20.71,10.92-29 a 131.76,131.76,0,0,0-4.79-26.54,11.85,11.85,0,0,0,2.25-2.25 c 1.63,5.88,5.5,23,6,28.25,8.5,2.88,16.38,11.67,20.13,24 a 11.41,11.41,0,0,1,.47,2.36 h 0 a 27,27,0,0,1,9.2-.2 c 3-8.67,7.33-19.5,12.58-27.07-9.59-15.9-13.31-27.42-13.31-27.42 a 11.38,11.38,0,0,0,2.29,2.25 c 1,2.83,13.28,24,13.28,24 a 34.93,34.93,0,0,1,10.33,7.25 c 3.07,8,1.5,14.76-1.36,19.46 a 3.77,3.77,0,0,0,.19-.46,15,15,0,0,1-5.58,4.45 A 8.07,8.07,0,0,0,336.45,278.13Z"/>
    <path d="M 287.12,279 a 30.13,30.13,0,0,1-.28,6.38,72.51,72.51,0,0,1-10.88-.8 s 15.42,5.5,28.58-2.5 a 44.36,44.36,0,0,1-16.81,3.3 A 23.6,23.6,0,0,0,287.12,279Z"/>
  </g>
<script type="text/ecmascript" xlink:href="param.min.js"/> 
</svg>
