<?xml version="1.0"?>
<svg xmlns="http://www.w3.org/2000/svg" xmlns:xlink="http://www.w3.org/1999/xlink" viewBox="0 0 600 600">
  <title>voluptuous-top-template</title>
  <g id="main-colour">
    <path d="M 247.18,277.38 S 268,273,278.68,258.71 c 1.5-15-1.83-26-5.33-31,2.17-1.17,3.56-2,3.56-2 s 8.75,17.29,9.25,29.63 c 7.5,1.5,24.38,7.88,31.88,13.63,3.83-7.33,7.25-13.25,13.15-19-3.17-7.83-4.33-18.83-4.5-22.5 a 12.94,12.94,0,0,1,4.17-.83 s -.07,10.79,10.06,21.79 c 5.5,3.33,11.21,14,10.88,19.5 s -3.12,12.63-8.75,16.5 c -2.33,8.33-2.57,16,1.54,21.38 s 10.61,16.5,16.44,36,10.67,31.83,30.33,43 c -4.67,12-13.5,24.33-28.67,35.5 C 364,423.55,368,426,368,426 s -9.33.67-15.83,4.33-12.5,11.17-20.83,11.67-11.83-.67-17.67-2.5-13-2.33-23.33,1.33-17.17,5-26.5,0 S 243.18,425.21,225.18,427 c 4.39-4.17,5-5.83,5-5.83 S 205.35,409,193,381.71 c 11.33-1.5,20.83-8.17,25.33-16.5 s 10.17-27.33,18.83-40.33,15.67-20.67,14.67-31.33 S 248.18,283.38,247.18,277.38Z" fill="param(main_colour)"/>
  </g>
  <g id="fixed-colours">
    <path d="M 233.68,360.88 s 6.5-11.33,10.17-16.67,9-11.33,12-15.67,4.83-11.17,5.83-7.17 S 258,334,256,338.55 s -5.5,14-5.33,18.67 a 186.18,186.18,0,0,1,9.17-21.33 c 3.17-6.33,8-17.33,6.83-24.67 a 35.14,35.14,0,0,1-7-1.67 s 1.17,3.17-3.5,12.33-11.67,16.83-17.33,27Z" opacity="0.15"/>
    <path d="M 277.68,384 a 55,55,0,0,0,5.17-17.5 c 1-9.5,6.5-23.67,10.5-31.5 s 6.33-4.67,7.83,4.83,1,21.5,3.33,30.33 a 57,57,0,0,0,5.5,14 s -2.67-14-3.5-25.67-.17-32.83-8.33-41.83 c -4.17,2.5-10.17,15.67-12.67,23.67 a 194,194,0,0,0-5.67,27.17 C 279.18,373.21,277.68,383.21,277.68,384Z" opacity="0.15"/>
    <path d="M 337.68,363.55 s -.33-12-.5-17.5-.33-11.17-1.33-15.83 c -.91-4.23.83-6.83,3.67,0 s 5.5,17.33,7.17,25.33 a 28,28,0,0,0,6.67,13 s -2.83-8.83-5.5-19.17-5.5-23.5-11.5-29.5-7.5-6.33-8-6.33 a 11.34,11.34,0,0,0-2,.5,29.09,29.09,0,0,1,5.33,11.33 c 1.83,7.33,4,25,4.17,28 A 92.12,92.12,0,0,0,337.68,363.55Z" opacity="0.15"/>
  </g>
  <g id="outline">
    <path d="M 272.57,227.3 s 5.08,8.75,5.67,18.5-.67,13.17-.67,13.17 a 59.13,59.13,0,0,1-31.92,17.58 c 1.42,6.75,3.33,8.58,4.75,15.5 s .08,12.5-5.67,19.08 S 227.07,338.88,224,347.71 s -7,28.92-33.42,32.75 c 4.33,17.08,28.83,37.58,39,42.42.83-1.08,2.08-3,2.08-3 s -22.92-10.67-36.42-37 c 11.5.33,24.5-14.83,27.67-24 s 10.5-26,16.33-35.17,14.83-17.17,13.67-29.33-3.33-11-4.33-16.17 c 6-.17,25.33-9.5,31.17-19.33,1-9.67-.33-22.17-5.5-31 a 6.61,6.61,0,0,0,2.5-1.58 s 8.79,18,8.5,29.58 a 101.48,101.48,0,0,1,32.83,14.5 C 322.74,260.55,332,250,332,250 s -4.83-13.58-4.67-21.75 a 6.24,6.24,0,0,1,2.75-.83,36.89,36.89,0,0,0,4,13.17,46.8,46.8,0,0,0,9.5,12.17 A 22.53,22.53,0,0,1,350.15,271 c -.5,4-3.87,9.88-8.12,13.38-2.75,6.25-4,12.88-.75,18.63 s 8.88,12.38,13,23,8.88,28,11.88,34.75,12.25,20,23.75,25.25 c -5.25,13.75-20.37,29-28.62,34.13 a 13.93,13.93,0,0,1,1.88,2 S 385.4,408,392.9,384.5 c -10.12-4.37-19.37-15.25-24.37-25 s -8.75-27.12-13.25-37.37 a 77.21,77.21,0,0,0-10-17.25 c -1.5-2-5.37-6.25-1.25-19.5,6-3.25,10-12.5,8.75-20.25 s -5.37-11.62-9.87-16 S 332.65,238.65,331.28,226 a 7.26,7.26,0,0,0-5.12,1.27 s -.58,9.17,4.08,22.33 c -3.5,4.38-9.08,10.88-12.33,18.25-10.87-8.37-27-11.62-30.75-13.12-.5-9.87-7.62-25.75-10.37-30.25 A 9.29,9.29,0,0,1,272.57,227.3Z"/>
    <path d="M 271,282.88 s 5.13,7.5,12.5,10,14,1.38,19.25-.25 c -4,2.25-10.62,5.5-19.75,2.13 A 21,21,0,0,1,271,282.88Z"/>
    <path d="M 242.53,394.88 s -5.37,20.5-19.87,32.63 c 12.38.5,21.13,1.75,30.13,8.13 s 20.5,13.38,33.38,8.25,19.88-5,31.75-1.37,23.13-.62,28.25-6.25,20.88-10.12,25.75-9.12 c -10-6.12-22.25-22.62-26.37-36.62,2.38,13.13,14.75,30.88,20.25,34.88-9.12-.5-18.25,6-22,9.38 a 24.86,24.86,0,0,1-22.5,5.63 c -10.5-2.62-18.12-5.37-29.37-1.25 s -18,5.63-27.12.75 S 243.9,424.38,227.4,426 C 235.65,420.88,241.28,405,242.53,394.88Z"/>
    <path d="M 250.4,304.55 s 15.33,8.67,43.5,10.67,45.5-5.33,50.33-9.5 a 4.08,4.08,0,0,1,1,1.33 s -7.17,7.17-29.17,9.67-54.5-2.67-66.67-10.83 C 249.74,304.71,250.4,304.55,250.4,304.55Z"/>
    <path d="M 258.9,309.55 s .42,6.5-5.67,15.83 S 231.49,355,231.4,371.71 c 2.08-12.58,7.83-22.17,11.67-28.25 s 6.58-9.75,9.58-14.17,8.58-13.83,7.67-19.08 A 4.49,4.49,0,0,1,258.9,309.55Z"/>
    <path d="M 266.15,311.88 a 45.16,45.16,0,0,1-3.92,17.33 c -4.08,9.25-15.17,29.33-14.42,43.92,1.5-10.67,5.17-20.58,8.08-27.5 s 8.08-15.33,10-22.75,1.67-11.08,1.67-11.08Z"/>
    <path d="M 270.65,404.38 s 5.25-11.67,6.67-22.92,2.5-21.17,5.5-33.83,8.75-27.17,14.58-31.42 c 1.75-.08,2.75-.08,2.75-.08 s 5.25,10.67,6.42,27.67,2.17,28.92,3.5,36.42,4,19.42,9.25,23.42 c -4.42-3.08-7.67-8.92-10.33-22.08 s -3.33-24.75-3.92-35.75-3.58-24.42-6.67-28 c -4.83,3.92-11.08,18.83-13.33,27.5 a 232.24,232.24,0,0,0-5.83,32.25 C 277.82,390.21,273.4,401,270.65,404.38Z"/>
    <path d="M 324.9,314.55 s 4.83,3.25,7.42,15.5,2.42,38.67,10.17,43.42 c -2.75-3.17-4.33-8.67-5.25-15.25 s -2.67-22.58-3.83-29.17-3.75-13.33-6-14.75 c 3.5,1,9.5,5.92,12.5,12.42 S 346,343.63,348,352 s 6.5,26.58,16.67,35.67 a 53.19,53.19,0,0,1-9.92-17.17 c -2.67-7.17-5.67-18.92-7.42-26.75 s -6-24.67-17.25-30.5 A 17.29,17.29,0,0,0,324.9,314.55Z"/>
  </g>
<script type="text/ecmascript" xlink:href="param.min.js"/> 
</svg>
