<?xml version="1.0"?>
<svg xmlns="http://www.w3.org/2000/svg" xmlns:xlink="http://www.w3.org/1999/xlink" viewBox="0 0 600 600">
  <title>curvy-top-template</title>
  <g id="main-colour">
    <path d="M 255,269.55 s 15.33-5.08,23.75-17.83 a 126.36,126.36,0,0,0-1.5-23.42 s 3.17-2.17,3.92-3.58 c 3,7.25,6.75,21.08,7.17,26.75,10.42,1.67,19.25,9,23.25,15.25,4.33-7.92,12.5-15.08,19.42-18.17 a 69,69,0,0,1-5.83-20.92,20.4,20.4,0,0,1,4-.67 s 1.42,7.67,4.25,12.42,8.75,8.67,9.83,19.75-1.92,21.58-4.25,28.25-6.83,21.5-5.33,29.08,2.75,6.92,5.25,9.08,12,15,16.5,24.83,7.33,16.17,13.5,25.08,13.83,15.83,21.42,19 c -.25,10.08-14.17,26.83-30.33,34.92 a 17.47,17.47,0,0,0,5,4.83 s -11-1.08-19,3.17-11.25,9.42-20.33,10.17 S 311.92,444,303.42,443 s -11.5,1.58-15.75,3.5-10.58,4.08-20.08-.25-22-13.33-41.5-8.92 c 3.58-3.33,4.58-5.75,4.58-5.75 S 207,424.13,200.42,400 c 12.08-1.83,23.67-11.17,29.5-24.58 s 13.67-32.75,25.67-45.08,14.83-18.67,10.25-31.42 S 258.59,291.71,255,269.55Z" fill="param(main_colour)"/>
  </g>
  <g id="fixed-colours">
    <path d="M 246,357.88 s 6.17-10.17,11.67-16.33,8.5-10.5,8.17-7.33-10,13.67-13.83,30.67 a 150.5,150.5,0,0,1,13.83-25.67,132.3,132.3,0,0,0,8.5-16.5,9.11,9.11,0,0,1-4.33-1.33,48.23,48.23,0,0,1-9.17,13.5 c -6.67,7.17-12.67,18.5-12.67,18.5Z" opacity="0.15"/>
    <path d="M 277,394.21 s 3.17-8.5,6.5-20.17,7.17-32.67,10.67-32,1.5,16.33,2,24.83,3.83,22.67,6.83,28.5 a 157.61,157.61,0,0,1-3.17-34.17 c .17-15-1-28.83-4.5-33-3,4.17-7.17,13.83-8.83,20.33 s -4.83,19-5.83,25-3.17,17-3.17,17Z" opacity="0.15"/>
    <path d="M 334.84,364.55 s .17-8.83-1.17-14.33-3.83-13-2.83-13.67,5.33,5.67,7.17,12.67,8.67,24.5,12,26.33 c -2.67-6.33-5.67-16-8.17-22.83 s -7.67-21.5-18.67-26.33 c -.54.13-.83,1,.5,2.83 S 330.84,343.55,334.84,364.55Z" opacity="0.15"/>
  </g>
  <g id="outline">
    <path d="M 328.74,227.63 a 7.69,7.69,0,0,0-2.87.5 A 63.48,63.48,0,0,0,332.17,249 c -12.17,5.67-20.1,17.33-20.43,19.33-4.37-7.12-13.62-14.12-24-16.17-1.5-9.33-5.5-23.67-6.67-25.83 a 10.07,10.07,0,0,1-2.67,2.5 s 2.33,12.83,1.33,23.33 c -6.33,10.83-19.83,16.17-23.67,18.33.67,8.17,3.67,15.17,7.67,22 s 5.67,14.5,4.67,20.67-7.67,14.17-13.5,19.33-15.33,23.5-19,32.33-13.67,33.5-34.17,36.33 c 5.17,13.33,17.67,26.17,29.17,29.17-.5.83-1.5,2.17-1.5,2.17 s -19.5-5.83-31.67-33.33 c 10.5.33,24.67-10.67,29.33-21 s 12.17-27.33,19.83-38.83,17.67-15.5,19.17-27.17-4-18.33-6.17-22-6-15.33-6-21.83 c 9-1.5,20.67-11.83,24-16.5 a 105.53,105.53,0,0,0-1.67-24.33 s 3.83-2.17,5.17-4.83 c 3.45,6.33,7.45,24,7.79,27.83,8,1.25,18.07,7.83,22.44,15.08,6-12,18.06-17.42,18.06-17.42 a 78.52,78.52,0,0,1-5.31-21.33 c 2.13-1.22,5.5-.5,5.5-.5,1.88,12.13,7.25,16.33,10.13,20.63,7.35,11.21,3.52,31.61,1.35,37-3,7.5-10.47,27-5.45,37.67,8.67,6.67,17.83,20.67,24,35.17 s 16.17,30,31.67,37 c -1.83,16.67-21.5,32.83-31,36.67 a 13.74,13.74,0,0,1-1.83-2 s 24-10,30.33-33.17 c -12.83-4.83-26-25.17-29.83-34.17 s -13.83-30-25.67-38.5 c -3.44-15.83,3.67-32.24,6.31-41.17 a 55.49,55.49,0,0,0,2.52-19.17 c -.33-4.52-.88-9-3.38-13.5-2.81-5.07-4.26-4.25-8.26-13.25 A 56.73,56.73,0,0,1,328.74,227.63Z"/>
    <path d="M 242.55,406 c 0-1.65-2.17,14.83-19.83,32.5,6.83-1.67,23.17-2.83,35.67,4.17 s 19.5,9.5,30.33,4.33,19.33-2,23.83-.17 S 329.72,451,338.72,443 s 23.17-9.17,29.5-7.67 c -9-7.67-18-17-26.33-37.83 A 84.81,84.81,0,0,0,361.55,433 c -11.5-1.17-19.83,4.67-24.17,7.5 s -9.5,6.67-20.33,4.5-15.5-6.33-27.67-.67-19.83,1.67-25.83-1.67-19-10.67-33.67-7 C 236.39,427.55,242.39,413.38,242.55,406Z"/>
    <path d="M 265.26,318.88 s 39.75,16.63,69.25,2.75 a 3,3,0,0,1,.75,1.5 s -10.25,5.13-25.37,5.5 S 278,326,264.64,320.13 A 2.53,2.53,0,0,1,265.26,318.88Z"/>
    <path d="M 241.14,372.63 s 3.63-17.37,12-28.75,14.5-17.12,16.25-22.62 a 2.41,2.41,0,0,0,1.13.38 A 35.28,35.28,0,0,1,264,332.5 C 259.14,338.25,246.89,350.75,241.14,372.63Z"/>
    <path d="M 247.39,387.13 a 82.63,82.63,0,0,1,9.25-33.62 c 8.88-16.37,14.5-23.62,17.13-30.75 a 1.64,1.64,0,0,1,1.13.13,122.59,122.59,0,0,1-8.37,16.38 C 260.89,348.63,251,361.75,247.39,387.13Z"/>
    <path d="M 272.39,410.25 s 4.13-10,7.13-26.37 S 287,342,295.64,329.75 c 4.5,11,3.13,24.75,3.25,32.88 S 300,397.75,308.26,408 c -4.75-8.87-6.75-21.12-7.37-34.25 s 1.5-39.12-4.62-46.62 c -3.25,1-8.75,14.38-11.12,23.13 s -6,28.13-7.75,38 S 272.39,410.25,272.39,410.25Z"/>
    <path d="M 321.39,326.75 a 81.7,81.7,0,0,1,10,25.13 c 3.13,14.63,4.5,23.88,7.13,28.25-1.87-6.62-4-18.87-5.12-25.87 s -7.62-25.75-10.75-27.75 c 5.5,2.5,12.38,10.5,15.75,19 s 8.13,22.13,10.38,28.5,8.5,18.38,16.5,23.38 c -5.12-4.12-10.62-12.12-14.87-22.5 s -8-24.87-12-33-8.5-12.5-14-15.87 A 6.41,6.41,0,0,0,321.39,326.75Z"/>
  </g>
<script type="text/ecmascript" xlink:href="param.min.js"/> 
</svg>
