<?xml version="1.0"?>
<svg xmlns="http://www.w3.org/2000/svg" xmlns:xlink="http://www.w3.org/1999/xlink" viewBox="0 0 600 600">
  <title>basic-bikini-top-hourglass</title>
  <g id="main-colour">
    <path d="M 267.45,281.55 s 9.33,3.58,17.67,3.5 c 2.08-13.83,6.58-21.67,11-27.58-1.25-8.08-5.83-23.83-12.58-32.58 a 12.79,12.79,0,0,0,2.33-1.75 s 8.75,10.75,13.67,32.33 c 8.17,4.75,12.5,10.08,13.25,13.67 a 13.2,13.2,0,0,1-2,10.58,9.32,9.32,0,0,1,7.67.17 c 1-7,4.42-16.87,12.67-23.67-7.42-7.08-15-21.5-18-32.33 a 18.56,18.56,0,0,0,4,2.67 s 5.58,14.58,10.25,20.5,6.75,7,8.08,7.75,3.75,1.42,5.67,6.08,0,12.92-2.33,16.67-7,8.75-10.17,9.17-3.58.75-9.75-3.5 a 13.64,13.64,0,0,0-11.17.33,26.1,26.1,0,0,1-15.33,4.83 c -7.42.17-19.5-1.83-23.5-3.75 A 5.94,5.94,0,0,1,267.45,281.55Z" fill="param(main_colour)"/>
  </g>
  <g id="outline">
    <path d="M 340,257.21 c -2.17-2.83-3.5-2-6.17-4.25-2.12-1.79-8.67-6.5-16.33-26.92 a 20.2,20.2,0,0,1-6-4.5 s 7,23.08,19,34.58 c -6.25,5.33-10.83,14.08-12.5,23.08 a 8.4,8.4,0,0,0-6.32-.16 c 8.57-14-11.6-24.05-11.6-24.05 s -4.25-19.12-14.25-32.62 a 34.51,34.51,0,0,1-2.94,2.25 s 9.44,12.08,12.6,32.75 a 57.72,57.72,0,0,0-11,27.33 s -8,.17-18.17-4.33 a 13,13,0,0,0,2.33,4.83 s 15,4.67,26.17,3.67 c 5.12-.46,9.11-1.65,12.56-4.67,1.33-.67,6.76-3.07,11.81,0,5,4.13,8.83,4.6,13.46,1.35 a 23,23,0,0,0,9.83-19 C 342.51,264.3,342,259.8,340,257.21Z m -71,27 c -.92-1.67-1.25-2.17-1.25-2.17 s 9.33,3.92,17.92,3.42 c .75-8.75,4.58-19,10.92-27.92-1.67-10.75-6.08-24.33-12.37-32.54 l 1.56-1.19 c 2.38,2.94,6.64,10.43,9.81,19.81,3,8.88,3.38,12.25,3.38,12.25 s 19.46,10.08,11.63,23 c -2,3.13-3.62,6.13-13.58,8.58 C 288.36,289.6,272.12,285.38,269,284.21Z m 67.46-4.5 a 20.26,20.26,0,0,1-4.07,3.11 c .56-1.13,1.46-3.21,1.19-4.7 a 11.37,11.37,0,0,1-2.63,5.36,10.38,10.38,0,0,1-7,.14 s 4.67,3.82,10.55-1.52 a 15.27,15.27,0,0,1-4.75,3.61 c -2.77,1.23-6.35.73-10.92-3.27-6.25-2.12-9.75.1-9.75.1 h 0 a 24.43,24.43,0,0,0,1.64-2 c 2.49-1.12,4.12-1.45,7.94-.2,3.42-12.58,5.83-16.87,13.17-24.08-11.42-10.42-17.58-30.83-17.58-30.83 a 6.1,6.1,0,0,0,2.25,1.33 c 1.75,4,5.25,12.92,8.58,17.92 a 49.53,49.53,0,0,0,8.25,9.5 c 2.33,2.17,3.42,1.25,5.67,4.17,1.91,2.48,2.67,7.88,2,11.25 A 27,27,0,0,1,336.49,279.71Z"/>
    <path d="M 309.79,277.71 s -2.38,3.59-8.23,6 h 0 s .56-4.25-.06-6.12 a 19.55,19.55,0,0,1-1.06,6.58 A 32.61,32.61,0,0,1,288,286 a 24.41,24.41,0,0,0,14.29-1.79 C 309.16,280.84,309.79,277.71,309.79,277.71Z"/>
  </g>
<script type="text/ecmascript" xlink:href="param.min.js"/> 
</svg>
