<?xml version="1.0"?>
<svg xmlns="http://www.w3.org/2000/svg" xmlns:xlink="http://www.w3.org/1999/xlink" viewBox="0 0 600 600">
  <title>city-classic-top-hourglass</title>
  <g id="main-colour">
    <path d="M 346.3,259.29 c -2.77-5.13-8.28-9.66-12.13-12.79 l .1-.12 h 0q.27-.36.51-.74 l 0,0 c .15-.24.29-.48.42-.73 l .1-.2 c .12-.23.24-.47.34-.71 l .07-.18 a 11.91,11.91,0,0,0,.41-1.17 c .06-.2.12-.41.17-.61 s .07-.31.1-.46.09-.49.12-.74,0-.26,0-.39 c 0-.38.06-.77.06-1.17 h 0 a 12,12,0,0,0-16-11.31 c -1.45-3.86-6.58-4.92-8.57-7,2.63,4.81,4.22,14.37.63,22.42-16.92-3.08-23.71-15-25.14-21.55-3.14,3.7-7.34,5.71-12.28,7.18-5.33-2.17-11.92-4-16.83-1.17 s -7.33,8-6.42,14 S 257.88,251,263,252.18 c -.08,8.08,1.5,22.33,4.83,29.25 s 7.77,13,9.85,16.83 c 2.52,4.62,4,10.46,2.5,19.13 s -11.92,16.92-16.25,21-8.29,9.92-11.37,17.75 a 31.24,31.24,0,0,0-2.08,8.77 c 3.5.74,11.72,1.59,24-2.64 C 291.11,356.5,304,344,308,339.88 c 4.36,5.32,16.25,16.7,28.78,19.43 a 14.67,14.67,0,0,0-.66-1.81 c -1.44-8-6.38-14.59-10.12-20.5-4.12-6.5-5.17-11-4.75-16.25 s 3.73-12,7.32-18 A 57.44,57.44,0,0,0,333.62,290 l .22-2.56 a 22,22,0,0,0,9.79-6.64 C 348.55,274.88,349.72,265.63,346.3,259.29Z" fill="param(main_colour)"/>
  </g>
  <g id="accent-colour-1">
    <path d="M 287.14,222 s 4.13,17.46,25.25,21 c 3.63-6.79,1.88-17.54-.37-22.17,2.63,2.5,4.13,2.92,4.13,2.92 a 44,44,0,0,0,2.5,5.33 c 1.75,3.25,9.75,17.13,8.25,32.5 s -9.17,28.08-9.17,28.08.29-9.08-7.58-22.08 S 293,245.5,288.39,237.13 s -4.25-12.75-4.25-12.75Z" fill="param(accent_colour_1)"/>
  </g>
  <g id="accent-colour-2">
    <path d="M 280.05,226.38 s -.08,15.92,3.83,30.17 a 41.69,41.69,0,0,1,12.17,2.17 l -2.5,9.75 s 19.08,8.33,23.08,23.67 c 1.25-3.67,1.17-6.17-.92-13.08 s -8.67-16-14.5-24 S 284.3,234.8,284.3,224 A 13.76,13.76,0,0,1,280.05,226.38Z" fill="param(accent_colour_2)"/>
    <path d="M 316.14,223.8 s 3,5.83,5.42,11.17,6.75,16.5,5.17,27.08-5.92,24.08-8.83,28 c 2-1,10.92-10.33,15.83-25.33-3.17-6.67-4.67-9.08-4.67-9.08 l 5.33-11.33 s -10.83-9.08-14.83-19.08Z" fill="param(accent_colour_2)"/>
    <path d="M 279.48,319.38 s 6.38,3.63,12.75,4 c -3,6.75-7.37,12.63-12,11.75 s -7.12-3.75-7.62-5.62 a 21.33,21.33,0,0,0,5.63-7.5Z" fill="param(accent_colour_2)"/>
    <path d="M 324.92,335 s -6.94.81-7.44-10.37 c 2.44-.56,3.38-.81,3.38-.81 S 320,326.38,324.92,335Z" fill="param(accent_colour_2)"/>
  </g>
  <g id="outline">
    <path d="M 281.89,290.63 c 8,8,18.13,6.38,24.88,1.63 C 291.89,297.5,281.89,290.63,281.89,290.63Z"/>
    <circle cx="320.72" cy="253.3" r="1.21"/>
    <circle cx="322.4" cy="259.54" r="1.21"/>
    <circle cx="323.13" cy="265.41" r="1.21"/>
    <circle cx="318.44" cy="299.39" r="1.78"/>
    <circle cx="314.82" cy="310.01" r="1.78"/>
    <circle cx="312.32" cy="320.89" r="1.78"/>
    <circle cx="311.32" cy="333.26" r="1.78"/>
    <path d="M 337.72,248.18 a 38.11,38.11,0,0,1-3.21-2.5 l .72-1.55 a 68.32,68.32,0,0,1-13.8-16.5 A 10.39,10.39,0,0,1,329,227 a 9.46,9.46,0,0,0-8.62-1.11 c -.24-.42-.48-.84-.71-1.28-6.5-3.75-9.17-6.33-9.75-6.33,2.83,5.58,6.5,15.92,2.17,24.25-7.5-1.42-23.25-8.75-24-23.42 a 29.67,29.67,0,0,1-5.08,4.42 c -2.25,1.33-4.08,2.67-4.08,2.67 s 0,.14,0,.4 a 11.74,11.74,0,0,1-4.71.76 c -1.07-.16-3.3-.91-4.84-1.29 A 14,14,0,1,0,262.13,253 c 0,.17-.5,6.34,1.59,17.58.08.43.16.87.25,1.32.18.92.39,1.8.61,2.67 l .16.6 c .23.84.47,1.65.73,2.45 l .12.33q.36,1.06.76,2.07 l .22.55q.45,1.09.93,2.13 l .22.45q.43.9.89,1.76 l .23.43.11.2 h 0 a 61.87,61.87,0,0,0,3.76,6v0 h 0 c 4,6.33,10,15.17,6.5,25.83 s -14,16.83-20.67,25.83 a 45.05,45.05,0,0,0-8.67,22.67 c 16.33,2.83,40.17-5.33,58-24.83,11.33,11.83,21.63,18.58,29.38,19-.75-8-4-13.37-9-20.87 s -6.37-11-6.37-15.87,4.63-14.62,7.5-20.25,5.52-11.69,5.89-14.72 l -.07,0 a 14.13,14.13,0,0,0,3.1-1.25 c 5.8-3.41,11.42-10.49,11.1-19.33 C 349.06,258.43,344.3,252.68,337.72,248.18Z m -4.5-3.8 c -2,5.19-4.27,10.32-5.42,12.82 A 59.08,59.08,0,0,0,321.39,233 c -1.84-3.33-3.4-6-4.33-7.61 a 12.38,12.38,0,0,0,1.83.78 C 322.64,233,330.3,242.29,333.22,244.38Z m -27.49,18.43 c 1.35,1.89,2.67,3.76,3.91,5.57,5.23,7.63,7.3,16.29,7.27,21.67 a 47.89,47.89,0,0,0-22.19-22.33 A 50,50,0,0,1,297,259.6,64.28,64.28,0,0,1,305.73,262.81Z m 18.56,8.31 a 1.21,1.21,0,1,0-1.11,1.69,1.18,1.18,0,0,0,.73-.27,98.49,98.49,0,0,1-5,13.71 c 5.71-18.54-.65-34.06-4-40.42 l 5.34,4.06 s 2.44-3.55,2.3-11 c .5,1.34.94,2.65,1.29,3.9 C 325.53,249,327.83,257.21,324.29,271.11Z M 318,285.75 c -.78-8.77-6.67-18.4-9.57-22.37-2.56-3.5-9.58-13.2-14.81-20.4,9.67,9.51,15.65,10.9,15.65,10.9 l 3.59-9 C 322.76,262,319.62,279.45,318,285.75Z m 9.59-23.45 c .1-.78.17-1.58.21-2.39.34-.66.8-1.6,1.33-2.71.91,1.61,3.23,5.78,3.63,7.52-1.37,6.7-6.78,17.28-13.55,24.15 A 85,85,0,0,0,327.55,262.29Z m -14.17-39.75 a 11.78,11.78,0,0,0,2.64,2.23 c 1.25,2.36,3.48,6.74,5.36,11.26 a 28.34,28.34,0,0,1-1.34,12.18 c -3.19-2.45-5.47-4.27-6.46-5.06 C 317.91,234.1,313.39,222.54,313.39,222.54Z M 312,244 c -.56,1.38-1.77,4.24-3.64,8.09-8.73-3.68-16.46-11.95-19-14.82 A 25.5,25.5,0,0,1,284.84,225 a 17.64,17.64,0,0,0,1.8-1.47 C 287.69,228.66,298,242.55,312,244Z M 281.3,227 a 14,14,0,0,0,2.46-1.23,29.75,29.75,0,0,0,5,13.31 c 3.82,5.85,9.69,13.71,15.22,21.38 a 64.33,64.33,0,0,0-19.38-4.8 C 280.51,238.75,281.3,227,281.3,227Z m 8.44,100 a 25.78,25.78,0,0,1-11.31-3.75,26.53,26.53,0,0,0,1.37-2.88 A 35.23,35.23,0,0,0,291.14,324 C 290.68,325.1,290.22,326.08,289.74,327Z m -.63,1.12 c -3.43,5.77-7.27,6.82-10.6,5.78 a 8.35,8.35,0,0,1-4.82-4.06,38.08,38.08,0,0,0,4.26-5.72 A 25.13,25.13,0,0,0,289.11,328.1Z M 251.39,364.5 c 3.25-15.37,9.25-21.5,15-27.25,2-2,4.13-4,6.17-6.19 a 9.47,9.47,0,0,0,5,4.31 c 8,2.75,12.75-4.37,15.75-12.5 a 33,33,0,0,1-13-3.89,24.39,24.39,0,0,0,.83-3.11 c 1.88-9.62-1-15.62-3.25-19.12 a 58.57,58.57,0,0,1-3.62-6.5 h 0q-.59-.84-1.19-1.77 l -.13-.2-.49-.78-.14-.22 c -.4-.66-.81-1.35-1.23-2.1 l -.21-.37-.43-.78-.24-.44-.43-.83-.22-.43-.62-1.24,0-.08 c -.18-.37-.35-.75-.52-1.14 l -.11-.27 c -.16-.39-.32-.79-.47-1.2v0 c -.15-.41-.29-.83-.43-1.25 l -.09-.28 c -.14-.43-.27-.87-.39-1.32v0 c -.12-.44-.24-.9-.35-1.35 l -.06-.25q-.17-.7-.33-1.41 h 0q-.15-.72-.29-1.44 l 0-.2q-.14-.73-.26-1.47 h 0 a 110.57,110.57,0,0,1-1.35-16.11 c 0-.41,0-1.11-.1-2 a 12,12,0,0,1,.54-24,7.81,7.81,0,0,1,2,.18,8.77,8.77,0,0,1,2.07.48 c 7,2.89,9.33,1.16,9.33,1.16.32-.08.66-.18,1-.29 a 150.79,150.79,0,0,0,4.11,28.38,56.61,56.61,0,0,1,12,2,78.08,78.08,0,0,1-3,9.78 c 12.79,5.3,21.19,15.42,23.73,23.32 a 162,162,0,0,0-8,24.18,70,70,0,0,0-.65,23.17 C 300,347.67,276.26,367.87,251.39,364.5Z m 72.56-30.19 c -1.21,0-3.73-.73-5.2-5.63 a 19.93,19.93,0,0,0,2.13-.52 A 43,43,0,0,0,323.95,334.31Z M 318,325.25 c .76-.14,1.62-.35,2.25-.51 a 15,15,0,0,0,.25,2.14 c 0,.11.06.24.09.36 a 15.21,15.21,0,0,1-2.12.44 C 318.3,327,318.14,326.15,318,325.25Z m 21.76-42 A 22.3,22.3,0,0,1,333,287 c -.07.57-.16,1.13-.26,1.66 l 0,.11 h 0 a 49.39,49.39,0,0,1-5.87,15.1 c -4.12,7.14-6.46,14-6.63,19.34 a 9.16,9.16,0,0,1-3.62,1 c 1,6.56,2.49,11.63,8.17,11.54,4,6.91,9.58,15.68,11,22.34-8-.86-21.23-11.92-27.36-19.18 a 67.7,67.7,0,0,1,1.15-22.74 A 153.64,153.64,0,0,1,317,293.14 c 8.37-8.73,14.95-18,17.87-28.26 a 95.62,95.62,0,0,0-5.07-9.19 c 1.39-2.91,3-6.42,4.13-8.81,1.71,1.69,3.42,3.22,4.85,4.38 a 21.61,21.61,0,0,1,8.08,14.67 C 347.8,272.59,343.88,279.84,339.77,283.26Z"/>
  </g>
<script type="text/ecmascript" xlink:href="param.min.js"/> 
</svg>
