<?xml version="1.0"?>
<svg xmlns="http://www.w3.org/2000/svg" xmlns:xlink="http://www.w3.org/1999/xlink" viewBox="0 0 215 215">
  <title>basic-tank-top-curvy</title>
  <g id="skin-tone">
    <path d="M 121.69,121.06 c -.08-3.75-.3-10.75-1.48-13.54 a 12.71,12.71,0,0,0-12.7-12.72 c -7,0-12.18,4.16-13.69,12.71,0,0-.7,4.2-1,8.29 s -1.84,16-1.35,27.14,2,22.11,4.65,29.61,5.73,14.6,8.13,17.6,7.27,3.66,10,1.79,4.34-5,4.34-9,1.21-27.93,1.57-34.62 S 121.77,124.81,121.69,121.06Z" fill="param(skin_tone)"/>
  </g>
  <g id="outline">
    <path d="M 122.14,106V106 l 0-.28v0 a 14.7,14.7,0,0,0-29.18,0v0 s -1.72,11.52-2.14,17.07v0 A 166.36,166.36,0,0,0,90.84,153 c 2.15,22.83,11.37,35.88,11.37,35.88 h 0 a 9.06,9.06,0,0,0,17.15-4.05 s 1.23-17.15,1.35-25.65 c .08-5.13,1.82-20.72,2-33.59 h 0 A 136.68,136.68,0,0,0,122.14,106Z m -3.47,48.13 c -.13,7-.49,19.16-.9,26-.08,1.27-.23,3.07-.33,4.15,0,.22-.06.42-.08.56 l 0,0,0,.36 h 0 A 7.05,7.05,0,0,1,104,188 c -.11-.18-.37-.58-.72-1.18-.72-1.26-1.48-2.76-1.77-3.33 a 89,89,0,0,1-6.75-21.14 c -3.4-16.84-2.07-34.5-1.4-42.11.23-2.61.47-4.92.69-6.84 a 45.48,45.48,0,0,1,1.09-8.86 c 0-.09,0-.15.07-.23 a 12.7,12.7,0,0,1,24.4-.74 h 0v0 a 12.66,12.66,0,0,1,.55,2.76,57.42,57.42,0,0,1,.49,7.68 c 0,.88.07,1.82.09,2.82 C 120.86,122.39,118.84,144.78,118.67,154.17Z"/>
  </g>
<script type="text/ecmascript" xlink:href="param.min.js"/> 
</svg>
