<?xml version="1.0"?>
<svg xmlns="http://www.w3.org/2000/svg" xmlns:xlink="http://www.w3.org/1999/xlink" viewBox="0 0 600 600">
  <title>curvy-bottoms-template</title>
  <g id="skin-tone">
    <path d="M 340.22,247.62 h 0 l -.32-.33 a 12.1,12.1,0,0,0-6.08-19.09v-.44 h 0 c -4-2.33-11.4.46-11.4.46 s -.46,1.38-5.08-1.87-4-10.37-4-14.87 c 0-2.15,0-3.55-.13-4.74 a 73.83,73.83,0,0,1-27,0,5.78,5.78,0,0,0-.08.91 c 0,3.5,1.5,4.75-1.75,12 a 20.53,20.53,0,0,1-8.75,9.88,54.44,54.44,0,0,0-11-3.12,13.69,13.69,0,0,0-13.87,6.13 c -4.62,8.75-.12,15.63,3.88,18.5-2.75,22.25,4.62,35.5,7.25,40.25 s 4.63,8.5,5.5,15.13 c 1,9-3.4,15.42-8.75,22.56,3.78,1.78,10.38,4.31,21.32,7,19.37,4.74,45.54,7.67,57.29-6.68 a 48.23,48.23,0,0,1-2-5.25 c -2.5-7.75-1.58-17.67-.5-22.83 s 2.75-9.08,5.08-15.67 a 60.47,60.47,0,0,0,3.75-23.25 C 343.15,252.89,340.22,247.62,340.22,247.62Z" fill="param(skin_tone)"/>
  </g>
  <g id="main-colour">
    <path d="M 348,353.49 h 0 c 0-2.48-2.06-8.6-4.73-13.52-1.91-3.52-3.95-6.24-5.87-10.34 l -.44.47 c -.3-.49-.58-1-.85-1.51-6.92,8.46-20,10.62-37,9 A 149.22,149.22,0,0,1,260.29,328 l -.92,1.28-.81-.35 c -1.74,2.33-3.58,4.72-5.36,7.3-7.25,10.5-10.25,21.38-10.25,26.63 a 38,38,0,0,0,1.14,9.38 c 0,.25,0,.49,0,.74 a 32.84,32.84,0,0,0,55.6,23.68,32.85,32.85,0,0,0,48.74-28.75 C 348.56,366,348.25,355.26,348,353.49Z" fill="param(main_colour)"/>
  </g>
  <g id="outline">
    <path d="M 313.65,318.06 s -5.07,8.72-2.58,9.44 c 1,.2,1.7-1.44.9-3.34 A 29,29,0,0,1,313.65,318.06Z"/>
    <path d="M 309.78,381.07 a 11.07,11.07,0,0,1,0,2 c 1.82-.26,6.35-2.53,7.82-5.6 C 317.58,377.45,315.25,380.25,309.78,381.07Z"/>
    <path d="M 262.37,225.22 s 4.48-.16,12.71,3.26,14.9,5.08,18.65,4.75 c -6,1.17-11.89-.67-16.65-2.33 s -10.24-3.67-14.71-3.67 C 262.37,226.31,262.37,225.22,262.37,225.22Z"/>
    <path d="M 333.81,227.77 s -3-2.13-8.11-1.29-11.37,6.63-16.75,6.5 c 5.38.5,8.35-1.28,11.13-2.37 S 326.54,226.18,333.81,227.77Z"/>
    <path d="M 285.28,206.53 c 0,.36,0,.75,0,1.22,0,0,1.86,15.06-10.9,21.14,1.4.67,2.32,1.08,2.32,1.08 s 11.44-4.18,10.52-23.09Z"/>
    <path d="M 315.32,221.1 c -1.66-3.79-1.05-11.33-1.06-14.57q-1,.21-2.08.38 c -.09,2.67-.51,7.43.47,11.73,1.79,9.08,8,10.76,8,10.76 a 12.14,12.14,0,0,0,1.75-1.18 C 320.15,227.81,317.07,225.1,315.32,221.1Z"/>
    <path d="M 253.69,250.47 a 89.39,89.39,0,0,0,.63,21.36 c 1.75,12.27,5.5,17.39,9.13,24.39 s 6.07,17.93-2.62,28.16 C 244,344.21,242.19,357.88,242.07,373 h 2 s -.37-15.26,4.87-27.05 c 1.86-4.51,9-14.87,13.22-20.44,4.68-6.21,8.26-13,5.25-23.75-2.77-9.94-7.63-12.17-10.77-27.58 a 85.09,85.09,0,0,1-1-22.49Z"/>
    <path d="M 304.61,284.2 c 9-7.43,11.45-24.29-.59-36.44,0,0,9.65,13.53,3.93,27.84-3.67,9.18-13.9,13.54-23.63,12.78 h 0 S 295.6,291.62,304.61,284.2Z"/>
    <path d="M 339.9,330.23 c -3.57-6.17-7-11.63-4.71-27.38,1.29-8,6-17.12,8.13-26.56 a 21.7,21.7,0,0,1-3,4.63 c -2.77,9.31-7.06,18.2-7.51,28.05-.62,13.75,2.14,18.35,5.94,24,8.5,12.55,8.42,23.31,9.64,29.79 C 348.76,357,350.56,345.92,339.9,330.23Z"/>
    <path d="M 344.12,261.09 c -.56-6-2-11.31-3.9-13.47 a 41.54,41.54,0,0,1,2.17,10.15 A 15.77,15.77,0,0,1,344.12,261.09Z"/>
    <path d="M 255.68,250.72 a 12.7,12.7,0,0,1,6.69-23.5 h 0 c .4,0,.83,0,1.27.06 h 0 a 45.74,45.74,0,0,1,8.86,2,14.7,14.7,0,1,0-17.05,23.6 C 255.52,252.46,255.61,251.51,255.68,250.72Z"/>
    <path d="M 308.75,381.09 A 32.85,32.85,0,0,1,244.07,373 s -.09-8.64,1.25-14.67 a 34.84,34.84,0,1,0,65.54,22.55 C 310.39,380.92,309.62,381,308.75,381.09Z"/>
    <path d="M 329.22,236.6 A 85,85,0,0,0,337.73,252 c 6.27,8.92,7,17.79,3,25.75 a 20.31,20.31,0,0,1-12.82,10.3 c 7.38.52,15-6.61,17.5-16.17 a 21,21,0,0,0-4.32-18.28 C 336.49,247.9,331.22,241.28,329.22,236.6Z"/>
    <path d="M 260.46,327.27 s 27.58,12,51.63,10.25 c 9.88-.37,20.38-4,24.25-10.25 a 8.23,8.23,0,0,1,.88,1.5 s -6.51,9.69-25.25,10.32 a 120.56,120.56,0,0,1-52.72-10.57 C 259.24,327.9,260.46,327.27,260.46,327.27Z"/>
  </g>
<script type="text/ecmascript" xlink:href="param.min.js"/> 
</svg>
