<?xml version="1.0"?>
<svg xmlns="http://www.w3.org/2000/svg" xmlns:xlink="http://www.w3.org/1999/xlink" viewBox="0 0 600 600">
  <title>basic-bikini-top-curvy</title>
  <g id="main-colour">
    <path d="M 256.05,277.71 s 13.5,8.42,21.42,8.42 c 1.92-14.42,11.58-27.83,11.58-27.83 s -5.33-19.58-12.33-30.17 a 11.35,11.35,0,0,0,3.25-2.25 s 10.25,19.42,14.67,32 c 6.83,2.5,16.08,7.33,20.17,12.92 S 318,282,316.89,283.88 a 54.31,54.31,0,0,1,7.17-.58 s 3.5-19.58,11.58-28.92 c -6.5-10.08-14.5-21.58-17.83-28.92 a 10.34,10.34,0,0,0,2.75,2.42 S 334.22,247.3,338.72,253 c 5.83,2,9.58,3.83,11.58,6.5,2.08,5.67,2.67,10.5-.08,17.5 s -13.17,15.58-26.92,9.08 c -3.25-.33-9.17,1-9.17,1 s -6.33,8-16.83,8-24.33-2.83-40.25-13 A 24.1,24.1,0,0,1,256.05,277.71Z" fill="param(main_colour)"/>
  </g>
  <g id="outline">
    <path d="M 351.05,259.46 c -3.58-4.75-12-7.25-12-7.25 s -14.67-19.42-18.5-24.75 a 14.73,14.73,0,0,1-4.6-5.11 c 3.5,8.92,18.85,31.95,18.85,31.95 s -7,8.25-11.25,28.67 a 16.58,16.58,0,0,0-5.83.68 c .95-2.52,4.65-16.3-22.5-26.26 a 302.82,302.82,0,0,0-15.08-32.67 s -2.62,2.67-4.12,3.29 c 2.13,3.25,9.75,18.5,12.38,30-6.62,10.5-10.12,16.25-11.5,27.75-7.37-1.5-17.12-5.87-21.87-9.62 a 60.24,60.24,0,0,0,1.54,6.25 s 15.5,10.92,34.5,13.58 c 12.81,1.8,20.39-4.24,24-8.37,1.82-.56,5.45-1.48,7.86-.88,5.25,2.92,9.42,2.75,13.83,2.17,4.23-.56,10.5-4.33,14-11.33 A 22.23,22.23,0,0,0,351.05,259.46Z m -52.58,35.17 c -7.67,1.08-18.75-2.75-25.83-5.25 a 89.44,89.44,0,0,1-15.08-7.58 l -.92-3.25 A 51.84,51.84,0,0,0,278,287 a 69.92,69.92,0,0,1,11.92-28.25 c -2.08-9-7.87-24-12.31-30.23 a 19.85,19.85,0,0,0,2.25-1.81 c 2.63,4.81,11.81,24.56,14.19,31.81,9.19,3.06,25.71,11.06,22.54,24.4 C 312.05,289.88,306.14,293.55,298.47,294.63Z m 49.33-15.08-.13.2 a 20.68,20.68,0,0,1-4.19,2.69,11,11,0,0,0,.82-4.3,17.67,17.67,0,0,1-1.79,4.75 A 30.51,30.51,0,0,1,327.8,285 s 10.85,2.66,18.65-3.62 c -5.42,6.45-16.64,7.65-22.9,4.29 a 27.5,27.5,0,0,0-7.49.59 c .52-.68.89-1.26,1.14-1.66 a 18,18,0,0,1,7.35-.69 c 1.75-7.5,5.33-21.92,11.83-29.58-4.75-7.25-14.17-20.33-17.17-27,.83.67,1,.67,1,.67 s 13.83,20.17,18.25,25.5 c 4.25,1.08,8.92,3.08,11.5,6.5 C 351.72,264.79,352.76,271,347.8,279.54Z"/>
    <path d="M 300.55,291.22 a 17.79,17.79,0,0,0-1-6.09,21,21,0,0,1,.22,6.24 c -8.57,1.4-18.63-1.66-18.63-1.66 s 10,4.42,19.25,2.58 a 25.1,25.1,0,0,0,14.42-9.17 S 309,289.53,300.55,291.22Z"/>
  </g>
<script type="text/ecmascript" xlink:href="param.min.js"/> 
</svg>
