<?xml version="1.0"?>
<svg xmlns="http://www.w3.org/2000/svg" xmlns:xlink="http://www.w3.org/1999/xlink" viewBox="0 0 215 215">
  <title>hourglass-top-template</title>
  <g id="skin-tone">
    <path d="M 116.94,99.93 a 12,12,0,0,0-16.88-2,12.43,12.43,0,0,0-4.1,12.8,84.42,84.42,0,0,0-.78,8.47 c -.34,8.46.87,29.52,2.48,40.66 s 2.53,16.71,5.78,25.28 c 1.44,3.64,2.31,6.77,6,6.23 s 4.64-3.81,5.15-7.4,1.58-22.81,1.58-30.28-.09-24,.73-29.38 c .53-3.5,1.66-9.05,2-13.15 A 12,12,0,0,0,116.94,99.93Z" fill="param(skin_tone)"/>
  </g>
  <g id="main-colour">
    <path d="M 119.31,112 s -9.5,4.38-24.25-.25 c 0,5.38-.12,11.88-.12,11.88 s 12.5,5.25,22.37-.12Z" fill="param(main_colour)"/>
  </g>
  <g id="outline">
    <path d="M 119.38,105.59 c .23,2.09-.46,3.81-1.07,6-9.44,3.07-19.48.73-22.33-.06,0-.26,0-.52,0-.76 a 13,13,0,0,1-.41-3.36v-2.51 a 3.59,3.59,0,0,0-2,3.5,13.53,13.53,0,0,0,.43,3.27,235,235,0,0,0,1.39,37 c 2.69,24.16,4.85,32.3,8.16,39.62 a 6.51,6.51,0,0,0,.63,1.35 l .07.14,0,0 c .12.18.24.36.38.54 a 5.91,5.91,0,0,0,8.29,1,5.85,5.85,0,0,0,1.92-2.71 h 0 c .08-.28.16-.61.23-1,0,0,0-.1,0-.15.23-1.19.41-2.6.48-3.29.33-3.49,2.11-38.5,2-50.35 S 121.64,110.71,119.38,105.59Z m -1.52,7.74 c -.69,3.24-1.15,6.9-1.5,10-7.75,3.23-17.48.82-20.49-.07v-.06 c .07-3.28.17-7.25.14-10.43 A 34.89,34.89,0,0,0,117.86,113.33Z m -2.73,45.06 c -.2,4.37-.67,12.92-.88,17.43-.09,1.87-.19,4.16-.34,6.37 a 41.59,41.59,0,0,1-.87,5.32,3.87,3.87,0,0,1-1.37,2.2,3.78,3.78,0,0,1-4.88,0 s -.21-.2-.23-.19 c -1-.81-2.61-4.62-2.83-5.15 a 95,95,0,0,1-4.5-18.23 C 98,156.77,96,132.77,95.87,124.64 c 10.59,3.63,17.88,1.4,20.3.4-.17,1.53-.31,2.87-.45,3.88 C 115,134.09,115.35,153.71,115.14,158.39Z"/>
  </g>
<script type="text/ecmascript" xlink:href="param.min.js"/> 
</svg>
