<?xml version="1.0"?>
<svg xmlns="http://www.w3.org/2000/svg" xmlns:xlink="http://www.w3.org/1999/xlink" viewBox="0 0 150 150">
  <title>BT002_OA029</title>
  <g id="skin-tone">
    <path d="M 65,81.42 a 10.82,10.82,0,0,0,3.5-3.56 c 1.13-2.12.56-4.87,2.56-6.5 s 4.81-2.69,7.69-.37,1.19,5,1.69,7.56-.44,2.88-1.81,3.38-4.37.19-5.81.31-3.25.5-3.94,1.31 a 15.74,15.74,0,0,1-2.94-.75Z" fill="param(skin_tone)"/>
  </g>
  <g id="main-colour">
    <path d="M 85.7,88.19 c -1-2.84-4-4.75-4.92-7.67 A 6.1,6.1,0,0,1,76,82.11 a 14.79,14.79,0,0,0-7.17,1.44 c -2.42-.35-3.25-1.06-3.87-2.12-2.79,1.35-4.37,4.85-6.54,7.1 S 51.09,95.61,47,96.69 s -5.42,2-6,5.33,1.67,7.33,4.92,9.75 c 7.58.08,14.75.17,16.33.17 s 2.5-.33,4.75-4,5.17-6.5,8.58-7.83,7-2,9.08-4.08 S 86.95,91.78,85.7,88.19Z" fill="param(main_colour)"/>
    <path d="M 84.78,96.19 a 9.4,9.4,0,0,1-4.17,2.25,35.81,35.81,0,0,0-8.08,3.67 c .83,2.42,1.83,7.58,1.25,10.17 a 41,41,0,0,0,5.75-.08,42.82,42.82,0,0,1,1.58-7.33 C 82.2,101.69,84.87,97.36,84.78,96.19Z" fill="param(main_colour)"/>
  </g>
  <g id="fixed-colours">
    <path d="M 70.45,86.65 c -.53-.35-1.29-.17-1.79,1 s .42,1.88,1.33,1.5 S 71.53,87.36,70.45,86.65Z" fill="#bcbec0"/>
    <path d="M 66.95,91.53 c -.35-.6-1.42-.25-1.92.5 a 1.15,1.15,0,0,0,.29,1.79 A 1.5,1.5,0,0,0,66.95,91.53Z" fill="#bcbec0"/>
    <path d="M 62.62,95.94 c -.26-.6-1.37-.33-1.92.13 a 1.22,1.22,0,0,0,0,1.79 C 61.16,98.19,63.45,97.86,62.62,95.94Z" fill="#bcbec0"/>
    <path d="M 58,99.07 c -.24-.71-1.21-.71-1.92-.12 a 1.12,1.12,0,0,0-.37,1.5 c .17.33.83.75,1.75.17 A 1.1,1.1,0,0,0,58,99.07Z" fill="#bcbec0"/>
  </g>
  <g id="outline">
    <path d="M 87.49,91.49 a 11.33,11.33,0,0,0-3-7.62 C 81.9,81,81.28,79.78,81.43,78 c .12-1.42.32-3,.32-3 A 6.76,6.76,0,0,0,75,68.25 h 0 A 6.76,6.76,0,0,0,68.25,75 a 7.33,7.33,0,0,1-1.2,3,6.63,6.63,0,0,1-2.27,2.63,19.56,19.56,0,0,0-5,5.17,35.42,35.42,0,0,1-9.5,8.75 c -4.5,3-5.83.58-8.5,3.75 s -1.67,7.08-.75,9.33,3.25,5.17,4.92,5.17 H 63.53 c 2.42,0,3.33-3.42,5.92-6.92 a 15.54,15.54,0,0,1,2.48-2.64 c 1.62,4,1.2,9.55,1.2,9.55 H 80.3 c .18-5.83,2.7-12.21,4.45-14.38 a 7.56,7.56,0,0,0,1.51-3 A 7.57,7.57,0,0,0,87.49,91.49Z M 70.25,75 A 4.75,4.75,0,0,1,75,70.25 h 0 A 4.75,4.75,0,0,1,79.75,75 a 17.8,17.8,0,0,0,.34,5.38,6.9,6.9,0,0,1-4.72,1.42 c -2.65-.12-4.78.08-6.74,1.32 a 5.74,5.74,0,0,1-2.95-1.52 l .85-.66 A 8.91,8.91,0,0,0,70.25,75Z m -5.34,7.22 a 4.42,4.42,0,0,0,2.78,1.6,10.63,10.63,0,0,0-1.08,1 c -.26.29-.49.58-.71.86 a 29,29,0,0,0-3.65-.61 l .27-.41 A 9.4,9.4,0,0,1,64.91,82.21Z m .24,4.58 c -.31.48-.6,1-.88,1.44-.46-.67-.95-1.3-1.37-1.82 C 63.55,86.5,64.32,86.62,65.15,86.8Z m -3.84-.4 c .42.6,1.26,1.85,2.11,3.21-.27.42-.58.84-.93,1.28-1.69-.45-3.24-.81-4.16-1 C 59.55,88.59,60.57,87.37,61.31,86.4Z m 4.24,5.95 a .59.59,0,0,0,.37-.7 h 0 a .81.81,0,0,1,.75.08,1.14,1.14,0,0,1-1.31,1.8.73.73,0,0,1-.25-.37 A .94.94,0,0,0,65.55,92.35Z M 64,90.59 l .5.87-1-.29Z M 62.38,96 a 1.14,1.14,0,0,1-1.6,1.54.73.73,0,0,1-.18-.41 h 0 s .74-.13.65-.76 a .7.7,0,0,0,.35-.58 A .82.82,0,0,1,62.38,96Z m -2.24-.51 c -.27-.14-.54-.28-.82-.41 l .4-.33 C 59.86,95,60,95.29,60.14,95.54Z m -1.75-.8 c -.76-.3-1.53-.56-2.24-.77-.17-.57-.34-1.07-.49-1.47q.72-.65,1.39-1.31 a 30.69,30.69,0,0,1,2.18,2.87Z m -1.15.88-.55.41q-.08-.35-.16-.7Z m -2.53-2-.22-.06.17-.14Z m 4.6-2.17 c .77.18,1.52.38,2.23.58-.34.36-.72.73-1.15,1.12 C 60,92.49,59.67,91.91,59.31,91.4Z M 42.2,105.53 c -1.25-3.75.84-7,2.33-7.5.22-.07.46-.13.7-.18 a 8.5,8.5,0,0,1,6.3,1.68 c -.37-1.44-1.81-2.12-3.07-2.43 a 17.29,17.29,0,0,0,5-2.75 c .51.11,1.05.27,1.6.45.18.73.33,1.46.46,2.11-1.67,1.21-2.73,2-3.34,3.13-1.12,2.08-.17,4.63.5,6.88 a 18.92,18.92,0,0,1,.65,4.29 H 46.62 C 45.62,111.19,43.45,109.28,42.2,105.53Z m 22.75,3.92 a 3.61,3.61,0,0,1-2.83,1.75 H 54.25 a 17.73,17.73,0,0,0-.68-5 c -.81-2.62-1.52-5.1,0-6.67 a 18.78,18.78,0,0,1,2.06-1.68 l .12.72 a 1.73,1.73,0,0,0-.54,2.22,2,2,0,0,0,3.25-2.21 A 1.52,1.52,0,0,0,57,98.05 c 0-.34-.07-.69-.12-1 l 1.31-1 c .67.3,1.24.57,1.67.79 a 1.46,1.46,0,0,0,.31,1.38 A 2,2,0,0,0,63,95.46 a 1.52,1.52,0,0,0-1.6-.3,12,12,0,0,0-.58-1.3 c .42-.37.86-.76,1.3-1.19 l .41-.4 c .72.22,1.34.43,1.8.59 a 1.47,1.47,0,0,0,.54,1.34 A 2,2,0,0,0,67.17,91 a 1.47,1.47,0,0,0-1.44-.1,9.3,9.3,0,0,0-.79-1.63 c .53-.83.91-1.57,1.29-2.23 a 19.37,19.37,0,0,1,2.07.67 A 1.64,1.64,0,0,0,69,89.63 a 2,2,0,0,0,1.8-3.49,1.62,1.62,0,0,0-1.89.49 c -.46-.18-1.12-.41-2-.65 a 6,6,0,0,1,1-1.05,9.34,9.34,0,0,1,6.5-2.25 c 2.62.11,3.95.61,6-1.22.67,1.61,1.72,2.6,2.92,4.16 a 8.43,8.43,0,0,1,1.88,7.56 c -.42,2.67-2.62,4.27-4.87,4.94 s -5.92,1.42-9.08,3.92 A 30,30,0,0,0,64.95,109.44Z M 57.8,99.1 A 1.14,1.14,0,0,1,56,100.35 a .88.88,0,0,1,.07-1 c .28.08.92.18,1-.58 A .83.83,0,0,1,57.8,99.1Z M 69,88 A .71.71,0,0,0,69.68,87 l 0,0 a .81.81,0,0,1,.76,0,1.14,1.14,0,0,1-1,2 A .87.87,0,0,1,69,88Z m 10,23.68 h -4.5 a 27.34,27.34,0,0,0-1.23-9.46,25.67,25.67,0,0,1,7.6-3.34,12.8,12.8,0,0,0,2.93-1.21,40.61,40.61,0,0,0-2.7,5.29 A 58.47,58.47,0,0,0,78.95,111.69Z"/>
  </g>
<script type="text/ecmascript" xlink:href="param.min.js"/> 
</svg>
