<?xml version="1.0"?>
<svg xmlns="http://www.w3.org/2000/svg" xmlns:xlink="http://www.w3.org/1999/xlink" viewBox="0 0 250 250">
  <title>OA030-strappy-heel-voluptuous</title>
  <g id="main-colour">
    <path d="M 107,211.27 s 9.92,3.92,18.42-.83 a 40.61,40.61,0,0,0,.17,5.83 s -6.42,4.5-16.08,1.25 A 23.27,23.27,0,0,0,107,211.27Z" fill="param(main_colour)"/>
  </g>
  <g id="fixed-colours">
    <path d="M 113.92,212.9 a 23.69,23.69,0,0,1-6.62-1.46 s 1.38,3.29,2.58,6.08 c 1.46.92,5.25,1.08,5.25,1.08 S 114.38,214.86,113.92,212.9Z M 111,216.52 l -.87-2.83,2.17.5.75,2.67Z" fill="#d1d3d4"/>
  </g>
  <g id="outline">
    <path d="M 125.94,209.29 c -7.44,5.75-20.23,1-20.23,1 s 1.6,3,3.67,7.83 c 8.31,3.88,16.94-1.44,16.94-1.44 S 126.06,212.61,125.94,209.29Z m -17.85,2.77 a 24.07,24.07,0,0,0,5.44,1.16 l 1.16,4.92 a 14.11,14.11,0,0,1-4.43-1 C 108.94,214,108.08,212.06,108.08,212.06Z m 7.3,6.12-1-4.89 a 20.73,20.73,0,0,0,10.35-1.75 c .13,2.31.25,4.44.25,4.44 A 21.68,21.68,0,0,1,115.38,218.19Z"/>
    <path d="M 112.56,213.92 a 15.57,15.57,0,0,1-2.81-.53 s .56,1.47,1.13,3.22 a 21.17,21.17,0,0,0,2.5.5 S 113,215.36,112.56,213.92Z m -2.17.06,1.88.41.55,2.28-1.62-.31Z"/>
  </g>
<script type="text/ecmascript" xlink:href="param.min.js"/> 
</svg>
