<?xml version="1.0"?>
<svg xmlns="http://www.w3.org/2000/svg" xmlns:xlink="http://www.w3.org/1999/xlink" viewBox="0 0 215 215">
  <title>v-neck-t-shirt-dress-slender</title>
  <g id="skin-tone">
    <path d="M 96.83,133.89 c .25,3.33.53,6.82.86,10.4,1.8,19.59,5.19,38.23,6.46,43.39 h 0 a 5.31,5.31,0,0,0,10.59-.55 s .15-13.1,1.06-27 c .52-8,1.29-17.83,1.93-25.78 A 56.44,56.44,0,0,0,96.83,133.89Z" fill="param(skin_tone)"/>
  </g>
  <g id="main-colour">
    <path d="M 94.41,119.3 c -.25,2-2.19,13.19-3.56,15.77.79.92,5.78,2.84,5.9,2.84 s 0-2.83-.09-4 a 33.35,33.35,0,0,1,10.37-.81,59.83,59.83,0,0,1,10.81,1.44 l -.25,3.88 s 4.06-1.87,4.81-2.87 c -.92-1.37-2.87-25.15-3.12-27.06 l -.61-1.66 a 11.19,11.19,0,0,0-22.38.6 l -.89.37Z" fill="param(main_colour)"/>
  </g>
  <g id="outline">
    <path d="M 123.06,135.89 c -.58-3.9-2.87-21.64-2.89-23.46 h 0 c -.08-1.19-.11-2-.11-2 h 0 c -.34-3.47-1.18-4.5-1.5-4.76 a 11.19,11.19,0,0,1,.14,1.62 c 0,.8,0,2-.06,3.15 h 0 c 0,.44.06,1.14.11,2,0,0,1.75,16.79,2.51,22.15 a 58.51,58.51,0,0,0-29.08-.38 c 2.79-9.2,4-21.76,4-21.76.1-.87.18-1.73.22-2.53 h 0 c -.05-1.39-.08-2.45-.08-2.45 a 11.2,11.2,0,0,1,.14-1.73 l -.08,0 a 4.53,4.53,0,0,0-1.95,4.15 s -.1,1-.3,2.53 c 0,0-1.34,14.4-4,23.08.82,1.13,4.73,2.7,6.1,3.23.27,3.42.57,6.87.9,10.19 a 345.37,345.37,0,0,0,6.26,39.24,6.16,6.16,0,0,0,.2.86 h 0 a 6.21,6.21,0,0,0,12.13-1.91 c 0-7.87,1.67-35.35,2.73-48.41 C 119.82,138,122.26,136.81,123.06,135.89Z m -30.46-.52q1.61-.44,3.26-.73.08,1.11.17,2.23 A 32.86,32.86,0,0,1,92.6,135.37Z m 21.91,32.17 c -.26,5.43-.51,11.34-.67,15.24,0,2.32-.18,4.36-.18,4.36 a 4.2,4.2,0,0,1-8,1.78 l -.07-.16 c -.43-1.13-1.35-4.89-1.35-4.89-1.78-8-4-23-5.32-34.72-.47-4.31-.88-9.52-1.22-14.78 a 67.39,67.39,0,0,1,19.21.61 C 115.85,148.55,114.73,162.95,114.51,167.54Z m 4.13-31.8,0-.45 c 1,.18,1.75.35,2.31.48 a 15.92,15.92,0,0,1-2.46,1.27 C 118.56,136.58,118.6,136.14,118.64,135.73Z"/>
  </g>
<script type="text/ecmascript" xlink:href="param.min.js"/> 
</svg>
