<?xml version="1.0"?>
<svg xmlns="http://www.w3.org/2000/svg" xmlns:xlink="http://www.w3.org/1999/xlink" viewBox="0 0 600 600">
  <title>basic-v-neck-t-shirt-slender</title>
  <g id="main-colour">
    <path d="M 309.61,246.69 c -16.56-.31-24.38-14.85-25.54-18.44 a 14.27,14.27,0,0,1-2.16.69 c -7.45-6.36-19.55-1.14-20,7.95 s 6,12.33,9.33,13.42 c -1.25,5.92,1.32,21.18,2.47,27.83,1.63,9.38,4.66,20.41,6.5,28.91,3.38,15.59.78,18.59-6.39,31 a 122.54,122.54,0,0,0-8,15.58,34.26,34.26,0,0,1,12.37,0 c 10.25,1.69,21.53,4.94,32.79,4.69,9.52-.21,16.29-3.28,19.52-6.78-.66-1.6-1.59-3.6-2.87-6.15-4-7.92-4.57-12.7-4.73-21.12 s 1.82-20.63,3.91-27.88,6.59-18.59,7.33-30.33 c .59-9.21-1.19-15.76-3.59-20.81 a 11.19,11.19,0,0,0-8.88-18 c -2,0-3.75-.61-5.36.29 a 13.49,13.49,0,0,0-2.12,1.06 S 315.79,241.32,309.61,246.69Z" fill="param(main_colour)"/>
  </g>
  <g id="outline">
    <path d="M 330.18,352.76 a 11.12,11.12,0,0,0,1.31-1.22,61.6,61.6,0,0,0-2.52-5.91 c -3-6.13-5.8-11.93-4.5-26.84,1-11.72,5.23-25.16,8.13-37.27 a 14.84,14.84,0,0,1-2.81,1.72 c -5.92,20.79-10.18,35.49-7.32,50.47,1.62,7.4,5.14,12.84,7.71,19.05Z"/>
    <path d="M 284.41,226.93 a 11.64,11.64,0,0,1-2.89.89 c -.18,1.23,1.49,1.9,1.49,1.9 a 9.26,9.26,0,0,0,2.17-.83 S 284.8,228,284.41,226.93Z"/>
    <path d="M 316.63,226.24 a 18.37,18.37,0,0,0-3.58,2,11.12,11.12,0,0,1,.81,1.53,21.51,21.51,0,0,0,2.77-1.33 l .54-.24 a 11.26,11.26,0,0,1,8.35-.33 C 322.94,225.38,318.51,225.38,316.63,226.24Z"/>
    <path d="M 327.9,240.25 a 41.31,41.31,0,0,1,6.73,17.23 c 1.67,10.58-.86,19.54-2,24-1.57,2.57-2.81,1.72-2.81,1.72 S 338,260.57,327.9,240.25Z"/>
    <path d="M 274,227.22 a 11.14,11.14,0,0,1,6.16,1.85 h 0 l 1.56.85 c .76-.15,1.54-.21,2.07-.37 a 13.53,13.53,0,0,0-9.78-4.33,13.2,13.2,0,0,0-1.54,26.31 c 0-.54,0-2,0-2 h 0 A 11.2,11.2,0,0,1,274,227.22Z"/>
    <path d="M 271.23,268.19 c 2.5,9.5,6.15,21.81,8.36,31.38,1.85,8,3.7,15.63,3,23.92-.69,7.75-2.53,16.72-6.19,22.39,4.07-9.88,5.5-23.87,2.82-37.26 C 276.65,296.07,271.29,273.38,271.23,268.19Z"/>
    <path d="M 264.23,355.19 s 5-2.44,17.25-.19,37,8.88,49.25-2.75 a 4.6,4.6,0,0,0-.5-1.25,31.28,31.28,0,0,1-18.75,6.5 c -11.37.13-19.5-2-24.62-3 s -16.81-3.87-21.62-1.12 A 9.68,9.68,0,0,0,264.23,355.19Z"/>
    <path d="M 276.68,288.08 a 154.43,154.43,0,0,1-3.2-19,89.38,89.38,0,0,1-1-18.68 h -2.55 a 112.56,112.56,0,0,0,1.33,18.33 A 116,116,0,0,0,276.68,288.08Z"/>
    <path d="M 266.72,354.49 h 0 c .81-2,1.64-3.8,2.37-5.23,2.54-5,9.81-16.3,13.37-25.29 a 71.2,71.2,0,0,0,.06-8.44 h 0 c -2,11.61-12,24.94-16.6,34.86-.76,1.64-1.41,3.25-2,4.81 C 265.62,354.71,266.72,354.49,266.72,354.49Z"/>
    <path d="M 270.73,350.63 s 3.25-1.12,13.75,1.5,31,6.25,40.25.5 A 41.37,41.37,0,0,1,310.86,355 a 127.21,127.21,0,0,1-23.21-2.83 C 280.27,350.56,273.61,349.25,270.73,350.63Z"/>
    <path d="M 284.41,226.93 s 4.63,16.72,25,18.93 c 5.83-4.71,3.61-17.61,3.61-17.61 l 2.06.67 s 2.5,11.58-5.12,18.58 c -8.58.42-21.79-6-26.67-17.92 A 7.36,7.36,0,0,1,284.41,226.93Z"/>
    <path d="M 286.19,237 s 8.93,12.19,24.68,11.63 c 4.5-4.12,6.3-10.67,6.11-16.67,1.13,4.81-1.23,13.67-5.92,17.3 C 304.31,249.49,293,247.21,286.19,237Z"/>
  </g>
<script type="text/ecmascript" xlink:href="param.min.js"/> 
</svg>
