<?xml version="1.0"?>
<svg xmlns="http://www.w3.org/2000/svg" xmlns:xlink="http://www.w3.org/1999/xlink" viewBox="0 0 600 600">
  <title>nurse-voluptuous</title>
  <g id="main-colour">
    <path d="M 368.86,387.71 c -.67-10.33-1.67-36.17-5.33-47.83-2.56-8.15-7.57-18.25-13.59-25-.28-.5-.56-1-.86-1.48-3.74-6.12-7.64-11-8.26-15.9 s 3.88-17.5,6-27-.49-15.61-.49-15.61 l -.22-.53 a 16.57,16.57,0,0,0-9.16-26.89 h 0 c -1.56-1-4.23-1-7.38-.45-.66-4.79-7.38-6.78-7.38-6.78 a 18.06,18.06,0,0,1,0,3 l -.12-.25 c -.85,7.3-3,13.38-4.56,15.93-1.92,3.17-7.75,8.92-10.49,12.51-1.4-3.49-8.85-9.43-13.26-11.84 a 42.81,42.81,0,0,1-12.83-10.83,10.48,10.48,0,0,1-1.29-2.32 c 0-.06,0-.12,0-.18 a 8.65,8.65,0,0,1-.49-1.08,17.14,17.14,0,0,1-.49-2.15 l -.08.18 a 9.55,9.55,0,0,1-.19-3 c -5.77,1.31-6.31,5.42-6,8.12 a 49.32,49.32,0,0,0-11.5-2.15 c -6.75-.25-13.12,4.13-15.87,9.63 s -2.75,12.13,1.5,18.75 c -2.47,13.44.3,22.88,3.62,33.57 a 44.16,44.16,0,0,1-2.33,13.67 c -4,11.17-7.67,16-12.5,27 s -11.83,29.33-10.67,51.5,4.67,32.83,4.5,40.5 a 148.38,148.38,0,0,1-1.67,17 S 234,437,247.19,440 s 35,10.83,65.5,10.33,47.83-9.17,63.67-23.17 C 369.36,415.54,369.52,398,368.86,387.71Z" fill="param(main_colour)"/>
  </g>
  <g id="fixed-colours">
    <path d="M 274.11,222.88 s -.5,6.25,3,9.63 S 293,242.75,293,242.75 l -.25,1.38 s -10.87-4-16.12-9.25-4-9.12-3.62-10.12Z" fill="#fff"/>
    <path d="M 294,249.13 s 9.75,1,12.67,1.75 a 4.44,4.44,0,0,1,1,2.42 l -13-2.08Z" fill="#fff"/>
    <path d="M 308.61,253 a 39.34,39.34,0,0,1,14.58-7.92,12.57,12.57,0,0,1,.33,2 s -10.08,3.25-14.08,7.75Z" fill="#fff"/>
    <path d="M 328.69,225 s 0,5.83-7.58,12.92 a 10.57,10.57,0,0,1,.83,2 s 7.89-7.25,7.61-12.33Z" fill="#fff"/>
    <path d="M 277.36,261.21 s 10.67,2.42,21,.42 a 30.81,30.81,0,0,1-.08,4 s -11.33,2.17-20.58-.58 A 24.8,24.8,0,0,1,277.36,261.21Z" fill="#fff"/>
    <path d="M 324.36,261 a 43.15,43.15,0,0,0,5.75.38 c .13,1,.31,1.88.31,1.88 l 2.69.19.13,1.75 s -2.56.63-8.12-.69 C 324.73,262.94,324.36,261,324.36,261Z" fill="#fff"/>
    <path d="M 337.86,260.63 l .25,2.06-2.25.5.13,1.75 s 5.94-.87,7-1.87 c -.37-2.87-.37-3.37-.37-3.37Z" fill="#fff"/>
    <polygon points="282.61 272.46 286.02 272.38 286.11 269.63 289.02 269.63 289.36 272.21 292.27 272.21 292.19 274.8 289.11 274.96 288.94 277.88 285.86 277.96 286.02 275.13 282.77 275.13 282.61 272.46" fill="#f0356a"/>
    <path d="M 330.19,261.59 l .23,1.67,2.69.19.38,5.23 a 2.87,2.87,0,0,0-1.75,2.63 c .08,1.88,1.71,2.42,3.17,2.25 a 2.68,2.68,0,0,0,2.38-2.79,2.59,2.59,0,0,0-1.33-2.08 c 0-1.87-.08-5.48-.08-5.48 l 2.25-.5-.25-1.85Z" fill="#d6d6d6"/>
  </g>
  <g id="outline">
    <path d="M 367.22,351.54 c -3.67-23.5-19.75-43.67-22.5-47.67 s -3.17-7.17-2.33-11.83,3.92-14.73,3.92-14.73,5-13.94-.12-22.85 c 1.42,4.75,1.65,13.58-3.13,27.17-4.19,14.31-4.69,18.44,2,26.92,4.5,5.71,12.83,20.83,17.5,33 s 4.83,42.33,5.5,51.33.67,20.67,6.83,34.67 c -16.17,14.2-32.69,18.55-49.76,20.57.3-4.8,2.11-34.63,1.08-52.07-1.12-19-2.75-32.37-6.75-48 s -6-27.12-5-39.5,3-34.37-2.5-49.12 c -.63-1.71-1.25-3.21-1.88-4.55 a 48.46,48.46,0,0,1,14.23-7.32,65.34,65.34,0,0,0-1.77-7.23 c 1.46-1.18,6.6-5.63,7.6-10.77 a 8.86,8.86,0,0,0,.16-2,20.6,20.6,0,0,1,6.76-.09 c -1.87-1.47-5.55-1.44-6.94-1.37-1-4.21-5.59-6.14-8.48-6.88,0,0-.26,14.79-6.89,22.17-4.05,4.51-6.58,7.87-7.29,8.83-3.26-4.74-7.32-7.18-14.45-12-10.62-7.12-14.5-12.12-14-19,0,0-4.5-.62-7,5.13 a 6.18,6.18,0,0,0-.51,2.59,48.14,48.14,0,0,0-8.43-1.77,18.61,18.61,0,0,0-17.56,29.06 c -1.25,6.44-1.5,15.69.31,22.88 a 95.09,95.09,0,0,0,3.66,11 c -1,17.59-10.18,28.76-18.77,50.62-8.83,22.5-8.5,48.33-5.5,61.67 s 3.17,28,.5,38.17 c 9.5-.67,27,4.17,44.5,8.5 s 36,6,59.33,3,41.5-14.33,48.33-22.33 C 368.72,416,370.89,375,367.22,351.54Z m -57.67-97.76-.44-.86 a 56.91,56.91,0,0,1,13.59-7.47 c .11.44.21.84.28,1.17 A 68.19,68.19,0,0,0,309.55,253.79Z m -3.72-2.65 c .3.44.58.9.86,1.37-3.15-.6-7.09-1.24-11.22-1.63q-.18-.65-.34-1.28 C 296.71,249.76,301.36,250.25,305.83,251.14Z m 22.89-21.43 c -.89,3.63-5.58,8.23-6.62,9.22-.12-.37-.24-.73-.36-1.07 a 35.91,35.91,0,0,0,5.23-6.64,16.57,16.57,0,0,0,1.78-4.65 A 6.51,6.51,0,0,1,328.72,229.71Z m -5.83-8.42 a 9,9,0,0,1,5.26,3.76 c 0,2-1,6.07-6.63,12.17-.47-1.31-.86-2.27-1.08-2.78 C 322.3,229.55,323.24,224.2,322.89,221.29Z m -7.26,21.46 a 22.56,22.56,0,0,0,4.15-6.67 c .54,1.59,1.95,5.84,2.74,8.72 a 43.45,43.45,0,0,0-13.65,7.69 c -.23-.41-.45-.8-.69-1.18 A 80.3,80.3,0,0,1,315.62,242.75Z m -10.42,7.51 A 65.83,65.83,0,0,0,295,249 c -.95-3.77-1.53-7-1.78-8.52 C 297.2,243,302.22,246.35,305.2,250.26Z m -27.31-29.14 c -.37,6.63,7.13,13.88,10.88,16.5.61.43,1.38.92,2.24,1.46.1.66.25,1.53.43,2.54-1.65-1-6.76-4.14-9-5.67-2.66-1.77-8.34-4.5-7.73-12.73 A 4.78,4.78,0,0,1,277.89,221.13Z m -4,3.54 a 11.22,11.22,0,0,0,4.22,9.12,136,136,0,0,0,13.5,8.52 l .15.78 c -2.9-1.23-10-4.52-15.06-9.09 C 273,230.74,272.77,227.21,273.84,224.67Z M 262.89,443 c -7.67-1.83-23.83-7.17-34.17-6.67,2.83-9,.83-27.5-1.17-38.17 s -3.33-30,1.83-47.33,12-30.67,16.5-40.5 a 68.6,68.6,0,0,0,5-18.62 c .53,1.36,1,2.56,1.28,3.55,1.19,3.88,3.25,11.38,3.56,14.31,0,0-1.12-13.5-4.87-24.12 s -5.17-19.54-3.17-31.62 c -4.25-4.58-4.83-13.25-.83-19.25 a 16.87,16.87,0,0,1,15.25-7.5,43.39,43.39,0,0,1,9.7,1.89 c 1.77,5.81,10.3,12,20.21,15.85 a 68.54,68.54,0,0,0,1.92,7.51 c 4.58.42,9.71,1.2,13.69,1.87,4.83,9.26,7.16,23.24,6,36.8-1.25,15.25-3.37,29.38.63,45.13 s 8.75,32.63,9.63,58.63 c .79,23.6-.57,49-.83,53.55-2.51.27-5,.5-7.57.7 C 295.05,450.71,270.55,444.88,262.89,443Z"/>
    <path d="M 276.47,260.29 s -.22,11.39.63,17 A 40.64,40.64,0,0,0,287.37,284 s 8.81-4.71,10.93-6.67 c .57-7.79.93-16.65.93-16.65 S 287,262.94,276.47,260.29Z m 11,21.91 a 59.91,59.91,0,0,1-9.16-5.88 s -.25-6.11-.32-10.49 c 7.88,2,17.14.89,19.49.57-.31,4.78-.57,10-.57,10 S 289.75,281.08,287.51,282.2Z m 10.29-19.78 c -.06.8-.12,1.67-.18,2.59-8.14,1.91-17,.34-19.6-.21,0-1,0-1.93,0-2.52 C 278,262.28,290.91,264.42,297.8,262.43Z"/>
    <path d="M 289.55,269 l -4.15-.08,0,2.8-3.3,0,.09,3.72,3.3,0v2.84 l 3.84,0,.16-2.78,3.15,0,0-3.88-3.07.05Z m 2.1,5.3-3,.12-.12,2.93-2.18,0v-2.77 l -3.23-.09-.05-1.65,3.24-.06,0-2.69 h 2.27 l .15,2.72,2.88,0Z"/>
    <path d="M 323.33,260.14 a 55.52,55.52,0,0,1,1.94,14.41 c 2,1.56,10,5.06,10,5.06 a 36.83,36.83,0,0,0,7.84-6.35,47.23,47.23,0,0,0,.29-14.83 C 334.38,261.44,323.33,260.14,323.33,260.14Z m 6.44,1.82.25,1.67 s 1.21.11,2.78.1 c 0,.23.05.58.09,1 a 27.85,27.85,0,0,1-7.33-.74 c -.16-.8-.35-1.6-.57-2.39 A 36.69,36.69,0,0,0,329.78,262Z m 8,.42 s -1.79,1-7,.67 a 9.93,9.93,0,0,1-.17-1.09,42.18,42.18,0,0,0,7.1-.69Z m -3.33,6.46 c 1.62-.05,2.5.79,2.54,2.13 a 2.42,2.42,0,0,1-2.37,2.29,2.27,2.27,0,0,1-2.5-2.08 A 2.36,2.36,0,0,1,334.44,268.84Z m 1.17-.56 a 3.58,3.58,0,0,0-1.17-.1,4.25,4.25,0,0,0-.72.12 c 0-.81-.13-3.39-.28-4.58.67,0,1.39-.07,2.09-.15 C 335.55,264.32,335.63,266.87,335.61,268.27Z m 6.21,4.53 a 39.35,39.35,0,0,1-6.84,5.27 c -2-.82-8.6-4.42-8.6-4.42 a 48.43,48.43,0,0,0-.56-8.16,43.46,43.46,0,0,0,7.16.4 c .06.87.12,1.82.12,2.61 a 2.93,2.93,0,0,0-1.87,2.67,2.87,2.87,0,0,0,3.13,2.79,3,3,0,0,0,3.29-3.08,2.7,2.7,0,0,0-1.5-2.41 c 0-.48,0-1.63,0-2.79 a 28.34,28.34,0,0,0,6.44-1.43 A 32.87,32.87,0,0,1,341.82,272.8Z m .69-10.13 a 24.76,24.76,0,0,1-6.37,1.79 c 0-.36,0-.69,0-1 a 9.26,9.26,0,0,0,2.24-.6,12.57,12.57,0,0,0-.18-1.7,31.79,31.79,0,0,0,4-1 C 342.35,261,342.44,261.85,342.51,262.67Z"/>
  </g>
<script type="text/ecmascript" xlink:href="param.min.js"/> 
</svg>
