<?xml version="1.0"?>
<svg xmlns="http://www.w3.org/2000/svg" xmlns:xlink="http://www.w3.org/1999/xlink" viewBox="0 0 600 600">
  <title>nurse-slender</title>
  <g id="main-colour">
    <path d="M 346.61,415.29 c -1.42-15.33-.25-25.92-4.75-40.25 a 135.81,135.81,0,0,0-13.48-29.67 c -4-7.92-5.28-12.7-5.44-21.12 s 2.27-20.51,4.36-27.76 c .72-2.49,1.52-5.53,2.42-8.88 A 21.33,21.33,0,0,0,346,279.32 c 5.81-7.75,3.13-17.75.94-21.06 s -9.69-8.87-12.12-10.94 c -1.17-1-2.42-2.22-3.41-3.23 a 11.17,11.17,0,0,0-12.72-16.42 c -2.37-3.62-7.41-7-9.32-7.53-2.12-.62-2.29-.21-2.37.29 a 32.2,32.2,0,0,1,5.54,7.06 l -.14-.07 a 16.56,16.56,0,0,1,1,2.16 c 1.69,4.5,1.69,7.81,1.75,11.81 s .16,9.13.16,9.13-5.34-3.34-9.59-5.75 c -4.62-2.62-9.13-4.5-14.44-11.06 a 13.48,13.48,0,0,1-2.91-7.12,3.73,3.73,0,0,0,.41-1 s 2.08-2.79,3.21-4.62 c -4.93.06-6.58,4.15-7.12,6.42-.82.24-1.74.44-2.78.68-9.81-4.19-19.7-.27-20.12,8.81 s 6,12.33,9.33,13.42 c -1.25,5.92,1.33,21,3.17,27.5 s 6.92,19.67,9.08,28.08 S 281,325.63,273.85,338 s -9.08,17.17-11.58,27.25 a 68.72,68.72,0,0,0-3.07,16.33,132.76,132.76,0,0,0,1.42,29.92 c 1.58,9.25.75,15.92-4.08,25.67,9,5,23,7.58,38.92,8.58 s 28.67.67,40.33-3.92 a 72.14,72.14,0,0,0,15.58-8.42 S 348,430.63,346.61,415.29Z" fill="param(main_colour)"/>
  </g>
  <g id="fixed-colours">
    <path d="M 336.46,259.13 l .67,2.13,3.08-.71,1.13,5.25 a 4,4,0,0,0-1,3.35,2.93,2.93,0,0,0,3.76,2,3.07,3.07,0,0,0,2.42-3.87 c -.37-1.24-2.34-2-2.75-2.17-.36-1.84-1.33-5.67-1.33-5.67 l 1.17-1.46-1-2Z" fill="#d6d6d6"/>
    <path d="M 333.26,259.55 a 11.63,11.63,0,0,0,3.2-.43 c .32,1,.67,2,.67,2 l 3.08-.54.25,1.25 s -1.25.79-6.5,1 C 333.63,261.3,333.26,259.55,333.26,259.55Z" fill="#fff"/>
    <polygon points="342.42 259.42 343.59 257.96 342.67 256.21 343.55 255.04 345.5 258.67 342.96 260.96 342.42 259.42" fill="#fff"/>
    <path d="M 292.27,264.72 s 10.29,1.82,20.06-.55 a 29.43,29.43,0,0,1,.1,3.82 s -10.72,2.58-19.67.38 A 23.69,23.69,0,0,1,292.27,264.72Z" fill="#fff"/>
    <polygon points="297.79 275.22 301.05 274.98 301 272.36 303.79 272.22 304.22 274.67 307.01 274.54 307.04 277.01 304.11 277.31 304.08 280.1 301.14 280.32 301.17 277.61 298.07 277.75 297.79 275.22" fill="#f0356a"/>
    <path d="M 284.94,227.67 s .63,4.71,2.67,7.75 a 25.37,25.37,0,0,0,10.88,9.08 c -.12,1.33-.12,1.83-.12,1.83 s -6.33-2-10-6.5 a 14.41,14.41,0,0,1-3.62-9.37Z" fill="#fff"/>
    <path d="M 298.69,247.25 s 9.51,1.79,16,3.29 c 1.42,1,2.5,1.88,2.5,1.88 l -18.51-3.08Z" fill="#fff"/>
    <path d="M 319.32,241.38 a 44.08,44.08,0,0,0-3.45,9.67,7,7,0,0,1,1.42.92,56.67,56.67,0,0,1,3.21-9.21 A 3.81,3.81,0,0,1,319.32,241.38Z" fill="#fff"/>
    <path d="M 318.27,227 c 1.5,2.71,2.63,6.13-.58,12.42 l -1.37-1.58 s 3.38-5.37,2-10.83" fill="#fff"/>
  </g>
  <g id="outline">
    <path d="M 347.17,406.38 c 0-7.83-1-22.25-5.17-34.83 s -13.08-26.83-15.33-32.42-2.58-11.17-2.33-17.42 a 116.42,116.42,0,0,1,3.5-21.25 c 1-4,2.19-8.63,3.09-12.17,8.47-.53,14.34-5.23,16.95-9.58 a 19.81,19.81,0,0,0,1.75-17.21 c -2.46-6.29-6.17-8.37-8.67-10 a 80.62,80.62,0,0,1-7.21-5.75 c -1.62-1.42-5.83-5.46-5.83-5.46,1.83,3.63,11.33,12,13.67,14.08 l .37.34 c -3.64,4.23-9.86,4.08-9.86,4.08 a 76.36,76.36,0,0,1,2.28,14.86 c 2.24,1.15,10.42,4.5,10.42,4.5 l 1.06-1.15 a 17.58,17.58,0,0,1-1.89,2.65 c -4.79,5.54-12.83,7.17-12.83,7.17-.76.09-1.56.17-2.26.24-.74,3.13-2,8.25-3.27,13.35-2.08,8.17-3.83,17.83-3.42,26.17 s 1.5,13.08,7.42,22.75 a 106.68,106.68,0,0,1,12.33,30.17 A 97.16,97.16,0,0,1,345,404.21 c -.08,5.92.92,23.33,5.33,29.25-6.28,4.89-19.89,10.81-32.42,11.76-.33-1.5-1-5.93-1.16-16.85-.17-14.33-1.5-36-3.33-51.83 s -2.67-30.83-.33-46.5,6.28-29,10.11-41.58 c 3.42-11.25,5.33-21.67.17-30 a 28.38,28.38,0,0,0-5.64-6.44 c .48-1.66,2.06-7,3.63-9.64-1-.9-2.12-2-3.15-3.15,1.28-1.79,3.6-6.91.9-11.68 a 10.92,10.92,0,0,1,6.4.33,9.05,9.05,0,0,0-7.6-2 l -.24-.28 c -5.69-6.19-10.31-6.25-10.31-6.25 a 1.23,1.23,0,0,0-.94,1.5 c 3.56,2.38,7.69,9.75,8,15.75.27,5.11.31,11.36.32,13.11 a 116.4,116.4,0,0,0-11.57-6.93 c -5.75-3.25-14.42-9.71-14-16.87 a 35,35,0,0,0,3.33-5.25,6.69,6.69,0,0,0-1.75-.08,8.19,8.19,0,0,0-6.25,5.67 c -.07.22-.14.46-.2.7 a 6.11,6.11,0,0,1-4.46-.37,13.21,13.21,0,0,0-11.42-.08 A 12.8,12.8,0,0,0,261,240.21 c 1,6.25,4.67,9.17,9,10.83-.83,7.83,1.08,24.17,3.75,30.33.69,1.6,1.52,3.4,2.42,5.28,1.09,3.11,2.37,6.77,3.16,9.05,1.58,4.58,4.75,15.25,2.83,21.58 s -3.67,11.17-10.08,21.58-14.17,26.5-14.5,50.5,7.92,31-2.67,48.25 c 12.5,8.83,50.67,10.42,62.5,9.33 s 26.17-5.75,35.08-13 C 347.92,424.21,347.17,414.21,347.17,406.38Z m -4.46-140.57 c 1.86-.43,3.05.35,3.4,1.88 a 2.83,2.83,0,0,1-2.22,3.17,2.66,2.66,0,0,1-3.34-1.84 A 2.76,2.76,0,0,1,342.71,265.81Z m -.29-1.1 a 4.51,4.51,0,0,0-1,.39 c -.19-1.07-.63-3.55-.91-4.47 a 8.62,8.62,0,0,0,1.64-.82,37.14,37.14,0,0,1,1.18,4.76 A 4,4,0,0,0,342.42,264.71Z m .39-5.37 A 5,5,0,0,0,344,258 c -.42-.82-.84-1.56-1-1.91 l .21-.24 a 17.64,17.64,0,0,1,2,2.56,9.12,9.12,0,0,1-2.13,1.92 C 342.93,260,342.87,259.62,342.81,259.35Z m -.31-2.84.79,1.33 s -.78,2.28-6,3 c -.21-.48-.4-1-.5-1.37 A 12.24,12.24,0,0,0,342.51,256.51Z m -6.35,3.07.66,1.87 a 13.68,13.68,0,0,0,3.14-.6 l .18.8 a 18.22,18.22,0,0,1-5.68.68 c -.17-.82-.36-1.64-.58-2.44 A 19.12,19.12,0,0,0,336.15,259.57Z m 8.65,17.2 c -2.15-.42-9-4-9-4 a 72.07,72.07,0,0,0-1.16-9.65,25.41,25.41,0,0,0,5.67-.77 c .2.94.44,2.12.59,3.09 a 3.61,3.61,0,0,0,2.9,6.49,4.05,4.05,0,0,0,3.42-4.54,3.88,3.88,0,0,0-3.27-2.81 c -.13-.58-.45-2-.73-3.35 a 6.63,6.63,0,0,0,2.39-2.13,19,19,0,0,1,1.73,4.12,18,18,0,0,1,.08,10.12 C 346.46,274.63,345,276.61,344.81,276.78Z m -59.66-47 a 15.1,15.1,0,0,0,3.21,7.27,27.2,27.2,0,0,0,9.59,7.78 c 0,.32,0,.64-.07,1-1.93-.77-7.93-3.5-10.9-8.81 A 14,14,0,0,1,285.14,229.8Z m 29.17,21,1.38,1.05 c -2.37-.5-9.05-1.87-16.34-3,0-.37,0-.72,0-1.07 C 301.08,248.08,309.09,249.37,314.32,250.8Z m 5.6-7.92 a 64.84,64.84,0,0,0-3,8.5 l -.74-.6 a 38.86,38.86,0,0,1,3.15-8.58Z m -2.28-4.28-.8-.9 c .69-1.33,2.69-5.6,1.91-8.9 a 6.8,6.8,0,0,1,.55,1.63 A 12.44,12.44,0,0,1,317.64,238.6Z m -9.78-18.1 c 2.81.53,7.59,3.39,10,6.83.43,1.52.87,4.93-1.55,9.79 l -1-1.22 C 314.69,228.76,311.79,224.43,307.86,220.5Z m 7.52,16.88,3.56,4.31 a 35.77,35.77,0,0,0-3.18,8.74 l -.17-.13 C 315.62,248.67,315.66,243.61,315.37,237.38Z M 313.1,249.9 c -1.77-.39-6-1.29-13.81-2.76 a 45.05,45.05,0,0,1,.17-5.18 C 303.79,244.7,307.45,245.8,313.1,249.9Z M 290,222 a 20,20,0,0,1-2,2.75 s -1.83,5.92,5.75,12.83 a 42.22,42.22,0,0,0,4.53,3.63 c -.07.63-.17,1.64-.27,2.79 a 25.61,25.61,0,0,1-9.91-8.46,15.53,15.53,0,0,1-2.57-8.31 A 7.47,7.47,0,0,1,290,222Z M 257.5,437 c 5.83-11,4.83-18.25,3.75-26 s -2.67-21.25-.42-36.58,8.92-27.33,14.92-37.67,9.83-19.5,8.75-26.92 a 87.44,87.44,0,0,0-3.19-12.81 c .91,1.82,1.75,3.49,2.44,4.89,2.58,5.25,6.25,11.67,6.5,16.42-.17-7.33-5-16.25-7.92-21.58 s -8.33-21.08-9.75-31.33-.14-15.95-.14-15.95 a 11.32,11.32,0,0,1-9.19-7.8 c -2.67-7.33,3.83-13.17,7.83-14.08,3.67-.84,10.14,1.82,12.92,1-.55,5.27,1.78,13.8,13.83,18 a 29.54,29.54,0,0,0,0,3.2 A 183.17,183.17,0,0,1,317.1,253 c 4.44,3.77,8,8.55,8.18,17.88.17,11.75-11.39,37.83-14.33,67.58-1.64,16.52,2.64,48.42,3.8,69.92,1.11,20.41.42,32.25,1.48,37 C 303,446,272,444.71,257.5,437Z"/>
    <path d="M 302.86,286 s 8.19-4.89,10.13-6.86 c .19-7.46.13-15.93.13-15.93 s -11.58,2.74-21.74.69 c 0,0,.31,10.88,1.37,16.22 A 38.82,38.82,0,0,0,302.86,286Z m 0-1.7 a 57.22,57.22,0,0,1-9-5.19 s -.52-5.82-.78-10 c 7.61,1.52,16.4.08,18.63-.34-.08,4.58-.09,9.54-.09,9.54 S 305,283.12,302.91,284.29Z M 311.83,265 c 0,.76,0,1.6-.06,2.48-7.68,2.19-16.19,1.1-18.71.69-.06-1-.09-1.84-.09-2.41 C 293,265.71,305.35,267.17,311.83,265Z"/>
    <path d="M 304.45,274.19 l -.19-2.56-4,.11.16,2.67-3.15.18.25,3.55,3.15-.18.13,2.71,3.67-.16,0-2.66,3-.16-.16-3.71Z m -.76,2.66v2.8 l -2.08.07-.12-2.64-3.09.06-.12-1.57,3.09-.21-.17-2.56,2.16-.11.27,2.59,2.75-.1.11,1.43Z"/>
    <path d="M 291.87,287.46 c 9.08,6.08,15.92,4.75,20.5,2.5 C 300.29,292,291.87,287.46,291.87,287.46Z"/>
  </g>
<script type="text/ecmascript" xlink:href="param.min.js"/> 
</svg>
