<?xml version="1.0"?>
<svg xmlns="http://www.w3.org/2000/svg" xmlns:xlink="http://www.w3.org/1999/xlink" viewBox="0 0 600 600">
  <title>basic-tank-top-curvy</title>
  <g id="main-colour">
    <path d="M 335.15,324 c -2.5-7.75-1.58-17.67-.5-22.83 s 2.75-9.08,5.08-15.67 a 60.47,60.47,0,0,0,3.75-23.25,43,43,0,0,0-1.15-8.6,21.61,21.61,0,0,1-6.6-4.24 c -3.5-3.62-4.87-9.87-6.12-15.37 a 24.61,24.61,0,0,0-2.85-6.91,25.78,25.78,0,0,0-4.35,1.13 c .83,1.78,8,19.15-8.54,25.9-16.87,3.63-23.5-9.12-28.37-14.25-2.6-2.74-3.8-11.14-5-13.62-.11.06-3,2-4.31,2.82 a 35.45,35.45,0,0,1,.56,15.68 c -2,10.63-6.62,16.75-14.25,19.13 a 30.54,30.54,0,0,1-8.37,1.19,59.1,59.1,0,0,0,7.71,26.15 c 2.63,4.75,4.63,8.5,5.5,15.13,1.38,11.88-6.87,19.38-14.12,29.88 a 66.43,66.43,0,0,0-5.4,9.41,43.55,43.55,0,0,1,14.57-1.25 c 10.88.75,24.38,5.88,31.88,7.25,7.17,1.31,29.64,7.3,51.15-7.13-.64-1.53-1.37-3.08-2.15-4.52 C 340.57,335.06,337.65,331.72,335.15,324Z" fill="param(main_colour)"/>
  </g>
  <g id="outline">
    <path d="M 254.11,341.54 s 8-2.08,23.5,2.58,39.75,11,58.75,1.92 c -8.25,2.5-15.33,4.7-30.83,3.5 C 288.27,348.21,263.36,336.88,254.11,341.54Z"/>
    <path d="M 339.9,330.23 c -3.57-6.17-7-11.63-4.71-27.38,1.29-8,6-17.12,8.13-26.56,0,0,1.53-10.09.8-15.2 a 46.63,46.63,0,0,0-1.42-8.06,5,5,0,0,1-1.11-.33 h 0 c 1,5.44,1.84,15.1-1.26,28.21-2.77,9.31-7.06,18.2-7.51,28.05-.62,13.75,2.14,18.35,5.94,24 a 50.87,50.87,0,0,1,5.7,11.07 c -23,15-49.79,7.48-67.27,2.2-14.79-4.47-24.67-2.62-27.5-1.9,2.58-5,8.69-13.84,12.46-18.83 s 6.65-10.08,6.32-17.3 c 1.58,6,2.29,11.43,3.39,19.45.18-11.14-1.37-24.22-7.64-33.77-2.53-4.85-5.46-9.24-7.59-19.72 a 66.4,66.4,0,0,1-1.17-9.16 l -1.87-.06 c .15,2.15.39,4.46.74,6.91,1.75,12.27,5.5,17.39,9.13,24.39 s 6.07,17.93-2.62,28.16 c -7.27,8.55-11.72,16-14.46,22.82 l 1.33-.49 h 0 c 7.67-3.17,22.83-.83,32.17,2 s 20.67,6.5,37.83,6 a 52,52,0,0,0,28.06-9.13 l 1.25-.86 A 53.59,53.59,0,0,0,339.9,330.23Z"/>
    <path d="M 275.08,228.47 a 38.9,38.9,0,0,1-1.66,24.22 c -5.7,13.57-19.94,11.19-19.94,11.19 l .19,2 s 15.75,1.69,21.44-12.62 a 40.43,40.43,0,0,0,1.63-25.75Z"/>
    <path d="M 279.27,225.38 s 3,9.93,4.17,12.42 c 1.92,4.17,11.67,18.83,26.58,17.58,14.36-1.2,18-14,12.92-28.17 a 3.75,3.75,0,0,0-1.42.75 s 5.08,9.83.08,18.92-18.5,9.67-28.42,1-10.67-18.33-12.5-24.17 A 9.81,9.81,0,0,1,279.27,225.38Z"/>
    <path d="M 325.61,226.38 a 51.08,51.08,0,0,1,4.25,11.92 c 1,5.58,4.17,13.25,12.25,16 a 7.13,7.13,0,0,0-.08-1.42,14.79,14.79,0,0,1-6-4.25 c -2.83-3.25-4.08-7.75-5-11.67 s -2.5-8.92-4-10.75 A 7.67,7.67,0,0,0,325.61,226.38Z"/>
    <path d="M 275.08,228.47 s 4.32-2.74,5.61-4.76 a 26,26,0,0,1,.67,2.54,30,30,0,0,1-5.87,4.06 A 9.45,9.45,0,0,0,275.08,228.47Z"/>
    <path d="M 321.52,228 a 10.33,10.33,0,0,1,5.5-1.75,6.38,6.38,0,0,1,.75,1.13 s -3.92.58-5.71,2 A 14.46,14.46,0,0,0,321.52,228Z"/>
  </g>
<script type="text/ecmascript" xlink:href="param.min.js"/> 
</svg>
