<?xml version="1.0"?>
<svg xmlns="http://www.w3.org/2000/svg" xmlns:xlink="http://www.w3.org/1999/xlink" viewBox="0 0 600 600">
  <title>midi-crew-neck-baggy-t-shirt-curvy</title>
  <g id="main-colour">
    <path d="M 339.15,287.1 a 20.65,20.65,0,0,0,11.61-13.35 c 2.75-9.5-2.12-18.12-5.12-20.75-1.43-1.25-3.19-2.63-4.7-3.82 a 15.79,15.79,0,0,0-.71-1.57 h 0 a 12.69,12.69,0,0,0-6.41-19.85 h 0 c -4-2.33-11.4.46-11.4.46 s -.08.22-.47.27 c 2.79,7.21,3.82,17.53-8.29,19.55-14.25,2.38-27.28-5-32.15-10.17 a 33.9,33.9,0,0,1-5.68-8.52 l -.23.12 a 54.44,54.44,0,0,0-11-3.12,13.69,13.69,0,0,0-13.87,6.13 c -4.62,8.75-.12,15.63,3.88,18.5-2.75,22.25,4.63,35.5,7.25,40.25 s 4.63,8.5,5.5,15.13 c 1.38,11.88-6.87,19.38-14.12,29.88 a 62.23,62.23,0,0,0-9.59,21.39 c 2.73-2.28,6.5-5,10.09-6.07,6.67-2,13.67-.67,24.33,3.17 s 30.5,11.17,44.5,8.5 a 44.62,44.62,0,0,0,24.61-13.89,52,52,0,0,0-3.9-9.35 c -2.67-4.92-5.58-8.25-8.08-16 s -1.58-17.67-.5-22.83 C 335.64,296.42,337.12,292.73,339.15,287.1Z" fill="param(main_colour)"/>
  </g>
  <g id="outline">
    <path d="M 335.19,302.85 c .74-4.58,2.61-9.54,4.46-14.71 a 11.65,11.65,0,0,0,2.07-1 c 5.8-3.41,11.42-10.49,11.1-19.33-.33-9.25-5.1-15-11.68-19.5 s -11.92-11.75-11.92-11.75 c 2.17,4.83,8.75,11.42,13,14.83 a 21.61,21.61,0,0,1,8.08,14.67 c .92,6.67-3,13.92-7.11,17.33 a 21.65,21.65,0,0,1-4.62,2.9 h 0 l -.17.49-.5,1.45 c -2.35,6.74-4.75,13.46-5.08,20.69-.62,13.75,2.14,18.35,5.94,24 a 50.6,50.6,0,0,1,7.32,16.28 c -21.21,20.91-43.71,13-65.48,5.36-2.06-.72-4.12-1.45-6.17-2.15-16.19-5.51-24.51-1.33-28.37,2.29 a 49.74,49.74,0,0,1,2.88-8.81 c 1.86-4.51,9-14.87,13.22-20.44,3.67-4.86,6.65-10.08,6.32-17.3,1.58,6,2.29,11.43,3.39,19.45.18-11.14-1.37-24.22-7.64-33.77-2.53-4.85-5.46-9.24-7.59-19.72 a 83.89,83.89,0,0,1-1.13-21.29v-.18 l 0-.25,0-.33 c 0-.29,0-.45,0-.45 h 0 l .08-.93 a 12.7,12.7,0,0,1,6.69-23.5 h 0 c .43,0,.87,0,1.32.07 a 39.48,39.48,0,0,1,6.89,1.43 l .87.26.08,0 c 1.21.38,2.42.8,3.61,1.21.81,1.86,11.41,19.4,33.33,19.4.94,0,1.9,0,2.89-.1,5.34-.35,9.33-2.41,11.86-6.13,3-4.38.88-10.38-.17-14.25 a 15.19,15.19,0,0,1,10.76-1.36 s -3-2.13-8.11-1.29 a 17.86,17.86,0,0,0-4.93,1.83 l .23.87 h 0 c 0,.09.06.2.08.3 l .12.47 c .72,3,3.07,8.34.37,12.3-2.17,3.18-5.65,5-10.34,5.26-19.35,1.29-30.66-11.49-33.37-16.36,0,0-.31-.7-.94-1.94 l -1.83-.74 a 42.52,42.52,0,0,0-10.9-3.13 l -.61-.07 a 11,11,0,0,0-1.2-.06,14.7,14.7,0,0,0-8.79,26.48,93.51,93.51,0,0,0,.74,20.13 c 1.75,12.27,5.5,17.39,9.13,24.39 s 6.07,17.93-2.62,28.16 c -12,14.16-16.38,25.18-17.93,35.82,0,0,.54-.62,1.42-1.5 l .24-.23.42-.41 a 23.75,23.75,0,0,1,7.38-5 l .29-.11.11,0 h 0 c 4.41-1.58,11.1-2,21,1.38,2,.7,4.1,1.42,6.15,2.14,11.61,4.08,23.41,8.23,35.18,8.23,10.59,0,21.15-3.39,31.5-13.21v0 h 0 a 20.47,20.47,0,0,0,1.63-1.5,49.91,49.91,0,0,0-8.35-19.77 C 336.33,324.05,332.94,318.6,335.19,302.85Z"/>
    <path d="M 332.86,331.71 a 53.39,53.39,0,0,1-4.5,20.17 C 332.48,345.5,334.19,336.38,332.86,331.71Z"/>
    <path d="M 271.89,276.93 a 20,20,0,0,0,22.17,18.45,31.9,31.9,0,0,1-11.43-4.1 C 277.34,287.87,274.39,283.63,271.89,276.93Z"/>
  </g>
<script type="text/ecmascript" xlink:href="param.min.js"/> 
</svg>
