<?xml version="1.0"?>
<svg xmlns="http://www.w3.org/2000/svg" xmlns:xlink="http://www.w3.org/1999/xlink" viewBox="0 0 600 600">
  <title>OA032-bikini-bottoms-curvy</title>
  <g id="skin-tone">
    <path d="M 348,353.49 c 0-2.48-2.06-8.6-4.73-13.52-1.91-3.52-3.95-6.24-5.87-10.34 l -.44.47-.08-.14.47-.44 a 47.78,47.78,0,0,1-2.17-5.56 c -2.5-7.75-1.58-17.67-.5-22.83,1-4.74,2.48-8.44,4.52-14.1 a 23.08,23.08,0,0,0,5-3.24,20.23,20.23,0,0,0,7.5-18.17 c -.62-6.21-4.94-11.63-10.72-16.46 l -.92-.91-.12-1 a 12.1,12.1,0,0,0-6.08-19.09v-.44 h 0 c -4-2.33-11.4.46-11.4.46 s -.46,1.38-5.08-1.87-4-10.37-4-14.87 c 0-2.15,0-3.55-.13-4.74 a 73.83,73.83,0,0,1-27,0,5.78,5.78,0,0,0-.08.91 c 0,3.5,1.5,4.75-1.75,12 a 20.53,20.53,0,0,1-8.75,9.88,54.44,54.44,0,0,0-11-3.12,13.69,13.69,0,0,0-13.87,6.13 c -4.62,8.75-.12,15.63,3.88,18.5-2.75,22.25,4.63,35.5,7.25,40.25 s 4.63,8.5,5.5,15.13 c 1,9-3.42,15.45-8.78,22.61-1.74,2.32-3.57,4.7-5.34,7.27-7.25,10.5-10.25,21.38-10.25,26.63 a 38,38,0,0,0,1.14,9.38 c 0,.25,0,.49,0,.74 a 32.84,32.84,0,0,0,55.6,23.68,32.85,32.85,0,0,0,48.74-28.75 c .14-1.85-.16-12.64-.46-14.4Z" fill="param(skin_tone)"/>
  </g>
  <g id="main-colour">
    <path d="M 280.71,338.34 s 5.52-1.17,18.5,3.9 c 12.13,4.73,14.42,5.42,21.5,3.83 s 12.75-7.92,19.83-8.08 c -5.42,2.58-10.25,8.17-12.25,11.08 A 70.26,70.26,0,0,0,320,367.65 c -2.42,8.5-3.42,13.5-10.33,13.92 a 35.68,35.68,0,0,0-.83-19.92 A 33.92,33.92,0,0,0,297,345.73 C 292.29,342.57,280.71,338.34,280.71,338.34Z" fill="param(main_colour)"/>
  </g>
  <g id="outline">
    <path d="M 313.65,318.06 s -5.07,8.72-2.58,9.44 c 1,.2,1.7-1.44.9-3.34 A 29,29,0,0,1,313.65,318.06Z"/>
    <path d="M 309.78,381.07 a 11.07,11.07,0,0,1,0,2 c 1.82-.26,6.35-2.53,7.82-5.6 C 317.58,377.45,315.25,380.25,309.78,381.07Z"/>
    <path d="M 262.37,225.22 s 4.48-.16,12.71,3.26,14.9,5.08,18.65,4.75 c -6,1.17-11.89-.67-16.65-2.33 s -10.24-3.67-14.71-3.67 C 262.37,226.31,262.37,225.22,262.37,225.22Z"/>
    <path d="M 333.81,227.77 s -3-2.13-8.11-1.29-11.37,6.63-16.75,6.5 c 5.38.5,8.35-1.28,11.13-2.37 S 326.54,226.18,333.81,227.77Z"/>
    <path d="M 285.28,206.53 c 0,.36,0,.75,0,1.22,0,0,1.86,15.06-10.9,21.14,1.4.67,2.32,1.08,2.32,1.08 s 11.44-4.18,10.52-23.09Z"/>
    <path d="M 315.32,221.1 c -1.66-3.79-1.05-11.33-1.06-14.57q-1,.21-2.08.38 c -.09,2.67-.51,7.43.47,11.73,1.79,9.08,8,10.76,8,10.76 a 12.14,12.14,0,0,0,1.75-1.18 C 320.15,227.81,317.07,225.1,315.32,221.1Z"/>
    <path d="M 253.69,250.47 a 89.39,89.39,0,0,0,.63,21.36 c 1.75,12.27,5.5,17.39,9.13,24.39 s 6.07,17.93-2.62,28.16 C 244,344.21,242.19,357.88,242.07,373 h 2 s -.37-15.26,4.87-27.05 c 1.86-4.51,9-14.87,13.22-20.44,4.68-6.21,8.26-13,5.25-23.75-2.77-9.94-7.63-12.17-10.77-27.58 a 85.09,85.09,0,0,1-1-22.49Z"/>
    <path d="M 335.19,302.85 c .8-4.95,2.91-10.33,4.91-16-.75.36-1.44.64-2,.85-2.41,6.92-4.93,13.8-5.27,21.23-.62,13.75,2.14,18.35,5.94,24,8.5,12.55,8.42,23.31,9.64,29.79.35-5.77,2.16-16.82-8.5-32.51 C 336.33,324.05,332.94,318.6,335.19,302.85Z"/>
    <path d="M 255.68,250.72 a 12.7,12.7,0,0,1,6.69-23.5 h 0 c .4,0,.83,0,1.27.06 h 0 a 45.74,45.74,0,0,1,8.86,2,14.7,14.7,0,1,0-17.05,23.6 C 255.52,252.46,255.61,251.51,255.68,250.72Z"/>
    <path d="M 338.69,288.46 a 12.6,12.6,0,0,0,3-1.27 c 5.8-3.41,11.42-10.49,11.1-19.33-.33-9.25-5.1-15-11.68-19.5 s -11.92-11.75-11.92-11.75 c 2.17,4.83,8.75,11.42,13,14.83 a 21.61,21.61,0,0,1,8.08,14.67 c .92,6.67-3,13.92-7.11,17.33 a 22.29,22.29,0,0,1-17,4.83 c 1.12.57,5.36,1.34,9.68.78 A 24.25,24.25,0,0,0,338.69,288.46Z"/>
    <path d="M 322.2,266.35 c -1.35-14-15-19.5-15-19.5,16.67,11,13.08,27,9.5,33.83 a 25.81,25.81,0,0,1-23.58,13.64 c -11.82-.27-18.92-10.39-21.25-17.39,3.75,19.5,21.75,21.58,31.75,18.17 S 323.55,280.35,322.2,266.35Z"/>
    <path d="M 308.75,381.09 A 32.85,32.85,0,0,1,244.07,373 s -.09-8.64,1.25-14.67 a 34.84,34.84,0,1,0,65.54,22.55 C 310.39,380.92,309.62,381,308.75,381.09Z"/>
    <path d="M 249.21,343 l -.26-1.39 s -11.1-3.89-16.26,2.35 c -4.83,5.83,4.47,6.58,13.11.6-1.54,1.82-4.22,4.67-6.81,5.79-3.94,1.72-5.1,5-4.76,7.71.55-2.09,1.36-4.71,4-5.83 a 19.56,19.56,0,0,0,6.33-4.89 A 22.63,22.63,0,0,0,243,354 a 10.22,10.22,0,0,1-2.12,5.56 c 1.45,0,3-3.12,3.09-6.61 a 13.27,13.27,0,0,1,1.61-5.25 c -1.08,5.32,2,10.25,4.09,5.69 C 252.9,346.1,249.21,343,249.21,343Z M 235.11,347 c -3.17-.17-2.08-2.45,1.64-4.31,5-2.49,10.73-.6,10.73-.6 C 244,345,238.45,347.15,235.11,347Z m 11.18,3.23 c -.25-3.8,2.43-7.32,2.43-7.32 a 10.71,10.71,0,0,1,.8,7.56 C 248.44,354.9,246.54,354,246.29,350.19Z"/>
    <path d="M 352.67,345.32 c 1.65-5.89-9.84-9.23-9.84-9.23 S 351,351.2,352.67,345.32Z m -1.76-.48 c -1.32.74-6.5-7.53-6.5-7.53 C 350.58,340.05,352.23,344.1,350.91,344.83Z"/>
    <path d="M 345,340.49 s -1.24-.83,0,1.48 c 3.33,7.16,5.64,8.56,8.57,8.19 C 349.81,349.51,345,340.49,345,340.49Z"/>
    <path d="M 341.63,336.23 a 52.53,52.53,0,0,0-10.33,4.17 c -4,2.27-12.33,7.33-22.83,4.5-9.17-2.48-17.33-9.33-34.17-7.83-15.5,1.38-25,6-25,6 l -.67,1.83 S 266,337.23,283,340.57 s 24.33,17,25.67,22.83,2.25,11.37.12,17.69 c 1.38,1.15,6.78.09,8.83-3.63 S 322,358.73,329,349.23 s 14-11,14-11Z m -24.33,38.33 c -1.83,5.67-6.67,5.67-6.67,5.67 a 33.59,33.59,0,0,0-3.17-23.67 c -7.75-14.29-25.17-17.83-25.17-17.83,11.17.83,17.72,5.16,24.33,7.33,7.63,2.5,16.21.83,19.71-1.17 s 8-5.37,11.88-6 C 323.38,347.4,319.13,368.9,317.29,374.57Z"/>
  </g>
<script type="text/ecmascript" xlink:href="param.min.js"/> 
</svg>
