<?xml version="1.0"?>
<svg xmlns="http://www.w3.org/2000/svg" xmlns:xlink="http://www.w3.org/1999/xlink" viewBox="0 0 600 600">
  <title>basic-v-neck-t-shirt-curvy</title>
  <g id="main-colour">
    <path d="M 276.29,229.75 a 60.36,60.36,0,0,0-11.73-3.4,13.69,13.69,0,0,0-13.87,6.13 c -4.62,8.75-.12,15.63,3.88,18.5-2.75,22.25,4.63,35.5,7.25,40.25 s 4.63,8.5,5.5,15.13 c 1.38,11.88-6.87,19.38-14.12,29.88 a 66.43,66.43,0,0,0-5.4,9.41,43.55,43.55,0,0,1,14.57-1.25 c 10.88.75,24.38,5.88,31.88,7.25,7.17,1.31,29.64,7.3,51.15-7.13-.64-1.53-1.37-3.08-2.15-4.52-2.67-4.92-5.58-8.25-8.08-16 s -1.58-17.67-.5-22.83,2.75-9.08,5.08-15.67 a 60.47,60.47,0,0,0,3.75-23.25 c -.33-9.33-3.26-14.6-3.26-14.6 h 0 a 12.69,12.69,0,0,0-6.41-19.85 h 0 c -4-2.33-11.4.46-11.4.46 s -.08.22-.47.27 c 1.42,5.56-5.51,19.19-13.2,22.25 C 283.23,245.44,276.29,229.75,276.29,229.75Z" fill="param(main_colour)"/>
  </g>
  <g id="outline">
    <path d="M 323,229.12 a 15.19,15.19,0,0,1,10.76-1.36 s -3-2.13-8.11-1.29 a 17.86,17.86,0,0,0-4.93,1.83 l .23.87 h 0 c 0,.09.06.2.08.3 a 3.21,3.21,0,0,1,.1.74 c -.81,13.07-12.4,20.07-12.4,20.07-17-3.25-28.21-14.28-30.92-19.14,0,0-.31-.7-.94-1.94 l -1.83-.74 a 42.52,42.52,0,0,0-10.9-3.13 l -.61-.07 a 11,11,0,0,0-1.2-.06,14.7,14.7,0,0,0-8.79,26.48,93.51,93.51,0,0,0,.74,20.13 c 1.75,12.27,5.5,17.39,9.13,24.39 s 6.07,17.93-2.62,28.16 c -7.27,8.55-11.72,16-14.46,22.82 l 1.33-.49 h 0 c 7.67-3.17,22.83-.83,32.17,2 s 20.67,6.5,37.83,6 a 52,52,0,0,0,28.06-9.13 l 1.25-.86 a 53.59,53.59,0,0,0-7.1-14.49 c -3.57-6.17-7-11.63-4.71-27.38,1.29-8,6-17.12,8.13-26.56,0,0,1.53-10.09.8-15.2-.56-6-2-11.31-3.9-13.47 l .08.21 c .12.33.38,1.09.69,2.22,1.2,4.53,3,15.26-.66,30.88-2.77,9.31-7.06,18.2-7.51,28.05-.62,13.75,2.14,18.35,5.94,24 a 50.87,50.87,0,0,1,5.7,11.07 c -23,15-49.79,7.48-67.27,2.2-14.79-4.47-24.67-2.62-27.5-1.9,2.58-5,8.69-13.84,12.46-18.83 s 6.65-10.08,6.32-17.3 c 1.58,6,2.29,11.43,3.39,19.45.18-11.14-1.37-24.22-7.64-33.77-2.53-4.85-5.46-9.24-7.59-19.72 a 83.89,83.89,0,0,1-1.13-21.29v-.18 l 0-.25,0-.33 c 0-.29,0-.45,0-.45 h 0 l .08-.93 a 12.7,12.7,0,0,1,6.69-23.5 h 0 c .43,0,.87,0,1.32.07 a 39.48,39.48,0,0,1,6.89,1.43 l .87.26.08,0 c 1.21.38,3,1,4.16,1.46,0,0,9,16.94,33.33,21.11 C 322.77,244,323,229.12,323,229.12Z"/>
    <path d="M 254.11,341.54 s 8-2.08,23.5,2.58,39.75,11,58.75,1.92 c -8.25,2.5-15.33,4.7-30.83,3.5 C 288.27,348.21,263.36,336.88,254.11,341.54Z"/>
    <path d="M 274.73,232.69 s 7.63,15.75,34.56,20.69 a 26.29,26.29,0,0,0,15.25-21.75,24.64,24.64,0,0,1-15.12,22.63 C 299.11,253.13,281,246.32,274.73,232.69Z"/>
  </g>
<script type="text/ecmascript" xlink:href="param.min.js"/> 
</svg>
