<?xml version="1.0"?>
<svg xmlns="http://www.w3.org/2000/svg" xmlns:xlink="http://www.w3.org/1999/xlink" viewBox="0 0 600 600">
  <title>basic-bikini-top-hourglass</title>
  <g id="main-colour">
    <path d="M 267.36,281.46 s 8.92,4,17.58,3.5 c .75-12.42,5.75-23.75,10.5-29.67-1.92-10.67-5.17-22.08-12.08-30.58 a 20.39,20.39,0,0,1,2.58-1.58 A 89.64,89.64,0,0,1,299.52,255 c 3.92,3.83,8.58,10.33,9.92,24.42 a 8.67,8.67,0,0,1,6.75-.33 c .58-9.58,5.92-19.92,9.67-25.58-3.75-11-9.67-24.92-12.58-29.5 a 18.31,18.31,0,0,0,3.92,2.42 s 8.67,13.92,11.83,26.08 c 4,6.25,6.75,12.67,7.17,17.83 s -1.58,12.33-1.58,12.33-1.5,1.67-7.17,1.92 a 23,23,0,0,1-10.92-2.17 c -3.42-.58-5.75-.42-7.58.33-2.33,1.83-5.58,5.08-15.67,5.58 s -24.42-3.67-24.42-3.67 A 8.25,8.25,0,0,1,267.36,281.46Z" fill="param(main_colour)"/>
  </g>
  <g id="outline">
    <path d="M 336.11,266.38 a 42.88,42.88,0,0,0-6.33-13.83 c -2-4.75-7.67-20.92-12.24-26.5 a 20.19,20.19,0,0,1-6-4.5 s 8.82,15.46,13.69,31.83 a 57.28,57.28,0,0,0-9.48,25.06,7.78,7.78,0,0,0-5.85.14 c -1.28-17.86-9.77-23.58-9.77-23.58 s -4.25-19.12-14.25-32.62 a 34.49,34.49,0,0,1-2.94,2.25 s 8.67,11.75,11.92,30.25 c -10,13.5-10.32,29.83-10.32,29.83 s -8,.17-18.17-4.33 a 13,13,0,0,0,2.33,4.83 s 13.86,4.79,25,3.79 c 7-.62,10.78-1.58,15.58-5.76 a 11.38,11.38,0,0,1,7.17-.24 c 4.36,2.56,14.25,3.5,18.88.25 C 335.36,283.25,337.73,272.63,336.11,266.38Z m -1.67,14.19 a 20.27,20.27,0,0,1-5.95,1 c .08-1,.19-3.15-.38-4.22 a 15.47,15.47,0,0,1-.26,4.25,44.22,44.22,0,0,1-8.83-.75 s 8.53,3.69,15.39-.22 c -.16.66-.32,1.3-.47,1.89-2.77,1.23-11.21,2.71-16.83-.67 a 11.28,11.28,0,0,0-9.09.66 c -2.37,2-4.71,3.77-11,4.92-8.79,1.62-24.92-2.08-28-3.25-.92-1.67-1.25-2.17-1.25-2.17 s 9.33,3.92,17.92,3.42 c .75-8.75,2.78-19.83,10.4-30-1.67-10.75-5.57-22.29-11.86-30.5 l 1.56-1.19 c 2.38,2.94,6.64,10.43,9.81,19.81,3,8.88,3.38,12.25,3.38,12.25 s 9,5.68,9.94,24.52 a 10.34,10.34,0,0,1,7.8-.64 c 1.13-10,5.42-20.46,9.75-26.12-6-18.75-12.19-28.25-12.19-28.25 a 6.1,6.1,0,0,0,2.25,1.33 c 1.82,2.29,3.82,6.17,6.07,10.67 s 6,15.5,6,15.5 a 41,41,0,0,1,6.5,14.67 A 29.72,29.72,0,0,1,334.43,280.57Z"/>
    <path d="M 298.69,280.13 a 15.94,15.94,0,0,1-.56,4.64,59.23,59.23,0,0,1-10.19,1.11 s 11.25,1.67,19.33-4.25 a 38.93,38.93,0,0,1-8.33,3 A 10.31,10.31,0,0,0,298.69,280.13Z"/>
  </g>
<script type="text/ecmascript" xlink:href="param.min.js"/> 
</svg>
