<?xml version="1.0"?>
<svg xmlns="http://www.w3.org/2000/svg" xmlns:xlink="http://www.w3.org/1999/xlink" viewBox="0 0 600 600">
  <title>basic-tank-top-voluptuous</title>
  <g id="main-colour">
    <path d="M 340.81,297.47 c -.34-2.64.83-7.56,2.3-13,6-4.31,8.77-11.63,8.39-18.75 A 20.08,20.08,0,0,0,346.38,254 a 39.41,39.41,0,0,0-6-5.35,19.2,19.2,0,0,1-7.5-12.37,70.88,70.88,0,0,1-.74-9.76,27.94,27.94,0,0,0-5.51,1 c 2.88,21.13-1.5,29.95-13.37,30.25-24.37.63-29.75-27.37-35.75-33.25 l -.23-.21 a 9.25,9.25,0,0,1-4.65,3 c 5,7.63,8.5,16.25,4.88,26.88 a 28.65,28.65,0,0,1-20.25,18.63,27.2,27.2,0,0,1-11,0,110.74,110.74,0,0,0,4,15.68 c 3.38,10.88.5,15.5-3.37,21.38 S 235.69,328,231.94,340 c -.32,1-.62,2.1-.9,3.2,5.07-.81,13.11-1.62,19.57,0,10.25,2.5,27,9.5,41.25,12 s 34.75,2.75,49.25-3.5 a 88.94,88.94,0,0,0,17.14-9.88 c -1.33-9.58-4-19.94-9.17-28.38 C 345.34,307.26,341.44,302.35,340.81,297.47Z" fill="param(main_colour)"/>
  </g>
  <g id="outline">
    <path d="M 232,344 s 11.17-4.17,34.83,5,63.33,17,91.67-6.5 c 0-.83-.17-2.42-.17-2.42 s -14.83,13.08-34.67,15.08 S 289.52,355,272.52,349 s -29.67-10.33-40.5-6.83 A 5.64,5.64,0,0,0,232,344Z"/>
    <path d="M 238.86,338.5 s 5.25-2.37,28.13,5.88,36.13,9.25,48.38,9,26.13-4.87,33.88-10.25 c -6.87,3.13-20.5,9.25-34,9.13 s -22.62-.75-37.87-5.62 S 244.11,335.13,238.86,338.5Z"/>
    <path d="M 343.65,302.42 c -2.58-4.62-2-8.05.33-16.77,4.91-3.77,9.12-10.12,8.84-17.8-.33-9.25-5.1-15-11.68-19.5-1-.71-2-1.49-3-2.3 l -.2,1.57 c 1.52,1.47,3,2.79,4.29,3.82 a 21.61,21.61,0,0,1,8.08,14.67 c .92,6.67-3,13.92-7.11,17.33q-.37.31-.78.61 l -.65,1.7-.06,0 c -.15.42-.29.82-.42,1.18 l -.16.45,0,.11 h 0 c -2.32,6.57-2.64,11.84,3,20.11,8.09,10,11.95,23.44,13.75,35.47v0 l 1.67-1.37 C 355.87,316.59,345.54,305.8,343.65,302.42Z"/>
    <path d="M 251.19,286.56 A 67.2,67.2,0,0,1,247.54,273 a 18.71,18.71,0,0,1-2.55-.47,40.66,40.66,0,0,0,1.44,6.75 c 3.83,12.33,8.19,18.93,0,29.83 a 84.46,84.46,0,0,0-15.86,35.09 c 1-.21,1.91-.39,2.57-.5 h 0 a 82.54,82.54,0,0,1,4.16-14 c 4.5-10.17,8.79-16.58,13-23.08 a 17,17,0,0,0,2.16-5 A 175.88,175.88,0,0,1,254,322.88 a 74.72,74.72,0,0,0-1.88-33.38 C 251.84,288.46,251.53,287.47,251.19,286.56Z"/>
    <path d="M 269.05,276.93 c .35,10.66,10.19,19.07,20.58,18.45 A 30,30,0,0,1,278,290.07,29.52,29.52,0,0,1,269.05,276.93Z"/>
    <path d="M 271.15,226.83 s 5.56,6.91,6.45,14.55 c 1.17,10-2.14,22.18-15.17,28.75 a 22.2,22.2,0,0,1-17.58,1.08 l .25,2.33 s 8.9,2.92,19.33-2.5 c 10.58-5.5,23.26-24.07,9.14-43.45 C 272.7,227.35,271.15,226.83,271.15,226.83Z"/>
    <path d="M 276.94,224.88 s 4,6.84,9.78,17.33 c 5.83,10.67,16.17,17.79,29.17,16.17,18.28-2.28,11.35-31.62,11.35-31.62 l -1.5.38 s 5.43,28.15-10.1,29.5 c -25.87,2.25-28.53-21.12-38.15-33.75 A 4.58,4.58,0,0,0,276.94,224.88Z"/>
    <path d="M 331.36,226.05 a 5.35,5.35,0,0,1,1.7.11 s -1.92,13.09,6.45,21 l -1.58.46 a 23,23,0,0,1-6.08-12.71 C 331.46,232.3,331.36,226.05,331.36,226.05Z"/>
    <path d="M 325.73,227.13 s 4.13-1.69,7.33-1 c 0,.34-.23,1.44-.23,1.44 s -4.22-.41-6.53,1 A 12.09,12.09,0,0,0,325.73,227.13Z"/>
    <path d="M 271.15,226.83 a 8,8,0,0,0,6.33-4 c 0,.79,0,2.46,0,2.46 s -2.37,2.33-4.87,2.5 A 16,16,0,0,1,271.15,226.83Z"/>
  </g>
<script type="text/ecmascript" xlink:href="param.min.js"/> 
</svg>
