<?xml version="1.0"?>
<svg xmlns="http://www.w3.org/2000/svg" xmlns:xlink="http://www.w3.org/1999/xlink" viewBox="0 0 600 600">
  <title>nurse-slender</title>
  <g id="main-colour">
    <path d="M 346.61,415.29 c -1.42-15.33-.25-25.92-4.75-40.25 a 135.81,135.81,0,0,0-13.48-29.67 c -4-7.92-5.28-12.7-5.44-21.12 s 1.82-20.63,3.91-27.88,6.59-18.59,7.33-30.33 c .59-9.21-1.19-15.76-3.59-20.81 a 11.18,11.18,0,0,0-12-17.57 c -2.37-3.62-7.41-7-9.32-7.53-2.12-.62-2.29-.21-2.37.29 a 32.2,32.2,0,0,1,5.54,7.06 l -.14-.07 a 16.56,16.56,0,0,1,1,2.16 c 1.69,4.5.69,8-.12,12 a 88.26,88.26,0,0,0-1.12,10.38,40.12,40.12,0,0,0-7.44-7.31 c -4-2.81-8.12-4.37-13.44-10.94 a 13.48,13.48,0,0,1-2.91-7.12,3.73,3.73,0,0,0,.41-1 s 2.08-2.79,3.21-4.62 c -4.93.06-6.58,4.15-7.12,6.42-.82.24-1.74.44-2.78.68-9.81-4.19-19.7-.27-20.12,8.81 s 6,12.33,9.33,13.42 c -1.25,5.92,1.33,21,3.17,27.5 s 6.92,19.67,9.08,28.08 S 281,325.63,273.85,338 s -9.08,17.17-11.58,27.25 a 68.72,68.72,0,0,0-3.07,16.33,132.76,132.76,0,0,0,1.42,29.92 c 1.58,9.25.75,15.92-4.08,25.67,9,5,23,7.58,38.92,8.58 s 28.67.67,40.33-3.92 a 72.14,72.14,0,0,0,15.58-8.42 S 348,430.63,346.61,415.29Z" fill="param(main_colour)"/>
  </g>
  <g id="fixed-colours">
    <path d="M 325.29,256.18 l .54,2.16,3.12-.53.82,5.31 a 4,4,0,0,0-1.2,3.29,2.93,2.93,0,0,0,3.64,2.19,3.07,3.07,0,0,0,2.63-3.73 c -.3-1.26-2.22-2.16-2.62-2.32-.25-1.86-1-5.73-1-5.73 l 1.25-1.39-.93-2Z" fill="#d6d6d6"/>
    <path d="M 322.81,256.68 a 5.75,5.75,0,0,0,2.61-.27 c .32,1,.5,1.78.5,1.78 l 3.16-.53.16,1.56 s -.48.49-5.73.74 C 323.17,258.42,322.81,256.68,322.81,256.68Z" fill="#fff"/>
    <path d="M 287.51,260 s 10.35,1.4,20-1.37 a 29.43,29.43,0,0,1,.26,3.81 s -10.6,3-19.64,1.18 A 23.69,23.69,0,0,1,287.51,260Z" fill="#fff"/>
    <polygon points="293.46 270.27 296.7 269.9 296.55 267.28 299.32 267.03 299.86 269.46 302.63 269.21 302.77 271.68 299.85 272.1 299.94 274.89 297.01 275.23 296.93 272.52 293.84 272.79 293.46 270.27" fill="#f0356a"/>
    <path d="M 332.2,252.66 l -.25,1.26.68,1.37 a 3.47,3.47,0,0,1-1.19,1.19 l 0,.16.47,1.69,1.66-1.25Z" fill="#fff"/>
    <path d="M 284.94,227.67 s .63,4.71,2.67,7.75 a 25.37,25.37,0,0,0,10.88,9.08 c -.12,1.33-.12,1.83-.12,1.83 s -6.33-2-10-6.5 a 14.41,14.41,0,0,1-3.62-9.37Z" fill="#fff"/>
    <path d="M 298.69,247.25 a 52.23,52.23,0,0,1,11.79,2.88,19.16,19.16,0,0,1,1.58,2.29 l -13.42-3.08Z" fill="#fff"/>
    <path d="M 319.32,241.38 s -5.12,2.92-7,8 a 23.62,23.62,0,0,0,.13,3.33 s 3.92-8.12,8.38-9.83 A 8.89,8.89,0,0,1,319.32,241.38Z" fill="#fff"/>
    <path d="M 316.32,237.84 s 3.38-5.37,2-10.83 c 1.5,2.71,2.63,6.13-.58,12.42Z" fill="#fff"/>
  </g>
  <g id="outline">
    <path d="M 347.17,406.38 c 0-7.83-1-22.25-5.17-34.83 s -13.08-26.83-15.33-32.42-2.58-11.17-2.33-17.42 a 116.43,116.43,0,0,1,3.5-21.25 c 1.67-6.67,4.72-18.67,4.72-18.67.86-4.1,2.93-9.48,2.55-19.1 s -4-18.06-7.19-22.37 a 45.82,45.82,0,0,1,3.85,11.13 c -3.58,4.59-10.14,4.45-10.14,4.45 A 50.3,50.3,0,0,1,323,270.25 c 1.46.75,6.06,2.69,9.07,3.93 a 57.23,57.23,0,0,1-1.77,8.86 s -2.63,9.17-4.72,17.33-3.83,17.83-3.42,26.17,1.5,13.08,7.42,22.75 a 106.68,106.68,0,0,1,12.33,30.17 A 97.16,97.16,0,0,1,345,404.21 c -.08,5.92.92,23.33,5.33,29.25-6.28,4.89-19.89,10.81-32.42,11.76-.33-1.5-1-5.93-1.16-16.85-.17-14.33-1.5-36-3.33-51.83 s -3-29.5-.87-46.33 c 2-15.62,2.62-24.1,3.67-37.25,1.08-13.58,3.08-27.46-.92-35.83-.8-1.68-1.56-3.1-2.29-4.35 a 25.11,25.11,0,0,1,8.63-9.9,46.59,46.59,0,0,1-3.48-3.58 c 1.27-1.72,3.7-6.91,1-11.76 a 10.92,10.92,0,0,1,6.4.33,9.05,9.05,0,0,0-7.6-2 l -.24-.28 c -5.69-6.19-10.31-6.25-10.31-6.25 a 1.23,1.23,0,0,0-.94,1.5 c 3.56,2.38,8.72,10.73,7.3,16.31 a 54.33,54.33,0,0,0-1.92,13.74 c -2.5-3.64-5-5.44-8.5-7.65-5.6-3.5-14.55-10.17-14.13-17.33 a 35,35,0,0,0,3.33-5.25,6.69,6.69,0,0,0-1.75-.08,8.19,8.19,0,0,0-6.25,5.67 c -.07.22-.14.46-.2.7 a 6.1,6.1,0,0,1-4.46-.37,13.21,13.21,0,0,0-11.42-.08 A 12.8,12.8,0,0,0,261,240.21 c 1,6.25,4.67,9.17,9,10.83-.83,7.83,1.08,24.17,3.75,30.33.69,1.6,1.52,3.4,2.42,5.28,1.09,3.11,2.37,6.77,3.16,9.05,1.58,4.58,4.75,15.25,2.83,21.58 s -3.67,11.17-10.08,21.58-14.17,26.5-14.5,50.5,7.92,31-2.67,48.25 c 12.5,8.83,50.67,10.42,62.5,9.33 s 26.17-5.75,35.08-13 C 347.92,424.21,347.17,414.21,347.17,406.38Z M 329.44,257.83 a 8.61,8.61,0,0,0,1.7-.74,36.83,36.83,0,0,1,.9,4.83,4,4,0,0,0-1,.08,4.51,4.51,0,0,0-1,.34 C 330,261.26,329.67,258.76,329.44,257.83Z m 3.25-.6 c -.22.17-.47.36-.75.56-.06-.42-.12-.81-.16-1.12 a 5.32,5.32,0,0,0,.77-.69 C 332.6,256.38,332.65,256.8,332.69,257.23Z m .28,4.85-.36-.09 c -.08-.51-.31-1.91-.52-3.25 l .7-.45 C 332.89,259.52,333,260.78,333,262.08Z m -1.67,1 a 3.55,3.55,0,0,1,1.67.07 c 0,1,0,2-.11,3q-.07,1-.14,1.85 a 3.64,3.64,0,0,1-.53.18,2.66,2.66,0,0,1-3.23-2 A 2.76,2.76,0,0,1,331.3,263.12Z m .92-9.38-.09-.18,0,0Z m -.52.21.64,1.24 s -.91,2.24-6.16,2.61 c -.14-.37-.26-.8-.35-1.13 A 12.74,12.74,0,0,0,331.69,254Z m -6.51,2.83.48,1.64 a 13.68,13.68,0,0,0,3.17-.42 c 0,.18.09.51.16.94 a 18.19,18.19,0,0,1-5,.5 c -.14-.81-.32-1.63-.54-2.44 C 324,257,324.63,256.88,325.19,256.78Z m -.77,12.64 a 40.81,40.81,0,0,0-.32-9.15,23.48,23.48,0,0,0,5-.61 c .15.93.31,2.07.4,3 a 3.61,3.61,0,0,0,2.53,6.65,4.76,4.76,0,0,0,.59-.13q-.18,2.05-.39,3.76 C 328.93,271.59,324.42,269.42,324.42,269.42Z M 285.14,229.8 a 15.11,15.11,0,0,0,3.21,7.27,27.2,27.2,0,0,0,9.59,7.78 c 0,.32,0,.64-.07,1-1.93-.77-7.93-3.5-10.9-8.81 A 14,14,0,0,1,285.14,229.8Z m 25.08,20.92 c .31.4.59.79.87,1.18-2.91-.86-7-2-11.73-3,0-.47,0-.92-.06-1.35 a 85.7,85.7,0,0,1,10.5,2.68Z m 2.44.88 c 0-.57.06-1.45.14-2.54 a 16.34,16.34,0,0,1,6.47-7.15 l .62.73 A 21.93,21.93,0,0,0,312.66,251.59Z m 4.94-12.92-.79-.92 c .66-1.27,2.73-5.61,1.94-8.95 a 6.8,6.8,0,0,1,.55,1.63 A 12.47,12.47,0,0,1,317.6,238.67Z m -9.74-18.17 c 2.81.53,7.59,3.39,10,6.83.43,1.52.87,5-1.57,9.83-.72-.85-1.25-1.51-1.46-1.77 C 315.11,229.2,311.33,224.06,307.86,220.5Z m 6.53,18 a 14.84,14.84,0,0,0,.35-1.87 l 4.07,4.77 a 14.85,14.85,0,0,0-5.91,6.4 A 58.58,58.58,0,0,1,314.39,238.46Z M 309,249.26 a 42.35,42.35,0,0,0-9.73-2.32,45,45,0,0,1,.17-4.94 C 303.08,244.39,305.76,245.52,309,249.26Z M 290,222 a 20.05,20.05,0,0,1-2,2.75 s -1.83,5.92,5.75,12.83 a 45.48,45.48,0,0,0,4.53,3.65 c -.07.63-.17,1.63-.26,2.77 a 25.61,25.61,0,0,1-9.91-8.46,15.53,15.53,0,0,1-2.57-8.31 A 7.47,7.47,0,0,1,290,222Z M 257.5,437 c 5.83-11,4.83-18.25,3.75-26 s -2.67-21.25-.42-36.58,8.92-27.33,14.92-37.67,9.83-19.5,8.75-26.92 a 87.45,87.45,0,0,0-3.19-12.81 c .91,1.82,1.75,3.49,2.44,4.89,2.58,5.25,6.25,11.67,6.5,16.42-.17-7.33-5-16.25-7.92-21.58 s -8.33-21.08-9.75-31.33-.14-15.95-.14-15.95 a 11.16,11.16,0,0,1-9.19-7.8 c -2.37-6.75,2.68-12.12,7.05-13.92,3.87-1.59,10.85,1.56,13.7.79-.56,5.27,1.77,13.81,13.82,18 a 29.54,29.54,0,0,0,0,3.2 c 4,1,9.92,2.18,14,3.2,4.39,6.8,4.53,13.11,4.38,23.53-.17,11.75-3.8,45.5-5.64,62 s 3,48.33,4.17,69.83 c 1.11,20.41.42,32.25,1.48,37 C 303,446,272,444.71,257.5,437Z"/>
    <path d="M 286.59,259.2 s .75,10.85,2,16.15 A 38.82,38.82,0,0,0,299,280.83 s 8-5.22,9.84-7.27 c -.11-7.46-.52-15.92-.52-15.92 S 296.82,260.84,286.59,259.2Z m 20.48.23 c 0,.76,0,1.6,0,2.48-7.59,2.5-16.13,1.76-18.67,1.45-.1-1-.17-1.84-.19-2.4 C 288.25,261,300.68,261.91,307.06,259.44Z m -8.12,19.69 a 57.22,57.22,0,0,1-9.21-4.82 s -.75-5.79-1.19-10 c 7.66,1.2,16.39-.59,18.6-1.1.11,4.58.3,9.54.3,9.54 S 301,277.87,298.94,279.13Z"/>
    <path d="M 303.3,272.35 l -.31-3.7-2.92.31-.29-2.55-4,.27.27,2.66-3.14.3.4,3.53,3.14-.3.24,2.71,3.66-.31-.09-2.65Z m -5.82,2.25-.23-2.63-3.08.19-.19-1.57,3.08-.33-.27-2.55,2.16-.2.37,2.58,2.75-.21.17,1.42-2.8.37.13,2.8Z"/>
  </g>
<script type="text/ecmascript" xlink:href="param.min.js"/> 
</svg>
