<?xml version="1.0"?>
<svg xmlns="http://www.w3.org/2000/svg" xmlns:xlink="http://www.w3.org/1999/xlink" viewBox="0 0 215 215">
  <title>curvy-top-template</title>
  <g id="skin-tone">
    <path d="M 121.71,120.91 c -.09-3.75-.31-10.75-1.49-13.54 a 12.71,12.71,0,0,0-25.42,0,33.49,33.49,0,0,0-2,8.29 c -.33,4.08-1.82,16-1.32,27.15 s 2,22.1,4.68,29.6 S 101.89,187,104.3,190 s 7.28,3.65,10,1.78,4.33-5,4.33-9,1.18-27.93,1.54-34.62 S 121.79,124.66,121.71,120.91Z" fill="param(skin_tone)"/>
  </g>
  <g id="outline">
    <path d="M 120.21,107.37 s .41,3.88.53,9.38-1.86,27.89-2,37.28 c -.12,7-.47,19.15-.87,26-.08,1.27-.23,3.07-.33,4.16,0,.22-.06.41-.08.56 l 0,0,0,.36 h 0 a 7.05,7.05,0,0,1-13.35,2.79 h 0 c -.11-.18-.37-.58-.72-1.17-.72-1.25-1.48-2.76-1.77-3.33 a 89,89,0,0,1-6.77-21.14 c -3.42-16.83-2.11-34.5-1.45-42.11 s 1.42-12.77,1.42-12.77 c -3.08.46-6.08,22.71-3.9,45.55 s 11.41,35.86,11.41,35.87 a 9.06,9.06,0,0,0,17.15-4.07 s 1.21-17.15,1.33-25.65 S 125.56,113.32,120.21,107.37Z"/>
  </g>
<script type="text/ecmascript" xlink:href="param.min.js"/> 
</svg>
