<?xml version="1.0"?>
<svg xmlns="http://www.w3.org/2000/svg" xmlns:xlink="http://www.w3.org/1999/xlink" viewBox="0 0 215 215">
  <title>police-shirt-curvy</title>
  <g id="skin-tone">
    <path d="M 109.29,163.29 a 9.91,9.91,0,0,0-4.86.89 c .43,2.06.73,3.76.81,4.63.19,2.25-.39,7.18,3.43,7.82 s 5.75-2,5.63-5.64 c 0-1.4,0-3.9,0-6.83 A 15.26,15.26,0,0,0,109.29,163.29Z" fill="param(skin_tone)"/>
  </g>
  <g id="main-colour">
    <path d="M 115.21,149.51 c .86-6.62,3.06-18.81,3.19-25.18.12-6.08-1.83-16.28-5-20.75 a 7.13,7.13,0,0,0-.46-.61 h 0 a 7.05,7.05,0,0,0-9.93-.88 h 0 s -2.81,1.29-4.94,8-2.21,18.41-.87,25.6,3.28,12.57,4.71,17.82 c .13.47.26,1,.39,1.47 a 13.26,13.26,0,0,0-2.1,1 c 1.44,3.81,1.69,10.75,1.69,10.75 l 2.75.25 s -.19-1.31-.44-2.5 a 9.67,9.67,0,0,1,3.92-1.14,11.78,11.78,0,0,1,1.21,0,22.6,22.6,0,0,1,3,.32,13.36,13.36,0,0,1,1.67.46 l .13,1.88,2.06-.5 s .19-6,.38-10 c -.62-.27-1.23-.49-1.83-.69 C 114.85,152.86,115,151.06,115.21,149.51Z" fill="param(main_colour)"/>
  </g>
  <g id="fixed-colours">
    <circle cx="103.96" cy="157.89" r="1.33" fill="#ffcc50"/>
  </g>
  <g id="outline">
    <path d="M 104,156.14 a 1.79,1.79,0,1,0,1.79,1.79 A 1.79,1.79,0,0,0,104,156.14Z m 0,2.69 a .9.9,0,1,1,.9-.9 A .9.9,0,0,1,104,158.83Z"/>
    <path d="M 113,103.12 c .54.7,2.54,3.89,4,14.32,1.41,7.75-1.65,24.83-2.71,31.08-.23,1.37-.42,3.2-.58,5.23 a 23.14,23.14,0,0,0-11.08.26 c -1.18-4.55-2.34-8.75-3-11.21-1.66-6.29-3.74-17-1.81-27.89 S 103,102.08,103,102.08 c -1.36,0-2.89,1.52-4.06,3.86-2,3.67-3.71,9.24-4,18.74-.25,9.25,2.93,18.67,5.94,29.94 a 11.26,11.26,0,0,0-1.8.89,37.92,37.92,0,0,1,2.09,11.83,12.2,12.2,0,0,0,2.66.29 c .59,3.37.69,5,.69,5 h 0 c 0,.06,0,.12,0,.18 a 5.31,5.31,0,0,0,5.32,5.16 H 110 a 5.34,5.34,0,0,0,5.16-5.51 s -.21-2.44-.21-6 c 1.22-.29,1.81-.49,1.81-.49 a 95.84,95.84,0,0,1,.46-11 c -.49-.22-1-.4-1.49-.57.58-5.49,1.39-9.84,2.46-16.86 C 119.56,128.75,121.52,112.75,113,103.12Z m .14,69.51 A 3.33,3.33,0,0,1,110,176 h -.11 a 3.33,3.33,0,0,1-3.33-3.22,29.84,29.84,0,0,0-.44-3.84v0 h 0 c -.23-1.38-.54-3-.9-4.61 a 15.11,15.11,0,0,1,8.1-.18 c -.11,4.06-.13,7.46-.09,8.43 h 0v.11Z m 2.44-7.79 a 1.59,1.59,0,0,1-.64.31 c 0-.19,0-.39,0-.58 l .33.1 c -1-2.54-11.2-2.79-12.49.67 a 5.55,5.55,0,0,1,.51-.3q.14.7.26,1.33 a 7.83,7.83,0,0,1-1.14-.11 c -.12-3.33-.72-8.25-1.59-10,0,0,7.58-3.46,14.87-.29 C 115.67,160.71,115.58,162.92,115.63,164.84Z"/>
  </g>
<script type="text/ecmascript" xlink:href="param.min.js"/> 
</svg>
