<?xml version="1.0"?>
<svg xmlns="http://www.w3.org/2000/svg" xmlns:xlink="http://www.w3.org/1999/xlink" viewBox="0 0 600 600">
  <title>city-classic-top-hourglass</title>
  <g id="main-colour">
    <path d="M 328.55,302.76 A 57.44,57.44,0,0,0,333.62,290 l .57-6.55 a 23.08,23.08,0,0,0,7.35-14.32 c 1-7.08-4-14.83-5.33-16.5-.85-1.06-2.42-3.17-3.44-4.56 a 12.07,12.07,0,0,0,1.51-1.69 h 0q.27-.36.51-.74 l 0,0 c .15-.24.29-.48.42-.73 l .1-.2 c .12-.23.24-.47.34-.71 l .07-.18 a 11.91,11.91,0,0,0,.41-1.17 c .06-.2.12-.41.17-.61 s .07-.31.1-.46.09-.49.12-.74,0-.26,0-.39 c 0-.38.06-.77.06-1.17 h 0 a 12,12,0,0,0-16-11.31 c -1.3-3.46-6.22-5.17-8.21-7.3,1.63,8.25.1,16.71-3.5,24.75-14.71-6.82-19.95-17-21.37-23.63-3.14,3.7-7.34,5.71-12.28,7.18-5.33-2.17-11.92-4-16.83-1.17 s -7.33,8-6.42,14 S 257.88,251,263,252.18 c -.08,8.08,1.5,22.33,4.83,29.25 s 7.77,13,9.85,16.83 c 2.52,4.62,4,10.46,2.5,19.13 s -11.92,16.92-16.25,21-8.29,9.92-11.37,17.75 a 31.24,31.24,0,0,0-2.08,8.77 c 3.5.74,11.72,1.59,24-2.64 C 291.11,356.5,304,344,308,339.88 c 4.36,5.32,16.25,16.7,28.78,19.43 a 14.67,14.67,0,0,0-.66-1.81 c -1.44-8-6.38-14.59-10.12-20.5-4.12-6.5-5.17-11-4.75-16.25 S 325,308.76,328.55,302.76Z" fill="param(main_colour)"/>
  </g>
  <g id="accent-colour-1">
    <path d="M 284,224.13 s -.37,6.63,6,16.25,14,21,16.38,25.63,7.38,18.63,6.63,25.38 c 4.75-9.87,9.25-21.62,9-35.25 s -6.37-32.87-6.37-32.87 L 311.75,221 s 3.63,12.75-2.87,24.38 c -8.37-2.5-19.87-13-21.12-24.37 A 18.19,18.19,0,0,1,284,224.13Z" fill="param(accent_colour_1)"/>
  </g>
  <g id="accent-colour-2">
    <path d="M 283.75,224.63 l -3.25,2.13 s .25,17,3.63,29.75 a 66.53,66.53,0,0,1,11.88,2 l -2.37,9.88 s 11.38,3.13,19,23.5 c -.25-10.37-2.37-18-5.75-24.87 s -10-16.25-14.25-22.87 S 286,233.25,285,229.88Z" fill="param(accent_colour_2)"/>
    <path d="M 316.12,223.88 l 3.38,1.38 s 6.25,13.5,11.25,18.88 c -3,5.38-4.75,9.25-4.75,9.25 l 4.5,11 s -2.62,13.25-17.5,27 c 4.63-9,8.13-18.5,9.13-30.37 S 316.12,223.88,316.12,223.88Z" fill="param(accent_colour_2)"/>
    <path d="M 279.48,319.38 s 6.38,3.63,12.75,4 c -3,6.75-7.37,12.63-12,11.75 s -7.12-3.75-7.62-5.62 a 21.33,21.33,0,0,0,5.63-7.5Z" fill="param(accent_colour_2)"/>
    <path d="M 324.92,335 s -6.94.81-7.44-10.37 c 2.44-.56,3.38-.81,3.38-.81 S 320,326.38,324.92,335Z" fill="param(accent_colour_2)"/>
  </g>
  <g id="outline">
    <path d="M 335.59,283.06 A 25.08,25.08,0,0,0,342,271.72 a 21,21,0,0,0-4.32-18.28 c -2.18-2.69-4.5-5.58-6.55-8.38 l .39-.77 a 126.68,126.68,0,0,1-10.26-16.6 A 10.43,10.43,0,0,1,329,227 a 9.48,9.48,0,0,0-8.68-1.09 l -.65-1.29 c -6.5-3.75-9.17-6.33-9.75-6.33,2.83,5.58,2.9,18.08-1.43,26.42-8.08-3.75-18.92-11.83-20.4-25.58 a 29.67,29.67,0,0,1-5.08,4.42,21.29,21.29,0,0,0-3.56,2.58 s 0,.1,0,.29 a 12.28,12.28,0,0,1-5.24,1 c -1.07-.16-3.3-.91-4.84-1.29 A 14,14,0,1,0,262.13,253 c 0,.17-.49,6.17,1.5,17.11 h 0 c .11.59.22,1.18.34,1.79.18.92.39,1.8.62,2.67 l .16.6 c .23.84.47,1.66.73,2.45 l .11.32q.36,1.06.76,2.08 l .22.54q.45,1.09.93,2.14 l .22.45q.43.9.89,1.76 l .22.42.11.21 h 0 a 61.87,61.87,0,0,0,3.76,6v0 c 4,6.33,10,15.17,6.5,25.83 s -14,16.83-20.67,25.83 a 45.05,45.05,0,0,0-8.67,22.67 c 16.33,2.83,40.17-5.33,58-24.83,11.33,11.83,21.63,18.58,29.38,19-.75-8-4-13.37-9-20.87 s -6.37-11-6.37-15.87,4.63-14.62,7.5-20.25 S 335.08,290.1,335.59,283.06Z m -6.41-39.59.53,1 A 133,133,0,0,0,323,258.39 a 84.58,84.58,0,0,0-3.37-23.89 c -1.22-4.26-2.13-7.55-2.57-9.16 a 12.38,12.38,0,0,0,1.84.78 C 322.44,232.6,325.53,238.6,329.17,243.47Z M 303,261.65 c 5.35,7.81,8.63,20.9,9.3,27.92-4-9.11-7.59-16.86-17.59-21.86 A 50,50,0,0,1,297,259.6 C 299.18,260.24,301.23,260.95,303,261.65Z m 17.56-15.57 c 1.5,9.84,2.1,23.2-6.05,40.68,3.86-17.1-2.56-34.88-4.77-40.25 l 9.88,4.45 A 14.8,14.8,0,0,0,320.56,246.08Z m -7.43,40.57 A 59.35,59.35,0,0,0,305,261.88 c -1.52-2.35-4.32-6.57-7.31-11.11 a 25.38,25.38,0,0,0,7.68,5.11 l 3.28-8.45 A 71,71,0,0,1,313.13,286.65Z m 9.49-23.28 c .11-.81.18-1.62.24-2.44.58-1,1.8-3.33,3.16-5.93.91,2.22,3.12,7.66,3.52,9.37-1.32,6.44-7.4,16.55-14.05,23.43 A 80.59,80.59,0,0,0,322.62,263.38Z m -9.24-40.83 a 11.06,11.06,0,0,0,2.08,1.86 c .58,2.07,1.7,6.14,2.78,10.53 a 54.47,54.47,0,0,1,.55,13.87 c -3.57-1.78-7.44-3.3-8.9-3.86 C 315,235.9,313.39,222.54,313.39,222.54Z M 308,245.8v0 c -.55,1.19-1.74,3.91-3.22,8.13-10.67-4.5-17.87-21.12-17.87-21.12 l 0,.15 a 26.52,26.52,0,0,1-2.06-8,22.49,22.49,0,0,0,2.19-1.8 C 288.09,228.31,295.12,241.31,308,245.8Z m -24.35-19.95 a 30.69,30.69,0,0,0,5.14,13.46 c 4.76,7.3,7.13,11.75,12.75,20.1 a 65.19,65.19,0,0,0-16.86-3.79,222.36,222.36,0,0,1-3.26-28.5 A 22.26,22.26,0,0,0,283.61,225.85Z M 289.74,327 a 25.78,25.78,0,0,1-11.31-3.75,26.55,26.55,0,0,0,1.37-2.88 A 35.23,35.23,0,0,0,291.14,324 C 290.68,325.1,290.22,326.08,289.74,327Z m -.63,1.12 c -3.43,5.77-7.27,6.82-10.6,5.78 a 8.35,8.35,0,0,1-4.82-4.06,38.08,38.08,0,0,0,4.26-5.72 A 25.13,25.13,0,0,0,289.11,328.1Z M 251.39,364.5 c 3.25-15.37,9.25-21.5,15-27.25,2-2,4.13-4,6.17-6.19 a 9.47,9.47,0,0,0,5,4.31 c 8,2.75,12.75-4.37,15.75-12.5 a 33,33,0,0,1-13-3.89,24.38,24.38,0,0,0,.83-3.11 c 1.88-9.62-1-15.62-3.25-19.12 a 58.57,58.57,0,0,1-3.62-6.5 h 0 c -.39-.56-.79-1.15-1.2-1.78 l -.12-.19-.5-.79-.13-.21 c -.41-.66-.82-1.36-1.24-2.1 l -.2-.36-.44-.79-.23-.43-.44-.84-.22-.42-.64-1.28,0-.05 c -.18-.37-.35-.75-.52-1.14 l -.12-.27 c -.16-.39-.32-.79-.47-1.2v0 c -.15-.41-.29-.82-.42-1.24 l -.09-.29 c -.14-.43-.27-.87-.39-1.32v0 c -.12-.44-.24-.89-.35-1.34 l -.06-.26q-.17-.7-.32-1.41v0q-.15-.71-.29-1.42 l 0-.21q-.14-.73-.26-1.47 a 110.6,110.6,0,0,1-1.35-16.11 c 0-.41,0-1.11-.1-2 a 12,12,0,0,1,.54-24,7.81,7.81,0,0,1,2,.18,8.77,8.77,0,0,1,2.07.48 c 7,2.89,9.33,1.16,9.33,1.16 a 13.66,13.66,0,0,0,1.56-.5,215.79,215.79,0,0,0,3.54,28.58,56.58,56.58,0,0,1,12,2,78.08,78.08,0,0,1-3,9.78 c 12.34,4.74,16.47,15.91,19.93,24.12 a 191.5,191.5,0,0,1-3.95,23.29 c -3.12,12.49-1.35,21.42-.91,23.29 C 299.91,347.72,276.23,367.86,251.39,364.5Z m 72.56-30.19 c -1.21,0-3.73-.73-5.2-5.63 a 19.92,19.92,0,0,0,2.13-.52 A 43,43,0,0,0,323.95,334.31Z M 318,325.25 c .76-.14,1.62-.35,2.25-.51 a 15,15,0,0,0,.25,2.14 c 0,.11.06.24.09.36 a 15.22,15.22,0,0,1-2.12.44 C 318.3,327,318.14,326.15,318,325.25Z m 2.24-2 a 9.16,9.16,0,0,1-3.62,1 c 1,6.56,2.49,11.63,8.17,11.54,4,6.91,9.58,15.68,11,22.34-8-.86-21.23-11.92-27.36-19.18 a 67.7,67.7,0,0,1,1.15-22.74,148.24,148.24,0,0,0,4.23-24.36 c 8-8.34,14.54-16.26,17.83-27.8-2.22-4.58-4.21-9.15-4.81-10.56,1.44-2.78,2.91-5.64,3.82-7.42,1.07,1.84,2.3,3.8,3.68,5.77,6.27,8.92,7,17.79,3,25.75 a 19.72,19.72,0,0,1-3.67,5 c -.06.55-.14,1.12-.22,1.72-.11.81-1.64,11-6.56,19.53 C 322.76,311,320.42,317.84,320.25,323.22Z"/>
    <circle cx="315.1" cy="252.55" r="1.21"/>
    <circle cx="316.77" cy="258.79" r="1.21"/>
    <circle cx="317.5" cy="264.66" r="1.21"/>
    <circle cx="317.55" cy="270.84" r="1.21"/>
    <circle cx="318.44" cy="299.39" r="1.78"/>
    <circle cx="314.82" cy="310.01" r="1.78"/>
    <circle cx="312.32" cy="320.89" r="1.78"/>
    <circle cx="311.32" cy="333.26" r="1.78"/>
    <path d="M 287,288.13 c 8.25,2.13,15.13.25,18.88-4.75 C 295.62,289.5,287,288.13,287,288.13Z"/>
  </g>
<script type="text/ecmascript" xlink:href="param.min.js"/> 
</svg>
