<?xml version="1.0"?>
<svg xmlns="http://www.w3.org/2000/svg" xmlns:xlink="http://www.w3.org/1999/xlink" viewBox="0 0 600 600">
  <title>basic-bikini-top-slender</title>
  <g id="main-colour">
    <path d="M 273.27,275.8 A 36.57,36.57,0,0,0,288,281.3 c 2.17-13.33,8.42-27.67,8.42-27.67 S 291.69,233.8,285.11,227 c 1-.58,2-1.33,2-1.33 s 7.17,6.58,12.67,26.33 c 4.42,6.67,10.5,16.08,12.42,25 a 5.45,5.45,0,0,0,3.83-.08 s 1.42-15.75,9-24.25 c -5.33-8.75-10.92-16.92-13.92-22.08 s -3.5-7.75-3.08-9 c .17,1.5,2.33,3.58,2.33,3.58 a 50.38,50.38,0,0,0,5.25,8.83 C 318.69,238,327,249,329,252 s 8.42,12.25,3.42,28.08 c -3.67,2.42-8,1.92-11.67,1 s -8.67-1.42-10-.67 c -2.33,2.17-5.33,5.17-13.33,5.33 s -21.17-4.58-23.42-6.25 A 16.12,16.12,0,0,1,273.27,275.8Z" fill="param(main_colour)"/>
  </g>
  <g id="outline">
    <path d="M 334.94,266.54 c -.33-7.12-4-12.92-6.46-16.17-2.09-2.71-5.12-7.19-9.5-12.75-3.93-5-7-9.33-8.37-12.67 a 10.83,10.83,0,0,1-2.72-4.43 s -1.83,1.68,1.5,7.84 a 169.91,169.91,0,0,0,10.05,16.25,93.42,93.42,0,0,1,4.92,8 s -7.08,7.92-8.83,23.67 a 3.86,3.86,0,0,1-3-.17,69,69,0,0,0-4.42-11.67 c -2.75-5.42-5.42-8.75-7.58-12.58-3.33-10.33-7.17-21-13.3-27 a 23.67,23.67,0,0,1-3.33,2 s 6.8,4.83,11.8,26.83 c -5.33,12-7.67,21.83-8.05,27.17-6-.5-15-5.92-15-5.92 s .17,3.42,1.33,4.92 c 5.67,3.17,16.81,6.39,24.32,6.17,8.58-.25,10.92-3.75,12.92-5.42 a 13.32,13.32,0,0,1,6.4.25 s 10.75,3.75,15.37-.37 A 33.61,33.61,0,0,0,334.94,266.54Z m -2.77,11.86 a 13,13,0,0,1-1.88.76,13.33,13.33,0,0,0-.19-3.21,21.6,21.6,0,0,1-.46,3.39,12.59,12.59,0,0,1-4.26.35,10.93,10.93,0,0,0,6.57-.54 c -.07.22-.11.42-.18.64-3,2.17-6.51,1.54-10.54.71 a 70.9,70.9,0,0,0-7.46-1.12,30.27,30.27,0,0,0-3.33.41 c -3.24,3.68-9.28,6-15.15,5.25 a 75.34,75.34,0,0,1-20.74-5.67,14.26,14.26,0,0,1-.58-2.75 c 5.25,3.33,11.08,5.17,14.58,5.25 a 103.78,103.78,0,0,1,8.8-28 C 292.36,235,286.07,227,286.07,227 a 2.36,2.36,0,0,0,1.31-.69 c 7.64,10.4,10,20.56,12,26.4,0,0,10.31,13.49,12.22,24.51 a 13.39,13.39,0,0,0,2.91.53,3.47,3.47,0,0,0,1.94-.62 c 1.25-8.75,3.44-16.94,9.19-24.5 a 104.58,104.58,0,0,0-6.58-10.5 c -2.52-3.75-4.32-6.71-6.42-9.87-1.8-2.71-3.87-6.37-4.25-9.25 a 9.39,9.39,0,0,0,1.5,2.19,78.72,78.72,0,0,0,6.75,10.94 c 4.12,5.5,7.87,10.45,11.12,15.45,3.89,6,5.21,9,5.56,12.61 A 37.35,37.35,0,0,1,332.17,278.41Z"/>
    <path d="M 292.47,283.59 l -.34,0Z"/>
    <path d="M 304,282.2 a 23.66,23.66,0,0,0-.68-5.76,23.67,23.67,0,0,1-.14,6.06,25.06,25.06,0,0,1-10.69,1.09 c 13.82,2,17.1-4.52,18.61-6.56 A 16.91,16.91,0,0,1,304,282.2Z"/>
  </g>
<script type="text/ecmascript" xlink:href="param.min.js"/> 
</svg>
