<?xml version="1.0"?>
<svg xmlns="http://www.w3.org/2000/svg" xmlns:xlink="http://www.w3.org/1999/xlink" viewBox="0 0 600 600">
  <title>midi-crew-neck-t-shirt-slender</title>
  <g id="main-colour">
    <path d="M 337,250.71 c -1.72-1.72-4.33-4.51-5.88-6.19 a 11.19,11.19,0,0,0-14.81-15.9,3.12,3.12,0,0,0-1.56-.2 l -.14-.05 c 2.15,3.16,3.57,7.36,3.28,10.38-.5,5.13-13.25,10.25-23.5,3.13 a 26.57,26.57,0,0,1-10.29-13.63,14.27,14.27,0,0,1-2.16.69 c -7.45-6.36-19.55-1.14-20,7.95 s 6,12.33,9.33,13.42 c -1.25,5.92,1.32,21.18,2.47,27.83,1.63,9.38,4.66,20.41,6.5,28.91,3.38,15.59.78,18.59-6.39,31-7,12.12-9,16.95-11.41,26.55,2.8-1.57,8.23-3.48,16.79-2,13.38,2.38,24.5,7.25,36.5,5.25,8.9-1.48,13.33-5,16.25-9.47-.15-.46-.29-.92-.47-1.37,0,0,.6.35.6.34.08-1.37-.43-4.08-4.43-12 s -4.57-12.7-4.73-21.12,1.82-20.63,3.91-27.88 c 1-3.42,2.5-7.76,3.91-12.61 a 35.94,35.94,0,0,0,4.63-2.06 c 2.92-1.58,7.67-6.42,8.5-14.17 S 339.55,253.29,337,250.71Z" fill="param(main_colour)"/>
  </g>
  <g id="outline">
    <path d="M 336.14,249.13 a 102.91,102.91,0,0,1-8.24-8.88 c 2.76,6,11,12.38,13.37,17.88 s 1.44,13.21-1.75,18 c -2.93,4.39-5.86,6.57-9.85,7.55 l -.17.58 a 17.79,17.79,0,0,0,15.27-14 C 347,259.53,341,253.7,336.14,249.13Z"/>
    <path d="M 284.41,226.93 a 11.64,11.64,0,0,1-2.89.89 c -.18,1.23,1.49,1.9,1.49,1.9 a 9.26,9.26,0,0,0,2.17-.83 S 284.8,228,284.41,226.93Z"/>
    <path d="M 316.63,226.24 a 18.37,18.37,0,0,0-3.58,2 c .53.86,1,1.45,1,1.45 a 17.08,17.08,0,0,0,2.59-1.26 l .54-.24 a 11.26,11.26,0,0,1,8.35-.33 C 322.94,225.38,318.51,225.38,316.63,226.24Z"/>
    <path d="M 306.72,246.19 c -18.08,0-23.74-17.42-23.81-17.61 l 1.89-.65 a 31.14,31.14,0,0,0,5.49,9.15,21.88,21.88,0,0,0,19.94,6.81 c 3.16-.52,5.27-1.82,6.26-3.84,2.19-4.49-3.1-11.25-3.13-11.31 l 1.76-1 c .17.31,5.81,7.74,3.17,13.15-1.29,2.64-3.89,4.31-7.73,4.94 A 23.47,23.47,0,0,1,306.72,246.19Z"/>
    <path d="M 310.44,369.13 c -8,0-16.45-2.14-24.39-4.29-16.77-4.54-23.29.74-23.35.79 l -.61-2.48 c .28-.22,8-5.27,25.43.06,18.77,5.74,37.78,6.29,44.72-7 l 1,1.52 C 328.29,366.13,319.14,369.13,310.44,369.13Z"/>
    <path d="M 274,227.22 a 11.14,11.14,0,0,1,6.16,1.85 h 0 l 1.56.85 c .76-.15,1.54-.21,2.07-.37 a 13.53,13.53,0,0,0-9.78-4.33,13.2,13.2,0,0,0-1.54,26.31 c 0-.54,0-2,0-2 h 0 A 11.2,11.2,0,0,1,274,227.22Z"/>
    <path d="M 271.23,268.19 c 2.5,9.5,6.15,21.81,8.36,31.38,1.85,8,3.7,15.63,3,23.92-.69,7.75-2.53,16.72-6.19,22.39,4.07-9.88,5.5-23.87,2.82-37.26 C 276.65,296.07,271.29,273.38,271.23,268.19Z"/>
    <path d="M 276.68,288.08 a 154.43,154.43,0,0,1-3.2-19,89.38,89.38,0,0,1-1-18.68 h -2.55 a 112.56,112.56,0,0,0,1.33,18.33 A 116,116,0,0,0,276.68,288.08Z"/>
    <path d="M 282.53,315.53 h 0 c -2,11.61-12,24.94-16.6,34.86 A 60.3,60.3,0,0,0,261,366.77 a 23.67,23.67,0,0,1,2.29-1.56 h 0 a 70.79,70.79,0,0,1,5.76-15.95 c 2.54-5,9.81-16.3,13.37-25.29 A 71.2,71.2,0,0,0,282.53,315.53Z"/>
    <path d="M 317.86,334.38 a 52,52,0,0,0-3.69,23.81 C 314.3,348.27,317.86,334.38,317.86,334.38Z"/>
    <path d="M 267.11,359.63 s 6.25-3,19,1.13,23.13,5.13,27.5,4.38 a 89.8,89.8,0,0,1-17.5-2.18 C 289.61,361.45,273.86,354.75,267.11,359.63Z"/>
    <path d="M 324.47,318.79 c 1-11.15,4.83-23.86,7.7-35.5-1,.31-2,.57-2.6.72-5.8,20.38-9.93,34.9-7.1,49.7,2.14,9.8,7.62,16.16,9.82,25.42 h 0 s .43-.62.91-1.35 A 47,47,0,0,0,329,345.63 C 326,339.5,323.16,333.7,324.47,318.79Z"/>
    <path d="M 292.14,285.38 c 6.87,2.13,15.94,1.39,21.83-3.67 C 309.22,289.38,297.38,289.89,292.14,285.38Z"/>
  </g>
<script type="text/ecmascript" xlink:href="param.min.js"/> 
</svg>
