<?xml version="1.0"?>
<svg xmlns="http://www.w3.org/2000/svg" xmlns:xlink="http://www.w3.org/1999/xlink" viewBox="0 0 600 600">
  <title>wedding-dress-voluptuous</title>
  <g id="main-colour">
    <path d="M 245.85,265.63 s 4.88,2.63,13-.5,13.1-8.33,25-11.08,18.29.46,26.67,6.33 c 7.38-7.75,20.67-11.83,31.86-10.25,6.31,4.58,6,12.42,4.48,20.42 a 97.07,97.07,0,0,1-4.1,15 s -3.25,7.5-.75,13.13,11.88,18.75,21.5,30.38,23.5,32.5,40.63,72.38,27.25,94.13,29.13,109.75,1.25,21.38,1.25,21.38-3.62,4.25-7.75,6-9.75,8-9.75,8 l .25,7.63 s -5.87,12.25-19,16.38-26.75,2.5-30.5,6.25 c .13,4.88.5,11.13.5,11.13 a 35,35,0,0,0-17.37,1 c -9.12,3-13.75,7.25-23.62,7.5 s -17.75-2.12-24.5-2.87-17.25.63-21.37,2.38 c 1-5.37.38-6.62.38-6.62 s -12.37-6.37-20.37-5 S 239.72,586.5,229,578 c -1-6-1-6.62-1-6.62 s -6-3.62-11.62-4.25-23-3.12-25.5-9.5 c -.25-7.75-.5-8.37-.5-8.37 s -6.87-4.5-11.12-5.12-6.62-3.62-7.87-9-3.87-28.75-1.37-55.87,9.88-58.25,18-77.5,17-38.62,34.38-62.87,27.75-32.5,28.88-38.37-.12-10.25-1.5-14.25 S 245.1,272.38,245.85,265.63Z" fill="param(main_colour)"/>
  </g>
  <g id="accent-colour-1">
    <circle cx="277.53" cy="226.19" r="2.58" fill="param(accent_colour_1)"/>
    <circle cx="272.6" cy="229.25" r="2.58" fill="param(accent_colour_1)"/>
    <circle cx="277.29" cy="232.44" r="2.58" fill="param(accent_colour_1)"/>
    <circle cx="282.54" cy="235.19" r="2.58" fill="param(accent_colour_1)"/>
    <circle cx="287.85" cy="237.38" r="2.58" fill="param(accent_colour_1)"/>
    <circle cx="293.35" cy="239.5" r="2.58" fill="param(accent_colour_1)"/>
    <circle cx="298.79" cy="240.94" r="2.58" fill="param(accent_colour_1)"/>
    <circle cx="303.91" cy="242.44" r="2.58" fill="param(accent_colour_1)"/>
    <circle cx="309.9" cy="241.52" r="2.58" fill="param(accent_colour_1)"/>
    <circle cx="315.5" cy="240.93" r="2.58" fill="param(accent_colour_1)"/>
    <circle cx="319.94" cy="236.95" r="2.58" fill="param(accent_colour_1)"/>
    <circle cx="324.66" cy="232.82" r="2.58" fill="param(accent_colour_1)"/>
    <circle cx="328.66" cy="228.82" r="2.58" fill="param(accent_colour_1)"/>
    <circle cx="313.37" cy="246.16" r="2.58" transform="translate(46.37 541.97) rotate(-86.08)" fill="param(accent_colour_1)"/>
    <circle cx="307.57" cy="246.38" r="2.58" transform="translate(40.74 536.4) rotate(-86.08)" fill="param(accent_colour_1)"/>
    <circle cx="310.38" cy="251.26" r="2.58" transform="matrix(0.07, -1, 1, 0.07, 38.5, 543.74)" fill="param(accent_colour_1)"/>
    <circle cx="282.35" cy="229.38" r="2.58" fill="param(accent_colour_1)"/>
    <circle cx="287.6" cy="231.88" r="2.58" fill="param(accent_colour_1)"/>
    <circle cx="292.85" cy="234" r="2.58" fill="param(accent_colour_1)"/>
    <circle cx="298.35" cy="235.44" r="2.58" fill="param(accent_colour_1)"/>
    <circle cx="303.83" cy="236.75" r="2.58" fill="param(accent_colour_1)"/>
    <circle cx="309.72" cy="236.32" r="2.58" fill="param(accent_colour_1)"/>
    <circle cx="314.83" cy="235.13" r="2.58" fill="param(accent_colour_1)"/>
    <circle cx="319.97" cy="230.82" r="2.58" fill="param(accent_colour_1)"/>
    <circle cx="323.6" cy="226.63" r="2.58" fill="param(accent_colour_1)"/>
    <circle cx="258.27" cy="276.8" r="2.33" fill="param(accent_colour_1)"/>
    <circle cx="261.42" cy="288.98" r="2.33" fill="param(accent_colour_1)"/>
    <circle cx="260.6" cy="303.52" r="2.33" fill="param(accent_colour_1)"/>
    <circle cx="274.81" cy="268.35" r="2.33" fill="param(accent_colour_1)"/>
    <circle cx="277.87" cy="283.13" r="2.33" fill="param(accent_colour_1)"/>
    <circle cx="278.56" cy="296.34" r="2.33" fill="param(accent_colour_1)"/>
    <circle cx="278.24" cy="308.54" r="2.33" fill="param(accent_colour_1)"/>
    <circle cx="295.35" cy="308.78" r="2.33" fill="param(accent_colour_1)"/>
    <circle cx="295.99" cy="291.13" r="2.33" fill="param(accent_colour_1)"/>
    <circle cx="295.16" cy="274.21" r="2.33" fill="param(accent_colour_1)"/>
    <circle cx="292.39" cy="258.62" r="2.33" fill="param(accent_colour_1)"/>
    <circle cx="311.42" cy="267.7" r="2.33" fill="param(accent_colour_1)"/>
    <circle cx="311.74" cy="283.25" r="2.33" fill="param(accent_colour_1)"/>
    <circle cx="312.12" cy="302.13" r="2.33" fill="param(accent_colour_1)"/>
    <circle cx="312.48" cy="319.79" r="2.33" fill="param(accent_colour_1)"/>
    <circle cx="330.83" cy="309.13" r="2.33" fill="param(accent_colour_1)"/>
    <circle cx="329.24" cy="292.25" r="2.33" fill="param(accent_colour_1)"/>
    <circle cx="329.45" cy="274.55" r="2.33" fill="param(accent_colour_1)"/>
    <circle cx="329.53" cy="258.25" r="2.33" fill="param(accent_colour_1)"/>
    <circle cx="344.58" cy="267" r="2.33" fill="param(accent_colour_1)"/>
    <path d="M 309.45,260.63 s 2.46,8.92,2,30.63 c -.33,15.79.23,32.79,3.07,42.79.62,1.21,1.18.71,1.18.71 l .19-.31 a 96.92,96.92,0,0,1-3-19.87 c -.43-10.49,0-13.38-.19-21.81-.21-9,.88-21.71-1.62-32.62 C 310.62,259.67,309.45,260.63,309.45,260.63Z" fill="param(accent_colour_1)"/>
    <path d="M 327.66,251.8 a 163.86,163.86,0,0,1,1.25,23 c -.33,11.18-.89,28.58,1.94,42.92 l 1-.83 A 157.27,157.27,0,0,1,330.08,300 c -.31-8.19-.06-18.71.08-25 a 148.28,148.28,0,0,0-1.08-23.42 C 328.74,251,327.66,251.8,327.66,251.8Z" fill="param(accent_colour_1)"/>
    <path d="M 290.33,254 s 4.25,15.25,4.75,26.5 c .44,9.92,1.83,22.42-2.83,39.17-.29,1,1.58,1.42,1.58,1.42 l -.08-1.17 s 3.75-10.08,3.17-30.83 c -.62-22.08-5.17-35.5-5.17-35.5Z" fill="param(accent_colour_1)"/>
    <path d="M 271.41,260.38 s 5.92,16,6.75,29.17 a 83.68,83.68,0,0,1-1.81,23.5 l 1,.33 s 3.41-13.47,1.64-27.08 a 145.21,145.21,0,0,0-6.33-26.67Z" fill="param(accent_colour_1)"/>
    <path d="M 254.85,266.71 s 1.29,7.38,3.31,11.85,5.52,17.48-.15,30.15 c 1.83.33,1.33.33,1.33.33 s 4.59-11.3,2.3-21.82-5.13-17.68-5.46-21 A 4.51,4.51,0,0,1,254.85,266.71Z" fill="param(accent_colour_1)"/>
    <path d="M 340.58,250.5 s 4.63,9.88,3.38,17.25-3.62,19.75-3.87,25.75,2.38,14.5,2.38,14.5 l 1.25-.62 A 47.23,47.23,0,0,1,341.33,293 c .13-7.25,4.5-23,3.88-30.12 A 40.71,40.71,0,0,0,342,250.25Z" fill="param(accent_colour_1)"/>
  </g>
  <g id="outline">
    <path d="M 432.85,498.5 a 483.25,483.25,0,0,0-24.25-90.25 C 399.35,384,384.35,352,369.22,334 s -24.5-31.87-26.37-35.75,1.13-12.5,1.13-12.5,2.18-7.29,3.27-12.29 c 1-4.46,3-13.8-.54-20.22 a 3.36,3.36,0,0,0-.46-.79,21,21,0,0,0-4-3.57 C 321.33,246.13,310,259,310,259 s -7.67-7.17-20.83-7.17-22.14,9.42-30.31,12.08 a 23,23,0,0,1-14.5.17 c -.17,13.17,5.33,23.67,6.33,29 s 1.33,6.5-15.17,26.5-32.5,43.17-44.67,69.83 S 172,442.88,169,473 s -1.67,47.33,1,64.83 a 14.8,14.8,0,0,0,11.33,8.67,15.54,15.54,0,0,1,7.51,3.63 c .34,3.54.76,6.63,1.24,9.2,7.5,6.75,16.5,8.25,23.75,8.75 a 29.36,29.36,0,0,1,13,4.35q.2,3.14.46,6.15 c 12,8.5,23.25,9,30.25,7.75,6.05-1.08,15.45.09,20.64,3.33.44,2.72.9,5.42,1.36,8.17,8.5-3.75,19-3.5,26.25-2 s 25.5,4.25,35.75-1.25,19.75-6.75,28.25-4.5 c -.27-4-.58-8.18-.91-12.39,6-4.05,16.72-.93,30.66-6.11,15.5-5.75,18.75-17.25,18.75-17.25 s 0-2.77-.19-7.73 a 35,35,0,0,1,9.07-6.89 c 6.5-3.37,8.5-7.37,8.5-7.37 S 435.6,510.75,432.85,498.5Z M 346.23,267 a 1.69,1.69,0,0,1-1.69,1.69 h -.17 a 1.69,1.69,0,0,1-1.69-1.69v-.17 a 1.69,1.69,0,0,1,1.69-1.69 h .17 a 1.69,1.69,0,0,1,1.69,1.69Z m -94.5,21 c -1.87-5.62-4.62-12-4.75-20.87,4.13,1.38,11.25.13,18-2.75 s 12.6-8.62,21.85-9.75,17,2.38,23.75,7 c 7.38-7.5,19.75-11.5,31.15-10.5,2.08,1.56,4.22,2.6,5.13,8.87 a 40.73,40.73,0,0,1-.24,5.4,2.5,2.5,0,0,0-2-1.06 h -.24 a 2.51,2.51,0,0,0-2.5,2.5v.24 a 2.51,2.51,0,0,0,2.5,2.5 h .24 a 2.48,2.48,0,0,0,1.46-.48,113.59,113.59,0,0,1-3.81,15.15 c -5,10.82-1.39,16.44,2.2,21.69-3.35,2.28-20.24,14.18-29.07,28.1-15.61-15.13-44.74-27.14-66.68-25.85.85-1,1.51-1.87,1.93-2.44 C 253.72,301.5,253.6,293.63,251.72,288Z M 424.35,538.5 a 24.68,24.68,0,0,0-6.31,5.4 c -1-20.67-4.88-68.89-20.94-117.27-21.25-64-50.5-96.25-50.5-96.25,24.25,32.75,47.5,92.25,55.75,126 s 11.75,73.5,13,97.25 c -5,11.75-18.25,18-31,18-8.42,0-13.33,1.41-15.71,2.38-2.11-25.83-5.2-54-8.29-78.13-3.75-29.25-14.75-110-39.5-149.25,9.75,22,19,46.5,29,100.5 s 16.5,138.75,16.5,138.75-14.25-.5-22.5,4-17,5.75-22.75,5.25-17.75-2.75-22-3.25-13.33-.58-16.58,1.17 c -4.5-22-4.56-39.74-4-58,.67-21.58,4.83-71.42,13.33-117.67 s 13.25-72.25,13.25-72.25 S 284.79,416.79,277.85,488 c -5.31,54.5-3.36,77.59-.18,98.08 a 26.39,26.39,0,0,0-17.32-2.74 c -12.5,2.25-26-3-29.25-5.75-1.5-30.5-1.5-52.75,3.25-90.75 s 14.5-78.75,22.25-101.25,21.25-49,21.25-49-22.5,29.75-36.75,94.5 c -13,59.09-16.22,104.43-14.4,138.13 a 39.58,39.58,0,0,0-14.35-3.88 c -9-.5-20.25-7.75-20.25-7.75 s -2.5-40,0-67,9-64.25,20.25-94.75,36-69.25,36-69.25-24,24.25-43,81.25 c -16.34,49-19.18,107.85-16.79,138.78 a 26.94,26.94,0,0,0-7.54-3.28 c -4.5-1-7.67-4-8.17-7.33-4.17-26.5-2.5-72.33,8.17-109.5 s 25-60.92,37.71-79.79 c 10-14.75,21.92-28.9,28.15-36.4,7.39-.55,36.07-.64,68.47,26,10.27-14.9,26.32-25.91,30.37-28.55,4,5.74,11.94,15.8,20.5,27.18,9.13,12.13,19.63,27.75,33.88,61.75 s 19,53.5,23.88,73.5,9,48.5,9.25,61.63 C 432.47,534,428.35,536.38,424.35,538.5Z"/>
    <path d="M 274.61,270.87 h .24 a 2.51,2.51,0,0,0,2.5-2.5v-.24 a 2.51,2.51,0,0,0-2.5-2.5 h -.24 a 2.51,2.51,0,0,0-2.5,2.5v.24 A 2.51,2.51,0,0,0,274.61,270.87Z m -1.65-2.7 a 1.69,1.69,0,0,1,1.69-1.69 h .17 a 1.69,1.69,0,0,1,1.69,1.69v.17 a 1.69,1.69,0,0,1-1.69,1.69 h -.17 a 1.69,1.69,0,0,1-1.69-1.69Z"/>
    <path d="M 275.27,283v.24 a 2.51,2.51,0,0,0,2.5,2.5 H 278 a 2.51,2.51,0,0,0,2.5-2.5V283 a 2.51,2.51,0,0,0-2.5-2.5 h -.24 A 2.51,2.51,0,0,0,275.27,283Z m .85,0 a 1.69,1.69,0,0,1,1.69-1.69 H 278 a 1.69,1.69,0,0,1,1.69,1.69v.17 a 1.69,1.69,0,0,1-1.69,1.69 h -.17 a 1.69,1.69,0,0,1-1.69-1.69Z"/>
    <path d="M 278.68,293.63 h -.24 a 2.51,2.51,0,0,0-2.5,2.5v.24 a 2.51,2.51,0,0,0,2.5,2.5 h .24 a 2.51,2.51,0,0,0,2.5-2.5v-.24 A 2.51,2.51,0,0,0,278.68,293.63Z m 1.65,2.7 a 1.69,1.69,0,0,1-1.69,1.69 h -.17 a 1.69,1.69,0,0,1-1.69-1.69v-.17 a 1.69,1.69,0,0,1,1.69-1.69 h .17 a 1.69,1.69,0,0,1,1.69,1.69Z"/>
    <path d="M 278.35,306 h -.24 a 2.51,2.51,0,0,0-2.5,2.5v.24 a 2.51,2.51,0,0,0,2.5,2.5 h .24 a 2.51,2.51,0,0,0,2.5-2.5v-.24 A 2.51,2.51,0,0,0,278.35,306Z m 1.65,2.7 a 1.69,1.69,0,0,1-1.69,1.69 h -.17 a 1.69,1.69,0,0,1-1.69-1.69v-.17 a 1.69,1.69,0,0,1,1.69-1.69 h .17 A 1.69,1.69,0,0,1,280,308.5Z"/>
    <path d="M 260.7,300.84 h -.24 a 2.51,2.51,0,0,0-2.5,2.5v.24 a 2.51,2.51,0,0,0,2.5,2.5 h .24 a 2.51,2.51,0,0,0,2.5-2.5v-.24 A 2.51,2.51,0,0,0,260.7,300.84Z m 1.65,2.7 a 1.69,1.69,0,0,1-1.69,1.69 h -.17 a 1.69,1.69,0,0,1-1.69-1.69v-.17 a 1.69,1.69,0,0,1,1.69-1.69 h .17 a 1.69,1.69,0,0,1,1.69,1.69Z"/>
    <path d="M 258.77,288.88v.24 a 2.51,2.51,0,0,0,2.5,2.5 h .24 a 2.51,2.51,0,0,0,2.5-2.5v-.24 a 2.51,2.51,0,0,0-2.5-2.5 h -.24 A 2.51,2.51,0,0,0,258.77,288.88Z m .85,0 a 1.69,1.69,0,0,1,1.69-1.69 h .17 a 1.69,1.69,0,0,1,1.69,1.69v.17 a 1.69,1.69,0,0,1-1.69,1.69 h -.17 a 1.69,1.69,0,0,1-1.69-1.69Z"/>
    <path d="M 258.12,279.42 h .24 a 2.51,2.51,0,0,0,2.5-2.5v-.24 a 2.51,2.51,0,0,0-2.5-2.5 h -.24 a 2.51,2.51,0,0,0-2.5,2.5v.24 A 2.51,2.51,0,0,0,258.12,279.42Z m -1.65-2.7 a 1.69,1.69,0,0,1,1.69-1.69 h .17 a 1.69,1.69,0,0,1,1.69,1.69v.17 a 1.69,1.69,0,0,1-1.69,1.69 h -.17 a 1.69,1.69,0,0,1-1.69-1.69Z"/>
    <path d="M 292.45,274v.24 a 2.51,2.51,0,0,0,2.5,2.5 h .24 a 2.51,2.51,0,0,0,2.5-2.5V274 a 2.51,2.51,0,0,0-2.5-2.5 H 295 A 2.51,2.51,0,0,0,292.45,274Z m 2.7-1.65 a 1.69,1.69,0,0,1,1.69,1.69v.17 a 1.69,1.69,0,0,1-1.69,1.69 H 295 a 1.69,1.69,0,0,1-1.69-1.69V274 a 1.69,1.69,0,0,1,1.69-1.69Z"/>
    <path d="M 296,288.49 a 2.51,2.51,0,0,0-2.5,2.5v.24 a 2.51,2.51,0,0,0,2.5,2.5 h .24 a 2.51,2.51,0,0,0,2.5-2.5V291 a 2.51,2.51,0,0,0-2.5-2.5Z m 1.89,2.54v.17 a 1.69,1.69,0,0,1-1.69,1.69 H 296 a 1.69,1.69,0,0,1-1.69-1.69V291 a 1.69,1.69,0,0,1,1.69-1.69 h .17 A 1.69,1.69,0,0,1,297.85,291Z"/>
    <path d="M 295.53,306.15 h -.24 a 2.51,2.51,0,0,0-2.5,2.5v.24 a 2.51,2.51,0,0,0,2.5,2.5 h .24 a 2.51,2.51,0,0,0,2.5-2.5v-.24 A 2.51,2.51,0,0,0,295.53,306.15Z m 1.65,2.7 a 1.69,1.69,0,0,1-1.69,1.69 h -.17 a 1.69,1.69,0,0,1-1.69-1.69v-.17 a 1.69,1.69,0,0,1,1.69-1.69 h .17 a 1.69,1.69,0,0,1,1.69,1.69Z"/>
    <path d="M 312.66,317.14 h -.24 a 2.51,2.51,0,0,0-2.5,2.5v.24 a 2.51,2.51,0,0,0,2.5,2.5 h .24 a 2.51,2.51,0,0,0,2.5-2.5v-.24 A 2.51,2.51,0,0,0,312.66,317.14Z m 1.65,2.7 a 1.69,1.69,0,0,1-1.69,1.69 h -.17 a 1.69,1.69,0,0,1-1.69-1.69v-.17 a 1.69,1.69,0,0,1,1.69-1.69 h .17 a 1.69,1.69,0,0,1,1.69,1.69Z"/>
    <path d="M 312.23,299.47 H 312 a 2.51,2.51,0,0,0-2.5,2.5v.24 a 2.51,2.51,0,0,0,2.5,2.5 h .24 a 2.51,2.51,0,0,0,2.5-2.5V302 A 2.51,2.51,0,0,0,312.23,299.47Z m 1.65,2.7 a 1.69,1.69,0,0,1-1.69,1.69 H 312 a 1.69,1.69,0,0,1-1.69-1.69V302 a 1.69,1.69,0,0,1,1.69-1.69 h .17 a 1.69,1.69,0,0,1,1.69,1.69Z"/>
    <path d="M 311.9,280.64 h -.24 a 2.51,2.51,0,0,0-2.5,2.5v.24 a 2.51,2.51,0,0,0,2.5,2.5 h .24 a 2.51,2.51,0,0,0,2.5-2.5v-.24 A 2.51,2.51,0,0,0,311.9,280.64Z m 1.65,2.7 a 1.69,1.69,0,0,1-1.69,1.69 h -.17 a 1.69,1.69,0,0,1-1.69-1.69v-.17 a 1.69,1.69,0,0,1,1.69-1.69 h .17 a 1.69,1.69,0,0,1,1.69,1.69Z"/>
    <path d="M 329.41,294.75 a 2.51,2.51,0,0,0,2.5-2.5V292 a 2.51,2.51,0,0,0-2.5-2.5 h -.24 a 2.51,2.51,0,0,0-2.5,2.5v.24 a 2.51,2.51,0,0,0,2.5,2.5Z m -1.89-2.54V292 a 1.69,1.69,0,0,1,1.69-1.69 h .17 a 1.69,1.69,0,0,1,1.69,1.69v.17 a 1.69,1.69,0,0,1-1.69,1.69 h -.17 A 1.69,1.69,0,0,1,327.52,292.21Z"/>
    <path d="M 330.22,306.49 H 330 a 2.51,2.51,0,0,0-2.5,2.5v.24 a 2.51,2.51,0,0,0,2.5,2.5 h .24 a 2.51,2.51,0,0,0,2.5-2.5V309 A 2.51,2.51,0,0,0,330.22,306.49Z m 1.65,2.7 a 1.69,1.69,0,0,1-1.69,1.69 H 330 a 1.69,1.69,0,0,1-1.69-1.69V309 a 1.69,1.69,0,0,1,1.69-1.69 h .17 a 1.69,1.69,0,0,1,1.69,1.69Z"/>
    <path d="M 329.53,271.84 h -.24 a 2.51,2.51,0,0,0-2.5,2.5v.24 a 2.51,2.51,0,0,0,2.5,2.5 h .24 a 2.51,2.51,0,0,0,2.5-2.5v-.24 A 2.51,2.51,0,0,0,329.53,271.84Z m 1.65,2.7 a 1.69,1.69,0,0,1-1.69,1.69 h -.17 a 1.69,1.69,0,0,1-1.69-1.69v-.17 a 1.69,1.69,0,0,1,1.69-1.69 h .17 a 1.69,1.69,0,0,1,1.69,1.69Z"/>
    <path d="M 311.25,270.38 h .24 a 2.51,2.51,0,0,0,2.5-2.5v-.24 a 2.51,2.51,0,0,0-2.5-2.5 h -.24 a 2.51,2.51,0,0,0-2.5,2.5v.24 A 2.51,2.51,0,0,0,311.25,270.38Z m -1.65-2.7 a 1.69,1.69,0,0,1,1.69-1.69 h .17 a 1.69,1.69,0,0,1,1.69,1.69v.17 a 1.69,1.69,0,0,1-1.69,1.69 h -.17 a 1.69,1.69,0,0,1-1.69-1.69Z"/>
    <path d="M 329.12,260.75 h .24 a 2.51,2.51,0,0,0,2.5-2.5V258 a 2.51,2.51,0,0,0-2.5-2.5 h -.24 a 2.51,2.51,0,0,0-2.5,2.5v.24 A 2.51,2.51,0,0,0,329.12,260.75Z m -1.65-2.7 a 1.69,1.69,0,0,1,1.69-1.69 h .17 A 1.69,1.69,0,0,1,331,258v.17 a 1.69,1.69,0,0,1-1.69,1.69 h -.17 a 1.69,1.69,0,0,1-1.69-1.69Z"/>
    <path d="M 292.29,261.25 h .24 a 2.51,2.51,0,0,0,2.5-2.5v-.24 a 2.51,2.51,0,0,0-2.5-2.5 h -.24 a 2.51,2.51,0,0,0-2.5,2.5v.24 A 2.51,2.51,0,0,0,292.29,261.25Z m -1.65-2.7 a 1.69,1.69,0,0,1,1.69-1.69 h .17 a 1.69,1.69,0,0,1,1.69,1.69v.17 a 1.69,1.69,0,0,1-1.69,1.69 h -.17 a 1.69,1.69,0,0,1-1.69-1.69Z"/>
    <path d="M 272.5,232.18 h .27 a 2.8,2.8,0,0,0,1.66-.55,2.79,2.79,0,0,0-.08.64v.27 a 2.84,2.84,0,0,0,2.83,2.83 h .27 a 2.82,2.82,0,0,0,2.28-1.18,2.78,2.78,0,0,0-.14.82v.27 a 2.84,2.84,0,0,0,2.83,2.83 h .27 a 2.82,2.82,0,0,0,2.23-1.11 c 0,.07,0,.13,0,.19v.27 a 2.84,2.84,0,0,0,2.83,2.83 H 288 a 2.82,2.82,0,0,0,2.44-1.43,2.8,2.8,0,0,0,0,.45v.27 a 2.84,2.84,0,0,0,2.83,2.83 h .27 a 2.83,2.83,0,0,0,2.35-1.26,2.83,2.83,0,0,0,2.82,2.69 H 299 a 2.81,2.81,0,0,0,2.09-.95,2.83,2.83,0,0,0,2.79,2.45 h .27 a 2.81,2.81,0,0,0,.56-.06,2.79,2.79,0,0,0-.14.66 l 0,.27 a 2.84,2.84,0,0,0,2.63,3 l .27,0 a 2.78,2.78,0,0,0,.74-.06,2.8,2.8,0,0,0-.76,1.72 l 0,.27 a 2.84,2.84,0,0,0,2.63,3 l .27,0 a 2.84,2.84,0,0,0,3-2.63 l 0-.27 a 2.82,2.82,0,0,0-1-2.34,2.78,2.78,0,0,0,.68.14 l .27,0 a 2.84,2.84,0,0,0,3-2.63 l 0-.27 a 2.83,2.83,0,0,0-1.07-2.41 h .4 a 2.84,2.84,0,0,0,2.83-2.83v-.27 a 2.79,2.79,0,0,0-.37-1.37,2.8,2.8,0,0,0,1.64.54 H 320 a 2.84,2.84,0,0,0,2.83-2.83v-.27 a 2.84,2.84,0,0,0-2.2-2.75,2.83,2.83,0,0,0,1.13-.67,2.84,2.84,0,0,0,2.78,2.33 h .27 a 2.84,2.84,0,0,0,2.83-2.83v-.27 a 2.79,2.79,0,0,0-.25-1.14,2.8,2.8,0,0,0,1.14.25 h .27 a 2.84,2.84,0,0,0,2.83-2.83v-.27 a 2.84,2.84,0,0,0-2.83-2.83 h -.27 a 2.81,2.81,0,0,0-2.1,1,2.83,2.83,0,0,0-2.81-2.64 h -.27 a 2.84,2.84,0,0,0-2.83,2.83v.27 a 2.79,2.79,0,0,0,.32,1.27,2.8,2.8,0,0,0-1.05-.21 h -.27 a 2.84,2.84,0,0,0-2.83,2.83v.27 a 2.84,2.84,0,0,0,2.2,2.75,2.83,2.83,0,0,0-1.11.65,2.83,2.83,0,0,0-2.81-2.67 h -.27 a 2.84,2.84,0,0,0-2.75,2.2,2.82,2.82,0,0,0-2-.89 h -.27 a 2.83,2.83,0,0,0-2.8,2.51,2.84,2.84,0,0,0-2.76-2.22 h -.27 a 2.83,2.83,0,0,0-2.45,1.45,2.83,2.83,0,0,0-2.82-2.73 h -.27 a 2.83,2.83,0,0,0-2.4,1.35 A 2.84,2.84,0,0,0,293,231 h -.27 a 2.81,2.81,0,0,0-2.15,1 s 0,0,0,0v-.27 a 2.84,2.84,0,0,0-2.83-2.83 h -.27 a 2.82,2.82,0,0,0-2.19,1.07,2.79,2.79,0,0,0,0-.46v-.27 a 2.84,2.84,0,0,0-2.83-2.83 h -.27 a 2.8,2.8,0,0,0-1.84.7,2.78,2.78,0,0,0,.12-.78V226 a 2.84,2.84,0,0,0-2.83-2.83 h -.27 A 2.84,2.84,0,0,0,274.6,226v.27 a 2.78,2.78,0,0,0,.11.74,2.81,2.81,0,0,0-1.94-.78 h -.27 a 2.84,2.84,0,0,0-2.83,2.83v.27 A 2.84,2.84,0,0,0,272.5,232.18Z m 6.83.32 a 1.92,1.92,0,0,1-1.91,1.91 h -.19 a 1.92,1.92,0,0,1-1.91-1.91v-.19 a 1.92,1.92,0,0,1,1.91-1.91 h .19 a 1.92,1.92,0,0,1,1.91,1.91Z m -1.87-3.06 h -.27 a 2.8,2.8,0,0,0-1.66.55,2.79,2.79,0,0,0,.08-.64v-.27 a 2.78,2.78,0,0,0-.11-.74,2.81,2.81,0,0,0,1.94.78 h .27 a 2.8,2.8,0,0,0,1.84-.7,2.78,2.78,0,0,0-.12.78v.27 a 2.79,2.79,0,0,0,.18,1 A 2.81,2.81,0,0,0,277.46,229.44Z m 2.69,3.93 a 2.78,2.78,0,0,0,.14-.82v-.27 a 2.78,2.78,0,0,0-.18-1,2.82,2.82,0,0,0,1.7,1 A 2.84,2.84,0,0,0,280.15,233.36Z m 4.42,1.89 a 1.92,1.92,0,0,1-1.91,1.91 h -.19 a 1.92,1.92,0,0,1-1.91-1.91v-.19 a 1.92,1.92,0,0,1,1.91-1.91 h .19 a 1.92,1.92,0,0,1,1.91,1.91Z m 5.31,2.19 a 1.92,1.92,0,0,1-1.91,1.91 h -.19 a 1.92,1.92,0,0,1-1.91-1.91v-.19 a 1.92,1.92,0,0,1,1.91-1.91 H 288 a 1.92,1.92,0,0,1,1.91,1.91Z m 5.5,2.13 a 1.92,1.92,0,0,1-1.91,1.91 h -.19 a 1.92,1.92,0,0,1-1.91-1.91v-.19 a 1.92,1.92,0,0,1,1.91-1.91 h .19 a 1.92,1.92,0,0,1,1.91,1.91Z m 5.44,1.44 a 1.92,1.92,0,0,1-1.91,1.91 h -.19 a 1.92,1.92,0,0,1-1.91-1.91v-.19 a 1.92,1.92,0,0,1,1.91-1.91 h .19 a 1.92,1.92,0,0,1,1.91,1.91Z m 3.25,3.41 h -.19 A 1.92,1.92,0,0,1,302,242.5v-.19 a 1.92,1.92,0,0,1,1.91-1.91 h .19 a 1.92,1.92,0,0,1,1.91,1.91v.19 A 1.92,1.92,0,0,1,304.08,244.41Z m 3.19,3.9 a 1.92,1.92,0,0,1-1.78-2v-.19 a 1.92,1.92,0,0,1,2-1.78 h .19 a 1.92,1.92,0,0,1,1.77,2v.19 a 1.92,1.92,0,0,1-2,1.77Z m 5.39-11.14 a 2.81,2.81,0,0,0,2,.88,2.83,2.83,0,0,0-2,2.22,2.84,2.84,0,0,0-1.3-1.29 A 2.83,2.83,0,0,0,312.65,237.17Z m 4.64,1.31 a 2.8,2.8,0,0,0-1.56-.53,2.83,2.83,0,0,0,1.21-.68 A 2.79,2.79,0,0,0,317.29,238.48Z m -6.87,7.25 a 2.81,2.81,0,0,0-.45-1.1 h .09 a 2.78,2.78,0,0,0,.82-.14 A 2.79,2.79,0,0,0,310.42,245.73Z m -.59-6.08 H 310 a 1.92,1.92,0,0,1,1.91,1.91v.19 a 1.92,1.92,0,0,1-1.91,1.91 h -.19 a 1.92,1.92,0,0,1-1.91-1.91v-.19 A 1.92,1.92,0,0,1,309.84,239.65Z m 2.51,11.87 a 1.92,1.92,0,0,1-2,1.78 h -.19 a 1.92,1.92,0,0,1-1.78-2v-.19 a 1.92,1.92,0,0,1,2-1.78 h .19 a 1.92,1.92,0,0,1,1.78,2Z m -1.65-3.18-.27,0 a 2.78,2.78,0,0,0-.74.06,2.8,2.8,0,0,0,.74-1.58,2.83,2.83,0,0,0,1,1.68 A 2.78,2.78,0,0,0,310.7,248.34Z m 4.65-1.9 a 1.92,1.92,0,0,1-2,1.78 h -.19 a 1.92,1.92,0,0,1-1.77-2V246 a 1.92,1.92,0,0,1,2-1.78 h .19 a 1.92,1.92,0,0,1,1.78,2Z m -1.93-3.2 a 2.79,2.79,0,0,0-1,.12,2.82,2.82,0,0,0,.43-1.07,2.84,2.84,0,0,0,.78,1Z m 4.1-2.24 a 1.92,1.92,0,0,1-1.91,1.91 h -.19 a 1.92,1.92,0,0,1-1.91-1.91v-.19 a 1.92,1.92,0,0,1,1.91-1.91 h .19 a 1.92,1.92,0,0,1,1.91,1.91Z m 4.81-11.15 a 2.8,2.8,0,0,0,1.05.21 h 0 a 2.85,2.85,0,0,0-.83.57 A 2.78,2.78,0,0,0,322.32,229.85Z m 4.38,3 a 1.92,1.92,0,0,1-1.91,1.91 h -.19 a 1.92,1.92,0,0,1-1.91-1.91v-.19 a 1.92,1.92,0,0,1,1.91-1.91 h .19 a 1.92,1.92,0,0,1,1.91,1.91Z m 0-4.19 a 1.92,1.92,0,0,1,1.91-1.91 h .19 a 1.92,1.92,0,0,1,1.91,1.91v.19 a 1.92,1.92,0,0,1-1.91,1.91 h -.19 a 1.92,1.92,0,0,1-1.91-1.91Z m -.94.42 a 2.8,2.8,0,0,0,.23,1,2.8,2.8,0,0,0-1.14-.25 h 0 A 2.84,2.84,0,0,0,325.75,229.1Z m -4.24-2.1 a 1.92,1.92,0,0,1,1.91-1.91 h .19 a 1.92,1.92,0,0,1,1.91,1.91v.19 a 1.92,1.92,0,0,1-1.91,1.91 h -.19 a 1.92,1.92,0,0,1-1.91-1.91Z m -3.84,4.35v-.19 a 1.92,1.92,0,0,1,1.91-1.91 h .19 a 1.92,1.92,0,0,1,1.91,1.91v.19 a 1.92,1.92,0,0,1-1.91,1.91 h -.19 A 1.92,1.92,0,0,1,317.67,231.35Z m .22,5.52 a 1.92,1.92,0,0,1,1.91-1.91 H 320 a 1.92,1.92,0,0,1,1.91,1.91v.19 A 1.92,1.92,0,0,1,320,239 h -.19 a 1.92,1.92,0,0,1-1.91-1.91Z m -5-1.87 a 1.92,1.92,0,0,1,1.91-1.91 h .19 a 1.92,1.92,0,0,1,1.91,1.91v.19 a 1.92,1.92,0,0,1-1.91,1.91 h -.19 a 1.92,1.92,0,0,1-1.91-1.91Z m -5.08,1.31 a 1.92,1.92,0,0,1,1.91-1.91 h .19 a 1.92,1.92,0,0,1,1.91,1.91v.19 a 1.92,1.92,0,0,1-1.91,1.91 h -.19 a 1.92,1.92,0,0,1-1.91-1.91Z m -.89.84 a 2.84,2.84,0,0,0,1.53,1.92,2.82,2.82,0,0,0-1.43,2.44v.27 a 2.81,2.81,0,0,0,.47,1.56,2.78,2.78,0,0,0-.64.06,2.78,2.78,0,0,0,.15-.87v-.27 a 2.83,2.83,0,0,0-2.12-2.73 A 2.83,2.83,0,0,0,306.86,237.15Z m -4.94-.56 a 1.92,1.92,0,0,1,1.91-1.91 H 304 a 1.92,1.92,0,0,1,1.91,1.91v.19 A 1.92,1.92,0,0,1,304,238.7 h -.19 a 1.92,1.92,0,0,1-1.91-1.91Z m -1,.33 a 2.83,2.83,0,0,0,2.11,2.63,2.82,2.82,0,0,0-1.33.83,2.83,2.83,0,0,0-2-2.31 A 2.84,2.84,0,0,0,301,236.93Z m -4.59-1.61 a 1.92,1.92,0,0,1,1.91-1.91 h .19 a 1.92,1.92,0,0,1,1.91,1.91v.19 a 1.92,1.92,0,0,1-1.91,1.91 h -.19 a 1.92,1.92,0,0,1-1.91-1.91Z m -1,.27 a 2.83,2.83,0,0,0,2,2.66,2.85,2.85,0,0,0-1.1,1,2.83,2.83,0,0,0-2.05-2.57 A 2.84,2.84,0,0,0,295.42,235.58Z m -4.54-1.71 a 1.92,1.92,0,0,1,1.91-1.91 H 293 a 1.92,1.92,0,0,1,1.91,1.91v.19 A 1.92,1.92,0,0,1,293,236 h -.19 a 1.92,1.92,0,0,1-1.91-1.91Z m -1-.08 s 0,0,0,0v.27 a 2.83,2.83,0,0,0,2.06,2.71,2.84,2.84,0,0,0-1.18,1.11,2.78,2.78,0,0,0,0-.45v-.27 a 2.83,2.83,0,0,0-1.91-2.66 A 2.84,2.84,0,0,0,289.92,233.79Z m -4.29-2 a 1.92,1.92,0,0,1,1.91-1.91 h .19 a 1.92,1.92,0,0,1,1.91,1.91v.19 a 1.92,1.92,0,0,1-1.91,1.91 h -.19 a 1.92,1.92,0,0,1-1.91-1.91Z m -.92-.51 a 2.79,2.79,0,0,0,0,.46V232 a 2.83,2.83,0,0,0,1.91,2.66,2.84,2.84,0,0,0-1.05.85 c 0-.07,0-.13,0-.19V235 a 2.83,2.83,0,0,0-2.39-2.78 A 2.83,2.83,0,0,0,284.72,231.24Z m -2.42-3.9 h .19 a 1.92,1.92,0,0,1,1.91,1.91v.19 a 1.92,1.92,0,0,1-1.91,1.91 h -.19 a 1.92,1.92,0,0,1-1.91-1.91v-.19 A 1.92,1.92,0,0,1,282.29,227.34Z m -6.73-1.28 a 1.92,1.92,0,0,1,1.91-1.91 h .19 a 1.92,1.92,0,0,1,1.91,1.91v.19 a 1.92,1.92,0,0,1-1.91,1.91 h -.19 a 1.92,1.92,0,0,1-1.91-1.91Z m -4.93,3.06 a 1.92,1.92,0,0,1,1.91-1.91 h .19 a 1.92,1.92,0,0,1,1.91,1.91v.19 a 1.92,1.92,0,0,1-1.91,1.91 h -.19 a 1.92,1.92,0,0,1-1.91-1.91Z"/>
  </g>
<script type="text/ecmascript" xlink:href="param.min.js"/> 
</svg>
