<?xml version="1.0"?>
<svg xmlns="http://www.w3.org/2000/svg" xmlns:xlink="http://www.w3.org/1999/xlink" viewBox="0 0 150 150">
  <title>BT002_OA001</title>
  <g id="skin-tone">
    <path d="M 61.52,94.32 c 7.46,0,13.87-7,16.37-9.71,1.23-1.35,2.51-2.94,3.51-4.21 a 11.77,11.77,0,0,1-.69-3.71 c 0-2,.08-4.92-2.75-6.5 s -6.58-.75-7.83,2-.42,4.08-2.42,7.75 A 23.79,23.79,0,0,1,57.32,90 C 57.31,92.31,58.23,94.34,61.52,94.32Z" fill="param(skin_tone)"/>
  </g>
  <g id="main-colour">
    <path d="M 81.86,80.11 A 63.05,63.05,0,0,1,71.19,90.75 c -2.74,2.07-6.09,4.07-9.67,3.65-2.2-.26-5.54-2.19-3.66-4.79-3.35,2.12-6.74,2.27-10.53,2.34-3,.06-6.15,1.2-5.12,4.74,2.39,8.19,14.29,9.53,20.42,5.62,3.63-2.31,6-4.23,10.46-4.48,3.75-.21,7.88.91,11.26-1.25 C 92.32,91.5,82.23,85.7,81.86,80.11Z" fill="param(main_colour)"/>
  </g>
  <g id="accent-colour-1">
    <path d="M 87,93.78 s -3.08,1.92-5.92,1.75-9.83-.92-13.42.92-8.33,5.83-11.92,6-9.25-1.5-12.17-4.08 A 11,11,0,0,0,50,103.78 a 12.23,12.23,0,0,0,10.08-.42 c 3.58-1.75,9.13-5.71,13-5.52.1,1.27,1,2.19,4.35,2.27 S 84,99.69,84.2,97 A 9.41,9.41,0,0,0,87,93.78Z" fill="param(accent_colour_1)"/>
  </g>
  <g id="outline">
    <path d="M 87.27,88.19 a 31.51,31.51,0,0,0-2.35-3.83,43.2,43.2,0,0,1-2.3-4.3.81.81,0,0,0-.11-.16 A 20.4,20.4,0,0,1,81.75,75,6.76,6.76,0,0,0,75,68.25 h 0 A 6.76,6.76,0,0,0,68.25,75 s 0,.08,0,.12 c 0,.5-.05,2.61-2.32,6.12 a 24.71,24.71,0,0,1-7.84,7.51,11.56,11.56,0,0,1-1.76.87 c -1.25.39-2.31,1-3.6,1.29-3.52.83-11.53-1.12-11.54,4.61,0,6,8.91,9.86,13.79,9.86,6.68,0,10.19-5.71,16.42-6.63.31,0,.62-.08.93-.1.84,2.47,3.19,2.17,5.89,2.17,3.91,0,5.9-.4,7.16-4 a 7.8,7.8,0,0,0,1-.95 C 88.43,93.61,88.49,90.85,87.27,88.19Z m -20-6 a 19,19,0,0,0,2-3.6 h 0 a 9.12,9.12,0,0,0,.92-3.41 c 0-.15,0-.23,0-.23 A 4.75,4.75,0,0,1,75,70.25 h 0 A 4.75,4.75,0,0,1,79.75,75 a 16,16,0,0,0,.5,4.22v0 c .1.4.21.79.33,1.17 a 65.89,65.89,0,0,0-4.51,5 c -3.44,3.46-7.18,7.12-12.31,8-1.5.25-3.76.33-4.66-.54 a 3.11,3.11,0,0,1-.93-2.35 A 26.09,26.09,0,0,0,67.31,82.23Z m -24,11.56 c 1.35-1.61,4.21-.95,6-1 a 17.77,17.77,0,0,0,7.26-1.67 C 56.64,98,67.21,94.33,70,92.54 c 4.41-2.85,8.19-6.88,11.56-10.86,1.61,3.63,6.76,7.87,4.49,12.08-.21.07-.49.32-.94.54-2.44,1.19-5.56.81-7.81.63-5.38-.45-8.8-.15-13.44,3-4,2.72-6.87,5.13-12.62,3.69 A 18.47,18.47,0,0,1,45,98.8 c -.55-.4-1.41-1.4-2-1.93 A 2.81,2.81,0,0,1,43.34,93.79Z m 17.8,8.55 a 13.5,13.5,0,0,1-12.52,0,17,17,0,0,1-3.37-2.47,19.14,19.14,0,0,0,10,3 c 6.51,0,10.09-6.56,16.9-7.1,4.63-.37,8.36.91,12.58-.34-2.71,2.36-6.87,1.63-10.26,1.63 C 68.6,97.06,65.94,99.77,61.14,102.34Z m 18.1-3.06 c -1.43.07-3.9.32-5.23-.28 a .77.77,0,0,1-.4-.42 c 3.15-.05,6.54.46,9.44-.51 C 82,99.08,81.16,99.19,79.23,99.29Z"/>
  </g>
<script type="text/ecmascript" xlink:href="param.min.js"/> 
</svg>
