<?xml version="1.0"?>
<svg xmlns="http://www.w3.org/2000/svg" xmlns:xlink="http://www.w3.org/1999/xlink" viewBox="0 0 600 600">
  <title>one-piece-swimsuit-slender</title>
  <g id="skin-tone">
    <g id="skin-tone-2" data-name="skin-tone">
      <path d="M 277,333.52 s -3.87,6.63-6.12,10.13 A 57.86,57.86,0,0,0,262.14,370 a 24.81,24.81,0,0,0,2.68,13,24,24,0,0,0,39.09,6.26,24,24,0,0,0,29.29-23.41 h 0 c .56-3.27-.43-10.1-2.18-13.23 a 140.75,140.75,0,0,1-6.12-14 l .4-.24 A 40.89,40.89,0,0,1,323,324.23 c -.17-8.42,1.82-20.63,3.91-27.88.71-2.48,1.71-5.43,2.73-8.72 a 30.14,30.14,0,0,0,9.34-2.51 c 4.67-2.33,9.92-7.58,10.17-14.25.21-5.55-.92-10-3.85-14-1.6-2.61-4.65-4.74-9-8.26 L 335,247.53 c -.76-.7-1.56-1.48-2.29-2.23v.1 c -.53-.53-1.07-1.1-1.48-1.53 a 10.8,10.8,0,0,0-5.62-15.71v-.27 a 11.12,11.12,0,0,0-9.24.73,3.12,3.12,0,0,0-1.56-.2,12,12,0,0,1-8.28-8.84 A 73.66,73.66,0,0,1,305,207.64 c -1.86.14-3.74.22-5.64.22q-2.61,0-5.17-.18 c -.13,2.22-.56,8.42-1.37,10.5-1,2.56-3.33,9-10.86,10.75-7.45-6.36-19.55-1.14-20,8 s 6,12.33,9.33,13.42 c -1.25,5.92,1.33,21,3.17,27.5 s 6.92,19.67,9.08,28.08 c 1.88,7.29-1.37,16.76-6.93,27.23Z" fill="param(skin_tone)"/>
    </g>
  </g>
  <g id="main-colour">
    <path d="M 271.15,258.38 s 13-2.5,14.75-12.75 a 28.82,28.82,0,0,0-2.12-17.37 l 4-2.25 a 56.34,56.34,0,0,0,3.25,9.13 c 2.5,5.75,5.13,10.63,14,14.88 s 15.13.75,15.88-2,1.25-12.12-5.62-20 a 13.09,13.09,0,0,1,3.38-1.12 s 4.5,6.88,6.25,9.75 a 52.55,52.55,0,0,0,12,12.63 c 6,4.63,11,6.75,12.75,15.75 s -2.37,20.75-19.62,22.75 c -2.37,8.88-5.87,21.25-6.5,30 s -1.75,15.13,4.38,27.63 c -5.25,4.38-7.25,8.38-8.12,13.88 s -1.62,11-2.5,14.63-1.5,6.88-7.62,7.63 c 4.25-9.12.38-19.62-3-23.87 s -18.87-16.12-37.37-10.87 c 6.38-11.75,13.88-24.87,14.5-32.25 s -2.25-16.87-5.37-24.75 A 100.94,100.94,0,0,1,271.15,258.38Z" fill="param(main_colour)"/>
  </g>
  <g id="outline">
    <path d="M 289.35,285.05 A 29.19,29.19,0,0,0,311,289.76 C 304.17,293.63,294,291.6,289.35,285.05Z"/>
    <path d="M 282.65,227.55 s 5.79,12,1.29,21.25 c -3.54,7.27-13.35,8.9-13.85,8.65 l .1,1.85 a 20,20,0,0,0,12.17-5.58 c 6.42-5.92,5.83-19.58,1.83-26.67 A 8.17,8.17,0,0,1,282.65,227.55Z"/>
    <path d="M 286.61,225.63 s 2.59,7.3,4.38,11.38 c 3.78,8.63,12.93,16,23.17,15.54 s 10.61-11.29,1.52-25.85 c -.87.46-1.4.77-1.4.77 a 35.87,35.87,0,0,1,5.63,11.92 c 1.81,7.88,0,10.08-3.75,11.5-4.36,1.65-15.46-1.83-20.58-8.83-4.19-5.73-4.79-11.5-7.63-17.5 C 287.27,225.13,286.61,225.63,286.61,225.63Z"/>
    <path d="M 313.52,251.86 a 7.92,7.92,0,0,0,.83-.13,23.46,23.46,0,0,0-5.6-4.1 A 21.05,21.05,0,0,1,313.52,251.86Z"/>
    <path d="M 318.94,225.73 s 2.06,3.21,6.18,10 a 41,41,0,0,0,7.84,9.38 l .88,2.16 a 50.19,50.19,0,0,1-8.33-8.66 c -3.83-5.59-4.06-7.27-8.38-12.46 A 8.33,8.33,0,0,1,318.94,225.73Z"/>
    <path d="M 314.27,227.46 a 9.57,9.57,0,0,1,4.67-1.73,13.7,13.7,0,0,1,1,1.6,18.53,18.53,0,0,0-2.58.79 c -1,.44-1.64.88-1.89.94 A 6.08,6.08,0,0,0,314.27,227.46Z"/>
    <path d="M 284.19,227 a 16.5,16.5,0,0,0,2.42-1.42 c .94.44.81,1.88.81,1.88 a 14.55,14.55,0,0,1-2.56,1.44 C 283.92,229.25,284.19,227,284.19,227Z"/>
    <path d="M 326.45,306.07 c 1.79-7.77,3.74-15.32,4.85-19.51 l -.1.14-2,.33 c -.5,1.67-1.14,3.84-1.72,5.92-1.19,4.25-4.37,16.25-5.12,24.13 s -.36,15.75,1.14,20.13 a 88,88,0,0,0,3.31,8.19 s -5.78,3.94-7.47,13-2.4,17.38-4.09,19.63 a 8.24,8.24,0,0,1-4.5,2.81 s 2.63-5,1-13.75-8.87-15-14-17.69-16.56-6.44-26.62-4.06 c 3.81-6.62,7-11.87,9.69-17.69 s 5.5-13.31,4-20.81-5.81-18.81-7.37-23.37-5.44-17.44-5-25.19 a 10.71,10.71,0,0,1-2.3-.81,105.52,105.52,0,0,0,1.8,14.63,188.79,188.79,0,0,0,5.69,18.75 c 1.88,5.44,5.25,13.94,5.31,21.69 s -7.12,19.88-8.94,23.25-5.69,9.75-6.94,12.5 c 8.75-3.87,28.44-.81,36,6.81 s 9.63,17.44,5.63,27.56 c 3.69-.5,6.56-2,8.44-5.37 s 2.5-19.81,6.06-25.19,5.06-5.81,5.94-6.12 a 43.83,43.83,0,0,1-4.56-13.56 A 82,82,0,0,1,326.45,306.07Z"/>
    <path d="M 342,252.15 c -6.17-3.83-14.1-11.9-14.1-11.9,1.72,3.27,7.25,8.75,14.93,14.38,8.44,6.18,6.6,19.45,2.36,24.8 s -10.07,6.68-15.09,7.45 c -.09.39-.23.91-.36,1.41,8.75,0,16.78-5,19.76-12.84 S 350.6,257.49,342,252.15Z"/>
    <path d="M 266,249 a 13.19,13.19,0,0,0,4,2 c 0,2.48.08,5,.23,7.43.76-.15,1.53-.3,2.15-.41-.09-2.85,0-5.16,0-6.46v-2.06 a 11.19,11.19,0,1,1,6.1-21.31 L 280,229 H 280 l 1,.55,3.34,1.84 c .23.12.49.24.74.35 l -.15-1.72 c -.36-.2-.73-.4-1.08-.62 a 10.65,10.65,0,0,0,1-.42v-.08 H 285 c 3.38-1.67,9.71-6.78,10-21.18 l -1.59-.11 c 0,1.76-.57,18-11.81,20.13 A 13.19,13.19,0,1,0,266,249Z"/>
    <path d="M 296.87,232.9 a 28.46,28.46,0,0,1-7-.9 l .4,1.11 A 21.12,21.12,0,0,0,296.87,232.9Z"/>
    <path d="M 329,345.63 l -.3-.62 a 9.19,9.19,0,0,0-1.5,1.22 c 2.83,5.89,5.74,11.58,6,19.65 C 333.71,363.88,334.83,357.63,329,345.63Z"/>
    <path d="M 316.63,226.23 a 9.91,9.91,0,0,0-2.38,1.26 c -7.61-3.24-7.75-12.23-8.24-19.94 l -1.48.12 a 41.37,41.37,0,0,0,1.15,11.62,12.61,12.61,0,0,0,7,9.21,30.41,30.41,0,0,1-6.13,3.13,26.5,26.5,0,0,0,10.12-3.19 l .54-.24 a 11.26,11.26,0,0,1,8.35-.33 A 9.08,9.08,0,0,0,316.63,226.23Z"/>
    <path d="M 309.07,381 a 24,24,0,0,1-46.56-8.22v-2.33 a 51.19,51.19,0,0,1,3-13 A 71.57,71.57,0,0,1,269,349.3 c .49-1,1.16-2.16,1.95-3.53 l -2.66.05 c -.87,1.59-1.67,3.13-2.35,4.59 a 59.89,59.89,0,0,0-5.31,20.07v.39 c -.08,1.22-.08,1.91-.08,1.91 a 26,26,0,0,0,50.08,9.79 c 2.14-.82,5.25-2.75,6.42-5.2 a 13,13,0,0,1-6.62,3.38 C 310.08,380.82,309.63,380.9,309.07,381Z"/>
  </g>
<script type="text/ecmascript" xlink:href="param.min.js"/> 
</svg>
