<?xml version="1.0"?>
<svg xmlns="http://www.w3.org/2000/svg" xmlns:xlink="http://www.w3.org/1999/xlink" viewBox="0 0 600 600">
  <title>basic-bikini-top-voluptuous</title>
  <g id="main-colour">
    <path d="M 246.48,276.38 a 194.41,194.41,0,0,0,24.13,5 c 2.63-16.37,12.5-30.12,12.5-30.12 s -3.37-16.87-7.12-24 c .88-1.87,2.13-4.25,2.13-4.25 a 124.16,124.16,0,0,1,9.5,27.25 c 6.63,4.75,16,18,17.88,30 a 15.78,15.78,0,0,1,8.75-1.12 A 87.48,87.48,0,0,1,327.73,252 c -4.37-12.75-6.12-23.87-5.5-30 a 42.44,42.44,0,0,0,2,3.75,67,67,0,0,0,7.29,25,60.8,60.8,0,0,1,6.75,8.83 c 2,3,5.17,9.75,4.5,20.58 a 8.34,8.34,0,0,0,2.25-.5 l -.92,3.83 s -3.92,3-7.92,3.5 a 30.29,30.29,0,0,1-14.25-1.67 c -5.83-2-10-2.33-15.83-.92 s -7.58,3.67-18.25,4.33-31.67-5.25-40.08-7.58 A 16.63,16.63,0,0,1,246.48,276.38Z" fill="param(main_colour)"/>
  </g>
  <g id="outline">
    <path d="M 345.83,278.85 a 12.48,12.48,0,0,1-2.34.54 c 0-1,.07-2.15.13-3.63-.37-13-5.83-18.87-11.25-25.21-4-7-7.58-18.42-7.65-24.5-1.76-3.5-3-6.58-3-6.58 a 78.9,78.9,0,0,0,4.58,32.17,88.19,88.19,0,0,0-12.67,26.75,26.3,26.3,0,0,0-7.62.75 c -2.62-13.62-10.77-24.75-17.75-29.37 C 283.61,228.88,278,221.63,278,221.63 l -2.87,5.75 s 5.24,12.15,7.11,23.88 C 273,262.75,270,280.71,270,280.71 S 251.37,278,245.37,275 a 21.08,21.08,0,0,0,1.92,6.67 S 279,291.89,293,288.88 c 13.38-2.87,17.63-6.25,25.76-3.85,6.37,1.88,11.68,3.57,16.09,2.73 a 22,22,0,0,0,9.71-4 S 344.7,282.75,345.83,278.85Z m -2.28,4.38 c -2.12,2.25-9.1,3.36-9.1,3.36-3.9.61-10.49-1.22-14.71-2.71 a 25.08,25.08,0,0,0-14.12-.12 c -3.42,1.06-12.4,5.46-23.74,4 s -33.67-6.83-33.67-6.83 a 12.12,12.12,0,0,1-.92-3.75 C 253,279,268.12,282,271.37,282 c 2.25-8.33,4.94-21.08,12.36-30.42-1.08-6.33-2.25-14.37-7-24,0,0,.94-1.81,1.5-3.25,2.75,4.63,7.42,20.44,8.61,26.13,5.44,3.94,13.75,12.5,18.13,30.38,4.25-1.94,9.75-1.25,9.75-1.25 s 4.42-16.21,13-27.62 a 93.53,93.53,0,0,1-5.46-28.71,14.14,14.14,0,0,0,1.51,2.83 s -.43,9.25,7.15,24.83 c 9.17,9.83,11.67,19.17,11.42,27-.06.81-.07,2.24-.12,2.88 l 2-.5 S 344,281.38,343.54,283.22Z"/>
    <path d="M 289.36,278.46 a 26.29,26.29,0,0,1-.22,6.06,78.69,78.69,0,0,1-14.53-.77 s 16.63,5.13,28.38-2 a 43.22,43.22,0,0,1-12.7,2.71 A 16.64,16.64,0,0,0,289.36,278.46Z"/>
    <path d="M 330.57,283.93 a 21.89,21.89,0,0,0,.28-5.71,23.15,23.15,0,0,1-1.49,5.59 A 54.93,54.93,0,0,1,317,280.71 c 8.75,5,20.25,5.25,24,1.92 C 338,284,334.2,284.24,330.57,283.93Z"/>
  </g>
<script type="text/ecmascript" xlink:href="param.min.js"/> 
</svg>
