<?xml version="1.0"?>
<svg xmlns="http://www.w3.org/2000/svg" xmlns:xlink="http://www.w3.org/1999/xlink" viewBox="0 0 600 600">
  <title>nurse-hourglass</title>
  <g id="main-colour">
    <path d="M 346.86,400.54 c 0-15.33-.83-29-7.5-42 s -8.17-15-11.5-19 c -1.72-2.06-4.63-6.38-7-10.08 a 16.16,16.16,0,0,1-.76-7 c .42-5.25,4.92-13.67,8.5-19.67,2.41-4,3.66-9.31,4.56-12.51 l .37-2.35 a 23.55,23.55,0,0,0,6.83-3.77,21.78,21.78,0,0,0,7.5-20.83 c -1.67-7.92-8.75-13.08-10.75-14.83-.84-.73-1.79-1.58-2.62-2.33.12-.16.23-.33.34-.5 l 0,0 c .15-.24.29-.48.42-.73 l .1-.2 c .12-.23.24-.47.34-.71 l .07-.18 a 11.91,11.91,0,0,0,.41-1.17 c .06-.2.12-.41.17-.61 s .07-.31.1-.46.09-.49.12-.74,0-.26,0-.39 c 0-.38.06-.77.06-1.17 h 0 a 12,12,0,0,0-12-12,11.68,11.68,0,0,0-1.78.15 c -2.78-8-14.23-9-14.23-9 a 11.69,11.69,0,0,1,3.81,5 l 2.39,6.32 c .63,5.25.58,13.08-1.42,19.25-1.25-1.87-13.4-8.75-17.15-11.62 s -7-5.12-8.69-8.75 c -1.1-2.36-1.06-4-.6-5.3.54-.66,1.45-1.82,2.54-3.45 a 14.45,14.45,0,0,0-11.35,8.19 c -.94.35-1.91.69-2.92,1-5.33-2.17-11.92-4-16.83-1.17 s -7.33,8-6.42,14 S 257.88,251,263,252.18 c -.08,8.08,1.5,22.33,4.83,29.25 s 9.33,14.42,11.92,17.92,4.42,9.42,2.92,18.08-11.92,18.08-16.25,22.17 S 258,348.18,254.88,356 c 0,0-4.69,7.37-4.52,19.7 s 3.17,22,3.83,34.33 A 86.4,86.4,0,0,1,252,433.38 a 94.69,94.69,0,0,0,32.67,11 c 19.33,2.83,43.5,5.67,67.33-15.5 C 348.69,422.71,346.86,415.88,346.86,400.54Z" fill="param(main_colour)"/>
  </g>
  <g id="fixed-colours">
    <path d="M 336.21,260.82 l .67,2.13,3.08-.71,1.13,5.25 a 4,4,0,0,0-1,3.35,2.93,2.93,0,0,0,3.76,2,3.07,3.07,0,0,0,2.42-3.87 c -.37-1.24-2.34-2-2.75-2.17-.36-1.84-1.33-5.67-1.33-5.67 l 1.17-1.46-1-2Z" fill="#d6d6d6"/>
    <path d="M 333,261.18 a 11.63,11.63,0,0,0,3.2-.43 c .32,1,.67,2,.67,2 l 3.08-.54.25,1.25 s -1.25.79-6.5,1 C 333.38,262.92,333,261.18,333,261.18Z" fill="#fff"/>
    <polyline points="343.82 255.82 345.95 259.5 342.71 262.59" fill="#fff"/>
    <path d="M 286,264.37 s 10.16,2.46,20.05.69 a 29.43,29.43,0,0,1-.14,3.82 s -10.86,1.91-19.65-.84 A 23.69,23.69,0,0,1,286,264.37Z" fill="#fff"/>
    <polygon points="290.89 275.19 294.15 275.16 294.27 272.53 297.06 272.57 297.34 275.05 300.13 275.09 300.01 277.55 297.06 277.67 296.86 280.45 293.92 280.49 294.12 277.79 291.01 277.74 290.89 275.19" fill="#f0356a"/>
    <path d="M 292.8,240.38 s -7.33,1.83-12-.33-4-7.54-2.48-11.27 c .56,2.27,1.23,7.19,4.48,8.6 s 9.83.17,9.83.17Z" fill="#fff"/>
    <path d="M 313.64,249.21 s -14.17-3.75-20.33-4 a 15.1,15.1,0,0,1-.33-2.67 s 1.67-.67,17.25,3.75 A 11.64,11.64,0,0,1,313.64,249.21Z" fill="#fff"/>
    <polygon points="314.57 249.63 313.82 248.75 314.57 245.63 320.14 236.82 321.51 238.75 314.57 249.63" fill="#fff"/>
    <path d="M 319.64,222.75 s 2.75,6.25-1.44,11.88 c .56.56,1.56,1.44,1.56,1.44 a 9,9,0,0,0,3.13-6.06,9.17,9.17,0,0,0-2-6.31Z" fill="#fff"/>
  </g>
  <g id="outline">
    <path d="M 277.8,287 s 8.5,15,27.17,6.67 C 297.64,295.54,286.47,295.46,277.8,287Z"/>
    <path d="M 347.8,399.38 c 0-8.92,0-20.75-4.08-32.75 a 86.38,86.38,0,0,0-16.25-28.83 c -6.67-7.92-7.58-13-6-18.42 s 5.79-12.94,8.85-18.25 a 46.53,46.53,0,0,0,4.86-12.87,14.4,14.4,0,0,0,1.79-.63 c 4.25-1.83,10.25-7.33,11.75-14.42 s .08-12.75-3.08-17.42-8.42-8-10.17-9.33 a 91.21,91.21,0,0,1-9.58-9.92,49.17,49.17,0,0,0,9,11.25 c 1.81,1.69,5.36,4.36,7.93,7.63-3.59,4.79-11,5-11,5 a 76.36,76.36,0,0,1,2.28,14.86 c 1.67.86,6.65,2.94,9.06,3.94-4.88,7.29-14.13,9.43-14.13,9.43 a 12.29,12.29,0,0,0,3.56.12,65.24,65.24,0,0,1-2.23,7.76 c -1.56,4.31-4.62,8.81-7.06,13.94 s -4.31,10.06-4.19,14.63,2.5,8.06,6.06,12.69,7.25,6.88,14.75,23.5,6.27,33.29,6.19,39.88.42,21.67,4.83,27.5 c -6.43,5.69-19.32,15.2-36.86,16.61.3-3.76,1.83-23.56,1.53-38.28-.33-16.33-1.5-33.75-3-47.92 s -2.25-23.29-2-31.17,2.88-21.46,6.5-32.58,6.37-21.31,5.67-30.5 a 22,22,0,0,0-7.38-15.1 l 7-11.32-1.88-2.2 a 9.84,9.84,0,0,0,3.13-8.47,7,7,0,0,0-.18-.79,8.17,8.17,0,0,1,5.68.21,8.8,8.8,0,0,0-6.3-1.78 c -2.33-4.48-9.06-7.72-15.62-7.72,0,0,11.24,7.86,6,30.16-.6-.48-1.23-.95-1.89-1.41-7.25-5.08-24.67-12.83-23.92-22.83 A 28.46,28.46,0,0,0,290.8,219 s -5.33-.75-11,5.17 a 12.9,12.9,0,0,0-2,2.68,12.41,12.41,0,0,1-3.58.76 c -.81-.19-6.69-2.81-10.69-2.44 a 14.87,14.87,0,0,0-11.19,7.06 c -2.81,4.5-2.25,11.06.81,15.19 a 13.86,13.86,0,0,0,8.94,5.69 c -.69,4.13.88,14.88,2.38,21.38 s 4.19,11.75,10.25,20 c 1.64,2.24,3.25,4.21,4.78,6.06 a 36.53,36.53,0,0,1,2.41,6.69 c .88,3.94.38,13.88-5.75,20.88 s -14.81,13.81-19.25,21.19 a 55.16,55.16,0,0,0-7.25,26.63 c 0,8.88,3.13,24.69,3.44,32.06 s .58,18.85-2.17,25.85 c 15.58,9.58,41.75,14.92,62.67,12.92 s 34.92-12.83,39.58-17.75 C 348.22,422.54,347.8,408.29,347.8,399.38Z M 347,269 a 3.88,3.88,0,0,0-3.28-2.79 c -.08-.35-.42-1.88-.73-3.33 a 6.41,6.41,0,0,0,2.6-2.45 A 21.79,21.79,0,0,1,347,269Z m -3.23-12.35 a 14.1,14.1,0,0,1,1.48,2.81 c -.15.43-.69,1.23-2.38,2.44 l .23-1.41 a 4.78,4.78,0,0,0,.66-.87 l -.39-.74.35-2.16Z m -1.79,4.77 a 36,36,0,0,1,1.15,4.76,4,4,0,0,0-.92.14,4.51,4.51,0,0,0-1,.39 c -.19-1.07-.63-3.55-.91-4.47 A 8.63,8.63,0,0,0,341.94,261.44Z m .52,6 c 1.86-.43,3.05.35,3.4,1.88 a 2.83,2.83,0,0,1-2.22,3.17,2.66,2.66,0,0,1-3.34-1.84 A 2.76,2.76,0,0,1,342.46,267.43Z m -.21-9.31.79,1.33 s -.78,2.28-6,3 c -.21-.49-.41-1.08-.51-1.4 A 14.57,14.57,0,0,0,342.25,258.13Z m -6.36,3,.67,1.89 a 13.68,13.68,0,0,0,3.14-.6 l .18.8 a 18.22,18.22,0,0,1-5.68.68 c -.17-.82-.36-1.64-.58-2.44 A 16.8,16.8,0,0,0,335.9,261.18Z m -1.52,3.59 A 25.42,25.42,0,0,0,340,264 c .2.94.44,2.12.59,3.09 a 3.61,3.61,0,0,0,2.9,6.49,4.36,4.36,0,0,0,3.08-2.32,24,24,0,0,1-2.82,6.92,83,83,0,0,1-8.28-3.78 A 72.07,72.07,0,0,0,334.38,264.77Z m -18.53-32.29,3.53,4.56-3.94,6.78 A 41,41,0,0,0,315.85,232.49Z m 6.21-3.78 a 9.7,9.7,0,0,1-2.27,6.62 l -.9-1.06 a 11.9,11.9,0,0,0,1.59-9.85 A 6.78,6.78,0,0,1,322.05,228.71Z m -2.66-5.44 a 11.57,11.57,0,0,1-.93,10.51 l -2.94-3.44 a 23.85,23.85,0,0,0-5.3-11.47 A 21.81,21.81,0,0,1,319.39,223.27Z M 315,246 l 4.89-8.24.81,1.05-6.28,10-.12-.1 C 314.48,248.16,314.74,247.22,315,246Z m -2.72,2.52 c -3.74-1.07-13.21-3.64-18.41-4-.08-.54-.15-1.06-.23-1.57 a 86.28,86.28,0,0,1,15.62,3.53 C 310.31,247.07,311.32,247.75,312.29,248.5Z m -5.56-3.6 a 71.43,71.43,0,0,0-13.17-2.71 c -.39-2.87-.61-5.05-.73-6.35 a 56.49,56.49,0,0,0,9.22,6.46 C 303.57,243.16,305.15,244,306.73,244.9Z m -28.3-14.5 c .3,2.07,1.37,6.87,4.89,7.6 a 23,23,0,0,0,8.45,0 c 0,.51.09,1.05.14,1.62-1.92.39-7.8,1.36-11.11-.64 C 277.85,237.18,277.49,233.77,278.44,230.4Z m 1.45-3.52 c 2.33-4.25,8-6,8-6 a 6.39,6.39,0,0,0-1.25,7.5,22.53,22.53,0,0,0,4.89,6.26 c 0,.62.11,1.54.2,2.68-1.62.19-6.53.66-8.71-.38-2.4-1.15-3.65-4.14-4-8.14 A 17.62,17.62,0,0,1,279.89,226.88Z M 253.14,432.71 c 3.42-12.67,1.75-28.83.42-38.25 s -4.33-20.58.33-34.25,11.25-17.42,17.58-24.17,11.08-12.67,12.08-20.75 c .64-5.17.05-8.52-.82-10.93 a 36.27,36.27,0,0,1,6.35,10.26 c -2-7.37-6.81-13.62-10.81-18.81 s -10.5-14-12.25-24.12 a 147.86,147.86,0,0,1-1.87-20.44,12,12,0,1,1,3.63-23.62 c 4.14,1,7.15,2.41,9,1.63-1.41,4.68.17,9.24,1.51,10.45,1.78,1.62,5.71,3.47,13.76,1.49.14,1.38.3,2.86.49,4.34 a 156.89,156.89,0,0,1,21.6,4.49,21.69,21.69,0,0,1,7.15,14.43 c 1.5,13.58-6.42,31.58-8.83,42.17 s -3.92,21.25-3.08,32.08,4.17,40.5,4.67,59 c .45,16.82-.88,43-1.13,47.62 C 295.13,446.46,270.11,443.09,253.14,432.71Z"/>
    <path d="M 285.19,263.48 s -.37,10.87.36,16.27 a 38.82,38.82,0,0,0,9.73,6.5 s 8.48-4.38,10.53-6.22 c .65-7.44,1.12-15.89,1.12-15.89 S 295.2,266.16,285.19,263.48Z m 10.24,21.08 a 57.23,57.23,0,0,1-8.67-5.74 s -.15-5.84-.16-10 c 7.5,2,16.36,1.09,18.61.82-.36,4.56-.68,9.52-.68,9.52 S 297.59,283.52,295.43,284.57Z m 10.1-18.75 c -.07.76-.14,1.6-.21,2.47-7.8,1.71-16.22.09-18.72-.47,0-1,0-1.84.06-2.41 C 286.66,265.4,298.93,267.62,305.54,265.82Z"/>
    <path d="M 297.57,272 l -4-.13v2.68 l -3.16,0,0,3.56,3.16,0,0,2.72,3.67.07.19-2.65,3,0,.07-3.71 H 297.6Z m 1.93,5.09-2.82.08-.16,2.79-2.08-.06,0-2.64-3.09-.13,0-1.58 h 3.1V273 l 2.17,0,.1,2.6,2.75.07Z"/>
  </g>
<script type="text/ecmascript" xlink:href="param.min.js"/> 
</svg>
