<?xml version="1.0"?>
<svg xmlns="http://www.w3.org/2000/svg" xmlns:xlink="http://www.w3.org/1999/xlink" viewBox="0 0 600 600">
  <title>city-classic-top-voluptuous</title>
  <g id="main-colour">
    <path d="M 351.11,314.38 c -3.74-6.12-9.67-12-10.29-16.9 a 23.28,23.28,0,0,1,.79-7 c 15.28-5.6,16.81-19.75,15.29-27.95 a 23.15,23.15,0,0,0-8-13.07,16.39,16.39,0,0,0,1.08-5.83,16.58,16.58,0,0,0-13.07-16.2 h 0 c -2.24-1.41-6.76-.84-11.76.54 a 16.24,16.24,0,0,1-2.5-3.72 c -2.5,7-6,15.76-11.93,23.75 a 59.73,59.73,0,0,1-32.32-24.32,17,17,0,0,1-4.75,4.7,50.72,50.72,0,0,0-12.75-2.28 c -6.75-.25-13.13,4.13-15.88,9.63 s -2.75,12.13,1.5,18.75 c -2.5,13.63.38,23.13,3.75,34 s .5,15.5-3.37,21.38 S 235.69,328,231.94,340 a 134.4,134.4,0,0,0-4,13.73,82.74,82.74,0,0,0,42.83,9.43 c 27.88-1.25,41.5-13,47.63-19.37,3.35,5.14,19.53,12.92,43.82,9.74 C 361.18,341.8,358.42,326.33,351.11,314.38Z" fill="param(main_colour)"/>
  </g>
  <g id="accent-colour-1">
    <path d="M 277.28,225.63 S 282.78,236,294.15,251 s 13.88,19.38,19.5,33.63 a 155.83,155.83,0,0,1,4.61,15 s 1.89-3.75,4.39-18.5 a 199.64,199.64,0,0,0,1.13-55.62 l -1-1.25 s -3.4,13.63-12,23.75 c -9.74-3.12-25.24-11.87-32.24-24.37Z" fill="param(accent_colour_1)"/>
  </g>
  <g id="accent-colour-2">
    <path d="M 247,310 s 3.88,5.38,23,7.75 c -2.37,9.38-6,17-16.38,17.75 S 238.9,329.38,238.4,325Z" fill="param(accent_colour_2)"/>
    <path d="M 342.4,318.75 s 5.13-1.62,8-4.62 a 70.66,70.66,0,0,1,7.88,19 S 345.28,338.25,342.4,318.75Z" fill="param(accent_colour_2)"/>
    <path d="M 273.91,227.7 l 3.37-2.07 a 156.11,156.11,0,0,0,15.88,23.88 c 10.36,13,20.13,25.13,24.38,50.25-5.87-8.87-15-19.37-26.37-25.75,2.88-9,3.13-12.87,3.13-12.87 s -10-2.37-14-5.37 a 68.3,68.3,0,0,0-4.62-23.37Z" fill="param(accent_colour_2)"/>
    <path d="M 319.28,298.38 S 330,282,334.9,267.75 a 60.71,60.71,0,0,1-6.12-9 s 4.38-6.25,4.75-10.12 c -3.12-5.75-7-16.24-7.07-21.75-1.31-.63-2.68-1.38-2.68-1.38 s 2.25,26.5.63,42.75 S 320,294,320,294Z" fill="param(accent_colour_2)"/>
  </g>
  <g id="outline">
    <circle cx="318.56" cy="261.22" r="1"/>
    <circle cx="319.69" cy="267.63" r="1"/>
    <circle cx="320.22" cy="273.75" r="1"/>
    <circle cx="320.34" cy="280.38" r="1"/>
    <circle cx="322.63" cy="306.17" r="1.78" transform="translate(11.77 624.29) rotate(-89.16)"/>
    <circle cx="322.16" cy="317.15" r="1.78" transform="translate(0.33 634.64) rotate(-89.16)"/>
    <circle cx="322.41" cy="328.15" r="1.78" transform="translate(-10.42 645.73) rotate(-89.16)"/>
    <circle cx="322.29" cy="339.28" r="1.78" transform="translate(-21.67 656.57) rotate(-89.16)"/>
    <path d="M 343.65,302.42 c -1.89-3.39-2.07-6.15-1.13-10.81,4.57-1.82,14.54-7.89,15.87-20.65,1.38-13.12-5.62-21.08-12.48-24.44 a 163.88,163.88,0,0,1-16.66-9.89,52.89,52.89,0,0,1-2-8.3,20.4,20.4,0,0,1,9.69-.89 c -3.18-1.85-6.91-1.61-9.92-.72v-.09 a 10.31,10.31,0,0,1-4.62-4.62 c -2.25,8.63-7.62,20.38-11.87,25-12.75-3.37-25.37-13.75-32.37-25.25 a 11.39,11.39,0,0,1-5.5,5.38 l .1.18 a 50.05,50.05,0,0,0-9.15-2,18.48,18.48,0,0,0-2.15-.2 l -.67,0 h 0 a 18.6,18.6,0,0,0-18.58,18.58,18.41,18.41,0,0,0,3.34,10.57 c -.66,3.67-2.25,14.95.91,25.1,3.83,12.33,8.19,18.93,0,29.83-12,15.92-17.31,31.15-19.64,44.91.51.28,1,.56,1.58.83 l .71.37v0 c 43.06,20.44,79.09,1.22,89.16-10.34,13.15,12.81,38.43,10.51,43,10v.09 a 4.89,4.89,0,0,1,.72-.18 l 1.15-.2 C 361.64,319.86,345.84,306.35,343.65,302.42Z m -.27,16.71 a 24.39,24.39,0,0,0,6.83-3.39 c .7,1.14,1.34,2.31,2,3.5 a 22.27,22.27,0,0,1-8,3.85 A 31.31,31.31,0,0,1,343.39,319.13Z m 9.5,1.55 a 74.83,74.83,0,0,1,4.58,12 c -2.78.65-9.78,1.19-12.93-8.42 C 346.32,323.87,350.36,322.72,352.89,320.67Z m -20-72 a 28.58,28.58,0,0,1-7.09,12 A 305.22,305.22,0,0,0,324.69,227 a 6.54,6.54,0,0,0,.82.28 C 327.26,236,328.89,242.75,332.89,248.63Z m -29.6,16 a 108.19,108.19,0,0,1,13.53,32.79 c -3.53-5.23-13.18-18.32-24.56-23.66 a 57.71,57.71,0,0,0,2.94-11 C 298.76,263.72,301.65,264.32,303.29,264.62Z m 20.35,3.63 A 161.47,161.47,0,0,1,319,295.51 c .18-8.35,0-30.34-6.14-43.75,1.55,1.39,5,4.48,8.15,7.36 a 22,22,0,0,0,3.21-6.59 C 324.23,257.87,324.08,263.32,323.64,268.25Z m -11.9-16 c 1.65,3.77,6.11,16.48,6.16,43.46-1.46-5.49-6.18-21.72-13.76-33.09-1.24-1.86-2.49-3.64-3.74-5.37,2.31,2,5.4,4.59,7.74,6.24 A 60.64,60.64,0,0,0,311.74,252.26Z m 13.94,10.28 c .62-.56,1.6-1.49,2.72-2.72.88,1.48,3.84,6.39,5.74,8.18-3,8-10.52,21.94-14,28.29 A 167.89,167.89,0,0,0,325.68,262.54Z M 323.1,226 c .25,3.07.92,12.2,1.09,22.46 a 47.14,47.14,0,0,1-3.55,8.82 l -9.05-8.48 C 318.25,239.63,322.7,227.13,323.1,226Z m -12.48,23.24 A 55.43,55.43,0,0,1,307.76,261 c -1.74-.73-7.81-5.87-11-8.58-6.57-8.65-13-16.3-18.57-26.34 a 4.38,4.38,0,0,0,.4-.58 C 285.34,237.44,303.9,247,310.63,249.22Z m -33.55-22 c 2.16,3.45,11.89,18.88,17.31,25.3 a 106,106,0,0,1,7.26,9.58 c -4.33-1-15.09-3.71-20.51-7 C 282,243.63,275,228.5,275,228.5 A 12.34,12.34,0,0,0,277.07,227.2Z m -29.87,84.22 c 4.42,4.22,16.92,7.2,21.93,7.2 a 31.73,31.73,0,0,1-1.3,4.48 c -13.08-.16-21-5.62-23.26-7.41 C 245.46,314.22,246.33,312.8,247.21,311.42Z m 19.95,13.34 c -5.67,12.35-17.62,10.12-21.89,8.37-3.66-1.5-5.42-5.54-6.07-7.46,1.61-3.34,3.2-6.26,4.77-8.93 C 253.37,324.25,264.46,324.76,267.15,324.76Z m -37.7,28.77 a 106.36,106.36,0,0,1,7.86-23.8 c .35-.8.7-1.56,1.05-2.31,2.11,8,11.31,10,19,8.34,8-1.75,11.75-7.87,13.88-19-13.79-1.16-21.17-5.4-23.17-6.72 l 2.18-3.39 c 4.17-6.5,2.93-14.62.92-20.08 a 60.83,60.83,0,0,1-3.7-31.06 l 0,0,.2-1.67v0 a 16.56,16.56,0,0,1,13.1-26.72 h 0 c .6,0,1.2,0,1.8.07 h .1 a 47.73,47.73,0,0,1,11.17,2.45 A 62.79,62.79,0,0,1,279,256.75 a 91.18,91.18,0,0,0,14.33,5.47 c -.39,2.4-1.48,8.28-3.33,12.28,12.49,5.34,24.06,22.34,27.18,27.19-.31,5.71-1.4,28.72.29,41.64 C 280.6,375.93,236,356.62,229.45,353.53Z m 89.72-9.75 c -.38-3.43-1.86-18.93-.26-42.34,3.27-5.7,14.51-25.57,16.85-33.56 a 51.79,51.79,0,0,1-6.24-9.35,25.28,25.28,0,0,0,5.36-9.65,55.57,55.57,0,0,1-5.61-12.21 c 1.67,2.24,8.53,7.21,13,9.6,5.21,2.8,11.13,8.07,12.83,14.58,2,7.67,1.29,14.67-4.46,22.17 a 22.14,22.14,0,0,1-10.54,7.3 c -.14.68-.24,1.42-.36,2.18 h 0 c -.74,4.57.18,9,4.36,15.14 a 48.76,48.76,0,0,1,5.07,6.51 c -1,.95-3.29,2.74-7.79,4,1.46,8.62,4.21,18.88,16.49,16 a 109.79,109.79,0,0,1,3.24,18.78 C 357.31,353.46,332.32,356.22,319.17,343.78Z"/>
    <path d="M 271.23,288.21 s 9.83,15.67,27.67,8.67 A 35.29,35.29,0,0,1,271.23,288.21Z"/>
  </g>
<script type="text/ecmascript" xlink:href="param.min.js"/> 
</svg>
