<?xml version="1.0"?>
<svg xmlns="http://www.w3.org/2000/svg" xmlns:xlink="http://www.w3.org/1999/xlink" viewBox="0 0 600 600">
  <title>nurse-curvy</title>
  <g id="main-colour">
    <path d="M 360.23,405.75 c -.37-13.25,1-30.75-3.75-44.12 s -10.75-21.25-15.12-27.87 a 78.18,78.18,0,0,1-7.4-15.27,55.22,55.22,0,0,1,.7-17.34 c 1-4.58,2.38-8.18,4.32-13.53,4.79-2.41,11-7.83,12.25-15.73,1.42-9.17-3.08-16.92-5.75-19.08-1.42-1.15-3.23-2.65-4.62-3.81-.37-.9-.63-1.37-.63-1.37 h 0 a 12.69,12.69,0,0,0-6.41-19.85 h 0 c -3.11-1.81-8.23-.54-10.39.12 a 9,9,0,0,0-3.31-4.84,12.73,12.73,0,0,0-6.33-2.58,20.59,20.59,0,0,1,1.2,4.08,57,57,0,0,1-.21,13 c -.92,4.83-1.42,8.79-3,12.75-6.42-5.29-18.67-9.54-24.24-15.29 a 15.45,15.45,0,0,1-3.71-5.39 c -1.4-6.07.46-9.27.46-9.27-7.41.24-9.17,5.7-9.57,8.84 a 56.87,56.87,0,0,0-10.14-2.78,13.69,13.69,0,0,0-13.87,6.13 c -4.62,8.75-.12,15.63,3.88,18.5-2.75,22.25,4.63,35.5,7.25,40.25 s 4.63,8.5,5.5,15.13 c 1.38,11.88-6.87,19.38-14.12,29.88 a 61.1,61.1,0,0,0-9.81,22.5 c -.48,1.68-1,3.52-1.4,5.53-4,18,.88,34.25,2.63,42.88 s 2.25,23.75-.37,29.5 c 11,7.63,22.38,11.13,40.88,12 S 326,442.75,333,440.88 s 28.25-5.75,34.38-3.87 C 363.11,428.5,360.61,419,360.23,405.75Z" fill="param(main_colour)"/>
  </g>
  <g id="fixed-colours">
    <path d="M 338,261.73 l .67,2.13,3.08-.71,1.13,5.25 a 4,4,0,0,0-1,3.35,2.93,2.93,0,0,0,3.76,2,3.07,3.07,0,0,0,2.42-3.87 c -.37-1.24-2.34-2-2.75-2.17 C 345,265.85,344,262,344,262 l 2-1.9 L 345,258Z" fill="#d6d6d6"/>
    <path d="M 334.85,262.1 a 11.63,11.63,0,0,0,3.2-.43 c .32,1,.67,2,.67,2 l 3.08-.54.25,1.25 s -1.25.79-6.5,1 C 335.21,263.84,334.85,262.1,334.85,262.1Z" fill="#fff"/>
    <polygon points="347.01 255.75 349.32 259.44 344.55 263.5 344 262.02 346.01 260.13 344.82 257.57 347.01 255.75" fill="#fff"/>
    <path d="M 283.56,264.44 s 11,2.66,21.7.75 a 31.85,31.85,0,0,1-.15,4.13 s -11.75,2.07-21.27-.91 A 25.64,25.64,0,0,1,283.56,264.44Z" fill="#fff"/>
    <polygon points="288.82 276.15 292.35 276.12 292.48 273.28 295.5 273.32 295.8 276 298.82 276.04 298.69 278.71 295.5 278.83 295.29 281.85 292.1 281.88 292.31 278.96 288.95 278.91 288.82 276.15" fill="#f0356a"/>
    <path d="M 320.05,223.46 s 5.17,6.83-1.67,15.33 a 7.33,7.33,0,0,1,.83,1.83 s 4-3.17,4.58-7.08 A 10.82,10.82,0,0,0,320.05,223.46Z" fill="#fff"/>
    <path d="M 319.05,241.46 s -5.83,8.25-6.25,9.54 c .79.67,1.25,1,1.25,1 l 5.75-8.37Z" fill="#fff"/>
    <path d="M 293.22,246.3 s 10,.71,17.58,3.21 a 29.74,29.74,0,0,1,2.88,2.71,161.78,161.78,0,0,0-20.33-3.5 A 16.17,16.17,0,0,0,293.22,246.3Z" fill="#fff"/>
    <path d="M 292.84,244.88 s -7.83.54-13-3.71-6-10.83-4.08-14 a 15.42,15.42,0,0,0,6.79,12.25,15.9,15.9,0,0,0,9.79,2.75Z" fill="#fff"/>
  </g>
  <g id="outline">
    <path d="M 277.14,287.38 c 9.75,13.5,23.88,8.5,29.25,5.13 C 287,299,277.14,287.38,277.14,287.38Z"/>
    <path d="M 361.39,392.88 c 0-15.5-1.5-34.17-13-50.83 s -14.62-22.29-13.87-32.79 c .67-9.32,4.77-19.41,5.69-21.57 A 21.87,21.87,0,0,0,352,274.38 c 3.09-10.32-1.67-17.33-5-21 s -7.42-6-10.25-8.58-7.5-8.17-7.5-8.17 C 330.47,240.13,339,249,341.8,251 a 20,20,0,0,1,4.19,4.1 c -3.7,4.79-12.32,6.16-12.32,6.16 A 76.36,76.36,0,0,1,336,276.17 c 1.94,1,8.33,3.64,10,4.33 a 20.08,20.08,0,0,1-1.82,2.13 c -2.83,2.83-6.12,5.38-8.92,6.33 a 9.28,9.28,0,0,0,2.55-.39 c -1,2.48-4.92,12.7-5.14,22.93-.25,11.75,8,22.38,12,28.75 s 11.5,17,13.13,33.75 A 303.58,303.58,0,0,1,359,409.13 c 0,7.88,2,19.38,6.13,26.25-7.75-1.12-19.12,1.38-26.5,3.25-4.08,1-10.89,2.92-18.66,4.71.36-5.54,1.67-26.59,1.24-37-.5-12-2.17-28.17-4-42.67 s -2.83-31-1-43.83,4.17-22.5,5.33-34.92.5-20.83-3-27.5 a 22.66,22.66,0,0,0-3.88-5.26,82.38,82.38,0,0,0,5.72-8.41 c -.14-.89-.34-1.79-.57-2.69 a 11.78,11.78,0,0,0,4.82-10.56,11.6,11.6,0,0,0-.34-2.09 c 3-1.33,7.55-1.38,9.59-.58-1.33-1-4.08-1.71-6.58-1.58 a 11.82,11.82,0,0,0-3.5.66,11.48,11.48,0,0,0-10.92-7.41 c 1.33,4.33,1.86,13.91,1.42,17.75 a 77.69,77.69,0,0,1-2.86,12,51.6,51.6,0,0,0-8.23-5 c -4.92-2.5-14.67-7.5-17.75-13.17 s -.5-11.67-.5-11.67-5.92-1.08-9.5,5.08 a 12.3,12.3,0,0,0-1.39,3.53,39.9,39.9,0,0,0-7.19-2.33 c -5.06-1.19-10.56-.56-14.94,3.81 a 14.32,14.32,0,0,0-4.06,12.81,14.61,14.61,0,0,0,5.69,9.31 c -.75,5.44.06,14,.5,18.56 a 62.42,62.42,0,0,0,5.63,19.13 c 1.29,2.55,3.24,5.7,5.24,9.71,1.15,3.71,2.43,9.38,1.44,14.17-1.62,7.88-8.17,13.71-12,19.21 a 81.72,81.72,0,0,0-12.83,29.08 c -3.5,14.67-1.33,30.17.67,39.83 s 5.33,24.83.5,35.5 c 15.17,13,45.17,14,61.17,11.83 s 46.67-13.83,64.5-10.33 C 361.22,424.38,361.39,408.38,361.39,392.88Z M 348.54,259.39 a 21.66,21.66,0,0,1-4,3.5 l -.2-1 a 5.81,5.81,0,0,0,1.94-1.93,17.22,17.22,0,0,1-.83-1.89,15.4,15.4,0,0,0,1.55-1.46 A 21.68,21.68,0,0,1,348.54,259.39Z m -4.24,9 c 1.86-.43,3.05.35,3.4,1.88 a 2.83,2.83,0,0,1-2.22,3.17,2.66,2.66,0,0,1-3.34-1.84 A 2.76,2.76,0,0,1,344.29,268.35Z m -.29-1.1 a 4.51,4.51,0,0,0-1,.39 c -.18-1.07-.6-3.52-.89-4.62 a 12.8,12.8,0,0,0,1.6-.72,36.19,36.19,0,0,1,1.17,4.81 A 4,4,0,0,0,344,267.25Z m -5-4.06 a 13.29,13.29,0,0,1-.48-1.34,19.43,19.43,0,0,0,6.34-3.25 l .76,1.58 S 344.23,262.52,339,263.19Z m -1.29-1.12.68,1.92 a 19,19,0,0,0,3.12-.74 l .21.93 a 18.22,18.22,0,0,1-5.68.68 c -.17-.82-.36-1.64-.58-2.44 A 15,15,0,0,0,337.72,262.07Z m 8.67,17.25 c -2.15-.42-9-4-9-4 a 72.07,72.07,0,0,0-1.16-9.65,25.42,25.42,0,0,0,5.68-.77 c .21,1,.44,2.15.59,3.09 a 3.61,3.61,0,0,0,2.9,6.49 A 4.05,4.05,0,0,0,348.8,270 a 3.88,3.88,0,0,0-3.29-2.81 c -.08-.35-.42-1.88-.73-3.33 a 13.07,13.07,0,0,0,4.12-3.61,22.19,22.19,0,0,1,1.41,5.26 A 19.51,19.51,0,0,1,348,277.17 C 347.28,278.19,346.53,279.2,346.39,279.32Z M 314,251.51 l -.7-.65 c .11-.18,2.3-3.85,5.59-8.64.23.91.36,1.49.36,1.49Z m 5.47-11.81 c -.1-.34-.2-.69-.31-1,.92-1.2,5.36-7.54,2-13.6 a 9.06,9.06,0,0,1,2.24,5.8 C 323.45,235.26,320.65,238.51,319.44,239.7Z m .1-16.16 c 1.4,2,4,7.29-.69,14.29 a 70.61,70.61,0,0,0-2.83-7.12,42.75,42.75,0,0,0-1.14-9.26 A 10,10,0,0,1,319.54,223.54Z M 316,233.49 a 51.64,51.64,0,0,1,2.63,7.8,67.57,67.57,0,0,0-5.86,9.12 l -.34-.29 A 55.4,55.4,0,0,0,316,233.49Z m -3.6,18 A 132.4,132.4,0,0,0,294,248.21 l -.14-1.31 a 97.91,97.91,0,0,1,16.23,2.78 A 23.17,23.17,0,0,1,312.38,251.54Z M 307.3,248 l .33.19 a 120.38,120.38,0,0,0-13.93-2.42 c -.25-2.29-.5-4.52-.64-5.72 C 296.74,242.34,301.42,244.82,307.3,248Z m -31.77-19.15 c .44,2.95,1.62,7.44,5.78,10.48,3.87,2.84,9,3.37,10.63,3.48 l .17,1.44 c -1.56,0-8-.32-11.82-3.75 S 275,232.89,275.54,228.81Z m 7.1-7.77 c -2,4.75.33,10.42,4.33,14.33 a 32.52,32.52,0,0,0,4.52,3.6 l .35,2.88 c -3.48-.12-9-1.39-12.36-5.57-2.67-3.37-3.25-7.81-3.38-9.72 C 277.52,222.94,281.13,221,282.64,221Z m 17.63,226 c -14.75,1.88-41.75-.37-54.87-10.75,3.5-11.87,1-27-.87-35.12 s -4.75-21-1-38.62,10.75-26.25,15.13-32.25 c 4-5.51,11.19-12.4,9.82-23 a 69.91,69.91,0,0,1,3.56,15 c -.06-7.62-3.31-19.12-6.44-25.62 s -8.19-13.94-9.69-27.25-.19-18.75-.19-18.75-4.5-2.62-5.62-7.44 a 12.78,12.78,0,0,1,5.75-14.19 c 5.51-3.66,13.26-1,18,.72 a 14.67,14.67,0,0,0,5,11.59 c 4.11,3.71,9.78,4.06,13.41,4.29 l .42,3.46 s 14.54,1.65,20.8,3.53 c 5,5.29,6.74,12.49,7.12,20.89.5,11.25-2.12,23.71-3.37,33 s -4.5,15.75-3,39.63,6.46,50.92,5.29,73.58 c -.79,15.29-1.12,21.55-1.25,24 C 312.5,445,306.26,446.24,300.26,447Z"/>
    <path d="M 293.58,288.13 s 9.18-4.74,11.4-6.73 c .71-8,1.21-17.2,1.21-17.2 s -12.69,2.18-23.53-.72 c 0,0-.4,11.77.39,17.61 A 42,42,0,0,0,293.58,288.13Z m .16-1.83 a 61.93,61.93,0,0,1-9.38-6.21 s -.17-6.32-.17-10.85 c 8.11,2.15,17.7,1.18,20.14.88-.39,4.94-.74,10.3-.74,10.3 S 296.08,285.17,293.74,286.3Z M 304.67,266 c -.08.82-.15,1.73-.23,2.67-8.44,1.85-17.55.1-20.25-.51,0-1.08,0-2,.06-2.61 C 284.25,265.56,297.53,268,304.67,266Z"/>
    <path d="M 296,272.71 l -4.29-.14v2.9 l -3.41,0,0,3.85,3.41,0,0,2.94,4,.08.2-2.87,3.26,0,.08-4 h -3.18Z m 2.09,5.51-3.05.08-.17,3-2.25-.07,0-2.86-3.34-.14,0-1.71,3.35,0v-2.78 l 2.34,0,.11,2.81,3,.08Z"/>
  </g>
<script type="text/ecmascript" xlink:href="param.min.js"/> 
</svg>
