<?xml version="1.0"?>
<svg xmlns="http://www.w3.org/2000/svg" xmlns:xlink="http://www.w3.org/1999/xlink" viewBox="0 0 600 600">
  <title>basic-tank-top-hourglass</title>
  <g id="main-colour">
    <path d="M 333.28,241.88 c -5.87-3.5-9.62-11.94-10.94-15.56-.62.18-2.11.77-3.24,1.22,1.83,1.8,4.7,11.13,4.93,13,.56,4.63.5,10.38-9.37,10.69-11,.35-20.94-6.44-26.5-12.5-2.53-2.75-6.51-9.7-7.62-11.69 l -3.82,1.34 c 3.1,7.74,2.45,16-2.14,24.14-3.61,6.38-8.17,8.75-11,9.64.7,7,2.13,14.71,4.32,19.24,0,0,4.06,10.79,8,20.87 a 86.34,86.34,0,0,1,4.92,20.08 c -2.83,6.5-10,13.13-14.31,17.21 a 46.09,46.09,0,0,0-8.75,10.55,41.53,41.53,0,0,1,10.72-1.43 c 8.08,0,19.25,3.33,27.33,4.67 s 21,2.75,27.17-1.17 a 28.16,28.16,0,0,0,7.93-6.93 c -1.86-3-4-5.79-6-8.6-4.17-5.92-5.25-9-4.83-14.25 s 4.92-13.67,8.5-19.67 a 52.84,52.84,0,0,0,4.55-11 c 13.67-1.55,20.68-13.94,20.8-25.4.13-11.75-9.25-18-13-20Z" fill="param(main_colour)"/>
  </g>
  <g id="outline">
    <path d="M 264.86,275.5 c 7,13.63,11.78,24.69,15,35.5,3.17,10.64,3.11,21-5.25,29.13,8.26-12.21,5.13-24.39.48-37.35 C 272.23,294.83,267.53,283.52,264.86,275.5Z"/>
    <path d="M 319.11,323 s -1.08,8.58,4.75,18.38 c -3-7-3.75-15.87-3.5-18.37 C 320.23,321.63,319.11,323,319.11,323Z"/>
    <path d="M 278.88,324.34 c -4.43,8-17.06,15.51-23.1,27.25,1.48-.6,2.61-1,2.61-1 h 0 a 42.23,42.23,0,0,1,4.9-6.38 c 2.18-2.33,7.39-7.09,11.86-12 l .74-.84 c .82-.93,1.6-1.86,2.33-2.78 l .76-1 a 33,33,0,0,0,1.89-2.78 c 0-1.2-.06-2.77-.2-4.51 A 26.68,26.68,0,0,1,278.88,324.34Z"/>
    <path d="M 272.37,291.08 a 125.18,125.18,0,0,1-5.32-14.91 h 0 A 74.94,74.94,0,0,1,264.61,262 a 12.4,12.4,0,0,1-2.1.54 c .28,2.62.73,5.75,1.45,9.38 A 49.5,49.5,0,0,0,272.37,291.08Z"/>
    <path d="M 320.8,322.34 c .77-5.92,5.19-13.63,8.09-18.78 h 0 a 36.14,36.14,0,0,0,5-11.8 l -2.5.41 a 45.41,45.41,0,0,1-4.49,11.08 c -4.42,7.33-6.8,13.75-7.72,18.75-.83,4.54.95,9.2,3,12.28 l .69,1 c .71.91,1.49,2,2.31,3.12 l .7,1 c 1.58,2.23,3.27,4.74,4.86,7.25 h 0 s .32-.58.69-1.36 c -.54-.89-1.13-1.82-1.79-2.79 C 323.55,333.26,319.88,329.43,320.8,322.34Z"/>
    <path d="M 342.5,246.34 a 92.65,92.65,0,0,1-14.67-9.22 c 1.59,2.21,6.5,6.55,11,9,5.21,2.8,11.13,8.07,12.83,14.58,2,7.67,1.29,14.67-4.46,22.17 a 23.28,23.28,0,0,1-15.61,8.47 c -.19.84-.33,1.42-.33,1.43 a 17.87,17.87,0,0,0,7.45-1.15 c 4.38-1.62,14.89-7.68,16.27-20.81 S 350.65,250.36,342.5,246.34Z"/>
    <path d="M 275.9,284.25 c 10.5,12.13,21,14.63,34.13,11.25 C 298.38,302.39,282.36,297.84,275.9,284.25Z"/>
    <path d="M 257.36,351 s 7.25-3.5,24.13.25,30.89,6.29,39.75,2.75 c 8-3.21,10-8.25,10-8.25 l -.87-1 a 20.23,20.23,0,0,1-10,7.88 c -6.87,2.5-14.33,1.67-23.37.25-10.32-1.62-27.37-7.92-38.62-3.37 C 258,350,257.36,351,257.36,351Z"/>
    <path d="M 263,346.88 s 4.83-1.67,15.67.58,25.83,5.83,33.42,5.33 a 27.6,27.6,0,0,0,13.17-4.58 S 318,352,311.63,352.27 c -5.83.21-13.19-1.23-22.77-3.31 S 267.19,344.21,263,346.88Z"/>
    <path d="M 322.17,225.48 a 9.74,9.74,0,0,0-3.45,1.06 l -.9.39 c .37.76.83,1.38,1.05,1.88,1.34-.57,2.15-1.25,3.76-1.79Z"/>
    <path d="M 275.33,227.63 a 24.92,24.92,0,0,1,1.53,17.25 c -2.58,9-8.33,15.42-14.42,16.83.06,1,.17,1.83.17,1.83 s 11.58-2.67,16-18.42 c 2-7.13,0-15.5-1.62-17.87 C 276.23,227.38,275.33,227.63,275.33,227.63Z"/>
    <path d="M 280.69,225.88 s 7.38,16.58,21.21,22 c 13.05,5.11,31.17,5.33,15.92-20.95.9-.39,1.54-.72,1.54-.72 s 9,16.8,4.29,22.5 c -6.06,7.29-22.08,1.25-27.42-2.17 a 42.29,42.29,0,0,1-17.13-20 C 279.77,226.3,280.69,225.88,280.69,225.88Z"/>
    <path d="M 336.34,244.63 c -4.62-2.62-8.5-6.12-10.5-9.56 a 75.31,75.31,0,0,1-4.54-9.44 l 1.38-.25 s 1.79,4.53,3.23,7.13 c 3.19,5.75,5.94,7.25,11.13,10.94Z"/>
    <path d="M 275.33,227.63 a 31.66,31.66,0,0,0,5.36-1.75 l .48,1.71 a 19.67,19.67,0,0,1-4.88,1.56 A 4.77,4.77,0,0,0,275.33,227.63Z"/>
  </g>
<script type="text/ecmascript" xlink:href="param.min.js"/> 
</svg>
