<?xml version="1.0"?>
<svg xmlns="http://www.w3.org/2000/svg" xmlns:xlink="http://www.w3.org/1999/xlink" viewBox="0 0 215 215">
  <title>slender-top-template</title>
  <g id="skin-tone">
    <path d="M 107.43,96.17 A 11.2,11.2,0,0,0,96.3,107.45 l -.89.37 c .08,2.56.64,18.53,2.28,36.47,1.8,19.59,5.19,38.23,6.46,43.39 h 0 a 5.31,5.31,0,0,0,10.59-.55 s .15-13.1,1.06-27,2.58-33.52,3-38.77 c .29-4,.61-10.12.74-12.77 l -.83-1.31 A 11.2,11.2,0,0,0,107.43,96.17Z" fill="param(skin_tone)"/>
  </g>
  <g id="outline">
    <path d="M 118.56,105.68 a 11.21,11.21,0,0,1,.14,1.62 c .1,2.29-.37,7.59-.37,7.59-1,14.64-3.48,45.51-3.82,52.64-.26,5.43-.51,11.34-.67,15.24,0,2.32-.18,4.36-.18,4.36 a 4.2,4.2,0,0,1-8,1.78 l -.07-.16 c -.43-1.13-1.35-4.89-1.35-4.89-1.78-8-4-23-5.32-34.72 C 97.79,139,97,123.78,96.6,114.81 c -.16-2.67-.3-7.37-.3-7.37 a 11.23,11.23,0,0,1,.14-1.73 l -.08,0 a 4.53,4.53,0,0,0-1.95,4.15 c .29,6.35,1.17,24,2.67,39 a 345.38,345.38,0,0,0,6.26,39.24,6.18,6.18,0,0,0,.2.86 h 0 a 6.21,6.21,0,0,0,12.13-1.91 c 0-8.53,2-40.11,3-51.39.56-6.28,1.14-14.4,1.54-20.35 C 120.42,107.81,119,106,118.56,105.68Z"/>
  </g>
<script type="text/ecmascript" xlink:href="param.min.js"/> 
</svg>
