<?xml version="1.0"?>
<svg xmlns="http://www.w3.org/2000/svg" xmlns:xlink="http://www.w3.org/1999/xlink" viewBox="0 0 600 600">
  <title>basic-tank-top-slender</title>
  <g id="main-colour">
    <path d="M 333.54,249.13 c -.72-1-1.36-1.89-1.91-2.71 l -.63,0 s -5.12-8.06-6.56-10.62 c -1-1.78-4-6.37-5.67-9 l -.14.07-3.06,1.06 c 1.81,3.5,4.47,11.69,3.94,15.31-1.44,9.81-11.36,11.86-21.06,3.44-5.69-4.94-9.4-16.78-10.56-20.37-.43.17-2.32,1.08-3.84,1.77 a 32.4,32.4,0,0,1,2.34,14.36 c -.74,7.76-5.7,13.81-15,16,.46,6.8,1.87,15.17,2.65,19.65,1.63,9.38,4.66,20.41,6.5,28.91,3.38,15.59.78,18.59-6.39,31 a 123.34,123.34,0,0,0-7.94,15.47,35.52,35.52,0,0,1,12.3.11 c 10.42,1.67,21.92,4.75,31.25,4.5,8.09-.22,16.48-1.5,21-6.78-.66-1.57-1.56-3.52-2.8-6-4-7.92-4.57-12.7-4.73-21.12 s 1.82-20.63,3.91-27.88 c 1.08-3.75,2.8-8.6,4.32-14,5.4-3.13,8.21-9.24,9-15.06 C 341.54,259.63,335.87,252.29,333.54,249.13Z" fill="param(main_colour)"/>
  </g>
  <g id="outline">
    <path d="M 337.36,253.63 c -3.55-5-6.61-7.66-9.47-13.38,0,0,1.52,4.77,6.4,11.64,5.49,7.73,6.14,15.88,2.57,23 a 18.52,18.52,0,0,1-6.88,7.63 l -.37,1.32 c 5.1-1.55,9.43-7,11.26-13.95 C 342.12,265.16,341.62,259.61,337.36,253.63Z"/>
    <path d="M 330.18,352.76 a 7.32,7.32,0,0,0,1.26-1.33,58.92,58.92,0,0,0-2.47-5.8 c -3-6.13-5.8-11.93-4.5-26.84,1-11.72,5.23-25.16,8.13-37.27 a 14.84,14.84,0,0,1-2.81,1.72 c -5.92,20.79-10.18,35.49-7.32,50.47,1.62,7.4,5.14,12.84,7.71,19.05Z"/>
    <path d="M 271.23,268.19 c 2.5,9.5,6.15,21.81,8.36,31.38,1.85,8,3.7,15.63,3,23.92-.69,7.75-2.53,16.72-6.19,22.39,4.07-9.88,5.5-23.87,2.82-37.26 C 276.65,296.07,271.29,273.38,271.23,268.19Z"/>
    <path d="M 276.68,288.08 a 154.45,154.45,0,0,1-3.2-19,82.3,82.3,0,0,1-1.09-11.93,11.84,11.84,0,0,1-2.3.34,93.81,93.81,0,0,0,1.18,11.25 A 115.94,115.94,0,0,0,276.68,288.08Z"/>
    <path d="M 282.53,315.53 h 0 c -2,11.61-12,24.94-16.6,34.86-.76,1.64-1.41,3.25-2,4.82,1.54-.44,2.77-.71,2.77-.71 h 0 c .81-2,1.64-3.8,2.37-5.23,2.54-5,9.81-16.3,13.37-25.29 A 71.18,71.18,0,0,0,282.53,315.53Z"/>
    <path d="M 292.16,285.22 c 7.84.9,14.21-.68,20.22-7.6 C 309.53,285.36,299.45,288.84,292.16,285.22Z"/>
    <path d="M 270.73,350.63 s 3.25-1.12,13.75,1.5,31,6.25,40.25.5 A 41.37,41.37,0,0,1,310.86,355 a 127.21,127.21,0,0,1-23.21-2.83 C 280.27,350.56,273.61,349.25,270.73,350.63Z"/>
    <path d="M 264.27,355.11 s 5.1-2.24,17.21-.11 c 12.27,2.16,37,8.88,49.25-2.75 a 4.6,4.6,0,0,0-.5-1.25,31.28,31.28,0,0,1-18.75,6.5 c -11.37.13-19.5-2-24.62-3 s -16.81-3.87-21.62-1.12 A 9,9,0,0,0,264.27,355.11Z"/>
    <path d="M 282.65,227.55 s 5.79,12,1.29,21.25 c -3.54,7.27-13.42,8.92-13.92,8.67,0,.75.17,1.83.17,1.83 a 20,20,0,0,0,12.17-5.58 c 6.42-5.92,5.83-19.58,1.83-26.67 A 8.17,8.17,0,0,1,282.65,227.55Z"/>
    <path d="M 286.61,225.63 s 2.82,7.2,4.38,11.38 c 1.76,4.75,8.35,15.21,18.76,15.63 s 14.63-9.37,5.92-25.94 c -.87.46-1.4.77-1.4.77 a 33.63,33.63,0,0,1,4.47,12.17 c 1,7.63-2.57,10.51-6.87,11.38-3.75.75-10.5-.87-15.62-7.87-4.19-5.73-5.47-12.58-8.31-18.58 C 287.27,225.13,286.61,225.63,286.61,225.63Z"/>
    <path d="M 318.94,225.73 a 105,105,0,0,1,7,11.15,86.82,86.82,0,0,0,7.67,11.88 l -.42,1.54 a 98.7,98.7,0,0,1-7.58-10.83 c -3.33-5.67-4.17-8.17-8.49-13.35 A 8.33,8.33,0,0,1,318.94,225.73Z"/>
    <path d="M 314.27,227.46 a 9.57,9.57,0,0,1,4.67-1.73,13.7,13.7,0,0,1,1,1.6,18.53,18.53,0,0,0-2.58.79 c -1,.44-1.84,1-2.09,1.06 A 13.35,13.35,0,0,0,314.27,227.46Z"/>
    <path d="M 284.19,227 a 16.5,16.5,0,0,0,2.42-1.42 c .94.44.81,1.88.81,1.88 a 14.55,14.55,0,0,1-2.56,1.44 C 283.92,229.25,284.19,227,284.19,227Z"/>
  </g>
<script type="text/ecmascript" xlink:href="param.min.js"/> 
</svg>
