<?xml version="1.0"?>
<svg xmlns="http://www.w3.org/2000/svg" xmlns:xlink="http://www.w3.org/1999/xlink" viewBox="0 0 215 215">
  <title>basic-v-neck-t-shirt-hourglass</title>
  <g id="skin-tone">
    <path d="M 114,133.9 c 1.53-8.89,1.34-14.72.89-18 a 30.56,30.56,0,0,0-3.78-9.75,3.86,3.86,0,0,0-6.2-1.53 c -1.56.72-2.7,2.2-3.9,5.16-2.46,6.09-3.57,15.21-2.92,19.69 s 2.44,9.12,4.29,19.31,1.46,16,1.23,19.05-.81,5.61.83,7.23,4.25,2.27,5.94.63,1.7-4.06,1.24-7.63-1.31-11.71-.93-15.14 S 112.48,142.79,114,133.9Z" fill="param(skin_tone)"/>
  </g>
  <g id="outline">
    <path d="M 112.64,108 c -.55-.82-1.13-1.59-1.68-2.28 a 26.41,26.41,0,0,1,1.57,4.45 c 1.41,5,2.2,12.26,1.81,16-.51,4.77-2.23,13.62-3.12,19.57 a 69.61,69.61,0,0,0-.74,15.79 c .14,2.21-.22,4.41,0,6.24 a 40.75,40.75,0,0,1,.5,4.4,3.33,3.33,0,1,1-6.66.23 c 0-.84.18-3.32.28-4.47 a 55.5,55.5,0,0,0-.86-11.58 c -1-6.39-2.64-13.8-3.58-19.27 s -2.2-13.27-.43-20 a 58.47,58.47,0,0,1,2.41-7.16 s 1.25-4.07,3-5.49 c 0,0-2.74-.35-4.68,3.88 a 35.75,35.75,0,0,0-3.52,19 c 1,9.47,4.25,22.37,5,29,.62,5.71,1,13,.75,14.92 a 5.29,5.29,0,0,0-.12,1.24,5.06,5.06,0,0,0,5.23,5.1 A 5.13,5.13,0,0,0,112.6,172 c 0-1.08-.52-12.07-.37-17.25 s 1.53-13.58,3.6-26.33 a 39.13,39.13,0,0,0-.22-13.34 A 22.05,22.05,0,0,0,112.64,108Z"/>
  </g>
<script type="text/ecmascript" xlink:href="param.min.js"/> 
</svg>
