<?xml version="1.0"?>
<svg xmlns="http://www.w3.org/2000/svg" xmlns:xlink="http://www.w3.org/1999/xlink" viewBox="0 0 150 150">
  <title>OA030-strappy-heel-curvy</title>
  <g id="skin-tone">
    <path d="M 69.51,76.86 c .25-2.06.31-5.69,3.63-6.87 s 6.38,1.38,7.13,3.38-.19,5.81,1.25,8.69 S 84.82,86.8,87.38,90 s 4.88,8.94,4.88,8.94 a 10.55,10.55,0,0,0-6.69-.56 A 7.72,7.72,0,0,0,80.63,102 a 10.24,10.24,0,0,0-3.12-4.56 c -2.12-1.5-5-1.37-7.44-5.69 s -1.25-8.37-.94-10.12Z" fill="param(skin_tone)"/>
    <path d="M 83.47,107.11 a 11,11,0,0,1,6.29-4.29,18.88,18.88,0,0,1,9.17.58 c 1.08.42,1.87,2.42.33,2.77 a 2.59,2.59,0,0,1-1.87,1.4,1.61,1.61,0,0,1-2,.92 c -.87.92-2.89.81-2.89.81 A 4.36,4.36,0,0,1,89,110.4 c -2.25-.25-2.92-.62-3.83-1.33Z" fill="param(skin_tone)"/>
  </g>
  <g id="main-colour">
    <path d="M 69.05,78.19 a 9.88,9.88,0,0,1-2.58,5.5 c -2.33,2.42-3.58,5-2.08,8.67 s 2.83,4,6.33,4.92,4.92,1.25,7.42,5.5,4.17,8.5,7.92,10.5 c 5.25.33,11.5-.58,12.5-1.17 a 16.82,16.82,0,0,0,1.29-6 l -.62.29 a 1.7,1.7,0,0,1-1.71,1.13,1.92,1.92,0,0,1-2.12,1,3.57,3.57,0,0,1-3.05.81 c -1.32,1.07-3.07,1.65-5.82.48 s -3-2.67-3-2.67,4-6.79,13.75-4.17 a .67.67,0,0,1-.08-.42,9.5,9.5,0,0,1-4.37-3.39 c -2.17-.82-3.92-1.61-6.75-1 s -5.33,3.75-5.33,3.75-1.5-3.54-3.79-4.75-4.79-2.29-6.33-4.54 a 11.54,11.54,0,0,1-1.83-7.71 C 69,82.28,70,79.61,69.05,78.19Z" fill="param(main_colour)"/>
  </g>
  <g id="accent-colour-1">
    <path d="M 65,94.3 a 7.6,7.6,0,0,0,4,2.56,47.88,47.88,0,0,1,5.31,2.06 s -1.81,7.75-.62,14.38 c -1.12,0-2,.19-2-.06 a 36.07,36.07,0,0,0-1.75-8.56,31.49,31.49,0,0,0-3.62-6.87 C 65.32,96.55,64.51,94.92,65,94.3Z" fill="param(accent_colour_1)"/>
  </g>
  <g id="fixed-colours">
    <path d="M 92.36,106.78 a 5.32,5.32,0,0,0-3.58,1 c -.48-.56-.71-1.08.42-1.6 a 3.4,3.4,0,0,1,2.06-.29Z" fill="#fff"/>
    <path d="M 94.49,105.46 a 6.68,6.68,0,0,0-1.27.15 c -.42.13-.94.67-.31,1.13 a 3.94,3.94,0,0,1,2.46-.44Z" fill="#fff"/>
    <path d="M 97.61,106 a 4.08,4.08,0,0,0-1.83.29 c -.15-.52-.1-1.06.67-1.1 s .77,0,.77,0Z" fill="#fff"/>
    <path d="M 99.15,105.38 a 2.52,2.52,0,0,0-1.27.27 c -.06-.46.13-.9,1-.83Z" fill="#fff"/>
    <path d="M 99.82,104.3 s -.58.15-.6.65 c -.23-.27-.56-.71.25-1.08 A 1.51,1.51,0,0,1,99.82,104.3Z" fill="#fff"/>
  </g>
  <g id="outline">
    <path d="M 100.38,103.74 c -.94-1.31-2.37-1.25-4.44-2.37 s -3.25-3.44-4-5.06 a 53.85,53.85,0,0,0-5.25-8.56 c -1.94-2.37-3.31-3.59-4-5.17-1.11-2.44-.94-6.95-.92-7.45,0,0,0-.08,0-.12 A 6.76,6.76,0,0,0,75,68.25 h 0 A 6.76,6.76,0,0,0,68.25,75 a 11.16,11.16,0,0,1-1.37,5.91 c -1.25,2.19-4.62,5.63-3.94,9.56 a 11.66,11.66,0,0,0,.87,2.89,7.52,7.52,0,0,0,1.32,3.3 c 1.63,2.31,5.5,6.69,6.25,17 H 74.1 s -1.16-8.16.76-14 a 7.26,7.26,0,0,1,1.78,1.84 c 2,2.94,4.73,9.33,9,12.27,5.75.5,11.52-.52,13.21-1.33 a 23.39,23.39,0,0,0,1.37-6.12 A 2.24,2.24,0,0,0,100.38,103.74Z m -1.67,2.88 a 2,2,0,0,1-.8.62,2.16,2.16,0,0,0,0-1.5,5.27,5.27,0,0,1,1.11-.24 A 1.38,1.38,0,0,1,98.72,106.61Z m .22-1.33 a 2.9,2.9,0,0,0-.95.24 c -.15-.33.11-.69.77-.62 A 1.66,1.66,0,0,1,98.94,105.28Z m -.14-.92 c -.92-.49-2.79-1.06-3.66-1.46,0,0,1.83,1,2.75,1.29 a 1.77,1.77,0,0,1,.73.53 c -.29,0-.72,0-.84.39 a .81.81,0,0,0,0,.32,2.59,2.59,0,0,0-1.64-1.12 c -.75-.25-2.21-.42-3.08-1.58 a 4.17,4.17,0,0,0,2.71,2,2.81,2.81,0,0,1,1,.42,1.55,1.55,0,0,0-.59.06.75.75,0,0,0-.56.75,4.24,4.24,0,0,0-1.65-1,16.2,16.2,0,0,1-3.5-1.71 A 6,6,0,0,0,92.84,105 l 1,.37 a 2.22,2.22,0,0,0-.82.18.67.67,0,0,0-.44.85,3.75,3.75,0,0,0-2.91-1.28,3.6,3.6,0,0,1-2.32-1 c 2.43-1.41,6.26-2.3,11.84-.26 A .58.58,0,0,0,98.8,104.37Z m -4.37,1.31 a 2,2,0,0,1,.64.47,3.56,3.56,0,0,0-2.12.44 c -.19-.12-.33-.58.28-.81 A 2.37,2.37,0,0,1,94.43,105.68Z m 2.6-.26 a 1.65,1.65,0,0,1,.3.46,4.46,4.46,0,0,0-1.42.27 c -.22-.37-.06-.66.34-.75 A 2.26,2.26,0,0,1,97,105.41Z m -6,.62 a 2,2,0,0,1,.82.57,5.79,5.79,0,0,0-3.07.95 c -.75-.66.21-1.28.9-1.44 A 5.65,5.65,0,0,1,91.07,106Z m -3.87-1.77 a 3.12,3.12,0,0,0,2.31,1.44 l .74.11 a 3,3,0,0,0-1.3.3 c -.75.42-1.12,1-.22,1.84 a 5,5,0,0,1,3.41-1,1.92,1.92,0,0,1-.59,2.62 c -1,.71-3.87.79-5.62-.37 a 8.4,8.4,0,0,1-1.86-2 A 10.06,10.06,0,0,1,87.2,104.26Z m 5.9,3.52 a 3.11,3.11,0,0,0-.29-.92 l .05.07 a 3.29,3.29,0,0,1,2.4-.5,2.15,2.15,0,0,1,.21.82 c .11,1.33-1.19,1.75-2.56,1.76 A 2.11,2.11,0,0,0,93.09,107.78Z m 2.79-1.23 a 2.66,2.66,0,0,1,1.55-.35,1.85,1.85,0,0,1-.26,1.33,2.05,2.05,0,0,1-1.49.82 A 1.92,1.92,0,0,0,95.88,106.55Z m 3.31-1.93-.12-.1 c -.05-.15,0-.33.33-.46 a 1.6,1.6,0,0,1,.19.19 A .73.73,0,0,0,99.19,104.62Z M 96,102.42 l .51.2 c -3.45-.87-8.89-1.14-13,3.77-.89-1.36-1.78-3-2.5-4.37 a 8.84,8.84,0,0,1,11.19-2.65 A 7.73,7.73,0,0,0,96,102.42Z M 70.25,75 A 4.75,4.75,0,0,1,75,70.25 h 0 A 4.75,4.75,0,0,1,79.75,75 s 0,.09,0,.23-.1,4,.69,6,1.43,3.45,4.49,6.64 a 34,34,0,0,1,5.94,8.88 c .24.53.51,1.16.86,1.82-2-1-6.84-2.51-11,2.81 l -.41-.84 a 10,10,0,0,0-5.21-4.75,9,9,0,0,1-5-5.08 c -1.46-3.29-1.12-6-.58-9.12.19-1.1.29-2.06.35-2.87 A 25.64,25.64,0,0,0,70.25,75Z M 73.3,112.8 H 72.07 a 32.52,32.52,0,0,0-2.56-10.56 c -1.57-3.31-3-4.92-3.77-6.33 a 8.49,8.49,0,0,0,2.84,1.46 A 37.06,37.06,0,0,1,73.71,99 C 73.28,100.57,72.24,105.35,73.3,112.8Z m 24.89-1.19 a 32.56,32.56,0,0,1-12.12,1.06 c -4.69-4.19-6.31-8.5-7.87-10.94 s -3-3.69-5.69-4.37 S 67.26,96,65.63,93.42 a 7.15,7.15,0,0,1,.31-7.75 A 22.64,22.64,0,0,0,69,81 c -.16.8-.33,1.64-.5,2.43 a 12.08,12.08,0,0,0,.88,7.71,10.29,10.29,0,0,0,5.75,5.46,9.23,9.23,0,0,1,4.83,4.67 c .83,1.63,2.63,5.38,4.17,7.17 a 6.48,6.48,0,0,0,5.33,2.38,4,4,0,0,0,3.06-1.21,3.64,3.64,0,0,0,2.77-.71 l 0,0 a 2.53,2.53,0,0,0,1.76-.42,2.56,2.56,0,0,0,.57-.61,2.43,2.43,0,0,0,1.51-.89 l .1-.19 A 27,27,0,0,1,98.2,111.61Z m 1.34-5.73 a 1.45,1.45,0,0,0-.18-1.08,1,1,0,0,1,.37-.36,1.19,1.19,0,0,1,.1.29 A 1.55,1.55,0,0,1,99.54,105.88Z"/>
  </g>
<script type="text/ecmascript" xlink:href="param.min.js"/> 
</svg>
