<?xml version="1.0"?>
<svg xmlns="http://www.w3.org/2000/svg" xmlns:xlink="http://www.w3.org/1999/xlink" viewBox="0 0 600 600">
  <title>basic-tank-top-hourglass</title>
  <g id="main-colour">
    <path d="M 332.72,248.11 h 0 l 0,0 c -4-5.11-8.7-17.07-10.47-21.82-1.22.22-2.85.68-3.22,1.26 a 64.92,64.92,0,0,1,.91,6.74 c .56,6.29.72,17.71-10.19,18.38-11.12.68-20.67-8.58-29.25-25.33 a 3,3,0,0,0-.26-.41 c -1.1.5-2.46,1.08-3.47,1.43,4.31,13.81-.69,23.06-5.25,28.44 a 17.06,17.06,0,0,1-8,5.39 c .7,7,2.13,14.74,4.32,19.28,0,0,4.06,10.79,8,20.87 a 86.34,86.34,0,0,1,4.92,20.08 c -2.83,6.5-10,13.13-14.31,17.21 a 46.09,46.09,0,0,0-8.75,10.55,41.53,41.53,0,0,1,10.72-1.43 c 8.08,0,19.25,3.33,27.33,4.67 s 21,2.75,27.17-1.17 a 28.16,28.16,0,0,0,7.93-6.93 c -1.86-3-4-5.79-6-8.6-4.17-5.92-5.25-9-4.83-14.25 s 4.92-13.67,8.5-19.67 A 57.44,57.44,0,0,0,333.62,290 l -.39.11,1-6.84 c 12.59-12.87,4.66-26.76,3.16-28.76 C 336.33,253.12,334,249.94,332.72,248.11Z" fill="param(main_colour)"/>
  </g>
  <g id="outline">
    <path d="M 264.86,275.5 c 7,13.63,11.78,24.69,15,35.5,3.17,10.64,3.11,21-5.25,29.13,8.26-12.21,5.13-24.39.48-37.35 C 272.23,294.83,267.53,283.52,264.86,275.5Z"/>
    <path d="M 319.11,323 s -1.08,8.58,4.75,18.38 c -3-7-3.75-15.87-3.5-18.37 C 320.23,321.63,319.11,323,319.11,323Z"/>
    <path d="M 337.7,253.44 c -4.63-5.72-9.9-12.34-11.9-17 a 85,85,0,0,0,8.51,15.42 c 6.27,8.92,7,17.79,3,25.75 a 19.19,19.19,0,0,1-4.08,5.44 c -.15,1.2-.28,2.17-.29,2.25 A 24.08,24.08,0,0,0,342,271.72,21,21,0,0,0,337.7,253.44Z"/>
    <path d="M 287.09,288.2 c 7.12.34,13.78-.82,20.78-6.32 C 304.11,288.81,294.11,291.43,287.09,288.2Z"/>
    <path d="M 257.26,351 s 7.55-3.38,24.22.25 c 16.89,3.67,30.89,6.29,39.75,2.75,8-3.21,10-8.25,10-8.25 l -.87-1 a 20.23,20.23,0,0,1-10,7.88 c -6.87,2.5-14.33,1.67-23.37.25-10.32-1.62-27.37-7.92-38.62-3.37 C 258,350,257.26,351,257.26,351Z"/>
    <path d="M 263,346.88 s 4.83-1.67,15.67.58,25.83,5.83,33.42,5.33 a 27.6,27.6,0,0,0,13.17-4.58 S 318,352,311.63,352.27 c -5.83.21-13.19-1.23-22.77-3.31 S 267.19,344.21,263,346.88Z"/>
    <path d="M 322.17,225.48 a 9.74,9.74,0,0,0-3.45,1.06 l -.9.39 c .21.74.49,1.61.61,2.08,1.34-.57,2.59-1.44,4.2-2Z"/>
    <path d="M 275.33,227.63 a 24.92,24.92,0,0,1,1.53,17.25 c -2.58,9-8.33,15.42-14.42,16.83.06,1,.17,1.83.17,1.83 s 11.58-2.67,16-18.42 c 2-7.13,0-15.5-1.62-17.87 C 276.23,227.38,275.33,227.63,275.33,227.63Z"/>
    <path d="M 280.69,225.88 s 7.81,16,16.81,22.42,27.88,6.21,20.32-21.36 c .9-.39,1.54-.72,1.54-.72 s 4.26,15.54-.49,22 c -6.36,8.71-18.2,4.78-22.87,1 a 59.31,59.31,0,0,1-16.89-22.75 C 279.77,226.3,280.69,225.88,280.69,225.88Z"/>
    <path d="M 329.5,244.38 a 87.56,87.56,0,0,1-4.21-8.17 c -2.06-4.8-4-10.58-4-10.58 l 1.38-.25 s 1.19,3.85,2.38,6.56 a 110,110,0,0,0,8,15.38,21.62,21.62,0,0,0,2.55,3.52 l -2.72-1.13 S 330.87,246.88,329.5,244.38Z"/>
    <path d="M 275.33,227.63 a 31.66,31.66,0,0,0,5.36-1.75 l .48,1.71 a 19.67,19.67,0,0,1-4.88,1.56 A 4.77,4.77,0,0,0,275.33,227.63Z"/>
    <path d="M 278.88,324.34 c -4.42,7.94-17,15.48-23.07,27.2,1.5-.57,2.58-.92,2.58-.92 h 0 a 41.84,41.84,0,0,1,4.89-6.36 c 2.18-2.33,7.39-7.09,11.86-12 l .74-.84 c .82-.93,1.6-1.86,2.33-2.78 l .76-1 a 33,33,0,0,0,1.89-2.78 c 0-1.2-.06-2.77-.2-4.51 A 26.68,26.68,0,0,1,278.88,324.34Z"/>
    <path d="M 272.37,291.08 a 125.18,125.18,0,0,1-5.32-14.91 h 0 a 75.28,75.28,0,0,1-2.46-14.32 c -.62.25-1.34.52-2.07.78.28,2.6.73,5.7,1.44,9.3 A 49.5,49.5,0,0,0,272.37,291.08Z"/>
    <path d="M 335.82,281.71 c 0-.13,0-.28.06-.41 a 30.85,30.85,0,0,1-2.67,2.54 c -.75,5-2.63,13.37-6.27,19.42-4.42,7.33-6.8,13.75-7.72,18.75-.83,4.54.95,9.2,3,12.28 l .69,1 c .71.91,1.49,2,2.31,3.12 l .7,1 c 1.58,2.23,3.27,4.74,4.86,7.25 h 0 s .39-.69.68-1.38 c -.53-.88-1.12-1.81-1.77-2.77-6.17-9.17-9.83-13-8.92-20.08.77-5.92,5.19-13.63,8.09-18.78 h 0 C 332.86,297.27,334,293,335.82,281.71Z"/>
  </g>
<script type="text/ecmascript" xlink:href="param.min.js"/> 
</svg>
