<?xml version="1.0"?>
<svg xmlns="http://www.w3.org/2000/svg" xmlns:xlink="http://www.w3.org/1999/xlink" viewBox="0 0 600 600">
  <title>nurse-curvy</title>
  <g id="main-colour">
    <path d="M 360.23,405.75 c -.37-13.25,1-30.75-3.75-44.12 s -10.75-21.25-15.12-27.87 a 78.18,78.18,0,0,1-7.4-15.27,55.22,55.22,0,0,1,.7-17.34,66.39,66.39,0,0,1,2.73-9.17 c 6.85-1,13.89-5.85,16.76-11.67 a 29.13,29.13,0,0,0,2.25-19.75 c -1.42-6.17-7.17-11.42-10.75-13.33 l -3.93-2.12 a 12.57,12.57,0,0,0,1.1-5.16,12.71,12.71,0,0,0-9-12.16 h 0 c -3.11-1.81-8.23-.54-10.39.12 a 9,9,0,0,0-3.31-4.84,12.73,12.73,0,0,0-6.33-2.58,20.59,20.59,0,0,1,1.2,4.08 c .31,3,1.6,7.67,2.1,11.58.62,4.88,1.25,8,1.33,12.17-6.42-5.29-24.5-8.92-30.75-14.08-2.11-1.74-3.23-2.92-3.84-4.64-1.4-6.07.46-9.27.46-9.27-7.41.24-9.17,5.7-9.57,8.84 a 56.87,56.87,0,0,0-10.14-2.78,13.69,13.69,0,0,0-13.87,6.13 c -4.62,8.75-.12,15.63,3.88,18.5-2.75,22.25,4.62,35.5,7.25,40.25 s 4.63,8.5,5.5,15.13 c 1.38,11.88-6.87,19.38-14.12,29.88 a 61.1,61.1,0,0,0-9.81,22.5 c -.48,1.68-1,3.52-1.4,5.53-4,18,.88,34.25,2.63,42.88 s 2.25,23.75-.37,29.5 c 11,7.63,22.37,11.13,40.87,12 S 326,442.75,333,440.88 s 28.25-5.75,34.38-3.87 C 363.11,428.5,360.61,419,360.23,405.75Z" fill="param(main_colour)"/>
  </g>
  <g id="fixed-colours">
    <path d="M 344.88,258.77 l .53,2.29,3.31-.49.75,5.62 a 4.25,4.25,0,0,0-1.34,3.45,3.09,3.09,0,0,0,3.79,2.4,3.25,3.25,0,0,0,2.87-3.88 c -.29-1.34-2.3-2.34-2.72-2.51-.22-2-.93-6.08-.93-6.08 l 1.35-1.44-.93-2.15Z" fill="#d6d6d6"/>
    <path d="M 284.9,264.56 s 11.7,2.07,22.82-.63 a 33.48,33.48,0,0,1,.12,4.35 s -12.19,2.94-22.37.43 A 27,27,0,0,1,284.9,264.56Z" fill="#fff"/>
    <polygon points="291.18 276.5 294.89 276.23 294.84 273.24 298 273.09 298.5 275.88 301.66 275.73 301.71 278.54 298.37 278.88 298.34 282.05 294.99 282.3 295.03 279.21 291.5 279.38 291.18 276.5" fill="#f0356a"/>
    <path d="M 341.69,259.07 a 20,20,0,0,0,3-.21,23.06,23.06,0,0,0,.67,2.21,25.65,25.65,0,0,0,3.18-.5,6.41,6.41,0,0,1,.29,1.56 s -5.06.9-6.77.21 C 341.86,260.84,341.69,259.07,341.69,259.07Z" fill="#fff"/>
    <path d="M 351.5,255.92 l 1.08,2.25-1.4,1.38.33,1.63 s 2.71-1.31,3.19-2.85 a 16.12,16.12,0,0,0-2.15-3.4Z" fill="#fff"/>
    <path d="M 275.65,226.46 s .25,6,3.17,9.83,8.25,5.75,13.75,6 a 28,28,0,0,0,.33,2.92 s -9.75-.58-13.58-4.42 S 273.73,230.21,275.65,226.46Z" fill="#fff"/>
    <path d="M 319.32,249.8 s -17.08-1.67-26-1.33 c -.08-1.75-.17-2.58-.17-2.58 A 94.37,94.37,0,0,1,315.9,247,22.93,22.93,0,0,1,319.32,249.8Z" fill="#fff"/>
    <path d="M 324.15,241.3 s -3.25,6.25-3.42,8.75 c -1.08-1-1.92-1.83-1.92-1.83 s 2.42-7.42,4.58-9.67 C 323.73,239.71,324.15,241.3,324.15,241.3Z" fill="#fff"/>
    <path d="M 320.9,234.38 s 1.83-6.08-.79-11.33 c 2,2,4,4.83,3.79,8.17 a 16.71,16.71,0,0,1-1.25,5.67Z" fill="#fff"/>
  </g>
  <g id="outline">
    <path d="M 361.39,392.88 c 0-15.5-1.5-34.17-13-50.83 s -14.62-22.29-13.87-32.79 a 67.72,67.72,0,0,1,3.77-16.55,20.52,20.52,0,0,0,4.21-1.16,26.61,26.61,0,0,0,13.25-11.83,25.85,25.85,0,0,0,1.08-21.42,22.14,22.14,0,0,0-10-11.33 c -2.67-1.42-5.75-3-9.08-4.92 s -8.58-5.5-8.58-5.5 c 2.42,2.58,10.67,8.08,14.25,10.33 a 32.1,32.1,0,0,1,8.19,7 c -4.12,4.83-11.29,4.11-11.29,4.11 a 80.67,80.67,0,0,1,1.17,15.84 c 2.26,1.4,10.6,5.6,10.6,5.6 l 1.88-1.74 a 23.66,23.66,0,0,1-11.79,11.82,31,31,0,0,1-9.92,2.67,10.54,10.54,0,0,0,4,.68,66.17,66.17,0,0,0-3.56,18.61 c -.25,11.75,8,22.38,12,28.75 s 11.5,17,13.13,33.75 A 303.58,303.58,0,0,1,359,409.13 c 0,7.88,2,19.38,6.13,26.25-7.75-1.12-19.12,1.38-26.5,3.25-4.08,1-10.89,2.92-18.66,4.71.36-5.54,1.67-26.59,1.24-37-.5-12-2.17-28.17-4-42.67 s -2.83-31-1-43.83 a 136.41,136.41,0,0,1,9.1-34.58 c 4.75-12.25,4.83-21.17,1.33-27.83 a 32.06,32.06,0,0,0-5.64-8.08,76.51,76.51,0,0,1,4.06-8.09,15.24,15.24,0,0,0-1.75-4.25,11.93,11.93,0,0,0,1.32-6.5,11.6,11.6,0,0,0-.34-2.09 c 3-1.33,7.55-1.38,9.59-.58-1.33-1-4.08-1.71-6.58-1.58 a 11.82,11.82,0,0,0-3.5.66,11.48,11.48,0,0,0-10.92-7.41,108.71,108.71,0,0,1,3.51,15.58 c .6,4.06,1.25,9.64,1.49,11.69 a 27.59,27.59,0,0,0-3.57-2 c -5-2.38-24-7.92-28.17-13.42-3.9-5.14-1.18-11.92-1.18-11.92 s -5.92-1.08-9.5,5.08 a 12.3,12.3,0,0,0-1.39,3.53,39.9,39.9,0,0,0-7.19-2.33 c -5.06-1.19-10.56-.56-14.94,3.81 a 14.32,14.32,0,0,0-4.06,12.81,14.61,14.61,0,0,0,5.69,9.31 c -.75,5.44.06,14,.5,18.56 a 62.42,62.42,0,0,0,5.63,19.13 c 1.29,2.55,3.24,5.7,5.24,9.71,1.15,3.71,2.43,9.38,1.44,14.17-1.62,7.88-8.17,13.71-12,19.21 a 81.72,81.72,0,0,0-12.83,29.08 c -3.5,14.67-1.33,30.17.67,39.83 s 5.33,24.83.5,35.5 c 15.17,13,45.17,14,61.17,11.83 s 46.67-13.83,64.5-10.33 C 361.22,424.38,361.39,408.38,361.39,392.88Z m -7.65-135.58 c .19.38.36.78.53,1.2 a 8.27,8.27,0,0,1-2.59,2.09 c -.05-.4-.09-.76-.13-1.06 a 5.31,5.31,0,0,0,1.32-1.32 c -.38-.9-.76-1.72-.94-2.1 a 8.36,8.36,0,0,0,.7-.73 A 18.1,18.1,0,0,1,353.73,257.29Z m -2.83,9 c 2-.29,3.19.62,3.42,2.26 a 3,3,0,0,1-2.6,3.15,2.81,2.81,0,0,1-3.37-2.21 A 2.92,2.92,0,0,1,350.9,266.33Z m -.21-1.18 a 4.77,4.77,0,0,0-1,.33 c -.11-1.15-.36-3.79-.58-4.78 a 9.11,9.11,0,0,0,1.79-.73,39.24,39.24,0,0,1,.85,5.11 A 4.24,4.24,0,0,0,350.69,265.15Z m .77-8.63.72,1.47 s -1,2.34-6.56,2.62 c -.18-.52-.33-1.13-.42-1.48 A 12.93,12.93,0,0,0,351.46,256.52Z m -6.94,2.7.54,2 a 14.45,14.45,0,0,0,3.36-.37 c 0,.17.07.47.13.85 a 19.24,19.24,0,0,1-6,.24 c -.11-.87-.25-1.75-.41-2.62 A 20.2,20.2,0,0,0,344.52,259.22Z m 7.68,18.84 c -2.22-.62-9.17-4.94-9.17-4.94 a 76.13,76.13,0,0,0-.42-10.25,26.84,26.84,0,0,0,6-.34 c .14,1,.29,2.27.37,3.3 a 3.81,3.81,0,0,0,2.52,7.08,4.28,4.28,0,0,0,4-4.5,4.1,4.1,0,0,0-3.21-3.24 c -.09-.63-.31-2.16-.49-3.57 a 6.86,6.86,0,0,0,2.81-2.2,24.71,24.71,0,0,1,.39,15.55 C 353.91,276.17,352.4,277.9,352.2,278.05Z m -32.08-29.51-.72-.61,0-.31 a 42.78,42.78,0,0,1,3.63-8,9.08,9.08,0,0,1,.53,1.51 A 58.2,58.2,0,0,0,320.12,248.54Z m 2.45-9.83 a 34.3,34.3,0,0,0-3.41,7.27 c -.66-5.33-1.38-10-2.1-14 A 22.4,22.4,0,0,1,322.57,238.71Z m -.22-3.14 c -.31-.43-.63-.84-1-1.23.44-1.91,1.19-6.31-.32-9.36 a 9.08,9.08,0,0,1,2.31,5.89 A 10.78,10.78,0,0,1,322.35,235.57Z m -2.81-12 c 1,1.49,2.54,4.84,1.13,10 a 24.86,24.86,0,0,0-3.95-3.4 c -.64-3.37-1.26-6.26-1.83-8.67 A 10,10,0,0,1,319.53,223.54Z m -1.91,25.36 A 182.9,182.9,0,0,0,294,247.79 c -.05-.51-.11-1-.16-1.61 a 102.22,102.22,0,0,1,21.58,1.23Q316.58,248.14,317.63,248.9Z m -4.57-2.8 c -3-.57-9.1-1.27-19.33-.82-.29-2.91-.58-6.07-.7-7.29,3.6,1.7,8.13,3.35,14.37,5.64 A 48.42,48.42,0,0,1,313.06,246.1Z m -37.52-17.29 c .44,2.95,1.62,7.44,5.78,10.48,3.79,2.78,8.79,3.35,10.54,3.47 l .2,1.44 c -1.66,0-8-.37-11.75-3.75 S 275,232.89,275.54,228.81Z m 7.1-7.77 c -1.24,5.5-.27,9.76,4.14,13.21 a 29.47,29.47,0,0,0,4.29,2.75 l .66,4.86 c -3.49-.14-9-1.43-12.25-5.57-2.67-3.37-3.25-7.81-3.38-9.72 C 277.52,222.94,281.13,221,282.64,221Z m 17.63,226 c -14.75,1.88-41.75-.37-54.87-10.75,3.5-11.87,1-27-.87-35.12 s -4.75-21-1-38.62,10.75-26.25,15.13-32.25 c 4-5.51,11.19-12.4,9.82-23 a 69.91,69.91,0,0,1,3.56,15 c -.06-7.62-3.31-19.12-6.44-25.62 s -8.19-13.94-9.69-27.25-.19-18.75-.19-18.75-4.5-2.62-5.62-7.44 a 12.78,12.78,0,0,1,5.75-14.19 c 5.51-3.66,13.26-1,18,.72 a 14.67,14.67,0,0,0,5,11.59 c 4.09,3.69,9.73,4.05,13.36,4.29 l .47,3.46 s 17.36-.08,26.94,1.4 C 327,257,327.92,265,327.15,272 c -1.24,11.19-8.64,25.29-9.89,34.54 s -4.5,15.75-3,39.63,6.46,50.92,5.29,73.58 c -.79,15.29-1.12,21.55-1.25,24 C 312.5,445,306.26,446.24,300.26,447Z"/>
    <path d="M 276.9,288 c 7.5,11.17,19.17,12,29,8.33 C 287.23,299,276.9,288,276.9,288Z"/>
    <path d="M 283.89,263.6 s .35,12.37,1.56,18.45 a 44.16,44.16,0,0,0,11.5,6.7 s 9.32-5.57,11.52-7.81 c .22-8.49.15-18.12.15-18.12 S 295.45,265.94,283.89,263.6Z m 23.26,1.22 c 0,.87,0,1.82-.07,2.82-8.74,2.49-18.41,1.25-21.28.78-.06-1.13-.1-2.09-.11-2.74 C 285.7,265.68,299.78,267.34,307.15,264.82Z m -10.15,22 a 65.1,65.1,0,0,1-10.25-5.91 s -.59-6.62-.89-11.37 c 8.65,1.72,18.65.09,21.19-.38 C 307,274.37,307,280,307,280 S 299.38,285.49,297,286.82Z"/>
    <path d="M 298.76,275.32 l -.22-2.91-4.51.13.19,3-3.58.2.29,4,3.58-.2.15,3.09,4.17-.18,0-3,3.42-.18-.18-4.21Z m -.86,3,0,3.18-2.36.08-.14-3-3.51.07-.14-1.79,3.51-.24-.19-2.91,2.46-.13.3,2.94,3.13-.11.12,1.62Z"/>
  </g>
<script type="text/ecmascript" xlink:href="param.min.js"/> 
</svg>
