<?xml version="1.0"?>
<svg xmlns="http://www.w3.org/2000/svg" xmlns:xlink="http://www.w3.org/1999/xlink" viewBox="0 0 215 215">
  <title>midi-crew-neck-baggy-t-shirt-curvy</title>
  <g id="skin-tone">
    <path d="M 91.43,134 c -.09,2.88-.1,5.85,0,8.77.51,11.11,2,22.1,4.68,29.6 S 101.89,187,104.3,190 s 7.28,3.65,10,1.78,4.33-5,4.33-9,1.18-27.93,1.54-34.62 c .15-2.86.47-7.57.77-12.31 C 108.73,132.09,96.21,133.34,91.43,134Z" fill="param(skin_tone)"/>
  </g>
  <g id="main-colour">
    <path d="M 126.78,138.64 c -.88-3.85-5.5-25.77-5.5-25.77 h 0 a 21.28,21.28,0,0,0-1.07-5.49 h 0 a 12.71,12.71,0,0,0-25.42,0,35.31,35.31,0,0,0-1.82,6.8 c -1,3.29-6.44,19.58-8.06,21.67,0,0,1.94,2,6.25,2.42 a 36.93,36.93,0,0,1,.2-3.71,64.05,64.05,0,0,1,14-1.2 c .58,0,3,.08,3.55.13 a 60.5,60.5,0,0,1,7.47,1.31 c 1,.27,3,1,4.76,1.69 l -.2,4.1 S 124.78,140.07,126.78,138.64Z" fill="param(main_colour)"/>
  </g>
  <g id="outline">
    <path d="M 127.41,139.34 C 126.07,135,124,123.06,124,123.06 c -.52-2.61-1.19-5.48-1.49-7.33,0-.54-.1-1.06-.16-1.56,0,0,0,0,0,0 h 0 c -.39-3.18-1-5.6-2.11-6.78,0,0,.28,2.7.45,6.78 h 0 s .9,4.46,1.61,8.34 c .38,2.11,2.13,11.19,3.05,14.36-8-4.25-28-6.42-39.58-1.83,2.25-5.42,3.81-9.24,5.61-14 a 82,82,0,0,0,3-10.7 c .23-1.9.39-3,.39-3-1,.14-1.92,2.44-2.71,6.23-.48,1.68-1.23,4.22-2.67,8.15 S 83.32,137,83.32,137 a 19.06,19.06,0,0,0,6.85,2.33 c .06,4.39.28,9,.72,13.59,2.18,22.83,11.41,35.86,11.41,35.87 a 9.06,9.06,0,0,0,17.15-4.07 s 1.21-17.15,1.33-25.65 c 0-3.1.69-10,1.23-17.83 A 19.15,19.15,0,0,0,127.41,139.34Z m -1.85-.81 a 8.37,8.37,0,0,1-3.45,1.17q.08-1.21.16-2.43 C 123.36,137.65,124.46,138.06,125.56,138.53Z m -35.39-3.28 c 0,.79,0,1.59,0,2.39 a 12.73,12.73,0,0,1-4.11-1.46 C 87.14,135.9,88.53,135.57,90.17,135.25Z M 118.72,154 c -.12,7-.47,19.15-.87,26-.08,1.27-.23,3.07-.33,4.16,0,.22-.06.41-.08.56 l 0,0,0,.36 h 0 a 7.05,7.05,0,0,1-13.35,2.79 h 0 c -.12-.18-.37-.58-.72-1.17-.72-1.25-1.48-2.76-1.77-3.33 a 89,89,0,0,1-6.77-21.14,130.27,130.27,0,0,1-2.23-27.42,63.06,63.06,0,0,1,27.08,1.6 C 119.23,143.12,118.8,149.85,118.72,154Z"/>
  </g>
<script type="text/ecmascript" xlink:href="param.min.js"/> 
</svg>
