<?xml version="1.0"?>
<svg xmlns="http://www.w3.org/2000/svg" xmlns:xlink="http://www.w3.org/1999/xlink" viewBox="0 0 600 600">
  <title>police-shirt-curvy</title>
  <g id="main-colour">
    <path d="M 357.15,264 c -1-8.25-7.33-14.5-11.58-16.83 L 341.74,245 a 12.58,12.58,0,0,0,1.09-5.12,12.71,12.71,0,0,0-9-12.16 h 0 c -2.92-1.7-7.61-.68-10,0-2.86-5.39-9.3-6.38-9.3-6.38 a 17.42,17.42,0,0,0,2.44,4.31,4.79,4.79,0,0,1,3.62,3.52,49.42,49.42,0,0,1-.09,6.67,21,21,0,0,1-3.61,9.75 c -25.08,1.17-31.26-8.87-34-14.5-.32-.66-1-2.58-1.19-3.26 a 14.82,14.82,0,0,1-.28-3.3,15.64,15.64,0,0,0,3.44-5.19,7.5,7.5,0,0,0-6.69,3.13,24.94,24.94,0,0,0-2.92,6.84,55.78,55.78,0,0,0-10.69-3,13.69,13.69,0,0,0-13.87,6.13 c -4.62,8.75-.12,15.63,3.88,18.5-2.75,22.25,4.62,35.5,7.25,40.25 s 4.63,8.5,5.5,15.13 c 1.1,9.5-4,16.2-9.73,23.87 a 87.52,87.52,0,0,0,22,9.41 c 14,3.55,40.07,8.66,58.08-9.32 a 47.12,47.12,0,0,1-2.54-6.34 c -2.5-7.75-1.58-17.67-.5-22.83 a 74.55,74.55,0,0,1,2.65-8.89 c 3-.51,6.92-2.07,11.69-5.87 C 355.15,281.46,358.15,272.21,357.15,264Z" fill="param(main_colour)"/>
  </g>
  <g id="accent-colour-1">
    <path d="M 257.58,330.22 A 88.6,88.6,0,0,0,307.15,343 c 15.25-.87,24.88-5.62,31-13.87,3.38,5.75,11.38,19.88,15.25,32 a 276.53,276.53,0,0,1,8.75,39.63 c 1.38,10,3,23.13,5.25,26.5-6.87,9-14.37,17.13-32.5,20.13 s -29,1.88-45-1.62 S 251.15,434,238.9,438 c 4.75-15.37,4.5-24.62,3.5-35.12 s -2.25-22.37.13-37.37 A 77.94,77.94,0,0,1,257.58,330.22Z" fill="param(accent_colour_1)"/>
  </g>
  <g id="fixed-colours">
    <circle cx="316.57" cy="347.13" r="2.34" fill="#ffcc50"/>
    <path d="M 317.53,246.5 s 15.13,8.75,18.88,24.63 c -3.25,8.75-7.37,14.38-15.12,21.38-5.62-12.75-8.12-19.25-8.12-19.25 S 317.53,258.75,317.53,246.5Z" fill="#fff"/>
  </g>
  <g id="outline">
    <path d="M 326.91,259.35 s -.89-2.08-2.14-4.52 a 17.67,17.67,0,0,0-4.14.89q.76,2.16,1.38,4.34 C 324,259.67,326.91,259.35,326.91,259.35Z"/>
    <path d="M 323.27,264.07 a 28.87,28.87,0,0,0-1.27-4 s -2.6.53-4.09.91 a 33.36,33.36,0,0,1,1.08,4.26 S 321.77,263.95,323.27,264.07Z"/>
    <path d="M 324.34,268.24 a 34,34,0,0,1,5-.46,19.13,19.13,0,0,0-.92-4.52 s -3.51.46-5,.84 A 39.22,39.22,0,0,1,324.34,268.24Z"/>
    <path d="M 324.75,273 a 31,31,0,0,0-.41-4.77 c -1.65.37-4.49,1.4-4.49,1.4 a 24.91,24.91,0,0,1,.64,5.06 C 320.84,274.08,324.75,273,324.75,273Z"/>
    <path d="M 329.39,267.78 a 33.37,33.37,0,0,1,.16,4.56,10.84,10.84,0,0,1,3.93.15,35.45,35.45,0,0,0,0-4.6 C 332.15,267.76,329.39,267.78,329.39,267.78Z"/>
    <path d="M 324.75,273q.07,2.7-.08,5.39 a 28.86,28.86,0,0,1,4.25-.53,45.77,45.77,0,0,0,.62-5.54 A 25.71,25.71,0,0,0,324.75,273Z"/>
    <path d="M 324.67,278.4 a 23.23,23.23,0,0,0-4.16,1.18 s -.2,2.23-.59,4.82 a 15.7,15.7,0,0,1,3.89-.82 A 37.86,37.86,0,0,0,324.67,278.4Z"/>
    <path d="M 276.72,286.9 c 7.81,14.67,21.75,12,28.82,8.5 C 286.42,300.61,276.72,286.9,276.72,286.9Z"/>
    <path d="M 294.46,289 c 4-.77,10.66-5.43,10.66-5.43 s .89-12.1,1-15.73 c -10,1.39-20.75-1.53-20.75-1.53,0,5.06,0,16.16,0,16.16 A 34.4,34.4,0,0,0,294.46,289Z m .21-1.58 a 43.57,43.57,0,0,1-7.85-5.46 l .18-9.69 a 78.39,78.39,0,0,0,8.29,5.08,52.56,52.56,0,0,0,9-3.93 c -.27,4.33-.67,9.07-.67,9.07 S 298.06,286.6,294.66,287.42Z m 9.8-17.75 c 0,.75-.07,1.58-.12,2.46 a 63.15,63.15,0,0,1-8.88,3.89,79.93,79.93,0,0,1-8.45-5.2 l 0-2.44 A 48.92,48.92,0,0,0,304.46,269.67Z"/>
    <circle cx="316.28" cy="296.75" r="1.13"/>
    <circle cx="314.03" cy="304.25" r="1.13"/>
    <circle cx="312.15" cy="312.38" r="1.13"/>
    <circle cx="311.15" cy="320.88" r="1.13"/>
    <circle cx="310.9" cy="329.88" r="1.13"/>
    <circle cx="312.01" cy="337.75" r="1.13"/>
    <path d="M 363.89,404.5 c -1.87-14.87-5-31.25-9.25-43.12 s -11-25.87-15.08-31.75 a 29.36,29.36,0,0,1-4.67-12.08 c -1-6.28-.23-15.92,3-24.77 A 24,24,0,0,0,353.78,283 c 5.63-8.25,6-18.25,2.88-25.37 s -9.12-10.37-13-12.37-14.37-8.5-14.37-8.5 a 62.77,62.77,0,0,0,9.25,7.38 c 2.63,1.5,6.75,3.5,10.63,7.25 a 23.87,23.87,0,0,1,4.46,6.07 c -1.17,1.52-4.4,4.92-11.22,7.33.46,5.29,1,14,1,14 l 8.47,2.48 a 24.15,24.15,0,0,1-5,5.57,36.65,36.65,0,0,1-13.12,5.63,6.39,6.39,0,0,0,2.47.38 c -.82,2.47-1.76,5.53-2.36,8.24-1.25,5.67-2.75,18.75,3.25,28.17-5.93,7.57-14.71,10.61-20.6,11.92-.7-2.07-2.18-7.82-1.4-18.09.95-12.52,6.44-28.46,7-30.17,3.67-3.38,12.19-12.11,14.83-21.71-1.21-7.17-5.82-13.43-10.37-18.05,2.7-8.69,1.77-18.35-.67-23.23-.3-.59-.61-1.14-.94-1.67 a 15.89,15.89,0,0,1,8.73-.54 c -3.73-2.3-8.19-1.31-9.69-.88-3.13-4.21-7.3-6.21-10.86-6.42 a 12.88,12.88,0,0,0,3.29,6.1 c 3.08-.17,4.56,3.31,3,11.23 a 18.48,18.48,0,0,1-3.1,7 h 0 s -14.32,1.33-23.32-3.75 c -6.65-3.75-10.58-9.17-10.93-15.42,2.13-1.87,3.75-6.75,3.75-6.75-2.75-.37-5.37.25-6.75,1.5 s -2.18,2.74-4.33,8 c -1-.4-3.17-1.25-5.24-1.89-2.81-.87-7.56-2.31-13.37,0 s -8.44,9.25-8.56,12.56.56,8.13,5.94,12.69 c -.75,5.69,0,14.94.94,21.25 a 55.08,55.08,0,0,0,7.69,20.69 l .05.08 c 1.22,2.62,2.59,5.6,3.14,7 a 22.64,22.64,0,0,1,.08,15.5 C 263.05,323,258,327,256.3,330.13 A 73.94,73.94,0,0,0,247.72,344 c -3.5,7.58-5.92,15.17-7.17,28.42 s 1.46,32.38,1,42.88 S 239,437,236.39,439.38 c 13.13-3.37,26.5.5,44.13,5.38 s 40.75,8.13,61.13,2.25,26.63-19.62,26.63-19.62 S 365.76,419.38,363.89,404.5Z m -9.65-145.76 a 23.53,23.53,0,0,1,1,2.55,18.91,18.91,0,0,1-3.05,5.49,40.78,40.78,0,0,1-8,.64 l -.15-1.64 S 351,263.48,354.23,258.74Z m -9.16,18.8-.8-9 a 70.78,70.78,0,0,0,8.24-.54 c .79-.61,2.22-3.42,3.09-5.24 a 20.86,20.86,0,0,1,.43,7.78,25.68,25.68,0,0,1-3.27,9.36Z m -23.16,14.14 s -.06-.14-.19-.41 c .32-1.06.62-2.12.88-3.2 h -2.4 l -.64-1.39 c .2-1,.39-2.29.37-2.29 l -1.25.31 c -.54-1.23-1.1-2.56-1.66-4,1.27-.51,3.51-1.18,3.51-1.18 a 41,41,0,0,0,0-4.89 c -1.21.33-4.16,1.5-5.08,1.86 l -.23-.66 c .12-1.44.2-2.89.22-4.34 l -.59.21q.29-1.29.56-2.58 c 0,.65,0,1.43,0,2.36 a 16,16,0,0,1,4.45-1.92 c .38,0-.31-2.2-.66-4.39 a 12.91,12.91,0,0,0-3.36,1.54 c .34-1.86.64-3.69.9-5.44 l 1.19-.38 c -.24-.87-.51-1.74-.78-2.61.08-.62.15-1.23.22-1.81 a 17,17,0,0,1,3.27-.83q-.82-2.13-1.79-4.24 l -1,.14 c .07-.84.12-1.57.16-2.17q.43,1,.82,2 l 3.44-.72.25.22q1.18,1.91,2.24,3.85 l 1.49-.23 a 44.27,44.27,0,0,1,3.72,4.62,9,9,0,0,0-3.06.13,41.43,41.43,0,0,1,1.56,3.9 l 3.94-.09q.46.85.88,1.74 c .1,1,.18,2,.23,3 l 1.11.16q.51,1.37.92,2.83 c -.19.67-.4,1.33-.63,2 l -1.43-.36q-.23,2.53-.65,5.05 l 0,0 a 30.46,30.46,0,0,0-3.88.31q-.33,2.74-.89,5.44 l 1.26-.13 c -.64.9-1.29,1.74-1.91,2.52.23-.8.45-1.59.65-2.39 l -4.22.28q-.53,2.26-1.23,4.49 l 2.91-.11 A 48.63,48.63,0,0,1,321.91,291.68Z m -.27-61 c -.35-4.67-3.69-5.5-3.69-5.5 a 12.5,12.5,0,0,1-2-2.65,14.22,14.22,0,0,1,5.67,3.42 c 2.25,2.42,5.26,5.75,5.35,16.08 a 38.25,38.25,0,0,1-1.54,10,65,65,0,0,0-7.39-6.09 C 318.81,244.52,322.17,237.82,321.64,230.69Z m -42.44-8 a 5.05,5.05,0,0,1,4.06-2.56 l -1.37,2.63 s -2.12-.62-1.5,2.88 a 21.33,21.33,0,0,0,8.85,14.67 c 9.62,7.31,24,6.68,27,6.46-.13,1.93-.34,5.22-.82,9.62-24.1-2.61-35.64-16.23-38.61-27.13 A 23,23,0,0,1,279.2,222.69Z M 268,314.21 a 28.62,28.62,0,0,0-.88-13.44 c 3.66,5.38,7.37,12,8,22 a 38.26,38.26,0,0,0-6.37-23.25 c -3.19-5-9-11.5-11.56-22.56 a 86.2,86.2,0,0,1-1.5-26.31 c -2.87-1.12-6-6.06-6.06-10.62 a 12.89,12.89,0,0,1,7.5-11.69 c 4.88-2.25,10.88-.31,12.38.13,1.17.34,4.14,1.26,5.38,1.64,9.75,25.1,35.63,27.75,40.28,28-.51,4.3-1.26,9.51-2.41,15.42,1.76,5.54,6,16,7.34,19.66-.86,2.55-5.8,17.68-6.59,30.45-.68,10.9.91,16.1,1.64,17.88-6.23,1.17-31.65,2.95-56.27-11.71 C 263.8,323,267,319.38,268,314.21Z m -10.17,17 c 9.6,6.69,32.12,15.62,58.09,12,10.86-1.62,19.11-8.89,22.26-12.08.62,1.11,1.82,3.28,3.28,6 a 50.11,50.11,0,0,1-8.79,7.83 c -12.5,7.38-28.87,9.88-48.37,5.63-17.09-3.73-28.33-10.62-30.84-12.27 A 73.83,73.83,0,0,1,257.8,331.23Z M 331.51,447 c -16.5,2.88-38.5-1.5-46-3.5 s -33-10.37-44.25-7.37 c 3.75-9.25,2.63-28.62,2.13-35.75 s -2.87-24.25,1.75-41.37 a 95.81,95.81,0,0,1,7.42-19 c 17.33,11.86,47.14,17.09,65,13.13,15.36-3.41,22.89-11.92,24.77-14.34,3.12,6,7,14,9.11,20.22,3.75,11.25,6.13,19,8.38,33 s 4.5,31.88,5.88,34.75 C 358.89,437.75,348,444.13,331.51,447Z"/>
    <path d="M 294.39,428.63 c 14.5-5.75,33.75-32.5,35.75-50.25 C 322.64,404.88,294.39,428.63,294.39,428.63Z"/>
    <path d="M 315.39,423.38 c 6.75-1.25,16-10.75,18.25-18.5 C 328.64,413.88,315.39,423.38,315.39,423.38Z"/>
    <path d="M 316.56,350.09 a 3,3,0,1,0-3-3 A 3,3,0,0,0,316.56,350.09Z m 0-4.69 a 1.73,1.73,0,1,1-1.73,1.73 A 1.73,1.73,0,0,1,316.56,345.4Z"/>
  </g>
<script type="text/ecmascript" xlink:href="param.min.js"/> 
</svg>
