<?xml version="1.0"?>
<svg xmlns="http://www.w3.org/2000/svg" xmlns:xlink="http://www.w3.org/1999/xlink" viewBox="0 0 600 600">
  <title>police-shirt-curvy</title>
  <g id="main-colour">
    <path d="M 339.73,285.47 a 60.48,60.48,0,0,0,3.75-23.25 c -.33-9.33-3.26-14.6-3.26-14.6 h 0 a 12.69,12.69,0,0,0-6.41-19.85 h 0 c -2.92-1.7-7.61-.68-10,0-2.86-5.39-9.3-6.38-9.3-6.38 a 17.42,17.42,0,0,0,2.44,4.31,4.79,4.79,0,0,1,3.62,3.52 A 13.56,13.56,0,0,1,320,234 c -1.62,4.88-4.37,9.13-12,12 a 29.07,29.07,0,0,1-25.5-16.12,14.25,14.25,0,0,1-.78-2,14.82,14.82,0,0,1-.28-3.3,15.64,15.64,0,0,0,3.44-5.19,7.5,7.5,0,0,0-6.69,3.13,24.94,24.94,0,0,0-2.92,6.84,55.78,55.78,0,0,0-10.69-3,13.69,13.69,0,0,0-13.87,6.13 c -4.62,8.75-.12,15.63,3.88,18.5-2.75,22.25,4.63,35.5,7.25,40.25 s 4.63,8.5,5.5,15.13 c 1.1,9.5-4,16.2-9.73,23.87 a 87.52,87.52,0,0,0,22,9.41 c 14,3.55,40.07,8.66,58.08-9.32 a 47.12,47.12,0,0,1-2.54-6.34 c -2.5-7.75-1.58-17.67-.5-22.83 S 337.4,292.06,339.73,285.47Z" fill="param(main_colour)"/>
  </g>
  <g id="accent-colour-1">
    <path d="M 257.58,330.22 A 88.6,88.6,0,0,0,307.15,343 c 15.25-.87,24.88-5.62,31-13.87,3.38,5.75,11.38,19.88,15.25,32 a 276.53,276.53,0,0,1,8.75,39.63 c 1.38,10,3,23.13,5.25,26.5-6.87,9-14.37,17.13-32.5,20.13 s -29,1.88-45-1.62 S 251.15,434,238.9,438 c 4.75-15.37,4.5-24.62,3.5-35.12 s -2.25-22.37.13-37.37 A 77.94,77.94,0,0,1,257.58,330.22Z" fill="param(accent_colour_1)"/>
  </g>
  <g id="fixed-colours">
    <circle cx="310.07" cy="348.01" r="2.34" fill="#ffcc50"/>
    <path d="M 310.61,293.25 s -9.12-11.25-11.5-19.75 c 2-13.87,8.75-26.75,8.75-26.75 s 11.13,10.63,14,25.25 C 319.48,279.75,314.48,288.88,310.61,293.25Z" fill="#fff"/>
  </g>
  <g id="outline">
    <path d="M 313.61,260.1 s -.52-2.07-1.13-4.53 a 20.37,20.37,0,0,0-4.36.77 l .46,4.33 C 310.62,260.33,313.61,260.1,313.61,260.1Z"/>
    <path d="M 309.26,264.64 c -.34-2.55-.68-4-.68-4 s -2.69.45-4.24.78 c .4,2.56.53,4.21.53,4.21 S 307.77,264.48,309.26,264.64Z"/>
    <path d="M 310,268.75 a 34.84,34.84,0,0,1,5.07-.31,24.69,24.69,0,0,0-.5-4.46 s -3.56.35-5.11.68 C 309.75,266.46,310,268.75,310,268.75Z"/>
    <path d="M 310.34,273.44 s 0-1.89-.35-4.69 c -1.67.32-4.54,1.25-4.54,1.25 a 38.27,38.27,0,0,1,.7,5 C 306.46,274.39,310.34,273.44,310.34,273.44Z"/>
    <path d="M 315.12,272.91 a 11.13,11.13,0,0,1,3.93.25 s .16-2.5.13-4.51 c -1.37-.15-4.13-.21-4.13-.21 S 315.18,270.72,315.12,272.91Z"/>
    <path d="M 310.34,273.44 l .28,5.31 a 27.74,27.74,0,0,1,4.2-.41 c .23-3.12.3-5.44.3-5.44 A 25.64,25.64,0,0,0,310.34,273.44Z"/>
    <path d="M 310.62,278.76 a 20.58,20.58,0,0,0-4,1.06 s .07,2.21.21,4.8 a 13.72,13.72,0,0,1,3.73-.71 S 310.66,281.78,310.62,278.76Z"/>
    <path d="M 276.36,262.57 c .1,4.76.38,15.2.38,15.2 a 32.37,32.37,0,0,0,8.72,5.93 c 3.76-.82,9.91-5.36,9.91-5.36 s .56-11.4.56-14.82 C 286.5,265.07,276.36,262.57,276.36,262.57Z m 9.25,19.64 a 41,41,0,0,1-7.52-5 l -.06-9.12 a 73.76,73.76,0,0,0,7.92,4.59,49.48,49.48,0,0,0,8.36-3.91 c -.15,4.08-.42,8.55-.42,8.55 S 288.79,281.37,285.61,282.22Z m 8.75-14.61 a 59.42,59.42,0,0,1-8.26,3.87,75.21,75.21,0,0,1-8.07-4.69v-2.3 a 46,46,0,0,0,16.4.8 C 294.41,266,294.39,266.79,294.36,267.61Z"/>
    <path d="M 325,260.94 c .58,6.22.31,15,.31,15 l 9.81,4.26 a 23.41,23.41,0,0,0,4.82-8,102.87,102.87,0,0,0-.75-14.08 l 0,0,0-.07 c -.08-.64-.13-1-.13-1 A 33.23,33.23,0,0,1,325,260.94Z m 10.05,17.67 L 327,275.1 l -.32-8.17 c 1.64,0,4.74.07,7.11,0,1-.59,3.91-2.7,4.9-3.41.22,2.73.42,5.91.42,8.38 A 22,22,0,0,1,335.06,278.61Z m 3.54-16.08 a 37.07,37.07,0,0,1-5.06,3.34,44.37,44.37,0,0,1-6.91.08 l -.14-3.6 s 7.58-.75,11.76-3.57 C 338.34,259.66,338.47,261,338.6,262.53Z"/>
    <circle cx="307.4" cy="298" r="1.13"/>
    <circle cx="306.7" cy="306.29" r="1.13"/>
    <circle cx="306.17" cy="314.13" r="1.13"/>
    <circle cx="305.99" cy="322" r="1.13"/>
    <circle cx="305.84" cy="330.63" r="1.13"/>
    <circle cx="305.85" cy="338.88" r="1.13"/>
    <path d="M 363.89,404.5 c -1.87-14.87-5-31.25-9.25-43.12 s -11-25.87-15.08-31.75 a 30.5,30.5,0,0,1-4.67-12.08 c -2.6-15,6.74-32.25,8.24-40.58,1.11-7.21,3.11-17.46-2.89-29.46,2.38,7.13,3.43,19.92.25,32.63,0,0-5.35,15.33-6.6,21 s -2.75,18.75,3.25,28.17 c -6.33,8.08-15.92,11-21.75,12.17 a 43.31,43.31,0,0,1-5.19.62,188.4,188.4,0,0,1-.46-21.08 c .33-11.85,1.41-24.44,1.68-27.53,2.45-3.38,8.34-12.11,11.16-21.42 a 45.42,45.42,0,0,0-6.34-15.86 c 11.2-7,11.28-21.36,9.29-26.56-.17-.46-.37-.89-.57-1.31 a 15.81,15.81,0,0,1,8.8-.57 c -3.68-2.27-8.06-1.34-9.62-.89 a 13.63,13.63,0,0,0-10.92-6.4,12.88,12.88,0,0,0,3.29,6.1 c 3.08-.17,5.38,3.24,1.18,10.81 a 15.11,15.11,0,0,1-10.08,7.83,34.29,34.29,0,0,1-14-4.58 c -5.67-3.5-10.33-7.5-11.47-15,2.13-1.87,3.75-6.75,3.75-6.75-2.75-.37-5.37.25-6.75,1.5 s -2.18,2.74-4.33,8 c -1-.4-3.17-1.25-5.24-1.89-2.81-.87-7.56-2.31-13.37,0 s -8.44,9.25-8.56,12.56.56,8.13,5.94,12.69 c -.75,5.69,0,14.94.94,21.25 a 55.08,55.08,0,0,0,7.69,20.69 l .05.08 c 1.22,2.62,2.59,5.6,3.14,7 a 22.64,22.64,0,0,1,.08,15.5 C 263.05,323,258,327,256.3,330.13 A 73.94,73.94,0,0,0,247.72,344 c -3.5,7.58-5.92,15.17-7.17,28.42 s 1.46,32.38,1,42.88 S 239,437,236.39,439.38 c 13.13-3.37,26.5.5,44.13,5.38 s 40.75,8.13,61.13,2.25,26.63-19.62,26.63-19.62 S 365.76,419.38,363.89,404.5Z M 307,286.92 c 0-1-.15-2.3-.15-2.3 l -1.18.28 c -.8-1.25-1.61-2.6-2.38-4,1.2-.48,3.35-1.08,3.35-1.08 s -.17-2.41-.46-4.83 c -1.2.29-4.11,1.38-5,1.7 l -.25-.57.05-4.35-.63.2q.29-1.39.64-2.8 c 0,.68,0,1.54,0,2.59 a 15.73,15.73,0,0,1,4.48-1.76 c .37,0-.26-2.17-.39-4.32 a 13.9,13.9,0,0,0-3.54,1.45 c .49-1.82,1-3.62,1.57-5.34 l 1.25-.34-.28-2.59q.32-.92.63-1.8 a 20,20,0,0,1,3.44-.72 l -.59-4.28-1,.11 c .34-.88.65-1.64.9-2.26 l .14,2.14,3.66-.62.2.26,1.09,3.88,1.53-.18 c .89,1.37,1.8,2.93,2.69,4.67 a 9.34,9.34,0,0,0-3.09,0 c .54,1.95.95,3.88.95,3.88 l 4,0 c .22.54.44,1.1.66,1.66v3 l 1.13.2q.42,1.35.8,2.79 c -.2.65-.41,1.29-.64,1.92 l -1.42-.39-.37,4.91,0,.07 a 30.24,30.24,0,0,0-3.83.2 l -.1,5.4,1.24-.09 c -.47.87-.93,1.7-1.37,2.46 l .13-2.37-4.17.16-.19,4.51,2.87,0 c -1.45,2.33-2.47,3.73-2.47,3.73 l -.32-.4-.09-3.29-2.39-.06Z m 14.39-56.46 c .48-3.76-3.41-5.27-3.41-5.27 a 12.5,12.5,0,0,1-2-2.65,14.22,14.22,0,0,1,5.67,3.42 c 2.25,2.42,4.47,6.92,2.64,16.08-1.7,8.5-7.4,11.59-9.19,12.36 a 64.65,64.65,0,0,0-5.88-7.53 C 311.38,246.08,319.83,242.28,321.36,230.46Z m -42.16-7.77 a 5.05,5.05,0,0,1,4.06-2.56 l -1.37,2.63 s -2.12-.62-1.5,2.88,2.17,8.94,9.22,14.42 c 6.1,4.74,14.42,6.55,17.07,7 a 92.23,92.23,0,0,0-3.64,8.82 c -13.66-4.65-23.56-16.11-26.51-26.93 A 21.15,21.15,0,0,1,279.2,222.69Z M 268,314.21 a 28.62,28.62,0,0,0-.88-13.44 c 3.66,5.38,7.37,12,8,22 a 38.26,38.26,0,0,0-6.37-23.25 c -3.19-5-9-11.5-11.56-22.56 a 86.2,86.2,0,0,1-1.5-26.31 c -2.87-1.12-6-6.06-6.06-10.62 a 12.89,12.89,0,0,1,7.5-11.69 c 4.88-2.25,10.88-.31,12.38.13,1.17.34,4.1,1.24,5.35,1.63,7.46,20.3,23.55,26.48,27.51,27.72 a 106.93,106.93,0,0,0-4,15.82 c 1.5,5.61,9.05,17.07,11.3,20.41-.23,3.13-1.12,15.49-1.44,27.49-.31,11.56,0,18.57.09,20.68 a 91.15,91.15,0,0,1-49.43-12.39 C 263.8,323,267,319.38,268,314.21Z m -10.17,17 c 9.6,6.69,32.12,15.62,58.09,12,10.86-1.62,19.11-8.89,22.26-12.08.62,1.11,1.82,3.28,3.28,6 a 50.1,50.1,0,0,1-8.79,7.83 c -12.5,7.38-28.87,9.88-48.37,5.63-17.09-3.73-28.33-10.62-30.84-12.27 A 73.79,73.79,0,0,1,257.79,331.23Z M 331.51,447 c -16.5,2.88-38.5-1.5-46-3.5 s -33-10.37-44.25-7.37 c 3.75-9.25,2.63-28.62,2.13-35.75 s -2.87-24.25,1.75-41.37 a 95.81,95.81,0,0,1,7.42-19 c 17.33,11.86,47.14,17.09,65,13.13,15.36-3.41,22.89-11.92,24.77-14.34,3.12,6,7,14,9.11,20.22,3.75,11.25,6.13,19,8.38,33 s 4.5,31.88,5.88,34.75 C 358.89,437.75,348,444.13,331.51,447Z"/>
    <path d="M 294.39,428.63 c 14.5-5.75,33.75-32.5,35.75-50.25 C 322.64,404.88,294.39,428.63,294.39,428.63Z"/>
    <path d="M 315.39,423.38 c 6.75-1.25,16-10.75,18.25-18.5 C 328.64,413.88,315.39,423.38,315.39,423.38Z"/>
    <path d="M 310.06,351 a 3,3,0,1,0-3-3 A 3,3,0,0,0,310.06,351Z m 0-4.69 a 1.73,1.73,0,1,1-1.73,1.73 A 1.73,1.73,0,0,1,310.06,346.28Z"/>
  </g>
<script type="text/ecmascript" xlink:href="param.min.js"/> 
</svg>
