<?xml version="1.0"?>
<svg xmlns="http://www.w3.org/2000/svg" xmlns:xlink="http://www.w3.org/1999/xlink" viewBox="0 0 600 600">
  <title>police-shirt-slender</title>
  <g id="main-colour">
    <path d="M 335,248.46 c -1.43-1.36-2.73-2.72-3.84-4 a 11.18,11.18,0,0,0-5.66-16.61,7.39,7.39,0,0,0-3.94-1.31,6.49,6.49,0,0,0-2.79.72 L 312,221.13 a 32.22,32.22,0,0,0-5-.5 c 1.17,4.38,5.73,7.16,7.73,8.17,0,.29,0,.57,0,.86 l 0,0 a 32.93,32.93,0,0,1-3,13.31,11,11,0,0,1-1.55-.82 c -6-1.82-14.85-6.46-19.14-10.12 a 16.43,16.43,0,0,1-3.78-4.86,25.53,25.53,0,0,0,3-4.95 c -3.07,1.12-5.75,4.58-6.93,6.28 a 14.44,14.44,0,0,1-1.41.4 c -7.45-6.36-19.55-1.14-20,7.95 s 6,12.33,9.33,13.42 c -1.25,5.92,1.33,21,3.17,27.5 s 6.92,19.67,9.08,28.08 c 1.89,7.35-1.42,16.91-7.06,27.48,3.17,1.54,9,3.73,19.22,5.64,14.9,2.79,23.88.19,28.87-2.85 a 43.2,43.2,0,0,1-1.6-11.9 c -.17-8.42,1.82-20.63,3.91-27.88,1-3.41,2.49-7.72,3.9-12.55 A 8.79,8.79,0,0,0,334.8,282 a 20.45,20.45,0,0,0,8.92-15.42 C 344.12,259.91,342.39,256.38,335,248.46Z" fill="param(main_colour)"/>
  </g>
  <g id="accent-colour-1">
    <path d="M 276.92,333.63 s 29.5,12.75,47.5,3 c 1.63,4.63,6.25,13.88,10.13,21.88 s 8.5,20,10.13,28.63,4.25,43.75,4.25,43.75-9.75,8.25-31,12.5-45.87-.25-56.62-8.5 c 2-7.25.13-15.5-1.25-21.75 s -3-25,.38-42.12,8.38-25.5,11-29.75Z" fill="param(accent_colour_1)"/>
  </g>
  <g id="fixed-colours">
    <circle cx="313.53" cy="344.05" r="1.92" fill="#ffcc50"/>
    <path d="M 311.73,243 s 12.19,10.38,16.85,23.88 c -1.5,7.33-5.83,18.5-8.83,22.33-4.83-4.67-14-18.17-14-18.17 S 308.71,247.63,311.73,243Z" fill="#fff"/>
  </g>
  <g id="outline">
    <path d="M 311.3,241.88 a 99.44,99.44,0,0,0-6,29.25 c 2.5,6.38,14.25,19.88,14.25,19.88 s 7.38-11.87,9.63-24.12 C 324.92,252.25,311.3,241.88,311.3,241.88Z M 306.92,271 c .88-12.12,5.25-26.37,5.25-26.37 s 9.88,7.25,15.5,22 a 78.93,78.93,0,0,1-8,21.5 S 310.67,279.25,306.92,271Z"/>
    <path d="M 310,249.13 l 1.94-.44,1.06,4.19 s -3.12.75-3.75,1.38 A 39.62,39.62,0,0,1,310,249.13Z"/>
    <path d="M 311.23,244.5 l .75,4.19,3.69-1.06 a 27.67,27.67,0,0,0-3.37-3.87 C 311.55,243.25,311.23,244.5,311.23,244.5Z"/>
    <path d="M 319.42,251.13 l -2.12.5-1.62-4 S 317.55,248.13,319.42,251.13Z"/>
    <path d="M 314,257.13 l -.94-4.25 a 20.38,20.38,0,0,1,4.25-1.25 c .88,2.38,1.63,4.38,1.63,4.38 S 316,256.57,314,257.13Z"/>
    <path d="M 322.8,255.63 a 12.4,12.4,0,0,0-3.87.38 c .75,1.88,1.38,3.75,1.38,3.75 l 4.63-.5Z"/>
    <path d="M 310.86,262.5 s 2.75-1.5,4.25-1.5 c -.62-2.5-1.12-3.87-1.12-3.87 s -2.62.75-4.12,1.25 C 310.55,260.88,310.86,262.5,310.86,262.5Z"/>
    <path d="M 307.3,264.63 A 15.58,15.58,0,0,1,311,262.5 c .38,2.13,1.25,4.25.88,4.25 a 15.73,15.73,0,0,0-4.25,2.25 A 37.93,37.93,0,0,1,307.3,264.63Z"/>
    <path d="M 316.3,265 a 34.83,34.83,0,0,1,5-.87,24.7,24.7,0,0,0-1-4.37 s -3.5.75-5,1.25 C 315.8,262.75,316.3,265,316.3,265Z"/>
    <polygon points="309.05 254.75 309.86 258.38 307.67 259.25 309.05 254.75"/>
    <path d="M 311.92,266.75 s 2.75-1.25,4.38-1.75 c .63,2.75.88,4.63.88,4.63 s -3.75,1.38-4,2 A 38.26,38.26,0,0,0,311.92,266.75Z"/>
    <path d="M 321.3,264.13 s 2.75-.25,4.13-.25 c .25,2,.38,4.5.38,4.5 a 11.13,11.13,0,0,0-3.94.19 C 321.67,266.38,321.3,264.13,321.3,264.13Z"/>
    <polygon points="327.55 264 325.42 263.88 324.92 259.25 327.55 264"/>
    <path d="M 308.17,274 s 3.63-1.87,5-2.37 c .56,2.38,1,4.75,1,4.75 a 26.28,26.28,0,0,0-3.87,1.88 A 20,20,0,0,1,308.17,274Z"/>
    <path d="M 317.17,269.63 l .88,5.25 a 27.74,27.74,0,0,1,4.13-.87 c -.12-3.12-.31-5.44-.31-5.44 A 25.64,25.64,0,0,0,317.17,269.63Z"/>
    <polygon points="325.8 268.38 325.98 273.38 326.8 272.75 328.17 268.75 325.8 268.38"/>
    <path d="M 314.17,276.38 a 20.58,20.58,0,0,1,3.88-1.5 c .38,3,.5,5.13.5,5.13 a 13.72,13.72,0,0,0-3.62,1.13 C 314.48,278.57,314.17,276.38,314.17,276.38Z"/>
    <path d="M 322.17,274 a 29.66,29.66,0,0,1,3.81-.62 c .13,2.88-.06,2.25-.06,2.25 L 324.67,279 l -2,.38Z"/>
    <polygon points="318.55 280 322.67 279.38 322.86 282.69 322.36 284.07 318.86 284.5 318.55 280"/>
    <path d="M 313.17,281.75 l 1.75-.62 s .75,3.63.38,3.25 S 313.17,281.75,313.17,281.75Z"/>
    <polygon points="318.86 284.5 316.05 284.75 319.48 289 318.86 284.5"/>
    <polygon points="306.3 269.63 307.67 269 308.17 274 305.61 271.07 306.3 269.63"/>
    <path d="M 287.92,227.21 a 12.86,12.86,0,0,0,3.33-6.17 s -5.5,2.33-8,6.5 c 3.5,8.83,11.5,21.67,24.67,26.33,2-6.83,3.38-12,3.38-12 S 291.09,235,287.92,227.21Z M 306.84,252 c -10.75-5.17-18.58-15.5-22-24,1.08-3,4.42-4.67,4.42-4.67 a 41.93,41.93,0,0,1-2.42,3.67 c 2.83,9.17,22.75,15.83,22.75,15.83 A 88.52,88.52,0,0,0,306.84,252Z"/>
    <path d="M 307.17,219.8 s 3.92.42,5.17.75 c 5.46,3.58,7.21,6.33,7.21,6.33 s 2.13,9.63,1,24.67 a 93.9,93.9,0,0,0-9.21-9.67 s 2.62-4,2.87-14.5 c -1.42-2.42-2.42-2.83-2.42-2.83 a 6.57,6.57,0,0,1,3.42,3 c .17,5.33-.67,11.42-2,14.33 a 77.69,77.69,0,0,1,6,6.17 s .75-14.54-.75-20.54 c -4.92-5.92-6.67-5.87-6.67-5.87 a 38.13,38.13,0,0,0-4.17-.33 A 11.44,11.44,0,0,1,307.17,219.8Z"/>
    <path d="M 303.34,262 c -9.33,2-15.58-.42-15.58-.42-.33,4-.58,14.75-.58,14.75 a 32.37,32.37,0,0,0,9,5.5 c 2.67-1.5,7.92-7.58,7.92-7.58 S 303.5,265.38,303.34,262Z m -7.08,18.33 a 41,41,0,0,1-7.75-4.58 l .5-12.42 s 4.67,2,13.08.33 c .17,4.42.75,10.08.75,10.08 S 298.09,279.13,296.25,280.29Z"/>
    <path d="M 288.17,265.21 a 33.26,33.26,0,0,0,7.25,4.25,46.39,46.39,0,0,0,7.33-3.83 l .08,1.17 a 41,41,0,0,1-7.5,3.92,30.91,30.91,0,0,1-7.25-4.25Z"/>
    <path d="M 277.3,332.88 s 29.63,12.75,46.38,2.75 a 16.69,16.69,0,0,1,.63,1.75 s -12.87,9.63-47.5-3 C 277,333.75,277.3,332.88,277.3,332.88Z"/>
    <path d="M 318.67,289.13 s -1.75,9.63-4,21 a 109.66,109.66,0,0,0-1.37,29.5 l 1.25.13 a 93.06,93.06,0,0,1,.63-25.12 c 2.25-13.12,5.13-24.12,5.13-25.5 A 1.21,1.21,0,0,1,318.67,289.13Z"/>
    <path d="M 341.75,257.71 s -2.42,2.17-8,2.83 c 1.42,4.17,1,8.5-.08,12.67 a 56.63,56.63,0,0,0,5.17,5.08 l .58-1 s -3.33-3.17-4.25-4.25 a 22.39,22.39,0,0,0,.08-11.67,13.56,13.56,0,0,0,7-2.33 A 11.29,11.29,0,0,1,341.75,257.71Z"/>
    <path d="M 335.09,262.71 s 3.25.83,6.08,1.33 a 8.44,8.44,0,0,0,1.67-2.75 l .5,1.08 a 9.75,9.75,0,0,1-1.92,3.08,53.56,53.56,0,0,1-6.42-1.58Z"/>
    <circle cx="316.17" cy="291.63" r="1.13"/>
    <circle cx="314.8" cy="298.88" r="1.13"/>
    <circle cx="313.17" cy="306.25" r="1.13"/>
    <circle cx="311.8" cy="313.5" r="1.13"/>
    <circle cx="311.05" cy="321.13" r="1.13"/>
    <circle cx="310.42" cy="328.38" r="1.13"/>
    <circle cx="310.8" cy="335.5" r="1.13"/>
    <path d="M 292,285.25 s 8,3.5,17.88-1.37 C 308.42,286.25,301.8,290.63,292,285.25Z"/>
    <path d="M 317.55,225.94 a 9.18,9.18,0,0,1,7.88,1.88,10.88,10.88,0,0,0-6.44-.25 A 12.05,12.05,0,0,1,317.55,225.94Z"/>
    <path d="M 284,227 a 24.06,24.06,0,0,1-2.31.81 c -1.62-1.69-8-4.44-14.12-1.06 a 13.28,13.28,0,0,0-4.69,18.88 c 2.13,3.38,6.19,5.06,6.94,5.38 a 106.2,106.2,0,0,0,2.5,23.25 c 1.69,6.63,6.81,19.25,10.31,26.75 s 5.69,12.75,6.13,17.88 c .13-6.19-1.31-10.94-4-16.56 A 240.7,240.7,0,0,1,275,275.63 a 87,87,0,0,1-2.56-26.12 c -3.5-.12-7.81-3.5-9.12-7.69 a 11.35,11.35,0,0,1,4.31-12.62,11.49,11.49,0,0,1,13.5.44,14.57,14.57,0,0,0,3.38-.81Z"/>
    <path d="M 272.09,270.21 a 109.91,109.91,0,0,0,5,19.5 c 3.58,9.75,7,20.17,5.25,27 a 77.58,77.58,0,0,1-7.17,16.92,23.9,23.9,0,0,0,2.17,1.08,98.45,98.45,0,0,0,6.42-14.5 c 2-6.42,2.42-10.5-.75-19.92 C 279.17,291.88,273.34,276.46,272.09,270.21Z"/>
    <path d="M 327.92,240.21 a 106.19,106.19,0,0,0,9.58,10.25 c 4.5,4,9.5,11,7.25,20.08 a 17.7,17.7,0,0,1-18.5,13.75 c 5.92-.83,9.5-2.58,12.92-7.67 s 5-14,1.33-19.92 S 330.17,245.46,327.92,240.21Z"/>
    <path d="M 332.25,283.3 s -4.75,18.17-6.25,25.17-2.92,19.42-.5,28.25 c -.5.33-1.83,1.17-1.83,1.17 a 40.11,40.11,0,0,1-1.92-11.33 c -.33-7.17,1.92-17.58,3.42-24.25 s 4.92-18.42,4.92-18.42Z"/>
    <path d="M 307.63,219.84 s 1.54,5.92,7.13,7.83 a 3.14,3.14,0,0,1-.58,1.54,13.45,13.45,0,0,1-8.33-9.25 A 2.8,2.8,0,0,1,307.63,219.84Z"/>
    <path d="M 275.17,333.63 c -1.12,2.13-10.25,13.75-14.5,31.38 s -3.86,37.27-2.12,45.88 c 2.33,11.54,3.64,21.15,1,24.33,13,8,32.21,12.54,54.21,9.79 a 81.58,81.58,0,0,0,36.29-13.62 s -1.42-31.5-5-47-12.75-32.87-15.5-38.5-4-9.17-4-9.17-1.46-.46-1.71.54 c 1.38,4.38,6.25,13.63,8.63,18.75 s 9,19.63,11.38,31.88,4.29,42.63,4.29,42.63-8,6.25-23.79,10.63-47,3.54-61.71-6.58 c 1.5-7.67.67-12.33-1.17-20.42-1.49-6.56-2.75-22.75-.87-37 s 5.75-23.37,8.38-28.62,8.42-13.79,8.42-13.79 l 0-1.83Z"/>
    <path d="M 272,341 s 22.13,9.25,41.25,7.25 a 47.39,47.39,0,0,0,14-4.25 l .63,1.5 s -7.75,3.5-15,4.13-21.75.5-41.37-7.5 A 4.9,4.9,0,0,1,272,341Z"/>
    <path d="M 313.51,341.63 a 2.42,2.42,0,1,0,2.42,2.42 A 2.42,2.42,0,0,0,313.51,341.63Z m 0,3.83 a 1.42,1.42,0,1,1,1.42-1.42 A 1.42,1.42,0,0,1,313.51,345.46Z"/>
    <path d="M 321.67,379.38 s -9.5,31.75-21.25,44.75 C 313.92,412.38,321.67,386.63,321.67,379.38Z"/>
    <path d="M 322.67,407.13 s -8.75,16.25-18.5,23.5 C 312.67,428.38,322.17,411.63,322.67,407.13Z"/>
  </g>
<script type="text/ecmascript" xlink:href="param.min.js"/> 
</svg>
