<?xml version="1.0"?>
<svg xmlns="http://www.w3.org/2000/svg" xmlns:xlink="http://www.w3.org/1999/xlink" viewBox="0 0 250 250">
  <title>OA030-strappy-heel-curvy</title>
  <g id="main-colour">
    <path d="M 109.13,212.23 s 10.75,4.38,16.38,1.25 c .25,2.88.5,4.88.5,4.88 s -7.62,4.5-14.5,0 A 60.29,60.29,0,0,0,109.13,212.23Z" fill="param(main_colour)"/>
  </g>
  <g id="fixed-colours">
    <path d="M 114.75,214 c -3.75-1.08-5.62-1.73-5.62-1.73 s 1.38,3.31,2.38,6.13 c 1.06.88,4.81,1.69,4.81,1.69 S 115.31,216,114.75,214Z m -2,3.65 s -.75-2.31-1-2.81 l 1.94.63.69,2.63Z" fill="#d1d3d4"/>
  </g>
  <g id="outline">
    <path d="M 126.06,212.61 C 119.06,216.42,108,211,108,211 a 69.69,69.69,0,0,1,3.13,7.81,15.71,15.71,0,0,0,15.5-.37 S 126.25,215,126.06,212.61Z m -16.12.31 a 23.74,23.74,0,0,0,4.62,1.55 c .31,1.21,1.05,4,1.33,5 a 13,13,0,0,1-3.85-1.33 A 44.17,44.17,0,0,0,109.94,212.92Z m 6.65,6.7-1.31-5 a 19.2,19.2,0,0,0,9.84-.39 c .19,2.38.38,3.81.38,3.81 A 16.28,16.28,0,0,1,116.59,219.62Z"/>
    <path d="M 113.88,215.19 a 11.86,11.86,0,0,1-2.54-.92 l 1.17,3.38 a 7.24,7.24,0,0,0,2.21.75 S 114.17,216.4,113.88,215.19Z m -1.79,0,1.38.46.58,2.17-1.17-.37Z"/>
  </g>
<script type="text/ecmascript" xlink:href="param.min.js"/> 
</svg>
