<?xml version="1.0"?>
<svg xmlns="http://www.w3.org/2000/svg" xmlns:xlink="http://www.w3.org/1999/xlink" viewBox="0 0 600 600">
  <title>city-classic-top-slender</title>
  <g id="main-colour">
    <path d="M 347.53,259.63 c -2.12-4.37-7.75-8.25-11.75-11.25 a 44.8,44.8,0,0,1-4.61-4,11.19,11.19,0,0,0-14.89-15.77 c -.38-.13-2-1.53-3.14-2.43.71,1.07,1.25,2.33,2.13,3.43,5.61,7,13.38,22.88,13.63,34.13 S 326.63,279.38,322,289 c -1.25-14.12-7-28.62-15.12-35.62-6.43-5.54-14.25-9.42-17-17 a 33.82,33.82,0,0,1-1.86-12,22.13,22.13,0,0,1-6.14,4.56 c -7.45-6.36-19.55-1.14-20,7.95 s 6,12.33,9.33,13.42 c -1.25,5.92,1.33,21,3.17,27.5 s 6.92,19.67,9.08,28.08-1.32,17.33-11.66,30.5 c -6.82,8.68-9.38,14.26-11.33,20.67,5,3.5,16.81,5,28.08,2.58,10.88-3,18.88-7.87,23-15.25,3.83,4.76,12.41,9.46,22.42,13,.13-1.53-1.86-5.77-5.64-12-4.86-8-5.28-12.7-5.44-21.12 s 1.82-20.63,3.91-27.88 c .69-2.4,1.6-5.37,2.77-8.81 A 29,29,0,0,0,344,281.38 C 351.78,275,349.65,264,347.53,259.63Z" fill="param(main_colour)"/>
  </g>
  <g id="accent-colour-1">
    <path d="M 289.44,223.21 s -.87,6.58,7.13,13.08 A 36.52,36.52,0,0,0,312.65,244 s 4.5-7.08-2.63-19.58 c 2.08,1.17,10.71,11.17,14.38,21.58,3.58,10.16,5.67,18.58,3.83,26.92 s -5.33,14.25-6.25,15.33 c -.92-11.33-4.75-17.92-7.83-25.67 s -10.92-11.5-16.08-16.08 c -6.68-5.93-10.21-10-10-21.83 C 288.61,224,289.44,223.21,289.44,223.21Z" fill="param(accent_colour_1)"/>
  </g>
  <g id="accent-colour-2">
    <path d="M 285.4,227.21 l 2.64-2.84 s -.39,9.76,4.11,15.84,10.83,9.58,15.67,14,8.25,10.58,10.92,18.58 a 68,68,0,0,1,3.17,14.83 A 52.72,52.72,0,0,0,311.73,274 c -6.5-6.08-13.08-10.25-15.67-10.92 a 81.53,81.53,0,0,1,3.5-8.58 s -7.17-1.5-11.5-4.17 a 136.44,136.44,0,0,1-2.58-20.83Z" fill="param(accent_colour_2)"/>
    <path d="M 313.73,227.21 s 10.58,8.25,16.42,16.42 c -.08,3.83-.33,6.33-.33,6.33 s 3.92,3.75,5.08,7.08 c -.75,12.42-4.58,22.33-12.42,31.83,3.58-8.42,7.33-13.67,6.08-25.92 a 60.66,60.66,0,0,0-7.67-24.25Z" fill="param(accent_colour_2)"/>
    <path d="M 283.15,319 s 1.58,1.67,8.83,2.33 c -1.5,6.17-3.75,12-8.42,12.58 s -6.67-1.75-7.08-3.25Z" fill="param(accent_colour_2)"/>
    <path d="M 319.82,322 l 2.42-1,1.08,12.42 S 319.57,333.63,319.82,322Z" fill="param(accent_colour_2)"/>
  </g>
  <g id="outline">
    <circle cx="318.83" cy="248.63" r="0.92"/>
    <circle cx="322.33" cy="254.13" r="0.92"/>
    <circle cx="324.9" cy="260.09" r="0.92"/>
    <circle cx="326.65" cy="266.63" r="0.92"/>
    <circle cx="320.9" cy="298.56" r="1.35"/>
    <circle cx="317.07" cy="310.54" r="1.35"/>
    <circle cx="314.26" cy="324.69" r="1.35"/>
    <circle cx="314.07" cy="337.21" r="1.35"/>
    <path d="M 291.8,287.29 c 5.74,4.92,17.35,6.08,24.22.83 C 303.78,292.63,291.8,287.29,291.8,287.29Z"/>
    <path d="M 342,252.15 a 82.54,82.54,0,0,1-11.39-9.26,126.52,126.52,0,0,0-14-14.36 c 3.25-1.5,6.13-1.78,8.85-.66-1.08-1.33-4.33-2.42-6.67-2.17 a 10.6,10.6,0,0,0-3.92,1.36,24.24,24.24,0,0,0-5.67-3.78 c 2.7,6.33,5.86,13.29,3.36,20-6.08-2.17-23.7-7-22.61-21.71 l -5.25,5.08v.07 a 11.5,11.5,0,0,1-3,1,13.08,13.08,0,0,0-7.77-2.55 A 13.19,13.19,0,0,0,269.92,251 a 110.9,110.9,0,0,0,1.34,17.75 c 2.5,15,9.62,27.5,11.46,40.33 a 18.31,18.31,0,0,1,.15,3.21 h 0 c -.24,6.72-5.5,16.75-10.56,22 s -10.94,16.63-12.94,23.63 c 10.13,6.63,39.88,5.88,52.88-11.75,5.88,7,23.38,12.38,23.38,12.38 s -2.62-8.62-6.12-13.62-4.54-9.77-5.2-15 a 67.78,67.78,0,0,1,.17-11.09 c .84-9.59,3.8-20.32,6.44-30.54,8.33-.38,15.73-5.24,18.59-12.8 C 352.48,267.56,350.6,257.49,342,252.15Z m -12.47-8.27 c -.08,2.5-.5,6.42-.5,6.42 s 4,4.25,5.13,6.83 c .1,6.75-3.62,20.87-10.11,29.07,8.37-15.72,5.59-27.63,1.49-39.07 a 66,66,0,0,0-9.93-17.58 C 319.9,233.36,326.18,239.24,329.53,243.88Z m -9.05-4.81 c 4.25,8,8,18.93,7.68,28.31 a 44.3,44.3,0,0,1-4.46,17.31 c 2.21-6.12,6-22.65-9.43-39.18 a 65.75,65.75,0,0,1,6.76,1.62 A 15.7,15.7,0,0,0,320.47,239.07Z m -7.28,6.41 c 2.73,2.93,16.58,19.21,9.11,40.25-.65-7.69-4.54-18.91-9.27-26.47 a 28.37,28.37,0,0,0-6.3-6.74Z M 311,225.63 c 10.49,11.13,8.86,20.25,8.86,20.25 s -3.72-1.18-6.58-1.95 C 317.41,235.55,311,225.63,311,225.63Z m 1,19.15 a 52.81,52.81,0,0,1-6.24,7 c -4.62-3.64-9.78-6.88-13-11.62-3.63-5.33-4.11-12.6-4.16-15.32 a 1.53,1.53,0,0,1,.25-.1 S 289,237.37,312,244.78Z m -26-17.31 a 9.73,9.73,0,0,1,1.43-1.8 c .05,2,.44,8.64,3.06,13.47,2,3.74,5.91,6.77,8.5,9,2.86,2.46,11,6.25,16.25,17.75 a 89.86,89.86,0,0,1,5.87,19.44 c -2.49-4.82-9.16-15-23.94-22.77 a 58.37,58.37,0,0,1,3.58-8.42 s -8.25-1.92-12.08-4.25 C 287.29,244.71,286,231,286,227.46Z m -4.4,96.83 a 46.61,46.61,0,0,0,8.21,2 c -2.56,6.57-6.81,7.7-9.22,7 a 6.58,6.58,0,0,1-3.39-2.49 A 62.73,62.73,0,0,0,281.64,324.29Z m 8.66.73 a 28.15,28.15,0,0,1-8.11-1.72,30.16,30.16,0,0,0,1.5-3.21,27.46,27.46,0,0,0,7.44,1.79 A 28.53,28.53,0,0,1,290.3,325Z m -1.18,33.74 c -11.62,3.25-24.75-.12-27.12-2.25,3.25-8.5,4.88-12.5,11.25-20.62,1.06-1.35,2.09-2.65,3.07-3.92 a 6.76,6.76,0,0,0,3.81,2.67 c 7.25,2,11.63-6.12,12.75-14 a 15.77,15.77,0,0,1-8.72-1.84,23.65,23.65,0,0,0,1.16-5.92 h 0 c 0-.06,0-.11,0-.17 s 0-.29,0-.44 h 0 c .09-3-.48-5.88-1.6-10.08-2.17-8.12-6.86-18.78-9.46-29.28-2.12-8.56-2-18.12-1.85-21.36 h 0 c 0-.22,0-.59,0-1v-.2 h 0 c 0-.46,0-.86,0-.86 h 0 a 11.2,11.2,0,1,1,7.7-20.44 h 0 l 1.37.75 a 8.27,8.27,0,0,0,1.49-.1 l .12,0,.6-.14,0,0 a 11.06,11.06,0,0,0,1.13-.46,215.36,215.36,0,0,0,2.54,22.16,54.64,54.64,0,0,0,11.25,3.92,74.74,74.74,0,0,0-3.58,8.42 c 8.6,3.55,23.79,15.95,26.23,25.74 a 122.33,122.33,0,0,0-8.49,24.46 c -3.44,15.28-2.48,26.46-2,30.16 C 306.89,351.2,300.05,355.7,289.12,358.75Z m 31.13-36.37 a 3.79,3.79,0,0,0,1.36-.44 c 0,.89,0,1.77,0,2.65 a 6.47,6.47,0,0,1-1.24.46 C 320.29,324.24,320.26,323.35,320.25,322.38Z m 1.37,3.49 c 0,1.26.12,2.51.26,3.77 h 0 s .18,1.19.53,2.91 c -.71-.74-1.56-2.43-1.94-6.26Z M 345,278.4 a 24.21,24.21,0,0,1-16.32,8.68 c -.08.27-.15.55-.23.83-3.56,12.58-6.28,22.93-6.79,32.64 a 4.32,4.32,0,0,1-2.29,1.08 c 0,5.06,0,11.48,3.41,12.67.73,3.07,1.9,7,3.59,9.45 C 329.5,348.38,332.5,353,333,356 c -6.69-2.19-16.46-6.73-20.58-12.13-3.81-20.9,5.62-44.81,9.32-53.1,1.52-1.39,13-12.56,13.79-34.27 a 21.3,21.3,0,0,0-4.92-6.54 s -.08-3.06.11-5.29 a 104.79,104.79,0,0,0,11.12,9.89 C 350.4,261.13,349.24,273,345,278.4Z"/>
  </g>
<script type="text/ecmascript" xlink:href="param.min.js"/> 
</svg>
