<?xml version="1.0"?>
<svg xmlns="http://www.w3.org/2000/svg" xmlns:xlink="http://www.w3.org/1999/xlink" viewBox="0 0 150 150">
  <title>BT002_OA001</title>
  <g id="skin-tone">
    <path d="M 64.78,87.67 c .62-1.06,5.49-13.1,5.49-13.1 h 0 a 4.75,4.75,0,0,1,9.46.86 h 0 s 1.22,1.87,1.13,3-2.54,9.29-5.69,12.87-6.73,6.23-10.8,4.31 S 64.17,88.73,64.78,87.67Z" fill="param(skin_tone)"/>
  </g>
  <g id="main-colour">
    <path d="M 83.52,93.44 a 7.75,7.75,0,0,0,.3-5.77 c -1.16-2.85-3.32-6.41-2.35-9.43-1.1,1.46-2.1,5.16-3.58,8.38 s -5,8.55-9.7,9.46 S 61.44,93.47,63,90.41 a 20,20,0,0,0-7.46,6.09 c -1.85,2.44-2.08,6.65-.19,7.94 a 15,15,0,0,0,10.46,1.91 c 4.75-.76,7.57-4,9.59-6.65 a 11.52,11.52,0,0,1,4.83-4.1Z" fill="param(main_colour)"/>
  </g>
  <g id="accent-colour-1">
    <path d="M 83.22,93.49 A 20.76,20.76,0,0,1,79.35,96 c -1.23.41-2.72,2.13-3.31,2.9 s -4.09,5.8-8.51,7-10.5.17-12.55-1.8 c .38,2.41,1.9,4.56,7.08,5.62 s 10.28-2.72,12.48-4.9,3.11-4.78,5.17-5.41 S 85.51,96.15,83.22,93.49Z" fill="param(accent_colour_1)"/>
  </g>
  <g id="outline">
    <path d="M 54.5,105.21 c .47,3.64,5.88,6.2,11.79,5.14 a 16.4,16.4,0,0,0,11-7.11 c 1.88-2.71,2.2-2.7,4.59-3.93 s 3.86-3.54,2.56-5.61 c 1-1.77,1.09-5-.75-8.79 a 18.2,18.2,0,0,1-2.19-9.34,6.57,6.57,0,0,0-5.92-7.29 h 0 a 6.76,6.76,0,0,0-7.33,6.11,5.92,5.92,0,0,0,0,.86 c 0,.1,0,.2,0,.29 a 18.56,18.56,0,0,1-1.58,6.93 C 64,89.15,59,91.43,56.37,94.26,54.46,96.3,51.09,101.88,54.5,105.21Z M 80,78.58 a 35.14,35.14,0,0,1-4.31,11 c -3.73,5.88-8.32,6.92-11.11,5.31-2.54-1.47-1.21-3.68-.22-4.78 a 18.37,18.37,0,0,0,1.93-3.07,34.81,34.81,0,0,0,2.42-4.27 c 1.44-3,1.55-8.07,1.56-8.22 h 0 s 0,0,0,0 a 4.75,4.75,0,0,1,5.16-4.3 h 0 a 4.75,4.75,0,0,1,4.3,5.16 A 12.3,12.3,0,0,0,80,78.58Z M 56.1,105.51 a 20.69,20.69,0,0,0,4.47,1.43 c 2.54.43,7.47.18,10.45-2.08 A 26.56,26.56,0,0,0,76.5,99 a 5.81,5.81,0,0,1,2.88-2.32,11.74,11.74,0,0,0,3.19-2.15 c .88,1.16-.34,2.39-2.25,3.32 s -2.72,1.64-5.26,5 a 14.33,14.33,0,0,1-10.91,5.82 C 59.95,108.83,56.56,107,56.1,105.51Z m 5-13 c .39-.28.76-.58,1.12-.88 a 3.12,3.12,0,0,0,0,2.82 c 1,1.72,2.8,2.75,6.26,2.27 s 7.21-4.71,9.12-8 a 38,38,0,0,0,2.94-7.57,15.74,15.74,0,0,0,1.87,5.87 A 10.88,10.88,0,0,1,83,93 a 9.86,9.86,0,0,1-2.75,2.17 c -2.08,1.1-3.08,1.48-4,2.83 a 30.87,30.87,0,0,1-6.07,6.29 c -2.82,1.91-6.19,1.92-9.8,1.5 S 55.56,104,55.07,103 C 53.89,98.5,57.58,95,61.08,92.49Z"/>
  </g>
<script type="text/ecmascript" xlink:href="param.min.js"/> 
</svg>
