<?xml version="1.0"?>
<svg xmlns="http://www.w3.org/2000/svg" xmlns:xlink="http://www.w3.org/1999/xlink" viewBox="0 0 600 600">
  <title>police-shirt-hourglass</title>
  <g id="main-colour">
    <path d="M 334.27,246.38 h 0q.27-.36.51-.74 l 0,0 c .15-.24.29-.48.42-.73 l .1-.2 c .12-.23.24-.47.34-.71 l .07-.18 a 11.91,11.91,0,0,0,.41-1.17 c .06-.2.12-.41.17-.61 s .07-.31.1-.46.09-.49.12-.74,0-.26,0-.39 c 0-.38.06-.77.06-1.17 h 0 a 12,12,0,0,0-16-11.31 c -.21,0-.39-.11-.59-.16 a 15.87,15.87,0,0,0-3-7.05 A 12.58,12.58,0,0,0,310,216 l -1.58-.25 s 1.58,6.75,6.17,9 l .68,1.67 c 1.17,4.5,1.35,15-.4,22.25-14.17-3-27.84-14.94-31.5-23.08,2.32-1.15,5.4-5.54,6.64-9-9.83.42-11.58,9.67-11.58,9.67 l .42,1.36 c -1.17.47-2.37.9-3.64,1.27-5.33-2.17-11.92-4-16.83-1.17 s -7.33,8-6.42,14 S 257.88,251,263,252.18 c -.08,8.08,1.5,22.33,4.83,29.25 s 9.33,14.42,11.92,17.92,4.42,9.42,2.92,18.08 c -1,5.67-5.77,11.65-10.18,16.25,2.93,2.58,8.36,5.75,18.16,7.37,15.66,2.59,27.47-1,33.42-5.48-3.53-5.21-4.45-8.22-4.06-13.13.42-5.25,4.92-13.67,8.5-19.67 l 6-14.8,7.33-4.83 s 8.47-8.18,5.92-20.42 C 347,258.71,343.16,253.06,334.27,246.38Z" fill="param(main_colour)"/>
  </g>
  <g id="accent-colour-1">
    <path d="M 272.53,333.68 s 10.73,10.82,36.73,7.7 c 7.75-.87,14.85-5.82,14.85-5.82 A 176.19,176.19,0,0,1,334.26,351 c 4.25,7.5,10.88,25.38,12.75,43.13 s 1.5,39.75,1.5,39.75 a 48.54,48.54,0,0,1-23.62,15 c -15.12,4.13-32,2-42.75-.87 s -21-5-25.37-2.25 c 0-9.12-2.37-17.62-4-25.25 s -4.12-18.5-4-34.5,3.5-27,8.25-35.37 S 272.53,333.68,272.53,333.68Z" fill="param(accent_colour_1)"/>
  </g>
  <g id="fixed-colours">
    <circle cx="309.56" cy="345.63" r="2.04" fill="#ffcc50"/>
    <path d="M 315.26,249.25 S 330.39,260,332.64,273.5 c -2.75,8-8.87,17.5-13.44,20.63-3.56-6.75-8.44-18.5-8.44-18.5 s 2.75-15.62,3.38-19.87Z" fill="#fff"/>
  </g>
  <g id="outline">
    <path d="M 323.78,262 s -.8-2-1.88-4.35 a 17.58,17.58,0,0,0-4,.85q.64,2.08,1.16,4.17 C 321,262.29,323.78,262,323.78,262Z"/>
    <path d="M 320.15,266.51 a 29.38,29.38,0,0,0-1.12-3.85 s -2.52.51-4,.87 a 34.77,34.77,0,0,1,1,4.08 S 318.71,266.38,320.15,266.51Z"/>
    <path d="M 321.13,270.49 a 33,33,0,0,1,4.86-.43,19.18,19.18,0,0,0-.82-4.33 s -3.39.44-4.84.8 C 320.8,268.26,321.14,270.49,321.13,270.49Z"/>
    <path d="M 321.53,275.06 a 32.72,32.72,0,0,0-.4-4.57 c -1.59.35-4.33,1.34-4.33,1.34 a 25.63,25.63,0,0,1,.65,4.84 C 317.78,276.08,321.54,275.06,321.53,275.06Z"/>
    <path d="M 326,270.06 a 35.39,35.39,0,0,1,.15,4.36,10.54,10.54,0,0,1,3.79.15,37.73,37.73,0,0,0,0-4.4 C 328.66,270,326,270.06,326,270.06Z"/>
    <path d="M 321.53,275.06q.09,2.59,0,5.16 a 27.65,27.65,0,0,1,4.08-.5,50.93,50.93,0,0,0,.51-5.3 A 24.81,24.81,0,0,0,321.53,275.06Z"/>
    <path d="M 321.55,280.22 a 21.84,21.84,0,0,0-4,1.13 s -.13,2.14-.39,4.64 a 14.72,14.72,0,0,1,3.71-.78 A 40.68,40.68,0,0,0,321.55,280.22Z"/>
    <path d="M 309.64,290.29 c -16.92,9-29.08-.33-29.08-.33 C 292,301.29,305.14,294.54,309.64,290.29Z"/>
    <path d="M 295.34,290 c 3.71-1,9.63-5.83,9.63-5.83 s 0-11.42-.17-14.83 c -9.33,2-19.58,0-19.58,0,.33,4.75,1.12,15.17,1.12,15.17 A 32.37,32.37,0,0,0,295.34,290Z m 8.13-6.75 s -4.92,4.25-8,5.25 a 41,41,0,0,1-7.75-4.58 l -.5-9.11 A 73.74,73.74,0,0,0,295.3,279 a 49.47,49.47,0,0,0,8.16-4.31 C 303.52,278.82,303.47,283.29,303.47,283.29Z m -.08-12.08 c 0,.7,0,1.49.06,2.31 a 59.43,59.43,0,0,1-8.06,4.27,75.23,75.23,0,0,1-8.29-4.29 l -.13-2.29 A 46,46,0,0,0,303.39,271.21Z"/>
    <circle cx="315.09" cy="294.59" r="1.13"/>
    <circle cx="313.05" cy="301" r="1.13"/>
    <circle cx="310.18" cy="308.38" r="1.13"/>
    <circle cx="307.89" cy="315.63" r="1.13"/>
    <circle cx="306.14" cy="323.25" r="1.13"/>
    <circle cx="305.51" cy="330.5" r="1.13"/>
    <circle cx="305.89" cy="337.63" r="1.13"/>
    <path d="M 341.22,364.38 a 117.76,117.76,0,0,0-16-28.67 c -4.83-7.08-4.67-10.42-4.08-14.25 s 3.67-11,8.42-19 a 48.47,48.47,0,0,0,5.69-14.08 c 3.24-.88,6.25-3.16,9.4-6.83 a 21.34,21.34,0,0,0,3.25-21.75 c -3.08-7.25-7.92-9.92-12.17-13.17 s -10-10.25-10-10.25 c 4.17,7.83,11.5,13.33,14.33,15.92 a 19.79,19.79,0,0,1,4.78,6.51 c -.95,1.19-3.38,3.46-9.12,5.49.42,4.83.92,12.83.92,12.83 l 6.09,2.78 c -.31.43-.62.84-.92,1.22-3,3.67-8,6.92-12.33,7.42 a 13.46,13.46,0,0,0,3.4.22 c -.67,5.24-3,9.62-5.79,15-2.94,5.56-5.25,9.25-7.06,15.75 a 18.34,18.34,0,0,0,3.06,15.88 c -1.69,1.48-6.47,3.65-13,4.87 a 72.89,72.89,0,0,1-.19-15.18,92.94,92.94,0,0,1,5.94-20.81,74.17,74.17,0,0,0,3.1-9.06 c 2.41-2.29,11.58-11.6,14.41-21.8-1.26-7.26-5.93-13.58-10.3-18.12.13-2.23.4-7.67.27-11.56 A 73.94,73.94,0,0,0,321,227.9 c 2.48-1.14,5.49-1.77,8.09-.86 a 9.58,9.58,0,0,0-8.74-1.22,21.86,21.86,0,0,0-2.26-4.87,13.22,13.22,0,0,0-9.33-6 h 0 l -.2,0-.3,0 h -.58 A 15.62,15.62,0,0,0,313.88,225 a 46.38,46.38,0,0,1,1.25,10.5,66,66,0,0,1-.67,12.36 s -9.08-1.77-21.58-11.94 c -5.71-4.65-8-7.93-8.8-10.22,6.78-5.16,6.47-9.69,6.47-9.69 a .53.53,0,0,0-.48,0,10.57,10.57,0,0,0-8.35,3.45,17.94,17.94,0,0,0-4.21,7.62,10.35,10.35,0,0,1-4.25.17 c -2.81-.5-5.06-2.87-11.44-1.75 a 14,14,0,0,0-6.44,24.25,14.83,14.83,0,0,0,6.75,3.31 c -.37,4.44.56,14.19,2.38,21.31 A 54.94,54.94,0,0,0,274.45,294 c 1.65,2.09,3.63,4.65,5.56,7.58 a 22.77,22.77,0,0,1,2.13,10.8,25.85,25.85,0,0,1-6.06,15.88,46.53,46.53,0,0,1-5,5,98.1,98.1,0,0,0-11.17,11.33 c -4.17,5.33-11.83,16.5-12.17,43.67 s 10,48.67,7.67,58.5 c 10.33-3.33,19.67,1.67,33,4 s 42,5,61-16.17 C 351.39,406.54,347.05,380.21,341.22,364.38Z M 345.3,259.9 c .3.75.58,1.56.84,2.42 a 16,16,0,0,1-2.5,4,26.57,26.57,0,0,1-6.31.44 l -.1-1.78 A 17.1,17.1,0,0,0,345.3,259.9Z m -7.42,16.48-.51-8.65 a 43.36,43.36,0,0,0,6.59-.35,16.45,16.45,0,0,0,2.52-3.73 c .08.32.15.64.23,1,1.07,5-.83,10.29-3.18,14.06Z M 319.51,293 l -.21-.4 c .23-1,.45-2.07.64-3.11 h -2.31 l -.69-1.35 c .15-.93.26-2.21.24-2.21 l -1.19.3 c -.57-1.18-1.17-2.47-1.76-3.8,1.21-.49,3.34-1.13,3.34-1.13 a 44.92,44.92,0,0,0-.13-4.68 c -1.16.31-4,1.43-4.86,1.78 l -.23-.62 c .09-1.39.15-2.77.16-4.16 l -.57.2q.28-1.26.54-2.52 c 0,.63,0,1.39,0,2.31 a 15.39,15.39,0,0,1,4.29-1.83 c .36,0-.3-2.11-.6-4.2 a 12.63,12.63,0,0,0-3.26,1.48 c .35-1.78.68-3.53,1-5.21 l 1.16-.37 c -.2-.84-.44-1.67-.67-2.5q.15-.9.29-1.74 a 17,17,0,0,1,3.18-.79q-.7-2.06-1.5-4.1 l -1,.13 c .11-.79.21-1.48.28-2.06.23.64.47,1.28.68,1.92 l 3.35-.69.23.21 c .68,1.24,1.33,2.48,2,3.72 l 1.44-.22 a 43.9,43.9,0,0,1,3.4,4.44,8.79,8.79,0,0,0-3,.12 c .81,1.87,1.4,3.74,1.4,3.74 l 3.81-.08q.42.81.81,1.65 c .08,1,.14,1.91.18,2.86 l 1.07.16q.48,1.31.87,2.7 c -.18.64-.39,1.27-.61,1.89 l -1.38-.35q-.2,2.41-.55,4.81 l 0,.06 a 29.55,29.55,0,0,0-3.72.29q-.25,2.62-.68,5.23 l 1.2-.12 c -.58.86-1.16,1.67-1.72,2.42.18-.77.36-1.53.51-2.3 l -4.06.26q-.42,2.17-1,4.33 l 2.79-.11 C 320.87,291.7,319.5,293.05,319.51,293Z m -8.18-72.22 a 5.71,5.71,0,0,1,2,2.57 A 13.61,13.61,0,0,1,311.32,220.82Z m 3.65,2.39 c -1.6-3.88-3.75-4.66-4.91-4.78-.24-.52-.48-1.1-.72-1.72,2.88.39,5.58,1.74,7.8,5.41,2.42,4,4.5,13.75,4.75,19.67 a 106.09,106.09,0,0,1-.34,12 A 62.47,62.47,0,0,0,316,249 C 317.44,242.05,317.06,228.28,315,223.21Z m -31.19.82 a 3.62,3.62,0,0,1,1.27-2.82,6.43,6.43,0,0,1,2.48-1.11 A 22.08,22.08,0,0,1,283.78,224Z m .27-4.82 a 9.76,9.76,0,0,1,5.2-1.81q-.31.58-.64,1.12 a 7.13,7.13,0,0,0-5.4,3 c -2,3.25-.33,6.33,3.67,10.92 s 13.48,12.62,27.21,17.58 c -.27,1.84-.68,4.81-1.27,8.71-3-1.09-14.78-5.7-22.77-14.7-9.25-10.42-10.83-17.67-10.83-17.67 S 280.47,221.54,284.05,219.21Z m -3,105.23 c 2.38-4.56,3.56-8.12,3.25-15.31,0,0,0-.06,0-.09 a 41.42,41.42,0,0,1,3.07,8.78 s -1.5-10.19-4.12-14.81 c -.26-.46-.54-.92-.83-1.39 a 14.15,14.15,0,0,0-1.72-2.66 c -2.24-3.32-4.72-6.51-6.46-8.82 a 47.66,47.66,0,0,1-9.06-22.87 c -1.5-11.94-1.06-16-1.06-16 a 12.92,12.92,0,0,1-8.44-4,12,12,0,0,1-1.75-13.44,12.13,12.13,0,0,1,10.69-6.62 c 5-.06,7.73,3.26,13.68,1.82,1.56,3.27,5.29,10.53,9.88,15.62,8.88,9.85,21.26,15.14,24.34,16.35-.64,4.09-1.46,9-2.49,14.55,1.59,5,6,14.55,7.66,18.46 a .6.6,0,0,1-.2-.23 c -.5,3.63-2,6.94-3.5,11.06 a 87.1,87.1,0,0,0-5.25,18.88,62.73,62.73,0,0,0-.08,16.81,53.33,53.33,0,0,1-15.23.19 c -14.56-1.94-19.5-7.06-19.5-7.06 A 44,44,0,0,0,281,324.44Z m -8.71,10.31 c 1.92,1.87,6.53,5,16.83,7,14.53,2.75,28.39-.2,35-5.09.55.78,1.83,2.61,3.39,5-7.65,7-23.46,9.61-37.22,7.4 A 58.34,58.34,0,0,1,267,339.62 C 269.21,337.49,271.32,335.61,272.3,334.76Z m 75.33,98.75 c -8.5,8.38-18.62,14.25-31.12,15.75 s -21.75.63-28.37-.87-25-6.87-30.37-3.87 c .38-5.87-2-15.25-3.62-22.5 s -5.37-23.25-4.37-39.75,4.75-26.75,11.75-36.5 a 41.59,41.59,0,0,1,4.6-5.24 c 14.41,10.63,30.75,11.73,43.65,10,11-1.48,17.06-6.1,18.66-7.48 a 109.34,109.34,0,0,1,7.8,13.61 c 3.5,7.92,8.17,24.25,9.54,34.38 S 348.51,425.13,347.64,433.5Z"/>
    <path d="M 309.55,348.2 a 2.57,2.57,0,1,0-2.57-2.57 A 2.57,2.57,0,0,0,309.55,348.2Z m 0-4.08 a 1.51,1.51,0,1,1-1.51,1.51 A 1.51,1.51,0,0,1,309.55,344.12Z"/>
    <path d="M 320,385.71 s -9.58,23.17-28.33,37.5 C 311.22,410.13,315.22,400,320,385.71Z"/>
    <path d="M 300.64,430.13 c 8.83-1.83,17.25-11.08,19.67-18 C 313.3,423.38,300.64,430.13,300.64,430.13Z"/>
  </g>
<script type="text/ecmascript" xlink:href="param.min.js"/> 
</svg>
