<?xml version="1.0"?>
<svg xmlns="http://www.w3.org/2000/svg" xmlns:xlink="http://www.w3.org/1999/xlink" viewBox="0 0 600 600">
  <title>police-shirt-curvy</title>
  <g id="main-colour">
    <path d="M 339.14,287.13 c 6.38-2.37,13.6-10.84,12.63-20.37-1-9.75-11.54-19.13-11.54-19.13 h 0 a 12.69,12.69,0,0,0-6.41-19.85 h 0 c -2.92-1.7-7.61-.68-10,0-2.86-5.39-9.3-6.38-9.3-6.38 a 17.42,17.42,0,0,0,2.44,4.31,4.79,4.79,0,0,1,3.62,3.52 c .06,1.55.44,5.06-.09,6.67-1.62,4.88-5,10.75-9.87,14-17.75-5.37-25-13.12-27.75-18.75-.32-.66-1-2.58-1.19-3.26 a 14.82,14.82,0,0,1-.28-3.3,15.64,15.64,0,0,0,3.44-5.19,7.5,7.5,0,0,0-6.69,3.13,24.94,24.94,0,0,0-2.92,6.84,55.78,55.78,0,0,0-10.69-3,13.69,13.69,0,0,0-13.87,6.13 c -4.62,8.75-.12,15.63,3.88,18.5-2.75,22.25,4.63,35.5,7.25,40.25 s 4.63,8.5,5.5,15.13 c 1.1,9.5-4,16.2-9.73,23.87 a 87.52,87.52,0,0,0,22,9.41 c 14,3.55,40.07,8.66,58.08-9.32 a 47.12,47.12,0,0,1-2.54-6.34 c -2.5-7.75-1.58-17.67-.5-22.83 S 338.39,289.38,339.14,287.13Z" fill="param(main_colour)"/>
  </g>
  <g id="accent-colour-1">
    <path d="M 257.58,330.22 A 88.6,88.6,0,0,0,307.15,343 c 15.25-.87,24.88-5.62,31-13.87,3.38,5.75,11.38,19.88,15.25,32 a 276.53,276.53,0,0,1,8.75,39.63 c 1.38,10,3,23.13,5.25,26.5-6.87,9-14.37,17.13-32.5,20.13 s -29,1.88-45-1.62 S 251.15,434,238.9,438 c 4.75-15.37,4.5-24.62,3.5-35.12 s -2.25-22.37.13-37.37 A 77.94,77.94,0,0,1,257.58,330.22Z" fill="param(accent_colour_1)"/>
  </g>
  <g id="fixed-colours">
    <circle cx="316.57" cy="347.13" r="2.34" fill="#ffcc50"/>
    <path d="M 311.39,250.5 s 15.13,9.25,20,23.5 c -2.87,8.63-5.5,15.25-12.25,22.13-3.87-6.62-10.62-17.75-10.62-17.75 S 310.76,262.63,311.39,250.5Z" fill="#fff"/>
  </g>
  <g id="outline">
    <path d="M 321.11,263.06 s -1-2-2.34-4.39 a 17.48,17.48,0,0,0-4,1.25q.84,2.13,1.56,4.27 C 318.25,263.63,321.11,263.06,321.11,263.06Z"/>
    <path d="M 317.81,268.11 a 31.46,31.46,0,0,0-1.49-3.91 s -2.54.76-4,1.26 a 37.24,37.24,0,0,1,1.32,4.17 S 316.31,268.11,317.81,268.11Z"/>
    <path d="M 319.17,272.15 a 34.06,34.06,0,0,1,5-.89,20.32,20.32,0,0,0-1.25-4.42 s -3.44.76-4.9,1.26 C 318.63,269.87,319.18,272.15,319.17,272.15Z"/>
    <path d="M 320,276.83 a 34.09,34.09,0,0,0-.82-4.68 c -1.61.51-4.36,1.77-4.36,1.77 a 26.72,26.72,0,0,1,1.08,4.93 C 316.18,278.23,320,276.83,320,276.83Z"/>
    <path d="M 328.27,271 c -1.37,0-4.12.25-4.12.25 a 36.86,36.86,0,0,1,.57,4.49,11,11,0,0,1,3.94-.19 A 39.1,39.1,0,0,0,328.27,271Z"/>
    <path d="M 324.72,275.76 a 26,26,0,0,0-4.72,1.08q.33,2.66.48,5.3 a 29.5,29.5,0,0,1,4.22-.88 A 51.6,51.6,0,0,0,324.72,275.76Z"/>
    <path d="M 320.48,282.14 a 23.44,23.44,0,0,0-4.05,1.51 s 0,2.2,0,4.76 a 16,16,0,0,1,3.83-1.13 A 41,41,0,0,0,320.48,282.14Z"/>
    <path d="M 275.76,285.38 c 8.13,14.5,22,11.5,29,7.88 C 285.76,298.88,275.76,285.38,275.76,285.38Z"/>
    <path d="M 290.58,288.2 c 3.78-.72,10-5.11,10-5.11 s .84-11.39.93-14.81 c -9.46,1.31-19.53-1.44-19.53-1.44,0,4.76,0,15.21,0,15.21 A 32.37,32.37,0,0,0,290.58,288.2Z m .19-1.49 a 41,41,0,0,1-7.39-5.14 l .17-9.12 a 73.75,73.75,0,0,0,7.8,4.78,49.47,49.47,0,0,0,8.46-3.7 c -.25,4.08-.63,8.54-.63,8.54 S 294,285.95,290.77,286.71Z M 300,270 c 0,.7-.06,1.49-.11,2.31 a 59.43,59.43,0,0,1-8.35,3.66,75.21,75.21,0,0,1-8-4.89 l 0-2.3 A 46,46,0,0,0,300,270Z"/>
    <circle cx="315.43" cy="298.46" r="1.13"/>
    <circle cx="313.64" cy="306" r="1.13"/>
    <circle cx="312.26" cy="314.13" r="1.13"/>
    <circle cx="311.51" cy="322" r="1.13"/>
    <circle cx="311.26" cy="330.63" r="1.13"/>
    <circle cx="312.01" cy="338.88" r="1.13"/>
    <path d="M 363.89,404.5 c -1.87-14.87-5-31.25-9.25-43.12 s -11-25.87-15.08-31.75 a 29.36,29.36,0,0,1-4.67-12.08 c -1.23-7.46.13-19.67,5-29.66 a 17,17,0,0,0,6.74-4.51 c 6.13-6.5,7-13.25,5.63-20 s -5.5-11.12-11.25-15.12-11.75-11.62-11.75-11.62 c 3.13,5.88,9.63,12,13.13,14.88 a 22.78,22.78,0,0,1,5.29,6.48 c -.86,1.2-3.77,4.61-10.46,7,.42,4.83.92,12.83.92,12.83 L 345.6,281 c -.42.51-.86,1-1.34,1.5 a 23.92,23.92,0,0,1-10.5,6.13,11.91,11.91,0,0,0,4-.17,111,111,0,0,0-3.91,12.67 c -1.25,5.67-2.75,18.75,3.25,28.17-5.93,7.57-14.71,10.61-20.6,11.92-.7-2.07-2.18-7.82-1.4-18.09 a 149.2,149.2,0,0,1,5-26.68 c 3.2-3.69,10.29-12.81,11.93-22.39-1.69-6-5.55-11.18-9.56-15.28,5.26-11,6.58-22.59,3.47-28.81-.3-.59-.61-1.14-.94-1.67 a 15.89,15.89,0,0,1,8.73-.54 c -3.73-2.3-8.19-1.31-9.69-.88-3.13-4.21-7.3-6.21-10.86-6.42 a 12.88,12.88,0,0,0,3.29,6.1 c 3.08-.17,5.46,4.06,2,12 S 310.3,249,310.3,249 h 0 a 67.84,67.84,0,0,1-14.66-6.79 c -6.5-4.25-12.62-8-13.5-16.62,2.13-1.87,3.75-6.75,3.75-6.75-2.75-.37-5.37.25-6.75,1.5 s -2.18,2.74-4.33,8 c -1-.4-3.17-1.25-5.24-1.89-2.81-.87-7.56-2.31-13.37,0 s -8.44,9.25-8.56,12.56.56,8.13,5.94,12.69 c -.75,5.69,0,14.94.94,21.25 a 55.08,55.08,0,0,0,7.69,20.69 l .05.08 c 1.22,2.62,2.59,5.6,3.14,7 a 22.64,22.64,0,0,1,.08,15.5 C 263.05,323,258,327,256.3,330.13 A 73.94,73.94,0,0,0,247.72,344 c -3.5,7.58-5.92,15.17-7.17,28.42 s 1.46,32.38,1,42.88 S 239,437,236.39,439.38 c 13.13-3.37,26.5.5,44.13,5.38 s 40.75,8.13,61.13,2.25,26.63-19.62,26.63-19.62 S 365.76,419.38,363.89,404.5Z M 348.26,259.1 a 22.59,22.59,0,0,1,.89,2.09,18.39,18.39,0,0,1-3,5.61,37.48,37.48,0,0,1-7.33.59 l -.09-1.5 S 345.41,263.66,348.26,259.1Z M 339.39,277 l -.52-8.67 a 65,65,0,0,0,7.6-.49 c .81-.63,2.38-3.83,3.11-5.39 a 20.15,20.15,0,0,1,.69,3.27,19.59,19.59,0,0,1-3.78,14.12Z m -9.26-1.24-1.47-.24q0,2.51-.1,5v0 a 31,31,0,0,0-3.86.63q0,2.71-.21,5.41 l 1.26-.23 c -.53.93-1.05,1.8-1.57,2.62.11-.79.23-1.59.31-2.39 l -4.23.63q-.24,2.25-.61,4.49 l 2.93-.35 a 45.9,45.9,0,0,1-3.05,3.93 l -.26-.37 c .15-1.06.28-2.13.38-3.21 l -2.43.21-.85-1.31 c .07-1,.07-2.26.06-2.26 l -1.23.41 c -.71-1.15-1.44-2.4-2.17-3.72,1.23-.61,3.4-1.46,3.4-1.46 a 46.69,46.69,0,0,0-.54-4.79 c -1.18.43-4,1.83-4.93,2.27 l -.28-.61 c 0-1.43-.06-2.87-.16-4.31 l -.57.26q.19-1.3.36-2.61 c .05.64.12,1.42.21,2.35 a 16.31,16.31,0,0,1,4.29-2.28 c .38,0-.48-2.15-1-4.3 a 13.22,13.22,0,0,0-3.24,1.83 c .22-1.88.41-3.73.57-5.51 l 1.16-.49 c -.28-.86-.59-1.71-.9-2.57.05-.63.1-1.25.14-1.84 a 17,17,0,0,1,3.18-1.12q-.9-2.1-1.91-4.18 l -1,.23 c 0-.87.08-1.63.1-2.25q.44,1,.86,2 l 3.33-1,.25.2 c .81,1.24,1.6,2.49,2.35,3.74 l 1.45-.36 a 48.44,48.44,0,0,1,3.9,4.35,8.81,8.81,0,0,0-3,.39 c 1,1.89,1.79,3.78,1.79,3.78 l 3.9-.43q.51.8,1,1.65 c .17,1,.34,2,.47,2.95 l 1.12.07q.62,1.31,1.17,2.72 C 330.44,274.47,330.29,275.14,330.13,275.8Z m -8.49-45.11 c -.27-4.67-3.69-5.5-3.69-5.5 a 12.5,12.5,0,0,1-2-2.65,14.22,14.22,0,0,1,5.67,3.42 c 2.25,2.42,5.58,5.92,4.33,16.08 a 45.68,45.68,0,0,1-4.65,15.56,67.33,67.33,0,0,0-9.11-7.32 C 314.22,248.4,322.18,240.31,321.64,230.69Z m -42.44-8 a 5.05,5.05,0,0,1,4.06-2.56 l -1.37,2.63 s -2.12-.62-1.5,2.88 S 282,234.43,289,240 c 8.55,6.83,18.92,10.5,21.13,11.23-.1,2.07-.25,5.55-.56,10.1-17.82-5.18-31.87-23.22-32.82-32.09 A 23,23,0,0,1,279.2,222.69Z M 268,314.21 a 28.62,28.62,0,0,0-.88-13.44 c 3.66,5.38,7.37,12,8,22 a 38.26,38.26,0,0,0-6.37-23.25 c -3.19-5-9-11.5-11.56-22.56 a 86.2,86.2,0,0,1-1.5-26.31 c -2.87-1.12-6-6.06-6.06-10.62 a 12.89,12.89,0,0,1,7.5-11.69 c 4.88-2.25,10.88-.31,12.38.13,1.16.34,4.06,1.23,5.33,1.62 a 52.19,52.19,0,0,0,34.61,33.14 c -.31,4.31-.76,9.43-1.41,15.15,2.16,5.54,8.43,16,10.1,19 a 136.51,136.51,0,0,0-4.63,26.27 c -.68,10.9.91,16.1,1.64,17.88-6.23,1.17-31.65,2.95-56.27-11.71 C 263.8,323,267,319.38,268,314.21Z m -10.17,17 c 9.6,6.69,32.12,15.62,58.09,12,10.86-1.62,19.11-8.89,22.26-12.08.62,1.11,1.82,3.28,3.28,6 a 50.11,50.11,0,0,1-8.79,7.83 c -12.5,7.38-28.87,9.88-48.37,5.63-17.09-3.73-28.33-10.62-30.84-12.27 A 73.83,73.83,0,0,1,257.79,331.23Z M 331.51,447 c -16.5,2.88-38.5-1.5-46-3.5 s -33-10.37-44.25-7.37 c 3.75-9.25,2.63-28.62,2.13-35.75 s -2.87-24.25,1.75-41.37 a 95.81,95.81,0,0,1,7.42-19 c 17.33,11.86,47.14,17.09,65,13.13,15.36-3.41,22.89-11.92,24.77-14.34,3.12,6,7,14,9.11,20.22,3.75,11.25,6.13,19,8.38,33 s 4.5,31.88,5.88,34.75 C 358.89,437.75,348,444.13,331.51,447Z"/>
    <path d="M 294.39,428.63 c 14.5-5.75,33.75-32.5,35.75-50.25 C 322.64,404.88,294.39,428.63,294.39,428.63Z"/>
    <path d="M 315.39,423.38 c 6.75-1.25,16-10.75,18.25-18.5 C 328.64,413.88,315.39,423.38,315.39,423.38Z"/>
    <path d="M 316.56,350.09 a 3,3,0,1,0-3-3 A 3,3,0,0,0,316.56,350.09Z m 0-4.69 a 1.73,1.73,0,1,1-1.73,1.73 A 1.73,1.73,0,0,1,316.56,345.4Z"/>
  </g>
<script type="text/ecmascript" xlink:href="param.min.js"/> 
</svg>
