<?xml version="1.0"?>
<svg xmlns="http://www.w3.org/2000/svg" xmlns:xlink="http://www.w3.org/1999/xlink" viewBox="0 0 600 600">
  <title>hourglass-bottoms-template</title>
  <g id="skin-tone">
    <path d="M 333.12,249.41 l -.15.11-.62-1.55 a 11.64,11.64,0,0,0-11.8-19.68v-.38 c -10.71-2.26-13.38-13.35-14.21-20.26-2.16.19-4.35.31-6.56.31 s -4.42-.12-6.6-.31 a 26.62,26.62,0,0,1-3.55,11 c -3.25,5.75-8.25,8.42-14.42,10.25-5.33-2.17-11.92-4-16.83-1.17 s -7.33,8-6.42,14 S 257.88,251,263,252.18 c -.08,8.08,1.5,22.33,4.83,29.25 s 9.33,14.42,11.92,17.92,4.42,9.42,2.92,18.08 c -.68,3.92-3.19,8-6.13,11.66,2.12,1.86,6.49,4.93,14.89,8.31,12.67,5.1,24.62,3.89,33.33-.83-4.1-5.85-5.17-8.93-4.76-14.14 s 4.92-13.67,8.5-19.67 A 57.44,57.44,0,0,0,333.62,290 l -.39.11,1-6.84 s .89-5.48,1.43-14 c .42-6.66.49-8.53-.67-13.33 C 334.57,254.21,333.65,251.15,333.12,249.41Z" fill="param(skin_tone)"/>
  </g>
  <g id="main-colour">
    <path d="M 335.74,357.38 c -.49-7.77-10.86-20.7-10.86-20.7 s -6.5,3.72-17.16,3.89 c -15.5.5-31-11.17-31-11.17-4,4.67-12.17,10-18.41,19.32 s -5.59,22.44-5.59,22.44 h 0 s 0,.07,0,.1 a 25.5,25.5,0,0,0,45.14,16.26,25.51,25.51,0,0,0,37.88-30.14Z" fill="param(main_colour)"/>
  </g>
  <g id="outline">
    <path d="M 307.88,327.37 c 1,.2,1.7-1.44.9-3.34 a 29,29,0,0,1,1.68-6.1 S 305.39,326.65,307.88,327.37Z"/>
    <path d="M 316.56,227.78 c -.27.19-.54.39-.8.6 a 45.79,45.79,0,0,1-4.92,2.38 l 3.08-.58 a 33.59,33.59,0,0,0,4.13-1 c 2.86-1.07,5.16-3.73,11-2.15-2.08-1.37-5.25-2.7-10.34-.47 a 13.57,13.57,0,0,1-8.33-7.28,32.56,32.56,0,0,1-2.86-11.7 c -.75.08-1.51.13-2.26.18.29,3.66,1.23,10.58,4.2,14.44 C 312.57,226.21,315.34,227.42,316.56,227.78Z"/>
    <path d="M 320.8,322.34 c .77-5.92,5.19-13.63,8.09-18.78 h 0 c 4-6.29,6.26-15.15,6.64-20.91,2.45-15.76,1.3-27.24-2.3-34.76 a 47.63,47.63,0,0,0-7.43-11.47 s 4.65,5.6,7.05,16.6 c 3.25,14.88,0,31.88,0,31.88 a 46.12,46.12,0,0,1-5.68,18.35 c -4.42,7.33-7.08,13.75-8,18.75-.83,4.54.95,9.2,3,12.28 l .69,1,.79,1 c -10,5.48-23,4-30.44,1.36-6.55-2.33-13.89-7-15.74-8.2 l .68-.84.76-1 a 27.78,27.78,0,0,0,2.64-4.12 c 3.5-7,4.25-17,0-23.33 s -7.83-9.08-12.75-19.17 c -4.23-8.68-4.67-23.75-4.71-27.77,0-.41,0-1.11-.1-2 a 12,12,0,0,1,.54-24,7.81,7.81,0,0,1,2,.18,12,12,0,0,1,1.62.38,68.27,68.27,0,0,1,7.12,2.48,71.52,71.52,0,0,0,8.34,2.35,45.44,45.44,0,0,0,15.17.32 c -7.64.23-15.54-1.92-20.85-3.88 a 21.35,21.35,0,0,0,11.69-8.45,27.22,27.22,0,0,0,4.47-12.86 c -.71-.05-1.42-.1-2.12-.17 a 23.65,23.65,0,0,1-5.85,14.28,19.43,19.43,0,0,1-11.63,5.88,47.82,47.82,0,0,0-5.16-1.64 A 14,14,0,1,0,262.13,253 c 0,.18-.55,6.82,1.83,18.9,2.42,12.25,8.83,20,14.25,26.83 s 5.17,17.5.67,25.58-17.5,15.75-23.42,27.83 a 41.22,41.22,0,0,0-4.07,13,27.47,27.47,0,0,0,47.5,24.11 c 2.59-.47,7.87-1.79,11.69-5.06,0,0-6.36,3.26-12.66,3.26 l -.05,0 a 25.48,25.48,0,0,1-45.15-16.23,25.7,25.7,0,0,1,.21-3.25 h 0 s -.44-4.85,2.92-12.72 a 42.13,42.13,0,0,1,7.45-11 c 2.18-2.33,7.39-7.09,11.86-12 l .74-.84.76-.89 c 15.94,10.72,26.2,11.52,34.25,10.9 a 39.31,39.31,0,0,0,13.82-3.75 l .52.71.7,1 c 4,5.68,8.79,13.18,10.69,17.75,0,0-.75-5.5-6.92-14.67 S 319.88,329.43,320.8,322.34Z"/>
  </g>
<script type="text/ecmascript" xlink:href="param.min.js"/> 
</svg>
