<?xml version="1.0"?>
<svg xmlns="http://www.w3.org/2000/svg" xmlns:xlink="http://www.w3.org/1999/xlink" viewBox="0 0 600 600">
  <title>hourglass-top-template</title>
  <g id="main-colour">
    <path d="M 263.56,262.38 s 9.5-.5,14-11.5,1.17-19.33-.83-22.67 c 3.17-1.33,6.17-2.33,6.17-2.33 s 18,24.33,47.53,40.5 C 330.92,247,319.06,227,319.06,227 l 4.5-1 s 4.66,12.14,11.53,16.33 c 15.83,9.67,15.83,11,19.17,21.5 s -7.5,27.67-21,28.17 c -1.67,5.67-3.69,9.33-6.86,15.17 s -7.83,12.67-5.83,20.33,11.5,15.17,18,28.83,10.67,31.33,10.5,55.17-1.83,70.67.83,89,11,30.83,13.83,36 c -3.17,4.83-8.5,10-18.83,12.17 a 16.08,16.08,0,0,0,1.67,4.83 s -22,17.83-54.5,10 c .67-1.67,1-2.67,1-2.67 s -17.83-1.17-24.5-4.33 a 7.93,7.93,0,0,0,.33-2.17,40.2,40.2,0,0,1-9.5-2.17 c -4.17-1.67-11.67-2.5-13-2.5 a 9,9,0,0,0,1.5-2.83,22.15,22.15,0,0,1-7.17-2.17,23.66,23.66,0,0,0-8.83-2 s 15.67-22.5,16.83-48-2.67-50.83-4.67-73.83-.17-59.83,17.83-77.67,21.5-18.5,19.33-35.17 S 265.39,290.21,263.56,262.38Z" fill="param(main_colour)"/>
  </g>
  <g id="accent-colour-1">
    <path d="M 242,545.55 l -2.49-1.68 c 20-29.66,15.46-85.5,12.74-118.87-.81-9.9-1.44-17.73-1.33-22.9.45-20.81,5.23-36.73,15-50.1,8.12-11.07,15.36-22.78,15.43-22.9 l 2.55,1.58 c -.07.12-7.38,11.93-15.57,23.1-9.43,12.86-14,28.23-14.46,48.4-.11,5,.52,12.78,1.32,22.6 C 258,458.52,262.56,515,242,545.55Z" fill="param(accent_colour_1)"/>
    <path d="M 277.32,558.82 l -2.87-.88 c 6.79-22.12,9-50.7,6.19-78.41 l -.38-3.68 c -2.49-24-6.26-60.38-3.87-87.86,2.5-28.75,17.05-53.88,17.2-54.13 l 2.59,1.52 c -.14.25-14.36,24.81-16.8,52.87-2.36,27.19,1.39,63.36,3.87,87.29 l .38,3.68 C 286.53,507.31,284.23,536.32,277.32,558.82Z" fill="param(accent_colour_1)"/>
    <path d="M 314.89,565.47 l -3-.18 c 2.16-35.3.06-80.63-6.24-134.73-4.22-36.23.7-94.47.75-95.05 l 3,.26 c 0,.58-4.94,58.52-.75,94.45 C 315,484.48,317.06,530,314.89,565.47Z" fill="param(accent_colour_1)"/>
    <path d="M 353.17,545.74 c -7.11-10.06-13.68-35.86-15.27-60-.78-11.87-.15-27,.47-41.58.58-13.76,1.13-26.76.53-36.68-1-15.91-6.26-33.34-15.33-50.39 a 88.05,88.05,0,0,1-8.4-23.7 l 3-.51 a 86.69,86.69,0,0,0,8.1,22.8 c 9.27,17.43,14.69,35.27,15.67,51.61.61,10.07.06,23.14-.53,37-.61,14.53-1.25,29.55-.47,41.26,1.54,23.29,8,49,14.73,58.48Z" fill="param(accent_colour_1)"/>
    <path d="M 309.62,334.87 l -3-.47 c .1-.6,2.4-14.91,5-24.17,1.88-6.59,5.79-11.8,9.58-16.84,6.11-8.13,11.38-15.16,7.4-26.33 l 2.83-1 c 4.52,12.69-1.75,21.05-7.82,29.14-3.62,4.82-7.36,9.81-9.09,15.86 C 312,320.13,309.65,334.72,309.62,334.87Z" fill="param(accent_colour_1)"/>
    <path d="M 297.23,334.31,294.55,333 c 10-19.8,7.26-40.21,3.24-57.57-3.92-16.9-17.87-47.57-18-47.88 l 2.73-1.25 c .58,1.27,14.22,31.25,18.21,48.45 C 304.86,292.58,307.69,313.65,297.23,334.31Z" fill="param(accent_colour_1)"/>
    <path d="M 284.69,329.64 l -2.59-1.51 c 8.15-13.95,3.61-24.76-1.2-36.2-.56-1.32-1.11-2.65-1.65-4 a 184.21,184.21,0,0,1-8.33-28.52 l 2.94-.58 a 181,181,0,0,0,8.17,28 c .53,1.32,1.08,2.63,1.63,3.94 C 288.55,302.38,293.6,314.4,284.69,329.64Z" fill="param(accent_colour_1)"/>
    <path d="M 315.39,333.15 c -.23-18.69,7-35.44,19.46-44.8,7.29-5.5,11-11.79,11-18.69,0-7.68-4.73-15.67-13-21.91-7.82-5.91-12.44-20.3-12.64-20.91 l 2.86-.91 c 0,.14,4.53,14.09,11.58,19.42,9,6.82,14.19,15.68,14.18,24.31,0,7.79-4.22,15.08-12.19,21.09-11.65,8.79-18.48,24.62-18.26,42.37Z" fill="param(accent_colour_1)"/>
  </g>
  <g id="outline">
    <path d="M 312.09,294.54 c -20.33,6.83-33-6-33-6 C 290.59,303.21,305.92,298.71,312.09,294.54Z"/>
    <path d="M 365.39,536.54 c -7.67-9.33-13.5-25.33-14.67-38.17 a 470.67,470.67,0,0,1-1.17-53.83 c .67-21.67,1.5-47.67-2.33-66.5 a 92.54,92.54,0,0,0-20.67-41.33 c -7-8-6.61-14-2.67-23,3.86-8.83,7.69-12.67,10.19-21,10.17-.5,17.83-10,19.83-16,3.87-11.6.82-21.94-6.5-27.5-8.33-6.33-18.37-7.33-23.19-24 a 14.49,14.49,0,0,0-6,1.5 s 11.19,19.5,11.53,38.83 c -6.46-4.46-28.83-16.5-46.53-41.33 a 20.79,20.79,0,0,1-7.71,3.29 s 7,10.88,1.38,23-14.62,11-14.62,11,.88,11.5,4.5,20.25,8.75,13.25,11.88,20.75,2.63,19.38-2.62,25.5-19,13.5-26.88,32.75-7.37,50.38-6,66.63,7.13,47.13,4.13,69-10,35.75-17,47.5 c 6.75-.24,12.16,3.79,16.43,3.78 a 17.52,17.52,0,0,1-2,3.05,42.84,42.84,0,0,1,12,2 c 4,1.33,8.24,2.43,10.67,3-.22.66-.44,1.32-.67,2,6.65,2.75,21.31,3.86,25.09,4.11 a 14.24,14.24,0,0,1-1.25,2.39 c 14.5,5.67,44,2.17,57.33-10.33-.45-1.21-.9-2.49-1.36-3.8 C 350.45,548.84,360.37,545,365.39,536.54Z m -89.5-243 c -4-5.83-10.67-16.33-11.33-30.33,8.5-.83,21.83-13.67,13.83-34.33 a 29.23,29.23,0,0,0,4.5-1.83 s 10.69,17.5,48,41 c 2-17.83-10.49-40.31-10.49-40.31 l 2.63-.86 s 5.42,13.62,14,17.75 c 21.75,10.5,17.63,28.25,13.38,35.5-6.26,10.68-18.33,11.08-18.33,11.08 s -.86,5.33-5.53,13.17-9,17.83-7.17,23.33 c .27.8.58,1.59.91,2.38-14.28,9.31-36.63-1.48-40.62-3.54 a 23,23,0,0,0,2.87-9.16 C 283.89,305,279.89,299.38,275.89,293.54Z m 69.75,253.86 a 225.65,225.65,0,0,1-9.92-52.2 c -1.83-24.5-.17-66-.5-77.17 s -6-27.67-6-27.67,4.33,20.17,4.17,33.67-.83,41.5-.83,52.17.17,43,12.83,77.17 c -10.67,8-32,14.17-51.67,9.5,6.17-16.67,6.33-45,5-59.67 s -3.33-45.33-3.17-52.33 c 0,0-1,23.17.67,48.17,1.43,21.52.4,48.1-3.54,60.39-3.59-.38-15.66-1.78-22.13-3.89,8.33-25.17,7.5-56,6.33-74.83 s -6.83-58.17-3.83-89.67 c 0,0-4.83,12.5-.67,62.33,3.93,47,4.15,73.12-4.1,99.58 a 44.33,44.33,0,0,1-6.57-1.42 c -3.67-1.17-9.17-2.67-12.83-2.67,8-14.5,17.17-43,12-73.17,0,0,1.5,27.33-5.17,48.83-3.37,10.88-6.15,17.44-8.07,21.28 a 12.73,12.73,0,0,1-4.77-1.32 c -2.5-1.37-5-2.87-8-3,9.25-14,13.88-33.87,15.25-45 s .25-33.12-2.42-55-3.67-40-1-58.33,8-31.17,17.17-40.33 c 5.55-5.55,10.72-9.21,14.24-14,24.89,14.41,40.17,5.94,43.41,3.75 a 58.57,58.57,0,0,0,8,11.21 c 4.83,5.5,14,24,16.33,40 s 2.33,35.83,1.83,50.33-1.5,52,1.83,71.17,12.83,31.33,12.83,31.33 S 358.07,543.61,345.64,547.41Z"/>
  </g>
<script type="text/ecmascript" xlink:href="param.min.js"/> 
</svg>
