<?xml version="1.0"?>
<svg xmlns="http://www.w3.org/2000/svg" xmlns:xlink="http://www.w3.org/1999/xlink" viewBox="0 0 215 215">
  <title>basic-v-neck-t-shirt-hourglass</title>
  <g id="skin-tone">
    <path d="M 117.13,123 a 43.39,43.39,0,0,0-9.69-1.51,45.08,45.08,0,0,0-12.32,1.33,329.07,329.07,0,0,0,2.54,37 c 1.61,11.14,2.53,16.71,5.78,25.28,1.44,3.64,2.31,6.77,6,6.23 s 4.64-3.81,5.15-7.4,1.58-22.81,1.58-30.28-.09-24,.73-29.38 C 117,123.91,117.06,123.47,117.13,123Z" fill="param(skin_tone)"/>
  </g>
  <g id="main-colour">
    <path d="M 119,112.09 a 3.23,3.23,0,0,0-.17-.43 c 0-.16,0-.34,0-.5 a 12,12,0,0,0-18.84-13.24,12.39,12.39,0,0,0-4.3,11.92 c -.71,2.44-3.17,10.87-4.18,14.22 a 12.13,12.13,0,0,0,3.15,2.19V123 s .56-.2,1.58-.46 a 46.77,46.77,0,0,1,16.8-.5,38.27,38.27,0,0,1,4,1 c -.21,1.32-.3,2.2-.3,2.2 s 2.21-1.07,2.68-1.87 A 55.39,55.39,0,0,1,119,112.09Z" fill="param(main_colour)"/>
  </g>
  <g id="outline">
    <path d="M 120.13,123.59 a 71.23,71.23,0,0,1-.17-11.75 h 0 a 13.47,13.47,0,0,0-.57-6.26 c .24,2.19-.52,4-1.16,6.27 a 77.64,77.64,0,0,0,.12,10.79 c -11.49-3.78-22.23-.93-25.57.16 A 93.35,93.35,0,0,0,96,110.73 a 13,13,0,0,1-.41-3.36v-2.51 a 3.59,3.59,0,0,0-2,3.5,13.53,13.53,0,0,0,.43,3.27,93.7,93.7,0,0,1-3.26,12.8,11.37,11.37,0,0,0,3.13,2.28 c .14,5.87.54,13.13,1.53,21.93,2.69,24.16,4.85,32.3,8.16,39.62 a 6.5,6.5,0,0,0,.63,1.35 l .07.14,0,0 c .12.18.24.36.38.54 a 5.91,5.91,0,0,0,8.29,1,5.85,5.85,0,0,0,1.92-2.71 h 0 c .08-.28.16-.61.23-1,0,0,0-.1,0-.15.23-1.19.41-2.6.48-3.29.33-3.49,2.11-38.5,2-50.35 a 66.38,66.38,0,0,1,.53-8.44 A 14,14,0,0,0,120.13,123.59Z m -27.48.61,1.12-.34 c 0,.34,0,.69,0,1 A 11.8,11.8,0,0,1,92.65,124.21Z m 22.49,34.19 c -.2,4.37-.67,12.92-.88,17.43-.09,1.87-.19,4.16-.34,6.37 a 41.55,41.55,0,0,1-.87,5.32,3.87,3.87,0,0,1-1.37,2.2,3.78,3.78,0,0,1-4.88,0 s -.21-.2-.23-.19 c -1-.81-2.61-4.62-2.83-5.15 a 95,95,0,0,1-4.5-18.23 c -1.31-9.91-3.47-36.32-3.37-42.77 a 48.89,48.89,0,0,1,20.49.09 c -.25,2.2-.45,4.15-.63,5.51 C 115,134.09,115.35,153.71,115.14,158.39Z"/>
  </g>
<script type="text/ecmascript" xlink:href="param.min.js"/> 
</svg>
