<?xml version="1.0"?>
<svg xmlns="http://www.w3.org/2000/svg" xmlns:xlink="http://www.w3.org/1999/xlink" viewBox="0 0 250 250">
  <title>OA030-strappy-heel-voluptuous</title>
  <g id="main-colour">
    <path d="M 107.06,211.29 s 10.63,3.69,18.31-.81 c -.06,2.69.25,6,.25,6 s -9,4.69-15.87,1 C 108.18,213.79,107.06,211.29,107.06,211.29Z" fill="param(main_colour)"/>
  </g>
  <g id="outline">
    <path d="M 125.94,209.29 c -7.44,5.75-20.23,1-20.23,1 s 1.6,3,3.67,7.83 c 8.31,3.88,16.94-1.44,16.94-1.44 S 126.06,212.61,125.94,209.29Z m -15.69,7.88 c -1.31-3.19-2.17-5.1-2.17-5.1 s 8.63,3.25,16.6-.52 c .13,2.31.25,4.44.25,4.44 S 117.31,220,110.25,217.17Z"/>
  </g>
<script type="text/ecmascript" xlink:href="param.min.js"/> 
</svg>
