<?xml version="1.0"?>
<svg xmlns="http://www.w3.org/2000/svg" xmlns:xlink="http://www.w3.org/1999/xlink" viewBox="0 0 215 215">
  <title>midi-crew-neck-baggy-t-shirt-hourglass</title>
  <g id="skin-tone">
    <path d="M 116.33,134.23 A 70.39,70.39,0,0,0,95.45,134 c .43,8.94,1.25,19.15,2.21,25.81,1.61,11.14,2.53,16.71,5.78,25.28,1.44,3.64,2.31,6.77,6,6.23 s 4.64-3.81,5.15-7.4,1.58-22.81,1.58-30.28 C 116.19,149.07,116.16,141,116.33,134.23Z" fill="param(skin_tone)"/>
  </g>
  <g id="main-colour">
    <path d="M 106,133.32 a 54.6,54.6,0,0,1,10.63,1,35,35,0,0,0-.12,4.38 s 4.4-2.38,4.88-3.19 c -.62-4.37-2.59-22.09-2.35-23.42 a 3.23,3.23,0,0,0-.17-.43 c 0-.16,0-.34,0-.5 a 12,12,0,0,0-18.84-13.24,12.39,12.39,0,0,0-4.3,11.92 c -.71,2.44-5.58,22.23-6.59,25.58,1.06,1.19,6.21,3.08,6.21,3.08 l -.06-4.62 A 90,90,0,0,1,106,133.32Z" fill="param(main_colour)"/>
  </g>
  <g id="outline">
    <path d="M 122.56,135.89 c -.58-3.92-2.69-22.46-2.61-24 h 0 a 13.48,13.48,0,0,0-.57-6.26 c .25,2.19-.52,4-1.16,6.27 h 0 s 1.78,17.31,2.54,22.72 a 63.36,63.36,0,0,0-30.54-.23 c 2.88-9.29,5.73-23.61,5.73-23.61 h 0 a 13,13,0,0,1-.41-3.36v-2.51 a 3.59,3.59,0,0,0-2,3.5,13.53,13.53,0,0,0,.43,3.27 h 0 s -3.14,15.32-5.82,24 c .87,1.19,5.19,2.89,6.31,3.32.23,3,.52,6.22.91,9.69,2.69,24.16,4.85,32.3,8.16,39.62 a 6.49,6.49,0,0,0,.63,1.35 l .07.14,0,0 c .12.18.24.36.38.54 a 5.91,5.91,0,0,0,8.29,1,5.85,5.85,0,0,0,1.92-2.71 h 0 c .08-.28.16-.61.23-1,0,0,0-.1,0-.15.23-1.19.41-2.6.48-3.29.29-3.08,1.71-30.73,2-45.31 C 118.88,138.25,121.69,136.89,122.56,135.89Z m -31.91-.39 c 1.14-.31,2.31-.57,3.5-.77q.07,1.15.15,2.35 A 34.67,34.67,0,0,1,90.65,135.49Z m 23.61,40.33 c -.09,1.87-.19,4.16-.34,6.37 a 41.51,41.51,0,0,1-.87,5.32,3.87,3.87,0,0,1-1.37,2.2,3.78,3.78,0,0,1-4.88,0 s -.21-.2-.23-.19 c -1-.81-2.61-4.62-2.83-5.15 a 95,95,0,0,1-4.5-18.23 c -.89-6.75-2.18-21.15-2.88-31.7 a 75.58,75.58,0,0,1,19,.5 c -.22,7.91-.07,19.95-.23,23.49 C 114.94,162.76,114.47,171.32,114.26,175.83Z m 3.31-40.58 c 1.23.21,2.21.4,2.89.54 a 18.54,18.54,0,0,1-2.9,1.44 C 117.57,136.53,117.58,135.87,117.58,135.25Z"/>
  </g>
<script type="text/ecmascript" xlink:href="param.min.js"/> 
</svg>
