<?xml version="1.0"?>
<svg xmlns="http://www.w3.org/2000/svg" xmlns:xlink="http://www.w3.org/1999/xlink" viewBox="0 0 600 600">
  <title>nurse-voluptuous</title>
  <g id="main-colour">
    <path d="M 368.86,387.71 c -.67-10.33-1.67-36.17-5.33-47.83-2.56-8.15-7.57-18.25-13.59-25-.28-.5-.56-1-.86-1.48-3.74-6.12-7.64-11-8.26-15.9-.32-2.49.7-7,2.05-12.07,10.83-9.58,9.33-19.47,7.39-25.15 a 18.42,18.42,0,0,0-3.93-6.21,16.55,16.55,0,0,0-9.38-26.6 h 0 c -1.56-1-4.23-1-7.38-.45-.66-4.79-7.38-6.78-7.38-6.78 a 18.06,18.06,0,0,1,0,3 l -.12-.25 c -.85,7.3-1.93,13.59-2.82,16.43-1.37,4.38-3.5,10-5.25,15-1.4-3.49-15.82-12.42-20.24-14.83 a 42.81,42.81,0,0,1-12.83-10.83,10.48,10.48,0,0,1-1.29-2.32 c 0-.06,0-.12,0-.18 a 8.65,8.65,0,0,1-.49-1.08,17.14,17.14,0,0,1-.49-2.15 l -.08.18 a 9.55,9.55,0,0,1-.19-3 c -5.77,1.31-6.31,5.42-6,8.12 a 49.32,49.32,0,0,0-11.5-2.15 c -6.75-.25-13.12,4.13-15.87,9.63 s -2.75,12.13,1.5,18.75 c -2.47,13.44.3,22.88,3.62,33.57 a 44.16,44.16,0,0,1-2.33,13.67 c -4,11.17-7.67,16-12.5,27 s -11.83,29.33-10.67,51.5,4.67,32.83,4.5,40.5 a 148.38,148.38,0,0,1-1.67,17 S 234,437,247.19,440 s 35,10.83,65.5,10.33,47.83-9.17,63.67-23.17 C 369.36,415.54,369.52,398,368.86,387.71Z" fill="param(main_colour)"/>
  </g>
  <g id="fixed-colours">
    <path d="M 274.14,222.71 s -.42,5.58,2.17,8.75,6.17,4.83,9,6.67,6.92,4.17,6.92,4.17 L 292,244 a 92.46,92.46,0,0,1-11.25-6 C 275.89,234.8,269.47,228.88,274.14,222.71Z" fill="#fff"/>
    <path d="M 294.05,249.21 s 11.92.83,18,3.42 a 6.16,6.16,0,0,1,1.08,1.92 s -10.75-2.83-18.25-2.83 C 294.39,250,294.05,249.21,294.05,249.21Z" fill="#fff"/>
    <path d="M 323.05,244.88 s -5.33,2.33-7.5,6.5 a 7.71,7.71,0,0,0-.75,2.92 s 5.17-5.67,8.92-7.08 A 12.92,12.92,0,0,0,323.05,244.88Z" fill="#fff"/>
    <path d="M 322,239.8 s 6-5.08,7.17-8.67 a 9.13,9.13,0,0,0-.42-6.58 s .17,5.75-7.58,13.33Z" fill="#fff"/>
    <path d="M 280.55,266.21 s 15.83,3.08,22.83,1.17 c -.33,2.17-.5,4.58-.5,4.58 a 53.6,53.6,0,0,1-22.5-1.83 A 19.46,19.46,0,0,1,280.55,266.21Z" fill="#fff"/>
    <polygon points="334.47 265.46 339.22 264.05 340.05 267.38 343.64 266.21 344.39 268.13 335.64 270.21 334.47 265.46" fill="#fff"/>
    <path d="M 346.89,260.8 l 1.42,2.92 L 346.22,265 l .83,2.33 s 2.88-1.17,3.77-2.79 A 22.9,22.9,0,0,0,349,259.3Z" fill="#fff"/>
    <polygon points="285.75 278.52 289.17 278.51 289.32 275.76 292.64 275.96 292.51 278.42 295.8 278.8 295.64 281.71 292.39 281.55 291.97 284.46 288.89 284.55 289.11 281.26 285.86 281.19 285.75 278.52" fill="#f0356a"/>
    <path d="M 339.32,264.13 l 7.5-3.58,1.42,3.17-2,1.42,2,6 a 4.74,4.74,0,0,1,2,1.25 c -.67,2.25-1.83,5.42-1.83,5.42 s -2.83.67-3.92-1.5 a 3.75,3.75,0,0,1,1.08-4.58 c -.75-2.08-1.92-5.5-1.92-5.5 l -3.58.83Z" fill="#d6d6d6"/>
  </g>
  <g id="outline">
    <path d="M 286.64,294 c -8.25-1.92-14.25-9-14.25-9 A 22,22,0,0,0,286,295.63 c 8.33,2.25,13.5-1.25,13.5-1.25 S 294.89,295.88,286.64,294Z"/>
    <path d="M 367.22,351.54 c -3.67-23.5-19.75-43.67-22.5-47.67 s -3.17-7.17-2.33-11.83 a 44.11,44.11,0,0,1,1.71-6.61,20.8,20.8,0,0,0,4.29-4.23,21.43,21.43,0,0,0,3.67-18.58,25,25,0,0,0-10.17-13.83 c -4.25-3-7.92-6.17-7.92-6.17,1.42,2.08,6,7.25,8,8.67 a 19.77,19.77,0,0,1,6,7.23,42.48,42.48,0,0,1-14.69,5.85 c 1.58,5.42,2.83,15.58,2.83,15.58 l 8.91,1.95 a 31.75,31.75,0,0,1-7.08,6,10.67,10.67,0,0,0,3.49-.92 c -4.39,9.35-.65,15.87,3.6,21.59 s 12.83,20.83,17.5,33,4.83,42.33,5.5,51.33.67,20.67,6.83,34.67 C 360.59,440.1,346,445,331,447.31 c .46-7.59,2-34.49,1-50.68-1.12-19-2.75-32.37-6.75-48 s -6-27.12-5-39.5,3-34.37-2.5-49.12 a 26.42,26.42,0,0,0-2.53-5.09,27,27,0,0,1,9.08-7.36 c -.53-2.88-1.13-5.34-1.69-7.3,1.56-1.27,6.54-5.66,7.52-10.7 a 8.83,8.83,0,0,0,.16-2,20.6,20.6,0,0,1,6.76-.09 c -1.87-1.47-5.55-1.44-6.94-1.37-1-4.21-5.59-6.14-8.48-6.88,0,0,.17,13.5-4.17,24.08-1.42,3.65-3,8.18-3.55,9.76-5.11-6.54-12.71-9.3-20.91-14.8-10.62-7.12-14.5-12.12-14-19,0,0-4.5-.62-7,5.13 a 6.17,6.17,0,0,0-.51,2.59,48.14,48.14,0,0,0-8.43-1.77,18.61,18.61,0,0,0-17.56,29.06 c -1.25,6.44-1.5,15.69.31,22.88 a 95.11,95.11,0,0,0,3.66,11 c -1,17.59-10.18,28.76-18.77,50.62-8.83,22.5-8.5,48.33-5.5,61.67 s 3.17,28,.5,38.17 c 9.5-.67,27,4.17,44.5,8.5 s 36,6,59.33,3,41.5-14.33,48.33-22.33 C 368.72,416,370.89,375,367.22,351.54Z m -26.83-84.83-.65-2.34 a 71.29,71.29,0,0,0,6.86-3.11,21.43,21.43,0,0,0,1,2.37 C 345.64,265.21,340.39,266.71,340.39,266.71Z m 3.7-.31 c .65-.27,1.26-.56,1.83-.83 l 1.76,5 a 3,3,0,0,0-1.16.17,6.41,6.41,0,0,0-.81.38Z m 6,5.2 a 3.6,3.6,0,0,0-1.66-.93 l -1-3 a 11.1,11.1,0,0,0,2.87-1.71 A 19.92,19.92,0,0,1,350.06,271.61Z m -3.24.15 a 3.14,3.14,0,0,1,3,.91,20.68,20.68,0,0,1-1.67,4.58,2.71,2.71,0,0,1-3.59-1.62 A 3,3,0,0,1,346.82,271.75Z m 2.4-10.37 a 19.82,19.82,0,0,1,.92,3.67,13.55,13.55,0,0,1-3,1.78 l -.53-1.59 c 1.38-.71,2.32-1.28,2.32-1.28 l -1.46-3.14,1.3-.7 C 348.9,260.53,349.06,260.94,349.22,261.38Z m -10.43,3.34 c .16.54.44,1.54.85,3.07 a 18.88,18.88,0,0,0,3.79-1.12 l .43,1.21 a 74,74,0,0,1-7.91,1.83 c -.23-1.39-.48-2.75-.72-3.92 A 31.78,31.78,0,0,0,338.79,264.72Z m -1.48,14 s -.53-3.93-1.19-7.95 a 74.34,74.34,0,0,0,8.08-1.92 l .93,2.64 a 3.58,3.58,0,0,0-1.43,4.39,3.27,3.27,0,0,0,3.91,2.38,24,24,0,0,1-1.63,2.49Z m -21.9-25.84,1-2.54 a 20.23,20.23,0,0,1,6.33-4.94 c .11.45.2.87.27,1.23 A 33.39,33.39,0,0,0,315.4,252.87Z m 13.32-23.16 c -.86,3.52-5.31,8-6.52,9.12-.12-.39-.24-.76-.35-1.1 a 35.27,35.27,0,0,0,5.12-6.53,16.58,16.58,0,0,0,1.78-4.65 A 6.51,6.51,0,0,1,328.72,229.71Z m -5.83-8.42 a 9,9,0,0,1,5.26,3.76 c 0,2-1,6-6.51,12-.23-.68-.42-1.2-.55-1.54 C 322.29,230.33,323.26,224.4,322.89,221.29Z M 319.05,243 c .47-1.4,1-3.28,1.54-5.37.41,1.43,1.35,4.72,2,7.21 a 15.77,15.77,0,0,0-5.7,4.28 C 317.6,247.06,318.41,244.87,319.05,243Z m -25.87-2.58 c 4.85,2.92,12,7.2,16.66,11.06 A 62.2,62.2,0,0,0,295,249 C 294,245.14,293.42,241.85,293.18,240.38Z m 17.78,12 c .48.44.92.87,1.32,1.29 a 130.48,130.48,0,0,0-16.81-2.81q-.18-.65-.34-1.28 C 297.37,249.82,305.65,250.72,311,252.41Z m -33.08-31.28 c -.37,6.63,7.13,13.88,10.88,16.5.52.36,1.29.85,2.23,1.43.1.66.25,1.54.43,2.58-1.65-1-6.76-4.14-9-5.67-2.66-1.77-8.34-4.5-7.73-12.73 A 4.78,4.78,0,0,1,277.89,221.13Z m -4,3.54 a 11.22,11.22,0,0,0,4.22,9.12,136,136,0,0,0,13.5,8.52 l .15.78 c -2.9-1.23-10-4.52-15.06-9.09 C 273,230.74,272.77,227.21,273.84,224.67Z M 262.89,443 c -7.67-1.83-23.83-7.17-34.17-6.67,2.83-9,.83-27.5-1.17-38.17 s -3.33-30,1.83-47.33,12-30.67,16.5-40.5 a 68.62,68.62,0,0,0,5-18.62 c .53,1.36,1,2.56,1.28,3.55,1.19,3.88,3.25,11.38,3.56,14.31,0,0-1.12-13.5-4.87-24.12 s -5.17-19.54-3.17-31.62 c -4.25-4.58-4.83-13.25-.83-19.25 a 16.87,16.87,0,0,1,15.25-7.5,43.39,43.39,0,0,1,9.7,1.89 c 1.77,5.81,10.3,12,20.21,15.85 a 68.54,68.54,0,0,0,1.92,7.51 c 7.64.7,16.87,2.4,19.61,2.93,4.15,6.08,7.16,21.31,5.93,36.32-1.25,15.25-3.37,29.38.63,45.13 s 8.75,32.63,9.63,58.63 c .74,21.88-.39,45.34-.76,52.23-4.44.63-8.93,1.06-13.45,1.43 C 295.05,450.71,270.55,444.88,262.89,443Z"/>
    <path d="M 279.64,264.88 s -.92,12.33-.33,18.5 a 44.13,44.13,0,0,0,10.75,7.83 s 9.83-4.58,12.25-6.58 c 1.08-8.42,2-18,2-18 S 290.89,268.38,279.64,264.88Z m 10.67,24.42 a 65.05,65.05,0,0,1-9.58-6.92 s .09-6.64.28-11.39 c 8.42,2.6,18.53,2,21.1,1.78-.62,5.17-1.21,10.78-1.21,10.78 S 292.8,288.21,290.3,289.29Z m 12.33-20.83 c -.11.86-.23,1.81-.35,2.79-8.94,1.58-18.43-.64-21.24-1.39.05-1.13.11-2.09.17-2.73 C 281.22,267.13,295.05,270.21,302.64,268.46Z"/>
    <path d="M 293.3,275.13 l -4.5-.33-.12,3-3.58-.17-.12,4,3.58.17-.17,3.08,4.17.25.33-3,3.42.17.25-4.21-3.33-.12Z m 2,4.25,0,1.63-3.21,0-.31,3.17-2.36-.17.17-3-3.5-.29,0-1.79,3.52.13.11-2.92,2.46.13v3Z"/>
  </g>
<script type="text/ecmascript" xlink:href="param.min.js"/> 
</svg>
