<?xml version="1.0"?>
<svg xmlns="http://www.w3.org/2000/svg" xmlns:xlink="http://www.w3.org/1999/xlink" viewBox="0 0 600 600">
  <title>police-shirt-curvy</title>
  <g id="main-colour">
    <path d="M 341.75,279.38 c 2.33-6.58,3.26-7.47,2.25-17-1-9.29-3.78-14.76-3.78-14.76 h 0 a 12.69,12.69,0,0,0-6.41-19.85 h 0 c -2.92-1.7-7.61-.68-10,0-2.86-5.39-9.3-6.38-9.3-6.38 a 17.42,17.42,0,0,0,2.44,4.31,4.79,4.79,0,0,1,3.62,3.52 A 13.56,13.56,0,0,1,320,234 c -1.62,4.88-3.49,9.25-9.49,12-16.62-.37-25.26-10.5-28-16.12 a 14.25,14.25,0,0,1-.78-2,14.82,14.82,0,0,1-.28-3.3,15.64,15.64,0,0,0,3.44-5.19,7.5,7.5,0,0,0-6.69,3.13,24.94,24.94,0,0,0-2.92,6.84,55.78,55.78,0,0,0-10.69-3,13.69,13.69,0,0,0-13.87,6.13 c -4.62,8.75-.12,15.63,3.88,18.5-2.75,22.25,4.63,35.5,7.25,40.25 s 4.63,8.5,5.5,15.13 c 1.1,9.5-4,16.2-9.73,23.87 a 87.52,87.52,0,0,0,22,9.41 c 14,3.55,40.07,8.66,58.08-9.32 a 47.12,47.12,0,0,1-2.54-6.34 c -2.5-7.75-1.58-17.67-.5-22.83 S 339.41,286,341.75,279.38Z" fill="param(main_colour)"/>
  </g>
  <g id="accent-colour-1">
    <path d="M 257.58,330.22 A 88.6,88.6,0,0,0,307.15,343 c 15.25-.87,24.88-5.62,31-13.87,3.38,5.75,11.38,19.88,15.25,32 a 276.53,276.53,0,0,1,8.75,39.63 c 1.38,10,3,23.13,5.25,26.5-6.87,9-14.37,17.13-32.5,20.13 s -29,1.88-45-1.62 S 251.15,434,238.9,438 c 4.75-15.37,4.5-24.62,3.5-35.12 s -2.25-22.37.13-37.37 A 77.94,77.94,0,0,1,257.58,330.22Z" fill="param(accent_colour_1)"/>
  </g>
  <g id="fixed-colours">
    <circle cx="316.57" cy="347.13" r="2.34" fill="#ffcc50"/>
    <path d="M 311.12,247.25 s 12.13,9.13,16.38,22.75 c -1.75,8.5-6.25,17.75-9,22.63 a 96.65,96.65,0,0,1-13.5-18 C 306.12,263.75,307.87,254,311.12,247.25Z" fill="#fff"/>
  </g>
  <g id="outline">
    <path d="M 317.92,259.34 s -.75-2-1.62-4.37 a 20.38,20.38,0,0,0-4.25,1.25 l .94,4.25 C 315,259.9,317.92,259.34,317.92,259.34Z"/>
    <path d="M 314.11,264.34 c -.62-2.5-1.12-3.87-1.12-3.87 s -2.62.75-4.12,1.25 c .69,2.5,1,4.13,1,4.13 S 312.61,264.34,314.11,264.34Z"/>
    <path d="M 315.3,268.34 a 34.83,34.83,0,0,1,5-.87,24.7,24.7,0,0,0-1-4.37 s -3.5.75-5,1.25 C 314.8,266.09,315.3,268.34,315.3,268.34Z"/>
    <path d="M 316.17,273 s -.25-1.87-.87-4.62 c -1.62.5-4.37,1.75-4.37,1.75 a 38.26,38.26,0,0,1,1.25,4.88 C 312.42,274.34,316.17,273,316.17,273Z"/>
    <path d="M 320.3,267.46 s .38,2.25.56,4.44 a 11.13,11.13,0,0,1,3.94-.19 s -.12-2.5-.37-4.5 C 323,267.21,320.3,267.46,320.3,267.46Z"/>
    <path d="M 316.17,273 l .88,5.25 a 27.74,27.74,0,0,1,4.13-.87 c -.12-3.12-.31-5.44-.31-5.44 A 25.64,25.64,0,0,0,316.17,273Z"/>
    <path d="M 313.17,279.71 s .31,2.19.75,4.75 a 13.72,13.72,0,0,1,3.63-1.12 s -.12-2.12-.5-5.12 A 20.58,20.58,0,0,0,313.17,279.71Z"/>
    <path d="M 299.87,278.08 s .24-11.41.14-14.83 c -9.37,1.8-19.58-.41-19.58-.41.23,4.76.8,15.19.8,15.19 a 32.37,32.37,0,0,0,8.88,5.69 C 293.86,282.79,299.87,278.08,299.87,278.08Z m -1.31-13 c 0,.7,0,1.49,0,2.31 a 59.43,59.43,0,0,1-8.15,4.1,75.21,75.21,0,0,1-8.2-4.46 l -.08-2.29 A 46,46,0,0,0,298.56,265.05Z m -16.29,3.3 a 73.77,73.77,0,0,0,8,4.36,49.47,49.47,0,0,0,8.25-4.14 c 0,4.08-.18,8.56-.18,8.56 s -5,4.15-8.16,5.08 a 41,41,0,0,1-7.65-4.74Z"/>
    <circle cx="314.9" cy="298" r="1.13"/>
    <circle cx="313.92" cy="306" r="1.13"/>
    <circle cx="313.1" cy="314.13" r="1.13"/>
    <circle cx="312.64" cy="322" r="1.13"/>
    <circle cx="312.64" cy="330.63" r="1.13"/>
    <circle cx="313.5" cy="338.88" r="1.13"/>
    <path d="M 284.2,288.21 c 9.33,2.67,18.5-.67,20.83-6.17 C 293.87,289.88,284.2,288.21,284.2,288.21Z"/>
    <path d="M 363.89,404.5 c -1.87-14.87-5-31.25-9.25-43.12 s -11-25.87-15.08-31.75 a 30.5,30.5,0,0,1-4.67-12.08 c -2.47-14.28,5.86-30.6,8-39.32.12-.19.24-.39.36-.6 a 22.1,22.1,0,0,0,2.42-14.75,18.43,18.43,0,0,0-2.1-5.73,21.14,21.14,0,0,0-3.34-9.52,40.35,40.35,0,0,1,1.68,6.9 c -1.33-1.88-2.85-3.64-4.32-5.4-3.42-4.08-8.33-12.5-8.33-12.5,2.81,6.86,7.8,13.72,10.68,18.74-1.06,1.1-3.75,3.21-9.77,4.89.42,4.83,2.75,15,2.75,15 l 8,2.78 a 21.44,21.44,0,0,1-3.58,5.43,13.79,13.79,0,0,0,3-2.14 c -1.37,3.81-5.41,15.12-6.44,19.8-1.25,5.67-2.75,18.75,3.25,28.17-5.38,6.86-13.09,10-18.87,11.5-.81-2.1-2.69-8.27-1.9-18.79.87-11.58,2.61-25.74,3-29.12,2-3.53,7-13,8.77-22.67 a 45,45,0,0,0-7.69-14.55 c 5.18-6,8.11-19.66,5.22-26-.21-.47-.44-.91-.68-1.34 a 15.89,15.89,0,0,1,8.73-.53 c -3.68-2.27-8.05-1.34-9.62-.9 a 14.2,14.2,0,0,0-10.93-6.4,12.88,12.88,0,0,0,3.29,6.1 c 3.08-.17,4.6,4.56,1.28,11-3.67,7.08-7.49,7.67-7.49,7.67 a 33.53,33.53,0,0,1-16.92-4.75 c -6.57-4.15-10.08-8.08-11.24-14.83,2.13-1.87,3.75-6.75,3.75-6.75-2.75-.37-5.37.25-6.75,1.5 s -2.18,2.74-4.33,8 c -1-.4-3.17-1.25-5.24-1.89-2.81-.87-7.56-2.31-13.37,0 s -8.44,9.25-8.56,12.56.56,8.13,5.94,12.69 c -.75,5.69,0,14.94.94,21.25 a 55.08,55.08,0,0,0,7.69,20.69 l .05.08 c 1.22,2.62,2.59,5.6,3.14,7 a 22.64,22.64,0,0,1,.08,15.5 C 263.05,323,258,327,256.3,330.13 A 73.94,73.94,0,0,0,247.72,344 c -3.5,7.58-5.92,15.17-7.17,28.42 s 1.46,32.38,1,42.88 S 239,437,236.39,439.38 c 13.13-3.37,26.5.5,44.13,5.38 s 40.75,8.13,61.13,2.25,26.63-19.62,26.63-19.62 S 365.76,419.38,363.89,404.5Z m -23.38-148 a 23.53,23.53,0,0,1,1.32,3,17.41,17.41,0,0,1-2.82,5.08,34,34,0,0,1-6.62.58 l -.65-3.62 A 22.73,22.73,0,0,0,340.51,256.49Z M 334,274.13 l -1.43-8 a 60.28,60.28,0,0,0,6.78-.48 c .74-.57,2.11-3.3,2.9-5 a 23.08,23.08,0,0,1,.88,9.7,26.87,26.87,0,0,1-1.62,6.21Z m -7.74-2.19-1.46-.23.19,4.94,0,.07 a 30.14,30.14,0,0,0-3.79.62 l .5,5.38,1.23-.23 c -.37.92-.74,1.79-1.09,2.6 l -.13-2.37-4.12.63.31,4.5,2.85-.36 c -1.18,2.48-2,4-2,4 l -.36-.36-.45-3.26-2.38.21-1.15-1.32 c -.14-1-.4-2.26-.4-2.26 l -1.14.41 c -.93-1.15-1.89-2.4-2.81-3.71,1.14-.61,3.2-1.45,3.2-1.45 s -.44-2.37-1-4.75 c -1.16.42-3.93,1.82-4.75,2.25 l -.32-.57-.43-4.31-.6.27q.14-1.42.32-2.85 c .06.68.14,1.53.28,2.58 a 15.73,15.73,0,0,1,4.25-2.25 c .38,0-.5-2.12-.87-4.25 a 13.9,13.9,0,0,0-3.36,1.84 c .28-1.87.61-3.71,1-5.48 l 1.2-.48-.57-2.54q.21-1,.42-1.86 a 20,20,0,0,1,3.34-1.1 L 311,252 l -1,.23 c .24-.91.46-1.7.64-2.34 L 311,252 l 3.57-1,.22.23 L 316.3,255 l 1.5-.35 c 1,1.26,2.12,2.71,3.2,4.34 a 9.37,9.37,0,0,0-3.08.39 c .75,1.88,1.38,3.75,1.38,3.75 l 4-.43 c .28.51.56,1,.83,1.56 l .32,3,1.15.07q.57,1.3,1.1,2.68Q326.48,271,326.26,271.94Z m -5-41.19 c -.11-4.68-3.3-5.56-3.3-5.56 a 12.51,12.51,0,0,1-2-2.65,14.22,14.22,0,0,1,5.67,3.42 c 2.25,2.42,5.07,6.83,3.24,15.92-1.61,8-4.34,11.43-5.4,12.51 a 64.61,64.61,0,0,0-7.23-7.54 C 314.69,245,321.44,239.2,321.25,230.75Z m -42-8.06 a 5.05,5.05,0,0,1,4.06-2.56 l -1.37,2.63 s -2.12-.62-1.5,2.88,1.68,8.35,8.65,13.92 c 8.07,6.45,17.61,7.59,20.47,7.79 a 93.8,93.8,0,0,0-2.72,9.64 c -16.35-5.71-27.06-16.82-30-27.72 A 23,23,0,0,1,279.2,222.69Z M 268,314.21 a 28.62,28.62,0,0,0-.88-13.44 c 3.66,5.38,7.37,12,8,22 a 38.26,38.26,0,0,0-6.37-23.25 c -3.19-5-9-11.5-11.56-22.56 a 86.2,86.2,0,0,1-1.5-26.31 c -2.87-1.12-6-6.06-6.06-10.62 a 12.89,12.89,0,0,1,7.5-11.69 c 4.88-2.25,10.88-.31,12.38.13,1.16.34,4.08,1.24,5.34,1.63,7.17,20,28.08,27.68,31.53,28.82 a 107,107,0,0,0-2.08,15.58 c 2.06,5.25,10.4,15.34,13.27,18.73-.31,2.5-1.91,15.48-2.69,28.06-.68,10.89,1,17.53,1.75,19.94 l -1.24.26 c -5.83,1.17-31.58,3.17-56.5-11.67 C 263.8,323,267,319.38,268,314.21Z m -10.17,17 c 9.6,6.69,32.12,15.62,58.09,12,10.86-1.62,19.11-8.89,22.26-12.08.62,1.11,1.82,3.28,3.28,6 a 50.11,50.11,0,0,1-8.79,7.83 c -12.5,7.38-28.87,9.88-48.37,5.63-17.09-3.73-28.33-10.62-30.84-12.27 A 73.79,73.79,0,0,1,257.8,331.23Z M 331.51,447 c -16.5,2.88-38.5-1.5-46-3.5 s -33-10.37-44.25-7.37 c 3.75-9.25,2.63-28.62,2.13-35.75 s -2.87-24.25,1.75-41.37 a 95.8,95.8,0,0,1,7.42-19 c 17.33,11.86,47.14,17.09,65,13.13,15.36-3.41,22.89-11.92,24.77-14.34,3.12,6,7,14,9.11,20.22,3.75,11.25,6.13,19,8.38,33 s 4.5,31.88,5.88,34.75 C 358.89,437.75,348,444.13,331.51,447Z"/>
    <path d="M 294.39,428.63 c 14.5-5.75,33.75-32.5,35.75-50.25 C 322.64,404.88,294.39,428.63,294.39,428.63Z"/>
    <path d="M 315.39,423.38 c 6.75-1.25,16-10.75,18.25-18.5 C 328.64,413.88,315.39,423.38,315.39,423.38Z"/>
    <path d="M 316.56,350.09 a 3,3,0,1,0-3-3 A 3,3,0,0,0,316.56,350.09Z m 0-4.69 a 1.73,1.73,0,1,1-1.73,1.73 A 1.73,1.73,0,0,1,316.56,345.4Z"/>
  </g>
<script type="text/ecmascript" xlink:href="param.min.js"/> 
</svg>
