<?xml version="1.0"?>
<svg xmlns="http://www.w3.org/2000/svg" xmlns:xlink="http://www.w3.org/1999/xlink" viewBox="0 0 600 600">
  <title>voluptuous-top-template</title>
  <g id="main-colour">
    <path d="M 361.54,347.21 c -3.83-19-11-33.33-15.5-39.17 s -4.83-8.33-4.83-13.17 c 0-2.27.87-5.94,2-10 a 23.41,23.41,0,0,0,6.17-6.74 c 3.5-6,2.25-16-.5-20.5 a 29.88,29.88,0,0,0-4.3-5.14 C 343.86,250.79,343,249,342,247 a 135.78,135.78,0,0,0-12.83-20.33,9.21,9.21,0,0,1-5.08-1.58 c .25,14.25-4.07,18.36-7.5,21.13-4.5,3.63-11.58,4-19.42.13 s -16.54-17-20.21-21.87 a 13.06,13.06,0,0,1-6.62,2.71 c 13.33,13.17,9.33,24.33,3.17,32.17 s -18.67,9.67-28,6.67 c -.67,11.67,7.17,23.17,6.5,31.67 s -5.33,11.67-13.33,25.17-10,23.67-11.83,47 S 231,420.63,231,420.63 c 23.33-14.17,50.67-9.67,64.33-6.67 s 24,3.75,37.17,4.42,24,.17,37.67-4 C 369.54,396.71,365.38,366.21,361.54,347.21Z" fill="param(main_colour)"/>
  </g>
  <g id="outline">
    <path d="M 354,319.71 c -5.92-12.95-12.67-18.08-12.17-23.33 a 105.3,105.3,0,0,1,2.5-11.43,19.12,19.12,0,0,0,8-11.57,22.44,22.44,0,0,0-5.12-19.87,28.41,28.41,0,0,0-2.16-1.95 c -3.95-9.55-10.66-20.17-15.76-25.43 a 7,7,0,0,1-6.37-3 c 2.25,8.75-1.25,25.38-15.87,25.38 s -29.87-25.25-29.87-25.25 a 18,18,0,0,1-8.37,3.38 s 8.5,6.75,9.5,15.63-3.25,17.88-13.25,22-20.75.75-20.75.75.25,10.13,3.25,17.88,4.75,14,2.38,19.88 S 238.3,320,233.38,331 c -6.67,15-9,46.08-3,91.08,13.67-10.33,41-13.17,63.67-7.5 s 54,8.08,77.33.42 C 368.71,371.71,363,339.38,354,319.71Z m -25.67,97.92 a 208,208,0,0,1-35-5 c -12.83-3-40-6.33-61.83,6.83-1.5-19.67-5.33-36.08-2.17-63.08 s 14.67-40,18.33-45.5,7.17-12.5,4.17-21.33 a 119.84,119.84,0,0,1-5.17-22 s 14.17,3.5,23.5-3.83,9.67-14.17,9.83-19.5-5-14.17-8.5-16.67 a 14,14,0,0,0,5.33-2.17 c 5.83,9.17,14.34,21,25,23.67,9.17,2.33,16.38-.92,20.13-7.79,2.64-4.85,2.75-15,2.75-15 a 6.38,6.38,0,0,0,4.13,1.13 c 3.72,4.41,9.69,13.84,13.54,22-2.57-2-5.13-4-5.13-4,1.5,2.5,7.25,7.63,10.25,12.5 s 3.25,12.63,1.5,17.75-6.5,9.63-12.37,12.5 a 14.72,14.72,0,0,0,4.89-1.53 c -1,4.12-2,8.84-1.7,10.6.5,2.67,2,7,6,12.17 s 10.17,20,12.83,30.67,7.33,28,10.5,73.5 C 357.88,417.21,346.6,418.84,328.38,417.63Z"/>
    <path d="M 272.79,285.38 s 3.38,6.75,9.88,9.25,14.88,1,17.88-1.12 C 294.79,295.13,281,296.13,272.79,285.38Z"/>
  </g>
<script type="text/ecmascript" xlink:href="param.min.js"/> 
</svg>
