<?xml version="1.0"?>
<svg xmlns="http://www.w3.org/2000/svg" xmlns:xlink="http://www.w3.org/1999/xlink" viewBox="0 0 600 600">
  <title>one-piece-swimsuit-voluptuous</title>
  <g id="skin-tone">
    <g id="skin-tone-2" data-name="skin-tone">
      <path d="M 239.81,321.84 A 107.54,107.54,0,0,0,231.94,340 a 56.16,56.16,0,0,0-2.41,23.67 c -.59,10.54.21,21.65,3.91,29.75,8.77,16.25,24.06,22.91,39.56,21.75 s 24.93-12.78,24.93-12.78 l .48-.25 A 38.43,38.43,0,0,0,359,370.72 s 2.54-25.38-4.95-46.57 h 0 l -.08-.22v-.09 h 0 a 56.77,56.77,0,0,0-4.91-10.46 c -3.74-6.12-7.64-11-8.26-15.9-.33-2.58.77-7.32,2.2-12.62 a 29.83,29.83,0,0,0,2.54-2,20.35,20.35,0,0,0,6.25-17,20.82,20.82,0,0,0-5.79-12.1,16.11,16.11,0,0,0-9.08-25.94v-.39 c -2.24-1.41-6.76-.84-11.76.54-5.58-6-6.4-19.35-6.49-22.47 a 73.18,73.18,0,0,1-37.09.22 c .06,2.13.07,4.29,0,6.29-.37,8.5-6.12,17.25-6.12,17.25 s -7.75-2.87-14.5-3.12-13.12,4.13-15.87,9.63-2.75,12.13,1.5,18.75 c -2.5,13.63.38,23.13,3.75,34 s .5,15.5-3.37,21.38 c -1.81,2.75-4.39,6.9-7,11.76Z" fill="param(skin_tone)"/>
    </g>
  </g>
  <g id="main-colour">
    <path d="M 231.89,343 a 87,87,0,0,1,10.38-25.5 c 7.63-12.12,10.5-15.62,9.75-22.75 s -6.37-17.75-5.75-22.12 c 10.12,1.75,17.75.13,25.5-8.62 s 10-24.71.89-36.17 c 3-2.08,5-3.46,5-3.46 s 3.13,5.63,7.75,13.88,8.25,14.25,16.38,17.5,16.75,2.38,20.5-1,5.5-11.62,5.38-17.25 a 88.93,88.93,0,0,0-.75-9.87,14.3,14.3,0,0,1,5.5-.75 c -.37,4.75,0,11,3.13,16.38 s 10.5,8.75,13.13,14,6.63,17.88-5.5,27.63 c -1.37,5.75-3.62,11.88-1.12,16.38 s 12.25,17.5,14.25,29.13 c -9.5-.62-18.62,4-25.37,11.63 s -8.87,18.63-10,24.13-5.75,21-13.75,20 c 2.38-10.75,1.88-20.75-4.25-31.12 S 282,336.63,271,335.25 A 64.91,64.91,0,0,0,231.89,343Z" fill="param(main_colour)"/>
  </g>
  <g id="outline">
    <path d="M 271.15,226.83 s 5.56,6.91,6.45,14.55 c 1.17,10-2.14,22.18-15.17,28.75 a 22.2,22.2,0,0,1-17.58,1.08 l .25,2.33 s 8.9,2.92,19.33-2.5 c 10.58-5.5,23.26-24.07,9.14-43.45 C 272.7,227.35,271.15,226.83,271.15,226.83Z"/>
    <path d="M 276.94,224.88 s 4,6.84,9.78,17.33 c 5.83,10.67,16.17,17.79,29.17,16.17,18.28-2.28,11.35-31.62,11.35-31.62 l -1.5.38 s 5.43,28.15-10.1,29.5 c -25.87,2.25-28.53-21.12-38.15-33.75 A 4.58,4.58,0,0,0,276.94,224.88Z"/>
    <path d="M 331.36,226.05 a 5.35,5.35,0,0,1,1.7.11 s -1.92,13.09,6.45,21 l -1.58.46 a 23,23,0,0,1-6.08-12.71 C 331.46,232.3,331.36,226.05,331.36,226.05Z"/>
    <path d="M 325.73,227.13 s 4.13-1.69,7.33-1 c 0,.34-.23,1.44-.23,1.44 s -4.22-.41-6.53,1 A 12.09,12.09,0,0,0,325.73,227.13Z"/>
    <path d="M 271.15,226.83 a 8,8,0,0,0,6.33-4 c 0,.79,0,2.46,0,2.46 s -2.37,2.33-4.87,2.5 A 16,16,0,0,1,271.15,226.83Z"/>
    <path d="M 341.63,287 l 2.35-1.32 c 4.91-3.77,9.12-10.12,8.84-17.8-.33-9.25-5.1-15-11.68-19.5-1-.71-2-1.49-3-2.3 l -.2,1.57 c 1.52,1.47,3,2.79,4.29,3.82 a 21.61,21.61,0,0,1,8.08,14.67 c .92,6.67-3,13.92-7.11,17.33q-.37.31-.78.61Z"/>
    <path d="M 348.61,309.75 c -5.75-8.75-6.75-9.25-6.62-14,.08-2.87,1.2-7.51,2.38-11.87-.64.51-1.46,1.13-2.35,1.71-3.17,11-2.09,13.81-.53,17,1.63,3.38,10.5,13.75,13.88,27-8.5-1.62-24,5-30.12,19.5 s -8,35.75-17,36.25 c 4.13-19.75-3.5-30.37-10.12-37.75 s -31.75-22.87-64.5-6.25 c 2.25-11.37,9-22.37,13.75-30 s 6.63-10.5,5.38-18.25-4.37-13.12-5.25-19.87 a 8.83,8.83,0,0,1-2.62-2,41.66,41.66,0,0,0,2,9.42 c 1.75,5.33,4.75,12.67,4.17,17.75 a 23,23,0,0,1-5.42,11.83 c -2.25,2.75-12.67,18.5-15.33,35.58,15.08-12.25,43.17-12.08,56.83-3.92 s 19,19.83,20.08,29.17 a 39.38,39.38,0,0,1-1.33,16.17 s 6.25,1.29,9.88-5.33,6.5-16.75,7.63-21.87,5-16.5,15.25-23.25,19.25-5.25,19.25-5.25 S 354.36,318.5,348.61,309.75Z"/>
    <path d="M 269.05,276.93 c .35,10.66,10.19,19.07,20.58,18.45 A 30,30,0,0,1,278,290.07,29.52,29.52,0,0,1,269.05,276.93Z"/>
    <path d="M 245,272.57 l 2.6.5 a 60.83,60.83,0,0,1-.06-17.55 l .2-1.67 a 16.56,16.56,0,0,1,13.1-26.72 h 1.43 l 1,.07 h .12 a 49.15,49.15,0,0,1,10.55,2.41 c -.48-.81-1-1.61-1.45-2.36 a 50.41,50.41,0,0,0-8.84-1.95,18.48,18.48,0,0,0-2.19-.21 h -.69 a 18.6,18.6,0,0,0-18.58,18.55,18.41,18.41,0,0,0,3.34,10.57 A 63,63,0,0,0,245,272.57Z"/>
    <path d="M 306.26,385.49 a 38.62,38.62,0,0,1-23.79,26.45,39.61,39.61,0,0,1-20,1.91,38.44,38.44,0,0,1-15-6 A 38,38,0,0,1,236,395.71,39,39,0,0,1,230.85,381 c -.64-5-.34-10.16-.19-15.19q0-1.51.09-3 l -.06.17 a 127.32,127.32,0,0,1,2.85-21 l -2.27.9 c -.62.24-.52.43-.66,1.16q-.35,1.73-.62,3.48 a 114.48,114.48,0,0,0-1.26,12.81 c -.18,3.91-.2,7.82-.2,11.72 a 58.32,58.32,0,0,0,.93,12.47 A 40.81,40.81,0,0,0,249.3,411.4 a 39.15,39.15,0,0,0,19.22,5,40.07,40.07,0,0,0,23.25-7.09,42,42,0,0,0,7.68-6.88,40.42,40.42,0,0,0,6.28-9.79q.57-1.25,1-2.54.24-.64.46-1.3 l .21-.65 c .16-.5.08-.51.49-.7.67-.31,1.53-.33,2.24-.61 a 10.59,10.59,0,0,0,5.47-4.9 A 14.21,14.21,0,0,1,306.26,385.49Z"/>
    <path d="M 278.63,225.9 A 39.89,39.89,0,0,0,282.76,206q-1.13-.27-2.25-.57 a 4,4,0,0,0,.06.83,36.13,36.13,0,0,1-3.36,17.15Z"/>
    <path d="M 282.18,232.38 c 3.54.92,8,1.52,11.83.34-3.81.06-7.83-.78-13-2.5Z"/>
    <path d="M 332.09,227.28 a 20.19,20.19,0,0,1,4.86.15 A 10.66,10.66,0,0,0,332,226Z"/>
    <path d="M 357.49,330.5 h -2.3 c 5.67,20.36,3.81,41.39,3.81,41.39,1.9-.54,1.9-3.71,1.9-12.16 A 114.66,114.66,0,0,0,357.49,330.5Z"/>
    <path d="M 325.64,227.17 c -1.49-1.81-5.87-8.27-5.88-22q-1,.29-2,.54 c 0,5.66.78,16.48,6.08,22.26 l -.38.21 a 42.62,42.62,0,0,1-13.6,4.54 c 3.83.58,11.08-1.83,16.5-4.08 l .42-.15-.25-1.63Z"/>
    <path d="M 304.38,246.85 a 28.25,28.25,0,0,1,10,10.71 c .84-.06,1.51-.13,2-.22 A 27.59,27.59,0,0,0,304.38,246.85Z"/>
  </g>
<script type="text/ecmascript" xlink:href="param.min.js"/> 
</svg>
