<?xml version="1.0"?>
<svg xmlns="http://www.w3.org/2000/svg" xmlns:xlink="http://www.w3.org/1999/xlink" viewBox="0 0 600 600">
  <title>one-piece-swimsuit-hourglass</title>
  <g id="skin-tone">
    <g id="skin-tone-2" data-name="skin-tone">
      <path d="M 347.22,262.43 c -1.49-7.44-7.4-11-12.95-16 h 0 l -.22-.2 a 11.64,11.64,0,0,0-13.51-17.84V228 c -10.71-2.26-13.38-13.35-14.21-20.26-2.16.19-4.35.31-6.56.31 s -4.42-.12-6.6-.31 a 26.62,26.62,0,0,1-3.55,11 c -3.25,5.75-8.25,8.42-14.42,10.25-5.33-2.17-11.92-4-16.83-1.17 s -7.33,8-6.42,14,5.93,9.17,11,10.35 c -.08,8.08,1.5,22.33,4.83,29.25 s 9.33,14.42,11.92,17.92,4.42,9.42,2.92,18.08 c -.69,4-3.27,8.12-6.26,11.82 l .24.18 c -4,4.66-12.15,10-18.39,19.29 s -5.59,22.44-5.59,22.44 h 0v.1 a 25.5,25.5,0,0,0,45.14,16.26,25.51,25.51,0,0,0,37.88-30.14 c -.49-7.77-10.86-20.7-10.86-20.7-4.17-5.92-5.25-9-4.83-14.25 s 4.92-13.67,8.5-19.67,5.75-15.33,5.75-15.33,3.42.17,8.42-5.58 S 348.72,269.93,347.22,262.43Z" fill="#f9d9c7"/>
    </g>
  </g>
  <g id="main-colour">
    <path d="M 263.26,262.38 a 21.6,21.6,0,0,0,12.38-11.5 c 4.38-9.25,3.13-17.25.88-22.62 a 35.83,35.83,0,0,1,3.5-1.12 s 9,17,20.88,22.63,18.13,0,19.5-5.75-1.75-16.37-1.75-16.37 l 3.63-1.12 s 2.75,10.5,8.63,16.38,10.5,8.88,13.63,13.13,10.13,22.63-10.75,31.88 c -.87,5.88-4.12,12.75-7.5,18.38 s -7.25,13.88-6.12,20,8.75,15.25,8.88,16.63 c -5.12,3.38-8.25,9.5-10.25,16 s -3.75,13.13-5.12,18-5.12,10.5-14.75,11 c 4.75-6.25,6.75-12.87,5.25-21.75 S 297.26,349.75,285,345.5 s -24.75.38-24.75.38,8.13-7.87,12.5-12.5,9.88-10.62,10.25-18.75-.62-11.87-5.5-18.12 S 263.64,276.88,263.26,262.38Z" fill="param(main_colour)"/>
  </g>
  <g id="outline">
    <path d="M 332.46,288.87 l 2.81-.59 a 13.21,13.21,0,0,0,3-1.27 c 5.8-3.41,11.42-10.49,11.1-19.33-.33-9.25-5.1-15-11.68-19.5 s -11.92-11.75-11.92-11.75 c 2.17,4.83,7.84,10.66,13,14.55 a 22,22,0,0,1,8.51,15 c .92,6.67-3.14,14.34-7.26,17.76 a 22.33,22.33,0,0,1-7.25,3.44Z"/>
    <path d="M 276.22,285.38 A 26.12,26.12,0,0,0,291.39,294 a 32.68,32.68,0,0,0,12.5-.33 C 294.19,298.69,280.93,296.08,276.22,285.38Z"/>
    <path d="M 322.17,225.48 a 9.74,9.74,0,0,0-3.45,1.06 l -.9.39 c .21.74.49,1.61.61,2.08,1.34-.57,2.59-1.44,4.2-2Z"/>
    <path d="M 275.33,227.63 a 24.92,24.92,0,0,1,1.53,17.25 c -2.58,9-8.33,15.42-14.42,16.83.06,1,.17,1.83.17,1.83 s 11.58-2.67,16-18.42 c 2-7.13,0-15.5-1.62-17.87 C 276.23,227.38,275.33,227.63,275.33,227.63Z"/>
    <path d="M 280.69,225.88 s 7.82,16.23,17.53,21.5 c 11.67,6.33,27.75,6.5,19.6-20.45.9-.39,1.54-.72,1.54-.72 s 4.86,14.17.86,21.08 c -5.4,9.33-18,4.67-23.33,1.25-6-3.85-13.28-11.42-17.78-22 C 279.77,226.3,280.69,225.88,280.69,225.88Z"/>
    <path d="M 333.2,246.17 c -1.92-1.92-6.14-6.46-7.91-10 a 65.71,65.71,0,0,1-4-10.58 l 1.38-.25 s 1.32,3.79,2.38,6.56 c 2.51,6.6,5.76,9.73,10.43,14.56Z"/>
    <path d="M 275.33,227.63 a 31.66,31.66,0,0,0,5.36-1.75 l .48,1.71 a 19.67,19.67,0,0,1-4.88,1.56 A 4.77,4.77,0,0,0,275.33,227.63Z"/>
    <path d="M 320.77,322.38 c .83-5.58,3.75-11,6.83-16.5,2.73-4.87,5.52-9.29,7.23-18.63 l -2.15.45 c -.37,2-.79,3.83-1.24,5.51-2.25,8.33-5.08,10.42-9,18.83 S 318.27,325.88,320,330 s 7.33,11,8.08,12.58 c -3.83,1.42-7.42,8.75-8.92,13.17 a 169.75,169.75,0,0,0-5,16.5 c -1.5,6.42-3.5,13.17-13.75,14.92,4.17-6.25,6.67-14,4-23.08 s -8-15.33-18.33-18.92-16.08-2.67-23.33-.75 c 5-5.08,9.33-8.92,12.75-12.67 s 8.5-9.33,8.83-18.83-2.83-12.92-6.5-17.75-8.75-11.75-10.75-18.58 a 87,87,0,0,1-2.67-14.67 l -2-.17 s .75,10.33,3.5,17.5 a 58.88,58.88,0,0,0,8.33,14.33,93.79,93.79,0,0,1,5.52,7.71 c 1.44,2.56,3.88,8.25,1.69,16.44 s -6.5,11.88-10.37,15.75-10.75,10.35-12.92,14.19 c 10.58-4.5,20-4.08,29.83-.08 a 25.15,25.15,0,0,1,15,17.08 c 1.5,5.25,2.17,15-6.08,24.25,4.42,0,12-1.58,14.75-6.17 s 3.83-9.83,4.5-12.33,6.5-25,14-27.25 c 0,0-3.25-4.75-5.33-7.83 S 319.94,328,320.77,322.38Z"/>
    <path d="M 297.9,387.52 c 6.3,0,12.66-3.26,12.66-3.26-3.82,3.27-9.1,4.59-11.69,5.06 a 27.47,27.47,0,0,1-47.5-24.11,41.22,41.22,0,0,1,4.07-13,39.2,39.2,0,0,1,4-6.37 l 3.06-.69-.09.1-.1.11 c -.3.34-.61.7-.93,1.1 l 0,.07 c -.35.42-.7.87-1.06,1.36 s -.75,1-1.14,1.61 a 42.68,42.68,0,0,0-3.29,5.79 c -3.36,7.87-2.92,12.72-2.92,12.72 a 25.48,25.48,0,0,0,44.94,19.48Z M 260.13,252.46 a 14,14,0,0,0,2,.54,57.94,57.94,0,0,0,.41,9.7 l 2.12-.83 c -.26-2.88-.41-5.76-.44-8.65 a 17,17,0,0,0-.1-2,12,12,0,0,1,.54-24,7.81,7.81,0,0,1,2,.18,12,12,0,0,1,1.62.38 c 1.77.48,3.7,1.16,5.1,1.69,1.2.45,2,.79,2,.79 l 1.12.37 h .08 l 1.25.4.28.08 L 278,229 a 21.35,21.35,0,0,0,11.69-8.45,27.22,27.22,0,0,0,4.47-12.86 c -.71,0-1.42-.1-2.12-.17 a 23.65,23.65,0,0,1-5.85,14.28,18.87,18.87,0,0,1-9.93,5.57 c -.66.15-1.24.25-1.7.31 A 47.82,47.82,0,0,0,269.4,226 a 14,14,0,0,0-9.27,26.42Z m 23.25-20,.33.08 a 45.44,45.44,0,0,0,15.17.32,53.25,53.25,0,0,1-16.95-2.56Z m 48.09,112.67-.46-.75-.35-.55 c -.29-.46-.6-.93-.92-1.41 l -.06-.09-1.15.77 c 1,1.43,1.91,2.87,2.86,4.36 a 73,73,0,0,1,5.25,9.6 S 336,352.67,331.46,345.16Z M 327.25,226 l -.52-.2 a 8.8,8.8,0,0,0-3.08-.5,12.08,12.08,0,0,0-4,.81 l -.93.38 a 13.57,13.57,0,0,1-8.33-7.28,32.56,32.56,0,0,1-2.86-11.7 c -.75.08-1.51.13-2.26.18.29,3.66,1.23,10.58,4.2,14.44,3.1,4.06,5.87,5.27,7.09,5.63-.27.19-.54.39-.8.6 a 45.8,45.8,0,0,1-4.92,2.38 l 3.08-.58 a 33.59,33.59,0,0,0,4.13-1 l .55-.23 c 2.57-1,5.16-3.35,10.43-1.93 A 11,11,0,0,0,327.25,226Z m -13.74,25.41 a 10.32,10.32,0,0,0,1.1-.39,27.58,27.58,0,0,0-6.83-4.36 A 32.77,32.77,0,0,1,313.51,251.43Z"/>
  </g>
<script type="text/ecmascript" xlink:href="param.min.js"/> 
</svg>
