<?xml version="1.0"?>
<svg xmlns="http://www.w3.org/2000/svg" xmlns:xlink="http://www.w3.org/1999/xlink" viewBox="0 0 600 600">
  <title>midi-crew-neck-baggy-t-shirt-slender</title>
  <g id="main-colour">
    <path d="M 337,250.71 c -1.72-1.72-4.33-4.51-5.88-6.19 a 11.19,11.19,0,0,0-14.81-15.9,3.12,3.12,0,0,0-1.56-.2 l -.14-.05 c 2.15,3.16,3.57,7.36,3.28,10.38-.5,5.13-13.25,10.25-23.5,3.13 a 26.57,26.57,0,0,1-10.29-13.63,14.27,14.27,0,0,1-2.16.69 c -7.45-6.36-19.55-1.14-20,7.95 s 6,12.33,9.33,13.42 c -1.25,5.92,1.32,21.18,2.47,27.83,1.63,9.38,4.66,20.41,6.5,28.91,3.38,15.59.78,18.59-6.39,31-7,12.12-9,16.95-11.41,26.55,2.8-1.57,8.23-3.48,16.79-2,13.38,2.38,24.5,7.25,36.5,5.25,8.9-1.48,13.33-5,16.25-9.47-.15-.46-.29-.92-.47-1.37,0,0,.6.35.6.34.08-1.37-.43-4.08-4.43-12 s -4.57-12.7-4.73-21.12,1.82-20.63,3.91-27.88 c 1-3.42,2.5-7.76,3.91-12.61 a 35.94,35.94,0,0,0,4.63-2.06 c 2.92-1.58,7.67-6.42,8.5-14.17 S 339.55,253.29,337,250.71Z" fill="param(main_colour)"/>
  </g>
  <g id="outline">
    <path d="M 336.14,249.13 a 102.91,102.91,0,0,1-8.24-8.88 c 2.76,6,11,12.38,13.37,17.88 s 1.44,13.21-1.75,18 c -2.93,4.39-5.86,6.57-9.85,7.55 l -.17.58 h 0 c -5.76,20.25-9.85,34.72-7,49.45,2,9.07,6.82,15.19,9.27,23.39-7.31,12.36-25.88,11.71-44.23,6.11-12.58-3.84-20.09-2.29-23.41-1 a 72.91,72.91,0,0,1,5-12.91 c 2.09-4.08,7.37-12.46,11.16-20.32 a 58.54,58.54,0,0,1-3.9,16.94 c 3.67-5.67,5.5-14.63,6.19-22.39 a 45.57,45.57,0,0,0,0-7.91v-.05 h 0 a 114.65,114.65,0,0,0-2.94-16 c -.82-3.57-1.85-7.53-2.94-11.57 l 0,.08 a 154.43,154.43,0,0,1-3.2-19,89.07,89.07,0,0,1-1.05-17.53 h 0 c 0-.22,0-.58,0-.95v-.2 h 0 c 0-.46,0-.86,0-.86 h 0 a 11.2,11.2,0,1,1,7.7-20.44 h 0 l 1.56.85 c .44-.09.89-.14,1.29-.21 h 0 l .15,0,.16,0 c 1.57,3.81,7.94,16.54,23.4,16.54 a 23.47,23.47,0,0,0,3.84-.32 c 3.84-.64,6.44-2.3,7.73-4.94,2.07-4.25-1-9.73-2.44-12,.52-.27.78-.44.78-.44 l .54-.24 a 11.26,11.26,0,0,1,8.35-.33 c -2.58-2.5-7-2.5-8.89-1.64 a 18.37,18.37,0,0,0-3.58,2 l .31.48 h 0 l .06.08 c .33.5.57.82.61.87,1.35,2,4.17,6.88,2.47,10.37-1,2-3.1,3.32-6.26,3.84 a 21.88,21.88,0,0,1-19.93-6.81,31.64,31.64,0,0,1-5.14-8.26 l -.21-.51-.14-.38 h 0 c -.12-.3-.25-.64-.38-1 a 11.65,11.65,0,0,1-2.67.84,13.37,13.37,0,0,0-7.75-2.54 A 13.19,13.19,0,0,0,269.92,251 a 111.14,111.14,0,0,0,1.33,17.67 c .32,5.92,5.47,27.76,7.92,40 a 71.38,71.38,0,0,1,1.36,13.86 c -3.71,9.73-10.89,19.91-14.6,27.9 A 60.3,60.3,0,0,0,261,366.77 c .65-.5,1.23-.89,1.65-1.16v0 a 5,5,0,0,1,.46-.31 l .14-.08,0,0 h 0 c 2-1.17,8.86-4.12,22.7-.37,7.95,2.15,16.44,4.29,24.39,4.29,8.71,0,17.86-3,22.76-11.36 A 47,47,0,0,0,329,345.63 c -3-6.13-5.8-11.93-4.5-26.84,1-11,4.72-23.51,7.58-35 a 17.84,17.84,0,0,0,12.72-13.52 C 347,259.53,341,253.7,336.14,249.13Z"/>
    <path d="M 314.16,358.18 c .14-9.91,3.69-23.81,3.69-23.81 A 52,52,0,0,0,314.16,358.18Z"/>
    <path d="M 267.11,359.63 s 6.25-3,19,1.13,23.13,5.13,27.5,4.38 a 89.8,89.8,0,0,1-17.5-2.18 C 289.61,361.45,273.86,354.75,267.11,359.63Z"/>
    <path d="M 292.14,285.38 c 5.24,4.51,17.08,4,21.83-3.67 C 308.08,286.77,299,287.5,292.14,285.38Z"/>
  </g>
<script type="text/ecmascript" xlink:href="param.min.js"/> 
</svg>
