<?xml version="1.0"?>
<svg xmlns="http://www.w3.org/2000/svg" xmlns:xlink="http://www.w3.org/1999/xlink" viewBox="0 0 600 600">
  <title>hourglass-top-template</title>
  <g id="main-colour">
    <path d="M 261.59,253.63 s 25.38-10.87,47.13,5.13 c 3.75-6.62,17.75-12.62,21.75-12.87,3.25,8.38,5.13,18.63,3.63,31.63 s -4.37,20.25-8.25,27.63-8.5,16-6.87,21.63,10.13,12.75,14.63,17.38 S 357.72,373.5,366.22,394 s 13.5,42.5,14.25,52.25 c -2.5,3.63-7.62,7-14.37,3.88 a 8.6,8.6,0,0,1-.37-1.87 s -12.25-5.12-21.25,7.88 a 26.62,26.62,0,0,1,0,3.63 s -14.25,15.88-30,5.63 a 9.79,9.79,0,0,1,.25-1.87 s -9.37-7.37-22.25.25 c .13,1.25.13,1.75.13,1.75 s -15.37,11.5-33.37-3 a 5.91,5.91,0,0,0-.37-2.25 s -9-12-20.63-9.12 a 4.81,4.81,0,0,1,0,1.63 s -14,3.63-17.62-9.25 a 12.36,12.36,0,0,1,.13-2.75 s -4.37-6.75-12.25-6.25 c 1.5-10.62,9.25-36.75,26.5-61.12 s 37.63-40.87,41.75-46.25,7.32-15.21,4.6-22.79 S 270.59,291.5,266.47,281,261.59,257.88,261.59,253.63Z" fill="param(main_colour)"/>
  </g>
  <g id="fixed-colours">
    <path d="M 216.35,436.38 s 8-32.17,29.17-57.33 c -12.83,19.83-22.33,51.5-24.17,61.83 A 19.63,19.63,0,0,0,216.35,436.38Z" opacity="0.15"/>
    <path d="M 254.52,387.71 s -12.33,44.33-8.67,63.17 a 26.89,26.89,0,0,0-7.63.25 S 242.35,414,254.52,387.71Z" opacity="0.15"/>
    <path d="M 251,453.55 s 3.23-.38,4.5-7 c 1.5-7.83,6.33-45.17,17.33-62.67-5.83,15-13.83,53-13.5,76.83 A 21.55,21.55,0,0,0,251,453.55Z" opacity="0.15"/>
    <path d="M 290,392.71 s 2.67,65.5,12.17,67.5 c -5,0-9.72,3.54-9.72,3.54 S 285.52,425.21,290,392.71Z" opacity="0.15"/>
    <path d="M 316.85,395.71 s -1.5,59.33-11.17,64 c 4,.33,9,3.79,9,3.79 S 319.85,428.88,316.85,395.71Z" opacity="0.15"/>
    <path d="M 337.35,397 a 241.64,241.64,0,0,1,9,32.33 c 3,15.83,4.5,19.33,6.83,19.17-3.33,1.83-7.77,6-8.72,7.58 C 343.85,439.55,340.68,405,337.35,397Z" opacity="0.15"/>
    <path d="M 352.85,398.88 s 8,36.67,7.5,42.5-3.5,6.17-3.5,6.17 a 14.31,14.31,0,0,1,9.2,1.38 C 363,431.55,355.68,405.55,352.85,398.88Z" opacity="0.15"/>
  </g>
  <g id="outline">
    <path d="M 363.43,385.29 c -4.92-8.92-19.17-31.75-26.58-39.08 s -16.5-15.42-17.25-21.33,5.75-16.42,9.75-23.92,5.31-18.83,5.31-18.83 c .7-5.75,3.87-23.75-3.76-37.25-.37.13-1.32.33-1.32.33-7.6,1.67-17.26,6.29-20.72,12.46 C 285.86,241.25,261,253,261,253 c -.27,2.31.11,10.27,1.75,19.32 s 7.94,19,12.27,24,5.58,7.83,6.08,15.33 S 277,326.54,272.35,331 s -25.25,20.83-41.58,47.17-21.67,45-23.17,57 c 7-.56,11.29,4.28,12.48,5.84-.33,1.6-.48,2.49-.48,2.49 s 3.33,14.17,19.5,10 c 0-.55.07-1.13.11-1.72,2.5-.54,11.34-1.51,19.21,9.28 a 16.87,16.87,0,0,0,.18,1.78 s 15.83,15.83,35.17,3.17 c -.1-.63-.19-1.27-.28-1.92 a 19.29,19.29,0,0,1,20.42-.18 c -.18,1.28-.3,1.93-.3,1.93 s 16,12.17,32.17-6 c 0-1.21-.07-2.5-.13-3.86,2.17-3,9-10.64,19.26-7,.08.65.15,1.27.2,1.84,6.17,3.67,14.17.33,16.67-4 C 380.76,426.88,368.35,394.21,363.43,385.29Z M 279,298 a 77.38,77.38,0,0,1-10.58-15.83 c -3.83-7.75-5.33-18.92-5.42-28,21.1-7.08,36.35-.83,46.1,5.67,5.14-8,16.29-11.68,21-13.23,1.48,4.15,5.15,17.22,2,37.61 a 66.27,66.27,0,0,1-7.72,22.25 c -2.37,4.38-6.62,12.5-6.37,18.25 a 8.64,8.64,0,0,0,.79,3 c -14.82,7.66-34.16-1.13-38.77-3.46 a 31.82,31.82,0,0,0,2.9-8.49 A 21.47,21.47,0,0,0,279,298Z M 367.1,449.38 c -2.67-20.17-16.33-61.5-22.5-70.83,7.74,16.41,17.63,51.78,20.07,68.75-2.8-1-12-3.11-19.13,6.76-1.53-28.3-10.07-83.79-20.78-98.68,6.5,15.83,16.17,49.5,19,103.5-3.17,5.33-16.5,13.67-28.17,6,3.67-20.33,2.83-45.17,2.83-57.67 s -3.93-44.07-8.5-55.33 c 0,0,6.83,31.83,6.83,63.83 A 364.15,364.15,0,0,1,314.17,462 a 19.19,19.19,0,0,0-20.92.55 c -3.89-27.19-6.43-63.8,2.35-98-6.83,17.17-11.83,51.17-3.83,100.33-5.33,4.67-20.67,6.5-31.5-2.83.83-25,7.17-69.67,25.5-111,0,0-13.67,24.67-21.5,62.5-5.16,24.91-6,38.4-5.94,44.71-2.39-2.77-9.84-10.22-19-8,1.83-20.61,11.47-60.7,27.09-84.37-18,21.17-28.67,70.33-29,86.17-6.33,2.33-14.5-2-15.83-8.5,2.17-11,9.67-36.33,17.83-51.67 s 23-39.17,23-39.17-18.67,24.83-29,47.5 a 201.14,201.14,0,0,0-13,39 c -1.59-2.59-6.54-5.76-11.21-5.29,8.67-39.33,32.42-68.5,41.33-78.75 s 19.67-18.33,23.84-23.37 a 64.67,64.67,0,0,0,4.72-6 c 23.59,12,37.35,5.23,40.35,3.41,2.9,5.23,9.51,11.52,14.88,17.08,7,7.25,16.71,20.79,26.54,38.79 s 15.83,42.33,18.67,61.33 C 376.6,450.54,371.1,451,367.1,449.38Z"/>
  </g>
<script type="text/ecmascript" xlink:href="param.min.js"/> 
</svg>
