<?xml version="1.0"?>
<svg xmlns="http://www.w3.org/2000/svg" xmlns:xlink="http://www.w3.org/1999/xlink" viewBox="0 0 150 150">
  <title>BT002_OA011</title>
  <g id="skin-tone">
    <path d="M 83.23,83.79 s -3.11-3.18-2.7-6.1.42-6.67-3.75-8 a 5.66,5.66,0,0,0-7.33,3.5,8.55,8.55,0,0,1-2.7,5.35 c 2.12,1.56,2.85,3.77,2.3,5.43,1.93-.18,4.23,1.93,5.06,2.3 a 10.73,10.73,0,0,0,4.69.74 A 5.59,5.59,0,0,0,82,85,3.77,3.77,0,0,1,83.23,83.79Z" fill="param(skin_tone)"/>
  </g>
  <g id="main-colour">
    <path d="M 85.35,98.45 a 9.53,9.53,0,0,0,1.93-8.35 c -1.24-4.9-4-7.32-4.94-5.63 s -3.28,3.35-6.87,2.31 S 71.19,83.66,69.05,84 c 0-2.51-.9-4.72-2.55-5.62 s -2.28-.28-2.35,1.17.48,2.9-3.24,6.14-6.35,4.69-9.53,5.45 a 24.07,24.07,0,0,1,4.69,4.76 l 1.45,3.18Z" fill="param(main_colour)"/>
  </g>
  <g id="accent-colour-1">
    <path d="M 79,103 c 2.55,0,7.11-.35,7.66-1.38 s 1-3.18-2.28-3.18-26.86.62-26.86.62 a 6.34,6.34,0,0,1-1.45-3.18 C 54.42,94,51.38,89.75,46.62,90 s -7.32,3.87-7.39,8.7 a 2,2,0,0,0-.35,3.59 c 1.66,1,9.11.76,13.46.76Z" fill="param(accent_colour_1)"/>
    <path d="M 65.22,84.68 c -1.31-1.07-2.52-1.83-3.28-1.24 s .72,1.8,1.83,2.66,2.42,2.49,3.14,2.38,1.32-.65.42-1.72 A 19.43,19.43,0,0,0,65.22,84.68Z" fill="param(accent_colour_1)"/>
    <path d="M 62.32,88 c -1.17-1.51-2.52-2.49-3.11-1.9 s .24,2.21,1.1,3 S 62.6,92,63.7,91.27,63,88.93,62.32,88Z" fill="param(accent_colour_1)"/>
    <path d="M 58.11,90.2 c -1.2-1.26-1.93-2-2.8-1.52 s -.1,1.62.59,2.38,3.14,3.24,3.69,2.69 S 59.66,91.83,58.11,90.2Z" fill="param(accent_colour_1)"/>
  </g>
  <g id="fixed-colours">
    <path d="M 67.53,87.34 a 1,1,0,0,1,1.1.48 A 1.56,1.56,0,0,1,67.29,90 c -1.28.1-1.69-.83-1.24-1.73 C 66.64,88.51,67.95,88.55,67.53,87.34Z" fill="#a7a9ac"/>
    <path d="M 64.12,90.44 s 1,0,1,.79 A 1.78,1.78,0,0,1,63.22,93 a 1,1,0,0,1-.79-1.62 A 1.13,1.13,0,0,0,64.12,90.44Z" fill="#a7a9ac"/>
    <path d="M 59.91,93.07 s 1-.07,1.24.45.14,1.28-1.1,1.69-2-.52-1.42-1.48 a 1.34,1.34,0,0,0,1.14-.17Z" fill="#a7a9ac"/>
  </g>
  <g id="outline">
    <path d="M 37.39,101.05 c .23,2,2.39,2.44,4,2.49 s 12.38.18,12.38.18,26.14,0,30.15-.28,4.05-2.85,3.82-4.05 a 1.77,1.77,0,0,0-1.08-1.21,7.51,7.51,0,0,0,1.94-5.88 A 16.7,16.7,0,0,0,85.14,84 a 2.59,2.59,0,0,0-1.06-.75 c -.76-1.19-2.84-4-2.66-5.16.23-1.4.32-3,.32-3 A 6.76,6.76,0,0,0,75,68.25 h 0 A 6.76,6.76,0,0,0,68.25,75 a 7.32,7.32,0,0,1-1.2,3 c -1.06-.94-2.54-.9-3-.24-.85,1.11-.6,3.92-1.09,4.87 l -.09,0 c -.92-.3-2.55.94-1.67,2.1-.3.32-.63.64-1,1 a 1.3,1.3,0,0,0-1.49.09,1.17,1.17,0,0,0-.23,1.43,14.69,14.69,0,0,1-1.71,1.18,1.64,1.64,0,0,0-1.92-.12,1,1,0,0,0-.44,1.27,23.23,23.23,0,0,1-2.77.95,6.52,6.52,0,0,0-2-1.14 c -3.08-1-7.64.14-9.57,3.13 a 13.1,13.1,0,0,0-1.87,6.14 A 2.38,2.38,0,0,0,37.39,101.05Z m 14.54-8.61 a 19.92,19.92,0,0,1,3.59,3.29,4.5,4.5,0,0,0,1,2.83 l -6.07,0-10.74-.2 a 9.78,9.78,0,0,1,2.37-5.94 C 44.66,89.73,49.4,90.65,51.93,92.45Z M 55,90.58 a 20.06,20.06,0,0,0,1.5,1.7 l .49.51,0,0 A 5.18,5.18,0,0,0,55.64,95 a 25.33,25.33,0,0,0-2.85-3.48 C 53.36,91.29,54.12,91,55,90.58Z m 3.09.11 c .59.62,2,2.17,1.28,2.69 s -1.93-1.14-2.9-2.14-1.35-2-.79-2.28 S 57,89.51,58.08,90.69Z m .68,3.51 a 1.67,1.67,0,0,0,.34.11 c -.09.46.37.63,1.08.07.53-.42.22-.65,0-.75 a 1.37,1.37,0,0,0,0-.31.72.72,0,0,1,.42,1.33,1.51,1.51,0,0,1-1.83.24 A .6.6,0,0,1,58.76,94.2Z m .24-6 a 11.57,11.57,0,0,0,.83,1.06 l .51.55-1.23,1 c -.18-.22-.37-.45-.59-.68 s -.61-.67-.91-1 C 58.08,88.84,58.54,88.52,59,88.18Z M 61.84,88 a 15.58,15.58,0,0,1,1.76,2.38 c .31.72-.48,1-.9.69 a 27.81,27.81,0,0,1-2.28-2.28 c -.76-.79-1.52-1.9-1-2.28 S 60.8,86.92,61.84,88Z m .75,3.72 a 1.63,1.63,0,0,0,.4.17 c -.07.22,0,.39.29.42 a 1.34,1.34,0,0,0,1.21-.79.34.34,0,0,0-.19-.42,1.11,1.11,0,0,0,.07-.4 c .78.2.62,1.27,0,1.68 s -1.28.55-1.66.1 A .84.84,0,0,1,62.59,91.72Z m -1.43-5.39 L 62,85.5 c .61.52,1.24,1,1.79,1.36-.29.3-.58.58-.88.83 l -.3.24-.57-.69 A 12.28,12.28,0,0,0,61.16,86.33Z M 65.08,85 a 7.77,7.77,0,0,1,2.14,2.24 c .52.93-.35,1-.83.72 s -1.86-1.62-2.55-2.17-2.07-1.76-1.62-2.14 S 63.6,83.84,65.08,85Z m 1.11,3.66 a 2.73,2.73,0,0,0,.37.19.39.39,0,0,0,.41.44,1.09,1.09,0,0,0,1.14-.72.45.45,0,0,0,0-.42,1.31,1.31,0,0,0,0-.46 c .54.13.52.9.16,1.44 a 1.29,1.29,0,0,1-1.76.45 A .7.7,0,0,1,66.19,88.68Z m -.28-10 c 1.12.57,3,2.89,2.75,4.69 a 3.26,3.26,0,0,0-.89.18,6.14,6.14,0,0,0-1.9,1.23,24.29,24.29,0,0,0-2-1.6,4.86,4.86,0,0,0,.6-2.29 C 64.63,78.95,64.7,78.05,65.91,78.67Z m 16.32,4.81 c -.6.65-.78,1.86-2.06,2.54-1.76.93-5,.35-6.46-.76 a 9.55,9.55,0,0,0-4.08-1.87 c .36-.54.55-1.29-.39-2.91 a 8.4,8.4,0,0,0-.94-1.19 A 11.28,11.28,0,0,0,70.25,75,4.75,4.75,0,0,1,75,70.25 h 0 A 4.75,4.75,0,0,1,79.75,75 a 38.11,38.11,0,0,0,.08,3.88 C 79.94,80.51,81.53,82.51,82.23,83.49Z m 2.43,14.46-26.87.6 a 6.13,6.13,0,0,1-1.06-2.75,3.26,3.26,0,0,1,1.05-2.24,5.45,5.45,0,0,0,.54.41,1.13,1.13,0,0,0,0,1.11 c .52.76,1.42.69,2.28.28 s 1.66-1.45.83-2.14 a 1.55,1.55,0,0,0-1.2-.42,4.05,4.05,0,0,0-.44-1 l 1.4-1.16 a 11.51,11.51,0,0,0,1,.85,2,2,0,0,0,0,1.18,1.58,1.58,0,0,0,2.17.38 c 1.06-.59,1.45-1.86.86-2.42 a 1.49,1.49,0,0,0-.95-.43,1.54,1.54,0,0,0-.09-.2 c -.2-.33-.52-.77-.84-1.19.52-.45,1-.87,1.4-1.26 l .1.08 c .27.23.6.53,1,.8 a 1.57,1.57,0,0,0,0,1.27,1.83,1.83,0,0,0,2.42.24 c .86-.66,1.14-1.93.59-2.45 a 1.59,1.59,0,0,0-.95-.41,6.15,6.15,0,0,0-1.21-1.56,3.06,3.06,0,0,1,3.05-1 c 1.9.48,3.49,2.59,6,3 s 4.69.07,5.9-1.1,1.55-1.9,2.73-.59 S 87,92,86.62,94.07 A 7.43,7.43,0,0,1,84.67,97.95Z M 39.78,99.49 c 1.29,0,18.32.09,21.86,0 S 83.55,99,83.55,99 c 1.56,0,2.81-.32,2.9,1.24 s -2.3,2-6.86,2-26.6.28-31.21.28-8.88-.14-9.48-1.06 S 38.49,99.54,39.78,99.49Z"/>
  </g>
<script type="text/ecmascript" xlink:href="param.min.js"/> 
</svg>
