<?xml version="1.0"?>
<svg xmlns="http://www.w3.org/2000/svg" xmlns:xlink="http://www.w3.org/1999/xlink" viewBox="0 0 600 600">
  <title>slender-top-template</title>
  <g id="main-colour">
    <path d="M 340.64,354 c -5.08-8.5-11.08-19.17-13.75-26.5 s -3.42-11.67-2.33-18.83,4.92-19.33,6.51-25 c 2.67-1.18,9.16-3.74,12.16-12.49 s -2.08-15.75-4.25-18.08-4.25-4.75-7.91-8.85 c -9.08.32-15,9.6-15,9.6 s -7.33-4.5-20.79-5.1 c -9.14-.4-18.8,1.63-24.05,3-.08,4.12,0,16.26,3.26,27.12,4,13.33,9.33,20.17,8.5,30.83 s -13,24-33.5,52.33-33.33,61-35.25,72.25 c 6.75-1.08,10.17,6.83,10.17,6.83 a 27.43,27.43,0,0,1-1,3.75 c 7.5,11.58,19.33,4.17,19.33,4.17 a 9.91,9.91,0,0,0,.25-1.29 c 14.25-4.62,24.75,8.5,24.75,8.5 s 0,.88-.25,3.5 c 21.63,11,34.75,1.88,34.75,1.88 a 27.75,27.75,0,0,1-.25-3.92 c 10.67-7.83,23.83-1.17,23.83-1.17 s 0,.83-.17,2.33 c 16,7.5,23.5-3.5,23.5-3.5 a 10,10,0,0,0-.33-3.33 c 6.33-10.17,18.17-8.5,18.17-8.5 s 0,.33.17,2.17 c 6.33,1,10.17-2.67,12.33-9.5 C 371.31,403.71,345.73,362.54,340.64,354Z" fill="param(main_colour)"/>
  </g>
  <g id="fixed-colours">
    <path d="M 219.86,435.71 s 16.67-40.83,34.5-60.17 c -11,19.5-23.26,43.67-30,65.58 A 12.78,12.78,0,0,0,219.86,435.71Z" opacity="0.15"/>
    <path d="M 250,446.88 a 19.87,19.87,0,0,0-7,.88 c 3.88-18.37,13.88-49.37,18.55-59.87 C 255.52,404.21,248.69,439.38,250,446.88Z" opacity="0.15"/>
    <path d="M 261.52,450.88 s 7.5-40.67,18.17-63.17 c -5.5,17.33-11.67,59-12,69.67 A 25.15,25.15,0,0,0,261.52,450.88Z" opacity="0.15"/>
    <path d="M 300.19,386.71 s 2.33,65,10.33,66.83 a 47.81,47.81,0,0,0-8.55,4.17 S 297.36,416.38,300.19,386.71Z" opacity="0.15"/>
    <path d="M 318.86,386.55 s 4,64.33-2.33,67.33 c 3.5-.33,8.67,2.5,8.67,2.5 S 323.52,409.21,318.86,386.55Z" opacity="0.15"/>
    <path d="M 338.36,398 s 12.17,27,15.83,48 a 22.61,22.61,0,0,0-4.83,6.33 S 341.19,407.38,338.36,398Z" opacity="0.15"/>
    <path d="M 356.86,403.21 c 3,13.33,5.5,31.5,2.83,40.83 a 26.2,26.2,0,0,1,7.29-.5 S 360.86,412.55,356.86,403.21Z" opacity="0.15"/>
  </g>
  <g id="outline">
    <path d="M 358.85,383.5 c -9.87-17.87-24-40.12-27.78-48 s -6.65-17.92-5.28-26.17 c 1.25-7.5,5.48-22.82,6.25-25.55 a 17.83,17.83,0,0,0,12.72-13.51 c 2.26-10.73-3.78-16.55-8.62-21.12-2.15-2-4.12-4.14-5.6-5.8 h 0 A 25.51,25.51,0,0,0,315,252.79 c -15-9.92-45.05-1.82-45.05-1.82 s 0,1.09,0,2.5 h 0 A 95.26,95.26,0,0,0,273.23,278 c 2.58,8.92,7.42,20.58,8.92,27.75 s -8,21.58-12.25,26.92-26.29,34-38.42,56.5 S 214.1,426.25,213,435.38 c 5.36-.47,8.43,1.13,10.14,6.31q-.52,1.86-1,3.69 c 4.67,7.5,15,9,21.33,4.17 l .27-1.14 c 3.4-.74,15.78-2.5,22.66,9.31q-.09,1.45-.17,2.91 c 11,7.5,29.75,7.5,37.25,1.75q-.16-2.14-.34-4.35 c 2.44-1.75,9.73-5.72,20.91-.81q.05,1.58.1,3.17 c 11.67,5.17,22,1.17,26.33-4.83,0-1-.16-2.32-.32-3.77 a 17.67,17.67,0,0,1,15.69-7.23 c .05.64.1,1.25.13,1.84,4.83,2.5,11.83-1.17,14.83-10 C 377.64,424,368.73,401.38,358.85,383.5Z M 272.18,252.87 c 28.49-7.52,43.87,2,43.87,2,3.22-5.48,9.48-8.51,14.31-10.07,3.63,4.63,9.09,9.09,10.9,13.29,2.38,5.5,1.44,13.21-1.75,18-2.81,4.22-5.46,5.78-9.22,6.81-.06.2-.29,1-.35,1.23 l 0,0 h 0 c -.43,1.36-2.91,9.21-5.78,21 a 37.9,37.9,0,0,0-1.06,8.35 c -8.58,9.75-35.26,1.53-40,0 a 20.56,20.56,0,0,0,.39-11.16 C 281.35,294.57,271.13,272.77,272.18,252.87Z m 96,192.18 c -1.33-17-14.83-60.17-24.67-71.83,7.77,12.58,19.88,49.92,22.16,69.24-3.06,0-11.18.56-15.76,7-2.72-20.76-13.87-70.12-24.15-95.83,6.25,20.75,17.5,67.75,22,100.25-3.25,7-16,6.75-20.75,4.75.25-31-8.75-91-14-105.75 a 704.51,704.51,0,0,1,11,102.17 c -3.17-1.49-12.48-4.92-21,1.25-1.84-22.39-4.59-51.08,0-93.17-5.75,21.5-5.83,70.08-1.67,98.08-6.17,3.67-24.17,3.83-32.17-2,2-29.83,11.5-79.33,22.83-108.17,0,0-21.13,49.3-25.34,103.45-2.34-3.16-9.62-11-22.51-7.72,5.75-24.38,15.37-58.65,28.85-82.73-11.67,14.83-28.5,69.67-31,83.83-6.17,3.33-14.67,1.83-17.33-3.17,5.17-16.5,14.5-43.83,44.33-93.17,0,0-32.91,47-45.07,87.45 a 9.08,9.08,0,0,0-8.8-5.24 c 1.63-8.25,9.88-30,20.5-48.12 s 31.63-46.37,38.75-55.87 a 55.15,55.15,0,0,0,8.24-14.65 c 28.16,8.89,37.66,3.36,40.5.43.29,8.75,3.47,16.46,6.8,22.5,4.59,8.32,15.58,26.68,23.08,39 s 20.17,40,25.15,58.65 C 376.27,442.69,371.64,445.71,368.14,445Z"/>
    <path d="M 312.85,282.38 a 24.37,24.37,0,0,1-20.72,3 C 303.17,290.38,309.85,286.5,312.85,282.38Z"/>
  </g>
<script type="text/ecmascript" xlink:href="param.min.js"/> 
</svg>
