<?xml version="1.0"?>
<svg xmlns="http://www.w3.org/2000/svg" xmlns:xlink="http://www.w3.org/1999/xlink" viewBox="0 0 600 600">
  <title>voluptuous-top-template</title>
  <g id="main-colour">
    <path d="M 247,277.21 s 19.33-.83,27.5-14,2-31.5-.17-35.33 a 12.16,12.16,0,0,0,3.67-3.67 S 290.19,252,311.69,270 c 9-16.67,13.8-43.67,13.8-43.67 s 3.5,1.17,5.67.5 c 0,5.83,4.54,15.73,9,21.5,4.67,6,10.5,15.67,7.5,24-2.51,7-8.53,20.17-6.7,26.33 s 11.5,17.83,19.17,35.17,12.17,34.33,8.67,79.5 S 362.66,507,382,531.55 c -5.33,7.83-24.17,17.67-24.17,17.67 l .83,2 s -28.83,16.67-68.5,10.67 c 1.67-3.17,1.67-3.67,1.67-3.67 S 271.49,559.55,258,554 a 11.34,11.34,0,0,0,2.17-3.83 S 243,549,235,542.88 c 2-2.5,2.17-4,2.17-4 s -8.83-1.17-19-10.67 c 9-11.17,15.67-26.5,15.5-47.67 s -5.83-53.83-8.5-69.83-1.5-50.17,11.5-81.17 c 6-16.17,15.67-25.5,15.5-31.5 S 247,277.21,247,277.21Z" fill="param(main_colour)"/>
  </g>
  <g id="accent-colour-1">
    <path d="M 314.88,321 c -1.28-6.71-1.85-14.87-2-29.09 a 89.91,89.91,0,0,0-2.61-21.44 l 2.88-.83 a 91.41,91.41,0,0,1,2.73,22.23 c .18,14,.73,22,2,28.57Z" fill="param(accent_colour_1)"/>
    <path d="M 337.62,315.06 c -5-7.18-9.49-20-7.74-31.25.39-2.49.88-4.68,1.3-6.62,1.52-6.86,2.52-11.39-1.71-21.58-4-9.63-2.52-27.77-2.45-28.53 l 3,.25 c 0,.18-1.48,18.17,2.23,27.13,4.59,11.06,3.38,16.49,1.86,23.37-.44,2-.89,4-1.27,6.43-1.56,10,2.47,22.16,7.24,29.08Z" fill="param(accent_colour_1)"/>
    <path d="M 293.1,320.72 l -2.82-1 c 6.26-17.49,6.51-30.38,1-49.24 C 286,252.58,275.73,227,275.62,226.77 l 2.78-1.12 c .1.26,10.43,25.94,15.72,44 C 299.87,289.17,299.6,302.55,293.1,320.72Z" fill="param(accent_colour_1)"/>
    <path d="M 270.1,316.21 l -2.5-1.66 c 14.09-21.22-.19-43.46-.34-43.68 l 2.5-1.65 C 269.93,269.46,285.31,293.31,270.1,316.21Z" fill="param(accent_colour_1)"/>
    <path d="M 371.17,541 c -5.08-6.47-12.39-21.74-16.3-43.5-4.58-25.53-1.92-59.77.83-75.36 a 208.58,208.58,0,0,0,1.16-61.53 c -2.92-20.92-18.44-44.31-18.59-44.54 l 2.49-1.67 c .65,1,16.06,24.2,19.07,45.79 a 211.74,211.74,0,0,1-1.17,62.47 c -2.72,15.39-5.34,49.17-.83,74.31,5,27.94,14.62,40.8,15.7,42.17Z" fill="param(accent_colour_1)"/>
    <path d="M 327.56,561.06 c -.09-.38-9.21-38.27-9-60.86.08-10.59.46-23.34.82-35.66.42-14.15.86-28.78.85-40.49,0-22-4-86.32-5.16-102.56 l 3-.21 c 1.14,16.26,5.16,80.7,5.17,102.77,0,11.76-.43,26.41-.85,40.58-.37,12.31-.74,25-.82,35.6-.16,22.22,8.87,59.76,9,60.14Z" fill="param(accent_colour_1)"/>
    <path d="M 272.73,557.79,270,556.63 l .38-.89 A 123.93,123.93,0,0,0,280,521 c 2.2-18.74-.83-45.42-4.33-76.32 A 304,304,0,0,1,277,364.15 c 3.16-20.11,12.59-43.47,12.68-43.71 l 2.78,1.13 c -.09.23-9.4,23.29-12.5,43 a 301,301,0,0,0-1.32,79.77 c 3.52,31.08,6.57,57.93,4.33,77 a 126.84,126.84,0,0,1-9.91,35.55Z" fill="param(accent_colour_1)"/>
    <path d="M 241.89,546.15 l -2.74-1.21 c .11-.24,10.76-24.49,12.55-41.22,1.74-16.26.39-30.07-5-51-7-27.18-7.5-53.45-1.68-82.67,6.08-30.55,15.42-44.62,19.9-51.37.71-1.08,1.33-2,1.78-2.76 l 2.59,1.52 c -.49.83-1.12,1.79-1.86,2.9 C 263.07,327,254,340.7,248,370.67 c -5.72,28.76-5.2,54.6,1.65,81.33,5.45,21.28,6.82,35.38,5,52 C 252.84,521.24,242.33,545.14,241.89,546.15Z" fill="param(accent_colour_1)"/>
  </g>
  <g id="outline">
    <path d="M 308.13,278.25 c -7.37,12.75-24.45,9.9-23.74,10.12 C 296.5,292.13,305.5,287.13,308.13,278.25Z"/>
    <path d="M 383.35,532.21 c -7.33-12.33-14-25.67-14.83-50.83 s 1-53.33,2.33-76.83,2.33-46.67-9-70.5-17.12-29-19.35-34.17 c -2.06-4.83,3.35-20.74,3.35-20.74 A 19.25,19.25,0,0,0,350,266.5 c -.25-8.17-3.71-11.12-9.62-19.62 C 335,239.23,331.47,231.17,332,226 c -5.12.5-7.65-.75-7.65-.75 s -3.72,25.13-12.93,43.17 c -13.67-11.33-31.22-39.54-33.55-46.37-1.67,3.17-3.67,5-4.92,5.33 A 33.94,33.94,0,0,1,277.67,244 c 0,9.25-.9,18.17-9.65,24.67 s -22.5,7.58-22.5,7.58,2.08,7,3.33,10.42,3.08,10.25,1.75,14.42-9.17,14.67-12.17,20.75-11.25,23.42-15.25,54.58,3,42.67,6.17,67.67,8,61.67-13.83,84.83 a 62.37,62.37,0,0,0,20,11.2 c -1.16,2.55-1.82,3.63-1.82,3.63 s 12.49,7.76,24.65,7.86 c -.59,1-1.19,2-1.82,3,8.74,5.16,28.32,5,33.63,4.88-.57,1.16-1.17,2.32-1.8,3.45,23.17,5.33,60.17-2.5,72-11.33-.33-.59-.65-1.21-1-1.82 C 363.51,548,377.29,541.65,383.35,532.21Z m -130.17-238 a 63.94,63.94,0,0,0-4.67-16 c 8.5-.17,22-5.5,27.83-15.83 s 2.58-27.73-.75-34.06 a 7.41,7.41,0,0,0,2.44-2.06 s 11.2,25.5,33.7,45.5 c 9.5-14.75,14.53-44.22,14.53-44.22 a 11.77,11.77,0,0,0,3.93.18 c .88,8.75,4.77,16,9.54,22.17,6.38,8.25,8.25,13,7.63,18.5 a 25.21,25.21,0,0,1-3.67,10.17 c -5.33,14.08-4.84,19.5-2.18,24.67.82,1.58,2.17,3.64,3.92,6.39-37.41,23.29-87.22,1.82-95.42-2 C 252.63,303.56,254.09,300.18,253.18,294.21Z m 105,253.15 A 152.78,152.78,0,0,1,344,497.54 c -2.17-20.5-.67-39.33,2.67-62 s 4.33-45.83.33-54.33 c 1.5,9.5,1.83,26.33-1.67,47.83 s -6.83,47.17-3.5,73.17,15.33,48.67,15.33,48.67-30.17,15.5-65,10 c 12.67-25,11.17-60.67,9.67-74 s -3.83-36.33-2.67-56.33 a 238.62,238.62,0,0,0-.5,48.17 c 2.32,23.21,3.91,53.46-7.47,78.48 A 72.74,72.74,0,0,1,260,553.54 c 7.5-11.67,10.67-38.33,9.67-54.83 s -9.33-53.67-4-95 a 173,173,0,0,0-3,46.83 c 2,25,6.17,36.67,4.5,62-1.29,19.57-3.87,29.19-7.36,36.24 a 42.94,42.94,0,0,1-23.14-6.08 c 8.67-17.83,20.33-51.17,9.33-79.33,0,0,6.17,24.67-.67,48.5 a 227.76,227.76,0,0,1-8.78,25.78 c -2.43-.88-11.55-4.38-16.72-9.11,9.67-12,14.5-29.83,15.17-45 s -3.5-44.5-6.17-59.17-5.17-27-2.5-48.17,7.83-39.33,14.83-54 a 89,89,0,0,1,7.61-12.75 c 5.77,2.92,28.43,13.42,55.56,13.42,25.86,0,38.68-8.19,42.45-11.13 A 192.49,192.49,0,0,1,362,341.54 c 9.5,23,6.17,56.33,5.17,71 s -3.67,52-1.33,73.67,6.33,33.67,14.33,45.67 C 374.17,539.57,362,545.61,358.17,547.36Z"/>
  </g>
<script type="text/ecmascript" xlink:href="param.min.js"/> 
</svg>
