<?xml version="1.0"?>
<svg xmlns="http://www.w3.org/2000/svg" xmlns:xlink="http://www.w3.org/1999/xlink" viewBox="0 0 600 600">
  <title>v-neck-t-shirt-dress-voluptuous</title>
  <g id="main-colour">
    <path d="M 369.27,389.38 c .83-18.58-.25-30.75-4.92-45.08 S 348,309.88,345,305.63 s -3.92-5.67-3.83-11.08,3.08-11.5,5.5-22.33 c 2.37-10.61.34-15.62-.61-17.86 a 16.57,16.57,0,0,0-9.43-27 c -2.62-1-4.68-.59-7.13-.75 a 10.93,10.93,0,0,1-5.5-1.83 c -3.58,6.42-14,11.83-14,11.83 l .92,1.58 a 5.34,5.34,0,0,1,.67,4.67 c .58,0,6.83-1.67,9.92-4.33.5,13-6.67,23.83-12.33,28.75-9.25-4.58-20-17.08-21.92-23.75 a 43.13,43.13,0,0,0,15.17.92,7.18,7.18,0,0,1-.67-6.33 c -14.17-.08-22.83-8.5-24.92-13.33-.92,1.33-3.75,3.58-10.5,1.83 s -13.67.17-17.58,4.08 S 239.61,245,246.61,254 c -3,17.25,3.33,32.75,4.92,37.75 s -.58,12-4.58,17.92-15.37,22.49-20.17,35.83-6.92,25.25-6.42,42.33,3.3,21.92,5.22,33.5,1.78,15.92.61,20.41 c 7.33,3.34,11.51,4,17.21,3.59 a 47.19,47.19,0,0,1-.79,5.08 c 10.37,1.25,18.45-2,25.83-2.25,11.92-.44,19.93,2,24.83,3,11.17,2.25,24,3.67,43.46,4.17 s 32.88-5,37.5-15.87 C 362.23,428.79,368.44,408,369.27,389.38Z" fill="param(main_colour)"/>
  </g>
  <g id="fixed-colours">
    <path d="M 298.77,238 s 1.67-4.25,4.75-5.33,6.25.25,8.5,2.75 c -.75.5-2,1.17-2,1.17 s -2.33-2.08-4.58-1.5 a 5,5,0,0,0-3.67,3Z" fill="#d1d3d4"/>
    <path d="M 299.52,245 l 2.83-.25 s 2.33,2.92,5.42,2.25,3.83-4.08,3.83-4.08 l 2.25-.42 s -.42,5.67-5,7.08-7.83-2.17-8.75-3.42Z" fill="#d1d3d4"/>
  </g>
  <g id="outline">
    <path d="M 369.86,400.71 c 1-12.71,4.4-28.21-3.85-54.58 S 343.8,303,342.64,300.21 s -.58-5.92-.17-8.08,1.67-7.5,1.67-7.5,2.74-9,3.74-13.5,1-12.25-1.62-16.25 c 1.88,4.75.19,13.45-1.14,18.88 a 120,120,0,0,1-3.24,11.88,25.22,25.22,0,0,0-2.26,9 c -.5,5.25,2.53,9.88,6.4,15.25 s 7.63,12.63,12.13,22,8.63,23.88,10.13,36.25-.19,27.61-1.57,40.42 c -1.32,12.29-2.33,23.17,6.25,31.29-7,11.2-14.7,13.26-32.68,14.21-11,.58-27.62-.29-51.37-4.92 l -2.16-.4 a 62.58,62.58,0,0,0-13.5-1.44,91.52,91.52,0,0,0-13.87,1.22 c -2.57.47-11.5,1.88-15.5.75,2.75-13-.12-29.12-3.25-38.87,0,0,3.41,18.39,1.82,34 a 38.34,38.34,0,0,1-6.73-.46,25.14,25.14,0,0,1-7.64-2.65 c .8-5.39.43-10.73-.62-18.31-1.87-13.5-5.35-15.88-5.75-37.75-.32-17.62,2.68-28.12,7.21-40.87,3.65-10.27,14.38-27.87,18.88-34.12 a 28.92,28.92,0,0,0,4.72-11.51 c .23,1,.45,2,.65,2.95,1.69,8.44.5,19.88.5,19.88 s 3.06-8.31.88-20.81-4.37-16.44-5.56-20.94 a 62.54,62.54,0,0,1-1.25-25.94 c -4.19-4.12-3.62-11.75-3.31-13.12 a 17.51,17.51,0,0,1,8-11.5 c 5.51-3.45,12.37-2.13,16.35-1.15 a 10.68,10.68,0,0,0,7.9-1.89,25.48,25.48,0,0,0,10.1,8.92 c 2.66,1.28,8.4,3.65,14.32,3.5-.87,2.5.63,5.63.63,5.63 s -9.56.75-15.87-1.75 c 1.07,3.71,5.29,10,10.24,15.38,5.33,5.83,10.54,9.25,13.17,10.13,7.5-5.62,13.83-17.62,13-30.81-2.5,2.63-9.12,5-10.06,5.19 a 7.52,7.52,0,0,0-1.44-5.56 c 3.88-1.81,12.26-8.27,13.69-11.2,2.08,1.7,5.64,1.83,7.39,1.64 a 19.9,19.9,0,0,1,5.06.19,6.38,6.38,0,0,0-4-1.37 c -2.56-.06-7.37-.44-9.25-2.12-1,3.24-7,8.09-11.43,10.91 a 7.69,7.69,0,0,0-13.67,2.66,33,33,0,0,1-13.9-5.14 c -6.12-4.12-7.5-8.87-7.5-8.87 s -2.87,3.88-7.37,2.88-10.87-2.56-17.31.63 a 18.59,18.59,0,0,0-6.87,27.19 c -.25.81-1.62,10.63-.69,17.25 a 50.79,50.79,0,0,0,2.69,11.25 c .52,1.64,2,5.51,3.42,10.3.87,11-7.25,18.82-12.71,27.72 C 231.89,331,221.64,352,219.8,371.13 c -2,21.31,3.13,41.38,5,50.75 a 52.81,52.81,0,0,1,.71,20.19 l .07,0v0 l .95.58,0,0 c 1.77,1.07,3.95,2.24,9.13,3.29 a 60.18,60.18,0,0,0,6.47.59 c -.21,1.54-.47,3.05-.8,4.5,9.88,1.5,15.78,0,21.63-1,8.94-1.52,22.13.7,24.25,1.08 h 0 l .77.13 c 12.38,2.13,35,5.43,50.88,4.92,16.12-.52,29.8-2.46,36.8-17.08 C 365,429,368.82,413.68,369.86,400.71Z M 309,266.44 c -10.81-5.73-18.65-17.5-20.84-21.94 a 43.3,43.3,0,0,0,11,1 c 1.8,3.5,5.38,5.57,9,4.84 s 5.95-3.88,6.34-7.67 c 3.2-1.08,5.83-2.31,6.38-2.91 C 321.87,247.21,316,260.88,309,266.44Z M 313.42,243 a 6.92,6.92,0,0,1-13.15,2.42 c .85-.06,1.55-.13,2.08-.2 a 5.32,5.32,0,0,0,9.58-1.78Z m -2.45.58 a 4.66,4.66,0,0,1-3.34,2.93,4.79,4.79,0,0,1-4.71-1.93 h 0 a 6.57,6.57,0,0,1-.48-6.75,4.51,4.51,0,0,1,3-2.21,4.65,4.65,0,0,1,4.13,1.29 l 0,0 C 311.31,238.3,311.61,241.62,311,243.56Z m -6.36-10.62 a 7.05,7.05,0,0,1,6.66,2.46 c -.44.27-.87.52-1.26.74 a 5.22,5.22,0,0,0-8.51,1.52,17.23,17.23,0,0,1-2,0 A 7,7,0,0,1,304.61,232.94Z"/>
    <path d="M 280.61,444.38 c 8.88,1,13,2.43,23.75,4.5,18.75,3.63,40.82,3.22,53.88-.25-5.34.27-11.08,1.51-21.87,1.75 a 149.13,149.13,0,0,1-31.37-2.5 c -7.78-1.63-36.08-9.87-47.86-1.92 C 258.36,445.24,264.27,442.54,280.61,444.38Z"/>
    <path d="M 257.12,446 a 2.78,2.78,0,0,0-.26.17Z"/>
    <path d="M 285.89,409.71 c -10.5-10.5-22.5-32-24.5-57.33 C 261.39,352.38,259.22,388.88,285.89,409.71Z"/>
    <path d="M 281.05,330.88 s 15.33,52.33,61.5,76.33 C 320.05,392.21,296.22,365.71,281.05,330.88Z"/>
  </g>
<script type="text/ecmascript" xlink:href="param.min.js"/> 
</svg>
