<?xml version="1.0"?>
<svg xmlns="http://www.w3.org/2000/svg" xmlns:xlink="http://www.w3.org/1999/xlink" viewBox="0 0 600 600">
  <title>wedding-dress-hourglass</title>
  <g id="main-colour">
    <path d="M 281.34,315.88 c 2.13-7.3,2.25-11.75-1.5-16.5 s -16.75-18.25-16.75-41.75 c 6.75,2,13.33.3,21.33-2.25,8.63-2.75,30-8.12,42.5,1.5,4.88-8.25,8.13-10.12,15.13-10.12,13.13,6,21.13,38.13-9.5,45.38-2.75,8.88-3.87,11.38-7.62,17.13 s -6.08,13.88-2.83,18.63,15.5,16.25,26.25,27.75,35.5,43.5,49.5,87.5,19,79.5,19,100.25 a 12.36,12.36,0,0,1-10.25,6.75 c -3.25,0-7,2.25-7,2.25 l .25,8.75 s -3.25,7.5-11.25,9.25-20.75,2.25-26.5,10.25 a 33.65,33.65,0,0,0,1.25,5.25 s -10.5.5-18.5,4.25-15.75,5.5-24.5,4.75-24.25-5.75-33.75-4.25 c 0-4.75.64-5.75.64-5.75 a 34.23,34.23,0,0,0-17.64-6.25 c -10.75-.75-25.25,6.25-33.5-3.25.8-4.33.25-6.25.25-6.25 a 26.39,26.39,0,0,0-12-3 c -7.5-.25-16.75-2-21.25-7.75.25-5.75.75-7,0-7.25 s -6.5-4.75-10.5-5.25-4.75-3.25-4.75-3.25-3-21.5,2-65,32.75-92.25,45.25-109.25,22-28,28.75-33.75 S 279.59,321.88,281.34,315.88Z" fill="param(main_colour)"/>
  </g>
  <g id="accent-colour-1">
    <circle cx="283.33" cy="225.3" r="2.58" fill="param(accent_colour_1)"/>
    <circle cx="288.05" cy="228.13" r="2.58" fill="param(accent_colour_1)"/>
    <circle cx="293.14" cy="230.05" r="2.58" fill="param(accent_colour_1)"/>
    <circle cx="298.41" cy="230.87" r="2.58" fill="param(accent_colour_1)"/>
    <circle cx="303.81" cy="231.59" r="2.58" fill="param(accent_colour_1)"/>
    <circle cx="308.72" cy="228.55" r="2.58" fill="param(accent_colour_1)"/>
    <circle cx="312.22" cy="224.34" r="2.58" fill="param(accent_colour_1)"/>
    <circle cx="313.72" cy="230.88" r="2.58" fill="param(accent_colour_1)"/>
    <circle cx="317.01" cy="226.34" r="2.58" fill="param(accent_colour_1)"/>
    <circle cx="309.05" cy="233.96" r="2.58" fill="param(accent_colour_1)"/>
    <circle cx="303.42" cy="237.13" r="2.58" fill="param(accent_colour_1)"/>
    <circle cx="308.67" cy="239.13" r="2.58" fill="param(accent_colour_1)"/>
    <circle cx="313.47" cy="241.71" r="2.58" fill="param(accent_colour_1)"/>
    <circle cx="313.79" cy="236.5" r="2.58" fill="param(accent_colour_1)"/>
    <circle cx="298.01" cy="236.46" r="2.58" fill="param(accent_colour_1)"/>
    <circle cx="292.64" cy="235.42" r="2.58" fill="param(accent_colour_1)"/>
    <circle cx="287.67" cy="233.5" r="2.58" fill="param(accent_colour_1)"/>
    <circle cx="282.97" cy="230.71" r="2.58" fill="param(accent_colour_1)"/>
    <circle cx="278.26" cy="227.71" r="2.58" fill="param(accent_colour_1)"/>
    <circle cx="278.34" cy="262.68" r="2.33" fill="param(accent_colour_1)"/>
    <circle cx="295.23" cy="266.04" r="2.33" fill="param(accent_colour_1)"/>
    <circle cx="313.59" cy="257.88" r="2.33" fill="param(accent_colour_1)"/>
    <circle cx="316.09" cy="274.71" r="2.33" fill="param(accent_colour_1)"/>
    <circle cx="329.59" cy="265.05" r="2.33" fill="param(accent_colour_1)"/>
    <circle cx="336.42" cy="253.88" r="2.33" fill="param(accent_colour_1)"/>
    <circle cx="347.92" cy="260.21" r="2.33" fill="param(accent_colour_1)"/>
    <circle cx="348.75" cy="275.55" r="2.33" fill="param(accent_colour_1)"/>
    <circle cx="340.34" cy="271.77" r="2.33" fill="param(accent_colour_1)"/>
    <circle cx="329.75" cy="279.71" r="2.33" fill="param(accent_colour_1)"/>
    <circle cx="296.75" cy="284.88" r="2.33" fill="param(accent_colour_1)"/>
    <circle cx="281.48" cy="280.12" r="2.33" fill="param(accent_colour_1)"/>
    <circle cx="294.09" cy="324.55" r="2.33" fill="param(accent_colour_1)"/>
    <circle cx="288.42" cy="315.55" r="2.33" fill="param(accent_colour_1)"/>
    <circle cx="288.09" cy="300.88" r="2.33" fill="param(accent_colour_1)"/>
    <circle cx="297.09" cy="309.05" r="2.33" fill="param(accent_colour_1)"/>
    <circle cx="314.09" cy="288.71" r="2.33" fill="param(accent_colour_1)"/>
    <circle cx="323.92" cy="296.21" r="2.33" fill="param(accent_colour_1)"/>
    <circle cx="336.92" cy="287.21" r="2.33" fill="param(accent_colour_1)"/>
    <circle cx="317.9" cy="311.45" r="2.33" fill="param(accent_colour_1)"/>
    <circle cx="309.92" cy="302.21" r="2.33" fill="param(accent_colour_1)"/>
    <circle cx="304.92" cy="316.88" r="2.33" fill="param(accent_colour_1)"/>
    <circle cx="311.75" cy="326.88" r="2.33" fill="param(accent_colour_1)"/>
    <path d="M 327.67,255.88 s 7.11,11,2.11,27.5-21.36,47.75-21.36,61 c -.75,1.25-1.5-.12-1.5-.12 s -.73-4.25,5.27-21,11-25.44,14.48-36.12 c 3.88-12,4.38-23.12-1-30.75 A 4.44,4.44,0,0,0,327.67,255.88Z" fill="param(accent_colour_1)"/>
    <path d="M 333.67,249.75 c 0,.5,9.38,11.75,5.63,25.88 s -5,16-5,16 h 1.25 s 5.25-12.75,5.75-22-3.75-15.87-6.87-20.62 C 333.79,248.75,333.67,249.75,333.67,249.75Z" fill="param(accent_colour_1)"/>
    <path d="M 340.29,247 s 17.5,16.75,2.88,40.5 l 1-.25 s 15.63-19.62-2.75-40.37 C 341,246.38,340.29,247,340.29,247Z" fill="param(accent_colour_1)"/>
    <path d="M 312.29,252 a 51.82,51.82,0,0,1,3.25,34.88 c -5.09,19-14.37,42.13-15.5,48.5 a 1.42,1.42,0,0,0-1-.62 s 4-15,8.38-27.37,8.88-24.62,7.63-37.75 a 78,78,0,0,0-4-17.75Z" fill="param(accent_colour_1)"/>
    <path d="M 296.29,253 a 288.83,288.83,0,0,0,1.88,36.5 c 2.14,16.86-1.12,28.75-5,39.75 A 8.24,8.24,0,0,1,292,329 s 4.25-14.5,4.88-22.87-.12-14-.75-19.87-3-20.62-1.5-32.87 C 296,252.75,296.29,253,296.29,253Z" fill="param(accent_colour_1)"/>
    <path d="M 278.54,257.38 s .38,18.5,6.5,31.88,6.38,26.25,0,36 l -1.25-.62 s 4.25-6.75,4.63-13.62 a 43.67,43.67,0,0,0-4.25-20 c -2.5-4.87-6.87-18.62-7.12-32.87 C 277.17,257.13,278.54,257.38,278.54,257.38Z" fill="param(accent_colour_1)"/>
  </g>
  <g id="outline">
    <path d="M 399.39,441.88 c -11.33-35.5-31-64.5-43.5-79.25 a 348.19,348.19,0,0,0-29.58-30.25 c -4.25-4-4.83-8.42-4.75-12.17 s 5.75-13.83,7.92-17.5 a 46.09,46.09,0,0,0,4.61-9.83 c 8.58-1.25,21.92-9.33,21.08-27.58-.42-9.11-4.92-15.17-13.08-19.29-3.37-.75-12.17,1.63-15.67,9.75-10.62-10.62-33.5-4.25-47.25,0-11.59,3.58-17.28.75-17.28.75.33,20.63,7.67,31.88,12,37 s 7.5,9.33,8,13.83-2.5,12.33-7.5,16.33 a 210.27,210.27,0,0,0-31.17,30.67 c -13.83,16.67-31.33,44.5-43.5,80.5 s -13.5,55.5-14.17,72.17.5,36.17.5,36.17 a 16.6,16.6,0,0,0,8,5,21.09,21.09,0,0,1,7.77,4.28 c 0,2.26-.12,4.14-.27,5.55,3,7,14.33,9.5,20,9.33,4.82-.14,10.36.81,13.75,2.63 a 26.73,26.73,0,0,1-.92,6.37 c 6.67,6.33,19.17,5.83,27.17,4.33,7.73-1.45,15.92-1,24.13,6.08 a 14.57,14.57,0,0,1-1.13,5.75 c 8-1.5,14.83-.5,22.5,1.83 s 23.17,4,34.17-.83,21.17-6.83,24.5-6.5 c -.7-2.15-1.33-4.12-1.89-6,2.14-2.7,8.62-7.2,17.89-8,11.33-1,17.67-5.17,19.33-12.33-.13-2.49-.29-4.94-.47-7.38 a 15.23,15.23,0,0,1,7.13-2.12 c 2.83,0,8.33-.83,10.33-7.33 C 417.22,509.88,410.72,477.38,399.39,441.88Z m -116-139.12 c -1.75-3.75-10-12.75-12.87-18.12 s -5.87-13.12-6.12-25.37 c 8.13,2.38,22.27-3.65,31-5.62,12.75-2.87,25.13-.37,31.88,4.38,4-8,9.58-10.46,14.46-10.21,2.67,1.5,5.58,4.38,8.58,9.5,2.57,4.38,3,12.46,1,18.32v-.2 a 2.51,2.51,0,0,0-2.5-2.5 h -.24 a 2.51,2.51,0,0,0-2.5,2.5v.24 a 2.51,2.51,0,0,0,2.5,2.5 h .24 a 2.49,2.49,0,0,0,1.8-.77 c -.16.34-.33.68-.51,1 C 344.84,287.71,339,290,331.5,291.29 c -.67,8-7.29,16.46-9.42,21.33-1.39,3.2-2.86,6.93-2.65,10.74 a 123.79,123.79,0,0,1-11.87,20.84 c -8.45-15.36-23.82-20.71-28.36-22 C 285.53,314.17,284.86,305.9,283.39,302.75Z m 67.14-27.3v.17 a 1.69,1.69,0,0,1-1.69,1.69 h -.17 a 1.69,1.69,0,0,1-1.69-1.69v-.17 a 1.69,1.69,0,0,1,1.69-1.69 h .17 A 1.69,1.69,0,0,1,350.53,275.45Z m 57.2,273.09 a 21.81,21.81,0,0,0-7.34,2.1 c -2.06-25.27-6.84-47.95-13.33-76.1-7.33-31.83-29.33-82.67-41.33-100.17 s -20.67-26.17-20.67-26.17 c 17.17,22.5,29,42,43.17,78 s 19,60.83,23,79.17 A 418.07,418.07,0,0,1,398.89,560 c -.17,1.67-4.5,9.5-18.5,10.67-10.58.88-15.63,5.18-17.47,7.24-2.29-8.16-3.28-15-3.53-27.9-.33-17.33-2.67-44-6.5-63.67 s -13-50.33-18.5-68.5-18.33-52.33-22.33-60.17 c 6.67,17.5,17.33,51.67,22.17,68.17 s 15,50.33,19.17,81.17,3,44.83,3.83,56.17 a 88.77,88.77,0,0,0,4.5,21.33 s -11.33,1-18.83,4.83-19.5,4.5-25.67,3.67-19.33-5.83-28.67-4.33 c 2.5-12.83-2.33-34.67-4.17-46 s -3.89-44.44-1.83-75.17 c 2.17-32.33,8-58.17,12.33-77.33 s 6.83-30.33,6.83-30.33-17.5,52.17-21.83,97.33-.5,75,2.5,93.17 c 2,11.88,3.35,24.4,3.38,32.86-2.27-2.18-7.39-5.8-16.55-6-13.17-.33-23,4.17-31.5-2.33,1.67-13.83.67-28.83.5-40.83 s 1-45,5.67-70.67,13.5-48.5,20.5-65.83,21.33-46.83,21.33-46.83 a 455.94,455.94,0,0,0-32.67,68.83 c -14.5,38.83-16.17,76.33-17.17,95.67-.75,14.58.1,38.35-.43,51.88 a 27.85,27.85,0,0,0-13.24-2.55 c -7.83.67-16.5-4.5-17.5-6.67.33-12-1-37.67,1.83-61.17 s 9.67-52.5,15.83-68.17,17.83-42.67,34.5-66.5,17.67-25,17.67-25-26,29-44.5,67.83 S 204.72,480,202.89,504.71 c -1.32,17.78-1,33.66-1,44-3-2.65-8.1-3.32-12.31-6.51-1.5-14.17-3.17-50.67,7.83-88.67 s 23.75-63.92,38.75-85 a 206.5,206.5,0,0,1,38.63-41.75,32.62,32.62,0,0,0,2.67-2.51 c 11.36,1.78,22.43,11.62,30,23.63,6-6.36,10.93-16.57,12.83-20.77 a 12.36,12.36,0,0,0,1.17,2.27 c 3.75,5.75.5,1.33,16.5,17.5 s 28.83,32.33,40.83,54.83,18.67,41.5,25.67,68,9.83,59.5,11,73.67 A 8.84,8.84,0,0,1,407.72,548.54Z"/>
    <path d="M 308.92,295.79 c -17.08,2.42-24.92-3.25-24.92-3.25 C 292.92,302,305.75,297.88,308.92,295.79Z"/>
    <path d="M 296.64,282.16 a 2.51,2.51,0,0,0-2.5,2.5v.24 a 2.51,2.51,0,0,0,2.5,2.5 h .24 a 2.51,2.51,0,0,0,2.5-2.5v-.24 a 2.51,2.51,0,0,0-2.5-2.5Z m 1.89,2.54v.17 a 1.69,1.69,0,0,1-1.69,1.69 h -.17 a 1.69,1.69,0,0,1-1.69-1.69v-.17 a 1.69,1.69,0,0,1,1.69-1.69 h .17 A 1.69,1.69,0,0,1,298.53,284.7Z"/>
    <path d="M 295.13,268.6 h .24 a 2.51,2.51,0,0,0,2.5-2.5v-.24 a 2.51,2.51,0,0,0-2.5-2.5 h -.24 a 2.51,2.51,0,0,0-2.5,2.5v.24 A 2.51,2.51,0,0,0,295.13,268.6Z m -1.65-2.7 a 1.69,1.69,0,0,1,1.69-1.69 h .17 A 1.69,1.69,0,0,1,297,265.9v.17 a 1.69,1.69,0,0,1-1.69,1.69 h -.17 a 1.69,1.69,0,0,1-1.69-1.69Z"/>
    <path d="M 294.23,321.79 H 294 a 2.51,2.51,0,0,0-2.5,2.5v.24 A 2.51,2.51,0,0,0,294,327 h .24 a 2.51,2.51,0,0,0,2.5-2.5v-.24 A 2.51,2.51,0,0,0,294.23,321.79Z m 1.65,2.7 a 1.69,1.69,0,0,1-1.69,1.69 H 294 a 1.69,1.69,0,0,1-1.69-1.69v-.17 a 1.69,1.69,0,0,1,1.69-1.69 h .17 a 1.69,1.69,0,0,1,1.69,1.69Z"/>
    <path d="M 288.56,312.79 h -.24 a 2.51,2.51,0,0,0-2.5,2.5v.24 a 2.51,2.51,0,0,0,2.5,2.5 h .24 a 2.51,2.51,0,0,0,2.5-2.5v-.24 A 2.51,2.51,0,0,0,288.56,312.79Z m 1.65,2.7 a 1.69,1.69,0,0,1-1.69,1.69 h -.17 a 1.69,1.69,0,0,1-1.69-1.69v-.17 a 1.69,1.69,0,0,1,1.69-1.69 h .17 a 1.69,1.69,0,0,1,1.69,1.69Z"/>
    <path d="M 288,303.36 h .24 a 2.51,2.51,0,0,0,2.5-2.5v-.24 a 2.51,2.51,0,0,0-2.5-2.5 H 288 a 2.51,2.51,0,0,0-2.5,2.5v.24 A 2.51,2.51,0,0,0,288,303.36Z m -1.65-2.7 A 1.69,1.69,0,0,1,288,299 h .17 a 1.69,1.69,0,0,1,1.69,1.69v.17 a 1.69,1.69,0,0,1-1.69,1.69 H 288 a 1.69,1.69,0,0,1-1.69-1.69Z"/>
    <path d="M 284.11,279.9 a 2.51,2.51,0,0,0-2.5-2.5 h -.24 a 2.51,2.51,0,0,0-2.5,2.5v.24 a 2.51,2.51,0,0,0,2.5,2.5 h .24 a 2.51,2.51,0,0,0,2.5-2.5Z m -.85.2 a 1.69,1.69,0,0,1-1.69,1.69 h -.17 a 1.69,1.69,0,0,1-1.69-1.69v-.17 a 1.69,1.69,0,0,1,1.69-1.69 h .17 a 1.69,1.69,0,0,1,1.69,1.69Z"/>
    <path d="M 281,262.75v-.24 a 2.51,2.51,0,0,0-2.5-2.5 h -.24 a 2.51,2.51,0,0,0-2.5,2.5v.24 a 2.51,2.51,0,0,0,2.5,2.5 h .24 A 2.51,2.51,0,0,0,281,262.75Z m -.85,0 a 1.69,1.69,0,0,1-1.69,1.69 h -.17 a 1.69,1.69,0,0,1-1.69-1.69v-.17 a 1.69,1.69,0,0,1,1.69-1.69 h .17 a 1.69,1.69,0,0,1,1.69,1.69Z"/>
    <path d="M 297.22,306.43 H 297 a 2.51,2.51,0,0,0-2.5,2.5v.24 a 2.51,2.51,0,0,0,2.5,2.5 h .24 a 2.51,2.51,0,0,0,2.5-2.5v-.24 A 2.51,2.51,0,0,0,297.22,306.43Z m 1.65,2.7 a 1.69,1.69,0,0,1-1.69,1.69 H 297 a 1.69,1.69,0,0,1-1.69-1.69V309 a 1.69,1.69,0,0,1,1.69-1.69 h .17 a 1.69,1.69,0,0,1,1.69,1.69Z"/>
    <path d="M 313.48,260.42 h .24 a 2.51,2.51,0,0,0,2.5-2.5v-.24 a 2.51,2.51,0,0,0-2.5-2.5 h -.24 a 2.51,2.51,0,0,0-2.5,2.5v.24 A 2.51,2.51,0,0,0,313.48,260.42Z m -1.65-2.7 a 1.69,1.69,0,0,1,1.69-1.69 h .17 a 1.69,1.69,0,0,1,1.69,1.69v.17 a 1.69,1.69,0,0,1-1.69,1.69 h -.17 a 1.69,1.69,0,0,1-1.69-1.69Z"/>
    <path d="M 311.94,324.42 h -.24 a 2.51,2.51,0,0,0-2.5,2.5v.24 a 2.51,2.51,0,0,0,2.5,2.5 h .24 a 2.51,2.51,0,0,0,2.5-2.5v-.24 A 2.51,2.51,0,0,0,311.94,324.42Z m 1.65,2.7 a 1.69,1.69,0,0,1-1.69,1.69 h -.17 a 1.69,1.69,0,0,1-1.69-1.69V327 a 1.69,1.69,0,0,1,1.69-1.69 h .17 a 1.69,1.69,0,0,1,1.69,1.69Z"/>
    <path d="M 305.1,314.25 h -.24 a 2.51,2.51,0,0,0-2.5,2.5V317 a 2.51,2.51,0,0,0,2.5,2.5 h .24 a 2.51,2.51,0,0,0,2.5-2.5v-.24 A 2.51,2.51,0,0,0,305.1,314.25Z m 1.65,2.7 a 1.69,1.69,0,0,1-1.69,1.69 h -.17 A 1.69,1.69,0,0,1,303.2,317v-.17 a 1.69,1.69,0,0,1,1.69-1.69 h .17 a 1.69,1.69,0,0,1,1.69,1.69Z"/>
    <path d="M 316.68,288.82v-.24 a 2.51,2.51,0,0,0-2.5-2.5 h -.24 a 2.51,2.51,0,0,0-2.5,2.5v.24 a 2.51,2.51,0,0,0,2.5,2.5 h .24 A 2.51,2.51,0,0,0,316.68,288.82Z m -2.7,1.65 a 1.69,1.69,0,0,1-1.69-1.69v-.17 a 1.69,1.69,0,0,1,1.69-1.69 h .17 a 1.69,1.69,0,0,1,1.69,1.69v.17 a 1.69,1.69,0,0,1-1.69,1.69Z"/>
    <path d="M 323.88,298.82 h .24 a 2.51,2.51,0,0,0,2.5-2.5v-.24 a 2.51,2.51,0,0,0-2.5-2.5 h -.24 a 2.51,2.51,0,0,0-2.5,2.5v.24 A 2.51,2.51,0,0,0,323.88,298.82Z m -1.65-2.7 a 1.69,1.69,0,0,1,1.69-1.69 h .17 a 1.69,1.69,0,0,1,1.69,1.69v.17 a 1.69,1.69,0,0,1-1.69,1.69 h -.17 a 1.69,1.69,0,0,1-1.69-1.69Z"/>
    <path d="M 336.28,256.45 h .24 a 2.51,2.51,0,0,0,2.5-2.5v-.24 a 2.51,2.51,0,0,0-2.5-2.5 h -.24 a 2.51,2.51,0,0,0-2.5,2.5v.24 A 2.51,2.51,0,0,0,336.28,256.45Z m -1.65-2.7 a 1.69,1.69,0,0,1,1.69-1.69 h .17 a 1.69,1.69,0,0,1,1.69,1.69v.17 a 1.69,1.69,0,0,1-1.69,1.69 h -.17 a 1.69,1.69,0,0,1-1.69-1.69Z"/>
    <path d="M 317.73,308.84 a 2.51,2.51,0,0,0-2.5,2.5v.24 a 2.51,2.51,0,0,0,2.5,2.5 H 318 a 2.51,2.51,0,0,0,2.5-2.5v-.24 a 2.51,2.51,0,0,0-2.5-2.5Z m 1.89,2.54v.17 a 1.69,1.69,0,0,1-1.69,1.69 h -.17 a 1.69,1.69,0,0,1-1.69-1.69v-.17 a 1.69,1.69,0,0,1,1.69-1.69 h .17 A 1.69,1.69,0,0,1,319.63,311.38Z"/>
    <path d="M 329.81,277 h -.24 a 2.51,2.51,0,0,0-2.5,2.5v.24 a 2.51,2.51,0,0,0,2.5,2.5 h .24 a 2.51,2.51,0,0,0,2.5-2.5v-.24 A 2.51,2.51,0,0,0,329.81,277Z m 1.65,2.7 a 1.69,1.69,0,0,1-1.69,1.69 h -.17 a 1.69,1.69,0,0,1-1.69-1.69v-.17 a 1.69,1.69,0,0,1,1.69-1.69 h .17 a 1.69,1.69,0,0,1,1.69,1.69Z"/>
    <path d="M 336.9,284.62 h -.24 a 2.51,2.51,0,0,0-2.5,2.5v.24 a 2.51,2.51,0,0,0,2.5,2.5 h .24 a 2.51,2.51,0,0,0,2.5-2.5v-.24 A 2.51,2.51,0,0,0,336.9,284.62Z m 1.65,2.7 a 1.69,1.69,0,0,1-1.69,1.69 h -.17 a 1.69,1.69,0,0,1-1.69-1.69v-.17 a 1.69,1.69,0,0,1,1.69-1.69 h .17 a 1.69,1.69,0,0,1,1.69,1.69Z"/>
    <path d="M 307.3,302.08v.24 a 2.51,2.51,0,0,0,2.5,2.5 H 310 a 2.51,2.51,0,0,0,2.5-2.5v-.24 a 2.51,2.51,0,0,0-2.5-2.5 h -.24 A 2.51,2.51,0,0,0,307.3,302.08Z m .85,0 a 1.69,1.69,0,0,1,1.69-1.69 H 310 a 1.69,1.69,0,0,1,1.69,1.69v.17 A 1.69,1.69,0,0,1,310,304 h -.17 a 1.69,1.69,0,0,1-1.69-1.69Z"/>
    <path d="M 329.42,267.59 h .24 a 2.51,2.51,0,0,0,2.5-2.5v-.24 a 2.51,2.51,0,0,0-2.5-2.5 h -.24 a 2.51,2.51,0,0,0-2.5,2.5v.24 A 2.51,2.51,0,0,0,329.42,267.59Z m -1.65-2.7 a 1.69,1.69,0,0,1,1.69-1.69 h .17 a 1.69,1.69,0,0,1,1.69,1.69v.17 a 1.69,1.69,0,0,1-1.69,1.69 h -.17 a 1.69,1.69,0,0,1-1.69-1.69Z"/>
    <path d="M 337.73,271.64v.24 a 2.51,2.51,0,0,0,2.5,2.5 h .24 a 2.51,2.51,0,0,0,2.5-2.5v-.24 a 2.51,2.51,0,0,0-2.5-2.5 h -.24 A 2.51,2.51,0,0,0,337.73,271.64Z m .85,0 a 1.69,1.69,0,0,1,1.69-1.69 h .17 a 1.69,1.69,0,0,1,1.69,1.69v.17 a 1.69,1.69,0,0,1-1.69,1.69 h -.17 a 1.69,1.69,0,0,1-1.69-1.69Z"/>
    <path d="M 347.8,262.82 H 348 a 2.51,2.51,0,0,0,2.5-2.5v-.24 a 2.51,2.51,0,0,0-2.5-2.5 h -.24 a 2.51,2.51,0,0,0-2.5,2.5v.24 A 2.51,2.51,0,0,0,347.8,262.82Z m -1.65-2.7 a 1.69,1.69,0,0,1,1.69-1.69 H 348 a 1.69,1.69,0,0,1,1.69,1.69v.17 A 1.69,1.69,0,0,1,348,262 h -.17 a 1.69,1.69,0,0,1-1.69-1.69Z"/>
    <path d="M 315.9,272 a 2.51,2.51,0,0,0-2.5,2.5v.24 a 2.51,2.51,0,0,0,2.5,2.5 h .24 a 2.51,2.51,0,0,0,2.5-2.5v-.24 a 2.51,2.51,0,0,0-2.5-2.5Z m 1.89,2.54v.17 a 1.69,1.69,0,0,1-1.69,1.69 h -.17 a 1.69,1.69,0,0,1-1.69-1.69v-.17 a 1.69,1.69,0,0,1,1.69-1.69 h .17 A 1.69,1.69,0,0,1,317.8,274.57Z"/>
    <path d="M 278.16,230.64 h .27 a 2.8,2.8,0,0,0,1.65-.54,2.79,2.79,0,0,0,0,.44v.27 a 2.84,2.84,0,0,0,2.83,2.83 h .27 a 2.8,2.8,0,0,0,1.62-.52 c 0,.07,0,.13,0,.2v.27 a 2.84,2.84,0,0,0,2.83,2.83 h .27 a 2.81,2.81,0,0,0,1.88-.73,2.83,2.83,0,0,0,2.81,2.65 h .27 a 2.83,2.83,0,0,0,2.33-1.23,2.84,2.84,0,0,0,2.77,2.27 h .27 a 2.83,2.83,0,0,0,2.42-1.4,2.83,2.83,0,0,0,2.71,2.07 h .27 a 2.81,2.81,0,0,0,2.15-1v.18 a 2.84,2.84,0,0,0,2.83,2.83 h .27 a 2.8,2.8,0,0,0,1.7-.59 s 0,0,0,.07v.27 a 2.84,2.84,0,0,0,2.83,2.83 h .27 a 2.84,2.84,0,0,0,2.83-2.83v-.27 a 2.83,2.83,0,0,0-1.31-2.38,2.83,2.83,0,0,0,1.64-2.56v-.27 a 2.83,2.83,0,0,0-2-2.69,2.83,2.83,0,0,0,1.91-2.66v-.27 a 2.8,2.8,0,0,0-.45-1.52,2.79,2.79,0,0,0,.64.08 h .27 a 2.84,2.84,0,0,0,2.83-2.83v-.27 a 2.84,2.84,0,0,0-2.83-2.83 h -.27 a 2.8,2.8,0,0,0-1.71.59,2.83,2.83,0,0,0-2.81-2.59 h -.27 a 2.84,2.84,0,0,0-2.83,2.83v.27 a 2.79,2.79,0,0,0,.28,1.19,2.78,2.78,0,0,0-.67-.09 h -.27 a 2.84,2.84,0,0,0-2.83,2.83v.27 a 2.79,2.79,0,0,0,.09.69,2.81,2.81,0,0,0-1.9-.75 h -.27 A 2.83,2.83,0,0,0,301.3,230 a 2.83,2.83,0,0,0-2.72-2.09 h -.27 a 2.83,2.83,0,0,0-2.3,1.2,2.83,2.83,0,0,0-2.7-2 H 293 a 2.82,2.82,0,0,0-2,.82,2.83,2.83,0,0,0-2.82-2.74 h -.27 a 2.8,2.8,0,0,0-1.65.54 c 0-.09,0-.18,0-.27v-.27 a 2.84,2.84,0,0,0-2.83-2.83 h -.27 a 2.84,2.84,0,0,0-2.83,2.83v.27 s 0,.08,0,.12 a 2.82,2.82,0,0,0-2-.81 h -.27 a 2.84,2.84,0,0,0-2.83,2.83v.27 A 2.84,2.84,0,0,0,278.16,230.64Z m 3.09-3.23 a 2.85,2.85,0,0,0,.66.47,2.82,2.82,0,0,0-.7.36,2.78,2.78,0,0,0,0-.44v-.27 S 281.25,227.46,281.25,227.41Z m 3.9,1.14 a 2.85,2.85,0,0,0-.7-.51,2.82,2.82,0,0,0,.7-.37 c 0,.09,0,.18,0,.27v.27 A 2.76,2.76,0,0,0,285.15,228.56Z m 6.47,4 a 2.82,2.82,0,0,0-1,.57,2.82,2.82,0,0,0-1.44-2.28,2.84,2.84,0,0,0,1-.64 A 2.82,2.82,0,0,0,291.62,232.58Z m -5.68-2.37 a 2.85,2.85,0,0,0,.64.48,2.82,2.82,0,0,0-.63.33 c 0-.07,0-.13,0-.2v-.27 A 2.76,2.76,0,0,0,285.94,230.21Z m -2.84,2.47 h -.19 a 1.92,1.92,0,0,1-1.91-1.91v-.19 a 1.92,1.92,0,0,1,1.91-1.91 h .19 a 1.92,1.92,0,0,1,1.91,1.91v.19 A 1.92,1.92,0,0,1,283.1,232.68Z m 4.7,2.79 h -.19 a 1.92,1.92,0,0,1-1.91-1.91v-.19 a 1.92,1.92,0,0,1,1.91-1.91 h .19 a 1.92,1.92,0,0,1,1.91,1.91v.19 A 1.92,1.92,0,0,1,287.8,235.47Z m 6.88,0 a 1.92,1.92,0,0,1-1.91,1.91 h -.19 a 1.92,1.92,0,0,1-1.91-1.91v-.19 a 1.92,1.92,0,0,1,1.91-1.91 h .19 a 1.92,1.92,0,0,1,1.91,1.91Z m 5.37,1 a 1.92,1.92,0,0,1-1.91,1.91 h -.19 a 1.92,1.92,0,0,1-1.91-1.91v-.19 a 1.92,1.92,0,0,1,1.91-1.91 h .19 a 1.92,1.92,0,0,1,1.91,1.91Z m 5.41.67 a 1.92,1.92,0,0,1-1.91,1.91 h -.19 a 1.92,1.92,0,0,1-1.91-1.91V237 a 1.92,1.92,0,0,1,1.91-1.91 h .19 a 1.92,1.92,0,0,1,1.91,1.91Z m 1-.05V237 a 2.83,2.83,0,0,0-1.65-2.56,2.83,2.83,0,0,0,1.38-.91,2.76,2.76,0,0,0,0,.31v.27 a 2.83,2.83,0,0,0,1.25,2.34 A 2.84,2.84,0,0,0,306.42,237.14Z m .3-6.41 a 2.83,2.83,0,0,0,.93.57,2.84,2.84,0,0,0-.87.7,2.76,2.76,0,0,0,0-.31v-.27 A 2.78,2.78,0,0,0,306.72,230.73Z m 7.39-4.05 a 2.8,2.8,0,0,0,.43,1.28,2.79,2.79,0,0,0-.64-.08 h -.27 a 2.81,2.81,0,0,0-1.9.75v-.25 a 2.79,2.79,0,0,0-.28-1.19,2.78,2.78,0,0,0,.67.09 h .27 A 2.8,2.8,0,0,0,314.1,226.67Z m -2.48,11.85 a 2.85,2.85,0,0,0,.55.46,2.83,2.83,0,0,0-.51.31 s 0,0,0-.07V239 A 2.78,2.78,0,0,0,311.63,238.52Z m -2.63-6.6 h .19 a 1.92,1.92,0,0,1,1.91,1.91V234 a 1.92,1.92,0,0,1-1.91,1.91 H 309 a 1.92,1.92,0,0,1-1.91-1.91v-.19 A 1.92,1.92,0,0,1,309,231.92Z m 1.87,4.44v.25 a 2.78,2.78,0,0,0,0,.43,2.85,2.85,0,0,0-.48-.42 A 2.83,2.83,0,0,0,310.86,236.36Z M 312,233.3 a 2.82,2.82,0,0,0,.77.37,2.82,2.82,0,0,0-.72.37v-.25 A 2.8,2.8,0,0,0,312,233.3Z m -1.17-1.82 a 2.82,2.82,0,0,0-.64-.33,2.84,2.84,0,0,0,.59-.41V231 A 2.8,2.8,0,0,0,310.84,231.47Z m -2,9.63 h -.19 a 1.92,1.92,0,0,1-1.91-1.91V239 a 1.92,1.92,0,0,1,1.91-1.91 h .19 a 1.92,1.92,0,0,1,1.91,1.91v.19 A 1.92,1.92,0,0,1,308.8,241.1Z m 6.71.67 a 1.92,1.92,0,0,1-1.91,1.91 h -.19 a 1.92,1.92,0,0,1-1.91-1.91v-.19 a 1.92,1.92,0,0,1,1.91-1.91 h .19 a 1.92,1.92,0,0,1,1.91,1.91Z m .33-5.4v.19 a 1.92,1.92,0,0,1-1.91,1.91 h -.19 a 1.92,1.92,0,0,1-1.91-1.91v-.19 a 1.92,1.92,0,0,1,1.91-1.91 h .19 A 1.92,1.92,0,0,1,315.83,236.37Z m -.08-5.44 a 1.92,1.92,0,0,1-1.91,1.91 h -.19 a 1.92,1.92,0,0,1-1.91-1.91v-.19 a 1.92,1.92,0,0,1,1.91-1.91 h .19 a 1.92,1.92,0,0,1,1.91,1.91Z M 317,224.3 h .19 a 1.92,1.92,0,0,1,1.91,1.91v.19 a 1.92,1.92,0,0,1-1.91,1.91 H 317 A 1.92,1.92,0,0,1,315,226.4v-.19 A 1.92,1.92,0,0,1,317,224.3Z m -6.7-.09 a 1.92,1.92,0,0,1,1.91-1.91 h .19 a 1.92,1.92,0,0,1,1.91,1.91v.19 a 1.92,1.92,0,0,1-1.91,1.91 h -.19 a 1.92,1.92,0,0,1-1.91-1.91Z m -3.5,4.21 a 1.92,1.92,0,0,1,1.91-1.91 h .19 a 1.92,1.92,0,0,1,1.91,1.91v.19 a 1.92,1.92,0,0,1-1.91,1.91 h -.19 a 1.92,1.92,0,0,1-1.91-1.91Z m -4.91,3 a 1.92,1.92,0,0,1,1.91-1.91 h .19 a 1.92,1.92,0,0,1,1.91,1.91v.19 a 1.92,1.92,0,0,1-1.91,1.91 h -.19 a 1.92,1.92,0,0,1-1.91-1.91Z m -.85,1 a 2.84,2.84,0,0,0,1.54,1.82,2.83,2.83,0,0,0-1.64,1.27,2.84,2.84,0,0,0-1.58-1.83 A 2.83,2.83,0,0,0,301,232.43Z m -4.55-1.69 a 1.92,1.92,0,0,1,1.91-1.91 h .19 a 1.92,1.92,0,0,1,1.91,1.91v.19 a 1.92,1.92,0,0,1-1.91,1.91 h -.19 a 1.92,1.92,0,0,1-1.91-1.91Z m -.83,1 a 2.84,2.84,0,0,0,1.57,1.78,2.84,2.84,0,0,0-1.6,1.12,2.84,2.84,0,0,0-1.36-1.87 A 2.84,2.84,0,0,0,295.61,231.78Z m -4.44-1.86 a 1.92,1.92,0,0,1,1.91-1.91 h .19 a 1.92,1.92,0,0,1,1.91,1.91v.19 a 1.92,1.92,0,0,1-1.91,1.91 h -.19 a 1.92,1.92,0,0,1-1.91-1.91Z M 288,226.09 h .19 a 1.92,1.92,0,0,1,1.91,1.91v.19 a 1.92,1.92,0,0,1-1.91,1.91 H 288 a 1.92,1.92,0,0,1-1.91-1.91V228 A 1.92,1.92,0,0,1,288,226.09Z m -6.64-.92 a 1.92,1.92,0,0,1,1.91-1.91 h .19 a 1.92,1.92,0,0,1,1.91,1.91v.19 a 1.92,1.92,0,0,1-1.91,1.91 h -.19 a 1.92,1.92,0,0,1-1.91-1.91Z m -5.07,2.42 a 1.92,1.92,0,0,1,1.91-1.91 h .19 a 1.92,1.92,0,0,1,1.91,1.91v.19 a 1.92,1.92,0,0,1-1.91,1.91 h -.19 a 1.92,1.92,0,0,1-1.91-1.91Z"/>
  </g>
<script type="text/ecmascript" xlink:href="param.min.js"/> 
</svg>
