<?xml version="1.0"?>
<svg xmlns="http://www.w3.org/2000/svg" xmlns:xlink="http://www.w3.org/1999/xlink" viewBox="0 0 600 600">
  <title>slender-bottoms-template</title>
  <g id="skin-tone">
    <path d="M 345.23,256.87 c -1.6-2.61-4.65-4.74-9-8.26-.34-.29-.93-.81-1.25-1.08-.76-.7-1.56-1.48-2.29-2.23 l 0,.1 c -.53-.53-1.07-1.1-1.48-1.53 a 10.8,10.8,0,0,0-5.62-15.71v-.27 a 11.12,11.12,0,0,0-9.24.73,3.12,3.12,0,0,0-1.56-.2,12,12,0,0,1-8.28-8.84,73.66,73.66,0,0,1-1.49-11.94 c -1.86.14-3.74.22-5.64.22q-2.61,0-5.17-.18 c -.13,2.22-.56,8.42-1.37,10.5-1,2.56-3.33,9-10.86,10.75-7.45-6.36-19.55-1.14-20,7.95 s 6,12.33,9.33,13.42 c -1.25,5.92,1.33,21,3.17,27.5 s 6.92,19.67,9.08,28.08 c 1.88,7.29-1.37,16.76-6.93,27.23 a 53.25,53.25,0,0,0,12.08,6.63 c 9.86,3.91,25.75,5.91,36.62-1.32 a 40.89,40.89,0,0,1-2.35-14.15 c -.17-8.42,1.82-20.63,3.91-27.88.71-2.48,1.71-5.43,2.73-8.72 a 30.14,30.14,0,0,0,9.34-2.51 c 4.67-2.33,9.92-7.58,10.17-14.25 C 349.29,265.35,348.16,260.9,345.23,256.87Z" fill="param(skin_tone)"/>
  </g>
  <g id="main-colour">
    <path d="M 331,352.65 a 140.8,140.8,0,0,1-6.12-14 l -.81.48 c -.25-.69-.48-1.4-.71-2.11 a 33.89,33.89,0,0,1-15.16,4.7 c -9.56.57-23.23-5.92-29.7-9.3 l -.84,1.57-.66-.46 s -3.87,6.63-6.12,10.13 A 57.86,57.86,0,0,0,262.14,370 a 24.81,24.81,0,0,0,2.68,13,24,24,0,0,0,39.09,6.26,24,24,0,0,0,29.29-23.41 h 0 C 333.75,362.61,332.76,355.77,331,352.65Z" fill="param(main_colour)"/>
  </g>
  <g id="outline">
    <path d="M 260.51,372.76 a 57.69,57.69,0,0,1,5.42-22.38 c 5.5-11.83,18.62-28.5,16.79-41.33 s -9-25.33-11.46-40.33 a 112.55,112.55,0,0,1-1.33-18.33 h 2.55 s -.81,12,1.8,22.5,7.29,21.16,9.46,29.28,2.31,11.42-.46,19.63 c -3.12,9.25-11.43,22.1-14.18,27.47 s -6.83,15.88-6.58,23.5 C 262,373.5,260.51,372.76,260.51,372.76Z"/>
    <path d="M 324.47,318.79 c .86-9.83,4-20.86,6.64-31.31-.94.11-1.88.17-2.59.2-5.24,18.49-8.71,32.13-6.05,46,2.62,12,10.25,18.83,10.73,32.17.5-2,1.62-8.25-4.23-20.25 C 326,339.5,323.16,333.7,324.47,318.79Z"/>
    <path d="M 309.07,381 a 24,24,0,0,1-46.56-8.22 s -.43-5.55,3.16-15.53 a 26,26,0,1,0,45.66,23.29 A 13.75,13.75,0,0,1,309.07,381Z"/>
    <path d="M 311.33,380.5 l 0-.06Z"/>
    <path d="M 310.83,317.93 s -5.07,8.72-2.58,9.44 c 1,.2,1.7-1.44.9-3.34 A 29,29,0,0,1,310.83,317.93Z"/>
    <path d="M 309.21,381 a 11.07,11.07,0,0,1,0,2 c 1.82-.26,6.35-2.53,7.82-5.6 C 317,377.36,314.68,380.16,309.21,381Z"/>
    <path d="M 278.46,228.15 s 3,1.65,6,3.31,7.83,2.25,12.5,1.42 c -3.92,0-10.23-.88-14.74-4.73 A 7.09,7.09,0,0,0,278.46,228.15Z"/>
    <path d="M 293.57,207.64 c 0,1.77-.57,18.2-12,20.18-.18,1.23,1.49,1.9,1.49,1.9 s 11.68-2.25,12.15-22Z"/>
    <path d="M 316.63,228.44 a 26.5,26.5,0,0,1-10.12,3.19 c 3.75-1.17,9.06-5.28,10.12-5.39,1.88-.86,6.31-.86,8.89,1.64 a 11.26,11.26,0,0,0-8.35.33Z"/>
    <path d="M 306,207.56 l -1.48.12 a 41.37,41.37,0,0,0,1.15,11.62 c 1.67,7.92,8.08,9.64,8.08,9.64 a 3.06,3.06,0,0,0,1.42-1.05 C 306.62,225,306.51,215.58,306,207.56Z"/>
    <path d="M 311.12,230.57 s 2-.85,6.2-2.46"/>
    <path d="M 272.45,249.51 h 0 a 11.2,11.2,0,1,1,7.7-20.44 h 0 c 2.33,1.28,5.19,2.79,5.32,2.86 a 13.2,13.2,0,1,0-13,19.6 C 272.49,251,272.45,249.51,272.45,249.51Z"/>
    <path d="M 327.9,240.25 s 7.94,8.06,14.1,11.9 c 8.6,5.34,10.48,15.42,7.49,23.3-3.83,10.11-16,15.45-27.33,11.61,5.39.8,16.17-.25,22.83-8.67,4.24-5.35,4.75-17-3.17-23.83 C 336.85,250.26,329.62,243.53,327.9,240.25Z"/>
    <path d="M 308.75,247.63 s 15.76,5.82,18.25,18.27 c 2.25,11.25-4.58,24.42-18.58,25.92-8.71.93-13.3-2.19-16.61-4.52,4.93,2.5,15.17,5,23.7.1,8.25-4.75,11.13-16.12,7.83-24.75 C 320.26,254.59,311.35,248.8,308.75,247.63Z"/>
    <path d="M 278,331.86 s 9.92,5.17,17.29,7.46,11.79,2.21,13.42,2.08 a 34.89,34.89,0,0,0,14.83-4.71,9.71,9.71,0,0,0,.4,1.27 s -7.17,4.44-15.12,4.69-17.6-2-31.44-9.56 A 10,10,0,0,1,278,331.86Z"/>
  </g>
<script type="text/ecmascript" xlink:href="param.min.js"/> 
</svg>
