<?xml version="1.0"?>
<svg xmlns="http://www.w3.org/2000/svg" xmlns:xlink="http://www.w3.org/1999/xlink" viewBox="0 0 600 600">
  <title>one-piece-swimsuit-hourglass</title>
  <g id="skin-tone">
    <g id="skin-tone-2" data-name="skin-tone">
      <path d="M 324.81,336.57 c -4.1-5.85-5.17-8.93-4.76-14.14 s 4.92-13.67,8.5-19.67 A 57.44,57.44,0,0,0,333.62,290 l -.39.11,1-6.84 s .89-5.48,1.43-14 c .42-6.66.49-8.53-.67-13.33-.41-1.69-1.32-4.74-1.85-6.49 l -.15.11-.63-1.56 a 11.64,11.64,0,0,0-11.8-19.68v-.38 c -10.71-2.26-13.38-13.35-14.21-20.26-2.16.19-4.35.31-6.56.31 s -4.42-.12-6.6-.31 a 26.62,26.62,0,0,1-3.55,11 c -3.25,5.75-8.25,8.42-14.42,10.25-5.33-2.17-11.92-4-16.83-1.17 s -7.33,8-6.42,14,5.91,9.24,11,10.42 c -.08,8.08,1.5,22.33,4.83,29.25 s 9.33,14.42,11.92,17.92,4.42,9.42,2.92,18.08 c -.68,3.92-3.19,8-6.13,11.66 l .14.31 c -4,4.67-12.17,10-18.41,19.32 s -5.59,22.44-5.59,22.44 h 0v.1 a 25.5,25.5,0,0,0,45.14,16.26,25.51,25.51,0,0,0,37.88-30.14 c -.49-7.77-10.86-20.7-10.86-20.7Z" fill="param(skin_tone)"/>
    </g>
  </g>
  <g id="main-colour">
    <path d="M 263.69,262.3 a 21.81,21.81,0,0,0,11.75-11.5 c 4-8.92,4.08-12.42,1.08-22.5 a 26.52,26.52,0,0,0,3.92-1.25 s 4.75,12.25,12,19.5,17.25,6.92,21,4.5 a 15.35,15.35,0,0,0,6.83-14.25 c -.5-6.92-.75-9.42-.75-9.42 l 2.67-.83 a 58.3,58.3,0,0,0,4.25,9.5 c 2.67,4.67,8.17,14.67,9,24.42 A 103.49,103.49,0,0,1,333,290.88 c -2.08,8.42-6,13.58-8.08,18.08 s -6.5,11.42-4.58,18.5,7.25,12.17,8.5,15.33 c -3.5,2.5-6.33,6.17-8.92,13.5 s -4.25,13.5-5.75,18.92-4.67,12.33-15.25,12.75 a 27.41,27.41,0,0,0,5.75-17.33,26.85,26.85,0,0,0-9-19.25 C 289.86,346,275,339.88,259.86,346 c 4.92-5.5,11.42-11,16.33-16.5 s 7.58-12.75,7.17-18.75-2.58-10.67-7.42-16.58 S 263.27,276.55,263.69,262.3Z" fill="param(main_colour)"/>
  </g>
  <g id="outline">
    <path d="M 322.17,225.48 a 9.74,9.74,0,0,0-3.45,1.06 l -.9.39 c .21.74.49,1.61.61,2.08,1.34-.57,2.59-1.44,4.2-2Z"/>
    <path d="M 275.33,227.63 a 24.92,24.92,0,0,1,1.53,17.25 c -2.58,9-8.33,15.42-14.42,16.83 a 4.46,4.46,0,0,0,.17,1.83 s 11.58-2.67,16-18.42 c 2-7.13,0-15.5-1.62-17.87 C 276.23,227.38,275.33,227.63,275.33,227.63Z"/>
    <path d="M 280.69,225.88 s 6.25,16.17,15.25,22.58,29.33,4.69,21.88-21.53 c .9-.39,1.54-.72,1.54-.72 s 5,13.42-1.42,22.08-18.82,4.9-23.5,1.17 c -5.58-4.46-10.83-12.33-15.33-22.92 C 279.77,226.3,280.69,225.88,280.69,225.88Z"/>
    <path d="M 329.27,242.71 c -.48-1-1.72-3.16-3.73-6.65 a 53,53,0,0,1-4.25-10.44 l 1.38-.25 a 56,56,0,0,0,2.38,6.56 c 1.25,2.69,6.81,12.5,8,15.38 a 10.48,10.48,0,0,1,1,4.63 L 332.11,250 S 330.44,245.09,329.27,242.71Z"/>
    <path d="M 275.33,227.63 a 31.66,31.66,0,0,0,5.36-1.75 l .48,1.71 a 19.67,19.67,0,0,1-4.88,1.56 A 4.77,4.77,0,0,0,275.33,227.63Z"/>
    <path d="M 262.44,261.71 s .75,10.33,3.5,17.5 a 58.89,58.89,0,0,0,8.33,14.33,93.78,93.78,0,0,1,5.52,7.71 c 1.44,2.56,3.88,8.25,1.69,16.44 s -6.5,11.88-10.37,15.75-10.75,10.35-12.92,14.19 c 10.58-4.5,20-4.08,29.83-.08 a 25.15,25.15,0,0,1,15,17.08 c 1.5,5.25,2.17,15-6.08,24.25,4.42,0,12-1.58,14.75-6.17 s 3.83-9.83,4.5-12.33,6.5-25,14-27.25 c 0,0-3.25-4.75-5.33-7.83 s -4.92-7.33-4.08-12.92,3.75-11,6.83-16.5,6.25-10.42,7.83-22.5,2.83-23.5-2.17-35.58 c -.5.83-1.17,2.21-1.17,2.21 a 49,49,0,0,1,2.63,14,114.29,114.29,0,0,1-3.29,29.21 c -2.25,8.33-5.08,10.42-9,18.83 S 318.27,325.88,320,330 s 7.33,11,8.08,12.58 c -3.83,1.42-7.42,8.75-8.92,13.17 a 169.75,169.75,0,0,0-5,16.5 c -1.5,6.42-3.5,13.17-13.75,14.92,4.17-6.25,6.67-14,4-23.08 s -8-15.33-18.33-18.92-16.08-2.67-23.33-.75 c 5-5.08,9.33-8.92,12.75-12.67 s 8.5-9.33,8.83-18.83-2.83-12.92-6.5-17.75-8.75-11.75-10.75-18.58 a 87,87,0,0,1-2.67-14.67Z"/>
    <path d="M 297.86,387.49 A 25.49,25.49,0,0,1,252.92,368 s -.44-4.85,2.92-12.72 a 42.12,42.12,0,0,1,6.72-10.19 l -3.15.71 a 38.92,38.92,0,0,0-4,6.33,41.22,41.22,0,0,0-4.07,13,27.47,27.47,0,0,0,47.5,24.11 c 2.59-.47,7.87-1.79,11.69-5.06,0,0-6.36,3.26-12.66,3.26Z"/>
    <path d="M 282.65,232.38 l 1,.24 a 45.44,45.44,0,0,0,15.17.32,54.42,54.42,0,0,1-17.1-2.66Z"/>
    <path d="M 260.13,252.46 a 14,14,0,0,0,2,.54,57.79,57.79,0,0,0,.39,9.58 l 2.07-.71 c -.33-3.86-.41-7.08-.43-8.64 a 17,17,0,0,0-.1-2,12,12,0,0,1,.54-24,7.81,7.81,0,0,1,2,.18,12,12,0,0,1,1.62.38,68.27,68.27,0,0,1,7.12,2.48 c .89.31,1.79.6,2.69.87 l 0-2.14 a 21.35,21.35,0,0,0,11.69-8.45,27.22,27.22,0,0,0,4.47-12.86 c -.71,0-1.42-.1-2.12-.17 a 23.65,23.65,0,0,1-5.85,14.28,19.43,19.43,0,0,1-11.63,5.88 A 47.83,47.83,0,0,0,269.4,226 a 14,14,0,1,0-9.27,26.42Z"/>
    <path d="M 329.64,342.39 l -.1-.15-1.13.77 c 3.31,4.95,6.65,10.43,8.16,14.06 C 336.56,357.06,335.81,351.56,329.64,342.39Z"/>
    <path d="M 318.66,226.53 a 13.57,13.57,0,0,1-8.33-7.28,32.56,32.56,0,0,1-2.86-11.7 c -.75.08-1.51.13-2.26.18.29,3.66,1.23,10.58,4.2,14.44 s 5.87,5.24,7.09,5.6 c -.27.19-.54.39-.8.6 a 45.78,45.78,0,0,1-4.92,2.38 l 3.08-.58 a 33.6,33.6,0,0,0,4.13-1 c 2.93-1.08,5.23-3.74,11-2.17 C 326.92,225.63,323.75,224.3,318.66,226.53Z"/>
  </g>
<script type="text/ecmascript" xlink:href="param.min.js"/> 
</svg>
