<?xml version="1.0"?>
<svg xmlns="http://www.w3.org/2000/svg" xmlns:xlink="http://www.w3.org/1999/xlink" viewBox="0 0 600 600">
  <title>one-piece-swimsuit-hourglass</title>
  <g id="skin-tone">
    <g id="skin-tone-2" data-name="skin-tone">
      <path d="M 276.72,329.4 c -4,4.67-12.17,10-18.41,19.32 s -5.59,22.44-5.59,22.44 h 0v.1 a 25.5,25.5,0,0,0,45.14,16.26,25.51,25.51,0,0,0,37.88-30.14 c -.49-7.75-10.82-20.65-10.86-20.7 h 0 c -4.17-5.92-5.25-9-4.83-14.25 s 4.92-13.67,8.5-19.67 a 52.68,52.68,0,0,0,4.51-10.86,22.13,22.13,0,0,0,15.9-9.31,26.45,26.45,0,0,0,3.46-23.75 c -2.17-6.83-8.75-11-12.33-12.83-1.62-.83-3.12-1.71-4.28-2.43 l .06-.17-.23-.13 a 11.64,11.64,0,0,0-15.07-15v-.38 c -10.71-2.26-13.38-13.35-14.21-20.26-2.16.19-4.35.31-6.56.31 s -4.42-.12-6.6-.31 a 26.62,26.62,0,0,1-3.55,11 c -3.25,5.75-8.25,8.42-14.42,10.25-5.33-2.17-11.92-4-16.83-1.17 s -7.33,8-6.42,14,5.9,9.28,11,10.46 c -.08,8.08,1.5,22.33,4.83,29.25 s 9.33,14.42,11.92,17.92,4.42,9.42,2.92,18.08 c -.69,4-3.24,8.08-6.22,11.77Z" fill="param(skin_tone)"/>
    </g>
  </g>
  <g id="main-colour">
    <path d="M 263.4,262.25 a 25.51,25.51,0,0,0,14.25-16.62 c 3.38-12.5-1-17.12-1-17.12 l 4-1.37 s 4.5,12,14.38,17.63,20.88,8.25,26,4.88,4-10.62-1.62-21.87 a 7.26,7.26,0,0,1,3-1.25,29.94,29.94,0,0,0,12.13,16.13 c 9.63,6.25,16,8.63,18.5,16.38 s 3,28.5-20,32.75 c -1.37,5.5-4.5,10.75-6.5,14.5 s -7.25,12.75-6.62,19.13,8.38,16,9.13,17.38 c -4.12,2.75-7.75,7.88-10.75,17.5 S 314,378.25,311,382 a 15,15,0,0,1-12,5.88 c 3.75-5,7.5-12.12,5.13-21.87 s -9-17.37-19-20.25-14.87-3-24.62.25 c 5.88-7.5,16.75-16.37,19.63-21.75 s 4.25-14.87,1.75-20.75-7.62-11.25-10.87-16.25 S 263.65,271.38,263.4,262.25Z" fill="param(main_colour)"/>
  </g>
  <g id="outline">
    <path d="M 342.5,246.34 a 92.65,92.65,0,0,1-14.67-9.22,38.36,38.36,0,0,0,11,9 c 5.81,3,11.84,8.07,13.54,14.58,2,7.67.87,15.09-4.88,22.59-3.89,5.07-10.23,7.31-15.64,8 a 10.34,10.34,0,0,1-.25,1.48,18,18,0,0,0,7.11-1.17 c 4.38-1.62,14.89-7.68,16.27-20.81 S 350.65,250.36,342.5,246.34Z"/>
    <path d="M 275.9,284.25 c 10.5,12.13,21,14.63,34.13,11.25 C 298.38,302.39,282.36,297.84,275.9,284.25Z"/>
    <path d="M 320.77,322.38 c .83-5.58,3.75-11,6.83-16.5,2.26-4,4.56-7.76,6.25-14.22 a 20.15,20.15,0,0,1-2.09.24 c -.11.44-.22.88-.33,1.31-2.25,8.33-5.08,10.42-9,18.83 S 318.27,325.88,320,330 s 7.33,11,8.08,12.58 c -3.83,1.42-7.42,8.75-8.92,13.17 a 169.75,169.75,0,0,0-5,16.5 c -1.5,6.42-3.5,13.17-13.75,14.92,4.17-6.25,6.67-14,4-23.08 s -8-15.33-18.33-18.92-16.08-2.67-23.33-.75 c 5-5.08,9.33-8.92,12.75-12.67 s 8.5-9.33,8.83-18.83-2.83-12.92-6.5-17.75-8.75-11.75-10.75-18.58 a 87,87,0,0,1-2.67-14.67 l -2-.17 s .75,10.33,3.5,17.5 a 58.89,58.89,0,0,0,8.33,14.33,93.78,93.78,0,0,1,5.52,7.71 c 1.44,2.56,3.88,8.25,1.69,16.44 s -6.5,11.88-10.37,15.75-10.75,10.35-12.92,14.19 c 10.58-4.5,20-4.08,29.83-.08 a 25.15,25.15,0,0,1,15,17.08 c 1.5,5.25,2.17,15-6.08,24.25,4.42,0,12-1.58,14.75-6.17 s 3.83-9.83,4.5-12.33,6.5-25,14-27.25 c 0,0-3.25-4.75-5.33-7.83 S 319.94,328,320.77,322.38Z"/>
    <path d="M 322.17,225.48 a 9.74,9.74,0,0,0-3.45,1.06 l -.9.39 c .37.76.83,1.38,1.05,1.88,1.34-.57,2.15-1.25,3.76-1.79Z"/>
    <path d="M 275.33,227.63 a 24.92,24.92,0,0,1,1.53,17.25 c -2.58,9-8.33,15.42-14.42,16.83.06,1,.17,1.83.17,1.83 s 11.58-2.67,16-18.42 c 2-7.13,0-15.5-1.62-17.87 C 276.23,227.38,275.33,227.63,275.33,227.63Z"/>
    <path d="M 280.69,225.88 s 7.38,16.58,21.21,22 c 13.05,5.11,31.17,5.33,15.92-20.95.9-.39,1.54-.72,1.54-.72 s 9,16.8,4.29,22.5 c -6.06,7.29-22.08,1.25-27.42-2.17 a 42.29,42.29,0,0,1-17.13-20 C 279.77,226.3,280.69,225.88,280.69,225.88Z"/>
    <path d="M 336.34,244.63 c -4.62-2.62-8.5-6.12-10.5-9.56 a 75.31,75.31,0,0,1-4.54-9.44 l 1.38-.25 s 1.79,4.53,3.23,7.13 c 3.19,5.75,5.94,7.25,11.13,10.94Z"/>
    <path d="M 275.33,227.63 a 31.66,31.66,0,0,0,5.36-1.75 l .48,1.71 a 19.67,19.67,0,0,1-4.88,1.56 A 4.77,4.77,0,0,0,275.33,227.63Z"/>
    <path d="M 297.86,387.49 A 25.49,25.49,0,0,1,252.92,368 s -.44-4.85,2.92-12.72 A 42.12,42.12,0,0,1,262.65,345 l -3.06.59 a 39.19,39.19,0,0,0-4.12,6.55,41.22,41.22,0,0,0-4.07,13,27.47,27.47,0,0,0,47.5,24.11 c 2.59-.47,7.87-1.79,11.69-5.06,0,0-6.36,3.26-12.66,3.26Z"/>
    <path d="M 283.28,232.52 l .41.1 a 45.44,45.44,0,0,0,15.17.32 A 54.17,54.17,0,0,1,282,230.36Z"/>
    <path d="M 260.13,252.46 a 14,14,0,0,0,2,.54,58.18,58.18,0,0,0,.41,9.71 l 2.06-.84 c -.33-3.86-.41-7.09-.43-8.65 a 17,17,0,0,0-.1-2,12,12,0,1,1,.54-24,7.81,7.81,0,0,1,2,.18,12,12,0,0,1,1.62.38,68.26,68.26,0,0,1,7.12,2.48 c .9.31,1.81.6,2.72.88 L 278,229 a 21.35,21.35,0,0,0,11.69-8.45,27.22,27.22,0,0,0,4.47-12.86 c -.71,0-1.42-.1-2.12-.17 a 23.65,23.65,0,0,1-5.85,14.28,19.43,19.43,0,0,1-11.63,5.88 A 47.82,47.82,0,0,0,269.4,226 a 14,14,0,0,0-9.27,26.42Z"/>
    <path d="M 321.56,249.51 c .26-.22.53-.48.8-.76 a 34,34,0,0,0-6.27-5 A 44.87,44.87,0,0,1,321.56,249.51Z"/>
    <path d="M 329.68,342.41 l 0-.05-1.11.8 c 3.28,4.91,6.57,10.32,8.07,13.92 C 336.6,357.08,335.85,351.58,329.68,342.41Z"/>
    <path d="M 318.71,226.56 a 13.57,13.57,0,0,1-8.33-7.28,32.56,32.56,0,0,1-2.86-11.7 c -.75.08-1.51.13-2.26.18.29,3.66,1.23,10.58,4.2,14.44 s 5.88,5.22,7.1,5.58 c -.27.19-.54.39-.8.6 a 45.8,45.8,0,0,1-4.92,2.38 l 3.08-.58 a 33.59,33.59,0,0,0,4.13-1 c 2.86-1.07,5.16-3.73,11-2.15 C 327,225.66,323.8,224.33,318.71,226.56Z"/>
  </g>
<script type="text/ecmascript" xlink:href="param.min.js"/> 
</svg>
