<?xml version="1.0"?>
<svg xmlns="http://www.w3.org/2000/svg" xmlns:xlink="http://www.w3.org/1999/xlink" viewBox="0 0 600 600">
  <title>nurse-slender</title>
  <g id="main-colour">
    <path d="M 346.61,415.29 c -1.42-15.33-.25-25.92-4.75-40.25 a 135.81,135.81,0,0,0-13.48-29.67 c -4-7.92-5.28-12.7-5.44-21.12 s 2.27-20.51,4.36-27.76 c 1-3.44,2.15-7.92,3.5-12.83 a 16.73,16.73,0,0,0,6.69-3.36 c 5.13-4.31,6.56-11.06,6.31-16.81 s -5.62-11.5-8.25-14.19 c -1.77-1.82-3.49-3.77-4.41-4.85 a 11.17,11.17,0,0,0-12.49-16.8 c -2.37-3.62-7.41-7-9.32-7.53-2.12-.62-2.29-.21-2.37.29 a 32.2,32.2,0,0,1,5.54,7.06 l -.14-.07 a 16.56,16.56,0,0,1,1,2.16 c 1.69,4.5,1.69,7.81,1.75,11.81 s .13,10.88.13,10.88-5.31-5.09-9.56-7.5 c -4.62-2.62-9.13-4.5-14.44-11.06 a 13.48,13.48,0,0,1-2.91-7.12,3.73,3.73,0,0,0,.41-1 s 2.08-2.79,3.21-4.62 c -4.93.06-6.58,4.15-7.12,6.42-.82.24-1.74.44-2.78.68-9.81-4.19-19.7-.27-20.12,8.81 s 6,12.33,9.33,13.42 c -1.25,5.92,1.33,21,3.17,27.5 s 6.92,19.67,9.08,28.08 S 281,325.63,273.85,338 s -9.08,17.17-11.58,27.25 a 68.72,68.72,0,0,0-3.07,16.33,132.76,132.76,0,0,0,1.42,29.92 c 1.58,9.25.75,15.92-4.08,25.67,9,5,23,7.58,38.92,8.58 s 28.67.67,40.33-3.92 a 72.14,72.14,0,0,0,15.58-8.42 S 348,430.63,346.61,415.29Z" fill="param(main_colour)"/>
  </g>
  <g id="fixed-colours">
    <path d="M 332.8,259.13 l .67,2.13,3.08-.71,1.13,5.25 a 4,4,0,0,0-1,3.35,2.93,2.93,0,0,0,3.76,2,3.07,3.07,0,0,0,2.42-3.87 c -.37-1.24-2.34-2-2.75-2.17-.36-1.84-1.33-5.67-1.33-5.67 l 1.17-1.46-1-2Z" fill="#d6d6d6"/>
    <path d="M 329.6,259.55 a 11.63,11.63,0,0,0,3.2-.43 c .32,1,.67,2,.67,2 l 3.08-.54.25,1.25 s -1.25.79-6.5,1 C 330,261.3,329.6,259.55,329.6,259.55Z" fill="#fff"/>
    <polygon points="338.75 259.42 339.92 257.96 339 256.21 339.88 255.04 341.84 258.67 339.3 260.96 338.75 259.42" fill="#fff"/>
    <path d="M 290,263 s 10.35,1.4,20-1.37 a 29.43,29.43,0,0,1,.26,3.81 s -10.6,3-19.64,1.18 A 23.69,23.69,0,0,1,290,263Z" fill="#fff"/>
    <polygon points="295.96 273.27 299.2 272.9 299.05 270.28 301.82 270.03 302.36 272.46 305.13 272.21 305.27 274.68 302.35 275.1 302.44 277.89 299.51 278.23 299.43 275.52 296.34 275.79 295.96 273.27" fill="#f0356a"/>
    <path d="M 284.94,227.67 s .63,4.71,2.67,7.75 a 25.37,25.37,0,0,0,10.88,9.08 c -.12,1.33-.12,1.83-.12,1.83 s -6.33-2-10-6.5 a 14.41,14.41,0,0,1-3.62-9.37Z" fill="#fff"/>
    <path d="M 298.69,247.25 s 10.44,2,15.23,4.08 a 12.2,12.2,0,0,1,1.42,2.17 l -16.69-4.17Z" fill="#fff"/>
    <path d="M 319.32,241.38 a 26.6,26.6,0,0,0-3.85,11.08,14.4,14.4,0,0,0,1.08,1.71 s 1.83-8.5,4.31-11.33 A 8.89,8.89,0,0,1,319.32,241.38Z" fill="#fff"/>
    <path d="M 318.27,227 c 1.5,2.71,2.63,6.13-.58,12.42 l -1.37-1.58 s 3.38-5.37,2-10.83" fill="#fff"/>
  </g>
  <g id="outline">
    <path d="M 311.75,283.46 a 26.11,26.11,0,0,1-19.62,1.92 C 300.6,289.71,308.92,287,311.75,283.46Z"/>
    <path d="M 347.17,406.38 c 0-7.83-1-22.25-5.17-34.83 s -13.08-26.83-15.33-32.42-2.58-11.17-2.33-17.42 a 116.42,116.42,0,0,1,3.5-21.25 c 1.46-5.84,3.68-14.59,4.2-16.67 a 17,17,0,0,0,6.59-3.41 c 3.75-3.21,6-6.92,6.58-13.25 S 342.46,256,340.92,254 s -4.87-4.92-7.25-7.33-5.78-6.46-5.78-6.46 c 1.66,3.9,9,11.51,10.84,13.84-3.54,4.82-10.31,4.67-10.31,4.67 a 50.3,50.3,0,0,1,1.38,14.36 c 1.71.88,6.47,3.44,8.6,4.59 a 22.56,22.56,0,0,1-2.77,3,16.39,16.39,0,0,1-9.62,3.58,13.44,13.44,0,0,0,3.5,0 c -.35,1.51-2.06,8.83-3.92,16.11-2.08,8.17-3.83,17.83-3.42,26.17 s 1.5,13.08,7.42,22.75 a 106.68,106.68,0,0,1,12.33,30.17 A 97.16,97.16,0,0,1,345,404.21 c -.08,5.92.92,23.33,5.33,29.25-6.28,4.89-19.89,10.81-32.42,11.76-.33-1.5-1-5.93-1.16-16.85-.17-14.33-1.5-36-3.33-51.83 s -2.67-30.83-.33-46.5,5-25.79,7.21-38.79,2.25-25.75-1.75-34.12 a 30,30,0,0,0-1.55-2.85 c .56-1.9,2.74-9.14,4.36-11.9-1-.9-2.12-2-3.15-3.15,1.28-1.79,3.6-6.91.9-11.68 a 10.92,10.92,0,0,1,6.4.33,9.05,9.05,0,0,0-7.6-2 l -.24-.28 c -5.69-6.19-10.31-6.25-10.31-6.25 a 1.23,1.23,0,0,0-.94,1.5 c 3.56,2.38,7.69,9.75,8,15.75.26,5,.3,12.35.31,14.61-3.43-4-7.46-6.1-11.56-8.42-5.75-3.25-14.42-9.71-14-16.87 a 35,35,0,0,0,3.33-5.25,6.69,6.69,0,0,0-1.75-.08,8.19,8.19,0,0,0-6.25,5.67 c -.07.22-.14.46-.2.7 a 6.11,6.11,0,0,1-4.46-.37,13.21,13.21,0,0,0-11.42-.08 A 12.8,12.8,0,0,0,261,240.21 c 1,6.25,4.67,9.17,9,10.83-.83,7.83,1.08,24.17,3.75,30.33.69,1.6,1.52,3.4,2.42,5.28,1.09,3.11,2.37,6.77,3.16,9.05,1.58,4.58,4.75,15.25,2.83,21.58 s -3.67,11.17-10.08,21.58-14.17,26.5-14.5,50.5,7.92,31-2.67,48.25 c 12.5,8.83,50.67,10.42,62.5,9.33 s 26.17-5.75,35.08-13 C 347.92,424.21,347.17,414.21,347.17,406.38Z m -8.65-146.56 a 37.14,37.14,0,0,1,1.18,4.76,4,4,0,0,0-1,.14,4.51,4.51,0,0,0-1,.39 c -.19-1.07-.63-3.55-.91-4.47 A 8.63,8.63,0,0,0,338.52,259.81Z m .52,6 c 1.84-.42,3,.34,3.39,1.83-.06.59-.14,1.17-.25,1.72 a 3.41,3.41,0,0,1-2,1.49,2.66,2.66,0,0,1-3.34-1.84 A 2.76,2.76,0,0,1,339,265.81Z m 3.52-.08 a 3.93,3.93,0,0,0-2.28-1.11 c -.13-.58-.45-2-.73-3.35 a 7,7,0,0,0,2.22-1.87 A 18.4,18.4,0,0,1,342.56,265.73Z m -1.14-7.24 a 9.41,9.41,0,0,1-2.08,1.85 c -.08-.37-.15-.71-.2-1 A 5,5,0,0,0,340.3,258 c -.42-.82-.84-1.56-1-1.91.2-.22.37-.42.5-.6 A 14.83,14.83,0,0,1,341.42,258.48Z m -2.58-2,.79,1.33 s -.78,2.28-6,3 c -.21-.48-.4-1-.5-1.37 A 12.24,12.24,0,0,0,338.84,256.51Z m -6.35,3.07.66,1.87 a 13.68,13.68,0,0,0,3.14-.6 l .18.8 a 18.17,18.17,0,0,1-5.72.67 c -.14-.81-.32-1.62-.54-2.44 A 19.12,19.12,0,0,0,332.49,259.57Z m -1.28,12.72 a 40.82,40.82,0,0,0-.32-9.15,24.94,24.94,0,0,0,5.74-.77 c .2.94.44,2.12.59,3.09 a 3.61,3.61,0,0,0,2.9,6.49,4.75,4.75,0,0,0,1.57-.64,19.43,19.43,0,0,1-2.59,5.43 A 59.47,59.47,0,0,1,331.21,272.29Z m -11.29-29.42 a 56.73,56.73,0,0,0-3.51,10.52q-.29-.43-.58-.83 a 26,26,0,0,1,3.5-10.4Z M 285.14,229.8 a 15.1,15.1,0,0,0,3.21,7.27,27.2,27.2,0,0,0,9.59,7.78 c 0,.32,0,.64-.07,1-1.93-.77-7.93-3.5-10.9-8.81 A 14,14,0,0,1,285.14,229.8Z m 28.31,21.77 c .41.47.81.94,1.18,1.42-2.07-.68-8-2.56-15.28-4.11,0-.46,0-.9-.05-1.33 C 301.3,248,309.51,250,313.46,251.57Z m 5.4-10 a 19.44,19.44,0,0,0-3.23,7.94 c 0-3,0-7.55-.25-12.16Z m -1.22-3-.8-.9 c .69-1.33,2.69-5.6,1.91-8.9 a 6.8,6.8,0,0,1,.55,1.63 A 12.44,12.44,0,0,1,317.64,238.6Z m -9.78-18.1 c 2.81.53,7.59,3.39,10,6.83.43,1.52.87,4.93-1.55,9.79 l -1-1.22 C 314.69,228.76,311.79,224.43,307.86,220.5Z m 4.77,30.17 A 87.71,87.71,0,0,0,299.29,247 a 44.74,44.74,0,0,1,.18-5.06 C 304.2,244.87,308.16,246.1,312.63,250.67Z M 290,222 a 20,20,0,0,1-2,2.75 s -1.83,5.92,5.75,12.83 a 39.6,39.6,0,0,0,4.54,3.58 c -.07.62-.17,1.66-.27,2.84 a 25.61,25.61,0,0,1-9.91-8.46,15.53,15.53,0,0,1-2.57-8.31 A 7.47,7.47,0,0,1,290,222Z M 257.5,437 c 5.83-11,4.83-18.25,3.75-26 s -2.67-21.25-.42-36.58,8.92-27.33,14.92-37.67,9.83-19.5,8.75-26.92 a 87.44,87.44,0,0,0-3.19-12.81 c .91,1.82,1.75,3.49,2.44,4.89,2.58,5.25,6.25,11.67,6.5,16.42-.17-7.33-5-16.25-7.92-21.58 s -8.33-21.08-9.75-31.33-.14-15.95-.14-15.95 a 11.32,11.32,0,0,1-9.19-7.8 c -2.67-7.33,3.83-13.17,7.83-14.08,3.67-.84,10.14,1.82,12.92,1-.55,5.27,1.78,13.8,13.83,18 a 29.54,29.54,0,0,0,0,3.2 c 5.36,1.38,14.47,3,17.58,4.21,3.94,5.77,5.07,12.89,5.21,22.69.17,11.75-8.17,45.33-10,61.83 s 3,48.33,4.17,69.83 c 1.11,20.41.42,32.25,1.48,37 C 303,446,272,444.71,257.5,437Z"/>
    <path d="M 311.3,276.56 c -.11-7.46-.52-15.92-.52-15.92 s -11.46,3.21-21.7,1.57 c 0,0,.75,10.85,2,16.15 a 38.82,38.82,0,0,0,10.34,5.47 S 309.45,278.6,311.3,276.56Z m -1.74-14.12 c 0,.76,0,1.6,0,2.48-7.59,2.5-16.13,1.76-18.67,1.45-.1-1-.17-1.84-.19-2.4 C 290.75,264,303.18,264.91,309.56,262.44Z m -17.34,14.87 s -.75-5.79-1.19-10 c 7.66,1.2,16.39-.59,18.6-1.1.11,4.58.3,9.54.3,9.54 s -6.45,5.08-8.49,6.33 A 57.23,57.23,0,0,1,292.23,277.31Z"/>
    <path d="M 305.8,275.35 l -.31-3.7-2.92.31-.29-2.55-4,.27.27,2.66-3.14.3.4,3.53,3.14-.3.24,2.71,3.66-.31-.09-2.65Z M 300,277.6 l -.23-2.63-3.08.19-.19-1.57,3.08-.33-.27-2.55,2.16-.2.37,2.58,2.75-.21.17,1.42-2.8.37.13,2.8Z"/>
  </g>
<script type="text/ecmascript" xlink:href="param.min.js"/> 
</svg>
