<?xml version="1.0"?>
<svg xmlns="http://www.w3.org/2000/svg" xmlns:xlink="http://www.w3.org/1999/xlink" viewBox="0 0 600 600">
  <title>basic-bikini-top-voluptuous</title>
  <g id="main-colour">
    <path d="M 246.12,276 a 118.41,118.41,0,0,0,24.38,5.25 c 3.88-15,10.38-26.37,14.63-31.12-3.5-13.62-7.87-20.87-9.25-22.62 a 30.32,30.32,0,0,1,2.25-4.62 s 9.63,17.63,11.75,27 c 7.63,4.75,19.63,16,18.63,29.88 a 18.29,18.29,0,0,1,7.25-.87 s 9.38-19.5,15.88-27.62 c -5.87-8.12-10.12-17-9.62-29.37 a 31.23,31.23,0,0,0,2.25,4 s 1.63,14.25,10.88,25.5 c 8.75,3.58,12.33,9.83,13.63,16.63-1,7.88-2.75,11.13-8.37,16.13 s -10.87,3-13.87,2.38-10.12-3.25-13.12-3.12-5.37,1-9.12,2.25-10.62,4.13-25.12,2.38-31.62-6.75-31.62-6.75 A 27.12,27.12,0,0,1,246.12,276Z" fill="param(main_colour)"/>
  </g>
  <g id="outline">
    <path d="M 335.45,250.29 C 331.12,246.63,324.7,231,324.7,226 a 40.13,40.13,0,0,1-2.92-6.25 s -2.75,14.92,8.92,31.58 a 160.74,160.74,0,0,0-15.33,27,14.84,14.84,0,0,0-6.19.5 c .69-13.31-11.5-24.87-18.48-29.5 C 286.7,236,278,221.63,278,221.63 l -2.87,5.75 s 7.38,10.94,9.25,22.67 C 275.7,260,270,280.71,270,280.71 S 251.37,278,245.37,275 a 21.09,21.09,0,0,0,1.92,6.67 s 33.34,9.85,47.42,7.08 c 14.42-2.83,15.75-6.46,24-3.77 s 15,4.52,20,1.19,10.33-9.08,10.67-18.5 C 348.12,259.13,342.54,254.13,335.45,250.29Z m -.27,36.15 c -3.87.94-10.15-.56-14.65-2.15 s -8.67-1.83-12-.67-15.33,5.58-26.67,4.08-33.67-6.83-33.67-6.83 a 12.12,12.12,0,0,1-.92-3.75 C 253,279,268.12,282,271.37,282 c 2.25-8.33,7.08-22.42,14.5-31.75 a 65.15,65.15,0,0,0-9.12-22.67 s .94-1.81,1.5-3.25 c 2.75,4.63,9.94,20,11.13,25.69,5.44,3.94,19.69,15.13,18.38,30.75 a 17.24,17.24,0,0,1,8.71-1.27 s 7.33-16.67,15.92-28.08 c -3.75-5.58-9.37-12.77-10.08-28.12 a 19.3,19.3,0,0,0,1.5,2.79 s .92,12.5,10.67,25 c 7,3.25,13.33,10.33,13.67,17 a 22.51,22.51,0,0,1-4.23,11.63,18,18,0,0,1-5.65,3.34,12,12,0,0,0,.4-5,18.13,18.13,0,0,1-1.53,5.33 c -5.69,1.39-16.86-2.29-16.86-2.29,2.19,1.44,9.19,3.63,14.56,3.56 a 12.73,12.73,0,0,0,6.74-2.3 A 16.71,16.71,0,0,1,335.18,286.44Z"/>
    <path d="M 291.31,278.07 a 21.75,21.75,0,0,1-.86,6.4,71.77,71.77,0,0,1-16.32-1.08 s 15.5,5.38,31.25-1.37 a 66.78,66.78,0,0,1-13.85,2.4 A 16.41,16.41,0,0,0,291.31,278.07Z"/>
  </g>
<script type="text/ecmascript" xlink:href="param.min.js"/> 
</svg>
