<?xml version="1.0"?>
<svg xmlns="http://www.w3.org/2000/svg" xmlns:xlink="http://www.w3.org/1999/xlink" viewBox="0 0 600 600">
  <title>midi-crew-neck-t-shirt-slender</title>
  <g id="main-colour">
    <path d="M 338.07,250.13 c -2.61-2.27-5.1-4.56-6.7-6.05 a 11.19,11.19,0,0,0-15.08-15.45,3.12,3.12,0,0,0-1.56-.2 l -.14-.05 c 1,2.93,3.76,6,2.93,10.07-1,5-10,10-22.67,3.19 a 22.88,22.88,0,0,1-10.78-13.38,14.27,14.27,0,0,1-2.16.69 c -7.45-6.36-19.55-1.14-20,7.95 s 6,12.33,9.33,13.42 c -1.25,5.92,1.32,21.18,2.47,27.83,1.63,9.38,4.66,20.41,6.5,28.91,3.38,15.59.78,18.59-6.39,31-7,12.12-9,16.95-11.41,26.55,2.8-1.57,8.23-3.48,16.79-2,13.38,2.38,24.5,7.25,36.5,5.25,8.9-1.48,13.33-5,16.25-9.47-.15-.46-.29-.92-.47-1.37,0,0,.6.35.6.34.08-1.37-.43-4.08-4.43-12 s -4.57-12.7-4.73-21.12,1.82-20.63,3.91-27.88 c .72-2.5,1.72-5.49,2.76-8.8 a 22.85,22.85,0,0,0,4.54-.62 c 7.92-2,14.75-8.42,15.25-18.5 S 342.48,254,338.07,250.13Z" fill="param(main_colour)"/>
  </g>
  <g id="outline">
    <path d="M 324.47,318.79 c .86-9.82,4-20.85,6.64-31.3-.92.14-1.89.26-2.63.35-5.21,18.4-8.66,32-6,45.87,2.14,9.8,7.62,16.16,9.82,25.42 h 0 s .43-.62.91-1.35 A 47,47,0,0,0,329,345.63 C 326,339.5,323.16,333.7,324.47,318.79Z"/>
    <path d="M 284.41,226.93 a 11.64,11.64,0,0,1-2.89.89 c -.18,1.23,1.49,1.9,1.49,1.9 a 9.26,9.26,0,0,0,2.17-.83 S 284.8,228,284.41,226.93Z"/>
    <path d="M 316.63,226.24 a 18.37,18.37,0,0,0-3.58,2,16.1,16.1,0,0,0,1,1.45,16.61,16.61,0,0,0,2.57-1.25 l .54-.24 a 11.26,11.26,0,0,1,8.35-.33 C 322.94,225.38,318.51,225.38,316.63,226.24Z"/>
    <path d="M 306.71,245.89 c -17.75,0-23.73-17.12-23.8-17.31 l 1.89-.65 a 31.14,31.14,0,0,0,5.49,9.15 c 5,5.7,12.79,7.7,19.93,6.52,3.16-.52,5.27-1.82,6.26-3.84,2.19-4.49-3.09-11-3.12-11 l 1.76-1 c .17.31,5.8,7.45,3.17,12.85-1.29,2.64-3.89,4.31-7.73,4.94 A 23.47,23.47,0,0,1,306.71,245.89Z"/>
    <path d="M 310.44,369.13 c -8,0-16.45-2.14-24.39-4.29-16.77-4.54-23.29.74-23.35.79 l -.61-2.48 c .28-.22,8-5.27,25.43.06,18.77,5.74,37.78,6.29,44.72-7 l 1,1.52 C 328.29,366.13,319.14,369.13,310.44,369.13Z"/>
    <path d="M 274,227.22 a 11.14,11.14,0,0,1,6.16,1.85 h 0 l 1.56.85 c .76-.15,1.54-.21,2.07-.37 a 13.53,13.53,0,0,0-9.78-4.33,13.2,13.2,0,0,0-1.54,26.31 c 0-.54,0-2,0-2 h 0 A 11.2,11.2,0,0,1,274,227.22Z"/>
    <path d="M 271.23,268.19 c 2.5,9.5,6.15,21.81,8.36,31.38,1.85,8,3.7,15.63,3,23.92-.69,7.75-2.53,16.72-6.19,22.39,4.07-9.88,5.5-23.87,2.82-37.26 C 276.65,296.07,271.29,273.38,271.23,268.19Z"/>
    <path d="M 276.68,288.08 a 154.43,154.43,0,0,1-3.2-19,89.38,89.38,0,0,1-1-18.68 h -2.55 a 112.56,112.56,0,0,0,1.33,18.33 A 116,116,0,0,0,276.68,288.08Z"/>
    <path d="M 282.53,315.53 h 0 c -2,11.61-12,24.94-16.6,34.86 A 60.3,60.3,0,0,0,261,366.77 a 23.67,23.67,0,0,1,2.29-1.56 h 0 a 70.79,70.79,0,0,1,5.76-15.95 c 2.54-5,9.81-16.3,13.37-25.29 A 71.2,71.2,0,0,0,282.53,315.53Z"/>
    <path d="M 317.86,334.38 a 52,52,0,0,0-3.69,23.81 C 314.3,348.27,317.86,334.38,317.86,334.38Z"/>
    <path d="M 267.11,359.63 s 6.25-3,19,1.13,23.13,5.13,27.5,4.38 a 89.8,89.8,0,0,1-17.5-2.18 C 289.61,361.45,273.86,354.75,267.11,359.63Z"/>
    <path d="M 342,252.15 c -6.17-3.83-14.1-11.9-14.1-11.9,1.72,3.27,9,10,13.94,14.31,7.92,6.83,7.4,18.48,3.17,23.83 a 24.19,24.19,0,0,1-16.27,8.68 l -.37,1.19 c 9.28.54,18-4.53,21.14-12.81 C 352.48,267.56,350.6,257.49,342,252.15Z"/>
    <path d="M 289.35,285.05 A 29.19,29.19,0,0,0,311,289.76 C 304.17,293.63,294,291.6,289.35,285.05Z"/>
  </g>
<script type="text/ecmascript" xlink:href="param.min.js"/> 
</svg>
