<?xml version="1.0"?>
<svg xmlns="http://www.w3.org/2000/svg" xmlns:xlink="http://www.w3.org/1999/xlink" viewBox="0 0 600 600">
  <title>curvy-top-template</title>
  <g id="main-colour">
    <path d="M 254.84,270.38 s 5.5-3.17,8.67-3.33 c 5.89-10.17,17.73-16,26.22-17.58,12.74-2.33,30.95,4.67,36.62,9.17,4.5-8.75,10.78-14.42,22.63-9.12,9.67,8.17,8.87,20.71,6.25,28.13-1.91,5.43-8.62,12.75-17.62,14-3.92,8.67-5.92,20.92-2.92,29.92 s 6,11.17,11.67,17.17,13.67,22.83,16.83,34.5,5.67,24,15.83,24.67 c -2.33,6.67-6.83,15-15.33,20.33 a 14.78,14.78,0,0,0,3.17,1.83 s -7,10.17-26.17,19 a 8.14,8.14,0,0,1,1.67,2 S 322.67,452.88,292,451.38 s -48.67-15.5-48.67-15.5 l 3-3.67 s -27-11-33.33-32.5 c 7.83-.33,14.83-8.17,17-14.83 s 7-25.5,13.83-36.33,17.67-22.83,20.67-28.5 a 24.25,24.25,0,0,0,.33-22.83 C 260.34,288.38,256.51,282.55,254.84,270.38Z" fill="param(main_colour)"/>
  </g>
  <g id="outline">
    <path d="M 380.52,396.63 c -12,.25-11.75-11-19.25-32.5 s -16.75-27.87-21.12-33.75-6-13.5-5.62-21.87 a 51.42,51.42,0,0,1,3.32-15.5 s 12.13-2.37,18-13.75 c 4.46-8.64,4.05-22-5.45-29.62 s -21.68-.5-24.43,7.88 c -26.12-17.25-53-8.25-62.7,8.13 a 39.06,39.06,0,0,0-9.37,3.75 c 1,10.25,5.63,20.5,8.75,25.75 s 5.25,12.63,3,20.25-11.5,15-21.37,30.5-12.37,30.63-15.5,38.75-9.37,13.5-17.12,14.38 c 3.46,18.11,27.7,31.21,32.8,33.78q-1.39,1.68-2.92,3.35 c 23.13,18.88,71,23.25,103,4.88-.59-.5-1.15-1-1.7-1.54,4.2-2.2,20-10.86,25.7-19.71q-1.17-.56-2.28-1.2 C 371.7,414.16,379.09,404.89,380.52,396.63Z M 364,417.14 c -9.73-6.63-15-17-15-17,2.13,7.25,10,17.13,16.25,20.38-8.6,9-20.71,15.52-24.17,17.27-9-9.3-13.52-20.88-15.08-32.27-1.12,12.25,6.63,26.88,14.63,35-7.87,6.38-60,20.13-96-4.75,5.5-5.25,14.88-24,16.25-34.25 a 84.48,84.48,0,0,1-15,29.45 c -8.68-2.93-27.79-18.18-31.64-30.2,16.5-3.87,18.63-21,22.38-33.25 s 9.25-20.37,15.75-29.37,11.38-13.25,14.88-21.87-.87-19.12-3.37-23.12-7.75-16.12-7.75-22 c 2.88-2.25,8-3,8-3 a 40.22,40.22,0,0,1,19.07-15.37 c 13.25-5.25,33.38-.12,43.25,7.13,7.38-14.62,18.63-11.5,22-9.37,5.5,5.38,9.66,12.63,6.63,24.13-3.62,13.75-17.87,16.25-17.87,16.25 a 45.82,45.82,0,0,0-3.95,13.25 c -1.42,9.48-.62,18.88,3.5,25.13 s 10.38,10.38,16.75,22.38,9.63,25.88,11.88,33.63,7.63,14,12.13,13.5 C 374.11,408.78,366.52,415.21,364,417.14Z"/>
    <path d="M 271.68,279.38 s 5,15.67,18.67,17.33 C 283.85,293.71,274.51,286.88,271.68,279.38Z"/>
  </g>
<script type="text/ecmascript" xlink:href="param.min.js"/> 
</svg>
