<?xml version="1.0"?>
<svg xmlns="http://www.w3.org/2000/svg" xmlns:xlink="http://www.w3.org/1999/xlink" viewBox="0 0 215 215">
  <title>police-shirt-slender</title>
  <g id="skin-tone">
    <path d="M 107.13,163.09 a 11.26,11.26,0,0,0-3.55.85,67.39,67.39,0,0,0,1.32,8.41 H 105 a 3.32,3.32,0,0,0,6.56-.46 h 0 a 54.79,54.79,0,0,0-.25-8.23 l 0-.18 A 9.61,9.61,0,0,0,107.13,163.09Z" fill="param(skin_tone)"/>
  </g>
  <g id="main-colour">
    <path d="M 113.45,155.38 a 25,25,0,0,0-2.64-.76,48.63,48.63,0,0,1,.89-9.21 c 1.39-6.5,2.69-21.16,2.23-28.17 a 30.49,30.49,0,0,0-2.45-11.07,4.18,4.18,0,0,0-.57-1.12 l 0,0 h 0 a 4.16,4.16,0,0,0-6-.82 h 0 s -1.55.67-3,4.92-2.16,13.75-2,18.5.46,15.79,2,24.38q.23,1.29.43,2.58 a 9.46,9.46,0,0,0-3,1.32 c 1,2.38,1.56,5.94,1.31,10.81 a 28.38,28.38,0,0,0,2.88.25,13.92,13.92,0,0,0-.06-2.81 c 3.44-1.75,8.06-.37,8.06-.37 l .38,2.44 a 7.29,7.29,0,0,0,2.75-.69 C 113.57,163.13,113.26,159.63,113.45,155.38Z" fill="param(main_colour)"/>
  </g>
  <g id="fixed-colours">
    <circle cx="103.3" cy="158.17" r="1.33" fill="#ffcc50"/>
  </g>
  <g id="outline">
    <path d="M 112.6,166.67 a 28.08,28.08,0,0,0,2.7-.83 s -1.67-3.5-1-10.92 a 22.33,22.33,0,0,0-2.36-.79,125.77,125.77,0,0,1,1.55-13.18 c 1.39-8.86,3.9-27.12-2.54-35.9.2.32,2.19,3.86,2.26,16.28.08,13.08-2.34,21.42-3.18,30.83,0,.51-.07,1-.1,1.53 a 18.77,18.77,0,0,0-6.89,0 c -.17-1.21-.35-2.43-.54-3.7-1.37-8.82-2.21-26.79-.87-36 s 3.31-9.88,3.31-9.88 c -5.44,1.78-6.06,16-6,27.55 A 161,161,0,0,0,101,154.27 a 12.28,12.28,0,0,0-2.54,1.19,38.08,38.08,0,0,1,1.63,11.88,11.93,11.93,0,0,0,2.6.29 c .19,2.65.19,4.2.19,4.2 a 5.31,5.31,0,0,0,5.33,5.16 h .18 a 5.32,5.32,0,0,0,4.75-7.35 C 113,168.83,112.78,167.81,112.6,166.67Z m -11.21-.42 c -.12-3.33-.25-8.29-1.12-10,0,0,4.92-3.21,12.33-.37 a 31.59,31.59,0,0,0,1.13,9.29,7.25,7.25,0,0,1-1.29.41 c -.06-.44-.13-.89-.19-1.34 l .73.19 c -.87-2.33-9.92-2.54-11.21.92 a 4.68,4.68,0,0,1,.7-.46 c .05.52.1,1,.14,1.48 A 8.16,8.16,0,0,1,101.38,166.26Z m 6.94,8.73 h -.11 a 3.33,3.33,0,0,1-3.33-3.22 c -.05-1.42-.24-4.11-.6-7.63 a 13.65,13.65,0,0,1,6-.3,71.84,71.84,0,0,0,1.28,7.72 A 3.33,3.33,0,0,1,108.32,175Z"/>
    <path d="M 103.34,160 a 1.79,1.79,0,1,0-1.79-1.79 A 1.79,1.79,0,0,0,103.34,160Z m 0-2.69 a .9.9,0,1,1-.9.9 A .9.9,0,0,1,103.34,157.32Z"/>
  </g>
<script type="text/ecmascript" xlink:href="param.min.js"/> 
</svg>
