<?xml version="1.0"?>
<svg xmlns="http://www.w3.org/2000/svg" xmlns:xlink="http://www.w3.org/1999/xlink" viewBox="0 0 150 150">
  <title>bare-feet</title>
  <g id="skin-tone">
    <path d="M 105.3,93 a 4,4,0,0,0-3.61-.71 c -1.31.24-6.86,0-12-4.43 s -8.24-8-9.56-11 a 4,4,0,0,1-.39-2.31 h 0 a 4.74,4.74,0,0,0-9.46.43,20.12,20.12,0,0,1-1.42,5.71 c -1.19,2.7-4.59,6.12-4.59,8.81 s .4,5.39,2.79,6.34,6,.47,8.73.28 A 11.62,11.62,0,0,1,84,98.4 c 2.68,2.08,5,3.94,6.45,4.14 a 3.54,3.54,0,0,0,3.05-.8 c 1.55.67,3.45.63,4.28-1,1.9.12,2.7-.44,3.13-1.39,1.55.2,2.86-.2,3.05-2.3 C 105.86,96.41,106.49,93.95,105.3,93Z" fill="param(skin_tone)"/>
  </g>
  <g id="fixed-colours">
    <path d="M 93.18,100.57 s -1.35-.12-1.82.63 c -.24-.56,0-1.65,1.47-1.45Z" fill="#fff"/>
    <path d="M 97.76,99.59 a 3.19,3.19,0,0,0-2.32.91 c -.28-.65-.18-1.82,1.8-1.92 C 97.66,98.82,97.76,99.59,97.76,99.59Z" fill="#fff"/>
    <path d="M 100.78,98.17 s -1.59.06-2.08.75 c -.22-.54-.06-1.78,1.8-1.73 A 1.27,1.27,0,0,1,100.78,98.17Z" fill="#fff"/>
    <path d="M 103.57,96.26 s -1.31.42-1.61,1.13 c -.52-.44-.56-1.69,1-1.92Z" fill="#fff"/>
    <path d="M 104.25,92.65 a 1.49,1.49,0,0,0-.06,2.43,4.76,4.76,0,0,1,1.05-1.52 A 2.9,2.9,0,0,0,104.25,92.65Z" fill="#fff"/>
  </g>
  <g id="outline">
    <path d="M 105.39,92.25 c -2.06-1.35-3.32-.29-6.77-.49-3.08-.18-7.35-3.31-11.29-6.78-3.75-3.3-5.44-5.61-5.58-10 A 6.76,6.76,0,0,0,75,68.25 h 0 A 6.75,6.75,0,0,0,68.25,75 c 0,.11,0,.2,0,.31v.06 s 0,.06,0,.09 l 0,0 a 17.63,17.63,0,0,1-3.23,10,8.21,8.21,0,0,0-.5,8.83 c 1.95,3.29,4.31,3.38,9.19,3 a 17.36,17.36,0,0,1,9.12,1.41 c 2.14.83,5,3.64,6.47,4.31,1.21.57,3.51.68,4.51-.45,1.51.44,3.79.41,4.44-1.29 A 3.08,3.08,0,0,0,101,100.2 l .11-.17 c 1,.07,3.09-.2,3.3-2.41 C 106.52,97,107.35,93.52,105.39,92.25Z M 105,93.5 a 2.59,2.59,0,0,0-.88,1.36,1,1,0,0,1-.39-1.19,1.51,1.51,0,0,1,.46-.75 A 2.25,2.25,0,0,1,105,93.5Z m .43,1.58 a 2.38,2.38,0,0,1-1,1.32 c -.28-1.68-1.53-2.49-3.46-2.24 a 11.29,11.29,0,0,1-5.09-.94,7.37,7.37,0,0,0,5.27,1.63,1,1,0,0,0-.45.51,2.59,2.59,0,0,1,2.17-.11,2.77,2.77,0,0,0-1.31.94,1.39,1.39,0,0,0,.29,1.32 l .17.22.14-.24 a 3,3,0,0,1,1.46-1.06,3,3,0,0,1-.16,1.11 A 1.77,1.77,0,0,1,101.6,99 a 2.86,2.86,0,0,0-.3-2.26 c -.89-1.46-4.4-.95-7.11-3 a 11.26,11.26,0,0,0,4,2.37,2,2,0,0,0-.62.42 s 1.63-.63,2.41.44 h 0 a 1.81,1.81,0,0,0-1.33.7 A 1.42,1.42,0,0,0,98.52,99 l .11.27.21-.21 a 2.64,2.64,0,0,1,1.77-.66,1.83,1.83,0,0,1-.4,1.06,2.77,2.77,0,0,1-1.79.88 c .09-2.59-1.52-3.58-3.42-3.43 a 7.34,7.34,0,0,1-3.63-1.78,5.07,5.07,0,0,0,4.08,2.46,2.22,2.22,0,0,0-1.09.89 s 1.49-1.07,2.46,0 h 0 a 2.16,2.16,0,0,0-1.56.88,1.31,1.31,0,0,0,0,1.27 l .13.25.19-.22 a 3.74,3.74,0,0,1,1.91-1,1.88,1.88,0,0,1-.7,1.52,3.37,3.37,0,0,1-2.5.35,2.24,2.24,0,0,0-1.54-2.74,7.63,7.63,0,0,1-3.81-2.41,6.81,6.81,0,0,0,3.31,3.19 h -.16 a 1.19,1.19,0,0,0-.93.62,1.13,1.13,0,0,0,0,1.09 l .11.2.18-.15 a 2.51,2.51,0,0,1,1.48-.63 c .06.64-.29,1.29-1.4,1.27-1.86,0-4.4-2-7.46-4.47 s -9.64-2-11.66-1.89-5.56,1-6.72-2.93.38-5.82,2.67-9.32 A 13.2,13.2,0,0,0,70.25,75,4.75,4.75,0,0,1,75,70.25 h 0 A 4.75,4.75,0,0,1,79.75,75 a 15.3,15.3,0,0,0,.72,4.49 c 2.34,4.34,8.09,8.54,10,9.85 C 92.88,91,96.09,92.77,98.8,93 s 2.89-.33,4.43-.27 a 2.63,2.63,0,0,1,.65.11,1.87,1.87,0,0,0-.46,1,1.14,1.14,0,0,0,.42,1.13 l .41.32.08-.34 a 2,2,0,0,1,.87-1.13 A 1.7,1.7,0,0,1,105.41,95.08Z m -2.12,1.16 a 3.59,3.59,0,0,0-1.33,1,1.13,1.13,0,0,1-.19-1,1.41,1.41,0,0,1,1-.74 A 1.63,1.63,0,0,1,103.29,96.24Z M 100.59,98 a 3.86,3.86,0,0,0-1.83.66,1.37,1.37,0,0,1,.12-.77,1.77,1.77,0,0,1,1.35-.68 A 1.52,1.52,0,0,1,100.59,98Z m -3.14,1.29 a 4.18,4.18,0,0,0-1.93.91,1.14,1.14,0,0,1,0-.77,2,2,0,0,1,1.59-.8 A 1.37,1.37,0,0,1,97.45,99.31Z m -4.53,1.12 a 3.08,3.08,0,0,0-1.49.6.82.82,0,0,1,0-.68,1.14,1.14,0,0,1,.64-.52,1,1,0,0,1,.49,0 A 1.47,1.47,0,0,1,92.91,100.42Z"/>
  </g>
<script type="text/ecmascript" xlink:href="param.min.js"/> 
</svg>
