<?xml version="1.0"?>
<svg xmlns="http://www.w3.org/2000/svg" xmlns:xlink="http://www.w3.org/1999/xlink" viewBox="0 0 600 600">
  <title>curvy-bottoms-template</title>
  <g id="skin-tone">
    <path d="M 340,248.27 l -.12-1 a 12.1,12.1,0,0,0-6.08-19.09v-.44 h 0 c -4-2.33-11.4.46-11.4.46 s -.46,1.38-5.08-1.87-4-10.37-4-14.87 c 0-2.15,0-3.55-.13-4.74 a 73.83,73.83,0,0,1-27,0,5.78,5.78,0,0,0-.08.91 c 0,3.5,1.5,4.75-1.75,12 a 20.53,20.53,0,0,1-8.75,9.88,54.44,54.44,0,0,0-11-3.12,13.69,13.69,0,0,0-13.87,6.13 c -4.62,8.75-.12,15.63,3.88,18.5-2.75,22.25,4.63,35.5,7.25,40.25 s 4.63,8.5,5.5,15.13 c 1,9-3.42,15.45-8.79,22.61 a 129.8,129.8,0,0,0,25.69,7.94 c 20.67,4.33,38.33,3.83,46.17-1.67 a 57.81,57.81,0,0,0,6.93-5.7,47.78,47.78,0,0,1-2.17-5.56 c -2.5-7.75-1.58-17.67-.5-22.83,1-4.74,2.48-8.44,4.52-14.1 a 23.08,23.08,0,0,0,5-3.24,20.23,20.23,0,0,0,7.5-18.17 c -.62-6.21-4.94-11.63-10.72-16.46Z" fill="param(skin_tone)"/>
  </g>
  <g id="main-colour">
    <path d="M 348,353.49 h 0 c 0-2.48-2.06-8.6-4.73-13.52-1.91-3.52-3.95-6.24-5.87-10.34 l -.44.47 c -.3-.49-.58-1-.85-1.51-6.92,8.46-20,10.62-37,9 A 149.22,149.22,0,0,1,260.29,328 l -.92,1.28-.81-.35 c -1.74,2.33-3.58,4.72-5.36,7.3-7.25,10.5-10.25,21.38-10.25,26.63 a 38,38,0,0,0,1.14,9.38 c 0,.25,0,.49,0,.74 a 32.84,32.84,0,0,0,55.6,23.68,32.85,32.85,0,0,0,48.74-28.75 C 348.56,366,348.25,355.26,348,353.49Z" fill="param(main_colour)"/>
  </g>
  <g id="outline">
    <path d="M 311.07,327.5 c 1,.2,1.7-1.44.9-3.34 a 29,29,0,0,1,1.68-6.1 S 308.58,326.79,311.07,327.5Z"/>
    <path d="M 320.07,230.6 c 2.78-1.1,6.48-4.42,13.74-2.83,0,0-3-2.13-8.11-1.29 a 16,16,0,0,0-4.2,1.47 c -2.12-.86-4.65-3.36-6.18-6.85-1.66-3.79-1.05-11.33-1.06-14.57q-1,.21-2.08.38 c -.09,2.67-.51,7.43.47,11.73,1.32,6.69,5,9.35,6.89,10.3-3.55,1.89-7.24,4.11-10.6,4 C 314.32,233.47,317.29,231.7,320.07,230.6Z"/>
    <path d="M 335.19,302.85 c .74-4.58,2.6-9.54,4.46-14.71 a 11.65,11.65,0,0,0,2.07-1 c 5.8-3.41,11.42-10.49,11.1-19.33-.33-9.25-5.1-15-11.68-19.5 s -11.92-11.75-11.92-11.75 c 2.17,4.83,8.75,11.42,13,14.83 a 21.61,21.61,0,0,1,8.08,14.67 c .92,6.67-3,13.92-7.11,17.33 a 22.29,22.29,0,0,1-17,4.83 c 1.12.57,5.36,1.34,9.68.78,0,0,.91-.13,1.88-.35-2.3,6.6-4.62,13.19-4.94,20.28-.44,9.76.83,14.91,3,19.09-4.24,5.73-14.25,9.1-23.69,9.46-22.68,1.61-48.51-8.94-51.35-10.14 l 1.42-1.91 c 4.68-6.21,8.26-13,5.25-23.75-2.77-9.94-7.63-12.17-10.77-27.58 a 83.89,83.89,0,0,1-1.13-21.29v-.19 l 0-.24,0-.35 c 0-.28,0-.43,0-.43 h 0 l .08-.93 a 12.7,12.7,0,0,1,6.69-23.5 h 0 c .43,0,.87,0,1.32.07 a 39.48,39.48,0,0,1,6.89,1.43 l .87.26.08,0 c 1.89.6,3.77,1.27,5.55,1.89,4.76,1.67,10.65,3.5,16.65,2.33-3.35.3-9-1-16.09-3.73,2.75-1.52,10.29-7.13,9.53-22.61 l -1.9-.35 c 0,.36,0,.75,0,1.22,0,0,1.78,14.42-10.12,20.74 h 0 a 42.52,42.52,0,0,0-10.9-3.13 l -.61-.07 a 11,11,0,0,0-1.2-.06,14.7,14.7,0,0,0-8.79,26.48,93.5,93.5,0,0,0,.74,20.13 c 1.75,12.27,5.5,17.39,9.13,24.39 s 6.07,17.93-2.62,28.16 C 244,344.21,242.19,357.87,242.07,373 a 34.84,34.84,0,0,0,68.22,10 c 2.05-.54,5.94-2.68,7.29-5.48,0,0-2,2.43-6.73,3.42v0 c -.47.07-1.23.18-2.1.24 A 32.85,32.85,0,0,1,244.07,373 h 0 s 0-1.47.06-3.58 c .22-5.22,1.13-15.19,4.8-23.46,1.54-3.73,6.7-11.46,10.81-17.17 A 120.5,120.5,0,0,0,312,339.09 c 15.5-.52,22.63-7.23,24.63-9.54.67,1.14,1.4,2.25,2.17,3.39,8.5,12.55,8.42,23.31,9.64,29.79.35-5.77,2.16-16.82-8.5-32.51 C 336.33,324.05,332.94,318.6,335.19,302.85Z"/>
    <path d="M 316.72,280.68 a 25.81,25.81,0,0,1-23.58,13.64 c -11.82-.27-18.92-10.39-21.25-17.39,3.75,19.5,21.75,21.58,31.75,18.17 s 19.92-14.75,18.56-28.75-15-19.5-15-19.5 C 323.89,257.85,320.3,273.85,316.72,280.68Z"/>
  </g>
<script type="text/ecmascript" xlink:href="param.min.js"/> 
</svg>
