<?xml version="1.0"?>
<svg xmlns="http://www.w3.org/2000/svg" xmlns:xlink="http://www.w3.org/1999/xlink" viewBox="0 0 600 600">
  <title>voluptuous-top-template</title>
  <g id="main-colour">
    <path d="M 247.18,277.38 S 268,273,278.68,258.71 c 1.5-15-1.83-26-5.33-31 a 14.6,14.6,0,0,0,3.17-2.17 s 9.4,17.17,9.9,29.5 c 7.5,1.5,30.5,6.17,36.5,12.83,2.83-7.83,3.33-11.33,8.26-17.83-3.17-7.83-4.33-18.83-4.5-22.5 a 12.94,12.94,0,0,1,4.17-.83 s .65,10.75,6.24,15.42 c 9.92,5.42,18.58,12.33,19.25,18.33.61,5.48,3.75,23.25-15.08,30.25-1.25,3.83-.79,9.83,3.32,15.17 s 10.61,16.5,16.44,36,10.67,31.83,30.33,43 c -4.67,12-13.5,24.33-28.67,35.5 C 364,423.55,368,426,368,426 s -9.33.67-15.83,4.33-12.5,11.17-20.83,11.67-11.83-.67-17.67-2.5-13-2.33-23.33,1.33-17.17,5-26.5,0 S 243.18,425.21,225.18,427 c 4.39-4.17,5-5.83,5-5.83 S 205.35,409,193,381.71 c 11.33-1.5,20.83-8.17,25.33-16.5 s 10.17-27.33,18.83-40.33,15.67-20.67,14.67-31.33 S 248.18,283.38,247.18,277.38Z" fill="param(main_colour)"/>
  </g>
  <g id="fixed-colours">
    <path d="M 233.68,360.88 s 6.5-11.33,10.17-16.67,9-11.33,12-15.67,4.83-11.17,5.83-7.17 S 258,334,256,338.55 s -5.5,14-5.33,18.67 a 186.18,186.18,0,0,1,9.17-21.33 c 3.17-6.33,8-17.33,6.83-24.67 a 35.14,35.14,0,0,1-7-1.67 s 1.17,3.17-3.5,12.33-11.67,16.83-17.33,27Z" opacity="0.15"/>
    <path d="M 277.68,384 a 55,55,0,0,0,5.17-17.5 c 1-9.5,6.5-23.67,10.5-31.5 s 6.33-4.67,7.83,4.83,1,21.5,3.33,30.33 a 57,57,0,0,0,5.5,14 s -2.67-14-3.5-25.67-.17-32.83-8.33-41.83 c -4.17,2.5-10.17,15.67-12.67,23.67 a 194,194,0,0,0-5.67,27.17 C 279.18,373.21,277.68,383.21,277.68,384Z" opacity="0.15"/>
    <path d="M 337.68,363.55 s -.33-12-.5-17.5-.33-11.17-1.33-15.83 c -.91-4.23.83-6.83,3.67,0 s 5.5,17.33,7.17,25.33 a 28,28,0,0,0,6.67,13 s -2.83-8.83-5.5-19.17-5.5-23.5-11.5-29.5-7.5-6.33-8-6.33 a 11.34,11.34,0,0,0-2,.5,29.09,29.09,0,0,1,5.33,11.33 c 1.83,7.33,4,25,4.17,28 A 92.12,92.12,0,0,0,337.68,363.55Z" opacity="0.15"/>
  </g>
  <g id="outline">
    <path d="M 327.32,228.21 C 327.15,236.38,332,250,332,250 a 65.58,65.58,0,0,0-8.52,19.43 c -8.56-7.33-26-11.6-38.23-13.51.29-11.62-8.5-29.58-8.5-29.58 a 6.61,6.61,0,0,1-2.5,1.58 c 5.17,8.83,6.5,21.33,5.5,31-5.83,9.83-25.17,19.17-31.17,19.33,1,5.17,3.17,4,4.33,16.17 s -7.83,20.17-13.67,29.33-13.17,26-16.33,35.17-16.17,24.33-27.67,24 c 13.5,26.33,36.42,37,36.42,37 s -1.25,1.92-2.08,3 c -10.17-4.83-34.67-25.33-39-42.42 C 217,376.63,220.9,356.54,224,347.71 s 15-30,20.75-36.58 S 251.82,299,250.4,292 s -3.33-8.75-4.75-15.5 A 59.13,59.13,0,0,0,277.57,259 s 1.25-3.42.67-13.17-5.67-18.5-5.67-18.5 a 9.29,9.29,0,0,0,4.21-2.79 c 2.75,4.5,9.88,20.38,10.38,30.25,4.58.46,24.6,3.36,35.47,11.73,1.37-5.77,4.11-12.48,7.61-16.86-4.67-13.17-4.08-22.33-4.08-22.33 a 7.26,7.26,0,0,1,5.13-1.27,34.8,34.8,0,0,0,5.53,16.05 l -3.58-3.26 a 39.21,39.21,0,0,1-3.16-11.44 A 6.24,6.24,0,0,0,327.32,228.21Z M 368.53,359.5 c -5-9.75-8.75-27.12-13.25-37.37 a 77.21,77.21,0,0,0-10-17.25 c -1.28-1.71-4.29-5.09-2.55-14.32 a 17.59,17.59,0,0,1-3,1.15 A 16.42,16.42,0,0,0,341.28,303 c 3.25,5.75,8.88,12.38,13,23 s 8.88,28,11.88,34.75,12.25,20,23.75,25.25 c -5.25,13.75-20.37,29-28.62,34.13 a 13.93,13.93,0,0,1,1.88,2 S 385.4,408,392.9,384.5 C 382.78,380.13,373.53,369.25,368.53,359.5Z"/>
    <path d="M 271.25,286.95 s 5.62,7.14,13.14,9.14,14.06.43,19.19-1.54 c -3.84,2.51-10.23,6.2-19.56,3.44 A 21,21,0,0,1,271.25,286.95Z"/>
    <path d="M 242.53,394.88 s -5.37,20.5-19.87,32.63 c 12.38.5,21.13,1.75,30.13,8.13 s 20.5,13.38,33.38,8.25,19.88-5,31.75-1.37,23.13-.62,28.25-6.25,20.88-10.12,25.75-9.12 c -10-6.12-22.25-22.62-26.37-36.62,2.38,13.13,14.75,30.88,20.25,34.88-9.12-.5-18.25,6-22,9.38 a 24.86,24.86,0,0,1-22.5,5.63 c -10.5-2.62-18.12-5.37-29.37-1.25 s -18,5.63-27.12.75 S 243.9,424.38,227.4,426 C 235.65,420.88,241.28,405,242.53,394.88Z"/>
    <path d="M 250.4,304.55 s 15.33,8.67,43.5,10.67,45.5-5.33,50.33-9.5 a 4.08,4.08,0,0,1,1,1.33 s -7.17,7.17-29.17,9.67-54.5-2.67-66.67-10.83 C 249.74,304.71,250.4,304.55,250.4,304.55Z"/>
    <path d="M 258.9,309.55 s .42,6.5-5.67,15.83 S 231.49,355,231.4,371.71 c 2.08-12.58,7.83-22.17,11.67-28.25 s 6.58-9.75,9.58-14.17,8.58-13.83,7.67-19.08 A 4.49,4.49,0,0,1,258.9,309.55Z"/>
    <path d="M 266.15,311.88 a 45.16,45.16,0,0,1-3.92,17.33 c -4.08,9.25-15.17,29.33-14.42,43.92,1.5-10.67,5.17-20.58,8.08-27.5 s 8.08-15.33,10-22.75,1.67-11.08,1.67-11.08Z"/>
    <path d="M 270.65,404.38 s 5.25-11.67,6.67-22.92,2.5-21.17,5.5-33.83,8.75-27.17,14.58-31.42 c 1.75-.08,2.75-.08,2.75-.08 s 5.25,10.67,6.42,27.67,2.17,28.92,3.5,36.42,4,19.42,9.25,23.42 c -4.42-3.08-7.67-8.92-10.33-22.08 s -3.33-24.75-3.92-35.75-3.58-24.42-6.67-28 c -4.83,3.92-11.08,18.83-13.33,27.5 a 232.24,232.24,0,0,0-5.83,32.25 C 277.82,390.21,273.4,401,270.65,404.38Z"/>
    <path d="M 324.9,314.55 s 4.83,3.25,7.42,15.5,2.42,38.67,10.17,43.42 c -2.75-3.17-4.33-8.67-5.25-15.25 s -2.67-22.58-3.83-29.17-3.75-13.33-6-14.75 c 3.5,1,9.5,5.92,12.5,12.42 S 346,343.63,348,352 s 6.5,26.58,16.67,35.67 a 53.19,53.19,0,0,1-9.92-17.17 c -2.67-7.17-5.67-18.92-7.42-26.75 s -6-24.67-17.25-30.5 A 17.29,17.29,0,0,0,324.9,314.55Z"/>
    <path d="M 341,243.91 c -4.25-2.31-5.31-3.13-7.12-7.25-1.19-1.44-1.56.09-.66,2.16,1.06,2.44,3.31,3.75,7.31,6.06 C 342.42,245.38,341,243.91,341,243.91Z"/>
    <path d="M 345.92,246.52 c -3.93-1.93-8.2-4.47-11.44-6.5 a 25.45,25.45,0,0,0,4.81,4.05 c 2.5,1.56,6,4,6.88,4.69 l .09.08 c 3.93,3,7.56,7.14,8.83,12,2,7.67,1.29,14.67-4.46,22.17 A 22.18,22.18,0,0,1,340,290.37 c -.1.43-.19.88-.26,1.34,0,.29-.09.56-.13.82 a 19.84,19.84,0,0,0,2.57-.76 c 4.38-1.62,14.89-7.68,16.27-20.81 S 352.78,249.88,345.92,246.52Z"/>
  </g>
<script type="text/ecmascript" xlink:href="param.min.js"/> 
</svg>
