<?xml version="1.0"?>
<svg xmlns="http://www.w3.org/2000/svg" xmlns:xlink="http://www.w3.org/1999/xlink" viewBox="0 0 600 600">
  <title>curvy-top-template</title>
  <g id="main-colour">
    <path d="M 254.65,268.88 s 14.25-1.25,19-11.75,3.25-22.5,2.5-28 a 21.28,21.28,0,0,0,4.25-3.5 s 11.7,19.25,48.82,42 c 2-15.37-3.25-32.12-5.32-40,2.75-1.5,4.63-.75,4.63-.75 S 331,237,339.22,242.5 c 16.38,11,15.25,13.13,17.63,19.63 s -1.5,26.13-18.75,29.75 c -3.87,8.13-5.2,14.38-3.82,24.13 s 6.63,16.13,12.75,25.63,16.75,30.25,18.5,52.63-1,52.63-1.75,71.75-1.5,50,14.25,62.75 c -3.37,6.75-10.12,11.88-15.25,14.38 a 19.78,19.78,0,0,1,1.25,2.5 S 343.4,567.25,298,558 c 1.5-2.62,1.38-3.62,1.38-3.62 s -13.87.75-22.87-3.5 a 7.18,7.18,0,0,1,.88-1.87 s -9.25-5.5-19.5-4.87 c 1.88-2.37,1.88-3,1.88-3 s -10.38-1-18.25-6.37 c 7.75-5.75,11.75-13.37,10.75-27.12 s -8.87-44.5-12.12-61.5-7.37-45.25-3.87-64.75,9.38-34.12,18.63-47.5,14.88-18.37,11.88-30.75 S 256.27,285.63,254.65,268.88Z" fill="param(main_colour)"/>
  </g>
  <g id="accent-colour-1">
    <path d="M 319.4,327.88 l -3.18.75 c 0-.51.17-1.9.16-2.66-.08-7.15-.28-23.91,4.41-30.47,6.41-9,8-15.89,8.19-20.13 a 20.86,20.86,0,0,0-1.26-8.12 l 2.38-1.5 c .25.46,6.53,12.76-6.86,31.5-4.12,5.76-3.93,22.42-3.85,28.69 C 319.39,326.71,319.4,327.36,319.4,327.88Z" fill="param(accent_colour_1)"/>
    <path d="M 328.06,325.4 c -2.26-9.21.71-26.26,12.59-41.93,9.65-12.73,8.11-22.86-5.31-35-6.83-6.17-10.42-20.15-10.57-20.75 l 2.91-.73 c 0,.14,3.51,13.7,9.67,19.25,10.36,9.35,19.13,21.3,5.69,39-10.79,14.22-14.24,30.59-12.07,39.4Z" fill="param(accent_colour_1)"/>
    <path d="M 297.67,328 l -2.87-.87 c 7.52-25,7.61-38.91.35-55.29-7.1-16-17.87-43.45-18-43.73 L 280,227 c .11.27,10.85,27.65,17.92,43.61 C 305.39,287.53,305.33,302.54,297.67,328Z" fill="param(accent_colour_1)"/>
    <path d="M 278.95,323.13,276.18,322 c 7.54-17.77,4.85-27.46-1.51-36.55 a 45.07,45.07,0,0,1-7.93-20.93 l 3-.2 a 42.81,42.81,0,0,0,7.4,19.41 C 283.13,292.26,287.5,303,278.95,323.13Z" fill="param(accent_colour_1)"/>
    <path d="M 254.51,540.49 l -2.57-1.55 c 7.1-11.73,12.53-38.39,4.48-74.9-5.13-23.27-7.43-51.77-5.86-72.6,1.28-17,6.67-34.06,16-50.62 a 150,150,0,0,0,8.57-17.47 l 2.8,1.08 a 150.23,150.23,0,0,1-8.76,17.86 c -9.13,16.18-14.4,32.79-15.64,49.38-1.55,20.57.73,48.73,5.8,71.73 C 264.51,486.75,266.33,521,254.51,540.49Z" fill="param(accent_colour_1)"/>
    <path d="M 285.77,553.48 l -2.75-1.2 c 6.26-14.35,11.79-45,9.71-73.63-1.17-16-4.46-35.42-7.36-52.54-2-12-4-23.38-4.8-31.59-1.74-17.14.19-32.14,6.1-47.2,4.76-12.16,7.12-18.88,7.15-18.95 l 2.83,1 c 0,.07-2.4,6.83-7.19,19.05-5.72,14.6-7.6,29.15-5.9,45.8.82,8.1,2.74,19.41,4.78,31.39,2.92,17.18,6.22,36.65,7.4,52.82 C 297.31,500.13,294.35,533.81,285.77,553.48Z" fill="param(accent_colour_1)"/>
    <path d="M 327.57,559.73 c 0-.3-3.68-30-4.51-43.76-.38-6.31-.59-21.26-.81-37.09-.26-18.7-.56-39.89-1.19-49.23-.43-6.27-1.19-14.58-2-23.38-1.36-14.91-2.91-31.8-3-41.37-.17-14.85.16-35.5.17-35.71 l 3,0 c 0,.21-.33,20.82-.17,35.63.11,9.45,1.64,26.28,3,41.13.81,8.82,1.57,17.15,2,23.45.64,9.42.92,29.74,1.2,49.39.22,15.79.43,30.71.8,37,.82,13.63,4.46,43.28,4.49,43.57Z" fill="param(accent_colour_1)"/>
    <path d="M 367.89,539.39 c -21.84-43.37-19-74.37-17.15-94.88.18-2,.36-3.94.5-5.74.22-2.9.48-5.77.73-8.63,1.46-16.53,2.84-32.15-2.34-49.5 a 204.24,204.24,0,0,0-18.09-41.86 c -2.26-4-3.93-12.43-4-12.78 l 2.94-.58 c 0,.08,1.65,8.31,3.67,11.88 a 207.2,207.2,0,0,1,18.35,42.48 c 5.34,17.9,3.94,33.79,2.45,50.62-.25,2.84-.5,5.7-.72,8.59-.14,1.81-.31,3.74-.5,5.78-1.83,20.18-4.61,50.67,16.84,93.26Z" fill="param(accent_colour_1)"/>
  </g>
  <g id="outline">
    <path d="M 293.18,297.21 c -6.5-.87-16.12-6.12-21-17.5 C 271.62,278.4,276.3,298.09,293.18,297.21Z"/>
    <path d="M 379.55,528 c -7.83-4.5-12.33-18.17-13.67-33 s -1-28.83,1-63.67-.5-55.83-12.83-79.67-18.17-24.33-19-36.83 a 50.24,50.24,0,0,1,3.54-22.08 S 355,290,358.26,272.21 c 2.12-11.57-3.42-20.42-10-24.5-9.47-5.88-17.21-12.33-18.71-21.33 a 9.57,9.57,0,0,0-7,1.17 s 6.13,13.17,6.29,38.83 c -14.17-9.83-31.33-18.83-48.29-42.33 a 23.15,23.15,0,0,1-5.5,4.5 c 1.5,8.25,5.58,37.75-21.33,39.33 A 57.14,57.14,0,0,0,260.64,291 c 3.17,5.33,8.42,15.33,4.92,24.67 s -11.42,13.67-18.83,29.67-14.67,36.33-12.83,61,7.33,52.83,11.33,69.33,13.5,47.33-5.67,59.5 c 4.37,3.83,14.79,6,18.4,6.62 a 28.64,28.64,0,0,1-1.4,2.71 s 13.38,1.21,19.29,5 c -.49,1.26-.79,2-.79,2 a 44.38,44.38,0,0,0,22.49,4,17.09,17.09,0,0,1-1.65,3.29 s 46.5,10.67,69.83-13.17 c -.37-.55-.72-1.13-1.08-1.69 C 368,542.25,376.51,537,379.55,528Z M 263.22,291.54 c -6.33-11.17-7.33-20.67-7.17-21.83,10.5,0,20-9.17,21.5-20.5 a 59.28,59.28,0,0,0-.5-19.67 s 2.5-1.17,3.17-2.33 c 11.29,16.17,32.13,31.5,49.63,42,2.67-15.33-3.17-34.5-5-40.83,1-.67,3.29-.5,3.29-.5 s 3.17,10.67,12.33,16.67 c 12.54,8.2,14.12,12.81,15.17,19.67,2.17,14.17-8.33,25.08-18.25,26.75-6.59,13.34-5.42,23.9-3.55,30.33-27.7,14.59-62-1.13-67.28-3.72 C 270.26,308.41,268.86,301.49,263.22,291.54Z m 100,250.14 c -9.48-15.8-17-37.52-18.81-59-2-23.33.33-43.83,1.67-56.83 s 2.33-31.17-2.33-38 c 2.17,8.67,2.33,20.5.5,36 s -4.5,44.67-1.67,64.17,7.83,35.83,19.83,57.67 c -12,10.67-37.33,16-62.67,11.67,9.17-18.83,9.33-50,8.5-64.17 s -6.83-45.17-7.67-54.67 c 0,0,1.17,20.67,3.5,35.5 s 3.33,46.17-1,63.67 A 149.93,149.93,0,0,1,298.57,553 c -3.31.18-12.3.3-20-2.76,6-14.83,11.5-38.17,9.5-58 s -7.33-49.17-9.5-60.67-4-25.5-4.83-33 c 0,0-.33,17.83,4.67,43.67 s 8.67,49.17,7.17,68.67 c -1.1,14.29-6.22,29.47-8.89,36.56-2.73-1.3-9.65-4.26-16.28-4.39,8.17-17,14.33-47.83.17-76.67,0,0,9.5,26.33,5.5,47.83-2.35,12.64-5.22,20.9-7.19,25.56-2.55-.41-11.54-2-14.81-4.89,9-7,10.83-20.67,8.67-35.5 s -9.5-38.5-12.83-61.33-6.83-46.17,1.83-74.17 S 259.55,332,265.05,321 c .12-.23.21-.45.32-.68,39.34,19.25,64.32,6.89,69.5,3.82,3,7.62,14.13,21.14,20,34.86,6,14,12,32.83,10,66.17 s -7.83,86.67,11.17,104 C 374.07,535.17,366.3,540,363.19,541.69Z"/>
  </g>
<script type="text/ecmascript" xlink:href="param.min.js"/> 
</svg>
