<?xml version="1.0"?>
<svg xmlns="http://www.w3.org/2000/svg" xmlns:xlink="http://www.w3.org/1999/xlink" viewBox="0 0 600 600">
  <title>basic-tank-top-curvy</title>
  <g id="main-colour">
    <path d="M 345.64,253 c -1.13-1-2.48-2.07-3.74-3.06 l -.13-.06 a 47.79,47.79,0,0,1-8.5-7.75 c -3.5-3.87-6-11.75-6.87-15.12 a 13.44,13.44,0,0,0-3.92,1.29 s -.06.08-.08.08 c 5,12.75,4.74,24.23-7.37,26.25-14.25,2.38-30.37-9.12-34.5-28.12 a 3.56,3.56,0,0,0-.35-.88,21.34,21.34,0,0,1-4.15,3.13 c 2,5.25,1.88,20.75-4.75,29.38-4.88,6.35-13.15,6.87-17.16,6.71 a 59.13,59.13,0,0,0,7.72,26.39 c 2.63,4.75,4.63,8.5,5.5,15.13,1.38,11.88-6.87,19.38-14.12,29.88 a 66.44,66.44,0,0,0-5.42,9.45,34.8,34.8,0,0,1,10.45-1.47 c 9.25,0,16.42,2.08,25.25,4.67 s 26.83,6.33,38.33,4.42 c 9-1.51,18.36-5,23.65-8.64 a 50.65,50.65,0,0,0-2.22-4.68 c -2.67-4.92-5.58-8.25-8.08-16 s -1.58-17.67-.5-22.83 c 1-4.72,2.47-8.41,4.5-14 a 20.65,20.65,0,0,0,11.61-13.35 C 353.51,264.25,348.64,255.63,345.64,253Z" fill="param(main_colour)"/>
  </g>
  <g id="outline">
    <path d="M 254.11,341.54 s 8-2.08,23.5,2.58,39.75,11,58.75,1.92 c -8.25,2.5-15.33,4.7-30.83,3.5 C 288.27,348.21,263.36,336.88,254.11,341.54Z"/>
    <path d="M 294.05,295.38 a 31.9,31.9,0,0,1-11.43-4.1 c -5.28-3.41-8.24-7.65-10.74-14.34 A 20,20,0,0,0,294.05,295.38Z"/>
    <path d="M 339.9,330.23 c -3.57-6.17-7-11.63-4.71-27.38.74-4.58,2.61-9.54,4.46-14.71 a 11.65,11.65,0,0,0,2.07-1 c 5.8-3.41,11.42-10.49,11.1-19.33-.33-9.25-5.1-15-11.68-19.5 s -11.92-11.75-11.92-11.75 c 2.17,4.83,8.75,11.42,13,14.83 a 21.61,21.61,0,0,1,8.08,14.67 c .92,6.67-3,13.92-7.11,17.33 a 21.65,21.65,0,0,1-4.62,2.9 h 0 l -.17.49-.5,1.45 c -2.35,6.74-4.75,13.46-5.08,20.69-.62,13.75,2.14,18.35,5.94,24 a 50.87,50.87,0,0,1,5.7,11.07 c -23,15-49.79,7.48-67.27,2.2-14.79-4.47-24.67-2.62-27.5-1.9,2.58-5,8.69-13.84,12.46-18.83 s 6.65-10.08,6.32-17.3 c 1.58,6,2.29,11.43,3.39,19.45.18-11.14-1.37-24.22-7.64-33.77-2.53-4.85-5.46-9.24-7.59-19.72 a 66.68,66.68,0,0,1-1.19-9.33 c -.68,0-1.31,0-1.87,0,.15,2.19.39,4.55.74,7.05,1.75,12.27,5.5,17.39,9.13,24.39 s 6.07,17.93-2.62,28.16 c -7.31,8.59-11.77,16-14.5,22.92.78-.33,1.43-.6,1.87-.77,7.81-2.88,22.52-.6,31.66,2.18,9.33,2.83,20.67,6.5,37.83,6 A 51.5,51.5,0,0,0,346,345.38 h 0 a 8.46,8.46,0,0,0,.93-.83 A 53.74,53.74,0,0,0,339.9,330.23Z"/>
    <path d="M 275.08,228.47 a 38.9,38.9,0,0,1-1.66,24.22 c -5.7,13.57-19.94,11.19-19.94,11.19 l .19,2 s 15.75,1.69,21.44-12.62 a 40.43,40.43,0,0,0,1.63-25.75Z"/>
    <path d="M 279.25,225.5 s 3,8.72,4.14,11.21 c 5.42,11.67,17.75,19.92,31,18.67,14.35-1.35,13.64-14,8.55-28.17 l -1.42.75 s 5.94,12.1,1.78,20.83 c -3.42,7.17-17.33,7.08-28.17-.25 s -12.56-18.83-14.39-24.67 A 7.19,7.19,0,0,1,279.25,225.5Z"/>
    <path d="M 275.08,228.47 s 4.37-2.58,5.66-4.6 a 20.28,20.28,0,0,1,.61,2.38,30,30,0,0,1-5.87,4.06 A 9.45,9.45,0,0,0,275.08,228.47Z"/>
    <path d="M 321.52,228 a 10.33,10.33,0,0,1,5.5-1.75,1.19,1.19,0,0,0,.26,1.25 s -3.36.45-5.15,1.87 A 8.12,8.12,0,0,0,321.52,228Z"/>
    <path d="M 325.92,226.44 a 55.72,55.72,0,0,0,3.89,11.44,36.69,36.69,0,0,0,8.13,9.63 l .25-1.42 a 23.68,23.68,0,0,1-7.37-8.67 A 43.28,43.28,0,0,1,327,226.21Z"/>
  </g>
<script type="text/ecmascript" xlink:href="param.min.js"/> 
</svg>
