<?xml version="1.0"?>
<svg xmlns="http://www.w3.org/2000/svg" xmlns:xlink="http://www.w3.org/1999/xlink" viewBox="0 0 600 600">
  <title>denim-shorts-curvy</title>
  <g id="skin-tone">
    <path d="M 340.22,247.62 h 0 l -.32-.33 a 12.1,12.1,0,0,0-6.08-19.09v-.44 h 0 c -4-2.33-11.4.46-11.4.46 s -.46,1.38-5.08-1.87-4-10.37-4-14.87 c 0-2.15,0-3.55-.13-4.74 a 73.83,73.83,0,0,1-27,0,5.78,5.78,0,0,0-.08.91 c 0,3.5,1.5,4.75-1.75,12 a 20.53,20.53,0,0,1-8.75,9.88,54.44,54.44,0,0,0-11-3.12,13.69,13.69,0,0,0-13.87,6.13 c -4.62,8.75-.12,15.63,3.88,18.5-2.75,22.25,4.62,35.5,7.25,40.25 s 4.63,8.5,5.5,15.13 c 1,9-3.4,15.42-8.75,22.56,3.78,1.78,10.38,4.31,21.32,7,19.37,4.74,45.54,7.67,57.29-6.68 a 48.23,48.23,0,0,1-2-5.25 c -2.5-7.75-1.58-17.67-.5-22.83 s 2.75-9.08,5.08-15.67 a 60.47,60.47,0,0,0,3.75-23.25 C 343.15,252.89,340.22,247.62,340.22,247.62Z" fill="param(skin_tone)"/>
  </g>
  <g id="main-colour">
    <path d="M 348,353.49 h 0 c 0-2.48-2.06-8.6-4.73-13.52-1.91-3.52-3.95-6.24-5.87-10.34 l -.44.47 c -.39-.65-.77-1.3-1.12-2 a 14.27,14.27,0,0,1-2.55,2.38 c -1.56-.81-1.62,1.31-1.62,1.31 a 34,34,0,0,1-7.06,3.44 c -1-1.69-2,.56-2,.56 a 30.62,30.62,0,0,1-8.12,1.44,109.44,109.44,0,0,1-16.69-.62 c -1.06-1.87-1.81-.19-1.81-.19 s -9.75-1.44-13.81-2.56 c -.56-1.62-1.31-1.25-2-.37-2.56-.69-10.37-3-13.06-3.87-.44-1.87-1.87-.56-1.87-.56 l -4.52-1.61-1.31,1.82-.81-.35 c -1.74,2.33-3.58,4.72-5.36,7.3-7.25,10.5-10.25,21.38-10.25,26.63 a 38,38,0,0,0,1.14,9.38 c 0,.25,0,.49,0,.74 a 32.84,32.84,0,0,0,55.6,23.68,32.85,32.85,0,0,0,48.74-28.75 C 348.56,366,348.25,355.26,348,353.49Z" fill="param(main_colour)"/>
  </g>
  <g id="fixed-colours">
    <path d="M 316.83,344.27 s 3.38,15.42.88,30.75 C 320.58,368.52,320.21,353,316.83,344.27Z" opacity="0.5"/>
  </g>
  <g id="outline">
    <path d="M 313.65,318.06 s -5.07,8.72-2.58,9.44 c 1,.2,1.7-1.44.9-3.34 A 29,29,0,0,1,313.65,318.06Z"/>
    <path d="M 309.78,381.07 a 11.07,11.07,0,0,1,0,2 c 1.82-.26,6.35-2.53,7.82-5.6 C 317.58,377.45,315.25,380.25,309.78,381.07Z"/>
    <path d="M 262.37,225.22 s 4.48-.16,12.71,3.26,14.9,5.08,18.65,4.75 c -6,1.17-11.89-.67-16.65-2.33 s -10.24-3.67-14.71-3.67 C 262.37,226.31,262.37,225.22,262.37,225.22Z"/>
    <path d="M 333.81,227.77 s -3-2.13-8.11-1.29-11.37,6.63-16.75,6.5 c 5.38.5,8.35-1.28,11.13-2.37 S 326.54,226.18,333.81,227.77Z"/>
    <path d="M 285.28,206.53 c 0,.36,0,.75,0,1.22,0,0,1.86,15.06-10.9,21.14,1.4.67,2.32,1.08,2.32,1.08 s 11.44-4.18,10.52-23.09Z"/>
    <path d="M 315.32,221.1 c -1.66-3.79-1.05-11.33-1.06-14.57q-1,.21-2.08.38 c -.09,2.67-.51,7.43.47,11.73,1.79,9.08,8,10.76,8,10.76 a 12.14,12.14,0,0,0,1.75-1.18 C 320.15,227.81,317.07,225.1,315.32,221.1Z"/>
    <path d="M 253.69,250.47 a 89.39,89.39,0,0,0,.63,21.36 c 1.75,12.27,5.5,17.39,9.13,24.39 s 6.07,17.93-2.62,28.16 C 244,344.21,242.19,357.88,242.07,373 h 2 s -.37-15.26,4.87-27.05 c 1.86-4.51,9-14.87,13.22-20.44,4.68-6.21,8.26-13,5.25-23.75-2.77-9.94-7.63-12.17-10.77-27.58 a 85.09,85.09,0,0,1-1-22.49Z"/>
    <path d="M 339.9,330.23 c -3.57-6.17-7-11.63-4.71-27.38,1.29-8,6-17.12,8.13-26.56 a 21.7,21.7,0,0,1-3,4.63 c -2.77,9.31-7.06,18.2-7.51,28.05-.62,13.75,2.14,18.35,5.94,24,8.5,12.55,8.42,23.31,9.64,29.79 C 348.76,357,350.56,345.92,339.9,330.23Z"/>
    <path d="M 344.12,261.09 c -.56-6-2-11.31-3.9-13.47 a 41.54,41.54,0,0,1,2.17,10.15 A 15.77,15.77,0,0,1,344.12,261.09Z"/>
    <path d="M 255.68,250.72 a 12.7,12.7,0,0,1,6.69-23.5 h 0 c .4,0,.83,0,1.27.06 h 0 a 45.74,45.74,0,0,1,8.86,2,14.7,14.7,0,1,0-17.05,23.6 C 255.52,252.46,255.61,251.51,255.68,250.72Z"/>
    <path d="M 308.75,381.09 A 32.85,32.85,0,0,1,244.07,373 s -.09-8.64,1.25-14.67 a 34.84,34.84,0,1,0,65.54,22.55 C 310.39,380.92,309.62,381,308.75,381.09Z"/>
    <path d="M 266.89,337.32 a 11,11,0,0,1-13.17,4.5 A 8.25,8.25,0,0,0,266.89,337.32Z"/>
    <path d="M 310.84,337.08 a 35.78,35.78,0,0,1-.08,4.62 l .88.11 a 23.66,23.66,0,0,0,.08-4.74 A 1.86,1.86,0,0,1,310.84,337.08Z"/>
    <path d="M 298.1,337.64 s -.56-4-2-2.2 c -1.22,1.51-1.64,6.07-.57,6.72 s 2.06,0,2.37-2.15 c -.62,1.28-2.43,2.22-2.22-.7 S 297.1,335,298.1,337.64Z"/>
    <path d="M 297.35,337.08 a 4.93,4.93,0,0,0-.32,3.61 A 19.56,19.56,0,0,1,297.35,337.08Z"/>
    <path d="M 322.73,339.32 s 1.84,2.84,2.75,1-.26-5.73-1.44-6.13 c -1.46-.5-1.69,1.64-1.53,2.66.34-1.66,1.56-2.74,2.23.1 S 324.57,340.91,322.73,339.32Z"/>
    <path d="M 323.82,339.73 a 5.36,5.36,0,0,0-.77-3.72 A 20.58,20.58,0,0,1,323.82,339.73Z"/>
    <path d="M 333.2,334.94 s 2.7,2.13,2.81.19-2.14-5.47-3.39-5.44 c -1.61,0-1.12,2.12-.64,3-.16-1.78.65-3.12,2.19-.64 S 335.67,336.06,333.2,334.94Z"/>
    <path d="M 334.14,334.87 a 4.93,4.93,0,0,0-1.86-3.12 A 19.56,19.56,0,0,1,334.14,334.87Z"/>
    <path d="M 282.32,334.91 s 0-4-1.84-2.42 c -1.5,1.24-2.54,5.75-1.58,6.55 s 2.11.08,2.77-1.7 c -.84,1.09-2.83,1.76-2.19-1.09 S 281.51,331.91,282.32,334.91Z"/>
    <path d="M 281.51,334 a 5.9,5.9,0,0,0-.92,3.81 A 23.51,23.51,0,0,1,281.51,334Z"/>
    <path d="M 267.2,330.76 s .41-3.53-1.4-2.53-3.67,5.11-2.89,6.09 S 265,335,266,333 c -1.22,1.31-3.18,1.32-2-1.33 S 266.82,328,267.2,330.76Z"/>
    <path d="M 266.64,329.72 a 5.65,5.65,0,0,0-1.8,3.75 A 22.41,22.41,0,0,1,266.64,329.72Z"/>
    <path d="M 336.39,326.57 c -18,23.25-76.25,0-76.25,0 s -.87.5-.5,1q2.69,1,5.45,1.93 c .35-.34.95-.76,1.49-.43 a 1.4,1.4,0,0,1,.64,1.15 c 4.16,1.38,8.4,2.64,12.67,3.72.33-.35.93-.89,1.47-.72 a 1.62,1.62,0,0,1,.92,1.3 A 134.37,134.37,0,0,0,295.81,337 c .23-.37.68-.94,1.23-.88 s .85.73,1,1.15 a 93.78,93.78,0,0,0,15.62.51,44.63,44.63,0,0,0,8.9-1.36 c .1-.9.46-1.42,1.07-1.42 a 1.62,1.62,0,0,1,1.27.72,28.32,28.32,0,0,0,7-3.44,1.51,1.51,0,0,1,.63-1.75,1.07,1.07,0,0,1,1.19.35,14.18,14.18,0,0,0,2.93-3.23 S 337.39,327.57,336.39,326.57Z"/>
    <path d="M 338.39,330.32 a 33.12,33.12,0,0,1-3.09,3.37,2.91,2.91,0,0,1,.16.79 c 0,.75-.56,1.13-.94,1 a 5.72,5.72,0,0,1-1-.38,25.46,25.46,0,0,1-8.22,3.9 c -.09.45-.33,1.08-.9,1.1 a 1.77,1.77,0,0,1-1.38-.51,56.25,56.25,0,0,1-9.15,1.2,105.56,105.56,0,0,1-16.13-.39,1.51,1.51,0,0,1-1.46,1 c -.58,0-.86-.72-1-1.21 a 137.42,137.42,0,0,1-14-2.4,1.73,1.73,0,0,1-1.49.71 c -.45-.12-.72-.69-.84-1.25-5.22-1.26-9.74-2.65-13.28-3.84 a 1.77,1.77,0,0,1-1.72.54 c -.64-.26-.73-.67-.6-1.35-3.66-1.31-5.77-2.25-5.77-2.25 s -1,.25-.62.75 c 12.63,6.13,37,12.23,56.89,10.89,22.48-1.52,24.86-11.14,24.86-11.14Z"/>
    <path d="M 340.22,247.62 s 5.09,12.2.1,33.3 c 1.13.35,3-4.63,3-4.63 s 1.53-10.09.8-15.2 C 343.34,255.75,340.22,247.62,340.22,247.62Z"/>
  </g>
<script type="text/ecmascript" xlink:href="param.min.js"/> 
</svg>
