<?xml version="1.0"?>
<svg xmlns="http://www.w3.org/2000/svg" xmlns:xlink="http://www.w3.org/1999/xlink" viewBox="0 0 600 600">
  <title>nurse-hourglass</title>
  <g id="main-colour">
    <path d="M 334.21,283.26 s 2.7-12.76,1.65-21.26 l -3.13-13.89 a 12.06,12.06,0,0,0,1.55-1.73 h 0q.27-.36.51-.74 l 0,0 c .15-.24.29-.48.42-.73 l .1-.2 c .12-.23.24-.47.34-.71 l .07-.18 a 11.91,11.91,0,0,0,.41-1.17 c .06-.2.12-.41.17-.61 s .07-.31.1-.46.09-.49.12-.74,0-.26,0-.39 c 0-.38.06-.77.06-1.17 h 0 a 12,12,0,0,0-12-12,11.68,11.68,0,0,0-1.78.15 c -2.78-8-14.23-9-14.23-9 a 11.69,11.69,0,0,1,3.81,5 l 1.31,5.89 c .63,5.25-2,13.44-5.25,17.75-1.25-1.87-8.5-6.81-12.25-9.69 s -7-5.12-8.69-8.75 c -1.1-2.36-1.06-4-.6-5.3.54-.66,1.45-1.82,2.54-3.45 a 14.45,14.45,0,0,0-11.35,8.19 c -.94.35-1.91.69-2.92,1-5.33-2.17-11.92-4-16.83-1.17 s -7.33,8-6.42,14 S 257.88,251,263,252.18 c -.08,8.08,1.5,22.33,4.83,29.25 s 9.33,14.42,11.92,17.92,4.42,9.42,2.92,18.08-11.92,18.08-16.25,22.17 S 258,348.18,254.88,356 c 0,0-4.69,7.37-4.52,19.7 s 3.17,22,3.83,34.33 A 86.4,86.4,0,0,1,252,433.38 a 94.69,94.69,0,0,0,32.67,11 c 19.33,2.83,43.5,5.67,67.33-15.5-3.33-6.17-5.17-13-5.17-28.33 s -.83-29-7.5-42-8.17-15-11.5-19 c -1.72-2.06-4.63-6.38-7-10.08 a 16.16,16.16,0,0,1-.76-7 c .42-5.25,4.92-13.67,8.5-19.67,2.41-4,3.66-9.31,4.56-12.51Z" fill="param(main_colour)"/>
  </g>
  <g id="fixed-colours">
    <path d="M 326,256.18 l .54,2.16,3.12-.53.82,5.31 a 4,4,0,0,0-1.2,3.29,2.93,2.93,0,0,0,3.64,2.19,3.07,3.07,0,0,0,2.63-3.73 c -.3-1.26-2.22-2.16-2.62-2.32-.25-1.86-1-5.73-1-5.73 l 1.25-1.39-.93-2Z" fill="#d6d6d6"/>
    <path d="M 323.51,256.68 a 5.75,5.75,0,0,0,2.61-.27 c .32,1,.5,1.78.5,1.78 l 3.16-.53.16,1.56 s -.48.49-5.73.74 C 323.88,258.42,323.51,256.68,323.51,256.68Z" fill="#fff"/>
    <path d="M 283.55,260 s 10.35,1.4,20-1.37 a 29.43,29.43,0,0,1,.26,3.81 s -10.6,3-19.64,1.18 A 23.69,23.69,0,0,1,283.55,260Z" fill="#fff"/>
    <polygon points="289.49 270.27 292.73 269.9 292.58 267.28 295.36 267.03 295.89 269.46 298.67 269.21 298.8 271.68 295.88 272.1 295.97 274.89 293.04 275.23 292.96 272.52 289.87 272.79 289.49 270.27" fill="#f0356a"/>
    <path d="M 332.91,252.66 l -.25,1.26.68,1.37 a 3.47,3.47,0,0,1-1.19,1.19 l 0,.16.47,1.69,1.66-1.25Z" fill="#fff"/>
    <path d="M 277.86,230.19 s 1,5.44,3.75,6.5,6.44,1,10.69.25 c .13,1.44.25,3.13.25,3.13 s -6.81,1.63-11.69-.19 S 277.73,231.07,277.86,230.19Z" fill="#fff"/>
    <path d="M 293,242.5 s 7.94.44,13.94,2.94 a 12.3,12.3,0,0,1,2.25,2.81 s -8.75-3-15.81-3.19Z" fill="#fff"/>
    <path d="M 320.23,236.69 S 311,244.44,308.79,247 c .94,1.25,1.25,1.63,1.25,1.63 l 11.19-10.56Z" fill="#fff"/>
    <path d="M 319.67,222.75 a 12.67,12.67,0,0,1-1.31,11.75,8,8,0,0,0,1.56,1.5 s 3-3.37,2.75-7.5-1.87-4.81-1.87-4.81Z" fill="#fff"/>
  </g>
  <g id="outline">
    <path d="M 347.8,399.38 c 0-8.92,0-20.75-4.08-32.75 a 86.38,86.38,0,0,0-16.25-28.83 c -6.67-7.92-7.58-13-6-18.42 s 5.93-12.86,8.85-18.25 c 4.41-8.12,5.21-18.21,5.41-19.62 a 119.32,119.32,0,0,0,1.06-14.69 c 0-5.31-.69-12.19-3.25-18.19 a 42.6,42.6,0,0,0-7.75-12.12,43.43,43.43,0,0,1,6.63,15 c -3.6,4.52-10.09,4.37-10.09,4.37 a 50.3,50.3,0,0,1,1.38,14.36 c 1.68.87,7.49,3.28,10.29,4.43-.25,3.47-.6,6.74-.88,9.61 a 83.13,83.13,0,0,1-2.74,12.21 c -1.56,4.31-4.62,8.81-7.06,13.94 s -4.31,10.06-4.19,14.63,2.5,8.06,6.06,12.69,7.25,6.88,14.75,23.5,6.27,33.29,6.19,39.88.42,21.67,4.83,27.5 c -6.43,5.69-19.32,15.21-36.88,16.61.27-3.28,1.85-23.48,1.54-38.45-.33-16.33-1.5-33.75-3-47.92 s -2.13-23.29-2-31.17 c .15-9.33,3.34-20.9,4.9-32.5 a 136.88,136.88,0,0,0,1.17-29.42,33.83,33.83,0,0,0-6.06-17 L 322,238 l -1.58-1.81 a 9.85,9.85,0,0,0,3.18-8.52,7,7,0,0,0-.18-.79,8.17,8.17,0,0,1,5.68.21,8.8,8.8,0,0,0-6.3-1.78 c -2.33-4.48-9.06-7.72-15.62-7.72,0,0,12.85,9.55,1.13,28.4 l -.06-.07 c -6.15-6.37-21.65-12.58-20.9-22.58 a 28.47,28.47,0,0,0,3.42-4.58 s -5.33-.75-11,5.17 a 12.85,12.85,0,0,0-2.07,2.88,11.91,11.91,0,0,1-3.47.73 c -.81-.19-6.69-2.81-10.69-2.44 a 14.87,14.87,0,0,0-11.19,7.06 c -2.81,4.5-2.25,11.06.81,15.19 a 13.86,13.86,0,0,0,8.94,5.69 c -.69,4.13.88,14.88,2.38,21.38 s 4.19,11.75,10.25,20 c 1.64,2.24,3.25,4.21,4.78,6.06 a 36.54,36.54,0,0,1,2.41,6.69 c .88,3.94.38,13.88-5.75,20.88 s -14.81,13.81-19.25,21.19 a 55.16,55.16,0,0,0-7.25,26.63 c 0,8.88,3.13,24.69,3.44,32.06 s .58,18.85-2.17,25.85 c 15.58,9.58,41.75,14.92,62.67,12.92 s 34.92-12.83,39.58-17.75 C 348.22,422.54,347.8,408.29,347.8,399.38Z M 330.15,257.83 a 8.6,8.6,0,0,0,1.7-.74,36.8,36.8,0,0,1,.9,4.83,4,4,0,0,0-1,.08,4.51,4.51,0,0,0-1,.34 C 330.68,261.26,330.38,258.76,330.15,257.83Z m 3.22-2,.06.29 c 0,.28.09.56.13.83-.26.21-.57.45-.92.69-.06-.37-.1-.71-.14-1 A 5.25,5.25,0,0,0,333.36,255.84Z m 0,6.15 c -.09-.53-.33-2-.54-3.38.34-.21.65-.41.94-.61.2,1.4.33,2.82.42,4.24 A 3.81,3.81,0,0,0,333.32,262Z M 332,263.12 a 3.1,3.1,0,0,1,2.2.31 c .06,1.37.09,2.74.08,4.09 a 3.6,3.6,0,0,1-1.39.7,2.66,2.66,0,0,1-3.23-2 A 2.76,2.76,0,0,1,332,263.12Z m .95-9.31-.12-.25.06-.05Z m -.55.14.64,1.24 s -.91,2.24-6.16,2.61 c -.14-.37-.26-.8-.35-1.13 A 12.74,12.74,0,0,0,332.4,254Z m -6.51,2.83.48,1.64 a 13.68,13.68,0,0,0,3.17-.42 l .14.81 a 18.15,18.15,0,0,1-5,.49 c -.14-.76-.31-1.53-.52-2.3 C 324.76,257,325.34,256.88,325.9,256.78Z m -.77,12.64 a 40.86,40.86,0,0,0-.34-9.29,23.16,23.16,0,0,0,5-.61 c .15,1,.33,2.16.42,3.15 a 3.61,3.61,0,0,0,2.53,6.65,4.63,4.63,0,0,0,1.53-.52 c 0,1.56-.1,3.09-.19,4.6 C 330.81,272.16,325.13,269.42,325.13,269.42Z m -17.17-22 a 77.77,77.77,0,0,0-14.07-3 c -.08-.51-.14-1-.21-1.47 A 56.06,56.06,0,0,1,306,245.42 C 306.68,246.07,307.34,246.74,308,247.43Z m 14.09-18.72 a 9.66,9.66,0,0,1-2.33,6.68 l -.9-1 a 11.9,11.9,0,0,0,1.65-9.94 A 6.78,6.78,0,0,1,322.05,228.71Z m -11.83-9.83 a 21.81,21.81,0,0,1,9.17,4.39,11.61,11.61,0,0,1-1,10.61 l -3.92-4.49 A 17.37,17.37,0,0,0,310.22,218.88Z m 4.3,11.9,5,5.85-8.8,8.08 A 31.63,31.63,0,0,0,314.52,230.78Z m -5.05,16.1,10.63-9.54.6.71 L 310,248 c -.23-.29-.47-.58-.71-.86Z m -4.82-2.67 a 45.31,45.31,0,0,0-11.09-2 c -.46-3.38-.69-5.82-.78-7,2.4,2,5.34,4.15,8.68,6.51 C 302.58,242.51,303.65,243.34,304.65,244.21Z m -26.6-12.07 c .62,2.23,1.88,4.92,4.44,5.45 a 26.69,26.69,0,0,0,9.24-.07 c 0,.59.1,1.24.16,1.92-1.94.39-7.79,1.35-11.1-.64 C 278.41,237.35,277.73,234.83,278.05,232.14Z m 1.83-5.42 c 2.33-4.25,8-6,8-6 a 6.39,6.39,0,0,0-1.25,7.5,19.72,19.72,0,0,0,4.85,5.87 c 0,.45.09,1.42.19,2.72-1.51.19-7.23.8-9.5-.28-2-1-3.2-3.18-3.77-6.2 A 16.73,16.73,0,0,1,279.89,226.71Z m -26.75,206 c 3.42-12.67,1.75-28.83.42-38.25 s -4.33-20.58.33-34.25,11.25-17.42,17.58-24.17,11.08-12.67,12.08-20.75 c .64-5.17.05-8.52-.82-10.93 a 36.27,36.27,0,0,1,6.35,10.26 c -2-7.37-6.81-13.62-10.81-18.81 s -10.5-14-12.25-24.12 a 147.86,147.86,0,0,1-1.87-20.44,12,12,0,1,1,3.63-23.62 c 4.1,1,7.09,2.39,9,1.65-1.31,4.61.25,9.07,1.56,10.26,1.78,1.62,5.71,3.47,13.75,1.5.14,1.43.31,3,.5,4.5 a 109.27,109.27,0,0,1,16.57,3.28,28,28,0,0,1,6,16.06 c .88,13.64-.24,31-2.65,41.58 s -3.92,21.25-3.08,32.08,4.17,40.5,4.67,59 c .46,17-.92,43.7-1.14,47.78 C 295.12,446.46,270.1,443.09,253.14,432.71Z"/>
    <path d="M 282.62,259.2 s .75,10.85,2,16.15 A 38.82,38.82,0,0,0,295,280.83 s 8-5.22,9.84-7.27 c -.11-7.46-.52-15.92-.52-15.92 S 292.85,260.84,282.62,259.2Z m 20.48.23 c 0,.76,0,1.6,0,2.48-7.59,2.5-16.13,1.76-18.67,1.45-.1-1-.17-1.84-.19-2.4 C 284.28,261,296.71,261.91,303.1,259.44Z M 295,279.13 a 57.22,57.22,0,0,1-9.21-4.82 s -.75-5.79-1.19-10 c 7.66,1.2,16.39-.59,18.6-1.1.11,4.58.3,9.54.3,9.54 S 297,277.87,295,279.13Z"/>
    <path d="M 299.33,272.35 l -.31-3.7-2.92.31-.29-2.55-4,.27.27,2.66-3.14.3.4,3.53,3.14-.3.24,2.71,3.66-.31-.09-2.65Z m -5.82,2.25-.23-2.63-3.08.19-.19-1.57,3.08-.33-.27-2.55,2.16-.2.37,2.58,2.75-.21.17,1.42-2.8.37.13,2.8Z"/>
  </g>
<script type="text/ecmascript" xlink:href="param.min.js"/> 
</svg>
