<?xml version="1.0"?>
<svg xmlns="http://www.w3.org/2000/svg" xmlns:xlink="http://www.w3.org/1999/xlink" viewBox="0 0 600 600">
  <title>city-classic-top-slender</title>
  <g id="main-colour">
    <path d="M 334.18,266 c .59-9.21-1.19-15.76-3.59-20.81 a 11.19,11.19,0,0,0-14.31-16.6 c -.38-.13-2-1.53-3.14-2.43.71,1.07,1.43,2.21,2.13,3.43,4.75,8.25,6.67,17.67,6.17,28.83 s -3.33,20.17-7.94,29.79 c -.35-13.29-5.4-27.46-9.65-33.62 s -11.58-11.83-14.33-19.42 A 26.85,26.85,0,0,1,288,224.37 a 22.13,22.13,0,0,1-6.14,4.56 c -7.45-6.36-19.55-1.14-20,7.95 s 6,12.33,9.33,13.42 c -1.25,5.92,1.33,21,3.17,27.5 s 6.92,19.67,9.08,28.08-1.32,17.33-11.66,30.5 c -6.82,8.68-9.38,14.26-11.33,20.67,5,3.5,16.81,5,28.08,2.58,10.88-3,18.88-7.87,23-15.25,3.83,4.76,12.41,9.46,22.42,13,.13-1.53-1.86-5.77-5.64-12-4.86-8-5.28-12.7-5.44-21.12 s 1.82-20.63,3.91-27.88 S 333.43,277.79,334.18,266Z" fill="param(main_colour)"/>
  </g>
  <g id="accent-colour-1">
    <path d="M 289.44,223.21 s -.83,8.08,7.17,14.58,13.67,7.5,13.67,7.5,4.5-7.83-.25-20.92 c 2.08,1.17,7.5,6.25,9.92,16.75 a 63.65,63.65,0,0,1,.08,28.33 c -1.83,8.33-5.25,17.33-6.17,18.42-.58-5.92-2.25-15.83-5.33-23.58 A 47.92,47.92,0,0,0,297.36,247 c -5-5.25-9.5-10.58-9.33-22.42 C 288.61,224,289.44,223.21,289.44,223.21Z" fill="param(accent_colour_1)"/>
  </g>
  <g id="accent-colour-2">
    <path d="M 285.4,227.21 l 2.64-2.84 s -.9,9.67,3.6,15.76,5.94,6.2,9.89,11.42 c 3.72,4.92,6.46,9.46,8.17,15.75,4.75,17.48,3.33,21,3.33,21 s -4.25-9-8.08-14.17 c -5.3-7.15-6.75-8.83-8.87-11 a 81.53,81.53,0,0,1,3.5-8.58 s -7.17-1.5-11.5-4.17 a 136.44,136.44,0,0,1-2.58-20.83Z" fill="param(accent_colour_2)"/>
    <path d="M 313.73,227.21 a 66.4,66.4,0,0,1,14,15.75 c -1,3.75-2.5,8.25-2.5,8.25 a 27.62,27.62,0,0,1,4.25,7 c -2.67,13.17-8.42,22.83-15.58,30.08,3.58-8.42,7.67-18.58,7.5-29.83-.18-12.31-.57-17.42-3.07-22.17Z" fill="param(accent_colour_2)"/>
    <path d="M 283.15,319 s 1.58,1.67,8.83,2.33 c -1.5,6.17-3.75,12-8.42,12.58 s -6.67-1.75-7.08-3.25Z" fill="param(accent_colour_2)"/>
    <path d="M 319.82,322 l 2.42-1,1.08,12.42 S 319.57,333.63,319.82,322Z" fill="param(accent_colour_2)"/>
  </g>
  <g id="outline">
    <circle cx="314.96" cy="249.47" r="0.92" transform="translate(59.49 559.59) rotate(-88.9)"/>
    <circle cx="316.9" cy="257.01" r="0.92" transform="translate(53.86 568.92) rotate(-88.9)"/>
    <circle cx="317.85" cy="263.87" r="0.92" transform="translate(47.94 576.6) rotate(-88.9)"/>
    <circle cx="317.8" cy="270.62" r="0.92" transform="translate(41.14 583.17) rotate(-88.9)"/>
    <circle cx="315.12" cy="297.96" r="1.35"/>
    <circle cx="313.5" cy="311.78" r="1.35"/>
    <circle cx="312.92" cy="324.69" r="1.35"/>
    <circle cx="313.61" cy="337.25" r="1.35"/>
    <path d="M 329.5,344.88 c -3.48-5-4.54-9.77-5.2-15 a 67.77,67.77,0,0,1,.17-11.09 c 1-11.72,5.23-25.16,8.13-37.27,1.57-6.27,3.59-13.39,1.93-24.06 A 42.72,42.72,0,0,0,327.86,240 c 6.92,14.67,5,27.5,4.33,32.58 a 73,73,0,0,1-2.41,10.61 c -4.2,14.74-7.54,26.42-8.11,37.31 a 4.32,4.32,0,0,1-2.3,1.08 c 0,5.06,0,11.48,3.41,12.67.73,3.07,1.9,7,3.59,9.45 C 329.5,348.38,332.5,353,333,356 c -6.7-2.19-16.48-6.74-20.59-12.15-4.18-21.85.31-47.12,1.78-54.3,3.4-3.58,13.35-15.23,15.93-31.42 a 31.88,31.88,0,0,0-4.25-6.87 s 2.21-6.25,2.63-8.25 a 69,69,0,0,0-11.84-14.49 c 3.23-1.48,6.1-1.75,8.81-.64-1.08-1.33-4.33-2.42-6.67-2.17 A 10.52,10.52,0,0,0,315,227 a 22,22,0,0,0-5.75-3.73 c 1.92,8.42,3.44,14.54.94,21.29-6.08-2.17-21.28-8.29-20.19-23 l -5.25,5.08v.07 a 11.5,11.5,0,0,1-3,1,13.08,13.08,0,0,0-7.76-2.55 A 13.19,13.19,0,0,0,269.92,251 a 110.87,110.87,0,0,0,1.34,17.75 c 2.5,15,9.62,27.5,11.46,40.33 a 18.32,18.32,0,0,1,.15,3.21 h 0 c -.24,6.72-5.5,16.75-10.56,22 s -10.94,16.63-12.94,23.63 c 10.13,6.63,39.88,5.88,52.88-11.75,5.88,7,23.38,12.38,23.38,12.38 S 333,349.88,329.5,344.88Z m -7.9-22.94q0,1.33,0,2.65 a 6.45,6.45,0,0,1-1.23.46 c -.05-.81-.09-1.69-.1-2.67 A 3.79,3.79,0,0,0,321.6,321.94Z m -1.15,4.35,1.17-.43 c 0,1.26.12,2.52.26,3.77 h 0 s .18,1.19.53,2.91 C 321.69,331.81,320.83,330.12,320.45,326.29Z m -.88-84.69 a 76.9,76.9,0,0,1,.79,23.15 A 90.39,90.39,0,0,1,314.6,285 c 1.4-6,4.8-24.64-3-38.22,1.33.35,4.3,1.15,7.15,2 A 15.31,15.31,0,0,0,319.56,241.61Z m -8.92,5.25 c 1.49,2.9,7.43,16.25,3.11,37.85 a 76.59,76.59,0,0,0-6-24.08 A 42,42,0,0,0,304,254Z M 327,243.25 c -.08,2.5-2.37,8.13-2.37,8.13 a 50.78,50.78,0,0,1,4.25,6.75 c -1.2,8-6.09,17.88-13,27.14,4.26-10.75,7-21.36,6.16-34.64 a 55.83,55.83,0,0,0-5.24-20 A 68.78,68.78,0,0,1,327,243.25Z M 311,225.63 c 10.08,12.88,7.07,21.83,7.07,21.83 s -4.26-1.47-7.2-2.28 C 315.2,236.7,311,225.63,311,225.63Z M 309.64,246 a 50.81,50.81,0,0,1-6.35,7 c -3.79-5.17-7.79-8.12-11.18-13.46 s -3.61-12.07-3.54-14.67 a 1.85,1.85,0,0,1,.31-.12 S 289,238.28,309.64,246Z M 286,227.46 a 9.78,9.78,0,0,1,1.41-1.78,31.45,31.45,0,0,0,3,13.45 c 1.93,3.79,5.64,7.5,8.06,9.92 s 6.61,7.67,10.19,17.83 a 84.43,84.43,0,0,1,4.2,20.07 c -1.76-3.9-7.52-15.71-16.2-23.82 a 55,55,0,0,1,4.06-9 s -8.25-1.92-12.08-4.25 C 287.29,244.71,286,231,286,227.46Z m -4.4,96.83 a 46.61,46.61,0,0,0,8.21,2 c -2.56,6.57-6.81,7.7-9.22,7 a 6.58,6.58,0,0,1-3.39-2.49 A 62.73,62.73,0,0,0,281.64,324.29Z m 8.66.73 a 28.14,28.14,0,0,1-8.11-1.72,30.15,30.15,0,0,0,1.5-3.21,27.46,27.46,0,0,0,7.44,1.79 A 28.53,28.53,0,0,1,290.3,325Z m -1.18,33.74 c -11.62,3.25-24.75-.12-27.12-2.25,3.25-8.5,4.88-12.5,11.25-20.62,1.06-1.35,2.09-2.65,3.07-3.92 a 6.76,6.76,0,0,0,3.81,2.67 c 7.25,2,11.63-6.12,12.75-14 a 15.77,15.77,0,0,1-8.72-1.84,23.66,23.66,0,0,0,1.16-5.92 h 0 c 0-.06,0-.11,0-.17 s 0-.29,0-.45 h 0 c .09-3-.48-5.88-1.6-10.08-2.17-8.12-6.86-18.78-9.46-29.28-2.12-8.56-2-18.12-1.85-21.36 h 0 c 0-.22,0-.59,0-1v-.2 h 0 c 0-.46,0-.86,0-.86 h 0 a 11.2,11.2,0,1,1,7.7-20.44 h 0 l 1.37.75 a 8.27,8.27,0,0,0,1.49-.1 l .12,0,.6-.14,0,0 a 11,11,0,0,0,1.13-.46,215.37,215.37,0,0,0,2.54,22.16,54.64,54.64,0,0,0,11.25,3.92,74.75,74.75,0,0,0-3.58,8.42,80.76,80.76,0,0,1,17.48,25.93 c -.76,4.53-2.36,14.84-3.16,26 a 134.29,134.29,0,0,0,1.42,28.48 C 306.88,351.21,300,355.7,289.12,358.75Z"/>
  </g>
<script type="text/ecmascript" xlink:href="param.min.js"/> 
</svg>
