<?xml version="1.0"?>
<svg xmlns="http://www.w3.org/2000/svg" xmlns:xlink="http://www.w3.org/1999/xlink" viewBox="0 0 600 600">
  <title>professionally-pink-slender</title>
  <g id="main-colour">
    <path d="M 345.61,400.38 a 100.84,100.84,0,0,0-6.87-34.75,98.93,98.93,0,0,0-9.38-18.22 c -.29-.64-.6-1.3-1-2-4-7.92-5.28-12.7-5.44-21.12 s 1.82-20.63,3.91-27.88,6.59-18.59,7.33-30.33 c .59-9.21-1.19-15.76-3.59-20.81 a 11.19,11.19,0,0,0-14.31-16.6,3.12,3.12,0,0,0-1.56-.2,11.75,11.75,0,0,1-7.08-5.77 l .13-.11 c 3.08-2.67,1.25-5.42,1.25-5.42 s .67-.42.5-2.75-3.83-3.5-3.83-3.5-.08,1.92,0,5 a 21.1,21.1,0,0,1-9.48.46,22.71,22.71,0,0,1-2.56-.74 s .17-1.84.42-4.92 c -4.17.33-6.67,2.25-5.08,6.08-2.37,3.61-.38,5.62,1.15,6.54 a 13.48,13.48,0,0,1-8.27,5.6 c -7.45-6.36-19.55-1.14-20,7.95 s 6,12.33,9.33,13.42 c -1.25,5.92,1.33,21,3.17,27.5 s 6.92,19.67,9.08,28.08 S 281,325.63,273.85,338 c -6.09,10.56-8.39,15.58-10.48,23 a 9.93,9.93,0,0,0-1.51,3.54 c -1.37,6-4.37,13.5-3.37,29.88 s 5.25,28.38.38,36.63 c 5.5-1.12,15.38.25,24.38,2.63 s 47.13,12.38,65.38-7.5 C 346.36,418.75,345.86,408.75,345.61,400.38Z" fill="param(main_colour)"/>
  </g>
  <g id="accent-colour-1">
    <path d="M 281.86,321.88 s 26.33,11.17,41,.33 a 67.9,67.9,0,0,0,.83,11.33 s -13.83,13.5-46.5-.67Z" fill="param(accent_colour_1)"/>
    <path d="M 266,352.88 l 14.67,4.33 s -1.5,23.33-20.83,17.33 C 261,364.71,266,352.88,266,352.88Z" fill="param(accent_colour_1)"/>
    <path d="M 332.36,352.55 s -3.83,3.83-7.67,4.17 c 2.17,6.5,6,19.5,15.67,13.5-3.67-10.33-6.17-14.33-6.17-14.33Z" fill="param(accent_colour_1)"/>
  </g>
  <g id="outline">
    <path d="M 347.17,406.38 c 0-7.83-1-22.25-5.17-34.83 s -13.08-26.83-15.33-32.42-2.58-11.17-2.33-17.42 a 116.43,116.43,0,0,1,3.5-21.25 c 1.67-6.67,4.72-18.5,4.72-18.5,1.55-7.33,7.18-23.58-4.95-41.83,4.5,8.25,8.1,21.38,2.11,43.25,0,0-2.05,8.83-4.14,17 a 105.34,105.34,0,0,0-3.42,21.47 c -14.37,8.32-34.85,1.36-39.17-.27 a 25.77,25.77,0,0,0,1.5-11.7,85.39,85.39,0,0,0-3-12.27 c .85,1.58,1.62,3,2.27,4.35,2.58,5.25,6.25,11.67,6.5,16.42-.17-7.33-5-16.25-7.92-21.58 s -8.33-21.08-9.75-31.33-.14-15.95-.14-15.95 a 11.16,11.16,0,0,1-9.19-7.8 c -2.37-6.75,2.68-12.12,7.05-13.92,4.22-1.73,12.12,2.17,14.37.5,0,0,3-.63,6-4.45 a 13.72,13.72,0,0,0,3,.53 s -6.68-2.27-4.52-6.52 a 13,13,0,0,0,5.44,1.86 s -3.62-.75-4.79-3.58 c -.92-2.24.53-3.9,3.48-4.58-.2,1.37-.56,3-.69,3.52 a 12.28,12.28,0,0,1-1.3-.56 c 4,3.83,14.31,3.48,16.31.31-.34.14-.67.25-1,.37-.08-.65-.26-2.27-.35-3.46 l .11,0 c 2.67.83,4.63,4.94-2.27,7.79 a 14.08,14.08,0,0,0,4.65-1.69 c .38,1,.83,3.77-3.94,6.21 a 8.73,8.73,0,0,0,2.31-.8,15.83,15.83,0,0,0,3.5,4 c 1.13.75,3.63,2.44,5.13,1.56 a 12.79,12.79,0,0,1,3.08-1.2 c 1.53-.33,4.44-.72,6.7.26 a 9.16,9.16,0,0,0-8-1.94,8.91,8.91,0,0,0-1.28.41,5.28,5.28,0,0,1-2.47.69 c -2.53-.69-4.47-3.65-5.13-4.78 a 4.66,4.66,0,0,0,1.38-5.48,3,3,0,0,0,.69-1.9 c 0-1.81-1.16-4.35-6.19-5,0,.2,0,.43,0,.66 h 0 s .17,2.82.55,5.11 a 20.62,20.62,0,0,1-10.8-.08,34.55,34.55,0,0,0,.75-5.19 h 0 l .05-.63 a 16.26,16.26,0,0,0-4.36,1 c -2.37,1-4.37,2.79-2.87,5.63 a 3.67,3.67,0,0,0,.32.5,5.1,5.1,0,0,0-.82,4.13,3.23,3.23,0,0,0,1.63,2.09,10,10,0,0,1-3.84,3.45 s -2,1.42-5.25,0 a 13.21,13.21,0,0,0-11.42-.08 A 12.8,12.8,0,0,0,261,240.21 c 1,6.25,4.67,9.17,9,10.83-.83,7.83,1.5,24,3.75,30.33 a 76,76,0,0,0,3.19,7.48 c .88,2.51,1.78,5.09,2.39,6.85,1.58,4.58,4.75,15.25,2.83,21.58 s -3.67,11.17-10.08,21.58-14.17,26.5-14.5,50.5 c -.3,21.34,6.18,29.25.18,42.87,12.68-2.13,21.49,1.8,28.49,3.3 a 126,126,0,0,0,39.33,2.5 c 17.33-1.83,24.06-11.72,24.06-11.72 A 71.82,71.82,0,0,1,347.17,406.38Z m -13-48.57 a 31.41,31.41,0,0,1-7.15,3.78 c -1-2.39-1.55-4.29-1.55-4.29 a 20.91,20.91,0,0,0,6.72-3.37Q333.26,355.86,334.2,357.81Z m .48,1 a 106.39,106.39,0,0,1,4.48,11.24 c -.63.6-2.47,1.9-5.83.64-2.3-.86-4.4-4.71-5.85-8.06 A 20.48,20.48,0,0,0,334.69,358.83Z m -12.56-34.72 c 0,.82,0,1.64,0,2.44 a 56.87,56.87,0,0,0,.66,6.67 c -13.34,11-40.69.81-44.65-.76 a 76.49,76.49,0,0,0,4.29-9.34 C 304.39,331.9,318.35,326.11,322.13,324.11Z m -58,36.72 a 60,60,0,0,0,14.12,3 c -1.39,3.85-3.4,7.18-6.6,9.28-3.58,2.36-8.51,1.3-10.72.64 A 77.48,77.48,0,0,1,264.15,360.83Z m 14.61,1.57 c -4.68.12-12-2.09-14.17-2.81q.94-2.65,2-5.16 A 76.91,76.91,0,0,0,279.92,358 C 279.59,359.48,279.21,361,278.76,362.4Z m -.34,69.31 c -8.24-2-14.75-2-18.08-1.34,2.65-7.64,1.78-13.15.92-19.32-1.06-7.59-2.59-20.72-.54-35.67,15.45,4.8,19.08-8.06,21.29-18.75 a 110.06,110.06,0,0,1-14.57-4.09,170.56,170.56,0,0,1,8.32-15.74 c .57-1,1.12-2,1.65-2.92,29.24,12.16,42.59,4,45.83,1.36,1,4.14,2.77,8.2,6.36,14.06.69,1.13,1.35,2.27,2,3.42 a 29.86,29.86,0,0,1-7.43,3.75 s 2.69,12.41,8.11,15.16 c 4.14,2.1,6.47.56,7.34-.29q1.3,4,2.32,8.12 A 97.16,97.16,0,0,1,345,404.21 c -.06,4.3.45,14.68,2.44,22.3 C 328.46,443.49,294.59,435.54,278.42,431.71Z"/>
    <path d="M 320.42,380 s -12,21.33-35,32 C 302.75,407,316.42,392.71,320.42,380Z"/>
    <path d="M 323.09,401 c -10.33,10-19.33,12-19.33,12 C 309.42,413,318.42,409,323.09,401Z"/>
  </g>
<script type="text/ecmascript" xlink:href="param.min.js"/> 
</svg>
