<?xml version="1.0"?>
<svg xmlns="http://www.w3.org/2000/svg" xmlns:xlink="http://www.w3.org/1999/xlink" viewBox="0 0 600 600">
  <title>city-classic-top-hourglass</title>
  <g id="main-colour">
    <path d="M 263,252.18 c -.08,8.08,1.5,22.33,4.83,29.25 s 7.77,13,9.85,16.83 c 2.52,4.62,4,10.46,2.5,19.13 s -11.92,16.92-16.25,21-8.29,9.92-11.37,17.75 a 31.24,31.24,0,0,0-2.08,8.77 c 3.5.74,11.72,1.59,24-2.64 C 291.11,356.5,304,344,308,339.88 c 4.36,5.32,16.25,16.7,28.78,19.43 a 14.67,14.67,0,0,0-.66-1.81 c -1.44-8-6.38-14.59-10.12-20.5-4.12-6.5-5.17-11-4.75-16.25 s 3.73-12,7.32-18 A 57.44,57.44,0,0,0,333.62,290 l -.39.11,1-6.84 s 2.7-12.76,1.65-21.26 l -3.13-13.89 a 12.06,12.06,0,0,0,1.55-1.73 h 0q.27-.36.51-.74 l 0,0 c .15-.24.29-.48.42-.73 l .1-.2 c .12-.23.24-.47.34-.71 l .07-.18 a 11.91,11.91,0,0,0,.41-1.17 c .06-.2.12-.41.17-.61 s .07-.31.1-.46.09-.49.12-.74,0-.26,0-.39 c 0-.38.06-.77.06-1.17 h 0 a 12,12,0,0,0-16-11.31 c -.35-3.67-6.36-5-8.35-7.17,1.38,8.5-.4,17.33-4,25.38-14.71-6.82-19.31-17.79-20.74-24.38-3.14,3.7-7.34,5.71-12.28,7.18-5.33-2.17-11.92-4-16.83-1.17 s -7.33,8-6.42,14 S 257.88,251,263,252.18Z" fill="param(main_colour)"/>
  </g>
  <g id="accent-colour-1">
    <path d="M 283.86,224.38 l 3.75-2.87 s 2.5,16.25,20.63,24.63 c 4.75-10.87,4.75-22.37,3.25-26 A 34.65,34.65,0,0,0,315,223 a 124.8,124.8,0,0,1,6.25,22.75 c 2.38,13.25-1,30.63-7.62,43.13 a 141.58,141.58,0,0,0-11.12-25 C 298.86,257.13,287.11,240.75,283.86,224.38Z" fill="param(accent_colour_1)"/>
  </g>
  <g id="accent-colour-2">
    <path d="M 284.19,224.38 l -4.08,2.25 s -.58,15.17,4,29.75 A 37.35,37.35,0,0,1,295.86,259 s -3.25,7.42-3.5,10.08 c 11.17,4.5,15.58,13,20.5,22.92-.58-8.42-3.92-17.42-9.75-27.17 S 292,246.46,288.86,238.71 A 102.6,102.6,0,0,1,284.19,224.38Z" fill="param(accent_colour_2)"/>
    <path d="M 315,223 s 5.79,14.13,6.54,26.46 a 82.74,82.74,0,0,1-3,27.75 c -1.5,4.83-4.65,13.5-4.65,13.5 S 324,281,329.52,263.13 a 32.35,32.35,0,0,0-4.25-8.75 l 5.25-10.25 S 323.44,230.55,319,225Z" fill="param(accent_colour_2)"/>
    <path d="M 279.48,319.38 s 6.38,3.63,12.75,4 c -3,6.75-7.37,12.63-12,11.75 s -7.12-3.75-7.62-5.62 a 21.33,21.33,0,0,0,5.63-7.5Z" fill="param(accent_colour_2)"/>
    <path d="M 324.92,335 s -6.94.81-7.44-10.37 c 2.44-.56,3.38-.81,3.38-.81 S 320,326.38,324.92,335Z" fill="param(accent_colour_2)"/>
  </g>
  <g id="outline">
    <path d="M 328.26,339.13 c -5-7.5-6.37-11-6.37-15.87 s 4.63-14.62,7.5-20.25,5.82-13.21,6.24-20.37 A 99.16,99.16,0,0,0,336.73,264 c -.37-7.37-1.81-12.19-3.12-15.19 a 37.43,37.43,0,0,0-2.21-4.27 l .14-.26 s -5.11-9.18-9.92-16.75 A 10.35,10.35,0,0,1,329,227 a 9.44,9.44,0,0,0-8.51-1.14 l -.82-1.24 c -6.5-3.75-9.17-6.33-9.75-6.33,2.83,5.58,2.18,18.79-2.15,27.13-8.08-3.75-18.19-12.54-19.68-26.29 a 29.67,29.67,0,0,1-5.08,4.42 c -2.25,1.33-4.08,2.67-4.08,2.67 s 0,.14,0,.41 a 11.72,11.72,0,0,1-4.7.76 c -1.07-.16-3.3-.91-4.84-1.29 A 14,14,0,1,0,262.13,253 c 0,.17-.49,6.17,1.5,17.11 h 0 c .11.59.22,1.18.34,1.79.18.92.39,1.8.62,2.67 l .16.6 c .23.84.47,1.66.73,2.45 l .11.32q.36,1.06.76,2.08 l .21.54q.45,1.09.93,2.14 l .22.45q.43.9.89,1.76 l .22.42.11.21 h 0 a 61.85,61.85,0,0,0,3.76,6v0 c 4,6.33,10,15.17,6.5,25.83 s -14,16.83-20.67,25.83 a 45.05,45.05,0,0,0-8.67,22.67 c 16.33,2.83,40.17-5.33,58-24.83,11.33,11.83,21.63,18.58,29.38,19 C 336.51,352,333.26,346.63,328.26,339.13Z m -4.31-4.82 c -1.21,0-3.73-.73-5.2-5.63 a 19.94,19.94,0,0,0,2.13-.52 A 43,43,0,0,0,323.95,334.31Z M 318,325.25 c .76-.14,1.62-.35,2.25-.51 a 15,15,0,0,0,.25,2.14 c 0,.11.06.24.09.36 a 15.21,15.21,0,0,1-2.12.44 C 318.3,327,318.14,326.15,318,325.25Z m 11.78-81 c -3.29,5.77-6.42,12.13-7.52,14.39 a 83.79,83.79,0,0,0-2.65-24.18 c -1.15-4-2.41-7.52-3.14-9.45 a 12.69,12.69,0,0,0,2.41,1.08 C 321.36,230,325.86,237.13,329.79,244.29Z m -29.56,17.33 h 0 c 5.41,7.88,10.86,20.94,12,27.88-4.07-9.07-8.81-16.51-18.8-21.5 a 24,24,0,0,1,3-7.9 C 297.75,260.6,299,261.11,300.23,261.63Z m 12.81,25 c -1.07-9.09-7.76-20.72-10.81-24.79 a 115,115,0,0,1-9.14-15.48 c 5.86,8.54,12.1,10.4,12.1,10.4 l 2.94-9 A 100.1,100.1,0,0,1,313,286.66Z m -3.78-40 c .66.48,1.78,1.28,3.09,2.18,2.08,1.42,4.67,3.67,4.67,3.67 s 2.77-3.82,2.15-13.25 c .55,2.25,1,4.44,1.32,6.34,1.15,7.36.79,25.69-6,41 C 316.44,268.44,310.9,251.28,309.26,246.7Z m 12.59,16.93 c .11-.8.19-1.62.26-2.43.57-.94,1.75-3,3.09-5.43 a 22.66,22.66,0,0,1,3.28,7.73 c -1.33,6.51-6.69,17.43-13.23,24.47 C 318.76,280.57,320.72,272.29,321.86,263.63Z m -8.47-41.08 a 10.12,10.12,0,0,0,1.27,1.24 c .47,1.43,1.31,4,2.23,7.14,1,4.46,2.29,13-.11,19.71-3.42-2.53-6.27-4.46-7.46-5.24 C 314.29,236.28,313.39,222.54,313.39,222.54Z m -6,23.89 a 26.6,26.6,0,0,0-2.9,8.7 c -6.62-2.79-11.79-10.71-14.76-16.32-2.48-6.28-4.33-11.5-4.78-13.88 a 19.48,19.48,0,0,0,2.13-1.72 C 288.09,228.33,293.94,240.35,307.34,246.43Z m -26.49-19.18 a 25.76,25.76,0,0,0,2.86-1.54 A 109.44,109.44,0,0,0,288.23,239 a 106.78,106.78,0,0,0,10.49,20.37,39.73,39.73,0,0,0-14.09-3.75 A 98.58,98.58,0,0,1,280.86,227.25Z M 289.74,327 a 25.78,25.78,0,0,1-11.31-3.75,26.52,26.52,0,0,0,1.37-2.88 A 35.23,35.23,0,0,0,291.14,324 C 290.68,325.1,290.22,326.08,289.74,327Z m -.63,1.12 c -3.43,5.77-7.27,6.82-10.6,5.78 a 8.35,8.35,0,0,1-4.82-4.06,38.07,38.07,0,0,0,4.26-5.72 A 25.13,25.13,0,0,0,289.11,328.1Z M 251.39,364.5 c 3.25-15.37,9.25-21.5,15-27.25,2-2,4.13-4,6.17-6.19 a 9.47,9.47,0,0,0,5,4.31 c 8,2.75,12.75-4.37,15.75-12.5 a 33,33,0,0,1-13-3.89,24.4,24.4,0,0,0,.83-3.11 c 1.88-9.62-1-15.62-3.25-19.12 a 58.57,58.57,0,0,1-3.62-6.5 h 0 c -.39-.56-.79-1.15-1.2-1.78 l -.12-.19-.5-.79-.13-.21 c -.4-.66-.82-1.36-1.24-2.1 l -.2-.36-.44-.79-.23-.43-.44-.84-.22-.42-.64-1.28,0-.05 c -.18-.37-.35-.75-.52-1.14 l -.12-.27 c -.16-.39-.32-.79-.47-1.2v0 c -.15-.41-.29-.82-.42-1.24 l -.09-.29 c -.14-.43-.27-.87-.39-1.32v0 c -.12-.44-.24-.89-.35-1.34 l -.06-.26q-.17-.7-.32-1.41v0q-.15-.71-.29-1.42 l 0-.21q-.14-.73-.26-1.47 a 110.56,110.56,0,0,1-1.35-16.11 c 0-.41,0-1.11-.1-2 a 12,12,0,0,1,.54-24,7.81,7.81,0,0,1,2,.18,8.77,8.77,0,0,1,2.07.48 c 7,2.89,9.33,1.16,9.33,1.16.3-.07.62-.17.94-.28 a 122.27,122.27,0,0,0,4.17,28.36,38.86,38.86,0,0,1,11.74,2.39 c -.9,2.3-2.78,7.06-3.89,9.65,12.34,4.74,17.67,15.63,21.17,23.84 a 191.44,191.44,0,0,1-3.95,23.29 c -3.12,12.49-1.35,21.42-.91,23.29 C 299.91,347.72,276.23,367.86,251.39,364.5Z m 57-25.56 a 67.71,67.71,0,0,1,1.15-22.74,148.17,148.17,0,0,0,4.24-24.39 c 7.86-8.43,13.27-17.16,16.57-28.69-2-6.3-3.87-8.49-4.29-8.92,1.71-3.07,3.5-6.33,4.55-8.25,1.5,2.95,3.89,11.61,4.11,17.66 a 135.22,135.22,0,0,1-1.28,20.67 S 332,295,326.89,303.88 c -4.12,7.14-6.46,14-6.64,19.34 a 9.16,9.16,0,0,1-3.61,1 c 1,6.56,2.49,11.63,8.17,11.54,4,6.91,9.58,15.68,11,22.34 C 327.75,357.27,314.53,346.21,308.41,338.95Z"/>
    <circle cx="312.6" cy="252.05" r="1.21"/>
    <circle cx="314.6" cy="259.79" r="1.21"/>
    <circle cx="316" cy="267.32" r="1.21"/>
    <circle cx="316.55" cy="274.17" r="1.21"/>
    <circle cx="318.44" cy="299.39" r="1.78"/>
    <circle cx="314.82" cy="310.01" r="1.78"/>
    <circle cx="312.32" cy="320.89" r="1.78"/>
    <circle cx="311.32" cy="333.26" r="1.78"/>
  </g>
<script type="text/ecmascript" xlink:href="param.min.js"/> 
</svg>
