<?xml version="1.0"?>
<svg xmlns="http://www.w3.org/2000/svg" xmlns:xlink="http://www.w3.org/1999/xlink" viewBox="0 0 600 600">
  <title>basic-bikini-top-slender</title>
  <g id="main-colour">
    <path d="M 273.4,276 s 11.38,6.25,14.88,5.25 c 2.75-9,10.25-22.12,16.63-27.25-4.12-9.5-11.31-20.62-19.87-26.94,1.38-.81,2.44-1.5,2.44-1.5 a 83.85,83.85,0,0,1,20.06,27.63 c 7.13.06,17.5,5.5,18.31,13.13 s -3.5,17-3.5,17 a 16.83,16.83,0,0,0,3.25-.19 c .81-8.75,3-23.75,10.13-31.31-6.19-5-13.19-9.94-18.25-14.62 s -10.06-10-9.62-15.94 a 18,18,0,0,0,1.69,2.81 s 1.75,4.69,7.25,10 a 143,143,0,0,0,18.81,14.5 c 4.81,3.13,11.19,6.94,13.19,13.06 s 1.94,10.94-3.06,18.69-16.37,7.13-18.56,6.88-6.5-.69-9.12.56-10.5,4.5-17.81,2.81-24.5-9.56-26.12-11.19 C 273.15,276.88,273.4,276,273.4,276Z" fill="param(main_colour)"/>
  </g>
  <g id="outline">
    <path d="M 341.4,251.88 a 252,252,0,0,1-22.68-16.33 c -4.77-4.2-7.78-8.52-9.11-11.85 a 16.86,16.86,0,0,1-1.72-3.16 s -1.83,1.68,1.5,7.84,13.33,14,17.67,17.17,7.83,6.33,7.83,6.33-4.68,4.66-7.65,15.77 a 21.84,21.84,0,0,0-.58-3.23 c -1.17-4.42-8-11.21-18.76-11.71 C 301.65,240,293.72,230,287.22,224.88 a 23.67,23.67,0,0,1-3.33,2 s 12.69,8.44,20.25,26.75 c -9,8.67-12.75,16.08-16.5,27.25-6-.5-15-5.92-15-5.92 s .17,3.42,1.33,4.92 c 5.68,3.75,22.49,12.25,30.62,12.13 s 12.13-2.4,14.13-4.06 c 1.44-1.19,5.88-.19,5.88-.19 a 25.86,25.86,0,0,0,7.19.5 c 4.16-.35,17.89-3.62,19-18.75 A 18.1,18.1,0,0,0,341.4,251.88Z m -43.31,37.31 c -8.39-2-17.6-7.06-23.54-9.81 a 4.27,4.27,0,0,1-.58-2.75 c 5.25,3.33,11.08,5.17,14.58,5.25,5.67-15.83,11.35-22.29,17-27.62 C 299.32,238,286.07,227,286.07,227 a 2.36,2.36,0,0,0,1.31-.69 c 9.5,8,17.17,21.56,19.75,27.48,6.26.33,11.8,2.63,15.6,6.83,5.5,6.08,2.5,17.83-1.33,22.5 C 315.64,290.14,308.4,291.63,298.09,289.19Z m 27.07-9.24 c -.08.93-.15,1.88-.2,2.87 a 8.9,8.9,0,0,1-1.44.06 A 19.17,19.17,0,0,0,325.16,279.95Z m 20.9-1.56 c -.69.47-1.66,1.1-2.77,1.76 a 8,8,0,0,0,1-4.08,11.19,11.19,0,0,1-2.22,4.79,30.83,30.83,0,0,1-3.74,1.81,38.69,38.69,0,0,1-8.5,2 c 7.43.39,13.12-3.43,15.74-5.62 a 17.22,17.22,0,0,1-3.82,3.83 c -5.83,4.25-13.6,4.08-16.65,3.39 a 9.31,9.31,0,0,0-4.62,0,12.49,12.49,0,0,0,2.31-2.37,9.22,9.22,0,0,0,3.38-.31 c .67-6.33,2.5-23.58,10.33-31.75-5.25-4.5-8.26-6.33-11.85-9.08 s -9.92-8.33-12-10.83-4.59-6.65-4.5-9.61 a 7.47,7.47,0,0,0,1.22,2,31.14,31.14,0,0,0,6.45,9.25 c 3.67,3.5,12.21,11,19.93,15.58,10.83,6.5,12.58,12,13.17,15.58 A 20.17,20.17,0,0,1,346.06,278.39Z"/>
    <path d="M 312.14,282 a 15.1,15.1,0,0,1-3.28,5.51,29,29,0,0,1-12.66-.35 s 12,4.08,20.58-2.33 a 38.13,38.13,0,0,1-6.8,2.43 C 310.56,286.42,312.09,284,312.14,282Z"/>
  </g>
<script type="text/ecmascript" xlink:href="param.min.js"/> 
</svg>
