<?xml version="1.0"?>
<svg xmlns="http://www.w3.org/2000/svg" xmlns:xlink="http://www.w3.org/1999/xlink" viewBox="0 0 600 600">
  <title>basic-v-neck-t-shirt-hourglass</title>
  <g id="main-colour">
    <path d="M 316.4,249.38 c -12.83-.42-28.81-8.87-34.44-14.12-2.73-2.55-5.5-4.38-6.61-6.37 l -.13,0 c -5.33-2.17-11.92-4-16.83-1.17 s -7.33,8-6.42,14 S 257.88,251,263,252.18 c -.08,8.08,1.5,22.33,4.83,29.25,0,0,4.06,10.79,8,20.87 a 86.34,86.34,0,0,1,4.92,20.08 c -2.83,6.5-10,13.13-14.31,17.21 a 46.09,46.09,0,0,0-8.75,10.55,41.53,41.53,0,0,1,10.72-1.43 c 8.08,0,19.25,3.33,27.33,4.67 s 21,2.75,27.17-1.17 a 28.16,28.16,0,0,0,7.93-6.93 c -1.86-3-4-5.79-6-8.6-4.17-5.92-5.25-9-4.83-14.25 s 4.92-13.67,8.5-19.67 a 52.84,52.84,0,0,0,4.55-11 c 13.67-1.55,20.68-13.94,20.8-25.4.13-11.75-9.25-18-13-20-1.7-.91-3.56-2-5.08-2.86.11-.3.23-.6.32-.91 s .12-.41.17-.61.07-.31.1-.46.09-.49.12-.74,0-.26,0-.39 c 0-.38.06-.77.06-1.17 h 0 a 12,12,0,0,0-16-11.31 c -.53-.11-1-.26-1.51-.41 C 319.07,227.51,324.15,241,316.4,249.38Z" fill="param(main_colour)"/>
  </g>
  <g id="outline">
    <path d="M 264.86,275.5 c 7,13.63,11.78,24.69,15,35.5,3.17,10.64,3.11,21-5.25,29.13,8.26-12.21,5.13-24.39.48-37.35 C 272.23,294.83,267.53,283.52,264.86,275.5Z"/>
    <path d="M 318.71,226.54 l -1.15.55 c .64.78,1.12,1.23,1.53,1.81,2.7-1.15,4.37-3.4,9.95-1.89 C 327,225.63,323.79,224.31,318.71,226.54Z"/>
    <path d="M 319.11,323 s -1.08,8.58,4.75,18.38 c -3-7-3.75-15.87-3.5-18.37 C 320.23,321.63,319.11,323,319.11,323Z"/>
    <path d="M 264,271.93 a 49.5,49.5,0,0,0,8.41,19.16,125.18,125.18,0,0,1-5.32-14.91 h 0 c -2.54-8.6-2.85-19.59-2.88-22.93,0-.41,0-1.11-.1-2 a 12,12,0,0,1,.54-24,7.81,7.81,0,0,1,2,.18,12,12,0,0,1,1.62.38,68.27,68.27,0,0,1,7.12,2.48 c .75.25,1.63.54,2.56.83,0,0-1.09-1.43-2-2.86 l -1.33-.51 a 47.82,47.82,0,0,0-5.16-1.64 A 14,14,0,1,0,262.13,253 C 262.12,253.21,261.58,259.84,264,271.93Z"/>
    <path d="M 330.81,346.58 s .32-.58.69-1.36 c -.54-.89-1.13-1.82-1.79-2.79-6.17-9.17-9.83-13-8.92-20.08.77-5.92,5.19-13.63,8.09-18.78 h 0 a 36.14,36.14,0,0,0,5-11.8 l -2.5.41 a 45.41,45.41,0,0,1-4.49,11.08 c -4.42,7.33-6.8,13.75-7.72,18.75-.83,4.54.95,9.2,3,12.28 l .69,1 c .71.91,1.49,2,2.31,3.12 l .7,1 c 1.58,2.23,3.27,4.74,4.86,7.25Z"/>
    <path d="M 278.88,324.34 c -4.43,8-17.06,15.51-23.1,27.25,1.48-.6,2.61-1,2.61-1 h 0 a 42.23,42.23,0,0,1,4.9-6.38 c 2.18-2.33,7.39-7.09,11.86-12 l .74-.84 c .82-.93,1.6-1.86,2.33-2.78 l .76-1 a 33,33,0,0,0,1.89-2.78 c 0-1.2-.06-2.77-.2-4.51 A 26.68,26.68,0,0,1,278.88,324.34Z"/>
    <path d="M 342.5,246.34 a 181.76,181.76,0,0,1-16.71-9.92 c 1.59,2.21,8.54,7.25,13,9.67,5.21,2.8,11.13,8.07,12.83,14.58,2,7.67,1.29,14.67-4.46,22.17 a 23.28,23.28,0,0,1-15.61,8.47 c -.19.84-.33,1.42-.33,1.43 a 17.87,17.87,0,0,0,7.45-1.15 c 4.38-1.62,14.89-7.68,16.27-20.81 S 350.63,250.4,342.5,246.34Z"/>
    <path d="M 275.9,284.25 c 10.5,12.13,21,14.63,34.13,11.25 C 298.38,302.39,282.36,297.84,275.9,284.25Z"/>
    <path d="M 257.36,351 s 7.25-3.5,24.13.25,30.89,6.29,39.75,2.75 c 8-3.21,10-8.25,10-8.25 l -.87-1 a 20.23,20.23,0,0,1-10,7.88 c -6.87,2.5-14.33,1.67-23.37.25-10.32-1.62-27.37-7.92-38.62-3.37 C 258,350,257.36,351,257.36,351Z"/>
    <path d="M 263,346.88 s 4.83-1.67,15.67.58,25.83,5.83,33.42,5.33 a 27.6,27.6,0,0,0,13.17-4.58 S 318,352,311.63,352.27 c -5.83.21-13.19-1.23-22.77-3.31 S 267.19,344.21,263,346.88Z"/>
    <path d="M 275.92,228.23 s 15.8,18.55,40.32,20.7 c 6.67-8.75,3-18.77,1.33-21.85,1.75.08,2,.67,2,.67 s 5.94,12.88-2.79,22.63 c -14.52-.87-30.52-8.62-42.13-20.58 C 274.77,229,275.92,228.23,275.92,228.23Z"/>
    <path d="M 277.61,235.88 S 292.32,251.46,317.4,252 c 7.25-4.83,5.92-15.08,5.58-18.67.75,4.5,3,13.67-5.27,19.38 C 306.73,253,288.87,249,277.61,235.88Z"/>
  </g>
<script type="text/ecmascript" xlink:href="param.min.js"/> 
</svg>
