<?xml version="1.0"?>
<svg xmlns="http://www.w3.org/2000/svg" xmlns:xlink="http://www.w3.org/1999/xlink" viewBox="0 0 150 150">
  <title>basic-flip-flops</title>
  <g id="skin-tone">
    <path d="M 55.22,99.36 c 1.8-1,6.7-2.88,11-10.81 s 2.11-9.5,3.3-14.44,5-4.62,7.94-4,2.75,5.13,2.69,6.72 A 11,11,0,0,0,82,84 c 5.08,6.67,1.95,10.47-.5,11.33 a 6.16,6.16,0,0,0-2,1.06,6.26,6.26,0,0,1-1.4-.22 c -1.83-.54-9.42-2.42-14.46.54 a 4.67,4.67,0,0,0,.54-2.62 l -1.75,1.54 a 5.71,5.71,0,0,1-.54,3.13 c 3.21-2.38,8.15-2.1,10.72-1.57 a 44.34,44.34,0,0,0,5.84.83,10.91,10.91,0,0,0-.44,2.87 c -.12,2.38-1.55,3.85-3.28,5.08 a 2.75,2.75,0,0,1-4.25,2.31 c -.36.58-2.16,1.15-4.11-.14-2,1.3-3,.36-4.25-.79-3.17,1.19-4.25-1.44-4.25-1.44 a 3.22,3.22,0,0,1-3.1-.36 C 53.05,104.48,53.41,100.37,55.22,99.36Z" fill="param(skin_tone)"/>
  </g>
  <g id="main-colour">
    <path d="M 82.48,96.19 a 10.74,10.74,0,0,1-4.37,0 c -1.83-.54-9.42-2.42-14.46.54 a 4.67,4.67,0,0,0,.54-2.62 l -1.75,1.54 a 5.71,5.71,0,0,1-.54,3.13 c 3.21-2.38,8.15-2.1,10.72-1.57 s 6.48,1.11,7.9.73 A 23,23,0,0,1,82.48,96.19Z" fill="param(main_colour)"/>
    <path d="M 84.9,89.15 s .58,2.83-1.12,4.46-5.29,2-5.08,3.83-.62,7-4.08,8.67 c -.5,2-1.42,3.5-4.08,2.17-1.08.92-3.2,1.08-4.14-.13-.94.84-3.61.88-4.27-1 a 3,3,0,0,1-4.46-1.42 c -1.92.33-3.75-.17-3.87-1.25.08,1.75.83,5.58.83,5.58 s 1.08,2.42,5.63,3.38 a 26.69,26.69,0,0,0,14.93-1.8 c 3.86-1.86,5.48-4.15,6.19-7.2 s .83-4.62,3.17-6,2.79-1.92,2.92-2.87 a 24.69,24.69,0,0,0,0-3.92 A 2.67,2.67,0,0,0,84.9,89.15Z" fill="param(main_colour)"/>
  </g>
  <g id="fixed-colours">
    <path d="M 57,103.42 a 2.32,2.32,0,0,0-.89-2.28,1.47,1.47,0,0,0-2.19,1.3 A 5.16,5.16,0,0,1,57,103.42Z" fill="#fff"/>
    <path d="M 61.15,104.93 a 1.48,1.48,0,0,0-.94-1.61,1.28,1.28,0,0,0-1.66,1 A 4.63,4.63,0,0,1,61.15,104.93Z" fill="#fff"/>
    <path d="M 65.23,106 s -.24-1.18-1.3-1.27 a 1.14,1.14,0,0,0-1.34,1 A 7.69,7.69,0,0,1,65.23,106Z" fill="#fff"/>
    <path d="M 69.17,106.08 s -.24-.94-1.08-.91 a 1.12,1.12,0,0,0-1.15,1 A 5.19,5.19,0,0,1,69.17,106.08Z" fill="#fff"/>
    <path d="M 73,105.89 a 1.45,1.45,0,0,0-1.25-.72 c -.82,0-1.06,1-1.06,1 A 2.83,2.83,0,0,1,73,105.89Z" fill="#fff"/>
  </g>
  <g id="outline">
    <path d="M 70.56,106.35 a 4.3,4.3,0,0,1,2.7-.29 s -.43-1.08-1.33-1 A 1.29,1.29,0,0,0,70.56,106.35Z m 2.23-.65 a 4.41,4.41,0,0,0-1.87.22 A 1.14,1.14,0,0,1,72.8,105.7Z"/>
    <path d="M 58.31,104.48 a 3.71,3.71,0,0,1,2.92.72,1.39,1.39,0,0,0-1-2 A 1.43,1.43,0,0,0,58.31,104.48Z m 2.7.22 a 3.91,3.91,0,0,0-2.27-.54,1.12,1.12,0,0,1,1.37-.65 A 1.16,1.16,0,0,1,61,104.69Z"/>
    <path d="M 62.42,105.88 a 5.62,5.62,0,0,1,2.88.29 A 1.47,1.47,0,0,0,64,104.48,1.36,1.36,0,0,0,62.42,105.88Z m 2.67-.11 a 4.53,4.53,0,0,0-2.31-.22,1,1,0,0,1,1.15-.72 A 1.57,1.57,0,0,1,65.09,105.77Z"/>
    <path d="M 66.78,106.38 a 7.16,7.16,0,0,1,2.56-.11 A 1.31,1.31,0,0,0,68,105,1.25,1.25,0,0,0,66.78,106.38Z M 69,106 a 4.3,4.3,0,0,0-1.95,0,1,1,0,0,1,1-.72 A 1,1,0,0,1,69,106Z"/>
    <path d="M 87.9,91.7v-.09 h 0 a 4.52,4.52,0,0,0-2.54-3.55 c -.88-2.35-2.77-4.35-3.57-6-1.3-2.59.06-4.12,0-7.11 h -.08 c 0-.15,0-.29.07-.45 a 6.76,6.76,0,0,0-7.19-6.29 h 0 a 6.76,6.76,0,0,0-6.27,6.25 h 0 s 0,0,0,.07 a 6.79,6.79,0,0,0,0,.87 h 0 c .08,3,.62,5.22-1.33,10.57-2.16,5.91-8.33,11-10.93,12 a 4.7,4.7,0,0,0-3.31,5,4.6,4.6,0,0,0,.32,1.35 l .89,5.72 a 7.67,7.67,0,0,0,4.63,3.56 A 26.51,26.51,0,0,0,75,112.46 c 6.06-2.69,6.65-6.6,7-8.47 s .69-4,2.63-5.06 c 2.94-1.67,3.25-2.56,3.25-2.56V92.14 A 4,4,0,0,0,87.9,91.7Z m -1.37,2 c -1.37,2.63-5,2.38-6.5,7.38 s -2.5,8.13-9.62,9.63 c -6.68,1.41-14.24,1.05-16.19-4.66 a 3.66,3.66,0,0,0,3.38.64,3.16,3.16,0,0,0,4.61,1.51,2.78,2.78,0,0,0,4.18.72,3.23,3.23,0,0,0,4.11.14 c 2.31,1.59,4.18-.58,4.9-2.38,1.3-.5,4-3,4.14-7.85 a 3.9,3.9,0,0,1,.06-.54,4.47,4.47,0,0,0,1.15-.3,16.56,16.56,0,0,1,3.08-2.37 A 14.87,14.87,0,0,1,82,96 a 5.39,5.39,0,0,0,3.36-3.21,5.88,5.88,0,0,0,.44-2.9 A 3,3,0,0,1,86.53,93.74Z m -25,5.58 s 2.55-2.33,8-2.08 a 73,73,0,0,1,7.78,1 c -.07.92,0,1.9-.19,2.81 A 5.36,5.36,0,0,1,75,104.62 a 3.66,3.66,0,0,1,.51-1.83 c -1.83,1.39-1.06,2.93-1.78,4.28 a 2,2,0,0,1-3.41,0 c -.56-1.18,0-2.07.78-3.25 a 6,6,0,0,0,.83-2.59 c -.32,1.44-1.08,2-1.84,3.21 a 3.12,3.12,0,0,0-.16,3.06,2.26,2.26,0,0,1-3.46-.42,2,2,0,0,1-.2-1.31,6.81,6.81,0,0,1,1.22-2.38,5.77,5.77,0,0,0,1.15-3.31 A 7.2,7.2,0,0,1,67,103.36 c -.77.91-1.82,2.39-1,4.12-1.32.69-3.36.44-3.65-.94-.59-1.47.41-2.79,1.38-4 a 5.71,5.71,0,0,0,1.08-2.88 c -.83,2.41-1.55,2.56-2.56,3.93 a 4.55,4.55,0,0,0-.57,3.17 A 3,3,0,0,1,58.07,105 c -.17-.6-.41-1.71,1.43-3 A 5.62,5.62,0,0,0,61.57,99.32Z m 1.26-3.53 c .39-.31.77-.64,1.12-1 a 8.92,8.92,0,0,1-.71,2.46 c 2.58-1.67,5.42-2.08,9.33-1.79 s 5.42,1.63,9.21,1 l -1.42,1.25 a 14.89,14.89,0,0,1-5.92-.54 c -4-1-8.87-1.25-12.17,1.13 A 6.37,6.37,0,0,0,62.83,95.79Z m 6.49-9.66 c 1.73-4.42,1-10.23,1-11 a 4.74,4.74,0,0,1,4.41-4.86 h 0 a 4.75,4.75,0,0,1,5.05,4.42 s -.29,2.56-.4,3.86 c -.48,5.4,3.44,5.81,4.39,10.14.82,3.71-1,5.11-4,6.12 a 3.21,3.21,0,0,0-1.6,1.09 c -3.67-.79-9.78-2.07-14.06.38 A 4.47,4.47,0,0,0,64.71,94,24.73,24.73,0,0,0,69.31,86.13Z m -13.83,14 c .91-.62,2.62-1.19,5.87-3.29.29-.19.56-.39.83-.59 a 16,16,0,0,1-.49,2.6 c -.79,1.63-1.93,2.24-3.38,3.38 a 3.06,3.06,0,0,0-.91,2.94 A 2.21,2.21,0,0,1,54.62,104 a 4.33,4.33,0,0,1-.39-1.37,4.41,4.41,0,0,1,2.86,1.08,2,2,0,0,0-1-2.85,1.63,1.63,0,0,0-1.45,0 A 3.25,3.25,0,0,1,55.48,100.15Z m -1.17,1.53 a 1.65,1.65,0,0,1,1.73-.41,1.61,1.61,0,0,1,.83,1.77,4,4,0,0,0-2.65-.72 A 2.54,2.54,0,0,1,54.31,101.68Z m 32.63-5.61 c -.62.84-1.33.89-3.42,2.6-3.54,2.92-.94,7-5.62,10.75 s -11.19,4.29-16.25,3.79 S 54.78,110,54.78,110 l -.29-1.48 a 7.74,7.74,0,0,0,3.42,2.66 c 5.63,2.38,14.88.75,18.38-1.75 s 3.63-5.12,4.38-7.25 S 81,98.86,85,96.36 a 7,7,0,0,0,2-1.81Z"/>
  </g>
<script type="text/ecmascript" xlink:href="param.min.js"/> 
</svg>
