<?xml version="1.0"?>
<svg xmlns="http://www.w3.org/2000/svg" xmlns:xlink="http://www.w3.org/1999/xlink" viewBox="0 0 215 215">
  <title>basic-tank-top-slender</title>
  <g id="skin-tone">
    <path d="M 113.92,117.24 a 30.49,30.49,0,0,0-2.45-11.07,4.18,4.18,0,0,0-.57-1.12 l 0,0 h 0 a 4.16,4.16,0,0,0-6-.82 h 0 s -1.55.67-3,4.92-2.16,13.75-2,18.5.46,15.79,2,24.38,2.09,17.3,3,20.36 H 105 a 3.32,3.32,0,0,0,6.56-.46 h 0 a 54.79,54.79,0,0,0-.25-8.23 c -.47-3-1-11.75.4-18.25 S 114.39,124.25,113.92,117.24Z" fill="param(skin_tone)"/>
  </g>
  <g id="outline">
    <path d="M 111.86,159.82 c -.2-5.5.2-10,1.59-18.88 s 3.9-27.12-2.54-35.9 c .2.32,2.19,3.86,2.26,16.28.08,13.08-2.34,21.42-3.18,30.83 a 69.69,69.69,0,0,0,1.55,19.38,3.33,3.33,0,0,1-3.22,3.44 h -.11 a 3.33,3.33,0,0,1-3.33-3.22 c -.11-3-.83-11.47-2.42-21.73-1.37-8.82-2.21-26.79-.87-36 s 3.31-9.88,3.31-9.88 c -5.44,1.78-6.06,16-6,27.55 s 2.23,22.93,3.07,29.17 a 90.88,90.88,0,0,1,.89,10.93,5.31,5.31,0,0,0,5.33,5.16 h .18 a 5.32,5.32,0,0,0,4.75-7.35 A 63.84,63.84,0,0,1,111.86,159.82Z"/>
  </g>
<script type="text/ecmascript" xlink:href="param.min.js"/> 
</svg>
