<?xml version="1.0"?>
<svg xmlns="http://www.w3.org/2000/svg" xmlns:xlink="http://www.w3.org/1999/xlink" viewBox="0 0 600 600">
  <title>one-piece-swimsuit-hourglass</title>
  <g id="skin-tone">
    <g id="skin-tone-2" data-name="skin-tone">
      <path d="M 324.81,336.57 c -4.1-5.85-5.17-8.93-4.76-14.14 s 4.92-13.67,8.5-19.67 A 57.44,57.44,0,0,0,333.62,290 l -.39.11,1-6.84 a 23.16,23.16,0,0,0,6.54-13.88 c .75-8.53-1.83-12.21-3.25-14.29 l -4-5.92-.48.35-.68-1.53 a 11.64,11.64,0,0,0-11.8-19.68v-.38 c -10.71-2.26-13.38-13.35-14.21-20.26-2.16.19-4.35.31-6.56.31 s -4.42-.12-6.6-.31 a 26.62,26.62,0,0,1-3.55,11 c -3.25,5.75-8.25,8.42-14.42,10.25-5.33-2.17-11.92-4-16.83-1.17 s -7.33,8-6.42,14,5.91,9.24,11,10.42 c -.08,8.08,1.5,22.33,4.83,29.25 s 9.33,14.42,11.92,17.92,4.42,9.42,2.92,18.08 l -6,12 c -4,4.67-12.17,10-18.41,19.32 s -5.59,22.44-5.59,22.44 h 0v.1 a 25.5,25.5,0,0,0,45.14,16.26,25.51,25.51,0,0,0,37.88-30.14 c -.49-7.77-10.86-20.7-10.86-20.7Z" fill="#f9d9c7"/>
    </g>
  </g>
  <g id="main-colour">
    <path d="M 263.5,262.25 A 23.61,23.61,0,0,0,277,247 c 3.5-11.75-.25-18.62-.25-18.62 l 3.5-1.12 A 59.05,59.05,0,0,0,290.75,243 c 7.13,7.63,13.88,11.75,22.38,8.75 s 8.38-13.87,6-24.25 a 6.16,6.16,0,0,1,3-1.12 s 3.5,8.88,6.25,14.63,6.13,9.5,9,13.75,8.88,13.75-2.62,28.13 c -1,5.38-2,11.63-5.25,17.75 S 320.75,315.88,320,322 s 1,9,3.38,12.38,5.88,8.5,5.88,8.5-4.62,1.5-8.62,11.63 a 124.93,124.93,0,0,0-6.37,20.63 c -.87,4-4.5,12.5-15.37,12.75,4.75-6.5,7.13-13.62,5.25-21.5 s -6.87-17.12-18.87-20.87-22.69-1.37-24.87.38 c 5.5-6.25,12.5-12.37,16.38-16.87 s 8.75-14.75,5.38-25-7-7.62-13.87-22.12 C 265,275,263.62,264,263.5,262.25Z" fill="param(main_colour)"/>
  </g>
  <g id="outline">
    <path d="M 337.7,253.44 c -4.63-5.72-9.9-12.34-11.9-17 a 68,68,0,0,0,8.51,15.42 c 8.23,11,7,17.79,3,25.75 a 19.19,19.19,0,0,1-4.08,5.44 c -.15,1.2-.28,2.17-.29,2.25 A 24.08,24.08,0,0,0,342,271.72,21,21,0,0,0,337.7,253.44Z"/>
    <path d="M 287.09,288.2 c 7.12.34,13.78-.82,20.78-6.32 C 304.11,288.81,294.11,291.43,287.09,288.2Z"/>
    <path d="M 322.17,225.48 a 9.74,9.74,0,0,0-3.45,1.06 l -.9.39 c .21.74.49,1.61.61,2.08,1.34-.57,2.59-1.44,4.2-2Z"/>
    <path d="M 275.33,227.63 a 24.92,24.92,0,0,1,1.53,17.25 c -2.58,9-8.33,15.42-14.42,16.83.06,1,.17,1.83.17,1.83 s 11.58-2.67,16-18.42 c 2-7.13,0-15.5-1.62-17.87 C 276.23,227.38,275.33,227.63,275.33,227.63Z"/>
    <path d="M 280.69,225.88 s 7.81,16,16.81,22.42,27.88,6.21,20.32-21.36 c .9-.39,1.54-.72,1.54-.72 s 4.26,15.54-.49,22 c -6.36,8.71-18.2,4.78-22.87,1 a 59.31,59.31,0,0,1-16.89-22.75 C 279.77,226.3,280.69,225.88,280.69,225.88Z"/>
    <path d="M 329.5,244.38 a 87.56,87.56,0,0,1-4.21-8.17 c -2.06-4.8-4-10.58-4-10.58 l 1.38-.25 s 1.19,3.85,2.38,6.56 a 110,110,0,0,0,8,15.38,21.62,21.62,0,0,0,2.55,3.52 l -2.72-1.13 S 330.87,246.88,329.5,244.38Z"/>
    <path d="M 275.33,227.63 a 31.66,31.66,0,0,0,5.36-1.75 l .48,1.71 a 19.67,19.67,0,0,1-4.88,1.56 A 4.77,4.77,0,0,0,275.33,227.63Z"/>
    <path d="M 327.61,305.88 c 3.08-5.5,6.25-10.42,7.83-22.5q.13-1,.25-1.94 L 333,285.28 a 64,64,0,0,1-1.53,7.93 c -2.25,8.33-5.08,10.42-9,18.83 S 318.27,325.88,320,330 s 7.33,11,8.08,12.58 c -3.83,1.42-7.42,8.75-8.92,13.17 a 169.75,169.75,0,0,0-5,16.5 c -1.5,6.42-3.5,13.17-13.75,14.92,4.17-6.25,6.67-14,4-23.08 s -8-15.33-18.33-18.92-16.08-2.67-23.33-.75 c 5-5.08,9.33-8.92,12.75-12.67 s 8.5-9.33,8.83-18.83-2.83-12.92-6.5-17.75-8.75-11.75-10.75-18.58 a 87,87,0,0,1-2.67-14.67 l -2-.17 s .75,10.33,3.5,17.5 a 58.89,58.89,0,0,0,8.33,14.33,93.79,93.79,0,0,1,5.52,7.71 c 1.44,2.56,3.88,8.25,1.69,16.44 s -6.5,11.88-10.37,15.75-10.75,10.35-12.92,14.19 c 10.58-4.5,20-4.08,29.83-.08 a 25.15,25.15,0,0,1,15,17.08 c 1.5,5.25,2.17,15-6.08,24.25,4.42,0,12-1.58,14.75-6.17 s 3.83-9.83,4.5-12.33,6.5-25,14-27.25 c 0,0-3.25-4.75-5.33-7.83 s -4.92-7.33-4.08-12.92 S 324.52,311.38,327.61,305.88Z"/>
    <path d="M 260.13,252.46 a 14,14,0,0,0,2,.54,57.47,57.47,0,0,0,.38,9.49 l 2.07-.73 c -.33-3.82-.4-7-.42-8.54 a 17,17,0,0,0-.1-2,12,12,0,0,1,.54-24,7.81,7.81,0,0,1,2,.18,12,12,0,0,1,1.62.38,68.26,68.26,0,0,1,7.12,2.48 c 1,.33,1.92.64,2.88.93 L 278,229 a 21.35,21.35,0,0,0,11.69-8.45,27.22,27.22,0,0,0,4.47-12.86 c -.71,0-1.42-.1-2.12-.17 a 23.65,23.65,0,0,1-5.85,14.28,19.43,19.43,0,0,1-11.63,5.88 A 47.82,47.82,0,0,0,269.4,226 a 14,14,0,1,0-9.27,26.42Z"/>
    <path d="M 283.28,232.52 l .41.1 a 45.44,45.44,0,0,0,15.17.32,54,54,0,0,1-16.69-2.53Z"/>
    <path d="M 297.86,387.49 A 25.49,25.49,0,0,1,252.92,368 s -.44-4.85,2.92-12.72 a 42.13,42.13,0,0,1,7-10.5 l -3,.53 a 39.55,39.55,0,0,0-4.34,6.82,41.22,41.22,0,0,0-4.07,13,27.47,27.47,0,0,0,47.5,24.11 c 2.59-.47,7.87-1.79,11.69-5.06,0,0-6.36,3.26-12.66,3.26Z"/>
    <path d="M 318.66,226.53 a 13.57,13.57,0,0,1-8.33-7.28,32.56,32.56,0,0,1-2.86-11.7 c -.75.08-1.51.13-2.26.18.29,3.66,1.23,10.58,4.2,14.44 s 5.87,5.24,7.09,5.6 c -.27.19-.54.39-.8.6 a 45.8,45.8,0,0,1-4.92,2.38 l 3.08-.58 a 33.59,33.59,0,0,0,4.13-1 c 2.93-1.08,5.23-3.74,11-2.17 C 326.92,225.63,323.75,224.3,318.66,226.53Z"/>
    <path d="M 329.74,342.53 l -1.31.5 c 3.3,4.94,6.62,10.39,8.13,14 C 336.56,357,335.81,351.61,329.74,342.53Z"/>
    <path d="M 309.48,252.49 l 1.11-.22 a 30.12,30.12,0,0,0-3.81-4.68 A 31.58,31.58,0,0,1,309.48,252.49Z"/>
  </g>
<script type="text/ecmascript" xlink:href="param.min.js"/> 
</svg>
