<?xml version="1.0"?>
<svg xmlns="http://www.w3.org/2000/svg" xmlns:xlink="http://www.w3.org/1999/xlink" viewBox="0 0 600 600">
  <title>basic-tank-top-voluptuous</title>
  <g id="main-colour">
    <path d="M 340.81,297.47 c -.62-4.87,3.88-17.5,6-27 a 32.91,32.91,0,0,0,.81-8.41,29,29,0,0,0-5.25-9.69 c -2.37-2.5-5-4.25-7.62-10.62-1.77-4.29-2.34-11.14-2.53-15.15 a 32.21,32.21,0,0,0-5.68,1.11 c 2.17,21.17-3.83,30.78-15.83,30.83-20.25.08-24.8-18.25-27.33-23.5 a 88.55,88.55,0,0,0-5.83-10.75 l -.05-.07 a 9.19,9.19,0,0,1-5.11,3.15 c 3,2.88,8.13,12.75,6,22.75 s -8.75,19.38-19.62,22.38 c -5.65,1.56-9.77,1.16-12.44.41 a 111.54,111.54,0,0,0,4,15.56 c 3.38,10.88.5,15.5-3.37,21.38 S 235.69,328,231.94,340 c -.32,1-.62,2.1-.9,3.2,5.07-.81,13.11-1.62,19.57,0,10.25,2.5,27,9.5,41.25,12 s 34.75,2.75,49.25-3.5 a 88.94,88.94,0,0,0,17.14-9.88 c -1.33-9.58-4-19.94-9.17-28.38 C 345.34,307.26,341.44,302.35,340.81,297.47Z" fill="param(main_colour)"/>
  </g>
  <g id="outline">
    <path d="M 232,344 s 11.17-4.17,34.83,5,63.33,17,91.67-6.5 c 0-.83-.17-2.42-.17-2.42 s -14.83,13.08-34.67,15.08 S 289.52,355,272.52,349 s -29.67-10.33-40.5-6.83 A 5.64,5.64,0,0,0,232,344Z"/>
    <path d="M 238.86,338.5 s 5.25-2.37,28.13,5.88,36.13,9.25,48.38,9,26.13-4.87,33.88-10.25 c -6.87,3.13-20.5,9.25-34,9.13 s -22.62-.75-37.87-5.62 S 244.11,335.13,238.86,338.5Z"/>
    <path d="M 251.19,286.56 a 67,67,0,0,1-3.66-13.65,22.07,22.07,0,0,1-2.56-.58,40.86,40.86,0,0,0,1.47,7 c 3.83,12.33,8.19,18.93,0,29.83 a 84.46,84.46,0,0,0-15.86,35.09 c 1-.21,1.91-.39,2.57-.5 h 0 a 82.53,82.53,0,0,1,4.16-14 c 4.5-10.17,8.79-16.58,13-23.08 a 17,17,0,0,0,2.16-5 A 175.88,175.88,0,0,1,254,322.88 a 74.72,74.72,0,0,0-1.88-33.38 C 251.84,288.46,251.53,287.47,251.19,286.56Z"/>
    <path d="M 340.53,251.53 c 6.26,6.42,7.32,14.59,5.33,21.76 h 0 c -.81,2-2,5.54-2.65,7.78 l 0,0 c -.69,2.32-1.37,4.36-1.92,5.86-2.5,6.83-3,12.17,2.83,20.67,8.09,10,11.95,23.44,13.75,35.47v0 l 1.67-1.37 c -3.66-25.13-14-35.92-15.88-39.3-2.8-5-1.88-8.61,1-19.11.4-1.5.81-3,1.21-4.39 a 26,26,0,0,0,3-7,20.27,20.27,0,0,0-.93-12.51 s -1-2.16-1.22-2.55 a 33.72,33.72,0,0,0-2.17-3.22,75.67,75.67,0,0,0-9.33-9.05,16.21,16.21,0,0,0,3,4.79Z"/>
    <path d="M 273.2,282.71 c 4.42,6.17,12.93,9.28,19.33,5.83 C 285.17,289.88,279.7,287.38,273.2,282.71Z"/>
    <path d="M 271.15,226.83 s 5.56,6.91,6.45,14.55 c 1.17,10-2.14,22.18-15.17,28.75 a 22.2,22.2,0,0,1-17.58,1.08 l .25,2.33 s 8.9,2.92,19.33-2.5 c 10.58-5.5,23.26-24.07,9.14-43.45 C 272.7,227.35,271.15,226.83,271.15,226.83Z"/>
    <path d="M 276.94,224.88 a 173.68,173.68,0,0,1,8.75,17.42 c 4.75,10.75,12.79,16.83,24.42,17,23.16.33,17.13-32.54,17.13-32.54 l -1.5.38 s 4.29,29-12.87,30.5 c -24.67,2.16-25.75-22.12-35.37-34.75 A 4.58,4.58,0,0,0,276.94,224.88Z"/>
    <path d="M 331.36,226.05 a 5.35,5.35,0,0,1,1.7.11 s -.56,14,5.89,21.72 l -2.33-.58 a 35.86,35.86,0,0,1-4.58-13 C 331.63,231.67,331.36,226.05,331.36,226.05Z"/>
    <path d="M 325.73,227.13 s 4.13-1.69,7.33-1 c 0,.34-.23,1.44-.23,1.44 s -4.22-.41-6.53,1 A 12.09,12.09,0,0,0,325.73,227.13Z"/>
    <path d="M 271.15,226.83 a 8,8,0,0,0,6.33-4 c 0,.79,0,2.46,0,2.46 s -2.37,2.33-4.87,2.5 A 16,16,0,0,1,271.15,226.83Z"/>
  </g>
<script type="text/ecmascript" xlink:href="param.min.js"/> 
</svg>
