<?xml version="1.0"?>
<svg xmlns="http://www.w3.org/2000/svg" xmlns:xlink="http://www.w3.org/1999/xlink" viewBox="0 0 215 215">
  <title>nurse-voluptuous</title>
  <g id="skin-tone">
    <g id="skin-tone-2" data-name="skin-tone">
      <path d="M 85.3,135.36 a 83.57,83.57,0,0,0,2.39,18.21 c 4.07,16.49,10.35,28.88,12.65,31.57 s 7.73,5.27,12.3,2.71,5.4-6.11,6.31-13.35,1.95-25.65,2.35-32.06 c .1-1.59.25-3.82.43-6.28 A 103,103,0,0,0,85.3,135.36Z" fill="param(skin_tone)"/>
    </g>
  </g>
  <g id="main-colour">
    <g id="main-colour-2" data-name="main-colour">
      <path d="M 89.71,106 C 88.21,110.3,80,135.38,79,137 c 1.33,2.17,6.42,3.33,6.42,3.33 l -.08-4.75 a 99.5,99.5,0,0,1,20.42-1.42,138,138,0,0,1,16,1.75 c -.18,1.15-.33,4.25-.33,4.25 s 5.75-1.08,6.92-2.75 c -.92-4-4.89-14.37-4.39-24.47 l .67-6.08 c .1-9.16-7.91-16.21-17.06-16.31-7-.08-13.31,3.83-15.81,9.94Z" fill="param(main_colour)"/>
    </g>
  </g>
  <g id="fixed-colours">
    <path d="M 83.26,126.7 s 11.08-3.75,20.83-3.42,16.17,2.17,21,4.75 c .75,2.17.92,2.92.92,2.92 s -11.42-4.67-22.58-4.25 a 111.46,111.46,0,0,0-21.33,3.08Z" fill="#fff"/>
  </g>
  <g id="outline">
    <path d="M 125.77,124 c -.28-1-.69-3.57-1.06-6.17-.22-3.91,1.29-7.31,1.29-10.53 a 18.44,18.44,0,0,0-35.89-5.94 s -1.36,4-2.23,6.44 a 4.76,4.76,0,0,0-.14.46 c -.88,2.47-2.64,7.2-3.24,9.11-.75,2.38-3.56,13.88-6.62,19.81 a 13.52,13.52,0,0,0,6.33,3.51,84,84,0,0,0,2.39,13.73,131.84,131.84,0,0,0,11.55,29.19,11.08,11.08,0,0,0,20.83-2.3 c 0-.24.09-.48.13-.72 A 139.49,139.49,0,0,0,121,166 c .13-3.69.81-16,1.3-25.15,1.53-.43,5.48-1.69,7.14-3.22 C 127.61,135.21,126.44,126.46,125.77,124Z m -42.27,3 c 1.14-.38,24-7.8,41.62,1.54.12.53.24,1.07.37,1.6-3.37-1.59-18.85-7.8-42.63-1.12Q83.18,128.07,83.5,127.05Z m 3.25-10.69 C 88.35,111.57,90,107,90,107 l 0-.16 c .64-1.64,1.29-3.18,2-5 a 16.67,16.67,0,0,1,15.51-11 A 16.44,16.44,0,0,1,124,107.35 c -.25,2.94-1.11,4.69-1,8 a 10.52,10.52,0,0,0,.15,1.36 c .2,1.82.59,5,.94,7,.18,1,.38,2,.6,3-2.79-1.32-19.23-8.31-40.78-1,1.11-3.64,2.12-7.18,2.85-9.36Z m -6.3,21.18 h 0q1.67-.54,3.49-.94.05,1.34.15,2.72 A 12.77,12.77,0,0,1,80.45,137.54Z m 38.31,28.71 h 0 c -.19,3.22-.47,6.25-.8,8.83-.21,1.63-.53,3.47-.77,4.74 a 4.07,4.07,0,0,1-.1.7 c 0,.23-.13.59-.19.85 A 9.08,9.08,0,0,1,100,183 l -.15-.24 c -1.73-2.89-9.63-20-12-32.74 a 103.17,103.17,0,0,1-1.53-13.87 c 11.5-1.95,25.84-.55,34.23.62 C 120.11,145.36,119,161.51,118.76,166.25Z M 80.37,135.94 c .67-1.52,1.38-3.48,2.08-5.6,3.66-1.14,22.89-6.43,43.37,1.11.44,1.68.91,3.35,1.43,5 C 101.35,130.45,84.45,134.7,80.37,135.94Z m 42,3.55.13-2.46 c 1.93.28,3.39.54,4.24.69 A 23,23,0,0,1,122.38,139.49Z"/>
  </g>
<script type="text/ecmascript" xlink:href="param.min.js"/> 
</svg>
