<?xml version="1.0"?>
<svg xmlns="http://www.w3.org/2000/svg" xmlns:xlink="http://www.w3.org/1999/xlink" viewBox="0 0 600 600">
  <title>one-piece-swimsuit-voluptuous</title>
  <g id="skin-tone">
    <g id="skin-tone-2" data-name="skin-tone">
      <path d="M 239.81,321.84 A 107.54,107.54,0,0,0,231.94,340 a 56.16,56.16,0,0,0-2.41,23.67 c -.59,10.54.21,21.65,3.91,29.75,8.77,16.25,24.06,22.91,39.56,21.75 s 24.93-12.78,24.93-12.78 l .48-.25 A 38.43,38.43,0,0,0,359,370.72 s 2.52-25.17-4.86-46.31 h 0 c -.05-.15-.11-.3-.17-.45v-.12 h 0 a 56.78,56.78,0,0,0-4.91-10.46 c -3.74-6.12-7.64-11-8.26-15.9 a 22.77,22.77,0,0,1,.76-6.81 A 18.78,18.78,0,0,0,348,287.3 a 25.93,25.93,0,0,0,9.33-19.17,24,24,0,0,0-8.67-18.92,16.13,16.13,0,0,0-11.7-21.38v-.39 c -2.24-1.41-6.76-.84-11.76.54-5.58-6-6.4-19.35-6.49-22.47 a 73.37,73.37,0,0,1-37.1.21 c .06,2.13.07,4.29,0,6.29-.37,8.5-6.12,17.25-6.12,17.25 s -7.75-2.87-14.5-3.12-13.12,4.13-15.87,9.63-2.75,12.13,1.5,18.75 c -2.5,13.63.38,23.13,3.75,34 s .5,15.5-3.37,21.38Z" fill="#f9d9c7"/>
    </g>
  </g>
  <g id="main-colour">
    <path d="M 232.15,343 a 105.68,105.68,0,0,1,9.38-24.25 c 6.38-11.37,11.38-14.5,10.25-23.75 s -4.75-16.62-5.62-22.37 c 5.38,1,16.88,2.25,26.63-10 s 5.62-27.71-.13-34.79 a 19.92,19.92,0,0,0,5-3.71 s 4.13,6.63,8.5,14 S 294,251,303.15,255 s 18.13,3.13,21.75.25,5.75-12.25,1.88-27.62 a 15.79,15.79,0,0,1,5.5-1 s 0,9,3.75,13.88,10.75,6.25,15.25,11.38,9.25,14.75,3.25,27.63 c -4.12,7.25-11,10.75-12.87,11.13-.62,6.25-1,8.38,1.5,12.5 s 12,17.25,13.25,27.5 c -10.12-.25-15.12,1.25-23.87,9.63 S 323.65,357,322,362.5 s -6.75,26.13-15,23.63 c 2.63-14.37.75-22.62-4.37-31.25 s -18.25-19.87-42.5-20 C 250.15,335.13,237.65,338.88,232.15,343Z" fill="param(main_colour)"/>
  </g>
  <g id="outline">
    <path d="M 271.15,226.83 s 5.56,6.91,6.45,14.55 c 1.17,10-2.14,22.18-15.17,28.75 a 22.2,22.2,0,0,1-17.58,1.08 l .25,2.33 s 8.9,2.92,19.33-2.5 c 10.58-5.5,23.26-24.07,9.14-43.45 C 272.7,227.35,271.15,226.83,271.15,226.83Z"/>
    <path d="M 276.94,224.88 s 4.47,6.67,10.21,17.17 c 5.83,10.67,19,18,32,16.42,18.28-2.28,8.08-31.71,8.08-31.71 l -1.5.38 s 8.7,28.26-6.83,29.58 c -26.42,2.25-31.58-21.58-41.42-33.83 A 4.58,4.58,0,0,0,276.94,224.88Z"/>
    <path d="M 331.36,226.05 a 5.35,5.35,0,0,1,1.7.11 s -.72,12.72,7.06,17.25 l -.5,1.31 a 17.85,17.85,0,0,1-7.35-11.29 C 331.77,230.84,331.36,226.05,331.36,226.05Z"/>
    <path d="M 325.73,227.13 s 4.13-1.69,7.33-1 c 0,.34-.23,1.44-.23,1.44 s -4.22-.41-6.53,1 A 12.09,12.09,0,0,0,325.73,227.13Z"/>
    <path d="M 271.15,226.83 a 8,8,0,0,0,6.33-4 c 0,.79,0,2.46,0,2.46 s -2.37,2.33-4.87,2.5 A 16,16,0,0,1,271.15,226.83Z"/>
    <path d="M 348.61,309.75 c -5.75-8.75-6.75-9.25-6.62-14 a 32.1,32.1,0,0,1,.79-5.43 c -.59.26-1.34.56-2.14.82-1.34,6.56-.39,8.88.86,11.48,1.63,3.38,10.5,13.75,13.88,27-8.5-1.62-24,5-30.12,19.5 s -8,35.75-17,36.25 c 4.13-19.75-3.5-30.37-10.12-37.75 s -31.75-22.87-64.5-6.25 c 2.25-11.37,9-22.37,13.75-30 s 6.63-10.5,5.38-18.25-4.37-13.12-5.25-19.87 a 8.83,8.83,0,0,1-2.62-2,41.66,41.66,0,0,0,2,9.42 c 1.75,5.33,4.75,12.67,4.17,17.75 a 23,23,0,0,1-5.42,11.83 c -2.25,2.75-12.67,18.5-15.33,35.58,15.08-12.25,43.17-12.08,56.83-3.92 s 19,19.83,20.08,29.17 a 39.38,39.38,0,0,1-1.33,16.17 s 6.25,1.29,9.88-5.33,6.5-16.75,7.63-21.87,5-16.5,15.25-23.25,19.25-5.25,19.25-5.25 S 354.36,318.5,348.61,309.75Z"/>
    <path d="M 265.09,277.64 c 3,15.07,16.51,23.26,30,19.9 C 282.73,297.21,272.29,293,265.09,277.64Z"/>
    <path d="M 345.92,246.52 c -2.85-1.4-5.88-3.12-8.57-4.74 l 2.27,2.95 h 0 c .93.58,1.82,1.1,2.63,1.54,5.21,2.8,11.13,8.07,12.83,14.58,2,7.67,1.29,14.67-4.46,22.17 a 21.89,21.89,0,0,1-9.78,7 c -.21,1-.4,2-.44,2.2 h 0 l 2.11-.63 c 4.57-1.82,14.54-7.89,15.87-20.65 C 359.77,257.83,352.78,249.88,345.92,246.52Z"/>
    <path d="M 245,272.68 l 2.59.41 a 60.83,60.83,0,0,1-.06-17.57 l .2-1.67 a 16.56,16.56,0,0,1,13.1-26.72 h 1.43 l 1,.07 h .12 a 50,50,0,0,1,10.93,2.54 c -.43-.78-.89-1.57-1.33-2.32 a 50.4,50.4,0,0,0-9.34-2.12,18.48,18.48,0,0,0-2.19-.21 h -.69 a 18.6,18.6,0,0,0-18.58,18.55,18.41,18.41,0,0,0,3.34,10.57 A 62.91,62.91,0,0,0,245,272.68Z"/>
    <path d="M 306.27,385.49 a 38.62,38.62,0,0,1-23.79,26.45,39.63,39.63,0,0,1-20,1.91,38.44,38.44,0,0,1-15-6 A 38,38,0,0,1,236,395.71,39,39,0,0,1,230.85,381 c -.64-5-.34-10.16-.19-15.19q0-1.51.09-3 l -.06.17 a 127.94,127.94,0,0,1,2.76-20.58,15.64,15.64,0,0,0-2.5,1.22 c -.68.52-.7,2.36-.85,3.24-.36,2.14-.64,4.3-.87,6.46-.41,4-.59,8-.67,11.94-.15,8-.49,16,2.09,23.66 a 40.67,40.67,0,0,0,19.54,22.95,40.11,40.11,0,0,0,20.48,4.48,39.54,39.54,0,0,0,21.44-7.3,42.66,42.66,0,0,0,7.76-7.11,39.49,39.49,0,0,0,6-9.63q.56-1.26,1-2.55.24-.65.45-1.3 a 4.52,4.52,0,0,1,.21-.66 c .2-.37.12-.25.54-.4 a 15.07,15.07,0,0,0,4.47-1.9,10.62,10.62,0,0,0,3.09-3.58 A 14.2,14.2,0,0,1,306.27,385.49Z"/>
    <path d="M 282.53,232.47 c 3.48.87,7.75,1.39,11.48.26-3.76.06-7.73-.76-12.81-2.44 C 281.66,231,282.11,231.77,282.53,232.47Z"/>
    <path d="M 278.52,226.09 A 39.82,39.82,0,0,0,282.76,206q-1.13-.27-2.25-.57 a 4,4,0,0,0,.06.83 A 36.3,36.3,0,0,1,277,223.8Z"/>
    <path d="M 332.33,227.26 a 20.18,20.18,0,0,1,4.62.18,10.59,10.59,0,0,0-4.71-1.37Z"/>
    <path d="M 357.42,330.22 c -.84,0-1.61,0-2.31,0,5.76,20.43,3.89,41.64,3.89,41.64,1.9-.54,1.9-3.71,1.9-12.16 A 114.39,114.39,0,0,0,357.42,330.22Z"/>
    <path d="M 325.64,227.18 c -1.49-1.81-5.87-8.27-5.88-22q-1,.29-2,.54 c 0,5.66.78,16.48,6.08,22.26 l -.38.21 c -3,1.75-9.8,4.17-13.55,4.5,3.83.58,11.08-1.83,16.5-4.08 l .55-.2-.35-1.57 C 326.27,226.95,325.95,227.06,325.64,227.18Z"/>
    <path d="M 308.72,243.89 a 38.14,38.14,0,0,1,10.21,13.71,20.38,20.38,0,0,0,2.09-.42 A 34.57,34.57,0,0,0,308.72,243.89Z"/>
  </g>
<script type="text/ecmascript" xlink:href="param.min.js"/> 
</svg>
