<?xml version="1.0"?>
<svg xmlns="http://www.w3.org/2000/svg" xmlns:xlink="http://www.w3.org/1999/xlink" viewBox="0 0 600 600">
  <title>city-classic-top-slender</title>
  <g id="main-colour">
    <path d="M 330.94,283.73 c 9.86-1.89,12.63-14,12.86-19.19.25-5.5-4.25-10.92-8.08-15 l -4.66-5 a 11.19,11.19,0,0,0-14.78-15.95 c -.38-.13-2-1.53-3.14-2.43.71,1.07,1.25,2.33,2.13,3.43,5.61,7,9.86,18.33,9.36,29.5 s -4.24,20-8.85,29.67 c -.35-13.29-3.8-25.42-11.15-34.17-4.82-5.74-12.6-11.17-15.35-18.75 A 29.15,29.15,0,0,1,288,224.37 a 22.13,22.13,0,0,1-6.14,4.56 c -7.45-6.36-19.55-1.14-20,7.95 s 6,12.33,9.33,13.42 c -1.25,5.92,1.33,21,3.17,27.5 s 6.92,19.67,9.08,28.08-1.32,17.33-11.66,30.5 c -6.82,8.68-9.38,14.26-11.33,20.67,5,3.5,16.81,5,28.08,2.58,10.88-3,18.88-7.87,23-15.25,3.83,4.76,12.41,9.46,22.42,13,.13-1.53-1.86-5.77-5.64-12-4.86-8-5.28-12.7-5.44-21.12 s 1.82-20.63,3.91-27.88 C 327.78,293.13,329.12,288.84,330.94,283.73Z" fill="param(main_colour)"/>
  </g>
  <g id="accent-colour-1">
    <path d="M 289.44,223.21 s -.83,8.08,7.17,14.58 S 311,245.21,311,245.21 s 3.8-7.75-.95-20.83 c 2.08,1.17,7.86,6.17,11.53,16.58,3.58,10.16,3.83,19,2,27.33 s -6.35,18.25-7.26,19.33 a 92.28,92.28,0,0,0-5.5-22.92 c -3.08-7.75-8.32-12.53-13.43-17.67-6.3-6.33-9.5-10.58-9.33-22.42 C 288.61,224,289.44,223.21,289.44,223.21Z" fill="param(accent_colour_1)"/>
  </g>
  <g id="accent-colour-2">
    <path d="M 285.4,227.21 l 2.64-2.84 s -.9,9.67,3.6,15.76,5.45,6.62,10.08,11.25 a 43.18,43.18,0,0,1,10.92,17.42,62.13,62.13,0,0,1,2.75,16.67 s -3.67-8.67-8.42-13.83 c -6-6.55-8.32-7.83-10.9-8.5 a 81.53,81.53,0,0,1,3.5-8.58 s -7.17-1.5-11.5-4.17 a 136.44,136.44,0,0,1-2.58-20.83Z" fill="param(accent_colour_2)"/>
    <path d="M 313.73,227.21 s 10.58,8.25,16.42,16.42 c -1,3.75-2.43,7.83-2.43,7.83 a 30.43,30.43,0,0,1,4,7 c -2.67,13.17-8.33,22.5-15.5,29.75,3.58-8.42,8.58-18.08,8.42-29.33-.18-12.31-2.5-17.5-5-22.25Z" fill="param(accent_colour_2)"/>
    <path d="M 283.15,319 s 1.58,1.67,8.83,2.33 c -1.5,6.17-3.75,12-8.42,12.58 s -6.67-1.75-7.08-3.25Z" fill="param(accent_colour_2)"/>
    <path d="M 319.82,322 l 2.42-1,1.08,12.42 S 319.57,333.63,319.82,322Z" fill="param(accent_colour_2)"/>
  </g>
  <g id="outline">
    <path d="M 336.14,249.13 c -2.11-2-4-4.06-5.51-5.7v-.05 a 132.12,132.12,0,0,0-14.12-14.81 c 3.29-1.53,6.19-1.82,8.94-.69-1.08-1.33-4.33-2.42-6.67-2.17 a 10.66,10.66,0,0,0-4,1.39,23.32,23.32,0,0,0-5.61-3.81 c 1.92,8.42,4.08,14.29,1.58,21-6.08-2.17-21.92-8-20.83-22.71 l -5.25,5.08v.07 a 11.5,11.5,0,0,1-3,1,13.08,13.08,0,0,0-7.77-2.55 A 13.19,13.19,0,0,0,269.92,251 a 110.9,110.9,0,0,0,1.34,17.75 c 2.5,15,9.62,27.5,11.46,40.33 a 18.31,18.31,0,0,1,.15,3.21 h 0 c -.24,6.72-5.5,16.75-10.56,22 s -10.94,16.63-12.94,23.63 c 10.13,6.63,39.88,5.88,52.88-11.75,5.88,7,23.38,12.38,23.38,12.38 s -2.62-8.62-6.12-13.62-4.54-9.77-5.2-15 a 67.78,67.78,0,0,1,.17-11.09 c 1-11,4.72-23.5,7.57-35 a 17.86,17.86,0,0,0,12.72-13.53 C 347,259.53,341,253.7,336.14,249.13Z m -7.08-5.33 c -.08,2.5-2.18,7.75-2.18,7.75 a 60.76,60.76,0,0,1,4.17,6.92 c -1.24,8.26-6.14,18.13-13.35,27.56,4.75-11.1,9.46-20.52,6.7-37.14 A 44.16,44.16,0,0,0,316,230.07 C 320.18,233.86,325.86,239.38,329.05,243.79Z m -10.78-8.43 c 4.66,8,7.29,21.19,5,31.89 A 82.71,82.71,0,0,1,318.93,281 c 2.37-7.71,4.24-21.67-6.62-34.61 a 36.53,36.53,0,0,1,7.83,1.26 C 321,243.52,319.93,239.13,318.27,235.37Z m -6.89,11.13 c 2.35,2.8,13.42,17.59,4.85,39 a 68.64,68.64,0,0,0-5.95-23.88,31.78,31.78,0,0,0-5.85-8.15Z M 311,225.63 c 10.08,12.88,8.1,20.63,8.1,20.63 s -4.59-.64-7.59-1.34 C 315.78,236.46,311,225.63,311,225.63Z m -.79,20.14 a 47,47,0,0,1-6.64,6.83 c -4.2-4.35-9-8.41-11.9-13-3.41-5.38-3.36-12.13-3.19-14.77 a 2,2,0,0,1,.35-.15 S 287.3,238.34,310.25,245.77Z M 286,227.46 a 9.76,9.76,0,0,1,1.41-1.79 c 0,2.07.17,8.93,2.48,13.2,2,3.75,6.19,7.75,8.61,10.17 S 307.37,257,311,267.13 a 90.83,90.83,0,0,1,4,16.45 c -2.11-5.55-7.12-15.18-17.74-21 a 58.37,58.37,0,0,1,3.58-8.42 s -8.25-1.92-12.08-4.25 C 287.29,244.71,286,231,286,227.46Z m -4.4,96.83 a 46.61,46.61,0,0,0,8.21,2 c -2.56,6.57-6.81,7.7-9.22,7 a 6.58,6.58,0,0,1-3.39-2.49 A 62.72,62.72,0,0,0,281.64,324.29Z m 8.66.73 a 28.15,28.15,0,0,1-8.11-1.72,30.16,30.16,0,0,0,1.5-3.21,27.46,27.46,0,0,0,7.44,1.79 A 28.53,28.53,0,0,1,290.3,325Z m -1.18,33.74 c -11.62,3.25-24.75-.12-27.12-2.25,3.25-8.5,4.88-12.5,11.25-20.62,1.06-1.35,2.09-2.65,3.07-3.92 a 6.76,6.76,0,0,0,3.81,2.67 c 7.25,2,11.63-6.12,12.75-14 a 15.77,15.77,0,0,1-8.72-1.84,23.65,23.65,0,0,0,1.16-5.92 h 0 c 0-.06,0-.11,0-.17 s 0-.29,0-.45 h 0 c .09-3-.48-5.88-1.6-10.08-2.17-8.12-6.86-18.78-9.46-29.28-2.12-8.56-2-18.12-1.85-21.36 h 0 c 0-.22,0-.59,0-1v-.2 h 0 c 0-.46,0-.86,0-.86 h 0 a 11.2,11.2,0,1,1,7.7-20.44 h 0 l 1.37.75 a 8.27,8.27,0,0,0,1.49-.1 l .12,0,.6-.14,0,0 a 11.06,11.06,0,0,0,1.13-.46,215.36,215.36,0,0,0,2.54,22.16,54.64,54.64,0,0,0,11.25,3.92,74.74,74.74,0,0,0-3.58,8.42 c 8.71,3.59,18.54,16.07,20.22,25.9 a 142.38,142.38,0,0,0-5.39,26.31,120.57,120.57,0,0,0,.91,28.18 C 306.89,351.21,300,355.7,289.12,358.75Z m 31.13-36.37 a 3.79,3.79,0,0,0,1.35-.44 c 0,.89,0,1.77,0,2.65 a 6.45,6.45,0,0,1-1.23.46 C 320.29,324.24,320.26,323.35,320.25,322.38Z m 1.37,3.49 c 0,1.26.12,2.52.26,3.77 h 0 s .18,1.19.53,2.91 c -.71-.74-1.56-2.43-1.94-6.26Z m 17.89-49.74 c -3.75,5.63-7.5,7.63-13.5,8.12 a 14.76,14.76,0,0,0,3.48,0 c -4.06,14.26-7.26,25.65-7.82,36.29 a 4.32,4.32,0,0,1-2.3,1.08 c 0,5.06,0,11.48,3.41,12.67.73,3.07,1.9,7,3.59,9.45 C 329.5,348.38,332.5,353,333,356 c -6.7-2.19-16.48-6.74-20.59-12.15-4.1-21.72,2-46.83,4-54.18,3.12-3.46,12.92-15.29,16.2-31 a 23.17,23.17,0,0,0-4.17-7.42 s 1.35-4.47,2-6.93 c 3.6,4.75,9,9.56,10.84,13.84 C 343.64,263.63,342.7,271.34,339.51,276.13Z"/>
    <circle cx="316.64" cy="249.13" r="0.92"/>
    <circle cx="319.47" cy="255.04" r="0.92"/>
    <circle cx="321.3" cy="260.96" r="0.92"/>
    <circle cx="322.05" cy="267.88" r="0.92"/>
    <circle cx="317.5" cy="297.96" r="1.35"/>
    <circle cx="315.25" cy="312.16" r="1.35"/>
    <circle cx="314.26" cy="324.69" r="1.35"/>
    <circle cx="314.79" cy="337.57" r="1.35"/>
    <path d="M 292.16,285.23 c 6,3.48,12.6,3.15,17.6-.48 C 298.39,288.38,292.16,285.23,292.16,285.23Z"/>
  </g>
<script type="text/ecmascript" xlink:href="param.min.js"/> 
</svg>
