<?xml version="1.0"?>
<svg xmlns="http://www.w3.org/2000/svg" xmlns:xlink="http://www.w3.org/1999/xlink" viewBox="0 0 600 600">
  <title>police-shirt-voluptuous</title>
  <g id="main-colour">
    <path d="M 349.08,313.37 c -3.74-6.12-7.64-11-8.26-15.9 s 3.88-17.5,6-27-.49-15.61-.49-15.61 l -.22-.53 a 16.57,16.57,0,0,0-9.16-26.89 h 0 c -1.66-1-4.57-1-8-.35 a 19.09,19.09,0,0,0-7.66-5.9,16.29,16.29,0,0,0,2.69,6.06 l .34.38 c -.17.49-.35,1-.54,1.49 C 319,241.63,305,250.63,305,250.63 a 81.54,81.54,0,0,1-21.75-13.75,35.13,35.13,0,0,1-6.69-8.2,38.71,38.71,0,0,0,3.19-8,7.82,7.82,0,0,0-5.46,2.54,8.3,8.3,0,0,0-1.69,5,49.72,49.72,0,0,0-11.68-2.2 c -6.75-.25-13.12,4.13-15.87,9.63 s -2.75,12.13,1.5,18.75 c -2.5,13.63.38,23.13,3.75,34 s .5,15.5-3.37,21.38 a 154,154,0,0,0-9.62,16.86 c 7.56,4.57,22.84,12.82,39.21,16,23.17,4.5,47.17,1.5,61-6.17 a 117.69,117.69,0,0,0,16.93-11.41 A 58,58,0,0,0,349.08,313.37Z" fill="param(main_colour)"/>
  </g>
  <g id="accent-colour-1">
    <path d="M 237.32,326.71 s 23.57,15.17,49.82,17.67,46.63-2.23,67.31-19.24 c 4.44,13.74,11.94,38.74,12.44,49.74 s -2.25,40.25,4,51.5 c -15.5,13.5-29.75,17.25-57.75,18.75 s -42.25-4-57.5-5.25-23.75.75-26.5,2.25 c 3-13.75-1-33-2.75-42.5 s -5-24.12,1-47.37Z" fill="param(accent_colour_1)"/>
  </g>
  <g id="fixed-colours">
    <circle cx="310.9" cy="348.55" r="1.92" fill="#ffcc50"/>
    <path d="M 297.23,277.38 s 4.75-18.87,8.5-26.12 c 5.71,5.88,11.47,13.41,14,25.46 a 55.86,55.86,0,0,1-12.32,20.77,87.34,87.34,0,0,1-10-18.48Z" fill="#fff"/>
  </g>
  <g id="outline">
    <path d="M 306.73,265.17 c 2-.31,5-.51,5-.51 s -.56-2.08-1.25-4.54 a 19.94,19.94,0,0,0-4.34.72Q306.46,263,306.73,265.17Z"/>
    <path d="M 307.47,269.16 a 39.1,39.1,0,0,0-.74-4 s -2.69.42-4.23.74 c .45,2.57.58,4.22.58,4.22 S 306,269,307.47,269.16Z"/>
    <path d="M 308.2,273.27 a 34.75,34.75,0,0,1,5.07-.26,23,23,0,0,0-.51-4.47 s -3.56.32-5.1.63 C 308,271,308.2,273.27,308.2,273.27Z"/>
    <path d="M 308.49,278 s 0-1.89-.29-4.7 c -1.67.3-4.55,1.2-4.55,1.2 a 34,34,0,0,1,.61,5 C 304.59,278.88,308.49,278,308.49,278Z"/>
    <path d="M 313.28,277.49 a 11.09,11.09,0,0,1,3.93.3 s .21-2.5.19-4.52 c -1.37-.17-4.12-.26-4.13-.26 S 313.38,275.3,313.28,277.49Z"/>
    <path d="M 308.49,278q.08,2.66.13,5.32 a 28,28,0,0,1,4.21-.36 c .34-3.12.45-5.44.45-5.44 A 25.72,25.72,0,0,0,308.49,278Z"/>
    <path d="M 304.56,284.31 s 0,2.21,0,4.81 a 14,14,0,0,1,3.77-.67 s .24-2.12.31-5.15 A 21,21,0,0,0,304.56,284.31Z"/>
    <circle cx="304.59" cy="299.96" r="1.13"/>
    <circle cx="304.43" cy="308.75" r="1.13"/>
    <circle cx="304.43" cy="317" r="1.13"/>
    <circle cx="304.43" cy="325.13" r="1.13"/>
    <circle cx="305.33" cy="332.75" r="1.13"/>
    <circle cx="306.35" cy="339.95" r="1.13"/>
    <path d="M 291.11,279.31 s .86-6.83,1.55-14.37 c -12.37,1.14-18.34-2.27-18.34-2.27 l -2,13.46 a 60.13,60.13,0,0,0,7.76,7.75 C 282.52,283.18,291.11,279.31,291.11,279.31Z m -15.84-14.83 a 34.84,34.84,0,0,0,16.1,1.82q-.11.89-.22,1.78 c -1.49.83-5.91,3.2-8.64,3.75 a 39.49,39.49,0,0,1-7.65-4.73Z m -1.78,11.17,1.17-7.31 a 53,53,0,0,0,7.56,4.72,55.29,55.29,0,0,0,8.74-3.41 c -.56,4.66-1,8.58-1,8.58 s -7.88,3.69-9.64,4.35 C 276.82,279.4,273.48,275.64,273.48,275.64Z"/>
    <path d="M 322.78,263.91 s .7,4.46.89,6.79.17,5.79.17,5.79 a 55.75,55.75,0,0,0,8.66,5.33 c 2.07-1.16,9-6.49,9-6.49 a 47.66,47.66,0,0,0-1.68-13.3 C 328.89,265.71,322.78,263.91,322.78,263.91Z m 17.46,10.69 s -6.32,5-7.76,6 a 72.14,72.14,0,0,1-7.43-4.78 s 0-2.59-.15-5 c 0-.54-.11-1.12-.19-1.69 a 48.77,48.77,0,0,0,7.42,2.47 c 3.3-1.8,6.78-4,7.65-4.52 A 33.43,33.43,0,0,1,340.24,274.6Z m -1.3-11.06 c .22.72.41,1.43.56,2.13 a 54,54,0,0,1-7.38,4.75,35.71,35.71,0,0,1-7.6-2.49 c -.24-1.44-.5-2.59-.5-2.59 A 32.31,32.31,0,0,0,338.94,263.53Z"/>
    <path d="M 368.39,378.21 c -.83-16.67-9.67-44.5-12.5-52.92 a 65.29,65.29,0,0,0-5.62-13 c -3.69-6.31-6.75-9.06-7.81-12.62 s -.06-8.25,1.81-14.87 c 0,0,1.66-6.37,3-11.69 s 2.13-12.5-1.19-18.87 c 1.44,4.88.84,9.36-.69,18.06 a 78.72,78.72,0,0,1-4.1,14.25,45.35,45.35,0,0,0-1.69,6.56 c -.44,2.75-.25,6.25,2.5,11.38 s 6.88,8.13,11.31,20.38 c -6.06,4.5-15.81,12.75-32.75,16.69 a 88.21,88.21,0,0,1-9.25,1.62 l .13-.06 s -2.46-7.79-2.87-21.87 c -.35-11.89-.28-20.71-.25-23.18,2.7-3.31,9.32-12,12.29-21.36-1.1-7.16-4.7-13.61-8.17-18.41,5.41-4.37,14.33-12.78,17.35-30.74 a 18.07,18.07,0,0,1,7-.1 c -2.32-1.7-6-1.45-7.54-1.27 a 18,18,0,0,0-10-6.76,21.16,21.16,0,0,0,4.33,8.57 c -2.08,4.48-7.33,13.45-18.62,21.7-5.4-1.67-12.79-6.83-16.74-9.58 a 45.1,45.1,0,0,1-11.3-11.38 c .87-1.51,3.44-6.1,4-9-5.25,0-8.87,3.88-9,6.63 a 4.75,4.75,0,0,0,0,.73,67.35,67.35,0,0,0-6.91-1.54 c -4.44-.75-8.19-1.06-14,2.13 s -8.94,10.38-9,15.56 a 19.88,19.88,0,0,0,3.38,11 c -1.37,5.88-1.06,15.38-.25,19.94 a 159.06,159.06,0,0,0,4.88,19.56 c .3.88.66,2,1.06,3.24 a 25,25,0,0,1-1.12,5.76 c -1.5,4.75-9.25,11.94-14.19,24.31-3.83,8.81-13.17,31-13.33,47.31 s 3,26.33,4.67,37.33,1.17,27.83-.17,32.33 c 8.5-4.33,22.5-4,41.33-1 s 78.83,10.67,104.17-16.17 C 366.22,410.71,369.22,394.88,368.39,378.21Z m -43.5-153.08 s -.09.31-.31.87 c -.7-1.11-1.75-3.37-1.75-3.37 a 21.93,21.93,0,0,1,5.63,4.56 A 44.42,44.42,0,0,1,311.62,257 a 63.35,63.35,0,0,0-5.11-5.91 C 308.73,249.21,325.94,234.25,324.89,225.13Z m -19.73,29.31 c .08.7.17,1.41.25,2.11 L 309,256 l .2.25q.64,2,1.26,3.9 l 1.53-.17 a 51.14,51.14,0,0,1,2.82,4.7,9.35,9.35,0,0,0-3.1,0 c .58,2,1,3.89,1,3.89 l 4,.06 c .23.54.45,1.09.66,1.65,0,1,0,2,0,3 l 1.12.21q.42,1.36.77,2.8 c -.21.64-.43,1.28-.67,1.92 l -1.42-.41q-.24,2.46-.51,4.92 l 0,.07 a 30.32,30.32,0,0,0-3.84.16q-.15,2.7-.35,5.4 l 1.24-.08 c -.52.87-1,1.69-1.52,2.45.09-.79.19-1.58.27-2.38 l -4.18.12q-.22,2.25-.47,4.5 h 2.87 c -1.61,2.31-2.75,3.7-2.75,3.7 l -.29-.42 c .06-1.09.12-2.18.16-3.28 l -2.39-.08-.9-1.45 c 0-1,0-2.3,0-2.3 l -1.2.27 c -.72-1.26-1.47-2.61-2.18-4,1.22-.46,3.39-1,3.39-1 s -.07-2.41-.3-4.84 c -1.21.28-4.14,1.33-5,1.65 l -.24-.6 c .06-1.44.12-2.89.16-4.33 l -.62.2q.32-1.36.66-2.74 c 0,.67,0,1.51,0,2.54 a 15.79,15.79,0,0,1,4.5-1.71 c .37,0-.24-2.17-.38-4.33 a 13.72,13.72,0,0,0-3.53,1.41 c .49-1.82,1-3.61,1.52-5.32 l 1.25-.33 c -.11-.87-.23-1.73-.34-2.6 l .57-1.79 a 19.48,19.48,0,0,1,3.42-.69q-.36-2.14-.76-4.29 l -1,.1 C 304.67,255.8,304.94,255,305.16,254.44Z m -27.27-32.18 a 15.06,15.06,0,0,1-1.93,4.8 c -.63-1-.95-1.67-.95-1.67.5,4.75,5.61,11.27,14.18,17.17 a 129,129,0,0,0,15.06,9.08 c -.63,1.51-1.56,3.87-2.6,7-5.66-3.6-15.29-10.32-20.38-17.19-7.5-10.12-7-11.62-7.75-14 C 274,223.63,276,222.25,277.89,222.25Z m -30.5,88.88 c 1.94-2.82,4.35-6.35,5.19-9.77,2.16,6.74,5,14.88,7.37,17.21-3.5-7.69-5.94-18.37-7.63-24.56 s -4.44-17-5.19-23.94 a 71.63,71.63,0,0,1,.56-16.31 c -3-2.81-4.12-9.56-3.19-13.31 a 17,17,0,0,1,9.94-12.12 c 6.24-2.8,14.61-.16,18.09.88,1.19,3.6,4.42,9.35,10.35,16.31,4.13,4.85,12.83,11.21,18.15,14.9 a 148.46,148.46,0,0,0-4.52,17.6 c 1.57,5.94,9,18.44,10.49,21-.07,3.39-.18,11.51.07,21.75 a 128.37,128.37,0,0,0,2.49,22.64,115.55,115.55,0,0,1-32.81-1.64 c -10.5-2-24.81-7.44-37.75-15.81 A 85.85,85.85,0,0,1,247.39,311.13Z M 238,328.32 c 14.08,8.16,29.28,15.23,49.1,17,20.83,1.83,40.5-1.67,51.58-8.08 A 122.72,122.72,0,0,0,354,326.84 c .46,1.51,1.15,3.82,2,6.64-8.63,9.06-34.79,23.12-69.47,19.24-31-3.47-48-13.86-51.93-16.53Q236.17,332.38,238,328.32Z m 90.52,114.22 a 187.47,187.47,0,0,1-46.17-.5 c -17-2.5-43-5.83-51.67-1.83,1.5-20.33-1.33-30.83-3.17-41.33-1.67-9.55-6.77-27.64,6.35-60.92,27,18.93,68.69,19.87,88.49,14.92 A 93.76,93.76,0,0,0,356.75,336 c 2.14,7.45,4.85,17.34,6.63,25.53,3.33,15.33,2.67,25.83,2.5,34.67 s .5,24.33,3.5,29.83 C 360.55,435.71,340.72,441.21,328.55,442.54Z"/>
    <path d="M 310.89,351 a 2.42,2.42,0,1,0-2.42-2.42 A 2.42,2.42,0,0,0,310.89,351Z m 0-3.83 a 1.42,1.42,0,1,1-1.42,1.42 A 1.42,1.42,0,0,1,310.89,347.13Z"/>
    <path d="M 293.64,418.88 c 19-7,33.5-21,40.25-36 C 333.89,382.88,317.89,406.13,293.64,418.88Z"/>
    <path d="M 330.39,410.88 c -11.25,10-26,14-26,14 C 313.14,424.63,325.89,418.63,330.39,410.88Z"/>
  </g>
<script type="text/ecmascript" xlink:href="param.min.js"/> 
</svg>
