<?xml version="1.0"?>
<svg xmlns="http://www.w3.org/2000/svg" xmlns:xlink="http://www.w3.org/1999/xlink" viewBox="0 0 150 150">
  <title>BT002_OA029</title>
  <g id="skin-tone">
    <path d="M 85,81.42 a 10.82,10.82,0,0,1-3.5-3.56 c -1.12-2.12-.56-4.87-2.56-6.5 s -4.81-2.69-7.69-.37-1.19,5-1.69,7.56.44,2.88,1.81,3.38,4.38.19,5.81.31,3.25.5,3.94,1.31 a 15.74,15.74,0,0,0,2.94-.75Z" fill="param(skin_tone)"/>
  </g>
  <g id="main-colour">
    <path d="M 64.3,88.19 c 1-2.84,4-4.75,4.92-7.67 A 6.1,6.1,0,0,0,74,82.11 a 14.79,14.79,0,0,1,7.17,1.44 c 2.42-.35,3.25-1.06,3.88-2.12,2.79,1.35,4.38,4.85,6.54,7.1 s 7.36,7.08,11.42,8.17,5.42,2,6,5.33-1.67,7.33-4.92,9.75 c -7.58.08-14.75.17-16.33.17 s -2.5-.33-4.75-4-5.17-6.5-8.58-7.83-7-2-9.08-4.08 S 63.05,91.78,64.3,88.19Z" fill="param(main_colour)"/>
    <path d="M 65.22,96.19 a 9.4,9.4,0,0,0,4.17,2.25,35.81,35.81,0,0,1,8.08,3.67 c -.83,2.42-1.83,7.58-1.25,10.17 a 41,41,0,0,1-5.75-.08,42.82,42.82,0,0,0-1.58-7.33 C 67.8,101.69,65.13,97.36,65.22,96.19Z" fill="param(main_colour)"/>
  </g>
  <g id="fixed-colours">
    <path d="M 79.55,86.65 c .53-.35,1.29-.17,1.79,1 s -.42,1.88-1.33,1.5 S 78.47,87.36,79.55,86.65Z" fill="#bcbec0"/>
    <path d="M 83.05,91.53 c .35-.6,1.42-.25,1.92.5 a 1.15,1.15,0,0,1-.29,1.79 A 1.5,1.5,0,0,1,83.05,91.53Z" fill="#bcbec0"/>
    <path d="M 87.38,95.94 c .26-.6,1.38-.33,1.92.13 a 1.22,1.22,0,0,1,0,1.79 C 88.84,98.19,86.55,97.86,87.38,95.94Z" fill="#bcbec0"/>
    <path d="M 92,99.07 c .24-.71,1.21-.71,1.92-.12 a 1.12,1.12,0,0,1,.38,1.5 c -.17.33-.83.75-1.75.17 A 1.1,1.1,0,0,1,92,99.07Z" fill="#bcbec0"/>
  </g>
  <g id="outline">
    <path d="M 108.22,98.28 c -2.67-3.17-4-.75-8.5-3.75 a 35.43,35.43,0,0,1-9.5-8.75,19.56,19.56,0,0,0-5-5.17 A 6.63,6.63,0,0,1,82.95,78 a 7.32,7.32,0,0,1-1.2-3 A 6.76,6.76,0,0,0,75,68.25 h 0 A 6.76,6.76,0,0,0,68.25,75 s .2,1.62.32,3 c .15,1.73-.47,3-3.1,5.81 a 11.33,11.33,0,0,0-3,7.63,7.57,7.57,0,0,0,1.24,4,7.56,7.56,0,0,0,1.51,3 c 1.75,2.17,4.27,8.54,4.45,14.38 h 7.17 s -.42-5.56,1.2-9.55 a 15.53,15.53,0,0,1,2.48,2.64 c 2.58,3.5,3.5,6.92,5.92,6.92 h 17.58 c 1.67,0,4-2.92,4.92-5.17 S 110.88,101.44,108.22,98.28Z M 91.61,94.74 l -.85-.68 a 30.63,30.63,0,0,1,2.18-2.87q.67.66,1.39,1.31 c -.14.4-.31.9-.49,1.47 C 93.14,94.18,92.37,94.44,91.61,94.74Z m 1.86.59q-.09.34-.16.7 l -.55-.41Z m -4.73,1.11 c -.09.63.65.76.65.76 h 0 a .73.73,0,0,1-.18.41 A 1.14,1.14,0,0,1,87.62,96 a .82.82,0,0,1,.77-.19 A .7.7,0,0,0,88.74,96.44Z m 1.55-1.64.4.33 c -.28.13-.55.27-.82.41 C 90,95.29,90.14,95,90.29,94.8Z m -.68-1.71 c -.43-.38-.81-.75-1.15-1.12.71-.21,1.47-.41,2.23-.58 C 90.33,91.91,90,92.49,89.6,93.09Z m 5.74.28.17.14-.22.06Z m -3.68-3.49 c -.91.2-2.47.55-4.16,1-.35-.44-.65-.86-.93-1.28.84-1.36,1.69-2.61,2.11-3.21 C 89.43,87.37,90.45,88.59,91.66,89.88Z m -7.22,2.46 a .94.94,0,0,0,.44.8.73.73,0,0,1-.25.37,1.14,1.14,0,0,1-1.31-1.79.81.81,0,0,1,.75-.08 h 0 A .59.59,0,0,0,84.45,92.35Z m 2-1.17-1,.29.5-.87Z m -.73-2.94 c -.29-.48-.57-1-.88-1.44.83-.18,1.6-.3,2.25-.38 C 86.68,86.94,86.2,87.57,85.73,88.24Z m 1.73-3.55.27.41 a 29,29,0,0,0-3.65.61 c -.22-.28-.45-.57-.7-.86 a 10.65,10.65,0,0,0-1.08-1,4.42,4.42,0,0,0,2.78-1.6 A 9.4,9.4,0,0,1,87.47,84.69Z M 70.25,75 A 4.75,4.75,0,0,1,75,70.25 h 0 A 4.75,4.75,0,0,1,79.75,75 a 8.91,8.91,0,0,0,3.72,6 l .85.66 a 5.74,5.74,0,0,1-2.95,1.52 c -2-1.24-4.09-1.45-6.74-1.32 a 6.9,6.9,0,0,1-4.72-1.42 A 17.8,17.8,0,0,0,70.25,75Z m 5.3,36.69 h -4.5 a 58.45,58.45,0,0,0-2.1-8.71,40.64,40.64,0,0,0-2.7-5.29,12.8,12.8,0,0,0,2.93,1.21,25.66,25.66,0,0,1,7.6,3.34 A 27.34,27.34,0,0,0,75.55,111.69Z m 9.5-2.25 A 30,30,0,0,0,78.72,102 c -3.17-2.5-6.83-3.25-9.08-3.92 s -4.46-2.27-4.87-4.94 a 8.43,8.43,0,0,1,1.88-7.56 c 1.2-1.56,2.26-2.54,2.92-4.16,2.07,1.83,3.4,1.33,6,1.22 a 9.34,9.34,0,0,1,6.5,2.25,6,6,0,0,1,1,1.05 c -.85.24-1.51.47-2,.65 a 1.62,1.62,0,0,0-1.89-.49 A 2,2,0,0,0,81,89.63 a 1.64,1.64,0,0,0,.68-1.89,19.33,19.33,0,0,1,2.07-.67 c .38.67.76,1.4,1.29,2.23 a 9.3,9.3,0,0,0-.79,1.63,1.47,1.47,0,0,0-1.44.1,2,2,0,0,0,2.31,3.18,1.47,1.47,0,0,0,.54-1.34 c .45-.16,1.07-.37,1.8-.59 l .41.4 c .45.42.88.82,1.3,1.19 a 11.94,11.94,0,0,0-.58,1.3,1.52,1.52,0,0,0-1.6.3,2,2,0,0,0,2.83,2.73,1.46,1.46,0,0,0,.31-1.38 c .43-.21,1-.49,1.67-.79 l 1.31,1 c -.06.35-.1.7-.12,1 a 1.52,1.52,0,0,0-1.51.57,2,2,0,0,0,3.25,2.21,1.73,1.73,0,0,0-.54-2.22 c 0-.2.07-.45.12-.72 a 18.81,18.81,0,0,1,2.06,1.68 c 1.56,1.56.85,4,0,6.67 a 17.74,17.74,0,0,0-.68,5 H 87.88 A 3.61,3.61,0,0,1,85.05,109.44Z M 81,88 h 0 a .87.87,0,0,1-.41.86,1.14,1.14,0,0,1-1-2,.81.81,0,0,1,.76,0 l 0,0 A .71.71,0,0,0,81,88Z M 93,98.79 c .06.76.71.66,1,.58 a .88.88,0,0,1,.07,1 A 1.14,1.14,0,0,1,92.2,99.1.83.83,0,0,1,93,98.79Z m 14.82,6.74 c -1.25,3.75-3.42,5.67-4.42,5.67 H 96.69 a 18.94,18.94,0,0,1,.65-4.29 c .67-2.25,1.63-4.79.5-6.87-.6-1.12-1.67-1.92-3.34-3.13.13-.65.28-1.38.45-2.11.54-.18,1.08-.33,1.6-.45 a 17.3,17.3,0,0,0,5,2.75 c -1.26.31-2.69,1-3.07,2.43 a 8.5,8.5,0,0,1,6.3-1.68 c .25.05.48.11.7.18 C 107,98.5,109.05,101.78,107.8,105.53Z"/>
  </g>
<script type="text/ecmascript" xlink:href="param.min.js"/> 
</svg>
