<?xml version="1.0"?>
<svg xmlns="http://www.w3.org/2000/svg" xmlns:xlink="http://www.w3.org/1999/xlink" viewBox="0 0 600 600">
  <title>OA032-bikini-bottoms-slender</title>
  <g id="skin-tone">
    <path d="M 270.89,343.65 A 57.86,57.86,0,0,0,262.14,370 a 24.81,24.81,0,0,0,2.68,13,24,24,0,0,0,39.09,6.26,24,24,0,0,0,29.29-23.41 h 0 c .56-3.27-.43-10.1-2.18-13.23 l -5.72-14.23 a 40.89,40.89,0,0,1-2.35-14.15 c -.17-8.42,1.82-20.63,3.91-27.88.71-2.48,1.71-5.43,2.73-8.72 a 30.14,30.14,0,0,0,9.34-2.51 c 4.67-2.33,9.92-7.58,10.17-14.25.21-5.55-.92-10-3.85-14-1.6-2.61-4.65-4.74-9-8.26-.34-.29-.93-.81-1.25-1.08-.76-.7-1.56-1.48-2.29-2.23 l 0,.1 c -.53-.53-1.07-1.1-1.48-1.53 a 10.8,10.8,0,0,0-5.62-15.71v-.27 a 11.12,11.12,0,0,0-9.24.73,3.12,3.12,0,0,0-1.56-.2,12,12,0,0,1-8.28-8.84,73.66,73.66,0,0,1-1.49-11.94 c -1.86.14-3.74.22-5.64.22q-2.61,0-5.17-.18 c -.13,2.22-.56,8.42-1.37,10.5-1,2.56-3.33,9-10.86,10.75-7.45-6.36-19.55-1.14-20,7.95 s 6,12.33,9.33,13.42 c -1.25,5.92,1.33,21,3.17,27.5 s 6.92,19.67,9.08,28.08 c 1.88,7.29-1.37,16.76-6.93,27.23Z" fill="param(skin_tone)"/>
  </g>
  <g id="main-colour">
    <path d="M 286.63,347.07 s 1.17-.5,10.92,1.33,15.67,3.17,20.67,1.42 a 25.46,25.46,0,0,0,7.83-4.25,70.85,70.85,0,0,0-4.67,7.92 c -1.75,3.67-2.67,10-3.92,15.75 s -2.92,11.67-7.83,12.5 A 27,27,0,0,0,308,361.07 C 304.29,353.73,299.46,350.15,286.63,347.07Z" fill="param(main_colour)"/>
  </g>
  <g id="outline">
    <path d="M 260.51,372.76 a 57.69,57.69,0,0,1,5.42-22.38 c 5.5-11.83,18.62-28.5,16.79-41.33 s -9-25.33-11.46-40.33 a 112.55,112.55,0,0,1-1.33-18.33 h 2.55 s -.81,12,1.8,22.5,7.29,21.16,9.46,29.28,2.31,11.42-.46,19.63 c -3.12,9.25-11.43,22.1-14.18,27.47 s -6.83,15.88-6.58,23.5 C 262,373.5,260.51,372.76,260.51,372.76Z"/>
    <path d="M 324.47,318.79 c .86-9.83,4-20.86,6.64-31.31-.94.11-1.88.17-2.59.2-5.24,18.49-8.71,32.13-6.05,46,2.62,12,10.25,18.83,10.73,32.17.5-2,1.62-8.25-4.23-20.25 C 326,339.5,323.16,333.7,324.47,318.79Z"/>
    <path d="M 309.07,381 a 24,24,0,0,1-46.56-8.22 s -.43-5.55,3.16-15.53 a 26,26,0,1,0,45.66,23.29 A 13.75,13.75,0,0,1,309.07,381Z"/>
    <path d="M 311.33,380.5 l 0-.06Z"/>
    <path d="M 310.83,317.93 s -5.07,8.72-2.58,9.44 c 1,.2,1.7-1.44.9-3.34 A 29,29,0,0,1,310.83,317.93Z"/>
    <path d="M 278.46,228.15 s 3,1.65,6,3.31,7.83,2.25,12.5,1.42 c -3.92,0-10.23-.88-14.74-4.73 A 7.09,7.09,0,0,0,278.46,228.15Z"/>
    <path d="M 293.57,207.64 c 0,1.77-.57,18.2-12,20.18-.18,1.23,1.49,1.9,1.49,1.9 s 11.68-2.25,12.15-22Z"/>
    <path d="M 316.63,228.44 a 26.5,26.5,0,0,1-10.12,3.19 c 3.75-1.17,9.06-5.28,10.12-5.39,1.88-.86,6.31-.86,8.89,1.64 a 11.26,11.26,0,0,0-8.35.33Z"/>
    <path d="M 306,207.56 l -1.48.12 a 41.37,41.37,0,0,0,1.15,11.62 c 1.67,7.92,8.08,9.64,8.08,9.64 a 3.06,3.06,0,0,0,1.42-1.05 C 306.62,225,306.51,215.58,306,207.56Z"/>
    <path d="M 311.12,230.57 s 2-.85,6.2-2.46"/>
    <path d="M 272.45,249.51 h 0 a 11.2,11.2,0,1,1,7.7-20.44 h 0 c 2.33,1.28,5.19,2.79,5.32,2.86 a 13.2,13.2,0,1,0-13,19.6 C 272.49,251,272.45,249.51,272.45,249.51Z"/>
    <path d="M 327.9,240.25 s 7.94,8.06,14.1,11.9 c 8.6,5.34,10.48,15.42,7.49,23.3-3.83,10.11-16,15.45-27.33,11.61,5.39.8,16.17-.25,22.83-8.67,4.24-5.35,4.75-17-3.17-23.83 C 336.85,250.26,329.62,243.53,327.9,240.25Z"/>
    <path d="M 308.75,247.63 s 15.76,5.82,18.25,18.27 c 2.25,11.25-4.58,24.42-18.58,25.92-8.71.93-13.3-2.19-16.61-4.52,4.93,2.5,15.17,5,23.7.1,8.25-4.75,11.13-16.12,7.83-24.75 C 320.26,254.59,311.35,248.8,308.75,247.63Z"/>
    <path d="M 326.71,343.52 s -6.12,7-14.25,6.5-18.62-3.25-26-4-17.37,1-17.37,1 l -.5,1.38 s 15.63-2.62,27.38,2.38,14.13,16.13,14.38,20.38-.79,9.38-1.92,11.5 c 3.29.42,5.92-2.87,7.38-5.87,2.38-4.92,3.26-16.81,6-22.75 s 4.63-7.75,5.88-9.12 A 4.63,4.63,0,0,1,326.71,343.52Z M 318,362 c -1.12,5.75-2.12,17.25-7.37,18.75 a 28,28,0,0,0-1.37-19 c -2.62-5.5-6.12-10.37-18-14.12,0,0,8.63,2,15.38,3 s 12,1.5,18-3.62 C 319.33,354.15,319,356.82,318,362Z"/>
    <path d="M 269.42,348.74 l .19-1.41 s -9.33-7.16-16.18-2.85 c -6.41,4,2.19,7.65,12.27,4.67-2,1.25-5.46,3.12-8.28,3.38-4.28.4-6.4,3.14-6.93,5.84,1.18-1.81,2.76-4.05,5.62-4.29 a 19.56,19.56,0,0,0,7.54-2.67,22.63,22.63,0,0,0-3.58,5.77,10.22,10.22,0,0,1-3.75,4.62 c 1.37.45,3.86-2,5-5.32 a 13.27,13.27,0,0,1,3.17-4.48 c -2.69,4.71-1.26,10.38,2.11,6.69 C 272,352.8,269.42,348.74,269.42,348.74Z m -14.62-.68 c -3-1.15-1.21-3,2.9-3.58,5.48-.81,10.38,2.78,10.38,2.78 C 263.85,349,257.92,349.28,254.79,348.06Z m 9.61,6.56 c .95-3.69,4.59-6.19,4.59-6.19 a 10.71,10.71,0,0,1-1.61,7.43 C 265,359.77,263.46,358.31,264.41,354.62Z"/>
    <path d="M 339.31,349.2 c -.62-6.08-12.54-5-12.54-5 S 339.93,355.28,339.31,349.2Z m -1.82.2 c -1,1.17-8.81-4.63-8.81-4.63 C 335.43,345.07,338.45,348.23,337.49,349.4Z"/>
    <path d="M 329.24,346.47 s -1.38-.58.33,1.45 c 4.65,6.38,7.19,7.31,10,6.38 C 335.74,354.39,329.24,346.47,329.24,346.47Z"/>
  </g>
<script type="text/ecmascript" xlink:href="param.min.js"/> 
</svg>
