<?xml version="1.0"?>
<svg xmlns="http://www.w3.org/2000/svg" xmlns:xlink="http://www.w3.org/1999/xlink" viewBox="0 0 600 600">
  <title>v-neck-t-shirt-dress-slender</title>
  <g id="main-colour">
    <path d="M 321.71,227.22 a 11.19,11.19,0,0,0-9.7,5.61,21.9,21.9,0,0,0,2.34-1.39,95.2,95.2,0,0,1,1.88,16.75,11.2,11.2,0,1,0,5.48-21Z" fill="param(main_colour)"/>
    <path d="M 324.4,440.68 c .77-.06,1.54-.13,2.29-.22,10.17-1.17,15.17-5.5,19.92-10.08-7.42-9.75-4.92-27.83-3.83-41.67 a 97.63,97.63,0,0,0-.06-14.45 c -1.47-8.51-4.21-17.24-7.64-23.39-4.5-8.06-9.87-16.44-11.12-25.44 s 1.56-20.75,3.31-27.81 c 1-4,2.76-9.57,4.25-15.61 A 19.6,19.6,0,0,0,340,267.79 c 1.08-8-3.42-14.42-6.25-17.75 a 35.14,35.14,0,0,1-3.29-4.66,11.18,11.18,0,0,0-10.4-18 c -2.05-.53-5.19,1.16-5.19,1.16 a 11.48,11.48,0,0,1-3.81-1.81 c -.56,2.06-5.18,4.7-5.18,4.7 l .86,4 s 6-2.19,7.59-3.94 c 1.16,6.38,1,15-.83,23.69-11.25-4.87-20.57-14.37-22.64-19.25,4.31,1.81,10.31,1,10.31,1 l -.73-4.6 c -10.23-.1-13.39-5.4-13.89-5.77 s -.37,1.38-4.5,2.25 c -6.75-5.25-17.75-2.12-20,6.38 s 2.75,13.25,9.25,15.25 c -2.75,18.5,5.88,40,8.63,47.38 s 2,12.63,1.13,21.63-7.75,12.63-17.5,28.5 S 253.7,387,255.45,402 c 1.2,10.3,1.22,19.66-.43,28.09,2.92,1.31,7.91,3.2,12.33,3.2 a 30.36,30.36,0,0,1-.6,3.92 c 3-.44,6.58-.89,10.82-1.34,17-1.81,32.94,3.38,44.81,4.63 C 323.07,440.57,323.74,440.63,324.4,440.68Z" fill="param(main_colour)"/>
  </g>
  <g id="fixed-colours">
    <path d="M 297.58,232.17 s 1.58-4.33,5.21-4.58 a 5.86,5.86,0,0,1,5.25,2.17 l -1.79,1.46 a 3.88,3.88,0,0,0-6.12,1 A 11.15,11.15,0,0,1,297.58,232.17Z" fill="#d1d3d4"/>
    <path d="M 298.16,237.34 l 2.58-.25 a 3.71,3.71,0,0,0,3.92,1.38,4,4,0,0,0,2.79-3.33 l 2.29-.67 a 6.27,6.27,0,0,1-4.79,6.42 C 301.16,241.88,298.45,238.5,298.16,237.34Z" fill="#d1d3d4"/>
  </g>
  <g id="outline">
    <path d="M 311.85,278.63 c -7.05,7.74-19.46,6.63-19.46,6.63 C 303.83,287.56,309.08,283.89,311.85,278.63Z"/>
    <path d="M 297.39,332.88 s -3.83,46.67,36.17,81.83 C 317.72,398.54,299.22,369.88,297.39,332.88Z"/>
    <path d="M 296.89,405.21 c -5.5-9-9.67-20.17-11.5-44.17 C 285.39,361,283.89,394.38,296.89,405.21Z"/>
    <path d="M 342.83,399.63 c .35-9.33,4.5-30.75-6.6-49.42-7.16-12-13.5-21-11-38.17,1.5-8,7.14-29.42,7.14-29.42 h 0 c 1-.68,4.44-2.44,7.56-9.75,3.6-8.43.63-15.87-4.87-22.25 a 55.76,55.76,0,0,1-7.1-10.33 A 44.75,44.75,0,0,0,333.73,251 c 2.19,3,7.19,11.25,4.75,19.5-3,10-9.44,13.25-12.44,13.75 a 17.17,17.17,0,0,0,3.64-.51 l 0,.07 S 324,304.88,323,313.38 s -.25,16.13,2.63,22.25,10.82,17.9,13.94,27.25 c 3.75,11.25,2.06,26.26,1.78,34-.35,9.63-2.28,23.61,4.1,33.73-3.62,4.53-13,8.88-18.56,9-6.62.15-13.25-1.25-19.25-2.62-4.8-1.1-21.14-4.75-39.51-1.64,1.27-6.32,3.17-19.13.53-29.82 a 115.48,115.48,0,0,1-1.82,26.86,26.15,26.15,0,0,1-10.59-2.59 c 2-11.14.9-18.87,0-26.43-1.12-9.5-1.37-26.83,3.25-42.5,5.12-17.33,17.13-27.37,20.38-33.75 a 31.46,31.46,0,0,0,3-16.25 c .85,4.59,1.47,10.6.47,14.5,4.75-7.87-1.12-24.87-7-41.25 a 78.08,78.08,0,0,1-3.94-34.56,11.57,11.57,0,0,1-7.12-4.06 c -4.06-4.75-2.69-11,.38-14.62 a 11.29,11.29,0,0,1,10.94-3.44,22.33,22.33,0,0,1,5.31,2.63,26.55,26.55,0,0,0,4.94-2.31,16.12,16.12,0,0,0,13.25,5.06 s .31,1.94.5,3.69 a 26.31,26.31,0,0,1-11.44-1.62 c 5.16,9.88,17,18.56,24.78,20.88,1.63-7.37,2.47-19.12.78-25.44 a 23.24,23.24,0,0,1-7.69,4.25 s -.25-1.62-.56-2.87 a 28,28,0,0,0,4.81-3.87,13,13,0,0,0,3.69,1.38 c 4-2.25,8.19-2.5,10.56-1.31 a 8.72,8.72,0,0,0-5.31-2.12,9.69,9.69,0,0,0-6,1.75,9.94,9.94,0,0,1-3.12-2 A 19.49,19.49,0,0,1,308,229 a 6.45,6.45,0,0,0-5.1-1.84,6.63,6.63,0,0,0-5.55,4.52,16.79,16.79,0,0,1-10.63-6.18,14.31,14.31,0,0,1-4.94,2.25,13.18,13.18,0,0,0-19.62,16.44 c 2.31,5.06,7.75,6.81,7.75,6.81-.37,4.75.12,15.23,1.5,23.5,1.21,7.27,6.25,19,9.2,27.68.17,4.26.31,13.78-1.45,20.45-2.33,8.83-16.42,18.25-21.5,36.17-5,17.5-5,33.67-3.33,43.5 a 84.78,84.78,0,0,1-.06,27 c -.08.41-.2.9-.32,1.39 a 29.57,29.57,0,0,0,12.54,3.47 c -.32,1.44-.67,2.89-1.08,4.33.63-.14,1.26-.25,1.85-.34,11.27-1.72,24.55-2.25,34.15-.29,15.5,3.17,31.56,8.63,46.1-7.32 C 341.32,423.56,342.48,409,342.83,399.63Z M 304,239 a 4.39,4.39,0,0,0,3.77-3.41 c .51-.16,1.07-.36,1.66-.6 a 6,6,0,0,1-5.28,5.64,5.85,5.85,0,0,1-5.52-2.89,10.76,10.76,0,0,0,1.8-.21 A 4.22,4.22,0,0,0,304,239Z m 9.22,15.52 c -4.5-1.5-17.62-10.5-21.41-17.81 a 22.53,22.53,0,0,0,5.92,1,6.67,6.67,0,0,0,6.49,3.72,6.85,6.85,0,0,0,6-6.81,19.06,19.06,0,0,0,3.84-2.14 C 314.86,236.75,315,245.75,313.23,254.5Z m -6.34-18.68 a 3.56,3.56,0,0,1-3,2.36,3.47,3.47,0,0,1-2.64-.89,3.34,3.34,0,0,0,.53-.23 s -.37-2.75-.81-5.31 h -.18 a 3.35,3.35,0,0,1,4.61-.72 l -.12.08 a 30.12,30.12,0,0,1,.94,4.81 A 5.79,5.79,0,0,0,306.89,235.82Z M 303,228 a 5.69,5.69,0,0,1,4.41,1.53 c -.49.41-.92.76-1.27,1 a 4.15,4.15,0,0,0-3-.92,4.24,4.24,0,0,0-3.26,2.17,15.65,15.65,0,0,1-1.72,0 A 5.84,5.84,0,0,1,303,228Z"/>
    <path d="M 328.89,437.63 c -4.33-.17-15.75-2.49-24.79-4.29 a 91.93,91.93,0,0,0-29.94-1 c 6.5-.13,11.46-.06,15.64.24,1.28.07,2.55.17,3.79.3q1.44.15,2.86.34 l .43.06 h 0 C 310.14,435,322.11,438.86,328.89,437.63Z"/>
  </g>
<script type="text/ecmascript" xlink:href="param.min.js"/> 
</svg>
