<?xml version="1.0"?>
<svg xmlns="http://www.w3.org/2000/svg" xmlns:xlink="http://www.w3.org/1999/xlink" viewBox="0 0 600 600">
  <title>slender-top-template</title>
  <g id="main-colour">
    <path d="M 256.68,468.88 s 6.17-9,7-25.5-3.17-24.17-4.5-42,0-35.83,7.5-51.67,18-28.33,16.83-39.67-2.17-12.33-4.5-18.5-7.83-20.67-7-26.83 c 11.5-4.33,32.17-22.17,35.5-30,6.5,3.17,12.67,6,18,9.33 s 7,6.5,7.5,8.83,3.67,13-2.83,33.5-9,38.5-6,48.17,11.17,21.33,14.67,33,16.83,42.67,13.83,100.33 c -8.33-4.67-20.5-3-29.17-.5 s -25.17,11.17-37.67,10.83 S 265.51,475.71,256.68,468.88Z" fill="param(main_colour)"/>
  </g>
  <g id="outline">
    <path d="M 332,248.71 c -2.2-4.4-14.13-10.83-22.5-14.33 a 47.1,47.1,0,0,0,3.88-7.25,4.38,4.38,0,0,0-2.37-1.75 c -.5,1.75-.87,3.38-4.25,8.13 a 119.53,119.53,0,0,1-18.25-9.5,3.19,3.19,0,0,0-2.62,2 s 11,6.88,19.75,9.88 a 102,102,0,0,1-35,28.38 s .47,8.88,5,21.88,6.5,12.5,6.75,24.5-8,21.75-18.5,42.5-5,58-2.75,71.25,3.25,30.5-6,44.75 c 26,20.25,52.25,4.75,63.25.75 s 25.75-5.75,35.25-.25 c 4.5-54.5-13-102-17.37-111 s -9.5-17-11.25-25.37.63-23,2-28.62,3.79-15.62,5.13-20.75 S 338.68,262,332,248.71Z M 317.85,241 c 3.83,2.17,12.62,6.16,13.83,11,2.83,11.33.17,23.58-1.79,31.21-1.17,3.83-2.67,11.13-4.5,17.54 s -4.33,18.42-3.33,28.5 S 328,347,331,352.29 s 7.58,17.25,11.25,30.25,5.17,18.46,7.92,39.08,2.5,32.63,1.5,44.75 c -7.75-4.87-25.87-1.37-34,1.88 s -23.25,10.5-39.12,8.75-20.62-8.37-20.62-8.37,7.13-9.87,6.88-28.62-4.12-27-4.75-44.12.88-35,9.13-48.5,13.5-21.75,15.13-30-.62-18.5-4-26 a 110.34,110.34,0,0,1-7.37-26 s 19.25-7.58,35.33-28.67 C 308.22,236.71,317.26,240.71,317.85,241Z"/>
  </g>
<script type="text/ecmascript" xlink:href="param.min.js"/> 
</svg>
