<?xml version="1.0"?>
<svg xmlns="http://www.w3.org/2000/svg" xmlns:xlink="http://www.w3.org/1999/xlink" viewBox="0 0 600 600">
  <title>slender-top-template</title>
  <g id="main-colour">
    <path d="M 271,254.38 s 10-1.12,14.13-7.25,2.5-13.75-1.25-18.87 a 4.47,4.47,0,0,0,2.38-1.37 s 5.75,8.63,13.38,10.38 S 310.48,236,311.36,234 s 0-7.62,0-7.62 l 2.38,1.75 s 4.74,3.71,7,5.92 c 17.37,17.25,27.53,22.09,28.41,31.37,1.54,16.25-12.4,21.09-18.83,22.13-2,8.5-4.54,12.33-6.54,26.21 s -1.12,19.13,3.13,29.13,11.27,15.46,14.23,30 c 3,14.75,1.5,32.88,1.5,32.88 S 328,414.25,315.11,415 a 85.73,85.73,0,0,1-27.87-2.75 c -6.5-1.62-17.87-4.75-24.37-.62-3-15.62-4.75-31.75-1.62-45.62 s 13.5-29.12,17.63-37.87,6.13-15.75,3.88-23.87-6.87-19.87-8.62-26 S 270.23,259.63,271,254.38Z" fill="param(main_colour)"/>
  </g>
  <g id="outline">
    <path d="M 330.87,288.22 a 21.87,21.87,0,0,0,11.44-3.75 c 8.25-5.95,10.08-14.25,7.42-22.75-2.52-8-12-12-15.75-15.83-2.75-2.75-6.35-6-8.48-8.12-2.45-2.41-8.87-8.5-11.31-10.37-2.36-.75-4.71-3.56-4.71-3.56 s 5.71,11.73-3.62,13.06-16.37-6.12-19.37-11.12 c -1.17,1.17-4.31,2-4.31,2 s 4.33,3,4.31,11.63 c 0,9-9.12,13.46-16.58,13.83-.37,4,.46,18,7,35.5 s 8.25,24.42,2.25,36.92-17,28-19.75,44.25,2.83,42.5,2.83,42.5,9.25-3.1,16.67-1.33 c 7,1.67,40.81,11.67,64.48-4.92,3-37.5-7-48.25-12.83-58.92-4.62-8.44-8-14.07-5.65-32.33 C 326,306.32,328.41,298.26,330.87,288.22Z m -7.89,46 c 2.75,12,14.36,25.13,16.61,36.63 a 116.5,116.5,0,0,1,2.25,33.88 c -7.5,5.54-21.31,9.16-32.31,9 a 100.78,100.78,0,0,1-26.33-3.52 c -7.3-2-14.17-2-19.62,0-3.21-16.54-4.46-30.37-1.83-43.12 s 9.63-22.75,14.63-32.12,9.25-16.25,8.13-26.12-6.25-21.5-8.5-28-4.37-21.25-3.87-25.62 c 0-.37,10.5-1.37,15-9.5 s -2.12-17-2.12-17 l 1.38-.62 s 4.25,6.5,10.13,8.75,10.85,2.06,13.75-.12,2-7.87,1.54-9.5 a 7,7,0,0,0,1.81,1.06,164.31,164.31,0,0,1,13.31,12.48 c 7.58,8.5,16.67,12.83,19.92,19.08,5,9.62-.17,18.25-4.17,21.75 A 22.84,22.84,0,0,1,329.54,287 l -1.82,6 C 324.59,303.88,320.23,322.25,323,334.25Z"/>
    <path d="M 292.19,287.4 s 10.42,8.61,19.69,2.07 C 307.34,291.23,300,290.93,292.19,287.4Z"/>
  </g>
<script type="text/ecmascript" xlink:href="param.min.js"/> 
</svg>
