<?xml version="1.0"?>
<svg xmlns="http://www.w3.org/2000/svg" xmlns:xlink="http://www.w3.org/1999/xlink" viewBox="0 0 600 600">
  <title>wedding-dress-voluptuous</title>
  <g id="main-colour">
    <path d="M 245.85,265.63 s 4.88,2.63,13-.5,13.88-8.5,25.76-11.25,18.21,1,26.58,6.83 c 7.38-7.75,22.25-11,29-10.58,6.08,6.25,9.2,13.86,7.92,21.25 a 19.18,19.18,0,0,1-3.25,7.58 s -5.38,14-2.88,19.67,11.88,18.75,21.5,30.38,23.5,32.5,40.63,72.38,27.25,94.13,29.13,109.75,1.25,21.38,1.25,21.38-3.62,4.25-7.75,6-9.75,8-9.75,8 l .25,7.63 s -5.87,12.25-19,16.38-26.75,2.5-30.5,6.25 c .13,4.88.5,11.13.5,11.13 a 35,35,0,0,0-17.37,1 c -9.12,3-13.75,7.25-23.62,7.5 s -17.75-2.12-24.5-2.87-17.25.63-21.37,2.38 c 1-5.37.38-6.62.38-6.62 s -12.37-6.37-20.37-5 S 239.72,586.5,229,578 c -1-6-1-6.62-1-6.62 s -6-3.62-11.62-4.25-23-3.12-25.5-9.5 c -.25-7.75-.5-8.37-.5-8.37 s -6.87-4.5-11.12-5.12-6.62-3.62-7.87-9-3.87-28.75-1.37-55.87,9.88-58.25,18-77.5,17-38.62,34.38-62.87,27.75-32.5,28.88-38.37-.12-10.25-1.5-14.25 S 245.1,272.38,245.85,265.63Z" fill="param(main_colour)"/>
  </g>
  <g id="accent-colour-1">
    <circle cx="277.53" cy="226.19" r="2.58" fill="param(accent_colour_1)"/>
    <circle cx="272.6" cy="229.25" r="2.58" fill="param(accent_colour_1)"/>
    <circle cx="277.29" cy="232.44" r="2.58" fill="param(accent_colour_1)"/>
    <circle cx="282.54" cy="235.19" r="2.58" fill="param(accent_colour_1)"/>
    <circle cx="287.85" cy="237.38" r="2.58" fill="param(accent_colour_1)"/>
    <circle cx="293.35" cy="239.5" r="2.58" fill="param(accent_colour_1)"/>
    <circle cx="298.79" cy="240.94" r="2.58" fill="param(accent_colour_1)"/>
    <circle cx="304.29" cy="241.19" r="2.58" fill="param(accent_colour_1)"/>
    <circle cx="310.04" cy="240.82" r="2.58" fill="param(accent_colour_1)"/>
    <circle cx="315.6" cy="239.57" r="2.58" fill="param(accent_colour_1)"/>
    <circle cx="320.22" cy="236.38" r="2.58" fill="param(accent_colour_1)"/>
    <circle cx="324.66" cy="232.82" r="2.58" fill="param(accent_colour_1)"/>
    <circle cx="328.66" cy="228.82" r="2.58" fill="param(accent_colour_1)"/>
    <circle cx="302.68" cy="245.88" r="2.58" transform="translate(36.68 531.04) rotate(-86.08)" fill="param(accent_colour_1)"/>
    <circle cx="308" cy="245.82" r="2.58" transform="translate(41.7 536.29) rotate(-86.08)" fill="param(accent_colour_1)"/>
    <circle cx="306.03" cy="250.63" r="2.58" transform="translate(35.07 538.81) rotate(-86.08)" fill="param(accent_colour_1)"/>
    <circle cx="282.35" cy="229.38" r="2.58" fill="param(accent_colour_1)"/>
    <circle cx="287.6" cy="231.88" r="2.58" fill="param(accent_colour_1)"/>
    <circle cx="292.85" cy="234" r="2.58" fill="param(accent_colour_1)"/>
    <circle cx="298.35" cy="235.44" r="2.58" fill="param(accent_colour_1)"/>
    <circle cx="304.04" cy="235.88" r="2.58" fill="param(accent_colour_1)"/>
    <circle cx="309.6" cy="235.19" r="2.58" fill="param(accent_colour_1)"/>
    <circle cx="314.97" cy="233.82" r="2.58" fill="param(accent_colour_1)"/>
    <circle cx="319.97" cy="230.82" r="2.58" fill="param(accent_colour_1)"/>
    <circle cx="323.6" cy="226.63" r="2.58" fill="param(accent_colour_1)"/>
    <circle cx="258.27" cy="276.8" r="2.33" fill="param(accent_colour_1)"/>
    <circle cx="261.42" cy="288.98" r="2.33" fill="param(accent_colour_1)"/>
    <circle cx="260.6" cy="303.52" r="2.33" fill="param(accent_colour_1)"/>
    <circle cx="273.47" cy="266.47" r="2.33" fill="param(accent_colour_1)"/>
    <circle cx="277.05" cy="281.15" r="2.33" fill="param(accent_colour_1)"/>
    <circle cx="278.29" cy="295.51" r="2.33" fill="param(accent_colour_1)"/>
    <circle cx="278.24" cy="308.54" r="2.33" fill="param(accent_colour_1)"/>
    <circle cx="296.52" cy="306.45" r="2.33" fill="param(accent_colour_1)"/>
    <circle cx="296.58" cy="290.51" r="2.33" fill="param(accent_colour_1)"/>
    <circle cx="294.37" cy="273.59" r="2.33" fill="param(accent_colour_1)"/>
    <circle cx="292.39" cy="258.62" r="2.33" fill="param(accent_colour_1)"/>
    <circle cx="311.79" cy="267.7" r="2.33" fill="param(accent_colour_1)"/>
    <circle cx="313.71" cy="284" r="2.33" fill="param(accent_colour_1)"/>
    <circle cx="313.65" cy="301.85" r="2.33" fill="param(accent_colour_1)"/>
    <circle cx="313.73" cy="320.29" r="2.33" fill="param(accent_colour_1)"/>
    <circle cx="330.83" cy="309.13" r="2.33" fill="param(accent_colour_1)"/>
    <circle cx="330.54" cy="291.86" r="2.33" fill="param(accent_colour_1)"/>
    <circle cx="332.29" cy="273.88" r="2.33" fill="param(accent_colour_1)"/>
    <circle cx="329.57" cy="257.56" r="2.33" fill="param(accent_colour_1)"/>
    <circle cx="344.4" cy="262.65" r="2.33" fill="param(accent_colour_1)"/>
    <path d="M 309.57,260.09 s 3.6,6.88,3.43,27.63 c -.15,18.73-1.06,36.75,1.52,46.33,0,.75,1.09,1.33,1.09,1.33 l .17-1 a 118.55,118.55,0,0,1-1.42-18.08 c -.07-10.33-.3-19.4-.08-27.83.25-9.67-.12-19.62-3.08-27.75 A 3.64,3.64,0,0,0,309.57,260.09Z" fill="param(accent_colour_1)"/>
    <path d="M 326.94,252.63 s 5.92,12.58,4.67,23.58-3.08,26.42-.76,41.5 l 1-.83 A 130.49,130.49,0,0,1,331,302.3 c 0-8.08,1.55-21.93,1.92-28.17 a 40.77,40.77,0,0,0-4.67-21.58 C 327.94,251.88,326.94,252.63,326.94,252.63Z" fill="param(accent_colour_1)"/>
    <path d="M 291.28,253.63 s 1.33,11.67,3.08,25.17 a 252.41,252.41,0,0,1,1.32,42.08,1.64,1.64,0,0,0,1,1.5 l .08-1.25 a 224.24,224.24,0,0,0-.25-31.25 c -1.5-16.33-4.08-36.33-4.08-36.33Z" fill="param(accent_colour_1)"/>
    <path d="M 270.28,261 a 75.4,75.4,0,0,1,6.67,24.83,210.16,210.16,0,0,1,.33,27.67 l 1.25.42 a 195.79,195.79,0,0,0-.25-28.58,90.21,90.21,0,0,0-6.5-25.17Z" fill="param(accent_colour_1)"/>
    <path d="M 254.85,266.71 s 1.29,7.38,3.31,11.85,5.52,17.48-.15,30.15 c 1.83.33,1.33.33,1.33.33 s 4.59-11.3,2.3-21.82-5.13-17.68-5.46-21 A 4.51,4.51,0,0,1,254.85,266.71Z" fill="param(accent_colour_1)"/>
    <path d="M 338.19,250.71 s 7.58,8.75,6.33,18.92-3.25,15.25-3,17.92 c .67-1.5,1.58-3.08,1.58-3.08 s 1.5-7.83,2-11.33,3.33-11.17-5.83-22.42 C 338.86,250.21,338.19,250.71,338.19,250.71Z" fill="param(accent_colour_1)"/>
  </g>
  <g id="outline">
    <path d="M 432.85,498.5 a 483.25,483.25,0,0,0-24.25-90.25 C 399.35,384,384.35,352,369.22,334 s -24.5-31.87-26.37-35.75,1.13-12.5,1.13-12.5 l 1.76-6.5 a 26.6,26.6,0,0,0,3.63-14.37 c -.5-7.87-9-16-9-16-13.25-1.5-29.71,10.33-29.71,10.33 s -7.25-7.33-20.42-7.33-23.22,9.33-31.38,12 a 23,23,0,0,1-14.5.17 c -.17,13.17,5.33,23.67,6.33,29 s 1.33,6.5-15.17,26.5-32.5,43.17-44.67,69.83 S 172,442.88,169,473 s -1.67,47.33,1,64.83 a 14.8,14.8,0,0,0,11.33,8.67,15.54,15.54,0,0,1,7.51,3.63 c .34,3.54.76,6.63,1.24,9.2,7.5,6.75,16.5,8.25,23.75,8.75 a 29.36,29.36,0,0,1,13,4.35q.2,3.14.46,6.15 c 12,8.5,23.25,9,30.25,7.75,6.05-1.08,15.45.09,20.64,3.33.44,2.72.9,5.42,1.36,8.17,8.5-3.75,19-3.5,26.25-2 s 25.5,4.25,35.75-1.25,19.75-6.75,28.25-4.5 c -.27-4-.58-8.18-.91-12.39,6-4.05,16.72-.93,30.66-6.11,15.5-5.75,18.75-17.25,18.75-17.25 s 0-2.77-.19-7.73 a 35,35,0,0,1,9.07-6.89 c 6.5-3.37,8.5-7.37,8.5-7.37 S 435.6,510.75,432.85,498.5Z M 251.72,288 c -1.87-5.62-4.62-12-4.75-20.87,4.13,1.38,11.25.13,18-2.75 s 12.55-8.67,21.8-9.79,17.71,2.67,24.46,7.29 c 7.38-7.5,21.75-10.62,28.63-10.75 a 27.33,27.33,0,0,1,5.89,9.21,2.46,2.46,0,0,0-1.21-.33 h -.24 a 2.51,2.51,0,0,0-2.5,2.5v.24 a 2.51,2.51,0,0,0,2.5,2.5 h .24 a 2.5,2.5,0,0,0,2.23-1.4,20.5,20.5,0,0,1-2.91,15.28 c -.75,2.38-1.27,3.75-1.63,5.13-4.39,12.35-1.34,16.58,2.19,21.69-3.36,2.28-20.24,14.18-29.07,28.1-15.61-15.13-44.74-27.14-66.68-25.85.85-1,1.51-1.87,1.93-2.44 C 253.72,301.5,253.6,293.63,251.72,288Z m 94.46-25.46v.17 a 1.69,1.69,0,0,1-1.69,1.69 h -.17 a 1.69,1.69,0,0,1-1.69-1.69v-.17 a 1.69,1.69,0,0,1,1.69-1.69 h .17 A 1.69,1.69,0,0,1,346.18,262.54Z m 78.17,276 a 24.68,24.68,0,0,0-6.31,5.4 c -1-20.67-4.88-68.89-20.94-117.27-21.25-64-50.5-96.25-50.5-96.25,24.25,32.75,47.5,92.25,55.75,126 s 11.75,73.5,13,97.25 c -5,11.75-18.25,18-31,18-8.42,0-13.33,1.41-15.71,2.38-2.11-25.83-5.2-54-8.29-78.13-3.75-29.25-14.75-110-39.5-149.25,9.75,22,19,46.5,29,100.5 s 16.5,138.75,16.5,138.75-14.25-.5-22.5,4-17,5.75-22.75,5.25-17.75-2.75-22-3.25-13.33-.58-16.58,1.17 c -4.5-22-4.56-39.74-4-58,.67-21.58,4.83-71.42,13.33-117.67 s 13.25-72.25,13.25-72.25 S 284.79,416.79,277.85,488 c -5.31,54.5-3.36,77.59-.18,98.08 a 26.39,26.39,0,0,0-17.32-2.74 c -12.5,2.25-26-3-29.25-5.75-1.5-30.5-1.5-52.75,3.25-90.75 s 14.5-78.75,22.25-101.25,21.25-49,21.25-49-22.5,29.75-36.75,94.5 c -13,59.09-16.22,104.43-14.4,138.13 a 39.58,39.58,0,0,0-14.35-3.88 c -9-.5-20.25-7.75-20.25-7.75 s -2.5-40,0-67,9-64.25,20.25-94.75,36-69.25,36-69.25-24,24.25-43,81.25 c -16.34,49-19.18,107.85-16.79,138.78 a 26.94,26.94,0,0,0-7.54-3.28 c -4.5-1-7.67-4-8.17-7.33-4.17-26.5-2.5-72.33,8.17-109.5 s 25-60.92,37.71-79.79 c 10-14.75,21.92-28.9,28.15-36.4,7.39-.55,36.07-.64,68.47,26,10.27-14.9,26.32-25.91,30.37-28.55,4,5.74,11.94,15.8,20.5,27.18,9.13,12.13,19.63,27.75,33.88,61.75 s 19,53.5,23.88,73.5,9,48.5,9.25,61.63 C 432.47,534,428.35,536.38,424.35,538.5Z"/>
    <path d="M 273.36,269.13 h .24 a 2.51,2.51,0,0,0,2.5-2.5v-.24 a 2.51,2.51,0,0,0-2.5-2.5 h -.24 a 2.51,2.51,0,0,0-2.5,2.5v.24 A 2.51,2.51,0,0,0,273.36,269.13Z m -1.65-2.7 a 1.69,1.69,0,0,1,1.69-1.69 h .17 a 1.69,1.69,0,0,1,1.69,1.69v.17 a 1.69,1.69,0,0,1-1.69,1.69 h -.17 a 1.69,1.69,0,0,1-1.69-1.69Z"/>
    <path d="M 274.44,281v.24 a 2.51,2.51,0,0,0,2.5,2.5 h .24 a 2.51,2.51,0,0,0,2.5-2.5V281 a 2.51,2.51,0,0,0-2.5-2.5 h -.24 A 2.51,2.51,0,0,0,274.44,281Z m .85,0 a 1.69,1.69,0,0,1,1.69-1.69 h .17 a 1.69,1.69,0,0,1,1.69,1.69v.17 a 1.69,1.69,0,0,1-1.69,1.69 H 277 a 1.69,1.69,0,0,1-1.69-1.69Z"/>
    <path d="M 278.17,292.92 a 2.51,2.51,0,0,0-2.5,2.5v.24 a 2.51,2.51,0,0,0,2.5,2.5 h .24 a 2.51,2.51,0,0,0,2.5-2.5v-.24 a 2.51,2.51,0,0,0-2.5-2.5Z m 1.89,2.54v.17 a 1.69,1.69,0,0,1-1.69,1.69 h -.17 a 1.69,1.69,0,0,1-1.69-1.69v-.17 a 1.69,1.69,0,0,1,1.69-1.69 h .17 A 1.69,1.69,0,0,1,280.07,295.46Z"/>
    <path d="M 278.35,306 h -.24 a 2.51,2.51,0,0,0-2.5,2.5v.24 a 2.51,2.51,0,0,0,2.5,2.5 h .24 a 2.51,2.51,0,0,0,2.5-2.5v-.24 A 2.51,2.51,0,0,0,278.35,306Z m 1.65,2.7 a 1.69,1.69,0,0,1-1.69,1.69 h -.17 a 1.69,1.69,0,0,1-1.69-1.69v-.17 a 1.69,1.69,0,0,1,1.69-1.69 h .17 A 1.69,1.69,0,0,1,280,308.5Z"/>
    <path d="M 260.7,300.84 h -.24 a 2.51,2.51,0,0,0-2.5,2.5v.24 a 2.51,2.51,0,0,0,2.5,2.5 h .24 a 2.51,2.51,0,0,0,2.5-2.5v-.24 A 2.51,2.51,0,0,0,260.7,300.84Z m 1.65,2.7 a 1.69,1.69,0,0,1-1.69,1.69 h -.17 a 1.69,1.69,0,0,1-1.69-1.69v-.17 a 1.69,1.69,0,0,1,1.69-1.69 h .17 a 1.69,1.69,0,0,1,1.69,1.69Z"/>
    <path d="M 258.77,288.88v.24 a 2.51,2.51,0,0,0,2.5,2.5 h .24 a 2.51,2.51,0,0,0,2.5-2.5v-.24 a 2.51,2.51,0,0,0-2.5-2.5 h -.24 A 2.51,2.51,0,0,0,258.77,288.88Z m .85,0 a 1.69,1.69,0,0,1,1.69-1.69 h .17 a 1.69,1.69,0,0,1,1.69,1.69v.17 a 1.69,1.69,0,0,1-1.69,1.69 h -.17 a 1.69,1.69,0,0,1-1.69-1.69Z"/>
    <path d="M 258.12,279.42 h .24 a 2.51,2.51,0,0,0,2.5-2.5v-.24 a 2.51,2.51,0,0,0-2.5-2.5 h -.24 a 2.51,2.51,0,0,0-2.5,2.5v.24 A 2.51,2.51,0,0,0,258.12,279.42Z m -1.65-2.7 a 1.69,1.69,0,0,1,1.69-1.69 h .17 a 1.69,1.69,0,0,1,1.69,1.69v.17 a 1.69,1.69,0,0,1-1.69,1.69 h -.17 a 1.69,1.69,0,0,1-1.69-1.69Z"/>
    <path d="M 294.12,271 a 2.51,2.51,0,0,0-2.5,2.5v.24 a 2.51,2.51,0,0,0,2.5,2.5 h .24 a 2.51,2.51,0,0,0,2.5-2.5v-.24 a 2.51,2.51,0,0,0-2.5-2.5Z m 1.89,2.54v.17 a 1.69,1.69,0,0,1-1.69,1.69 h -.17 a 1.69,1.69,0,0,1-1.69-1.69v-.17 a 1.69,1.69,0,0,1,1.69-1.69 h .17 A 1.69,1.69,0,0,1,296,273.51Z"/>
    <path d="M 296.56,303.82 h -.24 a 2.51,2.51,0,0,0-2.5,2.5v.24 a 2.51,2.51,0,0,0,2.5,2.5 h .24 a 2.51,2.51,0,0,0,2.5-2.5v-.24 A 2.51,2.51,0,0,0,296.56,303.82Z m 1.65,2.7 a 1.69,1.69,0,0,1-1.69,1.69 h -.17 a 1.69,1.69,0,0,1-1.69-1.69v-.17 a 1.69,1.69,0,0,1,1.69-1.69 h .17 a 1.69,1.69,0,0,1,1.69,1.69Z"/>
    <path d="M 313.87,317.67 h -.24 a 2.51,2.51,0,0,0-2.5,2.5v.24 a 2.51,2.51,0,0,0,2.5,2.5 h .24 a 2.51,2.51,0,0,0,2.5-2.5v-.24 A 2.51,2.51,0,0,0,313.87,317.67Z m 1.65,2.7 a 1.69,1.69,0,0,1-1.69,1.69 h -.17 a 1.69,1.69,0,0,1-1.69-1.69v-.17 a 1.69,1.69,0,0,1,1.69-1.69 h .17 a 1.69,1.69,0,0,1,1.69,1.69Z"/>
    <path d="M 313.4,304.48 h .24 a 2.51,2.51,0,0,0,2.5-2.5v-.24 a 2.51,2.51,0,0,0-2.5-2.5 h -.24 a 2.51,2.51,0,0,0-2.5,2.5V302 A 2.51,2.51,0,0,0,313.4,304.48Z m -1.65-2.7 a 1.69,1.69,0,0,1,1.69-1.69 h .17 a 1.69,1.69,0,0,1,1.69,1.69v.17 a 1.69,1.69,0,0,1-1.69,1.69 h -.17 a 1.69,1.69,0,0,1-1.69-1.69Z"/>
    <path d="M 313.62,281.39 a 2.51,2.51,0,0,0-2.5,2.5v.24 a 2.51,2.51,0,0,0,2.5,2.5 h .24 a 2.51,2.51,0,0,0,2.5-2.5v-.24 a 2.51,2.51,0,0,0-2.5-2.5Z m 1.89,2.54v.17 a 1.69,1.69,0,0,1-1.69,1.69 h -.17 a 1.69,1.69,0,0,1-1.69-1.69v-.17 a 1.69,1.69,0,0,1,1.69-1.69 h .17 A 1.69,1.69,0,0,1,315.51,283.92Z"/>
    <path d="M 330.45,294.38 h .24 a 2.51,2.51,0,0,0,2.5-2.5v-.24 a 2.51,2.51,0,0,0-2.5-2.5 h -.24 a 2.51,2.51,0,0,0-2.5,2.5v.24 A 2.51,2.51,0,0,0,330.45,294.38Z m -1.65-2.7 a 1.69,1.69,0,0,1,1.69-1.69 h .17 a 1.69,1.69,0,0,1,1.69,1.69v.17 a 1.69,1.69,0,0,1-1.69,1.69 h -.17 a 1.69,1.69,0,0,1-1.69-1.69Z"/>
    <path d="M 330.89,306.49 h -.24 a 2.51,2.51,0,0,0-2.5,2.5v.24 a 2.51,2.51,0,0,0,2.5,2.5 h .24 a 2.51,2.51,0,0,0,2.5-2.5V309 A 2.51,2.51,0,0,0,330.89,306.49Z m 1.65,2.7 a 1.69,1.69,0,0,1-1.69,1.69 h -.17 a 1.69,1.69,0,0,1-1.69-1.69V309 a 1.69,1.69,0,0,1,1.69-1.69 h .17 a 1.69,1.69,0,0,1,1.69,1.69Z"/>
    <path d="M 329.79,273.67v.24 a 2.51,2.51,0,0,0,2.5,2.5 h .24 a 2.51,2.51,0,0,0,2.5-2.5v-.24 a 2.51,2.51,0,0,0-2.5-2.5 h -.24 A 2.51,2.51,0,0,0,329.79,273.67Z m .85,0 a 1.69,1.69,0,0,1,1.69-1.69 h .17 a 1.69,1.69,0,0,1,1.69,1.69v.17 a 1.69,1.69,0,0,1-1.69,1.69 h -.17 a 1.69,1.69,0,0,1-1.69-1.69Z"/>
    <path d="M 311.71,270.33 H 312 a 2.51,2.51,0,0,0,2.5-2.5v-.24 a 2.51,2.51,0,0,0-2.5-2.5 h -.24 a 2.51,2.51,0,0,0-2.5,2.5v.24 A 2.51,2.51,0,0,0,311.71,270.33Z m -1.65-2.7 a 1.69,1.69,0,0,1,1.69-1.69 h .17 a 1.69,1.69,0,0,1,1.69,1.69v.17 a 1.69,1.69,0,0,1-1.69,1.69 h -.17 a 1.69,1.69,0,0,1-1.69-1.69Z"/>
    <path d="M 329.49,260.23 h .24 a 2.51,2.51,0,0,0,2.5-2.5v-.24 a 2.51,2.51,0,0,0-2.5-2.5 h -.24 a 2.51,2.51,0,0,0-2.5,2.5v.24 A 2.51,2.51,0,0,0,329.49,260.23Z m -1.65-2.7 a 1.69,1.69,0,0,1,1.69-1.69 h .17 a 1.69,1.69,0,0,1,1.69,1.69v.17 a 1.69,1.69,0,0,1-1.69,1.69 h -.17 a 1.69,1.69,0,0,1-1.69-1.69Z"/>
    <path d="M 292.29,261.25 h .24 a 2.51,2.51,0,0,0,2.5-2.5v-.24 a 2.51,2.51,0,0,0-2.5-2.5 h -.24 a 2.51,2.51,0,0,0-2.5,2.5v.24 A 2.51,2.51,0,0,0,292.29,261.25Z m -1.65-2.7 a 1.69,1.69,0,0,1,1.69-1.69 h .17 a 1.69,1.69,0,0,1,1.69,1.69v.17 a 1.69,1.69,0,0,1-1.69,1.69 h -.17 a 1.69,1.69,0,0,1-1.69-1.69Z"/>
    <path d="M 272.5,232.18 h .27 a 2.8,2.8,0,0,0,1.66-.55,2.79,2.79,0,0,0-.08.64v.27 a 2.84,2.84,0,0,0,2.83,2.83 h .27 a 2.82,2.82,0,0,0,2.28-1.18,2.78,2.78,0,0,0-.14.82v.27 a 2.84,2.84,0,0,0,2.83,2.83 h .27 a 2.82,2.82,0,0,0,2.23-1.11 c 0,.07,0,.13,0,.19v.27 a 2.84,2.84,0,0,0,2.83,2.83 H 288 a 2.84,2.84,0,0,0,2.83-2.83v-.27 a 2.83,2.83,0,0,0-1.91-2.66,2.84,2.84,0,0,0,1-.75 s 0,0,0,0v.27 a 2.84,2.84,0,0,0,2.3,2.78,2.83,2.83,0,0,0-1.67,2.58v.27 a 2.84,2.84,0,0,0,2.83,2.83 h .27 a 2.84,2.84,0,0,0,2.59-1.69v.3 a 2.84,2.84,0,0,0,2.83,2.83 h .27 a 2.8,2.8,0,0,0,1.08-.22,2.81,2.81,0,0,0-.69,1.49 l 0,.27 a 2.84,2.84,0,0,0,2.42,3.19 l .27,0 a 2.79,2.79,0,0,0,1.44-.19,2.8,2.8,0,0,0-.67,1.46 l 0,.27 a 2.84,2.84,0,0,0,2.42,3.19 l .27,0 a 2.84,2.84,0,0,0,3.19-2.42 l 0-.27 a 2.81,2.81,0,0,0-.48-2,2.84,2.84,0,0,0,2.66-2.44 l 0-.27 a 2.83,2.83,0,0,0-.87-2.44 A 2.83,2.83,0,0,0,313,241 a 2.83,2.83,0,0,0,2.47,1.48 h .27 a 2.84,2.84,0,0,0,2.83-2.83v-.27 a 2.81,2.81,0,0,0-.06-.57,2.81,2.81,0,0,0,1.58.48 h .27 a 2.84,2.84,0,0,0,2.83-2.83v-.27 a 2.78,2.78,0,0,0-.16-.9,2.8,2.8,0,0,0,1.49.44 h .27 a 2.84,2.84,0,0,0,2.83-2.83v-.27 a 2.8,2.8,0,0,0-.25-1.14,2.8,2.8,0,0,0,1.14.25 h .27 a 2.84,2.84,0,0,0,2.83-2.83v-.27 a 2.84,2.84,0,0,0-2.83-2.83 h -.27 a 2.82,2.82,0,0,0-2,.8v-.16 a 2.84,2.84,0,0,0-2.83-2.83 h -.27 a 2.84,2.84,0,0,0-2.83,2.83v.27 a 2.79,2.79,0,0,0,.29,1.22,2.78,2.78,0,0,0-.81-.13 h -.27 a 2.84,2.84,0,0,0-2.83,2.83v.27 a 2.78,2.78,0,0,0,.11.74,2.82,2.82,0,0,0-2-.84 h -.27 a 2.83,2.83,0,0,0-2.8,2.57,2.83,2.83,0,0,0-2.3-1.19 h -.27 a 2.84,2.84,0,0,0-2.77,2.26,2.83,2.83,0,0,0-2.52-1.57 h -.27 a 2.83,2.83,0,0,0-2.64,1.84,2.84,2.84,0,0,0-2.77-2.28 h -.27 a 2.83,2.83,0,0,0-2.4,1.35 A 2.84,2.84,0,0,0,293,231 h -.27 a 2.81,2.81,0,0,0-2.15,1 s 0,0,0,0v-.27 a 2.84,2.84,0,0,0-2.83-2.83 h -.27 a 2.82,2.82,0,0,0-2.19,1.07,2.79,2.79,0,0,0,0-.46v-.27 a 2.84,2.84,0,0,0-2.83-2.83 h -.27 a 2.8,2.8,0,0,0-1.84.7,2.78,2.78,0,0,0,.12-.78V226 a 2.84,2.84,0,0,0-2.83-2.83 h -.27 A 2.84,2.84,0,0,0,274.6,226v.27 a 2.78,2.78,0,0,0,.11.74,2.81,2.81,0,0,0-1.94-.78 h -.27 a 2.84,2.84,0,0,0-2.83,2.83v.27 A 2.84,2.84,0,0,0,272.5,232.18Z m 23,7.5 a 1.92,1.92,0,0,1-1.91,1.91 h -.19 a 1.92,1.92,0,0,1-1.91-1.91v-.19 a 1.92,1.92,0,0,1,1.91-1.91 h .19 a 1.92,1.92,0,0,1,1.91,1.91Z m 3.78,3.35 h -.19 a 1.92,1.92,0,0,1-1.91-1.91v-.19 A 1.92,1.92,0,0,1,299.1,239 h .19 a 1.92,1.92,0,0,1,1.91,1.91v.19 A 1.92,1.92,0,0,1,299.29,243Z m 2.63-.74 a 2.83,2.83,0,0,0,.28.56,2.8,2.8,0,0,0-.8.22 A 2.84,2.84,0,0,0,301.92,242.3Z m 2.68-3.15 h .19 a 1.92,1.92,0,0,1,1.91,1.91v.19 a 1.92,1.92,0,0,1-1.91,1.91 h -.19 a 1.92,1.92,0,0,1-1.91-1.91v-.19 A 1.92,1.92,0,0,1,304.6,239.15Z m 2.87,3.13 a 2.85,2.85,0,0,0,.47.64,2.81,2.81,0,0,0-1.06.3 A 2.83,2.83,0,0,0,307.47,242.28Z m -2,4.58 a 2.84,2.84,0,0,0,.36.74,2.79,2.79,0,0,0-.91.21 A 2.81,2.81,0,0,0,305.44,246.86Z m 0-2 a 2.84,2.84,0,0,0-.37-.76,2.79,2.79,0,0,0,1-.31 A 2.81,2.81,0,0,0,305.49,244.85Z m -3,3-.19,0 a 1.92,1.92,0,0,1-1.63-2.15 l 0-.19 a 1.92,1.92,0,0,1,2.15-1.63 l .19,0 a 1.92,1.92,0,0,1,1.63,2.15 l 0,.19 A 1.92,1.92,0,0,1,302.46,247.81Z m 5.6,2.95,0,.19 a 1.92,1.92,0,0,1-2.15,1.63 l -.19,0 a 1.92,1.92,0,0,1-1.63-2.15 l 0-.19 a 1.92,1.92,0,0,1,2.15-1.63 l .19,0 A 1.92,1.92,0,0,1,308.07,250.76Z m 2.22-4.68,0,.19 a 1.92,1.92,0,0,1-2.15,1.63 l -.19,0 a 1.92,1.92,0,0,1-1.63-2.15 l 0-.19 a 1.92,1.92,0,0,1,2.15-1.63 l .19,0 A 1.92,1.92,0,0,1,310.28,246.08Z m 1.79-5.2 a 1.92,1.92,0,0,1-1.91,1.91 H 310 a 1.92,1.92,0,0,1-1.91-1.91v-.19 a 1.92,1.92,0,0,1,1.91-1.91 h .19 a 1.92,1.92,0,0,1,1.91,1.91Z m 5.56-1.25 a 1.92,1.92,0,0,1-1.91,1.91 h -.19 a 1.92,1.92,0,0,1-1.91-1.91v-.19 a 1.92,1.92,0,0,1,1.91-1.91 h .19 a 1.92,1.92,0,0,1,1.91,1.91Z m 4.63-3.19 a 1.92,1.92,0,0,1-1.91,1.91 h -.19 a 1.92,1.92,0,0,1-1.91-1.91v-.19 a 1.92,1.92,0,0,1,1.91-1.91 h .19 a 1.92,1.92,0,0,1,1.91,1.91Z m 3.71-6.38 a 2.8,2.8,0,0,0-1.14-.25 h -.27 a 2.8,2.8,0,0,0-1.62.52,2.79,2.79,0,0,0-.26-.9,2.78,2.78,0,0,0,.81.13 h .27 a 2.82,2.82,0,0,0,2-.8v.16 A 2.8,2.8,0,0,0,326,230.06Z m -4.22,3.17 a 2.79,2.79,0,0,0,.13.58,2.81,2.81,0,0,0-.64-.29 A 2.83,2.83,0,0,0,321.76,233.23Z m 4.94-.36 a 1.92,1.92,0,0,1-1.91,1.91 h -.19 a 1.92,1.92,0,0,1-1.91-1.91v-.19 a 1.92,1.92,0,0,1,1.91-1.91 h .19 a 1.92,1.92,0,0,1,1.91,1.91Z m 0-4.19 a 1.92,1.92,0,0,1,1.91-1.91 h .19 a 1.92,1.92,0,0,1,1.91,1.91v.19 a 1.92,1.92,0,0,1-1.91,1.91 h -.19 a 1.92,1.92,0,0,1-1.91-1.91Z m -5.06-2.19 a 1.92,1.92,0,0,1,1.91-1.91 h .19 a 1.92,1.92,0,0,1,1.91,1.91v.19 a 1.92,1.92,0,0,1-1.91,1.91 h -.19 a 1.92,1.92,0,0,1-1.91-1.91Z M 318,230.69 a 1.92,1.92,0,0,1,1.91-1.91 h .19 a 1.92,1.92,0,0,1,1.91,1.91v.19 a 1.92,1.92,0,0,1-1.91,1.91 h -.19 a 1.92,1.92,0,0,1-1.91-1.91Z m 1,2.92 a 2.84,2.84,0,0,0-1.1.85,2.81,2.81,0,0,0,.05-.53v-.27 a 2.78,2.78,0,0,0-.11-.74 A 2.83,2.83,0,0,0,319,233.6Z m -1.67,2.07 a 2.81,2.81,0,0,0-.05.53v.27 a 2.81,2.81,0,0,0,.06.57,2.81,2.81,0,0,0-1.32-.46 A 2.83,2.83,0,0,0,317.35,235.67Z m -4.34-2 a 1.92,1.92,0,0,1,1.91-1.91 h .19 a 1.92,1.92,0,0,1,1.91,1.91v.19 a 1.92,1.92,0,0,1-1.91,1.91 h -.19 a 1.92,1.92,0,0,1-1.91-1.91Z m -.43,1.87 a 2.82,2.82,0,0,0,2,1.17,2.83,2.83,0,0,0-1.93,2.57,2.83,2.83,0,0,0-1.81-1.39 A 2.83,2.83,0,0,0,312.58,235.55Z m -4.94-.49 a 1.92,1.92,0,0,1,1.91-1.91 h .19 a 1.92,1.92,0,0,1,1.91,1.91v.19 a 1.92,1.92,0,0,1-1.91,1.91 h -.19 a 1.92,1.92,0,0,1-1.91-1.91Z m -.65,1.49 a 2.84,2.84,0,0,0,1.86,1.48,2.85,2.85,0,0,0-1.54,1.62,2.83,2.83,0,0,0-1.56-1.3 A 2.84,2.84,0,0,0,307,236.55Z m -4.91-.8 a 1.92,1.92,0,0,1,1.91-1.91 h .19 a 1.92,1.92,0,0,1,1.91,1.91v.19 a 1.92,1.92,0,0,1-1.91,1.91 H 304 a 1.92,1.92,0,0,1-1.91-1.91Z m -.91.79 a 2.84,2.84,0,0,0,1.87,2.11,2.85,2.85,0,0,0-1.06,1.24,2.83,2.83,0,0,0-2.26-1.79 A 2.84,2.84,0,0,0,301.16,236.53Z m -4.78-1.22 a 1.92,1.92,0,0,1,1.91-1.91 h .19 a 1.92,1.92,0,0,1,1.91,1.91v.19 a 1.92,1.92,0,0,1-1.91,1.91 h -.19 a 1.92,1.92,0,0,1-1.91-1.91Z m -1,.27 a 2.83,2.83,0,0,0,2.45,2.75,2.85,2.85,0,0,0-1.4,1.42v-.3 a 2.84,2.84,0,0,0-2.3-2.78 A 2.85,2.85,0,0,0,295.42,235.58Z m -4.54-1.71 a 1.92,1.92,0,0,1,1.91-1.91 H 293 a 1.92,1.92,0,0,1,1.91,1.91v.19 A 1.92,1.92,0,0,1,293,236 h -.19 a 1.92,1.92,0,0,1-1.91-1.91Z m -11.55-1.37 a 1.92,1.92,0,0,1-1.91,1.91 h -.19 a 1.92,1.92,0,0,1-1.91-1.91v-.19 a 1.92,1.92,0,0,1,1.91-1.91 h .19 a 1.92,1.92,0,0,1,1.91,1.91Z m -1.87-3.06 h -.27 a 2.8,2.8,0,0,0-1.66.55,2.79,2.79,0,0,0,.08-.64v-.27 a 2.78,2.78,0,0,0-.11-.74,2.81,2.81,0,0,0,1.94.78 h .27 a 2.8,2.8,0,0,0,1.84-.7,2.78,2.78,0,0,0-.12.78v.27 a 2.79,2.79,0,0,0,.18,1 A 2.81,2.81,0,0,0,277.46,229.44Z m 2.69,3.93 a 2.78,2.78,0,0,0,.14-.82v-.27 a 2.79,2.79,0,0,0-.18-1,2.82,2.82,0,0,0,1.7,1 A 2.84,2.84,0,0,0,280.15,233.36Z m 4.42,1.89 a 1.92,1.92,0,0,1-1.91,1.91 h -.19 a 1.92,1.92,0,0,1-1.91-1.91v-.19 a 1.92,1.92,0,0,1,1.91-1.91 h .19 a 1.92,1.92,0,0,1,1.91,1.91Z m 5.31,2v.19 a 1.92,1.92,0,0,1-1.91,1.91 h -.19 a 1.92,1.92,0,0,1-1.91-1.91v-.19 a 1.92,1.92,0,0,1,1.91-1.91 H 288 A 1.92,1.92,0,0,1,289.89,237.25Z m -4.26-5.5 a 1.92,1.92,0,0,1,1.91-1.91 h .19 a 1.92,1.92,0,0,1,1.91,1.91v.19 a 1.92,1.92,0,0,1-1.91,1.91 h -.19 a 1.92,1.92,0,0,1-1.91-1.91Z m -.92-.51 a 2.79,2.79,0,0,0,0,.46V232 a 2.83,2.83,0,0,0,1.91,2.66,2.84,2.84,0,0,0-1.05.85 c 0-.07,0-.13,0-.19V235 a 2.83,2.83,0,0,0-2.39-2.78 A 2.83,2.83,0,0,0,284.72,231.24Z m -2.42-3.9 h .19 a 1.92,1.92,0,0,1,1.91,1.91v.19 a 1.92,1.92,0,0,1-1.91,1.91 h -.19 a 1.92,1.92,0,0,1-1.91-1.91v-.19 A 1.92,1.92,0,0,1,282.29,227.34Z m -6.73-1.28 a 1.92,1.92,0,0,1,1.91-1.91 h .19 a 1.92,1.92,0,0,1,1.91,1.91v.19 a 1.92,1.92,0,0,1-1.91,1.91 h -.19 a 1.92,1.92,0,0,1-1.91-1.91Z m -4.93,3.06 a 1.92,1.92,0,0,1,1.91-1.91 h .19 a 1.92,1.92,0,0,1,1.91,1.91v.19 a 1.92,1.92,0,0,1-1.91,1.91 h -.19 a 1.92,1.92,0,0,1-1.91-1.91Z"/>
    <path d="M 294.46,288.65 a 2.48,2.48,0,0,0-.67,1.69v.24 a 2.51,2.51,0,0,0,2.5,2.5 h .24 a 2.51,2.51,0,0,0,2.5-2.5v-.24 a 2.5,2.5,0,0,0-1.76-2.37 c 4.38-1.43,7.46-4.21,8.75-7.25-11.33,9.5-21.67,7.5-21.67,7.5 A 25.07,25.07,0,0,0,294.46,288.65Z m 3.72,1.73v.17 a 1.69,1.69,0,0,1-1.69,1.69 h -.17 a 1.69,1.69,0,0,1-1.69-1.69v-.17 a 1.69,1.69,0,0,1,1.69-1.69 h .17 A 1.69,1.69,0,0,1,298.18,290.38Z"/>
  </g>
<script type="text/ecmascript" xlink:href="param.min.js"/> 
</svg>
