<?xml version="1.0"?>
<svg xmlns="http://www.w3.org/2000/svg" xmlns:xlink="http://www.w3.org/1999/xlink" viewBox="0 0 600 600">
  <title>police-shirt-hourglass</title>
  <g id="main-colour">
    <path d="M 335.82,243.59 a 8.31,8.31,0,0,0,.32-1 c .06-.2.12-.41.17-.61 s .07-.31.1-.46.09-.49.12-.74,0-.26,0-.39 c 0-.38.06-.77.06-1.17 h 0 a 12,12,0,0,0-12-12,5.59,5.59,0,0,0-2.52.35,11.58,11.58,0,0,0-1-2.28,20.93,20.93,0,0,0-3.94-5 A 13.5,13.5,0,0,0,310,216 l -1.58-.25 s 1.58,6.75,6.17,9 l 2.54,1.33 c 1.67,4.5,3.75,12,2,19.25-19.92.17-32.1-11.6-35.76-19.75,2.32-1.15,5.4-5.54,6.64-9-9.83.42-11.58,9.67-11.58,9.67 l .42,1.36 c -1.17.47-2.37.9-3.64,1.27-5.33-2.17-11.92-4-16.83-1.17 s -7.33,8-6.42,14 S 257.88,251,263,252.18 c -.08,8.08,1.5,22.33,4.83,29.25 s 9.33,14.42,11.92,17.92,4.42,9.42,2.92,18.08 c -1,5.67-5.77,11.65-10.18,16.25,2.93,2.58,8.36,5.75,18.16,7.37,15.66,2.59,27.47-1,33.42-5.48-3.53-5.21-4.45-8.22-4.06-13.13.42-5.25,4.92-13.67,8.5-19.67 l 4.79-10.63,9.44-3.56 s 14.25-10.31,10.44-27.44 C 350.58,249.28,335.82,243.59,335.82,243.59Z" fill="param(main_colour)"/>
  </g>
  <g id="accent-colour-1">
    <path d="M 272.53,333.68 s 10.73,10.82,36.73,7.7 c 7.75-.87,14.85-5.82,14.85-5.82 A 176.19,176.19,0,0,1,334.26,351 c 4.25,7.5,10.88,25.38,12.75,43.13 s 1.5,39.75,1.5,39.75 a 48.54,48.54,0,0,1-23.62,15 c -15.12,4.13-32,2-42.75-.87 s -21-5-25.37-2.25 c 0-9.12-2.37-17.62-4-25.25 s -4.12-18.5-4-34.5,3.5-27,8.25-35.37 S 272.53,333.68,272.53,333.68Z" fill="param(accent_colour_1)"/>
  </g>
  <g id="fixed-colours">
    <circle cx="309.56" cy="345.63" r="2.04" fill="#ffcc50"/>
    <path d="M 319.32,246.13 S 333.9,256.63,336,270.3 c -4.25,9.92-8.42,15.58-14.08,20.5-2.33-5.33-7.83-18.83-7.83-18.83Z" fill="#fff"/>
  </g>
  <g id="outline">
    <path d="M 327.45,258.81 s -.74-2-1.76-4.38 a 17.82,17.82,0,0,0-4.07.73q.58,2.09,1,4.19 C 324.61,259,327.45,258.81,327.45,258.81Z"/>
    <path d="M 323.69,263.22 a 29.13,29.13,0,0,0-1-3.87 s -2.54.43-4,.75 a 34.63,34.63,0,0,1,.84,4.1 S 322.24,263.05,323.69,263.22Z"/>
    <path d="M 329.43,266.93 a 19,19,0,0,0-.69-4.35 s -3.41.34-4.87.66 c .42,1.75.69,4,.69,4 A 33,33,0,0,1,329.43,266.93Z"/>
    <path d="M 324.83,271.8 a 32.54,32.54,0,0,0-.27-4.58 c -1.6.3-4.37,1.21-4.37,1.21 a 25.64,25.64,0,0,1,.52,4.86 C 321.05,272.72,324.83,271.8,324.83,271.8Z"/>
    <path d="M 329.45,271.29 a 10.49,10.49,0,0,1,3.78.25,37.86,37.86,0,0,0,.18-4.4 c -1.32-.15-4-.21-4-.21 A 35.3,35.3,0,0,1,329.45,271.29Z"/>
    <path d="M 324.83,271.8q0,2.59-.13,5.17 a 27.4,27.4,0,0,1,4.09-.39,51.12,51.12,0,0,0,.67-5.29 A 24.71,24.71,0,0,0,324.83,271.8Z"/>
    <path d="M 324.7,277 a 21.62,21.62,0,0,0-4,1 s -.19,2.14-.52,4.64 a 14.5,14.5,0,0,1,3.72-.68 A 41.28,41.28,0,0,0,324.7,277Z"/>
    <path d="M 295.34,290 c 3.71-1,9.63-5.83,9.63-5.83 s 0-11.42-.17-14.83 c -9.33,2-19.58,0-19.58,0,.33,4.75,1.12,15.17,1.12,15.17 A 32.37,32.37,0,0,0,295.34,290Z m 8.13-6.75 s -4.92,4.25-8,5.25 a 41,41,0,0,1-7.75-4.58 l -.5-9.11 A 73.73,73.73,0,0,0,295.3,279 a 49.47,49.47,0,0,0,8.16-4.31 C 303.52,278.82,303.47,283.29,303.47,283.29Z m -.08-12.08 c 0,.7,0,1.49.06,2.31 a 59.43,59.43,0,0,1-8.06,4.27,75.23,75.23,0,0,1-8.29-4.29 l -.13-2.29 A 46,46,0,0,0,303.39,271.21Z"/>
    <circle cx="316.79" cy="294.59" r="1.13"/>
    <circle cx="314.47" cy="301" r="1.13"/>
    <circle cx="311.45" cy="308.38" r="1.13"/>
    <circle cx="307.89" cy="315.63" r="1.13"/>
    <circle cx="306.14" cy="323.25" r="1.13"/>
    <circle cx="305.51" cy="330.5" r="1.13"/>
    <circle cx="305.89" cy="337.63" r="1.13"/>
    <path d="M 329.55,302.46 a 50.78,50.78,0,0,0,4.48-9.77 c 6.85-.63,15.12-6.7,18.43-13.31,3.44-6.87,3.75-16.69.38-23.19 s -7.69-8.48-14.27-12 a 138.58,138.58,0,0,1-12.75-7.83 c 1.17,1.81,7.52,6.56,10.65,8.31 a 46.71,46.71,0,0,1,8.94,6.13,22.64,22.64,0,0,1,5.47,7.4 c -.5.83-2.6,3.63-9.53,6.08.42,4.83.92,12.83.92,12.83 l 6.81,3 a 26.57,26.57,0,0,1-5.55,6.48,24.57,24.57,0,0,1-9.34,4.39 c -.54.09-1.17.18-1.76.26-1,4.21-3,8-5.35,12.53-2.94,5.56-5.25,9.25-7.06,15.75 a 18.34,18.34,0,0,0,3.06,15.88 c -1.69,1.48-6.47,3.65-13,4.87 a 72.89,72.89,0,0,1-.19-15.18 c .88-6.75,4.72-15.77,6.85-20.77,1.74-4.09,4.71-10.81,5.72-13.11,3.27-3.12,11.32-11.51,14.2-20.72-1.11-7.94-6.32-14.86-10.88-19.55 a 66.58,66.58,0,0,0,.2-11.71,38.41,38.41,0,0,0-3.23-12,10,10,0,0,1,6.3-.16,9.05,9.05,0,0,0-7.18-1.59,28.17,28.17,0,0,0-3.39-4.91,16.2,16.2,0,0,0-9.76-5.53 h 0 l -.32,0-.18,0 h -.58 a 17.82,17.82,0,0,0,9.12,11.91,28.33,28.33,0,0,1,2.06,7.09 c 1,6.39-.1,10-.3,10.6 h 0 s 0,0,0,.09 c -.25,0-12.86,1.46-25.58-8.69-5.77-4.6-8.1-7.89-8.84-10.19,6.82-5.17,6.51-9.73,6.51-9.73 a .53.53,0,0,0-.48,0,10.57,10.57,0,0,0-8.35,3.45,17.94,17.94,0,0,0-4.21,7.62,10.35,10.35,0,0,1-4.25.17 c -2.81-.5-5.06-2.87-11.44-1.75 a 14,14,0,0,0-6.44,24.25,14.83,14.83,0,0,0,6.75,3.31 c -.37,4.44.56,14.19,2.38,21.31 A 54.94,54.94,0,0,0,274.45,294 c 1.65,2.09,3.63,4.65,5.56,7.58 a 22.77,22.77,0,0,1,2.13,10.8,25.85,25.85,0,0,1-6.06,15.88,46.53,46.53,0,0,1-5,5,98.09,98.09,0,0,0-11.17,11.33 c -4.17,5.33-11.83,16.5-12.17,43.67 s 10,48.67,7.67,58.5 c 10.33-3.33,19.67,1.67,33,4 s 42,5,61-16.17 c 2-28-2.33-54.33-8.17-70.17 a 117.76,117.76,0,0,0-16-28.67 c -4.83-7.08-4.67-10.42-4.08-14.25 S 324.8,310.46,329.55,302.46Z m 21.79-43.1 a 21.18,21.18,0,0,1,.7,2.33,16.64,16.64,0,0,1-2.78,4.61,26.57,26.57,0,0,1-6.31.44 l -.1-1.78 S 348.33,263.56,351.34,259.36Z m -7.83,17-.51-8.65 a 43.36,43.36,0,0,0,6.59-.35,18.7,18.7,0,0,0,2.76-4.16,25.11,25.11,0,0,1,.36,3.6,23.87,23.87,0,0,1-3,12.17Z M 322.29,289.8 s -.06-.14-.2-.41 c .26-1,.51-2.07.73-3.11 l -2.29-.06-.65-1.37 c .17-.93.32-2.21.31-2.22 l -1.19.27 c -.54-1.2-1.1-2.51-1.65-3.87,1.22-.46,3.36-1,3.36-1 a 45,45,0,0,0,0-4.7 c -1.16.28-4,1.32-4.9,1.64 l -.21-.63 c .12-1.38.22-2.77.26-4.16 l -.58.19q.31-1.25.6-2.51 c 0,.63,0,1.4,0,2.32 a 15.32,15.32,0,0,1,4.33-1.71 c .36,0-.24-2.12-.49-4.21 a 12.62,12.62,0,0,0-3.31,1.39 c .4-1.77.77-3.51,1.11-5.17 l 1.17-.33 c -.18-.84-.39-1.68-.6-2.51 l .33-1.73 a 17.19,17.19,0,0,1,3.22-.7q-.64-2.06-1.39-4.11 l -1,.11 c .14-.79.25-1.47.34-2,.21.64.44,1.28.63,1.93 l 3.4-.59.22.22 c .65,1.25,1.27,2.5,1.85,3.76 l 1.46-.18 a 43,43,0,0,1,3.27,4.52,8.89,8.89,0,0,0-3,0 c .76,1.89,1.29,3.77,1.29,3.77 l 3.81,0q.4.81.76,1.67 c 0,1,.08,1.91.09,2.87 l 1.07.19q.43,1.32.78,2.73 c -.2.63-.43,1.26-.67,1.88 l -1.36-.39q-.27,2.4-.7,4.8 l 0,.06 a 29.25,29.25,0,0,0-3.71.19q-.33,2.62-.84,5.23 l 1.2-.09 c -.6.85-1.2,1.65-1.78,2.38.2-.77.4-1.53.58-2.3 l -4,.15q-.48,2.17-1.08,4.33 l 2.78,0 C 323.69,288.48,322.29,289.81,322.29,289.8Z m -10.45-68.85 a 10.64,10.64,0,0,1,4,4.17 A 22.91,22.91,0,0,1,311.85,220.95Z m 5.47,4.43 a 16.79,16.79,0,0,0-6.72-6.3,20.6,20.6,0,0,1-1.22-2.37 c 2.75.33,4.89,1.28,7.77,4.42 A 29.62,29.62,0,0,1,324,234.79 a 39.85,39.85,0,0,1,.24,14.58 c -1.7-1.62-3.22-2.89-4.26-3.71 C 321.52,239,320,230,317.32,225.38Z m -33.57-1.32 a 3.72,3.72,0,0,1,1.3-2.85,6.43,6.43,0,0,1,2.48-1.11 A 22.05,22.05,0,0,1,283.75,224.06Z m .3-4.85 a 9.76,9.76,0,0,1,5.2-1.81q-.31.58-.64,1.12 a 7.13,7.13,0,0,0-5.4,3 c -2,3.25-.54,6.52,3.67,10.92,10.3,10.78,20.51,13.59,31.28,13.66-.3,1.64-.79,4.54-1.49,8.45-3.34-.3-17.51-2-26.15-10.32-10-9.65-11.31-17.87-11.31-17.87 S 280.47,221.54,284.05,219.21Z m -3,105.23 c 2.38-4.56,3.56-8.12,3.25-15.31,0,0,0-.06,0-.09 a 41.42,41.42,0,0,1,3.07,8.78 s -1.5-10.19-4.12-14.81 c -.26-.46-.54-.92-.83-1.39 a 14.15,14.15,0,0,0-1.72-2.66 c -2.24-3.32-4.72-6.51-6.46-8.82 a 47.66,47.66,0,0,1-9.06-22.87 c -1.5-11.94-1.06-16-1.06-16 a 12.92,12.92,0,0,1-8.44-4,12,12,0,0,1-1.75-13.44,12.13,12.13,0,0,1,10.69-6.62 c 5-.06,7.69,3.22,13.57,1.85 a 48.48,48.48,0,0,0,10.76,15.84 c 9.67,9.24,24,11.41,27.39,11.8-.77,4.21-1.76,9.37-3,15.26,1.57,5.41,6.09,16,7.4,19.45-1.58,4.42-5,11.92-6.54,15.91 s -4.12,7.92-5.5,16.92 a 57.77,57.77,0,0,0,0,16.29,53.33,53.33,0,0,1-15.22.19 c -14.56-1.94-19.5-7.06-19.5-7.06 A 44,44,0,0,0,281,324.44Z M 345.76,391 c 1.38,10.13,2.75,34.13,1.88,42.5-8.5,8.38-18.62,14.25-31.12,15.75 s -21.75.63-28.37-.87-25-6.87-30.37-3.87 c .38-5.87-2-15.25-3.62-22.5 s -5.37-23.25-4.37-39.75,4.75-26.75,11.75-36.5 a 41.59,41.59,0,0,1,4.6-5.24 c 14.41,10.63,30.75,11.73,43.65,10,11-1.48,17.06-6.1,18.66-7.48 a 109.33,109.33,0,0,1,7.8,13.61 C 339.72,364.54,344.39,380.88,345.76,391Z m -18.28-49.4 c -7.65,7-23.46,9.61-37.22,7.4 A 58.34,58.34,0,0,1,267,339.62 c 2.19-2.13,4.31-4,5.29-4.86,1.92,1.87,6.53,5,16.83,7,14.53,2.75,28.39-.2,35-5.09 C 324.64,337.4,325.92,339.24,327.49,341.6Z"/>
    <path d="M 307.15,295.88 c -14.75,2.63-24.25-4.25-24.25-4.25 C 290.65,300.63,298.9,298.88,307.15,295.88Z"/>
    <path d="M 309.55,348.2 a 2.57,2.57,0,1,0-2.57-2.57 A 2.57,2.57,0,0,0,309.55,348.2Z m 0-4.08 a 1.51,1.51,0,1,1-1.51,1.51 A 1.51,1.51,0,0,1,309.55,344.12Z"/>
    <path d="M 320,385.71 s -9.58,23.17-28.33,37.5 C 311.22,410.13,315.22,400,320,385.71Z"/>
    <path d="M 300.64,430.13 c 8.83-1.83,17.25-11.08,19.67-18 C 313.3,423.38,300.64,430.13,300.64,430.13Z"/>
  </g>
<script type="text/ecmascript" xlink:href="param.min.js"/> 
</svg>
