<?xml version="1.0"?>
<svg xmlns="http://www.w3.org/2000/svg" xmlns:xlink="http://www.w3.org/1999/xlink" viewBox="0 0 215 215">
  <title>midi-crew-neck-baggy-t-shirt-voluptuous</title>
  <g id="skin-tone">
    <path d="M 85.3,135.36 a 83.57,83.57,0,0,0,2.39,18.21 c 4.07,16.49,10.35,28.88,12.65,31.57 s 7.73,5.27,12.3,2.71,5.4-6.11,6.31-13.35,1.95-25.65,2.35-32.06 c .1-1.59.25-3.82.43-6.28 A 103,103,0,0,0,85.3,135.36Z" fill="param(skin_tone)"/>
  </g>
  <g id="main-colour">
    <path d="M 89.71,106 C 88.21,110.3,80,135.38,79,137 c 1.33,2.17,6.42,3.33,6.42,3.33 l -.08-4.75 a 99.5,99.5,0,0,1,20.42-1.42,138,138,0,0,1,16,1.75 c -.18,1.15-.33,4.25-.33,4.25 s 5.75-1.08,6.92-2.75 c -.92-4-4.89-14.37-4.39-24.47 l .67-6.08 c .1-9.16-7.91-16.21-17.06-16.31-7-.08-13.31,3.83-15.81,9.94Z" fill="param(main_colour)"/>
  </g>
  <g id="outline">
    <path d="M 129.44,137.63 c -1.83-2.42-3-11.17-3.67-13.58-.28-1-.69-3.57-1.06-6.17-.22-3.91,1.29-7.31,1.29-10.53 a 18.44,18.44,0,0,0-35.89-5.94 s -1.36,4-2.23,6.44 c -.06.16-.1.31-.14.46-.88,2.47-2.64,7.2-3.24,9.11-.75,2.38-3.56,13.88-6.62,19.81 a 13.52,13.52,0,0,0,6.33,3.51,84,84,0,0,0,2.39,13.73,131.84,131.84,0,0,0,11.55,29.19,11.12,11.12,0,0,0,.83,1.46v0 h 0 a 11.08,11.08,0,0,0,20-3.76 h 0v0 c .05-.24.09-.48.13-.72 A 139.49,139.49,0,0,0,121,166 c .13-3.69.81-16,1.3-25.15 C 123.83,140.42,127.78,139.16,129.44,137.63Z m -2.69.09 a 23,23,0,0,1-4.37,1.77 l .13-2.46 C 124.44,137.31,125.9,137.57,126.75,137.72Z m -40-21.36 c 1.6-4.79,3.28-9.31,3.28-9.31 h 0 l .05-.16 c .64-1.64,1.29-3.18,2-5 a 16.67,16.67,0,0,1,15.51-11 A 16.44,16.44,0,0,1,124,107.35 c -.25,2.94-1.11,4.69-1,8 h 0 a 10.52,10.52,0,0,0,.15,1.36 c .2,1.82.59,5.05.94,7 a 107.14,107.14,0,0,0,3.16,12.74 c -25.9-6-42.8-1.75-46.88-.51 C 82.62,130.86,85.27,120.8,86.76,116.36Z m -6.31,21.18q1.67-.54,3.49-.94.05,1.34.15,2.72 A 12.77,12.77,0,0,1,80.45,137.54Z m 38.31,28.7 c -.19,3.22-.47,6.25-.8,8.83-.21,1.63-.53,3.47-.77,4.74,0,.24-.06.47-.1.7 s -.13.59-.19.85 h 0 A 9.08,9.08,0,0,1,100,183 h 0 l -.15-.24 c -1.73-2.89-9.63-20-12-32.74 a 103.18,103.18,0,0,1-1.53-13.87 c 11.5-1.95,25.84-.55,34.23.62 C 120.11,145.36,119,161.51,118.76,166.25Z"/>
  </g>
<script type="text/ecmascript" xlink:href="param.min.js"/> 
</svg>
