<?xml version="1.0"?>
<svg xmlns="http://www.w3.org/2000/svg" xmlns:xlink="http://www.w3.org/1999/xlink" viewBox="0 0 600 600">
  <title>basic-crew-neck-t-shirt-curvy</title>
  <g id="main-colour">
    <path d="M 254.57,251 c -2.75,22.25,4.63,35.5,7.25,40.25 s 4.63,8.5,5.5,15.13 c 1.38,11.88-6.87,19.38-14.12,29.88 a 66.43,66.43,0,0,0-5.4,9.41,43.55,43.55,0,0,1,14.57-1.25 c 10.88.75,24.38,5.88,31.88,7.25,7.17,1.31,29.64,7.3,51.15-7.13-.64-1.53-1.37-3.08-2.15-4.52-2.67-4.92-5.58-8.25-8.08-16 s -1.58-17.67-.5-22.83,2.75-9.08,5.08-15.67 a 60.47,60.47,0,0,0,3.75-23.25 c -.33-9.33-3.26-14.6-3.26-14.6 h 0 a 12.69,12.69,0,0,0-6.41-19.85 h 0 c -4-2.33-11.4.46-11.4.46 s -.08.22-.47.27 c 1.42,5.56,1.42,17.61-10.7,19.63 C 297,250.5,286.36,243,281.48,237.88 a 33.9,33.9,0,0,1-5.68-8.52 l -.23.12 a 54.44,54.44,0,0,0-11-3.12,13.69,13.69,0,0,0-13.87,6.13 C 246.07,241.22,250.57,248.1,254.57,251Z" fill="param(main_colour)"/>
  </g>
  <g id="outline">
    <path d="M 347,344.72 a 53.59,53.59,0,0,0-7.1-14.49 c -3.57-6.17-7-11.63-4.71-27.38,1.29-8,6-17.12,8.13-26.56,0,0,1.53-10.09.8-15.2-.56-6-2-11.31-3.9-13.47 l .08.21 c .12.33.38,1.09.69,2.22,1.2,4.53,3,15.26-.66,30.88-2.77,9.31-7.06,18.2-7.51,28.05-.62,13.75,2.14,18.35,5.94,24 a 50.87,50.87,0,0,1,5.7,11.07 c -23,15-49.79,7.48-67.27,2.2-14.79-4.47-24.67-2.62-27.5-1.9,2.58-5,8.69-13.84,12.46-18.83 s 6.65-10.08,6.32-17.3 c 1.58,6,2.29,11.43,3.39,19.45.18-11.14-1.37-24.22-7.64-33.77-2.53-4.85-5.46-9.24-7.59-19.72 a 83.89,83.89,0,0,1-1.13-21.29v-.18 l 0-.25,0-.33 c 0-.29,0-.45,0-.45 h 0 l .08-.93 a 12.7,12.7,0,0,1,6.69-23.5 h 0 c .43,0,.87,0,1.32.07 a 39.48,39.48,0,0,1,6.89,1.43 l .87.26.08,0 c 1.21.38,2.42.8,3.61,1.21 a 33.63,33.63,0,0,0,31,19.26 c .94,0,1.9,0,2.89-.1,5.34-.35,9.33-2.41,11.86-6.13 A 18.08,18.08,0,0,0,323,229.12 a 15.19,15.19,0,0,1,10.76-1.36 s -3-2.13-8.11-1.29 a 17.86,17.86,0,0,0-4.93,1.83 l .23.87 h 0 c 0,.09.06.2.08.3 l .12.47 c .72,3,.73,8.21-2,12.17-2.17,3.18-5.65,5-10.34,5.26-19.35,1.29-28.31-11.36-31-16.23,0,0-.31-.7-.94-1.94 l -1.83-.74 a 42.52,42.52,0,0,0-10.9-3.13 l -.61-.07 a 11,11,0,0,0-1.2-.06,14.7,14.7,0,0,0-8.79,26.48,93.51,93.51,0,0,0,.74,20.13 c 1.75,12.27,5.5,17.39,9.13,24.39 s 6.07,17.93-2.62,28.16 c -7.27,8.55-11.72,16-14.46,22.82 l 1.33-.49 h 0 c 7.67-3.17,22.83-.83,32.17,2 s 20.67,6.5,37.83,6 a 52,52,0,0,0,28.06-9.13Z"/>
    <path d="M 254.11,341.54 s 8-2.08,23.5,2.58,39.75,11,58.75,1.92 c -8.25,2.5-15.33,4.7-30.83,3.5 C 288.27,348.21,263.36,336.88,254.11,341.54Z"/>
    <path d="M 295.27,249.77 a 33.68,33.68,0,0,1-20.75-17.56 c 2.92,7.58,9.58,14.75,20.42,18.08 s 21.42,2.67,26.5-3.5 a 16.13,16.13,0,0,0,3.5-14.92 c .17,1.5.75,8.08-3.08,13.25 S 310.36,254,295.27,249.77Z"/>
  </g>
<script type="text/ecmascript" xlink:href="param.min.js"/> 
</svg>
