<?xml version="1.0"?>
<svg xmlns="http://www.w3.org/2000/svg" xmlns:xlink="http://www.w3.org/1999/xlink" viewBox="0 0 600 600">
  <title>voluptuous-top-template</title>
  <g id="main-colour">
    <path d="M 245.85,270.13 s 38.75-11,63.5-33.25 c 9,2,22,5.75,31.25,12 s 17.5,23.75,2.75,35.75 c -2.75,8-4.25,13.25.5,20.25 s 16.25,24.5,23.25,55.75,10,73.5,8.5,101.75 c -9-1.25-21.25-.25-35.5,5 s -38.25,16-72.25,13.75-43.25-15.5-43.25-15.5,7-10,3.5-30-9.5-54-3-81.25,17.25-37.5,22.25-44.75,6-13,2.75-22.75 A 106.35,106.35,0,0,1,245.85,270.13Z" fill="param(main_colour)"/>
  </g>
  <g id="outline">
    <path d="M 269.68,279.3 s 3.67,17.75,22.5,16.17 C 285.35,294.88,275.68,291.3,269.68,279.3Z"/>
    <path d="M 374.68,392.54 c -2.83-24.17-11.17-52.33-18-67.67 s -11.17-19.33-13.33-23.33-1.17-9.33.67-15.67 c 11.33-8.83,9.17-20.67,7.33-26 s -9.5-12.67-15.83-15.67-22.17-8.33-22.17-8.33,8.17-9,10-12.33 a 5.72,5.72,0,0,0-1.67-4,115.58,115.58,0,0,1-12.83,15.33 A 94.61,94.61,0,0,1,278.52,220 a 6.81,6.81,0,0,0-1.67,4 c 5,4.17,18.33,10.5,28.67,13.67-26,21.83-60.88,31.5-60.88,31.5 A 84.51,84.51,0,0,0,247.85,284,40.49,40.49,0,0,1,251,296.71 c .44,6.21-4.5,12.13-9.5,19 s -14.83,19.21-18.83,45.54.5,57.33,2.5,66.17,5.83,25.83-2.33,38.83 c 34.5,30.83,97.67,10.67,110.67,5.17 s 31.33-10.33,43.83-7.5 C 377.35,454.88,377.52,416.71,374.68,392.54Z m -.17,68.17 A 74.6,74.6,0,0,0,348.35,463 c -13,3.83-28,11.33-44.5,14.17 s -55.5,7.83-77.5-11.67 c 6-11.17,4.17-24.83,1.5-38.67 s -6.17-40.17-2.83-63,13.33-39.67,21.33-50.67,7.83-17.67,5-26.17-4-14-4.13-16 c 0,0,14.58-3.46,35.5-14.87 s 27.54-17.67,27.54-17.67,7.08,1.67,16.17,4.75,18.25,9.33,21.17,14.58,6.08,17.5-5.67,26.58 c -2.25,6.83-3.08,12.08-1.33,16.92 s 6.42,9.17,11.08,18.25,11.17,28.17,14.67,43.67,7.33,31.5,8,75.67 C 374.68,451.54,374.52,460.71,374.52,460.71Z"/>
  </g>
<script type="text/ecmascript" xlink:href="param.min.js"/> 
</svg>
