<?xml version="1.0"?>
<svg xmlns="http://www.w3.org/2000/svg" xmlns:xlink="http://www.w3.org/1999/xlink" viewBox="0 0 215 215">
  <title>city-classic-top-voluptuous</title>
  <g id="main-colour">
    <path d="M 124.08,107.72 a 16.57,16.57,0,0,0-31.91-6.46 h 0 s -2.94,4.16-4.78,12.72 a 88.41,88.41,0,0,0,.31,39.59 c 4.07,16.49,10.35,28.88,12.65,31.57 s 7.73,5.27,12.3,2.71,5.4-6.11,6.31-13.35,1.95-25.65,2.35-32.06 S 123,119.21,123,119.21 l .79-8.48 h 0 A 16.62,16.62,0,0,0,124.08,107.72Z" fill="param(main_colour)"/>
  </g>
  <g id="outline">
    <path d="M 120.74,133.77 c -.33,7.12-1.66,27.11-2,32.48-.19,3.22-.47,6.25-.8,8.83-.21,1.63-.53,3.47-.77,4.74,0,.24-.06.47-.1.7 s -.13.59-.19.85 h 0 A 9.08,9.08,0,0,1,100,183 h 0 l -.15-.24 c -1.73-2.89-9.63-20-12-32.74-1.88-10.22-2.41-23.11-.3-33.34 s 4.56-15.39,4.56-15.39 a 13.08,13.08,0,0,0-2.76,3,32.71,32.71,0,0,0-2.58,7.31,82.26,82.26,0,0,0-.22,42.92,131.84,131.84,0,0,0,11.55,29.19,11.12,11.12,0,0,0,.83,1.46v0 h 0 a 11.08,11.08,0,0,0,20-3.76 h 0v0 c .05-.24.09-.48.13-.72 A 139.49,139.49,0,0,0,121,166 c .18-5.12,1.42-27,1.75-33.61 s 1-21.69,1-21.69 S 121.07,126.64,120.74,133.77Z"/>
  </g>
<script type="text/ecmascript" xlink:href="param.min.js"/> 
</svg>
