<?xml version="1.0"?>
<svg xmlns="http://www.w3.org/2000/svg" xmlns:xlink="http://www.w3.org/1999/xlink" viewBox="0 0 600 600">
  <title>OA032-bikini-bottoms-voluptuous</title>
  <g id="skin-tone">
    <path d="M 349.08,313.37 c -3.74-6.12-7.64-11-8.26-15.9 a 22.77,22.77,0,0,1,.76-6.81,18.78,18.78,0,0,0,6.41-3.37,25.93,25.93,0,0,0,9.33-19.17,24,24,0,0,0-8.67-18.92,16.13,16.13,0,0,0-11.7-21.38v-.39 c -2.24-1.41-6.76-.84-11.76.54-5.58-6-6.4-19.35-6.49-22.47 a 73.85,73.85,0,0,1-37.12.18 c .06,2.13.07,4.29,0,6.29-.37,8.5-6.12,17.25-6.12,17.25 s -7.75-2.87-14.5-3.12-13.12,4.13-15.87,9.63-2.75,12.13,1.5,18.75 c -2.5,13.63.38,23.13,3.75,34 s .5,15.5-3.37,21.38 l -7.13,12 A 107.54,107.54,0,0,0,231.94,340 a 56.16,56.16,0,0,0-2.41,23.67 c -.59,10.54.21,21.65,3.91,29.75,8.77,16.25,24.06,22.91,39.56,21.75 s 24.93-12.78,24.93-12.78 l .48-.25 A 38.43,38.43,0,0,0,359,370.72 s 2.52-25.17-4.86-46.31 h 0Z" fill="param(skin_tone)"/>
  </g>
  <g id="main-colour">
    <path d="M 272,333.77 s 4.13.38,16,3.63,24.63,7.38,36.5,4.63,12.38-7.5,21.5-10.75 a 125.86,125.86,0,0,0-17.5,22.88 A 197.72,197.72,0,0,0,316,379.27 c -1.87,4.75-4.12,6.63-8.62,6.38,1-14-.12-23.87-5-30.5 S 293,343.4,272,333.77Z" fill="param(main_colour)"/>
  </g>
  <g id="outline">
    <path d="M 245.77,253 s -3.17,14,.67,26.33,8.19,18.93,0,29.83 c -18.82,25.06-17.91,48.27-17.91,66.83 h 2 s -1.39-26.08,6.79-46.25 c 4.5-10.17,8.79-16.58,13-23.08 s 2.93-14.62.92-20.08 a 60.83,60.83,0,0,1-3.7-31.06 C 246.32,253.83,245.77,253,245.77,253Z"/>
    <path d="M 260.77,225.06 a 46.86,46.86,0,0,1,14.59,3.16 c 8.08,3.08,13.5,4.58,18.58,4.5-5.5,1.67-12.17-.25-15.75-1.58 s -10.84-4.08-17.42-4.08 C 260.77,225.89,260.77,225.06,260.77,225.06Z"/>
    <path d="M 336.95,227.44 a 20.2,20.2,0,0,0-10.59,1.21 c -5.42,2.24-12.67,4.66-16.5,4.08,3.75-.33,10.51-2.75,13.55-4.5 S 332.29,224.73,336.95,227.44Z"/>
    <path d="M 343.65,302.42 c -2-3.64-2.1-6.54-.9-11.87-1,.5-2,.9-2.88,1.21-1,4.83-.18,9.45,4.24,15.89 C 362.66,330.52,359,371.89,359,371.89 c 1.9-.54,1.9-3.71,1.9-12.16 C 360.95,321,346,306.54,343.65,302.42Z"/>
    <path d="M 308.72,243.89 s 15.75,9.13,14.75,25.5-12.12,24.75-19.75,27.38-29.12,7.13-38.62-19.12 c 0,0,8.88,22,30.88,18.38 s 25.25-21.25,25.13-28.25 S 318,252.14,308.72,243.89Z"/>
    <path d="M 319.75,205.21q-1,.29-2,.54 c 0,5.85.82,17.23,6.61,22.84.81-.44,1.81-.87,1.81-.87 S 319.76,221.71,319.75,205.21Z"/>
    <path d="M 247.67,253.8v0 a 16.56,16.56,0,0,1,13.1-26.72 h 0 a 40.34,40.34,0,0,1,11.52,2,18.56,18.56,0,0,0-24.93,27.37Z"/>
    <path d="M 280.43,205.39 c 0,.27,0,.54.06.83.93,12.63-6.18,22.38-6.18,22.38 a 14.23,14.23,0,0,0,2.13.83 c 5.8-8.33,6.49-17.79,6.25-23.46Q281.55,205.7,280.43,205.39Z"/>
    <path d="M 297.75,401.44 A 38.43,38.43,0,0,1,230.53,376 h 0 c -.12-2.23.11-9.86.22-13.18 a 40.42,40.42,0,0,0,69.46,38.83 A 16.51,16.51,0,0,1,297.75,401.44Z"/>
    <path d="M 306.27,385.49 a 13.76,13.76,0,0,1,0,2.21 c 1.82-.26,6.78-.62,9.52-5.76 A 13.69,13.69,0,0,1,306.27,385.49Z"/>
    <path d="M 306.27,385.49 h 0 a 38.45,38.45,0,0,1-74.55-.2 l -2.09-.18 a 40.43,40.43,0,0,0,78.71.29Z"/>
    <path d="M 329.22,236.6 a 164.8,164.8,0,0,0,16.71,9.92 c 6.85,3.36,13.85,11.32,12.48,24.44 s -11.89,19.18-16.27,20.81 a 16.89,16.89,0,0,1-13.87-.62 c 6.13,1.63,16.63-.62,22.38-8.12 s 6.46-14.5,4.46-22.17 c -1.7-6.51-7.62-11.78-12.83-14.58 C 337.76,243.85,330.8,238.81,329.22,236.6Z"/>
    <path d="M 316.5,318 s -5.07,8.72-2.58,9.44 c 1,.2,1.7-1.44.9-3.34 A 29,29,0,0,1,316.5,318Z"/>
    <path d="M 354.47,324.9 S 347.65,329,341.1,333 c -8.37,5.13-12.5,10.13-32.12,8.13 s -51.92-17.42-73.75-8 a 15.29,15.29,0,0,1-.58,2.33 c 4.67-3,21.08-4.5,29.83-2.46 s 26,8.25,34.5,18.88,9.5,23.63,7,34.88 a 8.07,8.07,0,0,0,9.78-4.84 c 2-4.66,12.72-27.78,21.1-38.66 s 17.75-15.87,18.38-16 A 11.8,11.8,0,0,0,354.47,324.9Z M 315.1,379.27 c -1.5,4.38-3.62,5.38-7,5.38 a 45,45,0,0,0-3.54-27.42 c -6.41-13.92-29.83-22.58-29.83-22.58,30.67,8.08,46.5,15.88,66.63-.12 C 328.6,348.77,316.6,374.9,315.1,379.27Z"/>
    <path d="M 235.47,333.73 l -.87-1.58 s -15-.25-18.75,9.38 c -3.51,9,8.06,6.17,16.12-4.54-1.13,2.83-3.23,7.34-5.91,9.75-4.08,3.67-4.17,8.08-2.67,11.25-.17-2.75-.25-6.25,2.5-8.67 a 25,25,0,0,0,5.7-8.47,28.87,28.87,0,0,0,.71,8.63 c .5,2.42.67,5.33-.33,7.58,1.75-.58,2.42-5,1.08-9.25 a 16.93,16.93,0,0,1-.16-7 c .83,6.87,6.6,11.59,7.24,5.25 C 241.17,336,235.47,333.73,235.47,333.73Z M 220,344.15 c -3.91,1.07-3.5-2.12.25-5.87,5-5,12.75-5,12.75-5 C 230,338.23,224.1,343,220,344.15Z m 14.83-.58 c -1.83-4.5,0-9.83,0-9.83 a 13.66,13.66,0,0,1,4,8.83 C 239.31,348.4,236.64,348.07,234.81,343.57Z"/>
    <path d="M 365.31,337.23 c 2.83-6.67-10.17-12.33-10.17-12.33 S 362.47,343.9,365.31,337.23Z m -2-.83 c -1.67.67-6.5-9.83-6.5-9.83 C 363.64,330.73,365,335.73,363.31,336.4Z"/>
    <path d="M 357,330.4 s -1.33-1.17-.17,1.75 c 2.83,8.92,5.33,10.92,8.83,10.92 C 361.31,341.73,357,330.4,357,330.4Z"/>
  </g>
<script type="text/ecmascript" xlink:href="param.min.js"/> 
</svg>
