<?xml version="1.0"?>
<svg xmlns="http://www.w3.org/2000/svg" xmlns:xlink="http://www.w3.org/1999/xlink" viewBox="0 0 150 150">
  <title>BT002_OA029</title>
  <g id="skin-tone">
    <path d="M 69.23,81.44 s 1.37-2.77.56-4.33 a 5.56,5.56,0,0,1,2.13-6.87,5.66,5.66,0,0,1,7.69,1.31,5.74,5.74,0,0,1,.56,5.81 c -.5,1.06.2,3.53.76,4.08-1.38.9-2.42,2.21-2.49,3.11 a 10.67,10.67,0,0,1-5.88-.14,7.78,7.78,0,0,0-2.08-2.49Z" fill="param(skin_tone)"/>
  </g>
  <g id="main-colour">
    <path d="M 69.58,81.58 s 2.7,1,3,2.84 c 1.59.69,5.26.62,5.88.14 a 13.25,13.25,0,0,1,2.49-3.11 A 48.46,48.46,0,0,0,83.27,86 c 1.38,2.35,1.11,6.09.9,7.82 a 5.32,5.32,0,0,0,1,4.57 c 1.25,1.59,4.7,8.58,3,13.7-.55,1.87-1.69,3.55-6.31,4.47 s -12.78,1.34-15.83-.67-2.84-5.74-2.21-8.92 a 25.87,25.87,0,0,1,3.11-7.68 c .62-.9.48-2.77-.21-4.5 s -.14-4.63.48-6.43Z" fill="param(main_colour)"/>
  </g>
  <g id="fixed-colours">
    <ellipse cx="71.5" cy="87.89" rx="0.81" ry="1.02" fill="#bcbec0"/>
    <ellipse cx="79.97" cy="87.86" rx="0.81" ry="1.02" transform="translate(-7.58 7.56) rotate(-5.17)" fill="#bcbec0"/>
    <ellipse cx="80.31" cy="91.42" rx="0.81" ry="1.02" transform="translate(-7.9 7.6) rotate(-5.17)" fill="#bcbec0"/>
    <ellipse cx="80.84" cy="95.02" rx="0.84" ry="1.06" transform="translate(-8.77 8.22) rotate(-5.52)" fill="#bcbec0"/>
    <ellipse cx="81.69" cy="99.03" rx="0.87" ry="1.09" transform="translate(-17.15 17.11) rotate(-10.83)" fill="#bcbec0"/>
    <ellipse cx="71.11" cy="91.39" rx="0.81" ry="1.02" fill="#bcbec0"/>
    <ellipse cx="70.8" cy="95.05" rx="1.02" ry="0.81" transform="translate(-29.47 158.25) rotate(-85.54)" fill="#bcbec0"/>
    <ellipse cx="70.23" cy="99.03" rx="1.09" ry="0.87" transform="translate(-33.97 161.35) rotate(-85.54)" fill="#bcbec0"/>
  </g>
  <g id="outline">
    <path d="M 89.17,104.66 a 29.42,29.42,0,0,0-3.34-7.12 c -.74-1-1.22-1.13-.85-2.7 a 17.77,17.77,0,0,0,0-6,16.91,16.91,0,0,0-1.94-5.14 C 82.12,82,80.55,80,81.27,77.81 A 7.31,7.31,0,0,0,81.75,75,6.76,6.76,0,0,0,75,68.25 h 0 A 6.76,6.76,0,0,0,68.25,75 a 8.09,8.09,0,0,0,.63,3.24 h 0 a 11.2,11.2,0,0,1-1.25,5.06 c -1.43,3.2-2.44,7.56-2.21,9.75 s 1.54,4.13.67,5.51-3.57,5.81-3.76,9.89.44,6,1.11,7,2.21,2.12,7.33,2.79,12.06-.35,14.76-1.8,3.69-2.93,3.92-4.73 A 23.92,23.92,0,0,0,89.17,104.66Z M 75,70.25 h 0 A 4.75,4.75,0,0,1,79.75,75 a 4.7,4.7,0,0,1-.49,2.07 c -.39,1.17.09,2.76.7,4.46 A 7.56,7.56,0,0,0,78.17,84,7.17,7.17,0,0,1,72.89,84 a 6.37,6.37,0,0,0-2.62-2.74 c .31-2.2.61-3.83.3-4.56 A 4.72,4.72,0,0,1,75,70.25Z M 80.25,92 c .12-.43.08-.62,0-.71 a .27.27,0,0,0-.12-.28 l -.33-.14 a .58.58,0,0,1,.41-.28 c .36,0,.7.3.75.77 a .77.77,0,0,1-.56.91.57.57,0,0,1-.43-.16Z m .44,3.6 c .14-.3.11-.48,0-.59 a .72.72,0,0,0-.05-.56 l -.31-.12 a .58.58,0,0,1,.34-.17.93.93,0,0,1,.16,1.79.62.62,0,0,1-.48-.2Z m -1-.49-1,.37 c -.05-.28-.1-.57-.13-.87 l 1.1.4 S 79.69,95.07,79.69,95.11Z m -1.57.6 L 76,96.53 l -2.4-.89q.07-.57.13-1.15 L 76,93.65 l 1.94.7 C 78,94.81,78,95.26,78.12,95.71Z m .15.86 c .06.3.13.59.2.88 L 77.19,97Z M 74.67,97 l -1.39.52q.09-.48.16-1Z M 71,94.55 a .53.53,0,0,0-.09.42 c -.25.22-.07.63-.07.63 l .37.14 a .62.62,0,0,1-.48.2.93.93,0,0,1,.16-1.79.61.61,0,0,1,.43.27Z m 1.89.86-.84-.31.9-.33 C 73,95,72.94,95.19,72.92,95.41Z m .88-1.95q0-.29,0-.57 l .77.28Z m 3.5-.3.48-.18 c 0,.12,0,.25,0,.37Z M 76,92.67 l -2.07-.74q0-.57,0-1.12 l 1.71-.67,2,.83 c 0,.36,0,.71.06,1.08Z m -4.74-1.75 a 1,1,0,0,0-.06.35 c -.16.17-.26.42.13.71 l .26.09 a .6.6,0,0,1-.5.21.77.77,0,0,1-.56-.91 c .05-.46.39-.81.75-.77 a .55.55,0,0,1,.33.19Z m 2.71-1.07 c 0-.14,0-.29,0-.43 l .53.22Z m -.75,1.82-.77-.27.78-.3Q73.18,91.38,73.17,91.67Z m 5.18-.42.75.31-.73.25 C 78.36,91.62,78.35,91.44,78.35,91.25Z m -1.46-1.62.73-.3 c 0,.2,0,.4,0,.61Z m -1.17-.49-1.84-.77 a 15.2,15.2,0,0,0-.38-2.81 c 0-.19-.11-.37-.17-.55,2.52.6,3.89.34,4.52.1 a 5,5,0,0,0-.11.59 c -.06.74-.1,1.67-.12,2.69Z M 65.22,114.3 c -.83-1.18-1.11-6-.28-8.78 s 3.74-5.95,3.46-8.09 S 67,94,67.64,90.71 s 1.91-5.84,2.43-8.33 a 6.35,6.35,0,0,1,2.87,4.16,10.5,10.5,0,0,1,.19,1.53 l -.65-.27 a 1.13,1.13,0,0,0-.9-1.19,1.31,1.31,0,0,0-.22,2.56,1,1,0,0,0,.85-.45 l 1,.41 c 0,.33,0,.67,0,1 L 72,90.62 a .94.94,0,0,0-.69-.46 A 1.31,1.31,0,0,0,71,92.71 a 1,1,0,0,0,.92-.51 l 1.22.43 c 0,.37,0,.74-.07,1.1 l -1.34.52 a 1,1,0,0,0-.78-.57,1.39,1.39,0,0,0-.24,2.71,1,1,0,0,0,.93-.51 l 1.17.44 c -.07.54-.15,1-.25,1.49 l -1.33.49 a 1,1,0,0,0-.71-.63,1.45,1.45,0,1,0,.8,1.63 s 0-.1,0-.15 l 1-.37 a 11.8,11.8,0,0,1-2.52,4.94,11.31,11.31,0,0,0-3,5.76,25.41,25.41,0,0,0-.06,5.75 A 3.36,3.36,0,0,1,65.22,114.3Z m 6.52-26.81 a .7.7,0,0,0-.27.91 l .36.15 a .58.58,0,0,1-.44.18 A .87.87,0,0,1,71.54,87 a .68.68,0,0,1,.56.59Z m -1.27,12,.39-.14 A .81.81,0,0,1,70,100 a 1,1,0,0,1,.41-1.82.63.63,0,0,1,.39.31 l -.5.17 A .52.52,0,0,0,70.47,99.47Z m -3.06,16 a 17.68,17.68,0,0,1,.45-7.52 c 1.15-3.18,2.72-3.41,4.29-6.55 a 13.24,13.24,0,0,0,.93-2.92 l 2.79-1,2.89,1.06 c 1.12,3.45,3.18,4.68,4,7.59.75,2.53.64,7.48.58,9.21 a 27.63,27.63,0,0,1-7.59,1.1 A 28.84,28.84,0,0,1,67.42,115.5Z m 18.48-1.2 a 8.5,8.5,0,0,1-2,.88,47.23,47.23,0,0,0,.08-6.32,12.56,12.56,0,0,0-2.4-6.5,18.54,18.54,0,0,1-1.89-3.47 l .88.31 s 0,.08,0,.13 a 1.17,1.17,0,1,0,.77-1.65,1,1,0,0,0-.68.59 l -1.39-.51q-.22-.68-.4-1.44 L 80,95.9 a 1,1,0,0,0,.92.5,1.39,1.39,0,0,0-.24-2.71,1,1,0,0,0-.74.46 l -1.43-.54 c 0-.29-.05-.59-.07-.88 l 1.17-.46 a 1,1,0,0,0,.87.43,1.31,1.31,0,0,0-.28-2.55,1,1,0,0,0-.73.56 l -1.13-.48q0-.62,0-1.19 l .89-.38 a 1,1,0,0,0,.88.49,1.31,1.31,0,0,0-.22-2.56 A 1.15,1.15,0,0,0,79,87.87 l -.6.24 a 16,16,0,0,1,.35-2.86,7.25,7.25,0,0,1,1.66-2.79 l .07.16 c 1,2,3.6,6.36,3,9.68 s -.62,4.43.28,5.6,3.94,5.4,4,10.51 S 86.66,113.74,85.9,114.3Z M 81.68,98.63 l -.55-.2 a .62.62,0,0,1,.36-.28,1,1,0,0,1,.44,1.81.81.81,0,0,1-.87-.61 l .43.14 A .76.76,0,0,0,81.68,98.63Z m -2-11-.31.12 a .7.7,0,0,1,.57-.68.87.87,0,0,1,.15,1.68.59.59,0,0,1-.49-.21 l .35-.16 A .49.49,0,0,0,79.65,87.6Z"/>
    <path d="M 71.3,104.27 a 23.3,23.3,0,0,1,9.75,0 C 79.19,103.16,74.07,102.47,71.3,104.27Z"/>
  </g>
<script type="text/ecmascript" xlink:href="param.min.js"/> 
</svg>
