<?xml version="1.0"?>
<svg xmlns="http://www.w3.org/2000/svg" xmlns:xlink="http://www.w3.org/1999/xlink" viewBox="0 0 600 600">
  <title>basic-tank-top-curvy</title>
  <g id="main-colour">
    <path d="M 335.15,324 c -2.5-7.75-1.58-17.67-.5-22.83 s 2.75-9.08,5.08-15.67,4.84-13.39,4.51-22.72 c 0-.35,0-.68-.06-1-1.87-4.68-5-9.33-8.57-14.35-4.62-6.5-7.62-16.75-9-20.12 a 15.79,15.79,0,0,0-4.09,1.09 l 0,0 c 4.5,10.88,2.71,24.88-9.5,26.25-22.25,2.5-31.5-21-32.5-28.25 a 3,3,0,0,0-.18-.66,14.23,14.23,0,0,1-4.07,2.91 c 3.5,11.25-1.25,29.13-9.25,33.5 a 23,23,0,0,1-12.9,2.75,59.13,59.13,0,0,0,7.72,26.34 c 2.63,4.75,4.63,8.5,5.5,15.13,1.38,11.88-6.87,19.38-14.12,29.88 a 66.45,66.45,0,0,0-5.44,9.5,33,33,0,0,1,12-1.4 c 9.75.5,16.13,2.5,24.56,4.78 s 21.81,5.53,33.44,4.47 c 10.08-.92,21.85-3.78,27.65-9-.64-1.54-1.37-3.1-2.16-4.55 C 340.57,335.06,337.65,331.72,335.15,324Z" fill="param(main_colour)"/>
  </g>
  <g id="outline">
    <path d="M 254.11,341.54 s 8-2.08,23.5,2.58,39.75,11,58.75,1.92 c -8.25,2.5-15.33,4.7-30.83,3.5 C 288.27,348.21,263.36,336.88,254.11,341.54Z"/>
    <path d="M 304.23,283.15 c -8.46,4.78-13.95,5.54-21.42,5 C 289.71,291.7,299.52,289.12,304.23,283.15Z"/>
    <path d="M 341.12,253.61 c -.44-.52-6.2-7.7-8.66-11.36 l -.39.39 a 83.33,83.33,0,0,0,5.66,9.38 c 5.79,8.23,6.87,16.42,3.85,23.89-.7,2.37-1.27,5-1.67,6.36-2.76,8.82-6.67,17.33-7.09,26.71-.62,13.75,2.14,18.35,5.94,24 a 50.87,50.87,0,0,1,5.7,11.07 c -23,15-49.79,7.48-67.27,2.2-14.79-4.47-24.67-2.62-27.5-1.9,2.58-5,8.69-13.84,12.46-18.83 s 6.65-10.08,6.32-17.3 c 1.58,6,2.29,11.43,3.39,19.45.18-11.14-1.37-24.22-7.64-33.77-2.53-4.85-5.46-9.24-7.59-19.72 a 66.63,66.63,0,0,1-1.18-9.3 l -1.87-.15 c .15,2.21.39,4.61.75,7.14,1.75,12.27,5.5,17.39,9.13,24.39 s 6.07,17.93-2.62,28.16 c -7.32,8.6-11.78,16-14.51,22.94.59-.28,1.11-.5,1.52-.66,7.71-3.08,22.75-.77,32,2 s 20.67,6.5,37.83,6 a 52.44,52.44,0,0,0,27.47-8.7 h 0 l 0,0,.16-.11.31-.22.36-.27 h 0 c .32-.26.64-.53.94-.8 a 53.73,53.73,0,0,0-7.05-14.34 c -3.57-6.17-7-11.63-4.71-27.38,1.21-7.45,5.39-15.9,7.66-24.66 a 26.14,26.14,0,0,0,2.58-6.3,20.54,20.54,0,0,0-1.78-14.35 A 35.72,35.72,0,0,0,341.12,253.61Z"/>
    <path d="M 275.08,228.47 a 38.9,38.9,0,0,1-1.66,24.22 c -5.7,13.57-19.94,11.19-19.94,11.19 l .19,2 s 15.75,1.69,21.44-12.62 a 40.43,40.43,0,0,0,1.63-25.75Z"/>
    <path d="M 279.25,225.5 s 2.94,9.57,4.13,12 c 2.76,5.75,12.71,19.21,27.63,18,14.36-1.2,17-14.12,11.94-28.29 l -1.42.75 s 5.26,10.65.9,19.29 c -4.67,9.26-18.46,9-28.64.86 s -11.2-18.4-13-24.23 A 7.19,7.19,0,0,1,279.25,225.5Z"/>
    <path d="M 275.08,228.47 s 4.37-2.58,5.66-4.6 a 20.28,20.28,0,0,1,.61,2.38,30,30,0,0,1-5.87,4.06 A 9.45,9.45,0,0,0,275.08,228.47Z"/>
    <path d="M 321.52,228 a 10.33,10.33,0,0,1,5.5-1.75,1.19,1.19,0,0,0,.26,1.25 s -3.36.45-5.15,1.87 A 8.12,8.12,0,0,0,321.52,228Z"/>
    <path d="M 326,226.25 s 3.34,11.06,6,16.39 a 43.13,43.13,0,0,0,5.22,8.24 l .5-1.46 a 71.62,71.62,0,0,1-6.58-11.79 c -2.37-5.79-4.18-11.42-4.18-11.42Z"/>
  </g>
<script type="text/ecmascript" xlink:href="param.min.js"/> 
</svg>
