<?xml version="1.0"?>
<svg xmlns="http://www.w3.org/2000/svg" xmlns:xlink="http://www.w3.org/1999/xlink" viewBox="0 0 215 215">
  <title>professionally-pink-voluptuous</title>
  <g id="main-colour">
    <g id="skin-tone-2" data-name="skin-tone">
      <path d="M 124.08,107.71 a 16.57,16.57,0,0,0-31.92-6.45 h 0 s -2.94,4.16-4.78,12.73 a 88.41,88.41,0,0,0,.32,39.59 c 4.07,16.49,10.36,28.88,12.66,31.56 s 7.73,5.26,12.3,2.71,5.4-6.11,6.31-13.35,1.94-25.65,2.35-32.06 S 123,119.19,123,119.19 l .78-8.48 h 0 A 16.62,16.62,0,0,0,124.08,107.71Z" fill="param(main_colour)"/>
    </g>
  </g>
  <g id="outline">
    <path d="M 107.7,88.95 a 18.61,18.61,0,0,0-17.93,13 c -.77,1.41-1.81,5.37-2.93,9.52 a 82.26,82.26,0,0,0-.21,42.92,131.85,131.85,0,0,0,11.55,29.19,11.08,11.08,0,0,0,20.83-2.3 c 0-.24.09-.48.13-.72 A 139.56,139.56,0,0,0,121,166 c .18-5.12,1.29-27,1.74-33.61.41-6.12,3.11-20.45,3.23-23.09v-.53 c 0-.35.06-.7.06-1.05 A 18.6,18.6,0,0,0,107.7,88.95Z m 14.86,29.43 c -.76,5.09-1.63,11.52-1.81,15.37-.33,7.12-1.66,27.11-2,32.48-.19,3.22-.47,6.25-.8,8.84-.21,1.63-.53,3.47-.77,4.73 a 4.07,4.07,0,0,1-.1.7 c 0,.23-.13.59-.19.85 A 9.08,9.08,0,0,1,100,183 l -.15-.24 c -1.73-2.89-9.63-20-12-32.73-1.89-10.22-2.42-23.11-.31-33.34.51-2.45,1-4.6,1.54-6.47 A 73.86,73.86,0,0,1,92,101.54 a 16.57,16.57,0,0,1,32,6.22 C 124.08,111,122.56,118.38,122.56,118.38Z"/>
  </g>
<script type="text/ecmascript" xlink:href="param.min.js"/> 
</svg>
