<?xml version="1.0"?>
<svg xmlns="http://www.w3.org/2000/svg" xmlns:xlink="http://www.w3.org/1999/xlink" viewBox="0 0 600 600">
  <title>basic-bikini-top-curvy</title>
  <g id="main-colour">
    <path d="M 256,277.5 s 8.06,4.69,16.75,4.81 c 1.44-10.44,6.69-24.69,10.94-28.5-.87-11.06-5.12-26.81-5.12-26.81 s 3.13-2.31,3.38-3.44 c 2.38,9.06,6.06,23.31,6.38,29.5,5.25,4.69,14.56,13.81,15.94,26.94,3.5-1,9.56-.37,9.56-.37 s 6-19.69,11.94-26.87 c -5.87-10.94-9.94-22.06-10.19-30.56 a 11.37,11.37,0,0,0,3.31,4.31 s 5.31,16.44,11.31,25.63 a 23.73,23.73,0,0,1,11,16.69,37.59,37.59,0,0,1,.25,12.31 s -5,4.42-14.31,4.17-10.56-1.67-16-1.79-7.06.13-8.37.63 c -2.87,2.06-9.5,4.31-17.75,4.13 a 68.85,68.85,0,0,1-28.31-7.5 A 9.66,9.66,0,0,1,256,277.5Z" fill="param(main_colour)"/>
  </g>
  <g id="outline">
    <path d="M 340.52,263.54 c -3.55-9.42-9.5-11.67-9.5-11.67 a 110.37,110.37,0,0,1-11.32-25.08,61.69,61.69,0,0,1-5.1-7.42,84.36,84.36,0,0,0,10.25,33.33,98.08,98.08,0,0,0-11.42,26.17,22.87,22.87,0,0,0-8.45.21 c -1.64-10-6.53-17.44-15.83-26.21-2.75-16-7-31-7-31 s -2.5,3.75-4.25,5 c 2,8.25,4.42,16.33,4.92,26.83-9.25,12.62-10.42,28.17-10.42,28.17 a 62.46,62.46,0,0,1-17.12-5.25,12.58,12.58,0,0,0,1.12,4.5,65.51,65.51,0,0,0,30.5,8,29.68,29.68,0,0,0,16-4.45,32.84,32.84,0,0,1,15,.37 c 8.67,2.5,18,1.33,24-3.33 C 341.86,281.71,344.36,273.71,340.52,263.54Z m .33,17.33 c -8.5,5.33-20.33,3.5-24.67,2.33 a 34.73,34.73,0,0,0-11.42-.08,6.87,6.87,0,0,0-2,.44 c -4.38,3.27-13.15,4-16.87,4 a 70.64,70.64,0,0,1-28.49-7,12.39,12.39,0,0,1-.5-2.12,43,43,0,0,0,16.5,4.63 c 1.63-10.37,5-20.71,10.92-29 a 131.77,131.77,0,0,0-4.79-26.54,11.85,11.85,0,0,0,2.25-2.25 c 1.63,5.88,5.5,23,6,28.25,8.49,7.88,14.39,15.56,15.42,24.88 a 10.2,10.2,0,0,1,0,2.83 c 4.17-1.5,7.75-1.17,11.08-.83,3-8.67,7-19.93,12.25-27.5 C 318.61,240,316.36,225,316.36,225 s .68.71,1.85,1.88 c 3.49,12.5,11.15,25.33,11.15,25.33 a 24.6,24.6,0,0,1,9.33,11 C 340.81,268.57,341.52,273.88,340.86,280.88Z"/>
    <path d="M 289.44,279.71 a 20.81,20.81,0,0,1-.32,4.85,91.57,91.57,0,0,1-13.59-.43 s 17,4.08,25.83-2.25 A 38.5,38.5,0,0,1,290,284.5,13.63,13.63,0,0,0,289.44,279.71Z"/>
    <path d="M 329.11,278.46 a 16.2,16.2,0,0,1-.45,3.42,64.26,64.26,0,0,1-12.72-.42 s 13,3.42,23.67-1.33 a 53.32,53.32,0,0,1-10.35,1.72 C 329.37,281,329.55,279.1,329.11,278.46Z"/>
  </g>
<script type="text/ecmascript" xlink:href="param.min.js"/> 
</svg>
