<?xml version="1.0"?>
<svg xmlns="http://www.w3.org/2000/svg" xmlns:xlink="http://www.w3.org/1999/xlink" viewBox="0 0 150 150">
  <title>basic-flip-flops</title>
  <g id="skin-tone">
    <path d="M 75.9,69.45 c -3.39-.69-7,2.51-6.52,5.93 s 1.41,5.33,1,8.82-2.48,10.48-1.86,14.28 c -1.62,3-2.6,7.39,1.36,9.22,2,1.87,5.31,2.93,7.64.94,2.25.85,3.47.72,4.39-.23,1.65.46,3.27.17,3.47-.94,1.2.19,3.45-.23,3.44-1.69,1.64-1.39,2.29-2.62,1.07-4.45 a 14.52,14.52,0,0,0-3.7-3.4 s -2.48-5.58-4.1-9.31-3.15-7.42-2-10.26 S 81.15,70.52,75.9,69.45Z" fill="param(skin_tone)"/>
  </g>
  <g id="main-colour">
    <path d="M 82.06,95.36 a 11.34,11.34,0,0,1,2.69.81,2.49,2.49,0,0,0-2.16-2.59 c -1.59-.31-6-.12-8.16,3.22-1.34-1.56-3-2.41-4.16-2.22 s -1.62,1.16-.94,2 a 4.08,4.08,0,0,1,5,2.25 C 76.18,96.8,78.56,94.89,82.06,95.36Z" fill="param(main_colour)"/>
    <path d="M 90.78,103.36 c .46.42.83.75.92,2.29 a 35.23,35.23,0,0,1-.42,4.88 s -4.73,4.38-13.62,4.08-11-3.37-11-3.37-1.12-4.08-1-5.46 a 7,7,0,0,1,1.17-2.83 s -.17,4.67,3.38,5 c .75,1.58,4.42,2.46,7.54.83,1.75,1.08,4,.83,4.75-.37 a 2.25,2.25,0,0,0,3.17-1 c 1,.29,3,.42,3.46-1.79 C 89.11,105.65,90.65,104.11,90.78,103.36Z" fill="param(main_colour)"/>
  </g>
  <g id="fixed-colours">
    <path d="M 77.64,104.87 a 4.67,4.67,0,0,0-1.38-2.13 c -1.81-.39-3.68-.3-4,.65 s .57,1.3,1.41,1.14 A 8.14,8.14,0,0,1,77.64,104.87Z" fill="#fff"/>
    <path d="M 81,103.79 a 4.28,4.28,0,0,0-2-.11 c -.84.23-1,1-.6,1.31 s 1.86.15,2.23.12 a 7.37,7.37,0,0,1,1.07.06Z" fill="#fff"/>
    <path d="M 84.38,103.76 a 5.56,5.56,0,0,0-1.75-.09 c -.61.14-.87.81-.61,1.07 s .8.19,1.31.12 l 1.66-.22Z" fill="#fff"/>
    <path d="M 87.05,103 a 3.41,3.41,0,0,0-1.31.25 c -.6.27-.74.83-.36,1.05 s .72-.09,1.12-.24 a 8.15,8.15,0,0,1,1.24-.24Z" fill="#fff"/>
    <path d="M 89.5,101.44 a 3.68,3.68,0,0,0-1.5.12 c -.37.23-.65.87-.27,1 a 1.11,1.11,0,0,0,1-.14 c .33-.16,1-.39,1-.39Z" fill="#fff"/>
  </g>
  <g id="outline">
    <path d="M 92.3,105.61 a 3.5,3.5,0,0,0-1-2.39,4.22,4.22,0,0,0-.41-2.06 c -.43-1-1.72-1.91-3.21-2.88-.54-1.15-2.65-5.64-4.08-8.33 C 82,86.84,80,83.72,80.32,80.69 c .19-1.54,1-2.94,1.25-4.17,0-.1,0-.2.06-.31V76.1 a 6.7,6.7,0,0,0-7.1-7.84 h 0 a 6.76,6.76,0,0,0-6.28,7.18 c .13,2.16,1.25,2.82,1.46,5.83 S 68.67,87,67.95,91.81 a 27.69,27.69,0,0,0-.19,6.09,6.71,6.71,0,0,0-1.42,4.18,8.82,8.82,0,0,0-1,4.21 h 0 l .08.44 c 0,.14,0,.28.08.42 l .78,4.39 s 2.5,3.63,11.13,3.63 c 10.88,0,14.38-4.56,14.38-4.56 l .63-5Z m -2.76-3.69 a 4.93,4.93,0,0,0-1.24.58 c -.3.16-.76-.12-.41-.55 a 1.7,1.7,0,0,1,1.44-.43 A 2.63,2.63,0,0,1,89.54,101.92Z m -.44-.72 c -1.26-.06-1.83.66-1.73,1.23 s 1,.58,1.42.18 a 1.83,1.83,0,0,1,.82-.4,1.59,1.59,0,0,1,.05.23 c .09,1.36.05,2.21-1,2.55 a 2,2,0,0,0-.2-1 c -.67-1.36-3.27-2.86-3.77-4.6 A 4.26,4.26,0,0,0,85.8,102 a 10.24,10.24,0,0,0,.86.81,1.85,1.85,0,0,0-1.63.82.65.65,0,0,0,0,.53,11.53,11.53,0,0,0-1.26-1.47 A 6.91,6.91,0,0,1,82,100 c -.06,1.48,1,2.49,1.82,3.54 a 2,2,0,0,0-2,.58.67.67,0,0,0-.07.19,6.16,6.16,0,0,0-.54-.69 c -1.89-2.06-2.89-2.78-2.79-3.78-.39.78.23,1.94,1,2.8.2.22.53.53.87.92-.91-.25-2,0-2.27.65 a 5.83,5.83,0,0,0-.6-.88 c -1.27-1.52-2.46-2.5-3-4,3.33-4.32,7.23-3.84,9.25-3.17 A 17.15,17.15,0,0,0,85.53,98,33.57,33.57,0,0,1,89.1,101.2Z m -4,3.17 a .81.81,0,0,0,1.14,0,1.93,1.93,0,0,1,1.49-.36 c .42.69.44,1.51-.55,2.62 a 2.45,2.45,0,0,1-1.6,0 A 2.76,2.76,0,0,0,85.13,104.38Z m .5-.87 a 3.19,3.19,0,0,1,1.34-.42,6.07,6.07,0,0,1,.53.55,3.2,3.2,0,0,0-1.69.55 C 85.51,104.33,85,103.92,85.63,103.5Z m -3.44,1.59 a 1.32,1.32,0,0,0,1,0,3.58,3.58,0,0,1,1.54-.17 c 0,.06.05.11.07.17 a 3,3,0,0,1-.22,2.38,2.17,2.17,0,0,1-2.13-.09 A 3.36,3.36,0,0,0,82.19,105.09Z m .72-1.27 a 3.23,3.23,0,0,1,1.2,0,5.2,5.2,0,0,1,.43.69 c -.85-.06-2,.4-2.29.14 S 82.27,104,82.91,103.83Z m -4.41,1.6 a 1.56,1.56,0,0,0,1,0,4.17,4.17,0,0,1,2,.1,3.19,3.19,0,0,1-.63,2.76,3.36,3.36,0,0,1-2.77-.65 A 3.2,3.2,0,0,0,78.51,105.42Z m .64-1.58 a 3.77,3.77,0,0,1,1.53.13,5,5,0,0,1,.61,1,12.34,12.34,0,0,0-2.48-.09 C 78.12,104.87,78.34,104,79.15,103.84Z m -2,.65 a 9.12,9.12,0,0,0-2.79-.25 c -1.12.18-1.4.09-1.76-.15 s -.35-1.11.73-1.28 a 11.89,11.89,0,0,1,2.81.14 A 5,5,0,0,1,77.17,104.49Z m -7.54-7.72 a 3.68,3.68,0,0,1,1.53-.13,6.3,6.3,0,0,1-1.51,1.55 C 69.62,97.77,69.62,97.28,69.63,96.77Z m -.23-.49 s -.62-.57.47-1.17 c .92-.5,2.88-.31,4.57,2.21 C 76.07,93.74,82,93.49,83.15,94 c 1.35.65,1.21,1.63,1.21,1.63-4.71-1.71-8.54.5-10,2.88 C 72.44,95,69.4,96.28,69.4,96.28Z m 5.28-26 h 0 a 4.75,4.75,0,0,1,5.05,4.42,4.67,4.67,0,0,1,0,.5v.12 c 0,.16,0,.31,0,.46-.13,1-.49,2.11-.72,3.23 a 19,19,0,0,0-.13,4.7,24.82,24.82,0,0,0,2.42,6.14 c .68,1.21,1.38,2.52,2,3.68-2-.73-6.64-.2-8.86,2.82-1.81-2.26-3.59-2.35-4.57-2 a 68.67,68.67,0,0,1,1.27-7.55,26,26,0,0,0,.5-4.53,10.21,10.21,0,0,0-.45-3.31,11.5,11.5,0,0,1-.86-3.61 A 4.87,4.87,0,0,1,74.68,70.26Z M 68.14,101 c .5-1.43,1.63-2,2.54-3 a 3.72,3.72,0,0,0,.84-1.3,4.83,4.83,0,0,1,2.82,2.49,4.66,4.66,0,0,0,1.44,3.26 c -3.45-.68-3.79.7-3.85,1.29 s .51,1.4,2.12,1 a 7,7,0,0,1,3.28.21,3.77,3.77,0,0,1-.73,3.36 c -1.91.55-4.72.43-6-1.32 a 4.55,4.55,0,0,1,.1-4.38,3.86,3.86,0,0,0-.73,4.29 C 68.37,106.42,67.54,103.6,68.14,101Z m -1.69,3.07 s 0,.09,0,.14 c .48,3.07,2.3,4.36,3.27,4.43,1,1.71,5.25,2.66,8.27.81 a 3.84,3.84,0,0,0,4.5-.26 c .89.26,2.58.37,3.27-.86,1.15.06,3.37-.14,3.86-2.32 a 5,5,0,0,0,1.43-1.82 c .32.83,1,3.78-4.16,6-6.06,2.63-15.19,2.31-18.87-.81 A 4.57,4.57,0,0,1,66.45,104.09Z m 12.45,10 c -9.16.2-11.81-2.94-11.81-2.94 l -.29-1.55 c 2,2.11,5.66,3.2,10.42,3.3,5.54.12,11-1.45,13.76-4.47-.06.49-.13,1-.2,1.6 C 87.84,112.92,82.8,114,78.9,114.11Z"/>
  </g>
<script type="text/ecmascript" xlink:href="param.min.js"/> 
</svg>
