<?xml version="1.0"?>
<svg xmlns="http://www.w3.org/2000/svg" xmlns:xlink="http://www.w3.org/1999/xlink" viewBox="0 0 600 600">
  <title>default-top-curvy</title>
  <g id="main-colour">
    <path d="M 325.79,252.75 c -5.87-10.94-9.94-22.06-10.19-30.56 a 11.37,11.37,0,0,0,3.31,4.31 s 5.31,16.44,11.31,25.63 a 23.73,23.73,0,0,1,11,16.69 c .15.83.2,1.29.29,2.06 a 3.69,3.69,0,0,0,1.86.25 c .11,3.83-1.9,10-1.9,10 s -5,4.42-14.31,4.17-10.56-1.67-16-1.79-7.06.13-8.37.63 c -2.87,2.06-9.5,4.31-17.75,4.13 a 68.85,68.85,0,0,1-28.31-7.5,66.17,66.17,0,0,1-1.46-8.71 s 9.42,4.42,14.17.5,8-13.5,14.29-18.73 c -.87-11.06-5.12-26.81-5.12-26.81 s 3.13-2.31,3.38-3.44 c 2.38,9.06,6.06,23.31,6.38,29.5,7.5,2.4,19,7.9,21.08,21.15 a 37.46,37.46,0,0,1,6.25-13.58 C 320.61,254,325.79,252.75,325.79,252.75Z" fill="param(main_colour)"/>
  </g>
  <g id="outline">
    <path d="M 302.73,283.57 c -4.38,3.27-13.15,4-16.87,4-10.87-.18-20.5-3.58-27.75-7.08-.37-1.12-1.92-7.25-1.92-7.25 s 9,3.25,13.33.17 c 5-3.58,6-9.83,14.76-19.33 a 131.77,131.77,0,0,0-4.79-26.54,11.85,11.85,0,0,0,2.25-2.25 c 1.63,5.88,5.5,23,6,28.25,6.67,2.63,12.11,4.46,16.86,10.38,2.83,3.53,4.84,11.34,4.75,11.67.31-.69.13-.71.25-2.08-1.39-10.71-7.62-16.21-20.44-20.58-2.75-16-7-31-7-31 s -2.5,3.75-4.25,5 c 2,8.25,4.42,16.33,4.92,26.83-7.31,8-10.31,14.54-12.18,16.79 s -6.87,4.88-16.37.5 c -.12,3.63,2.14,10.13,2.14,10.13 a 65.51,65.51,0,0,0,30.5,8 c 8,.06,15-3.13,18-6 A 6.19,6.19,0,0,0,302.73,283.57Z"/>
    <path d="M 275.52,284.13 s 17,4.08,25.83-2.25 C 295.27,284.13,290.11,285.46,275.52,284.13Z"/>
    <path d="M 315.94,281.46 s 13,3.42,23.67-1.33 A 61.66,61.66,0,0,1,315.94,281.46Z"/>
    <path d="M 344.11,270 c -1,.92-3,0-3,0 a 6.19,6.19,0,0,1,.46,1.77,4.37,4.37,0,0,0,1.29.06,40.93,40.93,0,0,1-1,5.55 c 0,2.37,0,4.37,0,4.37 S 344,273.54,344.11,270Z"/>
    <path d="M 340.86,280.88 c -8.5,5.33-20.33,3.5-24.67,2.33 a 32.28,32.28,0,0,0-13.46.35,18.81,18.81,0,0,0-1.94,1.69,31.84,31.84,0,0,1,17.06-.21 c 8.67,2.5,18,1.33,24-3.33 a 25.72,25.72,0,0,0,.77-8.06 A 39.62,39.62,0,0,1,340.86,280.88Z"/>
    <path d="M 309.27,273.21 l .08,2.33 c 3-8.67,7.63-19.1,17.17-22.67 C 318.61,240,316.36,225,316.36,225 s .68.71,1.85,1.88 c 3.49,12.5,11.15,25.33,11.15,25.33 a 24.6,24.6,0,0,1,9.33,11,33.26,33.26,0,0,1,2.13,8.25,3.31,3.31,0,0,0,1.66.34,33,33,0,0,0-2-8.26 c -3.55-9.42-9.5-11.67-9.5-11.67 a 110.37,110.37,0,0,1-11.32-25.08,61.7,61.7,0,0,1-5.1-7.42 c .63,9.5,4.25,22.38,10.25,32.88 C 318.48,255,312.44,262,309.27,273.21Z"/>
  </g>
<script type="text/ecmascript" xlink:href="param.min.js"/> 
</svg>
