<?xml version="1.0"?>
<svg xmlns="http://www.w3.org/2000/svg" xmlns:xlink="http://www.w3.org/1999/xlink" viewBox="0 0 600 600">
  <title>professionally-pink-curvy</title>
  <g id="main-colour">
    <path d="M 358.52,372.71 c -1.83-19.33-12.67-32.17-18.83-41.67 a 52.62,52.62,0,0,1-5.57-11.41,54.32,54.32,0,0,1,.53-18.49,66,66,0,0,1,2.71-9.1 c 12.81-3.47,19.68-13.05,20-22.54.38-10-4.5-17.25-8.5-20.12 a 60.62,60.62,0,0,0-7.18-4.29,12.57,12.57,0,0,0,1.11-5.16,12.71,12.71,0,0,0-9-12.16 h 0 c -4-2.33-11.4.46-11.4.46 s -.29.83-2.63-.36 c 1-1.16,2.57-3.55,2.08-5.07 a 6.15,6.15,0,0,0-2.67-3.17 s 2-3.25.75-4.92-3.58-2.67-7.33-3.25 c 0,0,0,3,.34,6.33 a 41.25,41.25,0,0,1-12,1.42,47.58,47.58,0,0,1-15-2.38,25.4,25.4,0,0,0,.87-5.62 c -12,1.42-6.25,8.25-6.25,8.25 a 5.39,5.39,0,0,0-4,4.08,5.88,5.88,0,0,0,1.35,4.41,14.31,14.31,0,0,1-2.31,1.52,54.44,54.44,0,0,0-11-3.12,13.69,13.69,0,0,0-13.87,6.13 c -4.62,8.75-.12,15.63,3.88,18.5-2.75,22.25,4.62,35.5,7.25,40.25 s 4.63,8.5,5.5,15.13 c 1.38,11.88-6.87,19.38-14.12,29.88 A 63.62,63.62,0,0,0,244,355.85 c -3.2,10.89-3.8,20.94-2.83,32.86,1,12.33,5.83,26,6,36.5 S 240.86,446,240.86,446 s 7.17-1.83,30.33,0,35.5,7.33,57.67,4.5,31.33-14.67,38.33-22 C 358.36,416.71,360.36,392,358.52,372.71Z" fill="param(main_colour)"/>
  </g>
  <g id="accent-colour-1">
    <path d="M 264.86,320.38 s 15.33,9.17,32.5,10.33 S 328,327.38,335.19,322 a 70.17,70.17,0,0,0,5.5,10.17 s -8.33,9.67-27,12.5-47-3.25-56.43-13.71Z" fill="param(accent_colour_1)"/>
    <path d="M 244.69,354.88 s 11.5,6,20.33,7.83 c -.17,9.67-4.17,31.83-24.33,19.33-.5-13,1.17-18,1.83-21.33Z" fill="param(accent_colour_1)"/>
    <path d="M 351,348.71 s -2.58,6.5-7,8.67 c 2.83,8.42,4.58,14.5,8.75,16.08 a 4.08,4.08,0,0,0,5.58-2.25 s -2.08-12.08-4.58-17.17Z" fill="param(accent_colour_1)"/>
  </g>
  <g id="outline">
    <path d="M 276.9,288 c 7.5,11.17,19.17,12,29,8.33 C 287.23,299,276.9,288,276.9,288Z"/>
    <path d="M 361.39,392.88 c -1-15.47-1.5-34.17-13-50.83 s -14.62-22.29-13.87-32.79 a 67.71,67.71,0,0,1,3.77-16.55,20.52,20.52,0,0,0,4.21-1.16,26.61,26.61,0,0,0,13.25-11.83,25.85,25.85,0,0,0,1.08-21.42,22.14,22.14,0,0,0-10-11.33 c -2.67-1.42-5.75-3-9.08-4.92 s -8.58-5.5-8.58-5.5 c 2.42,2.58,10.67,8.08,14.25,10.33 s 8,5.67,10.33,10.42 a 24.49,24.49,0,0,1,.58,19.58,23.64,23.64,0,0,1-12.17,12.67,31,31,0,0,1-9.92,2.67,10.54,10.54,0,0,0,4,.68,66.19,66.19,0,0,0-3.55,18.61,29.48,29.48,0,0,0,1.75,10.22 c -29.47,18.31-63.23,1.32-68.53-1.57 a 20.62,20.62,0,0,0,2.6-12.87,69.91,69.91,0,0,1,3.56,15 c -.06-7.62-3.31-19.12-6.44-25.62 s -8.19-13.94-9.69-27.25-.19-18.75-.19-18.75-4.5-2.62-5.62-7.44 a 12.78,12.78,0,0,1,5.75-14.19 c 5.75-3.81,13.94-.75,18.63.94 a 4.58,4.58,0,0,0,3.87-1.06 c 3.4,2.5,8.95,3.56,8.95,3.56 s -7.62-2.12-9.44-6.31 c -1.5-3.46,1.77-5.29,3-5.83 a 26.5,26.5,0,0,0,8.16,4.14 c -4.12-2.19-8.31-4.81-8.75-7.81 s 3.06-4.19,5.13-4.37 a 16.16,16.16,0,0,1-.52,3.54 c -1.22-.36-1.92-.61-1.92-.61,1.13,1.06,4.69,4,16.75,4.63 s 15.88-2.31,17.13-3.87 c -.77.32-1.56.6-2.35.86 a 19.78,19.78,0,0,1-.28-3.92 c 2.31.25,5.69,1.44,5.44,3.88 s -3.5,5.44-6.94,7.38 a 20.61,20.61,0,0,0,6.38-3.68 c 1.53.89,2.93,2.75,1.75,5.11-1.31,2.63-5.81,5.63-5.81,5.63 a 13.87,13.87,0,0,0,4.71-2.55 c 3,1,4.27-.08,4.27-.08,3-1.5,7.83-1.58,10-.75-1.33-1-4.08-1.71-6.58-1.58 a 10.67,10.67,0,0,0-3.92.83,3.64,3.64,0,0,1-2.56.44,9.52,9.52,0,0,0,1.25-1.76 c 1.82-3.33-.88-5.68-2-6.46 a 5,5,0,0,0,1.12-3.6 c -.22-2.05-3.81-4.69-9.19-4.87-.05,1.28.3,5.38.41,6.55-9.78,2.43-20.5.33-25.93-1.1 a 25.56,25.56,0,0,0,.78-6.07 c -4.37,0-8.12,1.44-8.81,5.13 a 4.51,4.51,0,0,0,1.12,3.77,5.66,5.66,0,0,0-3.81,6.17,4.51,4.51,0,0,0,1,2.15 c -.61.45-1.63,1.1-2.17.85 a 35.69,35.69,0,0,0-7.69-2.56 c -5.06-1.19-10.56-.56-14.94,3.81 a 14.32,14.32,0,0,0-4.06,12.81,14.61,14.61,0,0,0,5.69,9.31 c -.75,5.44.06,14,.5,18.56 a 62.42,62.42,0,0,0,5.63,19.13 c 1.29,2.55,3.24,5.7,5.24,9.71,1.15,3.71,2.43,9.38,1.44,14.17-1.62,7.88-8.17,13.71-12,19.21 a 81.72,81.72,0,0,0-12.83,29.08 c -3.5,14.67-1.33,30.17.67,39.83 s 8.17,27-3.17,46.17 c 23-2.67,45.54,1.23,61.5,3.67,39.33,6,57-8.5,67.67-22.5 C 361.05,414.71,362.39,408.38,361.39,392.88Z M 344.89,358 a 15.46,15.46,0,0,0,6-7.2 c .65,1.26,1.29,2.61,1.9,4-.71,1.47-2.44,4.13-6.48,7.05 C 345.87,360.7,345.4,359.4,344.89,358Z m 8.59-1.55 a 62.6,62.6,0,0,1,3.91,14.44 c -1.27,2.82-3.62,2.65-5.87.73-1.79-1.52-3.07-4.21-4.62-8.23 A 20.12,20.12,0,0,0,353.47,356.46Z M 265,321.64 c 38.85,20.57,65.32,4.95,70,1.77 a 59.87,59.87,0,0,0,4.68,9.15 c -3.57,3.27-16.91,11.71-32.3,12.07-29.81.9-46.55-10.85-49.61-13.21 l .86-1.17 C 260.47,327.74,263,324.94,265,321.64Z m -1.11,47.65 a 50.08,50.08,0,0,1-20.37-6.8 c .47-2.22,1-4.3,1.56-6.25 a 104.56,104.56,0,0,0,19.18,7.27 A 51.85,51.85,0,0,1,263.89,369.29Z m -20.72-5 c 7.57,5.13,17.52,6.67,20.4,7 A 19.13,19.13,0,0,1,257,383 c -4.74,4-12.86,0-15.29-1.34 A 80.31,80.31,0,0,1,243.17,364.27Z m 92.88,83.61 c -7.39,1.82-18.83,2.67-35.67.67-14.76-1.75-43.17-6.5-57.5-3.67,9.83-17.67,3.5-35.62,1.63-43.75 a 97.87,97.87,0,0,1-2.7-17.31 c 2.53,1.56,11.72,6.4,18.45-1.19,7.88-8.87,5.5-21,5.5-21 s -14.16-4.06-20-7.6 a 70.84,70.84,0,0,1,11.11-21.37 c 9.79,8.07,29.24,14.71,50.64,13.6,19.11-1,30.5-10.18,33-12.39,1.53,2.42,3,4.58,4.14,6.39,1.44,2.3,3.34,5.16,5.26,8.66-1.5,4.85-6.88,8.34-6.88,8.34 s 1.75,4.75,3.75,10.25,6.13,7.88,8.63,7.63 a 3.27,3.27,0,0,0,2.34-1.37 c 0,.08,0,.16,0,.25,1.63,16.75,1,24.36,1.63,32.21.67,8.17,2.21,15.63,6.33,22.5 C 358.89,436.71,348.22,444.88,336.05,447.88Z"/>
    <path d="M 325.55,385.71 a 125.57,125.57,0,0,1-35.33,40.67 C 308.22,416.71,320.22,401,325.55,385.71Z"/>
    <path d="M 301.89,429.71 c 10-1.67,25-12.33,29-21.67 A 81,81,0,0,1,301.89,429.71Z"/>
  </g>
<script type="text/ecmascript" xlink:href="param.min.js"/> 
</svg>
