<?xml version="1.0"?>
<svg xmlns="http://www.w3.org/2000/svg" xmlns:xlink="http://www.w3.org/1999/xlink" viewBox="0 0 600 600">
  <title>slender-top-template</title>
  <g id="main-colour">
    <path d="M 338.85,367.54 c -3.5-11.67-11.67-23.33-14.67-33 s -.5-27.67,6-48.17 c .3-.94.57-1.85.83-2.75,4-1.45,9.13-4.12,11.13-8.63,3.5-7.87,1.67-15.95-3.37-22.12-6.12-7.5-20.37-13-20.37-13 l -.06.14 c -3.43-1.76-7.06-3.48-10.81-5.31-3.33,7.83-24,25.67-35.5,30-.83,6.17,4.67,20.67,7,26.83 s 3.33,7.17,4.5,18.5-9.33,23.83-16.83,39.67-8.83,33.83-7.5,51.67,5.33,25.5,4.5,42-7,25.5-7,25.5 c 8.83,6.83,16.67,9,29.17,9.33 s 29-8.33,37.67-10.83,20.83-4.17,29.17.5 C 355.68,410.21,342.35,379.21,338.85,367.54Z" fill="param(main_colour)"/>
  </g>
  <g id="outline">
    <path d="M 336.26,358.63 c -4.37-9-9.5-17-11.25-25.37 s .63-23,2-28.62,4.38-16.75,5.13-20.75 c 1.13,0,5.13-1.75,7.75-4.37 A 19.16,19.16,0,0,0,344,258.88 c -2.25-5.12-6.62-9.25-11.12-12.75 s -15-8.25-23.37-11.75 a 68.21,68.21,0,0,0,3.88-7.25,4.38,4.38,0,0,0-2.37-1.75 c -.5,1.75-.87,3.38-4.25,8.13 a 119.53,119.53,0,0,1-18.25-9.5,3.19,3.19,0,0,0-2.62,2 s 11,6.88,19.75,9.88 a 102,102,0,0,1-35,28.38 s .47,8.88,5,21.88,6.5,12.5,6.75,24.5-8,21.75-18.5,42.5-5,58-2.75,71.25,3.25,30.5-6,44.75 c 26,20.25,52.25,4.75,63.25.75 s 25.75-5.75,35.25-.25 C 358.14,415.13,340.64,367.63,336.26,358.63Z m 15.38,107.75 c -7.75-4.87-25.87-1.37-34,1.88 s -23.25,10.5-39.12,8.75-20.62-8.37-20.62-8.37,7.13-9.87,6.88-28.62-4.12-27-4.75-44.12.88-35,9.13-48.5,13.5-21.75,15.13-30-.62-18.5-4-26 a 110.34,110.34,0,0,1-7.37-26 s 19.25-7.58,35.33-28.67 c 14.42,5.92,25.1,10.7,30.29,17,5.63,6.88,8.38,23.75-8.62,29.5-1.17,3.83-2.67,11.13-4.5,17.54 s -4.33,18.42-3.33,28.5 S 328,347,331,352.29 s 7.58,17.25,11.25,30.25,5.17,18.46,7.92,39.08 S 352.64,454.25,351.64,466.38Z"/>
    <path d="M 292.39,285.5 s 12.13,4,21.75-4.25 C 312.14,285.13,304.51,290.88,292.39,285.5Z"/>
  </g>
<script type="text/ecmascript" xlink:href="param.min.js"/> 
</svg>
