<?xml version="1.0"?>
<svg xmlns="http://www.w3.org/2000/svg" xmlns:xlink="http://www.w3.org/1999/xlink" viewBox="0 0 215 215">
  <title>basic-v-neck-t-shirt-curvy</title>
  <g id="skin-tone">
    <path d="M 106.57,122 a 58.38,58.38,0,0,0-14.45.81,155.56,155.56,0,0,0-.65,20 c .51,11.11,2,22.1,4.68,29.6 S 101.89,187,104.3,190 s 7.28,3.65,10,1.78,4.33-5,4.33-9,1.18-27.93,1.54-34.62 c .28-5.3,1.12-17,1.42-23.45 A 56.47,56.47,0,0,0,106.57,122Z" fill="param(skin_tone)"/>
  </g>
  <g id="main-colour">
    <path d="M 121.59,125v-.21 c .63.2,1.25.4,1.9.62-.88-3.85-2.22-12.58-2.22-12.58 h 0 a 21.28,21.28,0,0,0-1.07-5.49 h 0 a 12.71,12.71,0,0,0-25.42,0,35.31,35.31,0,0,0-1.82,6.8 c -1,3.29-2.32,7.17-3.94,9.26 A 14.24,14.24,0,0,0,92.1,123v0 a 61,61,0,0,1,15.17-1.09 c .58,0,1.14.07,1.71.12 a 60.49,60.49,0,0,1,7.47,1.31 A 50.31,50.31,0,0,1,121.59,125Z" fill="param(main_colour)"/>
  </g>
  <g id="outline">
    <path d="M 122.49,115.73 c 0-.54-.1-1.06-.16-1.56,0,0,0,0,0,0 h 0 c -.39-3.18-1-5.6-2.11-6.78,0,0,.28,2.7.45,6.78 h 0 s 1.27,6.27,2,10.42 a 55.72,55.72,0,0,0-31.94-2,54.87,54.87,0,0,0,3.7-12.22 h 0 c .23-1.9.39-3,.39-3-1,.14-1.92,2.44-2.71,6.23 A 55.43,55.43,0,0,1,88,124 a 8.44,8.44,0,0,0,2.53,1.78,168.71,168.71,0,0,0,.35,27.18 c 2.18,22.83,11.41,35.86,11.41,35.87 a 9.06,9.06,0,0,0,17.15-4.07 s 1.21-17.15,1.33-25.65 c .07-4.88,1.63-19.22,1.94-31.69 a 7,7,0,0,0,1.74-1.62 C 124,122.68,122.9,118.26,122.49,115.73Z M 118.72,154 c -.12,7-.47,19.15-.87,26-.08,1.27-.23,3.07-.33,4.16,0,.22-.06.41-.08.56 l 0,0,0,.36 h 0 a 7.05,7.05,0,0,1-13.35,2.79 h 0 c -.11-.18-.37-.58-.72-1.17-.72-1.25-1.48-2.76-1.77-3.33 a 89,89,0,0,1-6.77-21.14 c -3-14.72-2.36-30.05-1.71-38.76 a 57.94,57.94,0,0,1,27.3,1.8 C 119.86,134.36,118.84,147.41,118.72,154Z"/>
  </g>
<script type="text/ecmascript" xlink:href="param.min.js"/> 
</svg>
