<?xml version="1.0"?>
<svg xmlns="http://www.w3.org/2000/svg" xmlns:xlink="http://www.w3.org/1999/xlink" viewBox="0 0 150 150">
  <title>BT002_OA029</title>
  <g id="main-colour">
    <path d="M 81.59,80.47 a 10.82,10.82,0,0,1-3.69,1.64 c -2.25.55-5.05-.2-6.28.89 l -1.23,1.09 a 12.63,12.63,0,0,1-4.64-2.8 c -1.43.89-2.53,3.14-3.76,5.6 s -4.1,7.65-6.08,9.49-4.92,2.8-6.63,4.1-2.73,3.83-1.78,7.24,2,6.35,5.94,7.38,9.29,1,12-.07,3.42-4.3,4.51-6.83,2.12-5.6,6.49-8.4,7.45-3.42,8.33-6.42.34-4.37-.89-6.49 A 16.86,16.86,0,0,1,81.59,80.47Z" fill="param(main_colour)"/>
    <path d="M 84.93,94.81 a 11.46,11.46,0,0,1-1.23,4.3 c -1.23,2.66-2.39,10.11-1.84,12 a 32.51,32.51,0,0,1-4.17,2.39 l -3.42-1.16 a 54.86,54.86,0,0,0-2.19-8.95 c 3.48-3.55,5.67-4.85,8.2-5.74 S 84.32,95.77,84.93,94.81Z" fill="param(main_colour)"/>
  </g>
  <g id="fixed-colours">
    <path d="M 73,86.34 c -.7-.35-1.43.38-1.57,1.06 a 1.23,1.23,0,0,0,.72,1.43,1.29,1.29,0,0,0,1.37-1 A 1.2,1.2,0,0,0,73,86.34Z" fill="#bcbec0"/>
    <path d="M 71.31,91.36 c -.52-.19-1.09-.2-1.64.68 a 1.09,1.09,0,0,0,.61,1.64,1.42,1.42,0,0,0,1.33-.92 C 71.89,92,71.68,91.5,71.31,91.36Z" fill="#bcbec0"/>
    <path d="M 68.78,95.6 a 1.07,1.07,0,0,0-1.57.48 c -.31.68,0,1.64.44,1.71 A 1.24,1.24,0,0,0,69,97,1.06,1.06,0,0,0,68.78,95.6Z" fill="#bcbec0"/>
    <path d="M 66,99.25 a 1.29,1.29,0,0,0-1.64.55,1.09,1.09,0,0,0,.31,1.54,1.21,1.21,0,0,0,1.54-.51 A 1,1,0,0,0,66,99.25Z" fill="#bcbec0"/>
  </g>
  <g id="outline">
    <path d="M 81.31,80.74 a 11.65,11.65,0,0,1-4.23,1.43 c -1.84.07-5.67,0-6.69,1.91 a 8.44,8.44,0,0,1-4.51-2.46 s 3.09-1.21,3.21-2.52-1-4.56,1.31-7.25 S 75.15,68.92,77,69.8 s 3.88,2.25,3.69,4.88Z" fill="#f9d9c7"/>
    <path d="M 47.43,109.68 a 12.06,12.06,0,0,0,2.73,4.55 C 52.81,116.92,61.91,117,65,116 s 4-3.23,4.78-5.46 a 34.15,34.15,0,0,1,2-5 c .65,2.28,1.74,7.45,1.74,7.45 l 4.33,1.41 s 2.19-1.5,4.46-2.87 c 0-6.33,1.18-10.93,2.78-14 a 9.08,9.08,0,0,0,1-4.33 c 1-3.11-.4-5.53-1.59-7.51 a 24.43,24.43,0,0,1-2.32-5.74,9.77,9.77,0,0,1-.67-3.4 h 0 l 0-.15 h 0 c 0-.27.08-.53.11-.83 a 6.76,6.76,0,0,0-6.19-7.27 h 0 a 6.76,6.76,0,0,0-7.26,6.19,24.29,24.29,0,0,0-.15,2.61,2.66,2.66,0,0,1-.85,2.17,8.18,8.18,0,0,1-2.22,1.53 c -1,.45-2,2-2.91,4.14 a 87.81,87.81,0,0,1-5.65,9.65,7.51,7.51,0,0,1-3.87,3.37 c -1.91.82-4.74,1.73-5.74,4.6 A 10.41,10.41,0,0,0,47.43,109.68Z M 61.55,95.14 c -1-1-1.83-1.9-2.24-2.3 l .15-.24,4.28.16.75.76-1.07,1.85Z m 6.68.56,0-.05 a .66.66,0,0,1,.36,0,1,1,0,0,1-.79,1.86.66.66,0,0,1-.26-.21 h .05 a 3.61,3.61,0,0,0,.16-.84 A 1,1,0,0,0,68.23,95.7Z m 2.39-4.1-.06-.07 a .72.72,0,0,1,.54,0,1.08,1.08,0,0,1-.83,1.94.72.72,0,0,1-.36-.39.86.86,0,0,0,.38-.84 A 1.17,1.17,0,0,0,70.62,91.6Z m -5-.07-1.41,0 c -1.1-1.07-2.09-2-2.6-2.48 l .61-1 c .91-.06,2.17-.07,3.5-.07 l 1.21,1.3Z m 2.13-1.41,1.43,1.55 L 67,91.57Z m -.37-2.19 h .25 l -.09.16Z M 64.7,86.82 H 62.88 l .68-1.21Z m -2.29,4.64-2.23,0 L 61,90.11 C 61.44,90.54,61.92,91,62.41,91.46Z m 4.35,4.48 c -.67-.14-1.4-.26-2.15-.38 l .71-1.16Z m -6.91-1-1.78-.18.61-.93 C 59.06,94.18,59.45,94.55,59.84,94.95Z m 6.1-12.69 a 8.91,8.91,0,0,0,3.75,1.92 l -1.46,2.67-1.86,0-2.21-2.35 A 5.87,5.87,0,0,1,65.94,82.25Z m 3.88-4.06 a 14.91,14.91,0,0,0,.45-3.57,4.75,4.75,0,0,1,5.11-4.36 h 0 a 4.75,4.75,0,0,1,4.36,5.11,12.17,12.17,0,0,0,0,3.37 c .23,1,.67,1.2.78,1.85 a 5.9,5.9,0,0,1-2.89,1.08 c -2.41.34-5.78-.27-7.51,1.87 a 8.52,8.52,0,0,1-3.47-1.7 A 9.86,9.86,0,0,0,69.82,78.19Z m 11.27,32.71 L 78,112.66 a 47.82,47.82,0,0,1,.67-13.52 c 2.23-1.11,4-1.63,5.42-2.77-.59,1.76-1.6,3.29-2.22,5.61 A 40.12,40.12,0,0,0,81.09,110.91Z m -8-7.35 a 12.76,12.76,0,0,1,3.35-3.17 c .44-.28.87-.53,1.28-.76 a 46.46,46.46,0,0,0-.49,13.08 c -.53-.22-1.52-.62-2.24-.94 C 74.63,109.29,73.46,104.9,73.09,103.56Z M 62.61,114.63 a 11.94,11.94,0,0,0,.9-6.4 c -.68-3.32-2.3-5.6-1.94-7.06 a 12.82,12.82,0,0,1,1.31-2.74 c .51.63.92,1.18,1.21,1.56 a 1.38,1.38,0,0,0,.43,1.7,1.68,1.68,0,0,0,1.66-2.81,1.27,1.27,0,0,0-1.38.14 c -.39-.54-.83-1.09-1.29-1.65 l .37-.61,3,.48 a 1.19,1.19,0,0,0,.66.89,1.68,1.68,0,0,0,1.28-3,1.17,1.17,0,0,0-1,.07 c -.51-.59-1.14-1.25-1.8-1.92 l .23-.39,3.1.16 a 1.26,1.26,0,0,0,.7,1,1.75,1.75,0,0,0,1.34-3.13,1.25,1.25,0,0,0-1.17.15 c -.47-.56-1.11-1.29-1.83-2.08 l .55-1 L 71.2,88 a 1.33,1.33,0,0,0,.88,1.16,1.75,1.75,0,0,0,1-3.27,1.48,1.48,0,0,0-1.67,1 l -1.88,0 c .39-.74.74-1.39,1-1.88 a 5.57,5.57,0,0,1,.36-.53 h .05 a 2,2,0,0,0,.28-.4,4.54,4.54,0,0,1,3.55-1.38 c 1.6,0,4,.1,6-1.18 A 46.38,46.38,0,0,0,83.13,88 c .77,1.59,1.68,3.55.55,5.78 S 80,97,76,99.34 a 16.28,16.28,0,0,0-6.74,8.24 c -1,2.41-2,5.6-4.19,6.47 A 11.11,11.11,0,0,1,62.61,114.63Z m 9.45-27.7 H 72 a .84.84,0,0,1,.88-.36,1.08,1.08,0,0,1-.59,2,.76.76,0,0,1-.49-.5 h .12 A .9.9,0,0,0,72.06,86.92Z M 64.5,100.54 h 0 s .65-.58.61-1.09v0 a .75.75,0,0,1,.75,0,1,1,0,0,1-1,1.74 A .74.74,0,0,1,64.5,100.54Z M 51.42,100 A 11.11,11.11,0,0,1,58.36,102 c -1.49-1.89-4.17-2.47-5.52-2.65 a 10.66,10.66,0,0,0,4.43-3.45 l 0-.07 c 1.18.14,2.5.32,3.8.51.35.4.69.79,1,1.18 l -.15.24 c -2.14,3.42-1.66,4.92-.57,7 a 10.63,10.63,0,0,1,.06,10,29.53,29.53,0,0,1-8.35-.43 C 49,113.41,48.53,109,48.3,106 A 6.13,6.13,0,0,1,51.42,100Z"/>
  </g>
<script type="text/ecmascript" xlink:href="param.min.js"/> 
</svg>
