<?xml version="1.0"?>
<svg xmlns="http://www.w3.org/2000/svg" xmlns:xlink="http://www.w3.org/1999/xlink" viewBox="0 0 600 600">
  <title>nurse-curvy</title>
  <g id="main-colour">
    <path d="M 360.23,405.75 c -.37-13.25,1-30.75-3.75-44.12 s -10.75-21.25-15.12-27.87 a 78.18,78.18,0,0,1-7.4-15.27,55.22,55.22,0,0,1,.7-17.34 c 1.08-5.17,2.75-9.08,5.08-15.67 a 60.48,60.48,0,0,0,3.75-23.25 c -.33-9.33-3.26-14.6-3.26-14.6 h 0 a 12.69,12.69,0,0,0-6.41-19.85 h 0 c -3.11-1.81-8.23-.54-10.39.12 a 9,9,0,0,0-3.31-4.84,12.73,12.73,0,0,0-6.33-2.58,20.59,20.59,0,0,1,1.2,4.08,38.69,38.69,0,0,1-.45,10.58 c -.92,4.83-4.83,12.17-5.53,17-5-5.83-17.47-13.5-21.47-17.17 a 13.25,13.25,0,0,1-3.71-5.39 c -1.4-6.07.46-9.27.46-9.27-7.41.24-9.17,5.7-9.57,8.84 a 56.87,56.87,0,0,0-10.14-2.78,13.69,13.69,0,0,0-13.87,6.13 c -4.62,8.75-.12,15.63,3.88,18.5-2.75,22.25,4.63,35.5,7.25,40.25 s 4.63,8.5,5.5,15.13 c 1.38,11.88-6.87,19.38-14.12,29.88 a 61.1,61.1,0,0,0-9.81,22.5 c -.48,1.68-1,3.52-1.4,5.53-4,18,.88,34.25,2.63,42.88 s 2.25,23.75-.37,29.5 c 11,7.63,22.38,11.13,40.88,12 S 326,442.75,333,440.88 s 28.25-5.75,34.38-3.87 C 363.11,428.5,360.61,419,360.23,405.75Z" fill="param(main_colour)"/>
  </g>
  <g id="fixed-colours">
    <path d="M 278.85,262.66 s 10.37,1.24,20-1.69 a 29.43,29.43,0,0,1,.32,3.81 s -10.55,3.19-19.61,1.49 A 23.69,23.69,0,0,1,278.85,262.66Z" fill="#fff"/>
    <polygon points="284.95 272.82 288.19 272.4 288 269.78 290.77 269.49 291.34 271.91 294.11 271.62 294.29 274.09 291.38 274.55 291.51 277.34 288.59 277.72 288.46 275.02 285.38 275.34 284.95 272.82" fill="#f0356a"/>
    <path d="M 329.46,258.19 a 11.63,11.63,0,0,0,3.23-.07 c .21,1,.45,2,.45,2 l 3.12-.2.11,1.27 s -1.33.65-6.58.32 C 329.63,260,329.46,258.19,329.46,258.19Z" fill="#fff"/>
    <polygon points="338.58 259.07 339.9 257.75 339.18 255.91 340.18 254.84 341.73 258.66 338.95 260.66 338.58 259.07" fill="#fff"/>
    <path d="M 332.69,258.12 l .43,2.19,3.14-.36.54,5.34 a 4,4,0,0,0-1.37,3.22,2.93,2.93,0,0,0,3.52,2.38,3.07,3.07,0,0,0,2.83-3.59 c -.23-1.28-2.1-2.28-2.49-2.46-.15-1.87-.7-5.78-.7-5.78 l 1.32-1.32-.82-2.06Z" fill="#d6d6d6"/>
    <path d="M 275.37,227 S 270.45,244.46,293,245 c -.55-2.25-.67-2.67-.67-2.67 a 18,18,0,0,1-10.92-3.58 C 275.87,234.8,275.37,227,275.37,227Z" fill="#fff"/>
    <path d="M 293,246.3 S 302.37,248,306,249 A 24.53,24.53,0,0,1,308.2,252 s -8.75-3-14.5-3.17 A 9.21,9.21,0,0,0,293,246.3Z" fill="#fff"/>
    <polygon points="319.03 241.1 319.62 243.38 308.87 252.63 309.45 249.79 319.03 241.1" fill="#fff"/>
    <path d="M 318.5,238.75 a 11.44,11.44,0,0,0,3.22-6.81,14.64,14.64,0,0,0-1.44-8.28,9.56,9.56,0,0,1,3.5,5.84 c .66,3.84-1.56,9.75-4.72,11.06 C 318.75,239.44,318.5,238.75,318.5,238.75Z" fill="#fff"/>
  </g>
  <g id="outline">
    <path d="M 361.39,392.88 c 0-15.5-1.5-34.17-13-50.83 s -14.62-22.29-13.87-32.79,5.61-22.46,5.61-22.46,1.55-4.41,2.85-8.91 a 23.92,23.92,0,0,0,2.65-6.67 A 21.14,21.14,0,0,0,343.91,258 c -.07-.14-.15-.28-.22-.42-.78-4.16-2-8-3.49-9.92 a 31.89,31.89,0,0,1,1.92,7.36 c -1.6-2.31-3.81-4.91-6.55-8.4 a 64.92,64.92,0,0,1-6.42-10 c .71,2.08,5.29,10.42,7.33,13.63.87,1.36,1.7,2.38,2.53,3.68-4.06,4.26-10.65,3.39-10.65,3.39 a 50.3,50.3,0,0,1-.21,14.43 c 2.1,1.39,10.58,6.27,10.58,6.27 l 3-2.31 a 19.27,19.27,0,0,1-4.63,7.17,21.51,21.51,0,0,1-9.12,5.25 c 5.14.14,9.24-2.64,12.21-6.15 l -.21.52 c -1.17,3.08-1.47,4.5-1.94,5.54,0,0-5.12,11.75-5.37,23.5 s 8,22.38,12,28.75,11.5,17,13.13,33.75 A 303.58,303.58,0,0,1,359,409.13 c 0,7.88,2,19.38,6.13,26.25-7.75-1.12-19.12,1.38-26.5,3.25-4.08,1-10.89,2.92-18.66,4.71.36-5.54,1.67-26.59,1.24-37-.5-12-2.17-28.17-4-42.67 a 381.73,381.73,0,0,1-2.68-42 c -.18-12.67-.17-21.83.71-34.46.86-12.44.88-23.21-2.62-29.87 a 40,40,0,0,0-2.7-4.47 c 1.22-1.16,6-5.66,10.26-9.34-.13-.78-.29-1.58-.48-2.38 a 11.8,11.8,0,0,0,4.94-10.64,11.59,11.59,0,0,0-.34-2.09 c 3-1.33,7.55-1.38,9.59-.58-1.33-1-4.08-1.71-6.58-1.58 a 11.82,11.82,0,0,0-3.5.66,11.48,11.48,0,0,0-10.92-7.41 c 1.33,4.33,3.67,10.08-.33,20.46-2.13,5.53-3.68,10.14-4,11.12 a 45.38,45.38,0,0,0-7.57-6.87 c -4.35-3.39-12.44-7.46-15.53-13.12 s -.5-11.67-.5-11.67-5.92-1.08-9.5,5.08 a 12.3,12.3,0,0,0-1.39,3.53,39.91,39.91,0,0,0-7.19-2.33 c -5.06-1.19-10.56-.56-14.94,3.81 a 14.32,14.32,0,0,0-4.06,12.81,14.61,14.61,0,0,0,5.69,9.31 c -.75,5.44.06,14,.5,18.56 a 62.42,62.42,0,0,0,5.63,19.13 c 1.29,2.55,3.24,5.7,5.24,9.71,1.15,3.71,2.43,9.38,1.44,14.17-1.62,7.88-8.17,13.71-12,19.21 a 81.72,81.72,0,0,0-12.83,29.08 c -3.5,14.67-1.33,30.17.67,39.83 s 5.33,24.83.5,35.5 c 15.17,13,45.17,14,61.17,11.83 s 46.67-13.83,64.5-10.33 C 361.22,424.38,361.39,408.38,361.39,392.88Z M 341.29,258.47 a 9.61,9.61,0,0,1-2.21,1.56 c 0-.37-.06-.7-.09-1 a 5,5,0,0,0,1.32-1.23 c -.34-.88-.68-1.68-.84-2 l .43-.41 A 26.26,26.26,0,0,1,341.29,258.47Z m -3.13,7 c 1.89-.22,3,.69,3.17,2.24 a 2.83,2.83,0,0,1-2.56,2.9,2.66,2.66,0,0,1-3.12-2.19 A 2.76,2.76,0,0,1,338.16,265.45Z m -.17-1.12 a 4.51,4.51,0,0,0-1,.29 c -.07-1.08-.23-3.58-.41-4.53 a 8.68,8.68,0,0,0,1.74-.64,36.81,36.81,0,0,1,.64,4.85 A 4,4,0,0,0,338,264.33Z m 1-8.17.65,1.43 s -1,2.18-6.29,2.28 c -.15-.5-.28-1.09-.35-1.42 A 12.19,12.19,0,0,0,339,256.16Z m -6.64,2.37.45,1.94 a 13.68,13.68,0,0,0,3.15-.24 c 0,.16.05.45.09.8 a 18.18,18.18,0,0,1-5.76,0 c -.05-.82-.14-1.65-.27-2.48 A 19.06,19.06,0,0,0,332.37,258.53Z m 6.39,18 c -2.09-.66-9.1-5.54-9.1-5.54 a 40.82,40.82,0,0,0,.69-9.13,24.93,24.93,0,0,0,5.79-.13 c .1,1,.21,2.15.25,3.13 a 3.61,3.61,0,0,0,2.17,6.77,4.05,4.05,0,0,0,3.9-4.14,3.88,3.88,0,0,0-2.93-3.15 c -.06-.54-.22-2-.36-3.42 a 6.83,6.83,0,0,0,2.44-1.65 c .3.86.61,1.82.93,2.92 a 21,21,0,0,1-.21,11.59 A 32.57,32.57,0,0,1,338.77,276.57Z m -29.32-24.85 c .15-.52.32-1,.5-1.58 a 70.8,70.8,0,0,1,8.79-8.17 c .17.71.27,1.16.27,1.16Z m 9.9-11.93 c -.09-.34-.19-.68-.29-1,.68-.87,5.56-7.43,2.1-13.7 a 9.06,9.06,0,0,1,2.24,5.8 C 323.45,235.37,320.5,238.68,319.34,239.79Z m .2-16.25 c 1.41,2,4,7.35-.75,14.4 a 69.54,69.54,0,0,0-2.87-7.43,22.49,22.49,0,0,0-1-9 A 10,10,0,0,1,319.54,223.54Z m -3.9,9.24 a 42.62,42.62,0,0,1,2.87,8.29,63.9,63.9,0,0,0-7.93,7.25 C 312.34,243.56,314.73,238.34,315.64,232.78Z m -8.83,18.42 a 73,73,0,0,0-12.83-3 l -.14-1.3 a 69.25,69.25,0,0,1,11,2.29 C 305.54,249.87,306.19,250.53,306.8,251.21Z m -5.43-4.91 c .65.5,1.27,1,1.86,1.49 a 89.5,89.5,0,0,0-9.51-1.9 c -.23-2.17-.48-4.32-.62-5.59 C 295,241.62,297.48,243.33,301.37,246.29Z m -25.83-17.48 c .44,2.95,1.62,7.44,5.78,10.48,3.87,2.84,9,3.37,10.63,3.48 l .17,1.44 c -1.56,0-8-.32-11.82-3.75 S 275,232.89,275.54,228.81Z m 7.1-7.77 c -2,4.75.33,10.42,4.33,14.33 a 35.15,35.15,0,0,0,4.54,3.8 l .33,2.69 c -3.48-.12-9-1.39-12.36-5.57-2.67-3.37-3.25-7.81-3.38-9.72 C 277.52,222.94,281.13,221,282.64,221Z m 17.63,226 c -14.75,1.88-41.75-.37-54.87-10.75,3.5-11.87,1-27-.87-35.12 s -4.75-21-1-38.62,10.75-26.25,15.13-32.25 c 4-5.51,11.19-12.4,9.82-23 a 69.91,69.91,0,0,1,3.56,15 c -.06-7.62-3.31-19.12-6.44-25.62 s -8.19-13.94-9.69-27.25-.19-18.75-.19-18.75-4.5-2.62-5.62-7.44 a 12.78,12.78,0,0,1,5.75-14.19 c 5.51-3.66,13.26-1,18,.72 a 14.67,14.67,0,0,0,5,11.59 c 4.11,3.71,9.78,4.06,13.41,4.29 l .42,3.46 a 139.89,139.89,0,0,1,15.15,3.3 c 4.86,5.88,6.5,12.33,6.5,20.62,0,11.26-1.41,24.17-1.33,33.5.08,10.21-.28,15.71,1.22,39.58 s 6.46,50.92,5.29,73.58 c -.79,15.29-1.12,21.55-1.25,24 C 312.5,445,306.26,446.24,300.26,447Z"/>
    <path d="M 305.87,281.38 c -3.83,3.5-11.17,7.17-21.5,7 C 284.37,288.38,299.2,292.21,305.87,281.38Z"/>
    <path d="M 300.35,275.86 c -.23-7.46-.77-15.91-.77-15.91 s -11.41,3.39-21.67,1.92 c 0,0,.92,10.84,2.29,16.12 a 38.82,38.82,0,0,0,10.43,5.3 S 298.53,277.94,300.35,275.86Z m -2-14.09 c 0,.76,0,1.6.08,2.47-7.55,2.62-16.1,2-18.64,1.75-.11-1-.2-1.83-.23-2.4 C 279.6,263.6,292,264.35,298.38,261.78Z m -17.1,15.14 s -.85-5.78-1.35-9.93 c 7.68,1.08,16.38-.85,18.58-1.4.18,4.57.45,9.53.45,9.53 s -6.37,5.18-8.39,6.47 A 57.23,57.23,0,0,1,281.29,276.92Z"/>
    <path d="M 294.82,274.75 l -.37-3.69-2.91.36-.33-2.54-4,.34.32,2.66-3.14.35.46,3.53,3.14-.35.29,2.7,3.65-.36-.13-2.65Z M 289,277.09 l -.27-2.63-3.08.23-.21-1.56,3.07-.38-.31-2.55,2.15-.23.41,2.57,2.74-.25.19,1.42-2.79.41.17,2.79Z"/>
  </g>
<script type="text/ecmascript" xlink:href="param.min.js"/> 
</svg>
