<?xml version="1.0"?>
<svg xmlns="http://www.w3.org/2000/svg" xmlns:xlink="http://www.w3.org/1999/xlink" viewBox="0 0 600 600">
  <title>one-piece-swimsuit-curvy</title>
  <g id="skin-tone">
    <g id="skin-tone-2" data-name="skin-tone">
      <path d="M 337.17,329.22 a 48.23,48.23,0,0,1-2-5.25 c -2.5-7.75-1.58-17.67-.5-22.83 s 2.75-9.08,5.08-15.67 a 60.47,60.47,0,0,0,3.75-23.25 c -.33-9.33-3.26-14.6-3.26-14.6 h 0 l -.32-.33 a 12.1,12.1,0,0,0-6.08-19.09v-.44 h 0 c -4-2.33-11.4.46-11.4.46 s -.46,1.38-5.08-1.87-4-10.37-4-14.87 a 46.89,46.89,0,0,0-.13-4.74,73.09,73.09,0,0,1-27.08,0,5.78,5.78,0,0,0-.08.91 c 0,3.5,1.5,4.75-1.75,12 a 20.53,20.53,0,0,1-8.75,9.88,54.44,54.44,0,0,0-11-3.12,13.69,13.69,0,0,0-13.87,6.13 c -4.62,8.75-.12,15.63,3.88,18.5-2.75,22.25,4.63,35.5,7.25,40.25 s 4.63,8.5,5.5,15.13 c 1,9-3.4,15.42-8.75,22.56 l .6.28-.61-.27 c -1.74,2.33-3.58,4.72-5.36,7.3 C 246,346.78,243,357.66,243,362.91 c 0,3.31-.36,6.23.39,9.18,0,.25.13,2.25.13,2.5,0,18.14,15.61,32.25,33.75,32.25 a 30.57,30.57,0,0,0,22-8.75 c .32.18,1.11-1,1.43-.87 A 32.85,32.85,0,0,0,348.44,368 c .14-1.85-.16-12.64-.46-14.4 h 0 c 0-2.48-2.06-8.6-4.73-13.52-1.91-3.52-3.95-6.24-5.87-10.34Z" fill="#f9d9c7"/>
    </g>
  </g>
  <g id="main-colour">
    <path d="M 247.11,347.5 A 113.6,113.6,0,0,1,258.73,328 c 6.75-8.75,9.63-12.87,8.75-21 s -2.87-10.87-5.5-15.12-7.37-16.37-7.37-27 c 9,0,16.63-3,20-12.75 s 2.88-18.75,1.5-23.37 a 23.68,23.68,0,0,0,4.25-3 s 1.88,9.88,5.88,15.5,10.25,12,19.5,13.25,15.13-3.5,17.38-8.75,1.25-13.87-.5-17.5 a 14.58,14.58,0,0,1,4.25-1.37,55.4,55.4,0,0,1,3.88,12 c .88,5.5,4.75,12.25,11.63,14.63 a 62.33,62.33,0,0,1-.5,25.38 c -2.12,8.5-5.62,15-7.37,23.75 s -1,17.5,1.63,22.88,7,11.5,7.25,13 c -5.37,1.25-11,3-15.62,9 s -5.12,13.13-7.25,21.25-5,12.5-10.87,12.88 c 2.13-9.25,1.13-16.5-2.87-24.5 S 295,341.25,280.36,339,255,341.25,247.11,347.5Z" fill="param(main_colour)"/>
  </g>
  <g id="outline">
    <path d="M 275.08,228.47 a 38.9,38.9,0,0,1-1.66,24.22 c -5.7,13.57-19.94,11.19-19.94,11.19 l .19,2 s 15.75,1.69,21.44-12.62 a 40.43,40.43,0,0,0,1.63-25.75Z"/>
    <path d="M 279.27,225.38 s 3,9.93,4.17,12.42 c 1.92,4.17,11.67,18.83,26.58,17.58,14.36-1.2,18-14,12.92-28.17 a 3.75,3.75,0,0,0-1.42.75 s 5.08,9.83.08,18.92-18.5,9.67-28.42,1-10.67-18.33-12.5-24.17 A 9.81,9.81,0,0,1,279.27,225.38Z"/>
    <path d="M 325.61,226.38 a 51.08,51.08,0,0,1,4.25,11.92 c 1,5.58,4.17,13.25,12.25,16 a 7.13,7.13,0,0,0-.08-1.42,14.79,14.79,0,0,1-6-4.25 c -2.83-3.25-4.08-7.75-5-11.67 s -2.5-8.92-4-10.75 A 7.67,7.67,0,0,0,325.61,226.38Z"/>
    <path d="M 275.08,228.47 s 4.32-2.74,5.61-4.76 a 26,26,0,0,1,.67,2.54,30,30,0,0,1-5.87,4.06 A 9.45,9.45,0,0,0,275.08,228.47Z"/>
    <path d="M 321.52,228 a 10.33,10.33,0,0,1,5.5-1.75,6.38,6.38,0,0,1,.75,1.13 s -3.92.58-5.71,2 A 14.46,14.46,0,0,0,321.52,228Z"/>
    <path d="M 253.48,263.88 a 61.63,61.63,0,0,0,4.21,21 c 4.33,11,6.29,9.88,8.67,20.25 s -5.5,18.88-6.75,20.38-11,12.5-14.87,26 c 12.25-13.62,30.75-14.12,42.38-10.12 a 34,34,0,0,1,21.5,22.17 c 3,9.25-.17,19.17-.17,19.17 s 5.36.73,9.14-5.26,5.11-18.33,9.11-26.41,14.92-11.83,18.58-11.5 c -2-4.75-4.42-7.85-6-10.48 a 30.37,30.37,0,0,1-4.75-17.44 c .19-9.31,1.13-11.62,3.06-17.5 s 5-13.44,5.88-18.75,1.88-13.56-.81-22.5 c -.37.06-.44-.06-1.31-.31-.12,1,.44.69.75,3.5 a 72.19,72.19,0,0,1-.69,19.81 c -1.62,9-3.69,12.38-5.62,18.56 s -3.19,11-3,19.5,1.81,12.38,4.38,16.44,4.31,6.75,4.56,7.44 c -5.75.5-12.31,5.5-15.37,9.88 s -4.62,11.69-6,17.63-3.63,14.75-9.5,15.53 c 1.56-8.34,1.5-16.53-4.31-26 S 294.61,341.75,284.67,339 s -24.87-2.81-35.56,6.38 a 130.24,130.24,0,0,1,11.38-17.75 c 3.94-5.25,8.06-10.81,8-17.69 s -2.37-13.19-6.12-19.5-6.56-16.56-6.81-25.31Z"/>
    <path d="M 308.75,381.12 A 32.85,32.85,0,0,1,244.07,373 s 0-1.47.06-3.58 c .22-5.19,1.12-15.08,4.74-23.32 l -2.73,1.68 c -3.41,8.83-4,16.8-4.08,25.22 a 34.84,34.84,0,0,0,68.22,10 c 2-.54,5.94-2.68,7.29-5.48 a 13.25,13.25,0,0,1-6.73,3.36 C 310.38,380.95,309.62,381.06,308.75,381.12Z"/>
    <path d="M 282.23,232.52 a 25.65,25.65,0,0,0,11.4.69 c -2.64.24-6.73-.54-11.81-2.21Z"/>
    <path d="M 253.58,251.7 a 93.49,93.49,0,0,0,0,13.18 h 1.89 a 83.87,83.87,0,0,1,0-12v-1.2 l .08-.93 a 12.7,12.7,0,0,1,6.69-23.5,8.47,8.47,0,0,1,1.32.07,39.48,39.48,0,0,1,6.89,1.43 l .87.26 h .08 c 1.89.6,3.77,1.27,5.55,1.89 l .56-1.4 c 2.75-1.52,10.29-7.13,9.53-22.61 l -1.9-.35v1.22 S 287,222.16,275,228.48 a 42.52,42.52,0,0,0-10.9-3.13 l -.61-.07 a 11,11,0,0,0-1.2-.06,14.7,14.7,0,0,0-8.76,26.48Z"/>
    <path d="M 325.69,226.47 a 16,16,0,0,0-4.2,1.47 c -2.12-.86-4.65-3.36-6.18-6.85-1.66-3.79-1-11.33-1.06-14.57q-1,.21-2.08.38 c -.09,2.67-.51,7.43.47,11.73,1.32,6.69,5,9.35,6.89,10.3-3.55,1.89-7.24,4.11-10.6,4,5.38.5,8.35-1.28,11.13-2.37 s 6.48-4.42,13.74-2.83 A 11.74,11.74,0,0,0,325.69,226.47Z"/>
    <path d="M 340.22,247.62 l .08.21 c .12.33.38,1.09.69,2.22.23.86.48,1.94.71,3.24 l 1.18.38 A 15.56,15.56,0,0,0,340.22,247.62Z"/>
    <path d="M 344.65,338.52 l -2.47.29 c 5.07,10,5.2,18.52,6.22,24 C 348.69,358.08,349.94,349.87,344.65,338.52Z"/>
  </g>
<script type="text/ecmascript" xlink:href="param.min.js"/> 
</svg>
