<?xml version="1.0"?>
<svg xmlns="http://www.w3.org/2000/svg" xmlns:xlink="http://www.w3.org/1999/xlink" viewBox="0 0 600 600">
  <title>voluptuous-top-template</title>
  <g id="main-colour">
    <path d="M 247.45,279.75 s 7.5-5.87,13.88-6.87 c 0,0,6.19-12.71,18-17.62,12.65-5.25,27.16-4.54,42,4.46,7.5-8.5,21.63-12.71,32-5.83,9.33,15.67,1,32.83-11.5,36.83-1.62,2.88-1.83,6.5.07,10.54,2.83,6,11,13.88,17.5,23.13 a 72.79,72.79,0,0,1,11.63,27.5 c 1.88,8.88,6.25,28.25,11.25,32.38 s 9.63,3,9.63,3 a 58.37,58.37,0,0,1-18.37,26,6.61,6.61,0,0,0,3.13,1.5 S 366,430,338.58,439.38 A 19.27,19.27,0,0,0,340,441 s -13.25,11.63-51.87,10-55.5-19.5-59.25-22.37 a 20.42,20.42,0,0,0,4.13-4.25 s -21.75-9.87-29.5-27.62 c 8.88-1.62,14.5-5.62,17.5-12.75 s 3.13-13.37,3.13-19,4.5-29.25,13-41.62,13.25-17.37,14.38-23 S 250,287.38,247.45,279.75Z" fill="param(main_colour)"/>
  </g>
  <g id="outline">
    <path d="M 268.62,283.67 s 4,14.39,20.46,13.33 C 282.57,296.1,274.77,292.63,268.62,283.67Z"/>
    <path d="M 393.85,385.5 c -5.87,1.38-10.37-.37-14.25-8.75 s -7.17-30.46-12.75-41.87-18.42-26-19.92-27.92-3.77-4.58-4.67-7.83 a 15.09,15.09,0,0,1,.2-7.42 c 5.42-2.42,12.58-7.92,14.83-15.33,1.75-5.77,2.25-16.92-3.42-23.33-18.87-11.29-33.08,5.67-33.08,5.67 s -16.54-11.46-35.62-6.75 a 37.85,37.85,0,0,0-24.67,19.5,55.85,55.85,0,0,0-14.25,7.5 s 1.58,4.92,2.58,8,2.63,5.13,1.88,12.88-9.12,11.38-17,26.88-10.62,29.13-11,39.13-.87,14.75-4.25,20.38-9.75,9.13-16.87,9.63 c 8.72,20.3,29,28.56,29.49,28.75 a 42.3,42.3,0,0,1-3.86,3.75 c 16.25,21,80,35.25,114.88,13-.46-.4-.89-.82-1.33-1.25,9.33-3.58,29.29-13,38.45-25.75-1.21-.43-2.38-.91-3.51-1.43 C 386.68,404.09,392.39,393.27,393.85,385.5Z m -20.7,26.18 A 56.6,56.6,0,0,1,354.47,395 c 2.88,5.88,11.88,16.63,20.63,20.63 A 99.76,99.76,0,0,1,338.74,438 c -8.61-9.61-13.45-23.85-15.89-34.53-.12,13,7.88,29,15,37.25-13.87,10.63-73.12,17.88-107.25-12,9.5-8.25,16.38-26.87,16.63-33.12,0,0-5,15.57-14.47,27.08-10.83-4.14-19.3-12.25-27.4-25,11.25-2.5,16-9.87,18.38-17.37 s .25-22.25,6.5-39 S 242,317.63,246.47,312 s 6.13-8.62,6.5-15.12-3.09-11.58-4.59-17.33 c 4.5-3.5,12.94-6.67,12.94-6.67 s 7.06-14.5,23.06-18.83 c 13.78-3.73,27.17.67,37,6.44,11.54-13.92,25.85-9.57,31.35-6.44,1.13,1.25,5,11.44,2.5,20.33-2,7.25-8.33,13.92-14.33,15.75-4,7.5,1.59,15.5,5.59,20 s 13.5,16.75,18.25,26.5,7.25,26.75,10.5,37,9.25,15.75,14.88,15.38 C 385.93,400.05,376.47,409,373.14,411.68Z"/>
  </g>
<script type="text/ecmascript" xlink:href="param.min.js"/> 
</svg>
