<?xml version="1.0"?>
<svg xmlns="http://www.w3.org/2000/svg" xmlns:xlink="http://www.w3.org/1999/xlink" viewBox="0 0 250 250">
  <title>OA030-strappy-heel-slender</title>
  <g id="main-colour">
    <path d="M 110.28,214 s 4.38,2.94,10.81.47 c .38,2.22,1,4.84,1,4.84 s -4.94,3.75-11.53.06 A 21.55,21.55,0,0,0,110.28,214Z" fill="param(main_colour)"/>
    <path d="M 115,215.54 a 7.73,7.73,0,0,1-4.75-1.53 s .25,2.91.31,5.38 a 10.13,10.13,0,0,0,4.66,1.66 S 115.09,217.48,115,215.54Z m -1.31,3.56 s -1.44-.25-1.78-.69 c 0-.87,0-2,0-2 a 5.79,5.79,0,0,0,1.75.41 A 22.43,22.43,0,0,1,113.72,219.11Z" fill="param(main_colour)"/>
  </g>
  <g id="outline">
    <path d="M 121.42,213.94 c -7.75,3.17-11.84-1.15-11.84-1.15 a 35.57,35.57,0,0,1,.63,6.94 c 7.63,4.13,12.29-.22,12.29-.22 S 121.88,216.48,121.42,213.94Z m -10.54.88 a 8.64,8.64,0,0,0,3.85,1.19 l .14,4.53 a 10.37,10.37,0,0,1-3.74-1.27 A 42.79,42.79,0,0,0,110.88,214.81Z m 4.74,5.8-.14-4.56 a 13.84,13.84,0,0,0,5.36-1 c .54,2.58.83,4,.83,4 A 10.66,10.66,0,0,1,115.61,220.61Z"/>
    <path d="M 114,216.65 a 5.31,5.31,0,0,1-2.37-.71 l .13,2.67 a 5.17,5.17,0,0,0,2.25.79 C 114,217.65,114,216.65,114,216.65Z m -1.79,1.67 c 0-.75,0-1.5,0-1.5 a 3.55,3.55,0,0,0,1.29.29 c 0,.71.08,1.71.08,1.71 A 2.6,2.6,0,0,1,112.17,218.31Z"/>
  </g>
<script type="text/ecmascript" xlink:href="param.min.js"/> 
</svg>
