<?xml version="1.0"?>
<svg xmlns="http://www.w3.org/2000/svg" xmlns:xlink="http://www.w3.org/1999/xlink" viewBox="0 0 600 600">
  <title>basic-crew-neck-t-shirt-curvy</title>
  <g id="main-colour">
    <path d="M 345.64,253 c -1.43-1.25-3.19-2.63-4.7-3.82 a 15.79,15.79,0,0,0-.71-1.57 h 0 a 12.69,12.69,0,0,0-6.41-19.85 h 0 c -4-2.33-11.4.46-11.4.46 s -.08.22-.47.27 c 2.79,7.21,3.82,17.53-8.29,19.55-14.25,2.38-27.28-5-32.15-10.17 a 33.9,33.9,0,0,1-5.68-8.52 l -.23.12 a 54.44,54.44,0,0,0-11-3.12,13.69,13.69,0,0,0-13.87,6.13 c -4.62,8.75-.12,15.63,3.88,18.5-2.75,22.25,4.63,35.5,7.25,40.25 s 4.63,8.5,5.5,15.13 c 1.38,11.88-6.87,19.38-14.12,29.88 a 66.44,66.44,0,0,0-5.42,9.45,34.8,34.8,0,0,1,10.45-1.47 c 9.25,0,16.42,2.08,25.25,4.67 s 26.83,6.33,38.33,4.42 c 9-1.51,18.36-5,23.65-8.64 a 50.65,50.65,0,0,0-2.22-4.68 c -2.67-4.92-5.58-8.25-8.08-16 s -1.58-17.67-.5-22.83 c 1-4.72,2.47-8.41,4.5-14 a 20.65,20.65,0,0,0,11.61-13.35 C 353.51,264.25,348.64,255.63,345.64,253Z" fill="param(main_colour)"/>
  </g>
  <g id="outline">
    <path d="M 254.11,341.54 s 8-2.08,23.5,2.58,39.75,11,58.75,1.92 c -8.25,2.5-15.33,4.7-30.83,3.5 C 288.27,348.21,263.36,336.88,254.11,341.54Z"/>
    <path d="M 274.57,232.3 l 0-.08Z"/>
    <path d="M 324.61,244.82 c -3.58,5.33-13.14,9.23-28.23,5-14.42-4.06-21.25-16.42-21.82-17.5,3.87,7.63,10.1,14.63,20.9,17.92,11.25,3.42,23.5,2.5,28.58-3.67 s 2.5-11.83.89-14.67 C 325.11,233.38,328.2,239.48,324.61,244.82Z"/>
    <path d="M 339.9,330.23 c -3.57-6.17-7-11.63-4.71-27.38.74-4.58,2.61-9.54,4.46-14.71 a 11.65,11.65,0,0,0,2.07-1 c 5.8-3.41,11.42-10.49,11.1-19.33-.33-9.25-5.1-15-11.68-19.5 s -11.92-11.75-11.92-11.75 c 2.17,4.83,8.75,11.42,13,14.83 a 21.61,21.61,0,0,1,8.08,14.67 c .92,6.67-3,13.92-7.11,17.33 a 21.65,21.65,0,0,1-4.62,2.9 h 0 l -.17.49-.5,1.45 c -2.35,6.74-4.75,13.46-5.08,20.69-.62,13.75,2.14,18.35,5.94,24 a 50.87,50.87,0,0,1,5.7,11.07 c -23,15-49.79,7.48-67.27,2.2-14.79-4.47-24.67-2.62-27.5-1.9,2.58-5,8.69-13.84,12.46-18.83 s 6.65-10.08,6.32-17.3 c 1.58,6,2.29,11.43,3.39,19.45.18-11.14-1.37-24.22-7.64-33.77-2.53-4.85-5.46-9.24-7.59-19.72 a 83.89,83.89,0,0,1-1.13-21.29v-.18 l 0-.25,0-.33 c 0-.29,0-.45,0-.45 h 0 l .08-.93 a 12.7,12.7,0,0,1,6.69-23.5 h 0 c .43,0,.87,0,1.32.07 a 39.48,39.48,0,0,1,6.89,1.43 l .87.26.08,0 c 1.21.38,2.42.8,3.61,1.21.81,1.86,11.41,19.4,33.33,19.4.94,0,1.9,0,2.89-.1,5.34-.35,9.33-2.41,11.86-6.13,3-4.38.88-10.38-.17-14.25 a 15.19,15.19,0,0,1,10.76-1.36 s -3-2.13-8.11-1.29 a 17.86,17.86,0,0,0-4.93,1.83 l .23.87 h 0 c 0,.09.06.2.08.3 l .12.47 c .72,3,3.07,8.34.37,12.3-2.17,3.18-5.65,5-10.34,5.26-19.35,1.29-30.66-11.49-33.37-16.36,0,0-.31-.7-.94-1.94 l -1.83-.74 a 42.52,42.52,0,0,0-10.9-3.13 l -.61-.07 a 11,11,0,0,0-1.2-.06,14.7,14.7,0,0,0-8.79,26.48,93.51,93.51,0,0,0,.74,20.13 c 1.75,12.27,5.5,17.39,9.13,24.39 s 6.07,17.93-2.62,28.16 c -7.31,8.59-11.77,16-14.5,22.92.78-.33,1.43-.6,1.87-.77,7.81-2.88,22.52-.6,31.66,2.18,9.33,2.83,20.67,6.5,37.83,6 A 51.5,51.5,0,0,0,346,345.38 h 0 a 8.46,8.46,0,0,0,.93-.83 A 53.74,53.74,0,0,0,339.9,330.23Z"/>
    <path d="M 294.05,295.38 a 31.9,31.9,0,0,1-11.43-4.1 c -5.28-3.41-8.24-7.65-10.74-14.34 A 20,20,0,0,0,294.05,295.38Z"/>
  </g>
<script type="text/ecmascript" xlink:href="param.min.js"/> 
</svg>
