<?xml version="1.0"?>
<svg xmlns="http://www.w3.org/2000/svg" xmlns:xlink="http://www.w3.org/1999/xlink" viewBox="0 0 600 600">
  <title>denim-shorts-slender</title>
  <g id="skin-tone">
    <path d="M 345.23,256.87 c -1.6-2.61-4.65-4.74-9-8.26-.34-.29-.93-.81-1.25-1.08-.76-.7-1.56-1.48-2.29-2.23 l 0,.1 c -.53-.53-1.07-1.1-1.48-1.53 a 10.8,10.8,0,0,0-5.62-15.71v-.27 a 11.12,11.12,0,0,0-9.24.73,3.12,3.12,0,0,0-1.56-.2,12,12,0,0,1-8.28-8.84,73.66,73.66,0,0,1-1.49-11.94 c -1.86.14-3.74.22-5.64.22q-2.61,0-5.17-.18 c -.13,2.22-.56,8.42-1.37,10.5-1,2.56-3.33,9-10.86,10.75-7.45-6.36-19.55-1.14-20,7.95 s 6,12.33,9.33,13.42 c -1.25,5.92,1.33,21,3.17,27.5 s 6.92,19.67,9.08,28.08 c 1.88,7.29-1.37,16.76-6.93,27.23 a 53.25,53.25,0,0,0,12.08,6.63 c 9.86,3.91,25.75,5.91,36.62-1.32 a 40.89,40.89,0,0,1-2.35-14.15 c -.17-8.42,1.82-20.63,3.91-27.88.71-2.48,1.71-5.43,2.73-8.72 a 30.14,30.14,0,0,0,9.34-2.51 c 4.67-2.33,9.92-7.58,10.17-14.25 C 349.29,265.35,348.16,260.9,345.23,256.87Z" fill="param(skin_tone)"/>
  </g>
  <g id="main-colour">
    <path d="M 331,352.65 a 140.8,140.8,0,0,1-6.12-14 l -.81.48q-.45-1.22-.84-2.51 c -.15.09-.39.22-.71.36-1.24-.69-1.51.74-1.51.74 s -2.37,1-5.24,2.09 a 1,1,0,0,0-1.69.37,26.12,26.12,0,0,1-13.51,0 c -.84-1-1.59-.17-1.59-.17 s -5.88-1.59-7.8-2.46 c -.72-1-1.44-.51-1.44-.51 s -6.1-2.71-7.26-3.48 c -.5-1.6-1.53-.51-1.53-.51 L 278.73,332 c -.35.67-.71,1.32-1.06,2 l -.66-.46 s -3.87,6.63-6.12,10.13 A 57.86,57.86,0,0,0,262.14,370 a 24.81,24.81,0,0,0,2.68,13,24,24,0,0,0,39.09,6.26,24,24,0,0,0,29.29-23.41 h 0 C 333.75,362.61,332.76,355.77,331,352.65Z" fill="param(main_colour)"/>
  </g>
  <g id="fixed-colours">
    <path d="M 313.83,348.07 a 49.36,49.36,0,0,1,3,28.33 C 317.12,367.59,316.83,358.4,313.83,348.07Z" opacity="0.5"/>
  </g>
  <g id="outline">
    <path d="M 260.51,372.76 a 57.69,57.69,0,0,1,5.42-22.38 c 5.5-11.83,18.62-28.5,16.79-41.33 s -9-25.33-11.46-40.33 a 112.55,112.55,0,0,1-1.33-18.33 h 2.55 s -.81,12,1.8,22.5,7.29,21.16,9.46,29.28,2.31,11.42-.46,19.63 c -3.12,9.25-11.43,22.1-14.18,27.47 s -6.83,15.88-6.58,23.5 C 262,373.5,260.51,372.76,260.51,372.76Z"/>
    <path d="M 324.47,318.79 c .86-9.83,4-20.86,6.64-31.31-.94.11-1.88.17-2.59.2-5.24,18.49-8.71,32.13-6.05,46,2.62,12,10.25,18.83,10.73,32.17.5-2,1.62-8.25-4.23-20.25 C 326,339.5,323.16,333.7,324.47,318.79Z"/>
    <path d="M 309.07,381 a 24,24,0,0,1-46.56-8.22 s -.43-5.55,3.16-15.53 a 26,26,0,1,0,45.66,23.29 A 13.75,13.75,0,0,1,309.07,381Z"/>
    <path d="M 311.33,380.5 l 0-.06Z"/>
    <path d="M 310.83,317.93 s -5.07,8.72-2.58,9.44 c 1,.2,1.7-1.44.9-3.34 A 29,29,0,0,1,310.83,317.93Z"/>
    <path d="M 309.21,381 a 11.07,11.07,0,0,1,0,2 c 1.82-.26,6.35-2.53,7.82-5.6 C 317,377.36,314.68,380.16,309.21,381Z"/>
    <path d="M 278.46,228.15 s 3,1.65,6,3.31,7.83,2.25,12.5,1.42 c -3.92,0-10.23-.88-14.74-4.73 A 7.09,7.09,0,0,0,278.46,228.15Z"/>
    <path d="M 293.57,207.64 c 0,1.77-.57,18.2-12,20.18-.18,1.23,1.49,1.9,1.49,1.9 s 11.68-2.25,12.15-22Z"/>
    <path d="M 316.63,228.44 a 26.5,26.5,0,0,1-10.12,3.19 c 3.75-1.17,9.06-5.28,10.12-5.39,1.88-.86,6.31-.86,8.89,1.64 a 11.26,11.26,0,0,0-8.35.33Z"/>
    <path d="M 306,207.56 l -1.48.12 a 41.37,41.37,0,0,0,1.15,11.62 c 1.67,7.92,8.08,9.64,8.08,9.64 a 3.06,3.06,0,0,0,1.42-1.05 C 306.62,225,306.51,215.58,306,207.56Z"/>
    <path d="M 311.12,230.57 s 2-.85,6.2-2.46"/>
    <path d="M 272.45,249.51 h 0 a 11.2,11.2,0,1,1,7.7-20.44 h 0 c 2.33,1.28,5.19,2.79,5.32,2.86 a 13.2,13.2,0,1,0-13,19.6 C 272.49,251,272.45,249.51,272.45,249.51Z"/>
    <path d="M 327.9,240.25 s 7.94,8.06,14.1,11.9 c 8.6,5.34,10.48,15.42,7.49,23.3-3.83,10.11-16,15.45-27.33,11.61,5.39.8,16.17-.25,22.83-8.67,4.24-5.35,4.75-17-3.17-23.83 C 336.85,250.26,329.62,243.53,327.9,240.25Z"/>
    <path d="M 308.75,247.63 s 15.76,5.82,18.25,18.27 c 2.25,11.25-4.58,24.42-18.58,25.92-8.71.93-13.3-2.19-16.61-4.52,4.93,2.5,15.17,5,23.7.1,8.25-4.75,11.13-16.12,7.83-24.75 C 320.26,254.59,311.35,248.8,308.75,247.63Z"/>
    <path d="M 282,332.87 c .5.3.59,1.14.62,1.67,1.8.92,4.09,2,6.68,3 a 2.14,2.14,0,0,1,.85-.54 c .4-.06.92.29,1.23,1.34 a 61.18,61.18,0,0,0,7.43,2.23 c .18-.37.6-1.13,1.08-1 s .86,1,1,1.39 a 36.35,36.35,0,0,0,7.49.63,30.13,30.13,0,0,0,5.56-.83 c .06-.36.24-1,.75-1.14 a 1.09,1.09,0,0,1,1.32.58,39.51,39.51,0,0,0,4.94-1.87,1.57,1.57,0,0,1,.47-1.29 c .44-.43,1.06,0,1.47.33 a 16.06,16.06,0,0,0,1.41-.85 c -.27-.32-.67-.91-.67-.91 s -7.4,4.37-15.47,4.76-20.86-4.26-29.11-9.28 c -.31.43-.66,1-.66,1 s .79.49,2.16,1.24 C 280.92,333.1,281.56,332.62,282,332.87Z"/>
    <path d="M 325.9,340.18 c -.52.3-.46.19-1.1.55v0 c .14.81.12,1.62-.46,1.59 a 2.57,2.57,0,0,1-1.59-.54,37.74,37.74,0,0,1-5.78,2.36 c 0,.5-.17,1.35-.61,1.4 s -1.13-.45-1.5-.83 a 32.59,32.59,0,0,1-7,.91,45.28,45.28,0,0,1-7.81-.5,1.56,1.56,0,0,1-1.32.67 c -.47,0-.68-.58-.77-1 a 52.22,52.22,0,0,1-8.3-2.36,2.43,2.43,0,0,1-1,.63,1.29,1.29,0,0,1-1.17-1.51,56.07,56.07,0,0,1-7.08-3.61,2.82,2.82,0,0,1-.76.37 c -.81,0-1.4-.43-1.15-1.58 a 18.17,18.17,0,0,1-2.09-1.55 s -.8.23-.77.85 a 50.72,50.72,0,0,0,32.19,10.76 c 11.64-.13,18.82-5.7,18.82-5.7Z"/>
    <path d="M 283.43,343.38 a 11,11,0,0,1-12.93,5.14 A 8.25,8.25,0,0,0,283.43,343.38Z"/>
    <path d="M 307.79,341 s .15,3,0,5.26 l .88.08 a 29,29,0,0,0,0-5.38 A 1.86,1.86,0,0,1,307.79,341Z"/>
    <path d="M 301,341.26 s -.58-3.25-1.88-1.81-2,6-.93,6.68,2-.33,2.21-1.34 c -.72.66-2.27,1.4-1.91-1.49 S 299.74,338.84,301,341.26Z"/>
    <path d="M 300.22,341.15 a 4.93,4.93,0,0,0-.51,3.59 A 19.56,19.56,0,0,1,300.22,341.15Z"/>
    <path d="M 314.72,344.59 s 1.8,2.76,2.44.92-.54-6.27-1.77-6.51-1.72,1.09-1.51,2.1 c .4-.89,1.54-2.18,2.34.62 S 316.79,346.33,314.72,344.59Z"/>
    <path d="M 315.44,344.4 a 4.93,4.93,0,0,0-.94-3.51 A 19.56,19.56,0,0,1,315.44,344.4Z"/>
    <path d="M 322.72,341.8 s 2.48,2.17,2.6.23-2.22-5.89-3.46-5.79-1.36,1.51-.88,2.43 c .15-1,.89-2.51,2.42,0 S 325.19,342.92,322.72,341.8Z"/>
    <path d="M 323.37,341.42 a 4.93,4.93,0,0,0-1.85-3.12 A 19.56,19.56,0,0,1,323.37,341.42Z"/>
    <path d="M 291.42,338.66 s -.22-3-1.8-1.85-3.18,5.43-2.32,6.33,2.11.28,2.6-.95 c -1,.78-2.67,1-1.71-1.75 S 290.45,336.29,291.42,338.66Z"/>
    <path d="M 290.39,338.72 a 4.93,4.93,0,0,0-1.26,3.4 A 19.56,19.56,0,0,1,290.39,338.72Z"/>
    <path d="M 282.6,334.82 s .37-3.26-1.28-2.5-4,4.86-3.29,5.88,2,.62,2.71-.53 c -1.07.61-2.79.56-1.41-2 S 282.29,332.16,282.6,334.82Z"/>
    <path d="M 281.77,334.32 a 4.93,4.93,0,0,0-1.78,3.16 A 19.56,19.56,0,0,1,281.77,334.32Z"/>
  </g>
<script type="text/ecmascript" xlink:href="param.min.js"/> 
</svg>
