<?xml version="1.0"?>
<svg xmlns="http://www.w3.org/2000/svg" xmlns:xlink="http://www.w3.org/1999/xlink" viewBox="0 0 600 600">
  <title>curvy-top-template</title>
  <g id="main-colour">
    <path d="M 254.59,256.88 s 7.08,2.25,12.08-.25,10.5-8.5,10.58-15.25-3.42-13.25-3.42-13.25 a 10.57,10.57,0,0,0,6.58-3.08 c 2.67,5.42,10.08,18.17,18.67,23.25 s 15.58,2.08,17.92-1.5,4.92-11.58,1.92-20.67 a 12.88,12.88,0,0,0,5.75,1.33,93,93,0,0,1,11.58,13.83 c 5.42,8,8.61,18.71,7.86,27.46 s -2.94,13-5.94,21-5.17,16.5-4.58,24.75,3.92,13.25,7.08,18.42,9.58,16.58,12.67,29.67,5.83,29.5,4.92,42.67 c -4.67,6.58-18.51,12.13-33.17,13.87 a 96.19,96.19,0,0,1-38-2.78 c -11.42-3.08-27.42-7-43-.42-5.25-25.33-2.42-48.17,1-60.92 s 9.08-20.58,16.08-29.92,7.67-16.08,5.33-23.42-7.67-14-10-23 S 254.59,256.88,254.59,256.88Z" fill="param(main_colour)"/>
  </g>
  <g id="outline">
    <path d="M 343.59,336.38 c -6.75-11.75-9.25-14.5-9.08-25 s 2.5-15.67,4.17-20.33 a 127.43,127.43,0,0,0,3.93-12.34 A 28.6,28.6,0,0,0,344,276 c 3.22-6.84,1.58-14.33-.4-18.55-1.41-8.19-5.65-18.2-18.61-30.74-3.25.25-5.56-.37-7.52-2,2.67,5.83,4.17,24-8.33,25.5 S 284.88,233.13,280.71,224 c -3,3.29-8,3.54-8,3.54 s 6.13,8.13,2.75,18.38-13.37,12.69-22,9.94 c -.5,11.75,1.5,25.31,7.5,35.81 S 268.59,310,264.84,318 s -12.14,13.26-18.37,28.75 c -12.63,31.38-3.88,56.63-3.63,70.38,12.75-4.75,22-5.08,39.83-.42,20.73,5.43,60.67,8.17,76.67-10.33 C 360.59,371.88,350.34,348.13,343.59,336.38Z m 13.87,68.88 c -3.79,6.13-17.31,11-28.31,12.48-10.55,1.44-25.15,1.81-36.82-.61 s -18.12-4.4-25-5.27-17.62.52-22.5,2.77 c 0,0-4.37-23.25-2.25-42 s 6-27.75,12.25-37.12,12.38-15.12,13.38-23-1.75-13.62-3.62-17.5-9.75-15.12-9.37-37.06 c 0,0,9,2.81,16-3.12 a 19.61,19.61,0,0,0,6.5-18.44,29.43,29.43,0,0,0-2.75-7.69 s 3.75-.75,5.19-2.44 a 75.5,75.5,0,0,0,12.19,17.63 c 5.31,5.5,12.06,9.06,18.88,7.69 s 8.94-8.37,9.38-12.19.38-9.12-.94-12.06 c 1.63.88,4.69.69,4.69.69 s 3.69,3.06,9.56,11 a 46.65,46.65,0,0,1,7.26,14.77 c -2.47-2.91-6-6.48-6-6.48 s 3.64,5.61,5.17,8 c 1.92,3,4.08,6.75,3.08,15.25 s -9,16-9,16 a 15.39,15.39,0,0,0,5.56-4.2 c -.35,1.06-.71,2.15-1.09,3.35-2.06,6.5-6.37,16.75-6.06,25.63 s 1.5,12.19,3.69,16.31,10.87,16.25,15.29,32.92 C 354.52,371,358.09,382.13,357.46,405.25Z"/>
    <path d="M 284.36,288.21 c 10.17,2.67,19.67-1.17,23-9.33 A 25.7,25.7,0,0,1,284.36,288.21Z"/>
  </g>
<script type="text/ecmascript" xlink:href="param.min.js"/> 
</svg>
