<?xml version="1.0"?>
<svg xmlns="http://www.w3.org/2000/svg" xmlns:xlink="http://www.w3.org/1999/xlink" viewBox="0 0 150 150">
  <title>BT002_OA001</title>
  <g id="skin-tone">
    <path d="M 79.44,79.44 c .81-1.42,2.25-4.92.25-7.67 s -6.12-2.93-7.84-1.58 c -1.54,1.21-2.82,2.92-2.41,5.17 a 31.18,31.18,0,0,1,0,7 c -.34,4.43-1.8,10.8,1.38,12.83,2.2,1.4,5.42,1.11,6.74,0,3.23-2.72,2.63-8.46,2.49-9.46 C 79.82,83.7,78.61,80.9,79.44,79.44Z" fill="param(skin_tone)"/>
  </g>
  <g id="main-colour">
    <path d="M 68.81,87.13 s 0,2.63.07,4.5,1.32,4.5,5.4,4.57,6-3.32,5.74-7.68 c 1.11,2.77,3.39,7.82,4.36,10.66 s .42,6.58-3.67,8.17-10.17,1.59-14.4-1.38 S 64,96.89,65.14,94.4Z" fill="param(main_colour)"/>
  </g>
  <g id="accent-colour-1">
    <path d="M 65.49,105.89 s 2.35,2.35,9.21,2.42,8.65-2.56,8.65-2.56,1.18,5.05-8.51,5 S 65.07,107.14,65.49,105.89Z" fill="param(accent_colour_1)"/>
  </g>
  <g id="outline">
    <path d="M 84.11,95.92 a 37.1,37.1,0,0,1-2.77-9.09 c -.54-3.26-2-6.11-.86-7.89 l .06-.1 A 6.67,6.67,0,0,0,81.75,75,6.76,6.76,0,0,0,75,68.25 h 0 A 6.75,6.75,0,0,0,69,78 c .66,2.26-.67,4.93-1.19,7.35 s -2.31,4.94-4.15,10.38,0,9.09,1,10.47 c -.74,2.31,2.47,5.23,9.6,5.17,11.35-.09,9.87-5.35,9.87-5.35 C 86.32,103.63,86.23,100.35,84.11,95.92Z M 75,70.25 h 0 a 4.72,4.72,0,0,1,4.42,6.44 h 0 a 12.74,12.74,0,0,0-1,4.11,33.71,33.71,0,0,0,1,4.61 c .25,3,.34,6.54-1.54,8.79-2.31,2.77-8.58,1.45-8.51-3.52 a 41.41,41.41,0,0,1,.83-8.37 c .16-.59.31-1.11.44-1.52 a 5.26,5.26,0,0,0,.33-1v0 h 0 a 4.56,4.56,0,0,0-.2-2.64v0 A 4.7,4.7,0,0,1,70.25,75,4.75,4.75,0,0,1,75,70.25Z m 5.55,39 a 20.5,20.5,0,0,1-6.1.78 A 17.53,17.53,0,0,1,68,109 c -2.17-.78-2.2-2.24-2.2-2.24 a 17.69,17.69,0,0,0,8.86,2.08 c 5.09,0,7.45-1.36,8.24-2.28 C 82.9,107.6,81.75,108.75,80.55,109.26Z M 74.49,108 c -3.6-.14-7.68-.62-9.34-4.71-2.09-5.15,1.94-10.8,2.7-12.6.18-.42.36-1,.54-1.53 a 17.7,17.7,0,0,0,0,3.46 c .28,2.49,2.82,4.07,5.87,4.19,3.24.13,6-1.89,6.16-6.06.69,1.92,1.95,4.39,3.15,8.11 C 86,106.31,78.94,108.14,74.49,108Z"/>
  </g>
<script type="text/ecmascript" xlink:href="param.min.js"/> 
</svg>
