<?xml version="1.0"?>
<svg xmlns="http://www.w3.org/2000/svg" xmlns:xlink="http://www.w3.org/1999/xlink" viewBox="0 0 600 600">
  <title>basic-crew-neck-t-shirt-curvy</title>
  <g id="main-colour">
    <path d="M 348.07,248.88 c -1.81-1.18-4.37-2.7-6.32-3.85 a 12.58,12.58,0,0,0,1.08-5.1,12.71,12.71,0,0,0-9-12.16 h 0 c -4-2.33-11.4.46-11.4.46 s -.08.22-.47.27 c 4,6.71,4.76,17.61-7.36,19.63-14.25,2.38-27.87-5.54-32.75-10.67 a 34.61,34.61,0,0,1-6-8.11 l -.23.12 a 54.44,54.44,0,0,0-11-3.12,13.69,13.69,0,0,0-13.87,6.13 c -4.62,8.75-.12,15.63,3.88,18.5-2.75,22.25,4.62,35.5,7.25,40.25 s 4.63,8.5,5.5,15.13 c 1.38,11.88-6.87,19.38-14.12,29.88 a 66.48,66.48,0,0,0-5.37,9.33,31.27,31.27,0,0,1,9.82-1.42 c 10-.12,15.13,1.5,26.25,4.75 s 30.63,7.38,45.5,3 a 60,60,0,0,0,16.43-7.52,25.07,25.07,0,0,0-1.93-5.23 c -2.67-4.92-6.25-7.4-8.75-15.15 s -1.58-17.67-.5-22.83 a 66.6,66.6,0,0,1,2.76-9.25,24.59,24.59,0,0,0,20-22.35 C 358.07,257.71,351.4,251,348.07,248.88Z" fill="param(main_colour)"/>
  </g>
  <g id="outline">
    <path d="M 270.79,277.64 c 4.78,15.74,15.94,21.74,29.11,19.57 C 288.4,295.88,278.75,293,270.79,277.64Z"/>
    <path d="M 345.92,246.52 a 164.81,164.81,0,0,1-16.71-9.92 c 1.59,2.21,8.54,7.25,13,9.67,5.21,2.8,11.13,8.07,12.83,14.58,2,7.67,1.29,14.67-4.46,22.17 a 22.92,22.92,0,0,1-13.75,8.17 h 0 l -.6,1.76 h 0 a 58.9,58.9,0,0,0-3.47,16 c -.62,13.75,2.14,18.35,5.94,24 a 50.87,50.87,0,0,1,5.7,11.07 c -23,15-49.79,7.48-67.27,2.2-14.79-4.47-24.67-2.62-27.5-1.9,2.58-5,8.69-13.84,12.46-18.83 s 6.65-10.08,6.32-17.3 c 1.58,6,2.29,11.43,3.39,19.45.18-11.14-1.37-24.22-7.64-33.77-2.53-4.85-5.46-9.24-7.59-19.72 a 83.89,83.89,0,0,1-1.13-21.29v-.18 l 0-.25,0-.33 c 0-.29,0-.45,0-.45 h 0 l .08-.93 a 12.7,12.7,0,0,1,6.69-23.5 h 0 c .43,0,.87,0,1.32.07 a 39.48,39.48,0,0,1,6.89,1.43 l .87.26.08,0 c 1.21.38,2.42.8,3.61,1.21.81,1.86,12.25,19.23,34.18,19.23.94,0,1.9,0,2.89-.1,5.34-.35,9.33-2.41,11.86-6.13,3-4.38,1-10.4-1-14.09 a 15.19,15.19,0,0,1,10.76-1.36 s -3-2.13-8.11-1.29 a 20.56,20.56,0,0,0-5.29,2 l .79,1.51 c 1.52,2.74,3.74,8.3,1,12.26-2.17,3.18-5.65,5-10.34,5.26-19.35,1.29-31.33-11.45-34-16.32,0,0-.31-.7-.94-1.94 l -1.83-.74 a 42.52,42.52,0,0,0-10.9-3.13 l -.61-.07 a 11,11,0,0,0-1.2-.06,14.7,14.7,0,0,0-8.79,26.48,93.51,93.51,0,0,0,.74,20.13 c 1.75,12.27,5.5,17.39,9.12,24.39 s 6.07,17.93-2.62,28.16 c -7.27,8.55-11.72,15.94-14.45,22.81 l 1.33-.49 h 0 c 7.67-3.17,22.83-.83,32.17,2 s 20.67,6.5,37.83,6 a 52.44,52.44,0,0,0,27.47-8.7 h 0 s .83-.55,1.8-1.33 a 54.13,54.13,0,0,0-7.06-14.45 c -3.57-6.17-7-11.63-4.71-27.38 a 60.74,60.74,0,0,1,2.8-10,19.05,19.05,0,0,0,4.14-1 c 4.38-1.62,14.89-7.68,16.27-20.81 S 352.78,249.88,345.92,246.52Z"/>
    <path d="M 254.11,341.54 s 8-2.08,23.5,2.58,39.75,11,58.75,1.92 c -8.25,2.5-15.33,4.7-30.83,3.5 C 288.27,348.21,263.36,336.88,254.11,341.54Z"/>
    <path d="M 325.23,245.29 c -3.83,5.17-13.42,8.58-28.5,4.33 s -22.21-17.42-22.21-17.42 c 2.92,7.58,11.36,14.82,22.21,18.11,12.08,3.67,23.67,2.14,28.75-4 s .92-12.17-.54-14.42 C 326.57,235.46,329.07,240.13,325.23,245.29Z"/>
  </g>
<script type="text/ecmascript" xlink:href="param.min.js"/> 
</svg>
