<?xml version="1.0"?>
<svg xmlns="http://www.w3.org/2000/svg" xmlns:xlink="http://www.w3.org/1999/xlink" viewBox="0 0 215 215">
  <title>hourglass-top-template</title>
  <g id="skin-tone">
    <path d="M 116.94,99.93 a 12,12,0,0,0-16.88-2,12.43,12.43,0,0,0-4.1,12.8,84.42,84.42,0,0,0-.78,8.47 c -.34,8.46.87,29.52,2.48,40.66 s 2.53,16.71,5.78,25.28 c 1.44,3.64,2.31,6.77,6,6.23 s 4.64-3.81,5.15-7.4,1.58-22.81,1.58-30.28-.09-24,.73-29.38 c .53-3.5,1.66-9.05,2-13.15 A 12,12,0,0,0,116.94,99.93Z" fill="param(skin_tone)"/>
  </g>
  <g id="main-colour">
    <path d="M 95,117.26 s 9.94,4.44,23,.56 c -.56,4.38-1.12,11.37-1.12,11.37 s -10.56,4.88-21.5-.35Z" fill="param(main_colour)"/>
  </g>
  <g id="outline">
    <path d="M 118.51,98.7 a 14,14,0,0,0-11-5.35 h 0 a 14,14,0,0,0-13.91,12.37,14.16,14.16,0,0,0-.06,2.78,13.13,13.13,0,0,0,.43,3.12,235,235,0,0,0,1.39,37 c 2.69,24.16,4.85,32.3,8.16,39.62 a 6.5,6.5,0,0,0,.63,1.35 l .07.14,0,0 c .12.18.24.36.38.54 a 5.9,5.9,0,0,0,10.21-1.72 h 0 c .08-.28.16-.61.23-1,0,0,0-.1,0-.15.23-1.19.41-2.6.48-3.29.33-3.49,2.11-38.5,2-50.35-.06-7.14,1.42-14.05,2.12-19.55 A 14,14,0,0,0,118.51,98.7Z M 96,128.72 c -.12-2.38-.18-4.29-.15-5.48,0-1.54.07-3.23.1-4.93 a 35,35,0,0,0,21,.48 c -.56,4-.9,7.84-1.21,10.11 C 108.31,131.74,99.27,129.65,96,128.72Z m 18.24,47.1 c -.13,2.88-.32,6.75-.62,9.8 a 16.93,16.93,0,0,1-.59,1.89,3.87,3.87,0,0,1-1.37,2.2,3.78,3.78,0,0,1-4.88,0 s -.21-.2-.23-.19 c -1-.81-2.61-4.62-2.83-5.15 a 95,95,0,0,1-4.5-18.23 c -1-7.73-2.56-25.5-3.14-36,9.79,3.26,16.71,1.5,19.47.46-.49,6.79-.23,23.55-.43,27.84 S 114.47,171.32,114.26,175.83Z m 3.63-62.61-.06.28 c -.28,1.14-.3,1.88-.62,3.57-8.75,2.63-17.88.77-21.22-.1,0-.53,0-1.07,0-1.59 a 51,51,0,0,0-.23-5.37,14.64,14.64,0,0,1-.23-2.64v-1.25 a 12,12,0,0,1,23.84-.48 C 119.65,108.22,118.53,110.22,117.89,113.22Z"/>
  </g>
<script type="text/ecmascript" xlink:href="param.min.js"/> 
</svg>
