<?xml version="1.0"?>
<svg xmlns="http://www.w3.org/2000/svg" xmlns:xlink="http://www.w3.org/1999/xlink" viewBox="0 0 600 600">
  <title>basic-crew-neck-t-shirt-hourglass</title>
  <g id="main-colour">
    <path d="M 340.14,251.13 c -1.93-1.62-4.29-3.58-5.81-4.83.16-.21.31-.43.45-.66 l 0,0 c .15-.24.29-.48.42-.73 l .1-.2 c .12-.23.24-.47.34-.71 l .07-.18 a 11.91,11.91,0,0,0,.41-1.17 c .06-.2.12-.41.17-.61 s .07-.31.1-.46.09-.49.12-.74,0-.26,0-.39 c 0-.38.06-.77.06-1.17 h 0 a 12,12,0,0,0-16-11.31 c -.53-.11-1-.26-1.51-.41.91,2.21,2.39,6,2.44,8,.13,4.88-3.15,10.78-14.28,11.41 S 286.61,241.25,281,236 a 29.69,29.69,0,0,1-5.63-7.12 l -.13,0 c -5.33-2.17-11.92-4-16.83-1.17 s -7.33,8-6.42,14 S 257.88,251,263,252.18 c -.08,8.08,1.5,22.33,4.83,29.25,0,0,4.06,10.79,8,20.87 a 86.33,86.33,0,0,1,4.92,20.08 c -2.83,6.5-10,13.13-14.31,17.21 a 46.09,46.09,0,0,0-8.75,10.55,41.53,41.53,0,0,1,10.72-1.43 c 8.08,0,19.25,3.33,27.33,4.67 s 21,2.75,27.17-1.17 a 28.16,28.16,0,0,0,7.93-6.93 c -1.86-3-4-5.79-6-8.6-4.17-5.92-5.25-9-4.83-14.25 s 4.92-13.67,8.5-19.67 A 57.44,57.44,0,0,0,333.62,290 l -.39.11.34-2.38 A 21,21,0,0,0,348.26,270 C 349.14,260.88,343.26,253.75,340.14,251.13Z" fill="param(main_colour)"/>
  </g>
  <g id="outline">
    <path d="M 264.86,275.5 c 7,13.63,11.78,24.69,15,35.5,3.17,10.64,3.11,21-5.25,29.13,8.26-12.21,5.13-24.39.48-37.35 C 272.23,294.83,267.53,283.52,264.86,275.5Z"/>
    <path d="M 318.71,226.54 l -1,.47 c .21.74.85,1.38,1,1.84,2.7-1.15,4.74-3.35,10.32-1.84 C 327,225.63,323.79,224.31,318.71,226.54Z"/>
    <path d="M 307.84,247.54 c -20.22,0-33.48-18-33.59-18.14 l 1.71-1 c .11.19,13.47,18.21,33.58,17.13,4.58-.25,7.84-1.75,9.69-4.48,3.62-5.35-1.16-13.35-1.19-13.43 l 1.89-.64 c .13.38,5.13,9,1,15.2-2.21,3.27-6,5.08-11.24,5.36Q308.73,247.54,307.84,247.54Z"/>
    <path d="M 319.11,323 s -1.08,8.58,4.75,18.38 c -3-7-3.75-15.87-3.5-18.37 C 320.23,321.63,319.11,323,319.11,323Z"/>
    <path d="M 337.72,248.18 c -6.58-4.5-11.92-11.75-11.92-11.75,2.17,4.83,8.75,11.42,13,14.83 a 21.61,21.61,0,0,1,8.08,14.67 c .92,6.67-3,13.92-7.11,17.33 a 22.36,22.36,0,0,1-7.16,3.91 c -.18,1-.36,1.71-.36,1.72 l .21,0,2.81-.59 a 13.21,13.21,0,0,0,3-1.27 c 5.8-3.41,11.42-10.49,11.1-19.33 C 349.06,258.43,344.3,252.68,337.72,248.18Z"/>
    <path d="M 276.22,285.38 A 26.12,26.12,0,0,0,291.39,294 a 32.68,32.68,0,0,0,12.5-.33 C 294.19,298.69,280.93,296.08,276.22,285.38Z"/>
    <path d="M 257.36,351 s 7.25-3.5,24.13.25,30.89,6.29,39.75,2.75 c 8-3.21,10-8.25,10-8.25 l -.87-1 a 20.23,20.23,0,0,1-10,7.88 c -6.87,2.5-14.33,1.67-23.37.25-10.32-1.62-27.37-7.92-38.62-3.37 C 258,350,257.36,351,257.36,351Z"/>
    <path d="M 263,346.88 s 4.83-1.67,15.67.58,25.83,5.83,33.42,5.33 a 27.6,27.6,0,0,0,13.17-4.58 S 318,352,311.63,352.27 c -5.83.21-13.19-1.23-22.77-3.31 S 267.19,344.21,263,346.88Z"/>
    <path d="M 277.36,236 s 7.45,10.71,23.13,13.38 c 16.32,2.78,22.46-3,23.74-10.17.42-2.33-.42-6.67-.42-6.67 s 2.71,4.46-.17,10.83-12.15,9-23.4,6.75 S 281.22,242.55,277.36,236Z"/>
    <path d="M 278.88,324.34 c -4.43,8-17.11,15.54-23.14,27.32,1.46-.65,2.65-1,2.65-1v0 a 42.24,42.24,0,0,1,4.91-6.38 c 2.18-2.33,7.39-7.09,11.86-12 l .74-.84 c .82-.93,1.6-1.86,2.33-2.78 l .76-1 a 33,33,0,0,0,1.89-2.78 c 0-1.2-.06-2.77-.2-4.51 A 26.68,26.68,0,0,1,278.88,324.34Z"/>
    <path d="M 264,271.93 a 49.5,49.5,0,0,0,8.41,19.16,125.18,125.18,0,0,1-5.32-14.91 h 0 c -2.54-8.6-2.85-19.59-2.88-22.93,0-.41,0-1.11-.1-2 a 12,12,0,0,1,.54-24,7.81,7.81,0,0,1,2,.18,12,12,0,0,1,1.62.38,68.27,68.27,0,0,1,7.12,2.48 c .75.25,1.63.54,2.56.83,0,0-1.09-1.43-2-2.86 l -1.33-.51 a 47.82,47.82,0,0,0-5.16-1.64 A 14,14,0,1,0,262.13,253 C 262.12,253.21,261.58,259.84,264,271.93Z"/>
    <path d="M 331.46,345.15 c -.53-.87-1.1-1.78-1.74-2.73-6.17-9.17-9.83-13-8.92-20.08.77-5.92,5.19-13.63,8.09-18.78 h 0 c 3.22-5.09,4.6-8.87,6-16.11-.82.23-1.67.44-2.41.62-1,4.76-2.76,10.64-5.5,15.18-4.42,7.33-6.8,13.75-7.72,18.75-.83,4.54.95,9.2,3,12.28 l .69,1 c .71.91,1.49,2,2.31,3.12 l .7,1 c 1.58,2.23,3.27,4.75,4.87,7.25 A 6.46,6.46,0,0,0,331.46,345.15Z"/>
  </g>
<script type="text/ecmascript" xlink:href="param.min.js"/> 
</svg>
