<?xml version="1.0"?>
<svg xmlns="http://www.w3.org/2000/svg" xmlns:xlink="http://www.w3.org/1999/xlink" viewBox="0 0 600 600">
  <title>hourglass-top-template</title>
  <g id="main-colour">
    <path d="M 263.09,261.13 s 27.25-5.5,42-27 c 7.75,2.75,17.25,6.5,21.75,9.25 s 15.69,11.25,14.94,25.5 c -.35,6.56-4.25,11-7,13.52-.91,7-2.41,12.18-3.73,15-2.25,4.75-8,13.5-10,20.75 s -2,10.5,4.5,18.5,19.25,25,22.5,49,2.25,72.75-1,86 c -8.25-6.25-19.25-5.75-32.5-1.75 s -42.25,17-70.25,4.25 c 9.75-11.25,12-17.75,9-37.5 s -10-32.75-5-61.25,17.5-33.83,26-44.17,10-15,8-25.33 c -2-9.5-9.17-11.17-14.33-24.17 S 263.09,261.13,263.09,261.13Z" fill="param(main_colour)"/>
  </g>
  <g id="outline">
    <path d="M 351.22,406.13 c -1.25-27-5.92-39.42-10.67-48.5 s -11.83-18.42-15.08-22.5-5.25-7.08-4.58-12.67,5.17-13.58,8.83-20.17 a 52.87,52.87,0,0,0,5.92-19.08 c 1.17-1.5,4.55-4.18,6.61-11.75,1.73-6.33-.44-14.92-5.61-20.58 a 49.26,49.26,0,0,0-15.08-11.5 c -5.09-2.59-13.59-6.08-13.59-6.08 a 80.84,80.84,0,0,0,6.58-8.92,4.59,4.59,0,0,0-3-3.08 A 90.29,90.29,0,0,1,305,232 a 109.34,109.34,0,0,1-17.83-11.33,5.29,5.29,0,0,0-2.75,2.75 c 2.92,2.83,12.17,8,18.83,11.25 C 283.31,257.29,262,259.13,262,259.13 c 1.17,18.58,7.88,29.92,12.29,35.33 s 8.08,9.75,7.67,18.58-6.17,15.67-8.83,18.25-11.33,9.08-18.92,21.75-9,35.33-8.5,47.58,5.33,27.5,7,39.92-.5,24.5-10.08,33.67 c 13.58,10.58,47.75,6.08,56.83,2.25 a 104.78,104.78,0,0,1,29.25-8.08 c 11.08-1.33,19.75,6.08,19.75,6.08 S 352.47,433.13,351.22,406.13Z m -5,63.38 c -9.62-5.75-21.5-3.75-31.12-1 s -38.62,16.63-68.5,5.5 c 8.63-10.37,10.87-20.62,7.75-38.5 s -8-27.5-6-51.25,9.25-34.25,19.25-44.5,16-16.37,16.63-26.12-2.87-14.25-7-18.87 S 265.47,277.92,264.56,262 c 0,0,12.75-2.25,23-9.92 a 162.51,162.51,0,0,0,18.5-16.42 s 14.32,4.74,19.92,8.5,9.57,7.76,12.17,13.08 c 3.25,6.67,4.5,16.67-5.19,26 a 47.48,47.48,0,0,1-5.4,19.44 c -2.75,4.83-6.92,13.17-8.17,18.83 s 1.08,10.25,4.25,14 a 153.55,153.55,0,0,1,15.42,24 c 4.58,9.17,8.08,19.17,9.58,41.17 S 347.89,457.75,346.27,469.5Z"/>
    <path d="M 287.15,288.25 c -.49-.1,14.25,1.88,23.75-10.5 C 307,285.5,299.9,290.88,287.15,288.25Z"/>
  </g>
<script type="text/ecmascript" xlink:href="param.min.js"/> 
</svg>
