<?xml version="1.0"?>
<svg xmlns="http://www.w3.org/2000/svg" xmlns:xlink="http://www.w3.org/1999/xlink" viewBox="0 0 600 600">
  <title>basic-bikini-top-slender</title>
  <g id="main-colour">
    <path d="M 274.29,279.8 a 15.63,15.63,0,0,1-.92-4 c 3.17,2.17,9.83,5.25,14.67,5.5,2.5-8.5,6.5-21.92,14.08-27.33 C 298,244.13,290.45,231.3,285,227 c 1.33-.75,2.42-1.25,2.42-1.25 s 10.67,8.75,17.17,27.5 c 4.42.83,9.25,2.92,11.17,8.5 S 314.37,274.8,313.2,277 a 15.68,15.68,0,0,1,5.25,0 c 3.25-8.25,7.42-17.67,14.92-23.83 A 49.9,49.9,0,0,0,321.62,241 c -3.92-2.83-15.08-13.5-13.67-19.67.67,1.17,1.5,2.58,1.5,2.58 a 33.64,33.64,0,0,0,8.83,11.75 c 6.17,5.17,13.92,11.5,17.42,16.08 a 21.49,21.49,0,0,1,4.08,19.33 c -2.17,8.5-8.75,12-9.75,12.25-2.75-.08-4.17-.58-7.58-2.58-4.42-1.17-9.83-1.33-11.67-.83-4.08,3.42-6.5,5.67-12.92,5.67 S 281.45,283,274.29,279.8Z" fill="param(main_colour)"/>
  </g>
  <g id="outline">
    <path d="M 335.12,250.29 c -2.09-2.71-11.8-10.7-16.4-14.75-4.77-4.2-7.78-8.52-9.11-11.85 a 16.86,16.86,0,0,1-1.72-3.16 s -1.83,1.68,1.5,7.84,12.06,12.77,16.07,16.33 a 43.34,43.34,0,0,1,7.25,8.42 s -9.21,6.63-14.71,23.63 a 10.27,10.27,0,0,0-4,0 s 3.34-5.65,2.83-11.42-2.25-9.92-11.67-12.58 c -5.75-14.08-11.49-22.67-18-27.83 a 23.67,23.67,0,0,1-3.33,2 s 10,8.44,17.57,26.75 c -9,8.67-11.46,17.75-13.82,27.25-6-.5-15-5.92-15-5.92 s .17,3.42,1.33,4.92 c 5.67,3.17,16.81,6.39,24.32,6.17,8.58-.25,10.92-3.75,12.92-5.42,3.5-1.17,11.35.75,11.35.75 a 12.31,12.31,0,0,0,7.4,2.42 c 3.75-1.25,9.8-6.24,11.42-15.75 C 342.79,259.71,337.62,253.54,335.12,250.29Z M 295.29,285 a 75.34,75.34,0,0,1-20.74-5.67,14.26,14.26,0,0,1-.58-2.75 c 5.25,3.33,11.08,5.17,14.58,5.25,4.15-15.75,8.4-23,14.34-27.62 A 90,90,0,0,0,286.07,227 a 2.36,2.36,0,0,0,1.31-.69 c 9.5,8,14.49,21.56,17.07,27.48,3.92.5,9,3.2,10.42,7.42,2.17,6.67-.11,12.42-3.17,16.83 A 17,17,0,0,1,295.29,285Z m 39.83-6.17 a 20.73,20.73,0,0,1-2.06,2.07q-.43.13-.89.23 a 4.76,4.76,0,0,0,1-3,6.39,6.39,0,0,1-2.29,3.26,12.56,12.56,0,0,1-4.78-.35,11,11,0,0,0,5.8.75 c -2.65,1.69-5.05,1.09-9-1.33-3.43-1.25-10.51-1.08-10.51-1.08 a 13,13,0,0,0,1.42-2,16.94,16.94,0,0,1,5,.17 c 2.75-7.62,7-16.67,15.08-24.25 a 40.41,40.41,0,0,0-9.24-10.5 c -3.51-2.84-9.92-8.33-12-10.83 s -4.59-6.65-4.5-9.61 a 7.47,7.47,0,0,0,1.22,2,28.87,28.87,0,0,0,6.18,9.33 c 3.67,3.5,14.22,11.79,18.33,16.42 a 22.18,22.18,0,0,1,6,13.58 A 20,20,0,0,1,335.12,278.88Z"/>
    <path d="M 292.47,283.59 l -.34,0Z"/>
    <path d="M 306.79,280.81 a 10.3,10.3,0,0,0,1.61-4.68,15.34,15.34,0,0,1-3,5.42,24.15,24.15,0,0,1-13,2 c 13.82,2,17.1-4.52,18.61-6.56 A 16.47,16.47,0,0,1,306.79,280.81Z"/>
    <path d="M 338.32,278.13 l .19-.21-.23.21Z"/>
  </g>
<script type="text/ecmascript" xlink:href="param.min.js"/> 
</svg>
