<?xml version="1.0"?>
<svg xmlns="http://www.w3.org/2000/svg" xmlns:xlink="http://www.w3.org/1999/xlink" viewBox="0 0 600 600">
  <title>curvy-top-template</title>
  <g id="main-colour">
    <path d="M 254.51,265.71 s 35.5-10.83,54-31.17 c 7.67,3.17,24.83,8,30.67,9.83 s 18.67,9.5,18.33,23.67-12.5,23.83-20,23.67 c -3.33,8.5-6.67,24.17-1,34.5 S 352.68,349,360,382.38 s 5.67,64,4.17,81.33 c -11.83-5.17-28.67-3.67-43.33-.33 s -52,18-80-1 c 8-10.17,5.5-28.83,3.33-38.33 s -7.83-36.67-3.67-57.5,13.83-33.67,20.5-41.83,7.83-16.5,4.5-25.5 S 255,282.38,254.51,265.71Z" fill="param(main_colour)"/>
  </g>
  <g id="outline">
    <path d="M 359.4,373.13 c -4-16.25-12.87-33-18.75-42.12 s -6.5-16.87-5.62-24.75,2.14-10.87,3.14-13.5 c 6.81-.75,13.44-6.25,15.69-9.87,5.5-8.62,7.18-18.11,2-27-6.5-11.17-20.5-13.33-25.67-15 s -18.91-6.75-18.91-6.75 a 90,90,0,0,0,7.25-8.12 c -.75-2.37-2.12-2.75-2.12-2.75 s -4.37,6.63-8.12,10.13 c -7.25-2.25-19.5-10.12-24.62-14.25 A 6.68,6.68,0,0,0,281,223.5 s 17,9.75,25.13,12 c -22.5,20.38-52.61,29.75-52.61,29.75.25,14.25,6.48,24.25,9.36,30.25 s 4.75,10.88,2.25,19.88-11.75,12.5-21,35.5-6,46-2.75,63.75,7.5,35-2.25,48.25 c 22.75,17,61.25,8,76,3.25 s 37.5-7.5,50.25,0 C 369.15,422.63,363.4,389.38,359.4,373.13Z m 4,88.75 c -8.75-4.87-32.37-3-45.25,1.13 s -49.87,15.13-75.87-.75 c 7.38-12,4.88-28.37,3-37.87 S 239,395.13,240.65,374 s 13.38-39.25,20.63-47.87,8.75-18.37,5-27.75-9.62-15.37-10.75-32.12 c 0,0,26.38-6.87,53.88-30.12,23.95,8.42,32.76,8.44,40.12,15.75 A 23.13,23.13,0,0,1,352,280.75 c -5.41,8.43-15.12,10.44-15.12,10.44 a 49.12,49.12,0,0,0-4,19.31 c -.12,11.38,1.75,14.88,8.38,25.25 s 14,28.5,18.38,49.63 S 365.27,437.5,363.4,461.88Z"/>
    <path d="M 272.63,281.19 s 4.09,16.84,20.83,16.13 C 286.9,296.22,278.35,292.08,272.63,281.19Z"/>
  </g>
<script type="text/ecmascript" xlink:href="param.min.js"/> 
</svg>
