<?xml version="1.0"?>
<svg xmlns="http://www.w3.org/2000/svg" xmlns:xlink="http://www.w3.org/1999/xlink" viewBox="0 0 600 600">
  <title>basic-bikini-top-curvy</title>
  <g id="main-colour">
    <path d="M 256.32,278.88 s 17.42,11.17,24.92,12.33 a 51.59,51.59,0,0,1,12.42-31.5 c -3.92-10.17-9.75-22.75-16.58-31.5 a 15.5,15.5,0,0,0,3.42-3 S 291.9,242,297.23,258.3 c 11,2.92,19,10.67,24.92,28.25,2.58-.67,4.92-.83,6.33.08,1.42-7.17,12.5-27.67,16-32.33-7.92-4.58-14.69-9.07-19-14-4.58-5.25-9-13.67-9.17-16.25 a 11.63,11.63,0,0,0,3.58,3.67 A 47.21,47.21,0,0,0,331,240 a 155.53,155.53,0,0,0,16.67,11.17 s 5.83.33,9.17,9.83 c 2,5.59.33,13.5-1.42,17.33 A 22.17,22.17,0,0,1,341.82,291 a 17.12,17.12,0,0,1-12.5-.5 c -2.67-1.42-6.25-3.17-9.83-.92 C 315.73,293.38,309,298,298,298 s -22.75-3.25-40.42-14.58 A 27.85,27.85,0,0,1,256.32,278.88Z" fill="param(main_colour)"/>
  </g>
  <g id="outline">
    <path d="M 358.28,264.13 c -1.12-6.5-3-11.25-10.29-13.5-14.08-6.17-25.58-17.75-27.71-23.37-1.12-.37-3.75-3.12-5.25-6.12,3.13,15.38,15.38,26.92,28.71,33.42-5,7-11.46,19.83-15.67,31.5 a 6.06,6.06,0,0,0-5.24.21 c -2.15-11.43-12.19-25.16-25.05-28.38 a 152.06,152.06,0,0,0-17.31-33.69,15.76,15.76,0,0,1-4.56,3.94 c 8.13,8.88,17,31.25,17,31.25 s -10.62,10.88-12.25,31 c -8.25-1.5-25.25-12.79-25.25-12.79 a 23.17,23.17,0,0,0,2,6.33 s 20.54,14,37,14.79 c 14.11.64,21.26-3.72,26.17-9.21 a 7.68,7.68,0,0,1,7.33.88 c 2.5,2.38,11.88,4.75,21-2.37 A 25.16,25.16,0,0,0,358.28,264.13Z M 290.4,297 C 275.47,295,258,283.13,258,283.13 s -.5-1.75-.75-3 c 1.38.75,16.13,10.5,24.63,11.88,1.25-12.62,6.5-27,12.25-32 C 287.4,239.38,278,228.63,278,228.63 a 12,12,0,0,0,2.5-2.12 c 2.88,3.21,12.71,21.79,16.25,32.25,10.88,3.13,19.63,10.88,24.63,27.63 C 316.4,293.13,307.4,299.29,290.4,297Z M 356,274.5 a 28.54,28.54,0,0,1-4.07,8,26.33,26.33,0,0,1-5.26,3.4,20.26,20.26,0,0,0,2-5 c -.5,1.75-2.45,4.39-3.4,5.6 a 24.4,24.4,0,0,1-12.52,1.73,20,20,0,0,0,17.66-3.88,18.64,18.64,0,0,1-7.07,5.22 c -6.37,2.5-11.12,2-14.62-.12 a 10.63,10.63,0,0,0-7.21-1.17q.47-.58.92-1.16 c 4.29-1.33,6.55.33,6.55.33 s 1.54-6,6.63-16.5 a 118.38,118.38,0,0,1,9.83-17 s -10.75-5.25-17.67-12.17 c -6.51-6.51-10.67-15.92-10.67-15.92 a 28.08,28.08,0,0,0,2.67,2.33 c 6,12.42,19.33,19.17,27.75,23.75,6.08,1.5,7.71,6.33,8.83,10.42 A 20.58,20.58,0,0,1,356,274.5Z"/>
    <path d="M 304.25,293.74 a 9.43,9.43,0,0,0-.93-5.53,14,14,0,0,1-.08,5.72,57.22,57.22,0,0,1-18.59-.18 s 21.75,7.13,34.75-7.37 A 35.28,35.28,0,0,1,304.25,293.74Z"/>
  </g>
<script type="text/ecmascript" xlink:href="param.min.js"/> 
</svg>
