<?xml version="1.0"?>
<svg xmlns="http://www.w3.org/2000/svg" xmlns:xlink="http://www.w3.org/1999/xlink" viewBox="0 0 600 600">
  <title>v-neck-t-shirt-dress-curvy</title>
  <g id="main-colour">
    <path d="M 358.66,403.88 c 1.32-15.72,4-22.5.67-37 s -14.67-27-19.92-35.75-6.67-16.25-5.42-25.75,4.25-14.75,7-24.08 a 64.49,64.49,0,0,0,1.83-24.58,29.39,29.39,0,0,0-2.58-9.13,12.69,12.69,0,0,0-13.35-19.94,10.39,10.39,0,0,0-5.57,1.24,8.21,8.21,0,0,1-3.58-2.67 c -2.08,6.33-9,10.42-9,10.42 l .67,1.08 s .67.33.75,4 c 3-.58,6.33-3,8.75-6,1,3.33.23,9-.4,11.54-1.5,4.81-3.36,10.85-8.52,16.29-18.83-6.75-23.08-18.42-26.33-25.08,3.42,2.25,11.75,4.66,15.17,4.17-.33-.75-1.08-3.83.08-6-15.5-1.5-19.42-9.83-19.42-9.83 l -3.83,2.67 s -7.67-2.5-11.25-3.25 S 252,227.79,249.58,235 s .25,12.75,5,16.08 a 93.12,93.12,0,0,0,2.08,28.08 c 1.83,8.08,6.25,12.75,9.25,20.08 s 1.42,14.5-.5,19.08-8.25,10.67-16.33,22.5-14.08,22.93-15.25,34.5.92,27.58,2.67,35.33,4.42,14.08,6,22.17 a 24,24,0,0,1,.25,6.63 A 30.25,30.25,0,0,0,254.5,441 a 26.4,26.4,0,0,1-.24,5.55 c 4.06-1.14,8.57-2.26,13-3 a 110,110,0,0,1,44.08,1.92 c 13.92,3.67,19.44,3.63,31.1,2.71 s 18.17-4.75,21.33-11.33 C 359.83,427.71,357.42,418.63,358.66,403.88Z" fill="param(main_colour)"/>
  </g>
  <g id="fixed-colours">
    <path d="M 296,236.3 s 2-5.42,7.33-5.67 a 8.75,8.75,0,0,1,7.79,4.33 l -2.21,1.63 s -2.75-3.17-5.42-2.79 a 5.42,5.42,0,0,0-4.37,2.83 C 297.83,236.59,296,236.3,296,236.3Z" fill="#d1d3d4"/>
    <path d="M 296,242.8 l 2.88.08 a 7,7,0,0,0,4,3.83 A 5.61,5.61,0,0,0,310,241.8 c 1.13-.37,2.79-1,2.79-1 a 9.55,9.55,0,0,1-2.58,7.17 C 307.2,251.09,298.87,252,296,242.8Z" fill="#d1d3d4"/>
  </g>
  <g id="outline">
    <path d="M 293,438.54 c 22.68,2.41,36.9,9.83,46.23,5.83-5.5,1-12,0-20.17-2.17 s -21.9-5.7-35.9-5.36 c -13.83.33-21.83,3.69-24,4.69 C 259.16,441.54,277.33,436.88,293,438.54Z"/>
    <path d="M 281.89,404.71 c -6.83-13.5-10.67-34.33-11.17-50.17 C 270.73,354.54,268.56,384.54,281.89,404.71Z"/>
    <path d="M 291.56,326.54 s -.83,53.33,48.5,85 C 314.73,391.21,297.06,366.54,291.56,326.54Z"/>
    <path d="M 360.67,396.88 c 2-12.57,2-24.82-2.18-36.67-3.5-10-13.17-21-17.76-28.73-3.15-5.28-6.22-10.6-6.26-19.77,0-9.48,7.27-27.92,8.76-35.27,2.28-11.44.34-24.81-3-28.94,4.25,11.75,1.36,27.85.63,30.88-.38,1.56-.75,2.93-1.11,4.16-.3,1-.63,2-1,3.16 l -.36,1.09,0,0 c -1.79,5.91-3.78,12.76-4.31,15.29-1.76,8.4-1.79,17,.71,22.61 s 8.89,15.07,11.86,19.17 c 4.11,5.67,10.32,14,12.49,29 a 66.57,66.57,0,0,1-.49,23,77.13,77.13,0,0,0-1.25,22.75 c .46,5.54,3.25,14.25,5.16,18.63-2.25,2.88-7.25,7.88-18,9.38-13.05,1.82-21.92.5-29.08-1.25 s -13.1-3.83-31.44-3.92 a 115.05,115.05,0,0,0-28.62,3.72 c .82-8.61.54-21-5.86-29.8,0,0,4.87,9.3,4.26,24.77 a 35.9,35.9,0,0,1-10.17-1.5,28.38,28.38,0,0,0-1.08-11 c -2.55-8.75-5.81-15.67-6.89-33.25 s -.29-25.67,4.87-36.67 c 4.87-10.37,12.25-20.08,15.33-24.5 s 9.42-10.25,11.67-17.67 a 22.74,22.74,0,0,0,.82-9.05 c 2,5.65,3.1,20.38,3.1,20.38 s .75-4.5-.67-14.58-7.48-19.67-10.42-25.85-4.62-15.87-4.94-20.69 a 116.39,116.39,0,0,1,.19-15,12.64,12.64,0,0,1-5.94-9.31,13.16,13.16,0,0,1,6-12.37 c 4.25-2.62,8.88-2,12.31-1.06 s 8.13,2.5,8.13,2.5,1.5-1,3.19-2.19 c 3.69,5.25,13.06,8.94,18.94,9.1 a 7,7,0,0,0-.08,4.67 s -11-1.08-16.17-5.33 c 5.68,14.13,15.06,24.13,28.06,27.38,7-6.87,11.78-20.58,9.19-29.69 a 20.93,20.93,0,0,1-8.75,6.69,8.94,8.94,0,0,0-1.12-4.29 s 4.88-1.87,8.44-9 c 1.69,1.19,3.44,2.31,3.44,2.31 a 20.07,20.07,0,0,1,3.13-1.62,15.28,15.28,0,0,1,9.38-.75 c -3.06-2.19-8.33-1.79-12.21.17 a 9,9,0,0,1-3.85-3,25.06,25.06,0,0,1-6.5,9.35 c -2.41-3.29-6.38-4.92-10.08-3.78 a 8.68,8.68,0,0,0-5.42,5.14 c -10.37-1.94-14-7.32-16.24-10.27 a 27.86,27.86,0,0,1-4.25,3.13,35.65,35.65,0,0,0-9.75-3,14.9,14.9,0,0,0-12.25,2.94,14.59,14.59,0,0,0-5.5,12.94,14.1,14.1,0,0,0,5.94,10.25,86,86,0,0,0,.42,18.58,56.22,56.22,0,0,0,6.42,20.5 c .79,1.42,2.26,3.95,3.77,6.81,1.75,4.73,2.67,8.85,2.4,13.36-.33,5.5-3.12,10-8.37,16.38 s -20.75,22.46-24.69,44.38 c -3.45,19.23,1.32,38.68,6,52.5 a 38.67,38.67,0,0,1,1.86,14.93 h 0 c 0,.27-.07.57-.12.89 a 39.9,39.9,0,0,0,12.38,2.63 c -.13,1.73-.33,3.53-.61,5.39.4-.18.81-.34,1.21-.49 h 0 c .3-.11.61-.2.92-.29 h 0 a 83.39,83.39,0,0,1,8.79-2.32 c 12.5-2.5,31-2.25,41.12-.12 s 20.69,5.38,33.85,4.46 c 15.82-1.1,22.13-5.62,26-12.5 A 74.83,74.83,0,0,1,360.67,396.88Z M 318.58,237.13 c .75,3.94-.38,15.63-8.83,25.73-15.67-5-22-17.85-24.54-22.73 a 30.51,30.51,0,0,0,10.25,3.1 c 1.72,5.41,7,8.59,11.78,7.11,3.88-1.2,6.28-5.07,6.21-9.39 A 20.88,20.88,0,0,0,318.58,237.13Z m -6,4.29 a 8.35,8.35,0,0,1-5.6,7.94 c -4.21,1.3-8.8-1.38-10.48-6,.81.08,1.57.13,2.26.15,1.49,3,4.63,4.58,7.54,3.68 a 6.14,6.14,0,0,0,4.1-4.92 A 12.52,12.52,0,0,0,312.53,241.42Z m -3,.88 a 5.37,5.37,0,0,1-3.57,4.08,5.68,5.68,0,0,1-6.46-2.88 h 0 a 6.73,6.73,0,0,1,.28-7.28,5,5,0,0,1,2.5-1.76,5.49,5.49,0,0,1,5.76,1.92 h 0 c .11.13.22.24.32.38 h 0 A 6.87,6.87,0,0,1,309.58,242.3Z m -8.16-10.82 a 8.35,8.35,0,0,1,9.08,3.39,14.64,14.64,0,0,1-1.72,1.15,6.26,6.26,0,0,0-6.68-2.35,5.75,5.75,0,0,0-3.15,2.45q-1.19-.12-2.28-.3 A 7.78,7.78,0,0,1,301.42,231.48Z"/>
  </g>
<script type="text/ecmascript" xlink:href="param.min.js"/> 
</svg>
