<?xml version="1.0"?>
<svg xmlns="http://www.w3.org/2000/svg" xmlns:xlink="http://www.w3.org/1999/xlink" viewBox="0 0 215 215">
  <title>midi-crew-neck-t-shirt-voluptuous</title>
  <g id="skin-tone">
    <path d="M 104.08,119.92 a 64,64,0,0,0-18,1.31,86.66,86.66,0,0,0,1.58,32.34 c 4.07,16.49,10.35,28.88,12.65,31.57 s 7.73,5.27,12.3,2.71,5.4-6.11,6.31-13.35,1.95-25.65,2.35-32.06 c .29-4.61,1-14.61,1.42-19.86 A 103.26,103.26,0,0,0,104.08,119.92Z" fill="param(skin_tone)"/>
  </g>
  <g id="main-colour">
    <path d="M 124.88,122.88 a 44,44,0,0,1-1.11-12.15 h 0 a 16.57,16.57,0,0,0-31.6-9.46 h 0 A 24.07,24.07,0,0,0,90,105.35 a 3.72,3.72,0,0,0-.33.69 c -1.5,4.25-6.08,14.75-7.08,16.42 a 14.32,14.32,0,0,0,2.83,1.75 l .25-2.58.36-.07 c 0,.16,0,.32-.07.48 a 35.65,35.65,0,0,1,4.76-1.21,93.76,93.76,0,0,1,21.46-.18 l .35,0,.8.1 a 79.35,79.35,0,0,1,9.36,1.78,13.14,13.14,0,0,0-.19,1.73 A 8.85,8.85,0,0,0,124.88,122.88Z" fill="param(main_colour)"/>
  </g>
  <g id="outline">
    <path d="M 125.71,123.33 c -1.25-3.87-1.94-12.61-1.94-12.61 s -.32,1.87-.75,4.62 a 57.46,57.46,0,0,0,.87,6.85 c -20.66-5.23-35.32-2.08-39.62-.88,2.26-4.43,5.77-14.26,5.77-14.26 h 0 a 49.26,49.26,0,0,1,2.12-5.79,13.08,13.08,0,0,0-2.76,3,18.81,18.81,0,0,0-1.21,2.8 h 0 c -.86,2.7-3.85,11-6.6,15.68 a 5.74,5.74,0,0,0,2.74,2,83.08,83.08,0,0,0,2.27,29.79,131.84,131.84,0,0,0,11.55,29.19,11.12,11.12,0,0,0,.83,1.46v0 h 0 a 11.08,11.08,0,0,0,20-3.76 h 0v0 c .05-.24.09-.48.13-.72 A 139.49,139.49,0,0,0,121,166 c .18-5.12,1.42-27,1.75-33.61.1-2,.22-4.68.36-7.52 A 5.71,5.71,0,0,0,125.71,123.33Z m -2.53.06 h 0Z m -38.86-.52.22-.07,0,.18Z m 36.42,10.89 c -.33,7.12-1.66,27.11-2,32.48-.19,3.22-.47,6.25-.8,8.83-.21,1.63-.53,3.47-.77,4.74,0,.24-.06.47-.1.7 s -.13.59-.19.85 h 0 A 9.08,9.08,0,0,1,100,183 h 0 l -.15-.24 c -1.73-2.89-9.63-20-12-32.74 a 99.6,99.6,0,0,1-1.15-27.79 c 13.3-3.29,29.32-.38,35.13.9 C 121.34,127,120.87,131,120.74,133.77Z"/>
  </g>
<script type="text/ecmascript" xlink:href="param.min.js"/> 
</svg>
