<?xml version="1.0"?>
<svg xmlns="http://www.w3.org/2000/svg" xmlns:xlink="http://www.w3.org/1999/xlink" viewBox="0 0 600 600">
  <title>nurse-hourglass</title>
  <g id="main-colour">
    <path d="M 339.36,358.54 c -6.67-13-8.17-15-11.5-19-1.72-2.06-4.63-6.38-7-10.08 a 16.16,16.16,0,0,1-.76-7 c .42-5.25,4.92-13.67,8.5-19.67 a 43.68,43.68,0,0,0,4-10.61,24.19,24.19,0,0,0,19.07-13.94 c 3.83-8.17,1.75-16.92-.25-22.33 s -13.25-11.17-13.25-11.17 l -2.3-1.27 c .1-.28.21-.55.29-.83 s .12-.41.17-.61.07-.31.1-.46.09-.49.12-.74,0-.26,0-.39 c 0-.38.06-.77.06-1.17 h 0 a 12,12,0,0,0-12-12,11.68,11.68,0,0,0-1.78.15 c -2.78-8-14.23-9-14.23-9 a 11.69,11.69,0,0,1,3.81,5 l 2.39,6.32 c 2,5.06,5.16,11.44,5.54,18.19-1.25-1.87-16.25-8.94-22.81-12.19-4.23-2.1-7.69-4.5-9.94-8-1.41-2.19-1.1-3.1-.64-4.43.54-.66,1.45-1.82,2.54-3.45 a 14.45,14.45,0,0,0-11.35,8.19 c -.94.35-1.91.69-2.92,1-5.33-2.17-11.92-4-16.83-1.17 s -7.33,8-6.42,14 S 257.88,251,263,252.18 c -.08,8.08,1.5,22.33,4.83,29.25 s 9.33,14.42,11.92,17.92,4.42,9.42,2.92,18.08-11.92,18.08-16.25,22.17 S 258,348.18,254.88,356 c 0,0-4.69,7.37-4.52,19.7 s 3.17,22,3.83,34.33 A 86.4,86.4,0,0,1,252,433.38 a 94.69,94.69,0,0,0,32.67,11 c 19.33,2.83,43.5,5.67,67.33-15.5-3.33-6.17-5.17-13-5.17-28.33 S 346,371.54,339.36,358.54Z" fill="param(main_colour)"/>
  </g>
  <g id="fixed-colours">
    <path d="M 341.88,258.77 l .53,2.29,3.31-.49.75,5.62 a 4.25,4.25,0,0,0-1.34,3.45,3.09,3.09,0,0,0,3.79,2.4,3.25,3.25,0,0,0,2.87-3.88 c -.29-1.34-2.3-2.34-2.72-2.51-.22-2-.93-6.08-.93-6.08 l 1.35-1.44-.93-2.15Z" fill="#d6d6d6"/>
    <path d="M 338.47,259 a 12.29,12.29,0,0,0,3.4-.18 c .26,1,.54,2.12.54,2.12 l 3.29-.31.16,1.34 s -1.38.73-6.93.56 C 338.71,260.82,338.47,259,338.47,259Z" fill="#fff"/>
    <polygon points="348.13 259.58 349.48 258.14 348.66 256.22 349.68 255.06 351.44 259.04 348.57 261.25 348.13 259.58" fill="#fff"/>
    <path d="M 287.9,264.56 s 11.7,2.07,22.82-.63 a 33.48,33.48,0,0,1,.12,4.35 s -12.19,2.94-22.37.43 A 27,27,0,0,1,287.9,264.56Z" fill="#fff"/>
    <polygon points="294.18 276.5 297.89 276.23 297.84 273.24 301 273.09 301.5 275.88 304.66 275.73 304.71 278.54 301.37 278.88 301.34 282.05 297.99 282.3 298.03 279.21 294.5 279.38 294.18 276.5" fill="#f0356a"/>
    <path d="M 278.32,228.46 s -2.42,6,.5,9.67 S 289,241.46,292.9,240 c -.25-1.83-.33-2.33-.33-2.33 a 28.6,28.6,0,0,1-7.42.33 C 281.73,237.55,279.57,235.55,278.32,228.46Z" fill="#fff"/>
    <path d="M 293,242.38 s 18.46,2,27.35,5.44 c 1.31,1.4,2.4,2.48,2.4,2.48 l -29.42-5.42Z" fill="#fff"/>
    <polygon points="321.59 234.19 323.46 235.38 321.96 249.07 320.65 247.75 320.21 244.69 321.59 234.19" fill="#fff"/>
    <path d="M 319.46,232.69 s 2.44-5.44.13-10 c 2.38,2.06,4.52,6.21,1.73,11.35 C 320.59,233.44,319.46,232.69,319.46,232.69Z" fill="#fff"/>
  </g>
  <g id="outline">
    <path d="M 303.23,297.21 a 36.59,36.59,0,0,1-24.67-9.33 S 285.57,301.38,303.23,297.21Z"/>
    <path d="M 343.72,366.63 a 86.38,86.38,0,0,0-16.25-28.83 c -6.67-7.92-7.58-13-6-18.42 s 5.79-12.94,8.85-18.25 a 45.65,45.65,0,0,0,3.69-8.52 c 5.9-.44,13.4-4.88,17-10.65,4.58-7.42,4.58-13.58,3.83-19.33 a 21.67,21.67,0,0,0-6.25-12.17 c -2.17-2.17-6.92-4.67-10.25-6.42 s -12.5-7.58-12.5-7.58 c 3,3.5,10.67,8.25,14.17,10.25 a 31.32,31.32,0,0,1,8.38,7.46 C 344.2,258.72,337.3,258,337.3,258 a 80.67,80.67,0,0,1,1.17,15.84 c 2.26,1.4,10.6,5.6,10.6,5.6 l .87-.81 a 25.37,25.37,0,0,1-6.12,7.71 c -3.33,2.67-9.75,5.83-14.33,5.58 a 7.77,7.77,0,0,0,2.16.59 c -.34,1.21-.76,2.56-1.26,3.95-1.56,4.31-4.62,8.81-7.06,13.94 s -4.31,10.06-4.19,14.63,2.5,8.06,6.06,12.69,7.25,6.88,14.75,23.5,6.27,33.29,6.19,39.88.42,21.67,4.83,27.5 c -6.43,5.69-19.32,15.2-36.86,16.61.3-3.76,1.83-23.56,1.53-38.28-.33-16.33-1.5-33.75-3-47.92 s -2.25-23.29-2-31.17,6.67-22.78,11.64-33.37 c 5.63-12,8.7-20.06,8-29.25 a 26.48,26.48,0,0,0-7.77-16.19 L 324,235 l -1.68-1 a 9.16,9.16,0,0,0,1.33-6.23,7,7,0,0,0-.18-.79,8.17,8.17,0,0,1,5.68.21,8.8,8.8,0,0,0-6.3-1.78 c -2.33-4.48-9.06-7.72-15.62-7.72,0,0,8.22,9.81,12.59,28.93-.62-.51-1.25-1-1.91-1.5-7.25-5.25-31.26-11.52-30.51-21.52 A 28.46,28.46,0,0,0,290.8,219 s -5.33-.75-11,5.17 a 12.9,12.9,0,0,0-2,2.68,12.41,12.41,0,0,1-3.58.76 c -.81-.19-6.69-2.81-10.69-2.44 a 14.87,14.87,0,0,0-11.19,7.06 c -2.81,4.5-2.25,11.06.81,15.19 a 13.86,13.86,0,0,0,8.94,5.69 c -.69,4.13.88,14.88,2.38,21.38 s 4.19,11.75,10.25,20 c 1.64,2.24,3.25,4.21,4.78,6.06 a 36.53,36.53,0,0,1,2.41,6.69 c .88,3.94.38,13.88-5.75,20.88 s -14.81,13.81-19.25,21.19 a 55.16,55.16,0,0,0-7.25,26.63 c 0,8.88,3.13,24.69,3.44,32.06 s .58,18.85-2.17,25.85 c 15.58,9.58,41.75,14.92,62.67,12.92 s 34.92-12.83,39.58-17.75 c -5-6.42-5.42-20.67-5.42-29.58 S 347.8,378.63,343.72,366.63Z M 350.23,257 a 18.73,18.73,0,0,1,.79,1.75,9.89,9.89,0,0,1-2.35,1.79 c -.05-.4-.09-.76-.13-1.06 a 5.31,5.31,0,0,0,1.32-1.32 c -.38-.9-.76-1.72-.94-2.1.18-.17.34-.33.48-.47 C 349.71,256.11,350,256.58,350.23,257Z m -2.33,9.28 c 2-.29,3.19.62,3.42,2.26 a 3,3,0,0,1-2.6,3.15,2.81,2.81,0,0,1-3.37-2.21 A 2.92,2.92,0,0,1,347.9,266.33Z m -.21-1.18 a 4.77,4.77,0,0,0-1,.33 c -.11-1.15-.36-3.79-.58-4.78 a 9.11,9.11,0,0,0,1.79-.73,39.24,39.24,0,0,1,.85,5.11 A 4.24,4.24,0,0,0,347.69,265.15Z m .77-8.63.72,1.47 s -1,2.34-6.56,2.62 c -.18-.52-.33-1.13-.42-1.48 A 12.93,12.93,0,0,0,348.46,256.52Z m -6.94,2.7.54,2 a 14.45,14.45,0,0,0,3.36-.37 c 0,.17.07.47.13.85 a 19.24,19.24,0,0,1-6,.24 c -.11-.87-.25-1.75-.41-2.62 A 20.2,20.2,0,0,0,341.52,259.22Z m 7.68,18.84 c -2.22-.62-9.17-4.94-9.17-4.94 a 76.13,76.13,0,0,0-.42-10.25,26.84,26.84,0,0,0,6-.34 c .14,1,.29,2.27.37,3.3 a 3.81,3.81,0,0,0,2.52,7.08,4.28,4.28,0,0,0,4-4.5,4.1,4.1,0,0,0-3.21-3.24 c -.09-.63-.31-2.16-.49-3.57 a 7.18,7.18,0,0,0,2.56-1.87,22,22,0,0,1-.1,16.06 C 350.32,276.84,349.36,277.93,349.2,278.05Z m -28.06-28.46 c -3.34-.79-16.09-3.7-27.25-5.13-.08-.52-.15-1-.22-1.54,3.27.39,16.38,2.12,26,5.4Q320.42,248.94,321.14,249.59Z m .92-20.88 a 10.65,10.65,0,0,1-.93,4.5 l -1.24-.76 a 12.06,12.06,0,0,0,.59-8 A 6.78,6.78,0,0,1,322.05,228.71Z m -2.66-5.44 a 11.09,11.09,0,0,1-.08,8.84 L 315.77,230 a 93.23,93.23,0,0,0-5.55-11.08 A 21.8,21.8,0,0,1,319.39,223.27Z m -1.92,11 c -.31-.83-.64-1.7-1-2.58 l 4.77,2.88 L 320,242.26 c -.27-1-.58-2.12-.95-3.31Z m 3.16,10.5,1.3-9.78,1,.59 L 321.44,248 l -.19-.17 C 321.18,247.42,321,246.32,320.63,244.74Z M 317,246.36 A 171,171,0,0,0,293.54,242 c -.52-4-.78-7.46-.86-8.7 a 83.54,83.54,0,0,0,12,6.5 A 88.07,88.07,0,0,1,317,246.36Z m -38.55-16 c .3,2.07,1.37,6.87,4.89,7.6 a 23,23,0,0,0,8.46,0q.07.79.14,1.62 c -1.91.39-7.8,1.37-11.12-.64 C 277.85,237.18,277.49,233.77,278.44,230.4Z m 1.45-3.52 c 2.33-4.25,8-6,8-6 s -3.11,2.14-1,6.67 a 14.35,14.35,0,0,0,4.46,4.8 c .06.92.19,2.76.37,5-1.61.19-6.54.66-8.72-.38-2.4-1.15-3.65-4.14-4-8.14 A 17.62,17.62,0,0,1,279.89,226.88Z M 253.14,432.71 c 3.42-12.67,1.75-28.83.42-38.25 s -4.33-20.58.33-34.25,11.25-17.42,17.58-24.17,11.08-12.67,12.08-20.75 c .64-5.17.05-8.52-.82-10.93 a 36.27,36.27,0,0,1,6.35,10.26 c -2-7.37-6.81-13.62-10.81-18.81 s -10.5-14-12.25-24.12 a 147.86,147.86,0,0,1-1.87-20.44,12,12,0,1,1,3.63-23.62 c 4.14,1,7.15,2.41,9,1.63-1.41,4.68.17,9.24,1.51,10.45,1.79,1.62,5.72,3.47,13.77,1.49.14,1.47.3,3,.48,4.34,10.09,1.22,27.15,4.76,29.91,5.33 a 22.71,22.71,0,0,1,6.35,13.75 c 1.5,13.58-11,35.58-15.08,46.75-3.73,10.2-5.18,16.5-4.35,27.33 s 4.17,40.5,4.67,59 c .45,16.82-.88,43-1.13,47.62 C 295.13,446.46,270.11,443.09,253.14,432.71Z"/>
    <path d="M 311.62,262.82 s -13.18,3.11-24.73.78 c 0,0,.35,12.37,1.56,18.45 a 44.16,44.16,0,0,0,11.5,6.7 s 9.32-5.57,11.52-7.81 C 311.69,272.46,311.62,262.82,311.62,262.82Z m -1.47,2 c 0,.87,0,1.82-.07,2.82-8.74,2.49-18.41,1.25-21.28.78-.06-1.13-.1-2.09-.11-2.74 C 288.7,265.68,302.78,267.34,310.15,264.82Z m -10.15,22 a 65.1,65.1,0,0,1-10.25-5.91 s -.59-6.62-.89-11.37 c 8.65,1.72,18.65.09,21.19-.38 C 310,274.37,310,280,310,280 S 302.38,285.49,300,286.82Z"/>
    <path d="M 301.76,275.32 l -.22-2.91-4.51.13.19,3-3.58.2.29,4,3.58-.2.15,3.09,4.17-.18,0-3,3.42-.18-.18-4.21Z m -.86,3,0,3.18-2.36.08-.14-3-3.51.07-.14-1.79,3.51-.24-.19-2.91,2.46-.13.3,2.94,3.13-.11.12,1.62Z"/>
  </g>
<script type="text/ecmascript" xlink:href="param.min.js"/> 
</svg>
