<?xml version="1.0"?>
<svg xmlns="http://www.w3.org/2000/svg" xmlns:xlink="http://www.w3.org/1999/xlink" viewBox="0 0 600 600">
  <title>hourglass-bottoms-template</title>
  <g id="skin-tone">
    <path d="M 347.22,262.43 c -1.49-7.44-7.4-11-12.95-16 l 0,0-.22-.2 a 11.64,11.64,0,0,0-13.51-17.84v-.38 c -10.71-2.26-13.38-13.35-14.21-20.26-2.16.19-4.35.31-6.56.31 s -4.42-.12-6.6-.31 a 26.62,26.62,0,0,1-3.55,11 c -3.25,5.75-8.25,8.42-14.42,10.25-5.33-2.17-11.92-4-16.83-1.17 s -7.33,8-6.42,14 S 257.88,251,263,252.18 c -.08,8.08,1.5,22.33,4.83,29.25 s 9.33,14.42,11.92,17.92,4.42,9.42,2.92,18.08 c -.69,4-3.27,8.12-6.26,11.82 a 71.51,71.51,0,0,0,13.6,7.65 c 11.73,5.27,24.82,4.95,34.85-.19 l 0,0 c -4.17-5.92-5.25-9-4.83-14.25 s 4.92-13.67,8.5-19.67,5.75-15.33,5.75-15.33,3.42.17,8.42-5.58 S 348.72,269.93,347.22,262.43Z" fill="param(skin_tone)"/>
  </g>
  <g id="main-colour">
    <path d="M 335.74,357.38 c -.49-7.77-10.86-20.7-10.86-20.7 s -6.5,3.72-17.16,3.89 c -15.5.5-31-11.17-31-11.17-4,4.67-12.17,10-18.41,19.32 s -5.59,22.44-5.59,22.44 h 0 s 0,.07,0,.1 a 25.5,25.5,0,0,0,45.14,16.26,25.51,25.51,0,0,0,37.88-30.14Z" fill="param(main_colour)"/>
  </g>
  <g id="outline">
    <path d="M 307.88,327.37 c 1,.2,1.7-1.44.9-3.34 a 29,29,0,0,1,1.68-6.1 S 305.39,326.65,307.88,327.37Z"/>
    <path d="M 337.72,248.18 c -6.58-4.5-11.92-11.75-11.92-11.75,2.17,4.83,8.75,11.42,13,14.83 a 21.61,21.61,0,0,1,8.08,14.67 c .92,6.67-3,13.92-7.11,17.33 a 22.29,22.29,0,0,1-17,4.83 c 1.12.57,5.36,1.34,9.68.78 a 42.58,42.58,0,0,1-5.24,14.39 c -4.42,7.33-7.08,13.75-8,18.75-.83,4.54.95,9.2,3,12.28 l .69,1,.79,1 c -10,5.48-23,4-30.44,1.36-6.55-2.33-13.89-7-15.74-8.2 l .68-.84.76-1 a 27.79,27.79,0,0,0,2.64-4.12 c 3.5-7,4.25-17,0-23.33-2.89-4.3-5.47-7-8.37-11.38 h 0 l -.31-.49-.39-.62-.3-.48-.63-1.06-.25-.44-.57-1-.17-.31 c -.24-.45-.49-.91-.74-1.39 l -.2-.39 c -.26-.51-.52-1-.79-1.57v0 c -.18-.37-.35-.75-.52-1.14 l -.12-.27 c -.16-.39-.32-.79-.47-1.2v0 c -.15-.41-.29-.82-.42-1.24 l -.09-.29 c -.14-.43-.27-.87-.39-1.32v0 c -.12-.44-.24-.89-.35-1.34 l -.06-.26q-.17-.7-.32-1.41v0q-.15-.71-.29-1.42 l 0-.21q-.14-.73-.26-1.47 a 110.58,110.58,0,0,1-1.35-16.11 c 0-.41,0-1.11-.1-2 a 12,12,0,0,1,.54-24,7.81,7.81,0,0,1,2,.18,12,12,0,0,1,1.62.38 c 1.77.48,3.7,1.16,5.1,1.69 h 0 c 1.2.45,2,.79,2,.79 h 0 l 1.12.37.08,0,1.25.4 h 0 a 58,58,0,0,0,5.87,1.55,45.44,45.44,0,0,0,15.17.32 c -7.64.23-15.54-1.92-20.85-3.88 a 21.35,21.35,0,0,0,11.69-8.45,27.22,27.22,0,0,0,4.47-12.86 c -.71-.05-1.42-.1-2.12-.17 a 23.65,23.65,0,0,1-5.85,14.28,18.87,18.87,0,0,1-9.93,5.57 h 0 c -.66.15-1.24.25-1.7.31 a 47.82,47.82,0,0,0-5.16-1.64 A 14,14,0,1,0,262.13,253 c 0,.17-.49,6.17,1.5,17.11 h 0 c .11.59.22,1.18.34,1.79 s .3,1.42.47,2.11 c .06.23.12.46.18.68.12.45.24.89.36,1.33.08.27.16.54.25.8 s .24.75.36,1.12 l .29.84q.18.51.38,1 c .11.29.22.57.34.85 s .25.6.38.9.25.58.38.86 l .37.77 c 3,6.24,7,11.1,10.49,15.56,5.42,6.83,5.17,17.5.67,25.58 a 31.67,31.67,0,0,1-4.85,6.19 c -.78.72-5,4.92-7.07,7-4.32,4.25-8.7,9-11.49,14.68 a 41.22,41.22,0,0,0-4.07,13,27.47,27.47,0,0,0,47.5,24.11 c 2.59-.47,7.87-1.79,11.69-5.06,0,0-6.36,3.26-12.66,3.26 l -.05,0 a 25.48,25.48,0,0,1-45.15-16.23,25.7,25.7,0,0,1,.21-3.25 h 0 s -.44-4.85,2.92-12.72 a 42.67,42.67,0,0,1,3.29-5.79 h 0q.58-.85,1.14-1.61 l 0,0 c .36-.49.71-.94,1.06-1.36 l .05-.07 c .32-.4.63-.76.93-1.1 l .1-.11 c .31-.35.61-.68.88-1 h 0 c 2.18-2.34,7.38-7.08,11.85-12 l .74-.84.76-.89 c 15.94,10.72,26.2,11.52,34.25,10.9 a 39.31,39.31,0,0,0,13.82-3.75 l .52.71.69,1,2.48,3.58 c 1,1.5,2,3,3,4.57 h 0 a 73,73,0,0,1,5.25,9.6 s -.61-4.42-5.17-11.93 l -.46-.75-.35-.55 c -.29-.46-.6-.93-.92-1.41v0 c -6.17-9.17-9.83-13-8.92-20.08.77-5.92,5.19-13.63,8.09-18.78 h 0 a 53.87,53.87,0,0,0,6.39-15.28,13.21,13.21,0,0,0,3-1.27 c 5.8-3.41,11.42-10.49,11.1-19.33 C 349.06,258.43,344.3,252.68,337.72,248.18Z"/>
    <path d="M 316.56,227.78 c -.27.19-.54.39-.8.6 a 45.79,45.79,0,0,1-4.92,2.38 l 3.08-.58 a 33.59,33.59,0,0,0,4.13-1 l .55-.23 c 2.57-1,5.16-3.35,10.43-1.93 h 0 a 11,11,0,0,0-1.78-1 l -.52-.2 a 8.8,8.8,0,0,0-3.08-.5,12.08,12.08,0,0,0-4,.81q-.45.17-.93.38 a 13.57,13.57,0,0,1-8.33-7.28,32.56,32.56,0,0,1-2.86-11.7 c -.75.08-1.51.13-2.26.18.29,3.66,1.23,10.58,4.2,14.44 C 312.57,226.21,315.34,227.42,316.56,227.78Z"/>
    <path d="M 322.78,266.18 c -1.35-14-15-19.5-15-19.5,16.67,11,13.08,27,9.5,33.83 a 25.81,25.81,0,0,1-23.58,13.64 c -11.82-.27-18.92-10.39-21.25-17.39,3.75,19.5,21.75,21.58,31.75,18.17 S 324.13,280.18,322.78,266.18Z"/>
  </g>
<script type="text/ecmascript" xlink:href="param.min.js"/> 
</svg>
