<?xml version="1.0"?>
<svg xmlns="http://www.w3.org/2000/svg" xmlns:xlink="http://www.w3.org/1999/xlink" viewBox="0 0 600 600">
  <title>police-shirt-hourglass</title>
  <g id="main-colour">
    <path d="M 324.61,227.22 a 12,12,0,0,0-4,.71 c -.21,0-.39-.11-.59-.16 a 15.87,15.87,0,0,0-3-7.05 A 12.58,12.58,0,0,0,310,216 l -1.58-.25 s 1.58,6.75,6.17,9 l .08.52-.22-.15 c 1.51,10-1,14.91-7.17,20.84-8.29-3.13-19.94-12.36-23.6-20.5,2.32-1.15,5.1-5.41,6.33-8.87-9.83.42-11.58,9.67-11.58,9.67 l .42,1.36 c -1.17.47-2.37.9-3.64,1.27-5.33-2.17-11.92-4-16.83-1.17 s -7.33,8-6.42,14 S 257.88,251,263,252.18 c -.08,8.08,1.5,22.33,4.83,29.25 s 9.33,14.42,11.92,17.92,4.42,9.42,2.92,18.08 c -1,5.67-5.77,11.65-10.18,16.25,2.93,2.58,8.36,5.75,18.16,7.37,15.66,2.59,27.47-1,33.42-5.48-3.53-5.21-4.45-8.22-4.06-13.13.42-5.25,4.92-13.67,8.5-19.67 A 57.44,57.44,0,0,0,333.62,290 l -.39.11,1-6.84 s 2.7-12.76,1.65-21.26 l -3.13-13.89 a 12.06,12.06,0,0,0,1.55-1.73 h 0q.27-.36.51-.74 l 0,0 c .15-.24.29-.48.42-.73 l .1-.2 c .12-.23.24-.47.34-.71 l .07-.18 a 11.91,11.91,0,0,0,.41-1.17 c .06-.2.12-.41.17-.61 s .07-.31.1-.46.09-.49.12-.74,0-.26,0-.39 c 0-.38.06-.77.06-1.17 h 0 A 12,12,0,0,0,324.61,227.22Z" fill="param(main_colour)"/>
  </g>
  <g id="accent-colour-1">
    <path d="M 272.53,333.68 s 10.73,10.82,36.73,7.7 c 7.75-.87,14.85-5.82,14.85-5.82 A 176.19,176.19,0,0,1,334.26,351 c 4.25,7.5,10.88,25.38,12.75,43.13 s 1.5,39.75,1.5,39.75 a 48.54,48.54,0,0,1-23.62,15 c -15.12,4.13-32,2-42.75-.87 s -21-5-25.37-2.25 c 0-9.12-2.37-17.62-4-25.25 s -4.12-18.5-4-34.5,3.5-27,8.25-35.37 S 272.53,333.68,272.53,333.68Z" fill="param(accent_colour_1)"/>
  </g>
  <g id="fixed-colours">
    <circle cx="304.9" cy="346.13" r="2.04" fill="#ffcc50"/>
    <path d="M 307.27,246.88 s 9.08,6.92,13.08,24.33 c -2.75,7.25-6.58,15.17-11,20.33-4.5-5.75-9.25-12.67-11-19 C 300.44,261.71,307.27,246.88,307.27,246.88Z" fill="#fff"/>
  </g>
  <g id="outline">
    <path d="M 312.63,259.7 s -.47-2-1-4.38 a 19.63,19.63,0,0,0-4.22.67 l .37,4.18 C 309.75,259.88,312.63,259.7,312.63,259.7Z"/>
    <path d="M 308.37,264 c -.29-2.47-.6-3.84-.6-3.84 s -2.6.39-4.1.68 c .35,2.47.45,4.06.45,4.06 S 306.93,263.82,308.37,264Z"/>
    <path d="M 309,268 a 33.56,33.56,0,0,1,4.89-.22,23.8,23.8,0,0,0-.41-4.3 s -3.44.28-4.93.58 C 308.81,265.77,309,268,309,268Z"/>
    <path d="M 309.27,272.5 s 0-1.82-.26-4.53 c -1.61.28-4.4,1.13-4.4,1.13 a 36.88,36.88,0,0,1,.59,4.81 C 305.52,273.35,309.27,272.5,309.27,272.5Z"/>
    <path d="M 313.88,272.07 a 10.72,10.72,0,0,1,3.78.31 s .19-2.4.2-4.35 c -1.31-.17-4-.27-4-.27 S 314,270,313.88,272.07Z"/>
    <path d="M 309.27,272.5 l .19,5.12 a 26.73,26.73,0,0,1,4-.33 c .27-3,.37-5.23.37-5.23 A 24.7,24.7,0,0,0,309.27,272.5Z"/>
    <path d="M 309.46,277.63 a 19.83,19.83,0,0,0-3.89,1 s 0,2.13.13,4.63 a 13.21,13.21,0,0,1,3.6-.63 S 309.45,280.54,309.46,277.63Z"/>
    <path d="M 296,264.57 c -9.37,1.81-19.58-.39-19.58-.39.24,4.76.82,15.19.82,15.19 a 32.37,32.37,0,0,0,8.89,5.68 c 3.73-.93,9.75-5.64,9.75-5.64 S 296.11,268,296,264.57Z m -1.45,1.8 c 0,.7,0,1.49,0,2.31 a 59.44,59.44,0,0,1-8.14,4.11,75.21,75.21,0,0,1-8.2-4.46 l -.08-2.29 A 46,46,0,0,0,294.55,266.38Z m -8.31,17.17 a 41,41,0,0,1-7.66-4.74 l -.32-9.12 a 73.72,73.72,0,0,0,8,4.35,49.48,49.48,0,0,0,8.25-4.15 c 0,4.08-.17,8.56-.17,8.56 S 289.4,282.61,286.24,283.55Z"/>
    <circle cx="305.73" cy="293.88" r="1.13"/>
    <circle cx="304.86" cy="301.25" r="1.13"/>
    <circle cx="303.94" cy="308.25" r="1.13"/>
    <circle cx="302.98" cy="315.38" r="1.13"/>
    <circle cx="302.23" cy="323.25" r="1.13"/>
    <circle cx="301.61" cy="330.75" r="1.13"/>
    <circle cx="301.48" cy="338.13" r="1.13"/>
    <path d="M 341.22,364.38 a 117.76,117.76,0,0,0-16-28.67 c -4.83-7.08-4.67-10.42-4.08-14.25 s 3.67-11,8.42-19,5.93-18,5.93-18 a 137.87,137.87,0,0,0,1.38-17.75 c -.12-5.06-.44-11.19-2.75-16.81 s -6.31-11.69-8.37-13.5 c 3.13,4.06,5.69,10.56,6.69,15,.42,1.86.83,4,1.17,6.37 a 18,18,0,0,1-10.87,6.48 c .42,4.83.92,12.83.92,12.83 l 8.43,3.42,1.64-1.84 c -.16,1.67-.33,3.35-.53,5.17 a 58.61,58.61,0,0,1-6.1,19.88 c -2.94,5.56-5.25,9.25-7.06,15.75 a 18.34,18.34,0,0,0,3.06,15.88 c -2.08,1.81-8.8,4.68-17.7,5.52.06-2.55.31-12.63.74-18.52.5-6.87,1.75-14.37,2.5-20.12.65-5,1.28-9.77,1.36-10.42,2.4-3.2,8.24-11.53,11.11-20.47 a 44.66,44.66,0,0,0-6.5-16.42 A 29.64,29.64,0,0,0,320.52,243 c 1.21-5.64,1.42-10.7.43-15.14,2.48-1.14,5.5-1.78,8.1-.86 a 9.55,9.55,0,0,0-8.68-1.24,20.34,20.34,0,0,0-2.32-4.85,13.22,13.22,0,0,0-9.33-6 h 0 l -.2,0-.3,0 h -.58 a 15.61,15.61,0,0,0,6.42,10.2,23.12,23.12,0,0,1-.11,9.3,17.37,17.37,0,0,1-6.85,10.8 s -5.11-1.39-14.2-9.3 c -5.52-4.8-7.84-8.09-8.65-10.34,6.61-5.11,6.31-9.57,6.31-9.57 a .53.53,0,0,0-.48,0,10.57,10.57,0,0,0-8.35,3.45,17.94,17.94,0,0,0-4.21,7.62,10.35,10.35,0,0,1-4.25.17 c -2.81-.5-5.06-2.87-11.44-1.75 a 14,14,0,0,0-6.44,24.25,14.83,14.83,0,0,0,6.75,3.31 c -.37,4.44.56,14.19,2.38,21.31 A 54.94,54.94,0,0,0,274.45,294 c 1.65,2.09,3.63,4.65,5.56,7.58 a 22.77,22.77,0,0,1,2.13,10.8,25.85,25.85,0,0,1-6.06,15.88,46.54,46.54,0,0,1-5,5,98.1,98.1,0,0,0-11.17,11.33 c -4.17,5.33-11.83,16.5-12.17,43.67 s 10,48.67,7.67,58.5 c 10.33-3.33,19.67,1.67,33,4 s 42,5,61-16.17 C 351.39,406.54,347.05,380.21,341.22,364.38Z m -7.41-104.91 c .07.6.14,1.21.2,1.83 a 27.84,27.84,0,0,1-3.37,5,26.69,26.69,0,0,1-6.35.44 l -.09-1.53 S 330.16,264,333.81,259.47Z m -1.87,19.66-7.05-2.75-.54-8.65 a 43.47,43.47,0,0,0,6.62-.35,26.29,26.29,0,0,0,3.2-4 c .11,1.62.16,3.27.12,4.92-.06,3.1-.2,5.68-.39,8.15Z m -26.13,6.3 c 0-.94-.11-2.21-.11-2.21 l -1.14.25 c -.75-1.21-1.51-2.53-2.23-3.89,1.16-.44,3.24-1,3.24-1 s -.12-2.32-.37-4.66 c -1.16.26-4,1.26-4.82,1.56 l -.23-.58.12-4.17-.61.19q.31-1.34.66-2.69 c 0,.65-.05,1.48-.05,2.5 a 15.16,15.16,0,0,1,4.34-1.62 c .36,0-.22-2.09-.31-4.17 a 13.39,13.39,0,0,0-3.43,1.34 c .5-1.75,1-3.47,1.6-5.12 l 1.21-.31-.23-2.5q.32-.89.63-1.72 a 19.23,19.23,0,0,1,3.32-.64 l -.5-4.13-1,.09 c .34-.84.65-1.57.9-2.16 l .1,2.07,3.54-.54.19.25,1,3.75,1.48-.15 c .83,1.33,1.68,2.85,2.52,4.54 a 9,9,0,0,0-3,0 c .48,1.88.85,3.75.85,3.75 l 3.84.08 c .21.52.41,1.06.61,1.61 l -.06,2.88,1.09.21q.39,1.31.72,2.7 c -.2.62-.42,1.23-.64,1.84 l -1.37-.4-.43,4.73,0,.07 a 29.14,29.14,0,0,0-3.69.13 l -.19,5.2,1.2-.07 c -.47.83-.92,1.62-1.36,2.35 l .16-2.28-4,.09-.26,4.34 h 2.77 c -1.43,2.22-2.44,3.55-2.44,3.55 l -.3-.39,0-3.17-2.3-.09 C 306.45,286.39,306.13,285.92,305.81,285.42Z m 5.48-64.66 a 5.51,5.51,0,0,1,2.29,2.9 A 12.67,12.67,0,0,1,311.29,220.76Z m 3.82,3.54 c -1.2-4.09-3.63-5.31-5-5.67q-.41-.86-.81-1.91 c 2.88.39,5.58,1.74,7.8,5.41,2.42,4,3.89,11.67,1.89,20.42-1.11,4.86-4.54,9.33-5.6,10.62 a 61.15,61.15,0,0,0-5.38-6.88 A 20.2,20.2,0,0,0,315.11,224.29Z m -31.22-.34 a 3.27,3.27,0,0,1,1.17-2.74,6.43,6.43,0,0,1,2.48-1.11 A 22.25,22.25,0,0,1,283.89,223.95Z m .17-4.74 a 9.76,9.76,0,0,1,5.2-1.81q-.31.58-.64,1.12 a 7.13,7.13,0,0,0-5.4,3 c -2,3.25,0,6.33,4,10.92 a 54.32,54.32,0,0,0,19.2,14.12,86.77,86.77,0,0,0-3.78,8.64 c -1.34-.82-5.91-3.87-12.55-11.17-9.38-10.3-10.83-17.67-10.83-17.67 S 280.47,221.54,284.05,219.21Z m -3,105.23 c 2.38-4.56,3.56-8.12,3.25-15.31,0,0,0-.06,0-.09 a 41.43,41.43,0,0,1,3.07,8.78 s -1.5-10.19-4.12-14.81 c -.26-.46-.54-.92-.83-1.39 a 14.16,14.16,0,0,0-1.72-2.66 c -2.24-3.32-4.72-6.51-6.46-8.82 a 47.66,47.66,0,0,1-9.06-22.87 c -1.5-11.94-1.06-16-1.06-16 a 12.92,12.92,0,0,1-8.44-4,12,12,0,0,1-1.75-13.44,12.13,12.13,0,0,1,10.69-6.62 c 5-.06,7.73,3.26,13.68,1.81,1.52,3.18,5.13,10.15,9.68,15.21,8,8.9,12.47,11.88,14,12.75 a 103.11,103.11,0,0,0-4.22,15.51 c 1.33,5.3,8.12,16.06,10.4,19.59-.46,3.52-.85,7.88-1.54,11.94-.75,4.44-1.51,9.93-2.25,19-.64,7.89-.55,15.85-.51,18 a 53,53,0,0,1-10.46-.34 c -14.56-1.94-19.5-7.06-19.5-7.06 A 44,44,0,0,0,281,324.44Z m -8.71,10.31 c 1.92,1.87,6.53,5,16.83,7,14.53,2.75,28.39-.2,35-5.09.55.78,1.83,2.61,3.39,5-7.65,7-23.46,9.61-37.22,7.4 A 58.35,58.35,0,0,1,267,339.62 C 269.21,337.49,271.32,335.61,272.3,334.76Z m 75.33,98.75 c -8.5,8.38-18.62,14.25-31.12,15.75 s -21.75.63-28.37-.87-25-6.87-30.37-3.87 c .38-5.87-2-15.25-3.63-22.5 s -5.37-23.25-4.37-39.75,4.75-26.75,11.75-36.5 a 41.57,41.57,0,0,1,4.6-5.24 c 14.41,10.63,30.75,11.73,43.65,10,11-1.48,17.06-6.1,18.66-7.48 a 109.29,109.29,0,0,1,7.8,13.61 c 3.5,7.92,8.17,24.25,9.54,34.38 S 348.51,425.13,347.64,433.5Z"/>
    <path d="M 304.88,348.7 a 2.57,2.57,0,1,0-2.57-2.57 A 2.57,2.57,0,0,0,304.88,348.7Z m 0-4.08 a 1.51,1.51,0,1,1-1.51,1.51 A 1.51,1.51,0,0,1,304.88,344.62Z"/>
    <path d="M 320,385.71 s -9.58,23.17-28.33,37.5 C 311.22,410.13,315.22,400,320,385.71Z"/>
    <path d="M 300.64,430.13 c 8.83-1.83,17.25-11.08,19.67-18 C 313.3,423.38,300.64,430.13,300.64,430.13Z"/>
  </g>
<script type="text/ecmascript" xlink:href="param.min.js"/> 
</svg>
