<?xml version="1.0"?>
<svg xmlns="http://www.w3.org/2000/svg" xmlns:xlink="http://www.w3.org/1999/xlink" viewBox="0 0 215 215">
  <title>baggy-skull-t-shirt-slender</title>
  <g id="skin-tone">
    <path d="M 96.09,122.52 c .35,6.19.87,13.78,1.6,21.77,1.8,19.59,5.19,38.23,6.46,43.39 h 0 a 5.31,5.31,0,0,0,10.59-.55 s .15-13.1,1.06-27 c .84-12.84,2.33-30.6,2.85-37.35 C 110.06,120.13,100.87,121.46,96.09,122.52Z" fill="param(skin_tone)"/>
  </g>
  <g id="main-colour">
    <path d="M 119.58,114.18 c -.1-.8-.13-1.91-.18-3 s .1-1.87.13-2.52 l -.44-.7 a 4.61,4.61,0,0,0-.26-.89.54.54,0,0,0-.15-.18,11.19,11.19,0,0,0-22.38.6 l -.89.37 c 0,.37,0,1,.07,1.9,0,0,0,.06,0,.08-.25,2-1.37,10.83-2.75,13.42 a 11.35,11.35,0,0,0,3.67,2,18.45,18.45,0,0,0,0-2.71,52.87,52.87,0,0,1,13-1.19 c 3.76.35,6.44.86,6.44.86 l 2.85.67.15,1.58 a 9.87,9.87,0,0,0,2.21-1 C 120.13,122,119.83,116.09,119.58,114.18Z" fill="param(main_colour)"/>
  </g>
  <g id="outline">
    <path d="M 121.77,123.45 c -1.31-3.69-1.71-13-1.71-13 h 0 c -.34-3.47-1.18-4.5-1.5-4.76 a 11.23,11.23,0,0,1,.14,1.62 c 0,.8,0,2-.06,3.15 h 0 c .12,1.94.4,8.82,1.38,12.12 a 48.53,48.53,0,0,0-25.93-.18,54.87,54.87,0,0,0,2.29-12.49 h 0 c -.05-1.39-.08-2.45-.08-2.45 a 11.23,11.23,0,0,1,.14-1.73 l -.08,0 a 4.53,4.53,0,0,0-1.95,4.15 s -.92,9.26-2.67,13.58 a 19.18,19.18,0,0,0,3.51,2 c .45,7.25,1.06,15.7,1.83,23.45 a 345.41,345.41,0,0,0,6.26,39.24,6.16,6.16,0,0,0,.2.86 h 0 a 6.21,6.21,0,0,0,12.13-1.91 c 0-8.53,2-40.11,3-51.39.29-3.28.59-7.05.87-10.76 A 4.9,4.9,0,0,0,121.77,123.45Z m -27.18.09.53-.14,0,.39Z m 19.92,44 c -.26,5.43-.51,11.34-.67,15.24,0,2.32-.18,4.36-.18,4.36 a 4.2,4.2,0,0,1-8,1.78 l -.07-.16 c -.43-1.13-1.35-4.89-1.35-4.89-1.78-8-4-23-5.32-34.72-.81-7.49-1.45-17.71-1.89-26.17 a 50,50,0,0,1,20.75.25 C 116.6,139,114.8,161.57,114.51,167.54Z"/>
  </g>
<script type="text/ecmascript" xlink:href="param.min.js"/> 
</svg>
