<?xml version="1.0"?>
<svg xmlns="http://www.w3.org/2000/svg" xmlns:xlink="http://www.w3.org/1999/xlink" viewBox="0 0 600 600">
  <title>sassy-slogan-curvy</title>
  <g id="main-colour">
    <path d="M 308,270.45 l -1.17.13 c -.08-1.38-.16-2.75-.26-4.13 a 1.32,1.32,0,0,0-.35-.83,1.13,1.13,0,0,0-.92-.27,1.1,1.1,0,0,0-.84.46,1.26,1.26,0,0,0-.19.89,20.27,20.27,0,0,0,.51,3.44,20.66,20.66,0,0,0,.79,2.64 c .3.78.61,1.53.94,2.19.13.38.26.7.42,1 a 13.38,13.38,0,0,1,.61,1.8 A 21,21,0,0,1,308,280 c .14.77.2,1.67.3,2.68 a 2.75,2.75,0,0,1,0,1,2.57,2.57,0,0,1-.35.78,3.08,3.08,0,0,1-.65.56,2.92,2.92,0,0,1-1,.29,2,2,0,0,1-1.66-.41,2.29,2.29,0,0,1-.75-1.61 c -.12-1.39-.22-2.78-.33-4.17 l 1.13-.15 c .1,1.39.21,2.77.34,4.16 a 1.47,1.47,0,0,0,.32.83,1,1,0,0,0,.87.23,1,1,0,0,0,.78-.45,1.42,1.42,0,0,0,.15-.89,24.33,24.33,0,0,0-.53-3.45,20.74,20.74,0,0,0-.77-2.63 c -.24-.57-.42-1.1-.66-1.62 l -.71-1.62 a 14.64,14.64,0,0,1-.65-1.79,20.35,20.35,0,0,1-.56-2.17,25.85,25.85,0,0,1-.29-2.7,2.68,2.68,0,0,1,.08-1,2.43,2.43,0,0,1,.41-.75,2.17,2.17,0,0,1,.71-.55,3.41,3.41,0,0,1,1-.29,2.21,2.21,0,0,1,1.74.45,2.31,2.31,0,0,1,.77,1.65 C 307.82,267.7,307.9,269.08,308,270.45Z" fill="param(main_colour)"/>
    <path d="M 316.41,283.66 c -.27-1.16-.48-2.32-.66-3.48 l -1.46.19 c 0,1.19,0,2.37.14,3.56 l -1.1.15 c -.55-6.94.68-13.89.47-20.83 l 1.15-.12 c 1.33,6.83,1,13.64,2.56,20.4Z m -2.09-4.59,1.27-.16 c -.36-2.75-.55-5.52-.81-8.28 C 314.59,273.44,314.36,276.25,314.31,279.07Z" fill="param(main_colour)"/>
    <path d="M 326.51,268.41 l -1.16.13 c 0-1.35,0-2.7-.15-4 a 1.29,1.29,0,0,0-.35-.81,1.12,1.12,0,0,0-.9-.27,1,1,0,0,0-.81.44,1.26,1.26,0,0,0-.18.87,27.17,27.17,0,0,0,.39,3.37,20.58,20.58,0,0,0,.62,2.58,22.47,22.47,0,0,0,.79,2.15 c .11.37.22.69.35,1 a 12.6,12.6,0,0,1,.51,1.77,21.13,21.13,0,0,1,.41,2.11 c .11.75.12,1.64.2,2.63 a 2.66,2.66,0,0,1-.08,1,2.62,2.62,0,0,1-.37.77,3.25,3.25,0,0,1-.66.55,3,3,0,0,1-1,.28,2.11,2.11,0,0,1-1.69-.4,2.22,2.22,0,0,1-.78-1.58 c -.12-1.36-.18-2.72-.2-4.08 l 1.18-.14 c 0,1.36.07,2.72.19,4.07 a 1.39,1.39,0,0,0,.33.81,1.06,1.06,0,0,0,.89.22,1,1,0,0,0,.79-.44,1.39,1.39,0,0,0,.17-.87,28,28,0,0,0-.4-3.37,21,21,0,0,0-.62-2.57 c -.2-.56-.35-1.08-.55-1.59 l -.59-1.59 a 13.27,13.27,0,0,1-.51-1.75 c -.16-.65-.3-1.37-.41-2.13 s -.12-1.68-.19-2.65 a 2.78,2.78,0,0,1,.08-1,2.39,2.39,0,0,1,.38-.74,2,2,0,0,1,.67-.53,3.15,3.15,0,0,1,1-.28,2.21,2.21,0,0,1,1.71.44,2.27,2.27,0,0,1,.78,1.62 C 326.46,265.72,326.5,267.07,326.51,268.41Z" fill="param(main_colour)"/>
    <path d="M 336,267.4 l -1.15.12 c 0-1.33-.08-2.67-.19-4 a 1.29,1.29,0,0,0-.34-.8,1.11,1.11,0,0,0-.89-.27,1,1,0,0,0-.8.44,1.24,1.24,0,0,0-.17.86,27,27,0,0,0,.42,3.33,20.52,20.52,0,0,0,.64,2.55,21.65,21.65,0,0,0,.81,2.13 c .11.36.22.68.36,1 a 12.4,12.4,0,0,1,.52,1.75,18.79,18.79,0,0,1,.41,2.09 c .11.74.11,1.62.15,2.6 a 2.51,2.51,0,0,1-.11.95,2.65,2.65,0,0,1-.41.76,3.5,3.5,0,0,1-.69.54,3.22,3.22,0,0,1-1,.27,2,2,0,0,1-2.42-2 c -.08-1.34-.11-2.69-.11-4 l 1.19-.14 c 0,1.34,0,2.69.11,4 a 1.31,1.31,0,0,0,.3.8,1.07,1.07,0,0,0,.89.22,1.11,1.11,0,0,0,.82-.43,1.35,1.35,0,0,0,.21-.86,22.42,22.42,0,0,0-.35-3.33,19.37,19.37,0,0,0-.62-2.55 c -.2-.55-.36-1.07-.56-1.57 l -.6-1.57 a 13.15,13.15,0,0,1-.52-1.74 c -.16-.64-.31-1.36-.42-2.11 s -.13-1.66-.21-2.62 a 2.77,2.77,0,0,1,.07-1,2.33,2.33,0,0,1,.37-.73,2,2,0,0,1,.66-.53,3.12,3.12,0,0,1,1-.28,2.2,2.2,0,0,1,1.7.44,2.25,2.25,0,0,1,.77,1.6 C 335.89,264.73,335.95,266.06,336,267.4Z" fill="param(main_colour)"/>
    <path d="M 344.94,260.13 c -.48,3.38-.93,6.76-1.44,10.16q.17,5,.39,9.93 l -1.16.14 c -.16-3.32-.26-6.64-.35-10-.72-3.25-1.37-6.51-2.32-9.79 l 1.14-.11 c .64,2.27,1.14,4.54,1.65,6.8.34-2.35.66-4.7,1-7Z" fill="param(main_colour)"/>
  </g>
  <g id="fixed-colours">
    <path d="M 336,274.9 s -19.14-1.33-28.44,8 C 313.95,274.11,326.44,271.18,336,274.9Z" opacity="0.2"/>
    <path d="M 315,270.65 s 8.24,2.66,14.62-3.72 C 326.18,268.79,319,270.92,315,270.65Z" opacity="0.2"/>
    <path d="M 270.79,277.64 c 4.78,15.74,15.94,21.74,29.11,19.57 C 288.4,295.88,278.75,293,270.79,277.64Z" opacity="0.4"/>
  </g>
<script type="text/ecmascript" xlink:href="param.min.js"/> 
</svg>
