<?xml version="1.0"?>
<svg xmlns="http://www.w3.org/2000/svg" xmlns:xlink="http://www.w3.org/1999/xlink" viewBox="0 0 600 600">
  <title>girl-power-slogan-slender</title>
  <g id="main-colour">
    <path d="M 297.74,266.87 l 4,0 c 0,2.13-.13,4.26-.23,6.39-.17,3.22-1.68,5.1-4.36,5.16 s -4.05-1.77-4.07-5q0-5.3,0-10.6 c 0-3.27,1.44-5.12,4.17-5.1 s 4.39,1.87,4.49,5.08q0,1,0,2 h -2.73q0-1.08,0-2.17 c 0-1.44-.64-2-1.55-2 s -1.48.55-1.46,2 c 0,3.65,0,7.31-.08,11,0,1.45.52,2,1.4,1.95 s 1.46-.55,1.52-2q.07-1.86.12-3.73 H 297.7Q297.73,268.31,297.74,266.87Z" fill="param(main_colour)"/>
    <path d="M 303.3,257.94 l 2.81,0 c .78,6.64.17,13.33-.29,20 l -2.76.06 C 303.47,271.32,304,264.61,303.3,257.94Z" fill="param(main_colour)"/>
    <path d="M 313.63,277.79 a 6.55,6.55,0,0,1-.07-2.43 c .08-1,.15-2.07.22-3.11.12-1.84-.4-2.51-1.65-2.5 h -1 c -.14,2.7-.37,5.4-.57,8.09 l -2.77.06 c .48-6.65,1.12-13.32.32-19.94 l 4.23,0 c 2.9,0,4.34,1.52,4.4,4.55q0,.77,0,1.55 c 0,2-.63,3.35-1.87,4,1.34.64,1.72,2.13,1.59,4.18q-.1,1.52-.2,3 a 6.18,6.18,0,0,0,.14,2.39Z m -2.42-17 c .13,2,.14,4.06.08,6.1 h 1.08 c 1,0,1.68-.52,1.69-2.1q0-1,0-1.95 c 0-1.41-.51-2-1.49-2Z" fill="param(main_colour)"/>
    <path d="M 318.39,258.06 l 2.8,0 c .26,5.57,0,11.16-.27,16.75 l 4.53-.08-.06,2.77-7.41.17 C 318.39,271.14,318.9,264.58,318.39,258.06Z" fill="param(main_colour)"/>
    <path d="M 297.85,285.14q0,.82,0,1.64 c 0,2-.79,3.16-2.43,3.23 l -.78,0q0,2.39.08,4.77 l -1.71.08q0-6.37,0-12.74 l 2.44-.07 C 297.1,282,297.88,283.12,297.85,285.14Z m -3.23-1.21q0,2.15,0,4.3 l .77,0 c .52,0,.8-.32.8-1.23q0-1,0-1.9 c 0-.91-.27-1.19-.8-1.17Z" fill="param(main_colour)"/>
    <path d="M 298.56,285 c 0-2,1-3.2,2.63-3.25 s 2.51,1.07,2.46,3.08 c -.05,2.17,0,4.34.08,6.52.12,2-.65,3.19-2.33,3.28 s -2.7-1-2.77-3.05 C 298.54,289.4,298.53,287.21,298.56,285Z m 1.74,6.62 c 0,.9.41,1.23.95,1.2 s .85-.38.8-1.28 c -.12-2.26-.13-4.52-.08-6.78,0-.9-.3-1.23-.84-1.21 s -.88.37-.9,1.27 C 300.19,287.11,300.2,289.38,300.31,291.64Z" fill="param(main_colour)"/>
    <path d="M 308.5,287.51 a 57.5,57.5,0,0,0-.25,6.66 l -2.35.11 a 76,76,0,0,1-1.43-12.46 l 1.66,0 a 82.12,82.12,0,0,0,.89,9.81,81.12,81.12,0,0,1,.86-9.86 l 1.66,0 a 80.08,80.08,0,0,0,.82,9.83,80.81,80.81,0,0,1,.95-9.88 l 1.52,0 A 73.49,73.49,0,0,0,311.77,294 l -2.27.11 A 58.7,58.7,0,0,1,308.5,287.51Z" fill="param(main_colour)"/>
    <path d="M 315.29,286.69 l 2.43-.09q0,.88,0,1.75 l -2.42.09 c 0,1.2.05,2.4.13,3.6 l 3-.14q0,.88.1,1.75 l -4.67.23 a 77,77,0,0,1-.13-12.34 l 4.8-.14q0,.88-.07,1.75 l -3.05.1 C 315.33,284.41,315.3,285.55,315.29,286.69Z" fill="param(main_colour)"/>
    <path d="M 323.17,293.44 A 4,4,0,0,1,323,292q0-1,0-1.91 c 0-1.13-.35-1.53-1.16-1.5 l -.62,0 c 0,1.65,0,3.31.07,5 l -1.72.08 a 121.7,121.7,0,0,1,0-12.23 l 2.69-.08 c 1.85-.05,2.63.84,2.59,2.71 l 0,1 a 2.61,2.61,0,0,1-1.23,2.5 c .9.37,1.18,1.27,1.15,2.54q0,.94,0,1.87 a 3.88,3.88,0,0,0,.16,1.46Z m -1.84-10.36q-.06,1.87-.09,3.75 l .7,0 c .67,0,1.09-.35,1.11-1.33q0-.6,0-1.2 c 0-.87-.25-1.24-.88-1.22Z" fill="param(main_colour)"/>
  </g>
<script type="text/ecmascript" xlink:href="param.min.js"/> 
</svg>
