<?xml version="1.0"?>
<svg xmlns="http://www.w3.org/2000/svg" xmlns:xlink="http://www.w3.org/1999/xlink" viewBox="0 0 600 600">
  <title>girl-power-slogan-curvy</title>
  <g id="main-colour">
    <path d="M 307.88,271 l 4.7-.19 c -.24,2.28-.56,4.56-.89,6.83-.52,3.43-2.32,5.47-5.19,5.64 s -4.27-1.72-4.12-5.19 c .18-3.76.3-7.53.13-11.3-.18-3.49,1.34-5.53,5-5.63 s 5.64,1.82,5.45,5.27q-.06,1-.15,2.1 l -3.25.12q.06-1.16.08-2.32 c 0-1.55-.71-2.11-1.85-2.07 s -1.82.65-1.79,2.2 c .06,3.91-.21,7.81-.52,11.71-.12,1.54.44,2.07,1.41,2 s 1.64-.64,1.82-2.17 c .15-1.32.3-2.65.43-4 l -1.48.06Q307.79,272.58,307.88,271Z" fill="param(main_colour)"/>
    <path d="M 315.39,261.22 l 3.69-.1 c -.17,7.15-1.81,14.31-3.27,21.43 l -3,.16 C 314.06,275.58,315.46,268.4,315.39,261.22Z" fill="param(main_colour)"/>
    <path d="M 324.25,282.1 a 7.25,7.25,0,0,1,.49-2.59q.49-1.66,1-3.33 c .58-2,.11-2.67-1.38-2.61 l -1.13,0 c -.7,2.89-1.48,5.78-2.23,8.66 l -3,.16 c 1.62-7.11,3.43-14.25,3.78-21.38 l 5.58-.14 c 3.83-.09,5.31,1.47,4.54,4.74q-.2.83-.41,1.67 a 6.15,6.15,0,0,1-3.39,4.38 c 1.48.64,1.53,2.22.81,4.42q-.53,1.63-1.07,3.26 a 6.93,6.93,0,0,0-.51,2.54Z m .88-18.09 c -.3,2.19-.72,4.37-1.21,6.56 l 1.32,0 a 2.55,2.55,0,0,0,2.58-2.32q.24-1,.46-2.1 c .31-1.52-.14-2.17-1.42-2.14Z" fill="param(main_colour)"/>
    <path d="M 335.3,260.72 l 3.71-.08 c -1.25,6-3.55,12-5.89,18 l 5.15-.24-1.3,3-8,.42 C 331.43,274.82,334.08,267.76,335.3,260.72Z" fill="param(main_colour)"/>
    <path d="M 306.77,290.43q-.05.87-.09,1.74 c -.1,2.14-.87,3.36-2.45,3.48 l -.75.06 c .06,1.68.17,3.35.35,5 l -1.47.13 a 86.69,86.69,0,0,1-.53-13.42 l 2.58-.16 C 306.17,287.18,306.92,288.3,306.77,290.43Z m -3.28-1.17 c 0,1.51-.07,3-.06,4.54 l .77-.06 c .52,0,.8-.37.82-1.32q0-1,.07-2 c 0-1-.24-1.24-.78-1.21Z" fill="param(main_colour)"/>
    <path d="M 307.5,290.29 c .15-2.14,1.23-3.42,3-3.53 s 2.5,1.05,2.2,3.18 c -.31,2.3-.55,4.6-.67,6.9-.12,2.12-.9,3.4-2.37,3.54 s -2.35-1-2.37-3.15 C 307.24,294.92,307.34,292.6,307.5,290.29Z m 1.31,6.94 c 0,1,.31,1.29.79,1.24 s .79-.43.82-1.38 c .08-2.39.28-4.78.55-7.18.11-1-.19-1.29-.74-1.25 s -.94.42-1,1.37 C 309,292.44,308.84,294.84,308.82,297.23Z" fill="param(main_colour)"/>
    <path d="M 317,292.61 a 67.58,67.58,0,0,0-1.37,7.08 l -2.07.18 a 103,103,0,0,1,.29-13.17 l 1.73-.11 c -.34,3.47-.6,6.93-.62,10.38 a 90.7,90.7,0,0,1,2.44-10.49 l 1.72-.11 c -.5,3.48-.93,7-1.11,10.42 A 92.77,92.77,0,0,1,321,286.26 l 1.56-.1 a 84.64,84.64,0,0,0-3.75,13.25 l -2,.18 C 316.76,297.27,316.86,294.94,317,292.61Z" fill="param(main_colour)"/>
    <path d="M 323.7,291.54 l 2.32-.16q-.26.93-.5,1.87 l -2.27.17 c -.29,1.28-.56,2.56-.78,3.84 l 2.72-.23q-.2.93-.37,1.87 l -4.18.37 a 93.57,93.57,0,0,1,2.81-13.14 l 4.91-.3q-.31.94-.62,1.87 l -3,.19Q324.16,289.71,323.7,291.54Z" fill="param(main_colour)"/>
    <path d="M 329,298.52 a 4.82,4.82,0,0,1,.26-1.58q.27-1,.57-2 c .36-1.21.17-1.63-.58-1.57 l -.57,0 c -.52,1.77-1,3.53-1.36,5.3 l -1.54.13 a 98.56,98.56,0,0,1,3.7-13.05 l 2.73-.16 c 1.89-.11,2.28.83,1.49,2.83 l -.39,1 a 4.79,4.79,0,0,1-2.06,2.71 c .7.37.63,1.33.2,2.68q-.31,1-.6,2 a 4.65,4.65,0,0,0-.26,1.56Z m 1.6-11 c -.47,1.33-.93,2.67-1.35,4 l .66,0 c .63,0,1.13-.41,1.49-1.45 l .46-1.28 c .34-.93.22-1.32-.41-1.28Z" fill="param(main_colour)"/>
  </g>
  <g id="fixed-colours">
    <path d="M 336,274.9 s -19.14-1.33-28.44,8 C 313.95,274.11,326.44,271.18,336,274.9Z" opacity="0.2"/>
    <path d="M 315,270.65 s 8.24,2.66,14.62-3.72 C 326.18,268.79,319,270.92,315,270.65Z" opacity="0.2"/>
    <path d="M 270.79,277.64 c 4.78,15.74,15.94,21.74,29.11,19.57 C 288.4,295.88,278.75,293,270.79,277.64Z" opacity="0.4"/>
  </g>
<script type="text/ecmascript" xlink:href="param.min.js"/> 
</svg>
