<?xml version="1.0"?>
<svg xmlns="http://www.w3.org/2000/svg" xmlns:xlink="http://www.w3.org/1999/xlink" viewBox="0 0 600 600">
  <title>love-slogan-hourglass</title>
  <g id="main-colour">
    <path d="M 320.62,274.09 l .57,0 a 4.61,4.61,0,0,0,.75,2.92,2.57,2.57,0,0,0,2.41.91 l 2.36-.15 c .07-4.16.35-8.33.34-12.5 l -1.91.1q0-.23,0-.46 l 6.1-.3V265 l -1.82.09 c -.05,4.16-.26,8.31-.35,12.47 l 1.81-.12v.46 l -10.12.66 C 320.65,277.09,320.63,275.59,320.62,274.09Z" fill="param(main_colour)"/>
    <path d="M 308,272.59 a 8.83,8.83,0,0,1,1.82-5.13,5.23,5.23,0,0,1,3.93-2.33,4.92,4.92,0,0,1,4.07,1.93,6.77,6.77,0,0,1,1.57,4.86,8.69,8.69,0,0,1-1.89,5.08,5.35,5.35,0,0,1-3.9,2.37,4.73,4.73,0,0,1-4-1.88 A 6.81,6.81,0,0,1,308,272.59Z m 2.6,2.29 a 5,5,0,0,0,.71,3.1,2.41,2.41,0,0,0,2.27.92,2.7,2.7,0,0,0,2.23-1.21,6.27,6.27,0,0,0,.79-3.18 c .06-1.62.15-3.25.2-4.87 a 5,5,0,0,0-.71-3.09,2.52,2.52,0,0,0-2.31-.95,2.7,2.7,0,0,0-2.26,1.19,6.46,6.46,0,0,0-.75,3.19 C 310.74,271.61,310.66,273.25,310.61,274.88Z" fill="param(main_colour)"/>
    <path d="M 296.61,266.81q0-.24,0-.48 l 4-.21q0,.24,0,.48 l -1.92.1 c 1.17,3.18,2,6.36,3.06,9.51,1-3.29,2.28-6.57,3.18-9.84 l -1.9.1 c 0-.16,0-.32,0-.48 l 5.83-.3q0,.24,0,.47 l -1.53.08 c -1.26,4.59-3.25,9.22-4.33,13.86 l -.54,0 c -1.73-4.44-2.72-8.91-4.34-13.41Z" fill="param(main_colour)"/>
    <path d="M 286.08,276.48 l .52,0 a 6.79,6.79,0,0,0,1.07,2.94,2.67,2.67,0,0,0,2.46.82 l 2.4-.17 c -.13-2.14-.16-4.28-.19-6.43 l -.49,0 a 2,2,0,0,0-1.8.95,4.1,4.1,0,0,0-.38,2 l -.5,0 c -.06-1.93-.11-3.87-.16-5.8 l .52,0 a 3.44,3.44,0,0,0,.5,1.77,1.84,1.84,0,0,0,1.82.64 l .49,0 c 0-2,0-4.05-.13-6.08 l -2.13.11 a 3.67,3.67,0,0,0-2.29.76,4.54,4.54,0,0,0-1.08,2.69 l -.52,0q0-1.87,0-3.75 l 10.23-.55q0,.24,0,.48 l -1.83.1 c .18,4.32,0,8.64.24,13 l 1.77-.12q0,.24,0,.48 l -10.2.71Q286.25,278.71,286.08,276.48Z" fill="param(main_colour)"/>
  </g>
<script type="text/ecmascript" xlink:href="param.min.js"/> 
</svg>
