<?xml version="1.0"?>
<svg xmlns="http://www.w3.org/2000/svg" xmlns:xlink="http://www.w3.org/1999/xlink" viewBox="0 0 250 250">
  <title>voluptuous-bottoms-template</title>
  <g id="skin-tone">
    <path d="M 125.51,217.57 l 0,0 c -.23-4.4-.51-9.87-.57-12.67-.08-4.17-.33-13.58-.08-23.67 a 150.61,150.61,0,0,1,2-18.77 C 117.58,166,111,164.37,103,160.15 a 30.87,30.87,0,0,1-11-9.75 c -2,9.23,2,19,4,26.67,2.58,10.08,7,19.9,9,25,2.17,5.5,3.83,12.81,6.18,18.26 l .08,0 c .48,1.15,1,2.47,1.27,3.15 a 26.49,26.49,0,0,0,3.61,6.46 h 0 a 4.73,4.73,0,0,0,8.5-.5 h 0 c .55-.62,1.28-3,1.12-6.63 C 125.7,221.72,125.61,219.51,125.51,217.57Z" fill="param(skin_tone)"/>
  </g>
  <g id="main-colour">
    <path d="M 136.83,132.08 c 2.42-5.42,1.67-9.08,1.08-11.17-1.58-4.42-5.92-8.83-11.58-9.33 s -8.83,2.5-11.92,5.08-7.58,7.75-10.17,10.42-6.64,6.22-10.52,14.1 a 35,35,0,0,0-2.66,7.9 c 2.54,3.53,6.67,8.31,11.9,11.07,8,4.22,14.61,5.86,23.87,2.33 a 112.17,112.17,0,0,1,2.66-12.73 C 131.17,144.33,134.42,137.5,136.83,132.08Z" fill="param(main_colour)"/>
  </g>
  <g id="outline">
    <path d="M 139.5,125 a 14.48,14.48,0,0,0-26.2-8.53 c -1.22,1.23-8.35,6.8-12.88,12.74-5.85,7.66-9.55,14.32-10.07,28.51-.28,7.61,6.11,25.84,9.86,35.21,4.51,11.27,7.59,21.16,9.09,24.91 S 113.67,229,116.11,230 c -1.18-2.37-3.66-9.43-7-20.13-4.77-15.12-9.13-22.33-14.51-42.25 A 39.63,39.63,0,0,1,93.31,154 c 3.94,4,17.37,15.73,32.23,10 a 176.23,176.23,0,0,0-1.87,23.83 c 0,11.13.38,25.63.75,30.13 s 1,10.21.22,11.51 c 2-1.51,2.16-8,1.66-13.63 s -.75-26.62-.12-39.37 a 116.7,116.7,0,0,1,6.13-31.75 c 2.5-6.87,6.87-13.89,7-17.26 h 0 A 14.41,14.41,0,0,0,139.5,125Z m -2.24,2.45 h 0v0 a 12.34,12.34,0,0,1-.42,1.52 c -.21.7-.5,1.63-.88,2.69-.89,2.39-2.36,5.92-4.79,10.89-2.35,4.8-4.05,11.71-5.24,18.93-3.78,1.42-17.31,4.89-32.23-10.71 a 45.89,45.89,0,0,1,11.89-23.63 c 3.91-4.11,9.91-10.28,9.92-10.29 h 0 a 12.49,12.49,0,0,1,21.75,10.57Z"/>
  </g>
<script type="text/ecmascript" xlink:href="param.min.js"/> 
</svg>
