<?xml version="1.0"?>
<svg xmlns="http://www.w3.org/2000/svg" xmlns:xlink="http://www.w3.org/1999/xlink" viewBox="0 0 600 600">
  <title>skull-design-top-curvy</title>
  <g id="main-colour">
    <path d="M 311.92,303.85 c -.49,0-.58-.51-1,.09,0,0-.43,3,0,2.92 S 312.43,303.88,311.92,303.85Z" fill="param(main_colour)"/>
    <path d="M 313.23,304.52 c -1.09,0-1.41,2.5-1,2.91 s .87.36,1.14-.72 S 313.88,304.51,313.23,304.52Z" fill="param(main_colour)"/>
    <path d="M 314.61,305.24 c -.47.06-.86,1.26-.86,2.22 s .6,1,1.07.89.63-1.4.7-2.23 S 315.33,305.15,314.61,305.24Z" fill="param(main_colour)"/>
    <path d="M 319.3,304.5 c -.46,0-1.43,2.58-.61,2.49 s 1.08-.78,1.26-1.53 S 319.87,304.44,319.3,304.5Z" fill="param(main_colour)"/>
    <path d="M 320.78,304.24 c -.69,2.4,1,.78,1.2.23 s .54-1.59.21-1.81 S 321.1,303.07,320.78,304.24Z" fill="param(main_colour)"/>
    <path d="M 333.54,289 c -.32-2.24.36-8.35-.13-12-.33-3.71-.76-11-8.08-14.8-7.34-4-19.54-4.07-21.85-.14-3.45,6.63,0,20.5.26,23.93.58,3.41-.92,5.11,0,7.75 s 1.79,3,3.21,2.75,4.18,1.74,4.38,3.43-1.09,3.76,1.61,3.37.49,2.31,2.63,1.14,2.94.8,3.58-.34,3.63-1.68,3.92-3.92,2.94-5.4,5.93-4.25 S 334,291.26,333.54,289Z m -21.3,2.09 c -1.46.93-5.19.52-5.68-.86 a 22.82,22.82,0,0,1-.42-5.6 c .06-.81.11-2.2,1.41-2.53,1.92-.48,3.85-1.84,5.34-1 s 2.81,2.63,2.67,3.91 S 313.71,290.2,312.24,291.12Z m 8.89,3.84 c -.36,1.4-1.05,3.1-2,3 s -.21-2.48-.28-3.66-.72-2.34-1.11-.57-.24,4.34-1.62,4.44 c -.8.06-.91-2.53-.22-5.26 s 1.73-4.25,2.32-3.84,1-1.16,1.62-.13 S 321.51,293.57,321.13,295Z m 9.58-5 c -.88.91-4.47,1.63-6,1 s -1.29-2.47-2.22-3.06 a 2.53,2.53,0,0,1-1.32-1.94 c -.25-1.2,1.52-3,2.46-4.16 s 1.76-1.26,3.5-.31,3.57.85,3.77,2.33 S 331.61,289.1,330.7,290Z" fill="param(main_colour)"/>
  </g>
  <g id="fixed-colours">
    <path d="M 332.36,267.87 s -14,13.44-30.38,14.51 C 313.81,285.31,325.67,277.58,332.36,267.87Z" opacity="0.15"/>
    <path d="M 327.45,276.91 s -6.61,7.59-14.44,9.68 C 320.43,286.86,325.62,280.13,327.45,276.91Z" opacity="0.15"/>
  </g>
<script type="text/ecmascript" xlink:href="param.min.js"/> 
</svg>
