<?xml version="1.0"?>
<svg xmlns="http://www.w3.org/2000/svg" xmlns:xlink="http://www.w3.org/1999/xlink" viewBox="0 0 600 600">
  <title>honey-slogan-hourglass</title>
  <g id="main-colour">
    <path d="M 294.55,279q-.08-.94-.15-1.89 l .79-.09 c -.24-3.14-.37-6.28-.58-9.43 l -.84.08-.14-1.89,3.4-.31q.06.94.11,1.88 l -.84.08 c .07,1.26.11,2.51.16,3.77 l 3.26-.33 c 0-1.25,0-2.5-.06-3.75 l -.84.08q0-.94-.1-1.88 l 3.38-.31 c 0,.62.07,1.25.09,1.87 l -.84.08 c .09,3.12-.12,6.24.16,9.36 l .79-.09 c .05.62.13,1.25.23,1.87 l -3.18.36 c -.09-.62-.17-1.25-.22-1.87 l .79-.09 c -.11-1.25-.16-2.5-.18-3.75 l -3.21.34 c .06,1.25.12,2.51.23,3.76 l .79-.09 c .05.63.12,1.25.21,1.88Z" fill="param(main_colour)"/>
    <path d="M 305.39,277.79 c -.51-.45-1-.9-1.47-1.35-.33-3.36,0-6.72-.06-10.08.43-.54.86-1.08,1.26-1.62 l 4-.36q.74.68,1.43,1.36 c .11,3.34-.48,6.68-.24,10q-.59.81-1.11,1.62Z m .09-1.9,3.21-.34 c -.19-3.09.26-6.19.21-9.28 l -3.35.31 C 305.6,269.69,305.24,272.8,305.48,275.9Z" fill="param(main_colour)"/>
    <path d="M 312.08,277.06 c -.63-4.31.51-8.63,0-12.95 l 1.65-.15 a 66.4,66.4,0,0,1,3.91,8.45 c .16-2.94.59-5.88.19-8.83 l 1.64-.15 c .6,4.28-.55,8.57-.15,12.84 l -1.63.17 a 68.69,68.69,0,0,1-3.88-8.43 c -.14,3-.56,5.91-.16,8.86Z" fill="param(main_colour)"/>
    <path d="M 321,276.11 c -.35-4.26.76-8.54.15-12.81 l 6.52-.58 c .08.61.13,1.21.16,1.82 l -4.88.44 a 34.08,34.08,0,0,1-.06,3.66 l 3.29-.31 c 0,.61-.07,1.21-.1,1.82 l -3.31.32 c -.09,1.22-.17,2.43-.17,3.65 l 5-.5 c 0,.6,0,1.21,0,1.81Z" fill="param(main_colour)"/>
    <path d="M 328.45,262.64 l 1.63-.14 c 1,1.51,1.8,3,2.6,4.53.83-1.66,1.58-3.31,2.33-5 l 1.66-.14 c -1.08,2.19-2.07,4.39-3.2,6.6,0,2.1-.07,4.21,0,6.31 l -1.68.17 c 0-2.1,0-4.21.09-6.32 A 62.41,62.41,0,0,0,328.45,262.64Z" fill="param(main_colour)"/>
  </g>
  <g id="fixed-colours">
    <path d="M 326.31,271.21 s -11.85-2-18.25,3.16 C 312.6,269.31,320.58,268.28,326.31,271.21Z" opacity="0.2"/>
    <path d="M 287.09,288.2 c 7.12.34,13.78-.82,20.78-6.32 C 304.11,288.81,294.11,291.43,287.09,288.2Z" opacity="0.4"/>
  </g>
<script type="text/ecmascript" xlink:href="param.min.js"/> 
</svg>
