<?xml version="1.0"?>
<svg xmlns="http://www.w3.org/2000/svg" xmlns:xlink="http://www.w3.org/1999/xlink" viewBox="0 0 600 600">
  <title>love-slogan-hourglass</title>
  <g id="main-colour">
    <path d="M 335,274.43 l .59-.06 a 4.39,4.39,0,0,0,.76,3,2.67,2.67,0,0,0,2.54.85 l 2.47-.24 c 0-4.26.38-8.53,0-12.8 l -1.93.16q0-.24-.05-.48 l 6.21-.52q0,.24,0,.47 l -1.85.16 c .2,4.26,0,8.52,0,12.77 l 1.9-.18V278 l -10.59,1 A 45.36,45.36,0,0,1,335,274.43Z" fill="param(main_colour)"/>
    <path d="M 322.05,273.35 a 10.45,10.45,0,0,1,2-5.31,5.27,5.27,0,0,1,3.86-2.54,5.17,5.17,0,0,1,4.29,1.83,6.32,6.32,0,0,1,1.62,4.92,9.59,9.59,0,0,1-2,5.26,5.7,5.7,0,0,1-4,2.57,4.89,4.89,0,0,1-4.19-1.78 A 6.23,6.23,0,0,1,322.05,273.35Z m 2.59,2.25 a 4.59,4.59,0,0,0,.72,3.15,2.5,2.5,0,0,0,2.38.86,2.83,2.83,0,0,0,2.27-1.32,7.1,7.1,0,0,0,.85-3.28 c .11-1.66.27-3.32.33-5 a 4.62,4.62,0,0,0-.79-3.14,3,3,0,0,0-4.65.41,7.74,7.74,0,0,0-.75,3.3 C 324.92,272.25,324.74,273.93,324.64,275.6Z" fill="param(main_colour)"/>
    <path d="M 310.38,267.85q0-.25,0-.49 l 4.14-.37q0,.24,0,.49 l -2,.18 c 1.3,3.22,2,6.43,3,9.62,1-3.41,2.67-6.81,3.45-10.19 l -1.95.17q0-.24,0-.49 l 6-.52q0,.24.06.48 l -1.56.14 c -1,4.76-3.85,9.55-4.45,14.35 l -.54.06 c -2.22-4.49-2.67-9-4.48-13.57Z" fill="param(main_colour)"/>
    <path d="M 299.66,278.16 l .52-.05 a 6.75,6.75,0,0,0,1.16,3,2.71,2.71,0,0,0,2.54.74 l 2.42-.26 a 52.61,52.61,0,0,1-.37-6.58 l -.5,0 a 2,2,0,0,0-1.82,1,4.22,4.22,0,0,0-.35,2 l -.5.05 c -.11-2-.16-4-.24-5.94 l .53-.05 a 3.47,3.47,0,0,0,.52,1.8 c .31.48.93.68,1.86.59 l .5,0 c 0-2.07,0-4.15-.13-6.22 l -2.22.2 a 3.93,3.93,0,0,0-2.38.86,4.67,4.67,0,0,0-1.06,2.8 l -.53.05q-.06-1.92-.13-3.84 l 10.65-.95q0,.25,0,.49 l -1.9.17 c .27,4.43-.27,8.85.35,13.26 l 1.79-.19q0,.24.08.49 l -10.34,1.12 C 300,281.2,299.82,279.68,299.66,278.16Z" fill="param(main_colour)"/>
  </g>
  <g id="fixed-colours">
    <path d="M 329.9,274.55 s -12-.83-17.83,5 C 316.07,274,323.9,272.21,329.9,274.55Z" opacity="0.2"/>
    <path d="M 316.73,271.88 a 9.5,9.5,0,0,0,9.17-2.33 C 323.73,270.71,319.23,272,316.73,271.88Z" opacity="0.2"/>
    <path d="M 275.9,284.25 c 10.5,12.13,21,14.63,34.13,11.25 C 298.38,302.39,282.36,297.84,275.9,284.25Z" opacity="0.4"/>
  </g>
<script type="text/ecmascript" xlink:href="param.min.js"/> 
</svg>
