<?xml version="1.0"?>
<svg xmlns="http://www.w3.org/2000/svg" xmlns:xlink="http://www.w3.org/1999/xlink" viewBox="0 0 600 600">
  <title>girl-power-slogan-slender</title>
  <g id="main-colour">
    <path d="M 326.87,272.57 l -1.31.09 c -.33,1.24-.68,2.49-1,3.73-.41,1.44,0,1.92.85,1.85 s 1.58-.63,2-2.07 c 1.15-3.63,2.24-7.27,3.07-10.9.33-1.44-.2-2-1.19-1.91 s -1.71.64-2,2.09q-.22,1.09-.46,2.17 l -2.84.18q.2-1,.37-2 c .56-3.26,2.31-5.2,5.48-5.35 s 4.51,1.61,3.67,4.83 c -.9,3.49-2,7-3.24,10.46-1.11,3.2-3.12,5.15-5.7,5.38 s -3.42-1.5-2.6-4.75 c .56-2.14,1.09-4.29,1.57-6.44 l 4.13-.27Q327.28,271.12,326.87,272.57Z" fill="param(main_colour)"/>
    <path d="M 319,281.39 l -2.62.23 c 1.47-6.78,3.05-13.6,3.43-20.41 L 323,261 C 322.42,267.83,320.66,274.63,319,281.39Z" fill="param(main_colour)"/>
    <path d="M 306.44,282.52 A 8.27,8.27,0,0,0,307,280q.17-1.58.34-3.17 c .23-2.15.82-3.75,2.31-4.53-1.21-.58-1.69-1.93-1.6-4.06q0-.81.06-1.63 c .06-3.2,1.33-4.84,4.62-5 l 4.77-.26 c -.24,6.83-1.68,13.67-3,20.46 l -2.6.23 c .46-2.77.94-5.55,1.35-8.33 l -1,.07 c -1.28.09-1.93.84-2.18,2.75q-.21,1.61-.44,3.22 a 8.75,8.75,0,0,1-.58,2.54Z m 6.31-18 c -1.09.07-1.58.74-1.65,2.22q-.06,1-.14,2 c -.13,1.65.46,2.13,1.54,2.06 l 1.14-.08 c .27-2.1.48-4.21.6-6.32Z" fill="param(main_colour)"/>
    <path d="M 305,282.64 l -6.73.63q0-1.48,0-3 l 4.31-.38 a 114.05,114.05,0,0,0,.16-17.77 L 306,262 C 306.42,268.89,305.66,275.79,305,282.64Z" fill="param(main_colour)"/>
    <path d="M 325.08,284.59 l 2.35-.22 a 123.84,123.84,0,0,0-3.57,12.43 l -1.38.17 c .31-1.56.68-3.12,1.08-4.67 l -.69.08 c -1.45.17-1.93-.84-1.43-2.84q.2-.81.42-1.63 C 322.39,285.91,323.48,284.74,325.08,284.59Z m -.55,1.79 c -.5,0-.85.36-1.11,1.25q-.27.94-.52,1.87 c -.24.89-.05,1.15.42,1.1 l .7-.08 c .39-1.41.81-2.81,1.24-4.22Z" fill="param(main_colour)"/>
    <path d="M 319.74,294.4 c -.39,2-1.28,3.23-2.6,3.41 s -1.94-.88-1.67-2.9 c .3-2.18.69-4.36,1.13-6.54.41-2,1.51-3.25,3.06-3.4 s 2.09.92,1.56,2.93 C 320.67,290.06,320.16,292.23,319.74,294.4Z m 0-6.48 c .22-.9,0-1.21-.5-1.16 s -.88.42-1.08,1.32 c -.5,2.26-.94,4.52-1.29,6.78-.14.9.09,1.2.53,1.15 s .77-.43.92-1.32 C 318.7,292.43,319.19,290.18,319.73,287.92Z" fill="param(main_colour)"/>
    <path d="M 310.81,298.48 l -1.75.23 a 122.71,122.71,0,0,1,0-12.58 l 1.35-.13 c -.21,3.34-.36,6.67-.32,10,.44-3.38,1.12-6.76,1.9-10.14 l 1.5-.15 c -.34,3.31-.62,6.6-.72,9.89.58-3.35,1.39-6.69,2.31-10 l 1.52-.15 a 97.06,97.06,0,0,0-3,12.72 l -1.83.24 c 0-2.22,0-4.44.11-6.67 C 311.43,294,311.06,296.22,310.81,298.48Z" fill="param(main_colour)"/>
    <path d="M 306.56,288.19 l -2.59.27q.05-.91.11-1.83 l 4.19-.42 a 102.64,102.64,0,0,0-.8,12.71 l -3.55.47q-.05-.91-.09-1.82 l 2.3-.29q0-1.86.07-3.73 l -1.93.23q0-.91,0-1.82 l 2-.22Q306.41,290,306.56,288.19Z" fill="param(main_colour)"/>
    <path d="M 299.14,300 a 6.47,6.47,0,0,0,0-1.58q-.1-1-.18-2 c -.11-1.34.07-2.34.75-2.84-.64-.35-1-1.18-1-2.5q0-.5,0-1 c 0-2,.65-3,2.22-3.19 l 2.3-.23 a 100.13,100.13,0,0,0,0,12.78 l -1.29.17 c -.16-1.74-.25-3.47-.29-5.21 l -.48.06 c -.63.08-.89.55-.82,1.74q.06,1,.15,2 a 6.73,6.73,0,0,1,0,1.59Z m 1.71-11.26 c -.53.06-.76.48-.76,1.4q0,.63,0,1.26 c 0,1,.35,1.32.87,1.26 l .55-.06 c 0-1.31,0-2.62,0-3.93Z" fill="param(main_colour)"/>
  </g>
  <g id="fixed-colours">
    <path d="M 292.16,285.22 c 7.84.9,14.21-.68,20.22-7.6 C 309.53,285.36,299.45,288.84,292.16,285.22Z" opacity="0.4"/>
    <path d="M 328.57,271.59 s -10.9-.76-16.2,4.54 C 316,271.13,323.12,269.47,328.57,271.59Z" opacity="0.2"/>
    <path d="M 316.61,269.16 a 8.63,8.63,0,0,0,8.33-2.12 A 20,20,0,0,1,316.61,269.16Z" opacity="0.2"/>
  </g>
<script type="text/ecmascript" xlink:href="param.min.js"/> 
</svg>
