<?xml version="1.0"?>
<svg xmlns="http://www.w3.org/2000/svg" xmlns:xlink="http://www.w3.org/1999/xlink" viewBox="0 0 600 600">
  <title>girl-power-slogan-curvy</title>
  <g id="main-colour">
    <path d="M 298.1,267.34 l 4,0 c 0,2.13-.13,4.26-.25,6.39-.18,3.22-1.69,5.09-4.37,5.15 s -4-1.78-4.06-5q0-5.3,0-10.6 c 0-3.26,1.45-5.12,4.18-5.09 s 4.39,1.88,4.48,5.09q0,1,0,2 h -2.73q0-1.08,0-2.17 c 0-1.44-.64-2-1.55-2 s -1.48.54-1.46,2 c 0,3.65,0,7.31-.1,11,0,1.45.51,2,1.4,1.95 s 1.47-.54,1.52-2q.07-1.86.13-3.73 H 298Q298.08,268.78,298.1,267.34Z" fill="param(main_colour)"/>
    <path d="M 303.67,258.43 l 2.81,0 c .76,6.64.14,13.33-.33,20 l -2.76.06 C 303.81,271.81,304.36,265.1,303.67,258.43Z" fill="param(main_colour)"/>
    <path d="M 314,278.3 a 6.53,6.53,0,0,1-.07-2.43 c .08-1,.16-2.07.23-3.11.13-1.84-.39-2.51-1.65-2.5 h -1 c -.15,2.7-.38,5.4-.59,8.09 l -2.77.06 c .5-6.65,1.15-13.32.36-19.94 l 4.23,0 c 2.9,0,4.33,1.53,4.39,4.56q0,.77,0,1.55 c 0,2-.63,3.35-1.88,4,1.34.64,1.72,2.13,1.58,4.19q-.1,1.52-.21,3 a 6.17,6.17,0,0,0,.14,2.39Z m -2.38-17 c .12,2,.13,4.06.07,6.1 h 1.08 c 1,0,1.68-.52,1.69-2.1q0-1,0-1.95 c 0-1.41-.5-2-1.49-2Z" fill="param(main_colour)"/>
    <path d="M 318.76,258.58 l 2.8,0 c .25,5.57,0,11.16-.31,16.75 l 4.53-.07-.06,2.77-7.41.15 C 318.73,271.66,319.25,265.1,318.76,258.58Z" fill="param(main_colour)"/>
    <path d="M 298.17,285.61q0,.82,0,1.64 c 0,2-.79,3.15-2.44,3.22 l -.78,0q0,2.39.07,4.78 l -1.71.08q0-6.37,0-12.74 l 2.44-.06 C 297.42,282.51,298.21,283.59,298.17,285.61Z m -3.22-1.22q0,2.15,0,4.3 l .77,0 c .52,0,.8-.32.8-1.22q0-1,0-1.9 c 0-.91-.27-1.19-.8-1.17Z" fill="param(main_colour)"/>
    <path d="M 298.88,285.5 c 0-2,1-3.2,2.64-3.24 s 2.51,1.08,2.45,3.08 c -.06,2.17-.05,4.34.07,6.52.11,2-.65,3.19-2.34,3.27 s -2.7-1-2.77-3.06 C 298.85,289.88,298.85,287.69,298.88,285.5Z m 1.73,6.62 c 0,.9.4,1.23.94,1.2 s .85-.38.8-1.28 c -.12-2.26-.12-4.52-.07-6.78,0-.9-.3-1.23-.84-1.21 s -.88.37-.9,1.27 C 300.5,287.59,300.51,289.86,300.61,292.12Z" fill="param(main_colour)"/>
    <path d="M 308.82,288 a 57.59,57.59,0,0,0-.26,6.66 l -2.35.11 a 76,76,0,0,1-1.41-12.46 l 1.66,0 a 82,82,0,0,0,.87,9.81,81.1,81.1,0,0,1,.88-9.85 l 1.66,0 a 79.88,79.88,0,0,0,.8,9.83,80.66,80.66,0,0,1,1-9.88 l 1.52,0 a 73.35,73.35,0,0,0-1.09,12.42 l -2.27.1 A 58.63,58.63,0,0,1,308.82,288Z" fill="param(main_colour)"/>
    <path d="M 315.6,287.21 l 2.43-.08q0,.88,0,1.75 l -2.42.09 c 0,1.2.05,2.4.12,3.6 l 3-.13q0,.88.1,1.75 l -4.67.22 a 76.79,76.79,0,0,1-.11-12.34 l 4.8-.13q0,.88-.08,1.75 l -3.05.09 C 315.65,284.93,315.62,286.07,315.6,287.21Z" fill="param(main_colour)"/>
    <path d="M 323.47,294 a 4,4,0,0,1-.17-1.49q0-1,0-1.91 c 0-1.13-.35-1.53-1.16-1.5 l -.62,0 c 0,1.66,0,3.31.07,5 l -1.72.08 a 121,121,0,0,1,0-12.23 l 2.69-.07 c 1.85,0,2.63.85,2.59,2.72 l 0,1 a 2.62,2.62,0,0,1-1.24,2.5 c .9.37,1.17,1.27,1.15,2.54q0,.94,0,1.87 a 3.87,3.87,0,0,0,.16,1.46Z m -1.83-10.37q-.06,1.87-.09,3.75 l .7,0 c .67,0,1.09-.35,1.11-1.32q0-.6,0-1.2 c 0-.87-.24-1.24-.88-1.22Z" fill="param(main_colour)"/>
  </g>
<script type="text/ecmascript" xlink:href="param.min.js"/> 
</svg>
