<?xml version="1.0"?>
<svg xmlns="http://www.w3.org/2000/svg" xmlns:xlink="http://www.w3.org/1999/xlink" viewBox="0 0 600 600">
  <title>honey-slogan-voluptuous</title>
  <g id="main-colour">
    <path d="M 293.54,283.52q0-1.1-.07-2.2 l .92,0 c -.11-3.67-.1-7.35-.19-11 l -1,0q0-1.1-.06-2.21 l 4-.13 c 0,.73.07,1.47.08,2.2 l -1,0 c 0,1.47,0,2.93,0,4.4 l 3.84-.15 c .07-1.46.13-2.92.11-4.39 l -1,0 c 0-.73,0-1.46-.09-2.19 l 3.92-.13 c .08.73.11,1.46.12,2.19 l -1,0 c 0,3.65-.53,7.3-.35,10.94 l .93,0 a 20.78,20.78,0,0,0,.22,2.18 l -3.74.18 c -.09-.73-.14-1.46-.18-2.19 l .92,0 c -.07-1.46,0-2.92,0-4.38 l -3.76.16 c 0,1.47,0,2.93.05,4.4 l .92,0 c 0,.73.08,1.46.15,2.2Z" fill="param(main_colour)"/>
    <path d="M 306.28,282.91 c -.6-.56-1.17-1.11-1.7-1.67-.28-3.92.6-7.86.48-11.79.51-.6,1-1.2,1.43-1.8 l 4.65-.15q.91.84,1.72,1.68 c .16,3.9-1.06,7.8-.81,11.7-.46.6-.89,1.2-1.28,1.8Z m .13-2.19,3.74-.17 c -.15-3.61.83-7.24.78-10.85 l -3.9.13 C 307.07,273.45,306.24,277.09,306.42,280.71Z" fill="param(main_colour)"/>
    <path d="M 314.14,282.53 c -1-5,1.33-10.09.48-15.13 l 1.93-.06 c 2.21,3.4,2.9,6.8,4.14,10.16.37-3.44,1.29-6.88.67-10.31 l 1.92-.06 c .89,5-1.42,10-.67,15 l -1.89.09 c -2.14-3.35-2.84-6.73-4.09-10.13-.35,3.45-1.24,6.91-.61,10.36Z" fill="param(main_colour)"/>
    <path d="M 324.5,282 c -.68-5,1.56-10,.69-15 l 7.67-.23 A 18.13,18.13,0,0,1,333,269 l -5.7.19 a 28.14,28.14,0,0,1-.32,4.27 l 3.83-.14 c -.09.71-.18,1.42-.28,2.13 l -3.85.15 a 34,34,0,0,0-.39,4.27 l 5.79-.25 c 0,.71,0,1.41,0,2.12Z" fill="param(main_colour)"/>
    <path d="M 333.8,266.81 l 1.92-.06 a 44.61,44.61,0,0,1,2.74,5.45 c 1.09-1.88,2.07-3.76,3-5.62 l 1.94-.06 c -1.39,2.48-2.68,5-4.18,7.49-.2,2.46-.41,4.92-.43,7.37 l -1.93.09 a 69.23,69.23,0,0,1,.46-7.39 A 50.33,50.33,0,0,0,333.8,266.81Z" fill="param(main_colour)"/>
  </g>
  <g id="fixed-colours">
    <path d="M 330.32,276.71 s -16.25-2.23-24.72,5.17 C 311.55,274.76,322.38,273,330.32,276.71Z" opacity="0.2"/>
    <path d="M 312.66,271.88 a 13,13,0,0,0,12.68-2.33 C 322.29,270.93,316,272.33,312.66,271.88Z" opacity="0.2"/>
    <path d="M 289.64,295.38 A 30,30,0,0,1,278,290.07 a 29.52,29.52,0,0,1-9-13.13 C 269.41,287.59,279.25,296,289.64,295.38Z" opacity="0.4"/>
  </g>
<script type="text/ecmascript" xlink:href="param.min.js"/> 
</svg>
