<?xml version="1.0"?>
<svg xmlns="http://www.w3.org/2000/svg" xmlns:xlink="http://www.w3.org/1999/xlink" viewBox="0 0 600 600">
  <title>honey-slogan-curvy</title>
  <g id="main-colour">
    <path d="M 328.37,282.13 c 0-.7.05-1.41.1-2.11 h 1 c .1-1.4.24-2.81.38-4.21 H 326 c -.17,1.41-.32,2.82-.4,4.23 h 1 c 0,.7-.06,1.41-.06,2.11 l -3.78,0 c 0-.71,0-1.41,0-2.12 h 1 c .16-3.53.92-7.07,1.09-10.6 h -.95 c 0-.71,0-1.41,0-2.12 l 3.85,0 c 0,.7,0,1.41-.07,2.11 h -.95 c -.08,1.41-.24,2.82-.41,4.23 H 330 c .15-1.4.29-2.81.39-4.21 h -.94 c 0-.7.09-1.41.11-2.11 l 3.85,0-.19,2.1 h -.94 c -.29,3.5-.66,7-1,10.51 h 1 l -.18,2.1Z" fill="param(main_colour)"/>
    <path d="M 314.77,282.23q-.85-.85-1.62-1.7 c 0-3.85,1.15-7.71,1.12-11.57q.76-.85,1.44-1.7 l 4.63,0 c .56.57,1.08,1.14,1.57,1.71-.08,3.83-1.08,7.65-1.14,11.48-.52.57-1,1.14-1.47,1.71Z M 320,269.42 l -3.82,0 c -.07,3.56-1.08,7.13-1.13,10.69 l 3.82,0 C 319,276.52,319.89,273,320,269.42Z" fill="param(main_colour)"/>
    <path d="M 309.48,282.26 c -.46-3.44.41-6.88.79-10.32-2,3.43-4.41,6.89-5.51,10.35 h -1.89 c -.7-5,1.38-10.11.65-15.15 l 1.94,0 c .5,3.45-.35,6.91-.71,10.37,1.94-3.46,4.41-6.91,5.54-10.33 l 1.93,0 c .64,5-1.51,10-.86,15Z" fill="param(main_colour)"/>
    <path d="M 293.45,282.37 c -.07-.73-.11-1.46-.11-2.18 l 5.62,0 a 35.7,35.7,0,0,1,.3-4.34 h -3.8 c .07-.73.15-1.45.22-2.18 h 3.84 a 34.61,34.61,0,0,0,.29-4.35 l -5.84,0 c 0-.73,0-1.46-.13-2.18 l 7.75.06 c .72,5.05-1.29,10.12-.6,15.18Z" fill="param(main_colour)"/>
    <path d="M 287.93,274.72 a 71.24,71.24,0,0,0-.13,7.69 h -1.88 c -.1-2.57,0-5.13.1-7.7-1.17-2.57-2.5-5.14-3.79-7.73 l 1.94,0 c 1,1.94,2,3.87,2.89,5.79,1-1.92,2.1-3.84,2.92-5.75 l 1.94,0 A 80.85,80.85,0,0,1,287.93,274.72Z" fill="param(main_colour)"/>
  </g>
<script type="text/ecmascript" xlink:href="param.min.js"/> 
</svg>
