<?xml version="1.0"?>
<svg xmlns="http://www.w3.org/2000/svg" xmlns:xlink="http://www.w3.org/1999/xlink" viewBox="0 0 600 600">
  <title>love-slogan-hourglass</title>
  <g id="main-colour">
    <path d="M 309.34,282 l -10,1.38-.05-.49,1.79-.25 c -.54-4.43-.67-8.87-1-13.32 l -1.91.22,0-.49,6.38-.74,0,.49-2,.23 c .34,4.44.28,8.86.9,13.29 l 2.32-.32 a 2.73,2.73,0,0,0,2.24-1.45,6.82,6.82,0,0,0,.61-3.23 l .57-.07 A 32.54,32.54,0,0,0,309.34,282Z" fill="param(main_colour)"/>
    <path d="M 320.28,278.63 a 5.46,5.46,0,0,1-3.76,2.73,4.86,4.86,0,0,1-4.22-1.67,6.73,6.73,0,0,1-1.88-5,9.31,9.31,0,0,1,1.77-5.38,5.66,5.66,0,0,1,4-2.7,5,5,0,0,1,4.28,1.72,6.35,6.35,0,0,1,1.67,4.93 A 10.25,10.25,0,0,1,320.28,278.63Z m -.81-7.51 a 4.82,4.82,0,0,0-.79-3.15,2.63,2.63,0,0,0-2.45-.83,2.83,2.83,0,0,0-2.28,1.38,6.88,6.88,0,0,0-.73,3.35 c 0,1.69-.1,3.38-.08,5.06 a 4.9,4.9,0,0,0,.9,3.15,2.51,2.51,0,0,0,2.4.8,2.66,2.66,0,0,0,2.14-1.4,7.4,7.4,0,0,0,.68-3.33 C 319.3,274.47,319.41,272.8,319.46,271.12Z" fill="param(main_colour)"/>
    <path d="M 332.15,265.64 c -.79,4.72-3.22,9.47-4.27,14.23 l -.56.07 c -1.94-4.38-2.51-8.8-4.46-13.24 l -1.55.18q0-.24-.05-.48 l 5.91-.67q0,.24.07.48 l -1.92.22 a 79.48,79.48,0,0,1,3.11,9.38 c 1.17-3.38,2.58-6.75,3.18-10.1 l -1.93.22q0-.24-.07-.48 l 4-.45q0,.24.07.48Z" fill="param(main_colour)"/>
    <path d="M 344.85,277.45,334,278.78q0-.24,0-.47 l 1.88-.23 c -.13-4.27.41-8.56-.12-12.84 l -1.83.21q0-.24-.07-.48 c 3.4-.38,6.81-.76,10.28-1.13.12,1.21.21,2.42.29,3.63 l -.51.06 a 3.86,3.86,0,0,0-1.29-2.43,3.64,3.64,0,0,0-2.37-.36 l -2.13.24 a 47.26,47.26,0,0,1,.24,6 l .5-.06 a 2.23,2.23,0,0,0,1.84-1,3.47,3.47,0,0,0,.43-1.82 l .51-.06 c .05,1.9,0,3.79.06,5.68 l -.53.06 a 3.56,3.56,0,0,0-.45-1.84 c -.31-.51-.93-.71-1.86-.6 l -.5.06 c 0,2.11-.09,4.23,0,6.34 l 2.56-.31 a 3.39,3.39,0,0,0,2.56-1.27,6.93,6.93,0,0,0,.94-3 l .54-.06Q344.86,275.27,344.85,277.45Z" fill="param(main_colour)"/>
  </g>
  <g id="fixed-colours">
    <path d="M 329.9,274.55 s -12-.83-17.83,5 C 316.07,274,323.9,272.21,329.9,274.55Z" opacity="0.2"/>
    <path d="M 316.73,271.88 a 9.5,9.5,0,0,0,9.17-2.33 C 323.73,270.71,319.23,272,316.73,271.88Z" opacity="0.2"/>
    <path d="M 275.9,284.25 c 10.5,12.13,21,14.63,34.13,11.25 C 298.38,302.39,282.36,297.84,275.9,284.25Z" opacity="0.4"/>
  </g>
<script type="text/ecmascript" xlink:href="param.min.js"/> 
</svg>
