<?xml version="1.0"?>
<svg xmlns="http://www.w3.org/2000/svg" xmlns:xlink="http://www.w3.org/1999/xlink" viewBox="0 0 600 600">
  <title>girl-power-slogan-hourglass</title>
  <g id="main-colour">
    <path d="M 307.77,271.23,312,271 c -.23,2.26-.53,4.52-.84,6.77-.48,3.41-2.12,5.46-4.71,5.68 s -3.85-1.64-3.71-5.11 c .15-3.76.26-7.52.09-11.29-.18-3.48,1.21-5.52,4.55-5.61 s 5.17,1.82,5,5.23q-.06,1-.14,2.08 l -3,.13q.06-1.15.08-2.3 c 0-1.53-.65-2.09-1.69-2.06 s -1.66.65-1.63,2.19 c .06,3.89-.18,7.78-.47,11.66-.11,1.54.39,2.05,1.27,2 s 1.49-.66,1.65-2.19 c .14-1.32.28-2.64.4-4 l -1.34.08Q307.69,272.77,307.77,271.23Z" fill="param(main_colour)"/>
    <path d="M 314.65,261.5 l 3.38-.09 c -.21,7-1.76,14.11-3.14,21.14 l -2.68.21 C 313.36,275.7,314.69,268.59,314.65,261.5Z" fill="param(main_colour)"/>
    <path d="M 322.48,282 a 7.75,7.75,0,0,1,.48-2.54q.47-1.63.93-3.27 c .55-1.93.14-2.61-1.21-2.54 l -1,.06 c -.67,2.84-1.41,5.68-2.12,8.52 l -2.69.21 c 1.54-7,3.27-14,3.65-21.05 l 5.11-.13 c 3.5-.08,4.83,1.44,4.07,4.62q-.19.81-.4,1.62 a 6.15,6.15,0,0,1-3.16,4.29 c 1.33.61,1.35,2.15.65,4.31q-.5,1.6-1,3.19 a 7.38,7.38,0,0,0-.5,2.49Z m 1-17.71 c -.3,2.14-.71,4.28-1.18,6.43 l 1.2-.06 c 1.14-.05,2-.62,2.38-2.29q.24-1,.45-2.05 c .31-1.49-.1-2.12-1.26-2.09Z" fill="param(main_colour)"/>
    <path d="M 332.87,261 l 3.39-.08 a 122.76,122.76,0,0,1-5.72,17.53 l 4.64-.31-1.25,2.9-7.21.55 C 329.09,274.76,331.63,267.88,332.87,261Z" fill="param(main_colour)"/>
    <path d="M 306.73,290.54q-.05.87-.09,1.73 c -.09,2.13-.78,3.37-2.19,3.54 l -.67.08 c 0,1.67.15,3.34.31,5 l -1.31.19 a 96.83,96.83,0,0,1-.49-13.4 l 2.32-.22 C 306.19,287.32,306.86,288.42,306.73,290.54Z m -2.93-1.09 c 0,1.51-.07,3-.05,4.53 l .68-.08 c .46-.05.71-.39.73-1.34q0-1,.06-2 c 0-1-.21-1.23-.7-1.18Z" fill="param(main_colour)"/>
    <path d="M 307.38,290.38 c .14-2.13,1.12-3.43,2.68-3.57 s 2.23,1,1.95,3.09 c -.29,2.28-.52,4.56-.65,6.84-.12,2.1-.82,3.39-2.12,3.58 s -2.07-.92-2.09-3 C 307.14,295,307.23,292.69,307.38,290.38Z m 1.14,6.85 c 0,.94.27,1.26.7,1.21 s .71-.45.74-1.39 c .08-2.37.27-4.74.53-7.12.11-.94-.16-1.27-.65-1.22 s -.84.44-.93,1.39 C 308.7,292.48,308.56,294.86,308.53,297.23Z" fill="param(main_colour)"/>
    <path d="M 315.89,292.42 c -.54,2.34-1,4.67-1.3,7 l -1.84.25 a 112.22,112.22,0,0,1,.37-13 l 1.55-.14 c -.34,3.43-.6,6.84-.66,10.24 a 96.92,96.92,0,0,1,2.28-10.39 l 1.54-.14 c -.49,3.43-.91,6.85-1.12,10.26 a 98.06,98.06,0,0,1,2.75-10.4 l 1.4-.13 A 89.61,89.61,0,0,0,317.36,299 l -1.79.25 C 315.58,297,315.7,294.72,315.89,292.42Z" fill="param(main_colour)"/>
    <path d="M 321.84,291.19 l 2.07-.22q-.25.92-.48,1.83 l -2,.23q-.42,1.88-.76,3.77 l 2.42-.31q-.19.91-.36,1.83 l -3.71.5 a 99.47,99.47,0,0,1,2.7-12.92 l 4.41-.39q-.3.92-.59,1.83 l -2.73.26Q322.28,289.4,321.84,291.19Z" fill="param(main_colour)"/>
    <path d="M 326.42,297.82 a 5.19,5.19,0,0,1,.26-1.54q.26-1,.55-2 c .34-1.18.19-1.58-.48-1.5 l -.51.06 c -.5,1.73-.94,3.46-1.32,5.18 l -1.37.18 a 103.13,103.13,0,0,1,3.55-12.78 l 2.45-.22 c 1.69-.15,2,.75,1.27,2.7 l -.37,1 a 5,5,0,0,1-1.9,2.68 c .61.34.53,1.27.12,2.58q-.3,1-.58,2 a 5,5,0,0,0-.26,1.52Z m 1.65-10.72q-.68,2-1.29,3.92 l .59-.06 c .56-.06,1-.42,1.36-1.44 l .44-1.25 c .33-.91.23-1.28-.34-1.23Z" fill="param(main_colour)"/>
  </g>
  <g id="fixed-colours">
    <path d="M 327.9,274.55 s -12-.83-17.83,5 C 314.07,274,321.9,272.21,327.9,274.55Z" opacity="0.2"/>
    <path d="M 314.73,271.88 a 9.5,9.5,0,0,0,9.17-2.33 C 321.73,270.71,317.23,272,314.73,271.88Z" opacity="0.2"/>
    <path d="M 276.22,285.38 A 26.12,26.12,0,0,0,291.39,294 a 32.68,32.68,0,0,0,12.5-.33 C 294.19,298.69,280.93,296.08,276.22,285.38Z" opacity="0.4"/>
  </g>
<script type="text/ecmascript" xlink:href="param.min.js"/> 
</svg>
