<?xml version="1.0"?>
<svg xmlns="http://www.w3.org/2000/svg" xmlns:xlink="http://www.w3.org/1999/xlink" viewBox="0 0 215 215">
  <title>professionally-pink-curvy</title>
  <g id="skin-tone">
    <path d="M 109.29,163.29 a 9.91,9.91,0,0,0-4.86.89 c .43,2.06.73,3.76.81,4.63.19,2.25-.39,7.18,3.43,7.82 s 5.75-2,5.63-5.64 c 0-1.4,0-3.9,0-6.83 A 15.26,15.26,0,0,0,109.29,163.29Z" fill="param(skin_tone)"/>
  </g>
  <g id="main-colour">
    <path d="M 101.88,153.5 l .47,1.69 a 15.36,15.36,0,0,1,6.07-1.25,14.74,14.74,0,0,1,6.22,1.13 c .19-2.1.44-4.55.58-5.57.86-6.62,3.06-18.81,3.19-25.18.12-6.08-1.83-16.28-5-20.75 a 7.13,7.13,0,0,0-.46-.61 h 0 a 7.05,7.05,0,0,0-9.93-.88 h 0 s -2.81,1.29-4.94,8-2.21,18.41-.87,25.6 S 100.45,148.24,101.88,153.5Z" fill="param(main_colour)"/>
  </g>
  <g id="accent-colour-2">
    <path d="M 104.42,167 a 3.82,3.82,0,0,1-3.44-1 c -1.56-1.5.44-4.5.44-4.5 a 3.5,3.5,0,0,1-.31-5 c 2.25-2.81,6.88-2.87,9.81-2.5 s 8.06,2.75,5.38,7.25 c 1.06,1.44,1.88,4.19-2.25,4.69-.06-1.06-.06-2-.06-2 s -5.56-2.44-9.44.56Z" fill="param(accent_colour_2)"/>
  </g>
  <g id="outline">
    <path d="M 113,103.12 c .54.7,2.54,3.89,4,14.32,1.41,7.75-1.65,24.83-2.71,31.08-.25,1.46-.45,3.44-.61,5.63 a 14.87,14.87,0,0,0-5.25-.86,13.23,13.23,0,0,0-5.7,1.08 c -1.21-4.69-2.41-9-3.08-11.57-1.66-6.29-3.74-17-1.81-27.89 S 103,102.08,103,102.08 c -1.36,0-2.89,1.52-4.06,3.86-2,3.67-3.71,9.24-4,18.74 s 3.1,19.16,6.17,30.81 a 4.56,4.56,0,0,0-1.58,3.43,3.14,3.14,0,0,0,1.24,2.76 A 5.28,5.28,0,0,0,100,163 c -.89,2.39.15,4.54,3.78,4.51 a 51.47,51.47,0,0,1,.71,5.1 h 0 c 0,.06,0,.12,0,.18 a 5.31,5.31,0,0,0,5.32,5.16 H 110 a 5.34,5.34,0,0,0,5.16-5.51 s -.21-2.41-.21-6 c 2.19-.56,3.16-1.9,2.87-3.72 a 3,3,0,0,0-.72-1.42 c 1.12-2.65.43-4.76-1.46-6.15.59-5.92,1.42-10.34,2.55-17.73 C 119.56,128.75,121.52,112.75,113,103.12Z m .14,69.51 A 3.33,3.33,0,0,1,110,176 h -.11 a 3.33,3.33,0,0,1-3.33-3.22,29.84,29.84,0,0,0-.44-3.84v0 h 0 c -.23-1.38-.54-3-.9-4.61 a 15.11,15.11,0,0,1,8.1-.18 c -.11,4.06-.13,7.46-.09,8.43 h 0v.11Z M 116,160.32 a 7.91,7.91,0,0,0-4.68-1.13 c 3.5.44,5.5,2.88,5.38,4.38-.07.85-1,1.39-1.68,1.68,0-.22,0-.45,0-.68 l .33.1 c -1-2.54-11.2-2.79-12.49.67 a 5.54,5.54,0,0,1,.51-.3q.15.76.28,1.45 a 3.14,3.14,0,0,1-2-.79 c -1.25-1.06-.75-5.25,4.88-6.44 a 8.23,8.23,0,0,0-4.9,1.52,2.45,2.45,0,0,1-.35-3.27 c 1.29-2.42,5-2.79,7.08-2.83 s 5.58.08,7.38,2.13 A 2.72,2.72,0,0,1,116,160.32Z"/>
  </g>
<script type="text/ecmascript" xlink:href="param.min.js"/> 
</svg>
