<?xml version="1.0"?>
<svg xmlns="http://www.w3.org/2000/svg" xmlns:xlink="http://www.w3.org/1999/xlink" viewBox="0 0 250 250">
  <title>curvy-bottoms-template</title>
  <g id="skin-tone">
    <path d="M 135.31,128.9 c 2.17-5.17-.33-11.33-5.83-14 s -10.5.5-12.5,2.67-4,5.6-10.83,12.5-11.83,17-13,31.33,6.33,32.83,10.17,38.67,6.49,12.31,9.49,20.3 l 0,0 c .89,2.64,1.56,5,2,6.61.92,3.42,2.32,3.95,2.32,3.95 h 0 a 4.74,4.74,0,0,0,7.83-1.41 h 0 c 1.72-1.37,1.59-5.4,1-10.81 l -.43-.22.14-.12-1.33-19.5 c -.33-5.17-1-12,.19-28.18 S 133.14,134.07,135.31,128.9Z" fill="param(skin_tone)"/>
  </g>
  <g id="outline">
    <path d="M 129.87,149.48 c 2.45-9,4.53-15.58,6-19.25 a 11.9,11.9,0,0,0,1.14-4,10.24,10.24,0,0,0,.08-1.21 h 0 a 12,12,0,0,0-22-6.76 h 0 a 132.06,132.06,0,0,1-9.9,10.77 c -3.37,3.4-13.13,15.6-13.37,34.35 s 8.91,34.67,13,41.17,8.28,19.27,9.1,22.27,1.56,3.88,3.25,4.18 a 5.74,5.74,0,0,1-1.29-3.24 c -.47-4.75-6.15-19.75-11.77-29 s -11.54-27.87-9.16-42.5,10.91-24,14.53-27.83 c 1.22-1.29,2.5-2.79,3.61-4.14 h 0 l .69-.85 c 1.45-1.8,2.48-3.18,2.49-3.2 h 0 a 10.05,10.05,0,0,1,18.34,8.06 h 0 s -7.43,17.6-10.26,35.42-.5,43.5,0,49.67,1.82,14.55.66,16.2 c 2-1.2,2.34-3.24,2.09-7 a 333.86,333.86,0,0,1-1.85-38.23 C 125.5,165.35,127.37,158.73,129.87,149.48Z"/>
  </g>
<script type="text/ecmascript" xlink:href="param.min.js"/> 
</svg>
