<?xml version="1.0"?>
<svg xmlns="http://www.w3.org/2000/svg" xmlns:xlink="http://www.w3.org/1999/xlink" viewBox="0 0 600 600">
  <title>sassy-slogan-hourglass</title>
  <g id="main-colour">
    <path d="M 324.33,262.66 a 2.07,2.07,0,0,1,.48-1.46,1.91,1.91,0,0,1,1.4-.59,2.86,2.86,0,0,1,.88.11,1.72,1.72,0,0,1,.64.36,1.83,1.83,0,0,1,.4.56,2.1,2.1,0,0,1,.14.81,19.77,19.77,0,0,1-.06,2.25,15.64,15.64,0,0,1-.34,1.85,11.87,11.87,0,0,1-.46,1.56 c -.18.49-.54,1.44-.54,1.44-.18.47-.33.93-.51,1.44 a 16.85,16.85,0,0,0-.56,2.29,14.72,14.72,0,0,0-.23,2.91,1,1,0,0,0,.22.7.85.85,0,0,0,.74.23,1.05,1.05,0,0,0,.75-.34,1.27,1.27,0,0,0,.22-.73q0-1.73,0-3.45 l 1-.07q0,1.72,0,3.45 a 2,2,0,0,1-2,2.06,2.68,2.68,0,0,1-.87-.06,2.53,2.53,0,0,1-.64-.34,1.88,1.88,0,0,1-.41-.58,1.93,1.93,0,0,1-.15-.79,17.29,17.29,0,0,1,.06-2.26,14.59,14.59,0,0,1,.36-1.86,11.79,11.79,0,0,1,.48-1.59 c .12-.31.23-.6.33-.93 a 20.31,20.31,0,0,0,.73-1.95,16,16,0,0,0,.54-2.28,15,15,0,0,0,.21-2.89,1,1,0,0,0-.22-.7.88.88,0,0,0-.73-.26,1,1,0,0,0-.74.34,1.17,1.17,0,0,0-.22.73 c 0,1.15,0,2.3,0,3.45 l -1,.06 C 324.36,265,324.36,263.81,324.33,262.66Z" fill="param(main_colour)"/>
    <path d="M 316.6,278.58 c 0-5.88,1.44-11.77,1.32-17.64 l 1-.05 c 1,5.82.61,11.63,1.41,17.4 l -1,.07 c -.14-1-.24-2-.32-3 l -1.3.09 c -.07,1-.12,2-.13,3Z m 2-11.34 c -.25,2.38-.57,4.77-.78,7.15 l 1.13-.08 C 318.75,272,318.69,269.6,318.57,267.24Z" fill="param(main_colour)"/>
    <path d="M 308.42,263.54 a 2.13,2.13,0,0,1,.44-1.49,1.81,1.81,0,0,1,1.37-.61,2.87,2.87,0,0,1,.89.11,1.9,1.9,0,0,1,.67.36,2,2,0,0,1,.44.58,2.13,2.13,0,0,1,.19.83,14.63,14.63,0,0,1,0,2.3,14.15,14.15,0,0,1-.36,1.9,11.68,11.68,0,0,1-.5,1.6 l -.59,1.47 c -.19.47-.35.95-.54,1.47 a 15,15,0,0,0-.58,2.34,12.46,12.46,0,0,0-.15,3,1.09,1.09,0,0,0,.26.71.86.86,0,0,0,.74.23.94.94,0,0,0,.72-.35,1.31,1.31,0,0,0,.17-.74 c -.06-1.18-.06-2.35,0-3.53 l 1-.07 c 0,1.18,0,2.35,0,3.52 a 2.12,2.12,0,0,1-.43,1.47,1.79,1.79,0,0,1-1.34.64,2.58,2.58,0,0,1-.86-.06,2.64,2.64,0,0,1-.66-.35,2.11,2.11,0,0,1-.44-.59,2.06,2.06,0,0,1-.19-.81,14.81,14.81,0,0,1,0-2.31,13.6,13.6,0,0,1,.35-1.91,11.21,11.21,0,0,1,.5-1.63 c .13-.32.24-.61.35-1,.28-.62.54-1.29.78-2 a 15.21,15.21,0,0,0,.59-2.33,12.54,12.54,0,0,0,.17-3,1,1,0,0,0-.26-.72.92.92,0,0,0-.75-.27,1,1,0,0,0-.73.35,1.19,1.19,0,0,0-.2.74 c .06,1.17.06,2.35,0,3.52 l -1,.06 C 308.48,265.89,308.48,264.72,308.42,263.54Z" fill="param(main_colour)"/>
    <path d="M 300.08,264 a 2.15,2.15,0,0,1,.46-1.51,1.86,1.86,0,0,1,1.4-.62,2.85,2.85,0,0,1,.89.11,1.85,1.85,0,0,1,.67.37,2,2,0,0,1,.44.58,2.16,2.16,0,0,1,.19.84,15.75,15.75,0,0,1,0,2.32,14.86,14.86,0,0,1-.35,1.92,12.27,12.27,0,0,1-.48,1.61 l -.56,1.49 c -.18.48-.33,1-.51,1.49 a 15.3,15.3,0,0,0-.52,2.36,13.45,13.45,0,0,0-.1,3,1.14,1.14,0,0,0,.27.72.86.86,0,0,0,.74.24.91.91,0,0,0,.71-.35,1.34,1.34,0,0,0,.16-.75 c -.08-1.19-.11-2.38-.11-3.57 l 1-.07 c 0,1.19,0,2.38.1,3.56 a 2.13,2.13,0,0,1-.4,1.49,1.75,1.75,0,0,1-1.33.65,2.57,2.57,0,0,1-.86-.07,2.63,2.63,0,0,1-.66-.35,2,2,0,0,1-.64-1.41,16.29,16.29,0,0,1,0-2.33,14.16,14.16,0,0,1,.3-1.93,11.32,11.32,0,0,1,.45-1.64 c .12-.32.22-.62.32-1,.26-.62.51-1.31.74-2 a 16.49,16.49,0,0,0,.55-2.36,13.44,13.44,0,0,0,.16-3,1,1,0,0,0-.26-.72.92.92,0,0,0-.76-.27,1,1,0,0,0-.74.36,1.2,1.2,0,0,0-.2.75 c .05,1.19.07,2.38.07,3.56 l -1,.06 C 300.16,266.4,300.14,265.21,300.08,264Z" fill="param(main_colour)"/>
    <path d="M 292.65,262.32 c .49,2.08,1,4.15,1.4,6.22.32-2.12.63-4.23.89-6.35 l 1-.06 c -.36,3-.87,6.08-1.33,9.12.07,3,.15,6,.37,9 l -1,.08 c -.2-3-.29-6-.38-9-.62-3-1.31-6-2-9Z" fill="param(main_colour)"/>
  </g>
<script type="text/ecmascript" xlink:href="param.min.js"/> 
</svg>
