<?xml version="1.0"?>
<svg xmlns="http://www.w3.org/2000/svg" xmlns:xlink="http://www.w3.org/1999/xlink" viewBox="0 0 250 250">
  <title>voluptuous-bottoms-template</title>
  <g id="skin-tone">
    <path d="M 137.92,120.92 c -1.58-4.42-5.92-8.83-11.58-9.33 s -8.83,2.5-11.92,5.08-7.58,7.75-10.17,10.42-6.64,6.22-10.52,14.1 C 88.8,151.2,89,166.92,91.58,177 s 8.58,20.33,11.17,25.17 C 104.8,206,108.63,214.5,111,220 h 0 c .55,1.26,1.2,2.74,1.53,3.54 a 26.49,26.49,0,0,0,3.61,6.46 h 0 a 4.73,4.73,0,0,0,8.5-.5 h 0 c .55-.62,1.28-3,1.12-6.63,0-1-.16-3-.26-4.89 h 0 c -.23-4.46-.53-10.14-.59-13-.08-4.17-.33-13.58-.08-23.67 s 3-26.08,4.67-31.5,4.92-12.25,7.33-17.67 S 138.5,123,137.92,120.92Z" fill="param(skin_tone)"/>
  </g>
  <g id="outline">
    <path d="M 139.5,125 a 14.48,14.48,0,0,0-26.2-8.53 c -1.22,1.23-7.5,7.56-12.88,12.74-6.63,6.38-11.85,16.05-11.88,30.25 a 70.17,70.17,0,0,0,8.84,35 c 6.34,11.63,10.41,19.63,11.91,23.38 S 113.67,229,116.11,230 c -1.18-2.37-4.34-11.53-8.16-20.13 C 101.37,195,95,190,91.75,169.83 c -3.75-22.91,6.5-35.67,13.83-42.67,4.1-3.92,9.91-10.28,9.92-10.29 h 0 a 12.49,12.49,0,0,1,21.75,10.57 h 0v0 a 12.34,12.34,0,0,1-.42,1.52 c -.21.7-.5,1.63-.88,2.69-.89,2.39-2.36,5.92-4.79,10.89-5.5,11.25-7.5,34.13-7.5,45.25 s .38,25.63.75,30.13,1,10.21.22,11.51 c 2-1.51,2.16-8,1.66-13.63 s -.75-26.62-.12-39.37 a 116.7,116.7,0,0,1,6.13-31.75 c 2.5-6.87,6.87-13.89,7-17.26 h 0 A 14.41,14.41,0,0,0,139.5,125Z"/>
  </g>
<script type="text/ecmascript" xlink:href="param.min.js"/> 
</svg>
