<?xml version="1.0"?>
<svg xmlns="http://www.w3.org/2000/svg" xmlns:xlink="http://www.w3.org/1999/xlink" viewBox="0 0 600 600">
  <title>love-slogan-slender</title>
  <g id="main-colour">
    <path d="M 311.81,278.1 l -9.07,1.25,0-.44,1.62-.22 c -.49-4-.6-8-.95-12 l -1.72.2,0-.45,5.77-.67,0,.44-1.81.21 c .3,4,.25,8,.81,12 l 2.1-.29 a 2.46,2.46,0,0,0,2-1.31,6.18,6.18,0,0,0,.56-2.92 l .51-.07 A 29.4,29.4,0,0,0,311.81,278.1Z" fill="param(main_colour)"/>
    <path d="M 321.7,275 a 4.93,4.93,0,0,1-3.4,2.47,4.39,4.39,0,0,1-3.82-1.51,6.07,6.07,0,0,1-1.7-4.48,8.41,8.41,0,0,1,1.6-4.87,5.12,5.12,0,0,1,3.61-2.44,4.55,4.55,0,0,1,3.87,1.55,5.74,5.74,0,0,1,1.51,4.46 A 9.27,9.27,0,0,1,321.7,275Z m -.74-6.79 a 4.35,4.35,0,0,0-.71-2.85,2.38,2.38,0,0,0-2.21-.75,2.56,2.56,0,0,0-2.06,1.24,6.22,6.22,0,0,0-.66,3 c 0,1.53-.09,3.05-.08,4.57 a 4.43,4.43,0,0,0,.82,2.85,2.27,2.27,0,0,0,2.16.72,2.4,2.4,0,0,0,1.94-1.26,6.65,6.65,0,0,0,.62-3 C 320.81,271.29,320.92,269.78,321,268.26Z" fill="param(main_colour)"/>
    <path d="M 332.43,263.31 c -.71,4.27-2.91,8.56-3.86,12.86 l -.5.06 c -1.75-4-2.26-8-4-12 l -1.4.16q0-.22,0-.44 l 5.34-.61q0,.22.06.43 l -1.73.2 a 71.79,71.79,0,0,1,2.81,8.48,62.85,62.85,0,0,0,2.87-9.13 l -1.74.2q0-.22-.06-.43 l 3.63-.41q0,.21.06.43Z" fill="param(main_colour)"/>
    <path d="M 343.9,274 l -9.82,1.2q0-.21,0-.43 l 1.7-.21 c -.11-3.86.37-7.73-.11-11.6 l -1.65.19q0-.21-.06-.43 l 9.29-1 c .11,1.09.19,2.19.26,3.28 L 343,265 a 3.48,3.48,0,0,0-1.17-2.19,3.29,3.29,0,0,0-2.14-.32 l -1.93.21 a 42.71,42.71,0,0,1,.22,5.42 l .45-.05 a 2,2,0,0,0,1.66-.86,3.15,3.15,0,0,0,.38-1.64 l .46-.05 c 0,1.71,0,3.42.05,5.14 l -.48.06 a 3.22,3.22,0,0,0-.4-1.66 c -.28-.46-.84-.64-1.68-.54 l -.45.05 c 0,1.91-.08,3.82,0,5.73 l 2.31-.28 a 3.06,3.06,0,0,0,2.32-1.15,6.27,6.27,0,0,0,.85-2.75 l .49-.06Q343.91,272,343.9,274Z" fill="param(main_colour)"/>
  </g>
  <g id="fixed-colours">
    <path d="M 289.35,285.05 A 29.19,29.19,0,0,0,311,289.76 C 304.17,293.63,294,291.6,289.35,285.05Z" opacity="0.4"/>
    <path d="M 332.15,270.58 s -13.31-.92-19.78,5.55 C 316.81,270,325.49,268,332.15,270.58Z" opacity="0.2"/>
    <path d="M 317.55,267.62 A 10.54,10.54,0,0,0,327.71,265 C 325.31,266.33,320.32,267.81,317.55,267.62Z" opacity="0.2"/>
  </g>
<script type="text/ecmascript" xlink:href="param.min.js"/> 
</svg>
