<?xml version="1.0"?>
<svg xmlns="http://www.w3.org/2000/svg" xmlns:xlink="http://www.w3.org/1999/xlink" viewBox="0 0 600 600">
  <title>sassy-slogan-slender</title>
  <g id="main-colour">
    <path d="M 336.43,261.22 a 2.08,2.08,0,0,1,.38-1.49,1.86,1.86,0,0,1,1.35-.67,2.86,2.86,0,0,1,.88.06,1.72,1.72,0,0,1,.67.32,1.8,1.8,0,0,1,.44.54,2.06,2.06,0,0,1,.19.8,18.76,18.76,0,0,1,.06,2.24,16,16,0,0,1-.25,1.87,11.51,11.51,0,0,1-.38,1.58 c -.15.5-.47,1.46-.48,1.46-.16.47-.29.94-.45,1.46 a 16.82,16.82,0,0,0-.47,2.31,14.51,14.51,0,0,0-.11,2.91,1,1,0,0,0,.26.68.87.87,0,0,0,.76.19,1.09,1.09,0,0,0,.75-.38,1.26,1.26,0,0,0,.19-.74q-.08-1.72-.15-3.44 l 1-.13q.08,1.72.17,3.43 a 2,2,0,0,1-.48,1.46,2.13,2.13,0,0,1-1.42.7,2.79,2.79,0,0,1-.89,0,2.54,2.54,0,0,1-.66-.31,1.87,1.87,0,0,1-.43-.55,1.9,1.9,0,0,1-.18-.78,16.8,16.8,0,0,1,0-2.25,14.48,14.48,0,0,1,.29-1.87,11.83,11.83,0,0,1,.42-1.61 c .11-.32.2-.61.29-.94 a 20,20,0,0,0,.64-2,15.35,15.35,0,0,0,.43-2.3,14.22,14.22,0,0,0,0-2.89,1,1,0,0,0-.27-.69.88.88,0,0,0-.75-.22,1,1,0,0,0-.71.38,1.17,1.17,0,0,0-.17.74 c .1,1.15.16,2.29.2,3.44 l -1,.12 C 336.59,263.51,336.53,262.36,336.43,261.22Z" fill="param(main_colour)"/>
    <path d="M 329.28,277.51 c -.18-5.88,1.19-11.77.67-17.65 l 1-.11 c 1.37,5.77,1.08,11.54,2.09,17.26 l -1,.13 c -.17-1-.3-2-.42-2.94 l -1.31.17 c 0,1-.06,2,0,3Z m 1.64-11.4 c -.16,2.39-.42,4.77-.57,7.16 l 1.13-.14 C 331.25,270.79,331.13,268.46,330.92,266.11Z" fill="param(main_colour)"/>
    <path d="M 320.64,263 a 2.18,2.18,0,0,1,.38-1.52,1.82,1.82,0,0,1,1.34-.69,2.83,2.83,0,0,1,.89.06,1.85,1.85,0,0,1,.68.33,2,2,0,0,1,.47.55,2.11,2.11,0,0,1,.23.82,13.92,13.92,0,0,1,.08,2.29,13.71,13.71,0,0,1-.3,1.91,11.72,11.72,0,0,1-.46,1.62 l -.55,1.5 c -.18.48-.33,1-.51,1.49 a 14.61,14.61,0,0,0-.52,2.36,12,12,0,0,0-.05,3,1.08,1.08,0,0,0,.29.7.86.86,0,0,0,.75.19,1,1,0,0,0,.7-.38,1.34,1.34,0,0,0,.14-.75 c -.1-1.17-.14-2.34-.15-3.51 l 1-.13 c 0,1.17,0,2.34.14,3.51 a 2.16,2.16,0,0,1-.38,1.5,1.84,1.84,0,0,1-1.32.72,2.58,2.58,0,0,1-.86,0,2.61,2.61,0,0,1-.67-.31,1.89,1.89,0,0,1-.69-1.36,14,14,0,0,1-.09-2.3,13.08,13.08,0,0,1,.29-1.92,11,11,0,0,1,.45-1.64 c .12-.32.22-.62.33-1,.26-.63.51-1.32.73-2 a 15,15,0,0,0,.52-2.35,11.9,11.9,0,0,0,.07-3,1,1,0,0,0-.29-.7.91.91,0,0,0-.76-.23,1,1,0,0,0-.71.39,1.22,1.22,0,0,0-.17.76 c .1,1.17.14,2.34.15,3.51 l -1,.12 C 320.77,265.35,320.73,264.18,320.64,263Z" fill="param(main_colour)"/>
    <path d="M 312.29,264 a 2.19,2.19,0,0,1,.42-1.54,1.92,1.92,0,0,1,1.38-.7,2.85,2.85,0,0,1,.9.06,1.78,1.78,0,0,1,.68.33,1.88,1.88,0,0,1,.46.55,2.12,2.12,0,0,1,.21.83,15.44,15.44,0,0,1,.06,2.32,15.19,15.19,0,0,1-.3,1.93,12.55,12.55,0,0,1-.44,1.63 l -.52,1.51 c -.17.49-.3,1-.47,1.51 a 14.43,14.43,0,0,0-.44,2.38,12.58,12.58,0,0,0,0,3,1.14,1.14,0,0,0,.3.7.85.85,0,0,0,.75.19.92.92,0,0,0,.68-.39,1.36,1.36,0,0,0,.12-.76 c -.14-1.18-.21-2.37-.26-3.55 l 1-.13 c 0,1.18.11,2.36.24,3.54 a 2.17,2.17,0,0,1-.32,1.51,1.73,1.73,0,0,1-1.28.73,2.56,2.56,0,0,1-.86,0,2.71,2.71,0,0,1-.68-.31,2,2,0,0,1-.72-1.37,15,15,0,0,1-.16-2.32,13.41,13.41,0,0,1,.22-1.94,11,11,0,0,1,.4-1.66 c .11-.33.2-.63.29-1,.25-.64.47-1.33.68-2 a 16.53,16.53,0,0,0,.5-2.38,13.25,13.25,0,0,0,.08-3,1,1,0,0,0-.28-.71.91.91,0,0,0-.77-.23,1,1,0,0,0-.73.4,1.24,1.24,0,0,0-.18.76 c .09,1.18.14,2.37.17,3.55 l -1,.12 C 312.43,266.34,312.38,265.15,312.29,264Z" fill="param(main_colour)"/>
    <path d="M 304.74,262.71 c .58,2,1.14,4.09,1.65,6.12.24-2.13.48-4.26.66-6.39 l 1-.12 c -.26,3.06-.67,6.12-1,9.18.18,3,.37,6,.79,9 l -1,.14 c -.39-3-.59-6-.8-9-.73-2.93-1.52-5.88-2.37-8.83Z" fill="param(main_colour)"/>
  </g>
  <g id="fixed-colours">
    <path d="M 289.35,285.05 A 29.19,29.19,0,0,0,311,289.76 C 304.17,293.63,294,291.6,289.35,285.05Z" opacity="0.4"/>
    <path d="M 332.15,270.58 s -13.31-.92-19.78,5.55 C 316.81,270,325.49,268,332.15,270.58Z" opacity="0.2"/>
    <path d="M 317.55,267.62 A 10.54,10.54,0,0,0,327.71,265 C 325.31,266.33,320.32,267.81,317.55,267.62Z" opacity="0.2"/>
  </g>
<script type="text/ecmascript" xlink:href="param.min.js"/> 
</svg>
