<?xml version="1.0"?>
<svg xmlns="http://www.w3.org/2000/svg" xmlns:xlink="http://www.w3.org/1999/xlink" viewBox="0 0 600 600">
  <title>love-slogan-hourglass</title>
  <g id="main-colour">
    <path d="M 330.51,274.65 l .6-.07 a 4.46,4.46,0,0,0,.82,3,2.7,2.7,0,0,0,2.58.81 l 2.5-.29 c -.1-4.31.21-8.64-.19-13 l -2,.2q0-.24-.06-.48 l 6.28-.64,0,.48-1.88.19 c .29,4.31.15,8.63.26,12.93 l 1.93-.22v.48 l -10.75,1.24 C 330.55,277.76,330.52,276.21,330.51,274.65Z" fill="param(main_colour)"/>
    <path d="M 317.31,273.82 a 10.37,10.37,0,0,1,1.93-5.42,5.47,5.47,0,0,1,3.91-2.65,5.18,5.18,0,0,1,4.35,1.78,6.45,6.45,0,0,1,1.74,4.95,9.52,9.52,0,0,1-2,5.36,5.9,5.9,0,0,1-4,2.68,4.88,4.88,0,0,1-4.26-1.72 A 6.37,6.37,0,0,1,317.31,273.82Z M 320,276 a 4.69,4.69,0,0,0,.77,3.17,2.49,2.49,0,0,0,2.41.82,2.94,2.94,0,0,0,2.3-1.39,7,7,0,0,0,.82-3.33 c .08-1.68.2-3.37.23-5.05 a 4.73,4.73,0,0,0-.85-3.17,2.65,2.65,0,0,0-2.46-.86 A 2.77,2.77,0,0,0,321,267.6 a 7.65,7.65,0,0,0-.72,3.35 C 320.2,272.65,320.06,274.34,320,276Z" fill="param(main_colour)"/>
    <path d="M 305.39,268.48q0-.25,0-.5 l 4.2-.45 c 0,.16,0,.33,0,.49 l -2,.22 c 1.32,3.24,2.08,6.47,3.18,9.68,1-3.47,2.55-6.94,3.35-10.39 l -2,.21q0-.25,0-.49 l 6-.65q0,.24.06.49 l -1.58.17 c -1.07,4.85-3.7,9.73-4.33,14.62 l -.55.07 c -2.23-4.51-2.89-9.07-4.73-13.65Z" fill="param(main_colour)"/>
    <path d="M 294.68,279.14 l .52-.07 a 6.81,6.81,0,0,0,1.23,3,2.73,2.73,0,0,0,2.58.7 l 2.45-.32 a 56.66,56.66,0,0,1-.48-6.66 l -.5.06 a 2.09,2.09,0,0,0-1.83,1.09,4.28,4.28,0,0,0-.32,2 l -.51.06 c -.14-2-.23-4-.34-6 L 298,273 a 3.51,3.51,0,0,0,.55,1.81 c .32.49.95.67,1.89.56 l .5-.06 c -.05-2.1-.08-4.2-.22-6.3 l -2.25.24 a 4,4,0,0,0-2.39.92,4.76,4.76,0,0,0-1,2.86 l -.53.06q-.09-1.95-.19-3.89 L 305.14,268q0,.25,0,.5 l -1.92.21 c .29,4.48-.11,9,.55,13.43 l 1.81-.23q0,.25.08.49 l -10.46,1.35 C 295,282.22,294.85,280.68,294.68,279.14Z" fill="param(main_colour)"/>
  </g>
  <g id="fixed-colours">
    <path d="M 327.9,274.55 s -12-.83-17.83,5 C 314.07,274,321.9,272.21,327.9,274.55Z" opacity="0.2"/>
    <path d="M 314.73,271.88 a 9.5,9.5,0,0,0,9.17-2.33 C 321.73,270.71,317.23,272,314.73,271.88Z" opacity="0.2"/>
    <path d="M 276.22,285.38 A 26.12,26.12,0,0,0,291.39,294 a 32.68,32.68,0,0,0,12.5-.33 C 294.19,298.69,280.93,296.08,276.22,285.38Z" opacity="0.4"/>
  </g>
<script type="text/ecmascript" xlink:href="param.min.js"/> 
</svg>
