<?xml version="1.0"?>
<svg xmlns="http://www.w3.org/2000/svg" xmlns:xlink="http://www.w3.org/1999/xlink" viewBox="0 0 250 250">
  <title>three-quarter-jeans-curvy</title>
  <g id="skin-tone">
    <path d="M 110,170.48 c -6.37-1.17-9.48-2.25-13.62-5.08.83,14.75,7.06,27.25,9.5,33.5,2.83,7.25,4.17,13,6.89,21.5 h 0 c .83,2.51,1.52,5,1.94,6.62.92,3.42,2.32,3.95,2.32,3.95 h 0 a 4.74,4.74,0,0,0,7.83-1.41 h 0 c 1.73-1.37,1.29-6.63.71-12.07 l 0,0-1.27-18.61 c -.33-5.17-1-12,.19-28.18,0-.59.1-1.19.16-1.79 A 27.78,27.78,0,0,1,110,170.48Z" fill="param(skin_tone)"/>
  </g>
  <g id="main-colour">
    <path d="M 108.86,170.32 c 8,1.51,0,0,0,0 A 33.53,33.53,0,0,0,126,168.55 s .52-3.31,1.44-8.81 c -.5.17-1,.32-1.49.47 a 184.47,184.47,0,0,1,9.34-31.3 c 2.17-5.17-.33-11.33-5.83-14 s -10.5.5-12.5,2.67-3.7,7.73-9.91,15.21 c -5.19,6.25-7.75,12.06-9.87,22 a 8.4,8.4,0,0,1-1.62-1.62,38.61,38.61,0,0,0-.87,11 A 37.88,37.88,0,0,0,108.86,170.32Z" fill="param(main_colour)"/>
  </g>
  <g id="fixed-colours">
    <path d="M 96,153.82 s 15.53,12.75,31.06,6 c -.75,4.5-1.42,8.92-1.42,8.92 a 33.41,33.41,0,0,1-30.78-4.67 C 93.75,159,96,153.82,96,153.82Z" fill="#fff" opacity="0.7"/>
    <path d="M 101,155.27 a 46.79,46.79,0,0,1,2.06-6.69,50.44,50.44,0,0,1,4.14-9 c 2.33-4.17,5.75-8.5,6.58-11.67,0,0-4.05,6.47-6.83,10.75 a 45.53,45.53,0,0,0-4.06,8.07 C 102,149.38,100.89,153.13,101,155.27Z" opacity="0.5"/>
    <g opacity="0.6">
      <polygon points="114.58 128.77 114.14 129.67 114.12 129.66 114.58 128.77" fill="#fff"/>
      <polygon points="113.47 131.01 113.01 131.9 112.94 131.87 113.42 130.99 113.47 131.01" fill="#fff"/>
      <polygon points="112.3 133.23 111.82 134.11 111.72 134.05 112.21 133.18 112.3 133.23" fill="#fff"/>
      <polygon points="111.08 135.41 110.57 136.27 110.42 136.18 110.95 135.33 111.08 135.41" fill="#fff"/>
      <polygon points="109.78 137.55 109.22 138.38 109.03 138.25 109.61 137.44 109.78 137.55" fill="#fff"/>
      <polygon points="108.42 139.64 107.93 140.51 107.62 140.33 108.16 139.48 108.42 139.64" fill="#fff"/>
      <polygon points="107.26 141.84 106.83 142.73 106.42 142.54 106.88 141.64 107.26 141.84" fill="#fff"/>
      <polygon points="106.22 144.1 105.84 145.02 105.39 144.83 105.79 143.91 106.22 144.1" fill="#fff"/>
      <polygon points="105.3 146.4 104.95 147.34 104.51 147.18 104.84 146.24 105.3 146.4" fill="#fff"/>
      <polygon points="104.46 148.75 104.16 149.7 103.76 149.58 104.05 148.62 104.46 148.75" fill="#fff"/>
      <polygon points="103.72 151.13 103.45 152.09 103.18 152.02 103.4 151.04 103.72 151.13" fill="#fff"/>
      <polygon points="103.07 153.53 102.83 154.5 102.76 154.49 102.91 153.5 103.07 153.53" fill="#fff"/>
    </g>
  </g>
  <g id="outline">
    <path d="M 137.06,125 h 0 A 12.07,12.07,0,0,0,125,112.94 c -4.14,0-8.78,2.24-10.3,5.87-2,4.83-4.16,8.07-9.12,14.58 a 39.71,39.71,0,0,0-9.19,18.35 l -1.3.23 S 92.5,159.65,94,164.9 c 0,0,.45.36,1.31.93.74,10.85,5.38,23.34,9.47,33.57,3.34,8.36,8.22,24.39,9,27.39 s 1.56,3.88,3.25,4.18 a 5.74,5.74,0,0,1-1.29-3.24,33.49,33.49,0,0,0-1.5-6 l -.66-2 c -2.26-6.49-4.46-15.57-7.83-23.32-3.17-7.28-7-18.07-7.91-29.08 a 44.27,44.27,0,0,0,10.87,3.92,28.27,28.27,0,0,0,14.7-.91 c -1.5,17,.36,37.59.8,43,.12,1.5.29,3.13.46,4.76 l .2,2 c .45,4.38.76,8.4,0,9.49,2-1.2,2.34-3.24,2.09-7 a 333.86,333.86,0,0,1-1.85-38.23 c .11-6.1.38-10.92.78-15,.43-.19.68-.32.68-.32 s 1.08-6.67,1.83-10.42 l -.77-.5 c .65-2.95,1.39-5.68,2.19-8.67,2.45-9,4.53-15.58,6-19.25 a 11.9,11.9,0,0,0,1.14-4,10.26,10.26,0,0,0,.08-1.21Z m -11.89,42.64 c -11.42,4.75-21.08,1.42-29.58-4.08-.75-3.33.5-8.17.5-8.17,15.5,11.92,30,6.08,30,6.08 S 125.67,163.4,125.17,167.65Z m 9.34-39.38 h 0 A 181.23,181.23,0,0,0,125,159.75 a 31.52,31.52,0,0,1-14.95.06,35.31,35.31,0,0,1-11.74-5.2 c 2-12.08,9.72-20.7,10.82-22.21 a 76.55,76.55,0,0,0,4.67-7.49 c .88-1.59,2.39-4.67,2.42-4.71 h 0 a 10.05,10.05,0,0,1,18.34,8.06Z"/>
  </g>
<script type="text/ecmascript" xlink:href="param.min.js"/> 
</svg>
