<?xml version="1.0"?>
<svg xmlns="http://www.w3.org/2000/svg" xmlns:xlink="http://www.w3.org/1999/xlink" viewBox="0 0 600 600">
  <title>sassy-slogan-curvy</title>
  <g id="main-colour">
    <path d="M 324.19,266.58 a 2.22,2.22,0,0,1,.52-1.57,2.05,2.05,0,0,1,1.51-.64,3.1,3.1,0,0,1,.95.12,1.83,1.83,0,0,1,.69.39,1.93,1.93,0,0,1,.43.61,2.26,2.26,0,0,1,.15.88,21.54,21.54,0,0,1-.06,2.42,17.79,17.79,0,0,1-.36,2,12.78,12.78,0,0,1-.5,1.68 c -.19.52-.59,1.55-.59,1.55-.2.5-.35,1-.55,1.55 a 17.74,17.74,0,0,0-.61,2.47,15.86,15.86,0,0,0-.25,3.14,1.1,1.1,0,0,0,.24.75.92.92,0,0,0,.8.24,1.14,1.14,0,0,0,.81-.36,1.37,1.37,0,0,0,.24-.79q0-1.86,0-3.72 l 1.12-.07q0,1.86,0,3.72 a 2.14,2.14,0,0,1-2.12,2.23,2.86,2.86,0,0,1-.94-.07,2.76,2.76,0,0,1-.69-.37,2.08,2.08,0,0,1-.44-.62,2.14,2.14,0,0,1-.16-.85,18.58,18.58,0,0,1,.07-2.43,16,16,0,0,1,.39-2,12.44,12.44,0,0,1,.52-1.72 c .13-.34.24-.65.36-1 a 22.44,22.44,0,0,0,.79-2.1,17.24,17.24,0,0,0,.59-2.46,16.21,16.21,0,0,0,.22-3.11,1,1,0,0,0-.24-.76.94.94,0,0,0-.79-.29,1.08,1.08,0,0,0-.8.37,1.25,1.25,0,0,0-.23.79 c 0,1.24,0,2.48,0,3.72 l -1.07.06 C 324.23,269.06,324.22,267.82,324.19,266.58Z" fill="param(main_colour)"/>
    <path d="M 315.85,283.75 c 0-6.34,1.55-12.69,1.42-19 l 1.07-.06 c 1.05,6.27.66,12.54,1.51,18.77 l -1.05.08 c -.15-1.07-.26-2.14-.35-3.21 l -1.41.1 c -.08,1.08-.13,2.17-.14,3.25Z M 318,271.52 c -.27,2.57-.61,5.14-.85,7.71 l 1.21-.09 C 318.17,276.61,318.11,274.07,318,271.52Z" fill="param(main_colour)"/>
    <path d="M 307,267.53 a 2.29,2.29,0,0,1,.47-1.61,1.93,1.93,0,0,1,1.48-.66,3.08,3.08,0,0,1,1,.12,2,2,0,0,1,.72.39,2.1,2.1,0,0,1,.48.62,2.31,2.31,0,0,1,.2.9,15.75,15.75,0,0,1,0,2.48,15.25,15.25,0,0,1-.39,2,12.81,12.81,0,0,1-.54,1.72 l -.63,1.59 c -.21.51-.38,1-.58,1.59 a 16.16,16.16,0,0,0-.62,2.52,13.57,13.57,0,0,0-.16,3.21,1.18,1.18,0,0,0,.28.77.93.93,0,0,0,.8.25,1,1,0,0,0,.77-.37,1.43,1.43,0,0,0,.19-.8 c -.06-1.27-.07-2.54,0-3.81 l 1.1-.08 c 0,1.27,0,2.53,0,3.8 a 2.29,2.29,0,0,1-.47,1.59,2,2,0,0,1-1.45.69,2.8,2.8,0,0,1-.93-.07 A 2.9,2.9,0,0,1,308,284 a 2.29,2.29,0,0,1-.48-.64,2.19,2.19,0,0,1-.2-.87,16,16,0,0,1,0-2.49,14.51,14.51,0,0,1,.37-2.06,12.06,12.06,0,0,1,.53-1.75 c .14-.34.26-.66.38-1,.3-.66.58-1.4.84-2.15 a 16.39,16.39,0,0,0,.63-2.52,13.43,13.43,0,0,0,.18-3.18,1.11,1.11,0,0,0-.28-.77,1,1,0,0,0-.81-.29,1,1,0,0,0-.79.38,1.29,1.29,0,0,0-.21.8 c .06,1.27.07,2.53,0,3.8 l -1.09.07 C 307.1,270.07,307.1,268.8,307,267.53Z" fill="param(main_colour)"/>
    <path d="M 298,268 a 2.31,2.31,0,0,1,.49-1.63,2,2,0,0,1,1.5-.67,3.08,3.08,0,0,1,1,.12,2,2,0,0,1,.72.4,2.16,2.16,0,0,1,.48.63,2.32,2.32,0,0,1,.2.91,17.06,17.06,0,0,1,0,2.51,16.3,16.3,0,0,1-.37,2.07,13.3,13.3,0,0,1-.52,1.74 l -.6,1.6 c -.2.52-.35,1-.55,1.6 a 16.39,16.39,0,0,0-.56,2.55,14.27,14.27,0,0,0-.1,3.25,1.22,1.22,0,0,0,.29.78.93.93,0,0,0,.79.25,1,1,0,0,0,.76-.37,1.46,1.46,0,0,0,.17-.81 c -.08-1.28-.11-2.56-.12-3.85 l 1.09-.08 c 0,1.28,0,2.56.11,3.84 a 2.31,2.31,0,0,1-.43,1.61,1.89,1.89,0,0,1-1.43.7,2.75,2.75,0,0,1-.93-.07,2.91,2.91,0,0,1-.71-.38,2.12,2.12,0,0,1-.69-1.52,17.5,17.5,0,0,1-.05-2.51,14.75,14.75,0,0,1,.32-2.08,12,12,0,0,1,.49-1.77 c .13-.35.24-.67.35-1,.28-.67.55-1.41.79-2.17 a 17.35,17.35,0,0,0,.6-2.54,14.4,14.4,0,0,0,.17-3.22,1.11,1.11,0,0,0-.28-.78,1,1,0,0,0-.82-.29,1.05,1.05,0,0,0-.8.39,1.3,1.3,0,0,0-.22.81 c .06,1.28.08,2.56.08,3.84 l -1.09.07 C 298.12,270.61,298.1,269.32,298,268Z" fill="param(main_colour)"/>
    <path d="M 290,266.21 c .53,2.24,1,4.48,1.51,6.71.34-2.28.69-4.57,1-6.84 l 1.08-.06 c -.38,3.27-.94,6.55-1.43,9.84.08,3.25.16,6.51.4,9.75 l -1,.08 c -.22-3.24-.31-6.49-.41-9.74-.67-3.22-1.41-6.44-2.16-9.68Z" fill="param(main_colour)"/>
  </g>
<script type="text/ecmascript" xlink:href="param.min.js"/> 
</svg>
