<?xml version="1.0"?>
<svg xmlns="http://www.w3.org/2000/svg" xmlns:xlink="http://www.w3.org/1999/xlink" viewBox="0 0 600 600">
  <title>professionally-pink-scarf-slender</title>
  <g id="main-colour">
    <path d="M 290.3,223.09 s -1.87-1.42-2.17-2.92 a 14.41,14.41,0,0,1-6,2.79 c -2.21.38-4.79.92-5.33,2.71 a 4.66,4.66,0,0,0,1.54,4.54 c -1.79,1.79-3.37,4.79.21,8.29 s 15,5.08,24.08,4.83 l .42.42 a 32.37,32.37,0,0,1-4.12,7.46 c -2.75,3.67-7.35,9.6-7.42,19.92 s 3.63,17.44,9.19,23.81 c 2.13-6.5,9.06-12.62,9.06-12.62 a 25.59,25.59,0,0,1-6.94-13.44 A 32.82,32.82,0,0,1,304,252.25 a 73.14,73.14,0,0,0,2.13-7.62,57.16,57.16,0,0,0,6.38-1.12,34.08,34.08,0,0,0,4.94,6.13 c 2.38,2.06,7.19,7.19,8.25,12.31 a 23.73,23.73,0,0,1-3.37,18.75 c 3.25,1.44,6.56,5.75,7.06,8.06 a 38.84,38.84,0,0,0,6.25-16,27.3,27.3,0,0,0-5.12-19.87 c -3.94-5.12-8.31-6.5-10.06-7.56 s -4.75-3.06-5.12-4.56 c 2.63-1.81,6.38-2.44,8.38-3.81 s 3.88-4.62-.44-7.87 c .19-3.12-1.56-4.5-5.94-5.56 s -6.62-1.12-7.87-3.25 l -1.5,2.13 s 3.94,7.63,8.38,5.13 c .75,2.06.44,4.44-3.37,7.63-3.25-.94-10.44.56-11.44,2.69-3.62-.56-14.06-5.25-17.12-10.19 A 15.36,15.36,0,0,0,290.3,223.09Z" fill="param(main_colour)"/>
  </g>
  <g id="outline">
    <path d="M 325.3,247.38 c -4.73-2.8-7.75-4.46-9.25-6.2 a 61.26,61.26,0,0,1,5.81-2.74 c 3.19-1.25,5.19-3.31,4.63-6 a 7,7,0,0,0-2.61-3.85,3.3,3.3,0,0,0,0-.84 c -.56-3.5-4.69-4.5-9.12-5.37-3.2-.63-4.28-1.68-4.64-2.22 a 4.84,4.84,0,0,0-.24-3.72,6.41,6.41,0,0,0-1.31,1 s 2.25,3.56-3.75,6.63 a 8.73,8.73,0,0,0,2.31-.8,15.83,15.83,0,0,0,3.5,4 c 1.13.75,3.63,2.44,5.13,1.56.14-.08.29-.14.43-.21.45,2.47-2.13,5.06-3.25,6 a 16.6,16.6,0,0,0-5.5,0 c -2.94.37-5.59,1.25-6.4,2.77-8.6-2.62-13.47-6.6-15.92-9.23 a 12.44,12.44,0,0,0,5.56-4.32,13.72,13.72,0,0,0,3,.53 s -7.19-2.44-4.25-7 a 8,8,0,0,0-.75-1.12,4.81,4.81,0,0,0-1.48,3.84,14.71,14.71,0,0,1-7.14,2.66 c -4.2.42-5.3,4.46-2.57,7.6 a 5.66,5.66,0,0,0-1.05,6.28 c 1.85,3.83,8.73,7.54,25.92,7.26 l .08.1 a 19.94,19.94,0,0,1-3.67,6.56 c -11.17,12.75-11.5,31.58,2.17,45.67,2.25-7.83,10-13.67,10-13.67 A 25,25,0,0,1,303.34,265 c -.23-10.62,2.83-16.86,3.35-20 a 26.92,26.92,0,0,0,5.73-1 l -.06.08 a 39.79,39.79,0,0,0,5.31,6.75 c 3.31,3.38,13.5,11.44,3.94,30.38 C 329,285,329.17,291,329.17,291 s 7.44-10.37,7.44-21.62 S 330.36,250.38,325.3,247.38Z m -12-21.87 a 6.8,6.8,0,0,1,1.86,1.27,2.63,2.63,0,0,1-1.42.26 c -2.53-.69-4.47-3.65-5.13-4.78 a 5.7,5.7,0,0,0,1-1.07 c .78.85,3.58,2.29,6.48,2.75,3.13.5,5.94,1.38,6.69,3.88 s -3.87,7.31-3.87,7.31,3.52-2.46,4.67-5.23 a 6,6,0,0,1,2,3.36 c .13,1.88-2,3.31-4.81,4.44 a 34.08,34.08,0,0,0-5,2.58,4.15,4.15,0,0,0-.74-2.36,2.49,2.49,0,0,0-.63-2.53,1.87,1.87,0,0,0-.27-.24 C 321.8,227.1,313.3,225.5,313.3,225.5Z m -10.87,12.63 c .5-1.87,6.75-2.87,9.63-2.37 s 2.63,2.88.88,4.5 a 5.53,5.53,0,0,0,1.69-1.66 c .24.74.66,2.53-.56,3.41-1.56,1.13-4.62,1.88-8.31,1.94-3.27.06-3.3-1.91-2.82-3.22 a 9.32,9.32,0,0,0,3.26.66 C 305.8,241.25,301.92,240,302.42,238.13Z M 282.17,240 c -6.47-3.18-5.63-5.69-3.43-8.48.22.16.43.32.68.48,5,3.13,9.38,6.38,9.38,6.38 a 23,23,0,0,0-6.62-5.87 c -4.5-2.75-5.75-5.87-4-7.62 s 5-.59,9.19-3.67 a 3.34,3.34,0,0,0,1.61,1.91 c -.48.81-1.76,2.4-4.88,3.87 a 11.84,11.84,0,0,1-1-1.48 c 2.47,7.61,14.39,12,17.74,13.1,0,.05,0,.1,0,.15 a 2.29,2.29,0,0,0,1.21,1.52,3.81,3.81,0,0,0-.17,2.74 C 299,243,288.11,242.92,282.17,240Z m 26.67,42.29 A 25.25,25.25,0,0,0,300.59,294 a 35.86,35.86,0,0,1-8.08-22.75 c -.08-10.42,5.18-17.27,7.5-20.42 a 28.49,28.49,0,0,0,3.37-6.25,6.88,6.88,0,0,0,2.23.36 c -.34,1.16-1.22,4.14-2.52,7.89 C 301.42,257.71,299.42,273.38,308.84,282.29Z m 14.71-1.79 a 28.27,28.27,0,0,0,3.69-15.19 c -.44-8.69-6.19-12.87-8.81-15.62-2.08-2.18-4.27-4.94-5.09-6 a 7.43,7.43,0,0,0,.78-.32,2.7,2.7,0,0,0,1.26-1.45,16.1,16.1,0,0,0,5.43,4 c 4.69,2.38,12.94,9.06,14.06,19.25 s -2.31,17.38-5.19,22.5 C 327,282.25,323.55,280.5,323.55,280.5Z"/>
  </g>
<script type="text/ecmascript" xlink:href="param.min.js"/> 
</svg>
