<?xml version="1.0"?>
<svg xmlns="http://www.w3.org/2000/svg" xmlns:xlink="http://www.w3.org/1999/xlink" viewBox="0 0 600 600">
  <title>love-slogan-hourglass</title>
  <g id="main-colour">
    <path d="M 304.59,282.55 l -10.2,1.29,0-.5,1.82-.23 c -.51-4.5-.6-9-1-13.52 l -1.94.21,0-.5,6.48-.69,0,.5-2,.22 c .32,4.5.21,9,.8,13.49 l 2.36-.3 a 2.75,2.75,0,0,0,2.28-1.45,7,7,0,0,0,.65-3.27 l .58-.07 A 31.56,31.56,0,0,0,304.59,282.55Z" fill="param(main_colour)"/>
    <path d="M 315.69,279.24 a 5.47,5.47,0,0,1-3.82,2.73,5,5,0,0,1-4.28-1.73,6.81,6.81,0,0,1-1.86-5.06,9.52,9.52,0,0,1,1.85-5.45,5.69,5.69,0,0,1,4.05-2.7,5.15,5.15,0,0,1,4.34,1.78,6.42,6.42,0,0,1,1.65,5 A 10.51,10.51,0,0,1,315.69,279.24Z m -.75-7.64 a 4.86,4.86,0,0,0-.78-3.2,2.69,2.69,0,0,0-2.48-.87,2.84,2.84,0,0,0-2.31,1.37,7,7,0,0,0-.76,3.39 c 0,1.72-.14,3.43-.14,5.14 a 5,5,0,0,0,.89,3.21,2.56,2.56,0,0,0,2.43.84,2.66,2.66,0,0,0,2.18-1.4,7.59,7.59,0,0,0,.72-3.37 C 314.74,275,314.87,273.31,314.94,271.6Z" fill="param(main_colour)"/>
    <path d="M 327.84,266.17 c -.82,4.78-3.38,9.59-4.44,14.4 l -.57.07 c -2-4.46-2.44-9-4.42-13.49 l -1.58.16q0-.25-.06-.49 l 6-.62q0,.24.07.49 l -1.94.2 c 1.45,3.2,2.09,6.39,3.07,9.56,1.22-3.42,2.7-6.83,3.32-10.22 l -2,.2q0-.24-.07-.49 l 4.08-.42q0,.24.07.48Z" fill="param(main_colour)"/>
    <path d="M 340.6,278.29 l -11,1.24q0-.24,0-.48 l 1.91-.22 c -.11-4.34.51-8.69,0-13 l -1.86.19q0-.24-.07-.48 l 10.44-1 c .11,1.23.19,2.46.25,3.69 l -.52.05 a 3.91,3.91,0,0,0-1.29-2.48,3.69,3.69,0,0,0-2.4-.39 l -2.16.22 a 46.49,46.49,0,0,1,.19,6.09 l .51-.05 a 2.26,2.26,0,0,0,1.87-1,3.53,3.53,0,0,0,.45-1.84 l .52-.06 c 0,1.92,0,3.85,0,5.77 l -.54.06 a 3.62,3.62,0,0,0-.43-1.87 c -.31-.52-.93-.73-1.88-.63 l -.51.05 c -.05,2.15-.14,4.29-.1,6.43 l 2.6-.29 a 3.43,3.43,0,0,0,2.61-1.27,7.06,7.06,0,0,0,1-3.08 l .55-.06Q340.63,276.07,340.6,278.29Z" fill="param(main_colour)"/>
  </g>
  <g id="fixed-colours">
    <path d="M 327.9,274.55 s -12-.83-17.83,5 C 314.07,274,321.9,272.21,327.9,274.55Z" opacity="0.2"/>
    <path d="M 314.73,271.88 a 9.5,9.5,0,0,0,9.17-2.33 C 321.73,270.71,317.23,272,314.73,271.88Z" opacity="0.2"/>
    <path d="M 276.22,285.38 A 26.12,26.12,0,0,0,291.39,294 a 32.68,32.68,0,0,0,12.5-.33 C 294.19,298.69,280.93,296.08,276.22,285.38Z" opacity="0.4"/>
  </g>
<script type="text/ecmascript" xlink:href="param.min.js"/> 
</svg>
