<?xml version="1.0"?>
<svg xmlns="http://www.w3.org/2000/svg" xmlns:xlink="http://www.w3.org/1999/xlink" viewBox="0 0 600 600">
  <title>love-slogan-hourglass</title>
  <g id="main-colour">
    <path d="M 326.36,272.66 l .57-.05 a 4.23,4.23,0,0,0,.73,2.87,2.58,2.58,0,0,0,2.45.83 l 2.38-.22 c 0-4.12.41-8.25.11-12.38 l -1.87.15 c 0-.15,0-.31,0-.46 l 6-.47q0,.23,0,.46 l -1.79.14 c .17,4.12-.07,8.24,0,12.35 l 1.84-.17q0,.23,0,.46 l -10.24,1 A 41.68,41.68,0,0,1,326.36,272.66Z" fill="param(main_colour)"/>
    <path d="M 313.84,271.56 a 10.17,10.17,0,0,1,1.94-5.13,4.74,4.74,0,0,1,7.88-.64,6.09,6.09,0,0,1,1.54,4.76,9.31,9.31,0,0,1-2,5.08,5.47,5.47,0,0,1-3.84,2.47,4.75,4.75,0,0,1-4.06-1.74 A 6,6,0,0,1,313.84,271.56Z m 2.49,2.19 a 4.4,4.4,0,0,0,.69,3,2.42,2.42,0,0,0,2.3.84,2.72,2.72,0,0,0,2.19-1.27,6.88,6.88,0,0,0,.83-3.17 c .11-1.61.28-3.22.35-4.83 a 4.45,4.45,0,0,0-.75-3,2.92,2.92,0,0,0-4.49.37,7.54,7.54,0,0,0-.73,3.19 C 316.62,270.51,316.43,272.13,316.33,273.75Z" fill="param(main_colour)"/>
    <path d="M 302.57,266.18q0-.24,0-.47 l 4-.33q0,.24,0,.47 l -1.92.16 c 1.26,3.12,1.87,6.23,2.85,9.33,1-3.29,2.62-6.58,3.37-9.85 l -1.88.16q0-.24,0-.47 l 5.77-.48q0,.23.06.47 l -1.51.12 c -1,4.6-3.77,9.22-4.35,13.86 l -.53.05 c -2.15-4.35-2.53-8.74-4.29-13.15Z" fill="param(main_colour)"/>
    <path d="M 292.17,276.1 l .5-.05 a 6.56,6.56,0,0,0,1.11,2.88,2.62,2.62,0,0,0,2.45.73 l 2.35-.24 a 50,50,0,0,1-.33-6.36 l -.48,0 a 2,2,0,0,0-1.77,1,4.07,4.07,0,0,0-.34,1.95 l -.49,0 c -.1-1.91-.14-3.83-.21-5.75 l .51,0 A 3.37,3.37,0,0,0,296,272 c .3.47.89.66,1.8.58 l .48,0 c 0-2,0-4-.11-6 l -2.15.18 a 3.81,3.81,0,0,0-2.3.82,4.5,4.5,0,0,0-1,2.7 l -.51,0q-.06-1.86-.12-3.72 l 10.3-.86q0,.24,0,.47 l -1.84.15 c .26,4.28-.3,8.56.29,12.83 l 1.73-.18q0,.24.07.47 l -10,1 C 292.46,279,292.32,277.57,292.17,276.1Z" fill="param(main_colour)"/>
  </g>
  <g id="fixed-colours">
    <path d="M 326.31,271.21 s -11.85-2-18.25,3.16 C 312.6,269.31,320.58,268.28,326.31,271.21Z" opacity="0.2"/>
    <path d="M 287.09,288.2 c 7.12.34,13.78-.82,20.78-6.32 C 304.11,288.81,294.11,291.43,287.09,288.2Z" opacity="0.4"/>
  </g>
<script type="text/ecmascript" xlink:href="param.min.js"/> 
</svg>
