<?xml version="1.0"?>
<svg xmlns="http://www.w3.org/2000/svg" xmlns:xlink="http://www.w3.org/1999/xlink" viewBox="0 0 600 600">
  <title>love-slogan-hourglass</title>
  <g id="main-colour">
    <path d="M 301.6,279.4 l -9.77.91,0-.48,1.74-.16 c -.38-4.3-.36-8.61-.61-12.92 l -1.86.14,0-.48,6.2-.46 c 0,.16,0,.32,0,.48 l -1.94.15 c .25,4.3,0,8.6.46,12.89 l 2.26-.21 a 2.57,2.57,0,0,0,2.2-1.31,6.74,6.74,0,0,0,.69-3.1 l .55,0 A 26.09,26.09,0,0,0,301.6,279.4Z" fill="param(main_colour)"/>
    <path d="M 312.22,276.58 a 5,5,0,0,1-3.64,2.49,4.86,4.86,0,0,1-4.08-1.78,6.42,6.42,0,0,1-1.64-4.89,9.34,9.34,0,0,1,1.88-5.15,5.22,5.22,0,0,1,3.86-2.45,5.06,5.06,0,0,1,4.15,1.83,6,6,0,0,1,1.44,4.85 A 10.43,10.43,0,0,1,312.22,276.58Z m -.51-7.33 a 4.54,4.54,0,0,0-.69-3.09,2.65,2.65,0,0,0-2.37-.9,2.61,2.61,0,0,0-2.2,1.24,7,7,0,0,0-.78,3.22 c -.09,1.64-.24,3.28-.29,4.91 a 4.64,4.64,0,0,0,.79,3.09,2.51,2.51,0,0,0,2.32.87,2.44,2.44,0,0,0,2.08-1.27,7.55,7.55,0,0,0,.74-3.2 C 311.4,272.51,311.6,270.88,311.71,269.25Z" fill="param(main_colour)"/>
    <path d="M 324.08,264.44 c -.81,4.52-3.58,9.07-4.53,13.63 l -.54,0 c -2-4.31-2-8.66-3.95-13 l -1.51.11q0-.23-.06-.47 l 5.73-.42q0,.23.06.46 l -1.86.14 c 1.39,3.09,1.82,6.17,2.67,9.22,1.24-3.23,2.81-6.46,3.43-9.67 l -1.87.14 c 0-.15,0-.31-.06-.46 l 3.9-.28 c 0,.15,0,.31.06.46Z" fill="param(main_colour)"/>
    <path d="M 335.91,276.38 l -10.48.88q0-.23,0-.46 l 1.81-.15 c -.08-4.15.76-8.3.33-12.45 l -1.78.13q0-.23-.06-.46 l 10-.7 c .06,1.17.1,2.35.13,3.52 l -.49,0 a 3.72,3.72,0,0,0-1.15-2.4,3.51,3.51,0,0,0-2.27-.44 l -2.07.15 a 40.51,40.51,0,0,1,0,5.81 l .48,0 a 2.16,2.16,0,0,0,1.81-.86,3.38,3.38,0,0,0,.48-1.75 l .5,0 c 0,1.84-.11,3.67-.17,5.51 l -.51,0 a 3.49,3.49,0,0,0-.36-1.8 c -.28-.51-.87-.73-1.77-.66 l -.49,0 c -.12,2.05-.27,4.1-.25,6.15 l 2.47-.21 a 3.26,3.26,0,0,0,2.51-1.14,6.77,6.77,0,0,0,1-2.91 l .53,0Q336,274.26,335.91,276.38Z" fill="param(main_colour)"/>
  </g>
  <g id="fixed-colours">
    <path d="M 326.31,271.21 s -11.85-2-18.25,3.16 C 312.6,269.31,320.58,268.28,326.31,271.21Z" opacity="0.2"/>
    <path d="M 287.09,288.2 c 7.12.34,13.78-.82,20.78-6.32 C 304.11,288.81,294.11,291.43,287.09,288.2Z" opacity="0.4"/>
  </g>
<script type="text/ecmascript" xlink:href="param.min.js"/> 
</svg>
