<?xml version="1.0"?>
<svg xmlns="http://www.w3.org/2000/svg" xmlns:xlink="http://www.w3.org/1999/xlink" viewBox="0 0 600 600">
  <title>girl-power-slogan-voluptuous</title>
  <g id="main-colour">
    <path d="M 331.33,276.2 l -1.59.13q-.51,2.33-1.06,4.67 c -.42,1.81.08,2.39,1.15,2.29 s 1.9-.81,2.37-2.61 c 1.19-4.54,2.29-9.09,3.06-13.65.31-1.81-.36-2.44-1.56-2.37 s -2,.82-2.28,2.63q-.2,1.36-.44,2.72 l -3.44.25q.19-1.24.35-2.48 c .51-4.08,2.51-6.53,6.31-6.76 s 5.54,2,4.74,6 c -.86,4.37-2,8.74-3.25,13.1-1.15,4-3.51,6.46-6.69,6.78 s -4.31-1.83-3.46-5.89 c .57-2.68,1.11-5.37,1.57-8.06 l 5-.39Q331.75,274.4,331.33,276.2Z" fill="param(main_colour)"/>
    <path d="M 322.14,287.31 l -3.22.32 c 1.51-8.47,3.11-17,3.26-25.54 l 3.81-.25 C 325.65,270.36,323.86,278.86,322.14,287.31Z" fill="param(main_colour)"/>
    <path d="M 306.71,288.89 a 10.37,10.37,0,0,0,.61-3.15q.17-2,.33-4 c .21-2.69.89-4.69,2.68-5.69-1.49-.71-2.11-2.39-2.05-5q0-1,0-2 c 0-4,1.47-6.08,5.4-6.34 l 5.72-.39 c 0,8.55-1.47,17.1-2.83,25.59 l -3.19.33 c .46-3.46.95-6.93,1.34-10.41 l -1.19.1 c -1.56.14-2.32,1.08-2.56,3.47q-.21,2-.43,4 a 10.89,10.89,0,0,1-.63,3.17Z m 7.13-22.55 c -1.32.09-1.87.95-1.92,2.79q0,1.27-.1,2.54 c -.11,2.06.63,2.66,1.94,2.55 l 1.38-.11 c .25-2.63.43-5.27.49-7.9Z" fill="param(main_colour)"/>
    <path d="M 305,289.07 l -8.27.88q0-1.84,0-3.69 l 5.28-.53 a 150.12,150.12,0,0,0-.14-22.21 l 3.75-.27 C 306.31,271.88,305.57,280.51,305,289.07Z" fill="param(main_colour)"/>
    <path d="M 329.83,291.23 l 2.91-.3 c -1.47,5.19-2.82,10.37-3.75,15.55 l -1.73.24 c .32-1.95.69-3.9,1.11-5.85 l -.86.11 c -1.81.23-2.46-1-1.94-3.53q.21-1,.44-2 C 326.57,292.9,327.86,291.43,329.83,291.23Z m -.57,2.23 c -.62.07-1,.46-1.31,1.58q-.28,1.17-.54,2.34 c -.25,1.12,0,1.43.58,1.36 l .88-.1 c .41-1.76.85-3.52,1.31-5.28Z" fill="param(main_colour)"/>
    <path d="M 323.69,303.53 c -.4,2.5-1.46,4.05-3.12,4.29 s -2.47-1.07-2.22-3.59 c .29-2.72.69-5.45,1.14-8.18.42-2.52,1.73-4.08,3.65-4.28 s 2.64,1.12,2.09,3.63 C 324.64,298.1,324.12,300.82,323.69,303.53Z m -.33-8.08 c .23-1.12-.07-1.51-.68-1.44 s -1.08.54-1.28,1.66 c -.52,2.83-1,5.66-1.32,8.48-.13,1.12.17,1.5.72,1.43 s .95-.55,1.1-1.66 C 322.29,301.09,322.8,298.27,323.36,295.45Z" fill="param(main_colour)"/>
    <path d="M 312.61,308.76 l -2.2.32 c -.44-5.22-.46-10.45-.39-15.71 l 1.67-.19 c -.14,4.17-.23,8.33-.08,12.48.44-4.23,1.18-8.46,2-12.69 l 1.85-.2 c -.29,4.13-.52,8.25-.53,12.35.61-4.19,1.49-8.38,2.5-12.57 l 1.88-.2 a 127.26,127.26,0,0,0-3.22,15.92 l -2.3.33 c -.13-2.77-.14-5.55-.09-8.33 C 313.24,303.09,312.85,305.93,312.61,308.76Z" fill="param(main_colour)"/>
    <path d="M 307,296 l -3.21.37q0-1.14.1-2.28 l 5.17-.58 a 133.07,133.07,0,0,0-.65,15.89 L 304,310q-.09-1.14-.14-2.28 l 2.89-.4 c 0-1.55,0-3.1,0-4.66 l -2.4.31q0-1.14,0-2.28 l 2.45-.31Q306.86,298.19,307,296Z" fill="param(main_colour)"/>
    <path d="M 297.95,310.9 a 8.06,8.06,0,0,0-.07-2q-.14-1.24-.25-2.47 c -.15-1.67.06-2.92.9-3.56-.8-.42-1.23-1.45-1.29-3.11q0-.63,0-1.26 c -.07-2.48.76-3.79,2.7-4 l 2.84-.32 a 128.4,128.4,0,0,0,.22,16 l -1.62.24 c -.22-2.17-.36-4.34-.44-6.51 l -.6.08 c -.78.1-1.1.7-1,2.18q.09,1.26.21,2.51 a 8.34,8.34,0,0,1,.07,2Z m 2-14.1 c -.65.08-.94.61-.92,1.76q0,.79,0,1.58 c 0,1.28.45,1.64,1.1,1.56 l .69-.09 c 0-1.64,0-3.27,0-4.91Z" fill="param(main_colour)"/>
  </g>
  <g id="fixed-colours">
    <path d="M 330,273 s -14.15-2.48-21.8,3.73 C 313.64,270.73,323.17,269.52,330,273Z" opacity="0.2"/>
    <path d="M 292.54,288.54 c -7.37,1.34-12.83-1.17-19.33-5.83 C 277.62,288.88,286.14,292,292.54,288.54Z" opacity="0.4"/>
  </g>
<script type="text/ecmascript" xlink:href="param.min.js"/> 
</svg>
