<?xml version="1.0"?>
<svg xmlns="http://www.w3.org/2000/svg" xmlns:xlink="http://www.w3.org/1999/xlink" viewBox="0 0 600 600">
  <title>girl-power-slogan-hourglass</title>
  <g id="main-colour">
    <path d="M 307.13,271 l 4.67-.23 c -.26,2.26-.59,4.52-.94,6.77-.54,3.41-2.32,5.47-5.15,5.7 s -4.2-1.62-4-5.1 c .18-3.76.3-7.53.13-11.3-.18-3.48,1.35-5.53,5-5.63 s 5.63,1.8,5.4,5.21q-.07,1-.16,2.08 l -3.23.14q.07-1.15.1-2.3 c 0-1.53-.7-2.09-1.83-2.05 s -1.81.65-1.79,2.2 c 0,3.89-.23,7.78-.55,11.66-.13,1.54.42,2.05,1.38,2 s 1.62-.66,1.81-2.19 c .16-1.32.31-2.64.45-4 l -1.46.08Q307,272.51,307.13,271Z" fill="param(main_colour)"/>
    <path d="M 314.68,261.22 l 3.69-.1 c -.26,7-2,14.11-3.49,21.14 l -2.93.23 C 313.22,275.41,314.68,268.3,314.68,261.22Z" fill="param(main_colour)"/>
    <path d="M 323.18,281.63 a 7.14,7.14,0,0,1,.53-2.53q.52-1.63,1-3.27 c .61-1.93.16-2.61-1.32-2.53 l -1.12.06 c -.74,2.84-1.55,5.68-2.34,8.52 l -2.94.22 c 1.7-7,3.59-14,4-21.05 l 5.58-.15 c 3.83-.09,5.27,1.43,4.43,4.61q-.21.81-.44,1.62 a 6.29,6.29,0,0,1-3.46,4.3 c 1.45.6,1.47,2.14.71,4.3q-.55,1.6-1.12,3.19 a 6.82,6.82,0,0,0-.55,2.49Z m 1.18-17.7 c -.34,2.14-.79,4.28-1.31,6.43 l 1.31-.06 A 2.61,2.61,0,0,0,327,268q.26-1,.5-2.05 c .34-1.49-.1-2.12-1.37-2.08Z" fill="param(main_colour)"/>
    <path d="M 334.58,260.7 l 3.71-.09 c -1.39,5.81-3.83,11.67-6.29,17.53 l 5.08-.33-1.37,2.9-7.89.57 C 330.42,274.42,333.2,267.54,334.58,260.7Z" fill="param(main_colour)"/>
    <path d="M 305.95,290.28q-.06.87-.1,1.73 c -.11,2.13-.86,3.37-2.4,3.55 l -.73.09 c .05,1.67.16,3.34.33,5 l -1.43.19 a 89,89,0,0,1-.52-13.4 l 2.53-.23 C 305.37,287.07,306.1,288.16,305.95,290.28Z m -3.2-1.07 c -.05,1.51-.08,3-.06,4.53 l .75-.08 c .5-.06.78-.39.8-1.34q0-1,.07-2 c 0-1-.23-1.23-.76-1.18Z" fill="param(main_colour)"/>
    <path d="M 306.66,290.12 c .16-2.13,1.22-3.43,2.93-3.58 s 2.44,1,2.12,3.08 c -.32,2.28-.58,4.56-.72,6.84-.13,2.1-.91,3.4-2.33,3.59 s -2.26-.91-2.28-3 C 306.39,294.72,306.49,292.42,306.66,290.12Z M 307.9,297 c 0,.94.29,1.26.76,1.2 s .77-.45.81-1.39 c .09-2.37.31-4.74.6-7.12.12-.94-.17-1.27-.71-1.22 s -.92.44-1,1.39 C 308.1,292.21,307.94,294.59,307.9,297Z" fill="param(main_colour)"/>
    <path d="M 316,292.12 a 68.15,68.15,0,0,0-1.43,7 l -2,.26 a 103.58,103.58,0,0,1,.43-13 l 1.7-.15 c -.37,3.43-.67,6.84-.73,10.24 a 90.55,90.55,0,0,1,2.52-10.39 l 1.69-.15 c -.54,3.43-1,6.85-1.24,10.25 a 92.2,92.2,0,0,1,3-10.41 l 1.54-.13 a 84.36,84.36,0,0,0-3.88,13.08 l -2,.26 C 315.61,296.7,315.75,294.41,316,292.12Z" fill="param(main_colour)"/>
    <path d="M 322.46,290.86 l 2.27-.23q-.28.92-.53,1.83 l -2.21.24q-.46,1.89-.83,3.77 l 2.65-.32q-.21.91-.4,1.83 l -4.06.52 a 93,93,0,0,1,3-12.92 l 4.82-.41q-.33.92-.65,1.83 l -3,.27Q323,289.06,322.46,290.86Z" fill="param(main_colour)"/>
    <path d="M 327.47,297.46 a 4.8,4.8,0,0,1,.29-1.54q.29-1,.6-2 c .38-1.18.21-1.58-.53-1.5 l -.56.06 c -.55,1.73-1,3.46-1.45,5.18 l -1.5.19 a 97.47,97.47,0,0,1,3.91-12.78 l 2.69-.23 c 1.85-.15,2.22.74,1.39,2.69 l -.41,1 a 5,5,0,0,1-2.09,2.68 c .67.33.58,1.26.12,2.58q-.33,1-.63,2 a 4.61,4.61,0,0,0-.29,1.52Z m 1.83-10.71 c -.5,1.31-1,2.61-1.42,3.92 l .65-.07 c .62-.06,1.11-.43,1.49-1.44 l .48-1.25 c .36-.91.25-1.28-.37-1.23Z" fill="param(main_colour)"/>
  </g>
  <g id="fixed-colours">
    <path d="M 329.9,274.55 s -12-.83-17.83,5 C 316.07,274,323.9,272.21,329.9,274.55Z" opacity="0.2"/>
    <path d="M 316.73,271.88 a 9.5,9.5,0,0,0,9.17-2.33 C 323.73,270.71,319.23,272,316.73,271.88Z" opacity="0.2"/>
    <path d="M 275.9,284.25 c 10.5,12.13,21,14.63,34.13,11.25 C 298.38,302.39,282.36,297.84,275.9,284.25Z" opacity="0.4"/>
  </g>
<script type="text/ecmascript" xlink:href="param.min.js"/> 
</svg>
