<?xml version="1.0"?>
<svg xmlns="http://www.w3.org/2000/svg" xmlns:xlink="http://www.w3.org/1999/xlink" viewBox="0 0 250 250">
  <title>denim-shorts-slender</title>
  <g id="skin-tone">
    <path d="M 129.5,158.27 c -7.65.78-16.77-1.22-22.53-2.83,2.24,7.23,4.68,15.18,6,20.33,2.63,10,5.13,23,6.25,30.13 s 2,8.72,2,8.72 h 0 a 6.91,6.91,0,0,0,11.3,6.22 h 0 c 1.85-.44,4.65-4.06,6.9-16.43 s 5.13-32.62,6.38-42.87 c .32-2.59.7-5.72,1.09-9 A 40.59,40.59,0,0,1,129.5,158.27Z" fill="param(skin_tone)"/>
  </g>
  <g id="main-colour">
    <path d="M 129.5,158.27 a 43.7,43.7,0,0,0,18.16-6.19 c 1.17-9.7,1.81-20.32,2.09-22.94.38-3.5-.75-4.15-.75-4.15 a 24,24,0,0,0-48,0 c -.88,1.48-.12,9.65,1.25,14.9.67,2.55,1.64,8.43,3.75,15.25 C 111.77,156.76,121.85,159.06,129.5,158.27Z" fill="param(main_colour)"/>
  </g>
  <g id="fixed-colours">
    <path d="M 104.08,148.46 s 12.25,3.5,23.56,2.63,16.88-3.5,20.81-6.37 a 40.56,40.56,0,0,1-.44,6.88 A 37.12,37.12,0,0,1,127,158.4 a 57.52,57.52,0,0,1-21.44-3.69Z" fill="#fff" opacity="0.7"/>
    <g opacity="0.6">
      <polygon points="103.83 127.04 103.96 127.52 103.91 127.53 103.83 127.04" fill="#fff"/>
      <polygon points="104.34 128.9 104.59 129.81 104.34 129.87 104.16 128.94 104.34 128.9" fill="#fff"/>
      <polygon points="104.95 131.19 105.19 132.11 104.82 132.2 104.63 131.27 104.95 131.19" fill="#fff"/>
      <polygon points="105.54 133.49 105.78 134.42 105.34 134.52 105.13 133.59 105.54 133.49" fill="#fff"/>
      <polygon points="106.12 135.8 106.36 136.72 105.89 136.84 105.67 135.91 106.12 135.8" fill="#fff"/>
      <polygon points="106.7 138.11 106.93 139.03 106.47 139.15 106.23 138.22 106.7 138.11" fill="#fff"/>
      <polygon points="107.27 140.42 107.5 141.34 107.08 141.45 106.83 140.53 107.27 140.42" fill="#fff"/>
      <polygon points="107.83 142.73 108.05 143.66 107.73 143.74 107.46 142.83 107.83 142.73" fill="#fff"/>
      <polygon points="108.38 145.05 108.59 145.98 108.41 146.03 108.13 145.12 108.38 145.05" fill="#fff"/>
      <polygon points="108.91 147.41 109.02 147.9 108.86 147.43 108.91 147.41" fill="#fff"/>
    </g>
    <path d="M 102.83,126.93 a 84.56,84.56,0,0,0,1.75,12,57.79,57.79,0,0,0,2.83,8.79 s -1.79-7.25-2.21-9.25 S 102.83,126.93,102.83,126.93Z" opacity="0.5"/>
  </g>
  <g id="outline">
    <path d="M 149.24,143.41 c 2-16.9,1.76-18.41,1.76-18.41 a 26,26,0,0,0-52,0 c 0,.66,0,1.32.08,2 a 5,5,0,0,0,0,.9,144.94,144.94,0,0,0,4.1,19.55 c 0,.39-.07,5,2,8.23 l .53.17 c 3.76,11.64,7,21.73,9.19,32,2.33,11,5.42,28.75,5.42,28.75 a 2.47,2.47,0,0,0,1-2 s -1.87-13.91-4.23-26.75 c -1.45-7.86-5.06-19.63-8.5-31.13,19.88,5.91,32.22.58,37.4-2.7-2.58,18.93-7.73,62.89-13.35,66.8,3.33-.84,5.79-4,8.72-22,1.46-8.93,4.91-31.53,6.81-46.4.44-.36.66-.57.66-.57 a 61.56,61.56,0,0,0,.46-8.5Z M 101,125 a 24,24,0,0,1,48,0,112.9,112.9,0,0,1-.95,12 c -.23,2.26-.52,4.85-.87,7.72-14.25,8.43-33.89,5.07-41.16,3.39-.81-2.82-1.58-5.56-2.25-8.14-2.82-9.51-2.74-13.78-2.74-13.78 C 101,125.8,101,125.4,101,125Z m 5.33,29.36 a 19.35,19.35,0,0,1-1.37-4.79 s 25.71,7.71,42.88-3.58 a 31.32,31.32,0,0,1-.46,5.33 S 132.79,162.57,106.33,154.36Z"/>
  </g>
<script type="text/ecmascript" xlink:href="param.min.js"/> 
</svg>
