<?xml version="1.0"?>
<svg xmlns="http://www.w3.org/2000/svg" xmlns:xlink="http://www.w3.org/1999/xlink" viewBox="0 0 600 600">
  <title>professionally-pink-scarf-voluptuous</title>
  <g id="main-colour">
    <path d="M 271.64,217.69 a 27.22,27.22,0,0,0-8.92,6.52 c -4,4.5-2.17,6.67-.5,8-2.83,2.17-4.17,6.5.33,9.5 s 23.33,6.17,40.67,5.67 c 1.5.33,2.92.75,2.92.75 s .42.92-5.58,8.58-22.33,38.33-3.5,59.5 c .33-8.5,8.33-16.5,8.33-16.5 s -4.58-9.25-2.71-24.79 a 86.14,86.14,0,0,1,7.54-26.54 l 5-.5 a 88.3,88.3,0,0,1,8.25,18.83 c 3.17,10.58,2.58,20.33.42,25.25,5.25.42,10.75,4.83,12.83,9.42,2.08-15.17,1.92-20.08-1.17-30.17 s -13.92-22.42-16.67-24.67 a 9.06,9.06,0,0,0,1.58-2.42,35.79,35.79,0,0,0,13.42-6.58 c 6.33-5.08,5.17-10.58,2.83-11.83.83-3.42-2.83-8.25-9.67-10.17-.5.83-.75,1.17-.75,1.17 s 4.86,5.53-1.11,11.26 c 1.53-.43,2.28-.68,2.28-.68 a 30,30,0,0,1-8.25,11.42 c -.83-1.75-6.17-2.67-9.25-2.25 s -8.25,2.42-7.83,4.67 c -6.5-.33-28.25-3.67-34.5-14.25 a 13.49,13.49,0,0,0,3.42.58 S 265.39,224.52,271.64,217.69Z" fill="param(main_colour)"/>
  </g>
  <g id="outline">
    <path d="M 320.86,244.83 c 13.6-3.91,18.54-11.68,18.86-15 a 5.1,5.1,0,0,0-2.13-4.53,6.06,6.06,0,0,0-.2-2.47 c -1.67-6.17-10-8.33-10-8.33 a 2.47,2.47,0,0,0-.7,1.31 l -.93,1.33 a 7.44,7.44,0,0,1,1.38,6.27 c -1,3.38-8.19,8.23-8.19,8.23 s 3.37,0,8-4.81 a 8.71,8.71,0,0,0,.64-.75 c -1.18,2.68-3.44,6.36-7.68,11.29-1.31-1.71-4.4-2.33-9.88-1.7-3.78.44-8.45,2.14-9,4.56-17.93-2.08-27.27-7.68-30.14-10.14-2.21-1.9-3.42-4.28-3.1-6.48 a 6.69,6.69,0,0,0,.35,1 c 2.38,5.29,9.67,7.17,9.79,7.17 s -6.54-3.42-7.92-7.83 c -1-3.13,2.83-4.42,2.83-4.42 l -.75-1.71 a 8.2,8.2,0,0,0-1.43.53 l 1.22-1 a 3.65,3.65,0,0,0-.5-1.33 s -15.17,10-11.17,15.17 c .3.39.6.73.88,1 a 6,6,0,0,0-.88,8.28 c 3.43,5.06,28.49,8,43,7.53 a 11.45,11.45,0,0,0,2.61.74 c -2.75,5.71-9.79,9.39-15.57,27.19-6,18.5-2.5,32.5,7.5,42.38.13-7.12,3-13.12,8.63-18.62-8.73-18,2.27-46.18,4.11-50.63 a 29,29,0,0,0,3.14-.25 c .51-.07,1-.17,1.48-.28,2.24,3.88,14.26,26,7.9,43.78,7.25,1,12.63,7,14,11.5,4-16.88,3.62-37.59-17.45-57.34 A 4.83,4.83,0,0,0,320.86,244.83Z m 6.52-28.22 c 4.56,1.39,9,5.11,8.68,7.94-.33,3-6.5,7.17-7.83,11,3.05-4.7,7.17-6,8.76-8.53,2,2.06.82,5.27-3.43,9.45 s -10.1,6.13-12.39,6.82 a 5.19,5.19,0,0,0-.79-2.54,3.22,3.22,0,0,0,.23-1.71,62.48,62.48,0,0,0,7.95-11.48 c 2.12-4.36,1.07-6.4.4-7.14 A 11,11,0,0,0,327.38,216.61Z m -53.32,27.77 c -10.67-2.33-10.83-2.83-12.33-4.5 a 4.61,4.61,0,0,1,.71-6.33 c 2.71,2.28,4.39,1.7,4.79,5.17.33-3.33-.5-4.33-1.83-5.17 s -3.83-1.83-4.33-4.67 c -.35-2,3.74-5.7,7.18-8.55 a 3.7,3.7,0,0,0-.61,2.33 c -1.27,2-1.05,5.34,2.35,8.8,8.36,8,27.68,10.18,31.32,10.53 a 3.56,3.56,0,0,0,.73,1,4.43,4.43,0,0,0-.63,3.28,1.68,1.68,0,0,0,.35.74 C 298.86,247,283.68,246.48,274.05,244.38Z m 30.33,55.13 s -7.75,7.13-7.62,15.38 c -17.87-19.87.13-52.75,3.5-56.5 a 67,67,0,0,0,6.59-9.42,24.64,24.64,0,0,0,2.53.17 A 86.11,86.11,0,0,0,302,275.75 C 300,292.38,304.39,299.5,304.39,299.5Z m 1.33-52.12 c -2.93-.46-3.57-1.78-2.8-3.69 a 6.17,6.17,0,0,0,2.63.69 s -2.17-.83-2.5-2.33,1-2.83,4.33-3.83,9.5-1.33,11,.17-.33,5-.33,5 a 7.45,7.45,0,0,0,1.53-1.37 c .41,1,.58,2.73-1.61,4.12 C 314.55,248.29,308.89,247.88,305.72,247.38Z m 30.79,52.13 a 16.14,16.14,0,0,0-11.25-8.12 c 3.09-9.53,1.4-26.41-9.31-43 a 10.65,10.65,0,0,0,2.87-1.29 A 56.26,56.26,0,0,1,336.51,299.5Z"/>
  </g>
<script type="text/ecmascript" xlink:href="param.min.js"/> 
</svg>
