<?xml version="1.0"?>
<svg xmlns="http://www.w3.org/2000/svg" xmlns:xlink="http://www.w3.org/1999/xlink" viewBox="0 0 250 250">
  <title>curvy-bottoms-template</title>
  <g id="skin-tone">
    <path d="M 157.85,125 H 92.15 c -.76,3.78-.6,3.34,0,6.14,3.25,15.12,7.41,32.58,12.91,44.33 s 20.23,38.63,25.15,42.23 h 0 a 10.05,10.05,0,0,0,18.54-.22 h .74 s 2-4.1,3.78-16.51,4.61-27.58,5.32-39.33.56-18.63.48-28.71 A 22.6,22.6,0,0,0,157.85,125Z" fill="param(skin_tone)"/>
  </g>
  <g id="outline">
    <path d="M 108.89,180.93 C 98,159.55,93.92,142,92.15,125 a 9.06,9.06,0,0,0-1.6,2.86 c -.56,1.9.16,6.92.15,6.92,1.09,7.35,2.73,13.12,7.49,26.77,8.29,23.78,23.94,47.35,26.94,52.26,1.75,2.84,3.89,3.78,5.07,3.88 A 376.91,376.91,0,0,1,108.89,180.93Z"/>
    <path d="M 157.88,125 a 309.44,309.44,0,0,1,0,31.72 c -1,21.67-6.42,49-7.35,53.91-1,5.24-4.17,10.43-6.22,11.89,8.1-2.47,8.95-11.8,13.37-41.8 A 224.75,224.75,0,0,0,159.83,136,43.81,43.81,0,0,0,157.88,125Z"/>
  </g>
<script type="text/ecmascript" xlink:href="param.min.js"/> 
</svg>
