<?xml version="1.0"?>
<svg xmlns="http://www.w3.org/2000/svg" xmlns:xlink="http://www.w3.org/1999/xlink" viewBox="0 0 250 250">
  <title>three-quarter-jeans-curvy</title>
  <g id="main-colour">
    <path d="M 159.08,132.92 c 0-3.43-.29-4.18-1.23-7.92 a 32.85,32.85,0,1,0-65.7,0 c -.76,3.78-.6,3.34,0,6.14,3.25,15.12,7.41,32.58,12.91,44.33 s 21.53,32.18,25.15,42.23 h 0 a 10.05,10.05,0,0,0,18.54-.22 h .74 s 2-4.1,3.78-16.51,4.61-27.58,5.32-39.33 S 159.16,143,159.08,132.92Z" fill="param(main_colour)"/>
  </g>
  <g id="fixed-colours">
    <path d="M 94.8,127.4 s 2.5,20.33,11.08,39.33 c 7.52,16.65,11.06,21,13.67,25,3.75,5.88,9.83,14.71,11.13,21.5-2.12-6.37-8.62-16.21-11.5-20.5-2.16-3.23-12.87-19.5-18.37-36.5 S 94.8,127.4,94.8,127.4Z" opacity="0.5"/>
    <g opacity="0.6">
      <polygon points="95.92 127.65 96.01 128.14 96 128.14 95.92 127.65" fill="#fff"/>
      <polygon points="96.28 129.62 96.48 130.6 96.42 130.61 96.24 129.63 96.28 129.62" fill="#fff"/>
      <polygon points="96.77 132.08 96.98 133.06 96.86 133.08 96.68 132.1 96.77 132.08" fill="#fff"/>
      <polygon points="97.29 134.54 97.5 135.52 97.34 135.55 97.15 134.56 97.29 134.54" fill="#fff"/>
      <polygon points="97.83 136.99 98.06 137.97 97.84 138.01 97.64 137.03 97.83 136.99" fill="#fff"/>
      <polygon points="98.4 139.43 98.63 140.41 98.37 140.47 98.15 139.49 98.4 139.43" fill="#fff"/>
      <polygon points="98.97 141.88 99.21 142.85 98.94 142.92 98.71 141.94 98.97 141.88" fill="#fff"/>
      <polygon points="99.58 144.31 99.83 145.29 99.54 145.36 99.3 144.38 99.58 144.31" fill="#fff"/>
      <rect x="100.04" y="146.77" width="0.31" height="1" transform="matrix(0.97, -0.26, 0.26, 0.97, -34.94, 31.23)" fill="#fff"/>
      <rect x="100.69" y="149.19" width="0.33" height="1.01" transform="matrix(0.96, -0.27, 0.27, 0.96, -37.19, 33.4)" fill="#fff"/>
      <rect x="101.38" y="151.6" width="0.34" height="1.01" transform="translate(-39.64 35.86) rotate(-16.81)" fill="#fff"/>
      <rect x="102.11" y="154.01" width="0.36" height="1.01" transform="translate(-42.36 38.69) rotate(-17.81)" fill="#fff"/>
      <rect x="102.89" y="156.4" width="0.38" height="1.01" transform="translate(-45.39 42.01) rotate(-18.96)" fill="#fff"/>
      <polygon points="103.93 158.73 104.28 159.68 103.9 159.82 103.56 158.87 103.93 158.73" fill="#fff"/>
      <polygon points="104.82 161.08 105.19 162.01 104.8 162.17 104.43 161.23 104.82 161.08" fill="#fff"/>
      <polygon points="105.78 163.4 106.18 164.32 105.78 164.5 105.38 163.57 105.78 163.4" fill="#fff"/>
      <polygon points="106.8 165.69 107.22 166.61 106.81 166.8 106.39 165.88 106.8 165.69" fill="#fff"/>
      <polygon points="107.86 167.97 108.29 168.88 107.86 169.09 107.44 168.17 107.86 167.97" fill="#fff"/>
      <polygon points="108.95 170.24 109.39 171.15 108.95 171.36 108.51 170.45 108.95 170.24" fill="#fff"/>
      <rect x="109.82" y="172.55" width="0.49" height="1.01" transform="translate(-65.59 67.19) rotate(-26.47)" fill="#fff"/>
      <rect x="110.98" y="174.8" width="0.47" height="1.01" transform="translate(-67.92 70.38) rotate(-27.25)" fill="#fff"/>
      <rect x="112.16" y="177.03" width="0.46" height="1.01" transform="translate(-70.31 73.75) rotate(-28.06)" fill="#fff"/>
      <rect x="113.38" y="179.24" width="0.44" height="1.01" transform="translate(-72.75 77.34) rotate(-28.92)" fill="#fff"/>
      <rect x="114.63" y="181.43" width="0.42" height="1.01" transform="translate(-75.24 81.16) rotate(-29.81)" fill="#fff"/>
      <rect x="115.92" y="183.6" width="0.4" height="1.01" transform="translate(-77.8 85.26) rotate(-30.75)" fill="#fff"/>
      <rect x="117.25" y="185.75" width="0.38" height="1.01" transform="translate(-80.42 89.64) rotate(-31.74)" fill="#fff"/>
      <rect x="118.61" y="187.87" width="0.36" height="1.01" transform="translate(-83.1 94.37) rotate(-32.8)" fill="#fff"/>
      <rect x="120.01" y="189.97" width="0.35" height="1.01" transform="translate(-85.82 99.44) rotate(-33.91)" fill="#fff"/>
      <polygon points="121.46 192.04 122.03 192.87 121.76 193.06 121.19 192.23 121.46 192.04" fill="#fff"/>
      <polygon points="122.85 194.14 123.38 195 123.12 195.16 122.59 194.31 122.85 194.14" fill="#fff"/>
      <rect x="124.15" y="196.3" width="0.29" height="1" transform="translate(-82.68 90.3) rotate(-30.5)" fill="#fff"/>
      <rect x="125.42" y="198.47" width="0.27" height="1" transform="translate(-81.32 86.92) rotate(-29.31)" fill="#fff"/>
      <rect x="126.64" y="200.67" width="0.25" height="1.01" transform="translate(-79.86 83.5) rotate(-28.12)" fill="#fff"/>
      <polygon points="127.81 202.9 128.26 203.8 128.08 203.89 127.61 203 127.81 202.9" fill="#fff"/>
      <polygon points="128.91 205.17 129.33 206.09 129.2 206.15 128.76 205.24 128.91 205.17" fill="#fff"/>
      <polygon points="129.94 207.47 130.31 208.41 130.23 208.44 129.83 207.52 129.94 207.47" fill="#fff"/>
      <polygon points="130.83 209.83 131.13 210.79 131.09 210.8 130.77 209.85 130.83 209.83" fill="#fff"/>
      <polygon points="131.42 212.28 131.42 212.77 131.41 212.28 131.42 212.28" fill="#fff"/>
    </g>
  </g>
  <g id="outline">
    <path d="M 98.87,163.43 c 1.35,3.3,10.09,23.05,19.84,36.22,9.35,12.63,11.5,18.05,11.5,18.05 a 23.91,23.91,0,0,0-3.67-10.3 c -3.33-5.17-17.5-25.75-25.88-45.18 h 0 a 146.28,146.28,0,0,1-5.74-19.63 c -.48-2.15-1.11-5.66-1.65-9 l -.05-.18 c -.07-.47-.13-.94-.2-1.41-.46-3-.82-5.7-.88-7 h 0 a 32.84,32.84,0,0,1,65.68-.62 l 0,0 c .1,3.25.36,9.37.35,11.19.06,6,0,13.23-.35,21.13-1,21.67-6.42,49-7.35,53.91-1,5.24-4.17,10.43-6.22,11.89,8.1-2.47,8.95-11.8,13.37-41.8,2.49-16.93,2.22-29.37,2.19-44.71,0-2.9-.08-5.25-.19-7.18 a 34.85,34.85,0,1,0-69.25.11 A 118.22,118.22,0,0,0,98.87,163.43Z"/>
  </g>
<script type="text/ecmascript" xlink:href="param.min.js"/> 
</svg>
