<?xml version="1.0"?>
<svg xmlns="http://www.w3.org/2000/svg" xmlns:xlink="http://www.w3.org/1999/xlink" viewBox="0 0 600 600">
  <title>love-slogan-voluptuous</title>
  <g id="main-colour">
    <path d="M 327.57,272.06 l .61-.06 a 4.58,4.58,0,0,0,.81,3.1,2.79,2.79,0,0,0,2.66.88 l 2.58-.26 c -.06-4.46.37-8.93,0-13.4 l -2,.18 c 0-.17,0-.33-.05-.5 l 6.5-.56v.49 l -1.94.17 c .22,4.46,0,8.92.05,13.37 l 2-.2 c 0,.16,0,.33,0,.49 l -11.09,1.11 C 327.56,275.27,327.55,273.67,327.57,272.06Z" fill="param(main_colour)"/>
    <path d="M 314,271 a 10.93,10.93,0,0,1,2.07-5.57,5.54,5.54,0,0,1,4-2.67,5.41,5.41,0,0,1,4.49,1.91,6.61,6.61,0,0,1,1.71,5.14,10,10,0,0,1-2.13,5.51 A 6,6,0,0,1,320,278 a 5.11,5.11,0,0,1-4.39-1.86 A 6.53,6.53,0,0,1,314,271Z m 2.72,2.35 a 4.81,4.81,0,0,0,.76,3.29,2.61,2.61,0,0,0,2.49.89,3,3,0,0,0,2.37-1.39,7.39,7.39,0,0,0,.88-3.43 c .11-1.74.27-3.48.34-5.22 a 4.85,4.85,0,0,0-.83-3.29,2.77,2.77,0,0,0-2.54-.93,2.81,2.81,0,0,0-2.32,1.37,8.07,8.07,0,0,0-.78,3.45 C 317,269.81,316.81,271.56,316.71,273.31Z" fill="param(main_colour)"/>
    <path d="M 301.76,265.24q0-.26,0-.51 l 4.33-.39q0,.26,0,.51 L 304,265 c 1.36,3.37,2.06,6.73,3.15,10.07,1.09-3.57,2.77-7.13,3.59-10.68 l -2,.18q0-.25,0-.51 l 6.25-.56q0,.25.06.51 l -1.63.15 c -1.1,5-4,10-4.64,15 l -.57.06 c -2.32-4.7-2.81-9.43-4.71-14.19Z" fill="param(main_colour)"/>
    <path d="M 290.56,276.06 l .54-.06 a 7.07,7.07,0,0,0,1.22,3.11,2.83,2.83,0,0,0,2.66.77 l 2.54-.28 a 55.46,55.46,0,0,1-.4-6.89 l -.52.05 a 2.15,2.15,0,0,0-1.91,1.09,4.44,4.44,0,0,0-.36,2.11 l -.53.06 c -.12-2.07-.18-4.14-.26-6.22 l .56-.05 a 3.63,3.63,0,0,0,.55,1.88 c .33.51,1,.71,1.95.61 l .52-.05 c 0-2.17,0-4.34-.15-6.52 l -2.32.21 a 4.12,4.12,0,0,0-2.49.91,4.89,4.89,0,0,0-1.11,2.93 l -.55.05q-.07-2-.15-4 l 11.15-1q0,.26,0,.51 l -2,.18 c .29,4.63-.26,9.26.39,13.88 l 1.87-.21 c 0,.17.05.34.08.51 l -10.82,1.2 C 290.88,279.24,290.72,277.65,290.56,276.06Z" fill="param(main_colour)"/>
  </g>
  <g id="fixed-colours">
    <path d="M 330,273 s -14.15-2.48-21.8,3.73 C 313.64,270.73,323.17,269.52,330,273Z" opacity="0.2"/>
    <path d="M 292.54,288.54 c -7.37,1.34-12.83-1.17-19.33-5.83 C 277.62,288.88,286.14,292,292.54,288.54Z" opacity="0.4"/>
  </g>
<script type="text/ecmascript" xlink:href="param.min.js"/> 
</svg>
