<?xml version="1.0"?>
<svg xmlns="http://www.w3.org/2000/svg" xmlns:xlink="http://www.w3.org/1999/xlink" viewBox="0 0 600 600">
  <title>honey-slogan-voluptuous</title>
  <g id="main-colour">
    <path d="M 335.45,280.65q0-1.05,0-2.1 l 1-.07 c 0-1.4.1-2.8.16-4.21 l -3.84.27 c -.1,1.41-.2,2.82-.24,4.22 l 1-.07 c 0,.7,0,1.41,0,2.11 l -3.87.3 c 0-.71,0-1.41,0-2.12 l 1-.07 c .09-3.52.65-7.05.56-10.58 l -.94.06 c 0-.71-.07-1.41-.16-2.12 l 3.82-.24 c .06.7.1,1.41.11,2.11 l -.94.06 c 0,1.41,0,2.82-.11,4.23 l 3.79-.26 c .06-1.4.1-2.81.09-4.21 l -.94.06 c 0-.7,0-1.4-.08-2.11 l 3.86-.23q0,1,0,2.1 l -.94.06 c 0,3.5-.2,7-.26,10.5 l 1-.07q0,1,0,2.1Z" fill="param(main_colour)"/>
    <path d="M 321.6,281.72q-.85-.79-1.63-1.59 c -.09-3.85.91-7.7.72-11.55q.72-.91,1.35-1.81 l 4.57-.29 c .59.53,1.15,1.07,1.68,1.6.19,3.82-.6,7.65-.63,11.46-.52.6-1,1.21-1.5,1.82Z m 4.82-13.09-3.8.25 c .1,3.56-.72,7.12-.74,10.68 l 3.86-.29 C 325.79,275.73,326.53,272.18,326.42,268.63Z" fill="param(main_colour)"/>
    <path d="M 316.31,282.14 c -.5-3.43.21-6.87.47-10.3-1.87,3.55-4.2,7.11-5.16,10.68 l -1.87.15 c -.91-5,.84-10.09.22-15.13 l 1.93-.12 c .46,3.45-.25,6.91-.46,10.36,1.81-3.57,4.19-7.13,5.26-10.67 l 1.91-.12 c .76,5-1.09,10-.42,15Z" fill="param(main_colour)"/>
    <path d="M 300.46,283.44 c -.13-.73-.22-1.45-.28-2.18 l 5.58-.45 a 32.08,32.08,0,0,1,.07-4.34 l -3.81.28 c 0-.73.08-1.45.12-2.18 l 3.85-.28 c .12-1.45.23-2.89.22-4.34 l -5.87.39 c 0-.73,0-1.46-.09-2.18 l 7.78-.51 c .59,5.05-1.09,10.11-.15,15.16Z" fill="param(main_colour)"/>
    <path d="M 295.45,276.16 a 50.51,50.51,0,0,0,.38,7.66 L 294,284 a 67.68,67.68,0,0,1-.39-7.68 c -1.27-2.46-2.67-4.94-4.14-7.43 l 2-.13 c 1.1,1.86,2.14,3.72,3.1,5.57,1-2,2-4,2.83-6 l 2-.13 C 298.19,270.87,296.73,273.51,295.45,276.16Z" fill="param(main_colour)"/>
  </g>
  <g id="fixed-colours">
    <path d="M 330,273 s -14.15-2.48-21.8,3.73 C 313.64,270.73,323.17,269.52,330,273Z" opacity="0.2"/>
    <path d="M 292.54,288.54 c -7.37,1.34-12.83-1.17-19.33-5.83 C 277.62,288.88,286.14,292,292.54,288.54Z" opacity="0.4"/>
  </g>
<script type="text/ecmascript" xlink:href="param.min.js"/> 
</svg>
