<?xml version="1.0"?>
<svg xmlns="http://www.w3.org/2000/svg" xmlns:xlink="http://www.w3.org/1999/xlink" viewBox="0 0 600 600">
  <title>honey-slogan-voluptuous</title>
  <g id="main-colour">
    <path d="M 338.77,280.74q0-1.05,0-2.1 l 1-.07 c 0-1.4.1-2.8.17-4.21 l -3.84.26 c -.1,1.41-.2,2.82-.24,4.22 l 1-.07 c 0,.7,0,1.41,0,2.11 l -3.87.29 c 0-.71,0-1.41,0-2.12 l 1-.07 c .09-3.52.67-7.05.58-10.58 l -.94.06 c 0-.71-.07-1.41-.16-2.12 l 3.82-.23 c .06.7.1,1.41.11,2.11 l -.94.06 c 0,1.41,0,2.82-.12,4.23 l 3.79-.25 c .06-1.4.11-2.81.1-4.21 l -.94.06 c 0-.7,0-1.4-.08-2.11 l 3.86-.23q0,1,0,2.1 l -.94.06 c 0,3.5-.21,7-.28,10.5 l 1-.07q0,1,0,2.1Z" fill="param(main_colour)"/>
    <path d="M 324.92,281.78q-.85-.79-1.63-1.59 c -.09-3.85.93-7.7.74-11.55.48-.6.93-1.2,1.35-1.8 l 4.57-.28 c .59.54,1.15,1.07,1.68,1.61.18,3.82-.62,7.65-.65,11.46-.52.6-1,1.21-1.49,1.81Z m 4.84-13.08-3.81.24 c .1,3.56-.74,7.12-.75,10.68 l 3.86-.28 C 329.12,275.79,329.87,272.24,329.76,268.69Z" fill="param(main_colour)"/>
    <path d="M 319.63,282.19 c -.51-3.43.22-6.87.49-10.31-1.87,3.54-4.22,7.1-5.17,10.68 l -1.87.15 c -.92-5,.87-10.09.23-15.13 l 1.93-.12 c .46,3.45-.26,6.91-.48,10.36,1.81-3.57,4.2-7.13,5.27-10.66 l 1.91-.12 c .77,5-1.11,10-.43,15Z" fill="param(main_colour)"/>
    <path d="M 303.78,283.45 a 21.81,21.81,0,0,1-.27-2.18 l 5.58-.44 a 31.81,31.81,0,0,1,.07-4.34 l -3.8.28 c 0-.73.08-1.45.13-2.18 l 3.85-.27 c .12-1.45.23-2.9.22-4.34 l -5.87.38 c 0-.73,0-1.46-.1-2.18 l 7.78-.49 c .59,5.05-1.11,10.12-.16,15.16Z" fill="param(main_colour)"/>
    <path d="M 298.78,276.16 a 50.27,50.27,0,0,0,.36,7.67 l -1.87.15 a 67.54,67.54,0,0,1-.38-7.68 c -1.27-2.47-2.66-4.94-4.13-7.43 l 2-.13 c 1.1,1.86,2.14,3.72,3.09,5.57,1-2,2-4,2.84-5.95 l 2-.12 C 301.53,270.87,300.06,273.51,298.78,276.16Z" fill="param(main_colour)"/>
  </g>
  <g id="fixed-colours">
    <path d="M 330.32,276.71 s -16.25-2.23-24.72,5.17 C 311.55,274.76,322.38,273,330.32,276.71Z" opacity="0.2"/>
    <path d="M 312.66,271.88 a 13,13,0,0,0,12.68-2.33 C 322.29,270.93,316,272.33,312.66,271.88Z" opacity="0.2"/>
    <path d="M 289.64,295.38 A 30,30,0,0,1,278,290.07 a 29.52,29.52,0,0,1-9-13.13 C 269.41,287.59,279.25,296,289.64,295.38Z" opacity="0.4"/>
  </g>
<script type="text/ecmascript" xlink:href="param.min.js"/> 
</svg>
