<?xml version="1.0"?>
<svg xmlns="http://www.w3.org/2000/svg" xmlns:xlink="http://www.w3.org/1999/xlink" viewBox="0 0 250 250">
  <title>denim-shorts-voluptuous</title>
  <g id="skin-tone">
    <path d="M 96.75,165.46 c 6.85,16,14.8,27.47,22.22,39.06 a 60.28,60.28,0,0,1,8.08,13.38 h 0 a 12.48,12.48,0,0,0,15,4.14 c 8.58-2.42,8-9.38,10.8-18.2,2.76-8.62,6.64-28.64,8.53-44.94 a 60,60,0,0,1-27.55,12.38 C 120.25,173.54,104.84,168.64,96.75,165.46Z" fill="param(skin_tone)"/>
  </g>
  <g id="main-colour">
    <path d="M 163.44,125 H 86.56 a 79.24,79.24,0,0,0,5.15,28 c 1.62,4.25,1.12,7.36,2.86,11.42,8.09,3.18,25.68,9.12,39.28,6.85 A 60,60,0,0,0,161.4,158.9 c 0-.41,1.45-1,1.49-1.36 C 164.08,146.87,163.53,134.81,163.44,125Z" fill="param(main_colour)"/>
  </g>
  <g id="fixed-colours">
    <path d="M 91.92,156 s 19.58,11,37.33,9.17,33.42-15.25,33.42-15.25 l .58,7 a 52.29,52.29,0,0,1-32.92,14.58 A 73.07,73.07,0,0,1,94,163.73Z" fill="#fff" opacity="0.7"/>
    <g opacity="0.6">
      <polygon points="90.6 128.08 90.72 128.56 90.69 128.57 90.6 128.08" fill="#fff"/>
      <polygon points="91.1 130.03 91.35 131 91.16 131.04 90.97 130.06 91.1 130.03" fill="#fff"/>
      <polygon points="91.73 132.46 91.99 133.44 91.69 133.51 91.47 132.53 91.73 132.46" fill="#fff"/>
      <polygon points="92.37 134.9 92.63 135.87 92.24 135.97 92.02 134.98 92.37 134.9" fill="#fff"/>
      <polygon points="93.02 137.33 93.28 138.3 92.84 138.41 92.6 137.44 93.02 137.33" fill="#fff"/>
      <polygon points="93.67 139.76 93.94 140.73 93.48 140.86 93.22 139.88 93.67 139.76" fill="#fff"/>
      <polygon points="94.34 142.19 94.61 143.16 94.14 143.29 93.87 142.32 94.34 142.19" fill="#fff"/>
      <polygon points="95.02 144.61 95.29 145.58 94.84 145.71 94.56 144.74 95.02 144.61" fill="#fff"/>
      <polygon points="95.71 147.03 95.99 148 95.58 148.13 95.28 147.16 95.71 147.03" fill="#fff"/>
      <polygon points="96.42 149.45 96.71 150.42 96.36 150.53 96.04 149.57 96.42 149.45" fill="#fff"/>
      <polygon points="97.14 151.86 97.44 152.83 97.18 152.91 96.85 151.96 97.14 151.86" fill="#fff"/>
      <polygon points="97.89 154.28 98.19 155.24 98.07 155.28 97.71 154.34 97.89 154.28" fill="#fff"/>
      <polygon points="98.67 156.72 98.82 157.19 98.64 156.73 98.67 156.72" fill="#fff"/>
    </g>
    <path d="M 96.64,156.32 c -1-3.32-1.88-6.66-2.58-9.23 a 161.71,161.71,0,0,1-4.59-19.22,105.59,105.59,0,0,0,3.69,18.6 A 104.18,104.18,0,0,0,96.64,156.32Z" opacity="0.5"/>
  </g>
  <g id="outline">
    <path d="M 164.77,131.38 a 36.46,36.46,0,0,0-1.33-6.38 c 0,6.14-.78,15.15-1.83,24.49-28.14,24.3-57.27,12-67.39,6.43-6.36-17.24-7.62-28.1-7.66-30.45v-.19 c 0-.17,0-.26,0-.27 h 0 c -2.06,1.41-1.7,5.37-1.7,5.37 h 0 a 108.76,108.76,0,0,0,5.68,23.48 c .22,1.19,1.47,7.82,3.21,10.92 l 1.21.57 c 2.47,5.86,5,11,6.94,14.78,6.7,12.78,18.57,26.77,25.15,37.78-3.58-13-18.92-29.28-28.15-50.38 l -.23-.53 c 31.7,13.26,53.13.84,61.52-5.82-1.45,11.19-3,21.28-3.7,25.66-2.11,12.92-5.44,25.66-8.69,30.63 A 14,14,0,0,1,142,222 c 5.76-.8,8.78-4.81,12.44-15.47,4.51-15.2,6.66-33.16,8.24-47.56,1-.88,1.44-1.43,1.44-1.43 s 0-6.72-.18-10.23 C 164.69,140.71,165.12,135.2,164.77,131.38Z m -2.35,25.2 s -25.25,26.57-67.25,6.82 a 27.26,27.26,0,0,1-1.58-5.75 s 35.79,23.25,68.79-6.25 C 162.46,153.65,162.42,156.58,162.42,156.58Z"/>
  </g>
<script type="text/ecmascript" xlink:href="param.min.js"/> 
</svg>
