<?xml version="1.0"?>
<svg xmlns="http://www.w3.org/2000/svg" xmlns:xlink="http://www.w3.org/1999/xlink" viewBox="0 0 600 600">
  <title>girl-power-slogan-voluptuous</title>
  <g id="main-colour">
    <path d="M 303.62,274.31 l 4.9-.19 c -.2,2.74-.49,5.47-.79,8.2-.48,4.12-2.35,6.55-5.41,6.72 s -4.55-2.11-4.4-6.27 c .16-4.5.27-9,.06-13.55-.22-4.18,1.34-6.62,5.09-6.73 s 5.86,2.21,5.73,6.36q0,1.26-.1,2.52 l -3.38.12q0-1.39,0-2.78 c 0-1.86-.77-2.54-1.95-2.5 s -1.87.77-1.82,2.63 c .11,4.69-.12,9.37-.41,14-.11,1.85.48,2.48,1.51,2.43 s 1.73-.75,1.89-2.59 c .14-1.59.27-3.18.39-4.77 l -1.55.06Q303.55,276.16,303.62,274.31Z" fill="param(main_colour)"/>
    <path d="M 311.21,262.57 l 3.8-.1 c 0,8.6-1.46,17.21-2.8,25.77 l -3.15.16 C 310.18,279.83,311.48,271.2,311.21,262.57Z" fill="param(main_colour)"/>
    <path d="M 321.14,287.78 a 9.7,9.7,0,0,1,.42-3.11q.45-2,.9-4 c .52-2.37,0-3.22-1.55-3.16 l -1.18,0 c -.63,3.48-1.35,7-2,10.42 l -3.17.16 c 1.5-8.54,3.16-17.13,3.27-25.72 l 5.75-.14 c 3.95-.09,5.55,1.8,4.9,5.74q-.16,1-.35,2 c -.48,2.63-1.62,4.37-3.34,5.27,1.57.78,1.7,2.69,1,5.35q-.48,2-1,3.93 a 9.21,9.21,0,0,0-.42,3.07Z m .22-21.8 c -.23,2.63-.58,5.26-1,7.9 l 1.38,0 c 1.31,0,2.25-.74,2.59-2.78q.21-1.26.39-2.53 c .26-1.83-.24-2.62-1.56-2.59Z" fill="param(main_colour)"/>
    <path d="M 331.72,262.07 l 3.82-.08 c -1,7.25-3,14.52-5.17,21.77 l 5.42-.24-1.2,3.59-8.46.42 C 328.4,279.06,330.82,270.55,331.72,262.07Z" fill="param(main_colour)"/>
    <path d="M 302.71,297.59q0,1-.08,2.08 c -.08,2.56-.9,4-2.62,4.14 l -.81.06 c .07,2,.2,4,.41,6 L 298,310 a 114.17,114.17,0,0,1-.63-16.1 l 2.76-.16 C 302,293.68,302.83,295,302.71,297.59Z m -3.53-1.45 c 0,1.82-.06,3.63,0,5.44 l .83-.06 c .56,0,.86-.43.87-1.57q0-1.2.05-2.41 c 0-1.15-.26-1.49-.85-1.46Z" fill="param(main_colour)"/>
    <path d="M 303.49,297.43 c .13-2.57,1.27-4.1,3.13-4.2 s 2.69,1.3,2.42,3.85 c -.28,2.76-.49,5.53-.57,8.29-.08,2.55-.91,4.08-2.5,4.21 s -2.58-1.26-2.64-3.82 C 303.27,303,303.35,300.2,303.49,297.43Z m 1.53,8.36 c 0,1.14.36,1.55.88,1.51 s .86-.5.87-1.64 c 0-2.87.2-5.74.45-8.62.1-1.14-.23-1.55-.82-1.52 s -1,.49-1.08,1.64 C 305.13,300,305,302.91,305,305.79Z" fill="param(main_colour)"/>
    <path d="M 313.81,300.35 c -.55,2.83-1,5.66-1.27,8.5 l -2.26.19 a 136.13,136.13,0,0,1,0-15.84 l 1.84-.11 c -.27,4.17-.45,8.33-.38,12.48 A 121.13,121.13,0,0,1,314,293 l 1.83-.11 c -.42,4.19-.77,8.37-.85,12.54 a 123.13,123.13,0,0,1,2.79-12.65 l 1.67-.1 a 111.43,111.43,0,0,0-3.55,15.91 l -2.19.18 C 313.65,306,313.69,303.16,313.81,300.35Z" fill="param(main_colour)"/>
    <path d="M 320.93,299.16 l 2.49-.17q-.24,1.12-.46,2.25 l -2.44.17 c -.26,1.54-.49,3.08-.68,4.61 l 2.94-.23q-.17,1.12-.31,2.25 l -4.54.37 a 123.87,123.87,0,0,1,2.5-15.8 l 5.22-.3q-.29,1.13-.57,2.25 l -3.25.2Q321.36,297,320.93,299.16Z" fill="param(main_colour)"/>
    <path d="M 327,307.67 a 6.33,6.33,0,0,1,.19-1.91q.24-1.23.51-2.46 c .32-1.45.1-2-.71-1.91 l -.61,0 c -.47,2.13-.88,4.25-1.2,6.38 l -1.67.14 a 129.14,129.14,0,0,1,3.35-15.71 l 2.9-.16 c 2-.11,2.48,1,1.75,3.44 l -.36,1.23 a 5.3,5.3,0,0,1-2.06,3.25 c .77.45.75,1.61.36,3.24q-.28,1.2-.53,2.41 a 6.07,6.07,0,0,0-.19,1.88Z m 1.14-13.29 c -.44,1.61-.86,3.21-1.25,4.82 l .71,0 c .68,0,1.19-.48,1.53-1.73 l .43-1.54 c .32-1.12.17-1.59-.5-1.55Z" fill="param(main_colour)"/>
  </g>
  <g id="fixed-colours">
    <path d="M 330.32,276.71 s -16.25-2.23-24.72,5.17 C 311.55,274.76,322.38,273,330.32,276.71Z" opacity="0.2"/>
    <path d="M 312.66,271.88 a 13,13,0,0,0,12.68-2.33 C 322.29,270.93,316,272.33,312.66,271.88Z" opacity="0.2"/>
    <path d="M 289.64,295.38 A 30,30,0,0,1,278,290.07 a 29.52,29.52,0,0,1-9-13.13 C 269.41,287.59,279.25,296,289.64,295.38Z" opacity="0.4"/>
  </g>
<script type="text/ecmascript" xlink:href="param.min.js"/> 
</svg>
