<?xml version="1.0"?>
<svg xmlns="http://www.w3.org/2000/svg" xmlns:xlink="http://www.w3.org/1999/xlink" viewBox="0 0 250 250">
  <title>curvy-bottoms-template</title>
  <g id="main-colour">
    <path d="M 157.85,125 H 92.15 c -.76,3.78-.6,3.34,0,6.14,3.25,15.12,7.41,32.58,12.91,44.33 s 22.49,31.18,25.15,42.23 h 0 a 10.05,10.05,0,0,0,18.54-.22 h .74 s 2-4.1,3.78-16.51,4.61-27.58,5.32-39.33.56-18.63.48-28.71 A 22.6,22.6,0,0,0,157.85,125Z" fill="param(main_colour)"/>
  </g>
  <g id="outline">
    <path d="M 157.88,125 a 309.44,309.44,0,0,1,0,31.72 c -1,21.67-6.42,49-7.35,53.91-1,5.24-4.17,10.43-6.22,11.89,8.1-2.47,8.95-11.8,13.37-41.8 A 224.75,224.75,0,0,0,159.83,136,43.81,43.81,0,0,0,157.88,125Z"/>
    <path d="M 130.21,217.7 a 23.91,23.91,0,0,0-3.67-10.3 c -3.33-5.17-17.5-25.75-25.88-45.18-.87,0-1.79,1.21-1.79,1.21 s 10.09,23.05,19.84,36.22 C 128.06,212.28,130.21,217.7,130.21,217.7Z"/>
    <path d="M 100.66,162.22 h 0 A 149.42,149.42,0,0,1,92.15,125 a 9.06,9.06,0,0,0-1.6,2.86 c -.56,1.9.16,6.92.15,6.92,1.09,7.35,2.73,13.12,7.49,26.77.22.63.44,1.25.67,1.88 C 98.9,163.45,100,164,100.66,162.22Z"/>
  </g>
<script type="text/ecmascript" xlink:href="param.min.js"/> 
</svg>
