<?xml version="1.0"?>
<svg xmlns="http://www.w3.org/2000/svg" xmlns:xlink="http://www.w3.org/1999/xlink" viewBox="0 0 600 600">
  <title>girl-power-slogan-voluptuous</title>
  <g id="main-colour">
    <path d="M 304.4,273.13 l 5-.15 c -.23,2.56-.55,5.11-.88,7.65-.52,3.84-2.44,6.11-5.54,6.26 s -4.61-2-4.44-5.87 c .19-4.21.32-8.43.13-12.66-.19-3.91,1.42-6.18,5.27-6.26 s 6,2.1,5.81,6q-.05,1.18-.13,2.35 l -3.45.1q.05-1.3.07-2.6 c 0-1.73-.77-2.37-2-2.35 s -1.92.71-1.88,2.45 c .08,4.38-.19,8.76-.51,13.11-.13,1.73.48,2.32,1.52,2.28 s 1.76-.69,1.94-2.41 c .15-1.48.3-3,.43-4.45 l -1.58.05Q304.31,274.87,304.4,273.13Z" fill="param(main_colour)"/>
    <path d="M 312.28,262.22 l 3.9-.07 c -.07,8-1.7,16.05-3.15,24 l -3.2.14 C 311,278.32,312.45,270.27,312.28,262.22Z" fill="param(main_colour)"/>
    <path d="M 322.11,285.77 a 8.35,8.35,0,0,1,.47-2.9q.49-1.86,1-3.73 c .57-2.21.06-3-1.54-3 l -1.21,0 c -.69,3.24-1.46,6.48-2.21,9.7 l -3.22.14 c 1.62-8,3.42-16,3.66-24 l 5.9-.1 c 4.05-.06,5.66,1.71,4.93,5.38q-.18.93-.39,1.87 a 6.54,6.54,0,0,1-3.5,4.89 c 1.59.73,1.69,2.51,1,5q-.52,1.83-1.05,3.65 a 8,8,0,0,0-.48,2.85Z m .53-20.32 c -.27,2.45-.67,4.91-1.15,7.36 l 1.41,0 c 1.34,0,2.31-.68,2.69-2.58q.23-1.18.44-2.35 c .29-1.71-.2-2.44-1.56-2.42Z" fill="param(main_colour)"/>
    <path d="M 333.33,261.86 l 3.92-.05 c -1.13,6.74-3.38,13.5-5.69,20.24 l 5.52-.21-1.29,3.34-8.62.37 C 329.63,277.67,332.24,269.76,333.33,261.86Z" fill="param(main_colour)"/>
    <path d="M 303.33,294.87q-.05,1-.09,1.95 c -.09,2.39-.93,3.75-2.66,3.87 l -.82.05 c .07,1.88.19,3.76.39,5.64 l -1.62.12 a 99.26,99.26,0,0,1-.59-15 l 2.8-.15 C 302.65,291.22,303.47,292.48,303.33,294.87Z m -3.57-1.36 c -.05,1.7-.07,3.39-.05,5.09 l .84-.05 c .56,0,.87-.4.89-1.47q0-1.12.06-2.25 c 0-1.07-.26-1.4-.85-1.36Z" fill="param(main_colour)"/>
    <path d="M 304.12,294.72 c .15-2.4,1.31-3.82,3.19-3.91 s 2.71,1.22,2.42,3.6 c -.31,2.58-.54,5.16-.65,7.74-.1,2.38-.95,3.81-2.55,3.93 s -2.58-1.18-2.63-3.57 C 303.87,299.91,304,297.32,304.12,294.72Z m 1.49,7.81 c 0,1.07.35,1.45.88,1.41 s .86-.47.89-1.53 c .06-2.68.25-5.36.52-8,.11-1.07-.22-1.45-.82-1.42 s -1,.46-1.1,1.53 C 305.75,297.16,305.61,299.84,305.61,302.53Z" fill="param(main_colour)"/>
    <path d="M 314.53,297.47 a 77.46,77.46,0,0,0-1.38,7.93 l -2.27.17 a 118.18,118.18,0,0,1,.13-14.78 l 1.87-.1 c -.31,3.89-.54,7.77-.51,11.64 a 104.78,104.78,0,0,1,2.47-11.74 l 1.86-.09 c -.48,3.91-.87,7.8-1,11.69 a 106.86,106.86,0,0,1,3-11.79 l 1.69-.08 a 97.06,97.06,0,0,0-3.79,14.83 l -2.21.17 C 314.3,302.7,314.37,300.09,314.53,297.47Z" fill="param(main_colour)"/>
    <path d="M 321.74,296.37 l 2.52-.15q-.26,1-.5,2.09 l -2.47.16 c -.29,1.43-.54,2.87-.76,4.3 l 3-.21q-.19,1-.35,2.09 l -4.58.34 a 107.48,107.48,0,0,1,2.74-14.73 l 5.31-.26q-.31,1-.61,2.1 l -3.3.17Q322.2,294.32,321.74,296.37Z" fill="param(main_colour)"/>
    <path d="M 327.74,304.31 a 5.48,5.48,0,0,1,.23-1.78q.26-1.14.55-2.29 c .35-1.35.14-1.83-.69-1.78 l -.62,0 c -.51,2-1,4-1.32,5.94 l -1.69.13 a 112.64,112.64,0,0,1,3.64-14.63 l 3-.15 c 2-.1,2.5,1,1.71,3.21 l -.39,1.14 a 5,5,0,0,1-2.15,3 c .77.42.73,1.5.31,3q-.31,1.12-.58,2.24 a 5.25,5.25,0,0,0-.23,1.75Z m 1.38-12.37 c -.47,1.5-.92,3-1.34,4.48 l .72,0 c .69,0,1.21-.44,1.57-1.61 l .46-1.44 c .34-1,.2-1.48-.48-1.45Z" fill="param(main_colour)"/>
  </g>
  <g id="fixed-colours">
    <path d="M 334.57,274.55 s -18.28-1.27-27.17,7.62 C 313.49,273.78,325.43,271,334.57,274.55Z" opacity="0.2"/>
    <path d="M 314.51,270.48 s 7.87,2.54,14-3.55 C 325.17,268.71,318.32,270.74,314.51,270.48Z" opacity="0.2"/>
    <path d="M 295.07,297.54 c -12.33-.33-23.33-7.33-30-19.9 C 268.07,292.71,281.6,300.9,295.07,297.54Z" opacity="0.4"/>
  </g>
<script type="text/ecmascript" xlink:href="param.min.js"/> 
</svg>
