<?xml version="1.0"?>
<svg xmlns="http://www.w3.org/2000/svg" xmlns:xlink="http://www.w3.org/1999/xlink" viewBox="0 0 600 600">
  <title>professionally-pink-scarf-curvy</title>
  <g id="main-colour">
    <path d="M 279.45,217.5 s -5.62,2.19-8.44,4.75-2.44,4.63-1,6.63 c -2.25,1.5-3.19,4.81,1,8.25 s 13.63,9.31,34.75,13.88 c -.11,2,3.1,2.25,3.1,2.25 s .07,4.16-4,11.88 c -4.25,8.13-8.71,17-11.62,28 s 2.08,24.08,8.5,28.75 c 1.42-8.5,5.29-15,8.13-16.25-1.75-2.67-4.25-11.5-1.37-21.87,2.4-8.68,7.17-21.42,5.42-30.5 a 12.67,12.67,0,0,0,3.36-.71,45.86,45.86,0,0,0,2.54,8.08 c 1.58,3.5,10.5,13.63,10.75,25.38 a 19.39,19.39,0,0,1-1.69,7 s 7.19,6.94,8.88,16 c 6.17-7.75,6.41-18.13,3.06-28.12-4.56-13.62-17.06-20.87-20.19-30.44.33-1.58.65-2.73.65-2.73 s 5.92-6.25,8.33-12.08,1.42-9.42-1.92-10.17 c -.17-3.75-8.08-6.42-8.08-6.42 s 4.58,3.92.42,8.67 a 22.92,22.92,0,0,1-.92,15.25 c -4.08-1.08-12.58.5-13.62,2.92-4.12-.92-16-7.5-22.21-12.67 s -10.08-9.67-2.5-13.83 A 3.46,3.46,0,0,1,279.45,217.5Z" fill="param(main_colour)"/>
  </g>
  <g id="outline">
    <path d="M 343.4,288.63 c -1.36-12.55-8.26-20.8-14-26.41 a 38.32,38.32,0,0,1-8.38-11.55,2.84,2.84,0,0,0,.75-2 c 0-.1,0-.2,0-.29 a 70.67,70.67,0,0,0,7.63-10.58 c 2.5-4.5,2.88-9,1.75-10.87 a 4.61,4.61,0,0,0-2.64-1.93,3.7,3.7,0,0,0-.36-.82 c -2.37-4-8.25-5.62-8.25-5.62 a 4.11,4.11,0,0,1-.33.65 c -.13.15-.45.51-1,1.1,1.69.75,3.56,2.75,2.25,5.38 s -5.81,5.63-5.81,5.63 a 13.81,13.81,0,0,0,4.93-2.73 c .46,1.5,1.59,6.56-1,13.67-1.4-.43-3.56-.41-6.87.1-2.92.45-6.58,1.38-7.53,3.13 a 116,116,0,0,1-16.39-9.3,86.34,86.34,0,0,1-7.55-5.84,30.56,30.56,0,0,0,6.68,2.22 s -7.62-2.12-9.44-6.31 c -1.5-3.46,1.77-5.29,3-5.83 a 26.5,26.5,0,0,0,8.16,4.14 c -4.12-2.19-8.31-4.81-8.75-7.81 s 3.06-4.19,5.13-4.37 a 17.33,17.33,0,0,1-.62,3.94 l 1.69.44 a 25.18,25.18,0,0,0,.88-6.44 c -4.37,0-8.12,1.44-8.81,5.13 a 4.05,4.05,0,0,0,.1,1.91 c -1.91.69-9.25,3.57-10.66,7.59 a 3.84,3.84,0,0,0,.91,3.41 c -1.07.52-2.62,1.9-1.41,5.46,1.74,5.09,15.57,13,37.81,17.9.29,1,1.47,1.69,3.06,2-.38,2-1.67,7.08-5.77,14.34-5.31,9.4-10.14,19.62-10.57,30.65 s 3.82,20.3,10.27,24.24 c .64-8.53,5.75-15.64,8.36-16.87-4.53-8.48-1.95-20.44.28-27.42,2.18-6.81,5.81-18.82,4-25 l .53-.1 c .57-.12,1.11-.26,1.61-.42 h 0 s .44,4.73,5.67,12.8,10,20.34,5.37,27.18 c 7.21,5.56,9.4,17.64,9.4,17.64 S 344.76,301.18,343.4,288.63Z m -22.53-61.11 a 9.5,9.5,0,0,0,1.21-1.71,4.36,4.36,0,0,0-.72-5.34 c 2.59,1.26,5.75,3.53,6,6,.38,3.25-2.75,10.5-2.75,10.5 s 4.11-6.23,4-10.61 c 2,1.08,2.67,4.57,0,10.11 a 52.75,52.75,0,0,1-7.2,10.64,5,5,0,0,0-.74-1.27,2.16,2.16,0,0,0,.19-2.17,2.83,2.83,0,0,0-1.07-1.13 C 320.54,240.95,323.12,234.32,320.87,227.52Z m -50.75,2.33 c 3.59,3.68,10,7.15,10,7.15 s -8.5-6.37-10-9.75,3.57-6.36,9.06-8.6 c .11.17.24.33.37.49 a 5.66,5.66,0,0,0-3.81,6.17 h 0 a 12.27,12.27,0,0,1-1.13-1.7 s 1.24,9.8,29.65,23 a 2.14,2.14,0,0,0,1.05,1.68,5.85,5.85,0,0,0-.3,2 c -4-1-23.53-6-31.15-11.82 C 266.88,233.15,268.7,230.85,270.12,229.85Z m 41.95,38.86 c -2.74,9.82-8.8,24.3-3.46,37.09-4.89,4.05-7.34,10.3-7,15-3.74-2.53-8.54-10.22-8.36-20.33 S 297.68,280,301,274 c 3.17-5.66,7.93-16,8.5-20.12 a 18.41,18.41,0,0,0,3.75,0 C 313.61,255.55,314.28,260.76,312.07,268.71Z m -.85-16 c -3.9-.08-5.37-.55-4.9-3.94 a 14.06,14.06,0,0,0,3.9.69 c -6.75-1.67-3.67-4.17-.33-5.25 s 7.42-1.25,9.33-.33.17,2.83-2.17,4.92 a 9.49,9.49,0,0,0,3-2.12,3.41,3.41,0,0,1,0,3.2 C 319.14,251.63,315.3,252.79,311.22,252.71Z m 26.71,54.57 a 29.94,29.94,0,0,0-8.27-14.5 c 3.58-7,.71-14.18-1.83-19.67 s -5.71-9.9-7.67-13.69 a 30.53,30.53,0,0,1-2.49-6.56,9.38,9.38,0,0,0,2.71-1.52,38.75,38.75,0,0,0,7.46,11.32 c 6.24,6.94,13,15.07,13.84,26.43 S 337.93,307.28,337.93,307.28Z"/>
  </g>
<script type="text/ecmascript" xlink:href="param.min.js"/> 
</svg>
