<?xml version="1.0"?>
<svg xmlns="http://www.w3.org/2000/svg" xmlns:xlink="http://www.w3.org/1999/xlink" viewBox="0 0 600 600">
  <title>love-slogan-curvy</title>
  <g id="main-colour">
    <path d="M 304.35,280.8 l -10.58,1,0-.52,1.89-.18 c -.43-4.66-.41-9.32-.7-14 l -2,.16,0-.52,6.71-.52q0,.26,0,.52 l -2.1.16 c .27,4.66,0,9.31.54,14 l 2.45-.24 a 2.79,2.79,0,0,0,2.38-1.42,7.31,7.31,0,0,0,.74-3.36 l .6-.05 A 28.66,28.66,0,0,0,304.35,280.8Z" fill="param(main_colour)"/>
    <path d="M 315.85,277.71 c -1.17,1.65-2.38,2.56-3.95,2.71 a 5.24,5.24,0,0,1-4.42-1.91,7,7,0,0,1-1.79-5.28,10.09,10.09,0,0,1,2-5.58 A 5.68,5.68,0,0,1,311.9,265 a 5.46,5.46,0,0,1,4.49,2,6.53,6.53,0,0,1,1.58,5.25 A 11.26,11.26,0,0,1,315.85,277.71Z m -.57-7.93 a 4.93,4.93,0,0,0-.75-3.34,3.23,3.23,0,0,0-4.95.39,7.52,7.52,0,0,0-.84,3.48 c -.09,1.77-.25,3.55-.29,5.32 a 5,5,0,0,0,.86,3.34,2.7,2.7,0,0,0,2.51.94,2.66,2.66,0,0,0,2.25-1.38,8.15,8.15,0,0,0,.79-3.47 C 315,273.31,315.16,271.54,315.27,269.78Z" fill="param(main_colour)"/>
    <path d="M 328.67,264.53 c -.88,4.9-3.83,9.83-4.87,14.77 l -.58.05 c -2.11-4.66-2.24-9.36-4.31-14.08 l -1.63.13q0-.25-.06-.51 l 6.2-.47q0,.25.07.5 l -2,.15 c 1.5,3.34,2,6.67,2.92,10,1.33-3.51,3-7,3.68-10.48 l -2,.15q0-.25-.07-.5 l 4.22-.32q0,.25.07.5Z" fill="param(main_colour)"/>
    <path d="M 341.51,277.41 l -11.36,1q0-.25,0-.5 l 2-.17 c -.09-4.49.79-9,.32-13.48 l -1.92.14q0-.25-.07-.5 l 10.82-.79 c .07,1.27.12,2.54.15,3.81 l -.53,0 a 4,4,0,0,0-1.25-2.59,3.8,3.8,0,0,0-2.46-.47 l -2.24.17 a 44.23,44.23,0,0,1,0,6.29 l .52,0 a 2.34,2.34,0,0,0,2-.93,3.66,3.66,0,0,0,.52-1.89 l .54,0 c 0,2-.11,4-.17,6 l -.56,0 a 3.78,3.78,0,0,0-.39-1.94 c -.3-.55-.94-.78-1.92-.7 l -.53,0 c -.12,2.22-.27,4.44-.25,6.66 l 2.68-.23 A 3.53,3.53,0,0,0,340,276 a 7.33,7.33,0,0,0,1.09-3.16 l .57,0Q341.61,275.12,341.51,277.41Z" fill="param(main_colour)"/>
  </g>
  <g id="fixed-colours">
    <path d="M 271.89,276.93 a 20,20,0,0,0,22.17,18.45,31.9,31.9,0,0,1-11.43-4.1 C 277.34,287.87,274.39,283.63,271.89,276.93Z" opacity="0.4"/>
    <path d="M 333.23,274.55 s -18.28-1.27-27.17,7.62 C 312.16,273.78,324.09,271,333.23,274.55Z" opacity="0.2"/>
    <path d="M 313.18,270.48 s 7.87,2.54,14-3.55 C 323.84,268.71,317,270.74,313.18,270.48Z" opacity="0.2"/>
  </g>
<script type="text/ecmascript" xlink:href="param.min.js"/> 
</svg>
