<?xml version="1.0"?>
<svg xmlns="http://www.w3.org/2000/svg" xmlns:xlink="http://www.w3.org/1999/xlink" viewBox="0 0 250 250">
  <title>basic-jeans-hourglass</title>
  <g id="main-colour">
    <path d="M 150.5,125.31 h 0 a 25.5,25.5,0,0,0-51-.62 h 0 s -.57,19.34,5.1,32.9 c 8.77,21,13.1,32.45,16,39.48 s 4.39,19,4.92,19.59 h .11 c 0,.2,0,.39,0,.6 a 6.74,6.74,0,0,0,11.15,5.19 l .08.06 a 12.15,12.15,0,0,0,2.84-3.72 c 1.19-3,3.88-13.52,6.35-34.93,2.82-24.53,4.68-46.23,4.77-56.47Z" fill="param(main_colour)"/>
  </g>
  <g id="fixed-colours">
    <path d="M 101.47,127.32 s 2.92,20.08,9.5,38.33 c 5.69,15.77,8.9,23.27,10.75,27.75,2.75,6.66,6,16.92,5.88,22.88-.79-7.46-4.68-18.34-6.62-23.12 A 368,368,0,0,1,107.22,156 C 101.92,138.38,101.47,127.32,101.47,127.32Z" opacity="0.5"/>
    <g opacity="0.6">
      <polygon points="102.47 127.4 102.57 127.89 102.56 127.89 102.47 127.4" fill="#fff"/>
      <polygon points="102.86 129.37 103.05 130.35 102.99 130.36 102.81 129.37 102.86 129.37" fill="#fff"/>
      <polygon points="103.36 131.82 103.56 132.8 103.45 132.82 103.26 131.84 103.36 131.82" fill="#fff"/>
      <polygon points="103.88 134.27 104.09 135.25 103.92 135.28 103.73 134.3 103.88 134.27" fill="#fff"/>
      <polygon points="104.41 136.72 104.63 137.7 104.41 137.74 104.21 136.76 104.41 136.72" fill="#fff"/>
      <polygon points="104.96 139.16 105.17 140.14 104.92 140.2 104.71 139.22 104.96 139.16" fill="#fff"/>
      <polygon points="105.51 141.61 105.73 142.59 105.46 142.65 105.24 141.67 105.51 141.61" fill="#fff"/>
      <polygon points="106.07 144.05 106.31 145.02 106.02 145.09 105.79 144.11 106.07 144.05" fill="#fff"/>
      <polygon points="106.66 146.48 106.9 147.46 106.59 147.53 106.36 146.56 106.66 146.48" fill="#fff"/>
      <polygon points="107.26 148.92 107.51 149.89 107.19 149.97 106.95 148.99 107.26 148.92" fill="#fff"/>
      <polygon points="107.89 151.34 108.15 152.31 107.81 152.4 107.56 151.43 107.89 151.34" fill="#fff"/>
      <polygon points="108.54 153.76 108.81 154.73 108.46 154.82 108.19 153.85 108.54 153.76" fill="#fff"/>
      <rect x="108.99" y="156.2" width="0.38" height="1" transform="matrix(0.96, -0.28, 0.28, 0.96, -39.44, 36.75)" fill="#fff"/>
      <rect x="109.69" y="158.61" width="0.4" height="1" transform="translate(-41.83 39.22) rotate(-17.05)" fill="#fff"/>
      <rect x="110.42" y="161" width="0.42" height="1" transform="translate(-44.56 42.18) rotate(-18.03)" fill="#fff"/>
      <rect x="111.21" y="163.38" width="0.44" height="1" transform="translate(-47.71 45.78) rotate(-19.21)" fill="#fff"/>
      <polygon points="112.3 165.7 112.64 166.65 112.2 166.8 111.87 165.85 112.3 165.7" fill="#fff"/>
      <polygon points="113.15 168.06 113.49 169 113.05 169.16 112.71 168.22 113.15 168.06" fill="#fff"/>
      <polygon points="114.02 170.41 114.37 171.35 113.91 171.52 113.56 170.58 114.02 170.41" fill="#fff"/>
      <polygon points="114.9 172.75 115.25 173.69 114.8 173.87 114.44 172.93 114.9 172.75" fill="#fff"/>
      <polygon points="115.79 175.1 116.14 176.03 115.7 176.2 115.34 175.27 115.79 175.1" fill="#fff"/>
      <polygon points="116.69 177.43 117.05 178.37 116.63 178.53 116.26 177.6 116.69 177.43" fill="#fff"/>
      <polygon points="117.6 179.77 117.97 180.7 117.56 180.86 117.19 179.93 117.6 179.77" fill="#fff"/>
      <polygon points="118.52 182.1 118.9 183.03 118.51 183.19 118.13 182.26 118.52 182.1" fill="#fff"/>
      <polygon points="119.46 184.42 119.83 185.35 119.46 185.51 119.08 184.58 119.46 184.42" fill="#fff"/>
      <polygon points="120.39 186.75 120.77 187.68 120.41 187.83 120.03 186.9 120.39 186.75" fill="#fff"/>
      <polygon points="121.32 189.08 121.69 190.01 121.35 190.15 120.98 189.22 121.32 189.08" fill="#fff"/>
      <rect x="122.08" y="191.44" width="0.35" height="1" transform="translate(-60.63 56.51) rotate(-20.98)" fill="#fff"/>
      <polygon points="123.13 193.76 123.46 194.71 123.14 194.82 122.81 193.88 123.13 193.76" fill="#fff"/>
      <polygon points="123.93 196.15 124.23 197.1 123.93 197.2 123.62 196.25 123.93 196.15" fill="#fff"/>
      <polygon points="124.68 198.54 124.97 199.5 124.69 199.59 124.39 198.63 124.68 198.54" fill="#fff"/>
      <polygon points="125.41 200.94 125.69 201.9 125.43 201.98 125.14 201.02 125.41 200.94" fill="#fff"/>
      <rect x="125.99" y="203.37" width="0.26" height="1" transform="translate(-50.18 41.42) rotate(-15.6)" fill="#fff"/>
      <polygon points="126.77 205.77 127.01 206.75 126.8 206.8 126.54 205.83 126.77 205.77" fill="#fff"/>
      <polygon points="127.36 208.21 127.58 209.19 127.43 209.22 127.19 208.25 127.36 208.21" fill="#fff"/>
      <polygon points="127.88 210.66 128.06 211.65 127.96 211.67 127.76 210.69 127.88 210.66" fill="#fff"/>
      <polygon points="128.28 213.14 128.38 214.14 128.34 214.15 128.22 213.15 128.28 213.14" fill="#fff"/>
      <polygon points="128.4 215.65 128.35 216.15 128.39 215.65 128.4 215.65" fill="#fff"/>
    </g>
  </g>
  <g id="outline">
    <path d="M 107.32,161.74 c -7-19.68-7.47-31.79-7.81-36.76v0 a 3.87,3.87,0,0,0-1.83,3 c .08,9.63,2.36,20.47,6.34,31.55,6.25,17.42,10.71,28.8,14.1,36.56 a 133.14,133.14,0,0,1,7,22.08 c 2.19-2.07-1.93-14.07-5.71-24.4 C 118,190.12,112.88,177.48,107.32,161.74Z"/>
    <path d="M 150.51,125.06 c .22,4.46,0,11.07-1.23,21.49 l -.15,2 c -1,13.16-2.64,22-3.57,30.08-1,8.23-2.26,23.67-3.62,29.19 s -1.67,11.76-5.09,14.7 c 6.39-2.18,9.2-29.15,10.23-39.1,1.34-13.05,3.89-28.65,4.74-42.82.18-2.94.07-5.54,0-7.84 A 35.83,35.83,0,0,0,150.51,125.06Z"/>
    <path d="M 99.5,125 h 0 c 0-.09,0-.18,0-.28 A 25.5,25.5,0,0,1,125.3,99.5 h 0 a 25.5,25.5,0,0,1,25.18,24.94 h 0 s .07,6.23-.21,11.34 a 27.49,27.49,0,0,0-25-38.28 h 0 a 27.48,27.48,0,0,0-24.28,41 A 76.54,76.54,0,0,1,99.5,125Z"/>
  </g>
<script type="text/ecmascript" xlink:href="param.min.js"/> 
</svg>
