<?xml version="1.0"?>
<svg xmlns="http://www.w3.org/2000/svg" xmlns:xlink="http://www.w3.org/1999/xlink" viewBox="0 0 600 600">
  <title>girl-power-slogan-voluptuous</title>
  <g id="main-colour">
    <path d="M 334.21,274.9 l -1.63.13 c -.37,1.45-.76,2.89-1.15,4.34-.46,1.68,0,2.22,1.14,2.13 s 2-.76,2.47-2.43 c 1.29-4.22,2.49-8.46,3.37-12.69.35-1.68-.33-2.27-1.56-2.2 s -2.09.77-2.39,2.45q-.23,1.27-.5,2.53 l -3.53.25q.21-1.15.4-2.3 c .59-3.8,2.7-6.09,6.6-6.3 s 5.65,1.81,4.74,5.56 c -1,4.06-2.22,8.12-3.57,12.17-1.24,3.73-3.69,6-6.95,6.33 s -4.37-1.67-3.45-5.45 c .62-2.5,1.21-5,1.73-7.5 l 5.14-.38Q334.67,273.22,334.21,274.9Z" fill="param(main_colour)"/>
    <path d="M 324.66,285.27 l -3.29.32 c 1.65-7.89,3.39-15.84,3.71-23.79 l 3.91-.24 C 328.48,269.48,326.52,277.4,324.66,285.27Z" fill="param(main_colour)"/>
    <path d="M 308.93,286.84 a 9.05,9.05,0,0,0,.64-2.94q.19-1.85.37-3.7 c .24-2.5,1-4.38,2.79-5.31-1.51-.66-2.13-2.21-2-4.7q0-.95.05-1.9 c 0-3.73,1.59-5.68,5.63-5.93 l 5.86-.38 c -.17,8-1.76,15.93-3.25,23.84 l -3.26.32 c .51-3.23,1-6.46,1.49-9.71 l -1.21.1 c -1.6.13-2.38,1-2.65,3.24q-.23,1.88-.48,3.76 a 9.53,9.53,0,0,1-.67,3Z m 7.53-21.05 c -1.35.09-1.93.89-2,2.61q-.06,1.19-.14,2.37 c -.14,1.92.61,2.48,1.95,2.37 l 1.41-.11 c .29-2.45.51-4.91.62-7.37Z" fill="param(main_colour)"/>
    <path d="M 307.18,287 l -8.39.88q0-1.72,0-3.45 l 5.36-.53 a 134.66,134.66,0,0,0,.07-20.74 l 3.84-.26 C 308.67,271,307.84,279,307.18,287Z" fill="param(main_colour)"/>
    <path d="M 332.45,288.86 l 3-.3 a 148.72,148.72,0,0,0-4.1,14.47 l -1.76.24 c .36-1.81.78-3.63,1.24-5.44 l -.88.11 c -1.84.23-2.48-.93-1.91-3.26q.23-.95.48-1.89 C 329.09,290.43,330.43,289.06,332.45,288.86Z m -.62,2.08 c -.63.07-1.07.44-1.36,1.47q-.3,1.09-.59,2.18 c -.27,1,0,1.33.57,1.26 l .89-.1 c .45-1.64.92-3.27,1.42-4.91Z" fill="param(main_colour)"/>
    <path d="M 326,300.33 c -.44,2.33-1.55,3.78-3.24,4 s -2.48-1-2.18-3.32 c .34-2.54.77-5.08,1.27-7.62.46-2.35,1.82-3.81,3.77-4 s 2.67,1,2.07,3.36 C 327.05,295.28,326.47,297.81,326,300.33Z m -.21-7.51 c .25-1,0-1.4-.67-1.33 s -1.1.51-1.33,1.55 c -.56,2.64-1.07,5.27-1.46,7.9-.15,1,.15,1.39.7,1.32 s 1-.52,1.14-1.56 C 324.62,298.08,325.17,295.45,325.79,292.82Z" fill="param(main_colour)"/>
    <path d="M 314.71,305.32 l -2.22.32 a 140.22,140.22,0,0,1-.23-14.64 l 1.69-.18 c -.19,3.89-.31,7.76-.22,11.63 a 119.23,119.23,0,0,1,2.2-11.84 l 1.88-.2 c -.34,3.85-.62,7.68-.69,11.51.67-3.91,1.62-7.82,2.69-11.72 l 1.92-.2 a 112.61,112.61,0,0,0-3.48,14.85 l -2.32.33 c -.09-2.59-.07-5.17,0-7.76 C 315.42,300,315,302.67,314.71,305.32Z" fill="param(main_colour)"/>
    <path d="M 309.18,293.44 l -3.25.37q.05-1.07.12-2.13 l 5.25-.58 a 116.76,116.76,0,0,0-.82,14.83 l -4.49.65q-.08-1.06-.12-2.13 l 2.91-.41 c 0-1.45,0-2.9,0-4.35 l -2.43.31q0-1.06,0-2.13 l 2.48-.31Q309,295.51,309.18,293.44Z" fill="param(main_colour)"/>
    <path d="M 299.94,307.47 a 7,7,0,0,0-.06-1.85q-.14-1.16-.24-2.31 c -.14-1.56.07-2.74.92-3.34-.8-.39-1.23-1.35-1.29-2.89q0-.59,0-1.18 c -.06-2.32.79-3.55,2.75-3.77 l 2.87-.32 a 112.55,112.55,0,0,0,.11,14.92 l -1.63.24 c -.21-2-.34-4.05-.4-6.08 l -.6.08 c -.79.1-1.12.66-1,2.05q.08,1.17.2,2.35 a 7.28,7.28,0,0,1,.06,1.86Z M 302,294.27 c -.66.08-.95.58-.94,1.65q0,.74,0,1.48 c 0,1.2.45,1.53,1.11,1.45 l .7-.09 c 0-1.53,0-3.06,0-4.59Z" fill="param(main_colour)"/>
  </g>
  <g id="fixed-colours">
    <path d="M 334.57,274.55 s -18.28-1.27-27.17,7.62 C 313.49,273.78,325.43,271,334.57,274.55Z" opacity="0.2"/>
    <path d="M 314.51,270.48 s 7.87,2.54,14-3.55 C 325.17,268.71,318.32,270.74,314.51,270.48Z" opacity="0.2"/>
    <path d="M 295.07,297.54 c -12.33-.33-23.33-7.33-30-19.9 C 268.07,292.71,281.6,300.9,295.07,297.54Z" opacity="0.4"/>
  </g>
<script type="text/ecmascript" xlink:href="param.min.js"/> 
</svg>
