<?xml version="1.0"?>
<svg xmlns="http://www.w3.org/2000/svg" xmlns:xlink="http://www.w3.org/1999/xlink" viewBox="0 0 600 600">
  <title>sassy-slogan-voluptuous</title>
  <g id="main-colour">
    <path d="M 300.8,269.59 l -1.13.09 c 0-1.33-.09-2.65-.15-4 a 1.29,1.29,0,0,0-.32-.81,1.1,1.1,0,0,0-.88-.29,1.05,1.05,0,0,0-.82.41,1.21,1.21,0,0,0-.2.84,19.43,19.43,0,0,0,.41,3.32,20,20,0,0,0,.7,2.56 c .27.76.55,1.49.85,2.14.12.37.23.68.37,1 a 13,13,0,0,1,.54,1.76,20.15,20.15,0,0,1,.44,2.09 c .12.74.14,1.62.22,2.59 a 2.64,2.64,0,0,1-.07.94,2.47,2.47,0,0,1-.36.74,2.88,2.88,0,0,1-.64.51,2.82,2.82,0,0,1-.92.24,1.93,1.93,0,0,1-1.58-.45,2.22,2.22,0,0,1-.67-1.57q-.11-2-.21-4 l 1.09-.1 c .06,1.34.13,2.67.21,4 a 1.43,1.43,0,0,0,.29.8,1,1,0,0,0,.83.25.94.94,0,0,0,.76-.4,1.36,1.36,0,0,0,.17-.85,23.62,23.62,0,0,0-.42-3.33,20,20,0,0,0-.67-2.55 c -.21-.56-.38-1.07-.59-1.58 l -.65-1.58 a 14,14,0,0,1-.58-1.74,19.67,19.67,0,0,1-.49-2.1,24.55,24.55,0,0,1-.21-2.6,2.55,2.55,0,0,1,.11-1,2.33,2.33,0,0,1,.41-.71,2.08,2.08,0,0,1,.7-.5,3.24,3.24,0,0,1,1-.24 A 2.14,2.14,0,0,1,300,264 a 2.25,2.25,0,0,1,.7,1.61 C 300.73,266.94,300.77,268.27,300.8,269.59Z" fill="param(main_colour)"/>
    <path d="M 308.56,282.57 c -.25-1.12-.43-2.24-.57-3.36 l -1.4.13 c 0,1.14,0,2.28.06,3.41 l -1.06.1 c -.41-6.66,1.1-13.34.94-20 l 1.11-.07 c 1.26,6.58.57,13.15,2,19.68Z m -1.91-4.48,1.21-.11 c -.27-2.66-.36-5.32-.54-8 C 307.08,272.69,306.77,275.39,306.65,278.09Z" fill="param(main_colour)"/>
    <path d="M 318.63,268.26 l -1.12.08 c 0-1.3,0-2.6-.05-3.89 a 1.27,1.27,0,0,0-.32-.79,1.1,1.1,0,0,0-.86-.29,1,1,0,0,0-.78.4,1.2,1.2,0,0,0-.18.83,29.24,29.24,0,0,0,.3,3.25,21.19,21.19,0,0,0,.52,2.51,22,22,0,0,0,.69,2.1 c .09.36.19.67.3,1 a 12.69,12.69,0,0,1,.43,1.72 c .13.62.25,1.3.34,2 s .08,1.58.14,2.53 a 2.59,2.59,0,0,1-.08.92,2.48,2.48,0,0,1-.36.72,2.91,2.91,0,0,1-.63.5,2.82,2.82,0,0,1-.92.23,2.06,2.06,0,0,1-1.62-.45,2.15,2.15,0,0,1-.73-1.54 c -.1-1.31-.12-2.62-.1-3.93 l 1.13-.09 c 0,1.31,0,2.62.09,3.92 a 1.36,1.36,0,0,0,.3.79,1,1,0,0,0,.85.24,1,1,0,0,0,.76-.39,1.32,1.32,0,0,0,.18-.83,30.61,30.61,0,0,0-.32-3.26,21.39,21.39,0,0,0-.52-2.5 c -.17-.55-.3-1-.48-1.55 l -.52-1.55 a 13.31,13.31,0,0,1-.44-1.71 c -.13-.63-.25-1.33-.34-2.06 s -.08-1.62-.13-2.55 a 2.69,2.69,0,0,1,.09-.94,2.26,2.26,0,0,1,.38-.69,1.88,1.88,0,0,1,.65-.49,3,3,0,0,1,.94-.23,2.18,2.18,0,0,1,1.65.48,2.2,2.2,0,0,1,.73,1.57 C 318.66,265.67,318.66,267,318.63,268.26Z" fill="param(main_colour)"/>
    <path d="M 327.72,267.6 l -1.1.08 c 0-1.28,0-2.57-.07-3.85 a 1.26,1.26,0,0,0-.31-.78,1.09,1.09,0,0,0-.85-.28,1,1,0,0,0-.77.39,1.18,1.18,0,0,0-.18.82,28.1,28.1,0,0,0,.31,3.21,20.26,20.26,0,0,0,.53,2.48,20.77,20.77,0,0,0,.7,2.07 c .09.35.19.66.31,1 a 11.89,11.89,0,0,1,.45,1.7,19.06,19.06,0,0,1,.34,2 c .08.72.06,1.56.09,2.51 a 2.47,2.47,0,0,1-.12.91,2.51,2.51,0,0,1-.4.71,3.11,3.11,0,0,1-.67.5,3,3,0,0,1-.94.23,2,2,0,0,1-2.3-2 c -.06-1.29-.05-2.59,0-3.88 l 1.14-.09 c 0,1.29,0,2.59,0,3.88 a 1.29,1.29,0,0,0,.28.78,1,1,0,0,0,.85.24,1,1,0,0,0,.79-.38,1.28,1.28,0,0,0,.21-.82,23.56,23.56,0,0,0-.26-3.22,19.6,19.6,0,0,0-.52-2.47 c -.18-.54-.31-1-.48-1.53,0,0-.35-1-.52-1.53 a 12.89,12.89,0,0,1-.44-1.69 c -.14-.62-.25-1.32-.34-2 s -.09-1.6-.14-2.52 a 2.65,2.65,0,0,1,.08-.93,2.18,2.18,0,0,1,.37-.68,1.83,1.83,0,0,1,.64-.48,3,3,0,0,1,.94-.23,2,2,0,0,1,2.34,2 C 327.72,265,327.73,266.32,327.72,267.6Z" fill="param(main_colour)"/>
    <path d="M 336.52,260.92 c -.56,3.23-1.09,6.47-1.68,9.71,0,3.19,0,6.38.07,9.56 l -1.11.1 c -.08-3.2-.06-6.4,0-9.6-.59-3.15-1.1-6.31-1.94-9.47 l 1.09-.07 c .56,2.2,1,4.39,1.39,6.58.4-2.25.77-4.49,1.12-6.74Z" fill="param(main_colour)"/>
  </g>
  <g id="fixed-colours">
    <path d="M 330,273 s -14.15-2.48-21.8,3.73 C 313.64,270.73,323.17,269.52,330,273Z" opacity="0.2"/>
    <path d="M 292.54,288.54 c -7.37,1.34-12.83-1.17-19.33-5.83 C 277.62,288.88,286.14,292,292.54,288.54Z" opacity="0.4"/>
  </g>
<script type="text/ecmascript" xlink:href="param.min.js"/> 
</svg>
