<?xml version="1.0"?>
<svg xmlns="http://www.w3.org/2000/svg" xmlns:xlink="http://www.w3.org/1999/xlink" viewBox="0 0 600 600">
  <title>sassy-slogan-hourglass</title>
  <g id="main-colour">
    <path d="M 308.82,269.89 l -1.09.13 c -.07-1.28-.15-2.56-.25-3.85 a 1.23,1.23,0,0,0-.32-.77,1.06,1.06,0,0,0-.86-.25,1,1,0,0,0-.78.43,1.17,1.17,0,0,0-.17.83,18.91,18.91,0,0,0,.48,3.2,19.35,19.35,0,0,0,.74,2.45 c .28.72.57,1.42.88,2,.12.35.25.65.39,1 a 12.46,12.46,0,0,1,.58,1.68,19.72,19.72,0,0,1,.49,2 c .14.71.19,1.56.29,2.5 a 2.55,2.55,0,0,1,0,.91,2.39,2.39,0,0,1-.33.73,2.81,2.81,0,0,1-.6.52,2.73,2.73,0,0,1-.89.27,1.87,1.87,0,0,1-1.55-.38,2.13,2.13,0,0,1-.7-1.5 c -.11-1.29-.21-2.59-.31-3.88 l 1.05-.14 c .1,1.29.2,2.58.32,3.87 a 1.38,1.38,0,0,0,.3.77,1,1,0,0,0,.81.21.92.92,0,0,0,.72-.42,1.32,1.32,0,0,0,.14-.83,22.61,22.61,0,0,0-.5-3.21,19.06,19.06,0,0,0-.72-2.44 c -.22-.53-.4-1-.62-1.51 l -.67-1.51 a 13.56,13.56,0,0,1-.61-1.66,19.62,19.62,0,0,1-.53-2,24.25,24.25,0,0,1-.28-2.52,2.48,2.48,0,0,1,.07-.94,2.3,2.3,0,0,1,.38-.7,2,2,0,0,1,.66-.51,3.14,3.14,0,0,1,.95-.27,2.05,2.05,0,0,1,1.62.41,2.15,2.15,0,0,1,.72,1.53 C 308.69,267.33,308.76,268.61,308.82,269.89Z" fill="param(main_colour)"/>
    <path d="M 316.71,282.18 c -.25-1.08-.45-2.16-.62-3.24 l -1.36.18 c 0,1.1,0,2.21.13,3.31 l -1,.14 c -.52-6.46.61-12.94.41-19.4 l 1.07-.11 c 1.25,6.36,1,12.7,2.41,19Z m -2-4.28,1.18-.15 c -.34-2.56-.53-5.14-.77-7.71 C 315,272.66,314.8,275.28,314.76,277.9Z" fill="param(main_colour)"/>
    <path d="M 326.11,268 l -1.09.12 c 0-1.26,0-2.51-.15-3.77 a 1.2,1.2,0,0,0-.32-.76,1,1,0,0,0-.84-.25,1,1,0,0,0-.75.41,1.18,1.18,0,0,0-.17.81,25.35,25.35,0,0,0,.37,3.14,19.6,19.6,0,0,0,.58,2.41,20.68,20.68,0,0,0,.74,2 c .1.34.2.64.33,1 a 11.71,11.71,0,0,1,.48,1.65,19.57,19.57,0,0,1,.39,2 c .1.7.12,1.53.19,2.45 a 2.49,2.49,0,0,1-.07.89,2.45,2.45,0,0,1-.35.71,3,3,0,0,1-.61.51,2.8,2.8,0,0,1-.89.26,2,2,0,0,1-1.57-.37,2.06,2.06,0,0,1-.73-1.47 c -.12-1.27-.17-2.53-.19-3.8 l 1.1-.13 c 0,1.27.07,2.53.18,3.79 a 1.3,1.3,0,0,0,.3.75,1,1,0,0,0,.83.21,1,1,0,0,0,.74-.41,1.28,1.28,0,0,0,.16-.81,25.81,25.81,0,0,0-.38-3.14,19.38,19.38,0,0,0-.58-2.39 c -.19-.52-.33-1-.52-1.48 l -.56-1.48 a 12.29,12.29,0,0,1-.48-1.63 c -.15-.6-.28-1.28-.39-2 s -.12-1.56-.18-2.47 a 2.59,2.59,0,0,1,.07-.92,2.28,2.28,0,0,1,.36-.69,1.86,1.86,0,0,1,.63-.5,2.91,2.91,0,0,1,.91-.26,2,2,0,0,1,1.6.41,2.11,2.11,0,0,1,.73,1.5 C 326.06,265.44,326.1,266.7,326.11,268Z" fill="param(main_colour)"/>
    <path d="M 334.92,267 l -1.07.12 c 0-1.24-.08-2.48-.18-3.72 a 1.21,1.21,0,0,0-.32-.75,1,1,0,0,0-.83-.24,1,1,0,0,0-.74.41,1.16,1.16,0,0,0-.16.8,24.94,24.94,0,0,0,.39,3.1,19.29,19.29,0,0,0,.6,2.38,20.44,20.44,0,0,0,.76,2 c .1.34.21.63.34.94 a 11.32,11.32,0,0,1,.49,1.63,17.15,17.15,0,0,1,.39,1.94 c .1.69.1,1.51.15,2.42 a 2.36,2.36,0,0,1-.1.88,2.5,2.5,0,0,1-.38.71,3.24,3.24,0,0,1-.65.51,3.07,3.07,0,0,1-.92.26,1.86,1.86,0,0,1-2.26-1.82 c -.08-1.25-.1-2.5-.11-3.76 l 1.11-.13 c 0,1.25,0,2.5.11,3.75 a 1.24,1.24,0,0,0,.28.74,1,1,0,0,0,.83.2,1,1,0,0,0,.77-.4,1.25,1.25,0,0,0,.19-.8,20.85,20.85,0,0,0-.33-3.11,17.89,17.89,0,0,0-.59-2.37 c -.19-.52-.34-1-.52-1.46 l -.56-1.46 a 12.21,12.21,0,0,1-.49-1.62 c -.15-.59-.29-1.26-.4-2 s -.13-1.55-.2-2.44 a 2.58,2.58,0,0,1,.06-.91,2.23,2.23,0,0,1,.35-.68,1.83,1.83,0,0,1,.62-.49,2.9,2.9,0,0,1,.9-.26,2,2,0,0,1,1.58.41,2.1,2.1,0,0,1,.72,1.49 C 334.84,264.51,334.89,265.75,334.92,267Z" fill="param(main_colour)"/>
    <path d="M 343.27,260.2 c -.44,3.15-.86,6.3-1.32,9.46q.16,4.63.38,9.25 l -1.08.13 c -.16-3.09-.26-6.19-.35-9.29-.68-3-1.29-6.06-2.18-9.11 l 1.06-.1 c .6,2.11,1.07,4.23,1.55,6.33.32-2.19.6-4.38.88-6.57Z" fill="param(main_colour)"/>
  </g>
  <g id="fixed-colours">
    <path d="M 329.9,274.55 s -12-.83-17.83,5 C 316.07,274,323.9,272.21,329.9,274.55Z" opacity="0.2"/>
    <path d="M 316.73,271.88 a 9.5,9.5,0,0,0,9.17-2.33 C 323.73,270.71,319.23,272,316.73,271.88Z" opacity="0.2"/>
    <path d="M 275.9,284.25 c 10.5,12.13,21,14.63,34.13,11.25 C 298.38,302.39,282.36,297.84,275.9,284.25Z" opacity="0.4"/>
  </g>
<script type="text/ecmascript" xlink:href="param.min.js"/> 
</svg>
