<?xml version="1.0"?>
<svg xmlns="http://www.w3.org/2000/svg" xmlns:xlink="http://www.w3.org/1999/xlink" viewBox="0 0 600 600">
  <title>sarong-curvy</title>
  <g id="main-colour">
    <path d="M 266.56,313.38 s 16.5,20.5,41.58,28.08 c 4.92-1.92,8.42-1.92,12.92.08,7.33-5.33,13.17-16.17,14.17-21.33,4.17,5,7.54,13.67,7.54,13.67 l 0,1.67 s 4.33,5.5,5.17,9 a 14.17,14.17,0,0,1,7,3.33 s 3.83,13.17,4.33,23.83 c 2.67,2.83,6.83,18,4.83,33.67,1.33,2.83,1,8.33,1,8.33 s -6.33,25.67-4.5,30.17 l 1.33,1 s -12.67,16-48,21.83 c -2.83,11.33-9.83,23.83-13.83,26.67 a 33.32,33.32,0,0,0-4.33-9.67 s -6.33,15.17-10.17,18 c -1-7.67-6-13.67-8.17-16.17 s -6.17-8.83-7-14.17 c -7.17,6.17-19.5,11.5-19.5,11.5 s 3-13-1.67-21.83-8.67-17.17-8.67-17.17 l 1.67-4.17 s -7.33-9.33-9.33-27.17 a 7.12,7.12,0,0,1,1.33-3 s -3.83-16.83-2.17-30.83 c 2-2.5,2.67-3.17,2.67-3.17 s .67-21.17,6.17-29.33 c 3.17-.5,3.33-1,3.33-1 s 3.67-11.67,12.83-18.67 C 259.72,318.71,266.56,313.38,266.56,313.38Z" fill="param(main_colour)"/>
  </g>
  <g id="outline">
    <path d="M 366.77,408 a 15.19,15.19,0,0,0-1.29-3 c 1.71-10.41-.24-23.25-3-31.45 a 10.22,10.22,0,0,0-2.13-3.53 c -.73-6.13-2.27-16.75-4.74-23 a 27.53,27.53,0,0,0-7.27-4.07,67.18,67.18,0,0,0-4.89-8.1 c .26-.29.41-.46.41-.46 S 340.73,325.84,338,322 a 9.28,9.28,0,0,0-3.62-3 c -3.89,13.41-11.13,19.7-13.63,21.53 a 13.66,13.66,0,0,0-7.25-1.15,13.94,13.94,0,0,0-5.59,1.5,105.11,105.11,0,0,1-41.41-29 s -8.62,6.38-10.37,14.13 l 0,0 c -7.5,5.39-11.38,14.43-12.72,18.15 a 10.71,10.71,0,0,0-3.81,1.07 c -3.72,9.64-7,20.21-6.18,30.18 a 13,13,0,0,0-2.45,2.82,88.59,88.59,0,0,0,2,31,7.25,7.25,0,0,0-1.61,3 c 1,9.34,5.47,21.1,9.79,28.17-.43,1.18-1.15,3.14-1.41,3.83,1.38,4,4.75,8.88,8.25,16.75 s 3,20.38,1.5,24 a 70.11,70.11,0,0,0,20-11.64 c .68,3.89,3.39,8.17,5.72,11.27,2.63,3.5,8.75,9.63,9.38,19,6.08-5.4,10.09-14,11.53-17.49 a 37.15,37.15,0,0,1,3.47,9.49,58.19,58.19,0,0,0,14.79-28 c 9.27-1.52,35.84-7.14,49.83-23.27-1.06-.47-2.11-1-3.15-1.61 C 360.52,437,365.27,423.86,366.77,408Z m -6.5,23.13 a 83.42,83.42,0,0,0-1.32,10.35 c -11-7-20.5-19.07-24.06-26.73 a 178.89,178.89,0,0,1-7-18.38 c -.4-8.85-1-17.72-1.48-25.7,1.46,3.66,3.54,10.2,9.82,18.2 a 68.78,68.78,0,0,0,27.88,20.88 C 364.14,414.63,361.52,424.5,360.27,431.13Z m -59.75-5.62 a 345.51,345.51,0,0,1-1.5-46.75,65.53,65.53,0,0,1,8.2-29.25 c .14.09.27.18.42.25 a 11.42,11.42,0,0,0,2.25.81 c -6.31,16.71-4.49,31.23-3.63,43.44.88,12.38,3,41.25,2.63,51.63-.11,3.14-.24,5.89-.44,8.36 a 23.82,23.82,0,0,1-10.31,5.52 C 302.14,451.5,301.89,439.5,300.52,425.5Z m 10.63,14.25 c 0-15.5-2.25-38.87-3.75-57.12 a 77.31,77.31,0,0,1,4.14-31.78,6.12,6.12,0,0,0,3.2-.43 c 4,15.81,1.53,28.67,1.28,37.71 s .25,22.5,3.13,27.75 c -2.25-7.75-1.75-25.87-.62-40.75 a 80.6,80.6,0,0,0-1.82-24.84,29,29,0,0,0,3.2.21,3.11,3.11,0,0,0,.78-.11,55.6,55.6,0,0,1,2.47,7.61 c 1.38,5.38,2.38,33.13,2.63,45.75 s 1.13,28.25,5.13,38.13 c -4,2.38-7.62,7.75-10.37,13.5 s -7.12,10-12.87,10.38 C 309.64,463.25,311.14,455.25,311.14,439.75Z M 342,336.28 c 2.78,3.41,6.16,11.2,7.21,13.69-10.21,2.65-22.41-1.55-25.62-2.77,0-.11.05-.22.07-.33,2.94-.05,12.57-.39,18.24-2.49-11.39,1.65-16.3,1.35-18.1,1.07 a 7.45,7.45,0,0,0-.06-.85 C 333.5,342.59,339.27,338.64,342,336.28Z m 20.52,69.85 c -11.56-5.08-22.93-15.11-27.24-22-3.15-5-7.14-13.7-9.13-18.16 a 69.87,69.87,0,0,0-1.43-10.51 c 6.75,8.23,25.49,19.52,35.43,20.67 A 63.79,63.79,0,0,1,362.5,406.13Z M 353.64,348 c 2.86,9.22,4.17,21.65,4.5,25.21-17.14-4.61-30.48-17.66-34.56-22-.34-1.06-.63-1.82-.82-2.28.09-.12.17-.24.25-.37,15.06,6.32,22,3.33,25.14,3.08 s 4.5-1.75,4.25-2.75 c -.34.15-.7.29-1,.42q-.75-1.78-1.49-3.36 A 8.53,8.53,0,0,1,353.64,348Z m -18-25.75 s 3.13,3.75,6.38,11.5 c -6.63,6.42-15.82,8.94-18.57,9.58v0 c 5.08-1.39,10.95-5.77,13.2-9.92-3.12,3.63-5.87,5.5-11.75,8.38 a 25.14,25.14,0,0,0,9.63-12.25,33.07,33.07,0,0,1-12.07,12.26 l -.05-.06 A 41.26,41.26,0,0,0,335.64,322.25Z m -13.87,20.88 c 1.13,1.63-.12,4.5-1.12,5.5-.7.7-3,.54-4.38.39 a 3.81,3.81,0,0,0,0-4.26 s .5,3.38-2.62,4.38-6.87-.87-6.87-3.12,1.38-3.62,4.25-4.5 S 320.64,341.5,321.77,343.13Z M 267,314.63 s 12.22,17.95,39.64,27.21 a 4.74,4.74,0,0,0-.48.57 c -23.88-2.56-38.78-18.91-38.78-18.91,13.28,16.51,33.91,19.58,38.19,20 l 0,.07 a 78.08,78.08,0,0,1-47.17-18.5 C 260.89,319.75,267,314.63,267,314.63Z m -9.78,12.29 a 78.93,78.93,0,0,0,48,18.19 s 0,.08,0,.12 c -20.15,3.46-45.37-4.85-45.37-4.85,22.92,9.17,41.73,6.94,45.45,6.36 a 4.5,4.5,0,0,0,.14.54 c -4.08,1.12-31.61,8-60.14-.61 C 247,338.09,254.75,329.51,257.24,326.92Z m -15.59,20.46 c 13.67,7.54,51.68,6.42,63.2,1.54-2.48,3.17-9.77,10.23-29.58,18.58-24,10.13-36.74,9.26-39.24,8.94 A 83.43,83.43,0,0,1,241.64,347.38Z m -7.5,32 c 14.68-.23,51.72-9.92,69.34-26.72 a 42.07,42.07,0,0,0-2.69,5.61 c -7.87,13.1-27.25,38.46-64.91,51.56 C 235.08,406.61,232,392.8,234.14,379.38Z m 43.25,9.13 A 107,107,0,0,0,299,363.7q-.74,2.74-1.22,5.55 c -3.22,10.15-11.8,34.94-22.38,47.37-13,15.26-23.52,22.53-31.31,24.3-1.81-3-8.71-15.05-9.69-28.17 C 251.52,408.25,266.39,398,277.39,388.5Z M 249,457.5 c -2.37-5-6.75-12.75-6.75-13.5,9.88-2.87,22.3-9.26,33.13-23.37,9.88-12.87,13.38-20.25,16.75-29.25,1.62-4.32,3.3-9.36,4.6-13.43-.23,3.21-.32,6.41-.35,9.55-.07,8,.5,19.88,1.18,30.24 a 89.15,89.15,0,0,1-6.81,23.51 c -6.37,13.75-17.37,30.5-38.12,39.75 C 253.77,469.13,251.39,462.5,249,457.5Z m 37.13,42.63 c .13-4.62-4.12-10.62-9.62-17.62 a 23.08,23.08,0,0,1-5-10.81,80.51,80.51,0,0,0,10.12-10.54,32.76,32.76,0,0,0,6.12,13.22,85,85,0,0,1,7,9.3 C 293.28,487.63,289.52,495.87,286.14,500.13Z m 14.13-8.25 c -2-10.12-10.25-16.5-13.75-23.12 a 27.56,27.56,0,0,1-3-10 c 1-1.39,2-2.8,2.89-4.23 A 86.85,86.85,0,0,0,298,424.29 c .35,4.59.69,8.54,1,11.21,1,9.38-.5,19.88-4.25,27 A 24.21,24.21,0,0,0,308.13,457 a 25.4,25.4,0,0,1-3.24,10.34,13.24,13.24,0,0,0,6.66-.21 l -.41,1,1.12-.15 C 310.22,475.17,306.85,484.24,300.27,491.88Z m 15.28-26.62 a 23.36,23.36,0,0,0,7.72-9.63 c 1.75-4.12,5.5-10.75,10.5-13.25-5.12-10.75-5.12-23.25-5.5-36.75,0-.41,0-.83,0-1.25,3.27,10.09,12,29.71,32.66,40.62 C 349,454.85,329.74,463.72,315.54,465.26Z"/>
  </g>
<script type="text/ecmascript" xlink:href="param.min.js"/> 
</svg>
