<?xml version="1.0"?>
<svg xmlns="http://www.w3.org/2000/svg" xmlns:xlink="http://www.w3.org/1999/xlink" viewBox="0 0 600 600">
  <title>girl-power-slogan-slender</title>
  <g id="main-colour">
    <path d="M 305.77,271.25 l 4-.2 c -.2,2.26-.46,4.51-.74,6.77-.43,3.41-2,5.45-4.46,5.67 s -3.69-1.65-3.56-5.12 c .14-3.76.24-7.52.07-11.29-.17-3.48,1.12-5.52,4.26-5.59 s 4.86,1.83,4.71,5.24q0,1-.11,2.07 l -2.79.12q0-1.15.06-2.3 c 0-1.53-.62-2.1-1.6-2.06 s -1.56.64-1.52,2.18 c .07,3.89-.14,7.78-.4,11.66-.1,1.54.38,2.05,1.22,2 s 1.42-.65,1.56-2.18 c .13-1.32.25-2.63.36-4 l -1.27.07Q305.7,272.79,305.77,271.25Z" fill="param(main_colour)"/>
    <path d="M 312.17,261.54 l 3.17-.08 c -.09,7-1.47,14.09-2.68,21.12 l -2.56.21 C 311.11,275.72,312.29,268.62,312.17,261.54Z" fill="param(main_colour)"/>
    <path d="M 319.91,282 a 8,8,0,0,1,.41-2.53q.41-1.63.82-3.26 c .48-1.93.08-2.61-1.2-2.54 l -1,.05 c -.59,2.84-1.24,5.67-1.87,8.51 l -2.57.21 c 1.36-7,2.88-14,3.12-21 l 4.79-.11 c 3.29-.07,4.57,1.45,3.93,4.63q-.16.81-.34,1.62 a 5.9,5.9,0,0,1-2.88,4.28 c 1.27.61,1.33,2.15.72,4.3q-.44,1.59-.9,3.19 a 7.59,7.59,0,0,0-.42,2.48Z m .64-17.69 c -.24,2.14-.59,4.28-1,6.42 l 1.13-.05 c 1.08-.05,1.87-.62,2.2-2.28q.2-1,.38-2 c .26-1.48-.14-2.12-1.23-2.09Z" fill="param(main_colour)"/>
    <path d="M 329.25,261.14 l 3.18-.07 a 121.37,121.37,0,0,1-4.91,17.49 l 4.42-.3-1.1,2.89-6.88.53 C 326,274.83,328.27,268,329.25,261.14Z" fill="param(main_colour)"/>
    <path d="M 304.88,290.55q0,.86-.08,1.73 c -.08,2.13-.74,3.36-2.11,3.54 l -.65.08 c .05,1.67.15,3.34.31,5 l -1.28.19 a 99.08,99.08,0,0,1-.49-13.39 l 2.23-.22 C 304.35,287.33,305,288.42,304.88,290.55Z M 302,289.46 c 0,1.51-.06,3,0,4.53 l .66-.08 c .45-.05.69-.39.7-1.34q0-1,.05-2 c 0-1-.21-1.23-.68-1.18Z" fill="param(main_colour)"/>
    <path d="M 305.51,290.39 c .13-2.13,1.05-3.42,2.55-3.56 s 2.16,1,1.91,3.09 c -.26,2.28-.45,4.56-.55,6.83-.09,2.1-.76,3.39-2,3.57 s -2-.92-2.06-3 C 305.3,295,305.38,292.69,305.51,290.39Z m 1.16,6.85 c 0,.94.27,1.26.69,1.21 s .68-.45.71-1.39 c .06-2.37.22-4.74.45-7.12.09-.94-.17-1.27-.64-1.22 s -.81.44-.88,1.38 C 306.8,292.49,306.68,294.87,306.67,297.24Z" fill="param(main_colour)"/>
    <path d="M 313.76,292.44 c -.49,2.33-.89,4.66-1.15,7 l -1.79.25 a 114.58,114.58,0,0,1,.19-13 l 1.49-.14 c -.28,3.43-.49,6.83-.49,10.23 a 100.46,100.46,0,0,1,2.05-10.37 l 1.48-.14 c -.42,3.43-.76,6.84-.9,10.24 a 101.39,101.39,0,0,1,2.47-10.39 l 1.35-.12 a 92.17,92.17,0,0,0-3.16,13.05 l -1.74.24 C 313.54,297,313.61,294.74,313.76,292.44Z" fill="param(main_colour)"/>
    <path d="M 319.49,291.22 l 2-.22q-.22.91-.42,1.83 l -2,.23q-.37,1.88-.65,3.76 l 2.35-.31q-.16.91-.3,1.82 l -3.61.5 a 102.12,102.12,0,0,1,2.34-12.9 l 4.23-.38q-.26.92-.52,1.83 l -2.62.25Q319.88,289.43,319.49,291.22Z" fill="param(main_colour)"/>
    <path d="M 324.12,297.85 a 5.26,5.26,0,0,1,.21-1.54q.22-1,.47-2 c .3-1.18.14-1.58-.51-1.5 l -.49.06 c -.43,1.73-.82,3.45-1.13,5.17 l -1.33.18 a 105.26,105.26,0,0,1,3.09-12.76 l 2.35-.21 c 1.62-.14,2,.75,1.3,2.7 l -.33,1 a 4.72,4.72,0,0,1-1.75,2.67 c .6.34.55,1.26.19,2.58q-.26,1-.5,1.95 a 5,5,0,0,0-.21,1.51Z m 1.29-10.7q-.6,2-1.14,3.91 l .57-.06 c .54-.06,1-.42,1.28-1.44 l .39-1.25 c .29-.91.18-1.28-.36-1.23Z" fill="param(main_colour)"/>
  </g>
  <g id="fixed-colours">
    <path d="M 292.16,285.22 c 7.84.9,14.21-.68,20.22-7.6 C 309.53,285.36,299.45,288.84,292.16,285.22Z" opacity="0.4"/>
    <path d="M 328.57,271.59 s -10.9-.76-16.2,4.54 C 316,271.13,323.12,269.47,328.57,271.59Z" opacity="0.2"/>
    <path d="M 316.61,269.16 a 8.63,8.63,0,0,0,8.33-2.12 A 20,20,0,0,1,316.61,269.16Z" opacity="0.2"/>
  </g>
<script type="text/ecmascript" xlink:href="param.min.js"/> 
</svg>
