<?xml version="1.0"?>
<svg xmlns="http://www.w3.org/2000/svg" xmlns:xlink="http://www.w3.org/1999/xlink" viewBox="0 0 600 600">
  <title>honey-slogan-slender</title>
  <g id="main-colour">
    <path d="M 339.21,273.53q0-.86,0-1.73 l .8-.09 c 0-1.15,0-2.3,0-3.45 l -3.15.33 c 0,1.16-.08,2.31-.08,3.47 l .8-.09 c 0,.58,0,1.15,0,1.73 l -3.2.35 c 0-.58,0-1.16,0-1.74 l .8-.09 c 0-2.89.31-5.79.15-8.69 l -.78.08 c 0-.58-.09-1.16-.17-1.74 l 3.13-.31 c .07.58.11,1.16.15,1.73 l -.78.08 c .06,1.16.06,2.31,0,3.47 l 3.11-.33 c 0-1.15,0-2.3-.05-3.46 l -.77.08 c 0-.58-.07-1.15-.12-1.73 l 3.16-.3q0,.86.05,1.72 l -.77.08 c .08,2.88,0,5.75.09,8.62 l .8-.09q0,.86,0,1.72Z" fill="param(main_colour)"/>
    <path d="M 327.75,274.81q-.69-.63-1.34-1.26 c -.1-3.16.49-6.32.3-9.49q.59-.77,1.11-1.53 l 3.74-.38 c .49.42,1,.85,1.4,1.27.23,3.14-.22,6.28-.2,9.41-.42.51-.84,1-1.23,1.53Z m 3.68-10.87-3.13.32 c .14,2.92-.34,5.85-.32,8.77 l 3.18-.35 C 331.18,269.76,331.59,266.85,331.43,263.94Z" fill="param(main_colour)"/>
    <path d="M 323.39,275.32 c -.36-2.81,0-5.64.16-8.46-1.44,3-3.19,5.93-4,8.92 L 318,276 c -.71-4.13.33-8.28-.1-12.42 l 1.59-.16 c .31,2.84-.09,5.67-.17,8.51,1.39-3,3.18-6,4.11-8.91 l 1.57-.16 c .56,4.11-.54,8.22-.06,12.32Z" fill="param(main_colour)"/>
    <path d="M 310.4,276.88 c -.11-.6-.2-1.19-.26-1.79 l 4.58-.55 a 31,31,0,0,1-.06-3.56 l -3.13.35 c 0-.6,0-1.19,0-1.79 l 3.17-.35 c .05-1.19.1-2.38.08-3.57 l -4.82.5 c 0-.6,0-1.19-.08-1.79 l 6.41-.65 c .4,4.15-.58,8.3.16,12.44Z" fill="param(main_colour)"/>
    <path d="M 306.1,271.06 a 45.07,45.07,0,0,0,.51,6.29 l -1.53.19 a 58.37,58.37,0,0,1-.52-6.3 c -1.11-2-2.29-4-3.55-6 l 1.63-.17q1.4,2.25,2.65,4.48 c .74-1.66,1.52-3.32,2.22-5 l 1.62-.17 C 308.19,266.63,307.07,268.84,306.1,271.06Z" fill="param(main_colour)"/>
  </g>
  <g id="fixed-colours">
    <path d="M 289.35,285.05 A 29.19,29.19,0,0,0,311,289.76 C 304.17,293.63,294,291.6,289.35,285.05Z" opacity="0.4"/>
    <path d="M 332.15,270.58 s -13.31-.92-19.78,5.55 C 316.81,270,325.49,268,332.15,270.58Z" opacity="0.2"/>
    <path d="M 317.55,267.62 A 10.54,10.54,0,0,0,327.71,265 C 325.31,266.33,320.32,267.81,317.55,267.62Z" opacity="0.2"/>
  </g>
<script type="text/ecmascript" xlink:href="param.min.js"/> 
</svg>
