<?xml version="1.0"?>
<svg xmlns="http://www.w3.org/2000/svg" xmlns:xlink="http://www.w3.org/1999/xlink" viewBox="0 0 600 600">
  <title>professionally-pink-scarf-slender</title>
  <g id="main-colour">
    <path d="M 290.3,223.09 s -1.87-1.42-2.17-2.92 a 14.41,14.41,0,0,1-6,2.79 c -2.21.38-4.79.92-5.33,2.71 a 4.66,4.66,0,0,0,1.54,4.54 c -1.79,1.79-3.37,4.79.21,8.29 s 12.06,5,21.19,4.79 a 8.38,8.38,0,0,0,.88.75,25.64,25.64,0,0,1-3.79,7.08 c -2.75,3.67-7.48,9.94-7.54,20.25 s 3.48,17.38,9,23.75 c 2.13-6.5,9.25-12.62,9.25-12.62 a 26.71,26.71,0,0,1-7.06-13.69,33,33,0,0,1,1.13-16.62 c .88-2.81,2.31-7,2.31-7.69,2.69-.25,5.33-.42,5.33-.42 s 2.71,5.06,5.08,7.13 a 24.39,24.39,0,0,1,7,12 c 1.06,5.13.29,11.69-4.33,18.75,3.25,1.44,5.83,6.77,6.33,9.08,2.94-4.5,6.21-10.54,7.33-17.42 s -.12-13.25-3.62-18.17 a 31.13,31.13,0,0,0-7.92-8 c -1.6-1.28-6.08-3.83-6.46-5.33,2.63-1.81,9-3.9,11-5.27 s 3.88-4.62-.44-7.87 c .19-3.12-1.56-4.5-5.94-5.56 s -6.62-1.12-7.87-3.25 l -1.5,2.13 s 3.94,7.63,8.38,5.13 c .75,2.06.21,4.92-4.75,8.88-3.62-2.25-11.42-1.12-12.42,1-3.92-1.17-11.71-4.81-14.77-9.75 A 15.36,15.36,0,0,0,290.3,223.09Z" fill="param(main_colour)"/>
  </g>
  <g id="outline">
    <path d="M 321.82,248.84 c -4.3-2.94-7.15-4.76-8.61-6.49,1.72-.82,6.12-2.91,8.65-3.9,3.19-1.25,5.19-3.31,4.63-6 a 7,7,0,0,0-2.61-3.85,3.3,3.3,0,0,0,0-.84 c -.56-3.5-4.69-4.5-9.12-5.37-3.2-.63-4.28-1.68-4.64-2.22 a 4.84,4.84,0,0,0-.24-3.72,6.41,6.41,0,0,0-1.31,1 s 2.25,3.56-3.75,6.63 a 8.73,8.73,0,0,0,2.31-.8,15.83,15.83,0,0,0,3.5,4 c 1.13.75,3.63,2.44,5.13,1.56.14-.08.29-.14.43-.21.47,2.93-3.43,6.15-4.64,7.08-1.64-1.15-5.41-1-6.32-.93-2.76.1-5.31.66-6.4,1.91-7.22-2.59-11.47-6.1-13.69-8.49 a 12.44,12.44,0,0,0,5.56-4.32,13.72,13.72,0,0,0,3,.53 s -7.19-2.44-4.25-7 a 8,8,0,0,0-.75-1.12,4.81,4.81,0,0,0-1.48,3.84,14.71,14.71,0,0,1-7.14,2.66 c -4.2.42-5.3,4.46-2.57,7.6 a 5.66,5.66,0,0,0-1.05,6.28 c 1.75,3.62,8,7.12,23.21,7.26 a 2.13,2.13,0,0,0,.41.32,19.93,19.93,0,0,1-3.62,6.42 c -11.17,12.75-11.5,31.58,2.17,45.67,2.25-7.83,10-13.67,10-13.67 A 25,25,0,0,1,301,265 c -.24-10.69,2.86-16.93,3.35-20.05 a 27.71,27.71,0,0,0,4.61-.41,46.64,46.64,0,0,0,5,7.2 c 3.09,3.58,12.73,12.29,2,30.57,7.18,4.29,6.91,10.28,6.91,10.28 s 8.09-9.87,8.82-21.1 S 326.68,252.16,321.82,248.84Z M 313.3,225.5 a 6.69,6.69,0,0,1,1.87,1.26,2.66,2.66,0,0,1-1.44.27 c -2.53-.69-4.47-3.65-5.13-4.78 a 5.7,5.7,0,0,0,1-1.07 c .78.85,3.58,2.29,6.48,2.75,3.13.5,5.94,1.38,6.69,3.88 s -3.87,7.31-3.87,7.31,3.52-2.46,4.67-5.23 a 6,6,0,0,1,2,3.36 c .13,1.88-2,3.31-4.81,4.44-2.38,1-6.55,3.11-7.77,3.75 a 4.3,4.3,0,0,0-.49-2.79,2.37,2.37,0,0,0-.09-2 C 322.55,227.47,313.3,225.5,313.3,225.5Z m -13.38,12.28 c .66-1.82,7-2.27,9.8-1.51 s 2.36,3.1.47,4.56 a 5.53,5.53,0,0,0,1.83-1.5 c .18.76.43,2.58-.86,3.35-1.66,1-4.77,1.46-8.45,1.2-3.27-.23-3.11-2.19-2.53-3.46 a 9.32,9.32,0,0,0,3.19.95 C 303,241.2,299.25,239.61,299.92,237.79Z m -21.17-6.26 c .22.16.43.32.68.48,5,3.13,9.38,6.38,9.38,6.38 a 23,23,0,0,0-6.62-5.87 c -4.5-2.75-5.75-5.87-4-7.62 s 5-.59,9.19-3.67 a 3.34,3.34,0,0,0,1.61,1.91 c -.48.81-1.75,2.4-4.88,3.87 a 12.5,12.5,0,0,1-1-1.48 c 2,6.26,10.44,10.33,15.23,12.2 a 2.23,2.23,0,0,0,0,.57,2.29,2.29,0,0,0,1.07,1.62 A 3.66,3.66,0,0,0,299,243 c -4.48-.12-12.19-.69-16.86-3 C 275.7,236.83,276.54,234.31,278.74,231.53Z m 27.76,50.85 a 25.25,25.25,0,0,0-8.25,11.75,35.86,35.86,0,0,1-8.08-22.75 c -.08-10.42,5.18-17.27,7.5-20.42 a 28.51,28.51,0,0,0,3.4-6.32,10.67,10.67,0,0,0,2.23.33 c -.31,1.08-1.21,4.13-2.55,8 C 299.09,257.79,297.09,273.46,306.5,282.38Z m 17.07,7 c -2.27-5.6-5.65-7.57-5.65-7.57 a 28.27,28.27,0,0,0,4.66-14.92 c .13-8.7-5.34-13.25-7.78-16.16-2-2.33-4-5.27-4.72-6.35 a 8,8,0,0,0,1-.3,2.65,2.65,0,0,0,1.29-1.13,16.62,16.62,0,0,0,5,4.19 c 4.52,2.67,12.32,9.88,12.79,20.12 S 326.78,284.42,323.57,289.35Z"/>
  </g>
<script type="text/ecmascript" xlink:href="param.min.js"/> 
</svg>
