<?xml version="1.0"?>
<svg xmlns="http://www.w3.org/2000/svg" xmlns:xlink="http://www.w3.org/1999/xlink" viewBox="0 0 600 600">
  <title>professionally-pink-scarf-hourglass</title>
  <g id="main-colour">
    <path d="M 285.82,220.94 a 41.63,41.63,0,0,1-7.87,2.31 c -3.81.63-8.94,1.81-6.94,6.63-4,2.5-2.94,6.5-1.12,8 s 8.06,6.44,31.13,6.75 c .63.5,1.25.94,1.25.94 a 70.26,70.26,0,0,0-8.62,16.5 c -4,10.5-5.12,23.25,2.75,40,.63-11.69,6.06-17.19,9.5-19.44-4.06-8.31-5.56-14.5-4-22.25 a 96.71,96.71,0,0,1,4.06-14.19 s 4.88.31,7.63-1.56 a 43.76,43.76,0,0,1,9.69,36.19 s 5.44,2.13,7,11.19 c 3.94-9.44,4.75-16.56,3.56-24.94 s -8.37-17.69-17.62-24.56 c 6.19-1.69,10.81-5.87,11-7.31 s -.87-6.12-.75-7.44.5-3.06-1.62-4.62-6.37-.94-10.56-2.94 c 1.69,1.69,1.69,3.69.38,5.06,2.06,1.63,5.56,1.63,5.56,1.63 a 14.92,14.92,0,0,1-6.25,8.25 c -2.56-1.31-12.06-1.12-13.69,3.25-6-1.19-18.75-6.62-21.44-10.75,3.44-1,5.94-3.06,5.94-3.31 S 284.82,221.88,285.82,220.94Z" fill="param(main_colour)"/>
  </g>
  <g id="outline">
    <path d="M 331.72,258 c -4.37-8-12.15-13.69-14.43-15.24 a 28.79,28.79,0,0,0,9.22-5.24 c 2.5-2.12,1.56-3.87,1-5.19 a 17,17,0,0,1-.63-4.19,3.49,3.49,0,0,0,.51-2.73 c -1-2.58-3.25-3.83-6.5-4.08 a 21.11,21.11,0,0,1-6.7-2 l -.22-.15-.67,1.13 s 1.92,1.38,1.63,3-3,4.25-3,4.25,3.29-1.33,4.21-3.92 a 2.86,2.86,0,0,0,0-2 c 1.75.85,4,.88,6.62,1.53,3,.75,3.58,2.5,3.08,4.25 s -3.17,4.75-3.67,8.42 c .44-1.78,2.55-4.2,4-6.41 a 15.82,15.82,0,0,0,.39,3.66 c .5,1.75.31,2.38-2.44,4.81-2.17,1.92-5.85,3.14-7.31,3.57 a 6.06,6.06,0,0,0-1.62-4.22,3.79,3.79,0,0,0,.16-.59,1.81,1.81,0,0,0-.25-1.3 c 1.95-1.68,7.41-6.94,5.34-11.28,0,0,.3,4.81-6.37,10.35-1.53-.87-4.25-1.16-7.38-.6-3.62.65-6.44,2-7.12,3.88-2.23-.46-9.79-2.57-22.88-11.8,0,0,4.53,7.58,22.78,13.23 a 3.2,3.2,0,0,0,.22.69,3.53,3.53,0,0,0,.58.87,4.84,4.84,0,0,0-.33,3.38 s 0,.09.05.13 c -4.15-.15-17.41-.86-24.8-4.13 s -6.66-6-4.82-8.85 c 1.15,2,3.74,4.09,8.74,5.93-3.92-3.5-7.08-6.08-7.25-8.92 s 2.17-3.5,5.67-4 a 31.3,31.3,0,0,0,6.65-2,4,4,0,0,0-.23,1.64 c .17,2.67,3.58,5,5.25,5.54-3.08-2.17-4.21-6.08-2.12-7.92 a 2.92,2.92,0,0,1-1-1.46 l -.26.16v-.12 s -2.67,1-6.08,2-5.58.33-7.75,1.83 a 5.7,5.7,0,0,0-2.23,5.64 c -1.33,1.6-3.15,4.54-1.68,7.36,2.15,4.13,17.11,8.74,32.86,8.42 a 4.63,4.63,0,0,0,.73.44,78.78,78.78,0,0,0-9.26,17.38 c -3.5,9.67-4.5,25.25,4.67,41.75-.67-11.25,5.83-19.75,10.08-21.92-5-9.83-5.5-14.58-4.58-21.83 a 71.79,71.79,0,0,1,3.73-14.41,18.82,18.82,0,0,0,2.86-.09,13.58,13.58,0,0,0,4.43-1.25 c 2.12,2.64,13.2,17.55,8.82,35.75 A 13.83,13.83,0,0,1,329.8,294 C 335.8,285.63,336.89,267.54,331.72,258Z m -30.83,4.75 c -1.42,10.67,4.08,19.5,4.08,19.5 a 24.06,24.06,0,0,0-9,17.25 c -3.75-10.08-5.67-19.33-3.5-30.58,1.91-9.9,8.52-20.37,10.08-22.75 a 13.12,13.12,0,0,0,2.59.51 A 57.71,57.71,0,0,0,300.89,262.79Z m 4.67-17.08 c -3.31-.15-4.7-1.67-4.21-4 a 10.42,10.42,0,0,0,4.54,1.13 s -4.67-1.17-4.92-3.67,3.83-3.67,6.33-3.92,5.25-.42,6.42,1.08 S 312,241,312,241 a 9.9,9.9,0,0,0,2.56-2.46 c .59.77,1.56,2.38.77,4 C 314.22,244.63,309.22,245.88,305.55,245.71Z m 18.5,34.75 c 1.57-7.76,2.72-19.62-9.58-35.56 a 6,6,0,0,0,1.72-1.6 c 1.46,1,9.89,7.2,14.44,16.08,5,9.75,2.33,22.58,0,30.92 C 329.72,285.29,327,282,324.05,280.46Z"/>
  </g>
<script type="text/ecmascript" xlink:href="param.min.js"/> 
</svg>
