<?xml version="1.0"?>
<svg xmlns="http://www.w3.org/2000/svg" xmlns:xlink="http://www.w3.org/1999/xlink" viewBox="0 0 600 600">
  <title>honey-slogan-curvy</title>
  <g id="main-colour">
    <path d="M 335.4,276.83q0-1,0-2.1 l 1-.12 c 0-1.4,0-2.79,0-4.19 l -3.82.45 c 0,1.4-.06,2.81-.05,4.21 l 1-.12 c 0,.7,0,1.4,0,2.1 l -3.89.48 c 0-.7,0-1.4,0-2.11 l 1-.12 c 0-3.51.28-7,0-10.55 l -.94.11 c 0-.7-.12-1.41-.23-2.11 l 3.79-.42 c .09.7.15,1.4.2,2.1 l -.94.11 c .09,1.4.11,2.81.1,4.21 l 3.78-.44 c 0-1.4,0-2.8-.12-4.2 l -.94.11 c 0-.7-.1-1.4-.18-2.1 l 3.84-.42q.06,1,.1,2.09 l -.94.11 c .15,3.49.15,7,.24,10.46 l 1-.12q0,1,.06,2.09Z" fill="param(main_colour)"/>
    <path d="M 321.47,278.57q-.84-.75-1.63-1.51 c -.13-3.83.48-7.67.23-11.51q.71-.94,1.34-1.88 l 4.54-.52 c .59.51,1.16,1,1.71,1.52.31,3.81-.15,7.62-.1,11.42-.51.63-1,1.25-1.49,1.88Z m 4.33-13.25-3.8.44 c .19,3.55-.3,7.1-.25,10.64 l 3.87-.48 C 325.6,272.39,326,268.85,325.8,265.32Z" fill="param(main_colour)"/>
    <path d="M 316.17,279.25 c -.43-3.41,0-6.84.09-10.26-1.71,3.61-3.76,7.24-4.77,10.88 l -1.86.25 c -.85-5,.25-10-.25-15.07 l 1.93-.22 c .37,3.44-.05,6.89-.1,10.32,1.65-3.64,3.75-7.27,4.89-10.87 l 1.91-.22 c .68,5-.51,10,.06,14.95Z" fill="param(main_colour)"/>
    <path d="M 300.4,281.38 c -.14-.72-.25-1.45-.33-2.17 l 5.56-.74 a 39.86,39.86,0,0,1-.13-4.32 l -3.8.48 c 0-.72,0-1.45,0-2.17 l 3.85-.47 c 0-1.44.09-2.88.06-4.33 l -5.86.69 c 0-.73-.06-1.45-.11-2.18 l 7.79-.9 c .47,5-.57,10.08.33,15.1Z" fill="param(main_colour)"/>
    <path d="M 295.1,274.38 a 56.31,56.31,0,0,0,.7,7.63 l -1.86.26 a 72.15,72.15,0,0,1-.72-7.64 c -1.38-2.39-2.83-4.78-4.38-7.19 l 2-.23q1.72,2.71,3.26,5.39 c .87-2,1.8-4.06,2.65-6.08 l 2-.23 C 297.57,269,296.25,271.67,295.1,274.38Z" fill="param(main_colour)"/>
  </g>
  <g id="fixed-colours">
    <path d="M 304.23,283.15 c -8.46,4.78-13.95,5.54-21.42,5 C 289.71,291.7,299.52,289.12,304.23,283.15Z" opacity="0.4"/>
    <path d="M 331.9,273.4 s -15.54-1.08-23.09,6.48 C 314,272.76,324.13,270.38,331.9,273.4Z" opacity="0.2"/>
    <path d="M 314.85,269.95 a 12.31,12.31,0,0,0,11.87-3 C 323.91,268.44,318.09,270.17,314.85,269.95Z" opacity="0.2"/>
  </g>
<script type="text/ecmascript" xlink:href="param.min.js"/> 
</svg>
