<?xml version="1.0"?>
<svg xmlns="http://www.w3.org/2000/svg" xmlns:xlink="http://www.w3.org/1999/xlink" viewBox="0 0 600 600">
  <title>love-slogan-curvy</title>
  <g id="main-colour">
    <path d="M 331,273 l .61-.08 a 4.62,4.62,0,0,0,.87,3.06,2.78,2.78,0,0,0,2.67.81 l 2.58-.32 c -.13-4.45.13-8.91-.32-13.37 l -2,.23q0-.25-.06-.5 l 6.48-.72,0,.49-1.94.22 c .34,4.45.24,8.9.39,13.34 l 2-.24,0,.49-11.1,1.39 C 331.09,276.18,331,274.58,331,273Z" fill="param(main_colour)"/>
    <path d="M 317.37,272.26 a 10.61,10.61,0,0,1,1.94-5.61,5.7,5.7,0,0,1,4-2.78,5.31,5.31,0,0,1,4.5,1.79,6.68,6.68,0,0,1,1.85,5.08,9.71,9.71,0,0,1-2,5.55,6.16,6.16,0,0,1-4.16,2.81,5,5,0,0,1-4.4-1.74 A 6.6,6.6,0,0,1,317.37,272.26Z m 2.8,2.26 a 4.85,4.85,0,0,0,.82,3.26,2.56,2.56,0,0,0,2.49.83,3.07,3.07,0,0,0,2.37-1.45,7.16,7.16,0,0,0,.82-3.45 c .06-1.74.17-3.47.18-5.21 a 4.91,4.91,0,0,0-.9-3.26,2.72,2.72,0,0,0-2.54-.86,2.89,2.89,0,0,0-2.32,1.43,7.8,7.8,0,0,0-.72,3.47 C 320.34,271,320.22,272.77,320.17,274.52Z" fill="param(main_colour)"/>
    <path d="M 305,266.88q0-.26,0-.51 l 4.33-.51q0,.25,0,.51 l -2.07.25 c 1.37,3.33,2.2,6.65,3.37,10,1-3.59,2.55-7.18,3.37-10.75 l -2,.24q0-.25,0-.51 l 6.24-.73q0,.25.06.5 l -1.63.19 c -1.1,5-3.71,10.07-4.37,15.12 l -.57.08 c -2.3-4.64-3.08-9.32-5-14Z" fill="param(main_colour)"/>
    <path d="M 294,278 l .54-.08 a 7,7,0,0,0,1.29,3.07,2.82,2.82,0,0,0,2.67.69 l 2.53-.36 a 60.31,60.31,0,0,1-.55-6.87 l -.52.07 a 2.15,2.15,0,0,0-1.88,1.15,4.44,4.44,0,0,0-.31,2.12 l -.53.07 c -.16-2.07-.27-4.13-.4-6.2 l .55-.07 a 3.61,3.61,0,0,0,.59,1.86 c .34.5,1,.68,2,.56 l .52-.07 c -.07-2.17-.12-4.33-.27-6.5 l -2.32.28 a 4.13,4.13,0,0,0-2.46,1,4.93,4.93,0,0,0-1,3 l -.55.07q-.11-2-.23-4 l 11.12-1.32q0,.26,0,.51 l -2,.24 c .32,4.62,0,9.24.68,13.85 l 1.87-.26q0,.26.08.51 l -10.78,1.51 C 294.43,281.17,294.23,279.58,294,278Z" fill="param(main_colour)"/>
  </g>
  <g id="fixed-colours">
    <path d="M 271.89,276.93 a 20,20,0,0,0,22.17,18.45,31.9,31.9,0,0,1-11.43-4.1 C 277.34,287.87,274.39,283.63,271.89,276.93Z" opacity="0.4"/>
    <path d="M 333.23,274.55 s -18.28-1.27-27.17,7.62 C 312.16,273.78,324.09,271,333.23,274.55Z" opacity="0.2"/>
    <path d="M 313.18,270.48 s 7.87,2.54,14-3.55 C 323.84,268.71,317,270.74,313.18,270.48Z" opacity="0.2"/>
  </g>
<script type="text/ecmascript" xlink:href="param.min.js"/> 
</svg>
