<?xml version="1.0"?>
<svg xmlns="http://www.w3.org/2000/svg" xmlns:xlink="http://www.w3.org/1999/xlink" viewBox="0 0 600 600">
  <title>honey-slogan-hourglass</title>
  <g id="main-colour">
    <path d="M 326.56,274.07q0-.91,0-1.82 l .84,0 c 0-1.21.1-2.42.16-3.63 l -3.31.19 c -.08,1.21-.16,2.43-.2,3.64 l .84-.05 c 0,.61,0,1.21,0,1.82 l -3.31.21 c 0-.61,0-1.22,0-1.83 l .83-.05 c .09-3,.49-6.09.48-9.13 l -.82,0 c 0-.61,0-1.22-.07-1.83 l 3.32-.16 c 0,.61,0,1.21,0,1.82 l -.82,0 c 0,1.22-.06,2.43-.13,3.65 l 3.28-.18 c .06-1.21.11-2.42.13-3.63 l -.82,0 c 0-.61,0-1.21,0-1.82 l 3.33-.16q0,.91-.05,1.81 l -.82,0 c -.08,3-.24,6-.34,9.06 l .84,0-.06,1.81Z" fill="param(main_colour)"/>
    <path d="M 314.68,274.82q-.71-.69-1.37-1.39 c 0-3.32.62-6.64.53-10q.64-.77,1.22-1.54 l 4-.19 c .49.47,1,.93,1.4,1.4.07,3.3-.47,6.6-.51,9.89-.45.52-.89,1-1.3,1.55Z m 4.11-11.24-3.3.17 c 0,3.07-.51,6.14-.54,9.21 l 3.31-.2 C 318.32,269.7,318.82,266.64,318.79,263.58Z" fill="param(main_colour)"/>
    <path d="M 310.11,275.12 c -.31-3,.17-5.92.35-8.89-1.56,3-3.42,6.09-4.41,9.16 l -1.62.11 c -.56-4.34.6-8.7.17-13.05 l 1.66-.08 c .3,3-.16,6-.31,8.94,1.53-3.06,3.41-6.11,4.46-9.14 l 1.66-.08 c .46,4.31-.74,8.63-.34,12.94Z" fill="param(main_colour)"/>
    <path d="M 296.37,276 c -.08-.63-.13-1.25-.17-1.88 l 4.85-.31 c -.05-1.25,0-2.49.06-3.74 l -3.29.19 c 0-.63.06-1.25.09-1.88 l 3.32-.19 c .08-1.25.15-2.5.14-3.74 l -5,.26 c 0-.63,0-1.26-.07-1.88 l 6.69-.34 c .4,4.36-.7,8.72-.12,13.08Z" fill="param(main_colour)"/>
    <path d="M 291.29,269.74 a 63.6,63.6,0,0,0,.23,6.62 l -1.62.11 c -.19-2.21-.23-4.42-.25-6.63-1.11-2.14-2.3-4.3-3.53-6.46 l 1.7-.09 c .92,1.62,1.81,3.23,2.64,4.84.83-1.71,1.68-3.41,2.43-5.1 l 1.68-.09 C 293.6,265.2,292.39,267.47,291.29,269.74Z" fill="param(main_colour)"/>
  </g>
<script type="text/ecmascript" xlink:href="param.min.js"/> 
</svg>
