<?xml version="1.0"?>
<svg xmlns="http://www.w3.org/2000/svg" xmlns:xlink="http://www.w3.org/1999/xlink" viewBox="0 0 600 600">
  <title>sassy-slogan-curvy</title>
  <g id="main-colour">
    <path d="M 305.7,271.76 l -1.1.15 c -.09-1.3-.19-2.59-.31-3.89 a 1.23,1.23,0,0,0-.34-.77,1.06,1.06,0,0,0-.87-.24,1.05,1.05,0,0,0-.79.45,1.19,1.19,0,0,0-.16.84,19.18,19.18,0,0,0,.54,3.23,19.45,19.45,0,0,0,.79,2.47 c .29.73.6,1.42.92,2,.13.35.26.65.41,1 a 12.53,12.53,0,0,1,.61,1.69,19.79,19.79,0,0,1,.52,2 c .15.72.21,1.58.33,2.53 a 2.58,2.58,0,0,1,0,.92,2.46,2.46,0,0,1-.32.75,2.91,2.91,0,0,1-.6.54,2.75,2.75,0,0,1-.9.29,1.89,1.89,0,0,1-1.58-.35,2.14,2.14,0,0,1-.73-1.5 c -.13-1.31-.26-2.61-.38-3.92 l 1.06-.16 c .12,1.31.24,2.61.38,3.92 a 1.39,1.39,0,0,0,.32.77,1.12,1.12,0,0,0,1.55-.24,1.34,1.34,0,0,0,.13-.84,22.85,22.85,0,0,0-.56-3.24,19.51,19.51,0,0,0-.77-2.46 c -.23-.53-.42-1-.65-1.51 l -.7-1.51 a 13.47,13.47,0,0,1-.64-1.67,19.27,19.27,0,0,1-.56-2,24.73,24.73,0,0,1-.32-2.55,2.53,2.53,0,0,1,.06-1,2.29,2.29,0,0,1,.38-.72,2.06,2.06,0,0,1,.66-.53,3.21,3.21,0,0,1,1-.29,2.07,2.07,0,0,1,1.65.39,2.16,2.16,0,0,1,.74,1.54 C 305.52,269.17,305.61,270.47,305.7,271.76Z" fill="param(main_colour)"/>
    <path d="M 313.87,284 c -.27-1.09-.48-2.18-.66-3.27 l -1.38.21 c 0,1.12.07,2.24.18,3.35 l -1,.16 c -.59-6.54.37-13.1.14-19.65 l 1.09-.14 c 1.29,6.42,1.18,12.82,2.71,19.17Z m -2-4.29,1.19-.18 c -.39-2.59-.62-5.18-.92-7.78 C 312,274.44,311.84,277.09,311.84,279.74Z" fill="param(main_colour)"/>
    <path d="M 323.17,269.45 l -1.1.14 c 0-1.27-.09-2.54-.2-3.81 a 1.21,1.21,0,0,0-.33-.76,1,1,0,0,0-.85-.23,1,1,0,0,0-.76.44,1.2,1.2,0,0,0-.16.82,24.21,24.21,0,0,0,.41,3.17,19.16,19.16,0,0,0,.63,2.42,20.9,20.9,0,0,0,.79,2 c .11.34.22.64.35,1 a 11.62,11.62,0,0,1,.52,1.65,19.16,19.16,0,0,1,.42,2 c .11.7.14,1.54.22,2.47 a 2.49,2.49,0,0,1-.06.9,2.54,2.54,0,0,1-.34.73,3,3,0,0,1-.62.53,2.84,2.84,0,0,1-.9.28,2,2,0,0,1-1.59-.35,2.06,2.06,0,0,1-.75-1.47 c -.13-1.28-.2-2.56-.25-3.84 l 1.11-.16 c 0,1.28.11,2.56.23,3.84 a 1.3,1.3,0,0,0,.32.75,1.18,1.18,0,0,0,1.58-.24,1.3,1.3,0,0,0,.15-.82,24.79,24.79,0,0,0-.43-3.17,19.62,19.62,0,0,0-.63-2.41 c -.2-.52-.35-1-.55-1.48 l -.59-1.48 a 12.17,12.17,0,0,1-.52-1.64 c -.16-.61-.31-1.29-.42-2 s -.14-1.58-.21-2.5 a 2.62,2.62,0,0,1,.07-.93,2.31,2.31,0,0,1,.36-.7,1.94,1.94,0,0,1,.63-.52,3,3,0,0,1,.92-.28,2.06,2.06,0,0,1,1.62.38,2.12,2.12,0,0,1,.75,1.51 C 323.08,266.91,323.14,268.18,323.17,269.45Z" fill="param(main_colour)"/>
    <path d="M 332.1,268.3 l -1.08.14 c 0-1.26-.12-2.51-.24-3.77 a 1.21,1.21,0,0,0-.34-.75,1,1,0,0,0-.84-.23,1,1,0,0,0-.74.43,1.18,1.18,0,0,0-.15.81,24.56,24.56,0,0,0,.45,3.13,19,19,0,0,0,.65,2.39,20.42,20.42,0,0,0,.81,2 c .11.34.22.63.36.95 a 11.2,11.2,0,0,1,.53,1.64,17.18,17.18,0,0,1,.43,2 c .11.7.13,1.53.18,2.45 a 2.36,2.36,0,0,1-.09.89,2.55,2.55,0,0,1-.38.72,3.26,3.26,0,0,1-.65.52,3.07,3.07,0,0,1-.93.28,2,2,0,0,1-1.6-.34,2,2,0,0,1-.71-1.46 c -.09-1.27-.14-2.53-.16-3.8 l 1.12-.15 c 0,1.27.07,2.53.16,3.79 a 1.23,1.23,0,0,0,.29.75,1,1,0,0,0,.84.19,1.06,1.06,0,0,0,.77-.42,1.27,1.27,0,0,0,.18-.81,20.39,20.39,0,0,0-.38-3.14,18,18,0,0,0-.63-2.38 c -.2-.52-.36-1-.56-1.47 l -.6-1.47 a 12.07,12.07,0,0,1-.52-1.62 c -.17-.6-.32-1.27-.44-2 s -.15-1.56-.24-2.47 a 2.61,2.61,0,0,1,.05-.92,2.22,2.22,0,0,1,.34-.69,1.88,1.88,0,0,1,.62-.51,3,3,0,0,1,.91-.28,2.05,2.05,0,0,1,1.61.38,2.12,2.12,0,0,1,.75,1.49 C 332,265.79,332,267,332.1,268.3Z" fill="param(main_colour)"/>
    <path d="M 340.43,261.26 c -.39,3.2-.76,6.4-1.17,9.6q.24,4.68.55,9.35 l -1.1.15 c -.21-3.12-.37-6.25-.51-9.39-.74-3-1.41-6.11-2.36-9.18 l 1.07-.13 c .64,2.13,1.16,4.26,1.68,6.38q.42-3.34.77-6.67Z" fill="param(main_colour)"/>
  </g>
  <g id="fixed-colours">
    <path d="M 271.89,276.93 a 20,20,0,0,0,22.17,18.45,31.9,31.9,0,0,1-11.43-4.1 C 277.34,287.87,274.39,283.63,271.89,276.93Z" opacity="0.4"/>
    <path d="M 333.23,274.55 s -18.28-1.27-27.17,7.62 C 312.16,273.78,324.09,271,333.23,274.55Z" opacity="0.2"/>
    <path d="M 313.18,270.48 s 7.87,2.54,14-3.55 C 323.84,268.71,317,270.74,313.18,270.48Z" opacity="0.2"/>
  </g>
<script type="text/ecmascript" xlink:href="param.min.js"/> 
</svg>
