<?xml version="1.0"?>
<svg xmlns="http://www.w3.org/2000/svg" xmlns:xlink="http://www.w3.org/1999/xlink" viewBox="0 0 600 600">
  <title>girl-power-slogan-curvy</title>
  <g id="main-colour">
    <path d="M 321.6,269.83 l -1.23,0 c 0,1.2-.08,2.41-.13,3.61-.06,1.4.47,1.89,1.35,1.85 s 1.45-.55,1.48-1.94 c .1-3.51.18-7,.14-10.53,0-1.39-.58-1.92-1.44-1.91 s -1.39.55-1.35,1.95q0,1,0,2.1 l -2.56,0q0-1,0-1.91 c -.1-3.15,1.08-5,3.85-5 s 4.21,1.75,4.18,4.85 c 0,3.36-.05,6.73-.09,10.09,0,3.1-1.47,4.93-4.24,5 s -4.08-1.63-3.91-4.78 c .11-2.08.19-4.16.22-6.24 l 3.78-.08Q321.64,268.43,321.6,269.83Z" fill="param(main_colour)"/>
    <path d="M 315.6,278.15 l -2.78.11 c .4-6.61,1-13.23.14-19.81 l 2.8,0 C 316.49,265,316,271.57,315.6,278.15Z" fill="param(main_colour)"/>
    <path d="M 302.2,278.68 a 7,7,0,0,0,.41-2.46 c 0-1,.09-2.07.13-3.11.08-2.1.58-3.64,2-4.33-1.25-.63-1.83-2-1.86-4q0-.79,0-1.58 c -.12-3.11.93-4.64,3.84-4.66 l 4.23,0 c .85,6.6.29,13.24-.12,19.87 l -2.77.11 c .16-2.71.34-5.42.45-8.13 l -1,0 c -1.28,0-1.86.74-1.95,2.6-.05,1.05-.11,2.1-.16,3.15 a 7.31,7.31,0,0,1-.38,2.47Z M 307,261.36 c -1,0-1.39.65-1.33,2.08q0,1,0,2 c 0,1.6.64,2.11,1.69,2.08 l 1.1,0 c 0-2,0-4.09-.15-6.13Z" fill="param(main_colour)"/>
    <path d="M 300.7,278.74 l -7.23.29q0-1.46,0-2.91 L 298,276 c .12-5.79.2-11.58-.19-17.36 l 2.82,0 A 160.15,160.15,0,0,1,300.7,278.74Z" fill="param(main_colour)"/>
    <path d="M 323.23,281.57 l 2.64-.12q0,6.06-.08,12.12 l -1.73.11q0-2.28,0-4.56 l -.85,0 c -1.79.1-2.69-.91-2.68-2.87q0-.79,0-1.59 C 320.54,282.75,321.45,281.65,323.23,281.57Z m 0,1.74 c -.57,0-.89.32-.9,1.19q0,.91,0,1.83 c 0,.87.31,1.13.88,1.1 l .85,0q0-2.06,0-4.11Z" fill="param(main_colour)"/>
    <path d="M 319.79,291 c .07,2-.76,3.13-2.44,3.24 s -2.74-1-2.87-2.93 c -.13-2.14-.15-4.27-.1-6.41,0-2,1-3.15,2.77-3.22 s 2.64,1,2.6,3 C 319.71,286.78,319.71,288.9,319.79,291Z M 318,284.62 c 0-.88-.32-1.19-.89-1.17 s -.93.38-.95,1.26 c 0,2.21,0,4.43.09,6.64,0,.88.43,1.19,1,1.16 s .88-.39.84-1.26 C 317.93,289,317.92,286.83,318,284.62Z" fill="param(main_colour)"/>
    <path d="M 309.21,294.65 l -2.27.15 a 76.43,76.43,0,0,1-1.58-12.42 l 1.49-.07 a 82.87,82.87,0,0,0,1,9.85,81.78,81.78,0,0,1,.77-9.93 l 1.66-.08 a 82.18,82.18,0,0,0,.9,9.74,83,83,0,0,1,.87-9.82 l 1.7-.08 a 75.86,75.86,0,0,0-.94,12.42 l -2.35.15 a 60.42,60.42,0,0,1-1.07-6.58 A 58.56,58.56,0,0,0,309.21,294.65Z" fill="param(main_colour)"/>
    <path d="M 302.76,284.29 l -2.9.14q0-.9,0-1.8 l 4.62-.21 a 79.71,79.71,0,0,0,.37,12.52 l -4.65.3q-.08-.9-.15-1.8 l 2.92-.18 c -.1-1.22-.17-2.45-.21-3.67 l -2.3.13q0-.9,0-1.8 l 2.3-.13 C 302.73,286.62,302.74,285.46,302.76,284.29Z" fill="param(main_colour)"/>
    <path d="M 293.87,295.65 a 4.43,4.43,0,0,0,.15-1.56q0-1,0-2 c 0-1.33.23-2.31,1-2.77-.73-.37-1.08-1.21-1.1-2.52q0-.5,0-1 c 0-2,.7-3,2.42-3 l 2.52-.12 a 126.1,126.1,0,0,0,.33,12.63 l -1.71.11 c -.12-1.72-.19-3.44-.24-5.15 l -.57,0 c -.75,0-1.07.5-1,1.68q0,1,.07,2 a 4.65,4.65,0,0,1-.09,1.57Z m 2.5-11 c -.59,0-.84.44-.83,1.35q0,.63,0,1.25 c 0,1,.39,1.32,1,1.29 l .64,0q0-1.94,0-3.89Z" fill="param(main_colour)"/>
  </g>
<script type="text/ecmascript" xlink:href="param.min.js"/> 
</svg>
