<?xml version="1.0"?>
<svg xmlns="http://www.w3.org/2000/svg" xmlns:xlink="http://www.w3.org/1999/xlink" viewBox="0 0 600 600">
  <title>honey-slogan-curvy</title>
  <g id="main-colour">
    <path d="M 286.35,280.66q0-1.1-.06-2.2 l .93,0 c -.11-3.67-.13-7.34-.23-11 l -1,0q0-1.1-.06-2.21 l 3.92-.13 c 0,.73.05,1.47.07,2.2 l -1,0 c 0,1.47,0,2.93,0,4.4 l 3.84-.16 c 0-1.46.07-2.92,0-4.39 l -1,0q0-1.1-.07-2.19 l 3.9-.13 c .05.73.08,1.46.09,2.19 l -1,0 c 0,3.65-.32,7.3-.18,10.94 l .93,0 c 0,.73.08,1.46.16,2.19 l -3.75.19 c -.06-.73-.11-1.46-.13-2.19 l .93,0 c -.06-1.46,0-2.92,0-4.38 l -3.78.16 c 0,1.47,0,2.93.07,4.4 l .93,0q0,1.1.11,2.2Z" fill="param(main_colour)"/>
    <path d="M 299.12,280 c -.57-.56-1.12-1.11-1.64-1.67-.2-3.93.36-7.86.28-11.79.51-.6,1-1.2,1.47-1.8 l 4.65-.16q.86.84,1.66,1.68 c .1,3.9-.71,7.8-.55,11.7q-.72.9-1.36,1.81Z m .21-2.2,3.76-.18 c -.1-3.62.54-7.24.51-10.85 l -3.89.14 C 299.74,270.57,299.2,274.2,299.33,277.83Z" fill="param(main_colour)"/>
    <path d="M 307,279.64 c -.63-5,.9-10.09.35-15.14 l 1.93-.06 c 2,3.4,3,6.79,4.31,10.16.26-3.44.9-6.88.5-10.31 l 1.92-.06 c .57,5-1,10-.54,15 l -1.89.09 c -1.94-3.35-2.92-6.73-4.28-10.13-.24,3.46-.85,6.91-.43,10.36Z" fill="param(main_colour)"/>
    <path d="M 317.37,279.13 c -.42-5,1.12-10,.58-15 l 7.69-.25 c .06.71.08,1.42.07,2.12 l -5.73.2 a 41.35,41.35,0,0,1-.25,4.27 l 3.83-.15 c -.07.71-.14,1.42-.21,2.13 l -3.84.16 c -.15,1.42-.28,2.85-.3,4.27 l 5.76-.26 c 0,.71,0,1.42,0,2.12Z" fill="param(main_colour)"/>
    <path d="M 327.56,263.84 l 1.92-.06 c 1,1.82,1.88,3.64,2.72,5.45,1.08-1.88,2.08-3.76,3.07-5.63 l 1.94-.06 c -1.39,2.49-2.72,5-4.18,7.49-.17,2.46-.35,4.92-.4,7.37 l -1.92.09 c 0-2.46.22-4.92.41-7.39 A 75.38,75.38,0,0,0,327.56,263.84Z" fill="param(main_colour)"/>
  </g>
<script type="text/ecmascript" xlink:href="param.min.js"/> 
</svg>
