<?xml version="1.0"?>
<svg xmlns="http://www.w3.org/2000/svg" xmlns:xlink="http://www.w3.org/1999/xlink" viewBox="0 0 600 600">
  <title>sassy-slogan-slender</title>
  <g id="main-colour">
    <path d="M 308.65,267.53 l -1,.09 c 0-1.19-.1-2.39-.17-3.58 a 1.16,1.16,0,0,0-.29-.72,1,1,0,0,0-.79-.25,1,1,0,0,0-.73.38,1.09,1.09,0,0,0-.18.76,17.42,17.42,0,0,0,.4,3,18,18,0,0,0,.65,2.3 c .25.68.51,1.33.78,1.92.11.33.22.61.34.92 a 11.33,11.33,0,0,1,.51,1.58,18.44,18.44,0,0,1,.41,1.88 c .12.67.15,1.45.22,2.33 a 2.38,2.38,0,0,1-.06.85,2.24,2.24,0,0,1-.32.67,2.59,2.59,0,0,1-.57.47,2.53,2.53,0,0,1-.83.23,1.74,1.74,0,0,1-1.43-.39,2,2,0,0,1-.62-1.41q-.12-1.81-.23-3.62 l 1-.1 c .07,1.2.14,2.41.23,3.61 a 1.27,1.27,0,0,0,.26.72.88.88,0,0,0,.75.21.85.85,0,0,0,.68-.37,1.22,1.22,0,0,0,.15-.76,21.06,21.06,0,0,0-.41-3,17.89,17.89,0,0,0-.63-2.29 c -.2-.5-.35-1-.55-1.42 l -.6-1.42 a 12.63,12.63,0,0,1-.54-1.56,17.93,17.93,0,0,1-.46-1.89,22.58,22.58,0,0,1-.22-2.35,2.35,2.35,0,0,1,.09-.87,2.07,2.07,0,0,1,.37-.64,1.88,1.88,0,0,1,.62-.46,2.93,2.93,0,0,1,.89-.23,1.92,1.92,0,0,1,1.5.42,2,2,0,0,1,.65,1.44 C 308.56,265.14,308.61,266.34,308.65,267.53Z" fill="param(main_colour)"/>
    <path d="M 315.77,279.14 c -.23-1-.4-2-.53-3 l -1.27.13 c 0,1,0,2.05.08,3.08 l -1,.1 c -.41-6,.84-12,.68-18 l 1-.08 c 1.14,5.93.65,11.84,1.95,17.72Z m -1.76-4,1.1-.11 c -.27-2.39-.39-4.79-.57-7.2 C 314.34,270.25,314.1,272.68,314,275.12Z" fill="param(main_colour)"/>
    <path d="M 324.73,266.11 l -1,.09 c 0-1.17,0-2.34-.08-3.51 a 1.14,1.14,0,0,0-.29-.71,1,1,0,0,0-.78-.25.9.9,0,0,0-.7.37,1.07,1.07,0,0,0-.16.75,24.87,24.87,0,0,0,.3,2.93,18.47,18.47,0,0,0,.49,2.25,19,19,0,0,0,.65,1.88 c .09.32.17.6.28.9 a 10.89,10.89,0,0,1,.41,1.54 c .13.56.24,1.16.32,1.84 s .08,1.42.14,2.28 a 2.32,2.32,0,0,1-.07.83,2.25,2.25,0,0,1-.33.66,2.63,2.63,0,0,1-.57.46,2.56,2.56,0,0,1-.83.22,1.85,1.85,0,0,1-1.46-.38,1.93,1.93,0,0,1-.67-1.38 c -.09-1.18-.12-2.36-.12-3.54 l 1-.1 c 0,1.18,0,2.36.11,3.53 a 1.2,1.2,0,0,0,.28.71.93.93,0,0,0,.76.21.88.88,0,0,0,.69-.36,1.18,1.18,0,0,0,.16-.75,25.67,25.67,0,0,0-.31-2.93,18.81,18.81,0,0,0-.49-2.24 c -.16-.49-.29-.94-.45-1.39 l -.49-1.39 a 11.62,11.62,0,0,1-.41-1.53 c -.13-.56-.24-1.2-.33-1.85 s -.08-1.46-.14-2.3 a 2.48,2.48,0,0,1,.08-.85,2,2,0,0,1,.34-.63,1.72,1.72,0,0,1,.58-.45,2.72,2.72,0,0,1,.85-.22,1.94,1.94,0,0,1,1.48.42,2,2,0,0,1,.67,1.41 C 324.73,263.78,324.75,264.94,324.73,266.11Z" fill="param(main_colour)"/>
    <path d="M 332.93,265.41 l -1,.09 c 0-1.16,0-2.31-.1-3.47 a 1.11,1.11,0,0,0-.29-.7,1,1,0,0,0-.77-.25.88.88,0,0,0-.69.36,1.08,1.08,0,0,0-.16.74,24.53,24.53,0,0,0,.31,2.89,18.06,18.06,0,0,0,1.17,4.09 c .09.32.18.59.29.89 a 10.74,10.74,0,0,1,.42,1.53,16.92,16.92,0,0,1,.32,1.82 c .08.64.07,1.41.1,2.26 a 2.16,2.16,0,0,1-.1.82,2.3,2.3,0,0,1-.36.65,2.89,2.89,0,0,1-.6.46,2.76,2.76,0,0,1-.85.22,1.75,1.75,0,0,1-2.08-1.74 c -.06-1.17-.06-2.33,0-3.5 l 1-.1 c 0,1.17,0,2.33,0,3.49 a 1.15,1.15,0,0,0,.26.7.93.93,0,0,0,.77.21.94.94,0,0,0,.71-.36,1.17,1.17,0,0,0,.19-.74,20.58,20.58,0,0,0-.26-2.9,17.55,17.55,0,0,0-.5-2.22 c -.17-.48-.29-.93-.46-1.37 l -.49-1.37 a 11.67,11.67,0,0,1-.42-1.51 c -.13-.56-.24-1.18-.33-1.83 s -.09-1.44-.15-2.27 a 2.36,2.36,0,0,1,.07-.84,1.94,1.94,0,0,1,.33-.62,1.66,1.66,0,0,1,.58-.44,2.7,2.7,0,0,1,.84-.22,1.92,1.92,0,0,1,1.47.41,2,2,0,0,1,.65,1.4 C 332.9,263.1,332.93,264.25,332.93,265.41Z" fill="param(main_colour)"/>
    <path d="M 340.81,259.28 c -.47,2.92-.91,5.84-1.41,8.77q.06,4.31.17,8.62 l -1,.1 c -.09-2.88-.12-5.76-.14-8.65-.56-2.83-1.07-5.67-1.85-8.52 l 1-.07 c .52,2,.92,3.95,1.32,5.92.34-2,.64-4.06.94-6.09Z" fill="param(main_colour)"/>
  </g>
  <g id="fixed-colours">
    <path d="M 289.35,285.05 A 29.19,29.19,0,0,0,311,289.76 C 304.17,293.63,294,291.6,289.35,285.05Z" opacity="0.4"/>
    <path d="M 332.15,270.58 s -13.31-.92-19.78,5.55 C 316.81,270,325.49,268,332.15,270.58Z" opacity="0.2"/>
    <path d="M 317.55,267.62 A 10.54,10.54,0,0,0,327.71,265 C 325.31,266.33,320.32,267.81,317.55,267.62Z" opacity="0.2"/>
  </g>
<script type="text/ecmascript" xlink:href="param.min.js"/> 
</svg>
