<?xml version="1.0"?>
<svg xmlns="http://www.w3.org/2000/svg" xmlns:xlink="http://www.w3.org/1999/xlink" viewBox="0 0 600 600">
  <title>girl-power-slogan-hourglass</title>
  <g id="main-colour">
    <path d="M 333.06,273.05 l -1.36.06 c -.44,1.26-.89,2.52-1.35,3.78-.53,1.46-.16,2,.73,1.9 s 1.66-.62,2.24-2.07 c 1.47-3.67,2.9-7.34,4.07-11,.47-1.45,0-2-1.09-2 s -1.84.59-2.25,2.06q-.31,1.1-.65,2.19 l -3,.1q.28-1,.53-2 c .83-3.3,2.81-5.21,6.17-5.26 s 4.61,1.76,3.44,5 c -1.25,3.5-2.74,7-4.27,10.51-1.4,3.23-3.59,5.18-6.24,5.38 s -3.4-1.59-2.33-4.89 c .72-2.18,1.43-4.36,2.07-6.54 l 4.31-.17Q333.59,271.59,333.06,273.05Z" fill="param(main_colour)"/>
    <path d="M 324.34,281.92 l -2.7.2 c 1.91-6.94,4-13.9,4.8-20.83 l 3.38-.06 C 328.79,268.1,326.47,275,324.34,281.92Z" fill="param(main_colour)"/>
    <path d="M 311.35,282.88 a 8.76,8.76,0,0,0,.67-2.6q.25-1.64.49-3.28 c .33-2.22,1-3.86,2.62-4.63-1.24-.63-1.7-2-1.51-4.23q.07-.84.13-1.68 c .19-3.29,1.61-4.94,5.14-5 l 5.1-.1 c -.63,7-2.56,14-4.3,20.92 l -2.69.2 c .61-2.85,1.24-5.71,1.82-8.57 l -1,.05 c -1.35.07-2.05.82-2.41,2.79q-.3,1.66-.6,3.33 a 9.28,9.28,0,0,1-.71,2.62Z m 7.43-18.42 c -1.17,0-1.71.71-1.86,2.23q-.11,1-.24,2.09 c -.22,1.7.38,2.21,1.52,2.16 l 1.2-.05 c .4-2.16.73-4.31,1-6.47Z" fill="param(main_colour)"/>
    <path d="M 309.9,283 l -7,.54q.06-1.54.12-3.09 l 4.52-.31 a 111.06,111.06,0,0,0,.74-18.45 l 3.37-.08 C 311.89,268.73,310.8,275.88,309.9,283Z" fill="param(main_colour)"/>
    <path d="M 330.33,285.27 l 2.4-.2 a 106.92,106.92,0,0,0-4.33,12.63 l -1.38.18 c .38-1.59.82-3.17,1.31-4.76 l -.69.08 c -1.46.16-1.89-.87-1.28-2.91q.25-.83.52-1.66 C 327.52,286.59,328.7,285.41,330.33,285.27Z m -.67,1.82 c -.5,0-.88.36-1.2,1.27q-.33,1-.63,1.91 c -.29.91-.12,1.17.36,1.12 l .71-.07 c .47-1.43,1-2.86,1.51-4.29Z" fill="param(main_colour)"/>
    <path d="M 324.39,295.25 c -.48,2-1.41,3.3-2.74,3.48 s -1.92-.9-1.57-3 c .39-2.23.88-4.47,1.43-6.71.52-2.07,1.71-3.33,3.3-3.46 s 2.06,1,1.41,3 C 325.54,290.82,324.91,293,324.39,295.25Z m .31-6.63 c .27-.92.06-1.24-.44-1.19 s -.92.42-1.17,1.34 c -.62,2.32-1.18,4.63-1.62,6.94-.17.92,0,1.23.49,1.18 s .79-.44,1-1.35 C 323.43,293.24,324,290.93,324.7,288.62Z" fill="param(main_colour)"/>
    <path d="M 315.26,299.42 l -1.78.24 a 112.49,112.49,0,0,1,.4-13 l 1.39-.12 c -.35,3.45-.63,6.89-.69,10.31 a 96.21,96.21,0,0,1,2.32-10.45 l 1.54-.13 c -.5,3.41-.93,6.8-1.14,10.18 a 97.62,97.62,0,0,1,2.77-10.32 l 1.56-.13 a 89.53,89.53,0,0,0-3.56,13 l -1.85.25 c 0-2.28.14-4.57.33-6.86 C 316,294.76,315.57,297.09,315.26,299.42Z" fill="param(main_colour)"/>
    <path d="M 311.26,288.77 l -2.67.25q.08-.95.17-1.9 l 4.33-.38 a 96.37,96.37,0,0,0-1.22,13.14 l -3.61.49q0-.94-.05-1.89 l 2.35-.3 c 0-1.28.09-2.57.17-3.85 l -2,.22q0-.95.1-1.89 l 2-.22Q311,290.61,311.26,288.77Z" fill="param(main_colour)"/>
    <path d="M 303.37,301 a 6.85,6.85,0,0,0,0-1.64q-.09-1-.16-2.06 c -.09-1.39.11-2.44.82-3-.65-.37-1-1.23-1-2.61q0-.53,0-1.06 c 0-2.07.74-3.16,2.38-3.3 l 2.38-.21 a 96.38,96.38,0,0,0-.34,13.28 l -1.32.18 c -.13-1.8-.19-3.6-.19-5.41 l -.49.06 c -.64.07-.93.57-.87,1.8q0,1,.12,2.09 a 7.15,7.15,0,0,1,0,1.65Z m 2-11.72 c -.54.05-.8.5-.82,1.45q0,.66,0,1.32 c 0,1.07.33,1.38.87,1.32 l .57-.06 c 0-1.36.08-2.73.15-4.1Z" fill="param(main_colour)"/>
  </g>
  <g id="fixed-colours">
    <path d="M 327.9,274.55 s -12-.83-17.83,5 C 314.07,274,321.9,272.21,327.9,274.55Z" opacity="0.2"/>
    <path d="M 314.73,271.88 a 9.5,9.5,0,0,0,9.17-2.33 C 321.73,270.71,317.23,272,314.73,271.88Z" opacity="0.2"/>
    <path d="M 276.22,285.38 A 26.12,26.12,0,0,0,291.39,294 a 32.68,32.68,0,0,0,12.5-.33 C 294.19,298.69,280.93,296.08,276.22,285.38Z" opacity="0.4"/>
  </g>
<script type="text/ecmascript" xlink:href="param.min.js"/> 
</svg>
