<?xml version="1.0"?>
<svg xmlns="http://www.w3.org/2000/svg" xmlns:xlink="http://www.w3.org/1999/xlink" viewBox="0 0 600 600">
  <title>sassy-slogan-slender</title>
  <g id="main-colour">
    <path d="M 332.67,260 a 2.09,2.09,0,0,1,.33-1.5,1.86,1.86,0,0,1,1.33-.72,2.83,2.83,0,0,1,.89,0,1.75,1.75,0,0,1,.68.3,1.81,1.81,0,0,1,.46.52,2,2,0,0,1,.22.79,17.58,17.58,0,0,1,.15,2.24,15.41,15.41,0,0,1-.18,1.87,11.6,11.6,0,0,1-.33,1.59 c -.14.5-.42,1.48-.42,1.48-.14.48-.25,1-.4,1.47 a 17.29,17.29,0,0,0-.39,2.32,14.75,14.75,0,0,0,0,2.91,1,1,0,0,0,.28.67.87.87,0,0,0,.77.16,1.1,1.1,0,0,0,.74-.4,1.25,1.25,0,0,0,.16-.74q-.14-1.71-.27-3.42 l 1-.17q.14,1.71.28,3.42 a 2,2,0,0,1-.42,1.48,2.14,2.14,0,0,1-1.4.75,2.83,2.83,0,0,1-.89,0,2.44,2.44,0,0,1-.67-.28,1.83,1.83,0,0,1-.45-.53,1.86,1.86,0,0,1-.2-.77,17.39,17.39,0,0,1-.09-2.24,15.07,15.07,0,0,1,.23-1.88,11.88,11.88,0,0,1,.36-1.62 c .1-.32.18-.61.26-1 a 19.61,19.61,0,0,0,.57-2,15.27,15.27,0,0,0,.35-2.31,14,14,0,0,0-.06-2.89,1,1,0,0,0-.29-.68.88.88,0,0,0-.76-.19,1,1,0,0,0-.7.41,1.18,1.18,0,0,0-.14.75 c .14,1.14.24,2.28.33,3.42 l -1,.15 C 332.92,262.33,332.81,261.18,332.67,260Z" fill="param(main_colour)"/>
    <path d="M 326,276.57 c -.26-5.86.76-11.75.12-17.62 l 1-.15 c 1.5,5.73,1.54,11.45,2.64,17.12 l -1,.17 c -.18-1-.34-1.95-.48-2.92 l -1.31.22 c 0,1,0,2,0,3Z m 1.29-11.42 c -.07,2.38-.24,4.76-.31,7.14 l 1.13-.19 C 327.84,269.8,327.63,267.48,327.33,265.15Z" fill="param(main_colour)"/>
    <path d="M 316.94,262.48 a 2.21,2.21,0,0,1,.35-1.54,1.88,1.88,0,0,1,1.33-.75,2.79,2.79,0,0,1,.88,0,1.79,1.79,0,0,1,.69.3,1.93,1.93,0,0,1,.48.53,2.1,2.1,0,0,1,.24.81,14.37,14.37,0,0,1,.14,2.29,14,14,0,0,1-.24,1.92,11.8,11.8,0,0,1-.4,1.63 c -.16.51-.5,1.51-.5,1.51-.17.49-.29,1-.46,1.5 a 15.36,15.36,0,0,0-.44,2.37,12.53,12.53,0,0,0,0,3,1.05,1.05,0,0,0,.3.68.84.84,0,0,0,.75.16,1,1,0,0,0,.7-.41,1.35,1.35,0,0,0,.13-.76 c -.12-1.16-.2-2.33-.25-3.49 l 1-.17 c 0,1.16.12,2.33.23,3.49 a 2.17,2.17,0,0,1-.36,1.51,1.91,1.91,0,0,1-1.31.77,2.59,2.59,0,0,1-.87,0,2.52,2.52,0,0,1-.68-.28,1.83,1.83,0,0,1-.71-1.33,14.48,14.48,0,0,1-.15-2.29,13.32,13.32,0,0,1,.23-1.92,11.32,11.32,0,0,1,.4-1.66 c .11-.33.2-.63.29-1,.24-.63.46-1.33.66-2 a 15.06,15.06,0,0,0,.44-2.37,12.34,12.34,0,0,0,0-3,1,1,0,0,0-.3-.69.89.89,0,0,0-.77-.19,1,1,0,0,0-.71.42,1.23,1.23,0,0,0-.15.76 c .13,1.17.2,2.33.25,3.5 l -1,.16 C 317.13,264.81,317.06,263.65,316.94,262.48Z" fill="param(main_colour)"/>
    <path d="M 308.61,263.79 a 2.21,2.21,0,0,1,.38-1.55,2,2,0,0,1,1.37-.76,2.84,2.84,0,0,1,.9,0,1.74,1.74,0,0,1,.69.3,1.86,1.86,0,0,1,.47.54,2.09,2.09,0,0,1,.23.82,16,16,0,0,1,.12,2.31,15.58,15.58,0,0,1-.24,1.94,13,13,0,0,1-.39,1.65 l -.47,1.53 c -.15.5-.27,1-.41,1.52 a 14.75,14.75,0,0,0-.36,2.39,12.93,12.93,0,0,0,.13,3,1.12,1.12,0,0,0,.32.69.84.84,0,0,0,.75.16.94.94,0,0,0,.67-.42,1.36,1.36,0,0,0,.1-.77 c -.17-1.18-.28-2.35-.36-3.53 l 1-.17 c .08,1.18.19,2.35.35,3.52 a 2.2,2.2,0,0,1-.29,1.52,1.78,1.78,0,0,1-1.26.78,2.5,2.5,0,0,1-.86,0,2.56,2.56,0,0,1-.68-.29,2.08,2.08,0,0,1-.49-.55,2.11,2.11,0,0,1-.26-.79,15.11,15.11,0,0,1-.23-2.31,13.31,13.31,0,0,1,.16-1.94,11.09,11.09,0,0,1,.34-1.67 c .1-.33.18-.63.26-1,.22-.64.43-1.35.61-2.07 a 16.85,16.85,0,0,0,.42-2.39,13.73,13.73,0,0,0,0-3,1,1,0,0,0-.3-.7.89.89,0,0,0-.77-.2,1,1,0,0,0-.73.43,1.25,1.25,0,0,0-.16.77 c .11,1.18.2,2.36.27,3.53 l -1,.17 C 308.81,266.14,308.73,265,308.61,263.79Z" fill="param(main_colour)"/>
    <path d="M 301,262.84q1,3,1.83,6 c .17-2.14.35-4.27.48-6.41 l 1-.16 c -.19,3.07-.49,6.14-.74,9.21.28,3,.56,6,1.08,8.95 l -1,.18 c -.5-3-.79-6-1.09-8.94q-1.22-4.34-2.63-8.72Z" fill="param(main_colour)"/>
  </g>
  <g id="fixed-colours">
    <path d="M 292.14,285.38 c 6.87,2.13,15.94,1.39,21.83-3.67 C 309.22,289.38,297.38,289.89,292.14,285.38Z" opacity="0.4"/>
    <path d="M 328.57,271.59 s -10.9-.76-16.2,4.54 C 316,271.13,323.12,269.47,328.57,271.59Z" opacity="0.2"/>
    <path d="M 316.61,269.16 a 8.63,8.63,0,0,0,8.33-2.12 A 20,20,0,0,1,316.61,269.16Z" opacity="0.2"/>
  </g>
<script type="text/ecmascript" xlink:href="param.min.js"/> 
</svg>
