<?xml version="1.0"?>
<svg xmlns="http://www.w3.org/2000/svg" xmlns:xlink="http://www.w3.org/1999/xlink" viewBox="0 0 600 600">
  <title>love-slogan-curvy</title>
  <g id="main-colour">
    <path d="M 328.91,271.53 l .61-.08 a 4.63,4.63,0,0,0,.9,3.05,2.77,2.77,0,0,0,2.68.78 l 2.58-.34 c -.16-4.45,0-8.9-.44-13.36 l -2,.25q0-.25-.07-.49 l 6.47-.78,0,.49-1.93.23 c .38,4.45.33,8.89.52,13.33 l 2-.26,0,.49-11.1,1.49 C 329,274.72,329,273.13,328.91,271.53Z" fill="param(main_colour)"/>
    <path d="M 315.24,270.93 a 10.52,10.52,0,0,1,1.9-5.62,5.75,5.75,0,0,1,4-2.82,5.29,5.29,0,0,1,4.5,1.75,6.7,6.7,0,0,1,1.9,5.06,9.64,9.64,0,0,1-2,5.56,6.21,6.21,0,0,1-4.15,2.85 A 5,5,0,0,1,317,276,6.61,6.61,0,0,1,315.24,270.93Z m 2.82,2.23 a 4.87,4.87,0,0,0,.84,3.25,2.55,2.55,0,0,0,2.5.8,3.09,3.09,0,0,0,2.37-1.47,7.08,7.08,0,0,0,.8-3.45 c 0-1.73.13-3.47.13-5.21 a 4.93,4.93,0,0,0-.93-3.25,2.7,2.7,0,0,0-2.54-.83,2.91,2.91,0,0,0-2.31,1.45,7.69,7.69,0,0,0-.69,3.47 C 318.2,269.67,318.1,271.42,318.06,273.16Z" fill="param(main_colour)"/>
    <path d="M 302.82,265.68q0-.26,0-.51 l 4.33-.55q0,.26,0,.51 l -2.07.27 c 1.37,3.32,2.26,6.62,3.45,9.91,1-3.6,2.47-7.19,3.29-10.77 l -2,.26q0-.25,0-.51 l 6.24-.79q0,.25.06.5 l -1.63.21 c -1.1,5-3.6,10.09-4.27,15.15 l -.57.08 c -2.3-4.62-3.17-9.28-5.08-14Z" fill="param(main_colour)"/>
    <path d="M 291.94,276.9 l .54-.08 a 7,7,0,0,0,1.31,3.05,2.81,2.81,0,0,0,2.68.67 l 2.52-.38 a 62,62,0,0,1-.6-6.86 l -.52.07 a 2.16,2.16,0,0,0-1.87,1.17,4.45,4.45,0,0,0-.3,2.12 l -.53.08 c -.18-2.06-.31-4.13-.45-6.2 l .55-.08 a 3.59,3.59,0,0,0,.6,1.86 c .34.5,1,.67,2,.54 l .52-.07 c -.09-2.16-.16-4.33-.32-6.49 l -2.31.3 a 4.12,4.12,0,0,0-2.45,1,4.93,4.93,0,0,0-1,3 l -.55.08q-.12-2-.26-4 l 11.1-1.43q0,.26,0,.51 l -2,.26 c .33,4.62.05,9.23.78,13.83 l 1.86-.28q0,.26.09.51 l -10.76,1.62 C 292.35,280.07,292.15,278.48,291.94,276.9Z" fill="param(main_colour)"/>
  </g>
  <g id="fixed-colours">
    <path d="M 304.23,283.15 c -8.46,4.78-13.95,5.54-21.42,5 C 289.71,291.7,299.52,289.12,304.23,283.15Z" opacity="0.4"/>
    <path d="M 331.9,273.4 s -15.54-1.08-23.09,6.48 C 314,272.76,324.13,270.38,331.9,273.4Z" opacity="0.2"/>
    <path d="M 314.85,269.95 a 12.31,12.31,0,0,0,11.87-3 C 323.91,268.44,318.09,270.17,314.85,269.95Z" opacity="0.2"/>
  </g>
<script type="text/ecmascript" xlink:href="param.min.js"/> 
</svg>
