<?xml version="1.0"?>
<svg xmlns="http://www.w3.org/2000/svg" xmlns:xlink="http://www.w3.org/1999/xlink" viewBox="0 0 600 600">
  <title>love-slogan-slender</title>
  <g id="main-colour">
    <path d="M 334.95,271.13 l .53-.05 a 4,4,0,0,0,.71,2.66,2.4,2.4,0,0,0,2.29.75 l 2.23-.23 c -.06-3.85.28-7.71,0-11.56 l -1.74.16q0-.21,0-.43 l 5.61-.51v.43 l -1.67.15 c .21,3.85,0,7.69.1,11.53 l 1.72-.18v.42 l -9.58,1 C 335,273.89,334.94,272.51,334.95,271.13Z" fill="param(main_colour)"/>
    <path d="M 323.22,270.24 a 9.38,9.38,0,0,1,1.76-4.81,4.8,4.8,0,0,1,3.49-2.32,4.65,4.65,0,0,1,3.88,1.63,5.72,5.72,0,0,1,1.49,4.43,8.57,8.57,0,0,1-1.82,4.76,5.2,5.2,0,0,1-3.59,2.35,4.39,4.39,0,0,1-3.79-1.58 A 5.65,5.65,0,0,1,323.22,270.24Z m 2.36,2 a 4.16,4.16,0,0,0,.67,2.84,2.24,2.24,0,0,0,2.15.76,2.58,2.58,0,0,0,2-1.21,6.36,6.36,0,0,0,.75-3 c .09-1.5.22-3,.27-4.5 a 4.2,4.2,0,0,0-.73-2.83,2.38,2.38,0,0,0-2.19-.79,2.44,2.44,0,0,0-2,1.19,6.92,6.92,0,0,0-.66,3 C 325.8,269.23,325.65,270.74,325.57,272.25Z" fill="param(main_colour)"/>
    <path d="M 312.64,265.35q0-.22,0-.44 l 3.74-.36q0,.22,0,.44 l -1.79.17 c 1.18,2.9,1.8,5.79,2.75,8.67.93-3.08,2.35-6.16,3.07-9.23 l -1.76.17q0-.22,0-.44 l 5.39-.51q0,.22.05.44 l -1.41.13 c -1,4.31-3.4,8.64-4,13 l -.49.06 c -2-4-2.47-8.12-4.11-12.22Z" fill="param(main_colour)"/>
    <path d="M 303,274.74 l .47-.05 a 6.08,6.08,0,0,0,1.07,2.67,2.44,2.44,0,0,0,2.3.65 l 2.19-.26 a 48.65,48.65,0,0,1-.37-5.94 l -.45,0 a 1.85,1.85,0,0,0-1.64,1,3.81,3.81,0,0,0-.3,1.82 l -.46.05 c -.11-1.79-.17-3.57-.25-5.36 l .48,0 a 3.13,3.13,0,0,0,.48,1.62 c .28.44.84.61,1.68.52 l .45,0 c 0-1.87,0-3.75-.15-5.62 l -2,.19 a 3.56,3.56,0,0,0-2.14.79,4.22,4.22,0,0,0-.94,2.54 l -.48,0q-.07-1.74-.14-3.47 l 9.62-.93q0,.22,0,.44 l -1.72.17 c .25,4-.19,8,.39,12 l 1.62-.19q0,.22.07.44 l -9.33,1.09 C 303.3,277.49,303.16,276.11,303,274.74Z" fill="param(main_colour)"/>
  </g>
  <g id="fixed-colours">
    <path d="M 289.35,285.05 A 29.19,29.19,0,0,0,311,289.76 C 304.17,293.63,294,291.6,289.35,285.05Z" opacity="0.4"/>
    <path d="M 332.15,270.58 s -13.31-.92-19.78,5.55 C 316.81,270,325.49,268,332.15,270.58Z" opacity="0.2"/>
    <path d="M 317.55,267.62 A 10.54,10.54,0,0,0,327.71,265 C 325.31,266.33,320.32,267.81,317.55,267.62Z" opacity="0.2"/>
  </g>
<script type="text/ecmascript" xlink:href="param.min.js"/> 
</svg>
