<?xml version="1.0"?>
<svg xmlns="http://www.w3.org/2000/svg" xmlns:xlink="http://www.w3.org/1999/xlink" viewBox="0 0 250 250">
  <title>voluptuous-bottoms-template</title>
  <g id="skin-tone">
    <path d="M 125,86.56 A 38.44,38.44,0,0,0,86.56,125 c 0,.75,0,1.49.07,2.22 A 77.21,77.21,0,0,0,91.71,153 a 304.4,304.4,0,0,0,27,54.44 c 2.89,6.36,7,9.79,8.39,10.47 h 0 a 12.48,12.48,0,0,0,15,4.14 c 8.58-2.42,8-9.38,10.8-18.2 s 6.83-29.67,8.67-46.17 a 290.86,290.86,0,0,0,1.9-32.67 A 38.44,38.44,0,0,0,125,86.56Z" fill="param(skin_tone)"/>
  </g>
  <g id="outline">
    <path d="M 125,84.56 a 40.38,40.38,0,0,0-40.17,45.08 c 0,.44,0,.73,0,.73 h 0 c 1.86,17.71,11.49,39.15,17.05,49.76,6.7,12.78,19.09,35.46,25.15,37.78-5.74-7-18.92-29.28-28.15-50.38 a 198.33,198.33,0,0,1-7.65-20.28 c -1.42-4.35-1.89-6.41-2.9-10.63 A 71.13,71.13,0,0,1,86.59,126 c 0-.34,0-.68,0-1 a 38.44,38.44,0,0,1,76.88,0 h 0 c 0,1-.05,2.08-.14,3.1-.07,2.62-.2,6.72-.71,11.75-1.58,17.5-4.94,39.84-6.1,47-2.11,12.92-5.44,25.66-8.69,30.63 A 14,14,0,0,1,142,222 c 5.76-.8,8.78-4.81,12.44-15.47,5.21-17.58,7.28-38.9,8.95-54.07.18-1.64.35-3.2.51-4.72 h 0 l 0-.43 c .34-3.26.62-6.25.77-8.89.37-5.14.55-9.19.62-11.45,0-.46,0-.91,0-1.37 s 0-.64,0-.64 A 40.49,40.49,0,0,0,125,84.56Z"/>
  </g>
<script type="text/ecmascript" xlink:href="param.min.js"/> 
</svg>
