<?xml version="1.0"?>
<svg xmlns="http://www.w3.org/2000/svg" xmlns:xlink="http://www.w3.org/1999/xlink" viewBox="0 0 600 600">
  <title>love-slogan-slender</title>
  <g id="main-colour">
    <path d="M 307.32,278.31 l -8.94,1,0-.44,1.6-.18 c -.41-3.94-.44-7.89-.72-11.84 l -1.7.16,0-.44,5.68-.52q0,.22,0,.44 l -1.78.17 c .25,3.94.09,7.88.58,11.81 l 2.07-.23 a 2.38,2.38,0,0,0,2-1.24,6.1,6.1,0,0,0,.6-2.85 l .5-.05 A 26,26,0,0,0,307.32,278.31Z" fill="param(main_colour)"/>
    <path d="M 317,275.55 a 4.71,4.71,0,0,1-3.34,2.34,4.39,4.39,0,0,1-3.74-1.57,5.93,5.93,0,0,1-1.57-4.45,8.42,8.42,0,0,1,1.66-4.75,4.9,4.9,0,0,1,3.54-2.31,4.55,4.55,0,0,1,3.8,1.61,5.58,5.58,0,0,1,1.39,4.42 A 9.35,9.35,0,0,1,317,275.55Z m -.58-6.7 a 4.23,4.23,0,0,0-.66-2.82,2.38,2.38,0,0,0-2.17-.79,2.45,2.45,0,0,0-2,1.17,6.24,6.24,0,0,0-.69,3 c -.06,1.5-.16,3-.18,4.5 a 4.3,4.3,0,0,0,.76,2.82,2.26,2.26,0,0,0,2.12.76,2.29,2.29,0,0,0,1.9-1.2,6.75,6.75,0,0,0,.65-2.94 C 316.25,271.83,316.39,270.34,316.47,268.85Z" fill="param(main_colour)"/>
    <path d="M 327.78,264.24 c -.73,4.16-3.09,8.36-4,12.56 l -.49.05 c -1.75-3.92-2-7.88-3.76-11.86 l -1.38.13q0-.21-.05-.43 l 5.25-.48q0,.21.06.43 l -1.7.15 a 61.82,61.82,0,0,1,2.58,8.4 c 1.1-3,2.45-6,3-8.91 l -1.71.15q0-.21-.06-.43 l 3.57-.32q0,.21.06.42Z" fill="param(main_colour)"/>
    <path d="M 338.81,275 l -9.63,1q0-.21,0-.42 l 1.66-.17 c -.08-3.8.55-7.6.13-11.41 l -1.63.15q0-.21-.06-.42 l 9.15-.8 c .08,1.08.13,2.15.18,3.23 l -.45,0 A 3.42,3.42,0,0,0,337,264 a 3.21,3.21,0,0,0-2.09-.37 l -1.9.17 a 39.13,39.13,0,0,1,.1,5.33 l .44,0 a 2,2,0,0,0,1.65-.81,3.09,3.09,0,0,0,.42-1.61 l .46,0 c 0,1.68,0,3.37-.07,5 l -.47,0 a 3.19,3.19,0,0,0-.36-1.64 c -.26-.46-.81-.65-1.64-.57 l -.44,0 c -.07,1.88-.17,3.76-.15,5.63 l 2.27-.23 a 3,3,0,0,0,2.29-1.08,6.2,6.2,0,0,0,.89-2.68 l .48,0Q338.86,273.05,338.81,275Z" fill="param(main_colour)"/>
  </g>
  <g id="fixed-colours">
    <path d="M 292.14,285.38 c 6.87,2.13,15.94,1.39,21.83-3.67 C 309.22,289.38,297.38,289.89,292.14,285.38Z" opacity="0.4"/>
    <path d="M 328.57,271.59 s -10.9-.76-16.2,4.54 C 316,271.13,323.12,269.47,328.57,271.59Z" opacity="0.2"/>
    <path d="M 316.61,269.16 a 8.63,8.63,0,0,0,8.33-2.12 A 20,20,0,0,1,316.61,269.16Z" opacity="0.2"/>
  </g>
<script type="text/ecmascript" xlink:href="param.min.js"/> 
</svg>
