<?xml version="1.0"?>
<svg xmlns="http://www.w3.org/2000/svg" xmlns:xlink="http://www.w3.org/1999/xlink" viewBox="0 0 600 600">
  <title>skull-design-top-slender</title>
  <g id="main-colour">
    <path d="M 306.55,295.11 c -.42,0-.57-.43-.85,0,0,0,.15,2.37.52,2.35 S 307,295.15,306.55,295.11Z" fill="param(main_colour)"/>
    <path d="M 307.77,295.69 c -.93,0-.75,2-.35,2.31 s .81.32.83-.54 S 308.32,295.7,307.77,295.69Z" fill="param(main_colour)"/>
    <path d="M 309.07,296.32 c -.39,0-.5,1-.31,1.76 a .86.86,0,0,0,1.09.76 c .37-.09.24-1.12.15-1.78 S 309.67,296.27,309.07,296.32Z" fill="param(main_colour)"/>
    <path d="M 312.92,295.88 c -.39,0-.75,2-.05,2 s .76-.59.78-1.2 S 313.39,295.86,312.92,295.88Z" fill="param(main_colour)"/>
    <path d="M 314.13,295.73 c -.16,1.92,1,.67,1.06.23 s .19-1.26-.12-1.45 S 314.21,294.8,314.13,295.73Z" fill="param(main_colour)"/>
    <path d="M 323.46,283.93 c -.37-1.8.3-6.65.28-9.61 s -.47-10.19-5.62-13.4-14.05-2.22-17,.9 c -4.83,5.28-3.29,16.19-2.82,18.9 s -.74,4,.17,6.08,1.75,2.41,2.92,2.27,3.68,1.51,4.07,2.86-.4,3,1.84,2.75.8,1.87,2.42,1,2.63.75,3-.15,2.8-1.23,2.74-3 a 3.41,3.41,0,0,1,4.56-3.22 C 322.63,290.28,323.83,285.72,323.46,283.93Z M 305.54,285 c -1.19.69-4.37.26-4.82-.83 a 13.6,13.6,0,0,1-.37-4.41 c .07-.64.17-1.72,1.27-1.95,1.63-.33,3.34-1.36,4.55-.7 s 2.24,2.14,2.1,3.15 S 306.73,284.31,305.54,285Z m 7.74,3.3 c -.2,1.11-.6,2.44-1.45,2.3 s -.42-2-.56-2.92-.75-1.88-1-.48.16,3.45-1,3.48 c -.67,0-1.06-2-.62-4.19 s 1.31-3.31,1.81-3,.85-.89,1.36-.06 S 313.48,287.2,313.28,288.3Z m 7.81-3.68 c -.71.7-3.71,1.17-5,.61 s -1.17-2-2-2.49 a 2.06,2.06,0,0,1-1.12-1.57 c -.21-1,1.33-2.3,2.18-3.23 s 1.55-1,3-.16,3,.76,3.09,1.94 S 321.81,283.93,321.09,284.63Z" fill="param(main_colour)"/>
  </g>
  <g id="fixed-colours">
    <path d="M 320.73,265.28 s -8.53,12.57-20.94,16 C 309.33,281.66,317.17,273.81,320.73,265.28Z" opacity="0.15"/>
    <path d="M 318.42,273 s -3.84,6.89-9.51,9.76 C 314.66,281.77,317.55,275.78,318.42,273Z" opacity="0.15"/>
  </g>
<script type="text/ecmascript" xlink:href="param.min.js"/> 
</svg>
