<?xml version="1.0"?>
<svg xmlns="http://www.w3.org/2000/svg" xmlns:xlink="http://www.w3.org/1999/xlink" viewBox="0 0 250 250">
  <title>ripped-skinny-jeans-voluptuous</title>
  <g id="skin-tone">
    <rect x="120.67" y="155.57" width="33" height="44.67" fill="param(skin_tone)"/>
    <rect x="130.67" y="213.57" width="9.67" height="6.67" fill="param(skin_tone)"/>
  </g>
  <g id="main-colour">
    <path d="M 125,86.56 A 38.44,38.44,0,0,0,86.56,125 c 0,.75,0,1.49.07,2.22 A 77.21,77.21,0,0,0,91.71,153 c 8,21,19,38.12,28.29,52.65 a 61.85,61.85,0,0,1,7.05,12.25 h 0 a 12.48,12.48,0,0,0,15,4.14 c 8.58-2.42,8.72-9.56,11.55-18.38 s 6.08-29.48,7.91-46 a 290.86,290.86,0,0,0,1.9-32.67 A 38.44,38.44,0,0,0,125,86.56Z m -2.41,110.29,1.75-.16 s -1.75-1.43-3.18-2.71 a 14.53,14.53,0,0,0,3.66,1.59 s -.8-.8-2.55-2.39 c 1.43.64,5.41,1.59,6.21,1.91 s -2.23,0-2.23,0 a 17.83,17.83,0,0,0,4.62,1.59,5.42,5.42,0,0,1-3.82-.16,8.64,8.64,0,0,0,4.46,2.55,18.38,18.38,0,0,1-5.25-1 A 2.71,2.71,0,0,0,128,199.4,8.8,8.8,0,0,1,122.59,196.85Z m 10,21.76,1.75-.25 a 11.36,11.36,0,0,1-3.25-2.37,11.34,11.34,0,0,0,3.75,1.13,4,4,0,0,1-1.87-1.75,14.89,14.89,0,0,0,5.63,1.38 l -1.75.38 a 2.34,2.34,0,0,0,2.13.75,5.86,5.86,0,0,1-2.37.5,6.34,6.34,0,0,0,2.75.38 C 136.83,220.48,132.58,218.61,132.58,218.61Z m 9.81-51.37 a 11.9,11.9,0,0,0,6.36-1.19,17.87,17.87,0,0,1-5.56,4 h 4.37 c -4,2.38-11.53,2.38-11.53,2.38 a 7.77,7.77,0,0,0,4.77-3.18,59.18,59.18,0,0,1-6.76.4 l 3.58-2 A 32.15,32.15,0,0,1,126.5,166 c 6.76.79,12.72-2.78,12.72-2.78 a 44.31,44.31,0,0,1-7.15-.79,36.49,36.49,0,0,0,16.69-5.56 c -1.19,2-5.12,4.32-5.12,4.32 a 29.34,29.34,0,0,0,5.91-1.54,35.12,35.12,0,0,1-4.37,3.18,21.29,21.29,0,0,0,7.15-1.59 C 150.35,164.45,142.4,167.23,142.4,167.23Z" fill="param(main_colour)"/>
  </g>
  <g id="fixed-colours">
    <path d="M 89.47,127.86 s 3.21,20.38,12.17,39.2 a 155.33,155.33,0,0,0,14.21,24.58 c 3.93,5.76,10.5,16.38,12,23.13-2.32-6.31-9.12-17.55-12.12-21.75-2.26-3.16-13.33-19.66-19.36-36.49 S 89.47,127.86,89.47,127.86Z" opacity="0.5"/>
    <g opacity="0.6">
      <polygon points="90.6 128.08 90.71 128.57 90.7 128.57 90.6 128.08" fill="#fff"/>
      <polygon points="91.05 130.03 91.28 131 91.22 131.01 91.01 130.04 91.05 130.03" fill="#fff"/>
      <polygon points="91.64 132.46 91.88 133.43 91.77 133.46 91.55 132.48 91.64 132.46" fill="#fff"/>
      <polygon points="92.25 134.88 92.51 135.85 92.34 135.89 92.11 134.92 92.25 134.88" fill="#fff"/>
      <polygon points="92.89 137.3 93.15 138.27 92.94 138.32 92.7 137.35 92.89 137.3" fill="#fff"/>
      <polygon points="93.55 139.71 93.81 140.68 93.56 140.75 93.3 139.78 93.55 139.71" fill="#fff"/>
      <polygon points="94.21 142.12 94.48 143.09 94.21 143.16 93.95 142.19 94.21 142.12" fill="#fff"/>
      <polygon points="94.89 144.53 95.17 145.49 94.89 145.57 94.62 144.61 94.89 144.53" fill="#fff"/>
      <polygon points="95.6 146.93 95.89 147.88 95.6 147.97 95.31 147.01 95.6 146.93" fill="#fff"/>
      <polygon points="96.34 149.31 96.64 150.27 96.33 150.37 96.03 149.41 96.34 149.31" fill="#fff"/>
      <rect x="96.93" y="151.72" width="0.34" height="1" transform="translate(-43.05 38.39) rotate(-18.38)" fill="#fff"/>
      <rect x="97.72" y="154.09" width="0.36" height="1" transform="matrix(0.94, -0.33, 0.33, 0.94, -45.46, 40.88)" fill="#fff"/>
      <rect x="98.54" y="156.45" width="0.38" height="1" transform="translate(-48.15 43.78) rotate(-20.21)" fill="#fff"/>
      <rect x="99.41" y="158.79" width="0.4" height="1" transform="translate(-51.14 47.18) rotate(-21.34)" fill="#fff"/>
      <polygon points="100.54 161.08 100.93 162 100.54 162.16 100.16 161.23 100.54 161.08" fill="#fff"/>
      <polygon points="101.52 163.37 101.93 164.28 101.53 164.46 101.13 163.55 101.52 163.37" fill="#fff"/>
      <polygon points="102.56 165.64 102.99 166.55 102.58 166.74 102.16 165.83 102.56 165.64" fill="#fff"/>
      <polygon points="103.63 167.9 104.07 168.8 103.64 169.01 103.21 168.1 103.63 167.9" fill="#fff"/>
      <polygon points="104.73 170.15 105.17 171.04 104.73 171.26 104.29 170.36 104.73 170.15" fill="#fff"/>
      <rect x="105.6" y="172.44" width="0.49" height="1" transform="translate(-66.49 66.11) rotate(-26.74)" fill="#fff"/>
      <rect x="106.76" y="174.67" width="0.48" height="1" transform="translate(-68.79 69.2) rotate(-27.5)" fill="#fff"/>
      <rect x="107.95" y="176.87" width="0.46" height="1" transform="translate(-71.19 72.54) rotate(-28.32)" fill="#fff"/>
      <rect x="109.17" y="179.06" width="0.44" height="1" transform="translate(-73.69 76.17) rotate(-29.2)" fill="#fff"/>
      <rect x="110.43" y="181.23" width="0.42" height="1" transform="translate(-76.31 80.15) rotate(-30.15)" fill="#fff"/>
      <rect x="111.72" y="183.38" width="0.4" height="1" transform="translate(-78.99 84.43) rotate(-31.16)" fill="#fff"/>
      <rect x="113.05" y="185.5" width="0.39" height="1" transform="translate(-81.74 89.04) rotate(-32.23)" fill="#fff"/>
      <rect x="114.42" y="187.6" width="0.37" height="1" transform="translate(-84.48 93.85) rotate(-33.31)" fill="#fff"/>
      <rect x="115.83" y="189.68" width="0.35" height="1" transform="translate(-87.02 98.5) rotate(-34.31)" fill="#fff"/>
      <polygon points="117.29 191.72 117.86 192.55 117.59 192.73 117.01 191.92 117.29 191.72" fill="#fff"/>
      <polygon points="118.69 193.8 119.23 194.65 118.97 194.81 118.43 193.97 118.69 193.8" fill="#fff"/>
      <rect x="120" y="195.93" width="0.3" height="1" transform="translate(-84.07 90.06) rotate(-31.03)" fill="#fff"/>
      <rect x="121.29" y="198.08" width="0.28" height="1" transform="translate(-82.86 87.01) rotate(-29.91)" fill="#fff"/>
      <rect x="122.53" y="200.26" width="0.26" height="1" transform="translate(-81.74 84.27) rotate(-28.9)" fill="#fff"/>
      <polygon points="123.74 202.46 124.2 203.34 123.99 203.45 123.52 202.57 123.74 202.46" fill="#fff"/>
      <polygon points="124.88 204.68 125.32 205.58 125.16 205.66 124.7 204.78 124.88 204.68" fill="#fff"/>
      <polygon points="125.97 206.94 126.39 207.85 126.27 207.91 125.83 207 125.97 206.94" fill="#fff"/>
      <polygon points="127 209.22 127.38 210.15 127.3 210.18 126.9 209.27 127 209.22" fill="#fff"/>
      <polygon points="127.91 211.56 128.22 212.51 128.18 212.52 127.85 211.58 127.91 211.56" fill="#fff"/>
      <path d="M 128.54,214 a 3.17,3.17,0,0,1,0,.5,3.17,3.17,0,0,0,0-.5Z" fill="#fff"/>
    </g>
  </g>
  <g id="outline">
    <path d="M 125,84.56 a 40.38,40.38,0,0,0-40.17,45.08 h 0 c 0,.44,0,.73,0,.73 h 0 a 100.07,100.07,0,0,0,4.19,19q.54,1.74,1.13,3.46 c 1,2.87,2,5.68,3.09,8.38q.64,1.62,1.3,3.19t1.3,3.06q.65,1.5,1.3,2.91 c 1.07,2.36,2.12,4.55,3.09,6.5.58,1.17,1.14,2.26,1.66,3.26 h 0 c 6.7,12.78,18.57,26.77,25.15,37.78-3.58-13-18.92-29.28-28.15-50.38-.38-.88-.75-1.74-1.11-2.59 l -.31-.75-.76-1.84-.31-.76q-.42-1-.81-2 l -.15-.39q-.48-1.24-.93-2.45 l -.09-.23q-.4-1.08-.78-2.13 l -.15-.42q-.37-1-.71-2 l -.07-.21q-.79-2.32-1.46-4.45 h 0 c -.92-2.94-1.67-5.61-2.27-8 l -.63-2.62 c -.76-3.32-1.22-6-1.48-7.9v0 c -.1-.75-.17-1.4-.22-1.92v0 c 0-.26,0-.5-.05-.7 h 0 c 0-.34,0-.68,0-1 a 38.44,38.44,0,0,1,76.88,0 h 0 c 0,1-.05,2.08-.14,3.1-.07,2.62-.2,6.72-.71,11.75-1.58,17.5-4.94,39.84-6.1,47-2.11,12.92-5.44,25.66-8.69,30.63 A 14,14,0,0,1,142,222 c 5.76-.8,8.78-4.81,12.44-15.47,5.21-17.58,7.28-38.9,8.95-54.07.18-1.64.35-3.2.51-4.72 h 0 l 0-.43 c .34-3.26.62-6.25.77-8.89.37-5.14.55-9.19.62-11.45,0-.46,0-.91,0-1.37 s 0-.64,0-.64 A 40.49,40.49,0,0,0,125,84.56Z"/>
  </g>
<script type="text/ecmascript" xlink:href="param.min.js"/> 
</svg>
