<?xml version="1.0"?>
<svg xmlns="http://www.w3.org/2000/svg" xmlns:xlink="http://www.w3.org/1999/xlink" viewBox="0 0 600 600">
  <title>sassy-slogan-voluptuous</title>
  <g id="main-colour">
    <path d="M 327.23,267.8 a 2.36,2.36,0,0,1,.61-1.65,2.18,2.18,0,0,1,1.63-.62,3.29,3.29,0,0,1,1,.16,1.93,1.93,0,0,1,.72.44,2.05,2.05,0,0,1,.43.66,2.42,2.42,0,0,1,.13.94,23.08,23.08,0,0,1-.15,2.58,18.27,18.27,0,0,1-.45,2.11,13.35,13.35,0,0,1-.58,1.77 c -.22.55-.68,1.63-.68,1.63-.23.53-.41,1.05-.64,1.63 a 18.93,18.93,0,0,0-.72,2.6,16.55,16.55,0,0,0-.35,3.33,1.18,1.18,0,0,0,.23.81,1,1,0,0,0,.83.29,1.18,1.18,0,0,0,.87-.35,1.46,1.46,0,0,0,.27-.83q.06-2,.13-4 l 1.19,0-.14,4 a 2.38,2.38,0,0,1-.66,1.63,2.29,2.29,0,0,1-1.63.66,3,3,0,0,1-1-.11,2.91,2.91,0,0,1-.72-.42,2.07,2.07,0,0,1-.6-1.59,19.42,19.42,0,0,1,.14-2.59,16.77,16.77,0,0,1,.48-2.12,13.25,13.25,0,0,1,.61-1.81 c .15-.35.28-.68.41-1.05.33-.68.63-1.43.91-2.21 a 18.36,18.36,0,0,0,.71-2.59,17.32,17.32,0,0,0,.35-3.3,1.13,1.13,0,0,0-.23-.81,1,1,0,0,0-.83-.33,1.14,1.14,0,0,0-.86.36,1.34,1.34,0,0,0-.28.82 c 0,1.32-.06,2.63-.11,4 l -1.14,0 C 327.18,270.44,327.22,269.12,327.23,267.8Z" fill="param(main_colour)"/>
    <path d="M 317.89,285.75 c .07-6.73,2.05-13.47,2-20.17 l 1.14,0 c 1,6.69.21,13.37,1.06,20 l -1.12,0 c -.15-1.14-.25-2.28-.32-3.42 l -1.49.05 c -.11,1.15-.18,2.3-.2,3.45Z m 2.58-12.93 c -.37,2.72-.84,5.45-1.15,8.18 l 1.29,0 C 320.5,278.25,320.53,275.53,320.48,272.82Z" fill="param(main_colour)"/>
    <path d="M 309,268.15 a 2.4,2.4,0,0,1,.52-1.69,2,2,0,0,1,1.58-.64,3.35,3.35,0,0,1,1,.16,2.18,2.18,0,0,1,.77.44,2.35,2.35,0,0,1,.5.67,2.45,2.45,0,0,1,.2,1,16.18,16.18,0,0,1-.07,2.63,15.87,15.87,0,0,1-.48,2.16,13.16,13.16,0,0,1-.63,1.81 c -.24.56-.73,1.66-.73,1.66-.24.54-.43,1.08-.67,1.67 a 16.71,16.71,0,0,0-.74,2.66,13.83,13.83,0,0,0-.25,3.41,1.29,1.29,0,0,0,.28.83,1,1,0,0,0,.84.3,1,1,0,0,0,.83-.36,1.48,1.48,0,0,0,.21-.85 c 0-1.35,0-2.7,0-4 l 1.17,0 c -.06,1.35-.09,2.7-.05,4 a 2.39,2.39,0,0,1-.51,1.67,2,2,0,0,1-1.55.67,3,3,0,0,1-1-.11,3.16,3.16,0,0,1-.75-.43,2.44,2.44,0,0,1-.5-.69,2.39,2.39,0,0,1-.2-.93,16.09,16.09,0,0,1,0-2.65,15.19,15.19,0,0,1,.46-2.17,12.73,12.73,0,0,1,.62-1.85 c .16-.36.29-.69.43-1.08.34-.69.66-1.46,1-2.26 a 17.27,17.27,0,0,0,.75-2.65,13.79,13.79,0,0,0,.27-3.38,1.2,1.2,0,0,0-.28-.83,1.2,1.2,0,0,0-1.7,0,1.33,1.33,0,0,0-.24.84 c 0,1.35,0,2.69,0,4 l -1.16,0 C 309,270.85,309,269.5,309,268.15Z" fill="param(main_colour)"/>
    <path d="M 299.44,268.34 a 2.43,2.43,0,0,1,.54-1.71,2.05,2.05,0,0,1,1.6-.64,3.31,3.31,0,0,1,1,.16,2.17,2.17,0,0,1,.77.45,2.43,2.43,0,0,1,.5.68,2.52,2.52,0,0,1,.2,1,17.08,17.08,0,0,1-.05,2.66,16.8,16.8,0,0,1-.45,2.19,13.88,13.88,0,0,1-.6,1.83 c -.23.57-.69,1.68-.69,1.68-.23.55-.41,1.09-.64,1.68 A 17.49,17.49,0,0,0,301,281 a 15,15,0,0,0-.2,3.45,1.32,1.32,0,0,0,.29.84,1,1,0,0,0,.84.3,1,1,0,0,0,.82-.37,1.51,1.51,0,0,0,.2-.85 c -.06-1.36-.05-2.73,0-4.09 l 1.16,0 c 0,1.36,0,2.73,0,4.09 a 2.41,2.41,0,0,1-.49,1.69,2,2,0,0,1-1.54.68,3,3,0,0,1-1-.11,3.13,3.13,0,0,1-.75-.43,2.29,2.29,0,0,1-.69-1.65,18.24,18.24,0,0,1,0-2.67,16.06,16.06,0,0,1,.41-2.2,12.71,12.71,0,0,1,.57-1.87 c .15-.36.28-.7.4-1.09.32-.7.63-1.48.91-2.28 a 17.83,17.83,0,0,0,.71-2.68,14.63,14.63,0,0,0,.25-3.41,1.22,1.22,0,0,0-.29-.84,1.2,1.2,0,0,0-1.72,0,1.36,1.36,0,0,0-.24.85 c 0,1.36,0,2.72,0,4.08 l -1.16,0 C 299.47,271.06,299.48,269.7,299.44,268.34Z" fill="param(main_colour)"/>
    <path d="M 291,266.07 c .5,2.4,1,4.79,1.42,7.18.43-2.41.86-4.82,1.19-7.23 l 1.14,0 c -.45,3.46-1.15,6.92-1.77,10.39,0,3.46,0,6.92.13,10.38 l -1.11,0 c -.12-3.46-.13-6.91-.14-10.37-.62-3.45-1.32-6.9-2-10.37Z" fill="param(main_colour)"/>
  </g>
<script type="text/ecmascript" xlink:href="param.min.js"/> 
</svg>
