<?xml version="1.0"?>
<svg xmlns="http://www.w3.org/2000/svg" xmlns:xlink="http://www.w3.org/1999/xlink" viewBox="0 0 600 600">
  <title>love-slogan-slender</title>
  <g id="main-colour">
    <path d="M 304,277.13 l -8.83,1,0-.43,1.58-.18 c -.4-3.89-.43-7.79-.7-11.69 l -1.68.15,0-.43,5.61-.51 c 0,.14,0,.29,0,.43 l -1.76.16 c .25,3.89.08,7.78.56,11.66 l 2-.23 a 2.35,2.35,0,0,0,2-1.22,6.06,6.06,0,0,0,.59-2.82 l .5-.05 A 25.55,25.55,0,0,0,304,277.13Z" fill="param(main_colour)"/>
    <path d="M 313.57,274.42 a 4.64,4.64,0,0,1-3.3,2.31,4.33,4.33,0,0,1-3.7-1.55,5.86,5.86,0,0,1-1.55-4.39,8.32,8.32,0,0,1,1.65-4.69,4.84,4.84,0,0,1,3.5-2.28,4.5,4.5,0,0,1,3.75,1.59,5.5,5.5,0,0,1,1.37,4.37 A 9.24,9.24,0,0,1,313.57,274.42Z M 313,267.8 a 4.16,4.16,0,0,0-.65-2.78,2.35,2.35,0,0,0-2.14-.78,2.41,2.41,0,0,0-2,1.16,6.19,6.19,0,0,0-.68,2.92 c -.06,1.48-.16,3-.18,4.45 a 4.25,4.25,0,0,0,.75,2.78,2.24,2.24,0,0,0,2.1.75,2.26,2.26,0,0,0,1.88-1.18,6.68,6.68,0,0,0,.64-2.91 C 312.79,270.75,312.94,269.27,313,267.8Z" fill="param(main_colour)"/>
    <path d="M 324.18,263.26 c -.72,4.11-3.07,8.25-4,12.4 l -.49.05 c -1.73-3.88-2-7.79-3.7-11.72 l -1.36.12 c 0-.14,0-.28,0-.42 l 5.18-.46 c 0,.14,0,.28.06.42 l -1.68.15 a 60.6,60.6,0,0,1,2.54,8.3 c 1.09-2.94,2.43-5.88,3-8.8 l -1.69.15 c 0-.14,0-.28-.06-.42 l 3.53-.31q0,.21.06.42Z" fill="param(main_colour)"/>
    <path d="M 335.06,273.89 l -9.51.95q0-.21,0-.42 l 1.64-.17 c -.08-3.75.55-7.51.13-11.27 l -1.61.14q0-.21-.06-.42 l 9-.78 c .08,1.06.13,2.13.17,3.19 l -.45,0 a 3.38,3.38,0,0,0-1.08-2.16,3.18,3.18,0,0,0-2.07-.36 l -1.87.16 a 38.52,38.52,0,0,1,.09,5.26 l .44,0 a 2,2,0,0,0,1.63-.8,3,3,0,0,0,.41-1.59 l .45,0 c 0,1.66,0,3.33-.07,5 l -.46,0 a 3.13,3.13,0,0,0-.35-1.62 c -.26-.45-.8-.64-1.62-.57 l -.44,0 c -.07,1.86-.18,3.71-.15,5.56 l 2.24-.22 a 3,3,0,0,0,2.27-1.07,6.11,6.11,0,0,0,.88-2.65 l .48,0Q335.12,272,335.06,273.89Z" fill="param(main_colour)"/>
  </g>
  <g id="fixed-colours">
    <path d="M 292.16,285.22 c 7.84.9,14.21-.68,20.22-7.6 C 309.53,285.36,299.45,288.84,292.16,285.22Z" opacity="0.4"/>
    <path d="M 328.57,271.59 s -10.9-.76-16.2,4.54 C 316,271.13,323.12,269.47,328.57,271.59Z" opacity="0.2"/>
    <path d="M 316.61,269.16 a 8.63,8.63,0,0,0,8.33-2.12 A 20,20,0,0,1,316.61,269.16Z" opacity="0.2"/>
  </g>
<script type="text/ecmascript" xlink:href="param.min.js"/> 
</svg>
