<?xml version="1.0"?>
<svg xmlns="http://www.w3.org/2000/svg" xmlns:xlink="http://www.w3.org/1999/xlink" viewBox="0 0 250 250">
  <title>denim-shorts-hourglass</title>
  <g id="skin-tone">
    <path d="M 129.71,136.4 c 2.18-7.85,4-10,2.62-13.34 s -3.68-5.66-7.68-5.65 c -3.58,0-5.49,1.93-7,4.43 s -3,5.81-5.52,8.71 c -3,3.5-8.82,9.31-10.5,21.33-2.83,20.33,2.4,30.76,4.67,37 s 5.45,17.47,6.63,21.88,1.45,9.41,1.71,13.58 a 17.43,17.43,0,0,0,.3,2.34 l .88-.07 a 4.74,4.74,0,0,0,9.41-.81 l .77-.06 c .08-2.9-1.9-9.08-2.71-13.34-.84-4.41-1.89-10.37-1.48-23.08 C 122.21,176.9,121.21,167.07,129.71,136.4Z" fill="param(skin_tone)"/>
  </g>
  <g id="outline">
    <path d="M 133.75,125 a 8.74,8.74,0,0,0-16.68-3.65 h 0 c -1.82,4.1-4.33,6.89-9,12.57 s -6.7,13.88-6.7,13.88 h 0 c -2.07,8.14-3.55,18.44,1.36,33.62,1.92,5.92,9.88,26.75,11,44.38 a 3.75,3.75,0,0,0,.47,1.42,3.22,3.22,0,0,0,2.39,1.31,5.55,5.55,0,0,1-.92-3.22 c -.08-1.23-.11-2.4-.24-4 a 96.19,96.19,0,0,0-3.34-16.09 c -2.29-8.13-5.53-18.47-8.25-27.93 a 49.89,49.89,0,0,1-.12-28.79 c 2.08-7.5,4.83-12.67,8.58-17 A 51.07,51.07,0,0,0,119.57,121 h 0 a 6.73,6.73,0,0,1,12.08,5 c 0,.25-.12.56-.2.93,0,0,0,.09-.05.13 a 36.53,36.53,0,0,1-1.25,5 c -7.46,24.28-8.63,30.86-9.3,39.86-1,13-.81,23.44.38,33,.68,5.46,1.87,11.19,2.77,15.11.37,1.39.77,2.95,1,4.55 a 5.59,5.59,0,0,1,.12.63,4.57,4.57,0,0,1-.33,2.4,3.71,3.71,0,0,0,2.13-2.72,5.85,5.85,0,0,0-.24-1.4,136.59,136.59,0,0,1-4.08-23.23 c -2.36-32.36,5.47-54.68,8.37-64.19,1.24-4.08,1.91-6.69,2.28-8.35 a 8.7,8.7,0,0,0,.42-2.34 A 2.42,2.42,0,0,0,133.75,125Z"/>
  </g>
<script type="text/ecmascript" xlink:href="param.min.js"/> 
</svg>
