<?xml version="1.0"?>
<svg xmlns="http://www.w3.org/2000/svg" xmlns:xlink="http://www.w3.org/1999/xlink" viewBox="0 0 600 600">
  <title>honey-slogan-curvy</title>
  <g id="main-colour">
    <path d="M 338.88,279q0-1.05,0-2.1 l 1-.08 c 0-1.4.06-2.8.1-4.2 l -3.84.32 c -.08,1.41-.16,2.81-.18,4.22 l 1-.09 c 0,.7,0,1.4,0,2.11 l -3.88.35 c 0-.7,0-1.41,0-2.11 l 1-.09 c .06-3.52.54-7,.4-10.57 l -.94.08 c 0-.71-.09-1.41-.18-2.12 l 3.81-.29 c .07.7.12,1.41.14,2.11 l -.94.08 c .05,1.41,0,2.82,0,4.22 l 3.79-.32 c 0-1.4.06-2.8,0-4.21 l -.94.07 c 0-.7-.05-1.4-.11-2.1 l 3.85-.29q0,1,0,2.1 l -.94.07 c 0,3.5-.09,7-.11,10.49 l 1-.09q0,1,0,2.09Z" fill="param(main_colour)"/>
    <path d="M 325,280.24q-.84-.78-1.63-1.57 c -.1-3.84.78-7.69.58-11.54q.72-.92,1.35-1.83 l 4.56-.36 c .59.53,1.15,1.05,1.69,1.58.22,3.82-.46,7.64-.47,11.45-.52.61-1,1.22-1.5,1.84Z m 4.68-13.14-3.8.31 c .13,3.56-.59,7.12-.59,10.67 l 3.86-.35 C 329.19,274.19,329.83,270.64,329.68,267.1Z" fill="param(main_colour)"/>
    <path d="M 319.71,280.74 c -.47-3.43.15-6.86.36-10.29-1.82,3.57-4.06,7.15-5,10.75 l -1.86.18 c -.88-5,.65-10.07.09-15.12 l 1.93-.15 c .42,3.45-.2,6.9-.36,10.35,1.76-3.59,4-7.18,5.15-10.73 l 1.91-.15 c .72,5-.91,10-.29,15Z" fill="param(main_colour)"/>
    <path d="M 303.89,282.29 c -.13-.73-.23-1.45-.29-2.18 l 5.58-.54 a 34.32,34.32,0,0,1,0-4.33 l -3.8.34 c 0-.72.05-1.45.09-2.18 l 3.85-.33 c .1-1.45.19-2.89.17-4.34 l -5.87.48 c 0-.73,0-1.45-.09-2.18 l 7.79-.62 c .53,5.05-.93,10.11,0,15.14Z" fill="param(main_colour)"/>
    <path d="M 298.79,275.09 a 52.22,52.22,0,0,0,.48,7.65 l -1.87.19 a 69.05,69.05,0,0,1-.5-7.67q-2-3.66-4.22-7.36 l 2-.16q1.67,2.77,3.15,5.51 c .93-2,1.93-4,2.78-6 l 2-.16 C 301.44,269.76,300,272.42,298.79,275.09Z" fill="param(main_colour)"/>
  </g>
  <g id="fixed-colours">
    <path d="M 271.89,276.93 a 20,20,0,0,0,22.17,18.45,31.9,31.9,0,0,1-11.43-4.1 C 277.34,287.87,274.39,283.63,271.89,276.93Z" opacity="0.4"/>
    <path d="M 333.23,274.55 s -18.28-1.27-27.17,7.62 C 312.16,273.78,324.09,271,333.23,274.55Z" opacity="0.2"/>
    <path d="M 313.18,270.48 s 7.87,2.54,14-3.55 C 323.84,268.71,317,270.74,313.18,270.48Z" opacity="0.2"/>
  </g>
<script type="text/ecmascript" xlink:href="param.min.js"/> 
</svg>
