<?xml version="1.0"?>
<svg xmlns="http://www.w3.org/2000/svg" xmlns:xlink="http://www.w3.org/1999/xlink" viewBox="0 0 250 250">
  <title>denim-shorts-curvy</title>
  <g id="skin-tone">
    <path d="M 100.21,162.8 a 109.45,109.45,0,0,0,4.85,12.67 c 5.5,11.75,23.63,33.87,25.15,42.23 h 0 a 10.05,10.05,0,0,0,18.54-.22 h .74 s 2-4.1,3.78-16.51,4.61-27.58,5.32-39.33 c .08-1.35.15-2.62.21-3.85 a 58.19,58.19,0,0,1-26.39,8.49 A 95.18,95.18,0,0,1,100.21,162.8Z" fill="param(skin_tone)"/>
  </g>
  <g id="main-colour">
    <path d="M 159.08,132.92 a 22.6,22.6,0,0,0-1.23-7.92 H 92.15 c -.76,3.78-.6,3.34,0,6.14,2.22,10.32,3.86,21.24,7.06,31.18 a 99,99,0,0,0,33.21,4,58.19,58.19,0,0,0,26.39-8.49 C 159.27,148.28,159.15,141.85,159.08,132.92Z" fill="param(main_colour)"/>
  </g>
  <g id="fixed-colours">
    <path d="M 96.5,154.4 s 15.87,6.5,31.62,5.13 S 155.25,152.15,159,149 c 0,4.88.13,8.25.13,8.25 a 60.83,60.83,0,0,1-30.5,9 c -17.62.25-30-4.62-30-4.62Z" fill="#fff" opacity="0.7"/>
    <g opacity="0.6">
      <polygon points="95.92 127.65 96.02 128.13 95.98 128.14 95.92 127.65" fill="#fff"/>
      <polygon points="96.33 129.61 96.55 130.59 96.34 130.63 96.19 129.63 96.33 129.61" fill="#fff"/>
      <polygon points="96.87 132.06 97.08 133.04 96.76 133.11 96.59 132.12 96.87 132.06" fill="#fff"/>
      <polygon points="97.41 134.51 97.63 135.49 97.22 135.58 97.03 134.59 97.41 134.51" fill="#fff"/>
      <polygon points="97.95 136.97 98.17 137.94 97.72 138.04 97.52 137.06 97.95 136.97" fill="#fff"/>
      <polygon points="98.51 139.41 98.74 140.39 98.26 140.5 98.04 139.52 98.51 139.41" fill="#fff"/>
      <polygon points="99.08 141.86 99.31 142.84 98.85 142.95 98.61 141.97 99.08 141.86" fill="#fff"/>
      <polygon points="99.66 144.3 99.9 145.28 99.47 145.38 99.22 144.41 99.66 144.3" fill="#fff"/>
      <polygon points="100.27 146.74 100.51 147.71 100.14 147.81 99.86 146.84 100.27 146.74" fill="#fff"/>
      <polygon points="100.88 149.18 101.14 150.15 100.86 150.23 100.56 149.26 100.88 149.18" fill="#fff"/>
      <polygon points="101.52 151.6 101.77 152.58 101.63 152.62 101.31 151.67 101.52 151.6" fill="#fff"/>
      <polygon points="102.17 154.08 102.31 154.56 102.14 154.09 102.17 154.08" fill="#fff"/>
    </g>
    <path d="M 100.63,154.32 c -.78-3-2-8-2.86-11.61 a 146.16,146.16,0,0,1-3-15.31,101.09,101.09,0,0,0,2.55,16.35 A 87.86,87.86,0,0,0,100.63,154.32Z" opacity="0.5"/>
  </g>
  <g id="outline">
    <path d="M 160.23,157.82 s 0-6.1-.15-9.7 c 0-3.92-.09-7.9-.25-12.11 a 43.82,43.82,0,0,0-1.95-11 c .18,4.7.59,11.36.25,23.85-25.09,16.18-52,8.31-60.19,5.24 A 151.88,151.88,0,0,1,92.15,125 a 9.06,9.06,0,0,0-1.6,2.86 c -.56,1.9.16,6.92.15,6.92q.08.55.17,1.1 l .12.7.06.38.13.72.06.35 c .13.68.26,1.37.41,2.06 l 0,.08q.11.53.23,1.06v0 c .41,1.82.91,3.71,1.53,5.84 h 0q.36,1.25.79,2.61 l 0,.07q.56,1.79,1.24,3.84 c .31,1.6,1.32,6.39,2.9,9.2 l .36.11 c 1.18,2.69,10.83,24.39,20,36.72,9.35,12.63,11.5,18.05,11.5,18.05 a 23.91,23.91,0,0,0-3.67-10.3 c -3.25-5-16.78-24.7-25.22-43.68,29.67,8.78,49.64-.32,56.38-4.27-1.26,21.18-6.32,46.52-7.21,51.18-1,5.24-4.17,10.43-6.22,11.89,8.1-2.47,8.95-11.8,13.37-41.8 a 219.24,219.24,0,0,0,2.22-22.64Z M 99.81,161.4 c -1.17-2.83-2-5.75-2-5.75 s 31.75,13.92,60.83-5 c .08,2.25-.17,6.17-.17,6.17 S 135.73,172.82,99.81,161.4Z"/>
  </g>
<script type="text/ecmascript" xlink:href="param.min.js"/> 
</svg>
