<?xml version="1.0"?>
<svg xmlns="http://www.w3.org/2000/svg" xmlns:xlink="http://www.w3.org/1999/xlink" viewBox="0 0 600 600">
  <title>sassy-slogan-voluptuous</title>
  <g id="main-colour">
    <path d="M 294.84,272.6 l -1.17,0 c 0-1.37,0-2.74-.05-4.12 a 1.36,1.36,0,0,0-.3-.85,1.14,1.14,0,0,0-.89-.34,1,1,0,0,0-.85.38,1.23,1.23,0,0,0-.24.86,20.26,20.26,0,0,0,.32,3.44,20.7,20.7,0,0,0,.65,2.68 c .25.79.53,1.56.82,2.25.11.38.22.72.36,1.07 a 13.44,13.44,0,0,1,.51,1.84,20.46,20.46,0,0,1,.39,2.18 c .1.77.09,1.68.12,2.69 a 2.66,2.66,0,0,1-.12,1,2.51,2.51,0,0,1-.41.75,3,3,0,0,1-.68.5,2.89,2.89,0,0,1-1,.2,2,2,0,0,1-1.61-.54,2.34,2.34,0,0,1-.63-1.66 l -.08-4.16,1.14,0q0,2.08.08,4.15 a 1.49,1.49,0,0,0,.26.84,1,1,0,0,0,.85.3,1,1,0,0,0,.8-.37,1.39,1.39,0,0,0,.21-.86,22.43,22.43,0,0,0-.31-3.46,19.94,19.94,0,0,0-.62-2.67 c -.2-.59-.36-1.13-.57-1.66 l -.63-1.66 a 14.75,14.75,0,0,1-.55-1.83,20.09,20.09,0,0,1-.43-2.2,25,25,0,0,1-.13-2.7,2.7,2.7,0,0,1,.14-1,2.38,2.38,0,0,1,.45-.71,2,2,0,0,1,.73-.49,3.21,3.21,0,0,1,1-.21,2.2,2.2,0,0,1,1.68.58,2.38,2.38,0,0,1,.68,1.69 C 294.83,269.86,294.84,271.23,294.84,272.6Z" fill="param(main_colour)"/>
    <path d="M 302.48,286.4 c -.19-1.16-.33-2.33-.43-3.5 l -1.46.06 c -.07,1.18-.11,2.35-.1,3.53 l -1.11.05 c 0-6.88,1.48-13.77,1.5-20.63 l 1.14,0 c 1.1,6.83.45,13.66,1.56,20.46Z m -1.79-4.72,1.26-.05 c -.2-2.77-.26-5.54-.39-8.31 C 301.26,276.1,300.9,278.89,300.69,281.68Z" fill="param(main_colour)"/>
    <path d="M 313.23,272 l -1.15,0 c .06-1.34.08-2.69,0-4 a 1.31,1.31,0,0,0-.31-.83,1.15,1.15,0,0,0-.88-.33,1,1,0,0,0-.82.38,1.22,1.22,0,0,0-.22.84,27.85,27.85,0,0,0,.24,3.37,22,22,0,0,0,.49,2.62 c .2.78.43,1.53.68,2.21.09.38.18.7.3,1.05 a 13,13,0,0,1,.42,1.8 c .13.65.23,1.36.3,2.14 s 0,1.64.07,2.63 a 2.59,2.59,0,0,1-.12.94,2.42,2.42,0,0,1-.4.73,3,3,0,0,1-.67.49,2.87,2.87,0,0,1-1,.2,2.14,2.14,0,0,1-1.65-.53,2.25,2.25,0,0,1-.69-1.62 c -.05-1.36,0-2.71,0-4.07 l 1.16,0 c 0,1.36-.06,2.71,0,4.06 a 1.42,1.42,0,0,0,.28.83,1.08,1.08,0,0,0,.86.29,1,1,0,0,0,.8-.37,1.34,1.34,0,0,0,.21-.85,28.49,28.49,0,0,0-.24-3.38,21.72,21.72,0,0,0-.49-2.61 c -.17-.58-.3-1.1-.47-1.63 l -.51-1.63 a 14.09,14.09,0,0,1-.43-1.79 c -.13-.66-.24-1.39-.31-2.15 s 0-1.68-.08-2.64 a 2.75,2.75,0,0,1,.12-1,2.26,2.26,0,0,1,.41-.7,1.88,1.88,0,0,1,.69-.47,3.09,3.09,0,0,1,1-.2,2.27,2.27,0,0,1,1.68.57,2.3,2.3,0,0,1,.7,1.65 C 313.31,269.36,313.28,270.7,313.23,272Z" fill="param(main_colour)"/>
    <path d="M 322.63,271.76 l -1.14,0 c .06-1.33.09-2.66.07-4 a 1.27,1.27,0,0,0-.29-.82,1.13,1.13,0,0,0-.87-.33,1,1,0,0,0-.82.37,1.2,1.2,0,0,0-.23.83,26,26,0,0,0,.21,3.33,20.49,20.49,0,0,0,.48,2.59,22.67,22.67,0,0,0,.68,2.18 c .09.37.18.69.3,1 a 12.29,12.29,0,0,1,.42,1.78,19.76,19.76,0,0,1,.3,2.11 c .07.75,0,1.62,0,2.6 a 2.55,2.55,0,0,1-.15.93,2.5,2.5,0,0,1-.43.72,3.14,3.14,0,0,1-.7.48,3,3,0,0,1-1,.2,2.12,2.12,0,0,1-1.64-.53,2.18,2.18,0,0,1-.66-1.61 c 0-1.34,0-2.68.07-4 l 1.18,0 c -.06,1.34-.09,2.68-.07,4 a 1.36,1.36,0,0,0,.27.82,1.08,1.08,0,0,0,.86.29,1,1,0,0,0,.82-.36,1.32,1.32,0,0,0,.23-.84,23.93,23.93,0,0,0-.19-3.35,20.63,20.63,0,0,0-.48-2.58 c -.17-.57-.3-1.09-.47-1.61 l -.51-1.61 a 13.63,13.63,0,0,1-.42-1.77 c -.12-.65-.23-1.37-.3-2.13 s 0-1.66-.06-2.61 a 2.67,2.67,0,0,1,.13-1,2.27,2.27,0,0,1,.42-.69,1.91,1.91,0,0,1,.7-.47,3.16,3.16,0,0,1,1-.2,2.1,2.1,0,0,1,2.32,2.2 C 322.71,269.11,322.68,270.43,322.63,271.76Z" fill="param(main_colour)"/>
    <path d="M 332,265.24 c -.71,3.32-1.39,6.64-2.13,10-.12,3.3-.23,6.61-.29,9.91 l -1.13.05 c 0-3.31.16-6.63.29-9.95-.49-3.29-.93-6.58-1.62-9.89 l 1.14,0 c .46,2.29.81,4.58,1.16,6.87.5-2.31,1-4.62,1.44-6.92Z" fill="param(main_colour)"/>
  </g>
<script type="text/ecmascript" xlink:href="param.min.js"/> 
</svg>
