<?xml version="1.0"?>
<svg xmlns="http://www.w3.org/2000/svg" xmlns:xlink="http://www.w3.org/1999/xlink" viewBox="0 0 600 600">
  <title>girl-power-slogan-slender</title>
  <g id="main-colour">
    <path d="M 306.09,271.35 l 4.34-.23 c -.32,2.26-.7,4.51-1.1,6.76-.61,3.4-2.33,5.39-5,5.51 s -3.85-1.73-3.6-5.1 c .28-3.65.51-7.31.45-10.95-.08-3.36,1.4-5.37,4.84-5.58 s 5.22,1.61,4.89,5q-.1,1-.22,2.07 l -3,.17q.1-1.14.16-2.28 c .08-1.51-.59-2-1.65-2 s -1.72.67-1.74,2.18 c -.07,3.8-.45,7.62-.87,11.42-.16,1.51.33,2,1.22,2 s 1.53-.61,1.75-2.13 c .19-1.3.38-2.61.55-3.91 l -1.36.07Q305.94,272.87,306.09,271.35Z" fill="param(main_colour)"/>
    <path d="M 313.44,261.56 l 3.44-.2 c -.5,7.1-2.38,14.3-4,21.42 l -2.7.12 C 311.57,275.8,313.21,268.63,313.44,261.56Z" fill="param(main_colour)"/>
    <path d="M 320.46,282.43 a 8.41,8.41,0,0,1,.58-2.63 l 1.07-3.39 c .64-2,.26-2.72-1.09-2.66 l -1,.05 c -.8,2.93-1.66,5.85-2.47,8.75 l -2.7.12 c 1.81-7.14,3.86-14.36,4.55-21.48 l 5.16-.29 c 3.54-.19,4.78,1.36,3.84,4.71q-.24.85-.49,1.71 a 6.89,6.89,0,0,1-3.37,4.51 c 1.29.64,1.23,2.26.44,4.52 l -1.16,3.34 a 8.18,8.18,0,0,0-.6,2.6Z m 1.85-18.35 c -.4,2.21-.92,4.42-1.49,6.64 l 1.2-.06 c 1.14-.06,2-.65,2.49-2.39q.29-1.07.55-2.14 c .38-1.55,0-2.2-1.16-2.14Z" fill="param(main_colour)"/>
    <path d="M 331.85,260.51 l 3.4-.18 A 158.72,158.72,0,0,1,328.58,279 l 4.58-.21-1.37,3.1-7.12.32 C 327.31,275,330.22,267.72,331.85,260.51Z" fill="param(main_colour)"/>
    <path d="M 304.39,290.37q-.08.85-.14,1.7 c -.15,2.08-.88,3.24-2.32,3.29 l -.68,0 c 0,1.62.07,3.25.2,4.87 l -1.34,0 a 84.38,84.38,0,0,1-.14-13 l 2.36-.1 C 303.94,287.17,304.59,288.28,304.39,290.37Z m -2.95-1.24 c -.09,1.47-.15,2.94-.18,4.4 l .7,0 c .47,0,.73-.32.78-1.25q0-1,.12-2 c .07-.93-.18-1.22-.68-1.2Z" fill="param(main_colour)"/>
    <path d="M 305.06,290.25 c .21-2.09,1.23-3.33,2.81-3.39 s 2.21,1.11,1.87,3.21 c -.36,2.28-.65,4.55-.82,6.82-.16,2.09-.89,3.31-2.21,3.36 s -2.09-1.12-2.06-3.21 C 304.68,294.77,304.84,292.51,305.06,290.25Z m 1,6.86 c 0,.93.24,1.28.68,1.26 s .72-.38.77-1.31 c .13-2.35.38-4.71.71-7.07.13-.94-.12-1.28-.62-1.26 s -.86.39-1,1.33 C 306.34,292.41,306.13,294.76,306,297.11Z" fill="param(main_colour)"/>
    <path d="M 313.56,292.88 a 67.79,67.79,0,0,0-1.43,7 l -1.85.07 a 99.74,99.74,0,0,1,.68-13.09 l 1.56-.07 c -.44,3.46-.8,6.91-.92,10.35 a 90.23,90.23,0,0,1,2.55-10.42 l 1.55-.07 c -.6,3.5-1.11,7-1.38,10.45 a 92.43,92.43,0,0,1,3-10.52 l 1.4-.06 a 84.76,84.76,0,0,0-3.82,13.26 l -1.79.07 C 313.15,297.54,313.32,295.21,313.56,292.88Z" fill="param(main_colour)"/>
    <path d="M 319.51,292 l 2.06-.09q-.27.95-.52,1.89 l -2,.08q-.46,1.93-.82,3.87 l 2.4-.1q-.2.94-.38,1.89 l -3.7.15 a 92.45,92.45,0,0,1,3-13.23 l 4.38-.19q-.33,1-.65,1.91 l -2.71.12Q320,290.19,319.51,292Z" fill="param(main_colour)"/>
    <path d="M 323.92,299.44 a 5.7,5.7,0,0,1,.28-1.62q.27-1,.57-2.08 c .36-1.23.22-1.67-.45-1.65 l -.5,0 c -.53,1.8-1,3.6-1.39,5.39 l -1.36.06 a 97.24,97.24,0,0,1,3.82-13.28 l 2.42-.11 c 1.67-.07,2,.91,1.15,3 l -.4,1.05 a 5,5,0,0,1-1.94,2.75 c .59.41.48,1.4.06,2.79q-.31,1-.6,2 a 5.52,5.52,0,0,0-.28,1.6Z m 1.88-11.32q-.74,2.05-1.39,4.09 l .58,0 c .56,0,1-.38,1.38-1.45 l .47-1.32 c .35-1,.27-1.36-.29-1.34Z" fill="param(main_colour)"/>
  </g>
  <g id="fixed-colours">
    <path d="M 289.35,285.05 A 29.19,29.19,0,0,0,311,289.76 C 304.17,293.63,294,291.6,289.35,285.05Z" opacity="0.4"/>
    <path d="M 332.15,270.58 s -13.31-.92-19.78,5.55 C 316.81,270,325.49,268,332.15,270.58Z" opacity="0.2"/>
    <path d="M 317.55,267.62 A 10.54,10.54,0,0,0,327.71,265 C 325.31,266.33,320.32,267.81,317.55,267.62Z" opacity="0.2"/>
  </g>
<script type="text/ecmascript" xlink:href="param.min.js"/> 
</svg>
