<?xml version="1.0"?>
<svg xmlns="http://www.w3.org/2000/svg" xmlns:xlink="http://www.w3.org/1999/xlink" viewBox="0 0 600 600">
  <title>professionally-pink-scarf-curvy</title>
  <g id="main-colour">
    <path d="M 279.45,217.5 s -5.62,2.19-8.44,4.75-2.44,4.63-1,6.63 c -2.25,1.5-3.19,4.81,1,8.25 s 13.63,9.31,34.75,13.88 c .31,1.19.69,1.31.69,1.31 s -.87,4.81-5.69,12.06-12.62,16.42-15.54,27.42-1.08,23.17,5.33,27.83 c 1.42-8.5,6.83-13.42,9.67-14.67-1.75-2.67-1.5-12.17,1.58-20.08 s 11.17-22.58,9.42-31.67 a 21.91,21.91,0,0,0,6.08-.67,33.28,33.28,0,0,0,2.17,8.08 c 1.58,3.5,7.67,16,7.5,25.17-.17,3.92-2.83,7.75-2.83,7.75 a 26.68,26.68,0,0,1,6.75,17.33 c 6.17-7.75,9.75-19,6.67-29.08 s -14.17-22.17-16.67-31.92 c .33-1.58.42-2.17.42-2.17 s 5.92-6.25,8.33-12.08,1.42-9.42-1.92-10.17 c -.17-3.75-8.08-6.42-8.08-6.42 s 4.58,3.92.42,8.67 a 22.92,22.92,0,0,1-.92,15.25 c -4.08-1.08-12.58.5-13.62,2.92-4.12-.92-16-7.5-22.21-12.67 s -10.08-9.67-2.5-13.83 A 3.46,3.46,0,0,1,279.45,217.5Z" fill="param(main_colour)"/>
  </g>
  <g id="outline">
    <path d="M 328.39,263.13 c -4.6-5.76-6.66-11-7.05-12.84 a 2.64,2.64,0,0,0,.47-1.66 c 0-.1,0-.2,0-.29 a 70.67,70.67,0,0,0,7.63-10.58 c 2.5-4.5,2.88-9,1.75-10.87 a 4.61,4.61,0,0,0-2.64-1.93,3.7,3.7,0,0,0-.36-.82 c -2.37-4-8.25-5.62-8.25-5.62 a 4.11,4.11,0,0,1-.33.65 c -.13.15-.45.51-1,1.1,1.69.75,3.56,2.75,2.25,5.38 s -5.81,5.63-5.81,5.63 a 13.81,13.81,0,0,0,4.93-2.73 c .46,1.5,1.59,6.56-1,13.67-1.4-.43-3.56-.41-6.87.1-2.92.45-6.58,1.37-7.53,3.13 a 116,116,0,0,1-16.39-9.3,86.34,86.34,0,0,1-7.55-5.84,30.56,30.56,0,0,0,6.68,2.22 s -7.62-2.12-9.44-6.31 c -1.5-3.46,1.77-5.29,3-5.83 a 26.5,26.5,0,0,0,8.16,4.14 c -4.12-2.19-8.31-4.81-8.75-7.81 s 3.06-4.19,5.13-4.37 a 17.33,17.33,0,0,1-.62,3.94 l 1.69.44 a 25.18,25.18,0,0,0,.88-6.44 c -4.37,0-8.12,1.44-8.81,5.13 a 4.05,4.05,0,0,0,.1,1.91 c -1.91.69-9.25,3.57-10.66,7.59 a 3.84,3.84,0,0,0,.91,3.41 c -1.07.52-2.62,1.9-1.41,5.46,1.74,5.09,15.57,13,37.81,17.9 a 2,2,0,0,0,.58.92 c -.6,1.93-2.54,7.15-7.64,13.92-6.5,8.63-12.62,18.13-14.5,29 s 1.13,20.63,7,25.38 c 1.75-8.37,7.75-14.75,10.5-15.62-3.37-9,1.13-19.87,4.25-26.5,3-6.44,7.83-18.4,6.83-24.81 a 20.11,20.11,0,0,0,3.08-.4,16.75,16.75,0,0,0,1.72-.46 c .08,1.37.62,5.83,4.11,12.92,4.25,8.63,7.5,21.38,2.13,27.63,6.5,6.38,7.25,18.63,7.25,18.63 s 8.5-8.62,8.63-21.25 S 333.39,269.38,328.39,263.13Z m -7.52-35.61 a 9.5,9.5,0,0,0,1.21-1.71,4.36,4.36,0,0,0-.72-5.34 c 2.59,1.26,5.75,3.53,6,6,.38,3.25-2.75,10.5-2.75,10.5 s 4.11-6.23,4-10.61 c 2,1.08,2.67,4.57,0,10.11 a 52.76,52.76,0,0,1-7.2,10.64,5,5,0,0,0-.74-1.27,2.16,2.16,0,0,0,.19-2.17,2.83,2.83,0,0,0-1.07-1.13 C 320.54,240.95,323.12,234.32,320.87,227.52Z m -50.75,2.33 c 3.59,3.68,10,7.15,10,7.15 s -8.5-6.37-10-9.75,3.57-6.36,9.06-8.6 c .11.17.24.33.37.49 a 5.66,5.66,0,0,0-3.81,6.17 h 0 a 12.27,12.27,0,0,1-1.13-1.7 s 1.24,9.8,29.65,23 a 2.14,2.14,0,0,0,1.05,1.68,5.85,5.85,0,0,0-.3,2 c -4-1-23.53-6-31.15-11.82 C 266.88,233.15,268.7,230.85,270.12,229.85Z m 38,38.15 c -4,9.38-12.5,23.38-8.87,36.75-5.37,3.38-8.62,9.25-8.87,14-3.37-3-7.12-11.25-5.62-21.25 s 7.38-20,11.75-25.25 c 4.11-4.94,9.55-15,10.5-18.94 a 11.23,11.23,0,0,0,3.76.65 C 311,255.69,311.3,260.59,308.14,268Z m 3.08-15.29 c -3.9-.08-5.37-.55-4.9-3.94 a 14.06,14.06,0,0,0,3.9.69 c -6.75-1.67-3.67-4.17-.33-5.25 s 7.42-1.25,9.33-.33.17,2.83-2.17,4.92 a 9.49,9.49,0,0,0,3-2.12,3.41,3.41,0,0,1,0,3.2 C 319.14,251.63,315.3,252.79,311.22,252.71Z m 20.29,56.17 A 29.94,29.94,0,0,0,325,293.5 c 4.38-6.5,2.38-14,.5-19.75 s -4.5-10.5-6-14.5 a 30.93,30.93,0,0,1-1.66-6.47,8.76,8.76,0,0,0,2.79-1.68 c .39,1.58,1.81,6.16,6.12,12.27,5.38,7.63,11.13,16.5,10.63,27.88 S 331.51,308.88,331.51,308.88Z"/>
  </g>
<script type="text/ecmascript" xlink:href="param.min.js"/> 
</svg>
