<?xml version="1.0"?>
<svg xmlns="http://www.w3.org/2000/svg" xmlns:xlink="http://www.w3.org/1999/xlink" viewBox="0 0 600 600">
  <title>honey-slogan-voluptuous</title>
  <g id="main-colour">
    <path d="M 291.56,283.49q0-1.1-.06-2.21 l .92,0 c -.11-3.67-.1-7.35-.19-11 l -1,0-.06-2.21,4-.13 c 0,.73.07,1.47.08,2.2 l -1,0 c 0,1.47,0,2.93,0,4.4 l 3.84-.15 c .07-1.46.13-2.92.11-4.39 l -1,0 c 0-.73,0-1.46-.09-2.19 l 3.92-.12 c .08.73.11,1.46.12,2.19 l -1,0 c 0,3.65-.53,7.3-.35,10.94 l .93,0 a 20.68,20.68,0,0,0,.22,2.18 l -3.74.18 c -.09-.73-.14-1.46-.18-2.19 l .92,0 c -.07-1.46,0-2.92,0-4.38 l -3.76.16 c 0,1.47,0,2.93.05,4.4 l .92,0 c 0,.73.08,1.46.15,2.2Z" fill="param(main_colour)"/>
    <path d="M 304.3,282.88 c -.6-.56-1.17-1.11-1.7-1.67-.28-3.92.6-7.86.48-11.79.51-.6,1-1.2,1.43-1.8 l 4.65-.15q.91.84,1.72,1.68 c .16,3.9-1.06,7.8-.81,11.7q-.7.9-1.28,1.8Z m .13-2.19,3.74-.17 c -.15-3.61.83-7.24.78-10.85 l -3.9.13 C 305.09,273.42,304.25,277.06,304.43,280.69Z" fill="param(main_colour)"/>
    <path d="M 312.16,282.51 c -1-5,1.34-10.09.48-15.13 l 1.93-.06 c 2.21,3.4,2.9,6.8,4.14,10.16.37-3.44,1.29-6.88.67-10.31 l 1.92-.06 c .89,5-1.42,10-.67,15 l -1.89.09 c -2.14-3.36-2.84-6.74-4.09-10.14-.35,3.46-1.25,6.91-.61,10.36Z" fill="param(main_colour)"/>
    <path d="M 322.51,282 c -.68-5,1.56-10,.7-15 l 7.67-.23 a 18.15,18.15,0,0,1,.13,2.12 l -5.7.18 a 28.05,28.05,0,0,1-.32,4.27 l 3.82-.14 c -.09.71-.18,1.42-.28,2.13 l -3.85.15 a 33.84,33.84,0,0,0-.39,4.27 l 5.79-.25 c 0,.71,0,1.41,0,2.12Z" fill="param(main_colour)"/>
    <path d="M 331.81,266.79 l 1.92-.06 a 44.52,44.52,0,0,1,2.74,5.45 c 1.09-1.88,2.07-3.76,3-5.62 l 1.94-.06 c -1.39,2.48-2.68,5-4.18,7.49-.2,2.46-.41,4.92-.44,7.37 l -1.93.09 a 68.87,68.87,0,0,1,.46-7.39 A 50.15,50.15,0,0,0,331.81,266.79Z" fill="param(main_colour)"/>
  </g>
  <g id="fixed-colours">
    <path d="M 330,273 s -14.15-2.48-21.8,3.73 C 313.64,270.73,323.17,269.52,330,273Z" opacity="0.2"/>
    <path d="M 292.54,288.54 c -7.37,1.34-12.83-1.17-19.33-5.83 C 277.62,288.88,286.14,292,292.54,288.54Z" opacity="0.4"/>
  </g>
<script type="text/ecmascript" xlink:href="param.min.js"/> 
</svg>
