<?xml version="1.0"?>
<svg xmlns="http://www.w3.org/2000/svg" xmlns:xlink="http://www.w3.org/1999/xlink" viewBox="0 0 600 600">
  <title>sassy-slogan-slender</title>
  <g id="main-colour">
    <path d="M 303.63,266.57 l -1,.08 c 0-1.2-.08-2.39-.14-3.59 a 1.16,1.16,0,0,0-.28-.73,1,1,0,0,0-.79-.26,1,1,0,0,0-.74.37,1.08,1.08,0,0,0-.18.76,17.75,17.75,0,0,0,.37,3,18.38,18.38,0,0,0,.63,2.31 c .24.68.49,1.34.76,1.93.11.33.21.61.34.92 a 11.74,11.74,0,0,1,.49,1.58,18.18,18.18,0,0,1,.39,1.88 c .11.67.13,1.46.2,2.33 a 2.36,2.36,0,0,1-.07.85,2.21,2.21,0,0,1-.32.67,2.54,2.54,0,0,1-.58.46,2.5,2.5,0,0,1-.83.22,1.75,1.75,0,0,1-1.43-.41,2,2,0,0,1-.6-1.42q-.1-1.81-.19-3.62 l 1-.09 c .06,1.2.12,2.41.19,3.61 a 1.31,1.31,0,0,0,.26.73.89.89,0,0,0,.75.22.85.85,0,0,0,.68-.36,1.22,1.22,0,0,0,.15-.76,21.29,21.29,0,0,0-.38-3,17.87,17.87,0,0,0-.6-2.3 c -.19-.5-.35-1-.53-1.43 l -.58-1.43 a 12.38,12.38,0,0,1-.53-1.57,17.8,17.8,0,0,1-.44-1.9,22.41,22.41,0,0,1-.19-2.35,2.33,2.33,0,0,1,.1-.87,2.07,2.07,0,0,1,.38-.64,1.85,1.85,0,0,1,.63-.45,2.91,2.91,0,0,1,.89-.22,1.92,1.92,0,0,1,1.5.44,2,2,0,0,1,.64,1.45 C 303.57,264.18,303.6,265.37,303.63,266.57Z" fill="param(main_colour)"/>
    <path d="M 310.64,278.28 c -.22-1-.38-2-.51-3 l -1.27.11 c 0,1,0,2.05.05,3.08 l -1,.09 c -.37-6,1-12,.85-18 l 1-.07 c 1.14,5.94.52,11.87,1.79,17.76Z m -1.73-4,1.1-.1 c -.25-2.4-.33-4.8-.49-7.21 C 309.3,269.36,309,271.8,308.91,274.24Z" fill="param(main_colour)"/>
    <path d="M 319.73,265.37 l -1,.07 c 0-1.17,0-2.34,0-3.51 a 1.14,1.14,0,0,0-.29-.71,1,1,0,0,0-.78-.26.89.89,0,0,0-.7.36,1.1,1.1,0,0,0-.17.75 A 27,27,0,0,0,317,265 a 18.79,18.79,0,0,0,1.09,4.15 c .08.32.17.6.27.9 a 11.53,11.53,0,0,1,.39,1.55 c .12.56.22,1.17.3,1.84 s .07,1.43.12,2.29 a 2.35,2.35,0,0,1-.08.83,2.2,2.2,0,0,1-.33.65,2.58,2.58,0,0,1-.57.45,2.54,2.54,0,0,1-.83.21,1.87,1.87,0,0,1-1.46-.4,2,2,0,0,1-.66-1.39 c -.09-1.18-.11-2.36-.09-3.54 l 1-.09 c 0,1.18,0,2.36.08,3.54 a 1.23,1.23,0,0,0,.27.71.94.94,0,0,0,.76.22.87.87,0,0,0,.69-.35,1.18,1.18,0,0,0,.16-.75,27.73,27.73,0,0,0-.28-2.94,19.66,19.66,0,0,0-.47-2.25 c -.16-.49-.27-.95-.43-1.4 l -.47-1.4 a 11.93,11.93,0,0,1-.4-1.54 c -.12-.57-.22-1.2-.3-1.86 s -.07-1.46-.12-2.3 a 2.38,2.38,0,0,1,.08-.85,2,2,0,0,1,.34-.62,1.67,1.67,0,0,1,.59-.44,2.72,2.72,0,0,1,.85-.21,1.88,1.88,0,0,1,2.14,1.86 C 319.75,263,319.75,264.2,319.73,265.37Z" fill="param(main_colour)"/>
    <path d="M 327.92,264.77 l -1,.07 c 0-1.16,0-2.31-.06-3.47 a 1.12,1.12,0,0,0-.28-.7,1,1,0,0,0-.77-.26.87.87,0,0,0-.7.35,1.07,1.07,0,0,0-.16.74,26.18,26.18,0,0,0,.28,2.9,18.41,18.41,0,0,0,.48,2.24,19.17,19.17,0,0,0,.63,1.87 c .09.32.17.6.28.89 a 10.43,10.43,0,0,1,.4,1.53,16.34,16.34,0,0,1,.31,1.82 c .07.65.06,1.41.08,2.26 a 2.19,2.19,0,0,1-.11.82,2.28,2.28,0,0,1-.36.64,2.79,2.79,0,0,1-.6.45,2.7,2.7,0,0,1-.85.21,1.77,1.77,0,0,1-2.07-1.77 c -.05-1.17,0-2.33,0-3.5 l 1-.08 c 0,1.17,0,2.33,0,3.5 a 1.16,1.16,0,0,0,.25.7.94.94,0,0,0,.76.22.93.93,0,0,0,.71-.35,1.17,1.17,0,0,0,.19-.74,21.28,21.28,0,0,0-.24-2.9,17.71,17.71,0,0,0-.47-2.23 c -.16-.49-.28-.94-.44-1.38 l -.47-1.38 a 11.77,11.77,0,0,1-.4-1.52 c -.12-.56-.23-1.19-.31-1.84 s -.08-1.44-.13-2.28 a 2.4,2.4,0,0,1,.08-.84,1.93,1.93,0,0,1,.33-.62,1.62,1.62,0,0,1,.58-.44,2.72,2.72,0,0,1,.85-.21,1.84,1.84,0,0,1,2.1,1.84 C 327.92,262.46,327.94,263.62,327.92,264.77Z" fill="param(main_colour)"/>
    <path d="M 335.87,258.74 c -.51,2.91-1,5.83-1.51,8.76,0,2.88,0,5.75.06,8.63 l -1,.09 c -.07-2.88-.06-5.77,0-8.66-.53-2.84-1-5.69-1.75-8.55 l 1-.06 c .5,2,.88,4,1.25,5.94.36-2,.69-4.05,1-6.08Z" fill="param(main_colour)"/>
  </g>
  <g id="fixed-colours">
    <path d="M 292.16,285.22 c 7.84.9,14.21-.68,20.22-7.6 C 309.53,285.36,299.45,288.84,292.16,285.22Z" opacity="0.4"/>
    <path d="M 328.57,271.59 s -10.9-.76-16.2,4.54 C 316,271.13,323.12,269.47,328.57,271.59Z" opacity="0.2"/>
    <path d="M 316.61,269.16 a 8.63,8.63,0,0,0,8.33-2.12 A 20,20,0,0,1,316.61,269.16Z" opacity="0.2"/>
  </g>
<script type="text/ecmascript" xlink:href="param.min.js"/> 
</svg>
