<?xml version="1.0"?>
<svg xmlns="http://www.w3.org/2000/svg" xmlns:xlink="http://www.w3.org/1999/xlink" viewBox="0 0 600 600">
  <title>love-slogan-hourglass</title>
  <g id="main-colour">
    <path d="M 295.61,280 l -10,.5v-.48 l 1.77-.09 c -.15-4.35-.16-8.7-.28-13.05 l -1.84.06v-.48 l 6.14-.21q0,.24,0,.48 l -1.93.07 c .13,4.34,0,8.68.2,13 l 2.31-.11 a 2.72,2.72,0,0,0,2.34-1.22,6,6,0,0,0,.8-3.1 l .56,0 C 295.63,276.94,295.58,278.49,295.61,280Z" fill="param(main_colour)"/>
    <path d="M 306.54,277.65 A 5.11,5.11,0,0,1,302.7,280 a 4.78,4.78,0,0,1-4-2,7.2,7.2,0,0,1-1.64-5,8.67,8.67,0,0,1,1.79-5.13,4.82,4.82,0,0,1,8-.3,6.82,6.82,0,0,1,1.54,5 A 9,9,0,0,1,306.54,277.65Z m -.68-7.44 a 5.12,5.12,0,0,0-.69-3.14,2.65,2.65,0,0,0-2.34-1,2.58,2.58,0,0,0-2.25,1.16,6.3,6.3,0,0,0-.76,3.22 c 0,1.65-.12,3.31-.16,5 a 5.18,5.18,0,0,0,.73,3.15,2.46,2.46,0,0,0,2.27,1,2.54,2.54,0,0,0,2.19-1.19,6.52,6.52,0,0,0,.78-3.2 C 305.69,273.49,305.8,271.85,305.87,270.21Z" fill="param(main_colour)"/>
    <path d="M 318.5,265.86 c -1.3,4.51-3.42,9-4.67,13.6 l -.54,0 c -1.64-4.41-2.37-8.86-4-13.32 l -1.53.05 c 0-.16,0-.32,0-.47 l 5.83-.19q0,.23,0,.47 l -1.89.06 c 1.14,3.16,1.84,6.31,2.74,9.44,1.18-3.23,2.53-6.44,3.49-9.64 l -1.91.06q0-.23,0-.47 l 4-.13q0,.23,0,.47Z" fill="param(main_colour)"/>
    <path d="M 330.06,278.38 l -10.34.49q0-.23,0-.47 l 1.8-.08 c .05-4.19.56-8.38.53-12.57 l -1.82.06q0-.23,0-.47 l 10.17-.32 c 0,1.19,0,2.37,0,3.56 l -.51,0 a 3.81,3.81,0,0,0-1.06-2.47,3.53,3.53,0,0,0-2.28-.53 l -2.11.07 c 0,2-.11,3.91-.23,5.87 l .49,0 a 2.14,2.14,0,0,0,1.85-.79 A 3.44,3.44,0,0,0,327,269 l .51,0 c -.09,1.85-.2,3.71-.3,5.56 l -.51,0 a 3.56,3.56,0,0,0-.33-1.83q-.41-.79-1.79-.73 l -.49,0 c -.12,2.07-.25,4.14-.3,6.21 l 2.44-.11 a 3.15,3.15,0,0,0,2.51-1.05,7,7,0,0,0,1.11-2.91 l .53,0Z" fill="param(main_colour)"/>
  </g>
<script type="text/ecmascript" xlink:href="param.min.js"/> 
</svg>
