<?xml version="1.0"?>
<svg xmlns="http://www.w3.org/2000/svg" xmlns:xlink="http://www.w3.org/1999/xlink" viewBox="0 0 600 600">
  <title>honey-slogan-slender</title>
  <g id="main-colour">
    <path d="M 333.52,272.61q0-.84,0-1.68 l .78-.08 c 0-1.12,0-2.24,0-3.35 l -3.06.3 c 0,1.12-.09,2.25-.1,3.37 l .78-.08q0,.84,0,1.68 l -3.11.33 c 0-.56,0-1.12,0-1.69 l .78-.08 c 0-2.81.35-5.62.2-8.44 l -.75.07 c 0-.56-.08-1.13-.16-1.69 l 3-.28 c .06.56.11,1.12.13,1.68 l -.75.07 c .06,1.12,0,2.25,0,3.37 l 3-.3 c 0-1.12,0-2.24,0-3.36 l -.75.07 c 0-.56-.06-1.12-.11-1.68 l 3.07-.28q0,.84,0,1.67 l -.75.07 c .06,2.79,0,5.58,0,8.37 l .78-.08q0,.84,0,1.67Z" fill="param(main_colour)"/>
    <path d="M 322.41,273.78q-.67-.61-1.3-1.23 c -.09-3.07.52-6.14.35-9.21.38-.49.74-1,1.08-1.48 l 3.64-.34 c .47.41.92.83,1.36,1.24.21,3-.26,6.1-.25,9.14-.41.49-.82,1-1.2,1.48Z M 326,263.25 l -3,.29 c .12,2.84-.37,5.68-.36,8.51 l 3.09-.32 C 325.74,268.91,326.17,266.08,326,263.25Z" fill="param(main_colour)"/>
    <path d="M 318.17,274.25 c -.36-2.73.07-5.47.2-8.22-1.42,2.87-3.14,5.74-3.94,8.63 l -1.49.17 c -.69-4,.38-8,0-12.06 l 1.54-.15 c .31,2.75-.11,5.51-.2,8.26,1.37-2.89,3.13-5.77,4-8.62 l 1.53-.14 c .55,4-.59,8-.12,12Z" fill="param(main_colour)"/>
    <path d="M 305.55,275.68 c -.11-.58-.19-1.16-.25-1.74 l 4.45-.5 a 29.31,29.31,0,0,1,0-3.46 l -3,.32 c 0-.58,0-1.16,0-1.74 l 3.07-.32 c .06-1.15.11-2.31.1-3.46 l -4.68.46 c 0-.58,0-1.16-.08-1.74 l 6.23-.59 c .39,4-.62,8.07.1,12.09Z" fill="param(main_colour)"/>
    <path d="M 301.41,270 a 43.1,43.1,0,0,0,.46,6.11 l -1.49.17 a 56.2,56.2,0,0,1-.47-6.12q-1.6-2.9-3.43-5.82 l 1.58-.15q1.35,2.19,2.55,4.37 c .73-1.61,1.5-3.22,2.18-4.82 l 1.57-.15 C 303.46,265.71,302.37,267.85,301.41,270Z" fill="param(main_colour)"/>
  </g>
  <g id="fixed-colours">
    <path d="M 292.16,285.22 c 7.84.9,14.21-.68,20.22-7.6 C 309.53,285.36,299.45,288.84,292.16,285.22Z" opacity="0.4"/>
    <path d="M 328.57,271.59 s -10.9-.76-16.2,4.54 C 316,271.13,323.12,269.47,328.57,271.59Z" opacity="0.2"/>
    <path d="M 316.61,269.16 a 8.63,8.63,0,0,0,8.33-2.12 A 20,20,0,0,1,316.61,269.16Z" opacity="0.2"/>
  </g>
<script type="text/ecmascript" xlink:href="param.min.js"/> 
</svg>
