<?xml version="1.0"?>
<svg xmlns="http://www.w3.org/2000/svg" xmlns:xlink="http://www.w3.org/1999/xlink" viewBox="0 0 600 600">
  <title>sassy-slogan-hourglass</title>
  <g id="main-colour">
    <path d="M 304.16,270.49 l -1.1.12 c -.07-1.29-.14-2.58-.23-3.87 a 1.23,1.23,0,0,0-.32-.78,1.06,1.06,0,0,0-.86-.26,1,1,0,0,0-.79.42,1.17,1.17,0,0,0-.18.83,18.9,18.9,0,0,0,.47,3.22,19.26,19.26,0,0,0,.73,2.47 c .28.73.57,1.43.87,2.06.12.35.24.66.39,1 a 12.51,12.51,0,0,1,.57,1.69,19.62,19.62,0,0,1,.48,2 c .13.72.18,1.57.27,2.52 a 2.57,2.57,0,0,1,0,.92,2.45,2.45,0,0,1-.33.73,2.85,2.85,0,0,1-.61.52,2.79,2.79,0,0,1-.9.26 A 1.88,1.88,0,0,1,301,284 a 2.14,2.14,0,0,1-.69-1.51 c -.1-1.3-.2-2.6-.29-3.9 l 1.06-.13 c .09,1.3.19,2.6.3,3.9 a 1.38,1.38,0,0,0,.3.78,1,1,0,0,0,.81.22.93.93,0,0,0,.73-.41,1.33,1.33,0,0,0,.14-.83,22.85,22.85,0,0,0-.48-3.23,19.4,19.4,0,0,0-.71-2.46 c -.22-.54-.39-1-.61-1.52 l -.66-1.52 a 13.66,13.66,0,0,1-.61-1.68,19.36,19.36,0,0,1-.52-2,24,24,0,0,1-.27-2.54,2.49,2.49,0,0,1,.08-.94,2.26,2.26,0,0,1,.39-.7,2,2,0,0,1,.67-.51,3.18,3.18,0,0,1,1-.27,2.07,2.07,0,0,1,1.63.43,2.17,2.17,0,0,1,.71,1.55 C 304,267.91,304.1,269.2,304.16,270.49Z" fill="param(main_colour)"/>
    <path d="M 312,282.9 c -.25-1.09-.45-2.17-.61-3.26 l -1.37.17 c 0,1.11,0,2.22.12,3.33 l -1,.13 c -.5-6.5.69-13,.51-19.51 l 1.08-.11 c 1.24,6.4.88,12.78,2.33,19.12Z m -1.95-4.31,1.18-.14 c -.33-2.58-.5-5.17-.73-7.76 C 310.36,273.32,310.14,276,310.08,278.58Z" fill="param(main_colour)"/>
    <path d="M 321.55,268.66 l -1.09.11 c 0-1.26,0-2.53-.13-3.79 a 1.22,1.22,0,0,0-.32-.76,1.05,1.05,0,0,0-.84-.26,1,1,0,0,0-.76.41,1.18,1.18,0,0,0-.17.81,25.8,25.8,0,0,0,.36,3.16,19.33,19.33,0,0,0,.57,2.42,20.65,20.65,0,0,0,.73,2 c .1.35.2.64.32,1 a 11.8,11.8,0,0,1,.47,1.66,19.56,19.56,0,0,1,.38,2 c .1.7.11,1.54.18,2.46 a 2.5,2.5,0,0,1-.07.9,2.47,2.47,0,0,1-.35.72,3,3,0,0,1-.62.51,2.83,2.83,0,0,1-.9.26,2,2,0,0,1-1.58-.39,2.07,2.07,0,0,1-.73-1.48 c -.11-1.27-.16-2.55-.18-3.82 l 1.1-.13 c 0,1.27.05,2.54.16,3.82 a 1.3,1.3,0,0,0,.3.76,1,1,0,0,0,.83.21,1,1,0,0,0,.74-.4,1.29,1.29,0,0,0,.16-.81,26.52,26.52,0,0,0-.37-3.16,19.86,19.86,0,0,0-.57-2.41 c -.19-.53-.33-1-.51-1.49 l -.55-1.49 a 12.45,12.45,0,0,1-.47-1.65 c -.15-.61-.28-1.29-.38-2 s -.11-1.57-.17-2.48 a 2.61,2.61,0,0,1,.08-.92,2.24,2.24,0,0,1,.36-.69,1.88,1.88,0,0,1,.63-.5,3,3,0,0,1,.91-.26,2.07,2.07,0,0,1,1.6.42,2.13,2.13,0,0,1,.73,1.52 C 321.51,266.14,321.54,267.4,321.55,268.66Z" fill="param(main_colour)"/>
    <path d="M 330.41,267.75 l -1.07.11 c 0-1.25-.06-2.5-.16-3.75 a 1.2,1.2,0,0,0-.32-.75,1,1,0,0,0-.83-.25,1,1,0,0,0-.75.41,1.16,1.16,0,0,0-.16.8,25.44,25.44,0,0,0,.38,3.12,19.11,19.11,0,0,0,.59,2.4,20,20,0,0,0,.75,2 c .1.34.21.64.33,1 a 11.48,11.48,0,0,1,.48,1.64,17.52,17.52,0,0,1,.38,2 c .1.7.09,1.52.14,2.43 a 2.38,2.38,0,0,1-.11.89,2.49,2.49,0,0,1-.39.71,3.2,3.2,0,0,1-.65.5,3.06,3.06,0,0,1-.92.25,1.87,1.87,0,0,1-2.27-1.85 c -.07-1.26-.09-2.52-.09-3.78 l 1.12-.12 c 0,1.26,0,2.52.09,3.77 a 1.24,1.24,0,0,0,.28.75,1,1,0,0,0,.83.21,1,1,0,0,0,.77-.4,1.26,1.26,0,0,0,.19-.8,21.09,21.09,0,0,0-.32-3.13,18.16,18.16,0,0,0-.57-2.39 c -.19-.52-.33-1-.52-1.48 l -.56-1.47 a 12.26,12.26,0,0,1-.48-1.63 c -.15-.6-.28-1.27-.39-2 s -.12-1.56-.19-2.46 a 2.59,2.59,0,0,1,.07-.91,2.19,2.19,0,0,1,.35-.68,1.84,1.84,0,0,1,.62-.49,2.92,2.92,0,0,1,.91-.25,2.06,2.06,0,0,1,1.59.42,2.11,2.11,0,0,1,.72,1.5 C 330.34,265.25,330.39,266.5,330.41,267.75Z" fill="param(main_colour)"/>
    <path d="M 338.84,261 c -.46,3.16-.9,6.33-1.39,9.51q.13,4.66.33,9.3 l -1.09.12 c -.14-3.11-.22-6.22-.29-9.34-.66-3-1.25-6.11-2.13-9.18 l 1.06-.1 c .59,2.13,1.05,4.25,1.52,6.37.33-2.2.63-4.4.92-6.6Z" fill="param(main_colour)"/>
  </g>
  <g id="fixed-colours">
    <path d="M 327.9,274.55 s -12-.83-17.83,5 C 314.07,274,321.9,272.21,327.9,274.55Z" opacity="0.2"/>
    <path d="M 314.73,271.88 a 9.5,9.5,0,0,0,9.17-2.33 C 321.73,270.71,317.23,272,314.73,271.88Z" opacity="0.2"/>
    <path d="M 276.22,285.38 A 26.12,26.12,0,0,0,291.39,294 a 32.68,32.68,0,0,0,12.5-.33 C 294.19,298.69,280.93,296.08,276.22,285.38Z" opacity="0.4"/>
  </g>
<script type="text/ecmascript" xlink:href="param.min.js"/> 
</svg>
