<?xml version="1.0"?>
<svg xmlns="http://www.w3.org/2000/svg" xmlns:xlink="http://www.w3.org/1999/xlink" viewBox="0 0 600 600">
  <title>honey-slogan-voluptuous</title>
  <g id="main-colour">
    <path d="M 283.6,283.18q0-1.1,0-2.21 l .93,0 c -.08-3.67-.09-7.35-.16-11 l -1,0q0-1.1,0-2.21 l 3.92-.1 c 0,.73.05,1.47.06,2.2 l -1,0 c 0,1.47,0,2.93,0,4.4 l 3.84-.12 c 0-1.46.09-2.92.07-4.39 l -1,0 c 0-.73,0-1.46-.07-2.2 l 3.9-.1 c .06.73.08,1.46.09,2.19 l -1,0 c 0,3.65-.37,7.3-.25,10.95 l .93,0 c 0,.73.07,1.46.15,2.19 l -3.76.15 c -.06-.73-.1-1.46-.12-2.19 l .93,0 c 0-1.46,0-2.92,0-4.39 l -3.78.13 c 0,1.47,0,2.93,0,4.4 l .93,0 c 0,.73.05,1.47.1,2.2Z" fill="param(main_colour)"/>
    <path d="M 296.38,282.66 c -.57-.56-1.12-1.12-1.64-1.69-.18-3.93.44-7.86.35-11.79.51-.6,1-1.19,1.46-1.78 l 4.65-.11q.87.85,1.67,1.7 c .1,3.9-.78,7.81-.62,11.7q-.72.89-1.36,1.79Z m .21-2.19,3.76-.14 c -.09-3.62.62-7.24.59-10.86 l -3.89.1 C 297.08,273.21,296.48,276.84,296.59,280.47Z" fill="param(main_colour)"/>
    <path d="M 304.27,282.35 c -.66-5,1-10.1.41-15.14 l 1.93,0 c 2,3.42,2.95,6.82,4.25,10.2.29-3.44,1-6.88.57-10.32 l 1.93,0 c .59,5-1.13,10-.61,15 l -1.89.07 c -2-3.37-2.89-6.76-4.22-10.18-.27,3.46-.93,6.91-.49,10.36Z" fill="param(main_colour)"/>
    <path d="M 314.64,281.94 c -.47-5,1.22-10,.65-15 l 7.7-.18 c .05.71.07,1.42.07,2.12 l -5.73.15 a 39,39,0,0,1-.28,4.28 l 3.83-.11 c -.07.71-.16,1.42-.23,2.13 l -3.84.12 c -.16,1.42-.3,2.85-.33,4.27 l 5.75-.21 c 0,.71,0,1.42,0,2.12Z" fill="param(main_colour)"/>
    <path d="M 324.91,266.73 l 1.93,0 c 1,1.83,1.86,3.65,2.67,5.47,1.09-1.87,2.11-3.74,3.12-5.6 l 1.94,0 c -1.42,2.48-2.76,5-4.25,7.46-.19,2.46-.39,4.92-.45,7.38 l -1.92.07 c 0-2.46.24-4.93.46-7.39 A 71.19,71.19,0,0,0,324.91,266.73Z" fill="param(main_colour)"/>
  </g>
<script type="text/ecmascript" xlink:href="param.min.js"/> 
</svg>
