<?xml version="1.0"?>
<svg xmlns="http://www.w3.org/2000/svg" xmlns:xlink="http://www.w3.org/1999/xlink" viewBox="0 0 600 600">
  <title>professionally-pink-scarf-hourglass</title>
  <g id="main-colour">
    <path d="M 285.82,220.94 a 41.63,41.63,0,0,1-7.87,2.31 c -3.81.63-8.94,1.81-6.94,6.63-4,2.5-2.94,6.5-1.12,8 s 9,6.19,28.22,6.69 c .63,1.38,3.5,1.94,3.5,1.94 s -4,5.06-8,15.56-5.12,23.25,2.75,40 c .63-11.69,6.06-17.19,9.5-19.44-4.06-8.31-5.56-14.5-4-22.25 a 85.89,85.89,0,0,1,3.93-13.62,11.52,11.52,0,0,0,5.08-.87 A 79.2,79.2,0,0,1,318,264.71 c 2.13,8.63-1.5,18-1.5,18 s 4.85,2.6,6.42,11.67 c 3.94-9.44,6.6-18.62,5.42-27 s -6.33-15.5-15-23.12 c .21-.33.33-.87.63-1.54,9.5-1.92,13.1-6.28,13.26-7.52.19-1.44-.87-6.12-.75-7.44 s .5-3.06-1.62-4.62-6.37-.94-10.56-2.94 c 1.69,1.69,1.69,3.69.38,5.06,2.06,1.63,5.56,1.63,5.56,1.63 s -3.09,6.44-8.22,9.81 c -2.12-1.94-11.87-3.06-13.5,1.31-6-1.19-17-6.25-19.66-10.37,3.44-1,5.94-3.06,5.94-3.31 S 284.82,221.88,285.82,220.94Z" fill="param(main_colour)"/>
  </g>
  <g id="outline">
    <path d="M 327.23,260.75 c -3.9-9-12-15.66-13.37-16.78 l .06-.14 c 0-.11.05-.22.08-.34 a 26.5,26.5,0,0,0,12.5-5.94 c 2.5-2.12,1.56-3.87,1-5.19 a 17,17,0,0,1-.63-4.19,3.49,3.49,0,0,0,.51-2.73 c -1-2.58-3.25-3.83-6.5-4.08 a 21.11,21.11,0,0,1-6.7-2 l -.22-.15-.67,1.13 s 1.92,1.38,1.63,3-3,4.25-3,4.25,3.29-1.33,4.21-3.92 a 2.86,2.86,0,0,0,0-2 c 1.75.85,4,.88,6.62,1.53,3,.75,3.58,2.5,3.08,4.25 s -3.17,4.75-3.67,8.42 c .44-1.78,2.55-4.2,4-6.41 a 15.81,15.81,0,0,0,.39,3.66 c .5,1.75.31,2.38-2.44,4.81-2.57,2.28-9.09,4-9.92,4.21 a 6,6,0,0,0-1.29-3.5,3.81,3.81,0,0,0,.21-.57,1.84,1.84,0,0,0,0-.89 c 1.78-1.4,9.72-8,7.3-13.06,0,0,0,5.09-8.3,11.69-1.42-1-4.16-1.6-7.41-1.29 s -6,1.25-7.08,2.73 c -3.48-1.06-10.42-3.87-20.95-11.3,0,0,4.14,6.92,20.41,12.45 a 2.85,2.85,0,0,0,.14,1.51,3.54,3.54,0,0,0,.5.91,4.85,4.85,0,0,0-.61,3.28 c -5.66-.33-15.82-1.28-21.95-4-7.46-3.31-6.66-6-4.82-8.85,1.15,2,3.74,4.09,8.74,5.93-3.92-3.5-7.08-6.08-7.25-8.92 s 2.17-3.5,5.67-4 a 31.3,31.3,0,0,0,6.65-2,4,4,0,0,0-.23,1.64 c .17,2.67,3.58,5,5.25,5.54-3.08-2.17-4.21-6.08-2.12-7.92 a 2.93,2.93,0,0,1-1-1.46 l -.26.16v-.12 s -2.67,1-6.08,2-5.58.33-7.75,1.83 a 5.7,5.7,0,0,0-2.23,5.64 c -1.33,1.6-3.15,4.54-1.69,7.36,2,3.86,15.22,8.14,29.8,8.42 a 7.21,7.21,0,0,0,3,1.52,78,78,0,0,0-8.51,16.3 c -3.5,9.67-4.5,25.25,4.67,41.75-.67-11.25,5.83-19.75,10.08-21.92-5-9.83-5.5-14.58-4.58-21.83 a 70.48,70.48,0,0,1,3.46-13.69 H 306 a 13.69,13.69,0,0,0,4.3-.8 c 2.08,3.17,11.38,18.79,5.47,36.25 a 13.83,13.83,0,0,1,6.32,13.37 C 328.82,288.59,331.52,270.68,327.23,260.75Z m -28.49-18.91 a 10.41,10.41,0,0,0,4.44,1.52 s -4.55-1.55-4.59-4.07,4.13-3.33,6.64-3.37,5.27,0,6.3,1.62-2.13,4.5-2.13,4.5 a 9.91,9.91,0,0,0,2.76-2.23 c .52.81,1.36,2.5.44,4-1.26,2.07-6.35,2.9-10,2.42 C 299.31,245.8,298,244.17,298.74,241.84Z m 2.15,21 c -1.42,10.67,4.08,19.5,4.08,19.5 a 24.06,24.06,0,0,0-9,17.25 c -3.75-10.08-5.67-19.33-3.5-30.58,1.72-8.91,7.24-18.28,9.46-21.79 a 18.71,18.71,0,0,0,2.86.34 A 60.11,60.11,0,0,0,300.89,262.79Z m 16.69,19.59 c 2.25-7.56,4.46-19.21-6.23-36.11 a 6.36,6.36,0,0,0,2-1.44 c 1.84,1.59,9.16,8.3,12.73,17.14,4.1,10.16.29,22.7-2.79,30.79 C 322.79,287.71,320.35,284.14,317.58,282.39Z"/>
  </g>
<script type="text/ecmascript" xlink:href="param.min.js"/> 
</svg>
