<?xml version="1.0"?>
<svg xmlns="http://www.w3.org/2000/svg" xmlns:xlink="http://www.w3.org/1999/xlink" viewBox="0 0 600 600">
  <title>sarong-slender</title>
  <g id="main-colour">
    <path d="M 279.47,324.46 s .58,4.83,2.33,6.83 c 2.83,3.08,15.25,10.67,23.25,12.42,2.83-1.92,6.17-2.83,9.25-1.67,5.33-4.58,9.83-10.42,10.17-15.83,3.25,1.17,5.67,3.67,3.75,8.25,2.75,2,3.83,4.58,2.5,7,3.08,4.33,6.92,15.67,7.67,21.33 a 12.31,12.31,0,0,0,1.58.92 s 3.25,16.17,3.5,24.83 c 1.08,1.5,1.58,2.08,1.58,2.08 s -.33,11.75-2.58,20.83 a 5.61,5.61,0,0,1,1.25,1.83 s -3.67,14.42-1.67,24.5,4,13.75,4,13.75-5.83,13.25-19.58,12.5 c -1,8.58-6.25,19.08-10.42,24.75 a 12.27,12.27,0,0,0-2.58-5.67 s -1.58,8.33-6.75,12.67 c -1.92-9.58-6.5-13.75-10.58-18.17 S 280.06,461.46,277.47,456 c -4.5,4.42-8.92,5.67-11.75,5.83,4.17-4.75,4.75-9.08,3.08-15.42 s -10.5-20-10.17-24.17 c -2.67-6.5-6.5-19-6.33-29.08 a 13.92,13.92,0,0,0,1.08-1.75 s 2.42-24.25,5.67-32.75 a 17.47,17.47,0,0,1,2.17-1.83 s 2.08-9.5,5.25-14.42 a 7.94,7.94,0,0,1,1.75-1.58 l 3.08-7.08 S 267.89,328.21,279.47,324.46Z" fill="param(main_colour)"/>
  </g>
  <g id="outline">
    <path d="M 343.36,440.92 c -1.75-9.48-.19-21.08,1-26.67 a 16.74,16.74,0,0,0-.49-4,145.71,145.71,0,0,0,2.24-19.41,14.27,14.27,0,0,0-1.79-5 c -.55-6.76-2.71-20.84-2.71-20.84 a 12.26,12.26,0,0,0-3.07-5.84,87.1,87.1,0,0,0-6.67-18.28 c 1.05-3.14-1.77-6-2.78-6.94 a 7.9,7.9,0,0,0,.6-2.89 c 0-2.5-2.42-4.5-5.71-5.54,0,0,.11,7.59-10.06,15.56-1.67-.61-7.2-.13-9.38,1.66-3.88-1.37-16.32-6-22.19-11.59-1.87-2.5-2.25-7.75-2.25-7.75-5.23.65-12.17,5.58-10,10.73 a 33.38,33.38,0,0,0-2.43,6.14,16.52,16.52,0,0,0-1.85,1.07,70.28,70.28,0,0,0-5.37,15,15.37,15.37,0,0,0-2.19,1.89 c -2.72,7.86-5,20.1-5.51,32.94 l -1.55,1.75 s .46,16.54,6.51,28.43 a 4,4,0,0,0-.38,2.13,110,110,0,0,0,7.81,16.69 c 3.31,5.44,5.38,18.44-2.12,22.5,5.27,1,10.09-1.59,14.07-5.24 a 108.18,108.18,0,0,0,12,14.3 c 8.13,8.25,16.75,16.88,16.63,26.63,4.51-4.06,7-10.07,8-13.1 a 15.67,15.67,0,0,1,1.59,5.22 c 8-7.36,11.5-22,12.23-25.39,11.85.71,19.27-13,19.27-13 S 345.31,447,343.36,440.92Z m -2.42-7.4 c -1.5-4.49-2.94-8.53-3.8-10.39-1.56-3.35-3.4-8-4.58-11-.16-2.55-.3-4.87-.42-6.8-.26-3.95-.54-7.93-.91-12,3.1,5.43,7.53,15.43,11.53,20.48 A 63.44,63.44,0,0,0,340.94,433.51Z m -15.42,28.61 c -2.25,4.63-5.62,9.38-11.25,6.63,1.38-7.5-1.87-32.62-3.87-45.25 s -1.62-31-.75-46.62 a 165,165,0,0,0-.3-25,3,3,0,0,0,1.23-.88,5.81,5.81,0,0,0,1-.05 c .49,4.72,3.66,16.44,5.82,23.14,2.25,7,3.13,18.5,2.13,27.5,3.75-15.75-.62-28.12-3-36.37 a 141.9,141.9,0,0,1-3.34-14.66,8.65,8.65,0,0,0,1.82-.88 c 12.55,12.14,13.54,38.26,14.77,51.92,1.25,13.88,2.38,38.88,6.63,47.38 C 332.52,451.25,327.77,457.5,325.52,462.13Z M 301,421.25 a 223.25,223.25,0,0,1-1.5-39.75 A 80.64,80.64,0,0,1,306.07,352 a 5.46,5.46,0,0,0,1.56.22 c 1.41,10.54-.25,28.84-.74,41.25-.5,12.75,2,36.13,3.63,47.5 a 169.17,169.17,0,0,1,1.58,19.56,16.46,16.46,0,0,1-8.83,2.07 C 305.39,455.13,302.39,433.75,301,421.25Z m 29.72-78.55 c 3.11,5.85,5.67,15.23,6.42,18.15-9-4.2-17.84-11.05-20.33-13 a 2.84,2.84,0,0,0,.25-.68 C 319.82,346.77,327.76,345.49,330.74,342.7Z m 11.39,67.2 c -.95-1.5-2.36-3.84-3.74-6.52-1.77-3.44-5.75-11.25-7.67-15 a 162.91,162.91,0,0,0-3.18-18.7 c 1.07,1.45,2.39,3.22,3.61,4.84,2.63,3.5,7.38,10.75,12.88,16.38 C 344.63,394.78,342.81,406,342.13,409.89Z m .21-23.56 C 340,383.52,336,378,334.39,375.5 a 128.29,128.29,0,0,0-8-10.07,46.91,46.91,0,0,0-7.31-13.81,101.12,101.12,0,0,0,19.85,12.25 C 341,370.82,342.1,383.09,342.34,386.34Z m -17.2-59 c 3.25,1.13,6.08,5.67-3.25,14.13 a 18.12,18.12,0,0,0,6.46-6 c 1,1.15,3.33,4.16.54,6.15 s -9.65,3.73-11.8,4.22 a 6.62,6.62,0,0,0-1.7-3.76 C 317.07,340.75,324.15,334.75,325.14,327.38Z M 313.39,342.5 c 1.63.63,2.38,3.25,2,4.75-.31,1.26-3.26,2-4.2,2.19 a 4,4,0,0,0-.42-2.19 c -.12,4.38-3.5,3.88-5.37,2.75 s -1.25-4-.12-5.5 S 311.77,341.88,313.39,342.5Z m -41.62-6.12 a 32.51,32.51,0,0,0,22.63,9.38 c -19.87-4.37-21.75-10.75-22.12-13.12 s 2.13-5.37,6.5-7 a 13.57,13.57,0,0,0,1.25,4,3.47,3.47,0,0,1-2.12-1.25 c 4,7.48,21.17,13.92,25.66,15.5 a 7.72,7.72,0,0,0-.59,1 c -18-3.19-26.82-13.6-26.82-13.6,5.61,9.87,22,13.92,26.34,14.85 a 5.46,5.46,0,0,0-.18,1.06 c -17.43,2.62-29.77-2.48-33.51-4.32 a 43.28,43.28,0,0,1,2.5-7 C 271.44,336,271.6,336.21,271.77,336.38Z M 267,343.63 c 17.58,7.58,32.53,5.37,35.38,4.85 l 0,.13 c -3.07,2.39-18.26,13-40.69,9.15 C 262.48,355.14,264.88,347,267,343.63Z m -6.75,15.44 c 11.91,2.53,29.38.2,39.87-7.11 L 289.7,364.44 c -5,6-18.49,22.5-35.17,26.79 C 254.92,386.56,256.62,368,260.27,359.07Z m 23.19,14.69 c 5.45-5.85,15.21-17.93,18.77-22.37-1.81,3.25-5.34,9.73-7.59,14.75-3.12,7-10.87,25.5-14.5,31.5 s -13.17,19-20.61,23.67 c -1.46-3.43-6.21-15.53-6.27-27.54 C 265.2,390.57,276.7,381,283.45,373.75Z M 268,441 c -2.25-4.25-7.5-14.12-8-17.5,11.38-6.75,22.38-25.62,26.25-34.37,3.71-8.38,14-32.58,18.11-37.9 l .11.07 c -1.11,2-4.24,8.72-6,23 a 134.84,134.84,0,0,0-.74,15.84 c -1.26,7.28-3.72,21.45-5,28.45-1.83,9.67-8.58,38.83-24.46,42.08 C 272.77,453.75,270.27,445.25,268,441Z m 39.25,53.38 c -1-6.62-7-13.62-10.87-17.75-3.73-4-13.82-14.77-17.58-20.81 a 51.05,51.05,0,0,0,7.48-10.43 c 3.29,10.25,14.8,23.85,19.35,29 a 70.9,70.9,0,0,1,6.86,8.6 C 311.54,485.63,309.41,491.21,307.27,494.38Z M 299.89,464 a 77.75,77.75,0,0,1-12.3-21.25 c 2.95-6.87,7.2-23,10.29-45.78.4,15,1.87,30.55,2.51,36.66,1,9.5,2.5,23.25.63,30.63 a 14.33,14.33,0,0,0,11.14-1.13 c 0,2.4.08,4.73.11,7,6.91,3.34,10.55.58,12.79-2.89 a 59.2,59.2,0,0,1-8.67,19.39 C 316,482.5,309.14,475.25,299.89,464Z m 27.21-.69 c .24-.52.45-1,.66-1.44,2-4.12,6.63-10.5,10.88-12.62-3.31-5-4.83-19.46-5.7-31.48,2.45,6.36,8.2,21.6,11.95,34.1 C 338.48,462.14,330.27,463.29,327.1,463.32Z"/>
  </g>
<script type="text/ecmascript" xlink:href="param.min.js"/> 
</svg>
