<?xml version="1.0"?>
<svg xmlns="http://www.w3.org/2000/svg" xmlns:xlink="http://www.w3.org/1999/xlink" viewBox="0 0 600 600">
  <title>sassy-slogan-hourglass</title>
  <g id="main-colour">
    <path d="M 301.63,266.56 l -1,.1 c -.05-1.23-.12-2.45-.2-3.68 a 1.17,1.17,0,0,0-.3-.74,1,1,0,0,0-.82-.25,1,1,0,0,0-.75.39,1.11,1.11,0,0,0-.18.79,17.88,17.88,0,0,0,.43,3.06,18.52,18.52,0,0,0,.68,2.36 c .26.7.53,1.36.82,2,.11.34.23.63.36.94 a 12,12,0,0,1,.53,1.62,18.77,18.77,0,0,1,.44,1.93 c .12.68.16,1.49.24,2.39 a 2.48,2.48,0,0,1-.05.87,2.3,2.3,0,0,1-.32.69,2.71,2.71,0,0,1-.58.49,2.58,2.58,0,0,1-.85.24,1.79,1.79,0,0,1-1.47-.39,2,2,0,0,1-.65-1.45q-.13-1.85-.25-3.71 l 1-.11 c .08,1.24.16,2.47.26,3.71 a 1.3,1.3,0,0,0,.28.74.9.9,0,0,0,.77.21.88.88,0,0,0,.69-.39,1.25,1.25,0,0,0,.14-.79,21.66,21.66,0,0,0-.44-3.07,18.37,18.37,0,0,0-.66-2.35 c -.2-.51-.37-1-.57-1.45 l -.62-1.45 a 12.9,12.9,0,0,1-.56-1.6,18.32,18.32,0,0,1-.48-1.94,22.78,22.78,0,0,1-.23-2.41,2.37,2.37,0,0,1,.08-.9,2.16,2.16,0,0,1,.37-.66,2,2,0,0,1,.64-.48,3,3,0,0,1,.91-.24,2,2,0,0,1,1.54.42,2.06,2.06,0,0,1,.67,1.48 C 301.53,264.11,301.59,265.34,301.63,266.56Z" fill="param(main_colour)"/>
    <path d="M 309,278.43 c -.24-1-.42-2.07-.56-3.1 l -1.3.15 c 0,1.05,0,2.11.09,3.16 l -1,.11 c -.44-6.17.77-12.36.61-18.53 l 1-.09 c 1.17,6.08.74,12.15,2.09,18.18Z m -1.83-4.12,1.13-.12 c -.29-2.46-.43-4.92-.63-7.38 C 307.49,269.31,307.26,271.81,307.18,274.31Z" fill="param(main_colour)"/>
    <path d="M 318.14,265 l -1,.1 c 0-1.2,0-2.4-.1-3.6 a 1.15,1.15,0,0,0-.3-.73,1,1,0,0,0-.8-.25.92.92,0,0,0-.72.38,1.12,1.12,0,0,0-.17.77,25.12,25.12,0,0,0,.32,3,19,19,0,0,0,.52,2.31,19.77,19.77,0,0,0,.68,1.92 c .09.33.19.61.3.92 a 11.18,11.18,0,0,1,.43,1.58 c .13.57.25,1.19.34,1.89 s .09,1.46.15,2.34 a 2.38,2.38,0,0,1-.07.85,2.35,2.35,0,0,1-.33.68,2.75,2.75,0,0,1-.59.48,2.64,2.64,0,0,1-.85.24,1.89,1.89,0,0,1-1.5-.38,2,2,0,0,1-.69-1.42 c -.1-1.21-.14-2.42-.14-3.63 l 1-.11 c 0,1.21,0,2.42.13,3.63 a 1.24,1.24,0,0,0,.29.72,1,1,0,0,0,.79.21.91.91,0,0,0,.71-.38,1.22,1.22,0,0,0,.16-.77,25.84,25.84,0,0,0-.33-3,19.3,19.3,0,0,0-.52-2.3 c -.17-.5-.3-1-.47-1.42 l -.51-1.42 a 11.73,11.73,0,0,1-.44-1.57 c -.13-.58-.25-1.23-.34-1.9 s -.09-1.5-.15-2.36 a 2.49,2.49,0,0,1,.08-.88,2.14,2.14,0,0,1,.34-.65,1.78,1.78,0,0,1,.6-.47,2.79,2.79,0,0,1,.87-.24,2,2,0,0,1,1.52.42,2,2,0,0,1,.69,1.45 C 318.12,262.59,318.15,263.79,318.14,265Z" fill="param(main_colour)"/>
    <path d="M 326.56,264.21 l -1,.09 c 0-1.19,0-2.38-.12-3.56 a 1.13,1.13,0,0,0-.3-.72,1,1,0,0,0-.79-.25.9.9,0,0,0-.71.38,1.09,1.09,0,0,0-.16.76,24.63,24.63,0,0,0,.34,3,18.5,18.5,0,0,0,.53,2.28,19.46,19.46,0,0,0,.69,1.9 c .09.33.19.61.31.91 a 10.83,10.83,0,0,1,.44,1.56,17.23,17.23,0,0,1,.35,1.86 c .09.66.08,1.44.11,2.31 a 2.22,2.22,0,0,1-.1.84,2.39,2.39,0,0,1-.37.67,3,3,0,0,1-.62.47,2.81,2.81,0,0,1-.88.23,1.79,1.79,0,0,1-2.14-1.78 c -.06-1.2-.08-2.39-.07-3.59 l 1.06-.11 c 0,1.2,0,2.39.06,3.59 a 1.17,1.17,0,0,0,.27.71,1,1,0,0,0,.79.21,1,1,0,0,0,.73-.37,1.2,1.2,0,0,0,.19-.76,20.64,20.64,0,0,0-.28-3,17.67,17.67,0,0,0-.52-2.27 c -.17-.5-.31-1-.48-1.41 l -.51-1.41 a 11.85,11.85,0,0,1-.44-1.55 c -.14-.57-.26-1.21-.35-1.88 s -.1-1.48-.16-2.33 a 2.44,2.44,0,0,1,.07-.87,2.05,2.05,0,0,1,.34-.64,1.75,1.75,0,0,1,.59-.46,2.77,2.77,0,0,1,.86-.23,2,2,0,0,1,1.51.41,2,2,0,0,1,.67,1.43 C 326.51,261.84,326.55,263,326.56,264.21Z" fill="param(main_colour)"/>
    <path d="M 334.61,257.86 c -.47,3-.9,6-1.39,9q.09,4.43.23,8.84 l -1,.11 c -.11-3-.16-5.92-.2-8.88-.6-2.9-1.14-5.82-2-8.74 l 1-.08 c .55,2,1,4.05,1.39,6.07.33-2.09.64-4.18.93-6.26Z" fill="param(main_colour)"/>
  </g>
  <g id="fixed-colours">
    <path d="M 326.31,271.21 s -11.85-2-18.25,3.16 C 312.6,269.31,320.58,268.28,326.31,271.21Z" opacity="0.2"/>
    <path d="M 287.09,288.2 c 7.12.34,13.78-.82,20.78-6.32 C 304.11,288.81,294.11,291.43,287.09,288.2Z" opacity="0.4"/>
  </g>
<script type="text/ecmascript" xlink:href="param.min.js"/> 
</svg>
