<?xml version="1.0"?>
<svg xmlns="http://www.w3.org/2000/svg" xmlns:xlink="http://www.w3.org/1999/xlink" viewBox="0 0 250 250">
  <title>voluptuous-bottoms-template</title>
  <g id="main-colour">
    <path d="M 125,86.56 A 38.44,38.44,0,0,0,86.56,125 c 0,.75,0,1.49.07,2.22 A 77.21,77.21,0,0,0,91.71,153 c 8,21,18.49,37.37,27.79,51.9,3.5,5.75,6,8.75,7.55,13 h 0 a 12.48,12.48,0,0,0,15,4.14 c 8.58-2.42,8.84-9.19,11.67-18 s 6-29.86,7.79-46.36 a 290.86,290.86,0,0,0,1.9-32.67 A 38.44,38.44,0,0,0,125,86.56Z" fill="param(main_colour)"/>
  </g>
  <g id="outline">
    <path d="M 125,84.56 a 40.38,40.38,0,0,0-40.17,45.08 h 0 c 0,.44,0,.73,0,.73 h 0 a 100.07,100.07,0,0,0,4.19,19q.54,1.74,1.13,3.46 c 1,2.87,2,5.68,3.09,8.38q.64,1.62,1.3,3.19t1.3,3.06q.65,1.5,1.3,2.91 c 1.07,2.36,2.12,4.55,3.09,6.5.58,1.17,1.14,2.26,1.66,3.26 h 0 c 6.7,12.78,18.57,26.77,25.15,37.78-3.58-13-18.92-29.28-28.15-50.38-.38-.88-.75-1.74-1.11-2.59 l -.31-.75-.76-1.84-.31-.76q-.42-1-.81-2 l -.15-.39q-.48-1.24-.93-2.45 l -.09-.23q-.4-1.08-.78-2.13 l -.15-.42q-.37-1-.71-2 l -.07-.21q-.79-2.32-1.46-4.45 h 0 c -.92-2.94-1.67-5.61-2.27-8 l -.63-2.62 c -.76-3.32-1.22-6-1.48-7.9v0 c -.1-.75-.17-1.4-.22-1.92v0 c 0-.26,0-.5-.05-.7 h 0 c 0-.34,0-.68,0-1 a 38.44,38.44,0,0,1,76.88,0 h 0 c 0,1-.05,2.08-.14,3.1-.07,2.62-.2,6.72-.71,11.75-1.58,17.5-4.94,39.84-6.1,47-2.11,12.92-5.44,25.66-8.69,30.63 A 14,14,0,0,1,142,222 c 5.76-.8,8.78-4.81,12.44-15.47,5.21-17.58,7.28-38.9,8.95-54.07.18-1.64.35-3.2.51-4.72 h 0 l 0-.43 c .34-3.26.62-6.25.77-8.89.37-5.14.55-9.19.62-11.45,0-.46,0-.91,0-1.37 s 0-.64,0-.64 A 40.49,40.49,0,0,0,125,84.56Z"/>
  </g>
<script type="text/ecmascript" xlink:href="param.min.js"/> 
</svg>
