<?xml version="1.0"?>
<svg xmlns="http://www.w3.org/2000/svg" xmlns:xlink="http://www.w3.org/1999/xlink" viewBox="0 0 215 215">
  <title>midi-crew-neck-t-shirt-voluptuous</title>
  <g id="skin-tone">
    <path d="M 115.26,102.67 h 0 a 9.08,9.08,0,0,0-15.27-.2 h 0 a 34.79,34.79,0,0,0-6.93,19.11 c -.58,11.54,2.45,20.43,4.68,27.27 s 5.8,19.33,6.56,23.8,1.38,6.88,4.67,6.82,4.61-2.79,4.35-5.24.37-11.83,2.15-19.24,4.49-21.23,4.68-29.48 S 119.85,108.61,115.26,102.67Z" fill="param(skin_tone)"/>
  </g>
  <g id="outline">
    <path d="M 115.26,102.67 c 2.1,3.93,4.48,9.84,4.07,21.59 S 115,152.12,113.45,160 a 69.44,69.44,0,0,0-1.14,15.09,3.33,3.33,0,0,1-3.2,3.46 H 109 a 3.33,3.33,0,0,1-3.32-3.21 h 0 a 21.92,21.92,0,0,0-.45-3.77v-.08 h 0 c -.75-4-2.33-9.84-4.17-16.36 C 98.73,147,93.66,135,94.07,123.55 c .32-9,3.81-18,5.91-21.08-2.66,1.64-7.71,8.79-8.16,18.28-.67,14.41,3.73,25.05,6.87,34.69 a 136.75,136.75,0,0,1,4.95,20,5.32,5.32,0,0,0,5.31,5.13 h .22 a 5.34,5.34,0,0,0,5.13-5.53 c -.79-12.87,5.18-27.12,6.88-48.11 S 115.26,102.67,115.26,102.67Z"/>
  </g>
<script type="text/ecmascript" xlink:href="param.min.js"/> 
</svg>
