<?xml version="1.0"?>
<svg xmlns="http://www.w3.org/2000/svg" xmlns:xlink="http://www.w3.org/1999/xlink" viewBox="0 0 600 600">
  <title>honey-slogan-slender</title>
  <g id="main-colour">
    <path d="M 326.47,271.65q0-.85,0-1.69 l .78-.05 c 0-1.13.08-2.25.13-3.38 l -3.09.19 c -.07,1.13-.13,2.26-.17,3.4 l .78-.05q0,.85,0,1.7 l -3.09.21 c 0-.57,0-1.13,0-1.7 l .78-.05 c .07-2.83.42-5.67.4-8.51 l -.77,0 c 0-.57,0-1.14-.07-1.7 l 3.09-.17 c 0,.57,0,1.13,0,1.7 l -.76,0 c 0,1.13,0,2.26-.1,3.4 l 3.06-.18 c 0-1.13.09-2.26.1-3.38 l -.76,0 c 0-.56,0-1.13,0-1.69 l 3.11-.16q0,.84,0,1.69 l -.76,0 c -.06,2.81-.19,5.63-.26,8.44 l .78-.05,0,1.69Z" fill="param(main_colour)"/>
    <path d="M 315.39,272.42q-.66-.64-1.28-1.29 c 0-3.09.54-6.19.44-9.29q.59-.72,1.14-1.44 l 3.7-.2 c .45.43.89.87,1.31,1.3.08,3.07-.39,6.15-.43,9.22-.42.48-.82,1-1.21,1.45Z m 3.79-10.49-3.07.18 c 0,2.86-.44,5.72-.46,8.58 l 3.09-.21 C 318.78,267.63,319.22,264.78,319.18,261.93Z" fill="param(main_colour)"/>
    <path d="M 311.13,272.72 a 53,53,0,0,1,.29-8.28,63.3,63.3,0,0,0-4.07,8.55 l -1.51.11 c -.51-4,.5-8.11.12-12.16 l 1.55-.09 a 58.46,58.46,0,0,1-.26,8.33,81.69,81.69,0,0,0,4.12-8.54 l 1.54-.09 c .43,4-.64,8-.27,12.06Z" fill="param(main_colour)"/>
    <path d="M 298.33,273.66 c -.08-.58-.13-1.17-.16-1.75 l 4.52-.32 c -.05-1.16,0-2.32,0-3.49 l -3.06.2 c 0-.58,0-1.17.07-1.75 l 3.09-.2 c .07-1.16.13-2.33.11-3.49 l -4.69.28 c 0-.58,0-1.17-.07-1.75 l 6.23-.35 c .36,4.06-.6,8.13-.07,12.18Z" fill="param(main_colour)"/>
    <path d="M 293.57,267.83 a 60.1,60.1,0,0,0,.25,6.16 l -1.51.11 c -.19-2.06-.23-4.12-.26-6.17-1-2-2.16-4-3.31-6 l 1.58-.09 c .86,1.5,1.7,3,2.48,4.5.76-1.59,1.55-3.18,2.25-4.77 l 1.57-.09 C 295.69,263.58,294.58,265.7,293.57,267.83Z" fill="param(main_colour)"/>
  </g>
<script type="text/ecmascript" xlink:href="param.min.js"/> 
</svg>
