<?xml version="1.0"?>
<svg xmlns="http://www.w3.org/2000/svg" xmlns:xlink="http://www.w3.org/1999/xlink" viewBox="0 0 600 600">
  <title>love-slogan-voluptuous</title>
  <g id="main-colour">
    <path d="M 308.94,283.7 l -10.49,1.62-.06-.52,1.88-.29 c -.62-4.63-.82-9.27-1.26-13.92 l -2,.26-.05-.52,6.67-.88,0,.51-2.09.28 c .39,4.64.41,9.27,1.11,13.89 l 2.43-.37 a 2.88,2.88,0,0,0,2.33-1.56,7.09,7.09,0,0,0,.6-3.39 l .59-.09 A 36.39,36.39,0,0,0,308.94,283.7Z" fill="param(main_colour)"/>
    <path d="M 320.37,280 a 5.81,5.81,0,0,1-3.93,2.92,5,5,0,0,1-4.43-1.68,7.06,7.06,0,0,1-2-5.16,9.66,9.66,0,0,1,1.78-5.66,6,6,0,0,1,4.17-2.89,5.22,5.22,0,0,1,4.49,1.73,6.69,6.69,0,0,1,1.83,5.13 A 10.58,10.58,0,0,1,320.37,280Z m -1-7.84 a 5.08,5.08,0,0,0-.86-3.28 A 2.73,2.73,0,0,0,316,268 a 3,3,0,0,0-2.38,1.48,7.08,7.08,0,0,0-.73,3.51 c 0,1.77-.05,3.53,0,5.29 a 5.15,5.15,0,0,0,1,3.28,2.59,2.59,0,0,0,2.51.8,2.83,2.83,0,0,0,2.24-1.5,7.61,7.61,0,0,0,.68-3.49 C 319.29,275.65,319.37,273.9,319.4,272.14Z" fill="param(main_colour)"/>
    <path d="M 332.63,266.2 c -.8,5-3.19,9.95-4.3,14.95 l -.58.08 c -2-4.55-2.78-9.15-4.83-13.78 l -1.63.21q0-.25-.06-.5 l 6.18-.8q0,.25.07.5 l -2,.26 a 90.58,90.58,0,0,1,3.39,9.76,75.61,75.61,0,0,0,3.19-10.61 l -2,.26q0-.25-.07-.5 l 4.19-.54q0,.25.08.5Z" fill="param(main_colour)"/>
    <path d="M 346.1,278.36 c -3.81.51-7.61,1-11.37,1.55q0-.25,0-.5 l 2-.27 c -.16-4.47.29-8.95-.32-13.43 l -1.91.24q0-.25-.07-.5 c 3.56-.45,7.11-.9,10.74-1.34.15,1.26.26,2.53.36,3.79 l -.53.07 a 4,4,0,0,0-1.4-2.52,3.81,3.81,0,0,0-2.49-.34 l -2.23.28 a 51.71,51.71,0,0,1,.35,6.27 l .52-.07 a 2.33,2.33,0,0,0,1.91-1,3.62,3.62,0,0,0,.41-1.91 l .54-.07 c .09,2,.11,4,.15,5.94 l -.55.07 a 3.72,3.72,0,0,0-.49-1.91 c -.33-.53-1-.73-2-.6 l -.52.07 c 0,2.21,0,4.42,0,6.63 l 2.68-.36 a 3.55,3.55,0,0,0,2.67-1.37,7.28,7.28,0,0,0,.93-3.2 l .57-.08Q346.08,276.08,346.1,278.36Z" fill="param(main_colour)"/>
  </g>
  <g id="fixed-colours">
    <path d="M 334.57,274.55 s -18.28-1.27-27.17,7.62 C 313.49,273.78,325.43,271,334.57,274.55Z" opacity="0.2"/>
    <path d="M 314.51,270.48 s 7.87,2.54,14-3.55 C 325.17,268.71,318.32,270.74,314.51,270.48Z" opacity="0.2"/>
    <path d="M 295.07,297.54 c -12.33-.33-23.33-7.33-30-19.9 C 268.07,292.71,281.6,300.9,295.07,297.54Z" opacity="0.4"/>
  </g>
<script type="text/ecmascript" xlink:href="param.min.js"/> 
</svg>
