<?xml version="1.0"?>
<svg xmlns="http://www.w3.org/2000/svg" xmlns:xlink="http://www.w3.org/1999/xlink" viewBox="0 0 600 600">
  <title>girl-power-slogan-hourglass</title>
  <g id="main-colour">
    <path d="M 329.77,272.58 l -1.31.12q-.49,1.89-1,3.77 c -.4,1.46,0,1.93.86,1.84 s 1.58-.67,2-2.12 c 1.13-3.66,2.21-7.32,3-11,.32-1.45-.21-2-1.2-1.9 s -1.7.65-2,2.11q-.21,1.1-.45,2.19 l -2.84.21q.19-1,.36-2 c .55-3.3,2.29-5.27,5.46-5.43 s 4.53,1.59,3.7,4.81 c -.88,3.49-2,7-3.19,10.5-1.09,3.23-3.09,5.23-5.68,5.53 s -3.44-1.41-2.62-4.71 c .55-2.18,1.07-4.35,1.53-6.53 l 4.13-.33Q330.17,271.12,329.77,272.58Z" fill="param(main_colour)"/>
    <path d="M 321.93,281.66 l -2.62.31 c 1.44-6.92,3-13.87,3.33-20.79 l 3.18-.18 C 325.29,267.88,323.56,274.78,321.93,281.66Z" fill="param(main_colour)"/>
    <path d="M 309.38,283.2 a 8.86,8.86,0,0,0,.54-2.61q.17-1.64.33-3.27 c .21-2.22.8-3.88,2.29-4.7-1.21-.58-1.7-2-1.62-4.15q0-.84,0-1.67 c 0-3.29,1.31-5,4.6-5.19 l 4.77-.29 c -.21,7-1.62,13.94-2.92,20.89 l -2.6.32 c .45-2.84.91-5.69,1.31-8.54 l -1,.09 c -1.29.12-1.92.9-2.16,2.87q-.2,1.66-.42,3.32 a 9.32,9.32,0,0,1-.57,2.62Z m 6.23-18.59 c -1.09.07-1.57.77-1.64,2.29q-.05,1-.13,2.09 c -.13,1.69.47,2.18,1.55,2.09 l 1.13-.1 c .26-2.15.46-4.31.57-6.46Z" fill="param(main_colour)"/>
    <path d="M 308,283.38 l -6.72.87q0-1.54,0-3.08 l 4.31-.52 a 123.31,123.31,0,0,0,.08-18.42 l 3.13-.2 C 309.29,269.16,308.57,276.29,308,283.38Z" fill="param(main_colour)"/>
    <path d="M 328,284.69 l 2.35-.3 A 128.9,128.9,0,0,0,326.84,297 l -1.38.25 c .31-1.58.67-3.16,1.07-4.74 l -.69.11 c -1.45.23-1.93-.76-1.44-2.79q.2-.83.41-1.65 C 325.34,286.1,326.43,284.89,328,284.69Z m -.54,1.81 c -.5.07-.85.39-1.1,1.3q-.26,1-.51,1.9 c -.24.9,0,1.16.42,1.08 l .7-.11 c .39-1.42.8-2.85,1.23-4.28Z" fill="param(main_colour)"/>
    <path d="M 322.72,294.76 c -.38,2-1.27,3.32-2.59,3.57 s -1.94-.79-1.67-2.84 c .3-2.22.68-4.45,1.11-6.68.4-2.06,1.5-3.35,3.05-3.55 s 2.09.85,1.57,2.89 C 323.64,290.35,323.14,292.55,322.72,294.76Z m 0-6.53 c .21-.91,0-1.22-.51-1.15 s -.88.46-1.08,1.38 c -.49,2.31-.93,4.61-1.27,6.92-.13.91.1,1.21.54,1.13 s .77-.47.92-1.38 C 321.68,292.83,322.16,290.53,322.69,288.23Z" fill="param(main_colour)"/>
    <path d="M 313.8,299.38 l -1.75.34 c -.27-4.27-.21-8.56-.06-12.89 l 1.35-.19 c -.19,3.43-.33,6.84-.28,10.23.43-3.48,1.09-7,1.86-10.45 l 1.5-.2 c -.32,3.38-.59,6.75-.68,10.1.57-3.44,1.37-6.88,2.27-10.32 l 1.52-.2 a 103.14,103.14,0,0,0-2.94,13 l -1.83.35 c -.05-2.26,0-4.53.09-6.81 C 314.41,294.72,314,297,313.8,299.38Z" fill="param(main_colour)"/>
    <path d="M 309.53,289 l -2.59.38q0-.95.1-1.89 l 4.18-.59 a 110.45,110.45,0,0,0-.75,13.09 l -3.54.7q-.06-.94-.09-1.88 l 2.3-.43q0-1.92.06-3.84 l -1.92.33q0-.94,0-1.88 l 2-.32Q309.38,290.87,309.53,289Z" fill="param(main_colour)"/>
    <path d="M 302.16,301.68 a 6.93,6.93,0,0,0,0-1.64q-.11-1-.19-2.05 c -.11-1.39.06-2.44.73-3-.64-.33-1-1.18-1-2.55q0-.53,0-1.05 c 0-2.07.63-3.18,2.2-3.41 l 2.29-.33 a 108.42,108.42,0,0,0,0,13.22 l -1.28.26 c -.16-1.79-.26-3.58-.31-5.38 l -.48.08 c -.62.11-.88.61-.81,1.85q.07,1,.16,2.08 a 7.21,7.21,0,0,1,0,1.65Z m 1.66-11.79 c -.52.08-.76.53-.75,1.49q0,.66,0,1.31 c 0,1.07.35,1.35.87,1.26 l .55-.09 c 0-1.36,0-2.72,0-4.08Z" fill="param(main_colour)"/>
  </g>
  <g id="fixed-colours">
    <path d="M 326.31,271.21 s -11.85-2-18.25,3.16 C 312.6,269.31,320.58,268.28,326.31,271.21Z" opacity="0.2"/>
    <path d="M 287.09,288.2 c 7.12.34,13.78-.82,20.78-6.32 C 304.11,288.81,294.11,291.43,287.09,288.2Z" opacity="0.4"/>
  </g>
<script type="text/ecmascript" xlink:href="param.min.js"/> 
</svg>
