<?xml version="1.0"?>
<svg xmlns="http://www.w3.org/2000/svg" xmlns:xlink="http://www.w3.org/1999/xlink" viewBox="0 0 600 600">
  <title>police-shoulder-patch-voluptuous</title>
  <g id="outline">
    <path d="M 267.65,223.57 a 11.06,11.06,0,0,1,5.65,4.64,36.17,36.17,0,0,0-4.64,5.65 s -14.11-3.09-23.19-.37 c 2-7.45,6.95-9.68,6.95-9.68 A 38.73,38.73,0,0,1,267.65,223.57Z"/>
    <path d="M 328.79,226.69 a 16.59,16.59,0,0,1,3.5-2.31 c 7-1.25,11.4.6,13.5,2.5 s 3.27,4.88,2.75,9.54 c -5-4.14-13.48-4.34-16.33-3.7 A 21.21,21.21,0,0,1,328.79,226.69Z"/>
  </g>
  <g id="misc-objects">
    <path d="M 258.72,227 a 10.9,10.9,0,0,1-6.08,2.42 c -3.21,0-.47-2.26.94-2.55-1-.75-.85-1.41.38-1.7 A 5.27,5.27,0,0,1,258.72,227Z" fill="#fff"/>
    <path d="M 338.63,227.36 a 9.62,9.62,0,0,0,4.74,3.29 c 2.76.64.86-1.85-.3-2.38,1-.44,1-1,0-1.54 A 4.65,4.65,0,0,0,338.63,227.36Z" fill="#fff"/>
  </g>
<script type="text/ecmascript" xlink:href="param.min.js"/> 
</svg>
