<?xml version="1.0"?>
<svg xmlns="http://www.w3.org/2000/svg" xmlns:xlink="http://www.w3.org/1999/xlink" viewBox="0 0 600 600">
  <title>sassy-slogan-hourglass</title>
  <g id="main-colour">
    <path d="M 296.77,266.69 l -1,0 c 0-1.2,0-2.4,0-3.59 a 1.17,1.17,0,0,0-.26-.74,1,1,0,0,0-.78-.3.92.92,0,0,0-.74.34,1.06,1.06,0,0,0-.2.75,17.6,17.6,0,0,0,.28,3,17.94,17.94,0,0,0,.56,2.34 c .22.69.46,1.36.72,2,.1.34.2.62.31.94 A 11.64,11.64,0,0,1,296,273 a 17.55,17.55,0,0,1,.34,1.9 c .09.67.08,1.46.11,2.34 a 2.33,2.33,0,0,1-.1.84,2.2,2.2,0,0,1-.36.65,2.59,2.59,0,0,1-.6.44,2.55,2.55,0,0,1-.84.18,1.75,1.75,0,0,1-1.41-.48,2,2,0,0,1-.55-1.45q0-1.81-.07-3.63 l 1,0q0,1.81.07,3.62 a 1.29,1.29,0,0,0,.23.74.89.89,0,0,0,.74.26.86.86,0,0,0,.7-.33,1.21,1.21,0,0,0,.19-.76,19.83,19.83,0,0,0-.27-3,17.6,17.6,0,0,0-.54-2.33 c -.18-.51-.32-1-.5-1.45 l -.55-1.45 a 12.4,12.4,0,0,1-.48-1.59,17.83,17.83,0,0,1-.38-1.92,22,22,0,0,1-.11-2.36,2.28,2.28,0,0,1,.12-.86,2.11,2.11,0,0,1,.39-.62,1.82,1.82,0,0,1,.63-.42,2.81,2.81,0,0,1,.88-.18,1.92,1.92,0,0,1,1.47.51,2.08,2.08,0,0,1,.59,1.48 C 296.77,264.29,296.78,265.49,296.77,266.69Z" fill="param(main_colour)"/>
    <path d="M 303.45,278.73 c -.17-1-.29-2-.38-3.05 l -1.27.06 c -.06,1-.09,2.05-.09,3.08 l -1,0 c 0-6,1.29-12,1.31-18 l 1,0 c 1,6,.39,11.93,1.36,17.86Z m -1.56-4.12,1.1,0 c -.18-2.41-.23-4.83-.34-7.25 C 302.38,269.74,302.07,272.18,301.88,274.61Z" fill="param(main_colour)"/>
    <path d="M 312.83,266.2 l -1,0 c 0-1.17.07-2.35,0-3.52 a 1.13,1.13,0,0,0-.27-.72,1,1,0,0,0-.77-.29.88.88,0,0,0-.72.33,1.06,1.06,0,0,0-.19.74,24.29,24.29,0,0,0,.21,2.94,18.88,18.88,0,0,0,.43,2.29 c .18.68.37,1.34.59,1.93.08.33.16.61.26.92 a 11.55,11.55,0,0,1,.36,1.58,18.58,18.58,0,0,1,.27,1.86 c .07.66,0,1.43.06,2.29 a 2.3,2.3,0,0,1-.1.82,2.19,2.19,0,0,1-.35.64,1.88,1.88,0,0,1-1.43.6,1.87,1.87,0,0,1-1.44-.47,2,2,0,0,1-.61-1.42 c 0-1.18,0-2.37,0-3.55 l 1,0 c 0,1.18-.06,2.37,0,3.55 a 1.24,1.24,0,0,0,.25.72.94.94,0,0,0,.75.25.86.86,0,0,0,.7-.32,1.16,1.16,0,0,0,.18-.74,25,25,0,0,0-.21-3,18.87,18.87,0,0,0-.43-2.28 c -.15-.5-.26-1-.41-1.42 l -.45-1.42 a 11.93,11.93,0,0,1-.37-1.56 c -.11-.57-.2-1.21-.27-1.88 s 0-1.47-.07-2.31 a 2.37,2.37,0,0,1,.1-.85,2,2,0,0,1,.36-.61,1.68,1.68,0,0,1,.6-.41,2.71,2.71,0,0,1,.86-.17,1.9,1.9,0,0,1,2.08,1.94 C 312.91,263.85,312.88,265,312.83,266.2Z" fill="param(main_colour)"/>
    <path d="M 321,266 l -1,0 c 0-1.16.08-2.32.06-3.48 a 1.1,1.1,0,0,0-.25-.72,1,1,0,0,0-.76-.29.88.88,0,0,0-.72.32,1,1,0,0,0-.2.73,22.85,22.85,0,0,0,.19,2.91,17.72,17.72,0,0,0,.42,2.26,19.59,19.59,0,0,0,.59,1.9 c .08.32.16.61.26.91 a 11,11,0,0,1,.37,1.56,16.82,16.82,0,0,1,.26,1.84 c .06.65,0,1.42,0,2.27 a 2.17,2.17,0,0,1-.13.81,2.28,2.28,0,0,1-.37.63,2.69,2.69,0,0,1-.61.42,2.6,2.6,0,0,1-.85.17,1.85,1.85,0,0,1-1.43-.46,1.9,1.9,0,0,1-.58-1.4 c 0-1.17,0-2.34.06-3.51 l 1,0 c -.05,1.17-.08,2.34-.06,3.51 a 1.2,1.2,0,0,0,.23.71.94.94,0,0,0,.75.25 A .9.9,0,0,0,319,277 a 1.16,1.16,0,0,0,.21-.73,21.13,21.13,0,0,0-.17-2.92,17.87,17.87,0,0,0-.42-2.26 c -.15-.5-.26-1-.41-1.41,0,0-.3-.93-.44-1.41 a 11.68,11.68,0,0,1-.37-1.54 c -.11-.57-.2-1.2-.26-1.86 s 0-1.45-.05-2.28 a 2.36,2.36,0,0,1,.11-.84,2,2,0,0,1,.36-.6,1.69,1.69,0,0,1,.61-.41,2.75,2.75,0,0,1,.86-.17,1.84,1.84,0,0,1,2,1.92 C 321.12,263.64,321.09,264.8,321,266Z" fill="param(main_colour)"/>
    <path d="M 329.26,260.26 c -.62,2.9-1.21,5.8-1.86,8.71-.1,2.88-.2,5.77-.25,8.65 l -1,0 c 0-2.89.14-5.79.25-8.68-.43-2.87-.81-5.75-1.42-8.63 l 1,0 c .4,2,.71,4,1,6,.44-2,.85-4,1.25-6Z" fill="param(main_colour)"/>
  </g>
<script type="text/ecmascript" xlink:href="param.min.js"/> 
</svg>
