<?xml version="1.0"?>
<svg xmlns="http://www.w3.org/2000/svg" xmlns:xlink="http://www.w3.org/1999/xlink" viewBox="0 0 600 600">
  <title>honey-slogan-slender</title>
  <g id="main-colour">
    <path d="M 335.57,273.05q0-.85,0-1.69 l .79-.08 c 0-1.13,0-2.25,0-3.38 l -3.08.31 c 0,1.13-.09,2.26-.1,3.39 l .79-.08 c 0,.57,0,1.13,0,1.69 l -3.13.33 c 0-.57,0-1.13,0-1.7 l .78-.08 c 0-2.83.34-5.67.19-8.51 l -.76.07 c 0-.57-.08-1.14-.16-1.7 l 3.06-.28 c .06.57.11,1.13.14,1.7 l -.76.07 c .06,1.13,0,2.27,0,3.4 l 3-.3 c 0-1.13,0-2.26,0-3.38 l -.76.07 c 0-.56-.06-1.13-.11-1.69 l 3.1-.28q0,.84,0,1.69 l -.76.07 c .07,2.82,0,5.63,0,8.44 l .79-.08q0,.84,0,1.68Z" fill="param(main_colour)"/>
    <path d="M 324.37,274.25q-.68-.62-1.31-1.24 c -.09-3.09.52-6.19.34-9.29q.58-.75,1.09-1.49 l 3.66-.35 c .48.42.93.83,1.37,1.25.21,3.07-.25,6.15-.25,9.22-.42.5-.82,1-1.21,1.5Z M 328,263.62 l -3.06.3 c .12,2.86-.37,5.73-.35,8.58 l 3.11-.33 C 327.72,269.33,328.16,266.48,328,263.62Z" fill="param(main_colour)"/>
    <path d="M 320.1,274.72 c -.36-2.76.06-5.52.2-8.28-1.43,2.89-3.16,5.79-4,8.71 l -1.5.17 c -.69-4,.37-8.1-.05-12.16 l 1.55-.15 c .31,2.78-.11,5.56-.2,8.33,1.37-2.91,3.15-5.81,4.06-8.7 l 1.54-.15 c .56,4-.58,8-.11,12.06Z" fill="param(main_colour)"/>
    <path d="M 307.38,276.18 c -.11-.58-.19-1.17-.25-1.75 l 4.49-.51 a 29.62,29.62,0,0,1,0-3.48 l -3.06.33 c 0-.58,0-1.17,0-1.75 l 3.1-.32 c .06-1.16.11-2.33.1-3.49 l -4.72.46 c 0-.58,0-1.17-.08-1.75 l 6.28-.6 c .39,4.06-.62,8.13.11,12.18Z" fill="param(main_colour)"/>
    <path d="M 303.2,270.46 a 43.61,43.61,0,0,0,.47,6.16 l -1.5.18 a 56.73,56.73,0,0,1-.48-6.17q-1.62-2.92-3.46-5.87 l 1.59-.16q1.37,2.21,2.58,4.4 c .73-1.62,1.5-3.24,2.19-4.86 l 1.58-.15 C 305.26,266.13,304.16,268.29,303.2,270.46Z" fill="param(main_colour)"/>
  </g>
  <g id="fixed-colours">
    <path d="M 292.14,285.38 c 6.87,2.13,15.94,1.39,21.83-3.67 C 309.22,289.38,297.38,289.89,292.14,285.38Z" opacity="0.4"/>
    <path d="M 328.57,271.59 s -10.9-.76-16.2,4.54 C 316,271.13,323.12,269.47,328.57,271.59Z" opacity="0.2"/>
    <path d="M 316.61,269.16 a 8.63,8.63,0,0,0,8.33-2.12 A 20,20,0,0,1,316.61,269.16Z" opacity="0.2"/>
  </g>
<script type="text/ecmascript" xlink:href="param.min.js"/> 
</svg>
