<?xml version="1.0"?>
<svg xmlns="http://www.w3.org/2000/svg" xmlns:xlink="http://www.w3.org/1999/xlink" viewBox="0 0 250 250">
  <title>voluptuous-bottoms-template</title>
  <g id="skin-tone">
    <path d="M 86.56,125 a 79.24,79.24,0,0,0,5.15,28,304.42,304.42,0,0,0,27,54.44 c 2.89,6.36,7,9.79,8.39,10.47 h 0 a 12.48,12.48,0,0,0,15,4.14 c 8.58-2.42,8-9.38,10.8-18.2 s 6.83-29.67,8.67-46.17 a 290.86,290.86,0,0,0,1.9-32.67Z" fill="param(skin_tone)"/>
  </g>
  <g id="outline">
    <path d="M 163.44,125 c 0,16.18-5.4,52.38-6.95,61.83-2.11,12.92-5.44,25.66-8.69,30.63 A 14,14,0,0,1,142,222 c 5.76-.8,8.78-4.81,12.44-15.47,5.21-17.58,7.28-38.9,8.95-54.07,1-9,1.77-16.35,1.33-21.12 A 36.46,36.46,0,0,0,163.44,125Z"/>
    <path d="M 98.9,167.53 c -10.49-24-12.29-39.22-12.34-42.06v-.19 c 0-.17,0-.26,0-.27 h 0 c -2.06,1.41-1.7,5.37-1.7,5.37 h 0 c 1.86,17.71,11.49,39.15,17.05,49.76,6.7,12.78,19.09,35.46,25.15,37.78 C 121.32,210.94,108.14,188.63,98.9,167.53Z"/>
  </g>
<script type="text/ecmascript" xlink:href="param.min.js"/> 
</svg>
