<?xml version="1.0"?>
<svg xmlns="http://www.w3.org/2000/svg" xmlns:xlink="http://www.w3.org/1999/xlink" viewBox="0 0 600 600">
  <title>honey-slogan-slender</title>
  <g id="main-colour">
    <path d="M 299.06,276.36q-.05-.89-.09-1.77 l .74-.06 c -.15-3-.21-5.91-.34-8.86 l -.8,0-.09-1.77,3.2-.19q.05.88.07,1.77 l -.8,0 c 0,1.18.06,2.36.07,3.54 l 3.08-.21 c 0-1.18.05-2.35,0-3.53 l -.79,0 c 0-.59,0-1.18-.07-1.76 l 3.17-.19 c 0,.59.07,1.17.08,1.76 l -.79,0 c 0,2.94-.28,5.87-.09,8.8 l .75-.06 c 0,.59.1,1.17.2,1.76 l -3,.23 c -.08-.59-.13-1.18-.17-1.76 l .74-.06 c -.08-1.17-.09-2.35-.07-3.52 l -3,.22 c 0,1.18.05,2.36.12,3.54 l .74-.06 c 0,.59.09,1.18.15,1.77Z" fill="param(main_colour)"/>
    <path d="M 309.28,275.56 c -.48-.44-.93-.87-1.37-1.31-.26-3.16.26-6.32.19-9.48.41-.49.81-1,1.18-1.48 l 3.75-.22q.71.66,1.35,1.32 c .1,3.14-.66,6.28-.46,9.41-.37.49-.72,1-1,1.48Z m .1-1.77,3-.22 c -.14-2.91.46-5.82.43-8.73 l -3.14.19 C 309.7,267.95,309.2,270.87,309.38,273.79Z" fill="param(main_colour)"/>
    <path d="M 315.58,275.07 c -.66-4.05.78-8.12.25-12.17 l 1.55-.09 c 1.67,2.7,2.41,5.4,3.48,8.07.23-2.76.8-5.53.38-8.3 l 1.54-.09 c .62,4-.84,8.05-.38,12.07 l -1.52.11 c -1.63-2.66-2.37-5.35-3.44-8-.21,2.78-.77,5.56-.34,8.33Z" fill="param(main_colour)"/>
    <path d="M 323.92,274.45 c -.4-4,1-8,.39-12 l 6.14-.35 c .07.57.11,1.14.13,1.71 L 326,264 a 26.8,26.8,0,0,1-.16,3.44 l 3.09-.2 c 0,.57-.11,1.14-.16,1.71 l -3.11.2 c -.12,1.15-.23,2.29-.25,3.43 l 4.68-.33 c 0,.57,0,1.14,0,1.71Z" fill="param(main_colour)"/>
    <path d="M 331.2,262 l 1.54-.09 a 42.67,42.67,0,0,1,2.32,4.32 c .83-1.53,1.58-3.06,2.32-4.58 l 1.56-.09 c -1.07,2-2.06,4.06-3.19,6.11-.1,2-.21,4-.21,5.93 l -1.57.11 c 0-2,.13-4,.25-5.94 A 48.36,48.36,0,0,0,331.2,262Z" fill="param(main_colour)"/>
  </g>
  <g id="fixed-colours">
    <path d="M 292.14,285.38 c 6.87,2.13,15.94,1.39,21.83-3.67 C 309.22,289.38,297.38,289.89,292.14,285.38Z" opacity="0.4"/>
    <path d="M 328.57,271.59 s -10.9-.76-16.2,4.54 C 316,271.13,323.12,269.47,328.57,271.59Z" opacity="0.2"/>
    <path d="M 316.61,269.16 a 8.63,8.63,0,0,0,8.33-2.12 A 20,20,0,0,1,316.61,269.16Z" opacity="0.2"/>
  </g>
<script type="text/ecmascript" xlink:href="param.min.js"/> 
</svg>
