<?xml version="1.0"?>
<svg xmlns="http://www.w3.org/2000/svg" xmlns:xlink="http://www.w3.org/1999/xlink" viewBox="0 0 600 600">
  <title>sassy-slogan-hourglass</title>
  <g id="main-colour">
    <path d="M 329.62,260.81 a 2.07,2.07,0,0,1,.37-1.49,1.86,1.86,0,0,1,1.35-.68,2.88,2.88,0,0,1,.89.05,1.74,1.74,0,0,1,.67.32,1.8,1.8,0,0,1,.44.54,2.06,2.06,0,0,1,.2.8,18.19,18.19,0,0,1,.08,2.24,15.89,15.89,0,0,1-.23,1.87 A 12,12,0,0,1,333,266 c -.15.5-.47,1.47-.47,1.47-.16.47-.28.94-.44,1.46 a 16.87,16.87,0,0,0-.46,2.31,14.5,14.5,0,0,0-.1,2.91,1,1,0,0,0,.26.68.87.87,0,0,0,.76.18,1.08,1.08,0,0,0,.75-.38,1.25,1.25,0,0,0,.18-.74q-.09-1.72-.17-3.44 l 1-.13q.09,1.72.19,3.43 a 2,2,0,0,1-.47,1.47,2.13,2.13,0,0,1-1.42.71,2.78,2.78,0,0,1-.89,0,2.5,2.5,0,0,1-.67-.3,1.85,1.85,0,0,1-.44-.55,1.88,1.88,0,0,1-.18-.78,17,17,0,0,1,0-2.25,14.86,14.86,0,0,1,.28-1.88,12.09,12.09,0,0,1,.41-1.61 c .11-.32.2-.61.29-.94 a 20.08,20.08,0,0,0,.63-2,15.59,15.59,0,0,0,.42-2.31,14.16,14.16,0,0,0,0-2.89,1,1,0,0,0-.27-.69.88.88,0,0,0-.75-.22,1,1,0,0,0-.71.39,1.17,1.17,0,0,0-.16.74 c .1,1.15.17,2.29.22,3.43 l -1,.12 C 329.8,263.1,329.73,262,329.62,260.81Z" fill="param(main_colour)"/>
    <path d="M 322.56,277.14 c -.19-5.87,1.11-11.77.58-17.64 l 1-.11 c 1.39,5.77,1.16,11.52,2.18,17.24 l -1,.14 c -.17-1-.31-2-.43-2.94 l -1.31.18 c 0,1-.05,2,0,3Z m 1.58-11.4 c -.14,2.39-.39,4.77-.53,7.15 l 1.13-.15 C 324.5,270.42,324.36,268.08,324.14,265.74Z" fill="param(main_colour)"/>
    <path d="M 313.84,262.71 a 2.19,2.19,0,0,1,.38-1.52,1.84,1.84,0,0,1,1.34-.7,2.83,2.83,0,0,1,.89.05,1.82,1.82,0,0,1,.69.32,2,2,0,0,1,.47.55,2.08,2.08,0,0,1,.23.82,13.82,13.82,0,0,1,.09,2.29,13.68,13.68,0,0,1-.29,1.91,11.82,11.82,0,0,1-.45,1.62 l -.54,1.5 c -.18.48-.32,1-.5,1.49 a 14.68,14.68,0,0,0-.5,2.36,12.17,12.17,0,0,0,0,3,1.08,1.08,0,0,0,.29.69.85.85,0,0,0,.75.18,1,1,0,0,0,.7-.39,1.35,1.35,0,0,0,.14-.75 c -.1-1.17-.15-2.34-.17-3.51 l 1-.14 c 0,1.17.06,2.34.16,3.5 a 2.17,2.17,0,0,1-.38,1.5,1.84,1.84,0,0,1-1.32.73,1.95,1.95,0,0,1-1.54-.32,1.86,1.86,0,0,1-.69-1.35,13.77,13.77,0,0,1-.1-2.3,12.94,12.94,0,0,1,.28-1.92,11.21,11.21,0,0,1,.44-1.65 c .12-.32.22-.62.32-1,.26-.63.5-1.32.72-2 a 15,15,0,0,0,.51-2.36,12.05,12.05,0,0,0,.05-3,1,1,0,0,0-.29-.7.9.9,0,0,0-.76-.22,1,1,0,0,0-.71.4,1.23,1.23,0,0,0-.16.76 c .1,1.17.15,2.34.17,3.51 l -1,.13 C 314,265.05,313.94,263.88,313.84,262.71Z" fill="param(main_colour)"/>
    <path d="M 305.49,263.73 a 2.2,2.2,0,0,1,.41-1.54,1.93,1.93,0,0,1,1.38-.71,2.85,2.85,0,0,1,.9,0,1.78,1.78,0,0,1,.68.32,1.91,1.91,0,0,1,.46.55,2.11,2.11,0,0,1,.21.83,15.27,15.27,0,0,1,.07,2.32,14.91,14.91,0,0,1-.29,1.93,12.43,12.43,0,0,1-.43,1.64 l -.51,1.52 c -.17.49-.3,1-.46,1.51 a 14.5,14.5,0,0,0-.42,2.38,12.71,12.71,0,0,0,.06,3,1.12,1.12,0,0,0,.31.7.84.84,0,0,0,.75.18.92.92,0,0,0,.68-.4,1.37,1.37,0,0,0,.11-.76 c -.14-1.18-.22-2.36-.28-3.55 l 1-.14 c 0,1.18.12,2.36.26,3.54 a 2.18,2.18,0,0,1-.32,1.51,1.74,1.74,0,0,1-1.28.74,2.49,2.49,0,0,1-.86,0,2.59,2.59,0,0,1-.68-.31,2,2,0,0,1-.72-1.37,14.67,14.67,0,0,1-.17-2.32,13.13,13.13,0,0,1,.21-1.94,11.07,11.07,0,0,1,.39-1.66 c .11-.33.2-.63.29-1,.24-.64.47-1.33.67-2.05 a 16.57,16.57,0,0,0,.48-2.38,13.44,13.44,0,0,0,.07-3,1,1,0,0,0-.28-.71.9.9,0,0,0-.77-.22,1,1,0,0,0-.73.4,1.23,1.23,0,0,0-.18.77 c .09,1.18.15,2.36.18,3.55 l -1,.13 C 305.64,266.1,305.58,264.91,305.49,263.73Z" fill="param(main_colour)"/>
    <path d="M 297.94,262.52 c .59,2,1.16,4.08,1.68,6.11.23-2.13.46-4.26.63-6.39 l 1-.12 c -.25,3.06-.64,6.12-1,9.19.2,3,.4,6,.84,9 l -1,.14 c -.41-3-.63-6-.85-9-.74-2.93-1.55-5.87-2.41-8.82Z" fill="param(main_colour)"/>
  </g>
  <g id="fixed-colours">
    <path d="M 326.31,271.21 s -11.85-2-18.25,3.16 C 312.6,269.31,320.58,268.28,326.31,271.21Z" opacity="0.2"/>
    <path d="M 287.09,288.2 c 7.12.34,13.78-.82,20.78-6.32 C 304.11,288.81,294.11,291.43,287.09,288.2Z" opacity="0.4"/>
  </g>
<script type="text/ecmascript" xlink:href="param.min.js"/> 
</svg>
