<?xml version="1.0"?>
<svg xmlns="http://www.w3.org/2000/svg" xmlns:xlink="http://www.w3.org/1999/xlink" viewBox="0 0 600 600">
  <title>honey-slogan-slender</title>
  <g id="main-colour">
    <path d="M 301.88,277.43q-.07-.9-.12-1.81 l .76-.07 c -.2-3-.29-6-.46-9 l -.81.06-.11-1.81,3.27-.25q.06.9.09,1.81 l -.81.06 c .05,1.21.08,2.41.12,3.61 l 3.14-.27 c 0-1.2,0-2.4,0-3.6 l -.81.06 c 0-.6,0-1.2-.08-1.8 l 3.24-.25 c 0,.6.07,1.2.08,1.8 l -.81.06 c .06,3-.2,6,0,9 l .76-.07 c 0,.6.12,1.2.21,1.79 l -3.06.29 c -.09-.6-.15-1.2-.2-1.8 l .76-.07 c -.1-1.2-.12-2.4-.13-3.6 l -3.08.28 c 0,1.2.09,2.41.18,3.61 l .76-.07 c 0,.6.1,1.2.18,1.8Z" fill="param(main_colour)"/>
    <path d="M 312.3,276.43 c -.49-.44-1-.88-1.4-1.32-.29-3.22.14-6.45.06-9.68.42-.51.83-1,1.21-1.53 l 3.84-.29q.71.66,1.37,1.33 c .1,3.2-.56,6.41-.34,9.61q-.57.77-1.07,1.54Z m .09-1.82,3.07-.28 c -.17-3,.35-5.94.32-8.91 l -3.21.25 C 312.61,268.65,312.19,271.63,312.39,274.61Z" fill="param(main_colour)"/>
    <path d="M 318.73,275.82 c -.63-4.13.63-8.28.14-12.43 l 1.58-.12 a 56.07,56.07,0,0,1,3.66,8.17 c .19-2.82.68-5.65.28-8.47 l 1.57-.12 c .59,4.11-.68,8.22-.26,12.32 l -1.56.14 a 58.2,58.2,0,0,1-3.62-8.15 c -.17,2.84-.65,5.67-.25,8.5Z" fill="param(main_colour)"/>
    <path d="M 327.26,275 c -.36-4.09.86-8.2.26-12.3 l 6.26-.47 c .08.58.12,1.16.14,1.74 l -4.68.36 a 30.16,30.16,0,0,1-.11,3.51 l 3.15-.25 c 0,.58-.08,1.16-.13,1.75 l -3.18.26 c -.1,1.17-.2,2.34-.21,3.51 l 4.79-.41 c 0,.58,0,1.16,0,1.74Z" fill="param(main_colour)"/>
    <path d="M 334.55,262.21 l 1.57-.11 a 48.22,48.22,0,0,1,2.43,4.38 c .82-1.58,1.56-3.15,2.3-4.72 l 1.59-.11 c -1.06,2.09-2,4.18-3.16,6.29-.06,2-.14,4-.13,6.05 l -1.61.14 c 0-2,.08-4,.17-6.07 A 54.82,54.82,0,0,0,334.55,262.21Z" fill="param(main_colour)"/>
  </g>
  <g id="fixed-colours">
    <path d="M 289.35,285.05 A 29.19,29.19,0,0,0,311,289.76 C 304.17,293.63,294,291.6,289.35,285.05Z" opacity="0.4"/>
    <path d="M 332.15,270.58 s -13.31-.92-19.78,5.55 C 316.81,270,325.49,268,332.15,270.58Z" opacity="0.2"/>
    <path d="M 317.55,267.62 A 10.54,10.54,0,0,0,327.71,265 C 325.31,266.33,320.32,267.81,317.55,267.62Z" opacity="0.2"/>
  </g>
<script type="text/ecmascript" xlink:href="param.min.js"/> 
</svg>
