<?xml version="1.0"?>
<svg xmlns="http://www.w3.org/2000/svg" xmlns:xlink="http://www.w3.org/1999/xlink" viewBox="0 0 600 600">
  <title>honey-slogan-curvy</title>
  <g id="main-colour">
    <path d="M 291.37,280.48q-.08-1.1-.14-2.2 l .92-.09 c -.23-3.66-.34-7.33-.54-11 l -1,.08q-.06-1.1-.13-2.2 l 4-.3q.07,1.1.11,2.19 l -1,.08 c .06,1.46.1,2.93.13,4.39 l 3.81-.32 c 0-1.46,0-2.92,0-4.38 l -1,.08 c 0-.73-.05-1.46-.1-2.19 l 3.94-.29 c .05.73.08,1.46.1,2.18 l -1,.07 c .07,3.64-.26,7.28,0,10.92 l .93-.08 c .06.73.14,1.45.26,2.18 L 297,280 c -.1-.73-.18-1.46-.23-2.19 l .92-.08 c -.11-1.46-.14-2.91-.15-4.37 l -3.74.32 c 0,1.46.1,2.93.21,4.39 l .92-.09 c .05.73.12,1.46.21,2.19Z" fill="param(main_colour)"/>
    <path d="M 304,279.3 c -.59-.53-1.16-1.07-1.71-1.6-.35-3.91.2-7.84.1-11.76.51-.62,1-1.24,1.47-1.86 l 4.66-.34q.87.81,1.67,1.62 c .12,3.89-.7,7.79-.44,11.67q-.69.93-1.3,1.86Z m .12-2.21,3.74-.34 c -.2-3.6.45-7.22.41-10.83 l -3.9.3 C 304.43,269.85,303.9,273.48,304.15,277.1Z" fill="param(main_colour)"/>
    <path d="M 311.84,278.58 c -.77-5,.8-10.07.19-15.1 l 1.92-.14 c 2,3.33,3.05,6.65,4.43,9.94.24-3.43.85-6.86.36-10.29 l 1.91-.14 c .73,5-.85,10-.34,15 l -1.89.17 c -2-3.28-3-6.58-4.38-9.91-.22,3.45-.82,6.89-.32,10.33Z" fill="param(main_colour)"/>
    <path d="M 322.21,277.65 c -.45-5,1.08-10,.35-14.94 l 7.61-.55 c .09.71.14,1.41.17,2.12 l -5.69.42 a 36,36,0,0,1-.14,4.26 l 3.83-.3 c 0,.71-.11,1.42-.16,2.12 l -3.86.31 c -.13,1.42-.25,2.84-.26,4.26 l 5.81-.49 c 0,.71,0,1.41,0,2.12Z" fill="param(main_colour)"/>
    <path d="M 331.09,262.1,333,262 a 57.7,57.7,0,0,1,2.95,5.33 c 1-1.92,1.9-3.83,2.81-5.73 l 1.93-.13 c -1.29,2.53-2.49,5.07-3.85,7.63-.08,2.45-.18,4.91-.17,7.36 l -2,.16 c 0-2.46.11-4.91.22-7.37 A 65.62,65.62,0,0,0,331.09,262.1Z" fill="param(main_colour)"/>
  </g>
  <g id="fixed-colours">
    <path d="M 304.23,283.15 c -8.46,4.78-13.95,5.54-21.42,5 C 289.71,291.7,299.52,289.12,304.23,283.15Z" opacity="0.4"/>
    <path d="M 331.9,273.4 s -15.54-1.08-23.09,6.48 C 314,272.76,324.13,270.38,331.9,273.4Z" opacity="0.2"/>
    <path d="M 314.85,269.95 a 12.31,12.31,0,0,0,11.87-3 C 323.91,268.44,318.09,270.17,314.85,269.95Z" opacity="0.2"/>
  </g>
<script type="text/ecmascript" xlink:href="param.min.js"/> 
</svg>
