<?xml version="1.0"?>
<svg xmlns="http://www.w3.org/2000/svg" xmlns:xlink="http://www.w3.org/1999/xlink" viewBox="0 0 250 250">
  <title>three-quarter-jeans-curvy</title>
  <g id="main-colour">
    <path d="M 157.85,125 H 92.15 c -.76,3.78-.6,3.34,0,6.14,3.25,15.12,7.41,32.58,12.91,44.33 s 21.86,33.05,25.15,42.23 h 0 a 10.05,10.05,0,0,0,18.54-.22 h .74 s 2-4.1,3.78-16.51,4.61-27.58,5.32-39.33.56-18.63.48-28.71 A 22.6,22.6,0,0,0,157.85,125Z" fill="param(main_colour)"/>
  </g>
  <g id="fixed-colours">
    <path d="M 94.8,127.4 s 2.5,20.33,11.08,39.33 c 7.52,16.65,11.06,21,13.67,25,3.75,5.88,9.83,14.71,11.13,21.5-2.12-6.37-8.62-16.21-11.5-20.5-2.16-3.23-12.87-19.5-18.37-36.5 S 94.8,127.4,94.8,127.4Z" opacity="0.5"/>
    <g opacity="0.6">
      <polygon points="95.92 127.65 96.01 128.14 96 128.14 95.92 127.65" fill="#fff"/>
      <polygon points="96.28 129.62 96.48 130.6 96.42 130.61 96.24 129.63 96.28 129.62" fill="#fff"/>
      <polygon points="96.77 132.08 96.98 133.06 96.86 133.08 96.68 132.1 96.77 132.08" fill="#fff"/>
      <polygon points="97.29 134.54 97.5 135.52 97.34 135.55 97.15 134.56 97.29 134.54" fill="#fff"/>
      <polygon points="97.83 136.99 98.06 137.97 97.84 138.01 97.64 137.03 97.83 136.99" fill="#fff"/>
      <polygon points="98.4 139.43 98.63 140.41 98.37 140.47 98.15 139.49 98.4 139.43" fill="#fff"/>
      <polygon points="98.97 141.88 99.21 142.85 98.94 142.92 98.71 141.94 98.97 141.88" fill="#fff"/>
      <rect x="99.42" y="144.33" width="0.29" height="1.01" transform="translate(-32.86 29.28) rotate(-14.39)" fill="#fff"/>
      <polygon points="100.21 146.74 100.47 147.71 100.17 147.79 99.92 146.82 100.21 146.74" fill="#fff"/>
      <rect x="100.69" y="149.19" width="0.33" height="1.01" transform="translate(-37.18 33.4) rotate(-15.92)" fill="#fff"/>
      <rect x="101.38" y="151.6" width="0.34" height="1.01" transform="translate(-39.65 35.87) rotate(-16.81)" fill="#fff"/>
      <rect x="102.11" y="154.01" width="0.36" height="1.01" transform="translate(-42.36 38.7) rotate(-17.81)" fill="#fff"/>
      <rect x="102.89" y="156.4" width="0.38" height="1.01" transform="translate(-45.39 42.01) rotate(-18.96)" fill="#fff"/>
      <polygon points="103.93 158.73 104.28 159.68 103.9 159.82 103.56 158.87 103.93 158.73" fill="#fff"/>
      <polygon points="104.82 161.08 105.19 162.01 104.8 162.17 104.43 161.23 104.82 161.08" fill="#fff"/>
      <polygon points="105.78 163.4 106.18 164.32 105.78 164.5 105.38 163.57 105.78 163.4" fill="#fff"/>
      <polygon points="106.8 165.69 107.22 166.61 106.81 166.8 106.39 165.88 106.8 165.69" fill="#fff"/>
      <rect x="107.63" y="168.02" width="0.47" height="1.01" transform="translate(-61.86 62.55) rotate(-25.4)" fill="#fff"/>
      <polygon points="108.95 170.24 109.39 171.15 108.95 171.36 108.51 170.45 108.95 170.24" fill="#fff"/>
      <rect x="109.82" y="172.55" width="0.49" height="1.01" transform="translate(-65.59 67.19) rotate(-26.47)" fill="#fff"/>
      <rect x="110.98" y="174.8" width="0.47" height="1.01" transform="translate(-67.92 70.37) rotate(-27.25)" fill="#fff"/>
      <rect x="112.16" y="177.03" width="0.46" height="1.01" transform="translate(-70.31 73.75) rotate(-28.06)" fill="#fff"/>
      <rect x="113.38" y="179.24" width="0.44" height="1.01" transform="translate(-72.74 77.33) rotate(-28.91)" fill="#fff"/>
      <rect x="114.63" y="181.43" width="0.42" height="1.01" transform="translate(-75.24 81.15) rotate(-29.81)" fill="#fff"/>
      <rect x="115.92" y="183.6" width="0.4" height="1.01" transform="translate(-77.8 85.26) rotate(-30.75)" fill="#fff"/>
      <rect x="117.25" y="185.75" width="0.38" height="1.01" transform="translate(-80.43 89.66) rotate(-31.75)" fill="#fff"/>
      <rect x="118.61" y="187.87" width="0.36" height="1.01" transform="translate(-83.1 94.38) rotate(-32.8)" fill="#fff"/>
      <rect x="120.01" y="189.97" width="0.35" height="1.01" transform="translate(-85.83 99.45) rotate(-33.91)" fill="#fff"/>
      <polygon points="121.46 192.04 122.03 192.87 121.76 193.06 121.19 192.23 121.46 192.04" fill="#fff"/>
      <polygon points="122.85 194.14 123.38 195 123.12 195.16 122.59 194.31 122.85 194.14" fill="#fff"/>
      <rect x="124.15" y="196.3" width="0.29" height="1" transform="matrix(0.86, -0.51, 0.51, 0.86, -82.68, 90.31)" fill="#fff"/>
      <rect x="125.42" y="198.47" width="0.27" height="1" transform="translate(-81.32 86.92) rotate(-29.31)" fill="#fff"/>
      <rect x="126.64" y="200.67" width="0.25" height="1.01" transform="translate(-79.85 83.49) rotate(-28.12)" fill="#fff"/>
      <polygon points="127.81 202.9 128.26 203.8 128.08 203.89 127.61 203 127.81 202.9" fill="#fff"/>
      <polygon points="128.91 205.17 129.33 206.09 129.2 206.15 128.76 205.24 128.91 205.17" fill="#fff"/>
      <polygon points="129.94 207.47 130.31 208.41 130.23 208.44 129.83 207.52 129.94 207.47" fill="#fff"/>
      <polygon points="130.83 209.83 131.13 210.79 131.09 210.8 130.77 209.85 130.83 209.83" fill="#fff"/>
      <polygon points="131.42 212.28 131.42 212.77 131.41 212.28 131.42 212.28" fill="#fff"/>
    </g>
  </g>
  <g id="outline">
    <path d="M 159.83,136 a 43.82,43.82,0,0,0-1.95-11,309.44,309.44,0,0,1,0,31.72 c -1,21.67-6.42,49-7.35,53.91-1,5.24-4.17,10.43-6.22,11.89,8.1-2.47,8.95-11.8,13.37-41.8 A 224.75,224.75,0,0,0,159.83,136Z"/>
    <path d="M 100.66,162.22 h 0 A 149.42,149.42,0,0,1,92.15,125 a 9.06,9.06,0,0,0-1.6,2.86 c -.56,1.9.16,6.92.15,6.92,1.09,7.35,2.73,13.12,7.49,26.77.22.63.44,1.25.67,1.88 h 0 s 10.09,23.05,19.84,36.22 c 9.35,12.63,11.5,18.05,11.5,18.05 a 23.91,23.91,0,0,0-3.67-10.3 C 123.21,202.23,109,181.65,100.66,162.22Z"/>
  </g>
<script type="text/ecmascript" xlink:href="param.min.js"/> 
</svg>
