<?xml version="1.0"?>
<svg xmlns="http://www.w3.org/2000/svg" xmlns:xlink="http://www.w3.org/1999/xlink" viewBox="0 0 600 600">
  <title>honey-slogan-curvy</title>
  <g id="main-colour">
    <path d="M 342.52,279.38q0-1.07,0-2.14 l 1-.11 c 0-1.42,0-2.85,0-4.27 l -3.9.43 c 0,1.43-.08,2.86-.08,4.29 l 1-.11 c 0,.71,0,1.43,0,2.14 l -4,.46 c 0-.72,0-1.43,0-2.15 l 1-.11 c 0-3.58.35-7.17.13-10.76 l -1,.1 c 0-.72-.12-1.44-.22-2.15 l 3.87-.4 c .09.72.15,1.43.19,2.15 l -1,.1 c .09,1.43.09,2.86.07,4.3 l 3.85-.42 c 0-1.43,0-2.85-.09-4.28 l -1,.1 c 0-.71-.09-1.43-.16-2.14 l 3.92-.4q.05,1.07.08,2.13 l -1,.1 c .12,3.56.1,7.12.17,10.67 l 1-.11q0,1.06,0,2.13Z" fill="param(main_colour)"/>
    <path d="M 328.33,281.05q-.85-.77-1.66-1.55 c -.13-3.91.56-7.82.32-11.74q.72-1,1.37-1.9 l 4.63-.49 c .6.52,1.18,1,1.74,1.56.29,3.89-.22,7.77-.19,11.65-.52.64-1,1.27-1.52,1.91Z m 4.5-13.48 L 329,268 c .18,3.62-.37,7.24-.33,10.85 l 3.94-.46 C 332.56,274.78,333,271.18,332.83,267.57Z" fill="param(main_colour)"/>
    <path d="M 322.93,281.71 c -.45-3.48,0-7,.16-10.47-1.77,3.67-3.9,7.36-4.93,11.06 l -1.9.24 c -.87-5.11.34-10.24-.18-15.37 l 2-.21 c .38,3.51-.09,7-.16,10.53,1.7-3.7,3.89-7.39,5-11.05 l 1.94-.21 c .69,5.09-.61,10.18,0,15.25Z" fill="param(main_colour)"/>
    <path d="M 306.84,283.74 c -.14-.74-.25-1.47-.33-2.21 l 5.67-.71 a 39.32,39.32,0,0,1-.1-4.4 l -3.88.46 c 0-.74,0-1.48,0-2.21 l 3.92-.45 c .06-1.47.11-2.94.08-4.41 l -6,.65 c 0-.74-.05-1.48-.11-2.22 l 7.94-.85 c .48,5.14-.66,10.28.26,15.4Z" fill="param(main_colour)"/>
    <path d="M 301.49,276.57 a 56.48,56.48,0,0,0,.67,7.78 l -1.89.24 a 72.79,72.79,0,0,1-.68-7.8 c -1.39-2.44-2.86-4.9-4.43-7.37 l 2-.22q1.74,2.77,3.3,5.53 c .9-2.07,1.86-4.13,2.73-6.18 l 2-.22 C 304,271.07,302.68,273.82,301.49,276.57Z" fill="param(main_colour)"/>
  </g>
  <g id="fixed-colours">
    <path d="M 336,274.9 s -19.14-1.33-28.44,8 C 313.95,274.11,326.44,271.18,336,274.9Z" opacity="0.2"/>
    <path d="M 315,270.65 s 8.24,2.66,14.62-3.72 C 326.18,268.79,319,270.92,315,270.65Z" opacity="0.2"/>
    <path d="M 270.79,277.64 c 4.78,15.74,15.94,21.74,29.11,19.57 C 288.4,295.88,278.75,293,270.79,277.64Z" opacity="0.4"/>
  </g>
<script type="text/ecmascript" xlink:href="param.min.js"/> 
</svg>
