<?xml version="1.0"?>
<svg xmlns="http://www.w3.org/2000/svg" xmlns:xlink="http://www.w3.org/1999/xlink" viewBox="0 0 600 600">
  <title>love-slogan-curvy</title>
  <g id="main-colour">
    <path d="M 337.16,273.88 l .62-.07 a 4.6,4.6,0,0,0,.85,3.07,2.77,2.77,0,0,0,2.67.83 l 2.58-.3 c -.11-4.45.21-8.92-.21-13.38 l -2,.21q0-.25-.06-.5 l 6.49-.67,0,.49-1.94.2 c .3,4.45.17,8.91.29,13.35 l 2-.23v.49 l -11.1,1.3 C 337.21,277.08,337.17,275.48,337.16,273.88Z" fill="param(main_colour)"/>
    <path d="M 323.53,273 a 10.69,10.69,0,0,1,2-5.59,5.65,5.65,0,0,1,4-2.74,5.34,5.34,0,0,1,4.49,1.83,6.66,6.66,0,0,1,1.8,5.1,9.8,9.8,0,0,1-2,5.53,6.1,6.1,0,0,1-4.16,2.78,5,5,0,0,1-4.4-1.77 A 6.58,6.58,0,0,1,323.53,273Z m 2.77,2.29 a 4.84,4.84,0,0,0,.8,3.27,2.57,2.57,0,0,0,2.49.85 A 3,3,0,0,0,332,278 a 7.21,7.21,0,0,0,.84-3.44 c .08-1.74.2-3.48.23-5.22 a 4.89,4.89,0,0,0-.88-3.27,2.74,2.74,0,0,0-2.54-.88,2.87,2.87,0,0,0-2.32,1.41,7.88,7.88,0,0,0-.74,3.46 C 326.51,271.83,326.37,273.58,326.31,275.33Z" fill="param(main_colour)"/>
    <path d="M 311.21,267.55q0-.26,0-.51 l 4.33-.47q0,.25,0,.51 l -2.07.23 c 1.36,3.34,2.16,6.68,3.3,10,1-3.58,2.61-7.16,3.44-10.73 l -2,.22q0-.25,0-.51 l 6.24-.68q0,.25.06.5 l -1.63.18 c -1.1,5-3.8,10-4.46,15.1 l -.57.07 c -2.3-4.66-3-9.36-4.9-14.08Z" fill="param(main_colour)"/>
    <path d="M 300.17,278.58 l .54-.07 a 7,7,0,0,0,1.27,3.08,2.82,2.82,0,0,0,2.67.72 l 2.53-.33 a 58.78,58.78,0,0,1-.5-6.87 l -.52.06 a 2.15,2.15,0,0,0-1.89,1.13,4.41,4.41,0,0,0-.33,2.12 l -.53.07 c -.15-2.07-.24-4.14-.36-6.21 l .55-.06 a 3.61,3.61,0,0,0,.58,1.87 c .33.5,1,.69,2,.57 l .52-.06 c -.06-2.17-.09-4.34-.23-6.51 l -2.32.26 a 4.13,4.13,0,0,0-2.47,1,4.91,4.91,0,0,0-1.06,3 l -.55.06q-.1-2-.2-4 L 311,267.06q0,.26,0,.51 l -2,.22 c .3,4.63-.1,9.25.59,13.86 l 1.87-.24q0,.26.08.51 l -10.79,1.42 C 300.54,281.75,300.35,280.17,300.17,278.58Z" fill="param(main_colour)"/>
  </g>
  <g id="fixed-colours">
    <path d="M 336,274.9 s -19.14-1.33-28.44,8 C 313.95,274.11,326.44,271.18,336,274.9Z" opacity="0.2"/>
    <path d="M 315,270.65 s 8.24,2.66,14.62-3.72 C 326.18,268.79,319,270.92,315,270.65Z" opacity="0.2"/>
    <path d="M 270.79,277.64 c 4.78,15.74,15.94,21.74,29.11,19.57 C 288.4,295.88,278.75,293,270.79,277.64Z" opacity="0.4"/>
  </g>
<script type="text/ecmascript" xlink:href="param.min.js"/> 
</svg>
