<?xml version="1.0"?>
<svg xmlns="http://www.w3.org/2000/svg" xmlns:xlink="http://www.w3.org/1999/xlink" viewBox="0 0 250 250">
  <title>voluptuous-bottoms-template</title>
  <g id="skin-tone">
    <path d="M 125.51,218.08 a 13.48,13.48,0,0,1-5.7,3,16.16,16.16,0,0,1-8.64-.71 c .55,1.26,1,2.35,1.33,3.15 a 26.49,26.49,0,0,0,3.61,6.46 h 0 a 4.73,4.73,0,0,0,8.5-.5 h 0 c .55-.62,1.28-3,1.12-6.63 C 125.7,221.72,125.61,220,125.51,218.08Z" fill="param(skin_tone)"/>
  </g>
  <g id="main-colour">
    <path d="M 137.92,120.92 c -1.58-4.42-5.92-8.83-11.58-9.33 s -8.83,2.5-11.92,5.08-7.58,7.75-10.17,10.42-5.73,6.27-9.61,14.15 c -4.93,10-2.42,27.25.17,37.33 a 110.7,110.7,0,0,1,3.5,21.83 c .5,5.83-.83,14-2.67,21.67,3.63,1.17,23.83,4.67,29.83-1-.23-4.46-.5-13.28-.56-16.15-.08-4.17-.33-13.58-.08-23.67 s 3-26.08,4.67-31.5,4.92-12.25,7.33-17.67 S 138.5,123,137.92,120.92Z" fill="param(main_colour)"/>
  </g>
  <g id="outline">
    <path d="M 139.5,125 a 14.48,14.48,0,0,0-26.2-8.53 c -1.22,1.23-8.35,6.8-12.88,12.74-5.85,7.66-9.55,14.32-10.07,28.51 h 0 c -.13,4.32,3.13,20.68,5.13,31.52 s 2.83,21.83-1.33,33.83 a 97.57,97.57,0,0,0,18.41,2.24 c 1.16,2.27,2.41,4.18,3.57,4.65-.45-.9-1.08-2.48-1.88-4.67,6.15-.16,9.19-1.43,10.61-2.37.23,3,.32,5.7-.21,6.54,2-1.51,2.16-8,1.66-13.63 s -.75-26.62-.12-39.37 a 116.7,116.7,0,0,1,6.13-31.75 c 2.5-6.87,6.87-13.89,7-17.26 h 0 A 14.41,14.41,0,0,0,139.5,125Z m -2.24,2.45 h 0v0 a 12.34,12.34,0,0,1-.42,1.52 c -.21.7-.5,1.63-.88,2.69-.89,2.39-2.36,5.92-4.79,10.89-5.5,11.25-7.5,34.13-7.5,45.25 s .38,25.63.75,30.13 l .22,1.94,0,.07.08.87 c -6.46,3.73-18.51,2.28-27.7.22,2.17-3.5,3.67-20.33,1.5-30-1.7-7.6-3.4-18.48-4.3-24.42 l .4.93 c -.33-1.22-.59-2.43-.8-3.63 l -.13-.88-.14-1 c -2-15.32,5.51-28,12.09-34.95,3.91-4.11,9.91-10.28,9.92-10.29 h 0 a 12.49,12.49,0,0,1,21.75,10.57Z"/>
  </g>
<script type="text/ecmascript" xlink:href="param.min.js"/> 
</svg>
