<?xml version="1.0"?>
<svg xmlns="http://www.w3.org/2000/svg" xmlns:xlink="http://www.w3.org/1999/xlink" viewBox="0 0 600 600">
  <title>love-slogan-slender</title>
  <g id="main-colour">
    <path d="M 330,271.52 l .52-.06 a 3.91,3.91,0,0,0,.73,2.6,2.35,2.35,0,0,0,2.26.7 l 2.19-.26 c -.1-3.77.15-7.55-.22-11.33 l -1.71.19-.05-.42,5.49-.59,0,.42-1.64.18 c .27,3.77.17,7.54.28,11.3 l 1.68-.2v.42 l -9.4,1.13 C 330.06,274.23,330,272.88,330,271.52Z" fill="param(main_colour)"/>
    <path d="M 318.45,270.85 a 9,9,0,0,1,1.66-4.74,4.81,4.81,0,0,1,3.42-2.34,4.52,4.52,0,0,1,3.81,1.54,5.65,5.65,0,0,1,1.54,4.32,8.26,8.26,0,0,1-1.72,4.69,5.19,5.19,0,0,1-3.52,2.37,4.25,4.25,0,0,1-3.73-1.49 A 5.58,5.58,0,0,1,318.45,270.85Z m 2.36,1.93 a 4.11,4.11,0,0,0,.69,2.77,2.17,2.17,0,0,0,2.11.71,2.58,2.58,0,0,0,2-1.22,6.08,6.08,0,0,0,.71-2.92 c .06-1.47.16-2.94.18-4.42 a 4.15,4.15,0,0,0-.75-2.77,2.31,2.31,0,0,0-2.15-.74,2.43,2.43,0,0,0-2,1.2,6.64,6.64,0,0,0-.62,2.93 C 321,269.82,320.86,271.3,320.81,272.78Z" fill="param(main_colour)"/>
    <path d="M 308,266.24q0-.22,0-.43 l 3.67-.42q0,.22,0,.43 l -1.76.2 c 1.16,2.83,1.84,5.65,2.82,8.45.87-3,2.19-6.07,2.89-9.1 l -1.73.2q0-.22,0-.43 l 5.29-.6q0,.21,0,.43 l -1.38.16 c -.93,4.25-3.18,8.52-3.74,12.8 l -.48.06 c -1.95-3.94-2.57-7.91-4.18-11.91Z" fill="param(main_colour)"/>
    <path d="M 298.67,275.62 l .46-.06 a 5.94,5.94,0,0,0,1.08,2.6,2.39,2.39,0,0,0,2.26.6 l 2.14-.29 a 50.34,50.34,0,0,1-.44-5.82 l -.44.06 a 1.82,1.82,0,0,0-1.59,1,3.74,3.74,0,0,0-.27,1.79 l -.45.06 c -.13-1.75-.22-3.5-.32-5.26 l .47-.06 a 3.07,3.07,0,0,0,.49,1.58 c .28.42.83.58,1.66.48 l .44-.05 c -.05-1.84-.09-3.67-.21-5.51 l -2,.22 a 3.49,3.49,0,0,0-2.09.82,4.17,4.17,0,0,0-.89,2.51 l -.46.06q-.09-1.7-.18-3.4 l 9.42-1.07q0,.22,0,.43 l -1.68.19 c .26,3.92-.06,7.83.53,11.74 l 1.58-.21.07.43-9.14,1.24 C 299,278.31,298.83,277,298.67,275.62Z" fill="param(main_colour)"/>
  </g>
  <g id="fixed-colours">
    <path d="M 292.14,285.38 c 6.87,2.13,15.94,1.39,21.83-3.67 C 309.22,289.38,297.38,289.89,292.14,285.38Z" opacity="0.4"/>
    <path d="M 328.57,271.59 s -10.9-.76-16.2,4.54 C 316,271.13,323.12,269.47,328.57,271.59Z" opacity="0.2"/>
    <path d="M 316.61,269.16 a 8.63,8.63,0,0,0,8.33-2.12 A 20,20,0,0,1,316.61,269.16Z" opacity="0.2"/>
  </g>
<script type="text/ecmascript" xlink:href="param.min.js"/> 
</svg>
