<?xml version="1.0"?>
<svg xmlns="http://www.w3.org/2000/svg" xmlns:xlink="http://www.w3.org/1999/xlink" viewBox="0 0 600 600">
  <title>honey-slogan-slender</title>
  <g id="main-colour">
    <path d="M 289.2,273.73q0-.89,0-1.77 l .74,0 c -.07-3-.07-5.91-.13-8.86 l -.79,0q0-.89,0-1.77 l 3.15-.08 c 0,.59,0,1.18.05,1.77 l -.79,0 c 0,1.18,0,2.36,0,3.54 l 3.09-.1 c 0-1.18.07-2.35.05-3.53 l -.79,0 c 0-.59,0-1.18-.06-1.76 l 3.13-.08 c 0,.59.07,1.17.07,1.76 l -.79,0 c 0,2.93-.3,5.87-.2,8.8 l .75,0 c 0,.59.06,1.17.12,1.76 l -3,.12 c 0-.59-.08-1.18-.1-1.76 l .75,0 c 0-1.17,0-2.35,0-3.52 l -3,.1 c 0,1.18,0,2.36,0,3.54 l .75,0 c 0,.59,0,1.18.08,1.77Z" fill="param(main_colour)"/>
    <path d="M 299.47,273.32 c -.46-.45-.9-.9-1.32-1.35-.15-3.16.36-6.32.28-9.48.41-.48.8-1,1.17-1.43 l 3.74-.09q.7.68,1.34,1.36 c .08,3.14-.63,6.28-.5,9.41q-.58.72-1.09,1.44Z m .17-1.76,3-.12 c -.07-2.91.5-5.82.47-8.73 l -3.13.08 C 300,265.71,299.56,268.64,299.65,271.55Z" fill="param(main_colour)"/>
    <path d="M 305.82,273.06 c -.53-4.05.81-8.12.33-12.17 l 1.55,0 c 1.62,2.75,2.37,5.48,3.42,8.2.23-2.76.79-5.53.46-8.29 l 1.55,0 c .48,4-.91,8.05-.49,12.07 l -1.52.06 c -1.58-2.71-2.32-5.44-3.39-8.18-.21,2.78-.75,5.56-.4,8.33Z" fill="param(main_colour)"/>
    <path d="M 314.15,272.73 c -.37-4,1-8,.52-12 l 6.19-.15 c 0,.57.06,1.14.05,1.71 l -4.61.12 a 31.29,31.29,0,0,1-.23,3.44 l 3.08-.09 c -.06.57-.13,1.14-.19,1.71 l -3.09.1 c -.13,1.15-.24,2.29-.26,3.43 l 4.63-.17 c 0,.57,0,1.14,0,1.71Z" fill="param(main_colour)"/>
    <path d="M 322.41,260.5 l 1.55,0 c .84,1.47,1.49,2.94,2.15,4.4.88-1.51,1.7-3,2.51-4.5 l 1.56,0 c -1.14,2-2.22,4-3.42,6-.16,2-.32,4-.37,5.93 l -1.54.06 c 0-2,.2-4,.37-5.94 A 57.23,57.23,0,0,0,322.41,260.5Z" fill="param(main_colour)"/>
  </g>
<script type="text/ecmascript" xlink:href="param.min.js"/> 
</svg>
