<?xml version="1.0"?>
<svg xmlns="http://www.w3.org/2000/svg" xmlns:xlink="http://www.w3.org/1999/xlink" viewBox="0 0 600 600">
  <title>skull-design-top-curvy</title>
  <g id="main-colour">
    <path d="M 312.45,302.21 c -.49,0-.57-.52-1,.07,0,0-.5,3-.07,2.92 S 313,302.25,312.45,302.21Z" fill="param(main_colour)"/>
    <path d="M 313.74,302.9 c -1.09,0-1.47,2.46-1.12,2.88 s .86.38,1.16-.69 S 314.4,302.91,313.74,302.9Z" fill="param(main_colour)"/>
    <path d="M 315.11,303.66 c -.47,0-.89,1.24-.91,2.2 s .57,1,1.05.91.66-1.39.75-2.21 S 315.83,303.59,315.11,303.66Z" fill="param(main_colour)"/>
    <path d="M 319.81,303 c -.47,0-1.49,2.54-.66,2.47 s 1.09-.75,1.29-1.5 S 320.38,303,319.81,303Z" fill="param(main_colour)"/>
    <path d="M 321.3,302.8 c -.74,2.38,1,.8,1.19.26 s .58-1.57.25-1.8 S 321.65,301.65,321.3,302.8Z" fill="param(main_colour)"/>
    <path d="M 334.41,287.9 c -.27-2.25.55-8.34.15-12-.25-3.72-.5-11-7.73-15-7.24-4.12-19.44-4.53-21.84-.65-3.61,6.54-.51,20.49-.31,23.93.5,3.43-1,5.09-.2,7.74 s 1.72,3,3.15,2.83,4.13,1.84,4.3,3.53-1.18,3.73,1.53,3.41.44,2.32,2.6,1.2,2.92.87,3.58-.26,3.67-1.59,4-3.83,3.07-5.33,6-4.11 S 334.8,290.14,334.41,287.9Z m -21.34,1.59 c -1.48.9-5.2.4-5.66-1 a 22.82,22.82,0,0,1-.29-5.61 c .08-.81.17-2.2,1.46-2.49,1.93-.43,3.89-1.75,5.36-.92 s 2.74,2.69,2.58,4 S 314.56,288.6,313.06,289.49Z m 8.8,4.05 c -.39,1.39-1.13,3.07-2.11,2.91 s -.15-2.48-.19-3.67-.67-2.36-1.09-.59-.34,4.34-1.72,4.4 c -.8,0-.85-2.55-.1-5.26 s 1.83-4.2,2.41-3.79,1.06-1.14,1.62-.09 S 322.28,292.15,321.86,293.54Z m 9.69-4.73 c -.9.89-4.5,1.53-6,.83 s -1.23-2.5-2.15-3.11 a 2.53,2.53,0,0,1-1.28-2 c -.22-1.2,1.58-2.92,2.55-4.1 s 1.79-1.22,3.51-.23,3.55.94,3.71,2.41 S 332.48,287.92,331.55,288.8Z" fill="param(main_colour)"/>
  </g>
  <g id="fixed-colours">
    <path d="M 334.86,267.62 s -14,13.44-30.38,14.51 C 316.31,285.06,328.17,277.33,334.86,267.62Z" opacity="0.15"/>
    <path d="M 329.95,276.66 s -6.61,7.59-14.44,9.68 C 322.93,286.61,328.12,279.88,329.95,276.66Z" opacity="0.15"/>
  </g>
<script type="text/ecmascript" xlink:href="param.min.js"/> 
</svg>
