<?xml version="1.0"?>
<svg xmlns="http://www.w3.org/2000/svg" xmlns:xlink="http://www.w3.org/1999/xlink" viewBox="0 0 600 600">
  <title>sassy-slogan-voluptuous</title>
  <g id="main-colour">
    <path d="M 302.47,271.36 l -1.11.14 c -.08-1.3-.17-2.61-.28-3.91 a 1.24,1.24,0,0,0-.33-.78,1.07,1.07,0,0,0-.87-.25,1.05,1.05,0,0,0-.79.44,1.18,1.18,0,0,0-.17.84,19.21,19.21,0,0,0,.51,3.25,19.72,19.72,0,0,0,.77,2.49 c .29.73.59,1.44.91,2.06.13.36.25.66.4,1 a 12.49,12.49,0,0,1,.6,1.7,19.89,19.89,0,0,1,.51,2 c .14.72.2,1.59.31,2.54 a 2.59,2.59,0,0,1,0,.93,2.44,2.44,0,0,1-.33.75,2.86,2.86,0,0,1-.61.54,2.74,2.74,0,0,1-.9.28,1.9,1.9,0,0,1-1.58-.37,2.16,2.16,0,0,1-.72-1.52 c -.12-1.31-.24-2.63-.35-3.94 l 1.07-.15 c .11,1.31.22,2.62.35,3.94 a 1.39,1.39,0,0,0,.31.78,1,1,0,0,0,.83.2,1,1,0,0,0,.73-.43,1.35,1.35,0,0,0,.14-.84,23,23,0,0,0-.53-3.26,19.55,19.55,0,0,0-.75-2.48 c -.23-.54-.41-1-.64-1.53 l -.69-1.53 a 13.69,13.69,0,0,1-.63-1.69,19.78,19.78,0,0,1-.55-2.05,24.45,24.45,0,0,1-.3-2.56,2.52,2.52,0,0,1,.07-1,2.33,2.33,0,0,1,.38-.72,2.1,2.1,0,0,1,.67-.53,3.25,3.25,0,0,1,1-.29,2.08,2.08,0,0,1,1.65.41,2.17,2.17,0,0,1,.74,1.55 C 302.31,268.75,302.39,270.06,302.47,271.36Z" fill="param(main_colour)"/>
    <path d="M 310.58,283.76 c -.26-1.1-.47-2.19-.65-3.29 l -1.38.19 c 0,1.12.06,2.25.16,3.37 l -1,.15 c -.56-6.57.5-13.15.28-19.73 l 1.09-.13 c 1.28,6.46,1.08,12.89,2.58,19.28Z m -2-4.33,1.2-.16 c -.37-2.6-.58-5.21-.85-7.83 C 308.77,274.11,308.58,276.77,308.56,279.44Z" fill="param(main_colour)"/>
    <path d="M 320,269.22 l -1.1.13 c 0-1.28-.07-2.55-.17-3.83 a 1.21,1.21,0,0,0-.33-.77,1.06,1.06,0,0,0-.85-.24,1,1,0,0,0-.76.43,1.2,1.2,0,0,0-.17.82,24.93,24.93,0,0,0,.39,3.18,19.38,19.38,0,0,0,.61,2.44,20.92,20.92,0,0,0,.77,2 c .11.35.21.65.34,1 a 12,12,0,0,1,.5,1.67,19.57,19.57,0,0,1,.41,2 c .11.71.13,1.55.2,2.49 a 2.33,2.33,0,0,1-.42,1.64,3,3,0,0,1-.62.53,2.86,2.86,0,0,1-.91.27,2,2,0,0,1-1.6-.36,2.09,2.09,0,0,1-.75-1.49 c -.12-1.29-.19-2.57-.22-3.86 l 1.11-.15 c 0,1.29.09,2.57.21,3.85 a 1.31,1.31,0,0,0,.31.76,1,1,0,0,0,.84.2,1,1,0,0,0,.75-.42,1.31,1.31,0,0,0,.16-.82,25.28,25.28,0,0,0-.41-3.19,19.65,19.65,0,0,0-.61-2.43 c -.2-.53-.35-1-.54-1.5 l -.58-1.5 a 12.34,12.34,0,0,1-.5-1.65 c -.16-.61-.3-1.3-.41-2 s -.13-1.59-.2-2.51 a 2.66,2.66,0,0,1,.07-.94,2.32,2.32,0,0,1,.36-.7,2,2,0,0,1,.64-.51,3,3,0,0,1,.92-.28,2.07,2.07,0,0,1,1.62.4,2.14,2.14,0,0,1,.75,1.52 C 320,266.67,320,267.94,320,269.22Z" fill="param(main_colour)"/>
    <path d="M 329,268.15 l -1.09.13 c 0-1.26-.1-2.52-.21-3.79 a 1.21,1.21,0,0,0-.33-.76,1.05,1.05,0,0,0-.85-.24,1,1,0,0,0-.75.42,1.18,1.18,0,0,0-.16.81,24.93,24.93,0,0,0,.42,3.15,19.28,19.28,0,0,0,.63,2.41,20.46,20.46,0,0,0,.79,2 c .11.34.22.64.35,1 a 11.43,11.43,0,0,1,.52,1.65,17.48,17.48,0,0,1,.41,2 c .11.7.11,1.53.17,2.46 a 2.38,2.38,0,0,1-.1.9,2.53,2.53,0,0,1-.38.72,3.28,3.28,0,0,1-.66.52,3.08,3.08,0,0,1-.94.27,1.88,1.88,0,0,1-2.31-1.83 c -.08-1.27-.12-2.54-.14-3.82 l 1.13-.14 c 0,1.27.05,2.54.13,3.81 a 1.24,1.24,0,0,0,.29.75,1,1,0,0,0,.84.2,1.06,1.06,0,0,0,.78-.42,1.27,1.27,0,0,0,.19-.82,20.7,20.7,0,0,0-.36-3.15,18.19,18.19,0,0,0-.62-2.4 c -.2-.52-.35-1-.55-1.48 l -.59-1.48 a 12.13,12.13,0,0,1-.51-1.64 c -.16-.6-.31-1.28-.42-2 s -.14-1.57-.22-2.48 a 2.64,2.64,0,0,1,.06-.93,2.25,2.25,0,0,1,.35-.69,1.88,1.88,0,0,1,.62-.51,3,3,0,0,1,.91-.27,2.07,2.07,0,0,1,1.61.4,2.13,2.13,0,0,1,.74,1.51 C 328.88,265.63,328.94,266.89,329,268.15Z" fill="param(main_colour)"/>
    <path d="M 337.41,261.17 c -.42,3.21-.82,6.42-1.26,9.63q.21,4.7.47,9.4 l -1.1.14 c -.18-3.14-.32-6.28-.44-9.43-.71-3.07-1.36-6.15-2.29-9.24 l 1.07-.12 c .63,2.15,1.13,4.29,1.63,6.42q.45-3.35.84-6.68Z" fill="param(main_colour)"/>
  </g>
  <g id="fixed-colours">
    <path d="M 330.32,276.71 s -16.25-2.23-24.72,5.17 C 311.55,274.76,322.38,273,330.32,276.71Z" opacity="0.2"/>
    <path d="M 312.66,271.88 a 13,13,0,0,0,12.68-2.33 C 322.29,270.93,316,272.33,312.66,271.88Z" opacity="0.2"/>
    <path d="M 289.64,295.38 A 30,30,0,0,1,278,290.07 a 29.52,29.52,0,0,1-9-13.13 C 269.41,287.59,279.25,296,289.64,295.38Z" opacity="0.4"/>
  </g>
<script type="text/ecmascript" xlink:href="param.min.js"/> 
</svg>
