<?xml version="1.0"?>
<svg xmlns="http://www.w3.org/2000/svg" xmlns:xlink="http://www.w3.org/1999/xlink" viewBox="0 0 600 600">
  <title>girl-power-slogan-curvy</title>
  <g id="main-colour">
    <path d="M 335.64,272.1 l -1.54.15 c -.36,1.29-.74,2.58-1.12,3.87-.44,1.5,0,2,1.05,1.85 a 2.76,2.76,0,0,0,2.34-2.21 c 1.25-3.77,2.43-7.54,3.3-11.31.35-1.5-.29-2-1.45-1.91 a 2.39,2.39,0,0,0-2.29,2.23q-.23,1.13-.49,2.26 l -3.33.3q.21-1,.39-2.05 c .59-3.39,2.6-5.47,6.3-5.74 s 5.34,1.49,4.44,4.82 c -1,3.62-2.18,7.24-3.5,10.85-1.21,3.32-3.54,5.41-6.6,5.77 s -4.08-1.36-3.19-4.73 c .6-2.23,1.17-4.45,1.67-6.69 l 4.85-.46Q336.08,270.6,335.64,272.1Z" fill="param(main_colour)"/>
    <path d="M 326.58,281.53 l -3.07.37 c 1.58-7,3.24-14.12,3.58-21.2 l 3.71-.3 C 330.26,267.45,328.39,274.51,326.58,281.53Z" fill="param(main_colour)"/>
    <path d="M 311.91,283.34 a 7.88,7.88,0,0,0,.59-2.63q.17-1.65.34-3.3 c .22-2.23.88-3.92,2.6-4.8-1.42-.55-2-1.92-1.92-4.13q0-.84,0-1.69 c 0-3.32,1.49-5.1,5.3-5.41 l 5.54-.47 c -.19,7.1-1.7,14.2-3.12,21.25 l -3,.38 c .48-2.88,1-5.76,1.4-8.65 l -1.14.12 c -1.5.16-2.23,1-2.48,2.95q-.22,1.68-.45,3.35 A 8.34,8.34,0,0,1,315,283Z m 7-18.91 c -1.27.11-1.82.84-1.89,2.37q-.05,1.06-.13,2.11 c -.13,1.71.57,2.19,1.83,2.06 l 1.32-.13 c .28-2.19.49-4.37.59-6.56Z" fill="param(main_colour)"/>
    <path d="M 310.29,283.55 l -7.78,1q0-1.54,0-3.07 l 5-.62 a 117.12,117.12,0,0,0,0-18.48 l 3.61-.32 C 311.61,269.26,310.87,276.43,310.29,283.55Z" fill="param(main_colour)"/>
    <path d="M 333.84,284.49 l 2.79-.35 c -1.55,4.31-3,8.61-4.08,12.9 l -1.63.26 c .37-1.62.79-3.23,1.25-4.85 l -.82.12 c -1.71.25-2.29-.75-1.73-2.83q.23-.84.47-1.69 A 4.41,4.41,0,0,1,333.84,284.49Z m -.61,1.85 c -.59.08-1,.41-1.29,1.34q-.3,1-.58,1.94 c -.27.93,0,1.18.51,1.1 l .83-.12 c .44-1.46.91-2.92,1.4-4.38Z" fill="param(main_colour)"/>
    <path d="M 327.67,294.82 c -.45,2.07-1.5,3.4-3.06,3.66 s -2.27-.79-2-2.88 c .34-2.26.77-4.53,1.26-6.79 a 4.2,4.2,0,0,1,3.55-3.66 c 1.84-.23,2.49.83,1.9,2.91 C 328.73,290.32,328.15,292.57,327.67,294.82Z m -.09-6.64 c .24-.93,0-1.24-.61-1.16 s -1,.48-1.25,1.41 c -.55,2.35-1,4.7-1.45,7-.16.93.12,1.23.63,1.15 s .9-.49,1.08-1.42 C 326.43,292.87,327,290.53,327.57,288.18Z" fill="param(main_colour)"/>
    <path d="M 317.2,299.59 l -2,.35 a 129.5,129.5,0,0,1-.15-13 l 1.57-.21 c -.18,3.46-.31,6.9-.25,10.33 a 107.42,107.42,0,0,1,2.1-10.58 l 1.75-.23 c -.34,3.42-.62,6.83-.72,10.23.66-3.49,1.57-7,2.58-10.48 l 1.79-.23 A 102.46,102.46,0,0,0,320.46,299 l -2.14.36 c -.06-2.29,0-4.59.08-6.9 C 317.9,294.87,317.48,297.23,317.2,299.59Z" fill="param(main_colour)"/>
    <path d="M 312.15,289.2 l -3,.43q0-.95.1-1.9 l 4.86-.67 a 105.85,105.85,0,0,0-.8,13.21 l -4.11.73q-.07-.95-.11-1.89 l 2.66-.46 c 0-1.29,0-2.58.06-3.87 l -2.23.35q0-.95,0-1.89 l 2.28-.35Q312,291,312.15,289.2Z" fill="param(main_colour)"/>
    <path d="M 303.71,302 a 6.11,6.11,0,0,0-.06-1.65q-.13-1-.23-2.06 c -.14-1.39,0-2.44.82-3-.74-.32-1.14-1.16-1.2-2.54q0-.52,0-1.05 c -.07-2.06.69-3.19,2.51-3.44 l 2.65-.37 a 101.75,101.75,0,0,0,.13,13.28 l -1.48.27 c -.19-1.8-.31-3.61-.38-5.41 l -.55.09 c -.72.12-1,.63-.92,1.86q.08,1,.19,2.09 a 6.38,6.38,0,0,1,.06,1.66Z m 1.82-11.85 c -.61.09-.87.55-.85,1.5q0,.66,0,1.31 c 0,1.07.42,1.35,1,1.25 l .64-.1 c 0-1.36,0-2.72,0-4.09Z" fill="param(main_colour)"/>
  </g>
  <g id="fixed-colours">
    <path d="M 336,274.9 s -19.14-1.33-28.44,8 C 313.95,274.11,326.44,271.18,336,274.9Z" opacity="0.2"/>
    <path d="M 315,270.65 s 8.24,2.66,14.62-3.72 C 326.18,268.79,319,270.92,315,270.65Z" opacity="0.2"/>
    <path d="M 270.79,277.64 c 4.78,15.74,15.94,21.74,29.11,19.57 C 288.4,295.88,278.75,293,270.79,277.64Z" opacity="0.4"/>
  </g>
<script type="text/ecmascript" xlink:href="param.min.js"/> 
</svg>
