<?xml version="1.0"?>
<svg xmlns="http://www.w3.org/2000/svg" xmlns:xlink="http://www.w3.org/1999/xlink" viewBox="0 0 600 600">
  <title>sassy-slogan-hourglass</title>
  <g id="main-colour">
    <path d="M 338.68,262.7 a 2.25,2.25,0,0,1,.37-1.62,2,2,0,0,1,1.45-.77,3.06,3.06,0,0,1,1,0,1.84,1.84,0,0,1,.73.33,2,2,0,0,1,.49.57,2.25,2.25,0,0,1,.23.87,19.58,19.58,0,0,1,.13,2.43,17,17,0,0,1-.21,2,12.57,12.57,0,0,1-.38,1.72 c -.16.54-.48,1.6-.48,1.6-.16.52-.28,1-.45,1.59 a 18.47,18.47,0,0,0-.45,2.51,16,16,0,0,0,0,3.16,1.07,1.07,0,0,0,.29.73,1,1,0,0,0,.83.18,1.19,1.19,0,0,0,.81-.43,1.36,1.36,0,0,0,.18-.8q-.13-1.86-.25-3.72 L 344,273q.13,1.86.27,3.71 a 2.19,2.19,0,0,1-.48,1.6,2.32,2.32,0,0,1-1.53.8,3,3,0,0,1-1,0,2.76,2.76,0,0,1-.73-.31,2,2,0,0,1-.48-.59,2,2,0,0,1-.21-.84,19,19,0,0,1-.08-2.44,16.51,16.51,0,0,1,.27-2,13,13,0,0,1,.41-1.75 c .11-.35.2-.66.29-1 a 22.07,22.07,0,0,0,.65-2.17,16.88,16.88,0,0,0,.41-2.51,15.26,15.26,0,0,0,0-3.14,1.06,1.06,0,0,0-.31-.74,1,1,0,0,0-.82-.22,1.07,1.07,0,0,0-.76.44,1.28,1.28,0,0,0-.16.81 c .14,1.24.23,2.48.32,3.72 l -1.07.15 C 338.92,265.18,338.82,263.94,338.68,262.7Z" fill="param(main_colour)"/>
    <path d="M 331.32,280.56 c -.25-6.37,1-12.76.32-19.14 l 1.05-.15 c 1.59,6.24,1.52,12.46,2.69,18.63 l -1.07.17 c -.19-1.06-.36-2.12-.5-3.18 l -1.42.22 c 0,1.09,0,2.18,0,3.27Z m 1.52-12.39 c -.11,2.59-.32,5.17-.42,7.76 l 1.23-.19 C 333.33,273.23,333.13,270.71,332.83,268.18Z" fill="param(main_colour)"/>
    <path d="M 321.59,265.13 a 2.38,2.38,0,0,1,.39-1.66,2,2,0,0,1,1.45-.79,3,3,0,0,1,1,0,1.92,1.92,0,0,1,.74.33,2.09,2.09,0,0,1,.52.58,2.29,2.29,0,0,1,.26.88 A 15.41,15.41,0,0,1,326,267 a 15.06,15.06,0,0,1-.28,2.08,12.87,12.87,0,0,1-.46,1.76 c -.18.55-.56,1.64-.56,1.64-.19.53-.33,1.05-.51,1.63 a 16.34,16.34,0,0,0-.5,2.57,13.43,13.43,0,0,0,0,3.22,1.16,1.16,0,0,0,.32.75.92.92,0,0,0,.81.18,1.08,1.08,0,0,0,.76-.44,1.46,1.46,0,0,0,.15-.82 c -.12-1.26-.19-2.53-.24-3.8 l 1.11-.17 c 0,1.27.1,2.53.22,3.79 a 2.37,2.37,0,0,1-.39,1.63,2.06,2.06,0,0,1-1.42.82,2.85,2.85,0,0,1-.94,0,2.79,2.79,0,0,1-.73-.32,2.14,2.14,0,0,1-.51-.6,2.18,2.18,0,0,1-.25-.86,15.43,15.43,0,0,1-.15-2.49,14.37,14.37,0,0,1,.27-2.08,12.16,12.16,0,0,1,.45-1.79 c .12-.36.22-.68.33-1.05.27-.69.52-1.44.74-2.22 a 16.37,16.37,0,0,0,.51-2.57,13.34,13.34,0,0,0,0-3.21,1.1,1.1,0,0,0-.33-.75,1,1,0,0,0-.83-.22,1.08,1.08,0,0,0-.77.45,1.33,1.33,0,0,0-.17.83 c .13,1.27.2,2.53.24,3.8 l -1.1.16 C 321.79,267.67,321.72,266.4,321.59,265.13Z" fill="param(main_colour)"/>
    <path d="M 312.56,266.43 a 2.39,2.39,0,0,1,.43-1.68,2.13,2.13,0,0,1,1.49-.8,3,3,0,0,1,1,0,1.87,1.87,0,0,1,.74.33,2.07,2.07,0,0,1,.51.59,2.32,2.32,0,0,1,.24.89,17.36,17.36,0,0,1,.11,2.51,16.75,16.75,0,0,1-.28,2.1,13.87,13.87,0,0,1-.44,1.78 l -.52,1.65 c -.17.53-.3,1.06-.47,1.65 a 16,16,0,0,0-.41,2.59,13.88,13.88,0,0,0,.11,3.26,1.23,1.23,0,0,0,.34.76.91.91,0,0,0,.81.18,1,1,0,0,0,.73-.44 A 1.49,1.49,0,0,0,317,281 c -.17-1.28-.28-2.56-.36-3.84 l 1.09-.18 c .07,1.28.18,2.56.34,3.83 a 2.39,2.39,0,0,1-.32,1.65,1.92,1.92,0,0,1-1.38.83,2.75,2.75,0,0,1-.93,0,2.86,2.86,0,0,1-.74-.32,2.25,2.25,0,0,1-.52-.6,2.28,2.28,0,0,1-.28-.87,16.58,16.58,0,0,1-.23-2.51,14.61,14.61,0,0,1,.19-2.11,12,12,0,0,1,.39-1.81 c .11-.36.2-.69.29-1.07.25-.69.48-1.46.69-2.24 a 18.1,18.1,0,0,0,.48-2.59,14.71,14.71,0,0,0,0-3.24,1.09,1.09,0,0,0-.31-.76,1,1,0,0,0-.84-.22,1.13,1.13,0,0,0-.79.46,1.34,1.34,0,0,0-.19.83 c .11,1.28.19,2.56.26,3.84 l -1.1.16 C 312.75,269,312.67,267.72,312.56,266.43Z" fill="param(main_colour)"/>
    <path d="M 304.35,265.3q1,3.3,1.93,6.59 c .21-2.32.42-4.63.58-6.95 l 1.1-.16 c -.23,3.33-.59,6.66-.9,10,.27,3.25.54,6.49,1.08,9.73 l -1,.18 c -.51-3.23-.79-6.47-1.09-9.72q-1.28-4.73-2.77-9.51Z" fill="param(main_colour)"/>
  </g>
  <g id="fixed-colours">
    <path d="M 329.9,274.55 s -12-.83-17.83,5 C 316.07,274,323.9,272.21,329.9,274.55Z" opacity="0.2"/>
    <path d="M 316.73,271.88 a 9.5,9.5,0,0,0,9.17-2.33 C 323.73,270.71,319.23,272,316.73,271.88Z" opacity="0.2"/>
    <path d="M 275.9,284.25 c 10.5,12.13,21,14.63,34.13,11.25 C 298.38,302.39,282.36,297.84,275.9,284.25Z" opacity="0.4"/>
  </g>
<script type="text/ecmascript" xlink:href="param.min.js"/> 
</svg>
