<?xml version="1.0"?>
<svg xmlns="http://www.w3.org/2000/svg" xmlns:xlink="http://www.w3.org/1999/xlink" viewBox="0 0 600 600">
  <title>honey-slogan-hourglass</title>
  <g id="main-colour">
    <path d="M 286.55,276.3q0-1-.06-1.9 l .8,0 c -.1-3.17-.12-6.33-.21-9.5 l -.85,0-.05-1.9,3.38-.12q0,.95.06,1.9 l -.85,0 c 0,1.27,0,2.53,0,3.8 l 3.31-.14 c 0-1.26.05-2.52,0-3.78 l -.84,0 c 0-.63,0-1.26-.06-1.89 l 3.37-.12 c 0,.63.07,1.26.07,1.89 l -.84,0 c 0,3.15-.27,6.29-.14,9.44 l .8,0 c 0,.63.07,1.26.14,1.88 l -3.24.17 c -.05-.63-.09-1.26-.12-1.89 l .8,0 c 0-1.26,0-2.52,0-3.78 l -3.26.15 c 0,1.26,0,2.53.07,3.79 l .8,0q0,.95.1,1.9Z" fill="param(main_colour)"/>
    <path d="M 297.56,275.74 c -.49-.48-1-1-1.42-1.44-.18-3.39.3-6.78.23-10.16.44-.52.86-1,1.27-1.55 l 4-.14q.74.73,1.43,1.45 c .08,3.36-.61,6.73-.46,10.09q-.62.78-1.17,1.56Z m .18-1.89,3.24-.16 c -.09-3.12.46-6.24.43-9.36 l -3.35.12 C 298.08,267.58,297.63,270.71,297.74,273.84Z" fill="param(main_colour)"/>
    <path d="M 304.35,275.39 c -.54-4.35.76-8.71.29-13.06 l 1.66-.06 A 60.46,60.46,0,0,1,310,271 c .22-3,.76-5.93.43-8.9 l 1.66-.06 c .48,4.31-.86,8.64-.46,12.95 l -1.63.08 a 63.34,63.34,0,0,1-3.7-8.73 c -.21,3-.72,6-.36,8.93Z" fill="param(main_colour)"/>
    <path d="M 313.3,274.95 c -.36-4.3,1-8.62.49-12.92 l 6.63-.22 c 0,.61.07,1.22.06,1.83 l -4.94.18 a 36.07,36.07,0,0,1-.21,3.69 l 3.3-.13 c -.06.61-.12,1.22-.18,1.84 l -3.31.14 c -.12,1.23-.23,2.46-.25,3.68 l 5-.23 c 0,.61,0,1.22,0,1.83Z" fill="param(main_colour)"/>
    <path d="M 322.07,261.75 l 1.66-.05 c .9,1.57,1.63,3.14,2.35,4.7.93-1.62,1.79-3.24,2.64-4.86 l 1.67-.05 c -1.2,2.15-2.34,4.3-3.6,6.47-.14,2.12-.29,4.24-.34,6.36 l -1.66.08 c 0-2.12.19-4.25.35-6.37 A 65.65,65.65,0,0,0,322.07,261.75Z" fill="param(main_colour)"/>
  </g>
<script type="text/ecmascript" xlink:href="param.min.js"/> 
</svg>
