<?xml version="1.0"?>
<svg xmlns="http://www.w3.org/2000/svg" xmlns:xlink="http://www.w3.org/1999/xlink" viewBox="0 0 600 600">
  <title>skull-design-top-slender</title>
  <g id="main-colour">
    <path d="M 314.73,291.57 c -.36,0-.41-.39-.74.06,0,0-.34,2.26,0,2.23 S 315.09,291.59,314.73,291.57Z" fill="param(main_colour)"/>
    <path d="M 315.66,292.09 c -.79,0-1,1.9-.79,2.21 s .62.28.83-.54 S 316.13,292.09,315.66,292.09Z" fill="param(main_colour)"/>
    <path d="M 316.65,292.66 c -.34,0-.63,1-.65,1.69 s .42.78.76.69.47-1.07.53-1.7 S 317.17,292.59,316.65,292.66Z" fill="param(main_colour)"/>
    <path d="M 320,292.13 c -.34,0-1.06,2-.46,1.9 s .78-.59.92-1.16 S 320.45,292.09,320,292.13Z" fill="param(main_colour)"/>
    <path d="M 321.11,291.94 c -.52,1.83.72.6.86.19 s .41-1.21.17-1.38 S 321.36,291.05,321.11,291.94Z" fill="param(main_colour)"/>
    <path d="M 330.48,280.43 c -.21-1.71.34-6.38,0-9.21 s -.43-8.42-5.67-11.38-12.94-1.69-15.17,1.22 c -3.43,4.49-.83,14.15-.66,16.77.39,2.61-.72,3.9-.09,5.92 s 1.26,2.3,2.29,2.13,3,1.37,3.13,2.66-.83,2.87,1.13,2.59.33,1.77,1.88.89,2.12.64,2.58-.23,2.64-1.25,2.87-3,2.18-4.11,4.33-3.2 S 330.77,282.14,330.48,280.43Z m -15.39,1.41 c -1.06.7-3.75.35-4.09-.71 a 18.46,18.46,0,0,1-.25-4.29 c .05-.62.11-1.68,1-1.92,1.39-.35,2.8-1.37,3.86-.76 a 3.73,3.73,0,0,1,1.89,3 C 317.45,278.17,316.16,281.15,315.08,281.84Z m 6.38,3 c -.27,1.07-.79,2.36-1.5,2.25 s -.12-1.9-.16-2.8-.5-1.8-.79-.44-.22,3.32-1.22,3.38 c -.58,0-.63-1.94-.11-4 S 319,280,319.4,280.3 s .76-.88,1.17-.08 S 321.75,283.79,321.46,284.86Z m 7-3.71 a 5.33,5.33,0,0,1-4.33.69 c -1.09-.52-.91-1.9-1.57-2.36 a 1.93,1.93,0,0,1-.93-1.49 c -.17-.92,1.12-2.25,1.82-3.16 s 1.28-.95,2.53-.21,2.57.68,2.7,1.81 S 329.08,280.47,328.42,281.15Z" fill="param(main_colour)"/>
  </g>
  <g id="fixed-colours">
    <path d="M 331.69,264.76 s -11.08,11-23.93,11.74 C 317,279,326.34,272.75,331.69,264.76Z" opacity="0.15"/>
    <path d="M 327.74,272.21 s -5.26,6.23-11.41,7.88 C 322.14,280.39,326.28,274.86,327.74,272.21Z" opacity="0.15"/>
  </g>
<script type="text/ecmascript" xlink:href="param.min.js"/> 
</svg>
