<?xml version="1.0"?>
<svg xmlns="http://www.w3.org/2000/svg" xmlns:xlink="http://www.w3.org/1999/xlink" viewBox="0 0 250 250">
  <title>ripped-skinny-jeans-curvy</title>
  <g id="skin-tone">
    <path d="M 112.74,220.4 c .89,2.64,1.56,5,2,6.61.92,3.42,2.32,3.95,2.32,3.95 h 0 a 4.74,4.74,0,0,0,7.83-1.41 h 0 c 1.72-1.37,1.59-5.4,1-10.81 C 120.46,221.83,115.94,221.53,112.74,220.4Z" fill="param(skin_tone)"/>
    <rect x="111.5" y="137.15" width="13.5" height="13.25" fill="param(skin_tone)"/>
  </g>
  <g id="main-colour">
    <path d="M 135.31,128.9 c 2.17-5.17-.33-11.33-5.83-14 s -10.5.5-12.5,2.67-2.85,7.21-9.1,14.21 c -6.47,7.25-10.33,15.54-11.5,29.88 s 6.62,30.49,9.12,37 c 3.13,8.13,4.3,13.75,7.3,21.75 a 13.09,13.09,0,0,0,12.83-2 l -1.33-19.5 c -.33-5.17-1-12,.19-28.18 S 133.14,134.07,135.31,128.9Z m -14.79,16.52,1.83,1.1-2.2.18 a 15.36,15.36,0,0,0,3.12,1.1,20.05,20.05,0,0,1-5-.37 c -.55,0,.73.92,2.38,1.47-4-.18-6.78-3.67-6.78-3.67 a 11.24,11.24,0,0,0,4,.55 c -.73-.18-3.48-2.75-3.48-2.75 l 2.38.92 a 38,38,0,0,1-3.85-4.22,26.11,26.11,0,0,0,5.87,3.3,8.54,8.54,0,0,1-1.83-2.57,18.71,18.71,0,0,0,6.78,2.93 l -2.38.55 a 3.45,3.45,0,0,0,2.57,1.47 A 20.42,20.42,0,0,1,120.52,145.42Z" fill="param(main_colour)"/>
  </g>
  <g id="fixed-colours">
    <path d="M 113.78,127.9 s -4.05,6.47-6.83,10.75 c -3.25,5-7.55,14.74-7.17,24.92.42,11,4.32,23.72,6.58,29.08,2.67,6.33,8.5,25.92,8.83,27.58 A 179.14,179.14,0,0,0,107.87,194 c -3.28-8.71-6.92-21.08-6.92-32.08 a 43,43,0,0,1,6.25-22.33 C 109.53,135.4,112.95,131.07,113.78,127.9Z" opacity="0.5"/>
    <g opacity="0.6">
      <polygon points="114.58 128.77 114.14 129.67 114.12 129.66 114.58 128.77" fill="#fff"/>
      <polygon points="113.47 131.01 113.01 131.9 112.94 131.87 113.42 130.99 113.47 131.01" fill="#fff"/>
      <polygon points="112.3 133.23 111.82 134.11 111.72 134.05 112.21 133.18 112.3 133.23" fill="#fff"/>
      <polygon points="111.08 135.41 110.57 136.27 110.42 136.18 110.95 135.33 111.08 135.41" fill="#fff"/>
      <polygon points="109.78 137.55 109.22 138.38 109.03 138.25 109.61 137.44 109.78 137.55" fill="#fff"/>
      <polygon points="108.39 139.63 107.89 140.48 107.66 140.36 108.18 139.49 108.39 139.63" fill="#fff"/>
      <polygon points="107.19 141.8 106.75 142.7 106.5 142.58 106.95 141.68 107.19 141.8" fill="#fff"/>
      <polygon points="106.14 144.06 105.75 144.98 105.48 144.87 105.87 143.94 106.14 144.06" fill="#fff"/>
      <polygon points="105.21 146.37 104.88 147.31 104.58 147.21 104.93 146.26 105.21 146.37" fill="#fff"/>
      <polygon points="104.41 148.73 104.12 149.68 103.8 149.59 104.1 148.63 104.41 148.73" fill="#fff"/>
      <polygon points="103.72 151.12 103.48 152.09 103.15 152.01 103.4 151.04 103.72 151.12" fill="#fff"/>
      <polygon points="103.16 153.55 102.97 154.53 102.62 154.46 102.81 153.48 103.16 153.55" fill="#fff"/>
      <polygon points="102.73 156 102.6 156.99 102.22 156.94 102.36 155.95 102.73 156" fill="#fff"/>
      <polygon points="102.44 158.47 102.36 159.46 101.96 159.44 102.04 158.44 102.44 158.47" fill="#fff"/>
      <polygon points="102.29 160.96 102.27 161.95 101.85 161.95 101.88 160.94 102.29 160.96" fill="#fff"/>
      <polygon points="102.3 163.44 102.35 164.43 101.91 164.46 101.87 163.46 102.3 163.44" fill="#fff"/>
      <polygon points="102.45 165.93 102.54 166.92 102.09 166.96 102.01 165.96 102.45 165.93" fill="#fff"/>
      <polygon points="102.7 168.41 102.82 169.4 102.35 169.46 102.24 168.46 102.7 168.41" fill="#fff"/>
      <polygon points="103.02 170.88 103.17 171.87 102.69 171.94 102.55 170.95 103.02 170.88" fill="#fff"/>
      <polygon points="103.41 173.34 103.58 174.33 103.09 174.41 102.92 173.43 103.41 173.34" fill="#fff"/>
      <polygon points="103.85 175.8 104.05 176.78 103.58 176.87 103.38 175.89 103.85 175.8" fill="#fff"/>
      <polygon points="104.35 178.24 104.56 179.22 104.11 179.32 103.89 178.34 104.35 178.24" fill="#fff"/>
      <polygon points="104.9 180.68 105.14 181.65 104.71 181.75 104.46 180.78 104.9 180.68" fill="#fff"/>
      <polygon points="105.51 183.09 105.77 184.06 105.36 184.17 105.09 183.21 105.51 183.09" fill="#fff"/>
      <polygon points="106.18 185.5 106.46 186.46 106.06 186.58 105.77 185.62 106.18 185.5" fill="#fff"/>
      <polygon points="106.9 187.89 107.21 188.84 106.84 188.96 106.52 188.01 106.9 187.89" fill="#fff"/>
      <polygon points="107.7 190.25 108.05 191.18 107.7 191.32 107.34 190.38 107.7 190.25" fill="#fff"/>
      <polygon points="108.59 192.58 108.94 193.52 108.6 193.64 108.25 192.71 108.59 192.58" fill="#fff"/>
      <polygon points="109.45 194.93 109.77 195.88 109.45 195.99 109.12 195.05 109.45 194.93" fill="#fff"/>
      <rect x="110.06" y="197.34" width="0.33" height="1" transform="translate(-53.76 41.64) rotate(-17.27)" fill="#fff"/>
      <rect x="110.8" y="199.73" width="0.31" height="1" transform="translate(-51.25 38.7) rotate(-16.13)" fill="#fff"/>
      <rect x="111.49" y="202.13" width="0.29" height="1" transform="translate(-49.47 36.6) rotate(-15.29)" fill="#fff"/>
      <polygon points="112.3 204.52 112.55 205.49 112.29 205.56 112.03 204.59 112.3 204.52" fill="#fff"/>
      <polygon points="112.92 206.94 113.17 207.91 112.92 207.98 112.67 207.01 112.92 206.94" fill="#fff"/>
      <polygon points="113.52 209.37 113.75 210.35 113.56 210.39 113.31 209.43 113.52 209.37" fill="#fff"/>
      <polygon points="114.09 211.81 114.32 212.78 114.18 212.81 113.93 211.84 114.09 211.81" fill="#fff"/>
      <polygon points="114.65 214.24 114.87 215.22 114.78 215.24 114.54 214.27 114.65 214.24" fill="#fff"/>
      <polygon points="115.2 216.68 115.42 217.66 115.38 217.66 115.14 216.69 115.2 216.68" fill="#fff"/>
      <polygon points="115.74 219.12 115.78 219.32 115.74 219.12 115.74 219.12" fill="#fff"/>
    </g>
  </g>
  <g id="outline">
    <path d="M 105.57,133.4 c -1.33,1.75-10.24,10.5-10.37,29.25-.08,11.52,5.08,25.5,9.58,36.75,3.34,8.36,8.22,24.39,9,27.39 s 1.56,3.88,3.25,4.18 a 5.74,5.74,0,0,1-1.29-3.24,33.49,33.49,0,0,0-1.5-6 c 2.12.45,6.82,1,10.64-1.62.45,4.38.76,8.4,0,9.49,2-1.2,2.34-3.24,2.09-7 a 333.86,333.86,0,0,1-1.85-38.23 c .35-19,2.22-25.62,4.72-34.87,2.45-9,4.53-15.58,6-19.25 a 11.9,11.9,0,0,0,1.14-4,10.26,10.26,0,0,0,.08-1.21 h 0 A 12.07,12.07,0,0,0,125,112.94 c -4.14,0-8.78,2.24-10.3,5.87 C 112.68,123.64,110.54,126.88,105.57,133.4Z m 8.17-8.49 c .88-1.59,2.39-4.67,2.42-4.71 h 0 a 10.05,10.05,0,0,1,18.34,8.06 h 0 s -7.43,17.58-10.26,35.42-.5,43.5,0,49.67 c .12,1.5.29,3.13.46,4.76 a 13,13,0,0,1-11.1,1.61 c -2.26-6.49-4.46-15.57-7.83-23.32-4.32-9.92-9.82-26.34-7.67-41,1.83-12.5,9.83-21.46,11-23 A 76.54,76.54,0,0,0,113.74,124.91Z"/>
  </g>
<script type="text/ecmascript" xlink:href="param.min.js"/> 
</svg>
