<?xml version="1.0"?>
<svg xmlns="http://www.w3.org/2000/svg" xmlns:xlink="http://www.w3.org/1999/xlink" viewBox="0 0 250 250">
  <title>three-quarter-jeans-hourglass</title>
  <g id="skin-tone">
    <path d="M 124,215.48 h 0 c -3.94-15.48-2.54-38.23-1-49.52 a 30.63,30.63,0,0,1-11.08.74,25.66,25.66,0,0,1-11.35-3.94 c .57,12.4,4,21.95,7.75,32.5 a 158,158,0,0,1,5.66,21.42 c .27,2.45.59,5.51.73,7.67 a 17.43,17.43,0,0,0,.3,2.34 l .88-.07 a 4.74,4.74,0,0,0,9.41-.81 l .77-.06 C 126,223.6,124.86,219.14,124,215.48Z" fill="param(skin_tone)"/>
  </g>
  <g id="main-colour">
    <path d="M 99.38,162.07 c 5.08,3,14.59,7,23.36,4 l .19,0v0 c .56-.2,1.12-.42,1.67-.68.63-4.25.93-7.11.93-7.11 s -.47.16-1.32.36 c 2.13-10.46,5.93-24.36,7.52-29,1.88-5.5.75-8.62-2.5-10.87 a 7.71,7.71,0,0,0-10.38,1.75 c -2.62,3.25-1.21,3.54-7.85,11.37 a 39.84,39.84,0,0,0-9.83,23.13 l -1.46-.58Z" fill="param(main_colour)"/>
  </g>
  <g id="fixed-colours">
    <path d="M 106.92,143.07 a 39.6,39.6,0,0,0-2.67,12,56.73,56.73,0,0,1,2.58-8.92 c .13-.32.25-.59.37-.88 a 54.42,54.42,0,0,1,3.39-7.12 c 2.33-4.17,5.6-7.71,6.44-10.87,0,0-4.53,6-7.31,10.25 a 33,33,0,0,0-2.2,4.06 C 107.34,142,107.13,142.53,106.92,143.07Z" opacity="0.5"/>
    <g opacity="0.6">
      <polygon points="117.83 128.15 117.39 129.05 117.37 129.04 117.83 128.15" fill="#fff"/>
      <polygon points="116.72 130.39 116.26 131.28 116.19 131.24 116.67 130.37 116.72 130.39" fill="#fff"/>
      <polygon points="115.55 132.6 115.07 133.48 114.97 133.42 115.46 132.55 115.55 132.6" fill="#fff"/>
      <polygon points="114.33 134.79 113.82 135.65 113.67 135.56 114.2 134.71 114.33 134.79" fill="#fff"/>
      <polygon points="113.03 136.92 112.47 137.76 112.28 137.63 112.86 136.81 113.03 136.92" fill="#fff"/>
      <polygon points="111.66 139.01 111.18 139.88 110.87 139.71 111.41 138.86 111.66 139.01" fill="#fff"/>
      <polygon points="110.5 141.21 110.07 142.11 109.68 141.92 110.13 141.02 110.5 141.21" fill="#fff"/>
      <polygon points="109.47 143.47 109.09 144.39 108.64 144.21 109.04 143.28 109.47 143.47" fill="#fff"/>
      <polygon points="108.55 145.78 108.2 146.71 107.75 146.56 108.09 145.61 108.55 145.78" fill="#fff"/>
      <polygon points="107.72 148.13 107.42 149.07 107 148.95 107.29 147.99 107.72 148.13" fill="#fff"/>
      <polygon points="107 150.51 106.73 151.47 106.4 151.39 106.62 150.41 107 150.51" fill="#fff"/>
      <polygon points="106.36 152.92 106.13 153.89 105.96 153.86 106.11 152.87 106.36 152.92" fill="#fff"/>
      <polygon points="105.81 155.35 105.74 155.74 105.78 155.35 105.81 155.35" fill="#fff"/>
    </g>
    <path d="M 99.66,161.77 a 31.73,31.73,0,0,1,.05-7.46 c 4.19,3.31,15.57,8.83,25.82,3.85-.62,3.42-1.24,7.17-1.24,7.17 S 112.41,170.46,99.66,161.77Z" fill="#fff" opacity="0.7"/>
  </g>
  <g id="outline">
    <path d="M 133.75,125 a 8.74,8.74,0,0,0-16.68-3.65 h 0 c -1.82,4.1-4.33,6.89-9,12.57 s -6.7,13.88-6.7,13.88 h 0 c -.41,1.63-.8,3.35-1.12,5.18 l -1.32.15 a 42.72,42.72,0,0,0-.42,5.29 c 0,2,.29,4.17.29,4.17 l .65.36 a 62.64,62.64,0,0,0,3.28,18.48 c 1.92,5.92,9.88,26.75,11,44.38 a 3.75,3.75,0,0,0,.47,1.42,3.22,3.22,0,0,0,2.39,1.31,5.55,5.55,0,0,1-.92-3.22 c -.08-1.23-.11-2.4-.24-4 a 96.19,96.19,0,0,0-3.34-16.09 c -2.29-8.13-5.53-18.47-8.25-27.93 a 53,53,0,0,1-2.16-13.17 c 8.12,4,15.17,4.17,19.63,3.17-.18,1.54-.32,3-.44,4.63-1,13-.81,23.44.38,33,.68,5.46,1.87,11.19,2.77,15.11.37,1.39.77,2.95,1,4.55 a 5.59,5.59,0,0,1,.12.63,4.57,4.57,0,0,1-.33,2.4,3.71,3.71,0,0,0,2.13-2.72,5.85,5.85,0,0,0-.24-1.4 c -.69-3-3.64-12.16-4.08-23.23 a 194.07,194.07,0,0,1,1.55-33.8 c .6-.23.93-.39.93-.39 s .67-4.83,1.33-8.83 l -.69-.42 A 190.32,190.32,0,0,1,131,136.07 c 1.24-4.08,1.91-6.69,2.28-8.35 a 8.7,8.7,0,0,0,.42-2.34 A 2.42,2.42,0,0,0,133.75,125Z m -10,39.92 c -7.7,3.05-17.89,0-22.06-2.62 h 0 c -.27-.17-.53-.34-.75-.51 a 6.08,6.08,0,0,1-.58-.49 c 0-.2-.08-.4-.11-.6 a 18.28,18.28,0,0,1,.11-5.15 c 12.79,9,24.26,3.88,24.26,3.88 S 124.16,161.84,123.72,164.9Z M 131.67,126 c 0,.25-.12.56-.2.93,0,0,0,.09-.05.13 a 36.53,36.53,0,0,1-1.25,5 c -3.84,12.5-6,20.3-7.31,26.16-9.11,3.15-17.33-1.43-19.33-2.43-.41-.2-.84-.44-1.27-.67 a 54.89,54.89,0,0,1,1.45-6.62 h 0 c 2.08-7.5,4.83-12.67,8.58-17 A 51.08,51.08,0,0,0,119.57,121 h 0 a 6.73,6.73,0,0,1,12.08,5Z"/>
  </g>
<script type="text/ecmascript" xlink:href="param.min.js"/> 
</svg>
