<?xml version="1.0"?>
<svg xmlns="http://www.w3.org/2000/svg" xmlns:xlink="http://www.w3.org/1999/xlink" viewBox="0 0 600 600">
  <title>girl-power-slogan-curvy</title>
  <g id="main-colour">
    <path d="M 306.34,271.52 l 4.3-.24 c -.19,2.28-.45,4.56-.73,6.83-.43,3.43-2.05,5.49-4.68,5.7 s -3.92-1.66-3.83-5.12 c .11-3.75.18-7.52,0-11.29-.21-3.48,1.16-5.55,4.49-5.69 s 5.18,1.75,5,5.2q0,1-.11,2.1 l -3,.16q0-1.16,0-2.32 c 0-1.54-.68-2.1-1.72-2.05 s -1.65.67-1.6,2.22 c .1,3.91-.09,7.81-.33,11.69-.09,1.54.43,2.06,1.31,2 s 1.5-.66,1.64-2.19 c .12-1.32.24-2.65.34-4 l -1.35.08Q306.27,273.06,306.34,271.52Z" fill="param(main_colour)"/>
    <path d="M 313.07,261.63 l 3.38-.14 c -.06,7.15-1.46,14.32-2.7,21.43 l -2.72.2 C 312.05,276,313.24,268.8,313.07,261.63Z" fill="param(main_colour)"/>
    <path d="M 321.48,282.35 a 7.8,7.8,0,0,1,.42-2.58q.43-1.67.85-3.33 c .5-2,.06-2.67-1.3-2.59 l -1,.06 c -.6,2.89-1.28,5.78-1.93,8.66 l -2.74.2 c 1.4-7.1,3-14.25,3.17-21.39 l 5.11-.21 c 3.51-.13,4.9,1.41,4.24,4.68q-.17.83-.35,1.67 a 6,6,0,0,1-3.05,4.41 c 1.37.62,1.44,2.19.81,4.4q-.46,1.63-.94,3.26 a 7.43,7.43,0,0,0-.43,2.54Z m .55-18.05 c -.24,2.19-.6,4.37-1,6.56 l 1.21-.07 c 1.15-.06,2-.65,2.33-2.35q.21-1,.39-2.1 c .26-1.52-.17-2.17-1.33-2.12Z" fill="param(main_colour)"/>
    <path d="M 331.32,260.89 l 3.41-.13 a 119,119,0,0,1-5.12,18.07 l 4.74-.31-1.16,3-7.37.52 C 328,275,330.32,267.94,331.32,260.89Z" fill="param(main_colour)"/>
    <path d="M 305.56,290.89q0,.87-.07,1.73 c -.07,2.13-.76,3.36-2.21,3.51 l -.68.07 c .07,1.67.18,3.35.36,5 l -1.34.15 A 97.32,97.32,0,0,1,301,288 l 2.35-.2 C 305,287.65,305.67,288.76,305.56,290.89Z m -3-1.12 c 0,1.51,0,3,0,4.53 l .7-.07 c .47,0,.72-.38.73-1.33q0-1,0-2 c 0-1-.23-1.24-.73-1.19Z" fill="param(main_colour)"/>
    <path d="M 306.22,290.74 c .12-2.14,1.09-3.43,2.68-3.56 s 2.3,1,2,3.14 c -.26,2.3-.46,4.6-.56,6.89-.09,2.12-.8,3.41-2.14,3.57 s -2.14-1-2.18-3.11 C 306,295.36,306.1,293,306.22,290.74Z m 1.26,6.91 c 0,.95.29,1.28.73,1.23 s .72-.44.74-1.39 c .05-2.39.22-4.78.44-7.17.09-.95-.18-1.28-.69-1.24 s -.85.43-.93,1.38 C 307.6,292.86,307.49,295.26,307.48,297.65Z" fill="param(main_colour)"/>
    <path d="M 315,292.92 c -.51,2.36-.93,4.72-1.22,7.08 l -1.89.21 a 117.73,117.73,0,0,1,.16-13.15 l 1.58-.13 c -.27,3.47-.48,6.92-.49,10.36 a 101.14,101.14,0,0,1,2.15-10.49 l 1.58-.13 c -.43,3.48-.79,6.95-.93,10.4 a 103.15,103.15,0,0,1,2.61-10.54 l 1.44-.12 a 94,94,0,0,0-3.35,13.26 l -1.84.21 C 314.74,297.57,314.83,295.24,315,292.92Z" fill="param(main_colour)"/>
    <path d="M 321.07,291.76 l 2.13-.2q-.23.93-.45,1.87 l -2.08.2q-.39,1.92-.7,3.83 l 2.5-.26q-.18.93-.33,1.86 l -3.84.43 a 105.7,105.7,0,0,1,2.48-13.13 l 4.51-.36q-.28.94-.55,1.87 l -2.8.23Q321.48,289.93,321.07,291.76Z" fill="param(main_colour)"/>
    <path d="M 326,298.64 a 5.23,5.23,0,0,1,.23-1.58q.24-1,.51-2 c .32-1.21.15-1.62-.54-1.56 l -.53.05 c -.47,1.77-.88,3.53-1.23,5.3 L 323,299 a 111.15,111.15,0,0,1,3.31-13.05 l 2.52-.2 c 1.74-.13,2.11.79,1.4,2.8 l -.35,1 a 4.77,4.77,0,0,1-1.88,2.73 c .65.36.59,1.31.2,2.66q-.28,1-.54,2 a 5,5,0,0,0-.23,1.56Z m 1.4-11q-.64,2-1.21,4 l .61-.06 c .58-.05,1-.42,1.36-1.46 l .41-1.28 c .31-.93.19-1.32-.39-1.27Z" fill="param(main_colour)"/>
  </g>
  <g id="fixed-colours">
    <path d="M 271.89,276.93 a 20,20,0,0,0,22.17,18.45,31.9,31.9,0,0,1-11.43-4.1 C 277.34,287.87,274.39,283.63,271.89,276.93Z" opacity="0.4"/>
    <path d="M 333.23,274.55 s -18.28-1.27-27.17,7.62 C 312.16,273.78,324.09,271,333.23,274.55Z" opacity="0.2"/>
    <path d="M 313.18,270.48 s 7.87,2.54,14-3.55 C 323.84,268.71,317,270.74,313.18,270.48Z" opacity="0.2"/>
  </g>
<script type="text/ecmascript" xlink:href="param.min.js"/> 
</svg>
