<?xml version="1.0"?>
<svg xmlns="http://www.w3.org/2000/svg" xmlns:xlink="http://www.w3.org/1999/xlink" viewBox="0 0 600 600">
  <title>sassy-slogan-curvy</title>
  <g id="main-colour">
    <path d="M 304.05,268.11 l -1.06.12q-.11-1.86-.25-3.72 a 1.19,1.19,0,0,0-.31-.75,1,1,0,0,0-.83-.24,1,1,0,0,0-.76.41,1.14,1.14,0,0,0-.17.8,18.32,18.32,0,0,0,.47,3.1,18.75,18.75,0,0,0,.72,2.37 c .27.7.55,1.37.85,2,.12.34.24.63.38.94 a 12,12,0,0,1,.56,1.62,18.88,18.88,0,0,1,.47,1.94 c .13.69.18,1.51.28,2.42 a 2.48,2.48,0,0,1,0,.88,2.3,2.3,0,0,1-.31.71,2.77,2.77,0,0,1-.58.51,2.62,2.62,0,0,1-.86.26,1.81,1.81,0,0,1-1.5-.36,2.06,2.06,0,0,1-.68-1.45 c -.11-1.25-.21-2.5-.31-3.75 l 1-.14 c .1,1.25.2,2.5.31,3.75 a 1.32,1.32,0,0,0,.29.74.91.91,0,0,0,.78.2.9.9,0,0,0,.7-.4,1.28,1.28,0,0,0,.13-.8,21.88,21.88,0,0,0-.49-3.1,18.43,18.43,0,0,0-.7-2.36 c -.21-.52-.38-1-.6-1.46 l -.65-1.46 a 13.13,13.13,0,0,1-.59-1.61,18.36,18.36,0,0,1-.51-2,23.33,23.33,0,0,1-.27-2.44,2.44,2.44,0,0,1,.07-.91,2.23,2.23,0,0,1,.37-.68,2,2,0,0,1,.64-.5,3,3,0,0,1,.92-.26,2,2,0,0,1,1.57.4,2.08,2.08,0,0,1,.69,1.48 C 303.91,265.63,304,266.87,304.05,268.11Z" fill="param(main_colour)"/>
    <path d="M 311.71,280 c -.25-1-.44-2.09-.6-3.13 l -1.32.17 c 0,1.07,0,2.14.13,3.2 l -1,.14 c -.51-6.25.56-12.52.37-18.77 l 1-.11 c 1.21,6.15.94,12.28,2.36,18.37Z m -1.9-4.13,1.14-.15 c -.33-2.48-.52-5-.76-7.46 C 310,270.78,309.84,273.31,309.81,275.85Z" fill="param(main_colour)"/>
    <path d="M 320.77,266.2 l -1,.12 c 0-1.22-.05-2.43-.15-3.65 a 1.16,1.16,0,0,0-.31-.73,1,1,0,0,0-.81-.24,1,1,0,0,0-.73.4,1.15,1.15,0,0,0-.16.78,24.29,24.29,0,0,0,.36,3,18.52,18.52,0,0,0,.57,2.33,20.23,20.23,0,0,0,.72,1.93 c .1.33.2.62.32.92 a 11.32,11.32,0,0,1,.47,1.59,18.91,18.91,0,0,1,.38,1.9 c .1.68.11,1.48.18,2.37 a 2.41,2.41,0,0,1-.07.86,2.34,2.34,0,0,1-.33.69,2.88,2.88,0,0,1-.59.5,2.71,2.71,0,0,1-.86.25,1.89,1.89,0,0,1-1.52-.36,2,2,0,0,1-.71-1.42 c -.11-1.22-.17-2.45-.19-3.67 l 1.06-.13 c 0,1.22.07,2.45.18,3.67 a 1.25,1.25,0,0,0,.3.73,1,1,0,0,0,.8.2.93.93,0,0,0,.71-.39,1.24,1.24,0,0,0,.15-.78,25.06,25.06,0,0,0-.37-3,19,19,0,0,0-.57-2.31 c -.18-.51-.32-1-.5-1.43 l -.54-1.43 a 12.18,12.18,0,0,1-.47-1.58 c -.14-.58-.28-1.23-.38-1.92 s -.11-1.51-.18-2.39 a 2.54,2.54,0,0,1,.07-.89,2.21,2.21,0,0,1,.35-.67,1.85,1.85,0,0,1,.61-.48,2.85,2.85,0,0,1,.88-.26,2,2,0,0,1,1.55.39,2,2,0,0,1,.7,1.45 C 320.72,263.77,320.76,265,320.77,266.2Z" fill="param(main_colour)"/>
    <path d="M 329.31,265.25 l -1,.12 c 0-1.2-.08-2.4-.18-3.6 a 1.17,1.17,0,0,0-.31-.72,1,1,0,0,0-.8-.24.93.93,0,0,0-.72.4,1.11,1.11,0,0,0-.15.77,24.06,24.06,0,0,0,.38,3,18.58,18.58,0,0,0,.58,2.3,19.85,19.85,0,0,0,.74,1.91 c .1.33.2.61.33.91 a 10.93,10.93,0,0,1,.48,1.57,17,17,0,0,1,.38,1.88 c .1.67.1,1.46.15,2.34 a 2.26,2.26,0,0,1-.1.85,2.4,2.4,0,0,1-.37.68,3.1,3.1,0,0,1-.63.49,2.91,2.91,0,0,1-.89.25,1.79,1.79,0,0,1-2.19-1.76 c -.07-1.21-.1-2.42-.11-3.63 l 1.07-.13 c 0,1.21,0,2.42.11,3.63 a 1.18,1.18,0,0,0,.28.72,1,1,0,0,0,.8.2,1,1,0,0,0,.74-.39 A 1.22,1.22,0,0,0,328,276 a 20,20,0,0,0-.32-3,17.45,17.45,0,0,0-.57-2.29 c -.18-.5-.33-1-.51-1.41,0,0-.37-.93-.55-1.41 a 11.77,11.77,0,0,1-.48-1.56 c -.15-.58-.28-1.22-.39-1.9 s -.13-1.5-.2-2.36 a 2.53,2.53,0,0,1,.06-.88,2.14,2.14,0,0,1,.33-.66,1.79,1.79,0,0,1,.6-.48,2.81,2.81,0,0,1,.87-.25,2,2,0,0,1,1.53.39,2,2,0,0,1,.7,1.44 C 329.22,262.85,329.27,264,329.31,265.25Z" fill="param(main_colour)"/>
    <path d="M 337.37,258.67 c -.42,3-.82,6.1-1.26,9.16q.17,4.48.39,8.95 l -1,.13 c -.16-3-.26-6-.35-9-.66-2.93-1.26-5.86-2.12-8.81 l 1-.1 c .58,2,1,4.09,1.51,6.12.3-2.12.58-4.24.84-6.35Z" fill="param(main_colour)"/>
  </g>
  <g id="fixed-colours">
    <path d="M 304.23,283.15 c -8.46,4.78-13.95,5.54-21.42,5 C 289.71,291.7,299.52,289.12,304.23,283.15Z" opacity="0.4"/>
    <path d="M 331.9,273.4 s -15.54-1.08-23.09,6.48 C 314,272.76,324.13,270.38,331.9,273.4Z" opacity="0.2"/>
    <path d="M 314.85,269.95 a 12.31,12.31,0,0,0,11.87-3 C 323.91,268.44,318.09,270.17,314.85,269.95Z" opacity="0.2"/>
  </g>
<script type="text/ecmascript" xlink:href="param.min.js"/> 
</svg>
