<?xml version="1.0"?>
<svg xmlns="http://www.w3.org/2000/svg" xmlns:xlink="http://www.w3.org/1999/xlink" viewBox="0 0 600 600">
  <title>sassy-slogan-curvy</title>
  <g id="main-colour">
    <path d="M 295.08,272.39 l -1.13.06 c 0-1.33-.05-2.66-.1-4 a 1.31,1.31,0,0,0-.3-.82,1.1,1.1,0,0,0-.87-.31,1,1,0,0,0-.82.39,1.2,1.2,0,0,0-.22.84,19.38,19.38,0,0,0,.35,3.33,20,20,0,0,0,.66,2.58 c .26.77.53,1.5.83,2.17.11.37.23.69.36,1 a 13,13,0,0,1,.52,1.78,19.3,19.3,0,0,1,.41,2.11 c .1.75.11,1.62.16,2.6 a 2.58,2.58,0,0,1-.1.94,2.47,2.47,0,0,1-.39.73,3,3,0,0,1-.66.5,2.84,2.84,0,0,1-.94.21,1.93,1.93,0,0,1-1.57-.5,2.25,2.25,0,0,1-.64-1.6q-.07-2-.14-4 l 1.1-.07q.06,2,.13,4 a 1.44,1.44,0,0,0,.27.81,1,1,0,0,0,.82.27,1,1,0,0,0,.77-.38,1.37,1.37,0,0,0,.19-.84,22,22,0,0,0-.35-3.35,19.61,19.61,0,0,0-.64-2.58 c -.21-.57-.37-1.08-.57-1.6 l -.63-1.6 a 14.06,14.06,0,0,1-.56-1.76,19.52,19.52,0,0,1-.45-2.12,25,25,0,0,1-.16-2.62,2.56,2.56,0,0,1,.12-1,2.3,2.3,0,0,1,.42-.7,2,2,0,0,1,.7-.49,3.12,3.12,0,0,1,1-.22,2.13,2.13,0,0,1,1.64.53,2.29,2.29,0,0,1,.67,1.63 C 295,269.73,295.06,271.06,295.08,272.39Z" fill="param(main_colour)"/>
    <path d="M 302.68,285.62 c -.19-1.13-.34-2.25-.46-3.38 l -1.41.09 c -.05,1.14-.07,2.28-.06,3.42 l -1.07.07 c -.1-6.68,1.19-13.37,1.21-20 l 1.11,0 c 1.07,6.62.63,13.23,1.76,19.8Z m -1.79-4.54,1.22-.08 c -.24-2.68-.34-5.36-.51-8 C 301.35,275.66,301.05,278.37,300.89,281.08Z" fill="param(main_colour)"/>
    <path d="M 312.91,271.51 l -1.12.05 c 0-1.3,0-2.6,0-3.91 a 1.27,1.27,0,0,0-.3-.8,1.1,1.1,0,0,0-.86-.31,1,1,0,0,0-.79.38,1.18,1.18,0,0,0-.2.82,26,26,0,0,0,.27,3.27,20.55,20.55,0,0,0,.52,2.53 c .21.75.44,1.47.7,2.12.09.36.19.68.3,1 a 12.69,12.69,0,0,1,.43,1.74,20.83,20.83,0,0,1,.33,2.06 c .08.73.06,1.59.1,2.55 a 2.56,2.56,0,0,1-.11.92,2.47,2.47,0,0,1-.39.71,3,3,0,0,1-.65.49,2.83,2.83,0,0,1-.93.21,2.06,2.06,0,0,1-1.6-.49,2.17,2.17,0,0,1-.68-1.56 c -.06-1.31-.07-2.63,0-3.94 l 1.13-.07 c 0,1.31,0,2.63,0,3.94 a 1.35,1.35,0,0,0,.28.8,1,1,0,0,0,.84.27,1,1,0,0,0,.78-.37,1.3,1.3,0,0,0,.2-.82,26.6,26.6,0,0,0-.27-3.28,20.48,20.48,0,0,0-.51-2.52 c -.18-.56-.31-1.06-.48-1.57 l -.52-1.57 a 13.35,13.35,0,0,1-.44-1.72 c -.13-.63-.25-1.34-.33-2.08 s -.07-1.63-.1-2.56 a 2.62,2.62,0,0,1,.11-.94,2.24,2.24,0,0,1,.4-.68,1.88,1.88,0,0,1,.67-.47,3,3,0,0,1,1-.21,2.17,2.17,0,0,1,1.64.52,2.21,2.21,0,0,1,.68,1.59 C 313,268.91,312.94,270.21,312.91,271.51Z" fill="param(main_colour)"/>
    <path d="M 322,271.07 l -1.11.05 c 0-1.29,0-2.57,0-3.86 a 1.25,1.25,0,0,0-.29-.79,1.09,1.09,0,0,0-.85-.31,1,1,0,0,0-.79.37,1.18,1.18,0,0,0-.21.81,24.33,24.33,0,0,0,.25,3.23,20,20,0,0,0,.51,2.5 c .21.74.44,1.46.7,2.1.09.36.19.67.31,1 a 11.9,11.9,0,0,1,.44,1.72,18.38,18.38,0,0,1,.32,2 c .08.72,0,1.57.06,2.52 a 2.3,2.3,0,0,1-.55,1.61,3.08,3.08,0,0,1-.68.48,3,3,0,0,1-.95.21,2,2,0,0,1-1.59-.48,2.08,2.08,0,0,1-.65-1.54 c 0-1.3,0-2.6,0-3.9 l 1.14-.07 c 0,1.3-.06,2.6,0,3.89 a 1.3,1.3,0,0,0,.26.79,1,1,0,0,0,.84.26,1,1,0,0,0,.8-.37,1.3,1.3,0,0,0,.22-.82,22.47,22.47,0,0,0-.22-3.24,19.26,19.26,0,0,0-.51-2.49 c -.17-.55-.31-1.05-.48-1.55 l -.52-1.55 a 12.46,12.46,0,0,1-.44-1.7 c -.13-.63-.25-1.33-.32-2.06 s -.06-1.61-.09-2.53 a 2.57,2.57,0,0,1,.11-.93,2.2,2.2,0,0,1,.4-.68,1.87,1.87,0,0,1,.67-.47,3,3,0,0,1,1-.21,2.14,2.14,0,0,1,1.62.52,2.16,2.16,0,0,1,.65,1.58 C 322.08,268.5,322.07,269.79,322,271.07Z" fill="param(main_colour)"/>
    <path d="M 331.06,264.59 c -.63,3.23-1.24,6.46-1.9,9.7-.06,3.2-.11,6.4-.13,9.6 l -1.1.07 c 0-3.21.06-6.42.13-9.64-.53-3.17-1-6.36-1.73-9.55 l 1.1,0 c .48,2.22.86,4.43,1.23,6.64.45-2.25.87-4.49,1.29-6.73Z" fill="param(main_colour)"/>
  </g>
<script type="text/ecmascript" xlink:href="param.min.js"/> 
</svg>
