<?xml version="1.0"?>
<svg xmlns="http://www.w3.org/2000/svg" xmlns:xlink="http://www.w3.org/1999/xlink" viewBox="0 0 600 600">
  <title>sassy-slogan-voluptuous</title>
  <g id="main-colour">
    <path d="M 337.38,262.92 a 2.4,2.4,0,0,1,.45-1.71,2.15,2.15,0,0,1,1.57-.76,3.24,3.24,0,0,1,1,.08,2,2,0,0,1,.77.38,2.07,2.07,0,0,1,.5.63,2.4,2.4,0,0,1,.21.93 A 21.21,21.21,0,0,1,342,265 a 18.06,18.06,0,0,1-.3,2.16,13.56,13.56,0,0,1-.46,1.82 c -.19.57-.56,1.68-.56,1.68-.19.54-.34,1.08-.53,1.68 a 19.12,19.12,0,0,0-.56,2.66,16.69,16.69,0,0,0-.15,3.36,1.14,1.14,0,0,0,.29.79,1,1,0,0,0,.87.22,1.25,1.25,0,0,0,.87-.43,1.44,1.44,0,0,0,.22-.85q-.08-2-.14-4 l 1.19-.14q.08,2,.16,4 a 2.34,2.34,0,0,1-.56,1.69,2.45,2.45,0,0,1-1.64.79,3.23,3.23,0,0,1-1,0,3,3,0,0,1-.76-.36,2.15,2.15,0,0,1-.5-.64,2.19,2.19,0,0,1-.2-.9,19.68,19.68,0,0,1,0-2.6,16.93,16.93,0,0,1,.35-2.16,13.71,13.71,0,0,1,.5-1.85 c .13-.36.24-.7.35-1.09 a 23.29,23.29,0,0,0,.76-2.28,17.86,17.86,0,0,0,.52-2.66,16.57,16.57,0,0,0,.08-3.34,1.14,1.14,0,0,0-.3-.8,1,1,0,0,0-.86-.26,1.13,1.13,0,0,0-.82.43,1.36,1.36,0,0,0-.2.85 c .1,1.32.16,2.65.2,4 l -1.14.12 C 337.55,265.57,337.49,264.24,337.38,262.92Z" fill="param(main_colour)"/>
    <path d="M 329,281.67 c -.19-6.79,1.47-13.59.9-20.37 l 1.13-.11 c 1.55,6.67,1.14,13.34,2.28,20 l -1.14.14 c -.19-1.13-.34-2.27-.47-3.4 l -1.51.18 c -.06,1.16-.08,2.32-.06,3.48Z m 2-13.15 c -.21,2.75-.53,5.51-.72,8.26 l 1.31-.15 C 331.31,273.93,331.2,271.23,331,268.52Z" fill="param(main_colour)"/>
    <path d="M 319.14,264.83 a 2.51,2.51,0,0,1,.44-1.75,2.09,2.09,0,0,1,1.55-.78,3.23,3.23,0,0,1,1,.07,2.15,2.15,0,0,1,.79.38,2.26,2.26,0,0,1,.54.64,2.44,2.44,0,0,1,.26.95,12.72,12.72,0,0,1-.29,4.85,13.75,13.75,0,0,1-.55,1.86 c -.22.58-.65,1.72-.65,1.72-.22.56-.39,1.11-.6,1.72 a 16.89,16.89,0,0,0-.61,2.72,13.8,13.8,0,0,0-.08,3.44,1.25,1.25,0,0,0,.33.81,1,1,0,0,0,.86.23,1.1,1.1,0,0,0,.81-.44,1.55,1.55,0,0,0,.17-.87 c -.11-1.35-.15-2.7-.15-4.06 l 1.18-.14 c 0,1.35,0,2.7.14,4.05 a 2.49,2.49,0,0,1-.44,1.72,2.1,2.1,0,0,1-1.52.81,3,3,0,0,1-1,0,3.15,3.15,0,0,1-.78-.37,2.41,2.41,0,0,1-.54-.65,2.34,2.34,0,0,1-.25-.92,15.79,15.79,0,0,1-.09-2.66,14.91,14.91,0,0,1,.35-2.21,12.74,12.74,0,0,1,.54-1.9 c .14-.37.26-.72.38-1.11.31-.72.6-1.52.86-2.34 a 17,17,0,0,0,.62-2.72,13.66,13.66,0,0,0,.1-3.41,1.18,1.18,0,0,0-.33-.81,1.05,1.05,0,0,0-.88-.27,1.12,1.12,0,0,0-.82.45,1.39,1.39,0,0,0-.2.87 c .11,1.35.15,2.7.15,4.06 l -1.17.13 C 319.28,267.54,319.25,266.18,319.14,264.83Z" fill="param(main_colour)"/>
    <path d="M 309.5,265.85 a 2.51,2.51,0,0,1,.48-1.77,2.2,2.2,0,0,1,1.6-.79,3.29,3.29,0,0,1,1,.07,2.11,2.11,0,0,1,.79.39,2.26,2.26,0,0,1,.53.65,2.48,2.48,0,0,1,.24,1,17.33,17.33,0,0,1,.06,2.68,16.89,16.89,0,0,1-.36,2.23,14.68,14.68,0,0,1-.52,1.88 l -.61,1.74 c -.2.56-.36,1.12-.55,1.74 a 16.74,16.74,0,0,0-.52,2.75,14.47,14.47,0,0,0,0,3.47,1.32,1.32,0,0,0,.35.82,1,1,0,0,0,.86.23,1,1,0,0,0,.79-.44,1.57,1.57,0,0,0,.14-.88 c -.15-1.37-.23-2.73-.27-4.1 l 1.16-.14 c 0,1.37.11,2.73.26,4.1 a 2.51,2.51,0,0,1-.38,1.74,2,2,0,0,1-1.48.82,3,3,0,0,1-1,0,3.16,3.16,0,0,1-.78-.37,2.51,2.51,0,0,1-.55-.66,2.46,2.46,0,0,1-.27-.93,17.07,17.07,0,0,1-.17-2.68,15.33,15.33,0,0,1,.27-2.23,12.52,12.52,0,0,1,.47-1.92 c .13-.38.24-.72.35-1.12.29-.73.56-1.53.81-2.36 a 18.7,18.7,0,0,0,.59-2.74,15.07,15.07,0,0,0,.11-3.45,1.18,1.18,0,0,0-.32-.82,1,1,0,0,0-.89-.27,1.17,1.17,0,0,0-.85.45,1.42,1.42,0,0,0-.21.88 c .09,1.37.14,2.73.17,4.1 l -1.17.13 C 309.65,268.59,309.59,267.22,309.5,265.85Z" fill="param(main_colour)"/>
    <path d="M 300.8,264.32 c .66,2.37,1.29,4.73,1.86,7.09.29-2.46.59-4.92.81-7.37 l 1.17-.12 c -.31,3.53-.81,7.06-1.24,10.59.19,3.47.38,6.94.84,10.4 l -1.11.15 c -.43-3.46-.63-6.92-.85-10.38-.82-3.4-1.72-6.81-2.67-10.23Z" fill="param(main_colour)"/>
  </g>
  <g id="fixed-colours">
    <path d="M 334.57,274.55 s -18.28-1.27-27.17,7.62 C 313.49,273.78,325.43,271,334.57,274.55Z" opacity="0.2"/>
    <path d="M 314.51,270.48 s 7.87,2.54,14-3.55 C 325.17,268.71,318.32,270.74,314.51,270.48Z" opacity="0.2"/>
    <path d="M 295.07,297.54 c -12.33-.33-23.33-7.33-30-19.9 C 268.07,292.71,281.6,300.9,295.07,297.54Z" opacity="0.4"/>
  </g>
<script type="text/ecmascript" xlink:href="param.min.js"/> 
</svg>
