<?xml version="1.0"?>
<svg xmlns="http://www.w3.org/2000/svg" xmlns:xlink="http://www.w3.org/1999/xlink" viewBox="0 0 600 600">
  <title>love-slogan-voluptuous</title>
  <g id="main-colour">
    <path d="M 302.92,283.95 l -10.55,1.2,0-.52,1.88-.21 c -.48-4.65-.53-9.31-.86-14 l -2,.19,0-.52,6.7-.63q0,.26,0,.52 l -2.1.2 c .3,4.65.12,9.3.7,13.94 l 2.44-.28 a 2.82,2.82,0,0,0,2.37-1.47,7.23,7.23,0,0,0,.7-3.37 l .6-.06 A 30.88,30.88,0,0,0,302.92,283.95Z" fill="param(main_colour)"/>
    <path d="M 314.4,280.67 c -1.16,1.67-2.38,2.59-3.95,2.77 A 5.18,5.18,0,0,1,306,281.6 a 7,7,0,0,1-1.86-5.25,9.93,9.93,0,0,1,2-5.61,5.79,5.79,0,0,1,4.18-2.73,5.37,5.37,0,0,1,4.48,1.89,6.59,6.59,0,0,1,1.65,5.22 A 11,11,0,0,1,314.4,280.67Z m -.69-7.91 a 5,5,0,0,0-.78-3.32,2.81,2.81,0,0,0-2.56-.93 A 2.89,2.89,0,0,0,308,269.9 a 7.36,7.36,0,0,0-.81,3.49 c -.06,1.77-.19,3.54-.21,5.31 a 5.08,5.08,0,0,0,.9,3.33,2.67,2.67,0,0,0,2.51.9,2.71,2.71,0,0,0,2.25-1.41,8,8,0,0,0,.76-3.47 C 313.46,276.28,313.63,274.52,313.71,272.76Z" fill="param(main_colour)"/>
    <path d="M 327.06,267.31 c -.86,4.92-3.63,9.87-4.71,14.83 l -.58.06 c -2.07-4.63-2.4-9.3-4.45-14 l -1.63.15q0-.25-.06-.51 l 6.19-.57q0,.25.07.5 l -2,.19 c 1.49,3.32,2.09,6.63,3.06,9.91,1.29-3.52,2.88-7,3.54-10.52 l -2,.19q0-.25-.07-.5 l 4.21-.38q0,.25.07.5Z" fill="param(main_colour)"/>
    <path d="M 340.1,280 l -11.37,1.16q0-.25,0-.5 l 2-.2 c -.1-4.48.64-9,.13-13.47 l -1.92.17q0-.25-.07-.5 l 10.8-1 c .1,1.27.16,2.54.22,3.81 l -.54.05 A 4,4,0,0,0,338,267 a 3.81,3.81,0,0,0-2.47-.43 l -2.24.2 a 46.42,46.42,0,0,1,.12,6.29 l .52-.05 a 2.34,2.34,0,0,0,1.95-1,3.67,3.67,0,0,0,.49-1.9 l .54-.05 c 0,2,0,4-.07,6 l -.56.05 a 3.76,3.76,0,0,0-.42-1.94 c -.31-.54-1-.77-1.94-.67 l -.52.05 c -.08,2.22-.2,4.43-.17,6.65 l 2.68-.27 a 3.54,3.54,0,0,0,2.71-1.28,7.33,7.33,0,0,0,1-3.17 l .57-.06Q340.16,277.69,340.1,280Z" fill="param(main_colour)"/>
  </g>
  <g id="fixed-colours">
    <path d="M 330.32,276.71 s -16.25-2.23-24.72,5.17 C 311.55,274.76,322.38,273,330.32,276.71Z" opacity="0.2"/>
    <path d="M 312.66,271.88 a 13,13,0,0,0,12.68-2.33 C 322.29,270.93,316,272.33,312.66,271.88Z" opacity="0.2"/>
    <path d="M 289.64,295.38 A 30,30,0,0,1,278,290.07 a 29.52,29.52,0,0,1-9-13.13 C 269.41,287.59,279.25,296,289.64,295.38Z" opacity="0.4"/>
  </g>
<script type="text/ecmascript" xlink:href="param.min.js"/> 
</svg>
