<?xml version="1.0"?>
<svg xmlns="http://www.w3.org/2000/svg" xmlns:xlink="http://www.w3.org/1999/xlink" viewBox="0 0 600 600">
  <title>honey-slogan-hourglass</title>
  <g id="main-colour">
    <path d="M 342,276.82q0-.92,0-1.84 l .86-.11 c 0-1.23,0-2.46,0-3.69 l -3.36.41 c 0,1.24,0,2.47,0,3.7 l .86-.11q0,.92,0,1.85 l -3.43.44 c 0-.62,0-1.24,0-1.86 l .86-.11 c 0-3.09.22-6.19,0-9.28 l -.83.1 c 0-.62-.11-1.24-.2-1.86 l 3.34-.39 c .08.62.14,1.23.18,1.85 l -.83.1 c .09,1.24.11,2.47.11,3.71 l 3.33-.41 c 0-1.23-.05-2.46-.13-3.69 l -.83.1 c 0-.62-.09-1.23-.16-1.85 l 3.38-.38q.06.92.09,1.84 l -.83.1 c .14,3.07.16,6.14.25,9.21 l .86-.11q0,.92.06,1.84Z" fill="param(main_colour)"/>
    <path d="M 329.78,278.41q-.74-.66-1.44-1.32 c -.12-3.37.39-6.75.16-10.13q.62-.83,1.18-1.66 l 4-.47 c .52.44,1,.89,1.51,1.33.28,3.35-.09,6.71,0,10.06-.45.55-.89,1.11-1.31,1.66Z m 3.77-11.68-3.34.4 c .18,3.12-.23,6.25-.18,9.36 l 3.4-.44 C 333.41,273,333.76,269.84,333.55,266.73Z" fill="param(main_colour)"/>
    <path d="M 325.11,279 a 59.13,59.13,0,0,1,0-9 c -1.49,3.19-3.28,6.39-4.17,9.6 l -1.64.23 c -.75-4.41.17-8.84-.27-13.26 l 1.7-.2 a 78.22,78.22,0,0,1-.05,9.09 c 1.43-3.21,3.26-6.41,4.27-9.59 l 1.68-.2 c .59,4.39-.4,8.78.1,13.16Z" fill="param(main_colour)"/>
    <path d="M 311.23,281 c -.13-.64-.22-1.27-.3-1.91 l 4.9-.68 a 35.78,35.78,0,0,1-.13-3.8 l -3.35.44 c 0-.64,0-1.27,0-1.91 l 3.38-.43 c 0-1.27.06-2.54,0-3.81 l -5.15.63 c 0-.64-.05-1.28-.1-1.91 l 6.86-.83 c .41,4.44-.46,8.87.34,13.29Z" fill="param(main_colour)"/>
    <path d="M 306.55,274.84 a 50.12,50.12,0,0,0,.65,6.72 l -1.63.23 a 63.88,63.88,0,0,1-.66-6.73 c -1.22-2.09-2.5-4.2-3.88-6.31 l 1.74-.21q1.52,2.37,2.89,4.73 c .76-1.79,1.57-3.58,2.31-5.36 l 1.73-.21 C 308.69,270.07,307.55,272.45,306.55,274.84Z" fill="param(main_colour)"/>
  </g>
  <g id="fixed-colours">
    <path d="M 329.9,274.55 s -12-.83-17.83,5 C 316.07,274,323.9,272.21,329.9,274.55Z" opacity="0.2"/>
    <path d="M 316.73,271.88 a 9.5,9.5,0,0,0,9.17-2.33 C 323.73,270.71,319.23,272,316.73,271.88Z" opacity="0.2"/>
    <path d="M 275.9,284.25 c 10.5,12.13,21,14.63,34.13,11.25 C 298.38,302.39,282.36,297.84,275.9,284.25Z" opacity="0.4"/>
  </g>
<script type="text/ecmascript" xlink:href="param.min.js"/> 
</svg>
