<?xml version="1.0"?>
<svg xmlns="http://www.w3.org/2000/svg" xmlns:xlink="http://www.w3.org/1999/xlink" viewBox="0 0 600 600">
  <title>sassy-slogan-curvy</title>
  <g id="main-colour">
    <path d="M 339.22,263.05 a 2.4,2.4,0,0,1,.39-1.72,2.14,2.14,0,0,1,1.53-.82,3.27,3.27,0,0,1,1,0,2,2,0,0,1,.78.34,2.1,2.1,0,0,1,.52.6,2.38,2.38,0,0,1,.25.92,20.67,20.67,0,0,1,.15,2.58,18,18,0,0,1-.22,2.15,13.49,13.49,0,0,1-.39,1.83 c -.16.57-.5,1.7-.5,1.7-.17.55-.3,1.09-.47,1.69 a 19.41,19.41,0,0,0-.46,2.66,16.8,16.8,0,0,0,0,3.35,1.13,1.13,0,0,0,.31.78,1,1,0,0,0,.88.19,1.26,1.26,0,0,0,.85-.46 A 1.44,1.44,0,0,0,344,278q-.15-2-.28-3.94 l 1.18-.18q.14,2,.3,3.93 a 2.31,2.31,0,0,1-.5,1.7,2.48,2.48,0,0,1-1.62.85,3.24,3.24,0,0,1-1,0,3,3,0,0,1-.77-.33,2.05,2.05,0,0,1-.51-.62,2.15,2.15,0,0,1-.23-.89,20.17,20.17,0,0,1-.09-2.58,17.42,17.42,0,0,1,.28-2.16,13.5,13.5,0,0,1,.43-1.86 c .12-.37.21-.71.3-1.09 a 23.36,23.36,0,0,0,.68-2.3,17.71,17.71,0,0,0,.42-2.66,16.13,16.13,0,0,0,0-3.32,1.12,1.12,0,0,0-.33-.78,1,1,0,0,0-.87-.23,1.13,1.13,0,0,0-.81.47,1.35,1.35,0,0,0-.17.86 c .15,1.31.26,2.63.35,3.94 l -1.13.17 C 339.48,265.68,339.37,264.37,339.22,263.05Z" fill="param(main_colour)"/>
    <path d="M 331.47,282 c -.27-6.75,1-13.52.26-20.28 l 1.12-.16 c 1.7,6.61,1.67,13.19,2.92,19.73 l -1.14.19 c -.21-1.12-.38-2.24-.54-3.37 l -1.51.24 c 0,1.15,0,2.31,0,3.46Z M 333,268.89 c -.1,2.74-.31,5.48-.42,8.22 l 1.3-.21 C 333.59,274.24,333.36,271.57,333,268.89Z" fill="param(main_colour)"/>
    <path d="M 321.1,265.71 a 2.54,2.54,0,0,1,.41-1.76,2.15,2.15,0,0,1,1.53-.84,3.21,3.21,0,0,1,1,0,2.05,2.05,0,0,1,.79.35,2.25,2.25,0,0,1,.55.61,2.41,2.41,0,0,1,.28.94,16.48,16.48,0,0,1,.15,2.63,15.92,15.92,0,0,1-.29,2.2,13.59,13.59,0,0,1-.48,1.87 c -.19.59-.58,1.73-.58,1.73-.19.56-.34,1.12-.54,1.73 a 17.33,17.33,0,0,0-.52,2.72,14.29,14.29,0,0,0,0,3.42,1.22,1.22,0,0,0,.34.79,1,1,0,0,0,.86.19,1.14,1.14,0,0,0,.8-.47,1.55,1.55,0,0,0,.15-.87 c -.13-1.34-.21-2.68-.26-4 l 1.18-.19 c 0,1.34.12,2.68.25,4 a 2.5,2.5,0,0,1-.42,1.73,2.19,2.19,0,0,1-1.51.88,3,3,0,0,1-1,0,3,3,0,0,1-.78-.33,2.13,2.13,0,0,1-.81-1.54,16.48,16.48,0,0,1-.16-2.64,15.21,15.21,0,0,1,.28-2.21,12.91,12.91,0,0,1,.47-1.9 c .13-.38.24-.72.34-1.12.28-.73.54-1.53.77-2.35 a 17.33,17.33,0,0,0,.53-2.72,14.17,14.17,0,0,0,0-3.4,1.15,1.15,0,0,0-.35-.8,1,1,0,0,0-.88-.23,1.14,1.14,0,0,0-.81.48,1.41,1.41,0,0,0-.18.88 c .14,1.34.22,2.68.27,4 l -1.16.18 C 321.32,268.4,321.24,267.06,321.1,265.71Z" fill="param(main_colour)"/>
    <path d="M 311.52,267.14 a 2.54,2.54,0,0,1,.45-1.78,2.26,2.26,0,0,1,1.58-.86,3.27,3.27,0,0,1,1,0,2,2,0,0,1,.79.35,2.18,2.18,0,0,1,.54.62,2.44,2.44,0,0,1,.26.95,18.33,18.33,0,0,1,.13,2.66,17.53,17.53,0,0,1-.29,2.23,14.78,14.78,0,0,1-.45,1.89 L 315,275 c -.18.57-.32,1.13-.49,1.75 a 17,17,0,0,0-.43,2.75,14.8,14.8,0,0,0,.13,3.45,1.29,1.29,0,0,0,.37.8,1,1,0,0,0,.86.19,1.08,1.08,0,0,0,.78-.48,1.57,1.57,0,0,0,.12-.88 c -.18-1.35-.31-2.71-.39-4.06 l 1.16-.19 c .08,1.35.2,2.71.38,4.06 a 2.53,2.53,0,0,1-.34,1.75,2,2,0,0,1-1.46.89,2.9,2.9,0,0,1-1,0,3,3,0,0,1-.78-.33,2.38,2.38,0,0,1-.56-.64,2.42,2.42,0,0,1-.3-.92,17.31,17.31,0,0,1-.25-2.66,15.47,15.47,0,0,1,.2-2.23,12.7,12.7,0,0,1,.4-1.92 c .12-.38.21-.73.31-1.13.26-.74.5-1.55.72-2.37 a 19.19,19.19,0,0,0,.5-2.75,15.68,15.68,0,0,0,0-3.43,1.15,1.15,0,0,0-.34-.81,1,1,0,0,0-.89-.23,1.19,1.19,0,0,0-.84.49,1.42,1.42,0,0,0-.19.89 c .12,1.36.21,2.71.28,4.07 l -1.16.18 C 311.74,269.86,311.65,268.5,311.52,267.14Z" fill="param(main_colour)"/>
    <path d="M 302.82,266q1.09,3.5,2.06,7 c .21-2.46.43-4.91.59-7.37 l 1.16-.17 c -.23,3.53-.61,7.06-.92,10.59.3,3.44.6,6.88,1.18,10.3 l -1.09.2 c -.55-3.42-.87-6.85-1.19-10.29q-1.38-5-3-10.06Z" fill="param(main_colour)"/>
  </g>
  <g id="fixed-colours">
    <path d="M 336,274.9 s -19.14-1.33-28.44,8 C 313.95,274.11,326.44,271.18,336,274.9Z" opacity="0.2"/>
    <path d="M 315,270.65 s 8.24,2.66,14.62-3.72 C 326.18,268.79,319,270.92,315,270.65Z" opacity="0.2"/>
    <path d="M 270.79,277.64 c 4.78,15.74,15.94,21.74,29.11,19.57 C 288.4,295.88,278.75,293,270.79,277.64Z" opacity="0.4"/>
  </g>
<script type="text/ecmascript" xlink:href="param.min.js"/> 
</svg>
