<?xml version="1.0"?>
<svg xmlns="http://www.w3.org/2000/svg" xmlns:xlink="http://www.w3.org/1999/xlink" viewBox="0 0 250 250">
  <title>denim-shorts-hourglass</title>
  <g id="skin-tone">
    <path d="M 129.63,162.09 c -8.51.62-19.34-2.43-24.92-4.27,8.7,20.81,12.58,32.32,15.49,39.33 s 4.82,18.92,5.36,19.51 h .11 c 0,.2,0,.39,0,.6 a 6.74,6.74,0,0,0,11.15,5.19 l .08.06 a 12.15,12.15,0,0,0,2.84-3.72 c 1.19-3,3.88-13.52,6.35-34.93,1.12-9.73,2.09-19,2.85-27.32 A 49.33,49.33,0,0,1,129.63,162.09Z" fill="param(skin_tone)"/>
  </g>
  <g id="main-colour">
    <path d="M 129.63,162.09 c 8-.59,16.12-3.19,20.54-6.44,1.16-12.62.58-22.08.64-28.25 l -.31-2.09 h 0 a 25.5,25.5,0,0,0-51-.62 h 0 S 98.33,144,104,157.57 c 0,.08.67.18.7.26 C 110.29,159.65,121.12,162.71,129.63,162.09Z" fill="param(main_colour)"/>
  </g>
  <g id="fixed-colours">
    <path d="M 103.56,157.52 a 23.91,23.91,0,0,1-1.5-6.75 c 8.38,2.38,18.63,4.44,27.88,3.94 s 17.81-3.56,20.56-6.25 c .5,2.63-.33,7.19-.33,7.19 s -14.92,12.25-44.23,2.94Z" fill="#fff" opacity="0.7"/>
    <g opacity="0.6">
      <polygon points="102.47 127.4 102.58 127.88 102.53 127.89 102.47 127.4" fill="#fff"/>
      <polygon points="102.9 129.28 103.12 130.22 102.89 130.26 102.74 129.31 102.9 129.28" fill="#fff"/>
      <polygon points="103.43 131.62 103.63 132.56 103.29 132.63 103.13 131.68 103.43 131.62" fill="#fff"/>
      <polygon points="103.95 133.96 104.15 134.9 103.72 134.99 103.54 134.04 103.95 133.96" fill="#fff"/>
      <polygon points="104.45 136.31 104.66 137.24 104.2 137.34 104.01 136.4 104.45 136.31" fill="#fff"/>
      <rect x="104.58" y="138.69" width="0.49" height="0.96" transform="translate(-27.24 25.53) rotate(-12.3)" fill="#fff"/>
      <polygon points="105.47 140.99 105.67 141.93 105.23 142.03 105.01 141.09 105.47 140.99" fill="#fff"/>
      <polygon points="105.98 143.33 106.19 144.27 105.78 144.36 105.56 143.43 105.98 143.33" fill="#fff"/>
      <polygon points="106.49 145.67 106.69 146.61 106.39 146.69 106.15 145.76 106.49 145.67" fill="#fff"/>
      <polygon points="107 148.02 107.19 148.96 107.03 149 106.77 148.08 107 148.02" fill="#fff"/>
      <polygon points="107.5 150.41 107.6 150.9 107.45 150.42 107.5 150.41" fill="#fff"/>
    </g>
    <path d="M 106,150.59 c -.56-2.37-1.87-8.44-2.25-10.75,0,0,0-.07,0-.11-1.57-7.35-2.3-12.41-2.3-12.41 a 102.82,102.82,0,0,0,2.45,16 C 104.71,146.39,105.81,150.09,106,150.59Z" opacity="0.5"/>
  </g>
  <g id="outline">
    <path d="M 151.69,131.58 A 27.47,27.47,0,0,0,125.34,97.5 h 0 A 27.42,27.42,0,0,0,97.67,128v0 A 88,88,0,0,0,101,150 l -.06,0 s 0,4.92,2.2,8.25 l .46.16 c .13.37.25.75.38,1.12,6.25,17.42,10.71,28.8,14.1,36.56 a 133.14,133.14,0,0,1,7,22.08 c 2.19-2.07-1.93-14.07-5.71-24.4-1.34-3.65-6.47-16.29-12-32-.28-.8-.54-1.57-.8-2.34,22.29,7.28,36.22,1.62,41.75-1.63-.92,8.36-2,14.85-2.71,20.86-1,8.23-2.26,23.67-3.62,29.19 s -1.67,11.76-5.09,14.7 c 6.39-2.18,9.2-29.15,10.23-39.1.86-8.32,2.2-17.66,3.28-27,.42-.31.64-.5.64-.5 a 75.78,75.78,0,0,0,.3-8.49 c .21-2.29.39-4.57.53-6.81.18-2.94.07-5.54,0-7.84 C 151.78,132.38,151.74,132,151.69,131.58Z M 99.51,125v0 h 0 c 0-.09,0-.18,0-.28 A 25.5,25.5,0,0,1,125.3,99.5 h 0 a 25.5,25.5,0,0,1,25.18,24.94 h 0 s .07,6.23-.21,11.34v0 c -.2,3.06-.53,6.62-1,10.8 l -.15,2,0,.22 c -14.72,8.41-37.31,4-45.26,2 A 116.36,116.36,0,0,1,99.51,125Z m 4.82,32 a 19.35,19.35,0,0,1-1.37-4.79 S 132.87,161.27,150,150 a 31.32,31.32,0,0,1-.46,5.33 S 133.33,167.19,104.33,156.94Z"/>
  </g>
<script type="text/ecmascript" xlink:href="param.min.js"/> 
</svg>
