<?xml version="1.0"?>
<svg xmlns="http://www.w3.org/2000/svg" xmlns:xlink="http://www.w3.org/1999/xlink" viewBox="0 0 215 215">
  <title>police-shirt-voluptuous</title>
  <g id="skin-tone">
    <path d="M 108.42,164.82 a 13.88,13.88,0,0,0-5.66,1.46 c .69,2.65,1.23,4.93,1.48,6.38.76,4.47,1.38,6.88,4.67,6.82 s 4.61-2.79,4.35-5.24 a 54.62,54.62,0,0,1,.4-8.64 A 13.3,13.3,0,0,0,108.42,164.82Z" fill="param(skin_tone)"/>
  </g>
  <g id="main-colour">
    <path d="M 120.09,125.51 c .19-8.25-.3-16.9-4.89-22.84 a 9.08,9.08,0,0,0-15.27-.2 h 0 A 34.79,34.79,0,0,0,93,121.58 c -.58,11.54,2.45,20.43,4.68,27.27.76,2.34,1.68,5.35,2.59,8.47-1.27.37-2,.69-2,.69,2,3.38,2.46,10.67,2.46,10.67 l 2.58,0 a 12.68,12.68,0,0,0-.58-2.29,9.94,9.94,0,0,1,1.54-.77,13.67,13.67,0,0,1,4.17-.84 c .35,0,.67,0,1,0 a 16.67,16.67,0,0,1,3.47.52 c .27.08.54.16.78.25v0 l .17.06,0,1.88,2.08-.29 s .71-5.87,1.54-9.67 a 22.51,22.51,0,0,0-2.41-.73 c .13-.61.25-1.23.39-1.82 C 117.18,147.58,119.9,133.76,120.09,125.51Z" fill="param(main_colour)"/>
  </g>
  <g id="fixed-colours">
    <circle cx="102.27" cy="160.08" r="1.33" fill="#ffcc50"/>
  </g>
  <g id="outline">
    <path d="M 102.31,158.33 a 1.79,1.79,0,1,0,1.79,1.79 A 1.79,1.79,0,0,0,102.31,158.33Z m 0,2.69 a .9.9,0,1,1,.9-.9 A .9.9,0,0,1,102.31,161Z"/>
    <path d="M 115.2,102.67 c 2.1,3.93,4.48,9.84,4.06,21.59-.35,9.92-3.2,22.92-5,31.47 a 33.5,33.5,0,0,0-13.06.29 l -.25-.9 C 98.67,147,93.6,135,94,123.55 c .32-9,3.81-18,5.91-21.08-2.66,1.64-7.71,8.79-8.16,18.28-.67,14.41,3.73,25.05,6.87,34.69.13.4.25.8.38,1.19 a 9.14,9.14,0,0,0-1.79.81 c 1.21,3.33,2.69,7.92,2.69,11.75 a 11.36,11.36,0,0,0,2.52.2 c .81,3.71,1.16,6,1.16,6 a 5.32,5.32,0,0,0,5.31,5.13 h .22 a 5.34,5.34,0,0,0,5.13-5.53,44.88,44.88,0,0,1,.16-6.87 c 1.21-.25,1.95-.37,1.95-.37 s .44-3.25,1.94-10.81 a 17.32,17.32,0,0,0-2-.71 c 1.68-8.34,3.9-17.82,4.83-29.34 C 122.82,105.9,115.2,102.67,115.2,102.67Z M 109,178.53 h -.14 a 3.33,3.33,0,0,1-3.32-3.21 h 0 a 22,22,0,0,0-.45-3.77v-.08 h 0 c -.29-1.52-.7-3.32-1.19-5.3 a 16.78,16.78,0,0,1,8.64-.51,68.82,68.82,0,0,0-.32,9.41 A 3.33,3.33,0,0,1,109,178.53Z m 6.14-11.86 a 1.45,1.45,0,0,1-.66.26 c 0-.24,0-.48.08-.73 l .37.11 c -1-2.54-12.21-2.52-13.5.94 l .41-.23.26,1.13 a 5.7,5.7,0,0,1-.95,0,32.6,32.6,0,0,0-2-9.79 s 8.88-3.44,17.31-.25 A 66.4,66.4,0,0,0,115.19,166.67Z"/>
  </g>
<script type="text/ecmascript" xlink:href="param.min.js"/> 
</svg>
