<?xml version="1.0"?>
<svg xmlns="http://www.w3.org/2000/svg" xmlns:xlink="http://www.w3.org/1999/xlink" viewBox="0 0 250 250">
  <title>basic-jeans-hourglass</title>
  <g id="skin-tone">
    <path d="M 114.08,217.2 c .28,2.48.42,4.94.56,7.16 a 17.43,17.43,0,0,0,.3,2.34 l .88-.07 a 4.74,4.74,0,0,0,9.41-.81 l .77-.06 c .06-2.16-1-6.15-1.92-9.8 A 14.12,14.12,0,0,1,114.08,217.2Z" fill="param(skin_tone)"/>
  </g>
  <g id="main-colour">
    <path d="M 114,217 a 136.81,136.81,0,0,0-5.37-19.5 c -3.87-11-8-23.25-8.13-36.12 s 3.71-21.46,10.25-29.42,5.5-8.33,8.13-11.58 a 7.71,7.71,0,0,1,10.38-1.75 c 3.25,2.25,4.38,5.38,2.5,10.87 s -6.88,24-8.5,34.38-3.5,35.25.75,51.75 c -2.37,2.63-6.92,2.42-9.71,1.46Z" fill="param(main_colour)"/>
  </g>
  <g id="fixed-colours">
    <path d="M 117,127.27 s -4.53,6-7.31,10.25 c -3.25,5-7.07,15.24-6.69,25.42.42,11,4.81,23.58,6.69,30,2.15,7.31,5.67,20.83,6,22.5-.5-4.5-2.27-12-5.12-22-2.55-9-6.4-21.12-6.4-32.12 a 46.32,46.32,0,0,1,6.4-23.12 C 112.93,134,116.2,130.44,117,127.27Z" opacity="0.5"/>
    <g opacity="0.6">
      <polygon points="117.83 128.15 117.39 129.05 117.37 129.04 117.83 128.15" fill="#fff"/>
      <polygon points="116.72 130.39 116.26 131.28 116.19 131.24 116.67 130.37 116.72 130.39" fill="#fff"/>
      <polygon points="115.55 132.6 115.07 133.48 114.97 133.42 115.46 132.55 115.55 132.6" fill="#fff"/>
      <polygon points="114.33 134.79 113.82 135.65 113.67 135.56 114.2 134.71 114.33 134.79" fill="#fff"/>
      <polygon points="113.03 136.92 112.47 137.76 112.28 137.63 112.86 136.81 113.03 136.92" fill="#fff"/>
      <polygon points="111.64 139 111.14 139.86 110.91 139.73 111.43 138.87 111.64 139" fill="#fff"/>
      <polygon points="110.44 141.18 110 142.07 109.75 141.95 110.2 141.05 110.44 141.18" fill="#fff"/>
      <polygon points="109.39 143.43 109 144.35 108.73 144.24 109.12 143.32 109.39 143.43" fill="#fff"/>
      <polygon points="108.46 145.75 108.13 146.68 107.83 146.58 108.18 145.64 108.46 145.75" fill="#fff"/>
      <polygon points="107.66 148.1 107.37 149.06 107.06 148.97 107.35 148.01 107.66 148.1" fill="#fff"/>
      <polygon points="106.97 150.5 106.73 151.47 106.4 151.38 106.65 150.41 106.97 150.5" fill="#fff"/>
      <polygon points="106.41 152.93 106.22 153.9 105.87 153.84 106.06 152.85 106.41 152.93" fill="#fff"/>
      <polygon points="105.98 155.38 105.85 156.36 105.47 156.31 105.61 155.32 105.98 155.38" fill="#fff"/>
      <polygon points="105.69 157.85 105.61 158.84 105.21 158.81 105.29 157.81 105.69 157.85" fill="#fff"/>
      <polygon points="105.54 160.33 105.52 161.32 105.1 161.32 105.13 160.32 105.54 160.33" fill="#fff"/>
      <polygon points="105.55 162.82 105.6 163.81 105.16 163.83 105.12 162.83 105.55 162.82" fill="#fff"/>
      <polygon points="105.7 165.3 105.79 166.29 105.34 166.34 105.26 165.34 105.7 165.3" fill="#fff"/>
      <polygon points="105.95 167.78 106.08 168.77 105.61 168.83 105.49 167.83 105.95 167.78" fill="#fff"/>
      <polygon points="106.28 170.25 106.43 171.24 105.95 171.31 105.81 170.32 106.28 170.25" fill="#fff"/>
      <polygon points="106.68 172.71 106.86 173.69 106.37 173.78 106.19 172.8 106.68 172.71" fill="#fff"/>
      <polygon points="107.14 175.16 107.33 176.14 106.86 176.24 106.66 175.26 107.14 175.16" fill="#fff"/>
      <rect x="107.29" y="177.65" width="0.46" height="1" transform="translate(-36.43 27.9) rotate(-12.66)" fill="#fff"/>
      <rect x="107.88" y="180.08" width="0.45" height="1" transform="translate(-39.94 30.98) rotate(-13.79)" fill="#fff"/>
      <rect x="108.52" y="182.5" width="0.43" height="1" transform="translate(-42.99 33.69) rotate(-14.74)" fill="#fff"/>
      <polygon points="109.46 184.87 109.72 185.84 109.33 185.95 109.06 184.98 109.46 184.87" fill="#fff"/>
      <polygon points="110.13 187.28 110.4 188.24 110.02 188.35 109.75 187.39 110.13 187.28" fill="#fff"/>
      <rect x="110.55" y="189.73" width="0.38" height="1" transform="translate(-44.75 34.43) rotate(-14.74)" fill="#fff"/>
      <polygon points="111.45 192.1 111.71 193.07 111.37 193.16 111.1 192.2 111.45 192.1" fill="#fff"/>
      <polygon points="112.11 194.51 112.38 195.48 112.06 195.56 111.79 194.6 112.11 194.51" fill="#fff"/>
      <polygon points="112.76 196.93 113.01 197.9 112.71 197.97 112.45 197.01 112.76 196.93" fill="#fff"/>
      <polygon points="113.38 199.35 113.61 200.32 113.33 200.39 113.09 199.42 113.38 199.35" fill="#fff"/>
      <polygon points="113.96 201.78 114.19 202.76 113.93 202.82 113.69 201.85 113.96 201.78" fill="#fff"/>
      <polygon points="114.52 204.22 114.74 205.2 114.5 205.25 114.27 204.28 114.52 204.22" fill="#fff"/>
      <polygon points="115.05 206.66 115.25 207.64 115.06 207.68 114.84 206.71 115.05 206.66" fill="#fff"/>
      <polygon points="115.54 209.11 115.74 210.09 115.61 210.12 115.4 209.15 115.54 209.11" fill="#fff"/>
      <polygon points="116.02 211.57 116.21 212.55 116.15 212.56 115.94 211.59 116.02 211.57" fill="#fff"/>
      <polygon points="116.49 214.02 116.67 215.01 116.67 215.01 116.46 214.03 116.49 214.02" fill="#fff"/>
    </g>
  </g>
  <g id="outline">
    <path d="M 115.43,221.29 a 96.19,96.19,0,0,0-3.34-16.09 c -2.29-8.13-5.53-18.47-8.25-27.93 a 49.89,49.89,0,0,1-.12-28.79,1.73,1.73,0,0,0-2.36-.71 c -2.07,8.14-3.55,18.44,1.36,33.62,1.92,5.92,9.88,26.75,11,44.38 a 3.75,3.75,0,0,0,.47,1.42,3.22,3.22,0,0,0,2.39,1.31,5.55,5.55,0,0,1-.92-3.22 C 115.6,224.05,115.57,222.89,115.43,221.29Z"/>
    <path d="M 133.75,125 a 8.74,8.74,0,0,0-16.68-3.65 h 0 l 1.19,1.11 c .55-.6,1-1.14,1.31-1.47 h 0 a 6.73,6.73,0,0,1,12.08,5 c 0,.25-.12.56-.2.93,0,0,0,.09-.05.13 a 36.53,36.53,0,0,1-1.25,5 c -7.46,24.28-8.63,30.86-9.3,39.86-1,13-.81,23.44.38,33,.68,5.46,1.87,11.19,2.77,15.11.37,1.39.77,2.95,1,4.55 a 5.59,5.59,0,0,1,.12.63,4.57,4.57,0,0,1-.33,2.4,3.71,3.71,0,0,0,2.13-2.72,5.85,5.85,0,0,0-.24-1.4,136.58,136.58,0,0,1-4.08-23.23 c -2.36-32.36,5.47-54.68,8.37-64.19,1.24-4.08,1.91-6.69,2.28-8.35 a 8.7,8.7,0,0,0,.42-2.34 A 2.42,2.42,0,0,0,133.75,125Z"/>
    <path d="M 123.86,214.68 s -3.48,3.76-10.46,1.29 a 6.2,6.2,0,0,1,.44,1.73 s 6.72,2.29,10.08-1.47 A 6.22,6.22,0,0,0,123.86,214.68Z"/>
    <path d="M 119.57,121 a 51.08,51.08,0,0,1-7.27,10.51 c -3.75,4.33-6.5,9.5-8.58,17 a 12.29,12.29,0,0,1-2.37-.71 s 2-8.21,6.7-13.88,7.19-8.47,9-12.57 A 6.11,6.11,0,0,0,119.57,121Z"/>
  </g>
<script type="text/ecmascript" xlink:href="param.min.js"/> 
</svg>
