<?xml version="1.0"?>
<svg xmlns="http://www.w3.org/2000/svg" xmlns:xlink="http://www.w3.org/1999/xlink" viewBox="0 0 600 600">
  <title>love-slogan-voluptuous</title>
  <g id="main-colour">
    <path d="M 300.8,281 l -10.59,1,0-.52,1.89-.17 c -.41-4.66-.36-9.33-.64-14 l -2,.15,0-.52,6.71-.48 c 0,.17,0,.34,0,.52 l -2.1.15 c .26,4.66,0,9.31.47,14 l 2.45-.22 a 2.78,2.78,0,0,0,2.39-1.41,7.32,7.32,0,0,0,.76-3.36 l .6-.05 A 27.83,27.83,0,0,0,300.8,281Z" fill="param(main_colour)"/>
    <path d="M 312.3,278 c -1.17,1.64-2.37,2.54-3.95,2.68 a 5.28,5.28,0,0,1-4.42-1.94,7,7,0,0,1-1.76-5.3,10.15,10.15,0,0,1,2.05-5.58,5.63,5.63,0,0,1,4.18-2.64,5.5,5.5,0,0,1,4.49,2,6.51,6.51,0,0,1,1.55,5.26 A 11.38,11.38,0,0,1,312.3,278Z m -.53-7.94 a 4.9,4.9,0,0,0-.74-3.34,2.88,2.88,0,0,0-2.57-1,2.81,2.81,0,0,0-2.38,1.34,7.58,7.58,0,0,0-.85,3.48 c -.1,1.77-.27,3.55-.32,5.32 a 5,5,0,0,0,.85,3.35,2.72,2.72,0,0,0,2.51.95,2.63,2.63,0,0,0,2.25-1.36,8.22,8.22,0,0,0,.8-3.46 C 311.43,273.59,311.65,271.82,311.77,270.06Z" fill="param(main_colour)"/>
    <path d="M 325.17,264.89 c -.88,4.89-3.91,9.82-4.93,14.75 l -.58.05 c -2.13-4.67-2.18-9.38-4.25-14.12 l -1.63.12q0-.25-.06-.51 l 6.2-.44 c 0,.17,0,.34.07.5 l -2,.14 c 1.5,3.35,2,6.68,2.87,10,1.35-3.5,3.07-7,3.74-10.46 l -2,.14q0-.25-.07-.5 l 4.23-.29q0,.25.06.5Z" fill="param(main_colour)"/>
    <path d="M 337.95,277.85 l -11.35.93q0-.25,0-.5 l 2-.16 c -.09-4.49.84-9,.38-13.49 l -1.92.13 c 0-.17,0-.33-.06-.5 l 10.83-.73 c .06,1.27.1,2.54.13,3.82 l -.53,0 a 4,4,0,0,0-1.24-2.6,3.8,3.8,0,0,0-2.46-.48 l -2.24.15 a 43.45,43.45,0,0,1,0,6.3 l .52,0 a 2.34,2.34,0,0,0,2-.92,3.67,3.67,0,0,0,.53-1.89 l .54,0 c 0,2-.13,4-.2,6 l -.56,0 a 3.79,3.79,0,0,0-.38-1.95 c -.3-.55-.93-.79-1.92-.71 l -.53,0 c -.14,2.22-.3,4.44-.29,6.66 l 2.68-.22 a 3.52,3.52,0,0,0,2.72-1.23,7.34,7.34,0,0,0,1.11-3.15 l .57,0Q338.06,275.56,337.95,277.85Z" fill="param(main_colour)"/>
  </g>
  <g id="fixed-colours">
    <path d="M 330,273 s -14.15-2.48-21.8,3.73 C 313.64,270.73,323.17,269.52,330,273Z" opacity="0.2"/>
    <path d="M 292.54,288.54 c -7.37,1.34-12.83-1.17-19.33-5.83 C 277.62,288.88,286.14,292,292.54,288.54Z" opacity="0.4"/>
  </g>
<script type="text/ecmascript" xlink:href="param.min.js"/> 
</svg>
