<?xml version="1.0"?>
<svg xmlns="http://www.w3.org/2000/svg" xmlns:xlink="http://www.w3.org/1999/xlink" viewBox="0 0 215 215">
  <title>basic-v-neck-t-shirt-curvy</title>
  <g id="skin-tone">
    <path d="M 118.4,124.32 c .12-6.08-1.83-16.28-5-20.75 a 7.08,7.08,0,0,0-.46-.61 h 0 a 7.05,7.05,0,0,0-9.93-.88 h 0 s -2.81,1.29-4.94,8-2.21,18.41-.87,25.6,3.28,12.57,4.71,17.82 a 139.31,139.31,0,0,1,3.36,15.32 c .19,2.25-.39,7.18,3.43,7.82 s 5.75-2,5.63-5.64 a 178,178,0,0,1,.91-21.48 C 116.08,142.88,118.27,130.7,118.4,124.32Z" fill="param(skin_tone)"/>
  </g>
  <g id="outline">
    <path d="M 113,103.12 c .54.7,2.54,3.89,4,14.32,1.41,7.75-1.65,24.83-2.71,31.08 s -1.25,21.74-1.17,24 h 0v.11 h 0 A 3.33,3.33,0,0,1,110,176 h -.11 a 3.33,3.33,0,0,1-3.33-3.22,29.86,29.86,0,0,0-.44-3.84v0 h 0 c -1.28-7.71-5-20.82-6.36-26.07-1.66-6.29-3.74-17-1.81-27.89 S 103,102.08,103,102.08 c -1.36,0-2.89,1.52-4.06,3.86-2,3.67-3.71,9.24-4,18.74 s 3.1,19.17,6.17,30.84,3.4,17.11,3.4,17.11 h 0 c 0,.06,0,.12,0,.18 a 5.31,5.31,0,0,0,5.32,5.16 H 110 a 5.34,5.34,0,0,0,5.15-5.51,107.23,107.23,0,0,1,.18-13.84 c .59-7.83,1.51-12.42,2.85-21.16 S 121.52,112.75,113,103.12Z"/>
    <path d="M 113,103.12 a 1.75,1.75,0,0,0-.14-.17Z"/>
  </g>
<script type="text/ecmascript" xlink:href="param.min.js"/> 
</svg>
