<?xml version="1.0"?>
<svg xmlns="http://www.w3.org/2000/svg" xmlns:xlink="http://www.w3.org/1999/xlink" viewBox="0 0 250 250">
  <title>denim-shorts-slender</title>
  <g id="skin-tone">
    <path d="M 132,128.9 c 2.17-3.83.67-5.83-1.45-9.21 s -7.38-2.46-9.72-1.28-4,5.65-9.19,12.57-8,15.91-9.65,24.41 c -3.33,17.5,1.33,29.83,5,41.83 s 4,18.83,4,25.83 c 0,6.58,2.72,6.86,3,6.87 a 4.7,4.7,0,0,0,6.91-1.27 h 0 c 2-.39,1.86-3.11,1-7.44 s -2.17-11.33-3.67-23.17.67-30.17,2.5-38.33 S 129.86,132.74,132,128.9Z" fill="param(skin_tone)"/>
  </g>
  <g id="outline">
    <path d="M 120.24,217.39 a 60.8,60.8,0,0,1,1.45,8.79,5,5,0,0,1-.71,2.49 s 2.14.11,2.42-2.5-1.18-6.61-2.93-17.86 a 135.63,135.63,0,0,1-.5-36.5 c 1.5-13.62,7.75-30.5,10.25-36.5 s 3.48-7.38,3.62-9.25 h 0 a 8.9,8.9,0,0,0-16.89-4.88 h 0 c -.07.14-.14.28-.2.43-5.13,11.28-10.14,12.24-14.73,27.61-4.19,14-2.19,28.29,1.93,40.66,3.55,10.66,6.34,24.28,6.24,29.54 s -.18,8,1,9.24 a 4.35,4.35,0,0,0,2.91,1.27 s -1.69-.87-1.91-3.75 c -.12-1.55.12-4.07-.19-8.33 l -.13-1.5 a 97.2,97.2,0,0,0-2.4-13.67 c -3.5-14.5-8-22-7.5-36.62 s 3-22.67,8.81-30.5 c 4-5.39,8.44-14.37,8.44-14.37 A 6.91,6.91,0,0,1,131.92,125 a 6.82,6.82,0,0,1-.42,2.33 l -.52,1.14 h 0 c -.5,1.1-1.24,2.77-1.93,4.46 h 0 a 203.3,203.3,0,0,0-8.31,23.76 c -4.25,15.5-4.31,31.88-3.41,42.63 A 155.27,155.27,0,0,0,120,215.93Z"/>
  </g>
<script type="text/ecmascript" xlink:href="param.min.js"/> 
</svg>
