<?xml version="1.0"?>
<svg xmlns="http://www.w3.org/2000/svg" xmlns:xlink="http://www.w3.org/1999/xlink" viewBox="0 0 250 250">
  <title>denim-shorts-curvy</title>
  <g id="skin-tone">
    <path d="M 131.75,166.15 c -12.32,1.26-25.28-1.78-31.62-3.59 a 110.28,110.28,0,0,0,4.92,12.91 c 5.5,11.75,23.69,34.55,25.15,42.23 h 0 a 10.05,10.05,0,0,0,18.54-.22 h .74 s 2-4.1,3.78-16.51,4.61-27.58,5.32-39.33 c .08-1.39.16-2.71.22-4 A 69.09,69.09,0,0,1,131.75,166.15Z" fill="param(skin_tone)"/>
  </g>
  <g id="main-colour">
    <path d="M 131.75,166.15 a 69.09,69.09,0,0,0,27.06-8.48 c .46-9.44.34-15.85.26-24.74,0-3.43-.29-4.18-1.23-7.92 a 32.85,32.85,0,1,0-65.7,0 c -.76,3.78-.6,3.34,0,6.14,2.2,10.23,3.6,21,6.77,30.93 C 105.26,163.88,119.43,167.41,131.75,166.15Z" fill="param(main_colour)"/>
  </g>
  <g id="fixed-colours">
    <path d="M 96.5,154.4 s 15.87,6.5,31.62,5.13 S 155.25,152.15,159,149 c 0,4.88.13,8.25.13,8.25 a 60.83,60.83,0,0,1-30.5,9 c -17.62.25-30-4.62-30-4.62Z" fill="#fff" opacity="0.7"/>
    <g opacity="0.6">
      <polygon points="95.92 127.65 96.02 128.13 95.98 128.14 95.92 127.65" fill="#fff"/>
      <polygon points="96.33 129.61 96.55 130.59 96.34 130.63 96.19 129.63 96.33 129.61" fill="#fff"/>
      <polygon points="96.87 132.06 97.08 133.04 96.76 133.11 96.59 132.12 96.87 132.06" fill="#fff"/>
      <polygon points="97.41 134.51 97.63 135.49 97.22 135.58 97.03 134.59 97.41 134.51" fill="#fff"/>
      <polygon points="97.95 136.97 98.17 137.94 97.72 138.04 97.52 137.06 97.95 136.97" fill="#fff"/>
      <polygon points="98.51 139.41 98.74 140.39 98.26 140.5 98.04 139.52 98.51 139.41" fill="#fff"/>
      <polygon points="99.08 141.86 99.31 142.84 98.85 142.95 98.61 141.97 99.08 141.86" fill="#fff"/>
      <polygon points="99.66 144.3 99.9 145.28 99.47 145.38 99.22 144.41 99.66 144.3" fill="#fff"/>
      <polygon points="100.27 146.74 100.51 147.71 100.14 147.81 99.86 146.84 100.27 146.74" fill="#fff"/>
      <polygon points="100.88 149.18 101.14 150.15 100.86 150.23 100.56 149.26 100.88 149.18" fill="#fff"/>
      <polygon points="101.52 151.6 101.77 152.58 101.63 152.62 101.31 151.67 101.52 151.6" fill="#fff"/>
      <polygon points="102.17 154.08 102.31 154.56 102.14 154.09 102.17 154.08" fill="#fff"/>
    </g>
    <path d="M 100.63,154.32 c -.78-3-2-8-2.86-11.61 a 146.16,146.16,0,0,1-3-15.31,101.09,101.09,0,0,0,2.55,16.35 A 87.86,87.86,0,0,0,100.63,154.32Z" opacity="0.5"/>
  </g>
  <g id="outline">
    <path d="M 160.08,157.82 s 0-6.73-.18-10.23 l -.06,0 c 0-3.76,0-7.59,0-11.62,0-2.9-.08-5.25-.19-7.18 a 34.85,34.85,0,1,0-69.25.11,34.55,34.55,0,0,0,.33,5.84,102.16,102.16,0,0,0,4.62,18.32 l -.07,0 s 1.08,6.33,3,9.75 l .38.12 c .88,2,10.77,24.15,20.08,36.72 s 11.5,18.05,11.5,18.05 a 23.91,23.91,0,0,0-3.67-10.3 c -3.24-5-16.75-24.67-25.2-43.63,29.78,8.76,49.77-.51,56.36-4.4-1.25,21.19-6.32,46.6-7.21,51.26-1,5.24-4.17,10.43-6.22,11.89,8.1-2.47,8.95-11.8,13.37-41.8 a 198.85,198.85,0,0,0,2-22.6Z M 94.93,142.58 c -.48-2.15-1.11-5.66-1.65-9 l -.05-.18 c -.07-.47-.13-.94-.2-1.41-.46-3-.82-5.7-.88-7 h 0 a 32.84,32.84,0,0,1,65.68-.62 l 0,0 c .1,3.25.36,9.37.35,11.19,0,3.94,0,8.39-.09,13.18-25,16.18-51.73,8.49-60.15,5.38Q96.15,148.23,94.93,142.58Z m 4.74,18.82 c -1.17-2.83-2-5.75-2-5.75 s 31.75,13.92,60.83-5 c .08,2.25-.17,6.17-.17,6.17 S 135.58,172.82,99.67,161.4Z"/>
  </g>
<script type="text/ecmascript" xlink:href="param.min.js"/> 
</svg>
