<?xml version="1.0"?>
<svg xmlns="http://www.w3.org/2000/svg" xmlns:xlink="http://www.w3.org/1999/xlink" viewBox="0 0 600 600">
  <title>sassy-slogan-voluptuous</title>
  <g id="main-colour">
    <path d="M 333.64,264.37 a 2.25,2.25,0,0,1,.46-1.61,2,2,0,0,1,1.51-.68,3.13,3.13,0,0,1,1,.1,1.9,1.9,0,0,1,.72.37,2,2,0,0,1,.46.61,2.26,2.26,0,0,1,.18.89,21.16,21.16,0,0,1,0,2.46,17.37,17.37,0,0,1-.33,2,12.66,12.66,0,0,1-.47,1.72 c -.19.54-.57,1.59-.57,1.59-.19.51-.34,1-.54,1.58 a 18.32,18.32,0,0,0-.59,2.51,15.77,15.77,0,0,0-.2,3.19,1.1,1.1,0,0,0,.26.76,1,1,0,0,0,.82.23,1.19,1.19,0,0,0,.83-.39,1.38,1.38,0,0,0,.23-.8q0-1.89-.06-3.77 l 1.14-.1q0,1.88.07,3.77 a 2.23,2.23,0,0,1-.57,1.59,2.3,2.3,0,0,1-1.57.72,3,3,0,0,1-1,0,2.82,2.82,0,0,1-.72-.36,2.09,2.09,0,0,1-.46-.62,2.12,2.12,0,0,1-.18-.86,18.21,18.21,0,0,1,0-2.47,16.08,16.08,0,0,1,.38-2 A 13,13,0,0,1,335,273 c .13-.34.24-.66.35-1 a 22,22,0,0,0,.77-2.15,17.17,17.17,0,0,0,.55-2.51,15.83,15.83,0,0,0,.15-3.16,1.08,1.08,0,0,0-.27-.76,1,1,0,0,0-.81-.27,1.07,1.07,0,0,0-.79.39,1.28,1.28,0,0,0-.21.8 c .06,1.26.09,2.51.1,3.77 l -1.08.09 C 333.74,266.89,333.71,265.63,333.64,264.37Z" fill="param(main_colour)"/>
    <path d="M 325.37,282 c -.16-6.44,1.68-12.89,1.21-19.31 l 1.07-.08 c 1.39,6.35.75,12.69,1.8,19 l -1.08.11 c -.18-1.08-.31-2.16-.41-3.24 l -1.43.14 c -.07,1.1-.11,2.2-.09,3.3Z m 2.09-12.44 c -.26,2.61-.63,5.22-.86,7.83 l 1.24-.12 C 327.66,274.68,327.61,272.1,327.46,269.53Z" fill="param(main_colour)"/>
    <path d="M 316.33,265.74 a 2.36,2.36,0,0,1,.43-1.65,1.94,1.94,0,0,1,1.48-.7,3.08,3.08,0,0,1,1,.1,2.06,2.06,0,0,1,.75.38,2.21,2.21,0,0,1,.51.62,2.31,2.31,0,0,1,.23.91,11.73,11.73,0,0,1-.36,4.6,12.66,12.66,0,0,1-.56,1.76 c -.22.55-.65,1.62-.65,1.62-.22.52-.39,1-.61,1.62 a 15.79,15.79,0,0,0-.63,2.57,12.67,12.67,0,0,0-.12,3.26,1.2,1.2,0,0,0,.3.77,1,1,0,0,0,.82.23,1,1,0,0,0,.77-.39,1.47,1.47,0,0,0,.17-.82 c -.09-1.28-.11-2.57-.08-3.86 l 1.12-.1 c 0,1.28,0,2.57.07,3.85 a 2.35,2.35,0,0,1-.43,1.62,1.94,1.94,0,0,1-1.44.73,2.87,2.87,0,0,1-.95,0,3,3,0,0,1-.74-.36,2.28,2.28,0,0,1-.5-.63,2.22,2.22,0,0,1-.23-.88,14.65,14.65,0,0,1-.05-2.52,13.93,13.93,0,0,1,.37-2.09,12.28,12.28,0,0,1,.55-1.79 c .14-.35.26-.67.39-1,.31-.68.6-1.43.87-2.2 a 16.15,16.15,0,0,0,.65-2.56,12.6,12.6,0,0,0,.14-3.23,1.13,1.13,0,0,0-.31-.78,1,1,0,0,0-.83-.28,1,1,0,0,0-.79.4,1.31,1.31,0,0,0-.19.82 c .09,1.28.1,2.57.08,3.85 l -1.11.09 C 316.43,268.31,316.42,267,316.33,265.74Z" fill="param(main_colour)"/>
    <path d="M 307.18,266.48 a 2.37,2.37,0,0,1,.47-1.67,2,2,0,0,1,1.52-.71,3.11,3.11,0,0,1,1,.09,2,2,0,0,1,.75.38,2.21,2.21,0,0,1,.5.62,2.32,2.32,0,0,1,.22.92,12.61,12.61,0,0,1-.36,4.65,13.75,13.75,0,0,1-.53,1.78 l -.62,1.64 c -.2.53-.36,1.06-.56,1.64 a 15.78,15.78,0,0,0-.55,2.59,13.5,13.5,0,0,0,0,3.3,1.25,1.25,0,0,0,.32.78.94.94,0,0,0,.81.24,1,1,0,0,0,.76-.4,1.48,1.48,0,0,0,.14-.83 c -.12-1.3-.18-2.6-.19-3.9 l 1.1-.11 c 0,1.3.05,2.6.17,3.89 a 2.36,2.36,0,0,1-.38,1.64,1.86,1.86,0,0,1-1.41.74,2.82,2.82,0,0,1-.95-.05,3,3,0,0,1-.74-.37,2.19,2.19,0,0,1-.76-1.53,16.06,16.06,0,0,1-.11-2.55,14.51,14.51,0,0,1,.3-2.11,11.91,11.91,0,0,1,.49-1.81 c .13-.35.24-.68.35-1.06.29-.69.56-1.44.81-2.22 a 17.72,17.72,0,0,0,.61-2.59,13.81,13.81,0,0,0,.15-3.27,1.13,1.13,0,0,0-.3-.79,1,1,0,0,0-.84-.28,1.09,1.09,0,0,0-.81.41,1.33,1.33,0,0,0-.21.83 c .07,1.3.1,2.6.1,3.89 l -1.11.1 C 307.29,269.07,307.26,267.78,307.18,266.48Z" fill="param(main_colour)"/>
    <path d="M 299,264.81 c .58,2.26,1.14,4.52,1.65,6.77.32-2.33.65-4.65.89-7 l 1.11-.09 c -.33,3.33-.88,6.67-1.34,10,.11,3.3.23,6.59.6,9.88 l -1.05.11 c -.33-3.29-.47-6.58-.61-9.87-.71-3.24-1.52-6.5-2.35-9.76Z" fill="param(main_colour)"/>
  </g>
  <g id="fixed-colours">
    <path d="M 330.32,276.71 s -16.25-2.23-24.72,5.17 C 311.55,274.76,322.38,273,330.32,276.71Z" opacity="0.2"/>
    <path d="M 312.66,271.88 a 13,13,0,0,0,12.68-2.33 C 322.29,270.93,316,272.33,312.66,271.88Z" opacity="0.2"/>
    <path d="M 289.64,295.38 A 30,30,0,0,1,278,290.07 a 29.52,29.52,0,0,1-9-13.13 C 269.41,287.59,279.25,296,289.64,295.38Z" opacity="0.4"/>
  </g>
<script type="text/ecmascript" xlink:href="param.min.js"/> 
</svg>
