<?xml version="1.0"?>
<svg xmlns="http://www.w3.org/2000/svg" xmlns:xlink="http://www.w3.org/1999/xlink" viewBox="0 0 250 250">
  <title>slender-bottoms-template</title>
  <g id="skin-tone">
    <path d="M 121.13,216.44 a 11.42,11.42,0,0,1-10.27.3 c .14,2.19.17,4.25.17,6.32,0,6.58,2.72,6.86,3,6.87 a 4.7,4.7,0,0,0,6.91-1.27 h 0 c 2-.39,1.86-3.11,1-7.44 C 121.77,219.91,121.47,218.33,121.13,216.44Z" fill="param(skin_tone)"/>
  </g>
  <g id="main-colour">
    <path d="M 120.63,216.4 a 10.11,10.11,0,0,1-9.37.38 c -1.12-6.75-3.5-18.5-5.75-23.5 s -5.75-19.87-4.25-31.12,4.38-21.12,8.38-27.75,6.38-9.75,7.63-11.62,4-6.62,9.13-5.5 A 8,8,0,0,1,132.25,128 c -1.75,4.25-6.5,16.13-8.12,20.75 s -5.25,15.25-6.25,35.75 S 120.63,216.4,120.63,216.4Z" fill="param(main_colour)"/>
  </g>
  <g id="outline">
    <path d="M 133.92,125 a 8.91,8.91,0,0,0-17-3.81 h 0 c -.07.14-.14.28-.2.43-5.13,11.28-10.14,12.24-14.73,27.61-4.19,14-2.19,28.29,1.93,40.66,3.55,10.66,6.34,24.28,6.24,29.54 s -.18,8,1,9.24 a 4.35,4.35,0,0,0,2.91,1.27 s -1.69-.87-1.91-3.75 c -.12-1.55.12-4.07-.19-8.33 a 9.71,9.71,0,0,0,8.24-.47,60.8,60.8,0,0,1,1.45,8.79,5,5,0,0,1-.71,2.49 s 2.14.11,2.42-2.5-1.18-6.61-2.93-17.86 a 135.63,135.63,0,0,1-.5-36.5 c 1.5-13.62,7.75-30.5,10.25-36.5 s 3.48-7.38,3.62-9.25 h 0 A 8.89,8.89,0,0,0,133.92,125Z m -2.42,2.33-.52,1.14 h 0 c -.5,1.1-1.24,2.77-1.93,4.46 h 0 a 203.3,203.3,0,0,0-8.31,23.76 c -4.25,15.5-4.31,31.88-3.41,42.63 A 155.27,155.27,0,0,0,120,215.93 c -1.59.69-5,1.81-8.07.43 a 97.2,97.2,0,0,0-2.4-13.67 c -3.5-14.5-8-22-7.5-36.62 s 3-22.67,8.81-30.5 c 4-5.39,8.44-14.37,8.44-14.37 A 6.91,6.91,0,0,1,131.92,125,6.82,6.82,0,0,1,131.49,127.33Z"/>
  </g>
<script type="text/ecmascript" xlink:href="param.min.js"/> 
</svg>
