<?xml version="1.0"?>
<svg xmlns="http://www.w3.org/2000/svg" xmlns:xlink="http://www.w3.org/1999/xlink" viewBox="0 0 600 600">
  <title>sassy-slogan-slender</title>
  <g id="main-colour">
    <path d="M 296.53,264.06 l -1,0 c 0-1.2,0-2.4,0-3.59 a 1.17,1.17,0,0,0-.26-.74,1,1,0,0,0-.78-.3.92.92,0,0,0-.74.34,1.08,1.08,0,0,0-.2.75,17.44,17.44,0,0,0,.28,3,17.79,17.79,0,0,0,.56,2.34 c .22.69.46,1.36.72,2,.1.34.2.63.31.94 a 11.61,11.61,0,0,1,.45,1.61,17.61,17.61,0,0,1,.34,1.9 c .08.67.08,1.46.11,2.34 a 2.3,2.3,0,0,1-.1.84,2.16,2.16,0,0,1-.36.65,2.62,2.62,0,0,1-.6.44,2.54,2.54,0,0,1-.84.18,1.75,1.75,0,0,1-1.41-.48,2,2,0,0,1-.55-1.45q0-1.81-.07-3.63 l 1,0q0,1.81.07,3.62 a 1.3,1.3,0,0,0,.23.74.89.89,0,0,0,.74.26.85.85,0,0,0,.7-.33,1.2,1.2,0,0,0,.19-.76,19.84,19.84,0,0,0-.27-3,17.47,17.47,0,0,0-.54-2.33 c -.18-.51-.32-1-.5-1.45 l -.55-1.45 a 12.47,12.47,0,0,1-.48-1.59,17.89,17.89,0,0,1-.38-1.92,22,22,0,0,1-.11-2.36,2.28,2.28,0,0,1,.12-.86,2.07,2.07,0,0,1,.39-.62,1.81,1.81,0,0,1,.63-.42,2.8,2.8,0,0,1,.88-.18,1.93,1.93,0,0,1,1.47.51,2.08,2.08,0,0,1,.59,1.48 C 296.52,261.66,296.53,262.86,296.53,264.06Z" fill="param(main_colour)"/>
    <path d="M 303.2,276.1 c -.17-1-.29-2-.38-3.05 l -1.27.06 c -.06,1-.09,2.05-.09,3.08 l -1,0 c 0-6,1.29-12,1.31-18 l 1,0 c 1,6,.39,11.92,1.36,17.86Z M 301.63,272 l 1.1,0 c -.18-2.41-.23-4.83-.34-7.25 C 302.13,267.11,301.82,269.55,301.63,272Z" fill="param(main_colour)"/>
    <path d="M 312.59,263.57 l -1,0 c 0-1.17.07-2.35,0-3.52 a 1.15,1.15,0,0,0-.27-.72,1,1,0,0,0-.77-.29.88.88,0,0,0-.72.33,1,1,0,0,0-.19.74,24.25,24.25,0,0,0,.21,2.94,18.93,18.93,0,0,0,.43,2.29,20.12,20.12,0,0,0,.59,1.93 c .08.33.16.61.26.92 a 11.51,11.51,0,0,1,.36,1.58,18.76,18.76,0,0,1,.27,1.86 c .07.66,0,1.43.06,2.29 a 2.33,2.33,0,0,1-.1.82,2.19,2.19,0,0,1-.35.64,2.56,2.56,0,0,1-.59.43,2.51,2.51,0,0,1-.84.17,1.87,1.87,0,0,1-1.44-.47,2,2,0,0,1-.61-1.42 c 0-1.18,0-2.37,0-3.55 l 1,0 c 0,1.18-.06,2.37,0,3.55 a 1.25,1.25,0,0,0,.25.72.94.94,0,0,0,.75.25.86.86,0,0,0,.7-.32,1.17,1.17,0,0,0,.18-.74,24.77,24.77,0,0,0-.21-3,18.75,18.75,0,0,0-.43-2.28 c -.15-.5-.26-1-.41-1.42 l -.45-1.42 a 11.88,11.88,0,0,1-.37-1.56 c -.11-.57-.21-1.21-.27-1.88 s 0-1.47-.07-2.31 a 2.39,2.39,0,0,1,.1-.85,2,2,0,0,1,.36-.61,1.68,1.68,0,0,1,.6-.41,2.72,2.72,0,0,1,.86-.17,2,2,0,0,1,1.47.5,2,2,0,0,1,.61,1.44 C 312.66,261.22,312.64,262.39,312.59,263.57Z" fill="param(main_colour)"/>
    <path d="M 320.8,263.32 l -1,0 c 0-1.16.08-2.32.06-3.48 a 1.11,1.11,0,0,0-.25-.72,1,1,0,0,0-.76-.29.89.89,0,0,0-.72.32,1,1,0,0,0-.2.73,22.77,22.77,0,0,0,.19,2.91,17.76,17.76,0,0,0,.42,2.26,19.69,19.69,0,0,0,.59,1.9 c .08.32.16.61.26.91 a 11,11,0,0,1,.37,1.56,16.88,16.88,0,0,1,.26,1.84 c .06.65,0,1.42,0,2.27 a 2.18,2.18,0,0,1-.13.81,2.27,2.27,0,0,1-.37.63,2.73,2.73,0,0,1-.61.42,2.61,2.61,0,0,1-.85.17,1.85,1.85,0,0,1-1.43-.46,1.9,1.9,0,0,1-.58-1.4 c 0-1.17,0-2.34.06-3.51 l 1,0 c -.05,1.17-.08,2.34-.06,3.51 a 1.19,1.19,0,0,0,.23.71.94.94,0,0,0,.75.25.9.9,0,0,0,.72-.32,1.15,1.15,0,0,0,.21-.73,21.14,21.14,0,0,0-.17-2.92,17.79,17.79,0,0,0-.42-2.26 c -.15-.5-.26-1-.41-1.41 l -.44-1.41 a 11.54,11.54,0,0,1-.37-1.54 c -.11-.57-.2-1.2-.26-1.86 s 0-1.45-.05-2.28 a 2.31,2.31,0,0,1,.11-.84,1.94,1.94,0,0,1,.36-.6,1.68,1.68,0,0,1,.61-.41,2.76,2.76,0,0,1,.86-.17,1.84,1.84,0,0,1,2,1.92 C 320.87,261,320.85,262.16,320.8,263.32Z" fill="param(main_colour)"/>
    <path d="M 329,257.63 c -.62,2.9-1.21,5.8-1.86,8.71-.1,2.88-.2,5.77-.25,8.65 l -1,0 c 0-2.89.14-5.79.25-8.68-.43-2.87-.81-5.75-1.42-8.63 l 1,0 c .4,2,.71,4,1,6,.44-2,.85-4,1.25-6Z" fill="param(main_colour)"/>
  </g>
<script type="text/ecmascript" xlink:href="param.min.js"/> 
</svg>
