<?xml version="1.0"?>
<svg xmlns="http://www.w3.org/2000/svg" xmlns:xlink="http://www.w3.org/1999/xlink" viewBox="0 0 600 600">
  <title>sassy-slogan-curvy</title>
  <g id="main-colour">
    <path d="M 335.69,261.64 a 2.36,2.36,0,0,1,.46-1.69,2.12,2.12,0,0,1,1.56-.74,3.28,3.28,0,0,1,1,.08,2,2,0,0,1,.75.38,2.1,2.1,0,0,1,.49.63,2.37,2.37,0,0,1,.2.92,21.44,21.44,0,0,1,0,2.57,18,18,0,0,1-.31,2.13,13.32,13.32,0,0,1-.47,1.8 c -.19.56-.57,1.66-.57,1.66-.19.54-.34,1.07-.54,1.66 a 19.07,19.07,0,0,0-.58,2.63,16.5,16.5,0,0,0-.17,3.33,1.14,1.14,0,0,0,.28.79,1,1,0,0,0,.86.23,1.24,1.24,0,0,0,.86-.41,1.43,1.43,0,0,0,.22-.84q-.06-2-.11-3.94 l 1.18-.12q.06,2,.13,3.93 a 2.32,2.32,0,0,1-.57,1.66,2.42,2.42,0,0,1-1.63.77,3.14,3.14,0,0,1-1,0,3,3,0,0,1-.75-.36,2,2,0,0,1-.68-1.54,19.35,19.35,0,0,1,0-2.58,16.89,16.89,0,0,1,.36-2.14,13.38,13.38,0,0,1,.51-1.83 c .13-.36.24-.69.35-1.07 a 22.85,22.85,0,0,0,.77-2.25,17.89,17.89,0,0,0,.54-2.62,16.39,16.39,0,0,0,.11-3.3,1.11,1.11,0,0,0-.29-.79,1,1,0,0,0-.85-.27,1.12,1.12,0,0,0-.82.42,1.33,1.33,0,0,0-.21.84 c .09,1.31.14,2.62.17,3.93 l -1.12.11 C 335.83,264.26,335.78,263,335.69,261.64Z" fill="param(main_colour)"/>
    <path d="M 327.27,280.13 c -.18-6.72,1.57-13.45,1-20.17 l 1.12-.1 c 1.5,6.61,1,13.22,2.11,19.78 l -1.13.13 c -.19-1.12-.33-2.25-.45-3.38 l -1.5.16 c -.06,1.15-.09,2.3-.07,3.44Z m 2-13 c -.23,2.73-.58,5.45-.78,8.18 l 1.29-.14 C 329.59,272.49,329.51,269.81,329.31,267.12Z" fill="param(main_colour)"/>
    <path d="M 317.63,263.36 a 2.49,2.49,0,0,1,.45-1.73,2.06,2.06,0,0,1,1.54-.76,3.24,3.24,0,0,1,1,.08,2.13,2.13,0,0,1,.78.39,2.32,2.32,0,0,1,.53.64,2.43,2.43,0,0,1,.25.94,15.49,15.49,0,0,1,.06,2.63,15.32,15.32,0,0,1-.38,2.18,13.45,13.45,0,0,1-.56,1.84 c -.22.57-.66,1.7-.66,1.7-.22.55-.39,1.1-.61,1.7 a 16.63,16.63,0,0,0-.63,2.69,13.49,13.49,0,0,0-.1,3.4,1.25,1.25,0,0,0,.32.8,1,1,0,0,0,.85.23,1.09,1.09,0,0,0,.81-.42,1.52,1.52,0,0,0,.17-.86 c -.1-1.34-.13-2.68-.13-4 l 1.17-.13 c 0,1.34,0,2.68.11,4 a 2.46,2.46,0,0,1-.44,1.7,2.06,2.06,0,0,1-1.51.79,3,3,0,0,1-1,0,3.11,3.11,0,0,1-.77-.37,2.39,2.39,0,0,1-.53-.65,2.32,2.32,0,0,1-.25-.91,15.45,15.45,0,0,1-.08-2.63,14.74,14.74,0,0,1,.36-2.19,12.79,12.79,0,0,1,.55-1.87 c .14-.37.26-.71.39-1.1.31-.71.61-1.5.87-2.31 a 17,17,0,0,0,.64-2.68 A 13.39,13.39,0,0,0,321,263 a 1.17,1.17,0,0,0-.32-.81,1,1,0,0,0-.87-.27,1.1,1.1,0,0,0-.82.43,1.39,1.39,0,0,0-.2.86 c .1,1.34.13,2.68.13,4 l -1.16.12 C 317.76,266,317.73,264.7,317.63,263.36Z" fill="param(main_colour)"/>
    <path d="M 308.08,264.28 a 2.48,2.48,0,0,1,.49-1.75,2.16,2.16,0,0,1,1.58-.77,3.27,3.27,0,0,1,1,.08,2.1,2.1,0,0,1,.78.39,2.27,2.27,0,0,1,.52.64,2.42,2.42,0,0,1,.24,1,17,17,0,0,1,0,2.65,16.57,16.57,0,0,1-.37,2.2,14.55,14.55,0,0,1-.53,1.86 l -.62,1.72 c -.2.56-.36,1.11-.56,1.72 a 16.63,16.63,0,0,0-.54,2.72,14.26,14.26,0,0,0,0,3.44,1.31,1.31,0,0,0,.34.81,1,1,0,0,0,.85.23,1,1,0,0,0,.79-.43,1.54,1.54,0,0,0,.14-.87 c -.14-1.35-.21-2.71-.24-4.06 l 1.15-.13 c 0,1.35.09,2.71.23,4.06 a 2.48,2.48,0,0,1-.38,1.72,2,2,0,0,1-1.47.8,2.88,2.88,0,0,1-1,0,3.14,3.14,0,0,1-.77-.37,2.46,2.46,0,0,1-.54-.66,2.42,2.42,0,0,1-.27-.92,16.88,16.88,0,0,1-.15-2.66,15.08,15.08,0,0,1,.29-2.21,12.53,12.53,0,0,1,.48-1.89 c .13-.37.24-.72.35-1.11.29-.72.56-1.51.82-2.33 a 18.52,18.52,0,0,0,.6-2.71,14.79,14.79,0,0,0,.12-3.41,1.17,1.17,0,0,0-.31-.82,1,1,0,0,0-.88-.28,1.15,1.15,0,0,0-.84.44,1.41,1.41,0,0,0-.21.87 c .09,1.35.13,2.71.15,4.06 l -1.16.12 C 308.21,267,308.17,265.64,308.08,264.28Z" fill="param(main_colour)"/>
    <path d="M 299.48,262.68 c .64,2.35,1.24,4.69,1.8,7,.3-2.43.61-4.86.85-7.29 l 1.16-.11 c -.32,3.49-.84,7-1.29,10.48.16,3.44.32,6.87.76,10.3 l -1.1.14 c -.4-3.43-.58-6.85-.76-10.29-.78-3.37-1.66-6.76-2.57-10.15Z" fill="param(main_colour)"/>
  </g>
  <g id="fixed-colours">
    <path d="M 271.89,276.93 a 20,20,0,0,0,22.17,18.45,31.9,31.9,0,0,1-11.43-4.1 C 277.34,287.87,274.39,283.63,271.89,276.93Z" opacity="0.4"/>
    <path d="M 333.23,274.55 s -18.28-1.27-27.17,7.62 C 312.16,273.78,324.09,271,333.23,274.55Z" opacity="0.2"/>
    <path d="M 313.18,270.48 s 7.87,2.54,14-3.55 C 323.84,268.71,317,270.74,313.18,270.48Z" opacity="0.2"/>
  </g>
<script type="text/ecmascript" xlink:href="param.min.js"/> 
</svg>
