<?xml version="1.0"?>
<svg xmlns="http://www.w3.org/2000/svg" xmlns:xlink="http://www.w3.org/1999/xlink" viewBox="0 0 250 250">
  <title>basic-jeans-voluptuous</title>
  <g id="skin-tone">
    <path d="M 125.49,217.74 c -5.39,4.84-10.7,4.16-14.33,2.61.55,1.27,1,2.35,1.34,3.15 a 26.49,26.49,0,0,0,3.61,6.46 h 0 a 4.73,4.73,0,0,0,8.5-.5 h 0 c .55-.62,1.28-3,1.12-6.63 C 125.7,221.66,125.6,219.82,125.49,217.74Z" fill="param(skin_tone)"/>
  </g>
  <g id="main-colour">
    <path d="M 137.92,120.92 c -1.58-4.42-5.92-8.83-11.58-9.33 s -8.83,2.5-11.92,5.08-7.58,7.75-10.17,10.42 a 56.49,56.49,0,0,0-10.58,17.15 c -3.5,8.83-.92,20.58,1.67,30.67 s 7.33,21.83,9.33,27.17 c 1.56,4.16,4.13,12.81,6.49,18.26,3.63,1.17,9.69,2.1,14.35-2.39-.23-4.46-.53-10.14-.59-13-.08-4.17-.33-13.58-.08-23.67 s 3-26.08,4.67-31.5,4.92-12.25,7.33-17.67 S 138.5,123,137.92,120.92Z" fill="param(main_colour)"/>
  </g>
  <g id="fixed-colours">
    <path d="M 110.66,123.52 s -5.63,6.72-8.41,11 c -3.25,5-7.39,14.69-7,24.88.42,11,6,23.41,8,28.88,2.63,7.13,8.5,25.92,8.83,27.58 a 215,215,0,0,0-7.48-26.25 c -3.49-9.83-8.22-20.21-8.22-31.21 a 46.73,46.73,0,0,1,6.5-23.25 C 105.21,131,109.25,126.9,110.66,123.52Z" opacity="0.5"/>
    <g opacity="0.6">
      <polygon points="111.45 124.4 110.89 125.22 110.87 125.21 111.45 124.4" fill="#fff"/>
      <polygon points="110.04 126.46 109.48 127.29 109.43 127.26 110 126.44 110.04 126.46" fill="#fff"/>
      <polygon points="108.65 128.54 108.09 129.37 108 129.31 108.57 128.49 108.65 128.54" fill="#fff"/>
      <polygon points="107.27 130.62 106.72 131.46 106.59 131.37 107.15 130.54 107.27 130.62" fill="#fff"/>
      <polygon points="105.91 132.72 105.38 133.57 105.21 133.46 105.76 132.62 105.91 132.72" fill="#fff"/>
      <polygon points="104.6 134.84 104.1 135.71 103.88 135.58 104.4 134.72 104.6 134.84" fill="#fff"/>
      <polygon points="103.39 137.02 102.94 137.91 102.7 137.79 103.16 136.9 103.39 137.02" fill="#fff"/>
      <polygon points="102.31 139.26 101.91 140.18 101.64 140.06 102.05 139.15 102.31 139.26" fill="#fff"/>
      <polygon points="101.34 141.56 100.99 142.49 100.7 142.39 101.07 141.45 101.34 141.56" fill="#fff"/>
      <polygon points="100.5 143.91 100.19 144.85 99.88 144.76 100.2 143.8 100.5 143.91" fill="#fff"/>
      <polygon points="99.77 146.29 99.51 147.25 99.18 147.16 99.45 146.2 99.77 146.29" fill="#fff"/>
      <polygon points="99.17 148.7 98.96 149.68 98.61 149.61 98.82 148.63 99.17 148.7" fill="#fff"/>
      <polygon points="98.7 151.15 98.55 152.13 98.18 152.08 98.33 151.09 98.7 151.15" fill="#fff"/>
      <polygon points="98.37 153.62 98.28 154.61 97.88 154.57 97.98 153.57 98.37 153.62" fill="#fff"/>
      <polygon points="98.19 156.09 98.16 157.09 97.75 157.08 97.78 156.08 98.19 156.09" fill="#fff"/>
      <polygon points="98.17 158.58 98.2 159.57 97.77 159.59 97.74 158.59 98.17 158.58" fill="#fff"/>
      <polygon points="98.3 161.06 98.39 162.06 97.94 162.1 97.86 161.1 98.3 161.06" fill="#fff"/>
      <polygon points="98.56 163.54 98.69 164.53 98.23 164.59 98.1 163.6 98.56 163.54" fill="#fff"/>
      <polygon points="98.92 166.01 99.09 166.99 98.61 167.07 98.45 166.08 98.92 166.01" fill="#fff"/>
      <polygon points="99.37 168.46 99.57 169.43 99.08 169.54 98.88 168.55 99.37 168.46" fill="#fff"/>
      <polygon points="99.89 170.9 100.11 171.87 99.64 171.98 99.41 171 99.89 170.9" fill="#fff"/>
      <polygon points="100.47 173.32 100.73 174.28 100.28 174.41 100.02 173.44 100.47 173.32" fill="#fff"/>
      <polygon points="101.13 175.72 101.41 176.68 100.97 176.81 100.69 175.85 101.13 175.72" fill="#fff"/>
      <polygon points="101.84 178.12 102.14 179.07 101.73 179.2 101.42 178.25 101.84 178.12" fill="#fff"/>
      <rect x="102.36" y="180.53" width="0.42" height="1" transform="translate(-52.98 42.84) rotate(-18.85)" fill="#fff"/>
      <rect x="103.21" y="182.89" width="0.4" height="1" transform="translate(-56.55 46.5) rotate(-20.03)" fill="#fff"/>
      <rect x="104.1" y="185.22" width="0.39" height="1" transform="translate(-59.71 49.81) rotate(-21.03)" fill="#fff"/>
      <rect x="105.02" y="187.55" width="0.37" height="1" transform="translate(-60.26 50.02) rotate(-20.94)" fill="#fff"/>
      <polygon points="106.08 189.86 106.41 190.81 106.08 190.92 105.75 189.98 106.08 189.86" fill="#fff"/>
      <polygon points="106.89 192.23 107.19 193.19 106.88 193.29 106.57 192.34 106.89 192.23" fill="#fff"/>
      <rect x="107.46" y="194.65" width="0.31" height="1" transform="translate(-50.79 38.4) rotate(-16.43)" fill="#fff"/>
      <rect x="108.17" y="197.05" width="0.3" height="1" transform="translate(-48.88 36.15) rotate(-15.51)" fill="#fff"/>
      <polygon points="108.98 199.44 109.24 200.4 108.97 200.47 108.71 199.51 108.98 199.44" fill="#fff"/>
      <polygon points="109.61 201.86 109.86 202.83 109.61 202.89 109.36 201.92 109.61 201.86" fill="#fff"/>
      <polygon points="110.22 204.28 110.45 205.25 110.25 205.31 110 204.34 110.22 204.28" fill="#fff"/>
      <polygon points="110.8 206.72 111.03 207.69 110.87 207.73 110.62 206.76 110.8 206.72" fill="#fff"/>
      <polygon points="111.36 209.15 111.58 210.13 111.48 210.15 111.24 209.18 111.36 209.15" fill="#fff"/>
      <polygon points="111.91 211.59 112.13 212.56 112.08 212.58 111.84 211.6 111.91 211.59" fill="#fff"/>
      <polygon points="112.46 214.03 112.66 214.94 112.44 214.03 112.46 214.03" fill="#fff"/>
    </g>
  </g>
  <g id="outline">
    <path d="M 111.81,221.23 s 8.17,3.5,13.5-2.33 l -.17-2 s -4.92,5.58-13.83,2.58 C 111.64,220.48,111.81,221.23,111.81,221.23Z"/>
    <path d="M 139.5,125 a 14.48,14.48,0,0,0-26.2-8.53 c -1.22,1.23-8.35,6.8-12.88,12.74-5.85,7.66-9.55,14.32-10.07,28.51-.28,7.61,6.11,25.84,9.86,35.21,4.51,11.27,7.59,21.16,9.09,24.91 S 113.67,229,116.11,230 c -1.18-2.37-3.66-9.43-7-20.13-4.77-15.12-9.13-22.33-14.51-42.25-4.79-17.75,3.66-32.68,11-40.41,3.91-4.11,9.91-10.28,9.92-10.29 h 0 a 12.49,12.49,0,0,1,21.75,10.57 h 0v0 a 12.34,12.34,0,0,1-.42,1.52 c -.21.7-.5,1.63-.88,2.69-.89,2.39-2.36,5.92-4.79,10.89-5.5,11.25-7.5,34.13-7.5,45.25 s .38,25.63.75,30.13,1,10.21.22,11.51 c 2-1.51,2.16-8,1.66-13.63 s -.75-26.62-.12-39.37 a 116.7,116.7,0,0,1,6.13-31.75 c 2.5-6.87,6.87-13.89,7-17.26 h 0 A 14.41,14.41,0,0,0,139.5,125Z"/>
  </g>
<script type="text/ecmascript" xlink:href="param.min.js"/> 
</svg>
