<?xml version="1.0"?>
<svg xmlns="http://www.w3.org/2000/svg" xmlns:xlink="http://www.w3.org/1999/xlink" viewBox="0 0 600 600">
  <title>skull-design-top-curvy</title>
  <g id="main-colour">
    <path d="M 305.42,302.83 c -.54,0-.75-.52-1.08.09,0,0,.3,3,.77,3 S 306,302.86,305.42,302.83Z" fill="param(main_colour)"/>
    <path d="M 307,303.51 c -1.19,0-.87,2.54-.35,3 s 1,.37,1-.73 S 307.71,303.5,307,303.51Z" fill="param(main_colour)"/>
    <path d="M 308.69,304.26 c -.5.06-.6,1.28-.32,2.26 a 1.1,1.1,0,0,0,1.43.92 c .47-.13.26-1.44.12-2.28 S 309.45,304.17,308.69,304.26Z" fill="param(main_colour)"/>
    <path d="M 313.58,303.52 c -.5,0-.86,2.63,0,2.54 s .94-.79.94-1.56 S 314.18,303.47,313.58,303.52Z" fill="param(main_colour)"/>
    <path d="M 315.11,303.27 c -.12,2.45,1.29.8,1.36.24 s .19-1.62-.22-1.85 S 315.17,302.08,315.11,303.27Z" fill="param(main_colour)"/>
    <path d="M 326.47,287.8 c -.56-2.27.09-8.49-.07-12.26 s .61-11.29-6.09-15.15 c -6.71-4-19.69-3.87-23.31.24-5.92,7-3.46,20.8-2.74,24.22 s -.76,5.11.49,7.75,2.34,3,3.83,2.76,4.76,1.75,5.32,3.46-.37,3.8,2.47,3.42,1.1,2.35,3.13,1.17,3.39.83,3.79-.33,3.51-1.7,3.36-4,2.26-5.49,5.66-4.31 S 327,290.07,326.47,287.8Z M 303.68,290 c -1.48.94-5.56.53-6.19-.84 a 17.35,17.35,0,0,1-.67-5.61 c .06-.82.14-2.21,1.54-2.54,2.07-.49,4.2-1.88,5.77-1.1 s 2.95,2.62,2.82,3.92 S 305.16,289,303.68,290Z m 10,3.86 c -.2,1.42-.66,3.14-1.75,3 s -.63-2.51-.84-3.7-1-2.36-1.26-.57.36,4.39-1.1,4.49 c -.86.06-1.44-2.56-1-5.31 s 1.52-4.28,2.18-3.88,1-1.17,1.73-.14 S 313.89,292.42,313.69,293.84Z m 9.8-5 c -.88.92-4.67,1.67-6.37,1 s -1.58-2.49-2.6-3.09 a 2.63,2.63,0,0,1-1.5-1.95 c -.31-1.21,1.59-3,2.64-4.22 s 1.93-1.29,3.77-.34,3.81.84,4,2.33 S 324.36,287.88,323.49,288.8Z" fill="param(main_colour)"/>
  </g>
  <g id="fixed-colours">
    <path d="M 322.14,264.15 s -10.31,16.41-26,21.41 C 308.35,285.55,318,275.19,322.14,264.15Z" opacity="0.15"/>
    <path d="M 319.56,274.11 s -4.59,9-11.68,12.87 C 315.15,285.45,318.57,277.68,319.56,274.11Z" opacity="0.15"/>
  </g>
<script type="text/ecmascript" xlink:href="param.min.js"/> 
</svg>
