<?xml version="1.0"?>
<svg xmlns="http://www.w3.org/2000/svg" xmlns:xlink="http://www.w3.org/1999/xlink" viewBox="0 0 600 600">
  <title>honey-slogan-hourglass</title>
  <g id="main-colour">
    <path d="M 296.09,280.3q-.07-1-.14-1.93 l .81-.08 c -.22-3.21-.32-6.42-.51-9.64 l -.86.07-.12-1.93,3.48-.28q.06,1,.1,1.92 l -.86.07 c .06,1.28.1,2.57.13,3.85 l 3.34-.3 c 0-1.28,0-2.56,0-3.84 l -.86.07 c 0-.64,0-1.28-.09-1.92 l 3.45-.28 c 0,.64.07,1.28.08,1.91 l -.86.07 c .07,3.19-.19,6.39.06,9.57 l .81-.08 c .05.64.12,1.27.23,1.91 l -3.26.32 c -.09-.64-.16-1.28-.21-1.92 l .81-.08 c -.11-1.28-.14-2.56-.14-3.83 l -3.28.3 c 0,1.28.1,2.57.2,3.85 l .81-.08 c .05.64.11,1.28.19,1.92Z" fill="param(main_colour)"/>
    <path d="M 307.19,279.2 c -.52-.46-1-.93-1.5-1.4-.32-3.43.13-6.87,0-10.31.45-.55.88-1.09,1.29-1.64 l 4.09-.32q.76.71,1.46,1.41 c .11,3.41-.57,6.83-.34,10.23q-.61.82-1.14,1.64Z m .1-1.93,3.28-.31 c -.18-3.16.35-6.33.31-9.49 l -3.42.28 C 307.5,270.92,307.06,274.1,307.29,277.27Z" fill="param(main_colour)"/>
    <path d="M 314,278.53 c -.66-4.4.64-8.82.12-13.24 l 1.69-.13 a 61.23,61.23,0,0,1,3.92,8.69 c .2-3,.7-6,.28-9 l 1.67-.13 c .63,4.38-.69,8.76-.25,13.13 l -1.66.16 a 63.54,63.54,0,0,1-3.88-8.67 c -.18,3-.67,6-.25,9.06Z" fill="param(main_colour)"/>
    <path d="M 323.13,277.67 c -.38-4.36.89-8.73.26-13.1 l 6.67-.51 c .08.62.13,1.24.16,1.86 l -5,.4 a 32.63,32.63,0,0,1-.11,3.74 l 3.36-.28 c 0,.62-.09,1.24-.13,1.86 l -3.38.29 c -.1,1.25-.2,2.49-.21,3.74 l 5.1-.45 c 0,.62,0,1.24,0,1.85Z" fill="param(main_colour)"/>
    <path d="M 330.87,264 l 1.67-.13 a 52.25,52.25,0,0,1,2.61,4.66 c .87-1.68,1.65-3.36,2.44-5 l 1.7-.12 c -1.12,2.23-2.16,4.46-3.34,6.71-.06,2.15-.13,4.3-.12,6.45 l -1.72.15 c 0-2.15.08-4.31.17-6.46 A 59.43,59.43,0,0,0,330.87,264Z" fill="param(main_colour)"/>
  </g>
  <g id="fixed-colours">
    <path d="M 327.9,274.55 s -12-.83-17.83,5 C 314.07,274,321.9,272.21,327.9,274.55Z" opacity="0.2"/>
    <path d="M 314.73,271.88 a 9.5,9.5,0,0,0,9.17-2.33 C 321.73,270.71,317.23,272,314.73,271.88Z" opacity="0.2"/>
    <path d="M 276.22,285.38 A 26.12,26.12,0,0,0,291.39,294 a 32.68,32.68,0,0,0,12.5-.33 C 294.19,298.69,280.93,296.08,276.22,285.38Z" opacity="0.4"/>
  </g>
<script type="text/ecmascript" xlink:href="param.min.js"/> 
</svg>
