<?xml version="1.0"?>
<svg xmlns="http://www.w3.org/2000/svg" xmlns:xlink="http://www.w3.org/1999/xlink" viewBox="0 0 600 600">
  <title>girl-power-slogan-slender</title>
  <g id="main-colour">
    <path d="M 329.06,272.63 l -1.36.07q-.65,1.89-1.32,3.78 c -.52,1.47-.15,2,.75,1.89 s 1.67-.63,2.23-2.08 c 1.45-3.67,2.85-7.34,4-11,.45-1.45-.06-2-1.11-2 s -1.84.6-2.24,2.07q-.3,1.1-.64,2.19 l -3,.12q.27-1,.52-2 c .8-3.3,2.78-5.22,6.14-5.29 s 4.64,1.73,3.49,5 c -1.22,3.5-2.68,7-4.19,10.52-1.38,3.23-3.57,5.19-6.23,5.41 s -3.43-1.56-2.38-4.86 c .71-2.18,1.4-4.36,2-6.54 l 4.33-.2Q329.59,271.17,329.06,272.63Z" fill="param(main_colour)"/>
    <path d="M 320.38,281.54 l -2.71.22 c 1.87-6.94,3.92-13.9,4.67-20.83 l 3.39-.08 C 324.74,267.72,322.47,274.64,320.38,281.54Z" fill="param(main_colour)"/>
    <path d="M 307.36,282.6 A 8.74,8.74,0,0,0,308,280q.24-1.64.47-3.28 c .31-2.22,1-3.87,2.59-4.64-1.25-.62-1.71-2-1.53-4.22q.07-.84.12-1.68 c .18-3.3,1.59-5,5.11-5 l 5.1-.13 c -.59,7-2.47,14-4.18,20.92 l -2.69.22 c .59-2.85,1.21-5.71,1.77-8.57 l -1,.06 c -1.35.08-2.05.84-2.39,2.8q-.29,1.66-.59,3.32 a 9.26,9.26,0,0,1-.7,2.62Z m 7.33-18.46 c -1.17,0-1.7.72-1.85,2.24q-.1,1-.23,2.09 c -.21,1.7.39,2.21,1.54,2.15 l 1.2-.06 c .38-2.16.71-4.32.92-6.47Z" fill="param(main_colour)"/>
    <path d="M 305.9,282.72 l -7,.59q.05-1.54.11-3.09 l 4.52-.34 a 112,112,0,0,0,.65-18.45 l 3.37-.1 C 307.82,268.46,306.77,275.61,305.9,282.72Z" fill="param(main_colour)"/>
    <path d="M 326.42,284.84 l 2.41-.21 a 109.71,109.71,0,0,0-4.3,12.63 l -1.38.19 c .38-1.59.82-3.17,1.3-4.76 l -.7.08 c -1.47.18-1.91-.85-1.3-2.89q.25-.83.51-1.66 C 323.6,286.17,324.78,285,326.42,284.84Z m -.66,1.82 c -.51,0-.89.37-1.2,1.27q-.32,1-.63,1.91 c -.29.91-.11,1.17.37,1.12 l .71-.08 c .47-1.43,1-2.86,1.5-4.29Z" fill="param(main_colour)"/>
    <path d="M 320.49,294.83 c -.48,2-1.41,3.31-2.75,3.49 s -1.92-.89-1.58-2.95 c .38-2.23.87-4.47,1.41-6.71.51-2.07,1.7-3.33,3.3-3.47 s 2.08.95,1.44,3 C 321.63,290.41,321,292.62,320.49,294.83Z m .29-6.61 c .27-.92.05-1.23-.45-1.19 s -.92.43-1.17,1.35 c -.61,2.32-1.16,4.63-1.6,6.94-.17.92.05,1.23.49,1.17 s .79-.44,1-1.36 C 319.53,292.84,320.12,290.53,320.78,288.22Z" fill="param(main_colour)"/>
    <path d="M 311.34,299.09 l -1.78.25 a 114.86,114.86,0,0,1,.36-13 l 1.39-.13 c -.34,3.45-.6,6.88-.66,10.3 a 97.79,97.79,0,0,1,2.29-10.45 l 1.55-.14 c -.48,3.4-.9,6.79-1.11,10.17 a 99.31,99.31,0,0,1,2.74-10.32 l 1.57-.14 a 91.07,91.07,0,0,0-3.53,13.05 l -1.85.26 c 0-2.28.13-4.56.32-6.86 C 312.09,294.42,311.65,296.76,311.34,299.09Z" fill="param(main_colour)"/>
    <path d="M 307.3,288.48 l -2.68.27q.08-.95.17-1.9 l 4.33-.41 a 98,98,0,0,0-1.18,13.14 l -3.62.52q0-.94-.05-1.89 l 2.35-.32 c 0-1.28.08-2.57.16-3.85 l -2,.24q0-.94.09-1.89 l 2-.23Q307.09,290.32,307.3,288.48Z" fill="param(main_colour)"/>
    <path d="M 299.44,300.82 a 6.81,6.81,0,0,0,0-1.64q-.09-1-.16-2.06 c -.09-1.39.11-2.44.81-3-.65-.36-1-1.22-1-2.6q0-.53,0-1.05 c 0-2.07.73-3.16,2.36-3.32 l 2.38-.23 a 97.76,97.76,0,0,0-.3,13.27 l -1.31.19 c -.13-1.8-.2-3.6-.21-5.4 l -.49.06 c -.64.08-.92.57-.87,1.81q0,1,.12,2.09 a 7.14,7.14,0,0,1,0,1.65Z m 1.95-11.73 c -.54.06-.8.5-.82,1.46q0,.66,0,1.32 c 0,1.07.33,1.37.87,1.31 l .57-.07 c 0-1.36.07-2.73.13-4.1Z" fill="param(main_colour)"/>
  </g>
  <g id="fixed-colours">
    <path d="M 292.14,285.38 c 6.87,2.13,15.94,1.39,21.83-3.67 C 309.22,289.38,297.38,289.89,292.14,285.38Z" opacity="0.4"/>
    <path d="M 328.57,271.59 s -10.9-.76-16.2,4.54 C 316,271.13,323.12,269.47,328.57,271.59Z" opacity="0.2"/>
    <path d="M 316.61,269.16 a 8.63,8.63,0,0,0,8.33-2.12 A 20,20,0,0,1,316.61,269.16Z" opacity="0.2"/>
  </g>
<script type="text/ecmascript" xlink:href="param.min.js"/> 
</svg>
