<?xml version="1.0"?>
<svg xmlns="http://www.w3.org/2000/svg" xmlns:xlink="http://www.w3.org/1999/xlink" viewBox="0 0 600 600">
  <title>love-slogan-curvy</title>
  <g id="main-colour">
    <path d="M 302.27,279.46 l -10.58,1,0-.52,1.89-.18 c -.42-4.66-.39-9.32-.66-14 l -2,.15,0-.52,6.71-.5q0,.26,0,.52 l -2.1.16 c .27,4.66,0,9.31.5,14 l 2.45-.23 a 2.78,2.78,0,0,0,2.39-1.42,7.29,7.29,0,0,0,.75-3.36 l .6-.05 A 28.27,28.27,0,0,0,302.27,279.46Z" fill="param(main_colour)"/>
    <path d="M 313.76,276.41 c -1.17,1.65-2.37,2.55-3.95,2.69 a 5.26,5.26,0,0,1-4.42-1.93,7,7,0,0,1-1.77-5.29,10.13,10.13,0,0,1,2-5.58,5.66,5.66,0,0,1,4.18-2.65,5.48,5.48,0,0,1,4.49,2,6.52,6.52,0,0,1,1.56,5.26 A 11.31,11.31,0,0,1,313.76,276.41Z m -.55-7.94 a 4.92,4.92,0,0,0-.75-3.34,2.86,2.86,0,0,0-2.57-1,2.82,2.82,0,0,0-2.38,1.34,7.56,7.56,0,0,0-.84,3.48 c -.09,1.77-.26,3.55-.31,5.32 a 5,5,0,0,0,.86,3.35,2.71,2.71,0,0,0,2.51.94,2.65,2.65,0,0,0,2.25-1.37,8.22,8.22,0,0,0,.8-3.46 C 312.88,272,313.09,270.24,313.21,268.47Z" fill="param(main_colour)"/>
    <path d="M 326.61,263.27 c -.88,4.89-3.88,9.82-4.9,14.76 l -.58.05 c -2.12-4.66-2.21-9.37-4.28-14.1 l -1.63.12q0-.25-.06-.51 l 6.2-.45q0,.25.07.5 l -2,.15 c 1.5,3.34,2,6.68,2.9,10,1.34-3.5,3-7,3.71-10.47 l -2,.15q0-.25-.07-.5 l 4.23-.3q0,.25.07.5Z" fill="param(main_colour)"/>
    <path d="M 339.42,276.19 l -11.35,1q0-.25,0-.5 l 2-.17 c -.09-4.49.82-9,.35-13.48 l -1.92.14q0-.25-.06-.5 l 10.82-.76 c .07,1.27.11,2.54.14,3.81 l -.54,0 a 4,4,0,0,0-1.25-2.6,3.8,3.8,0,0,0-2.46-.47 l -2.24.16 a 43.81,43.81,0,0,1,0,6.29 l .52,0 a 2.33,2.33,0,0,0,2-.93,3.66,3.66,0,0,0,.52-1.89 l .54,0 c 0,2-.12,4-.19,6 l -.56,0 a 3.78,3.78,0,0,0-.39-1.95 c -.3-.55-.94-.79-1.92-.71 l -.53,0 c -.13,2.22-.29,4.44-.27,6.66 l 2.68-.22 a 3.53,3.53,0,0,0,2.72-1.23,7.35,7.35,0,0,0,1.1-3.16 l .57,0Q339.52,273.9,339.42,276.19Z" fill="param(main_colour)"/>
  </g>
  <g id="fixed-colours">
    <path d="M 304.23,283.15 c -8.46,4.78-13.95,5.54-21.42,5 C 289.71,291.7,299.52,289.12,304.23,283.15Z" opacity="0.4"/>
    <path d="M 331.9,273.4 s -15.54-1.08-23.09,6.48 C 314,272.76,324.13,270.38,331.9,273.4Z" opacity="0.2"/>
    <path d="M 314.85,269.95 a 12.31,12.31,0,0,0,11.87-3 C 323.91,268.44,318.09,270.17,314.85,269.95Z" opacity="0.2"/>
  </g>
<script type="text/ecmascript" xlink:href="param.min.js"/> 
</svg>
