<?xml version="1.0"?>
<svg xmlns="http://www.w3.org/2000/svg" xmlns:xlink="http://www.w3.org/1999/xlink" viewBox="0 0 600 600">
  <title>honey-slogan-voluptuous</title>
  <g id="main-colour">
    <path d="M 296.3,285.48q-.07-1.12-.12-2.24 l .93-.07 c -.2-3.74-.28-7.47-.45-11.21 l -1,.07-.11-2.25,4-.25q.07,1.12.1,2.24 l -1,.07 c .05,1.49.08,3,.1,4.48 l 3.9-.28 c 0-1.49.06-3,0-4.46 l -1,.06 c 0-.75,0-1.49-.09-2.24 l 4-.25 c .06.74.09,1.48.1,2.23 l -1,.06 c .06,3.71-.34,7.43-.09,11.14 l .94-.07 c .05.74.13,1.48.25,2.22 L 302,285 c -.1-.74-.17-1.49-.22-2.23 l .94-.07 c -.1-1.49-.12-3-.1-4.46 l -3.82.28 c 0,1.49.07,3,.17,4.48 l .94-.08 c 0,.75.11,1.49.2,2.24Z" fill="param(main_colour)"/>
    <path d="M 309.22,284.44 c -.61-.55-1.18-1.1-1.74-1.65-.33-4,.31-8,.21-12,.52-.63,1-1.25,1.5-1.88 l 4.75-.29q.89.83,1.71,1.67 c .12,4-.82,7.94-.56,11.91q-.71.94-1.32,1.88Z m .13-2.25,3.81-.29 c -.19-3.68.56-7.36.52-11 l -4,.25 C 309.74,274.8,309.12,278.5,309.35,282.19Z" fill="param(main_colour)"/>
    <path d="M 317.2,283.8 c -.82-5.13,1-10.27.29-15.4 l 2-.12 c 2.11,3.42,3.06,6.82,4.42,10.2.28-3.5,1-7,.46-10.5 l 1.95-.12 c .77,5.09-1,10.19-.46,15.27 l -1.93.15 c -2-3.36-3-6.75-4.37-10.17-.26,3.52-.95,7-.42,10.54Z" fill="param(main_colour)"/>
    <path d="M 327.76,283 c -.5-5.07,1.24-10.16.47-15.24 l 7.77-.47 c .09.72.14,1.44.16,2.16 l -5.8.36 a 34.41,34.41,0,0,1-.2,4.35 l 3.91-.26 c -.06.72-.13,1.44-.2,2.17 l -3.93.27 c -.15,1.45-.29,2.9-.31,4.35 l 5.92-.43 c 0,.72,0,1.44,0,2.16Z" fill="param(main_colour)"/>
    <path d="M 336.94,267.22 l 1.95-.12 a 54.83,54.83,0,0,1,2.94,5.47 c 1-1.94,2-3.88,2.93-5.81 l 2-.11 c -1.34,2.57-2.59,5.15-4,7.74-.12,2.5-.25,5-.25,7.5 l -2,.14 c 0-2.5.15-5,.3-7.52 A 62.14,62.14,0,0,0,336.94,267.22Z" fill="param(main_colour)"/>
  </g>
  <g id="fixed-colours">
    <path d="M 334.57,274.55 s -18.28-1.27-27.17,7.62 C 313.49,273.78,325.43,271,334.57,274.55Z" opacity="0.2"/>
    <path d="M 314.51,270.48 s 7.87,2.54,14-3.55 C 325.17,268.71,318.32,270.74,314.51,270.48Z" opacity="0.2"/>
    <path d="M 295.07,297.54 c -12.33-.33-23.33-7.33-30-19.9 C 268.07,292.71,281.6,300.9,295.07,297.54Z" opacity="0.4"/>
  </g>
<script type="text/ecmascript" xlink:href="param.min.js"/> 
</svg>
