<?xml version="1.0"?>
<svg xmlns="http://www.w3.org/2000/svg" xmlns:xlink="http://www.w3.org/1999/xlink" viewBox="0 0 215 215">
  <title>city-classic-top-voluptuous</title>
  <g id="skin-tone">
    <path d="M 113.54,166.81 c -1.29-.58-5-1.79-10.55.35.58,2.27,1,4.22,1.25,5.49.76,4.47,1.38,6.88,4.67,6.82 s 4.61-2.79,4.35-5.24 A 48.77,48.77,0,0,1,113.54,166.81Z" fill="param(skin_tone)"/>
  </g>
  <g id="main-colour">
    <path d="M 115.2,102.67 a 9.08,9.08,0,0,0-15.27-.2 h 0 A 34.79,34.79,0,0,0,93,121.58 c -.58,11.54,2.45,20.43,4.68,27.27.86,2.64,1.92,6.11,2.94,9.64 a 17.44,17.44,0,0,1,7.74-1.93,16.53,16.53,0,0,1,6.42,1.37 c .19-1,.4-2,.63-2.94,1.78-7.41,4.49-21.23,4.68-29.48 S 119.79,108.61,115.2,102.67Z" fill="param(main_colour)"/>
  </g>
  <g id="accent-colour-2">
    <path d="M 103.48,169.69 a 18.07,18.07,0,0,1-3.69-1.19,24.61,24.61,0,0,0-1.12-8.81 s 9.56-6.69,18.44-.25 a 51.09,51.09,0,0,0-.19,9.06,22.49,22.49,0,0,1-3.31,1.31 c 0-2.37-.07-3-.07-3 a 13.72,13.72,0,0,0-10.55.35 C 103.23,168.32,103.48,169.69,103.48,169.69Z" fill="param(accent_colour_2)"/>
  </g>
  <g id="outline">
    <path d="M 115.2,102.67 c 2.1,3.93,4.48,9.84,4.07,21.59-.37,10.36-3.46,24.08-5.23,32.58-4.67-1.9-9.35-.81-12.47.47 l -.61-2.2 C 98.67,147,93.6,135,94,123.55 c .32-9,3.81-18,5.91-21.08-2.66,1.64-7.71,8.79-8.16,18.28-.67,14.41,3.73,25.05,6.87,34.69.31,1,.6,1.89.88,2.82 a 17.18,17.18,0,0,0-1.69,1,42.64,42.64,0,0,1,1.27,9.81,11.78,11.78,0,0,0,3.52,1.24 c .67,3.17,1,5.1,1,5.1 a 5.32,5.32,0,0,0,5.31,5.13 h .22 a 5.34,5.34,0,0,0,5.13-5.53,41.81,41.81,0,0,1,0-4.83,22.62,22.62,0,0,0,3.24-1.08,61.12,61.12,0,0,1,.33-10,15.28,15.28,0,0,0-1.85-1.31 c 1.71-8.73,4.15-18.67,5.14-30.93 C 122.82,105.9,115.2,102.67,115.2,102.67Z M 109,178.53 h -.14 a 3.33,3.33,0,0,1-3.32-3.21 h 0 a 21.92,21.92,0,0,0-.45-3.77v-.08 h 0 c -.24-1.27-.57-2.75-1-4.36 a 20.33,20.33,0,0,1,8.31-.29,67.61,67.61,0,0,0-.21,8.25 A 3.33,3.33,0,0,1,109,178.53Z m 7.37-10.19 c -.7.25-1.4.44-2.08.61q.06-.77.14-1.54 c .31.12.61.24.91.39-2.5-2.83-10.46-3.17-14.12.17,0,0,.29-.11.8-.27 l .29,1.29 a 8.76,8.76,0,0,1-1.8-.66,43,43,0,0,0-1.29-8.48 c 10.42-5.67,17.25-.33,17.25-.33 A 85.69,85.69,0,0,0,116.42,168.34Z"/>
  </g>
<script type="text/ecmascript" xlink:href="param.min.js"/> 
</svg>
