<?xml version="1.0"?>
<svg xmlns="http://www.w3.org/2000/svg" xmlns:xlink="http://www.w3.org/1999/xlink" viewBox="0 0 600 600">
  <title>girl-power-slogan-slender</title>
  <g id="main-colour">
    <path d="M 329.85,273.39 l -1.38.09 c -.45,1.29-.92,2.58-1.39,3.87-.54,1.5-.17,2,.74,1.93 s 1.7-.64,2.29-2.14 c 1.52-3.78,3-7.57,4.2-11.35.48-1.5,0-2-1.1-2 s -1.88.67-2.3,2.17q-.32,1.13-.68,2.25 l -3,.19q.29-1,.55-2 c .86-3.37,2.9-5.39,6.31-5.57 s 4.68,1.63,3.47,5 c -1.29,3.64-2.82,7.28-4.4,10.92-1.44,3.34-3.68,5.35-6.37,5.56 s -3.46-1.6-2.36-5 c .74-2.22,1.47-4.44,2.14-6.67 l 4.39-.28Q330.4,271.88,329.85,273.39Z" fill="param(main_colour)"/>
    <path d="M 320.93,282.48 l -2.75.2 c 2-7,4.14-14,5-21 l 3.44-.2 C 325.53,268.46,323.13,275.5,320.93,282.48Z" fill="param(main_colour)"/>
    <path d="M 307.7,283.47 a 8.4,8.4,0,0,0,.7-2.56q.26-1.61.51-3.23 c .34-2.19,1.05-3.82,2.69-4.61-1.26-.6-1.71-2-1.51-4.13q.08-.83.14-1.65 c .22-3.25,1.67-4.92,5.26-5.14 l 5.19-.32 c -.69,7-2.69,14-4.5,21 l -2.74.2 c .63-2.84,1.3-5.68,1.9-8.53 l -1,.07 c -1.37.09-2.1.85-2.46,2.81q-.31,1.65-.63,3.29 a 9,9,0,0,1-.74,2.59Z m 7.67-18.33 c -1.19.07-1.74.77-1.91,2.27q-.12,1-.26,2.07 c -.23,1.68.38,2.18,1.54,2.1 l 1.22-.08 c .42-2.16.77-4.31,1-6.46Z" fill="param(main_colour)"/>
    <path d="M 306.21,283.58 l -7.16.54q.07-1.49.14-3 l 4.61-.34 a 104.84,104.84,0,0,0,.87-18 l 3.43-.22 C 308.32,269.58,307.17,276.61,306.21,283.58Z" fill="param(main_colour)"/>
    <path d="M 327,285.9 l 2.44-.19 a 110.2,110.2,0,0,0-4.45,12.9 l -1.4.13 c .39-1.61.84-3.22,1.34-4.84 l -.71.06 c -1.49.13-1.93-.93-1.3-3q.26-.84.53-1.68 C 324.15,287.22,325.36,286,327,285.9Z m -.69,1.85 c -.51,0-.9.36-1.22,1.28q-.33,1-.65,1.94 c -.3.92-.12,1.19.36,1.15 l .72-.06 c .49-1.46,1-2.92,1.55-4.38Z" fill="param(main_colour)"/>
    <path d="M 320.93,296 c -.5,2.06-1.45,3.31-2.81,3.44 s -2-1-1.59-3 c .4-2.24.91-4.48,1.48-6.72.53-2.08,1.76-3.33,3.38-3.46 s 2.1,1,1.43,3.07 C 322.12,291.5,321.47,293.74,320.93,296Z m .34-6.71 c .28-.93.07-1.25-.45-1.21 s -.94.42-1.19,1.34 c -.64,2.33-1.22,4.65-1.68,7-.18.92,0,1.24.5,1.2 s .8-.42,1-1.34 C 320,293.91,320.58,291.59,321.27,289.26Z" fill="param(main_colour)"/>
    <path d="M 311.61,299.88 l -1.81.17 a 107,107,0,0,1,.46-12.85 l 1.42-.11 c -.37,3.42-.67,6.82-.75,10.21 A 93.15,93.15,0,0,1,313.34,287 l 1.57-.12 c -.52,3.39-1,6.77-1.2,10.14 a 96,96,0,0,1,2.87-10.27 l 1.59-.12 a 88.27,88.27,0,0,0-3.67,13 l -1.89.18 c 0-2.28.16-4.55.36-6.83 A 70.58,70.58,0,0,0,311.61,299.88Z" fill="param(main_colour)"/>
    <path d="M 307.58,289.25 l -2.73.22q.09-.93.19-1.85 l 4.41-.34 a 91.18,91.18,0,0,0-1.3,12.94 l -3.69.34q0-.92,0-1.85 l 2.4-.22 c 0-1.26.1-2.52.19-3.78 l -2,.17q0-.92.11-1.85 l 2.06-.17Q307.34,291.05,307.58,289.25Z" fill="param(main_colour)"/>
    <path d="M 299.48,301 a 6.24,6.24,0,0,0,0-1.58q-.09-1-.15-2 c -.08-1.35.13-2.35.85-2.83-.66-.37-1-1.21-1-2.54q0-.51,0-1 c 0-2,.77-3,2.44-3.17 l 2.43-.19 a 89.19,89.19,0,0,0-.41,12.94 l -1.34.12 c -.13-1.75-.18-3.51-.18-5.26 l -.5,0 c -.66.06-.95.52-.9,1.72q0,1,.11,2 a 6.58,6.58,0,0,1,0,1.6Z m 2.08-11.28 c -.56,0-.82.47-.84,1.4q0,.64,0,1.28 c 0,1,.33,1.34.88,1.29 l .58,0 c 0-1.32.09-2.65.17-4Z" fill="param(main_colour)"/>
  </g>
  <g id="fixed-colours">
    <path d="M 289.35,285.05 A 29.19,29.19,0,0,0,311,289.76 C 304.17,293.63,294,291.6,289.35,285.05Z" opacity="0.4"/>
    <path d="M 332.15,270.58 s -13.31-.92-19.78,5.55 C 316.81,270,325.49,268,332.15,270.58Z" opacity="0.2"/>
    <path d="M 317.55,267.62 A 10.54,10.54,0,0,0,327.71,265 C 325.31,266.33,320.32,267.81,317.55,267.62Z" opacity="0.2"/>
  </g>
<script type="text/ecmascript" xlink:href="param.min.js"/> 
</svg>
