<?xml version="1.0"?>
<svg xmlns="http://www.w3.org/2000/svg" xmlns:xlink="http://www.w3.org/1999/xlink" viewBox="0 0 600 600">
  <title>love-slogan-voluptuous</title>
  <g id="main-colour">
    <path d="M 329.69,273.19 l .61-.06 a 4.61,4.61,0,0,0,.82,3.09,2.79,2.79,0,0,0,2.66.86 l 2.58-.28 c -.08-4.46.31-8.93-.07-13.39 l -2,.19q0-.25-.06-.5 l 6.49-.6q0,.25,0,.49 l -1.94.18 c .25,4.46.07,8.91.15,13.36 l 2-.21v.49 L 329.84,278 C 329.7,276.39,329.68,274.79,329.69,273.19Z" fill="param(main_colour)"/>
    <path d="M 316.09,272.19 a 10.82,10.82,0,0,1,2-5.58,5.58,5.58,0,0,1,4-2.7,5.38,5.38,0,0,1,4.49,1.88,6.64,6.64,0,0,1,1.75,5.13,9.92,9.92,0,0,1-2.1,5.52,6,6,0,0,1-4.16,2.73,5.07,5.07,0,0,1-4.39-1.82 A 6.55,6.55,0,0,1,316.09,272.19Z m 2.74,2.32 a 4.82,4.82,0,0,0,.78,3.28,2.59,2.59,0,0,0,2.49.87,3,3,0,0,0,2.37-1.41,7.3,7.3,0,0,0,.87-3.44 c .1-1.74.24-3.48.29-5.22 a 4.87,4.87,0,0,0-.85-3.28,2.76,2.76,0,0,0-2.54-.91,2.84,2.84,0,0,0-2.32,1.39,8,8,0,0,0-.76,3.46 C 319.08,271,318.92,272.77,318.83,274.52Z" fill="param(main_colour)"/>
    <path d="M 303.82,266.56q0-.26,0-.51 l 4.33-.43q0,.26,0,.51 l -2.07.2 c 1.36,3.36,2.1,6.71,3.21,10,1.07-3.58,2.71-7.15,3.53-10.7 l -2,.2q0-.25,0-.51 l 6.25-.61q0,.25.06.51 l -1.63.16 c -1.1,5-3.92,10-4.57,15.06 l -.57.07 c -2.31-4.68-2.89-9.4-4.79-14.15Z" fill="param(main_colour)"/>
    <path d="M 292.68,277.47 l .54-.06 a 7.06,7.06,0,0,0,1.24,3.09,2.83,2.83,0,0,0,2.66.75 l 2.54-.3 a 56.81,56.81,0,0,1-.44-6.88 l -.52.06 a 2.15,2.15,0,0,0-1.9,1.11,4.42,4.42,0,0,0-.35,2.11 l -.53.06 c -.13-2.07-.21-4.14-.3-6.21 l .55-.06 a 3.62,3.62,0,0,0,.56,1.88 c .33.51,1,.7,2,.6 l .52-.06 c 0-2.17,0-4.34-.18-6.51 l -2.32.23 a 4.13,4.13,0,0,0-2.48.93,4.91,4.91,0,0,0-1.09,2.94 l -.55.06q-.08-2-.17-4 l 11.14-1.1q0,.26,0,.51 l -2,.2 c .29,4.63-.2,9.26.47,13.87 l 1.87-.22q0,.26.08.51 l -10.81,1.29 C 293,280.65,292.85,279.06,292.68,277.47Z" fill="param(main_colour)"/>
  </g>
  <g id="fixed-colours">
    <path d="M 330.32,276.71 s -16.25-2.23-24.72,5.17 C 311.55,274.76,322.38,273,330.32,276.71Z" opacity="0.2"/>
    <path d="M 312.66,271.88 a 13,13,0,0,0,12.68-2.33 C 322.29,270.93,316,272.33,312.66,271.88Z" opacity="0.2"/>
    <path d="M 289.64,295.38 A 30,30,0,0,1,278,290.07 a 29.52,29.52,0,0,1-9-13.13 C 269.41,287.59,279.25,296,289.64,295.38Z" opacity="0.4"/>
  </g>
<script type="text/ecmascript" xlink:href="param.min.js"/> 
</svg>
