<?xml version="1.0"?>
<svg xmlns="http://www.w3.org/2000/svg" xmlns:xlink="http://www.w3.org/1999/xlink" viewBox="0 0 600 600">
  <title>girl-power-slogan-voluptuous</title>
  <g id="main-colour">
    <path d="M 320.29,275.67 l -1.49,0q-.14,2.2-.32,4.41 c -.14,1.71.49,2.33,1.56,2.34 s 1.79-.6,1.89-2.29 c .27-4.28.51-8.57.64-12.85.05-1.7-.6-2.36-1.65-2.4 s -1.72.59-1.74,2.29q0,1.28-.07,2.56 l -3.11-.09q0-1.17.05-2.33 c 0-3.84,1.58-6,5-5.83 s 5,2.36,4.8,6.14q-.27,6.15-.54,12.31 c -.16,3.78-2,5.94-5.39,5.93 s -4.89-2.22-4.54-6.07 c .22-2.54.42-5.08.55-7.62 l 4.6.12Q320.4,274,320.29,275.67Z" fill="param(main_colour)"/>
    <path d="M 312.63,285.52 l -3.39,0 c .79-8.07,1.74-16.14,1.05-24.17 l 3.42.13 C 314.28,269.44,313.38,277.48,312.63,285.52Z" fill="param(main_colour)"/>
    <path d="M 296.33,285.4 a 8.6,8.6,0,0,0,.61-3q.15-1.9.3-3.79 c .19-2.56.86-4.42,2.64-5.18-1.5-.83-2.14-2.5-2.1-5q0-1,0-1.93 c 0-3.79,1.28-5.58,4.85-5.44 l 5.18.19 c .75,8-.22,16.15-1,24.24 l -3.37,0 c .32-3.31.66-6.62.91-9.93 l -1.18,0 c -1.55,0-2.29.79-2.48,3.07-.11,1.28-.22,2.56-.34,3.85 a 9,9,0,0,1-.58,3Z m 6.62-20.88 c -1.22,0-1.72.71-1.7,2.45q0,1.2,0,2.41 c 0,2,.69,2.6,2,2.63 l 1.34,0 c .12-2.49.16-5,.06-7.47Z" fill="param(main_colour)"/>
    <path d="M 294.5,285.39 l -8.85-.07q0-1.78.08-3.55 l 5.62.07 a 208.61,208.61,0,0,0,.46-21.17 l 3.44.13 C 295.81,269,295.08,277.17,294.5,285.39Z" fill="param(main_colour)"/>
    <path d="M 321.76,290.12 H 325 c -.23,4.94-.46,9.88-.64,14.82 l -2.09,0q0-2.79.12-5.58 h -1 c -2.18,0-3.23-1.26-3.13-3.65q0-1,.09-1.94 C 318.43,291.42,319.59,290.12,321.76,290.12Z m -.12,2.12 c -.7,0-1.09.34-1.15,1.41q-.06,1.12-.1,2.23 c 0,1.06.33,1.4,1,1.39 h 1q.1-2.51.23-5Z" fill="param(main_colour)"/>
    <path d="M 317.17,301.49 c 0,2.39-1,3.78-3.09,3.82 s -3.32-1.32-3.38-3.73 c -.07-2.61,0-5.23.15-7.84.14-2.41,1.41-3.79,3.5-3.79 s 3.16,1.37,3,3.76 C 317.24,296.3,317.16,298.89,317.17,301.49Z m -1.95-7.91 c .06-1.07-.34-1.48-1-1.47 s -1.14.41-1.2,1.48 c -.15,2.71-.23,5.41-.17,8.12,0,1.07.47,1.48,1.14,1.46 s 1.08-.43,1.06-1.5 C 315,299,315.07,296.27,315.22,293.57Z" fill="param(main_colour)"/>
    <path d="M 304.12,305.32 l -2.78,0 A 95.47,95.47,0,0,1,300,290.11 h 1.82 a 103,103,0,0,0,.74,12.1 A 102.38,102.38,0,0,1,304,290.11 h 2 a 100,100,0,0,0,.66,11.95,101.75,101.75,0,0,1,1.5-11.95 h 2.06 a 91.83,91.83,0,0,0-1.68,15.12 l -2.88.05 a 72.8,72.8,0,0,1-1-8.08 A 72.39,72.39,0,0,0,304.12,305.32Z" fill="param(main_colour)"/>
    <path d="M 296.76,292.29 h -3.54q.05-1.1.12-2.2 H 299 a 101.34,101.34,0,0,0-.15,15.31 l -5.68.09q-.05-1.1-.08-2.2 l 3.56,0 c -.06-1.5-.08-3-.07-4.49 l -2.8,0q0-1.1,0-2.2 l 2.8,0 C 296.61,295.14,296.68,293.72,296.76,292.29Z" fill="param(main_colour)"/>
    <path d="M 285.42,305.63 a 5.43,5.43,0,0,0,.26-1.89q0-1.2,0-2.4 c 0-1.62.37-2.8,1.38-3.32-.88-.5-1.27-1.55-1.24-3.15 l 0-1.22 c 0-2.4,1-3.57,3.09-3.57 h 3.08 c -.27,5.14-.41,10.29-.21,15.44 l -2.07,0q-.07-3.15,0-6.3 h -.69 c -.91,0-1.32.54-1.33,2q0,1.22,0,2.44 a 5.7,5.7,0,0,1-.19,1.91Z M 289,292.29 c -.72,0-1,.49-1.07,1.59q0,.76,0,1.53 c 0,1.24.42,1.64,1.16,1.63 h .78q.05-2.38.14-4.75Z" fill="param(main_colour)"/>
  </g>
<script type="text/ecmascript" xlink:href="param.min.js"/> 
</svg>
