<?xml version="1.0"?>
<svg xmlns="http://www.w3.org/2000/svg" xmlns:xlink="http://www.w3.org/1999/xlink" viewBox="0 0 215 215">
  <title>city-classic-top-slender</title>
  <g id="skin-tone">
    <path d="M 103.78,165.51 a 52.18,52.18,0,0,0,1.12,6.83 H 105 a 3.32,3.32,0,0,0,6.56-.46 h 0 a 64.74,64.74,0,0,0-.09-6.91 A 10.23,10.23,0,0,0,103.78,165.51Z" fill="param(skin_tone)"/>
  </g>
  <g id="main-colour">
    <path d="M 102.39,155 a 15,15,0,0,1,8.41.06,49.54,49.54,0,0,1,.89-9.64 c 1.39-6.5,2.69-21.16,2.23-28.17 a 30.49,30.49,0,0,0-2.45-11.07,4.18,4.18,0,0,0-.57-1.12 l 0,0 h 0 a 4.16,4.16,0,0,0-6-.82 h 0 s -1.55.67-3,4.92-2.16,13.75-2,18.5.46,15.79,2,24.38 C 102.07,153,102.24,154,102.39,155Z" fill="param(main_colour)"/>
  </g>
  <g id="accent-colour-2">
    <path d="M 99,156.76 s 5.67-5,14.75-.33 a 44.15,44.15,0,0,0,1.5,9.92 s -2,1.58-3.08,1.58 a 17.2,17.2,0,0,0-.73-2.94 s -4.69-1-7.94.69 a 9.44,9.44,0,0,1,.25,2.42,14.81,14.81,0,0,1-3.42-.67 A 47,47,0,0,0,99,156.76Z" fill="param(accent_colour_2)"/>
  </g>
  <g id="outline">
    <path d="M 112.87,168.22 a 14.09,14.09,0,0,0,3-1.63 c -1-3.83-1.78-8.44-1.54-10.54-.84-.45-1.66-.88-2.48-1.25 a 119.55,119.55,0,0,1,1.58-13.86 c 1.39-8.86,3.9-27.12-2.54-35.9.2.32,2.19,3.86,2.26,16.28.08,13.08-2.34,21.42-3.18,30.83-.06.63-.09,1.27-.11,1.9 a 11.32,11.32,0,0,0-6.82,0 c -.18-1.32-.38-2.67-.6-4.06-1.37-8.82-2.21-26.79-.87-36 s 3.31-9.88,3.31-9.88 c -5.44,1.78-6.06,16-6,27.55 a 163.82,163.82,0,0,0,2.17,23.09,24.44,24.44,0,0,0-2.87,1.51 c 1.38,3.63,1.54,11.38,1.54,11.38 a 10.44,10.44,0,0,0,3,.88 c .13,2.05.13,3.24.13,3.24 a 5.31,5.31,0,0,0,5.33,5.16 h .18 a 5.32,5.32,0,0,0,4.75-7.35 C 113.06,169.22,113,168.73,112.87,168.22Z m -11.89-1 a 91.46,91.46,0,0,0-1.17-10.29 s 5.13-4.12,13.38-.25 c -.25,3.75,1.58,9.63,1.58,9.63 a 10.62,10.62,0,0,1-2.08.95 c -.09-.54-.18-1.1-.27-1.69.36.07.73.15,1.1.25-3.42-2.62-10.08-1.54-11.67.75,0,0,.27-.11.73-.27,0,.42.07.81.1,1.19 C 102.22,167.37,101.62,167.29,101,167.17Z m 7.35,7.81 h -.11 a 3.33,3.33,0,0,1-3.33-3.22 c 0-1.2-.19-3.31-.45-6.05 a 20.11,20.11,0,0,1,6-.46 c .49,3.74,1.1,6.29,1.1,6.29 A 3.33,3.33,0,0,1,108.32,175Z"/>
  </g>
<script type="text/ecmascript" xlink:href="param.min.js"/> 
</svg>
