<?xml version="1.0"?>
<svg xmlns="http://www.w3.org/2000/svg" xmlns:xlink="http://www.w3.org/1999/xlink" viewBox="0 0 600 600">
  <title>girl-power-slogan-voluptuous</title>
  <g id="main-colour">
    <path d="M 292.43,271.47 l 4.91.15 c -.12,2.6-.32,5.2-.53,7.8-.34,3.93-2.24,6.15-5.51,6.1 s -4.89-2.36-4.77-6.34 c .15-4.31.3-8.62.4-12.92.12-4,1.88-6.16,5.23-6 s 5.32,2.47,5.32,6.39q0,1.19,0,2.38 l -3.32-.11q0-1.32,0-2.64 c 0-1.76-.71-2.45-1.82-2.5 s -1.81.6-1.84,2.36 c -.06,4.45-.28,8.91-.52,13.37-.09,1.77.55,2.42,1.63,2.44 s 1.81-.6,1.93-2.36q.16-2.27.3-4.55 l -1.59,0Q292.35,273.24,292.43,271.47Z" fill="param(main_colour)"/>
    <path d="M 299.53,260.87,303,261 c .65,8.1-.33,16.24-1.14,24.39 l -3.36-.06 C 299.22,277.18,300.13,269,299.53,260.87Z" fill="param(main_colour)"/>
    <path d="M 311.33,285.57 a 8.06,8.06,0,0,1,0-3q.2-1.9.39-3.79 c .22-2.24-.39-3.09-1.91-3.13 l -1.16,0 c -.28,3.29-.65,6.58-1,9.87 l -3.37-.05 c .84-8.12,1.85-16.25,1.2-24.32 l 5.18.24 c 3.55.17,5.2,2,5.13,5.74q0,.94-.05,1.89 c -.09,2.47-.91,4.06-2.44,4.8,1.61.85,2,2.68,1.78,5.19q-.17,1.85-.36,3.71 a 7.63,7.63,0,0,0,.08,2.93Z m -2.26-20.83 c .05,2.47,0,5-.17,7.43 l 1.32,0 c 1.25,0,2.06-.56,2.14-2.48q0-1.19.07-2.38 c 0-1.72-.52-2.5-1.72-2.55Z" fill="param(main_colour)"/>
    <path d="M 318,261.71 l 3.39.16 c 0,6.79-.49,13.61-1,20.43 l 5.54.11q-.09,1.69-.18,3.38 l -9-.13 C 317.37,277.66,318.21,269.66,318,261.71Z" fill="param(main_colour)"/>
    <path d="M 291.85,293.79q0,1-.08,2 c -.08,2.47-1.08,3.81-3.09,3.81 h -.94q-.06,2.92-.08,5.83 H 285.6 c .14-5.19.26-10.37.41-15.56 l 3,0 C 291,290,292,291.33,291.85,293.79Z m -3.9-1.65q-.1,2.63-.17,5.25 h .94 c .64,0,1-.35,1-1.46q0-1.16.08-2.32 c 0-1.1-.29-1.46-.93-1.47Z" fill="param(main_colour)"/>
    <path d="M 292.72,293.69 c .12-2.47,1.31-3.87,3.34-3.84 s 3,1.44,2.87,3.89 c -.15,2.65-.23,5.3-.18,8,.05,2.45-.94,3.86-3,3.87 s -3.22-1.39-3.23-3.86 C 292.52,299,292.6,296.36,292.72,293.69Z m 1.85,8.17 c 0,1.1.44,1.52,1.09,1.51 s 1.05-.42,1-1.52 c 0-2.76,0-5.52.19-8.29.06-1.1-.32-1.52-1-1.52 s -1.09.41-1.15,1.51 C 294.62,296.32,294.54,299.09,294.57,301.86Z" fill="param(main_colour)"/>
    <path d="M 304.73,297.23 a 74.81,74.81,0,0,0-.59,8.1 l -2.87,0 a 98.79,98.79,0,0,1-1.2-15.28 l 2,0 a 106,106,0,0,0,.68,12,105.5,105.5,0,0,1,1.45-12 l 2,0 a 102,102,0,0,0,.6,12,103.77,103.77,0,0,1,1.55-12 l 1.85,0 a 93.69,93.69,0,0,0-1.79,15.11 l -2.78,0 A 74.6,74.6,0,0,1,304.73,297.23Z" fill="param(main_colour)"/>
    <path d="M 313,296.55 h 3q0,1.07-.07,2.14 H 313 c 0,1.47,0,2.94,0,4.4 l 3.67,0q0,1.07.06,2.14 l -5.72.06 a 96.48,96.48,0,0,1,.32-15.08 l 5.84.05q-.08,1.07-.16,2.14 l -3.72,0 C 313.16,293.76,313.08,295.15,313,296.55Z" fill="param(main_colour)"/>
    <path d="M 322.38,305.15 a 4.91,4.91,0,0,1-.16-1.83q0-1.17.06-2.34 c 0-1.38-.37-1.89-1.36-1.89 h -.75 c -.07,2-.1,4-.07,6.07 l -2.1,0 a 143.44,143.44,0,0,1,.47-14.95 l 3.27,0 c 2.25,0,3.17,1.15,3.05,3.43 l -.06,1.16 a 3.2,3.2,0,0,1-1.6,3 c 1.08.49,1.38,1.61,1.31,3.15q-.05,1.14-.1,2.29 a 4.75,4.75,0,0,0,.16,1.8Z M 320.5,292.4q-.14,2.29-.25,4.58 h .86 c .82,0,1.33-.38,1.4-1.57q0-.73.08-1.47 c .06-1.06-.25-1.53-1-1.53Z" fill="param(main_colour)"/>
  </g>
<script type="text/ecmascript" xlink:href="param.min.js"/> 
</svg>
