<?xml version="1.0"?>
<svg xmlns="http://www.w3.org/2000/svg" xmlns:xlink="http://www.w3.org/1999/xlink" viewBox="0 0 600 600">
  <title>girl-power-slogan-curvy</title>
  <g id="main-colour">
    <path d="M 331.74,272.68 l -1.3.11q-.51,1.89-1,3.77 c -.41,1.46,0,1.93.84,1.85 s 1.58-.66,2-2.11 c 1.16-3.66,2.26-7.32,3.1-11,.33-1.45-.19-2-1.19-1.91 s -1.71.64-2,2.1q-.22,1.1-.47,2.19 l -2.84.19q.2-1,.38-2 c .57-3.3,2.33-5.25,5.49-5.4 s 4.51,1.62,3.65,4.84 c -.91,3.49-2.06,7-3.28,10.5-1.12,3.23-3.12,5.22-5.7,5.5 s -3.41-1.44-2.58-4.74 c .56-2.18,1.1-4.35,1.58-6.53 l 4.12-.3Q332.15,271.22,331.74,272.68Z" fill="param(main_colour)"/>
    <path d="M 323.86,281.72 l -2.61.29 c 1.48-6.92,3.07-13.87,3.46-20.8 l 3.18-.16 C 327.31,267.93,325.54,274.84,323.86,281.72Z" fill="param(main_colour)"/>
    <path d="M 311.33,283.16 a 8.87,8.87,0,0,0,.55-2.61q.17-1.64.34-3.28 c .23-2.22.82-3.87,2.31-4.69-1.21-.59-1.69-2-1.59-4.16q0-.84.06-1.67 c .06-3.29,1.33-5,4.63-5.16 l 4.78-.25 c -.25,7-1.71,13.94-3,20.89 l -2.59.3 c .46-2.84.94-5.69,1.36-8.55 l -1,.09 c -1.28.11-1.93.89-2.18,2.85q-.21,1.66-.44,3.32 a 9.35,9.35,0,0,1-.58,2.62Z m 6.33-18.56 c -1.09.07-1.58.76-1.66,2.28q-.06,1-.14,2.09 c -.14,1.69.46,2.19,1.54,2.1 l 1.13-.09 c .27-2.15.49-4.31.61-6.46Z" fill="param(main_colour)"/>
    <path d="M 309.93,283.32 l -6.72.81q0-1.54,0-3.08 l 4.31-.48 a 122.18,122.18,0,0,0,.16-18.43 l 3.14-.18 C 311.31,269.1,310.55,276.24,309.93,283.32Z" fill="param(main_colour)"/>
    <path d="M 329.92,284.8 l 2.35-.28 a 125.18,125.18,0,0,0-3.58,12.58 l -1.37.24 c .31-1.58.68-3.16,1.08-4.74 l -.69.1 c -1.44.22-1.92-.78-1.42-2.81q.21-.83.42-1.65 C 327.23,286.2,328.33,285,329.92,284.8Z m -.55,1.81 c -.5.06-.85.39-1.1,1.29q-.27,1-.52,1.9 c -.24.91-.05,1.16.42,1.09 l .7-.1 c .39-1.43.81-2.85,1.24-4.28Z" fill="param(main_colour)"/>
    <path d="M 324.58,294.85 c -.39,2-1.27,3.32-2.59,3.56 s -1.93-.81-1.66-2.86 c .3-2.23.69-4.45,1.13-6.69.41-2.06,1.51-3.35,3.06-3.54 s 2.08.87,1.55,2.91 C 325.51,290.44,325,292.65,324.58,294.85Z m 0-6.54 c .22-.91,0-1.22-.5-1.16 s -.88.45-1.08,1.37 c -.5,2.31-.94,4.62-1.3,6.92-.14.91.09,1.21.53,1.14 s .76-.47.92-1.38 C 323.55,292.91,324,290.61,324.58,288.31Z" fill="param(main_colour)"/>
    <path d="M 315.68,299.4 l -1.75.32 a 128.14,128.14,0,0,1,0-12.9 l 1.35-.18 c -.21,3.43-.36,6.85-.32,10.24.43-3.48,1.11-7,1.9-10.45 l 1.5-.19 c -.34,3.39-.62,6.76-.72,10.11.58-3.44,1.39-6.88,2.31-10.32 l 1.52-.19 a 101.26,101.26,0,0,0-3,13 l -1.82.33 c 0-2.26,0-4.54.11-6.82 C 316.3,294.74,315.93,297.07,315.68,299.4Z" fill="param(main_colour)"/>
    <path d="M 311.45,289 l -2.58.36q.05-.95.11-1.89 l 4.18-.55 a 108.45,108.45,0,0,0-.8,13.1 l -3.54.66q-.05-.94-.09-1.88 l 2.3-.41 c 0-1.28,0-2.56.07-3.84 l -1.92.31q0-.94,0-1.88 l 2-.3Q311.29,290.84,311.45,289Z" fill="param(main_colour)"/>
    <path d="M 304,301.59 a 7,7,0,0,0,0-1.64q-.1-1-.18-2.05 c -.11-1.39.07-2.44.74-3-.64-.34-1-1.19-1-2.56q0-.53,0-1.05 c 0-2.07.65-3.18,2.21-3.39 l 2.29-.31 a 106.85,106.85,0,0,0,0,13.23 l -1.28.24 c -.16-1.79-.25-3.59-.29-5.39 l -.48.08 c -.62.1-.89.61-.81,1.84q.06,1,.15,2.08 a 7.24,7.24,0,0,1,0,1.65Z m 1.7-11.78 c -.53.07-.76.53-.76,1.48q0,.66,0,1.32 c 0,1.07.34,1.36.87,1.27 l .55-.09 c 0-1.36,0-2.72,0-4.08Z" fill="param(main_colour)"/>
  </g>
  <g id="fixed-colours">
    <path d="M 304.23,283.15 c -8.46,4.78-13.95,5.54-21.42,5 C 289.71,291.7,299.52,289.12,304.23,283.15Z" opacity="0.4"/>
    <path d="M 331.9,273.4 s -15.54-1.08-23.09,6.48 C 314,272.76,324.13,270.38,331.9,273.4Z" opacity="0.2"/>
    <path d="M 314.85,269.95 a 12.31,12.31,0,0,0,11.87-3 C 323.91,268.44,318.09,270.17,314.85,269.95Z" opacity="0.2"/>
  </g>
<script type="text/ecmascript" xlink:href="param.min.js"/> 
</svg>
