<?xml version="1.0"?>
<svg xmlns="http://www.w3.org/2000/svg" xmlns:xlink="http://www.w3.org/1999/xlink" viewBox="0 0 250 250">
  <title>voluptuous-bottoms-template</title>
  <g id="main-colour">
    <path d="M 86.56,125 a 79.24,79.24,0,0,0,5.15,28 c 8,21,17.46,36.7,26.76,51.23,5.17,5.67,6.33,9.67,8.58,13.67 h 0 a 12.48,12.48,0,0,0,15,4.14 c 8.58-2.42,9.06-9.64,11.89-18.47 s 5.74-29.4,7.57-45.9 a 290.86,290.86,0,0,0,1.9-32.67Z" fill="param(main_colour)"/>
  </g>
  <g id="outline">
    <path d="M 164.77,131.38 a 36.46,36.46,0,0,0-1.33-6.38 c 0,16.18-5.4,52.38-6.95,61.83-2.11,12.92-5.44,25.66-8.69,30.63 A 14,14,0,0,1,142,222 c 5.76-.8,8.78-4.81,12.44-15.47,5.21-17.58,7.28-38.9,8.95-54.07 C 164.43,143.52,165.21,136.15,164.77,131.38Z"/>
    <path d="M 86.56,125.47v-.19 c 0-.17,0-.26,0-.27 h 0 c -2.06,1.41-1.7,5.37-1.7,5.37 h 0 c 1.86,17.71,11.49,39.15,17.05,49.76,6.7,12.78,18.57,26.77,25.15,37.78-3.58-13-18.92-29.28-28.15-50.38 C 88.42,143.57,86.61,128.31,86.56,125.47Z"/>
  </g>
<script type="text/ecmascript" xlink:href="param.min.js"/> 
</svg>
