<?xml version="1.0"?>
<svg xmlns="http://www.w3.org/2000/svg" xmlns:xlink="http://www.w3.org/1999/xlink" viewBox="0 0 600 600">
  <title>honey-slogan-voluptuous</title>
  <g id="main-colour">
    <path d="M 342.57,281.89 c 0-.71,0-1.43,0-2.14 l 1-.07 c 0-1.43.11-2.86.18-4.29 l -3.92.26 c -.11,1.44-.21,2.87-.26,4.3 l 1-.07 c 0,.72,0,1.43,0,2.15 l -3.94.28 c 0-.72,0-1.44,0-2.16 l 1-.07 c .1-3.59.7-7.19.62-10.79 l -1,.06 a 21.64,21.64,0,0,0-.16-2.16 L 341,267 c .06.72.1,1.43.11,2.15 l -1,.06 c 0,1.44,0,2.87-.14,4.31 l 3.86-.25 c .06-1.43.12-2.86.11-4.29 l -1,.06 c 0-.72,0-1.43-.07-2.15 l 3.93-.22q0,1.07,0,2.14 l -1,.06 c 0,3.57-.23,7.14-.31,10.7 l 1-.07q0,1.07,0,2.14Z" fill="param(main_colour)"/>
    <path d="M 328.46,282.92q-.87-.81-1.67-1.63 c -.09-3.92,1-7.85.78-11.78.49-.61,1-1.23,1.38-1.84 l 4.66-.27 c .6.55,1.17,1.09,1.71,1.64.18,3.9-.66,7.8-.69,11.69-.53.61-1,1.23-1.52,1.84Z m 5-13.32-3.88.24 c .1,3.63-.78,7.26-.79,10.89 l 3.93-.28 C 332.74,276.83,333.52,273.21,333.41,269.6Z" fill="param(main_colour)"/>
    <path d="M 323.07,283.33 c -.52-3.5.23-7,.52-10.51-1.91,3.61-4.32,7.23-5.29,10.87 l -1.9.15 c -.94-5.13.91-10.28.25-15.43 l 2-.12 c .48,3.52-.27,7-.5,10.56,1.86-3.64,4.31-7.26,5.39-10.85 l 1.95-.12 c .79,5.1-1.16,10.21-.46,15.3Z" fill="param(main_colour)"/>
    <path d="M 306.91,284.57 a 22,22,0,0,1-.28-2.22 l 5.69-.43 a 32.09,32.09,0,0,1,.08-4.42 l -3.88.27 c 0-.74.09-1.48.14-2.22 l 3.93-.26 c .13-1.47.24-3,.23-4.43 l -6,.37 c 0-.74,0-1.48-.1-2.23 l 7.93-.48 c .62,5.15-1.15,10.31-.19,15.45Z" fill="param(main_colour)"/>
    <path d="M 301.83,277.13 a 51,51,0,0,0,.35,7.81 l -1.91.15 a 68.65,68.65,0,0,1-.37-7.83 c -1.29-2.52-2.71-5-4.2-7.59 l 2-.12 c 1.12,1.9,2.18,3.8,3.15,5.69,1-2,2-4,2.9-6.06 l 2-.12 C 304.64,271.74,303.14,274.43,301.83,277.13Z" fill="param(main_colour)"/>
  </g>
  <g id="fixed-colours">
    <path d="M 334.57,274.55 s -18.28-1.27-27.17,7.62 C 313.49,273.78,325.43,271,334.57,274.55Z" opacity="0.2"/>
    <path d="M 314.51,270.48 s 7.87,2.54,14-3.55 C 325.17,268.71,318.32,270.74,314.51,270.48Z" opacity="0.2"/>
    <path d="M 295.07,297.54 c -12.33-.33-23.33-7.33-30-19.9 C 268.07,292.71,281.6,300.9,295.07,297.54Z" opacity="0.4"/>
  </g>
<script type="text/ecmascript" xlink:href="param.min.js"/> 
</svg>
