<?xml version="1.0"?>
<svg xmlns="http://www.w3.org/2000/svg" xmlns:xlink="http://www.w3.org/1999/xlink" viewBox="0 0 600 600">
  <title>sassy-slogan-slender</title>
  <g id="main-colour">
    <path d="M 331.26,260.51 a 2.08,2.08,0,0,1,.39-1.48,1.86,1.86,0,0,1,1.36-.66,2.91,2.91,0,0,1,.88.06,1.73,1.73,0,0,1,.66.33,1.76,1.76,0,0,1,.43.54,2,2,0,0,1,.19.8,18.52,18.52,0,0,1,.05,2.25,15.82,15.82,0,0,1-.25,1.87,11.68,11.68,0,0,1-.39,1.58 c -.16.49-.48,1.46-.48,1.46-.16.47-.29.94-.45,1.46 a 16.6,16.6,0,0,0-.48,2.3,14.55,14.55,0,0,0-.12,2.91,1,1,0,0,0,.25.68.87.87,0,0,0,.76.19,1.09,1.09,0,0,0,.75-.37,1.24,1.24,0,0,0,.19-.74q-.08-1.72-.14-3.44 l 1-.12q.07,1.72.15,3.43 a 2,2,0,0,1-.48,1.46,2.13,2.13,0,0,1-1.42.69,2.76,2.76,0,0,1-.89,0,2.53,2.53,0,0,1-.66-.31,1.83,1.83,0,0,1-.43-.55,1.87,1.87,0,0,1-.18-.78,16.77,16.77,0,0,1,0-2.25,14.55,14.55,0,0,1,.3-1.88,11.9,11.9,0,0,1,.43-1.61 c .11-.32.21-.61.3-.94 a 19.89,19.89,0,0,0,.65-2,15.4,15.4,0,0,0,.44-2.3,14.31,14.31,0,0,0,.06-2.89,1,1,0,0,0-.26-.69.88.88,0,0,0-.75-.23,1,1,0,0,0-.71.38,1.17,1.17,0,0,0-.17.74 c .09,1.15.15,2.29.19,3.44 l -1,.11 C 331.42,262.81,331.36,261.66,331.26,260.51Z" fill="param(main_colour)"/>
    <path d="M 324.05,276.78 c -.17-5.88,1.24-11.77.73-17.65 l 1-.1 c 1.36,5.78,1,11.54,2,17.27 l -1,.13 c -.17-1-.3-2-.41-2.95 l -1.31.16 c 0,1-.07,2,0,3Z m 1.68-11.39 c -.17,2.39-.44,4.77-.6,7.15 l 1.13-.14 C 326,270.07,325.93,267.73,325.73,265.39Z" fill="param(main_colour)"/>
    <path d="M 315.47,262.23 a 2.19,2.19,0,0,1,.38-1.52,1.81,1.81,0,0,1,1.34-.68,2.89,2.89,0,0,1,.89.06,1.85,1.85,0,0,1,.68.33,2,2,0,0,1,.47.55,2.1,2.1,0,0,1,.22.82,11,11,0,0,1-.24,4.2,11.67,11.67,0,0,1-.47,1.61 l -.56,1.49 c -.18.48-.33,1-.52,1.49 a 14.67,14.67,0,0,0-.53,2.36,12,12,0,0,0-.06,3,1.09,1.09,0,0,0,.29.7.85.85,0,0,0,.75.19,1,1,0,0,0,.7-.38,1.34,1.34,0,0,0,.15-.75 c -.1-1.17-.13-2.34-.14-3.51 l 1-.13 c 0,1.17,0,2.34.13,3.51 a 2.16,2.16,0,0,1-.38,1.49,1.83,1.83,0,0,1-1.32.71,2.62,2.62,0,0,1-.86,0,2.68,2.68,0,0,1-.67-.31,2.07,2.07,0,0,1-.47-.56,2,2,0,0,1-.22-.8,13.6,13.6,0,0,1-.09-2.3,12.63,12.63,0,0,1,.3-1.92,10.89,10.89,0,0,1,.46-1.64 c .12-.32.22-.62.33-1,.27-.63.52-1.32.74-2 a 15,15,0,0,0,.53-2.35,11.87,11.87,0,0,0,.07-3,1,1,0,0,0-.29-.7.91.91,0,0,0-.76-.23,1,1,0,0,0-.71.39,1.21,1.21,0,0,0-.17.75 c .1,1.17.13,2.34.14,3.51 l -1,.12 C 315.6,264.58,315.56,263.4,315.47,262.23Z" fill="param(main_colour)"/>
    <path d="M 307.12,263.15 a 2.19,2.19,0,0,1,.42-1.53,1.91,1.91,0,0,1,1.38-.69,2.9,2.9,0,0,1,.9.06,1.82,1.82,0,0,1,.68.33,1.91,1.91,0,0,1,.46.56,2.13,2.13,0,0,1,.21.83,11.86,11.86,0,0,1-.25,4.25,12.56,12.56,0,0,1-.45,1.63 l -.53,1.51 c -.17.49-.3,1-.47,1.51 A 14.51,14.51,0,0,0,309,274 a 12.55,12.55,0,0,0,0,3,1.14,1.14,0,0,0,.3.7.85.85,0,0,0,.75.19.91.91,0,0,0,.68-.39,1.36,1.36,0,0,0,.12-.76 c -.13-1.18-.21-2.37-.25-3.55 l 1-.13 c 0,1.18.1,2.37.23,3.55 a 2.17,2.17,0,0,1-.32,1.51,1.73,1.73,0,0,1-1.28.72,2.55,2.55,0,0,1-.86,0,2.71,2.71,0,0,1-.68-.32,2,2,0,0,1-.71-1.38,14.74,14.74,0,0,1-.15-2.32,13.14,13.14,0,0,1,.23-1.94,11,11,0,0,1,.4-1.66 c .11-.33.2-.63.3-1,.25-.63.48-1.33.69-2 a 16.37,16.37,0,0,0,.5-2.38,13.16,13.16,0,0,0,.09-3,1,1,0,0,0-.28-.71.9.9,0,0,0-.77-.23,1,1,0,0,0-.73.4,1.21,1.21,0,0,0-.18.76 c .08,1.18.13,2.37.16,3.55 l -1,.12 C 307.25,265.52,307.2,264.34,307.12,263.15Z" fill="param(main_colour)"/>
    <path d="M 299.57,261.85 c .57,2,1.12,4.09,1.63,6.13.24-2.13.5-4.26.68-6.38 l 1-.11 c -.26,3.05-.69,6.12-1,9.18.17,3,.34,6,.76,9 l -1,.13 c -.38-3-.57-6-.76-9-.71-2.94-1.5-5.89-2.34-8.85Z" fill="param(main_colour)"/>
  </g>
  <g id="fixed-colours">
    <path d="M 292.16,285.22 c 7.84.9,14.21-.68,20.22-7.6 C 309.53,285.36,299.45,288.84,292.16,285.22Z" opacity="0.4"/>
    <path d="M 328.57,271.59 s -10.9-.76-16.2,4.54 C 316,271.13,323.12,269.47,328.57,271.59Z" opacity="0.2"/>
    <path d="M 316.61,269.16 a 8.63,8.63,0,0,0,8.33-2.12 A 20,20,0,0,1,316.61,269.16Z" opacity="0.2"/>
  </g>
<script type="text/ecmascript" xlink:href="param.min.js"/> 
</svg>
