<?xml version="1.0"?>
<svg xmlns="http://www.w3.org/2000/svg" xmlns:xlink="http://www.w3.org/1999/xlink" viewBox="0 0 600 600">
  <title>sassy-slogan-curvy</title>
  <g id="main-colour">
    <path d="M 333.57,262.12 a 2.19,2.19,0,0,1,.41-1.57,2,2,0,0,1,1.44-.7,3,3,0,0,1,.94.07,1.83,1.83,0,0,1,.7.34,2,2,0,0,1,.46.57,2.21,2.21,0,0,1,.2.85,19.86,19.86,0,0,1,.06,2.38,16.74,16.74,0,0,1-.27,2,12.47,12.47,0,0,1-.41,1.67 c -.17.52-.51,1.55-.51,1.55-.17.5-.31,1-.48,1.55 a 17.61,17.61,0,0,0-.51,2.44,15.41,15.41,0,0,0-.13,3.09,1.05,1.05,0,0,0,.27.72.92.92,0,0,0,.8.2,1.16,1.16,0,0,0,.8-.4,1.34,1.34,0,0,0,.2-.78q-.08-1.82-.14-3.64 l 1.09-.13q.08,1.82.16,3.64 a 2.15,2.15,0,0,1-.51,1.55,2.25,2.25,0,0,1-1.51.73,3,3,0,0,1-.94,0,2.73,2.73,0,0,1-.7-.33,2,2,0,0,1-.46-.59,2,2,0,0,1-.19-.83,18.25,18.25,0,0,1,0-2.39,15.79,15.79,0,0,1,.32-2,12.44,12.44,0,0,1,.45-1.7 c .12-.34.22-.64.31-1 a 21.41,21.41,0,0,0,.69-2.1,16.49,16.49,0,0,0,.47-2.44,15.16,15.16,0,0,0,.06-3.06,1,1,0,0,0-.28-.73.93.93,0,0,0-.79-.24,1,1,0,0,0-.76.4,1.25,1.25,0,0,0-.18.78 c .1,1.21.16,2.43.2,3.64 l -1,.12 C 333.73,264.55,333.67,263.34,333.57,262.12Z" fill="param(main_colour)"/>
    <path d="M 325.93,279.35 c -.18-6.23,1.31-12.47.77-18.7 l 1-.11 c 1.44,6.12,1.09,12.23,2.15,18.3 l -1,.13 c -.18-1-.32-2.08-.44-3.12 L 327,276 c -.05,1.06-.07,2.13,0,3.19Z m 1.78-12.07 c -.18,2.53-.47,5.05-.63,7.58 l 1.2-.15 C 328,272.24,327.92,269.77,327.71,267.28Z" fill="param(main_colour)"/>
    <path d="M 316.84,263.94 a 2.31,2.31,0,0,1,.4-1.61,1.93,1.93,0,0,1,1.42-.72,3,3,0,0,1,.94.06,1.93,1.93,0,0,1,.72.35,2.12,2.12,0,0,1,.5.58,2.26,2.26,0,0,1,.24.87,11.62,11.62,0,0,1-.25,4.45,12.54,12.54,0,0,1-.5,1.71 c -.2.53-.59,1.58-.59,1.58-.2.51-.35,1-.55,1.58 a 15.63,15.63,0,0,0-.56,2.5,12.7,12.7,0,0,0-.07,3.15,1.14,1.14,0,0,0,.3.74.91.91,0,0,0,.79.2,1,1,0,0,0,.75-.41,1.41,1.41,0,0,0,.15-.8 c -.1-1.24-.14-2.48-.15-3.72 l 1.09-.13 c 0,1.24,0,2.48.14,3.72 a 2.3,2.3,0,0,1-.4,1.58,2,2,0,0,1-1.4.75,2.79,2.79,0,0,1-.92,0,2.88,2.88,0,0,1-.71-.33,2,2,0,0,1-.73-1.44,14.52,14.52,0,0,1-.09-2.44,13.74,13.74,0,0,1,.32-2,11.82,11.82,0,0,1,.49-1.74 c .13-.34.24-.66.35-1,.28-.66.55-1.39.79-2.14 a 15.76,15.76,0,0,0,.56-2.49,12.53,12.53,0,0,0,.08-3.13,1.08,1.08,0,0,0-.3-.75,1,1,0,0,0-.81-.24,1,1,0,0,0-.76.41,1.28,1.28,0,0,0-.18.8 c .1,1.24.14,2.48.15,3.72 l -1.07.12 C 317,266.42,316.94,265.18,316.84,263.94Z" fill="param(main_colour)"/>
    <path d="M 308,264.91 a 2.31,2.31,0,0,1,.44-1.63,2,2,0,0,1,1.46-.73,3,3,0,0,1,.95.06,1.89,1.89,0,0,1,.72.35,2.07,2.07,0,0,1,.49.59,2.27,2.27,0,0,1,.22.88,16.28,16.28,0,0,1,.06,2.46,15.72,15.72,0,0,1-.32,2,13.41,13.41,0,0,1-.48,1.73 l -.56,1.6 c -.18.52-.32,1-.5,1.6 a 15.5,15.5,0,0,0-.47,2.52,13.29,13.29,0,0,0,0,3.19,1.21,1.21,0,0,0,.32.75.9.9,0,0,0,.79.21,1,1,0,0,0,.72-.41,1.44,1.44,0,0,0,.13-.81 c -.14-1.25-.22-2.51-.26-3.76 l 1.07-.14 c 0,1.25.11,2.51.25,3.76 a 2.31,2.31,0,0,1-.34,1.6,1.84,1.84,0,0,1-1.36.76,2.73,2.73,0,0,1-.91,0,2.93,2.93,0,0,1-.72-.34,2.27,2.27,0,0,1-.5-.6,2.24,2.24,0,0,1-.25-.85,15.51,15.51,0,0,1-.16-2.46,14.23,14.23,0,0,1,.25-2.05,11.76,11.76,0,0,1,.43-1.76 c .12-.35.22-.67.32-1,.26-.67.51-1.41.73-2.17 a 17.44,17.44,0,0,0,.53-2.52,14,14,0,0,0,.09-3.16,1.07,1.07,0,0,0-.3-.75,1,1,0,0,0-.82-.24,1.07,1.07,0,0,0-.78.42,1.3,1.3,0,0,0-.19.81 c .09,1.25.14,2.51.17,3.76 l -1.08.12 C 308.13,267.43,308.08,266.17,308,264.91Z" fill="param(main_colour)"/>
    <path d="M 300,263.54 c .61,2.17,1.19,4.34,1.73,6.5.26-2.26.52-4.51.72-6.76 l 1.07-.12 c -.28,3.24-.73,6.48-1.11,9.73.18,3.18.36,6.36.8,9.54 l -1,.14 c -.41-3.17-.6-6.35-.81-9.53-.76-3.11-1.59-6.24-2.47-9.37Z" fill="param(main_colour)"/>
  </g>
  <g id="fixed-colours">
    <path d="M 304.23,283.15 c -8.46,4.78-13.95,5.54-21.42,5 C 289.71,291.7,299.52,289.12,304.23,283.15Z" opacity="0.4"/>
    <path d="M 331.9,273.4 s -15.54-1.08-23.09,6.48 C 314,272.76,324.13,270.38,331.9,273.4Z" opacity="0.2"/>
    <path d="M 314.85,269.95 a 12.31,12.31,0,0,0,11.87-3 C 323.91,268.44,318.09,270.17,314.85,269.95Z" opacity="0.2"/>
  </g>
<script type="text/ecmascript" xlink:href="param.min.js"/> 
</svg>
