<?xml version="1.0"?>
<svg xmlns="http://www.w3.org/2000/svg" xmlns:xlink="http://www.w3.org/1999/xlink" viewBox="0 0 600 600">
  <title>sassy-slogan-slender</title>
  <g id="main-colour">
    <path d="M 305.26,267.1 l -1,.11 c -.06-1.19-.13-2.39-.21-3.58 a 1.14,1.14,0,0,0-.3-.72,1,1,0,0,0-.8-.24,1,1,0,0,0-.73.39,1.09,1.09,0,0,0-.17.77,17.6,17.6,0,0,0,.44,3,18,18,0,0,0,.68,2.29 c .26.67.52,1.32.81,1.9.11.33.22.61.36.91 a 11.63,11.63,0,0,1,.53,1.57,18.15,18.15,0,0,1,.44,1.87 c .12.66.16,1.45.25,2.33 a 2.36,2.36,0,0,1,0,.85,2.25,2.25,0,0,1-.31.68,2.62,2.62,0,0,1-.56.48,2.53,2.53,0,0,1-.83.24,1.74,1.74,0,0,1-1.44-.36,2,2,0,0,1-.64-1.4 c -.1-1.2-.18-2.41-.27-3.61 l 1-.12 c .08,1.2.17,2.4.28,3.6 a 1.29,1.29,0,0,0,.27.72.88.88,0,0,0,.75.2.86.86,0,0,0,.67-.38,1.22,1.22,0,0,0,.13-.77,20.94,20.94,0,0,0-.45-3,18,18,0,0,0-.66-2.28 c -.2-.5-.36-1-.57-1.41 l -.61-1.41 a 12.48,12.48,0,0,1-.56-1.55,18,18,0,0,1-.48-1.88,22,22,0,0,1-.25-2.34,2.28,2.28,0,0,1,.08-.87,2,2,0,0,1,.36-.65,1.87,1.87,0,0,1,.62-.47,2.91,2.91,0,0,1,.88-.25,1.91,1.91,0,0,1,1.51.4,2,2,0,0,1,.66,1.43 C 305.14,264.72,305.21,265.91,305.26,267.1Z" fill="param(main_colour)"/>
    <path d="M 312.53,278.57 c -.23-1-.41-2-.56-3 l -1.26.15 c 0,1,0,2.05.11,3.08 l -1,.12 c -.46-6,.64-12,.47-18 l 1-.1 c 1.15,5.91.82,11.81,2.15,17.67Z m -1.8-4,1.1-.13 c -.3-2.39-.46-4.78-.67-7.18 C 311,269.72,310.78,272.15,310.73,274.59Z" fill="param(main_colour)"/>
    <path d="M 321.33,265.42 l -1,.1 c 0-1.17,0-2.34-.12-3.51 a 1.12,1.12,0,0,0-.3-.7,1,1,0,0,0-.78-.24.91.91,0,0,0-.7.38,1.09,1.09,0,0,0-.16.75,23.78,23.78,0,0,0,.33,2.92,18.2,18.2,0,0,0,.52,2.24,19.46,19.46,0,0,0,.68,1.86 c .09.32.19.6.3.89 a 11,11,0,0,1,.44,1.53,18.42,18.42,0,0,1,.35,1.83 c .09.65.1,1.42.16,2.28 a 2.3,2.3,0,0,1-.07.83,2.27,2.27,0,0,1-.32.66,2.71,2.71,0,0,1-.57.47,2.58,2.58,0,0,1-.83.24,1.82,1.82,0,0,1-1.46-.36,1.92,1.92,0,0,1-.68-1.37 c -.1-1.18-.15-2.35-.16-3.53 l 1-.12 c 0,1.18.05,2.35.15,3.53 a 1.21,1.21,0,0,0,.28.7.93.93,0,0,0,.77.2.89.89,0,0,0,.69-.37,1.18,1.18,0,0,0,.15-.75,24.3,24.3,0,0,0-.34-2.92,18.52,18.52,0,0,0-.53-2.23 c -.17-.49-.3-.94-.47-1.38 l -.51-1.38 a 11.16,11.16,0,0,1-.44-1.52 c -.14-.56-.26-1.19-.35-1.85 s -.1-1.46-.16-2.3 a 2.41,2.41,0,0,1,.07-.85,2,2,0,0,1,.33-.63,1.73,1.73,0,0,1,.58-.46,2.74,2.74,0,0,1,.85-.24,1.92,1.92,0,0,1,1.48.39,2,2,0,0,1,.67,1.4 C 321.3,263.08,321.33,264.25,321.33,265.42Z" fill="param(main_colour)"/>
    <path d="M 329.52,264.57 l -1,.1 c 0-1.15-.06-2.31-.15-3.46 a 1.12,1.12,0,0,0-.3-.7,1,1,0,0,0-.77-.23.89.89,0,0,0-.69.38,1.07,1.07,0,0,0-.15.74,23.67,23.67,0,0,0,.35,2.88,17.89,17.89,0,0,0,.54,2.22,18.69,18.69,0,0,0,.69,1.84 c .1.32.19.59.31.88 a 10.48,10.48,0,0,1,.45,1.52,16.47,16.47,0,0,1,.35,1.81 c .09.64.09,1.4.13,2.25 a 2.16,2.16,0,0,1-.1.82,2.29,2.29,0,0,1-.36.65,2.91,2.91,0,0,1-.6.47,2.81,2.81,0,0,1-.85.23,1.73,1.73,0,0,1-2.1-1.71 c -.07-1.16-.09-2.33-.09-3.49 l 1-.11 c 0,1.16,0,2.33.08,3.49 a 1.15,1.15,0,0,0,.26.69.93.93,0,0,0,.77.2,1,1,0,0,0,.71-.37,1.16,1.16,0,0,0,.18-.74,19.49,19.49,0,0,0-.29-2.89,16.78,16.78,0,0,0-.53-2.21 c -.17-.48-.31-.92-.48-1.36 l -.51-1.36 a 11.38,11.38,0,0,1-.44-1.5 c -.14-.55-.26-1.18-.36-1.82 s -.11-1.44-.18-2.27 a 2.4,2.4,0,0,1,.06-.84,2,2,0,0,1,.32-.63,1.7,1.7,0,0,1,.58-.45,2.7,2.7,0,0,1,.84-.23,1.91,1.91,0,0,1,1.47.39,2,2,0,0,1,.66,1.39 C 329.46,262.27,329.5,263.42,329.52,264.57Z" fill="param(main_colour)"/>
    <path d="M 337.32,258.32 c -.43,2.92-.83,5.85-1.28,8.79q.12,4.31.3,8.6 l -1,.11 c -.13-2.87-.2-5.75-.27-8.64-.61-2.82-1.16-5.65-2-8.48 l 1-.09 c .55,2,1,3.93,1.4,5.89.31-2,.58-4.07.85-6.1Z" fill="param(main_colour)"/>
  </g>
  <g id="fixed-colours">
    <path d="M 292.14,285.38 c 6.87,2.13,15.94,1.39,21.83-3.67 C 309.22,289.38,297.38,289.89,292.14,285.38Z" opacity="0.4"/>
    <path d="M 328.57,271.59 s -10.9-.76-16.2,4.54 C 316,271.13,323.12,269.47,328.57,271.59Z" opacity="0.2"/>
    <path d="M 316.61,269.16 a 8.63,8.63,0,0,0,8.33-2.12 A 20,20,0,0,1,316.61,269.16Z" opacity="0.2"/>
  </g>
<script type="text/ecmascript" xlink:href="param.min.js"/> 
</svg>
