<?xml version="1.0"?>
<svg xmlns="http://www.w3.org/2000/svg" xmlns:xlink="http://www.w3.org/1999/xlink" viewBox="0 0 250 250">
  <title>curvy-bottoms-template</title>
  <g id="skin-tone">
    <path d="M 112.76,220.44 c .88,2.62,1.55,4.94,2,6.57.92,3.42,2.32,3.95,2.32,3.95 h 0 a 4.74,4.74,0,0,0,7.83-1.41 h 0 c 1.73-1.37,1.59-5.43,1-10.87 C 121.28,222,116.15,221.44,112.76,220.44Z" fill="param(skin_tone)"/>
  </g>
  <g id="main-colour">
    <path d="M 125.95,222.15 s -7.87,6.63-27,0 c 1.87-10.12,1.47-19.24.68-28-.87-9.62-4.34-19.21-3.18-33.54 s 4.26-20.16,10.62-27.5 c 6.5-7.5,7.9-13.42,9.9-15.58 s 7-5.33,12.5-2.67,8,8.83,5.83,14-9.61,25.64-10.81,41.82-.53,23-.19,28.18Z" fill="param(main_colour)"/>
  </g>
  <g id="outline">
    <path d="M 95.46,167.59 c 1,11.06,7,43.06,1.74,55.31,11.25,2.25,16,5.5,29.11,1 a 2.78,2.78,0,0,0-.15-2.61,24.85,24.85,0,0,1-16.72,2.36 l -9.5-2 a 57.07,57.07,0,0,0,1.5-16.5 c -.5-9.25-3.13-32.13-3.57-37.56 C 97.2,164.65,95.46,167.59,95.46,167.59Z"/>
    <path d="M 137.06,125 h 0 A 12.07,12.07,0,0,0,125,112.94 c -4.14,0-8.78,2.24-10.3,5.87-2,4.83-4.16,8.07-9.12,14.58-1.33,1.75-10.24,10.5-10.37,29.25 a 44.66,44.66,0,0,0,.26,4.94 h 2.42v0 a 52,52,0,0,1,.22-12.21 c 1.83-12.5,9.83-21.46,11-23 a 76.51,76.51,0,0,0,4.67-7.49 c .88-1.59,2.39-4.67,2.42-4.71 h 0 a 10.05,10.05,0,0,1,18.34,8.06 h 0 s -7.43,17.58-10.26,35.42-.5,43.5,0,49.67 c .12,1.5.29,3.13.46,4.76 h 0 l .21,1.95 c .07.73.15,1.46.21,2.16 l .08.8 h 0 c .26,3.13.31,5.69-.28,6.53,2-1.2,2.34-3.24,2.09-7 a 333.86,333.86,0,0,1-1.85-38.23 c .35-19,2.22-25.62,4.72-34.87,2.45-9,4.53-15.58,6-19.25 a 11.9,11.9,0,0,0,1.14-4,10.26,10.26,0,0,0,.08-1.21Z"/>
    <path d="M 115.22,224.93 c -.65,0-1.3,0-1.95,0,.24.83.43,1.48.54,1.88.81,3,1.56,3.88,3.25,4.18 a 5.74,5.74,0,0,1-1.29-3.24 A 19.91,19.91,0,0,0,115.22,224.93Z"/>
  </g>
<script type="text/ecmascript" xlink:href="param.min.js"/> 
</svg>
