<?xml version="1.0"?>
<svg xmlns="http://www.w3.org/2000/svg" xmlns:xlink="http://www.w3.org/1999/xlink" viewBox="0 0 600 600">
  <title>police-shoulder-patch-curvy</title>
  <g id="outline">
    <path d="M 270.84,224.17 a 10.45,10.45,0,0,1,5.1,4.65,34.15,34.15,0,0,0-4.65,5.1 s -13.15-3.6-21.85-1.48 c 2.29-6.92,7-8.79,7-8.79 A 36.57,36.57,0,0,1,270.84,224.17Z"/>
    <path d="M 324.19,227.44 a 16.59,16.59,0,0,1,3.42-2.43 c 7-1.49,11.42.2,13.58,2 s 3.44,4.77,3.08,9.44 c -5.1-4-13.62-3.87-16.45-3.13 A 21.21,21.21,0,0,1,324.19,227.44Z"/>
  </g>
  <g id="misc-objects">
    <path d="M 262.25,226.93 a 10.29,10.29,0,0,1-5.85,2 c -3-.16-.33-2.16,1-2.36-.94-.76-.73-1.38.44-1.58 A 5,5,0,0,1,262.25,226.93Z" fill="#fff"/>
    <path d="M 334,227.77 a 9.62,9.62,0,0,0,4.86,3.12 c 2.78.54.79-1.88-.39-2.37,1-.48,1-1.08,0-1.54 A 4.65,4.65,0,0,0,334,227.77Z" fill="#fff"/>
  </g>
<script type="text/ecmascript" xlink:href="param.min.js"/> 
</svg>
