<?xml version="1.0"?>
<svg xmlns="http://www.w3.org/2000/svg" xmlns:xlink="http://www.w3.org/1999/xlink" viewBox="0 0 250 250">
  <title>slender-bottoms-template</title>
  <g id="skin-tone">
    <path d="M 121.08,216.17 a 10.24,10.24,0,0,1-10.23.46 c .14,2.23.18,4.33.18,6.44,0,6.58,2.72,6.86,3,6.87 a 4.7,4.7,0,0,0,6.91-1.27 h 0 c 2-.39,1.86-3.11,1-7.44 C 121.76,219.85,121.44,218.18,121.08,216.17Z" fill="param(skin_tone)"/>
  </g>
  <g id="main-colour">
    <path d="M 120.89,216.32 a 9.48,9.48,0,0,1-9.83.25 A 104.8,104.8,0,0,0,106.81,197 c -1.5-4.25-4.67-13.67-5.58-21.08 a 67.72,67.72,0,0,1,3.5-31.5 c 4.58-12.25,8.08-14.33,11.75-20.58 s 7.33-7.42,10.75-6.25 a 7.79,7.79,0,0,1,5.5,8.33 c -.5,4-2.42,5.58-4.92,12.75 s -7.75,20.75-9.17,35.67.08,31.83,1.58,38.75Z" fill="param(main_colour)"/>
  </g>
  <g id="outline">
    <path d="M 133.92,125 a 8.91,8.91,0,0,0-17-3.81 h 0 c -.07.14-.14.28-.2.43-5.13,11.28-10.14,12.24-14.73,27.61-4.19,14-2.19,28.29,1.93,40.66,3.55,10.66,6.34,24.28,6.24,29.54 s -.18,8,1,9.24 a 4.35,4.35,0,0,0,2.91,1.27 s -1.69-.87-1.91-3.75 c -.12-1.55.12-4.07-.19-8.33 a 9.71,9.71,0,0,0,8.24-.47,60.8,60.8,0,0,1,1.45,8.79,5,5,0,0,1-.71,2.49 s 2.14.11,2.42-2.5-1.18-6.61-2.93-17.86 a 135.63,135.63,0,0,1-.5-36.5 c 1.5-13.62,7.75-30.5,10.25-36.5 s 3.48-7.38,3.62-9.25 h 0 A 8.89,8.89,0,0,0,133.92,125Z m -2.42,2.33-.52,1.14 h 0 c -.5,1.1-1.24,2.77-1.93,4.46 h 0 a 203.3,203.3,0,0,0-8.31,23.76 c -4.25,15.5-4.31,31.88-3.41,42.63 A 155.27,155.27,0,0,0,120,215.93 c -1.59.69-5,1.81-8.07.43 a 97.2,97.2,0,0,0-2.4-13.67 c -3.5-14.5-8-22-7.5-36.62 s 3-22.67,8.81-30.5 c 4-5.39,8.44-14.37,8.44-14.37 A 6.91,6.91,0,0,1,131.92,125,6.82,6.82,0,0,1,131.49,127.33Z"/>
  </g>
<script type="text/ecmascript" xlink:href="param.min.js"/> 
</svg>
