<?xml version="1.0"?>
<svg xmlns="http://www.w3.org/2000/svg" xmlns:xlink="http://www.w3.org/1999/xlink" viewBox="0 0 600 600">
  <title>love-slogan-curvy</title>
  <g id="main-colour">
    <path d="M 310.4,282.11 l -10.51,1.44-.06-.52,1.88-.26 c -.56-4.64-.7-9.29-1.1-13.94 l -2,.23,0-.52,6.68-.78,0,.51-2.09.24 c .35,4.64.29,9.28.94,13.91 l 2.43-.33 a 2.86,2.86,0,0,0,2.35-1.52,7.14,7.14,0,0,0,.64-3.38 l .59-.08 A 34.07,34.07,0,0,0,310.4,282.11Z" fill="param(main_colour)"/>
    <path d="M 321.85,278.57 a 5.71,5.71,0,0,1-3.94,2.86,5.09,5.09,0,0,1-4.42-1.74,7,7,0,0,1-2-5.2,9.75,9.75,0,0,1,1.86-5.64,5.93,5.93,0,0,1,4.18-2.83,5.27,5.27,0,0,1,4.49,1.8,6.66,6.66,0,0,1,1.75,5.17 A 10.74,10.74,0,0,1,321.85,278.57Z m -.85-7.87 a 5,5,0,0,0-.82-3.3,2.76,2.76,0,0,0-2.56-.87,3,3,0,0,0-2.38,1.44,7.19,7.19,0,0,0-.76,3.5 c 0,1.77-.11,3.54-.09,5.3 a 5.13,5.13,0,0,0,.95,3.3,2.62,2.62,0,0,0,2.51.84,2.78,2.78,0,0,0,2.24-1.47,7.73,7.73,0,0,0,.72-3.48 C 320.82,274.22,320.94,272.46,321,270.71Z" fill="param(main_colour)"/>
    <path d="M 334.28,265 c -.83,4.94-3.37,9.92-4.47,14.9 l -.58.08 c -2-4.58-2.62-9.21-4.67-13.87 l -1.63.19q0-.25-.06-.51 l 6.18-.71q0,.25.07.5 l -2,.23 a 83.18,83.18,0,0,1,3.25,9.82 c 1.23-3.54,2.7-7.06,3.33-10.57 l -2,.23q0-.25-.07-.5 l 4.2-.47q0,.25.07.5Z" fill="param(main_colour)"/>
    <path d="M 347.57,277.34 l -11.38,1.39q0-.25,0-.5 l 2-.24 c -.13-4.47.43-9-.13-13.44 l -1.91.22q0-.25-.07-.5 c 3.56-.4,7.13-.8,10.76-1.18.13,1.27.22,2.53.3,3.8 l -.53.06 a 4,4,0,0,0-1.36-2.54,3.82,3.82,0,0,0-2.48-.38 l -2.23.25 a 49.49,49.49,0,0,1,.26,6.28 l .52-.06 a 2.34,2.34,0,0,0,1.92-1,3.65,3.65,0,0,0,.44-1.91 l .54-.06 c .06,2,0,4,.06,6 l -.55.07 a 3.73,3.73,0,0,0-.47-1.92 c -.32-.53-1-.75-2-.63 l -.52.06 c 0,2.21-.1,4.43,0,6.64 l 2.68-.33 a 3.55,3.55,0,0,0,2.68-1.33,7.28,7.28,0,0,0,1-3.19 l .57-.07Q347.59,275.05,347.57,277.34Z" fill="param(main_colour)"/>
  </g>
  <g id="fixed-colours">
    <path d="M 336,274.9 s -19.14-1.33-28.44,8 C 313.95,274.11,326.44,271.18,336,274.9Z" opacity="0.2"/>
    <path d="M 315,270.65 s 8.24,2.66,14.62-3.72 C 326.18,268.79,319,270.92,315,270.65Z" opacity="0.2"/>
    <path d="M 270.79,277.64 c 4.78,15.74,15.94,21.74,29.11,19.57 C 288.4,295.88,278.75,293,270.79,277.64Z" opacity="0.4"/>
  </g>
<script type="text/ecmascript" xlink:href="param.min.js"/> 
</svg>
