<?xml version="1.0"?>
<svg xmlns="http://www.w3.org/2000/svg" xmlns:xlink="http://www.w3.org/1999/xlink" viewBox="0 0 250 250">
  <title>slender-bottoms-template</title>
  <g id="skin-tone">
    <path d="M 149,125 H 101 s -2,4.52,1.38,16,12.22,38.13,13.47,46.63,4.63,25.68,5.44,27 h 0 a 7.11,7.11,0,0,0-.07.93,6.91,6.91,0,0,0,11.37,5.29 h 0 c .5-.31,2.5-1.43,4-6.31 s 7-31.5,8.88-49.37 S 150,130.73,149,125Z" fill="param(skin_tone)"/>
  </g>
  <g id="outline">
    <path d="M 121.29,214.62 s -1.87-13.91-4.23-26.75 C 113.87,170.58,100.19,135.6,101,125 c -1.19.9-2,3.24-1.83,5.11 s 2,11.63,6,24,7.44,22.93,9.74,33.75,5.42,28.75,5.42,28.75 A 2.47,2.47,0,0,0,121.29,214.62Z"/>
    <path d="M 149,125 s -.32,9.49-2.82,27.37-7.79,64.43-13.58,68.46 c 3.33-.84,5.17-3.29,8.72-22,2.4-12.57,7.86-52.75,8.23-59.37 S 149.82,127.13,149,125Z"/>
  </g>
<script type="text/ecmascript" xlink:href="param.min.js"/> 
</svg>
