<?xml version="1.0"?>
<svg xmlns="http://www.w3.org/2000/svg" xmlns:xlink="http://www.w3.org/1999/xlink" viewBox="0 0 250 250">
  <title>denim-shorts-voluptuous</title>
  <g id="skin-tone">
    <path d="M 137.92,120.92 c -1.58-4.42-5.92-8.83-11.58-9.33 s -8.83,2.5-11.92,5.08-7.58,7.75-10.17,10.42 A 57.31,57.31,0,0,0,93.5,144 c -4.11,10-.46,22.42,2.13,32.5 s 7.43,19.58,9.25,24.75 c 2.38,6.75,5.87,18,7.62,22.23 a 26.49,26.49,0,0,0,3.61,6.46 h 0 a 4.73,4.73,0,0,0,8.5-.5 h 0 c .55-.62,1.28-3,1.12-6.63 s -.75-13.75-.83-17.92-.33-13.58-.08-23.67,3-26.08,4.67-31.5,4.92-12.25,7.33-17.67 S 138.5,123,137.92,120.92Z" fill="param(skin_tone)"/>
  </g>
  <g id="outline">
    <path d="M 139.5,125 a 14.48,14.48,0,0,0-26.2-8.53 c -1.22,1.23-8.35,6.8-12.88,12.74-5.85,7.66-9.55,14.32-10.07,28.51-.28,7.61,6.11,25.84,9.86,35.21,4.51,11.27,7.59,21.16,9.09,24.91 S 113.67,229,116.11,230 c -1.18-2.37-3.66-9.43-7-20.13-4.77-15.12-9.13-22.33-14.51-42.25-4.79-17.75,3.66-32.68,11-40.41,3.91-4.11,9.91-10.28,9.92-10.29 h 0 a 12.49,12.49,0,0,1,21.75,10.57 h 0v0 a 12.34,12.34,0,0,1-.42,1.52 c -.21.7-.5,1.63-.88,2.69-.89,2.39-2.36,5.92-4.79,10.89-5.5,11.25-7.5,34.13-7.5,45.25 s .38,25.63.75,30.13,1,10.21.22,11.51 c 2-1.51,2.16-8,1.66-13.63 s -.75-26.62-.12-39.37 a 116.7,116.7,0,0,1,6.13-31.75 c 2.5-6.87,6.87-13.89,7-17.26 h 0 A 14.41,14.41,0,0,0,139.5,125Z"/>
  </g>
<script type="text/ecmascript" xlink:href="param.min.js"/> 
</svg>
