<?xml version="1.0"?>
<svg xmlns="http://www.w3.org/2000/svg" xmlns:xlink="http://www.w3.org/1999/xlink" viewBox="0 0 600 600">
  <title>love-slogan-voluptuous</title>
  <g id="main-colour">
    <path d="M 297.26,281.95 l -11.16.56V282 l 2-.1 c -.17-4.87-.17-9.75-.32-14.63 l -2.06.07,0-.54,6.88-.24q0,.27,0,.54 l -2.16.07 c .15,4.87,0,9.73.23,14.59 l 2.59-.13 a 3,3,0,0,0,2.62-1.37,6.73,6.73,0,0,0,.9-3.47 l .63,0 C 297.29,278.47,297.23,280.21,297.26,281.95Z" fill="param(main_colour)"/>
    <path d="M 309.52,279.27 a 5.73,5.73,0,0,1-4.31,2.63,5.36,5.36,0,0,1-4.47-2.2,8.07,8.07,0,0,1-1.84-5.61,9.7,9.7,0,0,1,2-5.75,5.4,5.4,0,0,1,9-.34,7.64,7.64,0,0,1,1.73,5.57 A 10.1,10.1,0,0,1,309.52,279.27Z m -.76-8.34 a 5.72,5.72,0,0,0-.78-3.52,3,3,0,0,0-2.62-1.12,2.9,2.9,0,0,0-2.52,1.3,7,7,0,0,0-.85,3.6 c 0,1.85-.14,3.71-.18,5.56 a 5.83,5.83,0,0,0,.81,3.53,2.76,2.76,0,0,0,2.55,1.09,2.85,2.85,0,0,0,2.45-1.33,7.27,7.27,0,0,0,.87-3.59 C 308.57,274.61,308.69,272.77,308.76,270.93Z" fill="param(main_colour)"/>
    <path d="M 322.92,266.05 c -1.46,5.05-3.84,10.13-5.24,15.24 l -.61,0 c -1.83-4.94-2.65-9.93-4.46-14.93 l -1.71.06 c 0-.18,0-.35,0-.53 l 6.54-.21 c 0,.18,0,.35,0,.53 l -2.12.07 c 1.28,3.54,2.06,7.07,3.07,10.58,1.32-3.61,2.84-7.22,3.91-10.8 l -2.14.07q0-.26,0-.52 l 4.47-.14q0,.26,0,.52Z" fill="param(main_colour)"/>
    <path d="M 335.87,280.09 l -11.59.55q0-.26,0-.52 l 2-.09 c .06-4.69.63-9.39.6-14.09 l -2,.07q0-.26,0-.52 l 11.4-.35q0,2,0,4 l -.57,0 a 4.27,4.27,0,0,0-1.19-2.76,4,4,0,0,0-2.55-.59 l -2.37.07 c 0,2.19-.12,4.38-.25,6.58 l .55,0 a 2.4,2.4,0,0,0,2.08-.89,3.86,3.86,0,0,0,.61-2 l .57,0 c -.1,2.08-.22,4.16-.33,6.24 l -.58,0 a 4,4,0,0,0-.37-2.05 c -.31-.59-1-.86-2-.82 l -.55,0 c -.14,2.32-.29,4.64-.34,7 l 2.74-.13 a 3.52,3.52,0,0,0,2.81-1.18,7.82,7.82,0,0,0,1.24-3.26 l .6,0Z" fill="param(main_colour)"/>
  </g>
<script type="text/ecmascript" xlink:href="param.min.js"/> 
</svg>
