<?xml version="1.0"?>
<svg xmlns="http://www.w3.org/2000/svg" xmlns:xlink="http://www.w3.org/1999/xlink" viewBox="0 0 600 600">
  <title>love-slogan-curvy</title>
  <g id="main-colour">
    <path d="M 324.68,273.78 l .61,0 a 5,5,0,0,0,.78,3.15,2.76,2.76,0,0,0,2.58,1 l 2.53-.14 c .11-4.47.46-9,.49-13.43 l -2.05.08q0-.25,0-.5 l 6.56-.26,0,.49-2,.08 c -.1,4.47-.37,8.93-.51,13.4 l 1.95-.11,0,.49-10.86.61 C 324.69,277,324.67,275.39,324.68,273.78Z" fill="param(main_colour)"/>
    <path d="M 311.16,272 a 9.52,9.52,0,0,1,2-5.49,5.58,5.58,0,0,1,4.23-2.47,5.31,5.31,0,0,1,4.36,2.12,7.25,7.25,0,0,1,1.64,5.24,9.39,9.39,0,0,1-2.07,5.44,5.7,5.7,0,0,1-4.2,2.51,5.11,5.11,0,0,1-4.28-2.07 A 7.31,7.31,0,0,1,311.16,272Z m 2.77,2.49 a 5.32,5.32,0,0,0,.74,3.34,2.6,2.6,0,0,0,2.43,1,2.87,2.87,0,0,0,2.4-1.28,6.77,6.77,0,0,0,.87-3.41 c .08-1.74.19-3.49.26-5.23 a 5.28,5.28,0,0,0-.73-3.33,2.72,2.72,0,0,0-2.48-1,2.88,2.88,0,0,0-2.43,1.25,7,7,0,0,0-.83,3.42 C 314.1,271,314,272.77,313.93,274.53Z" fill="param(main_colour)"/>
    <path d="M 299,265.7 l 0-.51,4.3-.18q0,.26,0,.51 l -2.06.09 c 1.25,3.43,2.15,6.85,3.21,10.25,1.13-3.53,2.52-7,3.5-10.54 l -2,.09q0-.26,0-.51 l 6.27-.26q0,.25,0,.51 l -1.64.07 c -1.37,4.92-3.58,9.87-4.76,14.84 l -.58,0 c -1.84-4.79-2.83-9.61-4.57-14.45Z" fill="param(main_colour)"/>
    <path d="M 287.57,276 l .56,0 a 7.33,7.33,0,0,0,1.12,3.17,2.87,2.87,0,0,0,2.64.9 l 2.58-.15 c -.12-2.3-.14-4.6-.15-6.91 l -.52,0 a 2.1,2.1,0,0,0-1.94,1,4.45,4.45,0,0,0-.42,2.09 l -.54,0 c -.05-2.08-.08-4.16-.13-6.24 l .55,0 a 3.71,3.71,0,0,0,.52,1.91,2,2,0,0,0,2,.71 l .52,0 c 0-2.18,0-4.35-.09-6.53 l -2.29.1 a 3.94,3.94,0,0,0-2.47.79,4.89,4.89,0,0,0-1.18,2.88 l -.55,0q0-2,0-4 l 11-.48q0,.26,0,.51 l -2,.09 c .17,4.64-.1,9.28.16,13.92 l 1.9-.11q0,.26,0,.51 l -11,.65 C 287.79,279.18,287.68,277.58,287.57,276Z" fill="param(main_colour)"/>
  </g>
<script type="text/ecmascript" xlink:href="param.min.js"/> 
</svg>
