<?xml version="1.0"?>
<svg xmlns="http://www.w3.org/2000/svg" xmlns:xlink="http://www.w3.org/1999/xlink" viewBox="0 0 600 600">
  <title>girl-power-slogan-slender</title>
  <g id="main-colour">
    <path d="M 320.94,269.36 l -1.23,0 c 0,1.2-.09,2.41-.14,3.61-.06,1.4.46,1.89,1.34,1.86 s 1.45-.55,1.49-1.94 c .11-3.51.19-7,.17-10.53,0-1.39-.57-1.92-1.44-1.91 s -1.39.54-1.36,1.94q0,1,0,2.1 l -2.56,0q0-1,0-1.91 c -.1-3.15,1.09-4.95,3.87-5 s 4.21,1.76,4.17,4.86 c 0,3.36-.07,6.73-.11,10.09,0,3.1-1.48,4.92-4.25,5 s -4.07-1.64-3.9-4.8 c .11-2.08.2-4.16.24-6.24 l 3.78-.07Q321,268,320.94,269.36Z" fill="param(main_colour)"/>
    <path d="M 314.92,277.67 l -2.78.1 c .42-6.61,1-13.23.18-19.81 l 2.8,0 C 315.84,264.5,315.31,271.09,314.92,277.67Z" fill="param(main_colour)"/>
    <path d="M 301.53,278.16 a 7,7,0,0,0,.41-2.45q.07-1.55.14-3.11 c .09-2.1.59-3.64,2-4.33-1.25-.63-1.82-2-1.85-4q0-.79,0-1.58 c -.11-3.1.94-4.63,3.85-4.65 l 4.23,0 c .83,6.6.26,13.24-.17,19.87 l -2.77.1 c .17-2.71.36-5.42.47-8.13 l -1,0 c -1.28,0-1.86.73-2,2.6q-.08,1.58-.17,3.15 a 7.34,7.34,0,0,1-.39,2.47Z m 4.88-17.31 c -1,0-1.39.64-1.33,2.07q0,1,0,2 c 0,1.6.64,2.11,1.69,2.09 l 1.1,0 c 0-2,0-4.09-.14-6.13Z" fill="param(main_colour)"/>
    <path d="M 300,278.21 l -7.23.27q0-1.46,0-2.91 l 4.59-.15 c .13-5.79.23-11.58-.15-17.36 l 2.82,0 C 300.63,264.75,300.28,271.49,300,278.21Z" fill="param(main_colour)"/>
    <path d="M 322.54,281.11 l 2.64-.11q-.06,6.06-.11,12.12 l -1.73.11q0-2.28,0-4.56 l -.85,0 c -1.79.1-2.68-.92-2.67-2.88q0-.79,0-1.59 C 319.85,282.29,320.76,281.18,322.54,281.11Z m 0,1.74 c -.57,0-.89.32-.9,1.19q0,.91,0,1.83 c 0,.87.3,1.13.88,1.1 l .85,0q0-2.06,0-4.11Z" fill="param(main_colour)"/>
    <path d="M 319.08,290.55 c .06,2-.77,3.13-2.45,3.24 s -2.74-1-2.86-2.94 c -.13-2.14-.14-4.27-.09-6.41,0-2,1.05-3.14,2.77-3.21 s 2.63,1,2.6,3 C 319,286.31,319,288.43,319.08,290.55Z m -1.81-6.4 c 0-.88-.32-1.19-.89-1.17 s -.93.37-.95,1.25 c -.05,2.21,0,4.43.08,6.64,0,.88.42,1.19,1,1.16 s .88-.39.84-1.26 C 317.23,288.56,317.22,286.36,317.27,284.15Z" fill="param(main_colour)"/>
    <path d="M 308.5,294.15 l -2.27.14 a 76,76,0,0,1-1.56-12.43 l 1.49-.06 a 82.35,82.35,0,0,0,1,9.86,81.43,81.43,0,0,1,.79-9.93 l 1.66-.07 a 81.57,81.57,0,0,0,.88,9.74,82.47,82.47,0,0,1,.89-9.81 l 1.7-.07 a 75.33,75.33,0,0,0-1,12.42 l -2.35.15 a 60,60,0,0,1-1.06-6.58 A 58.22,58.22,0,0,0,308.5,294.15Z" fill="param(main_colour)"/>
    <path d="M 302.07,283.77 l -2.9.13q0-.9,0-1.8 l 4.62-.2 a 79.36,79.36,0,0,0,.35,12.52 l -4.65.29q-.08-.9-.14-1.8 l 2.92-.17 c -.1-1.22-.17-2.45-.2-3.68 l -2.3.13q0-.9,0-1.8 l 2.3-.12 C 302,286.1,302,284.93,302.07,283.77Z" fill="param(main_colour)"/>
    <path d="M 293.15,295.1 a 4.41,4.41,0,0,0,.16-1.56q0-1,0-2 c 0-1.33.23-2.31,1-2.77-.73-.38-1.08-1.21-1.1-2.52q0-.5,0-1 c 0-2,.7-3,2.43-3 l 2.52-.11 a 126.33,126.33,0,0,0,.3,12.63 l -1.71.11 c -.11-1.72-.18-3.44-.22-5.15 l -.57,0 c -.75,0-1.07.5-1,1.67q0,1,.06,2 a 4.6,4.6,0,0,1-.09,1.57Z m 2.53-11 c -.59,0-.84.44-.83,1.34q0,.63,0,1.25 c 0,1,.39,1.32,1,1.29 l .64,0q0-1.94,0-3.89Z" fill="param(main_colour)"/>
  </g>
<script type="text/ecmascript" xlink:href="param.min.js"/> 
</svg>
