<?xml version="1.0"?>
<svg xmlns="http://www.w3.org/2000/svg" xmlns:xlink="http://www.w3.org/1999/xlink" viewBox="0 0 600 600">
  <title>love-slogan-curvy</title>
  <g id="main-colour">
    <path d="M 297.73,280.09 l -10.7.53v-.52 l 1.9-.09 c -.16-4.67-.17-9.35-.3-14 l -2,.07q0-.26,0-.52 l 6.59-.23 c 0,.17,0,.34,0,.52 l -2.07.07 c .14,4.66,0,9.33.22,14 l 2.48-.12 a 2.92,2.92,0,0,0,2.51-1.31,6.45,6.45,0,0,0,.86-3.33 l .6,0 C 297.75,276.76,297.69,278.42,297.73,280.09Z" fill="param(main_colour)"/>
    <path d="M 309.47,277.52 a 5.49,5.49,0,0,1-4.13,2.52,5.14,5.14,0,0,1-4.29-2.11,7.73,7.73,0,0,1-1.76-5.38,9.33,9.33,0,0,1,1.93-5.51,5.18,5.18,0,0,1,8.63-.32,7.33,7.33,0,0,1,1.66,5.34 A 9.7,9.7,0,0,1,309.47,277.52Z m -.73-8 a 5.49,5.49,0,0,0-.74-3.38,2.84,2.84,0,0,0-2.51-1.08,2.77,2.77,0,0,0-2.42,1.25,6.74,6.74,0,0,0-.82,3.45 c 0,1.78-.13,3.55-.17,5.33 a 5.57,5.57,0,0,0,.78,3.39,2.64,2.64,0,0,0,2.44,1,2.73,2.73,0,0,0,2.35-1.27,7,7,0,0,0,.83-3.44 C 308.56,273.06,308.68,271.29,308.75,269.53Z" fill="param(main_colour)"/>
    <path d="M 322.32,264.85 c -1.4,4.84-3.68,9.71-5,14.61 l -.58,0 c -1.76-4.74-2.54-9.51-4.27-14.31 l -1.64.05q0-.25,0-.51 l 6.26-.2q0,.25,0,.5 l -2,.07 c 1.23,3.39,2,6.77,2.94,10.14,1.27-3.46,2.72-6.92,3.75-10.36 l -2.05.07q0-.25,0-.5 l 4.29-.14q0,.25,0,.5Z" fill="param(main_colour)"/>
    <path d="M 334.73,278.3 l -11.11.52q0-.25,0-.5 l 1.93-.09 c .05-4.5.6-9,.57-13.51 l -2,.06q0-.25,0-.5 l 10.93-.34q0,1.91,0,3.82 l -.55,0 a 4.11,4.11,0,0,0-1.14-2.65,3.79,3.79,0,0,0-2.45-.57 l -2.27.07 c 0,2.1-.12,4.2-.24,6.3 l .53,0 a 2.3,2.3,0,0,0,2-.85,3.69,3.69,0,0,0,.58-1.88 l .55,0 c -.09,2-.21,4-.32,6 l -.55,0 a 3.83,3.83,0,0,0-.36-2q-.44-.84-1.92-.79 l -.53,0 c -.13,2.22-.27,4.45-.32,6.67 l 2.62-.12 a 3.38,3.38,0,0,0,2.69-1.13,7.54,7.54,0,0,0,1.19-3.12 l .57,0Z" fill="param(main_colour)"/>
  </g>
<script type="text/ecmascript" xlink:href="param.min.js"/> 
</svg>
