<?xml version="1.0"?>
<svg xmlns="http://www.w3.org/2000/svg" xmlns:xlink="http://www.w3.org/1999/xlink" viewBox="0 0 250 250">
  <title>curvy-bottoms-template</title>
  <g id="skin-tone">
    <path d="M 125.62,217.23 l -.06,0-1.26-18.37 c -.33-5.17-1-12,.19-28.18.19-2.54.53-5.19,1-7.86-5.05,1.1-11.64,1.52-17.91-1-5.78-2.28-7.8-4-10.46-7.17 a 40.3,40.3,0,0,0-.83,11.67,101.72,101.72,0,0,0,8.67,31 c 2.91,6.34,4.86,15,7.86,23 h 0 c .77,2.42,1.54,5.2,1.92,6.61.92,3.42,2.32,3.95,2.32,3.95 h 0 a 4.74,4.74,0,0,0,7.83-1.41 h 0 C 126.64,228.18,126.2,222.67,125.62,217.23Z" fill="param(skin_tone)"/>
  </g>
  <g id="main-colour">
    <path d="M 129.47,114.9 c -5.5-2.67-10.5.5-12.5,2.67 s -2.35,7.43-9.19,14.33 c -5.21,5.25-8.47,12.75-10.67,22.17,2.66,3.21,4.68,5.55,10.46,7.83,6.27,2.47,12.85,2.06,17.91,1 a 180.75,180.75,0,0,1,9.82-34 C 137.47,123.73,135,117.57,129.47,114.9Z" fill="param(main_colour)"/>
  </g>
  <g id="outline">
    <path d="M 137.06,125 h 0 A 12.07,12.07,0,0,0,125,112.94 c -4.14,0-8.78,2.24-10.3,5.87-2,4.83-4.16,8.07-9.12,14.58-1.33,1.75-10.24,10.5-10.37,29.25-.08,11.52,5.08,25.5,9.58,36.75,3.34,8.36,8.22,24.39,9,27.39 s 1.56,3.88,3.25,4.18 a 5.74,5.74,0,0,1-1.29-3.24,33.49,33.49,0,0,0-1.5-6 l -.66-2 c -2.26-6.49-4.46-15.57-7.83-23.32-4.17-9.59-9.42-25.23-7.84-39.49,10.9,10.43,22.85,8.2,26.23,7.28-2.71,17.81-.42,43.05.07,49.16.12,1.5.29,3.13.46,4.76 l .2,2 c .45,4.38.76,8.4,0,9.49,2-1.2,2.34-3.24,2.09-7 a 333.86,333.86,0,0,1-1.85-38.23 c .35-19,2.22-25.62,4.72-34.87,2.45-9,4.53-15.58,6-19.25 a 11.9,11.9,0,0,0,1.14-4,10.26,10.26,0,0,0,.08-1.21Z m -2.55,3.26 h 0 a 178.64,178.64,0,0,0-9.94,33.52 c -12.74,3.07-21.84-3.27-26.25-7.5,2.13-11.91,9.67-20.39,10.76-21.88 a 76.51,76.51,0,0,0,4.67-7.49 c .88-1.59,2.39-4.67,2.42-4.71 h 0 a 10.05,10.05,0,0,1,18.34,8.06Z"/>
  </g>
<script type="text/ecmascript" xlink:href="param.min.js"/> 
</svg>
