<?xml version="1.0"?>
<svg xmlns="http://www.w3.org/2000/svg" xmlns:xlink="http://www.w3.org/1999/xlink" viewBox="0 0 600 600">
  <title>professionally-pink-scarf-voluptuous</title>
  <g id="main-colour">
    <path d="M 271.64,217.69 a 27.22,27.22,0,0,0-8.92,6.52 c -4,4.5-2.17,6.67-.5,8-2.83,2.17-4.17,6.5.33,9.5 s 15.3,4.92,33.14,5.58 a 7.29,7.29,0,0,0,3.92,1.5 s .67-.5-5.33,7.17-23,40.25-4.17,61.42 c .13-10.62,8.13-17.37,8.13-17.37 s -4.37-9.08-2.5-24.62 A 84.57,84.57,0,0,1,303,249.3 l 6.92-.42 a 66.17,66.17,0,0,1,7.92,17.38 c 3.17,10.58,3,21.46.88,26.38,5.25.42,10.92,5.42,13,10,2.25-16.62.63-22.08-2.46-32.17 S 315.86,249,313.11,246.8 a 2.75,2.75,0,0,0,.75-1.08 s 13.7-3.08,20-8.17,5.17-10.58,2.83-11.83 c .83-3.42-2.83-8.25-9.67-10.17-.5.83-.75,1.17-.75,1.17 s 4.89,5.67-1.95,11.67 a 12.57,12.57,0,0,1,3.08-.42 s -8.08,8.08-13.92,12.92 c -.83-3.67-6.75-4.17-9.83-3.75 s -8.25,1-7.83,3.25 c -6.5-.33-24.75-5.5-28.22-13.5 a 13.49,13.49,0,0,0,3.42.58 S 265.39,224.52,271.64,217.69Z" fill="param(main_colour)"/>
  </g>
  <g id="outline">
    <path d="M 337.59,225.35 a 6.06,6.06,0,0,0-.2-2.47 c -1.67-6.17-10-8.33-10-8.33 a 2.47,2.47,0,0,0-.7,1.31 l -.93,1.33 a 7.44,7.44,0,0,1,1.38,6.27 c -1,3.38-8.19,8.23-8.19,8.23 s 3.37,0,8-4.81 l .16-.18 c -1.82,3.22-5.58,7.48-13.18,12.53-1-2-4.09-3-9.92-2.74-3.26.14-7.23,1.16-8.77,2.94-14.18-2.48-21.83-7.12-24.37-9.3-2.21-1.9-3.42-4.28-3.1-6.48 a 6.64,6.64,0,0,0,.35,1 c 2.38,5.29,9.67,7.17,9.79,7.17 s -6.54-3.42-7.92-7.83 c -1-3.13,2.83-4.42,2.83-4.42 l -.75-1.71 a 8.2,8.2,0,0,0-1.43.53 l 1.22-1 a 3.65,3.65,0,0,0-.5-1.33 s -15.17,10-11.17,15.17 c .3.39.6.73.88,1 a 6,6,0,0,0-.88,8.28 c 2.9,4.28,21.28,7.07,35.65,7.52 a 10,10,0,0,0,2.88,1.16 c -2.72,5.76-9.81,9.39-15.61,27.28-6,18.5-2.5,32.5,7.5,42.38.13-7.12,3-13.12,8.63-18.62-8.57-17.7,1.88-45.16,4-50.37 a 29,29,0,0,0,3.38,0,14.84,14.84,0,0,0,3.14-.52 c 2,3.49,14.41,26,8,43.89,7.25,1,12.63,7,14,11.5,4-17,3.63-37.87-17.87-57.75 l -.33.2 a 4.33,4.33,0,0,0,.56-.78 c 20.93-4.68,25.27-13.22,25.61-16.54 A 5.1,5.1,0,0,0,337.59,225.35Z m -75.87,14.53 a 4.61,4.61,0,0,1,.71-6.33 c 2.71,2.28,4.39,1.7,4.79,5.17.33-3.33-.5-4.33-1.83-5.17 s -3.83-1.83-4.33-4.67 c -.35-2,3.74-5.7,7.18-8.55 a 3.7,3.7,0,0,0-.61,2.33 c -1.27,2-1.05,5.34,2.35,8.8,5.89,5.62,17.19,8.37,24.65,9.63 a 2.26,2.26,0,0,0,0,.4,3.6,3.6,0,0,0,.84,1.7,4.43,4.43,0,0,0-.86,3.22,1.54,1.54,0,0,0,.08.33,145.15,145.15,0,0,1-20.65-2.36 C 263.39,242,263.22,241.54,261.72,239.88Z m 33.17,36.38 c -2,16.63,2.38,23.75,2.38,23.75 s -7.75,7.13-7.62,15.38 c -17.87-19.87.13-52.75,3.5-56.5 a 67.05,67.05,0,0,0,6.6-9.43,24.24,24.24,0,0,0,2.44.35 A 86.55,86.55,0,0,0,294.89,276.25Z m 4-28.44 c -2.89-.67-3.43-2-2.52-3.88 a 6.17,6.17,0,0,0,2.57.88 s -2.1-1-2.32-2.51,1.2-2.75,4.6-3.51,9.57-.64,11,1-.7,5-.7,5 a 7.45,7.45,0,0,0,1.62-1.25 c .33,1.07.38,2.77-1.91,4 C 307.61,249.37,302,248.54,298.86,247.81Z m 32.4,52.57 A 16.14,16.14,0,0,0,320,292.25 c 3.1-9.56,1.39-26.51-9.41-43.15 a 7.69,7.69,0,0,0,2.55-1.48 A 56.19,56.19,0,0,1,331.26,300.38Z m 2.29-63.92 c -4.75,4.67-17,8.08-19,8.6 a 5.05,5.05,0,0,0-.59-2.81,3.22,3.22,0,0,0,.36-1.67 c 2.21-1.44,11.73-7.89,14.23-13,2.12-4.36,1.07-6.4.4-7.14 a 11,11,0,0,0-1.58-3.8 c 4.56,1.39,9,5.11,8.68,7.94-.33,3-6.5,7.17-7.83,11,3.05-4.7,7.17-6,8.76-8.53 C 339,229.08,337.8,232.29,333.55,236.46Z"/>
  </g>
<script type="text/ecmascript" xlink:href="param.min.js"/> 
</svg>
