<?xml version="1.0"?>
<svg xmlns="http://www.w3.org/2000/svg" xmlns:xlink="http://www.w3.org/1999/xlink" viewBox="0 0 600 600">
  <title>girl-power-slogan-curvy</title>
  <g id="main-colour">
    <path d="M 331.87,272.9 l -1.39.1 c -.37,1.29-.75,2.58-1.14,3.88-.45,1.5,0,2,.88,1.91 s 1.68-.67,2.18-2.16 c 1.26-3.77,2.45-7.55,3.37-11.33.37-1.5-.19-2-1.25-2 s -1.82.67-2.14,2.18q-.24,1.13-.51,2.26 l -3,.2q.22-1,.41-2.06 c .63-3.39,2.51-5.41,5.89-5.58 s 4.8,1.65,3.86,5 c -1,3.62-2.25,7.25-3.56,10.87-1.21,3.33-3.36,5.36-6.1,5.62 s -3.62-1.53-2.72-4.91 c .61-2.23,1.19-4.46,1.71-6.7 l 4.4-.3Q332.32,271.4,331.87,272.9Z" fill="param(main_colour)"/>
    <path d="M 323.44,282.11 l -2.78.26 c 1.6-7.05,3.32-14.15,3.77-21.23 l 3.39-.19 C 327.17,268,325.25,275.08,323.44,282.11Z" fill="param(main_colour)"/>
    <path d="M 310.15,283.37 a 8.54,8.54,0,0,0,.59-2.62q.19-1.65.37-3.31 c .24-2.24.87-3.91,2.46-4.73-1.28-.6-1.79-2-1.69-4.21q0-.85.06-1.69 c .07-3.33,1.43-5,4.94-5.25 l 5.09-.29 c -.3,7.11-1.87,14.22-3.31,21.29 l -2.75.26 c .5-2.88,1-5.77,1.46-8.67 l -1,.08 c -1.37.11-2,.89-2.32,2.88q-.23,1.68-.47,3.36 a 9,9,0,0,1-.62,2.64Z m 6.75-18.75 c -1.17.07-1.68.78-1.77,2.31Q315.06,268,315,269 c -.15,1.72.48,2.22,1.63,2.13 l 1.21-.09 c .3-2.19.53-4.38.67-6.57Z" fill="param(main_colour)"/>
    <path d="M 308.67,283.52 l -7.11.71q0-1.54,0-3.08 l 4.56-.43 a 117.65,117.65,0,0,0,.18-18.52 l 3.34-.21 C 310.14,269.19,309.32,276.38,308.67,283.52Z" fill="param(main_colour)"/>
    <path d="M 329.85,285.39 l 2.49-.25 a 128.78,128.78,0,0,0-3.91,12.93 l -1.45.19 c .35-1.62.75-3.24,1.19-4.86 l -.73.09 c -1.53.19-2-.86-1.48-2.94q.22-.85.46-1.69 C 327,286.77,328.16,285.55,329.85,285.39Z m -.59,1.86 c -.53.05-.9.38-1.18,1.31q-.29,1-.57,1.95 c -.26.93-.07,1.19.43,1.14 l .74-.09 c .43-1.46.88-2.92,1.35-4.39Z" fill="param(main_colour)"/>
    <path d="M 324.12,295.6 c -.43,2.08-1.38,3.37-2.77,3.56 s -2-.9-1.73-3 c .33-2.27.76-4.54,1.23-6.81.44-2.1,1.62-3.39,3.26-3.56 s 2.2.94,1.63,3 C 325.14,291.1,324.59,293.35,324.12,295.6Z m 0-6.72 c .24-.93,0-1.25-.52-1.2 s -.93.44-1.15,1.38 c -.54,2.35-1,4.71-1.42,7.06-.15.93.09,1.25.55,1.19 s .81-.45,1-1.38 C 323,293.58,323.58,291.23,324.16,288.88Z" fill="param(main_colour)"/>
    <path d="M 314.7,299.95 l -1.84.26 a 127.85,127.85,0,0,1,0-13.09 l 1.43-.15 c -.23,3.48-.4,6.94-.38,10.39 a 106.87,106.87,0,0,1,2-10.57 l 1.58-.16 c -.37,3.44-.69,6.87-.81,10.29.63-3.49,1.5-7,2.49-10.46 l 1.61-.17 a 100.44,100.44,0,0,0-3.22,13.25 l -1.92.27 c 0-2.31,0-4.62.15-6.94 C 315.37,295.23,315,297.59,314.7,299.95Z" fill="param(main_colour)"/>
    <path d="M 310.26,289.28 l -2.73.3q.05-1,.12-1.91 l 4.42-.47 a 106.46,106.46,0,0,0-.88,13.24 l -3.73.53q-.06-.95-.09-1.9 l 2.42-.33q0-1.94.09-3.88 l -2,.25q0-.95,0-1.9 L 310,293Q310.09,291.13,310.26,289.28Z" fill="param(main_colour)"/>
    <path d="M 302.45,301.71 a 6.67,6.67,0,0,0,0-1.65q-.11-1-.2-2.06 c -.12-1.39.07-2.44.78-3-.67-.36-1-1.22-1.07-2.59q0-.53,0-1.05 c 0-2.07.68-3.16,2.33-3.34 l 2.42-.26 a 104,104,0,0,0,0,13.32 l -1.35.2 c -.16-1.81-.26-3.62-.3-5.42 l -.5.06 c -.66.08-.93.58-.86,1.82q.07,1,.16,2.1 a 7,7,0,0,1,0,1.66Z M 304.23,290 c -.55.06-.8.51-.8,1.47q0,.66,0,1.32 c 0,1.07.37,1.37.92,1.3 l .58-.07 c 0-1.37,0-2.73,0-4.1Z" fill="param(main_colour)"/>
  </g>
  <g id="fixed-colours">
    <path d="M 271.89,276.93 a 20,20,0,0,0,22.17,18.45,31.9,31.9,0,0,1-11.43-4.1 C 277.34,287.87,274.39,283.63,271.89,276.93Z" opacity="0.4"/>
    <path d="M 333.23,274.55 s -18.28-1.27-27.17,7.62 C 312.16,273.78,324.09,271,333.23,274.55Z" opacity="0.2"/>
    <path d="M 313.18,270.48 s 7.87,2.54,14-3.55 C 323.84,268.71,317,270.74,313.18,270.48Z" opacity="0.2"/>
  </g>
<script type="text/ecmascript" xlink:href="param.min.js"/> 
</svg>
