<?xml version="1.0"?>
<svg xmlns="http://www.w3.org/2000/svg" xmlns:xlink="http://www.w3.org/1999/xlink" viewBox="0 0 600 600">
  <title>sarong-hourglass</title>
  <g id="main-colour">
    <path d="M 280.27,321.63 a 11.41,11.41,0,0,0-3.5.25,23.34,23.34,0,0,0-6.67,7.25 l .33,1.33-2.75,4.25 s -3.83.58-4.75,1.5 a 69.53,69.53,0,0,0-12.08,26.67 c -1.08-.08-3,1.75-3.33,2.92-.33,5.75-1.08,21.08,1.25,28.5 a 7.2,7.2,0,0,0-3.17,4.25 A 49,49,0,0,0,250.94,422 a 5.93,5.93,0,0,0-1.75,3.25,127.11,127.11,0,0,0,8.17,22.58,9,9,0,0,0-1.25,4.5 s 1.08,12.17-5.75,18.83 c 10.42-3.33,16.67-10.5,21.17-14.5,1.75,6.67,4.08,12.08,7.08,15.83 s 6.5,9.5,6.5,15.67 a 49.94,49.94,0,0,0,10.83-13.42 s 5.33,6.92,4.83,15.17 c 5.42-6.33,13.33-19.67,16.25-34.33,7.92.58,21.5-2.33,29.25-14 a 5,5,0,0,1-1.42-1.5 s -1.5-14.25,2.58-25.5 c -1.83-1.17-2.25-4-2.25-4 s 1.58-11.67.92-21.17-1.83-16.25-4.42-18.08 c .08-9-2.17-17.83-3.67-19.92 a 8.6,8.6,0,0,0-3.67-2.5 s -2.83-7.58-7.17-12.25 c .5-6.25.58-9,.17-9.67 s -2.25-2.67-6.87-3.58 a 9.35,9.35,0,0,0,1.13,7.33 c -1.58,3.08-5.17,8-8.08,9.33-2.75-.67-11.33.67-12.42,2.08-4.17-1.33-17.5-7.17-22-16.33 a 4.66,4.66,0,0,0,1.17-3.33Z" fill="param(main_colour)"/>
  </g>
  <g id="outline">
    <path d="M 348,414.75 a 10.43,10.43,0,0,0-1.8-3.81,100.12,100.12,0,0,0-1.07-35.06,8.5,8.5,0,0,0-2.53-4.87 c -.08-5.46-1-13.46-3.72-19.63 a 9.72,9.72,0,0,0-3.41-2.58 A 49.16,49.16,0,0,0,328,336.33 c .67-6.25,1.62-8.4-.44-10.54 a 12.35,12.35,0,0,0-7.33-3.33,1.29,1.29,0,0,0-.24.72 c -.89,3.21.43,6.71,1,8 a 22.67,22.67,0,0,1-7.4,8.23 c -1.65-.74-4.76,0-6.72.28 s -5.16.73-6.24,1.78 c -1.63-.59-6.26-2.54-13-7.7 a 27.57,27.57,0,0,1-7.43-8,11.93,11.93,0,0,0,.34-5,7.81,7.81,0,0,0-2.75-.25,23,23,0,0,0-8.67,8.58,7,7,0,0,0,.45,1.19,40,40,0,0,0-2.53,4.07,12.11,12.11,0,0,0-4.84,1.74 c -4.92,6.56-10.16,16.52-12.05,26.12 a 9.38,9.38,0,0,0-3.37,3.13,112.6,112.6,0,0,0,1,29,7.12,7.12,0,0,0-3.14,3.45 c -.23,6.65,1.86,16.8,5.55,24.22 a 5.15,5.15,0,0,0-1.72,3.2 c .93,5.9,5.38,16.79,8.17,22.64 a 11.29,11.29,0,0,0-1.42,4.11 c .67,6.17-1.25,15.67-6.92,20.25,7.19-.12,16.09-6.74,23-13.91,1.23,4.75,4.36,12.19,6.63,15.12 a 29.11,29.11,0,0,1,6.5,16.25 c 6.05-4,10.13-10.52,11.55-13.06 a 27.28,27.28,0,0,1,3.95,14.81 c 4.88-1.62,8.38-9.87,13.13-20 a 65.39,65.39,0,0,0,4.71-14.83,35.61,35.61,0,0,0,29.91-15 c -.59-.44-1.14-.88-1.7-1.32 C 344.68,431.68,346.15,421.72,348,414.75Z m -4.58,23.48 C 334,430,329.07,421,327,414.88 c -1.71-5-4.45-13.55-5.85-17.94-.47-8.07-.93-19.63-1.94-29.74,4.63,8.1,7.42,19,10.91,27.18,3.88,9.13,9,16.63,15.88,20.75 C 343.18,423.92,343.26,434.39,343.41,438.23Z m -29.8,17.89 c -2.12,3.13-5.25,6.88-10.25,6.63,1.63-9.5.5-20.5,0-29.62 s -1.37-23.75,0-38.5 c 1.36-14.57,5.75-30.84,3.69-45.57 a 2.4,2.4,0,0,0,1.47-.84,8.91,8.91,0,0,0,1.32-.11 c .71,1.34,2.21,5,2,12.15-.25,9.25-4,30.88-.62,41.75-.87-15.12,1-29.37,1.75-35.37.73-5.81,1.56-12.91-1.46-18.91.44-.13.87-.27,1.27-.42,1,1.41,2.88,5.07,3.68,13.59,1.13,12,2.38,26.63,3.38,44.63 s 5.25,32.13,7.25,35.5 C 321.11,443.25,315.73,453,313.61,456.13Z m -18.67-44.25 a 176.35,176.35,0,0,1,1.67-38.08,103.43,103.43,0,0,1,7.13-24.88 l .28,0 a 15.13,15.13,0,0,0,1.51.18,97.1,97.1,0,0,1-1.3,24.36 c -2.5,14-4.12,31.88-3.87,42.75.18,7.78,1.76,25.08,1.55,37.37-1.43,2.38-4.42,6.44-8.55,7.26 C 295.27,454.29,295.52,420.38,294.94,411.88Z m 32.18-74.15 c 2.89,3.61,6.45,11.27,7.53,13.67-10.88.23-17.63-4.27-19.3-5.52 a 1.67,1.67,0,0,0,.25-.5 A 22.66,22.66,0,0,0,327.12,337.72Z M 346,412.63 l 0,0,0-.19 C 346,412.48,346,412.56,346,412.63Z m -1.59-1.17 c -8.4-6.55-12.37-16.47-15.79-27-2.74-8.41-7.69-18-9.95-22.12 a 79.16,79.16,0,0,0-1.89-10.44 c 2.5,3.27,5.91,7.71,7.34,9.44,2.38,2.88,7.88,12.13,19.13,15.25 C 347.13,392.32,345,407.64,344.39,411.46Z m -1-36.83 c -.28-.08-.56-.18-.84-.28,0-.36,0-.74.05-1.16 A 2.9,2.9,0,0,1,343.36,374.63Z m -2.68-1 c -6.51-2.91-11.75-9-14.94-13.25-2.81-3.77-8.22-10-10.53-12.63 a 7.15,7.15,0,0,0-.73-1.12 c 6.07,6.16,16,6.87,23,6.62 A 47.66,47.66,0,0,1,340.67,373.63Z m -3.44-22.38 c -.31,0-.59,0-.89,0-.06-.2-.13-.4-.19-.6 A 9.17,9.17,0,0,1,337.23,351.25Z M 322.69,326 a 13.87,13.87,0,0,1-1,3.61,14.71,14.71,0,0,1-1.19-5.49 c 1.27.15,5.27.86,6.6,4.21-.42,6.42-.5,8-.5,8 a 20,20,0,0,1-10.9,7.5,8.19,8.19,0,0,0-.27-1.44 A 17.91,17.91,0,0,0,325,331.88 a 20.53,20.53,0,0,1-10,9.37 c -.1-.23-.2-.45-.32-.65 C 316.6,338.85,323.33,332.2,322.69,326Z m -21.17,17 c .67-1.58,7.5-2.42,9.75-2.5 s 2.67,1.17,2.92,2.17.67,2.25-1.5,3.25 a 11.51,11.51,0,0,1-3.67,1,15.2,15.2,0,0,0,.34-4,18.77,18.77,0,0,1-1.33,3.58 c -.83,1.58-3,1.17-4.42,1 S 300.86,344.63,301.52,343Z m -22.17-18.92 c -.17-.39-.29-.74-.38-1 l .9-.1 C 279.7,323.42,279.52,323.8,279.35,324.13Z m -2.54-.49 a 22.52,22.52,0,0,0,6.8,9.58 c 5.42,4.7,14.3,8.4,16.55,9.29 l 0,.2 a 46.49,46.49,0,0,1-22.58-11.57 c 5.1,7.05,14.65,10.48,19.75,11.87 A 66.32,66.32,0,0,1,286,340.13 c -6.83-2.5-13-4.92-15-11.5 A 16.39,16.39,0,0,1,276.81,323.63Z m 3,15.49 a 80.12,80.12,0,0,0,20,5.18,5.67,5.67,0,0,0,.38,1.89 c -2.23.52-9,1.43-21-2.57-6.8-2.27-10.46-3.95-12.43-5.11 a 48.49,48.49,0,0,1,3.68-6.53 C 271.92,334.05,274.65,336.87,279.86,339.13Z m -15.33-2.67 a 9.14,9.14,0,0,1,1.7-.58 c -.36.68-.65,1.25-.85,1.64 C 264.49,336.8,264.52,336.46,264.52,336.46Z m -.92,1.92 a 72.92,72.92,0,0,0,17.92,7.42 c 8.71,2.06,15.61,2.31,19.13,1.26 l .09.13 C 298.1,349,284,358.07,268.36,362 c -10.25,2.6-15.2,3.18-17.51,3.24.49-1.82,3.59-13,8-19.9 A 38.62,38.62,0,0,1,263.61,338.38Z m -13.73,25.25 c -.09.54-.16,1.08-.22,1.62 a 2.39,2.39,0,0,1-.72-.13 A 10,10,0,0,1,249.88,363.63Z M 248.77,367 c 15.26.4,41.36-9.42,52.11-18.26-2.8,4.38-13.45,20.39-25.94,31.1 s -19.18,14.66-24.82,16.66 A 118,118,0,0,1,248.77,367Z M 248,395.87 c .07.4.14.8.22,1.2 l -.77.22 A 2.76,2.76,0,0,1,248,395.87Z M 278.19,379 a 142.74,142.74,0,0,0,17.36-20.12q-2.5,4.51-5.94,10.62 c -8,14.17-14.75,26.58-19,34.17-3.91,7-9.79,15.69-18.29,19.45 a 81.87,81.87,0,0,1-5.71-23.78 C 257.69,397.54,271.61,385,278.19,379Z m -27.51,44.07.32.58 c -.32.12-.64.25-1,.35 C 250.19,423.84,250.45,423.45,250.68,423.11Z m 19.18-14.57 c 5.25-8.58,13.08-23.42,16.58-29.83,2.48-4.55,9.78-18,13.81-25.47-.25.66-.51,1.38-.79,2.2 a 103.66,103.66,0,0,0-7.27,16.18 c -3.67,10.75-7.08,30.5-10.08,41-2.89,10.12-7.56,23.1-23.18,36.78 a 123.76,123.76,0,0,1-8.4-23.86 C 257.86,423.63,264.61,417.13,269.86,408.54Z m -12,41.81-.72.61 a 4.39,4.39,0,0,1,.17-1.67 C 257.47,449.68,257.65,450,257.82,450.35Z m -5,19.44 c 5.58-7.83,4.33-17.25,4.33-17.25 s 5.17-3.08,11.58-10.5,12.08-14.92,16.83-34.58,6.33-29.42,9.33-38.25 c .8-2.35,1.51-4.27,2.13-5.84-2.31,8.28-3.82,20.1-4.24,31.32-.46,3.84-.91,7.72-1.22,10.69 a 105.52,105.52,0,0,1-8.75,32.25 C 277.52,449,269.19,461.46,252.77,469.79Z m 33,16.71 c .13-3.75-2.37-9.12-6.75-15.37-3.51-5-5.33-12.13-5.91-14.73 a 69,69,0,0,0,5.37-6.77 c .32-.46.63-1,.94-1.44.6,5.89,5.88,14.58,10.47,20.07 a 65.72,65.72,0,0,1,4.91,6.55 C 293.39,477.6,289.34,483.53,285.73,486.5Z m 15.75,1.88 c .13-9.87-7.5-18.12-13.62-26.5 a 40.64,40.64,0,0,1-6.74-16.62,101.25,101.25,0,0,0,10.32-29.46 c .49-3.07.9-6.75,1.24-10.42,0,1.34.09,2.66.17,3.92.92,14.5.25,24.25.25,28.5 s .33,17-1.92,25.25 c 5.22.06,8.81-3.32,10.58-5.48 a 29.17,29.17,0,0,1-1.16,7.44 c 7,1.92,11.38-2.61,15.15-8.29 C 314,466.74,307.34,480.24,301.48,488.38Z M 318,454.76 c .13-.76.23-1.43.31-2,3.41-5.09,7.3-10,11.63-10-4.85-12.4-7.1-24.53-8.27-37.74,1.41,4.75,3.1,11,5.27,15.62,3.13,6.63,7.38,14.25,17.88,21.38 C 335.27,453.93,321,454.72,318,454.76Z"/>
  </g>
<script type="text/ecmascript" xlink:href="param.min.js"/> 
</svg>
