<?xml version="1.0"?>
<svg xmlns="http://www.w3.org/2000/svg" xmlns:xlink="http://www.w3.org/1999/xlink" viewBox="0 0 215 215">
  <title>city-classic-top-hourglass</title>
  <g id="skin-tone">
    <path d="M 111.23,164.11 c -1.29-.33-4.76-1-7.57.12 a 32.8,32.8,0,0,1,0,3.56 c -.23,3-.81,5.61.83,7.23 s 4.25,2.27,5.94.63,1.7-4.06,1.24-7.63 C 111.51,167,111.36,165.64,111.23,164.11Z" fill="param(skin_tone)"/>
  </g>
  <g id="main-colour">
    <path d="M 114.91,115.86 a 30.55,30.55,0,0,0-3.78-9.75,3.86,3.86,0,0,0-6.2-1.53 c -1.56.72-2.7,2.2-3.9,5.16-2.46,6.09-3.57,15.21-2.92,19.69 s 1.8,9.13,3.64,19.32 c .35,1.94.64,3.72.89,5.36 a 27.43,27.43,0,0,1,8.21-.32 c 0-.34,0-.67.07-1,.38-3.43,1.57-10,3.1-18.94 S 115.36,119.18,114.91,115.86Z" fill="param(main_colour)"/>
  </g>
  <g id="accent-colour-2">
    <path d="M 100.09,155.21 s 5.25-3.67,13.79-.58 c -.25,2.54.13,9.17.88,11.21 a 14,14,0,0,1-2.83,1.17 l -.25-2.71 s -3.33-1.92-8.29.29 c .08,1.13.08,2.42.08,2.42 l -2.67-1.12 A 25.21,25.21,0,0,0,100.09,155.21Z" fill="param(accent_colour_2)"/>
  </g>
  <g id="outline">
    <path d="M 115.61,115.08 a 22.05,22.05,0,0,0-3-7.07 c -.55-.82-1.13-1.59-1.68-2.28 a 26.42,26.42,0,0,1,1.57,4.45 c 1.41,5,2.2,12.26,1.81,16-.51,4.77-2.23,13.62-3.12,19.57-.4,2.7-.65,5.1-.79,7.42 a 23.77,23.77,0,0,0-7.25.11 c -1-5.59-2.28-11.58-3.07-16.19-.94-5.47-2.2-13.27-.43-20 a 58.45,58.45,0,0,1,2.41-7.16 s 1.25-4.07,3-5.49 c 0,0-2.74-.35-4.68,3.88 a 35.75,35.75,0,0,0-3.52,19 c .87,8.32,3.48,19.26,4.59,26.3 a 15.89,15.89,0,0,0-2.63,1 c 1,3.17,1.75,9.33,1.25,11.83 a 9.52,9.52,0,0,0,2.54,1.13,31.61,31.61,0,0,1,0,3.68,5.28,5.28,0,0,0-.12,1.24,5.06,5.06,0,0,0,5.23,5.1 A 5.13,5.13,0,0,0,112.6,172 c 0-.4-.09-2.13-.17-4.43 a 18.9,18.9,0,0,0,2.82-1.39,30.3,30.3,0,0,1-.33-12.08,23.18,23.18,0,0,0-2.62-.66 c .32-5.24,1.63-13.28,3.54-25 A 39.13,39.13,0,0,0,115.61,115.08Z m -7.89,60.5 a 3.33,3.33,0,0,1-3.44-3.22 c 0-.84.18-3.32.28-4.47 a 28.69,28.69,0,0,0,0-3.59,15.52,15.52,0,0,1,5.89,0,24.91,24.91,0,0,0,0,3.48,40.78,40.78,0,0,1,.5,4.4 A 3.33,3.33,0,0,1,107.72,175.58Z m 6.45-10.07 a 12.94,12.94,0,0,1-1.79.73 c 0-.49,0-1,0-1.52.3.09.61.18.92.3-1.25-2.58-10.5-2.83-11.17.08,0,0,.18-.09.51-.22,0,.44,0,.87.06,1.28 l -1.32-.56 a 36.32,36.32,0,0,0-.5-10.17,20.1,20.1,0,0,1,12.33-.42 C 112.42,159.09,114.17,165.51,114.17,165.51Z"/>
  </g>
<script type="text/ecmascript" xlink:href="param.min.js"/> 
</svg>
