<?xml version="1.0"?>
<svg xmlns="http://www.w3.org/2000/svg" xmlns:xlink="http://www.w3.org/1999/xlink" viewBox="0 0 600 600">
  <title>skull-design-top-voluptuous</title>
  <g id="main-colour">
    <path d="M 313.72,309.05 c -.58,0-.8-.55-1.16.1,0,0,.32,3.23.83,3.19 S 314.3,309.08,313.72,309.05Z" fill="param(main_colour)"/>
    <path d="M 315.41,309.79 c -1.27,0-.93,2.72-.37,3.18 s 1.12.4,1.11-.78 S 316.17,309.78,315.41,309.79Z" fill="param(main_colour)"/>
    <path d="M 317.23,310.58 c -.53.06-.64,1.38-.34,2.42 a 1.18,1.18,0,0,0,1.53,1 c .51-.14.28-1.54.12-2.44 S 318,310.49,317.23,310.58Z" fill="param(main_colour)"/>
    <path d="M 322.47,309.8 c -.54,0-.92,2.82,0,2.72 s 1-.85,1-1.68 S 323.11,309.74,322.47,309.8Z" fill="param(main_colour)"/>
    <path d="M 324.11,309.52 c -.12,2.63,1.39.86,1.45.26 s .2-1.73-.23-2 S 324.17,308.25,324.11,309.52Z" fill="param(main_colour)"/>
    <path d="M 336.28,292.95 c -.6-2.44.09-9.1-.08-13.15 s .66-12.11-6.53-16.25 c -7.2-4.3-21.11-4.15-25,.26-6.35,7.46-3.7,22.3-2.94,26 s -.81,5.48.53,8.31,2.51,3.21,4.1,3,5.11,1.88,5.71,3.71-.4,4.08,2.65,3.67,1.18,2.52,3.35,1.25,3.64.89,4.06-.35,3.76-1.82,3.6-4.27,2.43-5.88,6.07-4.62 S 336.88,295.37,336.28,292.95Z m -24.43,2.33 c -1.59,1-6,.57-6.63-.9 s -.78-5.14-.72-6,.15-2.36,1.65-2.73 c 2.22-.53,4.5-2,6.18-1.18 s 3.16,2.81,3,4.2 S 313.44,294.28,311.85,295.28Z m 10.74,4.14 c -.21,1.52-.71,3.36-1.87,3.21 s -.68-2.69-.91-4-1.12-2.53-1.36-.61.39,4.71-1.18,4.81 c -.92.06-1.54-2.75-1.05-5.69 s 1.63-4.59,2.33-4.16,1.12-1.26,1.86-.14 S 322.8,297.9,322.59,299.42Z m 10.5-5.4 c -.94,1-5,1.79-6.83,1.07 s -1.69-2.67-2.79-3.31 a 2.82,2.82,0,0,1-1.6-2.09 c -.33-1.29,1.71-3.22,2.83-4.52 s 2.07-1.38,4-.36,4.09.9,4.32,2.5 S 334,293,333.09,294Z" fill="param(main_colour)"/>
  </g>
  <g id="fixed-colours">
    <path d="M 330.26,264 s -8,17.66-22.85,24.73 C 319.48,287.06,327.64,275.49,330.26,264Z" opacity="0.15"/>
    <path d="M 329,274.21 s -3.33,9.5-9.83,14.33 C 326.2,286,328.54,277.88,329,274.21Z" opacity="0.15"/>
  </g>
<script type="text/ecmascript" xlink:href="param.min.js"/> 
</svg>
