<?xml version="1.0"?>
<svg xmlns="http://www.w3.org/2000/svg" xmlns:xlink="http://www.w3.org/1999/xlink" viewBox="0 0 250 250">
  <title>slender-bottoms-template</title>
  <g id="skin-tone">
    <path d="M 111,223.07 c 0,6.58,2.72,6.86,3,6.87 a 4.7,4.7,0,0,0,6.91-1.27 h 0 c 2-.39,1.86-3.11,1-7.44-.23-1.17-.81-3.1-1.2-4.88 l .07,0-.67-3.25 c -1.5-6.92-3-23.83-1.58-38.75 a 101.06,101.06,0,0,1,2.15-13 c -8,2-15.27-2.5-19.11-5.61 a 70.1,70.1,0,0,0-.46,20.17 c .92,7.42,4.08,16.83,5.58,21.08 a 107.71,107.71,0,0,1,4.13,18.4Z" fill="param(skin_tone)"/>
  </g>
  <g id="main-colour">
    <path d="M 127.22,117.57 c -3.42-1.17-7.08,0-10.75,6.25 s -7.17,8.33-11.75,20.58 a 62.39,62.39,0,0,0-3,11.33 c 3.83,3.11,11.06,7.6,19.11,5.61 a 200.71,200.71,0,0,1,7-22.69 c 2.5-7.17,4.42-8.75,4.92-12.75 A 7.79,7.79,0,0,0,127.22,117.57Z" fill="param(main_colour)"/>
  </g>
  <g id="outline">
    <path d="M 102.29,154.9 s 9,8.83,18.5,5 a 10.53,10.53,0,0,1-.5,2.67 s -8.83,3.17-18.5-5.33 A 4.73,4.73,0,0,1,102.29,154.9Z"/>
    <path d="M 120.24,217.39 a 60.8,60.8,0,0,1,1.45,8.79,5,5,0,0,1-.71,2.49 s 2.14.11,2.42-2.5-1.18-6.61-2.93-17.86 a 135.63,135.63,0,0,1-.5-36.5 c 1.5-13.62,7.75-30.5,10.25-36.5 s 3.48-7.38,3.62-9.25 h 0 a 8.9,8.9,0,0,0-16.89-4.88 h 0 c -.07.14-.14.28-.2.43-5.13,11.28-10.14,12.24-14.73,27.61-4.19,14-2.19,28.29,1.93,40.66,3.55,10.66,6.34,24.28,6.24,29.54 s -.18,8,1,9.24 a 4.35,4.35,0,0,0,2.91,1.27 s -1.69-.87-1.91-3.75 c -.12-1.55.12-4.07-.19-8.33 l -.13-1.5 a 97.2,97.2,0,0,0-2.4-13.67 c -3.5-14.5-8-22-7.5-36.62 s 3-22.67,8.81-30.5 c 4-5.39,8.44-14.37,8.44-14.37 A 6.91,6.91,0,0,1,131.92,125 a 6.82,6.82,0,0,1-.42,2.33 l -.52,1.14 h 0 c -.5,1.1-1.24,2.77-1.93,4.46 h 0 a 203.3,203.3,0,0,0-8.31,23.76 c -4.25,15.5-4.31,31.88-3.41,42.63 A 155.27,155.27,0,0,0,120,215.93Z"/>
  </g>
<script type="text/ecmascript" xlink:href="param.min.js"/> 
</svg>
