<?xml version="1.0"?>
<svg xmlns="http://www.w3.org/2000/svg" xmlns:xlink="http://www.w3.org/1999/xlink" viewBox="0 0 250 250">
  <title>three-quarter-jeans-slender</title>
  <g id="skin-tone">
    <path d="M 120.22,213.07 c -1.5-6.92-3-23.83-1.58-38.75.28-3,.73-5.94,1.27-8.78 a 26.26,26.26,0,0,1-8.58,0 c -3.79-.74-7.82-3.12-10.31-4.8 a 70.65,70.65,0,0,0,.2,15.17 c .92,7.42,4.08,16.83,5.58,21.08 a 107.88,107.88,0,0,1,4.11,18.26 l .11,7.83 c 0,6.58,2.72,6.86,3,6.87 a 4.7,4.7,0,0,0,6.91-1.27 h 0 c 2-.39,1.86-3.11,1-7.44Z" fill="param(skin_tone)"/>
  </g>
  <g id="main-colour">
    <path d="M 127.22,117.57 c -3.42-1.17-7.08,0-10.75,6.25 s -7.17,8.33-11.75,20.58 c -2.12,5.67-4.26,8.69-4.58,15.56,2.49,1.68,7.4,4.82,11.19,5.56 a 34,34,0,0,0,9.81-.19,142.27,142.27,0,0,1,6.66-26.69 c 2.5-7.17,4.42-8.75,4.92-12.75 A 7.79,7.79,0,0,0,127.22,117.57Z" fill="param(main_colour)"/>
  </g>
  <g id="fixed-colours">
    <path d="M 101.46,151.84 s -1.81,4.5-1,8.06 c 5.38,4.44,13.94,7.81,20.56,5.13.81-4,1.19-6.31,1.19-6.31 s -6.69,1.88-12.31-.44 A 20.16,20.16,0,0,1,101.46,151.84Z" fill="#fff" opacity="0.7"/>
    <g opacity="0.6">
      <polygon points="118.04 128.23 117.56 129.11 117.55 129.1 118.04 128.23" fill="#fff"/>
      <polygon points="116.84 130.43 116.36 131.3 116.3 131.27 116.8 130.4 116.84 130.43" fill="#fff"/>
      <polygon points="115.62 132.61 115.13 133.48 115.03 133.42 115.54 132.56 115.62 132.61" fill="#fff"/>
      <polygon points="114.38 134.78 113.88 135.64 113.73 135.55 114.25 134.7 114.38 134.78" fill="#fff"/>
      <polygon points="113.1 136.93 112.58 137.78 112.39 137.66 112.93 136.82 113.1 136.93" fill="#fff"/>
      <polygon points="111.82 139.07 111.36 139.95 111.05 139.78 111.56 138.92 111.82 139.07" fill="#fff"/>
      <polygon points="110.71 141.29 110.29 142.2 109.89 142.01 110.33 141.11 110.71 141.29" fill="#fff"/>
      <polygon points="109.69 143.57 109.32 144.49 108.86 144.3 109.26 143.38 109.69 143.57" fill="#fff"/>
      <polygon points="108.77 145.88 108.41 146.81 107.97 146.65 108.31 145.7 108.77 145.88" fill="#fff"/>
      <polygon points="107.91 148.21 107.59 149.16 107.19 149.03 107.49 148.07 107.91 148.21" fill="#fff"/>
      <polygon points="107.11 150.57 106.82 151.53 106.55 151.46 106.8 150.48 107.11 150.57" fill="#fff"/>
      <polygon points="106.38 152.96 106.1 153.92 106.06 153.91 106.24 152.93 106.38 152.96" fill="#fff"/>
    </g>
    <path d="M 104.75,153.15 a 68.25,68.25,0,0,1,3.79-10.58 l 0-.08 A 35.12,35.12,0,0,1,111,138 c 2.57-4,5.54-8.18,6.42-11.33,0,0-4.32,7.18-7.17,11.42 a 32.47,32.47,0,0,0-3,5.78 C 106.23,146.59,104.85,151.07,104.75,153.15Z" opacity="0.5"/>
  </g>
  <g id="outline">
    <path d="M 101,150.66 s -1.81,5.15-1.5,9.4 c 11.63,10.23,22.08,5.71,22.08,5.71 s .83-3.76,1.77-8 C 109.85,161.67,101,150.66,101,150.66Z m 19.68,14.12 s -9.44,3.13-19.87-5.25 a 19.42,19.42,0,0,1,.88-6.37 c 1.88,3.25,12.44,9.19,20.06,6.25 C 121,162.59,120.64,164.77,120.64,164.77Z"/>
    <polygon points="102.58 150.27 100.96 150.66 101.33 152.21 102.27 152.65 102.58 150.27"/>
    <polygon points="122.02 156.21 123.31 157.75 121.89 158.77 122.02 156.21"/>
    <path d="M 112.2,226.2 c -.12-1.55.12-4.07-.19-8.33 l -.13-1.5 a 97.2,97.2,0,0,0-2.4-13.67 c -3.5-14.5-8-22-7.5-36.62.06-1.63.14-3.16.25-4.64 a 15.74,15.74,0,0,1-2.25-1.65 c -1,10.51.89,20.84,4,30.12,3.55,10.66,6.34,24.28,6.24,29.54 s -.18,8,1,9.24 a 4.35,4.35,0,0,0,2.91,1.27 S 112.42,229.07,112.2,226.2Z"/>
    <path d="M 133.92,125 a 8.91,8.91,0,0,0-17-3.81 h 0 c -.07.14-.14.28-.2.43-5.13,11.28-10.14,12.24-14.73,27.61q-.4,1.32-.72,2.65 a 18.1,18.1,0,0,0,1.83,1.88,40.09,40.09,0,0,1,7.66-18.2 c 4-5.39,8.44-14.37,8.44-14.37 A 6.91,6.91,0,0,1,131.92,125 a 6.82,6.82,0,0,1-.42,2.33 l -.52,1.14 h 0 c -.5,1.1-1.24,2.77-1.93,4.46 h 0 a 203.3,203.3,0,0,0-8.31,23.76 c -.23.83-.44,1.66-.64,2.49 a 14.23,14.23,0,0,0,2.4-.55,184,184,0,0,1,7.74-23.31 c 2.5-6,3.48-7.38,3.62-9.25 h 0 A 8.89,8.89,0,0,0,133.92,125Z"/>
    <path d="M 120,171.82 c .23-2.08.57-4.24,1-6.42-.51.1-1.4.27-2.27.4 a 134.62,134.62,0,0,0-1.38,33.52 A 155.27,155.27,0,0,0,120,215.93 l .29,1.46 a 60.8,60.8,0,0,1,1.45,8.79,5,5,0,0,1-.71,2.49 s 2.14.11,2.42-2.5-1.18-6.61-2.93-17.86 A 135.63,135.63,0,0,1,120,171.82Z"/>
  </g>
<script type="text/ecmascript" xlink:href="param.min.js"/> 
</svg>
