<?xml version="1.0"?>
<svg xmlns="http://www.w3.org/2000/svg" xmlns:xlink="http://www.w3.org/1999/xlink" viewBox="0 0 600 600">
  <title>sassy-slogan-voluptuous</title>
  <g id="main-colour">
    <path d="M 305.13,270.39 l -1.17.13 c -.07-1.38-.15-2.75-.25-4.13 a 1.33,1.33,0,0,0-.34-.83,1.14,1.14,0,0,0-.92-.27,1.11,1.11,0,0,0-.84.45,1.26,1.26,0,0,0-.19.89,20.41,20.41,0,0,0,.5,3.44,21,21,0,0,0,.78,2.64 c .29.78.61,1.53.93,2.2.13.38.26.7.41,1 a 13.26,13.26,0,0,1,.6,1.81,21,21,0,0,1,.51,2.16 c .14.77.19,1.68.29,2.69 a 2.73,2.73,0,0,1-.05,1,2.6,2.6,0,0,1-.35.78,3.06,3.06,0,0,1-.65.56,2.94,2.94,0,0,1-1,.28,2,2,0,0,1-1.66-.42,2.29,2.29,0,0,1-.74-1.62 c -.11-1.39-.21-2.78-.31-4.17 l 1.13-.14 c .1,1.39.2,2.77.32,4.16 a 1.48,1.48,0,0,0,.32.83,1,1,0,0,0,.87.23,1,1,0,0,0,.78-.44,1.41,1.41,0,0,0,.16-.89,24.31,24.31,0,0,0-.52-3.45,20.66,20.66,0,0,0-.76-2.63 c -.23-.57-.42-1.1-.65-1.63 l -.71-1.62 a 14.82,14.82,0,0,1-.65-1.79,20.36,20.36,0,0,1-.55-2.17,25.2,25.2,0,0,1-.28-2.71,2.67,2.67,0,0,1,.09-1,2.41,2.41,0,0,1,.41-.75,2.19,2.19,0,0,1,.72-.55,3.4,3.4,0,0,1,1-.28,2.21,2.21,0,0,1,1.74.46,2.32,2.32,0,0,1,.76,1.65 C 305,267.64,305.07,269,305.13,270.39Z" fill="param(main_colour)"/>
    <path d="M 313.52,283.64 c -.27-1.16-.48-2.32-.65-3.48 l -1.46.18 c 0,1.18,0,2.37.13,3.55 l -1.1.14 c -.53-6.93.75-13.88.55-20.82 l 1.15-.11 c 1.33,6.83.94,13.64,2.48,20.4Z m -2.08-4.6,1.26-.15 c -.35-2.76-.53-5.52-.78-8.29 C 311.75,273.42,311.51,276.23,311.45,279Z" fill="param(main_colour)"/>
    <path d="M 323.68,268.45 l -1.16.12 c 0-1.35,0-2.7-.14-4 a 1.3,1.3,0,0,0-.34-.81,1.12,1.12,0,0,0-.9-.27,1,1,0,0,0-.81.44,1.26,1.26,0,0,0-.18.87,27.48,27.48,0,0,0,.38,3.37,20.74,20.74,0,0,0,.61,2.59,22.4,22.4,0,0,0,.78,2.15 c .11.37.21.69.35,1 a 12.61,12.61,0,0,1,.5,1.77,21,21,0,0,1,.4,2.11 c .11.75.12,1.64.19,2.63 a 2.65,2.65,0,0,1-.08,1,2.62,2.62,0,0,1-.37.76,3.14,3.14,0,0,1-.66.54,3,3,0,0,1-1,.27,2.11,2.11,0,0,1-1.68-.41,2.22,2.22,0,0,1-.78-1.58 c -.12-1.36-.17-2.72-.19-4.08 l 1.18-.13 c 0,1.36.06,2.72.17,4.07 a 1.4,1.4,0,0,0,.33.81,1.06,1.06,0,0,0,.88.23,1,1,0,0,0,.79-.43,1.37,1.37,0,0,0,.17-.87,28.17,28.17,0,0,0-.39-3.37,21.46,21.46,0,0,0-.61-2.58 c -.2-.56-.35-1.08-.54-1.59 l -.59-1.59 a 13.36,13.36,0,0,1-.5-1.76 c -.16-.65-.3-1.37-.4-2.13 s -.12-1.68-.18-2.65 a 2.8,2.8,0,0,1,.08-1,2.39,2.39,0,0,1,.39-.73,2,2,0,0,1,.67-.53,3.17,3.17,0,0,1,1-.27,2.21,2.21,0,0,1,1.71.45,2.27,2.27,0,0,1,.78,1.62 C 323.64,265.76,323.68,267.1,323.68,268.45Z" fill="param(main_colour)"/>
    <path d="M 333.14,267.48 l -1.15.12 c 0-1.33-.07-2.67-.17-4 a 1.29,1.29,0,0,0-.34-.8,1.12,1.12,0,0,0-.89-.27,1,1,0,0,0-.8.43,1.24,1.24,0,0,0-.17.86,27.09,27.09,0,0,0,.4,3.33,20.34,20.34,0,0,0,.62,2.56,21.79,21.79,0,0,0,.8,2.13 c .11.37.22.68.36,1 a 12.16,12.16,0,0,1,.51,1.75,18.64,18.64,0,0,1,.41,2.09 c .1.74.1,1.62.14,2.6 a 2.51,2.51,0,0,1-.11.95,2.66,2.66,0,0,1-.41.75,3.39,3.39,0,0,1-.69.54,3.22,3.22,0,0,1-1,.27,2,2,0,0,1-2.42-2 c -.08-1.34-.1-2.69-.1-4 l 1.19-.13 c 0,1.34,0,2.69.09,4 a 1.32,1.32,0,0,0,.3.8,1.07,1.07,0,0,0,.89.23,1.09,1.09,0,0,0,.82-.42,1.34,1.34,0,0,0,.21-.86,22.63,22.63,0,0,0-.34-3.34,19.6,19.6,0,0,0-.61-2.55 c -.2-.56-.35-1.07-.55-1.58 l -.59-1.57 a 13.14,13.14,0,0,1-.51-1.74 c -.16-.64-.3-1.36-.41-2.11 s -.13-1.66-.2-2.62 a 2.76,2.76,0,0,1,.07-1,2.31,2.31,0,0,1,.37-.72,2,2,0,0,1,.66-.52,3.16,3.16,0,0,1,1-.27,2.2,2.2,0,0,1,1.7.45,2.25,2.25,0,0,1,.76,1.6 C 333.07,264.82,333.12,266.15,333.14,267.48Z" fill="param(main_colour)"/>
    <path d="M 342.14,260.26 c -.5,3.38-1,6.76-1.48,10.14q.14,5,.35,9.93 l -1.16.13 c -.15-3.32-.23-6.64-.31-10-.7-3.25-1.34-6.52-2.28-9.79 l 1.14-.1 c .63,2.27,1.12,4.54,1.62,6.8.35-2.35.68-4.7,1-7Z" fill="param(main_colour)"/>
  </g>
  <g id="fixed-colours">
    <path d="M 334.57,274.55 s -18.28-1.27-27.17,7.62 C 313.49,273.78,325.43,271,334.57,274.55Z" opacity="0.2"/>
    <path d="M 314.51,270.48 s 7.87,2.54,14-3.55 C 325.17,268.71,318.32,270.74,314.51,270.48Z" opacity="0.2"/>
    <path d="M 295.07,297.54 c -12.33-.33-23.33-7.33-30-19.9 C 268.07,292.71,281.6,300.9,295.07,297.54Z" opacity="0.4"/>
  </g>
<script type="text/ecmascript" xlink:href="param.min.js"/> 
</svg>
