<?xml version="1.0"?>
<svg xmlns="http://www.w3.org/2000/svg" xmlns:xlink="http://www.w3.org/1999/xlink" viewBox="0 0 600 600">
  <title>sassy-slogan-voluptuous</title>
  <g id="main-colour">
    <path d="M 332.05,263.44 a 2.28,2.28,0,0,1,.48-1.63,2.06,2.06,0,0,1,1.53-.68,3.14,3.14,0,0,1,1,.1,1.92,1.92,0,0,1,.72.39,2,2,0,0,1,.46.62,2.31,2.31,0,0,1,.17.9,21,21,0,0,1,0,2.49,17.62,17.62,0,0,1-.35,2.06,12.74,12.74,0,0,1-.49,1.74 c -.19.54-.59,1.6-.59,1.6-.2.52-.35,1-.56,1.6 a 18.17,18.17,0,0,0-.61,2.54,15.69,15.69,0,0,0-.23,3.23,1.12,1.12,0,0,0,.26.77,1,1,0,0,0,.83.24,1.19,1.19,0,0,0,.84-.38,1.4,1.4,0,0,0,.24-.81q0-1.91,0-3.82 l 1.15-.09q0,1.91,0,3.82 a 2.26,2.26,0,0,1-.58,1.6,2.31,2.31,0,0,1-1.59.71,3.06,3.06,0,0,1-1-.06 A 2.87,2.87,0,0,1,333,280 a 2,2,0,0,1-.64-1.51,18.36,18.36,0,0,1,.05-2.5,16.19,16.19,0,0,1,.39-2.07,13.22,13.22,0,0,1,.53-1.77 c .14-.35.25-.67.36-1 a 22.57,22.57,0,0,0,.8-2.17,17.31,17.31,0,0,0,.58-2.54,16,16,0,0,0,.18-3.2,1.08,1.08,0,0,0-.26-.77,1,1,0,0,0-.82-.28,1.09,1.09,0,0,0-.81.39,1.31,1.31,0,0,0-.22.81 c .06,1.27.07,2.55.07,3.82 l -1.09.08 C 332.14,266,332.12,264.71,332.05,263.44Z" fill="param(main_colour)"/>
    <path d="M 323.56,281.2 c -.16-6.52,1.8-13.05,1.34-19.56 l 1.09-.07 c 1.38,6.43.64,12.87,1.69,19.25 l -1.09.1 c -.18-1.09-.31-2.19-.41-3.29 l -1.45.12 c -.08,1.11-.11,2.23-.1,3.34Z m 2.19-12.59 c -.28,2.64-.69,5.29-.93,7.93 l 1.26-.11 C 325.91,273.83,325.89,271.22,325.76,268.61Z" fill="param(main_colour)"/>
    <path d="M 314.51,264.67 A 2.39,2.39,0,0,1,315,263 a 2,2,0,0,1,1.5-.7,3.18,3.18,0,0,1,1,.1,2.16,2.16,0,0,1,.76.39,2.27,2.27,0,0,1,.51.63,2.34,2.34,0,0,1,.23.92,14.33,14.33,0,0,1,0,2.55,14.82,14.82,0,0,1-.41,2.11,13.07,13.07,0,0,1-.58,1.78 c -.22.55-.67,1.64-.67,1.64-.22.53-.4,1.06-.63,1.64 a 15.85,15.85,0,0,0-.66,2.6,12.7,12.7,0,0,0-.14,3.3,1.23,1.23,0,0,0,.31.79,1,1,0,0,0,.83.24,1,1,0,0,0,.78-.39,1.47,1.47,0,0,0,.17-.83 c -.09-1.3-.1-2.6-.07-3.91 l 1.14-.1 c 0,1.3,0,2.6.05,3.9 a 2.36,2.36,0,0,1-.44,1.64,2,2,0,0,1-1.46.73,2.9,2.9,0,0,1-1-.06,3.11,3.11,0,0,1-.74-.38 A 2.39,2.39,0,0,1,315,281 a 2.26,2.26,0,0,1-.23-.89,14.55,14.55,0,0,1,0-2.56,14.14,14.14,0,0,1,.39-2.12,12.46,12.46,0,0,1,.57-1.81 c .15-.35.27-.68.4-1.06.32-.69.62-1.44.9-2.22 a 16.13,16.13,0,0,0,.67-2.59,12.59,12.59,0,0,0,.16-3.28,1.14,1.14,0,0,0-.31-.79,1,1,0,0,0-.84-.29,1,1,0,0,0-.8.4,1.34,1.34,0,0,0-.2.83 c .09,1.3.09,2.6.06,3.9 l -1.12.09 C 314.6,267.28,314.59,266,314.51,264.67Z" fill="param(main_colour)"/>
    <path d="M 305.24,265.34 a 2.4,2.4,0,0,1,.49-1.68,2,2,0,0,1,1.54-.71,3.19,3.19,0,0,1,1,.1,2.08,2.08,0,0,1,.75.4,2.23,2.23,0,0,1,.51.64,2.38,2.38,0,0,1,.22.93,15.77,15.77,0,0,1,0,2.57,16,16,0,0,1-.4,2.13,13.64,13.64,0,0,1-.55,1.8 l -.64,1.66 c -.21.54-.37,1.07-.58,1.65 a 15.94,15.94,0,0,0-.58,2.63,13.61,13.61,0,0,0-.06,3.34,1.27,1.27,0,0,0,.32.79,1,1,0,0,0,.82.25,1,1,0,0,0,.77-.4,1.49,1.49,0,0,0,.15-.84 c -.12-1.32-.16-2.63-.17-4 l 1.12-.1 c 0,1.32,0,2.63.15,3.95 a 2.37,2.37,0,0,1-.39,1.66,1.86,1.86,0,0,1-1.44.74,2.83,2.83,0,0,1-1-.06,3.06,3.06,0,0,1-.74-.38,2.42,2.42,0,0,1-.51-.65,2.39,2.39,0,0,1-.24-.9,15.88,15.88,0,0,1-.1-2.58,14.53,14.53,0,0,1,.32-2.14,12.31,12.31,0,0,1,.51-1.83 c .13-.36.25-.69.37-1.07.3-.69.58-1.46.84-2.24 a 17.61,17.61,0,0,0,.64-2.62,13.9,13.9,0,0,0,.17-3.31,1.14,1.14,0,0,0-.3-.8,1,1,0,0,0-.85-.29,1.1,1.1,0,0,0-.82.41,1.36,1.36,0,0,0-.21.84 c .07,1.31.09,2.63.08,3.94 l -1.13.09 C 305.33,268,305.31,266.65,305.24,265.34Z" fill="param(main_colour)"/>
    <path d="M 296.92,263.57 c .58,2.29,1.13,4.58,1.63,6.87.34-2.35.69-4.7.94-7 l 1.12-.08 c -.34,3.37-.92,6.75-1.42,10.13.09,3.34.18,6.68.54,10 l -1.07.1 c -.31-3.33-.42-6.67-.54-10-.7-3.29-1.5-6.6-2.32-9.91Z" fill="param(main_colour)"/>
  </g>
  <g id="fixed-colours">
    <path d="M 330,273 s -14.15-2.48-21.8,3.73 C 313.64,270.73,323.17,269.52,330,273Z" opacity="0.2"/>
    <path d="M 292.54,288.54 c -7.37,1.34-12.83-1.17-19.33-5.83 C 277.62,288.88,286.14,292,292.54,288.54Z" opacity="0.4"/>
  </g>
<script type="text/ecmascript" xlink:href="param.min.js"/> 
</svg>
