<?xml version="1.0"?>
<svg xmlns="http://www.w3.org/2000/svg" xmlns:xlink="http://www.w3.org/1999/xlink" viewBox="0 0 600 600">
  <title>love-slogan-slender</title>
  <g id="main-colour">
    <path d="M 326.33,270.4 l .51-.06 a 3.87,3.87,0,0,0,.73,2.56,2.32,2.32,0,0,0,2.23.68 l 2.16-.27 c -.11-3.72.12-7.46-.25-11.19 l -1.69.19-.05-.41,5.42-.6,0,.41-1.62.18 c .28,3.72.19,7.45.31,11.16 l 1.66-.2v.41 l -9.28,1.15 C 326.39,273.08,326.35,271.74,326.33,270.4Z" fill="param(main_colour)"/>
    <path d="M 314.91,269.78 a 8.89,8.89,0,0,1,1.63-4.69,4.76,4.76,0,0,1,3.37-2.32,4.45,4.45,0,0,1,3.76,1.5,5.59,5.59,0,0,1,1.54,4.26,8.14,8.14,0,0,1-1.68,4.64,5.15,5.15,0,0,1-3.48,2.35,4.19,4.19,0,0,1-3.68-1.46 A 5.51,5.51,0,0,1,314.91,269.78Z m 2.34,1.9 a 4.06,4.06,0,0,0,.68,2.73,2.14,2.14,0,0,0,2.08.69,2.56,2.56,0,0,0,2-1.21,6,6,0,0,0,.69-2.88 c .05-1.45.15-2.91.16-4.36 a 4.11,4.11,0,0,0-.75-2.73,2.28,2.28,0,0,0-2.13-.72,2.41,2.41,0,0,0-1.94,1.19,6.54,6.54,0,0,0-.6,2.9 C 317.4,268.75,317.29,270.21,317.25,271.68Z" fill="param(main_colour)"/>
    <path d="M 304.58,265.26q0-.21,0-.43 l 3.62-.42q0,.21,0,.43 l -1.74.2 c 1.14,2.79,1.84,5.57,2.81,8.33.85-3,2.14-6,2.83-9 l -1.71.2q0-.21,0-.43 l 5.22-.61q0,.21,0,.42 l -1.36.16 c -.92,4.2-3.11,8.42-3.67,12.65 l -.48.06 C 308.2,273,307.56,269,306,265.1Z" fill="param(main_colour)"/>
    <path d="M 295.39,274.55 l .45-.06 a 5.86,5.86,0,0,0,1.08,2.57,2.36,2.36,0,0,0,2.23.58 l 2.11-.29 a 50.21,50.21,0,0,1-.45-5.75 l -.43.06 a 1.81,1.81,0,0,0-1.57,1,3.7,3.7,0,0,0-.26,1.77 l -.44.06 c -.13-1.73-.22-3.46-.33-5.19 l .46-.06 a 3,3,0,0,0,.49,1.56 c .28.42.82.57,1.64.47 l .43-.05 c -.06-1.81-.1-3.62-.22-5.44 l -1.94.23 a 3.45,3.45,0,0,0-2.06.81,4.11,4.11,0,0,0-.87,2.48 l -.46.06q-.09-1.68-.19-3.36 l 9.3-1.09 c 0,.14,0,.29,0,.43 l -1.66.19 c .26,3.87,0,7.73.56,11.59 l 1.56-.22.07.43-9,1.25 C 295.71,277.21,295.55,275.88,295.39,274.55Z" fill="param(main_colour)"/>
  </g>
  <g id="fixed-colours">
    <path d="M 292.16,285.22 c 7.84.9,14.21-.68,20.22-7.6 C 309.53,285.36,299.45,288.84,292.16,285.22Z" opacity="0.4"/>
    <path d="M 328.57,271.59 s -10.9-.76-16.2,4.54 C 316,271.13,323.12,269.47,328.57,271.59Z" opacity="0.2"/>
    <path d="M 316.61,269.16 a 8.63,8.63,0,0,0,8.33-2.12 A 20,20,0,0,1,316.61,269.16Z" opacity="0.2"/>
  </g>
<script type="text/ecmascript" xlink:href="param.min.js"/> 
</svg>
