<?xml version="1.0"?>
<svg xmlns="http://www.w3.org/2000/svg" xmlns:xlink="http://www.w3.org/1999/xlink" viewBox="0 0 600 600">
  <title>skull-design-top-curvy</title>
  <g id="main-colour">
    <path d="M 311.16,304.05 c -.5,0-.6-.48-1,.13,0,0-.32,3,.11,2.92 S 311.67,304.06,311.16,304.05Z" fill="param(main_colour)"/>
    <path d="M 312.48,304.67 c -1.09.06-1.32,2.55-.94,2.95 s .88.33,1.12-.76 S 313.14,304.64,312.48,304.67Z" fill="param(main_colour)"/>
    <path d="M 313.9,305.34 c -.47.08-.81,1.29-.78,2.25 s .64,1,1.1.85.58-1.43.62-2.25 S 314.61,305.23,313.9,305.34Z" fill="param(main_colour)"/>
    <path d="M 318.55,304.43 c -.46.07-1.33,2.63-.52,2.51 s 1-.82,1.2-1.58 S 319.12,304.35,318.55,304.43Z" fill="param(main_colour)"/>
    <path d="M 320,304.12 c -.6,2.42,1,.74,1.2.19 s .48-1.6.14-1.82 S 320.3,302.94,320,304.12Z" fill="param(main_colour)"/>
    <path d="M 332.22,288.46 c -.4-2.23.05-8.36-.57-12-.47-3.7-1.15-11-8.61-14.5-7.48-3.68-19.68-3.36-21.84.65-3.21,6.75.71,20.48,1.13,23.9.71,3.39-.73,5.14.26,7.74 s 1.9,2.92,3.31,2.63,4.24,1.59,4.51,3.27-1,3.8,1.73,3.31.58,2.29,2.67,1,3,.69,3.56-.47,3.57-1.81,3.77-4.06,2.75-5.51,5.77-4.46 S 332.74,290.67,332.22,288.46Z M 311,291.32 c -1.42,1-5.17.71-5.71-.65 a 22.82,22.82,0,0,1-.63-5.58 c 0-.82,0-2.2,1.31-2.58,1.9-.55,3.78-2,5.3-1.24 s 2.9,2.52,2.81,3.81 S 312.45,290.34,311,291.32Z m 9,3.52 c -.31,1.41-.94,3.13-1.93,3 s -.3-2.47-.41-3.65-.81-2.31-1.13-.53-.08,4.35-1.46,4.5 c -.8.09-1-2.5-.41-5.25 s 1.57-4.31,2.18-3.92,1-1.2,1.61-.19 S 320.37,293.43,320,294.84Z m 9.39-5.31 c -.85.94-4.4,1.79-5.95,1.19 s -1.38-2.42-2.33-3 a 2.53,2.53,0,0,1-1.39-1.89 c -.3-1.19,1.41-3,2.3-4.24 s 1.71-1.32,3.49-.44,3.6.72,3.85,2.19 S 330.29,288.6,329.42,289.53Z" fill="param(main_colour)"/>
  </g>
  <g id="fixed-colours">
    <path d="M 330.24,264.15 s -10.31,16.41-26,21.41 C 316.45,285.55,326.09,275.19,330.24,264.15Z" opacity="0.15"/>
    <path d="M 327.65,274.11 s -4.59,9-11.68,12.87 C 323.24,285.45,326.66,277.68,327.65,274.11Z" opacity="0.15"/>
  </g>
<script type="text/ecmascript" xlink:href="param.min.js"/> 
</svg>
