<?xml version="1.0"?>
<svg xmlns="http://www.w3.org/2000/svg" xmlns:xlink="http://www.w3.org/1999/xlink" viewBox="0 0 600 600">
  <title>girl-power-slogan-hourglass</title>
  <g id="main-colour">
    <path d="M 334.74,272.63 l -1.49.08 c -.47,1.26-1,2.52-1.46,3.78-.57,1.46-.16,2,.82,1.89 s 1.82-.63,2.45-2.08 c 1.59-3.67,3.14-7.34,4.39-11,.5-1.45-.06-2-1.21-1.95 a 2.5,2.5,0,0,0-2.46,2.07q-.34,1.1-.7,2.19 l -3.27.13q.3-1,.57-2 a 6.55,6.55,0,0,1,6.74-5.3 c 3.65-.08,5.06,1.72,3.8,4.94-1.34,3.5-3,7-4.61,10.51-1.51,3.23-3.91,5.2-6.82,5.42 s -3.75-1.55-2.59-4.85 c .78-2.18,1.54-4.36,2.24-6.54 l 4.73-.21Q335.32,271.17,334.74,272.63Z" fill="param(main_colour)"/>
    <path d="M 325.22,281.55 l -3,.22 c 2.06-6.94,4.32-13.9,5.18-20.82 l 3.7-.09 C 330,267.73,327.53,274.65,325.22,281.55Z" fill="param(main_colour)"/>
    <path d="M 311,282.65 a 8.17,8.17,0,0,0,.73-2.61q.26-1.64.52-3.28 c .35-2.22,1.1-3.87,2.85-4.65-1.36-.62-1.86-2-1.66-4.21q.08-.84.14-1.68 c .21-3.29,1.76-5,5.61-5.05 l 5.58-.15 c -.68,7-2.76,14-4.64,20.92 l -2.95.23 c .66-2.85,1.34-5.71,2-8.56 l -1.12.06 c -1.48.08-2.25.84-2.62,2.81q-.32,1.66-.65,3.32 a 8.7,8.7,0,0,1-.77,2.62Z m 8.08-18.47 c -1.27,0-1.87.73-2,2.24q-.12,1-.26,2.09 c -.24,1.7.42,2.2,1.67,2.14 l 1.31-.06 c .43-2.16.79-4.31,1-6.47Z" fill="param(main_colour)"/>
    <path d="M 309.4,282.78 l -7.67.62q.06-1.54.13-3.09 l 4.94-.36 c .63-6.13,1.25-12.3.8-18.45 l 3.68-.11 C 311.53,268.52,310.36,275.67,309.4,282.78Z" fill="param(main_colour)"/>
    <path d="M 331.82,284.83 l 2.64-.22 a 104.45,104.45,0,0,0-4.74,12.63 l -1.52.19 c .42-1.59.9-3.17,1.44-4.76 l -.76.08 c -1.61.18-2.08-.84-1.42-2.89q.27-.83.56-1.66 C 328.73,286.17,330,285,331.82,284.83Z m -.73,1.82 c -.56.05-1,.37-1.31,1.28q-.35,1-.69,1.91 c -.32.91-.13,1.17.4,1.11 l .78-.08 c .52-1.43,1.07-2.86,1.65-4.29Z" fill="param(main_colour)"/>
    <path d="M 325.32,294.83 c -.53,2-1.55,3.31-3,3.5 s -2.1-.88-1.72-2.94 c .43-2.23,1-4.47,1.56-6.71.56-2.07,1.87-3.33,3.61-3.48 s 2.27.94,1.57,3 C 326.57,290.41,325.89,292.62,325.32,294.83Z m .33-6.61 c .29-.92.06-1.23-.49-1.18 s -1,.43-1.28,1.35 c -.68,2.32-1.28,4.63-1.77,6.94-.19.92.05,1.23.54,1.17 s .86-.45,1.08-1.36 C 324.26,292.84,324.92,290.53,325.65,288.22Z" fill="param(main_colour)"/>
    <path d="M 315.29,299.12 l -1.95.26 a 105.59,105.59,0,0,1,.43-13 l 1.52-.14 c -.38,3.45-.68,6.88-.75,10.3 a 91.1,91.1,0,0,1,2.53-10.46 l 1.69-.15 c -.54,3.4-1,6.79-1.23,10.17 a 93.14,93.14,0,0,1,3-10.33 l 1.71-.15 a 85.53,85.53,0,0,0-3.89,13.06 l -2,.27 c 0-2.28.16-4.56.36-6.86 A 69.25,69.25,0,0,0,315.29,299.12Z" fill="param(main_colour)"/>
    <path d="M 310.91,288.53 l -2.92.28q.09-.95.19-1.9 l 4.74-.43 a 90.24,90.24,0,0,0-1.32,13.14 l -4,.54q0-.94-.06-1.89 l 2.57-.33 c 0-1.28.09-2.57.19-3.85 l -2.16.25q0-.94.1-1.89 l 2.21-.24 C 310.61,291,310.75,289.76,310.91,288.53Z" fill="param(main_colour)"/>
    <path d="M 302.29,300.9 a 6.27,6.27,0,0,0,0-1.64q-.1-1-.17-2.06 c -.1-1.39.12-2.44.89-3-.71-.36-1.07-1.22-1.08-2.6q0-.53,0-1.05 c 0-2.07.81-3.17,2.59-3.33 l 2.6-.24 a 89.73,89.73,0,0,0-.36,13.27 l -1.44.2 c -.14-1.8-.21-3.6-.21-5.41 l -.54.06 c -.7.08-1,.58-1,1.82q0,1,.13,2.09 a 6.56,6.56,0,0,1,0,1.65Z m 2.15-11.74 c -.6.06-.87.5-.89,1.46q0,.66,0,1.32 c 0,1.07.36,1.37.95,1.31 l .62-.07 c 0-1.36.08-2.73.15-4.1Z" fill="param(main_colour)"/>
  </g>
  <g id="fixed-colours">
    <path d="M 329.9,274.55 s -12-.83-17.83,5 C 316.07,274,323.9,272.21,329.9,274.55Z" opacity="0.2"/>
    <path d="M 316.73,271.88 a 9.5,9.5,0,0,0,9.17-2.33 C 323.73,270.71,319.23,272,316.73,271.88Z" opacity="0.2"/>
    <path d="M 275.9,284.25 c 10.5,12.13,21,14.63,34.13,11.25 C 298.38,302.39,282.36,297.84,275.9,284.25Z" opacity="0.4"/>
  </g>
<script type="text/ecmascript" xlink:href="param.min.js"/> 
</svg>
