<?xml version="1.0"?>
<svg xmlns="http://www.w3.org/2000/svg" xmlns:xlink="http://www.w3.org/1999/xlink" viewBox="0 0 600 600">
  <title>honey-slogan-curvy</title>
  <g id="main-colour">
    <path d="M 293.46,281.86q-.08-1.1-.15-2.2 l .92-.09 c -.24-3.66-.35-7.32-.56-11 l -1,.08-.14-2.2,4-.31q.07,1.1.11,2.19 l -1,.08 c .06,1.46.1,2.93.14,4.39 l 3.81-.33 c 0-1.46,0-2.92,0-4.38 l -1,.08 c 0-.73-.05-1.46-.1-2.19 l 3.94-.3 c .05.73.08,1.45.1,2.18 l -1,.08 c .08,3.64-.24,7.28.05,10.91 l .93-.09 c .06.73.14,1.45.26,2.18 l -3.71.36 c -.1-.73-.18-1.46-.24-2.19 l .92-.09 c -.12-1.46-.15-2.91-.16-4.37 l -3.74.34 c 0,1.46.11,2.93.22,4.39 l .92-.09 c .06.73.13,1.46.22,2.19Z" fill="param(main_colour)"/>
    <path d="M 306.11,280.64 c -.59-.53-1.16-1.06-1.71-1.6-.36-3.91.17-7.83.07-11.76.51-.62,1-1.24,1.47-1.86 l 4.66-.36q.86.81,1.67,1.61 c .12,3.89-.67,7.79-.41,11.67q-.69.93-1.3,1.87Z m .12-2.21,3.74-.35 c -.2-3.6.42-7.21.38-10.83 l -3.9.31 C 306.49,271.19,306,274.81,306.23,278.43Z" fill="param(main_colour)"/>
    <path d="M 313.93,279.89 c -.76-5,.76-10.06.16-15.1 l 1.92-.15 c 2,3.33,3.07,6.64,4.45,9.92.23-3.43.82-6.86.34-10.29 l 1.91-.14 c .72,5-.81,10-.31,15 l -1.89.17 c -2-3.27-3-6.57-4.4-9.89-.21,3.45-.79,6.89-.3,10.33Z" fill="param(main_colour)"/>
    <path d="M 324.29,278.93 c -.44-5,1-10,.32-14.94 l 7.61-.57 c .09.71.15,1.41.17,2.12 l -5.69.44 a 36.79,36.79,0,0,1-.13,4.26 l 3.83-.31 c 0,.71-.1,1.42-.16,2.12 l -3.86.32 c -.12,1.42-.24,2.84-.25,4.26 l 5.82-.5 c 0,.71,0,1.41,0,2.12Z" fill="param(main_colour)"/>
    <path d="M 333.14,263.35 l 1.91-.14 a 58.84,58.84,0,0,1,3,5.32 c 1-1.92,1.89-3.83,2.79-5.74 l 1.93-.14 c -1.28,2.54-2.47,5.08-3.83,7.64-.07,2.45-.16,4.91-.15,7.36 l -2,.17 c 0-2.45.1-4.91.2-7.37 A 66.9,66.9,0,0,0,333.14,263.35Z" fill="param(main_colour)"/>
  </g>
  <g id="fixed-colours">
    <path d="M 271.89,276.93 a 20,20,0,0,0,22.17,18.45,31.9,31.9,0,0,1-11.43-4.1 C 277.34,287.87,274.39,283.63,271.89,276.93Z" opacity="0.4"/>
    <path d="M 333.23,274.55 s -18.28-1.27-27.17,7.62 C 312.16,273.78,324.09,271,333.23,274.55Z" opacity="0.2"/>
    <path d="M 313.18,270.48 s 7.87,2.54,14-3.55 C 323.84,268.71,317,270.74,313.18,270.48Z" opacity="0.2"/>
  </g>
<script type="text/ecmascript" xlink:href="param.min.js"/> 
</svg>
