<?xml version="1.0"?>
<svg xmlns="http://www.w3.org/2000/svg" xmlns:xlink="http://www.w3.org/1999/xlink" viewBox="0 0 250 250">
  <title>denim-shorts-slender</title>
  <g id="skin-tone">
    <path d="M 129,158.23 c -8.87.69-17.67-1.54-22.31-3,3.79,12.17,8.25,26.57,9.11,32.41,1.25,8.5,4.63,25.68,5.44,27 h 0 a 7.13,7.13,0,0,0-.07.93,6.91,6.91,0,0,0,11.37,5.29 h 0 c .5-.31,2.5-1.43,4-6.31 s 7-31.5,8.88-49.37 c .46-4.38,1-8.67,1.46-12.75 A 37.39,37.39,0,0,1,129,158.23Z" fill="param(skin_tone)"/>
  </g>
  <g id="main-colour">
    <path d="M 129,158.23 a 41.34,41.34,0,0,0,18.85-6.4 C 149,140,149.78,129.32,149,125 H 101 s -2,4.52,1.38,16 c 1,3.6,1.61,8.34,3.33,13.88 C 110.34,156.36,120.17,158.92,129,158.23Z" fill="param(main_colour)"/>
  </g>
  <g id="fixed-colours">
    <path d="M 104.08,148.46 s 12.25,3.5,23.56,2.63,16.88-3.5,20.81-6.37 a 40.56,40.56,0,0,1-.44,6.88 A 37.12,37.12,0,0,1,127,158.4 a 57.52,57.52,0,0,1-21.44-3.69Z" fill="#fff" opacity="0.7"/>
    <g opacity="0.6">
      <polygon points="103.83 127.04 103.96 127.52 103.91 127.53 103.83 127.04" fill="#fff"/>
      <polygon points="104.34 128.9 104.59 129.81 104.34 129.87 104.16 128.94 104.34 128.9" fill="#fff"/>
      <polygon points="104.95 131.19 105.19 132.11 104.82 132.2 104.63 131.27 104.95 131.19" fill="#fff"/>
      <polygon points="105.54 133.49 105.78 134.42 105.34 134.52 105.13 133.59 105.54 133.49" fill="#fff"/>
      <polygon points="106.12 135.8 106.36 136.72 105.89 136.84 105.67 135.91 106.12 135.8" fill="#fff"/>
      <polygon points="106.7 138.11 106.93 139.03 106.47 139.15 106.23 138.22 106.7 138.11" fill="#fff"/>
      <polygon points="107.27 140.42 107.5 141.34 107.08 141.45 106.83 140.53 107.27 140.42" fill="#fff"/>
      <polygon points="107.83 142.73 108.05 143.66 107.73 143.74 107.46 142.83 107.83 142.73" fill="#fff"/>
      <polygon points="108.38 145.05 108.59 145.98 108.41 146.03 108.13 145.12 108.38 145.05" fill="#fff"/>
      <polygon points="108.91 147.41 109.02 147.9 108.86 147.43 108.91 147.41" fill="#fff"/>
    </g>
    <path d="M 102.83,126.93 a 84.56,84.56,0,0,0,1.75,12,57.79,57.79,0,0,0,2.83,8.79 s -1.79-7.25-2.21-9.25 S 102.83,126.93,102.83,126.93Z" opacity="0.5"/>
  </g>
  <g id="outline">
    <path d="M 149,125 s -.24,6.81-1.81,19.68 c -14.35,8.54-34.23,5.07-41.41,3.4-2.91-9.91-5.12-18.64-4.78-23.08-1.2.9-2,3.24-1.83,5.11 a 123.79,123.79,0,0,0,3.94,17.28 h 0 s -.06,4.93,2.1,8.27 l .53.17 c 3.76,11.64,7,21.73,9.19,32,2.33,11,5.42,28.75,5.42,28.75 a 2.47,2.47,0,0,0,1-2 s -1.86-13.91-4.23-26.75 c -1.48-8-5.19-19.78-8.69-31.19,20,6,32.38.65,37.58-2.65-2.58,18.93-7.73,62.89-13.35,66.8,3.33-.84,5.17-3.29,8.72-22,1.69-8.88,4.91-31.5,6.79-46.38.45-.37.68-.59.68-.59 a 66.8,66.8,0,0,0,.4-8.45 c .19-1.76.32-3.13.37-4 C 149.93,132.87,149.82,127.13,149,125Z m -42.67,29.36 a 19.35,19.35,0,0,1-1.37-4.79 s 25.71,7.71,42.87-3.58 a 31.31,31.31,0,0,1-.46,5.33 S 132.79,162.57,106.33,154.36Z"/>
  </g>
<script type="text/ecmascript" xlink:href="param.min.js"/> 
</svg>
