<?xml version="1.0"?>
<svg xmlns="http://www.w3.org/2000/svg" xmlns:xlink="http://www.w3.org/1999/xlink" viewBox="0 0 250 250">
  <title>denim-shorts-hourglass</title>
  <g id="skin-tone">
    <path d="M 105.08,158 c 8.95,20.72,13.39,32.11,16.38,39.08 s 4.61,19,5.15,19.53 h .11 c 0,.2,0,.4,0,.6 a 6.74,6.74,0,0,0,11.21,5.06 l .08.06 a 12.15,12.15,0,0,0,2.79-3.76 c 1.16-3.06,3.73-13.56,5.94-35,1-9.61,1.84-18.78,2.51-27 A 45,45,0,0,1,129.81,162 C 120.42,162.58,110.14,159.71,105.08,158Z" fill="param(skin_tone)"/>
  </g>
  <g id="main-colour">
    <path d="M 150.5,125 l -51,0 s -1,19.08,4.81,32.58 c 0,.07.74.4.77.47,5.07,1.67,15.35,4.55,24.73,3.95 a 49.53,49.53,0,0,0,20.5-6.08 c 1-12.79,1.33-22.58.53-28.8Z" fill="param(main_colour)"/>
  </g>
  <g id="fixed-colours">
    <path d="M 102.31,150.9 s 31.5,9.67,48.33-2.33 c .5,1.83-.33,7.33-.33,7.33 s -17.83,12.83-46.67,1.17Z" fill="#fff" opacity="0.7"/>
    <g opacity="0.6">
      <polygon points="102.47 127.4 102.58 127.88 102.53 127.89 102.47 127.4" fill="#fff"/>
      <polygon points="102.9 129.28 103.12 130.22 102.89 130.26 102.74 129.31 102.9 129.28" fill="#fff"/>
      <polygon points="103.43 131.62 103.63 132.56 103.29 132.63 103.13 131.68 103.43 131.62" fill="#fff"/>
      <polygon points="103.95 133.96 104.15 134.9 103.72 134.99 103.54 134.04 103.95 133.96" fill="#fff"/>
      <polygon points="104.45 136.31 104.66 137.24 104.2 137.34 104.01 136.4 104.45 136.31" fill="#fff"/>
      <rect x="104.58" y="138.69" width="0.49" height="0.96" transform="translate(-27.24 25.53) rotate(-12.3)" fill="#fff"/>
      <polygon points="105.47 140.99 105.67 141.93 105.23 142.03 105.01 141.09 105.47 140.99" fill="#fff"/>
      <polygon points="105.98 143.33 106.19 144.27 105.78 144.36 105.56 143.43 105.98 143.33" fill="#fff"/>
      <polygon points="106.49 145.67 106.69 146.61 106.39 146.69 106.15 145.76 106.49 145.67" fill="#fff"/>
      <polygon points="107 148.02 107.19 148.96 107.03 149 106.77 148.08 107 148.02" fill="#fff"/>
      <polygon points="107.5 150.41 107.6 150.9 107.45 150.42 107.5 150.41" fill="#fff"/>
    </g>
    <path d="M 106,150.59 c -.56-2.37-1.87-8.44-2.25-10.75,0,0,0-.07,0-.11-1.57-7.35-2.3-12.41-2.3-12.41 a 102.82,102.82,0,0,0,2.45,16 C 104.71,146.39,105.81,150.09,106,150.59Z" opacity="0.5"/>
  </g>
  <g id="outline">
    <path d="M 151.9,132.45 a 35.83,35.83,0,0,0-1.39-7.69 c .27,4.46.13,11.07-1,21.5 l -.13,2 c 0,.17,0,.33,0,.49-14.73,8.43-37.36,3.95-45.29,2 a 116.17,116.17,0,0,1-4.57-25.46v0 a 3.87,3.87,0,0,0-1.8,3 A 87.63,87.63,0,0,0,101.22,150 h 0 s -.06,4.93,2.1,8.27 l .65.23 c .15.43.3.87.46,1.3,6.45,17.35,11,28.67,14.52,36.4 a 133.13,133.13,0,0,1,7.22,22 c 2.17-2.09-2.09-14-6-24.33-1.38-3.63-6.66-16.21-12.4-31.88-.31-.85-.59-1.66-.88-2.48,22.47,7.27,36.41,1.38,41.76-1.83-.82,8.3-1.83,14.77-2.45,20.75-.86,8.24-2,23.69-3.28,29.23 s -1.53,11.78-4.92,14.76 c 6.37-2.25,8.87-29.26,9.78-39.21.76-8.28,2-17.59,3-26.91.29-.22.43-.35.43-.35 a 66.43,66.43,0,0,0,.4-8.5 h 0 c .19-2.4.36-4.78.47-7.12 C 152.14,137.34,152,134.74,151.9,132.45Z m -47.43,24.49 a 19.35,19.35,0,0,1-1.37-4.79 S 133,161.27,150.18,150 a 31.32,31.32,0,0,1-.46,5.33 S 133.47,167.19,104.47,156.94Z"/>
  </g>
<script type="text/ecmascript" xlink:href="param.min.js"/> 
</svg>
