<?xml version="1.0"?>
<svg xmlns="http://www.w3.org/2000/svg" xmlns:xlink="http://www.w3.org/1999/xlink" viewBox="0 0 600 600">
  <title>professionally-pink-scarf-hourglass</title>
  <g id="main-colour">
    <path d="M 285.82,220.94 a 41.63,41.63,0,0,1-7.87,2.31 c -3.81.63-8.94,1.81-6.94,6.63-4,2.5-2.94,6.5-1.12,8 s 10.89,7.19,34.83,6.94 a 9.17,9.17,0,0,0,2.5.94,62.65,62.65,0,0,0-8.94,16.44 c -4,10.5-5.31,23.44,2.56,40.19.63-11.69,6.19-17.25,9.63-19.5-4.06-8.31-5.37-15.75-3.81-23.5 a 74.76,74.76,0,0,1,4.13-13.62,9.15,9.15,0,0,0,5.75-1.5 c 3.38,4.13,9.31,10.38,11.44,19 a 56.5,56.5,0,0,1,1.5,16.25 s 5.69,1.63,8,10.13 c 2.88-8.75,2.63-15.5,1.44-23.87 s -9.31-17.5-20.08-23.62 c .33-.29.23-.71,1.08-1.12,3.9-1.89,7.14-4.63,7.3-5.81.19-1.44-.87-6.12-.75-7.44 s .5-3.06-1.62-4.62-6.37-.94-10.56-2.94 c 1.69,1.69,1.69,3.69.38,5.06,2.06,1.63,5.56,1.63,5.56,1.63 a 14.37,14.37,0,0,1-4.63,7 c -2.56-1.31-11,.08-12.58,4.46-9.25-.75-21.47-6.62-24.16-10.75,3.44-1,5.94-3.06,5.94-3.31 S 284.82,221.88,285.82,220.94Z" fill="param(main_colour)"/>
  </g>
  <g id="outline">
    <path d="M 335.72,255.93 c -5.34-7.95-14.14-12.94-16.09-14 l 0-.06 a 31.25,31.25,0,0,0,6.85-4.32 c 2.5-2.12,1.56-3.87,1-5.19 a 17,17,0,0,1-.63-4.19,3.49,3.49,0,0,0,.51-2.73 c -1-2.58-3.25-3.83-6.5-4.08 a 21.11,21.11,0,0,1-6.7-2 l -.22-.15-.67,1.13 s 1.92,1.38,1.63,3-3,4.25-3,4.25,3.29-1.33,4.21-3.92 a 2.86,2.86,0,0,0,0-2 c 1.75.85,4,.88,6.62,1.53,3,.75,3.58,2.5,3.08,4.25 s -3.17,4.75-3.67,8.42 c .44-1.78,2.55-4.2,4-6.41 a 15.82,15.82,0,0,0,.39,3.66 c .5,1.75.31,2.38-2.44,4.81 a 15.66,15.66,0,0,1-4.2,2.46,6.07,6.07,0,0,0-1.74-3.92,3.79,3.79,0,0,0,.14-.59,2.14,2.14,0,0,0-1.4-2.21 c 2.29-2.38,5.1-6.23,3.52-9.55,0,0,.25,4.09-4.93,9.06 a 14.26,14.26,0,0,0-6,.16 c -3.66.79-6.47,2.3-7,4.22 A 45.85,45.85,0,0,1,277,225.88 s 7.08,10.89,25.5,13.08 a 3.27,3.27,0,0,0,.23.62,3.54,3.54,0,0,0,.61.85,4.84,4.84,0,0,0-.21,3.39,1.88,1.88,0,0,0,.22.46 c -3.31-.08-20.24-.63-28.19-4.16-7.46-3.31-6.66-6-4.82-8.85,1.15,2,3.74,4.09,8.74,5.93-3.92-3.5-7.49-5.58-7.65-8.42 s 2.57-4,6.07-4.5 a 31.3,31.3,0,0,0,6.65-2,4,4,0,0,0-.23,1.64 c .17,2.67,3.58,5,5.25,5.54-3.08-2.17-4.21-6.08-2.12-7.92 a 2.92,2.92,0,0,1-1-1.46 l -.26.16v-.12 s -2.67,1-6.08,2-5.58.33-7.75,1.83 a 5.7,5.7,0,0,0-2.23,5.64 c -1.33,1.6-3.15,4.54-1.68,7.36,2.15,4.13,15.35,9,36.57,8.35 a 7.44,7.44,0,0,0,1.76.62,78.79,78.79,0,0,0-9.37,17.53 c -3.5,9.67-4.5,25.25,4.67,41.75-.67-11.25,5.83-19.75,10.08-21.92-5-9.83-5.5-14.58-4.58-21.83 a 67.82,67.82,0,0,1,4.35-15.27 l .91-.11 a 13.88,13.88,0,0,0,3.87-1.14 c 1.85,1.87,15,15.91,12.29,34.93 a 13.83,13.83,0,0,1,8.66,12 C 342.37,283,341.75,264.91,335.72,255.93Z M 305.51,263 c -1.42,10.67,4.08,19.5,4.08,19.5 a 24.06,24.06,0,0,0-9,17.25 c -3.75-10.08-5.67-19.33-3.5-30.58,2-10.48,9.31-21.61,10.3-23.08 a 17.29,17.29,0,0,0,2.62.14 A 59.93,59.93,0,0,0,305.51,263Z m 3.31-17.83 c -3.32,0-4.76-1.51-4.34-3.9 a 10.42,10.42,0,0,0,4.57,1 s -4.7-1-5-3.5,3.71-3.8,6.2-4.13,5.23-.6,6.45.86-1.59,4.72-1.59,4.72 a 9.9,9.9,0,0,0,2.47-2.54 c .62.75,1.64,2.33.91,3.93 C 317.45,243.83,312.5,245.25,308.83,245.21Z M 330.18,279 c .84-7.89.88-19.82-12.93-34.58 a 7,7,0,0,0,1.84-1.57 c 2.08,1.21,10.53,6.48,15.67,14.54,5.89,9.24,4.43,22.27,2.89,30.78 C 336.28,283.25,333.23,280.19,330.18,279Z"/>
  </g>
<script type="text/ecmascript" xlink:href="param.min.js"/> 
</svg>
