<?xml version="1.0"?>
<svg xmlns="http://www.w3.org/2000/svg" xmlns:xlink="http://www.w3.org/1999/xlink" viewBox="0 0 250 250">
  <title>curvy-bottoms-template</title>
  <g id="skin-tone">
    <path d="M 112.76,220.44 c .88,2.62,1.55,4.94,2,6.57.92,3.42,2.32,3.95,2.32,3.95 h 0 a 4.74,4.74,0,0,0,7.83-1.41 h 0 c 1.73-1.37,1.59-5.43,1-10.87 C 121.28,222,116.15,221.44,112.76,220.44Z" fill="param(skin_tone)"/>
  </g>
  <g id="main-colour">
    <path d="M 125.64,218.4 a 13.09,13.09,0,0,1-12.83,2 c -3-8-4.36-14.25-7.61-22.37-2.59-6.48-9.92-23-8.75-37.37 s 4.26-20.16,10.62-27.5 c 6.5-7.5,7.9-13.42,9.9-15.58 s 7-5.33,12.5-2.67,8,8.83,5.83,14-9.61,25.64-10.81,41.82-.53,23-.19,28.18Z" fill="param(main_colour)"/>
  </g>
  <g id="outline">
    <path d="M 137.06,125 h 0 A 12.07,12.07,0,0,0,125,112.94 c -4.14,0-8.78,2.24-10.3,5.87-2,4.83-4.16,8.07-9.12,14.58-1.33,1.75-10.24,10.5-10.38,29.25-.08,11.52,5.08,25.5,9.58,36.75,3.34,8.36,8.22,24.39,9,27.39 s 1.56,3.88,3.25,4.18 a 5.74,5.74,0,0,1-1.29-3.24,33.49,33.49,0,0,0-1.5-6 h 0 l .32.06.26,0,.3.05.6.08.26,0,.5,0,.28,0,.78,0 h 1.19 l .69-.06.24,0 c .29,0,.58-.08.87-.14 l .36-.07.62-.15.35-.1q.43-.13.87-.3 l .36-.15.59-.28.38-.2 c .28-.16.56-.32.83-.51 h 0 c .45,4.38.76,8.4,0,9.49,2-1.2,2.34-3.24,2.09-7 a 333.86,333.86,0,0,1-1.85-38.23 c .35-19,2.22-25.62,4.72-34.87,2.45-9,4.53-15.58,6-19.25 a 11.9,11.9,0,0,0,1.14-4,10.26,10.26,0,0,0,.08-1.21Z m -2.55,3.26 h 0 s -7.43,17.58-10.26,35.42-.5,43.5,0,49.67 c .12,1.5.29,3.13.46,4.76 h 0 a 11.55,11.55,0,0,1-1.11.68 l -.17.09 a 12.22,12.22,0,0,1-1.47.64 l -.13,0 a 13.64,13.64,0,0,1-8.21.15 h 0 c -2.26-6.49-4.46-15.57-7.83-23.32-4.32-9.92-9.82-26.34-7.67-41,1.83-12.5,9.83-21.46,11-23 a 76.55,76.55,0,0,0,4.67-7.49 c .88-1.59,2.39-4.67,2.42-4.71 h 0 a 10.05,10.05,0,0,1,18.34,8.06Z"/>
  </g>
<script type="text/ecmascript" xlink:href="param.min.js"/> 
</svg>
