<?xml version="1.0"?>
<svg xmlns="http://www.w3.org/2000/svg" xmlns:xlink="http://www.w3.org/1999/xlink" viewBox="0 0 250 250">
  <title>hourglass-bottoms-template</title>
  <g id="skin-tone">
    <path d="M 131.72,129.52 c 1.88-5.5.75-8.62-2.5-10.87 a 7.71,7.71,0,0,0-10.38,1.75 c -2.62,3.25-3,2.13-9.64,10 S 98.47,147.15,98.6,160 s 6.13,26.5,10,37.5 A 136.81,136.81,0,0,1,114,217 l .22.06-.11.12 c .28,2.48.42,4.94.56,7.16 a 17.43,17.43,0,0,0,.3,2.34 l .88-.07 a 4.74,4.74,0,0,0,9.41-.81 l .77-.06 c .06-2.16-1-6.15-1.92-9.8 l -.26-.15.16-.16 c -4.25-16.5-2.37-41.37-.75-51.75 S 129.85,135,131.72,129.52Z" fill="param(skin_tone)"/>
  </g>
  <g id="outline">
    <path d="M 123.32,216.8 c .25,1.17.49,2.26.72,3.23.37,1.39.77,2.95,1,4.55 a 5.59,5.59,0,0,1,.12.63,4.57,4.57,0,0,1-.33,2.4,3.71,3.71,0,0,0,2.13-2.72,5.85,5.85,0,0,0-.24-1.4 c -.69-3-3.64-12.16-4.08-23.23 A 184.65,184.65,0,0,1,131,136.07 c 1.24-4.08,1.91-6.69,2.28-8.35 a 8.7,8.7,0,0,0,.42-2.34,2.42,2.42,0,0,0,0-.4,8.74,8.74,0,0,0-16.68-3.65 c -.28.37-1.57,1.7-1.57,1.7 a 43.79,43.79,0,0,0-6.23,5.65 c -5.36,6.31-18.43,19.87-7.73,52.9,1.92,5.92,11.31,25.63,12.19,44.21 a 3.75,3.75,0,0,0,.47,1.42,3.22,3.22,0,0,0,2.39,1.31,5.55,5.55,0,0,1-.92-3.22 c -.08-1.23-.11-2.4-.24-4-.09-1-.22-2.12-.38-3.27 l -.25-1.63 a 72.58,72.58,0,0,0-2.71-11.19 c -2.72-8.19-6.66-18.38-9.38-27.84-2.88-10-6.13-23.92,2.38-39.25,1.62-2.91,6.13-8.46,10-12.29,0,0,3.58-3.68,4.53-4.85 h 0 a 6.73,6.73,0,0,1,12.08,5 c 0,.25-.12.56-.2.93,0,0,0,.09-.05.13 a 36.53,36.53,0,0,1-1.25,5 c -7.46,24.28-8.63,30.86-9.3,39.86-1,13-.81,23.44.38,33,.44,3.56,1.1,7.22,1.76,10.43Z"/>
  </g>
<script type="text/ecmascript" xlink:href="param.min.js"/> 
</svg>
