<?xml version="1.0"?>
<svg xmlns="http://www.w3.org/2000/svg" xmlns:xlink="http://www.w3.org/1999/xlink" viewBox="0 0 250 250">
  <title>three-quarter-jeans-voluptuous</title>
  <g id="skin-tone">
    <path d="M 125.75,222.83 c -.05-1.11-.18-4.57-.28-6.52 l -.05,0 c -.21-4.15-.45-8.89-.5-11.44-.08-4.17-.33-13.58-.08-23.67.07-2.64.3-5.7.65-8.86 a 44.61,44.61,0,0,1-21.59-.74 c -6.76-2-8.18-2.74-10.92-4.75.21,4.36,2.19,8.1,3.08,11.58,2.58,10.08,6.94,18.3,8.92,23.42,1.83,4.75,3.06,11.28,5.44,16.72.55,1.28,1.76,4.09,2.09,4.88 a 26.49,26.49,0,0,0,3.61,6.46 h 0 a 4.73,4.73,0,0,0,8.5-.5 h 0 C 125.18,228.85,125.92,226.5,125.75,222.83Z" fill="param(skin_tone)"/>
  </g>
  <g id="main-colour">
    <path d="M 137.92,120.92 c -1.58-4.42-5.92-8.83-11.58-9.33 s -8.83,2.5-11.92,5.08-7.58,7.75-10.17,10.42-6.64,6.22-10.52,14.1 c -2,4-1.84,9.74-2.35,14.8-.66-.57-1.48-1.37-2.08-2 a 17.69,17.69,0,0,0,.46,10.75 c .39.29-.3-.09.11.2,0,0,1.09.7,1.09.72 a 33.22,33.22,0,0,0,8.55,4.5 l .77.29 c .42.16.83.32,1.27.47 l 1,.32 c .44.14.87.29,1.33.43 a 42.12,42.12,0,0,0,12.93,1.71,49.72,49.72,0,0,0,9.64-1 c 1.43-4.59,1.27-6.18,1.27-6.18v-1.33 s -.45,0-1.26.06 a 125.23,125.23,0,0,1,3-15.13 c 1.67-5.42,4.92-12.25,7.33-17.67 S 138.5,123,137.92,120.92Z" fill="param(main_colour)"/>
  </g>
  <g id="fixed-colours">
    <path d="M 89.67,153.4 s 7,13.25,38.05,11.42 c .17,2.33-1.42,7.58-1.42,7.58 a 40.87,40.87,0,0,1-36.55-8.08 C 88.08,159.82,88.67,155.32,89.67,153.4Z" fill="#fff" opacity="0.7"/>
    <path d="M 96,157 a 46.85,46.85,0,0,1,2.27-11.22,52.18,52.18,0,0,1,4.63-10.65 c 2.33-4.17,6.38-8.25,7.78-11.62,0,0-5.63,6.72-8.41,11 A 46.07,46.07,0,0,0,97,146.34 C 96.1,149.83,95.32,154.16,96,157Z" opacity="0.5"/>
    <g opacity="0.6">
      <polygon points="111.45 124.4 110.89 125.22 110.87 125.21 111.45 124.4" fill="#fff"/>
      <polygon points="110.04 126.46 109.48 127.29 109.43 127.26 110 126.44 110.04 126.46" fill="#fff"/>
      <polygon points="108.65 128.54 108.09 129.37 108 129.31 108.57 128.49 108.65 128.54" fill="#fff"/>
      <polygon points="107.27 130.62 106.72 131.46 106.59 131.37 107.15 130.54 107.27 130.62" fill="#fff"/>
      <polygon points="105.91 132.72 105.38 133.57 105.21 133.46 105.76 132.62 105.91 132.72" fill="#fff"/>
      <polygon points="104.6 134.84 104.11 135.71 103.87 135.57 104.4 134.72 104.6 134.84" fill="#fff"/>
      <polygon points="103.42 137.04 102.99 137.94 102.65 137.77 103.12 136.88 103.42 137.04" fill="#fff"/>
      <polygon points="102.38 139.29 101.98 140.21 101.57 140.03 101.98 139.12 102.38 139.29" fill="#fff"/>
      <polygon points="101.42 141.59 101.07 142.52 100.63 142.36 100.99 141.42 101.42 141.59" fill="#fff"/>
      <polygon points="100.58 143.93 100.27 144.88 99.8 144.73 100.11 143.78 100.58 143.93" fill="#fff"/>
      <polygon points="99.83 146.31 99.57 147.26 99.13 147.15 99.38 146.18 99.83 146.31" fill="#fff"/>
      <polygon points="99.21 148.71 99 149.69 98.58 149.6 98.78 148.62 99.21 148.71" fill="#fff"/>
      <polygon points="98.69 151.15 98.52 152.13 98.2 152.08 98.34 151.09 98.69 151.15" fill="#fff"/>
      <polygon points="98.31 153.61 98.18 154.6 97.98 154.58 98.05 153.58 98.31 153.61" fill="#fff"/>
      <polygon points="98.03 156.09 97.96 157.08 97.95 157.08 97.94 156.08 98.03 156.09" fill="#fff"/>
    </g>
  </g>
  <g id="outline">
    <path d="M 139.5,125 a 14.48,14.48,0,0,0-26.2-8.53 c -1.22,1.23-8.35,6.8-12.88,12.74-5,6.55-8.42,12.39-9.64,22.81-.88.09-1.89.3-1.89.3 s -2.5,6.5.25,12.75 c .84.7,1.68,1.33,2.53,1.94 a 208.63,208.63,0,0,0,8.53,25.93 c 4.51,11.27,7.59,21.16,9.09,24.91 S 113.67,229,116.11,230 c -1.18-2.37-3.66-9.43-7-20.13-4.65-14.71-8.9-22-14.07-40.68 a 41.12,41.12,0,0,0,29.41,4.3 c -.51,5.53-.75,10.63-.75,14.38,0,11.13.38,25.63.75,30.13 s 1,10.21.22,11.51 c 2-1.51,2.16-8,1.66-13.63 s -.75-26.62-.12-39.37 c .06-1.19.15-2.37.25-3.54 l .31-.1 s 1.83-5.08,1.58-8.75 h 0 l -.62-1.21 a 109,109,0,0,1,4.61-18.15 c 2.5-6.87,6.87-13.89,7-17.26 h 0 A 14.41,14.41,0,0,0,139.5,125Z m -14.19,46.73 a 41.45,41.45,0,0,1-34.83-7.67 c -1.67-5.67-.42-8.33-.42-8.33,13.17,12.92,36.33,10.17,36.33,10.17 A 19.73,19.73,0,0,1,125.31,171.73Z m 12-44.28 h 0v0 a 12.34,12.34,0,0,1-.42,1.52 c -.21.7-.5,1.63-.88,2.69-.89,2.39-2.36,5.92-4.79,10.89-2.63,5.38-4.46,13.43-5.65,21.58-17.75.37-27.43-4.06-32.31-7.61.2-12.81,6.62-23.31,12.38-29.38,3.91-4.11,9.91-10.28,9.92-10.29 h 0 a 12.49,12.49,0,0,1,21.75,10.57Z"/>
  </g>
<script type="text/ecmascript" xlink:href="param.min.js"/> 
</svg>
