<?xml version="1.0"?>
<svg xmlns="http://www.w3.org/2000/svg" xmlns:xlink="http://www.w3.org/1999/xlink" viewBox="0 0 600 600">
  <title>skull-design-top-slender</title>
  <g id="main-colour">
    <path d="M 313.34,292.14 c -.36,0-.42-.38-.74.09,0,0-.27,2.27,0,2.23 S 313.71,292.15,313.34,292.14Z" fill="param(main_colour)"/>
    <path d="M 314.29,292.63 c -.79,0-1,1.93-.71,2.24 s .63.26.81-.57 S 314.76,292.61,314.29,292.63Z" fill="param(main_colour)"/>
    <path d="M 315.3,293.16 c -.34.05-.6,1-.59,1.71 s .45.77.79.66.43-1.08.47-1.71 S 315.82,293.08,315.3,293.16Z" fill="param(main_colour)"/>
    <path d="M 318.67,292.52 c -.33,0-1,2-.4,1.91 s .76-.61.88-1.19 S 319.08,292.47,318.67,292.52Z" fill="param(main_colour)"/>
    <path d="M 319.73,292.3 c -.46,1.84.74.58.87.16 s .37-1.22.12-1.39 S 320,291.4,319.73,292.3Z" fill="param(main_colour)"/>
    <path d="M 328.71,280.48 c -.26-1.71.13-6.39-.28-9.21 s -.71-8.4-6.05-11.19-13-1.26-15.12,1.73 c -3.28,4.6-.36,14.17-.1,16.79.47,2.6-.59,3.92.1,5.92 s 1.34,2.26,2.36,2.06,3,1.27,3.22,2.55-.73,2.89,1.21,2.56.39,1.75,1.91.83,2.14.57,2.57-.31,2.59-1.34,2.77-3.06,2-4.18,4.22-3.34 S 329.06,282.17,328.71,280.48Z m -15.34,1.93 c -1,.73-3.74.48-4.11-.57 a 18.46,18.46,0,0,1-.39-4.28 c 0-.62,0-1.68,1-2,1.37-.4,2.75-1.47,3.84-.88 a 3.73,3.73,0,0,1,2,2.95 C 315.62,278.65,314.43,281.67,313.37,282.4Z m 6.47,2.8 c -.24,1.08-.71,2.38-1.43,2.3 s -.19-1.89-.26-2.79-.56-1.78-.81-.42-.11,3.32-1.1,3.42 c -.58.06-.7-1.92-.24-4 s 1.18-3.27,1.62-3,.73-.9,1.17-.12 S 320.11,284.13,319.85,285.2Z m 6.83-3.94 a 5.33,5.33,0,0,1-4.31.84 c -1.11-.49-1-1.87-1.65-2.31 a 1.93,1.93,0,0,1-1-1.46 c -.2-.91,1-2.29,1.71-3.22 s 1.25-1,2.52-.29,2.59.6,2.76,1.72 S 327.32,280.56,326.68,281.26Z" fill="param(main_colour)"/>
  </g>
  <g id="fixed-colours">
    <path d="M 329.4,264.78 s -10.7,11.37-23.52,12.53 C 315.18,279.55,324.32,272.94,329.4,264.78Z" opacity="0.15"/>
    <path d="M 325.7,272.36 s -5,6.4-11.14,8.26 C 320.38,280.71,324.33,275.06,325.7,272.36Z" opacity="0.15"/>
  </g>
<script type="text/ecmascript" xlink:href="param.min.js"/> 
</svg>
