<?xml version="1.0"?>
<svg xmlns="http://www.w3.org/2000/svg" xmlns:xlink="http://www.w3.org/1999/xlink" viewBox="0 0 600 600">
  <title>love-slogan-slender</title>
  <g id="main-colour">
    <path d="M 320.54,268.09 l .51,0 a 4.16,4.16,0,0,0,.67,2.62,2.31,2.31,0,0,0,2.16.83 l 2.11-.13 c .07-3.74.33-7.48.34-11.22 l -1.71.08 c 0-.14,0-.28,0-.42 l 5.48-.25V260 l -1.63.08 c -.06,3.73-.25,7.46-.35,11.19 l 1.63-.1v.41 l -9.08.57 C 320.56,270.78,320.55,269.44,320.54,268.09Z" fill="param(main_colour)"/>
    <path d="M 309.24,266.71 a 7.93,7.93,0,0,1,1.65-4.6,4.67,4.67,0,0,1,3.53-2.08,4.42,4.42,0,0,1,3.65,1.74,6.08,6.08,0,0,1,1.4,4.37,7.81,7.81,0,0,1-1.71,4.55,4.79,4.79,0,0,1-3.51,2.12,4.25,4.25,0,0,1-3.58-1.7 A 6.11,6.11,0,0,1,309.24,266.71Z m 2.33,2.06 a 4.46,4.46,0,0,0,.63,2.79,2.16,2.16,0,0,0,2,.83,2.41,2.41,0,0,0,2-1.08,5.63,5.63,0,0,0,.72-2.85 c .06-1.46.14-2.91.19-4.37 a 4.44,4.44,0,0,0-.63-2.78,2.27,2.27,0,0,0-2.07-.86,2.42,2.42,0,0,0-2,1.06,5.8,5.8,0,0,0-.68,2.86 C 311.69,265.84,311.61,267.31,311.56,268.77Z" fill="param(main_colour)"/>
    <path d="M 299,261.49q0-.21,0-.43 l 3.59-.18q0,.21,0,.43 l -1.72.09 c 1,2.86,1.82,5.71,2.73,8.54.93-3,2.07-5.89,2.88-8.82 l -1.7.08q0-.21,0-.43 l 5.24-.26 c 0,.14,0,.28,0,.42 l -1.37.07 c -1.13,4.12-2.94,8.26-3.91,12.42 l -.48,0 c -1.55-4-2.42-8-3.87-12Z" fill="param(main_colour)"/>
    <path d="M 289.55,270.13 l .47,0 a 6.11,6.11,0,0,0,1,2.64,2.4,2.4,0,0,0,2.21.74 l 2.15-.14 c -.11-1.92-.14-3.85-.15-5.77 l -.44,0 a 1.75,1.75,0,0,0-1.62.85,3.68,3.68,0,0,0-.34,1.75 l -.45,0 c -.05-1.74-.09-3.47-.13-5.21 l .46,0 a 3.08,3.08,0,0,0,.44,1.59,1.66,1.66,0,0,0,1.63.58 l .44,0 c 0-1.82,0-3.64-.1-5.45 l -1.91.1 a 3.3,3.3,0,0,0-2.06.67,4.08,4.08,0,0,0-1,2.41 l -.46,0q0-1.68,0-3.36 l 9.18-.46q0,.21,0,.43 l -1.64.08 c .15,3.88,0,7.75.19,11.63 l 1.59-.11,0,.43-9.15.61Q289.69,272.14,289.55,270.13Z" fill="param(main_colour)"/>
  </g>
<script type="text/ecmascript" xlink:href="param.min.js"/> 
</svg>
