<?xml version="1.0"?>
<svg xmlns="http://www.w3.org/2000/svg" xmlns:xlink="http://www.w3.org/1999/xlink" viewBox="0 0 250 250">
  <title>curvy-bottoms-template</title>
  <g id="main-colour">
    <path d="M 159.08,132.92 c 0-3.43-.29-4.18-1.23-7.92 a 32.85,32.85,0,1,0-65.7,0 c -.76,3.78-.6,3.34,0,6.14,3.25,15.12,7.41,32.58,12.91,44.33 s 23.28,32.76,25.15,42.23 h 0 a 10.05,10.05,0,0,0,18.54-.22 h .74 s 2-4.1,3.78-16.51,4.61-27.58,5.32-39.33 S 159.16,143,159.08,132.92Z" fill="param(main_colour)"/>
  </g>
  <g id="outline">
    <path d="M 159.83,136 c 0-2.9-.08-5.25-.19-7.18 a 34.85,34.85,0,1,0-69.25.11,118.22,118.22,0,0,0,8.49,34.49 c 1.35,3.3,10.09,23.05,19.84,36.22,9.35,12.63,11.5,18.05,11.5,18.05 a 23.91,23.91,0,0,0-3.67-10.3 c -3.33-5.17-17.5-25.75-25.88-45.18 h 0 a 146.28,146.28,0,0,1-5.74-19.63 c -.48-2.15-1.11-5.66-1.65-9 l -.05-.18 c -.07-.47-.13-.94-.2-1.41-.46-3-.82-5.7-.88-7 h 0 a 32.84,32.84,0,0,1,65.68-.62 l 0,0 c .1,3.25.36,9.37.35,11.19.06,6,0,13.23-.35,21.13-1,21.67-6.42,49-7.35,53.91-1,5.24-4.17,10.43-6.22,11.89,8.1-2.47,8.95-11.8,13.37-41.8 C 160.13,163.79,159.86,151.35,159.83,136Z"/>
  </g>
<script type="text/ecmascript" xlink:href="param.min.js"/> 
</svg>
