<?xml version="1.0"?>
<svg xmlns="http://www.w3.org/2000/svg" xmlns:xlink="http://www.w3.org/1999/xlink" viewBox="0 0 250 250">
  <title>hourglass-bottoms-template</title>
  <g id="skin-tone">
    <path d="M 123.88,215.74 l .09-.09 c -4.25-16.5-2.37-41.37-.75-51.75.24-1.55.56-3.29.93-5.13 a 21.48,21.48,0,0,1-10,1 c -5.57-1-9-3.71-12.5-6.83 a 63.24,63.24,0,0,0-.83,10 c .13,12.88,3.92,23.63,7.79,34.63 A 136.81,136.81,0,0,1,114,217 h 0 c .26,2.38.54,5.29.66,7.33 a 17.43,17.43,0,0,0,.3,2.34 l .88-.07 a 4.74,4.74,0,0,0,9.41-.81 l .77-.06 C 126,223.72,124.78,219.3,123.88,215.74Z" fill="param(skin_tone)"/>
  </g>
  <g id="main-colour">
    <path d="M 124.16,158.77 c 2.12-10.49,6-24.57,7.57-29.25,1.88-5.5.75-8.62-2.5-10.87 a 7.71,7.71,0,0,0-10.38,1.75 c -2.62,3.25-2.07,4.5-8.71,12.33-5,5.89-7.09,11.83-8.5,20.17,3.47,3.12,6.93,5.87,12.5,6.83 A 21.48,21.48,0,0,0,124.16,158.77Z" fill="param(main_colour)"/>
  </g>
  <g id="outline">
    <path d="M 133.75,125 a 8.74,8.74,0,0,0-16.68-3.65 h 0 c -1.82,4.1-4.33,6.89-9,12.57 s -6.7,13.88-6.7,13.88 h 0 c -2.07,8.14-3.55,18.44,1.36,33.62,1.92,5.92,9.88,26.75,11,44.38 a 3.75,3.75,0,0,0,.47,1.42,3.22,3.22,0,0,0,2.39,1.31,5.55,5.55,0,0,1-.92-3.22 c -.08-1.23-.11-2.4-.24-4 a 96.19,96.19,0,0,0-3.34-16.09 c -2.29-8.13-5.53-18.47-8.25-27.93 A 49.9,49.9,0,0,1,102.27,155 c 8.84,7.4,17.08,6.28,20.1,5.51 a 87.64,87.64,0,0,0-1.5,11.37 c -1,13-.81,23.44.38,33,.68,5.46,1.87,11.19,2.77,15.11.37,1.39.77,2.95,1,4.55 a 5.59,5.59,0,0,1,.12.63,4.57,4.57,0,0,1-.33,2.4,3.71,3.71,0,0,0,2.13-2.72,5.85,5.85,0,0,0-.24-1.4,136.59,136.59,0,0,1-4.08-23.23 c -2.36-32.36,5.47-54.68,8.37-64.19,1.24-4.08,1.91-6.69,2.28-8.35 a 8.7,8.7,0,0,0,.42-2.34 A 2.42,2.42,0,0,0,133.75,125Z m -2.08,1 c 0,.25-.12.56-.2.93,0,0,0,.09-.05.13 a 36.53,36.53,0,0,1-1.25,5 c -3.83,12.47-6,20.27-7.3,26.12-8.27,2.79-16.12-2.08-20.2-5.39q.42-2.09,1-4.29 c 2.08-7.5,4.83-12.67,8.58-17 A 51.07,51.07,0,0,0,119.57,121 h 0 a 6.73,6.73,0,0,1,12.08,5Z"/>
  </g>
<script type="text/ecmascript" xlink:href="param.min.js"/> 
</svg>
