<?xml version="1.0"?>
<svg xmlns="http://www.w3.org/2000/svg" xmlns:xlink="http://www.w3.org/1999/xlink" viewBox="0 0 600 600">
  <title>honey-slogan-hourglass</title>
  <g id="main-colour">
    <path d="M 335.91,276.17q0-.92,0-1.84 l .86-.09 c 0-1.23,0-2.45,0-3.68 l -3.36.34 c 0,1.23-.09,2.46-.1,3.7 l .86-.09 c 0,.61,0,1.23,0,1.84 l -3.41.37 c 0-.62,0-1.23,0-1.85 l .85-.09 c 0-3.08.36-6.17.2-9.26 l -.83.08 c 0-.62-.09-1.24-.18-1.85 l 3.33-.31 c .07.62.12,1.23.15,1.85 l -.83.08 c .06,1.23.06,2.47,0,3.7 l 3.32-.33 c 0-1.23,0-2.46,0-3.68 l -.82.08 c 0-.61-.07-1.23-.12-1.84 l 3.37-.31q0,.92,0,1.84 l -.82.08 c .08,3.07,0,6.13.06,9.19 l .86-.09q0,.92,0,1.83Z" fill="param(main_colour)"/>
    <path d="M 323.71,277.5q-.74-.67-1.43-1.35 c -.1-3.36.55-6.74.36-10.11q.63-.82,1.18-1.63 l 4-.38 c .52.45,1,.91,1.49,1.36.23,3.35-.26,6.69-.25,10-.45.54-.89,1.09-1.31,1.63Z m 4-11.57-3.33.33 c .14,3.12-.39,6.23-.37,9.34 l 3.39-.36 C 327.36,272.13,327.82,269,327.66,265.92Z" fill="param(main_colour)"/>
    <path d="M 319.06,278 c -.39-3,.06-6,.2-9-1.55,3.15-3.43,6.31-4.31,9.49 l -1.63.19 c -.75-4.4.39-8.82-.07-13.24 l 1.69-.17 c .34,3-.11,6-.2,9.07,1.49-3.17,3.42-6.34,4.41-9.48 l 1.67-.16 c .6,4.38-.62,8.76-.1,13.13Z" fill="param(main_colour)"/>
    <path d="M 305.21,279.63 c -.12-.64-.21-1.27-.27-1.91 l 4.88-.56 a 32.49,32.49,0,0,1-.05-3.79 l -3.33.36 c 0-.63,0-1.27,0-1.9 l 3.37-.36 c .06-1.27.12-2.53.1-3.8 l -5.14.51 c 0-.64,0-1.27-.09-1.91 l 6.83-.67 c .43,4.43-.66,8.85.14,13.26Z" fill="param(main_colour)"/>
    <path d="M 300.65,273.41 a 47.66,47.66,0,0,0,.52,6.7 l -1.63.19 a 61.88,61.88,0,0,1-.53-6.72q-1.77-3.18-3.77-6.38 L 297,267q1.49,2.4,2.81,4.78 c .79-1.77,1.63-3.54,2.38-5.29 l 1.72-.17 C 302.89,268.7,301.7,271,300.65,273.41Z" fill="param(main_colour)"/>
  </g>
  <g id="fixed-colours">
    <path d="M 327.9,274.55 s -12-.83-17.83,5 C 314.07,274,321.9,272.21,327.9,274.55Z" opacity="0.2"/>
    <path d="M 314.73,271.88 a 9.5,9.5,0,0,0,9.17-2.33 C 321.73,270.71,317.23,272,314.73,271.88Z" opacity="0.2"/>
    <path d="M 276.22,285.38 A 26.12,26.12,0,0,0,291.39,294 a 32.68,32.68,0,0,0,12.5-.33 C 294.19,298.69,280.93,296.08,276.22,285.38Z" opacity="0.4"/>
  </g>
<script type="text/ecmascript" xlink:href="param.min.js"/> 
</svg>
