<?xml version="1.0"?>
<svg xmlns="http://www.w3.org/2000/svg" xmlns:xlink="http://www.w3.org/1999/xlink" viewBox="0 0 600 600">
  <title>girl-power-slogan-hourglass</title>
  <g id="main-colour">
    <path d="M 320.76,270.18 h -1.22q-.1,1.81-.21,3.61 c -.09,1.4.42,1.9,1.3,1.9 s 1.46-.51,1.53-1.9 c .18-3.51.33-7,.39-10.52,0-1.39-.52-1.93-1.39-1.95 s -1.4.5-1.4,1.9q0,1,0,2.1 l -2.55,0q0-1,0-1.91 c 0-3.15,1.21-4.9,4-4.84 s 4.14,1.87,4,5q-.16,5-.32,10.09 c -.08,3.1-1.58,4.89-4.35,4.92 s -4-1.76-3.79-4.91 c .15-2.08.29-4.16.37-6.24 l 3.77,0Q320.83,268.79,320.76,270.18Z" fill="param(main_colour)"/>
    <path d="M 314.59,278.34 l -2.78,0 c .56-6.61,1.26-13.23.59-19.8 l 2.81.06 C 315.77,265.17,315.12,271.76,314.59,278.34Z" fill="param(main_colour)"/>
    <path d="M 301.21,278.45 a 7,7,0,0,0,.47-2.45q.11-1.55.21-3.11 c .13-2.1.66-3.63,2.11-4.28-1.24-.66-1.78-2-1.78-4.09q0-.79,0-1.58 c -.06-3.1,1-4.59,3.91-4.53 l 4.24.09 c .72,6.59,0,13.23-.56,19.86 l -2.77,0 c .23-2.71.47-5.42.64-8.13 h -1 c -1.28,0-1.87.68-2,2.54q-.11,1.58-.24,3.15 a 7.35,7.35,0,0,1-.44,2.47Z m 5.21-17.18 c -1,0-1.4.6-1.37,2q0,1,0,2 c 0,1.6.6,2.12,1.65,2.13 h 1.1 c .07-2,.08-4.09,0-6.12Z" fill="param(main_colour)"/>
    <path d="M 299.72,278.47 l -7.25.06q0-1.46,0-2.91 l 4.6,0 c .25-5.79.48-11.58.17-17.35 l 2.81.06 C 300.62,265,300.11,271.74,299.72,278.47Z" fill="param(main_colour)"/>
    <path d="M 322.12,282 l 2.64,0q-.19,6.06-.38,12.13 l -1.71.06q0-2.29.06-4.57 l -.85,0 c -1.78.05-2.66-1-2.6-2.95q0-.79.05-1.59 C 319.41,283.1,320.34,282,322.12,282Z m -.07,1.74 c -.57,0-.89.29-.93,1.17q0,.91-.06,1.83 c 0,.87.28,1.14.85,1.13 l .85,0q.06-2.06.14-4.12Z" fill="param(main_colour)"/>
    <path d="M 318.47,291.35 c 0,2-.82,3.11-2.5,3.17 s -2.73-1-2.81-3 c -.08-2.14-.06-4.28,0-6.42.09-2,1.12-3.12,2.84-3.14 s 2.61,1.08,2.53,3 C 318.48,287.1,318.44,289.22,318.47,291.35Z m -1.68-6.45 c 0-.88-.3-1.2-.86-1.19 s -.93.35-1,1.23 c -.1,2.22-.13,4.43-.05,6.65,0,.88.4,1.2,1,1.18 s .88-.36.86-1.24 C 316.66,289.31,316.7,287.1,316.79,284.89Z" fill="param(main_colour)"/>
    <path d="M 307.83,294.66 l -2.27.08 a 76.13,76.13,0,0,1-1.28-12.48 l 1.49,0 a 82.26,82.26,0,0,0,.75,9.89,81.55,81.55,0,0,1,1-9.92 l 1.66,0 a 80.56,80.56,0,0,0,.67,9.77,81.8,81.8,0,0,1,1.1-9.8 l 1.69,0 a 74.14,74.14,0,0,0-1.21,12.4 l -2.35.08 a 58.75,58.75,0,0,1-.92-6.61 A 57.9,57.9,0,0,0,307.83,294.66Z" fill="param(main_colour)"/>
    <path d="M 301.64,284.09 l -2.9,0q0-.9.07-1.8 l 4.62-.07 a 80.44,80.44,0,0,0,.06,12.53 l -4.66.16q-.06-.9-.1-1.8 l 2.92-.09 c -.07-1.23-.11-2.45-.12-3.68 l -2.29.06q0-.9,0-1.8 l 2.29-.05 C 301.55,286.42,301.59,285.26,301.64,284.09Z" fill="param(main_colour)"/>
    <path d="M 292.48,295.17 a 4.42,4.42,0,0,0,.19-1.55q0-1,0-2 c 0-1.33.28-2.3,1.1-2.74-.72-.4-1.05-1.25-1-2.56q0-.5,0-1 c 0-2,.76-2.94,2.49-3 l 2.52,0 c -.16,4.21-.23,8.43,0,12.64 l -1.7.06 c -.06-1.72-.09-3.44-.1-5.16 h -.57 c -.74,0-1.07.46-1.07,1.64q0,1,0,2 a 4.63,4.63,0,0,1-.13,1.57Z m 2.77-11 c -.59,0-.85.41-.86,1.32q0,.63,0,1.25 c 0,1,.36,1.33,1,1.32 H 296q0-1.95.07-3.89Z" fill="param(main_colour)"/>
  </g>
<script type="text/ecmascript" xlink:href="param.min.js"/> 
</svg>
