<?xml version="1.0"?>
<svg xmlns="http://www.w3.org/2000/svg" xmlns:xlink="http://www.w3.org/1999/xlink" viewBox="0 0 600 600">
  <title>police-shoulder-patch-slender</title>
  <g id="outline">
    <path d="M 279.7,224.08 a 9.31,9.31,0,0,1,4.78,3.87,30.43,30.43,0,0,0-3.87,4.78 s -11.89-2.51-19.51-.18 c 1.68-6.28,5.79-8.19,5.79-8.19 A 32.59,32.59,0,0,1,279.7,224.08Z"/>
    <path d="M 329.35,225.15 c -1.89-1.44-5.7-2.67-11.46-1.12 a 10.17,10.17,0,0,0-1,.68,19,19,0,0,1,1.94,2.18 c .3,1.3.54,2.76.7,3.86,3-.54,8.94-.54,12.83,2.18 C 332.43,229,331.27,226.67,329.35,225.15Z"/>
  </g>
  <g id="misc-objects">
    <path d="M 272.2,227 a 9.17,9.17,0,0,1-5.1,2.07 c -2.7,0-.41-1.9.78-2.15-.88-.63-.72-1.19.31-1.43 A 4.44,4.44,0,0,1,272.2,227Z" fill="#fff"/>
    <path d="M 323.4,226.06 a 8.07,8.07,0,0,0,4.2,2.41 c 2.35.34.58-1.61-.42-2,.84-.44.77-.95-.1-1.28 A 3.9,3.9,0,0,0,323.4,226.06Z" fill="#fff"/>
  </g>
<script type="text/ecmascript" xlink:href="param.min.js"/> 
</svg>
