<?xml version="1.0"?>
<svg xmlns="http://www.w3.org/2000/svg" xmlns:xlink="http://www.w3.org/1999/xlink" viewBox="0 0 600 600">
  <title>honey-slogan-hourglass</title>
  <g id="main-colour">
    <path d="M 302.1,281.3q-.07-1-.13-1.94 l .81-.08 c -.21-3.22-.3-6.45-.48-9.68 l -.87.07-.12-1.94,3.49-.26q.06,1,.09,1.93 l -.87.07 c .05,1.29.09,2.58.12,3.87 l 3.36-.28 c 0-1.28,0-2.57,0-3.85 l -.87.07 c 0-.64,0-1.29-.09-1.93 l 3.46-.26 c 0,.64.07,1.28.08,1.92 l -.86.07 c .07,3.21-.22,6.41,0,9.61 l .81-.08 c 0,.64.12,1.28.23,1.92 l -3.27.31 c -.09-.64-.16-1.28-.21-1.93 l .81-.08 c -.1-1.28-.13-2.57-.13-3.85 l -3.3.29 c 0,1.29.09,2.58.19,3.86 l .81-.08 c 0,.64.11,1.29.19,1.93Z" fill="param(main_colour)"/>
    <path d="M 313.24,280.25 c -.52-.47-1-.94-1.5-1.41-.31-3.45.17-6.9.08-10.35.45-.55.88-1.09,1.3-1.64 l 4.11-.31q.76.71,1.47,1.42 c .1,3.43-.61,6.86-.38,10.28q-.61.82-1.14,1.64Z m .1-1.94,3.29-.3 c -.18-3.17.39-6.35.35-9.54 l -3.44.26 C 313.59,271.93,313.13,275.12,313.34,278.31Z" fill="param(main_colour)"/>
    <path d="M 320.12,279.61 c -.67-4.42.69-8.86.16-13.3 l 1.69-.13 c 1.79,2.93,2.69,5.85,3.91,8.75.21-3,.74-6,.31-9.06 l 1.68-.12 c .64,4.39-.74,8.8-.29,13.18 l -1.67.15 c -1.74-2.89-2.64-5.79-3.86-8.72-.19,3-.71,6.07-.28,9.1Z" fill="param(main_colour)"/>
    <path d="M 329.25,278.78 c -.39-4.38.94-8.77.3-13.16 l 6.7-.49 c .08.62.13,1.24.15,1.87 l -5,.38 a 32,32,0,0,1-.12,3.75 l 3.38-.27 c 0,.62-.09,1.25-.14,1.87 l -3.4.27 c -.11,1.25-.21,2.5-.23,3.75 l 5.12-.43 c 0,.62,0,1.24,0,1.86Z" fill="param(main_colour)"/>
    <path d="M 337.06,265.08 l 1.68-.12 a 51.14,51.14,0,0,1,2.6,4.69 c .88-1.69,1.67-3.37,2.47-5 l 1.7-.12 c -1.14,2.23-2.19,4.47-3.38,6.72-.07,2.16-.15,4.32-.14,6.48 l -1.72.15 c 0-2.16.09-4.33.19-6.49 A 58.12,58.12,0,0,0,337.06,265.08Z" fill="param(main_colour)"/>
  </g>
  <g id="fixed-colours">
    <path d="M 329.9,274.55 s -12-.83-17.83,5 C 316.07,274,323.9,272.21,329.9,274.55Z" opacity="0.2"/>
    <path d="M 316.73,271.88 a 9.5,9.5,0,0,0,9.17-2.33 C 323.73,270.71,319.23,272,316.73,271.88Z" opacity="0.2"/>
    <path d="M 275.9,284.25 c 10.5,12.13,21,14.63,34.13,11.25 C 298.38,302.39,282.36,297.84,275.9,284.25Z" opacity="0.4"/>
  </g>
<script type="text/ecmascript" xlink:href="param.min.js"/> 
</svg>
