<?xml version="1.0"?>
<svg xmlns="http://www.w3.org/2000/svg" xmlns:xlink="http://www.w3.org/1999/xlink" viewBox="0 0 600 600">
  <title>professionally-pink-scarf-curvy</title>
  <g id="main-colour">
    <path d="M 279.45,217.5 s -5.62,2.19-8.44,4.75-2.44,4.63-1,6.63 c -2.25,1.5-3.19,4.81,1,8.25 S 280,244,300.36,250 c -.42,2,2.75,3.17,2.75,3.17 s 1.1,5.47-4.25,12.33 c -8,10.25-10.72,15.33-13.64,26.33 s -1.08,23.17,5.33,27.83 c 1.42-8.5,6.83-13.42,9.67-14.67-2.61-8.17-2-16,.14-24.25,2.33-9,8.75-18.08,7-27.17 a 8.12,8.12,0,0,0,3.67-.25 s 1.67,7.42,3.25,10.92,6.67,12.58,6.5,21.75 c -.17,3.92-2.67,8.33-2.67,8.33 a 25.43,25.43,0,0,1,6.67,17 c 6.17-7.75,9-19.46,6.08-29.58-3.92-13.42-13.42-20.25-15.92-30 a 2.66,2.66,0,0,0,.92-2.08 s 10-5.17,13.78-14 c 2.48-5.81,1.42-9.42-1.92-10.17-.17-3.75-8.08-6.42-8.08-6.42 s 4.58,3.92.42,8.67 c 1.17,3.83.55,11.67-4.36,16.83-2.5-2.33-11.42-2-14.08-.25-4.12-.92-12.5-5.83-18.92-10.75 s -9.47-10-1.89-14.17 A 3.46,3.46,0,0,1,279.45,217.5Z" fill="param(main_colour)"/>
  </g>
  <g id="outline">
    <path d="M 322.14,263.75 c -4.34-5.42-6.22-10-6.72-12 a 3.16,3.16,0,0,0,1.15-1.9 c 2.61-1.09,7.7-3.84,12.82-12.05,2.72-4.37,2.88-9,1.75-10.87 a 4.61,4.61,0,0,0-2.65-1.93,3.7,3.7,0,0,0-.35-.82 c -2.37-4-8.25-5.62-8.25-5.62 a 4.11,4.11,0,0,1-.33.65 c -.13.15-.45.51-1,1.1,1.69.75,3.56,2.75,2.25,5.38 s -5.81,5.63-5.81,5.63 a 13.82,13.82,0,0,0,4.9-2.71 c .37,1.68,1.09,7.59-4.11,15.35-1-1.35-3.37-1.87-8.32-1.54 a 17.87,17.87,0,0,0-6.49,1.4,138.57,138.57,0,0,1-13.19-7.45,47.86,47.86,0,0,1-8.7-6.88,28,28,0,0,0,8.23,3.08 s -7.62-2.12-9.44-6.31 c -1.5-3.46,1.77-5.29,3-5.83 a 26.5,26.5,0,0,0,8.16,4.14 c -4.12-2.19-8.31-4.81-8.75-7.81 s 3.06-4.19,5.13-4.37 a 17.33,17.33,0,0,1-.62,3.94 l 1.69.44 a 25.18,25.18,0,0,0,.88-6.44 c -4.37,0-8.12,1.44-8.81,5.13 a 4.05,4.05,0,0,0,.1,1.91 c -1.91.69-9.25,3.57-10.66,7.59 a 3.84,3.84,0,0,0,.91,3.41 c -1.07.52-2.62,1.9-1.41,5.46,1.59,4.66,13.32,11.69,32.34,16.59,0,.18,0,.35,0,.55.09,1.08,1.11,1.87,2.6,2.38-.13,1.89-1,8.46-7.23,16.35-6.68,8.49-9.6,15-11.47,25.88 s 1.13,20.63,7,25.38 c 1.75-8.37,7.75-14.75,10.5-15.62-3.37-9-1.9-19.37.85-27.25,2.36-6.75,7.12-17.7,6.07-24,.55,0,1.1-.06,1.63-.13.38,0,.74-.11,1.09-.17.07,1.32.58,5.8,4.11,13,4.25,8.63,7.5,21.38,2.13,27.63,6.5,6.38,7.25,18.63,7.25,18.63 s 8.5-8.62,8.63-21.25 S 327.14,270,322.14,263.75Z m -1.31-36.19 a 9.52,9.52,0,0,0,1.25-1.75,4.36,4.36,0,0,0-.72-5.34 c 2.58,1.26,5.75,3.53,6,6,.38,3.25-2.75,10.5-2.75,10.5 s 4.11-6.23,4-10.61 c 2,1.08,2.74,4.6,0,10.11 a 30.61,30.61,0,0,1-12.09,12.4,5,5,0,0,0-.83-2.23,2.26,2.26,0,0,0,.46-1.86 C 317.64,243.05,322.62,236.26,320.83,227.57Z m -50.71,2.29 c 3.59,3.68,10,7.15,10,7.15 s -8.5-6.37-10-9.75,3.57-6.36,9.06-8.6 c .11.17.24.33.37.49 a 5.66,5.66,0,0,0-3.81,6.17 c 0,.08,0,.16.05.24 a 19.78,19.78,0,0,1-1.18-1.93 s -2.3,7.84,25.34,20.8 a 2.11,2.11,0,0,0-.6,1,2.13,2.13,0,0,0,.83,2.32,5.45,5.45,0,0,0-.37,1.21 c -7.51-2.08-20.16-6-26-10.46 C 266.88,233.15,268.7,230.85,270.12,229.85Z m 33.74,39.52 c -5,11.63-8.22,22-4.6,35.38-5.37,3.38-8.62,9.25-8.87,14-3.37-3-7.12-11.25-5.62-21.25 s 5.42-19.88,11.35-26.75 A 35.32,35.32,0,0,0,304,253.7 a 17.59,17.59,0,0,0,2.6.27 C 306.81,255.78,307.18,261.65,303.86,269.38Z m 1.83-16.72 c -3.88-.41-5.3-1-4.55-4.35 a 14.07,14.07,0,0,0,3.83,1 c -6.58-2.24-3.3-4.47.12-5.26 s 7.5-.61,9.33.47-.08,2.84-2.58,4.71 a 9.49,9.49,0,0,0,3.21-1.85,3.41,3.41,0,0,1-.24,3.19 C 313.67,252.26,309.75,253.1,305.69,252.66Z m 19.57,56.84 a 29.94,29.94,0,0,0-6.5-15.37 c 4.38-6.5,2.38-14,.5-19.75 s -4.5-10.5-6-14.5 a 31.05,31.05,0,0,1-1.65-6.39,10.54,10.54,0,0,0,2.93-1.15 c .44,1.66,1.87,5.84,6,11.66,5.38,7.63,11.13,16.5,10.63,27.88 S 325.26,309.5,325.26,309.5Z"/>
  </g>
<script type="text/ecmascript" xlink:href="param.min.js"/> 
</svg>
