<?xml version="1.0"?>
<svg xmlns="http://www.w3.org/2000/svg" xmlns:xlink="http://www.w3.org/1999/xlink" viewBox="0 0 600 600">
  <title>skull-design-top-hourglass</title>
  <g id="main-colour">
    <path d="M 305.11,302.46 c -.49,0-.66-.49-1,0,0,0,.16,2.74.59,2.72 S 305.6,302.5,305.11,302.46Z" fill="param(main_colour)"/>
    <path d="M 306.51,303.13 c -1.08,0-.88,2.26-.42,2.67 s .93.38,1-.62 S 307.15,303.15,306.51,303.13Z" fill="param(main_colour)"/>
    <path d="M 308,303.87 c -.45,0-.59,1.14-.37,2 a 1,1,0,0,0,1.26.88 c .43-.1.29-1.29.19-2.05 S 308.7,303.82,308,303.87Z" fill="param(main_colour)"/>
    <path d="M 312.46,303.39 c -.46,0-.87,2.34-.08,2.3 s .88-.68.9-1.38 S 313,303.36,312.46,303.39Z" fill="param(main_colour)"/>
    <path d="M 313.86,303.21 c -.2,2.21,1.14.78,1.22.27 s .23-1.46-.13-1.68 S 314,302.14,313.86,303.21Z" fill="param(main_colour)"/>
    <path d="M 324.7,289.65 c -.42-2.08.39-7.67.39-11.09 s -.48-11.78-6.4-15.51-16.21-2.65-19.64.94 c -5.61,6.07-3.9,18.68-3.38,21.81 s -.88,4.6.16,7,2,2.8,3.36,2.64,4.24,1.76,4.69,3.33 S 303.4,302.2,306,302 s .91,2.16,2.78,1.17,3,.88,3.44-.16,3.24-1.4,3.18-3.48,2.25-4.88,5.28-3.69 S 325.12,291.72,324.7,289.65Z M 304,290.77 c -1.38.79-5,.28-5.56-1 a 15.7,15.7,0,0,1-.4-5.1 c .08-.74.21-2,1.48-2.24,1.89-.37,3.86-1.55,5.26-.78 s 2.57,2.48,2.41,3.65 S 305.39,290,304,290.77Z m 8.91,3.86 c -.23,1.28-.71,2.81-1.69,2.65 s -.48-2.29-.63-3.38-.86-2.18-1.12-.56.17,4-1.16,4 c -.78,0-1.21-2.37-.69-4.84 s 1.54-3.82,2.11-3.43,1-1,1.57-.06 S 313.16,293.36,312.92,294.64Z m 9-4.2 c -.83.8-4.29,1.33-5.8.67 s -1.34-2.31-2.24-2.89 a 2.38,2.38,0,0,1-1.28-1.82 c -.23-1.1,1.55-2.65,2.54-3.72 s 1.79-1.09,3.42-.17,3.42.9,3.55,2.26 S 322.8,289.64,322,290.44Z" fill="param(main_colour)"/>
  </g>
  <g id="fixed-colours">
    <path d="M 321.67,268.1 s -9.93,14.46-24.29,18.4 C 308.4,286.94,317.51,277.93,321.67,268.1Z" opacity="0.15"/>
    <path d="M 319,277 s -4.48,7.94-11,11.21 C 314.55,287.1,317.93,280.2,319,277Z" opacity="0.15"/>
  </g>
<script type="text/ecmascript" xlink:href="param.min.js"/> 
</svg>
