<?xml version="1.0"?>
<svg xmlns="http://www.w3.org/2000/svg" xmlns:xlink="http://www.w3.org/1999/xlink" viewBox="0 0 250 250">
  <title>ripped-skinny-jeans-voluptuous</title>
  <g id="skin-tone">
    <rect x="116.47" y="139.57" width="29" height="45.67" fill="param(skin_tone)"/>
    <circle cx="135.31" cy="212.4" r="8.83" fill="param(skin_tone)"/>
  </g>
  <g id="main-colour">
    <path d="M 86.56,125 a 79.24,79.24,0,0,0,5.15,28 c 8,21,17.18,38.07,28.43,52.9,1.92,3.08,4.67,6.67,6.92,12 h 0 a 12.48,12.48,0,0,0,15,4.14 c 8.58-2.42,8.82-9.38,11.65-18.2 s 6-29.67,7.82-46.17 a 290.86,290.86,0,0,0,1.9-32.67Z M 121,182.77 a 3.6,3.6,0,0,0,1.4.7,12.75,12.75,0,0,1-3.5-.4 c 1,.1,1.4.1,1.4.1 a 11.93,11.93,0,0,1-2.4-1.3,8.43,8.43,0,0,0,2.7.3,13.25,13.25,0,0,1-2.4-.8,5.56,5.56,0,0,0,2.7.1 l -1.1-1.1 a 16.23,16.23,0,0,0,4.2,1.1,2.86,2.86,0,0,1-1.5.5,9.54,9.54,0,0,0,2.5.3 C 124.07,183.07,122.57,182.87,121,182.77Z m 1.84-27.9 a 14.41,14.41,0,0,0,4-.66 l -2.64-1.32 s 5.51-.22,7.05-1.1 a 34.29,34.29,0,0,1-7.71-.88 s 10.14-.22,15.87-2.64 c -1.32,1.54-5.29,3.75-5.29,3.75 s 2.86-.44,3.75-.66 a 16,16,0,0,1-7.93,2.2,16,16,0,0,0,3.75.66 A 39.34,39.34,0,0,1,122.82,154.87Z m 12.1,63.21 c 1.71.85,2.91,1.37,2.91,1.37 s -5.3.51-7.35-1.71 a 14.76,14.76,0,0,0,2.56.34 s -4.27-1.54-5-2.91 a 24,24,0,0,0,8,1.71,48.76,48.76,0,0,1-6.15-2.22,11.54,11.54,0,0,0,4.84.23 l -2.11-1.42,2.56.34 s -2.05-1.25-4.1-2.68 c 0,0,7.35,3.87,11.28,1 a 5.19,5.19,0,0,1-2.91,2.39,8.86,8.86,0,0,0,2.22,0,5.84,5.84,0,0,1-4.79,1.37,8.48,8.48,0,0,0,5.64.8 C 140.22,218.71,138.4,218.59,134.92,218.08Z m 2.88-75.33 a 39,39,0,0,1,4.41.66 s -4.41,1.1-5.07,1.32 a 38.24,38.24,0,0,0,4,.22,33.59,33.59,0,0,1-7.05,1.76,21.82,21.82,0,0,0,4,0,46,46,0,0,1-11.68,2.2,5.39,5.39,0,0,0,3.08-1.54,30.5,30.5,0,0,1-9.48.88,37.61,37.61,0,0,0,8.37-2 l -4.63.22,2.42-.88 a 39.82,39.82,0,0,0-6.83.88 c .14-.63.88-1.76,4-2.64,13.57-3.88,20.71-2,20.71-2 A 41.33,41.33,0,0,0,137.8,142.75Z" fill="param(main_colour)"/>
  </g>
  <g id="fixed-colours">
    <path d="M 89.47,127.86 s 3.21,20.38,12.17,39.2 a 155.33,155.33,0,0,0,14.21,24.58 c 3.93,5.76,10.5,16.38,12,23.13-2.32-6.31-9.12-17.55-12.12-21.75-2.26-3.16-13.33-19.66-19.36-36.49 S 89.47,127.86,89.47,127.86Z" opacity="0.5"/>
    <g opacity="0.6">
      <polygon points="90.6 128.08 90.71 128.57 90.7 128.57 90.6 128.08" fill="#fff"/>
      <polygon points="91.05 130.03 91.28 131 91.22 131.01 91.01 130.04 91.05 130.03" fill="#fff"/>
      <polygon points="91.64 132.46 91.88 133.43 91.77 133.46 91.55 132.48 91.64 132.46" fill="#fff"/>
      <polygon points="92.25 134.88 92.51 135.85 92.34 135.89 92.11 134.92 92.25 134.88" fill="#fff"/>
      <polygon points="92.89 137.3 93.15 138.27 92.94 138.32 92.7 137.35 92.89 137.3" fill="#fff"/>
      <polygon points="93.55 139.71 93.81 140.68 93.56 140.75 93.3 139.78 93.55 139.71" fill="#fff"/>
      <polygon points="94.21 142.12 94.48 143.09 94.21 143.16 93.95 142.19 94.21 142.12" fill="#fff"/>
      <polygon points="94.89 144.53 95.17 145.49 94.89 145.57 94.62 144.61 94.89 144.53" fill="#fff"/>
      <polygon points="95.6 146.93 95.89 147.88 95.6 147.97 95.31 147.01 95.6 146.93" fill="#fff"/>
      <polygon points="96.34 149.31 96.64 150.27 96.33 150.37 96.03 149.41 96.34 149.31" fill="#fff"/>
      <rect x="96.93" y="151.72" width="0.34" height="1" transform="translate(-43.05 38.39) rotate(-18.38)" fill="#fff"/>
      <rect x="97.72" y="154.09" width="0.36" height="1" transform="matrix(0.94, -0.33, 0.33, 0.94, -45.46, 40.88)" fill="#fff"/>
      <rect x="98.54" y="156.45" width="0.38" height="1" transform="translate(-48.15 43.78) rotate(-20.21)" fill="#fff"/>
      <rect x="99.41" y="158.79" width="0.4" height="1" transform="translate(-51.14 47.18) rotate(-21.34)" fill="#fff"/>
      <polygon points="100.54 161.08 100.93 162 100.54 162.16 100.16 161.23 100.54 161.08" fill="#fff"/>
      <polygon points="101.52 163.37 101.93 164.28 101.53 164.46 101.13 163.55 101.52 163.37" fill="#fff"/>
      <polygon points="102.56 165.64 102.99 166.55 102.58 166.74 102.16 165.83 102.56 165.64" fill="#fff"/>
      <polygon points="103.63 167.9 104.07 168.8 103.64 169.01 103.21 168.1 103.63 167.9" fill="#fff"/>
      <polygon points="104.73 170.15 105.17 171.04 104.73 171.26 104.29 170.36 104.73 170.15" fill="#fff"/>
      <rect x="105.6" y="172.44" width="0.49" height="1" transform="translate(-66.49 66.11) rotate(-26.74)" fill="#fff"/>
      <rect x="106.76" y="174.67" width="0.48" height="1" transform="translate(-68.79 69.2) rotate(-27.5)" fill="#fff"/>
      <rect x="107.95" y="176.87" width="0.46" height="1" transform="translate(-71.19 72.54) rotate(-28.32)" fill="#fff"/>
      <rect x="109.17" y="179.06" width="0.44" height="1" transform="translate(-73.69 76.17) rotate(-29.2)" fill="#fff"/>
      <rect x="110.43" y="181.23" width="0.42" height="1" transform="translate(-76.31 80.15) rotate(-30.15)" fill="#fff"/>
      <rect x="111.72" y="183.38" width="0.4" height="1" transform="translate(-78.99 84.43) rotate(-31.16)" fill="#fff"/>
      <rect x="113.05" y="185.5" width="0.39" height="1" transform="translate(-81.74 89.04) rotate(-32.23)" fill="#fff"/>
      <rect x="114.42" y="187.6" width="0.37" height="1" transform="translate(-84.48 93.85) rotate(-33.31)" fill="#fff"/>
      <rect x="115.83" y="189.68" width="0.35" height="1" transform="translate(-87.02 98.5) rotate(-34.31)" fill="#fff"/>
      <polygon points="117.29 191.72 117.86 192.55 117.59 192.73 117.01 191.92 117.29 191.72" fill="#fff"/>
      <polygon points="118.69 193.8 119.23 194.65 118.97 194.81 118.43 193.97 118.69 193.8" fill="#fff"/>
      <rect x="120" y="195.93" width="0.3" height="1" transform="translate(-84.07 90.06) rotate(-31.03)" fill="#fff"/>
      <rect x="121.29" y="198.08" width="0.28" height="1" transform="translate(-82.86 87.01) rotate(-29.91)" fill="#fff"/>
      <rect x="122.53" y="200.26" width="0.26" height="1" transform="translate(-81.74 84.27) rotate(-28.9)" fill="#fff"/>
      <polygon points="123.74 202.46 124.2 203.34 123.99 203.45 123.52 202.57 123.74 202.46" fill="#fff"/>
      <polygon points="124.88 204.68 125.32 205.58 125.16 205.66 124.7 204.78 124.88 204.68" fill="#fff"/>
      <polygon points="125.97 206.94 126.39 207.85 126.27 207.91 125.83 207 125.97 206.94" fill="#fff"/>
      <polygon points="127 209.22 127.38 210.15 127.3 210.18 126.9 209.27 127 209.22" fill="#fff"/>
      <polygon points="127.91 211.56 128.22 212.51 128.18 212.52 127.85 211.58 127.91 211.56" fill="#fff"/>
      <path d="M 128.54,214 a 3.17,3.17,0,0,1,0,.5,3.17,3.17,0,0,0,0-.5Z" fill="#fff"/>
    </g>
  </g>
  <g id="outline">
    <path d="M 164.77,131.38 a 36.46,36.46,0,0,0-1.33-6.38 c 0,16.18-5.4,52.38-6.95,61.83-2.11,12.92-5.44,25.66-8.69,30.63 A 14,14,0,0,1,142,222 c 5.76-.8,8.78-4.81,12.44-15.47,5.21-17.58,7.28-38.9,8.95-54.07 C 164.43,143.52,165.21,136.15,164.77,131.38Z"/>
    <path d="M 86.56,125.47v-.19 c 0-.17,0-.26,0-.27 h 0 c -2.06,1.41-1.7,5.37-1.7,5.37 h 0 c 1.86,17.71,11.49,39.15,17.05,49.76,6.7,12.78,18.57,26.77,25.15,37.78-3.58-13-18.92-29.28-28.15-50.38 C 88.42,143.57,86.61,128.31,86.56,125.47Z"/>
  </g>
<script type="text/ecmascript" xlink:href="param.min.js"/> 
</svg>
