<?xml version="1.0"?>
<svg xmlns="http://www.w3.org/2000/svg" xmlns:xlink="http://www.w3.org/1999/xlink" viewBox="0 0 600 600">
  <title>honey-slogan-curvy</title>
  <g id="main-colour">
    <path d="M 299.1,282.53q-.12-1.12-.22-2.23 l .93-.13 c -.36-3.72-.58-7.44-.89-11.17 l -1,.12q-.1-1.12-.2-2.24 l 4-.47q.09,1.12.16,2.23 l -1,.12 c .1,1.49.19,3,.27,4.46 l 3.86-.49 c 0-1.48-.08-3-.15-4.45 l -1,.12q-.06-1.11-.14-2.23 l 4-.46 c .06.74.09,1.48.12,2.22 l -1,.12 c .15,3.7,0,7.4.41,11.09 l .94-.13 c .08.74.18,1.48.3,2.21 l -3.76.52 c -.12-.74-.22-1.48-.3-2.22 l .94-.13 c -.16-1.48-.25-3-.3-4.44 l -3.8.5 c .1,1.49.2,3,.36,4.46 l .93-.13 c .08.74.17,1.48.28,2.22Z" fill="param(main_colour)"/>
    <path d="M 311.92,280.77 c -.6-.52-1.19-1-1.76-1.56-.44-4-.15-8-.31-11.94.51-.65,1-1.3,1.49-2 l 4.75-.55q.87.79,1.7,1.58 c .16,4-.36,7.91,0,11.86q-.69,1-1.31,2Z m .09-2.26,3.8-.5 c -.27-3.66.12-7.33,0-11 l -4,.46 C 312,271.16,311.67,274.84,312,278.51Z" fill="param(main_colour)"/>
    <path d="M 319.86,279.7 c -.73-5.1.33-10.22-.21-15.34 l 2-.22 a 96.55,96.55,0,0,1,4.84,9.9 c .11-3.48.49-7,0-10.46 l 1.94-.22 c .69,5.07-.37,10.15.09,15.21 l -1.93.25 a 98.83,98.83,0,0,1-4.8-9.87 c -.09,3.5-.46,7,0,10.49Z" fill="param(main_colour)"/>
    <path d="M 330.44,278.32 c -.4-5,.62-10.12-.09-15.18 l 7.71-.87 c .1.72.17,1.43.22,2.15 l -5.78.66 c .09,1.44.07,2.89,0,4.33 l 3.91-.46 c 0,.72,0,1.44-.06,2.16 l -3.93.47 c -.06,1.44-.12,2.89-.11,4.33 l 5.93-.73 c 0,.72,0,1.43,0,2.15Z" fill="param(main_colour)"/>
    <path d="M 339,262.16 l 1.93-.21 c 1.2,1.77,2.21,3.54,3.2,5.3.93-2,1.78-4,2.64-5.93 l 2-.21 c -1.22,2.62-2.35,5.26-3.62,7.9,0,2.49,0,5,.12,7.47 l -2,.24 c -.08-2.49-.05-5-.05-7.49 C 341.88,266.89,340.62,264.53,339,262.16Z" fill="param(main_colour)"/>
  </g>
  <g id="fixed-colours">
    <path d="M 336,274.9 s -19.14-1.33-28.44,8 C 313.95,274.11,326.44,271.18,336,274.9Z" opacity="0.2"/>
    <path d="M 315,270.65 s 8.24,2.66,14.62-3.72 C 326.18,268.79,319,270.92,315,270.65Z" opacity="0.2"/>
    <path d="M 270.79,277.64 c 4.78,15.74,15.94,21.74,29.11,19.57 C 288.4,295.88,278.75,293,270.79,277.64Z" opacity="0.4"/>
  </g>
<script type="text/ecmascript" xlink:href="param.min.js"/> 
</svg>
