<?xml version="1.0"?>
<svg xmlns="http://www.w3.org/2000/svg" xmlns:xlink="http://www.w3.org/1999/xlink" viewBox="0 0 600 600">
  <title>honey-slogan-hourglass</title>
  <g id="main-colour">
    <path d="M 333.45,274.79q0-.9,0-1.8 l .84-.09 c 0-1.2,0-2.4,0-3.6 l -3.29.33 c 0,1.21-.09,2.41-.1,3.62 l .84-.09q0,.9,0,1.81 l -3.34.36 c 0-.6,0-1.21,0-1.81 l .84-.09 c 0-3,.35-6,.19-9.07 l -.81.08 c 0-.61-.09-1.21-.17-1.82 l 3.26-.31 c .07.6.12,1.21.15,1.81 l -.81.08 c .06,1.21.05,2.42,0,3.62 l 3.25-.33 c 0-1.2,0-2.4,0-3.61 l -.81.08 c 0-.6-.07-1.2-.12-1.81 l 3.3-.3 c 0,.6,0,1.2,0,1.8 l -.81.08 c .07,3,0,6,.06,9 l .84-.09q0,.9,0,1.8Z" fill="param(main_colour)"/>
    <path d="M 321.51,276.08q-.72-.66-1.4-1.32 c -.1-3.29.54-6.6.35-9.9q.61-.8,1.16-1.59 l 3.91-.38 c .51.44,1,.89,1.46,1.33.23,3.28-.26,6.55-.25,9.82-.44.53-.88,1.06-1.29,1.6Z m 3.87-11.33-3.26.32 c .13,3.05-.38,6.1-.36,9.15 l 3.32-.36 C 325.09,270.83,325.54,267.79,325.38,264.75Z" fill="param(main_colour)"/>
    <path d="M 317,276.59 c -.38-2.94.06-5.88.2-8.83-1.51,3.08-3.36,6.18-4.22,9.29 l -1.6.18 c -.74-4.31.38-8.64-.07-13 l 1.65-.16 c .33,3-.11,5.92-.2,8.88,1.46-3.11,3.34-6.2,4.31-9.28 l 1.64-.16 c .59,4.29-.6,8.58-.1,12.85Z" fill="param(main_colour)"/>
    <path d="M 303.4,278.17 c -.12-.62-.2-1.24-.27-1.87 l 4.78-.55 a 31.79,31.79,0,0,1-.05-3.71 l -3.27.35 c 0-.62,0-1.24,0-1.87 l 3.3-.35 c .06-1.24.12-2.48.1-3.72 l -5,.5 c 0-.62,0-1.25-.08-1.87 l 6.69-.65 c .42,4.33-.64,8.67.13,13Z" fill="param(main_colour)"/>
    <path d="M 298.94,272.08 a 46.62,46.62,0,0,0,.51,6.56 l -1.6.19 a 60.56,60.56,0,0,1-.52-6.57q-1.73-3.11-3.69-6.25 l 1.7-.17q1.46,2.35,2.75,4.68 c .78-1.73,1.6-3.46,2.33-5.18 l 1.69-.17 C 301.14,267.46,300,269.77,298.94,272.08Z" fill="param(main_colour)"/>
  </g>
  <g id="fixed-colours">
    <path d="M 326.31,271.21 s -11.85-2-18.25,3.16 C 312.6,269.31,320.58,268.28,326.31,271.21Z" opacity="0.2"/>
    <path d="M 287.09,288.2 c 7.12.34,13.78-.82,20.78-6.32 C 304.11,288.81,294.11,291.43,287.09,288.2Z" opacity="0.4"/>
  </g>
<script type="text/ecmascript" xlink:href="param.min.js"/> 
</svg>
