<?xml version="1.0"?>
<svg xmlns="http://www.w3.org/2000/svg" xmlns:xlink="http://www.w3.org/1999/xlink" viewBox="0 0 600 600">
  <title>love-slogan-slender</title>
  <g id="main-colour">
    <path d="M 298,273.39 l -8.93.45v-.43 l 1.59-.08 c -.14-3.9-.14-7.81-.25-11.71 l -1.65.06q0-.22,0-.43 l 5.51-.19q0,.22,0,.43 l -1.73.06 c .12,3.9,0,7.79.18,11.68 l 2.07-.1 a 2.44,2.44,0,0,0,2.1-1.09,5.4,5.4,0,0,0,.72-2.78 l .5,0 C 298,270.61,298,272,298,273.39Z" fill="param(main_colour)"/>
    <path d="M 307.84,271.25 a 4.59,4.59,0,0,1-3.45,2.11,4.29,4.29,0,0,1-3.58-1.76,6.48,6.48,0,0,1-1.47-4.5,7.78,7.78,0,0,1,1.61-4.61,4.32,4.32,0,0,1,7.21-.27,6.13,6.13,0,0,1,1.38,4.46 A 8.11,8.11,0,0,1,307.84,271.25Z m -.61-6.68 a 4.58,4.58,0,0,0-.62-2.82,2.37,2.37,0,0,0-2.1-.9,2.32,2.32,0,0,0-2,1,5.65,5.65,0,0,0-.68,2.89 c 0,1.48-.11,3-.14,4.45 a 4.64,4.64,0,0,0,.65,2.83,2.21,2.21,0,0,0,2,.87,2.28,2.28,0,0,0,2-1.06 A 5.83,5.83,0,0,0,307,269 C 307.08,267.52,307.18,266,307.23,264.57Z" fill="param(main_colour)"/>
    <path d="M 318.57,260.67 c -1.17,4-3.07,8.11-4.19,12.2 l -.49,0 c -1.47-4-2.12-7.95-3.57-12 L 309,261q0-.21,0-.42 l 5.23-.17q0,.21,0,.42 l -1.7.06 c 1,2.83,1.65,5.66,2.46,8.47,1.06-2.89,2.27-5.78,3.13-8.65 l -1.71.06q0-.21,0-.42 l 3.58-.11 c 0,.14,0,.28,0,.42Z" fill="param(main_colour)"/>
    <path d="M 328.94,271.9 l -9.28.44q0-.21,0-.42 l 1.61-.08 c 0-3.76.5-7.52.48-11.28 l -1.63.05 c 0-.14,0-.28,0-.42 l 9.13-.28q0,1.6,0,3.2 l -.46,0 a 3.43,3.43,0,0,0-.95-2.21,3.17,3.17,0,0,0-2-.48 l -1.9.06 c 0,1.75-.1,3.51-.2,5.27 l .44,0 a 1.93,1.93,0,0,0,1.66-.71,3.1,3.1,0,0,0,.48-1.57 l .46,0 c -.08,1.66-.18,3.33-.27,5 l -.46,0 a 3.19,3.19,0,0,0-.3-1.64q-.37-.71-1.6-.66 l -.44,0 c -.11,1.86-.23,3.71-.27,5.57 l 2.19-.1 a 2.83,2.83,0,0,0,2.25-.95,6.31,6.31,0,0,0,1-2.61 l .48,0Z" fill="param(main_colour)"/>
  </g>
<script type="text/ecmascript" xlink:href="param.min.js"/> 
</svg>
