<?xml version="1.0"?>
<svg xmlns="http://www.w3.org/2000/svg" xmlns:xlink="http://www.w3.org/1999/xlink" viewBox="0 0 250 250">
  <title>denim-shorts-curvy</title>
  <g id="skin-tone">
    <path d="M 135.58,121.35 c -1.45-4.34-6.37-7.64-11.75-7.33 s -8,4.65-10,8.38 c -3.37,6.37-7.17,9.83-10.5,15.5 s -6.42,12.19-6.75,24.5 a 70.55,70.55,0,0,0,6,29.13 c 2.5,5.58,4.65,12.66,6.88,18.88,2.38,6.63,4.38,13.2,5.3,16.62 s 2.32,3.95,2.32,3.95 h 0 a 4.74,4.74,0,0,0,7.83-1.41 h 0 c 2.58-2,1-10,0-19.7 s -.92-21.42-.92-29.58 a 128.26,128.26,0,0,1,4.08-29.17 c 2.5-9.75,4.75-16.5,6.58-20.67 S 136.17,122.93,135.58,121.35Z" fill="param(skin_tone)"/>
  </g>
  <g id="outline">
    <path d="M 137.06,125 h 0 A 12.07,12.07,0,0,0,125,112.94 c -4.14,0-8.78,2.24-10.3,5.87-2,4.83-4.16,8.07-9.12,14.58-1.33,1.75-10.24,10.5-10.38,29.25-.08,11.52,5.08,25.5,9.58,36.75,3.34,8.36,8.22,24.39,9,27.39 s 1.56,3.88,3.25,4.18 a 5.74,5.74,0,0,1-1.29-3.24,33.49,33.49,0,0,0-1.5-6 l -.66-2 c -2.26-6.49-4.46-15.57-7.83-23.32-4.32-9.92-9.82-26.34-7.67-41,1.83-12.5,9.83-21.46,11-23 a 76.55,76.55,0,0,0,4.67-7.49 c .88-1.59,2.39-4.67,2.42-4.71 h 0 a 10.05,10.05,0,0,1,18.34,8.06 h 0 s -7.43,17.58-10.26,35.42-.5,43.5,0,49.67 c .12,1.5.29,3.13.46,4.76 l .2,2 c .45,4.38.76,8.4,0,9.49,2-1.2,2.34-3.24,2.09-7 a 333.86,333.86,0,0,1-1.85-38.23 c .35-19,2.22-25.62,4.72-34.87,2.45-9,4.53-15.58,6-19.25 a 11.9,11.9,0,0,0,1.14-4,10.26,10.26,0,0,0,.08-1.21Z"/>
  </g>
<script type="text/ecmascript" xlink:href="param.min.js"/> 
</svg>
