<?xml version="1.0"?>
<svg xmlns="http://www.w3.org/2000/svg" xmlns:xlink="http://www.w3.org/1999/xlink" viewBox="0 0 250 250">
  <title>hourglass-bottoms-template</title>
  <g id="skin-tone">
    <path d="M 114.08,217.2 c .28,2.48.42,4.94.56,7.16 a 17.43,17.43,0,0,0,.3,2.34 l .88-.07 a 4.74,4.74,0,0,0,9.41-.81 l .77-.06 c .06-2.16-1-6.15-1.92-9.8 A 14.12,14.12,0,0,1,114.08,217.2Z" fill="param(skin_tone)"/>
  </g>
  <g id="main-colour">
    <path d="M 114,217 a 136.81,136.81,0,0,0-5.37-19.5 c -3.87-11-7.88-23.75-8-36.62 s 3.75-20.12,9.38-28.12 c 5.91-8.4,6.25-9.12,8.88-12.37 a 7.71,7.71,0,0,1,10.38-1.75 c 3.25,2.25,4.38,5.38,2.5,10.87 s -6.88,24-8.5,34.38-3.5,35.25.75,51.75 c -2.37,2.63-6.92,2.42-9.71,1.46Z" fill="param(main_colour)"/>
  </g>
  <g id="outline">
    <path d="M 133.75,125 a 8.74,8.74,0,0,0-16.68-3.65 h 0 c -1.82,4.1-4.33,6.89-9,12.57 s -6.7,13.88-6.7,13.88 h 0 c -2.07,8.14-3.55,18.44,1.36,33.62,1.92,5.92,9.88,26.75,11,44.38 a 3.75,3.75,0,0,0,.47,1.42,3.22,3.22,0,0,0,2.39,1.31,5.55,5.55,0,0,1-.92-3.22 c -.08-1.23-.11-2.4-.24-4-.09-1-.24-2.12-.42-3.28,1.92.43,5.76.92,8.3-1.21.25,1.17.49,2.26.72,3.23.37,1.39.77,2.95,1,4.55 a 5.59,5.59,0,0,1,.12.63,4.57,4.57,0,0,1-.33,2.4,3.71,3.71,0,0,0,2.13-2.72,5.85,5.85,0,0,0-.24-1.4,136.59,136.59,0,0,1-4.08-23.23 c -2.36-32.36,5.47-54.68,8.37-64.19,1.24-4.08,1.91-6.69,2.28-8.35 a 8.7,8.7,0,0,0,.42-2.34 A 2.42,2.42,0,0,0,133.75,125Z m -2.08,1 c 0,.25-.12.56-.2.93,0,0,0,.09-.05.13 a 36.53,36.53,0,0,1-1.25,5 c -7.46,24.28-8.63,30.86-9.3,39.86-1,13-.81,23.44.38,33,.44,3.56,1.1,7.22,1.76,10.43-1.28.87-4,2.13-8.28,1-.62-3.42-1.54-7.25-2.64-11.18-2.29-8.13-5.53-18.47-8.25-27.93 a 49.89,49.89,0,0,1-.12-28.79 c 2.08-7.5,4.83-12.67,8.58-17 A 51.07,51.07,0,0,0,119.57,121 h 0 a 6.73,6.73,0,0,1,12.08,5Z"/>
  </g>
<script type="text/ecmascript" xlink:href="param.min.js"/> 
</svg>
