<?xml version="1.0"?>
<svg xmlns="http://www.w3.org/2000/svg" xmlns:xlink="http://www.w3.org/1999/xlink" viewBox="0 0 600 600">
  <title>professionally-pink-scarf-slender</title>
  <g id="main-colour">
    <path d="M 290.3,223.09 s -1.87-1.42-2.17-2.92 a 14.41,14.41,0,0,1-6,2.79 c -2.21.38-4.79.92-5.33,2.71 a 4.66,4.66,0,0,0,1.54,4.54 c -1.79,1.79-3.37,4.79.21,8.29 s 16.65,5.13,25.77,4.88 c .75.2.66.5.66.5 a 20.39,20.39,0,0,1-3.5,7.38 c -2.74,3.68-6.12,9.69-6.19,20 s 5.5,17.38,11.06,23.75 a 28.51,28.51,0,0,1,8.13-13.44 s -6.56-5.87-8-14.25-.75-12.5.13-15.31 a 47.36,47.36,0,0,0,1.63-7.72,44.58,44.58,0,0,0,6.75-1.47,52.87,52.87,0,0,0,4.38,5.81 C 321.49,251,327,254.88,328,260 s 1.44,12.94-3.19,20 c 4.06-.25,11.13,4.13,11.63,6.44.81-4.75,1.75-8.31,1.88-14.44.14-7-1.12-14.25-5.06-19.37 s -9.81-7.87-11.56-8.94-3.91-2.28-4.28-3.78 c 2.63-1.81,4.31-1.59,6.31-3 s 3.88-4.62-.44-7.87 c .19-3.12-1.56-4.5-5.94-5.56 s -6.62-1.12-7.87-3.25 l -1.5,2.13 s 3.94,7.63,8.38,5.13 c .75,2.06.56,3.75-2.62,7.25-3.25-.94-10.25.47-10.44,3.47-3.62-.56-15.81-5.66-18.88-10.59 A 15.36,15.36,0,0,0,290.3,223.09Z" fill="param(main_colour)"/>
  </g>
  <g id="outline">
    <path d="M 327.45,246.88 c -4.58-3-8.11-4.83-9.69-6.58,1.23-.62,2.7-1.31,4.09-1.86,3.19-1.25,5.19-3.31,4.63-6 a 7,7,0,0,0-2.61-3.85,3.3,3.3,0,0,0,0-.84 c -.56-3.5-4.69-4.5-9.12-5.37-3.2-.63-4.28-1.68-4.64-2.22 a 4.84,4.84,0,0,0-.24-3.72,6.41,6.41,0,0,0-1.31,1 s 2.25,3.56-3.75,6.63 a 8.73,8.73,0,0,0,2.31-.8,15.83,15.83,0,0,0,3.5,4 c 1.13.75,3.63,2.44,5.13,1.56.14-.08.29-.14.44-.22.37,2-1.27,4.09-2.5,5.34 a 20.42,20.42,0,0,0-4.45.2 c -3.29.43-6.21,1.5-6.58,3.38-9-2.65-14.45-6.78-17.25-9.44 a 12.77,12.77,0,0,0,5.29-4.22,13.72,13.72,0,0,0,3,.53 s -7.19-2.44-4.25-7 a 8,8,0,0,0-.75-1.12,4.81,4.81,0,0,0-1.48,3.84,14.71,14.71,0,0,1-7.14,2.66 c -4.2.42-5.3,4.46-2.57,7.6 a 5.66,5.66,0,0,0-1.05,6.28 c 1.86,3.83,9.62,8,28,7.27 a 19.92,19.92,0,0,1-3.17,6.71 C 291,264.13,292,282.93,306.68,296 c 1.69-8,9-14.35,9-14.35 a 25,25,0,0,1-8.82-17 c -1-10.6,1.63-17,1.91-20.2 a 26.83,26.83,0,0,0,5.92-1.13 A 40.12,40.12,0,0,0,320,250 c 3.31,3.38,13.5,11.44,3.94,30.38,9.24,1.06,12.3,6.94,12.3,6.94 s 2.88-6.94,2.7-18.75 C 338.73,257.32,333,250.52,327.45,246.88Z M 313.3,225.5 a 6.82,6.82,0,0,1,1.86,1.27,2.63,2.63,0,0,1-1.42.26 c -2.53-.69-4.47-3.65-5.13-4.78 a 5.7,5.7,0,0,0,1-1.07 c .78.85,3.58,2.29,6.48,2.75,3.13.5,5.94,1.38,6.69,3.88 s -3.87,7.31-3.87,7.31,3.52-2.46,4.67-5.23 a 6,6,0,0,1,2,3.36 c .13,1.88-2,3.31-4.81,4.44 a 30.14,30.14,0,0,0-3.19,1.52,4,4,0,0,0-.73-1.85,2.49,2.49,0,0,0-.65-2.53,2.65,2.65,0,0,0-1.19-.67 C 321.11,227,313.3,225.5,313.3,225.5Z m -9.05,12.16 c .49-1.88,6.73-2.92,9.61-2.44 s 2.64,2.86.91,4.49 a 5.53,5.53,0,0,0,1.67-1.67 c .25.74.68,2.53-.54,3.41-1.55,1.14-4.61,1.91-8.3,2-3.27.08-3.31-1.88-2.84-3.2 a 9.32,9.32,0,0,0,3.26.64 C 307.64,240.77,303.76,239.55,304.24,237.67Z M 282.17,240 c -6.47-3.18-5.63-5.69-3.43-8.48.22.16.43.32.68.48,5,3.13,9.38,6.38,9.38,6.38 a 23,23,0,0,0-6.62-5.87 c -4.5-2.75-5.75-5.87-4-7.62 s 5-.59,9.19-3.67 a 3.34,3.34,0,0,0,1.61,1.91,10.55,10.55,0,0,1-4.73,3.8 A 15.41,15.41,0,0,1,283,225.5 c 3.08,8.65,17.19,12.75,19.85,13.45 a 2.85,2.85,0,0,0,1,.86,3.63,3.63,0,0,0,.07,3.19 C 301.43,243,288.38,243,282.17,240Z m 23.58,12.63 c -1.32,4.94-2.19,20.71,7.84,28.93 a 25.25,25.25,0,0,0-7.39,12.31,35.86,35.86,0,0,1-9.69-22.11 c -.83-10.38,3.94-17.6,6-20.9 a 28.55,28.55,0,0,0,3-6.61,8,8,0,0,0,2.23.26 C 307.47,245.62,306.79,248.71,305.75,252.63Z m 30,31.62 c -3.25-4.12-9.75-4.94-9.75-4.94 a 26.78,26.78,0,0,0,3.57-14.81 c -.44-8.69-6.19-12.87-8.81-15.62-2-2.12-4.16-4.8-5-5.91 l .28-.13 a 2.7,2.7,0,0,0,1.25-1.45,34.18,34.18,0,0,0,5.49,3.74 c 4.95,2.92,13.32,9.06,14.45,19.25 S 337.08,277.88,335.7,284.25Z"/>
  </g>
<script type="text/ecmascript" xlink:href="param.min.js"/> 
</svg>
