<?xml version="1.0"?>
<svg xmlns="http://www.w3.org/2000/svg" xmlns:xlink="http://www.w3.org/1999/xlink" viewBox="0 0 600 600">
  <title>sassy-slogan-hourglass</title>
  <g id="main-colour">
    <path d="M 334,262.21 a 2.24,2.24,0,0,1,.38-1.61,2,2,0,0,1,1.45-.75,3.09,3.09,0,0,1,1,0,1.86,1.86,0,0,1,.72.33,1.93,1.93,0,0,1,.48.57,2.24,2.24,0,0,1,.22.86,19.49,19.49,0,0,1,.12,2.42,16.86,16.86,0,0,1-.23,2,12.56,12.56,0,0,1-.38,1.71 c -.16.54-.49,1.59-.49,1.59-.16.51-.29,1-.45,1.58 a 18.21,18.21,0,0,0-.46,2.49,15.8,15.8,0,0,0-.07,3.14,1.06,1.06,0,0,0,.29.73.94.94,0,0,0,.82.18,1.18,1.18,0,0,0,.8-.42,1.36,1.36,0,0,0,.19-.8q-.12-1.85-.23-3.7 l 1.11-.16q.12,1.85.24,3.69 a 2.17,2.17,0,0,1-.48,1.59,2.31,2.31,0,0,1-1.52.78,3,3,0,0,1-1,0,2.71,2.71,0,0,1-.72-.31,2,2,0,0,1-.48-.59,2,2,0,0,1-.21-.84,18.51,18.51,0,0,1-.06-2.42,16.33,16.33,0,0,1,.28-2,12.84,12.84,0,0,1,.42-1.74 c .11-.34.21-.66.3-1 a 21.44,21.44,0,0,0,.66-2.15,16.5,16.5,0,0,0,.42-2.49,15.17,15.17,0,0,0,0-3.12,1,1,0,0,0-.3-.74,1,1,0,0,0-.81-.23,1.06,1.06,0,0,0-.76.43,1.26,1.26,0,0,0-.17.8 c .13,1.23.22,2.47.29,3.7 l -1.06.15 C 334.18,264.68,334.09,263.45,334,262.21Z" fill="param(main_colour)"/>
    <path d="M 326.53,279.92 c -.23-6.33,1-12.68.42-19 l 1-.14 c 1.55,6.21,1.42,12.4,2.56,18.54 l -1.06.16 c -.19-1.05-.35-2.11-.48-3.16 l -1.41.21 c 0,1.08,0,2.16,0,3.25Z m 1.58-12.3 c -.12,2.57-.35,5.14-.47,7.71 l 1.22-.18 C 328.57,272.64,328.38,270.13,328.11,267.61Z" fill="param(main_colour)"/>
    <path d="M 317,264.5 a 2.37,2.37,0,0,1,.4-1.65,2,2,0,0,1,1.44-.77,3,3,0,0,1,1,0,1.94,1.94,0,0,1,.74.34,2.1,2.1,0,0,1,.51.58,2.27,2.27,0,0,1,.25.88,15.29,15.29,0,0,1,.12,2.47,14.68,14.68,0,0,1-.29,2.06,12.81,12.81,0,0,1-.47,1.75 c -.19.55-.57,1.62-.57,1.62-.19.52-.33,1-.52,1.62 A 16.1,16.1,0,0,0,319,276 a 13.27,13.27,0,0,0,0,3.21,1.15,1.15,0,0,0,.32.75.92.92,0,0,0,.81.18,1.06,1.06,0,0,0,.76-.43,1.45,1.45,0,0,0,.15-.82 c -.12-1.26-.18-2.52-.21-3.78 l 1.11-.16 c 0,1.26.09,2.52.2,3.77 a 2.34,2.34,0,0,1-.4,1.62,2,2,0,0,1-1.41.8,2.08,2.08,0,0,1-1.66-.32,2,2,0,0,1-.76-1.45,15.14,15.14,0,0,1-.13-2.47,14.28,14.28,0,0,1,.28-2.07,12,12,0,0,1,.46-1.78 c .12-.35.23-.67.33-1,.27-.68.52-1.43.75-2.2 a 16.19,16.19,0,0,0,.52-2.55,13.09,13.09,0,0,0,0-3.18,1.08,1.08,0,0,0-.32-.75,1,1,0,0,0-.82-.23,1.07,1.07,0,0,0-.77.44,1.31,1.31,0,0,0-.17.82 c .12,1.26.18,2.52.22,3.78 l -1.09.15 C 317.14,267,317.08,265.76,317,264.5Z" fill="param(main_colour)"/>
    <path d="M 308,265.73 a 2.37,2.37,0,0,1,.43-1.67,2.1,2.1,0,0,1,1.48-.79,3.06,3.06,0,0,1,1,0,1.91,1.91,0,0,1,.74.34,2.07,2.07,0,0,1,.5.59,2.31,2.31,0,0,1,.24.89,17,17,0,0,1,.1,2.5,16.28,16.28,0,0,1-.29,2.09,13.6,13.6,0,0,1-.45,1.77 l -.53,1.64 c -.18.53-.31,1.05-.47,1.63 a 15.81,15.81,0,0,0-.43,2.58,13.79,13.79,0,0,0,.09,3.24,1.21,1.21,0,0,0,.34.75.91.91,0,0,0,.8.19,1,1,0,0,0,.73-.44,1.49,1.49,0,0,0,.12-.82 c -.16-1.27-.27-2.54-.34-3.82 l 1.09-.17 c .06,1.27.16,2.54.32,3.81 a 2.37,2.37,0,0,1-.33,1.64,1.9,1.9,0,0,1-1.37.81,2.71,2.71,0,0,1-.93,0,2.83,2.83,0,0,1-.73-.32,2.12,2.12,0,0,1-.79-1.46,16.16,16.16,0,0,1-.21-2.5,14.52,14.52,0,0,1,.21-2.09,12,12,0,0,1,.4-1.8 c .11-.35.21-.68.3-1.06.25-.69.48-1.44.7-2.22 a 18,18,0,0,0,.49-2.57,14.54,14.54,0,0,0,0-3.22,1.08,1.08,0,0,0-.31-.76,1,1,0,0,0-.83-.23,1.11,1.11,0,0,0-.79.45,1.32,1.32,0,0,0-.19.83 c .11,1.27.18,2.55.23,3.82 l -1.09.16 C 308.16,268.27,308.09,267,308,265.73Z" fill="param(main_colour)"/>
    <path d="M 299.83,264.54 c .66,2.19,1.29,4.38,1.88,6.56.22-2.3.44-4.6.61-6.9 l 1.09-.15 c -.24,3.3-.63,6.61-.95,9.92.25,3.23.5,6.46,1,9.68 l -1,.17 c -.48-3.22-.75-6.44-1-9.66q-1.25-4.72-2.7-9.47Z" fill="param(main_colour)"/>
  </g>
  <g id="fixed-colours">
    <path d="M 327.9,274.55 s -12-.83-17.83,5 C 314.07,274,321.9,272.21,327.9,274.55Z" opacity="0.2"/>
    <path d="M 314.73,271.88 a 9.5,9.5,0,0,0,9.17-2.33 C 321.73,270.71,317.23,272,314.73,271.88Z" opacity="0.2"/>
    <path d="M 276.22,285.38 A 26.12,26.12,0,0,0,291.39,294 a 32.68,32.68,0,0,0,12.5-.33 C 294.19,298.69,280.93,296.08,276.22,285.38Z" opacity="0.4"/>
  </g>
<script type="text/ecmascript" xlink:href="param.min.js"/> 
</svg>
