<?xml version="1.0"?>
<svg xmlns="http://www.w3.org/2000/svg" xmlns:xlink="http://www.w3.org/1999/xlink" viewBox="0 0 600 600">
  <title>love-slogan-voluptuous</title>
  <g id="main-colour">
    <path d="M 336,273.78 l .63-.07 a 4.53,4.53,0,0,0,.89,3.06,2.89,2.89,0,0,0,2.74.81 l 2.65-.32 c -.13-4.45.15-8.91-.31-13.38 l -2.07.23q0-.25-.06-.5 l 6.66-.72,0,.49-2,.21 c .34,4.45.24,8.9.39,13.34 l 2-.24,0,.49-11.4,1.38 C 336.11,277,336.06,275.38,336,273.78Z" fill="param(main_colour)"/>
    <path d="M 322,273 a 10.43,10.43,0,0,1,2-5.6,5.85,5.85,0,0,1,4.14-2.77,5.54,5.54,0,0,1,4.62,1.8,6.58,6.58,0,0,1,1.89,5.09,9.58,9.58,0,0,1-2.06,5.54,6.34,6.34,0,0,1-4.27,2.81,5.22,5.22,0,0,1-4.52-1.74 A 6.48,6.48,0,0,1,322,273Z m 2.87,2.27 a 4.76,4.76,0,0,0,.84,3.26,2.67,2.67,0,0,0,2.56.83,3.16,3.16,0,0,0,2.44-1.45,7,7,0,0,0,.85-3.44 c .07-1.74.18-3.47.2-5.21 a 4.82,4.82,0,0,0-.92-3.26,2.84,2.84,0,0,0-2.61-.86,3,3,0,0,0-2.38,1.43,7.64,7.64,0,0,0-.74,3.47 C 325.07,271.8,324.94,273.55,324.89,275.3Z" fill="param(main_colour)"/>
    <path d="M 309.33,267.64q0-.26,0-.51 l 4.45-.51q0,.25,0,.51 l -2.13.24 c 1.4,3.33,2.26,6.66,3.45,10,1-3.59,2.62-7.17,3.47-10.74 l -2.1.24q0-.25,0-.51 l 6.41-.73q0,.25.06.5 l -1.68.19 c -1.13,5-3.82,10.06-4.5,15.12 l -.58.08 c -2.36-4.64-3.15-9.33-5.1-14Z" fill="param(main_colour)"/>
    <path d="M 298,278.75 l .56-.07 a 6.9,6.9,0,0,0,1.32,3.07,3,3,0,0,0,2.74.7 l 2.6-.35 a 58.57,58.57,0,0,1-.56-6.87 l -.53.07 a 2.22,2.22,0,0,0-1.93,1.15,4.32,4.32,0,0,0-.32,2.12 l -.54.07 c -.17-2.07-.28-4.13-.4-6.2 l .56-.07 a 3.53,3.53,0,0,0,.6,1.86 c .34.5,1,.68,2,.56 l .53-.07 c -.07-2.17-.12-4.33-.27-6.5 l -2.38.27 a 4.31,4.31,0,0,0-2.53,1,4.85,4.85,0,0,0-1.07,3 l -.56.07q-.11-2-.23-4 l 11.42-1.31q0,.26,0,.51 l -2,.23 c .32,4.62,0,9.24.68,13.85 l 1.92-.26q0,.26.09.51 l -11.07,1.5 C 298.44,281.92,298.25,280.33,298,278.75Z" fill="param(main_colour)"/>
  </g>
  <g id="fixed-colours">
    <path d="M 334.57,274.55 s -18.28-1.27-27.17,7.62 C 313.49,273.78,325.43,271,334.57,274.55Z" opacity="0.2"/>
    <path d="M 314.51,270.48 s 7.87,2.54,14-3.55 C 325.17,268.71,318.32,270.74,314.51,270.48Z" opacity="0.2"/>
    <path d="M 295.07,297.54 c -12.33-.33-23.33-7.33-30-19.9 C 268.07,292.71,281.6,300.9,295.07,297.54Z" opacity="0.4"/>
  </g>
<script type="text/ecmascript" xlink:href="param.min.js"/> 
</svg>
