<?xml version="1.0"?>
<svg xmlns="http://www.w3.org/2000/svg" xmlns:xlink="http://www.w3.org/1999/xlink" viewBox="0 0 215 215">
  <title>police-shirt-slender</title>
  <g id="skin-tone">
    <path d="M 111.29,163.59 c -4.31-1-6.72-.13-7.69.43 a 66.51,66.51,0,0,0,1.31,8.33 H 105 a 3.32,3.32,0,0,0,6.56-.46 h 0 a 54.79,54.79,0,0,0-.25-8.23Z" fill="param(skin_tone)"/>
  </g>
  <g id="main-colour">
    <path d="M 113.45,155.38 a 25,25,0,0,0-2.64-.76,48.63,48.63,0,0,1,.89-9.21 c 1.39-6.5,2.69-21.16,2.23-28.17 a 30.49,30.49,0,0,0-2.45-11.07,4.18,4.18,0,0,0-.57-1.12 l 0,0 h 0 a 4.16,4.16,0,0,0-6-.82 h 0 s -1.55.67-3,4.92-2.16,13.75-2,18.5.46,15.79,2,24.38q.23,1.29.43,2.58 a 9.46,9.46,0,0,0-3,1.32 c 1,2.38,1.56,5.94,1.31,10.81 a 28.38,28.38,0,0,0,2.88.25,13.92,13.92,0,0,0-.06-2.81 c 3.44-1.75,8.06-.37,8.06-.37 l .38,2.44 a 7.29,7.29,0,0,0,2.75-.69 C 113.57,163.13,113.26,159.63,113.45,155.38Z" fill="param(main_colour)"/>
  </g>
  <g id="fixed-colours">
    <circle cx="103.3" cy="158.17" r="1.33" fill="#ffcc50"/>
  </g>
  <g id="outline">
    <path d="M 101.76,165.34 s 3.63-3.12,11.21-.92 C 112.09,162.09,103.05,161.88,101.76,165.34Z"/>
    <path d="M 103.61,166.39 a 13.35,13.35,0,0,1-2.23-.13 c -.12-3.33-.25-8.29-1.12-10,0,0,4.92-3.21,12.33-.37 a 31.59,31.59,0,0,0,1.13,9.29,10.24,10.24,0,0,1-2.29.61 l .26,1.11 a 28.21,28.21,0,0,0,3.62-1.05 s -1.67-3.5-1-10.92 c -6.67-2.67-12.63-1.46-15.79.54 a 38.08,38.08,0,0,1,1.63,11.88,16.61,16.61,0,0,0,3.65.31Z"/>
    <path d="M 111.85,155 a 117.72,117.72,0,0,1,1.6-14.1 c 1.39-8.86,3.9-27.12-2.54-35.9.2.32,2.19,3.86,2.26,16.28.08,13.08-2.34,21.42-3.18,30.83-.06.73-.11,1.45-.14,2.18 A 11.56,11.56,0,0,1,111.85,155Z"/>
    <path d="M 112.22,164.07 a 10.55,10.55,0,0,0-2-.56,72,72,0,0,0,1.31,8,3.33,3.33,0,0,1-3.22,3.44 h -.11 a 3.33,3.33,0,0,1-3.33-3.22 c -.05-1.47-.26-4.29-.64-8 a 7.94,7.94,0,0,0-1.51.75 l -.29.21 c .44,4.39.44,7.11.44,7.11 a 5.31,5.31,0,0,0,5.33,5.16 h .18 a 5.32,5.32,0,0,0,4.75-7.35 C 112.86,168.26,112.49,166.25,112.22,164.07Z"/>
    <path d="M 103.12,154.52q-.3-2.18-.66-4.49 c -1.37-8.82-2.21-26.79-.87-36 s 3.31-9.88,3.31-9.88 c -5.44,1.78-6.06,16-6,27.55 a 165.77,165.77,0,0,0,2.23,23.45 A 16.44,16.44,0,0,1,103.12,154.52Z"/>
    <path d="M 103.34,160 a 1.79,1.79,0,1,1,1.79-1.79 A 1.79,1.79,0,0,1,103.34,160Z m 0-2.69 a .9.9,0,1,0,.9.9 A .9.9,0,0,0,103.34,157.32Z"/>
  </g>
<script type="text/ecmascript" xlink:href="param.min.js"/> 
</svg>
