<?xml version="1.0"?>
<svg xmlns="http://www.w3.org/2000/svg" xmlns:xlink="http://www.w3.org/1999/xlink" viewBox="0 0 215 215">
  <title>professionally-pink-hourglass</title>
  <g id="skin-tone">
    <path d="M 111.14,163.56 a 12,12,0,0,0-6.75.07 l -.57.22 c 0,1.66-.12,3-.19,3.95-.23,3-.81,5.61.83,7.23 s 4.25,2.27,5.94.63,1.7-4.06,1.24-7.63 C 111.49,166.9,111.31,165.31,111.14,163.56Z" fill="param(skin_tone)"/>
  </g>
  <g id="main-colour">
    <path d="M 101.84,149 c .31,1.74.66,3.7.92,5.26 a 19.53,19.53,0,0,1,8.25,0 c 0-.49,0-1,0-1.32.38-3.43,1.44-10.17,3-19.06 s 1.34-14.72.89-18 a 30.55,30.55,0,0,0-3.78-9.75,3.86,3.86,0,0,0-6.2-1.53 c -1.56.72-2.7,2.2-3.9,5.16-2.46,6.09-3.57,15.21-2.92,19.69 S 100,138.81,101.84,149Z" fill="param(main_colour)"/>
  </g>
  <g id="accent-colour-2">
    <path d="M 103.5,167 a 3.66,3.66,0,0,1-3.67-1.62 c -1.29-2.08.83-4,.83-4 s -2.25-2.21-.37-4.58,4.83-2.71,7.33-2.54,5.46,1,6.54,3 a 4.34,4.34,0,0,1-.33,4.13,3.43,3.43,0,0,1,1.17,2.58 c -.17,1.42-1.54,2.33-3.54,2.38.08-2.12.08-2.54.08-2.54 a 10.88,10.88,0,0,0-8,.29Z" fill="param(accent_colour_2)"/>
  </g>
  <g id="outline">
    <path d="M 115.61,115.08 a 22.05,22.05,0,0,0-3-7.07 c -.55-.82-1.13-1.59-1.68-2.28 a 26.42,26.42,0,0,1,1.57,4.45 c 1.41,5,2.2,12.26,1.81,16-.51,4.77-2.23,13.62-3.12,19.57 a 79.68,79.68,0,0,0-.82,8.18,14.78,14.78,0,0,0-3.36-.47,12.08,12.08,0,0,0-3.75.44 c -1-5.77-2.36-12-3.18-16.83-.94-5.47-2.2-13.27-.43-20 a 58.45,58.45,0,0,1,2.41-7.16 s 1.25-4.07,3-5.49 c 0,0-2.74-.35-4.68,3.88 a 35.75,35.75,0,0,0-3.52,19 c .9,8.68,3.71,20.22,4.73,27.21 A 4.86,4.86,0,0,0,99,158 c -.42,2.35.44,3.27,1,3.61 a 5.83,5.83,0,0,0-.84,1.68 c -.74,2.3.48,4.22,3.59,4.42 a 30.56,30.56,0,0,1,0,3.56,5.28,5.28,0,0,0-.12,1.24,5.06,5.06,0,0,0,5.23,5.1 A 5.13,5.13,0,0,0,112.6,172 c 0-.44-.1-2.47-.19-5.09,3.66-.49,3.57-3.37,2.85-4.65 a 4.26,4.26,0,0,0-.71-.91,4.08,4.08,0,0,0,.21-4.39,6.57,6.57,0,0,0-2.52-2.35 c .18-5.19,1.54-13.55,3.6-26.19 A 39.13,39.13,0,0,0,115.61,115.08Z m -7.89,60.5 a 3.33,3.33,0,0,1-3.44-3.22 c 0-.84.18-3.32.28-4.47 a 29.27,29.27,0,0,0,0-3.84,14.07,14.07,0,0,1,5.92-.18,29.2,29.2,0,0,0,0,3.87,40.75,40.75,0,0,1,.5,4.4 A 3.33,3.33,0,0,1,107.72,175.58Z m 5.86-18.24 a 3,3,0,0,1,.11,3.32,10.05,10.05,0,0,0-4.28-1.57 c 3,.92,5.08,3.08,5,4.88-.08,1.2-1.26,1.5-2,1.57,0-.42,0-.85,0-1.28 l .65.17 c -.87-2.33-9.92-2.54-11.21.92 a 5.33,5.33,0,0,1,.83-.53 c 0,.56.05,1.11.08,1.63 a 2.66,2.66,0,0,1-2.67-1.77 c -.58-2.12,2-4.75,4.88-5.29 a 7.2,7.2,0,0,0-4.1,1.36,3.14,3.14,0,0,1,.1-4 c 1.21-1.46,4-1.87,6.25-1.83 S 112.21,155.26,113.59,157.34Z"/>
  </g>
<script type="text/ecmascript" xlink:href="param.min.js"/> 
</svg>
