<?xml version="1.0"?>
<svg xmlns="http://www.w3.org/2000/svg" xmlns:xlink="http://www.w3.org/1999/xlink" viewBox="0 0 600 600">
  <title>police-shoulder-patch-hourglass</title>
  <g id="outline">
    <path d="M 273.52,223.6 a 10.45,10.45,0,0,1,5.36,4.34,34.15,34.15,0,0,0-4.34,5.36 s -13.34-2.82-21.9-.2 c 1.88-7,6.49-9.19,6.49-9.19 A 36.57,36.57,0,0,1,273.52,223.6Z"/>
    <path d="M 319.51,226.19 a 15.33,15.33,0,0,1,3.23-2.14 c 6.47-1.17,10.54.54,12.48,2.29 s 3,4.51,2.56,8.81 c -4.59-3.82-12.47-4-15.1-3.4 A 19.61,19.61,0,0,1,319.51,226.19Z"/>
  </g>
  <g id="misc-objects">
    <path d="M 265.11,226.86 a 10.29,10.29,0,0,1-5.72,2.32 c -3,0-.46-2.13.87-2.41-1-.71-.81-1.33.35-1.61 A 5,5,0,0,1,265.11,226.86Z" fill="#fff"/>
    <path d="M 328.61,226.8 a 8.9,8.9,0,0,0,4.39,3 c 2.55.59.79-1.71-.28-2.2,1-.41.93-1,0-1.42 A 4.3,4.3,0,0,0,328.61,226.8Z" fill="#fff"/>
  </g>
<script type="text/ecmascript" xlink:href="param.min.js"/> 
</svg>
