<?xml version="1.0"?>
<svg xmlns="http://www.w3.org/2000/svg" xmlns:xlink="http://www.w3.org/1999/xlink" viewBox="0 0 600 600">
  <title>girl-power-slogan-voluptuous</title>
  <g id="main-colour">
    <path d="M 332.64,276.27 l -1.59.12q-.51,2.33-1.07,4.67 c -.43,1.81.07,2.39,1.13,2.3 s 1.9-.8,2.38-2.6 c 1.2-4.54,2.32-9.09,3.12-13.65.31-1.81-.35-2.45-1.55-2.37 s -2,.81-2.29,2.63q-.21,1.36-.45,2.72 l -3.44.24q.19-1.24.36-2.47 c .52-4.08,2.53-6.53,6.33-6.74 s 5.53,2,4.71,6 c -.88,4.37-2,8.74-3.31,13.1-1.17,4-3.53,6.45-6.7,6.76 s -4.29-1.85-3.43-5.91 c .58-2.68,1.13-5.37,1.6-8.06 l 5-.37Q333.06,274.46,332.64,276.27Z" fill="param(main_colour)"/>
    <path d="M 323.42,287.35 l -3.22.31 c 1.54-8.48,3.17-17,3.34-25.54 l 3.81-.23 C 327,270.39,325.16,278.9,323.42,287.35Z" fill="param(main_colour)"/>
    <path d="M 308,288.86 a 10.35,10.35,0,0,0,.62-3.15q.17-2,.34-4 c .22-2.69.9-4.69,2.7-5.68-1.48-.72-2.1-2.39-2-5.06q0-1,0-2 c 0-4,1.48-6.07,5.42-6.32 l 5.72-.37 c 0,8.55-1.53,17.1-2.91,25.59 l -3.19.31 c .47-3.46,1-6.93,1.38-10.42 l -1.19.1 c -1.56.13-2.32,1.07-2.57,3.46q-.21,2-.44,4 a 10.92,10.92,0,0,1-.64,3.17Z m 7.2-22.53 c -1.32.09-1.88.94-1.93,2.79q0,1.27-.11,2.54 c -.12,2.06.62,2.66,1.93,2.56 l 1.38-.11 c .26-2.63.45-5.27.52-7.9Z" fill="param(main_colour)"/>
    <path d="M 306.28,289 l -8.27.84q0-1.84,0-3.69 l 5.28-.51 a 149.35,149.35,0,0,0-.09-22.22 l 3.75-.26 C 307.65,271.84,306.89,280.47,306.28,289Z" fill="param(main_colour)"/>
    <path d="M 331.09,291.3,334,291 c -1.48,5.19-2.85,10.37-3.79,15.55 l -1.72.23 c .32-1.95.7-3.9,1.12-5.85 l -.86.1 c -1.8.22-2.45-1-1.93-3.54q.22-1,.44-2 C 327.82,293,329.12,291.49,331.09,291.3Z m -.58,2.23 c -.61.06-1,.46-1.31,1.57q-.28,1.17-.55,2.34 c -.25,1.12,0,1.44.58,1.37 l .87-.1 c .41-1.76.86-3.52,1.32-5.28Z" fill="param(main_colour)"/>
    <path d="M 324.92,303.58 c -.4,2.5-1.47,4.05-3.12,4.28 s -2.47-1.09-2.21-3.6 c .3-2.73.7-5.45,1.15-8.18.42-2.52,1.74-4.08,3.66-4.27 s 2.63,1.13,2.07,3.64 C 325.89,298.16,325.35,300.87,324.92,303.58Z m -.31-8.09 c .23-1.12-.06-1.51-.67-1.44 s -1.08.53-1.28,1.66 c -.52,2.83-1,5.66-1.34,8.48-.14,1.12.17,1.5.71,1.43 s .95-.54,1.1-1.66 C 323.54,301.14,324,298.32,324.61,295.5Z" fill="param(main_colour)"/>
    <path d="M 313.85,308.77 l -2.2.31 a 156.71,156.71,0,0,1-.36-15.72 l 1.67-.18 c -.16,4.18-.25,8.33-.11,12.48.45-4.23,1.19-8.46,2.06-12.69 l 1.85-.2 c -.3,4.13-.54,8.25-.56,12.36.61-4.19,1.51-8.38,2.52-12.57 l 1.88-.2 a 125.9,125.9,0,0,0-3.25,15.92 l -2.29.32 c -.13-2.78-.13-5.55-.07-8.34 C 314.5,303.1,314.1,305.94,313.85,308.77Z" fill="param(main_colour)"/>
    <path d="M 308.28,295.95 l -3.21.36q0-1.14.1-2.29 l 5.17-.56 a 131.79,131.79,0,0,0-.68,15.89 l -4.46.63q-.08-1.14-.14-2.28 l 2.89-.39 c 0-1.55,0-3.1,0-4.66 l -2.4.3q0-1.14,0-2.28 l 2.45-.3Q308.12,298.17,308.28,295.95Z" fill="param(main_colour)"/>
    <path d="M 299.19,310.84 a 8,8,0,0,0-.07-2q-.14-1.24-.25-2.47 c -.15-1.67.06-2.92.9-3.56-.8-.43-1.23-1.46-1.28-3.11q0-.63,0-1.26 c -.06-2.48.77-3.79,2.71-4 l 2.84-.31 a 127.39,127.39,0,0,0,.19,16 l -1.62.23 c -.22-2.17-.36-4.34-.43-6.51 l -.6.08 c -.78.1-1.11.69-1,2.18q.09,1.26.21,2.52 a 8.39,8.39,0,0,1,.06,2Z m 2-14.09 c -.65.07-.94.61-.93,1.76q0,.79,0,1.58 c 0,1.28.45,1.64,1.1,1.56 l .69-.08 c 0-1.64,0-3.28,0-4.92Z" fill="param(main_colour)"/>
  </g>
  <g id="fixed-colours">
    <path d="M 330.32,276.71 s -16.25-2.23-24.72,5.17 C 311.55,274.76,322.38,273,330.32,276.71Z" opacity="0.2"/>
    <path d="M 312.66,271.88 a 13,13,0,0,0,12.68-2.33 C 322.29,270.93,316,272.33,312.66,271.88Z" opacity="0.2"/>
    <path d="M 289.64,295.38 A 30,30,0,0,1,278,290.07 a 29.52,29.52,0,0,1-9-13.13 C 269.41,287.59,279.25,296,289.64,295.38Z" opacity="0.4"/>
  </g>
<script type="text/ecmascript" xlink:href="param.min.js"/> 
</svg>
