<?xml version="1.0"?>
<svg xmlns="http://www.w3.org/2000/svg" xmlns:xlink="http://www.w3.org/1999/xlink" viewBox="0 0 600 600">
  <title>honey-slogan-slender</title>
  <g id="main-colour">
    <path d="M 297.19,276q-.06-.88-.11-1.76 l .73-.06 c -.17-2.93-.24-5.86-.39-8.79 l -.79.06-.1-1.76,3.17-.22q.05.88.08,1.75 l -.79.06 c 0,1.17.07,2.34.09,3.51 l 3.05-.24 c 0-1.17,0-2.33,0-3.5 l -.79.06 c 0-.58,0-1.17-.08-1.75 l 3.14-.22 c 0,.58.07,1.16.08,1.75 l -.79.06 c .05,2.91-.23,5.82,0,8.73 l .74-.06 c 0,.58.11,1.16.2,1.74 l -3,.26 c -.08-.58-.14-1.17-.18-1.75 l .74-.06 c -.09-1.16-.1-2.33-.1-3.49 l -3,.24 c 0,1.17.07,2.34.15,3.51 L 300,274 c 0,.58.09,1.17.16,1.75Z" fill="param(main_colour)"/>
    <path d="M 307.31,275.16 c -.47-.43-.93-.86-1.36-1.29-.27-3.13.2-6.26.12-9.4.41-.49.8-1,1.18-1.48 l 3.73-.26q.69.65,1.33,1.3 c .09,3.11-.6,6.23-.39,9.33q-.55.74-1,1.48Z m .1-1.76,3-.25 c -.15-2.88.4-5.77.36-8.65 l -3.12.22 C 307.67,267.6,307.22,270.5,307.41,273.39Z" fill="param(main_colour)"/>
    <path d="M 313.56,274.62 c -.63-4,.69-8,.19-12.07 l 1.54-.1 a 50.78,50.78,0,0,1,3.5,8 c .21-2.74.72-5.49.32-8.23 l 1.52-.1 c .59,4-.74,8-.31,12 l -1.51.13 a 52.78,52.78,0,0,1-3.47-7.94 c -.19,2.76-.69,5.51-.29,8.26Z" fill="param(main_colour)"/>
    <path d="M 321.84,273.92 c -.37-4,.91-8,.32-11.94 l 6.08-.4 c .07.56.11,1.13.13,1.69 l -4.54.31 a 28,28,0,0,1-.13,3.41 l 3.06-.22 c 0,.57-.09,1.13-.14,1.7 l -3.08.23 c -.11,1.14-.21,2.27-.22,3.4 l 4.64-.36 c 0,.56,0,1.13,0,1.69Z" fill="param(main_colour)"/>
    <path d="M 329,261.52 l 1.52-.1 a 44.59,44.59,0,0,1,2.33,4.27 c .81-1.53,1.54-3,2.27-4.57 l 1.55-.1 c -1,2-2,4-3.11,6.08-.08,2-.17,3.92-.16,5.88 l -1.56.12 c 0-2,.1-3.93.2-5.89 A 50.66,50.66,0,0,0,329,261.52Z" fill="param(main_colour)"/>
  </g>
  <g id="fixed-colours">
    <path d="M 292.16,285.22 c 7.84.9,14.21-.68,20.22-7.6 C 309.53,285.36,299.45,288.84,292.16,285.22Z" opacity="0.4"/>
    <path d="M 328.57,271.59 s -10.9-.76-16.2,4.54 C 316,271.13,323.12,269.47,328.57,271.59Z" opacity="0.2"/>
    <path d="M 316.61,269.16 a 8.63,8.63,0,0,0,8.33-2.12 A 20,20,0,0,1,316.61,269.16Z" opacity="0.2"/>
  </g>
<script type="text/ecmascript" xlink:href="param.min.js"/> 
</svg>
