<?xml version="1.0"?>
<svg xmlns="http://www.w3.org/2000/svg" xmlns:xlink="http://www.w3.org/1999/xlink" id="fixed-colours" viewBox="0 0 250 250">
  <title>biker-jacket</title>
  <path d="M 42.26,224.49,34.21,174,38,161.69 s -5.1-11-3.49-19.32,3.49-26.3,2.68-33-4-28.45-.27-36.23 S 48.71,55.94,53.27,55.4,89,51.91,92.46,47.62 s 12.08-20.67,12.08-20.67,20.13-3.76,32.74-1.07 c 5.37,1.34,8.86,3.76,10.2,8.05 s 8.59,14,15.57,15.57,19.86,3,27.11,5.64 S 206,61,207.06,68.28 s .81,45.09,4.29,53.68,4,20.67.81,27.65 c -.54,14.23,6.71,25.77,6.71,25.77 l -3.22,7.25 s 5.1,34.89,3.49,45.63 c -10.47,1.88-32.21-4-32.21-4 s -2.42-23.89-2.42-33.82.27-22.55-.54-26.57-3.76-18.79-6.44-27.38 c -2.68,11-3.49,24.16-5.64,35.7 s -4.29,39.45-4.29,39.45 l 3.76,14.76 s -58,11-85.62-1.34 c -.81-16.1,2.15-26.84,2.15-26.84 s -6.71-62.27-12.61-71.13 c -1.07,8.32-5.64,40.26-5.9,47.51 S 71,199,71,199 l 3,22.28 S 54.88,225.83,42.26,224.49Z" fill="#312f30"/>
  <path d="M 221.42,207.18 S 218.2,187.86,218.2,185 s 3.22-9.26,3.22-9.26-4.43-12.08-6-16.1,1.21-12.08,3.22-15.7,0-12.08-4-21.74-4.83-41.87-4.43-51.13 S 198.88,51.78,192.84,51 s -22.95-2-33-6 c -5.64-2.42-10.07-14.09-10.47-15.7 s 2-5.23-4.43-6.84-29-2-37.44-1.21 S 96.21,28,97.42,30 s -3.62,9.26-7.25,15.3 c -2.82,2-28.58,6.84-36.23,5.64 S 43.47,59,35.42,69.89 s -2,43.08-2,43.08 c .81,8.86-.4,16.91-1.21,30.2-2,8.05,2.82,20.13,2.82,20.13 l -3.62,10.47 s 5.64,35,8.45,52.74 c 8.86,3.22,36.23-2.42,36.23-2.42 l -2-22.95-2.42-15.3 s 1.21-24.56,1.61-31,3.62-16.91,3.62-16.91,3.22,30.6,4,33.82,3.62,29,3.62,29-.81,13.29-2,26.17 c 30.6,11.68,81.33,5.23,90.18,1.21,1.21-3.22-3.22-14.9-3.22-14.9 l 6-48.31 a 102.85,102.85,0,0,1,2.82-19.73 c 2.42,4,2,20.53,2,20.53 s 3.22,5.64,1.21,10.87 c 1.21,4.43-2,29,3.22,49.92,15.3,6.44,38.25,4,38.25,4Z m -32.21,15.7 s -2.82-25-2.42-40.26 c .81-8.05,2-15.3,2-15.3 s -5.64-26.17-8.45-38.25 a 83.73,83.73,0,0,0-2.82-13.29 s -4.83,29-6.44,41.47-3.22,47.1-6,53.14 a 44,44,0,0,1,3.22,13.29 s -14.9,4-39.05,3.62-39.45-4-39.45-4-.4-16.51.81-24.56 c -2.42-25-8.86-72.87-16.91-82.53,1.21,10.47-2.42,26.17-2.42,26.17 l -4,29.39 L 64,168.13 s 6.44,40.26,6.84,50.33 c -12.48,5.23-26.57,3.62-26.57,3.62 S 37.43,178.6,37.43,175 c 2.42-8.05,3.62-13.69,3.62-13.69 l -4.43-15.7,4.83-27.78 s -4-27-2.82-41.07 c .48-5.59,11.27-18.12,14.9-18.52,8.05.4,37-3.62,42.68-7.65,4.43-8.45,9.66-20.53,9.66-20.53 s 24.56-4.43,36.23.4 c 4.83,6.44,7.65,16.1,13.69,19.73,11.27,3.62,27.78,5.23,34.22,7.25 s 13.18,5.85,14.49,16.91 c 2.18,18.34,2.12,50.74,7.65,58.78.81,6.44-8.86,29.39-8.86,29.39 a 35.69,35.69,0,0,0,6-7.25 c .4,6.84,5.64,20.53,5.64,20.53 l -2.42,6.44 s 4.83,32.61,4.83,43.48 C 211,227.31,189.21,222.88,189.21,222.88Z"/>
  <path d="M 39.45,208.79 s 22.55-4,32.21-4 a 7,7,0,0,0-.4-4.83 s -24.56,1.61-33,4.43 A 7.81,7.81,0,0,0,39.45,208.79Z"/>
  <path d="M 187.2,208.79 s 22.55,1.21,33,2.82 a 14.44,14.44,0,0,1-1.61-4.43 s -23.35-2.42-31.81-2.42 C 186,206,187.2,208.79,187.2,208.79Z"/>
  <path d="M 104.27,48.15 s 22.14-3.22,42.68.4 C 136.07,42.52,117.15,42.92,104.27,48.15Z"/>
  <path d="M 127.21,114.58 c -22.55-65.22-44.69-39.05-33,5.23 S 132,193.9,132,193.9 s 33.42-52.74,33-94.61 S 140.9,72.71,127.21,114.58Z m 27-2.42 c -3.22,26.17-23.35,67.23-23.35,67.23 S 109.9,149.21,103.46,121 s .81-31,8.45-20.53,15.3,29.39,15.3,29.39,8.45-20.53,14.49-29.39 S 157.41,86,154.19,112.17Z" fill="#efb1cf"/>
  <path d="M 26.64,236.1 s -9-1.6-13.39-6.14-4.2-9.73-.47-8.93,6.85,4.61,6.85,4.61-2.61-6.5.79-10.86 S 29.21,219.15,26.64,236.1Z" fill="#ec008c"/>
  <path d="M 194.79,44.13 S 191,31.22,192.44,20.38 s 14-18.75,7.09,11.16 c 7-16.76,20.62-22.26,14.3-7.22 A 37.1,37.1,0,0,1,194.79,44.13Z" fill="#ec008c"/>
  <path d="M 228.32,244.22 a 36.87,36.87,0,0,1-2.11-13.74 c .42-7.19,3.81-11.84,5.92-9.51 s .63,9.94.63,9.94,4.86-7.61,7-7.19 S 243.76,229.21,228.32,244.22Z" fill="#ec008c"/>
  <path d="M 226.68,146.19 s -5-22,.86-23.84,4,12.14,4,12.14,8.07-6.85,11.8-6.54 S 244.14,136.54,226.68,146.19Z" fill="#ec008c"/>
  <path d="M 27.87,71.59 S 15.31,69.7,9,63.77,1.5,47.3,18.74,59.59 c -2.92-11.43-1.1-17.08,3.42-15.09 S 28.41,62.69,27.87,71.59Z" fill="#ec008c"/>
  <path d="M 71.47,27.82 s -7.21-3.54-10.19-7.91-.22-11.39,5.14-3.17 c 2.25-6.41,5.76-8.87,6.79-2.41 S 71.47,27.82,71.47,27.82Z" fill="#ec008c"/>
<script type="text/ecmascript" xlink:href="param.min.js"/> 
</svg>
