<?xml version="1.0"?>
<svg xmlns="http://www.w3.org/2000/svg" xmlns:xlink="http://www.w3.org/1999/xlink" id="fixed-colours" viewBox="0 0 250 250">
  <title>burger</title>
  <path d="M 31,109.5 s -5-4.24-.14-21.49 C 36.11,69.25,59.85,32.85,94,22.5 s 79.06-5,107,17.5,26.63,51.87,25,60 a 44,44,0,0,1-4,11.25,119.7,119.7,0,0,1,18,37.25 c 1.81,5.69.52,12.84-7.5,10.25 s -12-2.5-12-2.5,4,1.91,10.25,4.5,3.39,10.69-.75,12.5-8.59,2.6-6,7,5.5,12-9.25,12.5 a 101.25,101.25,0,0,1-3,20.75 s -33.27,24.3-92,22.75-85-27.25-85-27.25 L 31,189.75 s -6.09,3.21-11.52-.93 S 21.94,175,31.25,166.75 c -5.17-19.4-2.46-28.38-2.46-28.38 a 20.28,20.28,0,0,0-10.87,4.14 c -5.69,4.14-9.57,1.55-8.28-5.69 S 16.77,113.64,31,109.5Z"/>
  <path d="M 39.91,103.19 c -2.17-3,3.09-23.27,16.47-40.7,13.11-17.07,39-31.91,70-32.42 S 186.69,39.2,203,59.38 s 14.14,40.7,10,44.32-41.39,26.91-87.44,24.58 S 46.9,112.76,39.91,103.19Z" fill="#f9bec6"/>
  <path d="M 46.38,114.57 s 22,16.56,57.95,18.63 C 96.83,138.89,50.52,142.51,46.38,114.57Z" fill="#ed1b23"/>
  <path d="M 153,132.68 s 28.46-2.59,52-16.3 C 200.57,127.25,183.75,143.8,153,132.68Z" fill="#ed1b23"/>
  <path d="M 39.66,114.57 s -16,6.73-21.73,21 c 11.64-6.47,37.51-10.35,78.13,38,34.41-22.25,92.1-36.22,135.56-23.28-7-19.92-16.82-32.08-22.77-35.44-3.1,14-12.16,23.28-27.16,25.87 s -27.42-1.81-37.25-7.24 c -9.83.78-32.08.26-32.08.26 s -9.05,9.31-29,9.31 S 46.9,136.3,39.66,114.57Z" fill="#fff44f"/>
  <path d="M 37.84,138.63 s -1.29,16.56,3.88,27.42 c 17.07,13.19,36.74,18.11,67,20.44 s 68,5.69,100.64-21 c 1.81-8,1.29-12.42,1.29-12.42 S 160,142,95.28,180.54 C 77.68,157.51,54.4,142,37.84,138.63Z" fill="#962e33"/>
  <path d="M 38.1,171.48 s -14,8.8-10.09,10.87,16.3-4.92,19.4-2.85.78,9.83,7.24,8.54,12.94,1,16,3.88,11.38-3.62,17.07,2.85,7.5,5.69,13.45,3.62,11.38-1.55,15.78,1,11.12.78,14-2.07,9.31-2.59,13.19-1,8,1.29,13.71-2.07,8-2.59,11.38-.78,6.47-2.33,10.61-3.62,6.47.78,10.87,1.29,6.21-7.5,14.49-5.69,16,1.55,14-3.88-4.14-8.54,1-11.38,8-3.62,3.1-5.69 a 83.73,83.73,0,0,0-8.54-3.1 l -.78,6.47 a 105.32,105.32,0,0,1-38.55,19.92 C 152.45,194,83.38,197.61,38.1,171.48Z" fill="#71bf44"/>
  <path d="M 38.36,187.26 s 6-3.88,6.47-1.29,2.33,9.83,10.35,7.24,10.61.52,12.16,2.59,6.21,2.85,10.09,1.29,6.21.26,10.09,3.36,10.61,5.69,16,2.59 a 11.8,11.8,0,0,1,13.19.78,12.88,12.88,0,0,0,15-.78 c 5.43-4.4,6.73-4.92,11.64-2.33 s 10.61.78,15.26-2.85,10.61,3.62,15.78.52,6.73-6.21,11.9-3.62,7.76,2.59,10.61-1,8.54-4.66,9.57-3.36 a 67.59,67.59,0,0,1-1,15.52 S 176,228.14,119.34,227.36 s -78.65-25.09-78.65-25.09Z" fill="#f9bec6"/>
  <path d="M 88,83.78 s -7.76,8.54-3.62,9.83 C 90.6,95.55,88,83.78,88,83.78Z" fill="#fff"/>
  <path d="M 56.73,96.46 s 4.73-9.67,7.24-7 C 67.6,93.35,56.73,96.46,56.73,96.46Z" fill="#fff"/>
  <path d="M 85.45,64.64 s 9.31-5.17,10.35-.52 S 85.45,64.64,85.45,64.64Z" fill="#fff"/>
  <path d="M 70.44,65.93 s -8.28,2.07-7,5.17 S 70.44,65.93,70.44,65.93Z" fill="#fff"/>
  <path d="M 96.05,45.75 s -8.8-2.07-8.8,1.55 S 96.05,45.75,96.05,45.75Z" fill="#fff"/>
  <path d="M 112.35,49.12 s 2.07-9.31,5.69-7.76 S 112.35,49.12,112.35,49.12Z" fill="#fff"/>
  <path d="M 104.59,77.83 s 9.57-5.69,10.35-1.55 S 104.59,77.83,104.59,77.83Z" fill="#fff"/>
  <path d="M 108.21,113.53 s 2.59-9.57,6.47-8 S 108.21,113.53,108.21,113.53Z" fill="#fff"/>
  <path d="M 129.43,94.39 s -2.07-8,1.29-8 S 129.43,94.39,129.43,94.39Z" fill="#fff"/>
  <path d="M 148.83,107.32 s -9.05,3.62-5.69,7.76 S 148.83,107.32,148.83,107.32Z" fill="#fff"/>
  <path d="M 186.86,101.89 s -10.09,0-9.83,4.14 S 186.86,101.89,186.86,101.89Z" fill="#fff"/>
  <path d="M 161.76,80.16 s -.78-10.61,2.85-9.83 S 161.76,80.16,161.76,80.16Z" fill="#fff"/>
  <path d="M 141.07,60.5 s -9.57,3.1-7.5,6.73 S 141.07,60.5,141.07,60.5Z" fill="#fff"/>
  <path d="M 146,46.27 s 7-6,8.28-3.1 S 146,46.27,146,46.27Z" fill="#fff"/>
  <path d="M 173.66,55.58 s 8-4.66,8.8-.78 S 173.66,55.58,173.66,55.58Z" fill="#fff"/>
  <path d="M 192,75.25 s -8.8,3.88-5.43,6.73 S 192,75.25,192,75.25Z" fill="#fff"/>
  <path d="M 204.19,91.29 s 6.47-4.92,7.24-.78 S 204.19,91.29,204.19,91.29Z" fill="#fff"/>
  <path d="M 27,78.45 S 11,70,9.17,75.58,27,78.45,27,78.45Z" fill="#6dcff6"/>
  <path d="M 109.29,14.6 s 1-13.27-3.3-12.89 S 109.29,14.6,109.29,14.6Z" fill="#6dcff6"/>
  <path d="M 47.54,44 S 22.32,22.5,13.69,30.52,34.65,39.71,47.54,44Z" fill="#6dcff6"/>
  <path d="M 54.73,31.18 S 29,17.8,38,10.17 C 43.84,5.17,50.26,26.12,54.73,31.18Z" fill="#6dcff6"/>
  <path d="M 211.69,31.38 s 17-28,27.16-22.07 S 211.69,31.38,211.69,31.38Z" fill="#6dcff6"/>
  <path d="M 221.53,47.26 s 17.19-9.81,19.63-3.5 S 221.53,47.26,221.53,47.26Z" fill="#6dcff6"/>
  <path d="M 229.65,111.3 s 14.56-6,15.87-.5 S 229.65,111.3,229.65,111.3Z" fill="#6dcff6"/>
  <path d="M 169.65,234.94 s 9.13,7.5,5.94,10.32 S 169.65,234.94,169.65,234.94Z" fill="#6dcff6"/>
  <path d="M 164.32,15.45 s 3.48-13.07,7.94-11.08 S 164.32,15.45,164.32,15.45Z" fill="#6dcff6"/>
  <path d="M 29.23,211.11 S 3.7,217.66,9.64,226.31,29.23,211.11,29.23,211.11Z" fill="#6dcff6"/>
  <path d="M 56.85,228.84 S 43.13,240.1,49.21,243.7,56.85,228.84,56.85,228.84Z" fill="#6dcff6"/>
  <path d="M 220.09,218.4 s 28.71,9.29,22.8,20.27 S 220.09,218.4,220.09,218.4Z" fill="#6dcff6"/>
<script type="text/ecmascript" xlink:href="param.min.js"/> 
</svg>
