<?xml version="1.0"?>
<svg xmlns="http://www.w3.org/2000/svg" xmlns:xlink="http://www.w3.org/1999/xlink" viewBox="0 0 250 250">
  <title>big-lips-brown</title>
  <g id="fixed-colours">
    <path d="M 16.67,108.67 s 10.33,5,25-5 S 75,81.33,90.33,80 s 25.33,4,31,8 c 12.67-13,32-14.33,51-4.33 s 31,22,52.33,20 c -5.33,18.33-20.33,55-57.33,77.67 s -80.67,9-103.33-4.67 S 23,132.67,16.67,108.67Z" fill="#652730"/>
    <path d="M 83.5,92 c 13.73-5.06,29.75,1.25,29.75,5.75 S 100.75,98.5,89,102 c -12.38,3.69-17,11-23,9.25 S 69.25,97.25,83.5,92Z" fill="#fff" opacity="0.5"/>
    <path d="M 135.25,95 c -.69-3.89,9-7.75,20.75-5.5 s 27,11.5,24.75,16 C 177.3,112.4,169,104,155,101,145,98.85,136,99.25,135.25,95Z" fill="#fff" opacity="0.5"/>
    <path d="M 72.75,157.25 c 1.75-2.75,7.75-1.75,14.75,1.25 s 37.5,9,54.5,2.5 c 13.89-5.31,24.25-10.75,25.75-7.5 s -5.5,16-20.75,22.25 S 100.75,181,87.5,174,70.41,160.93,72.75,157.25Z" fill="#fff" opacity="0.5"/>
    <path d="M 135.31,57.91 s -15.65-13.33-19.13-27.24,2.9-23.76,9.27-18,8.11,16.81,8.11,16.81,2.32-15.65,13.91-20.28 S 159.65,27.77,135.31,57.91Z" fill="#ec008c"/>
    <path d="M 211.08,70.53 s -1-12.87,2.47-22.77 S 230.38,32.92,218,59.64 c 9.9-14.35,23.76-16.83,14.85-4 A 35.6,35.6,0,0,1,211.08,70.53Z" fill="#ec008c"/>
    <path d="M 203.14,235.65 s -6.44-16.64-5.37-34.9,9.66-30.07,15-24.16,1.61,25.24,1.61,25.24,11.92-21.15,17.72-18.26 C 237,186,242.34,197.53,203.14,235.65Z" fill="#ec008c"/>
    <path d="M 100.35,239.47 S 80.26,229.61,82.48,224 s 11.83,4.5,11.83,4.5 S 94,218,96.6,215.3,103.76,220,100.35,239.47Z" fill="#ec008c"/>
    <path d="M 31,205.89 s -15.44-5.4-22-14.41-5.59-22.65,13.28-3 c -1-15.17,2.69-21.88,7.94-18.29 S 33.78,194.76,31,205.89Z" fill="#ec008c"/>
    <path d="M 40,45 S 27.7,40.42,22.15,33.83 s -1.09-18.42,8.95-6 c -1.09-12.19,6.76-15.32,9.47-5 S 40,45,40,45Z" fill="#ec008c"/>
  </g>
  <g id="outline">
    <path d="M 188,87.33 c -14.67-11.67-50.33-23.33-66.33-3-30-26-66.67,6-82,16.67 s -28,4.33-28,4.33 c 8,29.33,41,92.33,108.67,92.33 S 223,131.33,228.67,100.33 C 221,102,202.67,99,188,87.33Z m -142.33,18 C 64,94,92.67,72.67,121.33,92.67,145,72,168.67,84.33,182,92.67 c 12.26,7.66,25.63,13.05,36.52,13.1-4.92,2.87-13.57,7.88-22.52,12.9-13.67,7.67-30.89,5.94-38.67,4 a 29.44,29.44,0,0,0-26,5.67 c -6.67,5.5-19.33,3.17-24.67.17-5.17-2.91-11.33-5.5-21.33-3.17 s -23.33,9.33-41.67,4 a 48.54,48.54,0,0,1-23.74-16.08 L 19.33,112 S 27.33,116.67,45.67,105.33Z m 121.67,72 C 136.67,198,87,192,60.67,169.33 c -18-15.52-27.61-30.09-34-42.24,11,8.58,21.45,9.9,35,9.9,16.67,0,28.67-11.33,40.33-3.33 s 26.33,6,32.67,0,14.67-7.33,19.33-6,15,4.33,31.33,1 c 12-2.46,27-12.16,34-17.09 A 138.64,138.64,0,0,1,167.33,177.33Z"/>
  </g>
<script type="text/ecmascript" xlink:href="param.min.js"/> 
</svg>
