<?xml version="1.0"?>
<svg xmlns="http://www.w3.org/2000/svg" xmlns:xlink="http://www.w3.org/1999/xlink" id="fixed-colours" viewBox="0 0 250 250">
  <title>banana</title>
  <path d="M 128.15,121.92 s 2.34-24.4,19.72-29.08 c -12-4.35-24.73.33-30.42,8 C 119.12,108.56,128.15,121.92,128.15,121.92Z" fill="#fad5e5"/>
  <path d="M 67.65,135 s -21.06,6.68-30.75,16.38-15,18-11,24.4,11.7,9,11.7,9,3,15,13.37,12.37 c 3.34-23.06,21.39-49.8,21.39-49.8Z" fill="#fad5e5"/>
  <path d="M 124.14,124.93 s -9.36,11.7-12.7,30.42-1.34,36.77-4.35,48.46-7.69,25.74-25.74,13.37 c -11,4-28.08,0-29.41-10.36-1-8.36,2.34-41.11,22.73-59.49 S 111.43,124.93,124.14,124.93Z" fill="#fff" stroke="#000" stroke-miterlimit="10" stroke-width="3"/>
  <path d="M 72.33,147.33 s -14-36.1-16-65.51 S 63,22.66,75.67,20.65,93.05,30,95.39,38.7 s 21.06,66.51,32.42,84.9 C 106.09,125.6,84.7,136.63,72.33,147.33Z" fill="#fffcd5" stroke="#000" stroke-miterlimit="10" stroke-width="3"/>
  <path d="M 112.6,150 s 34.09,54.15,93.5,79.46 c -6.27,5.51-24.06,6-52.89-.25 s -44.12-29.33-44.12-29.33-.5-16.8-.5-22.81 S 109.09,154.26,112.6,150Z" fill="#d2aa55" stroke="#000" stroke-miterlimit="10" stroke-width="3"/>
  <path d="M 127.14,121.92 S 130.4,96.61,151,92.6 c 13.29,4.51,14.79,11.78,9.78,16 s -13.54,4.51-13.54,4.51,6.27,9.28-.75,14 S 127.14,121.92,127.14,121.92Z" fill="#d2aa55" stroke="#000" stroke-miterlimit="10" stroke-width="3"/>
  <path d="M 112.6,150 s 7-24.32,14.79-27.07 c 6,11.78,17,29.33,31.84,42.36 s 49.3,47.55,51.47,64.26 c -4.35.17-11.36-3.09-18.88-7.1 s -38.35-23.31-54.9-41.61 S 112.6,150,112.6,150Z" fill="#fff56d"/>
  <path d="M 210.7,220.52 c -1-7-8.36-18.38-21.73-30.42 s -42.78-41.45-57.15-65.18 S 105.75,58.42,99.74,41,86.37,15,74.67,15.64,52.27,43.38,51.94,74.46 c -.27,25,9.43,56.47,18.59,78.06 a 46.6,46.6,0,0,1,5.84-7 c -.46-1.07-.92-2.14-1.37-3.23 C 60.58,107.43,60.63,81.48,61.3,65.44 S 66.31,25.33,79,24 s 15,21.06,20.39,38.77,21.39,54.81,32.09,72.86,41.45,51.81,53.14,60.5 S 207,221.19,207,225.54 c -3.34,5.35-9.36,7.35-21.39,6.68 s -43.12-9.36-65.51-27.74 c -4.17-3.42-8-6.86-11.51-10.34 a 46.79,46.79,0,0,1-1,11.07 c 14.66,13.47,32.29,24.63,50.58,29,34.76,8.36,47.13-.67,47.13-.67 s 13.7,6,15.71-.67 S 218.06,224.54,210.7,220.52Z"/>
  <path d="M 128.15,121.92 s -28.74,2.34-47.46,14.71-37.77,50.8-30.75,71.86,31.75,10.7,31.75,10.7 l -2-3.68 s -10,5-19.72-3.68-4-32.09,7-49.13,32.42-33.42,54.81-37.1 c -12.37,14.71-17,40.11-15.71,53.48 s -1.34,34.43-8,39.11 S 75,216.18,79,189.44 c -5.68,10.7-7.35,29.75,5.35,34.09 s 23.4-5,25.74-15,2-26.07,2.67-42.45 S 120.46,132,128.15,121.92Z"/>
  <path d="M 51.94,202.14 s -10-1.34-14.37-7.69-2.67-25.74,17.38-34.76 c -10.36,8.69-15.37,19.39-13.37,27.74 s 10.36,8,10.36,8Z"/>
  <path d="M 66,136.63 s -16.38,7-25.07,14-14.37,18.38-12.7,24.4,10,7.69,10,7.69 l -.67,4.35 s -14-3-16-12.7,8.36-30.08,43.78-40.11 C 67.32,135,66,136.63,66,136.63Z"/>
  <path d="M 118.12,102.21 s 7-9,24.06-8.69,19.05,7.69,18.72,11.7-6.68,9.36-18.72,5.35 c 4.35,4.68,8.36,9.69,4.68,14.71 s -16.38-1.67-20.39-6.68 a 35.09,35.09,0,0,0,1,6.35 s 8.36,6.35,14.71,5.68,13.37-9.36,7.69-15.37 c 14.37-2,19.72-11,11.7-19.72 s -36.77-9.36-45.12,3 C 116.11,102.21,118.12,102.21,118.12,102.21Z"/>
  <path d="M 145.53,91.18 s -16,6.68-19.05,27.41 a 19.36,19.36,0,0,0,3,4.68 s 1.34-24.73,23.06-30.08 C 149.2,92.18,145.53,91.18,145.53,91.18Z"/>
  <path d="M 111.43,151.67 s 11.36,19.05,36.1,41.11,53.81,38.1,61.17,39.11 l 2-2.34 s -25.07-10.36-36.77-19.72-33.09-28.41-38.44-34.43-20.39-27.74-21.39-30.08 C 113.11,147.33,111.43,151.67,111.43,151.67Z"/>
  <path d="M 140.68,77.81 s -13.54-11.53-16.54-23.56,2.51-20.56,8-15.54,7,14.54,7,14.54,2-13.54,12-17.55 S 161.74,51.74,140.68,77.81Z" fill="#ec008c"/>
  <path d="M 205.46,53.16 S 204.6,42,207.6,33.46 s 14.56-12.84,3.85,10.27 C 220,31.32,232,29.18,224.29,40.31 A 30.79,30.79,0,0,1,205.46,53.16Z" fill="#ec008c"/>
  <path d="M 208.16,167.52 s -5.57-14.4-4.64-30.19,8.36-26,13-20.9,1.39,21.83,1.39,21.83,10.68-16.72,15.33-15.79 S 242.07,134.54,208.16,167.52Z" fill="#ec008c"/>
  <path d="M 55.2,240 s -19.2-2.56-18.92-7.79,10.94.44,10.94.44-3.1-8.53-1.75-11.44 S 52.64,223.11,55.2,240Z" fill="#ec008c"/>
  <path d="M 38.61,131.32 S 22,128.81,13.68,121 s -10-21.8,12.84-5.53 c -3.86-15.13-1.46-22.6,4.52-20 S 39.33,119.54,38.61,131.32Z" fill="#ec008c"/>
  <path d="M 46.4,35.79 S 35.8,31.85,31,26.15,29.07,10.21,37.75,21 c 2.25-9.31,6.82-13.25,9.18-4.34 S 46.4,35.79,46.4,35.79Z" fill="#ec008c"/>
<script type="text/ecmascript" xlink:href="param.min.js"/> 
</svg>
