<?xml version="1.0"?>
<svg xmlns="http://www.w3.org/2000/svg" xmlns:xlink="http://www.w3.org/1999/xlink" id="fixed-colours" viewBox="0 0 250 250">
  <title>champagne-bottle-popping</title>
  <path d="M 76,242 s -44.67-1.33-48.67-43.33 c 13-23.67,32-47.67,55.67-58 s 37.33-20,49.33-36 c 1-7.33,3.33-10.67,10-11.67-6.33-7.33-5.67-17.33,1-23.33 s 8.67-15,1.33-18-15-7.67-11-15 A 12.42,12.42,0,0,1,151.33,32 c 5.33,3.33,2.33,5.67,1.33,8.67 s 3.67,2.67,6,2.67,4.67,4.67,3,11.33 S 165,57,165,53.33 s -2-11.67,3-11,7.67,10,7.33,16-3.33,8.33-8,11-9.67,8.33-6,11.33,9.33-4,11.67-7.33,3.33-8.67,7.67-8.67,6,4.67,2.33,10.33-9.33,15.33-6.33,16,7.67-3.67,8.67-10.67,3-10.67,6.67-10.33,7.67-5.33,14.33-2.33 S 216,77,213.67,80 s -9.67.67-13,.67-5,5.67-1,5.67,8,2.67,6,4-4,3.33-3.33,5.33-3,2.33-5.67,1.33-7.67-1.67-7,.67,7.33-.33,12,5 S 205,114,200.33,115.33 s -8.33-.67-9.33-3-3.33-.33-4.67,2-9,4.67-11.33-.33-4.33-8.67-8.67-8.33 a 17.71,17.71,0,0,0-8,3 s 1.67,8-9.67,10.33 c -12,13-18.33,30-21.67,40.67 s -9,35-19,48.33 S 83.33,236.33,76,242Z"/>
  <path d="M 139,69.67 s -6.83-2.33-11.67-1.83-11.5-3.17-10.5-9.5,8.33-7.17,15-4.33 S 138.83,64,139,69.67Z"/>
  <path d="M 135.5,65.67 a 35.7,35.7,0,0,0-8.83-.67 c -4.17.33-6-4.33-3.67-7.5 S 134.5,55.67,135.5,65.67Z" fill="#f2e3bc"/>
  <path d="M 173.5,42.5 s -8.17-7.83-8.33-15.33,5.83-10.33,9.67-6,3.17,9,1.83,12.83 S 173.5,42.5,173.5,42.5Z"/>
  <path d="M 172.5,36 a 14.68,14.68,0,0,1-3.83-7.5 c -.83-4.67,2.67-7.5,4.33-4.67 S 172.33,34.17,172.5,36Z" fill="#f2e3bc"/>
  <path d="M 202.67,60.83 s 8.5-9,15.83-9.67,8.17,7.33,4.17,9.67 S 202.67,60.83,202.67,60.83Z"/>
  <path d="M 209.5,59.17 s 3.83-4.17,7.67-5,5.5,3.67,1.67,4.83 S 209.5,59.17,209.5,59.17Z" fill="#f2e3bc"/>
  <path d="M 204.83,97 s 9.83,6,16.83,3.83,4.17-11.33-1.83-10.5 S 208,97.5,204.83,97Z"/>
  <path d="M 211.67,97.33 s 5.17,1.67,8.67.67,2-4.33,0-4.5 S 215.5,96.5,211.67,97.33Z" fill="#f2e3bc"/>
  <path d="M 145.17,101.67 S 151.5,87,154.5,81.5 c -4.5,4.67-8,10.67-8.5,10.5 a 10.9,10.9,0,0,1-4.5-11.33 c 1.33-7.33,6.5-9.83,8.67-12.83 s 5.17-11.17.33-15.67-12-6.33-12-11.33,6.83-7.67,9.17-6-.67,7,2,9.67,7.33,1,8.33,4.17-.83,10.83,3.17,12,7-3.17,7-7,.17-6.67,1.5-6.17,3,7,1.83,11.17-6,8.17-9,9.33-8.83,10.33-2.83,14.67,11.5-2,13.33-4.5,5.17-10.83,7.5-10.17-.5,7.33-2.83,10.5-7.83,10.5-3.83,14.33,10.83.33,12.67-5.67,2.83-12.5,5.33-12.5 a 13,13,0,0,0,8-2.83 c 2.5-2,6.33-1.33,8.83,1.83 s 1,4.67-2.17,4.17-9.33-.67-11.67,3.83-.67,6.33,1.33,6.67,6.83-.17,5,1.17 S 199,91.83,199.5,93 s -.33,2.5-2.33,1.67-5.83-3.17-8.5-2.33-6,6-1.33,8,10.83.5,13.17,5-.83,8.33-3.83,7-5.5-4.83-8.17-4-4.33,5.67-8.17,4.5-5.67-6.5-7.17-8.83-6.67-3.67-8.67-2.83 a 25.33,25.33,0,0,0,4.17-5.33 s -15.17,9-18.5,12.33 A 16.36,16.36,0,0,1,145.17,101.67Z" fill="#fff"/>
  <path d="M 193.1,34.05 s 1,10,12.17,12.67 c 11.67-9.5,16.17-14.67,19-17 s -.17-11.33-3.17-14-11.5-5.67-16-1 S 193.1,34.05,193.1,34.05Z"/>
  <path d="M 197.1,35.05 s 7-11.67,9.83-15.5 c 1.83,6.67,9,9.33,11.67,9.33-5.17,5.33-12.67,13.33-12.67,13.33 S 200.44,42.89,197.1,35.05Z" fill="#dbb787"/>
  <path d="M 209.27,16.05 s 0,10.17,12.83,11.17 C 223.27,19.72,216.6,14.05,209.27,16.05Z" fill="#dbb787"/>
  <path d="M 144,97.5 s -4-2-5.5,1.33 a 24.5,24.5,0,0,0-1.83,6.83 s 1.17,6,10.33,9.33 c 5.83.17,8.5-3.17,7.83-5 a 33.58,33.58,0,0,1-4.67,1 s -7-5.83-8.17-9.5 A 18.63,18.63,0,0,1,144,97.5Z" fill="#509315"/>
  <path d="M 134,108.33 s 2.67,8,11,9.83 c -4.67,4-10.33,12.17-10.33,12.17 s 2.67-8-1.17-10.33-10.5,3-13.5,6.33 c -1.33-1.17-2-1.67-2-1.67 S 130.17,113.5,134,108.33Z" fill="#dbb787"/>
  <path d="M 132.17,123.67 c 2.4,2-1.17,7.83-2.5,9.5 s -5.5,4-7,2.83,0-6.83,2.33-9.17 S 130.33,122.17,132.17,123.67Z" fill="#dbb787"/>
  <path d="M 114.17,127.83 l 3.5,2.33 s -1.33,6.5,2.83,9.5,8.83-1.5,8.83-1.5 l 1.33.83 s -7.17,14.67-10.83,29.17 a 173.08,173.08,0,0,1-8.5,25.33 l -7-2.83 s 7-6.17,4.67-13.33-18.5-2.33-20.83-1.5 c 1.5-12.33.33-16.83-5-18.5 s -10.5,4.17-10.5,4.17-4-4.17-4.83-6 c 9.17-8,20.67-12,26.33-14.33 S 110.33,132,114.17,127.83Z" fill="#509315"/>
  <path d="M 69.67,165.17 a 127.63,127.63,0,0,0-14.5,37.17,112.29,112.29,0,0,1-13.5-17 s 10.5-18,23-26.5 A 62.53,62.53,0,0,0,69.67,165.17Z" fill="#f8f6dd"/>
  <path d="M 65.5,212 a 153.56,153.56,0,0,0,35.17-18,40.18,40.18,0,0,0,7.83,3.33,113.09,113.09,0,0,1-21.17,27.5 C 78.5,222.67,65.5,212,65.5,212Z" fill="#f8f6dd"/>
  <path d="M 39.17,188.67 a 93.83,93.83,0,0,0,15,18.5 c 0,4.67-.5,7.83,0,7.83 a 40.22,40.22,0,0,0,7.33-1.67 c 6.33,5.83,18.67,13.67,23.67,15-3.33,3.5-9,9.5-9,9.5 S 53.83,235.67,43.33,224 s -11.5-23.5-11.5-23.5Z" fill="#509315"/>
  <path d="M 57.5,210.67 s 3.33-17.83,8.5-29,10.67-20.17,15.5-19.5,3.33,13,1.83,19.67 c 9-4.17,19.67-5.5,21.33-3.5 s -2.33,11.5-15.33,18.33 S 57.5,210.67,57.5,210.67Z" fill="#f6adca"/>
  <path d="M 204.85,30.25 c -.93-.74-.4-3,1.45-1.87 S 207.48,32.34,204.85,30.25Z"/>
  <path d="M 206.65,38.21 c -1.52-.25-2.57-3.07-.15-2.57 S 209.7,38.72,206.65,38.21Z"/>
  <path d="M 200.4,36.3 a .79.79,0,1,0-.81-1.33 C 198.6,35.68,198.66,37.14,200.4,36.3Z"/>
  <path d="M 211.73,29.74 c -.57-.73.81-2,1.27-.74 S 212.6,30.85,211.73,29.74Z"/>
  <path d="M 166.5,90.5 c .95-.09.58,1,.17,1 S 165.58,90.58,166.5,90.5Z" fill="#f2e3bc"/>
  <path d="M 145.83,79 c .86-.94,2.42-1.17,2.92.5 s -1.25,2.25-2,2.25 A 1.82,1.82,0,0,1,145.83,79Z" fill="#f2e3bc"/>
  <path d="M 155.17,70.33 c .51-.51,1.33.42.75.92 S 154.42,71.08,155.17,70.33Z" fill="#f2e3bc"/>
  <path d="M 120.5,223.07 c 3.29-3.29,8.67,2.71,4.87,6 S 115.62,227.95,120.5,223.07Z" fill="#f6adca"/>
  <path d="M 185.25,42.94 c 1.64-1.64,4.33,1.35,2.43,3 S 182.82,45.38,185.25,42.94Z" fill="#f6adca"/>
  <path d="M 154.33,91.83 a 2.55,2.55,0,0,1,2.17,3.25,2.62,2.62,0,0,1-2.92,1.42,2.82,2.82,0,0,1-1.75-2.92 A 2.68,2.68,0,0,1,154.33,91.83Z" fill="#f2e3bc"/>
  <path d="M 236,186.78 c 7.92,1.58,8.28,8.28,7.42,11.13 s -5.71,6-10,4.85-6.56-6.85-6-10 S 233.13,186.21,236,186.78Z" fill="#f6adca"/>
  <path d="M 172.83,98.42 c .32-.84,1.67-.67,2-.42 a 1.5,1.5,0,0,1,0,1.75,1.92,1.92,0,0,1-2,.17 C 172.33,99.5,172.58,99.08,172.83,98.42Z" fill="#f2e3bc"/>
  <path d="M 186.25,104.92 c -.36-1.27.92-2.08,1.67-1.42 s .75,1.33.33,1.75 S 186.58,106.08,186.25,104.92Z" fill="#f2e3bc"/>
  <path d="M 138.85,176.41 c -1.2-4.21,3-6.92,5.54-4.71 s 2.49,4.43,1.11,5.81 S 140,180.28,138.85,176.41Z" fill="#f6adca"/>
  <path d="M 195.89,227.19 c -.75-2.64,1.91-4.34,3.47-3 s 1.56,2.78.69,3.65 S 196.59,229.62,195.89,227.19Z" fill="#f6adca"/>
  <path d="M 230.89,41.86 c -.75-2.64,1.91-4.34,3.47-3 s 1.56,2.78.69,3.65 S 231.59,44.29,230.89,41.86Z" fill="#f6adca"/>
  <path d="M 22.56,235.86 c -.75-2.64,1.91-4.34,3.47-3 s 1.56,2.78.69,3.65 S 23.25,238.29,22.56,235.86Z" fill="#f6adca"/>
  <path d="M 189.08,84.33 c 0-1.17,1.75-1.17,1.83.08 S 189.08,86.17,189.08,84.33Z" fill="#f2e3bc"/>
  <path d="M 200.25,72.83 c 1.31-1.14,2.83,0,3.25,1 s -.92,1.92-2.08,2 S 198.92,74,200.25,72.83Z" fill="#f2e3bc"/>
  <path d="M 168.45,142 c 3.2-2.8,6.94,0,8,2.45 s -2.25,4.7-5.11,4.9 S 165.19,144.9,168.45,142Z" fill="#f6adca"/>
  <path d="M 173.13,7 c 2.56-2.24,5.57,0,6.39,2 s -1.8,3.77-4.09,3.93 S 170.51,9.28,173.13,7Z" fill="#f6adca"/>
  <path d="M 154,50.5 a 1.42,1.42,0,0,1,2.25-.08,1.38,1.38,0,0,1-.83,2.17 A 1.36,1.36,0,0,1,154,50.5Z" fill="#f2e3bc"/>
  <path d="M 107.16,13.47 a 2.58,2.58,0,0,1,4.08-.15,2.5,2.5,0,0,1-1.51,3.93 A 2.47,2.47,0,0,1,107.16,13.47Z" fill="#f6adca"/>
  <path d="M 141.67,40.42 a 1.16,1.16,0,0,1,1.58,1,1.26,1.26,0,0,1-1.42,1.25 A 1.22,1.22,0,0,1,141.67,40.42Z" fill="#f2e3bc"/>
  <path d="M 195.54,106.38 a 2,2,0,0,1,2.25,1.88,2.38,2.38,0,0,1-2.5,1.75 C 194,109.88,193.54,106.63,195.54,106.38Z" fill="#f2e3bc"/>
  <path d="M 159.39,205.77 c 2.62-.33,4.92,2.07,4.66,3.88 a 4.93,4.93,0,0,1-5.17,3.62 C 156.28,213,155.25,206.29,159.39,205.77Z" fill="#f6adca"/>
  <path d="M 14.39,180.44 c 2.62-.33,4.92,2.07,4.66,3.88 a 4.93,4.93,0,0,1-5.17,3.62 C 11.28,187.68,10.25,181,14.39,180.44Z" fill="#f6adca"/>
  <path d="M 214.16,132.09 c 8.44-.91,15.69,6.92,14.76,12.73 s -8.53,12.34-16.83,11.37 S 200.82,133.53,214.16,132.09Z" fill="#f6adca"/>
  <path d="M 23.68,84.93 c 7.39,1.48,7.73,7.73,6.93,10.39 s -5.33,5.6-9.33,4.53-6.13-6.4-5.6-9.33 S 21,84.39,23.68,84.93Z" fill="#f6adca"/>
  <path d="M 68.1,110.31 c 0-6.92,10.38-6.92,10.87.49 S 68.1,121.18,68.1,110.31Z" fill="#f6adca"/>
  <path d="M 87.71,57.89 c 3.31-2.89,7.18,0,8.23,2.53 s -2.32,4.86-5.28,5.07 S 84.33,60.85,87.71,57.89Z" fill="#f6adca"/>
  <path d="M 34.71,131.56 c 3.31-2.89,7.18,0,8.23,2.53 s -2.32,4.86-5.28,5.07 S 31.33,134.51,34.71,131.56Z" fill="#f6adca"/>
  <path d="M 37.87,35.48 c 4.45-7.42,17.31-8.65,23.36-.87 S 63,55.38,52.58,57.11,30.08,48.46,37.87,35.48Z" fill="#f6adca"/>
  <path d="M 116.06,84.9 c 2.9-.36,5.44,2.29,5.15,4.29 s -2.86,4.29-5.72,4 S 111.48,85.47,116.06,84.9Z" fill="#f6adca"/>
  <path d="M 177.63,72.63 c .88-.09,1.75,1.44.13,1.88 S 176.44,72.75,177.63,72.63Z" fill="#f2e3bc"/>
<script type="text/ecmascript" xlink:href="param.min.js"/> 
</svg>
