<?xml version="1.0"?>
<svg xmlns="http://www.w3.org/2000/svg" xmlns:xlink="http://www.w3.org/1999/xlink" id="fixed-colours" viewBox="0 0 250 250">
  <title>champagne-bottle</title>
  <path d="M 82.75,204.5 s -4.5-36.75,2.25-50.25 c 6,4,14.75,4.25,14.75,4.25 s -2.5,25.75,17,51.25 C 102.5,209.25,82.75,204.5,82.75,204.5Z" fill="#f8f6dd"/>
  <path d="M 161.25,201.5 s -23.5,8.25-36,8.25 c 10.25-14,22.25-37.75,19.75-52,8.75-2,13-2.5,13-2.5 S 164,180.25,161.25,201.5Z" fill="#f8f6dd"/>
  <path d="M 120.5,215.5 S 105.25,196,101.25,180 s .25-29.25,4.75-31.5,11.75,4.25,14.75,13.5 c 5.75-12.75,14-15.75,20-12.75 s 6,13.5,2.5,24.75 S 128.25,206.75,120.5,215.5Z" fill="#f6adca"/>
  <path d="M 125.5,13 c 8.42-1.8,19.5,4.67,22.33,18.5 s -.5,30.83-2.17,41.17,2.5,24.5,6.5,30.83,3.5,21-.83,26.17-8.83,7.67-17.67,4 S 123,124.5,125,116.5 s 3.17-14.83,2.67-16.67 c -7.17-1.5-12.67-9-10.67-24.5 s 9.17-36.17,2.5-44.33 a 45.44,45.44,0,0,1-6.5-1.12 S 113.83,15.5,125.5,13Z" fill="#fff"/>
  <path d="M 116.25,82.88 a 54.73,54.73,0,0,1-6.5-1.12 c 2.38-17,1.5-41-2.25-47-5.12-6-5.62-13.75,7.5-12.37-2,5.75-2,7.5-2,7.5 a 23.16,23.16,0,0,0,7.5,1 c 3.38,8.63.88,18.75-.62,26.13 S 115.63,74,116.25,82.88Z" fill="#dbb787"/>
  <path d="M 83,210.17 a 71.18,71.18,0,0,0-11.5,1.5 c -4.5,1.17-7.5,4.17-4.5,6.17 s 7.67,3,4.5,4.67-12.17,3.33-12.83,6,3.83,6.67,20,8.33,55.17,4.5,72.17.33,19.17-8,17.5-12-2.17-4,2.67-5.83,10.83-5.33,5.33-7.83-15.67-2.33-15.67-2.33 L 156.33,224 s -16.83,7.83-35,7.67-37-9.33-37-9.33Z" fill="#f2e3bc"/>
  <path d="M 84,155 s 3.5-21.75,10-35,15.5-35.83,15.5-37.75 c 5,1,7.25.5,7.25.5 s -1,16.5,11.75,17 c -1.75,12.5-7,23.25-.5,29.25 s 18.75,9.25,25,1.25 c 3.75,10.5,4.5,23.5,4.5,23.5 S 148.75,157,146,157 c -2-8-8-9.5-12.5-9.25 S 121.75,159.25,121,161 c -3.5-7.25-7.25-11.75-13-12.25 s -7.75,8.25-8,11 C 94,158.5,84,155,84,155Z" fill="#509315"/>
  <path d="M 84,205 s 17.75,4.25,32.75,4.75 c 2,3.25,3.75,5.75,3.75,5.75 l 4.75-5.75 s 25.75-2.75,34-7.25 a 144.2,144.2,0,0,1-4,22 s -32.25,16.25-69.5-2 C 83.75,209.5,84,205,84,205Z" fill="#509315"/>
  <path d="M 156,132.5 c 6.25-11,2.5-20.5-3.25-35.75 S 150,72.5,152.25,52,146.5,11.5,132,9.5 a 19,19,0,0,0-20,10.25 s -7.25-1.75-10,4.5,3.75,11.25,3.75,11.25 c 11,43.5-8,64-19.25,92.75 s -10.5,61-4,96.25 c 35.75,21.25,76.25,1.75,76.25,1.75 s 3-6.5,4.75-21.5 S 165.5,157,156,132.5Z M 123.33,16.33 c 8.5-3.83,20.33,3.33,22.5,18.33 s -3.17,29.83-3.33,43,5.17,24.5,7,31,2.83,23-7.67,24.33-15.33-6.67-14.5-15,5.5-19-.5-28.33 a 24.38,24.38,0,0,1,.33,8.33,12.27,12.27,0,0,1-7.67-7.83 c -2.17-6.33-1.17-18.67,1.33-28.67 s 5.5-27.83,0-32.17 a 17.49,17.49,0,0,1-6-.83 A 14.08,14.08,0,0,1,123.33,16.33Z m 29.5,206.17 c -37.67,16.17-64.67-1.17-64.67-1.17-8.58-47.67.33-80.08,6.58-94.33 s 13.75-28.75,17-48.75,1.5-36.75-1.25-43.75 c -2.75-1.25-4.5-5.25-3.25-7.75 s 5.5-2,5.5-2 l -1.25,4.5-2,.5 s 5.75,3,8.5,2.75 c 1.25,1.75,3.5,7,2,16.25 s -5.5,20.5-5.25,35.5,11.75,17,11.75,17 a 57.9,57.9,0,0,1-2.17,10.42 c -1.5,4.33-6.83,15.67,3.83,22 S 151,135.83,151,135.83 s .83,3,3.5,14.67 S 161.67,191.17,152.83,222.5Z"/>
  <path d="M 109.5,80.33 s 5,1,6.83.67 a 14.62,14.62,0,0,0,.17,3.5 s -5,.17-7.67-.83 A 3.07,3.07,0,0,0,109.5,80.33Z"/>
  <path d="M 120.75,158.5 C 110,132.75,94.5,147.75,97.5,171.5 s 22.75,46.25,22.75,46.25 c 11.5-10.5,23.75-32.25,27.25-52.5 S 131.5,136.25,120.75,158.5Z M 140.5,175 A 101,101,0,0,1,120,212.25 S 109.25,198,104.5,182 s -2-30.5,3.5-31.25,11.25,10.75,12.5,15.5 c 4.5-11,12.25-16.5,16.75-15.75 S 146,156.5,140.5,175Z"/>
  <path d="M 85.38,152.75 a 128.42,128.42,0,0,0,14,4.25,22.1,22.1,0,0,1-.25,4.63 S 89,160.25,84,156.63 A 7.05,7.05,0,0,1,85.38,152.75Z"/>
  <path d="M 145,155.25 s 9.63-1.87,12.75-3.62 a 24.52,24.52,0,0,1,.5,4.5 s -7.25,3.13-11.87,3.38 S 145,155.25,145,155.25Z"/>
  <path d="M 83,203.13 s 18,5,32.38,5 c 2.13,2.13,1.75,2.75,1.75,2.75 s -18.25.25-33.12-4.37 C 81.88,203.88,83,203.13,83,203.13Z"/>
  <path d="M 127,208.13 s 20.5-2.25,32.75-8.5 a 24.42,24.42,0,0,1-.12,4.5 s -13.62,6-34.75,7 C 125.75,209.75,127,208.13,127,208.13Z"/>
  <path d="M 81.88,211.25 s -5.12.63-9.75,1.63-7.12,3.5-1.87,5,7.25,4.5,1.25,6.5-16.62,3.63-9.12,7.38,39.63,6,56.75,6.38,35.75-1.25,44.63-7.12-2.75-9.87,2.5-11.5,13.38-5.12,8.88-6.75-14.5-1.62-14.5-1.62 l .75-4 s 9,1.25,13.88,2.5,8.75,4.13,1.88,8.13-10.5,3.38-8.62,5.13,3.75,6.5-1.87,10-24.87,9-56,7.75-47.87-4.5-51.5-7.12-4.75-5.87,1.63-8.37,13.63-3,6.88-5.37-3.25-7.5,3.13-8.87 a 93,93,0,0,1,11.38-1.75Z"/>
  <path d="M 194.25,217.25 s -10.37-6.5-3.62-22.37 c 10-2.87,30.75-4.37,30.75-4.37 s 11.75,4.88,4,22.5 C 215.38,214.63,194.25,217.25,194.25,217.25Z"/>
  <path d="M 193,197.38 c 1.6-.46,5.13,2.63,5.88,8.25 s -1.62,8.5-2.62,8.75-4.12-2.87-5-7.62 S 191.25,197.88,193,197.38Z" fill="#dbb787"/>
  <path d="M 197.88,197.25 s 7.13,5,3.25,15.5 c 9.63-1.25,22-3.25,22-3.25 s 4.25-11.12-2.87-15.5 C 209.75,195.5,197.88,197.25,197.88,197.25Z" fill="#dbb787"/>
  <path d="M 214.5,200 c 0-1.5,2.63-2.87,3-.12 S 214.63,204.25,214.5,200Z"/>
  <path d="M 208.25,208.25 c -1-1.68.88-5,2.38-2.25 S 210.25,211.63,208.25,208.25Z"/>
  <path d="M 205,200.63 a 1,1,0,1,0,.63-1.87 C 204.13,198.38,202.75,199.63,205,200.63Z"/>
  <path d="M 220.63,206.25 c .25-1.15,2.63-.87,1.75.63 S 220.25,208,220.63,206.25Z"/>
  <path d="M 216.48,160.94 l 2.7-4.72-5.28.11 a 48.37,48.37,0,0,0-3-7.31,42.66,42.66,0,0,1-1.8,7.65 s -4.72.11-9.22.45 c 1.46.34,7.87,3.94,7.87,3.94 l -2.92,10.23,7.76-7 a 26.84,26.84,0,0,1,7.2,4.27 C 218.73,166,216.48,160.94,216.48,160.94Z m .34-3.26-1.35,1.57-.79-1.35Z m -5.4-4.16,1,2.59-2,.11Z m -6.63,4.5 h 3.6 l -.45,1.57Z m 3.15,8.32,1.24-4.27,1.8,1.12Z m 4.39-4.16-2.81-1.8.56-2.36,2.92-.22,1.69,2.47Z m 3-.22 s 1.24,2.25,1.46,2.81 a 9.49,9.49,0,0,0-3-1.46Z" fill="#f6adca"/>
  <path d="M 37.37,225.31 l 2.7-4.72-5.28.11 a 48.37,48.37,0,0,0-3-7.31,42.66,42.66,0,0,1-1.8,7.65 s -4.72.11-9.22.45 c 1.46.34,7.87,3.94,7.87,3.94 l -2.92,10.23,7.76-7 a 26.84,26.84,0,0,1,7.2,4.27 C 39.61,230.37,37.37,225.31,37.37,225.31Z M 37.7,222 l -1.35,1.57-.79-1.35Z m -5.4-4.16,1,2.59-2,.11Z m -6.63,4.5 h 3.6 L 28.82,224Z m 3.15,8.32,1.24-4.27,1.8,1.12Z m 4.39-4.16-2.81-1.8.56-2.36,2.92-.22,1.69,2.47Z m 3-.22 s 1.24,2.25,1.46,2.81 a 9.49,9.49,0,0,0-3-1.46Z" fill="#f6adca"/>
  <path d="M 236.11,229.51 l 2.15-3.76-4.21.09 a 38.49,38.49,0,0,0-2.42-5.82,34,34,0,0,1-1.43,6.08 s -3.76.09-7.34.36 a 57.51,57.51,0,0,1,6.26,3.13 l -2.33,8.14,6.17-5.55 a 21.36,21.36,0,0,1,5.73,3.4 C 237.9,233.53,236.11,229.51,236.11,229.51Z m .27-2.6-1.07,1.25-.63-1.07Z m -4.3-3.31.81,2.06-1.61.09Z m -5.28,3.58 h 2.86 l -.36,1.25Z m 2.51,6.62,1-3.4,1.43.89Z m 3.49-3.31-2.24-1.43.45-1.88,2.33-.18,1.34,2Z m 2.42-.18 s 1,1.79,1.16,2.24 a 7.55,7.55,0,0,0-2.42-1.16Z" fill="#f6adca"/>
  <path d="M 54.29,176.18 l 5.12,1.48-1.32-5 a 47.38,47.38,0,0,0,6.26-4.57,41.78,41.78,0,0,1-7.69,0 s -1.2-4.47-2.55-8.67 c 0,1.47-1.93,8.4-1.93,8.4 l -10.42-.43,8.43,5.78 A 26.29,26.29,0,0,1,47.76,181 C 50,179.49,54.29,176.18,54.29,176.18Z m 3.18-.43-1.81-.92,1.1-1.06Z m 2.72-6.1 L 58,171.21 l -.57-1.9Z m -5.81-5.28.83,3.43-1.6-.07Z m -7.2,4.91,4.35.19-.66,2Z m 5,3.22,1.07-3.09 h 2.38 l .89,2.73-2,2.18Z m .91,2.84 s -1.86,1.7-2.34,2 a 9.29,9.29,0,0,0,.69-3.23Z" fill="#f6adca"/>
  <path d="M 181.91,30.51 l 4-7.45-7.45,1.34-6.11-4.58-1.15,7.06-12.41,5,11.07,2.67-1.53,9.55 s 5.54-6.49,8.4-7.64 c 7.06,1.53,12,3.06,12,3.06Z m .57-5-1.34,3.25-1.34-2.29Z m -8.4-2.48,2.1,1.72-3.25,1Z m -4.39,9-4.58-.76,5.16-1.53Z m 1.53,6.3.76-3.82,2.48.57Z m 5.35-5.16 L 172,31.66 l 1-3.44,4.39-1,2.29,2.86Z m 4.2-1,2.29,3.44-4.39-1.34Z" fill="#f6adca"/>
  <path d="M 225.15,80.6 l 9.61,4.18-2.42-9.06,5-8 L 228.52,67 l -7.41-14.81-2.16,14 L 207,65.26 s 8.59,6.17,10.3,9.59 C 216.15,83.72,214.77,90,214.77,90Z m 6.19.2-4.15-1.32,2.69-1.89Z m 2.2-10.63-1.91,2.77 L 230.12,69Z M 222,65.67 l .47-5.74,2.42,6.21Z m -7.62,2.54,4.79.55-.45,3.12Z m 6.92,6.07,1.41-5.82,4.34.82,1.63,5.32-3.3,3.12Z m 1.61,5.09-4,3.18 L 220.1,77Z" fill="#f6adca"/>
  <path d="M 31.76,108 c -1.31.66-10.57,3.52-10.57,3.52 l -4.34-4.67-.16,7 s -4.34,3.44-9,7.87 c 1-.16,9.84-.41,9.84-.41 s 1.31,7.79,2.79,13.36 c .66-1.15,4.59-10.82,6.23-11.48,1.72.33,6.31,1.89,6.31,1.89 L 28,119 A 73.24,73.24,0,0,0,31.76,108Z M 12.09,120 l 4.43-3.93 s .41,2.3.74,3.77 C 16.43,119.85,12.09,120,12.09,120Z m 5.82-10.25,2.46,2.62-2.3.9Z m 2.62,20.49 c -.57-4.18-1.23-8.69-1.23-8.69 l 5.08.74 S 22.66,125.67,20.53,130.26Z M 25,121 l -6-.9-1-5,3.44-1.48,4.75,5.57Z m -2.38-7.71 s 3.44-1.31,7-2.62 c -.57,2.21-2.71,7.3-2.71,7.3Z M 30,123 l -3.77-1.39,1.07-1.72Z" fill="#f6adca"/>
  <path d="M 54.09,33.15 c -1.33-.63-9.3-6.15-9.3-6.15 l 1-6.3-5.65,4.22 s -5.39-1.3-11.76-2.25 c .74.67,6.39,7.49,6.39,7.49 S 29.45,36,26,40.6 c 1.31-.19,11.35-3.06,12.88-2.17.8,1.56,2.41,6.13,2.41,6.13 L 43.11,37 A 73.24,73.24,0,0,0,54.09,33.15Z M 32.53,25 l 5.83,1.06 S 36.81,27.84,35.85,29 C 35.34,28.37,32.53,25,32.53,25Z m 11.66-1.74-.55,3.55-2.13-1.25Z M 29.67,38 c 2.94-3,6.08-6.33,6.08-6.33 l 2.55,4.46 S 34.6,36.86,29.67,38Z m 10-2.23-3-5.27 L 40,26.66 l 3.28,1.8-1.46,7.18Z m 4.6-6.62 s 3.16,1.9,6.41,3.93 c -2.1.91-7.41,2.37-7.41,2.37Z M 41.22,41.05,40,37.22,42,37Z" fill="#f6adca"/>
  <path d="M 84.55,72.54 s 2.06-6.38,4.53-13.78 c -3.5.82-13.16,6-13.16,6 s -4.73-4.11-7.61-6.79 c .21,2.67,1,12.14,1,12.14 L 60.9,75.83,71,77.48 l 3.29,13 s 3.5-6.17,7.82-12.14 c 1.65,0,10.9,2.26,10.9,2.26Z M 65.84,74.6 l 3.5-2.26.82,2.88Z m 4.73-11.93 L 74.06,66,71,68.22Z m 4.32,22-1.65-7,6.17.21Z m 4.73-9.05-7.41-.41-.82-3.7,4.53-3.91,5.14,4.73Z m -1.44-8.84 s 4.32-3.29,7-4.11 c -.62,1-2.88,7.61-2.88,7.61Z m 5.14,7,3.29,3.29-4.32-.82Z" fill="#f6adca"/>
  <path d="M 192.36,118.49,196,109 l -8.53,1.76 s -2.88-4.77-4.26-7.4 c -.13,2-1.63,9.53-1.63,9.53 l -8.78,4.89,7.4,3.14-.75,7.78,6.65-5.27,10.28,1.25Z m .63-7.4-2,5.14-2.51-3.76Z m -9.16-3.39,2,3.14 L 183.21,112Z m -7.52,9.78,4.77-2.13-.5,3.64Z m 4.77,7.78.75-3.64,2.63,1Z m 1.13-6.15.5-4.51,4.14-1.63,2.76,4.51-3.51,3.76Z m 9,.13,2.13,3.39-5.14-.75Z" fill="#f6adca"/>
<script type="text/ecmascript" xlink:href="param.min.js"/> 
</svg>
