<?xml version="1.0"?>
<svg xmlns="http://www.w3.org/2000/svg" xmlns:xlink="http://www.w3.org/1999/xlink" viewBox="0 0 250 250">
  <title>east-side</title>
  <g id="skin-tone">
    <path d="M 219,119 c -1.5-15.5-25-9.5-25-9.5 l -56.5-13 c -13-3-20.5-4-6.5-12 S 175.5,71,184.13,65.13,189,51,183,50.5 s -26,1.17-38,7.7 S 83,77.5,68.5,82.5,42,91.5,29,102 c -8.6,6.95-21.35,18.8-29,26v69.72 c 7.82-9,24.21-27.57,36-38.26,13,6.5,58.5,14,74,12.5,6.5,5.5,45,20,51,21 s 12.5-7,1.67-15.33 S 138.5,164.5,128,158.5 s -9.5-11-2-14.5,52.5-8,79.5-10.5 c 4,1.5,21,3,22,0 C 230.5,128,226.5,120,219,119Z" fill="param(skin_tone)"/>
  </g>
  <g id="fixed-colours">
    <path d="M 210.57,209.28 s -.34,16.05-12.06,15.67 c 7.84,2.41,9.38,5.71,10.05,17,3-12,5.91-16.27,11.33-15.67 C 213.88,223.32,210.9,219.67,210.57,209.28Z" fill="#8dd8f8"/>
    <path d="M 183.41,151.23 s -1.45,9.4-7.23,10.85 c 6.51,1.45,6.51,13.74,6.51,13.74 s .72-12.29,6.51-13.74 C 185.58,160.62,183.41,151.23,183.41,151.23Z" fill="#8dd8f8"/>
    <path d="M 80.42,12.56 s -1,6.67-5.13,7.69 c 4.62,1,4.62,9.75,4.62,9.75 s .51-8.72,4.62-9.75 C 82,19.23,80.42,12.56,80.42,12.56Z" fill="#8dd8f8"/>
    <path d="M 27.56,35.55 s .64,16.32-11.88,17.71 C 24.49,54.66,26,58.48,27.27,71.34 c 2-14.15,4.66-18,10.23-18.48 C 28.69,51.94,28.36,44.77,27.56,35.55Z" fill="#8dd8f8"/>
    <path d="M 28.85,206.6 S 28.12,221.78,18,221.78 c 7.23,0,10.85,13.74,10.85,13.74 s 2.89-13.74,9.4-14.46 C 31,220.33,28.85,214.55,28.85,206.6Z" fill="#8dd8f8"/>
    <path d="M 168.67,2.33 S 168.33,17,157,18 c 8.68,1.45,11.57,8.68,11.57,18.08,1.45-15.91,8-18.08,10.85-18.8 C 170.72,16.54,170.17,10.83,168.67,2.33Z" fill="#8dd8f8"/>
    <path d="M 225,57.29 s .72,12.29-10.85,12.29 c 8.68,2.17,11.57,8,11.57,15.18,2.17-10.85,6.51-12.29,10.85-13 C 227.91,70.31,226.47,65.24,225,57.29Z" fill="#8dd8f8"/>
    <path d="M 104.76,188.31 s -.94,10-6.66,11.88 c 6.22,1,6.2,11.92,6.2,11.92 s 1-11.27,6.2-12.39 C 105.64,199,104.76,188.31,104.76,188.31Z" fill="#8dd8f8"/>
    <path d="M 179.5,50.83 a 11.9,11.9,0,0,0-5.33,5.5 c -1.5,3.67.5,8.33,8.17,8 s 7.33-9.17,5.67-10.83 S 185.83,50.67,179.5,50.83Z" fill="#fff"/>
    <path d="M 204.67,113.83 s 1.5-4.33,3.5-5.17 c 7.5,1.5,10.17,7.33,9.17,9.67 C 211.33,115.83,204.67,113.83,204.67,113.83Z" fill="#fff"/>
    <path d="M 215.5,134.17 s -4.83-4.83-3-9.5,8.33-4.33,8.33-4.33,7.67,4.5,6.33,9 S 219.5,135,215.5,134.17Z" fill="#fff"/>
    <path d="M 158,191.5 s -5.17-6.17-2.67-10,11.17.33,11.17.33 S 170.5,192.83,158,191.5Z" fill="#fff"/>
  </g>
  <g id="outline">
    <path d="M 221.75,121 s -7.5.13-8.62,4 a 7.13,7.13,0,0,0,4.25,8.88,4.11,4.11,0,0,1-2.62.25 c -.37,0-4.75-3.87-3.37-9.25 s 9.25-5.12,9.25-5.12Z"/>
    <path d="M 160.17,191.5 s -6.67-4.5-4.67-9,11,0,11,0 l -.5-1.67 s -9-4.33-11.67.5 S 158,191.5,158,191.5Z"/>
    <path d="M 180,51.75 s -6.79,2.48-5.12,8.38 c 1.38,4.88,10.25,2.25,10.25,2.25 s -.62,2.25-1,2.25-8.37,2.13-10.75-3.5,4.13-9.75,4.13-9.75Z"/>
    <path d="M 208.67,110 a 3.83,3.83,0,0,0-2.83,3.5 c -.33,3-2.33,0-2.33,0 s 1.67-3.83,3.67-4.33 S 208.67,110,208.67,110Z"/>
    <path d="M 74.4,116.82 s 16.5-1,25.3,1 C 91.36,111.26,74.4,116.82,74.4,116.82Z"/>
    <path d="M 96.5,130 s -19.5,1.5-24,4 C 80.5,135.5,96.5,130,96.5,130Z"/>
    <path d="M 169.67,110.33 s .33,3-1.67,11.67 C 171.67,119.67,170.67,112.33,169.67,110.33Z"/>
    <path d="M 198,118.67 s -.33,4-1,7.67 C 200.33,124.67,198,118.67,198,118.67Z"/>
    <path d="M 145,64 a 11.6,11.6,0,0,1,4,9 C 151.67,68.67,148.33,66.33,145,64Z"/>
    <path d="M 162.67,59.67 A 16.31,16.31,0,0,1,165,67.33 C 167.33,63.67,162.67,59.67,162.67,59.67Z"/>
    <path d="M 165,127.33 a 9.65,9.65,0,0,1,.67,5,6,6,0,0,0,1.33-5Z"/>
    <path d="M 136.67,168.67 a 13.9,13.9,0,0,1-3,8 C 137.67,175,138,172,136.67,168.67Z"/>
    <path d="M 148.33,176 a 39.45,39.45,0,0,1-3.33,6.33 C 147.67,182.67,148.67,177.67,148.33,176Z"/>
    <path d="M 220,117.33 c -2-12.33-11.67-11-28-11.67-32.33-8-65.67-13.33-66-15.67 s 33.33-13.33,43.67-16.67,25.33-10,22-17.67-12-8.67-34.67-4 S 75,77.33,65,81,44,85,30,96.67 c -10.79,9-24.35,21.74-30,27.12V134 c 6.59-6,17.16-15.75,26-25 C 40,94.33,46.67,94.33,57.67,89.33 s 60.17-21.42,82.83-28.08 S 183.77,48.49,186.67,55 C 190,62.5,176,66,166,69.67 s -41.33,13-46,17.33-3.67,5.67,10.67,9.67,69.33,17.67,80.67,21,15.33,6.67,15,11-5.33,5.67-12.67,3.67-29.33-4.33-39-6 S 138,121,121.67,121 C 141,124.67,192,132.67,192,132.67 s -55,4.33-65.67,9 S 115.25,153,125.25,159 s 30.75,15.67,37.42,20.67,4,12.67-3,11 S 130,179,110.33,170 C 75,168.67,35.67,154.67,35.67,154.67 L 0,193.72v9.88 c 7.3-8.73,24-28.5,35.67-40.93,26.67,10.67,72,12,72,12 S 133,185,144.67,189 s 20,9,23.67,3-.33-13.33-5.67-16.33-18.26-9.84-30.42-16.17 S 121,148,124,147 c 5-3,57.67-10.33,88-10,10.33,1.67,16.33,1.33,18-6.67 S 225.67,119,220,117.33Z m -23.12-7.58 s 17.38-1.25,19.88,6.75 C 210.13,114.13,196.88,109.75,196.88,109.75Z"/>
  </g>
<script type="text/ecmascript" xlink:href="param.min.js"/> 
</svg>
