<?xml version="1.0"?>
<svg xmlns="http://www.w3.org/2000/svg" xmlns:xlink="http://www.w3.org/1999/xlink" id="Layer_2" data-name="Layer 2" viewBox="0 0 250 250">
  <title>diamond-ring</title>
  <path d="M 102.67,127.33 s 19.67-7,47-.67 c 25.33-26,63.67-66.33,63.67-66.33 L 200,23.67,149.33,12.33 l -20,29.33-22.67-31 L 61,24,39.82,60.18Z" fill="#efcbcd"/>
  <polygon points="39.5 63 81.5 62.5 115.5 124.5 102.67 127.33 39.5 63" fill="#dea6b1"/>
  <polygon points="130.09 122.44 173.5 60.5 213.33 60.33 149.67 126.67 130.09 122.44" fill="#dea6b1"/>
  <polygon points="81.5 62.5 128.5 61.5 125.99 124.55 113.53 123.06 81.5 62.5" fill="#fff" opacity="0.5"/>
  <polygon points="129.33 41.67 148.5 15 173.5 60.5 128.5 61.5 129.33 41.67" fill="#fff" opacity="0.5"/>
  <polygon points="200 23.67 175.5 59 213.33 60.33 200 23.67" fill="#fff" opacity="0.5"/>
  <polygon points="105.5 15 82 60.5 61 24 105.5 15" fill="#fff" opacity="0.5"/>
  <path d="M 184.67,159 c -7.67-11.67-20-35.9-58.68-34.45-23.3.87-38.65,10.78-47.32,21.12 s -20,42.33-10,60.67,33,31,53.33,31.33,48.67-10.33,57-28.67 S 192.33,170.67,184.67,159Z m -36,54.33 c -14.67,8-32,9-48-4 s -13.67-34.67-8-45.67 S 112,143.5,127.33,143 c 31-1,39.33,18,42,31.67 S 163.33,205.33,148.67,213.33Z" fill="#f5d751"/>
  <path d="M 155.94,125.12 s 39.43-38.27,62.4-64.36 c -.48-7.5-15.75-41.5-16.69-41.52 s -24.85-6.09-54.09-11.33 c -2.54,2.14-18.64,28.36-18.64,28.36 s -12.14-18-19.43-28.77 c -3.44.56-27.91,7-51.73,12.44-8.3,9.52-26.05,40.7-26.05,40.7 l 64,64.89 C 63.23,142.4,52.53,180,63.88,206.39 s 41.15,35.74,67.38,35,49.69-19.66,56.55-35.76,6.33-37.33-2.38-55.29 S 155.94,125.12,155.94,125.12Z M 43.54,61.19 C 54,37.66,62.28,27.83,62.28,27.83 s 35.14-9.63,41.11-12 c 11.9,14.27,25.28,32.94,25.28,32.94 l 22.77-32.34 s 39.19,7.3,45.38,9.91 a 257.15,257.15,0,0,1,11.83,34.56 s -55,52.64-61.4,61.26 c -14.95-1.84-31.49-1.53-42.46.76 C 104.8,122.9,50.88,69.13,43.54,61.19Z m 126.6,154.4 c -14.67,16.58-41.92,21.68-58.08,17.94 S 75,215,70.84,201.53 s .82-43.06,12.9-54.69,27.83-19.27,43.44-19.15 c 27.46.21,48.11,14.33,54.94,32.57 S 184.81,199,170.14,215.59Z"/>
  <path d="M 158.3,148.57 c -10.18-6.12-18.87-8.79-31.68-8.4-17.47.52-32.7,12.8-37.92,24.56 s -7.7,27.63,1.13,39,23.6,22.61,46.15,18.67,33.52-22.77,36.28-37.08 S 168.49,154.69,158.3,148.57Z M 165.67,184 c -2.77,14.62-11.31,22.06-23,29.33 s -29,3.53-41-7-11.8-30.77-6-40.33,15.05-18.57,30.33-19.67 c 13.75-1,19.49,1.73,28.33,7.33 C 164.33,160,168.44,169.38,165.67,184Z"/>
  <path d="M 126.28,43.09 s -1.51,46.79-1.75,59.58-1,21.83-1,21.83 l 2.5,0 s 2.85-35.21,3.42-48.62,2.25-36.16,2.25-36.16Z"/>
  <path d="M 39.82,60.18 s 51.83-.89,67.13-1.54,74.93-1.08,85.22-.88 l 18.72.36-2,4.64 s -50.24-.33-62.42.06 S 43.78,65.25,43.78,65.25Z"/>
  <path d="M 63,22.85 S 83.8,61.64,94.34,81.5 s 22.63,41,22.63,41 l -3.44.56 S 93.27,88.66,86.91,78.55 s -28-51.72-28-51.72Z"/>
  <path d="M 196.58,23.2 S 172.87,55.53,166.12,65.7 s -36,56.75-36,56.75 l 4.05.39 S 164,76.89,171.41,66.42 s 29.77-39.07,29.77-39.07Z"/>
  <polygon points="102.2 12.67 79.44 60.93 84.11 61.33 107.16 14.64 102.2 12.67"/>
  <polygon points="147.07 16.96 170.92 59.55 175.03 56.5 151.82 12.99 147.07 16.96"/>
  <path d="M 116.33,132 c -16.88,3.81-32,15.67-37.33,30 s -7.67,26.33-4,27.67,3-15.33,9-27,25.33-23.64,32.67-25 S 126.67,129.67,116.33,132Z" fill="#fff" opacity="0.7"/>
  <path d="M 167.67,205 c -6.79,9.16-12.33,13.67-20.33,16.67 s -8.67,8.33-1.33,5.67,20.33-11,26.33-20.67 S 182,189,178,187,174.33,196,167.67,205Z" fill="#fff" opacity="0.7"/>
  <path d="M 65.65,223.68 c -1.18-3-6-5.85-11.54-3.48 L 53,214.36 l -9.65,7,6.6,1.85 c -2.66,3.09-3.89,7.77-2.27,10.47,2,3.33,8,4,13,1.66 A 9.74,9.74,0,0,0,65.65,223.68Z M 53,232.33 c -4.33-1.33-1.33-5.66,0-7.32,4-5,8.32-1.66,9,1.33 S 57.33,233.66,53,232.33Z" fill="#dea6b1"/>
  <path d="M 45.67,20.33 c -1.3-3.25-6.6-6.43-12.67-3.82 L 31.77,10.1 l -10.6,7.68,7.24,2 c -2.92,3.39-4.27,8.53-2.49,11.5,2.19,3.66,8.78,4.39,14.26,1.83 S 47.13,24,45.67,20.33Z M 31.77,29.84 c -4.75-1.46-1.46-6.22,0-8,4.36-5.45,9.14-1.83,9.87,1.46 S 36.53,31.3,31.77,29.84Z" fill="#dea6b1"/>
  <path d="M 226.64,207.31,209.8,195.73 l .89,12.83 c -5.6-2.07-12.6-1.44-15.53,2.12-3.66,4.45-1.61,13.16,4.13,19 s 14.78,4.7,18.77,1.18 c 3.56-3.14,5.21-11.38-1-17.95Z m -14.12,19.74 c -3.86,2.42-12.56-2.87-12.85-9.58 s 7.25-4.68,10.24-3.64 C 218.82,216.91,216.37,224.63,212.52,227.05Z" fill="#dea6b1"/>
  <path d="M 225,16.6 l 3.82-4.34 L 221,8.39 l -.41,6.3 c -4.11-.86-8.11.76-9.72,4-1.9,3.8.06,8.4,5.58,10.84,4,1.77,8.33.09,9.7-2.09 C 228,24.46,230,19.95,225,16.6Z m -2,7.86 c -2.38,2.38-9.29.28-8.82-3.5.43-3.43,3.62-3.36,5.78-2.48 C 223.82,20,225.43,22.08,223.05,24.46Z" fill="#dea6b1"/>
  <path d="M 41.83,131.33 c -2.72-5.43-7.59-12.48-17.05-8.16 l -3-9.61 L 8.94,121.71 l 9,6.31 c -5,5.31-6.22,12.72-2.9,18,3.92,6.27,12.51,7.53,21.14,1.56 C 42.4,143.28,43.84,135.34,41.83,131.33Z m -20.37,11.8 c -4.7-3.75-1.7-8.41,1.56-10.83,5.73-4.25,10.26-4.77,11.63.92 S 26.63,147.25,21.46,143.13Z" fill="#dea6b1"/>
  <path d="M 234.33,129 l 5.52-5.89-11.38-4.47,1.05,8.07 c -5.38-.89-8.48,4.61-9.18,7.78-.81,3.66,3.66,9.76,9.35,9.35 C 234.88,143.47,240.74,134.31,234.33,129Z m -5,10.78 a 5,5,0,0,1-5.69-4.88 c 0-2.44,1.81-5.46,6.91-4.06 C 235,132.05,232.95,139.37,229.29,139.78Z" fill="#dea6b1"/>
  <path d="M 233.38,165.28 s -.22,10.66-8,10.4 c 5.2,1.6,6.23,3.79,6.67,11.32,2-8,3.92-10.8,7.52-10.4 C 235.57,174.6,233.6,172.17,233.38,165.28Z" fill="#f5d751"/>
  <path d="M 23.09,169.46 s 0,21.1-16.27,22.9 c 11.45,1.81,16.27,9.64,15.07,23.51,3-19.29,6-24.11,13.26-24.71 C 26.25,189,23.25,181.5,23.09,169.46Z" fill="#f5d751"/>
  <path d="M 46.05,81.67 S 46.05,92.13,38,93 c 5.67.9,8.06,4.78,7.47,11.65,1.49-9.56,3-11.95,6.57-12.24 C 47.62,91.35,46.13,87.64,46.05,81.67Z" fill="#f5d751"/>
  <path d="M 130.22,1.66 s 0,8.94-6.9,9.71 c 4.85.77,6.9,4.09,6.39,10,1.28-8.18,2.55-10.22,5.62-10.48 C 131.56,9.94,130.29,6.76,130.22,1.66Z" fill="#f5d751"/>
  <path d="M 199.39,100.2 s -.43,9.06-6.47,9.06 c 4.31,0,6.47,8.2,6.47,8.2 s 1.73-8.2,5.61-8.63 C 200.69,108.4,199.39,104.95,199.39,100.2Z" fill="#f5d751"/>
<script type="text/ecmascript" xlink:href="param.min.js"/> 
</svg>
