<?xml version="1.0"?>
<svg xmlns="http://www.w3.org/2000/svg" xmlns:xlink="http://www.w3.org/1999/xlink" id="fixed-colours" viewBox="0 0 243.3 241.49">
  <title>Donut</title>
  <path d="M 90,34.67 s -5.67,9-7,13.67-10.33,14-17.67,17-18,11.33-19,21.33-.33,25.33-1,32.67 S 38,140,36.67,145 s -4.5,16.83.58,27.25 c -7.25-5.92-14.92-36.92-9.58-61.58 S 43.33,56,90,34.67Z" transform="translate(-3.64 -4.17)" fill="#f5e4ae"/>
  <path d="M 107,28 s 35-10.33,57,0 c -12.33,2.33-19.33,4.67-28.67,3.67 S 107,28,107,28Z" transform="translate(-3.64 -4.17)" fill="#f5e4ae"/>
  <path d="M 188.33,39.33 S 194,50,195,57.67 s 0,14,7,18 S 218.67,86.33,222,96 C 217.33,73.33,205.33,51.67,188.33,39.33Z" transform="translate(-3.64 -4.17)" fill="#f5e4ae"/>
  <path d="M 224,104 s -2.67,14-7.33,23-8.33,17.33-8.33,26,.33,26.67-3.33,36.67 C 218.67,171.67,232.33,141,224,104Z" transform="translate(-3.64 -4.17)" fill="#f5e4ae"/>
  <path d="M 57.33,199 A 56.61,56.61,0,0,0,76,201.33 c 9.33-.67,18.67-2,26.67,3.33 s 17.67,12,29.67,8.67,13.5-9.33,25.92-8.83,27.08,2.5,42.08-9.5 c -2.67,7-10,12.67-15,16.67 S 154,230.33,123.67,228,63.67,206.67,57.33,199Z" transform="translate(-3.64 -4.17)" fill="#f5e4ae"/>
  <path d="M 162.67,104 c -.33-3.33-3.67-6.67-8-7.67 s -8,0-12.67-4.67-8.67-5.67-15-5.33-9,6-14,6.33-8.67,3-13,8,1.74,16,1.33,21.67 a 35.08,35.08,0,0,1-2.67,12 C 97,138.33,99.33,146,107,150 s 13,2,15.67.33,14.42.58,20.08.92,11.57-4.4,14.5-9.25 c 6.5-10.75.5-15.42,1.5-21.75 S 163,107.33,162.67,104Z m -30.33,39.33 c -14.33,2-23.33-9-23.33-19.33 s 5-25.33,20-26.33 c 9-.6,22,6.33,23.67,18.67 S 146.67,141.33,132.33,143.33Z" transform="translate(-3.64 -4.17)" fill="#f5e4ae"/>
  <path d="M 207.75,79.5 c -8.25-5-11.25-8.75-13.25-19 S 188.25,43,181.25,36.75 s -22-9-34-5.5-28,0-41.25-1.92 S 88,33.5,85.75,42.25,79,55,74.25,60.25,55.46,69.81,50.5,77.75 s -6.25,20-5,27.75-.75,19-3,25.75-10,18.5-5.25,41 S 63,202,74.5,202 s 24-1.25,34,5.25,23.5,8,28,4.75,13.75-7.5,21.75-7.5,18.25,2.75,34.5-4.75 S 208.5,171.5,208.5,158.5 s 5-25.5,11.75-41 S 216,84.5,207.75,79.5Z M 163,107.33 c -2.33,7-6.11,12.43-4,19.92,2.25,8-1.17,16.08-4.5,18.75 s -6,6.5-14.75,4.5 c -5.86-1.34-12.08-1.83-17.08-.17 s -9.33,3-18-2.33-6-15.33-4.33-19,1-13-.33-16.33-1-11.33,2.33-15.33,10.67-3,13-5,7.67-4.67,11.67-6 c 6.14-2,10.67,1.33,15,5.33 s 11,5.67,14.33,5.33 S 165.33,100.33,163,107.33Z" transform="translate(-3.64 -4.17)" fill="#f7549e"/>
  <path d="M 206.33,74.67 C 196.33,69,200,64,195,48.67 S 167.67,24,152.33,27,124,30.67,109.67,27,89,29.33,86,36.33 s -6.61,19-15.67,23 C 43,71.33,41.33,93.33,43,102 s 1,20.67-7,37.67 S 32.67,179.33,46,193 s 31.67,11,43.33,11,21,8.67,31,11.67,18.67-4,29-7.67,22.67,2.67,40.33-4.67,22-22.67,21-39.33,4.33-24.33,11.67-45 S 216.33,80.33,206.33,74.67Z m 13,38.67 c -4.67,14.33-12.67,25.33-12.67,37.33 s .67,33-10.33,43-21.67,10-31,9.33-19.67,0-25.33,4.33-15.33,7.33-26.67-.33 S 92.67,199.33,77,199 s -26.67-3.67-35-21.33-3-35.33,2.67-47.33-1-37.67,6.67-50.33 c 6.22-10.28,15-11.67,21.33-15.67 S 83.67,54,86.33,45.67 s 11.67-17,22.67-14,31,4,41.33,1.67,34,2.33,39,16.67,4.33,23.33,12.33,27.33 S 224,99,219.33,113.33Z" transform="translate(-3.64 -4.17)"/>
  <path d="M 90.33,36.33 s -39.33,20-52,50-11.33,65-1,85 c 1.67,7,4,15.33,4,15.33 s -24.33-25-18.67-72 S 64.67,39.33,95,29 C 90.67,32.33,90.33,36.33,90.33,36.33Z" transform="translate(-3.64 -4.17)"/>
  <path d="M 98.33,27 S 124,16.33,154.67,19.67 s 53.33,28,63,47.33,17.67,43,13.33,72-15,49-33,66-38.67,27.33-69,27.33-78-24-87.33-47 C 47.33,192.33,51,197,62,199 c 11.67,10.67,36.33,24.33,61.33,25.67 s 64.67-12.33,77-29.67,22.67-41.33,24-64.67-6-59.33-34.67-87-78.33-15-83.67-14 A 73,73,0,0,0,98.33,27Z" transform="translate(-3.64 -4.17)"/>
  <path d="M 156.75,94.75 c -4.25,0-7.75,1.5-14.75-6.25 s -19.25-4.75-24.5.5-9.25-.25-16.25,7.5 S 97,111.22,99,119.75 c 1.5,6.5-3.5,12.75-2,22 S 114.75,155.5,118.5,154 s 11.38-2.86,24-1 c 16.42,2.42,20.25-19.5,19.25-23.75 s -2.75-11.25,2-17.5 C 171.14,102,161,94.75,156.75,94.75Z M 160,109 c -4.25,6-3.76,14.1-2.25,20,2.5,9.75-4,18.75-10.5,20.75-3.94,1.21-19-4.25-25-.75 s -14,1-18.5-3.5-3.75-12-2-16,1.5-5.25,1.25-8.25 c -.58-7-4.75-15,0-21.25 s 13.75-4.5,16.75-8.25,13.5-5.25,18.5-1,7.5,6.5,14,7 S 164.25,103,160,109Z" transform="translate(-3.64 -4.17)"/>
  <path d="M 129.25,95.5 c -10.75,1-19.25,7.25-22.25,22 s 6,26.25,16.5,28.25,30-1.5,31.25-22.75 S 139.7,94.53,129.25,95.5Z m 1.42,43.83 c -12.25,1-20.58-5.08-18.33-20.33 s 11.5-17.75,18-18 c 9.79-.38,18.17,6.42,18.67,17.67 S 142.92,138.33,130.67,139.33Z" transform="translate(-3.64 -4.17)"/>
  <path d="M 86.5,82.75 c 3.75-4,6-4,7-2.75 s -.25,3.75-2.5,5.75-4.25,6-7.5,3.75 S 86.5,82.75,86.5,82.75Z" transform="translate(-3.64 -4.17)" fill="#2fbf4e"/>
  <path d="M 91.25,56.5 c -1.46-2.92-2.5-6.25-.5-7.75 S 96,51,97,53.25 s 2.25,6.25-.25,6.75 S 92.25,58.5,91.25,56.5Z" transform="translate(-3.64 -4.17)" fill="#d989ea"/>
  <path d="M 121,62.75 c 3.61-.77,6.5-3.25,8.75-.5 s -3.25,5.5-5.5,5.75-6.25,1.75-7.75,0 S 117.5,63.5,121,62.75Z" transform="translate(-3.64 -4.17)" fill="#1453ee"/>
  <path d="M 147.5,48 c -2.16-3-2.25-6.5-.75-7 s 3.5.5,6,5,2.75,7.75,1,8 S 148.75,49.75,147.5,48Z" transform="translate(-3.64 -4.17)" fill="#e1ee23"/>
  <path d="M 158.75,77.75 c 2.68-3.06,5-5.75,7-3.5 s -.5,5.75-2.25,7-4.25,4.25-7.5,2 S 157,79.75,158.75,77.75Z" transform="translate(-3.64 -4.17)" fill="#d989ea"/>
  <path d="M 190,92 c 3.75-3.5,8-6,9.5-4 s -2.5,4.5-4.75,6.5-4.5,4.25-7,2.75 S 190,92,190,92Z" transform="translate(-3.64 -4.17)" fill="#2fbf4e"/>
  <path d="M 183.25,65.5 c .3-4.5.5-8.5,3-8.5 s 2.5,6,2.75,8.25.75,7.75-2.75,7.75 S 183,69.25,183.25,65.5Z" transform="translate(-3.64 -4.17)" fill="#f09032"/>
  <path d="M 62.25,110.75 c 0-2.76.75-8.5,2.5-8.5 s 2,5,2.75,7.75,0,8.5-2.75,8.5 S 62.25,112.75,62.25,110.75Z" transform="translate(-3.64 -4.17)" fill="#e1ee23"/>
  <path d="M 57.25,151.75 c 3.54,0,7.25-.75,7.75,1.5 s -3.75,3-6.75,3.75-7.25,1.5-7.5-1 S 55,151.75,57.25,151.75Z" transform="translate(-3.64 -4.17)" fill="#d989ea"/>
  <path d="M 84,158.75 c 2.68-4,3.75-6,5.5-5.5 s 1,4-.25,7-3.5,6.75-6.25,6.5 S 83,160.25,84,158.75Z" transform="translate(-3.64 -4.17)" fill="#f5fcff"/>
  <path d="M 96.75,184.75 c 4-1.14,7.5-3.25,8.5-1 s -3.5,4-5.5,4.75-6.5,2.25-7,.5 S 95,185.25,96.75,184.75Z" transform="translate(-3.64 -4.17)" fill="#f09032"/>
  <path d="M 153.25,155.25 c 3.79-2.28,5.75-6,7.25-4.75 s -.75,6-2.5,8-5.25,5.5-8,4 S 150.75,156.75,153.25,155.25Z" transform="translate(-3.64 -4.17)" fill="#d989ea"/>
  <path d="M 135.25,188.5 c -1.09,1.75,2.75,4,7,4.75 s 6,.75,6.75-1.5-4.5-2.5-6.75-3.5 S 136.5,186.5,135.25,188.5Z" transform="translate(-3.64 -4.17)" fill="#2fbf4e"/>
  <path d="M 180,173.75 c 4,0,8.25-.25,8.25-2.75 s -5.75-2.75-8.5-3-6.5,1-7,3.25 S 178.5,173.75,180,173.75Z" transform="translate(-3.64 -4.17)" fill="#1453ee"/>
  <path d="M 182.25,136.5 c -4-4-3-7.75-1.5-8.75 s 4.5.5,6.75,4.25,4.75,7.25,2.25,8.75 S 184,138.25,182.25,136.5Z" transform="translate(-3.64 -4.17)" fill="#e1ee23"/>
  <path d="M 204.25,113.75 c 3.56-.76,7.25-.5,8,1.75 s -4,2-6.5,2.75-6.25,1.5-6.75,0 S 200.75,114.5,204.25,113.75Z" transform="translate(-3.64 -4.17)" fill="#f5fcff"/>
  <path d="M 27,78.45 S 11,70,9.17,75.58,27,78.45,27,78.45Z" transform="translate(-3.64 -4.17)" fill="#6dcff6"/>
  <path d="M 110,19.27 S 111,6,106.66,6.38,110,19.27,110,19.27Z" transform="translate(-3.64 -4.17)" fill="#6dcff6"/>
  <path d="M 55.4,36.4 s -17-28.48-27.71-23.65 S 44.57,28.19,55.4,36.4Z" transform="translate(-3.64 -4.17)" fill="#6dcff6"/>
  <path d="M 211.69,31.38 s 17-28,27.16-22.07 S 211.69,31.38,211.69,31.38Z" transform="translate(-3.64 -4.17)" fill="#6dcff6"/>
  <path d="M 221.53,50.59 s 17.19-9.81,19.63-3.5 S 221.53,50.59,221.53,50.59Z" transform="translate(-3.64 -4.17)" fill="#6dcff6"/>
  <path d="M 16.93,152.14 s -11.59,6.43-13.18,2.18 S 16.93,152.14,16.93,152.14Z" transform="translate(-3.64 -4.17)" fill="#6dcff6"/>
  <path d="M 231.72,161.92 s 15.72-1.08,15.21,4.58 S 231.72,161.92,231.72,161.92Z" transform="translate(-3.64 -4.17)" fill="#6dcff6"/>
  <path d="M 169.65,234.94 s 9.13,7.5,5.94,10.32 S 169.65,234.94,169.65,234.94Z" transform="translate(-3.64 -4.17)" fill="#6dcff6"/>
  <path d="M 164.32,15.45 s 3.48-13.07,7.94-11.08 S 164.32,15.45,164.32,15.45Z" transform="translate(-3.64 -4.17)" fill="#6dcff6"/>
  <path d="M 33.23,213.11 s -25.53,6.55-19.6,15.21 S 33.23,213.11,33.23,213.11Z" transform="translate(-3.64 -4.17)" fill="#6dcff6"/>
  <path d="M 60.85,224.84 S 47.13,236.1,53.21,239.7,60.85,224.84,60.85,224.84Z" transform="translate(-3.64 -4.17)" fill="#6dcff6"/>
  <path d="M 233.53,94.74 s 13.68,3.53,13.14-2.07 S 233.53,94.74,233.53,94.74Z" transform="translate(-3.64 -4.17)" fill="#6dcff6"/>
  <path d="M 220.09,218.4 s 28.71,9.29,22.8,20.27 S 220.09,218.4,220.09,218.4Z" transform="translate(-3.64 -4.17)" fill="#6dcff6"/>
<script type="text/ecmascript" xlink:href="param.min.js"/> 
</svg>
