<?xml version="1.0"?>
<svg xmlns="http://www.w3.org/2000/svg" xmlns:xlink="http://www.w3.org/1999/xlink" id="fixed-colours" viewBox="0 0 250 250">
  <title>cupcake</title>
  <path d="M 53.74,167 s -24.46-4.13-29.63-31.69,17.22-44.1,26.53-44.1 c -7.92-20.67,9.65-43.75,24.8-48.57 s 34.11-2.07,42.37,8.61 c -.34-23.43,21.36-38.93,38.24-30 s 16.88,24.11,16.88,24.11 S 190.16,33.65,206,44 s 3.44,34.45-3.79,38.24 c 6.2,6.89,4.13,24.46,4.13,24.46 s 15.16,7.23,15.5,24.8-9.3,32-26.53,35.48 c -13.09,16.19-16.54,37.55-17.91,47.54-27.22,12.75-59.94,21.36-102.66,0 C 68.21,189.71,53.74,167,53.74,167Z"/>
  <path d="M 134.69,97.73 s -9.65-25.84-6.2-45.82,15.16-24.8,22.74-21.7 A 23.47,23.47,0,0,1,165,56.39 c 14.81-9,30.66-9.3,36.52-3.44 S 200.49,93.6,134.69,97.73Z" fill="#ef5ba1"/>
  <path d="M 120.91,60.18 s -6.55-11-26.53-12.06-37.55,15.16-35.14,41 c 13.44.34,21,7.92,22.74,12.4-10.33-7.58-28.59-9.3-41.34,7.92 s -6.55,41,8.61,49.26,27.22-4.13,27.22-4.13 a 16.73,16.73,0,0,1-.69-9.3 c 3.44,9,12.4,19.29,23.08,19.29 s 21.7-5.17,26.18-11.71 c -1.72,5.86-7.58,11-7.58,11 s 31.69,22,51.33-12.4 c 10.33,12.06,31.35,9.3,39.27-1.72 s 10-27.56-4.13-38.58-28.25.69-28.25.69,5.17-12.06,22.39-10.33 c 2.07-7.58-3.79-15.5-3.79-15.5 s -21,17.22-63.73,15.85 C 122.29,82.23,120.91,60.18,120.91,60.18Z" fill="#f8c1d9"/>
  <path d="M 63.73,167.66 s 9-1.55,15-6.37 c 6.89,9.82,21.7,11.71,34.79,5.86,7.23,9.65,41.68,15.67,56.67-6.55,6.37,4.48,15.85,4.65,15.85,4.65 s -12.57,23.43-13.61,44.61 c -23.77,12.75-68.21,16.88-93.7.34 C 76.13,189.71,63.73,167.66,63.73,167.66Z" fill="#6a4b42"/>
  <path d="M 72.34,170.59 s 12.4,20,12.75,39.62 C 87.5,196.26,82.5,179.89,72.34,170.59Z" fill="#49322d"/>
  <path d="M 84.74,174.55 s 8.44,16.88,9,29.11 C 95.42,193.33,90.77,179.55,84.74,174.55Z" fill="#49322d"/>
  <path d="M 97.14,174.55 s 9,16,7.75,38.76 C 109.89,199.53,104.38,181.27,97.14,174.55Z" fill="#49322d"/>
  <path d="M 111.61,171.8 s 5.68,24.29,4.13,42.2 C 120.91,201.25,115.92,177.65,111.61,171.8Z" fill="#49322d"/>
  <path d="M 127.29,178 s -4.82,21.88,1.21,36.17 C 126.43,202.8,127.29,178,127.29,178Z" fill="#49322d"/>
  <path d="M 141.93,179.55 s -9.82,10.51-5.17,32.38 C 136.59,197.81,141.93,179.55,141.93,179.55Z" fill="#49322d"/>
  <path d="M 156.57,175.76 s -13.26,13.09-8.44,35 A 83.66,83.66,0,0,1,156.57,175.76Z" fill="#49322d"/>
  <path d="M 160,208.49 s -.86-27.73,15-42 C 166.39,179.55,160.88,202.8,160,208.49Z" fill="#49322d"/>
  <path d="M 51,108.33 C 39.92,119.41,41.67,139,46.33,140 S 47,122,57,114.67 s 18.33-6,19-9.33 S 61.67,97.67,51,108.33Z" fill="#fff" opacity="0.5"/>
  <path d="M 66,79.67 C 69.61,84.08,76.67,64,91.33,61.33 s 21,4.67,23.67,2 S 103.67,47,86.33,53.67,63,76,66,79.67Z" fill="#fff" opacity="0.5"/>
  <path d="M 155.67,44.33 s -1-13.33-12-10.33 S 128,60.67,136.33,88.67 c -1.67-20.33-1.11-34.5,4-43.33 C 144,39,152.33,37,155.67,44.33Z" fill="#fff" opacity="0.5"/>
  <path d="M 194,110.67 c 8.33,1,12.67,8,10,9.33 s -12.33-6-21-4 S 180,109,194,110.67Z" fill="#fff" opacity="0.5"/>
  <path d="M 170.33,57.67 S 191.67,47,197.33,56 C 189.33,54.67,183,54,170.33,57.67Z" fill="#fff" opacity="0.5"/>
  <path d="M 204.59,173.1 s -.22,10.34-7.77,10.1 c 5,1.55,6,3.68,6.48,11,1.93-7.73,3.81-10.48,7.3-10.1 C 206.72,182.14,204.8,179.79,204.59,173.1Z" fill="#ef5ba1"/>
  <path d="M 52.7,181.15 s -1.06,6.86-5.28,7.92 c 4.75,1.06,4.75,10,4.75,10 s .53-9,4.75-10 C 54.28,188,52.7,181.15,52.7,181.15Z" fill="#ef5ba1"/>
  <path d="M 218.28,12.46 s -1.21,7.84-6,9 c 5.42,1.21,5.42,11.45,5.42,11.45 s .6-10.25,5.42-11.45 C 220.08,20.3,218.28,12.46,218.28,12.46Z" fill="#ef5ba1"/>
  <path d="M 154.54,226.73 s -.91,5.91-4.54,6.81 c 4.09.91,4.09,8.63,4.09,8.63 s .45-7.72,4.09-8.63 C 155.91,232.64,154.54,226.73,154.54,226.73Z" fill="#ef5ba1"/>
  <path d="M 27.09,10.63 s -.43,20-14.76,22 c 11.45,1.81,12,10,13.55,24.37,1.43-18.69,6-24.11,13.26-24.71 C 30.33,30.67,28,24.67,27.09,10.63Z" fill="#ef5ba1"/>
  <path d="M 99.13,7.2 s -.6,12.66-9,12.66 c 6,0,9,11.45,9,11.45 s 2.41-11.45,7.84-12.06 C 100.94,18.65,99.13,13.83,99.13,7.2Z" fill="#ef5ba1"/>
  <path d="M 11.71,124.12 S 9.3,136.18,2.07,136.18 c 7.23,1.21,9.64,7.23,9.64,15.07,1.21-13.26,6.63-15.07,9-15.67 C 13.52,135,12.32,130.75,11.71,124.12Z" fill="#ef5ba1"/>
  <path d="M 235.21,216.12 s -2.41,12.06-9.64,12.06 c 7.23,1.21,9.64,7.23,9.64,15.07,1.21-13.26,6.63-15.07,9-15.67 C 237,227,235.82,222.75,235.21,216.12Z" fill="#ef5ba1"/>
  <path d="M 31,214.14 s .6,10.25-9,10.25 c 7.23,1.81,9.64,6.63,9.64,12.66,1.81-9,5.42-10.25,9-10.85 C 33.44,225,32.24,220.77,31,214.14Z" fill="#ef5ba1"/>
  <path d="M 237.83,86.17 s -1.2,12.84-8.43,15.25 c 6,2.41,7.84,15.07,7.84,15.07 s 1.21-15.07,7.84-15.67 C 239.17,99.5,237.83,86.17,237.83,86.17Z" fill="#ef5ba1"/>
<script type="text/ecmascript" xlink:href="param.min.js"/> 
</svg>
