<?xml version="1.0"?>
<svg xmlns="http://www.w3.org/2000/svg" xmlns:xlink="http://www.w3.org/1999/xlink" id="Layer_4" data-name="Layer 4" viewBox="0 0 250 250">
  <title>fortune-cookie</title>
  <path d="M 30.33,144.33 C 23.62,119.25,26.67,89,51.33,71 s 44-27.33,53.67-38.67,22.33-19.67,33-17 S 159.33,36.67,171.33,47 s 35.67,23,48,38.33,17.33,43.67,10,73.33-12.67,36-21.33,34.67-27-31.67-68-42 c 6.67,16,15.67,32,16,44 s -3.67,29.33-20.67,37.67-27.67,4-35.33-1 c -7.33,6-22,10.33-22,10.33 S 39,231.67,22,204 c 24.67,1.33,37.67-5.33,37.67-5.33 S 36.67,168,30.33,144.33Z"/>
  <path d="M 35.33,209.67 s 29-.33,41.33-13.67 c 12.67,9,33.67,17.67,33.67,17.67 S 101,225.67,79,235.33 C 57.33,229,39,215.67,35.33,209.67Z" fill="#f6adcd"/>
  <path d="M 65.67,196 s -18-21.67-22.33-34.67 c 9.67,16.33,27.33,31.33,27.33,31.33 A 16.53,16.53,0,0,1,65.67,196Z" fill="#c6913c"/>
  <path d="M 105.67,227.33 s 9-7,11-10.67 c 4,2.33,9,9.33,1.67,13.33 C 112.33,230.67,105.67,227.33,105.67,227.33Z" fill="#c6913c"/>
  <path d="M 128.33,229.67 S 132,222,119,213.33 s -38-20-50-30.33-39.33-40-32-74.33 S 72.33,66.33,87.67,56.33 a 154.17,154.17,0,0,0,32-27.67 c 5.33-6.33,19-10.67,26-1.33 s 14.67,22,31.67,33.67,45,31,47.67,57.33-6,66.67-13.67,66.33-10-10.67-37.67-26.33 S 135,141,135,141 s -10.33-23-9.67-43.33 S 128.67,64,139,54.33 c -9.67,0-18.33,15.67-18.67,42 s 7.33,44,14.33,62,16.67,33,13.33,48 S 136,226.67,128.33,229.67Z" fill="#ffcd66"/>
  <path d="M 74.5,212.5 c -10.5-5-25.5,1.5-15,9 s 29.5,2,29.5,2 C 85,193.67,71.5,205.5,74.5,212.5Z M 63,219.67 c -8-6,4-8.17,14-4.92.33-5.67.25-8.75,4-6.75 s 4.92,9.08,5.33,13.67 C 86.33,221.67,71,225.67,63,219.67Z" fill="#fff"/>
  <path d="M 131.3,64.76 c -4.12,8.42-5.51,19-6,32.9 C 124.67,118,135,141,135,141 s 7.53,1.15,25.76,10.39 C 138.09,124.29,132.5,78.6,131.3,64.76Z" fill="#c6913c"/>
  <path d="M 48.5,94.5 c 11.19-20.13,31-25,34.5-21 s -36.5,16-25.5,58,2.5,30.5-6,19 S 38.5,112.5,48.5,94.5Z" fill="#fff" opacity="0.5"/>
  <path d="M 194,81.33 c 23.74,15.83,22.67,38.67,18.67,41.33 S 204,104,187.33,90 c -14.72-12.37-29.33-20-26-24 S 180,72,194,81.33Z" fill="#fff" opacity="0.5"/>
  <path d="M 184.3,201.92 c 3-.45,4.51-1.2,4.32-1.95-.25-1-2.69-.48-8.19,0 l -.88-.39 c 2.95-2.87,7.39-7.19,6.12-8.21 s -3.55,1.85-8,6.44 c -.7-3.65-1.26-6.08-2.67-5.85-1.23.2-.47,2.53.11,5.51-3.45-1.88-7.48-4.25-8.37-3.15-1.07,1.33,3.41,3.63,8,6-4.46.14-10.42.2-9.45,1.65 s 3.37.81,7.77.48 c -3,3-5.79,6.08-4.23,6.31 s 4.33-2.62,6.8-5.21 c .09,3.75.52,6.39,2,6.39 s 1.31-4.4.86-7.55 c 4.57,2.62,9.6,5.81,10.35,4.31 C 189.52,205.55,187.81,203.86,184.3,201.92Z" fill="#f287b6"/>
  <path d="M 217.2,29.33 c -.35-2.3-6.19-.48-13,.12,3.9-4.9,9.38-11.87,7.32-13.13 s -4.71,3-9.88,10 c -.16-6.37-.27-14.38-2.31-13-2.31,1.53-.84,6.2-.56,14.9-4.55-3-11.6-9.29-13.29-7.69 s 3.44,5.15,8.83,9 c -6,0-10.14.59-10.22,2.83-.08,2.06,6,2.34,11.42,2-4.27,5.49-8.7,11.51-6.11,11.55,2.35,0,6.26-5.05,9.56-9.55.42,7.31,1.8,11,3.22,10.69 s .72-3.83,0-11.66 c 4.75,3.72,9.27,7.19,10.36,5.61 s -1.19-4.37-6-7.86 C 213.12,32.3,217.54,31.58,217.2,29.33Z" fill="#f287b6"/>
  <path d="M 239.34,127.94 c -.91.24-.44,2.11.14,5.44-1.82-1.67-4.08-3.79-4.25-2.86 s 1.5,1.9,4,4.16 c -2.07.46-5.7.74-5.71,1.64 s 2.36.42,4.88,0 c -1.62,1.67-2.56,3-2,3.61 s 2.27-1,3.64-2.63 c .39,2.66.87,5.51,1.58,4.8 s .27-3.1-.09-5.23 c 2.15,1.85,3.56,2.46,3.84,2 s -.88-1.23-3.25-3.14 c 2.31-.32,4.49-.66,4.34-1.38 s -1.54-.84-3.81-.43 c 1.54-2.08,2.53-3.5,1.81-4 s -1.8,1.59-3.45,3.65 C 240.72,131.1,240.25,127.7,239.34,127.94Z" fill="#f287b6"/>
  <path d="M 27.61,165.37 c 2.8-1.15,6.34-2.55,5.4-3.23 s -2.9.67-6.71,2.27 c .58-2.53,2.17-6.72,1.17-7.2 s -1.71,2.4-2.5,5.44 c -1-2.67-2-4.4-3-4.06 s 0,3.07,1,5.42 c -3.16-1-6.58-1.92-6.16-.77 s 3.3,1.93,5.85,2.64 c -3.18,1.42-4.6,2.67-4.21,3.23 s 1.82-.33,5.18-2 c -.85,2.74-1.63,5.33-.74,5.55 s 1.74-1.27,2.47-4 c 1.5,2.8,2.57,4.64,3.5,4.11 S 28.07,170,26.65,167 c 2.84.91,6.86,2.16,7.07,1 S 31.61,166.48,27.61,165.37Z" fill="#f287b6"/>
  <path d="M 30.14,72.22 c -.79-1.69-4.29-.1-10.62,2.22,2.61-4.16,6-9.36,4.07-9.37-2.14,0-3.18,3.62-6.71,9.34 C 15.25,70.53,13.4,63.5,11.62,63.8 s 0,4.77,1.84,9.54 C 9.6,70.78,6.69,69.4,5.68,70.81 S 8.55,74.87,12.15,77 c -5.09,1.71-10.5,3.69-8.86,4.82,1.49,1,6.18-.58,10.22-2.06 C 10.66,84.62,10,87.61,11,88 s 2.1-2.16,5-7.49 c 1.47,4.42,2.9,8.57,4.26,8 s 1.1-3.31-.54-7.63 c 4.62,2.28,7.77,3.7,8.51,2.11 s -3.77-2.95-8.39-5.46 C 24.44,76.06,30.93,73.91,30.14,72.22Z" fill="#f287b6"/>
  <path d="M 234.49,229.76 c -.57-1.22-3.09-.07-7.64,1.6,1.88-3,4.28-6.73,2.93-6.74-1.54,0-2.29,2.61-4.83,6.71-1.18-2.8-2.51-7.85-3.79-7.63 s 0,3.43,1.32,6.86 c -2.78-1.85-4.87-2.84-5.59-1.83 s 2.06,2.93,4.65,4.45 c -3.66,1.23-7.55,2.65-6.37,3.46 s 4.44-.42,7.35-1.48 c -2,3.5-2.55,5.66-1.79,5.93 s 1.51-1.55,3.58-5.39 c 1.05,3.18,2.08,6.17,3.07,5.77 s .79-2.38-.38-5.49 c 3.32,1.64,5.59,2.66,6.12,1.52 s -2.71-2.12-6-3.93 C 230.39,232.52,235.06,231,234.49,229.76Z" fill="#f287b6"/>
  <path d="M 86.75,24.31 c -.28-1.2-3.82.21-7.74.6,1.42-2.29,4.61-7,3.43-7.53 S 80.15,19.61,77.5,24 c -.89-2.82-2.13-7.85-3-6.86 s .29,2.73,1.42,6.31 C 74,22,71.83,20.33,71.21,20.91 s 1.62,2.4,4.13,4.18 c -3.21.18-5.4.59-5.38,1.68,0,.93,2.8.92,5.42.66-1.45,2.4-2.65,4.67-1.61,4.57 s 2.29-2.1,3.48-4.11 c 1,2.87,2,4.21,2.55,3.9 s 0-1.47-1-4.09 c 2.21,1.73,4.33,3.37,4.83,2.64 s -.6-2.08-3-3.75 C 84.44,25.92,87,25.44,86.75,24.31Z" fill="#f287b6"/>
  <path d="M 37.48,231.14 c -.33-1.43-4.56.25-9.22.72,1.7-2.73,5.5-8.31,4.09-9 s -2.73,2.65-5.89,7.88 c -1.06-3.36-2.53-9.35-3.57-8.18 s .35,3.25,1.69,7.52 c -2.29-1.7-4.88-3.72-5.61-3 s 1.93,2.86,4.92,5 c -3.82.21-6.44.7-6.41,2,0,1.11,3.34,1.1,6.46.79-1.72,2.85-3.16,5.56-1.92,5.45 s 2.73-2.51,4.15-4.9 c 1.2,3.42,2.38,5,3,4.65 s 0-1.75-1.17-4.87 c 2.63,2.07,5.16,4,5.76,3.14 s -.72-2.48-3.54-4.47 C 34.73,233.06,37.79,232.49,37.48,231.14Z" fill="#f287b6"/>
<script type="text/ecmascript" xlink:href="param.min.js"/> 
</svg>
