<?xml version="1.0"?>
<svg xmlns="http://www.w3.org/2000/svg" xmlns:xlink="http://www.w3.org/1999/xlink" id="fixed-colours" viewBox="0 0 250 250">
  <title>coffee-cup</title>
  <path d="M 50.67,111.33 l -3-19.67 S 40,87,38,84.33 c 9-19.67,14.67-31,14.67-31 s 36.67-10,70-9.33,65.67,11.33,65.67,11.33,11,25.67,15.67,29 c -3.33,6.67-8,8-8,8 L 194.33,111 s 5.67,6,7.33,9 c -7.67,37-19.33,87.33-19.33,87.33 L 178,209.67 l -4.33,17.67 S 158.67,240,121,240 s -50.33-16-50.33-16 l -4-17.67 a 36.13,36.13,0,0,1-7-4 c -5-22-14.67-87-14.67-87Z"/>
  <path d="M 75.79,206.69 l 2.54,11.64 s 10,12.67,43.33,12.33,46-7.67,46-7.67,1.61-7.75,3.38-14.64 c -11.74,3.11-26.83,5.51-45.71,5.64 A 170.27,170.27,0,0,1,75.79,206.69Z" fill="#fad5e5"/>
  <path d="M 179.33,94.67 c 3.36-.91,6.51-1.89,9.46-2.89.08-.88.15-1.7.21-2.44,4-1,6-5.33,6-5.33 a 211.29,211.29,0,0,1-12.67-21.67 c -50.33-21-123.67-3-123.67-3 L 46,83 c 2.33,2,8,4.33,8,4.33 s .22,1,.58,2.6 A 209.61,209.61,0,0,0,77.33,95 C 111,100.67,152.33,102,179.33,94.67Z" fill="#ec008c"/>
  <path d="M 124.33,135 C 76.67,135.67,58,121,58,121 l -.77-6.55 a 30.58,30.58,0,0,0-3.9,5.88 s 9.33,50,12,79.33 c 2.33,1.67,9.83,4.17,9.83,4.17 l .62,2.86 A 170.27,170.27,0,0,0,125.33,214 c 18.88-.13,34-2.53,45.71-5.64.21-.8.41-1.59.62-2.36,2.83-1.25,6.58-3.25,6.58-3.25 s 9.08-48.75,15.42-80.42 a 43.58,43.58,0,0,0-5.54-5.84 c -.23,1.73-.5,3.62-.8,5.51 C 183,125.67,172,134.33,124.33,135Z" fill="#dbb99c"/>
  <path d="M 127,193.25 s -13.5-8-21-19.75-3.75-20.25.5-22.75,13-3.25,20.25,15.5 c 5-12,15-18.25,19-16.75 s 9,6.5,5,16.75 S 134.5,189,127,193.25Z" fill="#ec008c"/>
  <path d="M 188.79,91.77 c -2.95,1-6.1,2-9.46,2.89-27,7.33-68.33,6-102,.33 a 209.61,209.61,0,0,1-22.76-5.06 c 1,4.7,3.18,14.89,4.42,23.06 a 6.64,6.64,0,0,0-1.77,1.45 L 58,121 s 18.67,14.67,66.33,14,58.67-9.33,63-13 c .3-1.89.57-3.79.8-5.51 a 17.55,17.55,0,0,0-1.46-1.16 S 188,100.49,188.79,91.77Z" fill="#fad5e5"/>
  <path d="M 54.67,58.33 s 14,15.67,68.33,15 S 184,65,185.33,62 l 2,4 S 183,76.33,123,76.67,52.33,60.33,52.33,60.33Z"/>
  <path d="M 54,87.33 s 72,21.67,135,2 c 1,2.33,2.33,4.67,2.33,4.67 s -60,20.33-138.67-2.67 C 50,89.67,54,87.33,54,87.33Z"/>
  <path d="M 56.67,121.33 s .21-3.61,3.33-1.5 c 9.5,6.42,30.5,13.63,64.67,13.5,44.83-.17,54.83-7.17,61.67-12,2.55-1.8,2.33,1.33,2.33,1.33 s -9,15-63.67,14.33 S 58.33,123,56.67,121.33Z"/>
  <path d="M 74.25,203.75 s 45.75,16.75,98.5,2 c 4,1,.92,3.92.92,3.92 S 127,226.75,74,207.25 C 71,206.58,74.25,203.75,74.25,203.75Z"/>
  <polygon points="59 113 61 124.33 56.67 121.33 55 110 59 113"/>
  <polygon points="186.67 115.33 185.67 125.33 188.67 122.67 190 111 186.67 115.33"/>
  <path d="M 73.38,64.63 c 4.25,3,12.75,3.38,12.75,3.38 l 2.13-2 s -8.12-.62-11.12-3 C 75.38,63.88,73.38,64.63,73.38,64.63Z"/>
  <path d="M 127,56.2 c -22.25,0-44.11.69-44,4.36 s 29.09,5.11,40.21,5.1,39.63-1.89,39.18-4.21 S 153.3,56.18,127,56.2Z m -1.26,7.23 c -20.4,0-37.13-1.38-37.18-3 s 28.1-2.87,37-2.47 c 15.19.67,32.67,1,32.73,3 S 146.11,63.47,125.71,63.43Z"/>
  <path d="M 127,163.67 c -9.83-26.17-31.17-16.17-26.17,1.17 S 127,195.67,127,195.67 c 11-7.33,27.33-24.67,27-36 S 140,138.67,127,163.67Z m -.29,28 s -18.71-14.33-22-24.33.67-15.67,6.33-16.33 c 5.1-.6,13.67,9.67,15.67,19.33,6.67-15,12.67-19.33,19-18.33 s 6.33,10.33.33,20.33 S 126.71,191.67,126.71,191.67Z"/>
  <path d="M 62.25,29.5 S 43.5,26,51.25,13.75 C 57.12,4.47,74.5,10,69,28.25,64.75,42.34,63,58,79,64.75 c -8.5-13-8.06-19.28-3-30.75 C 89.59,3.18,53.41-2.33,45.75,13,42.25,20,46.25,33,62.25,29.5Z" opacity="0.2"/>
  <path d="M 92.5,8 S 90,3.75,85.25,4.25 C 82.25,4.57,79.53,7,80,14 c .61,9.1,9.5,19.25-2,30.25,9.5-4.5,9.75-13.5,7.25-22 S 81.5,2,92.5,8Z" opacity="0.2"/>
  <path d="M 47.86,234.72 S 30.72,229.11,23.27,219 s -5.56-20.25,1.55-17.67 S 37,212.25,37,212.25 s -3.33-13.47,4.54-21.09 S 57.59,202.16,47.86,234.72Z" fill="#fad5e5"/>
  <path d="M 208.61,65.44 S 205,51.6,206.88,40.13 s 15.46-19.47,7.17,12.09 c 8-17.58,22.63-23,15.42-7.21 A 39.44,39.44,0,0,1,208.61,65.44Z" fill="#fad5e5"/>
  <path d="M 18.85,137.87 s -6.76-4.14-10.44-9.42-1.34-13.72,7.52,2.05 c -3.59-10.09.17-17.88,3.37-8.82 A 21.87,21.87,0,0,1,18.85,137.87Z" fill="#fad5e5"/>
  <path d="M 34,51.79 S 10.07,36.32,13.73,29.54,28,37,28,37 s 1.23-13.3,4.87-16.31 S 41.22,27.68,34,51.79Z" fill="#fad5e5"/>
  <path d="M 136.72,33.72 S 128.3,29,125.42,23.15 s -1-13.7,8-.39 c 1-8.9,3.76-12.42,6.44-9.81 S 139.47,27.54,136.72,33.72Z" fill="#fad5e5"/>
  <path d="M 193.75,229.93 s -3.83-11.89-1.35-20,11.22-13.84,7.93,6.72 c 8.8-7.57,14.57-8.44,14.79-3.59 S 201.83,226.52,193.75,229.93Z" fill="#fad5e5"/>
  <path d="M 232.08,160.6 s -5.42-7.41-6.12-13.42,5.83-11.66,6.89-.48 c 5.69-5.3,10.55-5.92,8.16,1.17 S 232.08,160.6,232.08,160.6Z" fill="#fad5e5"/>
<script type="text/ecmascript" xlink:href="param.min.js"/> 
</svg>
