<?xml version="1.0"?>
<svg xmlns="http://www.w3.org/2000/svg" xmlns:xlink="http://www.w3.org/1999/xlink" id="fixed-colours" viewBox="0 0 250 250">
  <title>cucumber</title>
  <path d="M 109.5,105.5 c 31.43-30.06,57-63.5,66.5-75 s 18-21,34.5-17.5,12.5,31.5,5,53.5 S 189,134,137.5,184 s -88.5,47.5-96,44 c -14.5,2.5-18.5-7-14-16,0-20.5,9.5-37,29.5-55.5 S 86.5,127.5,109.5,105.5Z"/>
  <path d="M 36.67,218 c -3.82-7.64-4.33-22,12.67-42.33 s 56.33-54.33,72.33-71,43-47.33,53-62.33,24-26.33,33.67-24,9,20.67,1.33,45.33-36,73.33-59.33,98.67-53.67,46-77.67,56.33 C 59.33,223.67,42.67,230,36.67,218Z" fill="#008043"/>
  <path d="M 31.33,217 s 2.67,6,7,8.5 C 33.33,226.17,29.17,224.17,31.33,217Z" fill="#008043"/>
  <path d="M 42,201.75 s 4.25-16.25,29.75-38.25 S 118.67,119,133.33,104 s 50-57.67,59.67-72.67 c -10.33,18.33-28.67,40-51,67.33 s -48.33,49-56.33,55.33 S 45.33,192.83,42,201.75Z" fill="#8dc146"/>
  <path d="M 49.67,205.67 s 16.67-17,35.33-30.33 S 128.67,140,134,131 c -8,15.33-25.67,30-39.67,40.67 S 52.33,202.33,49.67,205.67Z" fill="#8dc146"/>
  <path d="M 153,109.67 s 37.33-45.67,44.67-65 C 192,66.33,162.67,102,153,109.67Z" fill="#8dc146"/>
  <path d="M 208.33,42.67 S 186,107.33,148,146.67 s -74.33,62-74.33,62,46.33-26,77.67-61.33 S 205,63,208.33,42.67Z" fill="#8dc146"/>
  <path d="M 237.65,138.43 c 4.83-.72,7.23-1.92,6.93-3.13-.41-1.62-4.31-.76-13.13.07 l -1.41-.63 c 4.72-4.6,11.85-11.52,9.81-13.16 s -5.69,3-12.75,10.32 c -1.12-5.85-2-9.76-4.28-9.38-2,.33-.76,4.06.17,8.83-5.54-3-12-6.82-13.42-5-1.71,2.14,5.46,5.82,12.79,9.65-7.15.22-16.71.32-15.16,2.65,1.45,2.17,5.4,1.3,12.46.77-4.79,4.83-9.28,9.75-6.78,10.11 s 6.95-4.2,10.91-8.36 c .14,6,.83,10.25,3.28,10.25 s 2.1-7.06,1.38-12.11 c 7.33,4.2,15.39,9.32,16.6,6.91 C 246,144.25,243.28,141.54,237.65,138.43Z" fill="#bfdd90"/>
  <path d="M 167.21,21.11 c -.21-1.38-3.71-.29-7.78.07,2.34-2.94,5.62-7.11,4.38-7.87 s -2.82,1.78-5.92,6 c -.09-3.82-.16-8.62-1.38-7.81-1.39.91-.5,3.71-.34,8.92-2.73-1.81-6.95-5.57-8-4.61 s 2.06,3.08,5.29,5.39 c -3.6,0-6.07.35-6.12,1.69 s 3.6,1.4,6.84,1.23 C 151.66,27.41,149,31,150.55,31 s 3.75-3,5.73-5.72 c .25,4.38,1.08,6.61,1.93,6.41 s .43-2.3,0-7 c 2.84,2.23,5.56,4.3,6.2,3.36 s -.71-2.62-3.62-4.71 C 164.77,22.89,167.42,22.45,167.21,21.11Z" fill="#bfdd90"/>
  <path d="M 206.88,219.55 c -.84-1.57-4.1.12-10,2.66,2.29-4.1,5.22-9.24,3.42-9.15-2,.1-2.86,3.62-5.94,9.25-1.76-3.63-3.88-10.25-5.56-9.86 s .25,4.56,2.23,9 c -3.82-2.26-6.66-3.42-7.55-2 s 2.94,3.74,6.48,5.58 c -4.77,1.89-9.84,4-8.21,5 s 5.87-.86,9.65-2.48 c -2.47,4.8-3,7.69-2,8 s 1.89-2.17,4.38-7.4 c 1.62,4.14,3.2,8,4.47,7.44 s .88-3.22-.89-7.26 c 4.53,1.94,7.61,3.14,8.23,1.59 s -3.75-2.62-8.29-4.79 C 201.63,223.5,207.72,221.12,206.88,219.55Z" fill="#bfdd90"/>
  <path d="M 95.31,67.43 c 6.13-2.51,13.88-5.58,11.82-7.06-2.34-1.69-6.34,1.47-14.69,5,1.26-5.55,4.75-14.71,2.56-15.77 s -3.73,5.24-5.48,11.9 c -2.22-5.85-4.32-9.64-6.53-8.89-2,.69-.05,6.71,2.23,11.86-6.92-2.12-14.4-4.2-13.49-1.68 C 72.57,65,79,67,84.55,68.52 c -6.95,3.1-10.06,5.83-9.21,7.08 s 4-.72,11.34-4.3 c -1.86,6-3.56,11.67-1.63,12.14 s 3.8-2.77,5.41-8.78 c 3.28,6.13,5.62,10.16,7.67,9 s -1.82-6.19-4.91-12.58 c 6.21,2,15,4.72,15.47,2.26 S 104.07,69.86,95.31,67.43Z" fill="#bfdd90"/>
  <path d="M 32.93,35 c 8.86-3,13.65-5.65,14.59-3.63 S 39,36,34.8,37.44,22.7,42.3,20.68,40.91,27.34,36.84,32.93,35Z" fill="#bfdd90"/>
  <path d="M 34.67,34.43 c 3.63,7.48,4.87,12.43,3,13.2 s -3.92-7.53-6-13 S 27.08,23.24,29,22.91,32.95,30.87,34.67,34.43Z" fill="#bfdd90"/>
  <path d="M 33.14,38 c 6.76,3.28,11.55,6.07,12.48,4.07 S 39.44,38.56,34,34.67 s -9.69-6.52-11-4.75 S 29.33,36.2,33.14,38Z" fill="#bfdd90"/>
  <path d="M 35.1,36.51 c -4.26,7.45-5.42,11-6.7,10.59 s 0-4.75,4.6-11.6,5.61-11.32,8-11.31 S 37.4,32.49,35.1,36.51Z" fill="#bfdd90"/>
  <path d="M 172.19,186.16 c -.3-1.28-4.1.23-8.29.64,1.52-2.45,4.94-7.47,3.68-8.06 s -2.45,2.38-5.29,7.08 c -1-3-2.28-8.41-3.21-7.35 s .31,2.92,1.52,6.76 c -2.05-1.52-4.38-3.34-5-2.72 s 1.74,2.57,4.42,4.48 c -3.44.19-5.79.63-5.76,1.8,0,1,3,1,5.81.71-1.55,2.57-2.84,5-1.73,4.9 s 2.45-2.26,3.73-4.41 c 1.08,3.08,2.14,4.51,2.73,4.18 s 0-1.57-1.05-4.38 c 2.37,1.86,4.64,3.61,5.18,2.83 s -.65-2.23-3.18-4 C 169.71,187.88,172.47,187.37,172.19,186.16Z" fill="#bfdd90"/>
  <path d="M 120.48,232.86 c -.28-1.19-3.8.21-7.7.6,1.42-2.28,4.59-6.93,3.42-7.49 s -2.28,2.21-4.92,6.58 c -.88-2.8-2.11-7.81-3-6.83 s .29,2.71,1.41,6.28 c -1.91-1.41-4.07-3.11-4.69-2.52 s 1.61,2.39,4.1,4.16 c -3.19.18-5.38.58-5.35,1.67,0,.92,2.79.92,5.39.66-1.44,2.38-2.64,4.64-1.6,4.55 s 2.28-2.09,3.46-4.09 c 1,2.86,2,4.19,2.54,3.88 s 0-1.46-1-4.07 c 2.2,1.72,4.31,3.35,4.81,2.62 s -.6-2.07-3-3.73 C 118.19,234.46,120.74,234,120.48,232.86Z" fill="#bfdd90"/>
  <path d="M 31,162.45 c -.34-1.45-4.65.26-9.41.73,1.73-2.79,5.61-8.47,4.17-9.15 s -2.78,2.7-6,8 c -1.08-3.43-2.58-9.54-3.64-8.34 s .35,3.32,1.73,7.67 c -2.33-1.73-5-3.8-5.73-3.08 s 2,2.92,5,5.09 c -3.9.22-6.57.71-6.54,2,0,1.13,3.41,1.12,6.59.8-1.76,2.91-3.22,5.67-2,5.56 s 2.78-2.56,4.23-5 c 1.22,3.49,2.42,5.12,3.1,4.74 s 0-1.78-1.19-5 c 2.69,2.11,5.27,4.1,5.88,3.21 s -.73-2.53-3.61-4.56 C 28.17,164.4,31.3,163.82,31,162.45Z" fill="#bfdd90"/>
  <path d="M 61.37,105.19 c -.27-1.17-3.75.21-7.59.59,1.4-2.25,4.53-6.84,3.37-7.38 s -2.24,2.18-4.85,6.49 c -.87-2.77-2.09-7.7-2.94-6.73 s .29,2.68,1.39,6.19 c -1.88-1.4-4-3.06-4.62-2.49 s 1.59,2.35,4,4.1 c -3.15.18-5.3.58-5.27,1.65,0,.91,2.75.91,5.32.65-1.42,2.35-2.6,4.58-1.58,4.48 s 2.25-2.07,3.42-4 c 1,2.82,2,4.13,2.5,3.83 s 0-1.44-1-4 c 2.17,1.7,4.25,3.31,4.74,2.59 s -.59-2-2.91-3.68 C 59.11,106.77,61.63,106.3,61.37,105.19Z" fill="#bfdd90"/>
  <path d="M 240.22,19.32 c -.16-.69-2.21.12-4.47.34.82-1.33,2.66-4,2-4.34 s -1.33,1.29-2.86,3.82 c -.51-1.63-1.23-4.53-1.73-4 s .17,1.58.82,3.65 c -1.11-.82-2.36-1.8-2.72-1.46 s .94,1.39,2.39,2.42 c -1.85.1-3.13.34-3.11,1 s 1.62.53,3.13.38 c -.83,1.38-1.53,2.7-.93,2.64 s 1.32-1.22,2-2.38 c .58,1.66,1.15,2.43,1.47,2.26 s 0-.85-.57-2.36 c 1.28,1,2.5,1.95,2.79,1.52 s -.35-1.2-1.72-2.17 C 238.89,20.25,240.38,20,240.22,19.32Z" fill="#bfdd90"/>
<script type="text/ecmascript" xlink:href="param.min.js"/> 
</svg>
