<?xml version="1.0"?>
<svg xmlns="http://www.w3.org/2000/svg" xmlns:xlink="http://www.w3.org/1999/xlink" id="fixed-colours" viewBox="0 0 250 250">
  <title>do-not-disturb</title>
  <path d="M 138.33,236.33 S 74.92,206.46,47.67,173 c -32.17-39.5-25-84.33,13-98.67 s 58.33,13,58.33,13,11.67-26.67,45-30,58.67,25.33,54.33,62.33 S 162.33,217.67,138.33,236.33Z"/>
  <path d="M 136.67,228.33 s -56.67-29.67-83-60.67 S 31.5,107.33,50.5,89 c 15.44-14.9,46.83-18,69.17,5.67,17-28.33,44-34.14,64.83-27.67,15,4.67,34.31,31.71,23.83,62 C 194.5,169,159.33,208.33,136.67,228.33Z" fill="#e1192b"/>
  <path d="M 119.33,21 c 16.05-1.51,24.33,7,41.67,7.33 S 188.33,23,191,20 c 4.33,2,4.33,7.33,4.33,7.33 A 34.87,34.87,0,0,1,172,43 c -16,2.67-39-5.33-46.67.67,3.33,8.33-5.67,19-17,16 S 94.33,44.33,98,36.33,108.67,22,119.33,21Z"/>
  <path d="M 118.33,25.67 c 9-1.41,17.67,1,29.33,4.67 s 31.67,3.67,41-4.67 c 2.67-.33,2,3.33,2,3.33 a 34.55,34.55,0,0,1-22,10.33 c -14.33,1.33-20.67,0-26.67-1 S 126,37,122.67,41 c 1,7-1.33,15-10.33,15.33 s -12.67-9-11.67-15.33 S 107.67,27.33,118.33,25.67Z" fill="#e6e6e6"/>
  <path d="M 112,36.33 a 8,8,0,1,0,8,8 A 8,8,0,0,0,112,36.33Z m 0,13 A 5.33,5.33,0,1,1,117.33,44,5.33,5.33,0,0,1,112,49.33Z"/>
  <polygon points="69.67 73 98 45.67 100 51.33 78 72.67 69.67 73"/>
  <polygon points="125.67 42 166.67 58.33 160 61.67 123.33 45.67 125.67 42"/>
  <path d="M 89.24,120.17 l .25.87 a 19.52,19.52,0,0,1-.44,7.3q-1.06,4.93-3.21,7.27 a 4.77,4.77,0,0,1-2.7,1.6,2.88,2.88,0,0,1-1.48-.13,1.18,1.18,0,0,1-.81-1Q81.61,135,81,131q-.38-2.35-1.53-6.92T77.9,117.2 l -.63-4.63 a 13.47,13.47,0,0,0-1-2.92,13.22,13.22,0,0,1-.9-2.59q-.24-1.46,3-2 l .64-.1q4.3-.7,7,3.8 a 25.74,25.74,0,0,1,2.87,9 l .32,2 A .81.81,0,0,0,89.24,120.17Z M 83,130.58 l .66,4 a 9.42,9.42,0,0,0,2.29-3.32 A 15.26,15.26,0,0,0,87,127 a 31.64,31.64,0,0,0-.21-8.53,19.65,19.65,0,0,0-2.42-7.34,7.16,7.16,0,0,0-3.62-3.26,5.29,5.29,0,0,0-2.6-.15v0q.62,3.81,2.38,11.39T83,130.58Z" fill="#fff"/>
  <path d="M 96.27,121.73 l -.22-1.61 c 0-.14-.05-.2-.1-.19 l -.12-.76 a 40.91,40.91,0,0,1-.78-9.56,7.19,7.19,0,0,1,.76-3.13,1.78,1.78,0,0,1,1.08-.75q4.9-.8,7.56,3.84 a 20.25,20.25,0,0,1,2.21,6.83 l .05.31.86,4.77q2,12.13-3.64,13 a 3.92,3.92,0,0,1-4-2,15.49,15.49,0,0,1-2.24-4.62 A 54.21,54.21,0,0,1,96.27,121.73Z m 1.55-6.17.43,3.93 A 51.46,51.46,0,0,0,101,130q1.48,2.48,2.51,2.8 a 1.93,1.93,0,0,0,1.28-.84,4.36,4.36,0,0,0,.71-1.82,18.93,18.93,0,0,0,.25-2.29,24.39,24.39,0,0,0,0-2.49q-.16-2.28-.42-3.86t-1.07-4.81q-.81-3.23-1.08-4.84 l -.12-.74 a 4.53,4.53,0,0,0-1.46-2.58,3.08,3.08,0,0,0-2.67-.8,2,2,0,0,0-1.65,1.94,12.46,12.46,0,0,0,.16,3.42Z" fill="#fff"/>
  <path d="M 121.74,108.12 l -1-7.79,0-.27q-.34-2.1.58-2.25t2.9,3.54q3.76,6.68,10,22.44 l .08.2-2.24-14.73-2-12.48 a 1.28,1.28,0,0,1,1.21-1.28q1.13-.19,1.4,1.46 l 0,.25 a 2.88,2.88,0,0,0,0,1.28 l 2.28,15.63 L 137,127 a 2.57,2.57,0,0,1-.14,1.31,1,1,0,0,1-.76.76q-.88.14-4.88-8.12t-8.13-17.84 L 125.38,117q.33,2,1.28,6t1.28,6 a .77.77,0,0,1-.37.73,2.55,2.55,0,0,1-1.16.45q-.73.12-.84-.54 l -.29-3.06q-.36-2.18-1.42-7t-1.25-5.95Z" fill="#fff"/>
  <path d="M 142.31,114.21 l -.22-1.61 c 0-.14-.05-.2-.09-.2 l -.12-.76 a 40.94,40.94,0,0,1-.78-9.56,7.18,7.18,0,0,1,.76-3.13,1.78,1.78,0,0,1,1.08-.75q4.9-.8,7.56,3.84 a 20.28,20.28,0,0,1,2.21,6.83 l 0,.31.86,4.76q2,12.13-3.64,13 a 3.92,3.92,0,0,1-4-2,15.51,15.51,0,0,1-2.24-4.62 A 54.24,54.24,0,0,1,142.31,114.21Z m 1.55-6.17.43,3.93 A 51.53,51.53,0,0,0,147,122.47q1.48,2.48,2.51,2.8 a 1.94,1.94,0,0,0,1.28-.84,4.35,4.35,0,0,0,.71-1.82,18.84,18.84,0,0,0,.25-2.29,24.24,24.24,0,0,0,0-2.49q-.16-2.28-.42-3.86t-1.07-4.81q-.81-3.23-1.08-4.84 l -.12-.74 a 4.53,4.53,0,0,0-1.46-2.58,3.07,3.07,0,0,0-2.67-.8,1.94,1.94,0,0,0-1.65,1.94,12.45,12.45,0,0,0,.16,3.42Z" fill="#fff"/>
  <path d="M 166.17,122.86 l -.61-3.22-.17-1.45q-.25-.51-2.22-9.41t-2.34-10.89 l -.17,0q-3.43.5-3.62-.7 a .76.76,0,0,1,.35-.72,1.8,1.8,0,0,1,.84-.4 l 5.79-.54.68-.13q1.32-.22,1.48.79 a 1,1,0,0,1-.3.9,1.61,1.61,0,0,1-.92.48 l -2,0v.44q.65,4,2.65,11.85t2.66,11.87 a 1.14,1.14,0,0,1-.31,1,1.52,1.52,0,0,1-.93.54Z" fill="#fff"/>
  <path d="M 90.09,158.62 l .25.87 a 19.52,19.52,0,0,1-.44,7.3q-1.06,4.93-3.21,7.27 a 4.78,4.78,0,0,1-2.7,1.6,2.88,2.88,0,0,1-1.48-.13,1.18,1.18,0,0,1-.81-1q.77-1.12.12-5.11-.38-2.35-1.53-6.92t-1.52-6.88 L 78.13,151 a 13.46,13.46,0,0,0-1-2.92,13.3,13.3,0,0,1-.9-2.59q-.24-1.46,3-2 l .64-.1q4.3-.7,7,3.8 a 25.74,25.74,0,0,1,2.87,9 l .32,2 A .81.81,0,0,0,90.09,158.62Z M 83.82,169 l .66,4 a 9.42,9.42,0,0,0,2.29-3.32,15.26,15.26,0,0,0,1.13-4.32,31.66,31.66,0,0,0-.21-8.53,19.66,19.66,0,0,0-2.42-7.34,7.16,7.16,0,0,0-3.62-3.26,5.27,5.27,0,0,0-2.6-.15v0q.62,3.81,2.38,11.39T83.82,169Z" fill="#fff"/>
  <path d="M 101.78,158.26 l 1.67,8.93.21,1.26.17,1.18.56-.09,1.21-.24q1.73-.28,1.9.77 a 1.21,1.21,0,0,1-.27,1,1.43,1.43,0,0,1-.92.54 l -1.85.3 a 22.13,22.13,0,0,1-2.46.32 l -.51.12 c -1,.16-1.55-.07-1.66-.7 a 1.28,1.28,0,0,1,.13-.78 c .13-.26.27-.41.43-.45 l 1.19-.2v-.57 l -1.75-8.91-1.31-9.43q-.39-2.41-.95-4.5 l -.8.13-1,.2 a 1.74,1.74,0,0,1-1-.08,1,1,0,0,1-.5-.84q-.16-1,1.92-1.31 l 5-.82q1.71-.28,1.85.61 a 1,1,0,0,1-.25.78,1.24,1.24,0,0,1-.79.47 l -2.16.35q.45,1.71.8,3.89Z" fill="#fff"/>
  <path d="M 113.87,168.86 l 1.8,0 A 1.82,1.82,0,0,0,117,168 a 4.55,4.55,0,0,0,.6-1.9,13.8,13.8,0,0,0,0-3.66,9.71,9.71,0,0,0-1-3,16.05,16.05,0,0,0-1.73-2.62q-1-1.19-1.93-2.42 a 13.17,13.17,0,0,1-2.8-6,8.44,8.44,0,0,1,.09-3.46q.75-2.91,2.73-3.24 a 2.45,2.45,0,0,1,1.49.24,1.32,1.32,0,0,1,.84.92q.16,1-.87,1.14 a 1.8,1.8,0,0,1-.93-.1q-1.33.28-1.32,3.28 a 9.67,9.67,0,0,0,.14,1.51,7.83,7.83,0,0,0,.72,2,10.34,10.34,0,0,0,1.3,2.08q.73.89,1.57,2t1.6,2.1 a 12.74,12.74,0,0,1,2.26,5.68,10.51,10.51,0,0,1-.38,5.07,5,5,0,0,1-1.33,2.15,4.35,4.35,0,0,1-2.3,1.15 l 0,.1q-1.77,0-2.16-1.32Z" fill="#fff"/>
  <path d="M 131.24,167.15 l -.61-3.22-.17-1.45q-.25-.51-2.22-9.41t-2.34-10.89 l -.17,0q-3.43.5-3.62-.7 a .76.76,0,0,1,.35-.72,1.81,1.81,0,0,1,.84-.4 l 5.79-.54.68-.13q1.32-.22,1.48.79 a 1,1,0,0,1-.3.9,1.6,1.6,0,0,1-.92.48 l -2,0v.45q.65,4,2.65,11.85t2.66,11.87 a 1.14,1.14,0,0,1-.31.95,1.53,1.53,0,0,1-.93.54Z" fill="#fff"/>
  <path d="M 148.89,145.66 l .16.71q3.06,18.72-2.38,19.61 a 3.36,3.36,0,0,1-3.39-1.2,9.34,9.34,0,0,1-1.85-3.31,55.47,55.47,0,0,1-1.41-6.12q-.62-3.48-1.7-10.07 l -1.17-6q.25-.95.75-1t1,.63 a 3.62,3.62,0,0,1,.66,1.57 l 1.87,11.47q.24,1.5,1,4.42t1,4.42q.5,3.09,3.18,2.65,3-.49-.69-23.17 l -.39-2.37-.14-.7 a 1.08,1.08,0,0,1,.11-.78,1.06,1.06,0,0,1,.75-.38,1.64,1.64,0,0,1,.89,0,1,1,0,0,1,.47.43,5.1,5.1,0,0,1,.41,1.33 l .4,4.29Z" fill="#fff"/>
  <path d="M 159,148.82 l .71,4.58 a 38.35,38.35,0,0,0,2.24,8.66 l -.29,1.21-1.17.19-.66-.53q-.27-1.9-.65-4.26t-2-10q-1.62-7.66-2.24-11.47-.33-2,1.07-2.23 a 6,6,0,0,1,3.9.55,4,4,0,0,1,2,3 l .48,3 a 5.39,5.39,0,0,1-.09,2.29q-.29,1.07-.71,2.27t-.46,1.33q.39,1,1.46,3.91 a 37.23,37.23,0,0,0,4.28,9,3.1,3.1,0,0,1,.64,1.22,1.23,1.23,0,0,1-.13.83.86.86,0,0,1-.64.43q-.89.14-2-1.75 a 25.82,25.82,0,0,1-2-4.29q-2.74-7.31-3.19-8Z m -1.86-12.45,0,.62q.28,1.73.9,5t.86,4.73q.9-.68,1.16-2.95 a 13.62,13.62,0,0,0,.07-3.43q-.19-1.15-.34-1.69 a 6.66,6.66,0,0,0-.46-1.16 A 1.9,1.9,0,0,0,157.1,136.37Z" fill="#fff"/>
  <path d="M 170.44,136.65 l -.58-2.15,0-.23 a 3,3,0,0,1,0-1.45q.19-.56,1.34-.75 a 4.68,4.68,0,0,1,2.33.23,4.6,4.6,0,0,1,2,1.37,9,9,0,0,1,2,4.49,17.82,17.82,0,0,1,.29,4.23,8.74,8.74,0,0,1-.85,3.07q1.91,1.32,2.75,4.9.18.82.37,2 a 11.93,11.93,0,0,1,.17,2.3,8.81,8.81,0,0,1-.33,2.23,7.12,7.12,0,0,1-.91,1.95,5.55,5.55,0,0,1-3.88,2.28,1.08,1.08,0,0,1-1.26-.6,6.13,6.13,0,0,1-.42-1.41 l -1.05-9Z m 2.41,1.83,1,6.28q2.21-.42,1.35-5.7t-2.62-5.2 A 13.23,13.23,0,0,0,172.85,138.47Z m 2.7,18.21.07.2.31,1.9 a 3.16,3.16,0,0,0,1.86-2,5.52,5.52,0,0,0,.3-2.63q-.19-1.16-.33-1.84 a 14.84,14.84,0,0,0-.47-1.64,11.7,11.7,0,0,0-.69-1.66,2.78,2.78,0,0,0-2.25-1.77q.26,2.75.86,6.41Z" fill="#fff"/>
  <path d="M 131.47,191.42 a 1.37,1.37,0,0,1-1.14-.29,1.57,1.57,0,0,1-.59-1 A 1.61,1.61,0,0,1,130,189 a 1.47,1.47,0,0,1,1-.68,1.42,1.42,0,0,1,1.14.32,1.67,1.67,0,0,1,.64,1.07,1.39,1.39,0,0,1-.3,1.15 A 1.65,1.65,0,0,1,131.47,191.42Z M 135,208 a 8.51,8.51,0,0,1-1.05,2.62q-.74,1.2-1.48,1.32 c -.49.08-.77-.05-.83-.4 a 1.27,1.27,0,0,1,.36-1,6.6,6.6,0,0,0,.4-2.58q0-1.73.12-3t.81-1.34q1.46-.24,1.83,2 A 6.46,6.46,0,0,1,135,208Z" fill="#fff"/>
  <path d="M 143.78,192.27v0q.56,3.4.23,13.05 a 42.43,42.43,0,0,1-.89,7.51q-.73,3.3-1.95,3.5 a 1.2,1.2,0,0,1-.82-.15.85.85,0,0,1-.45-.62,2.91,2.91,0,0,1,.16-1.17q.22-.78.58-1.72 a 31.39,31.39,0,0,0,1.53-9.88,55.09,55.09,0,0,0-.44-9.75q-1.54-9.43-4.76-13.62 a 6.49,6.49,0,0,1-1.38-2.63 l 0-.23.66-.72q1.19-.19,2.53,1.87 a 24.92,24.92,0,0,1,2.36,5.11 A 66.53,66.53,0,0,1,143.78,192.27Z" fill="#fff"/>
  <path d="M 52,240.91 s -9.47-4.57-13-11-1.65-12.13,2.26-10.09,6.2,7.26,6.2,7.26-.88-8,4.25-11.84 S 60.18,222.84,52,240.91Z" fill="#ec008c"/>
  <path d="M 209.07,49.53 S 202,35.7,201.18,23.09 s 11.74-24.36,10.5,11.11 C 216,13.63,230.19,4.4,226.31,22.86 S 209.07,49.53,209.07,49.53Z" fill="#ec008c"/>
  <path d="M 187.87,238.73 a 42.62,42.62,0,0,1-2.44-15.88 c .49-8.31,4.4-13.68,6.84-11 s .73,11.49.73,11.49,5.62-8.8,8.06-8.31 S 205.71,221.38,187.87,238.73Z" fill="#ec008c"/>
  <path d="M 235.67,107.07 a 42.62,42.62,0,0,1-5.83-15 c -1.33-8.22,1.32-14.31,4.29-12.22 s 3.21,11.05,3.21,11.05,3.58-9.81,6.07-9.86 S 249.32,86.26,235.67,107.07Z" fill="#ec008c"/>
  <path d="M 17.63,162.63 A 42.62,42.62,0,0,1,7.54,150.12 c -3.75-7.43-3.07-14,.39-12.95 s 6.4,9.56,6.4,9.56.44-10.43,2.8-11.24 S 24.34,138.66,17.63,162.63Z" fill="#ec008c"/>
  <path d="M 225.41,186.86 s -4.06-18,.7-19.49,3.23,9.93,3.23,9.93,6.6-5.6,9.65-5.35 S 239.68,179,225.41,186.86Z" fill="#ec008c"/>
  <path d="M 38.4,44.53 S 24.35,40.28,18.15,32.45 s -5.87-20.09,11.8-3.17 c -1.44-13.56,1.57-19.72,6.42-16.7 S 40.5,34.44,38.4,44.53Z" fill="#ec008c"/>
  <path d="M 85,51.5 s -8.33-4.09-11.78-9.14 S 73,29.19,79.18,38.7 c 2.61-7.41,6.66-10.26,7.85-2.79 S 85,51.5,85,51.5Z" fill="#ec008c"/>
  <path d="M 141.89,20.94 s -4.63-6.08-5.31-11.07,4.66-9.79,5.72-.51 c 4.65-4.5,8.68-5.1,6.81.84 S 141.89,20.94,141.89,20.94Z" fill="#ec008c"/>
<script type="text/ecmascript" xlink:href="param.min.js"/> 
</svg>
