<?xml version="1.0"?>
<svg xmlns="http://www.w3.org/2000/svg" xmlns:xlink="http://www.w3.org/1999/xlink" id="fixed-colours" viewBox="0 0 250 250">
  <title>gift-box</title>
  <path d="M 179.36,24.22 C 162.49,22.06,146.48,37.63,130,58,119.23,33.74,96.28,15.79,73,15.57 s -28.55,24.22-2.6,49.31,55.8,29.84,55.8,29.84 c 24.65-4.76,50.61-18.17,64-37.2 S 196.22,26.38,179.36,24.22Z M 159.46,71.8 c -8.22,8.22-24.51,16.44-32.87,18.89 C 116.93,84.78,88.67,58.25,95,46.28 c 3-5.68,24.22,8.65,33.74,36.33 C 138.27,61,152.54,50.17,165.51,48 S 167.68,63.58,159.46,71.8Z" fill="#f287b6"/>
  <path d="M 108.42,232.7,104.53,98.62 s 31.57-1.73,46.28.87 c -3,30.28-15.57,132.35-15.57,132.35Z" fill="#f287b6"/>
  <path d="M 152.54,98.62 s 38.49,2.6,65.74,6.92 c 0,10.38-7.79,47.15-7.79,47.15 h -7.79 s -13.41,82.18-16.44,82.18-51.9-.87-51.9-.87Z" fill="#76cec2"/>
  <path d="M 31.86,101.64 s 45.42-4.33,72.66-3 c .87,27.68,3.89,134.08,3.89,134.08 H 51.33 L 43.54,151 l -8.22-.43Z" fill="#76cec2"/>
  <path d="M 22.83,164.06 s -9.34-1.67-14-6.4-4.38-10.14-.49-9.32,7.14,4.81,7.14,4.81-2.72-6.77.82-11.32 S 25.51,146.38,22.83,164.06Z" fill="#f287b6"/>
  <path d="M 204.21,80.72 s -1.1-16.39,3.43-29,21.6-18.7,5.53,15.18 c 12.78-18.15,30.45-21.13,19-4.86 S 204.21,80.72,204.21,80.72Z" fill="#f287b6"/>
  <path d="M 217.3,198.27 s .8-24.85,7.52-25.17.85,14,.85,14,10.5-5.06,14.39-3.7 S 238.58,192.82,217.3,198.27Z" fill="#f287b6"/>
  <path d="M 35.72,67.41 S 22.48,63.85,16.47,56.73 s -6.07-18.58,10.91-3.3 c -1.74-12.61.89-18.45,5.5-15.77 S 37.38,57.93,35.72,67.41Z" fill="#f287b6"/>
  <path d="M 31.56,234.3 s -8.06-4-11.4-8.84-.25-12.74,5.75-3.54 c 2.52-7.17,6.45-9.93,7.6-2.7 S 31.56,234.3,31.56,234.3Z" fill="#f287b6"/>
  <path d="M 137.25,23 s -4.35-5.63-5-10.27,4.27-9.15,5.33-.51 c 4.3-4.22,8.05-4.81,6.34.73 S 137.25,23,137.25,23Z" fill="#f287b6"/>
  <path d="M 26.12,97.05 l 5.39,56.27,7.38-.2,8.28,85 s 103.29-2.44,142.5,1.52 c 3.32-16.29,17.07-83.5,17.07-83.5 l 7.38-.2 s 8.38-36.22,10.11-54.2 C 128,84.74,26.12,97.05,26.12,97.05Z M 208.6,148.43 l -9-.25-15.8,81.89 s -74-3.7-128.6-.72 C 51.53,184.6,49.33,146,49.33,146 s -6.17,1.06-9.44.56 c 0-1.64-2.54-41-2.54-41 S 136,94.38,215.46,108.07 C 211,136.62,208.6,148.43,208.6,148.43Z"/>
  <polygon points="101.92 96.3 106.76 231.2 110.03 231.29 107.64 96.87 101.92 96.3"/>
  <polygon points="148.54 98.83 132.98 231.11 136.66 231.21 154.72 97.77 148.54 98.83"/>
  <path d="M 105.9,145.36 c -20.2-.22-40.34-.11-56.57.68-3,4-3,5.65-3,5.65 s 20.85-2.15,59.82-1.91Z"/>
  <path d="M 199.6,148.18 s -23.75-1.17-54.25-2 l -.8,4.55 c 17.4.71,37,1.88,58.56,3.72 a 6.1,6.1,0,0,1,2.17-4.45Z"/>
  <path d="M 161.17,24.15 a 85.59,85.59,0,0,0-30.23,30.36 s -6-23.17-34.66-38.72 S 33.33,16,56.66,55.65 C 77,90.21,127.21,96.12,127.21,96.12 c 32.06-4,62.86-21.59,73-48.76 S 180.22,12.94,161.17,24.15Z m 26.18,30.63 c -15.79,22.91-38.25,35-60.84,37.22,0,0-31.46-2.93-54.46-30.19 s -12.73-43,4.88-42.87 S 121,39,129.36,63.41 C 141.7,46.55,158.6,28.18,173,27.35 S 203.15,31.88,187.35,54.79Z"/>
  <path d="M 156,47.36 c -9.18,5.89-18,12.61-27,29.15-7.2-16.93-17.19-30-26.91-33.93 s -18.85.29-7.89,18.62 S 126.51,92,126.51,92 s 29.72-8.18,43-29.52 S 165.19,41.47,156,47.36Z m 8.16,15.79 C 156,76,141.09,83.4,126.57,90 c 0,0-20.41-17.36-27.37-31.89 s 5.24-10.11,11.14-3 c 8,9.71,16.67,23.06,17.64,32.1,7.35-13.72,16.2-26.65,27-32.08 S 172.32,50.27,164.18,63.15Z"/>
<script type="text/ecmascript" xlink:href="param.min.js"/> 
</svg>
