<?xml version="1.0"?>
<svg xmlns="http://www.w3.org/2000/svg" xmlns:xlink="http://www.w3.org/1999/xlink" id="fixed-colours" viewBox="0 0 250 250">
  <title>crown</title>
  <path d="M 52.73,186.61 S 37.9,181.76,31.46,173 s -4.81-17.52,1.34-15.29,10.54,9.47,10.54,9.47-2.88-11.66,3.93-18.25 S 61.14,158.44,52.73,186.61Z" fill="#76cec2"/>
  <path d="M 198.28,38.44 s -3-11.63-1.45-21.26,13-16.35,6,10.16 c 6.72-14.77,19-19.3,13-6.05 A 33.13,33.13,0,0,1,198.28,38.44Z" fill="#76cec2"/>
  <path d="M 18.61,103.89 s -7.17-4.38-11.07-10-1.42-14.53,8,2.18 c -3.8-10.69.18-18.94,3.57-9.34 A 23.17,23.17,0,0,1,18.61,103.89Z" fill="#76cec2"/>
  <path d="M 222.54,154.63 s .8-24.63,7.45-24.94.84,13.91.84,13.91,10.41-5,14.26-3.67 S 243.63,149.23,222.54,154.63Z" fill="#76cec2"/>
  <path d="M 71.3,38.09 s -12.64-5-17.78-12.64-3.93-19,11.11-2.05 c -.32-12.61,2.91-18.07,7.16-14.92 S 74,28.94,71.3,38.09Z" fill="#76cec2"/>
  <path d="M 209.76,237.71 s -4.16-12.93-1.47-21.77,12.2-15,8.62,7.31 c 9.56-8.23,15.83-9.18,16.08-3.9 S 218.54,234,209.76,237.71Z" fill="#76cec2"/>
  <path d="M 24.74,239.63 s -9.58-4.7-13.55-10.51 S 10.9,214,18,224.91 c 3-8.52,7.66-11.79,9-3.2 S 24.74,239.63,24.74,239.63Z" fill="#76cec2"/>
  <path d="M 80.41,214.16 S 77.91,199.6,75.83,190 C 74,181.4,68.76,134.7,43,94.77,20.5,81.87,14.68,64.81,20.5,59 s 19.14,2.5,19.14,2.5 S 37.14,48.59,48,44,69.59,58.16,66.68,84.78 c 12.06,15.81,32.45,50.34,32.45,50.34 S 115.35,91.44,117,71.05 C 99.54,59,89.56,36.94,92.89,22.8 s 21.22-23.3,34.53.83 C 139.89.33,158.2,6.16,163.19,19.05 s -3.33,37.44-17.89,52 c 5,32.45,14.56,67.39,15.81,65.31 s 15.81-32.45,27-45.34 c -1.66-20-3.33-32.86,3.33-39.94 s 18-3.17,18.87,12.64 c 11.65-8.32,16.9-3.07,19.81,2.75 S 228.81,85.06,208,98.33 C 192.24,136.6,182.33,185,181.49,214.16 c 9.15,7.07,11.23,15,5,21.22 a 12,12,0,0,1-13.31,2.91 s -5.82,5.82-17.06,2.5 c -6.66,6.24-16.22,0-16.22,0 s -7.49,5.82-15,0 c -6.66,3.74-10.82,3.74-15.39-.42-5,2.91-13.31,3.33-17.89-3.33-7.9,1.25-14.14-2.91-15.81-7.9 S 76.66,216.24,80.41,214.16Z"/>
  <path d="M 57.11,94.35 s -15-4.58-23.71-14.56-8.74-16.22.42-14.14,10.4,4.16,10.4,4.16.42-9.15,2.91-14.56,9.15-2.91,11.23,6.24 S 60,83.53,57.11,94.35Z" fill="#f287b6"/>
  <path d="M 130.33,72.72 S 116.6,61.9,107,47.76 s -3.33-26.62,2.5-26.21 S 122.84,27,127.41,38.61 c 5.41-12.48,13.31-20,21.22-18.72 S 163.19,44,130.33,72.72Z" fill="#f287b6"/>
  <path d="M 196.89,93.1 a 61.87,61.87,0,0,1-3.74-22.46 c .42-12.06,11.23-21.63,12.06,1.25,9.57-6.24,20-6.66,13.73,5.82 S 196.89,93.1,196.89,93.1Z" fill="#f287b6"/>
  <path d="M 56.28,101 l 4.58,1.66,2.08-5.41 s 26.21,37,36.61,58.24 c 15-31.62,26.62-78.21,26.62-78.21 L 129.91,81,137,75.63 s 9.15,48.26,22,74 c 17.47-27.46,31.2-50.75,31.2-50.75 l 1.66,5,5.41-2.08 s -18.3,57.82-22.88,111.9 c -2.5.83-5.82,5.41-5.82,5.41 s -7.49-5-13.31,1.25 c -5.82-2.08-10-2.5-13.73,1.25-3.74-3.33-8.74-3.33-12.06-.42-4.16-3.33-11.65-3.74-15.81-1.25-4.16-2.91-11.23-5-15.81-1.25 a 20.26,20.26,0,0,0-11.23-5.82 S 80.41,147.18,56.28,101Z" fill="#312f30"/>
  <path d="M 134.37,203.72 s -13.84-10.38-17.73-22.49,3.46-27.25,17.3-8.65 c 9.52-10.81,13.41-8.65,16.87-5.19 S 156,187.28,134.37,203.72Z" fill="#f287b6"/>
  <path d="M 134.07,169.23 c -10-17.06-27.87-7.49-22,10.82 s 22,27.46,22,27.46 c 12.9-7.49,22.46-23.3,22.46-32.86 S 143.64,152.59,134.07,169.23Z m -.42,31.62 a 51.82,51.82,0,0,1-14.14-18.72 c -5-11.65,4.58-22.46,14.56-5.41,6.66-11.65,12.48-9.57,15-6.24 S 149.46,189.2,133.65,200.84Z"/>
  <path d="M 89.84,218.59 c 4.7.59,5.27,4.44,3.61,8 s -6.66,3.33-8.32,2.22 a 6.61,6.61,0,0,1-3.05-7.49 C 83.18,217.48,87.62,218.32,89.84,218.59Z" fill="#f287b6"/>
  <path d="M 97.32,227.19 c 1-2.72,5-4.16,7.49-3.61 s 5.55,3.33,5.27,6.66-4.16,5.55-8,5 S 96.22,230.24,97.32,227.19Z" fill="#f287b6"/>
  <path d="M 113.13,230.52 c -.4-3.58,3.33-6.1,6.66-5.82 s 5.82,2.5,5.55,5.82-4.16,5-6.93,4.71 A 5.64,5.64,0,0,1,113.13,230.52Z" fill="#f287b6"/>
  <path d="M 128.39,230 c .28-2.76,4.71-4.16,6.66-4.16 s 5.82,2.5,5.82,5.55-3.33,4.16-7.21,4.16 S 128.11,232.74,128.39,230Z" fill="#f287b6"/>
  <path d="M 143.64,230.8 c 0-2.77,2.22-5.27,5.82-5.27 s 6.1,2.5,6.1,4.71-2.22,5.27-6.1,5.27 S 143.64,232.74,143.64,230.8Z" fill="#f287b6"/>
  <path d="M 158.61,230 c -.62-1.86,2.29-4.92,5-5.55 a 5.58,5.58,0,0,1,6.93,3.88 c .55,2.5-3.33,5.27-6.38,5.55 S 159.17,231.63,158.61,230Z" fill="#f287b6"/>
  <path d="M 176.09,221.92 a 4.93,4.93,0,0,1,6.66,2.77 c .83,2.22-.55,5.82-4.44,6.66 s -5.55-3.61-5.55-5 A 5,5,0,0,1,176.09,221.92Z" fill="#f287b6"/>
<script type="text/ecmascript" xlink:href="param.min.js"/> 
</svg>
