<?xml version="1.0"?>
<svg xmlns="http://www.w3.org/2000/svg" xmlns:xlink="http://www.w3.org/1999/xlink" id="fixed-colours" viewBox="0 0 250 250">
  <title>high-heel</title>
  <path d="M 55.8,214.82 s -4.61-57.67-25.66-90 c -8.94-10.09-4.8-29.19,1.87-40.19,5.71-9.42,12.6-23.41,10-30.33 S 44,39.4,56.67,42 s 35.56,25,52.19,41.48 c 18.45,18.31,41.09,39.79,63.58,52.77 s 42,14.85,50.89,18.31,17,14.42,3.46,24.8 c -2.88,13.55-9.52,28.26-9.52,28.26 s -22.78,10.09-47.87,10.09-29.7-6.06-33.45-15 S 122.67,149,84.17,128.5 c -9.8,18.74-18.85,67.29-15.68,84.59 C 63.58,215.4,55.8,214.82,55.8,214.82Z" fill="#fa467f"/>
  <path d="M 129.9,185.12 s 44.12,20.18,96.89-5.77 c -4.61,17.88-9.52,28.26-9.52,28.26 s -40.66,15.86-68.92,6.92 C 136.82,209.34,135.38,196.37,129.9,185.12Z" fill="#f287b6"/>
  <path d="M 26.17,106.5 s 4.83,4,16.5,8.5 c 10.24,4,25.75,6.75,43,13.5-20,27.5-19.2,73.92-17.76,82.86-4.9,4.33-13.26.58-13.26.58 s -3-37.81-10.38-54.79 C 27.67,119,26.17,106.5,26.17,106.5Z" fill="#f287b6"/>
  <path d="M 106.55,81.6 a 206,206,0,0,1,25.23,22.64 c 13.7,14.71,27.14,27,36.33,30.71,13.22,5.39,12.83,11.82,6.49,14.71 s -16.72.58-29.41-12.69 S 112.89,87.95,106.55,81.6Z" fill="#ba0f55"/>
  <path d="M 223.12,150.44 c -10.17-3.66-16.77-5.42-26.2-9.19-6.25-2.5-18.42-6.67-30-11.75-11.82-5.19-33.41-26.56-50.71-44.72 C 90.06,57.32,65.28,35.67,47.67,35.67 c -5.67,0-10,6.33-10,13.33 s -6,27.5-13,40.33 C 18,101.66,19,117.67,27.52,128.21 c 11.6,12.25,23.85,61.87,25.78,88.3 C 60.38,221,72,215.86,72,215.86 S 63.67,164,87.17,133 c 11,6.44,23.5,19.5,33,42.5,6.93,16.79,16.27,42.94,22.07,43.58,34.8,11,78.63-8.38,78.63-8.38 s 7-11.54,11-30.29 C 245.35,165.59,235.2,154.79,223.12,150.44Z M 166,136 c 18.55,6.89,12.44,14.18-.67,12-9.06-1.51-16.65-11.09-23.42-20.11 s -27.44-37.05-27.44-37.05 C 148.21,128,153.76,131.45,166,136Z M 65.22,209.74 a 6.51,6.51,0,0,1-7.09-.32 c -.26-18.43-7.92-47.91-18-74.41-2.25-5.93-11-16.5-11.5-25.5,0,0,5.5,5,16,8,12.87,3.68,28.43,7.22,35,11.5 C 58.67,165,65.22,209.74,65.22,209.74Z m 151.45-5.24 s -29.8,12.65-60.74,8.3 c -10.63-1.49-13.53-8.51-21.26-24.3,0,0,45.67,17.33,89.5-6.83 C 223.2,192.62,216.67,204.5,216.67,204.5Z m 7.1-29.24 c -10,7.41-25.17,16.71-61.23,14.5-12.37-.76-22.54-2.92-29-7.76-7-13.83-10.41-23.15-19.83-35-14-17.57-20.49-16.44-33.75-22.25-14.25-6.25-45.75-11-50.5-20,1.33-11,7.25-21.75,10.25-26.25,5.31-8,3.84-7.41,5.33-13.83,1.39-6-.07-19.32,7.67-19 s 36.43,18.75,51.25,38.08,28.18,38.53,40.75,54,27,17.25,34,12.25 c 5.63-4,1.75-9,1.75-9,4,2.25,7.75,3.5,14.75,6.75 a 157.31,157.31,0,0,0,23.76,8.82 C 226,158.5,233.75,167.84,223.76,175.26Z"/>
  <path d="M 105.33,223 l 4.17-7.3-8.17.17 s -2.43-7.48-4.7-11.3 c -.17,3.83-2.78,11.83-2.78,11.83 s -7.3.17-14.26.7 c 2.26.52,12.17,6.09,12.17,6.09 L 87.24,239 l 12-10.78 a 41.52,41.52,0,0,1,11.13,6.61 C 108.8,230.83,105.33,223,105.33,223Z m .52-5-2.09,2.43-1.22-2.09Z m -8.35-6.43,1.57,4-3.13.17Z m -10.26,7 H 92.8 l -.7,2.43Z m 4.87,12.87 L 94,224.74 l 2.78,1.74Z m 6.78-6.43-4.35-2.78.87-3.65,4.52-.35,2.61,3.83Z m 4.7-.35 s 1.91,3.48,2.26,4.35 a 14.67,14.67,0,0,0-4.7-2.26Z" fill="#76cec2"/>
  <path d="M 22.89,181.47 l 7,2-1.8-6.8 a 64.35,64.35,0,0,0,8.5-6.21 c -3.23.63-10.45.07-10.45.07 s -1.62-6.07-3.47-11.78 c 0,2-2.63,11.41-2.63,11.41 l -14.15-.58,11.44,7.85 A 35.71,35.71,0,0,1,14,188.08 C 17,186,22.89,181.47,22.89,181.47Z m 4.32-.58-2.46-1.25,1.5-1.44Z m 3.69-8.28-3,2.12-.78-2.58Z M 23,165.44 l 1.13,4.65 L 22,170Z m -9.77,6.68,5.91.26-.89,2.68Z M 20,176.48 l 1.45-4.2 h 3.23 L 25.87,176 l -2.67,3Z m 1.24,3.86 s -2.52,2.3-3.18,2.77 a 12.62,12.62,0,0,0,.94-4.38Z" fill="#76cec2"/>
  <path d="M 234,228.73 l 3.47-6.44 L 231,223.45 l -5.29-4-1,6.11 L 214,229.89 l 9.58,2.31-1.32,8.26 s 4.79-5.62,7.27-6.61 c 6.11,1.32,10.41,2.64,10.41,2.64Z m .5-4.29-1.16,2.81-1.16-2Z m -7.27-2.15,1.82,1.49-2.81.83Z m -3.8,7.76-4-.66,4.46-1.32Z m 1.32,5.45.66-3.3,2.15.5Z m 4.62-4.46-4-1.32.83-3,3.8-.83,2,2.48Z m 3.63-.83,2,3-3.8-1.16Z" fill="#76cec2"/>
  <path d="M 220.35,116.28 l 11.13,4.85-2.8-10.49,5.82-9.28-10.24-.8 L 215.68,83.4 l -2.5,16.16-13.84-1 s 9.94,7.14,11.93,11.1 c -1.34,10.29-2.93,17.57-2.93,17.57Z m 7.82,1.1 L 222.72,115 l 3.45-2.86Z m 2.25-14-2.56,4-1.75-4.53Z M 216.71,99 l .55-6.64,3.41,7.28Z m -9.17,2.52,6.13.63-.76,4.05Z m 8.35,7.45.65-6.83,5.88.5,2.5,6.75 L 220.62,113Z m 1.87,5.89-4.64,3.69,1.39-6.44Z" fill="#76cec2"/>
  <path d="M 171.29,66.63 c -1.27-.09-9.62-1.12-9.62-1.12 L 160,58.25 l -3.19,6.8 s -4.56.2-10.93-.18 c .81.31,8.27,6.1,8.27,6.1 s -2.44,6.38-3.78,11.18 c 1-.57,7.59-5.12,9-6,1.14,1,4.55,4.38,4.55,4.38 l -.91-6.71 A 85.55,85.55,0,0,0,171.29,66.63Z m -20.75-.12,5.25.07 s -.7,1.89-1.1,3.13 C 154.08,69.34,150.54,66.5,150.54,66.5Z m 9.06-4,.68,3-2.11-.33Z m -7,16.43 c 1.41-3.37,2.9-7,2.9-7 l 3.47,2.78 S 156.17,76.42,152.57,78.9Z m 7.36-5-4.07-3.3,1.46-4.16,3.21.41,1.1,6.24Z m 1.61-6.79 s 3.5.35,6.75.6 c -1.4,1.4-5.56,4.79-5.56,4.79Z m 1.28,10.55-2.28-2.32,1.63-1.19Z" fill="#76cec2"/>
  <path d="M 29.39,56.54 c -1.15-.54-8-5.32-8-5.32 l .86-5.45-4.89,3.65 S 12.67,48.3,7.16,47.48 c .64.58,5.53,6.48,5.53,6.48 s -4.6,5-7.61,9 c 1.13-.17,9.82-2.65,11.14-1.88.7,1.35,2.08,5.3,2.08,5.3 l 1.61-6.57 A 63.36,63.36,0,0,0,29.39,56.54Z m -18.65-7,5,.92 s -1.34,1.5-2.17,2.51 C 13.18,52.4,10.75,49.53,10.75,49.53Z M 20.83,48 l -.47,3.07 L 18.52,50Z M 8.27,60.74 c 2.54-2.62,5.26-5.47,5.26-5.47 l 2.21,3.85 S 12.54,59.75,8.27,60.74Z m 8.67-1.93-2.58-4.56,2.88-3.34,2.84,1.56-1.26,6.21Z m 4-5.73 s 2.73,1.64,5.55,3.4 c -1.81.79-6.41,2-6.41,2Z M 18.26,63.37,17.2,60.06 l 1.74-.19Z" fill="#76cec2"/>
  <path d="M 97.84,24.48 s 1.78-5.52,3.91-11.92 c -3,.71-11.39,5.16-11.39,5.16 s -4.09-3.56-6.58-5.87 c .18,2.31.89,10.5.89,10.5 l -7.3,5,8.72,1.42 L 88.94,40 s 3-5.34,6.76-10.5 c 1.42,0,9.43,2,9.43,2Z M 81.64,26.26 l 3-2,.71,2.49Z m 4.09-10.32,3,2.85-2.67,2Z m 3.74,19-1.42-6,5.34.18Z m 4.09-7.83-6.41-.36-.71-3.2,3.91-3.38,4.45,4.09Z M 92.32,19.5 s 3.74-2.85,6-3.56 c -.53.89-2.49,6.58-2.49,6.58Z m 4.45,6,2.85,2.85-3.74-.71Z" fill="#76cec2"/>
  <path d="M 224.23,28.28,229.28,15 l -11.84,2.44 s -4-6.62-5.92-10.27 c -.17,2.79-2.26,13.24-2.26,13.24 l -12.19,6.79,10.28,4.35-1,10.8,9.23-7.31,14.28,1.74Z M 225.1,18 l -2.79,7.14-3.48-5.22Z m -12.71-4.7,2.79,4.35-3.66,1.57Z M 201.94,26.89 l 6.62-3-.7,5.05Z m 6.62,10.8,1-5.05 L 213.26,34Z m 1.57-8.53.7-6.27,5.75-2.26,3.83,6.27-4.88,5.22Z m 12.54.17,3,4.7-7.14-1Z" fill="#76cec2"/>
<script type="text/ecmascript" xlink:href="param.min.js"/> 
</svg>
