<?xml version="1.0"?>
<svg xmlns="http://www.w3.org/2000/svg" xmlns:xlink="http://www.w3.org/1999/xlink" viewBox="0 0 250 250">
  <defs>
    <linearGradient id="linear-gradient" x1="125" y1="46.57" x2="125" y2="79.16" gradientUnits="userSpaceOnUse">
      <stop offset="0" stop-color="#62acdb"/>
      <stop offset="0.33" stop-color="#66afdc"/>
      <stop offset="0.63" stop-color="#70b8de"/>
      <stop offset="0.91" stop-color="#83c6e1"/>
      <stop offset="1" stop-color="#8acce2"/>
    </linearGradient>
  </defs>
  <title>hot-dog-legs</title>
  <g id="skin-tone">
    <path d="M 160.5,81.5 C 152,75,136.23,77,134.73,89 c -1.42,11.35.5,115.41,1.51,152.46 a 116.53,116.53,0,0,0,67-29.47 c -5.29-20.51-11.52-44-15.9-60.33 C 177.67,115.67,169,88,160.5,81.5Z" fill="param(skin_tone)"/>
    <path d="M 104.5,79.5 C 93,77,80.83,83,76,98 c -3,9.37-19.52,69.73-29.46,113.79 a 116.56,116.56,0,0,0,63.51,29.26 c 1.23-25.67,4.16-87.44,4.95-110.55 C 116,101,116,82,104.5,79.5Z" fill="param(skin_tone)"/>
  </g>
  <g id="fixed-colours">
    <path d="M 35.67,113.33 c -11.67-3.67-20.75-3.08-26.92-1.58 A 118.21,118.21,0,0,0,8,125 a 116.67,116.67,0,0,0,36.54,84.93 c 4.47-21.24,9.66-45.55,12.63-58.43,2.57-11.14,5.45-23.53,9-34.91 C 53.72,116.48,42.82,115.58,35.67,113.33Z" fill="#e5dbd1"/>
    <path d="M 214.33,113.67 c -6.25.81-19.58-.83-34.9-1.8,4,11.6,7.86,24.77,11.73,37.63,4.82,16,8.8,40.57,13.6,61.08 A 116.67,116.67,0,0,0,242,125q0-5.84-.57-11.54 C 228,109.78,222.67,112.59,214.33,113.67Z" fill="#e5dbd1"/>
    <path d="M 118.75,114.15 c .27,5,.42,10.49.42,16.35,0,20.07-2.35,87.45-3.2,111.16q4.47.34,9,.34 c 3.55,0,7.05-.17,10.52-.48-3-24-4.32-93.32-4.56-128.39 C 127.11,113.46,123,113.81,118.75,114.15Z" fill="#e5dbd1"/>
    <path d="M 125,8 A 116.82,116.82,0,0,0,31.4,54.8 H 218.6 A 116.82,116.82,0,0,0,125,8Z" fill="#f0f7fc"/>
    <path d="M 133.62,93.5 c .46-15.5,13-21.53,25-17.66,2.22.71,4.49,2.51,6.76,5.17 a 41.68,41.68,0,1,0-80.61.91 c .28-.24.56-.48.85-.7,14-10.71,26.5-4.79,29,0,1.83,3.51,3.4,15.21,4.1,30.85 a 41.88,41.88,0,0,0,14.86-.43 C 133.55,102.72,133.54,96.2,133.62,93.5Z" fill="#fff200"/>
    <path d="M 133.62,93.5 c .46-15.5,13-21.53,25-17.66,7.2,2.31,15,16,21.48,33.86 l 22,1,38.07-6.22 A 116.43,116.43,0,0,0,218.6,54.8 H 31.4 A 116.43,116.43,0,0,0,9.79,104.52 l 20.15,6.58,38.91-1.65 c 4.54-12.47,10-23,16.82-28.24,14-10.71,26.5-4.79,29,0,1.64,3.15,3.07,12.87,3.86,26.13 l 6.11-.26,9,.42 C 133.55,100.72,133.56,95.77,133.62,93.5Z" fill="url(#linear-gradient)"/>
    <path d="M 63.63,125.8 a 211,211,0,0,1,7.11-21.27 H 56.26 c 2.93,0-5.12,2.19-9.51,2.19 S 26.71,101.6,21,101.6 a 27.58,27.58,0,0,0-11.22,2.92,117.44,117.44,0,0,0-1.7,16.09,46.14,46.14,0,0,1,10.51-1.55 c 4.94,0,18,7.77,24.13,7.77 C 44.6,126.83,52.93,126.4,63.63,125.8Z" fill="#f9f4f8"/>
    <path d="M 125,101.6 c -.5,0-.39,0,.19.11 C 125.52,101.64,125.5,101.6,125,101.6Z" fill="#f9f4f8"/>
    <path d="M 240.21,104.52 s -7.9-2.92-13.57-2.92-8,2.92-14.63,2.92 c -4.75,0-13.53-2.92-19-2.92-2.48,0-9,.6-15.51,1.25,2,4.77,3.83,10,5.59,15.41,7.13-.45,12.37-.75,13.58-.75,4.75,0,16.37,6.22,21.94,6.22 s 7.76-6.22,11.69-6.22,11.61,3.11,11.61,3.11 A 117.44,117.44,0,0,0,240.21,104.52Z" fill="#f9f4f8"/>
    <path d="M 133.57,102.43 c -4-.31-7.18-.58-8.38-.72-.77.16-3.52.48-7,.86.45,5.88.76,12.64.89,20 l 5.91-.36,8.72-.6 C 133.64,114,133.59,107.42,133.57,102.43Z" fill="#f9f4f8"/>
    <path d="M 68,148 c 10-40.89,14-55.5,18.5-55.5 S 83,122,77.5,149 s -11,62-18,61.5 S 58.5,187,68,148Z" fill="#fff" opacity="0.5"/>
    <path d="M 141,160 c -.64-33.51-2.5-67.5,1.5-67.5 s 6.5,48.5,8,66.5,7,68.5-2,68 S 141.5,186,141,160Z" fill="#fff" opacity="0.5"/>
    <circle cx="125" cy="125" r="117" fill="none"/>
    <path d="M 209.87,205.53 c -12-45.85-30-103.23-35.87-115-8.5-17-20.5-21.5-33.5-17.5 S 127,92,127,121 c 0,23.19.86,93.56,1.34,120.95q4-.11,7.9-.49 c -1-37-2.93-141.1-1.51-152.46,1.5-12,17.27-14,25.77-7.5 s 17.17,34.17,26.83,70.17 c 4.38,16.31,10.6,39.81,15.9,60.33Q206.67,208.89,209.87,205.53Z"/>
    <path d="M 99.5,73.5 C 78,73,70.33,92.67,63,118.33,58.58,133.82,48.5,171,40.13,205.53q3.09,3.25,6.42,6.26 C 56.48,167.73,73,107.37,76,98 c 4.83-15,17-21,28.5-18.5 S 116,101,115,130.5 c -.78,23.11-3.71,84.89-4.95,110.55q4.54.58,9.19.8 c .62-28.12,2.26-103.73,2.26-124.36 C 121.5,92,121,74,99.5,73.5Z"/>
  </g>
<script type="text/ecmascript" xlink:href="param.min.js"/> 
</svg>
