<?xml version="1.0"?>
<svg xmlns="http://www.w3.org/2000/svg" xmlns:xlink="http://www.w3.org/1999/xlink" id="Layer_4" data-name="Layer 4" viewBox="0 0 250 250">
  <title>ice-cream</title>
  <path d="M 93,161.67 S 87.27,166,83.06,160 s 2.71-14.67-3-22-9.63-14-10.53-17.67 c -4.51,1.67-9-8.33-9-18 a 46.74,46.74,0,0,1,5.42-22 C 51.46,80,45.45,64.67,46.65,52.67 s 14.44-23,26.78-17 c -.3-14,9.93-23,21.66-23 s 17.75,14,15.65,23.67 c 9.63-17,34.9-21.33,52.05-15.67 s 33.7,25,31.89,46 c -.3,10-2.41,17.33-4.51,18-3.31,8.33-8.73,19-8.73,19 s 0,11-3.61,16 a 20.66,20.66,0,0,0-3,17.67 c 1.81,5.67.3,16.67-9.63,16-7.82,29-19.26,67.33-22.57,76 s -11.43,10.67-18.05-1 S 93,161.67,93,161.67Z"/>
  <path d="M 72.9,73.25 S 60.19,76,54.17,62 s 11.13-26,25-17.67 c .3-15,7.22-25.33,17.15-24.33 s 12.34,20.33,7.52,34 A 68.17,68.17,0,0,0,72.9,73.25Z" fill="#e0b785"/>
  <path d="M 108.93,52.33 s 3.31-13.33,15.34-21,29.79-7.67,44.83,0,20.76,25.67,20.76,35 S 187.76,81,186.26,81 s -.9-11.67-4.51-13.33-5.42,6.33-7.22,5-2.11-7.33-5.11-8.33 S 164.59,68,164.59,68 l -3-3.33 s -.9-7.67-5.42-4.67 C 148.35,53.67,127.59,47.33,108.93,52.33Z" fill="#6a4b42"/>
  <path d="M 166.66,70.63 S 177.38,82.5,179.19,96.5 a 58.66,58.66,0,0,0,6.09-11.62 s -2.26-1.5-2.82-5.5-.9-8.62-1.81-8.75-3.5,6.5-6.43,5.75 S 170.72,68.25,169,68,166.66,70.63,166.66,70.63Z" fill="#cce7d3"/>
  <path d="M 87.87,66 A 61.89,61.89,0,0,1,135,57.25 C 152.11,61,166.32,76.5,171.74,87 c 3.84,6.75,6.09,15.5,3.84,16.5 s -3.38-5.25-5.64-4.25-3.61,6.75-3.61,11-1.58,12.5-4.51,12.75-2.93-10.75-3.38-18.5-4.06-16.5-6.77-17 S 149.4,92,148.27,92 s -5.19-8.75-9-8.75-4.51,12.25-8.57,13-2.93-9.75-9.7-10-7.22,21.25-7.67,27.75-1.13,14.75-4.29,15-3.38-10.75-4.06-17.5 S 102.24,97,97.27,97 s -5.19,15-8.57,15.75 S 85.76,103,81,103 s -6.77,12.75-11.73,11.75 S 64.93,81.25,87.87,66Z" fill="#d9156e"/>
  <path d="M 74.26,117.75 s 3.16-5.75,4.29-8.5,3.84-2.5,4.74,1.25,5.64,10.25,8.8,2.75 S 96.37,100,98.63,101 s 4.29,10.5,4.29,17.75,2.48,13.5,6.32,13.25,6.32-7.75,6.54-15.5 S 118,89.75,121,89.75 s 5.19,10,9.93,9.75,6.54-12.75,8.8-13,3.38,3.5,5,5.75,4.06,4.25,5.19,2,2.48-2.5,4.29,1,2.71,18,2.93,24.5,6.09,9.25,9,2.75,2.48-12.75,2.93-16.25,1.13-4.75,2-3.75,2.48,3.75,4.29,3.75 c -.68,9.5-5.42,15.5-6.09,19 s -.23,11,.23,16-2.71,7.25-5.42,4.75-4.74-6-8.12-5.25-4.29,9.25-7.45,10-2.71-9.5-6.77-9.75-5.19,6.5-8.8,6.25-5.19-4-7.67-3.75-1.13,20.25-6.09,21-3.16-15-6.09-18.75-6.32-2-6.77.5-1.81,3.25-4.06,1-5-1.5-5.42,1.75-4.74,10-9,7,2-10.75-3.16-19.75 S 76.74,126.5,74.26,117.75Z" fill="#f8c3cb"/>
  <path d="M 99.3,155.25 s .9-4.5,3.38-2.75,5,1,5.64-1.5,2.93-3.5,3.61,1.25,1.58,16.75,7.67,16,6.09-9.75,6.32-15,1.13-6.25,2.71-5,6.54,4,8.57.25,5-5.25,5.64-1.75,2.93,7.5,5.64,7.25,5.42-6.5,6.77-8.75,3.16-1.25,4.51,1 c -6.32,27-17.83,66.75-19.63,73.25 s -3.84,10.25-6.32,10-6.77-9.25-11.51-20.25 S 99.3,155.25,99.3,155.25Z" fill="#e0b785"/>
  <path d="M 120.29,181 s 11.73,21.75,17.83,29.25 C 135.18,200,120.29,181,120.29,181Z" fill="#b78856"/>
  <path d="M 127.28,164 s 7.9,22.5,16.25,32.5 C 141.73,187.5,127.28,164,127.28,164Z" fill="#b78856"/>
  <path d="M 136.31,158.75 s 5.19,11,9.48,16.25 C 143.53,166.5,136.31,158.75,136.31,158.75Z" fill="#b78856"/>
  <path d="M 121,191.75 s 10.61-20.25,23-33.5 C 135.86,173.5,126.16,187.75,121,191.75Z" fill="#b78856"/>
  <path d="M 127.51,202 s 9-17.75,19.41-27 C 142.18,186,127.51,202,127.51,202Z" fill="#b78856"/>
  <path d="M 130.22,212 s 4.51-7.75,10.38-12.5 C 137.89,205.75,130.22,212,130.22,212Z" fill="#b78856"/>
  <path d="M 101.11,63.33 C 86.85,68.39,75.23,83,80.65,87.33 s 12-9.79,34-16 c 14.74-4.17,25.91-6.52,17.75-10.67 C 125.18,57,116.15,58,101.11,63.33Z" fill="#fff" opacity="0.5"/>
  <path d="M 139.7,29.94 c -10.61,1.73-21.33,9.24-18.13,13.31 s 8.42-4.92,24.67-6.58 c 11.06-1.13,21.28,1.55,16.1-2.89 C 157.75,29.85,151.1,28.08,139.7,29.94Z" fill="#fff" opacity="0.5"/>
  <path d="M 51.87,132.76 s -10.35-1.85-15.48-7.1-4.85-11.24-.54-10.33,7.92,5.33,7.92,5.33-3-7.51.91-12.55 S 54.84,113.17,51.87,132.76Z" fill="#ec008c"/>
  <path d="M 123.22,15.42 S 120,12.13,119.57,9 s 1.16-5.21,2.45-3.79 a 7.37,7.37,0,0,1,1.44,3.9 s .85-3.42,3.52-4.2 S 129.27,9.26,123.22,15.42Z" fill="#ec008c"/>
  <path d="M 230.28,120.19 s -2.78-9.51-1.74-17.5,10.3-13.82,5.22,8.22 c 5.17-12.35,15.19-16.4,10.53-5.32 A 27.34,27.34,0,0,1,230.28,120.19Z" fill="#ec008c"/>
  <path d="M 17.35,239 A 42.62,42.62,0,0,1,14.9,223.1 c .49-8.31,4.4-13.68,6.84-11 s .73,11.49.73,11.49,5.62-8.8,8.06-8.31 S 35.18,221.63,17.35,239Z" fill="#ec008c"/>
  <path d="M 185.23,178 a 33.37,33.37,0,0,1-1.91-12.44 c .38-6.51,3.44-10.71,5.36-8.61 s .57,9,.57,9,4.4-6.89,6.31-6.51 S 199.2,164.41,185.23,178Z" fill="#ec008c"/>
  <path d="M 86.9,209.72 a 25,25,0,0,1-6.65-6.67 c -2.65-4.1-2.66-8-.57-7.57 S 84,200.67,84,200.67 s -.39-6.11.94-6.72 S 89.33,195.34,86.9,209.72Z" fill="#ec008c"/>
  <path d="M 220,233.87 s -12-23.17-6-26.91,8,12.42,8,12.42,7-10,11.28-10.78 S 236.66,218,220,233.87Z" fill="#ec008c"/>
  <path d="M 28.31,39 s -11.64-1.76-17.47-7.25-7-15.27,9-3.88 c -2.7-10.6-1-15.83,3.17-14 S 28.81,30.73,28.31,39Z" fill="#ec008c"/>
  <path d="M 217.84,45.17 s -13.46-6.61-19-14.77,2-21.3,12-5.94 c -1.87-13.75,8.38-16.56,10.3-4.49 S 217.84,45.17,217.84,45.17Z" fill="#ec008c"/>
<script type="text/ecmascript" xlink:href="param.min.js"/> 
</svg>
