<?xml version="1.0"?>
<svg xmlns="http://www.w3.org/2000/svg" xmlns:xlink="http://www.w3.org/1999/xlink" id="fixed-colours" viewBox="0 0 250 250">
  <defs>
    <radialGradient id="radial-gradient" cx="132.65" cy="130.79" r="4.57" gradientTransform="translate(36.05 -28.34) rotate(14.14)" gradientUnits="userSpaceOnUse">
      <stop offset="0" stop-color="#76b2e2"/>
      <stop offset="1" stop-color="#b7dbf2"/>
    </radialGradient>
    <radialGradient id="radial-gradient-2" cx="112.32" cy="123.56" r="4.51" gradientTransform="translate(236.77 9.42) rotate(90)" xlink:href="#radial-gradient"/>
  </defs>
  <title>EJ026</title>
  <path d="M 214,150.33 C 212.67,122.67,209.33,71,209.33,71 a 256.89,256.89,0,0,0-25.58-3.5 c -4-45.25-24.08-56-35.08-56.17 A 21.55,21.55,0,0,0,134,16.83 s -8.33-9.67-20.33-8 c -20,2-34,24.83-40.67,48.33-2.33-5.83-7-12.5-15-10.83 S 48.67,68,48.67,68 s -6,1-12,1.33 S 32,76,32,89 c 0,31.67-9.33,82.67-10.67,94 s -5.67,26-4.67,29.33,18,2,50.33,2.67,101,8,101,8,17-16,25.67-24.33 c 6.33,7,26.33,11,26.33,11 S 215.33,178,214,150.33Z M 109.13,46.13 c -4,.38-9.46,3-14.12,8.21,0,0,6.29-18.17,13.83-23.83,5.94-4.47,10.79-3.37,12-2.62 C 115.5,32.88,109.13,46.13,109.13,46.13Z M 123.38,67 s 1.63-15.25,9.38-24.25 c 3.13,7.63,6.38,24.13,6.38,24.13Z m 34.38-.5 a 100.69,100.69,0,0,0-12.5-34.75 c 14.25-6.5,20.75,35,20.75,35 S 159.63,66.5,157.75,66.5Z"/>
  <path d="M 43.75,72.5 s -6.5,0-6.5,4-1.49,36.7-3.5,58.75 C 30.91,166.47,24.61,202.42,23,207 a 54,54,0,0,1,8.75-6.25 s 3.5-31.25,6-54.25 S 42.5,77,43.75,72.5Z" fill="#d5bda1"/>
  <path d="M 24.25,210 l 8.25-5.25 s 26.75,1.75,44.25,1.75,48.5,2.25,58.75,3,26.25,2.75,26.25,2.75 l 4,6.25 s -24.25-2.82-45.5-4.57-65.5-3.18-74.75-3.43 S 24.25,210,24.25,210Z" fill="#d5bda1"/>
  <path d="M 167.75,217.25 l -4.25-9 s 3.5-34,8.25-57,17.5-77.75,17.5-77.75,4.75-1.25,4.25,1.75-9.25,39.75-13.25,61 S 169,206.25,167.75,217.25Z" fill="#d5bda1"/>
  <path d="M 172,211.25 s 7-40.5,11-63.75,14.75-73.75,14.75-73.75 l 5,.5 s -12,57-9.5,117 C 185.5,198.25,172,211.25,172,211.25Z" fill="#d5bda1"/>
  <path d="M 205.25,75.75 s -13,68-9.25,115.25 a 49.21,49.21,0,0,0,18.25,11.5 s -5.25-34-6.75-58.5 S 205.25,75.75,205.25,75.75Z" fill="#d5bda1"/>
  <path d="M 46.67,73.67 s -1,9.33-1.33,22.17 S 42,134.5,41.17,148.33 s -6.67,52.83-6.67,52.83,15.17,1.5,27.33,1.67 S 110.5,205,122,205.5 s 37.83,3.17,37.83,3.17,5.67-40.33,7.5-51.67,9.67-44.67,11-50.17 S 185.83,74,185.83,74 s -43.58,1.5-73.83.75 c -1.75,10-5.25,12.25-9.62,12.5 s -12.5-.12-17.25-2.75 c 5.25,4.75,11.13,8.88,13.75,9.13 a 15,15,0,0,1-5.87,7 s -8.25-4-10.37-6.87 C 86,98,87.88,103.38,79,110 a 20.64,20.64,0,0,1-9.62-6.75,14,14,0,0,1-6.37,4.5 A 14.63,14.63,0,0,1,51.88,103 s 17.25-6.5,18.25-21.25 a 5.27,5.27,0,0,1-1.62-2 s -7.12,4.13-11.87,6.13 S 49,86.13,48,83,46.67,73.67,46.67,73.67Z" fill="#d5bda1"/>
  <path d="M 68,76 s -11.75,6.5-15.37,5.38 S 53.88,63,56.13,57.13 s 5.63-6.5,8.25-4.25 S 72.75,66.5,72.75,66.5,68,70.25,68,76Z" fill="#fcdad9"/>
  <path d="M 78.25,67.63 c -2.75.1-5.75,2.75-6.37,5.75 s .75,6.25,4,6.75,8.25-1.75,9.13-6 S 81.75,67.5,78.25,67.63Z" fill="#fcdad9"/>
  <path d="M 86.38,67.88 S 93.13,60,98.63,56.5 s 8-4.75,9.38-1.37.38,18.5-2.25,24.25 S 94,84.88,85.13,80.75 C 89.88,76.13,89.38,70.75,86.38,67.88Z" fill="#fcdad9"/>
  <path d="M 77.56,83.13 l 3.56-.62 s 6.38,8.88,14.75,11.75 a 6.49,6.49,0,0,1-3,4.25 S 81.63,92.94,78.31,86.13 C 77.46,84.38,77.43,83.08,77.56,83.13Z" fill="#fcdad9"/>
  <path d="M 72.88,82.63 s -3.37,13.63-16.25,21 a 14.68,14.68,0,0,0,6.63,2 s 9.88-5.5,12.63-22.62 C 74.25,82.88,72.88,82.63,72.88,82.63Z" fill="#fcdad9"/>
  <polygon points="76.88 87.88 76.38 97.38 79.63 95 79.5 90.88 76.88 87.88" fill="#fff"/>
  <path d="M 77.13,100.5 s -3-4-4.87-2.12,1.13,6.75,6.25,9.5 c 4.38-4.62,4.38-7.87,3.63-9.37 S 78.75,96.13,77.13,100.5Z" fill="#e6e6e6"/>
  <path d="M 75,63.13 S 82.13,41,91.75,28.63 s 19.43-15.73,25.88-15.37 c 6.75.38,14.88,5.63,23.75,19.63 s 13.25,38.25,13.25,38.25 H 145.5 a 151.45,151.45,0,0,0-6.62-26.25 C 134.25,32.25,128.63,23.63,118.25,23 S 98.5,29.88,88.5,60.17 C 83.88,64.67,83.63,66,83.63,66 s -4.5-1.5-8-.5 C 75.38,64.5,75,63.13,75,63.13Z" fill="#d5bda1"/>
  <path d="M 112.5,50.5 s 2.75,8,.25,19.63 c 3.5-.62,4.75-.12,4.75-.12 s 2-17.87,13-32.75 c -2.25-5.5-5.5-7.37-5.5-7.37 A 65.5,65.5,0,0,0,112.5,50.5Z" fill="#d5bda1"/>
  <path d="M 136.38,21 s 6.25-5.12,11.38-4.5,15.88,1.63,23.75,20 a 99.06,99.06,0,0,1,8,34.5 l -9,.5 s -1.45-18.77-6.5-30.75 c -6.75-16-17.12-17.37-22.25-13 C 138.88,22.5,136.38,21,136.38,21Z" fill="#d5bda1"/>
  <path d="M 55.77,181 a .26.26,0,0,1,.22.16.89.89,0,0,0,.17.25.28.28,0,0,0,.13.09.42.42,0,0,1,.15.09,1.06,1.06,0,0,0,.07.17.17.17,0,0,0,.15.09v0 a .15.15,0,0,0,0,.1.31.31,0,0,1,0,.1 l .18.14 a .93.93,0,0,0,.18.12.6.6,0,0,0,.09.18.35.35,0,0,1,.07.17.69.69,0,0,1,.23.24.84.84,0,0,0,.25.26.27.27,0,0,0,0,.2.29.29,0,0,1,0,.22.12.12,0,0,0,0,.13 s 0,.09,0,.2 a .61.61,0,0,0,.11.16 l .13.14 a .51.51,0,0,0,0,.19.59.59,0,0,1,0,.23.22.22,0,0,1,0,.14.19.19,0,0,0,0,.12 c 0,.11,0,.24,0,.37 a 2.39,2.39,0,0,0,0,.36,1,1,0,0,0,0,.21 l 0,.15 a 1,1,0,0,1,0,.19,1.92,1.92,0,0,1,0,.3.81.81,0,0,1-.06.26 A .83.83,0,0,0,58,187 a .61.61,0,0,0,.05.27.27.27,0,0,0-.07.16 l 0,.19 a .26.26,0,0,1-.07.19 s -.07.1-.08.23v0 l -.08.07-.29.62 a 6.26,6.26,0,0,0-.26.66.47.47,0,0,0-.25.17,1.22,1.22,0,0,0-.13.26 s -.06,0-.07,0 a .16.16,0,0,1-.05.07.11.11,0,0,1-.08,0,.11.11,0,0,0-.08,0,.83.83,0,0,1-.28.36,1.77,1.77,0,0,1-.38.24.91.91,0,0,1-.12.29 l -.15.11-.21.15-.2.13 a .21.21,0,0,1-.12.05,2.11,2.11,0,0,1-.17.27,3.4,3.4,0,0,1-.45.16 l -.46.12-.25,0 a 1.1,1.1,0,0,0-.25.06 l -.2.08-.2.08 a .17.17,0,0,1-.15,0,.22.22,0,0,0-.15,0 l -.23.05 a .25.25,0,0,1-.12,0 l -.12,0 a 1.26,1.26,0,0,0-.39,0,1.23,1.23,0,0,1-.39,0 l -.33,0-.33,0-.33,0 a 2,2,0,0,1-.63-.17 l -.59-.26 h -.11 l -.18-.06-.3-.14-.29-.15 a .62.62,0,0,1-.17-.11 l -.18-.15 a .76.76,0,0,0-.2-.13 l -.15-.08-.13-.08-.23-.18 a .45.45,0,0,0-.27-.11,1,1,0,0,0-.61-.52.57.57,0,0,0-.09-.17,2.15,2.15,0,0,0-.18-.22 l -.19-.2 c -.06-.06-.1-.09-.12-.1 s 0-.06-.05-.05 a .08.08,0,0,1-.07,0 l 0-.08 a .92.92,0,0,1-.27-.3 c -.08-.12-.14-.19-.19-.2 a .65.65,0,0,0-.13-.29 A 1.18,1.18,0,0,1,45,188 l -.06-.17 a .23.23,0,0,0-.12-.13v0 a 0,0,0,0,0,0,0,.14.14,0,0,0-.07-.16 c -.05,0-.07-.12-.06-.27 s 0,0-.07-.06 a 2.64,2.64,0,0,1,0-.28.44.44,0,0,0-.14-.28,1,1,0,0,0,0-.33,1.36,1.36,0,0,0-.11-.3.32.32,0,0,0,0-.13.31.31,0,0,0,0-.16.56.56,0,0,1,0-.16,1.93,1.93,0,0,1,0-.33.86.86,0,0,0,0-.34.38.38,0,0,0-.06-.11 s 0-.05,0-.14 a .68.68,0,0,1,.07-.26.58.58,0,0,0,.07-.22.84.84,0,0,0,0-.22.76.76,0,0,1,0-.2.23.23,0,0,1,0-.13.24.24,0,0,0,0-.13.66.66,0,0,0,0-.1.78.78,0,0,1,0-.1 h 0 s .05,0,.05,0 a .35.35,0,0,1,0-.08.19.19,0,0,1,0-.09.22.22,0,0,1,.08-.07v-.09 a 1,1,0,0,1,.21-.51 l .36-.44 a 3.07,3.07,0,0,1,.25-.29.85.85,0,0,0,.16-.35 l -.25-.09-.28-.11 a .68.68,0,0,1-.23-.17.36.36,0,0,1-.07-.27.28.28,0,0,1,.13-.21.4.4,0,0,1,.27-.07.62.62,0,0,1,.18.05 h .13 l .22,0,.24.09 a 3.5,3.5,0,0,0,.5.13 l .52.08 h .48 a .46.46,0,0,0,.26-.1,1,1,0,0,0,.18.14 l .19.1.06.15 a .32.32,0,0,1-.15.41.66.66,0,0,1-.19.12 l -.13,0 h -.35 l -.19.08 a .21.21,0,0,1-.2,0 l -.09.1-.09.09 h -.11 a .56.56,0,0,0-.35.06,1.09,1.09,0,0,0-.22.19,1.3,1.3,0,0,0-.15.19.14.14,0,0,1-.13.08 l -.12.27 a .26.26,0,0,0-.14.16.2.2,0,0,1-.15.14v0 a .15.15,0,0,0,0,.1.15.15,0,0,1,0,.1 l 0,0 a .36.36,0,0,0-.1.12.37.37,0,0,1-.1.12.59.59,0,0,1,0,.17.29.29,0,0,1-.11.2,0,0,0,0,1,0,0 s 0,.05,0,.05 a .37.37,0,0,0,0,.17.37.37,0,0,1,0,.17.45.45,0,0,1-.1.26.42.42,0,0,0-.1.24,1,1,0,0,0,0,.24.43.43,0,0,0,.1.22,2.87,2.87,0,0,0,0,.45,1,1,0,0,0,.13.44v.07 a 1.09,1.09,0,0,0,0,.16 s 0,.1,0,.16 l .06.16 a .2.2,0,0,1,0,.1.36.36,0,0,0,0,.08.15.15,0,0,0,0,.1.32.32,0,0,1,0,.1 l 0,.17 a 1.88,1.88,0,0,0,.21.41 l .27.38 a .1.1,0,0,0,0,.07.81.81,0,0,0,0,.17 l 0,.17 c 0,.05,0,.08.1.08 a .15.15,0,0,1,.14.09 l .12.29.25.15 a .5.5,0,0,1,.18.26 l .25.14 a .12.12,0,0,0,.08.1.17.17,0,0,1,.09.1.41.41,0,0,1,.28.12.42.42,0,0,0,.32.1.17.17,0,0,0,.1.12.17.17,0,0,1,.1.14 s 0,0,.1,0 a .43.43,0,0,1,.25.15,1.35,1.35,0,0,1,.31.08 l .43.16.42.17.24.13 s 0,0,.1,0 l .12,0,.12,0 h .36 l .17,0,.18,0,.3,0 a 1.25,1.25,0,0,0,.3,0 l .13,0,.12,0 h .15 l .15,0 a 1.09,1.09,0,0,0,.47-.06,1.35,1.35,0,0,1,.48-.08.14.14,0,0,0,.17-.09.14.14,0,0,1,.17-.09.07.07,0,0,1,.06,0,.08.08,0,0,0,.06,0 h 0 l .43-.14 a 4.31,4.31,0,0,0,.48-.19 l .45-.24.38-.25 a 4.31,4.31,0,0,0,.43-.34,2.87,2.87,0,0,1,.47-.33.73.73,0,0,1,.1-.2 l .14-.21.16-.15.19-.28 a .58.58,0,0,1,.23-.2.6.6,0,0,1,.13-.26.38.38,0,0,0,.1-.19.23.23,0,0,0,0-.09.25.25,0,0,1,0-.08v0 a .2.2,0,0,0,.08-.1 l .08-.17.07-.19 a .65.65,0,0,0,0-.14.52.52,0,0,0,0-.09.6.6,0,0,1,0-.09.88.88,0,0,1,.07-.28.7.7,0,0,0,.05-.3V186 a .13.13,0,0,1,0-.1.08.08,0,0,1,0-.05.07.07,0,0,0,0-.05.37.37,0,0,0,0-.17.37.37,0,0,1,0-.17,2.22,2.22,0,0,1,0-.31,2.11,2.11,0,0,0,0-.29 s 0-.05,0-.12 a 1.21,1.21,0,0,0,0-.21.69.69,0,0,0-.05-.17 s 0-.06-.09-.06 a 1.06,1.06,0,0,0,0-.43 l -.07-.11-.06-.11 a .24.24,0,0,1,0-.11.23.23,0,0,0,0-.11 s 0,0,0,0,0,0,0,0,0,0,0-.06,0,0,0-.06 l -.13-.2-.21-.29-.19-.27 a .33.33,0,0,1-.08-.18.66.66,0,0,1-.18-.11.41.41,0,0,0-.18-.09.56.56,0,0,0-.29-.36.58.58,0,0,1-.29-.33,1.23,1.23,0,0,1,.19-.25 A .33.33,0,0,1,55.77,181Z"/>
  <path d="M 60,177.38 a .8.8,0,0,1,.39.17,1.75,1.75,0,0,1,.3.35,1.07,1.07,0,0,1,0,.25.36.36,0,0,1-.05.18.28.28,0,0,1,.06.23.73.73,0,0,0,0,.26.51.51,0,0,0,.11.24.53.53,0,0,1,.11.25.36.36,0,0,1,0,.21.42.42,0,0,0,0,.23.54.54,0,0,0,.12.25.34.34,0,0,1,.08.26.13.13,0,0,1,0,.05.08.08,0,0,0,0,0 c 0,.06,0,.09-.05.08 l -.14,0 h 0 s -.08.07-.17.06 h 0 a .49.49,0,0,1-.2-.34.81.81,0,0,0-.08-.29 h 0 s -.06,0,0-.13 a .19.19,0,0,0-.08-.2 h -.29 l -.4,0 h -.37 l -.21,0-.33,0,0,0-.12.06-.17,0-.18,0 h -.39 a 1.12,1.12,0,0,1-.35-.09.21.21,0,0,1-.16.06.49.49,0,0,1-.18-.05.5.5,0,0,0-.18-.05 h -.36 l -.22,0-.2,0 a .76.76,0,0,0-.27,0,.76.76,0,0,1-.27,0 l -.14,0-.14,0 h -.32 l -.48-.05 L 54,179.1 a 8.69,8.69,0,0,0-.91,0,9.22,9.22,0,0,1-.93,0 L 52,179 l -.17,0-.12,0 a .34.34,0,0,1-.14,0 l -.16,0 a .34.34,0,0,0-.16,0,.36.36,0,0,1-.18,0 l -.2,0 h -.54 a 1.35,1.35,0,0,1-.3-.06,1.35,1.35,0,0,0-.3-.07 h -.32 l -.32,0-.51-.06-.51-.07 h -.36 a .77.77,0,0,1-.24-.06.83.83,0,0,0-.26-.06 H 46.6 l -.09,0-.09-.05-.17-.06-.19,0 a 1.11,1.11,0,0,0-.32-.06 l -.33,0 a .46.46,0,0,0-.27.07.16.16,0,0,1,0,.06.12.12,0,0,0,0,.05,1.19,1.19,0,0,0,0,.25,1.22,1.22,0,0,1,0,.27.66.66,0,0,1-.06.2.11.11,0,0,1-.08,0 H 44.9 l -.2,0 a .54.54,0,0,1-.12-.42.83.83,0,0,0-.08-.45v-.11 a .23.23,0,0,1,.07-.16 l -.19-.37v-.07 s 0-.12,0-.28,0-.26,0-.28 l -.07-.15 a .27.27,0,0,1,0-.16.2.2,0,0,1,.11-.18 h 0 c .17,0,.27.07.29.17 l .05.28 a .21.21,0,0,0,.06.08.06.06,0,0,1,0,.09.28.28,0,0,1,.19.19 h .21 a 1.21,1.21,0,0,1,.35.09.91.91,0,0,1,.35-.08 l .37,0 s .05,0,.05.05,0,0,.05.05 a .2.2,0,0,0,.1,0,.2.2,0,0,1,.11,0 l .4,0,.4,0 h .21 a .2.2,0,0,1,.13.06.22.22,0,0,0,.14.06.47.47,0,0,0,.2,0,.47.47,0,0,1,.2,0,1.26,1.26,0,0,1,.33.08,1.21,1.21,0,0,0,.33.08.31.31,0,0,0,.17,0,.31.31,0,0,1,.17,0 l .15,0,.15,0 h .21 l .08,0,.1,0 h .17 l .12,0,.08,0 a .59.59,0,0,0,.2,0,.6.6,0,0,1,.2,0 l .13,0,.11,0 a .62.62,0,0,0,.23,0,.54.54,0,0,1,.21,0 l .08,0,.08,0 h .19 l 0,0,.05,0,0,0,0,0,.07,0,.07,0 a .43.43,0,0,0,.18,0,.43.43,0,0,1,.18,0 l .22,0,.22,0 a .54.54,0,0,0,.21,0,.51.51,0,0,1,.19,0 l .11,0,.09,0 h .32 l .13,0,.13,0 h .19 a .62.62,0,0,1,.19,0 l .21,0,.21,0 h .33 a .42.42,0,0,0,.16,0,.4.4,0,0,1,.16,0 l .13,0,.13,0 h .17 l 0,0,.05,0 a .32.32,0,0,0,.15,0,.32.32,0,0,1,.15,0,1.29,1.29,0,0,1,.32,0 l .32,0,.38,0 a 2,2,0,0,1,.38.07.43.43,0,0,1,.17.05.41.41,0,0,0,.17.05.28.28,0,0,0,.14,0,.27.27,0,0,1,.14,0 l .14,0,.14,0 h .21 l .17,0,.15,0 h .28 l .19,0,.21,0 a .41.41,0,0,0,.27-.05v-.07 a .38.38,0,0,0-.11-.33.28.28,0,0,1-.1-.27v-.06 H 60v-.11 A .06.06,0,0,1,60,177.38Z"/>
  <path d="M 59.8,168.67 a .22.22,0,0,1,.14,0,.14.14,0,0,0,.14,0,.17.17,0,0,0,.07.15.2.2,0,0,1,.09.11.34.34,0,0,1,0,.19.75.75,0,0,0,.06.33.8.8,0,0,0,0,.18.42.42,0,0,1-.05.18.05.05,0,0,0,0,0 s 0,0,0,.05 a .06.06,0,0,1,0,.07.13.13,0,0,1,0,.07.13.13,0,0,0,0,.07.6.6,0,0,0,0,.29.61.61,0,0,1,0,.29.08.08,0,0,1,0,.05.07.07,0,0,0,0,.05.25.25,0,0,0,0,.11.29.29,0,0,1,0,.13.11.11,0,0,1,0,.07 l -.29.32 a .42.42,0,0,1-.37.14 l -.15,0-.11,0 a .21.21,0,0,0-.12,0,.17.17,0,0,1-.1,0,4.81,4.81,0,0,1-.61-.09,5,5,0,0,0-.61-.09 h -.52 a .11.11,0,0,0-.1.06.23.23,0,0,0,0,.1.23.23,0,0,0,0,.16.68.68,0,0,1,.08.15.21.21,0,0,1,0,.12.22.22,0,0,0,0,.13.42.42,0,0,0,.07.15.29.29,0,0,1,.05.16.54.54,0,0,1,.15.18.51.51,0,0,1,0,.23v.06 a .18.18,0,0,0,.07.1 l .09.08 a .8.8,0,0,1,.07.2.25.25,0,0,0,.12.17.94.94,0,0,0,0,.31,1,1,0,0,1,0,.33.27.27,0,0,1-.07.16 l .08.13 a .27.27,0,0,1,0,.13 c 0,.14,0,.28,0,.42 a 1,1,0,0,1-.14.39.63.63,0,0,1-.18.21,1.49,1.49,0,0,0-.22.21 l -.26,0-.16.07 a .33.33,0,0,1-.15.05.67.67,0,0,1-.27,0 l -.27,0 h -.21 l -.09,0-.11-.06-.19,0 a .15.15,0,0,1-.11,0 l -.11-.08 a .1.1,0,0,0-.1,0,.08.08,0,0,1-.1,0 l -.07-.06-.07-.08 a .12.12,0,0,0-.08,0,.19.19,0,0,1-.1,0,.57.57,0,0,1-.2-.27.59.59,0,0,0-.2-.27,2.79,2.79,0,0,1,0-.31,1.2,1.2,0,0,0,0-.29.4.4,0,0,0,0-.16.64.64,0,0,1,0-.23.23.23,0,0,0,0-.12.48.48,0,0,1,0-.11 c 0-.2-.05-.4-.07-.6 a 3.66,3.66,0,0,1,0-.59 l 0-.25 a .74.74,0,0,1,.06-.23.53.53,0,0,1,.07-.13.27.27,0,0,0,0-.14.3.3,0,0,0,0-.19 l -.1-.16-.15,0-.17,0-.45,0-.43,0 a 2.59,2.59,0,0,1-.62,0,2.45,2.45,0,0,0-.6,0,.32.32,0,0,0-.12,0 l -.11.06 a .21.21,0,0,1-.15,0,.16.16,0,0,0-.13,0 l -.12.06 a .12.12,0,0,1-.08,0,.09.09,0,0,0-.09,0,.09.09,0,0,0-.05,0 l -.05.06 h -.11 a .33.33,0,0,0-.13.09.2.2,0,0,1-.15.07,1,1,0,0,1-.41.38.68.68,0,0,0,0,.19.42.42,0,0,1,0,.19.69.69,0,0,1-.06.13.29.29,0,0,0,0,.13.43.43,0,0,0,0,.22.46.46,0,0,1,0,.22.74.74,0,0,1,0,.13.11.11,0,0,0,.11.1.29.29,0,0,1,.15.05 c 0,.11,0,.17.12.18 a .15.15,0,0,0,0,.13 s 0,.08,0,.15 l .25.17 a .53.53,0,0,1,.19.22,3.28,3.28,0,0,0,.61.11.43.43,0,0,0,.33-.08.32.32,0,0,1,.23-.09.68.68,0,0,1,.3.12.29.29,0,0,1,.15.28.15.15,0,0,1-.09.13 l -.17.06-.2,0 a .29.29,0,0,0-.16.06 l -.06.05 s 0,0,0-.05 l -.08,0 a .24.24,0,0,0-.14,0,.3.3,0,0,1-.19,0 l -.34-.06 c -.17,0-.27-.08-.3-.15 s 0,0,0,0 l -.08,0 a .08.08,0,0,0-.08,0 s 0,0,0,0 a .06.06,0,0,1-.05,0,.06.06,0,0,0-.05,0 h 0 s -.07,0-.06-.09 a .11.11,0,0,0,0-.1 l -.14-.1-.16-.1 a .28.28,0,0,0-.1-.19.53.53,0,0,1-.15-.15 l 0-.11 a .37.37,0,0,0-.1-.11.34.34,0,0,1-.1-.11,1.57,1.57,0,0,1,0-.22.18.18,0,0,0-.12-.15v0 a 0,0,0,0,0,0,0,.14.14,0,0,0-.05-.14 s -.05-.13,0-.3,0-.1,0-.12 a .06.06,0,0,1,0-.06,1.16,1.16,0,0,1,.18-.48,1.28,1.28,0,0,0,.16-.31v-.06 a .48.48,0,0,0,.15-.15.84.84,0,0,0,.06-.19 l .43-.48 a 1.29,1.29,0,0,1,.49-.36 s 0,0,.06,0 h .06 a 1,1,0,0,1,.2-.13 l .14-.08 c .07,0,.1-.07.09-.08 h .14 l 0,0,0-.05.31-.06.46,0,.46,0 h .33 l .11,0,.11,0 a 1.71,1.71,0,0,1,.48,0,2.33,2.33,0,0,0,.48,0 l .2,0 H 55 a .33.33,0,0,1,.14,0,.35.35,0,0,0,.14,0 l .62,0,.6,0 a .35.35,0,0,1,.14,0 l .12,0 h .41 l .3.06.31.06 a .75.75,0,0,0,.3,0,.73.73,0,0,1,.3,0,.52.52,0,0,1,.24.08.59.59,0,0,0,.26.08.56.56,0,0,0,.21,0,.49.49,0,0,1,.19,0,.12.12,0,0,1,.11.07.56.56,0,0,0,.14-.21.93.93,0,0,0,0-.22.73.73,0,0,0,0-.3.72.72,0,0,1,0-.29 c 0-.09,0-.17,0-.26 a 1.16,1.16,0,0,0,0-.26.11.11,0,0,1,.08,0,.1.1,0,0,0,.08,0 l .06-.07 A .08.08,0,0,1,59.8,168.67Z m -3.48,2.8-.4.09 a 1.24,1.24,0,0,1-.21.42.73.73,0,0,0-.16.33.69.69,0,0,0,0,.18.58.58,0,0,1,0,.16 c 0,.09,0,.17,0,.24 s 0,.15,0,.24 a 1.11,1.11,0,0,0,0,.39,1,1,0,0,1,0,.37.45.45,0,0,1,0,.12.43.43,0,0,0,0,.12.85.85,0,0,0,0,.3.49.49,0,0,1,0,.3.61.61,0,0,1,.19.14.54.54,0,0,0,.21.14.61.61,0,0,0,.26,0 h .26 l .08,0,.08,0,.08,0,.08,0 h .11 l .11,0 a .28.28,0,0,0,.19-.07.67.67,0,0,1,.2-.1 l 0,0 a .06.06,0,0,1,0-.05.12.12,0,0,0,.06-.05.64.64,0,0,0,0-.18,1.78,1.78,0,0,0,0-.31,3.8,3.8,0,0,0-.06-.39 c 0-.13-.06-.26-.1-.38 s -.07-.23-.1-.31 l -.05-.14-.06-.12 a .8.8,0,0,1-.06-.21,1.11,1.11,0,0,0-.06-.23.41.41,0,0,0-.16-.19 l -.22-.16 a 1.24,1.24,0,0,1-.18-.18.34.34,0,0,1-.08-.2v0 a .16.16,0,0,1,0-.07.16.16,0,0,0,0-.07.08.08,0,0,0,0-.07 A .08.08,0,0,1,56.32,171.47Z"/>
  <path d="M 47.54,165 a .42.42,0,0,1,.19.09,1.75,1.75,0,0,1,.23.21,2.57,2.57,0,0,1,.19.24.33.33,0,0,1,.08.19 A .3.3,0,0,1,48,166v.07 a .53.53,0,0,1,0,.13.62.62,0,0,0,0,.13 l -.1.07-.1.07-.13,0 s 0,0,0,0,0,0-.06,0 l -.28-.06 a 1.2,1.2,0,0,1-.25-.1.87.87,0,0,1-.27-.39,1.06,1.06,0,0,1-.12-.47 c 0-.19.08-.29.18-.33 l .36-.09.19-.08 A .35.35,0,0,1,47.54,165Z m 11.18-.34 a .3.3,0,0,1,.2.18.5.5,0,0,1,.06.26.27.27,0,0,1-.13.23.5.5,0,0,1,.13.41.7.7,0,0,1-.08.27,1.12,1.12,0,0,0,0,.28 c 0,.12,0,.21.06.29v.11 a .92.92,0,0,0,0,.12.77.77,0,0,1,0,.12.31.31,0,0,1-.07.18 c 0,.09,0,.17,0,.24 a 1.28,1.28,0,0,1,0,.22 l .08.2 a .46.46,0,0,1,0,.22.74.74,0,0,1-.06.22.15.15,0,0,1-.16.1 c 0,.11-.08.16-.2.15 a .3.3,0,0,1-.22-.11.81.81,0,0,1-.12-.23.9.9,0,0,1,0-.28,1.38,1.38,0,0,0,0-.27 l -.06-.17 a .54.54,0,0,1,0-.21.41.41,0,0,0,0-.19 l -.19,0 h -.69 a 3.11,3.11,0,0,1-.63-.12,3.25,3.25,0,0,0-.65-.12 h -.22 l -.08,0-.08,0-.38-.07-.38-.05 h -.22 l -.25,0 a .77.77,0,0,0-.37-.12,2,2,0,0,1-.42-.07 l -.13-.06 a .35.35,0,0,0-.14,0 h -.39 a .23.23,0,0,0-.13,0 l -.32,0 a .62.62,0,0,0-.32,0v.11 c 0,.09,0,.17,0,.25 s 0,.16,0,.23 a 1,1,0,0,1-.09.31.23.23,0,0,0-.15.08 s -.07,0-.15,0 l -.11,0 a .92.92,0,0,1-.08-.3,3.27,3.27,0,0,1,0-.48q0-.26,0-.5 c 0-.16,0-.28,0-.36 a 1.55,1.55,0,0,1,0-.18.32.32,0,0,1,.06-.14.36.36,0,0,1,.25-.14,1,1,0,0,1,.29,0 l .12,0,.1,0 a .16.16,0,0,0,.11,0,.22.22,0,0,1,.14,0 l .28,0,.26,0 h .54 l .26,0,.24,0 h .26 a 1.84,1.84,0,0,1,.45.1,1.65,1.65,0,0,0,.41.09 l .42,0,.42,0 a 1.17,1.17,0,0,1,.3.06 l .28.1 a 1.65,1.65,0,0,0,.43.06 l .41,0 s 0,0,0,0,0,0,0,0 a .63.63,0,0,0,.27,0,.35.35,0,0,1,.25,0 l .1-.11 a .19.19,0,0,0,.07-.12.3.3,0,0,0,0-.19.27.27,0,0,1,0-.17.12.12,0,0,1-.11-.08.29.29,0,0,1,0-.14 s 0-.05.06,0 a .1.1,0,0,0,.1,0 l .06-.07.06-.07 a .36.36,0,0,1,.17-.07Z"/>
  <path d="M 52.72,156 l .2.12.27.17.25.17 a .43.43,0,0,1,.15.14,1.37,1.37,0,0,1,.12.22.67.67,0,0,0,.12.2 l .07,0 a .59.59,0,0,1,0,.18.46.46,0,0,0,.06.2v0 s 0,.06,0,.06 a .17.17,0,0,0-.1,0v.07 a .29.29,0,0,1-.08.21 l -.17.14 a 1.56,1.56,0,0,1-.26-.15,1.24,1.24,0,0,1-.2-.19,1,1,0,0,0,.06-.2.42.42,0,0,0-.12-.36,1.17,1.17,0,0,0-.35-.23,1.43,1.43,0,0,1-.37.13,1.48,1.48,0,0,0-.32.09.51.51,0,0,0-.23.19,1,1,0,0,0-.11.43.73.73,0,0,0,.14.46.75.75,0,0,0,.36.31.73.73,0,0,0,.17.29,2.08,2.08,0,0,1,.21.25 l .09.17 a .94.94,0,0,0,.09.15 l .05,0 h 0 a .11.11,0,0,1,0,.06 l .06.16.12.07.13.07 a .31.31,0,0,0,.07.17.3.3,0,0,1,.07.17 h .17 a .5.5,0,0,1,.3.13,2.36,2.36,0,0,1,.25.26.16.16,0,0,0,.12,0,.18.18,0,0,1,.13,0 h 0 a .68.68,0,0,0,.25.13.41.41,0,0,1,.23.16,4.37,4.37,0,0,0,.53.12 l .54.07.73.06.75.06 h 1.11 a 1,1,0,0,0,.27,0 h .07 a .14.14,0,0,1,.1,0 l .08,0 a 1.27,1.27,0,0,0,.41,0,.73.73,0,0,1,.42,0,.2.2,0,0,0,.13-.14.88.88,0,0,0,0-.2.45.45,0,0,0,0-.29v0 s 0-.07,0-.07 a .15.15,0,0,1-.11,0,.33.33,0,0,1,0-.15.25.25,0,0,1,.17-.23.64.64,0,0,1,.29,0 l .17,0 a .51.51,0,0,1,.08.38 l .09.13 a .43.43,0,0,1,.07.11,1.12,1.12,0,0,1,0,.53,1.82,1.82,0,0,0,0,.58 l 0,.07,0,.07 a 1.48,1.48,0,0,1,0,.34.45.45,0,0,0,.08.31v0 s 0,.06,0,.07 l -.05.05 c 0,.06,0,.11,0,.15 a .76.76,0,0,1,0,.13.36.36,0,0,1-.05.18.56.56,0,0,1-.43-.31,1.6,1.6,0,0,1-.17-.53.1.1,0,0,1-.1-.08 h 0 a 1.19,1.19,0,0,0-.42,0,1.25,1.25,0,0,1-.44,0 l -.12,0-.12,0 a .83.83,0,0,0-.31,0,.75.75,0,0,1-.29,0 l -.17,0-.17,0 a 2.76,2.76,0,0,0-.54,0,2.76,2.76,0,0,1-.54,0 l -.38-.05 L 56,162 l -.22,0 a .9.9,0,0,0-.25,0 l -.14,0-.14,0-.16,0 L 55,162 h -.6 l -.22,0-.22,0 a 1.85,1.85,0,0,0-.33,0,1.75,1.75,0,0,1-.33,0 l -.45,0-.45,0 H 51.5 a .48.48,0,0,1,0,.25.19.19,0,0,0,.1.22.29.29,0,0,0-.06.09.25.25,0,0,0,0,.15.23.23,0,0,1,0,.14 c -.06,0-.09,0-.08.09 a .64.64,0,0,1,0,.14v0 l -.23,0 a .26.26,0,0,1-.27-.33 c 0-.29-.09-.53-.12-.71 s -.07-.34-.11-.48 a 1.83,1.83,0,0,1-.05-.23.36.36,0,0,1,.17-.19.92.92,0,0,1,.25-.09 l .27,0 h .27 a .32.32,0,0,0,.15,0,.38.38,0,0,1,.17,0,.34.34,0,0,1,.14,0,.36.36,0,0,0,.14,0,.3.3,0,0,0,.19-.06.46.46,0,0,0,.14-.14.67.67,0,0,0-.12-.2 l -.23-.32 a 3.26,3.26,0,0,0-.24-.31.72.72,0,0,0-.17-.16,2.21,2.21,0,0,0-.19-.31 l -.21-.29-.05,0V159 l -.13-.16 a 1.1,1.1,0,0,1-.1-.18 A 2.89,2.89,0,0,1,51,158 a 2.57,2.57,0,0,1-.05-.69.28.28,0,0,1,0-.1 l .06-.1 a 1.39,1.39,0,0,1,.19-.35,1.06,1.06,0,0,1,.21-.19 l .24-.15 a 1.84,1.84,0,0,0,.29-.21.52.52,0,0,1,.36-.13 A 1.07,1.07,0,0,0,52.72,156Z"/>
  <path d="M 56,150.76 l .12.12 a .44.44,0,0,0,.14.11.77.77,0,0,1,0,.19,1.05,1.05,0,0,1,0,.16,1.14,1.14,0,0,0,0,.14.31.31,0,0,0,0,.19.4.4,0,0,0-.08.21 l 0,.23 a .8.8,0,0,1-.08.31.12.12,0,0,0,.06.1 l .08.06 a .55.55,0,0,1,0,.28.78.78,0,0,0,0,.28.57.57,0,0,0,0,.15.39.39,0,0,1,0,.17,1,1,0,0,1,0,.18,1,1,0,0,0,0,.18 c 0,.07,0,.15,0,.22 a .91.91,0,0,1,0,.22.71.71,0,0,0,.25.09 l .42.1.43.08.27,0 a 1.56,1.56,0,0,0,.42,0,2.43,2.43,0,0,1,.42,0 l .19,0,.19,0 a .5.5,0,0,0,.25,0 l .21-.08 a .54.54,0,0,1,.21,0,.56.56,0,0,0,.21,0 l .17-.06.17-.06.18,0,.2,0 a 1,1,0,0,0,.45-.27.76.76,0,0,0,.2-.48.61.61,0,0,0-.1-.39,2.57,2.57,0,0,1-.2-.37.07.07,0,0,1,0-.06 s 0,0,0-.06 a .93.93,0,0,0-.16-.27,1,1,0,0,0-.21-.22.41.41,0,0,0-.13-.09 L 60,152 l -.18-.11q-.08-.06-.07-.12 a .38.38,0,0,1,.22-.27.61.61,0,0,1,.32-.11.4.4,0,0,1,.37.25.5.5,0,0,0,.29.3q.11.31.22.37 a .35.35,0,0,1,.15.12 s 0,0,0,.06v0 s 0,.06.07.06 l .07.12.09.12,0,.05 a .62.62,0,0,0,.08.43.71.71,0,0,1,.1.43.53.53,0,0,1-.18.34.54.54,0,0,1,0,.21.69.69,0,0,0,0,.23,1,1,0,0,0-.25.32 c -.06.12-.13.24-.2.36 s -.12,0-.13.07-.06,0-.14,0 l -.09.13-.09.13 a .54.54,0,0,0-.17.08 l -.13.1-.24,0 a .32.32,0,0,1-.25.17.44.44,0,0,0-.29.17,2.13,2.13,0,0,0-.44,0,1.46,1.46,0,0,1-.44,0 l -.33,0 a 1.11,1.11,0,0,0-.39,0,1.16,1.16,0,0,1-.41,0 h -.14 a .2.2,0,0,1-.14-.05 l 0,0-.08,0 a .15.15,0,0,1-.1,0 L 57,156 l -.25-.06-.24-.07-.15,0-.1-.08-.86-.24 a 2.93,2.93,0,0,1-.83-.39 l -.56-.41 a 1.82,1.82,0,0,0-.58-.32 c -.12-.19-.24-.38-.35-.58 s -.22-.41-.31-.62 a .44.44,0,0,0,.05-.15.35.35,0,0,0,0-.14.4.4,0,0,1,0-.16.37.37,0,0,1,.09-.2,1.29,1.29,0,0,1,.17-.17.33.33,0,0,0,0-.12.25.25,0,0,1,0-.08v-.08 a .32.32,0,0,1,.14,0,.1.1,0,0,0,.1-.08.68.68,0,0,1,.42-.21.53.53,0,0,0,.39-.24 l .17,0 a 3.74,3.74,0,0,1,.41-.24,3.91,3.91,0,0,0,.41-.24 h 0 a .7.7,0,0,0,.48-.12 A 1.44,1.44,0,0,1,56,150.76Z m -.43.81 a .88.88,0,0,0-.23,0 l -.23,0 a 1.27,1.27,0,0,0-.22.2.29.29,0,0,1-.29.06.32.32,0,0,1-.26.19 l -.36.05 s 0,0-.08,0 l -.18.18-.12.13 a .52.52,0,0,0-.08.17,1.85,1.85,0,0,0,0,.29 c 0,.07,0,.18,0,.31 a .55.55,0,0,0,.07.3.67.67,0,0,0,.3.2 l .36.15.61.25 a 2,2,0,0,0,.61.16 h .11 c 0-.11,0-.21.07-.3 a 1.51,1.51,0,0,0,.05-.29,1.65,1.65,0,0,0,0-.22,1.38,1.38,0,0,1,0-.22.16.16,0,0,1,0-.07.17.17,0,0,0,0-.07.28.28,0,0,0,0-.14.32.32,0,0,1,0-.16.37.37,0,0,1,0-.11.49.49,0,0,0,0-.15.11.11,0,0,0,0-.08.11.11,0,0,1,0-.08.23.23,0,0,1,0-.08.22.22,0,0,0,0-.08,1,1,0,0,0,0-.32,1.6,1.6,0,0,1,0-.32Z"/>
  <path d="M 62.16,142.63 a .22.22,0,0,1,.14,0 s .08,0,.14,0 a .17.17,0,0,0,.07.15.2.2,0,0,1,.09.11.35.35,0,0,1,0,.19.75.75,0,0,0,.06.33.83.83,0,0,0,0,.18.42.42,0,0,1-.05.18.06.06,0,0,0,0,0 s 0,0,0,.05 a .06.06,0,0,1,0,.07.13.13,0,0,1,0,.07.13.13,0,0,0,0,.07.61.61,0,0,0,0,.29.62.62,0,0,1,0,.29.08.08,0,0,1,0,.05.08.08,0,0,0,0,.05.25.25,0,0,0,0,.11.29.29,0,0,1,0,.13.11.11,0,0,1,0,.07 l -.29.32 a .41.41,0,0,1-.37.14 l -.15,0-.11,0 a .21.21,0,0,0-.12,0,.17.17,0,0,1-.1,0,4.8,4.8,0,0,1-.61-.09,5,5,0,0,0-.61-.09 h -.52 a .11.11,0,0,0-.1.06.22.22,0,0,0,0,.1.23.23,0,0,0,0,.16.69.69,0,0,1,.08.15.21.21,0,0,1,0,.13.22.22,0,0,0,0,.12.41.41,0,0,0,.07.15.29.29,0,0,1,.05.16.54.54,0,0,1,.15.18.52.52,0,0,1,0,.23v.06 a .18.18,0,0,0,.07.1 l .09.08 a .76.76,0,0,1,.07.2.25.25,0,0,0,.12.17.91.91,0,0,0,0,.31,1,1,0,0,1,0,.33.27.27,0,0,1-.07.16 l .08.13 a .27.27,0,0,1,0,.13 c 0,.14,0,.28,0,.42 a 1,1,0,0,1-.14.39.63.63,0,0,1-.18.21,1.46,1.46,0,0,0-.22.21 l -.26,0-.16.07 a .33.33,0,0,1-.15.05.67.67,0,0,1-.27,0 l -.27,0 h -.21 l -.09,0-.11-.06-.19,0 a .15.15,0,0,1-.11,0 l -.11-.08 a .1.1,0,0,0-.1,0,.08.08,0,0,1-.1,0 l -.07-.06-.07-.08 a .12.12,0,0,0-.08,0,.19.19,0,0,1-.1,0,.58.58,0,0,1-.2-.27.59.59,0,0,0-.2-.27,2.69,2.69,0,0,1,0-.31,1.14,1.14,0,0,0,0-.29.4.4,0,0,0,0-.16.65.65,0,0,1,0-.23.24.24,0,0,0,0-.12.48.48,0,0,1,0-.11 c 0-.2-.05-.4-.07-.6 a 3.68,3.68,0,0,1,0-.59 l 0-.25 a .76.76,0,0,1,.06-.23.53.53,0,0,1,.07-.13.28.28,0,0,0,0-.14.3.3,0,0,0,0-.19 l -.1-.16-.15,0-.17,0-.45,0-.43,0 a 2.59,2.59,0,0,1-.62,0,2.45,2.45,0,0,0-.6,0,.31.31,0,0,0-.13,0 l -.11.07 a .21.21,0,0,1-.15,0,.16.16,0,0,0-.13,0 l -.12.06 a .13.13,0,0,1-.08,0,.09.09,0,0,0-.09,0,.09.09,0,0,0-.05,0 l -.05.06 h -.11 a .34.34,0,0,0-.13.09.21.21,0,0,1-.15.07,1,1,0,0,1-.41.38.67.67,0,0,0,0,.19.41.41,0,0,1,0,.19.69.69,0,0,1-.06.13.29.29,0,0,0,0,.13.43.43,0,0,0,0,.22.45.45,0,0,1,0,.22.77.77,0,0,1,0,.13.11.11,0,0,0,.11.1.28.28,0,0,1,.15.05 c 0,.11,0,.17.12.18 a .15.15,0,0,0,0,.14 s 0,.08,0,.15 l .25.17 a .54.54,0,0,1,.19.22,3.27,3.27,0,0,0,.61.11.43.43,0,0,0,.33-.08.32.32,0,0,1,.23-.09.68.68,0,0,1,.3.12.29.29,0,0,1,.15.28.15.15,0,0,1-.09.13 l -.17.06-.2,0 a .28.28,0,0,0-.16.06 l -.06.05 s 0,0,0-.05 l -.08,0 a .24.24,0,0,0-.14,0,.3.3,0,0,1-.19,0 l -.34-.06 c -.17,0-.27-.08-.3-.15 s 0,0,0,0 l -.08,0 a .08.08,0,0,0-.08,0 s 0,0,0,0 a .06.06,0,0,1-.05,0,.06.06,0,0,0-.05,0 h 0 s -.07,0-.06-.09 a .11.11,0,0,0,0-.1 l -.14-.1-.16-.1 a .27.27,0,0,0-.1-.19.54.54,0,0,1-.15-.15 l 0-.11 a .37.37,0,0,0-.1-.11.34.34,0,0,1-.1-.11,1.5,1.5,0,0,1,0-.22.18.18,0,0,0-.12-.15,0,0,0,0,1,0,0,0,0,0,0,0,0,0 A .14.14,0,0,0,52,147 s -.05-.13,0-.3,0-.1,0-.12 a .06.06,0,0,1,0-.06,1.16,1.16,0,0,1,.18-.48,1.3,1.3,0,0,0,.16-.31v-.06 a .47.47,0,0,0,.15-.15.84.84,0,0,0,.06-.19 l .43-.48 a 1.28,1.28,0,0,1,.49-.36 s 0,0,.06,0 h .06 a 1,1,0,0,1,.2-.13 l .14-.08 c .07,0,.1-.07.09-.08 h .14 l 0,0,0-.05.31-.06.46,0,.46,0 h .33 l .11,0,.11,0 a 1.71,1.71,0,0,1,.48,0,2.33,2.33,0,0,0,.48,0 l .2,0 h .22 a .34.34,0,0,1,.14,0,.35.35,0,0,0,.14,0 l .62,0,.6,0 a .35.35,0,0,1,.14,0 l .12,0 h .41 l .3.06.31.06 a .75.75,0,0,0,.3,0,.73.73,0,0,1,.3,0,.52.52,0,0,1,.24.08.59.59,0,0,0,.26.08.54.54,0,0,0,.21,0,.49.49,0,0,1,.19,0,.13.13,0,0,1,.11.07.56.56,0,0,0,.14-.21.93.93,0,0,0,0-.22.74.74,0,0,0,0-.3.7.7,0,0,1,0-.28 c 0-.09,0-.17,0-.26 a 1.19,1.19,0,0,0,0-.26.11.11,0,0,1,.08,0 s .05,0,.08,0 l .06-.07 A .08.08,0,0,1,62.16,142.63Z m -3.48,2.8-.4.1 a 1.25,1.25,0,0,1-.21.42.73.73,0,0,0-.16.33.69.69,0,0,0,0,.18.59.59,0,0,1,0,.16 c 0,.09,0,.17,0,.24 s 0,.15,0,.24 a 1.11,1.11,0,0,0,0,.39,1,1,0,0,1,0,.37.45.45,0,0,1,0,.12.43.43,0,0,0,0,.12.85.85,0,0,0,0,.3.5.5,0,0,1,0,.3.59.59,0,0,1,.19.14.54.54,0,0,0,.21.14.6.6,0,0,0,.26,0 h .26 l .08,0,.08,0,.08,0,.08,0 h .11 l .11,0 a .28.28,0,0,0,.19-.07.67.67,0,0,1,.2-.1 l 0,0 a .06.06,0,0,1,0-.05.12.12,0,0,0,.06-.05.65.65,0,0,0,0-.18,1.78,1.78,0,0,0,0-.31,3.67,3.67,0,0,0-.06-.39 c 0-.13-.06-.26-.1-.38 s -.07-.23-.1-.31 l -.05-.14-.06-.12 a .78.78,0,0,1-.06-.21,1.11,1.11,0,0,0-.06-.23.41.41,0,0,0-.16-.19 l -.22-.16 a 1.22,1.22,0,0,1-.18-.18.34.34,0,0,1-.08-.2v0 a .16.16,0,0,1,0-.07.16.16,0,0,0,0-.07.08.08,0,0,0,0-.07 A .08.08,0,0,1,58.68,145.42Z"/>
  <path d="M 52.78,133.65 a .84.84,0,0,1,.26.08 l .26.12 a 2.67,2.67,0,0,0,.44.08,1.44,1.44,0,0,1,.44.11.67.67,0,0,1,.26.16.34.34,0,0,0,.26.11v0 s 0,.06.06.07 a .29.29,0,0,1,.12.06.33.33,0,0,1,.12.12.63.63,0,0,0,.12.14 l .23.17 a .42.42,0,0,1,.09.11.14.14,0,0,0,.11.08 h 0 a .46.46,0,0,0,.31.31.3.3,0,0,0,.08.18 l .16.16 a .74.74,0,0,0,0,.17.51.51,0,0,0,.07.17 h .08 s 0,.05,0,.08,0,0,0,.08 a .11.11,0,0,0,.07,0,.11.11,0,0,1,.07,0 l 0,.22 a .46.46,0,0,0,.09.14 l .13.11.09.29 a .32.32,0,0,0,.23-.26.54.54,0,0,0,.27-.28.93.93,0,0,0,.42-.3,1.9,1.9,0,0,1,.41-.38,2.51,2.51,0,0,1,.64-.3,1.68,1.68,0,0,1,.68-.11,2.24,2.24,0,0,1,.4.08.48.48,0,0,1,.32.23 s 0,0,.09,0 a .58.58,0,0,1,.19.06 l .19.07 a .76.76,0,0,0,.07.14.33.33,0,0,1,.05.16.11.11,0,0,0,.12,0,.11.11,0,0,1,.12,0 s 0,0,0,0 l 0,.06 a 0,0,0,0,0,0,0,0,0,0,0,1,0,0,0,0,0,0,0,0,0 s 0,0,.08,0 a 0,0,0,0,1,0,0 s 0,0,0,0,0,0,0,0 a 0,0,0,0,1,0,0,.39.39,0,0,1,.11.19.28.28,0,0,0,.15.17v0q0,.17,0,.23 a 1.28,1.28,0,0,1,.16.17.23.23,0,0,1,0,.1.23.23,0,0,0,0,.1 c 0,.07,0,.09.06.07 s 0,0,0,.11 a .18.18,0,0,0,0,.11 l .08.11 a 2.35,2.35,0,0,1,.13.31.92.92,0,0,0,.17.3v.15 c 0,.09,0,.14,0,.15 s 0,.12.06.15 a .38.38,0,0,1,.12.1 l .08.16 a 1.81,1.81,0,0,1,.11.27,2.68,2.68,0,0,0,.11.27 l .07.14v.06 s 0,.08,0,.13 a .07.07,0,0,0,.07,0,.08.08,0,0,1,.07,0,.4.4,0,0,0-.07.2.54.54,0,0,0,.09.34.61.61,0,0,1,.09.39v.11 a .34.34,0,0,1-.25.09.67.67,0,0,1-.34-.1.4.4,0,0,1-.13-.18,1,1,0,0,1,0-.2.29.29,0,0,0-.1-.18 l -.46-.05-.45,0 s 0,0,0,0,0,0,0,0 l -.09,0-.1,0-.11,0,0,0 a 1.67,1.67,0,0,0-.36,0 l -.32,0 a 4,4,0,0,1-.91,0,8.45,8.45,0,0,0-.89-.05 h -.17 l -.08,0-.08,0-.1,0-.09,0-.08,0-.1,0 a 2.62,2.62,0,0,0-.49,0,2.67,2.67,0,0,1-.51,0,.36.36,0,0,1-.18-.07 l -.44.06 a 2.17,2.17,0,0,1-.45,0 l -.34,0-.34,0-.19,0 h -.19 a .28.28,0,0,0-.14,0,.28.28,0,0,1-.14,0 l -.13,0-.11,0 a 1.89,1.89,0,0,0-.55,0,2,2,0,0,1-.6,0 l -.24,0-.18,0-.11,0-.12,0 a .6.6,0,0,1-.19,0 l -.19,0 h -.39 l -.15,0-.14-.06 a .87.87,0,0,1-.3,0 l -.3,0 h -.45 a .07.07,0,0,1-.07,0,.07.07,0,0,0-.07,0 h -.06 a 2,2,0,0,1-.52,0,2.08,2.08,0,0,0-.5,0,.59.59,0,0,0-.37.17.88.88,0,0,0-.18.54,4.24,4.24,0,0,0,0,.49,4.16,4.16,0,0,1,0,.47v.08 l -.21,0 h -.32 a .57.57,0,0,1-.07-.31 c 0-.11,0-.22,0-.34q0-.86-.07-1.73 a 1.18,1.18,0,0,0,0-.17.43.43,0,0,1,0-.28.42.42,0,0,0,0-.13,3.87,3.87,0,0,0,0-.4,3.8,3.8,0,0,1,0-.38,1.62,1.62,0,0,1,.1-.45,1.6,1.6,0,0,0,.1-.43.8.8,0,0,1,.14-.38,1.72,1.72,0,0,0,.19-.38.53.53,0,0,0,0-.17.34.34,0,0,1,0-.17 l .09-.18.15-.27.16-.25.12-.14v-.06 a .7.7,0,0,1,.11-.26 A 1.61,1.61,0,0,1,49,135 a .56.56,0,0,1,.18-.12.85.85,0,0,0,.18-.11,1.37,1.37,0,0,0,.23-.2,1.53,1.53,0,0,1,.23-.2 l .1,0 a .22.22,0,0,0,.1,0,1.3,1.3,0,0,0,.26-.17.71.71,0,0,1,.26-.14.49.49,0,0,1,.18,0,.47.47,0,0,0,.18,0,.24.24,0,0,0,.13-.05.26.26,0,0,1,.13-.05 l .08,0,.08,0 h .15 l .24-.05.23-.06 a .38.38,0,0,0,.15-.06.13.13,0,0,0,.09,0,.31.31,0,0,0,.16,0,.28.28,0,0,1,.14,0 l .08,0,.08,0 A .13.13,0,0,1,52.78,133.65Z m -.18,1.2 h -.3 a .11.11,0,0,0-.07,0,.14.14,0,0,0-.1,0 l -.08,0 a 1.67,1.67,0,0,1-.35.06 l -.35,0-.16-.05 a 1.53,1.53,0,0,1-.31.12,1.87,1.87,0,0,1-.33.08.25.25,0,0,1-.16.11.55.55,0,0,0-.17.07 l -.18.14 a .28.28,0,0,1-.23.06,2.23,2.23,0,0,1-.21.31,1,1,0,0,1-.28.25 c .06,0,.09,0,.08.12 a 1.32,1.32,0,0,1-.19.28.49.49,0,0,0-.09.33,1.39,1.39,0,0,1-.27.26.37.37,0,0,0-.16.29.67.67,0,0,0,0,.19 c 0,.12-.07.24-.09.37 s 0,.24-.05.35,0,.19,0,.31 a .74.74,0,0,0,0,.29.22.22,0,0,1,0,.11.71.71,0,0,0,0,.11.29.29,0,0,0,0,.19 l .11,0 a .55.55,0,0,0,.18,0,.55.55,0,0,1,.18,0,.18.18,0,0,1,.12,0,.18.18,0,0,0,.12,0 l .43,0,.43,0 a .43.43,0,0,0,.23,0,.27.27,0,0,1,.15,0 l .08,0,.08,0 a .08.08,0,0,0,.07,0,.1.1,0,0,1,.09,0 l .06,0 H 51 l .11,0 a .62.62,0,0,1,.21,0 l .21,0 a 1.91,1.91,0,0,0,.44,0,1.93,1.93,0,0,1,.46,0 h .18 l .18,0 a 2.07,2.07,0,0,0,.48,0,2.11,2.11,0,0,1,.5,0 l .07,0,.07,0,.33-.08.05,0,.05,0 a .69.69,0,0,0,.32,0,.66.66,0,0,1,.3,0 l .2,0,.22,0 a 4.74,4.74,0,0,0,.58,0 l .58,0 a .22.22,0,0,0,.1-.17,1.71,1.71,0,0,1,0-.2.37.37,0,0,1,0-.11.29.29,0,0,0,0-.09,1.19,1.19,0,0,0,0-.24 c 0-.12,0-.25-.08-.4 s -.06-.28-.1-.4 l -.08-.28 a 1.3,1.3,0,0,0-.24-.38.5.5,0,0,1-.14-.39,1.47,1.47,0,0,1-.21-.23,1.34,1.34,0,0,1-.16-.26 l -.1-.08-.08-.08-.42-.39 a 2,2,0,0,0-.51-.32 l -.15-.05-.06,0-.06,0-.11,0 H 54.1 a .67.67,0,0,1-.34-.12.64.64,0,0,0-.32-.12 h -.26 a 1.24,1.24,0,0,1-.29-.06 A 1.26,1.26,0,0,0,52.6,134.85Z m 6.79,1.65 a .39.39,0,0,0-.26.06.32.32,0,0,1-.26,0,.43.43,0,0,1-.18.12.76.76,0,0,0-.2.09 l -.72.65 a .15.15,0,0,1-.11,0,.15.15,0,0,0-.11,0 l -.14.35 a 1.46,1.46,0,0,0-.08.36.78.78,0,0,0,0,.29 l .09.24v.11 a 1.1,1.1,0,0,0,0,.42,1,1,0,0,1,.37.14.77.77,0,0,0,.36.12,2.28,2.28,0,0,0,.36,0 h .37 a 2.88,2.88,0,0,1,.51,0 l .51,0,.15,0 h .15 l .06,0,.08,0 h .13 l .18,0,.19,0 a .43.43,0,0,0,.18,0,.43.43,0,0,1,.18,0 l .15,0,.15,0 a .33.33,0,0,0,.21-.07v-.08 a .47.47,0,0,0,0-.25.35.35,0,0,1,0-.26.43.43,0,0,1-.17-.29,1.26,1.26,0,0,0-.09-.32 l -.05,0 a .46.46,0,0,1,0-.15,1.09,1.09,0,0,0,0-.15,1.68,1.68,0,0,1-.47-.66.33.33,0,0,1-.12-.14.47.47,0,0,0-.12-.16.14.14,0,0,0-.1,0,.14.14,0,0,1-.1,0 l -.07-.06 a 1.83,1.83,0,0,0-.36-.24,2.3,2.3,0,0,0-.41-.13 l -.12,0Z"/>
  <path d="M 58.11,127.9 l .12.12 a .44.44,0,0,0,.14.11.77.77,0,0,1,0,.19,1,1,0,0,1,0,.16,1,1,0,0,0,0,.14.31.31,0,0,0,0,.19.42.42,0,0,0-.08.21 l 0,.23 a .81.81,0,0,1-.08.31.12.12,0,0,0,.06.1 l .08.06 a .55.55,0,0,1,0,.28.78.78,0,0,0,0,.28.57.57,0,0,0,0,.15.39.39,0,0,1,0,.17.91.91,0,0,1,0,.18,1,1,0,0,0,0,.18 c 0,.07,0,.15,0,.22 a .91.91,0,0,1,0,.22.72.72,0,0,0,.25.09 l .42.09.43.08.27,0 a 1.53,1.53,0,0,0,.42,0,2.42,2.42,0,0,1,.42,0 l .19,0,.19,0 a .51.51,0,0,0,.26,0,.81.81,0,0,1,.2-.08.56.56,0,0,1,.21,0,.54.54,0,0,0,.21,0 l .17-.06.17-.06.18,0,.2,0 a 1.07,1.07,0,0,0,.45-.27.76.76,0,0,0,.2-.48.61.61,0,0,0-.1-.39,2.56,2.56,0,0,1-.2-.37.07.07,0,0,1,0-.06 s 0,0,0-.06 a .94.94,0,0,0-.16-.27,1,1,0,0,0-.21-.22.41.41,0,0,0-.13-.09 l -.2-.09-.18-.11 c -.05,0-.08-.08-.07-.12 a .38.38,0,0,1,.22-.27.61.61,0,0,1,.32-.11.4.4,0,0,1,.37.25.5.5,0,0,0,.29.3q.1.31.22.37 a .33.33,0,0,1,.15.12 s 0,0,0,.06v0 s 0,.06.07.06 l .07.12.09.12,0,.05 a .62.62,0,0,0,.08.43.72.72,0,0,1,.1.43.52.52,0,0,0-.16.55.69.69,0,0,0,0,.23,1,1,0,0,0-.25.32 c -.06.12-.13.24-.2.36 s -.12,0-.13.07-.06,0-.14,0 l -.09.13-.09.13 a .6.6,0,0,0-.17.08 l -.13.1-.24,0 A .31.31,0,0,1,62,133 a .44.44,0,0,0-.29.17,2.14,2.14,0,0,0-.45,0,1.46,1.46,0,0,1-.44,0 l -.33,0 a 1.13,1.13,0,0,0-.39,0,1.14,1.14,0,0,1-.41,0 h -.14 a .2.2,0,0,1-.14,0 l 0,0-.08,0 a .15.15,0,0,1-.1,0 l -.14,0-.25-.06-.24-.07-.15,0-.1-.08-.86-.24 a 3,3,0,0,1-.83-.38 l -.55-.41 a 1.83,1.83,0,0,0-.58-.32 c -.12-.19-.24-.38-.35-.59 s -.22-.41-.31-.62 a .44.44,0,0,0,.05-.14.36.36,0,0,0,0-.14.41.41,0,0,1,0-.16.38.38,0,0,1,.09-.2,1.29,1.29,0,0,1,.17-.17.33.33,0,0,0,0-.12.24.24,0,0,1,0-.09v-.07 a .3.3,0,0,1,.13,0,.1.1,0,0,0,.1-.08.68.68,0,0,1,.42-.21.53.53,0,0,0,.39-.24 h .17 a 4,4,0,0,1,.41-.24,3.74,3.74,0,0,0,.41-.23 h 0 a .7.7,0,0,0,.48-.12 A 1.46,1.46,0,0,1,58.11,127.9Z m -.43.81 h -.23 l -.23,0 a 1.3,1.3,0,0,0-.22.2.29.29,0,0,1-.29.06.32.32,0,0,1-.26.19 l -.36.05 s 0,0-.08,0 a 1.52,1.52,0,0,1-.18.18 l -.12.13 a .53.53,0,0,0-.08.17,1.78,1.78,0,0,0,0,.29 c 0,.07,0,.18,0,.31 a .54.54,0,0,0,.07.3.66.66,0,0,0,.3.2 l .36.14.6.25 a 2,2,0,0,0,.62.16 h .11 c 0-.11,0-.21.07-.3 a 1.43,1.43,0,0,0,.05-.29,1.5,1.5,0,0,0,0-.22,1.38,1.38,0,0,1,0-.22.16.16,0,0,1,0-.07.17.17,0,0,0,0-.07.27.27,0,0,0,0-.14.32.32,0,0,1,0-.16.39.39,0,0,1,0-.11.48.48,0,0,0,0-.15.1.1,0,0,0,0-.08.11.11,0,0,1,0-.08.22.22,0,0,1,0-.08.22.22,0,0,0,0-.08,1,1,0,0,0,0-.32,1.64,1.64,0,0,1,0-.32Z"/>
  <path d="M 64.83,124.33 a .8.8,0,0,1,.39.17,1.76,1.76,0,0,1,.3.35,1.11,1.11,0,0,1,0,.25.35.35,0,0,1-.05.18.28.28,0,0,1,.06.23.72.72,0,0,0,0,.26.5.5,0,0,0,.11.24.53.53,0,0,1,.11.25.36.36,0,0,1,0,.21.42.42,0,0,0,0,.23.53.53,0,0,0,.12.25.34.34,0,0,1,.08.26.14.14,0,0,1,0,.05.07.07,0,0,0,0,0 c 0,.07,0,.09-.05.08 l -.14,0 h 0 s -.08.07-.17.06 h 0 a .48.48,0,0,1-.2-.34.82.82,0,0,0-.08-.29 h 0 s -.06,0,0-.13 a .19.19,0,0,0-.08-.2 h -.29 l -.4,0 H 64 l -.21,0-.33,0,0,0-.12.06-.17,0-.17,0 h -.39 a 1.11,1.11,0,0,1-.35-.09.22.22,0,0,1-.16.06.51.51,0,0,1-.18-.05.49.49,0,0,0-.18-.05 H 61.3 l -.22,0-.2,0 a .76.76,0,0,0-.27,0,.76.76,0,0,1-.27,0 l -.14,0-.14,0 h -.32 l -.48-.05-.48-.05 a 8.69,8.69,0,0,0-.91,0,9.22,9.22,0,0,1-.93,0 l -.17,0-.17,0-.12,0-.14,0-.16,0 a .34.34,0,0,0-.16,0,.36.36,0,0,1-.18,0 l -.2,0 H 55.1 a 1.42,1.42,0,0,1-.3-.07,1.34,1.34,0,0,0-.3-.07 h -.32 l -.32,0-.51-.06-.51-.06 h -.36 a .77.77,0,0,1-.24-.06.83.83,0,0,0-.26-.06 h -.58 l -.09,0-.09-.05-.17-.06-.19,0 a 1.14,1.14,0,0,0-.32-.06 l -.33,0 a .45.45,0,0,0-.27.07.15.15,0,0,1,0,.05.13.13,0,0,0,0,.05,1.19,1.19,0,0,0,0,.25,1.2,1.2,0,0,1,0,.27.63.63,0,0,1-.06.2.11.11,0,0,1-.08,0 h -.08 l -.2,0 a .53.53,0,0,1-.12-.42.83.83,0,0,0-.08-.45v-.11 a .23.23,0,0,1,.07-.16 l -.19-.37v-.07 s 0-.12,0-.28,0-.26,0-.28 l -.07-.15 a .27.27,0,0,1,0-.16.2.2,0,0,1,.11-.18 h 0 c .17,0,.27.07.29.17 l .05.28 a .22.22,0,0,0,.06.08.06.06,0,0,1,0,.09.28.28,0,0,1,.19.19 H 50 a 1.21,1.21,0,0,1,.35.09.91.91,0,0,1,.35-.08 l .37,0 s .05,0,.05.05,0,0,.05.05 l .1,0 a .19.19,0,0,1,.1,0 l .4,0,.4,0 h .21 a .2.2,0,0,1,.13.06.22.22,0,0,0,.14.06.47.47,0,0,0,.2,0,.47.47,0,0,1,.2,0,1.27,1.27,0,0,1,.33.08,1.25,1.25,0,0,0,.33.08.32.32,0,0,0,.17,0,.31.31,0,0,1,.17,0 l .15,0,.15,0 h .21 l .08,0,.1,0 h .17 l .12,0,.08,0 a .59.59,0,0,0,.2,0,.57.57,0,0,1,.2,0 l .13,0,.11,0 a .62.62,0,0,0,.23,0,.54.54,0,0,1,.21,0 l .08,0,.08,0 h .19 l 0,0,.05,0,0,0,0,0,.07,0,.07,0 a .43.43,0,0,0,.18,0,.45.45,0,0,1,.18,0 l .22,0,.22,0 a .54.54,0,0,0,.21,0,.51.51,0,0,1,.19,0 l .11,0,.09,0 h .32 l .13,0,.13,0 h .38 l .21,0,.21,0 h .27 l .06,0 a .42.42,0,0,0,.16,0,.4.4,0,0,1,.16,0 l .13,0,.13,0 h .17 l 0,0,.05,0 a .32.32,0,0,0,.15,0,.32.32,0,0,1,.15,0,1.34,1.34,0,0,1,.32,0 l .32,0,.38,0 a 2,2,0,0,1,.38.07.43.43,0,0,1,.17.05.43.43,0,0,0,.17.05.28.28,0,0,0,.14,0,.28.28,0,0,1,.14,0 l .14,0,.14,0 h .21 l .17,0,.15,0 h .28 l .19,0,.21,0 a .41.41,0,0,0,.27-.05v-.07 a .38.38,0,0,0-.11-.33.28.28,0,0,1-.1-.27v-.06 h .07v-.11 A .06.06,0,0,1,64.83,124.33Z"/>
  <path d="M 65.21,120.18 a .8.8,0,0,1,.39.17,1.76,1.76,0,0,1,.3.35,1.05,1.05,0,0,1,0,.25.36.36,0,0,1-.05.18.28.28,0,0,1,.06.23.72.72,0,0,0,0,.26.5.5,0,0,0,.11.24.53.53,0,0,1,.11.25.36.36,0,0,1,0,.21.41.41,0,0,0,0,.23.53.53,0,0,0,.12.25.34.34,0,0,1,.08.26.13.13,0,0,1,0,.05v0 c 0,.06,0,.09-.05.08 l -.14,0 h 0 s -.08.07-.17.06 h 0 a .48.48,0,0,1-.2-.34.81.81,0,0,0-.08-.29 h 0 s -.06,0,0-.13 a .19.19,0,0,0-.08-.21 h -.29 l -.4,0 h -.37 l -.21,0-.33,0,0,0-.12.06-.17,0-.18,0 H 62.9 a 1.12,1.12,0,0,1-.35-.09.21.21,0,0,1-.15.06.5.5,0,0,1-.18-.05.5.5,0,0,0-.18-.05 h -.36 l -.22,0-.2,0 a .76.76,0,0,0-.27,0,.76.76,0,0,1-.27,0 l -.14,0-.14,0 h -.32 l -.48-.05-.48-.05 a 8.69,8.69,0,0,0-.91,0,9.21,9.21,0,0,1-.93,0 l -.17,0-.17,0-.12,0-.14,0-.16,0 a .34.34,0,0,0-.16,0,.36.36,0,0,1-.18,0 l -.2,0 h -.54 a 1.42,1.42,0,0,1-.3-.07,1.34,1.34,0,0,0-.3-.07 h -.32 l -.32,0-.51-.06-.51-.06 h -.36 a .77.77,0,0,1-.24-.06.83.83,0,0,0-.26-.06 h -.58 l -.09,0-.09-.05-.17-.06-.19,0 a 1.13,1.13,0,0,0-.32-.06 l -.33,0 a .45.45,0,0,0-.27.07.16.16,0,0,1,0,.05.12.12,0,0,0,0,.05,1.19,1.19,0,0,0,0,.25,1.22,1.22,0,0,1,0,.27.64.64,0,0,1-.06.2.11.11,0,0,1-.08,0 h -.08 l -.2,0 a .53.53,0,0,1-.12-.42.83.83,0,0,0-.08-.45v-.11 a .23.23,0,0,1,.07-.16 l -.19-.37v-.07 s 0-.12,0-.28,0-.26,0-.28 l -.07-.15 a .27.27,0,0,1,0-.16.2.2,0,0,1,.11-.18 h 0 c .17,0,.27.07.29.17 l .05.28 a .22.22,0,0,0,.06.08.06.06,0,0,1,0,.09.29.29,0,0,1,.19.19 h .21 a 1.21,1.21,0,0,1,.35.09.91.91,0,0,1,.34-.08 l .37,0 s .05,0,.05.05,0,0,.05.05 a .19.19,0,0,0,.1,0,.19.19,0,0,1,.1,0 l .4,0,.4,0 h .21 a .2.2,0,0,1,.13.06.22.22,0,0,0,.14.06.46.46,0,0,0,.2,0,.47.47,0,0,1,.2,0,1.26,1.26,0,0,1,.33.08,1.22,1.22,0,0,0,.33.08.31.31,0,0,0,.17,0,.31.31,0,0,1,.17,0 l .15,0,.15,0 H 55 l .08,0,.1,0 h .17 l .12,0,.08,0 a .59.59,0,0,0,.2,0,.55.55,0,0,1,.2,0 l .13,0,.11,0 a .62.62,0,0,0,.23,0,.54.54,0,0,1,.21,0 l .08,0,.08,0 h .19 l 0,0,.05,0,0,0,0,0,.07,0,.07,0 a .43.43,0,0,0,.18,0,.45.45,0,0,1,.18,0 l .22,0,.22,0 a .54.54,0,0,0,.21,0,.51.51,0,0,1,.19,0 l .11,0,.09,0 H 59 l .13,0,.13,0 h .38 l .21,0,.21,0 h .33 a .4.4,0,0,0,.16,0,.4.4,0,0,1,.16,0 l .13,0,.13,0 h .17 l 0,0,.05,0 a .32.32,0,0,0,.15,0,.32.32,0,0,1,.15,0,1.29,1.29,0,0,1,.32,0 l .32,0,.38,0 a 1.94,1.94,0,0,1,.38.07.43.43,0,0,1,.17.05.43.43,0,0,0,.17.05.28.28,0,0,0,.14,0,.28.28,0,0,1,.14,0 l .14,0,.14,0 H 64 l .17,0,.15,0 h .28 l .19,0,.21,0 a .41.41,0,0,0,.27-.05V121 a .39.39,0,0,0-.11-.33.28.28,0,0,1-.1-.27v-.06 h .07v-.11 A .06.06,0,0,1,65.21,120.18Z"/>
  <path d="M 65,111.47 a .21.21,0,0,1,.14.05.14.14,0,0,0,.14,0,.17.17,0,0,0,.07.15.21.21,0,0,1,.09.11.35.35,0,0,1,0,.19.75.75,0,0,0,.06.33.83.83,0,0,0,0,.18.41.41,0,0,1-.05.18.06.06,0,0,0,0,0 s 0,0,0,.05 a .06.06,0,0,1,0,.07.13.13,0,0,1,0,.07.13.13,0,0,0,0,.07.61.61,0,0,0,0,.3.61.61,0,0,1,0,.29.08.08,0,0,1,0,.05.08.08,0,0,0,0,.05.25.25,0,0,0,0,.11.28.28,0,0,1,0,.13.1.1,0,0,1,0,.07 l -.29.32 a .42.42,0,0,1-.37.14 l -.15,0-.11,0 a .19.19,0,0,0-.12,0 l -.1,0 a 4.79,4.79,0,0,1-.61-.09,5,5,0,0,0-.61-.09 l -.27,0 h -.25 a .11.11,0,0,0-.1.06.23.23,0,0,0,0,.1.23.23,0,0,0,0,.16.68.68,0,0,1,.08.15.21.21,0,0,1,0,.13.22.22,0,0,0,0,.12.42.42,0,0,0,.07.15.29.29,0,0,1,.05.16.53.53,0,0,1,.15.18.51.51,0,0,1,0,.23v.06 a .18.18,0,0,0,.07.1 l .09.08 a .77.77,0,0,1,.07.2.25.25,0,0,0,.12.17.92.92,0,0,0,0,.31,1,1,0,0,1,0,.33.27.27,0,0,1-.07.16 l .08.13 a .27.27,0,0,1,0,.13 c 0,.14,0,.28,0,.42 a 1,1,0,0,1-.14.39.62.62,0,0,1-.18.21,1.42,1.42,0,0,0-.22.21 l -.26,0-.16.07 a .31.31,0,0,1-.15.05.64.64,0,0,1-.27,0 l -.27,0 h -.21 l -.09,0-.11-.06-.19,0 a .15.15,0,0,1-.11,0 l -.11-.08 a .1.1,0,0,0-.1,0,.08.08,0,0,1-.1,0 l -.07-.06-.07-.08 a .12.12,0,0,0-.08,0,.19.19,0,0,1-.1,0,.58.58,0,0,1-.2-.27.6.6,0,0,0-.2-.27,2.81,2.81,0,0,1,0-.31,1.14,1.14,0,0,0,0-.29.4.4,0,0,0,0-.16.63.63,0,0,1,0-.23.24.24,0,0,0,0-.12.5.5,0,0,1,0-.11 c 0-.2-.05-.4-.07-.6 a 3.66,3.66,0,0,1,0-.59 l 0-.25 a .74.74,0,0,1,.06-.23.54.54,0,0,1,.07-.14.27.27,0,0,0,0-.14.3.3,0,0,0,0-.19 l -.1-.16-.15,0 h -.17 l -.45,0-.43,0 a 2.54,2.54,0,0,1-.62,0,2.4,2.4,0,0,0-.6,0,.31.31,0,0,0-.13,0 l -.11.07 a .21.21,0,0,1-.15,0,.16.16,0,0,0-.13,0 l -.12.06 h -.08 a .09.09,0,0,0-.09,0,.09.09,0,0,0-.05,0 l -.05.06 h -.11 a .35.35,0,0,0-.13.09.21.21,0,0,1-.15.07,1,1,0,0,1-.41.38.67.67,0,0,0,0,.2.41.41,0,0,1,0,.19.67.67,0,0,1-.06.13.29.29,0,0,0,0,.13.43.43,0,0,0,0,.22.45.45,0,0,1,0,.22.78.78,0,0,1,0,.13.11.11,0,0,0,.11.1.29.29,0,0,1,.15.05 c 0,.11,0,.17.12.18 a .15.15,0,0,0,0,.14 s 0,.08,0,.15 l .25.17 a .53.53,0,0,1,.19.22,3.37,3.37,0,0,0,.61.11.44.44,0,0,0,.33-.08.32.32,0,0,1,.23-.09.67.67,0,0,1,.3.12.29.29,0,0,1,.15.28.15.15,0,0,1-.09.13 l -.17.06-.2,0 a .29.29,0,0,0-.16.06 l -.06.05 s 0,0,0-.05 l -.08,0 a .23.23,0,0,0-.14,0,.3.3,0,0,1-.19,0 l -.34-.06 c -.17,0-.27-.08-.3-.15 s 0,0,0,0 l -.08,0 a .08.08,0,0,0-.08,0 s 0,0,0,0 a .06.06,0,0,1-.05,0,.06.06,0,0,0-.05,0 l 0,0 s -.07,0-.06-.09 a .11.11,0,0,0,0-.1 l -.14-.1-.16-.1 a .27.27,0,0,0-.1-.19.56.56,0,0,1-.15-.15 l 0-.12 a .36.36,0,0,0-.1-.11.35.35,0,0,1-.1-.11,1.52,1.52,0,0,1,0-.22.18.18,0,0,0-.12-.15,0,0,0,0,1,0,0,0,0,0,0,0,0,0,.14.14,0,0,0-.05-.14 s -.05-.13,0-.3,0-.1,0-.11 a .06.06,0,0,1,0-.06,1.15,1.15,0,0,1,.18-.48,1.29,1.29,0,0,0,.16-.31v-.06 a .47.47,0,0,0,.15-.15.85.85,0,0,0,.06-.19 l .43-.48 a 1.29,1.29,0,0,1,.49-.36 s 0,0,.06,0 h .06 a 1.08,1.08,0,0,1,.2-.13 l .14-.08 c .07,0,.1-.07.09-.08 h .14 l 0,0,0-.05.31-.06.46,0,.46,0 h .33 a .2.2,0,0,0,.11,0 l .11,0 a 1.67,1.67,0,0,1,.48,0,2.4,2.4,0,0,0,.48,0 l .2,0 h .22 l .14,0,.14,0,.62,0,.6,0,.14,0,.12,0 h .41 l .3.06.31.06 a .73.73,0,0,0,.3,0,.74.74,0,0,1,.3,0,.53.53,0,0,1,.24.08.58.58,0,0,0,.26.08.54.54,0,0,0,.21,0,.51.51,0,0,1,.19,0,.13.13,0,0,1,.11.07.57.57,0,0,0,.14-.21.93.93,0,0,0,0-.22.74.74,0,0,0,0-.3.7.7,0,0,1,0-.28 c 0-.09,0-.17,0-.26 a 1.2,1.2,0,0,0,0-.26.11.11,0,0,1,.08,0 s .05,0,.08,0 l .06-.07 A .08.08,0,0,1,65,111.47Z m -3.48,2.8-.4.09 a 1.25,1.25,0,0,1-.21.42.74.74,0,0,0-.16.33.71.71,0,0,0,0,.18.58.58,0,0,1,0,.16 c 0,.09,0,.17,0,.24 s 0,.15,0,.24 a 1.1,1.1,0,0,0,0,.39,1,1,0,0,1,0,.37.45.45,0,0,1,0,.12.42.42,0,0,0,0,.12.85.85,0,0,0,0,.3.5.5,0,0,1,0,.3.59.59,0,0,1,.19.14.55.55,0,0,0,.21.14.62.62,0,0,0,.26,0 h .26 l .08,0,.08,0,.08,0,.08,0 h .11 l .11,0 a .28.28,0,0,0,.19-.07.65.65,0,0,1,.2-.1 l 0,0 a .06.06,0,0,1,0-.05.12.12,0,0,0,.06,0,.65.65,0,0,0,0-.19,1.77,1.77,0,0,0,0-.31,3.65,3.65,0,0,0-.06-.39 c 0-.13-.06-.25-.1-.38 s -.07-.23-.1-.31 l -.05-.14-.06-.12 a .77.77,0,0,1-.06-.21,1.14,1.14,0,0,0-.06-.23.4.4,0,0,0-.16-.19 L 61.8,115 a 1.27,1.27,0,0,1-.18-.18.35.35,0,0,1-.08-.21v0 a .16.16,0,0,1,0-.07.17.17,0,0,0,0-.07.08.08,0,0,0,0-.07 A .08.08,0,0,1,61.5,114.27Z"/>
  <path d="M 82.5,148 a 8.5,8.5,0,1,1,8.5-8.5 A 8.51,8.51,0,0,1,82.5,148Z m 0-15 a 6.5,6.5,0,1,0,6.5,6.5 A 6.51,6.51,0,0,0,82.5,133Z" fill="#fff"/>
  <path d="M 83.5,189.25 a 5,5,0,1,1,5-5 A 5,5,0,0,1,83.5,189.25Z m 0-8.82 a 3.82,3.82,0,1,0,3.82,3.82 A 3.83,3.83,0,0,0,83.5,180.43Z" fill="#fff"/>
  <path d="M 133.63,86.75 a 3.88,3.88,0,1,1,3.88-3.87 A 3.88,3.88,0,0,1,133.63,86.75Z m 0-6.84 a 3,3,0,1,0,3,3 A 3,3,0,0,0,133.63,79.91Z" fill="#fff"/>
  <path d="M 154.25,182.25 A 3.25,3.25,0,1,1,157.5,179,3.25,3.25,0,0,1,154.25,182.25Z m 0-5.74 a 2.49,2.49,0,1,0,2.49,2.49 A 2.49,2.49,0,0,0,154.25,176.51Z" fill="#fff"/>
  <path d="M 172.5,96.5 a 5.25,5.25,0,1,1,5.25-5.25 A 5.26,5.26,0,0,1,172.5,96.5Z m 0-9.26 a 4,4,0,1,0,4,4 A 4,4,0,0,0,172.5,87.24Z" fill="#fff"/>
  <path d="M 47.78,243.58 s -7.91-1.41-11.83-5.42-3.71-8.59-.41-7.89,6.05,4.07,6.05,4.07-2.3-5.74.7-9.59 S 50,228.61,47.78,243.58Z" fill="#ec008c"/>
  <path d="M 196.08,46 s -4.36-14.93-2.73-27.46,16.16-21.68,8.2,12.9 c 8.11-19.38,23.84-25.73,16.53-8.35 S 196.08,46,196.08,46Z" fill="#ec008c"/>
  <path d="M 189.35,239.82 a 42.62,42.62,0,0,1-2.44-15.88 c .49-8.31,4.4-13.68,6.84-11 s .73,11.49.73,11.49,5.62-8.8,8.06-8.31 S 207.18,222.47,189.35,239.82Z" fill="#ec008c"/>
  <path d="M 226.71,175.45 s -4.49-19.91.78-21.55,3.57,11,3.57,11,7.3-6.19,10.67-5.92 S 242.5,166.72,226.71,175.45Z" fill="#ec008c"/>
  <path d="M 37.65,54.32 S 24,49,18.36,40.76 s -4.35-20.48,12-2.28 c -.42-13.63,3-19.55,7.65-16.17 S 40.5,44.41,37.65,54.32Z" fill="#ec008c"/>
  <path d="M 19.85,143 s -7.57-2.93-10.67-7.5-2.41-11.33,6.64-1.26 c -.23-7.54,1.69-10.81,4.23-8.95 S 21.42,137.48,19.85,143Z" fill="#ec008c"/>
  <path d="M 227.18,96.78 s -6-2.33-8.5-6-1.92-9,5.29-1 c -.18-6,1.34-8.61,3.37-7.12 S 228.43,92.42,227.18,96.78Z" fill="#ec008c"/>
  <path d="M 80.21,16.53 s -5.36-2.63-7.58-5.88-.17-8.47,3.82-2.36 c 1.68-4.77,4.29-6.6,5.05-1.79 S 80.21,16.53,80.21,16.53Z" fill="#ec008c"/>
  <path d="M 106.71,118.57 l -.44,2.51 c -.32,1.69-1.48,14.53,9.39,19.52,12.41,5.69,22.23-4.91,22.23-4.91 l 4.75-3.55 s 3.6-8,3.3-8.43-.91-12.29-.91-12.29 l -14.69-9.34-7.59.12-7,1.08-9.83,5.32.77,10" fill="#fedcc8"/>
  <path d="M 161.92,102.63 c -4.4-6.85-9.25-9.61-18.19-9.26 a 17.62,17.62,0,0,0-13.3,6.57 l -.35.39 c -5.6-8.13-16-7.82-21.73-6.33 s -14.79,10-15.17,21.63,4.85,23.6,5.25,24.75,3,8.42,2.07,15.48-4.09,9.59-4.09,9.59 a 1.73,1.73,0,0,0,1,.1,6.26,6.26,0,0,0,2.71-2.72 c -.08.62-.18,1.33-.18,1.33.45-.33.83-.66.83-.66-.22,1.35-3.3,4.31-3.3,4.31.9-.4,4-3.36,4-3 s 0,2.15,0,2.15 a 20.57,20.57,0,0,0,2.35-1.66,27.78,27.78,0,0,1-1.54,4.34,52.57,52.57,0,0,0,5.51-4,24.41,24.41,0,0,1-1.81,5,6.48,6.48,0,0,0,1.44-1.21 l .28.47 c 1.29-1.11,4.88-6.65,4.88-6.65 a 68.47,68.47,0,0,1-1.53,7 c .58-.18,2.3-2.15,3.25-3 a 12.67,12.67,0,0,0,1.8-2.22 c 0,2.88-2,7.45-2,7.45.79-.73,3-6.26,3.05-5.84 s .21,3.16.21,3.16 c .87-1.27,3.42-7.19,3.42-7.19.15,1.36-1.55,8.11-1.18,7.89 a 11.91,11.91,0,0,0,2.37-1.94,5.18,5.18,0,0,1,.66-.84 c -.13,4.5,1.86,5.6,1.86,5.6 a 7.81,7.81,0,0,1,.55-4,2.31,2.31,0,0,0,1,1.77,6.55,6.55,0,0,1,1.59-3.24 c .46,3.81,2.53,3.71,2.53,3.71 a 13.94,13.94,0,0,1-.12-1.9 c 1.34,4.25,3.55,4.73,3.55,4.73 a 10.4,10.4,0,0,1-.85-2.77,8.69,8.69,0,0,0,1.87,2.32,5.54,5.54,0,0,1-.49-1.65 c .3,1.22.28-1,.28-1-.09-3.2.59-3,.59-3 a 6.52,6.52,0,0,0,1.2,2.56 c .79.78,1.79,3.13,1.88,2.74 a 10.51,10.51,0,0,0-.48-2.23 c .83,1.52,1.74,1.54,1.74,1.54 a 4.16,4.16,0,0,1,.19-4.17,8.66,8.66,0,0,0,2.44,3.45,5.69,5.69,0,0,1-.62-3.43,13.92,13.92,0,0,0,2.33,3.09,17.46,17.46,0,0,1-1.19-3.8,5.45,5.45,0,0,0,1.6,2.63,11.14,11.14,0,0,1-.15-2.24 c .11.24.23.5.37.75 a 2.37,2.37,0,0,1,.09-1 c .16-.47-.08.06.76,1.05 a 22.21,22.21,0,0,1-.69-4.1,3.92,3.92,0,0,0,.12-.8 c .29,5.1,2.86,4.7,2.86,4.7-.48-1.5-2-7-.49-12.2,2.16-7.25,6.68-13.74,8.91-18 S 161.61,128.63,163,125,166.32,109.48,161.92,102.63Z m -21.5,30.06 a 19.67,19.67,0,0,1-15.52,9.85,17.4,17.4,0,0,1-9.24-2,13.38,13.38,0,0,1-6.3-5.92,21.61,21.61,0,0,1-.49-17.11 s 2.85-5.45,7.74-6,10.58,1.35,11.52,5.11 a 14.16,14.16,0,0,1,7.69-1.07 C 139.67,116.37,146,123.07,140.42,132.69Z" fill="#f0e9bc"/>
  <path d="M 115.44,134 a 3.48,3.48,0,0,0,1.9,3.88,3.36,3.36,0,0,0,4.3-1.31 c .14-.28,1.54-3.07-2.24-3 A 2.37,2.37,0,0,0,115.44,134Z" fill="#efb4b2"/>
  <path d="M 123.28,131.7 a .28.28,0,0,1-.22-.16,1.63,1.63,0,0,0-1.49-1,3,3,0,0,0-1,.14 l -.23.08-.11-.22 a 2,2,0,0,0-2.34-1,.28.28,0,0,1-.17-.53,2.51,2.51,0,0,1,2.89,1.11,2.45,2.45,0,0,1,3,1.19.28.28,0,0,1-.28.4Z"/>
  <path d="M 120.64,136.86 a 8.06,8.06,0,0,1-3.51-1.3,11.89,11.89,0,0,1-2.25-1.85.28.28,0,0,1,.41-.37 s 3.38,3.68,7,2.88 a .28.28,0,0,1,.12.54 A 5.48,5.48,0,0,1,120.64,136.86Z"/>
  <path d="M 118.47,138.53 a 3.78,3.78,0,0,1-3.3-4.55v0 l 0,0 a 2.8,2.8,0,0,1,2.07-1.44,3.11,3.11,0,0,1,2.23.92,2.76,2.76,0,0,1,2.51.92,2.59,2.59,0,0,1-.13,2.44 A 3.8,3.8,0,0,1,118.47,138.53Z m -2.77-4.38 a 3.17,3.17,0,0,0,1.75,3.52,3.11,3.11,0,0,0,3.93-1.18 h 0 a 2.14,2.14,0,0,0,.16-1.89 c -.3-.47-1-.7-2.15-.66 h -.13 l -.09-.09 a 2.68,2.68,0,0,0-1.88-.84 A 2.26,2.26,0,0,0,115.7,134.14Z"/>
  <path d="M 117.4,133.09 s -.68.26-.69.67.51.38.75.18 S 118.37,133.29,117.4,133.09Z" fill="#fff"/>
  <path d="M 116.62,135.5 s -.12-.23-.37.07.12,1.07.5.93 S 117.13,136.28,116.62,135.5Z" fill="#fff"/>
  <circle cx="112.03" cy="131.8" r="2.44" transform="translate(-29.92 230.66) rotate(-84.49)" fill="#efb4b2"/>
  <circle cx="126.16" cy="138.29" r="2.44" transform="translate(-23.6 250.59) rotate(-84.49)" fill="#efb4b2"/>
  <path d="M 141.66,164.55 c .06-1.16-1.73-5.64-3.21-9.24-.31-.77-.53-1.48-.78-2.1-.14-.36-.29-.74-.44-1.14-1-2.56-2.29-5.79-4.24-6.52 a 3.45,3.45,0,0,0-2.75.47,17.52,17.52,0,0,1-2.6,1.15,3.68,3.68,0,0,1-2.41-2,4.68,4.68,0,0,1-.74-2.75 l -.75.07 a 14.38,14.38,0,0,1-1.7,0,4.61,4.61,0,0,1-.61,2.46 c -.56.82-2.64,1.57-3.34,1.81 l 0,0 c -2.2-1-4.85-2.28-7.13.09-1,1-1.95,4.14-3.11,7.11-1.28,3.28-2.46,6.74-4.38,8.54 a 14.72,14.72,0,0,0-4.65.58,25.45,25.45,0,0,0-4.11,2,14.88,14.88,0,0,1-1.45.67,2.15,2.15,0,0,0-1.07-.36,7.33,7.33,0,0,0-2.34.16 h 0 c -.58.16-1.81.84-1.71,2.07 s .93,2.58,2.08,2.69 h .16 a 5.27,5.27,0,0,0,3.16-1.78,2.31,2.31,0,0,0,.31-.45 c 1-.16,7.31-1.11,12.06-2.27,1.15-.28,3.19-4.09,3.86-5.42 a 5.29,5.29,0,0,0,4.26,3.15,5.38,5.38,0,0,0,.84,0,7.85,7.85,0,0,1,.82,2.52,10.41,10.41,0,0,1-2.21,6.65 c -.42.54-.84,1-1.23,1.5-3.78,4.3-5.78,6.57-5.36,12.3,0,.4.13,2.54.18,2.9.85,6.16,1.63,7.82,2.78,10.22 a .32.32,0,0,0,.12.1 l .3.07 a .7.7,0,0,1,.18.08,3,3,0,0,1-.4-.67 c .34.88.57.84,1,.73,1.19-.3,2.45-1.17,3.34-.43.73.61,2.27-.93,2.39-.7 a 1.68,1.68,0,0,1,0-.41,86.4,86.4,0,0,0,.94-12.54 l 0-.93.45.44 a 1.7,1.7,0,0,0,1.31.71 h .26 l .58,0 c -.09.11-1.53,2-3.13,12.42,0,.25-.09.51-.12.7 s .25.11.43,0 c .58-.49,2.4.35,3.06.85.44.34,2.22,2.21,3.6.78.28-.3.63-.19.85-.5,1.79-2.19,7.62-9.58,9-13.89 a 10,10,0,0,0-.23-6.4 h 0 l .08,0 c .47-.42.11-1.91-.21-2.7,0-.1-.1-.27-.15-.4-.36-.85-.72-1.88-3.28-2.72 a 17.24,17.24,0,0,0,3.16-1.63 C 134,172,141.58,166.12,141.66,164.55Z m -10.32,5.3 a 14.59,14.59,0,0,1-3.07,2.94 l 0,0 a 5.9,5.9,0,0,1-2.15-3.6,5.47,5.47,0,0,1,.15-2.24 l .89-1 a 13.89,13.89,0,0,0,1.25-1.58 c 2.74-.3,4.44-2.28,4.9-5.36 a 5.48,5.48,0,0,0-.47-2.93 c -.14-.57-.34-1.28-.48-1.76 a 55.27,55.27,0,0,1,5.29,10,21.44,21.44,0,0,0-4.3,3.26 C 132.74,168.13,131.95,169.18,131.34,169.86Z" fill="#fedcc8"/>
  <path d="M 109.82,199.7 c -1.15-2.4-1.93-4.06-2.78-10.22,0-.36-.15-2.5-.18-2.9-.42-5.72,1.58-8,5.36-12.3.39-.45.81-1,1.23-1.5 a 10.41,10.41,0,0,0,2.21-6.65 c -.2-1.69-1-2.66-.84-2.76 l .31-.22 a 5.71,5.71,0,0,1,1.12,2.86,8.85,8.85,0,0,1-2.45,6.95 c -.42.49-1,1-1.36,1.47-3.84,4.36-5.31,6.73-4.79,13.31,0,.48.07.89.12,1.24.92,7.26,2,10.25,2.65,10.95 a .7.7,0,0,0-.18-.08 l -.3-.07 A .32.32,0,0,1,109.82,199.7Z"/>
  <path d="M 116.81,199.41 c 0-.25-.09-.71-.05-.94 a 86.4,86.4,0,0,0,.94-12.54 l 0-.93.45.44 a 1.7,1.7,0,0,0,1.31.71 h .26 l .58,0 c -.09.11-1.53,2-3.13,12.42-.06.37-.14.77-.15.9 S 116.8,199.46,116.81,199.41Z m 1.51-12.73 a 23.42,23.42,0,0,1,0,3.22,22.09,22.09,0,0,1,.9-2.83 A 1.13,1.13,0,0,1,118.32,186.68Z"/>
  <path d="M 133.74,180 a 10,10,0,0,1,.23,6.4 c -1.55,4.76-8.48,13.25-9.44,14.39,0,0-.17.1-.22.08-.21-.09-.39,0-.43-.08 s .08-.22.09-.24 c .77-1,7.5-9.65,9-14.32 a 9.85,9.85,0,0,0-.3-7"/>
  <path d="M 127.87,173.42 a 5.92,5.92,0,0,1-2.25-4.17,5.33,5.33,0,0,1,.1-2.27 l .64-.32-.19.37.09-.14 a 5.47,5.47,0,0,0-.18,2.33,6,6,0,0,0,2.36,3.78"/>
  <path d="M 124,172.64 a 6.43,6.43,0,0,1,.93-4.71 c .62-.86,1.32-1.57,1.87-2.21 a 10.63,10.63,0,0,0,1.2-1.63 c .07-.13.68-.25.68-.25 a 7.28,7.28,0,0,1-1.52,2.14 c -.55.63-1.24,1.34-1.85,2.19 A 8.27,8.27,0,0,0,124,172.64Z"/>
  <path d="M 127.37,152.24 a 6.67,6.67,0,0,0-4.22,1.45 c -.24.11,0-.13.11-.24 a 4.6,4.6,0,0,1,4.44-1.25 c .24,0,.41.13-.33,0"/>
  <path d="M 119.55,153.52 c -.86-1.56-3.11-2-3.66-2 h 0 c -.29,0,0-.09.13-.09 a 3.91,3.91,0,0,1,3.52,1.75,2.29,2.29,0,0,1,.33.79 c 0,.06-.27-.38-.32-.45"/>
  <path d="M 129.87,152.76 A 5.32,5.32,0,0,1,131.5,154 a 6.47,6.47,0,0,1,1.78,5 c -.53,3.53-2.69,5.61-6.17,5.38 a 6.81,6.81,0,0,1-4.15-2.18 s -.12-.34.12-.27 h 0 c 2.65,1.67,5.25,2.58,7.69.81 a 5.45,5.45,0,0,0,1.94-3.85,5.55,5.55,0,0,0-1.35-4.62,6.29,6.29,0,0,0-1.5-1.46 c -.41-.26-.33-.26,0-.08"/>
  <path d="M 114,163.61 a 5.12,5.12,0,0,1-3.1-1.47,5.87,5.87,0,0,1-1.4-5.79,6.6,6.6,0,0,1,4.38-4.83 s .34-.1.21,0 h 0 c -2,.55-3.48,2.65-4.05,4.93 a 4.68,4.68,0,0,0,1.33,4.95,5.68,5.68,0,0,0,6.49.94 h 0 c .26-.1.41,0,.07.28 a 6.56,6.56,0,0,1-2.25.89 A 5.64,5.64,0,0,1,114,163.61Z"/>
  <path d="M 122.1,160.64 c -.46-.08-2.18-3.64,0-5.63.18-.16.35-.3.11.07 h 0 c -1.66,2.28-.09,5.51-.07,5.53Z"/>
  <path d="M 119.47,161v0 s 1.34-2,.81-5.74 c 0-.07-.05-.18-.06-.23 s .07.07.07.07 c 1.43,2.67-.43,5.63-.73,6 C 119.5,161.12,119.47,161.11,119.47,161Z"/>
  <path d="M 133.56,180 c -.31,0-.59-.16-1.17-.93 a 6.69,6.69,0,0,0-3-2.42,5.16,5.16,0,0,1-1.84-1.12,1.62,1.62,0,0,1-.45-1.39 c .15-.79,1.11-1.31,1.2-1.36 a 14.59,14.59,0,0,0,3.07-2.94 c .61-.67,1.39-1.73,2-2.28 a 21.44,21.44,0,0,1,4.3-3.26 c -3.76-9-7.32-12.55-7.27-12.53,1.39.63,6.55,8,7.64,12.45 l 0,.2,0,.16 a 42.46,42.46,0,0,0-4.16,3.22 c -.58.54-1.35,1.5-1.95,2.17 a 17.08,17.08,0,0,1-3.31,3.29 h 0 a 1.59,1.59,0,0,0-.78,1,1.07,1.07,0,0,0,.38,1,4.17,4.17,0,0,0,1.54.79 c 1.53.6,1.76,1,3,2.69.8,1.06.84.88.85.88.21-.25-.2-1.83-.39-2.26-.38-.83-.83-2.17-3.68-2.87-.22-.05-.83-.42-.07-.57 a 16.7,16.7,0,0,0,3.45-1.85 c .6-.43,2.49-1.88,4.47-3.64,3.25-2.87,3.7-3.7,3.71-3.94.05-1.07-1.84-5.7-3.22-9.08 l -.86-2.11 c -.15-.36-.29-.74-.44-1.15-.9-2.36-2-5.3-3.82-6 a 2.75,2.75,0,0,0-2.34.31 c -3.89,2.11-5.42,1.82-6.82,1.44 a 14.19,14.19,0,0,0,6.65-1.93,3.45,3.45,0,0,1,2.75-.47 c 2,.72,3.26,4,4.24,6.52.15.4.3.78.44,1.14.25.61.47,1.33.78,2.1,1.47,3.6,3.26,8.09,3.21,9.24-.08,1.57-7.67,7.47-8.34,8 a 17.24,17.24,0,0,1-3.16,1.63 c 2.56.84,2.92,1.87,3.28,2.72.05.13.11.3.15.4.32.79.68,2.28.21,2.7 A .31.31,0,0,1,133.56,180Z"/>
  <path d="M 132.74,156.94 c 0-.46-1.06-3.36-1.31-4.07 l .75,1 c 0,.11.74,2.47.81,3.07Z"/>
  <path d="M 104,162.71 h -.74 c 2-1.75,3.23-5.32,4.55-8.69,1.16-3,2.13-6.09,3.11-7.11,2.27-2.37,4.93-1.09,7.13-.09 l .54.25 a 15,15,0,0,0,2.45.73,4.45,4.45,0,0,1-2.63-.36 l -.55-.25 c -2.18-1-4.46-1.87-6.54.31-.93,1-2,3.74-3.15,6.67 C 106.78,157.75,105.49,161.39,104,162.71Z"/>
  <path d="M 93.38,166.19,93,165.9 a 11.22,11.22,0,0,0,1.68-.75,25.45,25.45,0,0,1,4.11-2 c 4.14-1.12,6.19-.32,6.19-.32 a 20.91,20.91,0,0,0-6.19,1,23.89,23.89,0,0,0-4,1.75 A 8.45,8.45,0,0,1,93.38,166.19Z"/>
  <path d="M 93.67,168.18 l .11-.37 c .07,0,6.61-1.28,11.8-2.54.85-.21,3.44-3.88,4-6.2 l .34,1 c -.3.62-2.75,5.49-4.05,5.81 C 100.77,167.14,93.9,168.13,93.67,168.18Z"/>
  <path d="M 90.18,170.38 h 0 c -1.15-.11-2-1.52-2.08-2.69 s 1.13-1.91,1.71-2.07 h 0 a 7.33,7.33,0,0,1,2.34-.16 c 1.52.15,1.68,1.14,1.79,1.87v.07 a 1.53,1.53,0,0,1-.46,1.2,5.27,5.27,0,0,1-3.16,1.78Z m -.28-4.31 c -.09,0-1.37.41-1.27,1.61.06.76.45,2.06,1.52,2.17 h .13 a 4.79,4.79,0,0,0,2.93-1.49 c .2-.23.5-.56.45-.89v-.07 c -.11-.74-.29-1.51-1.52-1.63 A 8.13,8.13,0,0,0,89.9,166.07Z"/>
  <path d="M 90.71,166.84 s -.15,0,0-.13 a 5.72,5.72,0,0,1,2.6-.75 l 0,.38 A 4.34,4.34,0,0,0,90.71,166.84Z"/>
  <path d="M 91,167.89 s -.07-.07.07-.17 a 5.86,5.86,0,0,1,2.64-.89 l 0,.38 A 5.49,5.49,0,0,0,91,167.89Z"/>
  <path d="M 91.29,168.74 a .08.08,0,0,1,0-.13,6.12,6.12,0,0,1,2.39-.81 l .05.38 A 5,5,0,0,0,91.29,168.74Z"/>
  <path d="M 130.62,176.8 c .15,0,.44-.11.46-.31 s -.47-.7-1.28-1 a 1.51,1.51,0,0,1-.8-.58,3.51,3.51,0,0,0,.83.35 c 1.18.35,1.72.86,1.58,1.38 C 131.33,176.87,130.62,176.8,130.62,176.8Z"/>
  <path d="M 120.36,170.58 s -.2,0-.24.06-.1.18,0,.28,0,.13.13.12.1,0,.14,0 a .1.1,0,0,0,.12,0,.78.78,0,0,1,.07-.11.29.29,0,0,0,0-.14 s 0-.11,0-.14,0-.11-.12-.08 S 120.45,170.53,120.36,170.58Z"/>
  <path d="M 122,142.56 a 4.61,4.61,0,0,1-.61,2.46 c -.68,1-3.55,1.88-3.58,1.89 l .59.31 c .12,0,2.52-.94,3.27-2 a 4.42,4.42,0,0,0,.58-2.62Z"/>
  <path d="M 125.23,145.22 a 4.69,4.69,0,0,1-.74-2.75 l -.41,0 a 5,5,0,0,0,.75,3 c 1,1.78,2.07,2.11,2.67,2.16.21,0,.6-.49.6-.49 S 126.51,147.39,125.23,145.22Z"/>
  <path d="M 136.54,182.64 c -2.13-1.25-2.79-2.54-3.62-2.75 h 0 l -.1-.27 a 5.38,5.38,0,0,1-.44-.53,6.69,6.69,0,0,0-3-2.42,5.16,5.16,0,0,1-1.84-1.12,1.62,1.62,0,0,1-.45-1.39,1.73,1.73,0,0,1,.58-.92,6.87,6.87,0,0,1-2.07-5.49 l -.31.4 a 8.27,8.27,0,0,0-1.31,4.48,6.43,6.43,0,0,1,.93-4.71 c .62-.86,1.32-1.57,1.87-2.21 a 12.2,12.2,0,0,0,1-1.28 l -.63,0 a 6.81,6.81,0,0,1-4.15-2.18 s -.12-.34.12-.27 c 2.65,1.67,5.25,2.58,7.69.81 a 5.45,5.45,0,0,0,1.94-3.85,5.59,5.59,0,0,0-.49-3.33,8.12,8.12,0,0,0-6.07-1.57,8.36,8.36,0,0,0-5,3.45 l -.25.39-.22-.41 c -1.39-2.61-3.07-4.19-5-4.7 a 6.71,6.71,0,0,0-4,.36,8.31,8.31,0,0,0-1.69,3.35,4.68,4.68,0,0,0,1.33,4.95,5.68,5.68,0,0,0,6.49.94 c .26-.1.41,0,.07.28 a 6.56,6.56,0,0,1-2.25.89 l -.24,0 a 6,6,0,0,1,.84,2.46,8.85,8.85,0,0,1-2.45,6.95 c -.36.41-.8.86-1.16,1.25 h 0 s -7,7.53-13.29,7.1 c 0,0-1.31,4.94,5.45,7.15,0,0,.93,5.1,7.15,6.93 s 12.55-1.09,12.55-1.09 a 11.14,11.14,0,0,0,5.93.19,6.91,6.91,0,0,0,4.12-4.52 s 4.87,1.26,6.4-5.81 A 13.07,13.07,0,0,1,136.54,182.64Z" fill="#f8b4b3"/>
  <path d="M 111.71,153.11 a 8.31,8.31,0,0,0-1.69,3.35,4.68,4.68,0,0,0,1.33,4.95,5.68,5.68,0,0,0,6.49.94.4.4,0,0,1,.17,0 c .93-.69,1.59-1.39-.07-1.38-2.46,0-5-1.74-4.53-4.31 s 1.41-1.55,2.18-2.44.14-1.44.14-1.44 A 6.71,6.71,0,0,0,111.71,153.11Z" fill="#f9c3c2"/>
  <path d="M 121.27,194.85 c -1.11-2.79-9-3.32-9.19-5.15 s -1.57-2.64-.1-5.26 a 59,59,0,0,0,5.61-13.68 c 1.37-5.56-.9-7.54-.9-7.54 h 0 a 7.17,7.17,0,0,1-1,.3 l -.24,0 a 6,6,0,0,1,.84,2.46,8.85,8.85,0,0,1-2.45,6.95 c -.36.41-.8.86-1.16,1.25 h 0 s -7,7.53-13.29,7.1 c 0,0-1.31,4.94,5.45,7.15,0,0,.93,5.1,7.15,6.93 a 18.17,18.17,0,0,0,9.27,0 A .51.51,0,0,0,121.27,194.85Z" fill="#f9c3c2"/>
  <path d="M 120.93,157.86 l -.22-.41 c -1.39-2.61-3.07-4.19-5-4.7 a 7,7,0,0,0-4.47.56,5.76,5.76,0,0,1,4.61-1.07 c 3.19.83,3.64,2.67,5.06,5.2,1.56-2.22,2.45-3.4,5.14-3.94 a 6.94,6.94,0,0,1,6.49,2.34,8.25,8.25,0,0,0-6.4-1.81,8.36,8.36,0,0,0-5,3.45Z"/>
  <path d="M 134.35,190.41 l -.09-.14 a 15.33,15.33,0,0,1-1.91-4.33,28.37,28.37,0,0,0,2.39,3.8,5,5,0,0,0,4.85-2.51,11.66,11.66,0,0,0,1.16-2.92 c -6.38-1.21-7.76-5.13-7.76-5.13 s 2,3.57,7.82,4.8 l .31.07,0,.31 a 9.3,9.3,0,0,1-1.12,3.18,5.45,5.45,0,0,1-5.45,2.87Z"/>
  <path d="M 126.79,195.39 c -1.37-.13-2.23-.25-2.3-.28 l -.12-.12-.18-.52 c 0-.09-1-2.18-1-7.19 a 41,41,0,0,0,1.61,6.77,9.51,9.51,0,0,0,5.32.15,8,8,0,0,0,4.46-4.08 c 0,.15-.82,3.89-4.28,5 A 8.92,8.92,0,0,1,126.79,195.39Z"/>
  <path d="M 101.59,186.84 s 2.9,1.24,9.54-7 c 0,0,.63,2-6,8.09 A 3.55,3.55,0,0,1,101.59,186.84Z" fill="#f8b4b3"/>
  <path d="M 115.25,196.61 a 21.06,21.06,0,0,1-2.66-.43,11.08,11.08,0,0,1-6.79-4.34,7.16,7.16,0,0,1-1.28-3.13 l 0-.18.13-.12 c .05-.05,5.51-5.06,6.63-7.81,0,0-.57,2.78-6.16,8.14 a 8.32,8.32,0,0,0,1.31,2.5,10.59,10.59,0,0,0,6.38,3.81,18.38,18.38,0,0,0,8.3.07,13.58,13.58,0,0,0,3.05-1.05 l .37.51 a 7.71,7.71,0,0,1-3.27,1.66 A 18.3,18.3,0,0,1,115.25,196.61Z"/>
  <path d="M 104.8,189 a 6.81,6.81,0,0,1-5.29-4.25,8.36,8.36,0,0,1-.58-3.29 l 0-.33 h .33 c 3.88.08,7.54-2.17,9.94-4.08 a 30,30,0,0,0,4.32-4.23 s -2.63,3.17-4.13,4.6 a 15.54,15.54,0,0,1-10,4.18,10.57,10.57,0,0,0,.73,2.9 c .82,2.05,2.64,2.94,5,3.41Z"/>
  <path d="M 123.08,162 c 2.54,1.59,5,2.49,7.36,1-7,.34-7.65-3.61-7.65-3.61-.55-.81-1-.15-1.13,1 a 1.69,1.69,0,0,0,1.3,1.86 S 122.84,161.9,123.08,162Z" fill="#f9c3c2"/>
  <path d="M 100.64,168.58 a .15.15,0,0,1,.1-.07,10.72,10.72,0,0,1,1.58-.17 h 0 s .15,0,0,.4 l -1.72.07 A .37.37,0,0,1,100.64,168.58Z m 7.22,7.68 a 2.76,2.76,0,0,1-2,.75 h 0 c -.05,0-4,.67-6.82.84 h 0 c -1.34-.24-1.75-.31-2.15-1 s -.42-4.87-.35-6.2 a 1.4,1.4,0,0,1,1-1.23 l 8.46-.51 a 1.91,1.91,0,0,1,.31,0,2,2,0,0,1,1.74,1.65 C 108.62,173.39,108.67,175.31,107.86,176.26Z" fill="#dd85a5"/>
  <path d="M 100.29,168 a .24.24,0,0,0-.12-.22.44.44,0,0,0-.22-.06.39.39,0,0,0-.2.05.23.23,0,0,0-.12.16.25.25,0,0,0,.06.2.34.34,0,0,0,.21.11.39.39,0,0,0,.25,0 A .26.26,0,0,0,100.29,168Z" fill="#fdfdfd"/>
  <path d="M 100.84,162.36 a .25.25,0,0,0-.12-.22.42.42,0,0,0-.22-.06.38.38,0,0,0-.2.05.24.24,0,0,0-.12.17.26.26,0,0,0,.06.21.33.33,0,0,0,.21.12.38.38,0,0,0,.25,0 A .27.27,0,0,0,100.84,162.36Z" fill="#fdfdfd"/>
  <path d="M 101.59,162.3 a .26.26,0,0,0-.12-.23.41.41,0,0,0-.22-.07.37.37,0,0,0-.21.06.26.26,0,0,0-.12.18.28.28,0,0,0,.06.22.33.33,0,0,0,.21.12.38.38,0,0,0,.26,0 A .29.29,0,0,0,101.59,162.3Z" fill="#dd85a5"/>
  <path d="M 102.24,162.83 a .31.31,0,0,0-.12-.27.43.43,0,0,0-.25-.08.39.39,0,0,0-.23.07.31.31,0,0,0-.13.21.34.34,0,0,0,.06.25.36.36,0,0,0,.24.14.4.4,0,0,0,.28-.06 A .34.34,0,0,0,102.24,162.83Z" fill="#fdfdfd"/>
  <path d="M 102.48,163.54 a .28.28,0,0,0-.11-.23.35.35,0,0,0-.21-.07.31.31,0,0,0-.19.06.28.28,0,0,0-.11.18.31.31,0,0,0,0,.22.29.29,0,0,0,.2.12.33.33,0,0,0,.24-.05 A .3.3,0,0,0,102.48,163.54Z" fill="#dd85a5"/>
  <path d="M 102.74,164.24 a .27.27,0,0,0-.12-.24.44.44,0,0,0-.24-.07.4.4,0,0,0-.21.06.26.26,0,0,0-.13.18.29.29,0,0,0,.06.23.35.35,0,0,0,.22.12.4.4,0,0,0,.27,0 A .29.29,0,0,0,102.74,164.24Z" fill="#fdfdfd"/>
  <path d="M 102.84,165 a .29.29,0,0,0-.11-.24.34.34,0,0,0-.21-.08.31.31,0,0,0-.2.07.3.3,0,0,0-.11.19.33.33,0,0,0,0,.23.29.29,0,0,0,.2.13.33.33,0,0,0,.25-.06 A .32.32,0,0,0,102.84,165Z" fill="#dd85a5"/>
  <path d="M 103.13,167.2 A .27.27,0,0,0,103,167 a .44.44,0,0,0-.24-.07.4.4,0,0,0-.21.06.26.26,0,0,0-.13.18.29.29,0,0,0,.06.23.35.35,0,0,0,.22.12.4.4,0,0,0,.27,0 A .29.29,0,0,0,103.13,167.2Z" fill="#fdfdfd"/>
  <path d="M 103.23,167.92 a .29.29,0,0,0-.11-.24.34.34,0,0,0-.21-.08.31.31,0,0,0-.2.07.3.3,0,0,0-.11.19.33.33,0,0,0,0,.23.29.29,0,0,0,.2.13.33.33,0,0,0,.25-.06 A .32.32,0,0,0,103.23,167.92Z" fill="#dd85a5"/>
  <path d="M 103,165.74 a .29.29,0,0,0-.11-.24.36.36,0,0,0-.22-.07.33.33,0,0,0-.2.06.29.29,0,0,0-.12.19.32.32,0,0,0,.05.23.3.3,0,0,0,.21.13.35.35,0,0,0,.25-.06 A .31.31,0,0,0,103,165.74Z" fill="#fdfdfd"/>
  <path d="M 103,166.48 a .27.27,0,0,0-.1-.23.34.34,0,0,0-.2-.07.3.3,0,0,0-.18.06.27.27,0,0,0-.11.18.3.3,0,0,0,0,.21.28.28,0,0,0,.19.12.32.32,0,0,0,.24-.05 A .29.29,0,0,0,103,166.48Z" fill="#dd85a5"/>
  <path d="M 96.36,177.72 c -1.32-.74-1.3-3.67-1-7.38 a 1.62,1.62,0,0,1,1.49-.87,1.5,1.5,0,0,0-.67,1.18 c 0,.63-.43,5.57.09,6.46 a 1.71,1.71,0,0,0,1,.78 l -.32,0 A 1.73,1.73,0,0,1,96.36,177.72Z m 5.87-.18 c 1.05-.13-2.19.25-3.19.32 h 0 c -1.34-.24-1.75-.31-2.15-1 s -.42-4.87-.35-6.2 a 1.4,1.4,0,0,1,1-1.23 l 2.65-.16 C 99.77,171.8,99.37,177.9,102.24,177.54Z" fill="#e49db7"/>
  <path d="M 96.88,178.47 a 2.1,2.1,0,0,1-.8-.2 c -1.49-.84-1.84-3.62-1.11-8v0 A 1.7,1.7,0,0,1,96.74,169 c 1.41-.08,9-.36,9.19-.37 a 2.29,2.29,0,0,1,.38,0,2.26,2.26,0,0,1,2.08,1.88 c .62,2.93.49,4.95-.4,6 a 2.77,2.77,0,0,1-2.08.82 C 105.45,177.4,99.26,178.7,96.88,178.47Z m -1.47-8.13 c -.35,3.72-.36,6.64,1,7.38 a 1.73,1.73,0,0,0,.65.15 c 2.37.23,8.78-.84,8.85-.86 h 0 a 2.76,2.76,0,0,0,2-.75 c .8-1,.76-2.88.16-5.68 a 2,2,0,0,0-1.74-1.65,1.91,1.91,0,0,0-.31,0 l -9,.54 A 1.64,1.64,0,0,0,95.41,170.33Z"/>
  <path d="M 99,178.23 c -1.36-.24-2.16-.29-2.66-1.12 s -.12-5.83-.09-6.46 a 1.72,1.72,0,0,1,1.33-1.5 l 0,.28 a 1.41,1.41,0,0,0-1,1.23 c -.07,1.33,0,5.53.35,6.2 s .81.75,2.15,1 l 0,.19Z"/>
  <path d="M 100.34,169.14 a .93.93,0,0,1,0-.66.53.53,0,0,1,.34-.26,9.91,9.91,0,0,1,1.59-.12.4.4,0,0,1,.3.14.77.77,0,0,1,.1.67 l -.38-.07 c .17-.55,0-.49,0-.49 h 0 a 10.72,10.72,0,0,0-1.58.17.15.15,0,0,0-.1.07 c -.06.11,0,.38.07.44Z"/>
  <path d="M 96.35,170.65 c .59.53,1.15,1.08,1.7,1.64 s 1.09,1.13,1.62,1.72,1.05,1.17,1.56,1.77,1,1.21,1.48,1.85 c -.59-.53-1.15-1.08-1.7-1.64 s -1.09-1.14-1.62-1.72-1.05-1.17-1.56-1.77 S 96.83,171.28,96.35,170.65Z"/>
  <path d="M 98.43,169.19 c .67.61,1.32,1.24,1.95,1.89 s 1.26,1.3,1.87,2,1.22,1.33,1.81,2,1.18,1.37,1.73,2.09 c -.67-.61-1.32-1.24-1.95-1.89 s -1.26-1.3-1.87-2-1.22-1.33-1.81-2 S 99,169.91,98.43,169.19Z"/>
  <path d="M 102,169 c .54.48,1.05,1,1.56,1.49 s 1,1,1.48,1.56,1,1.07,1.42,1.62.91,1.11,1.34,1.69 c -.54-.48-1.05-1-1.56-1.49 s -1-1-1.48-1.56-1-1.07-1.42-1.62 S 102.41,169.59,102,169Z"/>
  <path d="M 104.81,168.86 a 13.22,13.22,0,0,1,1,.92q.5.48,1,1t.91,1 a 13,13,0,0,1,.83,1.12,13.06,13.06,0,0,1-1-.92q-.5-.48-1-1t-.91-1.05 A 13.22,13.22,0,0,1,104.81,168.86Z"/>
  <path d="M 96.37,174.43 a 9.89,9.89,0,0,1,1,.74q.45.39.88.81t.82.87 a 9.77,9.77,0,0,1,.74,1,9.76,9.76,0,0,1-1-.74q-.45-.39-.88-.82t-.82-.87 A 9.89,9.89,0,0,1,96.37,174.43Z"/>
  <path d="M 96.33,173.44 l 1-1.07.51-.53.51-.53.51-.53q.25-.27.53-.51t.57-.47 a 6.61,6.61,0,0,1,.61-.42 l 0,0 a 6.6,6.6,0,0,1-.45.59q-.24.28-.49.55t-.53.51 l -.56.48 L 98,172 l -.55.48-1.11,1Z"/>
  <path d="M 96.93,177.06 l 1.65-2,1.66-2,.83-1q.41-.49.85-1 l .44-.46.45-.46 c .3-.3.61-.6.94-.88 l 0,0 c -.24.36-.5.7-.77,1 l -.4.5-.41.49q-.41.49-.85,1 l -.88.94-1.75,1.88 L 97,177.08Z"/>
  <path d="M 99.46,178 l 1.74-2.21,1.75-2.19.87-1.1q.43-.55.9-1.08 l .47-.52.47-.52 c .32-.34.64-.68,1-1 l 0,0 c -.26.39-.53.78-.81,1.15 l -.42.56-.43.55q-.44.55-.9,1.08 l -.92,1.06-1.84,2.12 L 99.49,178Z"/>
  <path d="M 102.48,177.59 l 1.25-1.44,1.27-1.43.63-.72q.31-.36.65-.7 l .34-.33.35-.32 c .24-.21.48-.42.74-.62 l 0,0 c -.18.27-.37.52-.57.77 l -.3.37-.31.36q-.32.36-.66.69 l -.68.67-1.35,1.35-1.36,1.34Z"/>
  <path d="M 105.54,177.17 l .54-.58.27-.29.28-.28.27-.29 a 2.19,2.19,0,0,1,.29-.26,2.75,2.75,0,0,1,.7-.39 l 0,0 a 2.75,2.75,0,0,1-.47.65,2.19,2.19,0,0,1-.29.26 l -.32.23-.31.24-.31.24-.64.47Z"/>
  <polygon points="99.86 169.05 99.84 168.28 100.07 168.28 100.17 169.01 99.86 169.05"/>
  <polygon points="103.06 168.94 102.87 168.29 103.05 168.24 103.42 168.83 103.06 168.94"/>
  <path d="M 100.31,168 a .41.41,0,0,1-.42.35.45.45,0,0,1-.29-.12.39.39,0,0,1-.12-.31.42.42,0,0,1,.16-.3.43.43,0,0,1,.33-.09.39.39,0,0,1,.27.18 A .43.43,0,0,1,100.31,168Z m 0,0 a .24.24,0,0,0-.12-.22.44.44,0,0,0-.22-.06.39.39,0,0,0-.2.05.23.23,0,0,0-.12.16.25.25,0,0,0,.06.2.34.34,0,0,0,.21.11.39.39,0,0,0,.25,0 A .26.26,0,0,0,100.29,168Z"/>
  <path d="M 100.43,162.9 a .42.42,0,0,1-.14.25.4.4,0,0,1-.29.1.45.45,0,0,1-.29-.13.41.41,0,0,1-.12-.31.43.43,0,0,1,.49-.4.39.39,0,0,1,.28.18 A .45.45,0,0,1,100.43,162.9Z m 0,0 a .25.25,0,0,0-.12-.23.42.42,0,0,0-.22-.06.38.38,0,0,0-.2.05.24.24,0,0,0-.12.17.27.27,0,0,0,.06.21.34.34,0,0,0,.21.12.38.38,0,0,0,.25,0 A .28.28,0,0,0,100.41,162.89Z"/>
  <path d="M 100.86,162.36 a .42.42,0,0,1-.14.25.4.4,0,0,1-.28.1.44.44,0,0,1-.29-.13.4.4,0,0,1-.12-.31.43.43,0,0,1,.49-.39.39.39,0,0,1,.28.18 A .44.44,0,0,1,100.86,162.36Z m 0,0 a .25.25,0,0,0-.12-.22.42.42,0,0,0-.22-.06.38.38,0,0,0-.2.05.24.24,0,0,0-.12.17.26.26,0,0,0,.06.21.33.33,0,0,0,.21.12.38.38,0,0,0,.25,0 A .27.27,0,0,0,100.84,162.36Z"/>
  <path d="M 100.11,167.1 l -.55.1v0 a .27.27,0,0,0,.06.21.33.33,0,0,0,.21.12.38.38,0,0,0,.25,0,.28.28,0,0,0,.14-.23 A .26.26,0,0,0,100.11,167.1Z" fill="#ebb6c9"/>
  <path d="M 101.61,162.3 a .44.44,0,0,1-.14.26.4.4,0,0,1-.29.11.44.44,0,0,1-.29-.13.42.42,0,0,1-.12-.31.44.44,0,0,1,.16-.31.43.43,0,0,1,.34-.1.39.39,0,0,1,.28.19 A .46.46,0,0,1,101.61,162.3Z m 0,0 a .26.26,0,0,0-.12-.23.41.41,0,0,0-.22-.07.37.37,0,0,0-.21.06.26.26,0,0,0-.12.18.28.28,0,0,0,.06.22.33.33,0,0,0,.21.12.38.38,0,0,0,.26,0 A .29.29,0,0,0,101.59,162.3Z"/>
  <path d="M 102.26,162.83 a .5.5,0,0,1-.15.29.43.43,0,0,1-.32.12.47.47,0,0,1-.32-.15.48.48,0,0,1-.12-.35.5.5,0,0,1,.17-.34.46.46,0,0,1,.37-.11.43.43,0,0,1,.31.21 A .53.53,0,0,1,102.26,162.83Z m 0,0 a .31.31,0,0,0-.12-.27.43.43,0,0,0-.25-.08.39.39,0,0,0-.23.07.31.31,0,0,0-.13.21.34.34,0,0,0,.06.25.36.36,0,0,0,.24.14.4.4,0,0,0,.28-.06 A .34.34,0,0,0,102.24,162.83Z"/>
  <path d="M 102.5,163.54 a .48.48,0,0,1-.12.26.36.36,0,0,1-.28.12.4.4,0,0,1-.28-.14.44.44,0,0,1-.1-.31.47.47,0,0,1,.14-.31.4.4,0,0,1,.33-.11.36.36,0,0,1,.27.2 A .51.51,0,0,1,102.5,163.54Z m 0,0 a .28.28,0,0,0-.11-.23.35.35,0,0,0-.21-.07.31.31,0,0,0-.19.06.28.28,0,0,0-.11.18.31.31,0,0,0,0,.22.29.29,0,0,0,.2.12.33.33,0,0,0,.24-.05 A .3.3,0,0,0,102.48,163.54Z"/>
  <path d="M 102.76,164.24 a .44.44,0,0,1-.14.27.42.42,0,0,1-.3.11.46.46,0,0,1-.3-.13.42.42,0,0,1-.12-.32.45.45,0,0,1,.51-.42.41.41,0,0,1,.29.19 A .47.47,0,0,1,102.76,164.24Z m 0,0 a .27.27,0,0,0-.12-.24.44.44,0,0,0-.24-.07.4.4,0,0,0-.21.06.26.26,0,0,0-.13.18.29.29,0,0,0,.06.23.35.35,0,0,0,.22.12.4.4,0,0,0,.27,0 A .29.29,0,0,0,102.74,164.24Z"/>
  <path d="M 102.86,165 a .5.5,0,0,1-.12.27.36.36,0,0,1-.29.12.4.4,0,0,1-.29-.15.46.46,0,0,1-.1-.32.49.49,0,0,1,.14-.32.4.4,0,0,1,.34-.12.37.37,0,0,1,.28.2 A .53.53,0,0,1,102.86,165Z m 0,0 a .29.29,0,0,0-.11-.24.34.34,0,0,0-.21-.08.31.31,0,0,0-.2.07.3.3,0,0,0-.11.19.33.33,0,0,0,0,.23.29.29,0,0,0,.2.13.33.33,0,0,0,.25-.06 A .32.32,0,0,0,102.84,165Z"/>
  <path d="M 103.15,167.2 a .44.44,0,0,1-.14.27.42.42,0,0,1-.3.11.46.46,0,0,1-.3-.13.42.42,0,0,1-.12-.32.45.45,0,0,1,.51-.42.41.41,0,0,1,.29.19 A .47.47,0,0,1,103.15,167.2Z m 0,0 A .27.27,0,0,0,103,167 a .44.44,0,0,0-.24-.07.4.4,0,0,0-.21.06.26.26,0,0,0-.13.18.29.29,0,0,0,.06.23.35.35,0,0,0,.22.12.4.4,0,0,0,.27,0 A .29.29,0,0,0,103.13,167.2Z"/>
  <path d="M 103.25,167.93 a .5.5,0,0,1-.12.27.36.36,0,0,1-.29.12.4.4,0,0,1-.29-.15.46.46,0,0,1-.1-.32.49.49,0,0,1,.14-.32.4.4,0,0,1,.34-.12.37.37,0,0,1,.28.2 A .53.53,0,0,1,103.25,167.93Z m 0,0 a .29.29,0,0,0-.11-.24.34.34,0,0,0-.21-.08.31.31,0,0,0-.2.07.3.3,0,0,0-.11.19.33.33,0,0,0,0,.23.29.29,0,0,0,.2.13.33.33,0,0,0,.25-.06 A .32.32,0,0,0,103.23,167.92Z"/>
  <path d="M 103,165.74 a .49.49,0,0,1-.13.27.37.37,0,0,1-.29.12.41.41,0,0,1-.29-.15.45.45,0,0,1-.11-.32.48.48,0,0,1,.14-.32.41.41,0,0,1,.34-.11.38.38,0,0,1,.17.07.39.39,0,0,1,.11.13 A .52.52,0,0,1,103,165.74Z m 0,0 a .29.29,0,0,0-.11-.24.36.36,0,0,0-.22-.07.33.33,0,0,0-.2.06.29.29,0,0,0-.12.19.32.32,0,0,0,.05.23.3.3,0,0,0,.21.13.35.35,0,0,0,.25-.06 A .31.31,0,0,0,103,165.74Z"/>
  <path d="M 103,166.48 a .47.47,0,0,1-.12.25.35.35,0,0,1-.27.12.39.39,0,0,1-.28-.14.43.43,0,0,1-.1-.31.46.46,0,0,1,.14-.3.39.39,0,0,1,.33-.11.35.35,0,0,1,.27.19 A .5.5,0,0,1,103,166.48Z m 0,0 a .27.27,0,0,0-.1-.23.34.34,0,0,0-.2-.07.3.3,0,0,0-.18.06.27.27,0,0,0-.11.18.3.3,0,0,0,0,.21.28.28,0,0,0,.19.12.32.32,0,0,0,.24-.05 A .29.29,0,0,0,103,166.48Z"/>
  <path d="M 100.39,162.78 a .26.26,0,0,0-.1-.11.42.42,0,0,0-.22-.06.38.38,0,0,0-.2.05.24.24,0,0,0-.12.25Z" fill="#ebb6c9"/>
  <path d="M 100.23,167.31 a .43.43,0,0,1-.14.26.4.4,0,0,1-.29.11.44.44,0,0,1-.29-.13.41.41,0,0,1-.12-.31.44.44,0,0,1,.16-.31.43.43,0,0,1,.34-.09.39.39,0,0,1,.28.18 A .46.46,0,0,1,100.23,167.31Z m 0,0 a .26.26,0,0,0-.12-.23.42.42,0,0,0-.22-.06.38.38,0,0,0-.2.05.25.25,0,0,0-.12.18.27.27,0,0,0,.06.21.33.33,0,0,0,.21.12.38.38,0,0,0,.25,0 A .28.28,0,0,0,100.21,167.31Z"/>
  <path d="M 121.46,142.58 a 18.49,18.49,0,0,1-6-1.63,14.7,14.7,0,0,1-6.4-5.47,17.23,17.23,0,0,1-2.43-6.67,23.8,23.8,0,0,1,.13-8,46.24,46.24,0,0,0,.51,7.9 c .87,5.52,3.78,9.42,8.49,11.57 a 17.39,17.39,0,0,0,15.43-.31,33.35,33.35,0,0,0,7-4.73 l -.13.72 a 23.79,23.79,0,0,1-6.57,4.67,19.8,19.8,0,0,1-7.2,2 A 17.43,17.43,0,0,1,121.46,142.58Z"/>
  <path d="M 129.16,126.32 a 9.84,9.84,0,0,0,4.28-7 s .89,2.38-2.51,6.06 c 0,0,4.8-1.24,4.83-7.21,0,0,2,4.33-4.69,7.85"/>
  <path d="M 131.58,125.56 s 3.5-1.2,5.17-3.1,3.63-5.86,2.68-9 c 0,0,1.33,2-.39,6 s -4.19,5.64-5,5.82 c 0,0,2.62-.08,6-2.76 s 4.14-7.33,3.64-7.87 c 0,0,1.2,3.09-2.4,7.31-3.17,3.73-6.32,4-6.32,4 a 13.42,13.42,0,0,0,7.16-2 c 3.37-2.2,6-6.18,5.81-9.3,0,0,.65,3.32-3,7.65 a 11.5,11.5,0,0,1-9,4.28 s 3.82.92,6.1.11,6.38-2.32,8.15-6.72 c 0,0-2.69,8.63-12.82,7.47,0,0,2,2.14,8.89.58 a 10.68,10.68,0,0,0,7.87-6.51 s -2.17,8.78-15.17,7.57 a 10.81,10.81,0,0,0,7.16,1.78 c 4.51-.33,7-2.07,7.73-3.62,0,0-1,3.32-6.76,4 s -8.81-2-8.81-2 a 14.37,14.37,0,0,0,7.94,4.67 c 5.25,1.14,8.62-.43,10.46-2.6,0,0-5.06,8.13-16.44.87,0,0,8,7.38,14.23,3.8,0,0-6,5.32-15-3.74 a 18.31,18.31,0,0,0,6.32,5.54 c 3.16,1.48,4.87,2.48,9.24,0,0,0-4.67,5.77-14-2.21,0,0,5,6.48,11.56,5.32,0,0-3,2.6-9.51-2.23 a 13,13,0,0,1-4.24-5.56 s 1.44,4.27,3.41,6.06,5.75,5.39,9.59,4.45 c 0,0-3.57,2-9.17-3-3.55-3.21-4.54-5.28-4.54-5.28 l -.07-3.17-.83-2.55-.63-1.43-.62-.69-1.26-.78-1.33-.27-1.72-.3Z"/>
  <path d="M 129.52,125.91 a 5.43,5.43,0,0,0-3.18,2.62 c -1.2,2.16.49,4.44,2,5.4 s 6.46,3.26,9.78,1.46 a 12.55,12.55,0,0,0-1.32-6.43 C 135.19,125.91,131.9,125.51,129.52,125.91Z" fill="#fff"/>
  <path d="M 118.83,120.92 a 4.06,4.06,0,0,1,0,3.77,4.2,4.2,0,0,1-4,2.25 c -1.11-.22-6.64-2.51-8-5.93,0,0,2.76-3.49,5.76-3.7 S 118.78,120.66,118.83,120.92Z" fill="#fff"/>
  <ellipse cx="132.75" cy="130.89" rx="4.47" ry="4.68" transform="translate(-18.13 21.39) rotate(-8.63)" fill="url(#radial-gradient)"/>
  <circle cx="113.21" cy="121.74" r="4.51" transform="translate(-18.84 222.74) rotate(-84.49)" fill="url(#radial-gradient-2)"/>
  <path d="M 106.42,121 c 2.34,4.38,7.74,6.27,8.39,6.33 a 1,1,0,0,0,.94-.38,12.11,12.11,0,0,1-8.56-5.85 s 2.94-4,6.74-3.23 a 7.62,7.62,0,0,1,4.87,3.57 l .24.05.08-.49 s -1-3-6.17-3.92 C 110.52,116.72,106.42,121,106.42,121Z"/>
  <circle cx="112.43" cy="119.19" r="1.88" transform="translate(-17 219.65) rotate(-84.49)"/>
  <circle cx="111.95" cy="118.68" r="0.4" transform="translate(-16.92 218.72) rotate(-84.49)" fill="#fff"/>
  <path d="M 118.95,120.78 a 9.84,9.84,0,0,1,1-8.13 s -2.17,1.31-1.79,6.31 c 0,0-3-4,.68-8.65,0,0-4.24,2.17-1.19,9.07"/>
  <path d="M 117.33,118.91 a 17.4,17.4,0,0,1-1.95-5.87 c -.13-2.53.78-6.84,3.48-8.73,0,0-2.31.77-3.43,5 s -.21,7,.32,7.66 c 0,0-2-1.68-3-5.91 s 1.3-8.32,2-8.43 c 0,0-2.86,1.68-2.65,7.22.18,4.89,2.45,7.09,2.45,7.09 a 13.42,13.42,0,0,1-4.35-6 c -1.28-3.82-.91-8.59,1.21-10.9,0,0-2.57,2.2-2.37,7.87 a 11.5,11.5,0,0,0,4.44,9 s -3.57-1.65-4.86-3.7-3.57-5.78-2.23-10.33 c 0,0-3.23,8.44,5.43,13.81,0,0-2.92.42-7.33-5.05 a 10.68,10.68,0,0,1-2.14-10 s -3.74,8.24,7.21,15.34 a 10.81,10.81,0,0,1-6.72-3 c -3.34-3.05-4.2-6-3.83-7.63,0,0-1.27,3.23,2.83,7.32 s 8.16,3.89,8.16,3.89 a 14.37,14.37,0,0,1-9.13-1.25 c -4.83-2.36-6.5-5.68-6.6-8.52,0,0-1.07,9.52,12.36,10.87,0,0-10.88.81-13.53-5.84,0,0,1.41,7.89,14.12,6.39 a 18.31,18.31,0,0,1-8.39.43 c -3.4-.79-5.36-1.08-7.27-5.7,0,0,.09,7.43,12.39,7,0,0-8,2-12.37-3,0,0,.73,3.88,8.85,4.14 a 13,13,0,0,0,6.78-1.74 s -3.77,2.46-6.43,2.64-7.85.67-10.28-2.45 c 0,0,1.56,3.79,9.09,3.3 a 13,13,0,0,0,7.32-2.52 l 1.26-1.43,2.23-1.62,1.66-.43.92-.16,1.47.17,1.21.61,1.53.83Z"/>
  <path d="M 113,126.66 l -.31-.56 a 4.66,4.66,0,0,0,4.62-4,4.14,4.14,0,0,0-8.24-.79,4.88,4.88,0,0,0,.68,2.92 l -.73-.13 a 4,4,0,0,1-.69-2.86,4.88,4.88,0,1,1,4.66,5.38Z"/>
  <path d="M 129.68,125.69 l -.37.62,0,.31 s 4.76-2.05,7.1,2.36,1.26,6.55,1.26,6.55-5.78,1.65-10-2.36 l -.46.24 s 5.25,4.79,10.91,2.11 a 12.75,12.75,0,0,0-1.31-7.3 C 135.09,124.57,129.68,125.69,129.68,125.69Z"/>
  <path d="M 131.37,135.61 a 4.25,4.25,0,0,1,.91,2 l .11-.16 s .09-1.11-.33-1.55"/>
  <path d="M 132.43,135.93 s .94,1,.78,1.74 l .13-.19 s .16-.36-.28-1.41"/>
  <path d="M 127.75,133.71 s .46.88.36,1.21 h .12 a 5.19,5.19,0,0,0-.12-1"/>
  <path d="M 128.59,134.18 a 3.27,3.27,0,0,1,.24,1.42 l .11.17 a 1.38,1.38,0,0,0,0-1.1,2.62,2.62,0,0,1,.48,1.64 l 0,.24 a 1.58,1.58,0,0,0,0-1.77"/>
  <path d="M 129.8,134.87 a 3.44,3.44,0,0,1,.41,1.73 l .09.19 a 3.55,3.55,0,0,0,.07-1.54"/>
  <path d="M 130.6,135.29 s .8,1,.6,1.78 l .15.25 a 1.92,1.92,0,0,0-.15-1.78"/>
  <path d="M 133.17,136.08 a 2.18,2.18,0,0,1,1.08,1.55.41.41,0,0,0,.09-.26,1.83,1.83,0,0,0-.45-1.24"/>
  <path d="M 134.11,136.19 a 1.56,1.56,0,0,1,.8,1.38 l .16.12 s .46-.47-.41-1.53"/>
  <path d="M 135,136.16 s .72.91.63,1.5 l .13.09 s .4-.41-.31-1.63"/>
  <path d="M 135.85,136.16 a 2.93,2.93,0,0,1,.46,1.19 l .18.11 a 3.76,3.76,0,0,0-.34-1.41"/>
  <path d="M 136.22,136.05 s .87.83.86,1.54 h .15 a 3,3,0,0,0-.42-1.48,1.87,1.87,0,0,1,.75,1.41,1.85,1.85,0,0,0-.51-1.74"/>
  <path d="M 137.36,135.68 a 2.31,2.31,0,0,1,.37,1.14 l .13.21 a 1.84,1.84,0,0,0-.29-1.38"/>
  <path d="M 111.07,125.63 a 4.33,4.33,0,0,0-2.1.63 l 0-.19 s .78-.82,1.4-.81"/>
  <path d="M 110.16,125 s -1.43,0-1.85.59 l .06-.23 s .16-.36,1.26-.74"/>
  <path d="M 114.91,127.11 s -1,.25-1.17.55 l -.08-.1 a 5.29,5.29,0,0,1,.84-.59"/>
  <path d="M 114,126.79 a 3.33,3.33,0,0,0-1.24.79 l -.2,0 a 1.41,1.41,0,0,1,.8-.78 s -1.17.16-1.57.76 l -.21.13 a 1.61,1.61,0,0,1,1.33-1.21"/>
  <path d="M 112.64,126.34 s -1.26.34-1.59.87 l -.21.06 a 3.62,3.62,0,0,1,1.12-1.11"/>
  <path d="M 111.77,126 s -1.31.08-1.76.75 l -.29.06 a 2,2,0,0,1,1.46-1.1"/>
  <path d="M 109.49,124.58 a 2.22,2.22,0,0,0-1.91.24.42.42,0,0,1,.13-.24,1.87,1.87,0,0,1,1.25-.5"/>
  <path d="M 108.77,123.94 a 1.59,1.59,0,0,0-1.59.33 l -.2,0 s 0-.67,1.44-.73"/>
  <path d="M 108.14,123.3 s -1.18.07-1.57.55 l -.16,0 s 0-.58,1.45-.87"/>
  <path d="M 107.54,122.62 a 3,3,0,0,0-1.22.46 l -.2-.06 a 3.84,3.84,0,0,1,1.31-.7"/>
  <path d="M 107.37,122.27 a 2.87,2.87,0,0,0-1.76.4 l -.12-.11 a 3.06,3.06,0,0,1,1.41-.69,1.91,1.91,0,0,0-1.58.39,1.89,1.89,0,0,1,1.67-.79"/>
  <path d="M 106.94,121.26 a 2.31,2.31,0,0,0-1.09.48 l -.25,0 a 1.84,1.84,0,0,1,1.22-.71"/>
  <circle cx="131.85" cy="127.95" r="1.88" transform="translate(-8.17 246.9) rotate(-84.49)"/>
  <circle cx="132.83" cy="130.31" r="1.24" transform="translate(-9.63 250.02) rotate(-84.49)" fill="#fff"/>
  <path d="M 131.71,125.9 l .43.48 a 4.74,4.74,0,0,0-3.45,5.12,4.11,4.11,0,1,0,8.11-1.23,5.21,5.21,0,0,0-1.38-2.77 l .73-.05 a 4.26,4.26,0,0,1,1.37,2.71,4.84,4.84,0,1,1-5.82-4.27Z"/>
  <circle cx="131.37" cy="127.44" r="0.4" transform="translate(-8.09 245.97) rotate(-84.49)" fill="#fff"/>
  <circle cx="113.41" cy="121.55" r="1.24" transform="translate(-18.46 222.77) rotate(-84.49)" fill="#fff"/>
<script type="text/ecmascript" xlink:href="param.min.js"/> 
</svg>
