<?xml version="1.0"?>
<svg xmlns="http://www.w3.org/2000/svg" xmlns:xlink="http://www.w3.org/1999/xlink" id="Layer_4" data-name="Layer 4" viewBox="0 0 250 250">
  <title>hot-dog</title>
  <path d="M 14,170.5 S 2.5,145,21,126 s 52-15,78.5-32,55-39.5,63-48.5,21-15.5,27.5-14 A 11,11,0,0,1,207,40 c 9.5,3.5,16.5,21,8.5,50 s -32.5,82.5-78,115-68.5,18-80,6.5 C 42.5,218,5,211,14,170.5Z"/>
  <path d="M 20,166 s -8-21,6.5-36.5 S 67,118,86,107.5,131,86,154.5,61 c 20-21,31-24,35-22-2.5,4.5-4,5.5-4,5.5 s -7.83,3.17-6.83,9.17 a 42.14,42.14,0,0,1-6,10.67 s -6.67,2-6.67,7.33 c -3.67,6-10.33,11.67-10.33,11.67 s -6.67.67-7,7.33 a 76.84,76.84,0,0,1-12,11 s -10.33.33-11.33,8.67 a 76.65,76.65,0,0,1-18.33,11 S 93.33,116.67,92.33,128 C 81,134.33,65.67,139,65.67,139 s -7.67-1-11,4 C 37.33,148.33,23,155.67,20,166Z" fill="#ed358d"/>
  <path d="M 205.33,46 s 7,2.33,7,20.33 S 202,113.67,180,145.67 s -45.33,51.67-64.67,61.67-43.67,11-50.33.67-4-22.67,9-35.67,38-15.67,58.67-31.33 S 166,109.33,176.33,93.33,201,47.33,205.33,46Z" fill="#ed358d"/>
  <path d="M 54.25,204.75 s -18.75,7-29.25-9-1-28.5,5.75-34.75 S 53,149.75,53,149.75,52.5,164.5,62,164 s 2.75-11.25,7.75-11.75,4.5,5,14.25,6.75 C 70.25,165.5,50.5,178,54.25,204.75Z" fill="#f6adcd"/>
  <path d="M 74.5,139.75 s 13-4.25,17-7.5 c .75,6.5.5,10.5-2.25,11.75 S 78.5,140.75,74.5,139.75Z" fill="#f6adcd"/>
  <path d="M 105.25,150 s 12.5-7,16.25-9.75 c -6.75-2.5-11-7.25-14.25-5.75 S 106.75,143.5,105.25,150Z" fill="#f6adcd"/>
  <path d="M 111,122.25 s 11.75-5.5,15-9 C 127.5,118.75,127.5,128.5,111,122.25Z" fill="#f6adcd"/>
  <path d="M 140.25,127.25 s 11.75-9.75,13.25-12.5 c -4,.75-9.5-3.75-12.25-1.5 S 141,123,140.25,127.25Z" fill="#f6adcd"/>
  <path d="M 141,101.75 s 7-5.5,9.5-7.75 c 2.5,5,1.5,8-.5,9 S 142.75,101.75,141,101.75Z" fill="#f6adcd"/>
  <path d="M 165.5,101 l 5-7 s -4.5-2.25-6.25-.75 S 165.5,101,165.5,101Z" fill="#f6adcd"/>
  <path d="M 160.5,83.25 S 167,76.5,168,74.5 C 170.25,77.75,170.75,85.25,160.5,83.25Z" fill="#f6adcd"/>
  <path d="M 180.5,77.5 s -2.25-4.25,3.25-5.25 A 12,12,0,0,1,180.5,77.5Z" fill="#f6adcd"/>
  <path d="M 189.5,61.75 l 3.25-6.5 s -4,.25-4.75,1.5 S 189.5,61.75,189.5,61.75Z" fill="#f6adcd"/>
  <path d="M 191.25,43.5 s 4.75.5,6.5,4.75 a 15.55,15.55,0,0,1,6-7 s -3.25-4.5-7.75-3 S 191.25,43.5,191.25,43.5Z" fill="#f6adcd"/>
  <path d="M 62,159 c -2.49.55-6-2.5-5.25-8.75 s 6-8.75,12-8.25,16,7,21.75,5.5,4.25-7.5,4.25-12.75,1-13.5,11-11,18.75,5,21.75,1,.25-14.5,3-17.25,5.25-3.5,12-2.25,13,1.75,12.5-4.5-6-13.5,1.25-14.25,15.5.75,16.25-5.75-5.75-11.25,1.75-13.5 S 182.5,63.5,181,57.5 s 3.75-10.5,7.5-11,7.75,1,6,3.75-8,1.75-9.25,5.5 S 187.5,65,187.5,65 l -2.75,5.5 s -13-4.25-6.25,10.5 a 87.48,87.48,0,0,1-6.75,11.25 s -5.5-4.5-9.75-1.5.75,11.25.75,11.25-2.25,6.75-6.25,10 c -7.25-1-15.25-4-17.75-1.75 s -1.5,13.75-2.25,18.5 c -3.5,4.5-12.25,9-12.25,9 A 48.22,48.22,0,0,1,113,132 c -5.25-3.75-9.25-2.25-10.5,5.25 s 1.25,12.25-3.25,14.5 A 84.69,84.69,0,0,1,88,156 a 11.87,11.87,0,0,1-11.5-4.75 c -4.75-6.25-11.25-4-13-.25 S 64.25,158.5,62,159Z" fill="#fff684"/>
  <path d="M 62.5,144.08 c 4-2.17,12-.25,11.67,1.42 s -7.33-2.25-10.83.58-2.67,5.42-4.33,5.25 S 58.33,146.33,62.5,144.08Z" fill="#fff"/>
  <path d="M 92.25,148.13 a 6.07,6.07,0,0,0,3.38-5.5 c .13-2.25,2-.87,1.5,2.25 s -3.87,5.38-6.75,5.5-6.37-2.25-4-2.12 S 89.88,149.25,92.25,148.13Z" fill="#fff"/>
  <path d="M 99.25,125.25 c 3.54-2.65,9-.12,6.88.38 s -5-.25-6.12,1.13-2.5,5.38-3.5,5.25 S 96.75,127.13,99.25,125.25Z" fill="#fff"/>
  <path d="M 126.88,126.75 c 2.42-1.69,2.63-4.62,3.5-4.5 s .38,3.63-2.25,5.63-7.37,1.88-7.62.88 S 124.38,128.5,126.88,126.75Z" fill="#fff"/>
  <path d="M 132.88,106.63 c 2.67-2.27,7.25-1.37,6.88-.62 s -4.75.5-6.12,1.88-1.87,5.13-2.75,5.13 S 129.5,109.5,132.88,106.63Z" fill="#fff"/>
  <path d="M 154.63,105.13 c 1.57-1.69,1.25-4.12,1.88-4.12 s 1,2.88-.75,4.5-5.75,2.38-5.87,1.63 S 153,106.88,154.63,105.13Z" fill="#fff"/>
  <path d="M 154.13,88.38 c .75-1.09,4.38-1.5,4.5-.87 s -2.12.75-3.25,1.75-.62,3.63-1.12,3.88 S 152.75,90.38,154.13,88.38Z" fill="#fff"/>
  <path d="M 172.38,83.5 c 1.05-1.87.38-3.87,1.38-3.75 s .25,3.13-.62,4.63-4.12,2.75-4.25,2.25 S 171.25,85.5,172.38,83.5Z" fill="#fff"/>
  <path d="M 172,69.5 c 1.25-1.53,4-2.37,4.13-1.87 S 173.75,69.13,173,70 s .13,3.5-.5,3.63 S 170.88,70.88,172,69.5Z" fill="#fff"/>
  <path d="M 181.75,64.13 c .94-1.41,1-3.12,1.5-3.12 s .5,2.5-.12,3.5-3.62,2.13-3.75,1.63 S 180.75,65.63,181.75,64.13Z" fill="#fff"/>
  <path d="M 183.25,50.88 a 7.43,7.43,0,0,1,5.75-3.5 c 1,0-.37.88-2.12,1.88 s -3.5,2.63-3.5,4.63-1,3.5-1.12,1.63 S 182,53.25,183.25,50.88Z" fill="#fff"/>
  <path d="M 203.37,176.91 c 3-.45,4.51-1.2,4.32-1.95-.25-1-2.69-.48-8.19,0 l -.88-.39 c 2.95-2.87,7.39-7.19,6.12-8.21 s -3.55,1.85-8,6.44 c -.7-3.65-1.26-6.08-2.67-5.85-1.23.2-.47,2.53.11,5.51-3.45-1.88-7.48-4.25-8.37-3.15-1.07,1.33,3.41,3.63,8,6-4.46.14-10.42.2-9.45,1.65 s 3.37.81,7.77.48 c -3,3-5.79,6.08-4.23,6.31 s 4.33-2.62,6.8-5.21 c .09,3.75.52,6.39,2,6.39 s 1.31-4.4.86-7.55 c 4.57,2.62,9.6,5.81,10.35,4.31 C 208.58,180.53,206.87,178.84,203.37,176.91Z" fill="#ffdd4d"/>
  <path d="M 229.72,19.41 c -.24-1.57-4.21-.33-8.84.08,2.66-3.34,6.39-8.09,5-8.95 s -3.21,2-6.73,6.82 c -.11-4.34-.19-9.8-1.57-8.88-1.58,1-.57,4.22-.38,10.15-3.1-2.06-7.9-6.33-9.06-5.24 s 2.34,3.51,6,6.13 c -4.1,0-6.91.4-7,1.93 s 4.1,1.59,7.78,1.4 c -2.91,3.74-5.93,7.84-4.17,7.87,1.6,0,4.26-3.44,6.51-6.5.28,5,1.23,7.52,2.19,7.28 s .49-2.61,0-7.95 c 3.24,2.54,6.32,4.9,7.05,3.82 s -.81-3-4.12-5.35 C 226.94,21.43,230,20.93,229.72,19.41Z" fill="#ffdd4d"/>
  <path d="M 239.34,127.94 c -.91.24-.44,2.11.14,5.44-1.82-1.67-4.08-3.79-4.25-2.86 s 1.5,1.9,4,4.16 c -2.07.46-5.7.74-5.71,1.64 s 2.36.42,4.88,0 c -1.62,1.67-2.56,3-2,3.61 s 2.27-1,3.64-2.63 c .39,2.66.87,5.51,1.58,4.8 s .27-3.1-.09-5.23 c 2.15,1.85,3.56,2.46,3.84,2 s -.88-1.23-3.25-3.14 c 2.31-.32,4.49-.66,4.34-1.38 s -1.54-.84-3.81-.43 c 1.54-2.08,2.53-3.5,1.81-4 s -1.8,1.59-3.45,3.65 C 240.72,131.1,240.25,127.7,239.34,127.94Z" fill="#ffdd4d"/>
  <path d="M 20.71,44.7 c 2.8-1.15,6.34-2.55,5.4-3.23 s -2.9.67-6.71,2.27 c .58-2.53,2.17-6.72,1.17-7.2 s -1.71,2.4-2.5,5.44 c -1-2.67-2-4.4-3-4.06 s 0,3.07,1,5.42 c -3.16-1-6.58-1.92-6.16-.77 s 3.3,1.93,5.85,2.64 c -3.18,1.42-4.6,2.67-4.21,3.23 s 1.82-.33,5.18-2 C 15.92,49.2,15.15,51.8,16,52 s 1.74-1.27,2.47-4 c 1.5,2.8,2.57,4.64,3.5,4.11 s -.83-2.83-2.24-5.75 c 2.84.91,6.86,2.16,7.07,1 S 24.71,45.81,20.71,44.7Z" fill="#ffdd4d"/>
  <path d="M 66.43,73.75 c -.79-1.69-4.29-.1-10.62,2.22,2.61-4.16,6-9.36,4.07-9.37-2.14,0-3.18,3.62-6.71,9.34 C 51.54,72.06,49.68,65,47.91,65.34 s 0,4.77,1.84,9.54 C 45.89,72.31,43,70.94,42,72.34 s 2.87,4.07,6.47,6.18 c -5.09,1.71-10.5,3.69-8.86,4.82,1.49,1,6.18-.58,10.22-2.06-2.85,4.87-3.55,7.86-2.49,8.24 s 2.1-2.16,5-7.49 c 1.47,4.42,2.9,8.57,4.26,8 s 1.1-3.31-.54-7.63 c 4.62,2.28,7.77,3.7,8.51,2.11 s -3.77-2.95-8.39-5.46 C 60.73,77.59,67.22,75.44,66.43,73.75Z" fill="#ffdd4d"/>
  <path d="M 234.49,229.76 c -.57-1.22-3.09-.07-7.64,1.6,1.88-3,4.28-6.73,2.93-6.74-1.54,0-2.29,2.61-4.83,6.71-1.18-2.8-2.51-7.85-3.79-7.63 s 0,3.43,1.32,6.86 c -2.78-1.85-4.87-2.84-5.59-1.83 s 2.06,2.93,4.65,4.45 c -3.66,1.23-7.55,2.65-6.37,3.46 s 4.44-.42,7.35-1.48 c -2,3.5-2.55,5.66-1.79,5.93 s 1.51-1.55,3.58-5.39 c 1.05,3.18,2.08,6.17,3.07,5.77 s .79-2.38-.38-5.49 c 3.32,1.64,5.59,2.66,6.12,1.52 s -2.71-2.12-6-3.93 C 230.39,232.52,235.06,231,234.49,229.76Z" fill="#ffdd4d"/>
  <path d="M 131.25,21.81 c -.28-1.2-3.82.21-7.74.6,1.42-2.29,4.61-7,3.43-7.53 s -2.29,2.22-4.94,6.61 c -.89-2.82-2.13-7.85-3-6.86 s .29,2.73,1.42,6.31 c -1.92-1.42-4.09-3.12-4.71-2.54 s 1.62,2.4,4.13,4.18 c -3.21.18-5.4.59-5.38,1.68,0,.93,2.8.92,5.42.66-1.45,2.4-2.65,4.67-1.61,4.57 s 2.29-2.1,3.48-4.11 c 1,2.87,2,4.21,2.55,3.9 s 0-1.47-1-4.09 c 2.21,1.73,4.33,3.37,4.83,2.64 s -.6-2.08-3-3.75 C 128.94,23.42,131.51,22.94,131.25,21.81Z" fill="#ffdd4d"/>
  <path d="M 37.43,228.35 c -.33-1.43-4.56.25-9.22.72,1.7-2.73,5.5-8.31,4.09-9 s -2.73,2.65-5.89,7.88 c -1.06-3.36-2.53-9.35-3.57-8.18 s .35,3.25,1.69,7.52 c -2.29-1.7-4.88-3.72-5.61-3 s 1.93,2.86,4.92,5 c -3.82.21-6.44.7-6.41,2,0,1.11,3.34,1.1,6.46.79-1.72,2.85-3.16,5.56-1.92,5.45 s 2.73-2.51,4.15-4.9 c 1.2,3.42,2.38,5,3,4.65 s 0-1.75-1.17-4.87 c 2.63,2.07,5.16,4,5.76,3.14 s -.72-2.48-3.54-4.47 C 34.68,230.26,37.74,229.69,37.43,228.35Z" fill="#ffdd4d"/>
  <path d="M 162.75,220 c -.23-1-3.09.17-6.25.49,1.15-1.85,3.72-5.63,2.77-6.08 s -1.85,1.79-4,5.34 c -.72-2.28-1.72-6.33-2.42-5.54 s .24,2.2,1.15,5.1 c -1.55-1.15-3.3-2.52-3.8-2 s 1.31,1.94,3.33,3.38 c -2.59.14-4.36.47-4.34,1.36 s 2.26.75,4.38.53 c -1.17,1.93-2.14,3.77-1.3,3.69 s 1.85-1.7,2.81-3.32 c .81,2.32,1.61,3.4,2.06,3.15 s 0-1.18-.79-3.3 c 1.78,1.4,3.5,2.72,3.9,2.13 s -.49-1.68-2.4-3 C 160.88,221.31,163,220.93,162.75,220Z" fill="#ffdd4d"/>
<script type="text/ecmascript" xlink:href="param.min.js"/> 
</svg>
