<?xml version="1.0"?>
<svg xmlns="http://www.w3.org/2000/svg" xmlns:xlink="http://www.w3.org/1999/xlink" id="fixed-colours" viewBox="0 0 250 250">
  <title>long-tongue</title>
  <path d="M 15.67,82.33 S 35,72.33,48.33,56.67 s 33.67-38,50.33-37,27,14.33,27,14.33,8.33-14,22-15 S 169.33,20.67,188,39.67,232,76.33,238.67,79 c -27.67,9.33-60.33,59-60.33,59 s -9.33,49.67-19,70.33-38.33,26.33-59,8.33 S 77,146.67,69,135,28.33,91.33,15.67,82.33Z"/>
  <path d="M 24,83.33 s 20.33-12,35-27.67 S 85.67,28.67,98.67,29,122.33,39,126,44.67 c 11.33-14,24.33-19,34-16 s 41,38.67,67,48 c -14.33,3-39.33,4-50.33-.33 s -24.33-12.67-33.33-8.67 S 128,78,115.67,73 s -22-8-32.33.33 S 55.67,96.33,24,83.33Z" fill="#e1192b"/>
  <path d="M 38.33,93.33 S 54,96,60,93 c 9.33,10,14.33,30.33,15.33,36.67 C 64.33,114,38.33,93.33,38.33,93.33Z" fill="#e1192b"/>
  <path d="M 176.67,126 S 183,96.33,190.33,86 c 11.33.67,29.33-3.33,29.33-3.33 S 187,111,176.67,126Z" fill="#e1192b"/>
  <path d="M 66,91 s 11-5.67,17.67-9.33 S 99,74,106,77.67,117.33,83,120.33,83 c 3.33,23,4.33,100.67,4.33,100.67 s 3.67-85,7-100.67 c 8.33-2.33,15-10.33,22.33-8 s 22,11,30,11 c -9.67,22.33-15,54.33-17.67,73.33 s -10.67,45-19,53-32.67,11.33-43-3.67 S 90,172,86.33,152.33,74,98.33,66,91Z" fill="#ea96b1"/>
  <path d="M 96.33,36.33 c 8.31-1.48,19.67,2.33,20.67,8.33 S 105.33,44.33,96,47 s -13,8.33-17,4.33 S 87,38,96.33,36.33Z" fill="#fff" opacity="0.5"/>
  <path d="M 153.67,34.67 c 11,1,17.67,6.33,17.33,12.33 s -14-2.67-20.67-2-11.33,5.33-13.67.67 S 147,34.06,153.67,34.67Z" fill="#fff" opacity="0.5"/>
  <path d="M 192.91,177.61 c 2.19-.32,3.27-.87,3.13-1.41-.18-.73-1.95-.34-5.94,0 l -.64-.28 c 2.14-2.08,5.36-5.21,4.44-6 s -2.57,1.34-5.77,4.67 c -.51-2.65-.91-4.41-1.93-4.24 s -.34,1.83.08,4 c -2.51-1.36-5.43-3.08-6.07-2.28-.77,1,2.47,2.63,5.79,4.36-3.23.1-7.56.15-6.86,1.2 s 2.44.59,5.64.35 c -2.17,2.19-4.2,4.41-3.07,4.57 s 3.14-1.9,4.94-3.78 c .06,2.72.38,4.64,1.48,4.64 s .95-3.19.62-5.48 c 3.32,1.9,7,4.22,7.51,3.13 C 196.7,180.25,195.46,179,192.91,177.61Z" fill="#f287b6"/>
  <path d="M 40.06,154.16 c -.2-1.32-3.55-.28-7.45.07,2.24-2.81,5.38-6.81,4.2-7.53 s -2.7,1.71-5.67,5.74 c -.09-3.65-.16-8.25-1.32-7.48-1.33.88-.48,3.56-.32,8.54-2.61-1.74-6.65-5.33-7.62-4.41 s 2,3,5.06,5.16 c -3.45,0-5.82.34-5.86,1.62 s 3.45,1.34,6.55,1.18 c -2.45,3.15-5,6.6-3.51,6.62 s 3.59-2.9,5.49-5.47 c .24,4.19,1,6.33,1.84,6.13 s .41-2.2,0-6.69 c 2.72,2.13,5.32,4.12,5.94,3.22 s -.68-2.5-3.47-4.51 C 37.72,155.86,40.26,155.44,40.06,154.16Z" fill="#f287b6"/>
  <path d="M 239.11,127.21 c -1-1.84-4.8.15-11.71,3.11,2.67-4.8,6.09-10.79,4-10.69-2.39.12-3.34,4.23-6.94,10.81-2.05-4.24-4.54-12-6.5-11.53 s .3,5.33,2.61,10.54 c -4.46-2.64-7.78-4-8.83-2.38 s 3.44,4.37,7.57,6.52 c -5.57,2.21-11.49,4.73-9.59,5.89,1.72,1.06,6.86-1,11.28-2.9-2.89,5.6-3.5,9-2.3,9.34 s 2.21-2.53,5.12-8.65 c 1.89,4.84,3.74,9.39,5.23,8.7 s 1-3.76-1-8.48 c 5.29,2.27,8.89,3.67,9.62,1.85 s -4.38-3.07-9.69-5.6 C 233,131.83,240.09,129,239.11,127.21Z" fill="#f287b6"/>
  <path d="M 131.34,12.66 c 2.59-1.06,5.86-2.36,5-3 s -2.67.62-6.2,2.09 c .53-2.34,2-6.21,1.08-6.65 s -1.58,2.21-2.31,5 c -.93-2.47-1.82-4.07-2.75-3.75 s 0,2.83.94,5 c -2.92-.89-6.08-1.77-5.69-.71 s 3,1.78,5.41,2.43 c -2.93,1.31-4.25,2.46-3.88,3 s 1.69-.3,4.79-1.81 c -.79,2.53-1.5,4.93-.69,5.12 s 1.61-1.17,2.28-3.71 c 1.38,2.59,2.37,4.29,3.24,3.8 s -.77-2.61-2.07-5.31 c 2.62.84,6.33,2,6.53,1 S 135,13.68,131.34,12.66Z" fill="#f287b6"/>
  <path d="M 72.59,200.12 c 2.2-.9,5-2,4.23-2.53 s -2.27.53-5.26,1.78 c .45-2,1.7-5.27.92-5.65 s -1.34,1.88-2,4.26 c -.79-2.1-1.55-3.45-2.34-3.19 s 0,2.4.8,4.25 c -2.48-.76-5.16-1.51-4.83-.6 s 2.59,1.51,4.59,2.07 c -2.49,1.11-3.6,2.09-3.3,2.53 s 1.43-.26,4.06-1.54 c -.67,2.15-1.27,4.18-.58,4.35 s 1.36-1,1.94-3.15 c 1.17,2.19,2,3.64,2.75,3.22 s -.65-2.22-1.76-4.5 c 2.22.71,5.37,1.69,5.54.81 S 75.72,201,72.59,200.12Z" fill="#f287b6"/>
  <path d="M 37.49,29.73 C 36.71,28,33.2,29.64,26.88,32 c 2.61-4.16,6-9.36,4.07-9.37-2.14,0-3.18,3.62-6.71,9.34 C 22.6,28,20.75,21,19,21.32 s 0,4.77,1.84,9.54 C 16.95,28.29,14,26.92,13,28.32 s 2.87,4.07,6.47,6.18 c -5.09,1.71-10.5,3.69-8.86,4.82,1.49,1,6.18-.58,10.22-2.06-2.85,4.87-3.55,7.86-2.49,8.24 s 2.1-2.16,5-7.49 c 1.47,4.42,2.9,8.57,4.26,8 s 1.1-3.31-.54-7.63 c 4.62,2.28,7.77,3.7,8.51,2.11 s -3.77-2.95-8.39-5.46 C 31.79,33.57,38.28,31.42,37.49,29.73Z" fill="#f287b6"/>
  <path d="M 35.4,225.85 c -.44-1.87-6,.33-12.09.94,2.23-3.58,7.21-10.89,5.36-11.76 S 25.11,218.5,21,225.36 c -1.39-4.41-3.32-12.26-4.68-10.72 s .46,4.26,2.22,9.86 c -3-2.22-6.39-4.88-7.36-4-1.16,1.09,2.53,3.75,6.45,6.54-5,.28-8.44.92-8.4,2.63,0,1.45,4.37,1.44,8.46,1-2.26,3.74-4.14,7.29-2.52,7.14 s 3.58-3.29,5.44-6.43 c 1.57,4.49,3.11,6.57,4,6.09 s 0-2.29-1.53-6.38 c 3.45,2.71,6.77,5.26,7.55,4.12 s -.94-3.25-4.64-5.86 C 31.8,228.36,35.82,227.61,35.4,225.85Z" fill="#f287b6"/>
  <path d="M 224.82,34.4 c -.36-1.53-4.89.27-9.89.77,1.82-2.93,5.9-8.91,4.39-9.62 S 216.39,28.38,213,34 c -1.14-3.61-2.72-10-3.83-8.78 s .37,3.49,1.82,8.07 c -2.45-1.82-5.23-4-6-3.24-.95.9,2.07,3.07,5.28,5.35-4.1.23-6.91.75-6.87,2.15,0,1.19,3.58,1.18,6.93.85-1.85,3.06-3.39,6-2.06,5.84 s 2.93-2.69,4.45-5.26 c 1.29,3.67,2.55,5.38,3.26,5 s 0-1.87-1.25-5.23 c 2.83,2.22,5.54,4.31,6.18,3.37 s -.77-2.66-3.8-4.8 C 221.87,36.45,225.16,35.84,224.82,34.4Z" fill="#f287b6"/>
  <path d="M 221.47,225.86 c -.44-1.86-6,.33-12,.94,2.22-3.57,7.18-10.85,5.35-11.72 s -3.56,3.46-7.7,10.3 c -1.38-4.39-3.31-12.22-4.66-10.69 s .45,4.25,2.21,9.83 c -3-2.21-6.37-4.86-7.34-3.95-1.15,1.09,2.53,3.73,6.42,6.51-5,.28-8.42.92-8.37,2.62,0,1.44,4.36,1.44,8.44,1-2.25,3.73-4.13,7.26-2.51,7.12 s 3.56-3.28,5.42-6.41 c 1.57,4.47,3.1,6.55,4,6.07 s 0-2.28-1.53-6.36 c 3.44,2.7,6.75,5.25,7.53,4.11 s -.94-3.24-4.62-5.84 C 217.88,228.36,221.88,227.62,221.47,225.86Z" fill="#f287b6"/>
<script type="text/ecmascript" xlink:href="param.min.js"/> 
</svg>
