<?xml version="1.0"?>
<svg xmlns="http://www.w3.org/2000/svg" xmlns:xlink="http://www.w3.org/1999/xlink" id="fixed-colours" viewBox="0 0 250 250">
  <title>heart</title>
  <path d="M 122.2,238 s -18.43-37.69-47.69-65.26 c -22.89-21.57-55.69-55.13-54-97.33 C 21.68,46.1,37.39,22,61.58,19.72 c 27-2.51,54,25.32,63.57,56.26 C 136.4,38.85,161.52,19.17,187,18 c 25.32-1.13,48.66,25.61,41.07,69.76-6.19,36-36.09,62.82-55.69,82.14 C 149.5,192.5,125.58,226.19,122.2,238Z"/>
  <path d="M 122.18,223.37 s -16.72-31.5-49.35-63.57 C 50.76,138.11,31.2,110.86,30.07,81.6 S 47,28.72,65,28.16 s 45.57,23.07,61.32,66.38 c 11.81-41.63,36.57-66.95,64.13-66.38 S 227,65.78,215.72,97.36 C 199.41,142.93,143.71,176.12,122.18,223.37Z" fill="#ec008c"/>
  <path d="M 52.58,113.11 S 33.45,82.17,44.7,56.29 s 33.19-18,24.75-9.56 S 44.14,73.17,52.58,113.11Z" fill="#fff" opacity="0.5"/>
  <path d="M 138.5,85 s 9.71-24.21,26.59-39.4,32.07-10.69,16.31.56 S 148,69,138.5,85Z" fill="#fff" opacity="0.5"/>
  <path d="M 33.44,153.07 s -7-2.54-10.08-6.88-2.26-8.58.65-7.41,5,4.73,5,4.73-1.35-5.7,1.88-8.82 S 37.46,139.48,33.44,153.07Z" fill="#f6adcd"/>
  <path d="M 23.65,212.7 s -8-1.44-12-5.51-3.77-8.73-.42-8,6.15,4.14,6.15,4.14-2.34-5.83.71-9.75 S 26,197.48,23.65,212.7Z" fill="#f6adcd"/>
  <path d="M 233.67,142.15 s -4.89-6.54-5-12.24,3.21-9,5.17-6.14 S 235.5,131,235.5,131 s 2.28-5.86,7.17-6.63 S 245.76,132.62,233.67,142.15Z" fill="#f6adcd"/>
  <path d="M 222.8,27.18 s -2.15-7.37-1.35-13.55,8-10.7,4,6.37 c 4-9.56,11.77-12.7,8.16-4.12 A 21.17,21.17,0,0,1,222.8,27.18Z" fill="#f6adcd"/>
  <path d="M 209.79,240.43 a 42.62,42.62,0,0,1-2.44-15.88 c .49-8.31,4.4-13.68,6.84-11 s .73,11.49.73,11.49,5.62-8.8,8.06-8.31 S 227.62,223.08,209.79,240.43Z" fill="#f6adcd"/>
  <path d="M 94.18,240.81 a 42.62,42.62,0,0,1-10.39-12.26 c -3.93-7.34-3.41-14,.08-13 S 90.5,225,90.5,225 s .19-10.44,2.53-11.3 S 100.31,216.69,94.18,240.81Z" fill="#f6adcd"/>
  <path d="M 183.24,194.17 s -4-17.63.69-19.08,3.16,9.72,3.16,9.72,6.46-5.48,9.45-5.24 S 197.22,186.45,183.24,194.17Z" fill="#f6adcd"/>
  <path d="M 26.13,35.37 S 15.41,33.75,10,28.69 s -6.43-14.06,8.29-3.57 c -2.49-9.76-.94-14.58,2.92-12.89 S 26.59,27.77,26.13,35.37Z" fill="#f6adcd"/>
  <path d="M 123.84,52.47 s -6.33-5.88-8.06-11.31,2.76-11.64,7.32-1.55 c 1.88-8.11,7.66-7.48,6.72-.5 S 123.84,52.47,123.84,52.47Z" fill="#f6adcd"/>
<script type="text/ecmascript" xlink:href="param.min.js"/> 
</svg>
