<?xml version="1.0"?>
<svg xmlns="http://www.w3.org/2000/svg" xmlns:xlink="http://www.w3.org/1999/xlink" id="fixed-colours" viewBox="0 0 250 250">
  <title>pint-of-beer</title>
  <path d="M 98,180.52 A 165.28,165.28,0,0,0,81.7,129.23 c -8.45-16.92-17.37-47.12-12-78.12 C 67.1,42,72.5,32.29,82.27,33.5 c -2.2-14.36,20-27.61,30-14.87 C 118,5.45,144.93,6.26,143.49,28.94 c 3.54-2.74,5.61-1,5.61-1 s 18-10.53,21.45,12.59 c 8,.49,17,9.72,9.44,20.43-.31,18.16-2.5,44.33-11.61,66.54 s -15.77,44.11-12.93,62.33,9.24,32,3.9,37.8-18.32,9.12-30.9,8.91 S 95,232.18,94.07,223.78,100.45,198,98,180.52Z"/>
  <path d="M 75.65,53 s -2.54-15.07,10-14.16 c 2.34-14.64,10.8-18.69,15.69-18.6 a 13,13,0,0,1,12.4,10.34 c 2.19-5.55-.21-8.39-.21-8.39 s 7.82-7.56,16.52-5.66,10.3,11,9.12,18.32 c 4.94-3.06,8.82-5.09,11.84,2.3,2.86-3.8,2.19-5.55,2.19-5.55 s 13-5.72,13.42,12.46 c 8.37,1.19,11.75,7.54,7.47,12.71 C 152.29,45.87,107.27,43,75.65,53Z" fill="#fff"/>
  <path d="M 75,57.66 s 45.85-14.95,98,3.49 a 111.19,111.19,0,0,1-.31,18.34 s -49.84-12.64-97.46-1.65 A 109,109,0,0,1,75,57.66Z" fill="#fff"/>
  <path d="M 75.5,82.3 s 2.39,24.15,9.17,36.49 S 101.21,153,102.7,168 s 1.56,31.82.46,34.95.25,5.94,6.16,7.79,28.22,4.67,36.68.62,4.38-11.11,3.75-15.31-3.06-25.91,4.3-47.8,17.51-43.73,17.17-64.7 C 145.85,75.46,91.36,74.19,75.5,82.3Z" fill="#faaf00"/>
  <path d="M 101.26,212 s -4.4,12.16,2.55,14.37,30.27,7.5,45.41.77 c 6.69-3,5.06-9.7,3.4-15.32-3.59,5.53-14.8,7.09-26,5.85 S 104.7,215.23,101.26,212Z" fill="#fff"/>
  <path d="M 97,94.2 c 3.24-.71,8.31,4.33,2,7.63 S 91.44,95.41,97,94.2Z" fill="#fff"/>
  <path d="M 124.63,116.15 c 4.22-.21,6.51,2.47,6.71,6.14 s -3.26,6.76-5.35,6.72-7.06-.64-7.79-4.32 S 120.7,116.35,124.63,116.15Z" fill="#fff"/>
  <path d="M 147.74,98.2 c 1.82.23,3.36,2.68,3.33,4.25 s -2.41,2.84-4.25,3.07-3.37-2.15-3.34-4 A 3.7,3.7,0,0,1,147.74,98.2Z" fill="#fff"/>
  <path d="M 114.54,155.29 a 2.89,2.89,0,1,1,2,5.28 c -1.84.23-3.9-1.9-3.89-2.69 S 112.95,156.32,114.54,155.29Z" fill="#fff"/>
  <path d="M 101,142.5 c -4.55-16.13-15-32-17.5-43.5 s 4-19,7.5-7,14.5,34,18,47,6,40,5,52.5,8.5,13,14.5,13.5,5.5,5-6,4-16-5.5-15.5-14 S 106.5,162,101,142.5Z" fill="#fff" opacity="0.5"/>
  <path d="M 159.91,80.75 c .6,20.26-2.09,33.25-7.24,45.25-6,14-13.33,50-10.67,65.33 A 157,157,0,0,1,144.49,212 a 13.41,13.41,0,0,0,1.51-.6 c 8.45-4.05,4.38-11.11,3.75-15.31 s -3.06-25.91,4.3-47.8,17.51-43.73,17.17-64.7 A 103.35,103.35,0,0,0,159.91,80.75Z" fill="#d6850a"/>
  <path d="M 171.13,13 c 3.29-3.29,8.67,2.71,4.87,6 S 166.25,17.92,171.13,13Z" fill="#fcd89a"/>
  <path d="M 233,34.78 c 7.92,1.58,8.28,8.28,7.42,11.13 s -5.71,6-10,4.85-6.56-6.85-6-10 S 230.13,34.21,233,34.78Z" fill="#fcd89a"/>
  <path d="M 182.5,126.5 c -1.2-4.21,3-6.92,5.54-4.71 s 2.49,4.43,1.11,5.81 S 183.61,130.38,182.5,126.5Z" fill="#fcd89a"/>
  <path d="M 50.5,227.5 c 3.2-2.8,6.94,0,8,2.45 s -2.25,4.7-5.11,4.9 S 47.23,230.36,50.5,227.5Z" fill="#fcd89a"/>
  <path d="M 173.34,168.12 c 2.62-.33,4.92,2.07,4.66,3.88 a 4.93,4.93,0,0,1-5.17,3.62 C 170.24,175.36,169.2,168.64,173.34,168.12Z" fill="#fcd89a"/>
  <path d="M 225.5,154.5 c 2.62-.33,4.92,2.07,4.66,3.88 A 4.93,4.93,0,0,1,225,162 C 222.4,161.74,221.36,155,225.5,154.5Z" fill="#fcd89a"/>
  <path d="M 206.66,202.09 c 8.44-.91,15.69,6.92,14.76,12.73 s -8.53,12.34-16.83,11.37 S 193.32,203.53,206.66,202.09Z" fill="#fcd89a"/>
  <path d="M 14.68,116.43 c 7.39,1.48,7.73,7.73,6.93,10.39 s -5.33,5.6-9.33,4.53 S 6.15,125,6.68,122,12,115.89,14.68,116.43Z" fill="#fcd89a"/>
  <path d="M 64.1,150.31 c 0-6.92,10.38-6.92,10.87.49 S 64.1,161.18,64.1,150.31Z" fill="#fcd89a"/>
  <path d="M 45.37,72.38 c 3.31-2.89,7.18,0,8.23,2.53 S 51.28,79.77,48.33,80,42,75.34,45.37,72.38Z" fill="#fcd89a"/>
  <path d="M 206.21,81.06 c 3.31-2.89,7.18,0,8.23,2.53 s -2.32,4.86-5.28,5.07 S 202.83,84,206.21,81.06Z" fill="#fcd89a"/>
  <path d="M 13.87,20 c 4.45-7.42,17.31-8.65,23.36-.87 S 39,39.88,28.58,41.61,6.08,33,13.87,20Z" fill="#fcd89a"/>
  <path d="M 27.5,189 c 2.9-.36,5.44,2.29,5.15,4.29 s -2.86,4.29-5.72,4 S 22.92,189.57,27.5,189Z" fill="#fcd89a"/>
  <path d="M 91.5,2.5 c 2.9-.36,5.44,2.29,5.15,4.29 s -2.86,4.29-5.72,4 S 86.92,3.07,91.5,2.5Z" fill="#fcd89a"/>
  <path d="M 138.3,176.14 c 3.09-1.1,6,.63,6.51,2.21 s -1.11,3.91-3.49,4.92-4.72-.08-5.21-1.66 S 136.19,176.89,138.3,176.14Z" fill="#fff"/>
<script type="text/ecmascript" xlink:href="param.min.js"/> 
</svg>
