<?xml version="1.0"?>
<svg xmlns="http://www.w3.org/2000/svg" xmlns:xlink="http://www.w3.org/1999/xlink" viewBox="0 0 250 250">
  <defs>
    <linearGradient id="linear-gradient" x1="125" y1="20.62" x2="125" y2="154.77" gradientUnits="userSpaceOnUse">
      <stop offset="0" stop-color="#ffacb2"/>
      <stop offset="0.31" stop-color="#ffaab6"/>
      <stop offset="0.58" stop-color="#ffa3c0"/>
      <stop offset="0.84" stop-color="#ff98d3"/>
      <stop offset="1" stop-color="#ff8ee2"/>
    </linearGradient>
    <linearGradient id="linear-gradient-2" x1="120.92" y1="172.33" x2="120.92" y2="219.98" gradientUnits="userSpaceOnUse">
      <stop offset="0" stop-color="#fffff2"/>
      <stop offset="0.55" stop-color="#fbfbf2"/>
      <stop offset="1" stop-color="#f2f2f2"/>
    </linearGradient>
    <linearGradient id="linear-gradient-3" x1="120.92" y1="20.62" x2="120.92" y2="154.77" xlink:href="#linear-gradient-2"/>
  </defs>
  <title>knees-in-bubble-bath</title>
  <g id="skin-tone">
    <path d="M 54.3,192.36 S 68,112.86,73.12,88.89 s 9.41-35.8,19.72-36.11,15.17,3,17.29,15.78,6.22,112,6.22,112-6.52,3.94-8,10 c -10-2.12-24.88-.61-30,12.29 C 71,194.79,60.07,191.15,54.3,192.36Z" fill="param(skin_tone)"/>
    <path d="M 156.25,53.7 c 8.49-.26,16.38,4.25,20.33,20.63 s 20.33,117.12,20.33,117.12 a 21.88,21.88,0,0,0-12.59,11.07 c -5.92-8-13.81-10.47-21.54-7-4.1-11.07-8.34-16.54-23.67-15.47 C 138,148.36,138,98.91,140.47,80.4 S 146.24,54,156.25,53.7Z" fill="param(skin_tone)"/>
  </g>
  <g id="fixed-colours">
    <path d="M 125,12.33 A 112.67,112.67,0,1,0,237.67,125,112.67,112.67,0,0,0,125,12.33Z M 108.31,190.54 c -10-2.12-24.88-.61-30,12.29-7.28-8-18.21-11.68-24-10.47,0,0,13.65-79.5,18.81-103.47 s 9.41-35.8,19.72-36.11,15.17,3,17.29,15.78,6.22,112,6.22,112 S 109.83,184.47,108.31,190.54Z m 76,12 c -5.92-8-13.81-10.47-21.54-7-4.1-11.07-8.34-16.54-23.67-15.47 C 138,148.36,138,98.91,140.47,80.4 s 5.76-26.4,15.78-26.7 c 8.49-.26,16.38,4.25,20.33,20.63 s 20.33,117.12,20.33,117.12 A 21.88,21.88,0,0,0,184.32,202.52Z"/>
    <path d="M 125,18.5 A 106.5,106.5,0,1,0,231.5,125,106.5,106.5,0,0,0,125,18.5Z m -16.69,172 c -10-2.12-24.88-.61-30,12.29-7.28-8-18.21-11.68-24-10.47,0,0,13.65-79.5,18.81-103.47 s 9.41-35.8,19.72-36.11,15.17,3,17.29,15.78,6.22,112,6.22,112 S 109.83,184.47,108.31,190.54Z m 76,12 c -5.92-8-13.81-10.47-21.54-7-4.1-11.07-8.34-16.54-23.67-15.47 C 138,148.36,138,98.91,140.47,80.4 s 5.76-26.4,15.78-26.7 c 8.49-.26,16.38,4.25,20.33,20.63 s 20.33,117.12,20.33,117.12 A 21.88,21.88,0,0,0,184.32,202.52Z" fill="url(#linear-gradient)"/>
    <path d="M 44.84,137.58 c -2.65,1.77-9,1.64-8.75-5.74 s 6.84-7.93,9.84-6 S 49.76,134.3,44.84,137.58Z" fill="#fff" opacity="0.6"/>
    <path d="M 53.2,92 c -9.49-.27-16.26-7.59-13.55-17.35 s 14.63-12.2,19.78-9.49,9.21,10.57,6.23,18.7 S 53.2,92,53.2,92Z" fill="#fff" opacity="0.6"/>
    <path d="M 128.65,45.27 c -5.68-1.26-12-5.26-9.08-12 s 9.56-9.08,14.34-7.17,7.65,5.74,6.69,12.43 S 132.95,46.23,128.65,45.27Z" fill="#fff" opacity="0.6"/>
    <path d="M 203.64,106.09 a 9.39,9.39,0,0,1,12.83,3.52 c 2.26,4,.5,12.08-3.52,13.59 s -10.32,1-12.83-4 S 199.61,108.36,203.64,106.09Z" fill="#fff" opacity="0.6"/>
    <path d="M 125,231.5 A 106.38,106.38,0,0,0,213,185 c -7.17-6.54-17.92-7.19-17.92-7.19 l 1.82,13.65 a 26.61,26.61,0,0,0-13.2,11.38 c -4.1-8.19-11.38-9.1-20.94-7.28-5.46-18.21-23.67-15.47-23.67-15.47 a 125.81,125.81,0,0,0-.46-26.85 c -5.46.91-13.65,9.1-13.65,9.1 l -9.56-2.73.91,20.94 s -3.18,2-9.1,10.92 c -12.74-5-21.39-.46-29.58,10.47 a 33.58,33.58,0,0,0-22.3-10 l 5.46-35.5 S 48.54,160,44.9,167.33 a 20.2,20.2,0,0,0-16.07,3.48 A 106.51,106.51,0,0,0,125,231.5Z" fill="url(#linear-gradient-2)"/>
    <path d="M 125,231.5 A 106.38,106.38,0,0,0,213,185 c -7.17-6.54-17.92-7.19-17.92-7.19 l 1.82,13.65 a 26.61,26.61,0,0,0-13.2,11.38 c -4.1-8.19-11.38-9.1-20.94-7.28-5.46-18.21-23.67-15.47-23.67-15.47 a 125.81,125.81,0,0,0-.46-26.85 c -5.46.91-13.65,9.1-13.65,9.1 l -9.56-2.73.91,20.94 s -3.18,2-9.1,10.92 c -12.74-5-21.39-.46-29.58,10.47 a 33.58,33.58,0,0,0-22.3-10 l 5.46-35.5 S 48.54,160,44.9,167.33 a 20.2,20.2,0,0,0-16.07,3.48 A 106.51,106.51,0,0,0,125,231.5Z" fill="url(#linear-gradient-3)"/>
    <path d="M 40.2,197 s 22.63-18.34,37.46,2.73 c 6.63-13.27,22.24-14,28.88-11.32,5.07-10.54,17.17-14,23.8-9.76-13.66-.78-20.68,10.54-20.68,15.61-10.15-5.07-24.58-.78-31.22,11.71 C 71.81,197.38,59.71,190.35,40.2,197Z"/>
    <path d="M 132.69,181.38 s 25-4.29,29.27,16.39 c 9.37-3.51,16-1.17,21.85,8.19,5.46-8.59,13.27-15.22,21.46-15.22-9-3.9-18.34,1.56-21.07,8.19-6.63-8.19-13.66-9-20.29-5.85 C 160.39,180.21,148.3,174.35,132.69,181.38Z"/>
    <path d="M 51.52,192.7 s 6.24-37.85,10.93-62.44 S 75.32,61.19,82,54.16 s 23.8-5.85,28.49,5.07,4.29,35.51,5.07,51.12,4.29,68.29,4.29,68.29 l -6.63,3.9 s -2-50.34-2.73-72.19-.78-48-7.8-51.9-11.71-3.9-16.78.78 S 73,102.94,69.86,120.5 s -11.71,71.8-11.71,71.8Z"/>
    <path d="M 141.27,179.82 s -.39-63.61.78-85.85,3.9-36.29,11.71-37.46,13.66,0,18,11.71 S 194,192.3,194,192.3 l 5.85-2 s -8.59-50.73-12.88-75.7-7-51.12-16.78-58.92-23.41-5.85-27.32,1.56-7,28.88-7.41,58.92,0,64.39,0,64.39Z"/>
    <path d="M 115.52,156.4 s 12.88,2.73,16.39,12.49 a 27.64,27.64,0,0,0-16.78-6.63Z"/>
    <path d="M 137.37,150.94 s -10.54,2.73-15.22,9.76 a 31.56,31.56,0,0,1,5.46,3.51 s 5.07-8.19,10.54-9 C 138.93,153.28,137.37,150.94,137.37,150.94Z"/>
    <path d="M 67.38,70.34 c -4-7.23-13.79-12.37-22-6.87 C 41,66.36,32.85,78.66,38.11,87,45,97.8,57.63,95.63,62.68,92 S 71.36,77.57,67.38,70.34Z m -2.89,8.31 c -1.08,7.95-13.37,17-22,5.78-6.34-8.19,4.7-19.87,11.92-18.79 S 65.58,70.7,64.49,78.65Z"/>
    <path d="M 143.63,31.89 c -1.27-5.1-11.37-11.53-19.12-7.65-5.1,2.55-8.29,12.11-7.65,15.93 s 8.29,9.56,17.21,8.92 S 144.9,37,143.63,31.89Z m -9.88,11.47 c -4.14,1-10.84-.64-11.79-4.78 s .32-7.65,4.14-10.52 c 4.68-3.51,10.84,1.59,12.43,4.14 S 137.89,42.4,133.75,43.36Z"/>
    <path d="M 220.33,111.13 A 12,12,0,0,0,202,104.42 c -3.52,2.52-6.88,7.21-5.2,13.25 s 7.21,10.9,13.76,9.9 S 222.68,119.35,220.33,111.13Z m -10.4,11.24 c -5.87,1.34-8.72-3.19-9.9-6-1-2.33,1.17-6.38,3.36-8.22,4.17-3.53,10.07-.5,11.74,2.18 S 215.8,121,209.93,122.37Z"/>
    <path d="M 51.13,131 c -1.09-4.92-5.16-11-10.94-8.2-11.49,5.47-5.47,18.32.55,18.6 S 52.22,135.94,51.13,131Z m -6.29,4.38 c -6.29,5.74-10.94-4.92-4.38-8.75 C 43.85,124.67,51.13,129.65,44.84,135.39Z"/>
    <path d="M 74.94,119.24 C 78.82,93.58,84.34,67,88,67 s -2.73,35.5-5.46,53.1-7,58.56-12.14,58.26 S 71.9,139.26,74.94,119.24Z" fill="#fff" opacity="0.5"/>
    <path d="M 145.63,122.27 c .46-18.5.3-51.43,4.25-51.28,2.73.1,3.34,76.61,3.34,86.32 s -3.94,19.27-6.07,7.43 S 145.33,134.41,145.63,122.27Z" fill="#fff" opacity="0.5"/>
    <path d="M 58.08,82.53 s 7-5.69,3-11.65-3.52,1.63-3.52,1.63-3.79-3.25-6-1.36 S 58.89,77.66,58.08,82.53Z" fill="#fff"/>
    <path d="M 43.88,133.07 s .55-2.6-1.23-3.42.68-1.5,1.64-.55 c -.27-1.23,1.09-1.5,1.64.55 S 43.88,133.07,43.88,133.07Z" fill="#fff"/>
    <path d="M 136.61,37.78 s -.16-4.62-4.46-5.26-1.59-3.19,1.59-1.59 C 132.79,28.22,139.32,30.45,136.61,37.78Z" fill="#fff"/>
    <path d="M 214,116.83 s 1.76-3.69-.59-6.54 c -1.62-2-3.36-2.43-2.1.42-1.09-1-3.94-2.35-3.52-.67 S 213.54,113.06,214,116.83Z" fill="#fff"/>
    <circle cx="125" cy="125" r="106.5" fill="none"/>
    <path d="M 60.1,158.75 s -.39-2,1.17-5.07 c -3.9-.39-11.71,2-18.34,11.32-6.7-1.12-13,2-17.85,5.62.93,2,2,4.19,3,6.28,13.75-11.89,24.6-5.27,24.6-5.27 a 8,8,0,0,0-4.29-4.29 A 15.81,15.81,0,0,1,60.1,158.75Z"/>
    <path d="M 213.1,188.92 c 2.77-3.86,5.27-7.77,7.37-11.24 a 14.47,14.47,0,0,0-6.22,5.26 c -5.46-9-19.12-9.37-19.12-9.37 L 194,180.21 S 206.58,180.84,213.1,188.92Z"/>
  </g>
<script type="text/ecmascript" xlink:href="param.min.js"/> 
</svg>
