<?xml version="1.0"?>
<svg xmlns="http://www.w3.org/2000/svg" xmlns:xlink="http://www.w3.org/1999/xlink" viewBox="0 0 250 250">
  <title>heart-hands</title>
  <g id="skin-tone">
    <path d="M 0,113.67 S 17.33,94.33,27.33,82.33 s 17-16,29.67-19.83 S 88,48.57,94.5,52.12 s 7,7.88,16,17.13,10.83,17.08,11.83,23.42 S 123.48,112.5,119,113 s -11.33-9-12-16.33 c -7.33-6.67-14.33-14.33-17.67-21-7,3-21,17-28.33,19 C 56.67,115,55.67,132.33,68,141 s 29.33,10.33,43.67,22,8.67,22.18,7,23.33 c -15.67-3.67-45-13.33-58.33-14.67 s -20.67.33-27.67,3.67 S 17,183.67,9,180 s -9-7.36-9-7.36Z" fill="param(skin_tone)"/>
    <path d="M 250,115.33 S 236,104.67,226.67,94 s -13.09-18.08-30.54-28.37-26.79-17-33.12-17-10.33,6.33-16.67,12-18.67,18-18.67,22-1.67,23-1.67,25.67,3,6.33,6,4.67,8.33-8.67,8.33-18.67 a 255.11,255.11,0,0,0,21-19.67 s 13,18,24.67,27.67 c -2,26.33-9,39.67-14,43 s -28,12.05-38.67,22.36-5.67,18.31-2.67,19,15-10.67,36-11.33,36,3,43.33,4.33,15-.33,22.33-6 S 250,163.21,250,163.21Z" fill="param(skin_tone)"/>
  </g>
  <g id="fixed-colours">
    <path d="M 122.67,95.17 s -7.83,1-7.83,14.5 c 2.33,2.83,7.17,3.83,7.67-1.17 A 124.84,124.84,0,0,0,122.67,95.17Z" fill="#fff"/>
    <path d="M 127,95 s -1.5,10-.83,14.33,6,3.67,7.33,2.17 C 135,105.17,133.17,97,127,95Z" fill="#fff"/>
    <path d="M 101.33,181 s 2-5.67,6.67-6.5,11.17,3.5,11.83,10.33 C 116.17,185,101.33,181,101.33,181Z" fill="#fff"/>
    <path d="M 131.5,186 s 0-6.33,3-10.5,5.33-4.17,8-3.33 a 6.93,6.93,0,0,1,4.5,6 A 167.86,167.86,0,0,0,131.5,186Z" fill="#fff"/>
    <path d="M 77,206.91 s -7.93-2.72-11.33-7.48-2.45-9.45.83-8.2,5.59,5.17,5.59,5.17-1.46-6.29,2.25-9.78 S 81.75,191.83,77,206.91Z" fill="#ec008c"/>
    <path d="M 37.71,238.09 s -8-1.44-12-5.51-3.77-8.73-.42-8,6.15,4.14,6.15,4.14-2.34-5.83.71-9.75 S 40,222.87,37.71,238.09Z" fill="#ec008c"/>
    <path d="M 233.18,74.51 s -4.89-6.54-5-12.24,3.21-9,5.17-6.14 S 235,63.36,235,63.36 s 2.28-5.86,7.17-6.63 S 245.27,65,233.18,74.51Z" fill="#ec008c"/>
    <path d="M 189,36.53 S 185.68,25,186.94,15.3 s 12.49-16.76,6.34,10 c 6.27-15,18.43-19.89,12.77-6.45 A 33.15,33.15,0,0,1,189,36.53Z" fill="#ec008c"/>
    <path d="M 225.85,215.32 a 42.62,42.62,0,0,1-2.44-15.88 c .49-8.31,4.4-13.68,6.84-11 s .73,11.49.73,11.49,5.62-8.8,8.06-8.31 S 243.68,198,225.85,215.32Z" fill="#ec008c"/>
    <path d="M 153.08,237.4 s -7-30.81,1.2-33.35,5.53,17,5.53,17,11.29-9.58,16.51-9.15 S 177.5,223.9,153.08,237.4Z" fill="#ec008c"/>
    <path d="M 39.62,48.76 s -14.52-2.19-21.78-9-8.7-19,11.22-4.83 c -3.37-13.22-1.28-19.74,4-17.45 S 40.25,38.47,39.62,48.76Z" fill="#ec008c"/>
    <path d="M 124.53,56 s -9.56-6.29-13-13,1.71-16.15,7.83-3.57 c 4.33-8.67,9.73-11.52,10-2.2 S 124.53,56,124.53,56Z" fill="#ec008c"/>
  </g>
  <g id="outline">
    <path d="M 126.81,96 s 9.19,5,5.19,15.33 c 3.5-1.5,3.67-2,3.67-2 s -1-14-8.35-15.33 C 124.81,95.5,126.81,96,126.81,96Z"/>
    <path d="M 157.5,53.5 C 161,50.5,165,51,172,55 s 38,22.5,46.5,34 c 7.42,10,25.12,26.17,31.5,31.11v-8.82 c -5-4.36-18.29-16.07-23.5-23.29-6.5-9-10.5-12-21-19 s -26.5-16-35-20.5-14-1-19.5,4.5-25.69,24.5-26.19,30.5 c -.19,2.24-.44,5.66-.66,9.27-.14-4.2-1.06-9.75-4.64-14.27-6.18-7.83-13-20.5-18-26.5 s -10.5-5.5-19-2.5-31,12-38,14 S 30.5,73,24.5,81 C 19.08,88.23,3,105.27,0,108.47v10.45 C 4.37,113.84,36.27,76.79,40,74 c 4-3,25.5-12,31.5-13.5 S 93,50.5,98,57 s 18,22,21,28 a 30.72,30.72,0,0,1,2.19,9.29 c -5.08,1.45-6.8,8-7.39,12.22-2.47-3.43-4.54-8.35-4.82-12.17-6.55-1.75-17.66-17.45-20.38-21.42 A 50.89,50.89,0,0,1,87,62.5 l -.88,11 C 81.38,77.3,68.59,87.2,59,92 c -1.5,4.5-4,20-4,29.5 a 31.28,31.28,0,0,0,5.25,17.39,57.34,57.34,0,0,1-10.58-4.55 S 56.33,141.67,69,146.5 c 9.5,4.5,32,10.49,42.5,20,5.28,4.77,7,9.17,7.44,12.36 a 14.1,14.1,0,0,0-8.94-5.36 c -5.42-.72-8.22,3.5-9.36,5.91 C 86,175.68,66.36,170.77,57.5,169 c -15-3-36,9.29-42,9.29-4.88,0-12.74-3.92-15.5-5.65V179 c 4.14,3.8,12,6.92,23.5,4,12-3,13.5-10.5,32.5-9.5 s 61,14,61,14,3.83,4.3,6.8-4.88 a 9.65,9.65,0,0,0,2.53,4.39 c 5.5,5.5,9.67-2.5,26.67-6 s 27.67-4.48,43.67-1,28.83,4.69,36.83-3.31 a 25.21,25.21,0,0,1,16.5-7.32v-6.18 c -3-.43-8-.21-13.5,3.79-9,6.5-15,12-27.5,9.5 s -35-6.5-52-2.5 a 91.93,91.93,0,0,0-9,2.6 c 1.11-3.44-6.71-7.76-11.68-4.6-4.12,2.62-5.44,9.18-5.83,12.3-1.08-1.8-3-7,4.17-15,9-10,36.83-19.83,40.83-22.33,8.5-4,13.83-15,13.83-15-2.14,3.93-5.63,6.42-9.17,8.3,4.52-8.9,9.62-24.87,7.84-38.8-7.6-6.76-22-24.21-26.26-29.47 a 20.48,20.48,0,0,0-1.41-10 c .55,2.2-.06,6.36-.72,9.67 C 156.53,75.68,146,88.94,138,94 c -.33,14-5,18-9,17.33-2.47-.41-.69-22.83,1.81-28.83 S 154,56.5,157.5,53.5Z M 140.69,172.93 c 4.34.33,5.25,2.78,5.37,4.37 a 69.68,69.68,0,0,0-13.42,6.56 C 133.39,180.37,135.63,172.54,140.69,172.93Z M 121.47,97.25 c .42,6.26,0,12.4-1.45,13.25-1.12.42-2.44-.11-3.76-1.25 C 116,100.34,119.63,97.91,121.47,97.25Z m -18.15,82.83 a 6.49,6.49,0,0,1,6.68-4.59 c 4.81,0,8.52,4.66,8.5,8.5 h 0 S 112.11,182.32,103.32,180.08Z m 27-65.08 c 7.35-1,12.69-12.83,11.69-20.33 C 152,87.17,161,79,161,79 s 15,18.5,22,25 c -2.5,21.5-5,35.5-12,38.5 S 141.33,156,132.33,164 c -4.56,4.05-7.44,8.49-8.47,12.6 C 121.15,167.11,107,155.65,97,151.49,85,146.49,70.5,141,64,133 s -1-36-1-36 S 81,86,88,78 c 6.33,11.33,17.33,19.67,17.33,19.67 a 27.27,27.27,0,0,0,9.18,15.83 c 5.06,4.43,7.88-.29,9.5-3 a 2.37,2.37,0,0,0,.1-.22 C 124.61,113.3,125.65,115.63,130.31,115Z"/>
  </g>
<script type="text/ecmascript" xlink:href="param.min.js"/> 
</svg>
