<?xml version="1.0"?>
<svg xmlns="http://www.w3.org/2000/svg" xmlns:xlink="http://www.w3.org/1999/xlink" viewBox="0 0 250 250">
  <defs>
    <clipPath id="clip-path">
      <path d="M 135,46.67 s -31.67-3-62.33,5.67 C 71.33,77.33,80,137,83.67,150 c 6-.33,16.33-2,16.33-2 s 2-6.33,18.67-10,16.74-2.94,16.54-6.47 S 137,61,135,46.67Z" fill="none"/>
    </clipPath>
  </defs>
  <title>selfie-arm</title>
  <g id="skin-tone">
    <path d="M 243.9,250 c -6.33-11.13-46-80.89-49.65-88.25-4-8-6.5-26.5-7-35 S 185.25,101,179,94.5 s -29-21-29-21-1.5,28.5-2.5,36.75-2.25,16.25-8.5,21.25-20.33,6.5-30.75,9.75 S 99,152.75,100,155.75 s 4.75,2.75,12.25,1 S 126,156.5,130.5,160 s 14.25,5,20.5,4.75,10,6.58,16.33,23.58 c 5.55,14.9,16.73,52.57,19.41,61.67Z" fill="param(skin_tone)"/>
    <path d="M 79.75,132 a 57,57,0,0,0,26.5,10.5 c 6-4.25,24.75-5.25,28.5-9,1.5-20.75,2.5-26.92.25-86.83-15.25-2.42-56.92,1.5-62.33,5.67 C 70,69.5,78.25,123,78.25,123Z" fill="param(skin_tone)"/>
    <path d="M 101.58,158.5 s -3.17,5.17.25,8.5,8.5,2.25,10.33-.08,1-7.67-1-9.17 C 108.42,157.5,103.5,159.67,101.58,158.5Z" fill="param(skin_tone)"/>
  </g>
  <g id="fixed-colours">
    <path d="M 100,148.83,83.5,151 s -6.33-36.5-8.33-48.67-2-47.67-1.83-50.67,43-6.83,61.67-5 c 1,17.83,1.67,72.17-.25,86.83,6.75-2.83,10.08-6.83,11.58-14.33 s 3.5-48.17,4-60,2-25-5.83-29.83-25.33-5.5-44.33-4 S 65.67,28.67,62,35.17 s -5.33,26.5-.17,64.17,11.5,77.83,17,80.5,18.67,1.83,29.5,1.17,29.67-3.17,31.17-7,.33-10.33.33-10.33 a 41.18,41.18,0,0,1-10.33-4.17 c -5.17-3-9.17-4.33-15-3.67 a 46.76,46.76,0,0,0-11.33,3,6.44,6.44,0,0,1-3.83-4Z" fill="#fcacc3"/>
    <path d="M 113.17,155.5 s -1.17-4.33-4-5.5-8.17,2.17-9.33,3.33 c 1.33,3,4.83,4.5,4.83,4.5Z" fill="#fff"/>
    <path d="M 103.79,33.88 a 4.1,4.1,0,0,1,3.5,4 c 0,1.88-3,3-4.12,2.75 a 3.58,3.58,0,0,1-2.62-3.5 C 100.67,35.25,102.17,33.63,103.79,33.88Z" fill="#636363"/>
    <path d="M 80.38,132.75 a 80,80,0,0,0,25.88,9.75 c -5.12,2.5-6.75,6-6.75,6 l -16,2.5Z" fill="#d4fcff"/>
    <g clip-path="url(#clip-path)">
      <circle cx="89.91" cy="120.26" r="9.41" transform="translate(-13.79 11.67) rotate(-6.9)" fill="#e8b0af"/>
      <circle cx="146.7" cy="113.39" r="9.41" transform="translate(-12.55 18.43) rotate(-6.9)" fill="#e8b0af"/>
      <path d="M 168.73,55.11 A 39.25,39.25,0,0,0,148,51.4 c -11.59,1.2-20.68,9.8-22.34,12.19 s -1,4.37,0,5.34,3.16.77,4.87-.59 S 136,61.68,141,58.79,157.75,52.2,168.73,55.11Z" opacity="0.5"/>
      <path d="M 54.44,65.39 A 39.25,39.25,0,0,1,70.05,51.31 c 10.47-5.1,22.73-2.6,25.41-1.45 s 3.12,3.21,2.85,4.52 S 96,56.7,93.87,56.45 s -8.18-2.76-14-2.58 S 62.23,57.12,54.44,65.39Z" opacity="0.5"/>
      <path d="M 52.62,97.85 s 1.66-9.38,6.63-16.1 S 70.45,72.54,76,72.2 s 11.81,1.9,14.44,3.31,7.68,5.72,8.65,7.2 C 101,85,103.23,93,95.73,99 a 34.14,34.14,0,0,1-17.87,7.35 C 69.81,107.36,57.14,101.63,52.62,97.85Z" fill="#fff"/>
      <path d="M 109.89,123.91 s 3.34-4.23,8.22-5 a 15.83,15.83,0,0,1,9,1.83,47,47,0,0,1-3,5.29,8.91,8.91,0,0,1-6.74,3 C 114.18,128.87,112.24,126.88,109.89,123.91Z" fill="#c78383"/>
      <path d="M 105.49,119.4 a 43.05,43.05,0,0,0,4.69-2,5.6,5.6,0,0,1,4.69-.74 c 2,.39,3.34.79,5.85-1 s 3.3-1.88,5-1.74 a 11.19,11.19,0,0,0,6.53-1 c -1.46,1.56-4.62,6.12-5,7.37-3-1-5.65-2.2-9.16-1.44 s -8.22,5-8.22,5 A 16,16,0,0,0,105.49,119.4Z" fill="#7d4040"/>
      <path d="M 103.79,119.44 a 3.89,3.89,0,0,1,3.39,1.29 c 1.8,1.69,3.15,4,4.79,5.76 a 7.22,7.22,0,0,0,7.19,2.31,8.51,8.51,0,0,0,6.06-4.4 c .75-1.6,2.88-5.35,4.22-7.62 a 35.46,35.46,0,0,1,4.12-5.32,47.56,47.56,0,0,0-2.92,7 c -.64,2.24-2.56,8.19-4.48,10.72 a 9,9,0,0,1-7.17,4.17,9.77,9.77,0,0,1-8-3,23,23,0,0,1-3.53-5.67 C 106.7,123.14,105.46,120.24,103.79,119.44Z" fill="#e8b0af"/>
      <path d="M 104.68,119.15 a 3.59,3.59,0,0,0,2.33-.28,45.7,45.7,0,0,1,5-2.22 c 1.27-.32,2.48,0,3.91.15 a 6,6,0,0,0,5-1.27,6,6,0,0,1,5.27-1.6 c 2.1.17,4.49-.07,5.74-1 a 10,10,0,0,0,2.25-2.51,9.82,9.82,0,0,1-3.57.35 c -1.76-.21-5.35-1.2-6.87-1.33 a 6.17,6.17,0,0,0-5.93,3.39 c -1.76-1.83-3.81-3.32-5.7-2 S 108.3,117.6,104.68,119.15Z" fill="#e8b0af"/>
      <path d="M 116.29,113.68 c .07,1-1,.07-2.32.15 s -2.26,1.18-2.32.14 a 2.38,2.38,0,0,1,4.65-.29Z" fill="#fff" opacity="0.5"/>
      <path d="M 124.82,111.67 c .21.78-1,.27-2.19.6 s -2,1.38-2.2.6.6-1.69,1.81-2 S 124.6,110.88,124.82,111.67Z" fill="#fff" opacity="0.5"/>
      <path d="M 116.6,102.76 s 3.68-6.73,11.13-2.37 c 0,0-5.3-6.67-11.45-.28-7.5-4.74-11.06,3-11.06,3 C 111.43,97.1,116.6,102.76,116.6,102.76Z"/>
      <path d="M 212.26,96.78 s -19.66,2.67-35.61-7.07 c .07-.48.16-1,.22-1.45,6.15,2.6,15,4.28,26.95,1.81,0,0-15.67,1.07-26.67-4.38,0-.41.06-.83.09-1.24,7.92,3.07,21.54,4.51,41.1-6.59,0,0-24.55,11.14-41,3.23,0-.24,0-.48,0-.72,6.79,2.08,18.65,2.64,34.8-8.32,0,0-22,10.53-34.85,5.46v-.28 c 6.64,1.61,20.19,1.86,36.08-14.93,0,0-17.16,16.76-36.31,11.72,0-.51-.08-1-.15-1.53 A 63.49,63.49,0,0,0,65.74,38.72 c 0-.35,0-.54,0-.54,0,.21-.06.41-.09.62 a 64,64,0,0,0-7.83,11.47,53.33,53.33,0,0,1-3.06-21.41 A 50.5,50.5,0,0,0,56.66,52.6 c -.76,1.56-1.45,3.16-2.08,4.78 a 55,55,0,0,1-6.45-13.21,51,51,0,0,0,5.74,15.16 c -.49,1.4-.92,2.83-1.31,4.28 C 38.68,49.24,36.87,28.1,36.87,28.1,37,47.3,44.77,59.51,51.8,66.67 c -.12.56-.25,1.12-.35,1.69 C 40,60.4,33.28,48,33.28,48 A 44.25,44.25,0,0,0,51,71q-.12.81-.22,1.63 C 27.78,62.95,21.1,35.2,21.1,35.2,25.21,59.7,40.69,71,50.5,75.77 c 0,.07,0,.13,0,.2 C 35.17,72.6,23.37,59.54,23.37,59.54 a 45.51,45.51,0,0,0,27,18.94 c 0,.12,0,.24,0,.36 C 23.4,76.55,8.24,51,8.24,51 c 11.91,24.17,32,29.73,42.15,31,0,.22,0,.43,0,.65-16.92,1-33-9.83-33-9.83 A 48.72,48.72,0,0,0,50.6,85.56v.07 C 20.55,91.38.53,67.63.53,67.63 c 17.46,21.72,38.37,22.88,48,22-15,4.41-34.39-3.33-34.39-3.33,11.34,6,20.57,7.53,27.19,7.44-21.17,4.85-42.4-5.6-42.4-5.6 C 20.61,100.21,37.34,98.51,46,96,32.56,102.16,13.63,100,13.63,100 c 17.8,3.82,29.82.1,35.27-2.36-19.34,12.83-45.76,6.95-45.76,6.95,22,6.42,38,.32,45.28-3.63 a 7.94,7.94,0,0,0-1.37,2.58 c 1.68-2.37,4.82-3.53,6.34-4,.19.59.39,1.17.59,1.75 a 8.48,8.48,0,0,0-2.07,3.89 A 9,9,0,0,1,54.59,103 a 63.49,63.49,0,0,0,111.1,13.86,51.08,51.08,0,0,0,4.9,2.42,40.27,40.27,0,0,1-4.51-3,63.94,63.94,0,0,0,3.66-6,49.49,49.49,0,0,0,14.45,6.28,56.57,56.57,0,0,1-13.56-8q.7-1.39,1.33-2.81 a 47.41,47.41,0,0,0,10.77,5,61.89,61.89,0,0,1-10.15-6.51 c .28-.68.55-1.36.81-2.05 a 42,42,0,0,0,25.32,6.95 s -13.21-1.27-24.59-9 c .38-1.15.73-2.31,1-3.48 a 51.39,51.39,0,0,0,18.49,5.46,63.62,63.62,0,0,1-17.92-7.61 c .16-.68.29-1.37.43-2.06 A 48.62,48.62,0,0,0,212.26,96.78Z M 174.7,88.44 a 38.63,38.63,0,0,1-6-5.14,31.41,31.41,0,0,0,6.17,4 C 174.78,87.7,174.75,88.07,174.7,88.44Z m .4-3.86 a 19.54,19.54,0,0,1-4.7-3.93,26,26,0,0,0,4.76,2.91 C 175.13,83.9,175.12,84.24,175.09,84.58Z m .15-4.65q-.7-.43-1.37-.92 c .42.2.87.41,1.37.61 C 175.25,79.73,175.25,79.83,175.25,79.93Z m -110-37.21 c -1.16,15.59,5.07,24.56,7.3,27.23 l -.08,0 A 41.06,41.06,0,0,1,58.88,52.89,61.82,61.82,0,0,1,65.24,42.72Z m -9.9,55.91q-.62-2-1.11-4 A 37.77,37.77,0,0,1,58.87,84 a 18.21,18.21,0,0,0,7,19.58 A 36.53,36.53,0,0,1,55.34,98.63Z m 2.35-43.2 a 50.26,50.26,0,0,0,9.2,14.94 A 47.44,47.44,0,0,1,56.06,59.52Q56.81,57.44,57.69,55.43Z m 5.74,16.33 a 41,41,0,0,1-9.13-6.43q.45-1.81,1-3.58 A 56,56,0,0,0,63.43,71.76Z m -9.82-3.33 a 47.57,47.57,0,0,0,4.58,3.72,38.55,38.55,0,0,1-4.81-2.53 C 53.46,69.22,53.53,68.82,53.61,68.43Z M 53,72.2 A 42.27,42.27,0,0,0,58.82,75 a 41.35,41.35,0,0,1-6-1.64 C 52.9,73,52.93,72.6,53,72.2Z m -.49,6.74.16,0 H 52.5Z m 0,3.22,1.2.08-1.19.16 C 52.53,82.32,52.53,82.24,52.52,82.17Z M 57,101.76 c .74.44,1.5.86,2.27,1.25 A 6.75,6.75,0,0,0,57.72,105q-.65-1.46-1.22-3Z m 64.21,39.33 a 61.49,61.49,0,0,1-63-35,25.77,25.77,0,0,1,3.05-2.11 c .74.33,1.48.64,2.22.92 a 9,9,0,0,0-2.27,4.78 c .82-1.47,3.12-3.11,4.49-4,.75.24,1.49.46,2.22.65-1.4,1.89-1.92,5.56-1.92,5.56 a 12,12,0,0,1,4.47-5 c .63.11,1.24.21,1.82.27 a 12,12,0,0,0-.58,3.5,11.79,11.79,0,0,1,3-3.37 c .74,0,1.54,0,2.38-.1 a 8.09,8.09,0,0,0-.91,4 c .33-1.62,2-3.27,3.07-4.22.81-.11,1.63-.24,2.46-.41 a 9.2,9.2,0,0,0-.42,4,9.93,9.93,0,0,1,2.92-4.62,31.69,31.69,0,0,0,3.2-1.07,12.29,12.29,0,0,0-.38,3.67,12.49,12.49,0,0,1,3-4.86 A 16.59,16.59,0,0,0,95.73,99 a 42.12,42.12,0,0,1-7.07,3.53,18.27,18.27,0,0,0,.84-26.71,38.68,38.68,0,0,1,9.59,6.93,25,25,0,0,0-4.17-5.44 c -8.6-12.91-4-26.83-4-26.83-5.07,11.6-2.16,19.85-.28,23.38q-.93-.61-1.9-1.13 a 32.46,32.46,0,0,1-6.21-22.3 A 29.15,29.15,0,0,0,84,70.64 c -.45-.14-.89-.27-1.34-.39-13.15-11.17-6.71-35-6.71-35 a 40.93,40.93,0,0,0,.55,34.23 h -.35 c -8.47-8-10.09-21-10.34-27.42 a 61.36,61.36,0,0,1,109,30.72 c 0,.32.06.64.09,1 A 49,49,0,0,1,127.35,79 a 5.73,5.73,0,0,0,1,.83,17,17,0,0,0,2.24,16.67 s -3.71-8.08-.79-15.37 A 29.12,29.12,0,0,0,134,99.8 c -2.42-6.58-3.17-12.08-1.77-17-.11,4.25.3,16.54,8.09,24,0,0-6.94-8.26-4.68-22.53-.12,4.74.61,17.76,11.07,27.66,0,0-8.88-11.91-8.3-27.09.53,5.66,3.33,25,17.17,32.12 a 40.52,40.52,0,0,1-13.43-32.22 h .07 c .25,3.54,1.93,19.17,13.87,29.06,0,0-11.16-12.91-10.64-28.66 h .1 c .06,3.56,1.27,19.91,18.31,30.54 A 61.24,61.24,0,0,1,121.24,141.08Z m 27.7-53.75 a 34.83,34.83,0,0,0,17.28,24.79q-.88,1.43-1.83,2.82 C 158.27,109.95,149.72,100.65,148.94,87.33Z m 17.43,24.53 c -3.59-3.12-13.36-12.69-15.2-26.19 A 45,45,0,0,0,168,109.08Q167.21,110.49,166.38,111.86Z m 2.56-4.66 C 163,102.14,157.08,94.85,154.76,85 h 0 a 42.5,42.5,0,0,0,15.37,19.63Q169.57,105.91,168.93,107.2Z m 1.92-4.28 c -5.24-4.4-10.78-10.56-13.33-18.28 A 49.86,49.86,0,0,0,171.58,101 C 171.35,101.64,171.11,102.29,170.86,102.92Z m 1.43-4 a 35.14,35.14,0,0,1-11.78-15.14,38,38,0,0,0,12.73,11.9Q172.81,97.33,172.29,98.94Z m 1.52-5.59 a 36.75,36.75,0,0,1-10.05-10.16,51,51,0,0,0,10.45,8.27 C 174.09,92.09,173.95,92.72,173.81,93.34Z"/>
      <path d="M 136,108.9 c -1.85,1.59-4.79,1.33-6.92,1.08 s -5.09-2-7.78-1.32 c -2.23.61-3.47,3.43-3.47,3.43 s -2-2.32-4.31-2.27 c -3,.07-4.88,4.67-6.63,6.76 a 9.62,9.62,0,0,1-3.59,2.64 s 1.73,1.1,3.54,5.26,4.82,9.25,10.25,9.56,9.35-2,12.2-9.79 c 1.76-4.82,2.37-8.83,4.66-12.59 a 15.68,15.68,0,0,0,1.47-1.87 A 2.68,2.68,0,0,0,136,108.9Z m -9,11.2 a 13.41,13.41,0,0,0-8.61-1.68,13.76,13.76,0,0,0-8.41,4.87 c -.59-.77-1.12-1.49-1.6-2.07 a 5.48,5.48,0,0,0-2.26-1.63,5.34,5.34,0,0,0,.57-.11 c 2-.52,5-2.7,7.05-2.33 s 4.76.9,7-.74,3.07-2.25,5.61-1.93 a 8.17,8.17,0,0,0,4.57-.59 A 48.25,48.25,0,0,0,127,120.1Z m -.43.82 c -1.72,3.33-3.15,7-8.27,7.52-3.36.38-5.84-2.05-7.73-4.4,1-1.1,4.19-4.32,8-4.73 A 14.77,14.77,0,0,1,126.52,120.92Z m -14.76-8.58 c 2-1.88,4.48-.61,6.19,1.54.91-2.2,3.21-4,5.27-3.91,2.61.13,6.06,1.56,7.71,1.56 a 7.5,7.5,0,0,0,2.56-.52 c -.33.31-.65.64-1,1 a 7.37,7.37,0,0,1-2.24,1.14 c -2.36.66-5.11-.09-6.94.31 s -3.54,2.58-5.33,2.85-3.83-.51-5.36-.36 c -1.78.17-4.47,2.24-7,3 C 108,117.69,110.17,113.85,111.75,112.34Z M 125.65,129 a 9.1,9.1,0,0,1-7.95,3.86 c -1.65,0-5.54-.64-8.19-5.21-2.15-3.7-3.51-7-5.08-8 l .49.06 c 2.64,1.12,4.37,4.18,5.86,6.23,1.78,2.46,4.05,4,7.76,3.55 a 8.9,8.9,0,0,0,7.36-5.1,90.24,90.24,0,0,1,4.87-8.77 c .51-.77,1.19-1.69,1.89-2.6 a 26,26,0,0,0-2.06,4.32 C 129.31,120.68,128.35,125.19,125.65,129Z"/>
      <path d="M 123,129.5 c .09.72-1.7,1.52-4,1.8 s -4.21-.08-4.3-.8,1.85-.22,4.14-.5 S 122.91,128.79,123,129.5Z" fill="#fff" opacity="0.5"/>
      <circle cx="85.25" cy="87.5" r="7.25" fill="#fff"/>
    </g>
    <path d="M 190.94,250 c -3.64-12-25.08-75.24-27.94-80.33-3-5.33-7.13-8.26-13.67-7.67-7.33.67-18-4.33-22.67-7 s -14-1.67-22.33,1.67 c -3-1.33-4.33-4.33-1.67-9.67 s 20.67-8,27.33-9.67,14-6.33,16-9.67,5.33-26.33,6.33-49.67 c 4.67,2.33,25,17.67,27.67,22.33 s 5.33,33.67,5.33,39.33 S 187.67,156.33,191,162 c 3,5.15,40.17,75.22,46.94,88 h 9.73 c -2.67-4-46.67-81.67-52.33-92 s -4-44.67-9-58 S 153,71.67,153,71.67 s 0-11.33.33-22-.33-23-15-26.67-53,0-64,2.67-21,2-19,37.67,14,106,17.33,114.33,9,8.67,25,7.33,38.67-3.67,42.67-6.33 S 143.67,167,143.67,167 H 150 c 4.67,0,8,6.67,14,23,5.32,14.47,16.38,51.69,18.84,60Z M 131.5,174.75 c -4,1-33.5,4.75-42.75,4.75 S 78,173.25,76,164.25,66.25,109.75,63.5,79,61,37.75,67.75,34 s 51.5-7.25,63.5-6,17,8.75,17,18.25 S 145.75,114.5,143,123 s -11.5,10.75-21.25,13-22,4-24.75,14.25 c 0,0-1.75,9.75,7.5,10.25,9.25-4,18.25-2.5,21.25-.5 s 8.5,5.75,11,6.25 C 136.75,170.25,135.5,173.75,131.5,174.75Z"/>
    <path d="M 99.25,150,82.5,152.5 s -12.75-62-11.25-102 c 17-5.25,56.25-7,65.25-5.25,1.25,21.75,1.25,67.5-.25,87.75-1.25.75-2.25,1.25-2.25,1.25 s 1.25-58.5-.5-86.25 c -21.25-3-58.75,5.25-58.75,5.25 s -1.75,47,10,95.75 c 8.75-1.5,15.5-2.25,15.5-2.25Z"/>
    <path d="M 103.92,33 c -1.5,0-4.5,1.25-4.5,3.75 s 1.25,4.75,4.5,4.75 a 4.26,4.26,0,1,0,0-8.5Z m 0,6.5 c -4.5.75-2.5-4.75,0-4.75 C 105.67,34.75,108.42,38.75,103.92,39.5Z"/>
    <path d="M 101.33,157.83 s -3.89,2.65-1.58,8.17,10.75,5.17,13.25,1.67 a 8.16,8.16,0,0,0-1.5-10.83 c -1.5.33-2.17.5-2.17.5 s 5.5,4.92,1.92,9.25 c -3.32,4-9.42.92-9.75-3.08 s 2.67-5,2.67-5Z"/>
    <path d="M 100,154.5 s 5-5.25,8.75-3.75 A 5.92,5.92,0,0,1,112.5,156 l 1.5-.5 s -.86-5.39-5.11-6.39-8.64,3.14-8.64,3.14Z"/>
  </g>
<script type="text/ecmascript" xlink:href="param.min.js"/> 
</svg>
