<?xml version="1.0"?>
<svg xmlns="http://www.w3.org/2000/svg" xmlns:xlink="http://www.w3.org/1999/xlink" id="fixed-colours" viewBox="0 0 250 250">
  <title>speech-bubble-brb</title>
  <path d="M 16.67,216.67 s 30.67-18,30.67-38 c -14-.67-30.67-6.67-34-34.67 s -2.67-72.17,18-86.17 S 72,48.5,88.67,50.5 s 39.33,1.33,72.67-1.33,58.5-2.67,69.83,6.67,8.33,26.84,8.33,39.67 c 0,14,.67,39.67,0,49.5-.68,10.07-5.67,37.67-33,37.67 s -99.17-4.67-113.83.67 C 78.5,196,60.67,220,16.67,216.67Z" fill="#f8c1d9"/>
  <path d="M 56.5,173 s -23.17,1.67-31.17-21.67-5.33-67.5,6-80.83 S 61.07,55.84,76,57.67 c 16.33,2,72,3.5,94.67.17 s 46.5-.67,55.83,8.67,2.67,46.83,4,60.83,2.67,36.67-14.67,43.33 S 170,174,148,172.67 s -63.33,2.67-63.33,2.67 S 65,206.5,35,210 C 56.33,195.33,56.5,181.67,56.5,173Z" fill="#fff"/>
  <path d="M 100.79,96.26v2.48 c 0,7.15-2.24,11.72-7.22,14,6,2.28,8.34,7.55,8.34,14.9v5.66 c 0,10.73-5.8,16.49-17,16.49 H 67.33V80.26 H 84.21 C 95.81,80.26,100.79,85.53,100.79,96.26Z M 78.52,90.2v18.38 h 4.37 c 4.17,0,6.71-1.79,6.71-7.35V97.35 c 0-5-1.73-7.15-5.7-7.15Z m 0,28.31v21.36 h 6.41 c 3.76,0,5.8-1.69,5.8-6.85V127 c 0-6.46-2.14-8.44-7.22-8.44Z" fill="#ec008c"/>
  <path d="M 132,149.8 c -.61-1.79-1-2.88-1-8.54V130.33 c 0-6.46-2.24-8.84-7.32-8.84 h -3.87V149.8 H 108.63V80.26 h 16.88 c 11.6,0,16.58,5.26,16.58,16v5.46 c 0,7.15-2.34,11.82-7.32,14.11,5.59,2.28,7.43,7.55,7.43,14.8v10.73 c 0,3.38.1,5.86,1.22,8.44Z M 119.81,90.2v21.36 h 4.37 c 4.17,0,6.71-1.79,6.71-7.35V97.35 c 0-5-1.73-7.15-5.7-7.15Z" fill="#ec008c"/>
  <path d="M 183,96.26v2.48 c 0,7.15-2.24,11.72-7.22,14,6,2.28,8.34,7.55,8.34,14.9v5.66 c 0,10.73-5.8,16.49-17,16.49 h -17.6V80.26 H 166.4 C 178,80.26,183,85.53,183,96.26Z M 160.7,90.2v18.38 h 4.37 c 4.17,0,6.71-1.79,6.71-7.35V97.35 c 0-5-1.73-7.15-5.7-7.15Z m 0,28.31v21.36 h 6.41 c 3.76,0,5.8-1.69,5.8-6.85V127 c 0-6.46-2.14-8.44-7.22-8.44Z" fill="#ec008c"/>
<script type="text/ecmascript" xlink:href="param.min.js"/> 
</svg>
