<?xml version="1.0"?>
<svg xmlns="http://www.w3.org/2000/svg" xmlns:xlink="http://www.w3.org/1999/xlink" id="fixed-colours" viewBox="0 0 250 250">
  <title>poo</title>
  <path d="M 134,207.42 a 251.3,251.3,0,0,0-59.15,8 c -16.23,4.18-41.75.55-43.63-21.58 S 47.39,165,47.39,165,32.2,135.49,71.68,120.48 C 65.83,104.16,70,87,96,76.32 s 22.79-34.55,13.24-43.72 c 35.65,1.15,54.68,20.81,53.13,44.76,21.65,7.44,18.81,24,16.15,30.19,13.45,4.69,21.6,21.46,14.47,37.12,28.32,14.12,27.65,40.46,22.73,51.89 s -11,18.47-27.5,15.62 S 148,207.14,134,207.42Z"/>
  <path d="M 133.83,197.73 c -20.32-.66-44.61,4.41-57.17,8.44 S 43.45,209.49,40.47,196 s 6.28-25,30.26-30.5,32.88-3.33,60.49-1.59,46-4.67,56.48-14.48 c 19.58,8.67,22.23,28.83,19,40.35 s -11.82,15.75-24,12.46 S 152.16,198.33,133.83,197.73Z" fill="#ec008c"/>
  <path d="M 54.25,161.31 s -6.16-16.67,10.11-28.19,39.93-10.65,60.3-11,39.1-1,48.56-9.88 c 12.13,4.29,16.66,20.21,9.18,29.5 s -24.92,17.42-50.27,17.13 S 64.89,155.51,54.25,161.31Z" fill="#ec008c"/>
  <path d="M 57.5,146.5 c 1.64-8.73,7.5-11.75,7-5.75 s -1.75,15.25-5,15 S 56.75,150.5,57.5,146.5Z" fill="#fff" opacity="0.5"/>
  <path d="M 80.49,117.92 S 69.9,103,84.49,91.76,128.08,74.62,122,43.27 c 15,.76,33.52,10.38,34.33,33.79-8-.74-14.43,1.6-21.28,4.93,19.11-1.7,34.7,6.77,34.44,18.44 s -11.48,15.77-34.19,16 S 87.75,113,80.49,117.92Z" fill="#ec008c"/>
  <path d="M 148.17,85.17 c 8.72.13,18,8.67,14.83,11.83 s -5.67-4.83-15.5-6 S 137.33,85,148.17,85.17Z" fill="#fff" opacity="0.5"/>
  <path d="M 69,169 c -9.67,2.16-23.53,8.07-23,14.33 s 12-4.67,25-8 c 12.38-3.17,25.67-8.33,18.67-8.67 S 76.66,167.29,69,169Z" fill="#fff" opacity="0.5"/>
  <path d="M 202.67,172 c 4.82,11.39-4.67,28-6,22.67 s 1-25.33-4.33-32.67 S 195.33,154.67,202.67,172Z" fill="#fff" opacity="0.5"/>
  <path d="M 121.5,68.75 c -5.92,8.68-14.75,13.75-22.5,17 S 93.25,94.5,104.75,91,124,77.5,127,70 s -.75-19.25-1.5-14 S 125.25,63.25,121.5,68.75Z" fill="#fff" opacity="0.5"/>
  <path d="M 65.68,134.92 s 2.62-8.62,8.05-14.36,11.55-7.37,16.8-7.06 a 29.32,29.32,0,0,1,13.18,4.75 c 2.31,1.62,6.56,6.24,7.31,7.74,1.5,2.37,2.72,10.12-5,14.86 a 32.28,32.28,0,0,1-17.61,4.87 C 80.73,145.79,69.49,139,65.68,134.92Z" fill="#fff"/>
  <path d="M 111,126 a 23.61,23.61,0,0,0-3.3-5.58 c -6.6-13.09-.7-25.64-.7-25.64-6.08,10.32-4.28,18.38-2.91,21.91q-.81-.68-1.65-1.28 a 30.69,30.69,0,0,1-3.3-21.63,27.56,27.56,0,0,0-1,19.17 c -.4-.19-.81-.35-1.21-.51-11.08-12-2.32-33.64-2.32-33.64 A 38.7,38.7,0,0,0,91.28,111 l -.33,0 C 81.31,99.37,84.78,80.4,84.78,80.4 c -4.8,16.9.77,27.51,2.73,30.56 h -.09 C 70,94.72,75.54,70.41,75.54,70.41 a 47.6,47.6,0,0,0,6.65,40.33 C 70.2,99.87,67.55,84,67.55,84 a 51.63,51.63,0,0,0,11.23,27.63 c -21-14.24-20-44-20-44-2.71,24,8.57,37.89,15,43.76 C 60,103.28,53.19,85.9,53.19,85.9 a 41.74,41.74,0,0,0,20.89,28.31 C 47,105.42,43.2,72.54,43.2,72.54 c 1.11,24.07,15,36.44,23.67,41.84 C 52.48,109.7,42.57,95.64,42.57,95.64 A 42.88,42.88,0,0,0,67.85,117.2 c -26.54-4.15-38.52-31.3-38.52-31.3,9.51,27.11,31.5,33.18,39.15,34.49-17.28.62-33-13-33-13 a 46.05,46.05,0,0,0,30,15.81 c -29.05,2.18-45.26-22.55-45.26-22.55 C 34.14,123,53.63,126.47,62.74,126.77 c -14.55,2.44-31.9-7-31.9-7,10,6.93,18.45,9.4,24.67,10.07 C 35.09,132,16.35,119.74,16.35,119.74 c 19,13.75,34.91,14.06,43.33,12.73-13.32,4.21-30.85,0-30.85,0,16.27,5.6,28,3.48,33.37,1.79-19.6,9.85-43.74,1.33-43.74,1.33,19.91,8.52,35.63,4.61,42.91,1.73 a 7.5,7.5,0,0,0-1.58,2.27 c 1.95-2.14,5.25-2.84,6.61-3,.4.39.81.77,1.24,1.14-2.44.94-3.48,4-3.48,4,1.32-1.41,3.83-2.26,5.19-2.64.65.49,1.31,1,2,1.43 a 8.41,8.41,0,0,0-2.93,4,17.34,17.34,0,0,1,4.69-2.85 c .66.39,1.32.77,2,1.12 A 8.46,8.46,0,0,0,72.42,147 c .94-1.28,3.28-2.56,4.67-3.24.68.31,1.35.6,2,.87-1.53,1.61-2.43,5-2.43,5 a 11.37,11.37,0,0,1,4.76-4.18 c .58.18,1.14.34,1.67.46 a 11.32,11.32,0,0,0-.94,3.22,11.15,11.15,0,0,1,3.19-2.82 c .7.08,1.45.14,2.24.18 a 7.65,7.65,0,0,0-1.31,3.64 c .49-1.48,2.23-2.85,3.36-3.61.77,0,1.56,0,2.36-.11 a 8.69,8.69,0,0,0-.85,3.72,9.39,9.39,0,0,1,3.27-4,30,30,0,0,0,3.12-.64,11.64,11.64,0,0,0-.77,3.4,11.8,11.8,0,0,1,3.34-4.22,15.69,15.69,0,0,0,5.9-3.77 c -13,5.9-28.76,2.4-37.51-7.85,1.33-4.57,4-10.31,8.51-14.28 A 11.72,11.72,0,1,0,90.5,114 C 102.54,114.58,111,126,111,126Z"/>
  <circle cx="83.72" cy="121" r="3.41" fill="#fff"/>
  <path d="M 184.66,134.92 s -2.62-8.62-8.05-14.36-11.55-7.37-16.8-7.06 a 29.32,29.32,0,0,0-13.18,4.75 c -2.31,1.62-6.56,6.24-7.31,7.74-1.5,2.37-2.72,10.12,5,14.86 a 32.28,32.28,0,0,0,17.61,4.87 C 169.61,145.79,180.85,139,184.66,134.92Z" fill="#fff"/>
  <path d="M 188.13,134.27 c 5.4,1.69,17.1,3.81,33.37-1.79,0,0-17.52,4.2-30.85,0,8.43,1.33,24.32,1,43.33-12.73,0,0-18.74,12.22-39.16,10.07,6.23-.67,14.72-3.14,24.67-10.07,0,0-17.36,9.47-31.9,7,9.1-.31,28.6-3.78,42.52-26.14,0,0-16.2,24.73-45.26,22.55 a 46.05,46.05,0,0,0,30-15.81 s -15.75,13.63-33,13 C 189.5,119.08,211.49,113,221,85.9 c 0,0-12,27.16-38.52,31.3 a 42.88,42.88,0,0,0,25.28-21.56 s -9.91,14.06-24.29,18.74 C 192.11,109,206,96.6,207.14,72.54 c 0,0-3.83,32.88-30.88,41.67 A 41.74,41.74,0,0,0,197.15,85.9 s -6.82,17.38-20.63,25.53 c 6.44-5.88,17.73-19.81,15-43.76,0,0,1.05,29.75-20,44 A 51.63,51.63,0,0,0,182.79,84 s -2.65,15.84-14.64,26.72 a 47.6,47.6,0,0,0,6.65-40.33 S 180.32,94.73,162.9,111 h -.09 c 2-3,7.54-13.66,2.74-30.56,0,0,3.47,19-6.16,30.53 l -.33,0 a 38.7,38.7,0,0,0-3.37-32.18 s 8.74,21.62-2.28,33.61 c -.41.16-.82.33-1.24.52 a 27.57,27.57,0,0,0-1-19.14,30.7,30.7,0,0,1-3.27,21.57 c -.56.4-1.12.81-1.66,1.26,1.36-3.57,3.09-11.59-2.94-21.84,0,0,5.85,12.43-.6,25.45 a 23.62,23.62,0,0,0-3.45,5.77,36.32,36.32,0,0,1,10.08-8.76,11.71,11.71,0,1,0,12.35-3.2 c 12,.6,17.87,11.4,20.07,19-8.75,10.25-24.5,13.75-37.51,7.85 a 15.76,15.76,0,0,0,6,3.81,11.8,11.8,0,0,1,3.29,4.18,11.67,11.67,0,0,0-.77-3.38,30.08,30.08,0,0,0,3.13.64,9.37,9.37,0,0,1,3.25,4,8.7,8.7,0,0,0-.84-3.72 c .8.06,1.59.1,2.36.11,1.13.76,2.86,2.13,3.36,3.61 a 7.65,7.65,0,0,0-1.31-3.65 c .79,0,1.54-.1,2.24-.18 a 11.16,11.16,0,0,1,3.19,2.83,11.3,11.3,0,0,0-.95-3.23 c .53-.13,1.09-.29,1.66-.46 a 11.39,11.39,0,0,1,4.79,4.19 s -.91-3.41-2.45-5 c .66-.26,1.32-.55,2-.86,1.38.68,3.75,2,4.69,3.26 a 8.44,8.44,0,0,0-2.69-4.25 c .66-.35,1.32-.72,2-1.12 a 17.41,17.41,0,0,1,4.72,2.87,8.38,8.38,0,0,0-3-4 c .68-.45,1.34-.93,2-1.42,1.35.37,3.89,1.22,5.23,2.65,0,0-1-3.12-3.52-4,.42-.37.83-.75,1.23-1.13,1.34.2,4.69.89,6.66,3.05 a 7.5,7.5,0,0,0-1.58-2.27 c 7.28,2.88,23,6.79,42.91-1.73 C 231.87,135.6,207.73,144.12,188.13,134.27Z"/>
  <circle cx="154.9" cy="121" r="3.41" fill="#fff"/>
  <path d="M 100.63,162.43 s .27,1.13,3.24.95,6-1.71,7.66-2.21 a 6.91,6.91,0,0,1,6.22.68 c 2.61,1.58,5.54,3.24,9.19,1.22 s 4.46-3,8.43-1.7,8.29,3.18,11.09,1 c -1.26,0-3.65-.16-6.94-4.48 s -6.08-8.74-9.82-8.61-6.38,4.15-6.38,4.15-2.9-4.69-6.78-4.42-6.49,4.33-8.43,7.3 S 102.84,162.16,100.63,162.43Z" fill="#e8b0af"/>
  <path d="M 99.7,162.69 a 11.91,11.91,0,0,1,5.41,3 c 2.64,2.47,5.44,8.79,9.5,11 s 10,2.23,13.35,1.52 a 11.74,11.74,0,0,0,7.94-5.54 c 2-3.21,6.93-8.48,8.65-9.29,1.25-.41,2.3-.64,2.3-.64 a 22.59,22.59,0,0,0-4.09,7.07 c -1.45,4.18-4,11.14-7.3,14.83 A 15.93,15.93,0,0,1,123.31,190,17.1,17.1,0,0,1,110.62,184,35.93,35.93,0,0,1,104.67,173 C 103.12,168.84,101.56,163.94,99.7,162.69Z" fill="#e8b0af"/>
  <path d="M 102.68,163.47 a 12.61,12.61,0,0,0,5.68-1.08 c 2.57-1.28,6.15-2.16,9-.81 s 5.08,3.54,8.49,1.9,5.37-3.34,8.34-2.45,6.35,2.65,9.94,2.44 c -2.16,1.83-4.49,3.55-6.35,6.35 s -4.63,8.76-14.48,8.76-11.27-4.23-13.1-6.73 S 104.91,164.82,102.68,163.47Z" fill="#7d4040"/>
  <path d="M 112.28,174.42 a 13.37,13.37,0,0,1,11-5.81,14.21,14.21,0,0,1,11.29,5.81 s -2.86,4.16-11.29,4.16 S 112.28,174.42,112.28,174.42Z" fill="#c78383"/>
  <path d="M 149.45,160.78 c -.69.41-3.43.57-6.26-1.7-3.72-3-6.81-12.12-12.76-12.12 s -7.12,4.88-7.12,4.88-1-4.77-6.94-4.77-9.69,9-13.41,12 c -2.84,2.27-5.11,2.11-5.8,1.7 l -.17-.11 A 9.15,9.15,0,0,0,98.43,162 a 21.64,21.64,0,0,1,4.11,7.44 c 1.17,3.6,4.06,12.39,7.89,16.31 a 18.06,18.06,0,0,0,25.78,0 c 3.83-3.92,6.71-12.71,7.89-16.31 a 21.64,21.64,0,0,1,4.11-7.44,9.15,9.15,0,0,0,1.43-1.35Z m -33.08-10.2 c 4.6,0,6.94,4.78,6.94,4.78 s 2.34-4.78,6.94-4.78,7.62,10.74,13.26,11.61 c -2.72.29-3.84-.41-6.11-1.38-3.6-1.53-6.75-2.09-8.37-1.41 s -3.2,3.45-5.72,3.45-4.69-2.72-6.19-3.34-4.3-.23-7.91,1.31 a 8.78,8.78,0,0,1-5.71.84 C 109.14,160.78,111.8,150.58,116.37,150.58Z m 6.94,17.48 c -2.47,0-8.23.74-11.1,5.4-1.75-2.26-3.81-6.62-8.52-9.47 a 9.49,9.49,0,0,0,4.39-.62 c 3-1.26,5.59-2.37,8.47-.78 s 4.69,2.67,6.76,2.67,3.88-1.08,6.76-2.67,5.5-.48,8.47.78 a 9.49,9.49,0,0,0,4.39.62 c -4.72,2.84-6.77,7.21-8.52,9.47 C 131.54,168.8,125.77,168.06,123.31,168.06Z m 10.31,6.27 c -2.26,2.25-5.64,3.46-10.31,3.46 s -8-1.21-10.31-3.46 a 13.18,13.18,0,0,1,20.61,0Z m 8.07-5.28 c -1.35,3.06-2.31,7.11-6,12.66 s -8,6-12.34,6-9-1.32-12.66-6.87-4.73-9-6.08-12 c -.89-2-1-3.2-2.93-4.92.45.19-.22-.33.24-.21 a 37.09,37.09,0,0,1,6.79,7.61 c 2.79,4.06,5.32,8.62,14.6,8.62 s 11.81-4.57,14.6-8.62 a 37.09,37.09,0,0,1,6.79-7.61,10.18,10.18,0,0,0,1.36-.46 A 17.75,17.75,0,0,0,141.69,169.06Z"/>
  <path d="M 120.78,156.21 c 0,2.17-1.76,0-3.93,0 s -3.93,2.17-3.93,0 a 3.93,3.93,0,0,1,7.87,0Z" fill="#fff" opacity="0.5"/>
  <path d="M 125.84,156.21 c 0,2.17,1.76,0,3.93,0 s 3.93,2.17,3.93,0 a 3.93,3.93,0,0,0-7.87,0Z" fill="#fff" opacity="0.5"/>
  <path d="M 131.09,181.46 c 0,1.76-3.5,3.19-7.81,3.19 s -7.81-1.43-7.81-3.19,3.5,0,7.81,0 S 131.09,179.7,131.09,181.46Z" fill="#fff" opacity="0.5"/>
  <path d="M 235,194.87 s -.29,13.89-10.43,13.56 c 6.78,2.09,8.12,4.94,8.7,14.75,2.6-10.38,5.11-14.07,9.8-13.55 C 237.81,207,235.24,203.85,235,194.87Z" fill="#ec008c"/>
  <path d="M 166.23,219.11 s -1,6.78-5.21,7.82 c 4.69,1,4.69,9.91,4.69,9.91 s .52-8.86,4.69-9.91 C 167.79,225.89,166.23,219.11,166.23,219.11Z" fill="#ec008c"/>
  <path d="M 76.69,182.62 s -.7,4.56-3.51,5.26 c 3.16.7,3.16,6.67,3.16,6.67 s .35-6,3.16-6.67 C 77.75,187.18,76.69,182.62,76.69,182.62Z" fill="#fff"/>
  <path d="M 223.3,2.75 s -1,6.78-5.21,7.82 c 4.69,1,4.69,9.91,4.69,9.91 s .52-8.86,4.69-9.91 C 224.87,9.53,223.3,2.75,223.3,2.75Z" fill="#ec008c"/>
  <path d="M 145.17,48.4 s -.77,5-3.85,5.78 c 3.47.77,3.47,7.32,3.47,7.32 s .39-6.55,3.47-7.32 C 146.32,53.41,145.17,48.4,145.17,48.4Z" fill="#fff"/>
  <path d="M 23.08,21.83 s .5,19.33-13,19.33 c 9.91,1.56,12.48,7,14,20.09,1.25-15,4.27-20.61,10.53-21.13 C 24.7,39.08,24.17,33.92,23.08,21.83Z" fill="#ec008c"/>
  <path d="M 101.64,11 s -.52,10.95-7.82,10.95 c 5.21,0,7.82,9.91,7.82,9.91 s 2.09-9.91,6.78-10.43 C 103.2,20.91,101.64,16.73,101.64,11Z" fill="#ec008c"/>
  <path d="M 13,135.25 S 11,145.67,4.7,145.67 c 6.26,1,8.34,6.26,8.34,13,1-11.47,5.74-13,7.82-13.56 C 14.61,144.63,13.56,141,13,135.25Z" fill="#ec008c"/>
  <path d="M 191.55,127.36 s -1.59,7.94-6.35,7.94 c 4.76.79,6.35,4.76,6.35,9.92.79-8.73,4.36-9.92,6-10.32 C 192.74,134.5,191.95,131.72,191.55,127.36Z" fill="#fff"/>
  <path d="M 40.13,218.16 s .52,8.86-7.82,8.86 c 6.26,1.56,8.34,5.74,8.34,10.95,1.56-7.82,4.69-8.86,7.82-9.39 C 42.22,227.55,41.18,223.9,40.13,218.16Z" fill="#ec008c"/>
  <path d="M 240.45,73.51 s -1.56,10.95-7.82,13 c 5.21,2.09,6.78,13,6.78,13 s 1-13,6.78-13.56 C 239.93,85,240.45,73.51,240.45,73.51Z" fill="#ec008c"/>
  <path d="M 178.25,160 s -1,15.75-8.78,15.88 c 8.91,1.25,8.6,16.55,8.6,16.55 s -.32-16.67,8.6-17.21 C 176.88,175.13,178.25,160,178.25,160Z" fill="#fff"/>
  <path d="M 111.17,80 s -1.15,8-5.73,9.55 c 3.82,1.53,5,9.55,5,9.55 s .76-9.55,5-9.93 C 110.79,88.4,111.17,80,111.17,80Z" fill="#fff"/>
  <path d="M 73.25,137.5 s .33,13.75-7.69,14.13 c 7.27,1,7.69,14.8,7.69,14.8 S 73.08,152,81,151 C 73.08,152.42,73.25,137.5,73.25,137.5Z" fill="#fff"/>
<script type="text/ecmascript" xlink:href="param.min.js"/> 
</svg>
