<?xml version="1.0"?>
<svg xmlns="http://www.w3.org/2000/svg" xmlns:xlink="http://www.w3.org/1999/xlink" id="fixed-colours" viewBox="0 0 250 250">
  <title>speech-bubble-love-you</title>
  <path d="M 16.67,216.67 s 30.67-18,30.67-38 c -14-.67-30.67-6.67-34-34.67 s -2.67-72.17,18-86.17 S 72,48.5,88.67,50.5 s 39.33,1.33,72.67-1.33,58.5-2.67,69.83,6.67,8.33,26.84,8.33,39.67 c 0,14,.67,39.67,0,49.5-.68,10.07-5.67,37.67-33,37.67 s -99.17-4.67-113.83.67 C 78.5,196,60.67,220,16.67,216.67Z" fill="#f8c1d9"/>
  <path d="M 56.5,173 s -23.17,1.67-31.17-21.67-5.33-67.5,6-80.83 S 61.07,55.84,76,57.67 c 16.33,2,72,3.5,94.67.17 s 46.5-.67,55.83,8.67,2.67,46.83,4,60.83,2.67,36.67-14.67,43.33 S 170,174,148,172.67 s -63.33,2.67-63.33,2.67 S 65,206.5,35,210 C 56.33,195.33,56.5,181.67,56.5,173Z" fill="#fff"/>
  <path d="M 40.56,93.85 H 47.5v36.91 H 58.9v6.15 H 40.56Z" fill="#ec008c"/>
  <path d="M 61.35,104.18 c 0-6.89,3.72-10.83,10.52-10.83 S 82.4,97.29,82.4,104.18v22.39 c 0,6.89-3.72,10.83-10.52,10.83 s -10.52-3.94-10.52-10.83Z M 68.28,127 c 0,3.08,1.39,4.25,3.59,4.25 s 3.59-1.17,3.59-4.25V103.75 c 0-3.08-1.39-4.25-3.59-4.25 s -3.59,1.17-3.59,4.25Z" fill="#ec008c"/>
  <path d="M 97.27,129 l 5.29-35.13 h 6.36 l -6.8,43.07 H 91.78 L 85,93.85 h 7Z" fill="#ec008c"/>
  <path d="M 119.06,112 h 9.51v6.15 h -9.51v12.61 h 12v6.15 h -18.9V93.85 H 131V100 h -12Z" fill="#ec008c"/>
  <path d="M 151.57,122.64 l -8.76-28.79 h 7.25 l 5.29,19.63,5.29-19.63 h 6.62 l -8.76,28.79v14.27 h -6.93Z" fill="#ec008c"/>
  <path d="M 168.52,104.18 c 0-6.89,3.72-10.83,10.52-10.83 s 10.52,3.94,10.52,10.83v22.39 c 0,6.89-3.72,10.83-10.52,10.83 s -10.52-3.94-10.52-10.83Z M 175.45,127 c 0,3.08,1.39,4.25,3.59,4.25 s 3.59-1.17,3.59-4.25V103.75 c 0-3.08-1.39-4.25-3.59-4.25 s -3.59,1.17-3.59,4.25Z" fill="#ec008c"/>
  <path d="M 200.65,93.85v33.22 c 0,3.08,1.39,4.18,3.59,4.18 s 3.59-1.11,3.59-4.18V93.85 h 6.55v32.79 c 0,6.89-3.53,10.83-10.33,10.83 s -10.33-3.94-10.33-10.83V93.85Z" fill="#ec008c"/>
<script type="text/ecmascript" xlink:href="param.min.js"/> 
</svg>
