<?xml version="1.0"?>
<svg xmlns="http://www.w3.org/2000/svg" xmlns:xlink="http://www.w3.org/1999/xlink" id="fixed-colours" viewBox="0 0 250 250">
  <title>red-wine-glass</title>
  <path d="M 77,28 s 14.67-11.33,46.33-11.33 S 168.67,27,168.67,27,191,52.67,189.33,85,161.12,139.43,149,147.33 c -11.5,7.5-18.83,13.83-18.83,24.17 s .17,22.83,1.17,29.17,12,11.33,18,13.33,12.33,5.67,11.33,12.33-19.67,12-39,12 S 83.67,236,83,226 s 24.67-14,27-22,2.17-31.17-.83-40.17-17.5-17.5-26.83-24.17 S 56.67,117,54,91.67,70,34,77,28Z"/>
  <path d="M 82.67,31.33 s 17-10,42-9.67,38,5.67,40.67,9 C 154,39,103.33,42.67,82.67,31.33Z" fill="#eefbff"/>
  <path d="M 79.33,34.33 s 17,9,46.67,8,40.67-6.33,42-7.67 c 9,9.67,16,32,14.67,51.33-19-7.33-97.33-14-122,4.67 C 58,68.33,79.33,34.33,79.33,34.33Z" fill="#eefbff"/>
  <path d="M 62.67,94 c -.27-2.65,27.67-13,61.67-12.67 s 58.33,7,58.33,9.67-17.67,10.67-61,10.67 S 63,97.33,62.67,94Z" fill="#8e1647"/>
  <path d="M 61.33,97.67 s 16.33,8.33,61.33,7 S 178,100.33,182,96.33 c -8,23.33-35,53-62.33,54 S 65.67,116.33,61.33,97.67Z" fill="#8e1647"/>
  <path d="M 106.33,151.33 s 14.33,6,26.67-.33 c -8.67,7-8.83,18.5-8.5,31.5 s 2.17,31.17,5.5,36.83 a 38.57,38.57,0,0,1,.33-11,32,32,0,0,0,11,6.67 c 6.67,2.33,15,5.67,15.33,9.33 s -17,10-36.33,9.33-31-3-31-7.67,21-9.67,22.33-15.33 a 21.46,21.46,0,0,1-.33,9.67 s 4.67-9.42,4.92-19.08.67-28.75,0-33.75 S 111.33,154.33,106.33,151.33Z" fill="#eefbff"/>
  <path d="M 85.33,130 C 76.93,121.74,69,105.67,69,105.67 A 66.46,66.46,0,0,0,85.33,108 c 2.33,12.33,16.91,29.32,24.67,33.67 C 118.33,146.33,104.67,149,85.33,130Z" fill="#fff" opacity="0.5"/>
  <path d="M 157.67,107.33 s 9.67-.33,14.67-3.33 c -7,15.33-19.33,29-31,35.67 s -5.67-1.67-.67-6 S 154.67,115,157.67,107.33Z" fill="#fff" opacity="0.5"/>
  <path d="M 117.33,83.67 c -17.33.33-42,3.67-48,10.67,8-3,37.67-8,60.67-7.67 a 275.69,275.69,0,0,1,42.33,4 S 151.07,83,117.33,83.67Z" fill="#fff" opacity="0.5"/>
  <path d="M 76.33,49 c -3.58,6.88-10.67,29.33-6,30.33 s 5.33-10.67,9.33-20.67 S 84.67,33,76.33,49Z" fill="#fff"/>
  <path d="M 110.33,46 c 18.13,1,40.67-.67,48-4 s 8.67-.33,2,3.67 S 131,51,119.67,51,94,48.33,94,45.67,97.67,45.33,110.33,46Z" fill="#fff"/>
  <path d="M 118.33,179.33 c -.28,10.66,0,26.33-1.33,32 s 2,7.67,3.33-2,1-20.67.67-32-1-18.33-3.33-18.67 S 118.67,166.67,118.33,179.33Z" fill="#fff"/>
  <path d="M 100.33,221.33 c -4.45,1.71-10,5.67-.67,7.33 s 29,3,28.58.83 c -.3-1.73-12.58-2.83-18.58-3.5 s -11.79-1.25-8.42-2.87 C 104.1,221.75,104.67,219.67,100.33,221.33Z" fill="#fff"/>
  <path d="M 221.53,216.66 c 4.12-.61,6.16-1.64,5.91-2.66-.35-1.38-3.68-.65-11.19.06 l -1.2-.54 c 4-3.92,10.11-9.83,8.36-11.22 s -4.85,2.53-10.87,8.8 c -1-5-1.72-8.32-3.65-8-1.68.28-.65,3.46.15,7.53-4.72-2.57-10.23-5.81-11.44-4.3-1.46,1.82,4.66,5,10.91,8.23-6.1.19-14.25.28-12.93,2.26 s 4.6,1.11,10.63.66 c -4.09,4.12-7.91,8.32-5.79,8.62 s 5.92-3.58,9.3-7.13 c .12,5.13.71,8.74,2.8,8.74 s 1.79-6,1.17-10.33 c 6.25,3.58,13.12,8,14.15,5.89 C 228.66,221.62,226.32,219.3,221.53,216.66Z" fill="#d37da4"/>
  <path d="M 86,178.71 c -.3-1.94-5.23-.41-11,.1,3.3-4.14,7.92-10,6.18-11.1 s -4,2.51-8.34,8.46 c -.13-5.38-.23-12.15-2-11-2,1.29-.71,5.24-.47,12.59-3.85-2.56-9.8-7.85-11.23-6.5 s 2.9,4.35,7.46,7.6 c -5.08,0-8.57.5-8.64,2.39 s 5.08,2,9.65,1.73 c -3.6,4.64-7.35,9.72-5.17,9.76,2,0,5.29-4.27,8.08-8.06.35,6.17,1.52,9.33,2.72,9 s .61-3.24,0-9.85 c 4,3.14,7.84,6.07,8.75,4.74 s -1-3.69-5.11-6.64 C 82.51,181.22,86.25,180.61,86,178.71Z" fill="#d37da4"/>
  <path d="M 176.81,148.11 c -.58-1.09-2.84.09-6.94,1.84,1.58-2.84,3.61-6.39,2.37-6.33-1.41.07-2,2.51-4.11,6.4-1.22-2.51-2.69-7.09-3.85-6.83 s .18,3.15,1.55,6.24 c -2.64-1.56-4.61-2.37-5.23-1.41 s 2,2.59,4.49,3.86 c -3.3,1.31-6.81,2.8-5.68,3.49 s 4.06-.6,6.68-1.72 c -1.71,3.32-2.07,5.32-1.36,5.53 s 1.31-1.5,3-5.12 c 1.12,2.87,2.21,5.56,3.1,5.15 s .61-2.23-.62-5 c 3.13,1.35,5.27,2.17,5.7,1.1 s -2.59-1.82-5.74-3.32 C 173.17,150.85,177.39,149.2,176.81,148.11Z" fill="#d37da4"/>
  <path d="M 199.46,21.69 c 4.13-1.69,9.35-3.76,8-4.76-1.58-1.14-4.27,1-9.9,3.34.85-3.74,3.2-9.91,1.73-10.62 s -2.52,3.53-3.69,8 c -1.49-3.94-2.91-6.49-4.4-6 s 0,4.52,1.5,8 c -4.66-1.43-9.7-2.83-9.09-1.13.56,1.55,4.87,2.84,8.63,3.89-4.68,2.09-6.78,3.93-6.2,4.77 s 2.69-.48,7.64-2.9 c -1.25,4-2.4,7.86-1.1,8.18 s 2.56-1.87,3.64-5.92 c 2.21,4.13,3.78,6.84,5.17,6.06 s -1.22-4.17-3.31-8.47 c 4.18,1.34,10.11,3.18,10.42,1.52 S 205.36,23.32,199.46,21.69Z" fill="#d37da4"/>
  <path d="M 30.55,227.75 c 3.1-1.27,7-2.82,6-3.57 s -3.21.74-7.43,2.51 c .64-2.81,2.4-7.44,1.3-8 s -1.89,2.65-2.77,6 c -1.12-3-2.19-4.88-3.3-4.5 s 0,3.4,1.13,6 c -3.5-1.07-7.29-2.13-6.82-.85 s 3.65,2.13,6.48,2.92 c -3.52,1.57-5.09,3-4.66,3.58 s 2-.36,5.74-2.17 c -.94,3-1.8,5.91-.82,6.14 s 1.92-1.4,2.73-4.44 c 1.66,3.1,2.84,5.14,3.88,4.55 s -.92-3.13-2.48-6.36 c 3.14,1,7.59,2.39,7.83,1.14 S 35,229,30.55,227.75Z" fill="#d37da4"/>
  <path d="M 59.28,18.8 c -.59-1.27-3.24-.07-8,1.68,2-3.14,4.49-7.06,3.07-7.07-1.61,0-2.4,2.73-5.06,7-1.23-2.93-2.63-8.24-4-8 s 0,3.6,1.39,7.2 c -2.92-1.94-5.11-3-5.87-1.92 S 43,20.81,45.71,22.4 C 41.87,23.69,37.79,25.18,39,26 s 4.66-.44,7.71-1.55 c -2.15,3.68-2.68,5.93-1.88,6.22 s 1.58-1.63,3.76-5.65 c 1.11,3.33,2.19,6.47,3.22,6.05 s .83-2.5-.4-5.76 c 3.49,1.72,5.86,2.79,6.42,1.59 S 55,24.72,51.51,22.82 C 55,21.7,59.88,20.08,59.28,18.8Z" fill="#d37da4"/>
  <path d="M 236.76,94.23 c -.51-2.17-6.93.38-14,1.09,2.58-4.16,8.36-12.63,6.23-13.64 s -4.15,4-9,12 c -1.61-5.11-3.85-14.22-5.43-12.44 s .53,4.94,2.58,11.44 c -3.48-2.58-7.42-5.66-8.54-4.6-1.34,1.27,2.94,4.35,7.48,7.58-5.82.32-9.8,1.07-9.74,3,0,1.68,5.08,1.68,9.82,1.2-2.62,4.34-4.8,8.46-2.92,8.29 s 4.15-3.81,6.31-7.46 c 1.82,5.21,3.61,7.62,4.62,7.07 s 0-2.66-1.78-7.41 c 4,3.14,7.85,6.11,8.76,4.78 s -1.09-3.77-5.38-6.8 C 232.58,97.14,237.24,96.28,236.76,94.23Z" fill="#d37da4"/>
  <path d="M 28.91,105.84 c -.42-1.77-5.67.31-11.47.89,2.11-3.4,6.84-10.33,5.09-11.16 s -3.39,3.29-7.33,9.81 c -1.32-4.18-3.15-11.64-4.44-10.18 s .43,4,2.11,9.36 c -2.84-2.11-6.07-4.63-7-3.76-1.1,1,2.41,3.56,6.12,6.2-4.76.26-8,.87-8,2.49,0,1.38,4.15,1.37,8,1-2.14,3.55-3.93,6.92-2.39,6.78 s 3.39-3.12,5.16-6.1 c 1.49,4.26,3,6.24,3.78,5.78 s 0-2.17-1.45-6.06 c 3.28,2.57,6.42,5,7.17,3.91 s -.89-3.08-4.4-5.56 C 25.49,108.22,29.31,107.51,28.91,105.84Z" fill="#d37da4"/>
<script type="text/ecmascript" xlink:href="param.min.js"/> 
</svg>
