<?xml version="1.0"?>
<svg xmlns="http://www.w3.org/2000/svg" xmlns:xlink="http://www.w3.org/1999/xlink" id="fixed-colours" viewBox="0 0 250 250">
  <title>ring-box</title>
  <path d="M 29.55,79.3 S 88.8,47.47,130.89,37.18 a 600.27,600.27,0,0,1,92.55,53.73 s 1,55-.37,77.44 c -49.48,31.8-91.31,58-91.31,58 s -88.69-46.79-107.55-68 A 446.06,446.06,0,0,1,29.55,79.3Z" fill="#ec008c"/>
  <path d="M 231.59,87.13 C 197.65,63.14,130.22,28,130.22,28 S 58.61,52.37,20.65,75.11 c -3.42,26.63-2.17,87.09-2.17,87.09 s 57.34,40.64,111.8,68.3 c 33.23-15.09,97.49-59.43,97.49-59.43 S 232.19,128,231.59,87.13Z M 129.66,220.71 c -37.34-18.1-100.47-64-100.47-64 s 1.56-56.63,3.8-73.58 c 31.06-19.49,96.44-41.8,96.44-41.8 S 191.52,73.75,217.82,93 c 1.74,42.19.53,72.62.53,72.62 S 146.5,214.4,129.66,220.71Z"/>
  <path d="M 218.75,87.58 s -69.59,41.58-91.48,50.64 c -48-23.61-97.72-58.92-97.72-58.92 l -2.76,5.32 a 573.58,573.58,0,0,0,97.76,58.31 c 3.24,47.77,3.7,80.74,3.7,80.74 l 5.47.33-1.81-81.84 s 74.76-36.39,91.51-51.25 A 27.12,27.12,0,0,0,218.75,87.58Z"/>
  <path d="M 25,124.17 S 86,165,128.95,181.63 a 604.93,604.93,0,0,0,94.31-57.18 l .24,6.11 s -60,44-93.63,56 C 94,175.26,25.24,130.89,25.24,130.89Z"/>
  <path d="M 128.23,81.55 c 13.37-29.7-5.55-29.61-16.25-13.78 s -16.56,42.32-16.56,42.32,39.83-3.1,61.91-15.2 S 155.31,67.31,128.23,81.55Z m 13.93,11.81 c -11.95,6-39.63,9.83-39.63,9.83 a 144.38,144.38,0,0,1,10.07-25.62 c 6.91-13.61,20-18.32,9.82,9.13 C 143.57,80,163.52,83.05,142.16,93.36Z" fill="#fff"/>
  <path d="M 55.7,28.17 c -2.31-5.77-12.6-11.4-23.64-4-6.92,4.61-11,15.57-7.5,21.34 S 38.39,52.39,47,48.35,58,33.93,55.7,28.17Z m -21.91,15 c -7.5-2.31-2.31-9.8,0-12.69,6.88-8.6,14.42-2.88,15.57,2.31 S 41.28,45.47,33.78,43.16Z" fill="#f8d0c9"/>
  <polygon points="31.47 28.17 17.06 24.13 33.78 12.02 36.09 24.13 31.47 28.17" fill="#f8d0c9"/>
  <path d="M 223.46,231.7 c 3.45-3,4.83-11.63-3.06-17.51-4.94-3.68-13.59-3.78-16.76.07 s -1.39,11.38,3.57,16.42 S 220,234.74,223.46,231.7Z m -15.91-11.57 c -.25-5.81,6.27-4,8.86-3.15,7.72,2.67,5.59,9.35,2.26,11.44 S 207.81,225.93,207.55,220.13Z" fill="#f8d0c9"/>
  <polygon points="217.2 214.11 216.32 201.33 230.89 211.34 221.78 216.67 217.2 214.11" fill="#f8d0c9"/>
  <path d="M 175.31,29.29 c 1.5-5,2.57-12.49-8.38-14.15-6.86-1-13,2.79-14.09,8.29 s 3,10.67,10.84,11.88 C 169.39,36.17,174.32,32.55,175.31,29.29Z m -17.38-4.11 c -.64-4.52,3.45-5.52,6.5-5.16,5.38.64,8.14,2.72,5.93,6.57 S 158.63,30.15,157.93,25.18Z" fill="#f8d0c9"/>
  <polygon points="164.31 17.3 162.19 6.85 173.53 9.06 169.42 17.41 164.31 17.3" fill="#f8d0c9"/>
  <path d="M 50.54,213.44 c -4-5.68-11.07-13-21.88-2.84-6.77,6.39-7.78,16-2.88,21.74 s 13.73,5.68,21.51-1.65 C 52.93,225.38,53.17,217.17,50.54,213.44Z m -18.71,15 c -5.3-3.06-3-8.2-.07-11.13,5.12-5.15,9.6-6.35,11.84-.84 S 37.67,231.78,31.84,228.41Z" fill="#f8d0c9"/>
  <polygon points="28.79 215.16 15.98 208.76 27.7 198.61 33.12 209.84 28.79 215.16" fill="#f8d0c9"/>
  <path d="M 225.67,41.86 c -9.92-5-15.57,4.61-16.72,9.8 s 5.19,13.84,13.26,13.26 S 239.51,48.78,225.67,41.86Z m -4,17.3 a 7,7,0,0,1-8.07-6.92 c 0-3.46,2.57-7.74,9.8-5.77 C 229.71,48.21,226.82,58.59,221.63,59.16Z" fill="#f8d0c9"/>
  <polygon points="222.21 42.44 220.48 29.18 236.63 35.52 227.97 44.75 222.21 42.44" fill="#f8d0c9"/>
<script type="text/ecmascript" xlink:href="param.min.js"/> 
</svg>
