<?xml version="1.0"?>
<svg xmlns="http://www.w3.org/2000/svg" xmlns:xlink="http://www.w3.org/1999/xlink" viewBox="0 0 250 250">
  <title>ring-on-finger</title>
  <g id="skin-tone">
    <path d="M 199,106.25 c -8.25,0-17.25,6.25-21.75,10.25 s -11,8.75-16.25,7.5-4-11.75-1.5-19.5,9.75-52.5,11-62.75-.75-15.25-5-16-6.75,2.75-8.5,8.5-8.5,33-12.25,44.75-5,16.75-8.25,16.5-6.75-1.5-7.25-10-3-49.5-3.25-57.25-3.25-14.75-7.25-14.75-6.25,1.75-7.75,11-1.25,42.5-1.5,52.75-1.25,16-4.5,16.25 S 99.75,89,98.25,81.25 C 95.75,80,83.75,80.75,79,87 c .25,6.25,2,15.75-1.75,17.25 S 69.5,93.5,65.75,82.75 s -6.5-28-13-26.25-2,21.75,4.25,46.75 S 78.75,161,85.75,176,92,202,90,216.25 C 88.63,226,85.13,241.36,83.08,250 h 58.29 c -1.54-10.49-5.37-37.47-5.37-47.25,0-12.25,14.25-26.25,25.5-32.5 s 16-19.75,18-23.5,17.75-27.25,33-32.25 C 212.5,112.5,207.25,106.25,199,106.25Z" fill="param(skin_tone)"/>
    <path d="M 75,60.83 s -1.75-18.08-2.12-25.58,3.13-8.87,5.88-8.37,5,5.25,6.13,9.38,5,20,5,20Z" fill="param(skin_tone)"/>
  </g>
  <g id="fixed-colours">
    <path d="M 98.88,82 s -3.75-3.37-10.75-.37 S 78.5,87,78.5,87 s -5.87-5.5,2.38-11 a 15.51,15.51,0,0,0,4.38,2.25 s 6.5-1.62,7.75-2.75 S 94.75,71,94.75,71,102.38,75.75,98.88,82Z" fill="#f8d0c9"/>
    <path d="M 84.5,78.38,71.25,68.25,75,60.83 l 15.63-4.21,8.5,2.13 L 93,75.5 S 90.75,79.13,84.5,78.38Z" fill="#dae5ea"/>
    <path d="M 49,64.5 s -.12-6.37,3.5-7.37,6.75,7.25,6.75,7.25-.87,5.25-3.62,5.75 S 49.38,67.5,49,64.5Z" fill="#fff"/>
    <path d="M 73.38,38.25 S 72.5,32,74,28.88 s 5.13-2.75,7.13-.37,3.75,7.75,3.75,7.75-2.5,4.38-4.62,4.63 S 75.75,40.38,73.38,38.25Z" fill="#fff"/>
    <path d="M 111.63,23.25 s 1.38-9.5,5.75-9.87,7,7.38,7.38,9.5 c -2,4-3.37,5.88-6.25,6 S 111.63,23.25,111.63,23.25Z" fill="#fff"/>
    <path d="M 158.25,31.5 s .08,8.08,3.92,9,7.33-4.54,7.71-6.67 c -.75-5.12-2.37-7.25-4.62-7.25 A 8.34,8.34,0,0,0,158.25,31.5Z" fill="#fff"/>
    <path d="M 198.67,122.67 s -5-1.67-4-4.33,4.5-5.83,7.5-6.17,7,3,7,3Z" fill="#fff"/>
    <path d="M 73.67,36.67 S 75.33,41,79.5,40.5,84,34.17,84,34.17 l 1,2.67 s -2,4.83-5.33,5-7.17-4-7.17-4Z"/>
    <path d="M 49.83,64.67 s 2.33,6.67,6,4.83,2.5-7.5,2.5-7.5 l 1.33,2.83 s -.5,5.83-3.67,6.33 S 49.83,68,49.33,67.33,49.83,64.67,49.83,64.67Z"/>
    <path d="M 112.17,20.5 s 2.17,7.83,6.67,7.5,5.67-7.83,5.67-7.83 l .67,2.67 S 123.5,30,118.5,29.67 s -7.83-8.5-7.83-8.5Z"/>
    <path d="M 159.5,30.17 s -1.33,8.83,2.67,10,7.17-6.33,7.33-8.33 c .17,1.83.5,4.17.5,4.17 s -3.67,6.5-7.83,5.67-4.83-11.33-4.83-11.33Z"/>
    <path d="M 58.83,91.67 a 8.88,8.88,0,0,1,5.83-1.83 A 51,51,0,0,0,58.83,91.67Z"/>
    <path d="M 55.83,78.67 s 1.33-2.33,5-1.17 A 37.76,37.76,0,0,0,55.83,78.67Z"/>
    <path d="M 77.83,52 s 2.5-2.5,7.5-1.33 C 82.5,51,77.83,52,77.83,52Z"/>
    <path d="M 115,39.17 s 4.5-1.83,7.5,0 C 120.33,39,115,39.17,115,39.17Z"/>
    <path d="M 115.67,60.17 a 9.57,9.57,0,0,1,8,.67 A 79.36,79.36,0,0,0,115.67,60.17Z"/>
    <path d="M 156.5,53 s 5.17-1,7.33,2 A 37.81,37.81,0,0,0,156.5,53Z"/>
    <path d="M 151.67,73.17 s 5.83-1.5,9.17,2.5 C 157.67,73.83,151.67,73.17,151.67,73.17Z"/>
    <path d="M 180,125.33 s 6.83,3,8,7-.5,2.67-1.5.67 S 182,127.33,180,125.33Z"/>
    <path d="M 210,114.67 s -4.5-4-9-3.17-7.67,7-7.5,8.83,4.17,2.83,4.17,2.83 l 1.17-1.33 s -5-.33-2.67-4.17,6.5-7.83,13.17-1.67 C 210.67,116,210,114.67,210,114.67Z"/>
    <path d="M 89.25,120.25 s 2.5,9,4,13 C 94.25,124.75,89.25,120.25,89.25,120.25Z"/>
    <path d="M 110.75,107.5 s -1.5,8.75,1.75,24.25 C 113.75,117,110.75,107.5,110.75,107.5Z"/>
    <path d="M 134.25,117.5 a 25,25,0,0,0-.5,11.25 C 135.75,125,134.25,117.5,134.25,117.5Z"/>
    <path d="M 187,107.33 c -11.67,6.33-21.33,17.33-25.33,15 s -1-12.33,2-25,8.33-53,8.33-64.67-12-11.33-14.67-5.33-8.33,25-10.67,35.33-7,31-11,30.67-4-5.67-4.33-13.67-3-45.33-4-54.33-4.67-13.67-9-14-7.33,2.67-8,8.33 S 108,53,107.67,63.67 s -.33,28.33-3,28.33-3.33-3.67-4.33-8.67 c 3.67-7.67-3-12.33-3-12.33 s 1.92-8.25,3.25-13.25 a 61.52,61.52,0,0,0-9.17-2.42 s -5.75-26-8.75-29-11-1.67-11.67,4.33,2.38,30.71,2.38,30.71 L 69.67,68 s 3.33,3.38,8,7.63 c -2,3-4.29,9.71-1,12.71 C 77,92,79.33,101,76.33,101.67 S 67.67,85,65,76.33,58,51.33,52,54 s -5,11.33-3.33,21.67 S 62.33,129.33,67.33,142 s 21,44.67,21.33,53.67 S 84.78,233.85,79.23,250 h 8.2 c .87-4.14,2.88-13.77,3.91-19.67,1.33-7.67,4.67-27,3-37.67 s -14-33-20.33-46.33 S 55,87.67,52.67,77.67,49.33,59,53.33,58.33 s 8.67,15.67,11,23,7.67,27,13,25,4-10.67,3.33-19.33 A 18,18,0,0,1,96,81.33 c 2.33,9.33,4.67,14,8.67,14 s 6.33-3.33,7-11,.33-40,.67-47.67-.67-22,5.67-22,6.67,13,7.33,23.33 S 127,85,129,92.67 s 11,8,14,.33,8.33-31.67,11-41.33,4.33-24.67,11-24,2.67,17,1.33,28.33-8,48-10.67,57.67,2.33,17.67,12,12.67,15.33-15,26.67-17,15.33,4,15.33,4 a 179.21,179.21,0,0,0-17,12.67 c -8.67,7.33-15.67,18-19.33,26.33 S 157,168.67,146.33,178 s -14,19.67-14.33,31.67 c -.28,10.14,3.72,33.39,5,40.33 h 6.77 c -1-6.5-4.55-30.81-5.41-48,1-11.67,12-19.33,25.33-29.67 s 17.33-26.33,21-31,17.33-20,29.67-26 C 213.67,106.33,198.67,101,187,107.33Z M 78,27.67 c 2-.17,4.83,4,6.5,11 S 88.83,56,88.83,56 L 76.17,59.59 s -2-18.92-2-24.76 S 76,27.83,78,27.67Z m -1.17,34,13.42-3.92,6.25,1.08 L 91.75,65,79.83,68.17 l -6.5-.5Z M 73.38,69 l 7,.5,12-3.33,5-6.29 L 92,74.83 a 7.93,7.93,0,0,1-7.5,1.83Z M 98.17,80.17 c -5-1.83-10.17-.33-19.67,5.17,0,0-2-5.17,2.17-7.83 a 22.86,22.86,0,0,0,3.83,1.67 s 6.5,0,9.5-2.67 A 33.52,33.52,0,0,0,95.17,73 S 99.5,75.83,98.17,80.17Z"/>
    <polygon points="74.5 71.75 76.25 80 78.75 75.88 74.5 71.75"/>
    <path d="M 77.64,53.17 s -.3,6.49-4.63,6.5 c 3.09,0,4.65,5.87,4.65,5.87 s 1.23-5.88,4-6.19 C 78.58,59,77.64,56.57,77.64,53.17Z" fill="#fff"/>
    <path d="M 92.51,61.12 s -.17,3.75-2.67,3.75 c 1.79,0,2.68,3.39,2.68,3.39 s .71-3.39,2.32-3.58 C 93.05,64.51,92.52,63.08,92.51,61.12Z" fill="#fff"/>
    <path d="M 82.42,76 s -.24,5.25-3.74,5.26 c 2.5,0,3.76,4.75,3.76,4.75 s 1-4.75,3.24-5 C 83.17,80.77,82.42,78.77,82.42,76Z" fill="#fff"/>
    <path d="M 213,167.87 s -.29,13.89-10.43,13.56 c 6.78,2.09,8.12,4.94,8.7,14.75,2.6-10.38,5.11-14.07,9.8-13.55 C 215.81,180,213.24,176.85,213,167.87Z" fill="#f8c1d9"/>
    <path d="M 174.73,215.61 s -1,6.78-5.21,7.82 c 4.69,1,4.69,9.91,4.69,9.91 s .52-8.86,4.69-9.91 C 176.29,222.39,174.73,215.61,174.73,215.61Z" fill="#f8c1d9"/>
    <path d="M 189.8,51.75 s -1,6.78-5.21,7.82 c 4.69,1,4.69,9.91,4.69,9.91 s .52-8.86,4.69-9.91 C 191.37,58.53,189.8,51.75,189.8,51.75Z" fill="#f8c1d9"/>
    <path d="M 31.35,36.85 S 30.83,55,18.42,56.08 c 9.91,1.56,12,8.58,12.42,21,1-14.25,2.83-19.33,10.94-21.46 C 34.58,54.75,32.08,48.08,31.35,36.85Z" fill="#f8c1d9"/>
    <path d="M 97.14,7 s -.52,10.95-7.82,10.95 c 5.21,0,7.82,9.91,7.82,9.91 s 2.09-9.91,6.78-10.43 C 98.7,16.91,97.14,12.73,97.14,7Z" fill="#f8c1d9"/>
    <path d="M 12.54,138.75 s -2.09,10.43-8.34,10.43 c 6.26,1,8.34,6.26,8.34,13,1-11.47,5.74-13,7.82-13.56 C 14.11,148.13,13.06,144.48,12.54,138.75Z" fill="#f8c1d9"/>
    <path d="M 225,13 s -1.77,8.87-7.09,8.87 c 5.32.89,7.09,5.32,7.09,11.09.89-9.76,4.88-11.09,6.65-11.53 C 226.33,21,225.45,17.88,225,13Z" fill="#f8c1d9"/>
    <path d="M 46.13,210.25 s 0,9.78-8.31,9.78 c 6.26,1.56,8.34,5.74,8.34,10.95.72-7.1,2.47-10.1,7.6-11.35 C 47.49,218.58,47.17,216,46.13,210.25Z" fill="#f8c1d9"/>
    <path d="M 238.95,89.51 s -1.56,10.95-7.82,13 c 5.21,2.09,6.78,13,6.78,13 s 1-13,6.78-13.56 C 238.43,101,238.95,89.51,238.95,89.51Z" fill="#f8c1d9"/>
  </g>
<script type="text/ecmascript" xlink:href="param.min.js"/> 
</svg>
