<?xml version="1.0"?>
<svg xmlns="http://www.w3.org/2000/svg" xmlns:xlink="http://www.w3.org/1999/xlink" id="fixed-colours" viewBox="0 0 250 250">
  <title>pizza</title>
  <path d="M 78.67,48.33 S 71.67,32,90,23 s 52.67-9,55.33,25.33 c 22.67-16.33,39-14.67,58-1.67 s 32.33,34,17.67,48 c -9.33,5-19.67,4.67-28.67,10.33 S 168,124,159,138 c -.67,6.33-4,11.67-8.67,11.67-9,10.33-29.33,54-29.33,54 s .33,18.33-5.67,18.33-8-10-10-9.67,0,14.67-3.33,16.33-6-3-8.33-3 S 95,240,87.67,241,76,232,76,232 s -14.67,8.67-22.67,0,.33-14,6-22.33,6-34,3.33-50.67 c -12.67-9-8-32.67-1.67-38.33 C 59.33,100,65.33,82.33,67.67,79,60.67,67,67.33,53.67,78.67,48.33Z"/>
  <path d="M 85.33,45.67 s -3.67-17,19.33-20 S 138,36.33,140.33,44.33 s 3,11.67,12.67,5.33,24-10,41.67-1.67 S 222.33,72.33,220,82.33 s -12.67,10.33-16.67,10-7-9.67-11-16 S 175.67,56.67,153,63.67 c -16.82,5.19-20.33,1.67-24.33-8 S 105.33,32.33,85.33,45.67Z" fill="#f7ca94"/>
  <path d="M 95.33,49.33 s 6-7.67,20,.67,6.33,22.67,25,20.33 c 15.56-1.94,27.33-6,38.67-.67 s 9.67,14,18.33,23.33 c -12.33-3.67-23,5.33-24.33,9.67 s .67,11-8.33,9-18.33,8.67-16,17.33.33,15.33-5.67,11.67-12.33,5-12,14.33-.67,18.67-4,15-11-7.67-11.67,4.67,2.33,38.33-1.67,39-4.67-10.33-9.33-9.33-2.67,17.67-5.33,18-5.67-6.33-8.67-4.67 S 89.67,235,86,235.33,82.33,224,79,224 s -8.67,6-13.67,5.67-9-5-3.67-11.33 S 73.67,205,68,159.67 c 8.67,1,18.67-2.33,21.67-19.33 S 85.33,108.67,68,116 c 1-20,3.67-29.33,6.67-36 C 87.67,81.67,109,64,95.33,49.33Z" fill="#faf399"/>
  <path d="M 195.25,96.75 S 179,94,175,110.75 C 183.5,103,195.25,96.75,195.25,96.75Z" fill="#f7ca94"/>
  <path d="M 169.5,115.25 s -12,12-15,20 C 154,126.5,156.5,115.75,169.5,115.25Z" fill="#f7ca94"/>
  <path d="M 146,146.5 s -7.25-6-9.25,4-1.5,14.5-1.5,14.5 S 141.5,150.5,146,146.5Z" fill="#f7ca94"/>
  <path d="M 126.5,177.75 S 123,171,121,173.5 s -1.5,18.5-1.5,18.5Z" fill="#f7ca94"/>
  <path d="M 122.5,84.5 c 9.32-10.43,22.75-15.25,30.75-11.25 s 8,17.5-2.75,24.25 c -7,1.75-15,8-16,12.25 s -10.5,4.25-16,.5 S 112,96.25,122.5,84.5Z"/>
  <path d="M 130,108.25 s -12,1-10-9,12.75-19.25,20.25-22,13.75-1.25,14.5,5-2.5,11.25-7.5,12.5 S 132.5,100.75,130,108.25Z" fill="#ec008c"/>
  <path d="M 62.75,136.75 c 1.14-11.22,7.67-17.33,13.92-17.08 s 12.08,3.5,9.33,20-12.25,16.25-15,16 S 61.25,151.5,62.75,136.75Z" fill="#ec008c"/>
  <path d="M 87,181 c 7.5-8.25,18.25-4.75,18,3 s -7,18.25-15.5,18.5 S 76.77,192.25,87,181Z"/>
  <path d="M 87.25,185.5 c 4.66-7.66,14.25-9,13.5.75 S 90.5,199.75,87,198.5,83.75,191.25,87.25,185.5Z" fill="#ec008c"/>
  <path d="M 210.5,69.75 s -14.5,8.25-6,24.5 c -1.25,1.5-5.75-3-5.75-3 S 195.25,75,210.5,69.75Z"/>
  <path d="M 74,74.83 c -4.42-1.8-4.33-12.17,2-17.67 s 12.83-6.5,16.33-4,3.5,11.17-1.33,16 S 78.5,76.67,74,74.83Z" fill="#ec008c"/>
  <path d="M 74,123 c -3.43-2.29-8.67,6.67-8.67,16 s 5,15.67,6,11.67-2.33-8.33-1.33-16 S 78,125.67,74,123Z" fill="#fff" opacity="0.5"/>
  <path d="M 73.33,95.33 C 74.92,86.42,77,82.67,80,83 s -2.67,11.33-2,20 S 70.67,110.33,73.33,95.33Z" fill="#fff"/>
  <path d="M 130.67,86.33 c 7.84-7.84,17-9.33,17.33-5.67 s -8,1.33-14.33,9-8,13.33-10.33,12.67 S 122,95,130.67,86.33Z" fill="#fff" opacity="0.5"/>
  <path d="M 72.33,185.33 c 0,9.67.33,22-5.67,30.33 S 64,223.33,68,219.33 s 10-20,9.67-33.67 S 75,163,73,163,72.33,172.33,72.33,185.33Z" fill="#fff"/>
  <path d="M 90,185.67 c -2.69,3-3.67,8.67-2,9 s 2-7,6.67-9.67 S 96,179,90,185.67Z" fill="#fff" opacity="0.5"/>
  <path d="M 78,58 c -3.81,6.35-5.33,11.33-3.33,11.67 s .67-5.33,5.33-9.33,10-3,9.67-5.67 S 80,54.67,78,58Z" fill="#fff" opacity="0.5"/>
  <path d="M 117.25,163.75 c -2.44,1.83-3.25,7.25-3.25,10.5 s -2.5,5.5-3,.75-.5-14.5,7-16,9.75,6.5,8.5,7 S 120.25,161.5,117.25,163.75Z" fill="#fff"/>
  <path d="M 130,142.5 s 3.5-6.75,8.75-5.75,1-2.75-2.25-3.25-8.5,4.5-8.75,7 S 127.5,146,130,142.5Z" fill="#fff"/>
  <path d="M 148.75,114.25 s 4.5-6.5,11.5-6.25,3.25-3.75-1.25-3.25-9.5,2.75-11.75,5.75 S 142.5,118,148.75,114.25Z" fill="#fff"/>
  <path d="M 87.83,218.83 C 88.6,215.15,90.67,213,93,216 s 2.5,0,.33-2.5-5.67-2.33-6.67,2.5 S 87,222.83,87.83,218.83Z" fill="#fff"/>
  <path d="M 47.07,174.75 s -26.49,6.46-23,14.6 S 47.07,174.75,47.07,174.75Z" fill="#6dcff6"/>
  <path d="M 149.35,26.54 s 10.06-16.76,4.17-19.11 S 149.35,26.54,149.35,26.54Z" fill="#6dcff6"/>
  <path d="M 46.54,75.84 S 21.32,54.33,12.69,62.36,33.65,71.55,46.54,75.84Z" fill="#6dcff6"/>
  <path d="M 36.72,45.95 s -24.4-7.23-19.88-18.08 S 31.38,41.75,36.72,45.95Z" fill="#6dcff6"/>
  <path d="M 207,34.88 s 18.08-29.82,28.92-23.5 S 207,34.88,207,34.88Z" fill="#6dcff6"/>
  <path d="M 190.79,179.16 S 235,187.44,229.93,202,190.79,179.16,190.79,179.16Z" fill="#6dcff6"/>
  <path d="M 220.68,45.2 s 16.81-6.67,18.22-.3 S 220.68,45.2,220.68,45.2Z" fill="#6dcff6"/>
  <path d="M 40.9,202.77 s -29,15-19.48,23.79 S 40.9,202.77,40.9,202.77Z" fill="#6dcff6"/>
  <path d="M 142.57,210.85 s 18.16,14.41,10.95,20.72 S 142.57,210.85,142.57,210.85Z" fill="#6dcff6"/>
  <path d="M 190.83,125.68 s 22.66-4.87,23,4.7 S 190.83,125.68,190.83,125.68Z" fill="#6dcff6"/>
<script type="text/ecmascript" xlink:href="param.min.js"/> 
</svg>
