<?xml version="1.0"?>
<svg xmlns="http://www.w3.org/2000/svg" xmlns:xlink="http://www.w3.org/1999/xlink" id="fixed-colours" viewBox="0 0 250 250">
  <title>sexy-mouth</title>
  <path d="M 20.67,152 s 23-12.67,40-44,28.92-52.08,44.58-51.75 S 128,67,129.67,71.33 c 5.33-12.67,16.67-17.33,26-15.67 S 175,69.3,190.25,92.75 s 34.25,47.5,46.42,54.92 c -18,7-44.67,36.33-57,46 s -28.33,24-61.67,21-48-27.33-63-39.33 S 26,153.67,20.67,152Z"/>
  <path d="M 29.67,151.33 a 120.3,120.3,0,0,0,35-37 C 79.33,90,91,69,103,66.67 s 23.33,7,26.33,17 c 8.33-17.67,25-21.33,34-14 S 203,129,227.67,147 c -19,8.33-40.33,30.67-51.67,40.33 S 137,210,113,204.67 s -38.33-19-47.67-28.67 S 43.33,155.67,29.67,151.33Z" fill="#e1192b"/>
  <path d="M 29.33,148.67 s 12,3.33,27-6.67,44-35,52.67-34.67,11.67,5.33,19.33,5.67,13.33-7.67,19.67-7.67,54.33,39,81.67,40 c 2,3,0,3,0,3 s -27.33-2-43.67,5-37.33,16.67-56,16-40.67-8.33-49-12 S 38.67,151.67,29,154 C 26,152.67,29.33,148.67,29.33,148.67Z"/>
  <path d="M 72,137.67 S 86,127.33,92.33,122 s 15.33-9.33,21.33-6,16.67,7,24.67.67,11.67-6,19.33-.33,27.67,19.33,27.67,19.33-19.33,2-24.67-2 c -9.33,7.67-21,7-32,1-12.33,6-20.33,9-34.33,1.67 A 142.92,142.92,0,0,1,72,137.67Z" fill="#fff"/>
  <path d="M 103,74.33 c 6.35-3.63,14.33.33,16.33,5 s -2,6.58-7.33,3.92 S 102.4,84.38,97.5,91 c -6.17,8.33-14.17,14.33-11.17,5.67 S 98.33,77,103,74.33Z" fill="#fff" opacity="0.5"/>
  <path d="M 143,81.67 c -2.15-3.13,4.33-10.67,12.67-8.33 S 170.5,86.17,172.5,91.17 s -2,6.67-5.67,1.67 S 158,80.67,152.67,80,144.83,84.33,143,81.67Z" fill="#fff" opacity="0.5"/>
  <path d="M 130,185 c 14.33-.52,28.13-7.21,30.67-3.33,3.33,5.08-14.08,16.42-31.42,16.08 S 92.67,190,96.33,182.67,111.67,185.67,130,185Z" fill="#fff" opacity="0.5"/>
  <path d="M 29.39,192.27 S 16.75,190,10.49,183.6,4.56,169.87,9.83,171 s 9.67,6.51,9.67,6.51-3.68-9.17,1.11-15.33 S 33,168.34,29.39,192.27Z" fill="#ed8894"/>
  <path d="M 209.25,44.69 s -4.36-14.93-2.73-27.46,16.16-21.68,8.2,12.9 c 8.11-19.38,23.84-25.73,16.53-8.35 S 209.25,44.69,209.25,44.69Z" fill="#ed8894"/>
  <path d="M 194,238.65 a 42.62,42.62,0,0,1-2.44-15.88 c .49-8.31,4.4-13.68,6.84-11 s .73,11.49.73,11.49,5.62-8.8,8.06-8.31 S 213.33,224.33,194,238.65Z" fill="#ed8894"/>
  <path d="M 230.57,123.18 s -8.73-19.08-3.77-21.84,5.91,10.29,5.91,10.29,6-7.77,9.48-8.2 S 244.61,111.07,230.57,123.18Z" fill="#ed8894"/>
  <path d="M 65.75,236.84 S 51,228.43,55,222.25 c 2.55-3.87,7.9,3.6,7.9,3.6 s .68-7.62,4.11-7.68 C 69.89,218.12,72.33,223.67,65.75,236.84Z" fill="#ed8894"/>
  <path d="M 41.56,51.38 s -14.52-2.19-21.78-9-8.7-19,11.22-4.83 c -3.37-13.22-1.28-19.74,4-17.45 S 42.19,41.09,41.56,51.38Z" fill="#ed8894"/>
  <path d="M 100.76,50 s -6.38-3.13-9-7,.81-10.11,5.56-2.83 c 0-5.87,4.1-7.84,5-2.11 S 100.76,50,100.76,50Z" fill="#ed8894"/>
<script type="text/ecmascript" xlink:href="param.min.js"/> 
</svg>
