<?xml version="1.0"?>
<svg xmlns="http://www.w3.org/2000/svg" xmlns:xlink="http://www.w3.org/1999/xlink" id="fixed-colours" viewBox="0 0 250 250">
  <title>speech-bubble-gone-shopping</title>
  <path d="M 16.67,216.67 s 30.67-18,30.67-38 c -14-.67-30.67-6.67-34-34.67 s -2.67-72.17,18-86.17 S 72,48.5,88.67,50.5 s 39.33,1.33,72.67-1.33,58.5-2.67,69.83,6.67,8.33,26.84,8.33,39.67 c 0,14,.67,39.67,0,49.5-.68,10.07-5.67,37.67-33,37.67 s -99.17-4.67-113.83.67 C 78.5,196,60.67,220,16.67,216.67Z" fill="#f8c1d9"/>
  <path d="M 56.5,173 s -23.17,1.67-31.17-21.67-5.33-67.5,6-80.83 S 61.07,55.84,76,57.67 c 16.33,2,72,3.5,94.67.17 s 46.5-.67,55.83,8.67,2.67,46.83,4,60.83,2.67,36.67-14.67,43.33 S 170,174,148,172.67 s -63.33,2.67-63.33,2.67 S 65,206.5,35,210 C 56.33,195.33,56.5,181.67,56.5,173Z" fill="#fff"/>
  <path d="M 96.57,89.69 h 8.51v12 c 0,6-3.09,9.49-9.06,9.49 S 87,107.71,87,101.67V82 c 0-6,3.09-9.49,9.06-9.49 S 105.08,76,105.08,82V85.7 H 99.34v-4 c 0-2.7-1.22-3.72-3.15-3.72 S 93,79,93,81.66V102 c 0,2.7,1.21,3.67,3.15,3.67 s 3.15-1,3.15-3.67v-7 H 96.57Z" fill="#ec008c"/>
  <path d="M 108.51,82 c 0-6,3.26-9.49,9.22-9.49 S 127,76,127,82v19.63 c 0,6-3.26,9.49-9.22,9.49 s -9.22-3.45-9.22-9.49Z m 6.08,20 c 0,2.7,1.21,3.72,3.15,3.72 s 3.15-1,3.15-3.72V81.66 c 0-2.7-1.22-3.72-3.15-3.72 s -3.15,1-3.15,3.72Z" fill="#ec008c"/>
  <path d="M 136.29,83.38v27.35 h -5.47V73 h 7.62 l 6.24,22.6V73 h 5.41v37.76 h -6.24Z" fill="#ec008c"/>
  <path d="M 160.54,88.88 h 8.34v5.39 h -8.34v11.06 H 171v5.39 H 154.46V73 H 171v5.39 h -10.5Z" fill="#ec008c"/>
  <path d="M 58.07,117.44 c 5.87,0,8.89,3.43,8.89,9.43v1.18 H 61.25V126.5 c 0-2.68-1.1-3.7-3-3.7 s -3,1-3,3.7 c 0,7.72,11.8,9.17,11.8,19.89,0,6-3.07,9.43-9,9.43 s -9-3.43-9-9.43v-2.3 h 5.71v2.68 c 0,2.68,1.21,3.64,3.13,3.64 s 3.13-1,3.13-3.64 c 0-7.72-11.8-9.17-11.8-19.89 C 49.17,120.87,52.19,117.44,58.07,117.44Z" fill="#ec008c"/>
  <path d="M 76.51,155.39 h -6V117.87 h 6V134 h 6.86V117.87 h 6.15v37.52 H 83.37V139.31 H 76.51Z" fill="#ec008c"/>
  <path d="M 93.41,126.88 c 0-6,3.24-9.43,9.17-9.43 s 9.17,3.43,9.17,9.43v19.51 c 0,6-3.24,9.43-9.17,9.43 s -9.17-3.43-9.17-9.43Z m 6,19.89 c 0,2.68,1.21,3.7,3.13,3.7 s 3.13-1,3.13-3.7V126.5 c 0-2.68-1.21-3.7-3.13-3.7 s -3.13,1-3.13,3.7Z" fill="#ec008c"/>
  <path d="M 133.53,127.15V132 c 0,6-3,9.27-9,9.27 h -2.85v14.1 h -6V117.87 h 8.89 C 130.56,117.87,133.53,121.14,133.53,127.15Z m -11.86-3.91v12.7 h 2.85 c 1.92,0,3-.86,3-3.54v-5.63 c 0-2.68-1-3.54-3-3.54Z" fill="#ec008c"/>
  <path d="M 154.22,127.15V132 c 0,6-3,9.27-9,9.27 h -2.85v14.1 h -6V117.87 h 8.89 C 151.25,117.87,154.22,121.14,154.22,127.15Z m -11.86-3.91v12.7 h 2.85 c 1.92,0,3-.86,3-3.54v-5.63 c 0-2.68-1-3.54-3-3.54Z" fill="#ec008c"/>
  <path d="M 157,117.87 h 6v37.52 h -6Z" fill="#ec008c"/>
  <path d="M 172.82,128.22v27.18 h -5.43V117.87 H 175 l 6.2,22.46V117.87 h 5.38v37.52 h -6.2Z" fill="#ec008c"/>
  <path d="M 199.93,134.49 h 8.45v11.9 c 0,6-3.07,9.43-9,9.43 s -9-3.43-9-9.43V126.88 c 0-6,3.07-9.43,9-9.43 s 9,3.43,9,9.43v3.65 h -5.71v-4 c 0-2.68-1.21-3.7-3.13-3.7 s -3.13,1-3.13,3.7v20.26 c 0,2.68,1.21,3.64,3.13,3.64 s 3.13-1,3.13-3.64v-6.92 h -2.74Z" fill="#ec008c"/>
<script type="text/ecmascript" xlink:href="param.min.js"/> 
</svg>
