<?xml version="1.0"?>
<svg xmlns="http://www.w3.org/2000/svg" xmlns:xlink="http://www.w3.org/1999/xlink" id="fixed-colours" viewBox="0 0 250 250">
  <title>speech-bubble-squad</title>
  <path d="M 16.67,216.67 s 30.67-18,30.67-38 c -14-.67-30.67-6.67-34-34.67 s -2.67-72.17,18-86.17 S 72,48.5,88.67,50.5 s 39.33,1.33,72.67-1.33,58.5-2.67,69.83,6.67,8.33,26.84,8.33,39.67 c 0,14,.67,39.67,0,49.5-.68,10.07-5.67,37.67-33,37.67 s -99.17-4.67-113.83.67 C 78.5,196,60.67,220,16.67,216.67Z" fill="#f8c1d9"/>
  <path d="M 56.5,173 s -23.17,1.67-31.17-21.67-5.33-67.5,6-80.83 S 61.07,55.84,76,57.67 c 16.33,2,72,3.5,94.67.17 s 46.5-.67,55.83,8.67,2.67,46.83,4,60.83,2.67,36.67-14.67,43.33 S 170,174,148,172.67 s -63.33,2.67-63.33,2.67 S 65,206.5,35,210 C 56.33,195.33,56.5,181.67,56.5,173Z" fill="#fff"/>
  <path d="M 53.11,125.45 H 48.44 l -1.51,14 H 40.47 l 1.51-14 H 38.46 L 39,120 h 3.52 l 1.36-12.84 H 40.33 l .57-5.47 h 3.59 l 1.22-11.3 h 6.47 L 51,101.66 h 4.67 l 1.22-11.3 h 6.47 l -1.22,11.3 h 3.66 l -.57,5.47 H 61.52 L 60.15,120 h 3.66 l -.57,5.47 H 59.58 l -1.51,14 H 51.61Z M 49,120 h 4.67 l 1.37-12.84 H 50.38Z" fill="#ec008c"/>
  <path d="M 82.14,89.8 c 7.69,0,11.64,4.49,11.64,12.35v1.54 H 86.31v-2 c 0-3.51-1.44-4.84-4-4.84 s -4,1.33-4,4.84 c 0,10.1,15.45,12,15.45,26,0,7.86-4,12.35-11.78,12.35 s -11.78-4.49-11.78-12.35v-3 h 7.47v3.51 c 0,3.51,1.58,4.77,4.09,4.77 s 4.09-1.26,4.09-4.77 c 0-10.1-15.45-12-15.45-26 C 70.5,94.29,74.45,89.8,82.14,89.8Z" fill="#ec008c"/>
  <path d="M 99.53,102.15 c 0-7.86,4.24-12.35,12-12.35 s 12,4.49,12,12.35v25.54 a 14.18,14.18,0,0,1-1.51,6.88 c .36.91.93,1.05,2.23,1.05 H 125v6.88 h -1.08 c -3.52,0-5.75-1.26-6.82-3.37 a 16.55,16.55,0,0,1-5.53.91 c -7.76,0-12-4.49-12-12.35Z m 7.9,26 c 0,3.51,1.58,4.84,4.09,4.84 s 4.09-1.33,4.09-4.84V101.66 c 0-3.51-1.58-4.84-4.09-4.84 s -4.09,1.33-4.09,4.84Z" fill="#ec008c"/>
  <path d="M 138,90.36v37.89 c 0,3.51,1.58,4.77,4.09,4.77 s 4.09-1.26,4.09-4.77V90.36 h 7.47v37.4 c 0,7.86-4,12.35-11.78,12.35 s -11.78-4.49-11.78-12.35V90.36Z" fill="#ec008c"/>
  <path d="M 186.38,139.48 h -8 L 177,130.57 h -9.7 L 166,139.48 h -7.26 l 8-49.12 h 11.57Z m -18-15.58 H 176 l -3.81-24.84Z" fill="#ec008c"/>
  <path d="M 191.85,90.36 h 12.5 c 7.9,0,11.78,4.28,11.78,12.14v24.84 c 0,7.86-3.88,12.14-11.78,12.14 h -12.5Z m 7.9,7v35.09 h 4.45 c 2.51,0,4-1.26,4-4.77V102.15 c 0-3.51-1.51-4.77-4-4.77Z" fill="#ec008c"/>
<script type="text/ecmascript" xlink:href="param.min.js"/> 
</svg>
