<?xml version="1.0"?>
<svg xmlns="http://www.w3.org/2000/svg" xmlns:xlink="http://www.w3.org/1999/xlink" id="fixed-colours" viewBox="0 0 250 250">
  <title>speech-bubble-goals</title>
  <path d="M 16.67,216.67 s 30.67-18,30.67-38 c -14-.67-30.67-6.67-34-34.67 s -2.67-72.17,18-86.17 S 72,48.5,88.67,50.5 s 39.33,1.33,72.67-1.33,58.5-2.67,69.83,6.67,8.33,26.84,8.33,39.67 c 0,14,.67,39.67,0,49.5-.68,10.07-5.67,37.67-33,37.67 s -99.17-4.67-113.83.67 C 78.5,196,60.67,220,16.67,216.67Z" fill="#f8c1d9"/>
  <path d="M 56.5,173 s -23.17,1.67-31.17-21.67-5.33-67.5,6-80.83 S 61.07,55.84,76,57.67 c 16.33,2,72,3.5,94.67.17 s 46.5-.67,55.83,8.67,2.67,46.83,4,60.83,2.67,36.67-14.67,43.33 S 170,174,148,172.67 s -63.33,2.67-63.33,2.67 S 65,206.5,35,210 C 56.33,195.33,56.5,181.67,56.5,173Z" fill="#fff"/>
  <path d="M 55.51,125.1 H 50.73 l -1.55,14.39 H 42.55 L 44.1,125.1 H 40.49 l .59-5.61 h 3.61 l 1.4-13.17 H 42.4 l .59-5.61 h 3.68 l 1.25-11.58 h 6.63 L 53.3,100.71 h 4.79 l 1.25-11.58 H 66 l -1.25,11.58 h 3.76 l -.59,5.61 H 64.13 l -1.4,13.17 h 3.76 l -.59,5.61 H 62.14 L 60.6,139.48 H 54Z m -4.2-5.61 H 56.1 l 1.4-13.17 H 52.71Z" fill="#ec008c"/>
  <path d="M 86.53,111.43 H 97.87v16 c 0,8.06-4.13,12.66-12.08,12.66 s -12.08-4.6-12.08-12.66V101.21 c 0-8.06,4.13-12.66,12.08-12.66 s 12.08,4.6,12.08,12.66v4.89 H 90.21v-5.4 c 0-3.6-1.62-5-4.2-5 s -4.2,1.37-4.2,5V127.9 c 0,3.6,1.62,4.89,4.2,4.89 s 4.2-1.3,4.2-4.89v-9.28 H 86.53Z" fill="#ec008c"/>
  <path d="M 104.28,101.21 c 0-8.06,4.35-12.66,12.3-12.66 s 12.3,4.6,12.3,12.66V127.4 c 0,8.06-4.35,12.66-12.3,12.66 s -12.3-4.6-12.3-12.66Z m 8.1,26.69 c 0,3.6,1.62,5,4.2,5 s 4.2-1.37,4.2-5V100.71 c 0-3.6-1.62-5-4.2-5 s -4.2,1.37-4.2,5Z" fill="#ec008c"/>
  <path d="M 162.11,139.48 h -8.18 l -1.4-9.14 h -9.95 l -1.4,9.14 h -7.44 L 142,89.12 h 11.86Z m -18.49-16 h 7.81 L 147.52,98Z" fill="#ec008c"/>
  <path d="M 167.71,89.12 h 8.1v43.17 h 13.33v7.19 H 167.71Z" fill="#ec008c"/>
  <path d="M 205.42,88.55 c 7.88,0,11.93,4.6,11.93,12.66v1.58 H 209.7v-2.09 c 0-3.6-1.47-5-4.05-5 s -4.05,1.37-4.05,5 c 0,10.36,15.84,12.3,15.84,26.69,0,8.06-4.13,12.66-12.08,12.66 s -12.08-4.6-12.08-12.66V124.3 h 7.66v3.6 c 0,3.6,1.62,4.89,4.2,4.89 s 4.2-1.3,4.2-4.89 c 0-10.36-15.84-12.3-15.84-26.69 C 193.49,93.15,197.54,88.55,205.42,88.55Z" fill="#ec008c"/>
<script type="text/ecmascript" xlink:href="param.min.js"/> 
</svg>
