<?xml version="1.0"?>
<svg xmlns="http://www.w3.org/2000/svg" xmlns:xlink="http://www.w3.org/1999/xlink" id="fixed-colours" viewBox="0 0 250 250">
  <title>speech-bubble-family</title>
  <path d="M 16.67,216.67 s 30.67-18,30.67-38 c -14-.67-30.67-6.67-34-34.67 s -2.67-72.17,18-86.17 S 72,48.5,88.67,50.5 s 39.33,1.33,72.67-1.33,58.5-2.67,69.83,6.67,8.33,26.84,8.33,39.67 c 0,14,.67,39.67,0,49.5-.68,10.07-5.67,37.67-33,37.67 s -99.17-4.67-113.83.67 C 78.5,196,60.67,220,16.67,216.67Z" fill="#f8c1d9"/>
  <path d="M 56.5,173 s -23.17,1.67-31.17-21.67-5.33-67.5,6-80.83 S 61.07,55.84,76,57.67 c 16.33,2,72,3.5,94.67.17 s 46.5-.67,55.83,8.67,2.67,46.83,4,60.83,2.67,36.67-14.67,43.33 S 170,174,148,172.67 s -63.33,2.67-63.33,2.67 S 65,206.5,35,210 C 56.33,195.33,56.5,181.67,56.5,173Z" fill="#fff"/>
  <path d="M 49.79,124.6 H 45.31 l -1.45,13.47 h -6.2 l 1.45-13.47 H 35.73 l .55-5.25 h 3.38 L 41,107 H 37.52 l .55-5.25 h 3.45 l 1.17-10.84 h 6.2 l -1.17,10.84 H 52.2 l 1.17-10.84 h 6.2 l -1.17,10.84 h 3.52 L 61.37,107 H 57.86 l -1.31,12.32 h 3.52 l -.55,5.25 H 56 l -1.45,13.47 h -6.2Z m -3.93-5.25 h 4.48 L 51.65,107 H 47.17Z" fill="#ec008c"/>
  <path d="M 75,111.87 h 9.79v6.73 H 75v19.46 H 67.44V90.93 H 87.5v6.73 H 75Z" fill="#ec008c"/>
  <path d="M 116.53,138.07 h -7.65 l -1.31-8.55 H 98.26 l -1.31,8.55 H 90 l 7.72-47.14 h 11.1Z m -17.3-14.95 h 7.31 l -3.65-23.84Z" fill="#ec008c"/>
  <path d="M 137.83,124.4,143,90.93 h 10.55v47.14 h -7.17v-33.8 l -5.24,33.8 H 134 l -5.65-33.33v33.33 H 121.7V90.93 h 10.55Z" fill="#ec008c"/>
  <path d="M 160.79,90.93 h 7.58v47.14 h -7.58Z" fill="#ec008c"/>
  <path d="M 175.61,90.93 h 7.58v40.4 h 12.48v6.73 H 175.61Z" fill="#ec008c"/>
  <path d="M 203.53,122.44 l -9.58-31.51 h 7.93 l 5.79,21.48,5.79-21.48 h 7.24 l -9.58,31.51v15.62 h -7.58Z" fill="#ec008c"/>
<script type="text/ecmascript" xlink:href="param.min.js"/> 
</svg>
