<?xml version="1.0"?>
<svg xmlns="http://www.w3.org/2000/svg" xmlns:xlink="http://www.w3.org/1999/xlink" id="fixed-colours" viewBox="0 0 250 250">
  <title>speech-bubble-sparkle</title>
  <path d="M 16.67,216.67 s 30.67-18,30.67-38 c -14-.67-30.67-6.67-34-34.67 s -2.67-72.17,18-86.17 S 72,48.5,88.67,50.5 s 39.33,1.33,72.67-1.33,58.5-2.67,69.83,6.67,8.33,26.84,8.33,39.67 c 0,14,.67,39.67,0,49.5-.68,10.07-5.67,37.67-33,37.67 s -99.17-4.67-113.83.67 C 78.5,196,60.67,220,16.67,216.67Z" fill="#f8c1d9"/>
  <path d="M 56.5,173 s -23.17,1.67-31.17-21.67-5.33-67.5,6-80.83 S 61.07,55.84,76,57.67 c 16.33,2,72,3.5,94.67.17 s 46.5-.67,55.83,8.67,2.67,46.83,4,60.83,2.67,36.67-14.67,43.33 S 170,174,148,172.67 s -63.33,2.67-63.33,2.67 S 65,206.5,35,210 C 56.33,195.33,56.5,181.67,56.5,173Z" fill="#fff"/>
  <path d="M 46.11,124.87 H 42.43 l -1.19,11.05 H 36.15 l 1.19-11.05 H 34.57 l .45-4.31 h 2.77 l 1.08-10.11 H 36 l .45-4.31 h 2.83 l 1-8.9 h 5.09 l -1,8.9 h 3.68 l 1-8.9 h 5.09 l -1,8.9 h 2.89 l -.45,4.31 H 52.73 l -1.08,10.11 h 2.89 l -.45,4.31 H 51.2 L 50,135.92 H 44.92Z m -3.23-4.31 h 3.68 l 1.07-10.11 H 44Z" fill="#ec008c"/>
  <path d="M 69,96.79 c 6.05,0,9.17,3.54,9.17,9.73v1.22 H 72.25v-1.6 c 0-2.76-1.13-3.81-3.11-3.81 S 66,103.37,66,106.13 c 0,8,12.16,9.45,12.16,20.5,0,6.19-3.17,9.73-9.28,9.73 s -9.28-3.54-9.28-9.73v-2.38 h 5.88V127 c 0,2.76,1.24,3.76,3.23,3.76 S 72,129.79,72,127 c 0-8-12.16-9.45-12.16-20.5 C 59.81,100.33,62.92,96.79,69,96.79Z" fill="#ec008c"/>
  <path d="M 101.62,106.8v5 c 0,6.19-3.06,9.56-9.28,9.56 H 89.4v14.54 H 83.18V97.24 h 9.17 C 98.57,97.24,101.62,100.61,101.62,106.8Z m -12.22-4v13.1 h 2.94 c 2,0,3.06-.88,3.06-3.65v-5.8 c 0-2.76-1.08-3.65-3.06-3.65Z" fill="#ec008c"/>
  <path d="M 125.33,135.92 h -6.28 l -1.07-7 h -7.64 l -1.08,7 h -5.71 l 6.34-38.69 H 119Z m -14.2-12.27 h 6 l -3-19.56Z" fill="#ec008c"/>
  <path d="M 142.65,135.92 c -.34-1-.57-1.6-.57-4.75v-6.08 c 0-3.59-1.25-4.92-4.07-4.92 h -2.15v15.75 h -6.22V97.24 H 139 c 6.45,0,9.22,2.93,9.22,8.9v3 c 0,4-1.3,6.58-4.07,7.85,3.11,1.27,4.13,4.2,4.13,8.23v6 a 11.15,11.15,0,0,0,.68,4.7Z m -6.79-33.16v11.88 h 2.43 c 2.32,0,3.73-1,3.73-4.09v-3.81 c 0-2.76-1-4-3.17-4Z" fill="#ec008c"/>
  <path d="M 161.94,120.5,160,124v11.88 h -6.22V97.24 H 160v16.86 l 8.15-16.86 h 6.22 l -8.66,17.24,8.66,21.44 H 168Z" fill="#ec008c"/>
  <path d="M 178.63,97.24 h 6.22V130.4 H 195.1v5.53 H 178.63Z" fill="#ec008c"/>
  <path d="M 205.46,113.54 H 214v5.53 h -8.54V130.4 h 10.75v5.53 h -17V97.24 h 17v5.53 H 205.46Z" fill="#ec008c"/>
<script type="text/ecmascript" xlink:href="param.min.js"/> 
</svg>
