<?xml version="1.0"?>
<svg xmlns="http://www.w3.org/2000/svg" xmlns:xlink="http://www.w3.org/1999/xlink" id="fixed-colours" viewBox="0 0 250 250">
  <title>speech-bubble-cheeky</title>
  <path d="M 16.67,216.67 s 30.67-18,30.67-38 c -14-.67-30.67-6.67-34-34.67 s -2.67-72.17,18-86.17 S 72,48.5,88.67,50.5 s 39.33,1.33,72.67-1.33,58.5-2.67,69.83,6.67,8.33,26.84,8.33,39.67 c 0,14,.67,39.67,0,49.5-.68,10.07-5.67,37.67-33,37.67 s -99.17-4.67-113.83.67 C 78.5,196,60.67,220,16.67,216.67Z" fill="#f8c1d9"/>
  <path d="M 56.5,173 s -23.17,1.67-31.17-21.67-5.33-67.5,6-80.83 S 61.07,55.84,76,57.67 c 16.33,2,72,3.5,94.67.17 s 46.5-.67,55.83,8.67,2.67,46.83,4,60.83,2.67,36.67-14.67,43.33 S 170,174,148,172.67 s -63.33,2.67-63.33,2.67 S 65,206.5,35,210 C 56.33,195.33,56.5,181.67,56.5,173Z" fill="#fff"/>
  <path d="M 52,124.31 H 48.16 l -1.25,11.61 H 41.56 l 1.25-11.61 H 39.89 l .48-4.53 h 2.91 l 1.13-10.62 h -3 l .48-4.53 h 3 l 1-9.35 h 5.35 l -1,9.35 H 54.1 l 1-9.35 h 5.35 l -1,9.35 h 3 L 62,109.16 H 59 l -1.13,10.63 h 3 l -.48,4.53 h -3 l -1.25,11.61 H 50.77Z m -3.39-4.53 h 3.86 l 1.13-10.62 H 49.76Z" fill="#ec008c"/>
  <path d="M 86.2,120.77v5.4 c 0,6.5-3.33,10.22-9.75,10.22 s -9.75-3.72-9.75-10.22V105 c 0-6.5,3.33-10.22,9.75-10.22 S 86.2,98.53,86.2,105V109 H 80v-4.35 c 0-2.9-1.31-4-3.39-4 s -3.39,1.1-3.39,4v21.95 c 0,2.9,1.31,3.95,3.39,3.95 s 3.39-1,3.39-3.95v-5.81Z" fill="#ec008c"/>
  <path d="M 98.21,135.92 H 91.67V95.28 h 6.54V112.7 h 7.43V95.28 h 6.66v40.64 h -6.66V118.51 H 98.21Z" fill="#ec008c"/>
  <path d="M 125.07,112.41 h 9v5.81 h -9v11.9 h 11.3v5.81 H 118.53V95.28 h 17.83v5.81 h -11.3Z" fill="#ec008c"/>
  <path d="M 148.43,112.41 h 9v5.81 h -9v11.9 h 11.3v5.81 H 141.9V95.28 h 17.83v5.81 h -11.3Z" fill="#ec008c"/>
  <path d="M 173.82,119.73 l -2,3.72v12.48 h -6.54V95.28 h 6.54V113 l 8.56-17.71 h 6.54 l -9.1,18.11,9.1,22.53 h -6.72Z" fill="#ec008c"/>
  <path d="M 197.47,122.45 l -8.26-27.17 H 196 l 5,18.52,5-18.52 h 6.24 L 204,122.45v13.47 h -6.54Z" fill="#ec008c"/>
<script type="text/ecmascript" xlink:href="param.min.js"/> 
</svg>
