<?xml version="1.0"?>
<svg xmlns="http://www.w3.org/2000/svg" xmlns:xlink="http://www.w3.org/1999/xlink" id="fixed-colours" viewBox="0 0 250 250">
  <title>speech-bubble-unstoppable</title>
  <path d="M 16.67,216.67 s 30.67-18,30.67-38 c -14-.67-30.67-6.67-34-34.67 s -2.67-72.17,18-86.17 S 72,48.5,88.67,50.5 s 39.33,1.33,72.67-1.33,58.5-2.67,69.83,6.67,8.33,26.84,8.33,39.67 c 0,14,.67,39.67,0,49.5-.68,10.07-5.67,37.67-33,37.67 s -99.17-4.67-113.83.67 C 78.5,196,60.67,220,16.67,216.67Z" fill="#f8c1d9"/>
  <path d="M 56.5,173 s -23.17,1.67-31.17-21.67-5.33-67.5,6-80.83 S 61.07,55.84,76,57.67 c 16.33,2,72,3.5,94.67.17 s 46.5-.67,55.83,8.67,2.67,46.83,4,60.83,2.67,36.67-14.67,43.33 S 170,174,148,172.67 s -63.33,2.67-63.33,2.67 S 65,206.5,35,210 C 56.33,195.33,56.5,181.67,56.5,173Z" fill="#fff"/>
  <path d="M 35.86,121.8 H 33.23 l -.85,7.9 H 28.74 l .85-7.9 h -2 l .32-3.08 h 2 l .77-7.23 h -2 l .32-3.08 h 2 l .69-6.36 h 3.64 l -.69,6.36 h 2.63 l .69-6.36 H 41.6 l -.69,6.36 H 43 l -.32,3.08 H 40.59 l -.77,7.23 h 2.06 l -.32,3.08 H 39.49 l -.85,7.9 H 35Z m -2.3-3.08 h 2.63 l .77-7.23 H 34.32Z" fill="#ec008c"/>
  <path d="M 50.45,102.05v21.32 c 0,2,.89,2.69,2.3,2.69 s 2.3-.71,2.3-2.69V102.05 h 4.21v21 c 0,4.42-2.26,6.95-6.63,6.95 S 46,127.52,46,123.1v-21Z" fill="#ec008c"/>
  <path d="M 67.27,109.67v20 h -4V102.05 h 5.58 l 4.57,16.55V102.05 h 4v27.64 H 72.81Z" fill="#ec008c"/>
  <path d="M 87.57,101.73 c 4.33,0,6.55,2.53,6.55,7v.87 H 89.91v-1.15 c 0-2-.81-2.72-2.22-2.72 s -2.22.75-2.22,2.72 c 0,5.69,8.69,6.75,8.69,14.65,0,4.42-2.26,6.95-6.63,6.95 s -6.63-2.53-6.63-6.95v-1.7 H 85.1v2 c 0,2,.89,2.68,2.31,2.68 s 2.3-.71,2.3-2.68 c 0-5.69-8.69-6.75-8.69-14.65 C 81,104.26,83.24,101.73,87.57,101.73Z" fill="#ec008c"/>
  <path d="M 96.42,102.05 h 13.75V106 h -4.65v23.69 h -4.45V106 H 96.42Z" fill="#ec008c"/>
  <path d="M 112.75,108.69 c 0-4.42,2.39-7,6.75-7 s 6.75,2.53,6.75,7v14.37 c 0,4.42-2.39,6.95-6.75,6.95 s -6.75-2.53-6.75-6.95Z m 4.45,14.65 c 0,2,.89,2.72,2.3,2.72 s 2.3-.75,2.3-2.72V108.41 c 0-2-.89-2.72-2.3-2.72 s -2.3.75-2.3,2.72Z" fill="#ec008c"/>
  <path d="M 143.32,108.88v3.59 c 0,4.42-2.18,6.83-6.63,6.83 h -2.1v10.39 h -4.45V102.05 h 6.55 C 141.14,102.05,143.32,104.46,143.32,108.88Z M 134.59,106v9.36 h 2.1 c 1.42,0,2.18-.63,2.18-2.61v-4.15 c 0-2-.77-2.61-2.18-2.61Z" fill="#ec008c"/>
  <path d="M 159.57,108.88v3.59 c 0,4.42-2.18,6.83-6.63,6.83 h -2.1v10.39 h -4.45V102.05 h 6.55 C 157.39,102.05,159.57,104.46,159.57,108.88Z M 150.84,106v9.36 h 2.1 c 1.42,0,2.18-.63,2.18-2.61v-4.15 c 0-2-.77-2.61-2.18-2.61Z" fill="#ec008c"/>
  <path d="M 176.51,129.69 H 172 l -.77-5 H 165.8 l -.77,5 h -4.08 l 4.53-27.64 H 172Z m -10.15-8.77 h 4.29 l -2.14-14Z" fill="#ec008c"/>
  <path d="M 192.89,108.41v1 c 0,2.84-.89,4.66-2.87,5.57,2.39.91,3.32,3,3.32,5.92v2.25 c 0,4.26-2.3,6.55-6.75,6.55 h -7V102.05 h 6.71 C 190.91,102.05,192.89,104.14,192.89,108.41Z M 184,106v7.31 h 1.74 c 1.66,0,2.67-.71,2.67-2.92v-1.54 c 0-2-.69-2.84-2.26-2.84Z m 0,11.25v8.49 h 2.55 c 1.5,0,2.3-.67,2.3-2.72v-2.41 c 0-2.57-.85-3.36-2.87-3.36Z" fill="#ec008c"/>
  <path d="M 197,102.05 h 4.45v23.69 h 7.32v3.95 H 197Z" fill="#ec008c"/>
  <path d="M 216.18,113.7 h 6.11v3.95 h -6.11v8.1 h 7.68v3.95 H 211.73V102.05 h 12.13V106 h -7.68Z" fill="#ec008c"/>
<script type="text/ecmascript" xlink:href="param.min.js"/> 
</svg>
