<?xml version="1.0"?>
<svg xmlns="http://www.w3.org/2000/svg" xmlns:xlink="http://www.w3.org/1999/xlink" id="fixed-colours" viewBox="0 0 250 250">
  <title>speech-bubble-dreams</title>
  <path d="M 16.67,216.67 s 30.67-18,30.67-38 c -14-.67-30.67-6.67-34-34.67 s -2.67-72.17,18-86.17 S 72,48.5,88.67,50.5 s 39.33,1.33,72.67-1.33,58.5-2.67,69.83,6.67,8.33,26.84,8.33,39.67 c 0,14,.67,39.67,0,49.5-.68,10.07-5.67,37.67-33,37.67 s -99.17-4.67-113.83.67 C 78.5,196,60.67,220,16.67,216.67Z" fill="#f8c1d9"/>
  <path d="M 56.5,173 s -23.17,1.67-31.17-21.67-5.33-67.5,6-80.83 S 61.07,55.84,76,57.67 c 16.33,2,72,3.5,94.67.17 s 46.5-.67,55.83,8.67,2.67,46.83,4,60.83,2.67,36.67-14.67,43.33 S 170,174,148,172.67 s -63.33,2.67-63.33,2.67 S 65,206.5,35,210 C 56.33,195.33,56.5,181.67,56.5,173Z" fill="#fff"/>
  <path d="M 44.21,124.19 H 40.07 l -1.34,12.46 H 33 l 1.34-12.46 H 31.2 l .51-4.86 h 3.13 l 1.21-11.4 H 32.86 l .51-4.86 h 3.19 l 1.08-10 h 5.74 l -1.08,10 h 4.15 l 1.08-10 h 5.74 l -1.08,10 h 3.25 l -.51,4.86 H 51.68 l -1.21,11.4 h 3.25 l -.51,4.86 H 50 l -1.34,12.46 H 42.88Z m -3.64-4.86 h 4.15 l 1.21-11.4 H 41.79Z" fill="#ec008c"/>
  <path d="M 60.54,93 h 11.1 c 7,0,10.46,3.8,10.46,10.78v22.05 c 0,7-3.44,10.78-10.46,10.78 H 60.54Z m 7,6.23v31.15 h 4 c 2.23,0,3.57-1.12,3.57-4.24V103.5 c 0-3.12-1.34-4.24-3.57-4.24Z" fill="#ec008c"/>
  <path d="M 102.83,136.65 c -.38-1.12-.64-1.81-.64-5.36v-6.85 c 0-4-1.4-5.54-4.59-5.54 H 95.18v17.76 h -7V93 H 98.75 c 7.27,0,10.4,3.3,10.4,10v3.43 c 0,4.49-1.47,7.41-4.59,8.85,3.51,1.43,4.66,4.73,4.66,9.28v6.73 a 12.57,12.57,0,0,0,.77,5.3Z M 95.18,99.27v13.39 h 2.74 c 2.61,0,4.21-1.12,4.21-4.61v-4.3 c 0-3.11-1.08-4.49-3.57-4.49Z" fill="#ec008c"/>
  <path d="M 122.41,111.42 H 132v6.23 h -9.63v12.77 h 12.12v6.23 H 115.4V93 h 19.13v6.23 H 122.41Z" fill="#ec008c"/>
  <path d="M 163.17,136.65 h -7.08 l -1.21-7.91 h -8.61 l -1.21,7.91 h -6.44 L 145.76,93 H 156Z m -16-13.83 h 6.76 l -3.38-22.05Z" fill="#ec008c"/>
  <path d="M 182.88,124 l 4.78-31 h 9.76v43.61 h -6.63V105.37 l -4.85,31.27 h -6.63 l -5.23-30.84v30.84 H 168V93 h 9.76Z" fill="#ec008c"/>
  <path d="M 213.56,92.54 c 6.82,0,10.33,4,10.33,11v1.37 h -6.63v-1.81 c 0-3.12-1.28-4.3-3.51-4.3 s -3.51,1.18-3.51,4.3 c 0,9,13.71,10.65,13.71,23.11,0,7-3.57,11-10.46,11 s -10.46-4-10.46-11V123.5 h 6.63v3.11 c 0,3.12,1.4,4.24,3.63,4.24 s 3.64-1.12,3.64-4.24 c 0-9-13.71-10.65-13.71-23.11 C 203.23,96.53,206.73,92.54,213.56,92.54Z" fill="#ec008c"/>
<script type="text/ecmascript" xlink:href="param.min.js"/> 
</svg>
