<?xml version="1.0"?>
<svg xmlns="http://www.w3.org/2000/svg" xmlns:xlink="http://www.w3.org/1999/xlink" id="fixed-colours" viewBox="0 0 250 250">
  <title>speech-bubble-omg</title>
  <path d="M 16.67,216.67 s 30.67-18,30.67-38 c -14-.67-30.67-6.67-34-34.67 s -2.67-72.17,18-86.17 S 72,48.5,88.67,50.5 s 39.33,1.33,72.67-1.33,58.5-2.67,69.83,6.67,8.33,26.84,8.33,39.67 c 0,14,.67,39.67,0,49.5-.68,10.07-5.67,37.67-33,37.67 s -99.17-4.67-113.83.67 C 78.5,196,60.67,220,16.67,216.67Z" fill="#f8c1d9"/>
  <path d="M 56.5,173 s -23.17,1.67-31.17-21.67-5.33-67.5,6-80.83 S 61.07,55.84,76,57.67 c 16.33,2,72,3.5,94.67.17 s 46.5-.67,55.83,8.67,2.67,46.83,4,60.83,2.67,36.67-14.67,43.33 S 170,174,148,172.67 s -63.33,2.67-63.33,2.67 S 65,206.5,35,210 C 56.33,195.33,56.5,181.67,56.5,173Z" fill="#fff"/>
  <path d="M 66.61,98.88 c 0-10,5.42-15.78,15.33-15.78 s 15.33,5.74,15.33,15.78v32.63 c 0,10-5.42,15.78-15.33,15.78 s -15.33-5.74-15.33-15.78Z m 10.1,33.26 c 0,4.48,2,6.19,5.23,6.19 s 5.23-1.7,5.23-6.19V98.25 c 0-4.48-2-6.19-5.23-6.19 s -5.23,1.7-5.23,6.19Z" fill="#ec008c"/>
  <path d="M 129.76,128.37 l 6.88-44.55 h 14v62.75 h -9.55v-45 l -7,45 h -9.55 l -7.53-44.37v44.37 h -8.81V83.82 h 14Z" fill="#ec008c"/>
  <path d="M 177.76,111.61 H 191.9v19.9 c 0,10-5.14,15.78-15.05,15.78 s -15.05-5.74-15.05-15.78V98.88 c 0-10,5.14-15.78,15.05-15.78 s 15.05,5.74,15.05,15.78V105 h -9.55V98.25 c 0-4.48-2-6.19-5.23-6.19 s -5.23,1.7-5.23,6.19v33.89 c 0,4.48,2,6.1,5.23,6.1 s 5.23-1.61,5.23-6.1V120.57 h -4.59Z" fill="#ec008c"/>
<script type="text/ecmascript" xlink:href="param.min.js"/> 
</svg>
