<?xml version="1.0"?>
<svg xmlns="http://www.w3.org/2000/svg" xmlns:xlink="http://www.w3.org/1999/xlink" id="fixed-colours" viewBox="0 0 250 250">
  <title>tiara</title>
  <path d="M 221.31,142.73 c 1.3-3.89,2.16-18.6-5.62-26 s -23.36-6.92-23.36-6.92,7.79-17.73-2.6-31.14-34.17-7.79-34.17-7.79 a 41.89,41.89,0,0,1,2.16-8.22 c -6.06,0-13,5.19-13,5.19 l -6.92-22.06 A 91.76,91.76,0,0,1,126.15,67 c -3.46-5.62-13.41-12.11-13.41-12.11 s 1.73,9.08.43,15.57 c -39.79-18.6-51,9.52-45.85,41.09-24.65-6.49-31.57,7.35-31.57,31.57-14.71-1.3-21.63,10.81-21.63,23.36 s 16,26,16,26 c 67.47-58.39,152.25-33.74,200.69-4.76 C 248.13,144,221.31,142.73,221.31,142.73Z M 30.42,176.9 c -6.06-11.25.87-15.43,4.47-16.72.14,2.74,3.6,8.51,3.6,8.51 A 19.45,19.45,0,0,0,30.42,176.9Z m 27.11-26.1 c -5.48-21.63,7.21-21.63,16.72-23.36,1.73,3.17,8.36,12.11,8.36,12.11 S 66.75,144.18,57.53,150.81Z m 69.2-11.25 s -19.9-8.94-26.82-23.07-2-27.39,9.23-25.09,19.9,11,22.2,18.74 c 6.92-12.4,18.74-19.32,28.26-16.15 S 172.58,118.22,126.73,139.56Z m 69.49,7.21 c -6.92-3.17-22.49-7.5-22.49-7.5 s 6.63-6.92,7.21-11 a 28.71,28.71,0,0,1,13.55,1.44 C 201.13,132.35,200.84,139.27,196.22,146.77Z m 25.23,20.76 a 33.07,33.07,0,0,0-9.08-4.9 l 3-6.34 S 225.35,155.42,221.45,167.53Z" fill="#f8d0c9"/>
  <path d="M 157.59,209.59 s -.29,13.89-10.43,13.56 c 6.78,2.09,8.12,4.94,8.7,14.75,2.6-10.38,5.11-14.07,9.8-13.55 C 160.44,221.73,157.87,218.57,157.59,209.59Z" fill="#c6918c"/>
  <path d="M 38.93,217.61 s -1.25,8.13-6.25,9.38 c 5.63,1.25,5.63,11.88,5.63,11.88 s .63-10.63,5.63-11.88 C 40.81,225.74,38.93,217.61,38.93,217.61Z" fill="#c6918c"/>
  <path d="M 219.17,195.7 s -.89,5.77-4.44,6.66 c 4,.89,4,8.43,4,8.43 s .44-7.54,4-8.43 C 220.5,201.47,219.17,195.7,219.17,195.7Z" fill="#c6918c"/>
  <path d="M 54.47,14.51 s 0,21.89-16.89,23.77 c 11.88,1.88,16.89,10,15.64,24.39,3.13-20,6.25-25,13.76-25.64 C 55.1,35.78,57,27.65,54.47,14.51Z" fill="#c6918c"/>
  <path d="M 164.17,12.91 S 163.54,26,154.79,26 c 6.25,0,9.38,11.88,9.38,11.88 s 2.5-11.88,8.13-12.51 C 166,24.8,164.17,19.79,164.17,12.91Z" fill="#c6918c"/>
  <path d="M 232.54,76 s -2.5,12.51-10,12.51 c 7.51,1.25,10,7.51,10,15.64,1.25-13.76,6.88-15.64,9.38-16.26 C 234.41,87.26,233.16,82.89,232.54,76Z" fill="#c6918c"/>
  <path d="M 94,175 s .63,10.63-9.38,10.63 c 7.51,1.88,10,6.88,10,13.13,1.88-9.38,5.63-10.63,9.38-11.26 C 96.46,186.25,95.21,181.87,94,175Z" fill="#c6918c"/>
  <path d="M 15.58,97.27 s -1.88,13.13-9.38,15.64 c 6.25,2.5,8.13,15.64,8.13,15.64 s 1.25-15.64,8.13-16.26 C 15,111,15.58,97.27,15.58,97.27Z" fill="#c6918c"/>
  <path d="M 224.32,140.22 c 4.61-14.56-3.57-31.7-25.66-32.79,8-22.1-4.91-46-36.44-40.58-.87-9.34,3.65-14.79,3.65-14.79 s -14.54,5.75-17.19,11 c -2.46-13-10.7-27.27-10.7-27.27 L 125.23,60.86 s -10.5-11.59-19.33-12 c 6.53,9.44,3.94,15.34,3.94,15.34 s -25.17-14-39.35,2.4-7.13,39.34-7.13,39.34 S 26.3,94.2,31.92,140.17 c -21.11.94-35.91,30.7-1.43,57,0,0,74.19-80.39,203.16-3.81 C 247.7,168.83,240.94,143.39,224.32,140.22Z m 4.39,40.42 c -26.94-19.48-122.26-58.36-198.4,7.76,0,0-12.92-8.37-11.51-24.31,1.7-19.23,20.64-17.36,20.64-17.36 S 31.46,104,73.19,116 C 66.27,82,80.26,56.88,117.9,76.62 c 1-9.51-2.07-15.51-2.07-15.51 A 39.91,39.91,0,0,1,127,73.26 c 7.85-10.15,8.85-19.67,8.85-19.67 L 142,71.87 s 8.14-7,13.12-7.5 c -4,4.14-5.19,11.79-5.19,11.79 s 18.28-6.1,32.28,2.65,9,29.31,2.73,36.18 c 25.7-4,39.49,9.21,31.55,31.93 C 235.09,148,236,164.89,228.7,180.64Z"/>
  <path d="M 157.28,88 c -14.65-1.34-26.07,16.87-26.07,16.87 s -9-16.12-21.22-18.76 S 85.88,90.28,92.83,111 s 35.92,31.75,35.92,31.75 C 190.81,114.35,169.74,89.18,157.28,88Z m -28.1,49.07 s -23.33-10.32-29.41-26.38 c -6.29-16.62,15.79-28.25,31.14,1.73 C 143.89,92.13,155.7,92,160.76,99 S 159.46,124.57,129.18,137.11Z"/>
  <path d="M 75.69,126 c -31.43-1.15-19.46,27.65-19.46,27.65 s 18.38-11.76,31.46-13 C 81.73,137.47,75.69,126,75.69,126Z M 60,146.4 c -5-14.92,14.24-15.77,14.24-15.77 s 1.46,5.52,4.15,7.47 C 70.92,139.42,60,146.4,60,146.4Z"/>
  <path d="M 35.61,158 c -16.72,6.92-5.52,21.3-5.52,21.3 s 5.31-7.09,11-10.44 C 37.56,165.12,35.61,158,35.61,158Z m -5.42,15.64 s -4-6.22,3.66-11.33 c 0,0,1.68,4.55,2.7,5.4 C 33.52,168.95,30.19,173.66,30.19,173.66Z"/>
  <path d="M 200.54,131.12 c -6-7-20.93-5.59-20.93-5.59 a 70.13,70.13,0,0,1-11.09,15.79 c 12.63.71,28.64,7.39,28.64,7.39 S 206.53,138.11,200.54,131.12Z m -5.07,13 a 51.88,51.88,0,0,0-18.39-5.2 c 3.82-2.87,6.13-8.42,6.13-8.42 s 8.69-1.12,12.52,2.92 S 195.47,144.16,195.47,144.16Z"/>
  <path d="M 214,154.37 c -.33,3.17-3.61,8.5-3.61,8.5 s 8.53,3.92,12.24,6.71 C 225.91,160.8,222.11,153.62,214,154.37Z m 6.31,10.41 c -2.64-1.33-5.92-2.9-5.92-2.9 l 1.8-4.25 S 222.14,157.38,220.32,164.78Z"/>
  <path d="M 76.8,70.87 S 76.17,84,67.42,84 c 6.25,0,9.38,11.88,9.38,11.88 S 79.3,84,84.93,83.38 C 78.67,82.76,76.8,77.75,76.8,70.87Z" fill="#fff"/>
  <path d="M 52.18,139.42 s 2.51,12.91-6,15 c 6.08-1.49,11.94,9.31,11.94,9.31 s -.39-12.14,4.92-14.08 C 56.83,150.52,53.82,146.1,52.18,139.42Z" fill="#fff"/>
  <path d="M 184.37,130.8 s 4.46-24.44,21.69-21.08 c -12.41-4.8-13.7-8.44-11.72-26.5-5.34,19.38-9.91,21.33-17.42,20.8 C 188.46,107.08,184.2,118,184.37,130.8Z" fill="#fff"/>
<script type="text/ecmascript" xlink:href="param.min.js"/> 
</svg>
