<?xml version="1.0"?>
<svg xmlns="http://www.w3.org/2000/svg" xmlns:xlink="http://www.w3.org/1999/xlink" id="fixed-colours" viewBox="0 0 250 250">
  <title>speech-bubble-vip</title>
  <path d="M 16.67,216.67 s 30.67-18,30.67-38 c -14-.67-30.67-6.67-34-34.67 s -2.67-72.17,18-86.17 S 72,48.5,88.67,50.5 s 39.33,1.33,72.67-1.33,58.5-2.67,69.83,6.67,8.33,26.84,8.33,39.67 c 0,14,.67,39.67,0,49.5-.68,10.07-5.67,37.67-33,37.67 s -99.17-4.67-113.83.67 C 78.5,196,60.67,220,16.67,216.67Z" fill="#f8c1d9"/>
  <path d="M 56.5,173 s -23.17,1.67-31.17-21.67-5.33-67.5,6-80.83 S 61.07,55.84,76,57.67 c 16.33,2,72,3.5,94.67.17 s 46.5-.67,55.83,8.67,2.67,46.83,4,60.83,2.67,36.67-14.67,43.33 S 170,174,148,172.67 s -63.33,2.67-63.33,2.67 S 65,206.5,35,210 C 56.33,195.33,56.5,181.67,56.5,173Z" fill="#fff"/>
  <path d="M 78.39,129.55 h -6 l -1.93,18 H 62.22 l 1.93-18 h -4.5 l .74-7 h 4.5 l 1.75-16.43 H 62 l .74-7 h 4.6 l 1.56-14.45 H 77.2 L 75.64,99.12 h 6 l 1.56-14.45 h 8.27 L 89.88,99.12 h 4.69 l -.74,7 H 89.15 L 87.4,122.55 h 4.69 l -.74,7 H 86.67 l -1.93,18 H 76.46Z m -5.24-7 h 6 l 1.75-16.43 h -6Z" fill="#ec008c"/>
  <path d="M 117.18,135.92 l 7.72-51.26 h 9.28 l -9.93,62.84 H 109.18 L 99.26,84.66 h 10.2Z" fill="#ec008c"/>
  <path d="M 141.17,84.66 h 10.11V147.5 H 141.17Z" fill="#ec008c"/>
  <path d="M 190.9,100.19v8.17 c 0,10.05-5,15.53-15.08,15.53 H 171V147.5 H 160.93V84.66 h 14.89 C 185.93,84.66,190.9,90.14,190.9,100.19Z M 171,93.64v21.27 h 4.78 c 3.22,0,5-1.44,5-5.92V99.56 c 0-4.49-1.75-5.92-5-5.92Z" fill="#ec008c"/>
<script type="text/ecmascript" xlink:href="param.min.js"/> 
</svg>
