<?xml version="1.0"?>
<svg xmlns="http://www.w3.org/2000/svg" xmlns:xlink="http://www.w3.org/1999/xlink" viewBox="0 0 250 250">
  <title>that-small-hand</title>
  <g id="skin-tone">
    <path d="M 34,102.71 c 9.2-15.6,18.85-31.42,32.62-29.92,13.47-11.37,22.74-12.57,30.22-9.87,7.78-6,23.64-6.55,30.52-1.5,16.16-4.79,32.32,0,42.49,4.49 s 50.57,17.36,69.42,16.46 c -1.5,11.67-3.59,21.25-18,20.95 s -31.72-6.58-31.72-6.58 l -37.11,2.39 s 15.26,20.95,10.47,25.14-11.07,16.16-11.07,16.16,23.94-6.88,33.81-6.58 c 14.66-2.39,25.44-1.2,29.62,5.09 s 4.49,15.56,4.49,15.56-26,4.49-45.48,11.07 S 143,182.88,134.27,188 s -28.73,28.74-60.15,8.69 c -13.77,6-27.83,6.58-43.39-6.28 s -19.45-33.22-15.86-47.58 S 27.15,114.38,34,102.71Z" fill="param(skin_tone)"/>
  </g>
  <g id="fixed-colours">
    <path d="M 218.86,79.17 s -4.19,8.78-.4,11.57,13.37,3.59,17.75,1.8 c 2.59-4,.8-9.38.8-9.38Z" fill="#fff"/>
    <path d="M 200.31,156.57 s -1.8-8,3.59-10.17,15,0,15,0 l 1,8.08Z" fill="#fff"/>
    <path d="M 63.45,148.59 s 6.78-3,12-1 A 8.35,8.35,0,0,1,81,154.18 l -18.35,4.19Z" fill="#fff"/>
    <path d="M 11,147.2 c 2.44-19.5,16-36.31,22.34-50.27 S 51.68,65.8,66.84,68.6 C 79.61,55.83,90,57,97.17,59 c 7.58-7.18,21.55-8.38,31.12-2.39,15.16-3.19,29.33,2.69,40.1,6.58 C 178.79,67,219.26,79.77,242,81 c -1.2,20.75-8.38,25.54-19.95,25.54 s -31.52-6.38-31.52-6.38-19.95,2-32.72.8 c 11.57,14,12.77,21.55,8.78,25.93 a 59.65,59.65,0,0,0-6,7.58 s 14.36-4,25.14-3.19 c 16.76-5.59,29.92.4,33.91,7.18 s 4,15.16,2.79,18.35 c -19.15,2.39-53.07,11.17-68.23,21.15 s -32.72,28.73-53.07,29.53-29.53-8.78-29.53-8.78 l 5.59-4 s 15.56,8.38,28.73,4.79,28.73-14.76,40.3-24.34,49.87-21.94,70.62-22.34 c -.4-14-11.57-19.55-29.13-15.56-14,.4-33.51,6-40.3,10.77-6.78,6-11.17,13.57-18.75,12.37 a 19.91,19.91,0,0,1-11.57-6 s -2.39,10.37-21.55,1.2 c -12,1.2-34.71,4.79-34.71,4.79 s -7.58-16.76,14.36-23.14 c 2.39-9.18,5.19-13.17,5.19-13.17 s -10.37-8.38-16-10 C 76,114.48,86,122.86,86,122.86 S 80,134,80,139.22 c -10,3.19-16,10-15.56,17.16,14.16-3.69,29.53-6,29.53-6 s 10.37-21.55,13.57-27.93.8-9.18-8.38-15.56 S 77.62,89.35,77.62,89.35 s 27.53,18,31.92,20.75,7.58,6.78,2.79,15.16 S 99.56,152,99.56,152 s 9.18,4.79,12.77-.4,18-26.7,19.95-32.72-1.2-13.17-6.78-17.16-16.76-15.16-16.76-15.16,17.56,11.17,24.34,16.76,9.58,12.37,3.59,22.34-16,25.54-16,25.54,8.78,7.55,14.76.38,27.13-25.52,23.94-33.5-21.15-31.92-27.53-35.51 c 10.37,5.19,21.55,12,21.55,12 s 30.72.4,36.31-.8 c 17.56,6.38,37.9,8,42.29,2 s 3.19-11.17,3.19-11.17-5.59.4-37.9-6 S 138.16,58.42,126.69,65 c -8.78-4-19.95-4.79-28.73,2 C 85.6,65,71.63,69,68,76.18 c -8.78-.4-16.76,4-21.55,14 S 27.74,124.06,23,132 s -10.37,31.12,3.59,48.68,25.14,17.16,35.51,16 S 84,183.11,97.57,180.31 c -10,5.19-18,14.76-21.94,18 S 68,207.84,46.1,202.66,7.4,175.93,11,147.2Z"/>
    <path d="M 219.86,80.87 s -5.69,8.68,3,10.77,12.27,0,12.27,0 l .3,2.69 S 224,96.43,218.66,92.24 s -.9-12-.9-12Z"/>
    <path d="M 199.21,156.87 s -2.69-8.08,3.59-10.77,14.36-.6,14.36-.6 l 1.2,2.69 s -6.58-2.39-12.27-1.2-5.39,6.88-4.49,9.58 C 199.81,158.37,199.21,156.87,199.21,156.87Z"/>
    <path d="M 64.85,149.69 s 14.36-6,14.66,5.39 c 1.8-.9,1.5-.9,1.5-.9 s 1.8-4.49-3.89-7.18-12.27.3-12.27.3Z"/>
    <path d="M 163.25,44.06 c 2.7-.4,4-1.07,3.87-1.74-.23-.9-2.41-.43-7.33,0 L 159,42 c 2.64-2.57,6.62-6.43,5.48-7.34 s -3.17,1.66-7.12,5.76 c -.63-3.27-1.12-5.45-2.39-5.24-1.1.18-.42,2.26.1,4.93-3.09-1.68-6.7-3.81-7.49-2.82-1,1.19,3,3.25,7.14,5.39-4,.12-9.33.18-8.46,1.48 s 3,.73,7,.43 c -2.68,2.7-5.18,5.45-3.79,5.64 s 3.88-2.34,6.09-4.67 c .08,3.36.46,5.72,1.83,5.72 s 1.17-3.94.77-6.76 c 4.09,2.35,8.59,5.21,9.27,3.86 C 167.92,47.3,166.39,45.79,163.25,44.06Z" fill="#f287b6"/>
    <path d="M 88.4,20.4 c -.3-1.93-5.19-.41-10.9.1,3.28-4.11,7.87-10,6.14-11 s -4,2.5-8.29,8.4 c -.13-5.35-.23-12.07-1.94-10.95-1.94,1.28-.71,5.2-.47,12.51 C 69.12,16.9,63.2,11.64,61.78,13 s 2.89,4.32,7.41,7.55 c -5.05,0-8.51.5-8.58,2.37 s 5,2,9.58,1.72 c -3.58,4.61-7.3,9.66-5.13,9.69,2,0,5.25-4.24,8-8,.35,6.13,1.51,9.27,2.7,9 s .6-3.22,0-9.79 c 4,3.12,7.79,6,8.69,4.71 s -1-3.66-5.08-6.6 C 85,22.89,88.69,22.28,88.4,20.4Z" fill="#f287b6"/>
    <path d="M 233.93,179.11 c -.72-1.36-3.53.11-8.63,2.29,2-3.53,4.49-8,2.95-7.88-1.76.09-2.46,3.12-5.12,8-1.51-3.13-3.34-8.83-4.79-8.5 s .22,3.93,1.93,7.77 c -3.29-1.95-5.74-2.95-6.5-1.75 s 2.54,3.22,5.58,4.81 c -4.11,1.63-8.47,3.49-7.07,4.34 s 5.05-.74,8.31-2.13 c -2.13,4.13-2.58,6.62-1.69,6.89 s 1.63-1.87,3.77-6.38 c 1.4,3.57,2.75,6.92,3.85,6.41 s .76-2.77-.77-6.25 c 3.9,1.67,6.55,2.7,7.09,1.37 s -3.23-2.26-7.14-4.13 C 229.41,182.51,234.65,180.47,233.93,179.11Z" fill="#f287b6"/>
    <path d="M 22.75,210.43 c 3.7-1.51,8.37-3.36,7.13-4.26-1.41-1-3.82.89-8.85,3,.76-3.34,2.86-8.87,1.54-9.5 s -2.25,3.16-3.3,7.17 c -1.34-3.53-2.61-5.81-3.93-5.36 s 0,4,1.34,7.15 c -4.17-1.28-8.68-2.53-8.13-1 s 4.35,2.54,7.72,3.48 c -4.19,1.87-6.07,3.52-5.55,4.27 s 2.41-.43,6.84-2.59 c -1.12,3.61-2.14,7-1,7.32 s 2.29-1.67,3.26-5.29 c 2,3.69,3.39,6.12,4.62,5.42 s -1.1-3.73-3-7.58 c 3.74,1.19,9,2.85,9.32,1.36 S 28,211.89,22.75,210.43Z" fill="#f287b6"/>
    <path d="M 233.87,20.13 c 5.18-2.12,11.72-4.71,10-6-2-1.42-5.35,1.24-12.41,4.19,1.06-4.68,4-12.42,2.16-13.31 S 230.46,9.47,229,15.09 c -1.87-4.94-3.65-8.14-5.51-7.51 s 0,5.67,1.88,10 C 219.52,15.81,213.19,14,214,16.18 c .7,1.94,6.1,3.56,10.82,4.87-5.87,2.62-8.5,4.93-7.78,6 s 3.37-.61,9.58-3.63 c -1.57,5.06-3,9.86-1.38,10.25 s 3.21-2.34,4.57-7.42 c 2.77,5.18,4.74,8.58,6.48,7.6 s -1.53-5.23-4.15-10.62 c 5.24,1.67,12.67,4,13.07,1.91 S 241.27,22.18,233.87,20.13Z" fill="#f287b6"/>
    <path d="M 37,66.18 c -.65-1.4-3.55-.08-8.78,1.84,2.16-3.44,4.93-7.74,3.37-7.75-1.77,0-2.63,3-5.55,7.72-1.35-3.22-2.89-9-4.36-8.77 s 0,3.95,1.52,7.89 C 20,65,17.57,63.86,16.73,65 s 2.37,3.36,5.35,5.11 c -4.21,1.42-8.68,3-7.32,4 s 5.11-.48,8.45-1.7 c -2.36,4-2.93,6.5-2.06,6.82 s 1.73-1.78,4.12-6.2 c 1.21,3.65,2.4,7.09,3.53,6.63 s .91-2.74-.44-6.31 c 3.82,1.88,6.43,3.06,7,1.74 s -3.12-2.44-6.94-4.52 C 32.25,69.36,37.61,67.58,37,66.18Z" fill="#f287b6"/>
    <path d="M 199.35,232.46 c -.48-2.06-6.6.37-13.35,1,2.46-4,8-12,5.93-13 s -3.95,3.83-8.53,11.41 c -1.53-4.87-3.67-13.54-5.17-11.85 s .5,4.71,2.45,10.89 c -3.31-2.45-7.06-5.39-8.13-4.38-1.28,1.21,2.8,4.14,7.12,7.22-5.54.31-9.33,1-9.28,2.9,0,1.6,4.83,1.6,9.35,1.14-2.49,4.14-4.57,8.05-2.78,7.89 s 4-3.63,6-7.1 c 1.74,5,3.44,7.26,4.4,6.73 s 0-2.53-1.69-7.05 c 3.82,3,7.48,5.82,8.34,4.55 s -1-3.59-5.12-6.47 C 195.37,235.23,199.81,234.41,199.35,232.46Z" fill="#f287b6"/>
    <path d="M 122.83,224 c -.48-2.06-6.59.36-13.33,1,2.45-3.95,7.95-12,5.91-13 s -3.94,3.83-8.51,11.39 c -1.53-4.86-3.66-13.52-5.16-11.82 s .5,4.7,2.45,10.87 c -3.3-2.45-7-5.38-8.12-4.37-1.28,1.21,2.79,4.13,7.11,7.21-5.53.31-9.31,1-9.26,2.9,0,1.6,4.82,1.59,9.34,1.14-2.49,4.13-4.56,8-2.78,7.87 s 3.94-3.63,6-7.09 c 1.73,4.95,3.43,7.25,4.39,6.72 s 0-2.52-1.69-7 c 3.81,3,7.46,5.8,8.33,4.54 s -1-3.58-5.11-6.46 C 118.85,226.73,123.28,225.91,122.83,224Z" fill="#f287b6"/>
  </g>
<script type="text/ecmascript" xlink:href="param.min.js"/> 
</svg>
