<?xml version="1.0"?>
<svg xmlns="http://www.w3.org/2000/svg" xmlns:xlink="http://www.w3.org/1999/xlink" id="fixed-colours" viewBox="0 0 250 250">
  <title>trainer</title>
  <path d="M 203.73,115 s 15.85,3.52,23.63,7,16.87,15.14,7.79,25.09 S 206.6,160.9,191.47,160.9 s -30.28.87-30.28.87,3.89-13,14.71-18.6 S 217.73,141.31,203.73,115Z" fill="#f287b6"/>
  <path d="M 16.73,144.9 s -.87-31.57.87-40.66,4.76-14.71,12.11-7.79,9.08,13,20.76,9.08 S 79,94.72,79,94.72,76,77.85,89.39,72.66 s 25.52-6.06,29.84,1.73 S 148.53,105,203.73,115 c 5,12.61,5,20.39-8.37,22.56 s -29.41,7.35-34.17,24.22 C 131.34,160.9,16.73,144.9,16.73,144.9Z" fill="#fa467f"/>
  <path d="M 103.61,141.87 a 71,71,0,0,1-26.33-.43 c -13.41-3-19.46-9.95-16.87-17.3 s 13-5.19,18.17-3 c -.87-8.65,1.73-16.44,10.38-14.27 S 103.23,125,103.61,141.87Z" fill="#f5dd5e"/>
  <path d="M 18,147.06 s 91.26,12.11,127.6,14.27,74.39,1.3,89.1-10.38 c 1.73,9.08,4.76,19-19,22.92 s -83.91,9.52-106.83,9.95-76.12-.43-88.67-4.33 S 18,147.06,18,147.06Z" fill="#f5dd5e"/>
  <path d="M 203.73,115 s 11.18,15,2.18,21.28-24.55,4.64-33,10.91-9,13.37-9,13.37 H 159 s 2.46-12.82,14.46-18.28,25.91-5.18,30-9.82,0-13.64-2.46-16.64 C 201.55,115.26,203.73,115,203.73,115Z"/>
  <path d="M 213.83,111.44 c -20.19-4.36-36-7.09-58.92-15.28 s -25.1-16.91-33.83-27.28-30-2.18-38.74,3.82-7.09,19.1-7.09,19.1-14.18,4.91-24,8.73-11.46-2.18-18-8.73-13.09-2.18-18,2.18-3,32.71-3.82,46.92 c -.55,9.82-2.73,13.64-4.91,28.37 s 4.36,16.37,57.29,17.46,130.39-6,153.31-9.27,22.91-15.82,22.37-28.37 C 254.2,129.45,234,115.81,213.83,111.44Z M 91.34,76 c 9.82-4.36,20.46-5.18,23.46-.82 C 106.35,79.53,82.34,88.8,82.34,88.8 S 81.52,80.34,91.34,76Z m 131.21,92.75 c -10.91,3.27-50.74,6.55-58.92,7.09 s -12.55,0-15.82-1.64 c -1.64,3.82-8.73,5.46-16.37,4.36 s -10.37-4.36-10.37-4.36,0,4.36-8.18,4.91-17.46-2.18-19.1-6.55 c -1.09,3.82-8.73,8.18-17.46,6.55 S 66,171.46,66,171.46 s -3.82,8.18-15.28,7.09-15.28-4.91-16.37-10.37 c -4.36,9.82-10.91,7.64-15.82,6 s 2.18-24,2.18-24 S 114,163.82,161.45,164.91 s 63.29-3.27,70.93-9.82 C 232.92,160.54,233.47,165.45,222.56,168.73Z m -22.37-10.91 C 140.72,162.18,22.33,142,22.33,142 c 0-19.1-1.09-41.46,2.18-42 s 8.73,13.09,19.64,12,76.38-28.92,76.38-28.92,7.09,10.37,26.73,19.1,39.28,13.09,56.19,15.82,29.46,7.64,30.55,18.55 S 222.6,156.17,200.19,157.82Z"/>
  <path d="M 80.43,103.8 C 73.34,107.9,76.61,118,76.61,118 s -9.27-4.91-16.64-.27-7.37,16.09,6.27,23.46 S 107.71,145,107.71,145 C 102.53,101.35,87.53,99.71,80.43,103.8Z M 72,137.63 c -12.55-3.55-12.55-14.46-6-15.82 s 12.55.27,15.82,2.46 c -1.36-7.37-.82-14.18,4.36-15 s 12,4.36,14.46,30.28 C 100.62,139.54,84.52,141.18,72,137.63Z"/>
  <path d="M 138,108.44 c 5.78,1.11,5.18,10.64-2.46,9.82 S 130.9,107.08,138,108.44Z"/>
  <path d="M 163.09,116.9 c 4.7,1.12,5.73,10.64-2.18,9.27 S 157.36,115.53,163.09,116.9Z"/>
  <path d="M 186.27,121 c 6,0,5.73,8.18-.27,7.91 S 180.27,121,186.27,121Z"/>
  <path d="M 181.52,76.41 C 189.3,68.63,193,63.32,195,65 S 188.47,74.37,184.79,78 s -10.23,11.46-13.09,11 S 176.61,81.32,181.52,76.41Z" fill="#f287b6"/>
  <path d="M 93.48,26.37 c 6.43-8.29,9.26-13.74,11.39-12.44 s -5.06,9.68-8.1,13.6-8.3,12.05-11.05,12 S 89.43,31.6,93.48,26.37Z" fill="#f287b6"/>
  <path d="M 184.79,75.59 c 10.31,4.3,16,8.18,14.73,10.64 s -10.64-4.09-17.59-7.77 S 167.2,71.09,168.83,69,179.88,73.55,184.79,75.59Z" fill="#f287b6"/>
  <path d="M 94.79,24.79 c 8,4.74,12.26,8.6,11,10.49 s -8.33-4.61-13.66-8.45 S 80.76,19,82.34,17.54,91,22.54,94.79,24.79Z" fill="#f287b6"/>
  <path d="M 184.79,78 c -1.45-7.27-2-12.68-4.5-12.28 s .82,7,.82,13.5.41,11.46,2.86,11.46 S 185.61,82.14,184.79,78Z" fill="#f287b6"/>
  <path d="M 95.59,29.12 c 8.35-1.13,14.56-1.49,14.19-3.94 s -8,.51-15.45.23-13.1-.09-13.19,2.35 S 90.89,29.76,95.59,29.12Z" fill="#f287b6"/>
  <path d="M 183.56,77.23 c 10.62-.76,15.14-2,15.55-.41 S 194.2,80.1,184,80.1 s -15.55,2-17.19-.41 S 177.84,77.64,183.56,77.23Z" fill="#f287b6"/>
  <path d="M 96.47,26.47 c .64,9.6,1.78,13.69.3,14 s -2.94-4.45-2.89-13.69-1.78-14.06.45-15.52 S 96.13,21.3,96.47,26.47Z" fill="#f287b6"/>
  <path d="M 135.57,206.23 c 8.4-3.34,12.89-6.14,13.9-4.25 s -8,5-12,6.54-11.43,5.31-13.46,4.07 S 130.28,208.33,135.57,206.23Z" fill="#f287b6"/>
  <path d="M 137.23,205.63 c 3.88,7,5.33,11.75,3.54,12.59 s -4.16-7.07-6.43-12.25-5-10.74-3.16-11.16 S 135.38,202.28,137.23,205.63Z" fill="#f287b6"/>
  <path d="M 135.93,209.2 c 6.69,2.82,11.46,5.27,12.25,3.29 s -6.14-3.11-11.57-6.59-9.68-5.8-10.82-4 S 132.16,207.61,135.93,209.2Z" fill="#f287b6"/>
  <path d="M 137.75,207.62 c -3.73,7.4-4.67,10.94-5.93,10.56 s -.23-4.59,3.85-11.43,4.83-11.21,7.13-11.32 S 139.76,203.62,137.75,207.62Z" fill="#f287b6"/>
  <path d="M 223.24,33.36 c 7,2.14,11.31,2.64,11,4.36 s -7.6-.9-10.92-1.92-10-2.43-10.62-4.25 S 218.81,32,223.24,33.36Z" fill="#f287b6"/>
  <path d="M 224.6,33.82 c -1.1,6.44-2.58,10.17-4.14,9.79 s .94-6.6,2.14-11,2.28-9.36,3.66-8.7 S 225.12,30.75,224.6,33.82Z" fill="#f287b6"/>
  <path d="M 222,35.42 c 2.82,5.19,4.6,9.17,6.11,8.31 s -2.32-5.09-4-10.06-3.21-8.6-4.82-8.05 S 220.38,32.5,222,35.42Z" fill="#f287b6"/>
  <path d="M 223.92,35.34 c -6.13,2.81-8.52,4.57-9.13,3.7 s 2.18-3,8.25-5.3,8.76-4.67,10.28-3.57 S 227.22,33.83,223.92,35.34Z" fill="#f287b6"/>
  <path d="M 16.28,56.65 c 7.66-2.59,11.81-4.89,12.63-3.14 s -7.38,4.06-11,5.29 S 7.43,63,5.68,61.8,11.45,58.28,16.28,56.65Z" fill="#f287b6"/>
  <path d="M 17.79,56.2 C 20.93,62.67,22,67,20.36,67.61 S 17,61.1,15.19,56.36 s -4-9.84-2.3-10.13 S 16.3,53.11,17.79,56.2Z" fill="#f287b6"/>
  <path d="M 16.46,59.32 c 5.85,2.83,10,5.25,10.8,3.52 s -5.34-3.07-10-6.44-8.38-5.64-9.48-4.11 S 13.17,57.72,16.46,59.32Z" fill="#f287b6"/>
  <path d="M 18.16,58 c -3.68,6.44-4.69,9.56-5.8,9.16 s 0-4.11,4-10,4.85-9.79,6.9-9.79 S 20.15,54.52,18.16,58Z" fill="#f287b6"/>
  <path d="M 56.15,218.06 c 5.5-8.93,7.74-14.66,10-13.59 s -4,10.16-6.6,14.39-7,12.87-9.71,13.12 S 52.68,223.69,56.15,218.06Z" fill="#f287b6"/>
  <path d="M 57.47,218.36 c 8,4.74,12.26,8.6,11,10.49 s -8.33-4.61-13.66-8.45 S 43.44,212.61,45,211.1,53.65,216.1,57.47,218.36Z" fill="#f287b6"/>
  <path d="M 58.79,222.54 c 9.18-1.74,16-2.54,15.45-5 s -8.8,1.08-17.11,1.3-14.52.81-14.45,3.33 S 53.62,223.52,58.79,222.54Z" fill="#f287b6"/>
  <path d="M 57.24,218.09 c 3.11,9.1,5.28,12.75,3.95,13.49 s -4-3.53-6.35-12.47 S 49.45,206,51.22,204,55.56,213.18,57.24,218.09Z" fill="#f287b6"/>
  <path d="M 214.3,227.74 c 4.36-7.07,6.13-11.61,7.92-10.77 S 219,225,217,228.37 s -5.52,10.2-7.69,10.39 S 211.55,232.2,214.3,227.74Z" fill="#f287b6"/>
  <path d="M 215.34,228 c 6.36,3.75,9.71,6.82,8.68,8.31 s -6.6-3.65-10.82-6.7-9-6.17-7.72-7.36 S 212.31,226.19,215.34,228Z" fill="#f287b6"/>
  <path d="M 216.39,231.29 c 7.27-1.38,12.7-2,12.24-4 s -7,.85-13.55,1-11.51.64-11.45,2.64 S 212.29,232.07,216.39,231.29Z" fill="#f287b6"/>
  <path d="M 215.15,227.76 c 2.47,7.21,4.19,10.1,3.13,10.68 s -3.16-2.8-5-9.88-4.26-10.39-2.86-12 S 213.82,223.87,215.15,227.76Z" fill="#f287b6"/>
<script type="text/ecmascript" xlink:href="param.min.js"/> 
</svg>
