<?xml version="1.0"?>
<svg xmlns="http://www.w3.org/2000/svg" xmlns:xlink="http://www.w3.org/1999/xlink" id="fixed-colours" viewBox="0 0 250 250">
  <title>speech-bubble-xoxo</title>
  <path d="M 16.67,216.67 s 30.67-18,30.67-38 c -14-.67-30.67-6.67-34-34.67 s -2.67-72.17,18-86.17 S 72,48.5,88.67,50.5 s 39.33,1.33,72.67-1.33,58.5-2.67,69.83,6.67,8.33,26.84,8.33,39.67 c 0,14,.67,39.67,0,49.5-.68,10.07-5.67,37.67-33,37.67 s -99.17-4.67-113.83.67 C 78.5,196,60.67,220,16.67,216.67Z" fill="#f8c1d9"/>
  <path d="M 56.5,173 s -23.17,1.67-31.17-21.67-5.33-67.5,6-80.83 S 61.07,55.84,76,57.67 c 16.33,2,72,3.5,94.67.17 s 46.5-.67,55.83,8.67,2.67,46.83,4,60.83,2.67,36.67-14.67,43.33 S 170,174,148,172.67 s -63.33,2.67-63.33,2.67 S 65,206.5,35,210 C 56.33,195.33,56.5,181.67,56.5,173Z" fill="#fff"/>
  <path d="M 89.73,83.39,79.5,112.93 l 10.94,31.28 H 80.12 l -8-24.07 L 64,144.21 H 54.86 L 65.8,112.93,55.57,83.39 H 65.71 l 7.38,22.42,7.56-22.42Z" fill="#ec008c"/>
  <path d="M 93.2,98 c 0-9.73,5.25-15.29,14.86-15.29 S 122.91,88.26,122.91,98v31.63 c 0,9.73-5.25,15.29-14.86,15.29 S 93.2,139.34,93.2,129.61Z M 103,130.22 c 0,4.34,2,6,5.07,6 s 5.07-1.65,5.07-6V97.38 c 0-4.34-2-6-5.07-6 S 103,93,103,97.38Z" fill="#ec008c"/>
  <path d="M 160.54,83.39 l -10.23,29.54,10.94,31.28 H 150.93 l -8-24.07-8.1,24.07 h -9.16 l 10.94-31.28 L 126.38,83.39 h 10.14 l 7.38,22.42,7.56-22.42Z" fill="#ec008c"/>
  <path d="M 164,98 c 0-9.73,5.25-15.29,14.86-15.29 S 193.72,88.26,193.72,98v31.63 c 0,9.73-5.25,15.29-14.86,15.29 S 164,139.34,164,129.61Z m 9.79,32.23 c 0,4.34,2,6,5.07,6 s 5.07-1.65,5.07-6V97.38 c 0-4.34-2-6-5.07-6 s -5.07,1.65-5.07,6Z" fill="#ec008c"/>
<script type="text/ecmascript" xlink:href="param.min.js"/> 
</svg>
