<?xml version="1.0"?>
<svg xmlns="http://www.w3.org/2000/svg" xmlns:xlink="http://www.w3.org/1999/xlink" id="fixed-colours" viewBox="0 0 250 250">
  <title>watch</title>
  <path d="M 161.33,64.88 c -13.84-9.23-42.1-6.92-58.82,2.31,1.15-17.88-12.69-32.3-24.22-34 S 47.15,40.66,38.5,83.33 s 6.34,81.31,6.34,81.31 c 84.2-1.73,110.73-30,124-49 S 175.17,74.11,161.33,64.88Z m -7.93,37.63 c -3.24,10.6-15.14,24-29.41,28.11 s -70.07,17.73-70.07,17.73-3.46-29.41,0-50,4.54-32.87,14.49-40.66 S 87.23,59,88.52,67.26 s 0,21.19.65,21.19,12.76-6.27,23.36-9.08 S 137.4,75,144.75,80,156.65,91.91,153.4,102.51Z" fill="#ca9590"/>
  <path d="M 53.92,148.36 s -3-29.56.72-54.35 S 66.18,55.36,74.83,54.79 s 17.45,8.51,14.35,33.66 c 13.91-6.56,26.6-11.75,42.46-11.46 s 23.64,8.94,22.78,20.18-9.8,24.22-31.29,33.74 S 67.91,146.77,53.92,148.36Z" fill="#fcedeb"/>
  <path d="M 149.63,79.8 c -15-10.83-35.42-4.17-58.75,6.25,1.67-12.5.83-29.59-10.83-33.34 S 56.7,61,52.53,90.22 s 0,60,0,60 A 247.84,247.84,0,0,0,133,129 C 155.46,118.55,164.63,90.63,149.63,79.8Z m -12.92,42.5 c -19.17,15-81.26,24.17-81.26,24.17 S 52.53,110.64,58,86.05,70.87,56.47,77.12,57.3 s 12.5,5.42,10.42,34.17 c 21.25-9.58,43.34-15.83,55.84-10 S 155.88,107.3,136.71,122.3Z"/>
  <path d="M 184.55,55.8 s 25.09-8.22,43.69-4.33 C 230,84.78,217.42,128,194.49,165.22 S 125.72,237.89,108,240.92 c -14.27-13.41-22.06-25.09-21.63-32,24.22-13,60.55-59.69,70.5-75.69,6.92,6.92,14.27,10.38,18.17,3.46 s 2.16-12.11-5.62-18.17 c 11.25-19,11.25-30.28,9.08-36.33 C 182.38,67.47,184.55,55.8,184.55,55.8Z" fill="#c6918c"/>
  <path d="M 167.24,120.24 s 12.11,4.33,9.95,12.11-8.22,11.25-20.33,3 C 160.32,127.6,167.24,120.24,167.24,120.24Z" fill="#f9cec8"/>
  <path d="M 36.19,135.38 s 5.19,24.8,8.65,29.27 c 16-.29,45.85-2.88,45.85-2.88 s -29,42.82,17.3,79.15 C 89,237,37.92,212.37,23.65,196.37,22.35,168.25,36.19,135.38,36.19,135.38Z" fill="#f8d0c9"/>
  <path d="M 95.88,46.28 s 23.36-30.71,74-35 c 33.74,11.25,53.63,24.65,61.42,40.22-28.55-6.06-56.23,5.19-62.72,16-12.54-6.92-44.26-14.42-66-.29 A 49.34,49.34,0,0,0,95.88,46.28Z" fill="#f8d0c9"/>
  <path d="M 235.47,45.49 c -25-27.78-65.56-38.34-65.56-38.34 s -48.34,5-72.78,33.89 C 83.23,14.38,49.34,24.38,38.23,63.27 A 213.64,213.64,0,0,0,31,137.17 s -12.78,33.89-11.11,60 c 10,11.11,45,36.67,86.12,47.23 C 187.68,221.06,242.13,108.83,235.47,45.49Z M 166,16 s 43.34,13.89,58.34,31.67 c -16.67-3.33-36.1-3.41-57.23,15 C 151,53.83,131,48.27,105.45,63.27 c 0-8.33-4.44-17.78-4.44-17.78 C 131.57,19.38,166,16,166,16Z m 11.67,58.34 c -.56-3.06-4.44-7.22-4.44-7.22,1.94-1.67,7.78-5.83,7.78-5.83 S 179.35,68.27,177.68,74.38Z M 43.23,78.27 c 7.78-35.56,25.56-40.56,33.89-40 s 21.11,7.22,22.78,35 C 121.57,61.6,150,61.33,160.46,69.38 c 14.45,11.11,13.89,35.56-3.33,54.45-26,28.5-77.78,38.89-110.56,36.67 C 46.56,160.5,34.15,119.79,43.23,78.27Z m 128.9,58.34 c -3.33,4.44-8.33-1.11-11.11-2.78,0,0,7.22-7.78,8.89-10 C 175.46,127.17,175.46,132.17,172.13,136.61Z m -31.67,10.56 c -12.22,16.67-30,38.34-52.78,55.56,0,0-3.33-21.11,9.45-39.45 C 112.68,159.39,131.57,153.83,140.46,147.17Z M 27.67,193.28 c 0-23.34,7.78-47.23,7.78-47.23 s 4.44,16.11,7.22,21.11 c 15.56.56,37.78.56,42.78-2.78-10.56,20.56-11.67,51.12,13.33,71.12 C 72.12,223.84,35.45,207.17,27.67,193.28Z m 82.78,45 c -13.33-10-18.33-18.33-20-26.11,0,0,45-37.23,67.23-72.23,8.33,4.44,13.89,6.67,18.89-.56 s 6.11-15-3.89-21.11 c 7.22-10.56,10.56-21.67,9.45-33.89,2.78-12.78,5-25.56,5-25.56 s 23.34-8.89,37.78-5 C 227.69,104.94,198.24,186.61,110.46,238.29Z"/>
  <path d="M 75,106.47 c 2.83-4.72,7.92-4.58,10-2.5 a 7.12,7.12,0,0,1,0,9.58 c -1.79,2-5.83,3.51-8.54,1.46 C 74.78,113.72,73.16,109.59,75,106.47Z" fill="#7c4949"/>
  <path d="M 84.63,105.82 a 97.41,97.41,0,0,0,15-4.15 c 6.25-2.5,15.86-5.37,16.15-3.06.42,3.33-10.12,5.25-14.71,6.92 s -16.15,5.19-16.15,5.19Z" fill="#7c4949"/>
  <path d="M 75.47,112.48 s -6.25,14-7.5,16.46,1.67,4.79,3.54,1.25,7.92-16.25,7.92-16.25Z" fill="#7c4949"/>
  <path d="M 29.62,159.39 s 26.25,19.17,52.5,26.67v7.08 S 44.2,177.31,28.78,165.22 A 5.15,5.15,0,0,1,29.62,159.39Z"/>
  <path d="M 24.62,181.06 S 60,205.64,86.29,214.81 l 2.5,6.25 s -35.84-13.33-65-34.17 C 23.37,184.81,24.62,181.06,24.62,181.06Z"/>
  <path d="M 95,204 s 21.67,21.67,36.25,26.67 a 14.86,14.86,0,0,1,2.92-2.92 s -27.5-18.33-37.92-29.59 C 96.7,202.31,95,204,95,204Z"/>
  <path d="M 114.62,187.31 s 28.34,21.25,40,24.59 a 16.62,16.62,0,0,0,2.92-2.92 s -25.42-14.58-40.42-25.42 C 114.62,183.56,114.62,187.31,114.62,187.31Z"/>
  <path d="M 133,167.31 s 37.5,23.75,41.67,25 a 14.86,14.86,0,0,0,2.92-2.92 L 135.87,164Z"/>
  <polygon points="150.46 144.81 190.04 166.89 193.38 161.89 154.21 141.06 150.46 144.81"/>
  <path d="M 172.54,112.3 s 25.42,10.42,38.34,20 a 18.9,18.9,0,0,0,2.08-3.75 s -21.25-15.42-39.59-19.17 C 170.88,108.55,172.54,112.3,172.54,112.3Z"/>
  <path d="M 180,89.8 s 26.25,5.42,41.25,17.92 c 3.33-1.25,2.92-3.75,2.92-3.75 s -15-14.17-44.59-18.33 C 178,86.88,180,89.8,180,89.8Z"/>
  <path d="M 183.79,63.55 s 24.59,5,43.75,15.83 c 2.92-2.92,2.92-4.58,2.92-4.58 s -22.92-13.33-46.25-14.58 C 181,61.33,183.79,63.55,183.79,63.55Z"/>
  <path d="M 109.21,36 s 17.92,2.08,42.09,22.5 a 34.15,34.15,0,0,0,8.33,2.92 s -10-17.08-46.25-28.34 A 15.21,15.21,0,0,0,109.21,36Z"/>
  <path d="M 135.87,21 c 2.08.83,26.67,4.17,53.75,30.84 a 16.31,16.31,0,0,0,4.58-1.25 s -10-19.17-52.09-32.09 C 136.71,17.71,135.87,21,135.87,21Z"/>
  <path d="M 213,177.87 s -.29,13.89-10.43,13.56 c 6.78,2.09,8.12,4.94,8.7,14.75,2.6-10.38,5.11-14.07,9.8-13.55 C 215.81,190,213.24,186.85,213,177.87Z" fill="#c6918c"/>
  <path d="M 177.23,219.11 s -1,6.78-5.21,7.82 c 4.69,1,4.69,9.91,4.69,9.91 s .52-8.86,4.69-9.91 C 178.79,225.89,177.23,219.11,177.23,219.11Z" fill="#c6918c"/>
  <path d="M 224.8,7.75 s -1,6.78-5.21,7.82 c 4.69,1,4.69,9.91,4.69,9.91 s .52-8.86,4.69-9.91 C 226.37,14.53,224.8,7.75,224.8,7.75Z" fill="#c6918c"/>
  <path d="M 25.68,26.35 s 0,18.25-14.08,19.81 c 9.91,1.56,14.08,8.34,13,20.34,2.61-16.69,5.21-20.86,11.47-21.38 C 26.2,44.08,27.77,37.3,25.68,26.35Z" fill="#c6918c"/>
  <path d="M 103.14,4.5 s -.52,10.95-7.82,10.95 c 5.21,0,7.82,9.91,7.82,9.91 s 2.09-9.91,6.78-10.43 C 104.7,14.41,103.14,10.23,103.14,4.5Z" fill="#c6918c"/>
  <path d="M 14.54,140.25 s -2.09,10.43-8.34,10.43 c 6.26,1,8.34,6.26,8.34,13,1-11.47,5.74-13,7.82-13.56 C 16.11,149.63,15.06,146,14.54,140.25Z" fill="#c6918c"/>
  <path d="M 41.63,223.16 s .52,8.86-7.82,8.86 c 6.26,1.56,8.34,5.74,8.34,10.95,1.56-7.82,4.69-8.86,7.82-9.39 C 43.72,232.55,42.68,228.9,41.63,223.16Z" fill="#c6918c"/>
  <path d="M 240.95,101.51 s -1.56,10.95-7.82,13 c 5.21,2.09,6.78,13,6.78,13 s 1-13,6.78-13.56 C 240.43,113,240.95,101.51,240.95,101.51Z" fill="#c6918c"/>
  <path d="M 150.6,50.13 s -.92,13.12-9.67,12.92 c 6.25.14,9.12,12.09,9.12,12.09 s 2.76-11.83,8.4-12.33 C 152.22,62.05,150.45,57,150.6,50.13Z" fill="#fff"/>
  <path d="M 38.39,123.72 s -.62,13.54-9.65,13.55 c 6.44,0,9.69,12.23,9.69,12.23 s 2.56-12.25,8.36-12.9 C 40.34,136,38.4,130.81,38.39,123.72Z" fill="#fff"/>
  <path d="M 177.16,117.17 s -.41,8.91-6.35,8.92 c 4.24,0,6.38,8.05,6.38,8.05 s 1.68-8.06,5.5-8.49 C 178.45,125.23,177.17,121.83,177.16,117.17Z" fill="#fff"/>
  <path d="M 85.67,228.66 s -.37-13.54,8.63-14.22 C 87.86,214.93,83.73,203,83.73,203 s -1.65,12.4-7.39,13.48 C 82.82,216.6,85.13,221.59,85.67,228.66Z" fill="#fff"/>
  <path d="M 219.59,61.46 s -.08-14.71,10.32-14.64 c -7.74-1.43-8.9-3.41-9.72-14.14-1,11.87-3.43,13.5-7.86,14 C 219.38,47.21,218.1,54,219.59,61.46Z" fill="#fff"/>
<script type="text/ecmascript" xlink:href="param.min.js"/> 
</svg>
