<?xml version="1.0"?>
<svg xmlns="http://www.w3.org/2000/svg" xmlns:xlink="http://www.w3.org/1999/xlink" id="fixed-colours" viewBox="0 0 250 250">
  <title>three-hearts</title>
  <path d="M 141.31,121.11 a 71.64,71.64,0,0,0-6.25-33.5 c -7.95-17-12.78-37.76-6.53-50.54 s 20.16-17,30.09-14.2,21.86,15.9,21.29,32.93 c 13.91-11.07,35.13-7.42,43.44,2,8.52,9.65,11.36,25.84-6.25,39.18 s -27.26,6-45.14,18.45 C 160.34,112,147.84,115.15,141.31,121.11Z"/>
  <path d="M 168,112 s 8.23-6.81,23.56-10.79,27.54-9.94,30.66-21.29-2.56-19.87-11.07-23-23.28-2-34.64,7.95 C 176,49.57,168.85,34,159.77,30.26 a 19.88,19.88,0,0,0-26.4,13.34 c -4,13.34,1.7,29.81,5.39,37.48 s 9.65,26.12,7.95,35.2 C 153.24,112.59,163.46,111.74,168,112Z" fill="#fff9ae"/>
  <path d="M 125.7,242.91 s 9.94-23.56,27.26-39.46,37.19-38.33,38.9-57.63-9.09-33.5-23.28-36.06-33.22,8.23-40.88,26.12 c -9.94-21.29-31.23-27.82-47.41-22.71 s -29.53,24.7-17.89,51.39 S 115.76,208.55,125.7,242.91Z"/>
  <path d="M 126.27,227.86 S 111.5,204.58,93.33,191,63.71,160.76,65.7,142.88 s 19.21-27.54,33.69-22.71,25.17,18,28.3,28.2 c 7.95-17,21.29-29.53,31.8-30.38 s 25.84,4.64,24.7,25.65 S 164.31,181.3,156.93,189,130.24,215.65,126.27,227.86Z" fill="#ec008c"/>
  <path d="M 95.61,102.94 S 81.33,85.67,61.33,81.67 c -19.39-3.88-33.67-9.33-36.71-26.42-3.69-20.73,17.89-38.9,39.18-24.7 C 66.08,7.26,86.52,3.86,95.61,8.4 s 17.29,19.93,9.06,40.93 S 93.9,93.29,95.61,102.94Z"/>
  <path d="M 89.93,91.58 A 56.64,56.64,0,0,0,66.36,78.24 c -14.48-4-30.09-6.81-34.07-18.45 s .85-22.71,9.09-26.12,19.87-.28,25.84,4.54 c .85-10.79,5.68-21.86,15.9-24.7 s 20.55,6.16,18.55,21.82 C 100.12,47.45,88.51,67.17,89.93,91.58Z" fill="#b1ded2"/>
  <path d="M 75,132 c 8.23-9.63,24.58-11,29.25-4 s -13.17-2.33-22.5,10 C 75,146.93,65.7,142.88,75,132Z" fill="#fff" opacity="0.5"/>
  <path d="M 144.67,130 c 7.42-8.56,16.83-11.08,18.83-8.75 s -9.61,8-15,13 C 142.83,139.5,132.75,143.75,144.67,130Z" fill="#fff" opacity="0.5"/>
  <path d="M 35.33,44.33 c 3.26-8.57,16-10,18-6.67 S 44.83,40.17,40.67,48 C 37.78,53.43,32.17,52.67,35.33,44.33Z" fill="#fff" opacity="0.5"/>
  <path d="M 73.67,26.67 c 3-7.54,7-9.08,8.67-8,2.33,1.5-4,8.67-4.67,14.67 S 69,38.33,73.67,26.67Z" fill="#fff" opacity="0.5"/>
  <path d="M 143,36.67 c 6.73-5.93,20.67-2,23.67,4.67 s .33,4-7,1-19,4.33-19,12-5.33.33-4.67-4.33 S 137.33,41.67,143,36.67Z" fill="#fff" opacity="0.5"/>
  <path d="M 192.33,59.67 c 9.72-3.31,14.33,0,14.67,2 S 195.33,63,191.33,65.33,175.67,65.33,192.33,59.67Z" fill="#fff" opacity="0.5"/>
  <path d="M 210.91,113.78 s -.34,16.05-12.06,15.67 c 7.84,2.41,10.23,5.59,10.9,16.92,1.25-11.87,4.58-16.48,10-15.87 C 212.38,128.88,211.24,124.17,210.91,113.78Z" fill="#ef8fd2"/>
  <path d="M 16.24,157.56 S 14.8,167,9,168.4 c 6.51,1.45,6.51,13.74,6.51,13.74 s .72-12.29,6.51-13.74 C 18.41,167,16.24,157.56,16.24,157.56Z" fill="#ef8fd2"/>
  <path d="M 168.09,224.73 s -1,6.67-5.13,7.69 c 4.62,1,4.62,9.75,4.62,9.75 s .51-8.72,4.62-9.75 C 169.63,231.39,168.09,224.73,168.09,224.73Z" fill="#ef8fd2"/>
  <path d="M 232.59,39.73 s -1,6.67-5.13,7.69 c 4.62,1,4.62,9.75,4.62,9.75 s .51-8.72,4.62-9.75 C 234.13,46.39,232.59,39.73,232.59,39.73Z" fill="#ef8fd2"/>
  <path d="M 190.79,11.67 s -.08,15.39-10.61,15.93 c 7.85,1.23,10.45,6,11.07,17.27.61-11.3,3.21-16.66,9.74-18.16 C 191.71,26.52,191.56,18.33,190.79,11.67Z" fill="#ef8fd2"/>
  <path d="M 20.11,17.43 s -.53,11.12-7.95,11.12 c 5.3,0,7.95,10.06,7.95,10.06 S 22.23,28.55,27,28 C 21.7,27.49,20.11,23.26,20.11,17.43Z" fill="#ef8fd2"/>
  <path d="M 122.58,6.59 S 122.08,17,115.17,17 c 4.94,0,7.41,9.39,7.41,9.39 s 2-9.39,6.42-9.88 C 124.06,16,122.58,12,122.58,6.59Z" fill="#ef8fd2"/>
  <path d="M 66,197.25 s -.12,15.38-12,16.07 c 8.68,1.45,11.57,8.68,11.57,18.08,1.45-15.91,8-18.08,10.85-18.8 C 68.38,212.88,66.72,205.2,66,197.25Z" fill="#ef8fd2"/>
  <path d="M 228.88,183.88 s .13,15-11.62,15.63 c 8.68,2.17,10.63,7.5,11.5,15.5,2.17-10.85,6.33-14.53,10.67-15.25 C 231.25,198.63,229.75,191.17,228.88,183.88Z" fill="#ef8fd2"/>
  <path d="M 39,100.49 S 37.41,111.87,30.9,114 c 5.42,2.17,7,13.55,7,13.55 S 39,114,45,113.5 C 38.49,112.42,39,100.49,39,100.49Z" fill="#ef8fd2"/>
<script type="text/ecmascript" xlink:href="param.min.js"/> 
</svg>
