<?xml version="1.0"?>
<svg xmlns="http://www.w3.org/2000/svg" xmlns:xlink="http://www.w3.org/1999/xlink" id="fixed-colours" viewBox="0 0 250 250">
  <title>taxi</title>
  <path d="M 123,76.5 c 35,0,55-1,68,2 s 17,15,22,27 A 420.93,420.93,0,0,1,228,148 c 4,14-1,29-31,29 s -117.5,0-140.5.5-42.5-6-39.5-25,15-42.5,19-55 S 46.5,75.5,64,77,123,76.5,123,76.5Z"/>
  <path d="M 123.5,83.5 c 28.5-.5,41,.5,53.5.5 s 22,5,28,19 a 304,304,0,0,1,14,40.5 c 2.5,10,5.5,25-17,26 s -95.5-1-126-.5-41,2.5-49-8.5,5.5-32.5,11.5-46,6-28,21.5-29.5 S 123.5,83.5,123.5,83.5Z" fill="#ec008c"/>
  <polygon points="29.93 187.94 5.7 213.17 12.12 217.87 29.93 187.94" fill="#f8c1d9"/>
  <polygon points="77.33 186.67 55.66 239.28 64.67 242.33 77.33 186.67" fill="#f8c1d9"/>
  <polygon points="124.67 186 118.67 224.33 127.33 225 124.67 186" fill="#f8c1d9"/>
  <polygon points="166.67 192.67 184.75 243.21 192 239 166.67 192.67" fill="#f8c1d9"/>
  <polygon points="219.38 185.36 241.33 218.67 245.67 213.33 219.38 185.36" fill="#f8c1d9"/>
  <polygon points="41.33 66.67 24 50 30 45.5 41.33 66.67" fill="#f8c1d9"/>
  <polygon points="23.73 109.5 5.96 106.13 7.23 100.57 23.73 109.5" fill="#f8c1d9"/>
  <polygon points="222.27 109.5 240.04 106.13 238.77 100.57 222.27 109.5" fill="#f8c1d9"/>
  <polygon points="90 69.67 60 12.33 72 7.67 90 69.67" fill="#f8c1d9"/>
  <polygon points="126 49.67 121.33 8.33 128.33 8.33 126 49.67" fill="#f8c1d9"/>
  <polygon points="170.33 64.67 184.67 7.33 193.33 11.67 170.33 64.67" fill="#f8c1d9"/>
  <polygon points="202.67 68.67 224.33 37.33 230 44 202.67 68.67" fill="#f8c1d9"/>
  <path d="M 84.89,109.8v6.39 H 73.18v31.2 H 65.93v-31.2 H 54.23V109.8Z" fill="#fff"/>
  <path d="M 116,139.44 H 97.67 l -3.33,7.95 H 86.87 l 16.48-37.59 h 7.46 l 16.27,37.59 h -7.73Z m -2.58-6.17-6.55-15.79-6.66,15.79Z" fill="#fff"/>
  <path d="M 142.39,109.8,151,122.15 l 8.64-12.35 h 8.54 l -12.62,18,13.69,19.6 h -8.64 L 151,134 l -9.5,13.42 H 133.1 l 13.53-19.28 L 134,109.8Z" fill="#fff"/>
  <path d="M 187.39,109.8v37.59 h -7.2V109.8Z" fill="#fff"/>
  <path d="M 120.5,88 c 29,0,53.5-1.5,63.5,1 s 18,12.5,1.5,12-57.5-3-80-2.5-36.5,1-46,1.5-7-11,6.5-12 S 94.5,88,120.5,88Z" fill="#fff" opacity="0.3"/>
  <path d="M 32,158 c -4.14-4.48-4.5-7.5,5-2.5 s 35,5,73,5.5,81.5.5,90.5-1,9-6.5,13-6,4,5.5-2,8.5-14,4.5-42.5,4.5-88.5-1-101.5-1 S 38,164.5,32,158Z" fill="#fff" opacity="0.3"/>
<script type="text/ecmascript" xlink:href="param.min.js"/> 
</svg>
