<?xml version="1.0"?>
<svg xmlns="http://www.w3.org/2000/svg" xmlns:xlink="http://www.w3.org/1999/xlink" id="fixed-colours" viewBox="0 0 250 250">
  <title>sports-bra</title>
  <path d="M 218.79,134.07 c -4.6-23.4-33.44-46-33.44-46 s -6.27-41.79-10.87-53.91 S 159,22.48,151.92,30 s -13,13.37-23,13.37-17.55-10-29.67-15.88 S 80.64,27.28,74.18,45 c -3.34,9.19-13,46.39-13,46.39 s -23,21.32-25.91,53.91,17.55,53.08,17.55,53.08,2.93,15,5.43,30.51 c 46,10.87,130,1.25,130,1.25 s 3.34-13.37,6.69-30.51 C 215,186.73,223.38,157.47,218.79,134.07Z M 92.15,135.74 C 82.54,119.86,75,97.29,87.55,60.93 c 0,0,6.69-7.52,15.88.42 S 119.32,98.54,92.15,135.74Z M 127.47,147 s -10.66-6.27-12.33-17.14,2.51-12.75,4.6-12.75,5,2.09,7.11,7.52 c 3.55-8.15,9.19-8.36,11.91-5 S 139.38,136.37,127.47,147Z m 30.72-14.63 C 141.47,108.15,136.87,76.81,144,64.69 s 18.81-3.34,18.81-3.34 C 168.63,86.84,168.22,109,158.19,132.4Z" fill="#f287b6"/>
  <path d="M 54.36,199.83 s 12,8.42,24.84,5.29 c 12.36,3.36,70.32,10.28,105.78-4.43,6.92.43,9.52.43,9.52.43 s -7.24,20.08-6.22,29.07 c -31.85,5.1-97.49,8-130-1.25 C 57,215.4,54.36,199.83,54.36,199.83Z" fill="#fff"/>
  <path d="M 150.09,147.64 c 7.44-8.92,12.22-22.39,14.57-35.85 a 104,104,0,0,1-6.47,20.61 C 141.47,108.15,136.87,76.81,144,64.69 s 18.81-3.34,18.81-3.34q.75,3.27,1.36,6.47 c -1.79-12.67-5-26.1-13.32-36.66-6.63,7-12.38,12.22-21.89,12.22-7.7,0-13.92-5.9-21.87-11.29 C 101,38,93.23,47.36,88.82,59.82 c 2.35-1.74,7.79-4.37,14.62,1.53,9.1,7.86,15.75,36.63-10.5,73.31 a 58.26,58.26,0,0,0,3.4,4.85 C 113.76,161.76,137.11,163.21,150.09,147.64Z m -35-17.75 c -1.67-10.87,2.51-12.75,4.6-12.75 s 5,2.09,7.1,7.52 c 3.55-8.15,9.19-8.36,11.91-5 s .63,16.72-11.28,27.38 C 127.47,147,116.81,140.75,115.14,129.89Z" fill="#312f30"/>
  <path d="M 223.8,145.35 c -1.67-31.76-35.11-58.09-35.11-58.09 s -3.76-37.2-10.45-55.17 S 154.84,20,146.48,28.33 s -13,11.28-18.39,11.28-11.28-6.69-18.81-11.28 S 85.46,14.54,77.1,31.25,57.46,91,57.46,91 s -21.32,22.15-26.33,54.33,19.23,55.17,19.23,55.17,2.93,14.21,5.85,33.44 C 116,246.08,192,234,192,234 S 195,212.22,200,200.1 C 205.83,195.09,225.47,177.12,223.8,145.35Z m -9.19,4.18 c -.42,38.87-23,47.65-23,47.65 s -4.18,20.06-5.43,28.42 c -30.51,8.78-94,5.85-123.71,2.09-2.93-17.55-6.27-31.76-6.27-31.76 s -18-18-16.3-49.32,24.66-53.5,24.66-53.5,6.27-31.35,13.37-47.65 S 90.48,25,103,33.76,121.82,49.23,131,48 s 18.39-11.28,24.66-15.46,14.21-5.85,18,14.21,7.11,42.21,7.11,42.21 S 215,111.06,214.61,149.53Z"/>
  <path d="M 105.52,30.84 A 73.83,73.83,0,0,0,83.37,65.11 c -6.69,22.15-9.19,47.23,6.69,72.3 s 49.32,36.78,67.71,4.6 S 170.31,51.31,154,28.75 a 38.08,38.08,0,0,1-4.18,4.18 s 18,30.51,12.12,79.41-41.38,48.9-55.17,35.11 S 81.28,115.26,85.46,80.57 s 24.24-46,24.24-46Z"/>
  <path d="M 88,57.58 s 9.61-8.36,19.23.84,15,40.12-10.87,81.08 a 16.89,16.89,0,0,0-5.85-5.85 s 13.79-19.64,17.14-43 S 98.42,55.91,87.14,63.85 A 30.5,30.5,0,0,1,88,57.58Z"/>
  <path d="M 162.36,58 S 151.08,45.88,141,61.76 c -10.9,17.25,3.76,61.86,16.72,76.48,2.09-2.51,2.09-7.94,2.09-7.94 s -9.19-13-13.79-34.69-.84-42.21,16.3-31.35 A 9.47,9.47,0,0,0,162.36,58Z"/>
  <path d="M 50.46,189 s 19,22.49,45.42,10.38 c -13.41,12.54-32.57,12-44.27,1.13 C 42,189.65,50.46,189,50.46,189Z"/>
  <path d="M 161.11,195.09 s 21.73,7.94,36.36,0 a 18.51,18.51,0,0,1-2.09,7.94 A 47.25,47.25,0,0,1,161.11,195.09Z"/>
  <path d="M 85.5,203.86 s 61.71,7.21,92.85-2.88 a 54.58,54.58,0,0,1,12,1.63 s -46,18.81-125,2.93 C 72.09,206,85.5,203.86,85.5,203.86Z"/>
  <path d="M 127.26,121 c -2.79-10-14.77-9.75-14.21,5 s 14.77,23.4,14.77,23.4,12-11.15,13.37-21.18 C 142.86,112.33,131.16,110.94,127.26,121Z m 10.59,5.85 c -.56,8.92-10.59,17.83-10.59,17.83-.84-.84-9.75-6.41-10.87-17.27 s 6.69-10.87,10.59.84 C 132,115.68,138.4,117.91,137.85,126.82Z"/>
  <path d="M 40.89,98.44 s -28.15-7-28.93,2.35 S 40.89,98.44,40.89,98.44Z" fill="#6dcff6"/>
  <path d="M 46.83,65.17 S 25,46.57,17.55,53.51,35.68,61.46,46.83,65.17Z" fill="#6dcff6"/>
  <path d="M 55.06,29.66 S 34,23.4,37.86,14,51.94,31.22,55.06,29.66Z" fill="#6dcff6"/>
  <path d="M 205.55,28.87 s 15.64-25.8,25-20.33 S 205.55,28.87,205.55,28.87Z" fill="#6dcff6"/>
  <path d="M 205.57,63.22 s 27.36-18,32.05-7.82 S 205.57,63.22,205.57,63.22Z" fill="#6dcff6"/>
  <path d="M 215.74,95.69 s 28.15-2.35,27.36,7.82 S 215.74,95.69,215.74,95.69Z" fill="#6dcff6"/>
  <path d="M 34.25,208.36 S 6.89,231.81,19.4,238.85,34.25,208.36,34.25,208.36Z" fill="#6dcff6"/>
  <path d="M 216.72,212.47 s 26.58,8.6,21.11,18.76 S 216.72,212.47,216.72,212.47Z" fill="#6dcff6"/>
<script type="text/ecmascript" xlink:href="param.min.js"/> 
</svg>
