<?xml version="1.0"?>
<svg xmlns="http://www.w3.org/2000/svg" xmlns:xlink="http://www.w3.org/1999/xlink" id="fixed-colours" viewBox="0 0 250 250">
  <title>white-wine-bottle</title>
  <path d="M 85.93,164.46 c -.54-26-.39-57.37,1.62-69.32 s 14.54-18.93,19-23.81,7.34-12.13,7.69-24.46-.41-25.14-.17-29.35 c .26-4.52,2.81-8.5,11.27-9.35 s 16.41,1.76,18,6.16 c 1.67,4.67.18,35.37,0,42 s 2.94,14.09,8.76,20.59,12.45,19.69,12.69,46.71.39,81,.13,90-.15,17.34-7.59,20.79-25.89,7.61-42.83,5.13-24.05-10.35-26-23.74 S 86.21,178.14,85.93,164.46Z"/>
  <path d="M 158.52,131.63 c -.08-6.56-.24-12.15-.53-15.84-1.23-15.71-6.51-29.53-13.33-35.72 s -7-12.53-7.52-17.22 c 0-.25-.05-.58-.08-1 a 76.15,76.15,0,0,1-17.89-.5 c -.12.89-.26,1.76-.41,2.61-2.37,13.27-13.54,19-19,25.14 S 94,107.33,93.8,133.67 c 0,.11,0,.22,0,.33 C 107.3,136.57,130,138.45,158.52,131.63Z" fill="#eed9a0"/>
  <path d="M 94.46,174.74 c .48,18,1.15,35.61,1.71,40.7,1.06,9.7,7.26,14.54,21.55,16.28 s 31.74-2.11,36.83-5.3,4.09-14.89,3.84-29.9 c -.07-4.57,0-12.39,0-21.5 C 147,178.55,125.1,182.34,94.46,174.74Z" fill="#eed9a0"/>
  <path d="M 158.43,175 c .1-13.78.25-30.48.09-43.38 C 130,138.45,107.3,136.57,93.8,134 c -.06,8.2.23,24.64.66,40.74 C 125.1,182.34,147,178.55,158.43,175Z" fill="#fff"/>
  <path d="M 137.07,61.9 c -.41-6.75,0-33,.48-37,.46-4.32-.09-8.67-7.42-8.88 s -10.44,3.71-10.26,9 c .17,5,1.14,23.19-.69,36.38 A 76.15,76.15,0,0,0,137.07,61.9Z" fill="#b28a55"/>
  <path d="M 126,196.6 s -20.31-24.91-24.23-51.37,15.16-40.92,25.87-18.61 c 9-23.09,27.26-8.9,25.11,8.38 S 141.2,179.35,126,196.6Z"/>
  <path d="M 126.2,190.93 S 109.28,164.11,106.43,147 s 3.38-25.25,9.05-25.42,11.08,9.32,11.32,12.66 c 3.86-6.89,7.75-14.79,13.42-14.63 s 10.48,6.63,7.68,23.23 S 131.06,184.07,126.2,190.93Z" fill="#ea63ad"/>
  <path d="M 117.74,23.71 s 14.9,3.67,22.53-.62 a 24.06,24.06,0,0,0-.13,4.5 s -11.59,2.93-23-.65 A 3.88,3.88,0,0,1,117.74,23.71Z"/>
  <path d="M 116.25,58.68 s 14.65,3.91,23.75.17 a 6,6,0,0,1-.13,4.5 s -13.09,3.13-24-1.42 C 115.48,59.66,116.25,58.68,116.25,58.68Z"/>
  <path d="M 91,131 a 57.83,57.83,0,0,0,12.71,1.61,10.86,10.86,0,0,0-.36,3.74 s -7.51.29-13.2-2.12 C 88.44,131.68,91,131,91,131Z"/>
  <path d="M 150,130.66 s 8.77-.75,12.34-3.15 c -1.33,3-.63,4.48-.63,4.48 a 41.31,41.31,0,0,1-11.57,2.18 A 9.48,9.48,0,0,1,150,130.66Z"/>
  <path d="M 91.82,171.54 A 111.25,111.25,0,0,0,115.73,175 a 11.39,11.39,0,0,1,1.38,4.29 s -18-.76-26.4-4 C 88.79,172.46,91.82,171.54,91.82,171.54Z"/>
  <path d="M 137.46,176.08 s 17.76-.25,25.67-5.78 C 162.82,172.54,162,176,162,176 s -14.39,4.85-25.88,4.27 C 135.4,178.27,137.46,176.08,137.46,176.08Z"/>
  <path d="M 117.33,77.33 C 114.46,82.61,106.67,85.67,103,90 s -5.33,17.67-5.33,27,2.67,14.33,4.67,3.67,1.67-21.33,7-27.33 S 121,81.67,122,78,121.33,70,117.33,77.33Z" fill="#fff" opacity="0.5"/>
  <path d="M 123,42 c .42,5-1.33,14.67,1,14.67 S 125.67,48,126,41 s .33-11-1.67-11 S 122.67,38,123,42Z" fill="#fff" opacity="0.5"/>
  <path d="M 100,181.5 c 3,0,3,13,3.5,22.5 s 2.5,18,13,18.5,9,5,1.5,5.5-18.5-1-19.5-16 S 97,181.5,100,181.5Z" fill="#fff" opacity="0.5"/>
  <path d="M 32,171.62 s -15.26-5-21.89-14-4.95-18,1.38-15.73,10.84,9.74,10.84,9.74-3-12,4-18.78 S 40.62,142.62,32,171.62Z" fill="#efabd4"/>
  <path d="M 187.94,53.44 S 184.46,40,186.26,28.86 s 15-18.91,7,11.74 c 7.77-17.07,22-22.31,15-7 A 38.3,38.3,0,0,1,187.94,53.44Z" fill="#efabd4"/>
  <path d="M 84.54,78.72 s -7.62-6-11.33-13,.37-16.88,8.84,3.59 c -2.89-12.79,2.8-21.72,5.38-10.23 A 26.78,26.78,0,0,1,84.54,78.72Z" fill="#efabd4"/>
  <path d="M 216.84,133.39 s -8-29.44-.19-32.22,6,16.16,6,16.16,10.51-9.7,15.56-9.5 S 239.86,119.38,216.84,133.39Z" fill="#efabd4"/>
  <path d="M 44.49,47.7 S 29.87,42,23.93,33.09 s -4.54-21.92,12.85-2.37 C 36.41,16.14,40.14,9.83,45,13.47 S 47.59,37.12,44.49,47.7Z" fill="#efabd4"/>
  <path d="M 186.55,233.12 s -4.81-14.95-1.7-25.16,14.1-17.39,10,8.45 c 11.06-9.51,18.3-10.61,18.59-4.51 S 196.71,228.83,186.55,233.12Z" fill="#efabd4"/>
  <path d="M 64,232.68 s -11.07-5.44-15.66-12.15-.34-17.5,7.9-4.87 c 3.46-9.85,8.85-13.63,10.43-3.7 S 64,232.68,64,232.68Z" fill="#efabd4"/>
<script type="text/ecmascript" xlink:href="param.min.js"/> 
</svg>
