<?xml version="1.0"?>
<svg xmlns="http://www.w3.org/2000/svg" xmlns:xlink="http://www.w3.org/1999/xlink" id="fixed-colours" viewBox="0 0 250 250">
  <title>white-wine-glass</title>
  <path d="M 69,89.67 c -1.09-29.36,8.5-52.5,14.5-60.17,14.67-12,47.5-17.5,71.5.17,6.67,14.33,17.51,47.54,9,78-8.75,31.33-25.5,41.58-31.25,55.08-6,14.16-3.42,35.92-2.08,45.92 s 9.33,10,17.33,13,14.33,9.67,2.67,15.67-34,7-50.67,2.67-12-13.67-2.67-16.67,17-4.33,17-13,.58-33.92-4.08-44.58-16.5-18.5-25.92-31.42 A 81,81,0,0,1,69,89.67Z"/>
  <path d="M 87.5,32.5 s 13.5-10.83,32.17-9.83 a 72,72,0,0,1,32,9 C 142,36.67,110.83,42.17,87.5,32.5Z" fill="#eefbff"/>
  <path d="M 86,36.5 S 74.33,57.33,75.33,87 c 22-15.67,73-7.67,85.67-.33,1.33-22.67-4.67-45-7.67-50 C 141,42,112,45.17,86,36.5Z" fill="#eefbff"/>
  <path d="M 78,90 c -.3,2.67,18,5.67,41.33,5.67 s 40.67-3.33,40.67-6-22-7.33-41-8 S 78.33,87,78,90Z" fill="#fee9a6"/>
  <path d="M 75,93.67 s 45.67,13,85.67,1 a 106.5,106.5,0,0,1-22,49.67 c -6.33,7.67-26.33,12.33-38.33,0 S 77.33,117,75,93.67Z" fill="#fee9a6"/>
  <path d="M 109,154 a 23.49,23.49,0,0,0,24.67-1.33 C 121,164,124.33,204.33,126,212 s 7.67,10.33,13.67,12,13.33,7,3,10-24,3.33-35,1.67-12.67-6.33-5.33-9.33,15.33-6,16-13.67 S 122,163.25,109,154Z" fill="#eefbff"/>
  <path d="M 78.25,98 A 68.69,68.69,0,0,0,92,100.75 c 2,13.75,7.75,31,15,37 s 3.75,10.25-5.5,3 S 78.75,111,78.25,98Z" fill="#fff" opacity="0.5"/>
  <path d="M 144.33,102.67 S 154.67,101,157,99.33 c -3.33,15.33-13,35.33-19,42 s -5-1-1.33-7.67 S 144,110,144.33,102.67Z" fill="#fff" opacity="0.5"/>
  <path d="M 90.67,91.67 s -14.67-1-5.67-4,36.67-7,56.33-1.67 c -15.67-2-37,0-45.33,1.33 S 85.67,89,90.67,91.67Z" fill="#fff" opacity="0.5"/>
  <path d="M 80.75,60.25 c 1.7-10.9,6.5-18.5,8.5-18.25 s -2.5,10-4,18.75-1.5,18.25-3.75,19 S 79.5,68.25,80.75,60.25Z" fill="#fff"/>
  <path d="M 119.5,44.25 c 7.75-.12,17.25-.75,21.75-1.75 s 6,1.25-2.5,3.25-21.5,2.25-29.25,1.5-14.75-3.5-14.25-4.75 S 103.75,44.5,119.5,44.25Z" fill="#fff"/>
  <path d="M 110.25,224.75 c -3,1.5-12,3.75-8.25,6.5 s 19.75,3.5,29.5,2.5 C 120.75,233,106.25,232,108,229.5 A 14.83,14.83,0,0,0,110.25,224.75Z" fill="#fff"/>
  <path d="M 119.5,177.5 a 240.48,240.48,0,0,1,.75,27 c -.25,3.75-.75,14.5,1,12.25 s 1.25-16,1-27.25-1-21.5-3-25.25 S 118.5,168.25,119.5,177.5Z" fill="#fff"/>
  <path d="M 221.53,216.66 c 4.12-.61,6.16-1.64,5.91-2.66-.35-1.38-3.68-.65-11.19.06 l -1.2-.54 c 4-3.92,10.11-9.83,8.36-11.22 s -4.85,2.53-10.87,8.8 c -1-5-1.72-8.32-3.65-8-1.68.28-.65,3.46.15,7.53-4.72-2.57-10.23-5.81-11.44-4.3-1.46,1.82,4.66,5,10.91,8.23-6.1.19-14.25.28-12.93,2.26 s 4.6,1.11,10.63.66 c -4.09,4.12-7.91,8.32-5.79,8.62 s 5.92-3.58,9.3-7.13 c .12,5.13.71,8.74,2.8,8.74 s 1.79-6,1.17-10.33 c 6.25,3.58,13.12,8,14.15,5.89 C 228.66,221.62,226.32,219.3,221.53,216.66Z" fill="#ffdc7b"/>
  <path d="M 86,178.71 c -.3-1.94-5.23-.41-11,.1,3.3-4.14,7.92-10,6.18-11.1 s -4,2.51-8.34,8.46 c -.13-5.38-.23-12.15-2-11-2,1.29-.71,5.24-.47,12.59-3.85-2.56-9.8-7.85-11.23-6.5 s 2.9,4.35,7.46,7.6 c -5.08,0-8.57.5-8.64,2.39 s 5.08,2,9.65,1.73 c -3.6,4.64-7.35,9.72-5.17,9.76,2,0,5.29-4.27,8.08-8.06.35,6.17,1.52,9.33,2.72,9 s .61-3.24,0-9.85 c 4,3.14,7.84,6.07,8.75,4.74 s -1-3.69-5.11-6.64 C 82.51,181.22,86.25,180.61,86,178.71Z" fill="#ffdc7b"/>
  <path d="M 176.81,148.11 c -.58-1.09-2.84.09-6.94,1.84,1.58-2.84,3.61-6.39,2.37-6.33-1.41.07-2,2.51-4.11,6.4-1.22-2.51-2.69-7.09-3.85-6.83 s .18,3.15,1.55,6.24 c -2.64-1.56-4.61-2.37-5.23-1.41 s 2,2.59,4.49,3.86 c -3.3,1.31-6.81,2.8-5.68,3.49 s 4.06-.6,6.68-1.72 c -1.71,3.32-2.07,5.32-1.36,5.53 s 1.31-1.5,3-5.12 c 1.12,2.87,2.21,5.56,3.1,5.15 s .61-2.23-.62-5 c 3.13,1.35,5.27,2.17,5.7,1.1 s -2.59-1.82-5.74-3.32 C 173.17,150.85,177.39,149.2,176.81,148.11Z" fill="#ffdc7b"/>
  <path d="M 199.46,21.69 c 4.13-1.69,9.35-3.76,8-4.76-1.58-1.14-4.27,1-9.9,3.34.85-3.74,3.2-9.91,1.73-10.62 s -2.52,3.53-3.69,8 c -1.49-3.94-2.91-6.49-4.4-6 s 0,4.52,1.5,8 c -4.66-1.43-9.7-2.83-9.09-1.13.56,1.55,4.87,2.84,8.63,3.89-4.68,2.09-6.78,3.93-6.2,4.77 s 2.69-.48,7.64-2.9 c -1.25,4-2.4,7.86-1.1,8.18 s 2.56-1.87,3.64-5.92 c 2.21,4.13,3.78,6.84,5.17,6.06 s -1.22-4.17-3.31-8.47 c 4.18,1.34,10.11,3.18,10.42,1.52 S 205.36,23.32,199.46,21.69Z" fill="#ffdc7b"/>
  <path d="M 30.55,227.75 c 3.1-1.27,7-2.82,6-3.57 s -3.21.74-7.43,2.51 c .64-2.81,2.4-7.44,1.3-8 s -1.89,2.65-2.77,6 c -1.12-3-2.19-4.88-3.3-4.5 s 0,3.4,1.13,6 c -3.5-1.07-7.29-2.13-6.82-.85 s 3.65,2.13,6.48,2.92 c -3.52,1.57-5.09,3-4.66,3.58 s 2-.36,5.74-2.17 c -.94,3-1.8,5.91-.82,6.14 s 1.92-1.4,2.73-4.44 c 1.66,3.1,2.84,5.14,3.88,4.55 s -.92-3.13-2.48-6.36 c 3.14,1,7.59,2.39,7.83,1.14 S 35,229,30.55,227.75Z" fill="#ffdc7b"/>
  <path d="M 59.28,18.8 c -.59-1.27-3.24-.07-8,1.68,2-3.14,4.49-7.06,3.07-7.07-1.61,0-2.4,2.73-5.06,7-1.23-2.93-2.63-8.24-4-8 s 0,3.6,1.39,7.2 c -2.92-1.94-5.11-3-5.87-1.92 S 43,20.81,45.71,22.4 C 41.87,23.69,37.79,25.18,39,26 s 4.66-.44,7.71-1.55 c -2.15,3.68-2.68,5.93-1.88,6.22 s 1.58-1.63,3.76-5.65 c 1.11,3.33,2.19,6.47,3.22,6.05 s .83-2.5-.4-5.76 c 3.49,1.72,5.86,2.79,6.42,1.59 S 55,24.72,51.51,22.82 C 55,21.7,59.88,20.08,59.28,18.8Z" fill="#ffdc7b"/>
  <path d="M 236.76,94.23 c -.51-2.17-6.93.38-14,1.09,2.58-4.16,8.36-12.63,6.23-13.64 s -4.15,4-9,12 c -1.61-5.11-3.85-14.22-5.43-12.44 s .53,4.94,2.58,11.44 c -3.48-2.58-7.42-5.66-8.54-4.6-1.34,1.27,2.94,4.35,7.48,7.58-5.82.32-9.8,1.07-9.74,3,0,1.68,5.08,1.68,9.82,1.2-2.62,4.34-4.8,8.46-2.92,8.29 s 4.15-3.81,6.31-7.46 c 1.82,5.21,3.61,7.62,4.62,7.07 s 0-2.66-1.78-7.41 c 4,3.14,7.85,6.11,8.76,4.78 s -1.09-3.77-5.38-6.8 C 232.58,97.14,237.24,96.28,236.76,94.23Z" fill="#ffdc7b"/>
  <path d="M 28.91,105.84 c -.42-1.77-5.67.31-11.47.89,2.11-3.4,6.84-10.33,5.09-11.16 s -3.39,3.29-7.33,9.81 c -1.32-4.18-3.15-11.64-4.44-10.18 s .43,4,2.11,9.36 c -2.84-2.11-6.07-4.63-7-3.76-1.1,1,2.41,3.56,6.12,6.2-4.76.26-8,.87-8,2.49,0,1.38,4.15,1.37,8,1-2.14,3.55-3.93,6.92-2.39,6.78 s 3.39-3.12,5.16-6.1 c 1.49,4.26,3,6.24,3.78,5.78 s 0-2.17-1.45-6.06 c 3.28,2.57,6.42,5,7.17,3.91 s -.89-3.08-4.4-5.56 C 25.49,108.22,29.31,107.51,28.91,105.84Z" fill="#ffdc7b"/>
<script type="text/ecmascript" xlink:href="param.min.js"/> 
</svg>
