<?xml version="1.0"?>
<svg xmlns="http://www.w3.org/2000/svg" xmlns:xlink="http://www.w3.org/1999/xlink" viewBox="0 0 250 250">
  <title>west-side</title>
  <g id="skin-tone">
    <path d="M 105.09,216.62 c 6.12,7.57-1.89,24.27,1.05,33.38 H 166 c -2.77-12.34-3.23-25.41-3.38-40.38,6.5-13,14-58.5,12.5-74,5.5-6.5,20-45,21-51 s -7-12.5-15.33-1.67-13.17,24.17-19.17,34.67-11,9.5-14.5,2-8-52.5-10.5-79.5 c 1.5-4,3-21,0-22-5.5-3-13.5,1-14.5,8.5-15.5,1.5-9.5,25-9.5,25 s -10,43.5-13,56.5-4,20.5-12,6.5-13.5-44.5-19.37-53.12-14.12-4.87-14.62,1.13,1.17,26,7.7,38,19.3,62,24.3,76.5 S 94.59,203.62,105.09,216.62Z" fill="param(skin_tone)"/>
  </g>
  <g id="fixed-colours">
    <path d="M 53.92,66.12 a 11.9,11.9,0,0,0,5.5,5.33 c 3.67,1.5,8.33-.5,8-8.17 S 58.26,56,56.59,57.62,53.76,59.79,53.92,66.12Z" fill="#fff"/>
    <path d="M 116.92,41 s -4.33-1.5-5.17-3.5 c 1.5-7.5,7.33-10.17,9.67-9.17 C 118.92,34.29,116.92,41,116.92,41Z" fill="#fff"/>
    <path d="M 137.26,30.12 s -4.83,4.83-9.5,3-4.33-8.33-4.33-8.33,4.5-7.67,9-6.33 S 138.09,26.12,137.26,30.12Z" fill="#fff"/>
    <path d="M 194.59,87.62 s -6.17,5.17-10,2.67.33-11.17.33-11.17 S 195.92,75.12,194.59,87.62Z" fill="#fff"/>
    <path d="M 124.09,23.87 s .13,7.5,4,8.62 A 7.13,7.13,0,0,0,137,28.24 a 4.11,4.11,0,0,1,.25,2.63 c 0,.38-3.87,4.75-9.25,3.37 S 122.84,25,122.84,25Z"/>
    <path d="M 194.59,85.45 s -4.5,6.67-9,4.67,0-11,0-11 l -1.67.5 s -4.33,9,.5,11.67,10.17-3.67,10.17-3.67Z"/>
    <path d="M 54.84,65.62 s 2.48,6.79,8.38,5.13 c 4.87-1.37,2.25-10.25,2.25-10.25 s 2.25.63,2.25,1,2.13,8.38-3.5,10.75-9.75-4.12-9.75-4.12Z"/>
    <path d="M 113.09,37 a 3.83,3.83,0,0,0,3.5,2.83 c 3,.33,0,2.33,0,2.33 s -3.83-1.67-4.33-3.67 S 113.09,37,113.09,37Z"/>
    <path d="M 119.91,171.22 s -1-16.5,1-25.3 C 114.35,154.26,119.91,171.22,119.91,171.22Z"/>
    <path d="M 133.09,149.12 s 1.5,19.5,4,24 C 138.59,165.12,133.09,149.12,133.09,149.12Z"/>
    <path d="M 113.42,76 s 3-.33,11.67,1.67 C 122.76,74,115.42,75,113.42,76Z"/>
    <path d="M 121.76,47.62 s 4,.33,7.67,1 C 127.76,45.29,121.76,47.62,121.76,47.62Z"/>
    <path d="M 67.09,100.62 a 11.6,11.6,0,0,1,9-4 C 71.76,94,69.42,97.29,67.09,100.62Z"/>
    <path d="M 62.76,83 a 16.31,16.31,0,0,1,7.67-2.33 C 66.76,78.29,62.76,83,62.76,83Z"/>
    <path d="M 130.42,80.62 a 9.65,9.65,0,0,1,5-.67,6,6,0,0,0-5-1.33Z"/>
    <path d="M 171.76,109 a 13.9,13.9,0,0,1,8,3 C 178.09,108,175.09,107.62,171.76,109Z"/>
    <path d="M 179.09,97.29 a 39.45,39.45,0,0,1,6.33,3.33 C 185.76,98,180.76,97,179.09,97.29Z"/>
    <path d="M 100,218.5 c 5.43,10.41,2.46,19.8,1.67,31.5 h 7.57 c .87-11.76,3.06-24.64-2.24-33.5 C 96.59,199.1,97.42,199,92.42,188 S 71,127.79,64.34,105.12,51.58,61.84,58.09,59 c 7.5-3.33,11,10.67,14.67,20.67 s 13,41.33,17.33,46,5.67,3.67,9.67-10.67,17.67-69.33,21-80.67,6.67-15.33,11-15,5.67,5.33,3.67,12.67-4.33,29.33-6,39-5.33,36.67-5.33,53 c 3.67-19.33,11.67-70.33,11.67-70.33 s 4.33,55,9,65.67,11.33,11.08,17.33,1.08 S 177.76,89.62,182.76,83 s 12.67-4,11,3-11.67,29.67-20.67,49.33 C 171.76,170.62,157.76,210,157.76,210 l 3.48,40 h 7.52 c -3-9.45-3.08-22.88-3.76-39,10.67-26.67,12.76-73,12.76-73 s 10.33-25.33,14.33-37,9-20,3-23.67-13.33.33-16.33,5.67-9.84,18.26-16.17,30.42-11.5,11.25-12.5,8.25 c -3-5-10.33-57.67-10-88,1.67-10.33,1.33-16.33-6.67-18 s -11.33,4.33-13,10 c -12.33,2-11,11.67-11.67,28-8,32.33-13.33,65.67-15.67,66 S 79.76,86.29,76.42,76 s -10-25.33-17.67-22-8.67,12-4,34.67,25.67,82,29.33,92 S 91.57,202.34,100,218.5Z M 119.59,28.87 c -2.37,6.63-6.75,19.88-6.75,19.88 S 111.59,31.37,119.59,28.87Z"/>
    <path d="M 205.63,110.5 s -.87,16.5-11.44,15.79 c 7.84,2.41,10.52,6,11.19,17.34.88-12,4.77-16.56,10.2-16 C 208.38,125.88,206,120.89,205.63,110.5Z" fill="#8dd8f8"/>
    <path d="M 234.41,53.23 s -.83,10.19-7.23,10.85 c 6.51,1.45,6.51,13.74,6.51,13.74 s .72-12.29,6.51-13.74 C 234.42,63.42,234.41,53.23,234.41,53.23Z" fill="#8dd8f8"/>
    <path d="M 186.41,205.23 s -.91,10-7.23,10.85 c 6.51,1.45,6.51,13.74,6.51,13.74 s .72-12.29,6.51-13.74 C 186.63,215.38,186.41,205.23,186.41,205.23Z" fill="#8dd8f8"/>
    <path d="M 88.09,43.89 s -1,6.67-5.13,7.69 c 4.62,1,4.62,9.75,4.62,9.75 s .51-8.72,4.62-9.75 C 89.63,50.56,88.09,43.89,88.09,43.89Z" fill="#8dd8f8"/>
    <path d="M 81.42,198.56 s -1,6.67-5.13,7.69 c 4.62,1,4.62,9.75,4.62,9.75 s .51-8.72,4.62-9.75 C 83,205.23,81.42,198.56,81.42,198.56Z" fill="#8dd8f8"/>
    <path d="M 35.42,215.89 s -1,6.67-5.13,7.69 c 4.62,1,4.62,9.75,4.62,9.75 s .51-8.72,4.62-9.75 C 37,222.56,35.42,215.89,35.42,215.89Z" fill="#8dd8f8"/>
    <path d="M 37.9,7.55 S 38.54,23.87,26,25.27 c 8.81,1.39,10.27,5.21,11.59,18.08,2-14.15,4.66-18,10.23-18.48 C 39,23.94,38.7,16.77,37.9,7.55Z" fill="#8dd8f8"/>
    <path d="M 49.18,141.26 s -.72,15.18-10.85,15.18 c 7.23,0,10.85,13.74,10.85,13.74 s 2.89-13.74,9.4-14.46 C 51.35,155,49.18,149.22,49.18,141.26Z" fill="#8dd8f8"/>
    <path d="M 171,13.67 s -.33,14.67-11.69,15.66 C 168,30.77,170.88,38,170.88,47.4 c 1.45-15.91,8-18.08,10.85-18.8 C 173,27.88,172.5,22.17,171,13.67Z" fill="#8dd8f8"/>
    <path d="M 232,180.75 s .08,14.17-11.49,14.17 c 8.68,2.17,11.57,8,11.57,15.18.8-11.72,5.33-14.75,9.67-15.47 C 233.25,194.75,232.63,186.75,232,180.75Z" fill="#8dd8f8"/>
    <path d="M 21.1,95.65 s -.94,10-6.66,11.88 c 6.22,1,6.2,11.92,6.2,11.92 s 1-11.27,6.2-12.39 C 22,106.31,21.1,95.65,21.1,95.65Z" fill="#8dd8f8"/>
  </g>
<script type="text/ecmascript" xlink:href="param.min.js"/> 
</svg>
