<?xml version="1.0"?>
<svg xmlns="http://www.w3.org/2000/svg" xmlns:xlink="http://www.w3.org/1999/xlink" viewBox="0 0 600 1032.36">
  <title>ES007</title>
  <g id="main-colour">
    <circle cx="255.37" cy="520.86" r="20.59" fill="param(main_colour)"/>
  </g>
  <g id="fixed-colours">
    <path d="M 282.29,517.1 c -.92-1.85-6.16-7.55-9-9.55 a 32.35,32.35,0,0,0-4.72-2.64,20.6,20.6,0,0,1-10.76,36.4,38.86,38.86,0,0,0,18.32-5.87 C 285.64,529.59,284.14,520,282.29,517.1Z" fill="#fff"/>
    <path d="M 234.88,520.84 a 20.52,20.52,0,0,1,5.74-14.24,31.11,31.11,0,0,0-4.32,3.8 c -6.7,7.09-9.94,17.72-9.94,17.72,4.7,5,18.57,13.42,28,13.33 l .72,0 A 20.6,20.6,0,0,1,234.88,520.84Z" fill="#fff"/>
  </g>
  <g id="outline">
    <path d="M 361.59,513.36 c 8.38,10,24.91,18.37,51.25,6.5,0,0-29.67,11.42-46.58-4.42,9.92,9.17,32.64,9.78,50-6.54,0,0-23.18,17.73-45.09,7.93 C 349,497.25,319,513.09,315.66,518 l 1.3-.72 c -1.3,3.19-1.94,10.57.23,17.57,0,0-1.57-11.25,2-18.68 a 34.76,34.76,0,0,0,1.32,20.49 c -1.47-8.2-.94-16.37,1.83-21.92 l 0,0 c -1.23,4.47-2.46,18.86,3.08,27.79,0,0-5.78-14.77.4-29.25-1.48,5.24-2.12,21.78,4.83,33.43,0,0-6.38-17.53-2-34.35-1.1,8,.35,29.44,9.93,39.51,0,0-11.06-18.62-7.18-40.42-.59,7.26,1.06,23.92,7.9,35.17,0,0-7.56-19.56-4.65-35.58-.61,10.41,2.51,31.21,17,45.14,0,0-17.33-21.81-14.5-45.64-.42,8.33,3.17,26,14.5,36.67,0,0-13.11-17.75-12-37.33,1.33,10.21,6.48,32.13,27.09,46.31,0,0-22.55-19.89-24.4-46.31,1.34,8.14,8.79,26.89,24.58,38,0,0-18-15.75-22.08-38.17,8,21,19.38,34.61,43.86,40.88-2.09-.57-30.37-8.79-41.2-41,9.67,19.17,23.85,33.33,45.94,34.85,0,0-29.44-2.27-42.85-34.43,8.75,16.17,19.33,26,37.79,28.42,0,0-24.37-4.75-34.54-27.67,7.75,13.08,22.17,23.68,43,24.79,0,0-26.21-2.37-39.46-23.37,10.58,13.67,29.7,23.84,58.21,16.5 C 415.63,528.61,376.68,535,361.59,513.36Z"/>
    <path d="M 388.7,550.58 l .14,0Z"/>
    <path d="M 277.36,478.58 c -7.5,12.73-5.28,22.68-3.6,27q-1-.83-2-1.57 a 37.86,37.86,0,0,1-4.07-26.69 c -3.5,7.7-3.43,17.43-1.19,23.66-.5-.23-1-.44-1.49-.63-13.66-14.78-2.86-41.51-2.86-41.51-10.87,18.08-5.56,35.78-4.16,39.71 l -.41,0 c -11.89-14.28-7.6-37.67-7.6-37.67-5.92,20.85.95,33.95,3.37,37.7 h -.11 c -21.48-20-14.67-50-14.67-50 a 58.73,58.73,0,0,0,8.2,49.76 c -14.8-13.43-18.07-33-18.07-33,1.33,17,10.1,29.47,13.86,34.09-25.95-17.57-24.65-54.28-24.65-54.28-3.35,29.55,10.57,46.75,18.52,54-17-10.06-25.46-31.5-25.46-31.5 a 51.49,51.49,0,0,0,25.83,35 c -33.43-10.82-38.16-51.44-38.16-51.44,1.37,29.7,18.55,45,29.2,51.63-17.74-5.77-30-23.12-30-23.12,9.15,17.46,23.24,24.14,31.28,26.63-32.81-5.07-47.61-38.65-47.61-38.65,11.74,33.45,38.87,40.94,48.3,42.56-21.32.77-40.75-16.06-40.75-16.06 a 56.82,56.82,0,0,0,37.09,19.51 c -35.88,2.72-55.89-27.83-55.89-27.83,17.16,27.58,41.21,31.87,52.45,32.25-17.95,3-39.35-8.68-39.35-8.68,12.29,8.55,22.76,11.6,30.44,12.43-25.19,2.65-48.32-12.43-48.32-12.43,23.46,17,43.07,17.34,53.47,15.7-16.44,5.2-38.06,0-38.06,0,20.07,6.91,34.52,4.29,41.18,2.21-24.19,12.15-54,1.64-54,1.64,24.56,10.51,44,5.69,52.95,2.13 a 9.25,9.25,0,0,0-1.94,2.8 c 2.4-2.64,6.47-3.5,8.16-3.75.49.48,1,.95,1.52,1.4-3,1.16-4.29,5-4.29,5,1.63-1.74,4.73-2.79,6.4-3.26.8.61,1.62,1.2,2.46,1.76 a 10.37,10.37,0,0,0-3.62,4.88,21.39,21.39,0,0,1,5.78-3.52 c .81.48,1.63.95,2.45,1.38 a 10.43,10.43,0,0,0-3.3,5.22 c 1.16-1.58,4-3.16,5.76-4,.84.39,1.67.75,2.48,1.07-1.89,2-3,6.17-3,6.17 a 14,14,0,0,1,5.88-5.15 c .71.22,1.4.42,2.06.57 a 13.89,13.89,0,0,0-1.16,4,13.76,13.76,0,0,1,3.93-3.48 c .86.1,1.79.18,2.77.22 a 9.44,9.44,0,0,0-1.62,4.49 c .61-1.83,2.75-3.51,4.14-4.46.95,0,1.92-.05,2.91-.13 a 10.73,10.73,0,0,0-1,4.59,11.58,11.58,0,0,1,4-4.94,37,37,0,0,0,3.85-.79,14.33,14.33,0,0,0-1,4.19,14.56,14.56,0,0,1,4.12-5.21,19.35,19.35,0,0,0,7.28-4.65,49.13,49.13,0,0,1-8.68,3.1,21.31,21.31,0,0,0,4.72-30.81,45.12,45.12,0,0,1,10.13,9.37,29.12,29.12,0,0,0-4.07-6.89 C 270.08,494.06,277.36,478.58,277.36,478.58Z M 235.53,513 a 21.24,21.24,0,0,0,5.41,23.66,42.67,42.67,0,0,1-13.35-8.91 A 43.16,43.16,0,0,1,235.53,513Z m 19.84,26.53 A 18.57,18.57,0,0,1,239.67,511 a 11.17,11.17,0,1,0,8.09-7,18.43,18.43,0,0,1,3.51-1.17,22.57,22.57,0,0,1,2.92-.41 h 0 c .43,0,.86,0,1.29-.05 a 18.6,18.6,0,0,1-.12,37.21Z"/>
  </g>
  <g id="misc-objects">
    <circle cx="260.2" cy="525.75" r="7.4" fill="#fff"/>
    <circle cx="247.91" cy="512.65" r="2.72" fill="#fff"/>
    <path d="M 335.48,600.85 c -9.65-8.63-19.15-26.78-13-41.63 a 15.33,15.33,0,0,1,29.19,2.36 l .38-.23 a 15.33,15.33,0,0,1,22,19.12 C 367.94,595.35,348.41,601.53,335.48,600.85Z" fill="#ed135a"/>
    <path d="M 326.55,558.87 c 1.95-.36-.44,7.83,1.28,17 s 6.9,15.94,5,16.3-7-6.41-8.75-15.62 S 324.6,559.23,326.55,558.87Z" fill="#fff" opacity="0.7"/>
    <path d="M 369.79,581 c -1.21.25,0-3.62-.92-7.92 s -3.45-7.41-2.24-7.65,4.23,2.77,5.1,7.07 S 371,580.79,369.79,581Z" fill="#fff" opacity="0.7"/>
  </g>
<script type="text/ecmascript" xlink:href="param.min.js"/> 
</svg>
