<?xml version="1.0"?>
<svg xmlns="http://www.w3.org/2000/svg" xmlns:xlink="http://www.w3.org/1999/xlink" id="Layer_1" data-name="Layer 1" viewBox="0 0 600 1032.36">
  <title>ES008</title>
  <g id="outline">
    <path d="M 362.81,523.72 c 5,5.34,17,14.63,39.64,12.73,0,0-27.87-1.46-37.26-15.55,4.92,4.9,21.82,17.64,55.72,3.48,0,0-34.48,10.88-51.47-4.89,6.15,4,20.93,9.81,45.17-2.68,0,0-29.09,9.85-42.68.41,6.54,3,23,7.11,45.44-11.49,0,0-23.48,18-45.45,7.64 l .38-.34 a 57,57,0,0,1-56.57,0,6.67,6.67,0,0,0,1,1.09,19.76,19.76,0,0,0,.26,19.56 s -3.19-9.89,1.25-17.9 a 33.85,33.85,0,0,0,2.25,22.14 c -1.87-7.93-2-14.38.33-19.87-.72,4.9-2,19.13,6,28.88,0,0-6.86-10.5-2.26-26.67-.8,5.45-1.77,20.58,8.92,33.47,0,0-8.59-15-5.8-32.43-.18,6.6.35,29.28,15.33,39.48 a 47.12,47.12,0,0,1-11-39.07 h .08 c -.2,4.12-.45,22.4,12,35.48,0,0-11.08-16.45-8.29-34.57 h .12 c -.48,4.61-1.53,27.89,24.16,42.79,0,0-22-15.52-20.53-39.85.22,6.61,2.58,21.38,18.08,32.2,0,0-15-14.32-15.27-33.81,1.1,6.73,6.76,29.58,33.79,40.27,0,0-26.59-13.78-29.55-40.59 h 0 c 1.12,4.91,6.72,23.56,28.64,33.76,0,0-21.37-13.6-25.44-33.74,2.49,6.58,13.91,31.59,44.11,34.11,0,0-33.32-7.32-40.54-34.67,2.3,4.83,11.38,20.2,35.67,25.9,0,0-23.23-8.22-31.84-26.15,4.83,6.45,22.6,26.56,54.09,22.47 C 411.25,545.37,379.29,545.84,362.81,523.72Z"/>
    <path d="M 284.28,513 a 57,57,0,0,1-56.57,0 l .38.34 c -22,10.33-45.45-7.64-45.45-7.64,22.42,18.61,38.89,14.49,45.44,11.49-13.59,9.45-42.68-.41-42.68-.41,24.25,12.49,39,6.65,45.17,2.68-17,15.76-51.47,4.89-51.47,4.89,33.9,14.16,50.8,1.41,55.72-3.48-9.39,14.09-37.26,15.55-37.26,15.55,22.61,1.9,34.66-7.39,39.64-12.73-16.49,22.12-48.45,21.65-48.45,21.65,31.49,4.1,49.26-16,54.09-22.47 C 234.23,540.83,211,549,211,549 c 24.29-5.7,33.37-21.07,35.67-25.9-7.22,27.35-40.54,34.67-40.54,34.67,30.2-2.51,41.61-27.53,44.11-34.11-4.07,20.14-25.44,33.74-25.44,33.74,21.92-10.2,27.52-28.85,28.64-33.76 h 0 c -3,26.81-29.55,40.59-29.55,40.59,27-10.69,32.69-33.55,33.79-40.27-.3,19.49-15.27,33.81-15.27,33.81,15.5-10.82,17.86-25.59,18.08-32.2 C 262,549.94,240,565.47,240,565.47 c 25.69-14.91,24.64-38.19,24.16-42.79 h .12 c 2.79,18.11-8.29,34.57-8.29,34.57,12.41-13.08,12.16-31.36,12-35.48 h .08 a 47.12,47.12,0,0,1-11,39.07 c 15-10.19,15.51-32.87,15.33-39.48,2.79,17.44-5.8,32.43-5.8,32.43,10.69-12.89,9.71-28,8.92-33.47,4.6,16.17-2.26,26.67-2.26,26.67,7.94-9.74,6.7-24,6-28.88,2.3,5.48,2.2,11.94.33,19.87 a 33.85,33.85,0,0,0,2.25-22.14 c 4.44,8,1.25,17.9,1.25,17.9 a 19.76,19.76,0,0,0,.26-19.56 A 6.65,6.65,0,0,0,284.28,513Z"/>
  </g>
  <g id="misc-objects">
    <path d="M 223.73,581.11 a 13,13,0,0,1-20.17-16.31 c 4.5-5.57,24.33-9.45,24.33-9.45 S 228.23,575.54,223.73,581.11Z" fill="#8dd8f8"/>
    <path d="M 211.12,586.55 a 13.83,13.83,0,0,1-8.22-22.29 c 4.65-5.74,24-9.59,24.83-9.75 l 1-.2v1 c 0,.84.3,20.57-4.35,26.32 a 13.73,13.73,0,0,1-9.3,5 A 13.88,13.88,0,0,1,211.12,586.55Z M 227,556.39 c -4.06.87-19.12,4.37-22.82,8.94 A 12.12,12.12,0,0,0,222.63,581 l .39-.48 C 226.76,576,227,560.55,227,556.39Z" fill="#00aeef"/>
    <path d="M 209,565.68 c -1.55-.1-4.74,1.79-5.06,6.83 s 2.6,7.32,4.16,7.42,0-2.1.28-7.14 S 210.52,565.78,209,565.68Z" fill="#fff"/>
    <path d="M 376.27,581.11 a 13,13,0,0,0,20.17-16.31 c -4.5-5.57-24.33-9.45-24.33-9.45 S 371.77,575.54,376.27,581.11Z" fill="#8dd8f8"/>
    <path d="M 384.9,586.7 a 13.73,13.73,0,0,1-9.3-5 c -4.65-5.74-4.36-25.48-4.35-26.32v-1 l 1,.2 c .82.16,20.18,4,24.83,9.75 A 13.77,13.77,0,0,1,384.9,586.7Z m -8-6.13 a 12.12,12.12,0,0,0,18.84-15.24 c -3.69-4.57-18.75-8.07-22.82-8.94.08,4.16.32,19.61,4,24.18Z" fill="#00aeef"/>
    <path d="M 391,565.68 c 1.55-.1,4.74,1.79,5.06,6.83 s -2.6,7.32-4.16,7.42,0-2.1-.28-7.14 S 389.48,565.78,391,565.68Z" fill="#fff"/>
    <path d="M 248.21,599.41 A 9.48,9.48,0,1,1,229.4,597q0-.32.1-.64 c .84-5.17,12-14.82,12-14.82 S 249,594.24,248.21,599.41Z" fill="#8dd8f8"/>
    <path d="M 242.18,607.43 a 10.1,10.1,0,0,1-13.3-11.16 c .86-5.33,11.75-14.79,12.21-15.19 l .56-.49.38.64 c .31.53,7.65,12.94,6.78,18.27 a 10,10,0,0,1-4.06,6.58 A 10.14,10.14,0,0,1,242.18,607.43Z m -.83-24.9 c -2.26,2-10.54,9.71-11.23,13.94 a 8.85,8.85,0,1,0,17.48,2.84 c .68-4.24-4.75-14.15-6.25-16.78Z" fill="#00aeef"/>
    <path d="M 233.23,594.64 c -1.05.44-2.53,2.7-1.12,6.11 s 4.06,4,5.12,3.53-.7-1.36-2.12-4.77 S 234.28,594.2,233.23,594.64Z" fill="#fff"/>
    <path d="M 351.79,599.41 A 9.48,9.48,0,1,0,370.6,597q0-.32-.1-.64 c -.84-5.17-12-14.82-12-14.82 S 351,594.24,351.79,599.41Z" fill="#8dd8f8"/>
    <path d="M 355.24,606.08 a 10,10,0,0,1-4.06-6.58 c -.87-5.33,6.47-17.75,6.78-18.27 l .38-.64.56.49 c .46.4,11.35,9.86,12.21,15.19 a 10.08,10.08,0,0,1-15.87,9.81Z m -2.83-6.78 a 8.85,8.85,0,1,0,17.48-2.84 c -.69-4.24-9-11.92-11.23-13.94-1.51,2.64-6.94,12.55-6.25,16.79Z" fill="#00aeef"/>
    <path d="M 366.77,594.64 c 1,.44,2.53,2.7,1.12,6.11 s -4.06,4-5.12,3.53.7-1.36,2.12-4.77 S 365.72,594.2,366.77,594.64Z" fill="#fff"/>
  </g>
<script type="text/ecmascript" xlink:href="param.min.js"/> 
</svg>
