<?xml version="1.0"?>
<svg xmlns="http://www.w3.org/2000/svg" xmlns:xlink="http://www.w3.org/1999/xlink" viewBox="0 0 600 1032.36">
  <title>ES009</title>
  <g id="outline">
    <path d="M 282.29,517.1 c -.92-1.85-6.16-7.55-9-9.55 a 32.36,32.36,0,0,0-4.72-2.64 c -8-3.71-17.24-5.91-27.95,1.69 a 31.13,31.13,0,0,0-4.32,3.8 c -6.7,7.09-9.94,17.72-9.94,17.72,4.45,4.74,17.12,12.52,26.5,13.26 H 253 c .47,0,.94.07,1.4.06 l .72,0 c -.45,0-.88-.05-1.32-.09 a 65.72,65.72,0,0,0,7.83-.84,20.52,20.52,0,0,1-3.82.81,38.86,38.86,0,0,0,18.32-5.87 C 285.64,529.59,284.14,520,282.29,517.1Z" fill="#fff"/>
    <path d="M 282.29,517.1 s -11.09-14.95-26.66-14.79-25.27,15.87-28,25.42 c 10.94,10.79,29,16.8,48.54,7.7-6.47,6.93-19.88,7.7-27,6.47 s -18.49-7.09-24.35-14.48 c 3.85-15.25,13.1-28.2,30-29 C 263.8,498,277.05,504.47,282.29,517.1Z"/>
    <path d="M 277.36,478.58 s -8.78,18.64,3.7,36.36 c -3.7-4.47-6.16-6.93-6.16-6.93 S 267.19,495.84,277.36,478.58Z"/>
    <path d="M 272.89,505.85 a 37.12,37.12,0,0,1-5.24-28.51 c -3.85,8.47-3.39,19.41-.46,25.42 C 270.43,504.62,272.89,505.85,272.89,505.85Z"/>
    <path d="M 262.11,458.86 s -11.4,28.2,4,42.68 c -3.7-1.08-7.86-2.16-7.86-2.16 A 47.65,47.65,0,0,1,262.11,458.86Z"/>
    <path d="M 249.94,460.86 s -4.47,24.35,8.32,38.52 a 10.85,10.85,0,0,1-4.16.31 S 242.85,485.82,249.94,460.86Z"/>
    <path d="M 238.53,448.54 s -7.09,31.12,15.87,51.16 a 48.5,48.5,0,0,0-6,.77 S 229.9,479.35,238.53,448.54Z"/>
    <path d="M 228.67,465.33 s 3.54,21.26,20,34.67 c -1.39.46-4.47,1.39-4.47,1.39 S 230.37,487.06,228.67,465.33Z"/>
    <path d="M 217.89,445.15 s -1.39,39.14,27.27,55.93 a 11.13,11.13,0,0,1-3.54,2.16 S 213.26,486,217.89,445.15Z"/>
    <path d="M 211,467.64 s 10.63,27.12,32.2,34.67 a 10.89,10.89,0,0,1-3.08,1.85 S 217,495.53,211,467.64Z"/>
    <path d="M 198.63,451.15 s 5.08,43.76,42.06,52.54 a 23.48,23.48,0,0,1-4.47,3.39 S 200.63,494.45,198.63,451.15Z"/>
    <path d="M 197.86,479.66 s 17.26,24.5,40.52,25 c -.62,1.54-3.08,3.08-3.08,3.08 S 211.26,505.24,197.86,479.66Z"/>
    <path d="M 181.52,467.64 s 17.1,38.83,55.32,39.29 a 24.37,24.37,0,0,0-3.7,3.7 S 195.85,508.47,181.52,467.64Z"/>
    <path d="M 189.07,494.14 s 21.88,19,44.68,15.72 a 37.43,37.43,0,0,1-2.77,4 S 207.25,515.1,189.07,494.14Z"/>
    <path d="M 170.27,485.82 s 22.5,34.36,62.56,27 a 26.08,26.08,0,0,0-3.85,5.08 S 193.39,523,170.27,485.82Z"/>
    <path d="M 183.37,509.4 s 28.51,15.56,47.3,6.16 a 30.1,30.1,0,0,0-2.93,5.24 S 209.72,527.73,183.37,509.4Z"/>
    <path d="M 165.5,509.4 s 33.28,21.73,63.48,8.47 c -1.39,2.31-1.23,4.62-2,5.08 S 200,534.36,165.5,509.4Z"/>
    <path d="M 180.91,525.11 s 30.82,7.4,46.84-4.31 c -.92,2.93-1.54,4.93-1.54,4.93 S 209.1,534.82,180.91,525.11Z"/>
    <path d="M 168.12,529 s 33.59,11.86,58.4-4.16 a 21.29,21.29,0,0,0,0,3.7 S 202.32,543.6,168.12,529Z"/>
    <path d="M 228.06,530 s -5.86.46-8.94,3.85 c 1.69-4,7.24-6.47,7.24-6.47Z"/>
    <path d="M 224.51,536.52 s 1.54-4.62,5.24-5.24 c .92.77,2.31,1.69,2.31,1.69 S 226.82,534.05,224.51,536.52Z"/>
    <path d="M 229.75,539.91 s 1.39-4.16,4.62-5.39 a 6.51,6.51,0,0,1,2.31,1.39 S 231.91,537.75,229.75,539.91Z"/>
    <path d="M 234.68,543 s 1.08-4.47,4.62-6 a 11.12,11.12,0,0,0,2.47,1.39 S 236.38,540.68,234.68,543Z"/>
    <path d="M 239.92,546.22 s 1.39-5.24,3.7-6.78 a 30.86,30.86,0,0,0,3.39,1.08 S 242.08,542.37,239.92,546.22Z"/>
    <path d="M 246.7,545.61 a 13.09,13.09,0,0,1,1.69-4.93,20.93,20.93,0,0,0,3.39.77 S 248.24,543.3,246.7,545.61Z"/>
    <path d="M 251.78,546.84 s .31-4,2.62-5.39 c 1.54.15,2.77.15,2.77.15 S 252.71,544.07,251.78,546.84Z"/>
    <path d="M 257.79,546.84 s 0-3.7,1.54-5.24 a 10.17,10.17,0,0,0,3.39-.31 S 259,543.45,257.79,546.84Z"/>
    <path d="M 271.35,538.37 a 26.91,26.91,0,0,1-5.24,1.85,13.3,13.3,0,0,0-1.39,5.08 A 15.55,15.55,0,0,1,271.35,538.37Z"/>
    <path d="M 317.71,517.1 c .92-1.85,6.16-7.55,9-9.55 a 32.36,32.36,0,0,1,4.72-2.64 c 8-3.71,17.24-5.91,27.95,1.69 a 31.13,31.13,0,0,1,4.32,3.8 c 6.7,7.09,9.94,17.72,9.94,17.72-4.45,4.74-17.12,12.52-26.5,13.26 H 347 c -.47,0-.94.07-1.4.06 l -.72,0 c .45,0,.88-.05,1.32-.09 a 65.72,65.72,0,0,1-7.83-.84,20.52,20.52,0,0,0,3.82.81,38.86,38.86,0,0,1-18.32-5.87 C 314.36,529.59,315.86,520,317.71,517.1Z" fill="#fff"/>
    <path d="M 317.71,517.1 s 11.09-14.95,26.66-14.79,25.27,15.87,28,25.42 c -10.94,10.79-29,16.8-48.54,7.7,6.47,6.93,19.88,7.7,27,6.47 s 18.49-7.09,24.35-14.48 c -3.85-15.25-13.1-28.2-30-29 C 336.2,498,322.95,504.47,317.71,517.1Z"/>
    <path d="M 322.64,478.58 s 8.78,18.64-3.7,36.36 c 3.7-4.47,6.16-6.93,6.16-6.93 S 332.81,495.84,322.64,478.58Z"/>
    <path d="M 327.11,505.85 a 37.12,37.12,0,0,0,5.24-28.51 c 3.85,8.47,3.39,19.41.46,25.42 C 329.57,504.62,327.11,505.85,327.11,505.85Z"/>
    <path d="M 337.89,458.86 s 11.4,28.2-4,42.68 c 3.7-1.08,7.86-2.16,7.86-2.16 A 47.65,47.65,0,0,0,337.89,458.86Z"/>
    <path d="M 350.06,460.86 s 4.47,24.35-8.32,38.52 a 10.85,10.85,0,0,0,4.16.31 S 357.15,485.82,350.06,460.86Z"/>
    <path d="M 361.47,448.54 s 7.09,31.12-15.87,51.16 a 48.5,48.5,0,0,1,6,.77 S 370.1,479.35,361.47,448.54Z"/>
    <path d="M 371.33,465.33 s -3.54,21.26-20,34.67 c 1.39.46,4.47,1.39,4.47,1.39 S 369.63,487.06,371.33,465.33Z"/>
    <path d="M 382.11,445.15 s 1.39,39.14-27.27,55.93 a 11.13,11.13,0,0,0,3.54,2.16 S 386.74,486,382.11,445.15Z"/>
    <path d="M 389,467.64 s -10.63,27.12-32.2,34.67 a 10.89,10.89,0,0,0,3.08,1.85 S 383,495.53,389,467.64Z"/>
    <path d="M 401.37,451.15 s -5.08,43.76-42.06,52.54 a 23.48,23.48,0,0,0,4.47,3.39 S 399.37,494.45,401.37,451.15Z"/>
    <path d="M 402.14,479.66 s -17.26,24.5-40.52,25 c .62,1.54,3.08,3.08,3.08,3.08 S 388.74,505.24,402.14,479.66Z"/>
    <path d="M 418.48,467.64 s -17.1,38.83-55.32,39.29 a 24.37,24.37,0,0,1,3.7,3.7 S 404.15,508.47,418.48,467.64Z"/>
    <path d="M 410.93,494.14 s -21.88,19-44.68,15.72 a 37.43,37.43,0,0,0,2.77,4 S 392.75,515.1,410.93,494.14Z"/>
    <path d="M 429.73,485.82 s -22.5,34.36-62.56,27 a 26.08,26.08,0,0,1,3.85,5.08 S 406.61,523,429.73,485.82Z"/>
    <path d="M 416.63,509.4 s -28.51,15.56-47.3,6.16 a 30.1,30.1,0,0,1,2.93,5.24 S 390.28,527.73,416.63,509.4Z"/>
    <path d="M 434.5,509.4 s -33.28,21.73-63.48,8.47 c 1.39,2.31,1.23,4.62,2,5.08 S 400,534.36,434.5,509.4Z"/>
    <path d="M 419.09,525.11 s -30.82,7.4-46.84-4.31 c .92,2.93,1.54,4.93,1.54,4.93 S 390.9,534.82,419.09,525.11Z"/>
    <path d="M 431.88,529 s -33.59,11.86-58.4-4.16 a 21.29,21.29,0,0,1,0,3.7 S 397.68,543.6,431.88,529Z"/>
    <path d="M 371.94,530 s 5.86.46,8.94,3.85 c -1.69-4-7.24-6.47-7.24-6.47Z"/>
    <path d="M 375.49,536.52 s -1.54-4.62-5.24-5.24 c -.92.77-2.31,1.69-2.31,1.69 S 373.18,534.05,375.49,536.52Z"/>
    <path d="M 370.25,539.91 s -1.39-4.16-4.62-5.39 a 6.51,6.51,0,0,0-2.31,1.39 S 368.09,537.75,370.25,539.91Z"/>
    <path d="M 365.32,543 s -1.08-4.47-4.62-6 a 11.12,11.12,0,0,1-2.47,1.39 S 363.62,540.68,365.32,543Z"/>
    <path d="M 360.08,546.22 s -1.39-5.24-3.7-6.78 a 30.86,30.86,0,0,1-3.39,1.08 S 357.92,542.37,360.08,546.22Z"/>
    <path d="M 353.3,545.61 a 13.09,13.09,0,0,0-1.69-4.93,20.93,20.93,0,0,1-3.39.77 S 351.76,543.3,353.3,545.61Z"/>
    <path d="M 348.22,546.84 s -.31-4-2.62-5.39 c -1.54.15-2.77.15-2.77.15 S 347.29,544.07,348.22,546.84Z"/>
    <path d="M 342.21,546.84 s 0-3.7-1.54-5.24 a 10.17,10.17,0,0,1-3.39-.31 S 341,543.45,342.21,546.84Z"/>
    <path d="M 328.65,538.37 a 26.91,26.91,0,0,0,5.24,1.85,13.3,13.3,0,0,1,1.39,5.08 A 15.55,15.55,0,0,0,328.65,538.37Z"/>
    <path d="M 265.36,526.35 c 0,3.87-3,6.33-7.24,6.87V538 h -3.33v-4.78 a 15.53,15.53,0,0,1-8.42-3.7 l 1.89-3.8 a 13.25,13.25,0,0,0,8.15,3.47 c 2.52,0,4-.94,4-2.59,0-4.92-12.66-2.12-12.66-10.5,0-3.6,2.73-6.09,7-6.63v-4.54 l 3.33,0v4.54 a 16.06,16.06,0,0,1,7,2.42 l -1.82,3.9 a 15.08,15.08,0,0,0-7.07-2.29 c -2.12,0-3.5.77-3.5,2.22 C 252.73,520.49,265.39,517.9,265.36,526.35Z" fill="#24330a"/>
    <path d="M 351,526.35 c 0,3.87-3,6.33-7.24,6.87V538 H 340.4v-4.78 a 15.53,15.53,0,0,1-8.42-3.7 l 1.89-3.8 a 13.25,13.25,0,0,0,8.15,3.47 c 2.52,0,4-.94,4-2.59,0-4.92-12.66-2.12-12.66-10.5,0-3.6,2.73-6.09,7-6.63v-4.54 l 3.33,0v4.54 a 16.06,16.06,0,0,1,7,2.42 l -1.82,3.9 a 15.08,15.08,0,0,0-7.07-2.29 c -2.12,0-3.5.77-3.5,2.22 C 338.35,520.49,351,517.9,351,526.35Z" fill="#24330a"/>
  </g>
<script type="text/ecmascript" xlink:href="param.min.js"/> 
</svg>
