<?xml version="1.0"?>
<svg xmlns="http://www.w3.org/2000/svg" xmlns:xlink="http://www.w3.org/1999/xlink" id="Layer_1" data-name="Layer 1" viewBox="0 0 600 1032.4">
  <title>ES009</title>
  <g id="outline">
    <path d="M 323.9,535.4 a 38.44,38.44,0,0,0,18.3,5.9,16.06,16.06,0,0,1-3.8-.8,68.71,68.71,0,0,0,7.8.8 c -.4,0-.9.1-1.3.1 h .7 c .5,0,.9-.1,1.4-.1 h .1 c 9.4-.7,22.1-8.5,26.5-13.3,0,0-3.2-10.6-9.9-17.7 a 30.79,30.79,0,0,0-4.3-3.8 c -10.7-7.6-20-5.4-28-1.7 a 31,31,0,0,0-4.7,2.6 c -2.8,2-8.1,7.7-9,9.6 C 315.9,520,314.4,529.6,323.9,535.4Z" fill="#fff"/>
    <path d="M 345.2,498.4 c 16.9.8,26.1,13.8,30,29-5.9,7.4-17.2,13.2-24.4,14.5 s -20.5.5-27-6.5 c 19.5,9.1,37.6,3.1,48.5-7.7-2.7-9.5-12.4-25.3-28-25.4 s -26.7,14.8-26.7,14.8 C 323,504.5,336.2,498,345.2,498.4Z"/>
    <path d="M 325.1,508 s -2.5,2.5-6.2,6.9 c 12.5-17.7,3.7-36.4,3.7-36.4 C 332.8,495.8,325.1,508,325.1,508Z"/>
    <path d="M 332.8,502.8 c 2.9-6,3.4-17-.5-25.4 a 37.21,37.21,0,0,1-5.2,28.5 C 327.1,505.8,329.6,504.6,332.8,502.8Z"/>
    <path d="M 341.8,499.4 s -4.2,1.1-7.9,2.2 c 15.4-14.5,4-42.7,4-42.7 A 47.66,47.66,0,0,1,341.8,499.4Z"/>
    <path d="M 345.9,499.7 a 10,10,0,0,1-4.2-.3 c 12.8-14.2,8.3-38.5,8.3-38.5 C 357.1,485.8,345.9,499.7,345.9,499.7Z"/>
    <path d="M 351.6,500.5 c -2-.4-4-.6-6-.8,23-20,15.9-51.2,15.9-51.2 C 370.1,479.3,351.6,500.5,351.6,500.5Z"/>
    <path d="M 355.8,501.4 s -3.1-.9-4.5-1.4 c 16.5-13.4,20-34.7,20-34.7 A 63.47,63.47,0,0,1,355.8,501.4Z"/>
    <path d="M 358.4,503.2 a 9.88,9.88,0,0,1-3.5-2.2 c 28.7-16.8,27.3-55.9,27.3-55.9 C 386.7,486,358.4,503.2,358.4,503.2Z"/>
    <path d="M 359.9,504.2 a 10,10,0,0,1-3.1-1.9 c 21.6-7.5,32.2-34.7,32.2-34.7 C 383,495.5,359.9,504.2,359.9,504.2Z"/>
    <path d="M 363.8,507.1 a 24.19,24.19,0,0,1-4.5-3.4 c 37-8.8,42.1-52.5,42.1-52.5 C 399.4,494.4,363.8,507.1,363.8,507.1Z"/>
    <path d="M 364.7,507.7 s -2.5-1.5-3.1-3.1 c 23.3-.5,40.5-25,40.5-25 C 388.7,505.2,364.7,507.7,364.7,507.7Z"/>
    <path d="M 366.9,510.6 a 21.59,21.59,0,0,0-3.7-3.7 c 38.2-.5,55.3-39.3,55.3-39.3 C 404.1,508.5,366.9,510.6,366.9,510.6Z"/>
    <path d="M 369,513.9 c -1-1.3-1.9-2.6-2.8-4,22.8,3.3,44.7-15.7,44.7-15.7 C 392.8,515.1,369,513.9,369,513.9Z"/>
    <path d="M 371,517.9 a 32.2,32.2,0,0,0-3.8-5.1 c 40.1,7.4,62.6-27,62.6-27 C 406.6,523,371,517.9,371,517.9Z"/>
    <path d="M 372.3,520.8 a 32.94,32.94,0,0,0-2.9-5.2 c 18.8,9.4,47.3-6.2,47.3-6.2 C 390.3,527.7,372.3,520.8,372.3,520.8Z"/>
    <path d="M 373,523 c -.8-.5-.6-2.8-2-5.1,30.2,13.3,63.5-8.5,63.5-8.5 C 400,534.4,373.8,523.4,373,523Z"/>
    <path d="M 373.8,525.7 s -.6-2-1.5-4.9 c 16,11.7,46.8,4.3,46.8,4.3 C 390.9,534.8,373.8,525.7,373.8,525.7Z"/>
    <path d="M 373.5,528.5 a 22.85,22.85,0,0,0,0-3.7 c 24.8,16,58.4,4.2,58.4,4.2 C 397.7,543.6,373.5,528.5,373.5,528.5Z"/>
    <path d="M 373.6,527.4 s 5.6,2.5,7.2,6.5 c -3.1-3.4-8.9-3.8-8.9-3.8Z"/>
    <path d="M 367.9,533 a 22.7,22.7,0,0,0,2.3-1.7 c 3.7.6,5.2,5.2,5.2,5.2 C 373.2,534,367.9,533,367.9,533Z"/>
    <path d="M 363.3,535.9 a 7.9,7.9,0,0,1,2.3-1.4 c 3.2,1.2,4.6,5.4,4.6,5.4 C 368.1,537.8,363.3,535.9,363.3,535.9Z"/>
    <path d="M 358.2,538.4 a 12.29,12.29,0,0,0,2.5-1.4 c 3.5,1.5,4.6,6,4.6,6 C 363.6,540.7,358.2,538.4,358.2,538.4Z"/>
    <path d="M 353,540.5 c 1.1-.3,2.3-.7,3.4-1.1,2.3,1.5,3.7,6.8,3.7,6.8 C 357.9,542.4,353,540.5,353,540.5Z"/>
    <path d="M 348.2,541.5 a 20.93,20.93,0,0,0,3.4-.8,12.47,12.47,0,0,1,1.7,4.9 C 351.8,543.3,348.2,541.5,348.2,541.5Z"/>
    <path d="M 342.8,541.6 a 25.06,25.06,0,0,0,2.8-.2 c 2.3,1.4,2.6,5.4,2.6,5.4 C 347.3,544.1,342.8,541.6,342.8,541.6Z"/>
    <path d="M 337.3,541.3 a 9.82,9.82,0,0,0,3.4.3 c 1.5,1.5,1.5,5.2,1.5,5.2 C 341,543.5,337.3,541.3,337.3,541.3Z"/>
    <path d="M 335.3,545.3 a 12.94,12.94,0,0,0-1.4-5.1,29,29,0,0,1-5.2-1.8 A 15.22,15.22,0,0,1,335.3,545.3Z"/>
    <path d="M 276.1,535.4 a 38.44,38.44,0,0,1-18.3,5.9,16.06,16.06,0,0,0,3.8-.8,68.71,68.71,0,0,1-7.8.8 c .4,0,.9.1,1.3.1 h -.7 c -.5,0-.9-.1-1.4-.1 h -.1 c -9.4-.7-22-8.5-26.5-13.3,0,0,3.2-10.6,9.9-17.7 a 30.79,30.79,0,0,1,4.3-3.8 c 10.7-7.6,20-5.4,28-1.7 a 31,31,0,0,1,4.7,2.6 c 2.8,2,8.1,7.7,9,9.6 C 284.1,520,285.6,529.6,276.1,535.4Z" fill="#fff"/>
    <path d="M 254.8,498.4 c -16.9.8-26.1,13.8-30,29,5.9,7.4,17.2,13.2,24.4,14.5 s 20.5.5,27-6.5 c -19.5,9.1-37.6,3.1-48.5-7.7,2.7-9.5,12.4-25.3,28-25.4 s 26.7,14.8,26.7,14.8 C 277,504.5,263.8,498,254.8,498.4Z"/>
    <path d="M 274.9,508 s 2.5,2.5,6.2,6.9 c -12.5-17.7-3.7-36.4-3.7-36.4 C 267.2,495.8,274.9,508,274.9,508Z"/>
    <path d="M 267.2,502.8 c -2.9-6-3.4-17,.5-25.4 a 37.21,37.21,0,0,0,5.2,28.5 C 272.9,505.8,270.4,504.6,267.2,502.8Z"/>
    <path d="M 258.2,499.4 s 4.2,1.1,7.9,2.2 c -15.4-14.5-4-42.7-4-42.7 A 47.66,47.66,0,0,0,258.2,499.4Z"/>
    <path d="M 254.1,499.7 a 10,10,0,0,0,4.2-.3 c -12.8-14.2-8.3-38.5-8.3-38.5 C 242.9,485.8,254.1,499.7,254.1,499.7Z"/>
    <path d="M 248.4,500.5 c 2-.4,4-.6,6-.8-23-20-15.9-51.2-15.9-51.2 C 229.9,479.3,248.4,500.5,248.4,500.5Z"/>
    <path d="M 244.2,501.4 s 3.1-.9,4.5-1.4 c -16.5-13.4-20-34.7-20-34.7 A 63.47,63.47,0,0,0,244.2,501.4Z"/>
    <path d="M 241.6,503.2 a 9.88,9.88,0,0,0,3.5-2.2 c -28.7-16.8-27.3-55.9-27.3-55.9 C 213.3,486,241.6,503.2,241.6,503.2Z"/>
    <path d="M 240.1,504.2 a 10,10,0,0,0,3.1-1.9 c -21.6-7.5-32.2-34.7-32.2-34.7 C 217,495.5,240.1,504.2,240.1,504.2Z"/>
    <path d="M 236.2,507.1 a 24.19,24.19,0,0,0,4.5-3.4 c -37-8.8-42.1-52.5-42.1-52.5 C 200.6,494.4,236.2,507.1,236.2,507.1Z"/>
    <path d="M 235.3,507.7 s 2.5-1.5,3.1-3.1 c -23.3-.5-40.5-25-40.5-25 C 211.3,505.2,235.3,507.7,235.3,507.7Z"/>
    <path d="M 233.1,510.6 a 21.59,21.59,0,0,1,3.7-3.7 c -38.2-.5-55.3-39.3-55.3-39.3 C 195.9,508.5,233.1,510.6,233.1,510.6Z"/>
    <path d="M 231,513.9 c 1-1.3,1.9-2.6,2.8-4-22.8,3.3-44.7-15.7-44.7-15.7 C 207.2,515.1,231,513.9,231,513.9Z"/>
    <path d="M 229,517.9 a 27.58,27.58,0,0,1,3.9-5.1 c -40.1,7.4-62.6-27-62.6-27 C 193.4,523,229,517.9,229,517.9Z"/>
    <path d="M 227.7,520.8 a 33,33,0,0,1,2.9-5.2 c -18.8,9.4-47.3-6.2-47.3-6.2 C 209.7,527.7,227.7,520.8,227.7,520.8Z"/>
    <path d="M 227,523 c .8-.5.6-2.8,2-5.1-30.2,13.3-63.5-8.5-63.5-8.5 C 200,534.4,226.2,523.4,227,523Z"/>
    <path d="M 226.2,525.7 s .6-2,1.5-4.9 c -16,11.7-46.8,4.3-46.8,4.3 C 209.1,534.8,226.2,525.7,226.2,525.7Z"/>
    <path d="M 226.5,528.5 a 22.85,22.85,0,0,1,0-3.7 c -24.8,16-58.4,4.2-58.4,4.2 C 202.3,543.6,226.5,528.5,226.5,528.5Z"/>
    <path d="M 226.4,527.4 s -5.5,2.5-7.2,6.5 c 3.1-3.4,8.9-3.8,8.9-3.8Z"/>
    <path d="M 232.1,533 a 22.7,22.7,0,0,1-2.3-1.7 c -3.7.6-5.2,5.2-5.2,5.2 C 226.8,534,232.1,533,232.1,533Z"/>
    <path d="M 236.7,535.9 a 7.9,7.9,0,0,0-2.3-1.4 c -3.2,1.2-4.6,5.4-4.6,5.4 C 231.9,537.8,236.7,535.9,236.7,535.9Z"/>
    <path d="M 241.8,538.4 a 12.29,12.29,0,0,1-2.5-1.4 c -3.5,1.5-4.6,6-4.6,6 C 236.4,540.7,241.8,538.4,241.8,538.4Z"/>
    <path d="M 247,540.5 c -1.1-.3-2.3-.7-3.4-1.1-2.3,1.5-3.7,6.8-3.7,6.8 C 242.1,542.4,247,540.5,247,540.5Z"/>
    <path d="M 251.8,541.5 a 20.93,20.93,0,0,1-3.4-.8,12.47,12.47,0,0,0-1.7,4.9 C 248.2,543.3,251.8,541.5,251.8,541.5Z"/>
    <path d="M 257.2,541.6 a 25.06,25.06,0,0,1-2.8-.2 c -2.3,1.4-2.6,5.4-2.6,5.4 C 252.7,544.1,257.2,541.6,257.2,541.6Z"/>
    <path d="M 262.7,541.3 a 9.82,9.82,0,0,1-3.4.3 c -1.5,1.5-1.5,5.2-1.5,5.2 C 259,543.5,262.7,541.3,262.7,541.3Z"/>
    <path d="M 264.7,545.3 a 12.94,12.94,0,0,1,1.4-5.1,29,29,0,0,0,5.2-1.8 A 15.22,15.22,0,0,0,264.7,545.3Z"/>
    <path d="M 347.3,515.7 c 0-1.4-1.4-2.2-3.5-2.2 a 15.28,15.28,0,0,0-7.1,2.3 l -1.8-3.9 a 15.82,15.82,0,0,1,7-2.4V505 h 3.3v4.5 c 4.3.5,7,3,7,6.6,0,8.4-12.7,5.6-12.7,10.5,0,1.7,1.5,2.6,4,2.6 a 13,13,0,0,0,8.1-3.5 l 1.9,3.8 a 15.62,15.62,0,0,1-8.4,3.7V538 h -3.3v-4.8 c -4.2-.5-7.2-3-7.2-6.9 C 334.6,517.9,347.3,520.5,347.3,515.7Z" fill="#24330a"/>
    <path d="M 261.7,515.7 c 0-1.4-1.4-2.2-3.5-2.2 a 15.28,15.28,0,0,0-7.1,2.3 l -1.8-3.9 a 15.82,15.82,0,0,1,7-2.4V505 h 3.3v4.5 c 4.3.5,7,3,7,6.6,0,8.4-12.7,5.6-12.7,10.5,0,1.7,1.5,2.6,4,2.6 a 13,13,0,0,0,8.1-3.5 l 1.9,3.8 a 15.62,15.62,0,0,1-8.4,3.7V538 h -3.4v-4.8 c -4.2-.5-7.2-3-7.2-6.9 C 249,517.9,261.6,520.5,261.7,515.7Z" fill="#24330a"/>
  </g>
<script type="text/ecmascript" xlink:href="param.min.js"/> 
</svg>
