<?xml version="1.0"?>
<svg xmlns="http://www.w3.org/2000/svg" xmlns:xlink="http://www.w3.org/1999/xlink" id="Layer_1" data-name="Layer 1" viewBox="0 0 600 1032.36">
  <title>ES002</title>
  <g id="outline">
    <path d="M 284.34,518 c -3.33-4.93-33.3-20.77-55.54-1.18-21.91,9.8-45.09-7.93-45.09-7.93,17.4,16.32,40.11,15.71,50,6.54-16.92,15.83-46.58,4.42-46.58,4.42,26.33,11.87,42.87,3.47,51.25-6.5-15.08,21.64-54,15.25-54,15.25,28.51,7.34,47.63-2.83,58.21-16.5-13.25,21-39.46,23.38-39.46,23.38,20.87-1.11,35.29-11.71,43-24.79-10.17,22.92-34.54,27.67-34.54,27.67,18.46-2.42,29-12.25,37.79-28.42-13.42,32.17-42.85,34.43-42.85,34.43,22.08-1.52,36.27-15.68,45.94-34.85-11.25,33.5-41.33,41.08-41.33,41.08,24.58-6.25,36-19.92,44-40.92-4.08,22.42-22.08,38.17-22.08,38.17,15.79-11.11,23.24-29.86,24.58-38-1.85,26.42-24.4,46.31-24.4,46.31,20.61-14.18,25.77-36.1,27.09-46.31,1.08,19.58-12,37.33-12,37.33,11.33-10.67,14.92-28.33,14.5-36.67,2.83,23.83-14.5,45.64-14.5,45.64,14.5-13.93,17.61-34.73,17-45.14,2.91,16-4.65,35.58-4.65,35.58,6.85-11.24,8.49-27.91,7.9-35.17,3.88,21.8-7.18,40.42-7.18,40.42,9.57-10.07,11-31.53,9.93-39.51,4.39,16.82-2,34.35-2,34.35,6.94-11.66,6.31-28.19,4.83-33.43,6.18,14.48.4,29.25.4,29.25,5.54-8.94,4.3-23.32,3.08-27.79 h 0 c 2.77,5.55,3.3,13.72,1.83,21.92 a 34.76,34.76,0,0,0,1.32-20.49 c 3.56,7.43,2,18.68,2,18.68,2.17-7,1.53-14.37.23-17.57Z"/>
    <path d="M 315.66,518 c 3.33-4.93,33.3-20.77,55.54-1.18,21.91,9.8,45.09-7.93,45.09-7.93-17.4,16.32-40.11,15.71-50,6.54,16.92,15.83,46.58,4.42,46.58,4.42-26.33,11.87-42.87,3.47-51.25-6.5,15.08,21.64,54,15.25,54,15.25-28.51,7.34-47.62-2.83-58.21-16.5,13.25,21,39.46,23.38,39.46,23.38-20.87-1.11-35.29-11.71-43-24.79,10.17,22.92,34.54,27.67,34.54,27.67-18.46-2.42-29-12.25-37.79-28.42,13.42,32.17,42.85,34.43,42.85,34.43-22.08-1.52-36.27-15.68-45.94-34.85,11.25,33.5,41.33,41.08,41.33,41.08-24.58-6.25-36-19.92-44-40.92,4.08,22.42,22.08,38.17,22.08,38.17-15.79-11.11-23.24-29.86-24.58-38,1.85,26.42,24.4,46.31,24.4,46.31 C 346.13,542,341,520.07,339.65,509.86 c -1.08,19.58,12,37.33,12,37.33-11.33-10.67-14.92-28.33-14.5-36.67-2.83,23.83,14.5,45.64,14.5,45.64-14.5-13.93-17.61-34.73-17-45.14-2.91,16,4.65,35.58,4.65,35.58-6.85-11.24-8.49-27.91-7.9-35.17-3.88,21.8,7.18,40.42,7.18,40.42-9.57-10.07-11-31.53-9.93-39.51-4.39,16.82,2,34.35,2,34.35-6.94-11.66-6.31-28.19-4.83-33.43-6.18,14.48-.4,29.25-.4,29.25-5.54-8.94-4.3-23.32-3.08-27.79 h 0 c -2.77,5.55-3.3,13.72-1.83,21.92 a 34.76,34.76,0,0,1-1.32-20.49 c -3.56,7.43-2,18.68-2,18.68-2.17-7-1.53-14.37-.23-17.57Z"/>
  </g>
<script type="text/ecmascript" xlink:href="param.min.js"/> 
</svg>
