<?xml version="1.0"?>
<svg xmlns="http://www.w3.org/2000/svg" xmlns:xlink="http://www.w3.org/1999/xlink" viewBox="0 0 600 1032.36">
  <title>ES005</title>
  <g id="outline">
    <path d="M 362.81,523.72 c 5,5.34,17,14.63,39.64,12.73,0,0-27.87-1.46-37.26-15.55,4.92,4.9,21.82,17.64,55.72,3.48,0,0-34.48,10.88-51.47-4.89,6.15,4,20.93,9.81,45.17-2.68,0,0-29.09,9.85-42.68.41,6.54,3,23,7.11,45.44-11.49,0,0-23.48,18-45.45,7.64 l .38-.34 a 57,57,0,0,1-56.57,0,6.67,6.67,0,0,0,1,1.09,19.76,19.76,0,0,0,.26,19.56 s -3.19-9.89,1.25-17.9 a 33.85,33.85,0,0,0,2.25,22.14 c -1.87-7.93-2-14.38.33-19.87-.72,4.9-2,19.13,6,28.88,0,0-6.86-10.5-2.26-26.67-.8,5.45-1.77,20.58,8.92,33.47,0,0-8.59-15-5.8-32.43-.18,6.6.35,29.28,15.33,39.48 a 47.12,47.12,0,0,1-11-39.07 l .08,0 c -.2,4.12-.45,22.4,12,35.48,0,0-11.08-16.45-8.29-34.57 l .12,0 c -.48,4.61-1.53,27.89,24.16,42.79,0,0-22-15.52-20.53-39.85.22,6.61,2.58,21.38,18.08,32.2,0,0-15-14.32-15.27-33.81,1.1,6.73,6.76,29.58,33.79,40.27,0,0-26.59-13.78-29.55-40.59 h 0 c 1.12,4.91,6.72,23.56,28.64,33.76,0,0-21.37-13.6-25.44-33.74,2.49,6.58,13.91,31.59,44.11,34.11,0,0-33.32-7.32-40.54-34.67,2.3,4.83,11.38,20.2,35.67,25.9,0,0-23.23-8.22-31.84-26.15,4.83,6.45,22.6,26.56,54.09,22.47 C 411.25,545.37,379.29,545.84,362.81,523.72Z"/>
    <path d="M 284.28,513 a 57,57,0,0,1-56.57,0 l .38.34 c -22,10.33-45.45-7.64-45.45-7.64,22.42,18.61,38.89,14.49,45.44,11.49-13.59,9.45-42.68-.41-42.68-.41,24.25,12.49,39,6.65,45.17,2.68-17,15.76-51.47,4.89-51.47,4.89,33.9,14.16,50.8,1.41,55.72-3.48-9.39,14.09-37.26,15.55-37.26,15.55,22.61,1.9,34.66-7.39,39.64-12.73-16.49,22.12-48.45,21.65-48.45,21.65,31.49,4.1,49.26-16,54.09-22.47 C 234.23,540.83,211,549,211,549 c 24.29-5.7,33.37-21.07,35.67-25.9-7.22,27.35-40.54,34.67-40.54,34.67,30.2-2.51,41.61-27.53,44.11-34.11-4.07,20.14-25.44,33.74-25.44,33.74,21.92-10.2,27.52-28.85,28.64-33.76 h 0 c -3,26.81-29.55,40.59-29.55,40.59,27-10.69,32.69-33.55,33.79-40.27-.3,19.49-15.27,33.81-15.27,33.81,15.5-10.82,17.86-25.59,18.08-32.2 C 262,549.94,240,565.47,240,565.47 c 25.69-14.91,24.64-38.19,24.16-42.79 l .12,0 c 2.79,18.11-8.29,34.57-8.29,34.57,12.41-13.08,12.16-31.36,12-35.48 l .08,0 a 47.12,47.12,0,0,1-11,39.07 c 15-10.19,15.51-32.87,15.33-39.48,2.79,17.44-5.8,32.43-5.8,32.43,10.69-12.89,9.71-28,8.92-33.47,4.6,16.17-2.26,26.67-2.26,26.67,7.94-9.74,6.7-24,6-28.88,2.3,5.48,2.2,11.94.33,19.87 a 33.85,33.85,0,0,0,2.25-22.14 c 4.44,8,1.25,17.9,1.25,17.9 a 19.76,19.76,0,0,0,.26-19.56 A 6.65,6.65,0,0,0,284.28,513Z"/>
  </g>
<script type="text/ecmascript" xlink:href="param.min.js"/> 
</svg>
