<?xml version="1.0"?>
<svg xmlns="http://www.w3.org/2000/svg" xmlns:xlink="http://www.w3.org/1999/xlink" viewBox="0 0 600 1032.36">
  <title>ES003</title>
  <g id="outline">
    <path d="M 284.34,518 c -3.33-4.93-33.3-20.77-55.54-1.18-21.91,9.8-45.09-7.93-45.09-7.93,17.4,16.32,40.11,15.71,50,6.54-16.92,15.83-46.58,4.42-46.58,4.42,26.33,11.87,42.87,3.47,51.25-6.5-15.08,21.64-54,15.25-54,15.25,28.51,7.34,47.63-2.83,58.21-16.5-13.25,21-39.46,23.38-39.46,23.38,20.87-1.11,35.29-11.71,43-24.79-10.17,22.92-34.54,27.67-34.54,27.67,18.46-2.42,29-12.25,37.79-28.42-13.42,32.17-42.85,34.43-42.85,34.43,22.08-1.52,36.27-15.68,45.94-34.85-11.25,33.5-41.33,41.08-41.33,41.08,24.58-6.25,36-19.92,44-40.92-4.08,22.42-22.08,38.17-22.08,38.17,15.79-11.11,23.24-29.86,24.58-38-1.85,26.42-24.4,46.31-24.4,46.31,20.61-14.18,25.77-36.1,27.09-46.31,1.08,19.58-12,37.33-12,37.33,11.33-10.67,14.92-28.33,14.5-36.67,2.83,23.83-14.5,45.64-14.5,45.64,14.5-13.93,17.61-34.73,17-45.14,2.91,16-4.65,35.58-4.65,35.58,6.85-11.24,8.49-27.91,7.9-35.17,3.88,21.8-7.18,40.42-7.18,40.42,9.57-10.07,11-31.53,9.93-39.51,4.39,16.82-2,34.35-2,34.35,6.94-11.66,6.31-28.19,4.83-33.43,6.18,14.48.4,29.25.4,29.25,5.54-8.94,4.3-23.32,3.08-27.79 l 0,0 c 2.77,5.55,3.3,13.72,1.83,21.92 a 34.76,34.76,0,0,0,1.32-20.49 c 3.56,7.43,2,18.68,2,18.68,2.17-7,1.53-14.37.23-17.57Z"/>
    <path d="M 315.66,518 c 3.33-4.93,33.3-20.77,55.54-1.18,21.91,9.8,45.09-7.93,45.09-7.93-17.4,16.32-40.11,15.71-50,6.54,16.92,15.83,46.58,4.42,46.58,4.42-26.33,11.87-42.87,3.47-51.25-6.5,15.08,21.64,54,15.25,54,15.25-28.51,7.34-47.62-2.83-58.21-16.5,13.25,21,39.46,23.38,39.46,23.38-20.87-1.11-35.29-11.71-43-24.79,10.17,22.92,34.54,27.67,34.54,27.67-18.46-2.42-29-12.25-37.79-28.42,13.42,32.17,42.85,34.43,42.85,34.43-22.08-1.52-36.27-15.68-45.94-34.85,11.25,33.5,41.33,41.08,41.33,41.08-24.58-6.25-36-19.92-44-40.92,4.08,22.42,22.08,38.17,22.08,38.17-15.79-11.11-23.24-29.86-24.58-38,1.85,26.42,24.4,46.31,24.4,46.31 C 346.13,542,341,520.07,339.65,509.86 c -1.08,19.58,12,37.33,12,37.33-11.33-10.67-14.92-28.33-14.5-36.67-2.83,23.83,14.5,45.64,14.5,45.64-14.5-13.93-17.61-34.73-17-45.14-2.91,16,4.65,35.58,4.65,35.58-6.85-11.24-8.49-27.91-7.9-35.17-3.88,21.8,7.18,40.42,7.18,40.42-9.57-10.07-11-31.53-9.93-39.51-4.39,16.82,2,34.35,2,34.35-6.94-11.66-6.31-28.19-4.83-33.43-6.18,14.48-.4,29.25-.4,29.25-5.54-8.94-4.3-23.32-3.08-27.79 l 0,0 c -2.77,5.55-3.3,13.72-1.83,21.92 a 34.76,34.76,0,0,1-1.32-20.49 c -3.56,7.43-2,18.68-2,18.68-2.17-7-1.53-14.37-.23-17.57Z"/>
  </g>
  <g id="misc-objects">
    <path d="M 363.21,568.41 a 15.19,15.19,0,0,0,26.7-14.51 c -4-7.37-26-16.06-26-16.06 S 359.21,561,363.21,568.41Z" fill="#8dd8f8"/>
    <path d="M 376.59,577.35 a 16.21,16.21,0,0,1-14.26-8.46 c -4.13-7.6.39-30.28.58-31.24 l .24-1.17,1.11.44 c .91.36,22.4,8.91,26.53,16.51 a 16.19,16.19,0,0,1-14.2,23.92Z m -11.94-38.12 c -.88,4.79-3.84,22.66-.56,28.7 A 14.19,14.19,0,0,0,389,554.38 C 385.75,548.33,369.15,541.1,364.65,539.23Z" fill="#00aeef"/>
    <path d="M 383.49,553.77 c 1.81.22,5.08,3.07,4.38,8.95 s -4.55,7.88-6.37,7.66.5-2.41,1.2-8.28 S 381.68,553.56,383.49,553.77Z" fill="#fff"/>
    <path d="M 236.79,568.41 a 15.19,15.19,0,0,1-26.7-14.51 c 4-7.37,26-16.06,26-16.06 S 240.79,561,236.79,568.41Z" fill="#8dd8f8"/>
    <path d="M 223.41,577.36 a 16.2,16.2,0,0,1-14.21-23.93 c 4.13-7.6,25.62-16.15,26.53-16.51 l 1.11-.44.24,1.17 c .19,1,4.71,23.64.58,31.24 a 16.09,16.09,0,0,1-9.64,7.8 A 16.26,16.26,0,0,1,223.41,577.36Z m 11.94-38.13 c -4.49,1.87-21.1,9.1-24.39,15.15 a 14.19,14.19,0,1,0,24.94,13.56 C 239.19,561.89,236.23,544,235.35,539.23Z" fill="#00aeef"/>
    <path d="M 216.51,553.77 c -1.81.22-5.08,3.07-4.38,8.95 s 4.55,7.88,6.37,7.66-.5-2.41-1.2-8.28 S 218.32,553.56,216.51,553.77Z" fill="#fff"/>
  </g>
<script type="text/ecmascript" xlink:href="param.min.js"/> 
</svg>
