<?xml version="1.0"?>
<svg xmlns="http://www.w3.org/2000/svg" xmlns:xlink="http://www.w3.org/1999/xlink" id="Layer_1" data-name="Layer 1" viewBox="0 0 600 1032.4">
  <title>ES007</title>
  <g id="main-colour">
    <circle cx="344.6" cy="520.9" r="20.6" fill="param(main_colour)"/>
  </g>
  <g id="fixed-colours">
    <path d="M 323.9,535.4 a 38.44,38.44,0,0,0,18.3,5.9,20.58,20.58,0,0,1-10.7-36.4,31,31,0,0,0-4.7,2.6 c -2.8,2-8.1,7.7-9,9.6 C 315.9,520,314.4,529.6,323.9,535.4Z" fill="#fff"/>
    <path d="M 344.9,541.5 h .7 c 9.4.1,23.3-8.3,28-13.3,0,0-3.2-10.6-9.9-17.7 a 30.79,30.79,0,0,0-4.3-3.8,20.3,20.3,0,0,1,5.7,14.2 A 20.68,20.68,0,0,1,344.9,541.5Z" fill="#fff"/>
  </g>
  <g id="outline">
    <path d="M 184.4,528.7 c 28.5,7.3,47.6-2.8,58.2-16.5-13.2,21-39.5,23.4-39.5,23.4,20.8-1.1,35.2-11.7,43-24.8-10.2,22.9-34.5,27.7-34.5,27.7,18.5-2.4,29-12.2,37.8-28.4-13.4,32.2-42.9,34.4-42.9,34.4,22.1-1.5,36.3-15.7,45.9-34.9 a 63.86,63.86,0,0,1-41.2,41 c 24.5-6.3,35.9-19.9,43.9-40.9 C 251,532.1,233,547.9,233,547.9 c 15.8-11.1,23.2-29.9,24.6-38-1.9,26.4-24.4,46.3-24.4,46.3,20.6-14.2,25.8-36.1,27.1-46.3,1.1,19.6-12,37.3-12,37.3,11.3-10.7,14.9-28.3,14.5-36.7,2.8,23.8-14.5,45.6-14.5,45.6,14.5-13.9,17.6-34.7,17-45.1,2.9,16-4.6,35.6-4.6,35.6,6.8-11.2,8.5-27.9,7.9-35.2,3.9,21.8-7.2,40.4-7.2,40.4,9.6-10.1,11-31.5,9.9-39.5,4.4,16.8-2,34.3-2,34.3,6.9-11.6,6.3-28.2,4.8-33.4,6.2,14.5.4,29.2.4,29.2,5.5-8.9,4.3-23.3,3.1-27.8 h 0 c 2.8,5.5,3.3,13.7,1.8,21.9 a 34.19,34.19,0,0,0,1.3-20.5 c 3.6,7.4,2,18.7,2,18.7,2.2-7,1.5-14.4.2-17.6 l 1.3.7 c -3.3-4.9-33.3-20.8-55.5-1.2-21.9,9.8-45.1-7.9-45.1-7.9,17.4,16.3,40.1,15.7,50,6.5-16.9,15.8-46.6,4.4-46.6,4.4,26.3,11.9,42.9,3.5,51.2-6.5 C 223.3,535,184.4,528.6,184.4,528.7Z"/>
    <path d="M 321.9,510.3 a 30,30,0,0,0-4.1,6.9,47.43,47.43,0,0,1,10.1-9.4 L 327,509 a 21.34,21.34,0,0,0,5.6,29.6,52.94,52.94,0,0,1-8.7-3.1,18.76,18.76,0,0,0,7.3,4.7,13.76,13.76,0,0,1,4.1,5.2,15.15,15.15,0,0,0-1-4.2 c 1.3.3,2.6.6,3.9.8 a 11.18,11.18,0,0,1,4,4.9,10.3,10.3,0,0,0-1-4.6 c 1,.1,2,.1,2.9.1,1.4,1,3.5,2.6,4.1,4.5 a 9.06,9.06,0,0,0-1.6-4.5,24.57,24.57,0,0,0,2.8-.2,13.1,13.1,0,0,1,3.9,3.5,14.19,14.19,0,0,0-1.2-4 c .7-.2,1.3-.4,2.1-.6 a 14.07,14.07,0,0,1,5.9,5.2 s -1.1-4.2-3-6.2 c .8-.3,1.6-.7,2.5-1.1,1.8.8,4.6,2.4,5.8,4 a 9.94,9.94,0,0,0-3.3-5.2 c .8-.4,1.6-.9,2.5-1.4 a 21.37,21.37,0,0,1,5.8,3.5,10.5,10.5,0,0,0-3.6-4.9 c .8-.6,1.7-1.2,2.5-1.8,1.7.5,4.8,1.5,6.4,3.3,0,0-1.3-3.8-4.3-5,.5-.5,1-.9,1.5-1.4,1.7.2,5.8,1.1,8.2,3.8 a 10.65,10.65,0,0,0-1.9-2.8 c 9,3.6,28.4,8.4,53-2.1,0,0-29.8,10.5-54-1.6,6.7,2.1,21.1,4.7,41.2-2.2,0,0-21.6,5.2-38.1,0,10.4,1.6,30,1.3,53.5-15.7,0,0-23.1,15.1-48.3,12.4,7.7-.8,18.1-3.9,30.4-12.4,0,0-21.4,11.7-39.4,8.7,11.2-.4,35.3-4.7,52.5-32.3,0,0-20,30.5-55.9,27.8 a 56.56,56.56,0,0,0,37.1-19.5 s -19.4,16.8-40.8,16.1 c 9.4-1.6,36.6-9.1,48.3-42.6,0,0-14.8,33.6-47.6,38.6,8-2.5,22.1-9.2,31.3-26.6,0,0-12.3,17.4-30,23.1,10.6-6.6,27.8-21.9,29.2-51.6,0,0-4.7,40.6-38.2,51.4 a 51.34,51.34,0,0,0,25.8-35 s -8.5,21.4-25.5,31.5 c 8-7.2,21.9-24.5,18.5-54,0,0,1.3,36.7-24.6,54.3 a 63.86,63.86,0,0,0,13.9-34.1 s -3.3,19.6-18.1,33 a 58.69,58.69,0,0,0,8.2-49.8 s 6.8,30-14.7,50 h -.1 c 2.4-3.8,9.3-16.9,3.4-37.7,0,0,4.3,23.4-7.6,37.7 H 342 a 47.69,47.69,0,0,0-4.2-39.7 s 10.8,26.7-2.9,41.5 l -1.5.6 a 34.37,34.37,0,0,0-1.2-23.7,37.69,37.69,0,0,1-4.1,26.7 c -.7.5-1.3,1-2,1.6,1.7-4.3,3.9-14.3-3.6-27 C 322.6,478.6,329.9,494.1,321.9,510.3Z m 50.5,17.5 a 41.86,41.86,0,0,1-13.4,8.9,21.28,21.28,0,0,0,5.4-23.7 A 41.05,41.05,0,0,1,372.4,527.8Z m -27.8,11.8 a 18.6,18.6,0,0,1-.2-37.2 h 1.3 a 25.36,25.36,0,0,1,2.9.4,20.63,20.63,0,0,1,3.5,1.2,10.46,10.46,0,0,0-6.3.5,11.17,11.17,0,1,0,14.4,6.5,18.77,18.77,0,0,1,2.9,10,18.54,18.54,0,0,1-18.5,18.6Z"/>
  </g>
  <g id="misc-objects">
    <circle cx="339.8" cy="525.8" r="7.4" fill="#fff"/>
    <circle cx="352.1" cy="512.6" r="2.7" fill="#fff"/>
    <path d="M 225.9,580.5 a 15.51,15.51,0,0,1,1-13.9,15.34,15.34,0,0,1,21-5.3 l .4.2 a 15.48,15.48,0,0,1,9.3-10.9,15.26,15.26,0,0,1,19.9,8.5 c 6.1,14.8-3.4,33-13,41.6 C 251.6,601.5,232.1,595.3,225.9,580.5Z" fill="#ed135a"/>
    <path d="M 275.9,576.5 c -1.8,9.2-6.9,16-8.8,15.6 s 3.3-7.1,5-16.3-.7-17.4,1.3-17 S 277.7,567.3,275.9,576.5Z" fill="#fff" opacity="0.7" style="isolation:isolate"/>
    <path d="M 228.3,572.5 c .9-4.3,3.9-7.3,5.1-7.1 s -1.3,3.4-2.2,7.7.3,8.2-.9,7.9 S 227.4,576.8,228.3,572.5Z" fill="#fff" opacity="0.7" style="isolation:isolate"/>
  </g>
<script type="text/ecmascript" xlink:href="param.min.js"/> 
</svg>
