<?xml version="1.0"?>
<svg xmlns="http://www.w3.org/2000/svg" xmlns:xlink="http://www.w3.org/1999/xlink" viewBox="0 0 600 1032.36">
  <title>ES006</title>
  <g id="outline">
    <path d="M 277.36,478.58 c -7.5,12.73-5.28,22.68-3.6,27q-1-.83-2-1.57 a 37.86,37.86,0,0,1-4.07-26.69 c -3.5,7.7-3.43,17.43-1.19,23.66-.5-.23-1-.44-1.49-.63-13.66-14.78-2.86-41.51-2.86-41.51-10.87,18.08-5.56,35.78-4.16,39.71 l -.41,0 c -11.89-14.28-7.6-37.67-7.6-37.67-5.92,20.85.95,33.95,3.37,37.7 h -.11 c -21.48-20-14.67-50-14.67-50 a 58.73,58.73,0,0,0,8.2,49.76 c -14.8-13.43-18.07-33-18.07-33,1.33,17,10.1,29.47,13.86,34.09-25.95-17.57-24.65-54.28-24.65-54.28-3.35,29.55,10.57,46.75,18.52,54-17-10.06-25.46-31.5-25.46-31.5 a 51.49,51.49,0,0,0,25.83,35 c -33.43-10.82-38.16-51.44-38.16-51.44,1.37,29.7,18.55,45,29.2,51.63-17.74-5.77-30-23.12-30-23.12,9.15,17.46,23.24,24.14,31.28,26.63-32.81-5.07-47.61-38.65-47.61-38.65,11.74,33.45,38.87,40.94,48.3,42.56-21.32.77-40.75-16.06-40.75-16.06 a 56.82,56.82,0,0,0,37.09,19.51 c -35.88,2.72-55.89-27.83-55.89-27.83,17.16,27.58,41.21,31.87,52.45,32.25-17.95,3-39.35-8.68-39.35-8.68,12.29,8.55,22.76,11.6,30.44,12.43-25.19,2.65-48.32-12.43-48.32-12.43,23.46,17,43.07,17.34,53.47,15.7-16.44,5.2-38.06,0-38.06,0,20.07,6.91,34.52,4.29,41.18,2.21-24.19,12.15-54,1.64-54,1.64,31.32,13.4,54.23,1.88,57.88-.16 a 34.79,34.79,0,0,0,3.4,3.24 c -1.77,1.09-4.23,3-5.27,5.4,2.12-2.33,5.55-3.28,7.49-3.64.65.48,1.31.93,2,1.37-2.86,1.25-4.08,4.89-4.08,4.89,1.71-1.82,5-2.88,6.62-3.32q1.39.81,2.8,1.51 c -2.92,1.42-4.18,5.19-4.18,5.19,2-2,6.06-3.65,6.8-4,.92.4,1.81.74,2.69,1.06-3.49,1.57-4.56,6-4.56,6,1.69-2.31,7.09-4.62,7.09-4.62 a 11.27,11.27,0,0,1-2.31-1.28 l .7.24 a 21.3,21.3,0,0,0,26-4.37,20.89,20.89,0,0,0,1.78-1.67 l -.59.26 a 21.25,21.25,0,0,0-.73-26.91,20.65,20.65,0,0,0-1.56-1.79,44.89,44.89,0,0,1,12.28,10.71,29.12,29.12,0,0,0-4.07-6.89 C 270.08,494.06,277.36,478.58,277.36,478.58Z m -42.65,38.08 a 21,21,0,0,0,1.7,15.27,67,67,0,0,1-5.74-5.09 A 54.12,54.12,0,0,1,234.71,516.67Z"/>
    <path d="M 248.63,543 c -2.31,1.54-3.7,6.78-3.7,6.78,2.16-3.85,7.09-5.7,7.09-5.7 A 30.86,30.86,0,0,1,248.63,543Z"/>
    <path d="M 253.4,544.22 a 13.09,13.09,0,0,0-1.69,4.93 c 1.54-2.31,5.08-4.16,5.08-4.16 A 20.93,20.93,0,0,1,253.4,544.22Z"/>
    <path d="M 256.79,550.38 c .92-2.77,5.39-5.24,5.39-5.24 s -1.23,0-2.77-.15 C 257.1,546.38,256.79,550.38,256.79,550.38Z"/>
    <path d="M 262.23,550.49 a 15.55,15.55,0,0,1,6.63-6.93,26.92,26.92,0,0,1-5.24,1.85 A 13.3,13.3,0,0,0,262.23,550.49Z"/>
    <path d="M 377.92,527.33 c 6.66,2.08,21.1,4.7,41.18-2.21,0,0-21.62,5.18-38.06,0,10.4,1.64,30,1.27,53.47-15.7,0,0-23.13,15.08-48.32,12.43,7.68-.83,18.16-3.88,30.44-12.43,0,0-21.4,11.68-39.35,8.68,11.24-.38,35.28-4.68,52.45-32.25,0,0-20,30.55-55.89,27.83 a 56.82,56.82,0,0,0,37.09-19.51 S 391.5,511,370.17,510.2 c 9.43-1.62,36.56-9.11,48.3-42.56,0,0-14.8,33.58-47.61,38.65,8-2.49,22.13-9.18,31.28-26.63,0,0-12.23,17.35-30,23.12,10.66-6.66,27.83-21.93,29.2-51.63,0,0-4.73,40.63-38.16,51.44 a 51.49,51.49,0,0,0,25.83-35 s -8.42,21.44-25.46,31.5 c 7.95-7.25,21.87-24.45,18.52-54,0,0,1.3,36.7-24.65,54.28,3.76-4.62,12.53-17.09,13.86-34.09,0,0-3.27,19.54-18.07,33 a 58.73,58.73,0,0,0,8.2-49.76 s 6.81,30-14.67,50 h -.11 c 2.43-3.76,9.29-16.86,3.37-37.7,0,0,4.28,23.4-7.6,37.67 l -.41,0 c 1.4-3.93,6.71-21.63-4.16-39.71,0,0,10.8,26.74-2.86,41.51-.5.2-1,.4-1.49.63,2.24-6.22,2.31-16-1.19-23.66 A 37.86,37.86,0,0,1,328.27,504q-1,.74-2,1.57 c 1.68-4.35,3.9-14.31-3.6-27,0,0,7.28,15.48-.86,31.63 a 29.12,29.12,0,0,0-4.07,6.89 A 44.89,44.89,0,0,1,330,506.39 a 20.65,20.65,0,0,0-1.56,1.79,21.25,21.25,0,0,0-.73,26.91 l -.59-.26 a 20.89,20.89,0,0,0,1.78,1.67,21.3,21.3,0,0,0,26,4.37 l .7-.24 a 11.27,11.27,0,0,1-2.31,1.28 s 5.39,2.31,7.09,4.62 c 0,0-1.07-4.41-4.56-6,.88-.31,1.77-.66,2.69-1.06.75.3,4.85,2,6.8,4,0,0-1.26-3.77-4.18-5.19q1.4-.71,2.8-1.51 c 1.61.43,4.91,1.49,6.62,3.32,0,0-1.22-3.64-4.08-4.89.67-.44,1.34-.9,2-1.37,1.94.36,5.37,1.31,7.49,3.64-1-2.44-3.5-4.31-5.27-5.4 a 34.79,34.79,0,0,0,3.4-3.24 c 3.64,2,26.55,13.56,57.88.16 C 431.88,529,402.1,539.48,377.92,527.33Z M 366,522.09 a 21.27,21.27,0,0,0-.72-5.42,54.12,54.12,0,0,1,4,10.17,67,67,0,0,1-5.74,5.09 A 21.23,21.23,0,0,0,366,522.09Z"/>
    <path d="M 351.37,543 a 30.86,30.86,0,0,1-3.39,1.08 s 4.93,1.85,7.09,5.7 C 355.07,549.77,353.69,544.53,351.37,543Z"/>
    <path d="M 343.21,545 s 3.54,1.85,5.08,4.16 a 13.09,13.09,0,0,0-1.69-4.93 A 20.93,20.93,0,0,1,343.21,545Z"/>
    <path d="M 340.59,545 c -1.54.15-2.77.15-2.77.15 s 4.47,2.47,5.39,5.24 C 343.21,550.38,342.9,546.38,340.59,545Z"/>
    <path d="M 331.14,543.56 a 15.55,15.55,0,0,1,6.63,6.93,13.3,13.3,0,0,0-1.39-5.08 A 26.92,26.92,0,0,1,331.14,543.56Z"/>
    <path d="M 264,547.64 c -12.92-.82-31.6-9.22-35.94-24.7 a 15.33,15.33,0,0,1,24.41-16.18 l .16-.41 a 15.33,15.33,0,0,1,29.1,1.45 C 286.16,523.26,274.62,540.19,264,547.64Z" fill="#ed135a"/>
    <path d="M 231.07,520.16 c 1.3-1.49,4.49,6.43,11.54,12.61 s 15.27,8.26,14,9.75-9.49-.69-16.53-6.87 S 229.77,521.64,231.07,520.16Z" fill="#fff" opacity="0.7"/>
    <path d="M 278.77,510.86 c -.8.94-2.27-2.82-5.62-5.66 s -7.29-3.69-6.49-4.63,5-.43,8.38,2.41 S 279.58,509.92,278.77,510.86Z" fill="#fff" opacity="0.7"/>
    <path d="M 336,547.64 c 12.92-.82,31.6-9.22,35.94-24.7 a 15.33,15.33,0,0,0-24.41-16.18 l -.16-.41 a 15.33,15.33,0,0,0-29.1,1.45 C 313.84,523.26,325.38,540.19,336,547.64Z" fill="#ed135a"/>
    <path d="M 368.93,520.16 c -1.3-1.49-4.49,6.43-11.54,12.61 s -15.27,8.26-14,9.75,9.49-.69,16.53-6.87 S 370.23,521.64,368.93,520.16Z" fill="#fff" opacity="0.7"/>
    <path d="M 321.23,510.86 c .8.94,2.27-2.82,5.62-5.66 s 7.29-3.69,6.49-4.63-5-.43-8.38,2.41 S 320.42,509.92,321.23,510.86Z" fill="#fff" opacity="0.7"/>
  </g>
<script type="text/ecmascript" xlink:href="param.min.js"/> 
</svg>
