<?xml version="1.0"?>
<svg xmlns="http://www.w3.org/2000/svg" xmlns:xlink="http://www.w3.org/1999/xlink" id="Layer_1" data-name="Layer 1" viewBox="0 0 600 1032.4">
  <title>ES012</title>
  <g id="main-colour">
    <circle cx="255.8" cy="520.9" r="20.6" fill="param(main_colour)"/>
  </g>
  <g id="fixed-colours">
    <path d="M 241.8,506.1 a 29.15,29.15,0,0,0-5,4.3 c -6.7,7.1-9.9,17.7-9.9,17.7,3.9,4.1,14.1,10.7,22.9,12.7 a 20.71,20.71,0,0,1-14.5-19.7 A 20.35,20.35,0,0,1,241.8,506.1Z" fill="#fff"/>
    <path d="M 261.3,541 a 36.8,36.8,0,0,0,15.3-5.6 c 9.5-5.9,8-15.4,6.2-18.3-.9-1.8-6.1-7.6-9-9.6 a 30.09,30.09,0,0,0-5.9-3.1,20.58,20.58,0,0,1-6.6,36.6Z" fill="#fff"/>
  </g>
  <g id="outline">
    <path d="M 315.7,518 l 1.3-.7 c -1.3,3.2-1.9,10.6.2,17.6,0,0-1.6-11.2,2-18.7 a 35,35,0,0,0,1.3,20.5 c -1.5-8.2-.9-16.4,1.8-21.9 h 0 c -1.2,4.5-2.5,18.8,3.1,27.8,0,0-5.8-14.8.4-29.2-1.5,5.2-2.1,21.8,4.8,33.4,0,0-6.4-17.5-2-34.3-1.1,8,.4,29.4,9.9,39.5,0,0-11.1-18.6-7.2-40.4-.6,7.3,1,23.9,7.9,35.2,0,0-7.6-19.6-4.6-35.6-.6,10.4,2.5,31.2,17,45.1,0,0-17.3-21.8-14.5-45.6-.4,8.3,3.2,26,14.5,36.7,0,0-13.1-17.8-12-37.3,1.3,10.2,6.5,32.1,27.1,46.3,0,0-22.5-19.9-24.4-46.3,1.3,8.1,8.8,26.9,24.6,38,0,0-18-15.8-22.1-38.2,8,21,19.4,34.6,43.9,40.9-2.1-.5-30.4-8.8-41.2-41,9.7,19.2,23.9,33.3,45.9,34.9,0,0-29.4-2.3-42.9-34.4,8.8,16.2,19.3,26,37.8,28.4,0,0-24.4-4.8-34.5-27.7,7.7,13.1,22.1,23.7,43,24.8,0,0-26.2-2.4-39.5-23.4,10.6,13.7,29.7,23.8,58.2,16.5,0,0-38.9,6.4-54-15.2,8.4,10,24.9,18.4,51.2,6.5,0,0-29.7,11.4-46.6-4.4,9.9,9.2,32.6,9.8,50-6.5,0,0-23.2,17.7-45.1,7.9 C 349,497.2,319,513.1,315.7,518Z"/>
    <path d="M 168.6,528.9 c 24.6,10.5,44,5.7,53,2.1 a 8.69,8.69,0,0,0-1.9,2.8 c 2.4-2.6,6.5-3.5,8.2-3.8.5.5,1,.9,1.5,1.4-3,1.2-4.3,5-4.3,5,1.6-1.8,4.7-2.8,6.4-3.3.8.6,1.6,1.2,2.5,1.8 a 9.87,9.87,0,0,0-3.6,4.9,19.13,19.13,0,0,1,5.8-3.5,20.13,20.13,0,0,0,2.5,1.4,10.35,10.35,0,0,0-3.3,5.2 c 1.2-1.6,4.1-3.2,5.8-4 a 27.17,27.17,0,0,0,2.5,1.1 c -1.9,2-3,6.2-3,6.2 a 14.87,14.87,0,0,1,5.9-5.2 l 2.1.6 a 14.19,14.19,0,0,0-1.2,4,14.44,14.44,0,0,1,3.9-3.5,24.59,24.59,0,0,0,2.8.2,9.06,9.06,0,0,0-1.6,4.5 c .6-1.8,2.8-3.5,4.1-4.5.9,0,1.9,0,2.9-.1 a 10.3,10.3,0,0,0-1,4.6,10.65,10.65,0,0,1,4-4.9 c 1.3-.2,2.6-.5,3.9-.8 a 15.15,15.15,0,0,0-1,4.2,16,16,0,0,1,4.1-5.2,20.34,20.34,0,0,0,7.3-4.7,52.94,52.94,0,0,1-8.7,3.1 l 1.2-.9 a 21.3,21.3,0,0,0,3.5-29.9,45.17,45.17,0,0,1,10.1,9.4,26.79,26.79,0,0,0-4.1-6.9 c -8.1-16.1-.9-31.6-.9-31.6-7.5,12.7-5.3,22.6-3.6,27-.7-.6-1.3-1.1-2-1.6 a 37.65,37.65,0,0,1-4-26.7,34.35,34.35,0,0,0-1.2,23.7 l -1.5-.6 c -13.7-14.8-2.9-41.5-2.9-41.5 a 47.69,47.69,0,0,0-4.2,39.7 h -.4 c -11.9-14.3-7.6-37.7-7.6-37.7-5.9,20.8.9,33.9,3.4,37.7 h -.1 c -21.5-20-14.7-50-14.7-50 a 58.69,58.69,0,0,0,8.2,49.8 c -14.8-13.5-18.1-33-18.1-33,1.3,17,10.1,29.5,13.9,34.1-25.9-17.6-24.6-54.3-24.6-54.3-3.4,29.5,10.5,46.8,18.5,54-17-10.1-25.5-31.5-25.5-31.5 a 51.63,51.63,0,0,0,25.8,35 c -33.4-10.8-38.2-51.4-38.2-51.4,1.4,29.7,18.5,45,29.2,51.6-17.8-5.8-30-23.1-30-23.1 a 52.69,52.69,0,0,0,31.3,26.6 c -32.8-5.1-47.6-38.6-47.6-38.6,11.7,33.5,38.9,40.9,48.3,42.6-21.3.8-40.8-16-40.8-16 a 56.56,56.56,0,0,0,37.1,19.5 c -35.9,2.7-55.9-27.8-55.9-27.8 C 188,513.7,212,518,223.3,518.4 c -18,3-39.4-8.7-39.4-8.7,12.3,8.6,22.8,11.6,30.4,12.4-25.2,2.7-48.3-12.4-48.3-12.4,23.5,17,43.1,17.3,53.5,15.7-16.4,5.2-38.1,0-38.1,0,20.1,6.9,34.5,4.3,41.2,2.2 C 198.4,539.5,168.6,529,168.6,528.9Z m 59.5-1.2 A 44.47,44.47,0,0,1,236,513 a 21.13,21.13,0,0,0,5.4,23.6,39.87,39.87,0,0,1-13.3-8.9Z m 46.4-6.8 a 18.63,18.63,0,1,1-22.8-18.2,29.75,29.75,0,0,1,4.3-.5,18.89,18.89,0,0,1,18.5,18.7Z"/>
    <circle cx="259.9" cy="516.1" r="9.1"/>
  </g>
  <g id="misc-objects">
    <circle cx="251" cy="525.8" r="7.4" fill="#fff"/>
    <circle cx="263.3" cy="512.6" r="2.7" fill="#fff"/>
  </g>
<script type="text/ecmascript" xlink:href="param.min.js"/> 
</svg>
