<?xml version="1.0"?>
<svg xmlns="http://www.w3.org/2000/svg" xmlns:xlink="http://www.w3.org/1999/xlink" id="Layer_1" data-name="Layer 1" viewBox="0 0 600 1032.4">
  <title>ES014</title>
  <g id="main-colour">
    <circle cx="344.6" cy="520.9" r="20.6" fill="param(main_colour)"/>
    <circle cx="255.8" cy="520.9" r="20.6" fill="param(main_colour)"/>
  </g>
  <g id="fixed-colours">
    <path d="M 323.9,535.4 a 38.44,38.44,0,0,0,18.3,5.9,20.58,20.58,0,0,1-10.7-36.4,31,31,0,0,0-4.7,2.6 c -2.8,2-8.1,7.7-9,9.6 C 315.9,520,314.4,529.6,323.9,535.4Z" fill="#fff"/>
    <path d="M 344.9,541.5 h .7 c 9.4.1,23.3-8.3,28-13.3,0,0-3.2-10.6-9.9-17.7 a 30.79,30.79,0,0,0-4.3-3.8,20.3,20.3,0,0,1,5.7,14.2 A 20.68,20.68,0,0,1,344.9,541.5Z" fill="#fff"/>
    <path d="M 241.8,506.1 a 29.15,29.15,0,0,0-5,4.3 c -6.7,7.1-9.9,17.7-9.9,17.7,3.9,4.1,14.1,10.7,22.9,12.7 a 20.71,20.71,0,0,1-14.5-19.7 A 20.35,20.35,0,0,1,241.8,506.1Z" fill="#fff"/>
    <path d="M 261.3,541 a 36.8,36.8,0,0,0,15.3-5.6 c 9.5-5.9,8-15.4,6.2-18.3-.9-1.8-6.1-7.6-9-9.6 a 30.09,30.09,0,0,0-5.9-3.1,20.58,20.58,0,0,1-6.6,36.6Z" fill="#fff"/>
  </g>
  <g id="outline">
    <path d="M 321.9,510.3 a 30,30,0,0,0-4.1,6.9,47.43,47.43,0,0,1,10.1-9.4 L 327,509 a 21.34,21.34,0,0,0,5.6,29.6,52.94,52.94,0,0,1-8.7-3.1,18.76,18.76,0,0,0,7.3,4.7,13.76,13.76,0,0,1,4.1,5.2,15.15,15.15,0,0,0-1-4.2 c 1.3.3,2.6.6,3.9.8 a 11.18,11.18,0,0,1,4,4.9,10.3,10.3,0,0,0-1-4.6 c 1,.1,2,.1,2.9.1,1.4,1,3.5,2.6,4.1,4.5 a 9.06,9.06,0,0,0-1.6-4.5,24.57,24.57,0,0,0,2.8-.2,13.1,13.1,0,0,1,3.9,3.5,14.19,14.19,0,0,0-1.2-4 c .7-.2,1.3-.4,2.1-.6 a 14.07,14.07,0,0,1,5.9,5.2 s -1.1-4.2-3-6.2 c .8-.3,1.6-.7,2.5-1.1,1.8.8,4.6,2.4,5.8,4 a 9.94,9.94,0,0,0-3.3-5.2 c .8-.4,1.6-.9,2.5-1.4 a 21.37,21.37,0,0,1,5.8,3.5,10.5,10.5,0,0,0-3.6-4.9 c .8-.6,1.7-1.2,2.5-1.8,1.7.5,4.8,1.5,6.4,3.3,0,0-1.3-3.8-4.3-5,.5-.5,1-.9,1.5-1.4,1.7.2,5.8,1.1,8.2,3.8 a 10.65,10.65,0,0,0-1.9-2.8 c 9,3.6,28.4,8.4,53-2.1,0,0-29.8,10.5-54-1.6,6.7,2.1,21.1,4.7,41.2-2.2,0,0-21.6,5.2-38.1,0,10.4,1.6,30,1.3,53.5-15.7,0,0-23.1,15.1-48.3,12.4,7.7-.8,18.1-3.9,30.4-12.4,0,0-21.4,11.7-39.4,8.7,11.2-.4,35.3-4.7,52.5-32.3,0,0-20,30.5-55.9,27.8 a 56.56,56.56,0,0,0,37.1-19.5 s -19.4,16.8-40.8,16.1 c 9.4-1.6,36.6-9.1,48.3-42.6,0,0-14.8,33.6-47.6,38.6,8-2.5,22.1-9.2,31.3-26.6,0,0-12.3,17.4-30,23.1,10.6-6.6,27.8-21.9,29.2-51.6,0,0-4.7,40.6-38.2,51.4 a 51.34,51.34,0,0,0,25.8-35 s -8.5,21.4-25.5,31.5 c 8-7.2,21.9-24.5,18.5-54,0,0,1.3,36.7-24.6,54.3 a 63.86,63.86,0,0,0,13.9-34.1 s -3.3,19.6-18.1,33 a 58.69,58.69,0,0,0,8.2-49.8 s 6.8,30-14.7,50 h -.1 c 2.4-3.8,9.3-16.9,3.4-37.7,0,0,4.3,23.4-7.6,37.7 H 342 a 47.69,47.69,0,0,0-4.2-39.7 s 10.8,26.7-2.9,41.5 l -1.5.6 a 34.37,34.37,0,0,0-1.2-23.7,37.69,37.69,0,0,1-4.1,26.7 c -.7.5-1.3,1-2,1.6,1.7-4.3,3.9-14.3-3.6-27 C 322.6,478.6,329.9,494.1,321.9,510.3Z m 50.5,17.5 a 41.86,41.86,0,0,1-13.4,8.9,21.28,21.28,0,0,0,5.4-23.7 A 41.05,41.05,0,0,1,372.4,527.8Z m -27.8,11.8 a 18.6,18.6,0,0,1-.2-37.2 h 1.3 a 25.36,25.36,0,0,1,2.9.4,20.63,20.63,0,0,1,3.5,1.2,10.46,10.46,0,0,0-6.3.5,11.17,11.17,0,1,0,14.4,6.5,18.77,18.77,0,0,1,2.9,10,18.54,18.54,0,0,1-18.5,18.6Z"/>
    <path d="M 168.6,528.9 c 24.6,10.5,44,5.7,53,2.1 a 8.69,8.69,0,0,0-1.9,2.8 c 2.4-2.6,6.5-3.5,8.2-3.8.5.5,1,.9,1.5,1.4-3,1.2-4.3,5-4.3,5,1.6-1.8,4.7-2.8,6.4-3.3.8.6,1.6,1.2,2.5,1.8 a 9.87,9.87,0,0,0-3.6,4.9,19.13,19.13,0,0,1,5.8-3.5,20.13,20.13,0,0,0,2.5,1.4,10.35,10.35,0,0,0-3.3,5.2 c 1.2-1.6,4.1-3.2,5.8-4 a 27.17,27.17,0,0,0,2.5,1.1 c -1.9,2-3,6.2-3,6.2 a 14.87,14.87,0,0,1,5.9-5.2 l 2.1.6 a 14.19,14.19,0,0,0-1.2,4,14.44,14.44,0,0,1,3.9-3.5,24.59,24.59,0,0,0,2.8.2,9.06,9.06,0,0,0-1.6,4.5 c .6-1.8,2.8-3.5,4.1-4.5.9,0,1.9,0,2.9-.1 a 10.3,10.3,0,0,0-1,4.6,10.65,10.65,0,0,1,4-4.9 c 1.3-.2,2.6-.5,3.9-.8 a 15.15,15.15,0,0,0-1,4.2,16,16,0,0,1,4.1-5.2,20.34,20.34,0,0,0,7.3-4.7,52.94,52.94,0,0,1-8.7,3.1 l 1.2-.9 a 21.3,21.3,0,0,0,3.5-29.9,45.17,45.17,0,0,1,10.1,9.4,26.79,26.79,0,0,0-4.1-6.9 c -8.1-16.1-.9-31.6-.9-31.6-7.5,12.7-5.3,22.6-3.6,27-.7-.6-1.3-1.1-2-1.6 a 37.65,37.65,0,0,1-4-26.7,34.35,34.35,0,0,0-1.2,23.7 l -1.5-.6 c -13.7-14.8-2.9-41.5-2.9-41.5 a 47.69,47.69,0,0,0-4.2,39.7 h -.4 c -11.9-14.3-7.6-37.7-7.6-37.7-5.9,20.8.9,33.9,3.4,37.7 h -.1 c -21.5-20-14.7-50-14.7-50 a 58.69,58.69,0,0,0,8.2,49.8 c -14.8-13.5-18.1-33-18.1-33,1.3,17,10.1,29.5,13.9,34.1-25.9-17.6-24.6-54.3-24.6-54.3-3.4,29.5,10.5,46.8,18.5,54-17-10.1-25.5-31.5-25.5-31.5 a 51.63,51.63,0,0,0,25.8,35 c -33.4-10.8-38.2-51.4-38.2-51.4,1.4,29.7,18.5,45,29.2,51.6-17.8-5.8-30-23.1-30-23.1 a 52.69,52.69,0,0,0,31.3,26.6 c -32.8-5.1-47.6-38.6-47.6-38.6,11.7,33.5,38.9,40.9,48.3,42.6-21.3.8-40.8-16-40.8-16 a 56.56,56.56,0,0,0,37.1,19.5 c -35.9,2.7-55.9-27.8-55.9-27.8 C 188,513.7,212,518,223.3,518.4 c -18,3-39.4-8.7-39.4-8.7,12.3,8.6,22.8,11.6,30.4,12.4-25.2,2.7-48.3-12.4-48.3-12.4,23.5,17,43.1,17.3,53.5,15.7-16.4,5.2-38.1,0-38.1,0,20.1,6.9,34.5,4.3,41.2,2.2 C 198.4,539.5,168.6,529,168.6,528.9Z m 59.5-1.2 A 44.47,44.47,0,0,1,236,513 a 21.13,21.13,0,0,0,5.4,23.6,39.87,39.87,0,0,1-13.3-8.9Z m 46.3-6.8 a 18.63,18.63,0,1,1-22.8-18.2,29.75,29.75,0,0,1,4.3-.5,19.42,19.42,0,0,1,7.5,1.6,10.46,10.46,0,0,0-6.3.5,11.17,11.17,0,1,0,14.4,6.5,19.37,19.37,0,0,1,2.9,10.1Z"/>
  </g>
  <g id="misc-objects">
    <circle cx="339.8" cy="525.8" r="7.4" fill="#fff"/>
    <circle cx="352.1" cy="512.6" r="2.7" fill="#fff"/>
    <circle cx="251" cy="525.8" r="7.4" fill="#fff"/>
    <circle cx="263.3" cy="512.6" r="2.7" fill="#fff"/>
    <path d="M 212.2,516.6 a 7.72,7.72,0,0,0,4.2.8 s -.7,12.5,4.1,22.2,18.5,14.4,33.1,12,31.2-14,36.6-27.2 a 38.63,38.63,0,0,0,2.6-21.5,12.58,12.58,0,0,1,14.4.2 c -1.8,7.2-.8,15.6,4.6,24.8 s 18.6,22.4,38.1,24.1 c 9,.9,20.1-1.5,24.6-6.4,6.8-7.4,9.9-17.9,9.2-28.1,2-.1,5.4.1,5.4-2.8 s 0-6-1.5-6.4 a 30.52,30.52,0,0,0-5.2-.5 s -2.9-9.4-7.9-13.6-14.8-6.5-26.4-6.5 a 254.37,254.37,0,0,0-26.2,1.9 h -46 a 136.69,136.69,0,0,0-23.9-1.8 c -14.1.1-22.8,3-26.5,6.2 s -7.1,9.5-7.6,13.5 c -2.6.1-5.9.1-6.4,1.8 C 211.3,511,210.4,515.5,212.2,516.6Z m 99-11.7 c 2-6,9-10.5,15-11.2 s 21.4-2.4,32.8-.8,16.8,9.6,18.2,17.8 c 2,11.1,2.2,21.9-4.1,29.8 s -19.9,10-32.4,5.6-19.1-12.6-23.4-18.5 S 309.2,510.9,311.2,504.9Z m -19.9-5.4 a 20.67,20.67,0,0,0-5.6-6.2 h 28.7 a 19.37,19.37,0,0,0-5.2,6.2 c -5.9-5.7-12.6-4.3-17.9,0Z m -64,40.9 c -6.3-7.9-6.1-18.6-4.1-29.8,1.5-8.1,6.9-16.1,18.2-17.8 s 26.8,0,32.8.8,13,5.2,15,11.2-1.9,16.7-6.1,22.6-10.9,14.1-23.4,18.5-26,2.3-32.4-5.5Z" fill="#414042"/>
    <path d="M 227.3,540.4 c 6.4,7.9,19.9,10,32.4,5.6 s 19.1-12.6,23.4-18.5,8.1-16.6,6.1-22.6-9-10.5-15-11.2-21.4-2.4-32.8-.8-16.8,9.6-18.2,17.8 C 221.2,521.7,220.9,532.5,227.3,540.4Z" opacity="0.5" style="isolation:isolate"/>
    <path d="M 373.1,540.4 c -6.4,7.9-19.9,10-32.4,5.6 s -19.1-12.6-23.4-18.5-8.1-16.6-6.1-22.6,9-10.5,15-11.2,21.4-2.4,32.8-.8,16.8,9.6,18.2,17.8 C 379.3,521.7,379.5,532.5,373.1,540.4Z" opacity="0.5" style="isolation:isolate"/>
    <path d="M 210.6,516.7 c .7,1.2,3.1,1.5,4.8,1.6 a 49.72,49.72,0,0,0,2,15.8 c 4.1,14.1,16.2,19.1,28.2,19.1 a 42.19,42.19,0,0,0,7.9-.7 c 15.8-2.7,30.3-13.1,37-26.5,4.1-8.3,5.2-16.1,3.3-22.7 a 11.52,11.52,0,0,1,12.6,0 c -1.9,6.6-.8,14.4,3.3,22.7,6.7,13.4,21.2,23.8,37,26.5 a 42.19,42.19,0,0,0,7.9.7 c 12,0,24.1-5,28.2-19.1 a 49.72,49.72,0,0,0,2-15.8 c 1.7-.1,4.1-.5,4.8-1.6.8-1.3.9-7.3-.7-8.7-1.2-1-4.4-1.1-5.9-1.1 a 29.87,29.87,0,0,0-4.6-9.9 c -4.1-5.1-10-10.1-31.5-10.1-9.9,0-17.4.6-23.1,1.8 H 276.4 c -5.7-1.2-13.2-1.8-23.1-1.8-21.5,0-27.4,5-31.5,10.1 a 28,28,0,0,0-4.6,9.9 c -1.5,0-4.7.1-5.9,1.1 C 209.8,509.4,209.9,515.4,210.6,516.7Z m 106.9-26 a 18.69,18.69,0,0,0-3.1,1.7 H 286.1 a 30.71,30.71,0,0,0-3.1-1.7Z m -28.5,4-.3-.3 H 312 l -.3.3 a 21,21,0,0,0-2.6,3.3,13.48,13.48,0,0,0-17.5,0 A 29.11,29.11,0,0,0,289,494.7Z m 95.8,21.6 a 41,41,0,0,0-.6-4.9 c -.2-.9-.3-1.7-.5-2.6 a 10.65,10.65,0,0,1,4,.6 c .7.7.8,5.3.3,6.2 A 7.11,7.11,0,0,1,384.8,516.3Z m -73.2,8.9 c -5.8-11.6-5.3-22.2,1.3-29.1,6-6.3,20.6-7.2,34-7.2,20.7,0,26.2,4.6,30,9.4,4.4,5.4,8.6,20,4.1,35.3-4.7,16-20.6,19.3-33.9,17-15.1-2.6-29-12.6-35.5-25.4Z m -11.4-25.7 a 13.25,13.25,0,0,0-7,2,13,13,0,0,0-.8-1.7,11.51,11.51,0,0,1,15.5,0 c -.3.6-.5,1.1-.8,1.7 a 12.65,12.65,0,0,0-6.9-2Z m -80.8,34.1 c -4.5-15.4-.3-29.9,4-35.4,3.9-4.8,9.4-9.4,30-9.4,13.4,0,27.9.9,34,7.2,6.6,6.9,7.1,17.5,1.3,29.1-6.4,12.9-20.4,22.9-35.5,25.5-13.2,2.3-29.1-1-33.8-17Z m -7-18 c -.4-.8-.3-5.5.3-6.2.4-.4,2.3-.6,4-.6 a 20,20,0,0,0-.5,2.6,41,41,0,0,0-.6,4.9,8.76,8.76,0,0,1-3.2-.7Z"/>
    <path d="M 310.1,513.2 a 41.84,41.84,0,0,0,14.8,24.4 c 9.1,7.6,19.5,11.7,29.4,11.7 h .5 c 10.5-.2,19.5-6.2,22.9-15.2,3.1-8.2,2.1-27.4-5-35.5-3.9-4.5-10.2-6.9-18.7-7.2-8.1-.2-25.2,0-32.2,2.4 C 312.6,497.1,308.1,504.3,310.1,513.2Z m 2-.4 c -2.5-11.3,6.5-15.7,10.5-17,6.7-2.3,23.6-2.5,31.5-2.3 s 13.7,2.4,17.3,6.5 c 6.5,7.5,7.5,25.9,4.6,33.5-3.1,8.4-11.2,13.7-21.1,13.8-9.6.1-19.8-3.9-28.7-11.3 a 38.92,38.92,0,0,1-14.1-23.2Z"/>
    <path d="M 227.6,498.7 c -7,8.1-8.1,27.3-5,35.5,3.4,9,12.4,15,22.9,15.2 h .5 c 9.9,0,20.4-4.2,29.5-11.7 a 41.34,41.34,0,0,0,14.8-24.4 c 2-8.9-2.5-16.1-11.8-19.3-7-2.4-24.1-2.6-32.2-2.4 C 237.9,491.8,231.6,494.2,227.6,498.7Z m -3.1,34.8 c -2.8-7.6-1.9-26,4.6-33.5,3.6-4.1,9.4-6.3,17.3-6.5,1.5-.1,3.3-.1,5.3-.1,8.6,0,20.7.5,26.2,2.4,4,1.4,13,5.7,10.5,17 a 39.4,39.4,0,0,1-14.2,23.3 c -8.9,7.4-19.1,11.4-28.7,11.3-9.8-.2-17.9-5.5-21-13.9Z"/>
  </g>
<script type="text/ecmascript" xlink:href="param.min.js"/> 
</svg>
