<?xml version="1.0"?>
<svg xmlns="http://www.w3.org/2000/svg" xmlns:xlink="http://www.w3.org/1999/xlink" id="Layer_1" data-name="Layer 1" viewBox="0 0 600 1032.4">
  <title>ES015</title>
  <g id="main-colour">
    <circle cx="344.6" cy="520.9" r="20.6" fill="param(main_colour)"/>
    <circle cx="255.8" cy="520.9" r="20.6" fill="param(main_colour)"/>
  </g>
  <g id="fixed-colours">
    <path d="M 323.9,535.4 a 38.44,38.44,0,0,0,18.3,5.9,20.58,20.58,0,0,1-10.7-36.4,31,31,0,0,0-4.7,2.6 c -2.8,2-8.1,7.7-9,9.6 C 315.9,520,314.4,529.6,323.9,535.4Z" fill="#fff"/>
    <path d="M 344.9,541.5 h .7 c 9.4.1,23.3-8.3,28-13.3,0,0-3.2-10.6-9.9-17.7 a 30.79,30.79,0,0,0-4.3-3.8,20.3,20.3,0,0,1,5.7,14.2 A 20.68,20.68,0,0,1,344.9,541.5Z" fill="#fff"/>
    <path d="M 241.8,506.1 a 29.15,29.15,0,0,0-5,4.3 c -6.7,7.1-9.9,17.7-9.9,17.7,3.9,4.1,14.1,10.7,22.9,12.7 a 20.71,20.71,0,0,1-14.5-19.7 A 20.35,20.35,0,0,1,241.8,506.1Z" fill="#fff"/>
    <path d="M 261.3,541 a 36.8,36.8,0,0,0,15.3-5.6 c 9.5-5.9,8-15.4,6.2-18.3-.9-1.8-6.1-7.6-9-9.6 a 30.09,30.09,0,0,0-5.9-3.1,20.58,20.58,0,0,1-6.6,36.6Z" fill="#fff"/>
  </g>
  <g id="outline">
    <path d="M 321.9,510.3 a 30,30,0,0,0-4.1,6.9,47.43,47.43,0,0,1,10.1-9.4 L 327,509 a 21.34,21.34,0,0,0,5.6,29.6,52.94,52.94,0,0,1-8.7-3.1,18.76,18.76,0,0,0,7.3,4.7,13.76,13.76,0,0,1,4.1,5.2,15.15,15.15,0,0,0-1-4.2 c 1.3.3,2.6.6,3.9.8 a 11.18,11.18,0,0,1,4,4.9,10.3,10.3,0,0,0-1-4.6 c 1,.1,2,.1,2.9.1,1.4,1,3.5,2.6,4.1,4.5 a 9.06,9.06,0,0,0-1.6-4.5,24.57,24.57,0,0,0,2.8-.2,13.1,13.1,0,0,1,3.9,3.5,14.19,14.19,0,0,0-1.2-4 c .7-.2,1.3-.4,2.1-.6 a 14.07,14.07,0,0,1,5.9,5.2 s -1.1-4.2-3-6.2 c .8-.3,1.6-.7,2.5-1.1,1.8.8,4.6,2.4,5.8,4 a 9.94,9.94,0,0,0-3.3-5.2 c .8-.4,1.6-.9,2.5-1.4 a 21.37,21.37,0,0,1,5.8,3.5,10.5,10.5,0,0,0-3.6-4.9 c .8-.6,1.7-1.2,2.5-1.8,1.7.5,4.8,1.5,6.4,3.3,0,0-1.3-3.8-4.3-5,.5-.5,1-.9,1.5-1.4,1.7.2,5.8,1.1,8.2,3.8 a 10.65,10.65,0,0,0-1.9-2.8 c 9,3.6,28.4,8.4,53-2.1,0,0-29.8,10.5-54-1.6,6.7,2.1,21.1,4.7,41.2-2.2,0,0-21.6,5.2-38.1,0,10.4,1.6,30,1.3,53.5-15.7,0,0-23.1,15.1-48.3,12.4,7.7-.8,18.1-3.9,30.4-12.4,0,0-21.4,11.7-39.4,8.7,11.2-.4,35.3-4.7,52.5-32.3,0,0-20,30.5-55.9,27.8 a 56.56,56.56,0,0,0,37.1-19.5 s -19.4,16.8-40.8,16.1 c 9.4-1.6,36.6-9.1,48.3-42.6,0,0-14.8,33.6-47.6,38.6,8-2.5,22.1-9.2,31.3-26.6,0,0-12.3,17.4-30,23.1,10.6-6.6,27.8-21.9,29.2-51.6,0,0-4.7,40.6-38.2,51.4 a 51.34,51.34,0,0,0,25.8-35 s -8.5,21.4-25.5,31.5 c 8-7.2,21.9-24.5,18.5-54,0,0,1.3,36.7-24.6,54.3 a 63.86,63.86,0,0,0,13.9-34.1 s -3.3,19.6-18.1,33 a 58.69,58.69,0,0,0,8.2-49.8 s 6.8,30-14.7,50 h -.1 c 2.4-3.8,9.3-16.9,3.4-37.7,0,0,4.3,23.4-7.6,37.7 H 342 a 47.69,47.69,0,0,0-4.2-39.7 s 10.8,26.7-2.9,41.5 l -1.5.6 a 34.37,34.37,0,0,0-1.2-23.7,37.69,37.69,0,0,1-4.1,26.7 c -.7.5-1.3,1-2,1.6,1.7-4.3,3.9-14.3-3.6-27 C 322.6,478.6,329.9,494.1,321.9,510.3Z m 50.5,17.5 a 41.86,41.86,0,0,1-13.4,8.9,21.28,21.28,0,0,0,5.4-23.7 A 41.05,41.05,0,0,1,372.4,527.8Z m -27.8,11.7 a 18.57,18.57,0,0,1-17.4-12.2,10.74,10.74,0,0,0,4.6,4.1,11.16,11.16,0,1,0-5.2-14.9,18.59,18.59,0,0,1,17.9-14.2 h 1.3 a 25.36,25.36,0,0,1,2.9.4,18.63,18.63,0,0,1-4.1,36.8Z"/>
    <path d="M 168.6,528.9 c 24.6,10.5,44,5.7,53,2.1 a 8.69,8.69,0,0,0-1.9,2.8 c 2.4-2.6,6.5-3.5,8.2-3.8.5.5,1,.9,1.5,1.4-3,1.2-4.3,5-4.3,5,1.6-1.8,4.7-2.8,6.4-3.3.8.6,1.6,1.2,2.5,1.8 a 9.87,9.87,0,0,0-3.6,4.9,19.13,19.13,0,0,1,5.8-3.5,20.13,20.13,0,0,0,2.5,1.4,10.35,10.35,0,0,0-3.3,5.2 c 1.2-1.6,4.1-3.2,5.8-4 a 27.17,27.17,0,0,0,2.5,1.1 c -1.9,2-3,6.2-3,6.2 a 14.87,14.87,0,0,1,5.9-5.2 l 2.1.6 a 14.19,14.19,0,0,0-1.2,4,14.44,14.44,0,0,1,3.9-3.5,24.59,24.59,0,0,0,2.8.2,9.06,9.06,0,0,0-1.6,4.5 c .6-1.8,2.8-3.5,4.1-4.5.9,0,1.9,0,2.9-.1 a 10.3,10.3,0,0,0-1,4.6,10.65,10.65,0,0,1,4-4.9 c 1.3-.2,2.6-.5,3.9-.8 a 15.15,15.15,0,0,0-1,4.2,16,16,0,0,1,4.1-5.2,20.34,20.34,0,0,0,7.3-4.7,52.94,52.94,0,0,1-8.7,3.1 l 1.2-.9 a 21.3,21.3,0,0,0,3.5-29.9,45.17,45.17,0,0,1,10.1,9.4,26.79,26.79,0,0,0-4.1-6.9 c -8.1-16.1-.9-31.6-.9-31.6-7.5,12.7-5.3,22.6-3.6,27-.7-.6-1.3-1.1-2-1.6 a 37.65,37.65,0,0,1-4-26.7,34.35,34.35,0,0,0-1.2,23.7 l -1.5-.6 c -13.7-14.8-2.9-41.5-2.9-41.5 a 47.69,47.69,0,0,0-4.2,39.7 h -.4 c -11.9-14.3-7.6-37.7-7.6-37.7-5.9,20.8.9,33.9,3.4,37.7 h -.1 c -21.5-20-14.7-50-14.7-50 a 58.69,58.69,0,0,0,8.2,49.8 c -14.8-13.5-18.1-33-18.1-33,1.3,17,10.1,29.5,13.9,34.1-25.9-17.6-24.6-54.3-24.6-54.3-3.4,29.5,10.5,46.8,18.5,54-17-10.1-25.5-31.5-25.5-31.5 a 51.63,51.63,0,0,0,25.8,35 c -33.4-10.8-38.2-51.4-38.2-51.4,1.4,29.7,18.5,45,29.2,51.6-17.8-5.8-30-23.1-30-23.1 a 52.69,52.69,0,0,0,31.3,26.6 c -32.8-5.1-47.6-38.6-47.6-38.6,11.7,33.5,38.9,40.9,48.3,42.6-21.3.8-40.8-16-40.8-16 a 56.56,56.56,0,0,0,37.1,19.5 c -35.9,2.7-55.9-27.8-55.9-27.8 C 188,513.7,212,518,223.3,518.4 c -18,3-39.4-8.7-39.4-8.7,12.3,8.6,22.8,11.6,30.4,12.4-25.2,2.7-48.3-12.4-48.3-12.4,23.5,17,43.1,17.3,53.5,15.7-16.4,5.2-38.1,0-38.1,0,20.1,6.9,34.5,4.3,41.2,2.2 C 198.4,539.5,168.6,529,168.6,528.9Z m 72.8,7.7 a 41.43,41.43,0,0,1-13.3-8.9 A 44.47,44.47,0,0,1,236,513,21.13,21.13,0,0,0,241.4,536.6Z m 33-15.7 a 18.52,18.52,0,0,1-35.4,7.7,9.09,9.09,0,0,0,2.1,1.8,11.14,11.14,0,1,0-2.8-15.5,18.69,18.69,0,0,1,13.5-12.2,29.75,29.75,0,0,1,4.3-.5,18.72,18.72,0,0,1,18.3,18.7Z"/>
  </g>
  <g id="misc-objects">
    <circle cx="327.3" cy="527.8" r="7.4" fill="#fff"/>
    <circle cx="339.6" cy="517.9" r="2.7" fill="#fff"/>
    <circle cx="250.3" cy="517.9" r="2.7" fill="#fff"/>
    <path d="M 239.2,535 a 7,7,0,0,0,3.2-1.3,7.38,7.38,0,0,0-8.6-12 C 233.9,525.2,234.9,530.8,239.2,535Z" fill="#fff"/>
  </g>
<script type="text/ecmascript" xlink:href="param.min.js"/> 
</svg>
