<?xml version="1.0"?>
<svg xmlns="http://www.w3.org/2000/svg" xmlns:xlink="http://www.w3.org/1999/xlink" viewBox="0 0 600 1032.36">
  <title>ES012</title>
  <g id="main-colour">
    <circle cx="344.17" cy="520.86" r="20.59" fill="param(main_colour)"/>
  </g>
  <g id="fixed-colours">
    <path d="M 364.75,521.12 a 20.62,20.62,0,0,1-14.45,19.68 c 8.77-2,19-8.52,22.87-12.67,0,0-3.24-10.63-9.94-17.72 a 30.75,30.75,0,0,0-5-4.27 A 20.54,20.54,0,0,1,364.75,521.12Z" fill="#fff"/>
    <path d="M 323.52,521.12 a 20.57,20.57,0,0,1,8.59-16.72,34.43,34.43,0,0,0-5.86,3.15 c -2.85,2-8.09,7.7-9,9.55-1.85,2.93-3.35,12.49,6.16,18.34 A 38.47,38.47,0,0,0,338.73,541,20.61,20.61,0,0,1,323.52,521.12Z" fill="#fff"/>
  </g>
  <g id="outline">
    <path d="M 228.8,516.84 c -21.91,9.8-45.09-7.93-45.09-7.93,17.4,16.32,40.11,15.71,50,6.54-16.92,15.83-46.58,4.42-46.58,4.42,26.33,11.87,42.87,3.47,51.25-6.5-15.08,21.64-54,15.25-54,15.25,28.51,7.34,47.63-2.83,58.21-16.5-13.25,21-39.46,23.38-39.46,23.38,20.87-1.11,35.29-11.71,43-24.79-10.17,22.92-34.54,27.67-34.54,27.67,18.46-2.42,29-12.25,37.79-28.42-13.42,32.17-42.85,34.43-42.85,34.43,22.08-1.52,36.27-15.68,45.94-34.85-10.83,32.25-39.11,40.48-41.2,41,24.49-6.27,35.88-19.92,43.86-40.88-4.08,22.42-22.08,38.17-22.08,38.17,15.79-11.11,23.24-29.86,24.58-38-1.85,26.42-24.4,46.31-24.4,46.31,20.61-14.18,25.77-36.1,27.09-46.31,1.08,19.58-12,37.33-12,37.33,11.33-10.67,14.92-28.33,14.5-36.67,2.83,23.83-14.5,45.64-14.5,45.64,14.49-13.93,17.61-34.73,17-45.14,2.91,16-4.65,35.58-4.65,35.58,6.85-11.24,8.49-27.91,7.9-35.17,3.88,21.8-7.18,40.42-7.18,40.42,9.57-10.07,11-31.53,9.93-39.51,4.39,16.82-2,34.35-2,34.35,6.94-11.66,6.31-28.19,4.83-33.43,6.18,14.48.4,29.25.4,29.25,5.54-8.94,4.3-23.32,3.08-27.79 l 0,0 c 2.77,5.55,3.3,13.72,1.83,21.92 a 34.76,34.76,0,0,0,1.32-20.49 c 3.56,7.43,2,18.68,2,18.68,2.17-7,1.53-14.37.23-17.57 l 1.3.72 C 281,513.09,251,497.25,228.8,516.84Z"/>
    <path d="M 211.3,550.58 l -.14,0Z"/>
    <path d="M 377.45,527.33 c 6.66,2.08,21.1,4.7,41.18-2.21,0,0-21.62,5.18-38.06,0,10.4,1.64,30,1.27,53.47-15.7,0,0-23.13,15.08-48.32,12.43,7.68-.83,18.16-3.88,30.44-12.43,0,0-21.4,11.68-39.35,8.68,11.24-.38,35.28-4.68,52.45-32.25,0,0-20,30.55-55.89,27.83 a 56.82,56.82,0,0,0,37.09-19.51 S 391,511,369.7,510.2 c 9.43-1.62,36.56-9.11,48.3-42.56,0,0-14.8,33.58-47.61,38.65,8-2.49,22.13-9.18,31.28-26.63,0,0-12.23,17.35-30,23.12,10.66-6.66,27.83-21.93,29.2-51.63,0,0-4.73,40.63-38.16,51.44 a 51.49,51.49,0,0,0,25.83-35 s -8.42,21.44-25.46,31.5 c 8-7.25,21.87-24.45,18.52-54,0,0,1.3,36.7-24.65,54.28,3.76-4.62,12.53-17.09,13.86-34.09,0,0-3.27,19.54-18.07,33 a 58.73,58.73,0,0,0,8.2-49.76 s 6.81,30-14.67,50 h -.11 c 2.43-3.76,9.29-16.86,3.37-37.7,0,0,4.28,23.4-7.6,37.67 l -.41,0 c 1.4-3.93,6.71-21.63-4.16-39.71,0,0,10.8,26.74-2.86,41.51-.5.2-1,.4-1.49.63,2.24-6.22,2.31-16-1.19-23.66 A 37.86,37.86,0,0,1,327.8,504q-1,.74-2,1.57 c 1.68-4.35,3.9-14.31-3.6-27,0,0,7.28,15.48-.86,31.63 a 29.12,29.12,0,0,0-4.07,6.89,45.13,45.13,0,0,1,10.14-9.38,21.31,21.31,0,0,0,4.71,30.82,49.14,49.14,0,0,1-8.69-3.1,19.35,19.35,0,0,0,7.28,4.65,14.56,14.56,0,0,1,4.12,5.21,14.33,14.33,0,0,0-1-4.19,37,37,0,0,0,3.85.79,11.58,11.58,0,0,1,4,4.94,10.73,10.73,0,0,0-1-4.59 c 1,.08,2,.12,2.91.13,1.39.94,3.54,2.63,4.14,4.46 a 9.44,9.44,0,0,0-1.62-4.49 c 1,0,1.91-.12,2.77-.22 a 13.76,13.76,0,0,1,3.93,3.48,13.89,13.89,0,0,0-1.16-4 c .66-.15,1.35-.35,2.06-.57 a 14,14,0,0,1,5.88,5.15 s -1.11-4.18-3-6.17 c .81-.32,1.64-.68,2.48-1.07,1.71.84,4.6,2.42,5.76,4 a 10.44,10.44,0,0,0-3.3-5.22 c .82-.43,1.64-.9,2.45-1.38 a 21.39,21.39,0,0,1,5.78,3.52,10.37,10.37,0,0,0-3.62-4.88 c .84-.56,1.66-1.15,2.46-1.76,1.67.47,4.77,1.51,6.4,3.26,0,0-1.28-3.81-4.29-5,.53-.46,1-.93,1.52-1.4,1.69.25,5.76,1.11,8.16,3.75 a 9.25,9.25,0,0,0-1.94-2.8 c 9,3.55,28.38,8.38,52.95-2.13 C 431.41,529,401.63,539.48,377.45,527.33Z m -5.51.41 a 42.67,42.67,0,0,1-13.34,8.91 A 21.24,21.24,0,0,0,364,513,43.16,43.16,0,0,1,371.94,527.73Z m -46.37-6.82 A 18.62,18.62,0,0,1,344,502.32 a 22.68,22.68,0,0,1,4.26.47,18.6,18.6,0,1,1-22.75,18.13Z"/>
    <circle cx="340.11" cy="516.08" r="9.14"/>
  </g>
  <g id="misc-objects">
    <circle cx="349" cy="525.75" r="7.4" fill="#fff"/>
    <circle cx="336.72" cy="512.65" r="2.72" fill="#fff"/>
  </g>
<script type="text/ecmascript" xlink:href="param.min.js"/> 
</svg>
