<?xml version="1.0"?>
<svg xmlns="http://www.w3.org/2000/svg" xmlns:xlink="http://www.w3.org/1999/xlink" id="Layer_1" data-name="Layer 1" viewBox="0 0 600 1032.36">
  <title>ES011</title>
  <g id="outline">
    <path d="M 284.16,517.79 c -.74-6.18-16.69-25-42.19-19.81,0,0,23.56-3,38.16,15.58-12.86-11.92-26.89-10-26.89-10 a 49.3,49.3,0,0,1,25.11,9.9 c -10.55-5.79-32.36-11.83-49.55,3.32-21.91,9.8-45.09-7.93-45.09-7.93,17.4,16.32,40.11,15.71,50,6.54-16.92,15.83-46.58,4.42-46.58,4.42,26.33,11.87,42.87,3.47,51.25-6.5-15.08,21.64-54,15.25-54,15.25,28.51,7.34,47.63-2.83,58.21-16.5-13.25,21-39.46,23.38-39.46,23.38,20.87-1.11,35.29-11.71,43-24.79-10.17,22.92-34.54,27.67-34.54,27.67,18.46-2.42,29-12.25,37.79-28.42-13.42,32.17-42.85,34.43-42.85,34.43,22.08-1.52,36.27-15.68,45.94-34.85-10.83,32.25-39.11,40.48-41.2,41,24.49-6.27,35.88-19.92,43.86-40.88-4.08,22.42-22.08,38.17-22.08,38.17,15.79-11.11,23.24-29.86,24.58-38-1.85,26.42-24.4,46.31-24.4,46.31,20.61-14.18,25.77-36.1,27.09-46.31,1.08,19.58-12,37.33-12,37.33,11.33-10.67,14.92-28.33,14.5-36.67,2.83,23.83-14.5,45.64-14.5,45.64,14.49-13.93,17.61-34.73,17-45.14,2.91,16-4.65,35.58-4.65,35.58,6.85-11.24,8.49-27.91,7.9-35.17,3.88,21.8-7.18,40.42-7.18,40.42,9.57-10.07,11-31.53,9.93-39.51,4.39,16.82-2,34.35-2,34.35,6.94-11.66,6.31-28.19,4.83-33.43,6.18,14.48.4,29.25.4,29.25,5.54-8.94,4.3-23.32,3.08-27.79 h 0 c 2.77,5.55,3.3,13.72,1.83,21.92 a 34.76,34.76,0,0,0,1.32-20.49 c 3.56,7.43,2,18.68,2,18.68,2.17-7,1.53-14.37.23-17.57 l 1.3.72 S 284.22,517.87,284.16,517.79Z"/>
    <path d="M 361.59,513.36 c 8.38,10,24.91,18.37,51.25,6.5,0,0-29.67,11.42-46.58-4.42,9.92,9.17,32.64,9.78,50-6.54,0,0-23.18,17.73-45.09,7.93-17.19-15.15-39-9.11-49.55-3.32 a 49.3,49.3,0,0,1,25.11-9.9 s -14-2-26.89,9.95 C 334.46,495,358,498,358,498 c -25.49-5.18-41.45,13.63-42.19,19.81 l -.18.22,1.3-.72 c -1.3,3.19-1.94,10.57.23,17.57,0,0-1.57-11.25,2-18.68 a 34.76,34.76,0,0,0,1.32,20.49 c -1.47-8.2-.94-16.37,1.83-21.92 h 0 c -1.23,4.47-2.46,18.86,3.08,27.79,0,0-5.78-14.77.4-29.25-1.48,5.24-2.12,21.78,4.83,33.43,0,0-6.38-17.53-2-34.35-1.1,8,.35,29.44,9.93,39.51,0,0-11.06-18.62-7.18-40.42-.59,7.26,1.06,23.92,7.9,35.17,0,0-7.56-19.56-4.65-35.58-.61,10.41,2.51,31.21,17,45.14,0,0-17.33-21.81-14.5-45.64-.42,8.33,3.17,26,14.5,36.67,0,0-13.11-17.75-12-37.33,1.33,10.21,6.48,32.13,27.09,46.31,0,0-22.55-19.89-24.4-46.31,1.34,8.14,8.79,26.89,24.58,38,0,0-18-15.75-22.08-38.17,8,21,19.38,34.61,43.86,40.88-2.09-.57-30.37-8.79-41.2-41,9.67,19.17,23.85,33.33,45.94,34.85,0,0-29.44-2.27-42.85-34.43,8.75,16.17,19.33,26,37.79,28.42,0,0-24.37-4.75-34.54-27.67,7.75,13.08,22.17,23.68,43,24.79,0,0-26.21-2.37-39.46-23.37,10.58,13.67,29.7,23.84,58.21,16.5 C 415.63,528.61,376.68,535,361.59,513.36Z"/>
  </g>
<script type="text/ecmascript" xlink:href="param.min.js"/> 
</svg>
