<?xml version="1.0"?>
<svg xmlns="http://www.w3.org/2000/svg" xmlns:xlink="http://www.w3.org/1999/xlink" id="Layer_1" data-name="Layer 1" viewBox="0 0 600 1032.4">
  <title>ES013</title>
  <g id="main-colour">
    <circle cx="344.6" cy="520.9" r="20.6" fill="param(main_colour)"/>
    <circle cx="255.8" cy="520.9" r="20.6" fill="param(main_colour)"/>
  </g>
  <g id="fixed-colours">
    <path d="M 323.9,535.4 a 38.44,38.44,0,0,0,18.3,5.9,20.58,20.58,0,0,1-10.7-36.4,31,31,0,0,0-4.7,2.6 c -2.8,2-8.1,7.7-9,9.6 C 315.9,520,314.4,529.6,323.9,535.4Z" fill="#fff"/>
    <path d="M 344.9,541.5 h .7 c 9.4.1,23.3-8.3,28-13.3,0,0-3.2-10.6-9.9-17.7 a 30.79,30.79,0,0,0-4.3-3.8,20.3,20.3,0,0,1,5.7,14.2 A 20.68,20.68,0,0,1,344.9,541.5Z" fill="#fff"/>
    <path d="M 241.8,506.1 a 29.15,29.15,0,0,0-5,4.3 c -6.7,7.1-9.9,17.7-9.9,17.7,3.9,4.1,14.1,10.7,22.9,12.7 a 20.71,20.71,0,0,1-14.5-19.7 A 20.35,20.35,0,0,1,241.8,506.1Z" fill="#fff"/>
    <path d="M 261.3,541 a 36.8,36.8,0,0,0,15.3-5.6 c 9.5-5.9,8-15.4,6.2-18.3-.9-1.8-6.1-7.6-9-9.6 a 30.09,30.09,0,0,0-5.9-3.1,20.58,20.58,0,0,1-6.6,36.6Z" fill="#fff"/>
  </g>
  <g id="outline">
    <path d="M 321.9,510.3 a 30,30,0,0,0-4.1,6.9,47.43,47.43,0,0,1,10.1-9.4 L 327,509 a 21.34,21.34,0,0,0,5.6,29.6,52.94,52.94,0,0,1-8.7-3.1,18.76,18.76,0,0,0,7.3,4.7,13.76,13.76,0,0,1,4.1,5.2,15.15,15.15,0,0,0-1-4.2 c 1.3.3,2.6.6,3.9.8 a 11.18,11.18,0,0,1,4,4.9,10.3,10.3,0,0,0-1-4.6 c 1,.1,2,.1,2.9.1,1.4,1,3.5,2.6,4.1,4.5 a 9.06,9.06,0,0,0-1.6-4.5,24.57,24.57,0,0,0,2.8-.2,13.1,13.1,0,0,1,3.9,3.5,14.19,14.19,0,0,0-1.2-4 c .7-.2,1.3-.4,2.1-.6 a 14.07,14.07,0,0,1,5.9,5.2 s -1.1-4.2-3-6.2 c .8-.3,1.6-.7,2.5-1.1,1.8.8,4.6,2.4,5.8,4 a 9.94,9.94,0,0,0-3.3-5.2 c .8-.4,1.6-.9,2.5-1.4 a 21.37,21.37,0,0,1,5.8,3.5,10.5,10.5,0,0,0-3.6-4.9 c .8-.6,1.7-1.2,2.5-1.8,1.7.5,4.8,1.5,6.4,3.3,0,0-1.3-3.8-4.3-5,.5-.5,1-.9,1.5-1.4,1.7.2,5.8,1.1,8.2,3.8 a 10.65,10.65,0,0,0-1.9-2.8 c 9,3.6,28.4,8.4,53-2.1,0,0-29.8,10.5-54-1.6,6.7,2.1,21.1,4.7,41.2-2.2,0,0-21.6,5.2-38.1,0,10.4,1.6,30,1.3,53.5-15.7,0,0-23.1,15.1-48.3,12.4,7.7-.8,18.1-3.9,30.4-12.4,0,0-21.4,11.7-39.4,8.7,11.2-.4,35.3-4.7,52.5-32.3,0,0-20,30.5-55.9,27.8 a 56.56,56.56,0,0,0,37.1-19.5 s -19.4,16.8-40.8,16.1 c 9.4-1.6,36.6-9.1,48.3-42.6,0,0-14.8,33.6-47.6,38.6,8-2.5,22.1-9.2,31.3-26.6,0,0-12.3,17.4-30,23.1,10.6-6.6,27.8-21.9,29.2-51.6,0,0-4.7,40.6-38.2,51.4 a 51.34,51.34,0,0,0,25.8-35 s -8.5,21.4-25.5,31.5 c 8-7.2,21.9-24.5,18.5-54,0,0,1.3,36.7-24.6,54.3 a 63.86,63.86,0,0,0,13.9-34.1 s -3.3,19.6-18.1,33 a 58.69,58.69,0,0,0,8.2-49.8 s 6.8,30-14.7,50 h -.1 c 2.4-3.8,9.3-16.9,3.4-37.7,0,0,4.3,23.4-7.6,37.7 H 342 a 47.69,47.69,0,0,0-4.2-39.7 s 10.8,26.7-2.9,41.5 l -1.5.6 a 34.37,34.37,0,0,0-1.2-23.7,37.69,37.69,0,0,1-4.1,26.7 c -.7.5-1.3,1-2,1.6,1.7-4.3,3.9-14.3-3.6-27 C 322.6,478.6,329.9,494.1,321.9,510.3Z m 50.5,17.5 a 41.86,41.86,0,0,1-13.4,8.9,21.28,21.28,0,0,0,5.4-23.7 A 41.05,41.05,0,0,1,372.4,527.8Z m -27.8,11.8 a 18.6,18.6,0,0,1-.2-37.2 h 1.3 a 25.36,25.36,0,0,1,2.9.4,20.63,20.63,0,0,1,3.5,1.2,10.46,10.46,0,0,0-6.3.5,11.17,11.17,0,1,0,14.4,6.5,18.77,18.77,0,0,1,2.9,10,18.54,18.54,0,0,1-18.5,18.6Z"/>
    <path d="M 168.6,528.9 c 24.6,10.5,44,5.7,53,2.1 a 8.69,8.69,0,0,0-1.9,2.8 c 2.4-2.6,6.5-3.5,8.2-3.8.5.5,1,.9,1.5,1.4-3,1.2-4.3,5-4.3,5,1.6-1.8,4.7-2.8,6.4-3.3.8.6,1.6,1.2,2.5,1.8 a 9.87,9.87,0,0,0-3.6,4.9,19.13,19.13,0,0,1,5.8-3.5,20.13,20.13,0,0,0,2.5,1.4,10.35,10.35,0,0,0-3.3,5.2 c 1.2-1.6,4.1-3.2,5.8-4 a 27.17,27.17,0,0,0,2.5,1.1 c -1.9,2-3,6.2-3,6.2 a 14.87,14.87,0,0,1,5.9-5.2 l 2.1.6 a 14.19,14.19,0,0,0-1.2,4,14.44,14.44,0,0,1,3.9-3.5,24.59,24.59,0,0,0,2.8.2,9.06,9.06,0,0,0-1.6,4.5 c .6-1.8,2.8-3.5,4.1-4.5.9,0,1.9,0,2.9-.1 a 10.3,10.3,0,0,0-1,4.6,10.65,10.65,0,0,1,4-4.9 c 1.3-.2,2.6-.5,3.9-.8 a 15.15,15.15,0,0,0-1,4.2,16,16,0,0,1,4.1-5.2,20.34,20.34,0,0,0,7.3-4.7,52.94,52.94,0,0,1-8.7,3.1 l 1.2-.9 a 21.3,21.3,0,0,0,3.5-29.9,45.17,45.17,0,0,1,10.1,9.4,26.79,26.79,0,0,0-4.1-6.9 c -8.1-16.1-.9-31.6-.9-31.6-7.5,12.7-5.3,22.6-3.6,27-.7-.6-1.3-1.1-2-1.6 a 37.65,37.65,0,0,1-4-26.7,34.35,34.35,0,0,0-1.2,23.7 l -1.5-.6 c -13.7-14.8-2.9-41.5-2.9-41.5 a 47.69,47.69,0,0,0-4.2,39.7 h -.4 c -11.9-14.3-7.6-37.7-7.6-37.7-5.9,20.8.9,33.9,3.4,37.7 h -.1 c -21.5-20-14.7-50-14.7-50 a 58.69,58.69,0,0,0,8.2,49.8 c -14.8-13.5-18.1-33-18.1-33,1.3,17,10.1,29.5,13.9,34.1-25.9-17.6-24.6-54.3-24.6-54.3-3.4,29.5,10.5,46.8,18.5,54-17-10.1-25.5-31.5-25.5-31.5 a 51.63,51.63,0,0,0,25.8,35 c -33.4-10.8-38.2-51.4-38.2-51.4,1.4,29.7,18.5,45,29.2,51.6-17.8-5.8-30-23.1-30-23.1 a 52.69,52.69,0,0,0,31.3,26.6 c -32.8-5.1-47.6-38.6-47.6-38.6,11.7,33.5,38.9,40.9,48.3,42.6-21.3.8-40.8-16-40.8-16 a 56.56,56.56,0,0,0,37.1,19.5 c -35.9,2.7-55.9-27.8-55.9-27.8 C 188,513.7,212,518,223.3,518.4 c -18,3-39.4-8.7-39.4-8.7,12.3,8.6,22.8,11.6,30.4,12.4-25.2,2.7-48.3-12.4-48.3-12.4,23.5,17,43.1,17.3,53.5,15.7-16.4,5.2-38.1,0-38.1,0,20.1,6.9,34.5,4.3,41.2,2.2 C 198.4,539.5,168.6,529,168.6,528.9Z m 59.5-1.2 A 44.47,44.47,0,0,1,236,513 a 21.13,21.13,0,0,0,5.4,23.6,39.87,39.87,0,0,1-13.3-8.9Z m 46.3-6.8 a 18.63,18.63,0,1,1-22.8-18.2,29.75,29.75,0,0,1,4.3-.5,19.42,19.42,0,0,1,7.5,1.6,10.46,10.46,0,0,0-6.3.5,11.17,11.17,0,1,0,14.4,6.5,19.37,19.37,0,0,1,2.9,10.1Z"/>
  </g>
  <g id="misc-objects">
    <circle cx="339.8" cy="525.8" r="7.4" fill="#fff"/>
    <circle cx="352.1" cy="512.6" r="2.7" fill="#fff"/>
    <circle cx="251" cy="525.8" r="7.4" fill="#fff"/>
    <circle cx="263.3" cy="512.6" r="2.7" fill="#fff"/>
    <path d="M 209.8,508.3 a 8.64,8.64,0,0,0,4.5,7.9 c .7,7.8,4.9,22.8,13.7,29.4,11.9,3.4,30.5,5.5,40.9,4.1 s 15.4-6.4,18.4-16.5,4.9-26.5.8-31.9 c 6.1-4.8,16.6-5.5,24.1.1-3,5.5-2.9,8.6-2.1,15.5 s 2.6,18.5,6.8,24.5,9.5,8.1,17.9,8.5,27.8-1,35.6-3.9 c 6.5-2.4,12-11.1,14.8-24.4 l .9-5.6 s 3.9-1.8,4.2-4.9.9-8.4-4.6-9.6 a 8.5,8.5,0,0,0-5.9-6,75.94,75.94,0,0,0-31.2-5.5 c -17.4.4-26.4,3.9-33.8,8.5-6.6-7.1-20-8.2-29.4.1-7.6-6.4-22.9-8.5-32.4-8.8 s -24.6,2.5-31.8,5.4 c -3.9,1.6-6.4,4.1-6.4,6.4 A 6.61,6.61,0,0,0,209.8,508.3Z m 111.3-7.2 c 3.5-1.9,15-5.6,27.8-5.6,9.1,0,23,2.6,28,11.2 s -.9,22-3.2,26.5-4,8.1-14.6,9.9-21.7,1.8-28.1.6-9.1-5.3-10.8-8.9-4-17-4.5-23 S 317.6,503,321.1,501.1Z m -90-1.1 c 8.2-4.5,20.7-5.2,32.4-3.2,16.8,2.8,19.9,6.6,21,11.1 s -1.4,16.4-2.8,21.9-2.2,13.5-18.5,14.8-26.5-2.6-31.1-4.6-9.6-16.6-10.4-22.5 S 222.9,504.5,231.1,500Z" fill="#414042"/>
    <path d="M 370.2,500.6 c 8.5,4.6,9,12.3,8.5,17 s -3.9,18.6-11,22.8-22,4.4-30.4,4.1-13.1-2.4-15.9-6.8-4.9-17.5-5.8-23.2.1-9.4,3.2-12,13.4-6.7,27.9-7.1 C 356.3,495.1,361.8,496,370.2,500.6Z" fill="#fff" opacity="0.5" style="isolation:isolate"/>
    <path d="M 230.2,500.6 c -8.5,4.6-9,12.3-8.5,17 s 3.9,18.6,11,22.8,22,4.4,30.4,4.1,13.1-2.4,15.9-6.8,4.9-17.5,5.8-23.2-.1-9.4-3.2-12-13.4-6.7-27.9-7.1 C 244.2,495.1,238.7,496,230.2,500.6Z" fill="#fff" opacity="0.5" style="isolation:isolate"/>
    <path d="M 314.5,512.9 c .6,5.8,3,19,5.4,23.6,2.6,5.1,7.4,7.8,14.9,8.4,2.8.2,5.8.4,8.9.4 a 65,65,0,0,0,23.5-4.1 c 4.3-1.9,7.7-7,10.5-15.4,3.9-11.7,2.2-20-5.1-25.2-7.4-5.4-17.5-6.2-22.8-6.2-15.8,0-25.4,3.8-28,5 C 316.3,501.8,313.9,506.4,314.5,512.9Z m 2.1-.2 c -.6-5.7,1.3-9.4,5.9-11.5,2.5-1.1,11.8-4.8,27.2-4.8,5.1,0,14.7.8,21.7,5.8,6.6,4.8,8,12.1,4.4,23-2.6,7.9-5.6,12.5-9.3,14.2-11.6,4.4-22.4,4.3-31.4,3.5-6.9-.6-11-2.8-13.3-7.3-2.3-4.3-4.6-17.4-5.2-22.9Z"/>
    <path d="M 222.8,525.9 c 2.8,8.4,6.2,13.4,10.4,15.3 a 65,65,0,0,0,23.5,4.1 c 3.1,0,6-.2,8.8-.4,7.5-.6,12.3-3.3,14.9-8.4,2.4-4.6,4.7-17.8,5.4-23.6.7-6.5-1.7-11.1-7.1-13.5-2.5-1.2-12.2-5-28-5-5.3,0-15.4.8-22.8,6.2 S 219,514.2,222.8,525.9Z m 1.9-.6 c -3.6-10.9-2.2-18.3,4.4-23,7-5.1,16.6-5.8,21.7-5.8,15.4,0,24.7,3.7,27.2,4.8,4.7,2.1,6.5,5.8,5.9,11.5-.6,5.5-2.9,18.6-5.1,22.9-2.3,4.5-6.4,6.8-13.3,7.3-9,.7-19.8.9-31.4-3.6-3.8-1.7-6.8-6.3-9.4-14.1Z"/>
    <path d="M 210.3,513.8 a 14.75,14.75,0,0,0,3.2,2.9,45.83,45.83,0,0,0,1.3,7.4 l .1.4 c 2.4,8.8,5.8,20.9,19.5,23.7 a 153,153,0,0,0,27.8,2.6 c 2.6,0,4.7-.1,6-.2,5-.4,11.4-1.7,16.2-8.5,5.3-7.5,7.1-26.7,7.3-28.9 a 18.82,18.82,0,0,0-2.4-11.6,20.75,20.75,0,0,1,10.8-3.3,20.52,20.52,0,0,1,10.7,3.4,19.22,19.22,0,0,0-2.4,11.5 c .2,2.2,2,21.3,7.3,28.9,4.9,6.8,11.2,8.1,16.2,8.5,1.4.1,3.4.2,6,.2 a 144.59,144.59,0,0,0,27.8-2.6 c 13.8-2.8,17.1-14.9,19.6-23.7 l .1-.4 a 37,37,0,0,0,1.3-7.4,14.75,14.75,0,0,0,3.2-2.9 c 1.8-2.4,1.2-7.1.8-8.9-.6-3.1-3.5-4-4.8-4.2-.1-.2-.1-.4-.2-.5-1.3-3.5-4.3-5.2-9.1-6.9 a 88.87,88.87,0,0,0-28.5-4.4 c -12,0-25.9,3.3-32.4,7.6 a 10.48,10.48,0,0,0-1.1.8 c -1.6-1.6-6.3-5.4-14.7-5.4 a 21.27,21.27,0,0,0-14.8,5.3,8.74,8.74,0,0,0-1-.8 c -6.5-4.4-20.4-7.6-32.4-7.6 a 88.87,88.87,0,0,0-28.5,4.4 c -4.8,1.7-7.8,3.4-9.1,6.9-.1.2-.1.3-.2.5 a 5.72,5.72,0,0,0-4.8,4.2 C 209.1,506.8,208.4,511.4,210.3,513.8Z m 178.3-1.2 a 19.2,19.2,0,0,1-1.4,1.5,52.57,52.57,0,0,0-.5-11.2,3.29,3.29,0,0,1,2.3,2.4 c .7,3.3.5,6.1-.4,7.3Z m -78,.6 c -.6-6.6,1.6-11.7,6.5-15,6.1-4.1,19.9-7.3,31.3-7.3 a 87.74,87.74,0,0,1,27.8,4.3 c 4.4,1.5,6.9,2.9,7.9,5.6 s 2,13.8-.5,22.8 l -.1.4 c -2.4,8.8-5.4,19.7-18,22.3 a 142.12,142.12,0,0,1-33.2,2.4 c -4.6-.4-10.4-1.6-14.8-7.7-4.1-5.7-6.3-20.2-6.9-27.8Z m -10.3-16.8 a 23.49,23.49,0,0,0-12,3.7,17.38,17.38,0,0,0-1.3-1.5,19.88,19.88,0,0,1,13.2-4.6 c 7.4,0,11.7,3.3,13.2,4.7 a 17.38,17.38,0,0,0-1.3,1.5,21,21,0,0,0-11.8-3.8Z m -83.5,27.3 c -2.5-9-1.6-20.1-.6-22.9 s 3.5-4.1,7.9-5.6 a 87.74,87.74,0,0,1,27.8-4.3 c 11.5,0,25.2,3.2,31.3,7.3,4.9,3.3,7.1,8.4,6.5,15-.6,7.7-2.8,22.1-6.9,27.9-4.4,6.2-10.2,7.4-14.8,7.7 a 142.12,142.12,0,0,1-33.2-2.4 c -12.5-2.6-15.6-13.5-18-22.3v-.4Z m -4.9-11.1 c -.9-1.2-1.1-4.1-.5-7.3 a 3.29,3.29,0,0,1,2.3-2.4,59.66,59.66,0,0,0-.5,11.2,6.39,6.39,0,0,1-1.3-1.5Z"/>
  </g>
<script type="text/ecmascript" xlink:href="param.min.js"/> 
</svg>
