<?xml version="1.0"?>
<svg xmlns="http://www.w3.org/2000/svg" xmlns:xlink="http://www.w3.org/1999/xlink" viewBox="0 0 600 1032.36">
  <title>ES015</title>
  <g id="main-colour">
    <circle cx="255.37" cy="520.86" r="20.59" fill="param(main_colour)"/>
    <circle cx="344.17" cy="520.86" r="20.59" fill="param(main_colour)"/>
  </g>
  <g id="fixed-colours">
    <path d="M 282.29,517.1 c -.92-1.85-6.16-7.55-9-9.55 a 32.35,32.35,0,0,0-4.72-2.64,20.6,20.6,0,0,1-10.76,36.4,38.86,38.86,0,0,0,18.32-5.87 C 285.64,529.59,284.14,520,282.29,517.1Z" fill="#fff"/>
    <path d="M 234.88,520.84 a 20.52,20.52,0,0,1,5.74-14.24,31.11,31.11,0,0,0-4.32,3.8 c -6.7,7.09-9.94,17.72-9.94,17.72,4.7,5,18.57,13.42,28,13.33 l .72,0 A 20.6,20.6,0,0,1,234.88,520.84Z" fill="#fff"/>
    <path d="M 364.75,521.12 a 20.62,20.62,0,0,1-14.45,19.68 c 8.77-2,19-8.52,22.87-12.67,0,0-3.24-10.63-9.94-17.72 a 30.75,30.75,0,0,0-5-4.27 A 20.54,20.54,0,0,1,364.75,521.12Z" fill="#fff"/>
    <path d="M 323.52,521.12 a 20.57,20.57,0,0,1,8.59-16.72,34.43,34.43,0,0,0-5.86,3.15 c -2.85,2-8.09,7.7-9,9.55-1.85,2.93-3.35,12.49,6.16,18.34 A 38.47,38.47,0,0,0,338.73,541,20.61,20.61,0,0,1,323.52,521.12Z" fill="#fff"/>
  </g>
  <g id="outline">
    <path d="M 277.36,478.58 c -7.5,12.73-5.28,22.68-3.6,27q-1-.83-2-1.57 a 37.86,37.86,0,0,1-4.07-26.69 c -3.5,7.7-3.43,17.43-1.19,23.66-.5-.23-1-.44-1.49-.63-13.66-14.78-2.86-41.51-2.86-41.51-10.87,18.08-5.56,35.78-4.16,39.71 l -.41,0 c -11.89-14.28-7.6-37.67-7.6-37.67-5.92,20.85.95,33.95,3.37,37.7 h -.11 c -21.48-20-14.67-50-14.67-50 a 58.73,58.73,0,0,0,8.2,49.76 c -14.8-13.43-18.07-33-18.07-33,1.33,17,10.1,29.47,13.86,34.09-25.95-17.57-24.65-54.28-24.65-54.28-3.35,29.55,10.57,46.75,18.52,54-17-10.06-25.46-31.5-25.46-31.5 a 51.49,51.49,0,0,0,25.83,35 c -33.43-10.82-38.16-51.44-38.16-51.44,1.37,29.7,18.55,45,29.2,51.63-17.74-5.77-30-23.12-30-23.12,9.15,17.46,23.24,24.14,31.28,26.63-32.81-5.07-47.61-38.65-47.61-38.65,11.74,33.45,38.87,40.94,48.3,42.56-21.32.77-40.75-16.06-40.75-16.06 a 56.82,56.82,0,0,0,37.09,19.51 c -35.88,2.72-55.89-27.83-55.89-27.83,17.16,27.58,41.21,31.87,52.45,32.25-17.95,3-39.35-8.68-39.35-8.68,12.29,8.55,22.76,11.6,30.44,12.43-25.19,2.65-48.32-12.43-48.32-12.43,23.46,17,43.07,17.34,53.47,15.7-16.44,5.2-38.06,0-38.06,0,20.07,6.91,34.52,4.29,41.18,2.21-24.19,12.15-54,1.64-54,1.64,24.56,10.51,44,5.69,52.95,2.13 a 9.25,9.25,0,0,0-1.94,2.8 c 2.4-2.64,6.47-3.5,8.16-3.75.49.48,1,.95,1.52,1.4-3,1.16-4.29,5-4.29,5,1.63-1.74,4.73-2.79,6.4-3.26.8.61,1.62,1.2,2.46,1.76 a 10.37,10.37,0,0,0-3.62,4.88,21.39,21.39,0,0,1,5.78-3.52 c .81.48,1.63.95,2.45,1.38 a 10.43,10.43,0,0,0-3.3,5.22 c 1.16-1.58,4-3.16,5.76-4,.84.39,1.67.75,2.48,1.07-1.89,2-3,6.17-3,6.17 a 14,14,0,0,1,5.88-5.15 c .71.22,1.4.42,2.06.57 a 13.89,13.89,0,0,0-1.16,4,13.76,13.76,0,0,1,3.93-3.48 c .86.1,1.79.18,2.77.22 a 9.44,9.44,0,0,0-1.62,4.49 c .61-1.83,2.75-3.51,4.14-4.46.95,0,1.92-.05,2.91-.13 a 10.73,10.73,0,0,0-1,4.59,11.58,11.58,0,0,1,4-4.94,37,37,0,0,0,3.85-.79,14.33,14.33,0,0,0-1,4.19,14.56,14.56,0,0,1,4.12-5.21,19.35,19.35,0,0,0,7.28-4.65,49.13,49.13,0,0,1-8.68,3.1,21.31,21.31,0,0,0,4.72-30.81,45.12,45.12,0,0,1,10.13,9.37,29.12,29.12,0,0,0-4.07-6.89 C 270.08,494.06,277.36,478.58,277.36,478.58Z M 235.53,513 a 21.24,21.24,0,0,0,5.41,23.66,42.67,42.67,0,0,1-13.35-8.91 A 43.16,43.16,0,0,1,235.53,513Z m 19.84,26.53 a 18.6,18.6,0,0,1-4.09-36.74,22.57,22.57,0,0,1,2.92-.41 h 0 c .43,0,.86,0,1.29-.05 a 18.62,18.62,0,0,1,17.94,14.19,11.17,11.17,0,1,0-.62,10.83 A 18.62,18.62,0,0,1,255.37,539.52Z"/>
    <path d="M 377.45,527.33 c 6.66,2.08,21.1,4.7,41.18-2.21,0,0-21.62,5.18-38.06,0,10.4,1.64,30,1.27,53.47-15.7,0,0-23.13,15.08-48.32,12.43,7.68-.83,18.16-3.88,30.44-12.43,0,0-21.4,11.68-39.35,8.68,11.24-.38,35.28-4.68,52.45-32.25,0,0-20,30.55-55.89,27.83 a 56.82,56.82,0,0,0,37.09-19.51 S 391,511,369.7,510.2 c 9.43-1.62,36.56-9.11,48.3-42.56,0,0-14.8,33.58-47.61,38.65,8-2.49,22.13-9.18,31.28-26.63,0,0-12.23,17.35-30,23.12,10.66-6.66,27.83-21.93,29.2-51.63,0,0-4.73,40.63-38.16,51.44 a 51.49,51.49,0,0,0,25.83-35 s -8.42,21.44-25.46,31.5 c 8-7.25,21.87-24.45,18.52-54,0,0,1.3,36.7-24.65,54.28,3.76-4.62,12.53-17.09,13.86-34.09,0,0-3.27,19.54-18.07,33 a 58.73,58.73,0,0,0,8.2-49.76 s 6.81,30-14.67,50 h -.11 c 2.43-3.76,9.29-16.86,3.37-37.7,0,0,4.28,23.4-7.6,37.67 l -.41,0 c 1.4-3.93,6.71-21.63-4.16-39.71,0,0,10.8,26.74-2.86,41.51-.5.2-1,.4-1.49.63,2.24-6.22,2.31-16-1.19-23.66 A 37.86,37.86,0,0,1,327.8,504q-1,.74-2,1.57 c 1.68-4.35,3.9-14.31-3.6-27,0,0,7.28,15.48-.86,31.63 a 29.12,29.12,0,0,0-4.07,6.89,45.13,45.13,0,0,1,10.14-9.38,21.31,21.31,0,0,0,4.71,30.82,49.14,49.14,0,0,1-8.69-3.1,19.35,19.35,0,0,0,7.28,4.65,14.56,14.56,0,0,1,4.12,5.21,14.33,14.33,0,0,0-1-4.19,37,37,0,0,0,3.85.79,11.58,11.58,0,0,1,4,4.94,10.73,10.73,0,0,0-1-4.59 c 1,.08,2,.12,2.91.13,1.39.94,3.54,2.63,4.14,4.46 a 9.44,9.44,0,0,0-1.62-4.49 c 1,0,1.91-.12,2.77-.22 a 13.76,13.76,0,0,1,3.93,3.48,13.89,13.89,0,0,0-1.16-4 c .66-.15,1.35-.35,2.06-.57 a 14,14,0,0,1,5.88,5.15 s -1.11-4.18-3-6.17 c .81-.32,1.64-.68,2.48-1.07,1.71.84,4.6,2.42,5.76,4 a 10.44,10.44,0,0,0-3.3-5.22 c .82-.43,1.64-.9,2.45-1.38 a 21.39,21.39,0,0,1,5.78,3.52,10.37,10.37,0,0,0-3.62-4.88 c .84-.56,1.66-1.15,2.46-1.76,1.67.47,4.77,1.51,6.4,3.26,0,0-1.28-3.81-4.29-5,.53-.46,1-.93,1.52-1.4,1.69.25,5.76,1.11,8.16,3.75 a 9.25,9.25,0,0,0-1.94-2.8 c 9,3.55,28.38,8.38,52.95-2.13 C 431.41,529,401.63,539.48,377.45,527.33Z M 364,513 a 43.16,43.16,0,0,1,7.93,14.74,42.67,42.67,0,0,1-13.34,8.91 A 21.24,21.24,0,0,0,364,513Z m -38.45,7.92 A 18.62,18.62,0,0,1,344,502.32 a 22.68,22.68,0,0,1,4.26.47 A 18.66,18.66,0,0,1,361.79,515 a 11.17,11.17,0,1,0-.74,13.7,18.59,18.59,0,0,1-35.49-7.77Z"/>
  </g>
  <g id="misc-objects">
    <circle cx="272.7" cy="527.75" r="7.4" fill="#fff"/>
    <circle cx="260.42" cy="517.86" r="2.72" fill="#fff"/>
    <circle cx="349.67" cy="517.86" r="2.72" fill="#fff"/>
    <path d="M 366.21,521.71 A 7.39,7.39,0,1,0,360.75,535 C 365.11,530.85,366.07,525.18,366.21,521.71Z" fill="#fff"/>
  </g>
<script type="text/ecmascript" xlink:href="param.min.js"/> 
</svg>
