<?xml version="1.0"?>
<svg xmlns="http://www.w3.org/2000/svg" xmlns:xlink="http://www.w3.org/1999/xlink" id="Layer_1" data-name="Layer 1" viewBox="0 0 600 1032.4">
  <title>ES019</title>
  <g id="main-colour">
    <circle cx="344.6" cy="520.9" r="20.6" fill="param(main_colour)"/>
    <circle cx="255.8" cy="520.9" r="20.6" fill="param(main_colour)"/>
  </g>
  <g id="fixed-colours">
    <path d="M 323.9,535.4 a 38.44,38.44,0,0,0,18.3,5.9,20.58,20.58,0,0,1-10.7-36.4,31,31,0,0,0-4.7,2.6 c -2.8,2-8.1,7.7-9,9.6 C 315.9,520,314.4,529.6,323.9,535.4Z" fill="#fff"/>
    <path d="M 344.9,541.5 h .7 c 9.4.1,23.3-8.3,28-13.3,0,0-3.2-10.6-9.9-17.7 a 30.79,30.79,0,0,0-4.3-3.8,20.3,20.3,0,0,1,5.7,14.2 A 20.68,20.68,0,0,1,344.9,541.5Z" fill="#fff"/>
    <path d="M 241.8,506.1 a 29.15,29.15,0,0,0-5,4.3 c -6.7,7.1-9.9,17.7-9.9,17.7,3.9,4.1,14.1,10.7,22.9,12.7 a 20.71,20.71,0,0,1-14.5-19.7 A 20.35,20.35,0,0,1,241.8,506.1Z" fill="#fff"/>
    <path d="M 261.3,541 a 36.8,36.8,0,0,0,15.3-5.6 c 9.5-5.9,8-15.4,6.2-18.3-.9-1.8-6.1-7.6-9-9.6 a 30.09,30.09,0,0,0-5.9-3.1,20.58,20.58,0,0,1-6.6,36.6Z" fill="#fff"/>
    <path d="M 377.2,406.9 c -4.8-4.5-6-2.2-7,0 s -1.5,6.7-8,14.2-13.5,11.7-25,15.3 c 22.7,6.5,35.2,28.3,35.2,28.3 C 391.6,443.7,382.1,411.4,377.2,406.9Z" fill="#d3114d"/>
    <path d="M 377.3,406.9 c -2.9-2.7-4.5-2.9-5.5-2.2.9,5,3.4,12.9,3,17-.5,5.1-.9,21.4-11,31.7 a 64.1,64.1,0,0,1,8.7,11.3 C 391.6,443.7,382.1,411.4,377.3,406.9Z" fill="#fff" opacity="0.2" style="isolation:isolate"/>
    <path d="M 223.2,406.9 c 4.8-4.5,6-2.2,7,0 s 1.5,6.7,8,14.2,13.5,11.7,25,15.3 c -22.7,6.5-35.2,28.3-35.2,28.3 C 208.9,443.7,218.3,411.4,223.2,406.9Z" fill="#d3114d"/>
    <path d="M 223.1,406.9 c 2.9-2.7,4.5-2.9,5.5-2.2-.9,5-3.4,12.9-3,17,.5,5.1.9,21.4,11,31.7 a 64.1,64.1,0,0,0-8.7,11.3 C 208.9,443.7,218.4,411.4,223.1,406.9Z" fill="#fff" opacity="0.2" style="isolation:isolate"/>
  </g>
  <g id="outline">
    <path d="M 345.2,498.4 c 16.9.8,26.1,13.8,30,29-5.9,7.4-17.2,13.2-24.4,14.5 s -20.5.5-27-6.5 c 19.5,9.1,37.6,3.1,48.5-7.7-2.7-9.5-12.4-25.3-28-25.4 s -26.7,14.8-26.7,14.8 C 323,504.5,336.2,498,345.2,498.4Z"/>
    <path d="M 325.1,508 s -2.5,2.5-6.2,6.9 c 12.5-17.7,3.7-36.4,3.7-36.4 C 332.8,495.8,325.1,508,325.1,508Z"/>
    <path d="M 332.8,502.8 c 2.9-6,3.4-17-.5-25.4 a 37.21,37.21,0,0,1-5.2,28.5 C 327.1,505.8,329.6,504.6,332.8,502.8Z"/>
    <path d="M 341.8,499.4 s -4.2,1.1-7.9,2.2 c 15.4-14.5,4-42.7,4-42.7 A 47.66,47.66,0,0,1,341.8,499.4Z"/>
    <path d="M 345.9,499.7 a 10,10,0,0,1-4.2-.3 c 12.8-14.2,8.3-38.5,8.3-38.5 C 357.1,485.8,345.9,499.7,345.9,499.7Z"/>
    <path d="M 351.6,500.5 c -2-.4-4-.6-6-.8,23-20,15.9-51.2,15.9-51.2 C 370.1,479.3,351.6,500.5,351.6,500.5Z"/>
    <path d="M 355.8,501.4 s -3.1-.9-4.5-1.4 c 16.5-13.4,20-34.7,20-34.7 A 63.47,63.47,0,0,1,355.8,501.4Z"/>
    <path d="M 358.4,503.2 a 9.88,9.88,0,0,1-3.5-2.2 c 28.7-16.8,27.3-55.9,27.3-55.9 C 386.7,486,358.4,503.2,358.4,503.2Z"/>
    <path d="M 359.9,504.2 a 10,10,0,0,1-3.1-1.9 c 21.6-7.5,32.2-34.7,32.2-34.7 C 383,495.5,359.9,504.2,359.9,504.2Z"/>
    <path d="M 363.8,507.1 a 24.19,24.19,0,0,1-4.5-3.4 c 37-8.8,42.1-52.5,42.1-52.5 C 399.4,494.4,363.8,507.1,363.8,507.1Z"/>
    <path d="M 364.7,507.7 s -2.5-1.5-3.1-3.1 c 23.3-.5,40.5-25,40.5-25 C 388.7,505.2,364.7,507.7,364.7,507.7Z"/>
    <path d="M 366.9,510.6 a 21.59,21.59,0,0,0-3.7-3.7 c 38.2-.5,55.3-39.3,55.3-39.3 C 404.1,508.5,366.9,510.6,366.9,510.6Z"/>
    <path d="M 369,513.9 c -1-1.3-1.9-2.6-2.8-4,22.8,3.3,44.7-15.7,44.7-15.7 C 392.8,515.1,369,513.9,369,513.9Z"/>
    <path d="M 371,517.9 a 32.2,32.2,0,0,0-3.8-5.1 c 40.1,7.4,62.6-27,62.6-27 C 406.6,523,371,517.9,371,517.9Z"/>
    <path d="M 372.3,520.8 a 32.94,32.94,0,0,0-2.9-5.2 c 18.8,9.4,47.3-6.2,47.3-6.2 C 390.3,527.7,372.3,520.8,372.3,520.8Z"/>
    <path d="M 373,523 c -.8-.5-.6-2.8-2-5.1,30.2,13.3,63.5-8.5,63.5-8.5 C 400,534.4,373.8,523.4,373,523Z"/>
    <path d="M 373.8,525.7 s -.6-2-1.5-4.9 c 16,11.7,46.8,4.3,46.8,4.3 C 390.9,534.8,373.8,525.7,373.8,525.7Z"/>
    <path d="M 373.5,528.5 a 22.85,22.85,0,0,0,0-3.7 c 24.8,16,58.4,4.2,58.4,4.2 C 397.7,543.6,373.5,528.5,373.5,528.5Z"/>
    <path d="M 373.6,527.4 s 5.6,2.5,7.2,6.5 c -3.1-3.4-8.9-3.8-8.9-3.8Z"/>
    <path d="M 367.9,533 a 22.7,22.7,0,0,0,2.3-1.7 c 3.7.6,5.2,5.2,5.2,5.2 C 373.2,534,367.9,533,367.9,533Z"/>
    <path d="M 363.3,535.9 a 7.9,7.9,0,0,1,2.3-1.4 c 3.2,1.2,4.6,5.4,4.6,5.4 C 368.1,537.8,363.3,535.9,363.3,535.9Z"/>
    <path d="M 358.2,538.4 a 12.29,12.29,0,0,0,2.5-1.4 c 3.5,1.5,4.6,6,4.6,6 C 363.6,540.7,358.2,538.4,358.2,538.4Z"/>
    <path d="M 353,540.5 c 1.1-.3,2.3-.7,3.4-1.1,2.3,1.5,3.7,6.8,3.7,6.8 C 357.9,542.4,353,540.5,353,540.5Z"/>
    <path d="M 348.2,541.5 a 20.93,20.93,0,0,0,3.4-.8,12.47,12.47,0,0,1,1.7,4.9 C 351.8,543.3,348.2,541.5,348.2,541.5Z"/>
    <path d="M 342.8,541.6 a 25.06,25.06,0,0,0,2.8-.2 c 2.3,1.4,2.6,5.4,2.6,5.4 C 347.3,544.1,342.8,541.6,342.8,541.6Z"/>
    <path d="M 337.3,541.3 a 9.82,9.82,0,0,0,3.4.3 c 1.5,1.5,1.5,5.2,1.5,5.2 C 341,543.5,337.3,541.3,337.3,541.3Z"/>
    <path d="M 335.3,545.3 a 12.94,12.94,0,0,0-1.4-5.1,29,29,0,0,1-5.2-1.8 A 15.22,15.22,0,0,1,335.3,545.3Z"/>
    <path d="M 323.2,520.9 a 21.4,21.4,0,1,1,21.4,21.4 A 21.42,21.42,0,0,1,323.2,520.9Z m 21.4-18.6 a 18.6,18.6,0,1,0,18.6,18.6,18.56,18.56,0,0,0-18.6-18.6Z"/>
    <circle cx="349.9" cy="514.9" r="11.2"/>
    <path d="M 255.3,498.4 c -16.9.8-26.1,13.8-30,29,5.9,7.4,17.2,13.2,24.4,14.5 s 20.5.5,27-6.5 c -19.5,9.1-37.6,3.1-48.5-7.7,2.7-9.5,12.4-25.3,28-25.4 s 26.7,14.8,26.7,14.8 C 277.5,504.5,264.3,498,255.3,498.4Z"/>
    <path d="M 275.4,508 s 2.5,2.5,6.2,6.9 c -12.5-17.7-3.7-36.4-3.7-36.4 C 267.7,495.8,275.4,508,275.4,508Z"/>
    <path d="M 267.7,502.8 c -2.9-6-3.4-17,.5-25.4 a 37.21,37.21,0,0,0,5.2,28.5 C 273.4,505.8,270.9,504.6,267.7,502.8Z"/>
    <path d="M 258.7,499.4 s 4.2,1.1,7.9,2.2 c -15.4-14.5-4-42.7-4-42.7 A 47.66,47.66,0,0,0,258.7,499.4Z"/>
    <path d="M 254.6,499.7 a 10,10,0,0,0,4.2-.3 c -12.8-14.2-8.3-38.5-8.3-38.5 C 243.3,485.8,254.6,499.7,254.6,499.7Z"/>
    <path d="M 248.9,500.5 c 2-.4,4-.6,6-.8-23-20-15.9-51.2-15.9-51.2 C 230.4,479.3,248.9,500.5,248.9,500.5Z"/>
    <path d="M 244.7,501.4 s 3.1-.9,4.5-1.4 c -16.5-13.4-20-34.7-20-34.7 C 230.8,487.1,244.7,501.4,244.7,501.4Z"/>
    <path d="M 242.1,503.2 a 9.88,9.88,0,0,0,3.5-2.2 c -28.7-16.8-27.3-55.9-27.3-55.9 C 213.7,486,242.1,503.2,242.1,503.2Z"/>
    <path d="M 240.5,504.2 a 10,10,0,0,0,3.1-1.9 c -21.6-7.5-32.2-34.7-32.2-34.7 C 217.4,495.5,240.5,504.2,240.5,504.2Z"/>
    <path d="M 236.7,507.1 a 24.19,24.19,0,0,0,4.5-3.4 c -37-8.8-42.1-52.5-42.1-52.5 C 201.1,494.4,236.7,507.1,236.7,507.1Z"/>
    <path d="M 235.8,507.7 s 2.5-1.5,3.1-3.1 c -23.3-.5-40.5-25-40.5-25 C 211.7,505.2,235.8,507.7,235.8,507.7Z"/>
    <path d="M 233.6,510.6 a 21.59,21.59,0,0,1,3.7-3.7 c -38.2-.5-55.3-39.3-55.3-39.3 C 196.3,508.5,233.6,510.6,233.6,510.6Z"/>
    <path d="M 231.5,513.9 c 1-1.3,1.9-2.6,2.8-4-22.8,3.3-44.7-15.7-44.7-15.7 C 207.7,515.1,231.5,513.9,231.5,513.9Z"/>
    <path d="M 229.4,517.9 a 27.58,27.58,0,0,1,3.9-5.1 c -40.1,7.4-62.6-27-62.6-27 C 193.9,523,229.4,517.9,229.4,517.9Z"/>
    <path d="M 228.2,520.8 a 33,33,0,0,1,2.9-5.2 c -18.8,9.4-47.3-6.2-47.3-6.2 C 210.2,527.7,228.2,520.8,228.2,520.8Z"/>
    <path d="M 227.5,523 c .8-.5.6-2.8,2-5.1-30.2,13.3-63.5-8.5-63.5-8.5 C 200.5,534.4,226.7,523.4,227.5,523Z"/>
    <path d="M 226.7,525.7 s .6-2,1.5-4.9 c -16,11.7-46.8,4.3-46.8,4.3 C 209.6,534.8,226.7,525.7,226.7,525.7Z"/>
    <path d="M 227,528.5 a 22.85,22.85,0,0,1,0-3.7 c -24.8,16-58.4,4.2-58.4,4.2 C 202.8,543.6,227,528.5,227,528.5Z"/>
    <path d="M 226.8,527.4 s -5.5,2.5-7.2,6.5 c 3.1-3.4,8.9-3.8,8.9-3.8Z"/>
    <path d="M 232.5,533 a 22.7,22.7,0,0,1-2.3-1.7 c -3.7.6-5.2,5.2-5.2,5.2 C 227.3,534,232.5,533,232.5,533Z"/>
    <path d="M 237.1,535.9 a 7.9,7.9,0,0,0-2.3-1.4 c -3.2,1.2-4.6,5.4-4.6,5.4 C 232.4,537.8,237.1,535.9,237.1,535.9Z"/>
    <path d="M 242.2,538.4 a 12.29,12.29,0,0,1-2.5-1.4 c -3.5,1.5-4.6,6-4.6,6 C 236.9,540.7,242.2,538.4,242.2,538.4Z"/>
    <path d="M 247.5,540.5 c -1.1-.3-2.3-.7-3.4-1.1-2.3,1.5-3.7,6.8-3.7,6.8 C 242.5,542.4,247.5,540.5,247.5,540.5Z"/>
    <path d="M 252.3,541.5 a 20.93,20.93,0,0,1-3.4-.8,12.47,12.47,0,0,0-1.7,4.9 C 248.7,543.3,252.3,541.5,252.3,541.5Z"/>
    <path d="M 257.6,541.6 a 25.06,25.06,0,0,1-2.8-.2 c -2.3,1.4-2.6,5.4-2.6,5.4 C 253.2,544.1,257.6,541.6,257.6,541.6Z"/>
    <path d="M 263.2,541.3 a 9.82,9.82,0,0,1-3.4.3 c -1.5,1.5-1.5,5.2-1.5,5.2 C 259.5,543.5,263.2,541.3,263.2,541.3Z"/>
    <path d="M 265.2,545.3 a 12.94,12.94,0,0,1,1.4-5.1,29,29,0,0,0,5.2-1.8 A 14.73,14.73,0,0,0,265.2,545.3Z"/>
    <path d="M 234.4,520.9 a 21.4,21.4,0,1,1,21.4,21.4 A 21.42,21.42,0,0,1,234.4,520.9Z m 21.4-18.6 a 18.56,18.56,0,0,0-18.6,18.6 h 0 a 18.6,18.6,0,1,0,18.6-18.6Z"/>
    <circle cx="261.1" cy="514.9" r="11.2"/>
    <path d="M 334.8,436.4 A 63.23,63.23,0,0,1,372,466.6 c 28.8-29.2,3.2-78.2-3.2-59.2 S 347.3,432.1,334.8,436.4Z m 5.6,0 c 22-6.1,30.3-25.9,31.1-29.6 s 10.2,2.2,11.5,23.5-10.8,32.9-10.8,32.9 C 368,453.9,354.5,440.4,340.4,436.4Z"/>
    <path d="M 231.7,407.4 c -6.5-19-32,30-3.2,59.2 a 63.45,63.45,0,0,1,37.2-30.2 C 253.2,432.1,238.2,426.4,231.7,407.4Z m 28.4,29 c -14.1,4-27.6,17.5-31.9,26.8,0,0-12-11.6-10.8-32.9 s 10.6-27.2,11.5-23.5,9.2,23.4,31.2,29.6Z"/>
  </g>
  <g id="misc-objects">
    <circle cx="339.8" cy="525.8" r="7.4" fill="#fff"/>
    <circle cx="352.1" cy="512.6" r="2.7" fill="#fff"/>
    <circle cx="251" cy="525.8" r="7.4" fill="#fff"/>
    <circle cx="263.3" cy="512.6" r="2.7" fill="#fff"/>
  </g>
<script type="text/ecmascript" xlink:href="param.min.js"/> 
</svg>
