<?xml version="1.0"?>
<svg xmlns="http://www.w3.org/2000/svg" xmlns:xlink="http://www.w3.org/1999/xlink" viewBox="0 0 600 1032.36">
  <title>ES014</title>
  <g id="main-colour">
    <circle cx="255.37" cy="520.86" r="20.59" fill="param(main_colour)"/>
    <circle cx="344.17" cy="520.86" r="20.59" fill="param(main_colour)"/>
  </g>
  <g id="fixed-colours">
    <path d="M 282.29,517.1 c -.92-1.85-6.16-7.55-9-9.55 a 32.35,32.35,0,0,0-4.72-2.64,20.6,20.6,0,0,1-10.76,36.4,38.86,38.86,0,0,0,18.32-5.87 C 285.64,529.59,284.14,520,282.29,517.1Z" fill="#fff"/>
    <path d="M 234.88,520.84 a 20.52,20.52,0,0,1,5.74-14.24,31.11,31.11,0,0,0-4.32,3.8 c -6.7,7.09-9.94,17.72-9.94,17.72,4.7,5,18.57,13.42,28,13.33 l .72,0 A 20.6,20.6,0,0,1,234.88,520.84Z" fill="#fff"/>
    <path d="M 364.75,521.12 a 20.62,20.62,0,0,1-14.45,19.68 c 8.77-2,19-8.52,22.87-12.67,0,0-3.24-10.63-9.94-17.72 a 30.75,30.75,0,0,0-5-4.27 A 20.54,20.54,0,0,1,364.75,521.12Z" fill="#fff"/>
    <path d="M 323.52,521.12 a 20.57,20.57,0,0,1,8.59-16.72,34.43,34.43,0,0,0-5.86,3.15 c -2.85,2-8.09,7.7-9,9.55-1.85,2.93-3.35,12.49,6.16,18.34 A 38.47,38.47,0,0,0,338.73,541,20.61,20.61,0,0,1,323.52,521.12Z" fill="#fff"/>
  </g>
  <g id="outline">
    <path d="M 277.36,478.58 c -7.5,12.73-5.28,22.68-3.6,27q-1-.83-2-1.57 a 37.86,37.86,0,0,1-4.07-26.69 c -3.5,7.7-3.43,17.43-1.19,23.66-.5-.23-1-.44-1.49-.63-13.66-14.78-2.86-41.51-2.86-41.51-10.87,18.08-5.56,35.78-4.16,39.71 l -.41,0 c -11.89-14.28-7.6-37.67-7.6-37.67-5.92,20.85.95,33.95,3.37,37.7 h -.11 c -21.48-20-14.67-50-14.67-50 a 58.73,58.73,0,0,0,8.2,49.76 c -14.8-13.43-18.07-33-18.07-33,1.33,17,10.1,29.47,13.86,34.09-25.95-17.57-24.65-54.28-24.65-54.28-3.35,29.55,10.57,46.75,18.52,54-17-10.06-25.46-31.5-25.46-31.5 a 51.49,51.49,0,0,0,25.83,35 c -33.43-10.82-38.16-51.44-38.16-51.44,1.37,29.7,18.55,45,29.2,51.63-17.74-5.77-30-23.12-30-23.12,9.15,17.46,23.24,24.14,31.28,26.63-32.81-5.07-47.61-38.65-47.61-38.65,11.74,33.45,38.87,40.94,48.3,42.56-21.32.77-40.75-16.06-40.75-16.06 a 56.82,56.82,0,0,0,37.09,19.51 c -35.88,2.72-55.89-27.83-55.89-27.83,17.16,27.58,41.21,31.87,52.45,32.25-17.95,3-39.35-8.68-39.35-8.68,12.29,8.55,22.76,11.6,30.44,12.43-25.19,2.65-48.32-12.43-48.32-12.43,23.46,17,43.07,17.34,53.47,15.7-16.44,5.2-38.06,0-38.06,0,20.07,6.91,34.52,4.29,41.18,2.21-24.19,12.15-54,1.64-54,1.64,24.56,10.51,44,5.69,52.95,2.13 a 9.25,9.25,0,0,0-1.94,2.8 c 2.4-2.64,6.47-3.5,8.16-3.75.49.48,1,.95,1.52,1.4-3,1.16-4.29,5-4.29,5,1.63-1.74,4.73-2.79,6.4-3.26.8.61,1.62,1.2,2.46,1.76 a 10.37,10.37,0,0,0-3.62,4.88,21.39,21.39,0,0,1,5.78-3.52 c .81.48,1.63.95,2.45,1.38 a 10.43,10.43,0,0,0-3.3,5.22 c 1.16-1.58,4-3.16,5.76-4,.84.39,1.67.75,2.48,1.07-1.89,2-3,6.17-3,6.17 a 14,14,0,0,1,5.88-5.15 c .71.22,1.4.42,2.06.57 a 13.89,13.89,0,0,0-1.16,4,13.76,13.76,0,0,1,3.93-3.48 c .86.1,1.79.18,2.77.22 a 9.44,9.44,0,0,0-1.62,4.49 c .61-1.83,2.75-3.51,4.14-4.46.95,0,1.92-.05,2.91-.13 a 10.73,10.73,0,0,0-1,4.59,11.58,11.58,0,0,1,4-4.94,37,37,0,0,0,3.85-.79,14.33,14.33,0,0,0-1,4.19,14.56,14.56,0,0,1,4.12-5.21,19.35,19.35,0,0,0,7.28-4.65,49.13,49.13,0,0,1-8.68,3.1,21.31,21.31,0,0,0,4.72-30.81,45.12,45.12,0,0,1,10.13,9.37,29.12,29.12,0,0,0-4.07-6.89 C 270.08,494.06,277.36,478.58,277.36,478.58Z M 235.53,513 a 21.24,21.24,0,0,0,5.41,23.66,42.67,42.67,0,0,1-13.35-8.91 A 43.16,43.16,0,0,1,235.53,513Z m 19.84,26.53 A 18.57,18.57,0,0,1,239.67,511 a 11.17,11.17,0,1,0,8.09-7,18.43,18.43,0,0,1,3.51-1.17,22.57,22.57,0,0,1,2.92-.41 h 0 c .43,0,.86,0,1.29-.05 a 18.6,18.6,0,0,1-.12,37.21Z"/>
    <path d="M 377.45,527.33 c 6.66,2.08,21.1,4.7,41.18-2.21,0,0-21.62,5.18-38.06,0,10.4,1.64,30,1.27,53.47-15.7,0,0-23.13,15.08-48.32,12.43,7.68-.83,18.16-3.88,30.44-12.43,0,0-21.4,11.68-39.35,8.68,11.24-.38,35.28-4.68,52.45-32.25,0,0-20,30.55-55.89,27.83 a 56.82,56.82,0,0,0,37.09-19.51 S 391,511,369.7,510.2 c 9.43-1.62,36.56-9.11,48.3-42.56,0,0-14.8,33.58-47.61,38.65,8-2.49,22.13-9.18,31.28-26.63,0,0-12.23,17.35-30,23.12,10.66-6.66,27.83-21.93,29.2-51.63,0,0-4.73,40.63-38.16,51.44 a 51.49,51.49,0,0,0,25.83-35 s -8.42,21.44-25.46,31.5 c 8-7.25,21.87-24.45,18.52-54,0,0,1.3,36.7-24.65,54.28,3.76-4.62,12.53-17.09,13.86-34.09,0,0-3.27,19.54-18.07,33 a 58.73,58.73,0,0,0,8.2-49.76 s 6.81,30-14.67,50 h -.11 c 2.43-3.76,9.29-16.86,3.37-37.7,0,0,4.28,23.4-7.6,37.67 l -.41,0 c 1.4-3.93,6.71-21.63-4.16-39.71,0,0,10.8,26.74-2.86,41.51-.5.2-1,.4-1.49.63,2.24-6.22,2.31-16-1.19-23.66 A 37.86,37.86,0,0,1,327.8,504q-1,.74-2,1.57 c 1.68-4.35,3.9-14.31-3.6-27,0,0,7.28,15.48-.86,31.63 a 29.12,29.12,0,0,0-4.07,6.89,45.13,45.13,0,0,1,10.14-9.38,21.31,21.31,0,0,0,4.71,30.82,49.14,49.14,0,0,1-8.69-3.1,19.35,19.35,0,0,0,7.28,4.65,14.56,14.56,0,0,1,4.12,5.21,14.33,14.33,0,0,0-1-4.19,37,37,0,0,0,3.85.79,11.58,11.58,0,0,1,4,4.94,10.73,10.73,0,0,0-1-4.59 c 1,.08,2,.12,2.91.13,1.39.94,3.54,2.63,4.14,4.46 a 9.44,9.44,0,0,0-1.62-4.49 c 1,0,1.91-.12,2.77-.22 a 13.76,13.76,0,0,1,3.93,3.48,13.89,13.89,0,0,0-1.16-4 c .66-.15,1.35-.35,2.06-.57 a 14,14,0,0,1,5.88,5.15 s -1.11-4.18-3-6.17 c .81-.32,1.64-.68,2.48-1.07,1.71.84,4.6,2.42,5.76,4 a 10.44,10.44,0,0,0-3.3-5.22 c .82-.43,1.64-.9,2.45-1.38 a 21.39,21.39,0,0,1,5.78,3.52,10.37,10.37,0,0,0-3.62-4.88 c .84-.56,1.66-1.15,2.46-1.76,1.67.47,4.77,1.51,6.4,3.26,0,0-1.28-3.81-4.29-5,.53-.46,1-.93,1.52-1.4,1.69.25,5.76,1.11,8.16,3.75 a 9.25,9.25,0,0,0-1.94-2.8 c 9,3.55,28.38,8.38,52.95-2.13 C 431.41,529,401.63,539.48,377.45,527.33Z m -5.51.41 a 42.67,42.67,0,0,1-13.34,8.91 A 21.24,21.24,0,0,0,364,513,43.16,43.16,0,0,1,371.94,527.73Z m -46.37-6.82 a 18.47,18.47,0,0,1,2.91-9.95,11.17,11.17,0,1,0,8.09-7,18.47,18.47,0,0,1,7.48-1.64,22.68,22.68,0,0,1,4.26.47,18.6,18.6,0,1,1-22.75,18.13Z"/>
  </g>
  <g id="misc-objects">
    <circle cx="260.2" cy="525.75" r="7.4" fill="#fff"/>
    <circle cx="247.91" cy="512.65" r="2.72" fill="#fff"/>
    <circle cx="349" cy="525.75" r="7.4" fill="#fff"/>
    <circle cx="336.72" cy="512.65" r="2.72" fill="#fff"/>
    <path d="M 388.24,509.36 c -.5-1.62-3.75-1.62-6.37-1.75-.5-4-3.87-10.25-7.62-13.5 s -12.37-6.12-26.5-6.25 a 133.28,133.28,0,0,0-23.87,1.75 h -46 a 248.49,248.49,0,0,0-26.25-1.87 c -11.62,0-21.37,2.25-26.37,6.5 s -7.87,13.63-7.87,13.63 a 38.27,38.27,0,0,0-5.25.5 c -1.5.38-1.5,3.5-1.5,6.38 s 3.38,2.63,5.38,2.75 c -.62,10.25,2.41,20.71,9.25,28.13,4.5,4.88,15.63,7.25,24.63,6.38,19.5-1.75,32.75-15,38.13-24.12 s 6.38-17.5,4.63-24.75 c 3.75-2.87,9.25-3.5,14.38-.25 a 38.89,38.89,0,0,0,2.63,21.5 c 5.38,13.25,22,24.88,36.63,27.25 s 28.25-2.25,33.12-12,4.13-22.25,4.13-22.25 a 8,8,0,0,0,4.24-.81 C 389.59,515.5,388.74,511,388.24,509.36Z M 282.62,527.49 c -4.25,5.88-10.87,14.13-23.37,18.5 s -26,2.25-32.37-5.62-6.12-18.62-4.12-29.75 c 1.46-8.11,6.88-16.12,18.25-17.75 s 26.75,0,32.75.75,13,5.25,15,11.25 S 286.87,521.61,282.62,527.49Z m 26.1-28 c -5.33-4.29-12-5.7-17.91,0 a 19.55,19.55,0,0,0-5.23-6.19 h 28.71 A 22.09,22.09,0,0,0,308.72,499.54Z m 63.94,40.83 c -6.37,7.88-19.87,10-32.37,5.63 s -19.12-12.62-23.37-18.5-8.12-16.62-6.12-22.62,9-10.5,15-11.25,21.38-2.37,32.75-.75,16.79,9.64,18.25,17.75 C 378.79,521.74,379,532.49,372.66,540.36Z" fill="#414042"/>
    <path d="M 376.79,510.61 c -1.46-8.11-6.87-16.12-18.25-17.75 s -26.75,0-32.75.75-13,5.25-15,11.25,1.88,16.75,6.13,22.63,10.88,14.13,23.38,18.5,26,2.25,32.38-5.62 S 378.79,521.74,376.79,510.61Z" opacity="0.5"/>
    <path d="M 222.74,510.61 c 1.46-8.11,6.88-16.12,18.25-17.75 s 26.75,0,32.75.75,13,5.25,15,11.25-1.87,16.75-6.12,22.63-10.87,14.13-23.37,18.5-26,2.25-32.37-5.62 S 220.74,521.74,222.74,510.61Z" opacity="0.5"/>
    <path d="M 388.58,508 c -1.18-1-4.38-1.15-5.86-1.13 a 28.74,28.74,0,0,0-4.65-9.87 c -4.15-5.12-10-10.12-31.53-10.12-9.88,0-17.38.56-23.09,1.8 H 276.08 c -5.71-1.24-13.21-1.8-23.09-1.8-21.53,0-27.38,5-31.53,10.12 a 28.74,28.74,0,0,0-4.65,9.87 c -1.49,0-4.68.09-5.86,1.13-1.59,1.41-1.51,7.37-.7,8.71.7,1.17,3.08,1.53,4.8,1.63 a 50.27,50.27,0,0,0,2,15.81 c 4.14,14.18,16.23,19.14,28.23,19.14 a 46.65,46.65,0,0,0,7.9-.69 c 15.76-2.72,30.27-13.13,37-26.54,4.14-8.28,5.22-16.13,3.33-22.69 a 11.36,11.36,0,0,1,12.6,0 c -1.9,6.56-.81,14.41,3.33,22.69,6.7,13.4,21.22,23.82,37,26.54 a 46.65,46.65,0,0,0,7.9.69 c 12,0,24.09-5,28.23-19.14 a 50.27,50.27,0,0,0,2-15.81 c 1.72-.11,4.09-.47,4.8-1.63 C 390.09,515.36,390.16,509.4,388.58,508Z m -71.52-17.32 a 21,21,0,0,0-3.14,1.68 H 285.62 a 21,21,0,0,0-3.14-1.68Z M 308.5,498 A 13.45,13.45,0,0,0,291,498 a 21.13,21.13,0,0,0-2.57-3.29 c -.11-.11-.23-.22-.34-.33 h 23.29 c -.11.11-.24.21-.34.33 A 21.13,21.13,0,0,0,308.5,498Z M 212,515.67 c -.48-.89-.35-5.49.32-6.18.41-.37,2.27-.6,4-.63-.2.85-.38,1.7-.54,2.58 a 49.07,49.07,0,0,0-.6,4.89 A 8.35,8.35,0,0,1,212,515.67Z m 76.38,9.5 C 281.92,538,268,548,252.82,550.63 c -13.3,2.29-29.17-1-33.87-17-4.49-15.36-.33-29.91,4.07-35.34,3.84-4.75,9.32-9.38,30-9.38,13.42,0,28,.85,34,7.19 C 293.65,503,294.14,513.59,288.35,525.17Z m 11.42-25.71 a 13.38,13.38,0,0,0-7,2q-.34-.87-.76-1.7 a 11.45,11.45,0,0,1,15.45,0q-.42.83-.76,1.69 A 13.38,13.38,0,0,0,299.77,499.46Z m 80.81,34.12 c -4.69,16.06-20.58,19.34-33.87,17-15.15-2.61-29.1-12.61-35.53-25.46-5.79-11.58-5.31-22.19,1.33-29.11,6.07-6.34,20.61-7.19,34-7.19,20.65,0,26.13,4.63,30,9.38 C 380.9,503.67,385.07,518.22,380.58,533.58Z m 7-18 a 7.85,7.85,0,0,1-3.22.7,49,49,0,0,0-.6-4.89 c -.15-.88-.34-1.73-.54-2.58,1.74,0,3.6.26,4,.62 C 387.91,510.18,388,514.78,387.59,515.63Z"/>
    <path d="M 278.07,493.92 c -7-2.39-24.12-2.6-32.18-2.39-8.49.23-14.79,2.64-18.73,7.18-7.07,8.13-8.09,27.3-5,35.51,3.39,9,12.39,15,22.92,15.15 h .54 c 9.92,0,20.36-4.15,29.45-11.74 a 41.48,41.48,0,0,0,14.84-24.39 C 291.85,504.34,287.43,497.11,278.07,493.92Z m 9.87,18.9 a 39.6,39.6,0,0,1-14.16,23.28 c -8.89,7.41-19.1,11.4-28.68,11.27-9.85-.15-17.93-5.46-21.08-13.85-2.84-7.59-1.87-26,4.65-33.49,3.56-4.09,9.37-6.28,17.27-6.49 s 24.75,0,31.48,2.28 C 281.41,497.17,290.42,501.55,287.93,512.82Z"/>
    <path d="M 353.65,491.53 c -8.07-.22-25.18,0-32.18,2.39-9.36,3.19-13.78,10.42-11.82,19.33 a 41.49,41.49,0,0,0,14.84,24.39 c 9.1,7.58,19.54,11.74,29.45,11.74 h .54 c 10.53-.16,19.53-6.11,22.92-15.15,3.08-8.21,2.05-27.38-5-35.51 C 368.43,494.18,362.13,491.76,353.65,491.53Z m 21.87,42 c -3.15,8.39-11.22,13.7-21.08,13.85-9.58.14-19.78-3.86-28.68-11.27 a 39.61,39.61,0,0,1-14.16-23.28 c -2.48-11.27,6.52-15.65,10.51-17,5.47-1.86,17.59-2.35,26.21-2.35,2,0,3.79,0,5.28.07,7.9.21,13.71,2.4,17.27,6.49 C 377.39,507.52,378.36,525.93,375.52,533.51Z"/>
  </g>
<script type="text/ecmascript" xlink:href="param.min.js"/> 
</svg>
