<?xml version="1.0"?>
<svg xmlns="http://www.w3.org/2000/svg" xmlns:xlink="http://www.w3.org/1999/xlink" id="Layer_1" data-name="Layer 1" viewBox="0 0 600 1032.4">
  <title>ES016</title>
  <g id="fixed-colours">
    <path d="M 226.9,528.1 c 3.9,4.1,14.1,10.7,22.9,12.7,10.1.8,11.6.2,11.6.2 a 11.32,11.32,0,0,1,1.2-.2,37.91,37.91,0,0,0,14.1-5.4 c 9.5-5.9,8-15.4,6.2-18.3-.9-1.8-6.1-7.6-9-9.6 a 30.09,30.09,0,0,0-5.9-3.1 c -5.2-2.7-16.4-6.3-26.1,1.7 a 29.15,29.15,0,0,0-5,4.3 C 230.1,517.5,226.8,528.1,226.9,528.1Z" fill="#fff"/>
    <path d="M 323.9,535.5 a 38.89,38.89,0,0,0,11.3,4.8,24.47,24.47,0,0,0,7.1,1.1 c 2.1,0,4,0,5.5-.1 a 26.59,26.59,0,0,1-2.8.3 h .7 a 19.13,19.13,0,0,0,4.8-.6 c 3.7-.6,4.9-1.5,4.9-1.5,7.5-2.8,15-7.8,18.3-11.3,0,0-3.2-10.6-9.9-17.7 a 30.79,30.79,0,0,0-4.3-3.8 c -4.9-4-12.2-7.1-20.1-5.1 s -6.8,2.8-7.8,3.4 a 31,31,0,0,0-4.7,2.6 c -2.8,2-8.1,7.7-9,9.6 C 315.9,520,314.4,529.6,323.9,535.5Z" fill="#fff"/>
  </g>
  <g id="outline">
    <path d="M 321.9,510.3 a 30,30,0,0,0-4.1,6.9 s 11.1-14.9,26.7-14.8,25.2,15.9,28,25.4 c -10.9,10.8-29,16.8-48.5,7.7 a 18.76,18.76,0,0,0,7.3,4.7,13.76,13.76,0,0,1,4.1,5.2,15.15,15.15,0,0,0-1-4.2 c 1.3.3,2.6.6,3.9.8 a 11.18,11.18,0,0,1,4,4.9,10.3,10.3,0,0,0-1-4.6 c 1,.1,2,.1,2.9.1,1.4,1,3.5,2.6,4.1,4.5 a 9.06,9.06,0,0,0-1.6-4.5,24.57,24.57,0,0,0,2.8-.2,13.1,13.1,0,0,1,3.9,3.5,14.19,14.19,0,0,0-1.2-4 c .7-.2,1.3-.4,2.1-.6 a 14.07,14.07,0,0,1,5.9,5.2 s -1.1-4.2-3-6.2 c .8-.3,1.6-.7,2.5-1.1,1.8.8,4.6,2.4,5.8,4 a 9.94,9.94,0,0,0-3.3-5.2 c .8-.4,1.6-.9,2.5-1.4 a 21.37,21.37,0,0,1,5.8,3.5,10.5,10.5,0,0,0-3.6-4.9 c .8-.6,1.7-1.2,2.5-1.8,1.7.5,4.8,1.5,6.4,3.3,0,0-1.3-3.8-4.3-5,.5-.5,1-.9,1.5-1.4,1.7.2,5.8,1.1,8.2,3.8 a 10.65,10.65,0,0,0-1.9-2.8 c 9,3.6,28.4,8.4,53-2.1,0,0-29.8,10.5-54-1.6,6.7,2.1,21.1,4.7,41.2-2.2,0,0-21.6,5.2-38.1,0,10.4,1.6,30,1.3,53.5-15.7,0,0-23.1,15.1-48.3,12.4,7.7-.8,18.1-3.9,30.4-12.4,0,0-21.4,11.7-39.4,8.7,11.2-.4,35.3-4.7,52.5-32.3,0,0-20,30.5-55.9,27.8 a 56.56,56.56,0,0,0,37.1-19.5 s -19.4,16.8-40.8,16.1 c 9.4-1.6,36.6-9.1,48.3-42.6,0,0-14.8,33.6-47.6,38.6,8-2.5,22.1-9.2,31.3-26.6,0,0-12.3,17.4-30,23.1,10.6-6.6,27.8-21.9,29.2-51.6,0,0-4.7,40.6-38.2,51.4 a 51.34,51.34,0,0,0,25.8-35 s -8.5,21.4-25.5,31.5 c 8-7.2,21.9-24.5,18.5-54,0,0,1.3,36.7-24.6,54.3 a 63.86,63.86,0,0,0,13.9-34.1 s -3.3,19.6-18.1,33 a 58.69,58.69,0,0,0,8.2-49.8 s 6.8,30-14.7,50 h -.1 c 2.4-3.8,9.3-16.9,3.4-37.7,0,0,4.3,23.4-7.6,37.7 H 342 a 47.69,47.69,0,0,0-4.2-39.7 s 10.8,26.7-2.9,41.5 l -1.5.6 a 34.37,34.37,0,0,0-1.2-23.7,37.69,37.69,0,0,1-4.1,26.7 c -.7.5-1.3,1-2,1.6,1.7-4.3,3.9-14.3-3.6-27 C 322.6,478.6,329.9,494.1,321.9,510.3Z"/>
    <circle cx="344.2" cy="520.5" r="11.2"/>
    <path d="M 168.6,528.9 c 24.6,10.5,44,5.7,53,2.1 a 8.69,8.69,0,0,0-1.9,2.8 c 2.4-2.6,6.5-3.5,8.2-3.8.5.5,1,.9,1.5,1.4-3,1.2-4.3,5-4.3,5,1.6-1.8,4.7-2.8,6.4-3.3.8.6,1.6,1.2,2.5,1.8 a 9.87,9.87,0,0,0-3.6,4.9,19.13,19.13,0,0,1,5.8-3.5,20.13,20.13,0,0,0,2.5,1.4,10.35,10.35,0,0,0-3.3,5.2 c 1.2-1.6,4.1-3.2,5.8-4 a 27.17,27.17,0,0,0,2.5,1.1 c -1.9,2-3,6.2-3,6.2 a 14.87,14.87,0,0,1,5.9-5.2 l 2.1.6 a 14.19,14.19,0,0,0-1.2,4,14.44,14.44,0,0,1,3.9-3.5,24.59,24.59,0,0,0,2.8.2,9.06,9.06,0,0,0-1.6,4.5 c .6-1.8,2.8-3.5,4.1-4.5.9,0,1.9,0,2.9-.1 a 10.3,10.3,0,0,0-1,4.6,10.65,10.65,0,0,1,4-4.9 c 1.3-.2,2.6-.5,3.9-.8 a 15.15,15.15,0,0,0-1,4.2,16,16,0,0,1,4.1-5.2,20.34,20.34,0,0,0,7.3-4.7 c -19.5,9.1-37.6,3.1-48.5-7.7,2.7-9.5,12.4-25.3,28-25.4 s 26.7,14.8,26.7,14.8 a 26.79,26.79,0,0,0-4.1-6.9 c -8.1-16.1-.9-31.6-.9-31.6-7.5,12.7-5.3,22.6-3.6,27-.7-.6-1.3-1.1-2-1.6 a 37.65,37.65,0,0,1-4-26.7,34.35,34.35,0,0,0-1.2,23.7 l -1.5-.6 c -13.7-14.8-2.9-41.5-2.9-41.5 a 47.69,47.69,0,0,0-4.2,39.7 h -.4 c -11.9-14.3-7.6-37.7-7.6-37.7-5.9,20.8.9,33.9,3.4,37.7 H 254 c -21.5-20-14.7-50-14.7-50 a 58.69,58.69,0,0,0,8.2,49.8 c -14.8-13.5-18.1-33-18.1-33,1.3,17,10.1,29.5,13.9,34.1-25.9-17.6-24.6-54.3-24.6-54.3-3.4,29.5,10.5,46.8,18.5,54-17-10.1-25.5-31.5-25.5-31.5 a 51.63,51.63,0,0,0,25.8,35 c -33.4-10.8-38.2-51.4-38.2-51.4,1.4,29.7,18.5,45,29.2,51.6-17.8-5.8-30-23.1-30-23.1 a 52.69,52.69,0,0,0,31.3,26.6 c -32.8-5.1-47.6-38.6-47.6-38.6,11.7,33.5,38.9,40.9,48.3,42.6-21.3.8-40.8-16-40.8-16 a 56.56,56.56,0,0,0,37.1,19.5 c -35.9,2.7-55.9-27.8-55.9-27.8,17.2,27.6,41.2,31.9,52.5,32.3-18,3-39.4-8.7-39.4-8.7,12.3,8.6,22.8,11.6,30.4,12.4-25.2,2.7-48.3-12.4-48.3-12.4,23.5,17,43.1,17.3,53.5,15.7-16.4,5.2-38.1,0-38.1,0,20.1,6.9,34.5,4.3,41.2,2.2 C 198.4,539.5,168.6,529,168.6,528.9Z"/>
    <circle cx="256.8" cy="520.5" r="11.2"/>
  </g>
  <g id="misc-objects">
    <circle cx="346.4" cy="518.3" r="2.7" fill="#fff"/>
    <circle cx="259" cy="518.3" r="2.7" fill="#fff"/>
  </g>
<script type="text/ecmascript" xlink:href="param.min.js"/> 
</svg>
