<?xml version="1.0"?>
<svg xmlns="http://www.w3.org/2000/svg" xmlns:xlink="http://www.w3.org/1999/xlink" id="Layer_1" data-name="Layer 1" viewBox="0 0 600 1032.4">
  <title>ES018</title>
  <g id="main-colour">
    <path d="M 326.7,506.6 a 20.88,20.88,0,0,0-1.4,17.1 A 20.59,20.59,0,0,0,364,509.6 c -3.9-4-10.6-9-19.5-8.7 A 35.05,35.05,0,0,0,326.7,506.6Z" fill="param(main_colour)"/>
    <path d="M 236.1,510.6 A 20.58,20.58,0,1,0,274,507 a 26.47,26.47,0,0,0-18.9-6.1 C 247.2,501.3,240.2,506.6,236.1,510.6Z" fill="param(main_colour)"/>
  </g>
  <g id="fixed-colours">
    <path d="M 344.9,541.5 h .7 a 29.84,29.84,0,0,0,10.9-2.5 l 1.8-.6 c .4-.2.8-.5,1.2-.7,6-2.9,11.5-6.7,14.2-9.5,0,0-3.2-10.6-9.9-17.7 a 30.79,30.79,0,0,0-4.3-3.8,20.89,20.89,0,0,1,5.4,10.4 c -.6,4-2.3,11-7.5,15.1-7.6,6-17.3,4.8-21.6,2.4 a 21,21,0,0,1-11.2-14.8,33.73,33.73,0,0,1,.2-5.5,16.7,16.7,0,0,1,5.6-9.3 c -2,.9-2.4,1.9-3.5,2.6-2.8,2-8.1,7.7-9,9.6-1.8,2.9-3.4,12.5,6.2,18.3 a 40.67,40.67,0,0,0,6.6,3.3 l 1.5.6 a 28.52,28.52,0,0,0,4.8,1.3,33.28,33.28,0,0,0,5.4.7Z" fill="#fff"/>
    <path d="M 249.7,540.8 a 45,45,0,0,0,11.6.2,38.52,38.52,0,0,0,15.4-5.5 c 9.5-5.9,8-15.4,6.2-18.3-.9-1.9-6.1-7.6-9-9.6-1.3-.9-1.5-2.1-4-3.1 a 15.27,15.27,0,0,1,4.9,6.1 c .9,3.9,1.9,11-2,16.7-5.7,8.4-14.5,10.9-22.4,8.9 s -11.4-7.8-13.1-12.6 a 35,35,0,0,1-1.5-6.4,20.46,20.46,0,0,1,6.1-11,29.15,29.15,0,0,0-5,4.3,14.62,14.62,0,0,0-1.6,1.9 h 0 a 52.48,52.48,0,0,0-8.3,15.9 c 3.9,4.1,12.9,10.3,21.6,12.3Z" fill="#fff"/>
  </g>
  <g id="outline">
    <path d="M 321.9,510.3 a 30,30,0,0,0-4.1,6.9,45,45,0,0,1,6.5-6.6,21.41,21.41,0,1,0,41.9,6.2,10.87,10.87,0,0,0-.1-1.8,42.35,42.35,0,0,1,6.5,12.9 c -10.9,10.8-29,16.8-48.5,7.7 a 18.76,18.76,0,0,0,7.3,4.7,13.76,13.76,0,0,1,4.1,5.2,15.15,15.15,0,0,0-1-4.2 c 1.3.3,2.6.6,3.9.8 a 11.18,11.18,0,0,1,4,4.9,10.3,10.3,0,0,0-1-4.6 c 1,.1,2,.1,2.9.1,1.4,1,3.5,2.6,4.1,4.5 a 9.06,9.06,0,0,0-1.6-4.5,24.57,24.57,0,0,0,2.8-.2,13.1,13.1,0,0,1,3.9,3.5,14.19,14.19,0,0,0-1.2-4 c .7-.2,1.3-.4,2.1-.6 a 14.07,14.07,0,0,1,5.9,5.2 s -1.1-4.2-3-6.2 c .8-.3,1.6-.7,2.5-1.1,1.8.8,4.6,2.4,5.8,4 a 9.94,9.94,0,0,0-3.3-5.2 c .8-.4,1.6-.9,2.5-1.4 a 21.37,21.37,0,0,1,5.8,3.5,10.5,10.5,0,0,0-3.6-4.9 c .8-.6,1.7-1.2,2.5-1.8,1.7.5,4.8,1.5,6.4,3.3,0,0-1.3-3.8-4.3-5,.5-.5,1-.9,1.5-1.4,1.7.2,5.8,1.1,8.2,3.8 a 10.65,10.65,0,0,0-1.9-2.8 c 9,3.6,28.4,8.4,53-2.1,0,0-29.8,10.5-54-1.6,6.7,2.1,21.1,4.7,41.2-2.2,0,0-21.6,5.2-38.1,0,10.4,1.6,30,1.3,53.5-15.7,0,0-23.1,15.1-48.3,12.4,7.7-.8,18.1-3.9,30.4-12.4,0,0-21.4,11.7-39.4,8.7,11.2-.4,35.3-4.7,52.5-32.3,0,0-20,30.5-55.9,27.8 a 56.56,56.56,0,0,0,37.1-19.5 s -19.4,16.8-40.8,16.1 c 9.4-1.6,36.6-9.1,48.3-42.6,0,0-14.8,33.6-47.6,38.6,8-2.5,22.1-9.2,31.3-26.6,0,0-12.3,17.4-30,23.1,10.6-6.6,27.8-21.9,29.2-51.6,0,0-4.7,40.6-38.2,51.4 a 51.34,51.34,0,0,0,25.8-35 s -8.5,21.4-25.5,31.5 c 8-7.2,21.9-24.5,18.5-54,0,0,1.3,36.7-24.6,54.3 a 63.86,63.86,0,0,0,13.9-34.1 s -3.3,19.6-18.1,33 a 58.69,58.69,0,0,0,8.2-49.8 s 6.8,30-14.7,50 H 347 c 2.4-3.8,9.3-16.9,3.4-37.7,0,0,4.3,23.4-7.6,37.7 H 342 a 47.69,47.69,0,0,0-4.2-39.7 s 10.8,26.7-2.9,41.5 l -1.5.6 a 34.37,34.37,0,0,0-1.2-23.7,37.69,37.69,0,0,1-4.1,26.7 c -.7.5-1.3,1-2,1.6,1.7-4.3,3.9-14.3-3.6-27 C 322.6,478.6,329.9,494.1,321.9,510.3Z m 6.7-3.1 a 40.67,40.67,0,0,1,6.6-3.3,11.26,11.26,0,0,0-.3,13.1,11.14,11.14,0,0,0,18.3-12.7,31.54,31.54,0,0,1,8.8,6.1,19.56,19.56,0,0,1,1.1,6.4,18.6,18.6,0,0,1-37.2-.2 A 19.65,19.65,0,0,1,328.6,507.2Z"/>
    <path d="M 168.6,528.9 c 24.6,10.5,44,5.7,53,2.1 a 8.69,8.69,0,0,0-1.9,2.8 c 2.4-2.6,6.5-3.5,8.2-3.8.5.5,1,.9,1.5,1.4-3,1.2-4.3,5-4.3,5,1.6-1.8,4.7-2.8,6.4-3.3.8.6,1.6,1.2,2.5,1.8 a 9.87,9.87,0,0,0-3.6,4.9,19.13,19.13,0,0,1,5.8-3.5,20.13,20.13,0,0,0,2.5,1.4,10.35,10.35,0,0,0-3.3,5.2 c 1.2-1.6,4.1-3.2,5.8-4 a 27.17,27.17,0,0,0,2.5,1.1 c -1.9,2-3,6.2-3,6.2 a 14.87,14.87,0,0,1,5.9-5.2 l 2.1.6 a 14.19,14.19,0,0,0-1.2,4,14.44,14.44,0,0,1,3.9-3.5,24.59,24.59,0,0,0,2.8.2,9.06,9.06,0,0,0-1.6,4.5 c .6-1.8,2.8-3.5,4.1-4.5.9,0,1.9,0,2.9-.1 a 10.3,10.3,0,0,0-1,4.6,10.65,10.65,0,0,1,4-4.9 c 1.3-.2,2.6-.5,3.9-.8 a 15.15,15.15,0,0,0-1,4.2,16,16,0,0,1,4.1-5.2,20.34,20.34,0,0,0,7.3-4.7 c -19.5,9.1-37.6,3.1-48.5-7.7 a 42.35,42.35,0,0,1,6.5-12.9,10.87,10.87,0,0,0-.1,1.8,20.46,20.46,0,0,0,.9,6.1,21.35,21.35,0,1,0,40.9-12.3,45,45,0,0,1,6.5,6.6,26.79,26.79,0,0,0-4.1-6.9 c -8.1-16.1-.9-31.6-.9-31.6-7.5,12.7-5.3,22.6-3.6,27-.7-.6-1.3-1.1-2-1.6 a 37.65,37.65,0,0,1-4-26.7,34.35,34.35,0,0,0-1.2,23.7 l -1.5-.6 c -13.7-14.8-2.9-41.5-2.9-41.5 a 47.69,47.69,0,0,0-4.2,39.7 h -.4 c -11.9-14.3-7.6-37.7-7.6-37.7-5.9,20.8.9,33.9,3.4,37.7 H 254 c -21.5-20-14.7-50-14.7-50 a 58.69,58.69,0,0,0,8.2,49.8 c -14.8-13.5-18.1-33-18.1-33,1.3,17,10.1,29.5,13.9,34.1-25.9-17.6-24.6-54.3-24.6-54.3-3.4,29.5,10.5,46.8,18.5,54-17-10.1-25.5-31.5-25.5-31.5 a 51.63,51.63,0,0,0,25.8,35 c -33.4-10.8-38.2-51.4-38.2-51.4,1.4,29.7,18.5,45,29.2,51.6-17.8-5.8-30-23.1-30-23.1 a 52.69,52.69,0,0,0,31.3,26.6 c -32.8-5.1-47.6-38.6-47.6-38.6,11.7,33.5,38.9,40.9,48.3,42.6-21.3.8-40.8-16-40.8-16 a 56.56,56.56,0,0,0,37.1,19.5 c -35.9,2.7-55.9-27.8-55.9-27.8,17.2,27.6,41.2,31.9,52.5,32.3-18,3-39.4-8.7-39.4-8.7,12.3,8.6,22.8,11.6,30.4,12.4-25.2,2.7-48.3-12.4-48.3-12.4,23.5,17,43.1,17.3,53.5,15.7-16.4,5.2-38.1,0-38.1,0,20.1,6.9,34.5,4.3,41.2,2.2 C 198.4,539.5,168.6,529,168.6,528.9Z m 80.9,5.3 a 18.48,18.48,0,0,1-11.2-23.7,31.92,31.92,0,0,1,7.5-5.6,11,11,0,0,0,1,12.9 A 11.15,11.15,0,1,0,264,503.6 a 32.79,32.79,0,0,1,7.8,3.7,18.61,18.61,0,0,1-16,28.1 A 22.66,22.66,0,0,1,249.5,534.2Z"/>
  </g>
  <g id="misc-objects">
    <circle cx="337" cy="522.9" r="7.4" fill="#fff"/>
    <circle cx="346.4" cy="508.4" r="2.7" fill="#fff"/>
    <circle cx="248.2" cy="522.9" r="7.4" fill="#fff"/>
    <circle cx="257.6" cy="508.4" r="2.7" fill="#fff"/>
  </g>
<script type="text/ecmascript" xlink:href="param.min.js"/> 
</svg>
