<?xml version="1.0"?>
<svg xmlns="http://www.w3.org/2000/svg" xmlns:xlink="http://www.w3.org/1999/xlink" viewBox="0 0 600 1032.36">
  <title>ES018</title>
  <g id="main-colour">
    <path d="M 255.54,500.86 c -8.85-.31-15.59,4.73-19.5,8.7 a 20.58,20.58,0,1,0,37.28-3 A 36.07,36.07,0,0,0,255.54,500.86Z" fill="param(main_colour)"/>
    <path d="M 344.88,500.86 A 27.15,27.15,0,0,0,326,507 a 20.59,20.59,0,1,0,37.89,3.64 C 359.75,506.62,352.83,501.28,344.88,500.86Z" fill="param(main_colour)"/>
  </g>
  <g id="fixed-colours">
    <path d="M 257.81,541.31 a 44,44,0,0,0,5.41-.72,27.51,27.51,0,0,0,4.83-1.29,9.16,9.16,0,0,0,1.5-.56,41.15,41.15,0,0,0,6.59-3.29 c 9.51-5.84,8-15.41,6.16-18.34-.92-1.85-6.16-7.55-9-9.55-1.07-.75-1.52-1.72-3.5-2.64 a 16.79,16.79,0,0,1,5.59,9.32,27,27,0,0,1,.21,5.52,21,21,0,0,1-11.25,14.77 c -4.37,2.4-14,3.6-21.63-2.4-5.19-4.08-6.9-11.05-7.47-15.09 a 20.57,20.57,0,0,1,5.37-10.43,31.11,31.11,0,0,0-4.32,3.8 c -6.7,7.09-9.94,17.72-9.94,17.72,2.63,2.81,8.15,6.68,14.16,9.53.41.26.83.5,1.25.72.6.22,1.18.41,1.77.59 a 29.83,29.83,0,0,0,10.87,2.49 l .72,0Z" fill="#fff"/>
    <path d="M 351.55,540.47 c 8.77-2,17.72-8.2,21.62-12.35 a 53.73,53.73,0,0,0-8.32-15.86 h 0 c -.52-.64-1.05-1.26-1.62-1.86 a 30.75,30.75,0,0,0-5-4.27,20.6,20.6,0,0,1,6.09,11,34.71,34.71,0,0,1-1.51,6.37 c -1.74,4.85-5.26,10.65-13.14,12.64 s -16.75-.49-22.41-8.87 c -3.87-5.72-2.94-12.82-2-16.74 a 14.41,14.41,0,0,1,4.86-6.11 c -2.5,1.07-2.67,2.26-3.95,3.15-2.85,2-8.09,7.7-9,9.55-1.85,2.93-3.35,12.49,6.16,18.34 A 38.47,38.47,0,0,0,338.73,541 a 45.59,45.59,0,0,0,11.57-.2Z" fill="#fff"/>
  </g>
  <g id="outline">
    <path d="M 277.36,478.58 c -7.5,12.73-5.28,22.68-3.6,27q-1-.83-2-1.57 a 37.86,37.86,0,0,1-4.07-26.69 c -3.5,7.7-3.43,17.43-1.19,23.66-.5-.23-1-.44-1.49-.63-13.66-14.78-2.86-41.51-2.86-41.51-10.87,18.08-5.56,35.78-4.16,39.71 l -.41,0 c -11.89-14.28-7.6-37.67-7.6-37.67-5.92,20.85.95,33.95,3.37,37.7 h -.11 c -21.48-20-14.67-50-14.67-50 a 58.73,58.73,0,0,0,8.2,49.76 c -14.8-13.43-18.07-33-18.07-33,1.33,17,10.1,29.47,13.86,34.09-25.95-17.57-24.65-54.28-24.65-54.28-3.35,29.55,10.57,46.75,18.52,54-17-10.06-25.46-31.5-25.46-31.5 a 51.49,51.49,0,0,0,25.83,35 c -33.43-10.82-38.16-51.44-38.16-51.44,1.37,29.7,18.55,45,29.2,51.63-17.74-5.77-30-23.12-30-23.12,9.15,17.46,23.24,24.14,31.28,26.63-32.81-5.07-47.61-38.65-47.61-38.65,11.74,33.45,38.87,40.94,48.3,42.56-21.32.77-40.75-16.06-40.75-16.06 a 56.82,56.82,0,0,0,37.09,19.51 c -35.88,2.72-55.89-27.83-55.89-27.83,17.16,27.58,41.21,31.87,52.45,32.25-17.95,3-39.35-8.68-39.35-8.68,12.29,8.55,22.76,11.6,30.44,12.43-25.19,2.65-48.32-12.43-48.32-12.43,23.46,17,43.07,17.34,53.47,15.7-16.44,5.2-38.06,0-38.06,0,20.07,6.91,34.52,4.29,41.18,2.21-24.19,12.15-54,1.64-54,1.64,24.56,10.51,44,5.69,52.95,2.13 a 9.25,9.25,0,0,0-1.94,2.8 c 2.4-2.64,6.47-3.5,8.16-3.75.49.48,1,.95,1.52,1.4-3,1.16-4.29,5-4.29,5,1.63-1.74,4.73-2.79,6.4-3.26.8.61,1.62,1.2,2.46,1.76 a 10.37,10.37,0,0,0-3.62,4.88,21.39,21.39,0,0,1,5.78-3.52 c .81.48,1.63.95,2.45,1.38 a 10.43,10.43,0,0,0-3.3,5.22 c 1.16-1.58,4-3.16,5.76-4,.84.39,1.67.75,2.48,1.07-1.89,2-3,6.17-3,6.17 a 14,14,0,0,1,5.88-5.15 c .71.22,1.4.42,2.06.57 a 13.89,13.89,0,0,0-1.16,4,13.76,13.76,0,0,1,3.93-3.48 c .86.1,1.79.18,2.77.22 a 9.44,9.44,0,0,0-1.62,4.49 c .61-1.83,2.75-3.51,4.14-4.46.95,0,1.92-.05,2.91-.13 a 10.73,10.73,0,0,0-1,4.59,11.58,11.58,0,0,1,4-4.94,37,37,0,0,0,3.85-.79,14.33,14.33,0,0,0-1,4.19,14.56,14.56,0,0,1,4.12-5.21,19.35,19.35,0,0,0,7.28-4.65 c -19.57,9.09-37.6,3.08-48.54-7.7 a 43,43,0,0,1,6.49-12.89 c -.05.6-.09,1.2-.09,1.82 a 21.38,21.38,0,0,0,42.76,0,21.16,21.16,0,0,0-.92-6.18,43.67,43.67,0,0,1,6.47,6.62,29.12,29.12,0,0,0-4.07-6.89 C 270.08,494.06,277.36,478.58,277.36,478.58Z M 274,516.66 a 18.61,18.61,0,1,1-36.12-6.24,28.89,28.89,0,0,1,8.75-6.14,11.17,11.17,0,1,0,18.12-.37,33.82,33.82,0,0,1,6.63,3.29 A 18.41,18.41,0,0,1,274,516.66Z"/>
    <path d="M 377.45,527.33 c 6.66,2.08,21.1,4.7,41.18-2.21,0,0-21.62,5.18-38.06,0,10.4,1.64,30,1.27,53.47-15.7,0,0-23.13,15.08-48.32,12.43,7.68-.83,18.16-3.88,30.44-12.43,0,0-21.4,11.68-39.35,8.68,11.24-.38,35.28-4.68,52.45-32.25,0,0-20,30.55-55.89,27.83 a 56.82,56.82,0,0,0,37.09-19.51 S 391,511,369.7,510.2 c 9.43-1.62,36.56-9.11,48.3-42.56,0,0-14.8,33.58-47.61,38.65,8-2.49,22.13-9.18,31.28-26.63,0,0-12.23,17.35-30,23.12,10.66-6.66,27.83-21.93,29.2-51.63,0,0-4.73,40.63-38.16,51.44 a 51.49,51.49,0,0,0,25.83-35 s -8.42,21.44-25.46,31.5 c 8-7.25,21.87-24.45,18.52-54,0,0,1.3,36.7-24.65,54.28,3.76-4.62,12.53-17.09,13.86-34.09,0,0-3.27,19.54-18.07,33 a 58.73,58.73,0,0,0,8.2-49.76 s 6.81,30-14.67,50 h -.11 c 2.43-3.76,9.29-16.86,3.37-37.7,0,0,4.28,23.4-7.6,37.67 l -.41,0 c 1.4-3.93,6.71-21.63-4.16-39.71,0,0,10.8,26.74-2.86,41.51-.5.2-1,.4-1.49.63,2.24-6.22,2.31-16-1.19-23.66 A 37.86,37.86,0,0,1,327.8,504q-1,.74-2,1.57 c 1.68-4.35,3.9-14.31-3.6-27,0,0,7.28,15.48-.86,31.63 a 29.12,29.12,0,0,0-4.07,6.89,43.67,43.67,0,0,1,6.48-6.63,21.37,21.37,0,1,0,41.83,6.19 c 0-.61,0-1.21-.09-1.81 a 43,43,0,0,1,6.48,12.88 c -10.94,10.79-29,16.8-48.54,7.7 a 19.35,19.35,0,0,0,7.28,4.65,14.56,14.56,0,0,1,4.12,5.21,14.33,14.33,0,0,0-1-4.19,37,37,0,0,0,3.85.79,11.58,11.58,0,0,1,4,4.94,10.73,10.73,0,0,0-1-4.59 c 1,.08,2,.12,2.91.13,1.39.94,3.54,2.63,4.14,4.46 a 9.44,9.44,0,0,0-1.62-4.49 c 1,0,1.91-.12,2.77-.22 a 13.76,13.76,0,0,1,3.93,3.48,13.89,13.89,0,0,0-1.16-4 c .66-.15,1.35-.35,2.06-.57 a 14,14,0,0,1,5.88,5.15 s -1.11-4.18-3-6.17 c .81-.32,1.64-.68,2.48-1.07,1.71.84,4.6,2.42,5.76,4 a 10.44,10.44,0,0,0-3.3-5.22 c .82-.43,1.64-.9,2.45-1.38 a 21.39,21.39,0,0,1,5.78,3.52,10.37,10.37,0,0,0-3.62-4.88 c .84-.56,1.66-1.15,2.46-1.76,1.67.47,4.77,1.51,6.4,3.26,0,0-1.28-3.81-4.29-5,.53-.46,1-.93,1.52-1.4,1.69.25,5.76,1.11,8.16,3.75 a 9.25,9.25,0,0,0-1.94-2.8 c 9,3.55,28.38,8.38,52.95-2.13 C 431.41,529,401.63,539.48,377.45,527.33Z m -33.28,7.94 a 18.63,18.63,0,0,1-18.61-18.61,18.39,18.39,0,0,1,2.63-9.47,33.06,33.06,0,0,1,7.78-3.67,11.18,11.18,0,1,0,18.19,1.34,29.6,29.6,0,0,1,7.53,5.57,18.57,18.57,0,0,1-17.52,24.84Z"/>
  </g>
  <g id="misc-objects">
    <circle cx="263.03" cy="522.91" r="7.4" fill="#fff"/>
    <circle cx="253.58" cy="508.4" r="2.72" fill="#fff"/>
    <circle cx="351.84" cy="522.91" r="7.4" fill="#fff"/>
    <circle cx="342.38" cy="508.4" r="2.72" fill="#fff"/>
  </g>
<script type="text/ecmascript" xlink:href="param.min.js"/> 
</svg>
