<?xml version="1.0"?>
<svg xmlns="http://www.w3.org/2000/svg" xmlns:xlink="http://www.w3.org/1999/xlink" viewBox="0 0 600 1032.36">
  <title>ES013</title>
  <g id="main-colour">
    <circle cx="255.37" cy="520.86" r="20.59" fill="param(main_colour)"/>
    <circle cx="344.17" cy="520.86" r="20.59" fill="param(main_colour)"/>
  </g>
  <g id="fixed-colours">
    <path d="M 282.29,517.1 c -.92-1.85-6.16-7.55-9-9.55 a 32.35,32.35,0,0,0-4.72-2.64,20.6,20.6,0,0,1-10.76,36.4,38.86,38.86,0,0,0,18.32-5.87 C 285.64,529.59,284.14,520,282.29,517.1Z" fill="#fff"/>
    <path d="M 234.88,520.84 a 20.52,20.52,0,0,1,5.74-14.24,31.11,31.11,0,0,0-4.32,3.8 c -6.7,7.09-9.94,17.72-9.94,17.72,4.7,5,18.57,13.42,28,13.33 l .72,0 A 20.6,20.6,0,0,1,234.88,520.84Z" fill="#fff"/>
    <path d="M 364.75,521.12 a 20.62,20.62,0,0,1-14.45,19.68 c 8.77-2,19-8.52,22.87-12.67,0,0-3.24-10.63-9.94-17.72 a 30.75,30.75,0,0,0-5-4.27 A 20.54,20.54,0,0,1,364.75,521.12Z" fill="#fff"/>
    <path d="M 323.52,521.12 a 20.57,20.57,0,0,1,8.59-16.72,34.43,34.43,0,0,0-5.86,3.15 c -2.85,2-8.09,7.7-9,9.55-1.85,2.93-3.35,12.49,6.16,18.34 A 38.47,38.47,0,0,0,338.73,541,20.61,20.61,0,0,1,323.52,521.12Z" fill="#fff"/>
  </g>
  <g id="outline">
    <path d="M 277.36,478.58 c -7.5,12.73-5.28,22.68-3.6,27q-1-.83-2-1.57 a 37.86,37.86,0,0,1-4.07-26.69 c -3.5,7.7-3.43,17.43-1.19,23.66-.5-.23-1-.44-1.49-.63-13.66-14.78-2.86-41.51-2.86-41.51-10.87,18.08-5.56,35.78-4.16,39.71 l -.41,0 c -11.89-14.28-7.6-37.67-7.6-37.67-5.92,20.85.95,33.95,3.37,37.7 h -.11 c -21.48-20-14.67-50-14.67-50 a 58.73,58.73,0,0,0,8.2,49.76 c -14.8-13.43-18.07-33-18.07-33,1.33,17,10.1,29.47,13.86,34.09-25.95-17.57-24.65-54.28-24.65-54.28-3.35,29.55,10.57,46.75,18.52,54-17-10.06-25.46-31.5-25.46-31.5 a 51.49,51.49,0,0,0,25.83,35 c -33.43-10.82-38.16-51.44-38.16-51.44,1.37,29.7,18.55,45,29.2,51.63-17.74-5.77-30-23.12-30-23.12,9.15,17.46,23.24,24.14,31.28,26.63-32.81-5.07-47.61-38.65-47.61-38.65,11.74,33.45,38.87,40.94,48.3,42.56-21.32.77-40.75-16.06-40.75-16.06 a 56.82,56.82,0,0,0,37.09,19.51 c -35.88,2.72-55.89-27.83-55.89-27.83,17.16,27.58,41.21,31.87,52.45,32.25-17.95,3-39.35-8.68-39.35-8.68,12.29,8.55,22.76,11.6,30.44,12.43-25.19,2.65-48.32-12.43-48.32-12.43,23.46,17,43.07,17.34,53.47,15.7-16.44,5.2-38.06,0-38.06,0,20.07,6.91,34.52,4.29,41.18,2.21-24.19,12.15-54,1.64-54,1.64,24.56,10.51,44,5.69,52.95,2.13 a 9.25,9.25,0,0,0-1.94,2.8 c 2.4-2.64,6.47-3.5,8.16-3.75.49.48,1,.95,1.52,1.4-3,1.16-4.29,5-4.29,5,1.63-1.74,4.73-2.79,6.4-3.26.8.61,1.62,1.2,2.46,1.76 a 10.37,10.37,0,0,0-3.62,4.88,21.39,21.39,0,0,1,5.78-3.52 c .81.48,1.63.95,2.45,1.38 a 10.43,10.43,0,0,0-3.3,5.22 c 1.16-1.58,4-3.16,5.76-4,.84.39,1.67.75,2.48,1.07-1.89,2-3,6.17-3,6.17 a 14,14,0,0,1,5.88-5.15 c .71.22,1.4.42,2.06.57 a 13.89,13.89,0,0,0-1.16,4,13.76,13.76,0,0,1,3.93-3.48 c .86.1,1.79.18,2.77.22 a 9.44,9.44,0,0,0-1.62,4.49 c .61-1.83,2.75-3.51,4.14-4.46.95,0,1.92-.05,2.91-.13 a 10.73,10.73,0,0,0-1,4.59,11.58,11.58,0,0,1,4-4.94,37,37,0,0,0,3.85-.79,14.33,14.33,0,0,0-1,4.19,14.56,14.56,0,0,1,4.12-5.21,19.35,19.35,0,0,0,7.28-4.65,49.13,49.13,0,0,1-8.68,3.1,21.31,21.31,0,0,0,4.72-30.81,45.12,45.12,0,0,1,10.13,9.37,29.12,29.12,0,0,0-4.07-6.89 C 270.08,494.06,277.36,478.58,277.36,478.58Z M 235.53,513 a 21.24,21.24,0,0,0,5.41,23.66,42.67,42.67,0,0,1-13.35-8.91 A 43.16,43.16,0,0,1,235.53,513Z m 19.84,26.53 A 18.57,18.57,0,0,1,239.67,511 a 11.17,11.17,0,1,0,8.09-7,18.43,18.43,0,0,1,3.51-1.17,22.57,22.57,0,0,1,2.92-.41 h 0 c .43,0,.86,0,1.29-.05 a 18.6,18.6,0,0,1-.12,37.21Z"/>
    <path d="M 377.45,527.33 c 6.66,2.08,21.1,4.7,41.18-2.21,0,0-21.62,5.18-38.06,0,10.4,1.64,30,1.27,53.47-15.7,0,0-23.13,15.08-48.32,12.43,7.68-.83,18.16-3.88,30.44-12.43,0,0-21.4,11.68-39.35,8.68,11.24-.38,35.28-4.68,52.45-32.25,0,0-20,30.55-55.89,27.83 a 56.82,56.82,0,0,0,37.09-19.51 S 391,511,369.7,510.2 c 9.43-1.62,36.56-9.11,48.3-42.56,0,0-14.8,33.58-47.61,38.65,8-2.49,22.13-9.18,31.28-26.63,0,0-12.23,17.35-30,23.12,10.66-6.66,27.83-21.93,29.2-51.63,0,0-4.73,40.63-38.16,51.44 a 51.49,51.49,0,0,0,25.83-35 s -8.42,21.44-25.46,31.5 c 8-7.25,21.87-24.45,18.52-54,0,0,1.3,36.7-24.65,54.28,3.76-4.62,12.53-17.09,13.86-34.09,0,0-3.27,19.54-18.07,33 a 58.73,58.73,0,0,0,8.2-49.76 s 6.81,30-14.67,50 h -.11 c 2.43-3.76,9.29-16.86,3.37-37.7,0,0,4.28,23.4-7.6,37.67 l -.41,0 c 1.4-3.93,6.71-21.63-4.16-39.71,0,0,10.8,26.74-2.86,41.51-.5.2-1,.4-1.49.63,2.24-6.22,2.31-16-1.19-23.66 A 37.86,37.86,0,0,1,327.8,504q-1,.74-2,1.57 c 1.68-4.35,3.9-14.31-3.6-27,0,0,7.28,15.48-.86,31.63 a 29.12,29.12,0,0,0-4.07,6.89,45.13,45.13,0,0,1,10.14-9.38,21.31,21.31,0,0,0,4.71,30.82,49.14,49.14,0,0,1-8.69-3.1,19.35,19.35,0,0,0,7.28,4.65,14.56,14.56,0,0,1,4.12,5.21,14.33,14.33,0,0,0-1-4.19,37,37,0,0,0,3.85.79,11.58,11.58,0,0,1,4,4.94,10.73,10.73,0,0,0-1-4.59 c 1,.08,2,.12,2.91.13,1.39.94,3.54,2.63,4.14,4.46 a 9.44,9.44,0,0,0-1.62-4.49 c 1,0,1.91-.12,2.77-.22 a 13.76,13.76,0,0,1,3.93,3.48,13.89,13.89,0,0,0-1.16-4 c .66-.15,1.35-.35,2.06-.57 a 14,14,0,0,1,5.88,5.15 s -1.11-4.18-3-6.17 c .81-.32,1.64-.68,2.48-1.07,1.71.84,4.6,2.42,5.76,4 a 10.44,10.44,0,0,0-3.3-5.22 c .82-.43,1.64-.9,2.45-1.38 a 21.39,21.39,0,0,1,5.78,3.52,10.37,10.37,0,0,0-3.62-4.88 c .84-.56,1.66-1.15,2.46-1.76,1.67.47,4.77,1.51,6.4,3.26,0,0-1.28-3.81-4.29-5,.53-.46,1-.93,1.52-1.4,1.69.25,5.76,1.11,8.16,3.75 a 9.25,9.25,0,0,0-1.94-2.8 c 9,3.55,28.38,8.38,52.95-2.13 C 431.41,529,401.63,539.48,377.45,527.33Z m -5.51.41 a 42.67,42.67,0,0,1-13.34,8.91 A 21.24,21.24,0,0,0,364,513,43.16,43.16,0,0,1,371.94,527.73Z m -46.37-6.82 a 18.47,18.47,0,0,1,2.91-9.95,11.17,11.17,0,1,0,8.09-7,18.47,18.47,0,0,1,7.48-1.64,22.68,22.68,0,0,1,4.26.47,18.6,18.6,0,1,1-22.75,18.13Z"/>
  </g>
  <g id="misc-objects">
    <circle cx="260.2" cy="525.75" r="7.4" fill="#fff"/>
    <circle cx="247.91" cy="512.65" r="2.72" fill="#fff"/>
    <circle cx="349" cy="525.75" r="7.4" fill="#fff"/>
    <circle cx="336.72" cy="512.65" r="2.72" fill="#fff"/>
    <path d="M 385.12,501.74 c 0-2.25-2.5-4.75-6.37-6.37-7.12-2.87-22.25-5.62-31.75-5.37 s -24.75,2.38-32.37,8.75 c -9.37-8.37-22.75-7.25-29.37-.12-7.37-4.62-16.37-8.12-33.75-8.5 a 76.35,76.35,0,0,0-31.25,5.5,8.61,8.61,0,0,0-5.87,6 c -5.5,1.25-5,6.5-4.62,9.63 s 4.24,4.94,4.24,4.94 l .89,5.56 c 2.75,13.25,8.25,22,14.75,24.38,7.83,2.86,27.25,4.25,35.63,3.88 s 13.75-2.5,17.88-8.5,6-17.62,6.75-24.5.88-10-2.12-15.5 c 7.5-5.62,18-4.87,24.13-.12-4.12,5.38-2.25,21.75.75,31.88 s 8,15.13,18.38,16.5,29-.75,40.87-4.12 c 8.88-6.62,13-21.62,13.74-29.43 a 8.8,8.8,0,0,0,4.51-7.94 C 390.12,504.49,388,502.36,385.12,501.74Z M 284.37,511.86 c -.5,6-2.87,19.38-4.5,23 s -4.37,7.75-10.75,8.88-17.5,1.13-28.12-.62-12.25-5.37-14.62-9.87-8.25-17.87-3.25-26.5,18.88-11.25,28-11.25 c 12.75,0,24.25,3.75,27.75,5.63 S 284.87,505.86,284.37,511.86Z m 93.87,5.5 c -.75,5.88-5.75,20.5-10.37,22.5 s -14.87,5.88-31.12,4.63-17.12-9.25-18.5-14.75-3.87-17.37-2.75-21.87,4.25-8.37,21-11.12 c 11.66-1.91,24.12-1.25,32.37,3.25 S 379,511.49,378.24,517.36Z" fill="#414042"/>
    <path d="M 253.12,495.36 c 14.5.39,24.75,4.5,27.87,7.13 s 4.13,6.25,3.25,12-3,18.88-5.75,23.25-7.5,6.5-15.87,6.75-23.25,0-30.37-4.12-10.5-18-11-22.75,0-12.37,8.5-17 S 243.74,495.11,253.12,495.36Z" fill="#fff" opacity="0.5"/>
    <path d="M 346.41,495.36 c -14.5.39-24.75,4.5-27.87,7.13 s -4.12,6.25-3.25,12,3,18.88,5.75,23.25,7.5,6.5,15.88,6.75,23.25,0,30.38-4.12,10.5-18,11-22.75,0-12.37-8.5-17 S 355.79,495.11,346.41,495.36Z" fill="#fff" opacity="0.5"/>
    <path d="M 278.32,499.41 c -2.57-1.16-12.2-5-28-5-5.34,0-15.4.8-22.84,6.19-7.29,5.28-9,13.54-5.11,25.25,2.76,8.41,6.17,13.43,10.47,15.37 a 64.9,64.9,0,0,0,23.46,4.08 c 3.1,0,6.06-.17,8.85-.39,7.54-.6,12.29-3.27,14.94-8.41,2.35-4.58,4.74-17.8,5.36-23.6 C 286.1,506.39,283.72,501.85,278.32,499.41Z m 5.09,13.31 c -.59,5.52-2.93,18.6-5.14,22.9-2.33,4.53-6.43,6.79-13.31,7.34-9,.72-19.82.85-31.38-3.54-3.71-1.67-6.76-6.3-9.34-14.15-3.59-10.93-2.19-18.24,4.39-23,7-5.06,16.57-5.81,21.66-5.81,15.43,0,24.73,3.66,27.21,4.79 C 282.14,503.33,284,507,283.41,512.71Z"/>
    <path d="M 372.08,500.63 c -7.44-5.39-17.5-6.19-22.84-6.19-15.83,0-25.46,3.8-28,5-5.39,2.44-7.78,7-7.08,13.52.62,5.8,3,19,5.36,23.6,2.64,5.14,7.39,7.82,14.94,8.41,2.79.22,5.74.39,8.83.39 a 65.07,65.07,0,0,0,23.54-4.1 c 4.25-1.92,7.65-6.94,10.41-15.35 C 381,514.17,379.37,505.91,372.08,500.63Z m 3.21,24.62 c -2.58,7.85-5.63,12.48-9.28,14.13-11.62,4.42-22.42,4.28-31.44,3.56-6.88-.55-11-2.81-13.31-7.34-2.21-4.3-4.56-17.38-5.14-22.9-.61-5.73,1.27-9.38,5.92-11.48,2.48-1.12,11.78-4.79,27.21-4.79,5.09,0,14.68.75,21.66,5.81 C 377.49,507,378.88,514.33,375.3,525.26Z"/>
    <path d="M 390.52,504.92 c -.61-3.07-3.54-4-4.75-4.22-.06-.2-.11-.39-.17-.55-1.26-3.5-4.29-5.16-9.11-6.85 A 89.53,89.53,0,0,0,348,488.86 c -12,0-25.94,3.29-32.44,7.65-.36.24-.71.49-1,.75 A 21.78,21.78,0,0,0,299.74,492 c -8.37,0-13.1,3.8-14.68,5.35-.36-.29-.74-.56-1.13-.83-6.5-4.36-20.45-7.65-32.44-7.65 A 89.53,89.53,0,0,0,223,493.3 c -4.82,1.69-7.85,3.36-9.11,6.85-.06.16-.11.35-.17.55-1.2.24-4.13,1.14-4.75,4.22-.38,1.88-1,6.51.81,8.93 a 15,15,0,0,0,3.21,2.91,45,45,0,0,0,1.34,7.44 l .11.41 c 2.44,8.82,5.78,20.9,19.55,23.73 a 147.65,147.65,0,0,0,27.81,2.57 c 2.57,0,4.64-.07,6-.18,5-.4,11.38-1.72,16.24-8.54,5.35-7.52,7.12-26.71,7.31-28.87 A 18.89,18.89,0,0,0,289,501.8 a 20,20,0,0,1,10.72-3.44,21,21,0,0,1,10.83,3.33,18.84,18.84,0,0,0-2.41,11.63 c .18,2.16,2,21.35,7.31,28.87,4.85,6.82,11.23,8.15,16.24,8.54,1.33.1,3.4.18,6,.18 a 147.65,147.65,0,0,0,27.81-2.57 c 13.77-2.83,17.11-14.91,19.55-23.73 l .11-.41 a 45,45,0,0,0,1.34-7.44,15,15,0,0,0,3.21-2.91 C 391.57,511.43,390.89,506.8,390.52,504.92Z m -179.11,7.71 c -.92-1.19-1.09-4.06-.44-7.32 a 3.34,3.34,0,0,1,2.32-2.41,55.93,55.93,0,0,0-.46,11.18 A 10,10,0,0,1,211.41,512.63Z m 78,.52 c -.65,7.65-2.85,22.12-6.94,27.88-4.37,6.14-10.19,7.35-14.76,7.71 a 143.39,143.39,0,0,1-33.22-2.36 c -12.57-2.58-15.59-13.52-18-22.31 l -.11-.41 c -2.5-9-1.48-20.1-.5-22.84 s 3.54-4.12,7.89-5.65 a 87.41,87.41,0,0,1,27.79-4.32 c 11.45,0,25.22,3.21,31.33,7.31 C 287.73,501.47,289.94,506.51,289.37,513.15Z m 10.37-16.79 a 21.79,21.79,0,0,0-11.86,3.79,16.26,16.26,0,0,0-1.31-1.48 c 1.44-1.36,5.73-4.69,13.17-4.69 A 20.16,20.16,0,0,1,313,498.6 a 16.3,16.3,0,0,0-1.31,1.45 A 22.81,22.81,0,0,0,299.74,496.36Z m 83.48,27.3-.11.41 c -2.43,8.79-5.45,19.72-18,22.31 a 143.48,143.48,0,0,1-33.22,2.36 c -4.58-.36-10.39-1.56-14.76-7.71-4.1-5.76-6.29-20.23-6.94-27.88-.57-6.64,1.64-11.68,6.55-15,6.11-4.1,19.87-7.31,31.33-7.31 a 87.41,87.41,0,0,1,27.79,4.32 c 4.35,1.53,6.9,2.88,7.89,5.65 S 385.72,514.63,383.22,523.67Z m 4.9-11 a 10,10,0,0,1-1.43,1.46,56,56,0,0,0-.46-11.18,3.35,3.35,0,0,1,2.32,2.41 C 389.21,508.57,389,511.44,388.12,512.63Z"/>
  </g>
<script type="text/ecmascript" xlink:href="param.min.js"/> 
</svg>
