<?xml version="1.0"?>
<svg xmlns="http://www.w3.org/2000/svg" xmlns:xlink="http://www.w3.org/1999/xlink" viewBox="0 0 600 1032.36">
  <title>ES021</title>
  <g id="outline">
    <path d="M 362.81,523.72 c 5,5.34,17,14.63,39.64,12.73,0,0-27.87-1.46-37.26-15.55,4.92,4.9,21.82,17.64,55.72,3.48,0,0-34.48,10.88-51.47-4.89,6.15,4,20.93,9.81,45.17-2.68,0,0-29.09,9.85-42.68.41,6.54,3,23,7.11,45.44-11.49,0,0-23.48,18-45.45,7.64 l .38-.34 a 57,57,0,0,1-56.57,0,6.67,6.67,0,0,0,1,1.09,19.76,19.76,0,0,0,.26,19.56 s -3.19-9.89,1.25-17.9 a 33.85,33.85,0,0,0,2.25,22.14 c -1.87-7.93-2-14.38.33-19.87-.72,4.9-2,19.13,6,28.88,0,0-6.86-10.5-2.26-26.67-.8,5.45-1.77,20.58,8.92,33.47,0,0-8.59-15-5.8-32.43-.18,6.6.35,29.28,15.33,39.48 a 47.12,47.12,0,0,1-11-39.07 l .08,0 c -.2,4.12-.45,22.4,12,35.48,0,0-11.08-16.45-8.29-34.57 l .12,0 c -.48,4.61-1.53,27.89,24.16,42.79,0,0-22-15.52-20.53-39.85.22,6.61,2.58,21.38,18.08,32.2,0,0-15-14.32-15.27-33.81,1.1,6.73,6.76,29.58,33.79,40.27,0,0-26.59-13.78-29.55-40.59 h 0 c 1.12,4.91,6.72,23.56,28.64,33.76,0,0-21.37-13.6-25.44-33.74,2.49,6.58,13.91,31.59,44.11,34.11,0,0-33.32-7.32-40.54-34.67,2.3,4.83,11.38,20.2,35.67,25.9,0,0-23.23-8.22-31.84-26.15,4.83,6.45,22.6,26.56,54.09,22.47 C 411.25,545.37,379.29,545.84,362.81,523.72Z"/>
    <path d="M 284.28,513 a 57,57,0,0,1-56.57,0 l .38.34 c -22,10.33-45.45-7.64-45.45-7.64,22.42,18.61,38.89,14.49,45.44,11.49-13.59,9.45-42.68-.41-42.68-.41,24.25,12.49,39,6.65,45.17,2.68-17,15.76-51.47,4.89-51.47,4.89,33.9,14.16,50.8,1.41,55.72-3.48-9.39,14.09-37.26,15.55-37.26,15.55,22.61,1.9,34.66-7.39,39.64-12.73-16.49,22.12-48.45,21.65-48.45,21.65,31.49,4.1,49.26-16,54.09-22.47 C 234.23,540.83,211,549,211,549 c 24.29-5.7,33.37-21.07,35.67-25.9-7.22,27.35-40.54,34.67-40.54,34.67,30.2-2.51,41.61-27.53,44.11-34.11-4.07,20.14-25.44,33.74-25.44,33.74,21.92-10.2,27.52-28.85,28.64-33.76 h 0 c -3,26.81-29.55,40.59-29.55,40.59,27-10.69,32.69-33.55,33.79-40.27-.3,19.49-15.27,33.81-15.27,33.81,15.5-10.82,17.86-25.59,18.08-32.2 C 262,549.94,240,565.47,240,565.47 c 25.69-14.91,24.64-38.19,24.16-42.79 l .12,0 c 2.79,18.11-8.29,34.57-8.29,34.57,12.41-13.08,12.16-31.36,12-35.48 l .08,0 a 47.12,47.12,0,0,1-11,39.07 c 15-10.19,15.51-32.87,15.33-39.48,2.79,17.44-5.8,32.43-5.8,32.43,10.69-12.89,9.71-28,8.92-33.47,4.6,16.17-2.26,26.67-2.26,26.67,7.94-9.74,6.7-24,6-28.88,2.3,5.48,2.2,11.94.33,19.87 a 33.85,33.85,0,0,0,2.25-22.14 c 4.44,8,1.25,17.9,1.25,17.9 a 19.76,19.76,0,0,0,.26-19.56 A 6.65,6.65,0,0,0,284.28,513Z"/>
  </g>
  <g id="misc-objects">
    <path d="M 238.53,478.61 a 18.9,18.9,0,0,0,37.8,0 c 0-10.44-18.86-33-18.86-33 S 238.54,468.17,238.53,478.61Z" fill="#8dd8f8"/>
    <path d="M 247.83,496.33 a 20.16,20.16,0,0,1-10.54-17.72 c 0-10.77,18.44-32.84,19.22-33.78 l 1-1.14,1,1.14 c .78.94,19.16,23.05,19.15,33.82 a 20.14,20.14,0,0,1-29.74,17.68Z m 9.63-48.73 c -3.81,4.71-17.68,22.46-17.69,31 a 17.65,17.65,0,0,0,35.31,0 C 275.09,470.09,261.26,452.31,257.46,447.59Z" fill="#00aeef"/>
    <path d="M 269.39,474.69 c 1.85,1.31,3.73,6.38-.54,12.38 s -9.66,5.9-11.51,4.58,2-2.33,6.23-8.33 S 267.54,473.37,269.39,474.69Z" fill="#fff"/>
    <path d="M 341.9,497 a 7.74,7.74,0,0,0,15.48,0 c 0-4.27-7.72-13.52-7.72-13.52 S 341.91,492.76,341.9,497Z" fill="#8dd8f8"/>
    <path d="M 345.71,504.29 a 8.25,8.25,0,0,1-4.31-7.26 c 0-4.41,7.55-13.45,7.87-13.83 l .39-.47.39.47 c .32.38,7.85,9.44,7.84,13.85 a 8.24,8.24,0,0,1-12.18,7.24Z m 3.94-20 c -1.56,1.93-7.24,9.2-7.24,12.7 a 7.23,7.23,0,0,0,14.46,0 C 356.87,493.54,351.21,486.26,349.65,484.33Z" fill="#00aeef"/>
    <path d="M 354.54,495.43 c .76.54,1.53,2.61-.22,5.07 s -4,2.41-4.71,1.88.81-1,2.55-3.41 S 353.78,494.89,354.54,495.43Z" fill="#fff"/>
  </g>
<script type="text/ecmascript" xlink:href="param.min.js"/> 
</svg>
