<?xml version="1.0"?>
<svg xmlns="http://www.w3.org/2000/svg" xmlns:xlink="http://www.w3.org/1999/xlink" id="Layer_1" data-name="Layer 1" viewBox="0 0 600 1032.4">
  <title>ES021</title>
  <g id="outline">
    <path d="M 188.7,545.3 a 57.42,57.42,0,0,0,54.1-22.5 C 234.2,540.8,211,549,211,549 c 24.3-5.7,33.4-21.1,35.7-25.9-7.2,27.3-40.5,34.7-40.5,34.7,30.2-2.5,41.6-27.5,44.1-34.1-4.1,20.1-25.4,33.7-25.4,33.7,21.9-10.2,27.5-28.9,28.6-33.8 h 0 c -3,26.8-29.5,40.6-29.5,40.6,27-10.7,32.7-33.5,33.8-40.3-.3,19.5-15.3,33.8-15.3,33.8,15.5-10.8,17.9-25.6,18.1-32.2,1.5,24.3-20.5,39.8-20.5,39.8,25.7-14.9,24.6-38.2,24.2-42.8 h .1 c 2.8,18.1-8.3,34.6-8.3,34.6,12.5-13.1,12.2-31.4,12-35.5 h .1 a 47.18,47.18,0,0,1-11,39.1 c 15-10.2,15.5-32.9,15.3-39.5,2.8,17.4-5.8,32.4-5.8,32.4,10.7-12.9,9.7-28,8.9-33.5,4.6,16.2-2.3,26.7-2.3,26.7,8-9.8,6.7-24,6-28.9,2.3,5.5,2.2,11.9.3,19.9 a 33.66,33.66,0,0,0,2.2-22.1 c 4.4,8,1.2,17.9,1.2,17.9 a 20.11,20.11,0,0,0,.3-19.6,5.24,5.24,0,0,0,1-1.1,57.14,57.14,0,0,1-56.6,0 l .4.3 c -22,10.4-45.5-7.6-45.5-7.6,22.4,18.6,38.9,14.5,45.4,11.5-13.6,9.4-42.7-.4-42.7-.4,24.2,12.5,39,6.7,45.2,2.7-17,15.8-51.5,4.9-51.5,4.9,33.9,14.2,50.8,1.4,55.7-3.5-9.4,14.1-37.3,15.5-37.3,15.5,22.6,1.9,34.6-7.4,39.6-12.7 C 220.7,545.8,188.8,545.4,188.7,545.3Z"/>
    <path d="M 316.7,514.2 a 19.61,19.61,0,0,0,.3,19.6 s -3.2-9.9,1.2-17.9 a 33.66,33.66,0,0,0,2.2,22.1 c -1.9-7.9-2-14.4.3-19.9-.7,4.9-1.9,19.1,6,28.9,0,0-6.9-10.5-2.3-26.7-.8,5.5-1.8,20.6,8.9,33.5,0,0-8.6-15-5.8-32.4-.2,6.6.3,29.3,15.3,39.5 a 47.18,47.18,0,0,1-11-39.1 h .1 c -.2,4.1-.4,22.4,12,35.5,0,0-11.1-16.5-8.3-34.6 h .1 c -.5,4.6-1.5,27.9,24.2,42.8,0,0-22-15.5-20.5-39.9.2,6.6,2.6,21.4,18.1,32.2,0,0-15-14.3-15.3-33.8,1.1,6.7,6.8,29.6,33.8,40.3,0,0-26.5-13.8-29.5-40.6 h 0 c 1.1,4.9,6.7,23.6,28.6,33.8,0,0-21.4-13.6-25.4-33.7,2.5,6.6,13.9,31.6,44.1,34.1,0,0-33.3-7.3-40.5-34.7,2.3,4.8,11.4,20.2,35.7,25.9,0,0-23.2-8.2-31.8-26.1 a 57.42,57.42,0,0,0,54.1,22.5 s -32,.5-48.5-21.7 c 5,5.3,17,14.6,39.6,12.7,0,0-27.9-1.5-37.3-15.5,4.9,4.9,21.8,17.6,55.7,3.5,0,0-34.5,10.9-51.5-4.9,6.2,4,20.9,9.8,45.2-2.7,0,0-29.1,9.9-42.7.4,6.6,3,23,7.1,45.4-11.5,0,0-23.5,18-45.5,7.6 l .4-.3 a 57.14,57.14,0,0,1-56.6,0 A 6.29,6.29,0,0,1,316.7,514.2Z"/>
  </g>
  <g id="misc-objects">
    <path d="M 342.5,445.6 s -18.9,22.6-18.9,33 a 18.9,18.9,0,0,0,37.8,0 C 361.5,468.2,342.5,445.6,342.5,445.6Z" fill="#8dd8f8"/>
    <path d="M 352.1,496.3 a 19.82,19.82,0,0,1-9.6,2.4,20.19,20.19,0,0,1-20.2-20.1 c 0-10.8,18.4-32.9,19.1-33.8 l 1-1.1,1,1.1 c .8.9,19.2,23,19.2,33.8 a 19.67,19.67,0,0,1-10.5,17.7Z m -9.6-48.7 c -3.8,4.7-17.6,22.5-17.6,31 a 17.7,17.7,0,0,0,35.4,0 c -.1-8.5-13.9-26.3-17.8-31Z" fill="#00aeef"/>
    <path d="M 336.4,483.3 c 4.2,6,8.1,7,6.2,8.3 s -7.2,1.4-11.5-4.6-2.4-11.1-.5-12.4 S 332.2,477.3,336.4,483.3Z" fill="#fff"/>
    <path d="M 250.3,483.5 s -7.7,9.2-7.7,13.5 a 7.7,7.7,0,1,0,15.4,0 C 258.1,492.8,250.3,483.5,250.3,483.5Z" fill="#8dd8f8"/>
    <path d="M 254.3,504.3 a 7.82,7.82,0,0,1-3.9,1,8.17,8.17,0,0,1-8.2-8.2 c 0-4.4,7.5-13.5,7.8-13.9 l .4-.5.4.5 c .3.4,7.9,9.4,7.9,13.8 a 8.72,8.72,0,0,1-4.4,7.3Z m -3.9-20 c -1.6,1.9-7.2,9.2-7.2,12.7 a 7.2,7.2,0,1,0,14.4,0 c 0-3.5-5.7-10.8-7.2-12.7Z" fill="#00aeef"/>
    <path d="M 247.8,499 c 1.7,2.4,3.3,2.9,2.5,3.4 s -3,.6-4.7-1.9-1-4.5-.2-5.1 S 246.1,496.6,247.8,499Z" fill="#fff"/>
  </g>
<script type="text/ecmascript" xlink:href="param.min.js"/> 
</svg>
