<?xml version="1.0"?>
<svg xmlns="http://www.w3.org/2000/svg" xmlns:xlink="http://www.w3.org/1999/xlink" viewBox="0 0 600 1032.36">
  <title>EW008</title>
  <g id="main-colour">
    <path d="M 337.24,493.53 c -12.33,3.17-31.5,12.22-37.31,12.32-9.15.15-22.19-9-42.35-13.49 a 114,114,0,0,0-56.5,2 c 5.5,28.83,23.17,47.17,34.5,53.33 s 27.33,6.67,37-.5,13.5-18.17,15.67-21.67,5.83-10.66,11.52-10.66,8,4.5,16.15,19.33 a 35.11,35.11,0,0,0,25.83,18 c 3.33.33,12.67,1.83,26.33-7.17 s 28.33-32.83,30-50.33 C 374.41,486.2,349.58,490.36,337.24,493.53Z M 281.37,528 c -2.62,6-4.62,11.13-17,14.75 s -28-.87-37.37-10.37-12.12-18.62-9.62-25.87,13.5-12.75,37.63-8 c 12.94,2.55,22.63,6.75,26.25,12.38 S 284,522,281.37,528Z m 91.17,4.38 c -9.37,9.5-25,14-37.37,10.38 s -14.37-8.75-17-14.75-3.5-11.5.13-17.12,13.31-9.83,26.25-12.37 c 24.12-4.75,35.12.75,37.62,8 S 381.91,522.86,372.54,532.36Z" fill="param(main_colour)"/>
  </g>
  <g id="fixed-colours">
    <path d="M 255,498.49 c 12.94,2.55,22.62,6.75,26.25,12.38 S 284,522,281.37,528 s -4.62,11.13-17,14.75-28-.87-37.37-10.37-12.12-18.62-9.62-25.87 S 230.87,493.74,255,498.49Z" opacity="0.5"/>
    <path d="M 344.54,498.49 c -12.94,2.55-22.62,6.75-26.25,12.38 S 315.54,522,318.16,528 s 4.63,11.13,17,14.75,28-.87,37.38-10.37,12.13-18.62,9.63-25.87 S 368.66,493.74,344.54,498.49Z" opacity="0.5"/>
  </g>
  <g id="outline">
    <path d="M 254,553.43 c -8.37,0-16.86-3-24.65-8.77-12.42-9.27-26.38-29.48-29.06-50.17 l -.11-.81.78-.26 c 35-11.77,71.59,2,75.65,3.59,2.11.83,4.23,1.76,6.28,2.66,6.1,2.67,11.86,5.19,16.87,5.19 s 10.77-2.52,16.87-5.19 c 2-.9,4.17-1.82,6.28-2.66,4.06-1.61,40.69-15.36,75.65-3.59 l .78.26-.11.81 c -2.68,20.69-16.64,40.9-29.06,50.17-12.89,9.62-27.73,11.42-40.71,4.93-10-5-15-15.3-18.25-22.12-.76-1.57-1.41-2.92-2-3.94-2.89-5-6.15-7.66-9.44-7.66 h 0 c -3.29,0-6.56,2.65-9.44,7.66-.59,1-1.24,2.38-2,3.94-3.29,6.82-8.25,17.12-18.26,22.12 A 35.72,35.72,0,0,1,254,553.43Z m -51.61-58.38 c 2.86,19.85,16.25,39.11,28.16,48,12.26,9.16,26.34,10.88,38.62,4.74,9.39-4.7,14.18-14.63,17.35-21.2.77-1.6,1.44-3,2.07-4.07,3.26-5.67,7.13-8.66,11.18-8.66 s 7.92,3,11.18,8.66 c .63,1.09,1.29,2.47,2.07,4.07,3.17,6.57,8,16.5,17.35,21.2,12.29,6.14,26.36,4.42,38.62-4.74,11.92-8.9,25.3-28.16,28.16-48-34-11.08-69.53,2.24-73.49,3.81-2.07.82-4.18,1.74-6.21,2.63-6.3,2.76-12.25,5.36-17.67,5.36 s -11.38-2.6-17.67-5.36 c -2-.89-4.14-1.81-6.21-2.63 C 271.92,497.3,236.44,484,202.39,495.05Z"/>
    <path d="M 344.13,545 c -11.86,0-20.41-5.13-24.24-11.44-6.46-10.65-6.69-19.19-.7-25.38,4.85-5,11.67-8,23.53-10.29 l .19,1-.19-1 c 15.39-3,27.79-2.63,34,.95,6.72,3.87,9.07,11.54,6.11,20-2.81,8.07-13.59,21.07-26.52,24.47 A 48,48,0,0,1,344.13,545Z m 17.37-47.14 a 98.8,98.8,0,0,0-18.4,2 c -11.42,2.21-17.93,5-22.47,9.71-5.28,5.45-5,13.17,1,23,6.43,10.6,22.25,12,34.22,8.88 S 378.37,525.66,381,518.2 c 2.66-7.64.71-14.23-5.22-17.64 C 372.61,498.76,367.7,497.85,361.5,497.85Z"/>
    <path d="M 255.4,545 a 47.94,47.94,0,0,1-12.2-1.66 c -12.94-3.4-23.72-16.4-26.52-24.47-3-8.49-.61-16.16,6.11-20,6.23-3.58,18.63-3.93,34-.95 h 0 c 11.86,2.29,18.67,5.28,23.53,10.29,6,6.19,5.76,14.73-.7,25.38 C 275.81,539.87,267.26,545,255.4,545Z M 238,497.85 c -6.2,0-11.1.91-14.24,2.71-5.93,3.41-7.88,10-5.22,17.64,2.59,7.46,13,20,25.14,23.19 s 27.8,1.72,34.22-8.88 c 5.93-9.78,6.25-17.5,1-23-4.54-4.69-11.05-7.5-22.47-9.71 h 0 A 98.83,98.83,0,0,0,238,497.85Z"/>
  </g>
<script type="text/ecmascript" xlink:href="param.min.js"/> 
</svg>
