<?xml version="1.0"?>
<svg xmlns="http://www.w3.org/2000/svg" xmlns:xlink="http://www.w3.org/1999/xlink" viewBox="0 0 600 1032.36">
  <title>EW003</title>
  <g id="main-colour">
    <path d="M 313.37,496.11 c -11.37,3.88-20,2.38-28.75-.5 s -25.76-9.17-49-8.5 c -21.62.63-37.52,8.58-37.37,9.88.88,7.88,7.63,28.63,21.13,40.5 s 34.63,16.88,49.75,11,19.13-20,24.25-26.75,7.38-9.87,16.13,6,23.13,28.88,49.5,21.13,38.88-32.12,42-51.75 C 366.62,477.36,324.74,492.24,313.37,496.11Z M 290,514.42 c -.9,2.69-6.4,20.82-22.15,28.82 s -51-2.5-59.62-40.25 c 0,0,15-9.87,38.13-8.5 s 36.25,7.13,41.38,10 S 290.92,511.73,290,514.42Z M 376.37,531 c -12.75,12.13-24.12,16.38-37.12,14.63 S 315.49,530.74,311,518.49 s -2.5-12.5,8.38-17.25 c 7.57-3.31,31.63-9.25,49.37-6.12 S 391,502.74,391,502.74,389.12,518.86,376.37,531Z" fill="param(main_colour)"/>
  </g>
  <g id="fixed-colours">
    <path d="M 290,514.42 c -.9,2.69-6.4,20.82-22.15,28.82 s -51-2.5-59.62-40.25 c 0,0,15-9.87,38.13-8.5 s 36.25,7.13,41.38,10 S 290.92,511.73,290,514.42Z" fill="#fff" opacity="0.5"/>
    <path d="M 311.79,504.49 c 5.13-2.87,18.25-8.62,41.38-10 s 38.13,8.5,38.13,8.5 c -8.62,37.75-43.87,48.25-59.62,40.25 s -21.25-26.12-22.15-28.82 S 306.66,507.36,311.79,504.49Z" fill="#fff" opacity="0.5"/>
  </g>
  <g id="outline">
    <path d="M 255.33,551.91q-1,0-2.13,0 a 55,55,0,0,1-40.31-19.57 A 68.55,68.55,0,0,1,197.25,497 l -.08-.66.58-.33 c 32.45-18.29,73.07-6.27,84.75-2.14,6.13,2.17,10.65,3.58,17.27,3.58 S 310.9,496,317,493.85 c 11.68-4.12,52.29-16.15,84.75,2.14 l .58.33-.08.66 a 68.55,68.55,0,0,1-15.64,35.31,55,55,0,0,1-40.31,19.57 c -23.73,1-32.79-15-38.78-25.57-2.88-5.09-5.16-9.11-7.79-9.11 s -4.91,4-7.79,9.11 C 286.17,536.56,277.48,551.91,255.33,551.91Z m -56-54.5 A 66.57,66.57,0,0,0,214.41,531 a 53,53,0,0,0,38.88,18.87 c .7,0,1.4,0,2.07,0,21,0,29-14.17,34.88-24.6,3.2-5.66,5.73-10.13,9.53-10.13 s 6.33,4.47,9.53,10.13 c 6.1,10.77,14.44,25.52,37,24.56 A 53,53,0,0,0,385.12,531 a 66.57,66.57,0,0,0,15.09-33.59 c -31.62-17.4-71.11-5.7-82.51-1.67-6.33,2.23-11,3.7-17.93,3.7 s -11.6-1.46-17.93-3.7 C 270.43,491.71,230.94,480,199.32,497.41Z"/>
    <path d="M 255.46,546.93 c -21.56,0-43.13-19-48.19-43.87 l -.14-.66.57-.37 c .6-.4,15-9.66,37.84-8.66,21.79,1,45.22,8.43,46.44,14.81.6,3.13-2.42,13.12-8.69,22.27-4.28,6.25-11.45,14.07-21.36,15.9 A 35.71,35.71,0,0,1,255.46,546.93Z m -46.09-43.58 c 6.21,28.73,32.36,44.67,52.2,41,9.23-1.7,16-9.13,20.07-15.06,6.24-9.12,8.81-18.5,8.37-20.77-.83-4.37-21.56-12.18-44.56-13.19 C 225.8,494.5,212.26,501.67,209.37,503.35Z"/>
    <path d="M 344.07,546.93 a 35.71,35.71,0,0,1-6.47-.59 c -9.91-1.82-17.09-9.65-21.36-15.9-6.27-9.15-9.28-19.14-8.69-22.27,1.22-6.38,24.65-13.85,46.44-14.81,22.81-1,37.24,8.27,37.84,8.66 l .57.37-.14.66 C 387.2,528,365.64,546.93,344.07,546.93Z m 13.27-51.64 c -1.07,0-2.16,0-3.27.07-23,1-43.73,8.82-44.56,13.19-.43,2.27,2.13,11.65,8.37,20.77,4.06,5.93,10.84,13.36,20.07,15.06,19.84,3.65,46-12.3,52.2-41 C 387.43,501.76,375.22,495.29,357.35,495.29Z"/>
  </g>
<script type="text/ecmascript" xlink:href="param.min.js"/> 
</svg>
