<?xml version="1.0"?>
<svg xmlns="http://www.w3.org/2000/svg" xmlns:xlink="http://www.w3.org/1999/xlink" viewBox="0 0 600 1032.36">
  <title>EW002</title>
  <g id="main-colour">
    <path d="M 388.24,513.36 c -.12-3.62-1.37-10.12-10.25-13.37 s -31.75-4.62-45.37-2.5-25.08,8.06-32.48,7.95 c -6.15-.09-16-4.82-22.65-6.2 s -19.87-3.87-41-2.12-25.25,10.25-24.5,16 c -3.12,1-4,3.88-2,7.75 s 5.13,4.75,6.75,7.25,4.13,7.13,6.38,11.13,3.25,5.88,9.25,7.13,31.38,3,44.25-1 S 290,528.74,292,522.74 s 4.92-8.15,8.15-8.14,6,2.51,7.35,6.26,3.25,12,6,16.88,6.88,8.13,17.63,9.38,32.37.5,37.75-1.12,6.63-3.62,9.38-8.5,4.63-10.12,7-11.25,6-5.12,6.13-8 S 390.49,513.74,388.24,513.36Z M 287,519.49 c -.5,5.25-5,15.88-7,18.88 s -12.5,4.25-22.25,4.75 a 79.36,79.36,0,0,1-24.12-2.37 c -6.25-1.62-11.5-12.5-13.62-17.62 s -3.87-12,1.38-15,16.74-6,30.5-6 c 6.38,0,18.13.38,27,3.63 S 287.49,514.24,287,519.49Z m 92.12,5.13 c -2.12,5.5-5.5,13.63-13.37,16.5 s -25.87,1.75-32.62,1.25-12.25-2.12-14-4.87-7.25-16-6.5-23,10.88-9.71,15.88-10.75 c 24.63-5.12,49.25,2.25,52,5.88 S 381.24,519.11,379.12,524.61Z" fill="param(main_colour)"/>
  </g>
  <g id="fixed-colours">
    <path d="M 253,502.24 c -11.75.18-25.12,2.13-30.87,5.5 s -4.75,8.25-3,13.5,6.75,16.13,13.5,19.13,27.25,4,38.12,1.63,10-5.12,11.38-7.75,6.38-16,4.38-21 S 277.74,501.86,253,502.24Z" fill="#fff" opacity="0.5"/>
    <path d="M 346.54,502.24 c 11.75.18,25.13,2.13,30.88,5.5 s 4.75,8.25,3,13.5-6.75,16.13-13.5,19.13-27.25,4-38.12,1.63-10-5.12-11.37-7.75-6.37-16-4.37-21 S 321.79,501.86,346.54,502.24Z" fill="#fff" opacity="0.5"/>
  </g>
  <g id="outline">
    <path d="M 347.07,548.8 c -8.41,0-17-.53-21.64-1.8-8.9-2.47-12.12-5-14.34-11.47-1.07-3.1-2.13-6.39-3.05-9.3 s -1.69-5.29-2.12-6.36 a 6.58,6.58,0,0,0-12.31,0 c -.43,1.07-1.21,3.53-2.12,6.37 s -2,6.19-3.05,9.29 c -2.23,6.43-5.45,9-14.34,11.47-8.53,2.37-31,2.16-40.08.77-8.56-1.3-10.43-4.7-12.07-7.7 l -.39-.71 c -1.58-2.79-5.52-10.14-6.23-11.48 a 57.06,57.06,0,0,1-5.42-4.29 l -.14-.16 c -2.43-3.6-1.84-8.48-1.82-8.68 l 0-.33.24-.24 a 11.47,11.47,0,0,1,2.35-1.73 c -.07-8.1,6-13.08,18.57-15.19 a 149,149,0,0,1,39.05-.63 c 1.84.27,4.51.82,7.59,1.46,7.15,1.48,16.94,6.34,24,6.34 s 16.84-4.86,24-6.34 c 3.08-.64,5.75-1.19,7.59-1.46 a 149,149,0,0,1,39.05.63 C 383,499.36,389,504.34,389,512.44 a 11.49,11.49,0,0,1,2.35,1.73 l .24.24,0,.33 c 0,.21.61,5.08-1.82,8.68 l -.14.16 a 57.06,57.06,0,0,1-5.42,4.29 c -.72,1.34-4.65,8.69-6.23,11.48 l -.39.71 c -1.65,3-3.51,6.4-12.08,7.7 A 139.43,139.43,0,0,1,347.07,548.8Z m -47.31-35.18 a 8.53,8.53,0,0,1,8,5.51 c .46,1.14,1.21,3.5,2.17,6.5 s 2,6.17,3,9.25 c 2,5.8,4.68,7.89,13,10.2,8,2.23,30.36,2.08,39.25.73,7.58-1.16,9.06-3.84,10.62-6.69 l .41-.73 c 1.72-3,6.28-11.56,6.32-11.64 l .11-.21.2-.14 a 59.61,59.61,0,0,0,5.3-4.16,12,12,0,0,0,1.46-6.87,10.63,10.63,0,0,0-2.14-1.42 l -.58-.29,0-.65 c .13-2.68.52-10.83-16.89-13.76 a 146.56,146.56,0,0,0-38.43-.62 c -1.79.26-4.42.81-7.47,1.44-7.23,1.5-17.14,6.38-24.4,6.38 s -17.16-4.89-24.39-6.38 c -3.05-.63-5.69-1.18-7.47-1.44 a 146.51,146.51,0,0,0-38.43.62 c -17.4,2.93-17,11.08-16.89,13.76 l 0,.65-.58.29 a 10.61,10.61,0,0,0-2.14,1.42,12,12,0,0,0,1.46,6.87,59.54,59.54,0,0,0,5.3,4.16 l .2.14.11.21 c 0,.09,4.6,8.61,6.32,11.64 l .41.73 c 1.56,2.84,3,5.53,10.62,6.69,8.89,1.36,31.2,1.51,39.25-.73,8.31-2.3,11-4.4,13-10.2,1.07-3.07,2.11-6.35,3-9.24 s 1.71-5.37,2.17-6.5 A 8.53,8.53,0,0,1,299.77,513.61Z"/>
    <path d="M 251.05,544 c -1.68,0-3,0-3.9-.05-7.35-.25-16.38-1.25-20.92-6.8 s -11.73-19.7-9.06-26.25 c 2.83-6.91,22.45-9.67,34.95-9.84 h 0 c 10.43-.15,25.23,2,30.92,5.64,5.89,3.8,5,9.42,4.15,14.39-.67,4.1-3.67,16.3-8.67,19.61 C 274.31,543.52,259,544,251.05,544Z m 1.09-40.94 c -14.63.2-31,3.47-33.12,8.59-2.25,5.5,4.48,19,8.75,24.23,4,4.94,12.51,5.84,19.44,6.07,8.29.28,26.25-.3,30.19-2.92,3.68-2.44,6.82-12.29,7.79-18.18.8-4.87,1.54-9.39-3.25-12.48-5.2-3.35-19.61-5.45-29.8-5.32Z"/>
    <path d="M 348.48,544 c -8,0-23.26-.52-27.46-3.3-5-3.31-8-15.51-8.66-19.52-.83-5.06-1.75-10.68,4.14-14.48,5.68-3.67,20.48-5.77,30.92-5.64,12.5.17,32.12,2.93,34.95,9.84,2.68,6.55-4.58,20.77-9.06,26.25 s -13.57,6.56-20.92,6.8 C 351.51,544,350.16,544,348.48,544Z m -2.05-40.95 c -10.12,0-23.8,2.08-28.84,5.33-4.79,3.09-4,7.6-3.26,12.39,1,6,4.12,15.83,7.8,18.27,3.95,2.61,21.9,3.2,30.19,2.92,6.93-.23,15.4-1.13,19.44-6.07,4.27-5.22,11-18.72,8.75-24.23-2.1-5.13-18.49-8.4-33.12-8.59 h -1Z"/>
  </g>
<script type="text/ecmascript" xlink:href="param.min.js"/> 
</svg>
