<?xml version="1.0"?>
<svg xmlns="http://www.w3.org/2000/svg" xmlns:xlink="http://www.w3.org/1999/xlink" viewBox="0 0 600 1032.36">
  <title>EW006</title>
  <g id="main-colour">
    <path d="M 315,499.24 c -7.5-7.87-23.75-7.12-30.5-.12-31-15-62.62-2.87-76.37,6.63.38,3.25.13,13.25.13,13.25 a 46.11,46.11,0,0,0,8,5.63,89.15,89.15,0,0,0,8.25,18.5 c 29.75,9.88,51,2.25,58.75-2.37,3.13-12,3.38-32.12,3.38-32.12 s 3-5.51,13.15-5.51,13.1,5.51,13.1,5.51.75,19.38,3.25,32.25 c 22.88,11.88,51,5.38,58.75,2.5,1.5-2.75,6.63-12.62,8.38-18.75,3.5-1,8-5.87,8-5.87 s 0-7.5.13-12.62 C 358.87,483.49,323.12,493.61,315,499.24Z m -37.62,37.5 c -5.5,3.13-32.5,9-48.12,1.13-5.25-8.75-9.75-21.12-10.12-29.37,0-.62,11.13-8.5,27.63-8.62 s 30.13,5,33.13,7.25 C 280.24,513.49,279.49,530.36,277.37,536.74Z M 370.12,538 c -10.5,4.5-29.62,5.88-48.25-.87-2.37-11.87-2.37-29.87-2.37-29.87 a 62.87,62.87,0,0,1,26.38-7.12 c 15.5-.75,28.5,3.63,34.37,8.5 C 379.24,517.61,373.87,533.86,370.12,538Z" fill="param(main_colour)"/>
  </g>
  <g id="fixed-colours">
    <path d="M 219.41,507.86 a 62.84,62.84,0,0,1,28.83-8 c 16.83-.5,29.75,5.83,31.63,7.25.37,7.92-.37,23.5-2.5,29.63-8.13,4.63-35,8.29-48.12,1.13 C 223.58,527.36,219.58,516.86,219.41,507.86Z" fill="#fff" opacity="0.5"/>
    <path d="M 380.12,507.86 a 62.84,62.84,0,0,0-28.83-8 c -16.83-.5-29.75,5.83-31.62,7.25-.37,7.92.37,23.5,2.5,29.63,8.13,4.63,35,8.29,48.13,1.13 C 376,527.36,380,516.86,380.12,507.86Z" fill="#fff" opacity="0.5"/>
  </g>
  <g id="outline">
    <path d="M 348.19,542.77 A 73.32,73.32,0,0,1,321.63,538 l -.49-.2-.11-.52 c -2.87-13.09-2.53-30.09-2.52-30.26v-.57 l .5-.28 a 68,68,0,0,1,30.74-7.35 c 17.25,0,29.09,6.65,31.23,8.94 l .3.32,0,.44 c -.68,8-5.37,23.15-10.18,30 l -.15.21-.24.11 C 366,541.13,357.66,542.77,348.19,542.77Z m -25.33-6.39 c 17.33,6.67,38.06,4.8,46.72.82,4.37-6.39,8.84-20.58,9.63-28.32-2.49-2.14-13.51-8-29.46-8 a 67.87,67.87,0,0,0-29.26,6.83 C 320.45,510.73,320.45,525,322.86,536.38Z"/>
    <path d="M 346,548.81 c -9.8,0-20.7-1.68-30.4-7.08 l -.4-.22-.09-.45 A 189.82,189.82,0,0,1,312,508.93 c -2.28-3.12-6.39-4.7-12.23-4.7 s -10,1.58-12.23,4.7 a 189.82,189.82,0,0,1-3.14,32.13 l -.09.45-.4.22 c -25.47,14.18-59.23,2.69-59.57,2.57 l -.35-.12-.19-.32 c -.25-.43-6-10.33-8.35-18.41 a 26.77,26.77,0,0,1-7.79-5.94 l -.24-.27-.4-13.89.44-.31 c .2-.14,19.9-13.93,43.08-13.93,20,0,30.88,5.25,33.77,6.87,3-3.32,8.66-5.27,15.46-5.27 s 12.48,2,15.46,5.27 c 2.89-1.63,13.78-6.87,33.77-6.87,23.18,0,42.88,13.79,43.08,13.93 l .44.31-.4,13.89-.24.27 a 26.77,26.77,0,0,1-7.79,5.94 c -2.35,8.08-8.1,18-8.35,18.41 l -.19.32-.35.12 A 99.77,99.77,0,0,1,346,548.81Z m -29-8.6 c 23.27,12.65,53.59,3.48,57.18,2.32,1-1.83,6.12-10.95,8.09-18.06 l .13-.46.44-.19 a 24.21,24.21,0,0,0,7.28-5.36 l .35-12.08 c -3-2-20.84-13.27-41.48-13.27-22.49,0-33.34,6.94-33.45,7 l -.79.52-.56-.76 c -2.4-3.24-7.8-5.17-14.43-5.17 s -12,1.93-14.43,5.17 l -.56.76-.79-.52 c -.11-.07-11-7-33.45-7-20.66,0-38.5,11.28-41.48,13.27 l .35,12.08 a 24.3,24.3,0,0,0,7.28,5.36 l .44.19.13.46 c 2,7.12,7,16.24,8.09,18.06,3.58,1.16,33.92,10.32,57.18-2.32 a 187.59,187.59,0,0,0,3-31.6v-.31 l .17-.26 c 2.64-3.86,7.36-5.82,14.05-5.82 s 11.42,2,14.05,5.82 l .17.26v.31 A 187.59,187.59,0,0,0,317,540.21Z"/>
    <path d="M 251.47,542.8 l -2,0 c -8.11-.2-16-1.69-20.59-3.88 l -.24-.11-.15-.21 c -4.81-6.84-9.5-22-10.18-30 l 0-.44.3-.32 c 2.14-2.29,14-8.94,31.23-8.94 a 68,68,0,0,1,30.74,7.35 l .5.28v.57 c 0,.17.34,17.17-2.52,30.26 l -.11.52-.49.2 A 72.73,72.73,0,0,1,251.47,542.8Z M 230,537.2 c 8.66,4,29.39,5.85,46.72-.82,2.41-11.41,2.4-25.65,2.37-28.68 a 68,68,0,0,0-29.26-6.83 c -15.94,0-27,5.87-29.46,8 C 221.11,516.61,225.58,530.81,230,537.2Z"/>
  </g>
<script type="text/ecmascript" xlink:href="param.min.js"/> 
</svg>
