<?xml version="1.0"?>
<svg xmlns="http://www.w3.org/2000/svg" xmlns:xlink="http://www.w3.org/1999/xlink" viewBox="0 0 600 1032.36">
  <title>EW004</title>
  <g id="main-colour">
    <path d="M 392,500.11 c -16.37-11.75-29.75-13.12-39.62-13.25 s -29.87,4-41.12,11.75 c -6.12-6.25-19-5.87-22.87,0-8.87-4.87-24.25-12.75-44.87-11.62 s -36.25,12.88-36.25,12.88 L 205.87,514 s 3.5,3.75,6.63,6.75 c 2.13,13.63,13.63,29.25,26.25,33.13 s 26.88,2.75,38-6.12,12.35-31.56,12.5-42.12 c 9.75-9.12,15.75-4.87,21,0-1.12,34.88,15.75,55.13,43.63,50.13 S 387.12,521,387.12,521 l 6.63-7 S 392.87,505.49,392,500.11Z m -117.37,39.5 c -8.37,9.38-22,12.25-37,5.88 s -20-24.12-20.5-31,1.75-14.12,28.63-19 c 13.12-2.38,26.88.75,36.63,9.38 C 283.49,513.86,283,530.24,274.62,539.61Z m 107.79-25.12 c -.5,6.88-5.5,24.63-20.5,31 s -28.62,3.5-37-5.87-8.87-25.75-7.75-34.75 c 9.75-8.62,23.5-11.76,36.63-9.37 C 380.66,500.36,382.91,507.61,382.41,514.49Z" fill="param(main_colour)"/>
  </g>
  <g id="fixed-colours">
    <path d="M 245.74,495.49 c 13.12-2.38,26.87.75,36.62,9.38,1.13,9,.63,25.38-7.75,34.75 s -22,12.25-37,5.88-20-24.12-20.5-31 S 218.87,500.36,245.74,495.49Z" fill="#fff" opacity="0.5"/>
    <path d="M 353.79,495.49 c -13.12-2.38-26.87.75-36.62,9.38-1.12,9-.62,25.38,7.75,34.75 s 22,12.25,37,5.88,20-24.12,20.5-31 S 380.66,500.36,353.79,495.49Z" fill="#fff" opacity="0.5"/>
  </g>
  <g id="outline">
    <path d="M 347.4,557.09 c -11.29,0-19.81-3-26-9.15-8.23-8.15-12.09-21.56-12.13-42.18-2.9-3-5.92-4.49-9.24-4.49 h -.47 c -3.32,0-6.35,1.47-9.24,4.49,0,20.62-3.91,34-12.13,42.18-6.32,6.26-15,9.27-26.62,9.15-17.19-.16-27.19-10-32.55-18.15 a 55.51,55.51,0,0,1-7.49-17.53 l -6.62-6.8v-.42 a 138.1,138.1,0,0,1,1.43-14.37 l .06-.42.35-.25 c 33.56-24,67.62-9.71,81.4-2,2.71-2.54,7-4,11.65-4 s 8.94,1.5,11.65,4 c 13.77-7.75,47.83-22,81.4,2 l .35.25.06.42 a 138.1,138.1,0,0,1,1.43,14.37v.42 L 388,521.4 a 55.51,55.51,0,0,1-7.49,17.53 c -5.36,8.19-15.36,18-32.55,18.15Z m -47.87-57.82 H 300 c 4,0,7.6,1.77,11,5.41 l .27.29v.39 c 0,20.27,3.67,33.35,11.54,41.15,5.92,5.87,14.17,8.69,25.2,8.57,31.21-.29,38.09-34,38.15-34.36 l .06-.29,6.44-6.61 c -.06-1.44-.34-6.46-1.33-13.29-33.07-23.35-66.63-8.65-79.56-1.23 l -.69.4-.54-.59 c -1.76-1.92-5.51-4-10.74-4 s -9,2-10.74,4 l -.54.59-.69-.4 c -12.93-7.43-46.49-22.12-79.56,1.23-1,6.84-1.27,11.86-1.33,13.29 l 6.44,6.61.06.29 c .07.34,6.95,34.07,38.15,34.36,11,.1,19.27-2.7,25.2-8.57,7.88-7.8,11.54-20.88,11.54-41.15V505 l .27-.29 C 291.93,501,295.52,499.27,299.53,499.27Z"/>
    <path d="M 253.64,550 h -.77 c -7.8-.16-16.1-2.87-21.66-7.06-12.18-9.18-17.29-28.49-14.75-34.47 S 234.35,494,253.56,494 s 29,9.37,29.43,9.77 l .23.23.05.32 c .15.86,3.47,21.33-7.17,35.19 C 269.54,548.09,260.41,550,253.64,550Z M 253.56,496 c -19.48,0-33.31,8.58-35.26,13.17 s 2.19,23.11,14.11,32.09 c 5.24,3.95,13.09,6.5,20.5,6.65,6.36.15,15.3-1.43,21.61-9.63,9.39-12.22,7.22-30.6,6.84-33.3 C 279.76,503.64,270.29,496,253.56,496Z"/>
    <path d="M 345.89,550 c -6.77,0-15.9-1.88-22.46-10.42-10.64-13.85-7.32-34.32-7.17-35.19 l .05-.32.23-.23 c .41-.4,10.24-9.77,29.43-9.77 s 34.55,8.38,37.1,14.39-2.57,25.29-14.75,34.47 c -5.56,4.19-13.86,6.89-21.66,7.06Z M 318.18,505 c -.38,2.7-2.55,21.08,6.84,33.3,6.3,8.2,15.23,9.78,21.61,9.63,7.4-.15,15.26-2.7,20.5-6.65,11.92-9,16.11-27.38,14.11-32.09 S 365.45,496,346,496 C 329.24,496,319.77,503.64,318.18,505Z"/>
  </g>
<script type="text/ecmascript" xlink:href="param.min.js"/> 
</svg>
