<?xml version="1.0"?>
<svg xmlns="http://www.w3.org/2000/svg" xmlns:xlink="http://www.w3.org/1999/xlink" viewBox="0 0 600 1032.36">
  <title>EW007</title>
  <g id="main-colour">
    <path d="M 388.24,509.36 c -.5-1.62-3.75-1.62-6.37-1.75-.5-4-3.87-10.25-7.62-13.5 s -12.37-6.12-26.5-6.25 a 133.28,133.28,0,0,0-23.87,1.75 h -46 a 248.49,248.49,0,0,0-26.25-1.87 c -11.62,0-21.37,2.25-26.37,6.5 s -7.87,13.63-7.87,13.63 a 38.27,38.27,0,0,0-5.25.5 c -1.5.38-1.5,3.5-1.5,6.38 s 3.38,2.63,5.38,2.75 c -.62,10.25,2.41,20.71,9.25,28.13,4.5,4.88,15.63,7.25,24.63,6.38,19.5-1.75,32.75-15,38.13-24.12 s 6.38-17.5,4.63-24.75 c 3.75-2.87,9.25-3.5,14.38-.25 a 38.89,38.89,0,0,0,2.63,21.5 c 5.38,13.25,22,24.88,36.63,27.25 s 28.25-2.25,33.12-12,4.13-22.25,4.13-22.25 a 8,8,0,0,0,4.24-.81 C 389.59,515.5,388.74,511,388.24,509.36Z M 282.62,527.49 c -4.25,5.88-10.87,14.13-23.37,18.5 s -26,2.25-32.37-5.62-6.12-18.62-4.12-29.75 c 1.46-8.11,6.88-16.12,18.25-17.75 s 26.75,0,32.75.75,13,5.25,15,11.25 S 286.87,521.61,282.62,527.49Z m 26.1-28 c -5.33-4.29-12-5.7-17.91,0 a 19.55,19.55,0,0,0-5.23-6.19 h 28.71 A 22.09,22.09,0,0,0,308.72,499.54Z m 63.94,40.83 c -6.37,7.88-19.87,10-32.37,5.63 s -19.12-12.62-23.37-18.5-8.12-16.62-6.12-22.62,9-10.5,15-11.25,21.38-2.37,32.75-.75,16.79,9.64,18.25,17.75 C 378.79,521.74,379,532.49,372.66,540.36Z" fill="param(main_colour)"/>
  </g>
  <g id="fixed-colours">
    <path d="M 383.82,518.36 l -.06-2 a 9.19,9.19,0,0,0,3.84-.73 c .45-.85.32-5.45-.35-6.15-.48-.43-3-.68-4.93-.62 l -.06-2 c 1.15,0,5,0,6.32,1.13,1.59,1.41,1.51,7.37.7,8.71 S 385.52,518.31,383.82,518.36Z"/>
    <path d="M 376.79,510.61 c -1.46-8.11-6.87-16.12-18.25-17.75 s -26.75,0-32.75.75-13,5.25-15,11.25,1.88,16.75,6.13,22.63,10.88,14.13,23.38,18.5,26,2.25,32.38-5.62 S 378.79,521.74,376.79,510.61Z" opacity="0.5"/>
    <path d="M 222.74,510.61 c 1.46-8.11,6.88-16.12,18.25-17.75 s 26.75,0,32.75.75,13,5.25,15,11.25-1.87,16.75-6.12,22.63-10.87,14.13-23.37,18.5-26,2.25-32.37-5.62 S 220.74,521.74,222.74,510.61Z" opacity="0.5"/>
  </g>
  <g id="outline">
    <path d="M 245.27,553.29 c -12,0-24.09-5-28.23-19.14 a 50.24,50.24,0,0,1-1.27-22.7 c 1-5.93,3.18-11.33,5.71-14.46,4.15-5.12,10-10.12,31.53-10.12,19.88,0,30.16,2.26,35.47,7.81,7.25,7.57,7.86,19,1.67,31.39-6.7,13.4-21.22,23.82-37,26.54 A 46.65,46.65,0,0,1,245.27,553.29Z M 253,488.86 c -20.65,0-26.13,4.63-30,9.38-4.39,5.43-8.56,20-4.07,35.34,4.7,16.06,20.57,19.34,33.87,17 C 268,548,281.92,538,288.35,525.17 c 5.79-11.58,5.31-22.19-1.33-29.11 C 280.95,489.72,266.41,488.86,253,488.86Z"/>
    <path d="M 245.6,549.37 h -.54 c -10.53-.16-19.53-6.11-22.92-15.15-3.08-8.21-2.05-27.38,5-35.51 h 0 c 3.94-4.53,10.24-6.95,18.73-7.18,8.07-.22,25.18,0,32.18,2.39,9.37,3.19,13.78,10.42,11.82,19.33 a 41.48,41.48,0,0,1-14.84,24.39 C 266,545.21,255.51,549.37,245.6,549.37Z M 228.66,500 c -6.52,7.5-7.5,25.91-4.65,33.49,3.15,8.39,11.22,13.7,21.08,13.85,9.58.14,19.78-3.86,28.68-11.27 a 39.6,39.6,0,0,0,14.16-23.28 c 2.48-11.27-6.52-15.65-10.51-17-6.73-2.29-23.54-2.5-31.48-2.28 s -13.71,2.4-17.27,6.49Z"/>
    <path d="M 215.71,518.36 c -1.7-.05-4.66-.34-5.46-1.67 s -.89-7.29.7-8.71 c 1.32-1.17,5.17-1.16,6.32-1.13 l -.06,2 c -1.94-.05-4.45.19-4.93.62-.66.69-.79,5.3-.32,6.18 a 9.76,9.76,0,0,0,3.81.69Z"/>
    <path d="M 354.27,553.29 a 46.65,46.65,0,0,1-7.9-.69 c -15.76-2.72-30.27-13.13-37-26.54-6.19-12.38-5.58-23.82,1.67-31.39,5.31-5.55,15.59-7.81,35.47-7.81,21.53,0,27.38,5,31.53,10.12,2.53,3.12,4.66,8.53,5.71,14.46 a 50.24,50.24,0,0,1-1.27,22.7 C 378.35,548.32,366.27,553.29,354.27,553.29Z m -7.73-64.42 c -13.42,0-28,.85-34,7.19-6.63,6.92-7.12,17.53-1.33,29.11,6.43,12.85,20.37,22.85,35.53,25.46,13.29,2.29,29.18-1,33.87-17,4.49-15.36.33-29.91-4.07-35.34 C 372.67,493.5,367.19,488.86,346.54,488.86Z"/>
    <path d="M 353.93,549.37 c -9.92,0-20.36-4.15-29.45-11.74 a 41.49,41.49,0,0,1-14.84-24.39 c -2-8.91,2.46-16.14,11.82-19.33,7-2.39,24.11-2.61,32.18-2.39,8.49.23,14.79,2.64,18.73,7.18 h 0 c 7.07,8.13,8.09,27.3,5,35.51-3.39,9-12.39,15-22.92,15.15Z m -5.62-55.9 c -8.62,0-20.74.48-26.21,2.35-4,1.36-13,5.74-10.51,17 a 39.61,39.61,0,0,0,14.16,23.28 c 8.9,7.41,19.1,11.4,28.68,11.27,9.85-.15,17.93-5.46,21.08-13.85,2.84-7.59,1.87-26-4.65-33.49 h 0 c -3.56-4.09-9.37-6.28-17.27-6.49 C 352.1,493.49,350.3,493.46,348.31,493.46Z"/>
    <rect x="275.95" y="488.67" width="47.64" height="2"/>
    <rect x="285.33" y="492.35" width="28.88" height="2"/>
    <path d="M 308,500.2 a 11.46,11.46,0,0,0-16.41,0 l -1.5-1.32 a 13.45,13.45,0,0,1,19.41,0Z"/>
    <path d="M 292.9,503.76 l -1.18-1.61 a 13.41,13.41,0,0,1,16.1,0 l -1.18,1.61 a 11.41,11.41,0,0,0-13.73,0Z"/>
  </g>
<script type="text/ecmascript" xlink:href="param.min.js"/> 
</svg>
