<?xml version="1.0"?>
<svg xmlns="http://www.w3.org/2000/svg" xmlns:xlink="http://www.w3.org/1999/xlink" viewBox="0 0 600 1032.36">
  <title>EW009</title>
  <g id="main-colour">
    <path d="M 244.62,482.49 c 14.49-.42,26.12.88,44.62,10.88,4.38-3.87,11.75-7.75,20.88,0,13-7.25,28.38-12,48.63-10.75 s 35.38,11.5,35.88,13.75.5,6.75-1.87,6.75-3.5-.12-3.5,2.63-.25,6.25-2.75,6.38-4.58,0-4.58,0,0-9.12-3.12-12.25-19-5.62-33.79-5.62-28.87,3.75-30.87,5.5 a 6.73,6.73,0,0,0-2.5,5.63 c 0,2.13.09,4.38-1,4.63 s -4.67-6.37-5.42-8.12-2.07-4.21,1.25-6 a 11.88,11.88,0,0,0-13.62,0 c 2.38,1.38,2.88,3,1.75,5.13 s -4.37,9.25-5.75,9-.62-4.25-1.25-6.87-3.37-5-10.75-6.5-24.87-3.25-36.75-1.87-18.5,3.5-20.12,6.25-2.37,11.13-2.37,11.13-3.5.63-5.62-.37-1.62-4.5-1.75-6.62-1.62-2.25-3.12-2.12-2.62-1.5-2.37-3.37.5-5,3-6.5 S 227.24,483,244.62,482.49Z" fill="param(main_colour)"/>
  </g>
  <g id="fixed-colours">
    <path d="M 218.55,513.53 s -.93,12.71,1.57,22.83,26.5,11.75,39,10.75,22.25-11.37,25.25-20.25 a 139.53,139.53,0,0,0,4.5-16.87 s -1-1.12-1.12-4.25-.62-5.62-5.12-7.37-17.87-4.37-32.12-4.12-27.12,3.13-29.5,5.13-3.37,12.75-3.37,12.75Z" opacity="0.5"/>
    <path d="M 381,513.53 s .93,12.71-1.57,22.83-26.5,11.75-39,10.75-22.25-11.37-25.25-20.25 a 139.53,139.53,0,0,1-4.5-16.87 s 1-1.12,1.13-4.25.63-5.62,5.13-7.37 S 334.79,494,349,494.24 s 27.13,3.13,29.5,5.13,3.38,12.75,3.38,12.75Z" opacity="0.5"/>
  </g>
  <g id="outline">
    <path d="M 217.58,513.53 a 29.81,29.81,0,0,1-5.2-.52 c -3-.61-3-3.82-3-6.65,0-.33,0-.66,0-1 a 1.6,1.6,0,0,0-.28-1.12 c -.32-.29-1.21-.2-1.93-.13-.39,0-.78.08-1.12.08-.52,0-1.47-.26-2-2-.68-2.26-.56-7.2,2.12-9 h 0 c 4.48-3,20.94-12.65,44.76-11.67,21.8.9,36,8.85,42.54,13.52,3.43,2.45,3.24,3.87,2,6.32-.12.23-.24.48-.36.75 s -.35.77-.56,1.23 c -2.52,5.62-4,8.06-5.73,7.66 s -1.9-2.59-2-4.9 c 0-.81-.05-1.65-.14-2.47-.26-2.36-2.44-4.86-16.5-7.12-21.91-3.33-41.67.65-47.8,3.11-2.59,1-3.75,8.48-3.87,12.93 l 0,1Z M 208.25,502 a 3.18,3.18,0,0,1,2.22.72,3.35,3.35,0,0,1,.94,2.6 c 0,.34,0,.68,0,1,0,3,.08,4.41,1.37,4.67 a 27.22,27.22,0,0,0,3.85.45 c .18-3.18,1.05-12.12,5.08-13.73,6.3-2.52,26.53-6.62,48.85-3.23,14.58,2.35,17.76,5.14,18.18,8.88.1.9.13,1.82.15,2.63 a 9.93,9.93,0,0,0,.34,2.93 c 1-.73,2.82-4.85,3.54-6.45 l .57-1.25 c .13-.28.26-.55.38-.79.89-1.8,1-2.08-1.39-3.81-6.35-4.54-20.18-12.27-41.46-13.15-23.23-1-39.22,8.43-43.57,11.33-.85.57-1.44,2-1.56,3.88 a 6.53,6.53,0,0,0,.5,3.45 c .24,0,.49,0,.76-.06 A 12.46,12.46,0,0,1,208.25,502Z"/>
    <path d="M 382,513.53 h -1 l 0-1 c -.12-4.45-1.28-11.9-3.87-12.93-6.13-2.45-25.89-6.44-47.81-3.11-14,2.26-16.23,4.76-16.49,7.12-.09.82-.12,1.66-.14,2.47-.07,2.31-.14,4.49-2,4.9 s -3.21-2-5.73-7.66 c -.21-.46-.4-.88-.56-1.23 s -.25-.52-.36-.75 c -1.21-2.45-1.41-3.87,2-6.32,6.53-4.66,20.74-12.62,42.54-13.52,23.83-1,40.29,8.68,44.76,11.67 h 0 c 2.68,1.79,2.8,6.72,2.12,9-.53,1.75-1.48,2-2,2-.34,0-.73,0-1.12-.08-.72-.07-1.61-.16-1.93.13 a 1.6,1.6,0,0,0-.28,1.12 c 0,.33,0,.67,0,1,0,2.83.07,6-3,6.65 A 29.81,29.81,0,0,1,382,513.53Z m -35.54-20.28 c 14.82,0,26.82,2.68,31.41,4.52,4,1.61,4.9,10.55,5.08,13.73 a 27.22,27.22,0,0,0,3.85-.45 c 1.29-.26,1.4-1.62,1.37-4.67,0-.33,0-.68,0-1 a 3.35,3.35,0,0,1,.94-2.6 c 1-.89,2.36-.75,3.47-.63.26,0,.52.05.76.06 a 6.53,6.53,0,0,0,.5-3.45 c -.12-1.86-.71-3.31-1.56-3.88-4.35-2.9-20.35-12.3-43.57-11.33-21.28.87-35.11,8.61-41.46,13.15-2.42,1.73-2.28,2-1.39,3.81.12.25.25.51.38.79 l .57,1.25 c .72,1.6,2.57,5.72,3.54,6.45 a 9.89,9.89,0,0,0,.34-2.93 c 0-.81.05-1.73.15-2.63.42-3.74,3.6-6.53,18.17-8.88 A 116.37,116.37,0,0,1,346.42,493.25Z"/>
    <path d="M 289.71,494.07 l -1.32-1.5 c .21-.18,5.09-4.44,11.38-4.44 s 11.17,4.26,11.38,4.44 l -1.32,1.5 s -4.54-3.94-10.05-3.94 S 289.76,494,289.71,494.07Z"/>
    <path d="M 293,496.48 l -.92-1.78 a 15.77,15.77,0,0,1,15.4,0 l -.92,1.78 A 13.77,13.77,0,0,0,293,496.48Z"/>
  </g>
<script type="text/ecmascript" xlink:href="param.min.js"/> 
</svg>
