<?xml version="1.0"?>
<svg xmlns="http://www.w3.org/2000/svg" xmlns:xlink="http://www.w3.org/1999/xlink" viewBox="0 0 600 1032.36">
  <title>EW005</title>
  <g id="main-colour">
    <path d="M 220.81,496.06 c -2.33,1.55-8.38,5.71-10.32,8.39-2.17,7.25-3,23.42-1,29.5,2.44,3.81,8.11,6.63,11.23,7.86 C 215.86,532.33,215.09,509.09,220.81,496.06Z" fill="param(main_colour)"/>
    <path d="M 378.72,496.06 c 2.33,1.55,8.38,5.71,10.32,8.39,2.17,7.25,3,23.42,1,29.5-2.44,3.81-8.11,6.63-11.23,7.86 C 383.67,532.33,384.44,509.09,378.72,496.06Z" fill="param(main_colour)"/>
    <path d="M 299.77,503.23 a 12.22,12.22,0,0,1,9.6,4.47 c 2.13,2.91,2.13,4.74.69,5.2 s -5.52-4.9-10.29-4.78-8.07,5.38-10.17,4.81 S 289.29,503.86,299.77,503.23Z" fill="param(main_colour)"/>
  </g>
  <g id="fixed-colours">
    <path d="M 289.6,512.93 c -1.18-.32-1.13-3.16,1-5.69-16.45-11.53-46.27-15.83-68.87-13.13-7.25,13.5-6,41.75.25,49.75,22.25,4,52.75,0,63.5-7,0,0,4.76-9.32,5.81-24.37 A 2.31,2.31,0,0,1,289.6,512.93Z" fill="#fff" opacity="0.5"/>
    <path d="M 377.79,494.11 c -22.58-2.7-52.38,1.59-68.84,13.11.14.16.29.31.42.48,2.13,2.91,2.13,4.74.69,5.2-.41.13-1-.22-1.85-.78,1,15.27,5.83,24.74,5.83,24.74,10.75,7,41.25,11,63.5,7 C 383.79,535.86,385,507.61,377.79,494.11Z" fill="#fff" opacity="0.5"/>
  </g>
  <g id="outline">
    <path d="M 220.17,540.65 c -3-1.33-7.44-3.73-9.68-6.88-1.15-4.14-1.82-17,.83-28.91 a 51.45,51.45,0,0,1,8.81-7.12,30.16,30.16,0,0,1,1.42-3.24,56.07,56.07,0,0,0-11.87,9.18 l -.19.2-.06.26 c -2.64,11.59-2.26,25.48-.82,30.34 l .13.28 c 3.26,4.74,10.63,7.81,12.95,8.69 A 15.62,15.62,0,0,1,220.17,540.65Z"/>
    <path d="M 379.36,540.65 c 3-1.33,7.44-3.73,9.68-6.88,1.15-4.14,1.82-17-.83-28.91 a 51.45,51.45,0,0,0-8.81-7.12 A 30.16,30.16,0,0,0,378,494.5 a 56.07,56.07,0,0,1,11.87,9.18 l .19.2.06.26 c 2.64,11.59,2.26,25.48.82,30.34 l -.13.28 c -3.26,4.74-10.63,7.81-12.95,8.69 A 15.62,15.62,0,0,0,379.36,540.65Z"/>
    <path d="M 309.92,514 a 4.24,4.24,0,0,1-2.73-1.29 c -2-1.81-5.24-3.73-7.43-3.73 s -5.46,1.92-7.42,3.73 c -1.42,1.31-2.95,1.65-4,.9-.51-.37-1.54-1.55-.18-4.42 a 13.11,13.11,0,0,1,23.15,0 c 1.36,2.87.33,4.05-.18,4.42 A 2,2,0,0,1,309.92,514Z m -10.16-9.77 A 10.82,10.82,0,0,0,290,510 c -.61,1.29-.49,1.88-.43,2 s .65-.07,1.42-.77 c 2.23-2.05,5.93-4.26,8.78-4.26 s 6.55,2.21,8.78,4.26 c .76.7,1.32.8,1.44.75 s .16-.66-.45-1.95 A 10.82,10.82,0,0,0,299.77,504.23Z"/>
  </g>
<script type="text/ecmascript" xlink:href="param.min.js"/> 
</svg>
