<?xml version="1.0"?>
<svg xmlns="http://www.w3.org/2000/svg" xmlns:xlink="http://www.w3.org/1999/xlink" viewBox="0 0 600 1032.36">
  <title>EW001</title>
  <g id="main-colour">
    <path d="M 385.12,501.74 c 0-2.25-2.5-4.75-6.37-6.37-7.12-2.87-22.25-5.62-31.75-5.37 s -24.75,2.38-32.37,8.75 c -9.37-8.37-22.75-7.25-29.37-.12-7.37-4.62-16.37-8.12-33.75-8.5 a 76.35,76.35,0,0,0-31.25,5.5,8.61,8.61,0,0,0-5.87,6 c -5.5,1.25-5,6.5-4.62,9.63 s 4.24,4.94,4.24,4.94 l .89,5.56 c 2.75,13.25,8.25,22,14.75,24.38,7.83,2.86,27.25,4.25,35.63,3.88 s 13.75-2.5,17.88-8.5,6-17.62,6.75-24.5.88-10-2.12-15.5 c 7.5-5.62,18-4.87,24.13-.12-4.12,5.38-2.25,21.75.75,31.88 s 8,15.13,18.38,16.5,29-.75,40.87-4.12 c 8.88-6.62,13-21.62,13.74-29.43 a 8.8,8.8,0,0,0,4.51-7.94 C 390.12,504.49,388,502.36,385.12,501.74Z M 284.37,511.86 c -.5,6-2.87,19.38-4.5,23 s -4.37,7.75-10.75,8.88-17.5,1.13-28.12-.62-12.25-5.37-14.62-9.87-8.25-17.87-3.25-26.5,18.88-11.25,28-11.25 c 12.75,0,24.25,3.75,27.75,5.63 S 284.87,505.86,284.37,511.86Z m 93.87,5.5 c -.75,5.88-5.75,20.5-10.37,22.5 s -14.87,5.88-31.12,4.63-17.12-9.25-18.5-14.75-3.87-17.37-2.75-21.87,4.25-8.37,21-11.12 c 11.66-1.91,24.12-1.25,32.37,3.25 S 379,511.49,378.24,517.36Z" fill="param(main_colour)"/>
  </g>
  <g id="fixed-colours">
    <path d="M 253.12,495.36 c 14.5.39,24.75,4.5,27.87,7.13 s 4.13,6.25,3.25,12-3,18.88-5.75,23.25-7.5,6.5-15.87,6.75-23.25,0-30.37-4.12-10.5-18-11-22.75,0-12.37,8.5-17 S 243.74,495.11,253.12,495.36Z" fill="#fff" opacity="0.5"/>
    <path d="M 346.41,495.36 c -14.5.39-24.75,4.5-27.87,7.13 s -4.12,6.25-3.25,12,3,18.88,5.75,23.25,7.5,6.5,15.88,6.75,23.25,0,30.38-4.12,10.5-18,11-22.75,0-12.37-8.5-17 S 355.79,495.11,346.41,495.36Z" fill="#fff" opacity="0.5"/>
  </g>
  <g id="outline">
    <path d="M 278.32,499.41 c -2.57-1.16-12.2-5-28-5-5.34,0-15.4.8-22.84,6.19-7.29,5.28-9,13.54-5.11,25.25,2.76,8.41,6.17,13.43,10.47,15.37 a 64.9,64.9,0,0,0,23.46,4.08 c 3.1,0,6.06-.17,8.85-.39,7.54-.6,12.29-3.27,14.94-8.41,2.35-4.58,4.74-17.8,5.36-23.6 C 286.1,506.39,283.72,501.85,278.32,499.41Z m 5.09,13.31 c -.59,5.52-2.93,18.6-5.14,22.9-2.33,4.53-6.43,6.79-13.31,7.34-9,.72-19.82.85-31.38-3.54-3.71-1.67-6.76-6.3-9.34-14.15-3.59-10.93-2.19-18.24,4.39-23,7-5.06,16.57-5.81,21.66-5.81,15.43,0,24.73,3.66,27.21,4.79 C 282.14,503.33,284,507,283.41,512.71Z"/>
    <path d="M 372.08,500.63 c -7.44-5.39-17.5-6.19-22.84-6.19-15.83,0-25.46,3.8-28,5-5.39,2.44-7.78,7-7.08,13.52.62,5.8,3,19,5.36,23.6,2.64,5.14,7.39,7.82,14.94,8.41,2.79.22,5.74.39,8.83.39 a 65.07,65.07,0,0,0,23.54-4.1 c 4.25-1.92,7.65-6.94,10.41-15.35 C 381,514.17,379.37,505.91,372.08,500.63Z m 3.21,24.62 c -2.58,7.85-5.63,12.48-9.28,14.13-11.62,4.42-22.42,4.28-31.44,3.56-6.88-.55-11-2.81-13.31-7.34-2.21-4.3-4.56-17.38-5.14-22.9-.61-5.73,1.27-9.38,5.92-11.48,2.48-1.12,11.78-4.79,27.21-4.79,5.09,0,14.68.75,21.66,5.81 C 377.49,507,378.88,514.33,375.3,525.26Z"/>
    <path d="M 390.52,504.92 c -.61-3.07-3.54-4-4.75-4.22-.06-.2-.11-.39-.17-.55-1.26-3.5-4.29-5.16-9.11-6.85 A 89.53,89.53,0,0,0,348,488.86 c -12,0-25.94,3.29-32.44,7.65-.36.24-.71.49-1,.75 A 21.78,21.78,0,0,0,299.74,492 c -8.37,0-13.1,3.8-14.68,5.35-.36-.29-.74-.56-1.13-.83-6.5-4.36-20.45-7.65-32.44-7.65 A 89.53,89.53,0,0,0,223,493.3 c -4.82,1.69-7.85,3.36-9.11,6.85-.06.16-.11.35-.17.55-1.2.24-4.13,1.14-4.75,4.22-.38,1.88-1,6.51.81,8.93 a 15,15,0,0,0,3.21,2.91,45,45,0,0,0,1.34,7.44 l .11.41 c 2.44,8.82,5.78,20.9,19.55,23.73 a 147.65,147.65,0,0,0,27.81,2.57 c 2.57,0,4.64-.07,6-.18,5-.4,11.38-1.72,16.24-8.54,5.35-7.52,7.12-26.71,7.31-28.87 A 18.89,18.89,0,0,0,289,501.8 a 20,20,0,0,1,10.72-3.44,21,21,0,0,1,10.83,3.33,18.84,18.84,0,0,0-2.41,11.63 c .18,2.16,2,21.35,7.31,28.87,4.85,6.82,11.23,8.15,16.24,8.54,1.33.1,3.4.18,6,.18 a 147.65,147.65,0,0,0,27.81-2.57 c 13.77-2.83,17.11-14.91,19.55-23.73 l .11-.41 a 45,45,0,0,0,1.34-7.44,15,15,0,0,0,3.21-2.91 C 391.57,511.43,390.89,506.8,390.52,504.92Z m -179.11,7.71 c -.92-1.19-1.09-4.06-.44-7.32 a 3.34,3.34,0,0,1,2.32-2.41,55.93,55.93,0,0,0-.46,11.18 A 10,10,0,0,1,211.41,512.63Z m 78,.52 c -.65,7.65-2.85,22.12-6.94,27.88-4.37,6.14-10.19,7.35-14.76,7.71 a 143.39,143.39,0,0,1-33.22-2.36 c -12.57-2.58-15.59-13.52-18-22.31 l -.11-.41 c -2.5-9-1.48-20.1-.5-22.84 s 3.54-4.12,7.89-5.65 a 87.41,87.41,0,0,1,27.79-4.32 c 11.45,0,25.22,3.21,31.33,7.31 C 287.73,501.47,289.94,506.51,289.37,513.15Z m 10.37-16.79 a 21.79,21.79,0,0,0-11.86,3.79,16.26,16.26,0,0,0-1.31-1.48 c 1.44-1.36,5.73-4.69,13.17-4.69 A 20.16,20.16,0,0,1,313,498.6 a 16.3,16.3,0,0,0-1.31,1.45 A 22.81,22.81,0,0,0,299.74,496.36Z m 83.48,27.3-.11.41 c -2.43,8.79-5.45,19.72-18,22.31 a 143.48,143.48,0,0,1-33.22,2.36 c -4.58-.36-10.39-1.56-14.76-7.71-4.1-5.76-6.29-20.23-6.94-27.88-.57-6.64,1.64-11.68,6.55-15,6.11-4.1,19.87-7.31,31.33-7.31 a 87.41,87.41,0,0,1,27.79,4.32 c 4.35,1.53,6.9,2.88,7.89,5.65 S 385.72,514.63,383.22,523.67Z m 4.9-11 a 10,10,0,0,1-1.43,1.46,56,56,0,0,0-.46-11.18,3.35,3.35,0,0,1,2.32,2.41 C 389.21,508.57,389,511.44,388.12,512.63Z"/>
  </g>
<script type="text/ecmascript" xlink:href="param.min.js"/> 
</svg>
