<?xml version="1.0"?>
<svg xmlns="http://www.w3.org/2000/svg" xmlns:xlink="http://www.w3.org/1999/xlink" viewBox="0 0 600 1032.36">
  <title>EW010</title>
  <g id="main-colour">
    <path d="M 389.41,499.7 c -13.5-6.33-34.83-10.83-48.33-9.67 a 94,94,0,0,0-30.83,8.33 c -5.5,2.67-9.33,5-17.83,1.5 s -19.17-9.5-39.5-9.67-38.17,7.5-43,9.67 c 0,0-1.33,8.33.33,13.83,4.33,1,7.17,1.5,7.17,1.5 s 1.17,15.33,2.67,21.83,7.33,8.67,13.17,9.83,29.17,4,37.5.67,13.5-11,17.83-18,5.54-10.19,11.19-10.18,7.31,4.51,9,6.85,9.5,17,17.67,20.5,26.17,2.17,37.17.5,14.33-4.33,15.67-10,3-21.83,3-21.83 l 6.83-1.33 A 27.28,27.28,0,0,0,389.41,499.7Z m -104.33,22 c -2.33,5-8.17,16.67-16.5,19.67 s -21.33,2.33-31.67-.33-11.47-8.48-12.5-16.67.17-18.83,6.33-22.5,14.5-5.33,23.83-5 c 13.83.49,21.67,3.5,28.5,7 S 287.41,516.7,285.08,521.7Z m 90,2.67 c -1,8.18-2.17,14-12.5,16.67 s -23.33,3.33-31.67.33-14.17-14.67-16.5-19.67-4.83-14.33,2-17.83,14.67-6.51,28.5-7 c 9.33-.33,17.67,1.33,23.83,5 S 376.15,516.18,375.12,524.36Z" fill="param(main_colour)"/>
  </g>
  <g id="fixed-colours">
    <path d="M 254.58,496.86 c 13.83.49,21.67,3.5,28.5,7 s 4.33,12.83,2,17.83-8.17,16.67-16.5,19.67-21.33,2.33-31.67-.33-11.47-8.48-12.5-16.67.17-18.83,6.33-22.5 S 245.24,496.53,254.58,496.86Z" opacity="0.5"/>
    <path d="M 345,496.86 c -13.83.49-21.67,3.5-28.5,7 s -4.33,12.83-2,17.83,8.17,16.67,16.5,19.67,21.33,2.33,31.67-.33,11.47-8.48,12.5-16.67-.17-18.83-6.33-22.5 S 354.29,496.53,345,496.86Z" opacity="0.5"/>
  </g>
  <g id="outline">
    <path d="M 257.26,550.11 a 145.5,145.5,0,0,1-18.93-1.43 l -.3,0 c -6.79-.94-16.08-2.22-18.4-9.9-1.93-6.38-2.95-19.32-3.19-22.66 l -7.16-1.33-.13-.67 c -.07-.36-1.7-8.87,0-14.69 l .13-.44.42-.19 c 24.69-10.92,49.41-12.58,71.47-4.82 a 82.25,82.25,0,0,1,8.47,3.61 c 3.69,1.76,6.61,3.15,10.11,3.15 s 6.42-1.39,10.11-3.15 a 82.25,82.25,0,0,1,8.47-3.61 c 22.06-7.76,46.77-6.09,71.47,4.82 l .42.19.13.44 c 1.72,5.83.09,14.33,0,14.69 l -.13.67-7.16,1.33 c -.24,3.34-1.26,16.28-3.19,22.66-2.32,7.68-11.61,9-18.4,9.9 l -.3,0 c -8.54,1.18-29.22,3.34-37-2.07 s -13.54-15.3-16-19.49-4.17-6.68-8.49-6.68-6.09,2.52-8.49,6.68-8.08,14-16,19.49 C 271.46,549.29,264.42,550.11,257.26,550.11Z M 211,513 l 7.34,1.36.05.78 c 0,.16,1.05,16,3.16,23,1.95,6.46,10.16,7.59,16.76,8.5 l .3,0 c 6.48.89,28.19,3.41,35.57-1.73 s 13-14.77,15.37-18.85 c 2.51-4.35,4.86-7.68,10.22-7.68 s 7.71,3.33,10.22,7.68 c 2.35,4.07,7.86,13.62,15.37,18.85 s 29.1,2.62,35.57,1.73 l .3,0 c 6.6-.91,14.81-2,16.76-8.5,2.11-7,3.15-22.83,3.16-23 l .05-.78,7.34-1.36 c .33-2,1.17-8.19,0-12.64-24.07-10.53-48.12-12.12-69.56-4.58 a 80.57,80.57,0,0,0-8.28,3.53 c -3.92,1.87-7,3.34-11,3.34 s -7-1.48-11-3.34 a 80.57,80.57,0,0,0-8.28-3.53 c -21.44-7.54-45.49-6-69.56,4.58 C 209.81,504.85,210.66,511,211,513Z"/>
    <path d="M 255.42,544.49 a 76.74,76.74,0,0,1-23.34-3.75 c -3.2-1.1-5.62-4-7.2-8.57-3-8.63-2.1-21.78.69-26.09 S 234.21,496,252.24,496 c 14.59,0,26.11,4,32,7.65,6.15,3.84,4.58,12.71,1.36,19.13-3.05,6.11-8.74,17.47-18.62,20.35 A 42.47,42.47,0,0,1,255.42,544.49Z M 252.24,498 c -17.06,0-22.44,5.26-25,9.21-2.29,3.54-3.41,15.85-.48,24.35.94,2.73,2.74,6.22,6,7.33,9.26,3.19,24.23,5.08,33.73,2.32,9-2.63,14.47-13.49,17.38-19.32,2.84-5.67,4.37-13.41-.64-16.54 C 277.53,501.75,266.41,498,252.24,498Z"/>
    <path d="M 344.11,544.49 a 42.45,42.45,0,0,1-11.6-1.4 c -9.88-2.87-15.56-14.24-18.62-20.35-3.21-6.42-4.78-15.29,1.36-19.13,5.92-3.7,17.44-7.65,32-7.65,18,0,23.86,5.78,26.67,10.12 s 3.67,17.45.69,26.08 c -1.58,4.59-4,7.47-7.2,8.57 A 76.74,76.74,0,0,1,344.11,544.49Z M 347.29,498 c -14.17,0-25.29,3.8-31,7.35-5,3.13-3.47,10.86-.64,16.54,2.92,5.83,8.34,16.69,17.38,19.32,9.5,2.76,24.47.87,33.73-2.32,3.22-1.11,5-4.6,6-7.33,2.93-8.5,1.81-20.81-.48-24.34 C 369.72,503.21,364.35,498,347.29,498Z"/>
  </g>
<script type="text/ecmascript" xlink:href="param.min.js"/> 
</svg>
