<?xml version="1.0"?>
<svg xmlns="http://www.w3.org/2000/svg" xmlns:xlink="http://www.w3.org/1999/xlink" viewBox="0 0 600 1032.36">
  <title>EW012</title>
  <g id="main-colour">
    <path d="M 388.37,510.24 a 58.71,58.71,0,0,0-8,2 C 378.87,501,370.49,491.61,363,487 a 35.64,35.64,0,0,0-28.87-3.37 c -11,3.25-20.25,12.25-24.37,25.5-6.12-4.62-14.87-4.25-20.12.25 a 35.09,35.09,0,0,0-21.25-24.62 c -15.25-6.37-31.5-.62-39.62,8.13 A 40.46,40.46,0,0,0,219,512.11 s -4.12-1.12-8.12-2 c -3.25.63-2.25,5-1.12,5.38 s 8.63,2.75,8.63,2.75 a 50.78,50.78,0,0,0,3.13,14.13 c 4.75,13.13,26.88,28.75,46.5,19.5 s 23.38-25.37,22.5-38 c 8-6,18.75-.25,18.75-.25 s -3.62,14.63,8.13,28.13,33.13,17.88,48.87,5.63 A 36.77,36.77,0,0,0,380.87,518 s 3.75-1,9.05-2.52 C 392.22,511.32,389.62,510.11,388.37,510.24Z M 254.62,549 a 30.75,30.75,0,1,1,30.75-30.75 A 30.75,30.75,0,0,1,254.62,549Z m 90.29,0 a 30.75,30.75,0,1,1,30.75-30.75 A 30.75,30.75,0,0,1,344.91,549Z" fill="param(main_colour)"/>
  </g>
  <g id="fixed-colours">
    <circle cx="254.62" cy="518.24" r="30.75" opacity="0.5"/>
    <circle cx="344.91" cy="518.24" r="30.75" opacity="0.5"/>
  </g>
  <g id="outline">
    <path d="M 254.69,486.57 a 31.62,31.62,0,1,0,31.62,31.62 A 31.66,31.66,0,0,0,254.69,486.57Z m 0,61.24 a 29.62,29.62,0,1,1,29.62-29.62 A 29.66,29.66,0,0,1,254.69,547.82Z"/>
    <path d="M 344.84,486.57 a 31.62,31.62,0,1,0,31.62,31.62 A 31.66,31.66,0,0,0,344.84,486.57Z m 0,61.24 a 29.62,29.62,0,1,1,29.62-29.62 A 29.66,29.66,0,0,1,344.84,547.82Z"/>
    <path d="M 391.37,510.83 a 3.05,3.05,0,0,0-3.35-1.72 c -1.39.37-5,1.37-6.79,1.87 a 37.1,37.1,0,0,0-72-3.22,16.92,16.92,0,0,0-19,0,37.1,37.1,0,0,0-72,3.22 c -1.8-.5-5.41-1.5-6.79-1.87 a 3,3,0,0,0-3.35,1.72,4.31,4.31,0,0,0,.9,5.34 l .18.17.24.07 c 2.72.78,6.6,2,8.14,2.52 a 37.1,37.1,0,1,0,74-4.47,15.93,15.93,0,0,1,8.16-2.44,15.67,15.67,0,0,1,8.16,2.44q-.18,1.84-.19,3.74 a 37.1,37.1,0,0,0,74.19.73 c 1.54-.5,5.41-1.74,8.14-2.52 l .24-.07.18-.17 A 4.31,4.31,0,0,0,391.37,510.83Z m -181.47,1 c .29-.52.76-.85,1.08-.77,1.44.38,5.27,1.45,7,1.92 a 37.19,37.19,0,0,0-.34,3.87 c -1.74-.56-4.93-1.57-7.35-2.27 A 2.3,2.3,0,0,1,209.9,511.81Z m 44.79,41.49 a 35.1,35.1,0,1,1,35.1-35.1 A 35.14,35.14,0,0,1,254.69,553.3Z M 299.77,510 a 17.42,17.42,0,0,0-8.44,2.29 c -.14-.84-.3-1.67-.5-2.5 a 15,15,0,0,1,17.88,0 c -.19.82-.36,1.65-.49,2.5 A 17.45,17.45,0,0,0,299.77,510Z m 45.07,43.28 a 35.1,35.1,0,1,1,35.1-35.1 A 35.14,35.14,0,0,1,344.84,553.3Z m 44.42-38.74 c -2.41.7-5.6,1.71-7.35,2.27 a 37.19,37.19,0,0,0-.34-3.87 c 1.71-.47,5.54-1.54,7-1.92.33-.08.79.24,1.08.77 A 2.3,2.3,0,0,1,389.26,514.56Z"/>
  </g>
<script type="text/ecmascript" xlink:href="param.min.js"/> 
</svg>
