<?xml version="1.0"?>
<svg xmlns="http://www.w3.org/2000/svg" xmlns:xlink="http://www.w3.org/1999/xlink" viewBox="0 0 600 1032.36">
  <title>EW011</title>
  <g id="main-colour">
    <path d="M 376.24,504 c -.33-5.5-1.67-14-16-17.17 s -33.67-3.17-42.5.83-10.83,13.33-12,18.17-4,5.67-6,5.65-4,.35-5.85-5.32-1.83-10.67-6-14.67-14-7.83-32.83-6.67 S 229.91,490,226.58,494 s -3.5,10.67-3.5,10.67 l -7,.17 a 66.08,66.08,0,0,0,0,9.17,16.86,16.86,0,0,0,6.83,5.5,79.41,79.41,0,0,0,.67,10 c .67,4.33.5,10.67,5.67,14.33,8.83,6.83,24,7.67,33,7.33 S 278.08,548,282.41,543 s 7.5-16.83,9.33-20.33,4.83-4.33,8-4.35,7.15,1.68,8.15,4.51 a 137.87,137.87,0,0,0,7,17 c 3.5,6.83,13.33,13.17,32.67,11.33 s 24.17-8.33,26.33-11.33,2.5-12.83,2.83-20.17 c 3.67-1.67,6.83-5.83,6.83-5.83 l .17-9.33 S 379.91,504.36,376.24,504Z m -94.67,28.83 c -3.67,7.67-11.17,11.17-23.17,11.67 s -22.33-1.67-26.17-7.17-4-22.5-3.67-27.83.33-11.33,7.67-14.5,19.17-4,19.17-4 c 10.5-.5,18.67,1.17,23.67,3.83 s 6.5,8.67,6.67,14.5 S 285.24,525.2,281.58,532.86Z m 85.71,4.5 c -3.83,5.5-14.17,7.67-26.17,7.17 s -19.5-4-23.17-11.67-4.33-17.67-4.17-23.5,1.67-11.83,6.67-14.5,13.17-4.33,23.67-3.83 c 0,0,11.83.83,19.17,4 s 7.33,9.17,7.67,14.5 S 371.12,531.86,367.29,537.36Z" fill="param(main_colour)"/>
  </g>
  <g id="fixed-colours" opacity="0.5">
    <path d="M 255.41,491 c 10.5-.5,18.67,1.17,23.67,3.83 s 6.5,8.67,6.67,14.5-.5,15.83-4.17,23.5 S 270.41,544,258.41,544.53 s -22.33-1.67-26.17-7.17-4-22.5-3.67-27.83.33-11.33,7.67-14.5 S 255.41,491,255.41,491Z"/>
    <path d="M 344.12,491 c -10.5-.5-18.67,1.17-23.67,3.83 s -6.5,8.67-6.67,14.5.5,15.83,4.17,23.5,11.17,11.17,23.17,11.67,22.33-1.67,26.17-7.17,4-22.5,3.67-27.83-.33-11.33-7.67-14.5 S 344.12,491,344.12,491Z"/>
  </g>
  <g id="outline">
    <path d="M 377.13,503.62 a 44.21,44.21,0,0,0-.63-5.16 c -1-4.38-7-11.46-19.46-13-20.72-4-36.77-.5-42.49,2.83 s -7.41,8.47-8.76,13.52 l -.25,1 c -1.34,5.07-2.27,7.93-5.76,7.93 s -4.42-2.87-5.76-7.93 l -.25-1 c -1.36-5.05-3.15-10.26-8.76-13.52 s -21.77-6.82-42.43-2.84 C 230,487,224,494.08,223,498.46 a 44.2,44.2,0,0,0-.63,5.16 h -7.53v9.92 c 0,2.21,4.87,5.88,7.17,7.13 A 96.08,96.08,0,0,0,224,538.31 c 1.28,4.48,5.53,8.11,12.29,10.5 a 64.88,64.88,0,0,0,30.3,3 c 10.43-1.43,17.17-6.33,20.63-15,.69-1.72,1.44-3.63,2.17-5.5,1.41-3.6,2.74-7,3.5-8.69,1.46-3.26,6-3.43,6.88-3.43 s 5.42.17,6.88,3.43 c .76,1.7,2.09,5.09,3.5,8.69.73,1.87,1.48,3.78,2.17,5.5,3.45,8.63,10.2,13.52,20.63,15 a 64.86,64.86,0,0,0,30.3-3 c 6.76-2.39,11-6,12.31-10.55 a 95.81,95.81,0,0,0,1.94-17.58 c 2.31-1.25,7.17-4.92,7.17-7.13v-9.92Z m -160.26,9.92v-7.92 h 5.39 c -.22,3.56-.35,8-.28,12.72 C 219.69,516.87,217,514.33,216.87,513.54Z m 156.75,24.22 c -1.38,4.84-6.77,7.66-11,9.17 a 62.89,62.89,0,0,1-29.36,3 c -9.65-1.33-15.88-5.81-19-13.71-.69-1.71-1.43-3.62-2.16-5.49-1.42-3.62-2.76-7-3.54-8.78-1.92-4.28-7.15-4.61-8.7-4.61 s -6.79.33-8.7,4.61 c -.78,1.74-2.12,5.16-3.54,8.78-.73,1.87-1.48,3.77-2.16,5.49-3.16,7.9-9.39,12.39-19,13.71 a 62.88,62.88,0,0,1-29.36-3 c -4.27-1.51-9.65-4.32-11-9.11-3.08-13.46-1.89-34.65-.94-38.92.81-3.68,6.37-10,17.89-11.48,20-3.87,35.85-.46,41.11,2.59,5,2.88,6.54,7.47,7.84,12.31 l .25.95 c 1.28,4.84,2.49,9.42,7.69,9.42 s 6.41-4.58,7.69-9.42 l .25-.95 c 1.3-4.84,2.88-9.43,7.84-12.31,5.26-3.05,21.07-6.46,41.17-2.58,11.45,1.43,17,7.79,17.82,11.47 C 375.49,503.16,376.68,524.35,373.62,537.76Z m 3.93-19.42 c .08-4.7-.05-9.16-.28-12.72 h 5.39v7.9 C 382.55,514.33,379.84,516.87,377.54,518.34Z"/>
    <path d="M 344.29,490.2 c -13.73-.69-22.91,1.44-27.29,6.33-4.9,5.46-4.5,15.86-4.1,20.08 l 0,.17 c .5,5.28,2,21.34,14.29,26.18 a 44.67,44.67,0,0,0,16.27,2.8,59.26,59.26,0,0,0,17.08-2.45 c 6.39-2.13,9.28-6,10.67-14.11,1.18-6.93,1.92-26.41-2.05-31.14 S 353.49,490.66,344.29,490.2Z m 25,38.66 c -1.26,7.39-3.7,10.68-9.33,12.55-6.53,2.18-21,4-32-.31 s -12.56-19.53-13-24.51 l 0-.17 c -.29-3.09-.9-13.55,3.59-18.56,3.42-3.81,10.66-5.79,21.07-5.79q2.22,0,4.63.12 c 10.55.53,20.42,3.53,23.45,7.14 C 370.83,503.14,370.6,521,369.26,528.86Z"/>
    <path d="M 255.24,490.2 c -9.19.46-20.9,3.11-24.88,7.86 s -3.23,24.22-2.05,31.14 c 1.39,8.16,4.28,12,10.67,14.11 A 59.26,59.26,0,0,0,256,545.76 a 44.68,44.68,0,0,0,16.27-2.8 c 12.28-4.84,13.79-20.9,14.29-26.18 l 0-.17 c .4-4.22.8-14.62-4.1-20.08 C 278.15,491.64,269,489.51,255.24,490.2Z m 29.4,26.22,0,.17 c -.47,5-1.9,20.12-13,24.51 s -25.45,2.49-32,.31 c -5.63-1.88-8.07-5.16-9.33-12.55-1.34-7.86-1.58-25.73,1.61-29.52,3-3.61,12.9-6.62,23.45-7.14q2.41-.12,4.63-.12 c 10.41,0,17.65,2,21.07,5.79 C 285.53,502.87,284.93,513.33,284.64,516.42Z"/>
  </g>
<script type="text/ecmascript" xlink:href="param.min.js"/> 
</svg>
