<?xml version="1.0"?>
<svg xmlns="http://www.w3.org/2000/svg" xmlns:xlink="http://www.w3.org/1999/xlink" viewBox="0 0 600 1032.36">
  <title>EX003</title>
  <g id="skin-tone">
    <circle cx="299.33" cy="515.6" r="72.64" fill="param(skin_tone)"/>
  </g>
  <g id="fixed-colours">
    <path d="M 279.12,561.16 s 1.51-5.89,5.23-8.51 A 14,14,0,0,1,295,550.3 a 10.13,10.13,0,0,1,5,2.78,8,8,0,0,1,4.92-2.79,14.16,14.16,0,0,1,11,2.74 c 3.46,2.55,4.88,8.3,4.88,8.3 a 17.27,17.27,0,0,1-6.15,11.23 c -4.5,3.81-11.22,1.66-14.68,1.54 s -10.63,2.89-16.67-3.23 A 16,16,0,0,1,279.12,561.16Z" fill="#e8b0af"/>
    <path d="M 366.87,495 a 45.78,45.78,0,0,0-20.05-14.12 c -12.84-4.44-26.69.17-29.63,1.88 s -3.16,4.15-2.67,5.63,3,2.37,5.43,1.78,9.09-4.35,15.8-4.94 S 356.69,486.55,366.87,495Z" opacity="0.5"/>
    <circle cx="266.75" cy="559.16" r="10.94" fill="#e8b0af"/>
    <circle cx="333.25" cy="559.16" r="10.94" fill="#e8b0af"/>
    <path d="M 280.79,560.7 a 12,12,0,0,1,2.15-4.33 c 1.38-1.42,3.25-1.92,5.88-2.12 s 4.38,1.06,6.06,1.63,3.43,1.57,5.13,1 c 0,2.83,0,11.49,0,11.49 a 33.87,33.87,0,0,1-10,.15 c -4.32-.78-7-3.86-8.5-6.23Z" fill="#c78383"/>
    <path d="M 319.21,560.7 a 12.43,12.43,0,0,0-2.18-4.48 c -1.37-1.42-3-1.8-5.67-2 a 9.56,9.56,0,0,0-5.69,1.21,10.25,10.25,0,0,1-5.68,1.42V568.7 s 6.71.82,10.93-.39 a 13,13,0,0,0,7.86-5.9Z" fill="#c78383"/>
    <path d="M 317.92,560.72 l -1.53,0 a 9.13,9.13,0,0,0,.4-2.54 c 0-1.24-.82-2.09-1.41-2.05 s -1.05-.06-1.47,3 c -.07-2.67-.91-3.79-1.82-3.83-1.52-.07-2.29,3.63-2.29,3.63 s -.75-2.87-2.33-2.62 c -1.83.29-1.92,3.67-1.92,3.67 a 8.47,8.47,0,0,0-.87-2.37 c -1-1.83-3.33-1.79-4.67,1.07-1.34-2.86-3.7-2.9-4.67-1.07 a 8.48,8.48,0,0,0-.87,2.38 s -.08-3.38-1.92-3.67 c -1.58-.25-2.33,2.63-2.33,2.63 s -.77-3.69-2.29-3.62 c -.92,0-1.75,1.17-1.82,3.83-.42-3.06-.9-3-1.47-3 s -1.39.81-1.41,2.05 a 9.12,9.12,0,0,0,.4,2.54 l -1.53,0 s -.15,5.21,2.54,3.9 c .24,1,1.81,3.06,3.25,1.54,1,1.77,2.11,1.77,3.17.71 a 1.8,1.8,0,0,0,3.25.42,1.7,1.7,0,0,0,3.13-.17,22,22,0,0,0,5.18,0,1.7,1.7,0,0,0,3.13.17,1.8,1.8,0,0,0,3.25-.42 c 1.06,1.06,2.19,1.06,3.17-.71,1.44,1.52,3-.51,3.25-1.54 C 318.07,565.93,317.92,560.72,317.92,560.72Z" fill="#fff"/>
    <path d="M 238.74,493.82 s 1.08-4.14,8.66-6.4,17.33-3.84,22.84-9.94,9.16-12,12.41-10-1.77,9.65-6,13.49 c -4,3.59-12,6.4-18.71,7.19 S 242.48,488.7,238.74,493.82Z" opacity="0.5"/>
    <path d="M 300,570.1 c -2.44,0-7.91.16-7.89,1.18 s 4.34.48,7.89.48,7.88.54,7.89-.48 S 302.44,570.1,300,570.1Z" fill="#fff" opacity="0.5"/>
    <path d="M 293.13,553.42 c 2.32.68,3.88,1.67,4.79.88 s -2.08-2.17-4.41-2.46 S 290.09,552.54,293.13,553.42Z" fill="#fff" opacity="0.5"/>
    <path d="M 306.87,553.42 c -2.32.68-3.88,1.67-4.79.88 s 2.08-2.17,4.41-2.46 S 309.91,552.54,306.87,553.42Z" fill="#fff" opacity="0.5"/>
  </g>
  <g id="outline">
    <path d="M 300,590 a 73.86,73.86,0,1,1,73.86-73.86 A 73.94,73.94,0,0,1,300,590Z m 0-145.24 a 71.38,71.38,0,1,0,71.38,71.38 A 71.46,71.46,0,0,0,300,444.8Z"/>
    <path d="M 300,539.57 c -8-6.52-13.18,1.93-13.18,1.93,8-6.07,13.18,1.18,13.18,1.18 s 5.18-7.26,13.18-1.18 C 313.18,541.5,308,533.06,300,539.57Z"/>
    <path d="M 312.72,553.9 a 12.85,12.85,0,0,0-7.15,1.15,11.59,11.59,0,0,1-11.14,0,12.85,12.85,0,0,0-7.15-1.15 c -4.33.6-6,3.47-6.91,7,2.21,5,5,6.86,9.13,7.94,3.83,1,6.39.22,10.51.22 s 6.68.78,10.51-.22 c 4.17-1.08,6.92-2.9,9.13-7.94 C 318.67,557.36,317.06,554.5,312.72,553.9Z m -12.72,14 c -4.26,0-9.55,1.73-14.26-1.4 l -.08-.06 c -1.22-1.79-1.36-3-1-4.16-1.71-1.29-1.33-4.86-1.14-6.12,2.39-1.8,7.93-1.61,10.35-.24 a 15.9,15.9,0,0,0,12.35,0 c 2.42-1.37,8-1.56,10.35.24.19,1.26.57,4.83-1.14,6.12.31,1.16.18,2.37-1,4.16 l -.08.06 C 309.55,569.65,304.26,567.92,300,567.92Z"/>
    <path d="M 321.45,561.16 a 16.33,16.33,0,0,0-4-7.87 c -3.59-3.92-12.55-6.4-17.46-.74-4.91-5.66-13.86-3.18-17.46.74 a 16.33,16.33,0,0,0-4,7.88 s -.23,5.61,6,11.44 c 4.68,4.41,11.19,2.09,15.49,2.09 s 10.81,2.32,15.49-2.09 C 321.68,566.76,321.45,561.16,321.45,561.16Z m -7.78,11.73 c -3.1,2-6.92.53-13.67.53 s -10.57,1.47-13.67-.53 c -3.67-2.37-6.58-8.44-6.83-11.61 a 23,23,0,0,1,3-6.25,12.77,12.77,0,0,1,10-4.33 c 4.44,0,6.38,2.48,7.51,2.81,1.13-.33,3.07-2.81,7.51-2.81 a 12.77,12.77,0,0,1,10,4.33,23,23,0,0,1,3,6.25 C 320.26,564.45,317.35,570.52,313.67,572.89Z"/>
  </g>
<script type="text/ecmascript" xlink:href="param.min.js"/> 
</svg>
