<?xml version="1.0"?>
<svg xmlns="http://www.w3.org/2000/svg" xmlns:xlink="http://www.w3.org/1999/xlink" viewBox="0 0 600 1032.36">
  <title>EX001</title>
  <g id="skin-tone">
    <circle cx="299.77" cy="516.18" r="72.87" fill="param(skin_tone)"/>
  </g>
  <g id="fixed-colours">
    <path d="M 285.34,564.07 c -.26-3.75,1.29-8.14,4-10.08 s 6.46-1.81,10.21,2.58 c 3.88-4.26,7.62-4.91,10.72-2.58 s 4.26,6.2,3.88,10.21 S 311,576,299.55,576,285.59,567.82,285.34,564.07Z" fill="#e8b0af"/>
    <path d="M 366.87,495 a 45.78,45.78,0,0,0-20.05-14.12 c -12.84-4.44-26.69.17-29.63,1.88 s -3.16,4.15-2.67,5.63,3,2.37,5.43,1.78,9.09-4.35,15.8-4.94 S 356.69,486.55,366.87,495Z" opacity="0.5"/>
    <path d="M 233,495 a 45.78,45.78,0,0,1,20.05-14.12 c 12.84-4.44,26.69.17,29.63,1.88 s 3.16,4.15,2.67,5.63-3,2.37-5.43,1.78-9.09-4.35-15.8-4.94 S 243.19,486.55,233,495Z" opacity="0.5"/>
    <circle cx="266.41" cy="559.3" r="10.98" fill="#e8b0af"/>
    <circle cx="333.12" cy="559.3" r="10.98" fill="#e8b0af"/>
  </g>
  <g id="outline">
    <path d="M 299.77,539.65 c -8-6.54-13.22,1.93-13.22,1.93,8-6.09,13.22,1.19,13.22,1.19 s 5.2-7.28,13.22-1.19 C 313,541.58,307.79,533.11,299.77,539.65Z"/>
    <path d="M 315.37,563.2 c .15-9.09-6.1-12.28-10.47-11.36-3,.63-5.14,3.56-5.14,3.56 s -2.14-2.92-5.14-3.56 c -4.36-.92-10.62,2.27-10.47,11.36 a 31.52,31.52,0,0,1-4.94-2.37,16.87,16.87,0,0,0,5,3.53 c .76,9,9,12.77,15.54,12.77 s 14.78-3.78,15.54-12.77 a 16.87,16.87,0,0,0,5-3.53 A 31.52,31.52,0,0,1,315.37,563.2Z m -2.53,3.64 c -1.46,5.93-9.91,8.31-13.07,8.31 s -11.61-2.38-13.07-8.31 a 14,14,0,0,1-.28-1.55,40.2,40.2,0,0,0,26.7,0 A 14,14,0,0,1,312.83,566.84Z m -13.07-1.12 a 45.41,45.41,0,0,1-13.46-1.77 c -.15-4.76,2.21-8.83,5.29-9.91,4.07-1.43,8.17,4.13,8.17,4.13 h 0 s 4.1-5.56,8.17-4.13 c 3.07,1.08,5.43,5.15,5.29,9.91 A 45.41,45.41,0,0,1,299.77,565.72Z"/>
    <path d="M 299.76,590 a 73.86,73.86,0,1,1,73.86-73.86 A 73.94,73.94,0,0,1,299.76,590Z m 0-145.24 a 71.38,71.38,0,1,0,71.38,71.38 A 71.46,71.46,0,0,0,299.76,444.8Z"/>
  </g>
  <g id="misc-objects">
    <path d="M 296.07,559 c 0,1.79-1.45,0-3.24,0 s -3.24,1.78-3.24,0 a 3.24,3.24,0,0,1,6.47,0Z" fill="#fff" opacity="0.5"/>
    <path d="M 303.46,559 c 0,1.79,1.45,0,3.24,0 s 3.24,1.78,3.24,0 a 3.24,3.24,0,0,0-6.47,0Z" fill="#fff" opacity="0.5"/>
    <path d="M 307.95,568.85 c 0,1.29-3.66,2.33-8.18,2.33 s -8.18-1-8.18-2.33,3.66,0,8.18,0 S 307.95,567.56,307.95,568.85Z" fill="#fff" opacity="0.5"/>
  </g>
<script type="text/ecmascript" xlink:href="param.min.js"/> 
</svg>
