<?xml version="1.0"?>
<svg xmlns="http://www.w3.org/2000/svg" xmlns:xlink="http://www.w3.org/1999/xlink" viewBox="0 0 600 1032.36">
  <title>EX004</title>
  <g id="skin-tone">
    <circle cx="300" cy="516.18" r="72.64" fill="param(skin_tone)"/>
  </g>
  <g id="fixed-colours">
    <path d="M 283.48,559.93 s .2.82,2.36.69,4.36-1.25,5.58-1.61 a 5,5,0,0,1,4.53.49 c 1.9,1.15,4,2.36,6.69.89 s 3.25-2.21,6.14-1.24,6,2.32,8.07.73 c -.92,0-2.66-.11-5.05-3.26 s -4.43-6.37-7.15-6.27-4.65,3-4.65,3-2.11-3.42-4.93-3.22-4.73,3.15-6.14,5.32 S 285.09,559.74,283.48,559.93Z" fill="#e8b0af"/>
    <path d="M 282.81,560.12 a 8.67,8.67,0,0,1,3.94,2.17 c 1.92,1.8,4,6.4,6.92,8 s 7.31,1.62,9.72,1.11 a 8.55,8.55,0,0,0,5.78-4 c 1.48-2.34,5-6.18,6.3-6.77.91-.3,1.67-.47,1.67-.47 a 16.45,16.45,0,0,0-3,5.15 c -1.06,3-2.93,8.12-5.32,10.8 A 11.6,11.6,0,0,1,300,580 a 12.45,12.45,0,0,1-9.24-4.33,26.17,26.17,0,0,1-4.33-8 C 285.29,564.6,284.16,561,282.81,560.12Z" fill="#e8b0af"/>
    <path d="M 236.48,486.22 A 45.63,45.63,0,0,1,252.73,468 c 11.45-7.23,27-5.64,30.21-4.65 s 4,3.31,3.87,4.86-2.34,3-4.87,3-11.63-2.28-18.28-1.33 S 244.43,475.66,236.48,486.22Z" opacity="0.5"/>
    <path d="M 363.52,486.22 A 45.63,45.63,0,0,0,347.27,468 c -11.45-7.23-27-5.64-30.21-4.65 s -4,3.31-3.87,4.86,2.34,3,4.87,3,11.63-2.28,18.28-1.33 S 355.57,475.66,363.52,486.22Z" opacity="0.5"/>
    <circle cx="266.75" cy="559.16" r="10.94" fill="#e8b0af"/>
    <circle cx="333.25" cy="559.16" r="10.94" fill="#e8b0af"/>
    <path d="M 285,560.69 a 9.19,9.19,0,0,0,4.14-.79 c 1.87-.94,4.48-1.58,6.55-.59 s 3.7,2.58,6.18,1.39,3.91-2.43,6.07-1.79,4.63,1.93,7.24,1.78 a 21.67,21.67,0,0,0-4.63,4.63 c -1.35,2-3.37,6.38-10.55,6.38 s -8.21-3.08-9.54-4.9 S 286.6,561.67,285,560.69Z" fill="#7d4040"/>
    <path d="M 292,568.66 a 9.73,9.73,0,0,1,8-4.23,10.35,10.35,0,0,1,8.22,4.23 s -2.08,3-8.22,3 S 292,568.66,292,568.66Z" fill="#c78383"/>
    <path d="M 298.16,555.41 c 0,1.58-1.28,0-2.86,0 s -2.86,1.58-2.86,0 a 2.86,2.86,0,1,1,5.73,0Z" fill="#fff" opacity="0.5"/>
    <path d="M 301.84,555.41 c 0,1.58,1.28,0,2.86,0 s 2.86,1.58,2.86,0 a 2.86,2.86,0,1,0-5.73,0Z" fill="#fff" opacity="0.5"/>
    <path d="M 305.67,573.79 c 0,1.28-2.55,2.32-5.69,2.32 s -5.69-1-5.69-2.32,2.55,0,5.69,0 S 305.67,572.51,305.67,573.79Z" fill="#fff" opacity="0.5"/>
  </g>
  <g id="outline">
    <path d="M 300,590 a 73.86,73.86,0,1,1,73.86-73.86 A 73.94,73.94,0,0,1,300,590Z m 0-145.24 a 71.38,71.38,0,1,0,71.38,71.38 A 71.46,71.46,0,0,0,300,444.8Z"/>
    <path d="M 300,539.57 c -8-6.52-13.18,1.93-13.18,1.93,8-6.07,13.18,1.18,13.18,1.18 s 5.18-7.26,13.18-1.18 C 313.18,541.5,308,533.06,300,539.57Z"/>
    <path d="M 319,558.73 a 4.3,4.3,0,0,1-4.7-.56 c -2.71-2.17-4.82-8.84-9.15-8.84 s -5.19,2.89-5.19,2.89-.85-2.89-5.19-2.89-6.44,6.68-9.15,8.84 a 4.3,4.3,0,0,1-4.7.56 l -.13-.08 a 6.66,6.66,0,0,0,1,1,15.76,15.76,0,0,1,3,5.42 c .85,2.63,3,9,5.74,11.88 a 13.15,13.15,0,0,0,18.77,0 c 2.79-2.86,4.89-9.25,5.74-11.88 a 15.76,15.76,0,0,1,3-5.42,6.66,6.66,0,0,0,1-1Z m -24.09-7.43 c 3.35,0,5.05,3.48,5.05,3.48 s 1.71-3.48,5.05-3.48,6.32,8.26,10.42,8.9 c -2,.21-3.56-.74-5.21-1.44 a 7.9,7.9,0,0,0-6-.38 c -1.09.46-2.46,1.87-4.29,1.87 s -3.2-1.41-4.29-1.87 a 7.9,7.9,0,0,0-6,.38 c -1.65.7-3.23,1.65-5.21,1.44 C 288.63,559.56,291.62,551.3,294.95,551.3Z M 300,564 c -1.8,0-6,.54-8.09,3.93-1.28-1.64-2.77-4.82-6.21-6.89 a 6.91,6.91,0,0,0,3.2-.45 c 2.17-.92,4.07-1.73,6.17-.57 S 298.49,562,300,562 s 2.82-.79,4.92-1.95,4-.35,6.17.57 a 6.91,6.91,0,0,0,3.2.45 c -3.43,2.07-4.93,5.25-6.21,6.89 C 306,564.58,301.8,564,300,564Z m 7.51,4.57 c -1.65,1.64-4.1,2.52-7.51,2.52 s -5.86-.88-7.51-2.52 a 9.6,9.6,0,0,1,15,0Z m 6.11-4 c -1,2.23-1.51,5.28-4.2,9.32 a 11.3,11.3,0,0,1-18.84,0 c -2.69-4-3.22-7.09-4.2-9.32 a 11.57,11.57,0,0,0-3-4.07,7.41,7.41,0,0,0,1,.33,27,27,0,0,1,4.95,5.54 c 2,3,3.87,6.28,10.63,6.28 s 8.6-3.33,10.63-6.28 a 27,27,0,0,1,4.95-5.54,7.41,7.41,0,0,0,1-.33 A 11.57,11.57,0,0,0,313.62,564.59Z"/>
  </g>
<script type="text/ecmascript" xlink:href="param.min.js"/> 
</svg>
