<?xml version="1.0"?>
<svg xmlns="http://www.w3.org/2000/svg" xmlns:xlink="http://www.w3.org/1999/xlink" viewBox="0 0 600 1032.36">
  <title>EX007</title>
  <g id="skin-tone">
    <circle cx="300" cy="516.18" r="72.64" fill="param(skin_tone)"/>
  </g>
  <g id="fixed-colours">
    <path d="M 282.88,560.14 s 1.89-.24,3.73,2,3.08,5,4.73,7.32 a 8.4,8.4,0,0,0,8,3.68,9.9,9.9,0,0,0,7.61-4.23 c 1.08-1.74,4.07-5.77,5.94-8.2 a 41.23,41.23,0,0,1,5.5-5.56,55.29,55.29,0,0,0-4.35,7.69 c -1.05,2.49-4.1,9.09-6.66,11.75 s -4.62,3.83-8.86,3.81 a 11.36,11.36,0,0,1-8.86-4.53,26.78,26.78,0,0,1-3.28-7 C 285.72,564.82,284.7,561.3,282.88,560.14Z" fill="#e8b0af"/>
    <path d="M 284,559.93 a 4.18,4.18,0,0,0,2.72,0,53.14,53.14,0,0,1,6.07-1.87 c 1.51-.2,2.86.39,4.5.72 s 3.31.87,6-.76,3.91-1.6,6.3-1.11,5.19.55,6.76-.3 a 11.6,11.6,0,0,0,3-2.59,11.42,11.42,0,0,1-4.17-.1 c -2-.49-6-2.13-7.75-2.49 a 7.17,7.17,0,0,0-7.32,3.08 c -1.77-2.36-3.94-4.36-6.3-3.05 S 288.35,558.65,284,559.93Z" fill="#e8b0af"/>
    <circle cx="266.75" cy="559.16" r="10.94" fill="#e8b0af"/>
    <circle cx="333.25" cy="559.16" r="10.94" fill="#e8b0af"/>
    <path d="M 366.82,495 a 45.63,45.63,0,0,0-23.37-7.17 c -13.54-.23-25.24,8.43-27.49,11 s -1.71,4.91-.78,6.16,3.54,1.33,5.7,0,7.26-6.93,13.44-9.57 S 354.55,490.06,366.82,495Z" opacity="0.5"/>
    <path d="M 233.46,490.87 a 45.63,45.63,0,0,1,20-14.08 c 12.8-4.43,26.6.17,29.54,1.87 s 3.15,4.14,2.66,5.61-3,2.36-5.41,1.77-9.06-4.33-15.75-4.92 S 243.6,482.41,233.46,490.87Z" opacity="0.5"/>
    <path d="M 289.3,566.16 s 4.44-4.42,10.19-4.68 a 18.41,18.41,0,0,1,10.12,3.37 c -1.48,2-2.93,4.51-4.17,5.69 a 10.36,10.36,0,0,1-8.2,2.55 C 293.55,572.49,291.6,569.92,289.3,566.16Z" fill="#c78383"/>
    <path d="M 284.85,560.34 a 50.06,50.06,0,0,0,5.7-1.68,6.51,6.51,0,0,1,5.51-.2 c 2.23.72,3.74,1.38,6.89-.33 s 4.07-1.71,6-1.31,4.79,1,7.68-.21 c -1.9,1.59-6.19,6.42-6.8,7.81-3.3-1.56-6.21-3.33-10.37-2.94 s -10.19,4.68-10.19,4.68 A 18.6,18.6,0,0,0,284.85,560.34Z" fill="#7d4040"/>
    <path d="M 298.11,555.24 c -.07,1.2-1.21-.07-2.7-.15 s -2.77,1-2.7-.16 a 2.77,2.77,0,0,1,5.41.31Z" fill="#fff" opacity="0.5"/>
    <path d="M 308.24,554.11 c .14.93-1.17.18-2.62.39 s -2.48,1.32-2.62.38.92-1.86,2.37-2.08 S 308.1,553.17,308.24,554.11Z" fill="#fff" opacity="0.5"/>
    <path d="M 303.64,574.44 c 0,.84-2.17,1.52-4.85,1.52 s -4.85-.68-4.85-1.52,2.17,0,4.85,0 S 303.64,573.61,303.64,574.44Z" fill="#fff" opacity="0.5"/>
  </g>
  <g id="outline">
    <path d="M 300,590 a 73.86,73.86,0,1,1,73.86-73.86 A 73.94,73.94,0,0,1,300,590Z m 0-145.24 a 71.38,71.38,0,1,0,71.38,71.38 A 71.46,71.46,0,0,0,300,444.8Z"/>
    <path d="M 300,539.57 c -8-6.52-13.18,1.93-13.18,1.93,8-6.07,13.18,1.18,13.18,1.18 s 5.18-7.26,13.18-1.18 C 313.18,541.5,308,533.06,300,539.57Z"/>
    <path d="M 282.3,559.82 a 11.18,11.18,0,0,0,4.51-2.55 c 2.32-2.16,5.07-7.22,8.6-6.88,2.71.27,4.66,3.22,4.66,3.22 s 1.82-3.09,4.48-3.48 c 3.21-.47,6.37,2,8.8,2.61 s 5.78,1.29,8.14-.28 c -1,2-4.27,2.56-6.17,2.33 s -5.69-2.36-8.69-2.87 c -2.36-.4-5.27,1.36-6.63,3.77-1.67-2.72-4.42-4.53-6.94-2.64 C 290.37,555.08,286,561.66,282.3,559.82Z"/>
    <path d="M 282.3,559.82 a 5.65,5.65,0,0,0,3.87.78 c 2.36-.32,6.1-2.42,8.47-1.7 s 5.37,1.71,8.22.13,3.85-2.17,6.74-1.44,7.08,1,11.88-5.12 a 2.84,2.84,0,0,1-1.64,1.12 s -2.69,2.55-5.51,3-5.89-.81-8.05-.62-4.45,2.48-6.55,2.54-4.35-1.12-6.14-1.17 C 290.83,557.26,285.78,560.81,282.3,559.82Z"/>
    <path d="M 282.3,559.82 a 6.77,6.77,0,0,1,5.58,3 c 2,3.15,4.77,9.66,10.44,9.71,6.18.06,8.28-4.19,10.83-7.88 s 6.8-8.91,10.7-11.09 a 8.35,8.35,0,0,0,1.64-1.12 s -4.62,4.27-6.92,7 a 104.93,104.93,0,0,0-6.85,9.45,10.35,10.35,0,0,1-9.21,4.86 c -4.35.05-6.76-2.1-8.47-5.19 S 286.43,560.67,282.3,559.82Z"/>
    <path d="M 282.3,559.82 s 1.84,1.51,3.35,6.56,4.27,11.35,10.5,12.47,11.07-1,15.45-9.6 c 3.37-6.63,4.5-12.06,9.88-16.79 a 24.33,24.33,0,0,0-7.35,8.93 c -2,3.74-3.71,8.81-7.35,12.8 a 10.58,10.58,0,0,1-9.71,3.35 c -1.9-.2-6.3-1.51-8.73-7.15 S 284.79,560,282.3,559.82Z"/>
    <path d="M 289.13,565.77 a 15.9,15.9,0,0,1,10.7-4.77,15.54,15.54,0,0,1,10,3.41 l -.53.92 a 17.24,17.24,0,0,0-9.45-3.28 c -5.36-.07-10.3,4.73-10.3,4.73Z"/>
  </g>
<script type="text/ecmascript" xlink:href="param.min.js"/> 
</svg>
