<?xml version="1.0"?>
<svg xmlns="http://www.w3.org/2000/svg" xmlns:xlink="http://www.w3.org/1999/xlink" viewBox="0 0 600 1032.36">
  <title>EX016</title>
  <g id="skin-tone">
    <circle cx="300" cy="516.18" r="72.64" fill="param(skin_tone)"/>
  </g>
  <g id="fixed-colours">
    <path d="M 306.92,552.65 c -3.54-1.07-5.8-.52-6.75,1.4-.88-1.35-2.28-2.19-4.86-2.19 s -6.38,2.77-9.73,4.9-5.22.45-5.22.45 A 20.89,20.89,0,0,0,282.9,568 a 14.08,14.08,0,0,0,8,6.54 c -.07-.67-.15-1.45-.23-2.33-.27-3.08-.85-4.47-1.23-5.07-2.84-1.49-5.17-4.34-5.52-6.31,3,.58,4.32-.58,6.83-1.68 s 4.38-.77,7.54.32,2.77.06,5.86-.71,5.48.52,7.09,1.1,3.41,1.42,5.41.9 A 12.6,12.6,0,0,1,311,567 a 15.11,15.11,0,0,1,.65,6.4 c 6.18-3.18,8.05-11.83,8.35-16.16 C 316.25,558.81,310.45,553.72,306.92,552.65Z" fill="#e8b0af"/>
    <circle cx="266.75" cy="559.16" r="10.94" fill="#e8b0af"/>
    <circle cx="333.25" cy="559.16" r="10.94" fill="#e8b0af"/>
    <path d="M 310.41,559.53 c -1.85-.77-5.32-1.57-7.78-.31 s -3.81.55-6.32-.42-4.93,0-6.77.87-3.62,1.81-5.9,1.11 a 14.24,14.24,0,0,0,5.91,6.44 l -.3-.9 s 1.91-4.46,5.66-4.79 a 6.94,6.94,0,0,1,5.92,2.75,6.07,6.07,0,0,1,4.75-2.5 c 2.72,0,4.53,2.27,5.61,5.33 a 12,12,0,0,0,5.46-6.37 C 314.2,561.2,312.26,560.29,310.41,559.53Z" fill="#7d4040"/>
    <path d="M 288.27,565.63 s 3.27-4.14,7.22-3.93,5.33,2.58,5.33,2.58,2.7-2.66,6-2.06 c 5.31,1,6.53,6.21,6.81,10.08.57,7.64-2.07,16.75-5.29,19.31-3.81,3-8.47,3.57-12,1.75 s -5.95-8.48-5.78-15.07 C 290.66,575,290,566.51,288.27,565.63Z" fill="#54b74d"/>
    <path d="M 366.87,495 a 45.78,45.78,0,0,0-20.05-14.12 c -12.84-4.44-26.69.17-29.63,1.88 s -3.16,4.15-2.67,5.63,3,2.37,5.43,1.78,9.09-4.35,15.8-4.94 S 356.69,486.55,366.87,495Z" opacity="0.5"/>
    <path d="M 233,495 a 45.78,45.78,0,0,1,20.05-14.12 c 12.84-4.44,26.69.17,29.63,1.88 s 3.16,4.15,2.67,5.63-3,2.37-5.43,1.78-9.09-4.35-15.8-4.94 S 243.19,486.55,233,495Z" opacity="0.5"/>
    <path d="M 298.61,556.71 c -.13,1.24-1.25-.13-2.8-.3 s -2.93.94-2.8-.31 a 2.88,2.88,0,0,1,5.59.6Z" fill="#fff" opacity="0.5"/>
    <path d="M 301.73,556.71 c .13,1.24,1.25-.13,2.8-.3 s 2.93.94,2.8-.31 a 2.88,2.88,0,0,0-5.59.6Z" fill="#fff" opacity="0.5"/>
    <path d="M 284.08,564.86 c .55-.63,1.08,1.17,2.91,2.42 s 1.58,3.25,0,2 S 283.5,565.53,284.08,564.86Z" fill="#fff" opacity="0.5"/>
    <path d="M 316.12,564.95 c -.43-.41-.46.33-2.3,1.58 s -1.4,3.11.18,1.86 S 316.75,565.56,316.12,564.95Z" fill="#fff" opacity="0.5"/>
    <path d="M 307.41,581.45 c 0,2.56-2,4.19-4.79,4.54v3.18 h -2.2V586 a 10.27,10.27,0,0,1-5.57-2.45 L 296.1,581 a 8.76,8.76,0,0,0,5.39,2.29 c 1.67,0,2.67-.62,2.67-1.71,0-3.25-8.37-1.4-8.37-6.95,0-2.38,1.8-4,4.63-4.39v-3 l 2.2,0v3 a 10.62,10.62,0,0,1,4.63,1.6 l -1.2,2.58 a 10,10,0,0,0-4.68-1.51 c -1.4,0-2.32.51-2.32,1.47 C 299.06,577.57,307.43,575.86,307.41,581.45Z" fill="#24330a"/>
  </g>
  <g id="outline">
    <path d="M 299.77,539.65 c -8-6.54-13.22,1.93-13.22,1.93,8-6.09,13.22,1.19,13.22,1.19 s 5.2-7.28,13.22-1.19 C 313,541.58,307.79,533.11,299.77,539.65Z"/>
    <path d="M 373.86,516.18 a 73.86,73.86,0,1,0-81.92,73.39,10.18,10.18,0,0,0,4.42,5 c 5.11,2.54,11.49.76,14.79-5.45 A 74,74,0,0,0,373.86,516.18Z M 301,593.86 c -5.2-.06-8.06-4.32-9.15-11.07-.43-2.68-1.06-8-1.17-10.05 a 25.56,25.56,0,0,0-1.6-7.37,6.83,6.83,0,0,1,6.42-3.08,7.71,7.71,0,0,1,5.25,3.08 c 1.58-2.43,5.89-3.54,8.41-1.9,4.12,2.69,5,11.06,3.22,18.09 C 310.11,590.61,306.2,593.92,301,593.86Z m 12.31-27.6 a 17.14,17.14,0,0,0,4.46-6.46 c -2.46,1.5-5,0-8.17-1.26 a 9.29,9.29,0,0,0-6.77,0,4.71,4.71,0,0,1-5.32,0,9.29,9.29,0,0,0-6.77,0 c -3.14,1.3-5.7,2.75-8.17,1.26 a 16.6,16.6,0,0,0,5.32,7.13,40.3,40.3,0,0,1,1,5.48 c -4.13-2.92-7.31-8.58-8-14,2.61,1.06,6.57-1.35,8.41-2.61 s 4.54-2.61,6.77-2.61,4.06,2.61,4.06,2.61,1.84-2.61,4.06-2.61,4.93,1.35,6.77,2.61,5.8,3.67,8.41,2.61 a 20.38,20.38,0,0,1-5,11.19 A 15.11,15.11,0,0,0,313.3,566.27Z m -26-1.42 a 16.79,16.79,0,0,1-3-3.54 c 2.13.58,3.87-.39,5.8-1.3 a 8.68,8.68,0,0,1,6.14-.58 c 1.55.63,2.32,1.21,3.87,1.21 s 2.32-.58,3.87-1.21 a 8.68,8.68,0,0,1,6.14.58 c 1.93.92,3.67,1.88,5.8,1.3 a 16.57,16.57,0,0,1-3.29,3.8,11.72,11.72,0,0,0-1.81-2.3 c -2.52-2.46-8.34-2-10.09.54-1.75-2.55-6.84-3.61-10.22-1.66 A 7.46,7.46,0,0,0,287.34,564.85Z m 25,21.61 a 33.65,33.65,0,0,0,2.46-14.16 c 5.35-4.87,5.75-11.51,5.75-16.26 a 4.31,4.31,0,0,1-5.32.19 c -3.09-1.93-7.44-5-10.92-5 s -4.16,2.13-4.16,2.13-.68-2.13-4.16-2.13-7.83,3.09-10.92,5 a 4.31,4.31,0,0,1-5.32-.19 c 0,4.93.42,11.91,6.38,16.82 a 21.91,21.91,0,0,0,3.09,2.13 c .28,2.44.5,4.83.64,6.43 a 27.65,27.65,0,0,0,1.06,5.54,71.36,71.36,0,1,1,21.41-.49Z"/>
  </g>
<script type="text/ecmascript" xlink:href="param.min.js"/> 
</svg>
