<?xml version="1.0"?>
<svg xmlns="http://www.w3.org/2000/svg" xmlns:xlink="http://www.w3.org/1999/xlink" viewBox="0 0 600 1032.36">
  <title>EX017</title>
  <g id="skin-tone">
    <circle cx="300" cy="516.18" r="72.64" fill="param(skin_tone)"/>
  </g>
  <g id="fixed-colours">
    <path d="M 306.92,552.65 c -3.54-1.07-5.8-.52-6.75,1.4-.88-1.35-2.28-2.19-4.86-2.19 s -6.38,2.77-9.73,4.9-5.22.45-5.22.45 A 20.89,20.89,0,0,0,282.9,568 a 14.08,14.08,0,0,0,8,6.54 c -.07-.67-.15-1.45-.23-2.33-.27-3.08-.85-4.47-1.23-5.07-2.84-1.49-5.17-4.34-5.52-6.31,3,.58,4.32-.58,6.83-1.68 s 4.38-.77,7.54.32,2.77.06,5.86-.71,5.48.52,7.09,1.1,3.41,1.42,5.41.9 A 12.6,12.6,0,0,1,311,567 a 15.11,15.11,0,0,1,.65,6.4 c 6.18-3.18,8.05-11.83,8.35-16.16 C 316.25,558.81,310.45,553.72,306.92,552.65Z" fill="#e8b0af"/>
    <circle cx="266.75" cy="559.16" r="10.94" fill="#e8b0af"/>
    <circle cx="333.25" cy="559.16" r="10.94" fill="#e8b0af"/>
    <path d="M 366.87,495 a 45.78,45.78,0,0,0-20.05-14.12 c -12.84-4.44-26.69.17-29.63,1.88 s -3.16,4.15-2.67,5.63,3,2.37,5.43,1.78,9.09-4.35,15.8-4.94 S 356.69,486.55,366.87,495Z" opacity="0.5"/>
    <path d="M 233,495 a 45.78,45.78,0,0,1,20.05-14.12 c 12.84-4.44,26.69.17,29.63,1.88 s 3.16,4.15,2.67,5.63-3,2.37-5.43,1.78-9.09-4.35-15.8-4.94 S 243.19,486.55,233,495Z" opacity="0.5"/>
    <path d="M 310.41,559.53 c -1.85-.77-5.32-1.57-7.78-.31 s -3.81.55-6.32-.42-4.93,0-6.77.87-3.62,1.81-5.9,1.11 a 14.24,14.24,0,0,0,5.91,6.44 l -.3-.9 s 1.91-4.46,5.66-4.79 a 6.94,6.94,0,0,1,5.92,2.75,6.07,6.07,0,0,1,4.75-2.5 c 2.72,0,4.53,2.27,5.61,5.33 a 12,12,0,0,0,5.46-6.37 C 314.2,561.2,312.26,560.29,310.41,559.53Z" fill="#7d4040"/>
    <path d="M 288.27,565.63 s 3.27-4.14,7.22-3.93,5.33,2.58,5.33,2.58,2.7-2.66,6-2.06 c 5.31,1,6.53,6.21,6.81,10.08.57,7.64-2.07,16.75-5.29,19.31-3.81,3-8.47,3.57-12,1.75 s -5.95-8.48-5.78-15.07 C 290.66,575,290,566.51,288.27,565.63Z" fill="#54b74d"/>
    <path d="M 298.61,556.71 c -.13,1.24-1.25-.13-2.8-.3 s -2.93.94-2.8-.31 a 2.88,2.88,0,0,1,5.59.6Z" fill="#fff" opacity="0.5"/>
    <path d="M 301.73,556.71 c .13,1.24,1.25-.13,2.8-.3 s 2.93.94,2.8-.31 a 2.88,2.88,0,0,0-5.59.6Z" fill="#fff" opacity="0.5"/>
    <path d="M 284.08,564.86 c .55-.63,1.08,1.17,2.91,2.42 s 1.58,3.25,0,2 S 283.5,565.53,284.08,564.86Z" fill="#fff" opacity="0.5"/>
    <path d="M 316.12,564.95 c -.43-.41-.46.33-2.3,1.58 s -1.4,3.11.18,1.86 S 316.75,565.56,316.12,564.95Z" fill="#fff" opacity="0.5"/>
    <path d="M 300.47,583.8 h 7.32v2.91 H 294.73V583.8 h 2.16v-4.89 h -2.16v-2.57 h 2.16v-2.46 c 0-3.85,2.11-6,5.88-6 a 7.23,7.23,0,0,1,5.37,2.38 L 306.75,573 a 5,5,0,0,0-3.63-2 c -1.71,0-2.65,1-2.65,2.91v2.38 h 4.65v2.57 h -4.65Z" fill="#24330a"/>
  </g>
  <g id="outline">
    <path d="M 300,442.32 a 73.85,73.85,0,0,0-6.8,147.39,19,19,0,0,1-1.18-2.61,71.37,71.37,0,1,1,19.43-.47,12.77,12.77,0,0,1-1.33,2.7,73.85,73.85,0,0,0-10.12-147Z"/>
    <path d="M 310.87,562.81 c -2.52-2.46-8.34-2-10.09.54-1.75-2.55-6.84-3.61-10.22-1.66-3.12,1.81-3.44,3.8-3.44,3.8,1.36.57,2.37,11.41,2.77,15.93 s 2.13,11,6.47,13.19 c 5.37,2.67,12.14.58,15.28-6.42 C 315.19,580.25,317,568.77,310.87,562.81Z m 1.5,18.74 c -2.26,9.06-6.17,12.37-11.37,12.31 s -8.06-4.32-9.15-11.07 c -.43-2.68-1.06-8-1.17-10.05 a 25.56,25.56,0,0,0-1.6-7.37,6.83,6.83,0,0,1,6.42-3.08,7.71,7.71,0,0,1,5.25,3.08 c 1.58-2.43,5.89-3.54,8.41-1.9 C 313.27,566.16,314.12,574.53,312.37,581.55Z"/>
    <path d="M 316,561.31 a 16.4,16.4,0,0,1-4.15,4.49 c .21.36.43.76.62,1.16 a 16.62,16.62,0,0,0,5.31-7.15 c -2.46,1.5-5,0-8.17-1.26 a 9.29,9.29,0,0,0-6.77,0,4.71,4.71,0,0,1-5.32,0,9.29,9.29,0,0,0-6.77,0 c -3.14,1.3-5.7,2.75-8.17,1.26 a 15.9,15.9,0,0,0,7.07,8.27,4.55,4.55,0,0,0-.57-1.39 l .18-.38 a 16.25,16.25,0,0,1-4.89-5 c 2.13.58,3.87-.39,5.8-1.3 a 8.68,8.68,0,0,1,6.14-.58 c 1.55.63,2.32,1.21,3.87,1.21 s 2.32-.58,3.87-1.21 a 8.68,8.68,0,0,1,6.14.58 C 312.11,560.92,313.85,561.89,316,561.31Z"/>
    <path d="M 315.25,556.23 c -3.09-1.93-7.44-5-10.92-5 s -4.16,2.13-4.16,2.13-.68-2.13-4.16-2.13-7.83,3.09-10.92,5 a 4.31,4.31,0,0,1-5.32-.19 c 0,4.93.42,11.91,6.38,16.82 a 21.8,21.8,0,0,0,4.47,2.86q-.05-1.29-.14-2.35 c -4.87-2.46-8.78-8.88-9.55-14.91,2.61,1.06,6.57-1.35,8.41-2.61 s 4.54-2.61,6.77-2.61,4.06,2.61,4.06,2.61,1.84-2.61,4.06-2.61,4.93,1.35,6.77,2.61,5.8,3.67,8.41,2.61 a 20,20,0,0,1-6,12.22 c .12.66.06,1.75.12,2.67.31-.23.31-.23.62-.48,6-4.91,6.38-11.89,6.38-16.82 A 4.31,4.31,0,0,1,315.25,556.23Z"/>
    <path d="M 299.77,539.65 c -8-6.54-13.22,1.93-13.22,1.93,8-6.09,13.22,1.19,13.22,1.19 s 5.2-7.28,13.22-1.19 C 313,541.58,307.79,533.11,299.77,539.65Z"/>
  </g>
<script type="text/ecmascript" xlink:href="param.min.js"/> 
</svg>
