<?xml version="1.0"?>
<svg xmlns="http://www.w3.org/2000/svg" xmlns:xlink="http://www.w3.org/1999/xlink" viewBox="0 0 600 1032.36">
  <title>EX012</title>
  <g id="skin-tone">
    <circle cx="299.77" cy="516.18" r="72.87" fill="param(skin_tone)"/>
  </g>
  <g id="fixed-colours">
    <path d="M 281.68,561.24 c 4.19-1,5.18-5.31,7.9-7.25 s 6.46-1.81,10.21,2.58 c 3.88-4.26,7.62-4.91,10.72-2.58 s 3.25,5.55,7.61,7.56 c -2.46,4-6.83,14.4-18.33,14.4 S 284.34,565.61,281.68,561.24Z" fill="#e8b0af"/>
    <path d="M 296.35,559 c 0,1.79-1.45,0-3.24,0 s -3.24,1.78-3.24,0 a 3.24,3.24,0,0,1,6.47,0Z" fill="#fff" opacity="0.5"/>
    <path d="M 303.75,559 c 0,1.79,1.45,0,3.24,0 s 3.24,1.78,3.24,0 a 3.24,3.24,0,0,0-6.47,0Z" fill="#fff" opacity="0.5"/>
    <path d="M 308.18,568.85 c 0,1.29-3.66,2.33-8.18,2.33 s -8.18-1-8.18-2.33,3.66,0,8.18,0 S 308.18,567.56,308.18,568.85Z" fill="#fff" opacity="0.5"/>
    <path d="M 234,496.33 a 45.63,45.63,0,0,1,17.68-16.89 c 12-6.28,26.33-3.78,29.49-2.53 s 4.05,3.42,3.46,5.16-2.78,3-6.07,2.53 c -2.51-.35-11.06-1.52-17.71-.6 S 245.12,488.43,234,496.33Z" opacity="0.5"/>
    <path d="M 366,496.33 a 45.63,45.63,0,0,0-17.68-16.89 c -12-6.28-26.33-3.78-29.49-2.53 s -4.05,3.42-3.46,5.16,2.78,3,6.07,2.53 c 2.51-.35,11.06-1.52,17.71-.6 S 354.88,488.43,366,496.33Z" opacity="0.5"/>
    <circle cx="266.75" cy="559.16" r="10.94" fill="#e8b0af"/>
    <circle cx="333.25" cy="559.16" r="10.94" fill="#e8b0af"/>
  </g>
  <g id="outline">
    <path d="M 300,539.65 c -8-6.54-13.22,1.93-13.22,1.93,8-6.09,13.22,1.19,13.22,1.19 s 5.2-7.28,13.22-1.19 C 313.22,541.58,308,533.11,300,539.65Z"/>
    <path d="M 300,590 a 73.86,73.86,0,1,1,73.86-73.86 A 73.94,73.94,0,0,1,300,590Z m 0-145.24 a 71.38,71.38,0,1,0,71.38,71.38 A 71.46,71.46,0,0,0,300,444.8Z"/>
    <path d="M 314.76,557.8 c -2.16-3.3-4.81-6.12-8.19-6.12 s -5.95,2.8-6.57,3.71 c -.62-.91-3.19-3.71-6.57-3.71 s -6,2.82-8.19,6.12 a 6.83,6.83,0,0,1-5.79,3 c 3.28,1.84,4.66,8.47,9.66,12.54 a 17.62,17.62,0,0,0,21.76,0 c 5-4.06,6.39-10.7,9.66-12.54 A 6.83,6.83,0,0,1,314.76,557.8Z m -14.76.36 a 13.66,13.66,0,0,1,5.51-4.23 c 3.13-1.06,5.42,1.71,6.56,3.69,1.49,2.56,3,4.44,5.06,3.92-6.24,3.57-13.43,4.18-17.13,4.18 s -10.89-.61-17.13-4.18 c 2.12.27,3.29-1.33,4.79-3.54,1.28-1.89,3.7-5.13,6.83-4.07 A 13.66,13.66,0,0,1,300,558.16Z m 0,17 a 16.15,16.15,0,0,1-12.88-6.47 c -1.07-1.41-2.16-4.26-3.9-6.27,2.61,2,8.35,5.17,16.78,5.17 s 14.17-3.14,16.78-5.17 c -1.73,2-2.83,4.87-3.9,6.27 A 16.15,16.15,0,0,1,300,575.15Z"/>
  </g>
<script type="text/ecmascript" xlink:href="param.min.js"/> 
</svg>
