<?xml version="1.0"?>
<svg xmlns="http://www.w3.org/2000/svg" xmlns:xlink="http://www.w3.org/1999/xlink" viewBox="0 0 600 1032.36">
  <title>EX011</title>
  <g id="skin-tone">
    <circle cx="299.77" cy="516.18" r="72.87" fill="param(skin_tone)"/>
  </g>
  <g id="fixed-colours">
    <path d="M 281.68,561.24 c 4.19-1,5.18-5.31,7.9-7.25 s 6.46-1.81,10.21,2.58 c 3.88-4.26,7.62-4.91,10.72-2.58 s 3.25,5.55,7.61,7.56 c -2.46,4-6.83,14.4-18.33,14.4 S 284.34,565.61,281.68,561.24Z" fill="#e8b0af"/>
    <circle cx="263.86" cy="556.46" r="10.98" fill="#e8b0af"/>
    <circle cx="336.24" cy="556.46" r="10.98" fill="#e8b0af"/>
    <path d="M 296.35,559 c 0,1.79-1.45,0-3.24,0 s -3.24,1.78-3.24,0 a 3.24,3.24,0,0,1,6.47,0Z" fill="#fff" opacity="0.5"/>
    <path d="M 303.75,559 c 0,1.79,1.45,0,3.24,0 s 3.24,1.78,3.24,0 a 3.24,3.24,0,0,0-6.47,0Z" fill="#fff" opacity="0.5"/>
    <path d="M 308.18,568.85 c 0,1.29-3.66,2.33-8.18,2.33 s -8.18-1-8.18-2.33,3.66,0,8.18,0 S 308.18,567.56,308.18,568.85Z" fill="#fff" opacity="0.5"/>
    <path d="M 236.48,489.05 a 45.63,45.63,0,0,1,16.26-18.26 c 11.45-7.23,27-5.64,30.21-4.65 s 4,3.31,3.87,4.86-2.34,3-4.87,3-11.63-2.28-18.28-1.33 S 244.43,478.5,236.48,489.05Z" opacity="0.5"/>
    <path d="M 363.52,489.05 a 45.63,45.63,0,0,0-16.26-18.26 c -11.45-7.23-27-5.64-30.21-4.65 s -4,3.31-3.87,4.86,2.34,3,4.87,3,11.63-2.28,18.28-1.33 S 355.57,478.5,363.52,489.05Z" opacity="0.5"/>
    <path d="M 305.38,565.66 s 5.14-3.94,10.62-2.14 c 2.06-2.14,5.48-5.14,11.48-3.08 s 11.91,9.68,11.57,16-5.83,8.57-10.28,8.23-7.54-3.08-10.37-7.37 S 310.86,565.91,305.38,565.66Z" fill="#f05a72"/>
  </g>
  <g id="outline">
    <path d="M 300,539.65 c -8-6.54-13.22,1.93-13.22,1.93,8-6.09,13.22,1.19,13.22,1.19 s 5.2-7.28,13.22-1.19 C 313.22,541.58,308,533.11,300,539.65Z"/>
    <path d="M 300,442.32 a 73.86,73.86,0,1,0,27.79,142.27,8.91,8.91,0,0,1-3.56-1.27,71.63,71.63,0,1,1,14.91-7.49,11.52,11.52,0,0,1-.88,3.5,73.84,73.84,0,0,0-38.27-137Z"/>
    <path d="M 318.71,561.77 c .47-.55,3.48-1.72,4-2,0,0-4.62-.12-7.12-2.62-3.16-3.16-5.67-5.43-9-5.43 s -5.95,2.8-6.57,3.71 c -.62-.91-3.19-3.71-6.57-3.71 s -6,2.82-8.19,6.12 a 6.83,6.83,0,0,1-5.79,3 c 3.28,1.84,4.66,8.47,9.66,12.54 a 17.62,17.62,0,0,0,21.76,0,31.1,31.1,0,0,0,2.53-2.17 c -.3-.37-.77-.8-1.25-1.33 A 18,18,0,0,1,300,575.15 a 16.15,16.15,0,0,1-12.88-6.47 c -1.07-1.41-2.16-4.26-3.9-6.27,2.61,2,8.35,5.17,16.78,5.17 a 31.35,31.35,0,0,0,7.43-.87,6.69,6.69,0,0,0-2.31-1.08 c .2-.12.4-.22.6-.33 a 40.1,40.1,0,0,1-5.72.43 c -3.69,0-10.89-.61-17.13-4.18,2.12.27,3.29-1.33,4.79-3.54,1.28-1.89,3.7-5.13,6.83-4.07 a 13.66,13.66,0,0,1,5.51,4.23,13.66,13.66,0,0,1,5.51-4.23 c 3.13-1.06,5.86,2,7.49,3.56,2.55,2.5,4,3.77,6,3.25Z"/>
    <path d="M 324.83,558.8 c 4.14,0,11.7,3.9,14.74,14,3.59,11.94-12.77,17.09-18.94,8.87 s -10.28-15.42-17.14-15.25 c 2.4-3.94,17.31-8.4,25.88,5.14-7-7.37-15.25-8.4-21.42-5.83,4.46,1.2,10.28,9.25,13,13.2 s 7.71,6.51,13.2,3.6,4.44-8.64,2.48-12.77 c -4-8.48-14.14-12.42-19.79-6.26 h -2.23 S 316.6,558.8,324.83,558.8Z"/>
  </g>
<script type="text/ecmascript" xlink:href="param.min.js"/> 
</svg>
