<?xml version="1.0"?>
<svg xmlns="http://www.w3.org/2000/svg" xmlns:xlink="http://www.w3.org/1999/xlink" viewBox="0 0 600 1032.36">
  <title>EX014</title>
  <g id="skin-tone">
    <circle cx="300" cy="516.18" r="72.64" fill="param(skin_tone)"/>
  </g>
  <g id="fixed-colours">
    <path d="M 284,561.28 a 15.06,15.06,0,0,0,4.69-3.56 c 1.75-2.19,4.69-5.25,6.94-5.31 S 300,555,300,555 s 2-2.74,4.12-2.61,4.19,2.31,5.81,4.13,4.51,4.36,6.14,4.56 a 27.16,27.16,0,0,0-5.26,7.19 A 12.36,12.36,0,0,1,300,574.47 a 11.94,11.94,0,0,1-10.07-5.56 c -1.44-2.19-4.81-6.5-4.81-6.5Z" fill="#e8b0af"/>
    <circle cx="266.75" cy="559.16" r="10.94" fill="#e8b0af"/>
    <circle cx="333.25" cy="559.16" r="10.94" fill="#e8b0af"/>
    <path d="M 366.82,495 a 45.63,45.63,0,0,0-23.37-7.17 c -13.54-.23-25.24,8.43-27.49,11 s -1.71,4.91-.78,6.16,3.54,1.33,5.7,0,7.26-6.93,13.44-9.57 S 354.55,490.06,366.82,495Z" opacity="0.5"/>
    <path d="M 233.46,490.87 a 45.63,45.63,0,0,1,20-14.08 c 12.8-4.43,26.6.17,29.54,1.87 s 3.15,4.14,2.66,5.61-3,2.36-5.41,1.77-9.06-4.33-15.75-4.92 S 243.6,482.41,233.46,490.87Z" opacity="0.5"/>
    <path d="M 298.32,556.8 c -.07,1.2-1.21-.07-2.7-.15 s -2.77,1-2.7-.16 a 2.77,2.77,0,0,1,5.41.31Z" fill="#fff" opacity="0.5"/>
    <path d="M 301.68,556.8 c .07,1.2,1.21-.07,2.7-.15 s 2.77,1,2.7-.16 a 2.77,2.77,0,0,0-5.41.31Z" fill="#fff" opacity="0.5"/>
    <path d="M 306.18,566.88 c 0,1.07-2.77,3.38-6.18,3.38 s -6.18-2.31-6.18-3.38,2.77,1.44,6.18,1.44 S 306.18,565.81,306.18,566.88Z" fill="#fff" opacity="0.5"/>
  </g>
  <g id="outline">
    <path d="M 300,590 a 73.86,73.86,0,1,1,73.86-73.86 A 73.94,73.94,0,0,1,300,590Z m 0-145.24 a 71.38,71.38,0,1,0,71.38,71.38 A 71.46,71.46,0,0,0,300,444.8Z"/>
    <path d="M 300,539.57 c -8-6.52-13.18,1.93-13.18,1.93,8-6.07,13.18,1.18,13.18,1.18 s 5.18-7.26,13.18-1.18 C 313.18,541.5,308,533.06,300,539.57Z"/>
    <path d="M 311.54,556.5 c -2.75-3.5-6.87-6.75-9.87-4.33 a 13.87,13.87,0,0,0-1.67,1.65,13.85,13.85,0,0,0-1.67-1.65 c -3-2.42-7.12.83-9.87,4.33 a 15.47,15.47,0,0,1-6.16,4.74 c 2.47.71,4.32,4.25,6.72,8.24 a 13.22,13.22,0,0,0,11,6.29,13,13,0,0,0,11-6.29 c 2.38-4,4.25-7.54,6.72-8.24 A 15.47,15.47,0,0,1,311.54,556.5Z m -1.34,11.16 a 11.49,11.49,0,0,1-20.4,0 c -1.65-2.78-2.78-5.19-5.28-6.28 a 10.4,10.4,0,0,0,5.3-3.76 c 1.75-2.25,4.17-4.5,6-4.5 s 4.17,2.82,4.17,2.82,2.34-2.82,4.17-2.82,4.25,2.25,6,4.5 a 10.4,10.4,0,0,0,5.3,3.76 C 313,562.47,311.85,564.88,310.2,567.66Z"/>
    <path d="M 316.07,561 s -4.53.73-7.75-.61 c -3.73-1.55-6.44.06-8.32-.08-1.89.14-4.58-1.45-8.32.08 a 15.4,15.4,0,0,1-7.75.61.48.48,0,0,0,.23.63,21.61,21.61,0,0,0,9.38.05 c 1,1.56,3.09,4.74,6.46,4.74 s 5.62-3.33,6.52-4.84 c 2.49.48,7.06.67,9.32,0 A .48.48,0,0,0,316.07,561Z"/>
  </g>
<script type="text/ecmascript" xlink:href="param.min.js"/> 
</svg>
