<?xml version="1.0"?>
<svg xmlns="http://www.w3.org/2000/svg" xmlns:xlink="http://www.w3.org/1999/xlink" viewBox="0 0 600 1032.36">
  <title>EX020</title>
  <g id="skin-tone">
    <circle cx="300" cy="516.18" r="72.64" fill="param(skin_tone)"/>
  </g>
  <g id="fixed-colours">
    <path d="M 284,561.28 a 15.06,15.06,0,0,0,4.69-3.56 c 1.75-2.19,4.69-5.25,6.94-5.31 S 300,555,300,555 s 2-2.74,4.12-2.61,4.19,2.31,5.81,4.13,4.51,4.36,6.14,4.56 a 27.16,27.16,0,0,0-5.26,7.19 A 12.36,12.36,0,0,1,300,574.47 a 11.94,11.94,0,0,1-10.07-5.56 c -1.44-2.19-4.81-6.5-4.81-6.5Z" fill="#e8b0af"/>
    <circle cx="254.85" cy="546.93" r="13" fill="#f05a72"/>
    <circle cx="345.15" cy="546.93" r="13" fill="#f05a72"/>
    <path d="M 234.38,493.43 a 45.63,45.63,0,0,1,18.49-16 c 12.3-5.68,26.49-2.47,29.58-1.07 s 3.55,3.8,3.2,5.32-2.7,2.64-5.21,2.3-9.44-3.41-16.16-3.34 S 243.63,484,234.38,493.43Z" opacity="0.5"/>
    <path d="M 365.62,493.43 a 45.63,45.63,0,0,0-18.49-16 c -12.3-5.68-26.49-2.47-29.58-1.07 s -3.55,3.8-3.2,5.32,2.7,2.64,5.21,2.3,9.44-3.41,16.16-3.34 S 356.37,484,365.62,493.43Z" opacity="0.5"/>
    <path d="M 298.32,556.8 c -.07,1.2-1.21-.07-2.7-.15 s -2.77,1-2.7-.16 a 2.77,2.77,0,0,1,5.41.31Z" fill="#fff" opacity="0.5"/>
    <path d="M 301.68,556.8 c .07,1.2,1.21-.07,2.7-.15 s 2.77,1,2.7-.16 a 2.77,2.77,0,0,0-5.41.31Z" fill="#fff" opacity="0.5"/>
    <path d="M 306.18,566.88 c 0,1.07-2.77,3.38-6.18,3.38 s -6.18-2.31-6.18-3.38,2.77,1.44,6.18,1.44 S 306.18,565.81,306.18,566.88Z" fill="#fff" opacity="0.5"/>
  </g>
  <g id="outline">
    <path d="M 300,442.32 a 73.86,73.86,0,1,0,73.86,73.86 A 73.94,73.94,0,0,0,300,442.32Z m 0,145.24 a 71.38,71.38,0,1,1,71.38-71.38 A 71.46,71.46,0,0,1,300,587.56Z"/>
    <path d="M 300,542.68 s 5.18-7.26,13.18-1.18 c 0,0-5.18-8.44-13.18-1.93-8-6.52-13.18,1.93-13.18,1.93 C 294.82,535.42,300,542.68,300,542.68Z"/>
    <path d="M 311.54,556.5 c -2.64-3.58-6.87-6.75-9.87-4.33 a 13.85,13.85,0,0,0-1.67,1.65,13.85,13.85,0,0,0-1.67-1.65 c -3-2.42-7.22.75-9.87,4.33 a 7.36,7.36,0,0,1-7.05,3.25 c 3.54,2.87,5.21,5.75,7.61,9.74 a 12.74,12.74,0,0,0,22,0 c 2.4-4,4.07-6.87,7.61-9.74 A 7.36,7.36,0,0,1,311.54,556.5Z m -21.71,1.12 c 1.75-2.25,4.17-4.5,6-4.5 s 4.17,2.82,4.17,2.82,2.34-2.82,4.17-2.82,4.25,2.25,6,4.5,3.83,3.21,5.49,3.21 l -.35.3 a 15.79,15.79,0,0,1-7-.7 c -3.73-1.55-6.44.06-8.32-.08-1.89.14-4.58-1.45-8.32.08 a 14.75,14.75,0,0,1-7,.73 l -.38-.33 C 286,560.82,288.08,559.86,289.83,557.61Z m 20.37,10 a 11.49,11.49,0,0,1-20.4,0,26,26,0,0,0-4.2-5.71,21.81,21.81,0,0,0,7.94-.24 c 1,1.56,3.09,4.74,6.46,4.74 s 5.61-3.33,6.52-4.84 a 29.91,29.91,0,0,0,7.92.29 A 25.83,25.83,0,0,0,310.2,567.66Z"/>
  </g>
<script type="text/ecmascript" xlink:href="param.min.js"/> 
</svg>
