<?xml version="1.0"?>
<svg xmlns="http://www.w3.org/2000/svg" xmlns:xlink="http://www.w3.org/1999/xlink" viewBox="0 0 600 1032.36">
  <title>EX026</title>
  <g id="skin-tone">
    <circle cx="299.77" cy="516.18" r="72.87" fill="param(skin_tone)"/>
  </g>
  <g id="fixed-colours">
    <path d="M 285.79,563.91 c -.26-3.73,1.29-8.11,4-10 s 6.44-1.8,10.17,2.58 c 3.86-4.25,7.6-4.89,10.69-2.58 S 314.9,560,314.51,564 s -3.09,11.72-14.55,11.72 S 286,567.65,285.79,563.91Z" fill="#e8b0af"/>
    <circle cx="263.86" cy="556.46" r="10.98" fill="#e8b0af"/>
    <circle cx="336.24" cy="556.46" r="10.98" fill="#e8b0af"/>
    <path d="M 296.49,558.89 c 0,1.78-1.44,0-3.22,0 s -3.22,1.78-3.22,0 a 3.22,3.22,0,0,1,6.45,0Z" fill="#fbdeeb"/>
    <path d="M 303.86,558.89 c 0,1.78,1.44,0,3.22,0 s 3.22,1.78,3.22,0 a 3.22,3.22,0,1,0-6.45,0Z" fill="#fbdeeb"/>
    <path d="M 308.33,568.68 c 0,1.28-3.65,2.32-8.16,2.32 s -8.16-1-8.16-2.32,3.65,0,8.16,0 S 308.33,567.4,308.33,568.68Z" fill="#fbdeeb"/>
    <path d="M 366.82,495 a 45.63,45.63,0,0,0-22.38-9.83 c -13.42-1.8-26,5.45-28.58,7.7 s -2.27,4.68-1.49,6,3.36,1.73,5.66.66,8-6,14.46-8 S 355.2,488.68,366.82,495Z" opacity="0.5"/>
    <path d="M 233.47,490.82 a 45.63,45.63,0,0,1,19-15.39 c 12.47-5.28,26.55-1.62,29.6-.12 s 3.42,3.91,3,5.42-2.79,2.56-5.28,2.13-9.33-3.71-16-3.85 S 243,481.69,233.47,490.82Z" opacity="0.5"/>
  </g>
  <g id="outline">
    <path d="M 300,539.65 c -8-6.54-13.22,1.93-13.22,1.93,8-6.09,13.22,1.19,13.22,1.19 s 5.2-7.28,13.22-1.19 C 313.22,541.58,308,533.11,300,539.65Z"/>
    <path d="M 299.76,590 a 73.86,73.86,0,1,1,73.86-73.86 A 73.94,73.94,0,0,1,299.76,590Z m 0-145.24 a 71.38,71.38,0,1,0,71.38,71.38 A 71.46,71.46,0,0,0,299.76,444.8Z"/>
    <path d="M 305.29,551.73 c -3,.63-5.12,3.54-5.12,3.54 s -2.13-2.91-5.12-3.54 c -4.35-.92-10.58,2.26-10.43,11.33 l .06,1.15 c .76,9,9,12.73,15.49,12.73 s 14.73-3.76,15.49-12.73 l .06-1.15 C 315.88,554,309.64,550.81,305.29,551.73Z M 292,553.91 c 4.06-1.42,8.15,4.12,8.15,4.12 h 0 s 4.09-5.54,8.15-4.12 c 3,1.05,5.31,5,5.27,9.6 a 71.47,71.47,0,0,0-26.83,0 C 286.71,558.88,289,555,292,553.91Z m 8.15,21 c -3.15,0-11.57-2.37-13-8.28-.09-.35-.15-.7-.2-1.05 a 61,61,0,0,1,26.46,0 c -.05.35-.12.7-.2,1.05 C 311.75,572.59,303.32,575,300.17,575Z"/>
  </g>
<script type="text/ecmascript" xlink:href="param.min.js"/> 
</svg>
