<?xml version="1.0"?>
<svg xmlns="http://www.w3.org/2000/svg" xmlns:xlink="http://www.w3.org/1999/xlink" viewBox="0 0 600 1032.36">
  <title>EX028</title>
  <g id="skin-tone">
    <circle cx="300" cy="516.18" r="72.64" fill="param(skin_tone)"/>
  </g>
  <g id="fixed-colours">
    <path d="M 285.79,563.91 c -.26-3.73,1.29-8.11,4-10 s 6.44-1.8,10.17,2.58 c 3.86-4.25,7.6-4.89,10.69-2.58 S 314.9,560,314.51,564 s -3.09,11.72-14.55,11.72 S 286,567.65,285.79,563.91Z" fill="#e8b0af"/>
    <path d="M 366.87,495 a 45.78,45.78,0,0,0-20.05-14.12 c -12.84-4.44-26.69.17-29.63,1.88 s -3.16,4.15-2.67,5.63,3,2.37,5.43,1.78,9.09-4.35,15.8-4.94 S 356.69,486.55,366.87,495Z" opacity="0.5"/>
    <path d="M 233,495 a 45.78,45.78,0,0,1,20.05-14.12 c 12.84-4.44,26.69.17,29.63,1.88 s 3.16,4.15,2.67,5.63-3,2.37-5.43,1.78-9.09-4.35-15.8-4.94 S 243.19,486.55,233,495Z" opacity="0.5"/>
    <circle cx="266.75" cy="559.16" r="10.94" fill="#e8b0af"/>
    <circle cx="333.25" cy="559.16" r="10.94" fill="#e8b0af"/>
    <path d="M 296.49,558.89 c 0,1.78-1.44,0-3.22,0 s -3.22,1.78-3.22,0 a 3.22,3.22,0,0,1,6.45,0Z" fill="#fff" opacity="0.5"/>
    <path d="M 303.86,558.89 c 0,1.78,1.44,0,3.22,0 s 3.22,1.78,3.22,0 a 3.22,3.22,0,1,0-6.45,0Z" fill="#fff" opacity="0.5"/>
    <path d="M 308.33,568.68 c 0,1.28-3.65,2.32-8.16,2.32 s -8.16-1-8.16-2.32,3.65,0,8.16,0 S 308.33,567.4,308.33,568.68Z" fill="#fff" opacity="0.5"/>
  </g>
  <g id="outline">
    <path d="M 300,590 a 73.86,73.86,0,1,1,73.86-73.86 A 73.94,73.94,0,0,1,300,590Z m 0-145.24 a 71.38,71.38,0,1,0,71.38,71.38 A 71.46,71.46,0,0,0,300,444.8Z"/>
    <path d="M 300,539.57 c -8-6.52-13.18,1.93-13.18,1.93,8-6.07,13.18,1.18,13.18,1.18 s 5.18-7.26,13.18-1.18 C 313.18,541.5,308,533.06,300,539.57Z"/>
    <path d="M 305.29,551.73 c -3,.63-5.12,3.54-5.12,3.54 s -2.13-2.91-5.12-3.54 c -4.35-.92-10.58,2.26-10.43,11.33 l .06,1.15 c .76,9,9,12.73,15.49,12.73 s 14.73-3.76,15.49-12.73 l .06-1.15 C 315.88,554,309.64,550.81,305.29,551.73Z M 292,553.91 c 4.06-1.42,8.15,4.12,8.15,4.12 h 0 s 4.09-5.54,8.15-4.12 c 3,1.05,5.31,5,5.27,9.6 a 71.47,71.47,0,0,0-26.83,0 C 286.71,558.88,289,555,292,553.91Z m 8.15,21 c -3.15,0-11.57-2.37-13-8.28-.09-.35-.15-.7-.2-1.05 a 61,61,0,0,1,26.46,0 c -.05.35-.12.7-.2,1.05 C 311.75,572.59,303.32,575,300.17,575Z"/>
  </g>
<script type="text/ecmascript" xlink:href="param.min.js"/> 
</svg>
