<?xml version="1.0"?>
<svg xmlns="http://www.w3.org/2000/svg" xmlns:xlink="http://www.w3.org/1999/xlink" viewBox="0 0 600 1032.36">
  <title>EX027</title>
  <g id="skin-tone">
    <circle cx="300" cy="516.18" r="72.64" fill="param(skin_tone)"/>
  </g>
  <g id="fixed-colours">
    <path d="M 300.06,556 s -3.06-3.72-7.5-3.1-6.83,5.4-5.94,10.81,3.47,11.81,12.86,11.91,13.05-6.65,13.73-9.88.52-7.68-1.65-10.36 S 304.46,551.57,300.06,556Z" fill="#e8b0af"/>
    <circle cx="266.75" cy="559.16" r="10.94" fill="#e8b0af"/>
    <circle cx="333.25" cy="559.16" r="10.94" fill="#e8b0af"/>
    <path d="M 233.46,490.87 a 45.63,45.63,0,0,1,21.79-11.08 c 13.3-2.56,26.31,4,29,6.07 s 2.53,4.54,1.83,5.93-3.26,1.92-5.61,1-8.35-5.58-14.89-7.12 S 244.71,483.94,233.46,490.87Z" opacity="0.5"/>
    <path d="M 366.54,490.87 a 45.63,45.63,0,0,0-21.79-11.08 c -13.3-2.56-26.31,4-29,6.07 s -2.53,4.54-1.83,5.93,3.26,1.92,5.61,1,8.35-5.58,14.89-7.12 S 355.29,483.94,366.54,490.87Z" opacity="0.5"/>
    <path d="M 296.49,558.91 c 0,1.78-1.44,0-3.22,0 s -3.22,1.78-3.22,0 a 3.22,3.22,0,0,1,6.45,0Z" fill="#fff" opacity="0.5"/>
    <path d="M 303.86,558.91 c 0,1.78,1.44,0,3.22,0 s 3.22,1.78,3.22,0 a 3.22,3.22,0,1,0-6.45,0Z" fill="#fff" opacity="0.5"/>
    <path d="M 308.33,567.93 c 0,1.28-3.65,3.33-8.16,3.33 s -8.16-2-8.16-3.33,3.65,1,8.16,1 S 308.33,566.64,308.33,567.93Z" fill="#fff" opacity="0.5"/>
  </g>
  <g id="outline">
    <path d="M 300,590 a 73.86,73.86,0,1,1,73.86-73.86 A 73.94,73.94,0,0,1,300,590Z m 0-145.24 a 71.38,71.38,0,1,0,71.38,71.38 A 71.46,71.46,0,0,0,300,444.8Z"/>
    <path d="M 300,539.57 c -8-6.52-13.18,1.93-13.18,1.93,8-6.07,13.18,1.18,13.18,1.18 s 5.18-7.26,13.18-1.18 C 313.18,541.5,308,533.06,300,539.57Z"/>
    <path d="M 318.79,567 a 18.3,18.3,0,0,0-4.18-3.9 c .3-4.84-1.6-10.57-6.56-11.23 a 8.43,8.43,0,0,0-8.05,3.1,8.43,8.43,0,0,0-8.05-3.1 c -5,.65-6.86,6.39-6.56,11.23 a 18.3,18.3,0,0,0-4.18,3.9,17.4,17.4,0,0,1,4.29-2.83 c 0,.13,0,.27.05.4.82,5,3.79,12.08,14.35,12.18 h .21 c 10.56-.09,13.53-7.15,14.35-12.18,0-.13,0-.27.05-.4 A 17.4,17.4,0,0,1,318.79,567Z M 293.7,554 c 2.68.18,4.66,1.52,6.28,4.08 l 0,0,0,0 c 1.62-2.56,3.6-3.9,6.28-4.08,2.86-.19,6.33,3.06,6.44,8 a 9.75,9.75,0,0,0-7.06-.54 c -2.07.72-3.3,2.07-5.68,2.07 s -3.61-1.34-5.68-2.07 a 9.75,9.75,0,0,0-7.06.54 C 287.37,557.07,290.84,553.82,293.7,554Z m 6.3,20.54 c -5.12,0-11.71-2.61-12.68-11.14 a 10.69,10.69,0,0,1,4.42-.68 c 2.48.31,5.68,2.79,8.26,2.79 s 5.78-2.48,8.26-2.79 a 10.69,10.69,0,0,1,4.42.68 C 311.71,571.94,305.12,574.52,300,574.56Z"/>
  </g>
<script type="text/ecmascript" xlink:href="param.min.js"/> 
</svg>
