<?xml version="1.0"?>
<svg xmlns="http://www.w3.org/2000/svg" xmlns:xlink="http://www.w3.org/1999/xlink" viewBox="0 0 600 1032.36">
  <title>EX029</title>
  <g id="skin-tone">
    <circle cx="300" cy="516.18" r="72.64" fill="param(skin_tone)"/>
  </g>
  <g id="fixed-colours">
    <path d="M 285.79,563.91 c -.26-3.73,1.29-8.11,4-10 s 6.44-1.8,10.17,2.58 c 3.86-4.25,7.6-4.89,10.69-2.58 S 314.9,560,314.51,564 s -3.09,11.72-14.55,11.72 S 286,567.65,285.79,563.91Z" fill="#e8b0af"/>
    <path d="M 296.49,558.89 c 0,1.78-1.44,0-3.22,0 s -3.22,1.78-3.22,0 a 3.22,3.22,0,0,1,6.45,0Z" fill="#fff" opacity="0.5"/>
    <path d="M 303.86,558.89 c 0,1.78,1.44,0,3.22,0 s 3.22,1.78,3.22,0 a 3.22,3.22,0,1,0-6.45,0Z" fill="#fff" opacity="0.5"/>
    <path d="M 308.33,568.68 c 0,1.28-3.65,2.32-8.16,2.32 s -8.16-1-8.16-2.32,3.65,0,8.16,0 S 308.33,567.4,308.33,568.68Z" fill="#fff" opacity="0.5"/>
    <path d="M 236.48,486.22 A 45.63,45.63,0,0,1,252.73,468 c 11.45-7.23,27-5.64,30.21-4.65 s 4,3.31,3.87,4.86-2.34,3-4.87,3-11.63-2.28-18.28-1.33 S 244.43,475.66,236.48,486.22Z" opacity="0.5"/>
    <path d="M 363.52,486.22 A 45.63,45.63,0,0,0,347.27,468 c -11.45-7.23-27-5.64-30.21-4.65 s -4,3.31-3.87,4.86,2.34,3,4.87,3,11.63-2.28,18.28-1.33 S 355.57,475.66,363.52,486.22Z" opacity="0.5"/>
    <circle cx="259.1" cy="551.18" r="13" fill="#f05a72"/>
    <circle cx="340.9" cy="551.18" r="13" fill="#f05a72"/>
  </g>
  <g id="outline">
    <path d="M 300,590 a 73.86,73.86,0,1,1,73.86-73.86 A 73.94,73.94,0,0,1,300,590Z m 0-145.24 a 71.38,71.38,0,1,0,71.38,71.38 A 71.46,71.46,0,0,0,300,444.8Z"/>
    <path d="M 300,539.57 c -8-6.52-13.18,1.93-13.18,1.93,8-6.07,13.18,1.18,13.18,1.18 s 5.18-7.26,13.18-1.18 C 313.18,541.5,308,533.06,300,539.57Z"/>
    <path d="M 305.29,551.73 c -3,.63-5.12,3.54-5.12,3.54 s -2.13-2.91-5.12-3.54 c -4.35-.92-10.58,2.26-10.43,11.33 l .06,1.15 c .76,9,9,12.73,15.49,12.73 s 14.73-3.76,15.49-12.73 l .06-1.15 C 315.88,554,309.64,550.81,305.29,551.73Z M 292,553.91 c 4.06-1.42,8.15,4.12,8.15,4.12 h 0 s 4.09-5.54,8.15-4.12 c 3,1.05,5.31,5,5.27,9.6 a 71.47,71.47,0,0,0-26.83,0 C 286.71,558.88,289,555,292,553.91Z m 8.15,21 c -3.15,0-11.57-2.37-13-8.28-.09-.35-.15-.7-.2-1.05 a 61,61,0,0,1,26.46,0 c -.05.35-.12.7-.2,1.05 C 311.75,572.59,303.32,575,300.17,575Z"/>
  </g>
<script type="text/ecmascript" xlink:href="param.min.js"/> 
</svg>
