<?xml version="1.0"?>
<svg xmlns="http://www.w3.org/2000/svg" xmlns:xlink="http://www.w3.org/1999/xlink" viewBox="0 0 600 1032.36">
  <title>EX025</title>
  <g id="skin-tone">
    <circle cx="299.77" cy="516.18" r="72.87" fill="param(skin_tone)"/>
  </g>
  <g id="fixed-colours">
    <path d="M 366.87,495 a 45.78,45.78,0,0,0-20.05-14.12 c -12.84-4.44-26.69.17-29.63,1.88 s -3.16,4.15-2.67,5.63,3,2.37,5.43,1.78,9.09-4.35,15.8-4.94 S 356.69,486.55,366.87,495Z" opacity="0.5"/>
    <path d="M 233,495 a 45.78,45.78,0,0,1,20.05-14.12 c 12.84-4.44,26.69.17,29.63,1.88 s 3.16,4.15,2.67,5.63-3,2.37-5.43,1.78-9.09-4.35-15.8-4.94 S 243.19,486.55,233,495Z" opacity="0.5"/>
    <circle cx="266.41" cy="559.3" r="10.98" fill="#e8b0af"/>
    <circle cx="333.12" cy="559.3" r="10.98" fill="#e8b0af"/>
  </g>
  <g id="outline">
    <path d="M 299.77,539.65 c -8-6.54-13.22,1.93-13.22,1.93,8-6.09,13.22,1.19,13.22,1.19 s 5.2-7.28,13.22-1.19 C 313,541.58,307.79,533.11,299.77,539.65Z"/>
    <path d="M 299.76,590 a 73.86,73.86,0,1,1,73.86-73.86 A 73.94,73.94,0,0,1,299.76,590Z m 0-145.24 a 71.38,71.38,0,1,0,71.38,71.38 A 71.46,71.46,0,0,0,299.76,444.8Z"/>
  </g>
<script type="text/ecmascript" xlink:href="param.min.js"/> 
</svg>
