<?xml version="1.0"?>
<svg xmlns="http://www.w3.org/2000/svg" xmlns:xlink="http://www.w3.org/1999/xlink" viewBox="0 0 600 1032.36">
  <title>EX039</title>
  <g id="skin-tone">
    <circle cx="300" cy="516.18" r="72.64" fill="param(skin_tone)"/>
  </g>
  <g id="fixed-colours">
    <path d="M 281.91,569.2 a 78.87,78.87,0,0,0,4.5-7.08 c 1.75-3.25,4.58-7.75,8-8.83 s 6.17.17,6.92,1.5 c 2.42-2.08,5.42-2.5,7.83-.33 s 5.42,11,7.92,13.08 a 20.52,20.52,0,0,0-9.83,3.92 c -1.83,1.17-5.58,3.25-10.08,1.92 S 287.66,568.61,281.91,569.2Z" fill="#e8b0af"/>
    <path d="M 233,495 a 45.78,45.78,0,0,1,20.05-14.12 c 12.84-4.44,26.69.17,29.63,1.88 s 3.16,4.15,2.67,5.63-3,2.37-5.43,1.78-9.09-4.35-15.8-4.94 S 243.19,486.55,233,495Z" opacity="0.5"/>
    <circle cx="266.75" cy="559.16" r="10.94" fill="#e8b0af"/>
    <circle cx="333.25" cy="559.16" r="10.94" fill="#e8b0af"/>
    <path d="M 361.44,493.82 s -1.08-4.14-8.66-6.4-17.33-3.84-22.84-9.94-9.16-12-12.41-10,1.77,9.65,6,13.49 c 4,3.59,12,6.4,18.71,7.19 S 357.7,488.7,361.44,493.82Z" opacity="0.5"/>
    <path d="M 301.58,562.95 c 5.26-.84,9.17.33,9.08,1.42 s -5.17.67-8.58,1.25-9.75,2.08-10.33,1 S 295.83,563.86,301.58,562.95Z" fill="#fff" opacity="0.5"/>
    <path d="M 296.43,555 c 1.92-.3,3.65.75,3.65,1.17 s -2.29,0-4.15.52 c -1.65.44-4.44,2.73-3.85,1.4 A 6,6,0,0,1,296.43,555Z" fill="#fff" opacity="0.5"/>
    <path d="M 306,555 c 2,.29,3.31,1.75,3,2.19 s -1.94-.62-3.19-.81-2.87,0-2.94-.5 S 304.24,554.74,306,555Z" fill="#fff" opacity="0.5"/>
  </g>
  <g id="outline">
    <path d="M 300,590 a 73.86,73.86,0,1,1,73.86-73.86 A 73.94,73.94,0,0,1,300,590Z m 0-145.24 a 71.38,71.38,0,1,0,71.38,71.38 A 71.46,71.46,0,0,0,300,444.8Z"/>
    <path d="M 300,539.57 c -8-6.52-13.18,1.93-13.18,1.93,8-6.07,13.18,1.18,13.18,1.18 s 5.18-7.26,13.18-1.18 C 313.18,541.5,308,533.06,300,539.57Z"/>
    <path d="M 314.37,560.85 C 313,557,309.45,552.39,306,552 a 4.46,4.46,0,0,0-4.64,1.91 s -1-2-5.19-2-7.78,4.64-10.37,9.83 a 40,40,0,0,1-6.14,8.87 c 5.32-1.09,10.65,1.77,15.83,3.55 s 9.83-.41,12-1.64,6.69-4.5,11.6-4 C 317.78,567.81,315.73,564.67,314.37,560.85Z m -25.25-1.36 c 1.77-3,7-8.05,12.42-4 a 5.66,5.66,0,0,1,7.92.55 c 1.77,1.91,3,5.46,4.09,6.69 a 9.75,9.75,0,0,0-7.23-2.87,11.09,11.09,0,0,0-14.47,3,41.64,41.64,0,0,0-7.37,3.82 S 287.34,562.49,289.12,559.48Z m 13.51,12.69 a 17.54,17.54,0,0,1-10.37-1.91,12.68,12.68,0,0,0-7.23-1.77,39.11,39.11,0,0,1,13.1-6.28 c 7.78-2,13.92-.68,17.06,4.5 C 311.5,566.85,306.59,571.63,302.63,572.18Z"/>
  </g>
<script type="text/ecmascript" xlink:href="param.min.js"/> 
</svg>
