<?xml version="1.0"?>
<svg xmlns="http://www.w3.org/2000/svg" xmlns:xlink="http://www.w3.org/1999/xlink" viewBox="0 0 600 1032.36">
  <title>EX035</title>
  <g id="skin-tone">
    <circle cx="300" cy="516.18" r="72.64" fill="param(skin_tone)"/>
  </g>
  <g id="fixed-colours">
    <path d="M 284.51,563.67 s 1.87-.87,3.67-4.39,2.92-7.45,5.12-8.7,4.56-1.41,6.5,1.48 c 2-2.07,4.4-4.14,7.29-1.25 s 4.56,10.84,8.4,12.85 c -.94.37-3.25,0-5.35-1.37 s -4.69-4.33-6.5-4.27-2.3,1.05-3.45,1-2.56-1-4-1-4.14,2.69-5.61,3.71 S 286,564.15,284.51,563.67Z" fill="#e8b0af"/>
    <path d="M 284.87,563.76 a 8.74,8.74,0,0,1,4.48,2.36 c 2.56,2.22,5,5.73,6.25,6.79 s 3.66,2.76,6.2,1.78,4.66-4.28,6.26-6.11,4.78-4.64,7-4.77 a 12.34,12.34,0,0,0-3.41,5.84 c -1,3.33-2.56,7.93-6,10.37 s -7.61,1.53-9,1.11 a 14.68,14.68,0,0,1-5.94-5.17,38.66,38.66,0,0,1-2.71-6.6 C 287.5,568,286.13,564.42,284.87,563.76Z" fill="#e8b0af"/>
    <path d="M 293.55,570.47 s 2.6-3.37,6.4-3.37,6.59,3.29,6.59,3.29 S 303.09,575,300,575,293.55,570.47,293.55,570.47Z" fill="#c78383"/>
    <path d="M 285.76,563.81 a 9.84,9.84,0,0,0,5.07-2 c 2.12-1.8,4.23-4,5.93-3.74 s 2.08,1.18,3.28,1.13,2.32-1.27,3.6-1.17,3.4,2,4.91,3.21 a 10.52,10.52,0,0,0,6,2.56,12.79,12.79,0,0,0-4.78,2.88 c -1.21,1.35-3.1,3.82-3.1,3.82 s -3.46-3.5-6.68-3.27-6.69,3.2-6.69,3.2 S 289.8,565.32,285.76,563.81Z" fill="#7d4040"/>
    <circle cx="266.75" cy="559.16" r="10.94" fill="#e8b0af"/>
    <circle cx="333.25" cy="559.16" r="10.94" fill="#e8b0af"/>
    <path d="M 236.48,486.22 A 45.63,45.63,0,0,1,252.73,468 c 11.45-7.23,27-5.64,30.21-4.65 s 4,3.31,3.87,4.86-2.34,3-4.87,3-11.63-2.28-18.28-1.33 S 244.43,475.66,236.48,486.22Z" opacity="0.5"/>
    <path d="M 363.52,486.22 A 45.63,45.63,0,0,0,347.27,468 c -11.45-7.23-27-5.64-30.21-4.65 s -4,3.31-3.87,4.86,2.34,3,4.87,3,11.63-2.28,18.28-1.33 S 355.57,475.66,363.52,486.22Z" opacity="0.5"/>
  </g>
  <g id="outline">
    <path d="M 300,442.32 a 73.86,73.86,0,1,0,73.86,73.86 A 73.94,73.94,0,0,0,300,442.32Z m 0,145.24 a 71.38,71.38,0,1,1,71.38-71.38 A 71.46,71.46,0,0,1,300,587.56Z"/>
    <path d="M 300,542.68 s 5.18-7.26,13.18-1.18 c 0,0-5.18-8.44-13.18-1.93-8-6.52-13.18,1.93-13.18,1.93 C 294.82,535.42,300,542.68,300,542.68Z"/>
    <path d="M 304.13,548.38 a 4.75,4.75,0,0,0-4.14,2.56,4.75,4.75,0,0,0-4.14-2.56 c -3.68,0-5.78,4.07-7.29,8.34 a 21.32,21.32,0,0,1-4.07,7 c 4.33,0,6.58-13.06,11.42-13.06,2.3,0,4.07,2.69,4.07,2.69 s 1.77-2.69,4.07-2.69 c 4.84,0,7.09,13.06,11.42,13.06 a 21.32,21.32,0,0,1-4.07-7 C 309.91,552.45,307.81,548.38,304.13,548.38Z"/>
    <path d="M 310.34,561.77 c -2.4-2-4.63-4.4-6.79-4.4-1.61,0-2,1.15-3.54,1.15 s -1.94-1.15-3.54-1.15 c -2.17,0-4.4,2.43-6.79,4.4 a 8.57,8.57,0,0,1-5.15,1.9,12.9,12.9,0,0,1,2.89,5.51 c .84,3.23,3,13.26,12.6,13.26 s 11.77-10,12.6-13.26 a 12.9,12.9,0,0,1,2.89-5.51 A 8.57,8.57,0,0,1,310.34,561.77Z m .16,8.93 c -1.05,3.81-2.95,7.21-5.64,8.79 a 9.62,9.62,0,0,1-9.73,0 c -2.69-1.58-4.59-5-5.64-8.79-.88-3.19-2.49-5.72-4.07-6.66,4.62,2,6.38,5.76,8.88,8.38,2.66,2.79,4.41,3.23,5.69,3.23 s 3-.44,5.69-3.23 c 2.5-2.62,4.26-6.36,8.88-8.38 C 313,565,311.38,567.51,310.5,570.69Z m -4.62-.11 c -.43.51-.83,1-1.22,1.36-1.67,1.64-3.18,2.53-4.66,2.53 s -3-.89-4.66-2.53 c -.38-.38-.79-.85-1.22-1.36 a 7.51,7.51,0,0,1,11.76,0Z m 4.89-5.27 a 24.36,24.36,0,0,0-4.17,4.4,8.47,8.47,0,0,0-13.18,0,24.36,24.36,0,0,0-4.17-4.4,8.82,8.82,0,0,0-2.94-1.37 c 3.57.08,6.17-2.75,7.53-3.88,1.15-1,2.79-1.73,3.84-1 a 3.72,3.72,0,0,0,4.66,0 c 1-.71,2.69.05,3.84,1,1.36,1.14,4,4,7.53,3.88 A 8.82,8.82,0,0,0,310.76,565.31Z"/>
  </g>
  <g id="misc-objects">
    <path d="M 304.82,577 c 0,1.28-2.18,2.32-4.88,2.32 s -4.88-1-4.88-2.32,2.18,0,4.88,0 S 304.82,575.68,304.82,577Z" fill="#fff" opacity="0.5"/>
    <path d="M 298.87,554.75 c 0,1.58-1.28,0-2.86,0 s -2.86,1.58-2.86,0 a 2.86,2.86,0,0,1,5.73,0Z" fill="#fff" opacity="0.5"/>
    <path d="M 301.13,554.75 c 0,1.58,1.28,0,2.86,0 s 2.86,1.58,2.86,0 a 2.86,2.86,0,0,0-5.73,0Z" fill="#fff" opacity="0.5"/>
  </g>
<script type="text/ecmascript" xlink:href="param.min.js"/> 
</svg>
