<?xml version="1.0"?>
<svg xmlns="http://www.w3.org/2000/svg" xmlns:xlink="http://www.w3.org/1999/xlink" viewBox="0 0 600 1032.36">
  <title>EX034</title>
  <g id="skin-tone">
    <circle cx="300" cy="516.18" r="72.64" fill="param(skin_tone)"/>
  </g>
  <g id="fixed-colours">
    <path d="M 286.87,563.43 c 4.19-1,4.29-7.25,7-9.19 s 7.75-2.75,9.88,2 c 2.17-3.5,5.69-4.86,9.25-3.33 s 4.63,2.5,8.5,2 c -.25,15.88-10.59,22-20.42,21.5 C 294.31,576.05,289.53,567.8,286.87,563.43Z" fill="#e8b0af"/>
    <circle cx="266.75" cy="559.16" r="10.94" fill="#e8b0af"/>
    <path d="M 365.4,484.43 a 45.63,45.63,0,0,0-24-4.54 c -13.48,1.27-24.14,11.17-26.11,13.94 s -1.15,5.07-.09,6.21,3.67.93,5.66-.63,6.45-7.69,12.3-11 S 352.67,480.93,365.4,484.43Z" opacity="0.5"/>
    <path d="M 233.46,490.87 a 45.63,45.63,0,0,1,20-14.08 c 12.8-4.43,26.6.17,29.54,1.87 s 3.15,4.14,2.66,5.61-3,2.36-5.41,1.77-9.06-4.33-15.75-4.92 S 243.6,482.41,233.46,490.87Z" opacity="0.5"/>
    <circle cx="341.52" cy="550.61" r="10.94" fill="#e8b0af"/>
    <path d="M 302.56,557.56 c 0,1.53-2.21-.43-4.13-.5-1.52-.06-4,2-4,.43 s 1.95-2.73,3.47-2.72 C 299.78,554.78,302.56,556,302.56,557.56Z" fill="#fff" opacity="0.5"/>
    <path d="M 305.6,557.43 c 0,1.64,1.82-.66,3.89-.81,2.34-.17,6,1.37,6.13.42.15-1.19-3.72-2.79-5.36-2.79 S 305.6,555.79,305.6,557.43Z" fill="#fff" opacity="0.5"/>
    <path d="M 316.37,565.61 c 0,1.29-4.62,5.88-13.66,6-4.52.06-8.21-.82-8.25-2.1 s 3.66-.35,8.18-.23 C 310.62,569.49,316.33,564.33,316.37,565.61Z" fill="#fff" opacity="0.5"/>
  </g>
  <g id="outline">
    <path d="M 300,590 a 73.86,73.86,0,1,1,73.86-73.86 A 73.94,73.94,0,0,1,300,590Z m 0-145.24 a 71.38,71.38,0,1,0,71.38,71.38 A 71.46,71.46,0,0,0,300,444.8Z"/>
    <path d="M 300,539.57 c -8-6.52-13.18,1.93-13.18,1.93,8-6.07,13.18,1.18,13.18,1.18 s 5.18-7.26,13.18-1.18 C 313.18,541.5,308,533.06,300,539.57Z"/>
    <path d="M 318.83,554.45 c -4.08-.68-5.1-3.34-8.92-3.17 a 8.21,8.21,0,0,0-6.25,3.67 c -.67-2.08-3.61-3.74-6.92-3.08 s -5.71,3.06-7.25,6.69 c -1.75,4.13-3.87,4.68-3.87,4.68,1.25,1.38,2.75,4.25,5.44,8 A 14.28,14.28,0,0,0,301,577 a 21,21,0,0,0,11.63-2.62 c 4.44-2.72,8.46-5.42,9.79-20.33 A 6.6,6.6,0,0,1,318.83,554.45Z m -15,2.88 a 7.66,7.66,0,0,1,5.47-4.05 c 2.45-.54,4.09.69,6.15,1.68,3.38,1.63,4,1.42,5.46.67-2.12,3.33-7,6.33-11.21,7.08-3.26.57-2.82,1.75-6.17,1.75-2.58,0-4-1.92-6.33-1.92-3,0-5.83,2.21-8.42.71,2.13-1,2.44-3.79,3.94-6 a 7.18,7.18,0,0,1,6.69-3.37 A 5.43,5.43,0,0,1,303.8,557.32Z m -.54,17.73 c -4.24.3-7.45-1.24-10.51-4.31 a 44.74,44.74,0,0,1-4.25-6 c 2.72,1.14,5.27-.17,8.67-.33,1.75-.08,3.83,1.65,6.67,1.75,2.46.08,3.71-1.38,5.67-1.67,3.42-.5,8.5-2.67,11.13-6.54-.75,2.25-1.27,8.11-5,11.61 A 20.39,20.39,0,0,1,303.26,575.05Z"/>
  </g>
<script type="text/ecmascript" xlink:href="param.min.js"/> 
</svg>
