<?xml version="1.0"?>
<svg xmlns="http://www.w3.org/2000/svg" xmlns:xlink="http://www.w3.org/1999/xlink" viewBox="0 0 600 1032.36">
  <title>EX031</title>
  <g id="skin-tone">
    <circle cx="300" cy="516.18" r="72.64" fill="param(skin_tone)"/>
  </g>
  <g id="fixed-colours">
    <path d="M 284.16,566.45 c 2.17-2.25,2.92-10.65,5.62-12.58 s 6.44-1.8,10.17,2.58 c 3.86-4.25,7.6-4.89,10.69-2.58 s 3.59,9.5,5.3,12.87 c -3.83,1.37-4.53,9-16,9 S 287.41,567.49,284.16,566.45Z" fill="#e8b0af"/>
    <circle cx="266.75" cy="559.16" r="10.94" fill="#e8b0af"/>
    <circle cx="333.25" cy="559.16" r="10.94" fill="#e8b0af"/>
    <path d="M 296.49,558.89 c 0,1.78-1.44,0-3.22,0 s -3.22,1.78-3.22,0 a 3.22,3.22,0,0,1,6.45,0Z" fill="#fff" opacity="0.5"/>
    <path d="M 303.86,558.89 c 0,1.78,1.44,0,3.22,0 s 3.22,1.78,3.22,0 a 3.22,3.22,0,1,0-6.45,0Z" fill="#fff" opacity="0.5"/>
    <path d="M 292,567.77 c 0-1.28,3.65-2.32,8.16-2.32 s 8.16,1,8.16,2.32-3.65,0-8.16,0 S 292,569.05,292,567.77Z" fill="#fff" opacity="0.5"/>
    <path d="M 234.63,491.33 A 45.63,45.63,0,0,0,258.94,494 c 13.34-2.33,23.78-13.92,25.52-16.83 s .75-5.14-.4-6.2-3.73-.63-5.6,1.08-7.09,9.5-12.66,13.26 S 247.61,493.82,234.63,491.33Z" opacity="0.5"/>
    <path d="M 365.37,491.33 A 45.63,45.63,0,0,1,341.06,494 c -13.34-2.33-23.78-13.92-25.52-16.83 s -.75-5.14.4-6.2,3.73-.63,5.6,1.08,7.09,9.5,12.66,13.26 S 352.39,493.82,365.37,491.33Z" opacity="0.5"/>
  </g>
  <g id="outline">
    <path d="M 300,590 a 73.86,73.86,0,1,1,73.86-73.86 A 73.94,73.94,0,0,1,300,590Z m 0-145.24 a 71.38,71.38,0,1,0,71.38,71.38 A 71.46,71.46,0,0,0,300,444.8Z"/>
    <path d="M 300,539.57 c -8-6.52-13.18,1.93-13.18,1.93,8-6.07,13.18,1.18,13.18,1.18 s 5.18-7.26,13.18-1.18 C 313.18,541.5,308,533.06,300,539.57Z"/>
    <path d="M 315,561.57 c -.62-2.44-1.33-11.21-9.89-9.85-3,.48-5.12,3.54-5.12,3.54 s -2.1-3.06-5.12-3.54 c -8.56-1.36-9.28,7.41-9.89,9.85 a 25.12,25.12,0,0,1-2.54,6 c 3.46-.83,5.5,9.36,17.55,9.36 s 14.1-10.19,17.56-9.36 A 25.12,25.12,0,0,1,315,561.57Z m -23.16-7.66 c 4-1.51,8.15,4.12,8.15,4.12 h 0 s 4.12-5.62,8.15-4.12 c 5.66,2.12,4.24,8.79,6.33,11-4.5-2.17-8.74-2.63-14.47-2.63 h 0 c -5.73,0-10,.46-14.47,2.63 C 287.64,562.7,286.23,556,291.89,553.91Z m 20.58,14 a 14.52,14.52,0,0,1-24.86,0,3.11,3.11,0,0,0-2.25-1.58 c 2.08-.87,7.85-2.19,14.68-2.19 s 12.6,1.32,14.68,2.19 A 3.11,3.11,0,0,0,312.46,567.95Z"/>
  </g>
<script type="text/ecmascript" xlink:href="param.min.js"/> 
</svg>
