<?xml version="1.0"?>
<svg xmlns="http://www.w3.org/2000/svg" xmlns:xlink="http://www.w3.org/1999/xlink" viewBox="0 0 600 1032.36">
  <title>EX037</title>
  <g id="skin-tone">
    <circle cx="300" cy="516.18" r="72.64" fill="param(skin_tone)"/>
  </g>
  <g id="fixed-colours">
    <path d="M 282.7,574.37 a 86.24,86.24,0,0,1,2.2-13.42 c 1.54-5.4,4.93-9.35,8.82-9.35 s 6.31,4.27,6.31,4.27,3.48-4.69,7-4.22,9.28,5.47,10.22,22.73 c -1.82-.66-5.43-.31-7.79.4 s -8.2,2.68-13.59,1.24 S 285.39,573,282.7,574.37Z" fill="#e8b0af"/>
    <circle cx="266.75" cy="559.16" r="10.94" fill="#e8b0af"/>
    <circle cx="333.25" cy="559.16" r="10.94" fill="#e8b0af"/>
    <path d="M 297.2,556.46 c 0,1.43-1.44,0-3.22,0 s -3.22,1.43-3.22,0,1.44-2.59,3.22-2.59 S 297.2,555,297.2,556.46Z" fill="#fff" opacity="0.5"/>
    <path d="M 302.8,556.46 c 0,1.43,1.44,0,3.22,0 s 3.22,1.43,3.22,0-1.44-2.59-3.22-2.59 S 302.8,555,302.8,556.46Z" fill="#fff" opacity="0.5"/>
    <path d="M 292.45,571.42 c 0-1,3.38-1.87,7.55-1.87 s 7.55.84,7.55,1.87-3.38,0-7.55,0 S 292.45,572.45,292.45,571.42Z" fill="#fff" opacity="0.5"/>
    <path d="M 288.85,570.29 a 18.55,18.55,0,0,0-5.88,4 c -.13,0-.15-.8-.15-.8 s .36-.16,1-1.35,3.35-7.17,5.35-9.56,3.12-4,5.15-4,3.31,1.38,5.51,1.31,4.33-1.28,5.87-1.31,3.64,1.22,6.47,6,5,9.32,5,9.32 l -.14.41 a 12.29,12.29,0,0,0-5.66-3.73 c -1.9-3-5.7-7.32-11.34-7.32 S 290.29,567.57,288.85,570.29Z" fill="#7d4040"/>
    <path d="M 288.85,570.29 a 17.26,17.26,0,0,1,4.56-4.95,11.94,11.94,0,0,1,10-1.64 c 3.05.89,7.36,5.24,7.9,6.87 C 307.84,568.76,298.6,566.56,288.85,570.29Z" fill="#c78383"/>
    <path d="M 238.74,493.82 s 1.08-4.14,8.66-6.4,17.33-3.84,22.84-9.94,9.16-12,12.41-10-1.77,9.65-6,13.49 c -4,3.59-12,6.4-18.71,7.19 S 242.48,488.7,238.74,493.82Z" opacity="0.5"/>
    <path d="M 361.44,493.82 s -1.08-4.14-8.66-6.4-17.33-3.84-22.84-9.94-9.16-12-12.41-10,1.77,9.65,6,13.49 c 4,3.59,12,6.4,18.71,7.19 S 357.7,488.7,361.44,493.82Z" opacity="0.5"/>
  </g>
  <g id="outline">
    <path d="M 300,442.32 a 73.86,73.86,0,1,0,73.86,73.86 A 73.94,73.94,0,0,0,300,442.32Z m 0,145.24 a 71.38,71.38,0,1,1,71.38-71.38 A 71.46,71.46,0,0,1,300,587.56Z"/>
    <path d="M 300,542.68 s 5.18-7.26,13.18-1.18 c 0,0-5.18-8.44-13.18-1.93-8-6.52-13.18,1.93-13.18,1.93 C 294.82,535.42,300,542.68,300,542.68Z"/>
    <path d="M 313.06,554.79 c -4.92-7-11.55-3.45-13.06,0-1.51-3.45-8.14-7-13.06,0 s -4.43,20-4.43,20 c 4.07-.89,7.84.79,10.34,1.62 a 19.92,19.92,0,0,0,14.31,0 c 2.49-.84,6.27-2.51,10.34-1.62 C 317.49,574.78,318,561.78,313.06,554.79Z m -2.4,18.8 A 48.42,48.42,0,0,1,300,575.27 a 48,48,0,0,1-10.67-1.67,9.38,9.38,0,0,0-5.35-.06 c 5.84-4.37,14.6-4.6,16-4.6 s 10.17.23,16,4.6 A 9.38,9.38,0,0,0,310.67,573.6Z m -20.78-4.1 c 4.42-5,9-5.75,10.11-5.75 s 5.69.72,10.11,5.75 a 30.17,30.17,0,0,0-20.23,0Z m 27,4.37-.15-.06 a 15.19,15.19,0,0,0-5.06-3.64 c -.94-1.62-4.85-7.56-11.68-7.56 s -10.74,5.94-11.68,7.56 a 15.19,15.19,0,0,0-5.06,3.64 l -.15.06 c 0-.07,0-.13,0-.2,1.47-2.58,5.18-9,7-11.39,2.36-3.05,4.12-3.32,5.32-2.82 a 10.15,10.15,0,0,0,9,0 c 1.2-.5,3-.23,5.32,2.82,1.87,2.41,5.57,8.81,7,11.39 C 316.87,573.74,316.88,573.8,316.89,573.87Z m -6.49-13 c -3-4.14-6.17-2.92-7-2.49 a 6.85,6.85,0,0,1-6.83,0 c -.82-.44-4-1.65-7,2.49 a 61.62,61.62,0,0,0-6.34,12 c 2.54-17.45,7.49-20,10.67-20,3.35,0,6.07,4.23,6.07,4.23 s 2.72-4.23,6.07-4.23 c 3.18,0,8.13,2.58,10.67,20 A 61.64,61.64,0,0,0,310.4,560.89Z"/>
  </g>
<script type="text/ecmascript" xlink:href="param.min.js"/> 
</svg>
