<?xml version="1.0"?>
<svg xmlns="http://www.w3.org/2000/svg" xmlns:xlink="http://www.w3.org/1999/xlink" viewBox="0 0 215 215">
  <title>mirror</title>
  <g id="skin-tone">
    <path d="M 111.19,131 c .94,1.29,3,.58,3.65-1.12 s .08-5,.08-5 a 4,4,0,0,0,2.76-1.42 c .88-1.29.91-3.37.58-5.21 s -3.67-3.75-5.17-5.21-1.69-4.83-1.69-4.83 l -.57-.6 h 0 s 0-.07,0-.11 a 3.33,3.33,0,0,0-3.33-3.28 h -.06 a 3.33,3.33,0,0,0-3.28,3.39 s -1.91,4.52-2.87,6.06-2,5.25-2.71,8.52-.46,5.19.54,7.06,2.79,1.29,3.83.6 c .83,2,2.92,1.52,4,.71 A 2.7,2.7,0,0,0,111.19,131Z" fill="param(skin_tone)"/>
  </g>
  <g id="main-colour">
    <path d="M 119,122.8 l 6.4.07 s .74-6,9.78-11.1,21.24-3.6,28-2.21,16.91,5.51,20.73,13.53,2.06,12.57-.51,15.8 a 29.11,29.11,0,0,1-19.26,10.44 c -10.29,1.18-33.45-1-39.4-20.22 a 90.49,90.49,0,0,0-9.56-1.84 l -.22-2.06 S 118.14,125.67,119,122.8Z" fill="param(main_colour)"/>
    <path d="M 101.92,121.94 l -.87,2.79 s -5.66-.45-8.92-.41 c -12,.13-15-1.56-14.37-4.56 s 3.62-4.31,11.5-1.5Z" fill="param(main_colour)"/>
  </g>
  <g id="fixed-colours">
    <path d="M 109.69,125.3 a 2,2,0,0,1-.12-1.21 c 0-.21.82-.43.82-.43 s 1-.35,1.57.28.4.9.4.9Z" fill="#fff"/>
    <path d="M 180.77,131.54 c -.57,5.43-10.37,15.33-30.32,11.69 s -21.17-15.11-21-18,7.94-15.11,28.34-11.8 S 181.22,127.35,180.77,131.54Z" fill="#fcfbfd"/>
    <path d="M 170.85,136.32 a 59.64,59.64,0,0,0-24.85-19 C 154.53,125.15,170.85,136.32,170.85,136.32Z" fill="#bbd8ec"/>
    <path d="M 161.29,134.41 s -6.62-7.94-15.14-11.32 C 150.71,127.8,161.29,134.41,161.29,134.41Z" fill="#bbd8ec"/>
    <path d="M 147.18,133.68 a 43.22,43.22,0,0,0-11.76-10.14 C 139.24,128.38,147.18,133.68,147.18,133.68Z" fill="#bbd8ec"/>
  </g>
  <g id="outline">
    <path d="M 156.44,112.8 c -18.82-2.21-27,7.18-27.49,13.23-.59,7.35,7.2,16.17,24.26,18.38 s 27.49-6.17,28.23-12.79 S 175.26,115,156.44,112.8Z m 23.82,18.67 c -.74,5-9.85,14.56-28.08,11.61 s -22.2-12.57-22.05-17,8.09-14.78,27.49-12 S 180.85,127.5,180.26,131.47Z"/>
    <path d="M 195.7,131 c 6.47-2.35,3.09-9.26-.44-9.41 s -5,2.79-4.12,3.53.88-1.91,3.53-1.91 a 3.17,3.17,0,0,1,2.06,5.44 c -1.7,1.58-6.4,2.54-9.81-.81-1.7-9.58-11.49-18.31-26.67-20.27 a 5.58,5.58,0,0,1,1.67-4.93,2.43,2.43,0,0,1,3.84,2.25 c -.34,2-2.34,1.66-1.9,2.42 s 2.85,0,3.19-2.66-4.44-6.13-7.05-1.54 a 7.23,7.23,0,0,0-1.05,4.32 l -.43,0-.4,0 a 7.27,7.27,0,0,0-.24-4.38 c -1.7-5-7-2.51-7.21.19 s 2.06,3.87,2.64,3.21-1.45-.71-1.41-2.73 a 2.43,2.43,0,0,1,4.2-1.49,5.57,5.57,0,0,1,.73,5.1 c -23.25-1.66-30.47,8.29-32.49,15.08-1.36,0-3.76,0-5.25,0,0-.2.1-.4.13-.63.42-2.5.25-4.74-1.92-6.08 a 9.87,9.87,0,0,1-3.49-3.08 c -1.68-2.93-1-6-1.79-6.61,0,0-1.24.61-1.18,1.64.08,1.4,0,4.88,2.08,6.84 s 4.44,2.91,4.86,4.8-.5,4.47-1.33,4.72 c -.45.14-2.32.42-3.94.65 a 1.48,1.48,0,0,0-.89-1.11,3.3,3.3,0,0,0-1.64.1,2.56,2.56,0,0,1,1.14-1.22,11.21,11.21,0,0,1,3.83-1.33 s -4.75.58-7.08-2.92 c 0,1.17,1,2.17,1.8,2.8 a 3.87,3.87,0,0,0-1.51.2,3.44,3.44,0,0,0-3.37,0,2.62,2.62,0,0,0-1.45-.3,4.09,4.09,0,0,0,.41-1.43 s -.67,1-1.22,1.67 a 1.8,1.8,0,0,0-.49.4 c -.53-.12-1.27-.33-2.16-.6 a 31.26,31.26,0,0,1,2.84-7,12.65,12.65,0,0,0,1.46-6.12,2.08,2.08,0,0,0-1.06-1.76 c -1,1-.48,4.5-2,7 a 38.79,38.79,0,0,0-3,7.28 c -4.86-1.56-12-4.06-14.29-4.45-9.22-1.55-9.59,8.71-2.29,9.22,2.31.16,10.55.24,15.65.31 a 8.82,8.82,0,0,0,1,4.6,2.88,2.88,0,0,0,4.51.88 c 1,1.39,2.83,1.87,4.08.7 A 3.07,3.07,0,0,0,111,132 c 1.54,1,3.33.44,4.33-1.39 a 5.83,5.83,0,0,0,.41-3 c 2.66.46,6.44,1.22,8,1.5,1.28,9.19,11,18.74,27.74,21.3 a 5.6,5.6,0,0,1-1.64,5.07,2.43,2.43,0,0,1-3.84-2.26 c .34-2,2.34-1.66,1.9-2.42 s -2.85,0-3.2,2.65,4.44,6.13,7,1.55 a 7.21,7.21,0,0,0,1-4.42 l .38.05.51.05 a 7.18,7.18,0,0,0,.18,4.57 c 1.7,5,7,2.52,7.21-.18 s -2.06-3.87-2.64-3.21,1.45.71,1.41,2.73 a 2.43,2.43,0,0,1-4.2,1.49,5.59,5.59,0,0,1-.66-5.27 c 17.09,1.44,28.57-6.59,31.43-15.17,3.86-2.78,8.35-1.13,9.79.68 a 3.17,3.17,0,0,1-2.84,5.08 c -2.62-.39-2.23-3-3.21-2.41 s 0,3.72,3.55,4.1,7.88-6,1.83-9.24 c -4-2.16-7-1.22-8.6-.33,0-.13,0-.27.07-.4 a 16.8,16.8,0,0,0,.12-3 C 188.63,131.21,191.46,132.57,195.7,131Z m -84.13-7.19 a 1.32,1.32,0,0,1,.54.79 l -2.16.3 a 1.84,1.84,0,0,1-.1-.92 A 3.37,3.37,0,0,1,111.57,123.84Z M 78.4,119.61 c .49-2,3.16-2.8,6.35-2,2.33.6,11.9,3.85,16.79,4.66-.2.57-.43,1.29-.64,2-4.49-.19-15.77-.92-17.46-.92 C 79.79,123.39,77.91,121.57,78.4,119.61Z m 20.88,8.82 a 5.92,5.92,0,0,1-.35-3.08 l 1.66,0 c -.32,1.13-.56,2-.56,2,.54-.12,1.79-4.46,2.14-5.25 s 1.12-.88,2.15-.37 l -1.67,7.39 C 101.21,130.55,100.06,129.91,99.28,128.42Z m 3.94.87,1.7-7.54 a 2.51,2.51,0,0,1,2.91,0 l 0,.33 a 2.74,2.74,0,0,0-2.25.25,3.52,3.52,0,0,1,2.18.23 l -1,7.65 A 2.56,2.56,0,0,1,103.21,129.29Z m 4,.84,1-8.42 a 3.27,3.27,0,0,1,2.5-.1,3.21,3.21,0,0,0-.66.42 c -.48,0-1.12.15-1.35.48 a 9.1,9.1,0,0,1,1-.1,3,3,0,0,0-.34,3.35 c .4,0,.88,0,1.38,0v4.38 A 2.31,2.31,0,0,1,107.21,130.13Z m 7-.53 c -.45,1.13-1.39,1.57-2.81.58 l -.17-4.43 c 1,0,2.09,0,3.07,0 A 10.59,10.59,0,0,1,114.19,129.59Z m 1.41-3.4 c 0-.22-.07-.42-.11-.59.19,0,.39-.06.56-.1 a 3.53,3.53,0,0,0,2.68-2.11 c 1.3,0,3.86.16,5.27.21 a 17,17,0,0,0-.31,1.89,14.41,14.41,0,0,0-.06,2.11 C 121.44,127.17,117.73,126.54,115.61,126.2Z m 36,22.33 c -20-3.68-27.2-15.73-26.17-22.94 s 9.56-19,32.2-16.32,28.67,15.58,27.93,22.94 C 184.78,139.9,171.59,152.2,151.59,148.53Z"/>
  </g>
<script type="text/ecmascript" xlink:href="param.min.js"/> 
</svg>
