<?xml version="1.0"?>
<svg xmlns="http://www.w3.org/2000/svg" xmlns:xlink="http://www.w3.org/1999/xlink" viewBox="0 0 215 215">
  <title>HA004</title>
  <g id="skin-tone">
    <path d="M 107.5,104.29 a 3.33,3.33,0,0,1,.06,6.67 h -.06 a 3.33,3.33,0,0,1-.06-6.67 h .06" fill="param(skin_tone)"/>
    <path d="M 109.95,107.63 h .84 a 33.93,33.93,0,0,1,2.83,2.5 c 1.75,1.69,4.38,3.06,4.25,6.37 s -.31,7.94.44,9.06 c -1.94.38-3.12-.06-3.87-1.25 s -1-4.5-1-5.69 a 19.66,19.66,0,0,1-2.87-2.62 l -11.44,1.38 a 8.72,8.72,0,0,1,.63-4.31 c .94-2,4.48-5.5,4.48-5.5Z" fill="param(skin_tone)"/>
    <path d="M 112.62,133.69 l 4.13.88 s -1,1.44-1.31,1.75-2.12.81-2.5-.69 A 6.44,6.44,0,0,1,112.62,133.69Z" fill="param(skin_tone)"/>
    <path d="M 111.87,133.56 a 10.37,10.37,0,0,1-1.5,2.13,2.8,2.8,0,0,1-3.42.38 c -1-.75-1.33-2.12.23-2.94 a 2.17,2.17,0,0,1,2.56.19Z" fill="param(skin_tone)"/>
    <path d="M 105.67,132.73 l -1.5-.27 a 2.27,2.27,0,0,0-1.87-.73 A 1.53,1.53,0,0,0,101,134 a 3,3,0,0,0,2.77,1.08 c .77-.21,1.31-1.08,1.63-1.58Z" fill="param(skin_tone)"/>
    <path d="M 98.58,131.4 a 1.89,1.89,0,0,1,.85,1.42 c 0,.88-1.06,1.4-2.4.81 s -1.94-2.73-1.94-2.73Z" fill="param(skin_tone)"/>
  </g>
  <g id="fixed-colours">
    <path d="M 117.48,122.46 a 2.42,2.42,0,0,0-1.58.29,1,1,0,0,0,.27,1.71,3.34,3.34,0,0,0,1.65.19Z" fill="#fff"/>
    <path d="M 109.23,135.1 a 3,3,0,0,1-2.35-.19 c 0,.5.13,1.1.79,1.27 A 1.28,1.28,0,0,0,109.23,135.1Z" fill="#fff"/>
    <path d="M 104,133.83 a 3.43,3.43,0,0,1-2.37-.17,1.7,1.7,0,0,0,1.6,1.21 A .72.72,0,0,0,104,133.83Z" fill="#fff"/>
    <path d="M 99.21,133.15 a 4.44,4.44,0,0,1-2.31-.67,1.25,1.25,0,0,0,1.19,1.23 A 1.24,1.24,0,0,0,99.21,133.15Z" fill="#fff"/>
    <path d="M 132.06,134.92 a 36.16,36.16,0,0,1-1.37-9.87,33.3,33.3,0,0,1,1.75-10.87 l -14.65.72 c .58.83.21,2.92,0,5.25 a 20.71,20.71,0,0,0,.52,5.42,3.33,3.33,0,0,1-2.77-.08 c -1.58-.71-2.37-4.21-2-7.12 a 10.36,10.36,0,0,1-3-2.5 L 90,117.75 s -1.83.54-2.08,5.71,1.63,6.83,1.63,6.83,10.3,1.36,11.93,1.69 a 2.09,2.09,0,0,1,2.71.48 s 1.88.35,2.92.44 a 3,3,0,0,1,2.21.25Z m -28.56-5.57 c -2.42-.87-5-3.5-3.42-6.87 s 4.54-4.08,7.67-3.79 a 12.53,12.53,0,0,1,5.42,1.88 c .71,3.75,2,4.88,2,4.88 a 7.08,7.08,0,0,1-2.71,3.54 C 110.12,130.81,105.92,130.23,103.5,129.35Z" fill="#f07d5a"/>
    <path d="M 113.6,119.59 a 31.89,31.89,0,0,0-5.77-.9 c -3.25-.21-6.33.33-7.83,4.29 s 2.54,6.5,5.63,7,9.06-.22,11.4-4.14 C 113,125.51,113.6,119.59,113.6,119.59Z" fill="#fff"/>
    <path d="M 133.27,112 l 2.38,1.58,2.38.21 s 2.29,3.54,2,10.71-2.12,10.21-2.12,10.21 l -2.62.5-2.54,1.42 s -2.21-4.37-2-12 A 35.42,35.42,0,0,1,133.27,112Z" fill="#fff"/>
    <path d="M 143.58,122.46 s 3.13-4.25,7.88-2.12,7.63,3.75,10.13.5 c -1.25,3.38-4.75,3.25-7.5,2.13 S 148.21,120.21,143.58,122.46Z" opacity="0.2"/>
    <path d="M 142.52,124.53 a 5.89,5.89,0,0,0,5.44.63 c 3.25-1.12,5.25-.56,6.44.44 a 7.37,7.37,0,0,0-5.5.25 C 147.05,126.75,143.77,127.28,142.52,124.53Z" opacity="0.2"/>
    <path d="M 150.17,128.84 a 3.64,3.64,0,0,1,4.06-.69 c 2.56,1,4.38.81,5.69-.19 a 4.36,4.36,0,0,1-4.81,1.5 C 154,129,152.42,128,150.17,128.84Z" opacity="0.2"/>
  </g>
  <g id="outline">
    <path d="M 138.85,112.84 l -2.83-.33-3.08-2.08 a 14.25,14.25,0,0,0-1.21,2.49 l -13.57,1 a 21.89,21.89,0,0,0-3.75-4.41,11.06,11.06,0,0,1-2.87-3.84 s -.85.41-.74,1.94,1.49,2.47,3.33,4.12,3.28,3.06,3.06,5.34 a 31.62,31.62,0,0,0,0,5.19 c -1.06-.17-2.09.44-1.83,1.57.21.92,1.57,1,2.28,1,0,.09.06.18.1.26 a 2.31,2.31,0,0,1-3.09-1.5 A 14,14,0,0,1,114,118 a 9,9,0,0,1-4.81-4.78,6.65,6.65,0,0,0,.49,1.79 l -9.68.87 a 8.23,8.23,0,0,1,1.31-3.63 c .75-1,2.75-3.19,2.89-4.69 a 1.89,1.89,0,0,0-.83-2 c 0,1-3.06,4.38-4.16,6.5 a 10.46,10.46,0,0,0-.91,3.93 l -9.06.81 a 11.7,11.7,0,0,0-2.5,7.17,10.94,10.94,0,0,0,2.5,7 l 5.62.6 A 4.16,4.16,0,0,0,97,133.9 c 1.31.63,2.5.21,2.81-.62 a 1.43,1.43,0,0,0-.14-1.16 l 1.1.12 a 1.71,1.71,0,0,0-.25,1.6 c .25.77,2.35,2.4,3.92,1.29 a 4.33,4.33,0,0,0,1.65-2 l .38.06 a 2.19,2.19,0,0,0-.64.94 c -.46,1.29.71,2.5,2.46,2.79 s 3.19-1.76,3.86-2.92 h .09 c 0,.51.07,2.08.83,2.7 a 1.71,1.71,0,0,0,2.54,0 c .46-.55,1.39-1.59,1.84-2.1 l 14.29,1.54 a 7.2,7.2,0,0,0,1,1.66 l 2.5-1.42,3-.58 A 24.62,24.62,0,0,0,141,124.17 C 141.15,117,138.85,112.84,138.85,112.84Z m -1.39,1.39 c -.64.94-1.74,3.65-1.74,10.36,0,6.4.9,9,1.3,9.85 l -1.91.38 a 31.08,31.08,0,0,1-1.23-10.1,30.5,30.5,0,0,1,1.83-10.66Z M 115.83,123 c .25-.38.94-.43,1.4-.41 a 12.62,12.62,0,0,0,.31,1.89 C 115.81,124.49,115.48,123.57,115.83,123Z m -.77,2.79 a 3.69,3.69,0,0,0,1.39.45,11.73,11.73,0,0,1-8.79,3.63 c -4.83.06-8.23-3.14-8.14-5.47 s 2.31-5.4,6.81-5.5 a 17.46,17.46,0,0,1,6.55,1.06 C 112.87,122.47,113.8,125.07,115.06,125.81Z M 97.49,133.4 a .9.9,0,0,1-.41-.69,4.35,4.35,0,0,0,1.81.57 A 1.28,1.28,0,0,1,97.49,133.4Z m 1.62-.4 h 0 a 3.4,3.4,0,0,1-2.23-.88.93.93,0,0,0,0,1,3,3,0,0,1-1.24-1.44 l 3.07.33 C 99,132.34,99.24,132.72,99.1,133Z m 3.65,1.7 A 1.26,1.26,0,0,1,102,134 a 3.06,3.06,0,0,0,2,0,.56.56,0,0,1-.13.64,1,1,0,0,1-.39.13 A 2.43,2.43,0,0,1,102.75,134.7Z m 1.48-.38 a .66.66,0,0,0-.17-.68,3.14,3.14,0,0,1-2.58-.19,1.15,1.15,0,0,0,.24.79,1.14,1.14,0,0,1-.57-1.12,1.55,1.55,0,0,1,2.25-1,2.1,2.1,0,0,1,1.15,1.06,2.12,2.12,0,0,0-.05-.37 l .68.11 A 4.25,4.25,0,0,1,104.23,134.32Z m 3.74,1.77 a 2.41,2.41,0,0,1-.43-.14.91.91,0,0,1-.52-.83,2.33,2.33,0,0,0,2,.15 A .93.93,0,0,1,108,136.09Z m 2.28-.78 a 2.06,2.06,0,0,1-1.58.83,1.44,1.44,0,0,0,.77-1.33,2.82,2.82,0,0,1-2.67-.12,1.73,1.73,0,0,0,.1.86,1.21,1.21,0,0,1-.32-1.57,2,2,0,0,1,3.46.54,1.32,1.32,0,0,0-.21-.8 l 1.45.16 C 111,134.23,110.49,134.9,110.25,135.31Z M 115,136 c -.58.62-1.93,0-2-1.9 l 3.4.37Z m -25.13-6.11 s -3.67-6,.13-11.67 c 2.25-.3,13.55-.9,20.51-1.74 a 10.26,10.26,0,0,0,2.44,2.5 c 0,.05,0,.11,0,.16 a 14.35,14.35,0,0,0-6.07-1 c -6.42.29-8,4.47-8.17,5.92 s 1.77,6.21,8.73,6.38 a 12.09,12.09,0,0,0,9.92-4.16,2.44,2.44,0,0,0,1.51-.49,18.57,18.57,0,0,1-.56-5.22,51,51,0,0,0,.33-5.12 c 2.64-.19,9.63-.45,12.46-.61 a 33.87,33.87,0,0,0-1.3,9.31,32.14,32.14,0,0,0,1.31,10.27Z m 41.24-5.16 a 41.33,41.33,0,0,1,2.25-12 l 1.82,1.09 a 28.63,28.63,0,0,0-2,10.83,32.24,32.24,0,0,0,1.24,10.54 l -1.57.75 A 28.23,28.23,0,0,1,131.1,124.71Z m 6.58,9.34 c -.49-.79-1.41-3.13-1.38-9.46,0-6.62,1.13-9,1.63-9.81 a 22.45,22.45,0,0,1,1.54,9.23 A 28,28,0,0,1,137.69,134Z"/>
  </g>
<script type="text/ecmascript" xlink:href="param.min.js"/> 
</svg>
