<?xml version="1.0"?>
<svg xmlns="http://www.w3.org/2000/svg" xmlns:xlink="http://www.w3.org/1999/xlink" viewBox="0 0 215 215">
  <title>cupcake</title>
  <g id="skin-tone">
    <path d="M 107.9,139.09 c .63-.56.25-1.62.25-1.62 s 1.28.47,1.78.69,1,.56,1.31.16.28-1.25-.31-2.37-3.31-2.81-3.31-2.81,1.5.31,2.5.63,1.94.88,2.06-.12-1.62-2.06-4-3.37 c 0-1-.72-5.33-.72-5.33 a 16.67,16.67,0,0,0,2.5-4.49 c .59.28,1.56,3.78,2.13,4.63 a 1.3,1.3,0,0,0,1.94.44 c .56-.41.09-2.59.09-4.62 a 24.3,24.3,0,0,1,.91-5.84 c .59-2.75-2.41-5.66-2.87-6.06 a 10.42,10.42,0,0,1-1.25-1.69 l -.13.06 a 3.32,3.32,0,0,0-3.31-3 h -.06 a 3.33,3.33,0,0,0-3.28,3.39 c 0,.06,0,.12,0,.18 a 1.38,1.38,0,0,0-.44.2 c -.59.5-1.47,5.28-2.22,7.34 a 61.64,61.64,0,0,0-2.13,11.34,30.36,30.36,0,0,0,1,6.59 c .22,1,.53,1.84,1.19,1.94 a .87.87,0,0,0,.91-.53 s .88,1.37,1.06,1.75 a 13.09,13.09,0,0,0,2.47,2 C 106.62,138.84,107.28,139.66,107.9,139.09Z" fill="param(skin_tone)"/>
  </g>
  <g id="main-colour">
    <path d="M 119.13,115.29 s -1.49-4.63,2.19-7.19,8.57,1.89,9.1,4.86 c 5.09-2.09,9-1.62,11.24,2 s -1.61,10.13-4.75,11.15 a 5.1,5.1,0,0,1,1.47,1.42,56.33,56.33,0,0,0-6.49.61 c -.07,4.39.87,8.62,1.67,9.39-1.61.14-2,.14-2,.14 s .27,4.05-4.89,5.07-8.73-3.58-7-7.57 c -2.79-2.23-4.67-7-1.39-11 a 7.37,7.37,0,0,1-.6-6.28Z" fill="param(main_colour)"/>
  </g>
  <g id="fixed-colours">
    <path d="M 118.71,113.44 l -11.78,2.77 s -4.08,9.86.33,17.5 c 7.16,1.49,12.11,2.36,12.11,2.36 l .32-.88 s -2.73-2.09-3.13-4.86 a 7.7,7.7,0,0,1,1.74-6.15 c -1.34-1.82-1.71-6.42.82-8.89Z" fill="#6a4b42"/>
    <path d="M 137.58,127.59 h 1.74 s 4.72.51,4.48,3.51-5.24,2.72-5.24,2.72,1.36,3.36-.25,5.05-3.88.57-5-1.72 a 19.06,19.06,0,0,1-1.44-9 A 30.37,30.37,0,0,1,137.58,127.59Z" fill="#f0b8d7"/>
    <path d="M 141.21,132.08 s 1.76-.94.56-2.06-5-1.41-7.43-1.5 C 137.59,129.08,142.32,130.21,141.21,132.08Z" fill="#fff"/>
    <path d="M 136.91,132.17 a 8.57,8.57,0,0,1,1.19,3.44 c 0,1.17-.32,2.62-1.19,2.8 C 137.46,137.86,137.84,134.17,136.91,132.17Z" fill="#fff"/>
  </g>
  <g id="outline">
    <path d="M 143.12,128.76 a 7.73,7.73,0,0,0-3.95-1.56,16.21,16.21,0,0,0-1.55-1.07 c 4.42-2.84,6.5-7.87,3.94-11.94-3.17-5-9.36-2.58-11-1.82 a 8.82,8.82,0,0,0-2.15-3.43 c -1.63-1.64-7.3-4.52-9.69,1.81 a 6.45,6.45,0,0,0-.43,2.17 l -2.53.66-.17-.52 c -.67-2.09-2.06-3.3-2.45-4.12 a 6.64,6.64,0,0,1-.52-1.67,2.22,2.22,0,0,0-1.12-1.62,2.3,2.3,0,0,0-.73,1.72 c .13.92,1.44,2.33,2.23,3.39 a 6,6,0,0,1,1.48,3.17 l -5.18,1.35 a 9.26,9.26,0,0,1-1.35-3.62,4.72,4.72,0,0,0,1,3.7 l -1.75.46 a 7.41,7.41,0,0,0-.21-3.53,8.58,8.58,0,0,1-.14,3.63 l -.17,0 a 21,21,0,0,0-1,3.08,19.17,19.17,0,0,1-1.8,2.89,14.14,14.14,0,0,0,1.57-1.89,23,23,0,0,0,0,9.84,2.24,2.24,0,0,1-.56,0,.94.94,0,0,0,.61.17,19.1,19.1,0,0,0,1.16,3.33,1,1,0,0,1-.46.28,1.13,1.13,0,0,0,.5-.18 c .11.23.19.46.31.69 l 1.93.41 a 7.3,7.3,0,0,1,1.37,1.23 c .79,1,.73,2.15.4,2.27 s -1.41-.7-2.41-1 a 7.43,7.43,0,0,0-2.34-2.58,12.49,12.49,0,0,0-1.67-3.48,29.68,29.68,0,0,0,.65-3.77,9,9,0,0,1-.17-2.71,1.66,1.66,0,0,1-.35-.14,21.09,21.09,0,0,1-.62,6.58.84.84,0,0,1-.59.05,1.22,1.22,0,0,0,.61.14,15.16,15.16,0,0,1,1.38,3.65,1.21,1.21,0,0,1-.89.61,1.62,1.62,0,0,0,1.07-.35 c 1.27.87,2.32,2.06,2.37,2.82 s -.41,1.13-.62.94-2.52-1.8-2.87-2.09 a 4.08,4.08,0,0,1-1.41-2.42 c .06-.23.12-.49.19-.79 a 5.9,5.9,0,0,0-.31-3.19,9.55,9.55,0,0,0-.1-1.25,9.84,9.84,0,0,0,.79-4.83,1.21,1.21,0,0,0,.71,0,2.83,2.83,0,0,1-1.08-1 c .1,3.71-1.08,5.5-1.08,5.5 a 6.48,6.48,0,0,1,.1,1.3,1.4,1.4,0,0,1-1.17.11 c .28.25.9.18,1.2.13 a 4.64,4.64,0,0,1,0,4.31 c -.44.48-1,.08-1.15-.62 s -.83-3.46-1-4.31 a 20.45,20.45,0,0,1,.29-6.42,74.06,74.06,0,0,1,2.87-10.63,13.76,13.76,0,0,0,1-4.77 c -.06-1.67-.62-2.14-.62-2.14-1,.73-.92,2.55-1.27,4-.28,1.16-1.37,3.78-2.16,6.78 a 55.94,55.94,0,0,0-1.39,8.35,22.31,22.31,0,0,0,.21,5 c .23.73.81,2.81,1,3.94 s .75,1.9,1.6,1.94 a .89.89,0,0,0,.83-.35 c .13.24.3.58.38.8 a 3.29,3.29,0,0,0,1,1.13 c .33.23,2.88,2.06,3.15,2.33 s .77.19,1.15-.27 a 1.7,1.7,0,0,0,.39-1.43 c .46.23,1.34.59,1.94.93.75.44,1.15-.27,1.25-.75 a 3.34,3.34,0,0,0-1.32-3.26 c 3.32.64,6.5,1.14,8.35,1.46 a 6,6,0,0,0,2.48,5.66 c 4.55,3.65,9.5.13,10.12-2.19 a 5.86,5.86,0,0,0,.19-1.79,9,9,0,0,0,1.91.08,4.23,4.23,0,0,0,1.78,1.58 c 2.41.95,4.07-.12,3.94-3.56,0-.19,0-.35-.06-.53 a 7.13,7.13,0,0,0,.88-1.81 C 142.81,133.61,146,131.08,143.12,128.76Z M 110,116.1 l .09,0-.06-.06,8.41-1.83 a 5.1,5.1,0,0,0,.15.53 c -1.34,1.37-2.07,4.17-1.93,6.41 a 4.91,4.91,0,0,0,1,2.7 c -.92,1.34-3.6,6.17,1.18,11v.36 l -11.34-2 a 23.67,23.67,0,0,1,0-16.62Z m 28.44,20.85 c -.27,2.3-2.07,2.7-3.75,1.08 s -2.81-5.61-2.81-9.86 a 13.6,13.6,0,0,0,.91,8.68,11.49,11.49,0,0,1-1.34,0,9.19,9.19,0,0,0-1.25-3 c .4,1.89,1.2,5.14-1.74,7.3 s -6.16.41-7.5-1.22-.8-6.22,1.07-8 a 5.15,5.15,0,0,0-2.68,2.6 c -1.16-1.32-4.12-5.44-1-9.85 a 5.35,5.35,0,0,0,2.82,1.13 c -5.63-2.34-2.91-8.18-2-9.81 a 7.34,7.34,0,0,0,2.68,2.29,6.61,6.61,0,0,1-2.11-7 c .67-2.77,3.51-3.85,6.59-2.09 s 3.81,4.46,3.81,9.05 a 8.68,8.68,0,0,0,.72-4.26 c 4.49-2.22,8.67-1.52,9.89,1.59,1.74,4.42-2.16,9.32-5.12,10.34 a 12.61,12.61,0,0,1,1.11,1.16,18.37,18.37,0,0,0-4.93,1 c 7.9-.81,11.33.92,11.19,2.74 s -2.27,2.7-4.44,2.66 a 5.12,5.12,0,0,0-1.8-2.16 C 138.25,133.57,138.72,134.65,138.45,136.95Z m .22-3.32 a 3.25,3.25,0,0,0,.64.14 l -.55,0Z"/>
  </g>
<script type="text/ecmascript" xlink:href="param.min.js"/> 
</svg>
