<?xml version="1.0"?>
<svg xmlns="http://www.w3.org/2000/svg" xmlns:xlink="http://www.w3.org/1999/xlink" viewBox="0 0 215 215">
  <title>champagne</title>
  <g id="skin-tone">
    <path d="M 111.19,131 c .94,1.29,3,.58,3.65-1.12 s .08-5,.08-5 a 4,4,0,0,0,2.76-1.42 c .88-1.29.91-3.37.58-5.21 s -3.67-3.75-5.17-5.21-1.69-4.83-1.69-4.83 l -.57-.6 h 0 s 0-.07,0-.11 a 3.33,3.33,0,0,0-3.33-3.28 h -.06 a 3.33,3.33,0,0,0-3.28,3.39 s -1.91,4.52-2.87,6.06-2,5.25-2.71,8.52-.46,5.19.54,7.06,2.79,1.29,3.83.6 c .83,2,2.92,1.52,4,.71 A 2.7,2.7,0,0,0,111.19,131Z" fill="param(skin_tone)"/>
  </g>
  <g id="fixed-colours">
    <path d="M 109.69,125.3 a 2,2,0,0,1-.12-1.21 c 0-.21.82-.43.82-.43 s 1-.35,1.57.28.4.9.4.9Z" fill="#fff"/>
    <path d="M 118.54,122.65 s 12,1.9,14,1.94 c .75-.92,2.77-1.9,3.35,0 a 11.52,11.52,0,0,1-1.25,8.81 c -.58.86-2,2.44-3.69-.56-2.33-1.17-14.5-4.19-15.37-4.19 a 26,26,0,0,1-.58-3.36 A 4.12,4.12,0,0,0,118.54,122.65Z" fill="#00b059"/>
    <path d="M 110.19,120.95 a 30.81,30.81,0,0,1-9.1-4.58 c -3.73-3-9.41-7.94-15.27-11.79 s -14.11-6.9-22.11-8.8-34.76-6.94-34.76-6.94-15,13.35-8,31 a 116,116,0,0,0,53.25,11.62 c 9.78-.24,26.06-4.52,26.06-4.52 s 1.32-3.72,1.75-5,1.22-1.35,2.69-.44 a 2.64,2.64,0,0,1,3.44,0 C 109.47,120.65,110.19,120.95,110.19,120.95Z" fill="#00b059"/>
    <path d="M 73.51,98.83 s -4.67,6.23-6,10.26 c 2.84,3.3,3.94,8.61-2.84,11.09-.46,4.31-.46,8.06.73,11-6.23-.37-25.92-5.15-28.67-6.34 A 25.69,25.69,0,0,1,36,112.56 c -2.38-3.3-2.38-7.7,2.93-10.35,1-3.12,5.41-8.8,6.78-10,6,.82,22,4.69,24.36,5.42Z" fill="#cfcb82"/>
    <path d="M 95.92,112.29 S 100,108,102,107 s 2,.76,1.42,2.25-1.63,2.63-.33,4.38 c 1.08,1.46,2.86,2.62,5.13,5.08 s .42,1.83.42,1.83-.68.07-2.33-1.58-5.08-6.46-6.79-4.08 A 36.83,36.83,0,0,0,95.92,112.29Z" fill="#fff"/>
    <path d="M 116.12,126.69 a 8.13,8.13,0,0,0,2.5,2.21 c 1.17.46,5,.88,7,1.54 s 7,4.47,9.48,6.94 c 2.88,2.81,5.56,8.89,5.56,8.89 s -1.29,5-5,5.42 c -3.79-1.58-14.17-9-15.92-12.71 a 18.74,18.74,0,0,1-2-7.29 c -.08-1.21-.67-2.08-2.21-3.54-.12-1.08-.21-1.67-.21-1.67Z" fill="#fff"/>
    <path d="M 135,150.42 s -11.83-8.29-14.33-12-1.69-8.94-.62-6.87.19,5.19,4.38,8.44,10.33,8.54,10.33,8.54,1.75-3.06,4.88-2.94 A 6.47,6.47,0,0,0,135,150.42Z" fill="#bbd8ec"/>
    <path d="M 97.6,112.17 s 4-4.85,4.87-4.34 c .72.4-.67,2.55-1.25,4.26-.1-1.17,1.22-2.63.44-2.72 S 97.6,112.17,97.6,112.17Z" fill="#bbd8ec"/>
  </g>
  <g id="outline">
    <path d="M 134.35,125.44 s -2.59,2.38-1.54,6.93 A 18.49,18.49,0,0,1,134.35,125.44Z"/>
    <path d="M 133.11,135.18 a 3,3,0,0,0,1,0 c 2.47-1.19,4-7.5,2.75-10.92-1.38-3.68-4.33-.83-4.33-.83 s -1.28.27-9.35-1 c -.71-.09-3.09-.53-4-.67.05-.21.1-.42.14-.65.42-2.5.16-4.13-2-5.47 a 9.87,9.87,0,0,1-3.49-3.08 c -1.68-2.93-1-6-1.79-6.61,0,0-1.24.61-1.18,1.64.08,1.4,0,4.88,2.08,6.84 s 4.44,2.91,4.86,4.8-.5,4.47-1.33,4.72 c -.45.14-2.32.42-3.94.65 a 1.48,1.48,0,0,0-.89-1.11,3.3,3.3,0,0,0-1.64.1,2.56,2.56,0,0,1,1.14-1.22,11.21,11.21,0,0,1,3.83-1.33,9.07,9.07,0,0,1-5-1 c -3.19-3.13-6.33-6.26-6.93-6.86 a 13.19,13.19,0,0,0,1.15-5.48,1.87,1.87,0,0,0,0-.3.74.74,0,0,0-.42-.93,2.31,2.31,0,0,0-.61-.53,1.4,1.4,0,0,0-.3.45 c -1,.15-2.41.68-4.5,2.69-.64.62-1.16,1.13-1.71,1.77 L 95,109.45 C 83.3,99.28,63.77,91,27.94,87.17 c -7.7,8.06-13.1,19.37-8.33,33.67,37,15,54.33,15.33,78,7.83 a 4.46,4.46,0,0,0,.58,1.25,2.88,2.88,0,0,0,4.51.88 c 1,1.39,2.83,1.87,4.08.7 A 3.07,3.07,0,0,0,111,132 c 1.54,1,3.33.44,4.33-1.39 a 2,2,0,0,0,.41-1.09 l .52.53 c 1.5,1.58,0,3.29,2.23,8.72,3.67,8.75,17.08,13.83,17.08,13.83 s 5.29-1.62,5.83-6.5 A 24.32,24.32,0,0,0,133.11,135.18Z m -14.32-11.89 c 5.56.94,12.77,1.9,14.06,1.81,0,0,.86-1.34,2-1.07 s 1.31,3.18.89,5.22-1.62,4.92-2.81,4.83-1.65-1.68-1.65-1.68 l -1.66-.44 a 12.09,12.09,0,0,0-4.3-2.11 c -4.4-1-5.87-.83-7.12-1.71,0,0-1.32-1.65-2.25-2.62 l .1,0 A 3.53,3.53,0,0,0,118.79,123.29Z m -7.22.55 a 1.32,1.32,0,0,1,.54.79 l -2.16.3 a 1.84,1.84,0,0,1-.1-.92 A 3.37,3.37,0,0,1,111.57,123.84Z M 98.28,110.47 c 2.87-2.84,4.42-3.58,5-3.22.31.19-.6,1.95-1,2.85 s -.79,2.58,0,3.4 c .51.52,3.09,3.05,5.77,5.68 a 3.42,3.42,0,0,0,.32.52q-.94-.37-1.82-.78 l -4.41-4.44 a 2.33,2.33,0,0,0-2.8-.15 c -.84-.66-1.69-1.36-2.58-2.12 C 97.22,111.73,97.88,110.86,98.28,110.47Z m 1.91,4.47-.21-.16 a 1,1,0,0,1,.31-.17Z M 102,115 c .45.43,1.62,1.58,3.1,3.05 l .74.48 a 33.54,33.54,0,0,1-4.34-2.63Z m -52.61,3.48 c -10.5-2.5-15.75-8.12-14.87-11.87,1.08-4.64,8.8-6.19,18.21-3.62 s 17.59,6.22,16.06,12.75 C 67.6,121,58.69,120.71,49.44,118.51Z m 3.75-16.87 c -3.67-.88-10.64-1.46-13.87-.37,2.23-4.32,6.28-7.84,7.29-8.92 a 142.57,142.57,0,0,1,26,6.88,51.07,51.07,0,0,0-5.21,8.68 C 64.89,105.34,57.35,102.63,53.19,101.63Z M 29.27,89.34 c 2,.21,13.49,2.4,15.33,2.67-2.84,3.1-5.77,6.43-7.22,9.46 a 7.81,7.81,0,0,0-4.3,4.88 A 6.83,6.83,0,0,0,34.29,112 a 33.62,33.62,0,0,0,1.14,12.19 c -1.44-.48-11.71-4.26-13.33-4.83 C 19.13,112.79,19.19,99,29.27,89.34Z m 7.5,35.5 a 45.25,45.25,0,0,1-1.21-12.21 C 38,115.26,44.77,119,48.77,120 c 3.58.91,11.85,2,15,1.17 a 29.42,29.42,0,0,0,.78,9.58 c -.62-.08-2.17-.15-2.79-.25 A 187.58,187.58,0,0,1,36.77,124.84Z m 28.89,5.7 a 29.12,29.12,0,0,1-.62-9.75 c 2.6-.94,4.57-2.6,5.25-5 s -.24-4.75-2-6.9 a 48.33,48.33,0,0,1,5.33-9.29 l .54.19 c 8.49,3,15.64,8.31,19,10.87 s 9.22,8.19,15,10.2 l .44.14 a 3,3,0,0,0-.46.13,3.44,3.44,0,0,0-3.37,0,2.14,2.14,0,0,0-3.17,1 c -.4,1.09-.93,2.95-1.26,4.16-3.39.72-11.77,2.73-15,3.25 A 75.38,75.38,0,0,1,65.66,130.54Z m 33.61-2.12 a 3.07,3.07,0,0,1-.25-.72 l 1-.28 c .54-.12,1.79-4.46,2.14-5.25 s 1.12-.88,2.15-.37 l -1.67,7.39 C 101.21,130.55,100.06,129.91,99.28,128.42Z m 3.94.87,1.7-7.54 a 2.51,2.51,0,0,1,2.91,0 l 0,.33 a 2.74,2.74,0,0,0-2.25.25,3.52,3.52,0,0,1,2.18.23 l -1,7.65 A 2.56,2.56,0,0,1,103.21,129.29Z m 4,.84,1-8.42 a 3.27,3.27,0,0,1,2.5-.1,3.21,3.21,0,0,0-.66.42 c -.48,0-1.12.15-1.35.48 a 9.1,9.1,0,0,1,1-.1,3,3,0,0,0-.34,3.35 c .4,0,.88,0,1.38,0v4.38 A 2.31,2.31,0,0,1,107.21,130.13Z m 7-.53 c -.45,1.13-1.39,1.57-2.81.58 l -.17-4.43 c 1,0,2.09,0,3.07,0 A 10.59,10.59,0,0,1,114.19,129.59Z m 21.61,21.79 c -4.45-.46-12.78-7.47-15.53-11.63 s -1.8-8.38-2.65-9.63 a 15.76,15.76,0,0,0-1.82-2.06,13.07,13.07,0,0,0-.14-1.54,15.22,15.22,0,0,0,3,2.66 c 1.23.57,4.39.9,6.4,1.57,3,1,12.25,7.67,15.19,15.44 A 7.16,7.16,0,0,1,135.8,151.39Z"/>
    <path d="M 135.71,150.56 a 9.64,9.64,0,0,1,4-4.37 A 5.44,5.44,0,0,0,135.71,150.56Z"/>
  </g>
  <g id="misc-objects">
    <path d="M 81.7,129 c -5.25.61-14.75,1.3-14.81-.53 s 6.19-1.53,11.07-1.8,14.13-1.77,14.4-.68 S 87.43,128.29,81.7,129Z" fill="#fff"/>
    <path d="M 27.2,119.45 s -2.06-.18-2.61-3.57-.09-11.18.82-11.36,0,4.67.5,8.06 S 28,117.89,27.2,119.45Z" fill="#fff"/>
    <path d="M 123.7,128 c 3.84.59,7,2.23,4.72,1.81 s -7-1.27-8.65-1.58 S 119.61,127.33,123.7,128Z" fill="#fff"/>
  </g>
<script type="text/ecmascript" xlink:href="param.min.js"/> 
</svg>
