<?xml version="1.0"?>
<svg xmlns="http://www.w3.org/2000/svg" xmlns:xlink="http://www.w3.org/1999/xlink" viewBox="0 0 215 215">
  <title>adult-accessory-template</title>
  <g id="skin-tone">
    <path d="M 114.47,125.3 c -.78-2,0-4.11.47-7.31 s -.12-5.49-1.82-7.15 a 5.89,5.89,0,0,1-1.46-3 l -.85,0 c 0-.08,0-.15,0-.23 a 3.33,3.33,0,0,0-6.66,0 l -1.27,0v0 a 12.87,12.87,0,0,1-.74,1.73 c -1,2-3.12,10.66-3,13.64 s -.1,5.68,2.4,7.13 a 6.75,6.75,0,0,0,2.75,4.69 c .61,1.59,2.71,3.14,4.91,4.05,1.31,2.8,2.41,3.77,3.07,3.68 s 1.24-1.21,1.24-1.21 a 27.46,27.46,0,0,1-1.91-12.78 c 1.34,1.25,2.63,1.33,3.44.73 S 115.25,127.29,114.47,125.3Z" fill="param(skin_tone)"/>
  </g>
  <g id="fixed-colours">
    <path d="M 110.19,140 s .73-.71,1.29-.27 a 3.4,3.4,0,0,1,1.06,1.68 C 112.08,141.54,111.14,141.83,110.19,140Z" fill="#fff"/>
    <path d="M 114,125.82 a 1.09,1.09,0,0,0-.3,1.53 c .63.85,1.08.87,1.08.87 A 3.3,3.3,0,0,0,114,125.82Z" fill="#fff"/>
  </g>
  <g id="outline">
    <path d="M 115.18,129.33 c .81-.6.45-2.16-.49-4 s .37-3.87.83-7.07.5-5.82-1.68-7.85 a 4.9,4.9,0,0,1-1-1.21 h 0 c -.4-.59-.07-3.07-1.23-3.69 a 6.07,6.07,0,0,0-.78,2.36v0 c 0,.08,0,.16,0,.23.15,1.75,2.66,4,3.38,5.83 s -.31,6.05-.75,8.87.68,3.6,1,4.52,0,1.61-1.11,1.29 a 2.9,2.9,0,0,1-1.59-1.39 s .44-4,.56-5.84.46-6.37-1.68-8.25 c 1.35,2.15,1,7,.77,9.42 a 97.92,97.92,0,0,0-.85,10.54 c .13,2.08,2,8.14,2,8.14 a 1.24,1.24,0,0,1-.85.21 c -1.29-.19-2.76-4.44-3-5.29 s -1.67-9.41-1.67-9.41-.1,6.71,1.15,10.6 a 5.81,5.81,0,0,1-2.47-1.77 c -.6-.68-1.23-4-1.65-9.73 a 33.43,33.43,0,0,0,.14,8.08 c -2.29-1.56-2.79-10.19-2.79-10.19 a 37,37,0,0,0,.12,5.37 c -1.79-1.34-1.38-3.7-1.44-6 a 42.09,42.09,0,0,1,2.2-11 c .76-1.8,1.6-2.17,1.9-4.57 a 3.22,3.22,0,0,0-.82-2.57,35.45,35.45,0,0,1-1.25,3.4 h 0 c -.67,1.8-1.41,2.95-1.84,4.4-.74,2.55-2.06,7.9-2,10.88 s .47,5.89,2.83,7.1 a 7.2,7.2,0,0,0,2.87,4.85,6.45,6.45,0,0,0,4.84,3.68 c 1.31,2.8,2.75,3.37,3.4,3.28 s 1.46-.37,1.55-1-2.15-4.82-1.89-12.4 A 2.33,2.33,0,0,0,115.18,129.33Z"/>
    <path d="M 110.29,140.19 s 1.14-1.65,2.12,1.16 l .28,0 s -.7-3.15-2.59-1.53 C 109.79,140,110.29,140.19,110.29,140.19Z"/>
    <path d="M 114,125.82 s -1.22,1,.78,2.41 a 1,1,0,0,1,0,.34 s -2.5-1.72-.87-3 A .14.14,0,0,1,114,125.82Z"/>
    <rect width="215" height="215" fill="none"/>
  </g>
<script type="text/ecmascript" xlink:href="param.min.js"/> 
</svg>
