<?xml version="1.0"?>
<svg xmlns="http://www.w3.org/2000/svg" xmlns:xlink="http://www.w3.org/1999/xlink" viewBox="0 0 215 215">
  <title>wine-glass</title>
  <g id="skin-tone">
    <path d="M 107.5,104.29 a 3.33,3.33,0,0,1,.06,6.67 h -.06 a 3.33,3.33,0,0,1-.06-6.67 h .06" fill="param(skin_tone)"/>
    <path d="M 110.25,107.44 l 1.16,0 a 13.86,13.86,0,0,0,2.19,2.69 c 1.13,1,3.66,2.5,3.66,5.63 s -1.16,4.5-1.16,4.5 a 17.93,17.93,0,0,1,1.38,6.75 c -2.41.09-4.25.09-4.25.09 l -.09.56 a 4.5,4.5,0,0,1-2.22-.62 c -2.22,0-8.47,0-8.47,0 s -.19-1.16-.56-1.16-.53,1.09-.53,1.09-2.31.13-3.19-.47 a 12.52,12.52,0,0,0,1-6.06 c -.19-1.87-.91-4.41.56-6.59 s 3.56-5,3.53-6 C 104.09,107.63,110.25,107.44,110.25,107.44Z" fill="param(skin_tone)"/>
    <path d="M 113.69,129.09 l 3.66.06 a 17.28,17.28,0,0,1-1.25,6.41 c -.69,1.53-.81,2-1.62,2 a 2.09,2.09,0,0,1-2-.78,3.35,3.35,0,0,1-3,.78 c -1.53-.25-1.66-1.06-1.66-1.41 a 2.43,2.43,0,0,1-3.16-1.12,45.34,45.34,0,0,1-2-5.91 l 3.91-.06 s 1.44-2,2.69.06 c .56-.84,1.57-1.49,2.58.08 C 112.4,128.44,113,128.28,113.69,129.09Z" fill="param(skin_tone)"/>
    <path d="M 100.72,129.09 s -.56,1.81-1.06,3.56-.94,2.25-1.59,2.16-.75-1.41-.66-2.66 a 20.49,20.49,0,0,1,.47-2.78 s 1.66-.31,2.09-.31Z" fill="param(skin_tone)"/>
  </g>
  <g id="main-colour">
    <path d="M 144.84,117.25 s -6.82-1-12.33,1.81 c -5.32,2.7-8.3,6.25-8.3,9.46 s 3.55,7.3,8.72,9.62 c 4.93,2.22,11.92,1.89,11.92,1.89 S 149.11,128.6,144.84,117.25Z" fill="param(main_colour)"/>
  </g>
  <g id="fixed-colours">
    <path d="M 156.71,117.34 C 151,114.28,141,113.53,135,115.62 a 27.89,27.89,0,0,0-11.1,7.4 c -1.44,1.48-3.69,3.35-5.12,3.79 a 26.47,26.47,0,0,1-5.53.25,2.37,2.37,0,0,1-.09.56,4.89,4.89,0,0,1-2.06-.59 s -5.5-.06-7,0 a 21.89,21.89,0,0,1-5.91-.47 c -1.81-.5-3.29-4.3-4-5.7 s -2.44-3.93-3.72-.66-1.45,7.86-1.12,11.09,1.57,5.63,2.73,5.5,2.73-3.72,4-5.46 a 4.9,4.9,0,0,1,4.38-2.26 c 1.84,0,3.93,0,6.16,0,.77-1.08,1.9-1.21,2.69.06,1-1.44,2-.85,2.58,0,.83-1.27,1.85,0,1.85,0 s 1.73.05,2.73,0,2.67.68,4.46,2.13 c 2.25,1.82,3.45,3.84,7.71,6.7 A 25.64,25.64,0,0,0,143,142.39 a 27.11,27.11,0,0,0,13.81-3.45 C 162.85,128.46,156.71,117.34,156.71,117.34Z M 144.84,140 s -7,.33-11.92-1.89 c -5.16-2.32-8.72-6.41-8.72-9.62 s 3-6.76,8.3-9.46 c 5.51-2.8,12.33-1.81,12.33-1.81 C 149.11,128.6,144.84,140,144.84,140Z" fill="#e9faff"/>
    <path d="M 113.89,124.15 a 2.21,2.21,0,0,0-1.77.31,2.79,2.79,0,0,0-.4,2.69,2.74,2.74,0,0,0,1.4.48 A 11,11,0,0,1,113.89,124.15Z" fill="#fff"/>
    <path d="M 114,129.65 s -.35-1-1-1.08-1.21.21-1.29,1.15 c .25,1.08.71,2.06,1.23,2.19 S 114,131.17,114,129.65Z" fill="#fff"/>
    <path d="M 110.71,128.4 a 1.16,1.16,0,0,0-1.37.75,2.51,2.51,0,0,0,.4,2.27.94.94,0,0,0,1.27-.27,6.17,6.17,0,0,1,.54-.58,3.39,3.39,0,0,1,.29-1.35 A 1.75,1.75,0,0,0,110.71,128.4Z" fill="#fff"/>
    <path d="M 108.23,128.23 a 1.29,1.29,0,0,0-1.42.65 c 0,1.1.21,2,.75,2.12 s 1.46-1,1.46-1 l .23-.85 A 1.67,1.67,0,0,0,108.23,128.23Z" fill="#fff"/>
    <path d="M 144.84,117.25 c -1.15-.06-1.81,7.13-1.81,11.32 s .58,11.51,1.81,11.45 C 144.84,140,149.11,128.6,144.84,117.25Z" fill="#fff" opacity="0.4"/>
  </g>
  <g id="outline">
    <path d="M 157.52,116.59 c -6.13-3.86-15.16-3.74-20.67-2.92-6.85,1-12.68,7.64-14,8.83-1.08,1-3,3-4.92,3.58 a 18.88,18.88,0,0,0-.48-4 c -.15-.51-.4-1.27-.56-1.79 a 7.32,7.32,0,0,0,1.14-4.72 c -.25-3.69-2.62-5.09-3.72-6.19 a 14.84,14.84,0,0,1-2.44-3.94,1.91,1.91,0,0,0-1.09,1.94 c 0,1.53,1.69,3,2.63,3.84 s 3.44,2.44,3.28,5.22-2.19,4.75-2.94,6.69 c -.08.22-.16.43-.23.65 a 1.67,1.67,0,0,0-2,1.13,3.73,3.73,0,0,0-.17,1.75,2.67,2.67,0,0,1-1.36-2.09 c -.31-2.44.66-3.53,1.31-5.16 s .63-3.37,0-3.94 a 3.9,3.9,0,0,1-.08,1.61 c -2.74-.5-3.92-3.42-3.92-3.42 a 5.2,5.2,0,0,0,3.63,4.4,14.49,14.49,0,0,1-.91,2,7,7,0,0,0-1,4.78,17.94,17.94,0,0,1-8-.49,12.34,12.34,0,0,0,4.77,1.16,4,4,0,0,1,.25,1,3.89,3.89,0,0,0,.09-1,15.28,15.28,0,0,0,3.07-.17,3.66,3.66,0,0,0,.8,1.32 l -7.35-.08 c -.12-.64-.4-1.25-.81-1.23 s -.58.76-.68,1.2 l -.88,0 a 4.41,4.41,0,0,1-1.54-.3,19.69,19.69,0,0,0,.76-2.51 c .53-2.19-.06-5,.19-7.41 s 2.25-4.37,2.88-5.25,1.75-2.41,1.73-3.5 a 2.61,2.61,0,0,0-1.14-1.84,2.44,2.44,0,0,0-.81,2.06,5.87,5.87,0,0,1-1.41,3.09 c -.66.84-2.38,2.75-2.66,5 s .23,4.46.11,6.68 a 10.52,10.52,0,0,1-.5,2.92,4.94,4.94,0,0,1-2-2.58 c -1-2.23-2.64-5.6-4.17-5.58-2,0-3.5,4.42-3.5,10.58 s 1.35,9.67,3.42,9.67 c 1.41,0,2.59-1.43,3.58-3.58 a 8.75,8.75,0,0,1,1.75-3,9.44,9.44,0,0,0-.08,3.67,1.42,1.42,0,0,0,2.58.25 c .28-.83,1.23-3.87,1.67-5.08 h 1.33 c .51,2.18.93,5.1,2.08,6.25 a 3,3,0,0,0,2.75.83,2.57,2.57,0,0,0,2.08,1.25 c .81.09,2.58.07,3.07-.75 l .18.25 c .44.56,2,.59,2.67.5 s 1-.81,1.63-2.37 a 21.82,21.82,0,0,0,1.38-5.62 c 1.58.42,2.83,2.17,5.67,5.25 A 25.17,25.17,0,0,0,137,143 c 5.06,1.19,14.83.75,21-3.25 C 161.47,134.78,161.58,122.4,157.52,116.59Z m -41.46,4.84 c .18.63.47,1.67.61,2.46 a 24.68,24.68,0,0,1,.2,2.8 h -3.15 c .1-.52.22-1.08.39-1.65 a 2.05,2.05,0,0,0,1-.76,5,5,0,0,1-.93.45,7.71,7.71,0,0,1,1.18-2.5Z M 112,125 a 1.1,1.1,0,0,1,1.39-.68,17.58,17.58,0,0,0-.54,2.77,3.52,3.52,0,0,1-.9-.19 A 3.38,3.38,0,0,1,112,125Z m -10,1.22 c .09,0,.15.17.18.34 h -.39 C 101.78,126.42,101.85,126.25,101.94,126.25Z m -2.56,6 c -.37,1.34-.53,2.38-1.22,2.25 s -.39-2.5,0-4.58 a 3.16,3.16,0,0,1,1.43-.37 h .7 C 100,130.14,99.63,131.29,99.37,132.22Z m 8.15,3.36 a 1.93,1.93,0,0,1-2.37-.3 c -.81-.88-1.74-4.57-2-5.79 h 3 a 5.32,5.32,0,0,0-.24.71 c -.06.21-.09.39-.14.58 a 4.19,4.19,0,0,0-1.26,1.59 l 1.12-1 c -.45,2.23-.08,2.86-.08,2.86 a 34.09,34.09,0,0,1,.81-4,7.31,7.31,0,0,1,.3-.78 c 0,.59.06,1.59.78,1.78 a 1.25,1.25,0,0,0,1.16-.53 l -.27,1.13 C 108,133.13,107.65,134.58,107.52,135.58Z m 6.24-5.9 c 0,.34-.08.77-.16,1.17-.17.88-.5,1.13-1,.67 a 4.38,4.38,0,0,1-.7-2,.84.84,0,0,1,.91-.68 C 113.18,128.83,113.49,129.12,113.76,129.68Z m -2.42.84 c -.23.36-.7,1-1.24.9 s -.76-.89-.57-2.21 a 1.07,1.07,0,0,1,.65-.58,1,1,0,0,1,1.35.72 A 5.44,5.44,0,0,0,111.34,130.52Z m -2.57-.5 c -.22.29-.75.93-1.17.86-.61-.11-.66-1.36-.64-2 a 1.24,1.24,0,0,1,1.08-.49,1.09,1.09,0,0,1,1,.85 A 6.92,6.92,0,0,0,108.77,130Z m 2.31,7.23 c -.92.17-2.62.13-2.83-.67 s .44-4.19.81-5.79 l .08-.35 c .06.6.27,1.28.94,1.37.47.07,1-.46,1.24-.81,0,.07,0,.14,0,.21 a 12.91,12.91,0,0,0,.75,5.31 A 1.35,1.35,0,0,1,111.08,137.25Z m 4-.34 s -.56.47-1.91.06 c -1.19-.69-1.53-4.53-1.5-6.19,0-.08,0-.14,0-.21.33,1.49,1.08,1.6,1.52,1.51 s .71-.94.79-1.67 c .07.23.14.49.21.77 a 12.68,12.68,0,0,0,1.19,3 c -.21-.55-.48-2.1-.83-3.43 a 7.13,7.13,0,0,1,1.33.43,3,3,0,0,0-1.47-.93,8.17,8.17,0,0,0-.28-.78 c 1.3,0,2.18,0,2.48,0 h .12 A 19.88,19.88,0,0,1,115.12,136.91Z m 41.56,1.62 a 30.15,30.15,0,0,1-20,2.59,23.08,23.08,0,0,1-11.51-6.66 c -1.82-2-5.15-5.43-7.74-5.61-.53,0-1.93,0-3.61,0-.46-.47-1.41-.93-2,0 a 1.43,1.43,0,0,0-2.49,0,1.6,1.6,0,0,0-2.83.1 h -7 c -1.47,0-2.73.7-4.09,2.57 s -2.19,4.88-3.56,4.84-2.36-4-2.36-8.36,1.12-8.77,2.36-8.77,1.94,2.23,3,4.18,2.1,3.6,4.26,3.82 a 18.55,18.55,0,0,0,2.88.19 l 8.83.06 a 3.83,3.83,0,0,0,2.7.54 c 0-.15,0-.33.07-.52 l 2.52,0 a 9,9,0,0,0,6-2.12 c 2.26-1.81,6.54-6.25,10.57-8.18 s 10.44-2.67,17.64-1.15 a 23.08,23.08,0,0,1,6,2 S 161.78,127.75,156.68,138.52Z"/>
    <path d="M 101.77,115.33 c 1.65,4,6.29,3.29,6.29,3.29 A 8.55,8.55,0,0,1,101.77,115.33Z"/>
    <path d="M 104,122.85 a 3,3,0,0,0,3.52.2 A 5.35,5.35,0,0,1,104,122.85Z"/>
    <path d="M 155.86,118.46 s -2,1.48-2,10.07,2.22,9.5,2.22,9.5-1.6-2.59-1.6-9.58 S 155.86,118.46,155.86,118.46Z"/>
  </g>
<script type="text/ecmascript" xlink:href="param.min.js"/> 
</svg>
