<?xml version="1.0"?>
<svg xmlns="http://www.w3.org/2000/svg" xmlns:xlink="http://www.w3.org/1999/xlink" id="Layer_1" data-name="Layer 1" viewBox="0 0 600 1032.4">
  <title>HS002</title>
  <g id="main-colour">
    <path d="M 174.7,520.3 c 16.4,38.3,51.2,60.7,68.5,64.7-15.3-9.3-16.7-18.7-16.7-18.7 s 10.7,10,15.3,11.3 a 31.1,31.1,0,0,1-6.7-15.3 s 7.3,10.7,18,15.3 a 28.32,28.32,0,0,1-3.9-8 c -14.2-13.5-20.8-32.5-20.8-53.5,0-15.9,6.5-30,15-42,13.8-15.7,37.9-23.6,56.6-11.3,20.5-13.2,44.3-4,58.7,14.5,7,9,12.7,23.8,12.7,38.8,0,27.1-12.2,50.8-34,63.7 a 30.79,30.79,0,0,1-4.3,3.8 s 14-2.7,21.3-9.3 c -1.3,5.3-6.7,9.3-6.7,9.3 s 13.3-2,20-10.7 c -2,8.7-10.7,16-10.7,16 s 61.7-12,82.7-76.2 c 21.3-65.3-13.3-139.8-82-141.8-33.6-1-57.3,22.7-57.3,22.7 s -19.1-23.1-51.8-21.8 C 202.6,373.7,137.8,433.9,174.7,520.3Z" fill="param(main_colour)"/>
  </g>
  <g id="accent-colour-1">
    <path d="M 335,439.4 c 24.5,1,48.5,19.2,54.8,50.8,6.8,33.8-7.2,77.3-34.2,88.8,21.2-22.8,45.1-72.6,11.5-111.5-30.2-35-64.2-15.5-64.2-15.5 C 309.5,442.4,321,438.4,335,439.4Z" fill="param(accent_colour_1)"/>
    <path d="M 375.5,391.1 c 20.2,7,51.8,28.3,54.2,89.5,2.5,61.8-54,97.8-54,97.8 s 45.8-21.8,57.2-68.8 S 429,403.8,382.4,386.1 c -48.8-18.5-81.2,18.8-81.2,18.8 C 317.3,394.4,344,380.1,375.5,391.1Z" fill="param(accent_colour_1)"/>
    <path d="M 407.3,460.6 c 11.5,45-10,90.3-33.5,112.8,44.8-32.2,59.5-120.3,22.5-154.8-50.4-47-92-1.9-90.8-2.8 C 332.8,398.4,391.4,398.6,407.3,460.6Z" fill="param(accent_colour_1)"/>
    <path d="M 398.3,532.9 c 1.5-11,17.2-82.5-33.8-110.5-35.8-19.6-60.8,8.8-60.8,8.8 C 389.5,405.4,408.3,486.9,398.3,532.9Z" fill="param(accent_colour_1)"/>
    <path d="M 230.8,394.9 c -42.2,22.1-51.4,68-46,104,6.5,43.5,38,73,38,73 s -33.5-25-43.5-71.5,7.5-97.5,56.5-115 c 41.8-14.9,61,16.5,61,16.5 C 285.8,392.4,264.3,377.4,230.8,394.9Z" fill="param(accent_colour_1)"/>
    <path d="M 209.3,446.4 c -20.5,39.5,6.5,93,18.5,117-45-54.5-40.5-127.5,2.5-155.2,38.9-25.1,67.3,5.1,67.3,5.1 C 255.8,395.4,226.3,413.6,209.3,446.4Z" fill="param(accent_colour_1)"/>
    <path d="M 235.3,443.9 c -29,29.5-13.5,88-3.5,113-15.5-32.5-28.5-95.6,2.2-123,33.8-30,60.8-3.5,60.8-3.5 C 281.3,427.9,262.1,416.6,235.3,443.9Z" fill="param(accent_colour_1)"/>
    <path d="M 225.3,498.9 c 1.5-22.5,10.4-51,35-59 s 37,10,37,10 C 253.3,433.1,232.8,469.4,225.3,498.9Z" fill="param(accent_colour_1)"/>
  </g>
  <g id="accent-colour-2">
    <path d="M 396.8,409.6 C 419,429,432,471.9,419,512.6 s -37.1,63.8-53.8,71.8 c 41.2-27.5,61.3-78.9,55-122.3 s -37.3-65.7-66.7-68.4 S 303,411.1,303,411.1 C 332.3,379.9,374.8,390.5,396.8,409.6Z" fill="param(accent_colour_2)"/>
    <path d="M 362.5,413.4 c 45.3,17.7,47.1,71.8,43.8,94.5,2.2-43.2-13.6-80.4-42.8-91-35.8-13-61.5,7.5-61.5,7.5 C 309,415.9,335.3,404.8,362.5,413.4Z" fill="param(accent_colour_2)"/>
    <path d="M 358,436.9 c 27.1,12.2,39.4,39.4,39.8,67.5.3,28.3-10.8,56-26.8,70,16.1-17.8,27-49.7,24.7-73.7 s -10.2-37.3-23.8-51.3 c -32-29-70.2-7-70.2-7 C 311,433.6,336.3,427.1,358,436.9Z" fill="param(accent_colour_2)"/>
    <path d="M 359.3,471 c -21.7-23-46-18.7-57-12,14-11.4,39.6-10.4,57.2,7.6 s 23,40.8,17,66.5-22.2,38.6-22.2,38.6 C 382.6,540,380.9,494,359.3,471Z" fill="param(accent_colour_2)"/>
    <path d="M 412.2,396.4 c 23.7,25.3,33.3,52,30.7,89.7 S 417,555.4,394,569.2 c 45.3-36.3,49.9-79.5,46.2-109.5 s -23.9-71.8-67.2-81.5 S 303.9,396,303.9,396 C 331.6,361.7,388.6,371,412.2,396.4Z" fill="param(accent_colour_2)"/>
    <path d="M 229.3,491.6 c -10.4,30.1.7,58.1,11.3,70.8-30-46-6.2-90.5,17.2-104.5 s 37.5-1,37.5-1 C 272.3,435.9,239.5,462.2,229.3,491.6Z" fill="param(accent_colour_2)"/>
    <path d="M 248.8,436.9 c -23,14.5-30,36.5-26.5,66.5-1.7-8.3,1.9-49.9,27.5-64 s 47-1,47-1 C 292.8,434.4,271.7,422.4,248.8,436.9Z" fill="param(accent_colour_2)"/>
    <path d="M 232.3,425.4 c -27.2,21.6-26.5,57.5-22.5,77.5 s 14.8,52.5,25.2,65.2 c -10.3-17.7-20.6-51.8-23-68.7 s -4.7-55,27.8-76 c 30.5-19.7,57.3,0,57.3,0 C 282.8,409.7,256.8,405.9,232.3,425.4Z" fill="param(accent_colour_2)"/>
    <path d="M 216.9,409 c -19.3,17.3-30.7,40.2-28.2,76.8,2.7,38.3,15.2,55.8,33.2,74.5-31.7-33.5-33.2-78-29.7-100.5,5-32,26.8-55.5,55.5-64.9 s 50.2,12.7,50.2,12.7 C 274.1,377.9,237.8,390.4,216.9,409Z" fill="param(accent_colour_2)"/>
    <path d="M 239.6,375.7 c -30.3,7.7-56.2,32.3-65.9,59.7 s -7.4,56,5.6,87 c 13.7,32.6,48.7,52,48.7,52-50.2-29.5-60.7-84.5-54.7-124,5.3-35,39.3-67.8,73-72.5 S 297,395.1,297,395.1 C 293.3,388.7,269.9,368,239.6,375.7Z" fill="param(accent_colour_2)"/>
  </g>
<script type="text/ecmascript" xlink:href="param.min.js"/> 
</svg>
