<?xml version="1.0"?>
<svg xmlns="http://www.w3.org/2000/svg" xmlns:xlink="http://www.w3.org/1999/xlink" id="Layer_1" data-name="Layer 1" viewBox="0 0 600 1032.4">
  <title>HS001</title>
  <g id="main-colour">
    <path d="M 187,484.8 a 106.4,106.4,0,0,0,3.4,24.5 c 9.2,33,20.2,49.5,31.7,69.5,12,21,25.1,45.1,20.7,61.1 l -.6,2.1 a 22.77,22.77,0,0,1-1.5,3.6,17.48,17.48,0,0,1-1.8,2.9,15.68,15.68,0,0,1-3.1,3.2,14.32,14.32,0,0,1-2.2,1.5,22.87,22.87,0,0,1-2.3,1 l -1.2.3 a 14.76,14.76,0,0,1-4.7.5 c -.8,0-1.5-.1-2.2-.1 a 26.51,26.51,0,0,1-6.2-1.4 c -.4-.1-.8-.3-1.1-.4 a 4.11,4.11,0,0,1-.9-.4 c 7.4,11.8,17.5,14.3,27.7,11,0,0-1.5,7.5-6.5,11.5 a 28.75,28.75,0,0,1-18.2,6.5 c 27.8,11.5,44.2-11.7,44.2-11.7 s -3,12.2-10.2,16 a 26.64,26.64,0,0,0,15.5-7 s -5.2,13.5-15.2,19 a 37.26,37.26,0,0,0,32-22.2 s 7.5,16,1.2,29 c 12.5-8.2,14.8-26.2,14.8-26.2 s 6.5,19.2,20.8,24.5 a 27.54,27.54,0,0,1-7.5-23 s 6.8,10.5,14.5,11.2 a 15.48,15.48,0,0,1-6.8-14.8 c 4.2,7.8,17.5,18.8,32.5,20.8-8.8-7.5-12.5-20.5-12.5-20.5 s 10.8,11.8,23,13.5 c -2.2-.2-11.2-8-12.5-16,2.5,2.8,21.5,13.8,40.8,7.2-8.5,0-23-6.8-27.5-16.5,6,4.5,20,7,27.2,3.2-2.8.5-9.8-.2-14-4.5,4.2,2,26.8,4.2,38-13.2-4.8,6.5-23.2,10.8-35-3.8 s -7-39.1,8-61.8,45.5-48.5,42.5-99.2-39.7-98.1-75.7-101.4 c -44.8-4.1-56,19.1-56,19.1 l -2-2.8 c -19.2-29.8-60.3-20.5-86.4,6.7 C 193.5,426.1,186.1,457.9,187,484.8Z m 42.3,39.7 c -2.7-24.7,20.3-41.3,37.7-49.2 s 28.9-17.2,32.3-28.7 c 6.5,25.7,28.2,28.2,43.9,37 s 29,26.8,28,40.3-9,26-24,34.3 c 9-.7,14.3-3.3,14.3-3.3 l -.1.2 a 18,18,0,0,0,2.1-.8,73.79,73.79,0,0,1-124.3,3.3,17.24,17.24,0,0,1,2.1.7 l -.1-.2 s 6.7,2.7,13.3,1.8 c -2.5-.6-22.5-10.8-25.2-35.4Z" fill="param(main_colour)"/>
  </g>
  <g id="accent-colour-1">
    <path d="M 339.9,463.4 c 17.7,6,32,15.3,37.3,37 s -1.7,45-15,51 c 24.8-22.8,14.8-67.2-18.7-79.7-33.3-12.4-40.8-31.1-40.8-31.1 C 312.1,453.3,322.3,457.4,339.9,463.4Z" fill="param(accent_colour_1)"/>
    <path d="M 369.6,403 c 27.6,14.6,42.4,45.8,47.4,81.8 s -16.3,64.6-32,87.3-26.4,51.9-17.4,71.6,28.3,16,28.3,16-17.7,1.7-25.3-21,8-52.8,23.7-71.8,28.8-39.1,30.8-69.5-19.7-93-62.8-105.2 c -39.9-11.4-60.2,17-60.2,17 S 337.6,386,369.6,403Z" fill="param(accent_colour_1)"/>
    <path d="M 390.6,456.7 c 13,30.7,12.3,62.7-12.3,100.7 s -28.7,56.7-29,77.3,6.3,37,22,41.7 c -26-14.7-14.7-66.3-5.7-86.3 s 29.5-39.7,38.2-70.4-.1-84.4-38.8-104.9 c -30.3-16-62.7,1.4-62.7,1.4 C 350.3,408.4,377.6,426,390.6,456.7Z" fill="param(accent_colour_1)"/>
    <path d="M 371.2,459.1 c 9.9,12.4,17,38.2,14.8,66.5,20-82.8-47-112.8-83-103 C 332,424.9,354.7,438.4,371.2,459.1Z" fill="param(accent_colour_1)"/>
    <path d="M 342.6,689 c -26.6-66.9,21.7-128.4,21.7-128.4 C 315,605.9,324.9,671.4,342.6,689Z" fill="param(accent_colour_1)"/>
    <path d="M 319.5,682.4 c -18-51.2,8-94.5,8-94.5 C 300.3,613.1,305.8,666.4,319.5,682.4Z" fill="param(accent_colour_1)"/>
    <path d="M 290.3,695.9 c 22.3-53.8,2.2-102.8,2.2-102.8 C 297.5,619.1,297.3,662.1,290.3,695.9Z" fill="param(accent_colour_1)"/>
    <path d="M 271.3,586.7 c 37.2,63.7-6.8,103.7-6.8,103.7 C 286,653.6,279.9,616.4,271.3,586.7Z" fill="param(accent_colour_1)"/>
    <path d="M 254.5,603.4 c -9.7-23.3-30.2-48.3-41.6-81-11-31.8-5-72,17.3-94.3 s 43.3-24.7,64.3-11.7 c -34.7-5-57.3,8-74,38.7 s -5,76.2,11.2,98.9 c 15.3,21.5,34.2,46.6,36.2,78.9 S 241.6,679,241.6,679 C 266.6,657.7,264.2,626.7,254.5,603.4Z" fill="param(accent_colour_1)"/>
    <path d="M 199.8,468.6 c -4.7,36,18.5,81.8,30.2,102.8 s 22.3,41,21.7,61.3-14.3,28.4-28.1,25.2 c 14.8-2,21.1-10.8,23.1-21.5,4-22.3-19.6-59-35.6-91 s -20.2-59.6-16.5-83.3,21.3-58.4,53.5-68.8 c 35.8-11.5,47.6,16,47.6,16 C 235.9,374.4,204.4,433,199.8,468.6Z" fill="param(accent_colour_1)"/>
    <path d="M 250,469.6 c -19,9.7-31.4,21.1-30.8,40.8 s 9,36.3,24,44.7 c -9.3-4.3-16.8-20.9-18.8-35.9-1.7-33.3,24.8-43.7,42.2-52.5,19.8-10,29.2-28,29.2-28 C 280.5,455.9,269,459.9,250,469.6Z" fill="param(accent_colour_1)"/>
    <path d="M 217.3,487.1 c 24.8-74.2,79-65.5,79-65.5 C 262.3,428.9,228.8,456.1,217.3,487.1Z" fill="param(accent_colour_1)"/>
    <path d="M 253.8,451.6 c -10.3,5-23.5,14.5-27.2,24.8,3.7-4.7,19.1-16.6,35.8-23.2 S 296.5,428,295.2,429 C 282.5,437.9,264.1,446.6,253.8,451.6Z" fill="param(accent_colour_1)"/>
    <path d="M 339.6,444.7 c 9.4,4.4,25.4,11.7,35.4,29.7-3.3-5.7-17.4-19.3-40.8-25-17.8-4.3-31.5-20.2-31.5-20.2 C 312,433.6,325.6,438.2,339.6,444.7Z" fill="param(accent_colour_1)"/>
  </g>
  <g id="accent-colour-2">
    <path d="M 326.5,434.1 c 6.2,2.5,21,10.8,27.5,14-24.2-20.8-50.8-22.5-50.8-22.5 C 311.5,430.1,321.7,432.2,326.5,434.1Z" fill="param(accent_colour_2)"/>
    <path d="M 366.5,432.6 c 32,25,37.5,78,15,109.5,22.8-39.8,10-86-16.2-107.5 s -61.5-15.2-61.5-15.2 C 328,413.9,350.8,419.1,366.5,432.6Z" fill="param(accent_colour_2)"/>
    <path d="M 360.5,403.6 c 22.5,8,40,32.8,45.8,50.8 s 11.2,40,4.5,63.8-19.5,38.8-32.2,59.2-16.2,33.8-16.8,53,8.2,32.5,15,36.8 c -8.8-4-18.8-15.8-16.5-45 s 23-55.8,30.8-67.2,22.5-36,19.8-68.3-19.3-67.2-49.8-79.8 c -25.5-10.5-58.5,5.5-58.5,5.5 C 313.8,406.1,338,395.6,360.5,403.6Z" fill="param(accent_colour_2)"/>
    <path d="M 363.5,568.6 c -4.5,6.2-15.2,21.2-21,51 s -1,54.2,10.2,62.5 c -24.5-39.5.8-91.5,12-110.2 a 300,300,0,0,0,19.2-39 C 380.8,540.6,368,562.4,363.5,568.6Z" fill="param(accent_colour_2)"/>
    <path d="M 338.3,690.4 c -41.2-57.5,2.2-106.5,2.2-106.5 C 305,619.6,316.5,669.9,338.3,690.4Z" fill="param(accent_colour_2)"/>
    <path d="M 311,688.9 c -14.5-49.5,2.8-97.2,2.8-97.2 C 296.3,628.6,303.3,674.9,311,688.9Z" fill="param(accent_colour_2)"/>
    <path d="M 287.5,676.9 c 17.2-48.8-7.8-85.2-7.8-85.2 A 132.08,132.08,0,0,1,287.5,676.9Z" fill="param(accent_colour_2)"/>
    <path d="M 260,681.1 c 31.5-61.5-9.5-105.2-9.5-105.2 C 288,608.1,273.5,673.1,260,681.1Z" fill="param(accent_colour_2)"/>
    <path d="M 254,621.9 c 7.5,30-10.5,46.8-10.5,46.8 A 71.52,71.52,0,0,0,254,621.9Z" fill="param(accent_colour_2)"/>
    <path d="M 330.8,456.4 c -13.1-3.9-21.5-10.8-26.2-18,2.2,3.2,13,11.2,19.2,13.5 s 28.8,6.9,40.5,16 c 14.2,11,19.2,34,19.2,34 C 373.8,467.6,350.3,462.1,330.8,456.4Z" fill="param(accent_colour_2)"/>
    <path d="M 340.8,478.1 c 16.5,9,25.8,18.2,27.8,29.8-5.2-14.8-21.5-26.4-47.2-36.8-16.2-6.5-18.2-23.5-18.2-23.5 C 310,470.1,324.7,469.4,340.8,478.1Z" fill="param(accent_colour_2)"/>
    <path d="M 241.3,455.4 c 7.5-5.2,19.5-13.2,31.5-18.2 A 186.78,186.78,0,0,0,296.3,425 C 281,428.6,252.5,444.6,241.3,455.4Z" fill="param(accent_colour_2)"/>
    <path d="M 220,468.1 c 29.8-65.5,76.5-48.8,76.5-48.8 C 268.8,416.1,244.5,425.1,220,468.1Z" fill="param(accent_colour_2)"/>
    <path d="M 247,464.4 c -18.7,8.9-31.5,26.2-30.5,38.2,2.2-23.5,24.3-32.6,43.5-42.2,20.5-10.2,34.2-26.5,34.2-26.5 C 281.5,448.4,268,454.4,247,464.4Z" fill="param(accent_colour_2)"/>
    <path d="M 250.8,406.6 c -21.2,7.5-35.5,27-43.2,50-8.5,25.2-1,56.8-1,56.8 s -10.2-31.3,0-61.3,31.8-48,52.5-50 a 52.31,52.31,0,0,1,35.5,10 C 288.3,409.9,272,399.1,250.8,406.6Z" fill="param(accent_colour_2)"/>
    <path d="M 246,557.6 c -7-.8-18.2-13-18.2-13 C 232.8,552.4,236.5,556.9,246,557.6Z" fill="param(accent_colour_2)"/>
    <path d="M 209.5,553.4 c 5.2,9,18.5,31.2,29,52.2-1-7.8-20-40-32.5-63.5 s -15.5-50.8-15.5-50.8 C 191.3,519.4,204.3,544.4,209.5,553.4Z" fill="param(accent_colour_2)"/>
    <path d="M 247.2,481.4 c -13,8.5-22,23.8-19.8,33.5.8-20.3,22.8-36.3,48-47,16.5-7,20.5-20.5,20.5-20.5 C 287.5,464.4,271.3,465.6,247.2,481.4Z" fill="param(accent_colour_2)"/>
    <path d="M 328.3,387.1 c 14.8-3.2,40.2-4.8,60.5,13.8 s 28.5,35,34.2,51.2,10.5,38,5.5,61.3-19.2,43.5-28.8,55-18.8,25.2-23.2,36.8 c 4.5-18.5,14.5-31.2,21.8-39.5 s 14.2-16.8,24.5-42,5.2-57.3-7.5-83.3-34.8-52.5-67.5-53-46.5,17.5-46.5,17.5 C 302.3,401.4,313.5,390.4,328.3,387.1Z" fill="param(accent_colour_2)"/>
    <path d="M 267.8,386.9 c -26.5-.5-45.5,12.2-59,30.8 s -18.2,42.2-19,65 c -3.2-41.8,14.5-68,29.8-80.5 C 234,390.4,254.8,382,271.8,385 s 26.5,20.2,26.5,20.2 C 288.5,393.4,277,387.4,267.8,386.9Z" fill="param(accent_colour_2)"/>
  </g>
<script type="text/ecmascript" xlink:href="param.min.js"/> 
</svg>
