<?xml version="1.0"?>
<svg xmlns="http://www.w3.org/2000/svg" xmlns:xlink="http://www.w3.org/1999/xlink" id="Layer_1" data-name="Layer 1" viewBox="0 0 600 1032.4">
  <title>HS008</title>
  <g id="main-colour">
    <path d="M 181.3,485.4 a 101.34,101.34,0,0,0,3.5,24.5 c 7.5,27,20,42.5,30.6,58.2 a 15,15,0,0,0-10.8,1.4 c -8.1,4.4-14.2,18.4-3.2,29.3,7.3,7.2,21.3,6.2,30-.6,3.2,11.8.4,15.2.4,15.2 s -8.6-5-17-.5 c -8.7,4.8-15.2,19.8-3.4,31.5,7,7,19.9,6.8,29.2,1.4 a 20.07,20.07,0,0,1-1.7,2.7,15.68,15.68,0,0,1-3.1,3.2,14.32,14.32,0,0,1-2.2,1.5,22.87,22.87,0,0,1-2.3,1 l -1.2.3 a 14.76,14.76,0,0,1-4.7.5 c -.8,0-1.5-.1-2.2-.1 a 26.51,26.51,0,0,1-6.2-1.4 c -.4-.1-.8-.3-1.1-.4 a 4.11,4.11,0,0,1-.9-.4 c 3.8,6,8.3,9.6,13.1,11.3 a 33.27,33.27,0,0,0-7.2,6.3 c -16.5,19,5.7,38.4,22,38 a 44.38,44.38,0,0,0,34.2-17.7 c 5.4,6.1,13.6,11.1,23.8,8.7 A 24.4,24.4,0,0,0,313,693 c 8.6,15.1,28.6,21.5,41.9,11.3,6.4-4.9,9-10.6,9.7-15.8,9,6.5,20.4,10.9,32.3,8.8,25.5-4.5,26.5-29.5,14-39 a 22.64,22.64,0,0,0-22.5-2.9,43.17,43.17,0,0,1-7.3-8.6,34.27,34.27,0,0,1-4.4-10.2,34,34,0,0,0,12.5,3.2 c 19.8,1,27.7-15,21.8-27 s -22.7-11.5-27.5-6 c -1.6-9.2,3.4-18.2,5.1-20.9 l .5-.8 c .8-1.2,1.7-2.4,2.5-3.7,9.4,9.3,24.3,10.3,34,3.7,12.5-8.4,15.7-26.1,3.2-37 a 21.67,21.67,0,0,0-10.8-5.5,115.46,115.46,0,0,0,13.5-56.7 c -.7-57.1-30.2-95.1-69.7-101.6-44.4-7.3-63.6,21-63.6,21 h 0 c -19.5-29.9-66.2-27.7-92.9-1 C 185.8,423.9,180.5,458.4,181.3,485.4Z m 182.1,68.9 A 73.93,73.93,0,0,1,300.2,590 c -25.4,0-47.5-13-61.1-32.3-8.1-11.5-9.6-28.8-9.8-33.2-2.7-24.7,20.3-41.3,37.7-49.2 s 24.8-17,28.2-28.5 c 6.5,25.7,32.3,28,48,36.8,15.2,8.6,28.2,25.7,28,39.1 h .1 C 371.6,534.9,367.8,547.3,363.4,554.3Z" fill="param(main_colour)"/>
  </g>
  <g id="accent-colour-1">
    <path d="M 408.9,571.4 c -7.6-2.2-8.7-13,.3-31.5 s 16.8-41.3,11.2-70.8-24.8-68.5-55.8-75.8 c -36.9-8.6-59,8.2-63.5,20.5,7-8,27.3-18.9,49-16.2,24.8,3,45.2,22.5,57.8,58 s 4.2,64.8-4.3,83.3-9.2,33.8,2.2,38.8,21.8-8.2,17.8-16.5 c -4.5-9.2-11-5.5-11-5.5 C 425.6,557.3,420.3,574.6,408.9,571.4Z" fill="param(accent_colour_1)"/>
    <path d="M 328.6,463.8 c 9.8,3.7,23.3,5,39.5,23.5,15.9,18.2,13.8,45.3,3.2,63.7,19-45-15.7-71.3-40.3-79 s -31.3-28-31.3-28 C 303.6,452,318.4,460.1,328.6,463.8Z" fill="param(accent_colour_1)"/>
    <path d="M 351.1,419.7 c 18,7.8,31.8,23.2,40,57.7 s -9,72.1-16.5,93.3-7.8,34.4-5.6,42.2,11.5,19.8,23.2,16.8,8.5-11.5,6.8-13-7.5-3.8-8.5.8 c 4.2-3,10.2,4.2,3.2,7.5 s -23.8-6.5-19.8-30.5,25.3-68.2,27.3-91.5-8-65.3-37.7-85.3-62,2.5-62,2.5 C 316.7,413.7,333.1,411.9,351.1,419.7Z" fill="param(accent_colour_1)"/>
    <path d="M 361.2,448 c 12.2,11.8,21,30.6,24.5,51.8,1-11.5-2.7-43.3-28.2-64-24.1-19.5-58.2-8.5-57.5-8.5 C 328.8,427.6,351.3,438.5,361.2,448Z" fill="param(accent_colour_1)"/>
    <path d="M 341.8,447.6 c 11.5,4.2,24.8,15.5,29.8,31.2-4.5-7.8-20-21.2-38.8-26.2 s -31.8-18-31.8-18 C 313.8,442.6,330.3,443.4,341.8,447.6Z" fill="param(accent_colour_1)"/>
    <path d="M 360.5,665.4 c 7.8,9.5,21,24.5,35.5,20 s 11-15.8,6.5-19.2-11.8-1.5-12,4.2 c 6.5-9,18.8,7.8,2.8,8.8 s -33.6-19.9-41.2-50.8 c -6.5-26.2,16.8-65.5,16.8-65.5 C 326.5,608.1,352.8,655.9,360.5,665.4Z" fill="param(accent_colour_1)"/>
    <path d="M 384.3,664.4 c -35-25.5-24-64.8-24-64.8 C 358.5,626.6,374,653.4,384.3,664.4Z" fill="param(accent_colour_1)"/>
    <path d="M 323.5,619.9 c -3.5,11-3,25.8,6.2,27 s 8.5-12.2,3.5-12.2-6,2.8-4.2,6.8 c -8.2-3.8,2.2-21,11.8-7.8 s -15.5,32.2-22.5,6,21.8-54.5,21.8-54.5 C 336,591.1,327,608.9,323.5,619.9Z" fill="param(accent_colour_1)"/>
    <path d="M 326,686.4 c 8.2,9,24.8,5.5,24.2-3.8-.5-8.2-5.5-13.2-13.5-11.5 s -5,10,.2,10,3.5-3.2-.5-5 c 7-5,12.2,9.2,2.2,11-8.5,1.5-11.6-5.7-11.8-9-.2-6.5,3.2-16,17.5-12.5 s 16.2,28.8-2,32.5-30.2-12.2-33.8-35.5 c -5.2-34.8,5.2-57,5.2-57 C 305.8,650.1,317.8,677.4,326,686.4Z" fill="param(accent_colour_1)"/>
    <path d="M 209.5,580.1 c -2.5.8-5.5,4.8-.2,9.8 s 17.5-.2,16-12.2-8.8-18.8-19-36.5-18.8-45.8-17.8-72.5,8-62.8,44.5-74,56.2,6.8,62.2,18.5 c -12.8-13.8-34.2-21.8-60-12.5 s -38.5,35-40,69.5,11,61,20.2,74.8,19.8,29,16,39.8-14,15.5-23,10.5 c -8.2-4.6-7.5-16.2-.2-18.2 s 9.2,3.8,9.2,3.8 C 214.8,578.6,212,579.4,209.5,580.1Z" fill="param(accent_colour_1)"/>
    <path d="M 262,466.1 c -11.8,5.5-28.5,10.8-37.5,33.2 s -1.2,39,7.2,54 c -7.2-13.5-10.2-38.5-.5-54.5 s 26.8-24,41.5-31.5,19.2-23.8,19.2-23.8 C 286.5,456.6,273.8,460.6,262,466.1Z" fill="param(accent_colour_1)"/>
    <path d="M 254.8,414.1 c -27,3.5-42.8,27.8-46,58.2 S 222,538.1,222,538.1 s -14.7-17.5-17.7-47.3,2.5-68.5,35.8-79.5,54.5,8.5,54.5,8.5 S 281.8,410.6,254.8,414.1Z" fill="param(accent_colour_1)"/>
    <path d="M 243.3,442.1 c -23.2,15.5-28,48.5-27.5,69-6.5-31.5,0-62,24-78.8 s 55.5-6,55.5-6 C 286.8,425.9,266.5,426.6,243.3,442.1Z" fill="param(accent_colour_1)"/>
    <path d="M 256.2,447.9 c -25.2,8.5-33.5,29.5-35.2,46.5,8.2-26.2,32.2-36.5,48-42.8 a 55.41,55.41,0,0,0,24-18.8 C 286.5,439.1,281.5,439.4,256.2,447.9Z" fill="param(accent_colour_1)"/>
    <path d="M 229,638.6 c -8.8,2.5-14.5-4.5-13-11 s 10.8-7.5,12-2-4,5.2-8.8,3 c 4.2,7.8,10.5,6,12.8.8,2.5-5.8-2.2-14.2-12.2-12 s -13,14.2-5.5,22.5,30.5,4.8,32.5-15.2-11-33.2-11-33.2 C 250.3,623.9,237.8,636.1,229,638.6Z" fill="param(accent_colour_1)"/>
    <path d="M 268.5,666.9 c -5.2,21-17,29.2-30.2,26 s -9.2-14.8-1.2-20.1,16.2-1.9,13.2,5.1 a 9.41,9.41,0,0,1-1.2,2.2,9.51,9.51,0,0,1-13.3,1.7 c 1.8,7,12.2,8.4,19.2,2.1 s 6.5-20.5-5.5-20.8-26.8,8.5-25.5,24.5,47.8,24.5,52.2-24.8-25-85.2-25-85.2 C 268.3,605.9,273.8,645.9,268.5,666.9Z" fill="param(accent_colour_1)"/>
    <path d="M 256,642.4 c -7,17.8-17.5,18.5-27.5,16.5,10-.5,22.5-6.5,23.5-32 s -13.2-59.2-13.2-59.2 C 254.5,593.6,263,624.6,256,642.4Z" fill="param(accent_colour_1)"/>
    <path d="M 279.8,670.6 c 8.5-35.2-11.2-81-11.2-81 C 291.8,628.1,287.3,656.1,279.8,670.6Z" fill="param(accent_colour_1)"/>
    <path d="M 297.5,677.1 c -1.2-2.8-7.2-3-10,1.5 s 2.8,11,9,10.2 c 7.5-.9,7.8-10.2,6.2-16 s -8-17-10.5-35.2,1.5-33.8,9.5-40.8 c -11.8,22.5-4.5,46.2-1.2,56.8 s 12,26.8,5.8,36.5 c -7.4,11.5-21.2,4.8-24.8-2.2 s 2.5-15.2,10.8-16.2,10.8,6.8,7.5,10.5-8-.5-8-.5 C 295.5,682.4,298.8,679.9,297.5,677.1Z" fill="param(accent_colour_1)"/>
    <path d="M 303.5,645.7 c -5-25.3,14.3-52.5,14.3-52.5 C 299.1,606.6,298.8,625.4,303.5,645.7Z" fill="param(accent_colour_1)"/>
  </g>
  <g id="accent-colour-2">
    <path d="M 329.8,437.3 c 22.2,5.2,37,18.2,44.2,37-13.7-22.7-26.5-31.1-44.2-34.8-22.8-4.8-27.5-10.6-27.5-10.6 C 308.6,433,312.6,433.3,329.8,437.3Z" fill="param(accent_colour_2)"/>
    <path d="M 348.5,463.9 c 25,10.7,35.1,34.5,33.1,50.8-2.3-39.3-37.3-50.8-56.1-57.3-19.5-6.8-24.9-16.7-24.9-16.7 C 312.5,453.1,323.5,453.2,348.5,463.9Z" fill="param(accent_colour_2)"/>
    <path d="M 369,439.9 c 26,31,24.2,68.5,13.5,94.5,8.2-27.8,10.8-65.7-16.2-93.8-30.8-32-65.5-17.2-65.5-17.2 C 310.1,418.7,343,408.9,369,439.9Z" fill="param(accent_colour_2)"/>
    <path d="M 369.8,411.6 c 14.3,10,27.3,24.2,37,60.5 s -7.8,67.6-13.5,80.3 a 243.81,243.81,0,0,0-14.5,44 c -3.3,15,6.2,25,11.5,25.3-5,.4-10-2.1-13.3-10.7-5.4-14,6.7-38.2,11.3-51.2 s 20.2-41.9,18.3-69.2-13.6-60.3-39.2-78-60.7.1-60.7.1 C 330,397.4,355.4,401.6,369.8,411.6Z" fill="param(accent_colour_2)"/>
    <path d="M 346.9,385 c 24.7-.7,46.4,13.3,59.8,32.3,13.8,19.5,22,43.9,22,75,0,31.5-14.5,49-18.8,59.3-5.2,12.5-2.1,15.8.5,15,5-1.5.1-6.2.1-6.2 a 5.32,5.32,0,0,1,4.2,5 c .3,4.3-4.5,5.2-8.2,2.3-6.3-6.3,3.7-17.8,13.7-43.1,11.3-28.6,5.8-65.8-9.2-94.8-17.7-34.2-47-42.8-63-42.5-35.8.2-46.8,21.3-46.8,21.3 C 305.6,398,322.3,385.7,346.9,385Z" fill="param(accent_colour_2)"/>
    <path d="M 410.3,585.3 c -15-.8-17.7-12.6-15-21.2-2.2,17.6,15.9,24.7,27.5,12.6,17.2-18-6.4-27.8-5.5-27.5 C 445.6,558.5,425.3,586,410.3,585.3Z" fill="param(accent_colour_2)"/>
    <path d="M 404.5,626.4 c -7,10.8-20.1,11.3-30.8,4 s -13.9-24.8-10.2-43.5,14.4-39.7,18.8-49 c -4,16.3-20,43.2-17.7,67.2 s 15.2,28.3,27.4,27.3 c 8.6-.7,16.3-12.2,10-19.2 s -13.8-.4-13.8-.4 C 398.3,600.4,411.5,615.6,404.5,626.4Z" fill="param(accent_colour_2)"/>
    <path d="M 394.9,673 c -30.7-.4-39.7-48.7-39.7-48.7 C 359.9,660.7,379.6,676.4,394.9,673Z" fill="param(accent_colour_2)"/>
    <path d="M 411.7,677.6 c -4,15-22.6,20.2-41.2,7.2 s -23.6-41.5-23.6-41.5,3.5,17.1,15.5,31.5 c 14.5,17.4,32,18.5,41,12.1 a 15.4,15.4,0,0,0,3.7-3.5,15,15,0,0,0-3.1-21.1 c -8-6-16.4,3.3-16.4,3.3 C 397.3,650.1,415.7,662.6,411.7,677.6Z" fill="param(accent_colour_2)"/>
    <path d="M 337.2,624.6 c -.8-26,14.7-48.2,14.7-48.2 C 340.8,587.9,334.5,608.4,337.2,624.6Z" fill="param(accent_colour_2)"/>
    <path d="M 324.3,681 s -8.8-10.5-10.6-43.1 C 311.9,606,328.9,587,328.9,587,300.9,628.7,324.3,681,324.3,681Z" fill="param(accent_colour_2)"/>
    <path d="M 346.9,662.7 c -15-6-21.7,4-21.7,4 C 328.8,658.1,340.3,657.1,346.9,662.7Z" fill="param(accent_colour_2)"/>
    <path d="M 333.5,703.6 c -20.7-4.3-22.9-24.2-22.9-24.2 s 4.5,18.5,23.7,22.9,24-15.5,24-15.5 C 358.6,689.4,354.2,708,333.5,703.6Z" fill="param(accent_colour_2)"/>
    <path d="M 345.9,674.6 c 2.2,2.8,4.9,11.5-2.4,14.5 a 11.67,11.67,0,0,1-12.5-1.8 s 2.5,2.1,8.5,1.6 c 9.6-1.1,7.8-13.5,2.8-15.1 a 7,7,0,0,0-8.5,2.8 C 335,670.7,343,671,345.9,674.6Z" fill="param(accent_colour_2)"/>
    <path d="M 329.5,643.6 c -4-.3-6-6-6.2-12.8-.5,2.5-.2,13,6.2,14,5.8.9,7.2-5.5,4.8-7.5 s -5,1.2-5,1.2 C 335.3,635.2,335.3,644.1,329.5,643.6Z" fill="param(accent_colour_2)"/>
    <path d="M 296.8,627.6 a 92.53,92.53,0,0,0,10.4,38.5 s -5.2-11.1-8.4-30.9 c -4.2-26.4,9.5-40.1,9.5-40.1 S 295.8,605.4,296.8,627.6Z" fill="param(accent_colour_2)"/>
    <path d="M 289.5,667.9 c 4.6-39.8-7.2-76.5-7.2-76.5 C 286,610.2,291,641.2,289.5,667.9Z" fill="param(accent_colour_2)"/>
    <path d="M 262.8,672.6 c -1.8-20.9-20-11-20-11 C 250.5,656.1,263.8,656.1,262.8,672.6Z" fill="param(accent_colour_2)"/>
    <path d="M 241.1,675 c -3.9.2-11.1,5.5-6.9,11 s 16.5,5.4,23.5-1.4 c -9.1,10.2-21.2,7.1-25.2,2-3.8-4.9,4.9-15.2,11.1-13.4,6,1.8-.9,7.9-.9,7.9 C 246.3,677.1,243,674.9,241.1,675Z" fill="param(accent_colour_2)"/>
    <path d="M 240.1,704.9 c -15.2-1.5-22.5-11.1-22.1-20,.4-8.5,6.9-17.4,18-19.5-18.4,5.8-25.8,31.2,0,36.8,30.2,6.5,40.5-25.2,40.5-25.2 C 272.3,696.6,255.4,706.4,240.1,704.9Z" fill="param(accent_colour_2)"/>
    <path d="M 256.5,652.1 c 16.9-25.1-12.6-83.9-12.6-83.9 C 266.9,610.2,267,644.1,256.5,652.1Z" fill="param(accent_colour_2)"/>
    <path d="M 289.8,682.2 c -.5-4.9,6.5-4.4,6.5-4.4 a 7.17,7.17,0,0,0-5.2.2 c -3.1,1.4-3.6,6.6,0,8.5,4.8,2.5,9.2-2,9.2-2 C 293.5,688.9,290.1,685.5,289.8,682.2Z" fill="param(accent_colour_2)"/>
    <path d="M 223.4,657.2 c 26.6.8,26.6-30.8,26.6-30.8 C 245.3,651.6,235,655.6,223.4,657.2Z" fill="param(accent_colour_2)"/>
    <path d="M 230.5,635.9 c 19.2-10.8,2.1-47.9,2.1-47.9 C 243.4,620.7,237.1,628.5,230.5,635.9Z" fill="param(accent_colour_2)"/>
    <path d="M 216.9,587.1 c 2.5-1,7.1-7.1,1.2-13-5.3-5.3-12.8-1.4-16.8,4.1 s -1.9,15.1,5.6,19.6,17.6,2,23.5-5 c -1.2,2.8-8.8,10.5-18.5,8.2-16.5-4.5-16.5-18.2-10.6-25.2,6.4-7.6,15.9-7.8,20.4-.2 s -2.6,15.2-8.1,13.9 c -3.8-.9-3.4-5.4-3.4-5.4 C 211,588.1,214.4,588.1,216.9,587.1Z" fill="param(accent_colour_2)"/>
    <path d="M 247.9,465.2 c -19,10.2-26.2,25.4-27.9,42.4,5.8-34.4,35.1-44.1,50.8-51.2,19.3-8.8,22.5-18,22.5-18 C 287.3,448.6,267.8,454.5,247.9,465.2Z" fill="param(accent_colour_2)"/>
    <path d="M 246.8,447 c -19.5,10.5-28,30.8-26.5,41.8,3.8-28.8,22.3-40,49.7-48.8,17.6-5.7,24.1-12.4,24.1-12.4 C 275.6,439.9,266.2,436.5,246.8,447Z" fill="param(accent_colour_2)"/>
    <path d="M 221.1,442.7 c -11.8,18-13,43.2-8.6,60.9-2.5-16.2-3.1-51.2,20.9-71.4 s 57.3-9.3,57.3-9.3 C 259.3,410.9,232.8,424.7,221.1,442.7Z" fill="param(accent_colour_2)"/>
    <path d="M 237.9,403.7 c -24.5,8.3-36.9,33.7-39.2,65.2 a 111,111,0,0,0,21.5,74.7 c 13,17.1,19.7,36.9,22.7,53-.8-22.8-15.8-46-23-56.5 s -17.7-27.8-19.7-59.3 c -1.9-29.7,7-60.7,36.3-74.3,27.2-12.7,55.9,8,55.9,8 C 287,408.6,264.7,394.6,237.9,403.7Z" fill="param(accent_colour_2)"/>
    <path d="M 238.9,388.2 c -37.8,10.5-47.7,34.4-50.7,58.2,4.7-38.5,35-57.3,65-58.3 s 42.5,21.6,42.5,21.6 C 293.4,402.4,273.1,378.7,238.9,388.2Z" fill="param(accent_colour_2)"/>
    <path d="M 197.4,531.5 c 6,12.2,15.6,24.1,20.8,36.6-2-4.8-15.2-23.2-21-33.5-16.8-30.1-12.8-61-12.8-61 C 183.4,498.2,191.5,519.3,197.4,531.5Z" fill="param(accent_colour_2)"/>
    <path d="M 210.5,621.5 c -4.2,6.2-2.8,17,4.8,22 s 19.1,3.1,25-3.1 c -9.4,11.1-23.1,7.6-29.1,1-6.5-7.1-6.1-21.5,4.4-26.2 s 17.2,2.5,17.2,2.5 C 223.1,611.9,214.8,615.2,210.5,621.5Z" fill="param(accent_colour_2)"/>
  </g>
<script type="text/ecmascript" xlink:href="param.min.js"/> 
</svg>
