<?xml version="1.0"?>
<svg xmlns="http://www.w3.org/2000/svg" xmlns:xlink="http://www.w3.org/1999/xlink" viewBox="0 0 600 1032.4">
  <title>HS008</title>
  <g id="main-colour">
    <g id="main-colour-2" data-name="main-colour">
      <path d="M 189.79,544.73 a 15,15,0,0,0-10.88-.54 c -8.75,2.89-17.24,15.59-8.34,28.27,5.91,8.38,19.86,9.88,29.63,4.73,1.06,12.18-2.3,15-2.3,15 s -7.58-6.45-16.64-3.51 c -9.41,3.18-18.47,16.79-8.93,30.4,5.65,8.13,18.38,10.22,28.49,6.55 a 20.07,20.07,0,0,1-2.15,2.36,15.68,15.68,0,0,1-3.62,2.6,14.32,14.32,0,0,1-2.43,1.09,22.87,22.87,0,0,1-2.44.58 l -1.23.08 a 14.76,14.76,0,0,1-4.71-.34 c -.79-.14-1.46-.36-2.15-.49 a 26.51,26.51,0,0,1-5.85-2.48 c -.38-.17-.73-.44-1-.59 a 4.11,4.11,0,0,1-.81-.55 c 2.68,6.58,6.47,10.92,10.89,13.44 a 33.27,33.27,0,0,0-8.2,4.92 c -19.61,15.77,3.43,40.79,22.12,46.11,16.08,4.58,32.61-3.46,42.5-12.65,4.23,7,11.42,13.33,21.88,12.78 a 24.4,24.4,0,0,0,13-4.06 c 5.79,16.39,24.34,26.23,39.23,18.55,7.17-3.69,10.74-8.84,12.35-13.83,6.57,13.63,19.19,22.28,31.48,22.09,17.65-.27,37.12-17.41,31.89-35-3.4-11.43-16.45-14.24-21.3-13.28 a 43.17,43.17,0,0,1-5.66-9.76,34.27,34.27,0,0,1-2.52-10.82,34,34,0,0,0,11.73,5.37 c 19.31,4.49,29.92-9.85,26.24-22.71 s -20.3-15.34-26-10.78 c .06-9.34,6.57-17.31,8.72-19.67 l .63-.7 c 1-1,2.1-2.06,3.12-3.2,12.43,9,33.08,3.8,40.66-9,14.48-24.53-8.21-35.17-11.31-35.67,9.3-17.4,16-35.77,17-64.53-.7-57.1-31.55-94.69-71.05-101.19-44.4-7.3-63.6,21-63.6,21 h 0 c -19.5-29.9-66.41-32.09-100.66-2.93-23.46,20-31.41,37.25-31.62,75.66 S 189.79,544.73,189.79,544.73Z M 363.4,554.3 A 73.93,73.93,0,0,1,300.2,590 c -25.4,0-47.5-13-61.1-32.3-8.1-11.5-9.6-28.8-9.8-33.2-2.7-24.7,20.3-41.3,37.7-49.2 s 24.8-17,28.2-28.5 c 6.5,25.7,32.3,28,48,36.8,15.2,8.6,28.2,25.7,28,39.1 h .1 C 371.6,534.9,367.8,547.3,363.4,554.3Z" fill="param(main_colour)"/>
    </g>
  </g>
  <g id="accent-colour-1">
    <g id="accent-colour-1-2" data-name="accent-colour-1">
      <path d="M 405.84,578 c -7.6-2.2-6.59-19.73,2.41-38.23 s 16.8-41.3,11.2-70.8-24.8-68.5-55.8-75.8 c -36.9-8.6-59,8.2-63.5,20.5,7-8,27.3-18.9,49-16.2,24.8,3,45.2,22.5,57.8,58 s 4.2,64.8-4.3,83.3-11.31,40.53.09,45.53,21.8-8.2,17.8-16.5 c -4.5-9.2-11-5.5-11-5.5 C 422.54,563.86,417.24,581.16,405.84,578Z" fill="param(accent_colour_1)"/>
      <path d="M 327.65,463.63 c 9.8,3.7,23.3,5,39.5,23.5,15.9,18.2,13.8,45.3,3.2,63.7,19-45-15.7-71.3-40.3-79 s -31.3-28-31.3-28 C 302.65,451.83,317.45,459.93,327.65,463.63Z" fill="param(accent_colour_1)"/>
      <path d="M 350.15,419.53 c 18,7.8,31.8,23.2,40,57.7 s -8,70.56-17.1,91.13 c -13.7,31.07-13.6,49.58-11.4,57.38 s 11.5,19.8,23.2,16.8,8.5-11.5,6.8-13-7.5-3.8-8.5.8 c 4.2-3,10.2,4.2,3.2,7.5 s -23.8-6.5-19.8-30.5,31.7-81.21,33.7-104.51-8-65.3-37.7-85.3-62,2.5-62,2.5 C 315.75,413.53,332.15,411.73,350.15,419.53Z" fill="param(accent_colour_1)"/>
      <path d="M 360.25,447.83 c 12.2,11.8,21,30.6,24.5,51.8,1-11.5-2.7-43.3-28.2-64-24.1-19.5-58.2-8.5-57.5-8.5 C 327.85,427.43,350.35,438.33,360.25,447.83Z" fill="param(accent_colour_1)"/>
      <path d="M 340.85,447.43 c 11.5,4.2,24.8,15.5,29.8,31.2-4.5-7.8-20-21.2-38.8-26.2 s -31.8-18-31.8-18 C 312.85,442.43,329.35,443.23,340.85,447.43Z" fill="param(accent_colour_1)"/>
      <path d="M 333.35,671.35 c 5.14,11.17,14.11,29,29.28,28.34 s 14.64-12.5,11.15-16.93-11-4.44-12.67,1 c 8.57-7.06,16.21,12.31.48,9.22 s -27.46-27.76-27-59.58 c .35-27,32.84-59.11,32.84-59.11 C 315,607.31,328.3,660.21,333.35,671.35Z" fill="param(accent_colour_1)"/>
      <path d="M 353.25,669.08 c -22-37.31,3.75-69,3.75-69 C 344.61,624.14,348.17,654.89,353.25,669.08Z" fill="param(accent_colour_1)"/>
      <path d="M 306.5,623.68 c -5.48,10.16-7.73,24.8,1.09,27.68 s 10.61-10.41,5.7-11.34-6.41,1.64-5.39,5.9 c -7.35-5.25,6.05-20.23,13-5.48 s -21.2,28.77-23.22,1.73,31.52-49.52,31.52-49.52 C 324.12,597.69,312,613.52,306.5,623.68Z" fill="param(accent_colour_1)"/>
      <path d="M 290.3,687 c 6.39,10.36,24.1,12.41,25.9.79,1-8.15-2.36-15.39-12.23-15.61-8.18-.18-7.57,11.55-2.46,12.51 s 4.51-3.38.92-5.89 c 7.81-3.62,10.28,11.3.12,11.22-8.63-.1-11.17-8.84-10.76-12.12,1-6.42,6.94-14,20.34-8 s 10.58,31.3-8,31.57 S 276.73,684,277.51,660.39 c 1.34-35.16,15.67-55,15.67-55 C 277.18,647.6,283.91,676.66,290.3,687Z" fill="param(accent_colour_1)"/>
      <path d="M 182.07,556.34 c -2.5.8-5.5,4.8-.2,9.8 s 17.5-.2,16-12.2-6.87-20.11-14-39.24 c -5.29-14.13-10.32-27.83-5.68-54.14,4.8-27.25,17.41-54.82,53.91-66 s 56.2,6.8,62.2,18.5 c -12.8-13.8-34.2-21.8-60-12.5 S 193,434,186.65,468 c -2.86,15.19,1.31,35.77,7.59,53,5.69,15.58,13.53,29.31,9.73,40.11 s -14,15.5-23,10.5 c -8.2-4.6-7.5-16.2-.2-18.2 s 9.2,3.8,9.2,3.8 C 187.37,554.84,184.57,555.64,182.07,556.34Z" fill="param(accent_colour_1)"/>
      <path d="M 261.05,465.93 c -11.8,5.5-28.5,10.8-37.5,33.2 s -1.2,39,7.2,54 c -7.2-13.5-10.2-38.5-.5-54.5 s 26.8-24,41.5-31.5,19.2-23.8,19.2-23.8 C 285.55,456.43,272.85,460.43,261.05,465.93Z" fill="param(accent_colour_1)"/>
      <path d="M 253.85,413.93 c -27,3.5-42.8,27.8-46,58.2 s 13.2,65.8,13.2,65.8-14.7-17.5-17.7-47.3,2.5-68.5,35.8-79.5,54.5,8.5,54.5,8.5 S 280.85,410.43,253.85,413.93Z" fill="param(accent_colour_1)"/>
      <path d="M 242.35,441.93 c -23.2,15.5-28,48.5-27.5,69-6.5-31.5,0-62,24-78.8 s 55.5-6,55.5-6 C 285.85,425.73,265.55,426.43,242.35,441.93Z" fill="param(accent_colour_1)"/>
      <path d="M 255.25,447.73 c -25.2,8.5-33.5,29.5-35.2,46.5,8.2-26.2,32.2-36.5,48-42.8 a 55.41,55.41,0,0,0,24-18.8 C 285.55,438.93,280.55,439.23,255.25,447.73Z" fill="param(accent_colour_1)"/>
      <path d="M 193.86,617.26 c -9.11.83-13.41-7.11-10.74-13.22 s 12-5.37,12.16.26-4.89,4.37-9.2,1.32 c 2.68,8.44,9.21,7.84,12.43,3.16,3.53-5.24.47-14.36-9.76-14.05 s -15.41,11.54-9.57,21.09,29.08,10.37,34.75-8.91-4.66-34.66-4.66-34.66 C 217.51,606.77,203,616.44,193.86,617.26Z" fill="param(accent_colour_1)"/>
      <path d="M 227,652.66 c -9,19.67-22.12,25.54-34.5,20 s -6.3-16.25,2.55-20,16.27,1.14,12,7.46 a 9.41,9.41,0,0,1-1.59,1.94,9.51,9.51,0,0,1-13.38-.79 c .47,7.21,10.43,10.52,18.48,5.62 s 10.19-18.94-1.55-21.46-27.91,3.39-29.6,19.35,42.43,32.93,55.89-14.7-8.78-88.36-8.78-88.36 C 238.15,592.68,236.14,633,227,652.66Z" fill="param(accent_colour_1)"/>
      <path d="M 219.3,626.27 c -10.18,16.19-20.63,14.94-30.08,11.12,9.92,1.36,23.31-2.22,29-27.09 s -2-60.62-2-60.62 C 226.87,578,229.47,610.08,219.3,626.27Z" fill="param(accent_colour_1)"/>
      <path d="M 241.13,658.7 c 14.88-33,4-81.67,4-81.67 C 260.8,619.16,251.18,645.84,241.13,658.7Z" fill="param(accent_colour_1)"/>
      <path d="M 262.86,667.66 c -.66-3-6.52-4.28-10.1-.38 s .71,11.33,7,11.69 c 7.54.51,9.56-8.58,9.06-14.57 s -4.71-18.19-3.79-36.54,7.74-32.94,16.9-38.33 c -15.77,19.92-13,44.57-11.71,55.59 s 6.83,28.56-1.07,36.94 c -9.4,9.93-21.72.79-24-6.76 s 5.27-14.47,13.62-13.92,9.35,8.68,5.42,11.71-7.77-2-7.77-2 C 259.91,672.49,263.62,670.65,262.86,667.66Z" fill="param(accent_colour_1)"/>
      <path d="M 293,645 c 2.53-32.52,22.09-49.73,22.09-49.73 C 294.59,605.66,292.65,620.33,293,645Z" fill="param(accent_colour_1)"/>
    </g>
  </g>
  <g id="accent-colour-2">
    <path d="M 328.85,437.13 c 22.2,5.2,37,18.2,44.2,37-13.7-22.7-26.5-31.1-44.2-34.8-22.8-4.8-27.5-10.6-27.5-10.6 C 307.65,432.83,311.65,433.13,328.85,437.13Z m 18.7,26.6 c 25,10.7,35.1,34.5,33.1,50.8-2.3-39.3-37.3-50.8-56.1-57.3-19.5-6.8-24.9-16.7-24.9-16.7 C 311.55,452.93,322.55,453,347.55,463.73Z m 20.5-24 c 26,31,24.2,68.5,13.5,94.5,8.2-27.8,10.8-65.7-16.2-93.8-30.8-32-65.5-17.2-65.5-17.2 C 309.15,418.53,342.05,408.73,368.05,439.73Z m .8-28.3 c 14.3,10,27.3,24.2,37,60.5 s -7.8,67.6-13.5,80.3 c -6.2,14.2-14,37.89-19.24,53.21 s 3.48,27.65,8.78,27.95 c -5,.4-10.49-3.88-13-15.49 s 13.87-45.26,18.47-58.26,20.2-41.9,18.3-69.2-13.6-60.3-39.2-78-60.7.1-60.7.1 C 329.05,397.23,354.45,401.43,368.85,411.43Z M 346,384.83 c 24.7-.7,46.4,13.3,59.8,32.3,13.8,19.5,22,43.9,22,75,0,31.5-11,44.5-17.75,59.57-5.2,12.5-3.45,20.86-.85,20.06,5-1.5.1-6.2.1-6.2 a 5.32,5.32,0,0,1,4.2,5 c .3,4.3-4.5,5.2-8.2,2.3-6.3-6.3,4-23.13,14-48.43,11.3-28.6,5.8-65.8-9.2-94.8-17.7-34.2-47-42.8-63-42.5-35.8.2-46.8,21.3-46.8,21.3 C 304.65,397.83,321.35,385.53,346,384.83Z M 406.4,593.24 c -15-.8-17.7-12.6-15-21.2-2.2,17.6,15.9,24.7,27.5,12.6,17.2-18-6.4-27.8-5.5-27.5 C 441.7,566.44,421.4,593.94,406.4,593.24Z m -93,72.68 c -15-6-21.7,4-21.7,4 C 295.27,661.33,306.77,660.33,313.37,665.93Z M 300,706.83 c -20.7-4.3-22.9-24.2-22.9-24.2 s 4.5,18.5,23.7,22.9,24-15.5,24-15.5 C 325.07,692.63,320.67,711.23,300,706.83Z m 12.4-29 c 2.2,2.8,4.9,11.5-2.4,14.5 a 11.67,11.67,0,0,1-12.5-1.8 s 2.5,2.1,8.5,1.6 c 9.6-1.1,7.8-13.5,2.8-15.1 a 7,7,0,0,0-8.5,2.8 C 301.47,673.93,309.47,674.23,312.37,677.83Z M 189.91,563.16 c 2.5-1,7.1-7.1,1.2-13-5.3-5.3-12.8-1.4-16.8,4.1 s -1.9,15.1,5.6,19.6,17.6,2,23.5-5 c -1.2,2.8-8.8,10.5-18.5,8.2-16.5-4.5-16.5-18.2-10.6-25.2,6.4-7.6,15.9-7.8,20.4-.2 s -2.6,15.2-8.1,13.9 c -3.8-.9-3.4-5.4-3.4-5.4 C 184,564.16,187.41,564.16,189.91,563.16Z M 247,465 c -19,10.2-26.2,25.4-27.9,42.4,5.8-34.4,35.1-44.1,50.8-51.2,19.3-8.8,22.5-18,22.5-18 C 286.35,448.43,266.85,454.33,247,465Z m -1.1-18.2 c -19.5,10.5-28,30.8-26.5,41.8,3.8-28.8,22.3-40,49.7-48.8,17.6-5.7,24.1-12.4,24.1-12.4 C 274.65,439.73,265.25,436.33,245.85,446.83Z m -25.7-4.3 c -11.8,18-13,43.2-8.6,60.9-2.5-16.2-3.1-51.2,20.9-71.4 s 57.3-9.3,57.3-9.3 C 258.35,410.73,231.85,424.53,220.15,442.53Z m 16.8-39 c -24.5,8.3-39.46,33.43-41.76,64.93-2.1,26.7,14.88,61.12,20.6,73.19,10,21.06,11.52,48.4,14.52,64.5-.8-22.8-3.73-44.45-11.29-62-5-11.7-17.78-32-19.78-63.49-1.9-29.7,7-60.7,36.3-74.3,27.2-12.7,55.9,8,55.9,8 C 286.05,408.43,263.75,394.43,237,403.53Z m -.52-16.31 c -37.8,10.5-55.09,30.23-59.87,61.2,9.5-36.57,45.69-59.49,75.69-60.49 s 42.5,21.6,42.5,21.6 C 292.45,402.23,270.63,377.73,236.43,387.23Z M 176.71,599.89 c -3.83,5.66-2,16.79,4.91,21.38,7.35,4.87,21.05,3.55,26.43-2.11-8.58,10.13-26.86,6.43-32.05-.57-5.93-6.48-4.22-20.15,5.36-24.44 s 15.69,2.28,15.69,2.28 C 188.21,591.13,180.63,594.14,176.71,599.89Z m 80.08-17.16 s 8.33,46.82-10,77.78 C 262.36,643.28,266.39,605.07,256.79,582.73Z m -21.36-13.24 s 26,83.1-18.93,113.1 C 238.54,670.9,258.57,632.12,235.43,569.49Z m 51.42,27 s -14.79,13.35-12.36,54 C 275.72,627,277.22,612.73,286.86,596.49Z M 323.07,633 c 1.06-36.71,40.25-67,40.25-67 C 328.35,589.6,320.28,614.24,323.07,633Z M 358,707.53 c 15,3,26.39-9.56,23.21-20.28-1,7.61-8.26,21.9-27.71,15.08 s -29.2-41.7-29.2-41.7 C 325.51,688.27,342.95,704.54,358,707.53Z m -3.29-86.89 s -5.21,35.3,8.85,49.62 C 356.24,654.08,354.69,620.64,354.69,620.64Z m -10.41-6.24 s -16.95,48.12,14.13,71.54 C 344.78,667.29,339.35,655.84,344.29,614.41Z m -123.92,31 c 8.22-12.09,9-27.86,9-27.86 S 223.47,635.41,220.36,645.36Z M 186.07,644 S 164,654,178,674.44 C 174.35,660.6,174.48,652.16,186.07,644Z m 31.18-63.55 c .87-22.19-8.25-37.67-8.25-37.67 S 214.15,565.4,217.24,580.5Z m 73.89,80 c -8.23-22.44,8.68-60.75,8.68-60.75 C 286.59,619.13,284.64,645.52,291.13,660.54Z M 244.27,669 c 4.4-11.59,15-10,15-10 C 250.62,656.11,244.48,662.13,244.27,669Z m 73.12-55.64 s -8.11,5.68-11,20.39 A 159.14,159.14,0,0,1,317.39,613.39Z M 171.24,463.23 s -7,35.31,16.74,72.76 C 177.27,512.52,171.56,490.19,171.24,463.23Z M 190,486.34 s 5.42,35.48,18.75,52 C 201.43,522.37,190,486.34,190,486.34Z m 7.08,173.87 s 7.7,2.37,8.75-3.53 S 194.76,652.35,190,660 c 6.24-4.65,10.14-5.66,13-4.48 S 201.69,661,197.1,660.21Z" fill="param(accent_colour_2)"/>
  </g>
<script type="text/ecmascript" xlink:href="param.min.js"/> 
</svg>
