<?xml version="1.0"?>
<svg xmlns="http://www.w3.org/2000/svg" xmlns:xlink="http://www.w3.org/1999/xlink" id="Layer_1" data-name="Layer 1" viewBox="0 0 600 1032.4">
  <title>HS004</title>
  <g id="main-colour">
    <path d="M 361.9,370.1 c -6.3-2.2-17.3-1.3-21.3,5.7-1.5-7.1-9.7-10.3-14.7-10.3 s -11.3,2.3-13.3,8.3 c -1-3.2-5.3-9.5-15.1-9.7-6.8-.1-15,4.1-16.2,10.4 a 10.54,10.54,0,0,0-10.4-7.5 c -4.7,0-10.7,2.8-12,9.2-3.3-3.7-12.1-8.9-23.8-4.3 s -14.5,14.6-13.2,21.6 c -4-1.3-9.6-2.6-14.3,2.4-5.1,5.4-1.7,13.3-1.7,13.3 s -12.9-1.5-20,9.7 c -6.4,10.1-5,21.3,0,27.3-4.3.3-9.1,3.3-10.7,7.8-1.8,5.3,0,10.8,5,13.5-4.4,1.8-11.5,9.6-11.9,21-.5,14.6,8,22.1,16.5,25.3-3.1,3.4-4.1,9.8-1.4,15.2 a 13.35,13.35,0,0,0,14.1,7.5 c -1.7,2-5,12,1.2,19.2 a 18.45,18.45,0,0,0,21.8,4.4 c -2.6,6.1,2.3,13.5,7.5,14.6 a 16.25,16.25,0,0,0,9.5-.9,11.07,11.07,0,0,0,6.7,10 c 7,3.3,16.2.8,21.2-2.5-35.3-22-37.4-55-35.9-71.9,11.6-8.7,5.7-23,5.7-23 a 15.8,15.8,0,0,0,6.1-.8 c 12.7-4.7,11.9-14.2,11.9-14.2 a 9,9,0,0,0,7.8,1.5 c 2.9-.9,6.8-4,7.5-7.2,2.3,3,9.5,5.2,16,3.8,6.8-1.5,12-6.5,13-10.4 a 9.78,9.78,0,0,0,8.7,7.7 c 5.1.4,9.7-4,9.7-4 a 12,12,0,0,0,7.3,8.2 c 3.9,1.6,10.7,1.4,14-1.5,1.5,7.5,10.3,9.4,15.3,7 a 13.47,13.47,0,0,0,14,16.7 c -3.2,4.7-2.7,9.6-.3,14.3,2.7,5.4,6.3,4.3,3.7,25.3-4,32-33.7,47.7-33.7,47.7 s 2.5,2.1,5.7-.3 c 1,2.3,6.8,6.4,12.5,5.7 a 15.51,15.51,0,0,0,13.2-12.4,10.59,10.59,0,0,0,11.3,1.4 c 4.7-2.3,7.9-6.9,6.7-11.7 a 17.61,17.61,0,0,0,19.3-3.3 c 6.7-6.3,6-14.3,4.7-19.7,13,0,18.9-15,14-25.7,10.8-1.6,12.2-16.1,4.3-21,7.2-1.9,14.7-9,14-20.7 s -7.5-18.4-15.3-19.3 c 9.2-11.8-.3-27-13.3-26.3,5.4-7.3-1-17.7-9.3-15.3 a 14.46,14.46,0,0,0,.9-2.2 A 19.45,19.45,0,0,0,393,385 c -8.6-3.2-18,1.5-18,1.5 C 374.9,378.4,368.6,372.4,361.9,370.1Z" fill="param(main_colour)"/>
  </g>
  <g id="accent-colour-1">
    <path d="M 394,408.1 c -3.8,7-14.5,7-15.5-.5 s 7-8.2,11.2-6 c -4-7.2-14.5-4.2-16,2 s 4,15,14.5,14,16.8-13.2,8-23-21.2-1.8-21.2-1.8 C 390.8,389.4,398.3,400,394,408.1Z" fill="param(accent_colour_1)"/>
    <path d="M 345.9,411.5 c 8.1-3.6,17.6,3.8,13.3,11.1 s -11.8,2.5-14-2.4 c -1.5,9.1,9.9,13.7,15.5,9.2 s 6.8-16-3.2-22.3-23.9.2-22.9,14.8 S 352.2,438,352.2,438 C 335.9,430.3,336.5,415.7,345.9,411.5Z" fill="param(accent_colour_1)"/>
    <path d="M 413.7,517.6 c 2.2,4.9-2.3,10.7-6.7,8.1 s -1.5-7.2,1.5-8.5 c -5.6-.9-8.3,6-5.6,9.4 s 9.7,4,13.5-2-.1-14.5-9-13.8-9.8,10.7-9.8,10.7 C 402.3,511.5,411.1,511.9,413.7,517.6Z" fill="param(accent_colour_1)"/>
    <path d="M 217.7,429.6 c 3.6,8-3.7,17.3-10.9,13.1 s -2.5-11.7,2.4-13.8 c -9-1.4-13.5,9.7-9,15.3 s 15.8,6.6,22-3.2-.2-23.5-14.6-22.4-15.9,17.3-15.9,17.3 C 199.3,419.8,213.7,420.4,217.7,429.6Z" fill="param(accent_colour_1)"/>
    <path d="M 190.4,484.5 c 8.4-2,16.1,6.7,10.7,12.9 s -11.7.3-13-4.8 c -3,8.5,7,14.8,13.1,11.5 s 9.3-14,.9-21.8-22.8-4.1-24.4,10,13.9,18.5,13.9,18.5 C 177.5,500.6,180.7,486.8,190.4,484.5Z" fill="param(accent_colour_1)"/>
    <path d="M 361,463 c -.7-8.6,9.1-15,14.4-8.8 s -1.5,11.7-6.7,12.2 c 8,4.2,15.8-4.8,13.4-11.4 s -12.6-11.3-21.6-4.1-7.4,22,6.4,25.8,20.4-11,20.4-11 C 375.2,478.2,361.9,473,361,463Z" fill="param(accent_colour_1)"/>
    <path d="M 266.2,424.9 c 1.2,7.9-7.5,14.5-12.9,9 s .6-10.9,5.5-11.7 c -7.7-3.4-14.3,5.4-11.7,11.4 s 12.4,9.7,20.3,2.5,5.5-20.9-7.5-23.5-18.3,11.5-18.3,11.5 C 252.1,411.7,264.8,415.7,266.2,424.9Z" fill="param(accent_colour_1)"/>
    <path d="M 307.6,420.5 c 6.6,2.5,7.9,12.1,1.3,13.8 s -8.1-5.3-6.6-9.3 c -6,4.4-2.1,13.4,3.6,14 s 12.9-5.2,10.8-14.4-13.6-13.4-21.3-4.5.8,19,.8,19 C 291.4,425.5,300,417.6,307.6,420.5Z" fill="param(accent_colour_1)"/>
    <path d="M 195.5,454.9 c 4,2.3,3.9,8.6-.6,9.1 s -4.7-4.2-3.3-6.7 c -4.3,2.2-2.8,8.4.9,9.4 s 8.9-2.1,8.5-8.3-7.5-10-13.4-5.1-1.4,12.4-1.4,12.4 C 184.4,456.5,190.8,452.2,195.5,454.9Z" fill="param(accent_colour_1)"/>
    <path d="M 220.2,517.3 c -1,4.2-6.7,5.8-8.3,2 s 2.5-5.4,5.1-4.8 c -3.2-3.3-8.3-.1-8.2,3.4 s 4.3,7.4,9.7,5.3,6.9-9.5.9-13.4-11.5,2.2-11.5,2.2 C 215.8,507.8,221.3,512.4,220.2,517.3Z" fill="param(accent_colour_1)"/>
    <path d="M 360.9,380.5 c 2.8,3.4.6,8.9-3.5,7.8 s -2.7-5.3-.7-7 c -4.5.6-5.2,6.5-2.3,8.6 s 8.4,1.1,10.1-4.5-3.2-11.3-10-8.9-5.3,10.5-5.3,10.5 C 350.7,378.3,357.7,376.6,360.9,380.5Z" fill="param(accent_colour_1)"/>
    <path d="M 381.6,427.3 c 4.1-3.6,10.9-1,9.7,4 s -6.4,3.5-8.6,1.1 c .8,5.6,8.2,6.2,10.6,2.6 s 1.1-10.5-5.8-12.3-13.8,4.4-10.6,12.6,13,6.2,13,6.2 C 379.1,439.9,376.8,431.4,381.6,427.3Z" fill="param(accent_colour_1)"/>
    <path d="M 368,561.1 c 2.6-2.3,7.1-.6,6.3,2.6 s -4.2,2.3-5.6.7 c .5,3.7,5.3,4,6.9,1.7 s .7-6.8-3.8-8.1-9,2.9-6.9,8.3,8.5,4.1,8.5,4.1 C 366.4,569.4,364.9,563.8,368,561.1Z" fill="param(accent_colour_1)"/>
    <path d="M 229.7,565.6 c -2.8-2.1-2-6.8,1.3-6.7 s 3.1,3.7,1.8,5.3 c 3.5-1.2,2.9-6,.3-7.1 s -6.9.7-7.2,5.3,4.6,8.3,9.5,5.2,2.3-9.2,2.3-9.2 C 238.1,565.5,232.9,568.1,229.7,565.6Z" fill="param(accent_colour_1)"/>
    <path d="M 245.8,381.7 c 7.8,1.4,11.1,11.6,4.3,14.9 s -10-4.1-9.2-8.8 c -5.6,6,.5,15.1,6.9,14.6 s 13-8.5,8.8-18.1-17.8-11.8-24.4-.5,4.9,20.7,4.9,20.7 C 229,390.6,236.8,380.1,245.8,381.7Z" fill="param(accent_colour_1)"/>
    <path d="M 224.2,459.7 c 6.4-4.1,15.5.9,12.8,7.7 s -9.8,3.7-12.3-.2 c 0,8,10.2,10.4,14.4,5.8 s 3.7-14.5-5.6-18.6 S 213.2,457.7,216,470 s 17.1,11.5,17.1,11.5 C 218.1,477,216.7,464.5,224.2,459.7Z" fill="param(accent_colour_1)"/>
    <path d="M 210.2,536.3 c 6.3-4,15.1.9,12.5,7.5 s -9.5,3.6-11.9-.2 c 0,7.8,9.9,10.1,14,5.7 s 3.5-14.1-5.5-18.1-19.7,3.2-17,15.2,16.6,11.1,16.6,11.1 C 204.3,553.1,203,541,210.2,536.3Z" fill="param(accent_colour_1)"/>
    <path d="M 394.1,538.5 c 6.6,2.6,7.8,12.1,1.3,13.8 s -8.1-5.3-6.6-9.3 c -6,4.3-2.2,13.3,3.5,14 s 12.9-5.2,10.8-14.4-13.6-13.4-21.2-4.5.8,19,.8,19 C 377.9,543.5,386.5,535.6,394.1,538.5Z" fill="param(accent_colour_1)"/>
    <path d="M 383.8,489.9 c 6.6-1.8,13,5,8.8,10.1 s -9.3.4-10.4-3.6 c -2.2,6.8,5.9,11.7,10.7,8.9 s 7.1-11.4.3-17.4-18.2-2.8-19.2,8.5,11.4,14.4,11.4,14.4 C 373.9,502.9,376.2,491.9,383.8,489.9Z" fill="param(accent_colour_1)"/>
    <path d="M 334.6,448.5 c 5.5,3.6,4.8,12.5-1.5,12.9 s -6.4-6.4-4.2-9.8 c -6.3,2.8-4.5,11.8.6,13.4 s 12.7-2.3,12.6-11.1-9.9-14.8-18.6-8.2-2.9,17.5-2.9,17.5 C 318.8,450,328.2,444.4,334.6,448.5Z" fill="param(accent_colour_1)"/>
    <path d="M 418.9,440.9 c -2.3-5.2-10.8-6.7-13.1-.2 s 5.5,8.8,7,5.1-3.1-5.9-3.1-5.9 a 4.88,4.88,0,0,1,6,2.7,6.38,6.38,0,0,1-.5,6.4,6.46,6.46,0,0,1-9,1.8 c -5.6-3.8-4-12.7-.2-15.2.1-.1.2-.1.3-.2 a 10.6,10.6,0,0,1,14.5,3.7 c 3.8,6.3-1.7,12.9-1.7,12.9 S 421.2,446.1,418.9,440.9Z" fill="param(accent_colour_1)"/>
    <path d="M 428.8,472.9 c -2.8-6.4-13.3-8.2-16.1-.3 s 6.8,10.8,8.6,6.2-3.8-7.3-3.8-7.3 a 6,6,0,0,1,7.3,3.3 c 3.3,7.1-4.8,14.6-11.7,10 s -4.9-15.6-.3-18.7 a .52.52,0,0,1,.4-.2,12.93,12.93,0,0,1,17.8,4.6 c 4.7,7.7-2,15.9-2,15.9 S 431.6,479.4,428.8,472.9Z" fill="param(accent_colour_1)"/>
    <path d="M 292.7,400.4 c 6.6-2,9.7-12.1,2.2-15.9 s -11.5,5.4-7.2,7.7,7.6-2.8,7.6-2.8 a 5.89,5.89,0,0,1-4.2,6.8 c -7.4,2.4-13.8-6.5-8.4-12.7 s 16-2.9,18.4,2 c .1.1.1.2.2.4 a 12.87,12.87,0,0,1-6.6,17 c -8.1,3.6-15.4-3.9-15.4-3.9 S 286.1,402.4,292.7,400.4Z" fill="param(accent_colour_1)"/>
    <path d="M 281.1,460.2 c 5.7-1.7,8.2-10.4,1.9-13.5 s -9.8,4.6-6.1,6.6,6.5-2.4,6.5-2.4 a 5.06,5.06,0,0,1-3.5,5.8 c -6.3,2.1-11.8-5.6-7.2-10.9 s 13.6-2.5,15.7,1.7 c .1.1.1.2.2.4 a 11,11,0,0,1-5.7,14.5 c -6.9,3.1-13.1-3.4-13.1-3.4 S 275.5,461.9,281.1,460.2Z" fill="param(accent_colour_1)"/>
    <path d="M 320.1,381.3 c -3.1,3.3-3.8,11.6,2.6,13.6 s 9.4-4.9,5.9-8 c -2.9-2.6-6.2.8-5.2,4.2-5.3-1.7-1.7-9.3,2.7-9.3,6.9,0,12.7,10.7,3.7,16 s -16.7-4.3-15-12,11.8-14.8,19.8-8.8,4.2,15.5,4.2,15.5 C 336.5,372.7,323.5,377.7,320.1,381.3Z" fill="param(accent_colour_1)"/>
  </g>
  <g id="accent-colour-2">
    <path d="M 410,445.4 a 3.75,3.75,0,0,1-2.5-4.7 c .6-1.6,2.7-3.1,5.7-2.4,1.9.4,5.3,4.3,4.2,9.3 s -6.6,7.6-11.6,4.9 c -5.5-2.9-4.7-11.2-3.9-14-1.8,2.1-1.6,7.8.5,11.8,2.9,5.3,12.5,5.2,14.9.3,3.9-8-1.4-13-4.5-13.4 s -7.1,1.6-6.2,5.6 c .7,3.4,3.6,2.6,3.6,2.6 S 410.1,445.5,410,445.4Z" fill="param(accent_colour_2)"/>
    <path d="M 382.1,409.3 c 2.4,3,7.2.9,9-2 s -.2-8.9-5.5-10.9 l -.9-.3 a 9.93,9.93,0,0,0-12.2,6.8 c -1.6,5.7.2,10.1,6.4,14.1-5.7-1.4-9.5-9.1-7.3-15 s 5.7-7.5,11.4-7.4,10.4,4.5,10,10.2 c -.4,6.2-6.1,7.6-9.4,6.9 s -5-5.5-2.8-7.8,5.6-1.2,5.6-1.2 C 381.9,402.8,379.4,405.8,382.1,409.3Z" fill="param(accent_colour_2)"/>
    <path d="M 400.4,393.7 c -7-11.1-20.1-7.8-25.2-2.7,8-5.2,21.4-4.7,25.4,6.6 s -3.5,17.8-3.5,17.8 C 400.8,414.3,406.8,403.7,400.4,393.7Z" fill="param(accent_colour_2)"/>
    <path d="M 356.9,418.2 c -.4-2.6-5.1-5.9-8.6-4.5-6,2.5-7.1,9.2-3.8,14.5 S 357,435,362,430.5 s 4.5-12.3,3.3-16.4 c 3.2,6.3,1.7,15.2-4.5,18.5-5.8,3.1-10.7,2.6-15.5-1.6-4.3-3.7-5.9-11.3-.8-16.1 s 9.9-2.2,12.4.7,1.1,7.6-2.5,8.1 a 5.83,5.83,0,0,1-5.5-2.2 C 352.9,424.5,357.7,422.6,356.9,418.2Z" fill="param(accent_colour_2)"/>
    <path d="M 331.2,420.7 c .1,14.6,11.8,19.2,19.6,18.9-12.4-.8-21.8-11.3-17.6-24 s 15-12.6,15-12.6 C 344.1,401.4,331.1,407.8,331.2,420.7Z" fill="param(accent_colour_2)"/>
    <path d="M 406.8,521.1 a 2.83,2.83,0,0,0,2.6,3.1 c 1.6,0,3.6-2.8,2.5-5.6-.8-2.1-4.6-3.9-7.8-1.9 s -4.5,7.6-1.8,10.6,7.3,2.8,9.8,2 c -3.6,1.7-8.5,1.3-10.7-2.3 a 8.12,8.12,0,0,1,.4-9.4 c 2.5-2.9,6.8-4,9.7-.9 s 1.3,6-.4,7.6 a 3.13,3.13,0,0,1-1,.5,3.07,3.07,0,0,1-3.7-2.1,3.28,3.28,0,0,1,1.2-3.3 A 3.81,3.81,0,0,0,406.8,521.1Z" fill="param(accent_colour_2)"/>
    <path d="M 408,508.4 c -7.5.1-11.5,7.5-11.3,12.2.9-6.1,6.5-13.5,14.2-11 a 11,11,0,0,1,8,9.4 C 419.8,516.5,415.9,508.2,408,508.4Z" fill="param(accent_colour_2)"/>
    <path d="M 210,440 c 2.6-.1,6.8-4.4,4.5-9.2-1.6-3.3-7-5.9-12.2-2.7 s -7.4,11.9-3.2,16.9 c 5.1,6.2,12.2,4.9,16.3,3.7-6.8,3.2-13.8,2.1-17.5-3.8 a 13,13,0,0,1,.7-14.8 c 3.7-5,10.8-6.4,15-2.4,5,4.7,2.5,9.7-.4,12.1 s -6.8,1.1-7.3-2.4 a 4.57,4.57,0,0,1,2.1-4.9 C 205,436.5,207.4,440.1,210,440Z" fill="param(accent_colour_2)"/>
    <path d="M 208.8,415.2 c -14.4.1-18.8,13.8-18.6,19.3,1.4-9.9,9.2-21.6,23.6-17.4,12.6,3.6,12.5,14.8,12.5,14.8 C 227.7,426.7,221.6,415.1,208.8,415.2Z" fill="param(accent_colour_2)"/>
    <path d="M 199.7,493.8 c .4-2.6-3.2-7.2-8.3-6-3.5.8-7.3,5.2-4.7,11.9 a 10.77,10.77,0,0,0,15.2,5.2 c 5.5-3.3,6.9-10.4,6.5-14.6,1.6,4-.8,13.1-7,15.8-5.2,2.2-10.3,1.2-13.6-2.5-4.1-4.5-4.2-12.5.3-15.4,5.7-3.6,10.3-1.2,12.2,2 s -.1,7.6-3.6,7.5 a 6.12,6.12,0,0,1-5.1-3.2 C 194.7,498.1,199.1,497.5,199.7,493.8Z" fill="param(accent_colour_2)"/>
    <path d="M 174.8,490.4 c -2.5,13.9,9,20.8,15.2,21.6-9.3-3.2-19-13-12.8-25.6,5.7-11.6,16.8-9.7,16.8-9.7 C 189.4,475.1,177,478.1,174.8,490.4Z" fill="param(accent_colour_2)"/>
    <path d="M 371.3,456.3 c -2.3-1.1-7.5.8-7.5,4.4.1,4.6,5.2,10.2,11.2,8.9 s 10.9-9.6,8.4-15.6-10-8.8-13.9-8 c .2,0,.3-.1.5-.1 a 12.75,12.75,0,0,1,15,10 c .9,5.5-1.2,10.3-6.4,13.6 s -12,1.4-14.9-4.8,1.9-9.4,4.3-9.7 c 3.6-.5,6.7,1.6,6.6,4.2 a 4.69,4.69,0,0,1-3.5,4.3 C 375.2,460.7,374.1,457.6,371.3,456.3Z" fill="param(accent_colour_2)"/>
    <path d="M 365,480 c 13.6,3.8,21.1-7,23.4-12.6-4.5,8.8-17.1,17-27.4,9.1 s -7.1-18.3-7.1-18.3 C 351.1,461.5,352.9,476.7,365,480Z" fill="param(accent_colour_2)"/>
    <path d="M 258.7,432.4 c 2.4-.1,4.6-3.1,4.3-6.5 s -4.8-7.6-10.2-6-9.4,9.5-6.6,14.8 c 3.5,6.6,9.3,6.6,13.2,6.5-5.2,2-13-1.2-14.7-7.4-1.5-5.6.4-9.6,4.7-13,4.5-3.5,10.9-3,14,2.5 s -.6,9.5-3.7,10.2 c -3.4.8-6.3-1.4-5.9-4.7 a 4.18,4.18,0,0,1,3-3.8 C 253.1,427.9,254.7,432.6,258.7,432.4Z" fill="param(accent_colour_2)"/>
    <path d="M 261.8,409.7 c -11.9-3.2-19.7,5.9-21.2,12.8,3.4-10.2,15.1-16.6,25.2-9.9 s 7.4,16.4,7.4,16.4 C 275.5,425.7,273.1,412.7,261.8,409.7Z" fill="param(accent_colour_2)"/>
    <path d="M 309.3,431.3 c 1.5-1.5.8-6.3-2.1-7.9 a 7,7,0,0,0-1.9-.6,7.07,7.07,0,0,0-7.9,6 c -1,4.9,3.3,11.3,8.6,11.6,6.8.3,9.5-4.4,11.1-7.4-.7,5.8-7,9.4-12.5,8.1 s -7.8-4.7-8.3-9.8,2.4-9.9,8-9.8,7,4.5,6.8,7.6-3.3,5-5.6,3.2 a 5,5,0,0,1-1.9-4.5 C 304.2,431.9,307.9,432.8,309.3,431.3Z" fill="param(accent_colour_2)"/>
    <path d="M 293.5,417.1 c -8.2,8.3-3.5,17.8,1.1,22.1-6.4-6.6-6.7-18.8,2.9-23.6 a 14.72,14.72,0,0,1,16.4,1.5 C 312.3,413.8,300.8,409.7,293.5,417.1Z" fill="param(accent_colour_2)"/>
    <path d="M 195.5,462 c .1-.2.3-.3.4-.5 a 3.42,3.42,0,0,0-1-4.8 c -.1,0-.1-.1-.2-.1 a 5,5,0,0,0-6.5,2.6 c -.1.2-.2.5-.3.7 a 6.31,6.31,0,0,0,4.4,7.8 c 3.4.9,6.5-2,7.9-3.8-2.1,3.8-5.7,5.2-9.1,4 a 6.4,6.4,0,0,1-4.1-6.8 c .2-3.3,3.1-6.2,6.2-5.7,3.6.6,4.3,3.1,3.9,5.1 s -2.9,3.4-4.2,2 a 3.59,3.59,0,0,1-.8-3.3 C 192.1,461.9,194,463.1,195.5,462Z" fill="param(accent_colour_2)"/>
    <path d="M 186.7,451.3 c -6.2,4.6-3.4,12.3-1.6,14.4-2.5-4.8-2.5-12.9,4.2-15 a 10,10,0,0,1,10.5,2.5 C 199.2,451,192.1,447.2,186.7,451.3Z" fill="param(accent_colour_2)"/>
    <path d="M 214,519.1 c 1.1.8,3.8-.5,4.4-2.2 s -1-4.4-4.1-4.7-6.5,2.5-6.2,5.8 a 6.62,6.62,0,0,0,5.4,6.2,6.37,6.37,0,0,1-1.1-12.6 c .3-.1.5-.1.8-.2 a 5.31,5.31,0,0,1,6.1,4.4 c .3,2.6-2.1,4.3-4,4.4 s -3.5-1.6-2.6-3.2 a 3.32,3.32,0,0,1,2.8-1.5 C 213,516.2,212.9,518.4,214,519.1Z" fill="param(accent_colour_2)"/>
    <path d="M 221.3,508.6 c -5.8-4.3-11.4-.8-13.6,2.4,3.8-4.5,11-5.3,14.8.1 s .4,9.6.4,9.6 C 224.8,519.6,226.5,512.5,221.3,508.6Z" fill="param(accent_colour_2)"/>
    <path d="M 358.8,386.7 c 1.9-.6,2.2-3.5,1.1-5-.2-.2-.3-.4-.5-.5 a 4.7,4.7,0,0,0-6.5.5 c -.2.3-.4.5-.6.8 a 6.14,6.14,0,0,0,1.9,8.5 c 2.7,1.9,6.2.1,8-1-2.6,2.5-6.8,3.1-9.3.5 a 6.75,6.75,0,0,1-1.6-7.6 c 1.1-2.9,4.7-4.8,7.7-3 a 2.19,2.19,0,0,1,.5.3,4.2,4.2,0,0,1,.9,5.9,1.76,1.76,0,0,1-.9.8,2.33,2.33,0,0,1-3.2-1,3.3,3.3,0,0,1,.2-2.9 C 355.7,385.6,357.6,387.1,358.8,386.7Z" fill="param(accent_colour_2)"/>
    <path d="M 354.5,374.7 c -6.9,2.2-6.8,8.8-6.2,11.9-.6-5,2.3-12,8.8-11.6 a 8.78,8.78,0,0,1,8.2,5.6 C 365.5,378.3,360.6,372.7,354.5,374.7Z" fill="param(accent_colour_2)"/>
    <path d="M 389,429.5 c -.8-2-4-2.2-5.8-.8 s -2.6,5.5.3,8,8.5,2.1,10.5-1.3.5-7.9-1-10.1 c 2.4,1.7,3.9,7.8,1.1,11 s -5.9,3.8-9.5,2.4 c -.3-.1-.6-.3-.9-.4 a 6.48,6.48,0,0,1-2.4-9,5.32,5.32,0,0,1,7-1.6,2.91,2.91,0,0,1,1.1,1.1,2.83,2.83,0,0,1-1.1,3.9,3.2,3.2,0,0,1-3.4-.1 C 387.9,433.5,389.7,431,389,429.5Z" fill="param(accent_colour_2)"/>
    <path d="M 374.6,435.3 c 2.5,8.5,10.9,8.3,14.8,7.3-6.1,1-14.5-1.7-14.6-10.8-.1-8.1,6.6-9.9,6.6-9.9 C 378.7,421.7,372.1,427,374.6,435.3Z" fill="param(accent_colour_2)"/>
    <path d="M 371.5,564.7 a 1.85,1.85,0,0,0,1.3-2.3 c -.8-1.7-2.5-1.3-3.7-.4 l -.3.3 a 3.79,3.79,0,0,0,.5,5.3 l .1.1 a 4.83,4.83,0,0,0,6.8-1.1 c 1.4-2.2.3-5.3-.7-6.7 a 5.78,5.78,0,0,1,.6,7.5,5.28,5.28,0,0,1-6.1,1.5 c -.2-.1-.3-.1-.5-.2 a 4.41,4.41,0,0,1-1.7-6,2.19,2.19,0,0,1,.3-.5,3.19,3.19,0,0,1,4.5-.7,2.07,2.07,0,0,1-2.5,3.3 C 370.7,564.7,371.1,564.8,371.5,564.7Z" fill="param(accent_colour_2)"/>
    <path d="M 363.5,566.3 c 1.8,5.5,7.3,5.5,9.6,4.8-4.4.7-9.5-1.8-9.4-7.1 s 4.2-6.4,4.2-6.4 C 366.1,557.5,362,561.4,363.5,566.3Z" fill="param(accent_colour_2)"/>
    <path d="M 230.5,560.4 c -.9.5-2.1,2.2-.1,4,1.5,1.3,3.9.5,5.2-1.7,0-.1.1-.1.1-.2 a 4.74,4.74,0,0,0-2.5-6.2,5.36,5.36,0,0,0-6.2,2,5.46,5.46,0,0,1,7.4-2.3 c 2.5,1.4,2.9,3.4,2.5,5.9 a .37.37,0,0,1-.1.3,4.63,4.63,0,0,1-5.7,3.3 c -2.6-.8-2.5-3.1-2-4.5 s 2.6-2.1,3.5-.9 a 2.49,2.49,0,0,1,.1,2.5 C 232.9,560.7,231.4,560,230.5,560.4Z" fill="param(accent_colour_2)"/>
    <path d="M 235.6,569.6 c .1-.1.2-.1.3-.2 a 7.9,7.9,0,0,0,2.7-10.8 c 1.4,3.8.4,9.8-4.8,10.8 a 7.17,7.17,0,0,1-7.5-3 C 226.5,568.1,231,572.1,235.6,569.6Z" fill="param(accent_colour_2)"/>
    <path d="M 250.2,393.1 c 1.3-2-.8-7.5-4-8.3 s -9.2.3-9.5,7.4 c -.3,5.6,4.2,12,11.4,11.3,5.9-.5,9.6-6.5,10.7-10.2-1.6,6.9-5.5,11.6-11.8,11.3 s -9.1-2.8-10.8-8.2-.2-12.2,6-13.2,9,3.9,9.4,7.3-2.9,6.4-5.8,5-2.9-4.9-2.9-4.9 C 244.5,396.4,248.9,395.1,250.2,393.1Z" fill="param(accent_colour_2)"/>
    <path d="M 230.2,381 c -6.6,10,.6,20.5,5.2,23.9-6.7-6.1-10.9-19.1-1.5-26.4 s 17.9-2,17.9-2 C 249.5,373.3,236.5,371.4,230.2,381Z" fill="param(accent_colour_2)"/>
    <path d="M 234.4,464.7 c -.4-2.2-3.9-4.4-7.4-3-4,1.6-5.9,7.5-1.8,12.4,3.5,4.1,11.8,4.2,15.4-.2 s 2-11.2.4-14.6 c 3.8,5.1,3.6,12.5-1,16.4 a 11.48,11.48,0,0,1-13,1 c -4.7-2.7-7.2-8.7-3.5-13.4 s 8.1-3.3,10.6-1.2 a 3.9,3.9,0,0,1,1.3,2,4,4,0,0,1-2.8,4.8,4.15,4.15,0,0,1-4.5-1 C 231.8,469.9,234.7,467,234.4,464.7Z" fill="param(accent_colour_2)"/>
    <path d="M 212.8,469.6 c 2,12.4,13.7,14.4,19.2,13.3-10.4.3-20-6.9-18.1-18.3 S 225,452,225,452 C 220,452,211,458.6,212.8,469.6Z" fill="param(accent_colour_2)"/>
    <path d="M 220.3,540.9 c -.4-2.2-4.5-4.6-7.9-2.5-2.7,1.6-4.3,7.4-.9,11.4 s 11.2,4.1,14.8-.2,2-10.4.4-13.7 c 4.5,4.2,3.4,12.4-1.2,16-4,3.1-8.5,2.7-13.1.1 s -4.9-9.2-2.9-12.2 c 3.2-4.9,7.9-3.8,10.3-1.7 s 2,6.2-.9,7.1 a 5,5,0,0,1-4.8-1.1 C 217.6,546.2,220.8,544,220.3,540.9Z" fill="param(accent_colour_2)"/>
    <path d="M 198.9,545.9 c 1.9,12.1,12.5,14.2,18.9,13-9.7.8-19.5-6.7-17.6-17.7 s 10.9-12.3,10.9-12.3 C 207.4,528.2,197.2,535.2,198.9,545.9Z" fill="param(accent_colour_2)"/>
    <path d="M 396,549.1 c 1.5-1.5,1.5-6.1-2.2-7.9-2.7-1.3-8-.4-9.6,5.6-1.3,4.8,2.9,11.1,8.2,11.4 a 10.63,10.63,0,0,0,11.1-7.3 c -.7,5.8-6.6,9.3-12,8 s -7.7-4.3-8.2-9.3,2.4-10.1,8-9.9,6.9,4.6,6.7,7.7-3.5,4.8-5.8,3.1 a 5.38,5.38,0,0,1-2-4.6 C 390.8,549.8,394.2,551.1,396,549.1Z" fill="param(accent_colour_2)"/>
    <path d="M 380.7,535 c -7.2,7-4.1,17.8.4,22.1-4.9-6.5-6.8-17.7,3-23.4 a 13.69,13.69,0,0,1,16.2,1.3 C 398.9,531.8,388.1,527.8,380.7,535Z" fill="param(accent_colour_2)"/>
    <path d="M 391.2,496.9 c .6-3.1-3-5.5-5.8-4.7-4.6,1.3-6,5.5-4.2,10 s 8.1,6.6,12.4,3.9,5.1-8.6,4.7-11.9 c 1.6,4.8-.5,11.6-5.6,13.4-4.4,1.6-8.1.6-11-2.8-3.2-3.7-3.5-9.1.9-12.2 s 7.5-.8,9,1.8 a 4.14,4.14,0,0,1,.5,1.9,3.8,3.8,0,0,1-3.8,3.8,3.59,3.59,0,0,1-3.5-2.2 C 387.6,500.6,390.8,498.9,391.2,496.9Z" fill="param(accent_colour_2)"/>
    <path d="M 371.7,494.4 c -1.7,11.2,6.5,16.7,12.5,17.4-7.5-2.4-14.9-10.5-10.5-20.4,4.1-9.4,13-7.8,13-7.8 C 383.7,481.9,373.2,484.5,371.7,494.4Z" fill="param(accent_colour_2)"/>
    <path d="M 334.1,458.8 c 1.7-1.1,2.8-5.4-.3-7.9-2.2-1.8-7.6-1.9-9.9,3.4 a 8.93,8.93,0,0,0,5.5,12 c 5.8,1.7,9.5-2.1,11.6-4.6 a .35.35,0,0,1-.1.2,9.75,9.75,0,0,1-13.1,4.6 c -4.3-2.2-5.9-5.2-5.5-9.9 s 4.3-8.9,9.3-7.8 a 6.1,6.1,0,0,1,4.9,8 c -.8,2.7-4.1,4-5.9,2 a 4.72,4.72,0,0,1-1-4.4 C 329.4,458.2,332.1,460.1,334.1,458.8Z" fill="param(accent_colour_2)"/>
    <path d="M 322.9,442.7 c -8.9,6.1-6.7,15.9-3.8,20.3-3.2-6.9-2.2-18.4,7.4-20.9 s 14.3,4.3,14.3,4.3 C 340.2,443.3,330.9,437.3,322.9,442.7Z" fill="param(accent_colour_2)"/>
    <path d="M 327.8,391.1 c -.1,1.3-1.7,2.7-4.1,1.7 a 6.52,6.52,0,0,1-3.9-7.1 h 0 a 7.26,7.26,0,0,1,8.8-5.4 c 4.7,1,8.1,7.2,7.2,11.9 s -5,6.7-9.2,7.8 c 7.4-.6,10.2-5.2,10.1-9.1-.2-5.4-2.4-9.6-7.3-11.2-3.7-1.2-9,.8-10,5.1-.9,3.8.6,7.4,4.1,8.8 s 6.7-1.8,4.8-4 c -1.6-1.9-3.6-.2-3.6-.2 A 2.08,2.08,0,0,1,327.8,391.1Z" fill="param(accent_colour_2)"/>
    <path d="M 320.8,374.1 a 13,13,0,0,0-7.7,15.2 c 1.8,7.2,6.6,9.2,6.6,9.2 a 15.48,15.48,0,0,1-5.5-7.6 c -1.5-4.8-1.9-11.2,6-15.6 a 14.18,14.18,0,0,1,14.6.3 C 331.2,372.2,325.8,371.9,320.8,374.1Z" fill="param(accent_colour_2)"/>
    <path d="M 423.9,441.2 c .9,6-1.4,9.7-4.3,10.6 a .1.1,0,0,0,.1-.1,11.24,11.24,0,0,0,.6-15.9 c -5.7-5.7-12.8-2.2-12.8-2.2 C 416.5,429.1,423.1,435.7,423.9,441.2Z" fill="param(accent_colour_2)"/>
    <path d="M 415,472.3 c .7-2,3.8-3.7,7.2-2.3,3.6,1.4,6,6.1,4.3,12.2 s -7.9,8-14.2,5.1 c -5.9-2.7-5.4-13.7-4.4-17.1-2,5.2-1.7,9.7.5,14.9,2.7,6.2,14.5,8,18.4-.8,4.4-10-1.7-15.1-5.5-15.6 s -8.7,2-7.6,6.9 c .9,4.1,4.8,2.7,4.8,2.7 C 416,478.1,413.8,476,415,472.3Z" fill="param(accent_colour_2)"/>
    <path d="M 435,473.4 c .6,6.8-2.6,11.6-6.1,12.7,7.4-4.9,5.8-15.3,1.8-19.3-7-7-15.9-2.7-15.9-2.7 C 425.8,458.5,434.4,466.6,435,473.4Z" fill="param(accent_colour_2)"/>
    <path d="M 293.8,386.8 c 1.9.7,3.3,4.2,2.4,6.9-1.2,3.4-5.8,6.3-11.6,3.9 s -7.5-9.1-3.9-14.9 c 3.4-5.4,13.8-4.8,17.3-2.4-2.3-2.5-8.4-3.1-13.8-1.5-6.4,1.9-9.7,14.3-1.4,19.1,6.7,3.8,13.1.2,14.2-3.9,1-3.6-.8-8.4-5.1-8.1-3.6.3-3.3,4.1-3.3,4.1 C 289.2,387.2,291.1,385.7,293.8,386.8Z" fill="param(accent_colour_2)"/>
    <path d="M 291.4,406 c -6.8-.2-10.7-2.2-12.2-5.8,5.1,6.2,15,5.8,19.4,2.3,7.7-6.1,4.4-14.9,4.4-14.9 C 307.3,399.2,298.2,406.2,291.4,406Z" fill="param(accent_colour_2)"/>
    <path d="M 282.3,448.4 c 2.6.9,2.7,3.5,2.2,5.9-.8,3.2-5.3,5.4-10.2,3.3 s -6.4-8-3.3-13 c 2.9-4.6,11.9-3,14.7-1.8-2.9-2-7.6-2.6-12.2-1.2-5.5,1.6-7.2,13-.8,16.2,8.4,4.1,12.1-.3,13-3.5 s -.8-7.5-5-7.1 c -3,.2-2.8,3.8-2.8,3.8 C 278.1,448.8,279.5,447.4,282.3,448.4Z" fill="param(accent_colour_2)"/>
    <path d="M 279.5,464.8 c -5.8-.2-8.1-2-9.6-5,5.4,6.1,12.2,4.7,16,1.7 a 11.12,11.12,0,0,0,4.1-12.2 C 293.1,459.2,285.3,465,279.5,464.8Z" fill="param(accent_colour_2)"/>
  </g>
<script type="text/ecmascript" xlink:href="param.min.js"/> 
</svg>
