<?xml version="1.0"?>
<svg xmlns="http://www.w3.org/2000/svg" xmlns:xlink="http://www.w3.org/1999/xlink" id="Layer_1" data-name="Layer 1" viewBox="0 0 600 1032.4">
  <title>HS005</title>
  <g id="main-colour">
    <path d="M 209.7,688.6 c -2,14.3-7.3,19.7-7.3,19.7 s 10-1.3,12.3-5.7 c 0,3-3,10.7-3,10.7 s 9-4.7,11-15 c .3,4.7,0,14.3-3,20 h 0 c 7.3-2.7,9.6-7,9.6-7 S 229,717,227,721 a 17.34,17.34,0,0,0,7-6.7,47,47,0,0,1-1.7,8.3 c 8.7-4.7,12.3-14.3,12.3-14.3 s 1.3,11.3-2.7,17 c 6-1.3,10.3-8.3,10.3-8.3 s -1.3,7.7-1.7,11 c 4-1.3,9-8.3,9-8.3 s 1,4-2,9.7 c 7.7-4.7,11.7-17,11.7-17 s 1.3,13.7-1.7,18.3 c 4-1,8-6,8-6 a 32.83,32.83,0,0,1-1,7 c 4.7-2,8.3-9.7,8.3-9.7 s 0,5.3-.3,10.3 c 3.3-3,7-9,8-16.7,1.8,6.7.6,15.8.4,17.4 h .2 c 1.3-1.2,7.1-6.7,7.7-11.4 a 50.57,50.57,0,0,1,0,11 s 5-8.7,5.7-17 c 1.3,3.7,2.7,17,2.7,17 l 1.7-8.7,6,8 a 81,81,0,0,1,1-17.7 c 0,7.8,6.9,16.5,7.3,17 h 0 c -.1-.5-.9-4.8.7-8.3.7,2.3,4.7,7,4.7,7 a 50.54,50.54,0,0,1,.3-16 c 1,8.7,8,15,8,15 a 43,43,0,0,1,1-8.7 c 0,3.7,3.7,7.7,3.7,7.7 a 30.35,30.35,0,0,1,1.7-10.7 c 1,4.3,5.3,9,5.3,9 s -1-6.3.3-18.3 c 2.7,7.3,12.7,15.3,12.7,15.3 a 28.87,28.87,0,0,1,.7-11.7 c 3.3,4.3,10,8.3,10,8.3 l -2.7-6 a 36.42,36.42,0,0,0,10.3,2.7 c -4.3-1.7-8-11-8-11 a 35.65,35.65,0,0,0,19,7.3 l .5-.2 c -3.4-4.1-10.2-12.1-14.6-21.4 a 50.49,50.49,0,0,0,25.1,15.3 c -2.9-2.2-7.6-6.4-9.6-11.8,3.8,4.4,10.9,7.1,15.5,8.4-28.9-37.5-14.3-99.4,17.6-152.2,35.9-59.3,25.2-136.8-32.1-166.1 s -92,16.1-92,16.1-13.3-24-48.7-26-79.1,16-91.8,76.7,26.4,120.7,41.1,152,12,78.7-10,96.7 C 191.9,700.4,204.6,697,209.7,688.6Z m 29.1-202.8 a 79.9,79.9,0,0,1,8.9-4.2,53.63,53.63,0,0,1,5.9-12.6,56.3,56.3,0,0,0-2.7,11.3,120.58,120.58,0,0,1,19.8-5.4,33.32,33.32,0,0,1,4.5-9.3,28.79,28.79,0,0,0-1.4,8.7 l .4-.1 a 56.34,56.34,0,0,1,3.8-6.8,23.35,23.35,0,0,0-1.2,6.4,163.77,163.77,0,0,1,27.1-1.7,76.17,76.17,0,0,0-.1-9.5 c 1,3,2,7.6,2.5,9.6 a 198,198,0,0,1,20.4,1.7 c -.2-3.3-.7-8.1-1.9-11.3 a 51.16,51.16,0,0,1,5.4,11.9 c 3.9.6,7.8,1.4,11.3,2.3 a 21,21,0,0,0-.9-5 c 1.1,1,2.6,4.2,3.2,5.6,1,.3,2,.5,3,.8 a 104,104,0,0,0-4-11.9,68.13,68.13,0,0,1,7.9,13.1,86.32,86.32,0,0,1,10,3.9 c 9.3,10.4,12.2,28.3,13.1,38.5 a 73.83,73.83,0,0,1-146.8,4 C 226.7,516.2,228.9,496.6,238.8,485.8Z" fill="param(main_colour)"/>
  </g>
  <g id="accent-colour-1">
    <path d="M 358.9,479.9 c -6.7-49.7-52-62.5-52-62.5 C 337.6,436.5,349.3,457.5,358.9,479.9Z" fill="param(accent_colour_1)"/>
    <path d="M 306.1,421 c 28.2,20.8,29.8,51.7,29.8,51.7 C 326.9,449.7,318.1,433.7,306.1,421Z" fill="param(accent_colour_1)"/>
    <path d="M 310.3,470 c 6-28-8-46-8-46 C 305.9,434,309.6,455,310.3,470Z" fill="param(accent_colour_1)"/>
    <path d="M 284.8,469.9 c 2-30,11.8-48.2,11.8-48.2 C 286.6,434,279.9,445,284.8,469.9Z" fill="param(accent_colour_1)"/>
    <path d="M 259.9,473.7 c 4.5-41.2,32.7-57.3,32.7-57.3 C 265.3,428.5,256.6,454.9,259.9,473.7Z" fill="param(accent_colour_1)"/>
    <path d="M 282.6,418.4 c -38.3,18.2-44,64-44,64 C 238.8,460,246.4,430.7,282.6,418.4Z" fill="param(accent_colour_1)"/>
    <path d="M 394.6,406.4 c 21,18,39.8,56.3,30.2,97.7 s -30.7,69.4-37.8,99.3 c -9.7,40.5-10.7,71,10,89.7-25.5-34.3-3.7-96.7,8.7-123,11.9-25.4,34-63,30.7-97.7 s -20.8-72.5-60.2-85.8-72.5,17.2-72.5,17.2 C 344.3,382,373.6,388.4,394.6,406.4Z" fill="param(accent_colour_1)"/>
    <path d="M 380.6,478 c 8.7,35,1.7,59.2-6.3,78.8 s -15,35.3-23.3,65.5 c -10.8,39.3-2,71.3,6,92-35.5-43.5-4-121.7,9-152.7 s 15.7-57,6-83.7 c -21.7-67-64.2-64.5-64.2-64.5 C 348.1,408.5,371.9,443,380.6,478Z" fill="param(accent_colour_1)"/>
    <path d="M 386.8,425.5 c 18,23.7,26.6,52.3,19.3,86.2-8,37-29.8,68.6-34.2,101-6.5,48.2.7,61.3,13.3,81.7-24.3-64.8,2.3-116,8.3-129 s 13.8-31.3,21.3-61 c 8.3-32.7-7-78.8-40.3-98.2 s -69.7-.8-69.7-.8 C 334.3,397,368.8,401.9,386.8,425.5Z" fill="param(accent_colour_1)"/>
    <path d="M 371.3,432.8 c 14,15.7,26.5,48.2,19.8,88.2 s -22.7,56.7-32.7,98.7-7.2,74.7,12.2,88 c -23-54.3-1.7-110.3,5.3-127 s 15.2-36,21.2-62.3-1.8-79.2-28.8-98.8 S 306,408.8,306,408.8 C 340.9,405.5,357.6,417.6,371.3,432.8Z" fill="param(accent_colour_1)"/>
    <path d="M 338.9,717.3 C 322.6,636.7,352.3,577,352.3,577,321.6,617.7,317.8,685.9,338.9,717.3Z" fill="param(accent_colour_1)"/>
    <path d="M 219.2,466.5 c -8.7,31-4.2,63.5,5.2,88.2 s 16.2,43,20.2,67.3,1.8,54.3-7.8,92.2 c 3.8-7,17-34.2,15.2-79.2-1.8-44-14.7-61.6-27-98.3 s 1.7-90,26.3-109.3,44.7-15,44.7-15 C 261.8,404,227.9,435.5,219.2,466.5Z" fill="param(accent_colour_1)"/>
    <path d="M 206.4,403.2 c -26.3,20.7-35.8,66.7-30.2,100.3 s 36.7,80.9,44.3,122.3 c 6.7,36.2-9.3,60.5-9.3,60.5 s 9.7-24.3,4.7-59.3-28.3-68-41-105-8.7-75.2,7.3-102.5,49-37.8,75-36.2,41.7,19.3,41.7,19.3 C 270.6,383,232.8,382.5,206.4,403.2Z" fill="param(accent_colour_1)"/>
    <path d="M 239.8,402.5 c -30.2,8.8-47,38-49,76 s 12.5,63.3,28.8,104.7,12.3,95.5-2.3,117.8 c 24-62.7,1.2-112.7-4.8-126 s -25.2-56.5-27.5-84.2,4.8-69.8,38.8-88.5,73.8,2.3,73.8,2.3 C 283.3,400.7,267.4,394.4,239.8,402.5Z" fill="param(accent_colour_1)"/>
    <path d="M 217.1,444.7 c -14,24.7-12.5,66.3-2.5,95 s 21.7,57.3,26,88-3.3,67.7-16.3,82.7 c 5.7-14.3,14.3-50.7,10-89.3 s -17.3-58.7-28.3-91-6.5-96.7,26.2-114.5 c 33-18,64.8-7.2,64.8-7.2 C 249.9,403,231.1,420,217.1,444.7Z" fill="param(accent_colour_1)"/>
    <path d="M 249.8,716.4 c 20.8-79.2-1.2-138-1.2-138 C 273,619.9,268.6,693.5,249.8,716.4Z" fill="param(accent_colour_1)"/>
    <path d="M 325,718.7 c -17.2-71.3,7-126.7,7-126.7 C 306.7,624,304.8,695.1,325,718.7Z" fill="param(accent_colour_1)"/>
    <path d="M 262.8,718.9 c 22.3-59.3,2.1-130.2,2.1-130.2 C 291.5,638.9,283.3,699.4,262.8,718.9Z" fill="param(accent_colour_1)"/>
    <path d="M 309.8,720.9 c -15.2-70.5,3.6-124.2,3.6-124.2 C 291.7,630.7,294.3,700.9,309.8,720.9Z" fill="param(accent_colour_1)"/>
    <path d="M 277.3,721 c 16.3-55.3,9.3-126.7,9.3-126.7 C 301.9,652.4,295.3,702.4,277.3,721Z" fill="param(accent_colour_1)"/>
  </g>
  <g id="accent-colour-2">
    <path d="M 351.5,478.4 c -11.5-41-46.5-60.2-46.5-60.2 C 333.3,440.6,341.8,458.4,351.5,478.4Z" fill="param(accent_colour_2)"/>
    <path d="M 304,421.4 c 21.4,29.2,18,50.2,18,50.2 C 319.3,461.4,317,444.4,304,421.4Z" fill="param(accent_colour_2)"/>
    <path d="M 298.3,469 c -4.3-18.4,2.3-46.3,2.3-46.3 C 297.3,429.4,290.9,450,298.3,469Z" fill="param(accent_colour_2)"/>
    <path d="M 269.5,473.1 c 2-30,25-54.2,25-54.2 C 281.5,427.5,266.8,454.6,269.5,473.1Z" fill="param(accent_colour_2)"/>
    <path d="M 247,479.4 c 10.2-47.2,36.6-60,36.6-60 C 262.9,428.7,247.3,456.7,247,479.4Z" fill="param(accent_colour_2)"/>
    <path d="M 373.9,508.4 c -13.2-79.8-61.7-91.8-61.7-91.8 C 349.8,423.1,373.3,476.4,373.9,508.4Z" fill="param(accent_colour_2)"/>
    <path d="M 226.9,506 c 3.3-82.9,59-91.3,59-91.3 C 240.5,422.4,225.3,469.4,226.9,506Z" fill="param(accent_colour_2)"/>
    <path d="M 376.5,448.1 c 17.3,32,15.5,76,4.4,99.6,8.8-22.3,12.3-73.4-13.7-108.3-27-36.2-59.7-28.7-59.7-28.7 C 327.9,405.7,359.2,416.1,376.5,448.1Z" fill="param(accent_colour_2)"/>
    <path d="M 359.9,708.7 c -25.7-54.1,8.3-128,8.3-128 C 337.3,646.9,349.6,693.4,359.9,708.7Z" fill="param(accent_colour_2)"/>
    <path d="M 344.9,710.4 c -22.4-67.8,15-142,15-142 C 333.5,616.6,330.6,674,344.9,710.4Z" fill="param(accent_colour_2)"/>
    <path d="M 333.2,714.7 c -28-65.8,12-138.3,10.7-136 C 313.5,630.4,318.3,692.4,333.2,714.7Z" fill="param(accent_colour_2)"/>
    <path d="M 313.9,715 c -17.4-78.6,13.7-127.3,13.7-127.3 C 303.3,619.4,302.9,687,313.9,715Z" fill="param(accent_colour_2)"/>
    <path d="M 297.6,642.3 a 150.71,150.71,0,0,1,6-46.3 C 297,609.1,295.5,622.4,297.6,642.3Z" fill="param(accent_colour_2)"/>
    <path d="M 294.3,726.7 c 7-17.3,1.3-37.7,1.3-37.7 C 295.9,695.4,294.9,712.4,294.3,726.7Z" fill="param(accent_colour_2)"/>
    <path d="M 285.3,657.7 c 5-45.8-12-67.3-12-67.3 C 284.8,616.4,284.9,637.4,285.3,657.7Z" fill="param(accent_colour_2)"/>
    <path d="M 272.6,722.7 c 7.3-12,8.7-29,8.7-29 C 278.9,698,274.3,711.4,272.6,722.7Z" fill="param(accent_colour_2)"/>
    <path d="M 258.2,580.2 c 27.8,79.4-.3,134.8-.3,134.8 C 272.6,663.4,271.3,630.6,258.2,580.2Z" fill="param(accent_colour_2)"/>
    <path d="M 247.3,709.9 s 7-10.5,8.8-57.8-15.4-86.8-15.4-86.8 C 266.8,638.6,247.3,709.9,247.3,709.9Z" fill="param(accent_colour_2)"/>
    <path d="M 378.2,579 c -9.5,23.8-15,39.5-14.2,74.8.8,35,15.9,50.2,15.9,50.2 C 354,656.9,369.9,603.4,378.2,579Z" fill="param(accent_colour_2)"/>
    <path d="M 379,425 c -24.5-25.9-59.4-20.3-73.7-18,48.3-12,81.3,10,94.3,50 s -3,76.7-3,76.7 C 403.9,512.7,410.8,458.6,379,425Z" fill="param(accent_colour_2)"/>
    <path d="M 420.8,461.9 c 8.2,38-9,71.6-21,98.8-12.5,28.2-18.2,49.8-20.5,75.1-1.7-24,8.2-50.8,15.2-66.8 s 25.8-53.9,25.5-87.3-20.9-71.6-52.2-83.5 c -27.8-10.5-61.8,5.5-61.8,5.5 C 371.3,370.9,411.7,420.1,420.8,461.9Z" fill="param(accent_colour_2)"/>
    <path d="M 388.2,384.7 c 17.7,7,46.9,36.8,52.2,71.2 s -1.8,64-17.8,93.5-22.3,45.2-29,71.2 a 118.62,118.62,0,0,0,5.2,74.4 c -30.7-56.9,13.2-128.6,26.6-156.9 s 14.8-52.4,13.5-73.8-20.1-67.4-60-80.8 c -43.2-14.5-71.4,14.1-71.4,14.1 C 337.3,367.7,370.6,377.7,388.2,384.7Z" fill="param(accent_colour_2)"/>
    <path d="M 205,391.6 c -25,16.3-35.8,38.2-39.8,62-3.6,21.2-3.2,52.8,13.8,91.3,13.8,31.3,30.1,57.1,33.8,78.8,6.7,39.7-3.8,61.2-11.5,68.4,9-11,14-42,9.7-66.7 s -18.5-43.8-34.2-79.8 C 154.3,493.8,159.3,458,170,429 s 45.8-54.3,80.1-51.9 S 297.7,399,297.7,399 C 270,373.4,230,375.2,205,391.6Z" fill="param(accent_colour_2)"/>
    <path d="M 199.8,417.8 C 187,433.1,175,469.6,184,508.6 s 21.7,48.9,37.2,99.3 c 13.8,44.5,0,81.5-12.3,93.2,23.3-36,16.1-74.4,10.3-92.6-6.8-21.7-17.9-47.2-31.2-77.2 s -12.5-63.5-3.5-90.5,33.1-48.8,62.8-50.5,47.5,11.8,47.5,11.8 C 249,380.6,217.9,396.2,199.8,417.8Z" fill="param(accent_colour_2)"/>
    <path d="M 209.3,433.6 c -15.3,25.3-14,58.8-9.7,82.6,3.4,19.3,21.1,55.2,26.4,74.2-1.7-5.7-12.3-28-19-44 s -12-39.5-12.7-61.5,6.9-61.2,39.8-76,59.8-3.5,59.8-3.5 C 257.5,398.6,224.6,408.3,209.3,433.6Z" fill="param(accent_colour_2)"/>
    <path d="M 213,475.1 c -6,25,2.9,63.9,2.9,63.9 s -5.6-18.2-6.9-36.2 c -3-37.7,17.2-74.4,40.5-86.4,22.5-11.6,46.4-6.8,46.4-6.8 C 236.5,404.4,219,450.1,213,475.1Z" fill="param(accent_colour_2)"/>
    <path d="M 223.9,700.4 c 9.3-15.3,10-44,10-44 C 231.6,669.4,227.3,686.7,223.9,700.4Z" fill="param(accent_colour_2)"/>
  </g>
<script type="text/ecmascript" xlink:href="param.min.js"/> 
</svg>
