<?xml version="1.0"?>
<svg xmlns="http://www.w3.org/2000/svg" xmlns:xlink="http://www.w3.org/1999/xlink" viewBox="0 0 600 1032.36">
  <title>HS007</title>
  <g id="main-colour">
    <path d="M 299.74,390.61 s -20.42-26.67-59.67-18.25 c -25.93,5.56-72,38-68.33,100.67,3.81,65.09,61.27,86.69,71.21,90.15-9.85-12.78-14.58-29.16-14.58-47,0-15,5.74-29.79,12.74-38.83,14.32-18.49,38.11-27.69,58.65-14.48,18.69-12.27,42.84-4.35,56.63,11.33,8.53,12,15,26.15,15,42,0,16.4-3.6,31.55-12.08,43.82 a 100.48,100.48,0,0,0,42.47-39 c 30.67-50.67,14.86-116.58-25.67-140 C 331.08,355,299.74,390.61,299.74,390.61Z" fill="param(main_colour)"/>
    <path d="M 272.74,379.7 A 34.65,34.65,0,0,1,255.41,345 c 2.67-24.67,34-40.67,56.67-30 s 28,30,19.33,48-21.33,31.83-33.67,31.25Z" fill="param(main_colour)"/>
    <path d="M 320.08,361 s 5.33-22,25.33-19.33,20.67,31.33-.67,34-28,6-28,6Z" fill="param(main_colour)"/>
    <path d="M 262.74,374.7 c -1.33,0-17-1.67-22.33-15.33,4.67,5.67,13.67,8.33,13.67,8.33 s -10-8.67-7-29.33 c 1,12,8.33,26,19,29 s 5.67,8.33,5.67,8.33Z" fill="param(main_colour)"/>
    <path d="M 329.41,346.7 s 9.67-11,3.33-25.33 c 5.33,4.33,5.33,14.67,5.33,14.67 s 5-16,0-23.67 c 7.67,10.33,4.67,25.67,4.67,25.67 s 4.33-4,12.33-2.67 a 16.92,16.92,0,0,0-14.33,11 C 335.41,350.7,329.41,346.7,329.41,346.7Z" fill="param(main_colour)"/>
    <path d="M 328.08,363.7 s 1.67,6.67,10.33,8 C 331.41,373,328.41,368.36,328.08,363.7Z" fill="param(main_colour)"/>
  </g>
  <g id="accent-colour-1">
    <path d="M 296.08,395.7 S 265.41,369,227.41,387 s -51.33,70.67-41.33,108,46,56,46,56-58-45.33-35.33-113.33 C 216.88,377.29,271.41,381.7,296.08,395.7Z" fill="param(accent_colour_1)"/>
    <path d="M 218.08,525.7 s -37.23-45.58-7-94.33 c 33.17-53.5,84-19.67,84-19.67 s -42.08-17.83-70.33,16 C 195,463.34,207.08,499.7,218.08,525.7Z" fill="param(accent_colour_1)"/>
    <path d="M 222.41,514.7 s -12.38-15.48-5-49 c 8.67-39.33,51.33-51,78-32.33-17-5.33-46.67-4.67-62.33,19 S 220.41,502.7,222.41,514.7Z" fill="param(accent_colour_1)"/>
    <path d="M 293.49,450.11 s -36.5-11.75-59.42,29.25 C 236,456.86,273.74,429.61,293.49,450.11Z" fill="param(accent_colour_1)"/>
    <path d="M 302.74,395.11 s 20.5-22,58.33-11.42 c 34,9.51,48.63,48.52,47.67,78.17-.75,23-14.5,68.75-39.67,83.5,20.67-23.67,31.92-53.75,32.67-85.67 C 402.5,427.37,384,398,357,390.36 S 302.74,395.11,302.74,395.11Z" fill="param(accent_colour_1)"/>
    <path d="M 302,413.36 s 22.5-21,58.08-4 C 394.23,425.68,397.41,478,376.41,521 c 6.33-26.67,14.67-66.17-4.67-92.17 C 356.77,408.73,329.24,402.86,302,413.36Z" fill="param(accent_colour_1)"/>
    <path d="M 302.08,432.36 s 16.67-17.08,43.92-5.75 c 19,7.9,34.5,33,29.08,71.08-.58-25.83-7.33-50.08-29.33-61.08 A 59.43,59.43,0,0,0,302.08,432.36Z" fill="param(accent_colour_1)"/>
    <path d="M 303.74,450.7 s 22.08-8.25,41.75,5.42,22.5,33,22.5,33-2.75-21.25-15-33 C 341,444.58,323.47,437.79,303.74,450.7Z" fill="param(accent_colour_1)"/>
    <path d="M 283.74,375 s -20.33-1.67-22-24,23-36.33,40.67-32,24.67,21.67,21.33,33.67-22.67,21-36.33,13.67-14.33-30,1.33-34.33 c 17.61-4.87,26.67,15.33,14.33,22,3.33-9.33-3.33-17.67-12.67-16 s -10.67,19.67,3.67,22.67,23-5.33,23.33-16 c .39-12.35-10.33-20.33-25.67-20 S 267.45,338,267.08,350.36 C 266.74,361.36,272.08,369,283.74,375Z" fill="param(accent_colour_1)"/>
    <path d="M 352.08,369.36 a 17.53,17.53,0,0,1-14.33-.33 c -7.33-3.67-10-14.67-3.33-20 s 16.67-3,19.33,1.33,1.67,12-4.67,14-12.33-3.33-10.67-8.67,9.33-5.33,11-.33 c -1.67-1.33-6.33-2.33-7.33,1 s 5,7,8.33,2-1.33-9.33-8-9.33-9.33,7.33-8,11.33 S 340.08,370.36,352.08,369.36Z" fill="param(accent_colour_1)"/>
    <path d="M 324.41,363 a 28.18,28.18,0,0,1-24,14.33 C 312.41,380.7,320.74,374.7,324.41,363Z" fill="param(accent_colour_1)"/>
    <path d="M 248.24,350 s 2.38,21.88,24,24 C 262.74,370.24,252.62,361.36,248.24,350Z" fill="param(accent_colour_1)"/>
    <path d="M 341.12,322.61 s .13,13-4.62,18.75 C 341.87,337.49,343.37,331.24,341.12,322.61Z" fill="param(accent_colour_1)"/>
  </g>
  <g id="accent-colour-2">
    <path d="M 294.41,441.7 s -23.42-11.25-45.67,6.5-22.5,41.83-22.5,58.17 c -2.33-16.33-.83-36.75,15.17-54.5 S 284.41,433.7,294.41,441.7Z" fill="param(accent_colour_2)"/>
    <path d="M 294.91,422.2 s -41.17-17.92-68.17,14.33 c -14.5,18.67-15.67,40.08-15.17,54.83-3.5-14.5-.17-39.5,14.5-57.17 C 245,411.34,278.58,412,294.91,422.2Z" fill="param(accent_colour_2)"/>
    <path d="M 229.24,544.36 s -26-21.75-32.5-55.25 C 202.24,508.86,217.41,532.2,229.24,544.36Z" fill="param(accent_colour_2)"/>
    <path d="M 195.24,464.36 s .33-37.67,28-60.17 c 26.15-21.27,63-13.33,72.5-1.08-10.83-10.25-40.75-14.75-62-3.25 S 200.08,437,195.24,464.36Z" fill="param(accent_colour_2)"/>
    <path d="M 233.74,556.36 s -37.5-17.5-50.67-51.5 c -13-33.51-3.08-68,3.17-80-9.67,25.17-11,56.75,0,83 S 233.74,556.36,233.74,556.36Z" fill="param(accent_colour_2)"/>
    <path d="M 195.74,406.61 s 18.25-28.17,50.5-31.92 c 20.25-2.5,42.5,7,51.5,18.92-12.75-11.25-32.08-19.5-51.33-16.75 S 209.41,391.2,195.74,406.61Z" fill="param(accent_colour_2)"/>
    <path d="M 302.49,403.86 s 14.5-14,47.5-7.25,47.75,40,47.25,63-7.75,55.75-22.75,71.5 c 11.5-17.75,19-40.75,20-66,.95-24-8.5-48.25-29.75-60.25 C 346.53,394.58,320.74,393.61,302.49,403.86Z" fill="param(accent_colour_2)"/>
    <path d="M 300.58,423.36 s 16.33-11,36.67-7.67 c 19.27,3.16,36.67,16.5,39.17,39.5-6-20.83-17.25-32-36-36.5 S 310.08,419.7,300.58,423.36Z" fill="param(accent_colour_2)"/>
    <path d="M 301.74,441.36 a 48.26,48.26,0,0,1,39.5-.83 c 21.75,9,30.25,28.83,29.25,48.08-.42-15.75-9.49-38.48-29.58-46.42 C 321.91,434.7,308,439.61,301.74,441.36Z" fill="param(accent_colour_2)"/>
    <path d="M 309.49,386.36 s 23-15.5,50.75-6.62 c 26.51,8.48,36.75,26,41.5,36.38-4.5-14.25-17.87-31-40.12-37.75 S 321.37,377.61,309.49,386.36Z" fill="param(accent_colour_2)"/>
    <path d="M 413.08,448 s 3.42,72.25-45.83,101.33 C 386.74,543.36,418.41,504.36,413.08,448Z" fill="param(accent_colour_2)"/>
    <path d="M 297.24,315.11 s 38,4.38,30.75,39.5 C 333.24,342.61,329.24,317.74,297.24,315.11Z" fill="param(accent_colour_2)"/>
    <path d="M 276.24,321.11 s -31.25,16.5-10.12,47.13 C 255,359.74,250.74,332.49,276.24,321.11Z" fill="param(accent_colour_2)"/>
    <path d="M 300.24,347.86 s -1.12-7.5-7.75-6.37 c -5.56.94-6.5,15.63,6.5,16.63 s 20.75-15.5,9.25-25.5 c 7.88,9.13,4.15,21.25-4.12,23.88-5.12,1.63-15.75-1.25-13.5-10.5 C 291.51,342.34,297.87,340.24,300.24,347.86Z" fill="param(accent_colour_2)"/>
    <path d="M 290,328.36 s -13.37,2.5-15.87,15.75,4.63,29.13,27.13,27.88 c 7.75-.5,16.67-6.79,17.75-8.87-5,8-14.14,11.73-26.37,9.88-8.25-1.25-18.62-6.75-20.12-19.5 S 277.24,329.49,290,328.36Z" fill="param(accent_colour_2)"/>
    <path d="M 327,364.61 s -1.12,8.88-11.87,13.38 C 320.49,377.11,326.37,373.61,327,364.61Z" fill="param(accent_colour_2)"/>
    <path d="M 356,350.11 s 4.38,8.5-2.5,14.5 c -3.61,3.15-9.92,2.17-14.5-1.08 a 13.09,13.09,0,0,0,12.25,3.58 C 355,366.11,361.49,359.11,356,350.11Z" fill="param(accent_colour_2)"/>
    <path d="M 345.87,355.61 s -2.12-.46-2.25,1.63 c -.14,2.31,2.54,3.29,4.46,2 s 4.29-4.67.92-7.67 a 4.59,4.59,0,0,1-.5,6.38 C 345,360.74,342.87,356.49,345.87,355.61Z" fill="param(accent_colour_2)"/>
    <path d="M 343.24,350.7 s -9.87.92-5.33,11.33 C 334.74,358.86,334.74,350.11,343.24,350.7Z" fill="param(accent_colour_2)"/>
    <path d="M 347.74,345.11 s -8.87-5-16,4.25 C 335.41,342.95,342.62,341.36,347.74,345.11Z" fill="param(accent_colour_2)"/>
  </g>
<script type="text/ecmascript" xlink:href="param.min.js"/> 
</svg>
