<?xml version="1.0"?>
<svg xmlns="http://www.w3.org/2000/svg" xmlns:xlink="http://www.w3.org/1999/xlink" viewBox="0 0 600 1032.36">
  <title>HS004</title>
  <g id="main-colour">
    <path d="M 225.08,386.36 s -9.42-4.73-18-1.5 a 19.36,19.36,0,0,0-11,26.83 c -8.33-2.33-14.71,8-9.33,15.33-13-.67-22.5,14.58-13.33,26.33-7.79.88-14.67,7.67-15.33,19.33 s 6.79,18.79,14,20.67 c -7.83,4.88-6.46,19.38,4.33,21-4.92,10.63,1,25.63,14,25.67-1.33,5.33-2,13.33,4.67,19.67 A 17.55,17.55,0,0,0,214.41,563 c -1.17,4.83,2,9.38,6.71,11.71 a 10.54,10.54,0,0,0,11.29-1.37,15.48,15.48,0,0,0,13.21,12.38 c 5.67.67,11.46-3.37,12.46-5.71,3.17,2.46,5.67.33,5.67.33 s -29.67-15.67-33.67-47.67 c -2.67-21,1-19.94,3.67-25.33,2.33-4.75,2.92-9.67-.33-14.33 a 13.07,13.07,0,0,0,11.08-4.58,13.22,13.22,0,0,0,2.92-12.08 c 5,2.42,13.83.5,15.33-7,3.33,2.92,10.13,3.08,14,1.5 a 11.86,11.86,0,0,0,7.33-8.17 s 4.58,4.42,9.67,4 a 9.73,9.73,0,0,0,8.67-7.67 c 1,3.92,6.25,8.92,13,10.42,6.55,1.46,13.67-.75,16-3.75.75,3.17,4.57,6.25,7.5,7.17 a 9.2,9.2,0,0,0,7.83-1.5 s -.75,9.58,11.92,14.25 a 16.3,16.3,0,0,0,6.08.75 s -5.92,14.33,5.67,23 c 1.46,16.88-.58,49.88-35.92,71.88,5,3.33,14.25,5.83,21.25,2.5 a 11.1,11.1,0,0,0,6.67-10,15.85,15.85,0,0,0,9.46.92 c 5.25-1.12,10.13-8.5,7.54-14.58,6.46,3.21,16.07,2.41,21.83-4.42,6.13-7.25,2.83-17.25,1.17-19.25 a 13.43,13.43,0,0,0,14.08-7.5 c 2.67-5.33,1.63-11.75-1.42-15.17,8.54-3.21,17-10.71,16.54-25.33-.39-11.41-7.5-19.25-11.87-21,5-2.67,6.83-8.17,5-13.5-1.55-4.51-6.33-7.5-10.67-7.83,5-6,6.38-17.24,0-27.33-7.08-11.21-20-9.67-20-9.67 s 3.42-7.92-1.71-13.29 c -4.72-4.95-10.29-3.71-14.29-2.37,1.33-7-1.54-17-13.21-21.62 s -20.46.63-23.79,4.29 c -1.33-6.42-7.29-9.17-12-9.17 a 10.54,10.54,0,0,0-10.37,7.5 c -1.25-6.25-9.5-10.5-16.25-10.37-9.75.18-14.12,6.5-15.08,9.71-2-6-8.33-8.33-13.33-8.33 s -13.21,3.25-14.67,10.33 c -4-7-15.06-7.86-21.33-5.67 C 231.41,372.36,225.08,378.36,225.08,386.36Z" fill="param(main_colour)"/>
  </g>
  <g id="accent-colour-1">
    <path d="M 225,392.86 s -12.5-8-21.25,1.75-2.5,22,8,23,16-7.75,14.5-14-12-9.25-16-2 c 4.25-2.25,12.25-1.5,11.25,6 s -11.75,7.5-15.5.5 C 201.66,400,209.24,389.36,225,392.86Z" fill="param(accent_colour_1)"/>
    <path d="M 247.79,438.05 s 16.53-1.52,17.56-16.14-12.9-21.14-22.86-14.82-8.81,17.83-3.19,22.32,16.95-.07,15.5-9.22 c -2.21,4.9-9.79,9.74-14.05,2.43 s 5.23-14.69,13.34-11.08 C 263.47,415.7,264.1,430.33,247.79,438.05Z" fill="param(accent_colour_1)"/>
    <path d="M 202.38,521.44 s -.9-10-9.76-10.66-12.83,7.8-9,13.84,10.8,5.36,13.53,2,0-10.27-5.57-9.41 c 3,1.34,5.89,5.94,1.46,8.52 s -8.9-3.18-6.71-8.1 C 188.85,511.92,197.71,511.55,202.38,521.44Z" fill="param(accent_colour_1)"/>
    <path d="M 408.26,435.87 s -1.47-16.27-15.85-17.31 S 371.58,431.22,377.79,441 s 17.54,8.7,22,3.18,0-16.68-9-15.27 c 4.82,2.18,9.57,9.65,2.36,13.84 s -14.45-5.17-10.89-13.15 C 386.29,420.4,400.69,419.81,408.26,435.87Z" fill="param(accent_colour_1)"/>
    <path d="M 408.34,510.86 s 15.46-4.38,13.85-18.47-16-17.83-24.38-10-5.22,18.53.92,21.81,16.12-3.08,13.12-11.53 c -1.23,5.06-7.59,11-12.95,4.8 s 2.37-14.91,10.73-12.92 C 419.3,486.81,422.5,500.62,408.34,510.86Z" fill="param(accent_colour_1)"/>
    <path d="M 212.56,465.63 s 6.65,14.74,20.43,11,15.37-18.59,6.39-25.75-19.21-2.45-21.56,4.15,5.45,15.58,13.41,11.35 c -5.22-.48-12.07-5.92-6.69-12.17 s 15.18.15,14.44,8.77 C 238.11,473,224.84,478.19,212.56,465.63Z" fill="param(accent_colour_1)"/>
    <path d="M 358.5,424.08 s -5.25-14.09-18.27-11.53-15.42,16.29-7.53,23.5,17.68,3.47,20.27-2.51-4.08-14.8-11.74-11.36 c 4.81.77,10.83,6.25,5.46,11.71 s -14.08-1.08-12.86-9 C 335.24,415.68,347.88,411.66,358.5,424.08Z" fill="param(accent_colour_1)"/>
    <path d="M 303.78,439.11 s 8.5-10.2.82-19.05-19.24-4.68-21.31,4.53,5.09,15.07,10.8,14.43,9.55-9.61,3.56-14 c 1.52,4,0,11-6.58,9.31 s -5.34-11.27,1.29-13.81 C 300,417.61,308.64,425.53,303.78,439.11Z" fill="param(accent_colour_1)"/>
    <path d="M 413.81,465.76 s 4.47-7.47-1.4-12.43-12.95-1.08-13.35,5.09,4.83,9.25,8.47,8.26,5.22-7.2.89-9.42 c 1.39,2.45,1.09,7.16-3.32,6.7 s -4.6-6.76-.56-9.08 C 409.2,452.2,415.59,456.46,413.81,465.76Z" fill="param(accent_colour_1)"/>
    <path d="M 392.08,512 s -5.45-6.07-11.51-2.19-4.55,11.29.87,13.36,9.61-1.76,9.74-5.29-5-6.66-8.18-3.41 c 2.58-.57,6.71,1,5.08,4.83 s -7.33,2.25-8.29-2 C 378.67,512.37,384.25,507.83,392.08,512Z" fill="param(accent_colour_1)"/>
    <path d="M 250.83,387 s 1.47-8-5.32-10.45-11.71,3.31-10,8.86,7.28,6.52,10.14,4.46,2.21-8-2.32-8.56 c 2,1.69,3.32,5.92-.71,7 s -6.26-4.41-3.48-7.78 C 242.32,376.65,249.33,378.28,250.83,387Z" fill="param(accent_colour_1)"/>
    <path d="M 210.11,441.49 s 9.83,2.07,13-6.2-3.69-14.53-10.58-12.65-8.27,8.74-5.83,12.34,9.82,3,10.61-2.57 c -2.15,2.44-7.4,3.89-8.56-1.1 s 5.64-7.57,9.7-4 C 223.17,431.36,220.93,439.93,210.11,441.49Z" fill="param(accent_colour_1)"/>
    <path d="M 226.55,570.42 s 6.43,1.35,8.53-4.06-2.41-9.51-6.92-8.27-5.41,5.72-3.81,8.07,6.42,2,6.94-1.68 c -1.41,1.6-4.84,2.54-5.6-.72 s 3.69-4.95,6.34-2.64 C 235.09,563.79,233.62,569.4,226.55,570.42Z" fill="param(accent_colour_1)"/>
    <path d="M 362.25,558.39 s -2.59,6,2.31,9.16,9.79-.5,9.47-5.16-4.55-6.43-7.17-5.32-3.17,5.91.29,7.14 c -1.29-1.69-1.54-5.24,1.81-5.35 s 4.13,4.59,1.34,6.74 C 367.07,568.06,361.86,565.52,362.25,558.39Z" fill="param(accent_colour_1)"/>
    <path d="M 362.79,404.48 s 11.48-9.4,4.93-20.74-20.14-9.2-24.35.47,2.4,17.61,8.81,18.13,12.52-8.54,6.87-14.59 c .82,4.74-2.37,12.11-9.19,8.83 s -3.48-13.5,4.33-14.89 C 363.21,380.08,371,390.59,362.79,404.48Z" fill="param(accent_colour_1)"/>
    <path d="M 367,481.46 s 14.28.86,17.07-11.45-8.23-19.69-17.54-15.61-9.83,14-5.63,18.59,14.45,2.15,14.41-5.83 c -2.52,3.89-9.61,7-12.29.23 s 6.37-11.83,12.81-7.7 C 383.26,464.47,381.89,477,367,481.46Z" fill="param(accent_colour_1)"/>
    <path d="M 381.22,557.45 s 13.87.84,16.58-11.12-8-19.13-17-15.16-9.55,13.64-5.47,18.06,14,2.09,14-5.66 c -2.45,3.78-9.33,6.81-11.94.23 s 6.19-11.49,12.45-7.48 C 397,541,395.7,553.13,381.22,557.45Z" fill="param(accent_colour_1)"/>
    <path d="M 217.26,557 s 8.46-10.19.79-19-19.2-4.64-21.25,4.55,5.1,15,10.8,14.38,9.51-9.61,3.53-13.95 c 1.52,4,0,11-6.55,9.3 s -5.35-11.23,1.27-13.78 C 213.48,535.6,222.09,543.49,217.26,557Z" fill="param(accent_colour_1)"/>
    <path d="M 214.59,510.83 S 227,507.64,226,496.38 s -12.42-14.53-19.23-8.48-4.52,14.67.31,17.4,12.9-2.13,10.68-8.93 c -1.08,4-6.26,8.62-10.41,3.57 s 2.18-11.83,8.81-10.08 C 223.79,491.88,226.07,502.94,214.59,510.83Z" fill="param(accent_colour_1)"/>
    <path d="M 279.34,463.29 s 5.81-10.92-2.88-17.54-18.45-.6-18.58,8.19,7.51,12.78,12.61,11.11,6.88-10.59.59-13.43 c 2.15,3.38,2.07,10.08-4.23,9.75 s -7-9.26-1.46-12.85 C 271.82,444.39,281.19,450,279.34,463.29Z" fill="param(accent_colour_1)"/>
    <path d="M 180.86,451.93 s -5.42-6.67-1.67-12.93 A 10.6,10.6,0,0,1,194,435.45 c 3.75,2.5,5.42,11.47-.21,15.22 a 6.5,6.5,0,0,1-9.52-8.13,4.93,4.93,0,0,1,6-2.71 s -4.52,2.15-3.06,5.91,9.31,1.39,7-5.07-10.84-5-13.14.21 S 180.86,451.93,180.86,451.93Z" fill="param(accent_colour_1)"/>
    <path d="M 170.94,486.53 s -6.66-8.19-2-15.88 a 13,13,0,0,1,18.18-4.35 c 4.61,3.07,6.66,14.08-.26,18.69 s -15-2.85-11.69-10 a 6.05,6.05,0,0,1,7.34-3.33 s -5.55,2.65-3.76,7.26,11.44,1.71,8.62-6.23-13.32-6.15-16.13.26 S 170.94,486.53,170.94,486.53Z" fill="param(accent_colour_1)"/>
    <path d="M 320.69,399 s -7.27,7.54-15.39,3.92 a 12.92,12.92,0,0,1-6.47-17.38 c 2.47-4.91,13.07-8.24,18.44-2 s -1,15.13-8.43,12.71 a 6,6,0,0,1-4.16-6.83 s 3.27,5.15,7.59,2.83.31-11.47-7.17-7.74-4.45,13.85,2.19,15.85 S 320.69,399,320.69,399Z" fill="param(accent_colour_1)"/>
    <path d="M 330.3,459 s -6.21,6.44-13.14,3.35 a 11,11,0,0,1-5.52-14.84 c 2.11-4.19,11.16-7,15.74-1.7 s -.86,12.92-7.2,10.85 a 5.13,5.13,0,0,1-3.55-5.83 s 2.79,4.39,6.48,2.41.26-9.79-6.12-6.61-3.8,11.83,1.87,13.54 S 330.3,459,330.3,459Z" fill="param(accent_colour_1)"/>
    <path d="M 261.2,392.41 s -3.67-9.5,4.25-15.5,18.08,1.17,19.75,8.83-6,17.33-15,12-3.25-16,3.67-16 c 4.35,0,8,7.67,2.67,9.33,1-3.33-2.25-6.75-5.17-4.17-3.49,3.09-.42,10,5.92,8 s 5.64-10.3,2.58-13.58 C 276.53,377.74,263.53,372.74,261.2,392.41Z" fill="param(accent_colour_1)"/>
  </g>
  <g id="accent-colour-2">
    <path d="M 189.66,445.53 s 2.88.8,3.61-2.57 c .87-4-3.16-6-6.22-5.63 s -8.4,5.37-4.47,13.37 c 2.42,4.92,12,5,14.92-.33,2.17-4,2.35-9.7.54-11.78.83,2.78,1.63,11.11-3.87,14-5,2.65-10.5.08-11.58-4.92 s 2.35-8.91,4.25-9.33 c 3-.67,5.11.82,5.67,2.42 A 3.74,3.74,0,0,1,189.66,445.53Z" fill="param(accent_colour_2)"/>
    <path d="M 213.58,402.7 s 3.33-1.08,5.58,1.25.58,7.17-2.75,7.83-9-.7-9.42-6.92 c -.37-5.75,4.33-10.17,10-10.25 s 9.17,1.5,11.38,7.38-1.62,13.63-7.29,15 c 6.17-4,8-8.36,6.42-14.08 a 9.88,9.88,0,0,0-13.12-6.5 c -5.25,2-7.25,8-5.5,10.88 s 6.63,5,9,2 C 220.58,405.81,218.08,402.78,213.58,402.7Z" fill="param(accent_colour_2)"/>
    <path d="M 202.91,415.45 s -7.5-6.58-3.5-17.83,17.46-11.73,25.42-6.58 c -5.17-5.15-18.24-8.39-25.23,2.66 C 193.24,403.73,199.16,414.28,202.91,415.45Z" fill="param(accent_colour_2)"/>
    <path d="M 251.12,421.53 a 5.8,5.8,0,0,1-5.46,2.17 c -3.59-.52-5-5.21-2.5-8.08 s 7.37-5.48,12.42-.67,3.42,12.42-.83,16.08 c -4.8,4.14-9.67,4.67-15.5,1.58-6.21-3.28-7.75-12.25-4.53-18.52-1.25,4.16-1.68,12,3.28,16.43 s 14.24,3,17.5-2.33,2.17-12-3.83-14.5 c -3.44-1.43-8.14,1.89-8.58,4.5 C 242.33,422.61,247.09,424.55,251.12,421.53Z" fill="param(accent_colour_2)"/>
    <path d="M 251.78,402.95 s 10.85-.1,15,12.58-5.25,23.25-17.63,24 c 7.8.31,19.53-4.23,19.63-18.86 C 268.92,407.76,255.89,401.4,251.78,402.95Z" fill="param(accent_colour_2)"/>
    <path d="M 192.37,519.41 a 3.22,3.22,0,0,1,1.19,3.27,3,3,0,0,1-4.69,1.63 c -1.74-1.51-3.36-4.51-.44-7.56 s 7.2-2,9.69.94 a 7.94,7.94,0,0,1,.44,9.38 c -2.23,3.62-7.06,4-10.71,2.29,2.52.76,7.16,1,9.84-2 s 1.44-8.58-1.81-10.56-7-.21-7.81,1.88 c -1.12,2.75.89,5.52,2.5,5.56 A 2.86,2.86,0,0,0,192.37,519.41Z" fill="param(accent_colour_2)"/>
    <path d="M 181.1,519 s .26-6.84,8-9.37,13.36,4.87,14.24,11 c .2-4.73-3.8-12.1-11.3-12.23 C 184.15,508.23,180.17,516.49,181.1,519Z" fill="param(accent_colour_2)"/>
    <path d="M 392,432.57 a 4.68,4.68,0,0,1,2.11,4.92 c -.51,3.53-4.48,4.83-7.31,2.38 s -5.34-7.38-.37-12.12 c 4.19-4,11.26-2.55,15,2.44 a 12.79,12.79,0,0,1,.69,14.75 c -3.62,5.88-10.62,7-17.45,3.78,4.09,1.24,11.2,2.53,16.33-3.66,4.17-5,2.09-13.72-3.19-16.94 s -10.66-.62-12.25,2.69 c -2.31,4.81,1.85,9.16,4.46,9.23 S 395,436.54,392,432.57Z" fill="param(accent_colour_2)"/>
    <path d="M 373.72,431.88 s -.17-11.21,12.46-14.83 c 14.38-4.12,22.15,7.52,23.57,17.44.24-5.57-4.16-19.19-18.57-19.32 C 378.44,415.06,372.3,426.74,373.72,431.88Z" fill="param(accent_colour_2)"/>
    <path d="M 408.58,494.55 a 6.47,6.47,0,0,1-5.14,3.19 c -3.51.15-5.47-4.31-3.61-7.49 s 6.5-5.63,12.18-2 c 4.51,2.89,4.38,10.88.27,15.43-3.34,3.7-8.39,4.78-13.63,2.53-6.24-2.69-8.57-11.82-7-15.83-.45,4.18,1,11.26,6.47,14.57 s 12.94.43,15.16-5.24 c 2.62-6.68-1.18-11.1-4.69-11.91-5.05-1.17-8.74,3.43-8.3,6 C 400.92,497.46,405.28,498.13,408.58,494.55Z" fill="param(accent_colour_2)"/>
    <path d="M 405.92,476.74 s 11.16-1.91,16.84,9.71 c 6.14,12.55-3.47,22.41-12.81,25.59,6.22-.86,17.75-7.68,15.25-21.62 C 423,478.09,410.57,475.08,405.92,476.74Z" fill="param(accent_colour_2)"/>
    <path d="M 228.82,463.45 a 4.57,4.57,0,0,1-3.52-4.26 c -.09-2.65,3.06-4.69,6.61-4.24,2.45.31,7.17,3.51,4.34,9.69 s -9.65,8.11-14.87,4.82-7.31-8.12-6.38-13.6 A 12.72,12.72,0,0,1,230.46,446 c -3.92-.82-11.44,2-13.92,8 s 2.39,14.3,8.37,15.6,11.16-4.32,11.22-8.88 c 0-3.63-5.13-5.53-7.45-4.39 C 225.9,457.63,224.77,460.7,228.82,463.45Z" fill="param(accent_colour_2)"/>
    <path d="M 246.15,458.16 s 3.25,10.44-7.1,18.32-22.89-.27-27.43-9.09 c 2.3,5.62,9.75,16.36,23.37,12.61 C 247.14,476.66,248.87,461.46,246.15,458.16Z" fill="param(accent_colour_2)"/>
    <path d="M 343.27,425.09 a 4.13,4.13,0,0,1,3,3.78 c .4,3.26-2.53,5.5-5.89,4.71-3.08-.72-6.73-4.68-3.71-10.23 s 9.43-6.09,13.95-2.54 c 4.26,3.35,6.25,7.43,4.71,13-1.68,6.13-9.51,9.33-14.7,7.35,3.93.11,9.72.07,13.25-6.54,2.83-5.3-1.14-13.18-6.61-14.76 s -9.92,2.62-10.23,6,1.86,6.41,4.26,6.52 C 345.31,432.58,346.86,427.9,343.27,425.09Z" fill="param(accent_colour_2)"/>
    <path d="M 326.87,428.92 s -2.7-9.68,7.39-16.35,21.82-.27,25.22,9.93 c -1.58-6.89-9.29-16-21.24-12.83 C 326.91,412.67,324.54,425.69,326.87,428.92Z" fill="param(accent_colour_2)"/>
    <path d="M 296.33,427.88 a 5,5,0,0,1-1.92,4.48 c -2.32,1.74-5.36-.22-5.58-3.25 s 1.26-7.46,6.83-7.58,8.56,4.71,8,9.75-2.87,8.45-8.33,9.75-11.79-2.29-12.48-8.09 c 1.64,3.06,4.32,7.75,11.15,7.42,5.3-.26,9.57-6.66,8.58-11.58 a 7,7,0,0,0-9.83-5.42 c -2.92,1.58-3.54,6.38-2.08,7.92 S 295.75,431.87,296.33,427.88Z" fill="param(accent_colour_2)"/>
    <path d="M 286.21,417 a 14.69,14.69,0,0,1,16.37-1.46 c 9.54,4.81,9.25,17,2.85,23.64,4.59-4.23,9.28-13.72,1.07-22.06 C 299.23,409.74,287.66,413.79,286.21,417Z" fill="param(accent_colour_2)"/>
    <path d="M 407.85,459.24 a 3.6,3.6,0,0,1-.81,3.26 c -1.33,1.36-3.79,0-4.24-2 s .26-4.53,3.87-5.11 c 3.14-.51,6.06,2.38,6.21,5.7 s -1.46,5.84-4.14,6.82 c -3.46,1.25-7-.24-9.12-4,1.38,1.82,4.55,4.64,7.93,3.79 a 6.35,6.35,0,0,0,4.16-8.55,4.93,4.93,0,0,0-6.65-2.48,3.49,3.49,0,0,0-.58,5.33 C 406,463.08,407.88,461.88,407.85,459.24Z" fill="param(accent_colour_2)"/>
    <path d="M 400.18,453.2 a 9.77,9.77,0,0,1,10.51-2.55 c 6.67,2.15,6.7,10.25,4.2,15,1.87-2.12,4.6-9.82-1.57-14.39 C 407.87,447.2,400.8,451,400.18,453.2Z" fill="param(accent_colour_2)"/>
    <path d="M 384.59,515.53 a 3.17,3.17,0,0,1,2.77,1.48 c .85,1.57-.76,3.32-2.62,3.18 s -4.33-1.83-4-4.42 a 5.31,5.31,0,0,1,6.83-4.25,6.4,6.4,0,0,1-1.11,12.65,6.68,6.68,0,0,0,5.44-6.24 c .28-3.25-3.09-6-6.17-5.75 s -4.59,2.91-4.08,4.67,3.3,3,4.36,2.25 S 387,516.24,384.59,515.53Z" fill="param(accent_colour_2)"/>
    <path d="M 377.07,520.72 s -3.34-4.24.43-9.61,10.92-4.58,14.77-.11 c -2.17-3.17-7.8-6.67-13.57-2.38 C 373.49,512.48,375.25,519.56,377.07,520.72Z" fill="param(accent_colour_2)"/>
    <path d="M 243.45,383.27 a 2.86,2.86,0,0,1,.25,2.85,2.38,2.38,0,0,1-4.12.17 A 4.25,4.25,0,0,1,241,380 c 2.95-1.75,6.55.07,7.69,3 a 6.74,6.74,0,0,1-1.6,7.58 c -2.56,2.61-6.76,2-9.33-.54,1.8,1.14,5.3,2.88,8,1 a 6.17,6.17,0,0,0,1.29-9.33,4.59,4.59,0,0,0-7,0 c -1.08,1.48-.79,4.38,1.13,5 C 242.4,387.12,244.34,385.57,243.45,383.27Z" fill="param(accent_colour_2)"/>
    <path d="M 234.74,380.5 a 8.68,8.68,0,0,1,8.17-5.59 c 6.56-.31,9.46,6.69,8.82,11.65.6-3.07.68-9.61-6.23-11.86 C 239.44,372.73,234.55,378.35,234.74,380.5Z" fill="param(accent_colour_2)"/>
    <path d="M 215,432.53 a 3.25,3.25,0,0,1-3.41.09,2.87,2.87,0,0,1,0-5 c 2-1.22,5.54-.8,7,1.63 a 6.62,6.62,0,0,1-3.33,9.46 c -3.57,1.41-6.65.82-9.46-2.37 s -1.29-9.33,1.12-11 c -1.47,2.18-3,6.67-1,10.1 s 7.65,3.82,10.5,1.29,2.08-6.63.29-8-5-1.25-5.75.79 C 210.33,431,212.12,433.55,215,432.53Z" fill="param(accent_colour_2)"/>
    <path d="M 218.69,421.9 s 6.71,1.8,6.6,9.88 c -.12,9.17-8.53,11.78-14.63,10.83,3.88,1,12.3,1.17,14.79-7.33 C 227.87,427,221.34,421.74,218.69,421.9Z" fill="param(accent_colour_2)"/>
    <path d="M 229.73,564.56 a 2,2,0,0,1-2.45-3.28,3.21,3.21,0,0,1,4.79,1.29,4.4,4.4,0,0,1-2.24,6.21,5.11,5.11,0,0,1-6.07-1.45,5.76,5.76,0,0,1,.63-7.5 c -1,1.43-2.06,4.5-.69,6.74 a 4.86,4.86,0,0,0,6.92,1,3.77,3.77,0,0,0,.21-5.62 c -1.17-.9-2.87-1.29-3.67.42 A 1.87,1.87,0,0,0,229.73,564.56Z" fill="param(accent_colour_2)"/>
    <path d="M 232.15,557.6 s 4.06,1.14,4.17,6.43-5,7.83-9.42,7.12 c 2.26.67,7.84.69,9.59-4.83 C 238,561.44,233.89,557.5,232.15,557.6Z" fill="param(accent_colour_2)"/>
    <path d="M 367.37,562.66 a 2.55,2.55,0,0,1,.14-2.53 c .86-1.15,2.95-.51,3.48.9 s .61,3.7-2,4.54 a 4.65,4.65,0,0,1-5.77-3.64 c -.45-2.47,0-4.51,2.45-5.9 s 6.24-.33,7.39,2.32 a 5.43,5.43,0,0,0-6.23-2,4.73,4.73,0,0,0-2.42,6.42 c 1.25,2.15,3.64,3,5.17,1.67,2-1.75.84-3.53-.07-4 S 367.08,560.69,367.37,562.66Z" fill="param(accent_colour_2)"/>
    <path d="M 373.71,566.4 a 7.1,7.1,0,0,1-7.47,3 c -5.21-.93-6.18-7-4.79-10.77 a 7.84,7.84,0,0,0,3,10.94 C 369,572.06,373.48,568.12,373.71,566.4Z" fill="param(accent_colour_2)"/>
    <path d="M 357,390.58 s 0,3.5-2.92,4.92-6.22-1.59-5.82-5,3.27-8.38,9.42-7.33,7.68,7.84,6,13.25-4.48,7.89-10.75,8.17-10.17-4.42-11.8-11.33 c 1.16,3.71,4.81,9.7,10.72,10.25,7.25.67,11.68-5.72,11.42-11.33-.33-7.08-6.26-8.2-9.5-7.42 s -5.28,6.34-4,8.33 S 355.49,396.36,357,390.58Z" fill="param(accent_colour_2)"/>
    <path d="M 348.17,376.48 s 8.45-5.24,17.9,2.05,5.24,20.23-1.49,26.36 c 4.66-3.36,11.82-13.86,5.24-23.86 C 363.46,371.37,350.45,373.28,348.17,376.48Z" fill="param(accent_colour_2)"/>
    <path d="M 372,467.82 a 4.18,4.18,0,0,1-4.53,1,3.89,3.89,0,0,1-1.5-6.75 c 2.49-2.13,6.9-3.57,10.56,1.19 s 1.23,10.71-3.5,13.44 a 11.34,11.34,0,0,1-13-1 c -4.62-3.9-4.8-11.29-1-16.35-1.61,3.38-3.3,10.16.35,14.56 s 11.94,4.32,15.44.19 c 4.13-4.87,2.22-10.79-1.81-12.37-3.5-1.37-7,.75-7.37,3 S 368.16,469.86,372,467.82Z" fill="param(accent_colour_2)"/>
    <path d="M 375,452.08 s 9.18,1.23,11.1,12.58-7.69,18.56-18.08,18.27 c 5.52,1.11,17.21-.88,19.21-13.33 C 389,458.58,380,452,375,452.08Z" fill="param(accent_colour_2)"/>
    <path d="M 386.07,544.2 a 5,5,0,0,1-4.83,1.08 c -2.9-.88-3.34-5-.92-7.08 s 7.1-3.19,10.33,1.67 c 2,3,1.68,9.51-2.92,12.17 s -9.08,3-13.08-.08 c -4.65-3.59-5.68-11.79-1.22-16-1.56,3.28-3.16,9.45.39,13.72 s 11.37,4.2,14.75.17,1.75-9.79-.92-11.42 c -3.42-2.08-7.5.32-7.92,2.5 C 379.16,544,382.35,546.19,386.07,544.2Z" fill="param(accent_colour_2)"/>
    <path d="M 389,528.91 s 9,1.26,10.85,12.28-7.92,18.5-17.63,17.68 c 6.41,1.25,16.94-.92,18.88-13 C 402.79,535.17,392.58,528.16,389,528.91Z" fill="param(accent_colour_2)"/>
    <path d="M 209.81,545.86 a 5.33,5.33,0,0,1-2,4.59 c -2.31,1.74-5.61-.06-5.83-3.08 s 1.11-7.53,6.67-7.67,8.55,4.89,8,9.92-2.8,8-8.25,9.33-11.34-2.24-12-8 a 10.71,10.71,0,0,0,11.13,7.27 c 5.28-.32,9.45-6.57,8.17-11.42-1.58-6-6.93-6.91-9.58-5.58-3.67,1.83-3.63,6.39-2.17,7.92 C 205.83,551.11,209.24,549.83,209.81,545.86Z" fill="param(accent_colour_2)"/>
    <path d="M 199.69,535 a 13.66,13.66,0,0,1,16.21-1.31 c 9.83,5.75,7.85,16.89,3,23.41,4.57-4.23,7.59-15.07.43-22.07 C 211.94,527.82,201.14,531.81,199.69,535Z" fill="param(accent_colour_2)"/>
    <path d="M 215.1,497.83 a 3.54,3.54,0,0,1-3.48,2.22,3.79,3.79,0,0,1-3.25-5.69 c 1.54-2.5,4.57-4.8,9-1.75 s 4.12,8.47.94,12.19 c -2.94,3.44-6.62,4.38-11,2.81-5.1-1.82-7.25-8.62-5.62-13.43-.44,3.32.36,9.18,4.68,11.93 s 10.61.62,12.44-3.87.44-8.69-4.19-10 c -2.77-.78-6.44,1.56-5.81,4.69 C 209.21,498.93,212.4,500.62,215.1,497.83Z" fill="param(accent_colour_2)"/>
    <path d="M 213.32,483.59 s 8.87-1.59,13,7.83 c 4.38,9.88-3,18-10.52,20.38,6-.72,14.18-6.28,12.46-17.44 C 226.79,484.49,216.27,481.91,213.32,483.59Z" fill="param(accent_colour_2)"/>
    <path d="M 270.4,454.47 a 4.74,4.74,0,0,1-1,4.4 c -1.79,2-5.14.73-5.92-2 s -.15-6.82,4.92-8,8.88,3,9.33,7.75-1.17,7.67-5.5,9.92 a 9.81,9.81,0,0,1-13.18-4.88 c 2.08,2.48,5.83,6.31,11.6,4.63,5.42-1.58,7.38-7.71,5.5-12-2.33-5.33-7.76-5.17-9.92-3.42-3.08,2.5-2,6.82-.33,7.92 C 267.91,460.11,270.64,458.21,270.4,454.47Z" fill="param(accent_colour_2)"/>
    <path d="M 259.09,446.46 s 4.7-6.91,14.32-4.34,10.65,14,7.44,20.92 c 2.89-4.42,5.14-14.25-3.78-20.34 C 269.11,437.26,259.81,443.26,259.09,446.46Z" fill="param(accent_colour_2)"/>
    <path d="M 275.37,389.36 s -2-1.69-3.56.19 c -1.87,2.25,1.31,5.38,4.81,4 s 5-5,4.13-8.75 c -1-4.29-6.31-6.31-10-5.12-4.88,1.57-7.14,5.81-7.31,11.19-.12,3.88,2.63,8.5,10.06,9.13-4.25-1.12-8.37-3.06-9.25-7.81 s 2.5-10.95,7.19-11.94 a 7.32,7.32,0,0,1,8.81,5.44,6.69,6.69,0,0,1-3.94,7.13 c -2.42,1-4-.35-4.12-1.69 S 273.78,388.57,275.37,389.36Z" fill="param(accent_colour_2)"/>
    <path d="M 265.28,375.57 a 14.18,14.18,0,0,1,14.58-.27 c 7.92,4.42,7.5,10.79,6,15.63 a 16.14,16.14,0,0,1-5.5,7.65 s 4.73-2,6.56-9.21 a 13.09,13.09,0,0,0-7.69-15.25 C 274.16,371.95,268.78,372.24,265.28,375.57Z" fill="param(accent_colour_2)"/>
    <path d="M 192.47,433.65 s -7.11-3.48-12.81,2.22 a 11.27,11.27,0,0,0,.67,16 c -2.85-.9-5.17-4.67-4.26-10.64 C 176.9,435.7,183.5,429.13,192.47,433.65Z" fill="param(accent_colour_2)"/>
    <path d="M 181.35,478.26 s 3.93,1.41,4.82-2.73 c 1.06-4.91-3.88-7.43-7.64-6.91 s -9.86,5.57-5.46,15.59 c 3.88,8.83,15.73,7,18.42.83,2.24-5.15,2.5-9.67.53-14.88,1,3.41,1.49,14.45-4.36,17.13-6.32,2.9-12.54,1.06-14.25-5.08 s .75-10.83,4.33-12.25 c 3.41-1.35,6.59.36,7.25,2.33 C 186.24,476,184,478.08,181.35,478.26Z" fill="param(accent_colour_2)"/>
    <path d="M 185.19,464.09 s -8.87-4.3-15.86,2.69 c -4,4-5.67,14.42,1.78,19.33-3.5-1.11-6.66-5.89-6.06-12.72 S 174.18,458.54,185.19,464.09Z" fill="param(accent_colour_2)"/>
    <path d="M 311.29,389.76 s .34-3.81-3.3-4.08 c -4.25-.31-6.05,4.5-5.06,8.13,1.13,4.13,7.56,7.75,14.25,3.94,8.32-4.74,5-17.16-1.37-19.06-5.34-1.59-11.52-.95-13.78,1.55,3.53-2.42,13.93-3,17.28,2.39,3.62,5.87,2,12.52-3.87,14.94 s -10.44-.44-11.62-3.87 c -.95-2.74.44-6.23,2.38-6.94 C 308.93,385.74,310.81,387.17,311.29,389.76Z" fill="param(accent_colour_2)"/>
    <path d="M 296.88,387.67 s -3.31,8.83,4.42,14.88 c 4.43,3.47,14.31,3.94,19.44-2.31-1.51,3.59-5.39,5.52-12.19,5.75 S 292.74,399.18,296.88,387.67Z" fill="param(accent_colour_2)"/>
    <path d="M 322.27,451.06 s .22-3.53-2.79-3.78 c -4.24-.35-5.85,4-5,7.13 s 4.65,7.55,13,3.45 c 6.42-3.17,4.65-14.54-.83-16.17-4.56-1.35-9.33-.75-12.21,1.22,2.77-1.21,11.85-2.86,14.71,1.78,3.09,5,1.66,10.94-3.33,13 s -9.5-.08-10.25-3.33 c -.56-2.41-.4-5,2.17-5.92 C 320.49,447.45,321.86,448.85,322.27,451.06Z" fill="param(accent_colour_2)"/>
    <path d="M 310,449.28 a 11.24,11.24,0,0,0,4.11,12.24 c 3.78,3,10.6,4.4,16-1.72-1.56,3-3.82,4.8-9.62,5 S 306.93,459.24,310,449.28Z" fill="param(accent_colour_2)"/>
  </g>
<script type="text/ecmascript" xlink:href="param.min.js"/> 
</svg>
