<?xml version="1.0"?>
<svg xmlns="http://www.w3.org/2000/svg" xmlns:xlink="http://www.w3.org/1999/xlink" viewBox="0 0 600 1032.36">
  <defs>
    <filter id="luminosity-noclip" x="300.03" y="686.8" width="8.16" height="42" filterUnits="userSpaceOnUse" color-interpolation-filters="sRGB">
      <feFlood flood-color="#fff" result="bg"/>
      <feBlend in="SourceGraphic" in2="bg"/>
    </filter>
    <mask id="mask" x="300.03" y="686.8" width="8.16" height="42" maskUnits="userSpaceOnUse">
      <g filter="url(#luminosity-noclip)">
        <image width="34" height="175" transform="translate(300.03 686.8) scale(0.24)" xlink:href="HS0051.png"/>
      </g>
    </mask>
    <filter id="luminosity-noclip-2" x="316.59" y="691.6" width="13.2" height="33.36" filterUnits="userSpaceOnUse" color-interpolation-filters="sRGB">
      <feFlood flood-color="#fff" result="bg"/>
      <feBlend in="SourceGraphic" in2="bg"/>
    </filter>
    <mask id="mask-2" x="316.59" y="691.6" width="13.2" height="33.36" maskUnits="userSpaceOnUse">
      <g filter="url(#luminosity-noclip-2)">
        <image width="55" height="139" transform="translate(316.59 691.6) scale(0.24)" xlink:href="HS0052.png"/>
      </g>
    </mask>
    <filter id="luminosity-noclip-3" x="363.87" y="654.16" width="14.64" height="48.48" filterUnits="userSpaceOnUse" color-interpolation-filters="sRGB">
      <feFlood flood-color="#fff" result="bg"/>
      <feBlend in="SourceGraphic" in2="bg"/>
    </filter>
    <mask id="mask-3" x="363.87" y="654.16" width="14.64" height="48.48" maskUnits="userSpaceOnUse">
      <g filter="url(#luminosity-noclip-3)">
        <image width="61" height="202" transform="translate(363.87 654.16) scale(0.24)" xlink:href="HS0053.png"/>
      </g>
    </mask>
  </defs>
  <title>HS005</title>
  <g id="main-colour">
    <path d="M 408.08,700.36 c -22-18-24.67-65.33-10-96.67 s 53.76-91.33,41.09-152 S 382.74,373,347.41,375 s -48.67,26-48.67,26-34.67-45.46-92-16.13 S 138.74,491.7,174.63,551 c 31.94,52.82,46.51,114.77,17.63,152.24,4.63-1.33,11.67-4,15.48-8.4-2,5.37-6.71,9.6-9.6,11.81 a 50.3,50.3,0,0,0,25.1-15.31 c -4.4,9.3-11.19,17.31-14.6,21.39 l .49.21 a 35.24,35.24,0,0,0,19-7.27 s -3.67,9.33-8,11 A 32.84,32.84,0,0,0,230.41,714 l -2.67,6 s 6.67-4,10-8.33 a 29.53,29.53,0,0,1,.67,11.67 s 10-8,12.67-15.33 c 1.33,12,.33,18.33.33,18.33 s 4.33-4.67,5.33-9 A 29.63,29.63,0,0,1,258.41,728 s 3.67-4,3.67-7.67 a 43.83,43.83,0,0,1,1,8.67 s 7-6.33,8-15 a 49.65,49.65,0,0,1,.33,16 s 4-4.67,4.67-7 c 1.57,3.45.78,7.77.68,8.28 h 0 c .4-.5,7.29-9.19,7.29-17 a 77.94,77.94,0,0,1,1,17.67 l 6-8,1.67,8.67 s 1.33-13.33,2.67-17 c .67,8.33,5.67,17,5.67,17 a 54.52,54.52,0,0,1,0-11 c .59,4.72,6.4,10.22,7.72,11.42 H 309 c -.24-1.61-1.45-10.75.37-17.42,1,7.67,4.67,13.67,8,16.67-.33-5-.33-10.33-.33-10.33 s 3.67,7.67,8.33,9.67 a 32,32,0,0,1-1-7 s 4,5,8,6 c -3-4.67-1.67-18.33-1.67-18.33 s 4,12.33,11.67,17 c -3-5.67-2-9.67-2-9.67 s 5,7,9,8.33 c -.33-3.33-1.67-11-1.67-11 s 4.33,7,10.33,8.33 c -4-5.67-2.67-17-2.67-17 s 3.67,9.67,12.33,14.33 a 56.76,56.76,0,0,1-1.67-8.33,17.71,17.71,0,0,0,7,6.67 c -2-4-2.33-9.67-2.33-9.67 s 2.32,4.3,9.6,7 l 0,0 c -3-5.67-3.31-15.3-3-20,2,10.33,11,15,11,15 s -3-7.67-3-10.67 c 2.33,4.33,12.33,5.67,12.33,5.67 s -5.33-5.33-7.33-19.67 C 395.41,697,408.08,700.36,408.08,700.36Z M 373,525.9 a 73.84,73.84,0,0,1-146.82-4.08 c .9-10.15,3.78-28.11,13.1-38.46 a 82.63,82.63,0,0,1,10-3.93 c 1.92-3.93,4.9-9.5,7.87-13.07 a 93.78,93.78,0,0,0-4,11.88 c 1-.28,2-.55,3-.82.6-1.41,2.06-4.6,3.21-5.57 a 24.22,24.22,0,0,0-.92,5 c 3.59-.87,7.39-1.64,11.34-2.29 a 53.71,53.71,0,0,1,5.42-11.87 c -1.21,3.23-1.69,8-1.87,11.32 a 181.86,181.86,0,0,1,20.43-1.72 c .43-2,1.44-6.58,2.45-9.6-.24,2.87-.14,7.28-.06,9.54 a 170.27,170.27,0,0,1,27.1,1.71,24.43,24.43,0,0,0-1.21-6.42,47.84,47.84,0,0,1,3.84,6.81 l .35.06 a 28.48,28.48,0,0,0-1.36-8.71,36.39,36.39,0,0,1,4.45,9.26,123.35,123.35,0,0,1,19.75,5.4 A 57,57,0,0,0,346.41,469 a 55.06,55.06,0,0,1,5.89,12.64,93.35,93.35,0,0,1,8.94,4.19 C 371.1,496.61,373.32,516.19,373,525.9Z" fill="param(main_colour)"/>
  </g>
  <g id="accent-colour-1">
    <path d="M 293.08,417.36 s -45.33,12.83-52,62.5 C 250.74,457.53,262.41,436.53,293.08,417.36Z" fill="param(accent_colour_1)"/>
    <path d="M 264.08,472.7 s 1.67-30.83,29.83-51.67 C 281.91,433.7,273.08,449.7,264.08,472.7Z" fill="param(accent_colour_1)"/>
    <path d="M 297.74,424 s -14,18-8,46 C 290.41,455,294.08,434,297.74,424Z" fill="param(accent_colour_1)"/>
    <path d="M 303.41,421.7 s 9.83,18.17,11.83,48.17 C 320.08,445,313.41,434,303.41,421.7Z" fill="param(accent_colour_1)"/>
    <path d="M 307.41,416.36 s 28.17,16.17,32.67,57.33 C 343.41,454.86,334.74,428.53,307.41,416.36Z" fill="param(accent_colour_1)"/>
    <path d="M 361.41,482.36 s -5.67-45.83-44-64 C 353.58,430.7,361.24,460,361.41,482.36Z" fill="param(accent_colour_1)"/>
    <path d="M 296.41,403.7 s -33.17-30.5-72.5-17.17-56.83,51.17-60.17,85.83,18.77,72.27,30.67,97.67 c 12.33,26.33,34.17,88.67,8.67,123,20.67-18.67,19.67-49.17,10-89.67-7.13-29.89-28.17-58-37.83-99.33 s 9.17-79.67,30.17-97.67 S 255.74,382,296.41,403.7Z" fill="param(accent_colour_1)"/>
    <path d="M 292.24,413.53 s -42.5-2.5-64.17,64.5 c -9.67,26.67-7,52.67,6,83.67 s 44.5,109.17,9,152.67 c 8-20.67,16.83-52.67,6-92-8.31-30.16-15.33-45.83-23.33-65.5 s -15-43.83-6.33-78.83 S 251.91,408.53,292.24,413.53Z" fill="param(accent_colour_1)"/>
    <path d="M 295.08,405.36 s -36.33-18.5-69.67.83-48.67,65.5-40.33,98.17 c 7.57,29.69,15.33,48,21.33,61 s 32.67,64.17,8.33,129 c 12.67-20.33,19.83-33.5,13.33-81.67-4.37-32.4-26.17-64-34.17-101-7.31-33.82,1.33-62.5,19.33-86.17 S 265.74,397,295.08,405.36Z" fill="param(accent_colour_1)"/>
    <path d="M 294.08,408.7 s -35.33-8.83-62.33,10.83-34.83,72.5-28.83,98.83 S 217.08,564,224.08,580.7 s 28.33,72.67,5.33,127 c 19.33-13.33,22.17-46,12.17-88 S 215.58,561,208.91,521 s 5.83-72.5,19.83-88.17 C 242.41,417.57,259.08,405.53,294.08,408.7Z" fill="param(accent_colour_1)"/>
    <path d="M 247.74,577 s 29.67,59.67,13.33,140.33 C 282.24,685.86,278.41,617.7,247.74,577Z" fill="param(accent_colour_1)"/>
    <path d="M 304.08,412.36 s 20-4.33,44.67,15 S 387.41,500,375.08,536.7,349.87,591,348.08,635 c -1.83,45,11.33,72.17,15.17,79.17-9.67-37.83-11.83-67.83-7.83-92.17 s 10.83-42.67,20.17-67.33,13.83-57.17,5.17-88.17 S 338.24,404,304.08,412.36Z" fill="param(accent_colour_1)"/>
    <path d="M 301.08,402.7 s 15.67-17.67,41.67-19.33,59,8.83,75,36.17,20,65.5,7.33,102.5-36,70-41,105,4.67,59.33,4.67,59.33-16-24.33-9.33-60.5 c 7.64-41.45,38.67-88.67,44.33-122.33 s -3.83-79.67-30.17-100.33 S 329.41,383,301.08,402.7Z" fill="param(accent_colour_1)"/>
    <path d="M 302.41,404.7 s 39.83-21,73.83-2.33,41.17,60.83,38.83,88.5-21.5,70.83-27.5,84.17-28.83,63.33-4.83,126 c -14.67-22.33-18.67-76.5-2.33-117.83 s 30.83-66.67,28.83-104.67-18.83-67.17-49-76 C 332.6,394.44,316.74,400.7,302.41,404.7Z" fill="param(accent_colour_1)"/>
    <path d="M 303.08,408.36 s 31.86-10.83,64.83,7.17 c 32.67,17.83,37.17,82.17,26.17,114.5 s -24,52.33-28.33,91,4.33,75,10,89.33 c -13-15-20.67-52-16.33-82.67 s 16-59.33,26-88,11.5-70.33-2.5-95 S 350.08,403,303.08,408.36Z" fill="param(accent_colour_1)"/>
    <path d="M 351.41,578.36 s -21.92,58.75-1.17,138 C 331.41,693.53,327,619.86,351.41,578.36Z" fill="param(accent_colour_1)"/>
    <path d="M 268,592 s 24.24,55.33,7,126.67 C 295.24,695.11,293.33,624,268,592Z" fill="param(accent_colour_1)"/>
    <path d="M 335.16,588.7 s -20.25,70.83,2.08,130.17 C 316.74,699.36,308.49,638.86,335.16,588.7Z" fill="param(accent_colour_1)"/>
    <path d="M 286.67,596.7 s 18.83,53.67,3.58,124.17 C 305.74,700.86,308.33,630.7,286.67,596.7Z" fill="param(accent_colour_1)"/>
    <path d="M 313.41,594.36 s -7,71.33,9.33,126.67 C 304.74,702.36,298.08,652.36,313.41,594.36Z" fill="param(accent_colour_1)"/>
  </g>
  <g id="accent-colour-2">
    <path d="M 295,418.11 s -35,19.25-46.5,60.25 C 258.16,458.36,266.74,440.61,295,418.11Z" fill="param(accent_colour_2)"/>
    <path d="M 278,471.61 s -3.42-21,18-50.25 C 283,444.36,280.74,461.36,278,471.61Z" fill="param(accent_colour_2)"/>
    <path d="M 299.41,422.7 S 306,450.61,301.74,469 C 309.08,450,302.74,429.36,299.41,422.7Z" fill="param(accent_colour_2)"/>
    <path d="M 305.49,418.86 s 23,24.25,25,54.25 C 333.24,454.61,318.49,427.53,305.49,418.86Z" fill="param(accent_colour_2)"/>
    <path d="M 316.41,419.36 s 26.33,12.75,36.58,60 C 352.66,456.7,337.08,428.7,316.41,419.36Z" fill="param(accent_colour_2)"/>
    <path d="M 287.74,416.61 s -48.5,12-61.67,91.75 C 226.74,476.36,250.24,423.11,287.74,416.61Z" fill="param(accent_colour_2)"/>
    <path d="M 314.08,414.7 s 55.67,8.42,59,91.33 C 374.74,469.36,359.49,422.36,314.08,414.7Z" fill="param(accent_colour_2)"/>
    <path d="M 292.41,410.7 s -32.67-7.58-59.67,28.67 c -26,34.91-22.5,86-13.67,108.33-11.08-23.58-12.92-67.58,4.42-99.58 S 272.08,405.7,292.41,410.7Z" fill="param(accent_colour_2)"/>
    <path d="M 231.74,580.7 s 34,73.92,8.33,128 C 250.41,693.36,262.74,646.86,231.74,580.7Z" fill="param(accent_colour_2)"/>
    <path d="M 240.08,568.36 s 37.42,74.25,15,142 C 269.41,674,266.49,616.61,240.08,568.36Z" fill="param(accent_colour_2)"/>
    <path d="M 256.08,578.7 c -1.35-2.3,38.67,70.17,10.67,136 C 281.74,692.36,286.49,630.36,256.08,578.7Z" fill="param(accent_colour_2)"/>
    <path d="M 272.41,587.7 S 303.49,636.36,286.08,715 C 297.08,687,296.74,619.36,272.41,587.7Z" fill="param(accent_colour_2)"/>
    <path d="M 296.41,596 a 153.28,153.28,0,0,1,6,46.33 C 304.49,622.36,303,609.11,296.41,596Z" fill="param(accent_colour_2)"/>
    <g mask="url(#mask)">
      <path d="M 304.41,689 s -5.67,20.33,1.33,37.67 C 305.08,712.36,304.08,695.36,304.41,689Z" fill="#cdbea5"/>
    </g>
    <path d="M 326.74,590.36 s -17,21.5-12,67.33 C 315.08,637.36,315.24,616.36,326.74,590.36Z" fill="param(accent_colour_2)"/>
    <g mask="url(#mask-2)">
      <path d="M 318.74,693.7 s 1.33,17,8.67,29 C 325.74,711.36,321.08,698,318.74,693.7Z" fill="#cdbea5"/>
    </g>
    <path d="M 342.08,715 s -28.08-55.42-.31-134.82 C 328.74,630.61,327.41,663.36,342.08,715Z" fill="param(accent_colour_2)"/>
    <path d="M 359.41,565.36 s -17.17,39.5-15.42,86.75,8.75,57.75,8.75,57.75 S 333.24,638.61,359.41,565.36Z" fill="param(accent_colour_2)"/>
    <path d="M 220.08,704 s 15.17-15.17,15.92-50.17 c .76-35.33-4.75-51-14.25-74.83 C 230.08,603.36,246,656.86,220.08,704Z" fill="param(accent_colour_2)"/>
    <path d="M 203.41,533.7 s -16-36.67-3-76.67,46-62,94.33-50 c -14.33-2.33-49.22-7.88-73.72,18 C 189.18,458.56,196.08,512.7,203.41,533.7Z" fill="param(accent_colour_2)"/>
    <path d="M 294,403.61 s -34-16-61.75-5.5 C 200.89,410,180.33,448.28,180,481.61 s 18.5,71.25,25.5,87.25,16.92,42.83,15.25,66.83 c -2.33-25.33-8-46.83-20.5-75.08-12-27.13-29.25-60.75-21-98.75 C 188.31,420.08,228.66,370.95,294,403.61Z" fill="param(accent_colour_2)"/>
    <path d="M 292.41,397.7 S 264.24,369.11,221,383.61 C 181.11,397,162.33,443,161,464.36 s .17,45.42,13.5,73.75,57.25,100,26.58,156.92 a 119.5,119.5,0,0,0,5.17-74.42 c -6.67-26-13-41.73-29-71.25 s -23.08-59.17-17.75-93.5,34.58-64.17,52.25-71.17 S 262.74,367.7,292.41,397.7Z" fill="param(accent_colour_2)"/>
    <path d="M 302.41,399 s 13.25-19.58,47.58-21.92 S 419.41,400,430.08,429 s 15.7,64.81-6.83,116.58 c -15.67,36-29.83,55.08-34.17,79.75 s .67,55.67,9.67,66.67 c -7.75-7.17-18.22-28.7-11.5-68.42,3.67-21.67,19.94-47.48,33.75-78.75,17-38.5,17.32-70,13.75-91.25-4-23.75-14.75-45.67-39.75-62 S 330,373.36,302.41,399Z" fill="param(accent_colour_2)"/>
    <path d="M 305.24,401.86 s 17.83-13.42,47.5-11.75,53.75,23.5,62.75,50.5,9.83,60.5-3.5,90.5-24.42,55.56-31.25,77.25 C 375,626.61,367.74,665,391.08,701 c -12.33-11.67-26.08-48.67-12.33-93.17,15.57-50.4,28.25-60.25,37.25-99.25 s -3-75.5-15.75-90.75 C 382.09,396.16,351,380.61,305.24,401.86Z" fill="param(accent_colour_2)"/>
    <path d="M 306.24,405.36 s 26.9-11.29,59.75,3.5,40.42,54,39.75,76-6,45.5-12.67,61.5-17.33,38.33-19,44 c 5.33-19,22.95-54.92,26.39-74.18,4.25-23.75,5.61-57.23-9.73-82.57 S 342.49,398.61,306.24,405.36Z" fill="param(accent_colour_2)"/>
    <path d="M 304.08,409.7 s 23.9-4.82,46.43,6.81 c 23.25,12,43.48,48.69,40.48,86.36-1.33,18-6.92,36.17-6.92,36.17 S 393,500.11,387,475.11,363.49,404.36,304.08,409.7Z" fill="param(accent_colour_2)"/>
    <g mask="url(#mask-3)">
      <path d="M 366.08,656.36 s .67,28.67,10,44 C 372.74,686.7,368.41,669.36,366.08,656.36Z" fill="#cdbea5"/>
    </g>
  </g>
<script type="text/ecmascript" xlink:href="param.min.js"/> 
</svg>
