<?xml version="1.0"?>
<svg xmlns="http://www.w3.org/2000/svg" xmlns:xlink="http://www.w3.org/1999/xlink" viewBox="0 0 600 1032.36">
  <title>HS008</title>
  <g id="main-colour">
    <path d="M 394.74,404.36 c -26.67-26.67-73.33-28.91-92.88,1 h 0 s -19.25-28.3-63.62-21 c -39.5,6.5-69,44.5-69.7,101.56 A 114.91,114.91,0,0,0,182,542.62 c -3.15.48-6.81,2-10.81,5.49-12.49,10.88-9.28,28.59,3.2,37,9.75,6.59,24.6,5.59,34.05-3.68.87,1.23,1.71,2.45,2.52,3.67 l .54.83 c 1.68,2.72,6.65,11.73,5.08,20.92-4.88-5.5-21.71-6-27.54,6 s 2,28,21.84,27 a 33.72,33.72,0,0,0,12.54-3.18 A 35.75,35.75,0,0,1,219,646.87 a 42.47,42.47,0,0,1-7.28,8.6 c -4.59-1.75-13.7-3.76-22.48,2.9-12.5,9.5-11.5,34.5,14,39,11.91,2.1,23.27-2.34,32.31-8.85.7,5.22,3.28,10.9,9.69,15.85,13.21,10.19,33.26,3.85,41.86-11.28 a 25.09,25.09,0,0,0,12.14,6.28 c 10.23,2.36,18.4-2.58,23.79-8.71 a 44.6,44.6,0,0,0,34.21,17.71 c 16.27.42,38.5-19,22-38 a 32.65,32.65,0,0,0-7.21-6.31 c 4.86-1.65,9.37-5.25,13.13-11.27,0,0-.34.16-.94.41-.3.12-.67.26-1.09.41 a 27.86,27.86,0,0,1-6.19,1.41 c -.72.07-1.46.12-2.22.13 a 18.68,18.68,0,0,1-4.69-.54q-.59-.15-1.19-.35 a 15.29,15.29,0,0,1-2.34-1,15.09,15.09,0,0,1-2.25-1.48,16.79,16.79,0,0,1-3.1-3.24,21.18,21.18,0,0,1-1.66-2.69 c 9.32,5.4,22.17,5.59,29.2-1.39,11.78-11.7,5.29-26.73-3.44-31.49-8.39-4.58-17,.45-17,.45 s -2.79-3.4.42-15.25 c 8.7,6.82,22.72,7.87,30,.63,11-10.89,4.92-24.87-3.2-29.3 a 15.53,15.53,0,0,0-10.82-1.39 c 10.57-15.69,23.12-31.24,30.59-58.22 a 104.07,104.07,0,0,0,3.45-24.48 C 419.55,458.44,414.24,423.86,394.74,404.36Z M 228.67,522.69 h .11 c -.13-13.34,12.86-30.52,28.05-39.08,15.67-8.83,41.5-11.17,48-36.83,3.33,11.5,10.83,20.67,28.17,28.5 s 40.33,24.5,37.67,49.17 c -.24,4.42-1.76,21.75-9.83,33.21 C 347.24,577,325.12,590,299.76,590 a 73.88,73.88,0,0,1-63.21-35.69 C 232.2,547.33,228.41,534.86,228.67,522.69Z" fill="param(main_colour)"/>
  </g>
  <g id="accent-colour-1">
    <path d="M 187.24,555.61 s -6.5-3.75-11,5.5 c -4.06,8.35,6.25,21.5,17.75,16.5 s 10.75-20.25,2.25-38.75-16.75-47.75-4.25-83.25,33-55,57.75-58 c 21.71-2.63,42,8.25,49,16.25-4.5-12.25-26.56-29.14-63.5-20.5-31,7.25-50.25,46.25-55.75,75.75 s 2.25,52.25,11.25,70.75,7.95,29.32.33,31.5 C 179.74,574.61,174.41,557.28,187.24,555.61Z" fill="param(accent_colour_1)"/>
    <path d="M 300.41,444 s -6.67,20.33-31.33,28-59.33,34-40.33,79 c -10.67-18.33-12.76-45.44,3.17-63.67,16.17-18.5,29.67-19.83,39.5-23.5 C 281.58,460.07,296.41,452,300.41,444Z" fill="param(accent_colour_1)"/>
    <path d="M 298.41,420 s -32.33-22.5-62-2.5-39.67,62-37.67,85.33,23.33,67.5,27.33,91.5-12.83,33.75-19.83,30.5-1-10.5,3.25-7.5 c -1-4.5-6.75-2.25-8.5-.75 s -5,10,6.75,13,21-9,23.25-16.75,1.92-20.92-5.58-42.17-24.75-58.83-16.5-93.33,22-49.92,40-57.67 S 283.33,413.7,298.41,420Z" fill="param(accent_colour_1)"/>
    <path d="M 300,427.36 c .75,0-33.42-11-57.5,8.5-25.55,20.69-29.25,52.5-28.25,64,3.5-21.25,12.25-40.08,24.5-51.83 C 248.7,438.47,271.24,427.61,300,427.36Z" fill="param(accent_colour_1)"/>
    <path d="M 299,434.61 s -13,13.08-31.75,18.08 S 233,471.11,228.49,478.86 c 5-15.75,18.25-27,29.75-31.25 S 286.24,442.61,299,434.61Z" fill="param(accent_colour_1)"/>
    <path d="M 231.24,562.86 s 23.25,39.25,16.75,65.5 c -7.64,30.84-25.25,51.75-41.25,50.75 s -3.75-17.75,2.75-8.75 c -.25-5.75-7.5-7.75-12-4.25 s -8,14.75,6.5,19.25,27.75-10.5,35.5-20 S 273.49,608.11,231.24,562.86Z" fill="param(accent_colour_1)"/>
    <path d="M 239.74,599.61 s 11,39.25-24,64.75 C 226,653.36,241.49,626.61,239.74,599.61Z" fill="param(accent_colour_1)"/>
    <path d="M 260,585.11 s 28.75,28.25,21.75,54.5-32,7.25-22.5-6,20,4,11.75,7.75 c 1.75-4,.75-6.75-4.25-6.75 s -5.75,13.5,3.5,12.25,9.75-16,6.25-27 S 264,591.11,260,585.11Z" fill="param(accent_colour_1)"/>
    <path d="M 286,605.61 s 10.5,22.25,5.25,57 c -3.52,23.33-15.5,39.25-33.75,35.5 s -16.25-29-2-32.5,17.75,6,17.5,12.5 c -.13,3.26-3.25,10.5-11.75,9-10-1.76-4.75-16,2.25-11-4,1.75-5.75,5-.5,5 s 8.25-8.25.25-10-13,3.25-13.5,11.5 c -.56,9.26,16,12.75,24.25,3.75 S 294.24,650.11,286,605.61Z" fill="param(accent_colour_1)"/>
    <path d="M 382.49,580.61 s 2-5.75,9.25-3.75,8,13.68-.25,18.25 c -9,5-19.25.25-23-10.5 s 6.75-26,16-39.75,21.75-40.25,20.25-74.75-14.25-60.25-40-69.5-47.25-1.25-60,12.5 c 6-11.75,25.75-29.75,62.25-18.5 s 43.5,47.25,44.5,74-7.5,54.75-17.75,72.5-17.5,24.5-19,36.5,10.75,17.25,16,12.25,2.25-9-.25-9.75 S 385.24,578.61,382.49,580.61Z" fill="param(accent_colour_1)"/>
    <path d="M 308,443.61 s 4.5,16.25,19.25,23.75,31.75,15.5,41.5,31.5,6.75,41-.5,54.5 c 8.5-15,16.25-31.5,7.25-54 s -25.75-27.75-37.5-33.25 S 313.49,456.61,308,443.61Z" fill="param(accent_colour_1)"/>
    <path d="M 305.49,419.86 s 21.25-19.5,54.5-8.5,38.75,49.75,35.75,79.5 S 378,538.11,378,538.11 s 16.5-35.25,13.25-65.75-19-54.75-46-58.25 S 305.49,419.86,305.49,419.86Z" fill="param(accent_colour_1)"/>
    <path d="M 304.74,426.36 s 31.5-10.75,55.5,6,30.5,47.25,24,78.75 c .5-20.5-4.25-53.5-27.5-69 S 313.24,425.86,304.74,426.36Z" fill="param(accent_colour_1)"/>
    <path d="M 307,432.86 a 55.64,55.64,0,0,0,24,18.75 c 15.75,6.25,39.75,16.5,48,42.75-1.75-17-10-38-35.25-46.5 S 313.49,439.11,307,432.86Z" fill="param(accent_colour_1)"/>
    <path d="M 364.24,591.36 s -13,13.25-11,33.25,25,23.5,32.5,15.25,4.5-20.25-5.5-22.5-14.75,6.25-12.25,12 c 2.27,5.23,8.5,7,12.75-.75-4.75,2.25-10,2.5-8.75-3 s 10.5-4.5,12,2-4.25,13.5-13,11 S 349.74,623.86,364.24,591.36Z" fill="param(accent_colour_1)"/>
    <path d="M 348.74,577.61 s -29.5,36-25,85.25,51,40.75,52.25,24.75-13.5-24.75-25.5-24.5-12.5,14.5-5.5,20.75,17.5,4.88,19.25-2.12 a 9.45,9.45,0,0,1-14.5-3.87 c -3-7,5.1-10.4,13.17-5.08 s 12.08,16.83-1.17,20.08-25-5-30.25-26 S 331.74,605.86,348.74,577.61Z" fill="param(accent_colour_1)"/>
    <path d="M 361.24,567.61 S 347,601.36,348,626.86 s 13.5,31.5,23.5,32 c -10,2-20.5,1.25-27.5-16.5 S 345.49,593.61,361.24,567.61Z" fill="param(accent_colour_1)"/>
    <path d="M 331.49,589.61 s -19.75,45.75-11.25,81 C 312.74,656.11,308.24,628.11,331.49,589.61Z" fill="param(accent_colour_1)"/>
    <path d="M 308.24,681.61 s -4.75,4.25-8,.5-.75-11.5,7.5-10.5,14.25,9.25,10.75,16.25-17.4,13.71-24.75,2.25 c -6.25-9.75,2.5-26,5.75-36.5 s 10.5-34.25-1.25-56.75 c 8,7,12,22.5,9.5,40.75 s -9,29.5-10.5,35.25-1.2,15.11,6.25,16 c 6.25.75,11.75-5.75,9-10.25 s -8.75-4.25-10-1.5 S 304.49,682.36,308.24,681.61Z" fill="param(accent_colour_1)"/>
    <path d="M 282.23,593.21 s 19.23,27.19,14.28,52.48 C 301.22,625.39,300.86,606.6,282.23,593.21Z" fill="param(accent_colour_1)"/>
  </g>
  <g id="accent-colour-2">
    <path d="M 297.74,429 s -4.75,5.83-27.5,10.58 c -17.66,3.69-30.5,12.08-44.17,34.75,7.17-18.75,21.92-31.75,44.17-37 C 287.42,433.31,291.41,433,297.74,429Z" fill="param(accent_colour_2)"/>
    <path d="M 299.41,440.7 s -5.42,9.92-24.92,16.67 c -18.75,6.49-53.75,18-56.08,57.33-2-16.33,8.08-40.17,33.08-50.83 S 287.49,453.11,299.41,440.7Z" fill="param(accent_colour_2)"/>
    <path d="M 299.24,423.36 s -34.75-14.75-65.5,17.25 c -27,28.07-24.5,66-16.25,93.75-10.75-26-12.5-63.5,13.5-94.5 S 289.91,418.7,299.24,423.36Z" fill="param(accent_colour_2)"/>
    <path d="M 293.41,412.7 s -35-17.75-60.67-.08-37.25,50.67-39.25,78,13.58,56.25,18.25,69.25,16.76,37.2,11.33,51.17 c -3.33,8.58-8.33,11.08-13.33,10.67,5.33-.33,14.83-10.33,11.5-25.33 a 243.22,243.22,0,0,0-14.5-44 c -5.67-12.67-23.17-43.92-13.5-80.25 s 22.67-50.5,37-60.5 S 270,397.36,293.41,412.7Z" fill="param(accent_colour_2)"/>
    <path d="M 298.74,408.7 s -11-21.08-46.75-21.33 c -16-.33-45.33,8.34-63,42.5-15,29-20.57,66.16-9.25,94.75,10,25.25,20,36.75,13.67,43.08-3.67,2.92-8.5,2-8.17-2.33 a 5.31,5.31,0,0,1,4.17-5 s -4.92,4.75.08,6.25 c 2.57.77,5.75-2.5.5-15-4.29-10.22-18.75-27.75-18.75-59.25,0-31.09,8.25-55.5,22-75,13.38-19,35.17-33,59.83-32.33 S 294.41,398,298.74,408.7Z" fill="param(accent_colour_2)"/>
    <path d="M 182.74,549.11 c .95-.31-22.75,9.5-5.5,27.5,11.59,12.09,29.75,5,27.5-12.58,2.67,8.67,0,20.47-15,21.24 S 154.41,558.45,182.74,549.11Z" fill="param(accent_colour_2)"/>
    <path d="M 211.74,612.7 s -7.42-6.58-13.75.42,1.35,18.54,10,19.25 c 12.25,1,25.08-3.33,27.42-27.33 s -13.67-50.83-17.67-67.17 c 4.33,9.33,15.08,30.33,18.75,49 s .42,36.17-10.25,43.5-23.75,6.75-30.75-4 S 201.74,600.36,211.74,612.7Z" fill="param(accent_colour_2)"/>
    <path d="M 244.74,624.36 s -9,48.25-39.67,48.67 C 220.41,676.36,240.08,660.7,244.74,624.36Z" fill="param(accent_colour_2)"/>
    <path d="M 212.41,665.7 S 204,656.36,196,662.36 a 15.09,15.09,0,0,0,.63,24.63 c 9,6.33,26.5,5.29,41-12.12,12-14.37,15.46-31.5,15.46-31.5 s -4.92,28.5-23.58,41.5-37.25,7.75-41.25-7.25 S 202.74,650.11,212.41,665.7Z" fill="param(accent_colour_2)"/>
    <path d="M 248.08,576.36 s 15.42,22.25,14.67,48.25 C 265.49,608.36,259.24,587.86,248.08,576.36Z" fill="param(accent_colour_2)"/>
    <path d="M 271.12,587 s 17.08,19,15.25,50.88 C 284.49,670.49,275.74,681,275.74,681 S 299.12,628.74,271.12,587Z" fill="param(accent_colour_2)"/>
    <path d="M 274.74,666.7 s -6.67-10-21.67-4 C 259.74,657.11,271.24,658.11,274.74,666.7Z" fill="param(accent_colour_2)"/>
    <path d="M 241.74,686.7 s 4.67,20,24,15.54 c 19.13-4.37,23.67-22.87,23.67-22.87 s -2.25,19.92-22.92,24.25 S 241.41,689.36,241.74,686.7Z" fill="param(accent_colour_2)"/>
    <path d="M 266.24,676.61 a 7,7,0,0,0-8.5-2.75 c -5,1.63-6.88,14,2.75,15.13,6,.5,8.5-1.62,8.5-1.62 a 11.7,11.7,0,0,1-12.5,1.75 c -7.29-3-4.57-11.73-2.38-14.5 C 257,671,265,670.74,266.24,676.61Z" fill="param(accent_colour_2)"/>
    <path d="M 270.74,638.61 s -2.5-3.25-5-1.25-1,8.38,4.75,7.5 c 6.5-1,6.75-11.5,6.25-14-.25,6.75-2.2,12.4-6.25,12.75 C 264.74,644.11,264.68,635.18,270.74,638.61Z" fill="param(accent_colour_2)"/>
    <path d="M 291.74,595.11 s 13.75,13.75,9.5,40.13 c -3.19,19.8-8.37,30.88-8.37,30.88 a 92.75,92.75,0,0,0,10.38-38.5 C 304.24,605.36,291.74,595.11,291.74,595.11Z" fill="param(accent_colour_2)"/>
    <path d="M 317.74,591.36 s -11.87,36.75-7.25,76.5 C 309,641.24,314,610.24,317.74,591.36Z" fill="param(accent_colour_2)"/>
    <path d="M 357.24,661.61 s -18.25-9.87-20,11 C 336.24,656.11,349.49,656.11,357.24,661.61Z" fill="param(accent_colour_2)"/>
    <path d="M 357.24,681.11 s -6.88-6.07-.87-7.87 c 6.25-1.87,14.92,8.51,11.13,13.38-4,5.13-16.12,8.25-25.25-2,7,6.75,19.25,6.88,23.5,1.38 s -3-10.75-6.87-11 C 357.05,674.87,353.74,677.11,357.24,681.11Z" fill="param(accent_colour_2)"/>
    <path d="M 323.49,676.86 s 10.25,31.75,40.5,25.25 c 25.79-5.54,18.38-31,0-36.75,11.13,2.13,17.64,11,18,19.5.38,8.88-6.87,18.5-22.12,20 S 327.74,696.61,323.49,676.86Z" fill="param(accent_colour_2)"/>
    <path d="M 356.12,568.24 s -29.5,58.75-12.62,83.88 C 333,644.11,333.12,610.24,356.12,568.24Z" fill="param(accent_colour_2)"/>
    <path d="M 299.74,684.61 s 4.45,4.48,9.25,2 c 3.63-1.87,3.13-7.12,0-8.5 a 7.4,7.4,0,0,0-5.25-.25 s 7-.5,6.5,4.38 C 309.91,685.48,306.49,688.86,299.74,684.61Z" fill="param(accent_colour_2)"/>
    <path d="M 350,626.36 s 0,31.63,26.63,30.88 C 365,655.61,354.74,651.61,350,626.36Z" fill="param(accent_colour_2)"/>
    <path d="M 367.37,588 s -17.12,37.13,2.13,47.88 C 362.87,628.49,356.62,620.74,367.37,588Z" fill="param(accent_colour_2)"/>
    <path d="M 389.74,584.11 s .38,4.5-3.37,5.38 c -5.55,1.3-12.62-6.37-8.12-13.87 s 14-7.37,20.38.25 c 5.9,7.06,5.88,20.75-10.62,25.25-9.75,2.25-17.25-5.5-18.5-8.25,5.88,7,16,9.5,23.5,5 s 9.63-14.12,5.63-19.62-11.42-9.46-16.75-4.12 c -5.87,5.88-1.25,12,1.25,13 S 389,588.11,389.74,584.11Z" fill="param(accent_colour_2)"/>
    <path d="M 306.74,438.36 s 3.17,9.17,22.5,18 c 15.66,7.16,45,16.83,50.75,51.25-1.75-17-8.92-32.2-27.92-42.42 C 332.24,454.53,312.74,448.61,306.74,438.36Z" fill="param(accent_colour_2)"/>
    <path d="M 306,427.61 s 6.48,6.73,24.08,12.42 c 27.33,8.83,45.92,20.08,49.67,48.83,1.5-11-7-31.33-26.5-41.83 S 324.41,439.86,306,427.61Z" fill="param(accent_colour_2)"/>
    <path d="M 309.24,422.86 s 33.33-10.92,57.33,9.33,23.42,55.17,20.92,71.42 c 4.42-17.75,3.17-42.92-8.58-60.92 S 340.74,410.86,309.24,422.86Z" fill="param(accent_colour_2)"/>
    <path d="M 307.49,414.36 s 28.68-20.69,55.92-8 C 392.74,420,401.63,451,399.74,480.7 c -2,31.5-12.42,48.83-19.67,59.33 s -22.25,33.75-23,56.5 c 3-16.12,9.71-35.89,22.67-53 a 110.77,110.77,0,0,0,21.5-74.67 C 399,437.36,386.58,412,362.08,403.7,335.28,394.58,313,408.61,307.49,414.36Z" fill="param(accent_colour_2)"/>
    <path d="M 304.24,409.61 S 316.74,387,346.74,388 s 60.33,19.83,65,58.33 c -3-23.75-12.88-47.66-50.67-58.17 C 326.91,378.7,306.58,402.36,304.24,409.61Z" fill="param(accent_colour_2)"/>
    <path d="M 415.49,473.61 s 4.08,30.92-12.75,61 c -5.75,10.25-19,28.75-21,33.5,5.25-12.5,14.86-24.4,20.83-36.58 S 416.58,498.2,415.49,473.61Z" fill="param(accent_colour_2)"/>
    <path d="M 367.24,617.61 s 6.75-7.25,17.25-2.5,10.88,19.13,4.38,26.25 c -6,6.56-19.75,10.13-29.12-1,5.88,6.25,17.5,8.13,25,3.13 s 9-15.75,4.75-22 S 376.87,611.86,367.24,617.61Z" fill="param(accent_colour_2)"/>
  </g>
<script type="text/ecmascript" xlink:href="param.min.js"/> 
</svg>
