<?xml version="1.0"?>
<svg xmlns="http://www.w3.org/2000/svg" xmlns:xlink="http://www.w3.org/1999/xlink" id="Layer_1" data-name="Layer 1" viewBox="0 0 600 1032.4">
  <title>HS009</title>
  <g id="main-colour">
    <path d="M 223.9,381 c -40.5,23.4-56.3,89.3-25.7,140 a 100.09,100.09,0,0,0,42.5,39 c -8.5-12.3-12.1-27.4-12.1-43.8,0-15.9,6.5-30,15-42,13.8-15.7,37.9-23.6,56.6-11.3,20.5-13.2,44.3-4,58.7,14.5,7,9,12.3,23.8,12.7,38.8.5,18.3-5.1,34.9-15,47.7,9.9-3.5,67.8-25.7,71.6-90.8,3.7-62.7-42.4-95.1-68.3-100.7-39.2-8.4-59.7,18.2-59.7,18.2 S 268.9,355,223.9,381Z" fill="param(main_colour)"/>
    <path d="M 371.8,536.2 c 9.1-8.4,25.8-6.5,44,1.7 s 26.5,26.5,16,49.2-44.9,30.5-62.7,13.3 a 34.59,34.59,0,0,1-8.9-37.7Z" fill="param(main_colour)"/>
    <path d="M 389.6,544.5 s 6.4-3.9,19.9-20.6,37.5-1.1,29.2,17.3-29.8,11.4-29.8,11.4Z" fill="param(main_colour)"/>
    <path d="M 358.1,561.9 s 7.3.4,1.7,9.9-1.1,24.7,6.5,34.1 c -16.5-12.8-15.4-26-15.4-26 s -4.6,8.2-4,15.5 c -5.7-13.5,4.4-25.6,5.4-26.5Z" fill="param(main_colour)"/>
    <path d="M 432.2,542.7 a 16.94,16.94,0,0,0,16.9-6.4 c -3.1,7.5-8.8,9.1-8.8,9.1 s 14.6,5.5,19.4,17.5 c -3.9-8.3-20.1-12.5-20.1-12.5 s 8.8,5.4,9.7,12.3 c -8.9-12.9-23.3-10.5-23.3-10.5 S 425.8,545,432.2,542.7Z" fill="param(main_colour)"/>
    <path d="M 415.6,526.8 c -5.8,6.6-2.8,12.8-2.8,12.8 C 410.1,535.8,409.4,530.3,415.6,526.8Z" fill="param(main_colour)"/>
  </g>
  <g id="accent-colour-1">
    <path d="M 403.2,437.7 c 22.7,68-35.3,113.3-35.3,113.3 s 36-18.7,46-56-3.3-90-41.3-108-68.7,8.7-68.7,8.7 C 328.6,381.7,383.1,377.3,403.2,437.7Z" fill="param(accent_colour_1)"/>
    <path d="M 375.2,427.7 c -27.2-33.4-70.3-16-70.3-16 s 49.1-35.8,84,19.7 c 31.1,49.5-7,94.3-7,94.3 C 392.9,499.7,404.6,463.7,375.2,427.7Z" fill="param(accent_colour_1)"/>
    <path d="M 366.9,452.4 c -15.7-23.7-45.3-24.3-62.3-19,21.4-22,69.3-7,78,32.3,7.4,33.5-5,49-5,49 C 379.6,502.7,382.6,476,366.9,452.4Z" fill="param(accent_colour_1)"/>
    <path d="M 365.9,479.4 c -24.4-41-61-28-61-28 C 331.5,431.1,364.3,457.1,365.9,479.4Z" fill="param(accent_colour_1)"/>
    <path d="M 244.6,390.7 c -27,7.7-44.7,39.7-46.3,69-1.3,24,12,62,32.7,85.7-23.7-9.7-41.7-57.3-41.7-84,0-29.7,15.7-68.2,49.7-77.7,37.8-10.6,59.8,11.9,59.8,11.9 S 271.6,383,244.6,390.7Z" fill="param(accent_colour_1)"/>
    <path d="M 229.6,428.7 c -19.3,26-12.3,65.7-6,92.3-21-43-18-93.1,16.3-111.7,32.8-17.8,57,1.7,57,1.7 C 275.3,404.7,244.6,408.6,229.6,428.7Z" fill="param(accent_colour_1)"/>
    <path d="M 252.8,436.9 c -22,11-27.5,37.2-27.8,60.8-5.9-32.8,7.8-59.8,27.3-69,21.2-10,44.8,3.9,44.8,3.9 C 284.3,429.6,271.4,427.5,252.8,436.9Z" fill="param(accent_colour_1)"/>
    <path d="M 231.3,488 s 9.2-22.4,24.2-32.7 c 16.4-11.2,40.8-4.7,40.8-4.7 C 242.5,427.1,231.3,488,231.3,488Z" fill="param(accent_colour_1)"/>
    <path d="M 374.5,588.9 c 8.2,9.2,23.4,13.5,35.4,3.9 s 15.1-22.6,6.9-31.8 c -7.1-8-19.1-8.8-28.2,2.7 s 3.5,24.5,11.7,19.7,8-15.4-.5-20.4 c 13.7-2.8,19.8,18.5,3.1,26.1-14.8,6.7-28.8-11.1-23-25.5 s 26.4-19.9,36.6-12.8,16,24.8,5.2,39.5 S 383,610,370,591.8 s 1.5-32.5,1.5-32.5 C 366.4,571.4,367.2,580.7,374.5,588.9Z" fill="param(accent_colour_1)"/>
    <path d="M 417,540.7 c 2.7,3.2,10.3,4.9,13.9-.8 s 2.3-11.9-3.7-11.7-6,7.2-2.7,8.1,4.5-2.7,4.3-4.8 c 3.4,4-.2,9.7-5.6,8.3 s -6.8-9.3-1.8-13.6,12-1.1,14.4,3.4-1,14.3-9,17.1-16-5.2-15.2-13.4 a 17.34,17.34,0,0,1,7.3-12.4 C 411.5,530.7,414.3,537.5,417,540.7Z" fill="param(accent_colour_1)"/>
    <path d="M 382.3,548.8 c 14.2-12.4,30.5-4.8,30.5-4.8 C 402.5,537.4,389.3,538.5,382.3,548.8Z" fill="param(accent_colour_1)"/>
    <path d="M 359.7,562.8 c -14.1,16.6-.6,33.9-.6,33.9 C 354.4,585.5,354.3,572.5,359.7,562.8Z" fill="param(accent_colour_1)"/>
    <path d="M 434.3,549 c 7.4-1.1,18.4,5.9,18.4,5.9 C 446.5,548.5,440.4,546.5,434.3,549Z" fill="param(accent_colour_1)"/>
  </g>
  <g id="accent-colour-2">
    <path d="M 357.9,451.4 c 16,17.8,17,35.8,15.8,55-.8-18.5-1.8-41.2-22-58-21.9-18.2-47-6.7-47-6.7 C 319.6,432.7,341.9,433.6,357.9,451.4Z" fill="param(accent_colour_2)"/>
    <path d="M 373.8,433.9 c 19.6,23.2,17.2,45.2,14.7,56.5,2.3-20.8-2.4-38.4-14.7-53.7-27-32.2-68.2-15.8-68.2-15.8 C 321.9,410.5,354.6,411.1,373.8,433.9Z" fill="param(accent_colour_2)"/>
    <path d="M 403.3,489.1 c -6.5,33.5-32.5,55.3-32.5,55.3 A 163.46,163.46,0,0,0,403.3,489.1Z" fill="param(accent_colour_2)"/>
    <path d="M 366.8,401.9 c -21.2-11.5-49.7-6.7-61.8,2.2,10.3-10.5,46.8-19.4,72.5,2.3 s 27.3,57.8,27.3,57.8 C 400.8,439.4,388,413.4,366.8,401.9Z" fill="param(accent_colour_2)"/>
    <path d="M 415.6,504.9 c 11.2-26.2,7.2-60-1.8-80 a 97.26,97.26,0,0,1,4.5,78.5 c -12.9,34.1-52,53-52,53 S 402.3,536.2,415.6,504.9Z" fill="param(accent_colour_2)"/>
    <path d="M 354.8,376.7 c -19.2-2.8-42.8,5.7-52.5,16.9,10.2-14.8,32.8-20.9,53-18.4,32.2,3.8,49,31.4,49,31.4 C 391.3,390.5,374,379.4,354.8,376.7Z" fill="param(accent_colour_2)"/>
    <path d="M 238.1,403.4 c -26,13.7-32.7,37-33.2,61 s 8.5,51.8,20.6,66.8 c -13.6-10.8-22.9-45.3-22.6-67.6.5-30.5,12.7-59.2,47.7-68,29.7-7.5,46.9,8.3,46.9,8.3 C 277.4,392,256.6,393.6,238.1,403.4Z" fill="param(accent_colour_2)"/>
    <path d="M 261.1,417.9 c -18.7,4.5-31.2,15.7-37.7,37.7,3.5-23.5,20.1-37.3,39.3-40.5,21.3-3.5,35.8,6.2,35.8,6.2 C 289.3,418.2,279.8,413.4,261.1,417.9Z" fill="param(accent_colour_2)"/>
    <path d="M 259.1,443 c -17.8,8.2-29,26.5-29.6,45.6-1.9-15.2,7-38.6,28.8-47.6 a 51,51,0,0,1,40,.3 C 292,439.6,276.8,434.8,259.1,443Z" fill="param(accent_colour_2)"/>
    <path d="M 238.3,377.9 c -22.2,6.8-37.5,24.5-41,38,5.2-10,17-28,43.5-36.5 s 49.8,7,49.8,7 C 278.3,376.1,260.5,371.1,238.3,377.9Z" fill="param(accent_colour_2)"/>
    <path d="M 233.5,551.9 c -46.8-31.2-47.2-90-47.2-90 C 182.8,503.4,211.5,542.9,233.5,551.9Z" fill="param(accent_colour_2)"/>
    <path d="M 418.7,548.3 c 25.8,22.2,1.6,48.3,1.6,48.3 C 442.9,574.5,427.3,552.2,418.7,548.3Z" fill="param(accent_colour_2)"/>
    <path d="M 361.5,574.5 c 2.5,36.8,38.9,31,38.9,31 C 371.6,611.9,358.4,588.1,361.5,574.5Z" fill="param(accent_colour_2)"/>
    <path d="M 393,574 c -3.8-6.1,2.4-11.8,6.7-13.3,8.1-3,16.7,2.7,18.1,14.3,1-15.2-14.7-22.2-24-13.1 s -.3,19.3,4.7,16.8,3.1-9.1,3.1-9.1 C 400.9,578.9,395,577.2,393,574Z" fill="param(accent_colour_2)"/>
    <path d="M 376.6,584 c -7-10.7-3.1-24,2.7-30,8.6-8.9,19.7-11.8,27-8.2-3.5-.7-12.3-1.5-19.5,3.9-18.1,13.5-13.5,31.1-3.1,39.7 s 22.6,1.7,22.6,1.7 C 394.7,598.2,383.6,594.8,376.6,584Z" fill="param(accent_colour_2)"/>
    <path d="M 395.8,537 c 10-3,15.5,2.5,15.5,2.5 C 407.9,535.1,401.6,534.3,395.8,537Z" fill="param(accent_colour_2)"/>
    <path d="M 420.1,522 c -3.4,2.1-4.9,7.6-3.4,13.2,0-5.6,1.5-11.4,6-13.1,8-3,14.4,5.7,14.4,5.7 C 431.5,518.4,423.5,519.9,420.1,522Z" fill="param(accent_colour_2)"/>
    <path d="M 426.8,529.7 c 2.8-.5,4.5,1.4,5.3,3.2-1-4.3-4.4-4.3-6.5-3.4-2.4,1-3.1,4.8-.8,5.1 a 2,2,0,0,0,2.5-1.6 C 423.3,535.7,423.3,530.5,426.8,529.7Z" fill="param(accent_colour_2)"/>
    <path d="M 417.5,536.9 c 6,10,12.4,1.4,12.4,1.4 C 425.2,546.5,418,540.7,417.5,536.9Z" fill="param(accent_colour_2)"/>
    <path d="M 425,548.8 c 12.9-.8,12.6-15,12.6-15 C 438.8,544.2,432.4,549.1,425,548.8Z" fill="param(accent_colour_2)"/>
  </g>
<script type="text/ecmascript" xlink:href="param.min.js"/> 
</svg>
