<?xml version="1.0"?>
<svg xmlns="http://www.w3.org/2000/svg" xmlns:xlink="http://www.w3.org/1999/xlink" viewBox="0 0 600 1032.4">
  <title>HS006</title>
  <g id="main-colour">
    <g id="main-colour-2" data-name="main-colour">
      <path d="M 168,547.07 c -14.55,18.61,9.85,41,21,50.38 s -12.69,16.55,5.5,30.4 l .36-.35 c -.22-3.78-3.62-10,4-18.7,3.81-.42,5.81,3.64,7,7.16 a 11.61,11.61,0,0,0-2.06-12.77 c 4.94.77,8.09,4.6,9.95,7.62,2.09-2.41.93-8,.93-8 s 2.35,4.41,6.71,4.38 c -2.41-2.09-1.15-7.57-1.15-7.57 s 2.05,4.37,8.58,5.38 c -4-2.34-.84-9.54-.84-9.54 s 5.42,4.18,6.25,7.35 c 2.69-2.31,4.1-8.77.36-13.4,6.92,1.08,10.66,11.47,10.66,11.47 s 3.28-3.54,1.66-6.12 c 3.26.51,5.27,5.17,5.27,5.17 s 3.33-3.83.89-7.65 c 3.91.91,5.95,7.3,5.95,7.3 a 20.12,20.12,0,0,1,4.76-11.1 c -1.11,5.19,6.37,11.11,6.37,11.11 s -.37-4.11,1.86-5.48 c .68,2.13,4.13,6,4.13,6 s 0-4.36,2.31-6.42 c 3.55,1.26,3.33,6.59,3.33,6.59 s 4.52-3,5.37-6.55 c 3.24,3.24.86,7.52.86,7.52 s 6.08-.07,8.58-5 c -.46,3,4,7,4,7 s .57-3.66,5.07-6.6 c -.66,4.25,6.52,10.12,6.52,10.12 s -1.47-3.57,2.41-7 a 11.3,11.3,0,0,1,2.47,8.18 s 3.08-2.25,4.07-4.73 a 16,16,0,0,1,1.31,6.58,9.78,9.78,0,0,0,5.49-9.27 c 4,4.67,3.74,13,3.74,13 s 1.51-4.52,4.44-7.1 c 1.52,8.43,5,11.21,5,11.21 s 2.44-2.66,2.16-5.43 c 3.06,1.79,2.47,8.18,2.47,8.18 s 4-1.7,5.74-8.92 a 24.84,24.84,0,0,1,2.94,13.61,13.88,13.88,0,0,0,4.32-3.68 c 1.69,2.79.7,8.51.7,8.51 s 2.85-6.64,9.92-5.24 c -5.25,5.15-1.31,13-1.31,13 s .9-3.81,4-4.14 c .78,3.46-.39,9-.39,9 s 6.77,0,8.15-6.83 c 1.14,8.27-2,11.83-4.29,13.3,18.36,3.66,26.34-13.21,23-19.7-3.53-6.62-6.14-12.59,5.88-18.31 S 449.7,574.2,429.2,547.7 s -9.2-34.9,2.6-52.8 c 22.5-34,2.6-77.3-15.2-96-15.9-16.6-37.6-26.5-58.7-28-33.6-2.4-57.4,22.7-57.4,22.7 s -11.5-17.88-50-22.3 c -49.19-5.65-122.06,65.94-72.7,127.67 C 198.08,524.32,180.79,530.67,168,547.07Z M 226.8,524 c 0-12.2,2.8-29.6,16.5-44.2,17-18.2,47.3-5.8,56.8-24.2,11.5,20,39.7,4.5,57.2,22.3,14.3,14.6,15.8,38.9,15.5,51.8 a 73.85,73.85,0,0,1-146-5.7Z" fill="param(main_colour)"/>
    </g>
  </g>
  <g id="accent-colour-1">
    <path d="M 408.15,419.73 c 16.7,28,17.3,48.7-.7,78 s -7.64,43.24.67,57.47,5.33,22.58-5.06,29.42-21.17,14.25-17.93,27.51 c 2.25,9.18,2.73,19.05-1.18,29.75,4.73-.8,10.8-12.31,8-25.49-1.26-6-4.13-15.38,11.58-25.59 S 425.12,570,418.5,556.88 s -18.85-29.16-8.25-45.86,19.2-23.8,20.5-48.5-19.7-72.2-63-79.5-59.2,15.1-59.2,15.1 C 344.75,376.23,391.45,391.73,408.15,419.73Z m -70.7,35.7 c 14,0,28.5,9,32.5,32-6.5-18.5-21.5-25-42-26 s -24.5-12-24.5-12 C 309.45,455.43,323.45,455.43,337.45,455.43Z m 44.2-32.3 c 21,18,16.8,45.2,3.2,78.8 s -6.81,38.65-2.1,48.86,6,23.82-4.19,35.31 c -13.29,14.92-13.32,27.77-7.32,35.77-2.5-9.5.11-21,9-30.91,10.78-12,20.05-23.51,8.07-45.79-9.91-18.44,1.16-32.09,8.64-51.54,7.4-19.25,23.2-60.5-16.2-84.2-40.5-24.3-76.2-2.5-76.2-2.5 C 341.45,397.93,360.65,405.13,381.65,423.13Z m -5,28.3 c 5.2,12.9-1.8,32.5.2,46.5,1.5-21,17.5-36.5,1-60-24.3-34.6-72-22-72-22 C 348.45,413.93,370.65,436.43,376.65,451.43Z m -39.7-15.8 c 20,2,34.5,18.8,34.5,37.2-1.5-9.5-14.2-27.2-33.8-28.8 s -32.2-15.2-32.2-15.2 C 311.45,432.93,316.95,433.63,336.95,435.63Z m 18.72,156.44 c 4.6,6.72-1,13.12-9.29,17.86,9.45-.88,25.13-13.15,17.81-23.58 s .9-19.3.9-19.3 C 353.08,574.53,351.07,585.35,355.67,592.07Z m -20.61.34 c 2,4.58.92,11.51.92,11.51 s 7.06-6.06,4.67-11.23,2.12-11.31,2.12-11.31 C 337.81,582.78,333,587.83,335.05,592.41Z M 189.81,444.33 c -9.19,27.15-1.27,41.75,5,61.81 s -7.62,35.68-16.62,48.18 S 184.7,587,195.7,599 c -22.75-16.87-31.74-35.34-23.24-46.75 s 18.79-22.07,19-34.57-23.55-35.82-13.55-74.82,42.07-62,75.28-62.48 c 29.7-.45,44.8,17.5,44.8,17.5 C 249.95,368.93,205.13,399.05,189.81,444.33Z m 29.34-9.9 c -16.5,32-15,39.85-7.84,72.25 S 208,545.51,205.52,551 s -9.8,16.76-4.8,24.76,6.5,16.5,0,25.5 c 5.5-17.5-9.78-25.58-7.2-38.2,2.87-14,8.12-13.09,11.75-31.74,3.49-17.94-2-19.75-5.53-47.35 s 10.71-72.56,43.21-83.56,55,5.5,55,5.5 C 266.45,395.93,235.65,402.43,219.15,434.43Z m 3.8,72.5 c -10-28.5-3.8-66.8,24.2-84.8 s 49.8-7.2,49.8-7.2 C 225.95,416.93,219.95,473.93,222.95,506.93Z m 29-61 c -14,9.5-24.5,27.5-23,45,7.2-34,31.8-42,48.8-48 s 18.8-15,18.8-15 C 285.45,439.43,265.95,436.43,251.95,445.93Z m 16,9.5 c -10,2.5-22,10.5-26,19.5,7.5-8.5,20.5-12,34.5-14.5 a 30.09,30.09,0,0,0,20-13 C 291.45,453.43,277.95,452.93,267.95,455.43Z M 225.34,569.67 c -6.55,9.75-4.42,14.56-4.37,22.32-3.47-4.52-6.53-16.72-.18-27.79,4.7-8.18,5.62-18.54,5.62-18.54 C 228.8,550.42,230.09,562.6,225.34,569.67Z m 12.91,19.89 c -9.22-12.21,2.17-24.23,2.17-24.23 S 237.62,580.09,238.25,589.55Z m 77.07,12.64 c -.83-6.15,6.32-13.93,6.32-13.93 C 312.23,591.2,310.3,597.74,315.32,602.19Z M 251,590.28 c 1-8-2.52-16.15-2.52-16.15 C 257,578.94,255,586.68,251,590.28Z m -32.16-66.71 a 22.13,22.13,0,0,1-1.7,23.06 c -8.22,12.09-12.7,22.13-9.67,31.8-5.08-7.67-4.35-15.66,1.06-25.2 S 220.37,534,218.82,523.57Z" fill="param(accent_colour_1)"/>
  </g>
  <g id="accent-colour-2">
    <path d="M 382.35,380.33 c 31.3,13.7,49.2,39.2,54.7,63.7 s -2.5,44.5-12,56-15,22-12.7,31.8 c -8-10.5,7.7-27.5,12.7-35.5 s 15-21.8,9-51.3-34-62-71-67 c -39.5-5.3-56.2,17.9-56.2,17.9 C 315.45,378.93,352.15,367.13,382.35,380.33Z m -5.1,21 c -31.1-14.2-58.8-5.3-71.5,2,7.3-6.3,38.3-20,72.7-3.3 s 35.7,54,35.7,54 S 409,415.93,377.25,401.33Z m -12.5,16.9 c 29,17.3,26.5,45.5,23.5,55.3-3.8,12.7-12.8,32.8-11.5,43.8,1.3-15,10.2-30.7,13.5-45 s 4.5-41.2-28.8-57.8-57-2.8-57-2.8 C 316.75,407,341.85,404.53,364.75,418.23Z m -36.5,6.5 c -12.3-.9-18-.7-21.8-6,10.7,8,28-2.3,49.7,14 s 19.7,41.3,19.7,41.3 C 371.25,434.43,341.55,425.73,328.25,424.73Z m 3.7,26.8 c -11.8-.7-19.8-5.2-24.8-12.5,8.8,10,20.2,9.2,34.8,11.2,16.8,2.3,25.8,19.2,25.8,19.2 C 355.75,453,339.95,452,331.95,451.53Z m 42.1,52.9 c 1.1-25.5-19.3-34-19.3-34 C 362.45,476.43,371.45,492.43,374,504.43Z M 242.39,586 c 8.61-8.09,1.66-17.13,1.66-17.13 C 245,570.75,245,580,242.39,586Z m -13-14.84 c -5.56,5.48-7.47,12.83-2.77,18.6-3.37-5.73.83-13.94,5.38-17.92 s 2.38-13.12,2.38-13.12 C 233.89,560.63,234.79,565.92,229.4,571.13Z m -16.64-9.37 c -4.12,9.23-2.74,27.68,4.64,37-7.34-18.65-4.35-32.92,2.39-44.26,6-10.16,4.66-16,4.66-16 C 224.06,544,216.68,553,212.76,561.77Z M 195.45,473 c -3-52.7,30.3-79.7,57-83.3 s 43.3,11,43.3,11 C 227,368.43,193.45,434.73,195.45,473Z m 23.9-23 c -8.7,26.7-3.3,46.7,3.3,67.7-9-15.7-12-41.7-8.3-59.3 s 16-42,40.7-49.7,41,1.7,41,1.7 C 248.45,398.43,225.55,431.23,219.35,450Z m 36.7-16.6 c -12.7,6-27.7,21.3-28,43,.3-16,13.3-37,38.7-44 s 29.7-13.7,29.7-13.7 C 287.75,424.73,268.75,427.43,256,433.43Z m 21.7,14.9 c -7,1.9-19,4-24,11.3,6-4.7,18-7.7,28-10.3 s 15.7-12.3,15.7-12.3 C 292.75,441,287.45,445.73,277.75,448.33Z m -27-71.6 c -25.95-.35-48.3,11.28-69.81,43-23.61,34.85-4.43,61.74-1.13,79.34-9.6-16.59-27-44.37,1.31-86.16,21.4-31.54,54.49-42,77.9-38.65,32.34,4.69,38.73,20.44,38.73,20.44 C 286.45,383.43,276.7,377.08,250.75,376.73Z M 189.27,548.15 c -5.85,10.14-5.76,26.91,1.16,33.71 S 197.85,606,197.85,606 s 4.26-15.5-3.8-24.53-6.2-22.42,2.08-37.71,4.75-32.67,4.75-32.67 C 202.39,525.58,195.12,538,189.27,548.15Z m 79.11,38 s .83,4.89-.73,8 C 271,590.65,268.38,586.13,268.38,586.13Z M 350,578.18 s -6.22,8.38-3.65,14.93 S 342,608.25,342,608.25 s 8.67-6.93,7.53-13.9 S 347.16,582.76,350,578.18Z m -24.48,10.24 s 1.72,3.69-.44,6.35-2.59,7-.25,9.09 a 17.81,17.81,0,0,1,2.49-8.36 C 328.76,593.05,325.51,588.42,325.51,588.42Z m 49.39-42.06 s -8.47,15.43-5.29,26.15 a 33.93,33.93,0,0,1-.07,19.62 s 6.16-8.05,4.5-17.82 S 371.7,554.93,374.9,546.35Z m 21.38-.29 s 11,20.22-.13,31.46-19.21,20.64-19,32.87 a 105.5,105.5,0,0,1-2.41,23.27 s 6.41-11.39,5.71-24.72,11.22-21.38,18-27 S 408.08,561.68,396.28,546.06Z m 31,25.77 c -1,11.33-15.25,19.31-20.81,22.05 s -12.86,9.58-9.54,17.61 c .79-14.08,18.77-14.29,30.31-29.86 s -7.17-36.13-7.17-36.13 S 428.26,560.5,427.27,571.84Z M 411.37,468.17 s -5.17,19.74-13.53,34.51-9.52,27.09-5.15,35 c -.77-11-.49-18.36,8.55-35 A 93.21,93.21,0,0,0,411.37,468.17Z" fill="param(accent_colour_2)"/>
  </g>
<script type="text/ecmascript" xlink:href="param.min.js"/> 
</svg>
