<?xml version="1.0"?>
<svg xmlns="http://www.w3.org/2000/svg" xmlns:xlink="http://www.w3.org/1999/xlink" viewBox="0 0 600 1032.36">
  <defs>
    <filter id="luminosity-noclip" x="182.19" y="524.58" width="9.12" height="17.04" filterUnits="userSpaceOnUse" color-interpolation-filters="sRGB">
      <feFlood flood-color="#fff" result="bg"/>
      <feBlend in="SourceGraphic" in2="bg"/>
    </filter>
    <mask id="mask" x="182.19" y="524.58" width="9.12" height="17.04" maskUnits="userSpaceOnUse">
      <g filter="url(#luminosity-noclip)">
        <image width="38" height="71" transform="translate(182.19 524.58) scale(0.24)" xlink:href="HS0091.png"/>
      </g>
    </mask>
  </defs>
  <title>HS009</title>
  <g id="main-colour">
    <path d="M 299.74,390.61 s -20.42-26.67-59.67-18.25 c -25.93,5.56-72,38-68.33,100.67,3.81,65.09,61.69,87.37,71.62,90.83-9.85-12.78-15.5-29.37-15-47.68.41-15,5.74-29.79,12.74-38.83,14.32-18.49,38.11-27.69,58.65-14.48,18.69-12.27,42.84-4.35,56.63,11.33,8.53,12,15,26.15,15,42,0,16.4-3.6,31.55-12.08,43.82 a 100.48,100.48,0,0,0,42.47-39 c 30.67-50.67,14.86-116.58-25.67-140 C 331.08,355,299.74,390.61,299.74,390.61Z" fill="param(main_colour)"/>
    <path d="M 239.92,562.78 A 34.65,34.65,0,0,1,231,600.5 c -17.87,17.22-52.17,9.4-62.72-13.32 s -2.24-41,15.95-49.23,34.94-10.07,44-1.71Z" fill="param(main_colour)"/>
    <path d="M 191.07,552.58 s -21.51,7.05-29.78-11.36,15.75-34.07,29.25-17.34,19.85,20.64,19.85,20.64Z" fill="param(main_colour)"/>
    <path d="M 247.61,568.86 c 1,.93,11.06,13,5.4,26.55.58-7.32-4-15.49-4-15.49 s 1.17,13.18-15.35,26 c 7.62-9.32,12.08-24.49,6.49-34.06 s 1.72-9.93,1.72-9.93Z" fill="param(main_colour)"/>
    <path d="M 174,552.2 s -14.44-2.43-23.29,10.51 c .88-6.82,9.66-12.26,9.66-12.26 s -16.23,4.18-20.12,12.46 c 4.75-12,19.36-17.48,19.36-17.48 s -5.68-1.58-8.76-9.08 a 16.92,16.92,0,0,0,16.9,6.39 C 174.21,545,174,552.2,174,552.2Z" fill="param(main_colour)"/>
    <g mask="url(#mask)">
      <path d="M 187.2,539.57 s 3-6.18-2.8-12.77 C 190.63,530.28,189.94,535.78,187.2,539.57Z" fill="#f9f5e7"/>
    </g>
  </g>
  <g id="accent-colour-1">
    <path d="M 296.08,395.7 S 265.41,369,227.41,387 s -51.33,70.67-41.33,108,46,56,46,56-58-45.33-35.33-113.33 C 216.88,377.29,271.41,381.7,296.08,395.7Z" fill="param(accent_colour_1)"/>
    <path d="M 218.08,525.7 s -38.15-44.81-7-94.33 c 34.92-55.5,84-19.67,84-19.67 s -43.1-17.42-70.33,16 C 195.41,463.7,207.08,499.7,218.08,525.7Z" fill="param(accent_colour_1)"/>
    <path d="M 222.41,514.7 s -12.38-15.48-5-49 c 8.67-39.33,56.58-54.33,78-32.33-17-5.33-46.67-4.67-62.33,19 S 220.41,502.7,222.41,514.7Z" fill="param(accent_colour_1)"/>
    <path d="M 295.08,451.36 s -36.58-13-61,28 C 235.74,457.11,268.49,431.11,295.08,451.36Z" fill="param(accent_colour_1)"/>
    <path d="M 301.24,395.61 s 22-22.5,59.83-11.92 c 34,9.51,49.67,48,49.67,77.67,0,26.69-18,74.33-41.67,84,20.67-23.67,34-61.62,32.67-85.67-1.67-29.33-19.33-61.33-46.33-69 S 301.24,395.61,301.24,395.61Z" fill="param(accent_colour_1)"/>
    <path d="M 303.08,411 s 24.17-19.42,57-1.67 C 394.38,427.91,397.41,478,376.41,521 c 6.33-26.67,13.33-66.33-6-92.33 C 355.43,408.56,324.74,404.7,303.08,411Z" fill="param(accent_colour_1)"/>
    <path d="M 303,432.61 s 23.56-13.88,44.75-3.92 c 19.5,9.17,33.25,36.17,27.33,69-.33-23.58-5.83-49.83-27.83-60.83 C 328.56,427.52,315.74,429.61,303,432.61Z" fill="param(accent_colour_1)"/>
    <path d="M 303.74,450.7 s 24.32-6.56,40.75,4.67 c 15,10.25,24.25,32.67,24.25,32.67 S 357.49,427.11,303.74,450.7Z" fill="param(accent_colour_1)"/>
    <path d="M 228.48,559.31 S 243,573.63,230,591.83,189,605,178.25,590.31 s -5-32.44,5.22-39.51,30.86-1.58,36.64,12.82-8.24,32.21-23,25.49 c -16.64-7.56-10.63-28.87,3.11-26.07-8.54,5-8.77,15.69-.54,20.4 s 20.8-8.25,11.72-19.74 S 190.29,553,183.2,561 c -8.21,9.22-5.11,22.23,6.87,31.81 s 27.19,5.35,35.39-3.87 C 232.76,580.7,233.59,571.4,228.48,559.31Z" fill="param(accent_colour_1)"/>
    <path d="M 181.3,521 a 17.53,17.53,0,0,1,7.26,12.36 c .74,8.17-7.2,16.22-15.25,13.37 s -11.33-12.59-9-17.14,9.32-7.74,14.36-3.41,3.66,12.24-1.75,13.63-9-4.27-5.64-8.32 c -.26,2.12.91,5.75,4.27,4.85 s 3.32-7.94-2.69-8.14-7.23,6-3.72,11.72,11.15,4.07,13.85.83 S 188.47,530.67,181.3,521Z" fill="param(accent_colour_1)"/>
    <path d="M 187.24,544 s 16.25-7.62,30.5,4.75 C 210.67,538.49,197.54,537.39,187.24,544Z" fill="param(accent_colour_1)"/>
    <path d="M 240.86,596.7 s 13.5-17.38-.58-33.94 C 245.74,572.53,245.62,585.48,240.86,596.7Z" fill="param(accent_colour_1)"/>
    <path d="M 147.33,554.93 s 11-7,18.38-5.94 C 159.58,546.45,153.48,548.47,147.33,554.93Z" fill="param(accent_colour_1)"/>
  </g>
  <g id="accent-colour-2">
    <path d="M 295.24,441.7 s -25.15-11.57-47,6.67 c -20.17,16.83-21.25,39.5-22,58-1.17-19.17-.17-37.25,15.83-55 S 280.41,432.7,295.24,441.7Z" fill="param(accent_colour_2)"/>
    <path d="M 294.41,420.86 s -41.17-16.42-68.17,15.83 c -12.25,15.25-17,32.83-14.67,53.67-2.5-11.33-4.92-33.25,14.67-56.5 C 245.38,411.15,278.08,410.53,294.41,420.86Z" fill="param(accent_colour_2)"/>
    <path d="M 229.24,544.36 s -26-21.75-32.5-55.25 A 161.94,161.94,0,0,0,229.24,544.36Z" fill="param(accent_colour_2)"/>
    <path d="M 195.24,464.2 s 1.58-36.08,27.33-57.83,62.17-12.83,72.5-2.33 c -12.17-8.83-40.58-13.67-61.83-2.17 S 199.24,439.36,195.24,464.2Z" fill="param(accent_colour_2)"/>
    <path d="M 233.74,556.36 s -39.15-18.9-52-53 a 97.12,97.12,0,0,1,4.5-78.5 c -9,20-13,53.81-1.83,80 C 197.74,536.2,233.74,556.36,233.74,556.36Z" fill="param(accent_colour_2)"/>
    <path d="M 195.74,406.61 s 16.75-27.67,49-31.42 c 20.25-2.5,42.75,3.67,53,18.42-9.67-11.25-33.25-19.67-52.5-16.92 S 208.74,390.53,195.74,406.61Z" fill="param(accent_colour_2)"/>
    <path d="M 302.49,403.86 s 17.17-15.84,46.92-8.33 c 35,8.83,47.21,37.5,47.67,68,.33,22.33-9,56.83-22.58,67.58,12.06-14.93,21.08-42.75,20.58-66.75 s -7.17-47.33-33.17-61 C 343.4,393.63,322.58,392,302.49,403.86Z" fill="param(accent_colour_2)"/>
    <path d="M 301.41,421.2 s 14.5-9.67,35.83-6.17 c 19.26,3.16,35.83,17,39.33,40.5-6.5-22-18.92-33.17-37.67-37.67 S 310.66,418.2,301.41,421.2Z" fill="param(accent_colour_2)"/>
    <path d="M 301.74,441.36 a 50.88,50.88,0,0,1,40-.33 c 21.75,9,30.67,32.33,28.75,47.58-.58-19.08-11.83-37.33-29.58-45.58 S 308,439.61,301.74,441.36Z" fill="param(accent_colour_2)"/>
    <path d="M 309.49,386.36 s 23.25-15.5,49.75-7,38.25,26.5,43.5,36.5 c -3.5-13.5-18.75-31.25-41-38 S 321.74,376.11,309.49,386.36Z" fill="param(accent_colour_2)"/>
    <path d="M 413.74,461.86 s -.5,58.75-47.25,90 C 388.49,542.86,417.24,503.36,413.74,461.86Z" fill="param(accent_colour_2)"/>
    <path d="M 179.7,596.63 s -24.21-26.18,1.63-48.34 C 172.66,552.2,157.08,574.53,179.7,596.63Z" fill="param(accent_colour_2)"/>
    <path d="M 199.66,605.49 s 36.33,5.79,38.87-31 C 241.59,588.07,228.41,611.86,199.66,605.49Z" fill="param(accent_colour_2)"/>
    <path d="M 198.4,569.57 s -1.9,6.56,3.12,9.13,14.05-7.65,4.72-16.75-25-2.09-24,13.08 c 1.42-11.67,10-17.37,18.08-14.33,4.22,1.57,10.5,7.25,6.67,13.33 C 205,577.21,199.08,578.86,198.4,569.57Z" fill="param(accent_colour_2)"/>
    <path d="M 193.76,591.11 s 12.23,6.9,22.65-1.66,15-26.2-3.08-39.67 c -7.25-5.42-16.08-4.58-19.53-3.93,7.28-3.57,18.39-.75,26.95,8.18,5.75,6,9.69,19.26,2.67,30 S 205.33,598.2,193.76,591.11Z" fill="param(accent_colour_2)"/>
    <path d="M 188.62,539.57 s 5.54-5.54,15.54-2.54 C 198.41,534.28,192.08,535.11,188.62,539.57Z" fill="param(accent_colour_2)"/>
    <path d="M 162.88,527.8 s 6.37-8.68,14.37-5.68 c 4.49,1.68,6,7.5,6,13.07,1.51-5.57,0-11.07-3.37-13.2 S 168.53,518.41,162.88,527.8Z" fill="param(accent_colour_2)"/>
    <path d="M 172.6,533 s .24,1.81,2.54,1.56,1.61-4.08-.81-5.08 c -2.11-.87-5.5-.83-6.49,3.43.85-1.8,2.48-3.72,5.32-3.18 C 176.66,530.45,176.74,535.7,172.6,533Z" fill="param(accent_colour_2)"/>
    <path d="M 170.09,538.33 s 6.41,8.62,12.44-1.43 C 182,540.65,174.76,546.51,170.09,538.33Z" fill="param(accent_colour_2)"/>
    <path d="M 162.37,533.86 S 162.08,548,175,548.81 C 167.62,549.07,161.24,544.24,162.37,533.86Z" fill="param(accent_colour_2)"/>
  </g>
<script type="text/ecmascript" xlink:href="param.min.js"/> 
</svg>
