<?xml version="1.0"?>
<svg xmlns="http://www.w3.org/2000/svg" xmlns:xlink="http://www.w3.org/1999/xlink" id="Layer_1" data-name="Layer 1" viewBox="0 0 600 1032.4">
  <title>HS003</title>
  <g id="main-colour">
    <path d="M 188,488.9 c 5,22.7,18.4,45.2,47.2,62-5.2-7.6-11.7-37.8-.8-61.5,36.5-8.1,55.3-22.9,64.8-34.4 a 12.48,12.48,0,0,0,2.1.2 c 50.5,2,67.7,41.1,69.9,56.1,2.6,17.8-5.8,39.5-5.8,39.5,75.5-31,68.8-121.2,15.8-153.5-38.9-23.8-69.1-8.5-78.2-2.8-1.7-4.1-6.1-11.6-20.2-16.7-38.8-14-74.6,5.2-88,24.9-10.9,16-9.2,36.4-7.5,43.3 C 170.7,456.9,175.7,478.7,188,488.9Z" fill="param(main_colour)"/>
  </g>
  <g id="accent-colour-1">
    <path d="M 206.3,478.6 c -17-4-21.5-17.8-13-22.8 s 16,5.5,15.5,12 c 7-8-3.8-23.2-18-18.5-13,4.4-14.2,19-7,29.8,7.5,11.2,37,14.8,74-.2 s 45-41.5,45-41.5 C 273.8,473.9,223.3,482.6,206.3,478.6Z" fill="param(accent_colour_1)"/>
    <path d="M 237.5,389.9 c -28.8,7.8-47.2,30.8-46.5,54.8-5-20.8,4-53.2,48.2-63.2,43.9-9.9,62.2,18.2,62.2,18.2 C 285.5,385.6,265.9,382.2,237.5,389.9Z" fill="param(accent_colour_1)"/>
    <path d="M 201,442.6 s -.8-23.8,37.5-40 c 40-17,63.5,5.5,63.5,5.5 C 231.8,388.9,201,442.6,201,442.6Z" fill="param(accent_colour_1)"/>
    <path d="M 214.3,447.6 c 35.2-48.2,91-29.2,91-29.2 C 273.8,417.1,233,430.1,214.3,447.6Z" fill="param(accent_colour_1)"/>
    <path d="M 220.5,462.1 c 49-.5,81.5-32.8,81.5-32.8 C 275.3,431.6,237.3,457.9,220.5,462.1Z" fill="param(accent_colour_1)"/>
    <path d="M 228.5,543.1 c -12.5-22-5.2-49.3-5.2-49.3 C 211,508.6,216.5,531.1,228.5,543.1Z" fill="param(accent_colour_1)"/>
    <path d="M 218.5,534.6 c -15.2-19.8-9-40-9-40 C 197.8,504.6,205,522.1,218.5,534.6Z" fill="param(accent_colour_1)"/>
    <path d="M 371,469.4 c 16,24,13.5,59.5,1.3,72.3,8-19,3.5-45.8-5.2-61-19.8-34.5-61.2-33.5-61.2-33.5 C 326.5,442.4,354.8,445.1,371,469.4Z" fill="param(accent_colour_1)"/>
    <path d="M 381,444.1 c -34.8-36.2-73-8.8-73-8.8 s 40.4-12.5,68.5,17.2 c 28.8,30.5,10,80.8,10,80.8 S 418.4,483.1,381,444.1Z" fill="param(accent_colour_1)"/>
    <path d="M 407.5,450.9 c 15.2,42.5-8.8,74.3-8.8,74.3 s 22-42.5-6.2-84.3-83-22.8-83-22.8 C 335.8,398.1,391.2,405.5,407.5,450.9Z" fill="param(accent_colour_1)"/>
    <path d="M 390,408.6 c 13.5,11.4,25.2,27.5,27,48.5-19.5-51.5-54.2-59.5-76.8-60.2 a 77.23,77.23,0,0,0-33.8,6.5 C 331.5,379.4,372,393.4,390,408.6Z" fill="param(accent_colour_1)"/>
  </g>
  <g id="accent-colour-2">
    <path d="M 376.3,462.6 c 19,25,13,63.3,4,75.3,4.8-8.5,15.5-52.8-11.5-79.5 s -64-16.5-64-16.5 C 326.8,435.9,357.3,437.6,376.3,462.6Z" fill="param(accent_colour_2)"/>
    <path d="M 395.2,451.1 c 16.5,31.5,5.5,72-3.8,79.5,9.2-13.2,22-65.6-10-93.3-38.5-33.2-75.5-6.5-75.5-6.5 C 334.8,406.9,378.8,419.6,395.2,451.1Z" fill="param(accent_colour_2)"/>
    <path d="M 353,403.1 c 35.9,5.2,45,24.5,45,24.5 s -13.5-19.4-47.5-22.5 c -29.8-2.8-42.8,6.5-42.8,6.5 S 322.3,398.6,353,403.1Z" fill="param(accent_colour_2)"/>
    <path d="M 406.8,515.1 c 17.2-33,4-66,4-66 C 424.8,474.4,413.5,508.1,406.8,515.1Z" fill="param(accent_colour_2)"/>
    <path d="M 372,504.1 c -16-50.5-68.2-52.2-68.2-52.2 C 342.3,451.6,366.3,477.4,372,504.1Z" fill="param(accent_colour_2)"/>
    <path d="M 306,396.9 c 23.8-16.2,59-5.5,59-5.5 C 341.8,382.1,315.8,386.4,306,396.9Z" fill="param(accent_colour_2)"/>
    <path d="M 220.3,385.4 c 48.2-22.2,77,6,77,6 C 280.8,369.1,234.8,373.1,220.3,385.4Z" fill="param(accent_colour_2)"/>
    <path d="M 244.5,396.1 c -33,10.2-43.2,27.8-50.5,46.8,5.8-28.5,27.8-45,57.2-51.2,32.8-7,48.2,9.5,48.2,9.5 S 277.8,385.8,244.5,396.1Z" fill="param(accent_colour_2)"/>
    <path d="M 207,444.9 c 16.2-28.8,48-35.7,60.5-36.5 a 64,64,0,0,1,32.8,6.5 C 267.5,403.4,230.5,416.4,207,444.9Z" fill="param(accent_colour_2)"/>
    <path d="M 246.2,438.1 c -10.7,6.5-22.2,13-28.2,15.8,9-.2,32.5-16,47.5-21.8,13.3-5.1,36.5-8.8,36.5-8.8 C 282.5,422.6,257.8,431.1,246.2,438.1Z" fill="param(accent_colour_2)"/>
    <path d="M 231,472.4 c -19.6,3.3-36.7.8-36.2-7.2.5-8.5,9.2-3.5,11,.5-.2-4.8-6-10.2-10.8-7.2 s -4.6,10.5,1.8,15,30.2,5,57-5.2,46.8-32.2,46.8-32.2 C 275,458.4,250.6,469,231,472.4Z" fill="param(accent_colour_2)"/>
    <path d="M 191.1,447.1 c 24.1-3.5,23.9,18,23.9,18 C 216,454.4,210.3,442.1,191.1,447.1Z" fill="param(accent_colour_2)"/>
    <path d="M 190.3,487.6 c 18.2,8.2,42.5.8,42.5.8 C 221.5,493.4,205.8,496.1,190.3,487.6Z" fill="param(accent_colour_2)"/>
    <path d="M 229.5,542.6 c -7.8-23.2-1-44.5-1-44.5 C 221.3,512.4,224.5,532.1,229.5,542.6Z" fill="param(accent_colour_2)"/>
    <path d="M 221.8,538.1 a 54.83,54.83,0,0,1-6.5-42 C 208.5,507.1,213.8,529.4,221.8,538.1Z" fill="param(accent_colour_2)"/>
    <path d="M 211.5,530.1 c -14.8-17.2-11.2-34.8-11.2-34.8 C 195.8,503.6,200.5,519.6,211.5,530.1Z" fill="param(accent_colour_2)"/>
  </g>
<script type="text/ecmascript" xlink:href="param.min.js"/> 
</svg>
