<?xml version="1.0"?>
<svg xmlns="http://www.w3.org/2000/svg" xmlns:xlink="http://www.w3.org/1999/xlink" viewBox="0 0 600 1032.36">
  <title>HS001</title>
  <g id="main-colour">
    <path d="M 388.66,407.54 c -26.11-27.21-67.17-36.42-86.42-6.67 l -2,2.75 s -11.21-23.26-56-19.12 c -36.06,3.33-72.72,50.76-75.72,101.43 S 196,562.45,211,585.12 s 19.75,47.25,8,61.75-30.25,10.25-35,3.75 c 11.25,17.5,33.75,15.25,38,13.25-4.25,4.25-11.25,5-14,4.5,7.25,3.75,21.25,1.25,27.25-3.25-4.5,9.75-19,16.5-27.5,16.5,19.25,6.5,38.25-4.5,40.75-7.25-1.25,8-10.25,15.75-12.5,16,12.25-1.75,23-13.5,23-13.5 s -3.75,13-12.5,20.5 c 15-2,28.25-13,32.5-20.75 a 15.42,15.42,0,0,1-6.75,14.75 c 7.75-.75,14.5-11.25,14.5-11.25 a 27.68,27.68,0,0,1-7.5,23 c 14.25-5.25,20.75-24.5,20.75-24.5 s 2.25,18,14.75,26.25 c -6.25-13,1.25-29,1.25-29 a 37.36,37.36,0,0,0,32,22.25 c -10-5.5-15.25-19-15.25-19 a 26.67,26.67,0,0,0,15.5,7 c -7.25-3.75-10.25-16-10.25-16 s 16.41,23.17,44.16,11.67 a 28.71,28.71,0,0,1-18.25-6.5 c -5-4-6.49-11.49-6.49-11.49,10.19,3.35,20.38.77,27.74-11,0,0-.34.16-.94.41-.3.12-.67.26-1.09.41 a 27.86,27.86,0,0,1-6.19,1.41 c -.72.07-1.46.12-2.22.13 a 18.68,18.68,0,0,1-4.69-.54q-.59-.15-1.19-.35 a 15.29,15.29,0,0,1-2.34-1,15.09,15.09,0,0,1-2.25-1.48,16.79,16.79,0,0,1-3.1-3.24,21.24,21.24,0,0,1-1.8-2.94,27.69,27.69,0,0,1-1.53-3.63q-.34-1-.64-2.1 c -4.36-16,8.74-40.07,20.74-61.07,11.42-20,22.52-36.46,31.67-69.48 A 104.07,104.07,0,0,0,413,484.82 C 413.89,457.88,406.52,426.14,388.66,407.54Z m -18,116.91 C 368,549.12,348,559.28,345.5,559.95 c 6.67.83,13.33-1.83,13.33-1.83 l -.11.21 c .72-.21,1.42-.42,2.11-.66 a 73.8,73.8,0,0,1-124.28-3.32 c .71.29,1.41.56,2.08.8 l -.14-.2 s 5.33,2.67,14.33,3.33 c -15-8.33-23-20.83-24-34.33 s 12.33-31.5,28-40.33,37.41-11.33,43.91-37 c 3.33,11.5,14.93,20.83,32.26,28.67 S 373.33,499.78,370.67,524.45Z" fill="param(main_colour)"/>
  </g>
  <g id="accent-colour-1">
    <path d="M 297.24,440.61 s -7.54,18.66-40.83,31.08 c -33.5,12.5-43.42,56.92-18.67,79.67-13.33-6-20.33-29.33-15-51 s 19.67-31,37.33-37 S 287.91,453.28,297.24,440.61Z" fill="param(accent_colour_1)"/>
    <path d="M 298,409.11 s -20.33-28.37-60.25-17 C 194.74,404.36,173,467,175,497.36 s 15.08,50.5,30.75,69.5 S 237.08,616,229.41,638.7 s -25.33,21-25.33,21,19.33,3.67,28.33-16-1.75-48.92-17.42-71.58-37-51.25-32-87.25,19.85-67.19,47.42-81.83 C 262.41,386,298,409.11,298,409.11Z" fill="param(accent_colour_1)"/>
    <path d="M 297.74,416.11 s -32.36-17.45-62.67-1.42 c -38.75,20.5-47.5,74.25-38.83,104.92 S 225.41,570,234.41,590 s 20.33,71.67-5.67,86.33 c 15.67-4.67,22.33-21,22-41.67 s -4.33-39.33-29-77.33-25.33-70-12.33-100.67 S 249.74,408.45,297.74,416.11Z" fill="param(accent_colour_1)"/>
    <path d="M 297,422.61 c -36-9.75-103,20.25-83,103-2.25-28.25,4.88-54.15,14.75-66.5 C 245.33,438.36,268,424.95,297,422.61Z" fill="param(accent_colour_1)"/>
    <path d="M 235.74,560.61 S 284,622.11,257.41,689 C 275.08,671.36,285,605.86,235.74,560.61Z" fill="param(accent_colour_1)"/>
    <path d="M 272.49,587.86 s 26,43.25,8,94.5 C 294.24,666.36,299.74,613.11,272.49,587.86Z" fill="param(accent_colour_1)"/>
    <path d="M 307.49,593.11 s -20.08,49,2.25,102.75 C 302.74,662.11,302.49,619.11,307.49,593.11Z" fill="param(accent_colour_1)"/>
    <path d="M 335.49,690.36 s -44-40-6.75-103.67 C 320.08,616.36,314,653.61,335.49,690.36Z" fill="param(accent_colour_1)"/>
    <path d="M 358.41,679 S 330,665.2,332,632.86 s 20.85-57.47,36.17-78.92 c 16.25-22.75,27.92-68.25,11.25-98.92 s -39.33-43.67-74-38.67 c 21-13,42-10.67,64.33,11.67 s 28.36,62.54,17.33,94.33 c -11.33,32.67-31.92,57.67-41.58,81 S 333.41,657.7,358.41,679Z" fill="param(accent_colour_1)"/>
    <path d="M 304.41,409.36 s 11.83-27.5,47.58-16 c 32.19,10.35,49.83,45.08,53.5,68.75 s -.5,51.25-16.5,83.25-39.58,68.67-35.58,91 c 2,10.67,8.33,19.5,23.08,21.5-13.75,3.25-27.42-4.83-28.08-25.17 s 10-40.33,21.67-61.33,34.83-66.75,30.17-102.75 C 395.63,433,364.08,374.36,304.41,409.36Z" fill="param(accent_colour_1)"/>
    <path d="M 304,438.61 s 9.5,18,29.25,28 c 17.43,8.82,43.92,19.17,42.25,52.5-2,15-9.42,31.58-18.75,35.92,15-8.33,23.33-25,24-44.67 S 369,479.28,350,469.61,319.49,455.86,304,438.61Z" fill="param(accent_colour_1)"/>
    <path d="M 303.74,421.61 s 54.25-8.75,79,65.5 C 371.24,456.11,337.74,428.86,303.74,421.61Z" fill="param(accent_colour_1)"/>
    <path d="M 305,428.86 c -1.35-1,16.08,17.58,32.75,24.25 s 32.08,18.58,35.75,23.25 c -3.75-10.25-16.92-19.75-27.25-24.75 S 317.49,437.86,305,428.86Z" fill="param(accent_colour_1)"/>
    <path d="M 297.24,429.11 s -13.68,15.92-31.5,20.25 c -23.33,5.67-37.42,19.33-40.75,25,10-18,26-25.31,35.42-29.67 C 274.41,438.2,288,433.61,297.24,429.11Z" fill="param(accent_colour_1)"/>
  </g>
  <g id="accent-colour-2">
    <path d="M 296.74,425.61 s -26.5,1.75-50.75,22.5 c 6.5-3.25,21.25-11.5,27.5-14 C 278.28,432.2,288.49,430.11,296.74,425.61Z" fill="param(accent_colour_2)"/>
    <path d="M 296.24,419.36 s -35.25-6.25-61.5,15.25-39,67.75-16.25,107.5 c -22.5-31.5-17-84.5,15-109.5 C 249.24,419.11,272,413.86,296.24,419.36Z" fill="param(accent_colour_2)"/>
    <path d="M 297.49,412.36 s -33-16-58.5-5.5 c -30.41,12.52-47,47.5-49.75,79.75 s 12,56.75,19.75,68.25,28.5,38,30.75,67.25-7.75,41-16.5,45 c 6.75-4.25,15.5-17.5,15-36.75 s -4-32.5-16.75-53-25.5-35.5-32.25-59.25-1.25-45.75,4.5-63.75,23.25-42.75,45.75-50.75 S 286.24,406.11,297.49,412.36Z" fill="param(accent_colour_2)"/>
    <path d="M 216,532.86 a 303.09,303.09,0,0,0,19.25,39 c 11.25,18.75,36.5,70.75,12,110.25,11.25-8.25,16-32.75,10.25-62.5 s -16.5-44.75-21-51 S 219.24,540.61,216,532.86Z" fill="param(accent_colour_2)"/>
    <path d="M 259.49,583.86 s 43.5,49,2.25,106.5 C 283.49,669.86,295,619.61,259.49,583.86Z" fill="param(accent_colour_2)"/>
    <path d="M 286.24,591.61 s 17.25,47.75,2.75,97.25 C 296.74,674.86,303.74,628.61,286.24,591.61Z" fill="param(accent_colour_2)"/>
    <path d="M 320.24,591.61 s -25,36.5-7.75,85.25 A 133.16,133.16,0,0,1,320.24,591.61Z" fill="param(accent_colour_2)"/>
    <path d="M 349.49,575.86 s -41,43.75-9.5,105.25 C 326.49,673.11,312,608.11,349.49,575.86Z" fill="param(accent_colour_2)"/>
    <path d="M 356.49,668.61 s -18-16.75-10.5-46.75 A 71.47,71.47,0,0,0,356.49,668.61Z" fill="param(accent_colour_2)"/>
    <path d="M 216.49,501.86 s 5-23,19.25-34 c 11.75-9.07,34.25-13.75,40.5-16 s 17-10.25,19.25-13.5 c -4.75,7.25-13.11,14.12-26.25,18 C 249.74,462.11,226.24,467.61,216.49,501.86Z" fill="param(accent_colour_2)"/>
    <path d="M 297,447.61 s -2,17-18.25,23.5 c -25.79,10.31-42,22-47.25,36.75,2-11.5,11.25-20.75,27.75-29.75 C 275.27,469.37,290,470.11,297,447.61Z" fill="param(accent_colour_2)"/>
    <path d="M 303.74,424.86 a 182.32,182.32,0,0,0,23.5,12.25 c 12,5,24,13,31.5,18.25 C 347.49,444.61,319,428.61,303.74,424.86Z" fill="param(accent_colour_2)"/>
    <path d="M 303.49,419.36 s 46.75-16.75,76.5,48.75 C 355.49,425.11,331.24,416.11,303.49,419.36Z" fill="param(accent_colour_2)"/>
    <path d="M 305.74,433.86 s 13.75,16.25,34.25,26.5 c 19.23,9.62,41.25,18.75,43.5,42.25,1-12-11.83-29.36-30.5-38.25 C 332,454.36,318.49,448.36,305.74,433.86Z" fill="param(accent_colour_2)"/>
    <path d="M 305.49,412.11 a 52.59,52.59,0,0,1,35.5-10 c 20.75,2,42.25,20,52.5,50 s 0,61.25,0,61.25,7.5-31.5-1-56.75 c -7.74-23-22-42.5-43.25-50 S 311.74,409.86,305.49,412.11Z" fill="param(accent_colour_2)"/>
    <path d="M 372.24,544.61 S 361,556.86,354,557.61 C 363.49,556.86,367.24,552.36,372.24,544.61Z" fill="param(accent_colour_2)"/>
    <path d="M 409.49,491.36 s -3,27.25-15.5,50.75-31.5,55.75-32.5,63.5 c 10.5-21,23.75-43.25,29-52.25 S 408.74,519.36,409.49,491.36Z" fill="param(accent_colour_2)"/>
    <path d="M 304,447.36 s 4,13.49,20.5,20.5 c 25.25,10.75,47.25,26.75,48,47,2.25-9.75-6.75-25-19.75-33.5 C 328.74,465.61,312.49,464.36,304,447.36Z" fill="param(accent_colour_2)"/>
    <path d="M 298.74,404.86 s -13.75-18-46.5-17.5-54.75,27-67.5,53-17.75,58-7.5,83.25,17.25,33.75,24.5,42,17.25,21,21.75,39.5 c -4.5-11.5-13.75-25.25-23.25-36.75 s -23.75-31.75-28.75-55-.25-45,5.5-61.25,14-32.75,34.25-51.25,45.75-17,60.5-13.75 S 297.74,401.36,298.74,404.86Z" fill="param(accent_colour_2)"/>
    <path d="M 301.74,405.11 s 9.5-17.25,26.5-20.25,37.9,5.49,52.25,17.25 c 15.25,12.5,33,38.75,29.75,80.5-.75-22.75-5.5-46.5-19-65 s -32.5-31.25-59-30.75 C 323,387.36,311.49,393.36,301.74,405.11Z" fill="param(accent_colour_2)"/>
  </g>
<script type="text/ecmascript" xlink:href="param.min.js"/> 
</svg>
