<?xml version="1.0"?>
<svg xmlns="http://www.w3.org/2000/svg" xmlns:xlink="http://www.w3.org/1999/xlink" viewBox="0 0 600 1032.4">
  <title>HS005</title>
  <g id="main-colour">
    <g id="main-colour-2" data-name="main-colour">
      <path d="M 184.36,671.49 c -4.83,13.61-11.11,17.83-11.11,17.83 s 10.06.74,13.19-3.11 c -.6,2.94-5.09,9.88-5.09,9.88 s 9.76-2.8,13.79-12.48 c -.65,4.66-2.87,14-7,19 h 0 c 7.69-1.18,10.81-4.93,10.81-4.93 s -1.44,5.52-4.2,9 a 17.34,17.34,0,0,0,8.2-5.16,47,47,0,0,1-3.33,7.79 c 9.47-2.86,14.92-11.54,14.92-11.54 s -1,11.33-6.06,16.11 c 6.14-.07,11.76-6.06,11.76-6.06 s -2.82,7.28-3.88,10.43 c 4.18-.47,10.48-6.32,10.48-6.32 s .18,4.12-3.91,9.1 c 8.49-3.06,14.88-14.3,14.88-14.3 s -1.48,13.68-5.34,17.59 c 4.12-.18,9-4.27,9-4.27 a 32.83,32.83,0,0,1-2.39,6.66 c 5-1,10.08-7.83,10.08-7.83 s -1.06,5.19-2.36,10 c 3.84-2.28,8.67-7.41,11.19-14.75.42,6.93-2.59,15.6-3.1,17.13 l .2,0 c 1.51-.91,8.3-5.14,9.83-9.62 a 50.57,50.57,0,0,1-2.21,10.78 s 6.65-7.52,9-15.51 c .53,3.89-.77,17.2-.77,17.2 l 3.41-8.18,4.27,9 a 81,81,0,0,1,4.54-17.14 c -1.57,7.64,3.44,17.55,3.74,18.12 h 0 c 0-.51.08-4.88,2.35-8,.22,2.39,3.2,7.8,3.2,7.8 A 50.54,50.54,0,0,1,296,720.22 c -.77,8.72,4.82,16.3,4.82,16.3 a 43,43,0,0,1,2.73-8.32 c -.74,3.62,2.08,8.29,2.08,8.29 a 30.35,30.35,0,0,1,3.81-10.14 c .12,4.41,3.38,9.88,3.38,9.88 s .29-6.37,4-17.87 c 1.18,7.69,9.37,17.54,9.37,17.54 a 28.87,28.87,0,0,1,3-11.32 c 2.37,4.88,8.13,10.14,8.13,10.14 l -1.44-6.42 a 36.42,36.42,0,0,0,9.55,4.71 c -3.87-2.53-5.63-12.38-5.63-12.38 a 35.65,35.65,0,0,0,17.15,11 l .53-.1 c -2.51-4.7-7.56-13.9-10-23.9 a 50.49,50.49,0,0,0,21.51,20 c -2.4-2.74-6.16-7.8-7-13.49,2.84,5.07,9.25,9.14,13.5,11.34-20.78-42.54,14-115.29,49.89-174.59 s 25.2-136.8-32.1-166.1-92,16.1-92,16.1-13.3-24-48.7-26-82.49,16.75-95.19,77.45 S 194,563.18,198.84,597.42 c 4,28.16-9.1,68.74-34.27,82 C 164.55,679.47,177.68,678.69,184.36,671.49Z M 238.8,485.8 a 79.9,79.9,0,0,1,8.9-4.2,53.63,53.63,0,0,1,5.9-12.6,56.3,56.3,0,0,0-2.7,11.3,120.58,120.58,0,0,1,19.8-5.4,33.32,33.32,0,0,1,4.5-9.3,28.79,28.79,0,0,0-1.4,8.7 l .4-.1 a 56.34,56.34,0,0,1,3.8-6.8,23.35,23.35,0,0,0-1.2,6.4,163.77,163.77,0,0,1,27.1-1.7,76.17,76.17,0,0,0-.1-9.5 c 1,3,2,7.6,2.5,9.6 a 198,198,0,0,1,20.4,1.7 c -.2-3.3-.7-8.1-1.9-11.3 a 51.16,51.16,0,0,1,5.4,11.9 c 3.9.6,7.8,1.4,11.3,2.3 a 21,21,0,0,0-.9-5 c 1.1,1,2.6,4.2,3.2,5.6,1,.3,2,.5,3,.8 a 104,104,0,0,0-4-11.9,68.13,68.13,0,0,1,7.9,13.1,86.32,86.32,0,0,1,10,3.9 c 9.3,10.4,12.2,28.3,13.1,38.5 a 73.83,73.83,0,0,1-146.8,4 C 226.7,516.2,228.9,496.6,238.8,485.8Z" fill="param(main_colour)"/>
    </g>
  </g>
  <g id="accent-colour-1">
    <g id="accent-colour-1-2" data-name="accent-colour-1">
      <path d="M 358,479.73 c -6.7-49.7-52-62.5-52-62.5 C 336.65,436.33,348.35,457.33,358,479.73Z" fill="param(accent_colour_1)"/>
      <path d="M 305.15,420.83 c 28.2,20.8,29.8,51.7,29.8,51.7 C 326,449.53,317.15,433.53,305.15,420.83Z" fill="param(accent_colour_1)"/>
      <path d="M 309.35,469.83 c 6-28-8-46-8-46 C 305,433.83,308.65,454.83,309.35,469.83Z" fill="param(accent_colour_1)"/>
      <path d="M 283.85,469.73 c 2-30,11.8-48.2,11.8-48.2 C 285.65,433.83,279,444.83,283.85,469.73Z" fill="param(accent_colour_1)"/>
      <path d="M 259,473.53 c 4.5-41.2,32.7-57.3,32.7-57.3 C 264.35,428.33,255.65,454.73,259,473.53Z" fill="param(accent_colour_1)"/>
      <path d="M 281.65,418.23 c -38.3,18.2-44,64-44,64 C 237.85,459.83,245.45,430.53,281.65,418.23Z" fill="param(accent_colour_1)"/>
      <path d="M 393.65,406.23 c 21,18,39.8,56.3,30.2,97.7 s -46.07,94-53.17,123.93 c -9.7,40.5-8.57,60.09-2.92,78-6.67-60.07,13.72-95.06,32.19-130.73,11.9-25.4,38.8-68.21,35.5-102.91 s -20.8-72.5-60.2-85.8-72.5,17.2-72.5,17.2 C 343.35,381.83,372.65,388.23,393.65,406.23Z" fill="param(accent_colour_1)"/>
      <path d="M 379.65,477.83 c 8.7,35,1.7,59.2-6.3,78.8 s -23.06,48.68-31.09,69.26-19.65,50-16.65,98.27 c -16.54-65.53,27.72-132.75,40.72-163.75 s 14.42-56,4.72-82.68 c -21.7-67-64.2-64.5-64.2-64.5 C 347.15,408.33,371,442.83,379.65,477.83Z" fill="param(accent_colour_1)"/>
      <path d="M 385.85,425.33 c 18,23.7,26.6,52.3,19.3,86.2-8,37-26.64,70-40.34,117 s -9.71,68.79,2.89,89.19 c -24.3-64.8,18.85-139.47,24.85-152.47 s 13.8-31.3,21.3-61 c 8.3-32.7-7-78.8-40.3-98.2 s -69.7-.8-69.7-.8 C 333.35,396.83,367.85,401.73,385.85,425.33Z" fill="param(accent_colour_1)"/>
      <path d="M 370.35,432.63 c 14,15.7,26.5,48.2,19.8,88.2 s -29.05,76.91-43.72,121.71 c -13.43,41-10.86,65.44,1.87,81.56 C 327.92,676.51,368,597.23,375,580.53 s 15.2-36,21.2-62.3-1.8-79.2-28.8-98.8-62.3-10.8-62.3-10.8 C 340,405.33,356.65,417.43,370.35,432.63Z" fill="param(accent_colour_1)"/>
      <path d="M 311.48,724.44 c -6.29-82,30.51-137.6,30.51-137.6 C 306.53,623.47,294.39,690.69,311.48,724.44Z" fill="param(accent_colour_1)"/>
      <path d="M 218.25,466.33 c -8.7,31-4.2,63.5,5.2,88.2 s 14.24,35.76,18.24,60.06,1.07,55.36-18.93,95.84 c 3.8-7,28.19-33.61,26.39-78.61-1.8-44-12.8-58.58-25.1-95.28 s 1.7-90,26.3-109.3,44.7-15,44.7-15 C 260.85,403.83,227,435.33,218.25,466.33Z" fill="param(accent_colour_1)"/>
      <path d="M 205.45,403 c -26.3,20.7-37.45,64.88-31.47,98.42,9.53,53.47,46.43,80.28,37.54,134.56-5.37,32.77-30.06,49.53-30.06,49.53 s 30.45-26.79,27.91-71.91 c -2-35.3-22.72-54.8-35.42-91.8 s -8.7-75.2,7.3-102.5,49-37.8,75-36.2,41.7,19.3,41.7,19.3 C 269.65,382.83,231.85,382.33,205.45,403Z" fill="param(accent_colour_1)"/>
      <path d="M 238.85,402.33 c -30.2,8.8-47,38-49,76 s 13.83,62.8,28.8,104.7 c 23,64.39.79,99.23-13.81,121.53,35.23-63.51,12.71-116.43,6.71-129.73 s -25.2-56.5-27.5-84.2,4.8-69.8,38.8-88.5,73.8,2.3,73.8,2.3 C 282.35,400.53,266.45,394.23,238.85,402.33Z" fill="param(accent_colour_1)"/>
      <path d="M 216.15,444.53 c -14,24.7-12.5,66.3-2.5,95 s 20.19,44,23,74.85 c 3.23,35.43-9,79.27-22,94.27,5.7-14.3,22.62-51.52,17.38-94.75-4.67-38.56-15.95-51.67-26.95-84 s -6.5-96.7,26.2-114.5 c 33-18,64.8-7.2,64.8-7.2 C 249,402.83,230.15,419.83,216.15,444.53Z" fill="param(accent_colour_1)"/>
      <path d="M 300.81,722.68 c -8.32-72.87,22.49-124.88,22.49-124.88 C 294.27,626.45,283.66,696.78,300.81,722.68Z" fill="param(accent_colour_1)"/>
      <path d="M 239.06,715.24 c 29.41-56.12,18.06-129,18.06-129 C 277.36,639.37,261.79,698.4,239.06,715.24Z" fill="param(accent_colour_1)"/>
      <path d="M 285.46,723 c -6.43-71.83,18.81-122.82,18.81-122.82 C 278.56,631.25,272.53,701.24,285.46,723Z" fill="param(accent_colour_1)"/>
      <path d="M 253.19,719.11 c 23-52.88,24.78-124.6,24.78-124.6 C 285.66,624.38,273.34,702.85,253.19,719.11Z" fill="param(accent_colour_1)"/>
    </g>
  </g>
  <g id="accent-colour-2">
    <g id="accent-colour-2-2" data-name="accent-colour-2">
      <path d="M 350.55,478.23 c -11.5-41-46.5-60.2-46.5-60.2 C 332.35,440.43,340.85,458.23,350.55,478.23Z" fill="param(accent_colour_2)"/>
      <path d="M 303.05,421.23 c 21.4,29.2,18,50.2,18,50.2 C 318.35,461.23,316.05,444.23,303.05,421.23Z" fill="param(accent_colour_2)"/>
      <path d="M 297.35,468.83 c -4.3-18.4,2.3-46.3,2.3-46.3 C 296.35,429.23,290,449.83,297.35,468.83Z" fill="param(accent_colour_2)"/>
      <path d="M 268.55,472.93 c 2-30,25-54.2,25-54.2 C 280.55,427.33,265.85,454.43,268.55,472.93Z" fill="param(accent_colour_2)"/>
      <path d="M 246.05,479.23 c 10.2-47.2,36.6-60,36.6-60 C 262,428.53,246.35,456.53,246.05,479.23Z" fill="param(accent_colour_2)"/>
      <path d="M 373,508.23 c -13.2-79.8-61.7-91.8-61.7-91.8 C 348.85,422.93,372.35,476.23,373,508.23Z" fill="param(accent_colour_2)"/>
      <path d="M 226,505.83 c 3.3-82.9,59-91.3,59-91.3 C 239.55,422.23,224.35,469.23,226,505.83Z" fill="param(accent_colour_2)"/>
      <path d="M 375.55,447.93 c 17.3,32,15.5,76,4.4,99.6,8.8-22.3,12.3-73.4-13.7-108.3-27-36.2-59.7-28.7-59.7-28.7 C 327,405.53,358.25,415.93,375.55,447.93Z" fill="param(accent_colour_2)"/>
      <path d="M 338.71,723.9 C 318.65,667.46,360,597.41,360,597.41,322.52,660.12,330,707.63,338.71,723.9Z" fill="param(accent_colour_2)"/>
      <path d="M 321.1,720.81 c -13.15-71.18,35.22-148.28,33.59-146.2 C 317.43,626.59,309.73,696.52,321.1,720.81Z" fill="param(accent_colour_2)"/>
      <path d="M 291.8,713.81 c -9.16-80,26.82-125.19,26.82-125.19 C 285.7,623.41,284.33,686.87,291.8,713.81Z" fill="param(accent_colour_2)"/>
      <path d="M 282.35,643.35 a 150.71,150.71,0,0,1,12.91-44.87 C 286.76,610.44,283.27,623.36,282.35,643.35Z" fill="param(accent_colour_2)"/>
      <path d="M 266.31,721.78 c 10.61-15.36,9.49-36.51,9.49-36.51 C 274.7,691.59,270,708,266.31,721.78Z" fill="param(accent_colour_2)"/>
      <path d="M 267.87,656.72 c 11.84-44.52-1.72-68.34-1.72-68.34 C 273.6,615.82,270.53,636.6,267.87,656.72Z" fill="param(accent_colour_2)"/>
      <path d="M 249,718.67 c 8.3-11.33,11.14-28.15,11.14-28.15 C 257.42,694.59,251.7,707.55,249,718.67Z" fill="param(accent_colour_2)"/>
      <path d="M 247.6,575.36 c 24.23,93-15.45,133.89-15.45,133.89 C 255.45,667.11,258.27,635.79,247.6,575.36Z" fill="param(accent_colour_2)"/>
      <path d="M 222.44,702.6 S 232,694.45,240.89,648 c 3.54-38-10.61-72.27-10.61-72.27 C 253.36,644.41,222.44,702.6,222.44,702.6Z" fill="param(accent_colour_2)"/>
      <path d="M 384.33,563.92 c -23,61.6-31.42,89.91-32.58,113.74 a 86.31,86.31,0,0,0,9.14,42.23 C 328.11,685,363.62,616.12,384.33,563.92Z" fill="param(accent_colour_2)"/>
      <path d="M 378.05,424.83 c -24.5-25.9-59.4-20.3-73.7-18,48.3-12,81.3,10,94.3,50 s -3,76.7-3,76.7 C 403,512.53,409.85,458.43,378.05,424.83Z" fill="param(accent_colour_2)"/>
      <path d="M 419.85,461.73 c 8.2,38-9,71.6-21,98.8-12.5,28.2-23.75,40.35-32.2,76.77,5.69-34.2,19.9-52.47,26.9-68.47 s 25.8-53.9,25.5-87.3-20.9-71.6-52.2-83.5 c -27.8-10.5-61.8,5.5-61.8,5.5 C 370.35,370.73,410.75,419.93,419.85,461.73Z" fill="param(accent_colour_2)"/>
      <path d="M 387.25,384.53 c 17.7,7,46.9,36.8,52.2,71.2 s -1.8,64-17.8,93.5-24.46,45.39-29.33,55.7-22.16,43.14-23.47,77.43 c -4.66-52.27,42.2-116.14,55.6-144.44 s 14.8-52.4,13.5-73.8-20.1-67.4-60-80.8 c -43.2-14.5-71.4,14.1-71.4,14.1 C 336.35,367.53,369.65,377.53,387.25,384.53Z" fill="param(accent_colour_2)"/>
      <path d="M 204.05,391.43 c -25,16.3-35.8,38.2-39.8,62-3.6,21.2-3.08,47.15,13.92,85.65,13.8,31.3,23.07,39.55,26.77,61.25,6.49,38-15,67.51-30.41,74.55,14.16-13.1,31-35.85,27.62-70.31-2.47-24.95-6.22-22.24-28.49-71.61 s -15.32-75.12-4.62-104.12,45.8-54.3,80.1-51.9,47.6,21.9,47.6,21.9 C 269.05,373.23,229.05,375,204.05,391.43Z" fill="param(accent_colour_2)"/>
      <path d="M 198.85,417.63 c -12.8,15.3-24.8,51.8-15.8,90.8 s 31.31,67.46,36.47,97.51-11,77.61-26.07,92.21 c 23.3-36,27.07-81.29,21.27-99.49-6.8-21.7-14.36-37.53-27.66-67.53 s -12.5-63.5-3.5-90.5,33.1-48.8,62.8-50.5,47.5,11.8,47.5,11.8 C 248.05,380.43,217,396,198.85,417.63Z" fill="param(accent_colour_2)"/>
      <path d="M 208.35,433.43 c -15.3,25.3-14,58.8-9.7,82.6,3.4,19.3,21.1,55.2,26.4,74.2-1.7-5.7-12.3-28-19-44 s -12-39.5-12.7-61.5,6.9-61.2,39.8-76,59.8-3.5,59.8-3.5 C 256.55,398.43,223.65,408.13,208.35,433.43Z" fill="param(accent_colour_2)"/>
      <path d="M 212.05,474.93 c -6,25,2.9,63.9,2.9,63.9 s -5.6-18.2-6.9-36.2 c -3-37.7,17.2-74.4,40.5-86.4,22.5-11.6,46.4-6.8,46.4-6.8 C 235.55,404.23,218.05,449.93,212.05,474.93Z" fill="param(accent_colour_2)"/>
      <path d="M 204.75,695.46 c 15.48-24.4,15.9-51.74,15.9-51.74 C 216.46,663.62,212.35,675.42,204.75,695.46Z" fill="param(accent_colour_2)"/>
    </g>
  </g>
<script type="text/ecmascript" xlink:href="param.min.js"/> 
</svg>
