<?xml version="1.0"?>
<svg xmlns="http://www.w3.org/2000/svg" xmlns:xlink="http://www.w3.org/1999/xlink" viewBox="0 0 600 1032.36">
  <defs>
    <filter id="luminosity-noclip" x="223.95" y="468.16" width="23.76" height="38.4" filterUnits="userSpaceOnUse" color-interpolation-filters="sRGB">
      <feFlood flood-color="#fff" result="bg"/>
      <feBlend in="SourceGraphic" in2="bg"/>
    </filter>
    <mask id="mask" x="223.95" y="468.16" width="23.76" height="38.4" maskUnits="userSpaceOnUse">
      <g filter="url(#luminosity-noclip)">
        <image width="99" height="160" transform="translate(223.95 468.16) scale(0.24)" xlink:href="HS0061.png"/>
      </g>
    </mask>
    <filter id="luminosity-noclip-2" x="330.75" y="581.2" width="9.12" height="21.36" filterUnits="userSpaceOnUse" color-interpolation-filters="sRGB">
      <feFlood flood-color="#fff" result="bg"/>
      <feBlend in="SourceGraphic" in2="bg"/>
    </filter>
    <mask id="mask-2" x="330.75" y="581.2" width="9.12" height="21.36" maskUnits="userSpaceOnUse">
      <g filter="url(#luminosity-noclip-2)">
        <image width="38" height="89" transform="translate(330.75 581.2) scale(0.24)" xlink:href="HS0062.png"/>
      </g>
    </mask>
  </defs>
  <title>HS006</title>
  <g id="main-colour">
    <path d="M 349.45,371.39 c -32.33-5.09-50,22.31-50,22.31 S 275.65,368.63,242.08,371 c -21.09,1.51-42.79,11.36-58.7,28-17.87,18.67-37.75,62-15.25,96,11.87,17.94,23.12,26.32,2.62,52.82 s -4.5,42.5,6.5,50,7.5,13,3,19 c -4.37,5.83,1,23.78,19.66,22.95-2-1.77-4.6-5.77-2.16-13.78.33,7,7,8,7,8 s -.33-5.67,1-9 c 3,.75,3.33,4.67,3.33,4.67 s 5.08-7.08.67-13 c 7.25-.33,9,6.67,9,6.67 s -.08-5.83,2-8.33 a 13.19,13.19,0,0,0,3.67,4.33,24.52,24.52,0,0,1,5-13 c .67,7.33,4.33,9.67,4.33,9.67 s .33-6.33,3.67-7.67 c -.67,2.67,1.33,5.67,1.33,5.67 s 3.83-2.25,6.67-10.33 c 2.58,3,3.33,7.67,3.33,7.67 s 1-8.33,5.67-12.33 a 9.71,9.71,0,0,0,4,10,18.33,18.33,0,0,1,2.33-6.33 c .67,2.67,3.33,5.33,3.33,5.33 a 11.25,11.25,0,0,1,3.67-7.67 c 3.33,4,1.33,7.33,1.33,7.33 s 8-4.67,8-9 c 4,3.67,4,7.33,4,7.33 s 5-3.33,5-6.33 c 1.67,5.33,7.67,6.33,7.67,6.33 s -1.67-4.67,2-7.33 c .33,3.67,4.33,7.33,4.33,7.33 s .67-5.33,4.33-6 c 2,2.33,1.33,6.67,1.33,6.67 s 4-3.33,5-5.33 c 2,1.67,1,5.67,1,5.67 s 8.33-4.67,8-10 a 20.33,20.33,0,0,1,3,11.67 s 3-6,7-6.33 c -3,3.33-.33,7.67-.33,7.67 s 2.67-4.33,6-4.33 c -2,2.33.67,6.33.67,6.33 s 5.33-9.67,12.33-9.67 c -4.33,4-4,10.67-1.67,13.33,1.33-3,7.33-6.33,7.33-6.33 s 2,7.67-2.33,9.33 c 6.67,0,9.33-4,9.33-4 s .33,5.67-2.33,7.33 c 4.33.67,7.33-3.33,7.33-3.33 s -2,5.33-.33,8 c 2.33-2.67,6-6,11-6 a 11.61,11.61,0,0,0-4,12.33 c 1.67-3.33,4.33-7,8-6,3.22,7,1.94,15.44,1.13,19.13 l .28.44 c 20.14-10.91-2.41-21.74,10.09-29.24 s 23.88-30.28,11.38-46.78 c -8.85-11.69.89-20.75,9.23-38.69 l .08-.16,2-4.47 a 87,87,0,0,0,5.87-18 C 439.65,433.59,402.21,379.7,349.45,371.39Z M 299.76,590 a 74,74,0,0,1-72.57-60.22 c -.3-12.85,1.23-37.2,15.55-51.79,17.5-17.83,45.67-2.33,57.19-22.33,9.48,18.33,39.81,6,56.81,24.17,13.64,14.58,16.49,32,16.46,44.18 A 74,74,0,0,1,299.76,590Z" fill="param(main_colour)"/>
  </g>
  <g id="accent-colour-1">
    <path d="M 291.41,398.2 s -15.83-22.42-59.17-15.08-64.33,54.83-63,79.5,9.83,31.83,20.5,48.5-2.33,31.25-11.67,42.58-10.42,25.75,6.92,36.42,6.42,17.58,5.08,23.58,0,12,3.33,16 c -1.33-11.33,1.33-14,7.33-21.33 s -1.08-16.25-13.75-24.25-9.63-17.79,1.71-29.79,22-27.29,4-56.62-17.33-50-.67-78 S 255.41,376.2,291.41,398.2Z" fill="param(accent_colour_1)"/>
    <path d="M 296.74,449.36 s -4,11-24.5,12-35.5,7.5-42,26 c 4-23,18.5-32,32.5-32 S 290.74,455.36,296.74,449.36Z" fill="param(accent_colour_1)"/>
    <path d="M 295.74,406.86 s -35.79-21.83-76.25,2.5 c -39.5,23.75-26.75,66.25-16.25,84.25 s 17,46.75,1,60.25-11,24,0,31.5,15.5,20,13,29.5 c 6-8,4.6-27.06-5.5-33-8.5-5-10.5-12.5-2.25-19.5,9-7.67,19.25-27,5.75-60.5 s -17.75-60.75,3.25-78.75 S 258.74,397.86,295.74,406.86Z" fill="param(accent_colour_1)"/>
    <path d="M 294.24,415.86 s -47.69-12.62-72,22 c -16.5,23.5-.5,39,1,60,2-14-4.92-33.57.25-46.5 C 229.49,436.36,251.74,413.86,294.24,415.86Z" fill="param(accent_colour_1)"/>
    <path d="M 294.74,428.86 S 282,442.61,262.49,444.11 s -32.25,19.25-33.75,28.75 c 0-18.5,14.5-35.25,34.5-37.25 S 288.74,432.86,294.74,428.86Z" fill="param(accent_colour_1)"/>
    <path d="M 230.74,556.36 s 6,10.5-3.5,19,3,24,12,27 c -7-6.5-11-14-5-19.5 S 240.74,566.36,230.74,556.36Z" fill="param(accent_colour_1)"/>
    <path d="M 249.24,575.36 s 3,7-.5,11.5,2,12,2,12,.5-7,3.5-11 S 253.74,577.86,249.24,575.36Z" fill="param(accent_colour_1)"/>
    <path d="M 302.24,397.86 s 15.25-21,44.75-17.5,58,25,68,64-3.25,74-14.25,93.5-11.5,26.75-3,38.25,4.5,30.25-14.5,41.25 c 11-12,18.5-26.25,9.5-38.75 s -9.25-25.5-1-41 c 8.14-15.3,27-47.75,14-93.75 S 350.24,368.86,302.24,397.86Z" fill="param(accent_colour_1)"/>
    <path d="M 302.24,405.86 s 22.5-16.5,55-5.5,44.5,57.25,41,84.75-14.5,42.25-20,59.75-3.75,21.75,2.25,33.25-12.75,20.75-7.25,38.25 c -6.5-9-5-17.5,0-25.5 s -.5-13.5-3-19-2.5-19,10-48,17.25-57.5.75-89.5 S 333.74,395.86,302.24,405.86Z" fill="param(accent_colour_1)"/>
    <path d="M 303.24,414.86 S 325,404.11,353,422.11 s 34.25,56.25,24.25,84.75 C 380.24,473.86,374.24,416.86,303.24,414.86Z" fill="param(accent_colour_1)"/>
    <path d="M 303.74,427.86 s 1.75,9,18.75,15,41.5,14,48.75,48 c 1.5-17.5-9-35.5-23-45 S 314.74,439.36,303.74,427.86Z" fill="param(accent_colour_1)"/>
    <path d="M 303.74,447.36 a 29.9,29.9,0,0,0,20,13 c 14,2.5,27,6,34.5,14.5-4-9-16-17-26-19.5 S 308.74,453.36,303.74,447.36Z" fill="param(accent_colour_1)"/>
    <path d="M 360.74,565.36 s -5,8.5,0,16.5,2,22.5-2.5,26 c 2-7.5,3-12.5-2.5-19 S 357.24,569.36,360.74,565.36Z" fill="param(accent_colour_1)"/>
    <path d="M 342.24,580.86 s 8,14.5-4,24 C 341.24,595.86,342.24,580.86,342.24,580.86Z" fill="param(accent_colour_1)"/>
    <path d="M 268.24,586.86 s 5.17,9.17,3,15 C 277.08,598.7,276.74,591.86,268.24,586.86Z" fill="param(accent_colour_1)"/>
    <path d="M 332.24,587.36 s -5.5,7-6.5,15 C 322.74,597.86,322.74,589.86,332.24,587.36Z" fill="param(accent_colour_1)"/>
  </g>
  <g id="accent-colour-2">
    <path d="M 293.24,395.86 S 276.53,372.7,237.08,378 c -37,5-65,37.5-71,67 s 4,43.33,9,51.33,20.67,25,12.67,35.5 c 2.33-9.83-3.17-20.33-12.67-31.83 s -17.5-31.5-12-56,23.33-49.94,54.67-63.67 C 248,367.11,284.74,378.86,293.24,395.86Z" fill="param(accent_colour_2)"/>
    <path d="M 171.74,553.7 s -12.33,19.33-2,31.67,21.67,14,17,24-4.67,18,3.33,22.67 c -5-5.67-4.46-13.9-1.33-20.67,4-8.67.33-12-7.33-18.67 S 162.41,582,171.74,553.7Z" fill="param(accent_colour_2)"/>
    <path d="M 190.74,483.36 s 27,39.67,11.33,60-19.7,28-13,34.67 c 7,7,27,21,16.33,40,8.67-12,4-20.33-4-31-6.65-8.86-20.33-12-9-27.67,8.13-11.24,19-15.33,16.33-36.67 S 190.74,483.36,190.74,483.36Z" fill="param(accent_colour_2)"/>
    <path d="M 186.08,454 s 1.33-37.33,35.67-54,65.33-3,72.67,3.33 c -12.67-7.33-40.42-16.16-71.5-2 C 191.08,415.86,186.08,454,186.08,454Z" fill="param(accent_colour_2)"/>
    <path d="M 295.74,411.7 s -23.67-13.83-57,2.83-32.17,43.5-28.83,57.83,12.17,30,13.5,45 c 1.33-11-7.67-31.17-11.5-43.83-3-9.79-5.5-38,23.5-55.33 C 258.34,404.49,283.41,407,295.74,411.7Z" fill="param(accent_colour_2)"/>
    <path d="M 224.41,474 s -2-25,19.67-41.33,39-6,49.67-14 c -3.83,5.33-9.49,5.07-21.83,6 C 258.58,425.7,228.91,434.36,224.41,474Z" fill="param(accent_colour_2)"/>
    <path d="M 232.41,469.36 s 9-16.83,25.83-19.17 c 14.62-2,26-1.17,34.83-11.17-5,7.33-13,11.83-24.83,12.5 C 260.25,452,244.41,453,232.41,469.36Z" fill="param(accent_colour_2)"/>
    <g mask="url(#mask)">
      <path d="M 245.41,470.36 s -20.45,8.55-19.33,34 C 228.74,492.36,237.74,476.36,245.41,470.36Z" fill="#cdbea5"/>
    </g>
    <path d="M 226.08,540.7 s -.28,16-6.33,22.67 c -7,7.67-5.15,10.65,0,19.67,4,7,6.33,21.33,3.33,25.33,5-5.33,1-22.33-2.67-29 s -2.33-9.67,1.33-14.33 S 227.41,551,226.08,540.7Z" fill="param(accent_colour_2)"/>
    <path d="M 242.41,567 s 3.33,9-.67,16-5.33,15.67,1.33,19.33 c -2.33-5.67-4-10.67-.33-16 S 246.41,573,242.41,567Z" fill="param(accent_colour_2)"/>
    <path d="M 258.08,582.7 s 4.33,15.67-2,21.33 C 263.08,597.36,262.74,590,258.08,582.7Z" fill="param(accent_colour_2)"/>
    <g mask="url(#mask-2)">
      <path d="M 337.74,583.36 s -9,7-2.67,17 C 334.08,594,336.41,585,337.74,583.36Z" fill="#cdbea5"/>
    </g>
    <path d="M 349.74,576 s -4.33,8.33-1,13.33,5.33,14,.67,18.67 c 6-4.33,6-12,2-18.67 C 347.52,582.88,349.74,578,349.74,576Z" fill="param(accent_colour_2)"/>
    <path d="M 364.41,559 s -4.93,9.68.33,18 c 6.33,10,5.33,14.67-6.5,30.83,9.5-7.17,15.83-21.83,10.5-28.5 S 363.41,564.36,364.41,559Z" fill="param(accent_colour_2)"/>
    <path d="M 403.08,487.7 s -6.27,27.13-15.67,44.67 c -10,18.67-10.45,29.34-6.67,36.33,4.33,8,15,31-4,47.67,11.33-6.33,18.33-27.33,9.67-41.67 s -5.67-23.67,1-35.33 S 402.41,502.36,403.08,487.7Z" fill="param(accent_colour_2)"/>
    <path d="M 304.41,400.7 s 16.67-14.67,43.33-11,60,30.67,57,83.33 C 406.74,434.7,373.08,368.36,304.41,400.7Z" fill="param(accent_colour_2)"/>
    <path d="M 304.08,410.36 s 16.33-9.33,41-1.67,37,32,40.67,49.67.67,43.67-8.33,59.33 c 6.67-21,12-41,3.33-67.67 C 374.62,431.18,351.74,398.36,304.08,410.36Z" fill="param(accent_colour_2)"/>
    <path d="M 303.74,418.7 s 4.33,6.67,29.67,13.67,38.33,28,38.67,44 c -.33-21.67-15.33-37-28-43 S 312.41,424.7,303.74,418.7Z" fill="param(accent_colour_2)"/>
    <path d="M 302.74,437 s 5.67,9.67,15.67,12.33,22,5.67,28,10.33 c -5-7.33-17-9.4-24-11.33 C 312.74,445.7,307.41,441,302.74,437Z" fill="param(accent_colour_2)"/>
    <path d="M 302.41,394.7 s 11.67-18,35-21.33,56.33,15.33,71.67,40.33,20.33,63.67,9,94.33 c 3.33-17.67,9-46.33-2.67-75.33-9.69-24.08-26.33-48.33-66-56 C 332.41,372.36,313.74,383.36,302.41,394.7Z" fill="param(accent_colour_2)"/>
    <path d="M 407.74,532.7 s -12.67,19-13,29 c -.36,10.71,10.61,13.72,10,26-.67,13.33-11.33,27.67-17.33,30,12-5.33,22-23.67,18.33-37.33 s -12.33-10.67-7-26 S 407.74,532.7,407.74,532.7Z" fill="param(accent_colour_2)"/>
  </g>
<script type="text/ecmascript" xlink:href="param.min.js"/> 
</svg>
