<?xml version="1.0"?>
<svg xmlns="http://www.w3.org/2000/svg" xmlns:xlink="http://www.w3.org/1999/xlink" id="Layer_1" data-name="Layer 1" viewBox="0 0 600 1032.4">
  <title>HS006</title>
  <g id="main-colour">
    <path d="M 179.2,509.2 a 88.2,88.2,0,0,0,5.9,18 l 2,4.5.1.2 c 8.3,17.9,18.1,27,9.2,38.7-12.5,16.5-1.1,39.3,11.4,46.8 s -10,18.3,10.1,29.2 l .3-.4 c -.8-3.7-2.1-12.1,1.1-19.1,3.7-1,6.3,2.7,8,6 a 11.61,11.61,0,0,0-4-12.3 c 5,0,8.7,3.3,11,6,1.7-2.7-.3-8-.3-8 s 3,4,7.3,3.3 c -2.7-1.7-2.3-7.3-2.3-7.3 s 2.7,4,9.3,4 c -4.3-1.7-2.3-9.3-2.3-9.3 s 6,3.3,7.3,6.3 c 2.3-2.7,2.7-9.3-1.7-13.3,7,0,12.3,9.7,12.3,9.7 s 2.7-4,.7-6.3 c 3.3,0,6,4.3,6,4.3 s 2.7-4.3-.3-7.7 c 4,.3,7,6.3,7,6.3 a 20.12,20.12,0,0,1,3-11.7 c -.3,5.3,8,10,8,10 s -1-4,1-5.7 c 1,2,5,5.3,5,5.3 s -.7-4.3,1.3-6.7 c 3.7.7,4.3,6,4.3,6 s 4-3.7,4.3-7.3 c 3.7,2.7,2,7.3,2,7.3 s 6-1,7.7-6.3 c 0,3,5,6.3,5,6.3 s 0-3.7,4-7.3 c 0,4.3,8,9,8,9 s -2-3.3,1.3-7.3 a 11.3,11.3,0,0,1,3.7,7.7 s 2.7-2.7,3.3-5.3 a 16,16,0,0,1,2.3,6.3,9.78,9.78,0,0,0,4-10 c 4.7,4,5.7,12.3,5.7,12.3 s .8-4.7,3.3-7.7 c 2.8,8.1,6.7,10.3,6.7,10.3 s 2-3,1.3-5.7 c 3.3,1.3,3.7,7.7,3.7,7.7 s 3.7-2.3,4.3-9.7 a 24.84,24.84,0,0,1,5,13,13.88,13.88,0,0,0,3.7-4.3 c 2.1,2.5,2,8.3,2,8.3 s 1.8-7,9-6.7 c -4.4,5.9.7,13,.7,13 s .3-3.9,3.3-4.7 c 1.3,3.3,1,9,1,9 s 6.7-1,7-8 c 2.4,8-.2,12-2.2,13.8,18.7.8,24-17.1,19.7-23-4.5-6-8-11.5,3-19 s 27-23.5,6.5-50-9.2-34.9,2.6-52.8 c 22.5-34,2.6-77.3-15.2-96-15.9-16.6-37.6-26.5-58.7-28-33.6-2.4-57.4,22.7-57.4,22.7 s -17.7-27.4-50-22.3 C 197.8,379.7,160.4,433.6,179.2,509.2Z M 226.8,524 c 0-12.2,2.8-29.6,16.5-44.2,17-18.2,47.3-5.8,56.8-24.2,11.5,20,39.7,4.5,57.2,22.3,14.3,14.6,15.8,38.9,15.5,51.8 a 73.85,73.85,0,0,1-146-5.7Z" fill="param(main_colour)"/>
  </g>
  <g id="accent-colour-1">
    <path d="M 408,419.7 c 16.7,28,17.3,48.7-.7,78 s -7.3,44.6,4,56.6,14.4,21.8,1.7,29.8-19.8,16.9-13.8,24.2,8.7,10,7.3,21.3 a 18.67,18.67,0,0,0,3.3-16 c -1.4-6-12.3-12.9,5.1-23.6 s 16.3-25.1,6.9-36.4-22.3-25.9-11.7-42.6,19.2-23.8,20.5-48.5-19.7-72.2-63-79.5-59.2,15.1-59.2,15.1 C 344.6,376.2,391.3,391.7,408,419.7Z" fill="param(accent_colour_1)"/>
    <path d="M 337.3,455.4 c 14,0,28.5,9,32.5,32-6.5-18.5-21.5-25-42-26 s -24.5-12-24.5-12 C 309.3,455.4,323.3,455.4,337.3,455.4Z" fill="param(accent_colour_1)"/>
    <path d="M 381.5,423.1 c 21,18,16.8,45.2,3.2,78.8 s -3.2,52.8,5.8,60.5 c 8.2,7,6.2,14.5-2.2,19.5-10.1,5.9-11.5,25-5.5,33-2.5-9.5,2-22,13-29.5 s 16-18,0-31.5-9.5-42.3,1-60.3,23.2-60.5-16.2-84.2 c -40.5-24.3-76.2-2.5-76.2-2.5 C 341.3,397.9,360.5,405.1,381.5,423.1Z" fill="param(accent_colour_1)"/>
    <path d="M 376.5,451.4 c 5.2,12.9-1.8,32.5.2,46.5,1.5-21,17.5-36.5,1-60-24.3-34.6-72-22-72-22 C 348.3,413.9,370.5,436.4,376.5,451.4Z" fill="param(accent_colour_1)"/>
    <path d="M 336.8,435.6 c 20,2,34.5,18.8,34.5,37.2-1.5-9.5-14.2-27.2-33.8-28.8 s -32.2-15.2-32.2-15.2 C 311.3,432.9,316.8,433.6,336.8,435.6Z" fill="param(accent_colour_1)"/>
    <path d="M 365.8,582.9 c 6,5.5,2,13-5,19.5,9-3,21.5-18.5,12-27 s -3.5-19-3.5-19 C 359.3,566.4,359.8,577.4,365.8,582.9Z" fill="param(accent_colour_1)"/>
    <path d="M 345.8,587.9 c 3,4,3.5,11,3.5,11 s 5.5-7.5,2-12-.5-11.5-.5-11.5 C 346.3,577.9,342.8,583.9,345.8,587.9Z" fill="param(accent_colour_1)"/>
    <path d="M 194.3,443.9 c -13,46,5.9,78.5,14,93.8,8.2,15.5,8,28.5-1,41 s -1.5,26.8,9.5,38.8 c -19-11-23-29.8-14.5-41.2 s 8-18.8-3-38.2 S 175,483.4,185,444.4 s 38.5-60.5,68-64,44.8,17.5,44.8,17.5 C 249.8,368.9,207.3,397.9,194.3,443.9Z" fill="param(accent_colour_1)"/>
    <path d="M 219,434.4 c -16.5,32-11.8,60.5.8,89.5 s 12.5,42.5,10,48-8,11-3,19,6.5,16.5,0,25.5 c 5.5-17.5-13.2-26.8-7.2-38.2 s 7.8-15.8,2.2-33.2-16.5-32.2-20-59.8,8.5-73.8,41-84.8,55,5.5,55,5.5 C 266.3,395.9,235.5,402.4,219,434.4Z" fill="param(accent_colour_1)"/>
    <path d="M 222.8,506.9 c -10-28.5-3.8-66.8,24.2-84.8 s 49.8-7.2,49.8-7.2 C 225.8,416.9,219.8,473.9,222.8,506.9Z" fill="param(accent_colour_1)"/>
    <path d="M 251.8,445.9 c -14,9.5-24.5,27.5-23,45,7.2-34,31.8-42,48.8-48 s 18.8-15,18.8-15 C 285.3,439.4,265.8,436.4,251.8,445.9Z" fill="param(accent_colour_1)"/>
    <path d="M 267.8,455.4 c -10,2.5-22,10.5-26,19.5,7.5-8.5,20.5-12,34.5-14.5 a 30.09,30.09,0,0,0,20-13 C 291.3,453.4,277.8,452.9,267.8,455.4Z" fill="param(accent_colour_1)"/>
    <path d="M 244.3,588.9 c -5.5,6.5-4.5,11.5-2.5,19-4.5-3.5-7.5-18-2.5-26 s 0-16.5,0-16.5 C 242.8,569.4,249.8,582.4,244.3,588.9Z" fill="param(accent_colour_1)"/>
    <path d="M 261.8,604.9 c -12-9.5-4-24-4-24 S 258.8,595.9,261.8,604.9Z" fill="param(accent_colour_1)"/>
    <path d="M 328.8,601.9 c -2.2-5.8,3-15,3-15 C 323.3,591.9,322.9,598.7,328.8,601.9Z" fill="param(accent_colour_1)"/>
    <path d="M 274.3,602.4 c -1-8-6.5-15-6.5-15 C 277.3,589.9,277.3,597.9,274.3,602.4Z" fill="param(accent_colour_1)"/>
  </g>
  <g id="accent-colour-2">
    <path d="M 382.2,380.3 c 31.3,13.7,49.2,39.2,54.7,63.7 s -2.5,44.5-12,56-15,22-12.7,31.8 c -8-10.5,7.7-27.5,12.7-35.5 s 15-21.8,9-51.3-34-62-71-67 c -39.5-5.3-56.2,17.9-56.2,17.9 C 315.3,378.9,352,367.1,382.2,380.3Z" fill="param(accent_colour_2)"/>
    <path d="M 418.6,592.7 c -7.7,6.7-11.3,10-7.3,18.7,3.1,6.8,3.7,15-1.3,20.7,8-4.7,8-12.7,3.3-22.7 s 6.7-11.7,17-24-2-31.7-2-31.7 C 437.6,582,426.2,586,418.6,592.7Z" fill="param(accent_colour_2)"/>
    <path d="M 391.3,522.7 c -2.7,21.3,8.2,25.4,16.3,36.7,11.3,15.7-2.4,18.8-9,27.7-8,10.7-12.7,19-4,31-10.7-19,9.3-33,16.3-40,6.7-6.7,2.7-14.3-13-34.7 s 11.3-60,11.3-60 S 393.9,501.4,391.3,522.7Z" fill="param(accent_colour_2)"/>
    <path d="M 377.1,401.3 c -31.1-14.2-58.8-5.3-71.5,2,7.3-6.3,38.3-20,72.7-3.3 S 414,454,414,454,408.9,415.9,377.1,401.3Z" fill="param(accent_colour_2)"/>
    <path d="M 364.6,418.2 c 29,17.3,26.5,45.5,23.5,55.3-3.8,12.7-12.8,32.8-11.5,43.8,1.3-15,10.2-30.7,13.5-45 s 4.5-41.2-28.8-57.8-57-2.8-57-2.8 C 316.6,407,341.7,404.5,364.6,418.2Z" fill="param(accent_colour_2)"/>
    <path d="M 328.1,424.7 c -12.3-.9-18-.7-21.8-6,10.7,8,28-2.3,49.7,14 S 375.7,474,375.7,474 C 371.1,434.4,341.4,425.7,328.1,424.7Z" fill="param(accent_colour_2)"/>
    <path d="M 331.8,451.5 C 320,450.8,312,446.3,307,439 c 8.8,10,20.2,9.2,34.8,11.2,16.8,2.3,25.8,19.2,25.8,19.2 C 355.6,453,339.8,452,331.8,451.5Z" fill="param(accent_colour_2)"/>
    <path d="M 373.9,504.4 c 1.1-25.5-19.3-34-19.3-34 C 362.3,476.4,371.3,492.4,373.9,504.4Z" fill="param(accent_colour_2)"/>
    <path d="M 378.3,565 c 3.7,4.7,5,7.7,1.3,14.3 s -7.7,23.7-2.7,29 c -3-4-.7-18.3,3.3-25.3,5.1-9,7-12,0-19.7-6.1-6.7-6.3-22.7-6.3-22.7 C 372.6,551,374.6,560.4,378.3,565Z" fill="param(accent_colour_2)"/>
    <path d="M 357.3,586.3 c 3.7,5.3,2,10.3-.3,16,6.7-3.7,5.3-12.3,1.3-19.3 s -.7-16-.7-16 C 353.6,573,353.6,581,357.3,586.3Z" fill="param(accent_colour_2)"/>
    <path d="M 343.9,604 c -6.3-5.7-2-21.3-2-21.3 C 337.3,590,336.9,597.4,343.9,604Z" fill="param(accent_colour_2)"/>
    <path d="M 264.9,600.4 c 6.3-10-2.7-17-2.7-17 C 263.6,585,265.9,594,264.9,600.4Z" fill="param(accent_colour_2)"/>
    <path d="M 248.6,589.3 c -4,6.7-4,14.3,2,18.7-4.7-4.7-2.7-13.7.7-18.7 s -1-13.3-1-13.3 C 250.3,578,252.5,582.9,248.6,589.3Z" fill="param(accent_colour_2)"/>
    <path d="M 231.3,579.3 c -5.3,6.7,1,21.3,10.5,28.5 C 230,591.6,229,587,235.3,577 c 5.3-8.3.3-18,.3-18 C 236.6,564.4,236.6,572.7,231.3,579.3Z" fill="param(accent_colour_2)"/>
    <path d="M 212.6,539.4 c 6.7,11.7,9.7,21,1,35.3 s -1.7,35.3,9.7,41.7 c -19-16.7-8.3-39.7-4-47.7,3.8-7,3.3-17.7-6.7-36.3-9.4-17.5-15.7-44.7-15.7-44.7 C 197.6,502.4,205.9,527.7,212.6,539.4Z" fill="param(accent_colour_2)"/>
    <path d="M 195.3,473 c -3-52.7,30.3-79.7,57-83.3 s 43.3,11,43.3,11 C 226.9,368.4,193.3,434.7,195.3,473Z" fill="param(accent_colour_2)"/>
    <path d="M 219.2,450 c -8.7,26.7-3.3,46.7,3.3,67.7-9-15.7-12-41.7-8.3-59.3 s 16-42,40.7-49.7,41,1.7,41,1.7 C 248.3,398.4,225.4,431.2,219.2,450Z" fill="param(accent_colour_2)"/>
    <path d="M 255.9,433.4 c -12.7,6-27.7,21.3-28,43,.3-16,13.3-37,38.7-44 s 29.7-13.7,29.7-13.7 C 287.6,424.7,268.6,427.4,255.9,433.4Z" fill="param(accent_colour_2)"/>
    <path d="M 277.6,448.3 c -7,1.9-19,4-24,11.3,6-4.7,18-7.7,28-10.3 S 297.3,437,297.3,437 C 292.6,441,287.3,445.7,277.6,448.3Z" fill="param(accent_colour_2)"/>
    <path d="M 250.6,376.7 c -39.7,7.7-56.3,31.9-66,56-11.7,29-6,57.7-2.7,75.3-11.3-30.7-6.3-69.3,9-94.3 s 48.3-43.7,71.7-40.3 a 53.21,53.21,0,0,1,35,21.3 C 286.3,383.4,267.6,372.4,250.6,376.7Z" fill="param(accent_colour_2)"/>
    <path d="M 201.3,554.4 c 5.3,15.3-3.3,12.3-7,26 s 6.3,32,18.3,37.3 c -6-2.3-16.7-16.7-17.3-30-.6-12.3,10.4-15.3,10-26-.3-10-13-29-13-29 S 195.9,539,201.3,554.4Z" fill="param(accent_colour_2)"/>
  </g>
<script type="text/ecmascript" xlink:href="param.min.js"/> 
</svg>
