<?xml version="1.0"?>
<svg xmlns="http://www.w3.org/2000/svg" xmlns:xlink="http://www.w3.org/1999/xlink" viewBox="0 0 600 1032.36">
  <title>HS003</title>
  <g id="main-colour">
    <path d="M 412.77,446.05 c 1.67-6.91,3.39-27.36-7.53-43.31-13.44-19.65-49.18-38.87-88-24.87 C 303.07,383,298.73,390.5,297,394.56 c -9.12-5.74-39.29-20.95-78.23,2.81-53,32.33-59.67,122.5,15.83,153.5,0,0-8.42-21.75-5.83-39.5,2.18-15,19.42-54.08,69.92-56.08.83-.08,1.58-.17,2.15-.25,9.46,11.41,28.25,26.22,64.76,34.36,10.92,23.73,4.42,53.85-.82,61.48,28.76-16.82,42.21-39.31,47.18-62 C 424.31,478.74,429.32,456.87,412.77,446.05Z" fill="param(main_colour)"/>
  </g>
  <g id="accent-colour-1">
    <path d="M 297.24,437.36 s 8,26.5,45,41.5,66.5,11.5,74,.25 c 7.2-10.79,6.05-25.4-7-29.75-14.25-4.75-25,10.5-18,18.5-.5-6.5,7-17,15.5-12 s 4,18.75-13,22.75 S 326.24,473.86,297.24,437.36Z" fill="param(accent_colour_1)"/>
    <path d="M 298.49,399.61 s 18.34-28.17,62.25-18.25 c 44.25,10,53.25,42.5,48.25,63.25.75-24-17.75-47-46.5-54.75 C 334.08,382.21,314.49,385.61,298.49,399.61Z" fill="param(accent_colour_1)"/>
    <path d="M 298,408.11 s 23.46-22.51,63.5-5.5 c 38.25,16.25,37.5,40,37.5,40 S 368.24,388.86,298,408.11Z" fill="param(accent_colour_1)"/>
    <path d="M 294.74,418.36 s 55.75-19,91,29.25 C 367,430.11,326.24,417.11,294.74,418.36Z" fill="param(accent_colour_1)"/>
    <path d="M 298,429.36 s 32.5,32.25,81.5,32.75 C 362.74,457.86,324.74,431.61,298,429.36Z" fill="param(accent_colour_1)"/>
    <path d="M 376.74,493.86 s 7.25,27.25-5.25,49.25 C 383.49,531.11,389,508.61,376.74,493.86Z" fill="param(accent_colour_1)"/>
    <path d="M 390.49,494.61 s 6.25,20.25-9,40 C 395,522.11,402.24,504.61,390.49,494.61Z" fill="param(accent_colour_1)"/>
    <path d="M 294.24,447.11 s -41.47-1-61.25,33.5 c -8.75,15.25-13.25,42-5.25,61 C 215.49,528.86,213,493.36,229,469.36,245.16,445.11,273.49,442.36,294.24,447.11Z" fill="param(accent_colour_1)"/>
    <path d="M 213.49,533.36 s -18.75-50.25,10-80.75 c 28.09-29.8,68.5-17.25,68.5-17.25 s -38.25-27.5-73,8.75 C 181.61,483.11,213.49,533.36,213.49,533.36Z" fill="param(accent_colour_1)"/>
    <path d="M 290.49,418.11 s -54.75-19-83,22.75-6.25,84.25-6.25,84.25-24-31.75-8.75-74.25 C 208.75,405.54,264.24,398.11,290.49,418.11Z" fill="param(accent_colour_1)"/>
    <path d="M 293.49,403.36 a 76.53,76.53,0,0,0-33.75-6.5 c -22.5.75-57.25,8.75-76.75,60.25,1.75-21,13.5-37.06,27-48.5 C 228,393.36,268.49,379.36,293.49,403.36Z" fill="param(accent_colour_1)"/>
  </g>
  <g id="accent-colour-2">
    <path d="M 295.24,441.86 s -37-10.25-64,16.5-16.25,71-11.5,79.5 c -9-12-15-50.25,4-75.25 S 273.24,435.86,295.24,441.86Z" fill="param(accent_colour_2)"/>
    <path d="M 294,430.86 s -37-26.75-75.5,6.5 c -32,27.66-19.25,80-10,93.25-9.25-7.5-20.25-48-3.75-79.5 S 265.24,406.86,294,430.86Z" fill="param(accent_colour_2)"/>
    <path d="M 292.24,411.61 s -13-9.25-42.75-6.5 c -34,3.14-47.5,22.5-47.5,22.5 s 9.13-19.25,45-24.5 C 277.74,398.61,292.24,411.61,292.24,411.61Z" fill="param(accent_colour_2)"/>
    <path d="M 189.24,449.11 s -13.25,33,4,66 C 186.49,508.11,175.24,474.36,189.24,449.11Z" fill="param(accent_colour_2)"/>
    <path d="M 296.24,451.86 S 244,453.61,228,504.11 C 233.74,477.36,257.74,451.61,296.24,451.86Z" fill="param(accent_colour_2)"/>
    <path d="M 235,391.36 s 35.25-10.75,59,5.5 C 284.24,386.36,258.24,382.11,235,391.36Z" fill="param(accent_colour_2)"/>
    <path d="M 302.74,391.36 s 28.75-28.25,77-6 C 365.24,373.11,319.24,369.11,302.74,391.36Z" fill="param(accent_colour_2)"/>
    <path d="M 300.49,401.11 s 15.44-16.45,48.25-9.5 c 29.5,6.25,51.5,22.75,57.25,51.25-7.25-19-17.5-36.5-50.5-46.75 C 322.18,385.77,300.49,401.11,300.49,401.11Z" fill="param(accent_colour_2)"/>
    <path d="M 299.74,414.86 s 13.5-7.75,32.75-6.5 c 12.48.81,44.25,7.75,60.5,36.5 C 369.49,416.36,332.49,403.36,299.74,414.86Z" fill="param(accent_colour_2)"/>
    <path d="M 298,423.36 s 23.23,3.66,36.5,8.75 c 15,5.75,38.5,21.5,47.5,21.75-6-2.75-17.53-9.22-28.25-15.75 C 342.24,431.11,317.49,422.61,298,423.36Z" fill="param(accent_colour_2)"/>
    <path d="M 299.49,435.86 s 20,22,46.75,32.25,50.67,9.75,57,5.25,6.5-12,1.75-15-10.5,2.5-10.75,7.25 c 1.75-4,10.5-9,11-.5.48,8.08-16.67,10.58-36.25,7.25 S 325,458.36,299.49,435.86Z" fill="param(accent_colour_2)"/>
    <path d="M 385,465.11 s -.25-21.5,23.88-18 C 389.74,442.11,384,454.36,385,465.11Z" fill="param(accent_colour_2)"/>
    <path d="M 367.24,488.36 s 24.25,7.5,42.5-.75 C 394.24,496.11,378.49,493.36,367.24,488.36Z" fill="param(accent_colour_2)"/>
    <path d="M 371.49,498.11 s 6.75,21.25-1,44.5 C 375.49,532.11,378.74,512.36,371.49,498.11Z" fill="param(accent_colour_2)"/>
    <path d="M 384.74,496.11 a 54.9,54.9,0,0,1-6.5,42 C 386.24,529.36,391.49,507.11,384.74,496.11Z" fill="param(accent_colour_2)"/>
    <path d="M 399.74,495.36 s 3.5,17.5-11.25,34.75 C 399.49,519.61,404.24,503.61,399.74,495.36Z" fill="param(accent_colour_2)"/>
  </g>
<script type="text/ecmascript" xlink:href="param.min.js"/> 
</svg>
