<?xml version="1.0"?>
<svg xmlns="http://www.w3.org/2000/svg" xmlns:xlink="http://www.w3.org/1999/xlink" viewBox="0 0 600 1032.4">
  <title>HS001</title>
  <g id="main-colour">
    <path d="M 348,655.26 c -8.49-16.74,19.16-47.44,41.35-70.36,18.92-19.55,37.45-49,39.54-99.72,2-48.89-36.08-94.61-72.74-100.88-41.25-7.05-56,19.1-56,19.1 l -2-2.8 c -26.66-30.5-71-20.54-99.86,3.71-23.07,19.39-30.51,58.35-29.61,85.25.2,8.3,3.45,32.26,13.75,50.66,8.52,15.23,16,28.21,24.68,44.29,9.93,18.42,16.64,57.26-28.94,52.78,7.38,8.07,25.2,11.15,35.6,5.43,0,0-7.07,8.4-14.16,11.21 a 31.11,31.11,0,0,1-18.62,1.45 c 24.79,17.05,43.58.92,43.58.92 s -3.4,8.18-11.23,10.39 a 26.64,26.64,0,0,0,16.62-3.61 s -7.9,12.12-18.83,15.41 a 37.26,37.26,0,0,0,35.93-15 s 4,17.21-4.88,28.61 c 13.94-5.41,19.95-22.53,19.95-22.53 s 2.35,20.13,15.22,28.3 a 27.54,27.54,0,0,1-2.53-24.06 s 4.46,11.69,11.84,14 a 15.48,15.48,0,0,1-3.56-15.89 c 2.48,8.51,13.19,22,27.44,27.13-7-9.17-7.94-22.66-7.94-22.66 s 8.1,13.8,19.67,18 c -2.11-.66-9.28-10.16-8.88-18.26,1.86,3.26,18.14,18,38.4,15.56-8.31-1.78-21.07-11.45-23.45-21.88,4.93,5.65,18.1,11,25.93,8.81-2.84-.1-9.54-2.24-12.75-7.32,3.69,2.83,22.47,12.16,39.92-5 C 375.33,671.64,356.44,672,348,655.26Z M 341.47,577 c -31.74,22.57-80,15.76-102.27-19.37-10.18-16-10.94-29.1-10.66-43.09 s 9.51-37.71,23.16-46.91 c 25.93-17.47,49.61,3.72,49.61,3.72 s 23.07-17.08,43.78-6 c 12.75,6.83,25,23.87,25.46,50.95 C 370.56,516.28,378,551,341.47,577Z" fill="param(main_colour)"/>
  </g>
  <g id="accent-colour-1">
    <path d="M 296.55,409.05 s -21.84-20.1-48.34-16.65-60.82,25.32-66.69,73 S 197.95,545,209.65,567.88 s 23.48,70.31-14.83,70.67 c 20.82,1,30.43-11.16,30.95-33.47.51-22.08-13.08-45.8-28.14-78.41-12.46-27-12.38-73.77,7.58-97.67 S 254.84,386.47,296.55,409.05Z" fill="param(accent_colour_1)"/>
    <path d="M 298.5,464.23 s -27.11-27.63-59.81,5.19-13.63,77.31-2.39,97.06,29.87,66.7-6.33,105 c 13.18-20,17.81-49.15,12.73-69.34 s -14-32.93-21.79-52.07-18.26-60.59,14.24-89.39 S 295.69,457.13,298.5,464.23Z" fill="param(accent_colour_1)"/>
    <path d="M 228.37,588.44 S 242.13,645.7,199.53,657 C 225.28,654.91,242.45,638.14,228.37,588.44Z" fill="param(accent_colour_1)"/>
    <path d="M 293.2,442.48 s -28.79-23.86-63,3.11-25.85,74.64-14.29,104.1 c -15.44-27.6-26.77-72.75-2.16-102.94 S 277.79,420.47,293.2,442.48Z" fill="param(accent_colour_1)"/>
    <path d="M 214.56,430.64 s 13-16,31.51-20.34,37.07-.06,48.43,16.16 C 279.06,416.12,254.9,406.28,214.56,430.64Z" fill="param(accent_colour_1)"/>
    <path d="M 257,587.39 s 18,36.17-3.52,86.2 C 271,651.81,276.77,616.27,257,587.39Z" fill="param(accent_colour_1)"/>
    <path d="M 305.71,406.1 s 20.82-20.19,52.89-12,60.31,46.68,62.81,87.23-25.94,83.77-46,105.12 S 329.66,638.79,343.51,661 c -10-6.83-12.08-26.5,4.11-52.08 s 52-52.78,61.3-102.92-14.87-79.79-37-95.37 C 353.07,397.4,328.15,396.86,305.71,406.1Z" fill="param(accent_colour_1)"/>
    <path d="M 304.93,462.32 S 319,451.6,340.5,456.4 s 39.92,29.89,36.74,62.33-14.74,46.14-30.58,61.12-51.49,64.54-24,98.83 c -9-26.47-3.4-49.85,11.43-70.59 s 44.88-43.87,51.39-80.8-6.14-63.53-30.21-73.87 C 331.72,443.32,311.33,454.82,304.93,462.32Z" fill="param(accent_colour_1)"/>
    <path d="M 321.63,592.19 s -28.78,45.19-13.6,82.9 C 296.21,664.37,288.21,623.36,321.63,592.19Z" fill="param(accent_colour_1)"/>
    <path d="M 280.65,597.15 s 8.06,34.93-4.83,67.69 A 63.11,63.11,0,0,0,280.65,597.15Z" fill="param(accent_colour_1)"/>
    <path d="M 305.54,441.61 s 25.49-17.85,56.57-1.2,40.33,56.36,30.4,89.64 c 14.62-34,9.26-66.91-9-86.89 S 320.71,418.9,305.54,441.61Z" fill="param(accent_colour_1)"/>
    <path d="M 305.07,421.22 a 45.24,45.24,0,0,1,39.24-12.37 c 24.71,3.85,38.09,23,38.09,23 S 347,402.21,305.07,421.22Z" fill="param(accent_colour_1)"/>
  </g>
  <g id="accent-colour-2">
    <path d="M 293.23,401 S 276.6,385.9,247,388.48 s -56.77,28.24-64.22,57-11,46.81,4.68,84.77,20.32,42.17,23.89,52.62 c -11.72-18-22.23-37.09-30.21-57.11 s -16.61-45.92,0-90 S 240,384.52,250.81,384.4,280.58,388.3,293.23,401Z" fill="param(accent_colour_2)"/>
    <path d="M 220.36,562.83 s 34,55.07,4.34,98.25 c 12-6.35,20.15-33.68,15.21-55.54 S 220.36,562.83,220.36,562.83Z" fill="param(accent_colour_2)"/>
    <path d="M 245.27,571.28 s 7.84,22.71,10.35,35.33.28,40.67-7.48,55.88 c 11.26-13.92,12.82-40,11.66-50.75 S 245.27,571.28,245.27,571.28Z" fill="param(accent_colour_2)"/>
    <path d="M 269.74,591.84 s 16.55,34.74-2.85,75.65 C 280.29,647.18,284.24,617.08,269.74,591.84Z" fill="param(accent_colour_2)"/>
    <path d="M 299.46,596.07 s -20,54-1,88.5 C 293.73,663.09,289.13,645,299.46,596.07Z" fill="param(accent_colour_2)"/>
    <path d="M 308.29,642 s -1-26.92,23.82-56.39 C 319.94,602.72,308.29,642,308.29,642Z" fill="param(accent_colour_2)"/>
    <path d="M 335.59,669.46 s -14.85-11.76-6.82-38.1 S 377.29,571.2,387,541.1 c -4.5,17.82-24,42.14-36.39,58.57 S 321.84,645.71,335.59,669.46Z" fill="param(accent_colour_2)"/>
    <path d="M 296.42,452 s -21.11-16.58-42.29-7.8-47.21,31.62-43.51,70.18 c -7.09-27,5.73-49.76,22.91-64.67 S 277.48,432.77,296.42,452Z" fill="param(accent_colour_2)"/>
    <path d="M 208.49,438.2 s -23.57,24.28-9,85.74 C 196.48,490.92,194.34,468.54,208.49,438.2Z" fill="param(accent_colour_2)"/>
    <path d="M 247.6,404.48 c -1,0,28.85-8.11,49.86,12.85 C 283.67,409.15,267.94,404.35,247.6,404.48Z" fill="param(accent_colour_2)"/>
    <path d="M 294.63,433.42 s -14.06-20.08-49.92-12.52 C 264.83,420,285.67,424.73,294.63,433.42Z" fill="param(accent_colour_2)"/>
    <path d="M 305.42,450.9 s 23.94-16.76,56.5.15,29.9,60.78,27.76,72.93 c 5.08-21.11,5.54-46.75-15.57-69.09 S 318.2,437.92,305.42,450.9Z" fill="param(accent_colour_2)"/>
    <path d="M 304.11,433.4 s 23-21,69.19-2.69 C 357.23,420.09,326.08,410.54,304.11,433.4Z" fill="param(accent_colour_2)"/>
    <path d="M 386.64,439.49 s 36.73,33.55,7.43,96.08 C 406.67,517.83,420.8,466.5,386.64,439.49Z" fill="param(accent_colour_2)"/>
    <path d="M 305.17,414 c -.79.61,34.62-27.4,78.63,12.85 C 366.45,406.15,336.08,390.3,305.17,414Z" fill="param(accent_colour_2)"/>
    <path d="M 307.33,399.78 s 15.25-19.31,52.23-12.11,70.41,59.46,67.5,95.17 c -4.33-29.2-19.24-57.89-37.34-74.28 S 341.5,378.73,307.33,399.78Z" fill="param(accent_colour_2)"/>
    <path d="M 423.78,505.27 s .56,33.27-28.2,67.8-40,40.67-48.59,62.51,5.18,32.05,16.61,34.41 c -13.63-1.39-20.68-9.4-21.59-23.44 s 15.19-36.25,29.63-51,32.28-35.26,40.91-55.4 S 423.78,505.27,423.78,505.27Z" fill="param(accent_colour_2)"/>
  </g>
<script type="text/ecmascript" xlink:href="param.min.js"/> 
</svg>
