<?xml version="1.0"?>
<svg xmlns="http://www.w3.org/2000/svg" xmlns:xlink="http://www.w3.org/1999/xlink" id="Layer_1" data-name="Layer 1" viewBox="0 0 600 1032.4">
  <title>HS014</title>
  <g id="main-colour">
    <path d="M 170.8,571.8 c .6,21.9,16.5,36,34.5,41,22.5,6.2,50-7,56.5-34-23.5-13.5-32.8-39-33.8-50.8-.7-18,3.8-41.2,27.8-62.2,22.4-19.6,37.5-17.5,45-9,0,0,12.5-12.5,24.5-3.5 s -.4,25,22,33.5 c 25,9.5,26,38.5,25,44 s -7,27.5-26,42.5-10.5,44,8,50,40.5-1.5,48.5-14.5,2.5-28,2.5-28,25.5,10,41.5-17.5-5.5-44.5-5.5-44.5,1,9.1-6.3,12.7 c 1.4-3.3,2-8.2-2.7-13.5,2.3,5.7-4,18.3-15.3,10.3-.6-.4-1.2-.8-1.7-1.1 a 14.91,14.91,0,0,1-1.4-17.9 c 6-9,28.2-50.3,10.2-92.3-16.9-39.5-61.3-67.3-114.7-61.3-50,5.7-88,42-71.5,71.7-17.2-11.7-45.4.5-51.2,23.7-6.7,26.7,5.7,45.9,11.7,57.9 s 5,25.5,0,29 C 186.3,536.4,170.3,552.4,170.8,571.8Z" fill="param(main_colour)"/>
  </g>
  <g id="accent-colour-1">
    <path d="M 345.9,451.7 c 2.7,10.7,2.9,17.3,19.6,24.7 s 23.8,30.7,24.4,45.3-.4,32.3,17.6,39.7,33.1-11,36.4-32.3 c 8,32-13.7,46.4-34.4,43.1 s -30.2-32.4-28.9-45.8-4.8-37.3-24.8-45.3-9.9-24-24.5-36.8 c -13.8-12-30.7,4-30.7,4 C 320.6,415,343.3,441,345.9,451.7Z" fill="param(accent_colour_1)"/>
    <path d="M 348.5,592.1 c -2,12,8.4,24.2,25.8,20.2 s 16.2-23.3,9.7-28 c -10.7-7.8-22.7,4.4-16.7,11.8 s 11.2-2.8,11.2-2.8,2.2,12.5-11.2,11.7 c -15-.9-8.8-25.7,6.7-30,12.7-3.6,26.7,6,23.3,23.3 s -26,30-44.7,16.7-8.6-31.9,6.2-44.6 c 12.5-10.8,17.5-28.5,17.5-28.5 C 373.5,566.9,350.3,581.3,348.5,592.1Z" fill="param(accent_colour_1)"/>
    <path d="M 404.8,499.4 c 0-27.5-22.6-40-32.2-45.2-15-8.2-20.2-37.2-41.2-43.2-18.4-5.3-36,9.5-38.5,31,23.8-37.8,55-17.8,63.5,7.5,6.7,19.9,22.5,9.5,35.5,36 s 1.3,53.2,15.8,61.7 S 430.4,534,430.4,534 C 403.3,549.4,404.8,526.9,404.8,499.4Z" fill="param(accent_colour_1)"/>
    <path d="M 303.5,377.4 c 40-7.3,80.8,11.2,97.8,36.2 s 16,59.8,10.5,88.2 c 24-56.5,3-90.5-18-110.5 s -68-36-111.5-16.5-36.5,56-36.5,56 C 246.8,414.4,261.3,385.1,303.5,377.4Z" fill="param(accent_colour_1)"/>
    <path d="M 363.3,406.4 c 28.5,15.5,38.5,50,42.5,74.5,7.5-55.5-35.5-97.2-89-93.2 s -60.5,45.8-60.5,45.8 C 281.8,390.9,334.8,390.9,363.3,406.4Z" fill="param(accent_colour_1)"/>
    <path d="M 374.3,443.1 c -7.1-6.5-17.5-25.2-31.5-34.8,40,13,51.8,53,51.8,53 C 389,449.4,382.3,450.4,374.3,443.1Z" fill="param(accent_colour_1)"/>
    <path d="M 273.8,441.4 c -4.5-31,38.5-35.5,38.5-35.5 C 302.8,409.9,283.3,420.9,273.8,441.4Z" fill="param(accent_colour_1)"/>
    <path d="M 224.8,555.4 c 8,15,10,33.3-4,39.8 s -27.7-2.7-30.7-15.2,5.8-23.3,14.3-22.7 c 13.2,1,14.8,17,6.3,20.5 s -13-4-10.5-9 c -11,9,4.2,21.5,12,18.8,24.8-6,10.2-40.1-9.8-38.8-16.4,1-24.1,15.6-17.8,35.3,4.8,15.1,31.7,30.2,47.9,13.7,14.2-14.5,2.1-31.3-5.9-48.8 s -9.8-30.7.2-59.2,39-41.5,39-41.5 C 192.8,473.9,216.8,540.4,224.8,555.4Z" fill="param(accent_colour_1)"/>
    <path d="M 204.6,476.4 c -7.3,22.7,4,51.3-1,62.8,7.8-5.3-3.7-33.5,8-60.5 s 48.5-37.3,48.5-37.3 C 234.6,441,211.9,453.7,204.6,476.4Z" fill="param(accent_colour_1)"/>
    <path d="M 205.3,441.2 c -18.6,15-14.3,42.8-8,58.2-2-10.3-3.5-29,6.2-45.3 s 38.8-19.8,38.8-19.8 S 219.8,429.5,205.3,441.2Z" fill="param(accent_colour_1)"/>
    <path d="M 370.3,572 c 5.7-4.3,9.3-20.7,9.3-20.7 C 383.9,563,377.6,570.7,370.3,572Z" fill="param(accent_colour_1)"/>
    <path d="M 225.3,608 c 27.3-9,20.7-36.3,20.7-36.3 C 256.9,597.4,236.6,608,225.3,608Z" fill="param(accent_colour_1)"/>
  </g>
  <g id="accent-colour-2">
    <path d="M 324.4,425.9 c 16.3.3,24,11.7,26.2,21.8,2.7,12.3,4.5,13.3,20.5,22 s 22,29.5,22.7,40.2,2.5,38.3,15.2,44,25-6.5,30.7-21.2 c -3,14-12.8,29.3-30.2,24 C 394.3,552,393,524.5,392,509.9 s -10-32.2-24.7-39.8 c -11.8-6.2-16.5-8.5-18.2-19.5 s -10.8-22.5-28.2-22.5-24,18.7-24,18.7 C 301.9,431.9,308.1,425.5,324.4,425.9Z" fill="param(accent_colour_2)"/>
    <path d="M 330.4,381.3 c 31,2,61,21,72.7,47 s 9.8,54,4.5,67.3 c 4-14.7,4.5-35.8-2.8-57.8 s -36-57.2-86-54.2 c -56.3,3.3-64.2,44.3-64.2,44.3 C 261.9,389,299.4,379.3,330.4,381.3Z" fill="param(accent_colour_2)"/>
    <path d="M 322.9,443.1 c 8.7,2,13.3,10.2,13.7,22.2 s 5.8,13.5,15.5,18.2,23.8,15.5,25.5,38.8 A 46.23,46.23,0,0,1,363.9,559 s 12-12.7,12-34.3-15.2-35-25.5-40.2 c -7.7-3.8-13.3-6.5-15-12.8 s .7-18.2-9.3-24.8-21.2,3.2-21.2,3.2 C 308.9,445.5,314.2,441.1,322.9,443.1Z" fill="param(accent_colour_2)"/>
    <path d="M 363.1,577.9 c -9,10.7-11.3,21.2-2.5,27.2,7.9,5.4,17.7,1.2,20.3-3.8,3.9-7.3.7-12.8-4.5-13.7-3.4-.5-8.7,3.7-3.8,8.5 a 5.54,5.54,0,0,1-3.7-5.7 c .3-2.7,6.7-8.7,13.3-3.3 s 1.2,18.7-6.5,21.7-18.5,1.3-23.2-8,5.5-21.3,13.2-29,12.8-28,12.8-28 C 377.3,558,372.1,567.2,363.1,577.9Z" fill="param(accent_colour_2)"/>
    <path d="M 398.9,585.7 c -3.2-18.8-19.7-15-19.7-15 C 388.9,566.4,399.3,571.7,398.9,585.7Z" fill="param(accent_colour_2)"/>
    <path d="M 338.9,605 c 5.7,16.7,22.8,19.8,31.5,17.5-9.3,0-24.8-4.9-29.2-18-5.2-15.7,7.7-28.8,7.7-28.8 C 341.6,581.4,335.6,592.7,338.9,605Z" fill="param(accent_colour_2)"/>
    <path d="M 372.6,421.3 c -8.6-9.1-32-18.3-32-18.3 s 18.8,2.2,36.5,20.2,22.5,46.2,22.5,46.2 A 111.64,111.64,0,0,0,372.6,421.3Z" fill="param(accent_colour_2)"/>
    <path d="M 374.3,450 c -9.3-5-19.5-26.5-28.5-35.1 s -16.8-10.5-28.5-9.8 c 19.7-6.3,33.3,11.5,37.3,17.7,3.9,6,13.9,22.7,20.8,26.2,10.3,5.2,14.5,10.8,14.5,10.8 C 386.1,456.4,383.6,455,374.3,450Z" fill="param(accent_colour_2)"/>
    <path d="M 283.9,447.3 c .3-24.2,22.3-34.3,22.3-34.3 C 287.1,422.7,282.6,431.9,283.9,447.3Z" fill="param(accent_colour_2)"/>
    <path d="M 266.3,439.7 c 2.5-27.2,35.3-34.7,35.3-34.7 C 277.6,409.7,265.3,424.4,266.3,439.7Z" fill="param(accent_colour_2)"/>
    <path d="M 420.3,422.7 c -9.5-22.5-31.2-49.3-67.2-57.3 s -68.8-1-87.8,13.7-25.2,32.7-24,49 c -5.7-26,15.7-50.8,39-61.2 s 70.7-11.8,100,6.2,47.3,47,47.7,76.3 a 107.25,107.25,0,0,1-13.3,51.7 C 427.8,470.5,427.4,439.6,420.3,422.7Z" fill="param(accent_colour_2)"/>
    <path d="M 202.8,438.1 c -19.3,15.6-10.8,51.2-10.8,51.2-4-11.3-8.8-40.8,10.6-54.5 S 236,431,236,431 A 37.76,37.76,0,0,0,202.8,438.1Z" fill="param(accent_colour_2)"/>
    <path d="M 211.5,456.6 c -14.7,16.3-12.2,43.5-12.2,43.5-1.7-9.3-1.9-37.2,16.8-51.2 s 40-11.2,40-11.2 C 243.3,439.6,226.2,440.3,211.5,456.6Z" fill="param(accent_colour_2)"/>
    <path d="M 211.8,503.3 c -1.5,16.5,3,33.8-3,36.8,3.5-4,.5-16.8-.2-25.4 s .9-27.9,15.2-45.3 c 17-20.8,45.2-25.3,45.2-25.3 C 219.3,458.9,212.6,494,211.8,503.3Z" fill="param(accent_colour_2)"/>
    <path d="M 224.3,512.6 c -2,17.7.7,30.4,9.3,45.8 s 8,19.7,7.3,31.3 c 7-14.3-2.4-25.9-10-43.3-7-16-6.5-30.7-2.2-46,10.7-34.3,45.8-51.3,45.8-51.3 C 236.3,465.6,226.3,494.9,224.3,512.6Z" fill="param(accent_colour_2)"/>
    <path d="M 241.9,603.7 c 18.3-12.3,14-24.3,14-24.3 C 255.3,585,252,594.6,241.9,603.7Z" fill="param(accent_colour_2)"/>
    <path d="M 196,543.1 c -11.7,1.7-28.2,22.1-16.2,44.2,10.8,19.8,26.8,22.8,49.8,18.3-35.3,6.7-47-17.2-49.3-23.8 s -4.8-28.8,15.2-35.5,28.1,12.3,28.1,12.3 C 216.9,542,207.7,541.5,196,543.1Z" fill="param(accent_colour_2)"/>
    <path d="M 214,593.9 c -12.3,2.3-18.1-6.2-19.8-15.5,2.3,6.3,7.1,16,19.8,13 s 13.9-18.7,13.9-18.7 C 229.6,578.4,226.3,591.5,214,593.9Z" fill="param(accent_colour_2)"/>
    <path d="M 206.8,564.3 c -7-2.5-12.2,3.7-14.5,10,0-7.3,6-12.7,12-12.7 s 10.3,6.3,6,11-9-1.7-9-1.7 C 211,576.4,210.7,565.8,206.8,564.3Z" fill="param(accent_colour_2)"/>
    <path d="M 377.9,621.4 c 26.3-4.7,26.2-28.7,26-27.7 C 400.6,606.4,393.6,615.2,377.9,621.4Z" fill="param(accent_colour_2)"/>
    <path d="M 440.6,565.2 c 8.3-10.3,9.2-25.2,3-40.5,12,23.3,2,44.3-12.3,51.7 s -27.3-1-27.3-1 C 421.6,580.2,432.3,575.5,440.6,565.2Z" fill="param(accent_colour_2)"/>
    <path d="M 415.4,533.8 c -12.7-6-6.5-24.5-6.5-24.5 s -3,16.8,7.3,22.5,16.7-4.8,16.7-4.8 S 428.1,539.8,415.4,533.8Z" fill="param(accent_colour_2)"/>
  </g>
<script type="text/ecmascript" xlink:href="param.min.js"/> 
</svg>
