<?xml version="1.0"?>
<svg xmlns="http://www.w3.org/2000/svg" xmlns:xlink="http://www.w3.org/1999/xlink" viewBox="0 0 600 1032.4">
  <title>HS010</title>
  <g id="main-colour">
    <g id="main-colour-2" data-name="main-colour">
      <path d="M 174.2,565.46 c -18.69,29.2,12.6,47.58,7.73,69.2-5.83,25.94-29.75,28.42-16.69,56.65,6.07,13.27,25.44,23.12,16.65,32,3.93.19,17.19-6.39,20.75-15,.28,4.11-1.52,11.41-1.52,11.41 s 12.37-3.89,16.5-12.81 c -1.4,7.88,5.51,14.69,5.51,14.69 s 2.74-9.67,9.61-14 c -4.16,12,7.2,25.15,7.2,25.15 s 4.72-18,15-18.66 c -1.81,7.3,7.45,18.08,7.45,18.08 s 1.44-10.92,8.85-12.64 c 5.66,8.12,1.1,19.49,1.1,19.49 s 14.92-3.95,21.95-14.88 a 12,12,0,0,0,2.1,11,13.88,13.88,0,0,1,6.45-10.53 c -1.05,5.91,5.58,22.83,17.54,27 C 317,748,318.78,732,329.18,727.81 c 5.7,5.08,4.67,16.57,4.67,16.57 s 6-5,5.93-16.21 c 14.75,11.26,6.62,25.56,6.62,25.56,11.42-2.54,17.36-11.94,19.17-16.39,1.92,7.45-3.06,10.32-3.06,10.32,11.43,2.54,37.47-10.19,37-45.51-.3-25.14-8-33.35,1.87-58.71 s 42.07-50.47,26.39-92.09 c -12.29-32.61-7.84-38.35,4-56.25,22.5-34,7.2-77.5-10.6-96.1-15.9-16.6-41.9-31-63-31-35,0-57.7,25.8-57.7,25.8 s -15.41-25.93-56.7-27.28 c -59.58-1.94-109.92,74.42-70.7,139.91 C 189.23,533.36,187.08,545.34,174.2,565.46Z M 226.8,524 c 0-12.2,2.8-29.6,16.5-44.2,17-18.2,47.3-5.8,56.8-24.2,11.5,20,39.7,4.5,57.2,22.3,14.3,14.6,15.8,38.9,15.5,51.8 a 73.85,73.85,0,0,1-146-5.7Z" fill="param(main_colour)"/>
    </g>
  </g>
  <g id="accent-colour-1">
    <g id="accent-colour-1-2" data-name="accent-colour-1">
      <path d="M 405.09,419.2 c 16.7,28,19,48.3,1,77.7 s -8.9,45,2.4,57,4.45,34.06-5.35,45.36 c -25,28.7-25.13,47-21.86,68,7,45.15-11.83,63.07-13.13,74.47,3.3-4,25.55-23,19.32-76.73-3.59-31,3.89-37,24.19-60.42,13.4-15.3,16.71-40.12,7.41-51.42 s -20.7-27.3-10-44,18.3-26,19.7-50.7-18.3-68.7-61.7-76-66,16-66,16 C 337.09,376.5,388.49,391.2,405.09,419.2Z" fill="param(accent_colour_1)"/>
      <path d="M 331.49,455.5 c 14,1,33.3,4.3,37.3,27.3-6.5-18.5-23.5-20-44-21 s -24.3-13-24.3-13 C 306.49,454.9,317.49,454.5,331.49,455.5Z" fill="param(accent_colour_1)"/>
      <path d="M 378.09,422.5 c 21,18,17.4,45.4,3.9,78.9 s -1.6,48.6,4.5,58.8 c 6.5,10.8-1.7,23.1-6.5,31.8-22.5,40.8-19.53,60-14.63,86.2,3.5,18.9-6.67,55.81-9.47,61.41,3.2-3.8,19-34.92,16.68-59.12-2.4-25.4-11.68-42.48,17.62-90.78,6.9-11.4,13.8-24.2,1.8-38.7-13.3-16.1-8.4-36.8,1.8-55,12.3-22,23.8-64.8-17.7-87.3 s -74.7-2.2-74.7-2.2 C 338.49,397.4,357.09,404.5,378.09,422.5Z" fill="param(accent_colour_1)"/>
      <path d="M 372.49,451.4 c 5.2,12.9,1.47,32.73,3.47,46.73,1.5-21,15.23-37.53-1-60.73-24.2-34.7-72-22-72-22 C 345.49,413.4,366.49,436.4,372.49,451.4Z" fill="param(accent_colour_1)"/>
      <path d="M 337.49,433.9 c 20,2,31,20,31,38.5-1.5-9.5-13.5-26-33-27.5 s -33-16.5-33-16.5 C 308.49,432.4,317.49,431.9,337.49,433.9Z" fill="param(accent_colour_1)"/>
      <path d="M 189,437.42 c -13,46,1.78,71.26,11.28,85.76 s -2.47,36.58-8,51 c -8.67,23.26,6.32,36.48,4.21,60.56 S 174,665.77,179.39,678.07 c 9.5,24,16.18,32.05,9.58,37,4.3-10-11.78-22-14.48-28.34 C 160.06,664.85,190.2,652.3,190,630.23 s -21.11-32.87-7.56-60.78 c 6.39-13.17,19.32-25.18,5.22-50 C 176.63,500,168.61,477.34,177.21,438 s 39.21-57.94,68.71-61.44 S 295,397.3,295,397.3 C 247,368.4,202,391.42,189,437.42Z" fill="param(accent_colour_1)"/>
      <path d="M 217.49,432.5 c -16.5,32-12.5,59.7,0,88.7 s 7.17,43.91-1.24,54.2-6.88,33.44,1.71,59.75-21.36,23.13-12.36,70.13 c -25.76-36.44,7.49-45.39,4.59-66.19-2-14.2-10.13-32.3-9-52.83 s 21.19-16,11.13-57.35 c -4.34-17.82-11.27-16.6-14.77-44.1 s 9.5-75.5,42-86.5,55.5,7,55.5,7 C 263.49,395.4,234,400.5,217.49,432.5Z" fill="param(accent_colour_1)"/>
      <path d="M 220,506.4 c -10-28.5-6-67.5,22-85.5 s 52-6.5,52-6.5 C 223,416.4,217,473.4,220,506.4Z" fill="param(accent_colour_1)"/>
      <path d="M 246,445.9 c -14,9.5-21.5,27-20,44.5,2.5-25.3,30-40.5,47-46.5 s 20.5-16.5,20.5-16.5 C 282.49,438.9,260,436.4,246,445.9Z" fill="param(accent_colour_1)"/>
      <path d="M 265.09,455.2 c -10,2.5-28.9,12.4-33.9,30.2,12.2-19.2,30.6-22,44.6-24.5 a 30.09,30.09,0,0,0,20-13 C 290.79,453.9,275.09,452.7,265.09,455.2Z" fill="param(accent_colour_1)"/>
      <path d="M 315.58,665 c 5.75,17.18-1.83,38.22-17.2,54.41,24.34-12.15,32.49-45.77,18.86-73.4 s 7.09-51.54,7.09-51.54 C 295.79,619.6,309.83,647.8,315.58,665Z" fill="param(accent_colour_1)"/>
      <path d="M 284.26,630.35 c -11.6,11.75.53,28.38,1.23,41.77.81,16.36,1.29,22-11.3,39.68,37.58-30.73.44-60.25,15.57-78 a 36.33,36.33,0,0,0,6.68-36.9 C 296,608.49,295.86,618.6,284.26,630.35Z" fill="param(accent_colour_1)"/>
      <path d="M 258.65,658 c 7.22,23.51-7.2,41.89-21.28,55.75,31.82-17.49,36.4-49.17,24.58-75.48 s 14.13-49.35,14.13-49.35 C 246.39,611.85,251.43,634.49,258.65,658Z" fill="param(accent_colour_1)"/>
      <path d="M 237.27,608.8 c 6.48,28,1.13,41.76-7.51,54 s -13.82,28.11-10.54,44.88 c -7.31-10.85-5.33-34.86,5.94-50.71 s 9-26.38,3.23-52.69,5.44-38.63,5.44-38.63 C 230.79,571.73,230.79,580.85,237.27,608.8Z" fill="param(accent_colour_1)"/>
      <path d="M 341.56,658.17 c 5.09,21.13.88,46.28-13.84,64.6 C 361.43,697,348.35,655.15,342.39,632,334.1,599.64,363,578.12,363,578.12,317.25,603.42,336.47,637,341.56,658.17Z" fill="param(accent_colour_1)"/>
    </g>
  </g>
  <g id="accent-colour-2">
    <g id="accent-colour-2-2" data-name="accent-colour-2">
      <path d="M 381.86,377.87 c 32,12,52.5,44,55.5,68.5,3.5,28.3-5.5,43.2-15,54.7 s -14,26-4,40.3 c -18.3-18.2.3-37.5,6.5-46.3,5.4-7.7,15.2-23.3,9.2-52.8 s -31.2-60.8-68.2-65.8 c -39.5-5.3-62.8,19-62.8,19 C 315.16,379.37,351.16,366.37,381.86,377.87Z" fill="param(accent_colour_2)"/>
      <path d="M 403.91,619.84 c -12.82,17-15.74,32.64-13.08,51.17,3.19,22.22,3.64,56.15-18.7,71.51,29.4-10.53,22.64-59.3,20.92-74.5 s 3.09-25.18,5.29-31.9,10-16.51,23.69-36.44,4.78-40.94,4.78-40.94 C 434.12,587.35,416.73,602.81,403.91,619.84Z" fill="param(accent_colour_2)"/>
      <path d="M 409.16,480.57 c -8,14-15.8,28.8-17.4,41.4-2.7,21.3,6.2,23.4,12.5,35.8 C 413.46,576,397,589.65,391,599 c -14.8,22.8-20.79,43-15.75,74.9 C 371.55,622.94,387.54,610,405,585.68 c 6.86-13,8.83-23.71-6.17-40.81-9.2-10.5-6.2-31.5,8.1-55.2,10.4-17.2,7.7-28,7.7-28 A 48,48,0,0,1,409.16,480.57Z" fill="param(accent_colour_2)"/>
      <path d="M 375.56,401.47 c -30.9-14.6-58-5.6-70.7,1.8,5-6.3,38.4-20.5,72.7-3.8,38.5,18.8,35.7,54.4,35.7,54.4 S 412.56,419,375.56,401.47Z" fill="param(accent_colour_2)"/>
      <path d="M 365.86,420.27 c 22.3,14.7,26.3,36.7,21.7,52-3,9.8-13,34-11.7,45,1.3-15,11.3-32,14.7-46.3 s 4-39.7-29.3-56.3-57.7-3-57.7-3 C 318.56,407.27,343.56,405.57,365.86,420.27Z" fill="param(accent_colour_2)"/>
      <path d="M 328.86,427.27 c -12.3-1-20.7-3-23.3-8.7,16,11.3,31.7-.3,51,15.3,21.1,17.1,17,40.3,17,40.3 C 370.56,434.27,341.16,428.27,328.86,427.27Z" fill="param(accent_colour_2)"/>
      <path d="M 330.86,450.27 c -8-.9-19.7-4-24.7-11.3,8.7,7.3,19.7,8.3,34.3,10 s 24.3,16.7,24.3,16.7 C 350.86,450.87,339.16,451.27,330.86,450.27Z" fill="param(accent_colour_2)"/>
      <path d="M 373.16,504.27 c 1.1-25.5-19.3-34-19.3-34 C 361.56,476.27,370.56,492.27,373.16,504.27Z" fill="param(accent_colour_2)"/>
      <path d="M 194.56,474.27 c -3-52.7,29.7-81.3,56.3-85 s 44,11.3,44,11.3 C 224.86,366.87,194.16,435.27,194.56,474.27Z" fill="param(accent_colour_2)"/>
      <path d="M 218.56,450.87 c -7.5,22.5-3.3,45.7,3.3,66.7-9.3-20-11.3-41.3-7.7-59 s 16.7-42,41.3-49.7,39.7,1.3,39.7,1.3 C 244.86,400.57,225.16,430.87,218.56,450.87Z" fill="param(accent_colour_2)"/>
      <path d="M 254.16,434.27 a 47.24,47.24,0,0,0-27,42 c .3-16,15-36.7,35.3-43,25.1-7.8,31.3-13.7,31.3-13.7 C 285.16,425.57,266.86,428.27,254.16,434.27Z" fill="param(accent_colour_2)"/>
      <path d="M 275.16,447.57 c -7,2-15.3,5-22.3,12,6-4.7,16-7.7,26.7-11,9.9-3.1,17-11.7,17-11.7 C 291.86,440.87,282.16,445.57,275.16,447.57Z" fill="param(accent_colour_2)"/>
      <path d="M 241.94,373.77 c -27.1,1.76-55.28,24.1-66.28,51.4-9.7,24.1-5.57,60.45-.87,78.45-11.3-30.7-12.29-65.69,1.71-91.49,15.5-28.5,50.05-45.25,78.43-41.27,24.81,3.49,32.82,12.71,42,23.61 C 285.56,383.27,269,372,241.94,373.77Z" fill="param(accent_colour_2)"/>
      <path d="M 365.16,602.83 c -14.72,18.86-12.29,47.49-7.89,67.32 s 4,38.15-8.82,57.21 c 17.95-18.18,15.7-40.43,9.56-67-5.75-25-.24-44.82,13.89-63.3 s 2.29-42.24,2.29-42.24 C 377.77,569.73,380.33,583.25,365.16,602.83Z" fill="param(accent_colour_2)"/>
      <path d="M 330.94,657.86 c 6.56,27.26.26,37.65-7,48.3 s -15.32,24.82-7.25,35.12 c -3.2-9.07-2.94-17.62,11.45-36.21 s 6.29-40.92.31-68.7 c -7.78-36,11.63-52.36,11.63-52.36 C 315.24,598.9,324.38,630.59,330.94,657.86Z" fill="param(accent_colour_2)"/>
      <path d="M 301,631.17 c -5.25,14.89-.81,23.13,4.94,40.16,9.23,27.66-11.39,49.36-26,55.78,25-20,28.91-36.64,21.71-58.95-3.75-11.48-8.46-24.71-2.44-38,5.84-12.78,6.06-35.29,6.06-35.29 C 308.37,607.69,305.22,619.35,301,631.17Z" fill="param(accent_colour_2)"/>
      <path d="M 273.27,651.3 c 10.86,28.91,7.68,51.69-11.79,67,31.08-18.63,19-51.47,12.15-73.51-9.55-30.94,14.45-50.93,14.45-50.93 C 264.75,612.12,266.77,633.85,273.27,651.3Z" fill="param(accent_colour_2)"/>
      <path d="M 250.39,604.62 c -4.66,10.93-8.33,22-2.34,49.7 s -6.76,38.63-19.79,52.86 c 29.86-22.65,24.3-39.66,22.07-54.55-1.62-10.86-6.59-27.06,2.12-48.21,6-14.77-5.1-28.26-5.1-28.26 C 250.15,581.13,255.05,593.69,250.39,604.62Z" fill="param(accent_colour_2)"/>
      <path d="M 226.22,708 c -7.4-28.4,16.63-50.6,16.63-50.6 C 237.22,664.64,223.69,687.6,226.22,708Z" fill="param(accent_colour_2)"/>
      <path d="M 225.33,629.13 c -19.59-46.39,4.53-61,4.53-61 C 210.23,579.06,212.67,605.51,225.33,629.13Z" fill="param(accent_colour_2)"/>
      <path d="M 180.75,560.84 c -9,15.64-12.4,26-1.13,50.43 s .68,34.87-8.91,48.36-7.05,21.92,6.39,35.06 c -10.57-17.19-16.72-20.38,2.7-43.87,13-17.61,6.08-30.47-2.07-49.76 s 3.47-34.13,11.17-50.82 c 5.1-11.06-6.61-34.51-6.61-34.51 C 188.08,534.74,189.72,545.2,180.75,560.84Z" fill="param(accent_colour_2)"/>
      <path d="M 199.08,509.77 s 20.86,28.56,8.32,50.72-11.15,31.54-5.93,53.79,5,34.9-5.12,46.31-5.91,24.85-3,31.46 c -6.26-7.7-11.94-15.81-1.6-31.25 s 11.5-24.88,6.92-45-7.27-30.73.78-47.59 S 214.47,543.45,199.08,509.77Z" fill="param(accent_colour_2)"/>
    </g>
  </g>
<script type="text/ecmascript" xlink:href="param.min.js"/> 
</svg>
