<?xml version="1.0"?>
<svg xmlns="http://www.w3.org/2000/svg" xmlns:xlink="http://www.w3.org/1999/xlink" id="Layer_1" data-name="Layer 1" viewBox="0 0 600 1032.4">
  <title>HS015</title>
  <g id="main-colour">
    <path d="M 369.4,676.3 c -43.3-31.3-42.6-66.9-33.9-95.7 a 91.78,91.78,0,0,0,20.1-16.1 c 14.2-15.2,28.5-46.5,28.5-46.5 l -3.3-34-22-39-41.1,6.3-14.8-59.6 s -10-20,12.7-46.7,74-36,110,15.3,12.7,88,3.3,106-12.7,28.3,3.3,44.5,14,57.5-28,88.9 c 22.7-2.7,42,15.3,43.3,40.7 S 412.7,707.6,369.4,676.3Z" fill="param(main_colour)"/>
    <path d="M 364.9,489.3 c 12.2,22,6,58.9-9.8,75.7,68.5-40.5,75.7-141,24.7-173.6-39.1-25.1-79.5-1-79.5-1-18-14.5-65-19-95.5,22-34.9,46.9-14.5,135.5,42.1,155.3,0,0-21.4-21.2-18.7-56.6,1.9-25.3,31-70.3,71.7-43.3 C 299.8,467.7,338.7,442.4,364.9,489.3Z" fill="param(main_colour)"/>
  </g>
  <g id="accent-colour-1">
    <path d="M 236.9,458 c -38,36.3-17.2,92.3,1.3,102.3-23.6-31.3-22-77.5,7.5-99.5 s 53-3,53-3 C 292.7,446.9,260.4,436.5,236.9,458Z" fill="param(accent_colour_1)"/>
    <path d="M 198.9,450.4 c -13.3,58.7,22,98,22,98 s -10.9-5.3-23.7-35.3 c -14.3-33.7-10.4-96.9,35.5-119.2,37.7-18.3,65.5,5,65.5,5 C 260.6,383.2,211.6,394.8,198.9,450.4Z" fill="param(accent_colour_1)"/>
    <path d="M 217.9,436.7 c -25.9,31.9-12.2,79.3.3,106.3-14.5-18.5-28.7-82.3-7.3-109.3,45.6-57.7,87-18.3,87-18.3 C 276.4,407.9,243.6,405,217.9,436.7Z" fill="param(accent_colour_1)"/>
    <path d="M 250.3,436.9 c -25.5,8.5-41.7,36.5-41,68.8-5.8-13.8-.3-63,35.5-76.8 a 55.93,55.93,0,0,1,53.2,6.5 C 289.9,432.4,275.9,428.3,250.3,436.9Z" fill="param(accent_colour_1)"/>
    <path d="M 355.6,452 c 33.5,26.5,32.6,71.8,14.6,95.8,16-26.5,8.4-72.5-20-89.5-23.3-14-48.2-1.3-48.2-1.3 C 309.3,442,336.6,437.5,355.6,452Z" fill="param(accent_colour_1)"/>
    <path d="M 400.7,463.4 c .5,30.5-13,65-13,65 s 12-18,17.5-45.5,0-69.5-34-87-67.5,3.5-67.5,3.5 C 373.8,379.9,400.2,432.9,400.7,463.4Z" fill="param(accent_colour_1)"/>
    <path d="M 390.2,506.9 c 19-56.5-13.2-90-38.6-98.2-28-9-46.3,9-46.3,9 C 378.6,398,397.3,471,390.2,506.9Z" fill="param(accent_colour_1)"/>
    <path d="M 385.7,483.3 c -3.5-42-31.6-55.7-48.1-56.7-23.5-1.3-34,9.3-34,9.3 C 358.9,419,380.7,464.4,385.7,483.3Z" fill="param(accent_colour_1)"/>
    <path d="M 354.2,339.9 c 24-2.5,53,18,66.5,43.5 s 6.5,50.5.5,66-6.5,35-6.5,35,0-6,11.5-30,14.5-49,1.5-75.5-48-58-82.5-45-40,46-40,46 C 312.2,365.9,330.2,342.4,354.2,339.9Z" fill="param(accent_colour_1)"/>
    <path d="M 395.7,384.4 c 18,17.5,17,60,17,60 s 4.7-18,4-35 c -1-24.5-23-50-52.5-54.5 s -48,26.5-48,26.5 C 353.2,351.9,377.7,366.9,395.7,384.4Z" fill="param(accent_colour_1)"/>
    <path d="M 402.7,575.4 c -24,22.5-34,33-35.5,58 s 23.5,48.5,47,40,26-28,21.5-42.5 c -3.3-10.8-17-17-29-14 s -19.2,13.8-15.5,23.5 c 2.4,6.3,14,13,20.5,5.5-10,2.2-19.5-8.5-11-16.5,10.1-9.5,21.5-5.5,26.5,1.5 s 2.5,37-23.5,32.5-26.5-34.5-19-51,26-22,42-52-9.5-53-9.5-53 C 429.7,527.4,426.7,552.9,402.7,575.4Z" fill="param(accent_colour_1)"/>
    <path d="M 353.2,587.4 c -18.5,24.5-13,47,0,59-10.5-31.5,4.2-54.3,34-77,40-30.5,23.5-64,23.5-64 C 411.7,557.4,371.7,562.9,353.2,587.4Z" fill="param(accent_colour_1)"/>
    <path d="M 441.1,645.7 c -2.8,27.3-31,33.3-31,33.3 C 431.3,676.7,441.7,663.4,441.1,645.7Z" fill="param(accent_colour_1)"/>
  </g>
  <g id="accent-colour-2">
    <path d="M 202.6,443 c 6.3-18,22.7-40,51-45.7,26.1-5.2,43.7,9.3,43.7,9.3 C 245.2,384.1,215.4,418.7,202.6,443Z" fill="param(accent_colour_2)"/>
    <path d="M 205.9,479.7 c 6-47,32.3-61.6,58.3-64.3,19-2,34.3,10.3,34.3,10.3 C 264.4,406,214.9,421.7,205.9,479.7Z" fill="param(accent_colour_2)"/>
    <path d="M 226.6,462 c 15.7-23.3,38.7-26.7,51.7-24.3 s 20.5,8,20.5,8 C 264.9,430,241.3,446.4,226.6,462Z" fill="param(accent_colour_2)"/>
    <path d="M 233.6,478.7 c -8.7,14.7-11,27.7-8.9,40.3,1.8-48.3,31.5-59.3,44.2-63 s 26.5,4.3,26.5,4.3 C 270.1,441,241.1,466,233.6,478.7Z" fill="param(accent_colour_2)"/>
    <path d="M 233.5,559.3 c -38.2-43.2-10.2-92.3-10.2-92.3 C 198.6,501.7,215.3,544.7,233.5,559.3Z" fill="param(accent_colour_2)"/>
    <path d="M 369.8,486 c 8.6,20.9,6.3,43.6.5,56,2.3-7,2.8-17.3,3-30-1.1-33.4-26.1-52.5-41.5-54.7 a 49.46,49.46,0,0,0-28.1,4.8 C 334.8,442.4,361.2,465.1,369.8,486Z" fill="param(accent_colour_2)"/>
    <path d="M 356.1,445.1 c 24.5,15.4,32.8,49.9,30.3,63.6,1.3-23.3-14.7-53.9-38.4-64.6 a 50.87,50.87,0,0,0-43.3.3 C 316.2,436.1,333.3,430.7,356.1,445.1Z" fill="param(accent_colour_2)"/>
    <path d="M 378.1,451 c -26.4-43.4-75-24.5-73.8-25.2 C 334.6,408.9,368.7,430,378.1,451Z" fill="param(accent_colour_2)"/>
    <path d="M 382.3,420.7 c 10.1,13.7,18.4,37.7,15.8,51.3,0-28.6-14.7-53.6-37.7-64.3 s -55.2-.4-55.2-.4 C 338.2,390.4,368.8,402.4,382.3,420.7Z" fill="param(accent_colour_2)"/>
    <path d="M 375.4,394.1 c 23.7,14,31,40.9,34.3,61.3-2-46-30.7-69-57.3-72 s -44.1,10-44.1,10 C 320.3,385.7,351.8,380.1,375.4,394.1Z" fill="param(accent_colour_2)"/>
    <path d="M 360.4,327.7 c 25.3-1.3,56.4,21.8,65,40.3-10-25.6-47-50-77.7-40.3 S 306,366.4,306,366.4 C 311.4,352.4,335.1,329,360.4,327.7Z" fill="param(accent_colour_2)"/>
    <path d="M 354.8,349.7 c 19.7-2.3,38.3,9.6,51.7,23.6 s 14.8,33.5,14.8,49.1-9.1,34.7-8.5,52.3 c 0-9.7,4.2-21.3,6.2-28 s 13.8-50.5-12.5-77.6 c -20.3-21-41.5-29.3-65.2-20-22,8.7-33.9,33.3-33.9,33.3 C 314.1,370.4,335.1,352,354.8,349.7Z" fill="param(accent_colour_2)"/>
    <path d="M 409.4,434.9 c -1-32-15.2-51.9-39.6-59.7-26.2-8.3-51.4,8.4-51.4,8.4 C 383.7,355.9,407.1,408.5,409.4,434.9Z" fill="param(accent_colour_2)"/>
    <path d="M 386.6,578 c -18,13.7-32,34.7-28.7,58.3 s 19,41.7,39.8,44 C 368.4,673,348.9,634,367.9,604 s 31.3-25,45.3-49 c 15.2-26,.5-46.6.5-46.6 C 428.7,543.4,404.6,564.3,386.6,578Z" fill="param(accent_colour_2)"/>
    <path d="M 351.6,577.7 c -16.7,20.7-20.5,40.7-10.5,54.3-11.7-30.7,13.9-56.3,38.9-76,25.2-19.8,24.8-41.3,24.8-41.3 C 400.3,546.7,367.4,558.1,351.6,577.7Z" fill="param(accent_colour_2)"/>
    <path d="M 415.6,606.3 c 17,3.3,27.5,18,26.1,33.7-1.7-25-25.5-33.3-36.8-31.3 s -19.2,16-19.2,16 C 386.1,615.4,398.6,603,415.6,606.3Z" fill="param(accent_colour_2)"/>
    <path d="M 419.6,638.7 c 2.7,6.6-5.3,16-14,17 s -19.5-9.3-20.9-21.7 c -1.3,7,2.2,19.4,15.9,23.7 s 21.3-7.7,21.7-16.7-7.8-13.5-14.7-8.7 c -4.3,3-.5,8-.5,8 C 406.1,632.7,415.6,629,419.6,638.7Z" fill="param(accent_colour_2)"/>
    <path d="M 409.9,465.3 c -1.7,64-42,89.7-42,89.7 C 405.9,531.7,410.9,490,409.9,465.3Z" fill="param(accent_colour_2)"/>
    <path d="M 423.1,473 c -8.5,16.7-2.8,27.8,2.5,35,6,8.2,10,14.3,9.5,24.3-.3-15.3-12.8-20-17.5-35 s 6.6-30.3,16.6-55.3 a 75.88,75.88,0,0,0,2.9-47.3 C 449.7,419.4,431.4,456.7,423.1,473Z" fill="param(accent_colour_2)"/>
    <path d="M 400.7,596.7 c 28.2-19.3,34-48.7,34-48.7 C 432.4,567.7,422.9,583.4,400.7,596.7Z" fill="param(accent_colour_2)"/>
  </g>
<script type="text/ecmascript" xlink:href="param.min.js"/> 
</svg>
