<?xml version="1.0"?>
<svg xmlns="http://www.w3.org/2000/svg" xmlns:xlink="http://www.w3.org/1999/xlink" viewBox="0 0 600 1032.36">
  <title>HS012</title>
  <g id="main-colour">
    <path d="M 432.74,481.36 c 1-9-3.87-16.66-5.5-24-2-9,6.53-18.94,2-28-5-10-12.5-9.5-17-16 s 2-16-5.5-25-21.5-5.5-29-8-11.5-13.5-20.5-14.5-11.67,5.5-19.83,7.5-11.67-3.5-18.67-1.5 a 28.85,28.85,0,0,0-18.5,17.5 s -6.5-15-16-19-16.5,3.5-24.5,2-10.5-8.5-24-7-11,7.5-19,11-14.5-.5-23.5,3.5-8.5,12-14,17-15.5,4-19.5,11.5,1,15.5-1,21-12,9-14,18 c -1.63,7.34,4.5,15.5,5.5,20.5 s -4.32,13.67-2.5,20.5 c 2,7.5,9,9.5,10,16.5 s -5.5,16.5-2,25.5 c 3.27,8.4,15,10,15,17.5 s -10,14.5-9,24,11,13,11.5,20-6.5,13-5.5,19,10.5,12.5,10,20-6,13-6.5,19.5,10,14,10,21-11,14-10,23.5,13,11.5,14.5,16.5-4.5,13,5.5,19,18-3,24-3.5,8.5,11,21,11,15.07-5.49,20-4.5 c 7.5,1.5,10.5,11.5,17.5,11 s 12.5-8,18-7,12,9.5,24,9.5,17-11,23-12.5 c 6.32-1.58,13.5,2,20.5-.5 s 13.5-16.5,18.5-18,17,4.5,24-.5-1-14.37-.5-22.5 c .5-8.5,6.94-16,8.5-22,3-11.5-5-18.5-5-26.5 s 13-14,13.5-22.5-9-13.5-8-23.5,11-12.5,11.5-23-9.93-13.45-9.5-22.5 c .5-10.5,11-16,11-24.5 s -5.5-14-3-24 S 431.74,490.36,432.74,481.36Z M 299.76,590 A 73.94,73.94,0,0,1,226,519.32 c 4.33-3.81,10.92-10.6,11.25-17,.5-9.5-3.42-17.9,4.67-20 a 23.79,23.79,0,0,0,16.83-17.83 c 2.74-12.71,17-4.17,23.5-5.83 s 12.33-2.33,18-11.83 c 5,8.17,11.83,9.5,16,9.5,5.59,0,11.14-4.27,17-1,7.17,4,4.25,9.65,11.17,15,7.33,5.67,12.83,1.5,16.33,8.5,3.18,6.37,1.82,24.74,12.85,38.55 A 73.93,73.93,0,0,1,299.76,590Z" fill="param(main_colour)"/>
  </g>
  <g id="accent-colour-1">
    <path d="M 297.24,392.86 s -6-15.5-14.5-18.5-11.5,5.5-21.5,4-16.5-9.5-25-7-9,10.5-16.5,11.5-17,.5-23.5,4.5-4.5,9.5-11,14.5-14.5,3.5-18,10-.5,9.5-1.5,17-12,11-13,20,5,11,5.5,17-5.5,14.5-2,21.5,8.5,8.5,8.5,13.5-5,18-.5,26,11.5,10.5,12.5,18-8,18.5-5.5,26.5,10,12.5,10,18.5-6,10-4,20,9,11,7.5,18-4.5,15-2.5,24.5,6.5,10.5,6.5,16.5-10,17.5-7,24.5,10.5,7.5,11,14-1,14.53,3.83,18.33 c 6.83,5.33,21.83-6.33,8.5-19.33-.5,4.5,1.85,13.05-3.33,11.5-5-1.5.5-16-4.5-20 s -8.5-8-4.5-15.5,8-17.5,2-25.5-4-18.5-1-24.5,0-14.5-3.5-19-3.5-10,.5-16.5-.5-16-6-23.5,0-17,2.5-22.5,0-16.5-9-24,5-21.5-.5-30.5-13-17.5-8.5-26.5-12.5-14-.5-24,3.5-29,15-30.5,14.5-17,21-20,13.5,1,21.5-3.5,8.5-12.5,16.5-9,21,8.5,28,2.5 S 289.74,384.36,297.24,392.86Z" fill="param(accent_colour_1)"/>
    <path d="M 295.74,434.86 s -1.5,16-15.5,15.5-21-6-25.5,6-12,18-17.5,19-9.5,12-6.5,22-6,24.5-15.5,16 c 6.5,0,12-6.5,9-15.5 s -3.5-28,8.5-30,13.5-14,16.5-20.5,11-12,22.5-7 S 293.24,442.86,295.74,434.86Z" fill="param(accent_colour_1)"/>
    <path d="M 295.74,399.36 s -12.5-11.5-21.5-4.5-17.5,4.5-24.5,1.5 a 15,15,0,0,0-20.5,10 c -3,10.5-8.5,15-18,14 s -20,6.5-18,18.5,4.83,22.5-.17,29-8.33,16,1.17,26.5-1,18.5-.5,26.5,12,15.5,6,26.5-4.5,23,4,32.5,8.5,14.5,4,22.5-4.5,21.5,3,29.5,8,17,3,26-8,17.5.5,28.5,17,31,6.5,36 c 12-1.5,13-18.5,8.5-26 s -14-17-8-30.5,9-21.5,1-35.5-8.5-17.5-4.5-26,6-18.5-4.5-29-5-21.5-2-28-9-25.5-4.5-38.5,0-17.5-4.5-23,5-14.67,4-25.5 c -.9-9.78-8-29,8.5-28 s 18.5-13,23-20.5,10-8,17-3.5,18.5-1,22-5.5 S 289.24,395.86,295.74,399.36Z" fill="param(accent_colour_1)"/>
    <path d="M 292.24,413.36 s -11,11-19,7-20-6.5-27,4-10,17.5-20,17-18.75,19.25-2,19.75 c -10-3.75-6.07-13.73,3.5-12.75,9.75,1,19.22-6.43,23-15.5 s 11.5-8.5,18.5-4 S 291.24,425.86,292.24,413.36Z" fill="param(accent_colour_1)"/>
    <path d="M 224.24,559.36 s 23.5,23.5,15,39.5-6,24,3.5,35-1,27.5-5.5,36,2,18.5,9,25,6,28.5-5,31 c 19-2.5,19-23,14-33.5 s -12.5-13.5-3.5-27.5,6-29.5-2.5-38.5-3.5-16.5.5-26.5 S 251.74,576.86,224.24,559.36Z" fill="param(accent_colour_1)"/>
    <path d="M 272.24,590.86 s -12,10-5,24,14.5,25,5.5,37.5-2.5,21,2.5,27,2.5,13.5-2.5,20-9,23.5,7.5,31.5,24.5-17,8.5-25 c 3.5,7,3,17.5-5,16 s -11.5-9-5-17.5,13.5-17,6-27.5-5-17.5,1.5-27-1.5-23.5-8-31.5 S 267.24,595.36,272.24,590.86Z" fill="param(accent_colour_1)"/>
    <path d="M 302.24,434.36 s 1.5,14.5,12,14,25-5,28.5,7,10,10.5,16,11.5,11.5,9,10.5,18.5,3.5,24.5,10.5,23 c -5-4.5-5.5-15.5-4.5-23 s 2-22.5-13-25.5-13.5-7-15.5-13-10.5-8.5-19.5-6.5 S 308.74,444.86,302.24,434.36Z" fill="param(accent_colour_1)"/>
    <path d="M 298.74,413.86 s 2,14.5,15,15.5,25-8.5,32.5,1.5,5.83,16.67,16.83,18.17,17,5.67,17,5.67-1.83-5.83-12.33-10.83-11-13-15-19.5-12.5-9.17-20.83-7.33 C 323.38,418.91,304.24,422.86,298.74,413.86Z" fill="param(accent_colour_1)"/>
    <path d="M 302.74,392.86 s 8-15,17.5-15.5,12.5,2.5,20,2,10-8,18.5-5,6,7.5,17,12.5,18.5-1,25.5,6,1.5,15.5,6.5,23.5,12.5,8.5,14.5,19.5-3.5,12-3.5,19.5,7.5,15,5.5,24-10.5,16.5-10.5,23,3,18,2,24-8,16-9,24.5,8,16.5,6,25-10.5,10-10,19,8.5,18.5,7,26.5-11.5,14.5-11.5,20.5,8.5,13.5,5,25.5-11,17-9.5,24.5-1.5,23-19.5,14 c 6-.5,14-4.5,12-12 s 1-15.5,5.5-21.5-5-18.5-3-30,9.5-11.5,10-25-8-12-7-25.5,9.5-16,9.5-24-7.5-11-4-24.5,9-17.36,8-27.18-2.49-23.32,4-29.82,6-17.5,0-23,6-18,.5-28.5-15.17-16.67-16-29 c -.72-10.58-14.5,0-29-14.5 s -19,6.5-35-4 S 302.74,392.86,302.74,392.86Z" fill="param(accent_colour_1)"/>
    <path d="M 302.24,403.36 s 8,8.5,23,4.5,27.33-5,35,10.5 c 5.92,12,20.09,15.11,23,25.5,3.5,12.5-2.5,22-1,30.5 s 10,14,8,24.5-10.5,19.5-11.5,29,5,22,2.5,29-12,15-12,25,7.5,16.5,5.5,25.5-11,14.5-10.5,25,8,15.5,6.5,27.5-14.5,14.5-14.5,21,7,21.5,4,26.5-11.5,4-11.5-3,4.5-9,4.5-9-9,2-10.5,10.5 a 12.73,12.73,0,0,0,9,15 c 5,1.5,16-3.5,16-11.5 s -4.5-21-1.5-27,12-9,13.5-23-7.5-18.5-5.5-27.5,8.5-14,9.5-24-6.5-18.5-5-26,10-13.5,11.5-23.5-2.5-22.5-1-29.5,10-21,10-30-7.5-21.5-8-28.5,8.5-25.5,1.5-34.5-16.5-12-20.5-17-14-19-24-22 S 312.24,408.86,302.24,403.36Z" fill="param(accent_colour_1)"/>
    <path d="M 354.24,578.36 s -7,8.5-1.5,17.5,6.5,19.5-2,28-9,23,.5,31-5,28-5,28,6-19.5-3-27-11.5-21.5-3-32.5,6.35-15.81,3.5-21.5 C 340.74,595.86,344.24,583.36,354.24,578.36Z" fill="param(accent_colour_1)"/>
    <path d="M 291.24,594.86 s 15,13.5,8.5,24-7.5,22,.5,33.5,3,22-1.5,27-1,17.5,4.5,23,19.75,19.5,4.75,26 c 14-2,16.25-10.5,10.75-18.5 s -14-17-10-26.5 c 3.61-8.57,11.5-21.5,1-34.5 s 0-22.5,0-33 C 309.74,607.62,302.74,597.86,291.24,594.86Z" fill="param(accent_colour_1)"/>
    <path d="M 327.24,590.36 s -9,8-9,17,6,13.5,3.5,22.5-3.5,20.5,3.5,29-4.5,22.5-3.5,32.5,16.5,29,8.5,35.5 c 8.5-2,7-13,4-22 s -6-14-1-25,3.5-23.5-2-29.5,3.5-21-1-30 S 320.24,604.36,327.24,590.36Z" fill="param(accent_colour_1)"/>
    <path d="M 286.74,390.86 s -9-5.25-15-.25-15.33,3.6-21.5.75 c -6.5-3-15.25-2.5-22.75,9.75-6.67,10.9-22.25,17-25.25,7.75-4.36-13.45,15.5-10.5,15.5-10.5 s -16,1.5-12.75,9 c 3.42,7.9,18.25-2.5,21.25-8 s 11.12-14.62,19.5-11.75 c 8.75,3,16.5,6.5,23.5,2.5 S 279.24,384.86,286.74,390.86Z" fill="param(accent_colour_1)"/>
    <path d="M 194.49,418.86 s -13.27,8.19-8.75,20 c 3.25,8.5,1.75,13.5-2.25,19 s -11.38,18.92-2.5,29 c 9.25,10.5,13.75,25.5,3.75,35.5,5-12,4.25-22.75-4-31.5-7-7.46-10.5-17.5-1.5-31 s 4.25-16.25,2.25-22.25 S 185,419.36,194.49,418.86Z" fill="param(accent_colour_1)"/>
    <path d="M 192.08,549.7 s -2.83,16.34,4.83,26.5 c 8.67,11.5,9.83,19.17,5.33,26.67 a 23.56,23.56,0,0,0,2,26.5 c 6.5,8,12.5,19,3,31.5,5.83-12.17,2.33-21.33-4.5-30.17-5.64-7.29-8.83-15.83-1.83-30.33 S 182.58,574.2,192.08,549.7Z" fill="param(accent_colour_1)"/>
    <path d="M 205.41,666.7 s -6.33,14.5,1.67,26.5 c 8.51,12.77,14.17,23.67,6.67,27.67,8.5-1,5.33-14.5-2.5-24.83 A 35.34,35.34,0,0,1,205.41,666.7Z" fill="param(accent_colour_1)"/>
    <path d="M 212.74,524.36 s 13.77,14.89,6.17,25.17 c -9,12.17-1.67,15.67,3.83,22.17 s 10,19.67,4,29.17-6.17,16.33,4.5,31 c -6.5-14.5-9.33-17.5-4.33-27.5 s 10.79-20.31-2.83-34.5 c -12-12.5-3.33-16.83-1.5-22.83 C 223.92,542.62,224.27,532.55,212.74,524.36Z" fill="param(accent_colour_1)"/>
    <path d="M 238.24,453.86 s -4.67,7.65-13.25,10.75 c -9,3.25-18.25,4-12.75,16.5 s 7.75,23.75-1,30.25 c 10.25-5.25,9.25-15.25,5.75-25.25 s -6.5-13.5,0-16 S 236.74,461.36,238.24,453.86Z" fill="param(accent_colour_1)"/>
    <path d="M 209.74,453.61 s -3-16.25,7-17.25,19.5-4.25,22-12.75,7.89-14.7,16.75-12.25 c 11.75,3.25,17.25,5,25-3.75,6.37-7.19,13.75-1,13.75-1 s -7.5-1.75-11,1.5 c -2.07,1.92-9,10.25-16.25,8.25-8.54-2.36-21.61-6.86-24.25,2.75-3.5,12.75-10.31,17.44-17.25,18.5 C 214,439.36,210.74,440.61,209.74,453.61Z" fill="param(accent_colour_1)"/>
    <path d="M 233.58,642.2 s 4.17,9.33-2.5,22.83 c -3.87,7.84-7.65,10.32-1.17,19.33,11.5,16,14.33,32,4.83,42.5,9-3,9.67-21.17,3.17-33.67 s -11.67-14.5-7.67-22.5 S 240.08,648.2,233.58,642.2Z" fill="param(accent_colour_1)"/>
    <path d="M 261.74,589.86 s -11,12.33-.5,30.33,8.5,25.17,4,35.67-8,16.83-2.5,23.33,7.5,11.67,3,20.5-2,23.17,2.5,26.17 c -7-3.5-9.67-15-4.17-27 s -.33-13.5-4.33-20.5-.84-10.55,4.33-25.33 c 4.67-13.33,1.17-21.67-4.83-31.17 S 252.24,596.86,261.74,589.86Z" fill="param(accent_colour_1)"/>
    <path d="M 281.74,595.36 s 12,10.33,8,16.33 a 17.53,17.53,0,0,0,.5,20.67 c -2.42-8.53-3.19-12.59.67-18.33 C 294.09,609.3,291.41,600.53,281.74,595.36Z" fill="param(accent_colour_1)"/>
    <path d="M 293.24,651.36 s 7.67,13.46,2.83,22.83 c -5.33,10.33-5.17,23.33,6.67,31.67-10-4.5-16.67-16.5-8.83-31.33 C 299.76,663.45,293.24,651.36,293.24,651.36Z" fill="param(accent_colour_1)"/>
    <path d="M 318.74,595.36 a 15.92,15.92,0,0,0-2.5,16.5 c 4,9.5,3,13.5-.5,19.5-2.17,3.72-6,9.5,3,22,5.11,7.1,3.75,18.32-.25,27-8.75,19,19.25,39,5.75,49.5,6-9-2.5-20.5-6-27 s -6-10.75-1.5-24.25,4-18.75-4-29.25 c -6.81-8.94,1.25-19.25,3.25-25.75 S 305.74,602.36,318.74,595.36Z" fill="param(accent_colour_1)"/>
    <path d="M 372.24,544.86 s 8.75,4.5-6.25,20.25 c -12.07,12.67-.71,23.55,1.75,31.25,3.75,11.75-5.25,18-9.75,27.5 s -4,12.75,4.75,21 c 6.05,5.71,1.5,23.5-7,27,5.25-4.75,9.75-16.25,5.75-23.25 s -14-7.25-7-22.75,13.75-20.5,10.75-27.5-12-20.5-4.5-30.5 S 376.24,555.86,372.24,544.86Z" fill="param(accent_colour_1)"/>
    <path d="M 340.49,662.11 s 2.2,10.11-1.75,17.75,1.25,21,10.75,16,4.75-15,.75-15.5 c 3,2.5,5.5,11.5-2,13-4.41.88-10.5-3-6.75-12.75 C 343.83,674.55,344.49,666.11,340.49,662.11Z" fill="param(accent_colour_1)"/>
    <path d="M 254.24,433.86 s 1.5-4.75,10-2.25,17,8.75,27.5-1.25 c -4.5,8-11.25,8.5-16.75,7 S 258.24,429.86,254.24,433.86Z" fill="param(accent_colour_1)"/>
    <path d="M 300.24,410.86 s 6.67,7.29,20,4 c 21.25-5.25,31.76-4.17,35.5,6.25,4.75,13.25,11,22.75,23,22.75-8-4-14-5.5-18-16.5 s -10.25-21.5-28.25-17.5 S 311.74,414.86,300.24,410.86Z" fill="param(accent_colour_1)"/>
    <path d="M 303.24,395.86 s 4.75,5,17.75,1,19.75-2,19.75-2-10.25-2.25-18.25-.25 S 309.24,398.86,303.24,395.86Z" fill="param(accent_colour_1)"/>
    <path d="M 349.24,392.61 s 18.28,6,26.5,21.25 C 383,427.36,401.15,423,402,437.61 c .75,13-5.25,21.75-6.25,27.25 s -2,11.75,3.5,16.25,12-.81,11-6.75 c -1-6.17-7-10-7-10 s 10,13.25,1,15.5 c -5.86,1.47-9.5-9.83-3.25-23.25,4.41-9.46,8.25-23.75-3.25-31.25 S 384,423.11,377,410.86 C 370.09,398.79,359,394.36,349.24,392.61Z" fill="param(accent_colour_1)"/>
    <path d="M 307.24,433.61 s 5.64,4.05,16.25,1.5 c 13.5-3.25,20,1.48,22,5.25,3.54,6.61,6,12.75,17,14.25 s 16.25,6.75,15.75,22.25 c 2.5-12.5.5-19.5-8-23 s -15.57-.47-20-10 C 340.49,422.86,331.74,435.86,307.24,433.61Z" fill="param(accent_colour_1)"/>
    <path d="M 401.24,505.86 s 2.67,14.5-3.83,25.5-1.5,18.33-1.5,27.83 c 0,10-11.83,10-6.17,31.67-3.5-8-4.5-12.5-1.5-18.5 s 7.67-8.5,5.83-18.5 c -1.51-8.24-3.17-15.5,1.83-23.5 S 400.58,516.86,401.24,505.86Z" fill="param(accent_colour_1)"/>
    <path d="M 388.74,600.86 s 8.14,11.39-1.5,24.17 c -7.67,10.17,6.33,34.5-7.17,50.33-10.78,12.65-8.33,29.5,3.83,20.5-6.5,10.33-19,2-12.5-12 s 14.11-17.76,12.83-31.17 c -1.33-14-3.67-18.83.83-28.33 S 392.58,615.36,388.74,600.86Z" fill="param(accent_colour_1)"/>
    <path d="M 302.74,725.61 s 3.25,18.75,17.5,9 C 313.24,742.61,303.24,741.11,302.74,725.61Z" fill="param(accent_colour_1)"/>
  </g>
<script type="text/ecmascript" xlink:href="param.min.js"/> 
</svg>
