<?xml version="1.0"?>
<svg xmlns="http://www.w3.org/2000/svg" xmlns:xlink="http://www.w3.org/1999/xlink" viewBox="0 0 600 1032.36">
  <title>hair</title>
  <g id="main-colour">
    <path d="M 152.59,640.36 C 153.92,615,173.26,597,195.92,599.7 c -42-31.33-44-72.67-28-88.85 s 12.65-26.48,3.32-44.48-32.67-54.67,3.33-106,87.33-42,110-15.33,12.67,46.67,12.67,46.67 l -14.84,59.6 L 241.26,445 l -22,39-3.33,34 s 14.33,31.33,28.5,46.5 a 87.61,87.61,0,0,0,20.06,16.12 c 8.69,28.83,9.37,64.42-33.9,95.71 S 151.26,665.7,152.59,640.36Z" fill="param(main_colour)"/>
    <path d="M 300.22,467.7 c 40.67-27,69.79,18,71.67,43.33,2.63,35.33-18.73,56.58-18.73,56.58,56.59-19.75,77-108.38,42.09-155.25-30.5-41-77.51-36.5-95.51-22,0,0-40.36-24.06-79.48,1 C 169.26,424,176.44,524.53,244.95,565 c -15.86-16.75-22-53.66-9.81-75.65 C 261.3,442.36,300.22,467.7,300.22,467.7Z" fill="param(main_colour)"/>
  </g>
  <g id="accent-colour-1">
    <path d="M 301.26,457.86 s 23.5-19,53,3,31.15,68.17,7.5,99.5 c 18.5-10,39.32-66,1.32-102.33 C 339.58,436.53,307.26,446.86,301.26,457.86Z" fill="param(accent_colour_1)"/>
    <path d="M 301.74,398.86 s 27.83-23.33,65.5-5 c 45.85,22.32,49.83,85.5,35.5,119.17-12.79,30-23.67,35.33-23.67,35.33 s 35.33-39.33,22-98 C 388.44,394.77,339.41,383.2,301.74,398.86Z" fill="param(accent_colour_1)"/>
    <path d="M 302.08,415.36 s 41.4-39.38,87,18.33 c 21.33,27,7.17,90.83-7.33,109.33,12.5-27,26.19-74.43.33-106.33 C 356.41,405,323.58,407.86,302.08,415.36Z" fill="param(accent_colour_1)"/>
    <path d="M 302.08,435.36 a 55.79,55.79,0,0,1,53.18-6.5 c 35.75,13.86,41.23,63.08,35.48,76.83.67-32.33-15.48-60.33-41-68.83 C 324.08,428.31,310.08,432.36,302.08,435.36Z" fill="param(accent_colour_1)"/>
    <path d="M 297.92,457 s -24.85-12.67-48.17,1.33 c -28.4,17-36,63-20,89.5-18-24-18.85-69.33,14.65-95.83 C 263.41,437.53,290.74,442,297.92,457Z" fill="param(accent_colour_1)"/>
    <path d="M 296.24,399.36 s -33.48-21-67.48-3.5-39.5,59.5-34,87,17.5,45.5,17.5,45.5-13.5-34.5-13-65 S 226.24,379.86,296.24,399.36Z" fill="param(accent_colour_1)"/>
    <path d="M 294.74,417.7 s -18.33-18-46.33-9 c -25.44,8.18-57.65,41.67-38.65,98.17 C 202.74,471,221.41,398,294.74,417.7Z" fill="param(accent_colour_1)"/>
    <path d="M 296.41,436 s -10.5-10.67-34-9.33 c -16.5.94-44.65,14.67-48.15,56.67 C 219.26,464.36,241.08,419,296.41,436Z" fill="param(accent_colour_1)"/>
    <path d="M 294.76,379.86 s -5.5-33-40-46-69.5,18.5-82.5,45-10,51.5,1.5,75.5,11.5,30,11.5,30-.5-19.5-6.5-35-13-40.5.5-66,42.5-46,66.5-43.5 S 287.76,365.86,294.76,379.86Z" fill="param(accent_colour_1)"/>
    <path d="M 283.76,381.36 s -18.5-31-48-26.5-51.5,30-52.5,54.5 c -.69,17,4,35,4,35 s -1-42.5,17-60 S 246.76,351.86,283.76,381.36Z" fill="param(accent_colour_1)"/>
    <path d="M 182.76,507.36 s -25.5,23-9.5,53,34.5,35.5,42,52,7,46.5-19,51-28.5-25.5-23.5-32.5,16.38-11,26.5-1.5 c 8.5,8-1,18.75-11,16.5,6.5,7.5,18.06.85,20.5-5.5,3.75-9.75-3.5-20.5-15.5-23.5 s -25.66,3.23-29,14 c -4.5,14.5-2,34,21.5,42.5 s 48.5-15,47-40-11.5-35.5-35.5-58 S 170.26,527.36,182.76,507.36Z" fill="param(accent_colour_1)"/>
    <path d="M 189.26,505.36 s -16.5,33.5,23.5,64 c 29.82,22.74,44.5,45.5,34,77,13-12,18.5-34.5,0-59 S 188.26,557.36,189.26,505.36Z" fill="param(accent_colour_1)"/>
    <path d="M 189.92,679 s -28.18-6-31-33.33 C 158.26,663.36,168.74,676.7,189.92,679Z" fill="param(accent_colour_1)"/>
  </g>
  <g id="accent-colour-2">
    <path d="M 302.74,406.7 s 17.55-14.56,43.67-9.33 c 28.33,5.67,44.67,27.67,51,45.67 C 384.56,418.7,354.82,384.06,302.74,406.7Z" fill="param(accent_colour_2)"/>
    <path d="M 301.41,425.7 s 15.33-12.33,34.33-10.33 c 26.06,2.74,52.33,17.33,58.33,64.33 C 385.08,421.7,335.56,406,301.41,425.7Z" fill="param(accent_colour_2)"/>
    <path d="M 301.26,445.7 s 7.48-5.67,20.48-8,36,1,51.67,24.33 C 358.74,446.36,335.08,430,301.26,445.7Z" fill="param(accent_colour_2)"/>
    <path d="M 304.59,460.36 s 13.82-8,26.48-4.33,42.33,14.67,44.18,63 c 2.15-12.67-.18-25.67-8.85-40.33 C 358.9,466,329.92,441,304.59,460.36Z" fill="param(accent_colour_2)"/>
    <path d="M 376.74,467 s 28,49.15-10.25,92.33 C 384.74,544.7,401.41,501.7,376.74,467Z" fill="param(accent_colour_2)"/>
    <path d="M 296.35,462.12 s -12.76-7-28.12-4.81 S 227.82,478.65,226.76,512 c .19,12.67.73,23,3,30-5.86-12.4-8.1-35.13.47-56 S 265.25,442.42,296.35,462.12Z" fill="param(accent_colour_2)"/>
    <path d="M 295.26,444.36 a 50.93,50.93,0,0,0-43.31-.29 c -23.67,10.67-39.69,41.29-38.36,64.62-2.52-13.67,5.82-48.27,30.27-63.62 C 266.68,430.74,283.76,436.06,295.26,444.36Z" fill="param(accent_colour_2)"/>
    <path d="M 295.74,425.86 c 1.16.65-47.44-18.26-73.82,25.17 C 231.26,430,265.41,408.86,295.74,425.86Z" fill="param(accent_colour_2)"/>
    <path d="M 294.74,407.36 s -32.16-10.29-55.16.38 S 201.92,443.36,201.92,472 c -2.67-13.67,5.64-37.67,15.75-51.33 C 231.24,402.36,261.75,390.36,294.74,407.36Z" fill="param(accent_colour_2)"/>
    <path d="M 291.74,393.36 s -17.48-13-44.15-10-55.33,26-57.33,72 c 3.33-20.33,10.67-47.27,34.33-61.27 S 279.74,385.7,291.74,393.36Z" fill="param(accent_colour_2)"/>
    <path d="M 293.92,366.36 s -11-29-41.67-38.67 S 184.59,342.36,174.59,368 c 8.6-18.5,39.66-41.67,65-40.33 S 288.59,352.36,293.92,366.36Z" fill="param(accent_colour_2)"/>
    <path d="M 292.59,382.36 s -11.94-24.62-33.93-33.29 c -23.67-9.33-44.85-1-65.18,20 C 167.21,396.21,179,440,181,446.7 s 6.25,18.33,6.25,28 c .67-17.67-8.45-36.67-8.45-52.33 s 1.45-35.14,14.78-49.14,32-25.9,51.67-23.57 S 285.92,370.36,292.59,382.36Z" fill="param(accent_colour_2)"/>
    <path d="M 281.59,383.53 s -25.12-16.71-51.37-8.37 c -24.47,7.77-38.63,27.7-39.63,59.7 C 192.91,408.53,216.31,355.87,281.59,383.53Z" fill="param(accent_colour_2)"/>
    <path d="M 186.26,508.36 S 171.57,529,186.74,555 c 14,24,26.33,19,45.33,49 s -.48,69-29.82,76.33 c 20.82-2.33,36.48-20.33,39.82-44 S 231.41,591.7,213.41,578,171.26,543.36,186.26,508.36Z" fill="param(accent_colour_2)"/>
    <path d="M 195.26,514.7 s -.4,21.49,24.82,41.33 c 25,19.67,50.52,45.33,38.85,76,10-13.67,6.15-33.67-10.52-54.33 C 232.58,558.06,199.74,546.7,195.26,514.7Z" fill="param(accent_colour_2)"/>
    <path d="M 214.26,624.7 s -7.85-14-19.18-16 S 159.92,615,158.26,640 c -1.33-15.67,9.15-30.33,26.15-33.67 S 213.92,615.36,214.26,624.7Z" fill="param(accent_colour_2)"/>
    <path d="M 192.92,640.36 s 3.82-5-.52-8 c -6.92-4.79-15-.33-14.67,8.67 s 8,21,21.67,16.67 S 216.59,641,215.26,634 c -1.33,12.33-12.18,22.67-20.85,21.67 s -16.74-10.39-14-17 C 184.41,629,193.92,632.7,192.92,640.36Z" fill="param(accent_colour_2)"/>
    <path d="M 232.08,555 s -40.33-25.67-42-89.67 C 189.08,490,194.08,531.7,232.08,555Z" fill="param(accent_colour_2)"/>
    <path d="M 162.92,394.7 A 76.45,76.45,0,0,0,165.84,442 c 10,25,21.23,40.33,16.57,55.33 s -17.15,19.67-17.48,35 c -.52-10,3.46-16.18,9.48-24.33,5.32-7.2,11-18.33,2.52-35 C 168.61,456.69,150.26,419.36,162.92,394.7Z" fill="param(accent_colour_2)"/>
    <path d="M 165.26,548 s 5.82,29.33,34,48.67 C 177.08,583.36,167.59,567.7,165.26,548Z" fill="param(accent_colour_2)"/>
  </g>
<script type="text/ecmascript" xlink:href="param.min.js"/> 
</svg>
