<?xml version="1.0"?>
<svg xmlns="http://www.w3.org/2000/svg" xmlns:xlink="http://www.w3.org/1999/xlink" viewBox="0 0 600 1032.4">
  <title>HS013</title>
  <g id="main-colour">
    <g id="main-colour-2" data-name="main-colour">
      <path d="M 195.7,588.16 c 8.2,25.32,11.32,51,.83,65.19 s -31.46,8.89-36.68,2.64 c 4.64,21.81,22.35,17.63,22.35,17.63 s -5.53,7.33-11.67,8 c 11.72,6.62,21.15.32,21.15.32 s -3,10.7-9.43,13.87 a 30.21,30.21,0,0,0,18.88-9.07 s -.38,14.08-11,17.7 c 5.95.8,19.93-1.86,24.13-6.85,1.09,3.17-2.49,7.23-2.49,7.23 s 6.08-.19,9.16-4.32 a 28.55,28.55,0,0,1-2.23,12.82 s 11.63-4,13.13-11.35 c 1.58,3.24,5.21,13.82-.68,20.09,13.05-3.29,15.87-13,15.87-13 s .69,6.15-.21,9.05 c 5.22-1.32,8.2-8.48,8.2-8.48 s 4.12,10.64-2.89,17.77 c 5.29-1.81,13.72-8.25,17.53-17.82-.34,10,12.54,19.34,12.54,19.34 s -2.63-10.44-.55-14.7 c .46,4.1,5.24,9.79,5.24,9.79 s -2.11-6.84.18-12.59 c 1.31,12.79,17,19.94,17,19.94 s -5.94-8.37-2.39-18.28 c 1.78,7,8.41,11,8.41,11 a 14,14,0,0,1,1.46-10.9,23.38,23.38,0,0,0,12.57,15.31 s -3.76-9.59,1-17.32 c 6.4,17.71,25.29,16.82,25.29,16.82 s -8.51-9.52-5-17.52 c 18.88,14.95,35.8,2.39,35.8,2.39 s -8.44-1-10.75-6.39 c 8.33-1.91,14.35-9.17,14.23-23.31-6.09,15.32-25.75,11.09-32.14-7.6-9.3-24.8,34.27-57.35,76.27-122.35 S 463.5,385,404.9,356.4 c -72.3-35.3-102.7,26-102.7,26-7-17-42-55.3-99.7-28.3-50.4,23.6-60.31,96.2-53.31,138.2 S 187.59,562.86,195.7,588.16Z M 238.8,485.8 a 79.9,79.9,0,0,1,8.9-4.2,53.63,53.63,0,0,1,5.9-12.6,56.3,56.3,0,0,0-2.7,11.3,120.58,120.58,0,0,1,19.8-5.4,33.32,33.32,0,0,1,4.5-9.3,28.79,28.79,0,0,0-1.4,8.7 l .4-.1 a 56.34,56.34,0,0,1,3.8-6.8,23.35,23.35,0,0,0-1.2,6.4,163.77,163.77,0,0,1,27.1-1.7,76.17,76.17,0,0,0-.1-9.5 c 1,3,2,7.6,2.5,9.6 a 198,198,0,0,1,20.4,1.7 c -.2-3.3-.7-8.1-1.9-11.3 a 51.16,51.16,0,0,1,5.4,11.9 c 3.9.6,7.8,1.4,11.3,2.3 a 21,21,0,0,0-.9-5 c 1.1,1,2.6,4.2,3.2,5.6,1,.3,2,.5,3,.8 a 104,104,0,0,0-4-11.9,68.13,68.13,0,0,1,7.9,13.1,86.32,86.32,0,0,1,10,3.9 c 9.3,10.4,12.2,28.3,13.1,38.5 a 73.83,73.83,0,0,1-146.8,4 C 226.7,516.2,228.9,496.6,238.8,485.8Z" fill="param(main_colour)"/>
    </g>
  </g>
  <g id="accent-colour-1">
    <g id="accent-colour-1-2" data-name="accent-colour-1">
      <path d="M 356.88,475.4 c -12.3-55.7-54-58.7-54-58.7 C 330.18,429.7,347.18,453.1,356.88,475.4Z" fill="param(accent_colour_1)"/>
      <path d="M 300.78,417.6 c 32.5,23.5,33.4,54.8,33.4,54.8 C 325.18,449.4,312.78,430.2,300.78,417.6Z" fill="param(accent_colour_1)"/>
      <path d="M 308.58,469.7 c 6-28-8-46-8-46 C 304.18,433.7,307.88,454.7,308.58,469.7Z" fill="param(accent_colour_1)"/>
      <path d="M 288.88,469.1 c -2-27.3,7.7-51,7.7-51 C 286.58,430.4,282.18,450.4,288.88,469.1Z" fill="param(accent_colour_1)"/>
      <path d="M 262.58,472.7 c -1-37.7,28.3-56.7,28.3-56.7 C 261.58,429.4,257.58,455.4,262.58,472.7Z" fill="param(accent_colour_1)"/>
      <path d="M 280.88,418.1 c -38.7,17-40.3,61.3-40.3,61.3 C 238.58,455.7,247.18,424.1,280.88,418.1Z" fill="param(accent_colour_1)"/>
      <path d="M 356.18,368 c 37,.7,60.1,18.1,73,57.7,13.3,41-.2,82.8-11.7,104.3 s -56.7,90.68-68.72,108.48-22.77,40.22-12.86,54,29.8,13.35,41.85,4.67 C 353,706.28,335,685.38,341.12,665.23 s 53.36-81.53,69.66-107.53 C 426.18,533.3,443,507,446,468 s -14.3-90.9-59.8-105.3-82.7,23.4-82.7,23.4 C 311.58,380.6,331.18,367.6,356.18,368Z" fill="param(accent_colour_1)"/>
      <path d="M 401.48,439.4 c 11,35,5.46,63.68-11.3,97.3-21,42.16-30.2,52-56,88.13-27,37.7-24.23,71.18-14.95,94.75 C 309,661.65,340.06,630,360.94,601 c 22.73-31.48,49.54-77.45,56-110.95 s 2-74.5-31.5-100-82,3.5-82,3.5 C 363.58,375.1,390.48,404.4,401.48,439.4Z" fill="param(accent_colour_1)"/>
      <path d="M 372.08,436.1 c 21,36.5,13.5,72.5,4,104,8.5-21,30-60,6-108 s -78.5-31-78.5-31 C 323.08,400.6,351.08,399.6,372.08,436.1Z" fill="param(accent_colour_1)"/>
      <path d="M 376.08,491.1 c -9-87.5-72-82.5-72-82.5 C 349.58,419.1,368.58,463.6,376.08,491.1Z" fill="param(accent_colour_1)"/>
      <path d="M 178.39,680.26 c 12.89-.31,30.1-12.46,35.09-40 s 1.47-40.72-23.35-84.5 c -19.18-33.85-36.34-62.64-30.55-114.65,3.86-34.65,24.5-75,66-82 s 72.5,27.5,72.5,27.5 c -22.5-17-44.5-22.5-72-17.5 s -46.7,28.3-56.2,69.3,14.44,93.73,31.92,124.35 c 12.12,21.23,26.9,54,15.32,85.16 C 207.77,673,198.76,680,178.39,680.26Z" fill="param(accent_colour_1)"/>
      <path d="M 192.18,447.7 c -4,38,14.84,66.42,27.95,98.18,12.46,30.18,21,56.83,19.92,82 s -13.32,61.86-39.69,69.52 c 38.17-35.32,35-84,22.16-120.5 s -30.84-65.18-39.34-99.18,9-78.7,42-94.7 S 295,393.5,295,393.5 C 236.58,368.6,196.18,409.7,192.18,447.7Z" fill="param(accent_colour_1)"/>
      <path d="M 218.08,441.1 c -12.5,25.5-7.5,49,4.5,89-13-29.5-30.3-75.7-2.3-109,30.2-36,75.8-20,75.8-20 C 259.08,399.6,230.58,415.6,218.08,441.1Z" fill="param(accent_colour_1)"/>
      <path d="M 220.08,499.1 c -9.5-92.5,72.5-91.5,72.5-91.5 C 227.08,424.6,222.58,465.1,220.08,499.1Z" fill="param(accent_colour_1)"/>
      <path d="M 304.17,716.93 c -20.38-78.29,34.9-128.66,34.9-128.66 C 281,624.22,287.39,699.3,304.17,716.93Z" fill="param(accent_colour_1)"/>
      <path d="M 225.28,700.53 c 50.41-60.69,18.6-126.66,18.6-126.66 C 282.7,643.52,245.75,691.81,225.28,700.53Z" fill="param(accent_colour_1)"/>
      <path d="M 275.73,717.36 C 265,650.47,302.82,598.12,302.82,598.12,267.8,620.89,261.73,695.12,275.73,717.36Z" fill="param(accent_colour_1)"/>
    </g>
  </g>
  <g id="accent-colour-2">
    <g id="accent-colour-2-2" data-name="accent-colour-2">
      <path d="M 349.78,478 c -4.2-33.8-47.6-62.3-47.6-62.3 C 328.08,437.1,343.08,457.8,349.78,478Z" fill="param(accent_colour_2)"/>
      <path d="M 302.88,420.1 c 21.4,29.2,17.4,51.2,17.4,51.2 C 317.78,452.8,310.28,433.3,302.88,420.1Z" fill="param(accent_colour_2)"/>
      <path d="M 296.58,468.7 c -4.3-23.1,2.3-46.3,2.3-46.3 C 295.58,429.1,289.18,449.7,296.58,468.7Z" fill="param(accent_colour_2)"/>
      <path d="M 267.78,472.8 c 4.2-35.5,25.1-55.8,25.1-55.8 C 279.88,425.7,265.08,454.3,267.78,472.8Z" fill="param(accent_colour_2)"/>
      <path d="M 247.58,472.7 c 6.2-39.4,34.3-53.7,34.3-53.7 C 261.18,428.4,247.88,450.1,247.58,472.7Z" fill="param(accent_colour_2)"/>
      <path d="M 372.18,508.1 c -5.2-61.5-51-88.7-51-88.7 C 361.58,445.6,369.08,472.3,372.18,508.1Z" fill="param(accent_colour_2)"/>
      <path d="M 225.18,505.7 c 4.1-86.4,59-91.3,59-91.3 C 246.28,416.6,219.78,467.1,225.18,505.7Z" fill="param(accent_colour_2)"/>
      <path d="M 375.78,376.3 c 27,7.5,44.2,31.5,50.8,69 s -8.11,69.59-24.2,101.5 c -21.48,42.59-56.69,88-67.22,106.78-15.25,27.2-3.62,53.7,9.88,69.32-4.5-2-23.64-24.51-19.53-49.69,5.15-31.58,35.18-61.73,50.37-85.41 s 34.2-56.8,45.8-95.8-4.5-100-46-112.5-72.5,12-72.5,12 C 318.08,377.8,348.78,368.8,375.78,376.3Z" fill="param(accent_colour_2)"/>
      <path d="M 398.58,449.3 c 9,37.5-1.5,66.6-16,91.8 s -52.5,74.55-65.75,101.13 c -11.17,22.4-14.81,43.08-7,64.95-18.62-24,2-68.57,15.25-88.88 s 56.84-73.69,67.44-104.09 c 9.5-27.2,10.2-78.5-18.8-105 s -71.2-12-71.2-12 C 359.08,376.1,389.58,411.8,398.58,449.3Z" fill="param(accent_colour_2)"/>
      <path d="M 375.58,519.1 c 19.2-114-70-114.5-70-114.5 C 379.58,403.3,390.08,486.6,375.58,519.1Z" fill="param(accent_colour_2)"/>
      <path d="M 284.77,658.75 c -5.5,46.7,11,62.14,11,62.14 s -13.92-24.3-7.87-61.09,34-66.77,34-66.77 S 293,615.11,284.77,658.75Z" fill="param(accent_colour_2)"/>
      <path d="M 245.37,708.06 c 37.29-60.69,22.54-118.2,22.54-118.2 C 268.44,643.17,261.8,671.52,245.37,708.06Z" fill="param(accent_colour_2)"/>
      <path d="M 386.08,355.1 c 37,9.5,57,37.5,64.5,85 s -16.5,95-31,111.5 c 22-36.5,29.2-60.5,30.2-91.3.6-19.5-11.8-92.8-67.2-103.8 s -79,29.5-79,29.5 C 319.78,358.6,349.08,345.6,386.08,355.1Z" fill="param(accent_colour_2)"/>
      <path d="M 349.3,655.57 c -9.37,24.73,5.53,38.38,20.93,39-19.5-3.5-23.11-17.09-20.61-33.59 s 50.72-76.35,50.72-76.35 S 358.47,631.38,349.3,655.57Z" fill="param(accent_colour_2)"/>
      <path d="M 231.78,428.6 c -18,20.5-21.8,51-10.2,87.3-8-35.2-7.8-65.1,13.7-88.1 s 62.8-22.2,62.8-22.2 C 274.78,404.1,249.78,408.1,231.78,428.6Z" fill="param(accent_colour_2)"/>
      <path d="M 215.78,412.6 c -21,18.8-23,57.8-11.5,89.8 s 31.19,66.08,39.2,98-6.16,71.34-25.9,100 c 41.5-51.5,35.58-89.76,24.16-119-9.8-25.13-26-54.65-36.16-83.35-8.5-24.5-11.2-66,20.5-90.2,30-23,71.5-10.5,71.5-10.5 C 268.08,389.6,243.28,388,215.78,412.6Z" fill="param(accent_colour_2)"/>
      <path d="M 219.58,377.6 c -30.5,17-43.9,44.3-45.8,72-1.8,25.5,9.8,59.2,20.2,84.8 s 23.45,44.15,29.17,73.21 c 8.12,41.28-12,67.3-28.39,79.28,23.45-11.51,33.34-34.26,33.84-63.26 s -16-56.4-28.76-87.34 c -8.88-21.62-20.76-51.69-23.36-77.19-2.2-22.6,10-61.8,44.5-79.8 s 76,11.8,76,11.8 C 284.08,379.6,250.08,360.6,219.58,377.6Z" fill="param(accent_colour_2)"/>
      <path d="M 185.58,374.3 c -21.5,22-35.2,60.37-28.94,111.23,4.8,37.3,26.94,69.07,26.94,69.07 s -18-14.15-28.35-58.15 c -9.2-39,.35-79.35,9.65-98.35,9.9-20.4,41.2-54.2,81.2-47.8 s 52,33.2,52,33.2 C 261.08,336.8,207.08,352.3,185.58,374.3Z" fill="param(accent_colour_2)"/>
      <path d="M 208.13,643.76 c -5,23.69-29.27,26-38.66,20.31,10.71,1.62,29.76,4.28,36.81-22.26 s -16.17-77-16.17-77 C 196.8,575.49,214.24,615,208.13,643.76Z" fill="param(accent_colour_2)"/>
    </g>
  </g>
<script type="text/ecmascript" xlink:href="param.min.js"/> 
</svg>
