<?xml version="1.0"?>
<svg xmlns="http://www.w3.org/2000/svg" xmlns:xlink="http://www.w3.org/1999/xlink" id="Layer_1" data-name="Layer 1" viewBox="0 0 600 1032.4">
  <title>HS012</title>
  <g id="main-colour">
    <path d="M 179.8,504.4 c 2.5,10-3,15.5-3,24 s 10.5,14,11,24.5 c .4,9-10,12-9.5,22.5 s 10.5,13,11.5,23-8.5,15-8,23.5,13.5,14.5,13.5,22.5-8,15-5,26.5 c 1.6,6,8,13.5,8.5,22,.5,8.1-7.5,17.5-.5,22.5 s 19-1,24,.5,11.5,15.5,18.5,18,14.2-1.1,20.5.5 c 6,1.5,11,12.5,23,12.5 s 18.5-8.5,24-9.5,11,6.5,18,7,10-9.5,17.5-11 c 4.9-1,7.5,4.5,20,4.5 s 15-11.5,21-11,14,9.5,24,3.5,4-14,5.5-19,13.5-7,14.5-16.5-10-16.5-10-23.5,10.5-14.5,10-21-6-12-6.5-19.5,9-14,10-20-6-12-5.5-19,10.5-10.5,11.5-20-9-16.5-9-24,11.7-9.1,15-17.5 c 3.5-9-3-18.5-2-25.5 s 8-9,10-16.5 c 1.8-6.8-3.5-15.5-2.5-20.5 s 7.1-13.2,5.5-20.5 c -2-9-12-12.5-14-18 s 3-13.5-1-21-14-6.5-19.5-11.5-5-13-14-17-15.5,0-23.5-3.5-5.5-9.5-19-11-16,5.5-24,7-15-6-24.5-2-16,19-16,19 a 28.76,28.76,0,0,0-18.5-17.5 c -7-2-10.5,3.5-18.7,1.5 s -10.8-8.5-19.8-7.5-13,12-20.5,14.5-21.5-1-29,8-1,18.5-5.5,25-12,6-17,16 c -4.5,9.1,4,19,2,28-1.6,7.3-6.5,15-5.5,24 S 177.3,494.4,179.8,504.4Z m 46.6,13 c 11-13.8,9.7-32.2,12.9-38.6,3.5-7,9-2.8,16.3-8.5,6.9-5.4,4-11,11.2-15,5.9-3.3,11.4,1,17,1,4.2,0,11-1.3,16-9.5,5.7,9.5,11.5,10.2,18,11.8 s 20.8-6.9,23.5,5.8 a 23.76,23.76,0,0,0,16.8,17.8 c 8.1,2.1,4.2,10.5,4.7,20,.3,6.4,6.9,13.2,11.2,17 a 73.84,73.84,0,0,1-147.6-1.8Z" fill="param(main_colour)"/>
  </g>
  <g id="accent-colour-1">
    <path d="M 329.3,385.4 c 7,6,20,1,28-2.5 s 8.5,4.5,16.5,9,15,.5,21.5,3.5,9.5,18.5,21,20,3,20.5,15,30.5-5,15-.5,24-3,17.5-8.5,26.5,8.5,23-.5,30.5-11.5,18.5-9,24,8,15,2.5,22.5-10,17-6,23.5,4,12,.5,16.5-6.5,13-3.5,19,5,16.5-1,24.5-2,18,2,25.5.5,11.5-4.5,15.5.5,18.5-4.5,20 c -5.2,1.5-2.8-7-3.3-11.5-13.3,13,1.7,24.7,8.5,19.3,4.8-3.8,3.3-11.8,3.8-18.3 s 8-7,11-14-7-18.5-7-24.5,4.5-7,6.5-16.5-1-17.5-2.5-24.5,5.5-8,7.5-18-4-14-4-20,7.5-10.5,10-18.5-6.5-19-5.5-26.5,8-10,12.5-18-.5-21-.5-26,5-6.5,8.5-13.5-2.5-15.5-2-21.5,6.5-8,5.5-17-12-12.5-13-20,2-10.5-1.5-17-11.5-5-18-10-4.5-10.5-11-14.5-16-3.5-23.5-4.5-8-9-16.5-11.5-15,5.5-25,7-13-7-21.5-4-14.5,18.5-14.5,18.5 C 310.3,384.4,322.3,379.4,329.3,385.4Z" fill="param(accent_colour_1)"/>
    <path d="M 328.3,440.4 c 11.5-5,19.5.5,22.5,7 s 4.5,18.5,16.5,20.5,11.5,21,8.5,30,2.5,15.5,9,15.5 c -9.5,8.5-18.5-6-15.5-16 s -1-21-6.5-22-13-7-17.5-19-11.5-6.5-25.5-6-15.5-15.5-15.5-15.5 C 306.8,442.9,316.8,445.4,328.3,440.4Z" fill="param(accent_colour_1)"/>
    <path d="M 323.3,402.9 c 3.5,4.5,15,10,22,5.5 s 12.5-4,17,3.5,6.5,21.5,23,20.5,9.4,18.2,8.5,28 c -1,10.8,8.5,20,4,25.5 s -9,10-4.5,23-7.5,32-4.5,38.5,8.5,17.5-2,28-8.5,20.5-4.5,29,3.5,12-4.5,26-5,22,1,35.5-3.5,23-8,30.5-3.5,24.5,8.5,26 c -10.5-5-2-25,6.5-36 s 5.5-19.5.5-28.5-4.5-18,3-26,7.5-21.5,3-29.5-4.5-13,4-22.5,10-21.5,4-32.5,5.5-18.5,6-26.5-10-16-.5-26.5,6.2-20,1.2-26.5-2.2-17-.2-29-8.5-19.5-18-18.5-15-3.5-18-14 a 14.28,14.28,0,0,0-.8-2.2,15,15,0,0,0-19.7-7.8 c -7,3-15.5,5.5-24.5-1.5 s -21.5,4.5-21.5,4.5 C 310.8,395.9,319.8,398.4,323.3,402.9Z" fill="param(accent_colour_1)"/>
    <path d="M 330.8,428.9 c 7-4.5,14.7-5.1,18.5,4 s 13.2,16.5,23,15.5 c 9.6-1,13.5,9,3.5,12.8,16.8-.5,8-20.2-2-19.8 s -13-6.5-20-17-19-8-27-4-19-7-19-7 C 308.8,425.9,323.8,433.4,330.8,428.9Z" fill="param(accent_colour_1)"/>
    <path d="M 350.3,599.9 c 4,10,9,17.5.5,26.5 s -11.5,24.5-2.5,38.5,1.5,17-3.5,27.5-5,31,14,33.5 c -11-2.5-12-24.5-5-31 s 13.5-16.5,9-25-15-25-5.5-36,12-19,3.5-35,15-39.5,15-39.5 C 348.3,576.9,346.3,589.9,350.3,599.9Z" fill="param(accent_colour_1)"/>
    <path d="M 321.8,618.4 c -6.5,8-14.5,22-8,31.5 s 9,16.5,1.5,27-.5,19,6,27.5,3,16-5,17.5-8.5-9-5-16 c -16,8-8,33,8.5,25 s 12.5-25,7.5-31.5-7.5-14-2.5-20,11.5-14.5,2.5-27-1.5-23.5,5.5-37.5-5-24-5-24 C 332.8,595.4,328.3,610.4,321.8,618.4Z" fill="param(accent_colour_1)"/>
    <path d="M 272.8,440.4 c -9-2-17.5.5-19.5,6.5 s -.5,10-15.5,13-14,18-13,25.5.5,18.5-4.5,23 c 7,1.5,11.5-13.5,10.5-23 s 4.5-17.5,10.5-18.5,12.5.5,16-11.5,18-7.5,28.5-7,12-14,12-14 C 291.3,444.9,281.8,442.4,272.8,440.4Z" fill="param(accent_colour_1)"/>
    <path d="M 268.1,417 c -8.3-1.8-16.8.8-20.8,7.3 s -4.5,14.5-15,19.5 S 220,454.6,220,454.6 s 6-4.2,17-5.7,9.3-8.2,16.8-18.2,19.5-.5,32.5-1.5,15-15.5,15-15.5 C 295.8,422.9,276.6,418.9,268.1,417Z" fill="param(accent_colour_1)"/>
    <path d="M 270.3,387.4 c -16,10.5-20.5-10.5-35,4 s -28.3,3.9-29,14.5 c -.8,12.3-10.5,18.5-16,29 s 6.5,23,.5,28.5-6.5,16.5,0,23,5,20,4,29.8,4.5,13.7,8,27.2-4,16.5-4,24.5,8.5,10.5,9.5,24-7.5,12-7,25.5,8,13.5,10,25-7.5,24-3,30,7.5,14,5.5,21.5,6,11.5,12,12 c -18,9-21-6.5-19.5-14 s -6-12.5-9.5-24.5,5-19.5,5-25.5-10-12.5-11.5-20.5,6.5-17.5,7-26.5-8-10.5-10-19,7-16.5,6-25-8-18.5-9-24.5,2-17.5,2-24-8.5-14-10.5-23,5.5-16.5,5.5-24-5.5-8.5-3.5-19.5,9.5-11.5,14.5-19.5-.5-16.5,6.5-23.5,14.5-1,25.5-6,8.5-9.5,17-12.5,11,4.5,18.5,5,10.5-2.5,20-2,17.5,15.5,17.5,15.5 S 286.3,376.9,270.3,387.4Z" fill="param(accent_colour_1)"/>
    <path d="M 251.8,396.9 c -10,3-20,17-24,22 s -13.5,8-20.5,17,2,27.5,1.5,34.5-8,19.5-8,28.5,8.5,23,10,30-2.5,19.5-1,29.5,10,16,11.5,23.5-6,16-5,26,7.5,15,9.5,24-7,13.5-5.5,27.5,10.5,17,13.5,23-1.5,19-1.5,27,11,13,16,11.5 a 12.68,12.68,0,0,0,9-15 c -1.5-8.5-10.5-10.5-10.5-10.5 s 4.5,2,4.5,9-8.5,8-11.5,3,4-20,4-26.5-13-9-14.5-21,6-17,6.5-27.5-8.5-16-10.5-25,5.5-15.5,5.5-25.5-9.5-18-12-25,3.5-19.5,2.5-29-9.5-18.5-11.5-29,6.5-16,8-24.5-4.5-18-1-30.5 c 2.9-10.4,17.1-13.5,23-25.5,7.7-15.5,20-14.5,35-10.5 s 23-4.5,23-4.5 C 287.8,408.9,261.8,393.9,251.8,396.9Z" fill="param(accent_colour_1)"/>
    <path d="M 256.3,601.9 c -2.9,5.7-5,10.5,3.5,21.5 s 6,25-3,32.5-3,27-3,27-14.5-20-5-28,9-22.5.5-31-7.5-19-2-28-1.5-17.5-1.5-17.5 C 255.8,583.4,259.3,595.9,256.3,601.9Z" fill="param(accent_colour_1)"/>
    <path d="M 290.3,615.9 c 0,10.5,10.5,20,0,33 s -2.6,25.9,1,34.5 c 4,9.5-4.5,18.5-10,26.5 s -3.2,16.5,10.8,18.5 c -15-6.5-.8-20.5,4.8-26 s 9-18,4.5-23-9.5-15.5-1.5-27,7-23,.5-33.5,8.5-24,8.5-24 C 297.3,597.9,290.3,607.6,290.3,615.9Z" fill="param(accent_colour_1)"/>
    <path d="M 269.8,620.4 c -4.5,9,4.5,24-1,30 s -7,18.5-2,29.5,2,16-1,25-4.5,20,4,22 c -8-6.5,7.5-25.5,8.5-35.5 s -10.5-24-3.5-32.5,6-20,3.5-29,3.5-13.5,3.5-22.5-9-17-9-17 C 279.8,604.4,274.3,611.4,269.8,620.4Z" fill="param(accent_colour_1)"/>
    <path d="M 330.8,390.1 c 7,4,14.8.5,23.5-2.5,8.4-2.9,16.5,6.2,19.5,11.8 s 17.8,15.9,21.2,8 c 3.2-7.5-12.8-9-12.8-9 s 19.9-3,15.5,10.5 c -3,9.2-18.6,3.1-25.2-7.8-7.5-12.2-16.2-12.8-22.8-9.8-6.2,2.9-15.5,4.2-21.5-.8 s -15,.2-15,.2 C 320.8,384.9,323.8,386.1,330.8,390.1Z" fill="param(accent_colour_1)"/>
    <path d="M 418.5,437.6 c -2,6-6.8,8.8,2.2,22.2 s 5.5,23.5-1.5,31 c -8.2,8.8-9,19.5-4,31.5-10-10-5.5-25,3.8-35.5,8.9-10.1,1.5-23.5-2.5-29 s -5.5-10.5-2.2-19 c 4.5-11.8-8.8-20-8.8-20 C 415,419.4,420.5,431.6,418.5,437.6Z" fill="param(accent_colour_1)"/>
    <path d="M 399.1,600.4 c 7,14.5,3.8,23-1.8,30.3-6.8,8.8-10.3,18-4.5,30.2-9.5-12.5-3.5-23.5,3-31.5 a 23.41,23.41,0,0,0,2-26.5 c -4.5-7.5-3.3-15.2,5.3-26.7,7.7-10.2,4.8-26.5,4.8-26.5 C 417.4,574.2,392.1,585.9,399.1,600.4Z" fill="param(accent_colour_1)"/>
    <path d="M 388.8,696 c -7.8,10.3-11,23.8-2.5,24.8-7.5-4-1.8-14.9,6.7-27.7,8-12,1.7-26.5,1.7-26.5 A 36.05,36.05,0,0,1,388.8,696Z" fill="param(accent_colour_1)"/>
    <path d="M 377.4,547 c 1.8,6,10.5,10.3-1.5,22.8-13.6,14.2-7.8,24.5-2.8,34.5 s 2.2,13-4.3,27.5 c 10.7-14.7,10.5-21.5,4.5-31 s -1.5-22.7,4-29.2,12.8-10,3.8-22.2 c -7.6-10.3,6.2-25.2,6.2-25.2 C 375.7,532.5,376.1,542.6,377.4,547Z" fill="param(accent_colour_1)"/>
    <path d="M 383,470.1 c 6.5,2.5,3.5,6,0,16 s -4.5,20,5.8,25.2 c -8.8-6.5-6.5-17.8-1-30.2 S 384,467.9,375,464.6 c -8.6-3.1-13.2-10.8-13.2-10.8 C 363.3,461.4,376.5,467.6,383,470.1Z" fill="param(accent_colour_1)"/>
    <path d="M 374.5,437.6 c -6.9-1.1-13.8-5.8-17.2-18.5-2.6-9.6-15.7-5.1-24.2-2.8-7.2,2-14.2-6.3-16.2-8.2-3.5-3.2-11-1.5-11-1.5 s 7.4-6.2,13.8,1 c 7.8,8.8,13.2,7,25,3.8,8.9-2.5,14.2,3.8,16.8,12.2 s 12,11.8,22,12.8,7,17.2,7,17.2 C 389.3,440.6,386,439.4,374.5,437.6Z" fill="param(accent_colour_1)"/>
    <path d="M 369.8,670.7 c 4,8-1.2,10-7.7,22.5 s -5.8,30.7,3.2,33.7 c -9.5-10.5-6.7-26.5,4.8-42.5,6.5-9,2.7-11.5-1.2-19.3-6.7-13.5-2.5-22.8-2.5-22.8 C 359.9,648.2,365.8,662.7,369.8,670.7Z" fill="param(accent_colour_1)"/>
    <path d="M 340.8,621.9 c -6,9.5-9.5,17.8-4.8,31.2,5.2,14.8,8.3,18.3,4.3,25.3 s -9.8,8.5-4.3,20.5,2.8,23.5-4.2,27 c 4.5-3,7-17.3,2.5-26.2 s -2.5-14,3-20.5,2-12.8-2.5-23.3-6.5-17.7,4-35.7-.5-30.3-.5-30.3 C 347.8,596.9,346.8,612.4,340.8,621.9Z" fill="param(accent_colour_1)"/>
    <path d="M 309.1,614 c 3.9,5.7,3.1,9.8.7,18.3 a 17.72,17.72,0,0,0,.5-20.7 c -4-6,8-16.3,8-16.3 C 308.6,600.5,305.9,609.3,309.1,614Z" fill="param(accent_colour_1)"/>
    <path d="M 306.1,674.5 c 7.8,14.8,1.2,26.8-8.8,31.3,11.8-8.3,12-21.3,6.7-31.7-4.8-9.4,2.8-22.8,2.8-22.8 S 300.2,663.5,306.1,674.5Z" fill="param(accent_colour_1)"/>
    <path d="M 284,623.6 c 2,6.5,10.1,16.8,3.2,25.8-8,10.5-8.5,15.8-4,29.2 s 2,17.8-1.5,24.2-12,18-6,27 c -13.5-10.5,14.5-30.5,5.8-49.5-4-8.7-5.4-19.9-.2-27,9-12.5,5.2-18.3,3-22-3.5-6-4.5-10-.5-19.5 a 16,16,0,0,0-2.5-16.5 C 294.3,602.4,282,617.1,284,623.6Z" fill="param(accent_colour_1)"/>
    <path d="M 239.3,567.9 c 7.5,10-1.5,23.5-4.5,30.5 s 3.8,12,10.8,27.5-3,15.8-7,22.8.5,18.5,5.8,23.2 c -8.5-3.5-13-21.3-7-27,8.8-8.2,9.2-11.5,4.8-21 s -13.5-15.8-9.8-27.5 c 2.5-7.7,13.8-18.6,1.8-31.2-15-15.8-6.2-20.2-6.2-20.2 C 223.8,555.9,231.8,557.9,239.3,567.9Z" fill="param(accent_colour_1)"/>
    <path d="M 258.5,680.6 c 3.8,9.8-2.3,13.6-6.8,12.8-7.5-1.5-5-10.5-2-13-4,.5-8.8,10.5.8,15.5 s 14.7-8.4,10.8-16-1.8-17.8-1.8-17.8 C 255.5,666.1,256.2,674.5,258.5,680.6Z" fill="param(accent_colour_1)"/>
    <path d="M 325,437.4 c -5.5,1.5-12.2,1-16.8-7,10.5,10,19,3.8,27.5,1.2 s 10,2.2,10,2.2 C 341.8,429.9,330.5,435.9,325,437.4Z" fill="param(accent_colour_1)"/>
    <path d="M 267.5,409.9 c -18-4-24.2,6.5-28.2,17.5 s -10,12.5-18,16.5 c 12,0,18.2-9.5,23-22.8,3.7-10.4,14.2-11.5,35.5-6.2,13.3,3.3,20-4,20-4 C 288.3,414.9,285.5,413.9,267.5,409.9Z" fill="param(accent_colour_1)"/>
    <path d="M 277.5,394.6 c -8-2-18.2.2-18.2.2 s 6.8-2,19.8,2,17.8-1,17.8-1 C 290.8,398.9,285.5,396.6,277.5,394.6Z" fill="param(accent_colour_1)"/>
    <path d="M 223,410.9 c -7,12.2-9.2,7-20.8,14.5 s -7.7,21.8-3.2,31.2 c 6.2,13.4,2.6,24.7-3.2,23.2-9-2.2,1-15.5,1-15.5 s -6,3.8-7,10 c -1,5.9,5.5,11.2,11,6.8 s 4.5-10.8,3.5-16.2-7-14.2-6.2-27.2 c .9-14.6,19-10.2,26.3-23.8,8.2-15.2,26.5-21.2,26.5-21.2 C 241,394.4,229.9,398.8,223,410.9Z" fill="param(accent_colour_1)"/>
    <path d="M 249.8,443.9 c -4.4,9.5-11.5,6.5-20,10 s -10.5,10.5-8,23 c -.5-15.5,4.8-20.8,15.8-22.2 s 13.5-7.6,17-14.2 c 2-3.8,8.5-8.5,22-5.2,10.6,2.5,16.2-1.5,16.2-1.5 C 268.3,435.9,259.5,422.9,249.8,443.9Z" fill="param(accent_colour_1)"/>
    <path d="M 204.1,530.4 c 5,8,3.3,15.3,1.8,23.5-1.8,10,2.8,12.5,5.8,18.5 s 2,10.5-1.5,18.5 c 5.7-21.7-6.2-21.7-6.2-31.7,0-9.5,5-16.8-1.5-27.8 s -3.8-25.5-3.8-25.5 C 199.4,516.9,199.1,522.4,204.1,530.4Z" fill="param(accent_colour_1)"/>
    <path d="M 214.9,624.4 c 4.5,9.5,2.2,14.3.8,28.3-1.3,13.4,6.3,17.2,12.8,31.2 s -6,22.3-12.5,12 c 12.2,9,14.6-7.8,3.8-20.5-13.5-15.8.5-40.2-7.2-50.3-9.6-12.8-1.5-24.2-1.5-24.2 C 207.4,615.4,210.4,614.9,214.9,624.4Z" fill="param(accent_colour_1)"/>
    <path d="M 279.8,734.6 c 14.2,9.8,17.5-9,17.5-9 C 296.8,741.1,286.8,742.6,279.8,734.6Z" fill="param(accent_colour_1)"/>
  </g>
<script type="text/ecmascript" xlink:href="param.min.js"/> 
</svg>
