<?xml version="1.0"?>
<svg xmlns="http://www.w3.org/2000/svg" xmlns:xlink="http://www.w3.org/1999/xlink" viewBox="0 0 600 1032.4">
  <title>HS012</title>
  <g id="main-colour">
    <g id="main-colour-2" data-name="main-colour">
      <path d="M 161.38,592.13 c -.86,8.47-12.68,22-12.76,30-.11,12.16,8.79,12.72,9.92,24.55.62,6.18-7.4,19.22-8.27,27.69-.8,8.08.94,17.73,9.12,21.2,7.92,3.36,24.15-.18,28.85,2.1 s 8.88,17.14,15.39,20.72,14.19,1.18,20.16,3.77 c 5.68,2.44,8.86,14.1,20.71,16 s 19.62-5.44,25.21-5.54,9.82,8.17,16.65,9.79,11.39-7.78,19-8.06 c 5-.2,6.68,5.64,19,7.64 s 16.64-9,22.49-7.5,12.3,11.61,23.13,7.29,6.19-13.18,8.47-17.88,14.44-4.75,16.95-14-1.6-17-.48-23.91,12.54-13.55,16.56-24.6 c 3-8.26-4.36-18.72-.66-25.27,6.66-11.79,18.77-10.05,21.44-25.22,1.06-6-6-12-5.5-19 s 10.5-10.5,11.5-20-9-16.5-9-24,11.7-9.1,15-17.5 c 3.5-9-3-18.5-2-25.5 s 8-9,10-16.5 c 1.8-6.8-3.5-15.5-2.5-20.5 s 7.1-13.2,5.5-20.5 c -2-9-12-12.5-14-18 s 3-13.5-1-21-14-6.5-19.5-11.5-5-13-14-17-15.5,0-23.5-3.5-5.5-9.5-19-11-16,5.5-24,7-15-6-24.5-2-16,19-16,19 a 28.76,28.76,0,0,0-18.5-17.5 c -7-2-10.5,3.5-18.7,1.5 s -10.8-8.5-19.8-7.5-13,12-20.5,14.5-36-3-43.55,6-1,18.5-5.5,25-12,6-17,16 c -4.5,9.1,4,19,2,28-1.6,7.3-9.77,14.68-8.77,23.68 S 159.7,493,162.2,503 s -12.9,14.75-12.9,23.25,8.35,12.25,8.85,22.75 c .4,9-6.61,9.27-8.07,18.89 S 162.24,583.66,161.38,592.13Z m 65-74.73 c 11-13.8,9.7-32.2,12.9-38.6,3.5-7,9-2.8,16.3-8.5,6.9-5.4,4-11,11.2-15,5.9-3.3,11.4,1,17,1,4.2,0,11-1.3,16-9.5,5.7,9.5,11.5,10.2,18,11.8 s 20.8-6.9,23.5,5.8 a 23.76,23.76,0,0,0,16.8,17.8 c 8.1,2.1,4.2,10.5,4.7,20,.3,6.4,6.9,13.2,11.2,17 a 73.84,73.84,0,0,1-147.6-1.8Z" fill="param(main_colour)"/>
    </g>
  </g>
  <g id="accent-colour-1">
    <path d="M 328.76,385.31 c 7,6,20,1,28-2.5 s 8.5,4.5,16.5,9,15,.5,21.5,3.5,9.5,18.5,21,20,3,20.5,15,30.5-5,15-.5,24-3,17.5-8.5,26.5,8.5,23-.5,30.5-11.5,18.5-9,24-2.82,32.66-9.36,39.27-12.4,15.34-9.4,22.36,2.19,12.46-1.94,16.39-8.35,11.9-6.26,18.28,2.51,17.06-4.6,24.09-4.63,17.51-1.78,25.52-1.2,11.45-6.74,14.67-2.23,18.37-7.4,19.12 c -5.36.72-1.74-7.34-1.57-11.86-15.07,10.9-2,24.68,5.56,20.34,5.31-3.05,5-11.18,6.46-17.54 s 8.94-5.74,12.94-12.23-4.2-19.33-3.31-25.26,5.48-6.26,8.86-15.36,1.59-17.46,1.14-24.6,6.62-7.1,10.07-16.7-1.89-14.44-1-20.37,9-9.28,12.62-16.82,5.22-37.78,6.22-45.28,8-10,12.5-18-.5-21-.5-26,5-6.5,8.5-13.5-2.5-15.5-2-21.5,6.5-8,5.5-17-12-12.5-13-20,2-10.5-1.5-17-11.5-5-18-10-4.5-10.5-11-14.5-16-3.5-23.5-4.5-8-9-16.5-11.5-15,5.5-25,7-13-7-21.5-4-14.5,18.5-14.5,18.5 C 309.76,384.31,321.76,379.31,328.76,385.31Z" fill="param(accent_colour_1)"/>
    <path d="M 327.76,440.31 c 11.5-5,19.5.5,22.5,7 s 4.5,18.5,16.5,20.5,11.5,21,8.5,30,2.5,15.5,9,15.5 c -9.5,8.5-18.5-6-15.5-16 s -1-21-6.5-22-13-7-17.5-19-11.5-6.5-25.5-6-15.5-15.5-15.5-15.5 C 306.26,442.81,316.26,445.31,327.76,440.31Z" fill="param(accent_colour_1)"/>
    <path d="M 322.76,402.81 c 3.5,4.5,15,10,22,5.5 s 12.5-4,17,3.5,6.5,21.5,23,20.5,9.4,18.2,8.5,28 c -1,10.8,8.5,20,4,25.5 s -9,10-4.5,23-7.5,32-4.5,38.5-1.92,31.71-13.85,40.54-11.43,19-8.73,28,1.69,12.38-8.28,25.05-8.19,21-4.24,35.26-6.85,22.23-12.41,29-7.07,23.72,4.57,27 c -9.65-6.49,1.71-25,11.74-34.65 s 8.31-18.48,4.7-28.12-1.8-18.47,6.8-25.27,10.59-20.16,7.32-28.74-2.53-13.52,7.27-21.66,22.62-35.4,16.62-46.4,5.5-18.5,6-26.5-10-16-.5-26.5,6.2-20,1.2-26.5-2.2-17-.2-29-8.5-19.5-18-18.5-15-3.5-18-14 a 14.28,14.28,0,0,0-.8-2.2,15,15,0,0,0-19.7-7.8 c -7,3-15.5,5.5-24.5-1.5 s -21.5,4.5-21.5,4.5 C 310.26,395.81,319.26,398.31,322.76,402.81Z" fill="param(accent_colour_1)"/>
    <path d="M 330.26,428.81 c 7-4.5,14.7-5.1,18.5,4 s 13.2,16.5,23,15.5 c 9.6-1,13.5,9,3.5,12.8,16.8-.5,8-20.2-2-19.8 s -13-6.5-20-17-19-8-27-4-19-7-19-7 C 308.26,425.81,323.26,433.31,330.26,428.81Z" fill="param(accent_colour_1)"/>
    <path d="M 334.7,606.7 c 2.48,10.48,6.32,18.64-3.41,26.28 s -15,22.54-8.15,37.71-1,17-7.52,26.68-9.51,29.92,8.91,35.2 c -10.51-4.09-8.26-26-.38-31.4 s 15.78-14.33,12.59-23.4-11.15-26.94-.13-36.42,14.67-17,8.62-34.1,20.66-36.86,20.66-36.86 C 336.12,583.66,332.22,596.22,334.7,606.7Z" fill="param(accent_colour_1)"/>
    <path d="M 303.79,620.8 c -7.61,7-17.58,19.62-12.56,30 s 6.47,17.65-2.5,26.93-3.29,18.72,1.88,28.08.61,16.27-7.52,16.57 S 276,712.2,280.51,705.8 c -17,5.55-12.78,31.46,4.72,26 s 16-22.88,12.06-30.05-5.35-15,.48-20.15,13.51-12.65,6.45-26.34,2-23.46,11-36.28-1.41-24.47-1.41-24.47 C 318.06,599.67,311.4,613.84,303.79,620.8Z" fill="param(accent_colour_1)"/>
    <path d="M 272.26,440.31 c -9-2-17.5.5-19.5,6.5 s -.5,10-15.5,13-14,18-13,25.5.5,18.5-4.5,23 c 7,1.5,11.5-13.5,10.5-23 s 4.5-17.5,10.5-18.5,12.5.5,16-11.5,18-7.5,28.5-7,12-14,12-14 C 290.76,444.81,281.26,442.31,272.26,440.31Z" fill="param(accent_colour_1)"/>
    <path d="M 267.56,416.91 c -8.3-1.8-16.8.8-20.8,7.3 s -4.5,14.5-15,19.5-12.3,10.8-12.3,10.8,6-4.2,17-5.7,9.3-8.2,16.8-18.2,19.5-.5,32.5-1.5,15-15.5,15-15.5 C 295.26,422.81,276.06,418.81,267.56,416.91Z" fill="param(accent_colour_1)"/>
    <path d="M 177.14,691.21 c -11.77-3.93-20.44-5-17.29-21.33,2.37-12.27,9.79-24.34,10.27-30.32 s -9-13.26-9.82-21.35,7.88-16.92,9.1-25.85-7.13-11.11-8.45-19.74,8.3-15.89,8-24.44 S 157,533.87,156.47,527.81 s 11.29-15.92,11.06-22.42 c -.47-13.26-9.05-20.75-10.32-29.88 s 6.8-16,7.4-23.48-4.8-8.91-1.93-19.72,10.39-10.7,16-18.28,0-16.24,7-23.24,27.06,1,38.06-4,8.5-9.5,17-12.5,11,4.5,18.5,5,10.5-2.5,20-2,17.5,15.5,17.5,15.5-11-16-27-5.5-20.5-10.5-35,4-39.38,1.31-40.08,11.91 c -.8,12.3-11.14,19.15-19.46,29.09-7.61,9.09,4.64,23.45-1.78,28.45 s -4.33,23.7,1.63,30.7-1.29,24.56-6.23,31.45,8,6.3,10.38,20-7.72,18.39-8.36,26.36,9.82,7.41,9.74,20.94-8.44,11.36-9,24.86,6.89,14.1,8,25.72-12,25.18-11.24,34.28 S 177.14,691.21,177.14,691.21Z" fill="param(accent_colour_1)"/>
    <path d="M 251.26,396.81 c -10,3-20,17-24,22 s -13.5,8-20.5,17,2,27.5,1.5,34.5-8,19.5-8,28.5,4.23,16.83,3,23.88 c -1.83,10.38-6.78,14.09-6.77,24.2 s 8.11,16.88,8.48,24.51-3.5,13.43-4,23.46,5.21,15.94,5.86,25.14-8.91,12.32-9.49,26.39,7.88,18.36,10,24.74-4.28,18.57-5.46,26.48,9,14.48,14.13,13.73 a 12.68,12.68,0,0,0,11.11-13.51 c -.23-8.63-8.84-11.93-8.84-11.93 s 4.16,2.64,3.12,9.56-9.59,6.66-11.82,1.27,6.9-19.19,7.86-25.62-11.53-10.82-11.25-22.91,8.44-15.93,10.48-26.24-6-17.08-6.7-26.27,7.72-14.52,9.2-24.41-6.95-14.59-8.39-21.88,5.17-14.14,4.17-23.64-3.68-16.46-5.68-27,6.5-16,8-24.5-4.5-18-1-30.5 c 2.9-10.4,17.1-13.5,23-25.5,7.7-15.5,20-14.5,35-10.5 s 23-4.5,23-4.5 C 287.26,408.81,261.26,393.81,251.26,396.81Z" fill="param(accent_colour_1)"/>
    <path d="M 240,591.69 c -3.71,5.21-6.49,9.65.29,21.78 s 2.25,25.61-7.76,31.7-6.95,26.26-6.95,26.26-11.39-21.92-.82-28.43,12.22-20.93,5.06-30.59-4.62-19.9,2.15-28,1.1-17.53,1.1-17.53 C 242.21,573.32,243.82,586.2,240,591.69Z" fill="param(accent_colour_1)"/>
    <path d="M 273,613.68 c -1.55,10.39,7.44,21.33-4.86,32.64 s -6.39,25.23-4.1,34.27 c 2.56,10-7.18,17.63-13.8,24.74 s -5.6,15.85,8,19.89 c -13.88-8.64,2.23-20.39,8.58-25 s 11.55-16.48,7.84-22.09-7.11-16.73,2.5-26.93,10.31-21.72,5.43-33.06,11.94-22.49,11.94-22.49 C 282.58,596.91,274.22,605.47,273,613.68Z" fill="param(accent_colour_1)"/>
    <path d="M 252.06,615.11 c -5.78,8.24.91,24.4-5.41,29.52 s -9.65,17.27-6.33,28.88-.38,16.12-4.67,24.58-7.4,19.12.71,22.35 c -7-7.61,11.18-24.12,13.64-33.86 s -6.85-25.29,1.33-32.66,8.88-18.9,7.74-28.17,5.45-12.84,6.78-21.74-6.4-18.14-6.4-18.14 C 264.31,600.76,257.84,606.87,252.06,615.11Z" fill="param(accent_colour_1)"/>
    <path d="M 209.7,412.13 S 184,422.82,189.14,439.47 s 6.58,26-.43,28.36 c 3.76-7-1.48-17.52-4.38-24.13 S 182.36,417.46,209.7,412.13Z" fill="param(accent_colour_1)"/>
  </g>
  <g id="accent-colour-2">
    <g id="accent-colour-1-2" data-name="accent-colour-1">
      <path d="M 330.26,390 c 7,4,14.8.5,23.5-2.5,8.4-2.9,16.5,6.2,19.5,11.8 s 17.8,15.9,21.2,8 c 3.2-7.5-12.8-9-12.8-9 s 19.9-3,15.5,10.5 c -3,9.2-18.6,3.1-25.2-7.8-7.5-12.2-16.2-12.8-22.8-9.8-6.2,2.9-15.5,4.2-21.5-.8 s -15,.2-15,.2 C 320.26,384.81,323.26,386,330.26,390Z" fill="param(accent_colour_2)"/>
      <path d="M 418,437.51 c -2,6-6.8,8.8,2.2,22.2 s 5.5,23.5-1.5,31 c -8.2,8.8-9,19.5-4,31.5-10-10-5.5-25,3.8-35.5,8.9-10.1,1.5-23.5-2.5-29 s -5.5-10.5-2.2-19 c 4.5-11.8-8.8-20-8.8-20 C 414.46,419.31,420,431.51,418,437.51Z" fill="param(accent_colour_2)"/>
      <path d="M 382.9,611.68 c 4.81,15.36.41,23.31-6.19,29.72-8,7.72-12.81,16.31-8.85,29.22-7.58-13.75,0-23.76,7.55-30.73 A 23.41,23.41,0,0,0,381.25,614 c -3.36-8.08.34-15.27,10.53-25.4,19.4-22.08,13.13-45,13.13-45 C 415.22,585.46,378.08,596.31,382.9,611.68Z" fill="param(accent_colour_2)"/>
      <path d="M 358.79,704.76 c -9.22,9.05-14.35,21.94-6.08,24.17-6.84-5,.39-15,10.66-26.43,9.66-10.71,5.54-26,5.54-26 A 36.05,36.05,0,0,1,358.79,704.76Z" fill="param(accent_colour_2)"/>
      <path d="M 373.78,548.4 c .91,6.2,4.31,19-9.38,29.63-15.52,12.07-11.28,23.1-7.79,33.72 s .28,13.18-8.26,26.58 c 12.73-13,13.52-19.74,9-30 s 1.82-22.68,8.21-28.31,18.69-15.32,11.57-28.7 c -6-11.3,9.8-24,9.8-24 C 374.21,533.8,373.13,543.85,373.78,548.4Z" fill="param(accent_colour_2)"/>
      <path d="M 382.46,470 c 6.5,2.5,3.5,6,0,16 s -4.5,20,5.8,25.2 c -8.8-6.5-6.5-17.8-1-30.2 s -3.8-13.2-12.8-16.5 c -8.6-3.1-13.2-10.8-13.2-10.8 C 362.76,461.31,376,467.51,382.46,470Z" fill="param(accent_colour_2)"/>
      <path d="M 374,437.51 c -6.9-1.1-13.8-5.8-17.2-18.5-2.6-9.6-15.7-5.1-24.2-2.8-7.2,2-14.2-6.3-16.2-8.2-3.5-3.2-11-1.5-11-1.5 s 7.4-6.2,13.8,1 c 7.8,8.8,13.2,7,25,3.8,8.9-2.5,14.2,3.8,16.8,12.2 s 12,11.8,22,12.8,7,17.2,7,17.2 C 388.76,440.51,385.46,439.31,374,437.51Z" fill="param(accent_colour_2)"/>
      <path d="M 343.67,677 c 2.79,8.5-2.64,9.72-10.89,21.14 s -10.21,29.53-1.74,33.81 c -7.87-11.77-2.77-27.19,10.94-41.35,7.74-8,4.35-11,1.62-19.27-4.66-14.33.85-22.92.85-22.92 C 337.16,653.26,340.88,668.46,343.67,677Z" fill="param(accent_colour_2)"/>
      <path d="M 322.09,624.46 c -7.32,8.53-12,16.23-9.29,30.17,3,15.4,5.55,19.31.57,25.66 s -10.93,7-7.24,19.66 S 305.48,723.6,298,726 c 4.89-2.31,9.44-16.1,6.29-25.56 s -.44-14.21,6-19.84,3.84-12.37.92-23.42-3.85-18.46,9.15-34.74,3.92-30,3.92-30 C 332.65,600.75,329.41,615.93,322.09,624.46Z" fill="param(accent_colour_2)"/>
      <path d="M 291.88,612 c 3,6.21,1.64,10.15-2,18.21 a 17.72,17.72,0,0,0,3.51-20.41 c -3.08-6.52,10.29-15,10.29-15 C 293.35,598.6,289.39,606.91,291.88,612Z" fill="param(accent_colour_2)"/>
      <path d="M 280.1,671.45 c 5.56,15.78-2.71,26.69-13.26,29.69,12.88-6.49,15-19.33,11.24-30.39-3.38-10,6.09-22.15,6.09-22.15 S 275.86,659.71,280.1,671.45Z" fill="param(accent_colour_2)"/>
      <path d="M 265.65,617.87 c 1,6.72,7.55,18.09-.59,26-9.44,9.22-10.71,14.39-8.21,28.31 s -.61,17.9-5,23.72 S 237.35,712,242,721.73 c -11.83-12.35,18.79-28.06,12.94-48.13-2.69-9.19-2.45-20.47,3.73-26.74,10.72-11.06,7.81-17.35,6.17-21.33-2.59-6.45-3-10.55,2.34-19.37 a 16,16,0,0,0-.07-16.69 C 278.92,598.4,264.61,611.15,265.65,617.87Z" fill="param(accent_colour_2)"/>
      <path d="M 229.53,556.26 c 6,11-4.91,23-8.89,29.52 s 2,12.43,6.68,28.78-5.27,15.19-10.24,21.54-2.2,18.38,2.36,23.8 c -7.9-4.7-9.76-23-3-27.73,9.9-6.83,10.78-10,7.81-20.08 s -11.06-17.6-5.69-28.63 c 3.59-7.25,16.36-16.39,6.32-30.61 C 212.34,535,221.69,532,221.69,532,215.94,542.13,223.57,545.27,229.53,556.26Z" fill="param(accent_colour_2)"/>
      <path d="M 232.38,673.13 c 2,8.68-3.6,11.11-7.28,9.89-6.1-2.18-2.89-9.41-.07-11.14-3.41-.07-8.67,7.71-1.24,13.08 s 13.35-5.23,11-12.07.69-15.14.69-15.14 C 231.65,660.61,231.2,667.73,232.38,673.13Z" fill="param(accent_colour_2)"/>
      <path d="M 324.46,437.31 c -5.5,1.5-12.2,1-16.8-7,10.5,10,19,3.8,27.5,1.2 s 10,2.2,10,2.2 C 341.26,429.81,330,435.81,324.46,437.31Z" fill="param(accent_colour_2)"/>
      <path d="M 267,409.81 c -18-4-24.2,6.5-28.2,17.5 s -10,12.5-18,16.5 c 12,0,18.2-9.5,23-22.8,3.7-10.4,14.2-11.5,35.5-6.2,13.3,3.3,20-4,20-4 C 287.76,414.81,285,413.81,267,409.81Z" fill="param(accent_colour_2)"/>
      <path d="M 277,394.51 c -8-2-18.2.2-18.2.2 s 6.8-2,19.8,2,17.8-1,17.8-1 C 290.26,398.81,285,396.51,277,394.51Z" fill="param(accent_colour_2)"/>
      <path d="M 222.46,410.81 c -7,12.2-9.2,7-20.8,14.5 s -7.7,21.8-3.2,31.2 c 5,17.17-5.63,21.93-11.43,20.43-9-2.2-1.09-15.64-1.09-15.64 s -6,3.8-7,10 c -1,5.9,5.3,12.91,12.2,11.5,6.18-1.26,14.73-3.75,12.62-18-.81-5.43-7-14.2-6.2-27.2.9-14.6,19-10.2,26.3-23.8,8.2-15.2,26.5-21.2,26.5-21.2 C 240.46,394.31,229.36,398.71,222.46,410.81Z" fill="param(accent_colour_2)"/>
      <path d="M 249.26,443.81 c -4.4,9.5-11.5,6.5-20,10 s -10.5,10.5-8,23 c -.5-15.5,4.8-20.8,15.8-22.2 s 13.5-7.6,17-14.2 c 2-3.8,8.5-8.5,22-5.2,10.6,2.5,16.2-1.5,16.2-1.5 C 267.76,435.81,259,422.81,249.26,443.81Z" fill="param(accent_colour_2)"/>
      <path d="M 195.56,604.6 c 2.42,10.23-5.15,14.83-5.67,26.42 s 1.2,15.85,4.64,30.9 S 184,682.48,179.81,671 c 10.06,11.34,15.22-9.6,7.31-24.28-9.91-18.27,9.55-34.2,4.12-45.68-6.72-14.52,3.58-24,3.58-24 C 188.17,590.52,193.14,594.37,195.56,604.6Z" fill="param(accent_colour_2)"/>
      <path d="M 245.33,727.08 C 258,738.84,264,720.72,264,720.72,261.2,736,251.09,736,245.33,727.08Z" fill="param(accent_colour_2)"/>
    </g>
    <path d="M 427.64,562.08 s 6.45,13.32-3.24,24.14,8.34,21.78-4.32,34.1 S 403.45,639.73,406.39,648 s .52,14.31-6.79,23.17-9.81,17.23-7.6,22 c -4.77-5.58-2.3-11.91,4.15-21.61 S 407,656.77,404,650.49 s -1.25-17.32,8.47-26.43 c 10.95-10.25,10.75-15.87,7.53-22.54 s -.49-14.47,3.06-19.26 S 429.84,572.63,427.64,562.08Z" fill="param(accent_colour_2)"/>
    <path d="M 193.93,490.07 s -16.1,16.45-9.32,29.83,4,26.1-.46,31.4-5.47,22.39,7.59,23.17 c -8-6.49-9.33-13.32-5.07-20.19 S 195.32,534,191,524.08,183.91,506.58,193.93,490.07Z" fill="param(accent_colour_2)"/>
  </g>
<script type="text/ecmascript" xlink:href="param.min.js"/> 
</svg>
