<?xml version="1.0"?>
<svg xmlns="http://www.w3.org/2000/svg" xmlns:xlink="http://www.w3.org/1999/xlink" viewBox="0 0 600 1032.36">
  <title>HS011</title>
  <g id="main-colour">
    <path d="M 142.24,527.86 c .46,8.7,12.17,12.5,5.83,25.17,3.67,2.2,9-.5,16.67,4.33,9.59,6,17,10.5,26,3.5 s 15-2.5,24,5,20.5,7,27,0 c .58-.63,1.19-1.25,1.81-1.85 A 73.54,73.54,0,0,1,226,519.32 c 4.33-3.81,10.92-10.6,11.25-17,.5-9.5-3.42-17.9,4.67-20 a 23.79,23.79,0,0,0,16.83-17.83 c 2.74-12.71,17-4.17,23.5-5.83 s 12.33-2.33,18-11.83 c 5,8.17,11.83,9.5,16,9.5,5.59,0,11.14-4.27,17-1,7.17,4,4.25,9.65,11.17,15,7.33,5.67,12.83,1.5,16.33,8.5,3.18,6.37,1.82,24.74,12.85,38.55 a 73.5,73.5,0,0,1-15.94,44.54 l 1.09.91 c 7.5,6.5,17,9.5,23.5,3 s 12.5-11,20.5-5,18-2,21-7.5,15.73-16.6,23.67-9 c 2.39-6-1-14-3.33-16.67-5.5-6.5-1.33-13.67-1.83-23.33-.53-10.29-12.18-14.35-9.5-23,5.5-17.75-7-19.17-7.75-26.25-1-9.17,8.78-16.69,4.25-25.75-5-10-12.5-9.5-17-16 s 2-16-5.5-25-21.5-5.5-29-8-11.5-13.5-20.5-14.5-11.67,5.5-19.83,7.5-11.67-3.5-18.67-1.5 a 28.85,28.85,0,0,0-18.5,17.5 s -6.5-15-16-19-16.5,3.5-24.5,2-10.5-8.5-24-7-11,7.5-19,11-14.5-.5-23.5,3.5-8.5,12-14,17-15.5,4-19.5,11.5,1,15.5-1,21-12,9-14,18 c -1.63,7.34,4.5,15.5,5.5,20.5 s -7,13.44-7.5,20.5 c -.5,7.5,8.5,11,9.5,18 S 141.74,518.36,142.24,527.86Z" fill="param(main_colour)"/>
  </g>
  <g id="accent-colour-1">
    <path d="M 170.49,554.86 c -11.5-5.5-21.75-17.65-21.75-26.83,0-8.67,10.31-11.85,10-22-.15-5-5.33-10-7.33-17-2.15-7.53,7.33-17.17,6.83-23.17 s -6.5-8-5.5-17,12-12.5,13-20-2-10.5,1.5-17,11.5-5,18-10,4.5-10.5,11-14.5,16-3.5,23.5-4.5,8-9,16.5-11.5,15,5.5,25,7,13-7,21.5-4,14.5,18.5,14.5,18.5 c -7.5-8.5-19.5-13.5-26.5-7.5 s -20,1-28-2.5-8.5,4.5-16.5,9-15,.5-21.5,3.5-9.5,18.5-21,20-3,20.5-15,30.5,5.37,14.32-2.33,27.17 c -2,3.33-8.77,11.17-2.67,19.67,8.75,12.17,4.5,21.92-2.25,28.17 C 148,533.37,170.49,554.86,170.49,554.86Z" fill="param(accent_colour_1)"/>
    <path d="M 295.74,434.86 s -1.5,16-15.5,15.5-21-6-25.5,6-12,18-17.5,19-9.5,12-6.5,22-6,24.5-15.5,16 c 6.5,0,12-6.5,9-15.5 s -3.5-28,8.5-30,13.5-14,16.5-20.5,11-12,22.5-7 S 293.24,442.86,295.74,434.86Z" fill="param(accent_colour_1)"/>
    <path d="M 197,521.61 c 16.25-21.5,5.5-32.75,1-38.25 s 5.75-13,6.25-22.5 c .52-9.81-8.5-30.25,8-29.25 s 21-13.75,25.5-21.25,10.5-8.25,17.5-3.75,18,.75,21.5-3.75,12.5-7,19-3.5 c 0,0-12.5-11.5-21.5-4.5 s -17.5,4.5-24.5,1.5-17.25,1.5-20.25,12-8.75,13-18.25,12-20,6.5-18,18.5,4,20-1,26.5-6.5,17.5,3,28-12.62,25.81-13.75,33.75 c -1.5,10.5,3.25,12.75,11.75,28.25 C 193.24,555.36,184.87,537.66,197,521.61Z" fill="param(accent_colour_1)"/>
    <path d="M 292.24,413.36 S 280,425.86,272,421.86 s -21.76-8-27.5,3.25-8.25,16.75-18.25,16.25-19.5,16.75-4.75,18.75 c -8.25-5-1.75-11.75,7.75-10.25 s 17.5-7.75,21.5-17 c 3.9-9,10.75-7.25,18.5-4 S 291.24,425.86,292.24,413.36Z" fill="param(accent_colour_1)"/>
    <path d="M 302.24,434.36 s 1.5,14.5,12,14,25-5,28.5,7,10,10.5,16,11.5,11.5,9,10.5,18.5,3.5,24.5,10.5,23 c -5-4.5-5.5-15.5-4.5-23 s 2-22.5-13-25.5-13.5-7-15.5-13-10.5-8.5-19.5-6.5 S 308.74,444.86,302.24,434.36Z" fill="param(accent_colour_1)"/>
    <path d="M 298.74,413.86 s 2,14.5,15,15.5,25-8.5,32.5,1.5,6,17.5,17,19,13,6.5,13,6.5,2-7.5-8.5-12.5-11-13-15-19.5-13.5-9.5-21.5-6 S 304.24,422.86,298.74,413.86Z" fill="param(accent_colour_1)"/>
    <path d="M 440.08,538.36 s -6.64-12.26-6.33-18.33 c .33-6.67,4.23-12.36,1.67-18.33-3-7-14.42-8.58-9.17-23.08,3.14-8.67-8.25-15-8.25-22.5 s 6.5-13,5.25-20.25 c -1.9-11-10.5-11.5-15.5-19.5 s .5-16.5-6.5-23.5-14.5,1-25.5-4-8.5-11.5-17-14.5-11.25,6.75-18.75,7.25-10.25-4.75-19.75-4.25-17.5,15.5-17.5,15.5,11-16,27-5.5,20.5-10.5,35,4,30.73,2.25,29.25,12.75 c -2.25,16,11.5,20.25,17,30.75 s -6.25,24.75-.25,30.25,5.56,9.57,4,18.75 c -1.5,5.67.33,11.5,8.33,17.17 s .49,13.77,1.67,19.67 C 428.08,537.36,440.08,538.36,440.08,538.36Z" fill="param(accent_colour_1)"/>
    <path d="M 398.24,553.36 c 26,5,15-16.5,4.25-25.5-5.49-4.6,3.25-19.5,3.25-28.5 s -14-22-14.5-29,8.5-25.5,1.5-34.5-16.5-12-20.5-17-10-16.75-24-20.75 c -13.41-3.83-36,10.75-46,5.25,0,0,8,8.5,23,4.5 s 27.5-5,37.5,13.5 c 6.54,12.1,20.75,12.25,23.25,22.75 s -4.15,21.64-2,30 c 3.17,12.33,14.75,18.42,12.75,28.92 s -6,12.33-5,22.83 c .47,5.18,13.18,11.93,16.25,18.25 C 411.43,551.21,398.24,553.36,398.24,553.36Z" fill="param(accent_colour_1)"/>
    <path d="M 219.66,520.2 s -8.75,10.75-2,20,10.5,12.25,8,18.75-8.5.5-5.25-5.25 c -5,3.25-1.75,11.25,4.75,12.75 s 11.5-12,4.75-19.25 S 215.16,534.95,219.66,520.2Z" fill="param(accent_colour_1)"/>
    <path d="M 376.49,513.11 s 4.48,10.67,1,26.5 c -3,13.67-6.75,17.75-2.5,19.75 s 8.75-6.5,5.5-9.5 c 4.25,1.25,5.75,7.75,1.75,12 s -16.37,2.85-14.5-6.83 C 369.74,544.7,380.33,534,376.49,513.11Z" fill="param(accent_colour_1)"/>
    <path d="M 286.74,390.86 s -6-4.5-13,1.5 c -5.93,5.08-17.33,3.35-23.5.5-6.5-3-17-3.5-23,8.5-5.71,11.43-21.5,15.75-23.5,7.25-3.24-13.77,14-10.25,14-10.25 S 201,399.61,207,408.86 c 3.08,4.75,14.43-1.54,17.5-7,5.75-10.25,13.25-15.5,21.75-13 s 18.75,6,23.75,3 C 276.91,387.72,279.24,384.86,286.74,390.86Z" fill="param(accent_colour_1)"/>
    <path d="M 196.49,418.36 s -14.5,7-10.5,19-.5,21.75-4.5,27.25-7,12.75.25,28 c 6.48,13.64-9.38,24.38-10,38.5-.45,10.15,12.93,24.07,8.75,28.25,2.44-5.86-10.65-16.46-11.75-27.75-1.15-11.82,14.5-20.75,11.75-33.5-2.16-10-10.25-21.5-1.25-35 s 5.5-20,4-27.25 C 182,429.67,187,418.86,196.49,418.36Z" fill="param(accent_colour_1)"/>
    <path d="M 247.08,446.36 s -7.92,13.33-19.58,15 c -16.85,2.41-18.5,13.75-14.5,21.75,6.11,12.21,4.75,21.75-1.75,28.25,10.5-5,9.25-16,4.5-26.75-4.28-9.69-1.25-17.25,5.5-19.25 C 228.34,463.26,244.08,461,247.08,446.36Z" fill="param(accent_colour_1)"/>
    <path d="M 209.74,449.36 s -1.75-12,8.25-13,17.5-5.5,20-14,8.41-13.28,17.25-10.75,15.5,5,22.25-2,12.25-2.25,12.25-2.25-7.5.5-9.5,2.5-7,8.25-15.5,5.75-20.71-5.13-23.25,4.5-8.5,16-16.5,17.25 C 217.58,438.52,210.24,439.86,209.74,449.36Z" fill="param(accent_colour_1)"/>
    <path d="M 254.24,433.86 s 2.5-4.75,11-2.25,18.25,8,26.5-1.25 c -4.5,8-12,7.5-17.5,6 S 258.24,429.86,254.24,433.86Z" fill="param(accent_colour_1)"/>
    <path d="M 300.24,410.86 s 5.37,6.42,19,4.75 c 14.25-1.75,29.5-6,35,5.75,4.65,9.93,12.5,22.5,24.5,22.5-8-4-15-6.75-19.5-17.25-4.61-10.76-7-19.25-25-15.25 S 306.24,415.86,300.24,410.86Z" fill="param(accent_colour_1)"/>
    <path d="M 303.24,395.86 s 5,5,18,1,19.5-2,19.5-2-8.75-2.75-16.75-.75 S 309.24,398.86,303.24,395.86Z" fill="param(accent_colour_1)"/>
    <path d="M 320.24,436.86 s 19-3.75,23.5,2.25,7.75,13.5,18.75,15,16.25,7.25,15.75,22.75 c 2.5-12.5.5-19.5-8-23 s -14.5-1.25-20-10 S 338.74,429.61,320.24,436.86Z" fill="param(accent_colour_1)"/>
    <path d="M 357.49,395.61 s 15.5,4.5,18.75,16.5,21,14.5,23.75,23.25,2.25,13-.5,22.5-3.25,14.25,1.5,20.5,11.35,17.62,8,26.75 c -4.5,12.25-1.25,20.5,5.25,25.75 s 7.25,19.5,2.25,25.5 c 6.25-6.25,8.32-18,1.5-25-8-8.25-10-14-6.75-22.5 s 2.25-16-5.75-28-6-13-3.25-25,4.75-23.5-9.5-31.5-12.5-11.25-15.5-16.25 S 370,398.11,357.49,395.61Z" fill="param(accent_colour_1)"/>
    <path d="M 381,481.86 s 11.75,10,8,24.5-5,20.77-.25,26.75 c 7.5,9.5,7,18.75,1.25,22,4.25-5.5,2.75-12.5-1.5-18-4.11-5.32-9.25-10-3-27.25 S 381,481.86,381,481.86Z" fill="param(accent_colour_1)"/>
    <path d="M 207.74,509.36 s 1.75,7.75-2.5,14.25-11.75,19,2.25,31.25 c -5.5-7.75-7.75-16.25-4.25-23.25 S 212.24,516.36,207.74,509.36Z" fill="param(accent_colour_1)"/>
  </g>
<script type="text/ecmascript" xlink:href="param.min.js"/> 
</svg>
