<?xml version="1.0"?>
<svg xmlns="http://www.w3.org/2000/svg" xmlns:xlink="http://www.w3.org/1999/xlink" viewBox="0 0 600 1032.36">
  <title>HS013</title>
  <g id="main-colour">
    <path d="M 444.74,491.36 c 7-42,3.11-113.71-47.33-137.33-57.67-27-92.67,11.33-99.67,28.33,0,0-30.33-61.33-102.67-26 C 136.4,385,128.74,482,170.74,547 s 67,109.33,57,126.33-31,16-35,0 c -2,14,3,22,11,25-3,5-11.48,4.9-11.48,4.9 s 15.15,14.76,35.82,2.43 c 2.33,8.33-7.33,16.67-7.33,16.67 s 18.67,3.33,27.33-13.33 c 3.67,8.33-1.33,17.33-1.33,17.33 a 23.16,23.16,0,0,0,14.5-13.5,14.08,14.08,0,0,1,0,11 s 7.17-3.17,9.83-9.83 c 2.17,10.33-4.83,17.83-4.83,17.83 s 16.5-5,19.5-17.5 c 1.5,6-1.5,12.5-1.5,12.5 s 5.5-5,6.5-9 c 1.5,4.5-2.5,14.5-2.5,14.5 s 14-7.5,15-17.5 c 2.5,10,10,17.5,15,20-6-8-.5-18-.5-18 s 2,7.5,7,9.5 c -.5-3,1-9,1-9 s 1.5,10,14,15 c -5-7,0-17,2-20,.5,7.5,11.5,13,11.5,13 a 28.25,28.25,0,0,1-.5-13 c 2.5,4.5,8.5,5.5,8.5,5.5 s -3-4.5-1.5-7.5 c 3.5,5.5,17,10,23,10-10-5-8.5-19-8.5-19 a 30.31,30.31,0,0,0,17.5,11.5 c -6-4-7.5-15-7.5-15 s 8.5,7.5,21,2.5 c -6-1.5-10.5-9.5-10.5-9.5 s 17,6.5,24.5-14.5 c -6,5.5-27.5,8-36-7.5 s -2-40.5,9.5-64.5 S 437.74,533.36,444.74,491.36Z M 373,525.9 a 73.84,73.84,0,0,1-146.82-4.08 c .9-10.15,3.78-28.11,13.1-38.46 a 82.63,82.63,0,0,1,10-3.93 c 1.92-3.93,4.9-9.5,7.87-13.07 a 93.78,93.78,0,0,0-4,11.88 c 1-.28,2-.55,3-.82.6-1.41,2.06-4.6,3.21-5.57 a 24.22,24.22,0,0,0-.92,5 c 3.59-.87,7.39-1.64,11.34-2.29 a 53.71,53.71,0,0,1,5.42-11.87 c -1.21,3.23-1.69,8-1.87,11.32 a 181.86,181.86,0,0,1,20.43-1.72 c .43-2,1.44-6.58,2.45-9.6-.24,2.87-.14,7.28-.06,9.54 a 170.27,170.27,0,0,1,27.1,1.71,24.43,24.43,0,0,0-1.21-6.42,47.84,47.84,0,0,1,3.84,6.81 l .35.06 a 28.48,28.48,0,0,0-1.36-8.71,36.39,36.39,0,0,1,4.45,9.26,123.35,123.35,0,0,1,19.75,5.4 A 57,57,0,0,0,346.41,469 a 55.06,55.06,0,0,1,5.89,12.64,93.35,93.35,0,0,1,8.94,4.19 C 371.1,496.61,373.32,516.19,373,525.9Z" fill="param(main_colour)"/>
  </g>
  <g id="accent-colour-1">
    <path d="M 295.41,417 s -41.67,3-54,58.67 C 251.08,453.36,268.08,430,295.41,417Z" fill="param(accent_colour_1)"/>
    <path d="M 264.08,472.7 s .92-31.33,33.42-54.83 C 285.49,430.53,273.08,449.7,264.08,472.7Z" fill="param(accent_colour_1)"/>
    <path d="M 297.74,424 s -14,18-8,46 C 290.41,455,294.08,434,297.74,424Z" fill="param(accent_colour_1)"/>
    <path d="M 301.74,418.36 s 9.67,23.67,7.67,51 C 316.08,450.7,311.74,430.7,301.74,418.36Z" fill="param(accent_colour_1)"/>
    <path d="M 307.41,416.36 s 29.33,19,28.33,56.67 C 340.74,455.7,336.74,429.7,307.41,416.36Z" fill="param(accent_colour_1)"/>
    <path d="M 357.74,479.7 s -1.67-44.33-40.33-61.33 C 351.08,424.36,359.74,456,357.74,479.7Z" fill="param(accent_colour_1)"/>
    <path d="M 294.74,386.36 S 257.58,348.53,212.08,363 s -62.83,66.33-59.83,105.33,19.82,65.24,35.17,89.67 c 16.33,26,44.3,72,48.33,95.83,5.67,33.5-14.5,45-37.5,32,10.5,10.5,27.5,16.17,39.5,4.17 s 6.5-40.67-2.5-60.17-43-78-54.5-99.5 S 155.74,467,169.08,426 c 12.87-39.57,36-57,73-57.67 C 267.15,367.91,286.74,380.86,294.74,386.36Z" fill="param(accent_colour_1)"/>
    <path d="M 294.74,393.86 s -48.5-29-82-3.5-38,66.5-31.5,100,29.5,70,48,100.5,46.83,85.83,10.17,121.5 c 19.33-13,32.83-32,19.83-76.5 S 225.08,570.53,208.08,537 s -22.33-62.33-11.33-97.33 S 234.74,375.36,294.74,393.86Z" fill="param(accent_colour_1)"/>
    <path d="M 294.74,401.36 s -54.5-17-78.5,31-2.5,87,6,108 c -9.5-31.5-17-67.5,4-104 S 275.24,400.86,294.74,401.36Z" fill="param(accent_colour_1)"/>
    <path d="M 294.24,408.86 s -63-5-72,82.5 C 229.74,463.86,248.74,419.36,294.24,408.86Z" fill="param(accent_colour_1)"/>
    <path d="M 300.24,386.86 s 31-34.5,72.5-27.5,61,47.5,66,82-7.83,69.5-31.33,114-35.67,69.5-35.17,97.5,27.5,35.5,36,31 a 30.32,30.32,0,0,1-42-18.5 c -6.5-20,4-53,22-88 s 49.67-97.67,40.17-138.67-28.67-64.33-56.17-69.33 S 322.74,369.86,300.24,386.86Z" fill="param(accent_colour_1)"/>
    <path d="M 303.24,393.86 s 36.83-26.5,69.83-10.5,50.5,60.67,42,94.67-26.83,77.33-45.33,111.33-29.5,81.5,2.5,122.5 c -24.83-11.83-31-50-28-75 s 17.5-51.33,31.5-80.83,34.33-70,30.33-108 S 361.74,368.86,303.24,393.86Z" fill="param(accent_colour_1)"/>
    <path d="M 302.24,401.36 s 45.59-16,75.83,20 c 28,33.33,10.67,79.5-2.33,109,12-40,17-63.5,4.5-89 S 339.24,399.86,302.24,401.36Z" fill="param(accent_colour_1)"/>
    <path d="M 305.74,407.86 s 82-1,72.5,91.5 C 375.74,465.36,371.24,424.86,305.74,407.86Z" fill="param(accent_colour_1)"/>
    <path d="M 249.74,581.86 s 49.67,58.5,17,132.5 C 286.08,699.7,309.74,636.36,249.74,581.86Z" fill="param(accent_colour_1)"/>
    <path d="M 349.24,582.86 s -42,60-2,128 C 328.41,699,299.74,645.36,349.24,582.86Z" fill="param(accent_colour_1)"/>
    <path d="M 288.24,600.86 s 27.83,54.17,6.5,118.5 C 312.08,699.7,319.08,629,288.24,600.86Z" fill="param(accent_colour_1)"/>
  </g>
  <g id="accent-colour-2">
    <path d="M 296.08,416 s -43.33,28.58-47.58,62.33 C 255.24,458.11,270.24,437.36,296.08,416Z" fill="param(accent_colour_2)"/>
    <path d="M 278,471.61 s -4-22,17.42-51.25 C 288,433.61,280.49,453.11,278,471.61Z" fill="param(accent_colour_2)"/>
    <path d="M 299.41,422.7 S 306,445.86,301.74,469 C 309.08,450,302.74,429.36,299.41,422.7Z" fill="param(accent_colour_2)"/>
    <path d="M 305.41,417.36 s 20.83,20.25,25.08,55.75 C 333.24,454.61,318.41,426,305.41,417.36Z" fill="param(accent_colour_2)"/>
    <path d="M 316.41,419.36 s 28.08,14.25,34.33,53.67 C 350.41,450.36,337.08,428.7,316.41,419.36Z" fill="param(accent_colour_2)"/>
    <path d="M 277.08,419.7 s -45.83,27.17-51,88.67 C 229.24,472.61,236.74,445.86,277.08,419.7Z" fill="param(accent_colour_2)"/>
    <path d="M 314.08,414.7 s 54.92,4.92,59,91.33 C 378.49,467.36,352,416.86,314.08,414.7Z" fill="param(accent_colour_2)"/>
    <path d="M 295.24,391.86 s -31-24.5-72.5-12-57.5,73.5-46,112.5,31.92,70.75,45.75,95.75 c 14.25,25.75,35.75,65.75,29.5,92-6.83,28.67-20.25,36.25-24.75,38.25,10.5-8.5,31.75-31,18.75-75.25-8.16-27.76-33.47-64.32-50-96 s -30.75-64-24.25-101.5,23.75-61.5,50.75-69 S 280.24,378.11,295.24,391.86Z" fill="param(accent_colour_2)"/>
    <path d="M 295.74,397.36 s -42.25-14.5-71.25,12-28.25,77.76-18.75,105 c 10.62,30.44,45.38,82.5,53.25,99.5,11,23.75,21,72.5-2.5,101,10.5-18.5,16-51.25,8-79.75 s -34.22-68.57-48.75-93.75-25-54.25-16-91.75 S 239.24,376.36,295.74,397.36Z" fill="param(accent_colour_2)"/>
    <path d="M 292.74,404.86 s -89.25.5-70,114.5 C 208.24,486.86,218.74,403.61,292.74,404.86Z" fill="param(accent_colour_2)"/>
    <path d="M 261.24,586.86 s 35.75,24,33.5,74.5 c -1.9,42.6-14.5,57-14.5,57 s 22-27.33,16.5-74 C 291.74,601.86,261.24,586.86,261.24,586.86Z" fill="param(accent_colour_2)"/>
    <path d="M 321.24,593.36 s -21.25,57.5,10,129 C 318,681.36,311,646.86,321.24,593.36Z" fill="param(accent_colour_2)"/>
    <path d="M 294.74,386.36 s -23.5-40.5-79-29.5-67.88,84.23-67.25,103.75 c 1,30.75,8.25,54.75,30.25,91.25-14.5-16.5-38.5-64-31-111.5 s 27.5-75.5,64.5-85 S 278.49,358.86,294.74,386.36Z" fill="param(accent_colour_2)"/>
    <path d="M 207.74,598.86 s 20.5,38,23,54.5-2,31-21.5,34.5 c 15.5-.5,29.25-14.25,22.25-39.75 S 207.74,598.86,207.74,598.86Z" fill="param(accent_colour_2)"/>
    <path d="M 300.24,405.86 s 41.25-.75,62.75,22.25,21.73,52.89,13.74,88.07 c 11.51-36.32,7.76-66.82-10.24-87.32 S 323.49,404.36,300.24,405.86Z" fill="param(accent_colour_2)"/>
    <path d="M 300.74,397.36 s 41.46-12.45,71.5,10.5 c 31.75,24.25,29,65.75,20.5,90.25 a 598.92,598.92,0,0,1-37,83.5 c -16,30-41,79.75.5,131.25-16-27.75-31.62-59.44-9.25-107,21.75-46.25,35.5-71.25,47-103.25 s 9.5-71-11.5-89.75 C 355,388.33,330.24,389.86,300.74,397.36Z" fill="param(accent_colour_2)"/>
    <path d="M 301.24,391.36 s 41.5-29.75,76-11.75,46.71,57.16,44.5,79.75 c -2.5,25.5-10.25,47.75-21.75,78.5-11.17,29.86-43.25,82.25-42.75,111.25 s 8.25,37.75,23.5,54.75 c -12.25-14.25-25.25-40.25-19.25-69.25 s 32.25-74.5,42.75-100,22-59.25,20.25-84.75 c -1.9-27.66-15.25-55-45.75-72 S 314.24,379.86,301.24,391.36Z" fill="param(accent_colour_2)"/>
    <path d="M 300.24,383.86 s 12-26.75,52-33.25 S 423.6,378,433.49,398.36 c 9.25,19,17,55,7.75,94-10.44,44-26.5,62.5-26.5,62.5 s 22-40.5,26.75-77.75 c 6.43-50.42-7.25-80.5-28.75-102.5 S 337.24,337.11,300.24,383.86Z" fill="param(accent_colour_2)"/>
    <path d="M 399.74,581.36 s -27,48.5-22,75.5,24.25,25.75,35,25 c -9.75,5-33.75.75-37-23.25 C 371.79,629.45,392.24,591.36,399.74,581.36Z" fill="param(accent_colour_2)"/>
  </g>
<script type="text/ecmascript" xlink:href="param.min.js"/> 
</svg>
