<?xml version="1.0"?>
<svg xmlns="http://www.w3.org/2000/svg" xmlns:xlink="http://www.w3.org/1999/xlink" id="Layer_1" data-name="Layer 1" viewBox="0 0 600 1032.4">
  <title>HS011</title>
  <g id="main-colour">
    <path d="M 447.7,506.3 c 1-7,10-10.5,9.5-18-.5-7.1-8.5-15.5-7.5-20.5 s 7.1-13.2,5.5-20.5 c -2-9-12-12.5-14-18 s 3-13.5-1-21-14-6.5-19.5-11.5-5-13-14-17-15.5,0-23.5-3.5-5.5-9.5-19-11-16,5.5-24,7-15-6-24.5-2-16,19-16,19 a 28.76,28.76,0,0,0-18.5-17.5 c -7-2-10.5,3.5-18.7,1.5 s -10.8-8.5-19.8-7.5-13,12-20.5,14.5-21.5-1-29,8-1,18.5-5.5,25-12,6-17,16 c -4.5,9.1,5.2,16.6,4.2,25.8-.8,7.1-13.2,8.5-7.8,26.2,2.7,8.6-9,12.7-9.5,23-.5,9.7,3.7,16.8-1.8,23.3-2.3,2.7-5.7,10.7-3.3,16.7,7.9-7.6,20.7,3.5,23.7,9 s 13,13.5,21,7.5,14-1.5,20.5,5,16,3.5,23.5-3 l 1.1-.9 a 72.86,72.86,0,0,1-15.9-44.5 c 11-13.8,9.7-32.2,12.9-38.6,3.5-7,9-2.8,16.3-8.5,6.9-5.4,4-11,11.2-15,5.9-3.3,11.4,1,17,1,4.2,0,11-1.3,16-9.5,5.7,9.5,11.5,10.2,18,11.8 s 20.8-6.9,23.5,5.8 a 23.76,23.76,0,0,0,16.8,17.8 c 8.1,2.1,4.2,10.5,4.7,20,.3,6.4,6.9,13.2,11.2,17 a 73.68,73.68,0,0,1-17.6,44.7 l 1.8,1.8 c 6.5,7,18,7.5,27,0 s 15-12,24-5,16.4,2.5,26-3.5 c 7.7-4.8,13-2.1,16.7-4.3-6.3-12.7,5.4-16.5,5.8-25.2 C 458.3,518.4,446.7,513.3,447.7,506.3Z" fill="param(main_colour)"/>
  </g>
  <g id="accent-colour-1">
    <path d="M 438.5,520.9 c -6.8-6.2-11-16-2.2-28.2,6.1-8.5-.7-16.3-2.7-19.7-7.7-12.9,9.7-17.2-2.3-27.2 s -3.5-29-15-30.5-14.5-17-21-20-13.5,1-21.5-3.5-8.5-12.5-16.5-9-21,8.5-28,2.5-19-1-26.5,7.5 c 0,0,6-15.5,14.5-18.5 s 11.5,5.5,21.5,4,16.5-9.5,25-7,9,10.5,16.5,11.5,17,.5,23.5,4.5,4.5,9.5,11,14.5,14.5,3.5,18,10,.5,9.5,1.5,17,12,11,13,20-5,11-5.5,17,9,15.6,6.8,23.2 c -2,7-7.2,12-7.3,17-.3,10.2,10,13.3,10,22,0,9.2-10.2,21.3-21.8,26.8 C 429.5,554.9,452,533.4,438.5,520.9Z" fill="param(accent_colour_1)"/>
    <path d="M 328.3,440.4 c 11.5-5,19.5.5,22.5,7 s 4.5,18.5,16.5,20.5,11.5,21,8.5,30,2.5,15.5,9,15.5 c -9.5,8.5-18.5-6-15.5-16 s -1-21-6.5-22-13-7-17.5-19-11.5-6.5-25.5-6-15.5-15.5-15.5-15.5 C 306.8,442.9,316.8,445.4,328.3,440.4Z" fill="param(accent_colour_1)"/>
    <path d="M 406.8,555.4 c 8.5-15.5,13.2-17.8,11.8-28.2-1.1-7.9-23.2-23.3-13.8-33.8 s 8-21.5,3-28-3-14.5-1-26.5-8.5-19.5-18-18.5-15.2-1.5-18.2-12-13.2-15-20.2-12-15.5,5.5-24.5-1.5-21.5,4.5-21.5,4.5 c 6.5-3.5,15.5-1,19,3.5 s 14.5,8.2,21.5,3.8,13-3.8,17.5,3.8,9,22.2,25.5,21.2,7.5,19.4,8,29.2 c .5,9.5,10.8,17,6.2,22.5 s -15.2,16.8,1,38.3 C 415.1,537.7,406.8,555.4,406.8,555.4Z" fill="param(accent_colour_1)"/>
    <path d="M 330.8,428.9 c 7.8-3.2,14.6-5,18.5,4,4,9.2,12,18.5,21.5,17 s 16,5.2,7.8,10.2 c 14.8-2,5.2-19.2-4.8-18.8 s -12.5-5-18.2-16.2-19.5-7.2-27.5-3.2-20.2-8.5-20.2-8.5 C 308.8,425.9,323,432.1,330.8,428.9Z" fill="param(accent_colour_1)"/>
    <path d="M 272.8,440.4 c -9-2-17.5.5-19.5,6.5 s -.5,10-15.5,13-14,18-13,25.5.5,18.5-4.5,23 c 7,1.5,11.5-13.5,10.5-23 s 4.5-17.5,10.5-18.5,12.5.5,16-11.5,18-7.5,28.5-7,12-14,12-14 C 291.3,444.9,281.8,442.4,272.8,440.4Z" fill="param(accent_colour_1)"/>
    <path d="M 268.8,418.4 c -8-3.5-17.5-.5-21.5,6 s -4.5,14.5-15,19.5-8.5,12.5-8.5,12.5,2-5,13-6.5,9.5-9,17-19,19.5-.5,32.5-1.5,15-15.5,15-15.5 C 295.8,422.9,276.8,421.9,268.8,418.4Z" fill="param(accent_colour_1)"/>
    <path d="M 175.2,520.7 c 1.2-5.9-6.3-14,1.7-19.7 s 9.8-11.5,8.3-17.2 c -1.6-9.2-2-13.2,4-18.8 s -5.8-19.8-.2-30.2 S 208.2,420,206,404 c -1.5-10.5,14.8,1.8,29.2-12.8 s 19,6.5,35-4,27,5.5,27,5.5-8-15-17.5-15.5-12.2,4.8-19.8,4.2-10.2-10.2-18.8-7.2-6,9.5-17,14.5-18.5-3-25.5,4-1.5,15.5-6.5,23.5-13.6,8.5-15.5,19.5 c -1.2,7.2,5.2,12.8,5.2,20.2 s -11.4,13.8-8.2,22.5 c 5.2,14.5-6.2,16.1-9.2,23.1-2.6,6,1.3,11.7,1.7,18.3.3,6.1-6.3,18.3-6.3,18.3 S 171.9,537.4,175.2,520.7Z" fill="param(accent_colour_1)"/>
    <path d="M 192,544.1 c 3.1-6.3,15.8-13.1,16.2-18.2,1-10.5-3-12.3-5-22.8 s 9.6-16.6,12.8-28.9 c 2.1-8.4-4.5-19.5-2-30 s 16.7-10.6,23.2-22.8 c 10-18.5,22.5-17.5,37.5-13.5 s 23-4.5,23-4.5 c -10,5.5-32.6-9.1-46-5.2-14,4-20,15.8-24,20.8 s -13.5,8-20.5,17,2,27.5,1.5,34.5-14.5,20-14.5,29,8.7,23.9,3.2,28.5 c -10.8,9-21.8,30.5,4.2,25.5 C 201.8,553.4,188.6,551.2,192,544.1Z" fill="param(accent_colour_1)"/>
    <path d="M 370.1,547.2 c -6.8,7.2-1.8,20.8,4.8,19.2 s 9.8-9.5,4.8-12.8 c 3.2,5.8-2.8,11.8-5.2,5.2 s 1.2-9.5,8-18.8-2-20-2-20 C 384.8,535,376.8,540,370.1,547.2Z" fill="param(accent_colour_1)"/>
    <path d="M 232.3,555 c 1.9,9.7-10.5,11.1-14.5,6.8 s -2.5-10.8,1.8-12 c -3.2,3,1.2,11.5,5.5,9.5 s .5-6.1-2.5-19.8 c -3.5-15.8,1-26.5,1-26.5 C 219.7,534,230.3,544.7,232.3,555Z" fill="param(accent_colour_1)"/>
    <path d="M 330,391.9 c 5,3,15.2-.5,23.8-3 s 16,2.8,21.8,13 c 3.1,5.5,14.4,11.8,17.5,7,6-9.2-10.7-10.5-10.7-10.5 s 17.2-3.5,14,10.2 c -2,8.5-17.8,4.2-23.5-7.2-6-12-16.5-11.5-23-8.5-6.2,2.9-17.6,4.6-23.5-.5-7-6-13-1.5-13-1.5 C 320.8,384.9,323.1,387.7,330,391.9Z" fill="param(accent_colour_1)"/>
    <path d="M 416.8,435.9 c -1.5,7.2-5,13.8,4,27.2 s .9,25-1.2,35 c -2.8,12.8,12.9,21.7,11.7,33.5-1.1,11.3-14.2,21.9-11.8,27.8-4.2-4.2,9.2-18.1,8.8-28.2-.6-14.1-16.5-24.9-10-38.5,7.2-15.2,4.2-22.5.2-28 s -8.5-15.2-4.5-27.2-10.5-19-10.5-19 C 413,418.9,418,429.7,416.8,435.9Z" fill="param(accent_colour_1)"/>
    <path d="M 378.8,465.4 c 6.8,2,9.8,9.6,5.5,19.2-4.8,10.8-6,21.8,4.5,26.8-6.5-6.5-7.9-16-1.8-28.2,4-8,2.4-19.3-14.5-21.8-11.7-1.7-19.6-15-19.6-15 C 355.9,461,371.7,463.3,378.8,465.4Z" fill="param(accent_colour_1)"/>
    <path d="M 375,437.4 c -8-1.2-14-7.6-16.5-17.2 s -14.8-7-23.2-4.5-13.5-3.8-15.5-5.8-9.5-2.5-9.5-2.5,5.5-4.8,12.2,2.2,13.4,4.5,22.2,2,14.8,2.2,17.2,10.8,10,13,20,14,8.2,13,8.2,13 C 389.8,439.9,382.4,438.5,375,437.4Z" fill="param(accent_colour_1)"/>
    <path d="M 325.8,436.4 c -5.5,1.5-13,2-17.5-6,8.2,9.2,18,3.8,26.5,1.2 s 11,2.2,11,2.2 C 341.8,429.9,331.3,434.9,325.8,436.4Z" fill="param(accent_colour_1)"/>
    <path d="M 265.8,411.4 c -18-4-20.4,4.5-25,15.2-4.5,10.5-11.5,13.2-19.5,17.2,12,0,19.9-12.6,24.5-22.5,5.5-11.8,20.8-7.5,35-5.8,13.6,1.7,19-4.8,19-4.8 C 293.8,415.9,283.8,415.4,265.8,411.4Z" fill="param(accent_colour_1)"/>
    <path d="M 276,394.1 c -8-2-16.8.8-16.8.8 s 6.5-2,19.5,2,18-1,18-1 C 290.8,398.9,284,396.1,276,394.1Z" fill="param(accent_colour_1)"/>
    <path d="M 249.8,443.9 c -5.5,8.8-11.5,6.5-20,10 s -10.5,10.5-8,23 c -.5-15.5,4.8-21.2,15.8-22.8 s 14.2-9,18.8-15,23.5-2.2,23.5-2.2 C 261.3,429.6,255.3,435.1,249.8,443.9Z" fill="param(accent_colour_1)"/>
    <path d="M 222.8,408.1 c -3,5-1.2,8.2-15.5,16.2 s -12.2,19.5-9.5,31.5,4.8,13-3.2,25-9,19.5-5.8,28,1.2,14.3-6.8,22.5 c -6.8,7-4.8,18.8,1.5,25-5-6-4.2-20.2,2.2-25.5 s 9.8-13.5,5.2-25.8 c -3.4-9.1,3.2-20.5,8-26.8 s 4.2-11,1.5-20.5-3.2-13.8-.5-22.5 S 220.4,424,223.7,412 s 18.8-16.5,18.8-16.5 C 230,398.1,225.8,403.1,222.8,408.1Z" fill="param(accent_colour_1)"/>
    <path d="M 214.5,509.9 c 6.2,17.3,1.1,21.9-3,27.3 s -5.8,12.5-1.5,18 c -5.8-3.2-6.2-12.5,1.2-22,4.8-6,3.5-12.2-.2-26.8 s 8-24.5,8-24.5 S 208.2,492.6,214.5,509.9Z" fill="param(accent_colour_1)"/>
    <path d="M 396.8,531.6 c 3.5,7,1.2,15.5-4.2,23.2,14-12.2,6.5-24.8,2.2-31.2 s -2.5-14.3-2.5-14.3 C 387.8,516.4,393.3,524.6,396.8,531.6Z" fill="param(accent_colour_1)"/>
  </g>
<script type="text/ecmascript" xlink:href="param.min.js"/> 
</svg>
