<?xml version="1.0"?>
<svg xmlns="http://www.w3.org/2000/svg" xmlns:xlink="http://www.w3.org/1999/xlink" id="Layer_1" data-name="Layer 1" viewBox="0 0 600 1032.4">
  <title>HS010</title>
  <g id="main-colour">
    <path d="M 235.8,722.3 c 1,4,.5,11.5.5,11.5 s 11.5-6,14-15.5 c 0,8,8,13.5,8,13.5 s 1-10,7-15.5 c -2,12.5,11.5,23.5,11.5,23.5 s 1.5-18.5,11.5-21 c -.5,7.5,10.5,16.5,10.5,16.5 s -.5-11,6.5-14 c 7,7,4.5,19,4.5,19 s 14-6.5,19-18.5 a 12,12,0,0,0,4,10.5,13.88,13.88,0,0,1,4.5-11.5 c 0,6,9.5,21.5,22,23.5-4-3-5-19,4.5-25,6.5,4,7.5,15.5,7.5,15.5 s 5-6,3-17 c 16.5,8.5,11,24,11,24,10.8-4.5,15-14.8,16-19.5,3.2,7-1.2,10.7-1.2,10.7,11.7.5,35.1-16.6,28.5-51.3-4.7-24.7-22-29.3-16.7-56 s 42.7-40,17.3-77.8 c -18.7-27.8-9.2-34.9,2.6-52.8,22.5-34,7.2-77.5-10.6-96.1-15.9-16.6-41.9-31-63-31-35,0-57.7,25.8-57.7,25.8 s -20.9-29.1-53.3-24.8 c -61,8-86.9,64.7-68.1,140.4 a 88.2,88.2,0,0,0,5.9,18 l 2,4.5.1.2 c 8.3,17.9,3.8,33.8-1.4,47.5-17.3,45.3,11.8,50.1,16.5,75,5,26.8-24,32-6.2,57.5,8.3,12,29.1,18.3,22,28.6 C 221.9,740.2,233.8,731.4,235.8,722.3Z m -9-198.3 c 0-12.2,2.8-29.6,16.5-44.2,17-18.2,47.3-5.8,56.8-24.2,11.5,20,39.7,4.5,57.2,22.3,14.3,14.6,15.8,38.9,15.5,51.8 a 73.85,73.85,0,0,1-146-5.7Z" fill="param(main_colour)"/>
  </g>
  <g id="accent-colour-1">
    <path d="M 407.9,419.7 c 16.7,28,19,48.3,1,77.7 s -8.9,45,2.4,57,5.1,26.7-4.7,38 c -25,28.7-10.4,58.9-6,67.3,17.3,33,4.3,50.3,3,61.7,3.3-4,22.7-27,8.3-54.7 s -15-47.3,5.3-70.7 c 13.4-15.3,14-31,4.7-42.3 s -20.7-27.3-10-44,18.3-26,19.7-50.7-18.3-68.7-61.7-76-66,16-66,16 C 339.9,377,391.3,391.7,407.9,419.7Z" fill="param(accent_colour_1)"/>
    <path d="M 334.3,456 c 14,1,33.3,4.3,37.3,27.3-6.5-18.5-23.5-20-44-21 s -24.3-13-24.3-13 C 309.3,455.4,320.3,455,334.3,456Z" fill="param(accent_colour_1)"/>
    <path d="M 380.9,423 c 21,18,17.4,45.4,3.9,78.9 s -1.6,48.6,4.5,58.8 c 6.5,10.8-1.7,23.1-6.5,31.8-22.5,40.8,8.6,65.3,13.5,91.5,3.5,18.9-3.2,41.9-6,47.5,3.2-3.8,15-26.8,12.7-51-2.4-25.4-39.3-42-10-90.3,6.9-11.4,13.8-24.2,1.8-38.7-13.3-16.1-8.4-36.8,1.8-55,12.3-22,23.8-64.8-17.7-87.3 s -74.7-2.2-74.7-2.2 C 341.3,397.9,359.9,405,380.9,423Z" fill="param(accent_colour_1)"/>
    <path d="M 375.3,451.9 c 5.2,12.9-.5,32,1.5,46,1.5-21,17.2-36.8,1-60-24.2-34.7-72-22-72-22 C 348.3,413.9,369.3,436.9,375.3,451.9Z" fill="param(accent_colour_1)"/>
    <path d="M 340.3,434.4 c 20,2,31,20,31,38.5-1.5-9.5-13.5-26-33-27.5 s -33-16.5-33-16.5 C 311.3,432.9,320.3,432.4,340.3,434.4Z" fill="param(accent_colour_1)"/>
    <path d="M 194.3,443.9 c -13,46,3.5,79.3,13,93.8 s 8.5,28.9,3,43.3 c -15.7,41.3,17.7,44.4,22,79.3,1.6,13.4-19,21-12.5,37.5,9.5,24,8.1,32.6,1.5,37.5,4.3-10-3.8-20.2-6.5-26.5-15.3-36.3,12.6-33.1,7.2-52.2-10.4-36.5-37-28.7-18.7-79,4.5-13.6,5.5-20.3-5.5-39.8 S 177,483.3,185.6,444 s 35.7-60.7,65.2-64.2,47,18,47,18 C 249.8,368.9,207.3,397.9,194.3,443.9Z" fill="param(accent_colour_1)"/>
    <path d="M 220.3,433 c -16.5,32-12.5,59.7,0,88.7 s 15.7,43,12.3,51.3 c -12.8,31.9-.5,44.2,11.7,64.8,16,27-12,33.5-3,80.5-19-27-1.1-47.7-4-68.5-2-14.2-14.5-26.7-18-43.5-4-19,13.5-30.5,2.5-61.5-6.1-17.3-18-32-21.5-59.5 s 9.5-75.5,42-86.5,55.5,7,55.5,7 C 266.3,395.9,236.8,401,220.3,433Z" fill="param(accent_colour_1)"/>
    <path d="M 222.8,506.9 c -10-28.5-6-67.5,22-85.5 s 52-6.5,52-6.5 C 225.8,416.9,219.8,473.9,222.8,506.9Z" fill="param(accent_colour_1)"/>
    <path d="M 248.8,446.4 c -14,9.5-21.5,27-20,44.5,2.5-25.3,30-40.5,47-46.5 s 20.5-16.5,20.5-16.5 C 285.3,439.4,262.8,436.9,248.8,446.4Z" fill="param(accent_colour_1)"/>
    <path d="M 267.9,455.7 c -10,2.5-28.9,12.4-33.9,30.2,12.2-19.2,30.6-22,44.6-24.5 a 30.09,30.09,0,0,0,20-13 C 293.6,454.4,277.9,453.2,267.9,455.7Z" fill="param(accent_colour_1)"/>
    <path d="M 340.8,660.4 c 8.5,16,4.5,38-8,56.5,22-16,24.5-50.5,6.5-75.5 s -1.5-52-1.5-52 C 313.8,618.9,332.3,644.4,340.8,660.4Z" fill="param(accent_colour_1)"/>
    <path d="M 304.2,631.4 c -9.5,13.5,5.2,27.9,8.1,41,3.5,16,4.9,21.5-4.6,41,32-36.5-9.5-59.5,2.5-79.5 a 36.33,36.33,0,0,0,.5-37.5 C 312.2,607.9,313.7,617.9,304.2,631.4Z" fill="param(accent_colour_1)"/>
    <path d="M 283.5,662.9 c 11,22-.2,42.5-11.8,58.5,28.5-22.5,27.8-54.5,11.8-78.5 s 5.8-51,5.8-51 C 263.8,619.4,272.5,640.9,283.5,662.9Z" fill="param(accent_colour_1)"/>
    <path d="M 254.3,617.9 c 11,26.5,8,41,1.5,54.5 s -9,30-3,46 c -9-9.5-11-33.5-2.5-51 s 4.5-27.5-5.5-52.5-1-39-1-39 C 241.8,582.4,243.3,591.4,254.3,617.9Z" fill="param(accent_colour_1)"/>
    <path d="M 365.3,649.4 c 8.5,20,8.5,45.5-3,66,29-31,9.2-70.1-.5-92-13.5-30.5,11.5-56.5,11.5-56.5 C 332.3,599.4,356.8,629.4,365.3,649.4Z" fill="param(accent_colour_1)"/>
  </g>
  <g id="accent-colour-2">
    <path d="M 382.6,378 c 32,12,52.5,44,55.5,68.5,3.5,28.3-5.5,43.2-15,54.7 s -14,26-4,40.3 c -18.3-18.2.3-37.5,6.5-46.3,5.4-7.7,15.2-23.3,9.2-52.8 s -31.2-60.8-68.2-65.8 c -39.5-5.3-62.8,19-62.8,19 C 315.9,379.5,351.9,366.5,382.6,378Z" fill="param(accent_colour_2)"/>
    <path d="M 415.4,607.5 c -12.7,19.5-11.5,34.5-4.2,47.3,23.9,41.8,7.7,63.7-7,74.8,27-15.7,24-43.6,15.8-61.8-6.3-14.2-11.9-20.5-12.2-33.8-.2-11,7.2-22.7,21.7-43,12.5-17.5-1.3-37.3-1.3-37.3 C 440.6,580.5,428.5,587.3,415.4,607.5Z" fill="param(accent_colour_2)"/>
    <path d="M 409.9,480.7 c -8,14-15.8,28.8-17.4,41.4-2.7,21.3,6.2,23.4,12.5,35.8,9.2,18.2-2.5,26.2-8.5,35.5-14.8,22.8-11.8,44.8-1.9,58-16.8-41,10.5-61.6,15.2-72.2,3.8-8.7,4.8-17.1-10.2-34.2-9.2-10.5-6.2-31.5,8.1-55.2,10.4-17.2,7.7-28,7.7-28 A 48,48,0,0,1,409.9,480.7Z" fill="param(accent_colour_2)"/>
    <path d="M 376.3,401.6 c -30.9-14.6-58-5.6-70.7,1.8,5-6.3,38.4-20.5,72.7-3.8 C 416.8,418.4,414,454,414,454 S 413.3,419.1,376.3,401.6Z" fill="param(accent_colour_2)"/>
    <path d="M 366.6,420.4 c 22.3,14.7,26.3,36.7,21.7,52-3,9.8-13,34-11.7,45,1.3-15,11.3-32,14.7-46.3 s 4-39.7-29.3-56.3-57.7-3-57.7-3 C 319.3,407.4,344.3,405.7,366.6,420.4Z" fill="param(accent_colour_2)"/>
    <path d="M 329.6,427.4 c -12.3-1-20.7-3-23.3-8.7,16,11.3,31.7-.3,51,15.3,21.1,17.1,17,40.3,17,40.3 C 371.3,434.4,341.9,428.4,329.6,427.4Z" fill="param(accent_colour_2)"/>
    <path d="M 331.6,450.4 c -8-.9-19.7-4-24.7-11.3,8.7,7.3,19.7,8.3,34.3,10 s 24.3,16.7,24.3,16.7 C 351.6,451,339.9,451.4,331.6,450.4Z" fill="param(accent_colour_2)"/>
    <path d="M 373.9,504.4 c 1.1-25.5-19.3-34-19.3-34 C 362.3,476.4,371.3,492.4,373.9,504.4Z" fill="param(accent_colour_2)"/>
    <path d="M 215.2,544.7 c 6.3,13.3,1.4,28.2-3,44.3-5,18.3,4,36.7,18,50.8-17-24.5-21.3-32.8-11.5-61.5,4.8-14,4.5-28.7-5.8-45.7 s -17-45.3-17-45.3 C 196.6,505,205.9,525,215.2,544.7Z" fill="param(accent_colour_2)"/>
    <path d="M 195.3,474.4 c -3-52.7,29.7-81.3,56.3-85 s 44,11.3,44,11.3 C 225.6,367,194.9,435.4,195.3,474.4Z" fill="param(accent_colour_2)"/>
    <path d="M 219.3,451 c -7.5,22.5-3.3,45.7,3.3,66.7-9.3-20-11.3-41.3-7.7-59 s 16.7-42,41.3-49.7,39.7,1.3,39.7,1.3 C 245.6,400.7,225.9,431,219.3,451Z" fill="param(accent_colour_2)"/>
    <path d="M 254.9,434.4 a 47.24,47.24,0,0,0-27,42 c .3-16,15-36.7,35.3-43,25.1-7.8,31.3-13.7,31.3-13.7 C 285.9,425.7,267.6,428.4,254.9,434.4Z" fill="param(accent_colour_2)"/>
    <path d="M 275.9,447.7 c -7,2-15.3,5-22.3,12,6-4.7,16-7.7,26.7-11,9.9-3.1,17-11.7,17-11.7 C 292.6,441,282.9,445.7,275.9,447.7Z" fill="param(accent_colour_2)"/>
    <path d="M 247.6,376.7 c -39.7,7.7-51.3,25-62.3,52.3-9.7,24.1-8,61-3.3,79-11.3-30.7-5.3-71.9,8.7-97.7,15.5-28.5,47.3-39.3,70.7-36 a 59.35,59.35,0,0,1,36.3,20.3 C 286.3,383.4,264.9,374.4,247.6,376.7Z" fill="param(accent_colour_2)"/>
    <path d="M 374.3,593.6 c -10.5,21.5-2.2,49,6.2,67.5 s 11.8,36.5,3.2,57.8 c 13.8-21.5,7-42.8-4.5-67.5-10.8-23.3-9.5-43.8.5-64.8 s -6.5-41.8-6.5-41.8 C 379.8,558.6,385.1,571.3,374.3,593.6Z" fill="param(accent_colour_2)"/>
    <path d="M 354,650.4 c 10.5,26,5.8,37.2.2,48.8 s -11.5,26.8-2,35.8 c -4.5-8.5-5.5-17,6-37.5 s .2-41.4-9.8-68 c -13-34.5,3.8-53.5,3.8-53.5 C 329.8,594.4,343.5,624.4,354,650.4Z" fill="param(accent_colour_2)"/>
    <path d="M 320.5,628.4 c -3,15.5,2.6,23,10.8,39,13.2,26-4,50.5-17.5,59,21.8-23.5,23.2-40.5,12.8-61.5-5.4-10.8-12-23.2-8-37.2,3.9-13.5.8-35.8.8-35.8 C 324.3,604.1,322.9,616.1,320.5,628.4Z" fill="param(accent_colour_2)"/>
    <path d="M 296,652.4 c 15,27,15.2,50-1.8,68,28-23,11.2-53.7,1.2-74.5-14-29.2,6.8-52.5,6.8-52.5 C 281.8,614.9,287,636.1,296,652.4Z" fill="param(accent_colour_2)"/>
    <path d="M 266.5,609.6 c -3,11.5-5,23,5,49.5 s -1,39.2-11.8,55.2 c 26.2-26.8,18.2-42.8,13.8-57.2-3.2-10.5-10.5-25.8-5-48,3.8-15.5-9.2-27.2-9.2-27.2 C 262.8,586.4,269.5,598.1,266.5,609.6Z" fill="param(accent_colour_2)"/>
    <path d="M 257.8,715.4 c -11.5-27,9-52.5,9-52.5 C 262.3,670.9,252.3,695.6,257.8,715.4Z" fill="param(accent_colour_2)"/>
    <path d="M 246.8,631.9 c -26.2-43-4.5-61-4.5-61 C 224.5,584.6,230.8,610.4,246.8,631.9Z" fill="param(accent_colour_2)"/>
    <path d="M 192.3,584.6 c -6,17-7.5,27.8,8,49.8 s 11.8,26,4.8,41-7.8,31,7.8,41.5 c -13.5-15-12.2-28.8-1.8-48.2,7.6-14.2-3-26.5-14.5-44 s -3.8-34.5,1.8-52-4.8-32.8-4.8-32.8 C 200,554.9,198.3,567.6,192.3,584.6Z" fill="param(accent_colour_2)"/>
  </g>
<script type="text/ecmascript" xlink:href="param.min.js"/> 
</svg>
