<?xml version="1.0"?>
<svg xmlns="http://www.w3.org/2000/svg" xmlns:xlink="http://www.w3.org/1999/xlink" viewBox="0 0 600 1032.36">
  <title>HS014</title>
  <g id="main-colour">
    <path d="M 401.74,537.86 c -5-3.5-6-17,0-29 S 420.08,477.7,413.41,451 c -5.8-23.21-34-35.33-51.17-23.67,16.5-29.67-21.46-66-71.5-71.67-53.33-6-97.75,21.85-114.67,61.33-18,42,4.17,83.33,10.17,92.33,3.61,5.42,2.87,12.82-1.45,17.86-.56.35-1.14.73-1.72,1.14-11.33,8-17.67-4.67-15.33-10.33-4.68,5.24-4.1,10.17-2.7,13.48-7.28-3.51-6.3-12.65-6.3-12.65 s -21.5,17-5.5,44.5,41.5,17.5,41.5,17.5-5.5,15,2.5,28,30,20.5,48.5,14.5,27-35,8-50-25-37-26-42.5,0-34.5,25-44 c 22.4-8.51,10-24.5,22-33.5 s 24.5,3.5,24.5,3.5 c 7.5-8.5,22.65-10.56,45,9,24,21,28.5,44.17,27.83,62.17-1,11.85-10.33,37.33-33.83,50.83,6.5,27,34,40.24,56.5,34,18-5,33.94-19.08,34.5-41 C 429.74,552.36,413.74,536.36,401.74,537.86Z" fill="param(main_colour)"/>
  </g>
  <g id="accent-colour-1">
    <path d="M 299.41,448.36 s -16.92-16-30.67-4 c -14.57,12.71-4.5,28.75-24.5,36.75 S 218.08,513,219.41,526.36 s -8.25,42.42-28.92,45.75 S 148.08,561,156.08,529 c 3.33,21.33,18.42,39.67,36.42,32.33 s 16.92-25,17.58-39.67,7.75-38,24.42-45.33,16.92-14,19.58-24.67 S 279.41,415,299.41,448.36Z" fill="param(accent_colour_1)"/>
    <path d="M 223.74,541.86 s 5,17.71,17.5,28.5 C 256,583.11,266.08,601.7,247.41,615 s -41.33.67-44.67-16.67,10.61-26.91,23.33-23.33 c 15.42,4.33,21.67,29.07,6.67,30-13.5.83-11.25-11.67-11.25-11.67 s 5.25,10.08,11.25,2.75-6-19.5-16.67-11.75 c -6.49,4.72-7.67,24,9.67,28 s 27.75-8.25,25.75-20.25 C 249.68,581.27,226.49,566.86,223.74,541.86Z" fill="param(accent_colour_1)"/>
    <path d="M 169.74,533.86 s 8.17,21.67,22.67,13.17,2.83-35.17,15.83-61.67,28.81-16.11,35.5-36 c 8.5-25.25,39.75-45.25,63.5-7.5-2.5-21.5-20.1-36.26-38.5-31-21,6-26.25,35-41.25,43.25-9.62,5.29-32.25,17.75-32.25,45.25 S 196.74,549.36,169.74,533.86Z" fill="param(accent_colour_1)"/>
    <path d="M 354.24,430.86 s 7-36.5-36.5-56-90.5-3.5-111.5,16.5-42,54-18,110.5 c -5.5-28.5-6.5-63.25,10.5-88.25 s 57.72-43.59,97.75-36.25 C 338.74,385.11,353.24,414.36,354.24,430.86Z" fill="param(accent_colour_1)"/>
    <path d="M 343.74,433.36 s -7-41.75-60.5-45.75-96.5,37.75-89,93.25 c 4-24.5,14-59,42.5-74.5 S 318.24,390.86,343.74,433.36Z" fill="param(accent_colour_1)"/>
    <path d="M 205.49,461.36 s 11.75-40,51.75-53 c -14,9.5-24.38,28.3-31.5,34.75 C 217.74,450.36,211,449.36,205.49,461.36Z" fill="param(accent_colour_1)"/>
    <path d="M 287.74,405.86 s 43,4.5,38.5,35.5 C 316.74,420.86,297.24,409.86,287.74,405.86Z" fill="param(accent_colour_1)"/>
    <path d="M 334.24,448.36 s 29,13,39,41.5,8.17,41.67.17,59.17-20.17,34.33-5.92,48.83 c 16.26,16.55,43.15,1.39,47.92-13.67,6.25-19.75-1.42-34.31-17.83-35.33-20-1.25-34.58,32.83-9.83,38.83,7.83,2.67,23-9.83,12-18.83,2.5,5-2,12.5-10.5,9 s -6.83-19.5,6.33-20.5 c 8.48-.64,17.33,10.17,14.33,22.67 s -16.67,21.67-30.67,15.17-12-24.83-4-39.83 S 407.24,473.86,334.24,448.36Z" fill="param(accent_colour_1)"/>
    <path d="M 339.91,441.36 s 36.77,10.35,48.5,37.33.17,55.17,8,60.5 c -5-11.5,6.33-40.17-1-62.83 S 365.41,441,339.91,441.36Z" fill="param(accent_colour_1)"/>
    <path d="M 357.74,434.2 s 29.17,3.5,38.83,19.83,8.17,35,6.17,45.33 c 6.33-15.33,10.62-43.18-8-58.17 C 380.24,429.53,357.74,434.2,357.74,434.2Z" fill="param(accent_colour_1)"/>
    <path d="M 220.41,551.36 s 3.67,16.33,9.33,20.67 C 222.41,570.7,216.08,563,220.41,551.36Z" fill="param(accent_colour_1)"/>
    <path d="M 354.08,571.7 S 347.41,599,374.74,608 C 363.41,608,343.08,597.36,354.08,571.7Z" fill="param(accent_colour_1)"/>
  </g>
  <g id="accent-colour-2">
    <path d="M 303.08,446.7 s -6.67-18.67-24-18.67-26.5,11.5-28.17,22.5-6.37,13.33-18.17,19.5 c -14.67,7.67-23.67,25.17-24.67,39.83 s -2.33,42.17-17.5,46.83 c -17.33,5.33-27.17-10-30.17-24,5.67,14.67,18,26.83,30.67,21.17 s 14.5-33.33,15.17-44,6.67-31.5,22.67-40.17,17.83-9.67,20.5-22 c 2.18-10.11,9.83-21.5,26.17-21.83 S 298.08,431.86,303.08,446.7Z" fill="param(accent_colour_2)"/>
    <path d="M 345.41,428 s -7.83-41-64.17-44.33 c -50-3-78.67,32.17-86,54.17 s -6.83,43.17-2.83,57.83 c -5.33-13.33-7.17-41.33,4.5-67.33 s 41.67-45,72.67-47 S 338.08,389,345.41,428Z" fill="param(accent_colour_2)"/>
    <path d="M 295.08,450 s -11.17-9.83-21.17-3.17-7.67,18.5-9.33,24.83-7.26,9-15,12.83 c -10.33,5.17-25.5,18.5-25.5,40.17 s 12,34.33,12,34.33 a 46.33,46.33,0,0,1-13.67-36.67 c 1.67-23.33,15.83-34.17,25.5-38.83 s 15.17-6.17,15.5-18.17,5-20.17,13.67-22.17 S 291.08,445.53,295.08,450Z" fill="param(accent_colour_2)"/>
    <path d="M 221.41,543.7 s 5.17,20.33,12.83,28,17.83,19.67,13.17,29-15.5,11-23.17,8-13.17-16.33-6.5-21.67,13,.67,13.33,3.33 a 5.55,5.55,0,0,1-3.67,5.67 c 4.83-4.83-.4-9.05-3.83-8.5-5.17.83-8.38,6.38-4.5,13.67,2.67,5,12.42,9.21,20.33,3.83,8.83-6,6.5-16.5-2.5-27.17 S 222.74,558,221.41,543.7Z" fill="param(accent_colour_2)"/>
    <path d="M 220.74,570.7 s -16.5-3.83-19.67,15 C 200.74,571.7,211.08,566.36,220.74,570.7Z" fill="param(accent_colour_2)"/>
    <path d="M 251.08,575.7 s 12.83,13.17,7.67,28.83 c -4.33,13.13-19.83,18-29.17,18,8.67,2.33,25.83-.83,31.5-17.5 C 264.41,592.7,258.41,581.36,251.08,575.7Z" fill="param(accent_colour_2)"/>
    <path d="M 200.41,469.36 s 4.83-28.17,22.5-46.17 S 259.41,403,259.41,403 s -23.37,9.27-32,18.33 A 111.55,111.55,0,0,0,200.41,469.36Z" fill="param(accent_colour_2)"/>
    <path d="M 210.08,459.7 s 4.17-5.67,14.5-10.83 c 6.93-3.47,16.94-20.16,20.83-26.17,4-6.17,17.67-24,37.33-17.67-11.67-.67-19.5,1.17-28.5,9.83 S 235.08,445,225.74,450,213.91,456.36,210.08,459.7Z" fill="param(accent_colour_2)"/>
    <path d="M 293.74,413 s 22,10.17,22.33,34.33 C 317.41,431.86,312.91,422.7,293.74,413Z" fill="param(accent_colour_2)"/>
    <path d="M 298.41,405 s 32.83,7.5,35.33,34.67 C 334.74,424.36,322.41,409.7,298.41,405Z" fill="param(accent_colour_2)"/>
    <path d="M 185.41,501 a 106.34,106.34,0,0,1-13.33-51.67 C 172.41,420,190.41,391,219.74,373 s 76.67-16.5,100-6.17,44.67,35.17,39,61.17 c 1.17-16.33-5-34.33-24-49 s -51.83-21.67-87.83-13.67-57.67,34.83-67.17,57.33 C 172.59,439.63,172.24,470.53,185.41,501Z" fill="param(accent_colour_2)"/>
    <path d="M 364.08,431 s 14.08-9.83,33.42,3.83,14.58,43.17,10.58,54.5 c 0,0,8.52-35.6-10.83-51.25 A 37.74,37.74,0,0,0,364.08,431Z" fill="param(accent_colour_2)"/>
    <path d="M 344,437.61 s 21.33-2.75,40,11.25,18.42,41.92,16.75,51.25 c 0,0,2.42-27.17-12.25-43.5 S 356.66,439.61,344,437.61Z" fill="param(accent_colour_2)"/>
    <path d="M 331.08,444 s 28.17,4.58,45.17,25.33 c 14.32,17.48,15.83,36.67,15.17,45.33 s -3.67,21.42-.17,25.42 c -6-3-1.5-20.25-3-36.75 C 387.39,494,380.74,458.86,331.08,444Z" fill="param(accent_colour_2)"/>
    <path d="M 325.41,449 s 35.17,17,45.83,51.33 c 4.33,15.33,4.83,30-2.17,46-7.61,17.39-17,29-10,43.33-.67-11.67-1.33-16,7.33-31.33 s 11.33-28.08,9.33-45.75 S 363.74,465.61,325.41,449Z" fill="param(accent_colour_2)"/>
    <path d="M 344.08,579.36 s -4.33,12,14,24.33 C 348,594.61,344.74,585,344.08,579.36Z" fill="param(accent_colour_2)"/>
    <path d="M 376.41,558.7 s 8.08-19,28.08-12.33,17.58,28.83,15.25,35.5-14,30.5-49.33,23.83 c 23.08,4.42,39.08,1.42,49.83-18.33,12-22.13-4.58-42.58-16.25-44.25 S 383.08,542,376.41,558.7Z" fill="param(accent_colour_2)"/>
    <path d="M 372.08,572.7 s 1.25,15.67,13.92,18.67,17.42-6.67,19.75-13 c -1.67,9.33-7.42,17.83-19.75,15.5 S 370.41,578.36,372.08,572.7Z" fill="param(accent_colour_2)"/>
    <path d="M 398.74,571 s -4.67,6.33-9,1.67,0-11,6-11,12,5.33,12,12.67 c -2.33-6.33-7.5-12.5-14.5-10 C 389.27,565.78,389,576.36,398.74,571Z" fill="param(accent_colour_2)"/>
    <path d="M 196.08,593.7 c -.25-1-.33,23,26,27.67 C 206.41,615.2,199.41,606.36,196.08,593.7Z" fill="param(accent_colour_2)"/>
    <path d="M 196.08,575.36 s -13,8.33-27.33,1 S 144.41,548,156.41,524.7 c -6.17,15.33-5.33,30.17,3,40.5 S 178.41,580.2,196.08,575.36Z" fill="param(accent_colour_2)"/>
    <path d="M 167.08,527 s 6.33,10.5,16.67,4.83,7.33-22.5,7.33-22.5,6.17,18.5-6.5,24.5 S 167.08,527,167.08,527Z" fill="param(accent_colour_2)"/>
  </g>
<script type="text/ecmascript" xlink:href="param.min.js"/> 
</svg>
