<?xml version="1.0"?>
<svg xmlns="http://www.w3.org/2000/svg" xmlns:xlink="http://www.w3.org/1999/xlink" id="Layer_1" data-name="Layer 1" viewBox="0 0 600 1032.4">
  <title>HS013</title>
  <g id="main-colour">
    <path d="M 207.2,604.3 c 11.5,24,18,49,9.5,64.5 s -30,13-36,7.5 c 7.5,21,24.5,14.5,24.5,14.5 s -4.5,8-10.5,9.5 c 12.5,5,21-2.5,21-2.5 s -1.5,11-7.5,15 a 30.21,30.21,0,0,0,17.5-11.5 s 1.5,14-8.5,19 c 6,0,19.5-4.5,23-10,1.5,3-1.5,7.5-1.5,7.5 s 6-1,8.5-5.5 a 28.55,28.55,0,0,1-.5,13 s 11-5.5,11.5-13 c 2,3,7,13,2,20,12.5-5,14-15,14-15 s 1.5,6,1,9 c 5-2,7-9.5,7-9.5 s 5.5,10-.5,18 c 5-2.5,12.5-10,15-20,1,10,15,17.5,15,17.5 s -4-10-2.5-14.5 c 1,4,6.5,9,6.5,9 s -3-6.5-1.5-12.5 c 3,12.5,19.5,17.5,19.5,17.5 s -7-7.5-4.8-17.8 c 2.7,6.7,9.8,9.8,9.8,9.8 a 14,14,0,0,1,0-11,23.38,23.38,0,0,0,14.5,13.5 s -5-9-1.3-17.3 c 8.7,16.7,27.3,13.3,27.3,13.3 s -9.7-8.3-7.3-16.7 c 20.7,12.3,35.8-2.4,35.8-2.4 s -8.5.1-11.5-4.9 c 8-3,13-11,11-25-4,16-25,17-35,0 s 15-61.3,57-126.3,34.3-162-24.3-190.6 c -72.3-35.3-102.7,26-102.7,26-7-17-42-55.3-99.7-28.3-50.4,23.6-54.3,95.3-47.3,137.3 S 195.8,580.3,207.2,604.3Z m 31.6-118.5 a 79.9,79.9,0,0,1,8.9-4.2,53.63,53.63,0,0,1,5.9-12.6,56.3,56.3,0,0,0-2.7,11.3,120.58,120.58,0,0,1,19.8-5.4,33.32,33.32,0,0,1,4.5-9.3,28.79,28.79,0,0,0-1.4,8.7 l .4-.1 a 56.34,56.34,0,0,1,3.8-6.8,23.35,23.35,0,0,0-1.2,6.4,163.77,163.77,0,0,1,27.1-1.7,76.17,76.17,0,0,0-.1-9.5 c 1,3,2,7.6,2.5,9.6 a 198,198,0,0,1,20.4,1.7 c -.2-3.3-.7-8.1-1.9-11.3 a 51.16,51.16,0,0,1,5.4,11.9 c 3.9.6,7.8,1.4,11.3,2.3 a 21,21,0,0,0-.9-5 c 1.1,1,2.6,4.2,3.2,5.6,1,.3,2,.5,3,.8 a 104,104,0,0,0-4-11.9,68.13,68.13,0,0,1,7.9,13.1,86.32,86.32,0,0,1,10,3.9 c 9.3,10.4,12.2,28.3,13.1,38.5 a 73.83,73.83,0,0,1-146.8,4 C 226.7,516.2,228.9,496.6,238.8,485.8Z" fill="param(main_colour)"/>
  </g>
  <g id="accent-colour-1">
    <path d="M 358.6,475.7 c -12.3-55.7-54-58.7-54-58.7 C 331.9,430,348.9,453.4,358.6,475.7Z" fill="param(accent_colour_1)"/>
    <path d="M 302.5,417.9 c 32.5,23.5,33.4,54.8,33.4,54.8 C 326.9,449.7,314.5,430.5,302.5,417.9Z" fill="param(accent_colour_1)"/>
    <path d="M 310.3,470 c 6-28-8-46-8-46 C 305.9,434,309.6,455,310.3,470Z" fill="param(accent_colour_1)"/>
    <path d="M 290.6,469.4 c -2-27.3,7.7-51,7.7-51 C 288.3,430.7,283.9,450.7,290.6,469.4Z" fill="param(accent_colour_1)"/>
    <path d="M 264.3,473 c -1-37.7,28.3-56.7,28.3-56.7 C 263.3,429.7,259.3,455.7,264.3,473Z" fill="param(accent_colour_1)"/>
    <path d="M 282.6,418.4 c -38.7,17-40.3,61.3-40.3,61.3 C 240.3,456,248.9,424.4,282.6,418.4Z" fill="param(accent_colour_1)"/>
    <path d="M 357.9,368.3 c 37,.7,60.1,18.1,73,57.7,13.3,41-.2,82.8-11.7,104.3 s -45.5,80-54.5,99.5 S 350.2,678,362.2,690 s 29,6.3,39.5-4.2 c -23,13-43.2,1.5-37.5-32,4-23.8,32-69.8,48.3-95.8,15.4-24.4,32.2-50.7,35.2-89.7 S 433.4,377.4,387.9,363 s -82.7,23.4-82.7,23.4 C 313.3,380.9,332.9,367.9,357.9,368.3Z" fill="param(accent_colour_1)"/>
    <path d="M 403.2,439.7 c 11,35,5.7,63.8-11.3,97.3 s -38.2,54.4-51.2,98.9.5,63.5,19.8,76.5 c -36.7-35.7-8.3-91,10.2-121.5 s 41.5-67,48-100.5,2-74.5-31.5-100-82,3.5-82,3.5 C 365.3,375.4,392.2,404.7,403.2,439.7Z" fill="param(accent_colour_1)"/>
    <path d="M 373.8,436.4 c 21,36.5,13.5,72.5,4,104,8.5-21,30-60,6-108 s -78.5-31-78.5-31 C 324.8,400.9,352.8,399.9,373.8,436.4Z" fill="param(accent_colour_1)"/>
    <path d="M 377.8,491.4 c -9-87.5-72-82.5-72-82.5 C 351.3,419.4,370.3,463.9,377.8,491.4Z" fill="param(accent_colour_1)"/>
    <path d="M 227.8,369.4 c -27.5,5-46.7,28.3-56.2,69.3 s 22.2,103.7,40.2,138.7,28.5,68,22,88 a 29,29,0,0,1-1.6,4.1,30.35,30.35,0,0,1-40.4,14.4 c 8.5,4.5,35.5-3,36-31 s -11.7-53-35.2-97.5-36.3-79.5-31.3-114,24.5-75,66-82,72.5,27.5,72.5,27.5 C 277.3,369.9,255.3,364.4,227.8,369.4Z" fill="param(accent_colour_1)"/>
    <path d="M 193.9,448 c -4,38,16.3,78.5,30.3,108 s 28.5,55.8,31.5,80.8-3.2,63.2-28,75 c 32-41,21-88.5,2.5-122.5 S 193.4,512,184.9,478 s 9-78.7,42-94.7,69.8,10.5,69.8,10.5 C 238.3,368.9,197.9,410,193.9,448Z" fill="param(accent_colour_1)"/>
    <path d="M 219.8,441.4 c -12.5,25.5-7.5,49,4.5,89-13-29.5-30.3-75.7-2.3-109,30.2-36,75.8-20,75.8-20 C 260.8,399.9,232.3,415.9,219.8,441.4Z" fill="param(accent_colour_1)"/>
    <path d="M 221.8,499.4 c -9.5-92.5,72.5-91.5,72.5-91.5 C 228.8,424.9,224.3,465.4,221.8,499.4Z" fill="param(accent_colour_1)"/>
    <path d="M 333.3,714.4 c -32.7-74,17-132.5,17-132.5 C 290.3,636.4,313.9,699.7,333.3,714.4Z" fill="param(accent_colour_1)"/>
    <path d="M 252.8,710.9 c 40-68-2-128-2-128 C 300.3,645.4,271.6,699,252.8,710.9Z" fill="param(accent_colour_1)"/>
    <path d="M 305.3,719.4 c -21.3-64.3,6.5-118.5,6.5-118.5 C 280.9,629,287.9,699.7,305.3,719.4Z" fill="param(accent_colour_1)"/>
  </g>
  <g id="accent-colour-2">
    <path d="M 351.5,478.3 c -4.2-33.8-47.6-62.3-47.6-62.3 C 329.8,437.4,344.8,458.1,351.5,478.3Z" fill="param(accent_colour_2)"/>
    <path d="M 304.6,420.4 C 326,449.6,322,471.6,322,471.6,319.5,453.1,312,433.6,304.6,420.4Z" fill="param(accent_colour_2)"/>
    <path d="M 298.3,469 c -4.3-23.1,2.3-46.3,2.3-46.3 C 297.3,429.4,290.9,450,298.3,469Z" fill="param(accent_colour_2)"/>
    <path d="M 269.5,473.1 c 4.2-35.5,25.1-55.8,25.1-55.8 C 281.6,426,266.8,454.6,269.5,473.1Z" fill="param(accent_colour_2)"/>
    <path d="M 249.3,473 c 6.2-39.4,34.3-53.7,34.3-53.7 C 262.9,428.7,249.6,450.4,249.3,473Z" fill="param(accent_colour_2)"/>
    <path d="M 373.9,508.4 c -5.2-61.5-51-88.7-51-88.7 C 363.3,445.9,370.8,472.6,373.9,508.4Z" fill="param(accent_colour_2)"/>
    <path d="M 226.9,506 c 4.1-86.4,59-91.3,59-91.3 C 248,416.9,221.5,467.4,226.9,506Z" fill="param(accent_colour_2)"/>
    <path d="M 377.5,376.6 c 27,7.5,44.2,31.5,50.8,69 s -7.7,69.8-24.2,101.5-41.8,68.2-50,96 c -13,44.2,8.2,66.8,18.8,75.2-4.5-2-17.9-9.6-24.8-38.2-6.2-26.2,15.2-66.2,29.5-92,13.8-25,34.2-56.8,45.8-95.8 s -4.5-100-46-112.5-72.5,12-72.5,12 C 319.8,378.1,350.5,369.1,377.5,376.6Z" fill="param(accent_colour_2)"/>
    <path d="M 400.3,449.6 c 9,37.5-1.5,66.6-16,91.8 s -40.8,65.2-48.8,93.8-2.5,61.2,8,79.8 C 320,686.5,330,637.8,341,614 c 7.9-17,42.6-69.1,53.2-99.5,9.5-27.2,10.2-78.5-18.8-105 s -71.2-12-71.2-12 C 360.8,376.4,391.3,412.1,400.3,449.6Z" fill="param(accent_colour_2)"/>
    <path d="M 377.3,519.4 c 19.2-114-70-114.5-70-114.5 C 381.3,403.6,391.8,486.9,377.3,519.4Z" fill="param(accent_colour_2)"/>
    <path d="M 303.3,644.4 c -5.5,46.7,16.5,74,16.5,74 s -12.6-14.4-14.5-57 c -2.2-50.5,33.5-74.5,33.5-74.5 S 308.3,601.9,303.3,644.4Z" fill="param(accent_colour_2)"/>
    <path d="M 268.8,722.4 c 31.2-71.5,10-129,10-129 C 289,646.9,282,681.4,268.8,722.4Z" fill="param(accent_colour_2)"/>
    <path d="M 387.8,355.4 c 37,9.5,57,37.5,64.5,85 s -16.5,95-31,111.5 c 22-36.5,29.2-60.5,30.2-91.3.6-19.5-11.8-92.8-67.2-103.8 s -79,29.5-79,29.5 C 321.5,358.9,350.8,345.9,387.8,355.4Z" fill="param(accent_colour_2)"/>
    <path d="M 368.5,648.1 c -7,25.5,6.8,39.2,22.2,39.8-19.5-3.5-24-18-21.5-34.5 s 23-54.5,23-54.5 S 375.5,622.6,368.5,648.1Z" fill="param(accent_colour_2)"/>
    <path d="M 233.5,428.9 c -18,20.5-21.8,51-10.2,87.3-8-35.2-7.8-65.1,13.7-88.1 s 62.8-22.2,62.8-22.2 C 276.5,404.4,251.5,408.4,233.5,428.9Z" fill="param(accent_colour_2)"/>
    <path d="M 217.5,412.9 c -21,18.8-23,57.8-11.5,89.8 s 25.2,57,47,103.3 c 22.4,47.6,6.8,79.2-9.2,107,41.5-51.5,16.5-101.2.5-131.2 a 609.38,609.38,0,0,1-37-83.5 c -8.5-24.5-11.2-66,20.5-90.2,30-23,71.5-10.5,71.5-10.5 C 269.8,389.9,245,388.3,217.5,412.9Z" fill="param(accent_colour_2)"/>
    <path d="M 221.3,377.9 c -30.5,17-43.9,44.3-45.8,72-1.8,25.5,9.8,59.2,20.2,84.8 s 36.8,71,42.8,100-7,55-19.2,69.2 c 15.2-17,23-25.8,23.5-54.8 S 211.2,567.7,200,537.9 c -11.5-30.8-19.2-53-21.8-78.5-2.2-22.6,10-61.8,44.5-79.8 s 76,11.8,76,11.8 C 285.8,379.9,251.8,360.9,221.3,377.9Z" fill="param(accent_colour_2)"/>
    <path d="M 187.3,374.6 c -21.5,22-35.2,52.1-28.8,102.5,4.8,37.3,26.8,77.8,26.8,77.8 s -16.1-18.5-26.5-62.5 c -9.2-39-1.5-75,7.8-94,9.9-20.4,41.2-54.2,81.2-47.8 s 52,33.2,52,33.2 C 262.8,337.1,208.8,352.6,187.3,374.6Z" fill="param(accent_colour_2)"/>
    <path d="M 224.3,658.6 c -3.2,24-27.2,28.2-37,23.2,10.8.8,30,2,35-25 s -22-75.5-22-75.5 C 207.8,591.4,228.2,629.5,224.3,658.6Z" fill="param(accent_colour_2)"/>
  </g>
<script type="text/ecmascript" xlink:href="param.min.js"/> 
</svg>
