<?xml version="1.0"?>
<svg xmlns="http://www.w3.org/2000/svg" xmlns:xlink="http://www.w3.org/1999/xlink" viewBox="0 0 600 1032.36">
  <title>HW004</title>
  <g id="main-colour">
    <path d="M 360.22,407.44 c -6.27-2.83-10.64-4.91-18.47-2.91 s -11.33,10.67-11.5,15.83-7.67,12.67-5.83,19.5 a 18.22,18.22,0,0,0,11.67,12.83 c 5.33,2,12.17,3.17,14.83,4.67 a 12.68,12.68,0,0,0,14.67-1.17 c 6.17-4.83,9.33-12,11.83-19.67 s 3.33-12.83,1.67-17-4.67-6.33-9.5-8 S 363.72,409,360.22,407.44Z" fill="param(main_colour)" fill-rule="evenodd"/>
  </g>
  <g id="fixed-colours">
    <path d="M 331.87,413.24 a 38.26,38.26,0,0,0-1.25,4.88 c -.37,2.25-1.62,6.63-2.62,7.38-8.62-2.5-24.25-5.75-41.12-3.87 s -30.37,8.13-46,20.5-26,34.63-28.37,55.75 c -1.87-10.75-3.12-46,20.63-67.37 s 58.5-22.75,73.75-21.25Z" fill="#232323"/>
    <path d="M 370.12,452.24 a 64.69,64.69,0,0,0,5.5-10.25 c 14.13,16.5,15.63,40.63,10.88,61.38 C 386.37,487.11,380.12,463.11,370.12,452.24Z" fill="#232323"/>
  </g>
  <g id="outline">
    <path d="M 299.74,422.36 a 117.66,117.66,0,0,1,27.17,3.74 c -2.78,5.13-6.25,10.64-1.67,18.82,6.32,11.27,16.9,8.7,25.89,13.45,7,3.69,13.66.71,18.66-4.68 a 77.41,77.41,0,0,1,4.78,7 c 6.67,11,12.17,36.17,10.17,54.83,4.33-12,11.83-49.67-7.33-73.33 l -.47-.56 c .28-.8.53-1.6.73-2.38,3-11.61,7.24-23.75-6.58-28.57 s -19-9-26.37-7.9 c -7.62,1.1-11.2,4.86-13.15,9.27 a 130.28,130.28,0,0,0-31.59-4.7 c -29.33-1-66,11-81.75,42.25-15.58,31-4,66.57-4,66.57 C 208.88,460.67,250.41,421,299.74,422.36Z m 62.19,34.81 c -4.92,1.83-7.43,1-9.87-.25-3-3.82-7.77-5-11.87-9.39 a 14.83,14.83,0,0,1-3.44-7.62 c 2.82,3.58,8.23,6,16.39,6.22,13.08.3,20.24-6.48,23.48-10.82-.15.51-.3,1-.41,1.48 C 374.93,441.82,370,454.19,361.93,457.17Z m -1.16-46.84 c 2.74,1.93,10.12,7.86,9.29,15.34-.47,4.2-3.86,8.71-7.4,12.38,7.61-13.72-3.84-23.24-7.28-25.68 A 54.57,54.57,0,0,1,360.78,410.33Z m -7.23,34 a 19.86,19.86,0,0,1-3.57-.15,22.6,22.6,0,0,1-6.21-8 c 3.48,1.16,12.24,2.84,19.42-6 a 22.55,22.55,0,0,1-3.38,10.57 c -1.52,1.39-2.93,2.55-4,3.36 C 355.06,444.28,354.29,444.34,353.55,444.38Z m -8.43-23.79 c -.33,7,1.8,11.59,3.22,13.79 a 22.73,22.73,0,0,1-5.52-1 A 17.89,17.89,0,0,1,345.13,420.59Z m 5.8,13.73 a 17.55,17.55,0,0,1-2-3.7,8.46,8.46,0,0,0,6-4.6,14,14,0,0,1,2.91,6 A 16.29,16.29,0,0,1,350.92,434.31Z m -2.75-6.09 a 29.15,29.15,0,0,1-.9-6.06,11.46,11.46,0,0,1,6.33,2.5 A 7.09,7.09,0,0,1,348.18,428.22Z m 5-14.82 c 6.51,4.42,9.15,9.29,9.81,13.79 a 17.75,17.75,0,0,1-3.73,3.85 c -.9-9.16-8.72-10.9-12-11.22,0-1.11.09-2,.15-2.62.22-.29.44-.55.64-.8 A 45.52,45.52,0,0,1,353.21,413.4Z m -7.81,29.73 c -6.83-2.44-12.24-8.34-6.65-17.39 a 28.12,28.12,0,0,1,4.54-5.53 C 337.16,430.39,342.65,439.56,345.39,443.13Z M 387,495.74 c -1-16.56-6.11-31.75-15.63-43.88 a 35.61,35.61,0,0,0,4.37-7.21 C 388,459.83,389.37,480.83,387,495.74Z m -9.39-77.17 c 1.91,3.11,1.64,6.87.81,10.46-3.94,9.2-12,13.18-19.3,14.66,3.65-2.72,12-9.8,12.93-18.22.79-7.46-4.45-12.49-7.76-14.89 C 369.43,412.55,375.31,414.83,377.61,418.56Z m -17.78-9.8 c -4.23,1.4-13.71,5.25-20.67,13.3-3,3.47-4.59,7.18-4.72,10.62-1.36,7.26,2.41,15.17,6.16,17.62,2,1.29,4.44,3,6.34,4.27 h 0 c -5.4-1.53-14.88-3-18.58-8.82 s -4.23-9.82-1.73-14.62 a 72.9,72.9,0,0,0,3.7-7.7,45.22,45.22,0,0,0,1.39-5.81 c 2-1.94,6.91-5.93,12.8-4.72,3.36-4.29,6.88-6.61,10.21-6.66 a 21.64,21.64,0,0,1,3.06,1.49 A 21.75,21.75,0,0,0,359.83,408.76Z m -21.25-1.85 a 19.43,19.43,0,0,1,12.51-1.73 c -1.94.68-4.59,2.3-7.59,6.07-5.15-.82-9.14,1.85-11.13,3.62 C 333.31,411.73,334.94,408.72,338.58,406.92Z M 229.24,437.86 C 251.92,412,294.57,404.61,330.52,415 c -.53,1.78-.89,3.59-1.22,5.31 a 15.62,15.62,0,0,1-1.35,3.79,104.28,104.28,0,0,0-28.54-4.4,91.33,91.33,0,0,0-68.83,30.67 c -13,14.67-17.67,35.08-18.33,41.75 C 212.24,492.11,209.87,460,229.24,437.86Z"/>
  </g>
<script type="text/ecmascript" xlink:href="param.min.js"/> 
</svg>
