<?xml version="1.0"?>
<svg xmlns="http://www.w3.org/2000/svg" xmlns:xlink="http://www.w3.org/1999/xlink" viewBox="0 0 600 1032.36">
  <title>HW006</title>
  <g id="main-colour">
    <path d="M 208,561 s -24.11-31.26-20.8-75.53 c 5.56-2.55,12.94-4,16.45-1.41 s 3.11,6,3.53,9.3,5.65,34.06,12.35,47.16,1.65,14.41-.37,15.67Z" fill="param(main_colour)"/>
    <path d="M 391.62,561 s 24.11-31.26,20.8-75.53 c -5.56-2.55-12.94-4-16.45-1.41 s -3.11,6-3.53,9.3-5.65,34.06-12.35,47.16-1.65,14.41.37,15.67Z" fill="param(main_colour)"/>
    <path d="M 185.49,445.86 s 3.75,2.25,10.25,1.5 c 9.75-15.25,50.5-57,104.25-55.5 s 88.75,33.5,103.5,56.75 a 45.31,45.31,0,0,0,10-2.75 s -15.25-35-53.25-55.25-81-22.5-126,.25 C 206.74,404.11,188,434.86,185.49,445.86Z" fill="param(main_colour)"/>
  </g>
  <g id="fixed-colours">
    <path d="M 186.86,487.41 s -6.94.88-7.71,6.77,1.93,25.21,6.75,39.46,10.28,31.46,21.19,26 c -11.53-19.46-13.4-26.28-16.15-36 S 187,494.45,187,494.45Z" fill="#fff"/>
    <path d="M 412.77,487.41 s 6.94.88,7.71,6.77-1.93,25.21-6.75,39.46-10.28,31.46-21.19,26 c 11.53-19.46,13.4-26.28,16.15-36 s 3.95-29.24,3.95-29.24Z" fill="#fff"/>
    <path d="M 185.91,447.86 a 22.82,22.82,0,0,0,7.83,1.33 c -1.67,4.83-4.17,10.83-6.33,11.33-1.42,6.75-3.33,20.33-2.58,27.08 a 20,20,0,0,0-3.46,1.19 s -.94-15,3.25-27.94 C 183.05,459.36,181.76,455.74,185.91,447.86Z" fill="#fff"/>
    <path d="M 413.62,447.86 a 22.82,22.82,0,0,1-7.83,1.33 c 1.67,4.83,4.17,10.83,6.33,11.33,1.42,6.75,3.33,20.33,2.58,27.08 a 20,20,0,0,1,3.46,1.19 s .94-15-3.25-27.94 C 416.48,459.36,417.77,455.74,413.62,447.86Z" fill="#fff"/>
  </g>
  <g id="outline">
    <path d="M 421.5,491.79 a 6.91,6.91,0,0,0-2.49-3.25,92,92,0,0,0-3.29-26.84 c 3.48-1.81,0-11.15-1.2-14 l 1.22-.31 c -6.67-17.67-46.33-74-116-74 s -108.25,44-115.75,73.5 a 11.87,11.87,0,0,0,1.14.52 c -1,2.46-4.94,12.43-1.33,14.31 a 92,92,0,0,0-3.29,26.92,6.81,6.81,0,0,0-2.39,3.17 c -1.24,4.1-1.28,22.13,7.84,46.2 s 13.27,24.48,15.93,24.63 a 12.31,12.31,0,0,0,5-1.12 c .37.51.58.77.58.77 a 61.4,61.4,0,0,0,11.81-4.11,9.26,9.26,0,0,0,4.4-12.42 c -10.2-20.74-14.35-44.91-15.89-57 a 8.83,8.83,0,0,0-9.68-7.67,28.67,28.67,0,0,0-12.2,3.8 c 0,.28,0,.56,0,.84 l -.34.13 c -.71-8.35,2-21.66,2.65-24.6,2.63-1.79,4.54-6.41,6.54-12.18 l 1.06,0 s 33.5-55.75,104-55.75 c 68.33,0,104,56.33,104,56.33 l 1.26-.19 c 1.95,5.57,3.83,10,6.4,11.76.63,2.93,3.36,16.21,2.66,24.56 l -.25-.09 c 0-.28,0-.56,0-.84 a 28.67,28.67,0,0,0-12.2-3.8,8.83,8.83,0,0,0-9.68,7.67 c -1.54,12.07-5.69,36.25-15.89,57 a 9.26,9.26,0,0,0,4.4,12.42,61.4,61.4,0,0,0,11.81,4.11 s .21-.27.58-.77 a 12.31,12.31,0,0,0,5,1.12 c 2.66-.15,6.81-.56,15.93-24.63 S 422.74,495.89,421.5,491.79Z M 200.63,558.53 c -3.46-.87-10.75-16.15-14.77-30.24 s -6.29-30.76-4.81-35.17 c .8-2.37,3.1-3.49,4.59-4 a 122.63,122.63,0,0,0,19.26,69.52 A 9.39,9.39,0,0,1,200.63,558.53Z m -12.34-72.17 s 5.65-2.51,10-2.26,7.13.91,7.51,8.62,7,37,12.27,47.46,3.38,12.46-.44,15.07 a 28.09,28.09,0,0,1-9.32,3.61 S 187,532,188.29,486.36Z m -4.47.22 a 19.89,19.89,0,0,0-2,1.1 c -.41-11.06,2.95-25.3,2.95-25.3 l 1.57-.22 A 117.82,117.82,0,0,0,183.82,486.59Z m 1.83-26.66 c -3.14-.41-.82-7.44.4-11.28,0,0,4.33,1.31,6.39,1.19 C 190.75,455.28,188.79,460.35,185.65,459.93Z m 167.59-57.07 c -29.75-13.5-64.68-20.59-108.75-.25-34.67,16-49.42,43.75-49.42,43.75 s -3.17.67-8.17-1 c 0,0,9.83-29.67,41.67-49.67,29.29-18.4,58.5-19.12,71.33-19,17.83.17,45,3.33,72,23 a 143.18,143.18,0,0,1,40,45.17 l -7.67,2.33 S 383.28,416.49,353.24,402.86Z m 53.85,47 c 2.06.13,6.39-1.19,6.39-1.19,1.22,3.84,3.55,10.87.4,11.28 S 408.78,455.28,407.09,449.84Z m 6.11,12.34,1.57.22 s 3.34,14.19,3,25.23 a 20.16,20.16,0,0,0-2-1.09 A 117.83,117.83,0,0,0,413.2,462.18Z M 382,555.25 c -3.82-2.62-5.68-4.59-.44-15.07 s 11.89-39.75,12.27-47.46,3.19-8.37,7.51-8.62,10,2.26,10,2.26 c 1.31,45.67-20,72.5-20,72.5 A 28.09,28.09,0,0,1,382,555.25Z m 31.76-27 c -4,14.09-11.32,29.37-14.77,30.24 a 9.39,9.39,0,0,1-4.28.12 A 122.63,122.63,0,0,0,414,489.14 c 1.49.49,3.8,1.61,4.59,4 C 420.05,497.53,417.79,514.2,413.77,528.29Z"/>
  </g>
<script type="text/ecmascript" xlink:href="param.min.js"/> 
</svg>
