<?xml version="1.0"?>
<svg xmlns="http://www.w3.org/2000/svg" xmlns:xlink="http://www.w3.org/1999/xlink" viewBox="0 0 600 1032.36">
  <title>HW001</title>
  <g id="main-colour">
    <path d="M 212.77,501.55 s -8.52-24.43,2-46.93,31.75-32.5,38.5-35.75 c -7-10-13.5-17.25-22.5-17.25,8.75-10.75,27.5-15.75,39.75-13 s 25,13.75,25.25,19.25 a 6.3,6.3,0,0,1,4,0 s 3.25-2,5.5.5 c 0-8.75,9.5-20.25,21.5-20.5 s 33,8.25,45.25,32.25 c -6.5-2.75-11.33-3.17-21.25,1.75,12,7,47.75,30.25,36.5,78-3.25-17-8-55.25-48.5-70.5-8,5-20.75,9.25-33.25-8.25 a 88.93,88.93,0,0,0-15.25-.5 s -7,11.5-25,5.5 C 245.24,433.11,214.77,457.8,212.77,501.55Z" fill="param(main_colour)"/>
  </g>
  <g id="outline">
    <path d="M 212,495.24 s -7.29-44.79,27.13-67.12 a 102.52,102.52,0,0,1,16.25-8.62,30.49,30.49,0,0,1-2.25-2.11 c -30.76,13.26-56.12,43.74-38.37,100,0,0-10.75-57.46,43.75-86.62 a 52,52,0,0,1,8.13-3.5 c -1.49-.51-1.54-.9-2.87-1.62 C 263.74,425.61,216,442.74,212,495.24Z"/>
    <path d="M 304.68,408 a 5.75,5.75,0,0,1,.56.39 s 0-.13,0-.37Z"/>
    <path d="M 304.64,419.29 c -1.39-.07-2.79-.12-4.22-.16 a 6.37,6.37,0,0,1-2.83,0q-3.59,0-7.13.27 a 39.15,39.15,0,0,1-4.15,3.79,99.14,99.14,0,0,1,20.71-.06 C 306.18,421.91,305.39,420.64,304.64,419.29Z"/>
    <path d="M 385,454.36 c -6.5-14.24-18-25.86-32.71-33.92-1.39.55-1.26.9-2.79,1.67.76.39,1.62.4,2.31.81 C 376.05,437.18,392,458,387,495.74 c -.33-17.92-8.65-50.35-45.92-66.54-1.45,1.26-2.11.66-4.17,1.5,16.49,4.85,34,20.57,40.33,35.5,10.44,24.74,7.47,50,7.47,50 S 397.34,481.43,385,454.36Z"/>
    <path d="M 293,408.11 c -4.52,5.49-1.5,11.25,4.75,12.5 s 10.75-4.5,10.5-8.5-2.75-6.5-5.5-6.5-7,2-6.5,6.75 c 2.25-3.5,5-4.75,7.75-3 s 1.5,8.5-5,8.5-5.77-4.25-5.26-6.75,4-3.5,5.26-3 a 6.75,6.75,0,0,1,3-.75 S 296.49,403.86,293,408.11Z"/>
    <path d="M 304.24,407.11 S 306,388.61,324,386.36 s 39,10.5,53.52,39 c -9.25-9.25-21.75-4.5-26.75-1.25 s -30.25,26-48.5-5 l 2.5-1.5 s 6.86,14.21,20.38,14.75 c 15.63.63,27.25-20.62,45.5-13.62-11.75-19.25-28.37-30.62-44.87-29.75-14.49.77-19.62,14.63-19.62,20.38 A 4.26,4.26,0,0,0,304.24,407.11Z"/>
    <path d="M 306.48,411.11 a 89.21,89.21,0,0,0,7.26-5.25 c 3-2.5,9.25-6.75,18.5-1.75-5-1-11-1-15.25,3 a 44.67,44.67,0,0,1-10.5,7.25 A 12.2,12.2,0,0,0,306.48,411.11Z"/>
    <path d="M 293.74,417.86 s -3.52,10.25-16.76,12.25-26-11.75-30.24-17.25 S 232,401.61,227,403.11 c 7.25-11.25,31.75-21.5,47.25-16 s 22.25,19.5,22.25,19.5 l -2,1.25 s -10-18.37-28.25-19.12 c -15.26-.63-30,9.13-33.5,11.88,8.5.75,15.25,9.13,20,15.13 s 25,22.13,39.38.63 A 10.57,10.57,0,0,1,293.74,417.86Z"/>
    <path d="M 292.49,409.86 s -8.25-12.75-32-11.75 c 13,1.75,23.75,5.75,31.75,16.5 A 7.5,7.5,0,0,1,292.49,409.86Z"/>
  </g>
<script type="text/ecmascript" xlink:href="param.min.js"/> 
</svg>
