<?xml version="1.0"?>
<svg xmlns="http://www.w3.org/2000/svg" xmlns:xlink="http://www.w3.org/1999/xlink" viewBox="0 0 600 1032.36">
  <title>HW003</title>
  <g id="main-colour">
    <path d="M 213.4,438 a 19.63,19.63,0,0,1,1.66-15.75 c 4.64-7.8,8.23-12,8.93-15,3.86,4,7.38,11.93,6.24,16.76,8-6.43,24.86-8.46,35.53-3.16-4.24,3.24-5.85,7.59-9.41,13.48 s -9.7,11.56-13.29,11.81 c 6.31,6.54,8.71,18.06,8.71,18.06 s -2.09-1.11-7,1.5-17.16,8.78-22.11-1.25 c -1.48,3.5-6.85,9.14-11.82,11.7 s -15.71,5-17.81,7.32 c -.34-5.24,1-21.43,13-30.89-2.18-.86-4.9-3.21-7.38-5.58 s -6-5.21-8-5.14 C 197.38,437.57,206.09,435,213.4,438Z" fill="param(main_colour)"/>
  </g>
  <g id="outline">
    <path d="M 223.42,446.72 a 16.56,16.56,0,0,1,4.6-2.54 c 2.66-2.18,8-6.08,12.55-6.57-7.75-1.47-14.46,4.86-14.46,4.86 s 5.07-10.32,12-13.64 c -11.59,2.82-14.95,14.8-14.95,14.8 s -1.57-15.21,12.27-21.51,28.41-1.38,28.41-1.38 c -2.9,2.49-5,7.54-7.4,11.67-2.31,3.91-6.69,9.89-14.09,13.17 a 20,20,0,0,1,1.72,1.27,32.16,32.16,0,0,0,12.32-11 c 4.18-6.68,7.44-14.08,11.33-15.26-6.1-3.3-22.14-7.41-36.95,1.73 s -8.3,24.63-8.3,24.63 l .83.37 C 223.36,446.94,223.42,446.72,223.42,446.72Z"/>
    <path d="M 239.06,443 C 228,439.87,222.44,447,222.44,447 s -6.72,20,5,23.13,19.59-7.83,25.21-5 C 252.7,465.08,250.12,446.22,239.06,443Z m 1.55,23.67 c -3.87,1.89-11,3.64-15.09.4 s -2.45-11.46-1.81-15.72 c 1.22,3.5,5.27,8.27,8.68,9.19-3.37-2.8-5.79-7.4-7.35-11.49,2.74-.87,8.83.09,13.51,4.24-3.1-5.77-5.82-6.15-13.58-7,1.53-1.34,11.64-5.32,17.71.71 s 8.08,16,8.08,16 C 248.73,462.44,244.48,464.83,240.61,466.72Z"/>
    <path d="M 221.83,462.17 a 20.53,20.53,0,0,1-4.36,7.52 c -5.43,5.91-13.62,8.86-16.08,9.15 s -7.92,3-7.92,3,.32-13.57,8-23.41 a 26.12,26.12,0,0,1,18.65-10 s -12.56,7.3-15.51,19.77 c 3-5.79,12.87-15.8,17.31-18.83 a 16.41,16.41,0,0,1,.49,1.75 c .23-1.23.46-2.29.64-3.07 a 11.15,11.15,0,0,0-.65-1.12 c -32.56.73-30.22,37.72-30.22,37.72,3.45-3.86,15.47-3.12,26.39-13 a 17.73,17.73,0,0,0,4.22-6.44 A 11.05,11.05,0,0,1,221.83,462.17Z"/>
    <path d="M 207.55,451.75 a 9.3,9.3,0,0,1-2-.64 c -5.18-2.31-9-8.62-13.29-9.79,0,0,11-4.89,17.63-3.64 s 9.62,7.39,9.62,7.39-2.77-3.36-10.88-2.34 c 4.77.4,9.26,1.86,11.08,4.72 l -.69.48 a 20.26,20.26,0,0,1,2.49-.13 l 0,.12,1-.95 c -10.26-22-34.51-4.62-34.51-4.62,5-1.52,11.29,8,17.76,10.69 C 206.31,452.56,206.93,452.13,207.55,451.75Z"/>
    <path d="M 221.75,441.75 c -3.9-6.24,1.26-20.51,1.26-20.51 s -6.86,12-4,21 c 1.75,1.46,1.71,1.87,2.67,4.43 a .55.55,0,0,1-.1.06 c .28.07.55.15.84.21.34-.43.64-.85.95-1.27 l -.25.18 a 6.7,6.7,0,0,1-.55-2.34Z"/>
    <path d="M 215.11,439.14 c -4.44-9,2.28-20.17,5.15-23.65 a 19.59,19.59,0,0,0,4-7.07 c 2.92,3.56,5,8.21,5.4,15.2,0,.33,0,.67,0,1,.64-.57,1.22-1,1.72-1.44 a 26.78,26.78,0,0,0-7.59-17.36 c -1.26,7.27-10.57,12.9-11.89,22.45 a 22.77,22.77,0,0,0,.49,9.41 A 21.82,21.82,0,0,1,215.11,439.14Z"/>
    <path d="M 223.13,445.86 s -18.43-16-11.35-38 c 2.2-6.32,10.52-5.31,5.59,5,.84-4.85-.89-8.32-3.63-3.48 S 210.86,429.71,223.13,445.86Z"/>
    <path d="M 223.42,446.72 S 212.89,428.87,200.8,427 s -7.4,10.51.2,7.57 c -2.19-.45-7-2.12-3.46-5 S 215.51,434.85,223.42,446.72Z"/>
    <path d="M 223.42,446.72 s -10.08-9.23-16.8-6.87-3.45,6.29-1.26,6.74 a 4,4,0,0,0,3.68-1.45 s -3.12,1.06-4-.77 C 204,442.05,211.22,437.62,223.42,446.72Z"/>
  </g>
<script type="text/ecmascript" xlink:href="param.min.js"/> 
</svg>
