<?xml version="1.0"?>
<svg xmlns="http://www.w3.org/2000/svg" xmlns:xlink="http://www.w3.org/1999/xlink" viewBox="0 0 600 1032.36">
  <title>HW007</title>
  <g id="main-colour">
    <path d="M 215.41,377.53 s 13.17-10.83,34.17-7.33 c 10.17-10,36.33-19.67,62.33-18 s 52.17,13.5,63,34.67 c 18.5,7.17,40.83,34.5,44.08,78.5 s -31.75,88.25-60.5,94 c 12-15.75,15.25-39,12.75-51 s -22.75-59.75-93.75-47.5 c -11.5,13.75-35.25,20-35.25,20 s -37.25,39,.75,80.75 c -7-1.75-61.5-27.75-63.25-96.25-18.75-22.75-13.5-49-2.75-65.25 S 201.33,375.45,215.41,377.53Z" fill="param(main_colour)"/>
  </g>
  <g id="outline">
    <path d="M 265,372.61 c -30.33-12-49.25,2.75-49.25,2.75 s -31.33-4-47,37.33 c -14.84,39.16,19.5,79.67,60.5,72.67 s 57.83-25,62.83-49 C 296.94,413,287.66,381.58,265,372.61Z M 243.08,479 c -21.67,6.67-48.93,7.09-65.33-20-14.33-23.67-7.33-47,2.33-60.33,9.55-13.17,21.33-19.67,32.33-20.33,0,0-38.42,33.75-1.42,65,12,10.15,45.28,4.9,47.5-19.75,2.5-27.75-22.56-36.89-33.25-29-10.5,7.75-5.18,21.35,6,19.75,7-1,8.08-10.75,2.75-9.75,3,1.67.57,5.5-2,6.5-4.5,1.75-14.95-3.52-5.5-12.75,7.33-7.17,28-3.25,29,23.75.45,12-14.25,24.25-30.75,23-22-1.67-34.25-30.25-20.67-52.08,15-24.18,36.17-23.83,53.17-19.17 s 30.17,16.83,31.5,48.83 S 264.74,472.36,243.08,479Z"/>
    <path d="M 245.41,480.7 s -13,13-17.33,31.17,5.83,38,19.83,53.33 c -12.67-3.33-41.17-21.17-55.33-46.5 s -14.67-46.67-14.5-56.33 a 9,9,0,0,0,2.83,2 s -2.83,62.5,59,95 c -13.33-14.5-18.67-34.17-14.33-50 s 15.5-28.83,15.5-28.83Z"/>
    <path d="M 289.74,405.86 s 28.5-27,60-26,50,17,61,44.5,19.67,64.67-11,107 c -12.67,16.67-32.75,29.5-45,30.25,8.5-9.5,17.75-33.5,16-47 s -13-36.75-38.75-48.25-57-2.75-57-2.75 l 3.75-4.75 s 26.75-6.25,55.25,4.75,39,39.75,39.75,49.75-.25,25-12.25,44.25 c 18.25-8.75,38.75-25.75,48.5-51.5 s 10.5-48-1.5-78-29.75-42-54.75-44-47.25,10.75-63,26.25 A 11.56,11.56,0,0,1,289.74,405.86Z"/>
    <path d="M 246.74,368.86 s 24.5-20.5,62.75-18.75 c 35.74,1.64,59.5,18.75,69.58,39.25-3.33-1.67-6.33-3-6.33-3 s -11.5-21.75-42.75-29.5 c -28.89-7.16-59.75.5-78.25,13Z"/>
    <path d="M 274.49,379.61 s 35.5-26,78.5,2.25 a 17.27,17.27,0,0,1-5.75.25 s -32.5-21-70,.25 A 20.33,20.33,0,0,0,274.49,379.61Z"/>
    <path d="M 290.74,413.36 S 312.08,397,344.41,399 s 56.67,36.67,59,69.67-8.67,62-24,79 a 32.58,32.58,0,0,1-4.67,3.33 s 22.33-26,24.67-66.33-17-66.33-37.67-76.67-51.33-4.67-70.67,9 A 18,18,0,0,1,290.74,413.36Z"/>
    <path d="M 288.74,440 s 55.67-20.67,111.33,19.33 c -.67-3.33-1-4.67-1-4.67 S 355.74,417,289.08,437 A 12.9,12.9,0,0,0,288.74,440Z"/>
    <path d="M 334.08,433 s 77.33,54.67,30.33,118.67 c -2.33,2.67-4.33,5-4.33,5 s 11.67-6.67,20.33-31-3.67-64.67-41.33-92.33 A 45.27,45.27,0,0,0,334.08,433Z"/>
    <path d="M 374.08,442.7 s 18,28.67,13.67,59.33-16.33,47-27.33,56 a 3,3,0,0,0,3.67.33 S 415.41,505.7,378.41,444 A 22.67,22.67,0,0,1,374.08,442.7Z"/>
    <path d="M 230.41,483.36 s -22.67,21.67-19,57 a 17.66,17.66,0,0,1-3-2.33 s -5-30.33,18.33-54 A 10.26,10.26,0,0,1,230.41,483.36Z"/>
    <path d="M 198.08,478 s -6,29.67,8.33,56.33 L 200.08,528 a 101.12,101.12,0,0,1-5.33-51.33 A 8.9,8.9,0,0,0,198.08,478Z"/>
    <path d="M 210.08,523 a 45.2,45.2,0,0,0,17.67,13.33 c -.33-2-.67-3.67-.67-3.67 s -12.33-6-16.33-14 A 14.48,14.48,0,0,0,210.08,523Z"/>
    <path d="M 214.08,506 s 4.33,7,11.33,10.15 l .33-2.82 s -9.67-6.67-11-10.33 C 214.41,504.36,214.08,506,214.08,506Z"/>
  </g>
<script type="text/ecmascript" xlink:href="param.min.js"/> 
</svg>
