<?xml version="1.0"?>
<svg xmlns="http://www.w3.org/2000/svg" xmlns:xlink="http://www.w3.org/1999/xlink" viewBox="0 0 600 1032.36">
  <title>HW002</title>
  <g id="outline">
    <path d="M 227.83,467.45 s 5.29-27.25,27.28-41.78 c -13.44-7.59-24.37-16.16-31.08-28.8 s -7.31-26-7.06-34.13,1-25.38-1.19-29.29 c 3.58,3.22,10.06,5.27,16.54,7.81 s 23.12,9.06,31.81,24.71,14.13,37.38,10.24,50.24 c 9.22-4,29.46-11.32,49.18-1.59,5.38-16.09,10.92-27.44,23-40.68,7.59-8.21,15.76-14.88,21.08-13.51 s 7.29,5.71,13.07,8,12.39.55,17,1.92,6.56,5.58,5.51,12.23 S 395,409.4,382.55,419.84 c -1.23-4.87-4.78-11.76-4.78-11.76 s -9.37,9.17-34,18.45 c 10.67,7.83,22.32,18.47,27.83,40.5-6.27-8-23.28-23.74-32.17-29.33 s -17.62-9.09-39.41-9.51-36.63,7.54-44.53,13.08 S 235,458.31,227.83,467.45Z" fill="#fdfdfd"/>
    <path d="M 223.49,345.43 s 11.38,1.21,21.84,11 a 67.9,67.9,0,0,1,19.76,33.12 c 2.92,11.68,3.32,19.95,1.89,25.13 s -2.85,7-9.69,3.93 S 238.13,405.3,232.6,395.4 s -7.62-25-7.84-31.5 S 224.61,347.7,223.49,345.43Z" fill="#f4c9e5"/>
    <path d="M 361.56,371.72 s -11.39,8.91-19.12,19.19 S 328,414.59,331.85,419 c 1.65,2,7.46.65,17.69-4.21 s 23.68-13,23.68-13 S 363,382.45,361.56,371.72Z" fill="#f4c9e5"/>
    <path d="M 397.33,368.5 c -5.19-.44-13.8,1.8-21.26-4.25 s -11.14-7-18.78-1.73-26.67,25-34.05,51.51 a 54.32,54.32,0,0,0-47.26.39 c 4.05-17.43-6.29-43.72-14.21-54.27 s -23-18.35-31.44-20.91-15.44-7.1-15.93-8.11 c 2.64,7.91,2.14,22.1,1.69,30.29 s -.61,29.68,15.35,48 c 7.43,9,22.17,16.25,22.17,16.25 s -23.2,15.2-27.31,46.28 c 0,0,21.44-36.83,61.26-42,29.08-3.81,46.22,5,55.68,11.47,10.25,7,27,23.56,30.49,30.58-2-15.58-10.32-32.24-27.65-44.91,12.32-3.81,31.28-17.09,31.28-17.09 a 28.67,28.67,0,0,1,4.21,12.12 c 10.94-6.62,18.76-24.15,22-36.22 S 402.53,368.94,397.33,368.5Z m -25.42,32.9 c -3,2-20.37,11.75-28.89,15.19 s -16.23,6-7.41-12.54,25.2-30.31,25.2-30.31 C 362,381.65,366.19,391.27,371.91,401.41Z m 30.34-21.87 c 0,8.7-9.7,29.91-19.16,39-2-9.21-5-12.23-7.77-17.34 S 362,376.65,362.58,364.16 a 15.42,15.42,0,0,0-1.75,6.58 s -25.72,18.61-31.19,43.46 c -1.23,4.59-.36,8.89,9.85,5.87 s 33.9-16.65,33.9-16.65,2.08,3.21,2.87,4.32 c -6.43,4.65-21,15.63-38.86,20,4.5-.47,5.67-.11,5.67-.11 a 67.76,67.76,0,0,1,27.59,36.53 c -18.76-21.58-36.41-37-71-37.43 S 238,450.24,229.15,465.07 c 0,0,6.91-25.3,27.09-38.45 A 22.74,22.74,0,0,0,263,428 s -16.84-6.91-26.77-17-14.15-19.69-16.95-34.5,1.23-32.47-1.92-40.39 c 5.27,4.13,13.76,4.69,25.9,11.68 s 23.46,17.85,30.16,45.69 c 2.33,10.31.23,24.79-1.2,29 a 34.14,34.14,0,0,0,3.84-6.37 s 25.18-10.93,46.88-.37 a 59.75,59.75,0,0,0-.76,8.09 s 5-20.65,13.83-34.18 S 354,366.9,358.18,364.33 s 9-4.43,13.3-.81,9.14,7.46,18,7.82 S 402.21,370.84,402.25,379.53Z"/>
    <path d="M 222.83,344.42 a 109.63,109.63,0,0,1,1,15.93 c -.06,9,1.15,25.66,9.73,38 s 19.72,19.86,25,21.76,8.52.79,9.57-5.86,1.35-20.91-7.91-40.1 S 232.42,345.36,222.83,344.42Z M 264,419 c -4.95,2.43-19.53-8.33-27.91-20 S 225.39,368.89,225.32,361 a 112.17,112.17,0,0,0-1.23-15 c 20.48,5.54,32.83,21.88,38.7,38.92 S 267.1,417.29,264,419Z"/>
  </g>
<script type="text/ecmascript" xlink:href="param.min.js"/> 
</svg>
