<?xml version="1.0"?>
<svg xmlns="http://www.w3.org/2000/svg" xmlns:xlink="http://www.w3.org/1999/xlink" viewBox="0 0 600 1032.36">
  <title>HW008</title>
  <g id="main-colour">
    <path d="M 337,436 c -.5-7.37-4.75-10.87-8.89-11.37 a 10.34,10.34,0,0,0-12.24-10 c -1.73-10-10.75-8.12-10.75-8.12 s 2.13-3.25,4.13-3.5 c -1.75-1.62-4.37-1.62-7,.5,1.13-4.75-2.37-11.37-2.37-11.37 s -3.12,6.25-2.12,12 c -5-4-7.75-1.87-7.75-1.87 s 1.75.5,4.38,4.25 c -4.75-1-10.75,1.88-11.5,7.75-7.75-.75-11.25,4-12,9.88-7.37.5-9.62,6.25-8.5,12.13-7.5,6.88-1.25,12.88-1.25,12.88,4.13-4.12,22.63-14.87,38.63-14.87 s 31.25,7.88,39.63,15.13 C 343.87,441.74,341.12,437.74,337,436Z m -74.92,8.71 c -1.25-3.17,1.58-5.25,1.58-5.25 l 1.08,2.92 A 14.49,14.49,0,0,0,262.08,444.7Z m 5.92-5.08 a 8.83,8.83,0,0,1-1-7.33,6.07,6.07,0,0,1,4.83-4.33 s 1.33,5.33,3.25,7.58 C 272,436.45,268,439.61,268,439.61Z m 11.67-6.5 c -5-7.42-3.58-11.33-1.5-12.92 a 6.51,6.51,0,0,1,4.92-.92 A 16.41,16.41,0,0,0,290.33,430 C 288.41,430.2,282.66,431.2,279.66,433.11Z m 20.08-2.87 s -7.75-1.87-10.5-8.12.88-9.87,3.75-10.12 a 8,8,0,0,1,6.75,3.38 c 2.13-2.62,5.13-4.5,8.38-2.62 S 314.49,425,299.74,430.24Z m 20.63,3.13 A 34.37,34.37,0,0,0,309.12,430 a 16.36,16.36,0,0,0,7-11 c 3.75,0,6.57,2,7.25,6.38 S 320.37,433.36,320.37,433.36Z m 11,5.88 a 69.09,69.09,0,0,0-6.87-4 c 1.75-2.25,3-7,3-7 C 336.39,431.86,331.37,439.24,331.37,439.24Z" fill="param(main_colour)"/>
  </g>
  <g id="outline">
    <path d="M 337.87,435.43 c .46-5.62-4.56-11.4-8.81-11.55-.15-7.45-7.29-11.09-12.31-10.18-1.52-8.66-10-8.05-10-8.05 s 2-2.43,4.1-2.43 a 5.72,5.72,0,0,0-7.9-1.52 c .76-5.47-3-11.41-3-11.41 s -3.51,6.54-2.9,12.17 c -4.36-3-9.27-.61-9.27-.61 s 3.65.91,4.86,3.65 c -4.1-.46-9.73,2-10.33,7.75-6.54-1.52-11.85,4.26-12,10-5.32,0-10.18,4.56-8.81,12.46-8.21,9-.61,14.13-.61,14.13 s 20.43-14.67,38.93-14.5 c 19,.17,31.74,9.34,39.8,15.11 C 345.16,443.49,342.43,437.25,337.87,435.43Z m 1.22,12.92 a 60.39,60.39,0,0,0-39.17-15.15 c -21.14-.18-38.49,15-38.49,15-3-3.34-2.58-7.75,2.08-11.86-1.72-5,2-11.54,8.4-11.39.46-6.69,5.77-11.09,12.14-9.7,0-5.35,5.79-10.36,12.62-6.72-1.07-3.65-5.36-6.38-5.36-6.38 s 3.4,0,7.38,3.65 c -1.2-4.55,1.2-11.85,1.2-11.85 s 3,6.38,1.45,11.55 c 3.6-4.86,6.64-2.43,6.64-2.43 a 8.44,8.44,0,0,0-5,5.56 c 3.59-2.83,11.94-.93,12.24,6.6,8.14-.37,11.85,4.71,12.31,9.73,3.65.34,9.23,5.75,8.89,11.53 C 345,440,339.08,448.35,339.08,448.35Z"/>
    <path d="M 299.77,414 c -5.17-5.5-12.91-3.31-12.36,4.67.67,9.67,12.17,12.17,12.17,12.17 s 11.33-2.25,12.17-11.83 C 312.49,410.4,303.43,408.53,299.77,414Z m 9.23,8.58 c -2.58,5.08-9.33,6.67-9.33,6.67 s -6.67-1.33-9.33-6.92.17-9.5,3.58-9.33,5.75,3.17,5.75,3.17,2.67-3.25,6.08-3.17 S 311.58,417.53,309,422.61Z"/>
    <path d="M 283.83,418.36 s -5.17-1.08-7.25,2.58 c -1.74,3.06-1.17,7.83,2.75,13.17 a 34.56,34.56,0,0,1,13-3.67 C 284.16,425.86,283.83,418.36,283.83,418.36Z m -1.33,1.42 a 14,14,0,0,0,6.08,9.75 c -3.5.17-8.75,2.83-8.75,2.83 S 272.24,420.45,282.49,419.78Z"/>
    <path d="M 272.41,427.28 s -3-.77-5.42,3 c -2.5,3.92.67,10.25.67,10.25 A 61.74,61.74,0,0,1,276,435.7,18.34,18.34,0,0,1,272.41,427.28Z m -1.08,1.25 a 16.67,16.67,0,0,0,2.67,6.75 s -4,1.58-5.83,3.5 C 264.83,430.61,271.33,428.53,271.33,428.53Z"/>
    <path d="M 263.91,438.45 c -4.08,3.83-2.08,7-2.08,7 s 2.08-1.92,3.58-3 A 15.52,15.52,0,0,1,263.91,438.45Z m -1.75,5.67 a 4.69,4.69,0,0,1,1.33-4.08,6.25,6.25,0,0,0,.75,2.08 A 16.56,16.56,0,0,0,262.16,444.11Z"/>
    <path d="M 306.94,430.45 a 39.87,39.87,0,0,1,14,3.92 c 3.92-5.33,4.25-10.33,1.78-13.42-2.64-3.29-7.25-2.58-7.25-2.58 S 315.11,425.86,306.94,430.45Z m 13.3,2.08 s -6.05-2.83-9.55-3 a 14,14,0,0,0,6.08-9.75 C 327,420.45,320.24,432.53,320.24,432.53Z"/>
    <path d="M 323.41,435.45 a 49.61,49.61,0,0,1,8.33,4.58 s 3.25-5.33.42-9.17 c -2.51-3.4-5.3-3.58-5.3-3.58 A 16.83,16.83,0,0,1,323.41,435.45Z m 7.75,2.92 a 28.47,28.47,0,0,0-5.89-3.08,17.68,17.68,0,0,0,2.64-6.17 S 334.54,431.28,331.16,438.36Z"/>
    <path d="M 334,441.86 c 1.5,1.08,3.92,3,3.92,3 s 3.25-3.5-2.08-6.67 A 23.43,23.43,0,0,1,334,441.86Z m 1-.25 a 14.73,14.73,0,0,0,1.17-2.25 c 2.67,2.17,1.33,4,1.33,4 S 335.91,442.28,335,441.61Z"/>
  </g>
  <g id="misc-objects">
    <polygon points="298.65 393.65 298.34 389.08 299.41 393.45 300.26 391.88 299.91 393.66 302.68 393.31 299.93 394.3 301.37 395.27 299.55 394.71 299.69 398.71 298.87 394.83 297.56 396.29 298.43 394.65 294.93 394.58 298.27 393.96 297.08 392.55 298.65 393.65" fill="#fff"/>
    <polygon points="315.31 414.52 316.85 411.7 315.83 414.69 316.93 414.08 316.05 415.01 317.83 415.84 315.82 415.39 316.31 416.51 315.44 415.5 314.02 417.92 314.99 415.31 313.66 415.68 314.8 415.03 312.74 413.68 314.96 414.57 314.79 413.28 315.31 414.52" fill="#fff"/>
    <polygon points="270.97 423.66 269.75 418.82 271.75 423.3 272.36 421.45 272.32 423.43 275.23 422.51 272.47 424.12 274.2 424.88 272.15 424.62 273.08 428.89 271.44 424.89 270.32 426.71 270.93 424.78 267.16 425.39 270.63 424.07 269.08 422.79 270.97 423.66" fill="#fff"/>
    <polygon points="335.68 438 336.2 435.5 336.12 438.01 336.82 437.3 336.36 438.2 337.9 438.43 336.27 438.55 336.9 439.28 336.01 438.71 335.49 440.88 335.62 438.67 334.7 439.26 335.42 438.51 333.55 437.95 335.44 438.11 335.01 437.18 335.68 438" fill="#fff"/>
    <polygon points="267.15 440.13 266.36 436.94 267.66 439.89 268.07 438.68 268.04 439.98 269.96 439.38 268.14 440.43 269.28 440.94 267.93 440.77 268.53 443.58 267.46 440.94 266.71 442.14 267.12 440.86 264.64 441.26 266.93 440.4 265.91 439.55 267.15 440.13" fill="#fff"/>
  </g>
<script type="text/ecmascript" xlink:href="param.min.js"/> 
</svg>
