<?xml version="1.0"?>
<svg xmlns="http://www.w3.org/2000/svg" xmlns:xlink="http://www.w3.org/1999/xlink" viewBox="0 0 600 1032.36">
  <title>HW009</title>
  <g id="main-colour">
    <path d="M 243,562.11 S 209.08,547,193.91,516.86 a 37.55,37.55,0,0,0-4,1.83,53.55,53.55,0,0,1-1.5-13.33 c -7-14.83-8-24.33-8-24.33 s -7,.17-13.17-8-7.67-12.17-16.67-12.5 c 5.17-8.5,20.17-26,37-31-.67-2.5-2.83-4.17-6.5-7 s -20.5-17.5-18.17-26,22-21,46.5-1.83 C 225.74,378,239.74,371,255.08,367.2 c 11.33-11.33,23.67-20.83,36.17-6.5,19-2,71.5,1.5,101.5,37.67 s 30.67,84.67,19,111 S 378,554,360.49,557.86 c 8.17-14.17,14.92-34.5,12.92-48.17 s -8.83-22.5-25.5-31-37.67-18.83-39.83-26.33 c -8.67,3.5-31.67,11.17-44.67,16.83 s -36.17,22-38,46.33 a 58.21,58.21,0,0,0,12.83,40.58Z" fill="param(main_colour)"/>
  </g>
  <g id="outline">
    <path d="M 239.41,375 c 3.62-1.54,7.8-3.08,12.42-4.52 a 82.38,82.38,0,0,1,5.23-6.81 c -20.46,5.94-36.59,16.16-48.78,28.77.91.77,2,1.69,3,2.66 C 219.82,386.2,229.49,379.24,239.41,375Z"/>
    <path d="M 300.08,358 c -3.53,0-7,.09-10.33.27 a 26.65,26.65,0,0,1,3,4.7,139.08,139.08,0,0,1,71.34,15 c 47,23.67,59.67,91.67,49.33,121 s -31.5,51.83-50.83,59.17 c 10-13.33,15.83-40.5,10.5-56.83 s -20.67-21.67-29.33-26.67-30-14.67-34-21 c 11-3,24-2.33,24-2.33 s -11.74-4.07-28,0 c -16,4-41.67,13.67-54.33,22.33 s -23.61,18.76-27.33,39 c -4.08,22.17,7.67,38,14.79,46.29,0,0-26.28-12.42-43.33-43.13-1,.54-2.19,1.17-3.29,1.84,21.73,37.15,56.43,48.91,55.5,47.49-6-9.17-23.67-25.67-20.67-49,2.93-22.81,19-36.48,38-45.82,16.08-7.9,25.17-10.75,42-15.33,6.33,8,15.67,11.33,47,28.67,26.62,14.73,18.83,56.5.67,78.17,33.72-7.48,60.1-43.5,65.43-76.5 C 425.34,453.42,411.08,359.36,300.08,358Z"/>
    <path d="M 188.88,501.7 A 118.08,118.08,0,0,1,184.74,489 c -5.21-19.63-3.14-39.42,3.49-57.05 a 14.38,14.38,0,0,0-2.13-4.92 c -10.61,26.84-10,56.29-.35,78q1.34,3,2.78,5.85 A 61.86,61.86,0,0,1,188.88,501.7Z"/>
    <path d="M 211.59,509.72 l -4.22.92 a 47.16,47.16,0,0,0,2,10.39 c 10.82,34.31,31,41.33,31,41.33 s 1,0-.33-2 A 69.12,69.12,0,0,1,211.59,509.72Z"/>
    <path d="M 267.7,443.19 c -2-.68-4-1.4-5.56-2 A 90.55,90.55,0,0,0,223.8,467 c -.55,1-1.15,1.93-1.8,2.87-2.64,3.77-8.69,12.1-9.68,25.18 a 37.43,37.43,0,0,1,4.77-13 C 224.83,469.68,242.09,451.88,267.7,443.19Z"/>
    <path d="M 395.08,500.36 c -.29-19.73-13.33-37.33-40-51.67 C 337.93,439.48,322,435,303.54,434.94 a 9.4,9.4,0,0,1-.17,3.16 c 40.88,1.23,62.42,19.33,76.71,34.26,14.67,15.33,12.67,38.67,7,53.33 C 378.15,548.81,363.41,556,363.41,556 l -1.33,3.33 C 379.08,555,395.41,522.7,395.08,500.36Z"/>
    <path d="M 378.41,426.7 s 57.08,57.67-6.33,124.67 c -4.33,3.33-4,5.67-4,5.67 s 23.22-11.37,34.67-47.67 C 414.49,472.11,397.08,442.36,378.41,426.7Z"/>
    <path d="M 224.24,547.11 s -13.67-12.6-20.43-35.71 l -4.19,1.36 c 4.18,13.24,12.3,27,26.46,40.27,4.33,3.33,5.17,4.08,5.17,4.08Z"/>
    <path d="M 236.85,414.76 A 9.47,9.47,0,0,0,225.29,417 c -5.34,5.8.93,22.27,15.29,18.56 s 10.65-21,5.61-23 c -8.42-3.47-12.32,1.9-13.41,9.07,4.45-7.51,10.51-9.45,13.45-3.26 s .57,12.75-7,14.75 c -8.5,2.25-14.39-7.61-12.5-12.5 s 8.72-3.37,8.72-3.37Z"/>
    <path d="M 238.24,413.61 s -.75-33,21.75-53.75 c 23.61-21.77,42,3.75,36,22.75-5.93,18.78,1.63,32.57,6.5,44.75,3.5,8.75,3.56,27.22-32.25,17.75-22.94-6.07-25.5-13.75-25.5-13.75 l 1.71-2.21 s 6.43,8.81,25.7,13.45,28.41,1.72,28.8-6.55-9-20.92-10.13-35.53,6.05-20,1.89-32.84 C 288.94,356,276.35,347.17,259.2,365 s -18.64,48.55-18.64,48.55Z"/>
    <path d="M 284.67,354.32 s 2.57,13.54-11.68,25 c -12.64,10.2-29.08,17.44-31.58,34.45 a 6.64,6.64,0,0,0,1.86.34 s .37-8.57,12.37-18.53 S 288.58,378,286.83,355.3 C 285.15,353.1,284.67,354.32,284.67,354.32Z"/>
    <path d="M 246.85,414.7 S 268.69,406.15,279,391 c -6.69,13.29-30.66,27.33-30.66,27.33Z"/>
    <path d="M 248.93,424.21 a 55.49,55.49,0,0,0,27.09,9.5 c -8.76-2.41-23-9.88-27.27-14.48 A 36,36,0,0,0,248.93,424.21Z"/>
    <path d="M 230.74,414.86 s -12.52-20.29-32.15-28.73-34.1,1.48-36.85,9.48 c -4.1,11.92,19,27.6,24.5,33.25 s -2.15,36,8.25,43.25 c 9.75,6.75,33.72-8.23,40-38.25-1.14.4-2.66-.68-2.66-.68 s -4,17.15-14.66,28.46-23.24,12.5-25,.31.31-30.92-4.57-35.76-28.28-22-22.08-31.16,31.7-19.48,63.44,20.47 C 229.59,415.74,230.74,414.86,230.74,414.86Z"/>
    <path d="M 228,417.37 s -10.84-11.92-30.2-11.26-30.09,2.26-36.31-7.45 c 1-1.57,1.44-2.13,1.44-2.13 s 5.18,7.86,17.83,7.83,29.33-5.67,49.16,11.64 C 229.67,416.62,228,417.37,228,417.37Z"/>
    <path d="M 225.1,421.17 s -12.48-4.41-30.37-.65 c 11.14-.47,30.67,3.86,30.67,3.86Z"/>
    <path d="M 228.32,430.28 A 40.73,40.73,0,0,1,206.06,450 c 8.07-4.88,18.66-17.36,19.83-23.65 A 15.83,15.83,0,0,0,228.32,430.28Z"/>
    <path d="M 232.08,440.36 s 3.33,13-7.33,28.33-12.92,34.33-8.25,43.67 c -10-2.67-27.75,9-27.75,9 s -7.5-24.92,10.5-49.25 a 28.72,28.72,0,0,0,3.17-.08 S 185,495.2,191,516.86 c 9.33-6.67,20.75-8.17,20.75-8.17 s -2.67-16.83,4-29.83,14.33-20.17,13.33-33.17 A 35.57,35.57,0,0,0,232.08,440.36Z"/>
    <path d="M 209.41,473.7 s -11.67,12.85-6.33,29.33 C 202.41,493.36,205.41,483,209.41,473.7Z"/>
    <path d="M 187.08,427.7 s -24,6-39.33,34.33 c 7.67,0,12.33,2.71,16.33,9.38 s 11,11.29,16.67,12V478.7 s -6.25,2.42-11.5-5.58 c -4.43-6.75-10.5-13.83-16.5-13.5,7.33-13.67,29.58-27.5,34.25-28.5 A 5,5,0,0,1,187.08,427.7Z"/>
    <path d="M 182.74,441.36 s -10,5-14,13.33 a 34.77,34.77,0,0,1,13.67-9.33Z"/>
    <path d="M 291.49,389.11 c -2.75,11.5-7.25,20.75-4.25,32-.25-10.75,4.25-25.75,6.5-31.25 C 294,385.36,291.49,389.11,291.49,389.11Z"/>
    <path d="M 185.24,424.11 c 5.25,4.5,13.75,10,12.5,18.75-1.75-7-6.75-11-12.5-16 C 182.74,424.11,185.24,424.11,185.24,424.11Z"/>
  </g>
<script type="text/ecmascript" xlink:href="param.min.js"/> 
</svg>
