<?xml version="1.0"?>
<svg xmlns="http://www.w3.org/2000/svg" xmlns:xlink="http://www.w3.org/1999/xlink" viewBox="0 0 600 1032.36">
  <title>HW010</title>
  <g id="main-colour">
    <path d="M 240.49,559.86 s -24-7.25-43.75-37.75-24-71-.5-111.25,79.25-56.75,128-49,93.25,44.25,94.5,109.5 c 0,46.75-38,82.5-59.5,87.75,11.25-15.75,13.5-29.75,13.75-37 s -2.75-28.25-19.75-44 S 312,457.36,287.49,459.36 s -44.5,16.75-55.25,35.75 a 50.61,50.61,0,0,0-3,44.79 C 232.74,548.11,240.49,559.86,240.49,559.86Z" fill="param(main_colour)"/>
  </g>
  <g id="outline">
    <path d="M 403.24,409.36 c -26.25-47.75-92-54.75-124-50 s -82,19.5-98.5,85 c -9.75,34.5,5.5,96.92,67,120.83,0,0-21-22.83-21-42.83 s 17.75-61.75,72.75-61.75 S 371,502.36,371,521.86 c 0,11-8.63,30.38-16.25,40,23-3.5,46.5-27.25,56.5-49.25 S 429.49,457.11,403.24,409.36Z M 361.41,558 c 14.5-21.5,14.08-39.42,12.08-49.42 s -14.5-34-37.5-44-54.5-10.25-76,.75-37.75,35.75-36.75,55.75,16.5,38.25,16.5,38.25-24.25-9.5-43-40-18.85-61.8-10.33-85.67,29.75-53.42,67-65.67,83.4-4.36,106.67,6.33 c 24.67,11.33,58.33,46.08,57.33,102.33 C 416.16,511.2,388.91,544.53,361.41,558Z"/>
    <path d="M 223.41,523.36 c -.83-19.62,8.08-59.25,40.66-76.33,40.15-21.05,84.17-.92,98.28,24.89,13.2,24.15,13.18,40.59,12.36,53.81-1.69,2.77-3.72-3.87-3.72-3.87 s 4.07-29.27-13.75-52.75-39.45-28.33-57.75-28.25-45.5,7.75-62.65,36.69 c -10.1,19.06-10.1,44.81-10.1,44.81Z"/>
    <path d="M 208.74,537.86 s 3-29.75,23.5-55.25 c -1,3.33-1.5,5.42-1.5,5.42 s -16.33,22.33-19.67,51.67 C 208.74,537.7,208.74,537.86,208.74,537.86Z"/>
    <path d="M 235.49,477.11 s -23.25,11-43.5,36.75 c 1.33,3.48.75,2.32.75,2.32 S 210.08,493,234.08,480.7 C 235.08,476.7,235.49,477.11,235.49,477.11Z"/>
    <path d="M 220.41,384.7 s 40.39-16.63,104.67-3.33 c 60.42,12.5,76,30.33,76,30.33 l 2.67,5.33 s -25.25-27.17-102-36.17 c -43.75-5.75-80.5,4.75-88.67,9.5 A 31.8,31.8,0,0,1,220.41,384.7Z"/>
    <path d="M 180.24,478.36 s 28.5-79.5,115.5-99.5 a 12.78,12.78,0,0,1,5.75,1.25 s -86.25,14.25-120.75,102.75 A 8,8,0,0,1,180.24,478.36Z"/>
    <path d="M 206.74,436.61 s 37-10,94,4 c 4-1,5-1.25,5-1.25 s -53-15.67-96.33-5.67 C 207.74,435.36,206.74,436.61,206.74,436.61Z"/>
    <path d="M 268.74,433.86 s 69-23.5,150.25,34 a 23.6,23.6,0,0,0-.25-3.5 s -78.5-59-155.5-31 C 265.24,433.61,268.74,433.86,268.74,433.86Z"/>
    <path d="M 332.74,385.36 s 40.75,14.75,66.5,69 l 3.5,2.5 s -11.43-40.5-60.93-70 C 337.31,386.36,332.74,385.36,332.74,385.36Z"/>
    <path d="M 361,436.86 s 50.75,48.75,9.75,102.5 a 23.15,23.15,0,0,0-4.5,7,67.25,67.25,0,0,0,22.5-42 c 5.05-39.33-23.5-66-23.5-66Z"/>
    <path d="M 396,452.36 s 26.5,63-32.75,101 c 1.25-3,1.75-4,1.75-4 s 52.5-31.75,27-99 C 393.24,449.86,396,452.36,396,452.36Z"/>
  </g>
<script type="text/ecmascript" xlink:href="param.min.js"/> 
</svg>
