<?xml version="1.0"?>
<svg xmlns="http://www.w3.org/2000/svg" xmlns:xlink="http://www.w3.org/1999/xlink" viewBox="0 0 215 215">
  <title>adult-accessory-template</title>
  <g id="misc_-_make_invisible_when_exporting" data-name="misc - make invisible when exporting">
    <circle cx="107.5" cy="107.63" r="3.33" transform="translate(-8.44 9.15) rotate(-4.69)" fill="none"/>
    <line x1="105.67" y1="107.63" x2="109.34" y2="107.63" fill="none" stroke="#eb008b" stroke-miterlimit="10" stroke-width="0.25"/>
    <line x1="107.5" y1="105.79" x2="107.5" y2="109.46" fill="none" stroke="#eb008b" stroke-miterlimit="10" stroke-width="0.25"/>
  </g>
  <g id="skin-tone">
    <path d="M 117.64,124.29 a 36,36,0,0,0,.29-6.17 A 10.28,10.28,0,0,0,115.3,113 c -1.29-1.5-3.92-5.37-3.92-5.37 h -.57 c 0-.09,0-.18,0-.27 a 3.33,3.33,0,0,0-6.64.27 h -.55 s -3.3,7.88-3.36,10.1,2.09,5.66,2.09,5.66 a 23.51,23.51,0,0,0,.81,4.69 c -1.28,4.28.72,6.13.72,6.13 a 5.23,5.23,0,0,0-.26,2.13,12.9,12.9,0,0,0,1.2,2,3.19,3.19,0,0,0-.35,1.66,2.29,2.29,0,0,0,1.64,1.69 c .74.19,1.23-1.33,1.23-1.33 a 1,1,0,0,0,1.23.86 c 1.15-.11,2.3-2.4,3.64-4.73 a 35.82,35.82,0,0,0,2.48-6.7 s 1.29,1.22,2.18.74 a 1.75,1.75,0,0,0,.83-2 A 21.83,21.83,0,0,1,117.64,124.29Z" fill="param(skin_tone)"/>
  </g>
  <g id="fixed-colours">
    <path d="M 108.38,141 s .39-1.56,1-1.87 a 1.22,1.22,0,0,1,1.07-.08 s -1,1.64-1.07,1.75 A 3.94,3.94,0,0,1,108.38,141Z" fill="#fff"/>
    <path d="M 105.49,141.32 s .76-1.28,1.08-1.74 a .91.91,0,0,1,1-.27 l -.12.9-.83,1.39 A 2.38,2.38,0,0,1,105.49,141.32Z" fill="#fff"/>
    <path d="M 117.28,127 a 1.77,1.77,0,0,0-.81,1 c -.2.67-.23,1.64,1,1.83 a 2.23,2.23,0,0,0,0-1.53 A 7.13,7.13,0,0,1,117.28,127Z" fill="#fff" opacity="0.5"/>
  </g>
  <g id="outline">
    <path d="M 117.49,115 c -.81-1.37-2.19-3.11-2.89-4.07-.38-.52-1.42-1.81-1.66-2.18-.44-.56-.34-2.45-1.49-3.61 a 6.07,6.07,0,0,0-.61,2.41v0 c 0,.07,0,.16,0,.23.27,1.74,2.64,4,3.77,5.59,1.43,2.09,2.62,3.9,2.68,5,0,.84-.33,5.93-.24,8.67 a 1.88,1.88,0,0,0-.8,1.72,1.26,1.26,0,0,0,.85,1.21,1.15,1.15,0,0,1-.75.27 c -.5,0-3.31-1.68-2.56-7.34-2.94-1.66-5.87-3.54-6.87-7.22.44,4.94,5,7.26,5.88,7.75 a 10.61,10.61,0,0,0,1.35,6.34,37.82,37.82,0,0,1-3.9,9.13,1.38,1.38,0,0,0-1.26.39,4,4,0,0,0-.75,1.62 c -.29,0-.53-.22-.51-.73-.17-1.09,3.53-9.37,3.53-9.37 s -.37-4.34-.53-6.37 c -1.62.34-3.62-.81-5-2 a 7,7,0,0,0,1.49,1.78,36.33,36.33,0,0,0,.26,5.87 c -.78,2-2.11,5.09-2.85,7.39 A 3.44,3.44,0,0,1,104,136 a 31,31,0,0,1,2.19-7.46 c -.41-.56-1.15-4.75-1.31-5.94,0,1,.31,3.59.53,5.87 a 47.11,47.11,0,0,0-1.58,4.67 c -1-1.75-.21-3.91.15-5.18 a 23.78,23.78,0,0,1-1-4.94 c -.58-.53-1.08-1.89-1.75-4 s .88-5.67,1.28-6.55 c .93-1.73,1.58-2.44,1.71-4.85 a 4,4,0,0,0-.7-2.53,3.77,3.77,0,0,0-.94,1.84,9.24,9.24,0,0,1-.88,3.41,28.13,28.13,0,0,0-2.22,7,9.41,9.41,0,0,0,2.37,6.17,19,19,0,0,0,.82,4.57,7,7,0,0,0,.78,6.69,12,12,0,0,0-.22,1.74,9.82,9.82,0,0,0,1.19,2,4.29,4.29,0,0,0-.2,1.67,2.37,2.37,0,0,0,2.59,1.86 c .18-.29.39-.66.55-.94 a 1.25,1.25,0,0,0,1.09.77 c 1.09.16,2.35-1.6,4.25-5.13 a 32.62,32.62,0,0,0,2.51-6,2.31,2.31,0,0,0,.83.3 c 1.75.38,2.5-1.67,2.19-2.55 s .19-6.74.44-8.46 A 8,8,0,0,0,117.49,115Z m -12.63,25 c -.41-.93,2.7-8.23,3.35-9.85 a 34.57,34.57,0,0,1-.29-5.45,4.29,4.29,0,0,0,2.13.7 s 0,2.31.41,5.34 c -.24.63-2.36,6.11-3,8.28-.33-.06-1.16,0-1.86,2.05 A 2.91,2.91,0,0,1,104.86,140Z m 1.53,1.41 a 1.39,1.39,0,0,1-.6-.19 c .19-.49.84-2,1.52-1.75,0,.11-.05.21-.06.28 s 0,.12,0,.18 A 6.18,6.18,0,0,1,106.39,141.42Z m 2.75-.69 a 2.4,2.4,0,0,1-.61.17 c .15-.47.69-1.94,1.6-1.78 C 109.54,140.12,109.14,140.73,109.14,140.73Z m 7.41-11.93 a 1.78,1.78,0,0,1,.52-1.48,5,5,0,0,0,.17,1.28,1.47,1.47,0,0,1,.08,1.06 C 117,129.64,116.57,129.49,116.55,128.8Z"/>
    <path d="M 105.18,117.72 a 7.26,7.26,0,0,1-.88,3.13 A 2.64,2.64,0,0,0,105.18,117.72Z"/>
  </g>
<script type="text/ecmascript" xlink:href="param.min.js"/> 
</svg>
