<?xml version="1.0"?>
<svg xmlns="http://www.w3.org/2000/svg" xmlns:xlink="http://www.w3.org/1999/xlink" viewBox="0 0 215 215">
  <title>HA006</title>
  <g id="skin-tone">
    <path d="M 111.19,131 c .94,1.29,3,.58,3.65-1.12 s .08-5,.08-5 a 4,4,0,0,0,2.76-1.42 c .88-1.29.91-3.37.58-5.21 s -3.67-3.75-5.17-5.21-1.69-4.83-1.69-4.83 l -.57-.6 h 0 s 0-.07,0-.11 a 3.33,3.33,0,0,0-3.33-3.28 h -.06 a 3.33,3.33,0,0,0-3.28,3.39 s -1.91,4.52-2.87,6.06-2,5.25-2.71,8.52-.46,5.19.54,7.06,2.79,1.29,3.83.6 c .83,2,2.92,1.52,4,.71 A 2.7,2.7,0,0,0,111.19,131Z" fill="param(skin_tone)"/>
  </g>
  <g id="fixed-colours">
    <path d="M 109.69,125.3 a 2,2,0,0,1-.12-1.21 c 0-.21.82-.43.82-.43 s 1-.35,1.57.28.4.9.4.9Z" fill="#fff"/>
    <path d="M 71.1,112.17 a 15,15,0,0,1,3.78-4.58 c 8-1.38,17.22.58,13.89,8.25Z" fill="#07dc78"/>
    <path d="M 73.22,118.93 s 9.13,5.39,8.57,10.23-4,7.74-12.45,10 a 19.9,19.9,0,0,0-9.13-7.19 c 1.24-3.87,2.49-8.44,5.67-12.72Z" fill="#f8bad3"/>
    <path d="M 76.12,136.7 S 87,141.58,86.39,147.38 c -.31,2.07-3.77,5.39-8.68,5.91-2.73-2.8-6.88-4.36-9.47-5,1.66-2.07,3.25-5.64,1.11-9.2,4.39-1,5.53-1.8,5.53-1.8Z" fill="#ffe60d"/>
    <path d="M 60.22,131.93 s 10.72,5,10.3,11.51 a 8.36,8.36,0,0,1-2.7,4.87 s -6.64-1.45-10.48-1.14 c 0,0,.75-8.76,2.57-14.34Z" fill="#07dc78"/>
    <path d="M 57.45,146.94 s 10.58.69,15.9,3.46,7.19,6.43,5.53,9.68-4.63,6.36-13.41,9.13 c -4.08-1.38-8.57-7.61-8.3-20.33Z" fill="#d342a6"/>
    <path d="M 74,119 s 7.78-.36,12.6,1.09 c -1.45,2-3.42,4.15-5.29,5.08 a 2.85,2.85,0,0,1-1.24-.73 s -.57-2.18-6.17-5Z" fill="#07dc78"/>
    <path d="M 81.45,126.54 A 17.54,17.54,0,0,1,88,129.39 c 2.44,2,3,4.1,1.35,6 a 15.25,15.25,0,0,1-7.78,4.25,38.28,38.28,0,0,0-5.08-2.9 s 6.22-3.37,5.29-8.92Z" fill="#88daf0"/>
    <path d="M 72.29,172.49 c 5.6-2.39,10.63-12.06,11.78-16.1 a 83.36,83.36,0,0,0,30.87-11.51,10.44,10.44,0,0,0,1.38-1 c 2.34-1.81,4.07-5.51,4.07-9.32,0-2.8-1.91-5.9-5.26-8.61.55,3.42-.65,4.83-1.54,5.38.08.1.17.2.24.3.88,1.31,2,4,.43,6.19-4,7.88-28.82,11.9-28.82,11.9 a 13.65,13.65,0,0,1-7.82,3.79 c 2.45,2.8,2.87,6.43-.66,9.54 s -11.1,6.12-11.1,6.12-5.6-.83-7.78-9.65-1.18-25,7.81-40.31 c 9.29-.69,29.71,3.94,35.34,5.23.55-3.8,2.1-3,2.55-4.06-5.59-1.61-25.34-7.88-33-7.94 a 24.15,24.15,0,0,1,4.15-4.84,40.32,40.32,0,0,1,6.33-.35 C 79,104.13,74,102.89,71,104.44 L 68,106 a 75.67,75.67,0,0,0-24.37,4.74 c -11.93,4.7-21.16,18.43-20.85,30.81.31,5.84,3,15.7,12.76,21.3,6.53,3.63,17.32,7.26,22.92,7.36 C 62.33,173.63,66.69,174.87,72.29,172.49Z" fill="#f3cd9e"/>
    <path d="M 86.08,121.19 s 1.11,4.37.62,7.14 a 33.16,33.16,0,0,0-5.45-2.11 A 60.21,60.21,0,0,0,86.08,121.19Z" fill="#f3cd9e"/>
    <path d="M 86.57,137.88 a 22.72,22.72,0,0,1-5,1.73,16.46,16.46,0,0,1,4,4.22,29.59,29.59,0,0,0,1-5.12Z" fill="#f3cd9e"/>
  </g>
  <g id="outline">
    <path d="M 35,155.79 c 2.28,2.14,8.71,3,8.71,3 l -.14-.69 A 28.53,28.53,0,0,1,35,155.79Z"/>
    <path d="M 120.94,132.76 c -.19-1.62-1-4.4-4.47-7.37,1.47-.46,2.37-1.4,2.75-3.69.42-2.5.25-4.74-1.92-6.08 a 9.87,9.87,0,0,1-3.49-3.08 c -1.68-2.93-1-6-1.79-6.61,0,0-1.24.61-1.18,1.64.08,1.4,0,4.88,2.08,6.84 s 4.44,2.91,4.86,4.8-.5,4.47-1.33,4.72 c -.45.14-2.32.42-3.94.65 a 1.48,1.48,0,0,0-.89-1.11,3.3,3.3,0,0,0-1.64.1,2.56,2.56,0,0,1,1.14-1.22,11.21,11.21,0,0,1,3.83-1.33 s -4.75.58-7.08-2.92 c 0,1.17,1,2.17,1.8,2.8 a 3.87,3.87,0,0,0-1.51.2,2.49,2.49,0,0,0-1.16-.43 c -1-.36-2.09-.74-3.27-1.12 a 1,1,0,0,0,0-.22 l -.13.18q-1.44-.46-3-.94 a 26.6,26.6,0,0,1,2.13-4.76,12.65,12.65,0,0,0,1.46-6.12,2.08,2.08,0,0,0-1.06-1.76 c -1,1-.48,4.5-2,7 A 31.66,31.66,0,0,0,98.83,118 c -2.78-.81-5.75-1.61-8.67-2.37.73-1.9,1.36-6.84-4.22-8.49 a 16.77,16.77,0,0,0-3.5-.6,9.3,9.3,0,0,0-13.65-2.26,68.89,68.89,0,0,0-26.36,5.59 c -14,6.15-20.12,19.44-20.88,30 s 4.57,19.06,14.32,24.6 c 8.36,4.74,18.52,6.8,22.64,7.37,7.37,6.19,15.68,1.83,19.29-2.41 A 62.41,62.41,0,0,0,84.94,158 c 16.67-3.83,25.94-8.06,30.87-11.75 C 121,142.37,121.44,137.13,120.94,132.76Z m -6.65-7 a 10.59,10.59,0,0,1-.09,3.87 c -.45,1.13-1.39,1.57-2.81.58 l -.17-4.43 C 112.21,125.76,113.3,125.77,114.28,125.72Z m -.91,12.84 c -3.61,5.5-22.27,9.17-26.37,9.92 a 4.42,4.42,0,0,0-.22-4.27 c .28-1.44.82-4.28,1-6,2.1-1,3.82-2.55,3.76-4.91 s -1.46-4-3.38-5.12 c 0-2.21-.19-4.51-.3-5.73,3.66.68,6.9,1.37,9.39,2 a 9.24,9.24,0,0,0,1,5.5,2.88,2.88,0,0,0,4.51.88 c 1,1.39,2.83,1.87,4.08.7 A 3.07,3.07,0,0,0,111,132 a 2.72,2.72,0,0,0,2.43.34 A 5.57,5.57,0,0,1,113.37,138.56Z M 85,142.09 c -.79-.82-1.55-1.53-2.26-2.16.89-.23,1.94-.52,3-.9-.13.93-.31,2.28-.48,3.33Z m -3.27-3 a 21.55,21.55,0,0,0-4-2.57 c 2.45-1.61,4.53-3.89,4.64-7 a 8.43,8.43,0,0,0-.21-2.22 c 4.81,1.27,7.53,3.92,7.47,5.88 C 89.51,136.56,84,138.47,81.77,139.1Z m 4.46-11.86 A 23.69,23.69,0,0,0,82.15,126 a 12.28,12.28,0,0,0,3.79-3.71 A 33.75,33.75,0,0,1,86.23,127.23Z m -5.35-2.81 a 14.71,14.71,0,0,0-4.48-3.84 c 2.73.39,5.42.82,8,1.26 A 10.42,10.42,0,0,1,80.88,124.43Z m -6.75-4.16 c 2.79,1.61,7.21,4.86,7.11,9.31,0,3.68-4.78,7.36-11.68,8.92 a 20.08,20.08,0,0,0-8.42-7.07,53.38,53.38,0,0,1,5.17-12.05 C 68.87,119.62,71.5,119.92,74.13,120.27Z M 60.71,132.88 a 19,19,0,0,1,6.35,4.52 c 4.74,4.8,1.89,8.93.75,10.23 a 58.54,58.54,0,0,0-9.71-1.41 A 77.5,77.5,0,0,1,60.71,132.88Z m -2.75,15 c 1.91.09,8.93.55,13.32,2.33,5.12,2.07,9.68,7.33,5.67,12-3.38,4-9.49,6-11.34,6.48-2.1-.75-4.11-2.82-6-6.62 C 58,158.62,57.55,153.49,58,147.86Z m 14.84,19 a 9.13,9.13,0,0,1-5.12,2.2 A 26.12,26.12,0,0,0,72.81,166.82Z m -.69-17.88 a 31.26,31.26,0,0,0-3.15-1 c 1.92-2.19,3-4.6,1.29-8.22 a 27.64,27.64,0,0,0,6-2.29 c 4.38,1.78,10.12,6.37,9.53,10.08-.51,3.19-5.81,4.92-7.66,5.44 A 16.18,16.18,0,0,0,72.11,148.94Z m 27.63-23.87.86.25 c -.33,1.16-.58,2.11-.58,2.11.54-.12,1.79-4.46,2.14-5.25 s 1.12-.88,2.15-.37 l -1.67,7.39 c -1.44,1.35-2.59.71-3.37-.78 a 6.53,6.53,0,0,1-.31-3.56 l .7.19-.26.25Z m 8-3 a 2.74,2.74,0,0,0-2.25.25,3.52,3.52,0,0,1,2.18.23 l -1,7.65 a 2.56,2.56,0,0,1-3.46-.89 l 1.7-7.54 a 2.51,2.51,0,0,1,2.91,0Z m 3.79,1.79 a 1.32,1.32,0,0,1,.54.79 l -2.16.3 a 1.84,1.84,0,0,1-.1-.92 A 3.37,3.37,0,0,1,111.57,123.84Z m -.83-2.23 a 3.21,3.21,0,0,0-.66.42 c -.48,0-1.12.15-1.35.48 a 9.1,9.1,0,0,1,1-.1,3,3,0,0,0-.34,3.35 c .4,0,.88,0,1.38,0v4.38 a 2.31,2.31,0,0,1-3.52,0 l 1-8.42 a 1.82,1.82,0,0,1,.65-.26 l .06,0 A 4.33,4.33,0,0,1,110.74,121.61Z M 87.95,110.42 c 1.1,1.31.35,3.73,0,4.68-8.37-2.14-15.68-3.78-15.68-3.78 A 14.26,14.26,0,0,1,75,108 C 81.71,107.18,86.62,108.83,87.95,110.42Z m -21.82-3.53 a 45.49,45.49,0,0,0-6.73,11.33,70.66,70.66,0,0,0-8.82.2,42.93,42.93,0,0,1,6.91-10.65 A 53.66,53.66,0,0,1,66.12,106.89Z M 35.8,162 a 26.83,26.83,0,0,1-2-9.46,22.69,22.69,0,0,0,.66,8.53 c -6.17-4.48-10.77-11.18-10.8-19.6 l 7.8-.69 s -4.76-.17-7.78,0 c 0-.38,0-.74,0-1.13 A 33.1,33.1,0,0,1,40.4,113.27 a 53.78,53.78,0,0,0-7.36,23,63.52,63.52,0,0,1,9.17-23.91,34.36,34.36,0,0,1,4.52-1.82 A 83,83,0,0,1,56,108.05 c -5.68,5.49-9.07,14.57-10.78,23.63 a 74.65,74.65,0,0,0-9.42-.38 c 4.17.4,8,1,9.27,1.18 a 80.82,80.82,0,0,0-1.25,13.89 c .79-12.06,3.54-21,6.45-27.31 H 59 a 85.11,85.11,0,0,0-3.51,10.1,93.11,93.11,0,0,0-3.76,23.25,22.1,22.1,0,0,1-5.37-.84 A 23.65,23.65,0,0,0,51.75,153 c 0,6.47,1.22,12.28,4.34,16.31 a 62.28,62.28,0,0,1-9.75-2.52 c -.6-1.76-1.81-5.61-1.81-8.06 a 29.4,29.4,0,0,0,.91,7.74 c -1.44-.51-3-1.1-4.57-1.79 A 34,34,0,0,1,35.8,162Z m 79.76-18.11 C 107,151.44,83.81,156,83.81,156 s -5.06,13.26-13.5,16.31 S 55.38,168.58,54,158.62 s 1.66-29.73,8.85-43.56 c 6.62-12.72,14.17-11.4,16.95-8.52 a 31.1,31.1,0,0,0-5.33.64 h 0 a 19,19,0,0,0-4.7,5.67 c 9.86,1.16,22.8,4.6,25.61,5.41,2.14.62,4.92,1.56,7.39,2.41 l -.25.33 a 2,2,0,0,0-.91,1.1 c -.16.42-.33,1-.51,1.54 l -.15.14 c -16.17-4.53-34.91-5.61-34.91-5.61-7.05,10.1-9.43,24.27-9.56,34 s 3.87,16.6,9.82,18 c 4.32,1,8.93-3.79,11.13-6.49 l .35-.29 c 3.28-3.36,3.08-6.72,1.13-9.45 A 22.55,22.55,0,0,0,83.66,152 a 12.79,12.79,0,0,0,1.85-1.48 c 15.79-2.83,24.31-6.57,27.73-9.87 a 7.8,7.8,0,0,0,2.28-5.31,6.21,6.21,0,0,0-1.08-3.57,4.14,4.14,0,0,0,.91-1.15,6,6,0,0,0,.4-3.16 A 11.21,11.21,0,0,1,115.56,143.88Z"/>
  </g>
<script type="text/ecmascript" xlink:href="param.min.js"/> 
</svg>
