<?xml version="1.0"?>
<svg xmlns="http://www.w3.org/2000/svg" xmlns:xlink="http://www.w3.org/1999/xlink" viewBox="0 0 215 215">
  <title>HA002</title>
  <g id="skin-tone">
    <path d="M 111.19,131 c .94,1.29,3,.58,3.65-1.12 s .08-5,.08-5 a 4,4,0,0,0,2.76-1.42 c .88-1.29.91-3.37.58-5.21 s -3.67-3.75-5.17-5.21-1.69-4.83-1.69-4.83 l -.57-.6 h 0 s 0-.07,0-.11 a 3.33,3.33,0,0,0-3.33-3.28 h -.06 a 3.33,3.33,0,0,0-3.28,3.39 s -1.91,4.52-2.87,6.06-2,5.25-2.71,8.52-.46,5.19.54,7.06,2.79,1.29,3.83.6 c .83,2,2.92,1.52,4,.71 A 2.7,2.7,0,0,0,111.19,131Z" fill="param(skin_tone)"/>
  </g>
  <g id="fixed-colours">
    <path d="M 109.69,125.3 a 2,2,0,0,1-.12-1.21 c 0-.21.82-.43.82-.43 s 1-.35,1.57.28.4.9.4.9Z" fill="#fff"/>
    <path d="M 117.09,112.87 S 115.63,108,119,100.42,134.49,97,134.49,97 s 3.21-8.16,10.89-10.3,17.59.87,19.24,12.05 c 9.62,1.85,15.65,6.41,16.33,14.09 s -3.6,13.9-7.48,15.65 c 4.47,5.83,6.71,16.52-7.09,21.48.49,6.71-3.11,13.61-8.55,15.06 s -13-5-13-5-8.07,6.51-14.68,3 a 12.74,12.74,0,0,1-7-9.72 s -8.94-2.43-10.4-7.48 a 16,16,0,0,1,.49-11.08 c 1.72-2.69,1.82-8.41,1.82-8.41 a 5.36,5.36,0,0,0,3-3.55 c .87-2.82,1-5.32.28-6.39Z" fill="#faedf4"/>
    <path d="M 102.19,121.56 a 45.7,45.7,0,0,1-13.62-4.91 c 2.4,2.6,9.31,4.69,9.31,4.69 S 87.36,119.28,84,120.19 c 3.63.47,9,1.32,11.34,2.2-1.87,0-9.35-.69-9.35-.69 s 6.44,1.42,9.89,1.81 c -1.09.06-9.23-.6-10.54-.82,2.22.56,9.35,1.4,9.35,1.4 a 69.08,69.08,0,0,0-7.2.47 c 2.38-.22,11.35,0,13.48.53Z" fill="#02994a"/>
    <path d="M 144.59,100.81 s -1.75-5.64,4.47-8.94,11.89,4.67,10.51,9-8,7.29-10.32,4.37-1.17-8.75,3.5-8.75 a 2.83,2.83,0,0,1,3.13,2.63 s -4.29-1.07-4.49,1.65,4.67,3.3,5.83.19-1.56-6.8-5.44-7 S 144.59,98.09,144.59,100.81Z" fill="#ecb2d0"/>
    <path d="M 169.86,106.06 s 7.78,2.92,6.41,9.91-8.75,7.78-12.44,5.25-4.08-10.5,2.53-11.08,5.64,6.61,3.11,7.58-3.3-.78-3.3-.78,2.72,0,2.53-2.14-5.25-1.75-4.47,2.14,5.64,4.08,8.16,1.17 S 174.92,109.75,169.86,106.06Z" fill="#ecb2d0"/>
    <path d="M 136.24,122.78 s 1.17-6.41,8.94-7.39,11.47,7.78,9.52,12.83-11.08,8.36-15.16,2.53,3.89-11.86,8-9.14.78,6.22-1.56,6 c 1.56-1.36,1.36-3.89-1.17-3.69 s -4.08,4.08-1,5.64,7.58,0,8-4.08 S 145.57,112.67,136.24,122.78Z" fill="#ecb2d0"/>
    <path d="M 158.59,138.91 a 6.11,6.11,0,0,0,4.08,6.8 c 5.05,1.94,9.91-3.69,9.33-8.16 a 5.74,5.74,0,0,0-9.33-3.69 c -3.3,2.92-.58,8.16,3.11,7.19-1.75-.58-2.72-3.89-1-5.05 s 5.44.78,3.5,4.86 S 159.56,144.16,158.59,138.91Z" fill="#ecb2d0"/>
    <path d="M 141.48,156.79 s -9.14,5.05-13.22-1.56.78-14.19,8.55-13.8,6.22,10.69,1.56,11.47 a 5.89,5.89,0,0,1-6.41-3.3 s 5.64,2.72,6.8-1.17-4.08-4.86-7-2.53 S 127.1,158,141.48,156.79Z" fill="#ecb2d0"/>
    <path d="M 121.66,110.34 a 9,9,0,0,1,3.89-8.16 c 4.51-3,11.47,1.75,10.3,8 s -7.78,5.44-9.33,2.33.78-7.58,3.3-6.41 a 3.3,3.3,0,0,1,1.75,3.89 s -1.36-2.53-2.33-.58,2.14,3.5,3.5,2.14,2.14-4.67-1.94-7 S 123.41,105.09,121.66,110.34Z" fill="#ecb2d0"/>
    <path d="M 129.33,125.94 s 4.06,8.09-1.36,12.59-10.59-4.16-8.56-7.76,7.83-3.41,7.78.17 a 4.15,4.15,0,0,1-3.1,4.21 s 1.66-2.53.43-3.66-2.78,0-2.58,1.92,2,3.76,3.68,3.41 S 130.83,133.18,129.33,125.94Z" fill="#ecb2d0"/>
    <path d="M 147.57,151.42 s .39-3.76,3.11-5.05,7,.78,6.74,5.31-3.37,5.57-5.57,5.31-2.72-4.79-.78-6.35,2.85,1.94,2.85,1.94-1.68-1.56-1.94,1,3.37.65,3.37-1.94 S 151.72,144.68,147.57,151.42Z" fill="#ecb2d0"/>
    <path d="M 152.37,112.87 s -.58-1.46,1.46-4.08,6,1.07,5.15,5-4.37,3.5-5.15,1.17,1.26-4.18,2.24-3.6.68,2.33.68,2.33-.58-1.46-1.36-.87.19,2.72,1.17,2.33 a 3.17,3.17,0,0,0,1.07-3.89 C 156.84,109.95,154.7,107.13,152.37,112.87Z" fill="#e23a6f"/>
    <path d="M 154.36,137.65 s 1.69,3.36-1.16,5.24-5.73-.5-6-3.38,2.28-3.77,4.2-2.25,1.15,4.29-1,3.48 a 1.32,1.32,0,0,0-.38-2.4 c -1.18-.47-2.15,1.56-.33,2.92 s 4.72.44,4.58-3.27" fill="#e23a6f"/>
    <path d="M 123.89,122 a 5.25,5.25,0,0,1,1.65-4.86 c 2.33-2.24,5.83,1.75,4.67,4.57 s -5.93,3-3.89-1.65 c .39,1.75,2.24,3.3,2.24,0 S 124.77,117.63,123.89,122Z" fill="#e23a6f"/>
    <path d="M 141.58,97.12 c .89,1.18-.87,1.56-1.17.58 S 141,96.34,141.58,97.12Z" fill="#e23a6f"/>
    <path d="M 163.55,105.48 c 1.21.6.19,2.43-1.07,1.75 S 161.8,104.6,163.55,105.48Z" fill="#e23a6f"/>
    <path d="M 167.92,127.05 c .85,2.28-2.14,2.24-2.14.39 S 167,124.72,167.92,127.05Z" fill="#e23a6f"/>
    <path d="M 159.95,154.95 c 1.36-.86,1.85.39.58,1.26 S 158.88,155.63,159.95,154.95Z" fill="#e23a6f"/>
    <path d="M 145.27,144 c 1.75-.07,1.75,1.65.19,1.85 S 142.75,144.06,145.27,144Z" fill="#e23a6f"/>
    <path d="M 136.43,132.89 c 1.29,1.44.1,3.4-1.26,1.75 S 134.78,131,136.43,132.89Z" fill="#e23a6f"/>
    <path d="M 138,113 c .73-.83,2.14,0,1,1.17 S 136.62,114.52,138,113Z" fill="#e23a6f"/>
    <path d="M 118.31,134.88 c .92,1-.31,1.56-.94.75 S 117.31,133.81,118.31,134.88Z" fill="#e23a6f"/>
    <path d="M 122.14,113.35 c .8-1.77,2.14-.19,1,1.07 S 121.66,114.42,122.14,113.35Z" fill="#02994a"/>
    <path d="M 140.51,108.39 s 5.15-1.36,5.25-5.93 C 147.22,104.51,145.86,109.37,140.51,108.39Z" fill="#02994a"/>
    <path d="M 158.33,126.92 s 6.35.39,4.41,6.48 C 162.35,130.55,160,127.44,158.33,126.92Z" fill="#02994a"/>
    <path d="M 174.92,128.48 s 9.59.13,13.22-9.07 C 187.87,124.72,183.21,131.85,174.92,128.48Z" fill="#02994a"/>
    <path d="M 184.12,129.52 s -6.22.78-9.85-1.17 C 177,132.37,183,131.07,184.12,129.52Z" fill="#02994a"/>
    <path d="M 165.61,99.16 s 7.37.16,9.18-9.69 a 21.57,21.57,0,0,1-7.13,7.26,7.45,7.45,0,0,0,.39-8.29 c .13,4.41-2.46,9.07-3.5,9.59Z" fill="#02994a"/>
    <path d="M 134.62,96.08 s 3.63-6.09-3.5-11.66Z" fill="#02994a"/>
    <path d="M 133.19,96.73 s -1-5.57-5.18-6.87 C 131.12,89.73,135.26,93,133.19,96.73Z" fill="#02994a"/>
    <path d="M 122.56,153.75 s 2.46,7.52-6.09,10.24 c 2.59-2.07,5.18-5.57,5.05-8.42-1,2.59-4.67,2.85-4.67,2.85 l 4.54-5.05Z" fill="#02994a"/>
    <path d="M 144.72,160.62 s 7.78,4.41,2.07,12.05 c 1.3-3.37,1-7-.91-9.07-.39,3.37-3.63,5.7-5.44,5.83 C 142.78,167.49,145.24,162.82,144.72,160.62Z" fill="#02994a"/>
    <path d="M 145,150.67 a 8.33,8.33,0,0,1,3.21,8.36 A 20.6,20.6,0,0,0,145,150.67Z" fill="#02994a"/>
    <path d="M 132.44,137.16 s -2.72,4.18-7.39,4.28 A 5.34,5.34,0,0,0,132.44,137.16Z" fill="#02994a"/>
  </g>
  <g id="outline">
    <path d="M 181.4,108.14 C 176.94,98.63,168.58,97.9,165.62,98,165.3,90.82,159,82.63,149,84 c -11.14,1.56-14.81,9.44-15.62,11.62-4.38-2-10-1.81-13.67,1.86-6.94,6.88-3.69,15.08-1.7,18.65 a 4.77,4.77,0,0,0-.71-.54,9.87,9.87,0,0,1-3.49-3.08 c -1.68-2.93-1-6-1.79-6.61,0,0-1.24.61-1.18,1.64.08,1.4,0,4.88,2.08,6.84 s 4.44,2.91,4.86,4.8-.5,4.47-1.33,4.72 c -.45.14-2.32.42-3.94.65 a 1.48,1.48,0,0,0-.89-1.11,3.3,3.3,0,0,0-1.64.1,2.56,2.56,0,0,1,1.14-1.22,11.21,11.21,0,0,1,3.83-1.33 s -4.75.58-7.08-2.92 c 0,1.17,1,2.17,1.8,2.8 a 3.87,3.87,0,0,0-1.51.2,3.44,3.44,0,0,0-3.37,0,2.62,2.62,0,0,0-1.45-.3,4.09,4.09,0,0,0,.41-1.43 s -.67,1-1.22,1.67 a 1.8,1.8,0,0,0-.49.41 c -.31-.06-1.11-.21-2.19-.48 a 31.63,31.63,0,0,1,2.88-7.12,12.65,12.65,0,0,0,1.46-6.12,2.08,2.08,0,0,0-1.06-1.76 c -1,1-.48,4.5-2,7 a 40.86,40.86,0,0,0-3,7.49 c -4-1.12-9.74-3.25-12.49-6.72,1.27,2.73,5.77,5.19,9.74,6.92-6-1.31-11.89-.92-14.4-.09,3.36-.42,9,.63,13.43,1.7-3.47-.33-9.35-.92-10.84-1.29 a 58.09,58.09,0,0,0,10.18,2.37 c -3.14-.26-8.94-.82-11.18-1.53,1.29.92,7.54,1.84,11.41,2.24-3.59.05-7.19.33-8.34,1,3.41-.74,8.34-.53,11.67-.26 a 9,9,0,0,0,1,5.09,2.88,2.88,0,0,0,4.51.88 c 1,1.39,2.83,1.87,4.08.7 A 3.07,3.07,0,0,0,111,132 a 2.74,2.74,0,0,0,2.16.41 c -1.57,1.95-3.07,5.11-2.8,10,.45,8.17,9.24,11.27,12,12,.48,4.15,3.14,7.5,7.24,9.73,4.74,2.59,14.38.58,15.36-2.53,6,5.44,13.22,7.58,18.85,1.94,4-4,4.08-9.58,3.8-12.55 A 13.9,13.9,0,0,0,171,150 c 6.2-2.88,11.66-11.27,5.25-21 C 179.39,127.7,185.8,117.53,181.4,108.14Z m -69.83,15.71 a 1.32,1.32,0,0,1,.54.79 l -2.16.3 a 1.84,1.84,0,0,1-.1-.92 A 3.37,3.37,0,0,1,111.57,123.84Z m -9.79-2.08 a 2.33,2.33,0,0,0-.17.33 l -.11.31 c -1.44-.39-8.14-2.28-10.81-4.43 C 93.91,120.06,100.46,121.49,101.78,121.76Z m -.47,1.23-.17.55 c -1.57-.41-11.81-3.07-16.36-3.42 C 89.89,119.55,99.69,122.49,101.31,123Z m -5.55-.37 c 2.18.55,3.94,1.05,4.8,1.31-2.44-.27-10.62-1.24-13.38-2.08 C 88.56,122,93.1,122.42,95.76,122.62Z m -.41,1 c 1.47.23,2.82.4,3.85.52-1,0-2.2-.08-3.44-.08-2.56-.3-8.17-1-9.3-1.17 C 88.68,123.1,93.09,123.44,95.34,123.61Z m -5.7.87 c 3-.56,9.84-.08,11.19,0 l -.1.35 A 83.86,83.86,0,0,0,89.65,124.49Z m 9.63,3.94 A 6.37,6.37,0,0,1,99,125 l 1.69.2 c -.35,1.21-.62,2.23-.62,2.23.54-.12,1.79-4.46,2.14-5.25 s 1.12-.88,2.15-.37 l -1.67,7.39 C 101.21,130.55,100.06,129.91,99.28,128.42Z m 3.94.87,1.7-7.54 a 2.51,2.51,0,0,1,2.91,0 l 0,.33 a 2.74,2.74,0,0,0-2.25.25,3.52,3.52,0,0,1,2.18.23 l -1,7.65 A 2.56,2.56,0,0,1,103.21,129.29Z m 4,.84,1-8.42 a 3.27,3.27,0,0,1,2.5-.1,3.21,3.21,0,0,0-.66.42 c -.48,0-1.12.15-1.35.48 a 9.1,9.1,0,0,1,1-.1,3,3,0,0,0-.34,3.35 c .4,0,.88,0,1.38,0v4.38 A 2.31,2.31,0,0,1,107.21,130.13Z m 4.17,0-.17-4.43 c 1,0,2.09,0,3.07,0 a 10.59,10.59,0,0,1-.09,3.87 C 113.74,130.73,112.8,131.16,111.38,130.17Z m 58.67-2.54 c 15.94,18.47-10.17,23-10.17,23 a 17.2,17.2,0,0,0,5.15.67,11.72,11.72,0,0,1-4.31,10.54 c -4.28,3.69-9.52,1.75-16.13-3.69-2.14,2.72-7.58,6.22-13.41,3.69 s -8-7.58-7.39-15.16 a 16.22,16.22,0,0,0-1.45,5.41 c -4.62-1.32-9.45-4.43-9.82-10.46-.39-6.41,4-11.95,4-11.95 a 6.86,6.86,0,0,0-1,.55,9.65,9.65,0,0,0,0-4.62 c .19,0,.39-.06.56-.1,1.72-.42,2.75-1.31,3.16-3.81 a 8.09,8.09,0,0,0-.09-3.77 l 0,0 c -2.36-8.77,0-16.31,3.95-18.8 S 136,96.73,139.93,103 a 9.78,9.78,0,0,0-3.77-5.65 c .89-1.52,6.9-11.07,16.21-9.64,10.11,1.55,12.22,11.5,11.92,16.07 a 9.28,9.28,0,0,0,1.19-3.3 c 2.07.28,8.58,1.57,12,7.18 C 181.65,114.36,179.58,125.11,170.06,127.64Z"/>
  </g>
<script type="text/ecmascript" xlink:href="param.min.js"/> 
</svg>
