<?xml version="1.0"?>
<svg xmlns="http://www.w3.org/2000/svg" xmlns:xlink="http://www.w3.org/1999/xlink" viewBox="0 0 215 215">
  <title>HA007</title>
  <g id="skin-tone">
    <path d="M 111.19,131 c .94,1.29,3,.58,3.65-1.12 s .08-5,.08-5 a 4,4,0,0,0,2.76-1.42 c .88-1.29.91-3.37.58-5.21 s -3.67-3.75-5.17-5.21-1.69-4.83-1.69-4.83 l -.57-.6 h 0 s 0-.07,0-.11 a 3.33,3.33,0,0,0-3.33-3.28 h -.06 a 3.33,3.33,0,0,0-3.28,3.39 s -1.91,4.52-2.87,6.06-2,5.25-2.71,8.52-.46,5.19.54,7.06,2.79,1.29,3.83.6 c .83,2,2.92,1.52,4,.71 A 2.7,2.7,0,0,0,111.19,131Z" fill="param(skin_tone)"/>
  </g>
  <g id="fixed-colours">
    <path d="M 108,118.73 s 2.25,2.38,3.46,2.58 a 9.36,9.36,0,0,0-3.56.11,3,3,0,0,0-3.15.09 c -1-.37-2-.71-2.62.33 a 22.72,22.72,0,0,0-1.27,3.4 l -3.87-1 s -12.88-4.08-14.42-4.63-1.92-1.46,1-1.75Z" fill="#c19356"/>
    <path d="M 109.69,125.3 a 2,2,0,0,1-.12-1.21 c 0-.21.82-.43.82-.43 s 1-.35,1.57.28.4.9.4.9Z" fill="#fff"/>
    <path d="M 140.49,117.32 a 10.63,10.63,0,0,1-9.59,9.15 c 4.72,2.06,7.24,6.5,6.5,10.07,4.62,2.17,10.79-.13,13.1-4.13 s 2.27-8.16-1-11.59 A 10.94,10.94,0,0,0,140.49,117.32Z" fill="#6a4b42"/>
    <path d="M 137.6,137.42 s 3.6.46,5.64.52 c 3.88,1.51,6,3.52,5.39,5.38 s -4,2.46-7,.31 c .06,3.45-1.24,5.86-3,5.29 s -3.11-1.62-2.63-5.86Z" fill="#c19356"/>
    <path d="M 118.54,118.85 l 5.56,0 s -1.69,5.68,3.23,7.18 c -3.33.17-6.83,3.17-7.29,4.17-1.83-.42-4.71-1.46-4.71-1.46 l -.5-3.5 a 4.41,4.41,0,0,0,3-1.82 C 118.71,121.85,118.54,118.85,118.54,118.85Z" fill="#c19356"/>
    <polygon points="119.08 120.02 122.96 125.65 118.67 121.06 119.08 120.02" fill="#a3713b"/>
    <path d="M 117.79,123.73 c .13.29,2.88,4.17,2.83,4 s -3.46-3.54-3.46-3.54Z" fill="#a3713b"/>
    <polygon points="115.17 125.06 117.25 128.19 115.21 126.4 115.17 125.06" fill="#a3713b"/>
    <polygon points="108.92 121.06 107.04 119.4 108.28 121.43 108.92 121.06" fill="#a3713b"/>
    <polygon points="105.25 121.15 103.37 119.52 104.54 121.44 105.25 121.15" fill="#a3713b"/>
    <polygon points="101.79 122.23 99.71 119.73 101.5 123.02 101.79 122.23" fill="#a3713b"/>
    <path d="M 96.06,119.94 A 8.66,8.66,0,0,1,98.12,123 C 97,122.09,96.06,120.73,96.06,119.94Z" fill="#a3713b"/>
    <path d="M 101.87,120.31 a 18.72,18.72,0,0,0-5.53,2.25 C 98.5,122.28,101,121.39,101.87,120.31Z" fill="#a3713b"/>
    <polygon points="105.37 120.23 103.67 121.15 104.46 121.23 105.37 120.23" fill="#a3713b"/>
    <path d="M 122.58,123.73 l -7.17,4.33-.08-.75 S 120.79,124.1,122.58,123.73Z" fill="#a3713b"/>
    <polygon points="121.12 120.77 117.79 124.23 118.12 122.94 121.12 120.77" fill="#a3713b"/>
    <path d="M 142.74,115.45 a 9.57,9.57,0,0,1-2.69,10.6 c -2.59,2.18-7.31,4.49-12.29.76 s -4.34-8.74-2.88-12,6.86-6.12,11.69-4.64 A 9.43,9.43,0,0,1,142.74,115.45Z" fill="#f8c3cb"/>
    <path d="M 131.46,128.74 a 8.19,8.19,0,0,1-5.9-4.09,10.62,10.62,0,0,0-3,2.77 c -2.84,3.95-1.1,9.89,2.85,12.73 s 9.54,1,12.42-2.37 a 8.62,8.62,0,0,0,.41-10.73 A 10.13,10.13,0,0,1,131.46,128.74Z" fill="#caf9af"/>
  </g>
  <g id="outline">
    <path d="M 144.26,116.56 c -1.39-6-8-9.19-13-8.08-4.64,1-7.84,5.35-8.51,9.42-.95,0-2.28.09-3.62.1 a 4.12,4.12,0,0,0-1.85-2.38,9.87,9.87,0,0,1-3.49-3.08 c -1.68-2.93-1-6-1.79-6.61,0,0-1.24.61-1.18,1.64.08,1.4,0,4.88,2.08,6.84 s 4.44,2.91,4.86,4.8-.5,4.47-1.33,4.72 c -.45.14-2.32.42-3.94.65 a 1.48,1.48,0,0,0-.89-1.11,3.3,3.3,0,0,0-1.64.1,2.56,2.56,0,0,1,1.14-1.22,11.21,11.21,0,0,1,3.83-1.33 s -4.75.58-7.08-2.92 c 0,0,0,.08,0,.12-2.4,0-4.93-.17-7-.35 a 21.53,21.53,0,0,1,1.88-4.06,12.65,12.65,0,0,0,1.46-6.12,2.08,2.08,0,0,0-1.06-1.76 c -1,1-.48,4.5-2,7 a 27.22,27.22,0,0,0-2,4.75 c -1.33-.12-2.33-.21-2.77-.21-4.62,0-15.81-.94-16.12.38-.25,1,.13,2.13,4.63,3.5 l 12.38,3.76 a 8.39,8.39,0,0,0,1,4.78,2.88,2.88,0,0,0,4.51.88 c 1,1.39,2.83,1.87,4.08.7 A 3.07,3.07,0,0,0,111,132 c 1.54,1,3.33.44,4.33-1.39 a 3.43,3.43,0,0,0,.33-1 l 4.4,1.32V131 c -.93,6.79,4.53,10.6,8,11.43 a 11.79,11.79,0,0,0,7.34-1.09 c -.67,2.93-.42,5.78.62,7.16,2.64,3.49,6.78.83,6-3.69,3.13,2.27,7.74.93,7.64-2.28-.07-2.13-2.18-3.6-4.61-4.58 a 10.91,10.91,0,0,0,7.91-8 C 154.61,123.25,149.58,117.79,144.26,116.56Z m -11.44-6 c 4.7-.29,9.69,2.78,9.67,8.21,0,4.36-4.15,9.06-9.12,9.28 s -8.58-4.89-8.72-8.71 S 128.13,110.81,132.83,110.52Z m -21.26,13.33 a 1.32,1.32,0,0,1,.54.79 l -2.16.3 a 1.84,1.84,0,0,1-.1-.92 A 3.37,3.37,0,0,1,111.57,123.84Z m -27.88-4 c -4.23-1.51,2.15-1.93,11-1.25,2.29.18,8.16.53,13.43.57 a 5.16,5.16,0,0,0,1.54,1.69,3.87,3.87,0,0,0-1.51.2,3.44,3.44,0,0,0-3.37,0,2.14,2.14,0,0,0-3.17,1 c -.26.7-.57,1.73-.85,2.7 C 96.46,123.53,85,120.35,83.69,119.88Z m 15.59,8.54 a 5.15,5.15,0,0,1-.45-2.78 l 1.56.47 c -.21.77-.36,1.31-.36,1.31.54-.12,1.79-4.46,2.14-5.25 s 1.12-.88,2.15-.37 l -1.67,7.39 C 101.21,130.55,100.06,129.91,99.28,128.42Z m 3.94.87,1.7-7.54 a 2.51,2.51,0,0,1,2.91,0 l 0,.33 a 2.74,2.74,0,0,0-2.25.25,3.52,3.52,0,0,1,2.18.23 l -1,7.65 A 2.56,2.56,0,0,1,103.21,129.29Z m 4,.84,1-8.42 a 3.27,3.27,0,0,1,2.5-.1,3.21,3.21,0,0,0-.66.42 c -.48,0-1.12.15-1.35.48 a 9.1,9.1,0,0,1,1-.1,3,3,0,0,0-.34,3.35 c .4,0,.88,0,1.38,0v4.38 A 2.31,2.31,0,0,1,107.21,130.13Z m 7-.53 c -.45,1.13-1.39,1.57-2.81.58 l -.17-4.43 c 1,0,2.09,0,3.07,0 A 10.59,10.59,0,0,1,114.19,129.59Z m 1.61-1.12 a 13.81,13.81,0,0,0-.31-2.87 c .19,0,.39-.06.56-.1,1.72-.42,2.75-1.31,3.16-3.81 a 10.68,10.68,0,0,0,.16-2.45 c 1.18,0,2.36,0,3.27,0 a 8.47,8.47,0,0,0,0,1.19,10.45,10.45,0,0,0,1.29,4,11.36,11.36,0,0,0-3.62,5.33Z m 12.47,12.14 c -4.69-1-6.85-6.59-6.09-10.19 a 8,8,0,0,1,2.92-4.37,11.74,11.74,0,0,0,8.56,3.81,11,11,0,0,0,4.59-1.29,7.3,7.3,0,0,1,.72,5.53 A 9.61,9.61,0,0,1,128.27,140.61Z m 18.81.67 c 2.44,2.6-2.08,4.13-6.2,1.19.1,3.14-.34,6.31-2.6,5.56-1.86-.61-2.13-3.69-1-7.87 a 9.77,9.77,0,0,0,1.9-1.92 l .14,0 a 9.77,9.77,0,0,0,2.84.18 A 13.6,13.6,0,0,1,147.08,141.28Z m 3.9-11.9 c -1.06,4.15-5.94,7.65-10.74,7.08 a 10.15,10.15,0,0,0,.64-1.83,9.67,9.67,0,0,0-1-7.06,10.39,10.39,0,0,0,4.63-8.55 C 148.8,120.34,152.27,124.4,151,129.38Z"/>
  </g>
<script type="text/ecmascript" xlink:href="param.min.js"/> 
</svg>
