<?xml version="1.0"?>
<svg xmlns="http://www.w3.org/2000/svg" xmlns:xlink="http://www.w3.org/1999/xlink" viewBox="0 0 215 215">
  <title>phone</title>
  <g id="skin-tone">
    <path d="M 102.52,127.58 l 12.79,24.93 s 1.12,2.09,1.4,2.55.56.59,1-.17,2.79-5.44,3-5.8 a 2.1,2.1,0,0,0-.29-1.91 c -.51-1-13.25-26.56-13.25-26.56 l .23-.51 s -.73-1.25-1.12-1.17 c -.51-1-.76-1.86-1.38-1.6 s -4.44,3.06-4.44,3.06" fill="param(skin_tone)"/>
    <path d="M 105.84,119.16 a 31.24,31.24,0,0,0,1.22,3.77 c -1.14,1.47-3.8-.51-4.27-.07 a 1.62,1.62,0,0,1-1.26.3,10.68,10.68,0,0,0-1.24-2.69 c 1.26-.93,2.39-1.77,3.35-2.43 s 1.67-1.33,1.85-.18 A 5.61,5.61,0,0,0,105.84,119.16Z" fill="param(skin_tone)"/>
    <path d="M 107.09,120.62 l 5,10.06 s 7.94,16.1,8.44,16.87 a 1.86,1.86,0,0,1-.1,2.1 c -.36.61-2.41,4.6-2.62,5 s -.62,1.39-1.18.48-11.25-22-11.25-22 l -2.85-5.61 s 1.53-.28,2.32-.52 a 1.79,1.79,0,0,0,1.42-1.93 A 35.24,35.24,0,0,1,107.09,120.62Z" fill="param(skin_tone)"/>
    <path d="M 101.69,125.49 s 14.51,28.27,14.93,29.05.53.8.89.11,2.49-4.82,2.85-5.56,0-1.11-.32-1.85-13.74-27.83-14.23-28.67-.68-1.24-1.11-.92 l -4.16,3 c -.26.21-.89.56-.57,1.34 S 101.69,125.49,101.69,125.49Z" fill="param(skin_tone)"/>
    <path d="M 115.19,123.7 c -.62,2.25-1.83,5.29-1.83,5.29 l -1.55-3.48 a 16.19,16.19,0,0,1-3,3.27 c -1.23.77-3-.85-4.2-1.7 a 30.9,30.9,0,0,0-3.5-2 s .28-2.45,1.68-2.67,1.37.24,2.45.63,1.15.47,1.8-.48 c -1.86-2.89-1.34-7.07-1.13-8.31v0 c 0-.2.06-.33.06-.33 l -.23.05 c -.33-.55-1-1.69-1.19-2.06 s -1-1-2-.28 c -.43.3-1.07.78-1.68,1.23 a 15.57,15.57,0,0,1,1.37-1.94,30.3,30.3,0,0,0,1.91-3.35 h 0 a 3.33,3.33,0,0,1,6.65,0 h 0 a 4.17,4.17,0,0,1,1,2.4,41.73,41.73,0,0,0,2.32,7.47 C 114.78,118.66,115.82,121.45,115.19,123.7Z m -15.85,2.6 a 2.06,2.06,0,0,0-.86-1.52 l -.08-.28-.47.1-.75-1.31 a 6.07,6.07,0,0,0-2.75,1.18,2.92,2.92,0,0,0,.34,3.13 c .63.74,2.3.5,3,.18 S 99.39,126.94,99.35,126.3Z M 96,122.78 a 4,4,0,0,0-.95-1.79 l -.73-2 s -2.3.63-2.33,2 a 2.63,2.63,0,0,0,1.92,2.41 C 94.56,123.46,96,123.49,96,122.78Z m 5,7.45 a 1.67,1.67,0,0,0-.33-1.72 c -.45-.47-1.68-.53-3,.43-.8.59-1.35,1-1.31,1.94 a 1.75,1.75,0,0,0,1.24,1.65,2,2,0,0,0,1.78-.45 A 8.22,8.22,0,0,0,101,130.23Z m 1.48,2 c -.51-.8-1.81-.32-2.35.52 s -1.21,3.12-.75,3.9 a 4.85,4.85,0,0,0,4.34,1.52 c -.61-1.66-1.18-3.42-1.18-3.42 A 4.18,4.18,0,0,0,102.52,132.19Z" fill="param(skin_tone)"/>
  </g>
  <g id="main-colour">
    <path d="M 122.14,146.46 c -.55-1.21-9-18-9-18 l -1.5-2.73 a 14.34,14.34,0,0,1-2.53,2.75 c -1.19.84-2.56,0-3.56-.72 a 39.6,39.6,0,0,0-4.34-2.75,3.3,3.3,0,0,1,1.44-2.44 c .88-.62,2.16.25,3,.72 s 1.25,0,1.63-.66 c -1.91-2.4-1.55-6.52-1.3-8.26 l -1.22-2.44 c -.64-1.26-1.42-.62-2.46.11 s -5.3,3.39-6.59,4.3 c -.89.85-1.67,1.8-.69,3.48 s 2.64,4.87,2.64,4.87,1.38.15,1.44,1.06 a 3.23,3.23,0,0,1-.17,1.44 l .3.83.51-.17.17.36 a 1.33,1.33,0,0,1,1.11.65,1.74,1.74,0,0,1-.13,1.48 l .68,1.46 a .84.84,0,0,1,.9.39,3.46,3.46,0,0,1,.16,1.9 c 1.14,2.4,11.18,22.81,12.31,24.77,1.3,2.26,3,.18,3.51-.78 s 3.33-6.28,4.17-7.7 S 122.69,147.67,122.14,146.46Z" fill="param(main_colour)"/>
  </g>
  <g id="fixed-colours">
    <path d="M 94.33,123 s -.29-1,.08-1.4 c .54.1,1.25.52.77,1.44 A 5.15,5.15,0,0,1,94.33,123Z" fill="#fff"/>
    <path d="M 98.31,125 a 2.51,2.51,0,0,0-1.31.46.93.93,0,0,0,.23,1.46,2.11,2.11,0,0,0,1.58.06 A 1.23,1.23,0,0,0,98.31,125Z" fill="#fff"/>
    <path d="M 98.81,129.28 a .94.94,0,0,0,.79,1.29 c .56.08,1.21-.6,1.33-.81 a 1.25,1.25,0,0,0-1.15-1.33 C 99.08,128.67,98.92,128.94,98.81,129.28Z" fill="#fff"/>
    <path d="M 100.23,133.11 s .29.88,1.08.88 a 1.44,1.44,0,0,0-.29-1.81 A 4.18,4.18,0,0,0,100.23,133.11Z" fill="#fff"/>
    <path d="M 101.44,125 a 2.9,2.9,0,0,1,1-1.1,1.26,1.26,0,0,1,1.52.69 c .13.48-.85,1.4-.85,1.4Z" fill="#fff"/>
  </g>
  <g id="outline">
    <path d="M 102.38,117.24 a 1.54,1.54,0,1,0-2-.62 A 1.4,1.4,0,0,0,102.38,117.24Z M 101.24,115 a 1,1,0,0,1,1.23.38,1,1,0,0,1-.3,1.37,1,1,0,0,1-1.37-.42 A 1,1,0,0,1,101.24,115Z"/>
    <path d="M 123.31,147.38 l -8.94-18.19 a 30.84,30.84,0,0,0,1.7-7 c .31-3.24-1.47-6-2.52-8.28-.26-.59-.51-1.27-.74-1.94 s -.22-1-.26-1.27 c -.12-.61-.16-1.76-.3-2.67 s -.84-3.11-.84-3.11 a 4,4,0,0,0-.58,2.56,14.45,14.45,0,0,0,1.06,5.64 C 113.09,116,115,120,114.7,122 c -.28,1.56-.72,4.61-1,5.83 l -1.23-2.5 a 4.8,4.8,0,0,0,.63-1.88 s -2.7,3.82-4,4.71 a 2.57,2.57,0,0,1-3.12-.47,24.91,24.91,0,0,0-2.51-1.67 c .19-.25.49-.65.63-.88 s .29-1-.83-1.46 c -.69-.26-1.28.3-1.63.76.27-.83,1-2,2.1-1.74,1.29.31,2,1.12,2.7,1 s 1.26-1.11,1.26-1.11 a 7.26,7.26,0,0,1-1.39-3.15,20.63,20.63,0,0,1,.21-6.83,6.57,6.57,0,0,0-.39.7,24.58,24.58,0,0,0-1.3-2.57 c -.37-.58-1-.4-1.76,0 a 8.2,8.2,0,0,0,1.14-2.87 c 0-.07,0-.15,0-.23v0 a 6.07,6.07,0,0,0-.73-2.38 s -1.17,3.49-1.5,4.19 c -.24.5-1.26,2.17-1.82,3.07-1.42.88-2.92,1.86-4.84,3.25 a 2.91,2.91,0,0,0-1.42,2.71,2.87,2.87,0,0,0-2.51,2.5 c -.2,1.77,1.48,2.58,2.74,2.83 a 2.84,2.84,0,0,0-.26.28 c -.83,1-.25,3.56.55,4.1 a 3.87,3.87,0,0,0,2.9.26,4.49,4.49,0,0,0-1.12,1,2.29,2.29,0,0,0,.23,2.91,2.1,2.1,0,0,0,2.5.67,2.46,2.46,0,0,0,.76-.55 c -.65,1.15-1.18,3.11-.82,4.15,1.27,1.89,3.91,2,5,1.91,2.19,4.3,9.84,19.37,10.42,20.42,1.71,3,3.74,1,4.53-.19 s 3.45-6.26,4.29-7.87 A 3.66,3.66,0,0,0,123.31,147.38Z m -21.29-23 a 1,1,0,0,1,1.75,0 c .31.45-.42,1.14-.67,1.35-.65-.39-1.22-.72-1.47-.86 C 101.7,124.84,101.82,124.67,102,124.42Z m -.9,7.93 a 1.35,1.35,0,0,1,.15,1.44.91.91,0,0,1-.87-.57 A 2.63,2.63,0,0,1,101.12,132.36Z m -.35-2.61 a 1.76,1.76,0,0,1-.59.57.84.84,0,0,1-1.29-.87,1.24,1.24,0,0,1,1-.93,1.08,1.08,0,0,1,.56.26 A 1,1,0,0,1,100.78,129.75Z m -2.28-2.81 c -.68.17-1.52,0-1.56-.8 s 1-1,1.3-1 a .78.78,0,0,1,.23.11 A 1,1,0,0,1,98.49,126.94Z m -4.06-5.14 a .81.81,0,0,1,.68,1.18,2.27,2.27,0,0,1-.68-.07 A 2,2,0,0,1,94.44,121.8Z m -1.52-1.52 a 3.71,3.71,0,0,1,1.18-.81 l .08.15.45.89 c -.28-.17-.48-.27-.48-.27 s 1.69,1.53,1.55,2.34 a .43.43,0,0,1-.26.31,1.06,1.06,0,0,0-1.08-1.38,1.5,1.5,0,0,0-.22,1.32,2.68,2.68,0,0,1-.88-.45 A 1.43,1.43,0,0,1,92.92,120.28Z m 2.7,7.17 c -1-.17-1.26-2.18-.66-2.67 a 7.4,7.4,0,0,1,1.45-.73 l .28.55 c -.56.21-1,.44-1,.44 a 13.87,13.87,0,0,1,1.81,0,1.24,1.24,0,0,0-.91,1.2,1.18,1.18,0,0,0,1,1.06 A 4.56,4.56,0,0,1,95.62,127.45Z m 1.59,4.26 a 1.33,1.33,0,0,1,.19-2,9.4,9.4,0,0,1,1.38-1,.71.71,0,0,0-.24.48 c -.17,1.08.27,1.5,1.17,1.6 a 2,2,0,0,0,.71-.19 c -.14.15-.62.57-.73.65 C 99.21,131.68,98.26,132.69,97.21,131.71Z m 3.1,5.09 c -.65-.42-.78-1.7-.16-3.07 l .14-.28 a 1.14,1.14,0,0,0,1.11.77 c .43-.79.45-1.5-.15-1.93 a .79.79,0,0,1,.85,0 c .64.42.46,2.63-.13,3.81 a 2,2,0,0,0,.34-.46 l 1,1.94 A 4.19,4.19,0,0,1,100.31,136.79Z m 22.18,12.58 c -.31.51-2.51,5-3.58,6.76 s -1.19,2.72-2.43,2.81-1.64-1.66-2.79-3.9 c -.46-.89-8.37-16.51-10.76-21.18.18-.94.17-1.86-.25-2.15 a 2.06,2.06,0,0,0-1-.39 l -.35-.69 a 1.82,1.82,0,0,0,.06-2.16,1.8,1.8,0,0,0-1.65-1 l -.19-.38 a 1.79,1.79,0,0,0,.18-1.28 A 1.9,1.9,0,0,0,98,124.3 l -2.88-5.64 s -.5-1,1.06-2.19 c 1.2-.89,6.49-4.1,7-4.4 s 1-.47,1.28.1 c .19.33.66,1.48,1.09,2.39 a 10.3,10.3,0,0,0-.44,2.4.84.84,0,0,0-.71.18 c -.91.64-4.2,3-4.2,3 a 1.46,1.46,0,0,0-.61,2.21 c .41.8.87,1.74,1.16,2.33-.05.24-.07.4-.07.4 l .37.21 c .53,1,14.72,29,15.26,29.9 s 1,.77,1.54-.18,2.62-5.09,3-5.76 a 2,2,0,0,0-.14-1.9 c -.15-.33-7.9-15.79-9.94-19.91.3-.41.59-.88.87-1.34.72,1.51,9.45,19.13,10.05,20.36 C 122.38,147.9,122.8,148.86,122.49,149.37Z"/>
  </g>
<script type="text/ecmascript" xlink:href="param.min.js"/> 
</svg>
