<?xml version="1.0"?>
<svg xmlns="http://www.w3.org/2000/svg" xmlns:xlink="http://www.w3.org/1999/xlink" viewBox="0 0 215 215">
  <title>LH000</title>
  <g id="skin-tone">
    <path d="M 115.12,127.13 c -.86-2.42-1.81-5.1-1.64-6.91 s -.86-4.15-1.38-5.53,0-4.71,0-6 c 0-.69-.64-.13-1.32-.59 a 3.33,3.33,0,1,0-6.63-.38 s -.39-1.28-.47,1.3 a 24.71,24.71,0,0,1-2.92,9.69 c -1.81,3.54-2.94,6.13-2.33,10.2 s 1.47,7.52,3,7.52 a 32.53,32.53,0,0,0,3.11,2.94 l 1,7.26 s 2.64-.37,2.4-4 c .8.79,1.83,1.65,1.83,1.65 a 2.33,2.33,0,0,0,1-2.68,5.29,5.29,0,0,0-2-2.76 l 2-1.81 a 2.6,2.6,0,0,0-2.78-1.31,13.47,13.47,0,0,0,1.14-4.48,14.75,14.75,0,0,0,1.9-4.06 c .52,2.16,2.2,4,3.63,4 S 116,129.55,115.12,127.13Z" fill="param(skin_tone)"/>
  </g>
  <g id="fixed-colours">
    <path d="M 103.29,136 s -.1-1.13.68-1.33,1.43-.31,1.43-.31 l .52,1.22Z" fill="#fff"/>
    <path d="M 107.8,139.14 s -.81-1.2,0-1.94 a 6.48,6.48,0,0,1,1.52-1.07 l 1.1.84Z" fill="#fff"/>
    <path d="M 107.57,141.87 a 1.43,1.43,0,0,1,1.81-.19 c 1.2.58,1.26,1.17,1.26,1.17 l -.65,1.39Z" fill="#fff"/>
    <path d="M 105.56,143.13 s .81-.45,1.2.1 a 5.83,5.83,0,0,1,.42,2.2 l -1.33.75Z" fill="#fff"/>
  </g>
  <g id="outline">
    <path d="M 102.45,107.71 c 0,1.3.76,2.15.28,4.46 s -4.65,10.39-5.1,12.79.83,8.81,1.8,10.63,1.68,1.17,2.59,1 a 25.94,25.94,0,0,1,4.92-.52 c -.13-1.88-1.08-2.28-2.38-2.79 a 3.34,3.34,0,0,0-3.07.26 s 3.5,0,4,1.75 c -1.68.19-4.15,1.1-4.8-.06 A 24.5,24.5,0,0,1,99,127.61 c -.19-2.92.45-3.82,1.68-6.61 s 3.13-5.89,3.63-8.58-.09-3.38-.13-4.74 a 3.33,3.33,0,0,0-1-2.2 A 3.94,3.94,0,0,0,102.45,107.71Z"/>
    <path d="M 102.81,133.36 s .69-1.64-1.6-1.94 a 1.44,1.44,0,0,1,.86,2.07 A 2.83,2.83,0,0,1,102.81,133.36Z"/>
    <path d="M 100.17,127.39 a 4.8,4.8,0,0,1,2,4.54.69.69,0,0,1,.39.69 A 3.81,3.81,0,0,0,100.17,127.39Z"/>
    <path d="M 100.39,136.29 a 38,38,0,0,0,4.8,3.93,2.42,2.42,0,0,0,3.13-.5 c .59-.59,3.24-2.85,3.24-2.85 s -1.6-1.9-3.24-1.81 a 2.71,2.71,0,0,0-2.22,1.06 l -.52-.48-1.3.3,1.77,1.3 s 2.16-2,3.89-.26 c -1.64,1-2.59,2.33-3.67,2.38 s -4.36-3.11-4.36-3.11Z"/>
    <path d="M 108.83,138.37 s 3.35,2.31,2.53,4.47 a 5.72,5.72,0,0,1-1.43,2.14 s -4-4.1-5.44-5.31 c .56,0,1.12,0,1.12,0 l 4.15,3.93 s 2.07-2.16-1.83-4.64 C 107.93,138.56,108.83,138.37,108.83,138.37Z"/>
    <path d="M 103.71,138.56 s 1.51,6.29,1.17,8.36 c 2.4.06,4.13-1.22,3.63-4 a 8.85,8.85,0,0,0-1.08-1 s .52,3.41-1.38,3.93 a 34.51,34.51,0,0,0-.69-6.35Z"/>
    <path d="M 104.49,129.25 a 14.64,14.64,0,0,1-.26,4.19,2.43,2.43,0,0,1,.91.6 s .82-3.46.3-4.84 a 3.57,3.57,0,0,1-2.33-1.43 A 3.11,3.11,0,0,0,104.49,129.25Z"/>
    <path d="M 106.43,129.73 a 1.78,1.78,0,0,0,1.49.76 c -.15,1.52-.67,5.28-.67,5.28 l -.82.26-.09-.78 L 107,131 A 3.66,3.66,0,0,1,106.43,129.73Z"/>
    <path d="M 108.46,135.64 a 11,11,0,0,0,1.34-4.21,6.51,6.51,0,0,0,1.1-2.64,5.32,5.32,0,0,0,1.88,2.51 c .68.45,2.46,1.1,3.24-.26 s -.08-2.85-1.24-6.54 c -1.06-3.36-.21-5.14-1.37-8.42 s -1.45-3.89-1.25-5.14 a 16.83,16.83,0,0,0,.33-3.31,3.41,3.41,0,0,0-.93-2.08,4.19,4.19,0,0,0-.73,2,19.73,19.73,0,0,1-.43,3.61 c -.33,1.25.48,3.46,1.21,5 s 1.51,2.89,1.17,4.92,3,8.49,2.46,9.07-2.33.39-3.11-1.73 a 22.83,22.83,0,0,0-1.3-3.11 s -1.21,3.93-2.2,5.23 a 16.39,16.39,0,0,1-1.47,4.71,2.11,2.11,0,0,0,0,.69Z"/>
    <path d="M 112.78,121.13 a 6.15,6.15,0,0,1-.78,2.2,4.34,4.34,0,0,0,1.75-2.27 C 114.47,119.32,112.78,121.13,112.78,121.13Z"/>
    <path d="M 107.26,127.93 s -3-3-5.31-3.82 C 104.8,124.11,106.29,125.86,107.26,127.93Z"/>
    <path d="M 104.37,121.45 a 6.74,6.74,0,0,1,2.46,3.5 A 3.07,3.07,0,0,0,104.37,121.45Z"/>
    <path d="M 103.63,135.86 s -.73-1.08,1.9-1.17 c .17-.22-.13-.3-.13-.3 s -2.72-.35-2.33,1.64 A 1.05,1.05,0,0,0,103.63,135.86Z"/>
    <path d="M 109.54,136.29 s -2.81,1.17-1.6,2.51 a 1.07,1.07,0,0,1-.48.39 s -1.47-1.56,1.68-3.15 C 109.63,135.9,109.54,136.29,109.54,136.29Z"/>
    <path d="M 107.93,142.07 s .8-1.37,2.65,1 a .83.83,0,0,0,.17-.39 s -1.51-2.38-3.41-1 C 107.38,142,107.93,142.07,107.93,142.07Z"/>
    <path d="M 105.53,143.42 s 1.64-1.56,1.38,2.51 l .43-.52 s .26-3.46-1.81-2.59 C 105.14,143.2,105.53,143.42,105.53,143.42Z"/>
  </g>
<script type="text/ecmascript" xlink:href="param.min.js"/> 
</svg>
