<?xml version="1.0"?>
<svg xmlns="http://www.w3.org/2000/svg" xmlns:xlink="http://www.w3.org/1999/xlink" viewBox="0 0 215 215">
  <title>LHXXX</title>
  <g id="skin-tone">
    <path d="M 111.19,114.51 c -.12-1.87-.32-6.88-.32-6.88 h 0 c 0-.09,0-.18,0-.27 a 3.33,3.33,0,0,0-3.32-3.06 h -.28 a 3.33,3.33,0,0,0-3,3.6 c -.37.19-1.37,5-2.24,5.94 s -1.33,1.83-1.21,5.08 a 11.46,11.46,0,0,1-1.92,6.17 s -.33,1.33,1.25,1.29,2.92-2.83,3.42-4.87 a 4.71,4.71,0,0,1,2.9,4.38,3.71,3.71,0,0,1-2.4,3.42,2.45,2.45,0,0,0-1.58,2.5 l 2.71-1 a 16.57,16.57,0,0,1-1,2.92 c -.71,1.5-1.46,4.17.13,4.88-.46,5.33,2.25,4.42,2.25,4.42 a 15.53,15.53,0,0,1,.13-2.46,2.39,2.39,0,0,0,2.75,1.5 s -.12-1.5-.12-6.5,1.25-9.12,2.13-13.12 S 111.31,116.38,111.19,114.51Z" fill="param(skin_tone)"/>
  </g>
  <g id="fixed-colours">
    <path d="M 99.94,123.47 s 1.62.56-.09,2.75 a 1.76,1.76,0,0,1-1.06-1Z" fill="#fff"/>
    <path d="M 109,139.29 s -.66-.31-.78.28 a 13,13,0,0,0,0,2.25 l .94.13Z" fill="#fff"/>
    <path d="M 106.37,140.47 s -1.06-.47-1,2.38 a 3.62,3.62,0,0,0,.88.06Z" fill="#fff"/>
  </g>
  <g id="outline">
    <path d="M 112.48,107.63 c 0,1.21-.79,4.63-.79,6 s .52,3.1.69,5.52-1,5.55-1.69,8.23 c -1.06,4-1.25,13-1,14.83 a 2.44,2.44,0,0,1-2.42-.21 c -.78-.51-1.69-2.37-1.77-7.79 s .94-8.92-.15-10.5-1.17-1.5-1.42-1.33-.83,2.5-2.25,3.75-2.56.65-3.5-.35 c .17-1.17,2-2.37,2.12-6.37 s .06-4.6,1.06-5.69 a 4.26,4.26,0,0,0,1.15-3.92 c -.42-1.17.42-3.75,1-4.58 a 7.31,7.31,0,0,1,.66,2.64 c .09,1.11.42,4.27-.83,5.61 a 5.35,5.35,0,0,0-1.76,3.78 c -.47,4.21-1.29,6.67-2.5,8.13.19.56.76.93,1.93.09 s 2.25-3.75,2.42-4.83 a 5.35,5.35,0,0,1,3.25,4.58 c .08,1.67-.47,8.09-.31,10.25.19,2.5.31,6.33,2.5,6.25-.08-2.08-.44-7.86.13-11.06 s 1.1-5.44,1.52-7.35.83-4.5.25-6.5,0-8.47.05-9.48 a 4.93,4.93,0,0,1,.61-2 A 3.67,3.67,0,0,1,112.48,107.63Z"/>
    <path d="M 106.88,141.07 a 6,6,0,0,1-.57-1.5 c -.19,1.45-.22,2.41-.25,3-.92.25-1.42-.81-1.42-3.12 a 34,34,0,0,1,1.23-6.65v-2 c -2.15,4.9-2.61,10.64-1.31,11.84 a 2.25,2.25,0,0,0,2.22.59 A 21.64,21.64,0,0,1,106.88,141.07Z"/>
    <path d="M 104.5,139.57 s -1.81-1.06-1.75-2.69,1.25-3.75,1.81-5.19 l 1.75-4.5v1.19 s -1.31,4-1.94,5.5-1.62,3.63.25,4.69 A 2.17,2.17,0,0,1,104.5,139.57Z"/>
    <path d="M 106.37,125.88 s -.81,2.38-1.87,3 c -1.65.33-3,2-2.4,3.5,1.31-.62,3.13-1.33,3.13-1.33 l .17-.75-2.67,1 a 2.53,2.53,0,0,1,1.83-1.67,3,3,0,0,0,1.81-2.21 C 106.69,126.26,106.37,125.88,106.37,125.88Z"/>
    <path d="M 100,123.63 s 1.33.75-.5,2.71 c .38,0,.58,0,.58,0 s 1.67-2.42.13-3 C 100,123.38,100,123.63,100,123.63Z"/>
    <path d="M 109,139.63 s -1.19-1.11-.54,2.38 c -.39-.32-.42-.21-.42-.21 s -.62-3.21.79-2.83 A 1.11,1.11,0,0,1,109,139.63Z"/>
    <path d="M 106.65,140.8 s -1.25-1-1,2.13 a 1.11,1.11,0,0,1-.33-.17 s -.46-2.75,1.25-2.46 A 1.69,1.69,0,0,1,106.65,140.8Z"/>
  </g>
<script type="text/ecmascript" xlink:href="param.min.js"/> 
</svg>
