<?xml version="1.0"?>
<svg xmlns="http://www.w3.org/2000/svg" xmlns:xlink="http://www.w3.org/1999/xlink" viewBox="0 0 215 215">
  <title>hand-cuffs</title>
  <g id="skin-tone">
    <circle cx="107.5" cy="107.63" r="3.33" transform="translate(-8.44 9.15) rotate(-4.69)" fill="param(skin_tone)"/>
    <path d="M 103.52,107.88 l 7.32-.25 a 14.27,14.27,0,0,0,2.73,2.21,7,7,0,0,1,3.42,3.71,10,10,0,0,0,3.5,4.63 c 1.13.67,4.08,2.54,4.08,2.54 a 3.18,3.18,0,0,1-3.54,1.75,19.21,19.21,0,0,1-5.5-2.62,48.9,48.9,0,0,1,1.17,7 c 0,2-.12,5,.54,5.92 a 11.78,11.78,0,0,1,1.13,3.25,5.71,5.71,0,0,1-3.12,2.63 c -.75-2.29-1.58-4.29-1.58-4.29 s -.67,2.58-1.37,3.08-2.21.54-3.87-1.67 a 2,2,0,0,1-2.54-.37,24.36,24.36,0,0,1-2.25-2.58 s -1.58.63-2.29-.5 a 21.15,21.15,0,0,1-2.21-7.58 c -.17-2.75.5-5.17,0-7 a 5.59,5.59,0,0,1,1-5.37 C 101.73,110.13,103.19,109,103.52,107.88Z" fill="param(skin_tone)"/>
    <path d="M 116.48,141.63 l 2.33-1.71 s .79,2.29-.12,3.29-1.46.13-1.62-.25Z" fill="param(skin_tone)"/>
  </g>
  <g id="main-colour">
    <path d="M 119.87,132.57 a 6.41,6.41,0,0,0-2.84-4.06 l .11,3.58 a 10.8,10.8,0,0,1,1.08,3.54 c .13,1.21-1,2.17-3.26,3.25-4.89,2.75-10.16,1.17-13-.21 s -4.08-3.79-4-5.87 a 7.28,7.28,0,0,1,1.88-3.92 l -.75-3.79 a 10.64,10.64,0,0,0-1.92,1.5 A 4.39,4.39,0,0,1,93.81,128 a 2.84,2.84,0,0,1-.58,2.33,2.49,2.49,0,0,0-.67,1 s -1.17,0-2.5,0 a 1.8,1.8,0,0,0-1.71.75,7.76,7.76,0,0,0-3.5-.37 c -1.42-1.46-4.87-1.33-6,0 a 10,10,0,0,0-3.92-.08,5.58,5.58,0,0,0-3.83-.58 s -.21-1.08-.62-1.21 a 2.81,2.81,0,0,1-1.33-1.37,5,5,0,0,1-3.46-1.83,9,9,0,0,0-5-3.33,16.07,16.07,0,0,0-11.33.83,9.38,9.38,0,0,0-4.83,5.79,1.94,1.94,0,0,0-.62,2.63 c .38.83,0,3,2.17,5.21 A 15.56,15.56,0,0,0,57.15,142 a 14.83,14.83,0,0,0,9.38-3.37,5.17,5.17,0,0,1,3-1 s .33-1.58,1-1.75 a 1.3,1.3,0,0,0,.88-.79 h 1.42 a 3.23,3.23,0,0,0,2.25-.58,6.36,6.36,0,0,0,4.25,0,5.8,5.8,0,0,0,5.6.27,4.15,4.15,0,0,0,4,.31,4,4,0,0,0,1.29.25 c .67,0,2.75,0,2.75,0 a 19,19,0,0,1,1.54,2 c 1-.08,2.59,1.84,4.88,3.25 a 16.1,16.1,0,0,0,8.19,2.64,18.79,18.79,0,0,0,9.78-2.08,7.76,7.76,0,0,0,3.84-4.56,3.52,3.52,0,0,0,.69-2 A 2,2,0,0,0,119.87,132.57Z M 63.1,137.34 c -3.08,2.46-8.83,2.29-12.08.79 s -4.54-3.79-4-4.92,1.13-2.08.08-3 a 8.35,8.35,0,0,1,6.17-4.67 c 4.71-.92,9.5.46,11.63,3.5 S 66.19,134.88,63.1,137.34Z m 10.79-3.63 a 1.14,1.14,0,0,1-.69.27.81.81,0,0,1-.78-.89 c 0-.59.69-.92,1.3-.77-.33.56.25,1.16.25,1.16Z m 1.61,0,0-.7 a 10.37,10.37,0,0,1,2.67-.06,1.58,1.58,0,0,0,.34.77 A 6.6,6.6,0,0,1,75.5,133.66Z m 4.91-.22 c .27-.34,0-.81-.17-1 a 3.1,3.1,0,0,1,3.34.11 c -.2.5-.23.86,0,1.13 A 4.79,4.79,0,0,1,80.41,133.44Z m 5,.47 a 1.15,1.15,0,0,0,.17-.62,13.16,13.16,0,0,1,2.48.16,1,1,0,0,0,.09.69 A 4.68,4.68,0,0,1,85.42,133.91Z m 4.92,0 a .61.61,0,0,1-.83-.11.8.8,0,0,0,0-1.2.73.73,0,0,1,.86,0 A .84.84,0,0,1,90.34,133.93Z" fill="param(main_colour)"/>
  </g>
  <g id="fixed-colours">
    <path d="M 124.31,120.76 a 6.5,6.5,0,0,1-1.21,1.17 c -1.46-.37-2.92-.87-1.79-2.75Z" fill="#fff"/>
    <path d="M 114.73,131.13 l -.54,1.5 a 1.21,1.21,0,0,1-1.33.17 c -.62-.42-.12-2.12.25-2.5 A 2.57,2.57,0,0,1,114.73,131.13Z" fill="#fff"/>
    <path d="M 109.19,126.17 s -.29.83-.71.88-1.29-.33-1.5-2 a 1.12,1.12,0,0,1,2-.27Z" fill="#fff"/>
    <path d="M 105.27,124.92 l .13,1.17 s -.21,1-.62,1.21-1.56-.15-1.32-2.28 A 1.42,1.42,0,0,1,105.27,124.92Z" fill="#fff"/>
    <path d="M 119.06,134.71 a .71.71,0,0,1,.83-.77.86.86,0,0,1,.63.83 c 0,.31-.29.63-.81.63 S 119.1,134.94,119.06,134.71Z" fill="#808285"/>
    <path d="M 45.75,130.94 a .71.71,0,0,1,.06,1.41 c -.25,0-.81-.37-.81-.69 A .71.71,0,0,1,45.75,130.94Z" fill="#808285"/>
  </g>
  <g id="outline">
    <path d="M 120.16,122.82 c 2.72,1,4.25-.41,4.94-2.34-5.16-2.56-6.87-4.91-7.25-6.53 a 6.91,6.91,0,0,0-2.44-3.94,12.1,12.1,0,0,1-2.56-2.31,5.54,5.54,0,0,1-1.37-2.69,3.14,3.14,0,0,0-.63,2.62 c .37,1.72,1.88,2.6,3.63,3.72 s 1.91,2.88,3.09,4.78 a 11.38,11.38,0,0,0,3.43,3.18 c -1,1.74.39,2.41,1.37,2.65-2.21.62-5.4-2-6.68-2.89 a 16.55,16.55,0,0,0-4.44-2.16,7.93,7.93,0,0,1-3.28-2.5 c 2.5,4.16,4.94,3.72,6,4.53 l 1.08.84 c .27,1.53,1,5.68,1.14,7.69 s -.13,4,.11,4.8 a 4.6,4.6,0,0,1-1.49.48,2.13,2.13,0,0,0,1.76,0,9.09,9.09,0,0,1,1.37,3.24,5.83,5.83,0,0,1-2.45,2.25 c -.28-.82-1.14-3.23-1.48-4.19.42-1.29.82-2.53,1-2.87 a 2.45,2.45,0,0,0-1.33-1.18,23.73,23.73,0,0,0-1.69-2.89 A 11.73,11.73,0,0,1,113,130 l -.1,0 c -.78.28-1.09,1.28-1.37,1.94 a 7.79,7.79,0,0,1-.67,1.15,5.11,5.11,0,0,0-.08-1 c -.25-1.44-1.31-5.72-1.44-7.25 a 1.5,1.5,0,0,0-2.78,0 c -.37.93-.12,3.56.31,5.73 a 6.93,6.93,0,0,0-1.15,2.08,6.37,6.37,0,0,1,1.26-1.55 c .12.56.26,1.07.39,1.49 A 42.6,42.6,0,0,1,107,126 c .27.6.79,1.42,1.47,1.31 a .74.74,0,0,0,.6-.46 c .24,1.29.59,2.82.87,3.87.44,1.69.53,3.38-.09,4.09 a 4.23,4.23,0,0,1-3,.84 c -.58-.08-2.07-2-2.61-2.75 a 8.88,8.88,0,0,0,1.48-1.31,3.39,3.39,0,0,0,.47-3.37,14.64,14.64,0,0,1-.59-3.62 c -.31-.28-2.12-.59-2.62.66 a 6.61,6.61,0,0,0-.24,2.72,6.83,6.83,0,0,1-1.32-1,2.39,2.39,0,0,0,1,1.29,3.85,3.85,0,0,1-.5,1.21,3.4,3.4,0,0,0,.91-1,5.91,5.91,0,0,0,.52,1.89,24.87,24.87,0,0,1-.09-4.06,2.24,2.24,0,0,1,.1-.38 c .13.88.42,1.61,1.21,1.63 a .84.84,0,0,0,.81-.52,20.37,20.37,0,0,1,.37,2.86 c 0,1.09-1.44,2-1.87,2.34 a 2.25,2.25,0,0,1-1.78.28 c -.5-.19-.69-1-1.44-3.41 a 20.11,20.11,0,0,1-.91-5.84 c 0-1.31.66-2.59,0-5.56 a 6.67,6.67,0,0,1,2.31-6.19,5.22,5.22,0,0,0,2.2-3.88,3.62,3.62,0,0,0-.92-2.62 c 0,2.88-2.28,5.22-4.16,7.63 s -.34,5.69-.47,7.09 a 35.8,35.8,0,0,0-.11,4.89 c -.44.45-1.05,1.07-1.42,1.49 a 5.06,5.06,0,0,1-3.56,1.47,3.75,3.75,0,0,1-.87,2.78,1.45,1.45,0,0,0-.28.58 l -2.65,0 a 2.18,2.18,0,0,0-1.52.79,7.21,7.21,0,0,0-.9-.25,6,6,0,0,0-2.26,0 A 4.76,4.76,0,0,0,82,130.4 a 4.64,4.64,0,0,0-3.32,1,7.23,7.23,0,0,0-3.45-.07,2.92,2.92,0,0,0-1.38-.6,20.38,20.38,0,0,0-2.24-.07 c -.19-1-.49-1.15-.81-1.27 A 1.92,1.92,0,0,1,69.44,128 c -4.21-.37-2.67-3.87-9.5-5.29 s -10.37.38-13,2.5 a 8.16,8.16,0,0,0-2.8,4.45,2,2,0,0,0-.2.13,2.07,2.07,0,0,0-.37,2.79 c .42.75.13,2.67,1.08,4.08,2,3.17,6.75,5.88,12.17,6 a 14.45,14.45,0,0,0,9.83-3.54 A 5.44,5.44,0,0,1,69.85,138 a 3.08,3.08,0,0,1,1.42-2,.94.94,0,0,0,.45-.72 l 2.12,0 a 1.84,1.84,0,0,0,1.24-.58,6.89,6.89,0,0,0,4.18.06,3.84,3.84,0,0,0,.81.39 c 1.83.63,3.92.5,4.81-.14 a 4.81,4.81,0,0,0,3.82.22,1.85,1.85,0,0,0,.95.32,29.36,29.36,0,0,0,2.95,0 h 0 c .78,1.31,1.19,1,1.34,2.34,1.41-.06,2.09.84,3.34,1.78 s 4.78,3.41,8.56,3.78 a 20.77,20.77,0,0,0,10.25-1.37 l .13-.06 a 8.91,8.91,0,0,0,1.06,1.84 c .41.38,1.44.09,2-1 a 4.7,4.7,0,0,0,0-2.86,8.7,8.7,0,0,0,2-3 c .5-1.28,1.31-2,.84-3.16 a 2.43,2.43,0,0,0-1.83-1.61,7.48,7.48,0,0,0-2.83-4,49.62,49.62,0,0,0-1.13-7.7 A 17.39,17.39,0,0,0,120.16,122.82Z m 1.2-3.28 a 22.32,22.32,0,0,0,2.43,1.31,2.62,2.62,0,0,1-.82.85 C 120.81,121.26,121,120.1,121.35,119.54Z m -13,7.4 c -.57,0-1.09-.78-1.3-1.78 a 1,1,0,0,1,1.71-.25,11.66,11.66,0,0,0,.18,1.45 C 108.86,126.66,108.68,126.94,108.37,126.94Z m -3.84.28 c -.78,0-.95-1.19-1-1.84 a 1.35,1.35,0,0,1,1.55-.29,10.21,10.21,0,0,0,.1,1.28 C 105.1,126.8,104.91,127.22,104.53,127.22Z M 55.6,123 c 6.67,0,9.12,2.88,9.67,3.54 a 8,8,0,0,0,1.42,1.39,1.9,1.9,0,0,0-1,.57,1.8,1.8,0,0,0-.15.83 c -1.33-2.2-4.17-4.48-9.35-4.38-6.69.14-8.63,3.68-9.08,4.84 a 3,3,0,0,0-2.27-.42 C 46,126.56,49.22,123,55.6,123Z m -7.92,7.3 c .51-1.06,2.47-4.68,8.42-4.72,6.29,0,9.54,3.75,9.67,6.71 s -3.42,6.25-8.33,6.63 a 12.06,12.06,0,0,1-9.21-3.12,2.51,2.51,0,0,1-.62-3.25 A 1.79,1.79,0,0,0,47.68,130.3Z m 22.63,5 A 2.74,2.74,0,0,0,68.94,137 a 5.67,5.67,0,0,0-3.33,1.58,13.55,13.55,0,0,1-8.12,2.83,15.91,15.91,0,0,1-9.37-2.75,7.17,7.17,0,0,1-3.5-5 c -.08-1.08-.67-1.67-.62-2.46 s 1-1.37,2.13-1.08,1.71,1.33,1.13,2.13 a 2.86,2.86,0,0,0-.29,2.75 c .38.75,3.13,4.58,10.17,4.54 s 9.21-5,9.37-7.08 a 4.09,4.09,0,0,0-.15-1.28,11.27,11.27,0,0,1-.14-2 c 0-.62,1.24-.59,2.06-.5 a 3.3,3.3,0,0,0,.73.11,2.67,2.67,0,0,0,.88,1.21,1.59,1.59,0,0,1,.79,1 c .08.42.13,2,.21,2.79 S 70.69,135.26,70.31,135.34Z m 44.09-4.15-.43,1.3 a .75.75,0,0,1-.89.29 c -.78-.29-.21-1.64.07-2.22 l .08,0 C 113.91,130.41,114.41,131.19,114.41,131.19Z m -4.16,4 a 3.74,3.74,0,0,0,.53-1.22,8.26,8.26,0,0,0,1.06-1.59,7.15,7.15,0,0,1,.73-1.4 c -.26.82-.27,1.84.39,2.08 a .85.85,0,0,0,.86-.15 c -.3.93-.65,2-.83,2.62-.37,1.25-1,1.94-1.59,1.91 a 3.78,3.78,0,0,1-2.46-1.45 A 3,3,0,0,0,110.25,135.22Z m -8.09-2 a 3.61,3.61,0,0,0,1,0 c .68.8,2.59,3,3.38,3.17 a 3.68,3.68,0,0,0,1.67-.14,6.2,6.2,0,0,0,1.86,1.52 c .91.34,2.22.41,2.72-.41 a 15.45,15.45,0,0,0,.84-2.17 l 1.23,3.36-.82.4 a 14.06,14.06,0,0,1-10.72-.06 c -1.72-.75-5.12-2.72-4.94-5.81 a 4.91,4.91,0,0,1,1.31-3.45 C 100.31,131.45,101.17,133.14,102.16,133.26Z m -3.51-7.48 a 27.83,27.83,0,0,0,.8,3.17,4.34,4.34,0,0,0-.62.67 c -.16-.61-.51-1.63-1.14-1.89 a 1.64,1.64,0,0,0-.69-.11 C 97.5,127.05,98.14,126.31,98.65,125.77Z M 89.35,133 a .32.32,0,0,1,0,.33 s -3.71-.94-5.65-.15 c 0,0,.23-1,1.9-1.19 S 88.95,132.43,89.35,133Z m .6,0 a 1.09,1.09,0,0,0-.17-.3 l .09,0 a .55.55,0,0,1,.6.59.53.53,0,0,1-.56.57 l -.09,0 A 1,1,0,0,0,90,133Z m -2.06,1 a 7.3,7.3,0,0,1-2.21-.15,3.25,3.25,0,0,0,.13-.44,16.88,16.88,0,0,1,2,.13 A 3.76,3.76,0,0,0,87.9,134Z m -7.45-1.4 a 2.9,2.9,0,0,1,2.75,0,1,1,0,0,0,0,1,6.8,6.8,0,0,1-2.49-.22 A 1.22,1.22,0,0,0,80.45,132.62Z M 82,131 a 4.8,4.8,0,0,1,2.44.67,2.7,2.7,0,0,0-.81.48 l -.11.12 a 3.3,3.3,0,0,0-3.4,0,3.59,3.59,0,0,0-.8-.54 A 4.62,4.62,0,0,1,82,131Z m -1.77,1.94 c -1.19-.54-4.81-.67-6.27.15,0,0-.4-.83,1.06-1.25 C 76.18,131.48,79.23,131.34,80.21,132.92Z m -2.05.71 a 14.27,14.27,0,0,1-2.46,0,3.12,3.12,0,0,0,.08-.49,18.72,18.72,0,0,1,2.17-.05 A 2.5,2.5,0,0,0,78.16,133.63Z m -4.42-.1,0,.05 a .66.66,0,0,1-1.06-.27.65.65,0,0,1,.75-.83 A .8.8,0,0,0,73.74,133.54Z m 0,1.22 c -.92,0-1.58,0-2,0 a 17.66,17.66,0,0,0,0-2.15 c 0-.48-.05-.88-.09-1.23.43,0,1.22,0,1.57,0 a 3.25,3.25,0,0,1,1.3.16,2.45,2.45,0,0,0-.84.49 l 0,.05 a 1.11,1.11,0,0,0-.85,2.05,1.05,1.05,0,0,0,1.5-.8,6.2,6.2,0,0,1,.9-.19 A 1.55,1.55,0,0,1,73.75,134.76Z m 1.62-.39 a 2.49,2.49,0,0,0,.23-.46,10,10,0,0,0,2.76.06,2.89,2.89,0,0,0,.42.48 A 7.51,7.51,0,0,1,75.37,134.36Z m 3.2-1.28 c .47,0,.91.07,1.28.13 a 3.46,3.46,0,0,0,2.5.86,2.37,2.37,0,0,0,1.89-.51,8,8,0,0,1,1.09-.12 c -.07.36-.4,1.16-1.94,1.42 C 81.45,135.19,79.15,134.63,78.58,133.08Z m 6.58,1.71 a 3.26,3.26,0,0,0,.4-.62,6.49,6.49,0,0,0,2.45.2,2.17,2.17,0,0,0,.31.56 A 6.69,6.69,0,0,1,85.16,134.79Z m 4.57.13 c -.62,0-1.09-.45-1.29-1.29 l .63.1 a 1,1,0,0,0,.86.6,1,1,0,0,0,1-1,1,1,0,0,0-1.07-1.08.81.81,0,0,0-.41.1,3.63,3.63,0,0,0-.61-.36,1.67,1.67,0,0,1,1-.36 c .64,0,1.82,0,2.4.06 a 8.48,8.48,0,0,0,.12,3.23Z m 29,7.52 c -.28,1-1,1-1.12.78 l -.78-1.48 a 9.47,9.47,0,0,0,1.89-1.24 A 4.47,4.47,0,0,1,118.75,142.44Z m 2.63-7.09 a 11.61,11.61,0,0,1-2.84,4.41 c -2.06,1.75-7.12,3.56-12.53,2.78 a 16.26,16.26,0,0,1-9-4.37,7.62,7.62,0,0,0-2.56-1.53,8.82,8.82,0,0,0-1.22-1.53 s -.62-2.62-.06-3.94 a 2.48,2.48,0,0,0,1.19-2.47,3.78,3.78,0,0,0,2-.35 c 1.1-.47,2,.63,1.92,2.23 a 6.52,6.52,0,0,0-.59,2.75 c 0,3.53,3.19,5.88,7.72,7 s 9.87-.71,11.41-1.94 c 1.28-1,2-2.15,1.61-3.2 a 3.08,3.08,0,0,0-.19-1.51,1.67,1.67,0,0,1,1.67-.85 A 1.74,1.74,0,0,1,121.37,135.35Z m -1.79-3 a 1.86,1.86,0,0,0-1.58.82,3.88,3.88,0,0,1-.53-2.68,12.75,12.75,0,0,0,0-1.41 A 7.64,7.64,0,0,1,119.58,132.3Z"/>
    <path d="M 118.84,134.57 a 1,1,0,0,0,.91,1.09.91.91,0,0,0,1-.81,1,1,0,0,0-.81-1.12 A 1,1,0,0,0,118.84,134.57Z m 1.5.19 a .59.59,0,0,1-.59.47 c -.22,0-.56-.31-.5-.62 a .59.59,0,0,1,.59-.47 A .64.64,0,0,1,120.34,134.76Z"/>
    <path d="M 68.31,130.46 a .85.85,0,0,0-.92.92,1,1,0,0,0,.63.92 s 0,1.13,0,1.63.08.79.42.79.29-.5.29-.79v-1.67 c .17,0,.42-.33.42-.92 A .88.88,0,0,0,68.31,130.46Z"/>
    <path d="M 95.77,131.09 a .85.85,0,0,0-.92.92,1,1,0,0,0,.63.92 s 0,1.13,0,1.63.08.79.42.79.29-.5.29-.79v-1.67 c .17,0,.42-.33.42-.92 A .88.88,0,0,0,95.77,131.09Z"/>
    <path d="M 45.84,130.66 a 1,1,0,0,0-1.06.84,1,1,0,0,0,.91,1.09.91.91,0,0,0,1-.81 A 1,1,0,0,0,45.84,130.66Z m -.16,1.5 c -.22,0-.56-.31-.5-.62 a .59.59,0,0,1,.59-.47.64.64,0,0,1,.5.63 A .59.59,0,0,1,45.69,132.16Z"/>
  </g>
<script type="text/ecmascript" xlink:href="param.min.js"/> 
</svg>
