<?xml version="1.0"?>
<svg xmlns="http://www.w3.org/2000/svg" xmlns:xlink="http://www.w3.org/1999/xlink" viewBox="0 0 215 215">
  <title>stethoscope</title>
  <g id="skin-tone">
    <path d="M 111.19,131 c .94,1.29,3,.58,3.65-1.12 s .08-5,.08-5 a 4,4,0,0,0,2.76-1.42 c .88-1.29.91-3.37.58-5.21 s -3.67-3.75-5.17-5.21-1.69-4.83-1.69-4.83 l -.57-.6 h 0 s 0-.07,0-.11 a 3.33,3.33,0,0,0-3.33-3.28 h -.06 a 3.33,3.33,0,0,0-3.28,3.39 s -1.91,4.52-2.87,6.06-2,5.25-2.71,8.52-.46,5.19.54,7.06,2.79,1.29,3.83.6 c .83,2,2.92,1.52,4,.71 A 2.7,2.7,0,0,0,111.19,131Z" fill="param(skin_tone)"/>
  </g>
  <g id="main-colour">
    <path d="M 100.94,125.19 a 52.42,52.42,0,0,0-9.06-.75 c .38,5.94-2.81,12.38-6.62,15.13 a 16.34,16.34,0,0,1-10.5,2.94,4.06,4.06,0,0,1,.19-4.06 s 5.81.19,9.06-3.56 a 15.56,15.56,0,0,0,3.19-13.25 c -.94-4.25-6.62-11.44-19.19-9.12 a 3.44,3.44,0,0,1-.5-4.31 c 7-.87,19.81-.25,23.56,12.13,3.44-.44,11.11,1.11,11.11,1.11 s -.61,1.45-.79,2.14Z" fill="param(main_colour)"/>
    <path d="M 115.19,127.88 l -.25-2.62 s 2.13-.44,2.81-1.31 a 20.69,20.69,0,0,1,13.94,7.5 c 4.88,5.69,2.44,10.94,2.44,10.94 l -3.62-.94 a 9,9,0,0,0-1.62-7.12 A 16.93,16.93,0,0,0,115.19,127.88Z" fill="param(main_colour)"/>
  </g>
  <g id="fixed-colours">
    <path d="M 109.69,125.3 a 2,2,0,0,1-.12-1.21 c 0-.21.82-.43.82-.43 s 1-.35,1.57.28.4.9.4.9Z" fill="#fff"/>
    <path d="M 127.44,142 c 2.52-.69,8.25-.92,9.92,5.5 s -4.33,9.33-6.5,9.42 a 8.42,8.42,0,0,1-8.08-5.83 A 6.88,6.88,0,0,1,127.44,142Z" fill="#bcbec0"/>
    <path d="M 66.94,109.67 s -16.2,5.22-24.14,19.15 a 10.77,10.77,0,0,1-2.61-7.07,5.9,5.9,0,0,1-2.17.42,20,20,0,0,0,3.5,9.67 c -.67,2.92-1.25,6.83.83,10.33 a 5.64,5.64,0,0,1,1.75-.5,16.2,16.2,0,0,1-.65-7.46 c 3.82,3.55,13.82,7.46,31.15,7.8 a 2.84,2.84,0,0,1-.08-2.42 s -20.67-.92-30.17-8.17 c 4.25-7.92,14.5-16.5,23.42-19.33 a 2.66,2.66,0,0,1-.83-1.58Z" fill="#bcbec0"/>
    <path d="M 50.06,121.07 c 3.85-3.45,15.25-10.5,15.63-9.75 s -4.81,2.31-11.88,7.69-9.62,9.75-10.44,12-1.44,5.19-.94,7.44.25,2.75-.31,1.19 S 39.94,130.13,50.06,121.07Z" fill="#fff"/>
    <path d="M 58.94,138.51 a 89.6,89.6,0,0,0,12.88,1.81 c 1.13,0,2.44.63.31.69 a 79.85,79.85,0,0,1-13.81-1.75 c -5.81-1.19-14.06-4.75-13.62-5.75 S 46.81,135.69,58.94,138.51Z" fill="#fff"/>
    <path d="M 39.27,123.3 c .2-.06.63,1.71,1,2.92 s 1.42,3.42,1.21,3.62-.92-1.08-1.67-3.21 S 39,123.38,39.27,123.3Z" fill="#fff"/>
    <path d="M 132.12,143.19 c 3.19.77,4.25,4.25,4.25,5.56 s -.87,3.19-.87,1.63.13-3.81-2.37-5.56 a 5.52,5.52,0,0,0-7.19.69 c -1.19,1.33-2.06,2.25-1.37.5 S 128,142.19,132.12,143.19Z" fill="#fff"/>
    <path d="M 128.12,154 a 5,5,0,0,0,4.44.06 c 1.25-.62.69.31-.06.81 a 4.89,4.89,0,0,1-4.94-.19,6.5,6.5,0,0,1-3.25-3.5 c -.25-.75-.06-1.06.69.06 A 7.15,7.15,0,0,0,128.12,154Z" fill="#fff"/>
    <path d="M 128.25,150.69 a 2.75,2.75,0,0,1,.31-3.75 c .88-.69,2.31-.5,1.75-.06 s -1.44.81-1.75,1.75 a 2.45,2.45,0,0,0,.81,2.38 C 129.57,151.18,128.75,151.32,128.25,150.69Z" fill="#fff"/>
  </g>
  <g id="outline">
    <path d="M 134.89,142.68 c .37-1.59,1.2-6.6-2.07-10.86 a 21.24,21.24,0,0,0-14.07-8.42,7.06,7.06,0,0,0,.48-1.69 c .42-2.5.25-4.74-1.92-6.08 a 9.87,9.87,0,0,1-3.49-3.08 c -1.68-2.93-1-6-1.79-6.61,0,0-1.24.61-1.18,1.64.08,1.4,0,4.88,2.08,6.84 s 4.44,2.91,4.86,4.8-.5,4.47-1.33,4.72 c -.45.14-2.32.42-3.94.65 a 1.48,1.48,0,0,0-.89-1.11,3.3,3.3,0,0,0-1.64.1,2.56,2.56,0,0,1,1.14-1.22,11.21,11.21,0,0,1,3.83-1.33 s -4.75.58-7.08-2.92 c 0,1.17,1,2.17,1.8,2.8 a 3.87,3.87,0,0,0-1.51.2,3.44,3.44,0,0,0-3.37,0,2.62,2.62,0,0,0-1.45-.3,4.09,4.09,0,0,0,.41-1.43 s -.65.93-1.2,1.64 c -.46-.13-1.34-.36-2.54-.58 a 30.13,30.13,0,0,1,2.72-6.58,12.65,12.65,0,0,0,1.46-6.12,2.08,2.08,0,0,0-1.06-1.76 c -1,1-.48,4.5-2,7 a 38.43,38.43,0,0,0-2.91,7.13,37.82,37.82,0,0,0-6.71-.27 c -4.12-12.25-16.69-13.19-24.33-12.19 a 6.83,6.83,0,0,0-.56,1.61 c -14.72,6.19-21.18,13.64-24,19.22 a 19.66,19.66,0,0,1-2-6.45,2.3,2.3,0,0,0,.7-1.87,2.42,2.42,0,0,0-1.81-2 c 1.06-.31,1.44-2,1.13-3 a 3.21,3.21,0,0,0-3.31-2 A 2.79,2.79,0,0,0,35,116.32 a 2.6,2.6,0,0,0,2.56,2.25,2.05,2.05,0,0,0-1,2.19,2.13,2.13,0,0,0,1,1.58,21.8,21.8,0,0,0,3.58,9.61,16.23,16.23,0,0,0-.63,3.19,13.68,13.68,0,0,0,1.26,6.93,1.85,1.85,0,0,0-.39,1.69,2,2,0,0,0,1.94,1.56,2.5,2.5,0,0,0-1.31,3,3,3,0,0,0,3.75,2.25,2.82,2.82,0,0,0,2.19-3.5,3.43,3.43,0,0,0-2.81-2.19,2,2,0,0,0,.81-2.56,1.82,1.82,0,0,0-1.54-1.13,13.83,13.83,0,0,1-.63-6.44 c 5.58,4.53,17,7.4,30.51,7.74.07.17.13.34.22.51 a 15.49,15.49,0,0,0,12.31-4,18.4,18.4,0,0,0,5.56-14.06 c .86,0,2.9.15,4.74.31 a 8.85,8.85,0,0,0,1,4.68,2.88,2.88,0,0,0,4.51.88 c 1,1.39,2.83,1.87,4.08.7 A 3.07,3.07,0,0,0,111,132 c 1.54,1,3.33.44,4.33-1.39 a 4.42,4.42,0,0,0,.43-1.89,15.4,15.4,0,0,1,11.58,5,8.55,8.55,0,0,1,2.46,7.17,7.74,7.74,0,0,0-7.46,5 c -1.62,4.38.81,9.75,5.38,11.06 s 8.69-.87,10-5.25 A 9,9,0,0,0,134.89,142.68Z m -23.32-18.83 a 1.32,1.32,0,0,1,.54.79 l -2.16.3 a 1.84,1.84,0,0,1-.1-.92 A 3.37,3.37,0,0,1,111.57,123.84Z M 74.13,139 a 67.32,67.32,0,0,1-18.94-2.94 c -4.94-1.49-8.13-2.89-10.28-4.76 a 27.64,27.64,0,0,1,6.47-8.24,55.21,55.21,0,0,1,16.24-10.41,2.53,2.53,0,0,0,.45.29,17.31,17.31,0,0,1,9.63.31 c 5.25,1.69,9.19,4.5,9.38,11.69-.12,11.94-9.44,13-12.37,13 A 4.07,4.07,0,0,0,74.13,139Z M 38.45,122.62 a 2.56,2.56,0,0,0,.67,0,3.24,3.24,0,0,0,.74-.19,18.8,18.8,0,0,0,2.27,7 c -.27.6-.49,1.18-.68,1.73 A 18.73,18.73,0,0,1,38.45,122.62Z M 43,141.32 a 2.9,2.9,0,0,0-.63.29 c -2-4.74-1.94-12.32,7-20.6,8.07-7.48,15.29-10.15,17.07-10.73 A 3.12,3.12,0,0,0,67,112 c -8,2.58-21.25,12.86-23.4,19.6-1.57,4.92-.7,8.13-.08,9.57 A 3.61,3.61,0,0,0,43,141.32Z m 15.56-1.44 c -5.88-1.21-11-2.78-14.58-5.92 a 12.91,12.91,0,0,1,.53-1.72 l .24.21 c 4.44,3.39,17.84,7.45,29.18,7.43 a 4.81,4.81,0,0,0,.13,1.77 C 72.7,141.7,67.57,141.74,58.56,139.88Z m 32.75-16 a 17.66,17.66,0,0,1-3.5,12.19 c -3.5,4.81-7.37,6-12.44,6.13-.87-.81-.62-2.06-.12-3.19,13.81-.44,14.94-15.94,10.56-21.69 S 73,111.19,68.25,111.94 c -.87-.5-1.06-1.75-.62-3.12,14.31-2.31,21.63,6.13,23.25,12 a 51.32,51.32,0,0,1,10.85,1.05,2.3,2.3,0,0,0-.11.22 c -.24.66-.53,1.6-.8,2.51 A 60.88,60.88,0,0,0,91.31,123.88Z m 8,4.54 a 5.85,5.85,0,0,1-.35-3 l 1.62.15 c -.3,1-.52,1.88-.52,1.88.54-.12,1.79-4.46,2.14-5.25 s 1.12-.88,2.15-.37 l -1.67,7.39 C 101.21,130.55,100.06,129.91,99.28,128.42Z m 3.94.87,1.7-7.54 a 2.51,2.51,0,0,1,2.91,0 l 0,.33 a 2.74,2.74,0,0,0-2.25.25,3.52,3.52,0,0,1,2.18.23 l -1,7.65 A 2.56,2.56,0,0,1,103.21,129.29Z m 4,.84,1-8.42 a 3.27,3.27,0,0,1,2.5-.1,3.21,3.21,0,0,0-.66.42 c -.48,0-1.12.15-1.35.48 a 9.1,9.1,0,0,1,1-.1,3,3,0,0,0-.34,3.35 c .4,0,.88,0,1.38,0v4.38 A 2.31,2.31,0,0,1,107.21,130.13Z m 7-.53 c -.45,1.13-1.39,1.57-2.81.58 l -.17-4.43 c 1,0,2.09,0,3.07,0 A 10.59,10.59,0,0,1,114.19,129.59Z m 13.31,2.35 a 17.68,17.68,0,0,0-11.75-4.63,15.84,15.84,0,0,0-.26-1.7 c .19,0,.39-.06.56-.1 a 4,4,0,0,0,1.88-.94 c 1.79.08,6.4.79,11.69,5.5 a 13.65,13.65,0,0,1,4.13,11.81,6.33,6.33,0,0,0-1.26-.56,8.78,8.78,0,0,0-1.18-.27 C 131.58,139.72,131.8,136,127.5,131.94Z m 9.19,19.56 c -1.5,4.25-4.69,5.5-8.19,4.63 s -7-5.37-5.19-9.81,6.81-4.5,9.06-3.81 A 7.15,7.15,0,0,1,136.69,151.51Z"/>
    <path d="M 132.25,145.26 c -1.48-.8-4.69-1.12-6.12,1.75 a 4.61,4.61,0,0,0,2.94,6.63,4.19,4.19,0,0,0,5.5-2.81 A 4.67,4.67,0,0,0,132.25,145.26Z m -1.37,7.38 a 3.55,3.55,0,0,1-1.94-6.75,3.65,3.65,0,0,1,4.56,2.56 A 3.18,3.18,0,0,1,130.87,152.63Z"/>
  </g>
<script type="text/ecmascript" xlink:href="param.min.js"/> 
</svg>
