<?xml version="1.0"?>
<svg xmlns="http://www.w3.org/2000/svg" xmlns:xlink="http://www.w3.org/1999/xlink" viewBox="0 0 215 215">
  <title>HA010</title>
  <g id="skin-tone">
    <path d="M 107.5,104.29 a 3.33,3.33,0,0,1,.06,6.67 h -.06 a 3.33,3.33,0,0,1-.06-6.67 h .06" fill="param(skin_tone)"/>
    <path d="M 110.25,107.44 l 1.16,0 a 13.86,13.86,0,0,0,2.19,2.69 c 1.13,1,3.66,2.5,3.66,5.63 s -1.16,4.5-1.16,4.5 a 17.93,17.93,0,0,1,1.38,6.75 c -2.41.09-4.25.09-4.25.09 l -.09.56 a 4.5,4.5,0,0,1-2.22-.62 c -2.22,0-8.47,0-8.47,0 s -.19-1.16-.56-1.16-.56,1.25-.56,1.25-2,0-3.17,0 a 15,15,0,0,0,1-6.66 c -.19-1.87-.91-4.41.56-6.59 s 3.56-5,3.53-6 C 104.09,107.63,110.25,107.44,110.25,107.44Z" fill="param(skin_tone)"/>
    <path d="M 101,128.33 s -.87,2.58-1.38,4.33-.94,2.25-1.59,2.16-.75-1.41-.66-2.66.55-3.75.55-3.75,1.48-.09,1.92-.09Z" fill="param(skin_tone)"/>
    <path d="M 112.44,136.78 a 2.09,2.09,0,0,0,2,.78 c .81,0,.94-.47,1.63-2 a 20.52,20.52,0,0,0,1.3-7.08 l -3.83,0 c -.83-.17-1.56,0-1.73.74-.55-.86-1.1-1-1.58-.91 l -1.75,0 a 1.12,1.12,0,0,0-1.12,0 l -4.84,0,.19.75 h -.08 a 45.34,45.34,0,0,0,2,5.91,2.43,2.43,0,0,0,3.16,1.13 c 0,.34.13,1.16,1.66,1.41 A 3.35,3.35,0,0,0,112.44,136.78Z" fill="param(skin_tone)"/>
  </g>
  <g id="main-colour">
    <path d="M 115.23,128.51 s -1.65.89-3.58,4 a 13,13,0,0,0-1.38,9.28 c .56,2,2.58,2.92,4,3.31 a 3.11,3.11,0,0,1-2.32,3.18,4.3,4.3,0,0,0-2.54-2.23 c -1.2-.43-4.86-1.16-9.33,4.17 a 10.93,10.93,0,0,0-2.15,10.83 s -8.25-3.57-12.89-5.5-12.81-5.46-14.4-6.83-1.25-2.06-.52-2.54,2.62,0,3.09-.52-.69-1.59-2.19-1.55-3.14.56-3.39,2.62,1.68,3.57,4.08,4.77,13.58,6,16.82,7.39,8.08,3.64,10.77,4.78 c 2.21,1.95,4,1.78,7.19-3 A 43.91,43.91,0,0,0,112,149.33 a 4.08,4.08,0,0,0,3.12-4.24 c 2.12-1.35,5.3-5.82,6.73-8 s 4.5-6.9,2.92-8.82-4.38-1.4-5.87-1.29-5.52,0-5.52,0 a 2.13,2.13,0,0,0-.2.63,3,3,0,0,1-2.12-.67 s -16.86-.05-20.3,0-5.54.57-6.36,2.46.3,3.05,1.59,3.78,2.54.73,2.92,0-.47-.9-1.16-1.2-2.32-.86-1.68-2.06,2.23-1.75,5.73-1.62 c 1.93.07,12,0,15.17.17,1.12-.64,1.71-.12,1.71-.12Z m -2.44,14.63 c -1-.83-2.18-3.12-.86-7.74 a 10.18,10.18,0,0,1,7.51-7 c 2-.37,3.29,0,3.84.72.7.92.09,2.69-1.23,5.13 a 59.74,59.74,0,0,1-6.19,8.54 C 114.71,144,113.82,144,112.79,143.14Z m -12.46,19.42 a 8.64,8.64,0,0,1-.8-9.05 c 2.21-4.64,8.05-7.79,10.43-5.47.62.61,1.06.77.26,2.72 a 48.68,48.68,0,0,1-5.82,10.31 C 101.91,164.08,100.9,163.13,100.33,162.56Z" fill="param(main_colour)"/>
  </g>
  <g id="fixed-colours">
    <path d="M 113.89,124.15 a 2.21,2.21,0,0,0-1.77.31,2.79,2.79,0,0,0-.4,2.69,2.74,2.74,0,0,0,1.4.48 A 11,11,0,0,1,113.89,124.15Z" fill="#fff"/>
    <path d="M 114,129.81 c 0-.06,0-.11,0-.17 s -.35-1-1-1.08-1.21.21-1.29,1.15 c .22.94.44,1.51.88,1.8.1-.21.34-.43.46-.62 A 7.49,7.49,0,0,1,114,129.81Z" fill="#fff"/>
    <path d="M 110.71,128.4 a 1.16,1.16,0,0,0-1.37.75,2.51,2.51,0,0,0,.4,2.27.94.94,0,0,0,1.27-.27,6.17,6.17,0,0,1,.54-.58,3.39,3.39,0,0,1,.29-1.35 A 1.75,1.75,0,0,0,110.71,128.4Z" fill="#fff"/>
    <path d="M 108.23,128.23 a 1.29,1.29,0,0,0-1.42.65 c 0,1.1.21,2,.75,2.12 s 1.46-1,1.46-1 l .23-.85 A 1.67,1.67,0,0,0,108.23,128.23Z" fill="#fff"/>
    <path d="M 123.08,128.8 c .83.74.56,2.58-.43,4.43 a 59,59,0,0,1-6.32,9 c -.77.77-1.55,1.76-2.49,1.38 s -2.71-1.29-2.58-4.73,1.93-7.48,5.2-9.41 S 122.3,128.11,123.08,128.8Z" opacity="0.8"/>
    <path d="M 110.57,149 c 0,1-1.8,5.24-3.35,7.86 s -3.78,5.72-4.94,6.19-2.36-.69-2.88-2.06 a 9.66,9.66,0,0,1,.82-8.77,10.59,10.59,0,0,1,7.74-5 C 108.85,147.23,110.53,148.09,110.57,149Z" opacity="0.8"/>
  </g>
  <g id="outline">
    <path d="M 101.77,115.33 c 1.65,4,6.29,3.29,6.29,3.29 A 8.55,8.55,0,0,1,101.77,115.33Z"/>
    <path d="M 104,122.85 a 3,3,0,0,0,3.52.2 A 5.35,5.35,0,0,1,104,122.85Z"/>
    <path d="M 120.58,126.35 a 12.67,12.67,0,0,0-2.16.34 H 118 a 22.87,22.87,0,0,0-.54-4.58 c -.15-.51-.4-1.27-.56-1.79 a 7.32,7.32,0,0,0,1.14-4.72 c -.25-3.69-2.62-5.09-3.72-6.19 a 14.84,14.84,0,0,1-2.44-3.94,1.91,1.91,0,0,0-1.09,1.94 c 0,1.53,1.69,3,2.63,3.84 s 3.44,2.44,3.28,5.22-2.19,4.75-2.94,6.69 c -.08.22-.16.43-.23.65 a 1.67,1.67,0,0,0-2,1.13,3.73,3.73,0,0,0-.17,1.75,2.67,2.67,0,0,1-1.36-2.09 c -.31-2.44.66-3.53,1.31-5.16 s .63-3.37,0-3.94 a 3.9,3.9,0,0,1-.08,1.61 c -2.74-.5-3.92-3.42-3.92-3.42 a 5.2,5.2,0,0,0,3.63,4.4,14.49,14.49,0,0,1-.91,2,7,7,0,0,0-1,4.78,17.94,17.94,0,0,1-8-.49,12.34,12.34,0,0,0,4.77,1.16,4,4,0,0,1,.25,1,3.89,3.89,0,0,0,.09-1,15.28,15.28,0,0,0,3.07-.17,3.67,3.67,0,0,0,.71,1.23 c -1.25,0-4.75,0-7.26,0-.12-.64-.4-1.26-.81-1.23 s -.58.77-.68,1.21 l -2.38-.06 c .15-.54.4-1.47.72-2.77.53-2.19-.06-5,.19-7.41 s 2.25-4.37,2.88-5.25,1.75-2.41,1.73-3.5 a 2.61,2.61,0,0,0-1.14-1.84,2.44,2.44,0,0,0-.81,2.06,5.87,5.87,0,0,1-1.41,3.09 c -.66.84-2.38,2.75-2.66,5 s .5,4.31.38,6.53 a 19.72,19.72,0,0,1-.76,4.06 c -2.45-.06-5.46-.12-7.76-.12 a 9.34,9.34,0,0,0-4.92,1,3.48,3.48,0,0,0-.46,5.25 c 2.41,2.05,4.44,1.21,4.63.71.38-1-1-1.69-1.37-1.83-3.31-1.23-.52-3,2.83-2.83.5,0,3.41.05,6.62.08-.2,1.12-.76,4.5-.37,5.58 a 1.28,1.28,0,0,0,2.41.16 c .27-.81,1.18-4.29,1.67-5.71 h 1.2 c .52,2.27,1.4,6.19,2.54,7.33 a 2.58,2.58,0,0,0,2.66.51,2.42,2.42,0,0,0,1.84,1.28,8.77,8.77,0,0,0,0,1.55 c .28,3.6,2.35,5.85,4.54,6.07 a 2.7,2.7,0,0,1-1.65,2.27 c -1-2.15-4.71-2.87-7.22-1.9-3.75,1.44-9.73,6.78-7.93,14.19 l -5.39-2.33-7.1-3 c -1.43-.67-9.12-3.87-10.52-4.55-2.93-1.42-6.76-4.07-1.32-3.67.57,0,1.37-1.12,1-1.78 s -1.39-1.66-4.07-1 a 3.31,3.31,0,0,0-2.23,5 c 1.16,1.77,4.19,3.42,8.77,5.33 C 79.89,155.66,89,159.7,89,159.7 l 9.82,4.23 c 1.31,1.6,3.13,2,5.17.49 s 7.67-11,8.43-14.79 a 4.48,4.48,0,0,0,3.26-4.36 c 2.9-1.58,9.93-12.11,10.19-14.84 S 123.87,126.14,120.58,126.35Z m -4.52-4.92 c .18.63.47,1.67.61,2.46 a 24.65,24.65,0,0,1,.2,2.79 h -3.15 c .1-.51.22-1.08.38-1.64 a 2.05,2.05,0,0,0,1-.76,5,5,0,0,1-.93.45,7.71,7.71,0,0,1,1.18-2.5Z M 112,125 a 1.1,1.1,0,0,1,1.39-.68,17.58,17.58,0,0,0-.54,2.77,3.52,3.52,0,0,1-.9-.19 A 3.38,3.38,0,0,1,112,125Z m -10,1.22 c .09,0,.15.17.19.35 h -.39 C 101.78,126.42,101.85,126.25,101.94,126.25Z m -16.25,3.84 c -.39,1.49,2.25,2.33,2.88,2.58 s -.08,1-1.75.38 c -1.31-.52-2.71-1.62-2.25-3.42.25-1,.88-2.46,5.88-2.5,1.69,0,12.53.15,20.41.26 a 3.82,3.82,0,0,0,2.68.52 c 0-.14,0-.31.07-.49 l 2.61,0 a 10.58,10.58,0,0,0-1.42.8 l -5.94,0 a 1.54,1.54,0,0,0-1.74,0 l -6.45,0 c -2.09,0-6.5-.08-9.83-.17 C 87.82,127.93,86.07,128.63,85.69,130.09Z m 23.84-.88 a 1.07,1.07,0,0,1,.65-.58,1,1,0,0,1,1.35.73,5.45,5.45,0,0,0-.2,1.17 c -.23.36-.7,1-1.24.9 S 109.35,130.52,109.53,129.21Z m -.76.8 c -.21.29-.75.94-1.17.87-.61-.11-.66-1.36-.64-2 a 1.24,1.24,0,0,1,1.08-.49,1.09,1.09,0,0,1,1,.86 A 6.82,6.82,0,0,0,108.78,130Z m 2.95,1.4 c 0-.23,0-.45,0-.63 s 0-.12,0-.19 a 2.93,2.93,0,0,0,.17.56Z m .43-.62 a 5.53,5.53,0,0,1-.29-1.25.85.85,0,0,1,.92-.71.91.91,0,0,1,.73.45 A 11.62,11.62,0,0,0,112.16,130.79Z m 1.74-1.85 a 2,2,0,0,0-.25-.24 h .55Z m -14.53,3.28 c -.37,1.34-.53,2.38-1.22,2.25 s -.27-3.45.11-5.67 l 2.25,0 C 100.24,129.58,99.65,131.22,99.37,132.22Z m 8.15,3.36 a 1.93,1.93,0,0,1-2.37-.3 c -.79-.87-1.86-5-2.22-6.45 h 3.54 a 4.4,4.4,0,0,0-.58,1.35 c -.06.21-.09.39-.14.58 a 4.19,4.19,0,0,0-1.26,1.59 l 1.12-1 c -.45,2.23-.08,2.86-.08,2.86 a 34.09,34.09,0,0,1,.81-4,7.31,7.31,0,0,1,.3-.78 c 0,.59.06,1.59.78,1.78 a 1.26,1.26,0,0,0,1.17-.53 c -.09.36-.17.73-.27,1.13 C 108,133.13,107.65,134.58,107.52,135.58Z m .73,1 c -.21-.79.44-4.19.81-5.79 l .08-.35 c .06.6.27,1.28.94,1.37.47.07,1-.46,1.24-.81,0,.07,0,.14,0,.21,0,.29,0,.56,0,.82 a 15.41,15.41,0,0,0-1.86,5.24 C 108.87,137.2,108.36,137,108.25,136.58Z M 72.2,151.41 c -3.87-1.72-4.32-3.46-4.28-4.76.06-1.63,1.78-2.2,3.71-2.14,1.41,0,1.82,1.19.9,1.15 s -2.91-.16-3.35.83 c -.85,1.91,2.32,3.56,7.42,5.74,2.36,1,14,6.05,20.79,9q.13.39.3.79 c .1.25.22.49.33.71 C 90.79,159.57,75.16,152.73,72.2,151.41Z m 39.32-1.25 a 40.64,40.64,0,0,1-3.16,6.84 c -1.65,2.76-4.18,6.95-6.08,7.47 s -3.77-1.66-4.47-4.77 c -.81-3.62.5-6.56,2.37-9.19 s 6.35-5.08,8.92-4.13 S 112,148.7,111.52,150.16Z m .94-1.11 a 2.36,2.36,0,0,0,0-.44 c 0-.09,0-.16-.06-.25,1.3-.45,1.78-2,1.95-2.77 a 3.52,3.52,0,0,0,.6-.08 A 3.75,3.75,0,0,1,112.46,149.05Z m 8.41-10.93 a 40.65,40.65,0,0,1-4.76,5.84 c -1.12,1-2.49,1.38-4.47-.52 s -1.75-7-.2-9.83,3.61-5.3,7.22-6.16 c 3.1-.74,5.87,0,6.25,1.92 S 122.63,135.43,120.87,138.12Z"/>
    <path d="M 122.36,128.15 a 9.2,9.2,0,0,0-8.94,3.61 c -3.29,4.13-2.64,9.4-1.72,10.6 s 2.49,1.95,3.38,1.43,4.67-5.17,6.56-8.31 C 124.91,130.07,124.08,128.58,122.36,128.15Z m -8,3.57 a 13.08,13.08,0,0,0,1,2.47 c -.18-.47-.4-1.67-.69-2.84.14-.15.28-.31.43-.44.41.13.76.28.76.28 a 2.41,2.41,0,0,0-.53-.48,8.32,8.32,0,0,1,1.46-1,22.84,22.84,0,0,1-1.74,7.21 s -.56.47-1.91.06 a 14.94,14.94,0,0,1-.84-1.87 A 11.77,11.77,0,0,1,114.39,131.72Z m -2.12,5-.45.22 c .06-.28.13-.56.22-.84 C 112.1,136.28,112.17,136.48,112.27,136.72Z m 8,0 c -1.37,2.09-4.81,6.91-6,6.73-1.78-.26-3-1.92-2.61-5.44,0-.09,0-.19,0-.28 l .89-.32.1.22 a 6.2,6.2,0,0,0,2.34.24 c .69-.09,1-.81,1.63-2.37 a 20.45,20.45,0,0,0,1.2-6.27 c 2.83-1.11,5-.6,5.4.3 S 123.11,132.39,120.27,136.72Z"/>
    <path d="M 108.14,146.9 c -1.48-.3-6.51,1.43-8.77,6.2 a 9.2,9.2,0,0,0,.68,9.62 c 1.14,1.36,2.84,1.45,6.28-3.86,2-3.07,4.51-8.52,4.59-9.54 S 109.62,147.2,108.14,146.9Z m -1.31,10.17 c -2.64,4.45-4.33,5.81-5.15,5.83-1,0-2.57-1.87-2.68-5.23 s 2.19-7.07,5.21-8.92,5-1.53,6,0 C 110.93,149.72,108.1,154.93,106.83,157.07Z"/>
  </g>
<script type="text/ecmascript" xlink:href="param.min.js"/> 
</svg>
