<?xml version="1.0"?>
<svg xmlns="http://www.w3.org/2000/svg" xmlns:xlink="http://www.w3.org/1999/xlink" viewBox="0 0 215 215">
  <title>HA012</title>
  <g id="skin-tone">
    <path d="M 106.92,137.38 a 23.93,23.93,0,0,1,3-1.19 c .07-1.09.15-2.16.22-2.92.21-2.17.79-4.92.79-4.92 s .42,1.58.63,3 c .21.25,2.75,1,3.46.63 a 8.83,8.83,0,0,0,1.57-2.37 c -.36-2.43-4.64-3.7-8.32-.3 a 9.24,9.24,0,0,0-1.34,1.55 C 106.92,133,106.93,135.5,106.92,137.38Z" fill="param(skin_tone)"/>
    <path d="M 103.71,139.27 a 18.4,18.4,0,0,1,1.85-9.57 c .16-1.4.3-2.53.35-2.84.17-.92.92-.92,1-.12,0,.13,0,.52,0,1.09 a 6.16,6.16,0,0,1,.73-.67,9.43,9.43,0,0,1,8.92-1,3.47,3.47,0,0,1,1.22,1.05,10,10,0,0,0,.49-1.26 c .29-1.12.17-3.75-.5-7.21 s -3.92-7.5-4.71-8.46 a 22.77,22.77,0,0,1-1.87-3.08 l -.39-.05 a 3.32,3.32,0,0,0-3.28-2.8 h -.06 a 3.32,3.32,0,0,0-3.26,3.18,3.45,3.45,0,0,0-.72.15,20.83,20.83,0,0,0-3.6,6.89,72.27,72.27,0,0,0-1.21,8.5 c -.17,1.54-.79,6.83-.87,8.5 s -.17,1.92.25,2.25 a 1.12,1.12,0,0,0,1.58-.46 c .25-.62,1.13-3.79,1.63-5.37 s 1-2.79.79,1.79 a 71.44,71.44,0,0,0,.21,9 c 0,.61.76.74,1.18.75Z" fill="param(skin_tone)"/>
  </g>
  <g id="fixed-colours">
    <path d="M 120.91,135.42 l -2.09-.19 a 32,32,0,0,0-10.55,1.55,37.24,37.24,0,0,0-4.86,2.3 l 0-.14 a 22.19,22.19,0,0,0-2.26,1.48 c 0,.05,0,.11,0,.16 a 23.54,23.54,0,0,0-2.46,2.52 l -2.52-1.8 s -5.63,7.79-.12,16.36 c 1.32-1.2,2.52-2.22,2.52-2.22 s 4.85,8,20.13,8.21 c 1.74-1.74,5-8,5.27-14.32 S 120.91,135.42,120.91,135.42Z" fill="#fff"/>
    <path d="M 111.33,125.85 a 5,5,0,0,1,.08-1.5 c .17-.37.63-.62,1.46-.42 a 1.42,1.42,0,0,1,1.13,1.63 c -.17.63-1,.79-1.54.67Z" fill="#fff"/>
    <path d="M 113.37,127.9 c 0,.67-.42,1.42-1,1.42 s -1-1.08-1.12-1.5-.29-1.29-.29-1.29 a 3.07,3.07,0,0,1,2.33.08 A 7.56,7.56,0,0,1,113.37,127.9Z" fill="#fff"/>
    <path d="M 127.87,147.29 s 3.77-5.13,9.51-2.57,9.21,4.53,12.23.6 c -1.51,4.08-5.74,3.93-9.06,2.57 S 133.45,144.57,127.87,147.29Z" opacity="0.2"/>
    <path d="M 126.58,149.78 a 7.12,7.12,0,0,0,6.57.75 c 3.93-1.36,6.34-.68,7.77.53 a 8.9,8.9,0,0,0-6.64.3 C 132.05,152.46,128.09,153.1,126.58,149.78Z" opacity="0.2"/>
    <path d="M 133.3,153.78 a 4.39,4.39,0,0,1,4.91-.83 c 3.09,1.21,5.28,1,6.87-.23 a 5.27,5.27,0,0,1-5.81,1.81 C 138,154,136,152.8,133.3,153.78Z" opacity="0.2"/>
    <path d="M 119.35,137.88 a 30.19,30.19,0,0,1-1.2,24 C 117,158.13,115.15,147.59,119.35,137.88Z" fill="#ddb6a2"/>
    <path d="M 108.67,136.63 a 18.43,18.43,0,0,0-3.4,1.5 l 0,.1 A 25.89,25.89,0,0,1,108.67,136.63Z" fill="none"/>
    <path d="M 108.25,129.31 a 8,8,0,0,1,2.88-1.75,2.38,2.38,0,0,1-.13-1,2.15,2.15,0,0,1,.83-.29,3.53,3.53,0,0,1-.72-.6,8.52,8.52,0,0,0-3.49,1.51 c -2.77,2.11-4.22,7.41-3.92,12 a 15.43,15.43,0,0,1,1.57-1 A 10.29,10.29,0,0,1,108.25,129.31Z" fill="#fff"/>
    <path d="M 116,135.55 l -.34,0 a 10.65,10.65,0,0,0,2.5-4 c .71-2.25.29-4.46-1.62-5.46 a 6.78,6.78,0,0,0-2.38-.62,1.93,1.93,0,0,1-1.5.87,3.64,3.64,0,0,1,1.54,1,2.74,2.74,0,0,1,2.38,2.81 c -.29,2.79-3.58,5.38-3.58,5.38 a 14.91,14.91,0,0,0-4.33,1.06 A 22.24,22.24,0,0,1,116,135.55Z" fill="#fff"/>
  </g>
  <g id="outline">
    <path d="M 107.73,132.73 a 1.14,1.14,0,0,0,1.65,0 A 3.55,3.55,0,0,1,107.73,132.73Z"/>
    <path d="M 105.06,125.21 a 3.7,3.7,0,0,1-1.92-.17 A 1.3,1.3,0,0,0,105.06,125.21Z"/>
    <path d="M 100.87,124.54 a 5.47,5.47,0,0,1-1.19-.37 A 1,1,0,0,0,100.87,124.54Z"/>
    <path d="M 100,128.92 a 2.22,2.22,0,0,1-1.1-.35 A .81.81,0,0,0,100,128.92Z"/>
    <path d="M 99.29,131.6 a 2.14,2.14,0,0,1-.81-.21 C 98.64,131.83,99.29,131.6,99.29,131.6Z"/>
    <path d="M 109.37,120.25 a 3.25,3.25,0,0,0-1.87,3.55 A 6.35,6.35,0,0,1,109.37,120.25Z"/>
    <path d="M 121.27,134.76 h 0 a 27.11,27.11,0,0,0-4.1-.11 c 1.06-1.26,2.78-3.91,1.52-6.94 a 3.41,3.41,0,0,0-.37-.65,10.46,10.46,0,0,0,.55-1.41,22.79,22.79,0,0,0-1.08-8.92,25.43,25.43,0,0,0-4.29-7.25,16,16,0,0,1-2-4.17 s -1,.38-.79,2,1.75,3.42,2.83,4.88 a 18.25,18.25,0,0,1,3.67,7.71 c .88,4,.58,5.38.46,5.79,0,.06-.09.24-.2.49 a 6.35,6.35,0,0,0-2.8-1.08 l 0-.12 a 12.39,12.39,0,0,0,.17-4.25,27.51,27.51,0,0,1-.29-4.71,12.94,12.94,0,0,0-.33,4.17,13.42,13.42,0,0,1-.15,4.59,1.56,1.56,0,0,0-1-1 c -.72-.25-1.52-.22-1.84.27 a 1.86,1.86,0,0,0-.17,1.08,4.15,4.15,0,0,1-.79-2.35 c -.08-1.5,0-3.25.79-4.29 a 3,3,0,0,0-.41.45 c -1-1.26-1.17-4-1.17-4 a 5,5,0,0,0-.21,1.23,11.3,11.3,0,0,1-3.56-4.3 c .25,1.83,2.3,4.31,3.6,5.27 a 6.27,6.27,0,0,0,.92,2.51,6.58,6.58,0,0,0-.41,4.28,4.23,4.23,0,0,0,.65,1.39 l -.47.13 h 0 a 5.13,5.13,0,0,1-2.08,0,2.2,2.2,0,0,0,1.07.4,7.65,7.65,0,0,0-1.76,1 c 0-.56-.08-1-.2-1-.33-.12-1.37-.42-1.5.5,0,.32-.18,1.42-.33,2.76 a 12.33,12.33,0,0,0-1.37,3.19,1.65,1.65,0,0,1-.77-.22.63.63,0,0,0,.74.33,20.64,20.64,0,0,0-.6,3.26,1.13,1.13,0,0,1-.49-.13.61.61,0,0,0,.48.3q-.13,1.29-.15,2.76 l -.43.27 a 13.93,13.93,0,0,1-.33-3.86 c 0-2.08.15-8.44.08-9 s -.83-.58-.92-.23-1.75,6.44-2,7.13-.56.73-.81.73-.71-.21-.67-.6.42-5.77.92-8.29.56-4.4,1-7.48 a 22.38,22.38,0,0,1,2.81-7.23 c .38-.56,1.42-1.65,1.46-2.52 a 2.71,2.71,0,0,0-1.21-2.31,7.14,7.14,0,0,1-1.19,3.13,16.52,16.52,0,0,0-3,7.13,29.7,29.7,0,0,0-.56,7.13 c 0,1.13-.59,4.23-.73,5.73 a 33,33,0,0,0-.15,5.48 c .23.52,1.11.69,1.73.64 s .94-.51,1.33-1.79,1.17-4.46,1.17-4.46-.17,2.51-.17,4.79 a 48,48,0,0,0,.38,6.29.37.37,0,0,0,.09.14 l -.41.29 a 14,14,0,0,0-3,2.94 l -2.5-2.4 s -6.29,8.57-.3,18.16 c 1.09-.83,2.22-1.75,2.81-2.23 a 15.06,15.06,0,0,0,6.48,5.11 c 8.63,3.66,14.26,3.24,14.26,3.24 h 0 A 28.17,28.17,0,0,0,121.27,134.76Z m 1.86,15.16 a 27.77,27.77,0,0,1-4.24,13.14 c -.89-4.07-2.93-16.17,1.59-26.61 A 27.85,27.85,0,0,1,123.12,149.92Z M 116,134.72 c -.57,0-1.17.1-1.8.18,1.4-1.32,3.58-3.83,2.53-5.88 a 3.65,3.65,0,0,0-2.51-2,2.51,2.51,0,0,0-.63-.51,1.6,1.6,0,0,0,.88-.74 C 119.56,126.46,118.74,132.12,116,134.72Z m -10.23,2.5 a 13.63,13.63,0,0,1,.78-4.52 c 0,1,0,1.8,0,2.22 s 0,1.18,0,2Z m 1.49-6 a 6.63,6.63,0,0,1,2-2.13,9.47,9.47,0,0,1,1.23-.71 c -.17.77-.34,1.63-.4,2.16-.1,1-.33,3.65-.45,5.28-.8.22-1.61.49-2.42.8 C 107.21,134.73,107.23,132.55,107.24,131.22Z m 7.47-1.78 a 3.77,3.77,0,0,0,0-1.45,3,3,0,0,1,1.27,1.53,7.39,7.39,0,0,1-1.27,2,5.88,5.88,0,0,1-2.83-.42 c -.11-.42-.29-1.52-.42-2.51 a 1.38,1.38,0,0,0,1,.82,1.11,1.11,0,0,0,1.06-.86,4,4,0,0,0,.08-1.5 A 3,3,0,0,1,114.71,129.44Z m -1.53-2.57 a 5.62,5.62,0,0,1,0,1.47 c -.12.66-.75,1-1.25.45 a 5,5,0,0,1-.68-2,.58.58,0,0,1,0-.06 C 111.29,126.57,112.27,126.43,113.17,126.87Z M 110.69,133 c 0-.66.13-1.75.22-2.66,0,.57.08,1,.08,1.16,0,.5,1.46.88,2,1 a 2.83,2.83,0,0,0,2.39-.32 l 0,0 a 14.47,14.47,0,0,1-2.94,3 c -.64.11-1.3.25-2,.42 C 110.61,134.69,110.65,133.72,110.69,133Z m .87-8.66 c .23-.45,1.31-.28,1.94.14 a 1,1,0,0,1,.36,1 c -.35.56-.89.64-1.74.4 a 1.81,1.81,0,0,1-.63-.33 A 2.45,2.45,0,0,1,111.56,124.34Z m -5.28,2.41 s 0,.38,0,1 l -.2.21Z M 111,126 l .22.16 a .77.77,0,0,0-.52.35,3.87,3.87,0,0,0,0,1,8.89,8.89,0,0,0-4,3.09,12.24,12.24,0,0,0-1.83,7.09q-.51.25-1,.54 C 103.91,135.67,104.43,127.42,111,126Z M 96.22,156.81 s -4.31-6.23-.06-14.8 c .78.71,1.36,1.2,1.71,1.49 a 11.14,11.14,0,0,0,0,11.76Z m 1.44-7.31 c -.11-9.35,10-13.18,22-13.78 a 36.86,36.86,0,0,0-1.92,27.56 C 110.78,162.57,97.78,159.57,97.66,149.5Z"/>
  </g>
<script type="text/ecmascript" xlink:href="param.min.js"/> 
</svg>
