<?xml version="1.0"?>
<svg xmlns="http://www.w3.org/2000/svg" xmlns:xlink="http://www.w3.org/1999/xlink" viewBox="0 0 215 215">
  <title>HA001</title>
  <g id="skin-tone">
    <path d="M 116,115 a 31.61,31.61,0,0,0-3.09-5.19 c -1.06-1.25-2-2.24-2-2.24 a 3.33,3.33,0,0,0-6.66,0 h -.78 a 5,5,0,0,1-1.08,2.5,15.11,15.11,0,0,0-3.06,9.66,38.34,38.34,0,0,0-1.12,6.41 c -1.75,1-3.37,2.47-3.53,3.69 s -.06,1.66.66,2 a 20.21,20.21,0,0,1,4.16-3 c .75-.28,1.41-1.53,1.66-2.22 a 16,16,0,0,1,1-1.94 s .47,4,.5,5-1,2.78-1.37,4.38-1.53,4.16-.41,4.66,1.72-.34,2.06-1.19 a 49.68,49.68,0,0,0,2.16-6,39.53,39.53,0,0,1-.69,6.66 c -.06.63-.62,2.92.13,3.24 s 1.63.32,1.84-.74,2.22-8.94,2.22-8.81,0,3.38-.19,4.75-.34,2.13.22,2.31 a 1.4,1.4,0,0,0,1.78-1.09 c .31-1.09,2.19-7.59,2.34-11.09,1.66.66,2.53.47,2.56-1 s -.25-4.12.19-5.56 S 116.84,116.69,116,115Z" fill="param(skin_tone)"/>
  </g>
  <g id="fixed-colours">
    <path d="M 94.66,130.35 s .8-.86,1.23-.72 a .79.79,0,0,1,.42,1 l -1.06,1 S 94.66,131.51,94.66,130.35Z" fill="#fff"/>
    <path d="M 100.47,138.38 s .45-1.8,1.36-1.62 c .33.08.64.61.28,1.64 C 101.53,139.1,101,139,100.47,138.38Z" fill="#fff"/>
    <path d="M 104.31,141.08 s .36-1.77,1-1.7.58,1.8.58,1.8 S 104.91,142.41,104.31,141.08Z" fill="#fff"/>
    <path d="M 108.3,138.57 s .27-2,1-1.91.5,1.72.5,1.72 a 1,1,0,0,1-.89.47 C 108.31,138.8,108.3,138.57,108.3,138.57Z" fill="#fff"/>
    <path d="M 113.75,126.74 a 9.43,9.43,0,0,1,.13-2.12.65.65,0,0,1,1.06-.31 C 115,125.51,115.33,127.11,113.75,126.74Z" fill="#fff"/>
  </g>
  <g id="outline">
    <path d="M 113.23,114.26 s .71,1.33.42,4.67-.47,6.26-.58,7.46 a 81.13,81.13,0,0,1-1.75,8.83 c -.71,2.58-1.26,3.86-1.75,4.13 a 1.23,1.23,0,0,1-1.83-1 c 0-.75.58-5.58.58-5.58 l .5-2.71 s 0,4.21-.25,6-.37,2.54.21,2.67,1,0,1.46-1.83 a 98.67,98.67,0,0,0,2-10.75 C 112.77,122.21,113.56,116.21,113.23,114.26Z"/>
    <path d="M 109.35,125 a 42.35,42.35,0,0,1-.5,5.71 c -.46,2.63-1.42,7.75-1.75,8.75 s -.69,2.23-1.46,2.54 a 1.43,1.43,0,0,1-2-1.21 c -.19-1,1.21-7.41,1.13-8.5 a 15.57,15.57,0,0,1,.67-2,31.43,31.43,0,0,1-.25,4.29 c -.29,2.08-1,5.13-.92,6,.17,1.35,1.38,1,1.71.25 A 123.58,123.58,0,0,0,109.35,125Z"/>
    <path d="M 106.19,125.13 a 29,29,0,0,1-1.12,7.29 c -1.12,3.83-2.12,6-2.54,6.46 a 1.58,1.58,0,0,1-1.67.5 c -.75-.21-1.33-1.46-.92-2.87 s 1.58-5.33,2-6.92 c 0-1.75-.25-4.62-.25-4.62 l .63-1.46 s .5,4.29.5,5.71-.62,2.25-1,3.54-1.55,4.57-1.42,5.22 c .19.91,1.22,1.16,1.83.07 A 49.92,49.92,0,0,0,106.19,125.13Z"/>
    <path d="M 94.6,130.63 s .92-1.21,1.4-.81.1,1.15.1,1.15 l .19,0 s .54-1-.17-1.4-1.4.56-1.56.85 A .19.19,0,0,0,94.6,130.63Z"/>
    <path d="M 100.6,138.32 s .44-1.67,1.19-1.46.17,1.81.17,1.81 h .21 s .63-1.69-.31-2-1.44,1.56-1.44,1.56Z"/>
    <path d="M 104.37,141.34 s .4-2,1-1.85.4,2,.4,2 l .19-.17 s .4-1.9-.54-2.08-1.25,1.88-1.25,1.88Z"/>
    <path d="M 108.42,138.8 s .21-2.15.9-2.06.33,2.06.33,2.06 l .19-.12 s .44-1.94-.48-2.17-1.1,2.27-1.1,2.27Z"/>
    <path d="M 115,124.4 s -.79-.4-1,.15 a 8.86,8.86,0,0,0-.12,2.33 h -.19 s -.21-2,.25-2.6 a .77.77,0,0,1,1.08-.1Z"/>
    <rect width="215" height="215" fill="none"/>
    <path d="M 103.1,105.46 a 2.33,2.33,0,0,1,1.06,2.21 c 0,1.7-1.73,2.5-3.06,5.91 a 23.11,23.11,0,0,0-1.54,6.75 c -.21,1.67-1.08,4.08-1.21,6.17-1.5.83-3.17,2.5-3.42,3.42 s -.08,1.42.29,1.63 a 15.71,15.71,0,0,1,3.67-2.71,4,4,0,0,0,1.79-2 c .5-.92,1.88-4.17,1.88-4.17 a 18.5,18.5,0,0,1-1.42,4.67,4.9,4.9,0,0,1-2.29,2.33 c -.92.5-3.75,2.58-3.75,2.58 s -1.37-.37-.83-2.54 S 97.6,126,97.6,126 a 32,32,0,0,1,1.17-5.75 c -.29-4,.88-7.64,2.29-9.42 C 102.69,108.76,102.44,107.26,103.1,105.46Z"/>
    <path d="M 112.06,105.26 a 2.21,2.21,0,0,0-1.23,2.32 c .1,1.68,1.31,1.84,3.06,4.55 s 2.33,4.92,1.42,6.58 a 4.64,4.64,0,0,0-.62,3.58 c .13,1.42.29,3.83-.08,4.21 s -1.92-.25-1.92-.25 l 0,1 s 1.88.92,2.46.08.5-2.5.38-4 a 6.36,6.36,0,0,1,.88-4.21 c .83-1.17.63-3.79-.67-6.17 a 28.76,28.76,0,0,0-3-4.46 C 112.35,108,112.33,106.75,112.06,105.26Z"/>
  </g>
<script type="text/ecmascript" xlink:href="param.min.js"/> 
</svg>
