<?xml version="1.0"?>
<svg xmlns="http://www.w3.org/2000/svg" xmlns:xlink="http://www.w3.org/1999/xlink" viewBox="0 0 150 150">
  <title>OA030-strappy-heel-slender</title>
  <g id="skin-tone">
    <path d="M 76.22,102.69 s -6.54-7.42-15.06-4.37 c 2.65-5.79,6.23-9.71,7.81-12.12 s 1-6.58.5-8.92-.17-7.25,4.75-7.75,6.92,3.17,6.58,5.92-.42,5.75-.5,7.58.58,3.88.5,6.08 a 28.66,28.66,0,0,1-1.87,7.42 C 78.39,97.78,76.22,102.69,76.22,102.69Z" fill="param(skin_tone)"/>
    <path d="M 74.64,107.4 s -4.62-4-9-4.79 a 19.27,19.27,0,0,0-7.83.25 s -2.75,2.21.5,4.08 a 3.11,3.11,0,0,0,2.42,1,2.26,2.26,0,0,0,2.45,1.31,2.71,2.71,0,0,0,3.14,1.11,4.21,4.21,0,0,0,4.63,1.71,4.29,4.29,0,0,0,3-2.73Z" fill="param(skin_tone)"/>
  </g>
  <g id="main-colour">
    <path d="M 80.47,80.55 s 1.25,1.75,2.19,3.13 S 85,87.24,84.47,90 s -3,5.56-4.5,8.13 a 46.34,46.34,0,0,0-4.06,10.56 c -.75,3.19-1.31,6.38-4.06,6.88 S 60.47,113.3,59,111 a 14.74,14.74,0,0,1-1.44-4.19 l .71.08 s .35,1,2.42,1 c .63,1.06.58,1.49,2.45,1.31.49.94,1.53,1.46,3.14,1.11 a 4,4,0,0,0,4.42,1.71,5.41,5.41,0,0,0,3.92-4.71 c -2.29-2.54-9.73-6.48-15.95-4.76 a 13,13,0,0,0,2.34-4 s 6.56-4.12,15.06,3.88 c 2.75-5.81,4.19-7.69,4.56-11.56 a 29.22,29.22,0,0,0-.31-7.44Z" fill="param(main_colour)"/>
  </g>
  <g id="accent-colour-1">
    <path d="M 78.41,101.36 a 39.75,39.75,0,0,1,3.5-6 c 1.88-2.5,3.13-5.12,2.94-6.25.94,1.5.81,3.13.06,5.38 s -3.31,8.19-2.69,12.88 a 10.32,10.32,0,0,1-1.56,1.31 l -1.94-1.25 a 11.76,11.76,0,0,0,.19-3.37Z" fill="param(accent_colour_1)"/>
  </g>
  <g id="fixed-colours">
    <path d="M 70.31,110.24 a 1.27,1.27,0,0,0,.13-1.62 c -.62-.87-2.62-1.12-3.58-.67 a 1.84,1.84,0,0,0-.5,1.13 A 4.62,4.62,0,0,1,70.31,110.24Z" fill="#fff"/>
    <path d="M 63.35,107.78 a 3.51,3.51,0,0,1,1.17-1.17 c 1,.17,1.88.5,2,1.29 a 2.36,2.36,0,0,0-.46.79 A 4.1,4.1,0,0,0,63.35,107.78Z" fill="#fff"/>
    <path d="M 61.06,106.36 s 1.42.08,1.75.83 c .54-.37,1-1,.13-1.42 a 4.4,4.4,0,0,0-1.21-.5Z" fill="#fff"/>
    <path d="M 60.18,106.11 s .52-.42.35-.81 a 1.75,1.75,0,0,0-1.21-.73,1.94,1.94,0,0,0-.69.77 S 60,105.63,60.18,106.11Z" fill="#fff"/>
    <path d="M 58.54,104.88 a 1.83,1.83,0,0,1,.52-.56 c 0-.58-.83-1-1.6-1.17 a 4.33,4.33,0,0,0-.37.9Z" fill="#fff"/>
  </g>
  <g id="outline">
    <path d="M 85.19,88.24 A 6.75,6.75,0,0,0,84.6,86 c -.94-2.12-3.07-4.56-3.25-5.87-.28-2.07.51-3.66.4-5.12 A 6.76,6.76,0,0,0,75,68.25 h 0 A 6.76,6.76,0,0,0,68.25,75 a 6.39,6.39,0,0,0,.21,1.64 c .32,1.21,1.32,4.77.57,7.15 s -2.77,4.77-4.4,6.9 a 34,34,0,0,0-4.46,8.21,4.74,4.74,0,0,1-2.75,3.31,2.89,2.89,0,0,0-.46,4.9,33,33,0,0,0,1.42,4.42,18.51,18.51,0,0,0,13.75,4.75 c 2.19-.31,3.38-3.6,3.75-5.17.3-1.26,1.26-5.21,2.38-8.4 a 17.61,17.61,0,0,1,0,4.82,28.37,28.37,0,0,0,2.31,1.77 s 1.69-1.39,1.94-1.68 a 22.09,22.09,0,0,1,.38-5.21 c .58-2.92,2.33-6.33,2.88-9.75 A 6.53,6.53,0,0,0,85.19,88.24Z M 66.88,90.08 c 1.94-2.31,3.06-4.25,3.38-6 a 20.47,20.47,0,0,0,.2-6.34 c -.11-.66-.21-2.74-.2-2.74 A 4.75,4.75,0,0,1,75,70.25 h 0 A 4.75,4.75,0,0,1,79.75,75 s 0,.15,0,.39 c 0,0-.7,3.41.23,5.48 a 29.42,29.42,0,0,0,.35,5.33,19.38,19.38,0,0,1-1.25,9.08 c -.67,1.8-2,4.39-3.05,6.81-.79-.87-6.71-7-14.12-4.08 A 40.28,40.28,0,0,1,66.88,90.08Z m -5.32,8.72 c 2.13-.79,7.8-2,14.19,3.94-.27.67-.51,1.32-.69,1.92-.23.79-.41,1.49-.59,2.13-1.31-1.21-7.61-6.56-15.15-4.49 C 60.18,101.75,60.78,100.9,61.56,98.79Z M 62.69,109 a 2,2,0,0,1-1.48-.84,1.41,1.41,0,0,1-.08-1.55,2.4,2.4,0,0,1,1.69.84 c .67-.37,1-1.17.48-1.6 a 2.56,2.56,0,0,0-1.08-.48 l .33-.27 a 6.52,6.52,0,0,0,2.06-2.26,17.07,17.07,0,0,1,2.66.68 c -.86,1.75-2.88,2.73-3.64,3.46 A 2.88,2.88,0,0,0,62.69,109Z m -3.35-4.27 c .59.16,1.56.55.88,1.24 a 3.31,3.31,0,0,0-1.38-.71 A 2.68,2.68,0,0,1,59.35,104.7Z m -.23-.62 c 0-.28-.24-.67-1-.92 a 13.08,13.08,0,0,1,3.33-.56,6.13,6.13,0,0,1-1.35,1 A 9.11,9.11,0,0,0,59.12,104.08Z m -.28.2 a 2.16,2.16,0,0,0-.36.41,3.52,3.52,0,0,0-1.24-.68,2,2,0,0,1,.39-.65 C 58.05,103.43,58.87,103.67,58.84,104.28Z m -.14,1.19 a 2.53,2.53,0,0,1,1.5.87 c .66-.51,1-1.32-.61-1.83 a 9.22,9.22,0,0,1,.92-.57,3.88,3.88,0,0,0,1.33-1.35,15.21,15.21,0,0,1,2.53.18 c -1.41,1.71-2.65,1.89-3.45,2.84 a 2.46,2.46,0,0,0-.62,2.08 c -.53-.1-1.63-.4-1.75-1.25 A 1.6,1.6,0,0,1,58.7,105.47Z m 3.2.16 a 3.78,3.78,0,0,1,.86.23 c .58.25.67.71.13,1 a 3.71,3.71,0,0,0-1.53-.67 A 4.91,4.91,0,0,1,61.91,105.63Z m 4,2.88 a 3,3,0,0,0-2.22-.86 h 0 a 3.68,3.68,0,0,1,.8-.87 c .35,0,1.76.23,1.82,1 A 2.58,2.58,0,0,0,65.91,108.51Z m 1.2-.47 a 4.36,4.36,0,0,1,2.25.11 c 1,.46,1.33,1,1,1.79 a 5.18,5.18,0,0,0-3.68-1.07 A 2.16,2.16,0,0,1,67.1,108Z m -.46-.57 c -.14-.31-.59-.71-1.84-.93 l .26-.19 a 4.52,4.52,0,0,0,2.37-2.82,19.94,19.94,0,0,1,2.91,1.29,10.27,10.27,0,0,1-3,2.2 A 2.75,2.75,0,0,0,66.64,107.47Z m -3.13.49 a 3.32,3.32,0,0,1,2.29.85,2.9,2.9,0,0,0,0,1.37,2.52,2.52,0,0,1-2.18-.74 A 1.43,1.43,0,0,1,63.51,108Z m 3,1.28 a 4.32,4.32,0,0,1,3.84,1.33 c .75-1,.79-2.08-.79-2.71 a 3.48,3.48,0,0,0-2-.22,8.48,8.48,0,0,0,3-2.66,25.53,25.53,0,0,1,3.68,2.52,6.16,6.16,0,0,1-1.84,3.32,4.53,4.53,0,0,1-5,.42 A 1.9,1.9,0,0,1,66.55,109.24Z m -9.45-4.79,0-.12 a 2,2,0,0,1,1.19.62,2.91,2.91,0,0,0-.14.28,2.79,2.79,0,0,0-.21,1.16 A 1.93,1.93,0,0,1,57.1,104.45Z m 18.78,2.88 a 42,42,0,0,1-2.06,5.94 A 3.46,3.46,0,0,1,70.07,115 c -2-.22-7.09-.87-10.72-4.47 a 19.83,19.83,0,0,1-1-3,1.4,1.4,0,0,0,.38.32,5.31,5.31,0,0,0,1.76.46,3.13,3.13,0,0,0,.32.54,2.36,2.36,0,0,0,2,.81,2.07,2.07,0,0,0,.79.77,3.67,3.67,0,0,0,2.38.44 c .88,1.63,3.93,2.22,5.75,1.31 s 2.54-2.46,3.08-4.33 a 52.37,52.37,0,0,1,3.42-8.92,24.82,24.82,0,0,0,2.75-8.29,18.83,18.83,0,0,0-.17-5.42 A 21,21,0,0,1,80.67,82 c .61.86,1.45,1.89,2.27,3.19 a 6.22,6.22,0,0,1,.38,6.28 c -1.09,2.31-3.75,6.38-4.75,8.5 A 61,61,0,0,0,75.88,107.33Z M 78.93,101 l .17-.39 a 20.4,20.4,0,0,1,1.64-2.84,96.8,96.8,0,0,0-.39,10.41,11.6,11.6,0,0,1-1.08-.82 A 18.39,18.39,0,0,0,78.93,101Z m 5.75-7.6 c -.33,1.75-1.62,5.17-2.25,7.75 a 35.77,35.77,0,0,0-.71,6.21 l -.88.72 c 0-2.49,0-8.23.63-11.38 a 27,27,0,0,0,3.12-5 c .11-.32.2-.63.28-.94 A 6,6,0,0,1,84.68,93.4Z"/>
  </g>
  <script type="text/ecmascript" xlink:href="param.min.js"/>
</svg>
