<?xml version="1.0"?>
<svg xmlns="http://www.w3.org/2000/svg" xmlns:xlink="http://www.w3.org/1999/xlink" viewBox="0 0 250 250">
  <title>OA030-strappy-heel</title>
  <g id="main-colour">
    <path d="M 112.49,213.17 s 7.38,3.31,11.31.69 c .69,3.06,1.42,5.31,1.42,5.31 s -5,4.56-11.73,0 A 34,34,0,0,0,112.49,213.17Z" fill="param(main_colour)"/>
  </g>
  <g id="outline">
    <path d="M 124.25,213.14 a 12.61,12.61,0,0,1-12.5-1.16 c .28,1.19.91,3.94,1.44,7.84 a 10.79,10.79,0,0,0,12.53-.28 S 124.63,215.11,124.25,213.14Z m -10.12,6.06 c -.37-2.91-.87-5.22-.87-5.22 s 5,2.63,10.19.53 c .53,2.53,1.13,4.63,1.13,4.63 S 120.09,222.51,114.13,219.2Z"/>
  </g>
  <script type="text/ecmascript" xlink:href="param.min.js"/>
</svg>
