<?xml version="1.0"?>
<svg xmlns="http://www.w3.org/2000/svg" xmlns:xlink="http://www.w3.org/1999/xlink" viewBox="0 0 250 250">
  <title>OA030-strappy-heel</title>
  <g id="main-colour">
    <path d="M 112.63,213 s 4.56,3.5,11.19.81 c .69,3.13,1.42,5.59,1.42,5.59 s -6.1,3.72-11.6,0 C 113.19,216.79,112.63,213,112.63,213Z" fill="param(main_colour)"/>
  </g>
  <g id="fixed-colours">
    <path d="M 117.42,214.77 a 9.24,9.24,0,0,1-4.79-1.58,48.26,48.26,0,0,1,1,6.26 c 1.38,1.3,4.5,1.57,4.5,1.57 S 117.71,216.9,117.42,214.77Z m -2.5,4-.33-3.21,1.5.5.38,3.21Z" fill="#d1d3d4"/>
  </g>
  <g id="outline">
    <path d="M 124.25,213.14 a 12.61,12.61,0,0,1-12.5-1.16 c .28,1.19.91,3.94,1.44,7.84 a 10.79,10.79,0,0,0,12.53-.28 S 124.63,215.11,124.25,213.14Z m -11,.84 a 13.76,13.76,0,0,0,3.89,1.18 l .65,5.34 a 11.37,11.37,0,0,1-3.66-1.31 C 113.75,216.29,113.25,214,113.25,214Z m 5.1,6.61-.71-5.37 a 11.68,11.68,0,0,0,5.79-.71 c .53,2.53,1.13,4.63,1.13,4.63 A 9.28,9.28,0,0,1,118.36,220.59Z"/>
    <path d="M 116.31,215.86 c -1.09-.37-2.09-.69-2.09-.69 s .38,2,.56,3.69 a 8,8,0,0,0,1.94.59 S 116.41,217.26,116.31,215.86Z m -1.19,2.72 c -.19-1.12-.41-2.84-.41-2.84 l 1.22.41.34,2.78 A 6,6,0,0,1,115.13,218.57Z"/>
  </g>
  <script type="text/ecmascript" xlink:href="param.min.js"/>
</svg>
