<?xml version="1.0"?>
<svg xmlns="http://www.w3.org/2000/svg" xmlns:xlink="http://www.w3.org/1999/xlink" viewBox="0 0 150 150">
  <title>BT002_OA011</title>
  <g id="skin-tone">
    <path d="M 80.25,79.5 a 7.39,7.39,0,0,0-.56-7.72 c -2-2.75-5.5-3.33-7.58-1.5 S 69,73.11,69.44,75.36,69.87,79.6,69,81 s -.44,3.06,1.43,2.57,3.81-1.53,5.44-.79,3.06,1.78,3.86,1 S 79.26,81.23,80.25,79.5Z" fill="param(skin_tone)"/>
  </g>
  <g id="main-colour">
    <path d="M 65.27,94 c 1.73-3.56,2.37-5.88,2.08-7.81 s -.35-4,1-4.75 c -.43,1.32.27,2.12,1.73,2,.16-1.07.72-2,2.6-2.34,2.54-.43,4.19,0,5.15.93 a 2,2,0,0,1,.44,1.82 c 2.38,1.08,1.7-2.44,2-3 a 2.48,2.48,0,0,1,2,3.41,15.46,15.46,0,0,0-.69,7.27 c .3,2.37,3,6.48,3.71,10 a 6.07,6.07,0,0,1-1.5,5.57 s -3.65-7.06-9.58-7.5 a 10.07,10.07,0,0,0-10.13,6.13 C 61.07,102.38,63.54,97.59,65.27,94Z" fill="param(main_colour)"/>
  </g>
  <g id="accent-colour-1">
    <path d="M 74.2,87.78 a 7.71,7.71,0,0,0-4.3,1.68 c -.37.54-.56,1.32.07,1.32 s 1.78-.82,3-1.15 a 4.61,4.61,0,0,1,3.3.26 c 1.15.48,1.59,1.08,2,.67 s -.06-1.42-.94-2 A 5.89,5.89,0,0,0,74.2,87.78Z" fill="param(accent_colour_1)"/>
    <path d="M 74.23,91.37 a 7.84,7.84,0,0,0-4.11,1.48 c -.44.44-.63,1.71.15,1.56 s 2.59-1.33,4-1.15 a 10.52,10.52,0,0,1,3.21,1.08 c .57.29,1.64.18.9-.93 A 5.18,5.18,0,0,0,74.23,91.37Z" fill="param(accent_colour_1)"/>
    <path d="M 73.9,95.6 a 11.82,11.82,0,0,0-4.45.82 c -.63.37-1.22,1.19-.67,1.52 s 1.56-.78,5.08-.78,4.11,1.11,4.93.93.11-1.19-.48-1.48 A 14.4,14.4,0,0,0,73.9,95.6Z" fill="param(accent_colour_1)"/>
    <path d="M 85,105.68 a 4.89,4.89,0,0,1-1.19,1.48 c -1.89-3.19-5.3-7.64-10-7.6 s -7.6,2.48-9.49,6.23 a 4.47,4.47,0,0,0-2.41,4.78 c .26,1.82,3.19,3.67,6.82,3.37 s 12.75-.48,14-.56,5-1.63,3.78-5.23Z" fill="param(accent_colour_1)"/>
  </g>
  <g id="fixed-colours">
    <path d="M 78,90.77 s 0,.84.69.84,1.09-.84.91-1.85-1.11-1.24-1.51-.64 a 1.09,1.09,0,0,1,.35,1.36Z" fill="#a7a9ac"/>
    <path d="M 68.44,90.37 c 0,.89.35,1.29.69,1.26 a .93.93,0,0,0,.69-.74 c -.42-.3-.22-1.19,0-1.41 C 69.4,89,68.49,88.74,68.44,90.37Z" fill="#a7a9ac"/>
    <path d="M 78.2,93.07 s .91,1.26-.1,1.56 a .74.74,0,0,0,1,.79 c .57-.25.72-1.56.47-2.13 a .81.81,0,0,0-1-.54Z" fill="#a7a9ac"/>
    <path d="M 78.69,98.26 s .1,1.14.82,1.14.91-1.16.77-1.85-.72-1.33-1.41-.59 C 79.19,97.37,79.21,98.08,78.69,98.26Z" fill="#a7a9ac"/>
    <path d="M 69.85,93.12 s -.4-.67-.94-.42 a 1.65,1.65,0,0,0-.54,2 c .35.59,1,.52,1.43-.2Z" fill="#a7a9ac"/>
    <path d="M 68.78,96.82 s -.25-.67-.79-.4 a 2.13,2.13,0,0,0-.77,2.17 c .25.74,1.09.91,1.58-.52 A 1,1,0,0,1,68.78,96.82Z" fill="#a7a9ac"/>
  </g>
  <g id="outline">
    <path d="M 86,104.67 c .58-1.57.53-3.39-.48-5.89-1.48-3.66-3.51-7.32-3.31-9.64 s 1.33-5.73.84-7 a 4.63,4.63,0,0,0-2.16-2,2.5,2.5,0,0,1,.14-1.64v0 l .07-.16 h 0 A 8.09,8.09,0,0,0,81.75,75,6.76,6.76,0,0,0,75,68.25 h 0 A 6.76,6.76,0,0,0,68.25,75 a 7.32,7.32,0,0,0,.48,2.82 s 0,0,0,0 a 2.82,2.82,0,0,1-.6,2.7,4.38,4.38,0,0,0-1.77,3.63 c 0,2.62.44,4.5-.49,6.18 S 62,97.49,62,101.2 a 12,12,0,0,0,.52,4.09 c -2.27,2-1.59,5.69-.37,7.28 s 3.56,2.42,7.51,2.08,8.6-.1,11.76-.3,5.88-2,6.18-5 A 6.29,6.29,0,0,0,86,104.67Z m -4.29-20 c -.64,2.37-1.83,3.51-1.09,6.87 s 2.77,6.33,3.46,8.45,1.47,4.68-.22,6.64 a 17.43,17.43,0,0,0-5-5.78 A 27.19,27.19,0,0,1,78,98.18 a 2.94,2.94,0,0,0,.51.22,2.16,2.16,0,0,0,.4.94 c .44.49,1.21.32,1.53-.57 a 2,2,0,0,0-.77-2.4.79.79,0,0,0-.9.3,5.06,5.06,0,0,0-1.18-.61 c -.06-.45-.1-.94-.13-1.45 l .18.09.32.1 a .85.85,0,0,0,.39.77 c .52.27,1.31,0,1.54-1 A 1.68,1.68,0,0,0,79,92.47 a .77.77,0,0,0-.82.25,4.28,4.28,0,0,0-.84-.7 c 0-.42,0-.82,0-1.21 a 2.74,2.74,0,0,0,.46.18,1,1,0,0,0,1.83.25 c .54-.94.2-2.5-.57-2.69 a 1,1,0,0,0-1,.19,1.77,1.77,0,0,0-.16-.14 c -.18-.12-.38-.22-.58-.33,0,0,0-.09,0-.12 a 33.63,33.63,0,0,1-.44-4.42,6.74,6.74,0,0,0,2.15.81 c 1.33.1,2.27-.44,1.83-1.88 a 4,4,0,0,1-.18-1.1 A 2.79,2.79,0,0,1,81.73,84.69Z M 68.48,97.06 c -.09-.1-.24-.22-.38-.05 a 1.31,1.31,0,0,0-.19,1.3 c .16.22.39,0,.54-.24 a .44.44,0,0,0,.2.16 c -.15.29-.42.7-.7.72-.44,0-.72-.62-.52-1.33 s .75-1.53,1.17-.75 A 1.67,1.67,0,0,0,68.48,97.06Z m 1.29-.56 a 12.11,12.11,0,0,1,4.05-.69 c 2.47.07,4.5.82,4.94,1.41 s 0,.84-.47.64 a 10.08,10.08,0,0,0-4.42-1,19.79,19.79,0,0,0-4.7.79 C 68.34,97.86,69,96.8,69.77,96.5Z m -.28-6.79 c -.11-.1-.36-.31-.47,0-.27.72,0,1.78.5,1.18 a .6.6,0,0,0,.13.16.77.77,0,0,1-.52.38 c -.42,0-.57-.59-.52-1.31 s .39-1.18,1-.62 A 1.71,1.71,0,0,0,69.49,89.71Z m .74-.23 a 8,8,0,0,1,4-1.45 c 1.33,0,3.26.56,3.82,1.48 s -.07.93-.52.78 a 6.94,6.94,0,0,0-3.3-1.15 c -1.63,0-3.08,1.11-3.78,1.41 S 69.45,90.15,70.23,89.48Z m 1.38-6.3 c -.11-.21-.43-.21-.8-.12 l -.38.08 a 1.79,1.79,0,0,1,1-1.22 c 1.33-.67,4.15-.89,5.63.07.84.54,1,1.06,1,1.41 l -.48-.34-.07,0 a 1.82,1.82,0,0,0-.78-.35.32.32,0,0,0-.42.24 h 0 s 0,0,0,.16,0,.06,0,.09 A 35.67,35.67,0,0,0,76.68,88 a 7.32,7.32,0,0,0-2.52-.52,6.57,6.57,0,0,0-3,.78 c .09-.5.18-1.1.2-1.34 C 71.83,83.36,71.64,83.19,71.61,83.18Z m 7,7.72 c .1.08.22.07.35-.09 A 1.13,1.13,0,0,0,79,89.65 c -.13-.3-.28-.31-.38-.26 A 2.24,2.24,0,0,0,78.4,89 c .6-.3,1,.38,1.06.94 s -.17,1.31-.69,1.41 a .52.52,0,0,1-.55-.35 h .06 A .65.65,0,0,0,78.59,90.9Z m -4.21-1.27 a 4.78,4.78,0,0,1,2.32.83 c 0,.38,0,.78,0,1.21 A 6.17,6.17,0,0,0,74,91.11 a 6.59,6.59,0,0,0-2.88.79 c 0-.43,0-.85,0-1.26 A 7.29,7.29,0,0,1,74.38,89.63Z m -.3,2 c 3-.07,4.6,2.11,4.19,2.52 s -1.33-.48-2-.74 a 6.61,6.61,0,0,0-3.67-.3 c -1.37.37-2.41,1.48-2.59.63 S 72.42,91.71,74.08,91.67Z m 4.52,3.09 c .09.13.23.22.39.06 a 1.33,1.33,0,0,0,.09-1.28 c -.12-.3-.33-.24-.43-.19 a 2.41,2.41,0,0,0-.19-.31 c .55-.36,1.09.23,1.12.87,0,.83-.23,1.43-.8,1.43 a .57.57,0,0,1-.53-.48 A .55.55,0,0,0,78.6,94.76Z m -4.37-1.2 a 4.83,4.83,0,0,1,2.57.65 c 0,.55.07,1.09.13,1.64 a 13.55,13.55,0,0,0-3.08-.49,10.2,10.2,0,0,0-2.86.33 c 0-.45.08-.91.1-1.38 A 6.24,6.24,0,0,1,74.23,93.56Z m 4.87,4.78 c .05.18.15.39.36.38.37,0,.46-.59.32-1.07 s -.36-.39-.47-.38 a 1.45,1.45,0,0,0-.24-.32 c .44-.31.9,0,1.06.75 S 80,99.2,79.46,99.2 c -.33,0-.51-.45-.6-.76 A .51.51,0,0,0,79.1,98.34Z m -5.35-1 a 10.57,10.57,0,0,1,3.45.49,11.56,11.56,0,0,0,.65,2.43,8.48,8.48,0,0,0-4-1.06,11.77,11.77,0,0,0-3.74.58,8,8,0,0,0,.63-2.09 A 12.6,12.6,0,0,1,73.75,97.37Z m 0,2.5 c 5,0,8.79,5.87,9.61,7.26-2.2,1.82-6.27.35-9.81.5 s -6.92.74-8.06-.49 a 6.06,6.06,0,0,1-.9-1.36 A 9.33,9.33,0,0,1,73.78,99.86Z M 75,70.25 h 0 a 4.72,4.72,0,0,1,4.42,6.44 h 0 a 6.94,6.94,0,0,0-.51,3.92 C 79,82,80,82.94,79,83.55 a .62.62,0,0,1-.33.1,2,2,0,0,0-1-2.18,7.64,7.64,0,0,0-6.6-.15,2.48,2.48,0,0,0-1.26,1.89 c -.71,0-.32-1.3.07-1.89 a 6.65,6.65,0,0,0,1-3.66v0 a 2.09,2.09,0,0,0-.14-.57v0 A 4.7,4.7,0,0,1,70.25,75,4.75,4.75,0,0,1,75,70.25Z M 64.19,99.47 c 1.14-3.41,3.21-7,3.66-10,.37-2.46-.65-5.16.12-6.71 A 1.84,1.84,0,0,0,70.12,84 a 8.57,8.57,0,0,0,.89-.17,24.29,24.29,0,0,1-.53,4.76,4.58,4.58,0,0,0-.62.47 l -.08.1 a 1,1,0,0,0-.65-.45 c -.49-.07-1,.62-.89,2 s 1.31,1.47,1.67.42 a .75.75,0,0,0,.36-.06 l .21-.09 c 0,.43,0,.87,0,1.31 a 4.66,4.66,0,0,0-.65.51.86.86,0,0,0-.73-.45 c -.64,0-1.21.77-1.14,1.9 s 1.21,1.54,1.85.46 a .67.67,0,0,0,.5,0 l .1,0 c 0,.45-.08.87-.14,1.26 a 5.41,5.41,0,0,0-1.4.62 h 0 a .7.7,0,0,0-.81-.4 c -.86.07-1.24,1.78-1.11,2.47 a .87.87,0,0,0,1.46.57,1.76,1.76,0,0,0,.55-.88,1.51,1.51,0,0,0,.42-.11 l .52-.2 a 12,12,0,0,1-.72,2.19,10.22,10.22,0,0,0-5,4.73 A 8.23,8.23,0,0,1,64.19,99.47Z m 5.33-6.16 a .39.39,0,0,0-.5-.06 c -.37.19-.3,1-.09,1.15 a .49.49,0,0,0,.54-.1.9.9,0,0,0,.07.17 c -.16.25-.42.54-.69.45-.44-.15-.49-.82-.4-1.36 s .53-1,1.19-.51 A 1.19,1.19,0,0,0,69.52,93.31Z m 15.67,17.92 c -1.29,1.83-4.15,1.83-6.08,1.63 a 79,79,0,0,0-10.73.4 c -2.13.3-5.29-.35-5.63-2.92 a 3.1,3.1,0,0,1,1.16-3.13,5.29,5.29,0,0,0,1.51.76,16.15,16.15,0,0,0,6.87.35,39.51,39.51,0,0,1,6.18.4 c 1.68.25,4.74.1,6.38-2 l 0-.07 A 3.86,3.86,0,0,1,85.19,111.23Z"/>
  </g>
  <script type="text/ecmascript" xlink:href="param.min.js"/>
</svg>
