<?xml version="1.0"?>
<svg xmlns="http://www.w3.org/2000/svg" xmlns:xlink="http://www.w3.org/1999/xlink" viewBox="0 0 600 600">
  <title>default-top-slender</title>
  <g id="main-colour">
    <path d="M 274.29,279.8 a 66.14,66.14,0,0,1-1.42-7.42 c 3.56,1.25,10.94,2.19,13,.38 s 5.25-11.06,16.25-18.79 C 298,244.13,290.45,231.3,285,227 c 1.33-.75,2.42-1.25,2.42-1.25 s 10.67,8.75,17.17,27.5 c 4.42.83,8.8,3.09,11.17,8.5.58,1.33,1,6.38.42,9.21,1.67-3.92,3-7,7.54-11.12 a 36.66,36.66,0,0,1,9.63-6.58 A 49.9,49.9,0,0,0,321.62,241 c -3.92-2.83-15.08-13.5-13.67-19.67.67,1.17,1.5,2.58,1.5,2.58 a 33.64,33.64,0,0,0,8.83,11.75 c 6.17,5.17,13.92,11.5,17.42,16.08 a 21.49,21.49,0,0,1,4.08,19.33 c -2.17,8.5-8.75,12-9.75,12.25-2.75-.08-4.17-.58-7.58-2.58-4.42-1.17-9.83-1.33-11.67-.83-4.08,3.42-6.5,5.67-12.92,5.67 S 281.45,283,274.29,279.8Z" fill="param(main_colour)"/>
  </g>
  <g id="outline">
    <path d="M 335.12,250.29 c -2.09-2.71-11.8-10.7-16.4-14.75-4.77-4.2-7.78-8.52-9.11-11.85 a 16.86,16.86,0,0,1-1.72-3.16 s -1.83,1.68,1.5,7.84,12.06,12.77,16.07,16.33 a 43.34,43.34,0,0,1,7.25,8.42,36.57,36.57,0,0,0-9.75,6.33,24.8,24.8,0,0,0-6,8.92 c -.08-9.17-2.33-13-11.75-15.67-5.75-14.08-11.49-22.67-18-27.83 a 23.67,23.67,0,0,1-3.33,2 s 10,8.44,17.57,26.75 c -13.25,10.83-12.92,15.74-15.58,18.25-2.92,2.75-14-.33-14-.33 s 1.08,6.5,2.1,8.33 c 5.67,3.17,16.81,6.39,24.32,6.17,8.58-.25,10.92-3.75,12.92-5.42,3.5-1.17,11.35.75,11.35.75 a 12.31,12.31,0,0,0,7.4,2.42 c 3.75-1.25,9.8-6.24,11.42-15.75 C 342.79,259.71,337.62,253.54,335.12,250.29Z m -17.33,19 c 3.13-6.37,6.88-11.33,16.67-15.54 a 45.21,45.21,0,0,0-9.82-11 c -3.51-2.84-9.92-8.33-12-10.83 s -4.59-6.65-4.5-9.61 a 7.47,7.47,0,0,0,1.22,2,28.87,28.87,0,0,0,6.18,9.33 c 3.67,3.5,14.22,11.79,18.33,16.42 a 22.18,22.18,0,0,1,6,13.58,20,20,0,0,1-4.75,15.17 c -4.25,4.83-6.74,4.92-12.24,1.58-3.43-1.25-10.51-1.08-10.51-1.08 a 12.37,12.37,0,0,0-2.19.55 A 17.13,17.13,0,0,1,295.29,285 c -8.56-1.06-13.5-3.17-19.58-5.67-.43-1.25-1.5-5.83-1.5-5.83,7.92,1.58,10.92,1.33,12.83-.75 s 5.58-11.5,15.85-18.54 A 90,90,0,0,0,286.07,227 a 2.36,2.36,0,0,0,1.31-.69 c 9.5,8,14.49,21.56,17.07,27.48,3.92.5,9,3.2,10.42,7.42 a 16.82,16.82,0,0,1,.09,10.32,31.68,31.68,0,0,1-1.59,4.93 S 314.66,275.71,317.79,269.34Z"/>
    <path d="M 292.13,283.54 s 12.11,2,19-6.52 C 309.56,279.09,306.24,285.75,292.13,283.54Z"/>
    <path d="M 338.32,278.13 l .19-.21-.23.21Z"/>
    <path d="M 333.6,280.78 a 12.66,12.66,0,0,1-7.46.26,10.91,10.91,0,0,0,6.63.59Z"/>
  </g>
  <script type="text/ecmascript" xlink:href="param.min.js"/>
</svg>
