<?xml version="1.0"?>
<svg xmlns="http://www.w3.org/2000/svg" xmlns:xlink="http://www.w3.org/1999/xlink" viewBox="0 0 150 150">
  <title>OA030-strappy-heel</title>
  <g id="skin-tone">
    <path d="M 90.47,101.3 a 13.79,13.79,0,0,0-8,1.56 c -2.31,1.06-4.06,5.19-4.06,5.19 A 28,28,0,0,0,75,100.67 c -2.5-3.81-4.44-5.69-5.69-9.06 S 68.79,86.24,69,84 a 44.77,44.77,0,0,0,.56-6.44 c -.06-2.19-.56-7.62,5.63-7.94 s 5.5,6.5,5.19,8.44-.06,6.5,1.94,9.44 S 88.6,96,89.85,99.42Z" fill="param(skin_tone)"/>
    <path d="M 81.69,113.11 s 1.66-8.94,11.94-7.59 c 2.25,1.22,3.66,1.81,3.84,2.75 s -.22,3.41-3.44,3.16 a 2,2,0,0,1-2.5.84,2.48,2.48,0,0,1-2.78.56,3.17,3.17,0,0,1-2.84.28,2.65,2.65,0,0,1-2.47.66Z" fill="param(skin_tone)"/>
  </g>
  <g id="main-colour">
    <path d="M 69.39,81.82 S 69,84,68.77,85.9 s -.25,5,1.08,7.29,6.75,8.58,8.56,14.85 c 1.69-4.35,5.4-7.73,12.44-6.65.21,1.67,2.13,3.83,2.13,3.83 s -9.15-.67-11.28,7.88 c 1.53.75,3.16,1.21,4.22,0,1.1.33,2.1.42,2.77-.46.83.46,2.29.48,2.85-.39 a 1.93,1.93,0,0,0,2.5-.84 c .85.19,2.1.15,2.56-.46-.5,2-.62,3.9-1.12,4.06 s -6.58,4.5-16.79.54 c -2.12-4.62-2.75-8.71-3.87-11.12 a 29.07,29.07,0,0,0-5.92-8.21 c -3-3.08-4-4.83-3.29-9.54Z" fill="param(main_colour)"/>
  </g>
  <g id="accent-colour-1">
    <path d="M 66.29,93.42 A 54.3,54.3,0,0,1,74.66,104 a 69.3,69.3,0,0,0-.62,9.5 l -1.77,0-1.17-1.35 a 42.74,42.74,0,0,0-1.44-10,57.4,57.4,0,0,0-3.19-7.69Z" fill="param(accent_colour_1)"/>
  </g>
  <g id="fixed-colours">
    <path d="M 94.49,109.9 s -.48-1.33.4-1.94 a 2.74,2.74,0,0,1,2-.29,2.19,2.19,0,0,1,.31,1.06 A 3.53,3.53,0,0,0,94.49,109.9Z" fill="#fff"/>
    <path d="M 94.2,110.15 a 2.76,2.76,0,0,0-1.77.48 c -.25-.44-.4-1.58,1.5-1.5 A 3.9,3.9,0,0,1,94.2,110.15Z" fill="#fff"/>
    <path d="M 91.87,110.69 a 2.25,2.25,0,0,0-1.83.58 c -.15-.9.33-1.48,1.58-1.42 A 2.57,2.57,0,0,1,91.87,110.69Z" fill="#fff"/>
    <path d="M 89.24,111.19 a 4.84,4.84,0,0,0-2.1.42 c -.21-.4.13-1.48,1.88-1.19 A 2.15,2.15,0,0,1,89.24,111.19Z" fill="#fff"/>
    <path d="M 85.87,111.57 a 3.31,3.31,0,0,0-2.17.46 c -.37-.56.27-1.37,1.48-1.21 A 2.78,2.78,0,0,1,85.87,111.57Z" fill="#fff"/>
  </g>
  <g id="outline">
    <path d="M 96.32,106.61 c -3.75-2-4.09-3-5.28-5.94 a 35.76,35.76,0,0,0-4.37-8.56 c -2-2.62-4.06-4.81-4.81-8.5 s -.09-6.49-.12-8.15 h 0 a 6.77,6.77,0,0,0,0-.87 s 0,0,0-.07 h 0 a 6.76,6.76,0,0,0-6.27-6.25 h 0 a 6.76,6.76,0,0,0-7.19,6.29 c -.08,1.08.52,3.52,0,5.47 s -1.72,3.05-2.62,5 c -.83,1.81-1.63,5.6-.2,8.09 a 6,6,0,0,0,.81,2.3,41.15,41.15,0,0,1,3.25,7.87,42.9,42.9,0,0,1,1.33,9,12.61,12.61,0,0,0,1.42,1.63 l 2.08-.08 a 61.2,61.2,0,0,1,.44-8 c 1.26,3.68,2,8.18,3.37,10,4,2.06,12.44,2.84,17.69-.66 a 44.42,44.42,0,0,0,1.25-4.56 A 2.39,2.39,0,0,0,96.32,106.61Z m .83,2 a 4.78,4.78,0,0,0-2.5.92 c -.09-.34-.18-1.15.4-1.48 a 2.38,2.38,0,0,1,1.78-.25,1.89,1.89,0,0,1,.32.77 S 97.14,108.59,97.14,108.61Z M 91.55,110 a 1.3,1.3,0,0,1,.14.54,2.77,2.77,0,0,0-1.6.61 A 1.25,1.25,0,0,1,91.55,110Z m .87.8 A 5.53,5.53,0,0,1,94,110.3 a 3,3,0,0,1-.07.53,1.48,1.48,0,0,1-1.82,1.28 A 3.27,3.27,0,0,0,92.43,110.76Z M 94,110 a 3,3,0,0,0-1.46.44 c -.18-.45-.14-1.12,1.25-1.15 A 2,2,0,0,1,94,110Z m 2.49-2.54 a 2.9,2.9,0,0,0-1.67.39,1.19,1.19,0,0,0-.59,1 c -.61-.83-3.17-1.39-3.94-2.69 A 4.43,4.43,0,0,0,92.22,108 a 3.48,3.48,0,0,1,1.33.94,1.67,1.67,0,0,0-1.27.53,1,1,0,0,0-.12.24,3.55,3.55,0,0,0-2-1.17,4.71,4.71,0,0,1-2.36-1.79,3.36,3.36,0,0,0,1.64,2,5.86,5.86,0,0,1,1.87,1 c -1.44.14-1.58.94-1.38,1.72 a 2.77,2.77,0,0,1,1.76-.58 c 0,.09,0,.17,0,.27 a 2,2,0,0,1-2.44,1.59,2.28,2.28,0,0,0,.26-2 c -.37-.91-1.37-1.07-2.34-1.44 a 5.72,5.72,0,0,1-2-1.11,10.84,10.84,0,0,1,8-2.34 A 28.88,28.88,0,0,1,96.48,107.44Z m -13.32,3 c .07-.11.14-.2.21-.3.41.21.86.4,1.32.6-1.2.08-1.42.94-1.07,1.52 a 2.47,2.47,0,0,1,2.12-.5,1.09,1.09,0,0,1-.48,1.53,4.41,4.41,0,0,1-3.15-.4 A 16.66,16.66,0,0,1,83.16,110.39Z m 1.94.52 a 1.79,1.79,0,0,1,.49.51,2.42,2.42,0,0,0-1.8.41 C 83.7,111,84.53,110.9,85.1,110.91Z m 1.25.61 A 3.17,3.17,0,0,0,84.22,110 l -.62-.21 A 9.89,9.89,0,0,1,85,108.24,6.66,6.66,0,0,0,88.13,110 a 1.18,1.18,0,0,1,.56.31 c -1.2-.11-2,.49-1.62,1.47 a 4.52,4.52,0,0,1,2.05-.44,1.46,1.46,0,0,1-.46,1.07,3.2,3.2,0,0,1-2.3.56 A 1.94,1.94,0,0,0,86.35,111.53Z m 2.53-1 a 1.44,1.44,0,0,1,.21.52,5.09,5.09,0,0,0-1.82.38 C 87.22,110.47,88.34,110.47,88.88,110.53Z m 3.3-5.45 a 9.8,9.8,0,0,0-6.67,1.81,9.54,9.54,0,0,0-4,5.57,4.52,4.52,0,0,1-.56-.48,11.78,11.78,0,0,1-2-3.8 c 2.3-6.77,9.05-6.81,11.18-6.65 A 9.24,9.24,0,0,0,92.17,105.08Z M 70.26,74.68 a 4.75,4.75,0,0,1,5.05-4.42 h 0 a 4.74,4.74,0,0,1,4.41,4.86 c -.07,2-.32,5.8.43,8.68 a 16.89,16.89,0,0,0,3.5,6.94,39.06,39.06,0,0,1,5.19,7.88 c .4.83.72,1.64,1,2.42-7.94-.73-10.73,4.43-11.4,6.08-.41-1-.85-2.18-1.37-3.37-1.62-3.67-5.33-7.71-7-11 a 12.13,12.13,0,0,1-.87-8.12 A 36.16,36.16,0,0,0,70,80.26 a 7.6,7.6,0,0,0,.29-1.65 C 70.37,77.31,70.26,74.68,70.26,74.68Z m 1.13,37.47 a 42.57,42.57,0,0,0-1-8.71 c -.72-2.41-2.4-6-3.2-8.2,1.4,1.51,3.14,3.25,4.63,5.18 a 95.46,95.46,0,0,1,.44,12.68Z m 2.38,1 c -.39,0-.76.07-1,.08 l -.23-11.87 a 18.21,18.21,0,0,1,1.22,2 c .14.27.27.56.4.85 A 74.79,74.79,0,0,0,73.77,113.19Z m 21.38,1.46 c -2.87,1.88-11.25,3.21-16.12.5-1.46-3-2.42-7.25-3-9 a 27,27,0,0,0-4.25-7.33 c -2-2.29-5.46-6.21-5.62-8.46 a 9.2,9.2,0,0,1,1.83-6,12.8,12.8,0,0,0,1-1.62,25,25,0,0,0-.71,5.91 c .13,3.46,2.21,6.46,4.25,9.08 a 33,33,0,0,1,4.63,7.67,26.8,26.8,0,0,0,2.71,6.25 c 1.42,2.13,3.38,2.79,5,2.46 a 2.31,2.31,0,0,0,1-.47,3.82,3.82,0,0,0,2.61-.25,1.85,1.85,0,0,0,.27-.17,3.44,3.44,0,0,0,2.07,0,2.37,2.37,0,0,0,.88-.55,2.44,2.44,0,0,0,2.12-.57,2.74,2.74,0,0,0,.29-.35,2.69,2.69,0,0,0,1.82-.14 A 22.29,22.29,0,0,1,95.14,114.65Z m 1.6-4.35-.3.34-.07.06-.15.13-.07.05 a 4,4,0,0,1-1.76.36,3,3,0,0,0,.22-1.25,3.74,3.74,0,0,1,2.55-1.05 A 2.17,2.17,0,0,1,96.74,110.3Z"/>
  </g>
  <script type="text/ecmascript" xlink:href="param.min.js"/>
</svg>
