<?xml version="1.0"?>
<svg xmlns="http://www.w3.org/2000/svg" xmlns:xlink="http://www.w3.org/1999/xlink" viewBox="0 0 150 150">
  <title>BT002_OA011</title>
  <g id="skin-tone">
    <path d="M 69.75,79.5 a 7.39,7.39,0,0,1,.56-7.72 c 2-2.75,5.5-3.33,7.58-1.5 s 3.08,2.83,2.67,5.08 S 80.13,79.6,81,81 s .44,3.06-1.43,2.57-3.81-1.53-5.44-.79-3.06,1.78-3.86,1 S 70.74,81.23,69.75,79.5Z" fill="param(skin_tone)"/>
  </g>
  <g id="main-colour">
    <path d="M 84.73,94 c -1.73-3.56-2.37-5.88-2.08-7.81 s .35-4-1-4.75 c .43,1.32-.27,2.12-1.73,2-.16-1.07-.72-2-2.6-2.34-2.54-.43-4.19,0-5.15.93 a 2,2,0,0,0-.44,1.82 c -2.38,1.08-1.7-2.44-2-3 a 2.48,2.48,0,0,0-2,3.41,15.46,15.46,0,0,1,.69,7.27 c -.3,2.37-3,6.48-3.71,10 a 6.07,6.07,0,0,0,1.5,5.57 s 3.65-7.06,9.58-7.5 a 10.07,10.07,0,0,1,10.13,6.13 C 88.93,102.38,86.46,97.59,84.73,94Z" fill="param(main_colour)"/>
  </g>
  <g id="accent-colour-1">
    <path d="M 75.8,87.78 a 7.71,7.71,0,0,1,4.3,1.68 c .37.54.56,1.32-.07,1.32 s -1.78-.82-3-1.15 a 4.61,4.61,0,0,0-3.3.26 c -1.15.48-1.59,1.08-2,.67 s .06-1.42.94-2 A 5.89,5.89,0,0,1,75.8,87.78Z" fill="param(accent_colour_1)"/>
    <path d="M 75.77,91.37 a 7.84,7.84,0,0,1,4.11,1.48 c .44.44.63,1.71-.15,1.56 s -2.59-1.33-4-1.15 a 10.52,10.52,0,0,0-3.21,1.08 c -.57.29-1.64.18-.9-.93 A 5.18,5.18,0,0,1,75.77,91.37Z" fill="param(accent_colour_1)"/>
    <path d="M 76.1,95.6 a 11.82,11.82,0,0,1,4.45.82 c .63.37,1.22,1.19.67,1.52 s -1.56-.78-5.08-.78-4.11,1.11-4.93.93-.11-1.19.48-1.48 A 14.4,14.4,0,0,1,76.1,95.6Z" fill="param(accent_colour_1)"/>
    <path d="M 65,105.68 a 4.89,4.89,0,0,0,1.19,1.48 c 1.89-3.19,5.3-7.64,10-7.6 s 7.6,2.48,9.49,6.23 a 4.47,4.47,0,0,1,2.41,4.78 c -.26,1.82-3.19,3.67-6.82,3.37 s -12.75-.48-14-.56-5-1.63-3.78-5.23Z" fill="param(accent_colour_1)"/>
  </g>
  <g id="fixed-colours">
    <path d="M 72,90.77 s 0,.84-.69.84-1.09-.84-.91-1.85,1.11-1.24,1.51-.64 a 1.09,1.09,0,0,0-.35,1.36Z" fill="#a7a9ac"/>
    <path d="M 81.56,90.37 c 0,.89-.35,1.29-.69,1.26 a .93.93,0,0,1-.69-.74 c .42-.3.22-1.19,0-1.41 C 80.6,89,81.51,88.74,81.56,90.37Z" fill="#a7a9ac"/>
    <path d="M 71.8,93.07 s -.91,1.26.1,1.56 a .74.74,0,0,1-1,.79 c -.57-.25-.72-1.56-.47-2.13 a .81.81,0,0,1,1-.54Z" fill="#a7a9ac"/>
    <path d="M 71.31,98.26 s -.1,1.14-.82,1.14-.91-1.16-.77-1.85.72-1.33,1.41-.59 C 70.81,97.37,70.79,98.08,71.31,98.26Z" fill="#a7a9ac"/>
    <path d="M 80.15,93.12 s .4-.67.94-.42 a 1.65,1.65,0,0,1,.54,2 c -.35.59-1,.52-1.43-.2Z" fill="#a7a9ac"/>
    <path d="M 81.22,96.82 s .25-.67.79-.4 a 2.13,2.13,0,0,1,.77,2.17 c -.25.74-1.09.91-1.58-.52 A 1,1,0,0,0,81.22,96.82Z" fill="#a7a9ac"/>
  </g>
  <g id="outline">
    <path d="M 62.43,109.3 c .3,3,3,4.84,6.18,5 s 7.81,0,11.76.3,6.23-.4,7.51-2.08,1.9-5.25-.37-7.28 A 12,12,0,0,0,88,101.2 c 0-3.71-3-9.14-3.9-10.82 s -.54-3.56-.49-6.18 a 4.38,4.38,0,0,0-1.77-3.63,2.82,2.82,0,0,1-.6-2.7 s 0,0,0,0 A 7.32,7.32,0,0,0,81.75,75,6.76,6.76,0,0,0,75,68.25 h 0 A 6.76,6.76,0,0,0,68.25,75 a 8.09,8.09,0,0,0,.63,3.24 h 0 l .07.16v0 a 2.5,2.5,0,0,1,.14,1.64,4.63,4.63,0,0,0-2.16,2 c -.49,1.29.64,4.7.84,7 s -1.83,6-3.31,9.64 c -1,2.5-1.06,4.32-.48,5.89 A 6.29,6.29,0,0,0,62.43,109.3Z m 6.85-27.74 a 4,4,0,0,1-.18,1.1 c -.44,1.43.49,2,1.83,1.88 a 6.74,6.74,0,0,0,2.15-.81,33.63,33.63,0,0,1-.44,4.42 s 0,.08,0,.12 c -.2.1-.4.21-.58.33 a 1.77,1.77,0,0,0-.16.14,1,1,0,0,0-1-.19 c -.77.2-1.11,1.75-.57,2.69 A 1,1,0,0,0,72.2,91 a 2.74,2.74,0,0,0,.46-.18 c 0,.39,0,.8,0,1.21 a 4.28,4.28,0,0,0-.84.7.77.77,0,0,0-.82-.25,1.68,1.68,0,0,0-.87,2.07 c .23,1.09,1,1.32,1.54,1 a .85.85,0,0,0,.39-.77 l .32-.1.18-.09 c 0,.51-.08,1-.13,1.45 a 5.06,5.06,0,0,0-1.18.61.79.79,0,0,0-.9-.3,2,2,0,0,0-.77,2.4 c .32.89,1.09,1.06,1.53.57 a 2.16,2.16,0,0,0,.4-.94,2.94,2.94,0,0,0,.51-.22,27.19,27.19,0,0,1-.83,2.69,17.43,17.43,0,0,0-5,5.78 c -1.69-2-.87-4.65-.22-6.64 s 2.72-5.09,3.46-8.45-.44-4.5-1.09-6.87 A 2.79,2.79,0,0,1,69.29,81.56Z m 12.12,15.3 c .42-.78,1,.08,1.17.75 s -.07,1.36-.52,1.33 c -.29,0-.55-.43-.7-.72 a .44.44,0,0,0,.2-.16 c .15.2.38.46.54.24 A 1.31,1.31,0,0,0,81.9,97 c -.14-.17-.29-.05-.38.05 A 1.67,1.67,0,0,0,81.41,96.87Z m -.59.82 a 19.79,19.79,0,0,0-4.7-.79,10.08,10.08,0,0,0-4.42,1 c -.47.2-.91,0-.47-.64 s 2.47-1.33,4.94-1.41 a 12.11,12.11,0,0,1,4.05.69 C 81,96.8,81.66,97.86,80.82,97.69Z m -.41-8.21 c .59-.56.94,0,1,.62 s -.1,1.36-.52,1.31 a .77.77,0,0,1-.52-.38.6.6,0,0,0,.13-.16 c .55.6.77-.47.5-1.18-.11-.29-.36-.08-.47,0 A 1.71,1.71,0,0,0,80.41,89.48Z m -.86,1.08 c -.7-.3-2.15-1.37-3.78-1.41 a 6.94,6.94,0,0,0-3.3,1.15 c -.44.15-1.08.15-.52-.78 S 74.43,88,75.77,88 a 8,8,0,0,1,4,1.45 C 80.55,90.15,80.25,90.86,79.55,90.56Z m -1-3.67 c 0,.24.11.84.2,1.34 a 6.57,6.57,0,0,0-3-.78,7.32,7.32,0,0,0-2.52.52,35.67,35.67,0,0,0,.42-4.82 s 0-.06,0-.09,0-.16,0-.16 h 0 a .32.32,0,0,0-.42-.24,1.82,1.82,0,0,0-.78.35 l -.07,0 L 72,83.4 c 0-.35.12-.86,1-1.41,1.48-1,4.3-.74,5.63-.07 a 1.79,1.79,0,0,1,1,1.22 l -.38-.08 c -.37-.09-.69-.1-.8.12 C 78.36,83.19,78.17,83.36,78.59,86.88Z M 71.73,91 h .06 a .52.52,0,0,1-.55.35 c -.52-.1-.74-.79-.69-1.41 S 71,88.75,71.6,89 a 2.24,2.24,0,0,0-.22.35 c -.1,0-.25,0-.38.26 a 1.13,1.13,0,0,0,.06,1.17 c .13.16.25.16.35.09 A .65.65,0,0,0,71.73,91Z m 7.1-.39 c 0,.4,0,.82,0,1.26 A 6.59,6.59,0,0,0,76,91.11 a 6.17,6.17,0,0,0-2.67.56 c 0-.42,0-.83,0-1.21 a 4.78,4.78,0,0,1,2.32-.83 A 7.29,7.29,0,0,1,78.83,90.65Z M 80,93.78 c -.19.85-1.22-.26-2.59-.63 a 6.61,6.61,0,0,0-3.67.3 c -.67.26-1.59,1.15-2,.74 s 1.15-2.59,4.19-2.52 C 77.58,91.71,80.18,92.93,80,93.78Z m -8.25,1.08 a .57.57,0,0,1-.53.48 c -.57,0-.84-.59-.8-1.43,0-.63.57-1.23,1.12-.87 a 2.41,2.41,0,0,0-.19.31 c -.11-.05-.31-.11-.43.19 A 1.33,1.33,0,0,0,71,94.82 c .16.16.31.07.39-.06 A .55.55,0,0,0,71.74,94.86Z m 7.17-.55 c 0,.47.06.93.1,1.38 a 10.2,10.2,0,0,0-2.86-.33,13.55,13.55,0,0,0-3.08.49 c .05-.54.09-1.09.13-1.64 a 4.83,4.83,0,0,1,2.57-.65 A 6.24,6.24,0,0,1,78.91,94.32Z m -7.77,4.12 c -.09.31-.27.76-.6.76-.49,0-.84-.74-.67-1.51 s .62-1.06,1.06-.75 a 1.45,1.45,0,0,0-.24.32 c -.1,0-.35,0-.47.38 s -.06,1.06.32,1.07 c .21,0,.31-.19.36-.38 A .51.51,0,0,0,71.14,98.43Z m 8.14-.72 a 8,8,0,0,0,.63,2.09,11.77,11.77,0,0,0-3.74-.58,8.48,8.48,0,0,0-4,1.06,11.56,11.56,0,0,0,.65-2.43,10.57,10.57,0,0,1,3.45-.49 A 12.6,12.6,0,0,1,79.28,97.71Z m 6.1,8.06 a 6.06,6.06,0,0,1-.9,1.36 c -1.14,1.24-4.45.64-8.06.49 s -7.61,1.32-9.81-.5 c .83-1.39,4.6-7.26,9.61-7.26 A 9.33,9.33,0,0,1,85.38,105.77Z M 79.75,75 a 4.7,4.7,0,0,1-.49,2.07v0 a 2.09,2.09,0,0,0-.14.57v0 a 6.65,6.65,0,0,0,1,3.66 c .39.59.78,1.87.07,1.89 a 2.48,2.48,0,0,0-1.26-1.89,7.64,7.64,0,0,0-6.6.15,2,2,0,0,0-1,2.18.62.62,0,0,1-.33-.1 c -.95-.62,0-1.52.09-2.94 a 6.94,6.94,0,0,0-.51-3.92 h 0 A 4.72,4.72,0,0,1,75,70.25 h 0 A 4.75,4.75,0,0,1,79.75,75Z m 6,29.88 a 10.22,10.22,0,0,0-5-4.73 A 12,12,0,0,1,80.07,98 l .52.2 a 1.51,1.51,0,0,0,.42.11,1.76,1.76,0,0,0,.55.88 A .87.87,0,0,0,83,98.58 c .12-.69-.25-2.4-1.11-2.47 a .7.7,0,0,0-.81.4 h 0 a 5.41,5.41,0,0,0-1.4-.62 c -.05-.39-.1-.81-.14-1.26 l .1,0 a .67.67,0,0,0,.5,0 c .64,1.08,1.78.62,1.85-.46 s -.49-1.93-1.14-1.9 a .86.86,0,0,0-.73.45,4.66,4.66,0,0,0-.65-.51 c 0-.44,0-.88,0-1.31 l .21.09 a .75.75,0,0,0,.36.06 c .36,1.06,1.57.85,1.67-.42 s -.4-2-.89-2 a 1,1,0,0,0-.65.45 l -.08-.1 a 4.58,4.58,0,0,0-.62-.47 A 24.29,24.29,0,0,1,79,83.88 a 8.57,8.57,0,0,0,.89.17 A 1.84,1.84,0,0,0,82,82.77 c .77,1.55-.25,4.25.12,6.71.44,3,2.52,6.57,3.66,10 A 8.23,8.23,0,0,1,85.76,104.88Z M 80.35,93 c .66-.51,1.1,0,1.19.51 s 0,1.21-.4,1.36 c -.27.09-.52-.2-.69-.45 a .9.9,0,0,0,.07-.17.49.49,0,0,0,.54.1 c .2-.11.28-1-.09-1.15 a .39.39,0,0,0-.5.06 A 1.19,1.19,0,0,0,80.35,93Z M 65.1,106.67 l 0,.07 c 1.63,2.08,4.7,2.22,6.38,2 a 39.51,39.51,0,0,1,6.18-.4,16.15,16.15,0,0,0,6.87-.35,5.29,5.29,0,0,0,1.51-.76,3.1,3.1,0,0,1,1.16,3.13 c -.35,2.57-3.51,3.21-5.63,2.92 a 79,79,0,0,0-10.73-.4 c -1.93.2-4.79.2-6.08-1.63 A 3.86,3.86,0,0,1,65.1,106.67Z"/>
  </g>
  <script type="text/ecmascript" xlink:href="param.min.js"/>
</svg>
