<?xml version="1.0"?>
<svg xmlns="http://www.w3.org/2000/svg" xmlns:xlink="http://www.w3.org/1999/xlink" viewBox="0 0 150 150">
  <title>OA030-strappy-heel-slender</title>
  <g id="skin-tone">
    <path d="M 91.37,97 s -3.12-5.44-5.94-9.19 S 80.87,81,80.8,78.49 s .69-6.25-3.06-8.44-7.69.56-8.06,2.81.19,5-.81,8.5 a 15.35,15.35,0,0,0-.37,9,9.63,9.63,0,0,0,4.44,6.13 c 1.69,1,6.56,5.94,7.69,8.38,1.25-2.75,2.56-5,5.06-6.37 a 9.49,9.49,0,0,1,4.44-1.31Z" fill="param(skin_tone)"/>
    <path d="M 83.4,109 s 1.53,2.22,3.31.81 a 2.62,2.62,0,0,0,3.56-.25 c 1,.44,2.75.47,3.5-.72 a 2.19,2.19,0,0,0,2.81-.91,2.91,2.91,0,0,0,3.28-1.53 A 2.35,2.35,0,0,0,98.3,103 c -1.78-.59-3.09-.94-3.09-.94 a 16.31,16.31,0,0,0-6.41,1.16,9.28,9.28,0,0,0-4.94,4.66Z" fill="param(skin_tone)"/>
  </g>
  <g id="main-colour">
    <path d="M 97.93,113.42 s 1.19-3.94.94-6 c -.75,1-2.28.47-2.28.47 a 2.51,2.51,0,0,1-2.81.91 c -.84,1.06-1.41,1.06-3.5.72-.47.91-1.74,1.2-3.45.18-1.27.73-2.21.73-3.43-.74,1.34-2.91,3.66-6.72,11.81-6.91-2.22-1.44-3.84-5-3.84-5 a 11.64,11.64,0,0,0-5.44,1.44,11.19,11.19,0,0,0-5.31,6.38 c -2.87-3.94-4.94-5.62-8.12-8.56 S 67,90.67,68.49,82 c -2.69,3.06-4.94,7-4.25,9.88 a 7.34,7.34,0,0,0,4.44,5.44 c 2.06.81,5.81,3.81,8.63,7.44 a 53.36,53.36,0,0,1,5.32,9.38 A 28.68,28.68,0,0,0,97.93,113.42Z" fill="param(main_colour)"/>
  </g>
  <g id="accent-colour-1">
    <path d="M 74.87,102 a 20,20,0,0,0-4.06-3.44 C 68.68,97.3,66,96.3,65.68,95.3 c .19,1.63,1.69,4,2.5,6.75 S 70.3,113,69.93,114.42 c 1.06.19,2.31.31,2.31.31 S 71.68,106.67,74.87,102Z" fill="param(accent_colour_1)"/>
  </g>
  <g id="fixed-colours">
    <path d="M 99.62,104.74 s -2-.12-2.59.81 c -.56-.69-.62-1.12,0-1.56 a 1.92,1.92,0,0,1,2-.06 A 1.37,1.37,0,0,1,99.62,104.74Z" fill="#fff"/>
    <path d="M 96.24,106 a 2.57,2.57,0,0,0-2.31,1 c -.62-.56-.87-1-.34-1.41 a 2.39,2.39,0,0,1,2-.12Z" fill="#fff"/>
    <path d="M 93.58,107.33 a 3.36,3.36,0,0,0-2.34.75.78.78,0,0,1,.31-1.34 C 92.24,106.39,92.87,106.58,93.58,107.33Z" fill="#fff"/>
    <path d="M 90.3,108.24 a 5.08,5.08,0,0,0-2.41.38,1,1,0,0,1,1-1.16 A 1.18,1.18,0,0,1,90.3,108.24Z" fill="#fff"/>
    <path d="M 86.83,108.42 a 2.66,2.66,0,0,0-2.16.09 c -.19-.5,0-.87.75-.94 a 1.45,1.45,0,0,1,1.16.44Z" fill="#fff"/>
  </g>
  <g id="outline">
    <path d="M 100.24,104.07 c -.67-1.32-2-1.65-3.59-2 a 6.87,6.87,0,0,1-3.72-3.37,74.08,74.08,0,0,0-4.81-8.25 c -2.19-3.12-4.62-5.37-5.75-8.31 s -.62-5.87-.62-7.12 A 6.76,6.76,0,0,0,75,68.25 h 0 A 6.75,6.75,0,0,0,68.25,75 a 28.45,28.45,0,0,1,0,3.77 c -.15,2-1.58,4.19-2.33,5.33 a 12.09,12.09,0,0,0-2.17,7.83,6.3,6.3,0,0,0,1.32,3.28,16.13,16.13,0,0,0,1.37,3.39 c 1.44,2.69,3.31,9.25,2.94,16.31,2.19.06,3.38.19,3.38.19 s -.83-8.37,2.21-12.28 c .23.26.47.53.7.82,2.21,2.71,4.25,7,6.63,10.75 a 26.26,26.26,0,0,0,16-.71,48.13,48.13,0,0,0,1.33-6.08 A 3.13,3.13,0,0,0,100.24,104.07Z m -.88.51 a 3.35,3.35,0,0,0-2.31.73.71.71,0,0,1,.19-1.29 A 1.45,1.45,0,0,1,99.37,104.58Z m -5.23-2.75 c -8,.32-10.41,5.34-10.86,6.52 a 39.06,39.06,0,0,1-2.33-3.65,11.34,11.34,0,0,1,9.94-7.32 C 91.82,99.25,92.52,100.74,94.13,101.83Z m -.85,5.66 c .42,1.17-.26,1.63-1.07,1.81 a 3.37,3.37,0,0,1-1.57-.07,3.12,3.12,0,0,0,.13-.55 c .14-1.21-1.09-2.32-2.34-2.75 a 5.25,5.25,0,0,1-1.76-1.13,10.29,10.29,0,0,1,2-1.21 c .15.87,2,2,2.76,2.34 a 4.2,4.2,0,0,1,1.28.63,1.8,1.8,0,0,0-1.4.16 c -.73.35-.58.88-.15,1.54 a 3.46,3.46,0,0,1,2.1-.82Z m -8.49-.71 a 11.56,11.56,0,0,1,1.48.9,1.84,1.84,0,0,0-1.2-.13 c -.6.13-.87.54-.48,1.1 a 2.31,2.31,0,0,1,2.11-.13 c .08,1.2-.88,1.77-2.13,1.08 a 3.61,3.61,0,0,1-.85-.72 A 9.28,9.28,0,0,1,84.8,106.78Z m 1.72,1.44 a 3,3,0,0,0-1.77.08 c -.12-.25.08-.48.56-.56 S 86.37,107.74,86.51,108.21Z m -.77-1.48 a 3.88,3.88,0,0,1-.72-.27,8.84,8.84,0,0,1,1.46-1.52,5.41,5.41,0,0,0,2.05,1.5,2.62,2.62,0,0,1,1.34,1.08,1.37,1.37,0,0,0-1.19-.13 c -.75.19-1.12.89-.83,1.34 a 5.29,5.29,0,0,1,2.36-.38 h 0 c .16,1-.36,1.38-1.16,1.63 a 3.74,3.74,0,0,1-1.88-.18,1.51,1.51,0,0,0,.11-.2 A 2.21,2.21,0,0,0,85.74,106.74Z M 90,108.09 a 5.11,5.11,0,0,0-2,.31 c -.1-.35.29-.68.75-.81 A .92.92,0,0,1,90,108.09Z m 3.18-.87 h 0 a 3.13,3.13,0,0,0-1.93.63 c -.29-.4-.15-.75.35-1 A 1.11,1.11,0,0,1,93.17,107.22Z m 2.74-1.32 a 2.29,2.29,0,0,0-2,.77 c -.56-.29-.67-.75-.25-1 A 1.82,1.82,0,0,1,95.91,105.9Z M 93.84,107 l .13.07 a 3,3,0,0,1,2.11-1,1.77,1.77,0,0,1,.2.84 c 0,1-.63,1.62-2,1.66 A 2.89,2.89,0,0,0,93.84,107Z m -.7-1.28 a .75.75,0,0,0,0,.37,2.66,2.66,0,0,0-1.1-.56,8.09,8.09,0,0,1-3.32-1.94,13.1,13.1,0,0,1,2.41-.83,3.21,3.21,0,0,0,2.41,1.9,7.75,7.75,0,0,1,1.42.47 C 94.16,105.07,93.3,105.32,93.14,105.71Z M 70.25,75 A 4.75,4.75,0,0,1,75,70.25 h 0 A 4.75,4.75,0,0,1,79.75,75 a 38.38,38.38,0,0,0,.49,5.3 c .63,2.44,3.25,6.5,4.88,8.63 a 70.67,70.67,0,0,1,5.49,7.93,10.94,10.94,0,0,0-9.94,7.4 l -.13-.22 a 37.22,37.22,0,0,0-7.08-7.46 c -2.29-1.83-4.71-3.71-5-8 a 18.94,18.94,0,0,1,.6-6.25 A 13,13,0,0,0,70.25,75Z m 1.55,39.35 c -1.16,0-1.43-.25-1.43-.25 s 0-6.81-1.45-11.31 a 55.56,55.56,0,0,0-2.64-6.35,15.71,15.71,0,0,0,2.37,1.5,21.78,21.78,0,0,1,5.51,4 C 73.53,102.85,71.59,106.14,71.8,114.36Z m 25.6-1.42 a 28.88,28.88,0,0,1-14.35.73 s -1.81-2.87-3.31-5.87 S 73.8,99.55,70.3,97.74 s -5.62-3.5-5.62-7.06 c 0-3,1.92-5.09,3.15-6.61 a 15.87,15.87,0,0,0,1,8.71 c 1,2.33,2.83,3.21,6.21,6.13 a 29.94,29.94,0,0,1,6.17,7.75,11.67,11.67,0,0,0,3.17,3.67,2.28,2.28,0,0,0,2.48-.16,4,4,0,0,0,2.26.48,1.65,1.65,0,0,0,1.14-.67,3.58,3.58,0,0,0,3.5-.55,3.17,3.17,0,0,0,2.41-.6,2,2,0,0,0,.45-.46,3,3,0,0,0,1.81-.06 A 39.12,39.12,0,0,1,97.41,112.94Z m 1.15-5.58 a 2.22,2.22,0,0,1-1.57.23,2.85,2.85,0,0,0-.41-2.19,4.8,4.8,0,0,0-2.87-1.25,4.4,4.4,0,0,1-2.58-1.41,17.16,17.16,0,0,1,3.8-.45,7.64,7.64,0,0,0,1.44.57 c -.51.28-1.16.7-1.13,1.07 A 2.76,2.76,0,0,1,97,103 a 3.66,3.66,0,0,1,1.68.64,1.85,1.85,0,0,0-1.58.19 c -.93.53-.67,1.3,0,1.89.58-.82,2.09-.83,2.55-.82 C 100.08,106.33,98.55,107.36,98.55,107.36Z"/>
  </g>
  <script type="text/ecmascript" xlink:href="param.min.js"/>
</svg>
