<?xml version="1.0"?>
<svg xmlns="http://www.w3.org/2000/svg" xmlns:xlink="http://www.w3.org/1999/xlink" viewBox="0 0 600 600">
  <title>ripped-skinny-jeans-hourglass</title>
  <g id="skin-tone">
    <path d="M 333.12,249.41 l -.15.11-.62-1.55 a 11.64,11.64,0,0,0-11.8-19.68v-.38 c -10.71-2.26-13.38-13.35-14.21-20.26-2.16.19-4.35.31-6.56.31 s -4.42-.12-6.6-.31 a 26.62,26.62,0,0,1-3.55,11 c -3.25,5.75-8.25,8.42-14.42,10.25-5.33-2.17-11.92-4-16.83-1.17 s -7.33,8-6.42,14 S 257.88,251,263,252.18 c -.08,8.08,1.5,22.33,4.83,29.25 s 9.33,14.42,11.92,17.92,4.42,9.42,2.92,18.08 c -.68,3.92-3.19,8-6.13,11.66,2.12,1.86,6.49,4.93,14.89,8.31,12.67,5.1,24.62,3.89,33.33-.83-4.1-5.85-5.17-8.93-4.76-14.14 s 4.92-13.67,8.5-19.67 A 57.44,57.44,0,0,0,333.62,290 l -.39.11,1-6.84 s .89-5.48,1.43-14 c .42-6.66.49-8.53-.67-13.33 C 334.57,254.21,333.65,251.15,333.12,249.41Z" fill="param(skin_tone)"/>
  </g>
  <g id="main-colour">
    <path d="M 335.74,357.38 c -.49-7.77-10.86-20.7-10.86-20.7 s -6.5,3.72-17.16,3.89 c -15.5.5-31-11.17-31-11.17-4,4.67-12.17,10-18.41,19.32 s -5.59,22.44-5.59,22.44 h 0 s 0,.07,0,.1 a 25.5,25.5,0,0,0,45.14,16.26,25.51,25.51,0,0,0,37.88-30.14Z" fill="param(main_colour)"/>
    <path d="M 278.23,328.6 l 2.11.72 s 1.08-1,1.5.58 c 1.13.83,7.08,3.83,7.08,3.83 s .75-.46,1.42.58 c 1.88,1,7.67,2.83,7.67,2.83 s .79-.83,1.58.25 a 26.12,26.12,0,0,0,13.5.63,1,1,0,0,1,1.71-.29 c 2.92-.92,5.33-1.83,5.33-1.83 s .33-1.42,1.54-.67 a 6.58,6.58,0,0,0,.94-.45 l 3.11,4.11 s -1,.46-1.93,1 c 0,.67-.79,1-1.75.71 a 38.69,38.69,0,0,1-6.17,2.17,1,1,0,0,1-1.62.54,44.78,44.78,0,0,1-15.83-.58 c -.79.29-1.08.54-1.46-.25 a 51.64,51.64,0,0,1-8.92-3 c -1.21.38-1.62.13-1.71-.71-1.67-.79-6.17-3.58-7.42-4.42-.87.17-1.46.25-1.46-1 a 12.72,12.72,0,0,1-1.88-1.71Z" fill="param(main_colour)"/>
  </g>
  <g id="fixed-colours">
    <path d="M 311,350.45 s 3.32,13.7-.58,32.09 C 313.15,375.86,315.45,362,311,350.45Z" opacity="0.5"/>
  </g>
  <g id="outline">
    <path d="M 307.66,333.57 c 1.05,0,1.45-1.69.36-3.44 a 29,29,0,0,1,.69-6.29 S 305.09,333.26,307.66,333.57Z"/>
    <path d="M 316.56,227.78 c -.27.19-.54.39-.8.6 a 45.79,45.79,0,0,1-4.92,2.38 l 3.08-.58 a 33.59,33.59,0,0,0,4.13-1 c 2.86-1.07,5.16-3.73,11-2.15-2.08-1.37-5.25-2.7-10.34-.47 a 13.57,13.57,0,0,1-8.33-7.28,32.56,32.56,0,0,1-2.86-11.7 c -.75.08-1.51.13-2.26.18.29,3.66,1.23,10.58,4.2,14.44 C 312.57,226.21,315.34,227.42,316.56,227.78Z"/>
    <path d="M 336.63,357.09 s -.75-5.5-6.92-14.67-9.83-13-8.92-20.08 c .77-5.92,5.19-13.63,8.09-18.78 h 0 c 4-6.29,6.26-15.15,6.64-20.91,2.45-15.76,1.3-27.24-2.3-34.76 a 47.63,47.63,0,0,0-7.43-11.47 s 4.65,5.6,7.05,16.6 c 3.25,14.88,0,31.88,0,31.88 a 46.12,46.12,0,0,1-5.68,18.35 c -4.42,7.33-7.08,13.75-8,18.75-.83,4.54.95,9.2,3,12.28 l -.71.33 a .91.91,0,0,0-.48-.16,1.15,1.15,0,0,0-1.12.83,42.56,42.56,0,0,1-5.28,1.71.7.7,0,0,0-.2-.09,1.13,1.13,0,0,0-1.24.42,29.85,29.85,0,0,1-6.08.67,31.52,31.52,0,0,1-7.65-1.14 c -.27-.55-.68-.9-1.28-.35 a 67.53,67.53,0,0,1-8.17-3,.7.7,0,0,0-.67-.29,76.9,76.9,0,0,1-7.41-3.79 c -.1-.67-.4-1.22-1.19-.89 l -.16.08q-.82-.51-1.6-1 a 27.78,27.78,0,0,0,2.64-4.12 c 3.5-7,4.25-17,0-23.33 s -7.83-9.08-12.75-19.17 c -4.23-8.68-4.67-23.75-4.71-27.77,0-.41,0-1.11-.1-2 a 12,12,0,0,1,.54-24,7.81,7.81,0,0,1,2,.18,12,12,0,0,1,1.62.38,68.27,68.27,0,0,1,7.12,2.48,71.52,71.52,0,0,0,8.34,2.35,45.44,45.44,0,0,0,15.17.32 c -7.64.23-15.54-1.92-20.85-3.88 a 21.35,21.35,0,0,0,11.69-8.45,27.22,27.22,0,0,0,4.47-12.86 c -.71-.05-1.42-.1-2.12-.17 a 23.65,23.65,0,0,1-5.85,14.28,19.43,19.43,0,0,1-11.63,5.88,47.82,47.82,0,0,0-5.16-1.64 A 14,14,0,1,0,262.13,253 c 0,.18-.55,6.82,1.83,18.9,2.42,12.25,8.83,20,14.25,26.83 s 5.17,17.5.67,25.58-17.5,15.75-23.42,27.83 a 41.22,41.22,0,0,0-4.07,13,27.47,27.47,0,0,0,47.5,24.11 c 2.59-.47,7.87-1.79,11.69-5.06,0,0-6.36,3.26-12.66,3.26 l -.05,0 a 25.48,25.48,0,0,1-45.15-16.23,25.7,25.7,0,0,1,.21-3.25 h 0 s -.44-4.85,2.92-12.72 a 42.13,42.13,0,0,1,7.45-11 c 2.18-2.33,7.39-7.09,11.86-12q.95.79,1.91,1.53 a .94.94,0,0,0,.11.53,1.25,1.25,0,0,0,1.41.6,51.19,51.19,0,0,0,7.46,4.43.83.83,0,0,0,.16.36,1.25,1.25,0,0,0,1.46.38,49.86,49.86,0,0,0,9.09,3,.69.69,0,0,0,.13.15,1.13,1.13,0,0,0,1.21.15,53.63,53.63,0,0,0,8.42,1,35,35,0,0,0,8-.62 c .5.45,1.06.67,1.41-.2 l 0-.12 a 36.45,36.45,0,0,0,6.95-2.4 c .61.32,1.23.39,1.34-.56,0,0,0-.07,0-.1.81-.42,1.39-.77,1.72-1 C 330,345,334.73,352.51,336.63,357.09Z m -50.49-19.15 a 56.19,56.19,0,0,1-6.49-3.73,2.67,2.67,0,0,0,.25-.32 c -1.1.56-2.82.43-1.31-2.07 s 3.11-3.36,3.3-.7 c 0,0,0-.1,0-.26,1.68,1,3.8,2.09,6.2,3.21 A 10,10,0,0,0,286.14,337.95Z m -10.25-6.56 c .82-.93,1.6-1.86,2.33-2.78 l 1.3.83 a 10.1,10.1,0,0,0-2.16,3.16 C 276.65,332,276.15,331.62,275.9,331.39Z m 12.8,7.73 a 2.66,2.66,0,0,0,.15-.26 c -1,.73-2.71.87-1.62-1.84 s 2.45-4,3.31-1.62 c 0,0,0-.1,0-.27 a 61.61,61.61,0,0,0,6.92,2.47,10.11,10.11,0,0,0-1,4.16 A 52.36,52.36,0,0,1,288.7,339.12Z M 299,342.34 a 2.28,2.28,0,0,0,.13-.38 c -.75.63-2.33,1.29-1.83-1.58 s 1.5-4.4,2.6-1.92 c 0,0,0-.09,0-.22 a 37,37,0,0,0,6.86,1 c 0,.87-.05,2.51-.18,4 A 45.23,45.23,0,0,1,299,342.34Z m 8.45.85 a 31,31,0,0,0,.22-4,30.48,30.48,0,0,0,5.13-.54,2.28,2.28,0,0,0,0,.24 c .45-.87,1.64-2.1,2.31.74 s .34,4.63-1.64,2.78 l .11.18 A 32.77,32.77,0,0,1,307.47,343.19Z m 8.67-1.14 a 10.2,10.2,0,0,0-.72-4,39.7,39.7,0,0,0,4.54-1.49,2.27,2.27,0,0,0,.08.24 c .19-1,1-2.47,2.42.09 s 1.58,4.37-.83,3.13 l 0,0 A 38.18,38.18,0,0,1,316.15,342.05Z m 7.92-3.11 a 10.36,10.36,0,0,0-1.63-3.44 l .5-.26 c .71.91,1.49,2,2.31,3.12Z"/>
    <path d="M 267.72,342.82 a 8.25,8.25,0,0,0,13.17-4.5 A 11,11,0,0,1,267.72,342.82Z"/>
    <path d="M 298.51,341.88 a 19.56,19.56,0,0,1,.69-3.56 A 4.93,4.93,0,0,0,298.51,341.88Z"/>
    <path d="M 313.47,338.75 a 19.55,19.55,0,0,1,.76,3.55 A 4.93,4.93,0,0,0,313.47,338.75Z"/>
    <path d="M 320.6,336.51 a 19.56,19.56,0,0,1,1.7,3.21 A 4.93,4.93,0,0,0,320.6,336.51Z"/>
    <path d="M 288.07,338.74 a 19.56,19.56,0,0,1,1.42-3.34 A 4.93,4.93,0,0,0,288.07,338.74Z"/>
    <path d="M 279.17,333.66 a 19.55,19.55,0,0,1,1.94-3.07 A 4.93,4.93,0,0,0,279.17,333.66Z"/>
  </g>
  <script type="text/ecmascript" xlink:href="param.min.js"/>
</svg>
