<?xml version="1.0"?>
<svg xmlns="http://www.w3.org/2000/svg" xmlns:xlink="http://www.w3.org/1999/xlink" viewBox="0 0 600 600">
  <title>default-top-slender</title>
  <g id="main-colour">
    <path d="M 348.78,261.63 c -2-6.12-8.37-9.94-13.19-13.06 a 143,143,0,0,1-18.81-14.5 c -5.5-5.31-7.25-10-7.25-10 a 18,18,0,0,1-1.69-2.81 c -.44,5.94,4.56,11.25,9.63,15.94 s 12.06,9.63,18.25,14.63 c -4.27,4.54-6.89,11.54-8.48,18.31 a 25.2,25.2,0,0,0-1-4 c -.81-7.62-11.58-12.87-18.71-12.94 a 83.85,83.85,0,0,0-20.06-27.62 s -1.06.69-2.44,1.5 c 8.56,6.31,15.75,17.44,19.88,26.94-10.33,7-12.92,14.71-16.58,18.13 s -15.17.33-15.17.33 a 25.36,25.36,0,0,0,.94,6.92 c 1.63,1.63,18.81,9.5,26.13,11.19 S 315.4,289,318,287.75 s 6.94-.81,9.13-.56,13.56.88,18.56-6.87 S 350.78,267.75,348.78,261.63Z" fill="param(main_colour)"/>
  </g>
  <g id="outline">
    <path d="M 296.2,287.15 s 12,4.08,20.58-2.33 A 29.87,29.87,0,0,1,296.2,287.15Z"/>
    <path d="M 347.15,277.63 s -7,7.63-17.33,7.08 a 38.69,38.69,0,0,0,8.5-2 A 48.74,48.74,0,0,0,347.15,277.63Z"/>
    <path d="M 341.4,251.88 a 252,252,0,0,1-22.68-16.33 c -4.77-4.2-7.78-8.52-9.11-11.85 a 16.86,16.86,0,0,1-1.72-3.16 s -1.83,1.68,1.5,7.84,13.33,14,17.67,17.17,7.83,6.33,7.83,6.33-5.85,5.31-7.63,15.93 a 21.83,21.83,0,0,0-.6-3.39 c -1.17-4.42-8-11.21-18.76-11.71 C 301.65,240,293.72,230,287.22,224.88 a 23.67,23.67,0,0,1-3.33,2 s 12.69,8.44,20.25,26.75 c -11.74,8.75-12.57,14.75-16.4,17.83 s -15.92-.17-15.92-.17,1.17,6.58,2.15,8.58 c 5.68,3.75,22.49,12.25,30.62,12.13 s 12.13-2.4,14.13-4.06 c 1.44-1.19,5.88-.19,5.88-.19 a 25.86,25.86,0,0,0,7.19.5 c 4.16-.35,17.89-3.62,19-18.75 A 18.1,18.1,0,0,0,341.4,251.88Z M 323.57,282 a 14.94,14.94,0,0,0,2.45-4.23,23.65,23.65,0,0,0,1.34-7.17 c 1-4.26,3.87-14,9.12-18.77-5.25-4.5-8.26-6.33-11.85-9.08 s -9.92-8.33-12-10.83-4.59-6.65-4.5-9.61 a 7.47,7.47,0,0,0,1.22,2,31.14,31.14,0,0,0,6.45,9.25 c 3.67,3.5,12.21,11,19.93,15.58,10.83,6.5,12.58,12,13.17,15.58.63,3.75.34,12.67-7.17,18.13-5.83,4.25-13.6,4.08-16.65,3.39 a 9.31,9.31,0,0,0-4.62,0,35,35,0,0,0-3.47.91 c -5,3.39-11.06,3.82-18.9,2-8.39-2-16.09-7-22-9.73-.83-1.33-1.83-6.08-1.83-6.08,7.75,1.75,11.17,1.17,13.67-.08,3-1.5,7.08-11.17,17.67-19 C 299.32,238,286.07,227,286.07,227 a 2.36,2.36,0,0,0,1.31-.69 c 9.5,8,17.17,21.56,19.75,27.48 a 22.51,22.51,0,0,1,15.1,6.83 C 329.65,268.38,323.57,282,323.57,282Z"/>
  </g>
  <script type="text/ecmascript" xlink:href="param.min.js"/>
</svg>
