<?xml version="1.0"?>
<svg xmlns="http://www.w3.org/2000/svg" xmlns:xlink="http://www.w3.org/1999/xlink" viewBox="0 0 215 215">
  <title>midi-crew-neck-baggy-t-shirt-slender</title>
  <g id="skin-tone">
    <path d="M 96.83,133.82 c .25,3.35.53,6.87.86,10.47,1.8,19.59,5.19,38.23,6.46,43.39 h 0 a 5.31,5.31,0,0,0,10.59-.55 s .15-13.1,1.06-27 c .52-8,1.29-17.79,1.93-25.73 C 109.7,132.52,100.32,133.38,96.83,133.82Z" fill="param(skin_tone)"/>
  </g>
  <g id="main-colour">
    <path d="M 91,135.07 c .79.92,5.5,2.88,5.63,2.88 s 0-2.68-.06-3.81 c 3.07-.66,4.06-1.12,10.69-1 a 43.58,43.58,0,0,1,10.53,1.28 l -.22,3.84 s 3.81-1.31,4.88-2.75 c -.92-1.37-2.59-19.42-2.84-21.33-.1-.8-.22-7.36-.29-7.42-.28-6-5.84-11.12-11.87-11.08-6.19,0-11.82,3.59-12,11.13 A 134.63,134.63,0,0,1,91,135.07Z" fill="param(main_colour)"/>
  </g>
  <g id="outline">
    <path d="M 123.06,135.89 c -.58-3.92-2.46-21.59-2.46-23.25 s .06-5.23.06-5.23 a 13.19,13.19,0,0,0-26.37,0 l -.19,5 s -1.34,14.4-4,23.08 c .82,1.13,4.72,2.7,6.1,3.23.27,3.42.57,6.87.9,10.19 a 345.39,345.39,0,0,0,6.26,39.24,6.16,6.16,0,0,0,.2.86 h 0 a 6.21,6.21,0,0,0,12.13-1.91 c 0-7.87,1.67-35.35,2.73-48.41 C 119.82,138,122.26,136.81,123.06,135.89Z m -26.9-23.46 a 43.19,43.19,0,0,0,.13-5,11.19,11.19,0,0,1,22.37,0 s 0,3.75.09,5 c 0,0,1.75,16.79,2.51,22.15 a 58.51,58.51,0,0,0-29.08-.38 C 95,125,96.16,112.43,96.16,112.43Z M 92.6,135.37q1.61-.44,3.26-.73.08,1.11.17,2.23 A 32.85,32.85,0,0,1,92.6,135.37Z m 21.91,32.17 c -.26,5.43-.51,11.34-.67,15.24,0,2.32-.18,4.36-.18,4.36 a 4.2,4.2,0,0,1-8,1.78 l -.07-.16 c -.43-1.13-1.35-4.89-1.35-4.89-1.78-8-4-23-5.32-34.72-.47-4.31-.88-9.52-1.22-14.78 a 67.39,67.39,0,0,1,19.21.61 C 115.85,148.55,114.73,162.95,114.51,167.54Z m 4.13-31.8,0-.45 c 1,.18,1.75.35,2.31.48 a 15.94,15.94,0,0,1-2.46,1.27 C 118.56,136.58,118.6,136.14,118.64,135.73Z"/>
  </g>
  <script type="text/ecmascript" xlink:href="param.min.js"/>
</svg>
