<?xml version="1.0"?>
<svg xmlns="http://www.w3.org/2000/svg" xmlns:xlink="http://www.w3.org/1999/xlink" viewBox="0 0 600 600">
  <title>default-top-slender</title>
  <g id="main-colour">
    <path d="M 273.05,272.21 s 12,3.5,14.5.33,8.67-13.67,17.33-18.5 c -4.5-10.17-15.33-25-19.83-27.17,1.33-.83,1.83-1.17,1.83-1.17 s 11.5,8.67,20.5,27.5 c 6.33,2.67,9.17,3.83,12.83,10.83 a 26,26,0,0,1,.67,5.5 s 4-12.33,14.33-17.67 c -8-7.33-16.67-12.83-21.83-18.67 s -6-9.83-5.67-11.67 c .83,1.33,1.67,2.42,1.67,2.42 a 41.31,41.31,0,0,0,5.92,8.75 c 3.33,3.5,13.33,11.67,17,14.33 s 10.92,7.92,11.25,16.75-1.58,14.42-8.5,18.33 a 10.43,10.43,0,0,1-12.25-1.25,15.67,15.67,0,0,0-9.25,1.25 c -4.67,2.25-6.17,4.92-14.17,4.75 s -22.5-5.75-24.67-7.17 A 35.5,35.5,0,0,1,273.05,272.21Z" fill="param(main_colour)"/>
  </g>
  <g id="outline">
    <path d="M 292.32,283.52 s 12,4.08,20.58-2.33 A 29.87,29.87,0,0,1,292.32,283.52Z"/>
    <path d="M 327.14,281.13 s 5.75,2.75,10.63-1.5 a 31.52,31.52,0,0,0,2.63-2.42 S 334.39,283.07,327.14,281.13Z"/>
    <path d="M 336.05,252 c -5.25-4.5-7.83-6.5-11.42-9.25 s -9.92-8.33-12-10.83-4.59-6.65-4.5-9.61 a 7.47,7.47,0,0,0,1.22,2,31.14,31.14,0,0,0,6.45,9.25,203.55,203.55,0,0,0,18,15,25,25,0,0,1,10.08,15.75 c .63,3.75-.62,9.46-5.62,14.38 s -9.87,5-15.37,1.71 a 24.21,24.21,0,0,0-6.42.17 c -.75.13-1.4.26-1.91.38-3.82,3.87-9.39,6.23-16.59,5.53-8.58-.83-16.17-4.42-22.25-6.92-.83-1.33-1.67-6.75-1.67-6.75,5.08,1.83,10.75,2.42,13.83.33 s 6.17-11.17,17.69-19 C 299.32,238,286.07,227,286.07,227 a 2.36,2.36,0,0,0,1.31-.69 c 9.5,8,17.17,21.56,19.75,27.48,4.5,1.25,7.73,2.69,10.88,7.4,3.54,5.29,1.62,12.94-1.38,17.6 a 8.57,8.57,0,0,0,3.25-3.67,14.9,14.9,0,0,0,1.5-9.08 c -1.12-5.48-6-11.17-13.5-13.33-6.17-11.83-14.17-22.67-20.67-27.83 a 23.67,23.67,0,0,1-3.33,2 s 12.69,8.44,20.25,26.75 c -13,9-13.33,15.92-17.33,18.5 s -15.17-1.25-15.17-1.25,1.17,7.17,2.33,9 c 5.67,3.17,21.42,8.33,28.92,7.83 s 10.83-4.33,12.83-6 a 13.56,13.56,0,0,1,6.83-.33 s 4.5,2.83,8.67,2.67,12.33-5.33,14-14.83-4.17-15.67-6.67-18-15.23-11.62-19.83-15.67 c -4.77-4.2-7.78-8.52-9.11-11.85 a 16.86,16.86,0,0,1-1.72-3.16 s -1.83,1.68,1.5,7.84,13.33,14,17.67,17.17,7.83,6.33,7.83,6.33Z"/>
    <path d="M 321,268.46 a 27.7,27.7,0,0,1,13.92-16.58 c .25-.42,1.17.17,1.17.17 s -10.08,4.75-15.5,20.58 A 30.21,30.21,0,0,1,321,268.46Z"/>
  </g>
  <script type="text/ecmascript" xlink:href="param.min.js"/>
</svg>
