<?xml version="1.0"?>
<svg xmlns="http://www.w3.org/2000/svg" xmlns:xlink="http://www.w3.org/1999/xlink" viewBox="0 0 600 600">
  <title>default-top-hourglass</title>
  <g id="main-colour">
    <path d="M 341.12,260.88 c -1.92-4.67-4.33-5.33-5.67-6.08 S 332,253,327.37,247 s -10.25-20.5-10.25-20.5 a 18.56,18.56,0,0,1-4-2.67 c 3,10.83,9.83,24.17,17.25,31.25 l -.26.23 c -10.3,1.39-14.27,11.13-15.49,14.27 a 18.6,18.6,0,0,1-1.48,3,16.94,16.94,0,0,0-.21-5 c -.75-3.58-5.48-8.83-13.12-11.87-4.92-21.58-13.94-32.62-13.94-32.62 a 12.79,12.79,0,0,1-2.33,1.75 c 6.75,8.75,11.33,24.5,12.58,32.58-3.19,3.17-6.25,5.23-12.44,16-7.56,6.44-17.25,3.44-17.25,3.44 s 1,5.83,2.44,7.75 c 4,1.92,16.08,3.92,23.5,3.75 a 26.1,26.1,0,0,0,15.33-4.83,13.64,13.64,0,0,1,11.17-.33 c 6.17,4.25,6.58,3.92,9.75,3.5 s 7.83-5.42,10.17-9.17 S 343,265.54,341.12,260.88Z" fill="param(main_colour)"/>
  </g>
  <g id="outline">
    <path d="M 307.12,284.38 s 6.31-3.69,12.13-.19 c 5,4.13,8.83,4.6,13.46,1.35 a 23,23,0,0,0,9.83-19 c 0-2.25-.52-6.74-2.5-9.33-2.17-2.83-3.5-2-6.17-4.25-2.12-1.79-8.67-6.5-16.33-26.92 a 20.2,20.2,0,0,1-6-4.5 s 5.58,21.67,17.58,33.17 c -7.42,1.67-14.08,8.67-15.33,16.5 l -.33,2.75 c 4.92-14.17,11.17-16.67,18.25-18.5-11.83-9.75-17.42-30.08-17.42-30.08 a 6.1,6.1,0,0,0,2.25,1.33 c 1.75,4,5.25,12.92,8.58,17.92 a 49.53,49.53,0,0,0,8.25,9.5 c 2.33,2.17,3.42,1.25,5.67,4.17,1.91,2.48,2.67,7.87,2,11.25-1.33,6.75-6.29,14-11.25,16.17-2.77,1.23-6.35.73-10.92-3.27-6.25-2.12-9.75.1-9.75.1Z"/>
    <path d="M 288,286 a 24.41,24.41,0,0,0,14.29-1.79 c 6.88-3.37,7.5-6.5,7.5-6.5 S 304,286.55,288,286Z"/>
    <path d="M 324,283.63 s 6.25,5.13,13.38-4.75 C 334.5,281.63,330.5,285.63,324,283.63Z"/>
    <path d="M 307,283.33 c -1.89,1.6-4.79,3.07-9.93,4.13-8.83,1.83-23.67-2.25-26.75-3.42-.92-1.67-2.58-6.17-2.58-6.17 s 9.5,1.92,15.25-3.25 c 4.48-4,5.67-10.33,13.75-16.5-1.67-10.75-6.17-24.92-12.46-33.12 l 1.56-1.19 c 2.38,2.94,6.64,10.43,9.81,19.81 a 120.68,120.68,0,0,1,3.75,12.58 s 13.28,4.45,13.43,14.66v.07 c .31,2.69-1.81,8.44-1.81,8.44 a 17.3,17.3,0,0,0,2.69-6.62 c 2.19-12.31-13.44-17.44-13.44-17.44 s -4.37-19.44-14.37-32.94 a 34.51,34.51,0,0,1-2.94,2.25 s 9.44,12.08,12.6,32.75 c -9.42,8-10.42,14.08-13.25,16.33 s -8.33,4.75-17.5,1.75 a 66.32,66.32,0,0,0,3.92,9.75 s 15,4.67,26.17,3.67 c 6.09-.55,10.79-2,14.57-6.54Z"/>
  </g>
  <script type="text/ecmascript" xlink:href="param.min.js"/>
</svg>
