<?xml version="1.0"?>
<svg xmlns="http://www.w3.org/2000/svg" xmlns:xlink="http://www.w3.org/1999/xlink" viewBox="0 0 150 150">
  <title>OA030-strappy-heel-slender</title>
  <g id="skin-tone">
    <path d="M 80.49,76.86 c -.25-2.06-.31-5.69-3.62-6.87 s -6.37,1.38-7.12,3.38.19,5.81-1.25,8.69 S 65.18,86.8,62.62,90 s -4.87,8.94-4.87,8.94 a 10.55,10.55,0,0,1,6.69-.56 A 7.72,7.72,0,0,1,69.37,102 a 10.24,10.24,0,0,1,3.13-4.56 c 2.13-1.5,5-1.37,7.44-5.69 s 1.25-8.37.94-10.12Z" fill="param(skin_tone)"/>
    <path d="M 66.53,107.11 a 11,11,0,0,0-6.29-4.29,18.88,18.88,0,0,0-9.17.58 c -1.08.42-1.87,2.42-.33,2.77 a 2.59,2.59,0,0,0,1.88,1.4,1.61,1.61,0,0,0,2,.92 c .88.92,2.89.81,2.89.81 A 4.36,4.36,0,0,0,61,110.4 c 2.25-.25,2.92-.62,3.83-1.33Z" fill="param(skin_tone)"/>
  </g>
  <g id="main-colour">
    <path d="M 80.95,78.19 a 9.88,9.88,0,0,0,2.58,5.5 c 2.33,2.42,3.58,5,2.08,8.67 s -2.83,4-6.33,4.92-4.92,1.25-7.42,5.5-4.17,8.5-7.92,10.5 c -5.25.33-11.5-.58-12.5-1.17 a 16.82,16.82,0,0,1-1.29-6 l .63.29 a 1.7,1.7,0,0,0,1.71,1.13,1.92,1.92,0,0,0,2.13,1,3.57,3.57,0,0,0,3.05.81 c 1.32,1.07,3.07,1.65,5.82.48 s 3-2.67,3-2.67-4-6.79-13.75-4.17 a .67.67,0,0,0,.08-.42,9.5,9.5,0,0,0,4.38-3.39 c 2.17-.82,3.92-1.61,6.75-1 s 5.33,3.75,5.33,3.75,1.5-3.54,3.79-4.75,4.79-2.29,6.33-4.54 a 11.54,11.54,0,0,0,1.83-7.71 C 81,82.28,80,79.61,80.95,78.19Z" fill="param(main_colour)"/>
  </g>
  <g id="accent-colour-1">
    <path d="M 85,94.3 a 7.6,7.6,0,0,1-4,2.56,47.88,47.88,0,0,0-5.31,2.06 s 1.81,7.75.63,14.38 c 1.13,0,2,.19,2-.06 a 36.07,36.07,0,0,1,1.75-8.56,31.49,31.49,0,0,1,3.63-6.87 C 84.68,96.55,85.49,94.92,85,94.3Z" fill="param(accent_colour_1)"/>
  </g>
  <g id="fixed-colours">
    <path d="M 57.64,106.78 a 5.32,5.32,0,0,1,3.58,1 c .48-.56.71-1.08-.42-1.6 a 3.4,3.4,0,0,0-2.06-.29Z" fill="#fff"/>
    <path d="M 55.51,105.46 a 6.68,6.68,0,0,1,1.27.15 c .42.13.94.67.31,1.13 a 3.94,3.94,0,0,0-2.46-.44Z" fill="#fff"/>
    <path d="M 52.39,106 a 4.08,4.08,0,0,1,1.83.29 c .15-.52.1-1.06-.67-1.1 s -.77,0-.77,0Z" fill="#fff"/>
    <path d="M 50.85,105.38 a 2.52,2.52,0,0,1,1.27.27 c .06-.46-.12-.9-1-.83Z" fill="#fff"/>
    <path d="M 50.18,104.3 s .58.15.6.65 c .23-.27.56-.71-.25-1.08 A 1.51,1.51,0,0,0,50.18,104.3Z" fill="#fff"/>
  </g>
  <g id="outline">
    <path d="M 83.12,80.92 A 11.16,11.16,0,0,1,81.75,75,6.76,6.76,0,0,0,75,68.25 h 0 A 6.76,6.76,0,0,0,68.25,75 s 0,.08,0,.12 c 0,.5.19,5-.92,7.45-.72,1.58-2.09,2.8-4,5.17 a 53.85,53.85,0,0,0-5.25,8.56 c -.75,1.63-1.94,3.94-4,5.06 s -3.5,1.06-4.44,2.38 a 2.24,2.24,0,0,0,.13,2.63,23.39,23.39,0,0,0,1.38,6.13 c 1.69.81,7.46,1.83,13.21,1.33,4.31-2.94,7-9.33,9-12.27 a 7.26,7.26,0,0,1,1.78-1.84 c 1.92,5.8.76,14,.76,14 h 2.72 c .75-10.31,4.63-14.69,6.25-17 a 7.52,7.52,0,0,0,1.32-3.3,11.67,11.67,0,0,0,.87-2.89 C 87.74,86.55,84.37,83.11,83.12,80.92Z M 65.05,87.86 c 3.06-3.19,3.81-4.62,4.49-6.64 s .69-6,.69-6,0-.23,0-.23 A 4.75,4.75,0,0,1,75,70.25 h 0 A 4.75,4.75,0,0,1,79.75,75 a 25.66,25.66,0,0,0,.43,3.69 c .06.81.17,1.78.35,2.87.54,3.13.88,5.83-.58,9.13 a 9,9,0,0,1-5,5.08,10,10,0,0,0-5.21,4.75 l -.41.84 c -4.19-5.32-9-3.83-11-2.81.35-.65.62-1.29.86-1.82 A 34,34,0,0,1,65.05,87.86Z M 57.76,99.38 A 8.84,8.84,0,0,1,68.95,102 a 50.28,50.28,0,0,1-2.5,4.37 c -4.08-4.91-9.52-4.64-13-3.77 l .51-.2 A 7.72,7.72,0,0,0,57.76,99.38Z m 2.52,6.73 c .68.15,1.65.78.9,1.44 a 5.79,5.79,0,0,0-3.07-.95,2,2,0,0,1,.82-.57 A 5.65,5.65,0,0,1,60.28,106.11Z m -2.82.32 a .67.67,0,0,0-.44-.85,2.22,2.22,0,0,0-.82-.18 l 1-.37 a 6,6,0,0,0,2.46-1.83,16.2,16.2,0,0,1-3.5,1.71,4.24,4.24,0,0,0-1.65,1,.75.75,0,0,0-.56-.75,1.55,1.55,0,0,0-.59-.06,2.81,2.81,0,0,1,1-.42,4.17,4.17,0,0,0,2.71-2 c -.87,1.17-2.33,1.33-3.08,1.58 a 2.59,2.59,0,0,0-1.64,1.12.81.81,0,0,0,0-.32 c -.12-.37-.54-.41-.84-.39 a 1.77,1.77,0,0,1,.73-.53 c .92-.33,2.75-1.29,2.75-1.29-.87.4-2.74,1-3.66,1.46 a .58.58,0,0,0-.35-.44 c 5.58-2,9.41-1.14,11.84.26 a 3.6,3.6,0,0,1-2.32,1 A 3.75,3.75,0,0,0,57.46,106.43Z m -4.49-1 a 2.27,2.27,0,0,1,.77,0 c .41.09.56.38.34.75 a 4.46,4.46,0,0,0-1.42-.27 A 1.65,1.65,0,0,1,53,105.41Z m 2.6.26 a 2.37,2.37,0,0,1,1.2.09 c .61.23.47.69.28.81 a 3.55,3.55,0,0,0-2.12-.43 A 2,2,0,0,1,55.57,105.68Z m -4.33-.77 c .66-.07.92.29.77.62 a 2.9,2.9,0,0,0-.95-.24 A 1.68,1.68,0,0,1,51.24,104.9Z m -.64-.84 c .34.13.38.32.33.46 l -.12.1 a .73.73,0,0,0-.4-.37 A 1.61,1.61,0,0,1,50.6,104.06Z m .4,1.43 a 5.27,5.27,0,0,1,1.11.24,2.16,2.16,0,0,0,0,1.5,2,2,0,0,1-.8-.62 A 1.38,1.38,0,0,1,51,105.49Z m 1.56.71 a 2.66,2.66,0,0,1,1.55.35,1.92,1.92,0,0,0,.19,1.8,2.05,2.05,0,0,1-1.49-.82 A 1.85,1.85,0,0,1,52.57,106.2Z m 2,1 a 2.15,2.15,0,0,1,.21-.82,3.29,3.29,0,0,1,2.4.5 l .05-.07 a 3.1,3.1,0,0,0-.29.92,2.11,2.11,0,0,0,.18,1.21 C 55.72,109,54.42,108.56,54.53,107.24Z m 3.33-.29 a 5,5,0,0,1,3.41,1 c .91-.87.53-1.43-.22-1.84 a 3,3,0,0,0-1.3-.3 l .74-.11 a 3.12,3.12,0,0,0,2.31-1.44,10.06,10.06,0,0,1,3.13,2.89,8.4,8.4,0,0,1-1.86,2 c -1.75,1.17-4.67,1.08-5.62.38 A 1.92,1.92,0,0,1,57.86,106.95Z m -7.69-2.21 a 1.19,1.19,0,0,1,.1-.29,1,1,0,0,1,.37.36,1.45,1.45,0,0,0-.18,1.08 A 1.55,1.55,0,0,1,50.18,104.74Z m 21.63-3 c -1.56,2.44-3.19,6.75-7.87,10.94 a 32.56,32.56,0,0,1-12.12-1.06,27,27,0,0,1-1-4.86 l .1.19 a 2.43,2.43,0,0,0,1.51.89,2.55,2.55,0,0,0,.57.61,2.53,2.53,0,0,0,1.76.42 l 0,0 a 3.63,3.63,0,0,0,2.77.71,4,4,0,0,0,3.06,1.21,6.48,6.48,0,0,0,5.33-2.37 c 1.54-1.79,3.33-5.54,4.17-7.17 a 9.23,9.23,0,0,1,4.83-4.67,10.29,10.29,0,0,0,5.75-5.46,12.08,12.08,0,0,0,.88-7.71 c -.17-.79-.35-1.63-.5-2.43 a 22.64,22.64,0,0,0,3,4.66,7.15,7.15,0,0,1,.31,7.75 c -1.62,2.56-4.19,3.25-6.87,3.94 S 73.37,99.3,71.8,101.74Z m 6.13,11.06 H 76.7 c 1.06-7.45,0-12.23-.41-13.77 a 37.06,37.06,0,0,1,5.14-1.67,8.49,8.49,0,0,0,2.83-1.46 c -.73,1.41-2.2,3-3.77,6.33 A 32.52,32.52,0,0,0,77.93,112.8Z"/>
  </g>
  <script type="text/ecmascript" xlink:href="param.min.js"/>
</svg>
