<?xml version="1.0"?>
<svg xmlns="http://www.w3.org/2000/svg" xmlns:xlink="http://www.w3.org/1999/xlink" viewBox="0 0 600 600">
  <title>slender-top-template</title>
  <g id="main-colour">
    <path d="M 271.76,265.8 a 16.42,16.42,0,0,1,7.92-4.92 c 3.25-6.17,10.42-10.75,16.17-11.17 a 16.64,16.64,0,0,1,13.58,4.75 c 3.25-5.42,11.75-9.83,22.92-3.5,1.92,6.33,2.58,14.83.33,25.25 s -5.67,20.92-7.25,28.42-4.92,20.33.92,29.92,8.75,10.75,13.92,20.08,5,15.33,9.58,21.92 S 361.1,388.88,370.76,389 c -1.75,4.5-8.17,9.67-8.17,9.67 l 4.33,1.42 s -6.92,11.42-28.5,15.25 a 24.8,24.8,0,0,0,4.08,3.42 S 325.85,431,300.85,431.3 s -39.67-6.08-51.92-14.75 a 13.41,13.41,0,0,0,3.33-2.83 s -18.17-2.92-25-21.5 a 21.87,21.87,0,0,0,19.83-13 c 3.92-8.5,11.5-27.58,20.75-39.08 s 16-18.25,16.17-27.75-4.83-20.08-6.58-25 S 271.76,265.8,271.76,265.8Z" fill="param(main_colour)"/>
  </g>
  <g id="outline">
    <path d="M 372.26,388.25 a 28.72,28.72,0,0,1-18-8 C 347.14,373.71,347,367,342.47,357 s -11-16.58-15.58-23.5-1.83-20.42-.92-25.33,4.66-19.83,6.4-25.58 c 6.1-20.25.35-32.62.35-32.62-7.58-4.42-17.5-4.87-23.5,3.13-9.75-8.87-23.5-3.75-30.5,6.83 a 29.8,29.8,0,0,0-8.08,5.08 c 1.13,9.79,5.75,22.58,9,31.83 s 4.13,13.88,2.25,21.13-8.62,11.88-18,25.75-14,27.5-18.5,35.88 S 231.64,391.75,225.51,391 A 35.25,35.25,0,0,0,250,414.25q-1.52,1.19-3.16,2.26 c 15.5,15.38,65.88,25.75,97.75,2.38-1.35-1-2.62-2-3.83-3,10.62-1.71,23.8-8.33,27.7-16.38-1.33-.3-2.61-.67-3.84-1.05 C 366.2,397.18,370.62,393.18,372.26,388.25Z M 338.91,414.2 c -10.91-10.1-15.77-22-17.28-25.57 C 324.26,401,331,410.13,341,418.75 c -8.75,6.38-50.75,23.38-90-1.87,12.63-10.75,18.75-28.5,19.63-35.12,0,0-4.9,18.67-18.52,30.76-10-2.06-20-11.21-23-19,1.5.13,7.75-1.67,11.75-4.29,7.24-4.75,11.61-20.07,19.25-34.58 s 19.25-25.25,22.5-32.5,3.88-12.62-.5-25 C 275,278.63,272.89,266,272.89,266 a 16.32,16.32,0,0,1,6.88-4.25 c 4.38-5.37,8.71-9.75,15.71-10.75,6.82-1,9.63,1.38,14.13,4.13,5.25-7.37,16.25-7.5,22.25-3.37,0,0,3.5,13-1.73,30.63-3.45,11.61-6.86,24.38-7.86,33.13 s .5,15.63,4,20.88,10.88,14.25,14,20.63,5.25,16.38,10.38,22.5,12.88,10.13,18.75,10.25 a 22.31,22.31,0,0,1-7.08,7.89,52.88,52.88,0,0,1-14.92-8.39 c 4.25,5.5,11.63,9.75,18.25,11.25 C 357.15,410.36,343,413.48,338.91,414.2Z"/>
  </g>
  <script type="text/ecmascript" xlink:href="param.min.js"/>
</svg>
