<?xml version="1.0"?>
<svg xmlns="http://www.w3.org/2000/svg" xmlns:xlink="http://www.w3.org/1999/xlink" viewBox="0 0 600 600">
  <title>hourglass-top-template</title>
  <g id="main-colour">
    <path d="M 263.84,265.88 a 30.16,30.16,0,0,1,7.5-4.67,25.43,25.43,0,0,1,23.17-11 c 8.83.83,15.33,7.83,15.33,7.83 s 7.33-13,23.5-7.5 c 3.67,10.83,2.83,27.83.17,38.83 s -5.33,13.83-7.5,17.5-5.33,10.33-6.33,16.17,5.17,13.33,8.5,17.5,11.83,13,15.67,24.33,4.67,21,7.67,26.33,7.33,9.33,12.5,9.67 c -3,7.83-12.83,17.17-12.83,17.17 l 4.5,2.67 s -9.17,8.67-26.17,15.83 a 18,18,0,0,0,2,2.5 s -12.5,9.67-41,9.83-46.33-14.67-46.33-14.67 l 4.83-4 s -19.67-5-27.67-20.67 c 8.17-1.33,14.5-7.17,18-19.17 s 7.17-29.33,18.33-44,20-14.17,24.17-25.67,0-19.17-4-23.83 S 265.34,280.38,263.84,265.88Z" fill="param(main_colour)"/>
  </g>
  <g id="outline">
    <path d="M 365.56,400 c -14.75-.83-16.25-20.08-19.67-31.83 s -10.67-20.83-15-25.5-10-11.83-10.25-17.58,4.41-14.63,6.75-18.75 c 3.7-6.5,6.95-12.25,8.53-25,2.79-22.5-1.83-31.58-1.83-31.58-12.12-4.33-20.94,1.35-24.35,7.1-3.56-4.1-9.15-8.06-19.4-7.6-11.88.53-19.7,11.17-19.7,11.17 a 52,52,0,0,0-7.77,4.92 c 1.42,15.92,11,28.33,13.77,31.58 s 5.92,7.17,5.42,16.42-4.92,13.83-9.25,17.67-11.08,7.25-17.58,17.08 a 99.91,99.91,0,0,0-13.42,29 c -1.92,7-3.08,13.42-6.67,20.75 a 19.91,19.91,0,0,1-15.83,11.08 c 8.34,14.83,23.21,20.39,27.32,21.68-1.25,1.21-2.58,2.41-4,3.57 C 265.39,454.88,314,453.63,333,439q-.79-.91-1.54-1.89 c 3.9-1.86,20.54-10.08,26-17.23 a 31.23,31.23,0,0,1-4.37-2 C 357.38,414.34,363.28,407.27,365.56,400Z m -35.38,35.38 c -6.72-9.65-10.91-23-11.79-30.71 a 54.6,54.6,0,0,0,11.75,34.13 c -15.87,9.63-57.5,15.13-84.25-4.25,11-7.25,20-29.37,19.75-36.87 a 69.27,69.27,0,0,1-17.13,31 c -17.65-5.35-25.7-18.13-25.7-18.13 s 4.58-.33,10.67-6.5,7.92-17.25,12.33-31.67,14.59-28.19,18.58-31.92 c 3.75-3.5,13.75-9.58,17.75-18.17 a 26.19,26.19,0,0,0,.75-19.83 c -1.17-2.67-6.83-9.33-11.67-16.83 s -6.17-19.42-6.17-19.42,3.83-3.17,6.5-4.08 c 2.67-2.83,8.9-9.75,18.78-10.58,9.25-.78,13.33,2,19.83,7.71,5.75-9.83,16.92-10.25,22.25-8.25,0,0,4.13,11.89,1.42,31.75-2.08,15.25-6.95,20.63-9.86,26.38 s -5.42,12.5-4.92,17.25,6,11.92,7.75,13.83 a 122,122,0,0,1,12.75,17.67 c 5.25,8.83,6.17,18.83,8.58,26.92 s 6.33,14.42,14.33,16.92 c -3,7.5-9.16,13.22-11.22,15 A 35.15,35.15,0,0,1,339.14,403 c 1.75,6.5,8.25,14.5,14.75,17.5 C 347,427.66,333.33,433.94,330.18,435.34Z"/>
  </g>
  <script type="text/ecmascript" xlink:href="param.min.js"/>
</svg>
