<?xml version="1.0"?>
<svg xmlns="http://www.w3.org/2000/svg" xmlns:xlink="http://www.w3.org/1999/xlink" viewBox="0 0 250 250">
  <title>ripped-skinny-jeans-hourglass</title>
  <g id="skin-tone">
    <rect x="117.47" y="140.4" width="21.25" height="17.25" fill="param(skin_tone)"/>
    <rect x="116.97" y="178.15" width="7" height="6" fill="param(skin_tone)"/>
    <rect x="127.47" y="209.4" width="12" height="9.25" fill="param(skin_tone)"/>
  </g>
  <g id="main-colour">
    <path d="M 150.5,125 l -51,0 s -.35,19.34,5.49,32.84 c 9,20.86,12.82,32.41,15.82,39.41 s 5.26,18.83,5.8,19.42 h .11 c 0,.2,0,.4,0,.6 a 6.74,6.74,0,0,0,11.21,5.06 l .08.06 a 12.15,12.15,0,0,0,2.79-3.76 c 1.16-3.06,3.73-13.56,5.94-35,2.54-24.56,4.14-46.28,4.12-56.52Z m -28.21,21.55 c 10.26-2.93,15.67-1.5,15.67-1.5 a 31.25,31.25,0,0,0-4.67.67,29.47,29.47,0,0,1,3.33.5 s -3.33.83-3.83,1 a 28.92,28.92,0,0,0,3,.17,25.41,25.41,0,0,1-5.33,1.33,16.5,16.5,0,0,0,3,0,34.79,34.79,0,0,1-8.83,1.67,4.08,4.08,0,0,0,2.33-1.17,23.07,23.07,0,0,1-7.17.67,28.44,28.44,0,0,0,6.33-1.5 l -3.5.17,1.83-.67 a 30.11,30.11,0,0,0-5.17.67 C 119.39,148.09,120,147.23,122.29,146.57Z m -1.83,35.67 a 3,3,0,0,0,1.17.58,10.63,10.63,0,0,1-2.92-.33 c .83.08,1.17.08,1.17.08 a 9.94,9.94,0,0,1-2-1.08,7,7,0,0,0,2.25.25,11,11,0,0,1-2-.67,4.63,4.63,0,0,0,2.25.08 l -.92-.92 a 13.53,13.53,0,0,0,3.5.92,2.38,2.38,0,0,1-1.25.42,8,8,0,0,0,2.08.25 C 123,182.48,121.79,182.32,120.46,182.23Z M 122,154.9 a 10.9,10.9,0,0,0,3-.5 l -2-1 s 4.17-.17,5.33-.83 a 25.93,25.93,0,0,1-5.83-.67 s 7.67-.17,12-2 a 20.38,20.38,0,0,1-4,2.83 s 2.17-.33,2.83-.5 a 12.14,12.14,0,0,1-6,1.67,12.07,12.07,0,0,0,2.83.5 A 29.76,29.76,0,0,1,122,154.9Z M 132.71,217 c 1.25.63,2.13,1,2.13,1 s -3.87.38-5.37-1.25 a 10.79,10.79,0,0,0,1.88.25 s -3.12-1.12-3.63-2.12 a 17.56,17.56,0,0,0,5.88,1.25,35.66,35.66,0,0,1-4.5-1.62,8.44,8.44,0,0,0,3.54.17 l -1.54-1,1.88.25 s -1.5-.92-3-2 c 0,0,5.38,2.83,8.25.71 a 3.79,3.79,0,0,1-2.12,1.75,6.48,6.48,0,0,0,1.63,0,4.27,4.27,0,0,1-3.5,1,6.2,6.2,0,0,0,4.13.58 C 136.58,217.44,135.25,217.36,132.71,217Z" fill="param(main_colour)"/>
  </g>
  <g id="fixed-colours">
    <path d="M 101.47,127.32 s 2.92,20.08,9.5,38.33 c 5.69,15.77,8.9,23.27,10.75,27.75,2.75,6.66,6,16.92,5.88,22.88-.79-7.46-4.68-18.34-6.62-23.12 A 368,368,0,0,1,107.22,156 C 101.92,138.38,101.47,127.32,101.47,127.32Z" opacity="0.5"/>
    <g opacity="0.6">
      <polygon points="102.47 127.4 102.57 127.89 102.56 127.89 102.47 127.4" fill="#fff"/>
      <polygon points="102.86 129.37 103.05 130.35 102.99 130.36 102.81 129.37 102.86 129.37" fill="#fff"/>
      <polygon points="103.36 131.82 103.56 132.8 103.45 132.82 103.26 131.84 103.36 131.82" fill="#fff"/>
      <polygon points="103.88 134.27 104.09 135.25 103.92 135.28 103.73 134.3 103.88 134.27" fill="#fff"/>
      <polygon points="104.41 136.72 104.63 137.7 104.41 137.74 104.21 136.76 104.41 136.72" fill="#fff"/>
      <polygon points="104.96 139.16 105.17 140.14 104.92 140.2 104.71 139.22 104.96 139.16" fill="#fff"/>
      <polygon points="105.51 141.61 105.73 142.59 105.46 142.65 105.24 141.67 105.51 141.61" fill="#fff"/>
      <polygon points="106.07 144.05 106.31 145.02 106.02 145.09 105.79 144.11 106.07 144.05" fill="#fff"/>
      <polygon points="106.66 146.48 106.9 147.46 106.59 147.53 106.36 146.56 106.66 146.48" fill="#fff"/>
      <polygon points="107.26 148.92 107.51 149.89 107.19 149.97 106.95 148.99 107.26 148.92" fill="#fff"/>
      <polygon points="107.89 151.34 108.15 152.31 107.81 152.4 107.56 151.43 107.89 151.34" fill="#fff"/>
      <polygon points="108.54 153.76 108.81 154.73 108.46 154.82 108.19 153.85 108.54 153.76" fill="#fff"/>
      <rect x="108.99" y="156.2" width="0.38" height="1" transform="translate(-39.44 36.75) rotate(-16.22)" fill="#fff"/>
      <rect x="109.69" y="158.61" width="0.4" height="1" transform="translate(-41.84 39.23) rotate(-17.06)" fill="#fff"/>
      <rect x="110.42" y="161" width="0.42" height="1" transform="translate(-44.57 42.19) rotate(-18.04)" fill="#fff"/>
      <rect x="111.21" y="163.38" width="0.44" height="1" transform="translate(-47.71 45.78) rotate(-19.21)" fill="#fff"/>
      <polygon points="112.3 165.7 112.64 166.65 112.2 166.8 111.87 165.85 112.3 165.7" fill="#fff"/>
      <polygon points="113.15 168.06 113.49 169 113.05 169.16 112.71 168.22 113.15 168.06" fill="#fff"/>
      <polygon points="114.02 170.41 114.37 171.35 113.91 171.52 113.56 170.58 114.02 170.41" fill="#fff"/>
      <polygon points="114.9 172.75 115.25 173.69 114.8 173.87 114.44 172.93 114.9 172.75" fill="#fff"/>
      <polygon points="115.79 175.1 116.14 176.03 115.7 176.2 115.34 175.27 115.79 175.1" fill="#fff"/>
      <polygon points="116.69 177.43 117.05 178.37 116.63 178.53 116.26 177.6 116.69 177.43" fill="#fff"/>
      <polygon points="117.6 179.77 117.97 180.7 117.56 180.86 117.19 179.93 117.6 179.77" fill="#fff"/>
      <polygon points="118.52 182.1 118.9 183.03 118.51 183.19 118.13 182.26 118.52 182.1" fill="#fff"/>
      <polygon points="119.46 184.42 119.83 185.35 119.46 185.51 119.08 184.58 119.46 184.42" fill="#fff"/>
      <polygon points="120.39 186.75 120.77 187.68 120.41 187.83 120.03 186.9 120.39 186.75" fill="#fff"/>
      <polygon points="121.32 189.08 121.69 190.01 121.35 190.15 120.98 189.22 121.32 189.08" fill="#fff"/>
      <rect x="122.08" y="191.44" width="0.35" height="1" transform="translate(-60.63 56.52) rotate(-20.99)" fill="#fff"/>
      <polygon points="123.13 193.76 123.46 194.71 123.14 194.82 122.81 193.88 123.13 193.76" fill="#fff"/>
      <polygon points="123.93 196.15 124.23 197.1 123.93 197.2 123.62 196.25 123.93 196.15" fill="#fff"/>
      <polygon points="124.68 198.54 124.97 199.5 124.69 199.59 124.39 198.63 124.68 198.54" fill="#fff"/>
      <polygon points="125.41 200.94 125.69 201.9 125.43 201.98 125.14 201.02 125.41 200.94" fill="#fff"/>
      <rect x="125.99" y="203.37" width="0.26" height="1" transform="translate(-50.18 41.42) rotate(-15.6)" fill="#fff"/>
      <polygon points="126.77 205.77 127.01 206.75 126.8 206.8 126.54 205.83 126.77 205.77" fill="#fff"/>
      <polygon points="127.36 208.21 127.58 209.19 127.43 209.22 127.19 208.25 127.36 208.21" fill="#fff"/>
      <polygon points="127.88 210.66 128.06 211.65 127.96 211.67 127.76 210.69 127.88 210.66" fill="#fff"/>
      <polygon points="128.28 213.14 128.38 214.14 128.34 214.15 128.22 213.15 128.28 213.14" fill="#fff"/>
      <polygon points="128.4 215.65 128.35 216.15 128.39 215.65 128.4 215.65" fill="#fff"/>
    </g>
  </g>
  <g id="outline">
    <path d="M 107.75,161.94 c -7.18-19.6-7.84-31.7-8.24-36.66v0 a 3.87,3.87,0,0,0-1.8,3 c .2,9.63,2.6,20.44,6.71,31.48,6.45,17.35,11,28.67,14.52,36.4 a 133.14,133.14,0,0,1,7.21,22 c 2.17-2.09-2.09-14-6-24.33 C 118.77,190.19,113.49,177.61,107.75,161.94Z"/>
    <path d="M 150.51,124.76 c .27,4.46.13,11.07-1,21.5 l -.13,2 c -.84,13.17-2.38,22.06-3.22,30.12-.86,8.24-2,23.69-3.28,29.23 s -1.53,11.78-4.92,14.76 c 6.37-2.25,8.87-29.26,9.78-39.21,1.19-13.07,3.56-28.69,4.25-42.87.14-2.94,0-5.54-.1-7.84 A 35.83,35.83,0,0,0,150.51,124.76Z"/>
  </g>
  <script type="text/ecmascript" xlink:href="param.min.js"/>
</svg>
