<?xml version="1.0"?>
<svg xmlns="http://www.w3.org/2000/svg" xmlns:xlink="http://www.w3.org/1999/xlink" viewBox="0 0 600 600">
  <title>skull-design-top-hourglass</title>
  <g id="main-colour">
    <path d="M 312.06,298.25 c -.43,0-.49-.48-.89.06,0,0-.47,2.72-.09,2.69 S 312.5,298.29,312.06,298.25Z" fill="param(main_colour)"/>
    <path d="M 313.17,298.9 c -.95,0-1.31,2.26-1,2.65 s .74.36,1-.63 S 313.74,298.91,313.17,298.9Z" fill="param(main_colour)"/>
    <path d="M 314.35,299.61 c -.41,0-.79,1.14-.82,2 s .49,1,.9.85.59-1.28.68-2 S 315,299.55,314.35,299.61Z" fill="param(main_colour)"/>
    <path d="M 318.45,299.06 c -.41,0-1.33,2.33-.61,2.27 s 1-.69,1.14-1.38 S 318.95,299,318.45,299.06Z" fill="param(main_colour)"/>
    <path d="M 319.75,298.87 c -.67,2.19.85.75,1,.25 s .52-1.45.24-1.66 S 320.07,297.8,319.75,298.87Z" fill="param(main_colour)"/>
    <path d="M 331.34,285.22 c -.21-2.07.58-7.69.27-11.11 s -.3-10.16-6.55-13.88-15.56-2.38-18.33,1.08 c -4.26,5.32-1.37,17-1.23,20.22.4,3.16-1,4.69-.27,7.14 s 1.46,2.81,2.71,2.63,3.58,1.73,3.7,3.29-1.07,3.43,1.29,3.16.35,2.14,2.25,1.12,2.54.83,3.12-.21,3.21-1.44,3.54-3.5,2.74-4.9,5.3-3.74 S 331.66,287.29,331.34,285.22Z m -18.6,1.31 c -1.3.82-4.54.33-4.91-1 a 22.27,22.27,0,0,1-.19-5.18 c .08-.75.17-2,1.3-2.29,1.68-.39,3.41-1.58,4.68-.81 s 2.36,2.5,2.2,3.68 S 314.05,285.72,312.74,286.53Z m 7.61,3.8 c -.36,1.28-1,2.83-1.87,2.67 s -.1-2.29-.12-3.38-.55-2.18-.95-.56-.35,4-1.55,4 c -.7,0-.71-2.36,0-4.86 s 1.64-3.86,2.14-3.47.94-1,1.41-.07 S 320.73,289.05,320.35,290.33Z m 8.49-4.29 a 6.43,6.43,0,0,1-5.24.72 c -1.3-.66-1-2.31-1.83-2.89 a 2.33,2.33,0,0,1-1.09-1.82 c -.18-1.11,1.41-2.68,2.27-3.76 s 1.57-1.11,3.06-.18,3.08.89,3.21,2.25 S 329.66,285.23,328.85,286Z" fill="param(main_colour)"/>
  </g>
  <g id="fixed-colours">
    <path d="M 333.21,266.36 s -13.64,13-29.16,13.54 C 315.1,283.2,326.56,275.85,333.21,266.36Z" opacity="0.15"/>
    <path d="M 328.25,275.24 s -6.5,7.38-14,9.21 C 321.29,285,326.42,278.4,328.25,275.24Z" opacity="0.15"/>
  </g>
  <script type="text/ecmascript" xlink:href="param.min.js"/>
</svg>
