<?xml version="1.0"?>
<svg xmlns="http://www.w3.org/2000/svg" xmlns:xlink="http://www.w3.org/1999/xlink" viewBox="0 0 600 600">
  <title>skull-design-top-hourglass</title>
  <g id="main-colour">
    <path d="M 311.05,298.09 c -.43,0-.51-.46-.89.11,0,0-.32,2.74.06,2.69 S 311.5,298.1,311.05,298.09Z" fill="param(main_colour)"/>
    <path d="M 312.2,298.68 c -.95,0-1.18,2.33-.86,2.7 s .76.31,1-.68 S 312.77,298.65,312.2,298.68Z" fill="param(main_colour)"/>
    <path d="M 313.42,299.32 c -.41.06-.73,1.18-.71,2.06 s .54.93.95.8.52-1.31.57-2.07 S 314,299.22,313.42,299.32Z" fill="param(main_colour)"/>
    <path d="M 317.49,298.54 c -.4.05-1.2,2.4-.48,2.3 s .92-.74,1.07-1.44 S 318,298.48,317.49,298.54Z" fill="param(main_colour)"/>
    <path d="M 318.77,298.28 c -.55,2.22.89.7,1,.19 s .44-1.47.15-1.67 S 319,297.2,318.77,298.28Z" fill="param(main_colour)"/>
    <path d="M 329.6,284 c -.32-2.06.16-7.71-.33-11.11 s -.86-10.13-7.3-13.5-15.67-1.52-18.24,2.09 c -4,5.55-.43,17.09-.12,20.25.57,3.14-.71,4.73.12,7.14 s 1.62,2.72,2.85,2.48,3.67,1.53,3.88,3.08-.88,3.49,1.47,3.08.47,2.12,2.31,1,2.58.69,3.11-.38,3.13-1.61,3.34-3.69,2.46-5,5.09-4 S 330,286.06,329.6,284Z m -18.5,2.32 c -1.25.89-4.51.58-5-.69 a 22.27,22.27,0,0,1-.47-5.16 c 0-.75.06-2,1.18-2.36,1.66-.48,3.32-1.77,4.63-1.07 s 2.49,2.37,2.4,3.56 S 312.36,285.46,311.09,286.34Z m 7.81,3.38 c -.28,1.3-.86,2.88-1.72,2.77 s -.22-2.28-.31-3.37-.67-2.15-1-.5-.13,4-1.33,4.13 c -.7.07-.84-2.32-.29-4.85 s 1.43-3.95,2-3.59.88-1.09,1.41-.15 S 319.21,288.42,318.9,289.72Z m 8.25-4.75 a 6.43,6.43,0,0,1-5.2,1 c -1.33-.59-1.17-2.25-2-2.78 a 2.33,2.33,0,0,1-1.19-1.76 c -.24-1.1,1.27-2.76,2.06-3.88 s 1.51-1.19,3-.35,3.12.72,3.32,2.07 S 327.92,284.12,327.15,285Z" fill="param(main_colour)"/>
  </g>
  <g id="fixed-colours">
    <path d="M 330.42,265.08 S 317.51,278.8,302,280.2 C 313.27,282.89,324.3,274.92,330.42,265.08Z" opacity="0.15"/>
    <path d="M 326,274.22 s -6.09,7.72-13.44,10 C 319.55,284.3,324.31,277.48,326,274.22Z" opacity="0.15"/>
  </g>
  <script type="text/ecmascript" xlink:href="param.min.js"/>
</svg>
