<?xml version="1.0"?>
<svg xmlns="http://www.w3.org/2000/svg" xmlns:xlink="http://www.w3.org/1999/xlink" viewBox="0 0 600 600">
  <title>skull-design-top-slender</title>
  <g id="main-colour">
    <path d="M 315.52,291.35 c -.36,0-.4-.41-.74,0,0,0-.44,2.25-.12,2.23 S 315.89,291.39,315.52,291.35Z" fill="param(main_colour)"/>
    <path d="M 316.43,291.91 c -.79,0-1.12,1.85-.88,2.18 s .61.31.85-.5 S 316.9,291.92,316.43,291.91Z" fill="param(main_colour)"/>
    <path d="M 317.4,292.51 c -.34,0-.67.93-.72,1.66 s .39.8.74.72.51-1,.6-1.67 S 317.92,292.47,317.4,292.51Z" fill="param(main_colour)"/>
    <path d="M 320.81,292.13 c -.34,0-1.14,1.91-.54,1.87 s .81-.55,1-1.12 S 321.22,292.1,320.81,292.13Z" fill="param(main_colour)"/>
    <path d="M 321.88,292 c -.6,1.8.69.63.85.22 s .46-1.19.23-1.37 S 322.16,291.11,321.88,292Z" fill="param(main_colour)"/>
    <path d="M 331.72,280.87 c -.13-1.72.61-6.36.42-9.2 s -.08-8.43-5.19-11.61-12.86-2.23-15.21.59 c -3.62,4.34-1.42,14.1-1.36,16.73.28,2.63-.88,3.87-.34,5.91 s 1.16,2.35,2.2,2.23,2.93,1.49,3,2.79-.95,2.83,1,2.64.26,1.78,1.85,1,2.09.73,2.59-.12,2.69-1.14,3-2.84,2.35-4,4.46-3 S 331.95,282.59,331.72,280.87Z m -15.44.77 c -1.09.65-3.76.19-4.06-.88 a 18.46,18.46,0,0,1-.07-4.29 c .08-.62.18-1.67,1.12-1.87,1.4-.29,2.85-1.25,3.89-.59 a 3.73,3.73,0,0,1,1.76,3.09 C 318.8,278.07,317.39,281,316.28,281.64Z m 6.24,3.28 c -.32,1.06-.89,2.32-1.59,2.18 s 0-1.9,0-2.8-.42-1.82-.77-.48-.36,3.31-1.36,3.33 c -.58,0-.55-2,.06-4 s 1.43-3.17,1.84-2.84.8-.85,1.17,0 S 322.87,283.87,322.53,284.92Z m 7.11-3.41 a 5.33,5.33,0,0,1-4.36.51 c -1.07-.57-.83-1.94-1.47-2.42 a 1.93,1.93,0,0,1-.87-1.53 c -.13-.92,1.22-2.2,1.95-3.08 s 1.32-.89,2.54-.1,2.54.79,2.62,1.92 S 330.33,280.85,329.64,281.51Z" fill="param(main_colour)"/>
  </g>
  <g id="fixed-colours">
    <path d="M 333.59,265.28 s -11.53,10.53-24.4,10.73 C 318.3,278.93,327.92,273,333.59,265.28Z" opacity="0.15"/>
    <path d="M 329.33,272.55 s -5.52,6-11.73,7.4 C 323.4,280.48,327.76,275.14,329.33,272.55Z" opacity="0.15"/>
  </g>
  <script type="text/ecmascript" xlink:href="param.min.js"/>
</svg>
