<?xml version="1.0"?>
<svg xmlns="http://www.w3.org/2000/svg" xmlns:xlink="http://www.w3.org/1999/xlink" viewBox="0 0 250 250">
  <title>ripped-skinny-jeans-slender</title>
  <g id="skin-tone">
    <path d="M 121.08,216.17 a 10.24,10.24,0,0,1-10.23.46 c .14,2.23.18,4.33.18,6.44,0,6.58,2.72,6.86,3,6.87 a 4.7,4.7,0,0,0,6.91-1.27 h 0 c 2-.39,1.86-3.11,1-7.44 C 121.76,219.85,121.44,218.18,121.08,216.17Z" fill="param(skin_tone)"/>
    <rect x="114.62" y="132.07" width="11.67" height="8.67" fill="param(skin_tone)"/>
  </g>
  <g id="main-colour">
    <path d="M 127.22,117.57 c -3.42-1.17-7.08,0-10.75,6.25 s -7.17,8.33-11.75,20.58 a 67.72,67.72,0,0,0-3.5,31.5 c .92,7.42,4.08,16.83,5.58,21.08 a 104.8,104.8,0,0,1,4.25,19.58,9.48,9.48,0,0,0,9.83-.25 l -.67-3.25 c -1.5-6.92-3-23.83-1.58-38.75 s 6.67-28.5,9.17-35.67,4.42-8.75,4.92-12.75 A 7.79,7.79,0,0,0,127.22,117.57Z m -5.93,21.67.83,1 A 12.78,12.78,0,0,1,117,137.4 c .5.5,2.67.5,2.67.5 a 14.87,14.87,0,0,1-4.17-3.17,8.74,8.74,0,0,0,3.83,1.33,6.4,6.4,0,0,1-1.33-2.33,18.31,18.31,0,0,0,6.83,3 l -1.5.67,1.67.83-2.83-.33 a 8.49,8.49,0,0,0,3.5,1.17 A 16.21,16.21,0,0,1,121.29,139.23Z" fill="param(main_colour)"/>
  </g>
  <g id="fixed-colours">
    <path d="M 117.37,126.65 s -4.32,7.18-7.17,11.42 c -3.32,5-6.57,14.59-7,24.77-.7,15.07,3.52,25.08,5.3,31.48,2,7.34,4.27,20.08,4.58,21.75 a 129.76,129.76,0,0,0-4.25-22.92 c -2.5-9.08-5.64-17-4.92-30.83.57-11,4.37-20.09,7.08-24.33 C 113.53,134,116.49,129.8,117.37,126.65Z" opacity="0.5"/>
    <g opacity="0.6">
      <polygon points="118.04 128.23 117.56 129.11 117.55 129.1 118.04 128.23" fill="#fff"/>
      <polygon points="116.84 130.43 116.36 131.3 116.3 131.27 116.8 130.4 116.84 130.43" fill="#fff"/>
      <polygon points="115.62 132.61 115.13 133.48 115.03 133.42 115.54 132.56 115.62 132.61" fill="#fff"/>
      <polygon points="114.38 134.78 113.88 135.64 113.73 135.55 114.25 134.7 114.38 134.78" fill="#fff"/>
      <polygon points="113.1 136.93 112.58 137.78 112.39 137.66 112.93 136.82 113.1 136.93" fill="#fff"/>
      <polygon points="111.8 139.06 111.31 139.93 111.09 139.81 111.58 138.93 111.8 139.06" fill="#fff"/>
      <polygon points="110.64 141.26 110.21 142.16 109.96 142.04 110.4 141.14 110.64 141.26" fill="#fff"/>
      <polygon points="109.61 143.53 109.22 144.45 108.96 144.34 109.35 143.42 109.61 143.53" fill="#fff"/>
      <polygon points="108.68 145.84 108.33 146.78 108.05 146.67 108.4 145.74 108.68 145.84" fill="#fff"/>
      <polygon points="107.85 148.19 107.54 149.14 107.24 149.04 107.55 148.09 107.85 148.19" fill="#fff"/>
      <polygon points="107.11 150.57 106.85 151.53 106.52 151.45 106.8 150.48 107.11 150.57" fill="#fff"/>
      <polygon points="106.48 152.98 106.25 153.95 105.91 153.88 106.14 152.9 106.48 152.98" fill="#fff"/>
      <polygon points="105.94 155.42 105.76 156.4 105.39 156.33 105.59 155.35 105.94 155.42" fill="#fff"/>
      <polygon points="105.52 157.87 105.38 158.86 105 158.81 105.14 157.81 105.52 157.87" fill="#fff"/>
      <polygon points="105.21 160.34 105.12 161.33 104.72 161.3 104.81 160.3 105.21 160.34" fill="#fff"/>
      <polygon points="105.03 162.82 104.99 163.82 104.57 163.81 104.61 162.8 105.03 162.82" fill="#fff"/>
      <polygon points="104.98 165.31 105.01 166.31 104.57 166.32 104.56 165.31 104.98 165.31" fill="#fff"/>
      <rect x="104.65" y="167.81" width="0.45" height="1" transform="translate(-8.98 5.94) rotate(-3.11)" fill="#fff"/>
      <polygon points="105.22 170.29 105.3 171.29 104.83 171.32 104.76 170.32 105.22 170.29" fill="#fff"/>
      <polygon points="105.44 172.78 105.54 173.77 105.05 173.82 104.95 172.82 105.44 172.78" fill="#fff"/>
      <polygon points="105.71 175.25 105.83 176.24 105.35 176.31 105.22 175.31 105.71 175.25" fill="#fff"/>
      <polygon points="106.04 177.72 106.2 178.71 105.74 178.79 105.57 177.8 106.04 177.72" fill="#fff"/>
      <polygon points="106.46 180.18 106.64 181.16 106.2 181.25 106.01 180.27 106.46 180.18" fill="#fff"/>
      <polygon points="106.95 182.62 107.18 183.6 106.76 183.7 106.53 182.72 106.95 182.62" fill="#fff"/>
      <polygon points="107.54 185.05 107.8 186.01 107.4 186.12 107.14 185.15 107.54 185.05" fill="#fff"/>
      <polygon points="108.21 187.45 108.5 188.41 108.12 188.52 107.83 187.56 108.21 187.45" fill="#fff"/>
      <polygon points="108.94 189.84 109.24 190.79 108.89 190.9 108.58 189.95 108.94 189.84" fill="#fff"/>
      <polygon points="109.68 192.23 109.95 193.19 109.62 193.29 109.33 192.33 109.68 192.23" fill="#fff"/>
      <polygon points="110.34 194.64 110.59 195.61 110.27 195.69 110.02 194.73 110.34 194.64" fill="#fff"/>
      <polygon points="110.93 197.08 111.14 198.06 110.84 198.12 110.62 197.15 110.93 197.08" fill="#fff"/>
      <polygon points="111.44 199.53 111.62 200.51 111.34 200.56 111.14 199.59 111.44 199.53" fill="#fff"/>
      <polygon points="111.89 201.99 112.05 202.98 111.79 203.02 111.61 202.04 111.89 201.99" fill="#fff"/>
      <polygon points="112.3 204.46 112.45 205.44 112.21 205.48 112.04 204.5 112.3 204.46" fill="#fff"/>
      <polygon points="112.66 206.93 112.8 207.92 112.62 207.95 112.45 206.96 112.66 206.93" fill="#fff"/>
      <polygon points="113 209.41 113.13 210.4 113.01 210.42 112.85 209.43 113 209.41" fill="#fff"/>
      <polygon points="113.33 211.88 113.46 212.88 113.39 212.89 113.24 211.9 113.33 211.88" fill="#fff"/>
      <polygon points="113.65 214.36 113.77 215.36 113.76 215.36 113.61 214.37 113.65 214.36" fill="#fff"/>
    </g>
  </g>
  <g id="outline">
    <path d="M 133.92,125 a 8.91,8.91,0,0,0-17-3.81 h 0 c -.07.14-.14.28-.2.43-5.13,11.28-10.14,12.24-14.73,27.61-4.19,14-2.19,28.29,1.93,40.66,3.55,10.66,6.34,24.28,6.24,29.54 s -.18,8,1,9.24 a 4.35,4.35,0,0,0,2.91,1.27 s -1.69-.87-1.91-3.75 c -.12-1.55.12-4.07-.19-8.33 a 9.71,9.71,0,0,0,8.24-.47,60.8,60.8,0,0,1,1.45,8.79,5,5,0,0,1-.71,2.49 s 2.14.11,2.42-2.5-1.18-6.61-2.93-17.86 a 135.63,135.63,0,0,1-.5-36.5 c 1.5-13.62,7.75-30.5,10.25-36.5 s 3.48-7.38,3.62-9.25 h 0 A 8.89,8.89,0,0,0,133.92,125Z m -2.42,2.33-.52,1.14 h 0 c -.5,1.1-1.24,2.77-1.93,4.46 h 0 a 203.3,203.3,0,0,0-8.31,23.76 c -4.25,15.5-4.31,31.88-3.41,42.63 A 155.27,155.27,0,0,0,120,215.93 c -1.59.69-5,1.81-8.07.43 a 97.2,97.2,0,0,0-2.4-13.67 c -3.5-14.5-8-22-7.5-36.62 s 3-22.67,8.81-30.5 c 4-5.39,8.44-14.37,8.44-14.37 A 6.91,6.91,0,0,1,131.92,125,6.82,6.82,0,0,1,131.49,127.33Z"/>
  </g>
  <script type="text/ecmascript" xlink:href="param.min.js"/>
</svg>
