<?xml version="1.0"?>
<svg xmlns="http://www.w3.org/2000/svg" xmlns:xlink="http://www.w3.org/1999/xlink" viewBox="0 0 600 600">
  <title>skull-design-top-hourglass</title>
  <g id="main-colour">
    <path d="M 314.65,297.11 c -.43,0-.49-.48-.89.06,0,0-.47,2.72-.09,2.68 S 315.09,297.14,314.65,297.11Z" fill="param(main_colour)"/>
    <path d="M 315.76,297.76 c -.95,0-1.3,2.26-1,2.65 s .74.35,1-.63 S 316.33,297.77,315.76,297.76Z" fill="param(main_colour)"/>
    <path d="M 316.94,298.46 c -.41,0-.79,1.14-.82,2 s .49,1,.9.85.59-1.27.68-2 S 317.56,298.4,316.94,298.46Z" fill="param(main_colour)"/>
    <path d="M 321,297.91 c -.4,0-1.32,2.33-.61,2.27 s 1-.69,1.14-1.37 S 321.52,297.88,321,297.91Z" fill="param(main_colour)"/>
    <path d="M 322.32,297.72 c -.67,2.18.85.75,1,.25 s .52-1.44.24-1.66 S 322.64,296.66,322.32,297.72Z" fill="param(main_colour)"/>
    <path d="M 333.89,284.1 c -.2-2.07.58-7.67.27-11.08 s -.3-10.14-6.53-13.85-15.53-2.37-18.29,1.08 c -4.25,5.31-1.37,17-1.23,20.17.4,3.16-1,4.68-.27,7.12 s 1.46,2.8,2.7,2.63,3.57,1.72,3.7,3.28-1.07,3.43,1.29,3.15.35,2.13,2.25,1.12,2.53.82,3.12-.21,3.21-1.44,3.53-3.49,2.73-4.89,5.29-3.73 S 334.2,286.17,333.89,284.1Z m -18.56,1.3 c -1.29.81-4.53.33-4.9-1 a 22.22,22.22,0,0,1-.19-5.16 c .08-.75.17-2,1.3-2.28,1.68-.38,3.4-1.58,4.67-.81 s 2.35,2.5,2.19,3.67 S 316.64,284.6,315.33,285.41Z m 7.6,3.79 c -.35,1.28-1,2.82-1.86,2.66 s -.1-2.29-.12-3.37-.55-2.17-.94-.55-.35,4-1.55,4 c -.7,0-.71-2.36,0-4.85 s 1.64-3.85,2.14-3.47.94-1,1.41-.07 S 323.31,287.92,322.92,289.2Z m 8.47-4.28 a 6.41,6.41,0,0,1-5.23.72 c -1.3-.66-1-2.31-1.83-2.88 a 2.33,2.33,0,0,1-1.09-1.82 c -.18-1.11,1.41-2.68,2.27-3.75 s 1.57-1.11,3.05-.18,3.07.89,3.2,2.25 S 332.21,284.11,331.4,284.91Z" fill="param(main_colour)"/>
  </g>
  <g id="fixed-colours">
    <path d="M 333.55,264.61 s -12.56,12-26.84,12.47 C 316.89,280.11,327.43,273.34,333.55,264.61Z" opacity="0.15"/>
    <path d="M 329,272.78 s -6,6.79-12.85,8.48 C 322.58,281.72,327.31,275.69,329,272.78Z" opacity="0.15"/>
  </g>
  <script type="text/ecmascript" xlink:href="param.min.js"/>
</svg>
