<?xml version="1.0"?>
<svg xmlns="http://www.w3.org/2000/svg" xmlns:xlink="http://www.w3.org/1999/xlink" viewBox="0 0 250 250">
  <title>hourglass-bottoms-template</title>
  <g id="skin-tone">
    <path d="M 150.5,125.31 h 0 a 25.5,25.5,0,0,0-51-.62 h 0 s -.57,19.34,5.1,32.9 c 8.77,21,13.1,32.45,16,39.48 s 4.39,19,4.92,19.59 h .11 c 0,.2,0,.39,0,.6 a 6.74,6.74,0,0,0,11.15,5.19 l .08.06 a 12.15,12.15,0,0,0,2.84-3.72 c 1.19-3,3.88-13.52,6.35-34.93,2.82-24.53,4.68-46.23,4.77-56.47Z" fill="param(skin_tone)"/>
  </g>
  <g id="outline">
    <path d="M 151.69,131.58 A 27.47,27.47,0,0,0,125.34,97.5 h 0 A 27.42,27.42,0,0,0,97.67,128v0 c .08,9.63,2.36,20.47,6.34,31.55,6.25,17.42,10.71,28.8,14.1,36.56 a 133.14,133.14,0,0,1,7,22.08 c 2.19-2.07-1.93-14.07-5.71-24.4-1.34-3.65-6.47-16.29-12-32-7-19.68-7.47-31.79-7.81-36.76v0 h 0 c 0-.09,0-.18,0-.28 A 25.5,25.5,0,0,1,125.3,99.5 h 0 a 25.5,25.5,0,0,1,25.18,24.94 h 0 s .07,6.23-.21,11.34v0 c -.2,3.06-.53,6.62-1,10.8 l -.15,2 c -1,13.16-2.64,22-3.57,30.08-1,8.23-2.26,23.67-3.62,29.19 s -1.67,11.76-5.09,14.7 c 6.39-2.18,9.2-29.15,10.23-39.1,1.35-13.05,3.89-28.65,4.74-42.82.18-2.94.07-5.54,0-7.84 C 151.78,132.38,151.74,132,151.69,131.58Z"/>
  </g>
  <script type="text/ecmascript" xlink:href="param.min.js"/>
</svg>
