<?xml version="1.0"?>
<svg xmlns="http://www.w3.org/2000/svg" xmlns:xlink="http://www.w3.org/1999/xlink" viewBox="0 0 250 250">
  <title>slender-bottoms-template</title>
  <g id="skin-tone">
    <path d="M 127.22,117.57 c -3.42-1.17-7.08,0-10.75,6.25 s -7.17,8.33-11.75,20.58 a 67.72,67.72,0,0,0-3.5,31.5 c .92,7.42,4.08,16.83,5.58,21.08 A 105.1,105.1,0,0,1,111,216.45 l -.2.17 c .14,2.23.18,4.33.18,6.44,0,6.58,2.72,6.86,3,6.87 a 4.7,4.7,0,0,0,6.91-1.27 h 0 c 2-.39,1.86-3.11,1-7.44-.27-1.39-.59-3.06-.95-5.07 l -.25-.13-.61-3 c -1.5-6.92-3-23.83-1.58-38.75 s 6.67-28.5,9.17-35.67,4.42-8.75,4.92-12.75 A 7.79,7.79,0,0,0,127.22,117.57Z" fill="param(skin_tone)"/>
  </g>
  <g id="outline">
    <path d="M 133.92,125 a 8.91,8.91,0,0,0-17-3.81 h 0 c -.07.14-.14.28-.2.43-2.92,6.22-10.49,12.14-14.73,27.61 a 72.15,72.15,0,0,0,1.83,42.67 c 4,10.5,6.44,22.28,6.34,27.54 s -.18,8,1,9.24 a 4.35,4.35,0,0,0,2.91,1.27 s -1.69-.87-1.91-3.75.78-9-2.72-23.5-8-22-7.5-36.62,5.38-26.31,9.5-32.65,7.75-12.22,7.75-12.22 A 6.91,6.91,0,0,1,131.92,125 a 6.82,6.82,0,0,1-.42,2.33 l -.52,1.14 h 0 c -.5,1.1-1.24,2.77-1.93,4.46 h 0 a 203.3,203.3,0,0,0-8.31,23.76 c -4.25,15.5-4.31,31.88-3.41,42.63 s 4.47,23.72,4.38,26.86 a 5,5,0,0,1-.71,2.49 s 2.14.11,2.42-2.5-1.18-6.61-2.93-17.86 a 135.63,135.63,0,0,1-.5-36.5 c 1.5-13.62,7.75-30.5,10.25-36.5 s 3.48-7.38,3.62-9.25 h 0 A 8.89,8.89,0,0,0,133.92,125Z"/>
  </g>
  <script type="text/ecmascript" xlink:href="param.min.js"/>
</svg>
