<?xml version="1.0"?>
<svg xmlns="http://www.w3.org/2000/svg" xmlns:xlink="http://www.w3.org/1999/xlink" viewBox="0 0 150 150">
  <title>OA030-strappy-heel</title>
  <g id="skin-tone">
    <path d="M68.47,103.36A114.74,114.74,0,0,1,69,91.24C69.66,86,70.91,83,70.47,80.36s-2-6.06-.19-8.56a6.08,6.08,0,0,1,7.94-1.62C81,71.67,81,75.8,80.29,77.42a12.56,12.56,0,0,0,.13,7.88c1,2.75,3.63,10.19,4.44,13.81S86.1,106,86.1,106a16.21,16.21,0,0,0-8.87-4.44C71.6,100.67,68.47,103.36,68.47,103.36Z" fill="param(skin_tone)"/>
    <path d="M67.85,108.24a17.15,17.15,0,0,1,7.38-1.62c4.31,0,10.42,4,11.4,5.35,0,1.34-.21,2.78-2.52,2a2.17,2.17,0,0,1-3.19.56c-.56.88-2.25,1.06-3.37-.37-.75,1-2.81,1-4.19-.37a3.75,3.75,0,0,1-4.31.69C67.35,113.55,65.85,112.61,67.85,108.24Z" fill="param(skin_tone)"/>
  </g>
  <g id="main-colour">
    <path d="M68.85,102.89a15.2,15.2,0,0,1,6.56-1.37c3.66.09,6.53.63,10.47,4.5a40.41,40.41,0,0,1,1,5.94,25.41,25.41,0,0,0-8.9-5c-4.81-1.31-10.12,1.25-10.12,1.25Z" fill="param(main_colour)"/>
    <path d="M68.1,114.14s3.41,1.78,5.25-.34c1,1,2.94,1.81,4.19.38,1,1,2.56,1.72,3.44.5,1.06.69,2.56.53,3-.66,1.09.19,2.19.47,2.81-.78a18.61,18.61,0,0,1-1.19,4.66s-10.94,3.06-17-.81C68.38,116.24,68.1,114.14,68.1,114.14Z" fill="param(main_colour)"/>
  </g>
  <g id="fixed-colours">
    <path d="M69,111.32a1.9,1.9,0,0,1,2-2,2.13,2.13,0,0,1,2.18,2.2A7.42,7.42,0,0,0,69,111.32Z" fill="#fff"/>
    <path d="M74.91,111.9s-.06-1.31,1.17-1.27a1.44,1.44,0,0,1,1.44,1.48A4.33,4.33,0,0,0,74.91,111.9Z" fill="#fff"/>
    <path d="M78.93,112.42s-.1-1.21.79-1.19a1.34,1.34,0,0,1,1.15,1.25A4.76,4.76,0,0,0,78.93,112.42Z" fill="#fff"/>
    <path d="M82.16,112.55s0-.92.75-.92c.33,0,.67.38.79.94A6.27,6.27,0,0,0,82.16,112.55Z" fill="#fff"/>
    <path d="M84.79,112.42s0-.77.44-.92.79.46.88.63A4.33,4.33,0,0,0,84.79,112.42Z" fill="#fff"/>
  </g>
  <g id="outline">
    <path d="M87.38,109.67a94.7,94.7,0,0,1-1.61-9.9,75.43,75.43,0,0,0-3-10.27c-1-2.8-2.46-6.87-2.42-8.82,0-1.55,1-2.94,1.25-4.17,0-.1,0-.2.06-.31V76.1a6.7,6.7,0,0,0-7.1-7.84h0a6.76,6.76,0,0,0-6.28,7.18c.13,2.16,1.23,2.82,1.46,5.83a13.86,13.86,0,0,1-.8,5.28c-.58,1.66-1.23,7.7-1.32,11.08s.51,5.28-.27,8.62-1.89,5.79.13,8.08a13.66,13.66,0,0,0,.66,3.28s5.5,4.13,17.73.94C87.62,114.19,88.09,112.08,87.38,109.67Zm-13.45.54a12,12,0,0,1-.76-2.89,14.9,14.9,0,0,1,3.46-.08,5.23,5.23,0,0,0,.46,3.47l.14.27a1.67,1.67,0,0,0-.82-.46,1.31,1.31,0,0,0-1.64,1.61,5,5,0,0,1,2.91.26,2.18,2.18,0,0,1-.39,1.51c-.75,1.08-2.37.85-3.38-.15A4,4,0,0,0,73.94,110.21ZM69.41,103a15.54,15.54,0,0,1,16.1,3c.33,1.43.75,3.87.93,5.27A19.63,19.63,0,0,0,78,106.7a13.68,13.68,0,0,0-9.28.76A35.15,35.15,0,0,0,69.41,103Zm8,9a4.58,4.58,0,0,0-2.27-.2.9.9,0,0,1,1.11-1A1.25,1.25,0,0,1,77.36,111.93Zm.9.07a12.64,12.64,0,0,1-1.53-4.76,9.23,9.23,0,0,1,1.53.29l.84.26a4.16,4.16,0,0,0,.63,2.36c.33.48.62.89.84,1.28a1.39,1.39,0,0,0-.95-.41c-1-.08-.85,1.56-.85,1.56a4.34,4.34,0,0,1,2.3.21,2.46,2.46,0,0,1-.1.89c-.35,1.22-1.73,1.79-3.08.52A2.71,2.71,0,0,0,78.27,112Zm2.48.4a3.57,3.57,0,0,0-1.71-.14c0-.47.17-.93.73-.87A1,1,0,0,1,80.75,112.4ZM80,109.84a4.72,4.72,0,0,1-.72-2A22,22,0,0,1,82,109.05a3.94,3.94,0,0,0,.91,1.73c1.13,1.24,1.28,2,.76,3.23a1.67,1.67,0,0,1-2.41.56,3.16,3.16,0,0,0,.43-1.71C81.64,111.38,80.67,110.74,80,109.84Zm3.61,1.07a8.8,8.8,0,0,1-1.27-1.66,26.08,26.08,0,0,1,3.72,2.42l0,.14a1,1,0,0,0-.92-.45.9.9,0,0,0-.49,1.23,5,5,0,0,1,1.51-.34c.1.72-.06,1.39-.44,1.58a2.23,2.23,0,0,1-1.46,0c0-.1.07-.18.1-.29A3,3,0,0,0,83.64,110.91Zm2.3,1.11a2.87,2.87,0,0,0-1.08.29c0-.25.12-.65.35-.7A.68.68,0,0,1,85.93,112ZM70.07,90.17c.57-4.23,1.35-6.37,1.5-7.94a9.33,9.33,0,0,0-.45-3.31,11.5,11.5,0,0,1-.86-3.61,4.87,4.87,0,0,1,4.42-5.05h0a4.75,4.75,0,0,1,5.05,4.42,4.67,4.67,0,0,1,0,.5v.12c0,.16,0,.31,0,.46-.13,1-.49,2.11-.72,3.23-.48,1.43,0,4.26.65,6.48s3.35,8.91,4.2,12.08c.78,2.89,1.1,5.7,1.47,7.42-1.93-1.82-7.41-5.83-15.83-2.78,0-.08,0-.16,0-.23A107.05,107.05,0,0,1,70.07,90.17ZM68,111.1c.1-.69.31-1.61.54-2.66a24.62,24.62,0,0,1,4.42-1.09,8,8,0,0,0,.46,3.05c.76,1.85-.08,3.72-1.62,4a3.61,3.61,0,0,1-3.55-1A4.69,4.69,0,0,1,68,111.1Zm17.3,6.23c-5.39,1.51-13.44,1.14-16.24-.68-.17-1-.27-1.58-.33-2a2.8,2.8,0,0,0,1.21.46,4,4,0,0,0,3.46-.73,4.21,4.21,0,0,0,2.29.93,2,2,0,0,0,1.8-.62,3.52,3.52,0,0,0,2,.89A1.83,1.83,0,0,0,81,115a3.07,3.07,0,0,0,1.66.35,1.74,1.74,0,0,0,1.38-.86,3.64,3.64,0,0,0,1.85.07,1,1,0,0,0,.33-.24A15.75,15.75,0,0,1,85.28,117.33Z"/>
    <path d="M73.36,111.85a2.41,2.41,0,0,0-2.17-2.64,2.06,2.06,0,0,0-2.38,2.31A8.33,8.33,0,0,1,73.36,111.85ZM69.27,111a1.51,1.51,0,0,1,1.82-1.45c1.06.14,1.87.87,1.83,1.68A7.68,7.68,0,0,0,69.27,111Z"/>
    <path d="M83.92,112.83a1.26,1.26,0,0,0-1-1.33c-.59-.06-1,.42-.81,1.21A3.78,3.78,0,0,1,83.92,112.83Zm-1-1.08a.82.82,0,0,1,.69.72,6.17,6.17,0,0,0-1.28-.09C82.34,111.94,82.63,111.71,82.88,111.75Z"/>
  </g>
<script type="text/ecmascript" xlink:href="param.min.js"/> 
</svg>
