<?xml version="1.0"?>
<svg xmlns="http://www.w3.org/2000/svg" xmlns:xlink="http://www.w3.org/1999/xlink" viewBox="0 0 600 600">
  <title>default-top-slender</title>
  <g id="main-colour">
    <path d="M273.11,273s8.67,1.42,11.42-.42c1.41-.94,3.49-6.07,6.17-10.67a71,71,0,0,1,5.75-8.25S291.69,233.8,285.11,227c1-.58,2-1.33,2-1.33s7.17,6.58,12.67,26.33c1.92,2.67,10.67,10.58,13.67,19.5a34.3,34.3,0,0,1,3.92-9.5c2.25-3.67,4.75-7.5,7.67-9.33-5.33-8.75-10.92-16.92-13.92-22.08s-3.5-7.75-3.08-9c.17,1.5,2.33,3.58,2.33,3.58a50.38,50.38,0,0,0,5.25,8.83C318.69,238,327,249,329,252s8.42,12.25,3.42,28.08c-3.67,2.42-8,1.92-11.67,1s-8.67-1.42-10-.67c-2.33,2.17-5.33,5.17-13.33,5.33s-21.17-4.58-23.42-6.25A36.62,36.62,0,0,1,273.11,273Z" fill="param(main_colour)"/>
  </g>
  <g id="outline">
    <path d="M300.52,251.88c-3.33-10.33-7.17-21-13.3-27a23.67,23.67,0,0,1-3.33,2s6.8,4.83,11.8,26.83c-6.33,6.17-9.17,15.42-11.25,17.83S272,272,272,272s.78,6.42,1.95,7.92c5.67,3.17,16.81,6.39,24.32,6.17,8.58-.25,10.92-3.75,12.92-5.42a13.32,13.32,0,0,1,6.4.25s10.75,3.75,15.38-.37a34.48,34.48,0,0,0,2.21-14.37c-.31-7.12-4.21-12.5-6.71-15.75-2.09-2.71-5.12-7.19-9.5-12.75-3.93-5-7-9.33-8.37-12.67a10.83,10.83,0,0,1-2.72-4.43s-1.83,1.68,1.5,7.84a169.92,169.92,0,0,0,10.05,16.25,93.42,93.42,0,0,1,4.92,8A34,34,0,0,0,313.61,271a39.34,39.34,0,0,0-4.83-9.67C306.55,258.19,300.52,251.88,300.52,251.88Zm13.08,21.5c3.08-10.17,7.83-17,12-20.75a104.59,104.59,0,0,0-6.58-10.5c-2.52-3.75-4.32-6.71-6.42-9.87-1.8-2.71-3.87-6.37-4.25-9.25a9.39,9.39,0,0,0,1.5,2.19,78.73,78.73,0,0,0,6.75,10.94c4.13,5.5,7.88,10.45,11.13,15.45,3.89,6,5.21,9,5.56,12.61a37.06,37.06,0,0,1-1.52,15.6c-3,2.17-6.51,1.54-10.54.71a70.9,70.9,0,0,0-7.46-1.12,30.28,30.28,0,0,0-3.34.41c-3.24,3.68-9.28,6-15.15,5.25-8.56-1.06-13.43-2.92-19.51-5.42-.43-1.25-1.67-6.08-1.67-6.08,4.75,1.25,8.92,1.25,11.42-.83s4.33-10.33,11.83-18.83C292.36,235,286.07,227,286.07,227a2.36,2.36,0,0,0,1.31-.69c7.64,10.4,10,20.56,12,26.4a65.79,65.79,0,0,1,8,8.75A47.75,47.75,0,0,1,313.61,273.38Z"/>
    <path d="M292.13,283.54s12.11,2,19-6.52C309.56,279.09,306.24,285.75,292.13,283.54Z"/>
    <path d="M332.69,278.14a12.66,12.66,0,0,1-7.3,1.55,10.91,10.91,0,0,0,6.63-.57Z"/>
  </g>
<script type="text/ecmascript" xlink:href="param.min.js"/> 
</svg>
