<?xml version="1.0"?>
<svg xmlns="http://www.w3.org/2000/svg" xmlns:xlink="http://www.w3.org/1999/xlink" viewBox="0 0 150 150">
  <title>OA030-strappy-heel</title>
  <g id="skin-tone">
    <path d="M90.47,101.3a13.79,13.79,0,0,0-8,1.56c-2.31,1.06-4.06,5.19-4.06,5.19A28,28,0,0,0,75,100.67c-2.5-3.81-4.44-5.69-5.69-9.06S68.79,86.24,69,84a44.77,44.77,0,0,0,.56-6.44c-.06-2.19-.56-7.62,5.63-7.94s5.5,6.5,5.19,8.44-.06,6.5,1.94,9.44S88.6,96,89.85,99.42Z" fill="param(skin_tone)"/>
    <path d="M81.69,113.11s1.66-8.94,11.94-7.59c2.25,1.22,3.66,1.81,3.84,2.75s-.22,3.41-3.44,3.16a2,2,0,0,1-2.5.84,2.48,2.48,0,0,1-2.78.56,3.17,3.17,0,0,1-2.84.28,2.65,2.65,0,0,1-2.47.66Z" fill="param(skin_tone)"/>
  </g>
  <g id="main-colour">
    <path d="M69.39,81.82S69,84,68.77,85.9s-.25,5,1.08,7.29,6.75,8.58,8.56,14.85c1.69-4.35,5.4-7.73,12.44-6.65.21,1.67,2.13,3.83,2.13,3.83s-9.15-.67-11.28,7.88c1.53.75,3.16,1.21,4.22,0,1.1.33,2.1.42,2.77-.46.83.46,2.29.48,2.85-.39a1.93,1.93,0,0,0,2.5-.84c.85.19,2.1.15,2.56-.46-.5,2-.62,3.9-1.12,4.06s-6.58,4.5-16.79.54c-2.12-4.62-2.75-8.71-3.87-11.12a29.07,29.07,0,0,0-5.92-8.21c-3-3.08-4-4.83-3.29-9.54Z" fill="param(main_colour)"/>
  </g>
  <g id="accent-colour-1">
    <path d="M66.29,93.42A54.3,54.3,0,0,1,74.66,104a69.3,69.3,0,0,0-.62,9.5l-1.77,0-1.17-1.35a42.74,42.74,0,0,0-1.44-10,57.4,57.4,0,0,0-3.19-7.69Z" fill="param(accent_colour_1)"/>
  </g>
  <g id="fixed-colours">
    <path d="M94.49,109.9s-.48-1.33.4-1.94a2.74,2.74,0,0,1,2-.29,2.19,2.19,0,0,1,.31,1.06A3.53,3.53,0,0,0,94.49,109.9Z" fill="#fff"/>
    <path d="M94.2,110.15a2.76,2.76,0,0,0-1.77.48c-.25-.44-.4-1.58,1.5-1.5A3.9,3.9,0,0,1,94.2,110.15Z" fill="#fff"/>
    <path d="M91.87,110.69a2.25,2.25,0,0,0-1.83.58c-.15-.9.33-1.48,1.58-1.42A2.57,2.57,0,0,1,91.87,110.69Z" fill="#fff"/>
    <path d="M89.24,111.19a4.84,4.84,0,0,0-2.1.42c-.21-.4.13-1.48,1.88-1.19A2.15,2.15,0,0,1,89.24,111.19Z" fill="#fff"/>
    <path d="M85.87,111.57a3.31,3.31,0,0,0-2.17.46c-.37-.56.27-1.37,1.48-1.21A2.78,2.78,0,0,1,85.87,111.57Z" fill="#fff"/>
  </g>
  <g id="outline">
    <path d="M96.32,106.61c-3.75-2-4.09-3-5.28-5.94a35.76,35.76,0,0,0-4.37-8.56c-2-2.62-4.06-4.81-4.81-8.5s-.09-6.49-.12-8.15h0a6.77,6.77,0,0,0,0-.87s0,0,0-.07h0a6.76,6.76,0,0,0-6.27-6.25h0a6.76,6.76,0,0,0-7.19,6.29c-.08,1.08.52,3.52,0,5.47s-1.72,3.05-2.62,5c-.83,1.81-1.63,5.6-.2,8.09a6,6,0,0,0,.81,2.3,41.15,41.15,0,0,1,3.25,7.87,42.9,42.9,0,0,1,1.33,9,12.61,12.61,0,0,0,1.42,1.63l2.08-.08a61.2,61.2,0,0,1,.44-8c1.26,3.68,2,8.18,3.37,10,4,2.06,12.44,2.84,17.69-.66a44.42,44.42,0,0,0,1.25-4.56A2.39,2.39,0,0,0,96.32,106.61Zm.83,2a4.78,4.78,0,0,0-2.5.92c-.09-.34-.18-1.15.4-1.48a2.38,2.38,0,0,1,1.78-.25,1.89,1.89,0,0,1,.32.77S97.14,108.59,97.14,108.61ZM91.55,110a1.3,1.3,0,0,1,.14.54,2.77,2.77,0,0,0-1.6.61A1.25,1.25,0,0,1,91.55,110Zm.87.8A5.53,5.53,0,0,1,94,110.3a3,3,0,0,1-.07.53,1.48,1.48,0,0,1-1.82,1.28A3.27,3.27,0,0,0,92.43,110.76ZM94,110a3,3,0,0,0-1.46.44c-.18-.45-.14-1.12,1.25-1.15A2,2,0,0,1,94,110Zm2.49-2.54a2.9,2.9,0,0,0-1.67.39,1.19,1.19,0,0,0-.59,1c-.61-.83-3.17-1.39-3.94-2.69A4.43,4.43,0,0,0,92.22,108a3.48,3.48,0,0,1,1.33.94,1.67,1.67,0,0,0-1.27.53,1,1,0,0,0-.12.24,3.55,3.55,0,0,0-2-1.17,4.71,4.71,0,0,1-2.36-1.79,3.36,3.36,0,0,0,1.64,2,5.86,5.86,0,0,1,1.87,1c-1.44.14-1.58.94-1.38,1.72a2.77,2.77,0,0,1,1.76-.58c0,.09,0,.17,0,.27a2,2,0,0,1-2.44,1.59,2.28,2.28,0,0,0,.26-2c-.37-.91-1.37-1.07-2.34-1.44a5.72,5.72,0,0,1-2-1.11,10.84,10.84,0,0,1,8-2.34A28.88,28.88,0,0,1,96.48,107.44Zm-13.32,3c.07-.11.14-.2.21-.3.41.21.86.4,1.32.6-1.2.08-1.42.94-1.07,1.52a2.47,2.47,0,0,1,2.12-.5,1.09,1.09,0,0,1-.48,1.53,4.41,4.41,0,0,1-3.15-.4A16.66,16.66,0,0,1,83.16,110.39Zm1.94.52a1.79,1.79,0,0,1,.49.51,2.42,2.42,0,0,0-1.8.41C83.7,111,84.53,110.9,85.1,110.91Zm1.25.61A3.17,3.17,0,0,0,84.22,110l-.62-.21A9.89,9.89,0,0,1,85,108.24,6.66,6.66,0,0,0,88.13,110a1.18,1.18,0,0,1,.56.31c-1.2-.11-2,.49-1.62,1.47a4.52,4.52,0,0,1,2.05-.44,1.46,1.46,0,0,1-.46,1.07,3.2,3.2,0,0,1-2.3.56A1.94,1.94,0,0,0,86.35,111.53Zm2.53-1a1.44,1.44,0,0,1,.21.52,5.09,5.09,0,0,0-1.82.38C87.22,110.47,88.34,110.47,88.88,110.53Zm3.3-5.45a9.8,9.8,0,0,0-6.67,1.81,9.54,9.54,0,0,0-4,5.57,4.52,4.52,0,0,1-.56-.48,11.78,11.78,0,0,1-2-3.8c2.3-6.77,9.05-6.81,11.18-6.65A9.24,9.24,0,0,0,92.17,105.08ZM70.26,74.68a4.75,4.75,0,0,1,5.05-4.42h0a4.74,4.74,0,0,1,4.41,4.86c-.07,2-.32,5.8.43,8.68a16.89,16.89,0,0,0,3.5,6.94,39.06,39.06,0,0,1,5.19,7.88c.4.83.72,1.64,1,2.42-7.94-.73-10.73,4.43-11.4,6.08-.41-1-.85-2.18-1.37-3.37-1.62-3.67-5.33-7.71-7-11a12.13,12.13,0,0,1-.87-8.12A36.16,36.16,0,0,0,70,80.26a7.6,7.6,0,0,0,.29-1.65C70.37,77.31,70.26,74.68,70.26,74.68Zm1.13,37.47a42.57,42.57,0,0,0-1-8.71c-.72-2.41-2.4-6-3.2-8.2,1.4,1.51,3.14,3.25,4.63,5.18a95.46,95.46,0,0,1,.44,12.68Zm2.38,1c-.39,0-.76.07-1,.08l-.23-11.87a18.21,18.21,0,0,1,1.22,2c.14.27.27.56.4.85A74.79,74.79,0,0,0,73.77,113.19Zm21.38,1.46c-2.87,1.88-11.25,3.21-16.12.5-1.46-3-2.42-7.25-3-9a27,27,0,0,0-4.25-7.33c-2-2.29-5.46-6.21-5.62-8.46a9.2,9.2,0,0,1,1.83-6,12.8,12.8,0,0,0,1-1.62,25,25,0,0,0-.71,5.91c.13,3.46,2.21,6.46,4.25,9.08a33,33,0,0,1,4.63,7.67,26.8,26.8,0,0,0,2.71,6.25c1.42,2.13,3.38,2.79,5,2.46a2.31,2.31,0,0,0,1-.47,3.82,3.82,0,0,0,2.61-.25,1.85,1.85,0,0,0,.27-.17,3.44,3.44,0,0,0,2.07,0,2.37,2.37,0,0,0,.88-.55,2.44,2.44,0,0,0,2.12-.57,2.74,2.74,0,0,0,.29-.35,2.69,2.69,0,0,0,1.82-.14A22.29,22.29,0,0,1,95.14,114.65Zm1.6-4.35-.3.34-.07.06-.15.13-.07.05a4,4,0,0,1-1.76.36,3,3,0,0,0,.22-1.25,3.74,3.74,0,0,1,2.55-1.05A2.17,2.17,0,0,1,96.74,110.3Z"/>
  </g>
<script type="text/ecmascript" xlink:href="param.min.js"/> 
</svg>
