<?xml version="1.0"?>
<svg xmlns="http://www.w3.org/2000/svg" xmlns:xlink="http://www.w3.org/1999/xlink" viewBox="0 0 600 600">
  <title>OA000-default-bottoms-slender</title>
  <g id="skin-tone">
    <path d="M325.23,338.24a41,41,0,0,1-2.29-14c-.17-8.42,1.82-20.63,3.91-27.88,1-3.64,2.7-8.3,4.18-13.53a7.43,7.43,0,0,0,2.24-1.45,20.42,20.42,0,0,0,7.57-14.89c.4-6.72-2.81-11.06-7.33-17.38-.83-1.16-1.56-2.25-2.21-3.27l-.59.18-.38-1a10.82,10.82,0,0,0-4.81-16.9v-.27a11.12,11.12,0,0,0-9.24.73,3.12,3.12,0,0,0-1.56-.2,12,12,0,0,1-8.28-8.84,73.66,73.66,0,0,1-1.49-11.94c-1.86.14-3.74.22-5.64.22q-2.61,0-5.17-.18c-.13,2.22-.56,8.42-1.37,10.5-1,2.56-3.33,9-10.86,10.75-7.45-6.36-19.55-1.14-20,7.95s6,12.33,9.33,13.42c-1.25,5.92,1.33,21,3.17,27.5s6.92,19.67,9.08,28.08c1.88,7.3-1.38,16.79-7,27.28l.45.37s-3.87,6.63-6.12,10.13A57.86,57.86,0,0,0,262.14,370a24.81,24.81,0,0,0,2.68,13,24,24,0,0,0,39.09,6.26,24,24,0,0,0,29.29-23.41h0c.56-3.27-.43-10.1-2.18-13.23a140.8,140.8,0,0,1-6.12-14Z" fill="param(skin_tone)"/>
  </g>
  <g id="main-colour">
    <path d="M273,339.57s15.58,6.83,24.5,8.83c9.68,2.17,15.58,2,20.58.25,1.67-.59,4.92-3.17,7.17-6.92a13.66,13.66,0,0,1,1.92,2.92,61.37,61.37,0,0,0-5.83,8.83c-1.75,3.67-2.67,10-3.92,15.75s-2.92,11.67-7.83,12.5A27,27,0,0,0,308,361.07c-3.05-6.59-10.09-11.26-16.92-12.5-9.57-1.74-19.68,2.48-26.25,10.75C264.63,352.15,271,343.9,273,339.57Z" fill="param(main_colour)"/>
  </g>
  <g id="outline">
    <path d="M260.51,372.76a57.69,57.69,0,0,1,5.42-22.38c5.5-11.83,18.62-28.5,16.79-41.33s-9-25.33-11.46-40.33a112.55,112.55,0,0,1-1.33-18.33h2.55s-.81,12,1.8,22.5,7.29,21.16,9.46,29.28,2.31,11.42-.46,19.63c-3.12,9.25-11.43,22.1-14.18,27.47s-6.83,15.88-6.58,23.5C262,373.5,260.51,372.76,260.51,372.76Z"/>
    <path d="M324.47,318.79c1-11.72,5.23-25.16,8.13-37.27a14.84,14.84,0,0,1-2.81,1.72c-5.92,20.79-10.18,35.49-7.32,50.47,2.62,12,10.25,18.83,10.73,32.17.5-2,1.62-8.25-4.23-20.25C326,339.5,323.16,333.7,324.47,318.79Z"/>
    <path d="M309.07,381a24,24,0,0,1-46.56-8.22s-.43-5.55,3.16-15.53a26,26,0,1,0,45.66,23.29A13.75,13.75,0,0,1,309.07,381Z"/>
    <path d="M311.33,380.5l0-.06Z"/>
    <path d="M310.83,317.93s-5.07,8.72-2.58,9.44c1,.2,1.7-1.44.9-3.34A29,29,0,0,1,310.83,317.93Z"/>
    <path d="M278.46,228.15s3,1.65,6,3.31,7.83,2.25,12.5,1.42c-3.92,0-10.23-.88-14.74-4.73A7.09,7.09,0,0,0,278.46,228.15Z"/>
    <path d="M293.57,207.64c0,1.77-.57,18.2-12,20.18-.18,1.23,1.49,1.9,1.49,1.9s11.68-2.25,12.15-22Z"/>
    <path d="M316.63,228.44a26.5,26.5,0,0,1-10.12,3.19c3.75-1.17,9.06-5.28,10.12-5.39,1.88-.86,6.31-.86,8.89,1.64a11.26,11.26,0,0,0-8.35.33Z"/>
    <path d="M306,207.56l-1.48.12a41.37,41.37,0,0,0,1.15,11.62c1.67,7.92,8.08,9.64,8.08,9.64a3.06,3.06,0,0,0,1.42-1.05C306.62,225,306.51,215.58,306,207.56Z"/>
    <path d="M311.12,230.57s2-.85,6.2-2.46"/>
    <path d="M272.45,249.51h0a11.2,11.2,0,1,1,7.7-20.44h0c2.33,1.28,5.19,2.79,5.32,2.86a13.2,13.2,0,1,0-13,19.6C272.49,251,272.45,249.51,272.45,249.51Z"/>
    <path d="M327.9,240.25s1.52,4.77,6.4,11.64c5.49,7.73,6.14,15.88,2.57,23A17.62,17.62,0,0,1,326,284.25c6.58.46,12.62-5.83,14.87-14.37,1.25-4.72.75-10.27-3.51-16.25C333.81,248.64,330.75,246,327.9,240.25Z"/>
    <path d="M310.51,281.38c8.45-8.41,8.85-22.58-1.76-33.75,0,0,9.63,13.92,4.21,26.35a19.34,19.34,0,0,1-20.8,11.25h0S303.23,288.63,310.51,281.38Z"/>
    <path d="M325.33,340.9A16.61,16.61,0,0,1,312,349.48c-8.11.53-15.67-2-22.75-4.17-6.88-2.12-15.83-7-15.83-7L265,353.07l-1.25,9.46s10.75-19.87,32.25-11.75c11.95,4.51,14.13,16.13,14.38,20.38s-.79,9.38-1.92,11.5c3.29.42,5.92-2.87,7.38-5.87,2.38-4.92,3.26-16.81,6-22.75s4.63-7.75,5.88-9.12A26.83,26.83,0,0,1,325.33,340.9ZM318,362c-1.12,5.75-2.12,17.25-7.37,18.75,1.75-6.62.73-13.28-1.37-19-3.17-8.62-24.5-25.46-44.5-3,1.58-8.25,6.83-16.25,8.92-18.17,0,0,23.75,9.58,33,10.08,5.31.29,13.54,1.17,19.21-8.42.22.71.64,1.87.78,2.29C321.32,351.65,319,356.82,318,362Z"/>
  </g>
<script type="text/ecmascript" xlink:href="param.min.js"/> 
</svg>
