<?xml version="1.0"?>
<svg xmlns="http://www.w3.org/2000/svg" xmlns:xlink="http://www.w3.org/1999/xlink" viewBox="0 0 215 215">
  <title>midi-crew-neck-baggy-t-shirt-slender</title>
  <g id="skin-tone">
    <path d="M96.83,133.89c.25,3.33.53,6.82.86,10.4,1.8,19.59,5.19,38.23,6.46,43.39h0a5.31,5.31,0,0,0,10.59-.55s.15-13.1,1.06-27c.52-8,1.29-17.83,1.93-25.78A56.44,56.44,0,0,0,96.83,133.89Z" fill="param(skin_tone)"/>
  </g>
  <g id="main-colour">
    <path d="M94.41,119.3c-.25,2-2.19,13.19-3.56,15.77.79.92,5.78,2.84,5.9,2.84s0-2.83-.09-4a33.35,33.35,0,0,1,10.37-.81,59.83,59.83,0,0,1,10.81,1.44l-.25,3.88s4.06-1.87,4.81-2.87c-.92-1.37-2.87-25.15-3.12-27.06l-.61-1.66a11.19,11.19,0,0,0-22.38.6l-.89.37Z" fill="param(main_colour)"/>
  </g>
  <g id="outline">
    <path d="M123.06,135.89c-.58-3.9-2.87-21.64-2.89-23.46h0c-.08-1.19-.11-2-.11-2h0c-.34-3.47-1.18-4.5-1.5-4.76a11.19,11.19,0,0,1,.14,1.62c0,.8,0,2-.06,3.15h0c0,.44.06,1.14.11,2,0,0,1.75,16.79,2.51,22.15a58.51,58.51,0,0,0-29.08-.38c2.79-9.2,4-21.76,4-21.76.1-.87.18-1.73.22-2.53h0c-.05-1.39-.08-2.45-.08-2.45a11.2,11.2,0,0,1,.14-1.73l-.08,0a4.53,4.53,0,0,0-1.95,4.15s-.1,1-.3,2.53c0,0-1.34,14.4-4,23.08.82,1.13,4.73,2.7,6.1,3.23.27,3.42.57,6.87.9,10.19a345.37,345.37,0,0,0,6.26,39.24,6.16,6.16,0,0,0,.2.86h0a6.21,6.21,0,0,0,12.13-1.91c0-7.87,1.67-35.35,2.73-48.41C119.82,138,122.26,136.81,123.06,135.89Zm-30.46-.52q1.61-.44,3.26-.73.08,1.11.17,2.23A32.86,32.86,0,0,1,92.6,135.37Zm21.91,32.17c-.26,5.43-.51,11.34-.67,15.24,0,2.32-.18,4.36-.18,4.36a4.2,4.2,0,0,1-8,1.78l-.07-.16c-.43-1.13-1.35-4.89-1.35-4.89-1.78-8-4-23-5.32-34.72-.47-4.31-.88-9.52-1.22-14.78a67.39,67.39,0,0,1,19.21.61C115.85,148.55,114.73,162.95,114.51,167.54Zm4.13-31.8,0-.45c1,.18,1.75.35,2.31.48a15.92,15.92,0,0,1-2.46,1.27C118.56,136.58,118.6,136.14,118.64,135.73Z"/>
  </g>
<script type="text/ecmascript" xlink:href="param.min.js"/> 
</svg>
