<?xml version="1.0"?>
<svg xmlns="http://www.w3.org/2000/svg" xmlns:xlink="http://www.w3.org/1999/xlink" viewBox="0 0 150 150">
  <title>BT002_OA011</title>
  <g id="skin-tone">
    <path d="M80.51,75.42c0-2.64-2.43-5.71-5.05-5.91a5.93,5.93,0,0,0-6,4.25c-.53,2.51-.62,4.79-1.48,6,3.77,1.07,7.93,3.09,5.81,7.81,2.14,1.61,3.56,3.16,4.81,3s3.6-3.88,3.85-6.38C80.94,81.35,80.51,75.42,80.51,75.42Z" fill="param(skin_tone)"/>
  </g>
  <g id="main-colour">
    <path d="M81.53,80.47a3.55,3.55,0,0,1,3.8,2.72,6,6,0,0,1-.61,5.15s2.22,3.16-.05,5.91-4.5,2.89-7.8,3.71-4.1,1.07-6,4-5.11,5.51-7.33,6.16c-3-2.75-4.06-5.31-3-7.54a16,16,0,0,0-10.85-4A17.32,17.32,0,0,0,59.76,89c2.54-4.12,2.49-6.75,3.78-8.19s3.18-1.91,6.42-.47,5.48,2.9,3.81,7.14c1.81,1.12,3.3,2.47,4,2.94s2.31-.59,3.15-2.12a20.82,20.82,0,0,0,1.44-4.57Z" fill="param(main_colour)"/>
  </g>
  <g id="accent-colour-1">
    <path d="M84.66,94.25a5,5,0,0,1-3.11,2.33c-2.26.59-7.2,1.23-8.63,3.13s-6.14,7.44-9.25,8.38c-2.54-1.74-4.23-5.06-3.16-7.5-4-3-9-4.36-11-3.75S44.65,100,46,103.39c-.91,1.11-2.08,3.59.74,6.33s10.9,3.28,14.86,2.71,7.69-3.66,10.17-7,4.94-3.93,7.21-4,6.16-1.78,6.24-4.19Z" fill="param(accent_colour_1)"/>
    <path d="M57.92,96.21a21,21,0,0,0-4-1.34c-.35-.08-.69-.41.08-1s3-.84,6.09,1,3.47,4.23,2.77,4.64S59.81,97,57.92,96.21Z" fill="param(accent_colour_1)"/>
    <path d="M61.09,93.06a10,10,0,0,0-4.58-.85c-.8-.7.15-1.6,2.06-1.76a9.15,9.15,0,0,1,7.1,3.3c1.62,2.28.76,3.29.16,3.09S62.94,93.82,61.09,93.06Z" fill="param(accent_colour_1)"/>
    <path d="M70,93.55c.57-.29.73-2.05-.88-3.82s-4.83-4-7.75-3.44c-1.73.38-1.85,1.15-1.44,1.9a6.52,6.52,0,0,1,5.67,1.16C67.9,90.87,68.45,94.31,70,93.55Z" fill="param(accent_colour_1)"/>
  </g>
  <g id="fixed-colours">
    <path d="M70.48,92.26a1.19,1.19,0,0,1,1.16.4c.46.58.09,1.82-1,2.35s-3.19-.14-2-1.93a1.33,1.33,0,0,0,1.63.32Z" fill="#a7a9ac"/>
    <path d="M66.48,95.53s1.18-.29,1.48.27a2,2,0,0,1-1,2.31c-1,.5-2.77.4-1.68-1.68C65.78,97,66.79,96.94,66.48,95.53Z" fill="#a7a9ac"/>
    <path d="M63.3,98.64a1.12,1.12,0,0,1,1.32.34c.45.69-.33,1.79-1.29,2.14s-2-.27-1.19-1.6a1,1,0,0,0,1.09-.15Z" fill="#a7a9ac"/>
  </g>
  <g id="outline">
    <path d="M45.3,109.29c1.81,2,8,5.65,15.62,4.43s10-5.15,11.4-7.67,5.16-3.26,7.49-3.77,5.18-1.79,6.12-4.34a5.35,5.35,0,0,0-.3-4.2,6.68,6.68,0,0,0,.54-1.42,5.23,5.23,0,0,0-.77-4.47,6.81,6.81,0,0,0,.81-4.25A4.31,4.31,0,0,0,82,79.68a7.75,7.75,0,0,1-.42-3.14h0l0-.15h0c0-.27.08-.53.11-.83a6.76,6.76,0,0,0-6.19-7.27h0a6.76,6.76,0,0,0-7.26,6.19,9.56,9.56,0,0,0,0,2.8c.13.69.27,1.38-.17,1.76-2.47-.47-3.94.24-4.94,1.25s-1,1.62-2.14,5.45a4.56,4.56,0,0,0-1.37.57c-1.07.68-.41,1.94-.14,2.36q-.53.77-1.14,1.49a5.15,5.15,0,0,0-1.29.17,1.53,1.53,0,0,0-1,2.27l-.62.56a4.19,4.19,0,0,0-.54,0,2.26,2.26,0,0,0-2,1.74c-1.4.63-2.17.27-4.53,1.45a6.22,6.22,0,0,0-3.53,5.16,8.37,8.37,0,0,0,0,1.45A5.27,5.27,0,0,0,45.3,109.29Zm4.35-12.08c4.42-.83,9,2.43,10.38,3.46A6.06,6.06,0,0,0,60,104a9.93,9.93,0,0,0,2.67,4c-.42.14-.85.28-1.31.39a16,16,0,0,1-12.45-2.18c-2.82-1.92-3.62-3.95-1.94-6.75A4.77,4.77,0,0,1,49.65,97.22Zm8.82-.35A11.74,11.74,0,0,1,60.9,99a5.32,5.32,0,0,0-.67,1.15,13.09,13.09,0,0,0-8.31-3.58A8.07,8.07,0,0,0,53,96.05a11.22,11.22,0,0,0,1.21-.75A12.52,12.52,0,0,1,58.47,96.87ZM57.15,94a10.17,10.17,0,0,1,5.3,3.73c.58,1,.54,2-.38,1.36s-3-3.59-8.24-4.66C53.84,94.42,54.62,93.32,57.15,94Zm5,6.06a1.47,1.47,0,0,0,.32.14.36.36,0,0,0,.45.35c.86-.16,1.13-.58,1.16-1,0-.3-.23-.38-.41-.4a1.7,1.7,0,0,0,0-.31.86.86,0,0,1,.79.31c.33.39,0,1.1-.64,1.57C63,101.26,61.71,100.93,62.16,100ZM62.09,94a10.37,10.37,0,0,1,1.85,1.67l-1.17,1.26a10.83,10.83,0,0,0-1.42-1.49,10,10,0,0,0-4.7-2.22l.63-.64A8.31,8.31,0,0,1,62.09,94Zm.52-2.23a6.4,6.4,0,0,1,3.54,3.52c.11.55.18,1.63-.62,1s-2-2.62-4.5-3.59a11.11,11.11,0,0,0-4.33-.84.63.63,0,0,1,.37-.74A8,8,0,0,1,62.61,91.75ZM67,95.65a.87.87,0,0,1,.75.22A1.63,1.63,0,0,1,67,97.82a1.37,1.37,0,0,1-1.76.09,1,1,0,0,1-.09-.91,1.63,1.63,0,0,0,.37.28c0,.24.09.5.63.4a1.38,1.38,0,0,0,1.23-1.27c0-.35-.2-.39-.37-.37A3.09,3.09,0,0,0,67,95.65Zm-1-5.52a6.61,6.61,0,0,1,1.42,1.62L65.9,93.49a9.12,9.12,0,0,0-3.08-2.41,10.08,10.08,0,0,0-3.27-.89,15.88,15.88,0,0,0,1.2-1.62C63.3,88.12,64.48,88.92,66,90.13Zm-4.15-3.68c2.18-.29,5.49,1.86,6.66,3.15s2.07,3.09,1.38,3.58-1.19-.52-1.73-1.49-3.73-5.12-8.26-3.89C59.91,87.8,59.69,86.74,61.87,86.45Zm6.75,7.14a1.3,1.3,0,0,0,.42.34c0,.21,0,.44.46.46A1.42,1.42,0,0,0,71,93.53a.43.43,0,0,0-.23-.57,2,2,0,0,0,.06-.46.88.88,0,0,1,.7.53,1.45,1.45,0,0,1-.88,1.68,1.56,1.56,0,0,1-2.06-.29A.81.81,0,0,1,68.62,93.59ZM66.9,80.17a12.2,12.2,0,0,1,6.47,3.33c.71.89.36,2.5.11,3.33h0c-1.87-.45-2.68.73-4,2.51A9.44,9.44,0,0,0,66,86.58a9.08,9.08,0,0,0-3.68-1,10.13,10.13,0,0,0,.74-2.32A3.48,3.48,0,0,1,66.9,80.17Zm12.83-4.79a15.43,15.43,0,0,0,1.89,9.54c-.64,2.77-2.18,5.15-3.66,4.8C76.73,89.43,76,88,74.45,87.2a5.64,5.64,0,0,0,.4-3.35c-.59-2-2.63-3.47-4.87-4.26a1.8,1.8,0,0,0,.45-1.76,15.18,15.18,0,0,1-.16-3.2,4.75,4.75,0,0,1,5.11-4.36h0A4.75,4.75,0,0,1,79.73,75.38Zm4.81,13.89c.51.85.62,2.11-.26,4.11-1.08,2.46-4.43,3.35-8,4.11S71.76,100,70.18,102c-1.33,1.64-3.14,4.23-6.63,5.72-2.14-1.89-3.12-4.57-2.72-6.41a5.17,5.17,0,0,1,.75-1.65l.25.21c-.18.34-.39.91.05,1.28a1.68,1.68,0,0,0,2.22-.06c.84-.58,1.2-1.91.55-2.45a1.21,1.21,0,0,0-1.07-.25,3.8,3.8,0,0,0-.37-.78c.4-.44.82-.88,1.24-1.32l.46.51A1.22,1.22,0,0,0,65,98.28a2,2,0,0,0,2.29,0c.41-.28,1.65-1.7.78-2.77a1.39,1.39,0,0,0-1.16-.28,4.27,4.27,0,0,0-.49-1.07c.49-.55,1-1.12,1.48-1.71l.41.68a1.33,1.33,0,0,0-.08,1.65,2.17,2.17,0,0,0,2.7.37c.69-.33,1.54-1.65,1-2.52A1.24,1.24,0,0,0,70.78,92a6.1,6.1,0,0,0-.88-2c.54-.64,1-1.2,1.45-1.59,1.38-1.32,2.53-.23,3.57.71s2.78,2.42,3.82,2.42,4.3-4.64,4.45-8.47a5.26,5.26,0,0,1-.87-1.78,3.34,3.34,0,0,1,2.25,1.89c1.14,2.19-1.6,8-3.86,9.4A10.7,10.7,0,0,0,84.54,89.27ZM45.84,105a14,14,0,0,0,2.73,2.48c4,3,11.3,3,14.93,1.45s6.79-5.37,8.48-7.7,4.64-2.64,7.73-3.4a10.61,10.61,0,0,0,4.29-2c.6,3.67-4.69,4.47-8,5.26-3.46.85-3.92,2.82-6.88,6S63,111.38,58,111.72s-9.74-1.69-11.34-3.4A3.45,3.45,0,0,1,45.84,105Z"/>
  </g>
<script type="text/ecmascript" xlink:href="param.min.js"/> 
</svg>
