<?xml version="1.0"?>
<svg xmlns="http://www.w3.org/2000/svg" xmlns:xlink="http://www.w3.org/1999/xlink" viewBox="0 0 600 600">
  <title>OA000-default-bottoms-hourglass</title>
  <g id="skin-tone">
    <path d="M324.81,336.57c-4.1-5.85-5.17-8.93-4.76-14.14s4.92-13.67,8.5-19.67A57.44,57.44,0,0,0,333.62,290l-.39.11,1-6.84a23.16,23.16,0,0,0,6.54-13.88c.75-8.53-1.83-12.21-3.25-14.29l-4-5.92-.48.35-.62-1.55a11.64,11.64,0,0,0-11.8-19.68v-.38c-10.71-2.26-13.38-13.35-14.21-20.26-2.16.19-4.35.31-6.56.31s-4.42-.12-6.6-.31a26.62,26.62,0,0,1-3.55,11c-3.25,5.75-8.25,8.42-14.42,10.25-5.33-2.17-11.92-4-16.83-1.17s-7.33,8-6.42,14S257.88,251,263,252.18c-.08,8.08,1.5,22.33,4.83,29.25s9.33,14.42,11.92,17.92,4.42,9.42,2.92,18.08c-.68,3.92-3.19,8-6.13,11.66l.14.31c-4,4.67-12.17,10-18.41,19.32s-5.59,22.44-5.59,22.44h0s0,.07,0,.1a25.5,25.5,0,0,0,45.14,16.26,25.51,25.51,0,0,0,37.88-30.14c-.49-7.77-10.86-20.7-10.86-20.7Z" fill="param(skin_tone)"/>
  </g>
  <g id="main-colour">
    <path d="M269.89,336.32s6.72,4.54,27,12c7.71,2.83,13.58,4.08,17,3.08,4.32-1.28,10.29-5.33,14-10.33.83,1.25,1.79,2.8,3.07,4.46-5.5,2.25-11.28,9.13-13.66,14.88s-3.75,14.75-7.37,19.75-9.5,7.5-11,7.63a28.42,28.42,0,0,0,5-22.75c-.42-1.86-4.22-13.84-18.62-18.54-12.5-4.08-24.09,3.25-30.75,12.58C256.64,349.65,265.64,341.07,269.89,336.32Z" fill="param(main_colour)"/>
  </g>
  <g id="outline">
    <path d="M307.66,333.57c1.05,0,1.45-1.69.36-3.44a29,29,0,0,1,.69-6.29S305.09,333.26,307.66,333.57Z"/>
    <path d="M316.56,227.78c-.27.19-.54.39-.8.6a45.79,45.79,0,0,1-4.92,2.38l3.08-.58a33.59,33.59,0,0,0,4.13-1c2.86-1.07,5.16-3.73,11-2.15-2.08-1.37-5.25-2.7-10.34-.47a13.57,13.57,0,0,1-8.33-7.28,32.56,32.56,0,0,1-2.86-11.7c-.75.08-1.51.13-2.26.18.29,3.66,1.23,10.58,4.2,14.44C312.57,226.21,315.34,227.42,316.56,227.78Z"/>
    <path d="M325.94,339.34c4,5.68,8.79,13.18,10.69,17.75,0,0-.75-5.5-6.92-14.67s-9.83-13-8.92-20.08c.77-5.92,5.19-13.63,8.09-18.78h0c3.86-6.1,6.12-14.61,6.59-20.37A25.13,25.13,0,0,0,342,271.72a21,21,0,0,0-4.32-18.28c-4.63-5.72-9.9-12.34-11.9-17a85,85,0,0,0,8.51,15.42c6.27,8.92,7,17.79,3,25.75a20.31,20.31,0,0,1-12.82,10.3,13.24,13.24,0,0,0,8.34-2.53,46.08,46.08,0,0,1-5.64,17.89c-4.42,7.33-7.08,13.75-8,18.75-.83,4.54.95,9.2,3,12.28Zm-28,48.18-.05,0a25.48,25.48,0,0,1-45.15-16.23,25.7,25.7,0,0,1,.21-3.25h0s-.44-4.85,2.92-12.72a42.13,42.13,0,0,1,7.45-11c2.18-2.33,7.39-7.09,11.86-12l3.83-4.59a27.78,27.78,0,0,0,2.64-4.12c3.5-7,4.25-17,0-23.33s-7.83-9.08-12.75-19.17c-4.23-8.68-4.67-23.75-4.71-27.77,0-.41,0-1.11-.1-2a12,12,0,0,1,.54-24,7.81,7.81,0,0,1,2,.18,12,12,0,0,1,1.62.38,68.27,68.27,0,0,1,7.12,2.48,71.52,71.52,0,0,0,8.34,2.35,45.44,45.44,0,0,0,15.17.32c-7.64.23-15.54-1.92-20.85-3.88a21.35,21.35,0,0,0,11.69-8.45,27.22,27.22,0,0,0,4.47-12.86c-.71-.05-1.42-.1-2.12-.17a23.65,23.65,0,0,1-5.85,14.28,19.43,19.43,0,0,1-11.63,5.88,47.82,47.82,0,0,0-5.16-1.64A14,14,0,1,0,262.13,253c0,.18-.55,6.82,1.83,18.9,2.42,12.25,8.83,20,14.25,26.83s5.17,17.5.67,25.58-17.5,15.75-23.42,27.83a41.22,41.22,0,0,0-4.07,13,27.47,27.47,0,0,0,47.5,24.11Zm25-52.28c.71.91,1.49,2,2.31,3.12"/>
    <path d="M306.79,247.58s9.65,13.53,3.93,27.84c-3.67,9.18-13.9,13.54-23.63,12.78h0s11.28,3.25,20.29-4.18S318.83,259.73,306.79,247.58Z"/>
    <path d="M327.39,340.82a32.25,32.25,0,0,1-9,7.71c-7,4-11.37,2.89-18.12.46-7.42-2.67-21.08-7.67-29.33-13.08a40.7,40.7,0,0,0-17.5,25.92s8.75-16,24.17-15.92A25.73,25.73,0,0,1,303,365.57c1.67,7.17-.08,17.33-7,24,3.08-.08,9.75-1.67,15-9.17,3.5-5,4.43-14.45,8.67-22.83,5.33-10.54,11.67-11.08,11.67-11.08Zm-17.08,36.92c-1.86,3.45-4.33,7-9.46,8.54,5.13-7.75,6.63-17.75,1.38-27.25a28.77,28.77,0,0,0-27.5-14.12C262.22,346,256,356.4,256,356.4c.67-5.17,10.58-16,13.92-19,17.92,8.5,26.83,11.67,30.17,12.83,6,2.11,12,3.5,17.5.08,2.21-1.37,6.95-3.71,10.45-8.29.5.67,1.31,2,2.22,3.29C317,350.59,313.81,371.23,310.31,377.73Z"/>
  </g>
<script type="text/ecmascript" xlink:href="param.min.js"/> 
</svg>
