<?xml version="1.0"?>
<svg xmlns="http://www.w3.org/2000/svg" xmlns:xlink="http://www.w3.org/1999/xlink" viewBox="0 0 600 600">
  <title>hourglass-top-template</title>
  <g id="main-colour">
    <path d="M263.84,265.88a30.16,30.16,0,0,1,7.5-4.67c5.17-7.67,20.55-12,29.42-11.67,17.83.67,27,8.83,27,8.83s7.67-13,19.5-7.83c10.83,10.33,9.33,37.67-14.33,41.5-1.67,6.83-4.75,11.17-6.92,14.83s-5.33,10.33-6.33,16.17,5.17,13.33,8.5,17.5,11.83,13,15.67,24.33,4.67,21,7.67,26.33,7.33,9.33,12.5,9.67c-3,7.83-12.83,17.17-12.83,17.17l4.5,2.67s-9.17,8.67-26.17,15.83a18,18,0,0,0,2,2.5s-12.5,9.67-41,9.83-46.33-14.67-46.33-14.67l4.83-4s-19.67-5-27.67-20.67c8.17-1.33,14.5-7.17,18-19.17s7.17-29.33,18.33-44,20-14.17,24.17-25.67,0-19.17-4-23.83S265.34,280.38,263.84,265.88Z" fill="param(main_colour)"/>
  </g>
  <g id="outline">
    <path d="M365.56,400c-14.75-.83-16.25-20.08-19.67-31.83s-10.67-20.83-15-25.5-10-11.83-10.25-17.58,4.33-14.67,6.75-18.75,5.28-7.75,6.44-13.5c11.33-1.5,17.08-10,19.83-16.25,3-6.83,2.5-20.08-6.08-27-10.5-3.58-16.33,2-19.75,7.75-4.58-5.58-17.32-9.75-31.08-9.08a37,37,0,0,0-26.11,12.17,52,52,0,0,0-7.77,4.92c1.42,15.92,11,28.33,13.77,31.58s5.92,7.17,5.42,16.42-4.92,13.83-9.25,17.67-11.08,7.25-17.58,17.08a99.91,99.91,0,0,0-13.42,29c-1.92,7-3.08,13.42-6.67,20.75a19.91,19.91,0,0,1-15.83,11.08c8.34,14.83,23.21,20.39,27.32,21.68-1.25,1.21-2.58,2.41-4,3.57C265.39,454.88,314,453.63,333,439q-.79-.91-1.54-1.89c3.9-1.86,20.54-10.08,26-17.23a31.23,31.23,0,0,1-4.37-2C357.38,414.34,363.28,407.27,365.56,400Zm-35.38,35.38c-6.72-9.65-10.91-23-11.79-30.71a54.6,54.6,0,0,0,11.75,34.13c-15.87,9.63-57.5,15.13-84.25-4.25,11-7.25,20-29.37,19.75-36.87a69.27,69.27,0,0,1-17.13,31c-17.65-5.35-25.7-18.13-25.7-18.13s4.58-.33,10.67-6.5,7.92-17.25,12.33-31.67,14.59-28.19,18.58-31.92c3.75-3.5,13.75-9.58,17.75-18.17a26.19,26.19,0,0,0,.75-19.83c-1.17-2.67-6.83-9.33-11.67-16.83s-6.17-19.42-6.17-19.42,3.83-3.17,6.5-4.08a39.58,39.58,0,0,1,25.86-11.25c11.54-.42,24,3,30.83,8.58,5.92-9.08,12.25-10.33,17.58-8.33,9.25,8.08,7.5,20.42,4.25,27.17-2.91,6-8,11.42-18.17,13-2.25,9.58-5,12.08-7.94,17.83s-5.42,12.5-4.92,17.25,6,11.92,7.75,13.83a122,122,0,0,1,12.75,17.67c5.25,8.83,6.17,18.83,8.58,26.92s6.33,14.42,14.33,16.92c-3,7.5-9.16,13.22-11.22,15A35.15,35.15,0,0,1,339.14,403c1.75,6.5,8.25,14.5,14.75,17.5C347,427.66,333.33,433.94,330.18,435.34Z"/>
    <path d="M278,286.35s3.42,12.07,19.24,10.72A28.38,28.38,0,0,1,278,286.35Z"/>
  </g>
<script type="text/ecmascript" xlink:href="param.min.js"/> 
</svg>
