<?xml version="1.0"?>
<svg xmlns="http://www.w3.org/2000/svg" xmlns:xlink="http://www.w3.org/1999/xlink" viewBox="0 0 250 250">
  <title>OA030-strappy-heel-slender</title>
  <g id="main-colour">
    <path d="M110.43,214.11s3.31,3,10.5.63a25.19,25.19,0,0,0,1,4.5s-4.19,3.75-11.31.31A37.81,37.81,0,0,0,110.43,214.11Z" fill="param(main_colour)"/>
  </g>
  <g id="outline">
    <path d="M121.42,213.94c-7.75,3.17-11.84-1.15-11.84-1.15a35.57,35.57,0,0,1,.63,6.94c7.63,4.13,12.29-.22,12.29-.22S121.88,216.48,121.42,213.94Zm-10.19,5.33c-.12-2.87-.25-4.5-.25-4.5s3.83,2.67,9.5.58c.54,2.58.83,3.75.83,3.75A9.46,9.46,0,0,1,111.22,219.27Z"/>
  </g>
<script type="text/ecmascript" xlink:href="param.min.js"/> 
</svg>
