<?xml version="1.0"?>
<svg xmlns="http://www.w3.org/2000/svg" xmlns:xlink="http://www.w3.org/1999/xlink" viewBox="0 0 600 600">
  <title>midi-crew-neck-baggy-t-shirt-slender</title>
  <g id="main-colour">
    <path d="M338.07,250.13c-2.61-2.27-5.1-4.56-6.7-6.05a11.19,11.19,0,0,0-15.08-15.45,3.12,3.12,0,0,0-1.56-.2l-.14-.05c1,2.93,3.76,6,2.93,10.07-1,5-10,10-22.67,3.19a22.88,22.88,0,0,1-10.78-13.38,14.27,14.27,0,0,1-2.16.69c-7.45-6.36-19.55-1.14-20,7.95s6,12.33,9.33,13.42c-1.25,5.92,1.32,21.18,2.47,27.83,1.63,9.38,4.66,20.41,6.5,28.91,3.38,15.59.78,18.59-6.39,31-7,12.12-9,16.95-11.41,26.55,2.8-1.57,8.23-3.48,16.79-2,13.38,2.38,24.5,7.25,36.5,5.25,8.9-1.48,13.33-5,16.25-9.47-.15-.46-.29-.92-.47-1.37,0,0,.6.35.6.34.08-1.37-.43-4.08-4.43-12s-4.57-12.7-4.73-21.12,1.82-20.63,3.91-27.88c.72-2.5,1.72-5.49,2.76-8.8a22.85,22.85,0,0,0,4.54-.62c7.92-2,14.75-8.42,15.25-18.5S342.48,254,338.07,250.13Z" fill="param(main_colour)"/>
  </g>
  <g id="outline">
    <path d="M314.16,358.18c.14-9.91,3.69-23.81,3.69-23.81A52,52,0,0,0,314.16,358.18Z"/>
    <path d="M267.11,359.63s6.25-3,19,1.13,23.13,5.13,27.5,4.38a89.8,89.8,0,0,1-17.5-2.18C289.61,361.45,273.86,354.75,267.11,359.63Z"/>
    <path d="M342,252.15c-6.17-3.83-14.1-11.9-14.1-11.9,1.72,3.27,9,10,13.94,14.31,7.92,6.83,7.4,18.48,3.17,23.83a24.19,24.19,0,0,1-16.27,8.68l-.24.76h0l-.12.41h0c-5.14,18.18-8.52,31.7-5.89,45.45,2,9.07,6.82,15.19,9.27,23.39-7.31,12.36-25.88,11.71-44.23,6.11-12.58-3.84-20.09-2.29-23.41-1a72.91,72.91,0,0,1,5-12.91c2.09-4.08,7.37-12.46,11.16-20.32a58.54,58.54,0,0,1-3.9,16.94c3.67-5.67,5.5-14.63,6.19-22.39a45.57,45.57,0,0,0,0-7.91v-.05h0a114.67,114.67,0,0,0-2.94-16c-.82-3.57-1.85-7.53-2.94-11.57l0,.08a154.43,154.43,0,0,1-3.2-19,89.07,89.07,0,0,1-1.05-17.53h0c0-.22,0-.58,0-.95v-.2h0c0-.46,0-.86,0-.86h0a11.2,11.2,0,1,1,7.7-20.44h0l1.56.85c.44-.09.89-.14,1.29-.21h0l.15,0,.18,0c1.64,3.77,8.21,16.25,23.37,16.25a23.47,23.47,0,0,0,3.84-.32c3.84-.64,6.44-2.3,7.73-4.94,2.07-4.23-.93-9.51-2.41-11.76.51-.26.77-.43.77-.43l.54-.24a11.26,11.26,0,0,1,8.35-.33c-2.58-2.5-7-2.5-8.89-1.64a18.37,18.37,0,0,0-3.58,2l.31.48h0l.07.09c.34.49.58.8.61.84,1.36,2,4.14,6.6,2.44,10.08-1,2-3.1,3.32-6.26,3.84-7.13,1.18-14.93-.82-19.93-6.52a31.63,31.63,0,0,1-5.13-8.25l-.21-.52-.14-.38h0c-.12-.3-.25-.64-.38-1a11.66,11.66,0,0,1-2.67.84,13.37,13.37,0,0,0-7.75-2.54A13.19,13.19,0,0,0,269.92,251a111.14,111.14,0,0,0,1.32,17.67c.32,5.91,5.47,27.76,7.92,40a71.38,71.38,0,0,1,1.36,13.86c-3.71,9.73-10.89,19.91-14.6,27.9A60.3,60.3,0,0,0,261,366.77c.65-.5,1.23-.89,1.65-1.16v0a5,5,0,0,1,.46-.31l.14-.08,0,0h0c2-1.17,8.86-4.12,22.7-.37,7.95,2.15,16.44,4.29,24.39,4.29,8.71,0,17.86-3,22.76-11.36A47,47,0,0,0,329,345.63c-3-6.13-5.8-11.93-4.5-26.84.84-9.59,3.8-20.32,6.44-30.54,8.29-.43,15.74-5.29,18.59-12.8C352.48,267.56,350.6,257.49,342,252.15Z"/>
    <path d="M311,289.76a29.19,29.19,0,0,1-21.68-4.71C294,291.6,304.17,293.63,311,289.76Z"/>
  </g>
<script type="text/ecmascript" xlink:href="param.min.js"/> 
</svg>
