<?xml version="1.0"?>
<svg xmlns="http://www.w3.org/2000/svg" xmlns:xlink="http://www.w3.org/1999/xlink" viewBox="0 0 600 600">
  <title>OA000-default-bottoms-hourglass</title>
  <g id="skin-tone">
    <path d="M347.22,262.43c-1.49-7.44-7.4-11-12.95-16l0,0-.22-.2a11.64,11.64,0,0,0-13.51-17.84v-.38c-10.71-2.26-13.38-13.35-14.21-20.26-2.16.19-4.35.31-6.56.31s-4.42-.12-6.6-.31a26.62,26.62,0,0,1-3.55,11c-3.25,5.75-8.25,8.42-14.42,10.25-5.33-2.17-11.92-4-16.83-1.17s-7.33,8-6.42,14S257.88,251,263,252.18c-.08,8.08,1.5,22.33,4.83,29.25s9.33,14.42,11.92,17.92,4.42,9.42,2.92,18.08c-.69,4-3.27,8.12-6.26,11.82l.24.18c-4,4.66-12.15,10-18.39,19.29s-5.59,22.44-5.59,22.44h0s0,.07,0,.1a25.5,25.5,0,0,0,45.14,16.26,25.51,25.51,0,0,0,37.88-30.14c-.49-7.77-10.86-20.7-10.86-20.7-4.17-5.92-5.25-9-4.83-14.25s4.92-13.67,8.5-19.67,5.75-15.33,5.75-15.33,3.42.17,8.42-5.58S348.72,269.93,347.22,262.43Z" fill="param(skin_tone)"/>
  </g>
  <g id="main-colour">
    <path d="M269.89,336.32s6.72,4.54,27,12c7.71,2.83,13.58,4.08,17,3.08,4.32-1.28,10.29-5.33,14-10.33.83,1.25,1.79,2.8,3.07,4.46-5.5,2.25-11.28,9.13-13.66,14.88s-3.75,14.75-7.37,19.75-9.5,7.5-11,7.63a28.42,28.42,0,0,0,5-22.75c-.42-1.86-4.22-13.84-18.62-18.54-12.5-4.08-24.09,3.25-30.75,12.58C256.64,349.65,265.64,341.07,269.89,336.32Z" fill="param(main_colour)"/>
  </g>
  <g id="outline">
    <path d="M307.88,327.37c1,.2,1.7-1.44.9-3.34a29,29,0,0,1,1.68-6.1S305.39,326.65,307.88,327.37Z"/>
    <path d="M316.56,227.78c-.27.19-.54.39-.8.6a45.79,45.79,0,0,1-4.92,2.38l3.08-.58a33.59,33.59,0,0,0,4.13-1l.55-.23c2.57-1,5.16-3.35,10.43-1.93h0a11,11,0,0,0-1.78-1l-.52-.2a8.8,8.8,0,0,0-3.08-.5,12.08,12.08,0,0,0-4,.81q-.45.17-.93.38a13.57,13.57,0,0,1-8.33-7.28,32.56,32.56,0,0,1-2.86-11.7c-.75.08-1.51.13-2.26.18.29,3.66,1.23,10.58,4.2,14.44C312.57,226.21,315.34,227.42,316.56,227.78Z"/>
    <path d="M325.94,339.34l2.48,3.58c1,1.5,2,3,3,4.57h0a73,73,0,0,1,5.25,9.6s-.61-4.42-5.17-11.93l-.46-.75-.35-.55c-.29-.46-.6-.93-.92-1.41v0c-6.17-9.17-9.83-13-8.92-20.08.77-5.92,5.19-13.63,8.09-18.78h0a53.87,53.87,0,0,0,6.39-15.28,13.21,13.21,0,0,0,3-1.27c5.8-3.41,11.42-10.49,11.1-19.33-.33-9.25-5.1-15-11.68-19.5s-11.92-11.75-11.92-11.75c2.17,4.83,8.75,11.42,13,14.83a21.61,21.61,0,0,1,8.08,14.67c.92,6.67-3,13.92-7.11,17.33a22.29,22.29,0,0,1-17,4.83c1.12.57,5.36,1.34,9.68.78a42.58,42.58,0,0,1-5.24,14.39c-4.42,7.33-7.08,13.75-8,18.75-.83,4.54.95,9.2,3,12.28Zm-28,48.18-.05,0a25.48,25.48,0,0,1-45.15-16.23,25.7,25.7,0,0,1,.21-3.25h0s-.44-4.85,2.92-12.72a42.67,42.67,0,0,1,3.29-5.79h0q.58-.85,1.14-1.61l0,0c.36-.49.71-.94,1.06-1.36l.05-.07c.32-.4.63-.76.93-1.1l.1-.11c.31-.35.61-.68.88-1h0c2.18-2.34,7.38-7.08,11.85-12l3.83-4.59a27.79,27.79,0,0,0,2.64-4.12c3.5-7,4.25-17,0-23.33-2.89-4.3-5.47-7-8.37-11.38h0l-.31-.49-.39-.62-.3-.48-.63-1.06-.25-.44-.57-1-.17-.31c-.24-.45-.49-.91-.74-1.39l-.2-.39c-.26-.51-.52-1-.79-1.57v0c-.18-.37-.35-.75-.52-1.14l-.12-.27c-.16-.39-.32-.79-.47-1.2v0c-.15-.41-.29-.82-.42-1.24l-.09-.29c-.14-.43-.27-.87-.39-1.32v0c-.12-.44-.24-.89-.35-1.34l-.06-.26q-.17-.7-.32-1.41v0q-.15-.71-.29-1.42l0-.21q-.14-.73-.26-1.47a110.58,110.58,0,0,1-1.35-16.11c0-.41,0-1.11-.1-2a12,12,0,0,1,.54-24,7.81,7.81,0,0,1,2,.18,12,12,0,0,1,1.62.38c1.77.48,3.7,1.16,5.1,1.69h0c1.2.45,2,.79,2,.79h0l1.12.37.08,0,1.25.4h0a58,58,0,0,0,5.87,1.55,45.44,45.44,0,0,0,15.17.32c-7.64.23-15.54-1.92-20.85-3.88a21.35,21.35,0,0,0,11.69-8.45,27.22,27.22,0,0,0,4.47-12.86c-.71-.05-1.42-.1-2.12-.17a23.65,23.65,0,0,1-5.85,14.28,18.87,18.87,0,0,1-9.93,5.57h0c-.66.15-1.24.25-1.7.31a47.82,47.82,0,0,0-5.16-1.64A14,14,0,1,0,262.13,253c0,.17-.49,6.17,1.5,17.11h0c.11.59.22,1.18.34,1.79s.3,1.42.47,2.11c.06.23.12.46.18.68.12.45.24.89.36,1.33.08.27.16.54.25.8s.24.75.36,1.12l.29.84q.18.51.38,1c.11.29.22.57.34.85s.25.6.38.9.25.58.38.86l.37.77c3,6.24,7,11.1,10.49,15.56,5.42,6.83,5.17,17.5.67,25.58a31.67,31.67,0,0,1-4.85,6.19c-.78.72-5,4.92-7.07,7-4.32,4.25-8.7,9-11.49,14.68a41.22,41.22,0,0,0-4.07,13,27.47,27.47,0,0,0,47.5,24.11Zm25-52.28c.71.91,1.49,2,2.31,3.12"/>
    <path d="M322.78,266.18c-1.35-14-15-19.5-15-19.5,16.67,11,13.08,27,9.5,33.83a25.81,25.81,0,0,1-23.58,13.64c-11.82-.27-18.92-10.39-21.25-17.39,3.75,19.5,21.75,21.58,31.75,18.17S324.13,280.18,322.78,266.18Z"/>
    <path d="M327.39,340.82a32.25,32.25,0,0,1-9,7.71c-7,4-11.37,2.89-18.12.46-7.42-2.67-21.08-7.67-29.33-13.08a40.7,40.7,0,0,0-17.5,25.92s8.75-16,24.17-15.92A25.73,25.73,0,0,1,303,365.57c1.67,7.17-.08,17.33-7,24,3.08-.08,9.75-1.67,15-9.17,3.5-5,4.43-14.45,8.67-22.83,5.33-10.54,11.67-11.08,11.67-11.08Zm-17.08,36.92c-1.86,3.45-4.33,7-9.46,8.54,5.13-7.75,6.63-17.75,1.38-27.25a28.77,28.77,0,0,0-27.5-14.12C262.22,346,256,356.4,256,356.4c.67-5.17,10.58-16,13.92-19,17.92,8.5,26.83,11.67,30.17,12.83,6,2.11,12,3.5,17.5.08,2.21-1.37,6.95-3.71,10.45-8.29.5.67,1.31,2,2.22,3.29C317,350.59,313.81,371.23,310.31,377.73Z"/>
  </g>
<script type="text/ecmascript" xlink:href="param.min.js"/> 
</svg>
