<?xml version="1.0"?>
<svg xmlns="http://www.w3.org/2000/svg" xmlns:xlink="http://www.w3.org/1999/xlink" viewBox="0 0 150 150">
  <title>BT002_OA011</title>
  <g id="skin-tone">
    <path d="M69.49,75.42c0-2.64,2.43-5.71,5.05-5.91a5.93,5.93,0,0,1,6,4.25c.53,2.51.62,4.79,1.48,6-3.77,1.07-7.93,3.09-5.81,7.81-2.14,1.61-3.56,3.16-4.81,3s-3.6-3.88-3.85-6.38C69.06,81.35,69.49,75.42,69.49,75.42Z" fill="param(skin_tone)"/>
  </g>
  <g id="main-colour">
    <path d="M68.47,80.47a3.55,3.55,0,0,0-3.8,2.72,6,6,0,0,0,.61,5.15s-2.22,3.16.05,5.91,4.5,2.89,7.8,3.71,4.1,1.07,6,4,5.11,5.51,7.33,6.16c3-2.75,4.06-5.31,3-7.54a16,16,0,0,1,10.85-4A17.32,17.32,0,0,1,90.24,89c-2.54-4.12-2.49-6.75-3.78-8.19s-3.18-1.91-6.42-.47-5.48,2.9-3.81,7.14c-1.81,1.12-3.3,2.47-4,2.94s-2.31-.59-3.15-2.12a20.82,20.82,0,0,1-1.44-4.57Z" fill="param(main_colour)"/>
  </g>
  <g id="accent-colour-1">
    <path d="M65.34,94.25a5,5,0,0,0,3.11,2.33c2.26.59,7.2,1.23,8.63,3.13s6.14,7.44,9.25,8.38c2.54-1.74,4.23-5.06,3.16-7.5,4-3,9-4.36,11-3.75s4.83,3.22,3.5,6.57c.91,1.11,2.08,3.59-.74,6.33s-10.9,3.28-14.86,2.71-7.69-3.66-10.17-7-4.94-3.93-7.21-4-6.16-1.78-6.24-4.19Z" fill="param(accent_colour_1)"/>
    <path d="M92.08,96.21a21,21,0,0,1,4-1.34c.35-.08.69-.41-.08-1s-3-.84-6.09,1-3.47,4.23-2.77,4.64S90.19,97,92.08,96.21Z" fill="param(accent_colour_1)"/>
    <path d="M88.91,93.06a10,10,0,0,1,4.58-.85c.8-.7-.15-1.6-2.06-1.76a9.15,9.15,0,0,0-7.1,3.3c-1.62,2.28-.76,3.29-.16,3.09S87.06,93.82,88.91,93.06Z" fill="param(accent_colour_1)"/>
    <path d="M80,93.55c-.57-.29-.73-2.05.88-3.82s4.83-4,7.75-3.44c1.73.38,1.85,1.15,1.44,1.9a6.52,6.52,0,0,0-5.67,1.16C82.1,90.87,81.55,94.31,80,93.55Z" fill="param(accent_colour_1)"/>
  </g>
  <g id="fixed-colours">
    <path d="M79.52,92.26a1.19,1.19,0,0,0-1.16.4c-.46.58-.09,1.82,1,2.35s3.19-.14,2-1.93a1.33,1.33,0,0,1-1.63.32Z" fill="#a7a9ac"/>
    <path d="M83.52,95.53s-1.18-.29-1.48.27a2,2,0,0,0,1,2.31c1,.5,2.77.4,1.68-1.68C84.22,97,83.21,96.94,83.52,95.53Z" fill="#a7a9ac"/>
    <path d="M86.7,98.64a1.12,1.12,0,0,0-1.32.34c-.45.69.33,1.79,1.29,2.14s2-.27,1.19-1.6a1,1,0,0,1-1.09-.15Z" fill="#a7a9ac"/>
  </g>
  <g id="outline">
    <path d="M105.08,103a8.37,8.37,0,0,0,0-1.45,6.22,6.22,0,0,0-3.53-5.16c-2.36-1.18-3.13-.82-4.53-1.45a2.26,2.26,0,0,0-2-1.74,4.19,4.19,0,0,0-.54,0l-.62-.56a1.53,1.53,0,0,0-1-2.27,5.15,5.15,0,0,0-1.29-.17q-.61-.73-1.14-1.49c.27-.42.93-1.68-.14-2.36a4.56,4.56,0,0,0-1.37-.57c-1.16-3.83-1-4.31-2.14-5.45S84.32,78.55,81.85,79c-.44-.37-.29-1.07-.17-1.76a9.56,9.56,0,0,0,0-2.8,6.76,6.76,0,0,0-7.26-6.19h0a6.76,6.76,0,0,0-6.19,7.27c0,.3.06.57.11.83h0l0,.15h0A7.75,7.75,0,0,1,68,79.68a4.31,4.31,0,0,0-4.19,3.94,6.81,6.81,0,0,0,.81,4.25,5.23,5.23,0,0,0-.77,4.47,6.68,6.68,0,0,0,.54,1.42,5.35,5.35,0,0,0-.3,4.2c.94,2.55,3.79,3.83,6.12,4.34s6.13,1.25,7.49,3.77,3.83,6.45,11.4,7.67,13.81-2.4,15.62-4.43A5.27,5.27,0,0,0,105.08,103Zm-2-3.53c1.69,2.8.88,4.83-1.94,6.75a16,16,0,0,1-12.45,2.18c-.46-.11-.89-.24-1.31-.39A9.93,9.93,0,0,0,90,104a6.06,6.06,0,0,0,0-3.29c1.33-1,6-4.29,10.38-3.46A4.77,4.77,0,0,1,103,99.47ZM95.78,95.3a11.22,11.22,0,0,0,1.21.75,8.07,8.07,0,0,0,1.09.47,13.09,13.09,0,0,0-8.31,3.58A5.32,5.32,0,0,0,89.1,99a11.74,11.74,0,0,1,2.43-2.09A12.52,12.52,0,0,1,95.78,95.3Zm.38-.88c-5.28,1.07-7.32,4-8.24,4.66s-1-.39-.38-1.36A10.17,10.17,0,0,1,92.85,94C95.38,93.32,96.16,94.42,96.16,94.42Zm-10,6.24c-.63-.47-1-1.18-.64-1.57a.86.86,0,0,1,.79-.31,1.7,1.7,0,0,0,0,.31c-.18,0-.44.1-.41.4,0,.46.3.88,1.16,1a.36.36,0,0,0,.45-.35,1.47,1.47,0,0,0,.32-.14C88.29,100.93,87,101.26,86.19,100.66Zm6.52-8.08.63.64a10,10,0,0,0-4.7,2.22,10.83,10.83,0,0,0-1.42,1.49l-1.17-1.26A10.37,10.37,0,0,1,87.91,94,8.31,8.31,0,0,1,92.71,92.57Zm.23-1.45a.63.63,0,0,1,.37.74,11.11,11.11,0,0,0-4.33.84c-2.55,1-3.7,3-4.5,3.59s-.73-.48-.62-1a6.4,6.4,0,0,1,3.54-3.52A8,8,0,0,1,92.93,91.12ZM83,96c-.17,0-.4,0-.37.37a1.38,1.38,0,0,0,1.23,1.27c.54.11.65-.15.63-.4a1.63,1.63,0,0,0,.37-.28,1,1,0,0,1-.09.91A1.37,1.37,0,0,1,83,97.82a1.63,1.63,0,0,1-.74-1.95.87.87,0,0,1,.75-.22A3.09,3.09,0,0,0,83,96Zm6.27-7.47a15.88,15.88,0,0,0,1.2,1.62,10.08,10.08,0,0,0-3.27.89,9.12,9.12,0,0,0-3.08,2.41l-1.53-1.74A6.61,6.61,0,0,1,84,90.13C85.52,88.92,86.7,88.12,89.25,88.57Zm.83-.77c-4.53-1.22-7.72,2.92-8.26,3.89s-1,2-1.73,1.49.21-2.29,1.38-3.58,4.47-3.44,6.66-3.15S90.09,87.8,90.09,87.8ZM81.4,94.42a1.56,1.56,0,0,1-2.06.29A1.45,1.45,0,0,1,78.46,93a.88.88,0,0,1,.7-.53,2,2,0,0,0,.06.46.43.43,0,0,0-.23.57,1.42,1.42,0,0,0,1.51.86c.43,0,.5-.25.46-.46a1.3,1.3,0,0,0,.42-.34A.81.81,0,0,1,81.4,94.42Zm5.51-11.16a10.13,10.13,0,0,0,.74,2.32,9.08,9.08,0,0,0-3.68,1,9.44,9.44,0,0,0-3.4,2.75c-1.35-1.78-2.16-3-4-2.51h0c-.25-.83-.61-2.44.11-3.33a12.2,12.2,0,0,1,6.47-3.33A3.48,3.48,0,0,1,86.91,83.27Zm-12.29-13h0a4.75,4.75,0,0,1,5.11,4.36,15.18,15.18,0,0,1-.16,3.2A1.8,1.8,0,0,0,80,79.59c-2.24.79-4.28,2.26-4.87,4.26a5.64,5.64,0,0,0,.4,3.35C74,88,73.27,89.43,72,89.72c-1.48.35-3-2-3.66-4.8a15.43,15.43,0,0,0,1.89-9.54A4.75,4.75,0,0,1,74.62,70.27ZM69.29,92.6c-2.27-1.36-5-7.21-3.86-9.4a3.34,3.34,0,0,1,2.25-1.89,5.26,5.26,0,0,1-.87,1.78c.15,3.83,3.41,8.47,4.45,8.47s2.78-1.49,3.82-2.42,2.19-2,3.57-.71c.41.39.91,1,1.45,1.59a6.1,6.1,0,0,0-.88,2,1.24,1.24,0,0,0-1.17.64c-.5.86.35,2.18,1,2.52a2.17,2.17,0,0,0,2.7-.37,1.33,1.33,0,0,0-.08-1.65l.41-.68c.5.59,1,1.17,1.48,1.71a4.27,4.27,0,0,0-.49,1.07,1.39,1.39,0,0,0-1.16.28c-.87,1.07.38,2.49.78,2.77a2,2,0,0,0,2.29,0,1.22,1.22,0,0,0,.07-1.53l.46-.51c.42.44.84.88,1.24,1.32a3.8,3.8,0,0,0-.37.78,1.21,1.21,0,0,0-1.07.25c-.65.54-.29,1.87.55,2.45a1.68,1.68,0,0,0,2.22.06c.44-.36.23-.94.05-1.28l.25-.21a5.17,5.17,0,0,1,.75,1.65c.4,1.84-.58,4.53-2.72,6.41-3.5-1.49-5.31-4.07-6.63-5.72-1.58-2-2.45-3.7-6.06-4.46s-7-1.65-8-4.11c-.88-2-.77-3.26-.26-4.11A10.7,10.7,0,0,0,69.29,92.6Zm34.07,15.72c-1.6,1.71-6.3,3.74-11.34,3.4s-8.21-1.44-11.17-4.64-3.42-5.17-6.88-6c-3.27-.8-8.56-1.6-8-5.26a10.61,10.61,0,0,0,4.29,2c3.09.76,6,1.07,7.73,3.4s4.84,6.14,8.48,7.7,10.88,1.54,14.93-1.45a14,14,0,0,0,2.73-2.48A3.45,3.45,0,0,1,103.35,108.32Z"/>
  </g>
<script type="text/ecmascript" xlink:href="param.min.js"/> 
</svg>
