<?xml version="1.0"?>
<svg xmlns="http://www.w3.org/2000/svg" xmlns:xlink="http://www.w3.org/1999/xlink" viewBox="0 0 150 150">
  <title>BT002_OA011</title>
  <g id="skin-tone">
    <path d="M69.75,79.5a7.39,7.39,0,0,1,.56-7.72c2-2.75,5.5-3.33,7.58-1.5s3.08,2.83,2.67,5.08S80.13,79.6,81,81s.44,3.06-1.43,2.57-3.81-1.53-5.44-.79-3.06,1.78-3.86,1S70.74,81.23,69.75,79.5Z" fill="param(skin_tone)"/>
  </g>
  <g id="main-colour">
    <path d="M84.73,94c-1.73-3.56-2.37-5.88-2.08-7.81s.35-4-1-4.75c.43,1.32-.27,2.12-1.73,2-.16-1.07-.72-2-2.6-2.34-2.54-.43-4.19,0-5.15.93a2,2,0,0,0-.44,1.82c-2.38,1.08-1.7-2.44-2-3a2.48,2.48,0,0,0-2,3.41,15.46,15.46,0,0,1,.69,7.27c-.3,2.37-3,6.48-3.71,10a6.07,6.07,0,0,0,1.5,5.57s3.65-7.06,9.58-7.5a10.07,10.07,0,0,1,10.13,6.13C88.93,102.38,86.46,97.59,84.73,94Z" fill="param(main_colour)"/>
  </g>
  <g id="accent-colour-1">
    <path d="M75.8,87.78a7.71,7.71,0,0,1,4.3,1.68c.37.54.56,1.32-.07,1.32s-1.78-.82-3-1.15a4.61,4.61,0,0,0-3.3.26c-1.15.48-1.59,1.08-2,.67s.06-1.42.94-2A5.89,5.89,0,0,1,75.8,87.78Z" fill="param(accent_colour_1)"/>
    <path d="M75.77,91.37a7.84,7.84,0,0,1,4.11,1.48c.44.44.63,1.71-.15,1.56s-2.59-1.33-4-1.15a10.52,10.52,0,0,0-3.21,1.08c-.57.29-1.64.18-.9-.93A5.18,5.18,0,0,1,75.77,91.37Z" fill="param(accent_colour_1)"/>
    <path d="M76.1,95.6a11.82,11.82,0,0,1,4.45.82c.63.37,1.22,1.19.67,1.52s-1.56-.78-5.08-.78-4.11,1.11-4.93.93-.11-1.19.48-1.48A14.4,14.4,0,0,1,76.1,95.6Z" fill="param(accent_colour_1)"/>
    <path d="M65,105.68a4.89,4.89,0,0,0,1.19,1.48c1.89-3.19,5.3-7.64,10-7.6s7.6,2.48,9.49,6.23a4.47,4.47,0,0,1,2.41,4.78c-.26,1.82-3.19,3.67-6.82,3.37s-12.75-.48-14-.56-5-1.63-3.78-5.23Z" fill="param(accent_colour_1)"/>
  </g>
  <g id="fixed-colours">
    <path d="M72,90.77s0,.84-.69.84-1.09-.84-.91-1.85,1.11-1.24,1.51-.64a1.09,1.09,0,0,0-.35,1.36Z" fill="#a7a9ac"/>
    <path d="M81.56,90.37c0,.89-.35,1.29-.69,1.26a.93.93,0,0,1-.69-.74c.42-.3.22-1.19,0-1.41C80.6,89,81.51,88.74,81.56,90.37Z" fill="#a7a9ac"/>
    <path d="M71.8,93.07s-.91,1.26.1,1.56a.74.74,0,0,1-1,.79c-.57-.25-.72-1.56-.47-2.13a.81.81,0,0,1,1-.54Z" fill="#a7a9ac"/>
    <path d="M71.31,98.26s-.1,1.14-.82,1.14-.91-1.16-.77-1.85.72-1.33,1.41-.59C70.81,97.37,70.79,98.08,71.31,98.26Z" fill="#a7a9ac"/>
    <path d="M80.15,93.12s.4-.67.94-.42a1.65,1.65,0,0,1,.54,2c-.35.59-1,.52-1.43-.2Z" fill="#a7a9ac"/>
    <path d="M81.22,96.82s.25-.67.79-.4a2.13,2.13,0,0,1,.77,2.17c-.25.74-1.09.91-1.58-.52A1,1,0,0,0,81.22,96.82Z" fill="#a7a9ac"/>
  </g>
  <g id="outline">
    <path d="M62.43,109.3c.3,3,3,4.84,6.18,5s7.81,0,11.76.3,6.23-.4,7.51-2.08,1.9-5.25-.37-7.28A12,12,0,0,0,88,101.2c0-3.71-3-9.14-3.9-10.82s-.54-3.56-.49-6.18a4.38,4.38,0,0,0-1.77-3.63,2.82,2.82,0,0,1-.6-2.7s0,0,0,0A7.32,7.32,0,0,0,81.75,75,6.76,6.76,0,0,0,75,68.25h0A6.76,6.76,0,0,0,68.25,75a8.09,8.09,0,0,0,.63,3.24h0l.07.16v0a2.5,2.5,0,0,1,.14,1.64,4.63,4.63,0,0,0-2.16,2c-.49,1.29.64,4.7.84,7s-1.83,6-3.31,9.64c-1,2.5-1.06,4.32-.48,5.89A6.29,6.29,0,0,0,62.43,109.3Zm6.85-27.74a4,4,0,0,1-.18,1.1c-.44,1.43.49,2,1.83,1.88a6.74,6.74,0,0,0,2.15-.81,33.63,33.63,0,0,1-.44,4.42s0,.08,0,.12c-.2.1-.4.21-.58.33a1.77,1.77,0,0,0-.16.14,1,1,0,0,0-1-.19c-.77.2-1.11,1.75-.57,2.69A1,1,0,0,0,72.2,91a2.74,2.74,0,0,0,.46-.18c0,.39,0,.8,0,1.21a4.28,4.28,0,0,0-.84.7.77.77,0,0,0-.82-.25,1.68,1.68,0,0,0-.87,2.07c.23,1.09,1,1.32,1.54,1a.85.85,0,0,0,.39-.77l.32-.1.18-.09c0,.51-.08,1-.13,1.45a5.06,5.06,0,0,0-1.18.61.79.79,0,0,0-.9-.3,2,2,0,0,0-.77,2.4c.32.89,1.09,1.06,1.53.57a2.16,2.16,0,0,0,.4-.94,2.94,2.94,0,0,0,.51-.22,27.19,27.19,0,0,1-.83,2.69,17.43,17.43,0,0,0-5,5.78c-1.69-2-.87-4.65-.22-6.64s2.72-5.09,3.46-8.45-.44-4.5-1.09-6.87A2.79,2.79,0,0,1,69.29,81.56Zm12.12,15.3c.42-.78,1,.08,1.17.75s-.07,1.36-.52,1.33c-.29,0-.55-.43-.7-.72a.44.44,0,0,0,.2-.16c.15.2.38.46.54.24A1.31,1.31,0,0,0,81.9,97c-.14-.17-.29-.05-.38.05A1.67,1.67,0,0,0,81.41,96.87Zm-.59.82a19.79,19.79,0,0,0-4.7-.79,10.08,10.08,0,0,0-4.42,1c-.47.2-.91,0-.47-.64s2.47-1.33,4.94-1.41a12.11,12.11,0,0,1,4.05.69C81,96.8,81.66,97.86,80.82,97.69Zm-.41-8.21c.59-.56.94,0,1,.62s-.1,1.36-.52,1.31a.77.77,0,0,1-.52-.38.6.6,0,0,0,.13-.16c.55.6.77-.47.5-1.18-.11-.29-.36-.08-.47,0A1.71,1.71,0,0,0,80.41,89.48Zm-.86,1.08c-.7-.3-2.15-1.37-3.78-1.41a6.94,6.94,0,0,0-3.3,1.15c-.44.15-1.08.15-.52-.78S74.43,88,75.77,88a8,8,0,0,1,4,1.45C80.55,90.15,80.25,90.86,79.55,90.56Zm-1-3.67c0,.24.11.84.2,1.34a6.57,6.57,0,0,0-3-.78,7.32,7.32,0,0,0-2.52.52,35.67,35.67,0,0,0,.42-4.82s0-.06,0-.09,0-.16,0-.16h0a.32.32,0,0,0-.42-.24,1.82,1.82,0,0,0-.78.35l-.07,0L72,83.4c0-.35.12-.86,1-1.41,1.48-1,4.3-.74,5.63-.07a1.79,1.79,0,0,1,1,1.22l-.38-.08c-.37-.09-.69-.1-.8.12C78.36,83.19,78.17,83.36,78.59,86.88ZM71.73,91h.06a.52.52,0,0,1-.55.35c-.52-.1-.74-.79-.69-1.41S71,88.75,71.6,89a2.24,2.24,0,0,0-.22.35c-.1,0-.25,0-.38.26a1.13,1.13,0,0,0,.06,1.17c.13.16.25.16.35.09A.65.65,0,0,0,71.73,91Zm7.1-.39c0,.4,0,.82,0,1.26A6.59,6.59,0,0,0,76,91.11a6.17,6.17,0,0,0-2.67.56c0-.42,0-.83,0-1.21a4.78,4.78,0,0,1,2.32-.83A7.29,7.29,0,0,1,78.83,90.65ZM80,93.78c-.19.85-1.22-.26-2.59-.63a6.61,6.61,0,0,0-3.67.3c-.67.26-1.59,1.15-2,.74s1.15-2.59,4.19-2.52C77.58,91.71,80.18,92.93,80,93.78Zm-8.25,1.08a.57.57,0,0,1-.53.48c-.57,0-.84-.59-.8-1.43,0-.63.57-1.23,1.12-.87a2.41,2.41,0,0,0-.19.31c-.11-.05-.31-.11-.43.19A1.33,1.33,0,0,0,71,94.82c.16.16.31.07.39-.06A.55.55,0,0,0,71.74,94.86Zm7.17-.55c0,.47.06.93.1,1.38a10.2,10.2,0,0,0-2.86-.33,13.55,13.55,0,0,0-3.08.49c.05-.54.09-1.09.13-1.64a4.83,4.83,0,0,1,2.57-.65A6.24,6.24,0,0,1,78.91,94.32Zm-7.77,4.12c-.09.31-.27.76-.6.76-.49,0-.84-.74-.67-1.51s.62-1.06,1.06-.75a1.45,1.45,0,0,0-.24.32c-.1,0-.35,0-.47.38s-.06,1.06.32,1.07c.21,0,.31-.19.36-.38A.51.51,0,0,0,71.14,98.43Zm8.14-.72a8,8,0,0,0,.63,2.09,11.77,11.77,0,0,0-3.74-.58,8.48,8.48,0,0,0-4,1.06,11.56,11.56,0,0,0,.65-2.43,10.57,10.57,0,0,1,3.45-.49A12.6,12.6,0,0,1,79.28,97.71Zm6.1,8.06a6.06,6.06,0,0,1-.9,1.36c-1.14,1.24-4.45.64-8.06.49s-7.61,1.32-9.81-.5c.83-1.39,4.6-7.26,9.61-7.26A9.33,9.33,0,0,1,85.38,105.77ZM79.75,75a4.7,4.7,0,0,1-.49,2.07v0a2.09,2.09,0,0,0-.14.57v0a6.65,6.65,0,0,0,1,3.66c.39.59.78,1.87.07,1.89a2.48,2.48,0,0,0-1.26-1.89,7.64,7.64,0,0,0-6.6.15,2,2,0,0,0-1,2.18.62.62,0,0,1-.33-.1c-.95-.62,0-1.52.09-2.94a6.94,6.94,0,0,0-.51-3.92h0A4.72,4.72,0,0,1,75,70.25h0A4.75,4.75,0,0,1,79.75,75Zm6,29.88a10.22,10.22,0,0,0-5-4.73A12,12,0,0,1,80.07,98l.52.2a1.51,1.51,0,0,0,.42.11,1.76,1.76,0,0,0,.55.88A.87.87,0,0,0,83,98.58c.12-.69-.25-2.4-1.11-2.47a.7.7,0,0,0-.81.4h0a5.41,5.41,0,0,0-1.4-.62c-.05-.39-.1-.81-.14-1.26l.1,0a.67.67,0,0,0,.5,0c.64,1.08,1.78.62,1.85-.46s-.49-1.93-1.14-1.9a.86.86,0,0,0-.73.45,4.66,4.66,0,0,0-.65-.51c0-.44,0-.88,0-1.31l.21.09a.75.75,0,0,0,.36.06c.36,1.06,1.57.85,1.67-.42s-.4-2-.89-2a1,1,0,0,0-.65.45l-.08-.1a4.58,4.58,0,0,0-.62-.47A24.29,24.29,0,0,1,79,83.88a8.57,8.57,0,0,0,.89.17A1.84,1.84,0,0,0,82,82.77c.77,1.55-.25,4.25.12,6.71.44,3,2.52,6.57,3.66,10A8.23,8.23,0,0,1,85.76,104.88ZM80.35,93c.66-.51,1.1,0,1.19.51s0,1.21-.4,1.36c-.27.09-.52-.2-.69-.45a.9.9,0,0,0,.07-.17.49.49,0,0,0,.54.1c.2-.11.28-1-.09-1.15a.39.39,0,0,0-.5.06A1.19,1.19,0,0,0,80.35,93ZM65.1,106.67l0,.07c1.63,2.08,4.7,2.22,6.38,2a39.51,39.51,0,0,1,6.18-.4,16.15,16.15,0,0,0,6.87-.35,5.29,5.29,0,0,0,1.51-.76,3.1,3.1,0,0,1,1.16,3.13c-.35,2.57-3.51,3.21-5.63,2.92a79,79,0,0,0-10.73-.4c-1.93.2-4.79.2-6.08-1.63A3.86,3.86,0,0,1,65.1,106.67Z"/>
  </g>
<script type="text/ecmascript" xlink:href="param.min.js"/> 
</svg>
