<?xml version="1.0"?>
<svg xmlns="http://www.w3.org/2000/svg" xmlns:xlink="http://www.w3.org/1999/xlink" viewBox="0 0 250 250">
  <title>ripped-skinny-jeans-slender</title>
  <g id="skin-tone">
    <rect x="115.29" y="140.23" width="25" height="17.67" fill="param(skin_tone)"/>
    <rect x="116.83" y="178.9" width="7.88" height="5.13" fill="param(skin_tone)"/>
    <rect x="122.33" y="209.65" width="12.13" height="7.75" fill="param(skin_tone)"/>
  </g>
  <g id="main-colour">
    <path d="M149,125H101s-2,4.52,1.38,16,12.22,38.13,13.47,46.63,4.63,25.68,5.44,27h0a7.13,7.13,0,0,0-.07.93,6.91,6.91,0,0,0,11.37,5.29h0c.5-.31,2.5-1.43,4-6.31s7-31.5,8.88-49.37S150,130.73,149,125Zm-27.38,57.82a10.63,10.63,0,0,1-2.92-.33c.83.08,1.17.08,1.17.08a10,10,0,0,1-2-1.08,7,7,0,0,0,2.25.25,11,11,0,0,1-2-.67,4.63,4.63,0,0,0,2.25.08l-.92-.92a13.53,13.53,0,0,0,3.5.92,2.38,2.38,0,0,1-1.25.42,8,8,0,0,0,2.08.25c-.75.67-2,.5-3.33.42A3,3,0,0,0,121.62,182.82Zm6.58,32.83c1.25.63,2.13,1,2.13,1s-3.87.38-5.37-1.25a10.79,10.79,0,0,0,1.88.25s-3.12-1.12-3.62-2.12a17.56,17.56,0,0,0,5.87,1.25,35.66,35.66,0,0,1-4.5-1.62,8.44,8.44,0,0,0,3.54.17l-1.54-1,1.87.25s-1.5-.92-3-2c0,0,5.37,2.83,8.25.71a3.79,3.79,0,0,1-2.12,1.75,6.48,6.48,0,0,0,1.63,0,4.27,4.27,0,0,1-3.5,1,6.2,6.2,0,0,0,4.13.58C132.08,216.11,130.75,216,128.21,215.65Zm2.25-62.92s2.17-.33,2.83-.5a12.14,12.14,0,0,1-6,1.67,12.07,12.07,0,0,0,2.83.5,29.76,29.76,0,0,1-8.17.5,10.9,10.9,0,0,0,3-.5l-2-1s4.17-.17,5.33-.83a25.93,25.93,0,0,1-5.83-.67s7.67-.17,12-2A20.38,20.38,0,0,1,130.46,152.73Zm6.17-6.5s-3.33.83-3.83,1a28.92,28.92,0,0,0,3,.17,25.41,25.41,0,0,1-5.33,1.33,16.5,16.5,0,0,0,3,0,34.79,34.79,0,0,1-8.83,1.67,4.08,4.08,0,0,0,2.33-1.17,23.07,23.07,0,0,1-7.17.67,28.44,28.44,0,0,0,6.33-1.5l-3.5.17,1.83-.67a30.11,30.11,0,0,0-5.17.67c.1-.48.67-1.33,3-2,10.26-2.93,15.67-1.5,15.67-1.5a31.25,31.25,0,0,0-4.67.67A29.47,29.47,0,0,1,136.62,146.23Z" fill="param(main_colour)"/>
  </g>
  <g id="fixed-colours">
    <path d="M102.83,126.93a332.2,332.2,0,0,0,9.38,34.89c5.22,15.93,5.75,21.08,6.67,25.83,1.75,9.08,3.92,22.42,3.5,27.92-.56-7.48-3-19.61-4-26.42-1.21-7.58-3.54-17-9.21-34.58S102.83,126.93,102.83,126.93Z" opacity="0.5"/>
    <g opacity="0.6">
      <polygon points="103.83 127.04 103.94 127.53 103.93 127.53 103.83 127.04" fill="#fff"/>
      <polygon points="104.29 129 104.53 129.98 104.47 130 104.25 129.01 104.29 129" fill="#fff"/>
      <polygon points="104.89 131.45 105.13 132.43 105.02 132.46 104.79 131.47 104.89 131.45" fill="#fff"/>
      <polygon points="105.5 133.9 105.74 134.88 105.58 134.92 105.35 133.94 105.5 133.9" fill="#fff"/>
      <polygon points="106.12 136.34 106.37 137.32 106.15 137.38 105.92 136.39 106.12 136.34" fill="#fff"/>
      <polygon points="106.75 138.79 107 139.76 106.75 139.83 106.51 138.85 106.75 138.79" fill="#fff"/>
      <polygon points="107.38 141.23 107.64 142.21 107.37 142.28 107.12 141.3 107.38 141.23" fill="#fff"/>
      <polygon points="108.03 143.67 108.29 144.64 108 144.72 107.75 143.74 108.03 143.67" fill="#fff"/>
      <polygon points="108.69 146.1 108.95 147.08 108.65 147.16 108.39 146.18 108.69 146.1" fill="#fff"/>
      <polygon points="109.36 148.53 109.63 149.51 109.31 149.6 109.05 148.62 109.36 148.53" fill="#fff"/>
      <polygon points="110.05 150.96 110.33 151.93 109.99 152.03 109.72 151.06 110.05 150.96" fill="#fff"/>
      <polygon points="110.76 153.38 111.05 154.35 110.69 154.45 110.41 153.48 110.76 153.38" fill="#fff"/>
      <polygon points="111.49 155.8 111.79 156.76 111.42 156.88 111.12 155.91 111.49 155.8" fill="#fff"/>
      <polygon points="112.24 158.2 112.55 159.16 112.16 159.29 111.86 158.32 112.24 158.2" fill="#fff"/>
      <rect x="112.77" y="160.64" width="0.42" height="1.01" transform="translate(-45.21 44.06) rotate(-18.46)" fill="#fff"/>
      <polygon points="113.83 162.99 114.16 163.95 113.74 164.09 113.41 163.13 113.83 162.99" fill="#fff"/>
      <polygon points="114.65 165.38 114.97 166.34 114.53 166.48 114.21 165.53 114.65 165.38" fill="#fff"/>
      <rect x="115.12" y="167.83" width="0.48" height="1.01" transform="translate(-45.62 42.92) rotate(-17.66)" fill="#fff"/>
      <rect x="115.85" y="170.24" width="0.5" height="1.01" transform="translate(-44.31 40.73) rotate(-16.76)" fill="#fff"/>
      <rect x="116.56" y="172.67" width="0.48" height="1.01" transform="translate(-41.88 37.33) rotate(-15.43)" fill="#fff"/>
      <polygon points="117.56 175.06 117.81 176.04 117.36 176.16 117.11 175.18 117.56 175.06" fill="#fff"/>
      <rect x="117.85" y="177.56" width="0.45" height="1.01" transform="translate(-37.75 31.89) rotate(-13.28)" fill="#fff"/>
      <rect x="118.43" y="180.02" width="0.43" height="1.01" transform="translate(-35.15 28.82) rotate(-12.08)" fill="#fff"/>
      <rect x="118.95" y="182.49" width="0.41" height="1.01" transform="matrix(0.98, -0.19, 0.19, 0.98, -32.26, 25.65)" fill="#fff"/>
      <rect x="119.41" y="184.97" width="0.39" height="1.01" transform="translate(-29.39 22.66) rotate(-9.65)" fill="#fff"/>
      <polygon points="120.12 187.44 120.28 188.44 119.92 188.49 119.76 187.5 120.12 187.44" fill="#fff"/>
      <polygon points="120.5 189.94 120.66 190.93 120.31 190.99 120.15 189.99 120.5 189.94" fill="#fff"/>
      <polygon points="120.9 192.42 121.08 193.42 120.76 193.48 120.57 192.48 120.9 192.42" fill="#fff"/>
      <polygon points="121.34 194.91 121.51 195.91 121.2 195.96 121.03 194.97 121.34 194.91" fill="#fff"/>
      <polygon points="121.75 197.4 121.91 198.4 121.62 198.45 121.46 197.45 121.75 197.4" fill="#fff"/>
      <polygon points="122.13 199.9 122.28 200.9 122.01 200.94 121.86 199.94 122.13 199.9" fill="#fff"/>
      <rect x="122.3" y="202.41" width="0.26" height="1.01" transform="translate(-25.48 17.75) rotate(-7.51)" fill="#fff"/>
      <polygon points="122.8 204.91 122.91 205.91 122.7 205.93 122.57 204.93 122.8 204.91" fill="#fff"/>
      <polygon points="123.06 207.42 123.15 208.43 123 208.44 122.89 207.44 123.06 207.42" fill="#fff"/>
      <polygon points="123.26 209.94 123.32 210.95 123.22 210.95 123.14 209.95 123.26 209.94" fill="#fff"/>
      <polygon points="123.37 212.46 123.38 213.47 123.33 213.47 123.31 212.46 123.37 212.46" fill="#fff"/>
      <polygon points="123.28 214.99 123.21 215.48 123.28 214.99 123.28 214.99" fill="#fff"/>
    </g>
  </g>
  <g id="outline">
    <path d="M101,125c-1.2.9-2,3.24-1.83,5.11s2,11.63,6,24,7.44,22.93,9.74,33.75,5.42,28.75,5.42,28.75a2.47,2.47,0,0,0,1-2s-1.86-13.91-4.23-26.75C113.87,170.58,100.19,135.6,101,125Z"/>
    <path d="M149,125s-.32,9.49-2.82,27.37-7.79,64.43-13.58,68.46c3.33-.84,5.17-3.29,8.72-22,2.4-12.57,7.86-52.75,8.23-59.37S149.82,127.13,149,125Z"/>
  </g>
<script type="text/ecmascript" xlink:href="param.min.js"/> 
</svg>
