<?xml version="1.0"?>
<svg xmlns="http://www.w3.org/2000/svg" xmlns:xlink="http://www.w3.org/1999/xlink" viewBox="0 0 600 600">
  <title>skull-design-top-hourglass</title>
  <g id="main-colour">
    <path d="M312.06,298.25c-.43,0-.49-.48-.89.06,0,0-.47,2.72-.09,2.69S312.5,298.29,312.06,298.25Z" fill="param(main_colour)"/>
    <path d="M313.17,298.9c-.95,0-1.31,2.26-1,2.65s.74.36,1-.63S313.74,298.91,313.17,298.9Z" fill="param(main_colour)"/>
    <path d="M314.35,299.61c-.41,0-.79,1.14-.82,2s.49,1,.9.85.59-1.28.68-2S315,299.55,314.35,299.61Z" fill="param(main_colour)"/>
    <path d="M318.45,299.06c-.41,0-1.33,2.33-.61,2.27s1-.69,1.14-1.38S318.95,299,318.45,299.06Z" fill="param(main_colour)"/>
    <path d="M319.75,298.87c-.67,2.19.85.75,1,.25s.52-1.45.24-1.66S320.07,297.8,319.75,298.87Z" fill="param(main_colour)"/>
    <path d="M331.34,285.22c-.21-2.07.58-7.69.27-11.11s-.3-10.16-6.55-13.88-15.56-2.38-18.33,1.08c-4.26,5.32-1.37,17-1.23,20.22.4,3.16-1,4.69-.27,7.14s1.46,2.81,2.71,2.63,3.58,1.73,3.7,3.29-1.07,3.43,1.29,3.16.35,2.14,2.25,1.12,2.54.83,3.12-.21,3.21-1.44,3.54-3.5,2.74-4.9,5.3-3.74S331.66,287.29,331.34,285.22Zm-18.6,1.31c-1.3.82-4.54.33-4.91-1a22.27,22.27,0,0,1-.19-5.18c.08-.75.17-2,1.3-2.29,1.68-.39,3.41-1.58,4.68-.81s2.36,2.5,2.2,3.68S314.05,285.72,312.74,286.53Zm7.61,3.8c-.36,1.28-1,2.83-1.87,2.67s-.1-2.29-.12-3.38-.55-2.18-.95-.56-.35,4-1.55,4c-.7,0-.71-2.36,0-4.86s1.64-3.86,2.14-3.47.94-1,1.41-.07S320.73,289.05,320.35,290.33Zm8.49-4.29a6.43,6.43,0,0,1-5.24.72c-1.3-.66-1-2.31-1.83-2.89a2.33,2.33,0,0,1-1.09-1.82c-.18-1.11,1.41-2.68,2.27-3.76s1.57-1.11,3.06-.18,3.08.89,3.21,2.25S329.66,285.23,328.85,286Z" fill="param(main_colour)"/>
  </g>
  <g id="fixed-colours">
    <path d="M333.21,266.36s-13.64,13-29.16,13.54C315.1,283.2,326.56,275.85,333.21,266.36Z" opacity="0.15"/>
    <path d="M328.25,275.24s-6.5,7.38-14,9.21C321.29,285,326.42,278.4,328.25,275.24Z" opacity="0.15"/>
  </g>
<script type="text/ecmascript" xlink:href="param.min.js"/> 
</svg>
