<?xml version="1.0"?>
<svg xmlns="http://www.w3.org/2000/svg" xmlns:xlink="http://www.w3.org/1999/xlink" viewBox="0 0 250 250">
  <title>slender-bottoms-template</title>
  <g id="skin-tone">
    <path d="M149,125a24,24,0,0,0-48,0c-.88,1.48-.12,9.65,1.25,14.9s8.13,25.88,10.75,35.88,5.13,23,6.25,30.13,2,8.72,2,8.72h0a6.91,6.91,0,0,0,11.3,6.22h0c1.85-.44,4.65-4.06,6.9-16.43s5.13-32.62,6.38-42.87,3.5-28.87,3.88-32.37S149,125,149,125Z" fill="param(skin_tone)"/>
  </g>
  <g id="outline">
    <path d="M151,125a26,26,0,0,0-52,0c0,.66,0,1.32.08,2a5,5,0,0,0,0,.9,156.57,156.57,0,0,0,6.09,26.25c4,12.38,7.44,22.93,9.74,33.75s5.42,28.75,5.42,28.75a2.47,2.47,0,0,0,1-2s-1.87-13.91-4.23-26.75c-2.19-11.84-9.29-32.59-13.29-47.89-2.82-9.51-2.74-13.78-2.74-13.78,0-.4,0-.79,0-1.19a24,24,0,0,1,48,0,112.9,112.9,0,0,1-.95,12c-.42,4.11-1,9.24-1.87,15.37-2.5,17.88-7.79,64.43-13.58,68.46,3.33-.84,5.79-4,8.72-22,1.65-10.07,5.83-37.58,7.46-51.71C151.29,126.71,151,125,151,125Z"/>
  </g>
<script type="text/ecmascript" xlink:href="param.min.js"/> 
</svg>
