<?xml version="1.0"?>
<svg xmlns="http://www.w3.org/2000/svg" xmlns:xlink="http://www.w3.org/1999/xlink" viewBox="0 0 250 250">
  <title>ripped-skinny-jeans-hourglass</title>
  <g id="skin-tone">
    <rect x="125" y="148.15" width="22.25" height="15.75" fill="param(skin_tone)"/>
    <rect x="121.75" y="192.4" width="8" height="8.5" fill="param(skin_tone)"/>
    <rect x="127" y="212.4" width="9.25" height="7.25" fill="param(skin_tone)"/>
  </g>
  <g id="main-colour">
    <path d="M150.55,125.31h0a25.53,25.53,0,0,0-51.05-.62h0s-.57,19.34,5.1,32.9c8.77,21,12.48,32.44,15.39,39.48s5,19,5.54,19.6h.11c0,.2,0,.39,0,.6a6.74,6.74,0,0,0,11.15,5.19l.08.06a12.15,12.15,0,0,0,2.84-3.72c1.19-3,3.88-13.52,6.35-34.93,2.82-24.53,4.68-46.23,4.77-56.47ZM123,197.52l1.38-.12s-1.37-1.12-2.5-2.12a11.41,11.41,0,0,0,2.88,1.25s-.62-.62-2-1.87c1.13.5,4.25,1.25,4.88,1.5s-1.75,0-1.75,0a14,14,0,0,0,3.63,1.25,4.25,4.25,0,0,1-3-.12,6.79,6.79,0,0,0,3.5,2,14.43,14.43,0,0,1-4.12-.75,2.13,2.13,0,0,0,1.38,1A6.91,6.91,0,0,1,123,197.52Zm5.58,20.08,1.75-.25a11.36,11.36,0,0,1-3.25-2.37,11.34,11.34,0,0,0,3.75,1.13,4,4,0,0,1-1.87-1.75,14.89,14.89,0,0,0,5.63,1.38l-1.75.38a2.34,2.34,0,0,0,2.13.75,5.86,5.86,0,0,1-2.37.5,6.34,6.34,0,0,0,2.75.38C132.83,219.48,128.58,217.61,128.58,217.61Zm9.92-59a10,10,0,0,0,5.33-1,15,15,0,0,1-4.67,3.33h3.67c-3.33,2-9.67,2-9.67,2a6.52,6.52,0,0,0,4-2.67,49.64,49.64,0,0,1-5.67.33l3-1.67a27,27,0,0,1-9.33-1.33,18.87,18.87,0,0,0,10.67-2.33,37.16,37.16,0,0,1-6-.67,30.61,30.61,0,0,0,14-4.67c-1,1.67-4.29,3.63-4.29,3.63a24.61,24.61,0,0,0,5-1.29,29.45,29.45,0,0,1-3.67,2.67,17.86,17.86,0,0,0,6-1.33C145.17,156.23,138.5,158.57,138.5,158.57Z" fill="param(main_colour)"/>
  </g>
  <g id="fixed-colours">
    <path d="M101.47,127.32s2.92,20.08,9.5,38.33c5.69,15.77,8.9,23.27,10.75,27.75,2.75,6.66,6,16.92,5.88,22.88-.79-7.46-4.68-18.34-6.62-23.12A368,368,0,0,1,107.22,156C101.92,138.38,101.47,127.32,101.47,127.32Z" opacity="0.5"/>
    <g opacity="0.6">
      <polygon points="102.47 127.4 102.57 127.89 102.56 127.89 102.47 127.4" fill="#fff"/>
      <polygon points="102.86 129.37 103.05 130.35 102.99 130.36 102.81 129.37 102.86 129.37" fill="#fff"/>
      <polygon points="103.36 131.82 103.56 132.8 103.45 132.82 103.26 131.84 103.36 131.82" fill="#fff"/>
      <polygon points="103.88 134.27 104.09 135.25 103.92 135.28 103.73 134.3 103.88 134.27" fill="#fff"/>
      <polygon points="104.41 136.72 104.63 137.7 104.41 137.74 104.21 136.76 104.41 136.72" fill="#fff"/>
      <polygon points="104.96 139.16 105.17 140.14 104.92 140.2 104.71 139.22 104.96 139.16" fill="#fff"/>
      <polygon points="105.51 141.61 105.73 142.59 105.46 142.65 105.24 141.67 105.51 141.61" fill="#fff"/>
      <polygon points="106.07 144.05 106.31 145.02 106.02 145.09 105.79 144.11 106.07 144.05" fill="#fff"/>
      <polygon points="106.66 146.48 106.9 147.46 106.59 147.53 106.36 146.56 106.66 146.48" fill="#fff"/>
      <polygon points="107.26 148.92 107.51 149.89 107.19 149.97 106.95 148.99 107.26 148.92" fill="#fff"/>
      <polygon points="107.89 151.34 108.15 152.31 107.81 152.4 107.56 151.43 107.89 151.34" fill="#fff"/>
      <polygon points="108.54 153.76 108.81 154.73 108.46 154.82 108.19 153.85 108.54 153.76" fill="#fff"/>
      <rect x="108.99" y="156.2" width="0.38" height="1" transform="matrix(0.96, -0.28, 0.28, 0.96, -39.44, 36.75)" fill="#fff"/>
      <rect x="109.69" y="158.61" width="0.4" height="1" transform="translate(-41.83 39.22) rotate(-17.05)" fill="#fff"/>
      <rect x="110.42" y="161" width="0.42" height="1" transform="translate(-44.56 42.18) rotate(-18.03)" fill="#fff"/>
      <rect x="111.21" y="163.38" width="0.44" height="1" transform="translate(-47.71 45.78) rotate(-19.21)" fill="#fff"/>
      <polygon points="112.3 165.7 112.64 166.65 112.2 166.8 111.87 165.85 112.3 165.7" fill="#fff"/>
      <polygon points="113.15 168.06 113.49 169 113.05 169.16 112.71 168.22 113.15 168.06" fill="#fff"/>
      <polygon points="114.02 170.41 114.37 171.35 113.91 171.52 113.56 170.58 114.02 170.41" fill="#fff"/>
      <polygon points="114.9 172.75 115.25 173.69 114.8 173.87 114.44 172.93 114.9 172.75" fill="#fff"/>
      <polygon points="115.79 175.1 116.14 176.03 115.7 176.2 115.34 175.27 115.79 175.1" fill="#fff"/>
      <polygon points="116.69 177.43 117.05 178.37 116.63 178.53 116.26 177.6 116.69 177.43" fill="#fff"/>
      <polygon points="117.6 179.77 117.97 180.7 117.56 180.86 117.19 179.93 117.6 179.77" fill="#fff"/>
      <polygon points="118.52 182.1 118.9 183.03 118.51 183.19 118.13 182.26 118.52 182.1" fill="#fff"/>
      <polygon points="119.46 184.42 119.83 185.35 119.46 185.51 119.08 184.58 119.46 184.42" fill="#fff"/>
      <polygon points="120.39 186.75 120.77 187.68 120.41 187.83 120.03 186.9 120.39 186.75" fill="#fff"/>
      <polygon points="121.32 189.08 121.69 190.01 121.35 190.15 120.98 189.22 121.32 189.08" fill="#fff"/>
      <rect x="122.08" y="191.44" width="0.35" height="1" transform="translate(-60.63 56.51) rotate(-20.98)" fill="#fff"/>
      <polygon points="123.13 193.76 123.46 194.71 123.14 194.82 122.81 193.88 123.13 193.76" fill="#fff"/>
      <polygon points="123.93 196.15 124.23 197.1 123.93 197.2 123.62 196.25 123.93 196.15" fill="#fff"/>
      <polygon points="124.68 198.54 124.97 199.5 124.69 199.59 124.39 198.63 124.68 198.54" fill="#fff"/>
      <polygon points="125.41 200.94 125.69 201.9 125.43 201.98 125.14 201.02 125.41 200.94" fill="#fff"/>
      <rect x="125.99" y="203.37" width="0.26" height="1" transform="translate(-50.18 41.42) rotate(-15.6)" fill="#fff"/>
      <polygon points="126.77 205.77 127.01 206.75 126.8 206.8 126.54 205.83 126.77 205.77" fill="#fff"/>
      <polygon points="127.36 208.21 127.58 209.19 127.43 209.22 127.19 208.25 127.36 208.21" fill="#fff"/>
      <polygon points="127.88 210.66 128.06 211.65 127.96 211.67 127.76 210.69 127.88 210.66" fill="#fff"/>
      <polygon points="128.28 213.14 128.38 214.14 128.34 214.15 128.22 213.15 128.28 213.14" fill="#fff"/>
      <polygon points="128.4 215.65 128.35 216.15 128.39 215.65 128.4 215.65" fill="#fff"/>
    </g>
  </g>
  <g id="outline">
    <path d="M151.69,131.58A27.47,27.47,0,0,0,125.34,97.5h0A27.42,27.42,0,0,0,97.67,128v0c.08,9.63,2.36,20.47,6.34,31.55,6.25,17.42,10.71,28.8,14.1,36.56a133.14,133.14,0,0,1,7,22.08c2.19-2.07-1.93-14.07-5.71-24.4-1.34-3.65-6.47-16.29-12-32-7-19.68-7.47-31.79-7.81-36.76v0h0c0-.09,0-.18,0-.28A25.5,25.5,0,0,1,125.3,99.5h0a25.5,25.5,0,0,1,25.18,24.94h0s.07,6.23-.21,11.34v0c-.2,3.06-.53,6.62-1,10.8l-.15,2c-1,13.16-2.64,22-3.57,30.08-1,8.23-2.26,23.67-3.62,29.19s-1.67,11.76-5.09,14.7c6.39-2.18,9.2-29.15,10.23-39.1,1.35-13.05,3.89-28.65,4.74-42.82.18-2.94.07-5.54,0-7.84C151.78,132.38,151.74,132,151.69,131.58Z"/>
  </g>
<script type="text/ecmascript" xlink:href="param.min.js"/> 
</svg>
