<?xml version="1.0"?>
<svg xmlns="http://www.w3.org/2000/svg" xmlns:xlink="http://www.w3.org/1999/xlink" viewBox="0 0 250 250">
  <title>ripped-skinny-jeans-slender</title>
  <g id="skin-tone">
    <rect x="120.5" y="148.65" width="24.5" height="15.25" fill="param(skin_tone)"/>
    <rect x="119" y="192.9" width="10.25" height="8" fill="param(skin_tone)"/>
    <rect x="123.5" y="212.4" width="10.75" height="7.25" fill="param(skin_tone)"/>
  </g>
  <g id="main-colour">
    <path d="M149,125a24,24,0,0,0-48,0c-.88,1.48-.12,9.65,1.25,14.9s8.13,25.88,10.75,35.88,5.13,23,6.25,30.13,2,8.72,2,8.72h0a6.91,6.91,0,0,0,11.3,6.22h0c1.85-.44,4.65-4.06,6.9-16.43s5.13-32.62,6.38-42.87,3.5-28.87,3.88-32.37S149,125,149,125Zm-28,72.52,1.38-.12s-1.37-1.12-2.5-2.12a11.41,11.41,0,0,0,2.88,1.25s-.62-.62-2-1.87c1.13.5,4.25,1.25,4.88,1.5s-1.75,0-1.75,0a14,14,0,0,0,3.63,1.25,4.25,4.25,0,0,1-3-.12,6.79,6.79,0,0,0,3.5,2,14.43,14.43,0,0,1-4.12-.75,2.13,2.13,0,0,0,1.38,1A6.91,6.91,0,0,1,121,197.52Zm5.75,20.25,1.75-.25a11.36,11.36,0,0,1-3.25-2.37,11.34,11.34,0,0,0,3.75,1.13,4,4,0,0,1-1.87-1.75,14.89,14.89,0,0,0,5.63,1.38l-1.75.38a2.34,2.34,0,0,0,2.13.75,5.86,5.86,0,0,1-2.37.5,6.34,6.34,0,0,0,2.75.38C131,219.65,126.75,217.77,126.75,217.77Zm9.58-59.21a10,10,0,0,0,5.33-1A15,15,0,0,1,137,160.9h3.67c-3.33,2-9.67,2-9.67,2a6.52,6.52,0,0,0,4-2.67,49.64,49.64,0,0,1-5.67.33l3-1.67a27,27,0,0,1-9.33-1.33,18.87,18.87,0,0,0,10.67-2.33,37.16,37.16,0,0,1-6-.67,30.61,30.61,0,0,0,14-4.67c-1,1.67-4.29,3.63-4.29,3.63a24.61,24.61,0,0,0,5-1.29,29.45,29.45,0,0,1-3.67,2.67,17.86,17.86,0,0,0,6-1.33C143,156.23,136.33,158.57,136.33,158.57Z" fill="param(main_colour)"/>
  </g>
  <g id="fixed-colours">
    <path d="M102.83,126.93a332.2,332.2,0,0,0,9.38,34.89c5.22,15.93,5.75,21.08,6.67,25.83,1.75,9.08,3.92,22.42,3.5,27.92-.56-7.48-3-19.61-4-26.42-1.21-7.58-3.54-17-9.21-34.58S102.83,126.93,102.83,126.93Z" opacity="0.5"/>
    <g opacity="0.6">
      <polygon points="103.83 127.04 103.94 127.53 103.93 127.53 103.83 127.04" fill="#fff"/>
      <polygon points="104.29 129 104.53 129.98 104.47 130 104.25 129.01 104.29 129" fill="#fff"/>
      <polygon points="104.89 131.45 105.13 132.43 105.02 132.46 104.79 131.47 104.89 131.45" fill="#fff"/>
      <polygon points="105.5 133.9 105.74 134.88 105.58 134.92 105.35 133.94 105.5 133.9" fill="#fff"/>
      <polygon points="106.12 136.34 106.37 137.32 106.15 137.38 105.92 136.39 106.12 136.34" fill="#fff"/>
      <polygon points="106.75 138.79 107 139.76 106.75 139.83 106.51 138.85 106.75 138.79" fill="#fff"/>
      <polygon points="107.38 141.23 107.64 142.21 107.37 142.28 107.12 141.3 107.38 141.23" fill="#fff"/>
      <polygon points="108.03 143.67 108.29 144.64 108 144.72 107.75 143.74 108.03 143.67" fill="#fff"/>
      <polygon points="108.69 146.1 108.95 147.08 108.65 147.16 108.39 146.18 108.69 146.1" fill="#fff"/>
      <polygon points="109.36 148.53 109.63 149.51 109.31 149.6 109.05 148.62 109.36 148.53" fill="#fff"/>
      <polygon points="110.05 150.96 110.33 151.93 109.99 152.03 109.72 151.06 110.05 150.96" fill="#fff"/>
      <polygon points="110.76 153.38 111.05 154.35 110.69 154.45 110.41 153.48 110.76 153.38" fill="#fff"/>
      <polygon points="111.49 155.8 111.79 156.76 111.42 156.88 111.12 155.91 111.49 155.8" fill="#fff"/>
      <polygon points="112.24 158.2 112.55 159.16 112.16 159.29 111.86 158.32 112.24 158.2" fill="#fff"/>
      <rect x="112.77" y="160.64" width="0.42" height="1.01" transform="translate(-45.21 44.06) rotate(-18.46)" fill="#fff"/>
      <polygon points="113.83 162.99 114.16 163.95 113.74 164.09 113.41 163.13 113.83 162.99" fill="#fff"/>
      <polygon points="114.65 165.38 114.97 166.34 114.53 166.48 114.21 165.53 114.65 165.38" fill="#fff"/>
      <rect x="115.12" y="167.83" width="0.48" height="1.01" transform="translate(-45.63 42.93) rotate(-17.66)" fill="#fff"/>
      <rect x="115.85" y="170.24" width="0.5" height="1.01" transform="translate(-44.3 40.73) rotate(-16.76)" fill="#fff"/>
      <rect x="116.56" y="172.67" width="0.48" height="1.01" transform="translate(-41.88 37.33) rotate(-15.44)" fill="#fff"/>
      <rect x="117.23" y="175.11" width="0.46" height="1.01" transform="translate(-40 34.75) rotate(-14.41)" fill="#fff"/>
      <rect x="117.85" y="177.56" width="0.45" height="1.01" transform="translate(-37.75 31.89) rotate(-13.28)" fill="#fff"/>
      <rect x="118.43" y="180.02" width="0.43" height="1.01" transform="translate(-35.15 28.82) rotate(-12.08)" fill="#fff"/>
      <rect x="118.95" y="182.49" width="0.41" height="1.01" transform="translate(-32.26 25.64) rotate(-10.83)" fill="#fff"/>
      <rect x="119.41" y="184.97" width="0.39" height="1.01" transform="translate(-29.38 22.66) rotate(-9.64)" fill="#fff"/>
      <polygon points="120.12 187.44 120.28 188.44 119.92 188.49 119.75 187.5 120.12 187.44" fill="#fff"/>
      <polygon points="120.5 189.94 120.66 190.93 120.31 190.99 120.15 189.99 120.5 189.94" fill="#fff"/>
      <polygon points="120.9 192.42 121.08 193.42 120.76 193.48 120.57 192.48 120.9 192.42" fill="#fff"/>
      <polygon points="121.34 194.91 121.51 195.91 121.2 195.96 121.03 194.97 121.34 194.91" fill="#fff"/>
      <polygon points="121.75 197.4 121.91 198.4 121.62 198.45 121.46 197.45 121.75 197.4" fill="#fff"/>
      <polygon points="122.13 199.9 122.28 200.9 122.01 200.94 121.86 199.94 122.13 199.9" fill="#fff"/>
      <rect x="122.3" y="202.41" width="0.26" height="1.01" transform="translate(-25.48 17.75) rotate(-7.51)" fill="#fff"/>
      <polygon points="122.8 204.91 122.91 205.91 122.7 205.93 122.57 204.93 122.8 204.91" fill="#fff"/>
      <polygon points="123.06 207.42 123.15 208.43 123 208.44 122.89 207.44 123.06 207.42" fill="#fff"/>
      <polygon points="123.26 209.94 123.32 210.95 123.22 210.95 123.14 209.95 123.26 209.94" fill="#fff"/>
      <polygon points="123.37 212.46 123.38 213.47 123.33 213.47 123.31 212.46 123.37 212.46" fill="#fff"/>
      <polygon points="123.28 214.99 123.21 215.48 123.28 214.99 123.28 214.99" fill="#fff"/>
    </g>
  </g>
  <g id="outline">
    <path d="M151,125a26,26,0,0,0-52,0c0,.66,0,1.32.08,2a5,5,0,0,0,0,.9,156.57,156.57,0,0,0,6.09,26.25c4,12.38,7.44,22.93,9.74,33.75s5.42,28.75,5.42,28.75a2.47,2.47,0,0,0,1-2s-1.87-13.91-4.23-26.75c-2.19-11.84-9.29-32.59-13.29-47.89-2.82-9.51-2.74-13.78-2.74-13.78,0-.4,0-.79,0-1.19a24,24,0,0,1,48,0,112.9,112.9,0,0,1-.95,12c-.42,4.11-1,9.24-1.87,15.37-2.5,17.88-7.79,64.43-13.58,68.46,3.33-.84,5.79-4,8.72-22,1.65-10.07,5.83-37.58,7.46-51.71C151.29,126.71,151,125,151,125Z"/>
  </g>
<script type="text/ecmascript" xlink:href="param.min.js"/> 
</svg>
