<?xml version="1.0"?>
<svg xmlns="http://www.w3.org/2000/svg" xmlns:xlink="http://www.w3.org/1999/xlink" viewBox="0 0 215 215">
  <title>hourglass-top-template</title>
  <g id="skin-tone">
    <path d="M114,133.91c1.55-8.89,1.36-14.72.92-18a30.56,30.56,0,0,0-3.76-9.75,3.86,3.86,0,0,0-6.2-1.54c-1.56.71-2.71,2.19-3.91,5.15-2.47,6.08-3.6,15.21-3,19.69s2.43,9.12,4.25,19.32,1.43,16,1.19,19.05-.82,5.61.82,7.23,4.24,2.28,5.94.64,1.7-4.06,1.26-7.63-1.29-11.71-.9-15.15S112.42,142.8,114,133.91Z" fill="param(skin_tone)"/>
  </g>
  <g id="outline">
    <path d="M112.64,108c-.55-.82-1.13-1.6-1.67-2.29a26.41,26.41,0,0,1,1.56,4.45c1.4,5,2.18,12.27,1.78,16-.51,4.77-2.26,13.62-3.15,19.57a69.61,69.61,0,0,0-.77,15.79c.14,2.21-.23,4.41,0,6.24a40.75,40.75,0,0,1,.49,4.4,3.33,3.33,0,1,1-6.66.21c0-.84.19-3.32.29-4.47a55.5,55.5,0,0,0-.84-11.58c-1-6.39-2.62-13.8-3.54-19.28s-2.18-13.27-.39-20a58.47,58.47,0,0,1,2.42-7.16s1.26-4.07,3.06-5.49c0,0-2.74-.36-4.69,3.87a35.75,35.75,0,0,0-3.55,19c1,9.47,4.21,22.37,4.92,29,.61,5.71,1,13,.73,14.92a5.29,5.29,0,0,0-.12,1.24,5.06,5.06,0,0,0,5.22,5.11,5.13,5.13,0,0,0,4.82-5.58c0-1.08-.5-12.07-.34-17.25s1.56-13.58,3.65-26.32a39.13,39.13,0,0,0-.2-13.34A22.05,22.05,0,0,0,112.64,108Z"/>
  </g>
<script type="text/ecmascript" xlink:href="param.min.js"/> 
</svg>
