<?xml version="1.0"?>
<svg xmlns="http://www.w3.org/2000/svg" xmlns:xlink="http://www.w3.org/1999/xlink" viewBox="0 0 600 1032.36">
  <title>head-template</title>
  <g id="main-colour">
    <circle cx="255.37" cy="520.86" r="20.59" fill="param(main_colour)"/>
    <circle cx="344.17" cy="520.86" r="20.59" fill="param(main_colour)"/>
  </g>
  <g id="fixed-colours">
    <path d="M282.29,517.1c-.92-1.85-6.16-7.55-9-9.55a32.35,32.35,0,0,0-4.72-2.64,20.6,20.6,0,0,1-10.76,36.4,38.86,38.86,0,0,0,18.32-5.87C285.64,529.59,284.14,520,282.29,517.1Z" fill="#fff"/>
    <path d="M234.88,520.84a20.52,20.52,0,0,1,5.74-14.24,31.11,31.11,0,0,0-4.32,3.8c-6.7,7.09-9.94,17.72-9.94,17.72,4.7,5,18.57,13.42,28,13.33l.72,0A20.6,20.6,0,0,1,234.88,520.84Z" fill="#fff"/>
    <path d="M364.75,521.12a20.62,20.62,0,0,1-14.45,19.68c8.77-2,19-8.52,22.87-12.67,0,0-3.24-10.63-9.94-17.72a30.75,30.75,0,0,0-5-4.27A20.54,20.54,0,0,1,364.75,521.12Z" fill="#fff"/>
    <path d="M323.52,521.12a20.57,20.57,0,0,1,8.59-16.72,34.43,34.43,0,0,0-5.86,3.15c-2.85,2-8.09,7.7-9,9.55-1.85,2.93-3.35,12.49,6.16,18.34A38.47,38.47,0,0,0,338.73,541,20.61,20.61,0,0,1,323.52,521.12Z" fill="#fff"/>
  </g>
  <g id="outline">
    <path d="M282.29,517.1s-11.09-14.95-26.66-14.79-25.27,15.87-28,25.42c10.94,10.79,29,16.8,48.54,7.7-6.47,6.93-19.88,7.7-27,6.47s-18.49-7.09-24.35-14.48c3.85-15.25,13.1-28.2,30-29C263.8,498,277.05,504.47,282.29,517.1Z"/>
    <path d="M277.36,478.58s-8.78,18.64,3.7,36.36c-3.7-4.47-6.16-6.93-6.16-6.93S267.19,495.84,277.36,478.58Z"/>
    <path d="M272.89,505.85a37.12,37.12,0,0,1-5.24-28.51c-3.85,8.47-3.39,19.41-.46,25.42C270.43,504.62,272.89,505.85,272.89,505.85Z"/>
    <path d="M262.11,458.86s-11.4,28.2,4,42.68c-3.7-1.08-7.86-2.16-7.86-2.16A47.65,47.65,0,0,1,262.11,458.86Z"/>
    <path d="M249.94,460.86s-4.47,24.35,8.32,38.52a10.85,10.85,0,0,1-4.16.31S242.85,485.82,249.94,460.86Z"/>
    <path d="M238.53,448.54s-7.09,31.12,15.87,51.16a48.5,48.5,0,0,0-6,.77S229.9,479.35,238.53,448.54Z"/>
    <path d="M228.67,465.33s3.54,21.26,20,34.67c-1.39.46-4.47,1.39-4.47,1.39S230.37,487.06,228.67,465.33Z"/>
    <path d="M217.89,445.15s-1.39,39.14,27.27,55.93a11.13,11.13,0,0,1-3.54,2.16S213.26,486,217.89,445.15Z"/>
    <path d="M211,467.64s10.63,27.12,32.2,34.67a10.89,10.89,0,0,1-3.08,1.85S217,495.53,211,467.64Z"/>
    <path d="M198.63,451.15s5.08,43.76,42.06,52.54a23.48,23.48,0,0,1-4.47,3.39S200.63,494.45,198.63,451.15Z"/>
    <path d="M197.86,479.66s17.26,24.5,40.52,25c-.62,1.54-3.08,3.08-3.08,3.08S211.26,505.24,197.86,479.66Z"/>
    <path d="M181.52,467.64s17.1,38.83,55.32,39.29a24.37,24.37,0,0,0-3.7,3.7S195.85,508.47,181.52,467.64Z"/>
    <path d="M189.07,494.14s21.88,19,44.68,15.72a37.43,37.43,0,0,1-2.77,4S207.25,515.1,189.07,494.14Z"/>
    <path d="M170.27,485.82s22.5,34.36,62.56,27a26.08,26.08,0,0,0-3.85,5.08S193.39,523,170.27,485.82Z"/>
    <path d="M183.37,509.4s28.51,15.56,47.3,6.16a30.1,30.1,0,0,0-2.93,5.24S209.72,527.73,183.37,509.4Z"/>
    <path d="M165.5,509.4s33.28,21.73,63.48,8.47c-1.39,2.31-1.23,4.62-2,5.08S200,534.36,165.5,509.4Z"/>
    <path d="M180.91,525.11s30.82,7.4,46.84-4.31c-.92,2.93-1.54,4.93-1.54,4.93S209.1,534.82,180.91,525.11Z"/>
    <path d="M168.12,529s33.59,11.86,58.4-4.16a21.29,21.29,0,0,0,0,3.7S202.32,543.6,168.12,529Z"/>
    <path d="M228.06,530s-5.86.46-8.94,3.85c1.69-4,7.24-6.47,7.24-6.47Z"/>
    <path d="M224.51,536.52s1.54-4.62,5.24-5.24c.92.77,2.31,1.69,2.31,1.69S226.82,534.05,224.51,536.52Z"/>
    <path d="M229.75,539.91s1.39-4.16,4.62-5.39a6.51,6.51,0,0,1,2.31,1.39S231.91,537.75,229.75,539.91Z"/>
    <path d="M234.68,543s1.08-4.47,4.62-6a11.12,11.12,0,0,0,2.47,1.39S236.38,540.68,234.68,543Z"/>
    <path d="M239.92,546.22s1.39-5.24,3.7-6.78a30.86,30.86,0,0,0,3.39,1.08S242.08,542.37,239.92,546.22Z"/>
    <path d="M246.7,545.61a13.09,13.09,0,0,1,1.69-4.93,20.93,20.93,0,0,0,3.39.77S248.24,543.3,246.7,545.61Z"/>
    <path d="M251.78,546.84s.31-4,2.62-5.39c1.54.15,2.77.15,2.77.15S252.71,544.07,251.78,546.84Z"/>
    <path d="M257.79,546.84s0-3.7,1.54-5.24a10.17,10.17,0,0,0,3.39-.31S259,543.45,257.79,546.84Z"/>
    <path d="M271.35,538.37a26.91,26.91,0,0,1-5.24,1.85,13.3,13.3,0,0,0-1.39,5.08A15.55,15.55,0,0,1,271.35,538.37Z"/>
    <path d="M255.37,542.29a21.38,21.38,0,1,1,21.38-21.38A21.4,21.4,0,0,1,255.37,542.29Zm0-40A18.61,18.61,0,1,0,274,520.92,18.63,18.63,0,0,0,255.37,502.31Z"/>
    <circle cx="250.13" cy="514.87" r="11.17"/>
    <path d="M317.24,517.1s11.09-14.95,26.66-14.79,25.27,15.87,28,25.42c-10.94,10.79-29,16.8-48.54,7.7,6.47,6.93,19.88,7.7,27,6.47s18.49-7.09,24.35-14.48c-3.85-15.25-13.1-28.2-30-29C335.73,498,322.48,504.47,317.24,517.1Z"/>
    <path d="M322.17,478.58s8.78,18.64-3.7,36.36c3.7-4.47,6.16-6.93,6.16-6.93S332.34,495.84,322.17,478.58Z"/>
    <path d="M326.64,505.85a37.12,37.12,0,0,0,5.24-28.51c3.85,8.47,3.39,19.41.46,25.42C329.1,504.62,326.64,505.85,326.64,505.85Z"/>
    <path d="M337.42,458.86s11.4,28.2-4,42.68c3.7-1.08,7.86-2.16,7.86-2.16A47.65,47.65,0,0,0,337.42,458.86Z"/>
    <path d="M349.59,460.86s4.47,24.35-8.32,38.52a10.85,10.85,0,0,0,4.16.31S356.68,485.82,349.59,460.86Z"/>
    <path d="M361,448.54s7.09,31.12-15.87,51.16a48.5,48.5,0,0,1,6,.77S369.63,479.35,361,448.54Z"/>
    <path d="M370.86,465.33s-3.54,21.26-20,34.67c1.39.46,4.47,1.39,4.47,1.39S369.16,487.06,370.86,465.33Z"/>
    <path d="M381.64,445.15s1.39,39.14-27.27,55.93a11.13,11.13,0,0,0,3.54,2.16S386.27,486,381.64,445.15Z"/>
    <path d="M388.58,467.64s-10.63,27.12-32.2,34.67a10.89,10.89,0,0,0,3.08,1.85S382.57,495.53,388.58,467.64Z"/>
    <path d="M400.9,451.15s-5.08,43.76-42.06,52.54a23.48,23.48,0,0,0,4.47,3.39S398.9,494.45,400.9,451.15Z"/>
    <path d="M401.67,479.66s-17.26,24.5-40.52,25c.62,1.54,3.08,3.08,3.08,3.08S388.27,505.24,401.67,479.66Z"/>
    <path d="M418,467.64s-17.1,38.83-55.32,39.29a24.37,24.37,0,0,1,3.7,3.7S403.68,508.47,418,467.64Z"/>
    <path d="M410.46,494.14s-21.88,19-44.68,15.72a37.43,37.43,0,0,0,2.77,4S392.28,515.1,410.46,494.14Z"/>
    <path d="M429.26,485.82s-22.5,34.36-62.56,27a26.08,26.08,0,0,1,3.85,5.08S406.14,523,429.26,485.82Z"/>
    <path d="M416.16,509.4s-28.51,15.56-47.3,6.16a30.1,30.1,0,0,1,2.93,5.24S389.81,527.73,416.16,509.4Z"/>
    <path d="M434,509.4s-33.28,21.73-63.48,8.47c1.39,2.31,1.23,4.62,2,5.08S399.52,534.36,434,509.4Z"/>
    <path d="M418.62,525.11s-30.82,7.4-46.84-4.31c.92,2.93,1.54,4.93,1.54,4.93S390.43,534.82,418.62,525.11Z"/>
    <path d="M431.41,529s-33.59,11.86-58.4-4.16a21.29,21.29,0,0,1,0,3.7S397.21,543.6,431.41,529Z"/>
    <path d="M371.47,530s5.86.46,8.94,3.85c-1.69-4-7.24-6.47-7.24-6.47Z"/>
    <path d="M375,536.52s-1.54-4.62-5.24-5.24c-.92.77-2.31,1.69-2.31,1.69S372.71,534.05,375,536.52Z"/>
    <path d="M369.78,539.91s-1.39-4.16-4.62-5.39a6.51,6.51,0,0,0-2.31,1.39S367.62,537.75,369.78,539.91Z"/>
    <path d="M364.85,543s-1.08-4.47-4.62-6a11.12,11.12,0,0,1-2.47,1.39S363.15,540.68,364.85,543Z"/>
    <path d="M359.61,546.22s-1.39-5.24-3.7-6.78a30.86,30.86,0,0,1-3.39,1.08S357.45,542.37,359.61,546.22Z"/>
    <path d="M352.83,545.61a13.09,13.09,0,0,0-1.69-4.93,20.93,20.93,0,0,1-3.39.77S351.29,543.3,352.83,545.61Z"/>
    <path d="M347.75,546.84s-.31-4-2.62-5.39c-1.54.15-2.77.15-2.77.15S346.82,544.07,347.75,546.84Z"/>
    <path d="M341.74,546.84s0-3.7-1.54-5.24a10.17,10.17,0,0,1-3.39-.31S340.5,543.45,341.74,546.84Z"/>
    <path d="M328.18,538.37a26.91,26.91,0,0,0,5.24,1.85,13.3,13.3,0,0,1,1.39,5.08A15.55,15.55,0,0,0,328.18,538.37Z"/>
    <path d="M344.17,542.29a21.38,21.38,0,1,1,21.38-21.38A21.4,21.4,0,0,1,344.17,542.29Zm0-40a18.61,18.61,0,1,0,18.61,18.61A18.63,18.63,0,0,0,344.17,502.31Z"/>
    <circle cx="338.93" cy="514.87" r="11.17"/>
  </g>
  <g id="misc-objects">
    <circle cx="260.2" cy="525.75" r="7.4" fill="#fff"/>
    <circle cx="247.91" cy="512.65" r="2.72" fill="#fff"/>
    <circle cx="349" cy="525.75" r="7.4" fill="#fff"/>
    <circle cx="336.72" cy="512.65" r="2.72" fill="#fff"/>
  </g>
<script type="text/ecmascript" xlink:href="param.min.js"/> 
</svg>
