<?xml version="1.0"?>
<svg xmlns="http://www.w3.org/2000/svg" xmlns:xlink="http://www.w3.org/1999/xlink" viewBox="0 0 600 1032.36">
  <title>HS001</title>
  <g id="main-colour">
    <path d="M388.66,407.54c-26.11-27.21-67.17-36.42-86.42-6.67l-2,2.75s-11.21-23.26-56-19.12c-36.06,3.33-72.72,50.76-75.72,101.43S196,562.45,211,585.12s19.75,47.25,8,61.75-30.25,10.25-35,3.75c11.25,17.5,33.75,15.25,38,13.25-4.25,4.25-11.25,5-14,4.5,7.25,3.75,21.25,1.25,27.25-3.25-4.5,9.75-19,16.5-27.5,16.5,19.25,6.5,38.25-4.5,40.75-7.25-1.25,8-10.25,15.75-12.5,16,12.25-1.75,23-13.5,23-13.5s-3.75,13-12.5,20.5c15-2,28.25-13,32.5-20.75a15.42,15.42,0,0,1-6.75,14.75c7.75-.75,14.5-11.25,14.5-11.25a27.68,27.68,0,0,1-7.5,23c14.25-5.25,20.75-24.5,20.75-24.5s2.25,18,14.75,26.25c-6.25-13,1.25-29,1.25-29a37.36,37.36,0,0,0,32,22.25c-10-5.5-15.25-19-15.25-19a26.67,26.67,0,0,0,15.5,7c-7.25-3.75-10.25-16-10.25-16s16.41,23.17,44.16,11.67a28.71,28.71,0,0,1-18.25-6.5c-5-4-6.49-11.49-6.49-11.49,10.19,3.35,20.38.77,27.74-11,0,0-.34.16-.94.41-.3.12-.67.26-1.09.41a27.86,27.86,0,0,1-6.19,1.41c-.72.07-1.46.12-2.22.13a18.68,18.68,0,0,1-4.69-.54q-.59-.15-1.19-.35a15.29,15.29,0,0,1-2.34-1,15.09,15.09,0,0,1-2.25-1.48,16.79,16.79,0,0,1-3.1-3.24,21.24,21.24,0,0,1-1.8-2.94,27.69,27.69,0,0,1-1.53-3.63q-.34-1-.64-2.1c-4.36-16,8.74-40.07,20.74-61.07,11.42-20,22.52-36.46,31.67-69.48A104.07,104.07,0,0,0,413,484.82C413.89,457.88,406.52,426.14,388.66,407.54Zm-18,116.91C368,549.12,348,559.28,345.5,559.95c6.67.83,13.33-1.83,13.33-1.83l-.11.21c.72-.21,1.42-.42,2.11-.66a73.8,73.8,0,0,1-124.28-3.32c.71.29,1.41.56,2.08.8l-.14-.2s5.33,2.67,14.33,3.33c-15-8.33-23-20.83-24-34.33s12.33-31.5,28-40.33,37.41-11.33,43.91-37c3.33,11.5,14.93,20.83,32.26,28.67S373.33,499.78,370.67,524.45Z" fill="param(main_colour)"/>
  </g>
  <g id="accent-colour-1">
    <path d="M297.24,440.61s-7.54,18.66-40.83,31.08c-33.5,12.5-43.42,56.92-18.67,79.67-13.33-6-20.33-29.33-15-51s19.67-31,37.33-37S287.91,453.28,297.24,440.61Z" fill="param(accent_colour_1)"/>
    <path d="M298,409.11s-20.33-28.37-60.25-17C194.74,404.36,173,467,175,497.36s15.08,50.5,30.75,69.5S237.08,616,229.41,638.7s-25.33,21-25.33,21,19.33,3.67,28.33-16-1.75-48.92-17.42-71.58-37-51.25-32-87.25,19.85-67.19,47.42-81.83C262.41,386,298,409.11,298,409.11Z" fill="param(accent_colour_1)"/>
    <path d="M297.74,416.11s-32.36-17.45-62.67-1.42c-38.75,20.5-47.5,74.25-38.83,104.92S225.41,570,234.41,590s20.33,71.67-5.67,86.33c15.67-4.67,22.33-21,22-41.67s-4.33-39.33-29-77.33-25.33-70-12.33-100.67S249.74,408.45,297.74,416.11Z" fill="param(accent_colour_1)"/>
    <path d="M297,422.61c-36-9.75-103,20.25-83,103-2.25-28.25,4.88-54.15,14.75-66.5C245.33,438.36,268,424.95,297,422.61Z" fill="param(accent_colour_1)"/>
    <path d="M235.74,560.61S284,622.11,257.41,689C275.08,671.36,285,605.86,235.74,560.61Z" fill="param(accent_colour_1)"/>
    <path d="M272.49,587.86s26,43.25,8,94.5C294.24,666.36,299.74,613.11,272.49,587.86Z" fill="param(accent_colour_1)"/>
    <path d="M307.49,593.11s-20.08,49,2.25,102.75C302.74,662.11,302.49,619.11,307.49,593.11Z" fill="param(accent_colour_1)"/>
    <path d="M335.49,690.36s-44-40-6.75-103.67C320.08,616.36,314,653.61,335.49,690.36Z" fill="param(accent_colour_1)"/>
    <path d="M358.41,679S330,665.2,332,632.86s20.85-57.47,36.17-78.92c16.25-22.75,27.92-68.25,11.25-98.92s-39.33-43.67-74-38.67c21-13,42-10.67,64.33,11.67s28.36,62.54,17.33,94.33c-11.33,32.67-31.92,57.67-41.58,81S333.41,657.7,358.41,679Z" fill="param(accent_colour_1)"/>
    <path d="M304.41,409.36s11.83-27.5,47.58-16c32.19,10.35,49.83,45.08,53.5,68.75s-.5,51.25-16.5,83.25-39.58,68.67-35.58,91c2,10.67,8.33,19.5,23.08,21.5-13.75,3.25-27.42-4.83-28.08-25.17s10-40.33,21.67-61.33,34.83-66.75,30.17-102.75C395.63,433,364.08,374.36,304.41,409.36Z" fill="param(accent_colour_1)"/>
    <path d="M304,438.61s9.5,18,29.25,28c17.43,8.82,43.92,19.17,42.25,52.5-2,15-9.42,31.58-18.75,35.92,15-8.33,23.33-25,24-44.67S369,479.28,350,469.61,319.49,455.86,304,438.61Z" fill="param(accent_colour_1)"/>
    <path d="M303.74,421.61s54.25-8.75,79,65.5C371.24,456.11,337.74,428.86,303.74,421.61Z" fill="param(accent_colour_1)"/>
    <path d="M305,428.86c-1.35-1,16.08,17.58,32.75,24.25s32.08,18.58,35.75,23.25c-3.75-10.25-16.92-19.75-27.25-24.75S317.49,437.86,305,428.86Z" fill="param(accent_colour_1)"/>
    <path d="M297.24,429.11s-13.68,15.92-31.5,20.25c-23.33,5.67-37.42,19.33-40.75,25,10-18,26-25.31,35.42-29.67C274.41,438.2,288,433.61,297.24,429.11Z" fill="param(accent_colour_1)"/>
  </g>
  <g id="accent-colour-2">
    <path d="M296.74,425.61s-26.5,1.75-50.75,22.5c6.5-3.25,21.25-11.5,27.5-14C278.28,432.2,288.49,430.11,296.74,425.61Z" fill="param(accent_colour_2)"/>
    <path d="M296.24,419.36s-35.25-6.25-61.5,15.25-39,67.75-16.25,107.5c-22.5-31.5-17-84.5,15-109.5C249.24,419.11,272,413.86,296.24,419.36Z" fill="param(accent_colour_2)"/>
    <path d="M297.49,412.36s-33-16-58.5-5.5c-30.41,12.52-47,47.5-49.75,79.75s12,56.75,19.75,68.25,28.5,38,30.75,67.25-7.75,41-16.5,45c6.75-4.25,15.5-17.5,15-36.75s-4-32.5-16.75-53-25.5-35.5-32.25-59.25-1.25-45.75,4.5-63.75,23.25-42.75,45.75-50.75S286.24,406.11,297.49,412.36Z" fill="param(accent_colour_2)"/>
    <path d="M216,532.86a303.09,303.09,0,0,0,19.25,39c11.25,18.75,36.5,70.75,12,110.25,11.25-8.25,16-32.75,10.25-62.5s-16.5-44.75-21-51S219.24,540.61,216,532.86Z" fill="param(accent_colour_2)"/>
    <path d="M259.49,583.86s43.5,49,2.25,106.5C283.49,669.86,295,619.61,259.49,583.86Z" fill="param(accent_colour_2)"/>
    <path d="M286.24,591.61s17.25,47.75,2.75,97.25C296.74,674.86,303.74,628.61,286.24,591.61Z" fill="param(accent_colour_2)"/>
    <path d="M320.24,591.61s-25,36.5-7.75,85.25A133.16,133.16,0,0,1,320.24,591.61Z" fill="param(accent_colour_2)"/>
    <path d="M349.49,575.86s-41,43.75-9.5,105.25C326.49,673.11,312,608.11,349.49,575.86Z" fill="param(accent_colour_2)"/>
    <path d="M356.49,668.61s-18-16.75-10.5-46.75A71.47,71.47,0,0,0,356.49,668.61Z" fill="param(accent_colour_2)"/>
    <path d="M216.49,501.86s5-23,19.25-34c11.75-9.07,34.25-13.75,40.5-16s17-10.25,19.25-13.5c-4.75,7.25-13.11,14.12-26.25,18C249.74,462.11,226.24,467.61,216.49,501.86Z" fill="param(accent_colour_2)"/>
    <path d="M297,447.61s-2,17-18.25,23.5c-25.79,10.31-42,22-47.25,36.75,2-11.5,11.25-20.75,27.75-29.75C275.27,469.37,290,470.11,297,447.61Z" fill="param(accent_colour_2)"/>
    <path d="M303.74,424.86a182.32,182.32,0,0,0,23.5,12.25c12,5,24,13,31.5,18.25C347.49,444.61,319,428.61,303.74,424.86Z" fill="param(accent_colour_2)"/>
    <path d="M303.49,419.36s46.75-16.75,76.5,48.75C355.49,425.11,331.24,416.11,303.49,419.36Z" fill="param(accent_colour_2)"/>
    <path d="M305.74,433.86s13.75,16.25,34.25,26.5c19.23,9.62,41.25,18.75,43.5,42.25,1-12-11.83-29.36-30.5-38.25C332,454.36,318.49,448.36,305.74,433.86Z" fill="param(accent_colour_2)"/>
    <path d="M305.49,412.11a52.59,52.59,0,0,1,35.5-10c20.75,2,42.25,20,52.5,50s0,61.25,0,61.25,7.5-31.5-1-56.75c-7.74-23-22-42.5-43.25-50S311.74,409.86,305.49,412.11Z" fill="param(accent_colour_2)"/>
    <path d="M372.24,544.61S361,556.86,354,557.61C363.49,556.86,367.24,552.36,372.24,544.61Z" fill="param(accent_colour_2)"/>
    <path d="M409.49,491.36s-3,27.25-15.5,50.75-31.5,55.75-32.5,63.5c10.5-21,23.75-43.25,29-52.25S408.74,519.36,409.49,491.36Z" fill="param(accent_colour_2)"/>
    <path d="M304,447.36s4,13.49,20.5,20.5c25.25,10.75,47.25,26.75,48,47,2.25-9.75-6.75-25-19.75-33.5C328.74,465.61,312.49,464.36,304,447.36Z" fill="param(accent_colour_2)"/>
    <path d="M298.74,404.86s-13.75-18-46.5-17.5-54.75,27-67.5,53-17.75,58-7.5,83.25,17.25,33.75,24.5,42,17.25,21,21.75,39.5c-4.5-11.5-13.75-25.25-23.25-36.75s-23.75-31.75-28.75-55-.25-45,5.5-61.25,14-32.75,34.25-51.25,45.75-17,60.5-13.75S297.74,401.36,298.74,404.86Z" fill="param(accent_colour_2)"/>
    <path d="M301.74,405.11s9.5-17.25,26.5-20.25,37.9,5.49,52.25,17.25c15.25,12.5,33,38.75,29.75,80.5-.75-22.75-5.5-46.5-19-65s-32.5-31.25-59-30.75C323,387.36,311.49,393.36,301.74,405.11Z" fill="param(accent_colour_2)"/>
  </g>
<script type="text/ecmascript" xlink:href="param.min.js"/> 
</svg>
