<?xml version="1.0"?>
<svg xmlns="http://www.w3.org/2000/svg" xmlns:xlink="http://www.w3.org/1999/xlink" viewBox="0 0 600 600">
  <title>ripped-skinny-jeans-slender</title>
  <g id="skin-tone">
    <path d="M345.23,256.87c-1.6-2.61-4.65-4.74-9-8.26-.34-.29-.93-.81-1.25-1.08-.76-.7-1.56-1.48-2.29-2.23l0,.1c-.53-.53-1.07-1.1-1.48-1.53a10.8,10.8,0,0,0-5.62-15.71v-.27a11.12,11.12,0,0,0-9.24.73,3.12,3.12,0,0,0-1.56-.2,12,12,0,0,1-8.28-8.84,73.66,73.66,0,0,1-1.49-11.94c-1.86.14-3.74.22-5.64.22q-2.61,0-5.17-.18c-.13,2.22-.56,8.42-1.37,10.5-1,2.56-3.33,9-10.86,10.75-7.45-6.36-19.55-1.14-20,7.95s6,12.33,9.33,13.42c-1.25,5.92,1.33,21,3.17,27.5s6.92,19.67,9.08,28.08c1.88,7.29-1.37,16.76-6.93,27.23a53.25,53.25,0,0,0,12.08,6.63c9.86,3.91,25.75,5.91,36.62-1.32a40.89,40.89,0,0,1-2.35-14.15c-.17-8.42,1.82-20.63,3.91-27.88.71-2.48,1.71-5.43,2.73-8.72a30.14,30.14,0,0,0,9.34-2.51c4.67-2.33,9.92-7.58,10.17-14.25C349.29,265.35,348.16,260.9,345.23,256.87Z" fill="param(skin_tone)"/>
  </g>
  <g id="main-colour">
    <path d="M331,352.65a140.8,140.8,0,0,1-6.12-14l-.81.48q-.45-1.22-.84-2.51c-.15.09-.39.22-.71.36-1.24-.69-1.51.74-1.51.74s-2.37,1-5.24,2.09a1,1,0,0,0-1.69.37,26.12,26.12,0,0,1-13.51,0c-.84-1-1.59-.17-1.59-.17s-5.88-1.59-7.8-2.46c-.72-1-1.44-.51-1.44-.51s-6.1-2.71-7.26-3.48c-.5-1.6-1.53-.51-1.53-.51L278.73,332c-.35.67-.71,1.32-1.06,2l-.66-.46s-3.87,6.63-6.12,10.13A57.86,57.86,0,0,0,262.14,370a24.81,24.81,0,0,0,2.68,13,24,24,0,0,0,39.09,6.26,24,24,0,0,0,29.29-23.41h0C333.75,362.61,332.76,355.77,331,352.65Z" fill="param(main_colour)"/>
  </g>
  <g id="fixed-colours">
    <path d="M313.83,348.07a49.36,49.36,0,0,1,3,28.33C317.12,367.59,316.83,358.4,313.83,348.07Z" opacity="0.5"/>
  </g>
  <g id="outline">
    <path d="M308.25,327.37c1,.2,1.7-1.44.9-3.34a29,29,0,0,1,1.68-6.1S305.76,326.65,308.25,327.37Z"/>
    <path d="M312.64,228.5a30.41,30.41,0,0,1-6.13,3.13,26.5,26.5,0,0,0,10.12-3.19l.54-.24a11.26,11.26,0,0,1,8.35-.33c-2.58-2.5-7-2.5-8.89-1.64a9.91,9.91,0,0,0-2.38,1.26c-7.61-3.24-7.75-12.23-8.24-19.94l-1.48.12a41.37,41.37,0,0,0,1.15,11.62A12.61,12.61,0,0,0,312.64,228.5Z"/>
    <path d="M342,252.15c-6.17-3.83-14.1-11.9-14.1-11.9,1.72,3.27,9,10,13.94,14.31,7.92,6.83,7.4,18.48,3.17,23.83-6.67,8.42-17.44,9.47-22.83,8.67a23.52,23.52,0,0,0,6.19,1.2c-5.14,18.19-8.52,31.7-5.89,45.45.17.79.37,1.55.58,2.3l-.69.36a.91.91,0,0,0-.49-.13,1.15,1.15,0,0,0-1.08.88,42.53,42.53,0,0,1-5.19,2,.7.7,0,0,0-.2-.08,1.13,1.13,0,0,0-1.22.48,29.85,29.85,0,0,1-6,1,31.52,31.52,0,0,1-7.7-.77c-.3-.54-.72-.86-1.3-.28a67.54,67.54,0,0,1-8.31-2.57.7.7,0,0,0-.68-.26,76.9,76.9,0,0,1-7.59-3.42c-.13-.66-.46-1.19-1.24-.84l-.16.09c-.7-.39-1.39-.78-2-1.17a73.21,73.21,0,0,0,4.15-9.45c2.77-8.21,2.63-11.5.46-19.62s-6.86-18.78-9.46-29.28c-2.12-8.56-2-18.12-1.85-21.36h0c0-.22,0-.59,0-1v-.2h0c0-.46,0-.86,0-.86h0a11.19,11.19,0,1,1,6.1-21.31l1.54.84.06,0h0l1,.55,3.34,1.84c.24.13.52.25.78.37l.18.1h0a21.13,21.13,0,0,0,11.55,1c-3.44,0-8.74-.68-13-3.46,2.8-1,10.8-5.42,11.18-21.67l-1.59-.11c0,1.76-.57,18-11.81,20.13A13.19,13.19,0,1,0,269.92,251a110.89,110.89,0,0,0,1.34,17.75c2.5,15,9.62,27.5,11.46,40.33s-11.29,29.5-16.79,41.33a59.89,59.89,0,0,0-5.31,20.07c0,.13,0,.26,0,.39-.08,1.22-.08,1.91-.08,1.91a26,26,0,0,0,50.08,9.79c2.14-.82,5.25-2.75,6.42-5.2,0,0-2,2.38-6.59,3.39-.34.07-.79.15-1.35.23a24,24,0,0,1-46.56-8.22c0-.45,0-.92,0-1.39,0-.06,0-.1,0-.16,0-.26,0-.52,0-.78a51.19,51.19,0,0,1,3-13,71.58,71.58,0,0,1,3.48-8.13c1.42-2.76,4.3-7.52,7.2-12.74.53.4,1.06.78,1.6,1.15a.94.94,0,0,0,.13.52,1.25,1.25,0,0,0,1.43.53,51.18,51.18,0,0,0,7.67,4.06.83.83,0,0,0,.18.35,1.25,1.25,0,0,0,1.47.31A49.87,49.87,0,0,0,298,346a.69.69,0,0,0,.14.14,1.13,1.13,0,0,0,1.21.09,53.64,53.64,0,0,0,8.46.57,36.1,36.1,0,0,0,8-1c.51.4,1.06.56,1.36-.3v-.06a33.52,33.52,0,0,0,6.9-2.77c.56.24,1.11.25,1.22-.5,3.26,7.49,7.55,13.81,7.9,23.7.5-2,1.62-8.25-4.23-20.25-3-6.13-5.8-11.93-4.5-26.84.84-9.58,3.8-20.31,6.44-30.52,8.29-.43,15.75-5.3,18.59-12.82C352.48,267.56,350.6,257.49,342,252.15Zm-18.6,85,.1.32-.21-.26Zm-8.68,7.43.12.18a32.76,32.76,0,0,1-6.12.86,31,31,0,0,0,0-4,30.49,30.49,0,0,0,5.1-.79,2.26,2.26,0,0,0,0,.24c.4-.89,1.54-2.18,2.34.62S316.79,346.33,314.72,344.59Zm-27.55-3.17a56.19,56.19,0,0,1-6.66-3.41,2.67,2.67,0,0,0,.24-.33c-1.07.61-2.79.56-1.41-2s2.95-3.51,3.26-.86c0,0,0-.1,0-.26,1.73.88,3.9,1.91,6.35,2.9A10,10,0,0,0,287.17,341.42Zm-10.33-5.87q.87-1.59,1.72-3.22c.27.16.81.48,1.59.91a10.09,10.09,0,0,0-2,3.26C277.57,336.1,277.13,335.78,276.84,335.55Zm12.94,6.92a2.65,2.65,0,0,0,.13-.27c-1,.78-2.67,1-1.71-1.75s2.25-4.15,3.22-1.78c0,0,0-.1,0-.27a61.61,61.61,0,0,0,7,2.13,10.11,10.11,0,0,0-.77,4.2A52.36,52.36,0,0,1,289.77,342.47Zm10.47,2.71a2.27,2.27,0,0,0,.11-.38c-.72.66-2.27,1.4-1.91-1.49s1.28-4.46,2.51-2l0-.22a37,37,0,0,0,6.9.63c0,.87.07,2.51,0,4A45.21,45.21,0,0,1,300.25,345.18Zm17.09-1.12a10.2,10.2,0,0,0-.91-3.91,39.7,39.7,0,0,0,4.46-1.71,2.25,2.25,0,0,0,.1.23c.15-1,.89-2.51,2.42,0s1.79,4.28-.68,3.16l0,0A38.18,38.18,0,0,1,317.33,344.06Z"/>
    <path d="M308.42,291.82c14-1.5,20.83-14.67,18.58-25.92-2.49-12.45-18.25-18.27-18.25-18.27,2.6,1.17,11.51,7,14.58,15,3.29,8.63.42,20-7.83,24.75-8.53,4.91-18.77,2.4-23.7-.1C295.12,289.63,299.7,292.75,308.42,291.82Z"/>
    <path d="M270.5,348.51a8.25,8.25,0,0,0,12.93-5.14A11,11,0,0,1,270.5,348.51Z"/>
    <path d="M299.71,344.75a19.55,19.55,0,0,1,.51-3.59A4.93,4.93,0,0,0,299.71,344.75Z"/>
    <path d="M315.44,344.4a4.93,4.93,0,0,0-.94-3.51A19.55,19.55,0,0,1,315.44,344.4Z"/>
    <path d="M321.52,338.3a19.55,19.55,0,0,1,1.85,3.12A4.93,4.93,0,0,0,321.52,338.3Z"/>
    <path d="M290.39,338.72a4.93,4.93,0,0,0-1.26,3.4A19.55,19.55,0,0,1,290.39,338.72Z"/>
    <path d="M280,337.47a19.55,19.55,0,0,1,1.78-3.16A4.93,4.93,0,0,0,280,337.47Z"/>
  </g>
<script type="text/ecmascript" xlink:href="param.min.js"/> 
</svg>
