<?xml version="1.0"?>
<svg xmlns="http://www.w3.org/2000/svg" xmlns:xlink="http://www.w3.org/1999/xlink" viewBox="0 0 150 150">
  <title>BT002_OA011</title>
  <g id="skin-tone">
    <path d="M80.25,79.5a7.39,7.39,0,0,0-.56-7.72c-2-2.75-5.5-3.33-7.58-1.5S69,73.11,69.44,75.36,69.87,79.6,69,81s-.44,3.06,1.43,2.57,3.81-1.53,5.44-.79,3.06,1.78,3.86,1S79.26,81.23,80.25,79.5Z" fill="param(skin_tone)"/>
  </g>
  <g id="main-colour">
    <path d="M65.27,94c1.73-3.56,2.37-5.88,2.08-7.81s-.35-4,1-4.75c-.43,1.32.27,2.12,1.73,2,.16-1.07.72-2,2.6-2.34,2.54-.43,4.19,0,5.15.93a2,2,0,0,1,.44,1.82c2.38,1.08,1.7-2.44,2-3a2.48,2.48,0,0,1,2,3.41,15.46,15.46,0,0,0-.69,7.27c.3,2.37,3,6.48,3.71,10a6.07,6.07,0,0,1-1.5,5.57s-3.65-7.06-9.58-7.5a10.07,10.07,0,0,0-10.13,6.13C61.07,102.38,63.54,97.59,65.27,94Z" fill="param(main_colour)"/>
  </g>
  <g id="accent-colour-1">
    <path d="M74.2,87.78a7.71,7.71,0,0,0-4.3,1.68c-.37.54-.56,1.32.07,1.32s1.78-.82,3-1.15a4.61,4.61,0,0,1,3.3.26c1.15.48,1.59,1.08,2,.67s-.06-1.42-.94-2A5.89,5.89,0,0,0,74.2,87.78Z" fill="param(accent_colour_1)"/>
    <path d="M74.23,91.37a7.84,7.84,0,0,0-4.11,1.48c-.44.44-.63,1.71.15,1.56s2.59-1.33,4-1.15a10.52,10.52,0,0,1,3.21,1.08c.57.29,1.64.18.9-.93A5.18,5.18,0,0,0,74.23,91.37Z" fill="param(accent_colour_1)"/>
    <path d="M73.9,95.6a11.82,11.82,0,0,0-4.45.82c-.63.37-1.22,1.19-.67,1.52s1.56-.78,5.08-.78,4.11,1.11,4.93.93.11-1.19-.48-1.48A14.4,14.4,0,0,0,73.9,95.6Z" fill="param(accent_colour_1)"/>
    <path d="M85,105.68a4.89,4.89,0,0,1-1.19,1.48c-1.89-3.19-5.3-7.64-10-7.6s-7.6,2.48-9.49,6.23a4.47,4.47,0,0,0-2.41,4.78c.26,1.82,3.19,3.67,6.82,3.37s12.75-.48,14-.56,5-1.63,3.78-5.23Z" fill="param(accent_colour_1)"/>
  </g>
  <g id="fixed-colours">
    <path d="M78,90.77s0,.84.69.84,1.09-.84.91-1.85-1.11-1.24-1.51-.64a1.09,1.09,0,0,1,.35,1.36Z" fill="#a7a9ac"/>
    <path d="M68.44,90.37c0,.89.35,1.29.69,1.26a.93.93,0,0,0,.69-.74c-.42-.3-.22-1.19,0-1.41C69.4,89,68.49,88.74,68.44,90.37Z" fill="#a7a9ac"/>
    <path d="M78.2,93.07s.91,1.26-.1,1.56a.74.74,0,0,0,1,.79c.57-.25.72-1.56.47-2.13a.81.81,0,0,0-1-.54Z" fill="#a7a9ac"/>
    <path d="M78.69,98.26s.1,1.14.82,1.14.91-1.16.77-1.85-.72-1.33-1.41-.59C79.19,97.37,79.21,98.08,78.69,98.26Z" fill="#a7a9ac"/>
    <path d="M69.85,93.12s-.4-.67-.94-.42a1.65,1.65,0,0,0-.54,2c.35.59,1,.52,1.43-.2Z" fill="#a7a9ac"/>
    <path d="M68.78,96.82s-.25-.67-.79-.4a2.13,2.13,0,0,0-.77,2.17c.25.74,1.09.91,1.58-.52A1,1,0,0,1,68.78,96.82Z" fill="#a7a9ac"/>
  </g>
  <g id="outline">
    <path d="M86,104.67c.58-1.57.53-3.39-.48-5.89-1.48-3.66-3.51-7.32-3.31-9.64s1.33-5.73.84-7a4.63,4.63,0,0,0-2.16-2,2.5,2.5,0,0,1,.14-1.64v0l.07-.16h0A8.09,8.09,0,0,0,81.75,75,6.76,6.76,0,0,0,75,68.25h0A6.76,6.76,0,0,0,68.25,75a7.32,7.32,0,0,0,.48,2.82s0,0,0,0a2.82,2.82,0,0,1-.6,2.7,4.38,4.38,0,0,0-1.77,3.63c0,2.62.44,4.5-.49,6.18S62,97.49,62,101.2a12,12,0,0,0,.52,4.09c-2.27,2-1.59,5.69-.37,7.28s3.56,2.42,7.51,2.08,8.6-.1,11.76-.3,5.88-2,6.18-5A6.29,6.29,0,0,0,86,104.67Zm-4.29-20c-.64,2.37-1.83,3.51-1.09,6.87s2.77,6.33,3.46,8.45,1.47,4.68-.22,6.64a17.43,17.43,0,0,0-5-5.78A27.19,27.19,0,0,1,78,98.18a2.94,2.94,0,0,0,.51.22,2.16,2.16,0,0,0,.4.94c.44.49,1.21.32,1.53-.57a2,2,0,0,0-.77-2.4.79.79,0,0,0-.9.3,5.06,5.06,0,0,0-1.18-.61c-.06-.45-.1-.94-.13-1.45l.18.09.32.1a.85.85,0,0,0,.39.77c.52.27,1.31,0,1.54-1A1.68,1.68,0,0,0,79,92.47a.77.77,0,0,0-.82.25,4.28,4.28,0,0,0-.84-.7c0-.42,0-.82,0-1.21a2.74,2.74,0,0,0,.46.18,1,1,0,0,0,1.83.25c.54-.94.2-2.5-.57-2.69a1,1,0,0,0-1,.19,1.77,1.77,0,0,0-.16-.14c-.18-.12-.38-.22-.58-.33,0,0,0-.09,0-.12a33.63,33.63,0,0,1-.44-4.42,6.74,6.74,0,0,0,2.15.81c1.33.1,2.27-.44,1.83-1.88a4,4,0,0,1-.18-1.1A2.79,2.79,0,0,1,81.73,84.69ZM68.48,97.06c-.09-.1-.24-.22-.38-.05a1.31,1.31,0,0,0-.19,1.3c.16.22.39,0,.54-.24a.44.44,0,0,0,.2.16c-.15.29-.42.7-.7.72-.44,0-.72-.62-.52-1.33s.75-1.53,1.17-.75A1.67,1.67,0,0,0,68.48,97.06Zm1.29-.56a12.11,12.11,0,0,1,4.05-.69c2.47.07,4.5.82,4.94,1.41s0,.84-.47.64a10.08,10.08,0,0,0-4.42-1,19.79,19.79,0,0,0-4.7.79C68.34,97.86,69,96.8,69.77,96.5Zm-.28-6.79c-.11-.1-.36-.31-.47,0-.27.72,0,1.78.5,1.18a.6.6,0,0,0,.13.16.77.77,0,0,1-.52.38c-.42,0-.57-.59-.52-1.31s.39-1.18,1-.62A1.71,1.71,0,0,0,69.49,89.71Zm.74-.23a8,8,0,0,1,4-1.45c1.33,0,3.26.56,3.82,1.48s-.07.93-.52.78a6.94,6.94,0,0,0-3.3-1.15c-1.63,0-3.08,1.11-3.78,1.41S69.45,90.15,70.23,89.48Zm1.38-6.3c-.11-.21-.43-.21-.8-.12l-.38.08a1.79,1.79,0,0,1,1-1.22c1.33-.67,4.15-.89,5.63.07.84.54,1,1.06,1,1.41l-.48-.34-.07,0a1.82,1.82,0,0,0-.78-.35.32.32,0,0,0-.42.24h0s0,0,0,.16,0,.06,0,.09A35.67,35.67,0,0,0,76.68,88a7.32,7.32,0,0,0-2.52-.52,6.57,6.57,0,0,0-3,.78c.09-.5.18-1.1.2-1.34C71.83,83.36,71.64,83.19,71.61,83.18Zm7,7.72c.1.08.22.07.35-.09A1.13,1.13,0,0,0,79,89.65c-.13-.3-.28-.31-.38-.26A2.24,2.24,0,0,0,78.4,89c.6-.3,1,.38,1.06.94s-.17,1.31-.69,1.41a.52.52,0,0,1-.55-.35h.06A.65.65,0,0,0,78.59,90.9Zm-4.21-1.27a4.78,4.78,0,0,1,2.32.83c0,.38,0,.78,0,1.21A6.17,6.17,0,0,0,74,91.11a6.59,6.59,0,0,0-2.88.79c0-.43,0-.85,0-1.26A7.29,7.29,0,0,1,74.38,89.63Zm-.3,2c3-.07,4.6,2.11,4.19,2.52s-1.33-.48-2-.74a6.61,6.61,0,0,0-3.67-.3c-1.37.37-2.41,1.48-2.59.63S72.42,91.71,74.08,91.67Zm4.52,3.09c.09.13.23.22.39.06a1.33,1.33,0,0,0,.09-1.28c-.12-.3-.33-.24-.43-.19a2.41,2.41,0,0,0-.19-.31c.55-.36,1.09.23,1.12.87,0,.83-.23,1.43-.8,1.43a.57.57,0,0,1-.53-.48A.55.55,0,0,0,78.6,94.76Zm-4.37-1.2a4.83,4.83,0,0,1,2.57.65c0,.55.07,1.09.13,1.64a13.55,13.55,0,0,0-3.08-.49,10.2,10.2,0,0,0-2.86.33c0-.45.08-.91.1-1.38A6.24,6.24,0,0,1,74.23,93.56Zm4.87,4.78c.05.18.15.39.36.38.37,0,.46-.59.32-1.07s-.36-.39-.47-.38a1.45,1.45,0,0,0-.24-.32c.44-.31.9,0,1.06.75S80,99.2,79.46,99.2c-.33,0-.51-.45-.6-.76A.51.51,0,0,0,79.1,98.34Zm-5.35-1a10.57,10.57,0,0,1,3.45.49,11.56,11.56,0,0,0,.65,2.43,8.48,8.48,0,0,0-4-1.06,11.77,11.77,0,0,0-3.74.58,8,8,0,0,0,.63-2.09A12.6,12.6,0,0,1,73.75,97.37Zm0,2.5c5,0,8.79,5.87,9.61,7.26-2.2,1.82-6.27.35-9.81.5s-6.92.74-8.06-.49a6.06,6.06,0,0,1-.9-1.36A9.33,9.33,0,0,1,73.78,99.86ZM75,70.25h0a4.72,4.72,0,0,1,4.42,6.44h0a6.94,6.94,0,0,0-.51,3.92C79,82,80,82.94,79,83.55a.62.62,0,0,1-.33.1,2,2,0,0,0-1-2.18,7.64,7.64,0,0,0-6.6-.15,2.48,2.48,0,0,0-1.26,1.89c-.71,0-.32-1.3.07-1.89a6.65,6.65,0,0,0,1-3.66v0a2.09,2.09,0,0,0-.14-.57v0A4.7,4.7,0,0,1,70.25,75,4.75,4.75,0,0,1,75,70.25ZM64.19,99.47c1.14-3.41,3.21-7,3.66-10,.37-2.46-.65-5.16.12-6.71A1.84,1.84,0,0,0,70.12,84a8.57,8.57,0,0,0,.89-.17,24.29,24.29,0,0,1-.53,4.76,4.58,4.58,0,0,0-.62.47l-.08.1a1,1,0,0,0-.65-.45c-.49-.07-1,.62-.89,2s1.31,1.47,1.67.42a.75.75,0,0,0,.36-.06l.21-.09c0,.43,0,.87,0,1.31a4.66,4.66,0,0,0-.65.51.86.86,0,0,0-.73-.45c-.64,0-1.21.77-1.14,1.9s1.21,1.54,1.85.46a.67.67,0,0,0,.5,0l.1,0c0,.45-.08.87-.14,1.26a5.41,5.41,0,0,0-1.4.62h0a.7.7,0,0,0-.81-.4c-.86.07-1.24,1.78-1.11,2.47a.87.87,0,0,0,1.46.57,1.76,1.76,0,0,0,.55-.88,1.51,1.51,0,0,0,.42-.11l.52-.2a12,12,0,0,1-.72,2.19,10.22,10.22,0,0,0-5,4.73A8.23,8.23,0,0,1,64.19,99.47Zm5.33-6.16a.39.39,0,0,0-.5-.06c-.37.19-.3,1-.09,1.15a.49.49,0,0,0,.54-.1.9.9,0,0,0,.07.17c-.16.25-.42.54-.69.45-.44-.15-.49-.82-.4-1.36s.53-1,1.19-.51A1.19,1.19,0,0,0,69.52,93.31Zm15.67,17.92c-1.29,1.83-4.15,1.83-6.08,1.63a79,79,0,0,0-10.73.4c-2.13.3-5.29-.35-5.63-2.92a3.1,3.1,0,0,1,1.16-3.13,5.29,5.29,0,0,0,1.51.76,16.15,16.15,0,0,0,6.87.35,39.51,39.51,0,0,1,6.18.4c1.68.25,4.74.1,6.38-2l0-.07A3.86,3.86,0,0,1,85.19,111.23Z"/>
  </g>
<script type="text/ecmascript" xlink:href="param.min.js"/> 
</svg>
