<?xml version="1.0"?>
<svg xmlns="http://www.w3.org/2000/svg" xmlns:xlink="http://www.w3.org/1999/xlink" viewBox="0 0 600 600">
  <title>ripped-skinny-jeans-hourglass</title>
  <g id="skin-tone">
    <path d="M352.42,258.84c-2.17-6.83-8.75-11-12.33-12.83-1.62-.83-3.12-1.71-4.28-2.43l.06-.17-.23-.13a11.64,11.64,0,0,0-15.07-15v-.38c-10.71-2.26-13.38-13.35-14.21-20.26-2.16.19-4.35.31-6.56.31s-4.42-.12-6.6-.31a26.62,26.62,0,0,1-3.55,11c-3.25,5.75-8.25,8.42-14.42,10.25-5.33-2.17-11.92-4-16.83-1.17s-7.33,8-6.42,14S257.88,251,263,252.18c-.08,8.08,1.5,22.33,4.83,29.25s9.33,14.42,11.92,17.92,4.42,9.42,2.92,18.08c-.69,4-3.24,8.08-6.22,11.77,4.47,3.24,15,9.87,27.67,11.37a42.64,42.64,0,0,0,20.74-3.85l0,0c-4.17-5.92-5.25-9-4.83-14.25s4.92-13.67,8.5-19.67a52.68,52.68,0,0,0,4.51-10.86,22.13,22.13,0,0,0,15.9-9.31A26.45,26.45,0,0,0,352.42,258.84Z" fill="param(skin_tone)"/>
  </g>
  <g id="main-colour">
    <path d="M335.74,357.38c-.49-7.77-10.86-20.7-10.86-20.7s-6.5,3.72-17.16,3.89c-15.5.5-31-11.17-31-11.17-4,4.67-12.17,10-18.41,19.32s-5.59,22.44-5.59,22.44h0s0,.07,0,.1a25.5,25.5,0,0,0,45.14,16.26,25.51,25.51,0,0,0,37.88-30.14Z" fill="param(main_colour)"/>
    <path d="M278.23,328.6l2.11.72s1.08-1,1.5.58c1.13.83,7.08,3.83,7.08,3.83s.75-.46,1.42.58c1.88,1,7.67,2.83,7.67,2.83s.79-.83,1.58.25a26.12,26.12,0,0,0,13.5.63,1,1,0,0,1,1.71-.29c2.92-.92,5.33-1.83,5.33-1.83s.33-1.42,1.54-.67a6.58,6.58,0,0,0,.94-.45l3.11,4.11s-1,.46-1.93,1c0,.67-.79,1-1.75.71a38.69,38.69,0,0,1-6.17,2.17,1,1,0,0,1-1.62.54,44.78,44.78,0,0,1-15.83-.58c-.79.29-1.08.54-1.46-.25a51.64,51.64,0,0,1-8.92-3c-1.21.38-1.62.13-1.71-.71-1.67-.79-6.17-3.58-7.42-4.42-.87.17-1.46.25-1.46-1a12.72,12.72,0,0,1-1.88-1.71Z" fill="param(main_colour)"/>
  </g>
  <g id="fixed-colours">
    <path d="M311,350.45s3.32,13.7-.58,32.09C313.15,375.86,315.45,362,311,350.45Z" opacity="0.5"/>
  </g>
  <g id="outline">
    <path d="M307.66,333.57c1.05,0,1.45-1.69.36-3.44a29,29,0,0,1,.69-6.29S305.09,333.26,307.66,333.57Z"/>
    <path d="M316.56,227.78c-.27.19-.54.39-.8.6a45.79,45.79,0,0,1-4.92,2.38l3.08-.58a33.59,33.59,0,0,0,4.13-1c2.86-1.07,5.16-3.73,11-2.15-2.08-1.37-5.25-2.7-10.34-.47a13.57,13.57,0,0,1-8.33-7.28,32.56,32.56,0,0,1-2.86-11.7c-.75.08-1.51.13-2.26.18.29,3.66,1.23,10.58,4.2,14.44C312.57,226.21,315.34,227.42,316.56,227.78Z"/>
    <path d="M342.5,246.34a181.76,181.76,0,0,1-16.71-9.92c1.59,2.21,8.54,7.25,13,9.67,5.21,2.8,11.13,8.07,12.83,14.58,2,7.67,1.29,14.67-4.46,22.17S331,292.59,324.84,291a16.72,16.72,0,0,0,6.76,1.8,41.43,41.43,0,0,1-4.39,10.5c-4.42,7.33-7.08,13.75-8,18.75-.83,4.54.95,9.2,3,12.28l-.71.33a.91.91,0,0,0-.48-.16,1.15,1.15,0,0,0-1.12.83,42.54,42.54,0,0,1-5.28,1.71.7.7,0,0,0-.2-.09,1.13,1.13,0,0,0-1.24.42,29.85,29.85,0,0,1-6.08.67,31.52,31.52,0,0,1-7.65-1.14c-.27-.55-.68-.9-1.28-.35a67.53,67.53,0,0,1-8.17-3,.7.7,0,0,0-.67-.29,76.91,76.91,0,0,1-7.41-3.79c-.1-.67-.4-1.22-1.19-.89l-.16.08q-.82-.51-1.6-1a27.79,27.79,0,0,0,2.64-4.12c3.5-7,4.25-17,0-23.33s-7.83-9.08-12.75-19.17c-4.23-8.68-4.67-23.75-4.71-27.77,0-.41,0-1.11-.1-2a12,12,0,0,1,.54-24,7.81,7.81,0,0,1,2,.18,12,12,0,0,1,1.62.38,68.27,68.27,0,0,1,7.12,2.48,71.52,71.52,0,0,0,8.34,2.35,45.44,45.44,0,0,0,15.17.32c-7.64.23-15.54-1.92-20.85-3.88a21.35,21.35,0,0,0,11.69-8.45,27.22,27.22,0,0,0,4.47-12.86c-.71-.05-1.42-.1-2.12-.17a23.65,23.65,0,0,1-5.85,14.28,19.43,19.43,0,0,1-11.63,5.88,47.82,47.82,0,0,0-5.16-1.64A14,14,0,1,0,262.13,253c0,.18-.55,6.82,1.83,18.9,2.42,12.25,8.83,20,14.25,26.83s5.17,17.5.67,25.58-17.5,15.75-23.42,27.83a41.22,41.22,0,0,0-4.07,13,27.47,27.47,0,0,0,47.5,24.11c2.59-.47,7.87-1.79,11.69-5.06,0,0-6.36,3.26-12.66,3.26l-.05,0a25.48,25.48,0,0,1-45.15-16.23,25.7,25.7,0,0,1,.21-3.25h0s-.44-4.85,2.92-12.72a42.13,42.13,0,0,1,7.45-11c2.18-2.33,7.39-7.09,11.86-12q.95.8,1.91,1.53a.94.94,0,0,0,.11.53,1.25,1.25,0,0,0,1.41.6,51.18,51.18,0,0,0,7.46,4.43.83.83,0,0,0,.16.36,1.25,1.25,0,0,0,1.46.38,49.86,49.86,0,0,0,9.09,3,.69.69,0,0,0,.13.15,1.13,1.13,0,0,0,1.21.15,53.63,53.63,0,0,0,8.42,1,35,35,0,0,0,8-.62c.5.45,1.06.67,1.41-.2l0-.12a36.44,36.44,0,0,0,6.95-2.4c.61.32,1.23.39,1.34-.56,0,0,0-.07,0-.1.81-.42,1.39-.77,1.72-1,4,5.68,8.79,13.18,10.69,17.75,0,0-.75-5.5-6.92-14.67s-9.83-13-8.92-20.08c.77-5.92,5.19-13.63,8.09-18.78h0A51.47,51.47,0,0,0,334,292.7a18.84,18.84,0,0,0,4.74-1.11c4.38-1.62,14.89-7.68,16.27-20.81S350.63,250.4,342.5,246.34Zm-56.36,91.6a56.18,56.18,0,0,1-6.49-3.73,2.68,2.68,0,0,0,.25-.32c-1.1.56-2.82.43-1.31-2.07s3.11-3.36,3.3-.7c0,0,0-.1,0-.26,1.68,1,3.8,2.09,6.2,3.21A10,10,0,0,0,286.14,337.95Zm-10.25-6.56c.82-.93,1.6-1.86,2.33-2.78l1.3.83a10.1,10.1,0,0,0-2.16,3.16C276.65,332,276.15,331.62,275.9,331.39Zm12.8,7.73a2.65,2.65,0,0,0,.15-.26c-1,.73-2.71.87-1.62-1.84s2.45-4,3.31-1.62c0,0,0-.1,0-.27a61.62,61.62,0,0,0,6.92,2.47,10.11,10.11,0,0,0-1,4.16A52.36,52.36,0,0,1,288.7,339.12ZM299,342.34a2.28,2.28,0,0,0,.13-.38c-.75.63-2.33,1.29-1.83-1.58s1.5-4.4,2.6-1.92c0,0,0-.09,0-.22a37,37,0,0,0,6.86,1c0,.87-.05,2.51-.18,4A45.23,45.23,0,0,1,299,342.34Zm8.45.85a31,31,0,0,0,.22-4,30.48,30.48,0,0,0,5.13-.54,2.26,2.26,0,0,0,0,.24c.45-.87,1.64-2.1,2.31.74s.34,4.63-1.64,2.78l.11.18A32.77,32.77,0,0,1,307.47,343.19Zm8.67-1.14a10.2,10.2,0,0,0-.72-4,39.69,39.69,0,0,0,4.54-1.49,2.27,2.27,0,0,0,.08.24c.19-1,1-2.47,2.42.09s1.58,4.37-.83,3.13l0,0A38.18,38.18,0,0,1,316.15,342.05Zm7.92-3.11a10.36,10.36,0,0,0-1.63-3.44l.5-.26c.71.91,1.49,2,2.31,3.12Z"/>
    <path d="M272.46,277.47c9.5,26.25,31,21.75,38.63,19.13s18.75-11,19.75-27.37-14.75-25.5-14.75-25.5c9.25,8.25,12.25,16.88,12.38,23.88s-3.12,24.63-25.12,28.25S272.46,277.47,272.46,277.47Z"/>
    <path d="M267.72,342.82a8.25,8.25,0,0,0,13.17-4.5A11,11,0,0,1,267.72,342.82Z"/>
    <path d="M298.51,341.88a19.56,19.56,0,0,1,.69-3.56A4.93,4.93,0,0,0,298.51,341.88Z"/>
    <path d="M313.47,338.75a19.56,19.56,0,0,1,.76,3.55A4.93,4.93,0,0,0,313.47,338.75Z"/>
    <path d="M320.6,336.51a19.56,19.56,0,0,1,1.7,3.21A4.93,4.93,0,0,0,320.6,336.51Z"/>
    <path d="M288.07,338.74a19.56,19.56,0,0,1,1.42-3.34A4.93,4.93,0,0,0,288.07,338.74Z"/>
    <path d="M279.17,333.66a19.56,19.56,0,0,1,1.94-3.07A4.93,4.93,0,0,0,279.17,333.66Z"/>
  </g>
<script type="text/ecmascript" xlink:href="param.min.js"/> 
</svg>
