<?xml version="1.0"?>
<svg xmlns="http://www.w3.org/2000/svg" xmlns:xlink="http://www.w3.org/1999/xlink" viewBox="0 0 600 600">
  <title>default-top-hourglass</title>
  <g id="main-colour">
    <path d="M266.61,278.25s9.88,3.13,13.13-.25,7.13-14.25,15.71-22.71c-1.92-10.67-5.17-22.08-12.08-30.58a20.39,20.39,0,0,1,2.58-1.58A89.64,89.64,0,0,1,299.52,255c3.92,3.83,9.35,5.6,13.1,19.23a38.86,38.86,0,0,1,5.48-12.14c3.13-5,6.38-6.87,7.75-8.58-3.75-11-9.67-24.92-12.58-29.5a18.31,18.31,0,0,0,3.92,2.42s8.67,13.92,11.83,26.08c4,6.25,6.75,12.67,7.17,17.83s-1.58,12.33-1.58,12.33-1.5,1.67-7.17,1.92a23,23,0,0,1-10.92-2.17c-3.42-.58-5.75-.42-7.58.33-2.33,1.83-5.58,5.08-15.67,5.58s-24.42-3.67-24.42-3.67S266.77,279.75,266.61,278.25Z" fill="param(main_colour)"/>
  </g>
  <g id="outline">
    <path d="M312.61,276.5a37.81,37.81,0,0,1,14-22.37c-6-18.75-12.32-28.75-12.32-28.75a6.1,6.1,0,0,0,2.25,1.33c1.82,2.29,3.82,6.17,6.07,10.67s6,15.5,6,15.5a41,41,0,0,1,6.5,14.67c1.19,6.31-.25,11.33-1.17,15-2.77,1.23-11.21,2.71-16.83-.67a11.28,11.28,0,0,0-9.09.66l1,.84a11.35,11.35,0,0,1,7.5-.37c4.36,2.56,14.25,3.5,18.88.25,0,0,2.38-10.63.75-16.87a42.88,42.88,0,0,0-6.33-13.83c-2-4.75-7.67-20.92-12.24-26.5a20.19,20.19,0,0,1-6-4.5s8.82,15.46,13.69,31.83c-7.38,6.13-12.13,14.38-12.75,20.75"/>
    <path d="M319,280.88s8.83,3.83,15.75-.42C331,282,324.94,282,319,280.88Z"/>
    <path d="M287.94,285.88s11.25,1.67,19.33-4.25C303,283.63,298.19,285.55,287.94,285.88Z"/>
    <path d="M308,282.54c-2.37,2-4.71,3.77-11,4.92-8.79,1.62-23.72-1.79-26.81-3a46,46,0,0,1-2.12-5.12s8.63,2.94,13-1.75c2.72-2.91,4.88-10.81,15-22.12-1.67-10.75-5.57-22.29-11.86-30.5l1.56-1.19c2.38,2.94,6.64,10.43,9.81,19.81,3,8.88,3.38,12.25,3.38,12.25s10.11,4.5,13.61,20.63c.06-1.19.09-2.44.16-3.06C310.48,261,300.12,255,300.12,255s-4.25-19.12-14.25-32.62a34.49,34.49,0,0,1-2.94,2.25s8.67,11.75,11.92,30.25c-9.75,10-12.39,18.38-14.25,20.63-2.44,2.94-5.25,4.63-15.37,1.5.67,2.83,3.47,8.21,3.47,8.21s13.86,4.79,25,3.79c7.17-.64,11-1.62,16-6.12,0-.29,0-.57,0-.86A16.59,16.59,0,0,1,308,282.54Z"/>
  </g>
<script type="text/ecmascript" xlink:href="param.min.js"/> 
</svg>
