<?xml version="1.0"?>
<svg xmlns="http://www.w3.org/2000/svg" xmlns:xlink="http://www.w3.org/1999/xlink" viewBox="0 0 215 215">
  <title>hourglass-top-template</title>
  <g id="skin-tone">
    <path d="M116.94,99.93a12,12,0,0,0-16.88-2,12.43,12.43,0,0,0-4.1,12.8,84.42,84.42,0,0,0-.78,8.47c-.34,8.46.87,29.52,2.48,40.66s2.53,16.71,5.78,25.28c1.44,3.64,2.31,6.77,6,6.23s4.64-3.81,5.15-7.4,1.58-22.81,1.58-30.28-.09-24,.73-29.38c.53-3.5,1.66-9.05,2-13.15A12,12,0,0,0,116.94,99.93Z" fill="param(skin_tone)"/>
  </g>
  <g id="outline">
    <path d="M118.51,98.7a14,14,0,0,0-11-5.35h0a14,14,0,0,0-13.91,12.37,14.16,14.16,0,0,0-.06,2.78,13.13,13.13,0,0,0,.43,3.12,235,235,0,0,0,1.39,37c2.69,24.16,4.85,32.3,8.16,39.62a6.5,6.5,0,0,0,.63,1.35l.07.14,0,0c.12.18.24.36.38.54a5.9,5.9,0,0,0,10.21-1.72h0c.08-.28.16-.61.23-1,0,0,0-.1,0-.15.23-1.19.41-2.6.48-3.29.33-3.49,2.11-38.5,2-50.35-.06-7.14,1.42-14.05,2.12-19.55A14,14,0,0,0,118.51,98.7Zm-.63,14.52-.06.28c-.3,1.25-.29,2-.72,4.07-.67,4.41-1,8.86-1.38,11.35-.7,5.17-.37,24.78-.59,29.47-.2,4.37-.67,12.92-.88,17.43-.13,2.88-.32,6.75-.62,9.8a16.93,16.93,0,0,1-.59,1.89,3.87,3.87,0,0,1-1.37,2.2,3.78,3.78,0,0,1-4.88,0s-.21-.2-.23-.19c-1-.81-2.61-4.62-2.83-5.15a95,95,0,0,1-4.5-18.23c-1.31-9.95-3.49-36.55-3.37-42.86,0-2.44.12-5.27.14-7.86a51,51,0,0,0-.23-5.37,14.64,14.64,0,0,1-.23-2.64v-1.25a12,12,0,0,1,23.84-.48C119.65,108.22,118.53,110.22,117.89,113.22Z"/>
  </g>
<script type="text/ecmascript" xlink:href="param.min.js"/> 
</svg>
