<?xml version="1.0"?>
<svg xmlns="http://www.w3.org/2000/svg" xmlns:xlink="http://www.w3.org/1999/xlink" viewBox="0 0 215 215">
  <title>slender-top-template</title>
  <g id="skin-tone">
    <path d="M107.43,96.17A11.2,11.2,0,0,0,96.3,107.45l-.89.37c.08,2.56.64,18.53,2.28,36.47,1.8,19.59,5.19,38.23,6.47,43.39h0a5.31,5.31,0,0,0,10.59-.55s.15-13.1,1.06-27,2.58-33.52,3-38.77c.29-4,.61-10.12.74-12.77l-.83-1.31A11.2,11.2,0,0,0,107.43,96.17Z" fill="param(skin_tone)"/>
  </g>
  <g id="outline">
    <path d="M120.68,107.65c0-.12,0-.24,0-.37a13.2,13.2,0,1,0-26.27,1.85,5.43,5.43,0,0,0,0,.76c.29,6.35,1.17,24,2.67,39a345.37,345.37,0,0,0,6.26,39.24,6.18,6.18,0,0,0,.2.86h0a6.21,6.21,0,0,0,12.13-1.91c0-8.53,2-40.11,3-51.39.56-6.29,1.14-14.4,1.54-20.35.25-3.59.38-5.63.46-6.71,0-.07,0-.15,0-.22,0-.61.05-.84.05-.84Zm-2.35,7.24h0c-1,14.64-3.48,45.51-3.82,52.64-.26,5.43-.51,11.34-.67,15.24,0,2.32-.18,4.36-.18,4.36a4.2,4.2,0,0,1-8,1.78l-.07-.16c-.43-1.13-1.35-4.89-1.35-4.89-1.78-8-4-23-5.32-34.72C97.79,139,97,123.78,96.6,114.81h0c-.23-3.13-.3-7.37-.3-7.37,0-.32,0-.63,0-.94s.05-.5.09-.75a11.19,11.19,0,0,1,22.14,0c0,.22.06.45.08.67s.05.6.05.91C118.7,109.22,118.33,114.89,118.33,114.89Z"/>
  </g>
<script type="text/ecmascript" xlink:href="param.min.js"/> 
</svg>
