<?xml version="1.0"?>
<svg xmlns="http://www.w3.org/2000/svg" xmlns:xlink="http://www.w3.org/1999/xlink" viewBox="0 0 600 600">
  <title>midi-crew-neck-baggy-t-shirt-slender</title>
  <g id="main-colour">
    <path d="M333.29,249.21c-1-1.38-1.89-2.67-2.56-3.68l-.14-.3a11.19,11.19,0,0,0-14.31-16.6,3.12,3.12,0,0,0-1.56-.2l-.14-.05c1,2.93,3.66,6.82,3,10.42-1,5.05-12.08,10.38-23.18,3.08a25.34,25.34,0,0,1-10.29-13.63,14.27,14.27,0,0,1-2.16.69c-7.45-6.36-19.55-1.14-20,7.95s6,12.33,9.33,13.42c-1.25,5.92,1.32,21.18,2.47,27.83,1.63,9.38,4.66,20.41,6.5,28.91,3.38,15.59.78,18.59-6.39,31-7,12.12-9,16.95-11.41,26.55,2.8-1.57,8.23-3.48,16.79-2,13.38,2.38,24.5,7.25,36.5,5.25,8.9-1.48,13.33-5,16.25-9.47-.15-.46-.29-.92-.47-1.37,0,0,.6.35.6.34.08-1.37-.43-4.08-4.43-12s-4.57-12.7-4.73-21.12,1.82-20.63,3.91-27.88c1.08-3.75,2.8-8.6,4.32-14,5.4-3.13,8.21-9.24,9-15.06C341.29,259.71,335.62,252.38,333.29,249.21Z" fill="param(main_colour)"/>
  </g>
  <g id="outline">
    <path d="M337.36,253.63c-3.55-5-6.61-7.66-9.47-13.38,0,0,1.52,4.77,6.4,11.64,5.49,7.73,6.14,15.88,2.57,23a18.52,18.52,0,0,1-6.88,7.63l-.37,1.32h0c-5.83,20.48-10,35-7.15,49.88,2,9.07,6.82,15.19,9.27,23.39-7.31,12.36-25.88,11.71-44.23,6.11-12.58-3.84-20.09-2.29-23.41-1a72.91,72.91,0,0,1,5-12.91c2.09-4.08,7.37-12.46,11.16-20.32a58.54,58.54,0,0,1-3.9,16.94c3.67-5.67,5.5-14.63,6.19-22.39a45.58,45.58,0,0,0,0-7.91v-.05h0a114.65,114.65,0,0,0-2.94-16c-.82-3.57-1.85-7.53-2.94-11.57l0,.08a154.41,154.41,0,0,1-3.2-19,89.07,89.07,0,0,1-1.05-17.53h0c0-.22,0-.58,0-.95v-.2h0c0-.46,0-.86,0-.86h0a11.2,11.2,0,1,1,7.7-20.44h0l1.56.85c.44-.09.89-.14,1.29-.21h0l.15,0,.2,0c1.72,3.8,8.57,16.55,23.23,16.55a23.47,23.47,0,0,0,3.84-.32c3.84-.64,6-2.26,7.28-4.9,2.05-4.21-.55-9.65-1.89-12a7.93,7.93,0,0,0,.82-.51l.54-.24a11.26,11.26,0,0,1,8.35-.33c-2.58-2.5-7-2.5-8.89-1.64a18.37,18.37,0,0,0-3.58,2,6.28,6.28,0,0,0,.53.8c1,1.39,4.69,7.07,2.78,11-1,2-3.1,3.32-6.26,3.84a21.65,21.65,0,0,1-19.81-6.81,31.64,31.64,0,0,1-5.14-8.26l-.21-.51-.14-.38h0c-.12-.3-.25-.64-.38-1a11.65,11.65,0,0,1-2.67.84,13.37,13.37,0,0,0-7.75-2.54A13.19,13.19,0,0,0,269.92,251a111.13,111.13,0,0,0,1.32,17.67c.32,5.92,5.47,27.76,7.92,40a71.38,71.38,0,0,1,1.36,13.86c-3.71,9.73-10.89,19.91-14.6,27.9A60.3,60.3,0,0,0,261,366.77c.65-.5,1.23-.89,1.65-1.16v0a5,5,0,0,1,.46-.31l.14-.08,0,0h0c2-1.17,8.86-4.12,22.7-.37,7.95,2.15,16.44,4.29,24.39,4.29,8.71,0,17.86-3,22.76-11.36A47,47,0,0,0,329,345.63c-3-6.13-5.8-11.93-4.5-26.84,1-11.38,5-24.37,7.87-36.2,3.88-2.37,7-7,8.54-12.71C342.12,265.16,341.62,259.61,337.36,253.63Z"/>
    <path d="M314.16,358.18c.14-9.91,3.69-23.81,3.69-23.81A52,52,0,0,0,314.16,358.18Z"/>
    <path d="M267.11,359.63s6.25-3,19,1.13,23.13,5.13,27.5,4.38a89.8,89.8,0,0,1-17.5-2.18C289.61,361.45,273.86,354.75,267.11,359.63Z"/>
    <path d="M312.37,277.63c-6,6.91-12.37,8.5-20.22,7.6C299.45,288.84,309.53,285.36,312.37,277.63Z"/>
  </g>
<script type="text/ecmascript" xlink:href="param.min.js"/> 
</svg>
