<?xml version="1.0"?>
<svg xmlns="http://www.w3.org/2000/svg" xmlns:xlink="http://www.w3.org/1999/xlink" viewBox="0 0 150 150">
  <title>OA030-strappy-heel</title>
  <g id="skin-tone">
    <path d="M59.53,101.3a13.79,13.79,0,0,1,8,1.56c2.31,1.06,4.06,5.19,4.06,5.19A28,28,0,0,1,75,100.67c2.5-3.81,4.44-5.69,5.69-9.06s.5-5.37.25-7.56a44.77,44.77,0,0,1-.56-6.44c.06-2.19.56-7.62-5.62-7.94s-5.5,6.5-5.19,8.44.06,6.5-1.94,9.44S61.4,96,60.15,99.42Z" fill="param(skin_tone)"/>
    <path d="M68.31,113.11s-1.66-8.94-11.94-7.59c-2.25,1.22-3.66,1.81-3.84,2.75s.22,3.41,3.44,3.16a2,2,0,0,0,2.5.84,2.48,2.48,0,0,0,2.78.56,3.17,3.17,0,0,0,2.84.28,2.65,2.65,0,0,0,2.47.66Z" fill="param(skin_tone)"/>
  </g>
  <g id="main-colour">
    <path d="M80.61,81.82S81,84,81.23,85.9s.25,5-1.08,7.29S73.4,101.78,71.59,108c-1.69-4.35-5.4-7.73-12.44-6.65-.21,1.67-2.12,3.83-2.12,3.83s9.15-.67,11.28,7.88c-1.53.75-3.16,1.21-4.22,0-1.1.33-2.1.42-2.77-.46-.83.46-2.29.48-2.85-.39a1.93,1.93,0,0,1-2.5-.84c-.85.19-2.1.15-2.56-.46.5,2,.63,3.9,1.13,4.06s6.58,4.5,16.79.54c2.13-4.62,2.75-8.71,3.88-11.12a29.07,29.07,0,0,1,5.92-8.21c3-3.08,4-4.83,3.29-9.54Z" fill="param(main_colour)"/>
  </g>
  <g id="accent-colour-1">
    <path d="M83.71,93.42A54.3,54.3,0,0,0,75.34,104a69.3,69.3,0,0,1,.63,9.5l1.77,0,1.17-1.35a42.74,42.74,0,0,1,1.44-10,57.4,57.4,0,0,1,3.19-7.69Z" fill="param(accent_colour_1)"/>
  </g>
  <g id="fixed-colours">
    <path d="M55.51,109.9s.48-1.33-.4-1.94a2.74,2.74,0,0,0-2-.29,2.19,2.19,0,0,0-.31,1.06A3.53,3.53,0,0,1,55.51,109.9Z" fill="#fff"/>
    <path d="M55.8,110.15a2.76,2.76,0,0,1,1.77.48c.25-.44.4-1.58-1.5-1.5A3.9,3.9,0,0,0,55.8,110.15Z" fill="#fff"/>
    <path d="M58.13,110.69a2.25,2.25,0,0,1,1.83.58c.15-.9-.33-1.48-1.58-1.42A2.57,2.57,0,0,0,58.13,110.69Z" fill="#fff"/>
    <path d="M60.76,111.19a4.84,4.84,0,0,1,2.1.42c.21-.4-.12-1.48-1.87-1.19A2.15,2.15,0,0,0,60.76,111.19Z" fill="#fff"/>
    <path d="M64.13,111.57a3.31,3.31,0,0,1,2.17.46c.38-.56-.27-1.37-1.48-1.21A2.78,2.78,0,0,0,64.13,111.57Z" fill="#fff"/>
  </g>
  <g id="outline">
    <path d="M84.34,85c-.91-2-2.12-3.06-2.62-5s.1-4.4,0-5.47a6.76,6.76,0,0,0-7.19-6.29h0a6.76,6.76,0,0,0-6.27,6.25h0s0,0,0,.07a6.79,6.79,0,0,0,0,.87h0c0,1.66.63,4.46-.12,8.15s-2.81,5.88-4.81,8.5A35.76,35.76,0,0,0,59,100.67c-1.19,2.94-1.53,4-5.28,5.94a2.39,2.39,0,0,0-.78,4,44.42,44.42,0,0,0,1.25,4.56c5.25,3.5,13.66,2.72,17.69.66,1.41-1.81,2.11-6.32,3.37-10a61.2,61.2,0,0,1,.44,8l2.08.08a12.6,12.6,0,0,0,1.42-1.62,42.9,42.9,0,0,1,1.33-9,41.16,41.16,0,0,1,3.25-7.87,6,6,0,0,0,.81-2.3C86,90.65,85.17,86.86,84.34,85Zm-18,5.69a16.89,16.89,0,0,0,3.5-6.94c.75-2.87.5-6.69.43-8.68a4.74,4.74,0,0,1,4.41-4.86h0a4.75,4.75,0,0,1,5.05,4.42s-.11,2.62,0,3.93A7.59,7.59,0,0,0,80,80.26a36.16,36.16,0,0,0,.75,4.39,12.13,12.13,0,0,1-.87,8.13c-1.62,3.25-5.33,7.29-7,11-.53,1.19-1,2.32-1.37,3.37-.67-1.65-3.46-6.81-11.4-6.08.31-.78.63-1.59,1-2.42A39.06,39.06,0,0,1,66.34,90.74Zm-6.41,10.8c2.12-.17,8.88-.13,11.18,6.65a11.79,11.79,0,0,1-2,3.8,4.51,4.51,0,0,1-.56.48,9.54,9.54,0,0,0-4-5.57,9.8,9.8,0,0,0-6.67-1.81A9.24,9.24,0,0,0,59.92,101.54Zm1.41,10.85a1.46,1.46,0,0,1-.46-1.07,4.52,4.52,0,0,1,2.05.44c.35-1-.42-1.58-1.62-1.47a1.18,1.18,0,0,1,.56-.31A6.66,6.66,0,0,0,65,108.24a9.88,9.88,0,0,1,1.37,1.54l-.62.21a3.17,3.17,0,0,0-2.12,1.54,1.94,1.94,0,0,0,0,1.43A3.2,3.2,0,0,1,61.34,112.39Zm-.21-1.86c.54-.06,1.66-.06,1.61.89a5.09,5.09,0,0,0-1.82-.38A1.44,1.44,0,0,1,61.12,110.53Zm3.78.38c.56,0,1.39.1,1.31.92a2.42,2.42,0,0,0-1.8-.41A1.79,1.79,0,0,1,64.9,110.91Zm-.65.8a2.47,2.47,0,0,1,2.12.5c.35-.57.14-1.43-1.07-1.52.46-.2.91-.39,1.32-.6.07.1.15.19.22.3a16.64,16.64,0,0,1,1,2.44,4.41,4.41,0,0,1-3.15.4A1.09,1.09,0,0,1,64.26,111.71Zm-7.4-5.95a10.84,10.84,0,0,1,8,2.34,5.72,5.72,0,0,1-2,1.11c-1,.36-2,.53-2.34,1.44a2.28,2.28,0,0,0,.26,2,2,2,0,0,1-2.44-1.59c0-.1,0-.18,0-.27a2.77,2.77,0,0,1,1.76.58c.2-.78.07-1.58-1.38-1.72a5.86,5.86,0,0,1,1.87-1,3.36,3.36,0,0,0,1.64-2,4.71,4.71,0,0,1-2.36,1.79,3.55,3.55,0,0,0-2,1.17,1,1,0,0,0-.12-.24,1.67,1.67,0,0,0-1.27-.53,3.48,3.48,0,0,1,1.33-.94,4.43,4.43,0,0,0,1.94-1.87c-.77,1.3-3.33,1.86-3.94,2.69a1.19,1.19,0,0,0-.59-1,2.9,2.9,0,0,0-1.67-.39A28.87,28.87,0,0,1,56.86,105.76Zm-.64,3.52c1.39,0,1.43.7,1.25,1.15A3,3,0,0,0,56,110,2,2,0,0,1,56.22,109.27Zm-.16,1.55a3,3,0,0,1-.07-.53,5.53,5.53,0,0,1,1.58.47,3.26,3.26,0,0,0,.3,1.35A1.48,1.48,0,0,1,56.06,110.83Zm2.39-.87a1.25,1.25,0,0,1,1.45,1.15,2.77,2.77,0,0,0-1.6-.61A1.3,1.3,0,0,1,58.45,110Zm-5.27-2.16A2.38,2.38,0,0,1,55,108c.57.33.49,1.14.4,1.48a4.78,4.78,0,0,0-2.5-.92s0,0,0,0A1.89,1.89,0,0,1,53.18,107.8Zm-.35,1.14A3.74,3.74,0,0,1,55.39,110a3,3,0,0,0,.22,1.25,4,4,0,0,1-1.76-.36l-.07-.05-.15-.13-.07-.06-.3-.34A2.17,2.17,0,0,1,52.84,108.94ZM71,115.15c-4.87,2.71-13.25,1.38-16.12-.5a22.31,22.31,0,0,1-.78-3,2.69,2.69,0,0,0,1.82.14,2.73,2.73,0,0,0,.29.35,2.44,2.44,0,0,0,2.12.57,2.37,2.37,0,0,0,.88.55,3.44,3.44,0,0,0,2.07,0,1.85,1.85,0,0,0,.27.17,3.82,3.82,0,0,0,2.61.25,2.31,2.31,0,0,0,1,.47c1.61.33,3.57-.33,5-2.46a26.81,26.81,0,0,0,2.71-6.25,33,33,0,0,1,4.63-7.67c2-2.62,4.13-5.62,4.25-9.08A25,25,0,0,0,81,82.74a12.79,12.79,0,0,0,1,1.62,9.2,9.2,0,0,1,1.83,6c-.17,2.25-3.67,6.17-5.62,8.46A27,27,0,0,0,74,106.15C73.4,107.9,72.44,112.19,71,115.15Zm4.86-10.94c.13-.29.26-.58.4-.85a18.19,18.19,0,0,1,1.22-2l-.23,11.87c-.25,0-.61,0-1-.08A74.76,74.76,0,0,0,75.84,104.21Zm3.77-.77a42.58,42.58,0,0,0-1,8.71l-.88.95a95.44,95.44,0,0,1,.44-12.68c1.49-1.93,3.23-3.67,4.63-5.18C82,97.41,80.33,101,79.61,103.44Z"/>
  </g>
<script type="text/ecmascript" xlink:href="param.min.js"/> 
</svg>
