<?xml version="1.0"?>
<svg xmlns="http://www.w3.org/2000/svg" xmlns:xlink="http://www.w3.org/1999/xlink" viewBox="0 0 215 215">
  <title>hourglass-top-template</title>
  <g id="skin-tone">
    <path d="M116.94,99.93a12,12,0,0,0-16.88-2,12.43,12.43,0,0,0-4.1,12.8,84.42,84.42,0,0,0-.78,8.47c-.34,8.46.87,29.52,2.48,40.66s2.53,16.71,5.78,25.28c1.44,3.64,2.31,6.77,6,6.23s4.64-3.81,5.15-7.4,1.58-22.81,1.58-30.28-.09-24,.73-29.38c.53-3.5,1.66-9.05,2-13.15A12,12,0,0,0,116.94,99.93Z" fill="param(skin_tone)"/>
  </g>
  <g id="outline">
    <path d="M119.38,105.59c.29,2.6-.85,4.61-1.5,7.63-1.19,5.55-1.71,12.37-2.16,15.71-.7,5.17-.37,24.78-.59,29.47-.2,4.37-.67,12.92-.88,17.43-.09,1.87-.19,4.16-.34,6.37a41.55,41.55,0,0,1-.87,5.32,3.87,3.87,0,0,1-1.37,2.2,3.78,3.78,0,0,1-4.88,0s-.21-.2-.23-.19c-1-.81-2.61-4.62-2.83-5.15a95,95,0,0,1-4.5-18.23c-1.31-9.95-3.49-36.55-3.37-42.86.08-4,.23-9.15.09-12.51a13,13,0,0,1-.41-3.36v-2.51a3.59,3.59,0,0,0-2,3.5,13.53,13.53,0,0,0,.43,3.27,235,235,0,0,0,1.39,37c2.69,24.16,4.85,32.3,8.16,39.62a6.5,6.5,0,0,0,.63,1.35l.07.14,0,0c.12.18.24.36.38.54a5.91,5.91,0,0,0,8.29,1,5.85,5.85,0,0,0,1.92-2.71h0c.08-.28.16-.61.23-1,0,0,0-.1,0-.15.23-1.19.41-2.6.48-3.29.33-3.49,2.11-38.5,2-50.35S121.64,110.71,119.38,105.59Z"/>
  </g>
<script type="text/ecmascript" xlink:href="param.min.js"/> 
</svg>
