<?xml version="1.0"?>
<svg xmlns="http://www.w3.org/2000/svg" xmlns:xlink="http://www.w3.org/1999/xlink" viewBox="0 0 150 150">
  <title>OA030-strappy-heel</title>
  <g id="skin-tone">
    <path d="M81.53,103.36A114.74,114.74,0,0,0,81,91.24C80.34,86,79.09,83,79.53,80.36s2-6.06.19-8.56a6.08,6.08,0,0,0-7.94-1.62C69,71.67,69,75.8,69.71,77.42a12.56,12.56,0,0,1-.12,7.88C68.59,88,66,95.49,65.15,99.11S63.9,106,63.9,106a16.21,16.21,0,0,1,8.88-4.44C78.4,100.67,81.53,103.36,81.53,103.36Z" fill="param(skin_tone)"/>
    <path d="M82.15,108.24a17.15,17.15,0,0,0-7.37-1.62c-4.31,0-10.42,4-11.4,5.35,0,1.34.21,2.78,2.52,2a2.17,2.17,0,0,0,3.19.56c.56.88,2.25,1.06,3.38-.37.75,1,2.81,1,4.19-.37a3.75,3.75,0,0,0,4.31.69C82.65,113.55,84.15,112.61,82.15,108.24Z" fill="param(skin_tone)"/>
  </g>
  <g id="main-colour">
    <path d="M81.15,102.89a15.2,15.2,0,0,0-6.56-1.37c-3.66.09-6.53.63-10.47,4.5a40.41,40.41,0,0,0-1,5.94,25.41,25.41,0,0,1,8.9-5c4.81-1.31,10.13,1.25,10.13,1.25Z" fill="param(main_colour)"/>
    <path d="M81.9,114.14s-3.41,1.78-5.25-.34c-1,1-2.94,1.81-4.19.38-1,1-2.56,1.72-3.44.5-1.06.69-2.56.53-3-.66-1.09.19-2.19.47-2.81-.78a18.61,18.61,0,0,0,1.19,4.66s10.94,3.06,17-.81C81.62,116.24,81.9,114.14,81.9,114.14Z" fill="param(main_colour)"/>
  </g>
  <g id="fixed-colours">
    <path d="M81,111.32a1.9,1.9,0,0,0-2-2,2.13,2.13,0,0,0-2.18,2.2A7.42,7.42,0,0,1,81,111.32Z" fill="#fff"/>
    <path d="M75.09,111.9s.06-1.31-1.17-1.27a1.44,1.44,0,0,0-1.44,1.48A4.33,4.33,0,0,1,75.09,111.9Z" fill="#fff"/>
    <path d="M71.07,112.42s.1-1.21-.79-1.19a1.34,1.34,0,0,0-1.15,1.25A4.76,4.76,0,0,1,71.07,112.42Z" fill="#fff"/>
    <path d="M67.84,112.55s0-.92-.75-.92c-.33,0-.67.38-.79.94A6.27,6.27,0,0,1,67.84,112.55Z" fill="#fff"/>
    <path d="M65.21,112.42s0-.77-.44-.92-.79.46-.87.63A4.33,4.33,0,0,1,65.21,112.42Z" fill="#fff"/>
  </g>
  <g id="outline">
    <path d="M82.67,106.25c-.78-3.34-.18-5.25-.27-8.62s-.74-9.41-1.32-11.08a13.86,13.86,0,0,1-.8-5.28c.23-3,1.33-3.67,1.46-5.83a6.76,6.76,0,0,0-6.28-7.18h0a6.7,6.7,0,0,0-7.1,7.84v.11c0,.1,0,.2.06.31.26,1.24,1.23,2.62,1.25,4.17,0,1.95-1.43,6-2.42,8.82a75.43,75.43,0,0,0-3,10.27,94.67,94.67,0,0,1-1.61,9.9c-.7,2.41-.23,4.52,1.53,8.88,12.22,3.19,17.73-.94,17.73-.94a13.66,13.66,0,0,0,.66-3.28C84.56,112,83.45,109.59,82.67,106.25Zm-.9,7.18a3.61,3.61,0,0,1-3.55,1c-1.55-.27-2.38-2.14-1.62-4a8,8,0,0,0,.46-3.05,24.62,24.62,0,0,1,4.42,1.09c.23,1,.44,2,.54,2.66A4.69,4.69,0,0,1,81.77,113.43ZM80.59,103a35.13,35.13,0,0,0,.68,4.51A13.68,13.68,0,0,0,72,106.7a19.63,19.63,0,0,0-8.43,4.53c.18-1.41.6-3.84.93-5.27A15.54,15.54,0,0,1,80.59,103Zm-16.82,9.3a5,5,0,0,1,1.51.34.9.9,0,0,0-.49-1.23,1,1,0,0,0-.92.45l0-.14a26.09,26.09,0,0,1,3.72-2.42,8.81,8.81,0,0,1-1.27,1.66,3,3,0,0,0-.79,2.6c0,.11.07.19.1.29a2.23,2.23,0,0,1-1.46,0C63.83,113.63,63.67,113,63.77,112.25Zm.3-.23a.68.68,0,0,1,.73-.41c.22.05.33.45.35.7A2.87,2.87,0,0,0,64.07,112Zm3-1.23a3.94,3.94,0,0,0,.91-1.73,22,22,0,0,1,2.71-1.17,4.71,4.71,0,0,1-.72,2c-.65.91-1.62,1.54-1.68,3a3.16,3.16,0,0,0,.43,1.71,1.67,1.67,0,0,1-2.41-.56C65.79,112.78,65.95,112,67.08,110.78ZM69,113.7a2.46,2.46,0,0,1-.1-.89,4.34,4.34,0,0,1,2.3-.21s.11-1.63-.85-1.56a1.39,1.39,0,0,0-.95.41c.23-.39.52-.8.84-1.28a4.17,4.17,0,0,0,.63-2.36l.84-.26a9.24,9.24,0,0,1,1.53-.29A12.64,12.64,0,0,1,71.73,112a2.71,2.71,0,0,0,.37,2.2C70.75,115.48,69.38,114.92,69,113.7Zm.22-1.29a1,1,0,0,1,1-1c.56-.06.77.4.73.87A3.57,3.57,0,0,0,69.25,112.4Zm3.45,1.5a2.18,2.18,0,0,1-.39-1.51,5,5,0,0,1,2.91-.26,1.31,1.31,0,0,0-1.64-1.61,1.67,1.67,0,0,0-.82.46l.14-.27a5.23,5.23,0,0,0,.46-3.47,14.9,14.9,0,0,1,3.46.08,12,12,0,0,1-.76,2.89,4,4,0,0,0,0,3.54C75.06,114.75,73.45,115,72.69,113.9Zm-.06-2a1.25,1.25,0,0,1,1.17-1.15.9.9,0,0,1,1.11,1A4.58,4.58,0,0,0,72.64,111.93ZM70.39,85.48C71,83.26,71.53,80.42,71,79c-.23-1.12-.59-2.22-.72-3.23,0-.15,0-.31,0-.46v-.12a4.67,4.67,0,0,1,0-.5,4.75,4.75,0,0,1,5.05-4.42h0a4.87,4.87,0,0,1,4.42,5.05,11.5,11.5,0,0,1-.86,3.61,9.32,9.32,0,0,0-.45,3.31c.15,1.56.93,3.71,1.5,7.94a107,107,0,0,1,.6,11.8c0,.08,0,.16,0,.23-8.42-3.06-13.9,1-15.83,2.78.37-1.72.69-4.53,1.47-7.42C67,94.39,69.74,87.7,70.39,85.48Zm-5.67,31.86a15.74,15.74,0,0,1-.93-3.06,1,1,0,0,0,.33.24,3.64,3.64,0,0,0,1.85-.07,1.74,1.74,0,0,0,1.38.86A3.07,3.07,0,0,0,69,115a1.83,1.83,0,0,0,1.52.67,3.52,3.52,0,0,0,2-.89,2,2,0,0,0,1.8.62,4.21,4.21,0,0,0,2.29-.93,4,4,0,0,0,3.46.73,2.8,2.8,0,0,0,1.21-.46c-.06.38-.16,1-.33,2C78.16,118.47,70.1,118.84,64.72,117.33Z"/>
    <path d="M78.8,109.2a2.41,2.41,0,0,0-2.17,2.64,8.33,8.33,0,0,1,4.55-.33A2.06,2.06,0,0,0,78.8,109.2Zm-1.73,2.06c0-.81.77-1.54,1.83-1.68A1.51,1.51,0,0,1,80.73,111,7.68,7.68,0,0,0,77.08,111.26Z"/>
    <path d="M67.92,112.71c.18-.79-.21-1.27-.81-1.21a1.26,1.26,0,0,0-1,1.33A3.78,3.78,0,0,1,67.92,112.71Zm-.79-1c.25,0,.54.19.59.63a6.17,6.17,0,0,0-1.28.09A.82.82,0,0,1,67.12,111.75Z"/>
  </g>
<script type="text/ecmascript" xlink:href="param.min.js"/> 
</svg>
