<?xml version="1.0"?>
<svg xmlns="http://www.w3.org/2000/svg" xmlns:xlink="http://www.w3.org/1999/xlink" viewBox="0 0 600 600">
  <title>default-top-hourglass</title>
  <g id="main-colour">
    <path d="M353.4,260c-1.75-6.58-6.83-9.67-12.5-11.33-12.33-7.08-23.5-22.42-23.5-22.42a9.4,9.4,0,0,1-3.92-2.17c3.58,7.58,13.25,18.67,23.75,28.08-.18.4-.35.81-.52,1.21-4.86,6-7.69,19.83-7.69,19.83a16.93,16.93,0,0,0-2.62-6c-3.83-6.25-14.37-10.37-24.75-11.12-7.25-22.67-15.83-32.92-15.83-32.92s-1,.67-2.25,1.67c5.75,7,11.33,20.83,13.5,32.08-6.5,7.92-12,16.54-16.79,19.54s-13.87.5-13.87.5l2.88,7.63s7.46,5.75,11.79,7.92,13.08,5.92,20.67,5.42a35.55,35.55,0,0,0,18.08-6.83c1.92-.42,7,.5,10.33,1s10.08.42,17.67-7.75S355.15,266.63,353.4,260Z" fill="param(main_colour)"/>
  </g>
  <g id="outline">
    <path d="M338.23,251.88c-13.08-9.33-23.42-26.25-23.42-26.25a5.41,5.41,0,0,0,1.89.92,104.32,104.32,0,0,0,13.45,14.83c4,3.75,6.08,5.8,10.08,8.17,5.42,1,9.42,4,11.54,8s2.35,13.46-.23,20-10.31,12.31-17.14,13.81c-5.58,1.23-6.5-2.52-14-1.08-.21.24-1,1.51-1.27,1.73,6-2.58,10,3.79,18.75-.08,12.15-5.38,21.35-17.66,15.83-33.75-3-8.62-11.33-9.62-12.92-10.25-2.92-1.92-8.67-5-23.28-21.83a20.2,20.2,0,0,1-6-4.5s6,15.25,24.49,30.83c0,0-6.25,9.38-7.37,20.25a17.29,17.29,0,0,0,.5,4A84.84,84.84,0,0,1,338.23,251.88Z"/>
    <path d="M333.07,287.69a13.7,13.7,0,0,0,14-5.23,11.72,11.72,0,0,0,.88-1.61S342.51,288.57,333.07,287.69Z"/>
    <path d="M290,292.61s7,5.07,17.25,1.77,14.54-10.56,14.54-10.56-6,7.05-14.64,9.8S290,292.61,290,292.61Z"/>
    <path d="M320.42,290.23c-4,3.31-9.53,5.48-16.14,6.9-11.94,2.56-28.28-7.9-33.87-12.5a62.25,62.25,0,0,1-2.5-6.25,14.61,14.61,0,0,0,11.5-.62c6.88-3.5,10.25-10.5,18.5-20.37-1.67-10.75-7.36-24.17-13.65-32.37l1.56-1.19c2.38,2.94,6.84,10.81,10.72,20.31a110.42,110.42,0,0,1,4.63,12.75s29.65,2.2,26.5,20.86a32,32,0,0,1-2,7.56,16.22,16.22,0,0,0,3.67-8.33s0,0,0-.07c1.48-20.52-27.06-21.39-27.06-21.39s-6.4-19.62-16.4-33.12a34.51,34.51,0,0,1-2.94,2.25,77.18,77.18,0,0,1,13.47,32.25c-12.4,14.75-11.62,14.38-13.5,16s-7.12,8.25-18.12,2.13a38.15,38.15,0,0,0,3.93,10.21s16.88,14.2,30.57,13.54c10.09-.48,18.22-3.13,23.53-8.21C321.91,290.44,321.09,290.33,320.42,290.23Z"/>
  </g>
<script type="text/ecmascript" xlink:href="param.min.js"/> 
</svg>
