<?xml version="1.0"?>
<svg xmlns="http://www.w3.org/2000/svg" xmlns:xlink="http://www.w3.org/1999/xlink" viewBox="0 0 150 150">
  <title>OA030-strappy-heel-slender</title>
  <g id="skin-tone">
    <path d="M80.49,76.86c-.25-2.06-.31-5.69-3.62-6.87s-6.37,1.38-7.12,3.38.19,5.81-1.25,8.69S65.18,86.8,62.62,90s-4.87,8.94-4.87,8.94a10.55,10.55,0,0,1,6.69-.56A7.72,7.72,0,0,1,69.37,102a10.24,10.24,0,0,1,3.13-4.56c2.13-1.5,5-1.37,7.44-5.69s1.25-8.37.94-10.12Z" fill="param(skin_tone)"/>
    <path d="M66.53,107.11a11,11,0,0,0-6.29-4.29,18.88,18.88,0,0,0-9.17.58c-1.08.42-1.87,2.42-.33,2.77a2.59,2.59,0,0,0,1.88,1.4,1.61,1.61,0,0,0,2,.92c.88.92,2.89.81,2.89.81A4.36,4.36,0,0,0,61,110.4c2.25-.25,2.92-.62,3.83-1.33Z" fill="param(skin_tone)"/>
  </g>
  <g id="main-colour">
    <path d="M80.95,78.19a9.88,9.88,0,0,0,2.58,5.5c2.33,2.42,3.58,5,2.08,8.67s-2.83,4-6.33,4.92-4.92,1.25-7.42,5.5-4.17,8.5-7.92,10.5c-5.25.33-11.5-.58-12.5-1.17a16.82,16.82,0,0,1-1.29-6l.63.29a1.7,1.7,0,0,0,1.71,1.13,1.92,1.92,0,0,0,2.13,1,3.57,3.57,0,0,0,3.05.81c1.32,1.07,3.07,1.65,5.82.48s3-2.67,3-2.67-4-6.79-13.75-4.17a.67.67,0,0,0,.08-.42,9.5,9.5,0,0,0,4.38-3.39c2.17-.82,3.92-1.61,6.75-1s5.33,3.75,5.33,3.75,1.5-3.54,3.79-4.75,4.79-2.29,6.33-4.54a11.54,11.54,0,0,0,1.83-7.71C81,82.28,80,79.61,80.95,78.19Z" fill="param(main_colour)"/>
  </g>
  <g id="accent-colour-1">
    <path d="M85,94.3a7.6,7.6,0,0,1-4,2.56,47.88,47.88,0,0,0-5.31,2.06s1.81,7.75.63,14.38c1.13,0,2,.19,2-.06a36.07,36.07,0,0,1,1.75-8.56,31.49,31.49,0,0,1,3.63-6.87C84.68,96.55,85.49,94.92,85,94.3Z" fill="param(accent_colour_1)"/>
  </g>
  <g id="fixed-colours">
    <path d="M57.64,106.78a5.32,5.32,0,0,1,3.58,1c.48-.56.71-1.08-.42-1.6a3.4,3.4,0,0,0-2.06-.29Z" fill="#fff"/>
    <path d="M55.51,105.46a6.68,6.68,0,0,1,1.27.15c.42.13.94.67.31,1.13a3.94,3.94,0,0,0-2.46-.44Z" fill="#fff"/>
    <path d="M52.39,106a4.08,4.08,0,0,1,1.83.29c.15-.52.1-1.06-.67-1.1s-.77,0-.77,0Z" fill="#fff"/>
    <path d="M50.85,105.38a2.52,2.52,0,0,1,1.27.27c.06-.46-.12-.9-1-.83Z" fill="#fff"/>
    <path d="M50.18,104.3s.58.15.6.65c.23-.27.56-.71-.25-1.08A1.51,1.51,0,0,0,50.18,104.3Z" fill="#fff"/>
  </g>
  <g id="outline">
    <path d="M83.12,80.92A11.16,11.16,0,0,1,81.75,75,6.76,6.76,0,0,0,75,68.25h0A6.76,6.76,0,0,0,68.25,75s0,.08,0,.12c0,.5.19,5-.92,7.45-.72,1.58-2.09,2.8-4,5.17a53.85,53.85,0,0,0-5.25,8.56c-.75,1.63-1.94,3.94-4,5.06s-3.5,1.06-4.44,2.38a2.24,2.24,0,0,0,.13,2.63,23.39,23.39,0,0,0,1.38,6.13c1.69.81,7.46,1.83,13.21,1.33,4.31-2.94,7-9.33,9-12.27a7.26,7.26,0,0,1,1.78-1.84c1.92,5.8.76,14,.76,14h2.72c.75-10.31,4.63-14.69,6.25-17a7.52,7.52,0,0,0,1.32-3.3,11.67,11.67,0,0,0,.87-2.89C87.74,86.55,84.37,83.11,83.12,80.92ZM65.05,87.86c3.06-3.19,3.81-4.62,4.49-6.64s.69-6,.69-6,0-.23,0-.23A4.75,4.75,0,0,1,75,70.25h0A4.75,4.75,0,0,1,79.75,75a25.66,25.66,0,0,0,.43,3.69c.06.81.17,1.78.35,2.87.54,3.13.88,5.83-.58,9.13a9,9,0,0,1-5,5.08,10,10,0,0,0-5.21,4.75l-.41.84c-4.19-5.32-9-3.83-11-2.81.35-.65.62-1.29.86-1.82A34,34,0,0,1,65.05,87.86ZM57.76,99.38A8.84,8.84,0,0,1,68.95,102a50.28,50.28,0,0,1-2.5,4.37c-4.08-4.91-9.52-4.64-13-3.77l.51-.2A7.72,7.72,0,0,0,57.76,99.38Zm2.52,6.73c.68.15,1.65.78.9,1.44a5.79,5.79,0,0,0-3.07-.95,2,2,0,0,1,.82-.57A5.65,5.65,0,0,1,60.28,106.11Zm-2.82.32a.67.67,0,0,0-.44-.85,2.22,2.22,0,0,0-.82-.18l1-.37a6,6,0,0,0,2.46-1.83,16.2,16.2,0,0,1-3.5,1.71,4.24,4.24,0,0,0-1.65,1,.75.75,0,0,0-.56-.75,1.55,1.55,0,0,0-.59-.06,2.81,2.81,0,0,1,1-.42,4.17,4.17,0,0,0,2.71-2c-.87,1.17-2.33,1.33-3.08,1.58a2.59,2.59,0,0,0-1.64,1.12.81.81,0,0,0,0-.32c-.12-.37-.54-.41-.84-.39a1.77,1.77,0,0,1,.73-.53c.92-.33,2.75-1.29,2.75-1.29-.87.4-2.74,1-3.66,1.46a.58.58,0,0,0-.35-.44c5.58-2,9.41-1.14,11.84.26a3.6,3.6,0,0,1-2.32,1A3.75,3.75,0,0,0,57.46,106.43Zm-4.49-1a2.27,2.27,0,0,1,.77,0c.41.09.56.38.34.75a4.46,4.46,0,0,0-1.42-.27A1.65,1.65,0,0,1,53,105.41Zm2.6.26a2.37,2.37,0,0,1,1.2.09c.61.23.47.69.28.81a3.55,3.55,0,0,0-2.12-.43A2,2,0,0,1,55.57,105.68Zm-4.33-.77c.66-.07.92.29.77.62a2.9,2.9,0,0,0-.95-.24A1.68,1.68,0,0,1,51.24,104.9Zm-.64-.84c.34.13.38.32.33.46l-.12.1a.73.73,0,0,0-.4-.37A1.61,1.61,0,0,1,50.6,104.06Zm.4,1.43a5.27,5.27,0,0,1,1.11.24,2.16,2.16,0,0,0,0,1.5,2,2,0,0,1-.8-.62A1.38,1.38,0,0,1,51,105.49Zm1.56.71a2.66,2.66,0,0,1,1.55.35,1.92,1.92,0,0,0,.19,1.8,2.05,2.05,0,0,1-1.49-.82A1.85,1.85,0,0,1,52.57,106.2Zm2,1a2.15,2.15,0,0,1,.21-.82,3.29,3.29,0,0,1,2.4.5l.05-.07a3.1,3.1,0,0,0-.29.92,2.11,2.11,0,0,0,.18,1.21C55.72,109,54.42,108.56,54.53,107.24Zm3.33-.29a5,5,0,0,1,3.41,1c.91-.87.53-1.43-.22-1.84a3,3,0,0,0-1.3-.3l.74-.11a3.12,3.12,0,0,0,2.31-1.44,10.06,10.06,0,0,1,3.13,2.89,8.4,8.4,0,0,1-1.86,2c-1.75,1.17-4.67,1.08-5.62.38A1.92,1.92,0,0,1,57.86,106.95Zm-7.69-2.21a1.19,1.19,0,0,1,.1-.29,1,1,0,0,1,.37.36,1.45,1.45,0,0,0-.18,1.08A1.55,1.55,0,0,1,50.18,104.74Zm21.63-3c-1.56,2.44-3.19,6.75-7.87,10.94a32.56,32.56,0,0,1-12.12-1.06,27,27,0,0,1-1-4.86l.1.19a2.43,2.43,0,0,0,1.51.89,2.55,2.55,0,0,0,.57.61,2.53,2.53,0,0,0,1.76.42l0,0a3.63,3.63,0,0,0,2.77.71,4,4,0,0,0,3.06,1.21,6.48,6.48,0,0,0,5.33-2.37c1.54-1.79,3.33-5.54,4.17-7.17a9.23,9.23,0,0,1,4.83-4.67,10.29,10.29,0,0,0,5.75-5.46,12.08,12.08,0,0,0,.88-7.71c-.17-.79-.35-1.63-.5-2.43a22.64,22.64,0,0,0,3,4.66,7.15,7.15,0,0,1,.31,7.75c-1.62,2.56-4.19,3.25-6.87,3.94S73.37,99.3,71.8,101.74Zm6.13,11.06H76.7c1.06-7.45,0-12.23-.41-13.77a37.06,37.06,0,0,1,5.14-1.67,8.49,8.49,0,0,0,2.83-1.46c-.73,1.41-2.2,3-3.77,6.33A32.52,32.52,0,0,0,77.93,112.8Z"/>
  </g>
<script type="text/ecmascript" xlink:href="param.min.js"/> 
</svg>
