<?xml version="1.0"?>
<svg xmlns="http://www.w3.org/2000/svg" xmlns:xlink="http://www.w3.org/1999/xlink" viewBox="0 0 250 250">
  <title>OA030-strappy-heel-slender</title>
  <g id="main-colour">
    <path d="M110.28,214s4.38,2.94,10.81.47c.38,2.22,1,4.84,1,4.84s-4.94,3.75-11.53.06A21.55,21.55,0,0,0,110.28,214Z" fill="param(main_colour)"/>
    <path d="M115,215.54a7.73,7.73,0,0,1-4.75-1.53s.25,2.91.31,5.38a10.13,10.13,0,0,0,4.66,1.66S115.09,217.48,115,215.54Zm-1.31,3.56s-1.44-.25-1.78-.69c0-.87,0-2,0-2a5.79,5.79,0,0,0,1.75.41A22.43,22.43,0,0,1,113.72,219.11Z" fill="param(main_colour)"/>
  </g>
  <g id="outline">
    <path d="M121.42,213.94c-7.75,3.17-11.84-1.15-11.84-1.15a35.57,35.57,0,0,1,.63,6.94c7.63,4.13,12.29-.22,12.29-.22S121.88,216.48,121.42,213.94Zm-10.54.88a8.64,8.64,0,0,0,3.85,1.19l.14,4.53a10.37,10.37,0,0,1-3.74-1.27A42.79,42.79,0,0,0,110.88,214.81Zm4.74,5.8-.14-4.56a13.84,13.84,0,0,0,5.36-1c.54,2.58.83,4,.83,4A10.66,10.66,0,0,1,115.61,220.61Z"/>
    <path d="M114,216.65a5.31,5.31,0,0,1-2.37-.71l.13,2.67a5.17,5.17,0,0,0,2.25.79C114,217.65,114,216.65,114,216.65Zm-1.79,1.67c0-.75,0-1.5,0-1.5a3.55,3.55,0,0,0,1.29.29c0,.71.08,1.71.08,1.71A2.6,2.6,0,0,1,112.17,218.31Z"/>
  </g>
<script type="text/ecmascript" xlink:href="param.min.js"/> 
</svg>
