<?xml version="1.0"?>
<svg xmlns="http://www.w3.org/2000/svg" xmlns:xlink="http://www.w3.org/1999/xlink" viewBox="0 0 600 600">
  <title>slender-top-template</title>
  <g id="main-colour">
    <path d="M271.76,265.8a16.42,16.42,0,0,1,7.92-4.92c3.25-6.17,10.42-10.75,16.17-11.17s13.9,1,17.65,4.54c3.25-5.42,12.88-9,20.88-3.62,8.63,12.75,5.75,18,4.5,22.13-.61,2-4.25,7.63-7.64,9.65-2.08,8.28-4.53,16.21-5.79,22.22-1.58,7.5-4.92,20.33.92,29.92s8.75,10.75,13.92,20.08,5,15.33,9.58,21.92S361.1,388.88,370.76,389c-1.75,4.5-8.17,9.67-8.17,9.67l4.33,1.42s-6.92,11.42-28.5,15.25a24.8,24.8,0,0,0,4.08,3.42S325.85,431,300.85,431.3s-39.67-6.08-51.92-14.75a13.41,13.41,0,0,0,3.33-2.83s-18.17-2.92-25-21.5a21.87,21.87,0,0,0,19.83-13c3.92-8.5,11.5-27.58,20.75-39.08s16-18.25,16.17-27.75-4.83-20.08-6.58-25S271.76,265.8,271.76,265.8Z" fill="param(main_colour)"/>
  </g>
  <g id="outline">
    <path d="M372.26,388.25a28.72,28.72,0,0,1-18-8C347.14,373.71,347,367,342.47,357s-11-16.58-15.58-23.5-1.83-20.42-.92-25.33,5.4-20.75,6.4-25.58a22.26,22.26,0,0,0,9.25-16.25c.63-6.37-3.25-11.87-6.87-16.5-7.58-4.42-16.54-3.58-21.62,3.25-13.75-9.5-27.4-3.75-34.4,6.83a29.8,29.8,0,0,0-8.08,5.08c1.13,9.79,5.75,22.58,9,31.83s4.13,13.88,2.25,21.13-8.62,11.88-18,25.75-14,27.5-18.5,35.88S231.64,391.75,225.51,391A35.25,35.25,0,0,0,250,414.25q-1.52,1.19-3.16,2.26c15.5,15.38,65.87,25.75,97.75,2.38-1.35-1-2.62-2-3.83-3,10.62-1.71,23.8-8.33,27.7-16.38-1.33-.3-2.61-.67-3.84-1.05C366.2,397.18,370.62,393.18,372.26,388.25ZM338.91,414.2c-10.91-10.1-15.77-22-17.28-25.57C324.26,401,331,410.13,341,418.75c-8.75,6.38-50.75,23.38-90-1.87,12.62-10.75,18.75-28.5,19.62-35.12,0,0-4.9,18.67-18.52,30.76-10-2.06-20-11.21-23-19,1.5.13,7.75-1.67,11.75-4.29,7.24-4.75,11.61-20.07,19.25-34.58s19.25-25.25,22.5-32.5,3.88-12.62-.5-25C275,278.63,272.89,266,272.89,266a16.32,16.32,0,0,1,6.88-4.25c4.38-5.37,10.11-10.62,17-11.12A28.46,28.46,0,0,1,313.87,255c5.25-7.37,14-7.5,20-3.37,4.88,6.13,7.42,13,3.75,21.5-3.25,7.5-7.5,9.25-7.5,9.25s-6.86,24.38-7.86,33.13.5,15.63,4,20.88,10.88,14.25,14,20.63,5.25,16.38,10.38,22.5,12.88,10.13,18.75,10.25a22.31,22.31,0,0,1-7.08,7.89,52.88,52.88,0,0,1-14.92-8.39c4.25,5.5,11.63,9.75,18.25,11.25C357.15,410.36,343,413.48,338.91,414.2Z"/>
    <path d="M292.22,285.24c11.5,3.16,18.93-3.06,20.05-7.7A23.77,23.77,0,0,1,292.22,285.24Z"/>
  </g>
<script type="text/ecmascript" xlink:href="param.min.js"/> 
</svg>
