<?xml version="1.0"?>
<svg xmlns="http://www.w3.org/2000/svg" xmlns:xlink="http://www.w3.org/1999/xlink" viewBox="0 0 150 150">
  <title>OA030-strappy-heel-slender</title>
  <g id="skin-tone">
    <path d="M73.78,102.69s6.54-7.42,15.06-4.37c-2.65-5.79-6.23-9.71-7.81-12.12s-1-6.58-.5-8.92.17-7.25-4.75-7.75-6.92,3.17-6.58,5.92.42,5.75.5,7.58-.58,3.88-.5,6.08a28.66,28.66,0,0,0,1.88,7.42C71.61,97.78,73.78,102.69,73.78,102.69Z" fill="param(skin_tone)"/>
    <path d="M75.36,107.4s4.63-4,9-4.79a19.27,19.27,0,0,1,7.83.25s2.75,2.21-.5,4.08a3.11,3.11,0,0,1-2.42,1,2.26,2.26,0,0,1-2.45,1.31,2.71,2.71,0,0,1-3.14,1.11,4.21,4.21,0,0,1-4.62,1.71,4.29,4.29,0,0,1-3-2.73Z" fill="param(skin_tone)"/>
  </g>
  <g id="main-colour">
    <path d="M69.53,80.55s-1.25,1.75-2.19,3.13S65,87.24,65.53,90s3,5.56,4.5,8.13a46.34,46.34,0,0,1,4.06,10.56c.75,3.19,1.31,6.38,4.06,6.88S89.53,113.3,91,111a14.74,14.74,0,0,0,1.44-4.19l-.71.08s-.35,1-2.42,1c-.62,1.06-.58,1.49-2.45,1.31-.49.94-1.53,1.46-3.14,1.11a4,4,0,0,1-4.42,1.71,5.41,5.41,0,0,1-3.92-4.71c2.29-2.54,9.73-6.48,15.95-4.76a13,13,0,0,1-2.34-4s-6.56-4.12-15.06,3.88c-2.75-5.81-4.19-7.69-4.56-11.56a29.22,29.22,0,0,1,.31-7.44Z" fill="param(main_colour)"/>
  </g>
  <g id="accent-colour-1">
    <path d="M71.59,101.36a39.75,39.75,0,0,0-3.5-6c-1.87-2.5-3.12-5.12-2.94-6.25-.94,1.5-.81,3.13-.06,5.38s3.31,8.19,2.69,12.88a10.32,10.32,0,0,0,1.56,1.31l1.94-1.25a11.76,11.76,0,0,1-.19-3.37Z" fill="param(accent_colour_1)"/>
  </g>
  <g id="fixed-colours">
    <path d="M79.69,110.24a1.27,1.27,0,0,1-.12-1.62c.63-.87,2.63-1.12,3.58-.67a1.84,1.84,0,0,1,.5,1.13A4.62,4.62,0,0,0,79.69,110.24Z" fill="#fff"/>
    <path d="M86.65,107.78a3.51,3.51,0,0,0-1.17-1.17c-1,.17-1.87.5-2,1.29a2.36,2.36,0,0,1,.46.79A4.1,4.1,0,0,1,86.65,107.78Z" fill="#fff"/>
    <path d="M88.94,106.36s-1.42.08-1.75.83c-.54-.37-1-1-.12-1.42a4.4,4.4,0,0,1,1.21-.5Z" fill="#fff"/>
    <path d="M89.82,106.11s-.52-.42-.35-.81a1.75,1.75,0,0,1,1.21-.73,1.94,1.94,0,0,1,.69.77S90,105.63,89.82,106.11Z" fill="#fff"/>
    <path d="M91.46,104.88a1.83,1.83,0,0,0-.52-.56c0-.58.83-1,1.6-1.17a4.33,4.33,0,0,1,.38.9Z" fill="#fff"/>
  </g>
  <g id="outline">
    <path d="M92.57,102.21a4.73,4.73,0,0,1-2.75-3.31,34,34,0,0,0-4.46-8.21c-1.62-2.12-3.65-4.52-4.4-6.9s.25-5.94.57-7.15A6.39,6.39,0,0,0,81.75,75,6.76,6.76,0,0,0,75,68.25h0A6.76,6.76,0,0,0,68.25,75c-.11,1.46.68,3,.4,5.12-.18,1.31-2.31,3.75-3.25,5.88a6.75,6.75,0,0,0-.59,2.26,6.53,6.53,0,0,0-.61,4.41c.54,3.42,2.29,6.83,2.88,9.75a22.09,22.09,0,0,1,.38,5.21c.25.29,1.94,1.68,1.94,1.68a28.37,28.37,0,0,0,2.31-1.77,17.62,17.62,0,0,1,0-4.82c1.12,3.19,2.08,7.14,2.38,8.4.38,1.56,1.56,4.85,3.75,5.17a18.51,18.51,0,0,0,13.75-4.75A33,33,0,0,0,93,107.11,2.89,2.89,0,0,0,92.57,102.21Zm-1.13,4.23c-.13.85-1.22,1.15-1.75,1.25a2.46,2.46,0,0,0-.62-2.08c-.79-.95-2-1.13-3.45-2.84a15.21,15.21,0,0,1,2.53-.18,3.88,3.88,0,0,0,1.33,1.35,9.21,9.21,0,0,1,.92.57c-1.56.51-1.27,1.32-.61,1.83a2.53,2.53,0,0,1,1.5-.87A1.6,1.6,0,0,1,91.44,106.44Zm-2.65,1.69a2,2,0,0,1-1.48.84,2.88,2.88,0,0,0-.95-2c-.76-.72-2.79-1.7-3.64-3.46a17.07,17.07,0,0,1,2.66-.68,6.52,6.52,0,0,0,2.06,2.26l.33.27a2.56,2.56,0,0,0-1.08.48c-.54.44-.19,1.23.48,1.6a2.4,2.4,0,0,1,1.69-.84A1.41,1.41,0,0,1,88.79,108.14Zm-6.18,3.1a4.53,4.53,0,0,1-5-.42,6.16,6.16,0,0,1-1.84-3.32A25.53,25.53,0,0,1,79.4,105a8.47,8.47,0,0,0,3,2.66,3.48,3.48,0,0,0-2,.22c-1.58.63-1.54,1.71-.79,2.71a4.32,4.32,0,0,1,3.84-1.33A1.9,1.9,0,0,1,82.61,111.24Zm0-7.7a4.52,4.52,0,0,0,2.37,2.82l.26.19c-1.26.22-1.7.62-1.84.93a2.75,2.75,0,0,0-.71-.45,10.27,10.27,0,0,1-3-2.2A19.94,19.94,0,0,1,82.57,103.54Zm1.14,4.3c.06-.82,1.47-1,1.82-1a3.68,3.68,0,0,1,.8.87h0a3,3,0,0,0-2.22.86A2.58,2.58,0,0,0,83.71,107.83Zm-.81.21a2.16,2.16,0,0,1,.47.83,5.18,5.18,0,0,0-3.68,1.07c-.37-.83-.08-1.33,1-1.79A4.36,4.36,0,0,1,82.9,108Zm1.3.77a3.32,3.32,0,0,1,2.29-.85,1.43,1.43,0,0,1-.13,1.48,2.52,2.52,0,0,1-2.18.74A2.9,2.9,0,0,0,84.2,108.81Zm4.44-2.58a3.71,3.71,0,0,0-1.53.67c-.54-.33-.46-.79.13-1a3.78,3.78,0,0,1,.86-.23A4.91,4.91,0,0,1,88.64,106.24Zm3.24-3.07c-.77.25-1,.63-1,.92a9.1,9.1,0,0,0-1-.47,6.12,6.12,0,0,1-1.35-1A13.08,13.08,0,0,1,91.88,103.17Zm-.73,2.07a3.31,3.31,0,0,0-1.38.71c-.68-.69.29-1.08.88-1.24A2.68,2.68,0,0,1,91.15,105.23Zm0-1c0-.61.79-.85,1.21-.93a2,2,0,0,1,.39.65,3.52,3.52,0,0,0-1.24.68A2.16,2.16,0,0,0,91.16,104.28Zm-.48-2c-7.54-2.07-13.84,3.28-15.15,4.49-.17-.64-.35-1.35-.59-2.13-.18-.6-.42-1.25-.69-1.92,6.38-5.95,12.06-4.73,14.19-3.94C89.22,100.9,89.82,101.75,90.68,102.29ZM70.27,75.38c0-.24,0-.39,0-.39A4.75,4.75,0,0,1,75,70.25h0A4.75,4.75,0,0,1,79.75,75s-.09,2.07-.2,2.74a20.48,20.48,0,0,0,.2,6.34c.31,1.75,1.44,3.69,3.38,6a40.29,40.29,0,0,1,5,7.93c-7.41-2.9-13.33,3.21-14.12,4.08-1-2.42-2.38-5-3.05-6.81a19.38,19.38,0,0,1-1.25-9.08A29.41,29.41,0,0,0,70,80.86C71,78.79,70.27,75.38,70.27,75.38Zm-2.7,25.77c-.62-2.58-1.92-6-2.25-7.75a6,6,0,0,1-.2-2.6c.08.3.18.61.28.94a26.93,26.93,0,0,0,3.12,5c.67,3.15.66,8.89.63,11.38l-.88-.72A35.77,35.77,0,0,0,67.57,101.15Zm3.17,6.21a11.6,11.6,0,0,1-1.08.82,96.85,96.85,0,0,0-.39-10.41,20.41,20.41,0,0,1,1.64,2.84l.17.39A18.39,18.39,0,0,0,70.73,107.36Zm19.92,3.16c-3.62,3.59-8.72,4.25-10.72,4.47a3.46,3.46,0,0,1-3.75-1.72,42,42,0,0,1-2.06-5.94A61,61,0,0,0,71.43,100c-1-2.12-3.66-6.19-4.75-8.5a6.22,6.22,0,0,1,.38-6.28c.81-1.3,1.65-2.33,2.27-3.19a21,21,0,0,1-.22,3.19,18.83,18.83,0,0,0-.17,5.42,24.83,24.83,0,0,0,2.75,8.29,52.37,52.37,0,0,1,3.42,8.92c.54,1.88,1.17,3.38,3.08,4.33s4.87.32,5.75-1.31a3.67,3.67,0,0,0,2.38-.44,2.06,2.06,0,0,0,.79-.77,2.36,2.36,0,0,0,2-.81,3.14,3.14,0,0,0,.32-.54,5.31,5.31,0,0,0,1.76-.46,1.4,1.4,0,0,0,.38-.32A19.84,19.84,0,0,1,90.65,110.52ZM92,106.39a2.78,2.78,0,0,0-.21-1.16,2.91,2.91,0,0,0-.14-.28,2,2,0,0,1,1.19-.62l0,.12A1.93,1.93,0,0,1,92,106.39Z"/>
  </g>
<script type="text/ecmascript" xlink:href="param.min.js"/> 
</svg>
