<?xml version="1.0"?>
<svg xmlns="http://www.w3.org/2000/svg" xmlns:xlink="http://www.w3.org/1999/xlink" viewBox="0 0 150 150">
  <title>OA030-strappy-heel-slender</title>
  <g id="skin-tone">
    <path d="M58.63,97s3.13-5.44,5.94-9.19S69.13,81,69.2,78.49s-.69-6.25,3.06-8.44,7.69.56,8.06,2.81-.19,5,.81,8.5a15.35,15.35,0,0,1,.38,9,9.63,9.63,0,0,1-4.44,6.13c-1.69,1-6.56,5.94-7.69,8.38-1.25-2.75-2.56-5-5.06-6.37a9.49,9.49,0,0,0-4.44-1.31Z" fill="param(skin_tone)"/>
    <path d="M66.6,109s-1.53,2.22-3.31.81a2.62,2.62,0,0,1-3.56-.25c-1,.44-2.75.47-3.5-.72a2.19,2.19,0,0,1-2.81-.91,2.91,2.91,0,0,1-3.28-1.53A2.35,2.35,0,0,1,51.7,103c1.78-.59,3.09-.94,3.09-.94a16.31,16.31,0,0,1,6.41,1.16,9.28,9.28,0,0,1,4.94,4.66Z" fill="param(skin_tone)"/>
  </g>
  <g id="main-colour">
    <path d="M52.07,113.42s-1.19-3.94-.94-6c.75,1,2.28.47,2.28.47a2.51,2.51,0,0,0,2.81.91c.84,1.06,1.41,1.06,3.5.72.47.91,1.74,1.2,3.45.18,1.27.73,2.21.73,3.43-.74-1.34-2.91-3.66-6.72-11.81-6.91,2.22-1.44,3.84-5,3.84-5a11.64,11.64,0,0,1,5.44,1.44,11.19,11.19,0,0,1,5.31,6.38c2.88-3.94,4.94-5.62,8.13-8.56s5.5-5.62,4-14.31c2.69,3.06,4.94,7,4.25,9.88a7.34,7.34,0,0,1-4.44,5.44c-2.06.81-5.81,3.81-8.62,7.44a53.36,53.36,0,0,0-5.32,9.38A28.68,28.68,0,0,1,52.07,113.42Z" fill="param(main_colour)"/>
  </g>
  <g id="accent-colour-1">
    <path d="M75.13,102a20,20,0,0,1,4.06-3.44C81.32,97.3,84,96.3,84.32,95.3c-.19,1.63-1.69,4-2.5,6.75S79.7,113,80.07,114.42c-1.06.19-2.31.31-2.31.31S78.32,106.67,75.13,102Z" fill="param(accent_colour_1)"/>
  </g>
  <g id="fixed-colours">
    <path d="M50.38,104.74s2-.12,2.59.81c.56-.69.63-1.12,0-1.56a1.92,1.92,0,0,0-2-.06A1.37,1.37,0,0,0,50.38,104.74Z" fill="#fff"/>
    <path d="M53.76,106a2.57,2.57,0,0,1,2.31,1c.63-.56.88-1,.34-1.41a2.39,2.39,0,0,0-2-.12Z" fill="#fff"/>
    <path d="M56.42,107.33a3.36,3.36,0,0,1,2.34.75.78.78,0,0,0-.31-1.34C57.76,106.39,57.13,106.58,56.42,107.33Z" fill="#fff"/>
    <path d="M59.7,108.24a5.08,5.08,0,0,1,2.41.38,1,1,0,0,0-1-1.16A1.18,1.18,0,0,0,59.7,108.24Z" fill="#fff"/>
    <path d="M63.17,108.42a2.66,2.66,0,0,1,2.16.09c.19-.5,0-.87-.75-.94a1.45,1.45,0,0,0-1.16.44Z" fill="#fff"/>
  </g>
  <g id="outline">
    <path d="M84.09,84.11c-.75-1.15-2.19-3.37-2.33-5.33a28.44,28.44,0,0,1,0-3.77A6.75,6.75,0,0,0,75,68.25h0A6.76,6.76,0,0,0,68.25,75c0,1.25.51,4.18-.62,7.12s-3.56,5.19-5.75,8.31a74.08,74.08,0,0,0-4.81,8.25A6.87,6.87,0,0,1,53.35,102c-1.59.38-2.93.7-3.59,2a3.13,3.13,0,0,0,.63,3.54,48.12,48.12,0,0,0,1.33,6.08,26.26,26.26,0,0,0,16,.71c2.38-3.75,4.42-8,6.63-10.75.23-.29.47-.56.7-.82,3,3.91,2.21,12.28,2.21,12.28s1.19-.12,3.38-.19c-.37-7.06,1.5-13.62,2.94-16.31a16.15,16.15,0,0,0,1.37-3.39,6.31,6.31,0,0,0,1.32-3.28A12.08,12.08,0,0,0,84.09,84.11ZM64.88,88.92c1.63-2.12,4.25-6.19,4.88-8.62a38.36,38.36,0,0,0,.49-5.3A4.75,4.75,0,0,1,75,70.25h0A4.75,4.75,0,0,1,79.75,75,13,13,0,0,0,81,82.28a18.94,18.94,0,0,1,.6,6.25c-.33,4.33-2.75,6.21-5,8A37.22,37.22,0,0,0,69.47,104l-.13.22a10.94,10.94,0,0,0-9.94-7.4A70.7,70.7,0,0,1,64.88,88.92Zm-5.76,8.45a11.34,11.34,0,0,1,9.94,7.32,39,39,0,0,1-2.33,3.65c-.45-1.19-2.87-6.21-10.86-6.52C57.48,100.74,58.18,99.25,59.12,97.38Zm-3.38,11.23c-1.39,0-2-.68-2-1.66a1.77,1.77,0,0,1,.2-.84,3,3,0,0,1,2.11,1l.13-.07A2.89,2.89,0,0,0,55.74,108.61Zm.33-1.94a2.29,2.29,0,0,0-2-.77,1.82,1.82,0,0,1,2.23-.27C56.74,105.92,56.63,106.38,56.07,106.67Zm.79-1c-.16-.39-1-.64-1.78-.59a7.76,7.76,0,0,1,1.42-.47,3.21,3.21,0,0,0,2.41-1.9,13.1,13.1,0,0,1,2.41.83A8.09,8.09,0,0,1,58,105.53a2.65,2.65,0,0,0-1.1.56A.75.75,0,0,0,56.86,105.71Zm0,1.51a1.11,1.11,0,0,1,1.57-.36c.5.25.65.6.35,1a3.13,3.13,0,0,0-1.93-.62Zm-.11.26,0,0a3.46,3.46,0,0,1,2.1.82c.44-.67.58-1.19-.15-1.54a1.8,1.8,0,0,0-1.4-.16,4.2,4.2,0,0,1,1.28-.63c.79-.33,2.62-1.46,2.76-2.34a10.29,10.29,0,0,1,2,1.21,5.25,5.25,0,0,1-1.76,1.13c-1.25.43-2.48,1.54-2.34,2.75a3.1,3.1,0,0,0,.13.55,3.37,3.37,0,0,1-1.57.07C57,109.11,56.3,108.65,56.72,107.49Zm3.07.88h0a5.29,5.29,0,0,1,2.36.38c.29-.46-.08-1.16-.83-1.34a1.37,1.37,0,0,0-1.19.13,2.62,2.62,0,0,1,1.34-1.08,5.41,5.41,0,0,0,2.05-1.5A8.84,8.84,0,0,1,65,106.46a3.88,3.88,0,0,1-.72.27,2.21,2.21,0,0,0-1.54,2.88,1.51,1.51,0,0,0,.11.2,3.74,3.74,0,0,1-1.88.18C60.15,109.74,59.63,109.36,59.79,108.36Zm.22-.27a.92.92,0,0,1,1.23-.51c.46.13.85.46.75.81A5.11,5.11,0,0,0,60,108.09Zm4.69-.36c.48.08.69.31.56.56a3,3,0,0,0-1.77-.08C63.63,107.74,64.22,107.65,64.7,107.74Zm-1.4.79a2.31,2.31,0,0,1,2.11.13c.4-.56.13-1-.48-1.1a1.84,1.84,0,0,0-1.2.13,11.56,11.56,0,0,1,1.48-.9,9.27,9.27,0,0,1,1.07,2.11,3.61,3.61,0,0,1-.85.72C64.18,110.29,63.21,109.73,63.3,108.53ZM52.76,104a.71.71,0,0,1,.19,1.29,3.35,3.35,0,0,0-2.31-.73A1.45,1.45,0,0,1,52.76,104Zm-2.35.89c.46,0,2,0,2.55.82.66-.59.92-1.36,0-1.89a1.85,1.85,0,0,0-1.58-.19A3.66,3.66,0,0,1,53,103a2.76,2.76,0,0,1,1.73.93c0-.38-.62-.8-1.13-1.07a7.63,7.63,0,0,0,1.44-.57,17.16,17.16,0,0,1,3.8.45,4.4,4.4,0,0,1-2.58,1.41,4.8,4.8,0,0,0-2.87,1.25,2.85,2.85,0,0,0-.41,2.19,2.22,2.22,0,0,1-1.57-.23S49.92,106.33,50.41,104.92Zm30.66-2.12c-1.44,4.5-1.45,11.31-1.45,11.31s-.26.25-1.43.25c.21-8.22-1.72-11.52-2.36-12.37a21.78,21.78,0,0,1,5.51-4,15.69,15.69,0,0,0,2.37-1.5A55.59,55.59,0,0,0,81.07,102.8ZM79.7,97.74c-3.5,1.81-7.94,7.06-9.44,10.06s-3.31,5.88-3.31,5.88a28.88,28.88,0,0,1-14.35-.73,39.12,39.12,0,0,1-1-4.65,3,3,0,0,0,1.81.06,2,2,0,0,0,.45.46,3.17,3.17,0,0,0,2.41.6,3.58,3.58,0,0,0,3.5.55,1.65,1.65,0,0,0,1.14.67,4,4,0,0,0,2.26-.48,2.28,2.28,0,0,0,2.48.16,11.67,11.67,0,0,0,3.17-3.67,29.94,29.94,0,0,1,6.17-7.75c3.38-2.92,5.21-3.79,6.21-6.12a15.87,15.87,0,0,0,1-8.71c1.23,1.52,3.15,3.56,3.15,6.61C85.32,94.24,83.2,95.92,79.7,97.74Z"/>
  </g>
<script type="text/ecmascript" xlink:href="param.min.js"/> 
</svg>
