<?xml version="1.0"?>
<svg xmlns="http://www.w3.org/2000/svg" xmlns:xlink="http://www.w3.org/1999/xlink" viewBox="0 0 600 600">
  <title>skull-design-top-hourglass</title>
  <g id="main-colour">
    <path d="M314.65,297.11c-.43,0-.49-.48-.89.06,0,0-.47,2.72-.09,2.68S315.09,297.14,314.65,297.11Z" fill="param(main_colour)"/>
    <path d="M315.76,297.76c-.95,0-1.3,2.26-1,2.65s.74.35,1-.63S316.33,297.77,315.76,297.76Z" fill="param(main_colour)"/>
    <path d="M316.94,298.46c-.41,0-.79,1.14-.82,2s.49,1,.9.85.59-1.27.68-2S317.56,298.4,316.94,298.46Z" fill="param(main_colour)"/>
    <path d="M321,297.91c-.4,0-1.32,2.33-.61,2.27s1-.69,1.14-1.37S321.52,297.88,321,297.91Z" fill="param(main_colour)"/>
    <path d="M322.32,297.72c-.67,2.18.85.75,1,.25s.52-1.44.24-1.66S322.64,296.66,322.32,297.72Z" fill="param(main_colour)"/>
    <path d="M333.89,284.1c-.2-2.07.58-7.67.27-11.08s-.3-10.14-6.53-13.85-15.53-2.37-18.29,1.08c-4.25,5.31-1.37,17-1.23,20.17.4,3.16-1,4.68-.27,7.12s1.46,2.8,2.7,2.63,3.57,1.72,3.7,3.28-1.07,3.43,1.29,3.15.35,2.13,2.25,1.12,2.53.82,3.12-.21,3.21-1.44,3.53-3.49,2.73-4.89,5.29-3.73S334.2,286.17,333.89,284.1Zm-18.56,1.3c-1.29.81-4.53.33-4.9-1a22.22,22.22,0,0,1-.19-5.16c.08-.75.17-2,1.3-2.28,1.68-.38,3.4-1.58,4.67-.81s2.35,2.5,2.19,3.67S316.64,284.6,315.33,285.41Zm7.6,3.79c-.35,1.28-1,2.82-1.86,2.66s-.1-2.29-.12-3.37-.55-2.17-.94-.55-.35,4-1.55,4c-.7,0-.71-2.36,0-4.85s1.64-3.85,2.14-3.47.94-1,1.41-.07S323.31,287.92,322.92,289.2Zm8.47-4.28a6.41,6.41,0,0,1-5.23.72c-1.3-.66-1-2.31-1.83-2.88a2.33,2.33,0,0,1-1.09-1.82c-.18-1.11,1.41-2.68,2.27-3.75s1.57-1.11,3.05-.18,3.07.89,3.2,2.25S332.21,284.11,331.4,284.91Z" fill="param(main_colour)"/>
  </g>
  <g id="fixed-colours">
    <path d="M333.55,264.61s-12.56,12-26.84,12.47C316.89,280.11,327.43,273.34,333.55,264.61Z" opacity="0.15"/>
    <path d="M329,272.78s-6,6.79-12.85,8.48C322.58,281.72,327.31,275.69,329,272.78Z" opacity="0.15"/>
  </g>
<script type="text/ecmascript" xlink:href="param.min.js"/> 
</svg>
