<?xml version="1.0"?>
<svg xmlns="http://www.w3.org/2000/svg" xmlns:xlink="http://www.w3.org/1999/xlink" viewBox="0 0 250 250">
  <title>hourglass-bottoms-template</title>
  <g id="skin-tone">
    <path d="M150.5,125l-51,0s-.35,19.34,5.49,32.84c9,20.86,13.48,32.29,16.47,39.29s4.61,19,5.15,19.53h.11c0,.2,0,.4,0,.6a6.74,6.74,0,0,0,11.21,5.06l.08.06a12.15,12.15,0,0,0,2.79-3.76c1.16-3.06,3.73-13.56,5.94-35,2.54-24.56,4.14-46.28,4.12-56.52Z" fill="param(skin_tone)"/>
  </g>
  <g id="outline">
    <path d="M107.75,161.94c-7.18-19.6-7.84-31.7-8.24-36.66v0a3.87,3.87,0,0,0-1.8,3c.2,9.63,2.6,20.44,6.71,31.48,6.45,17.35,11,28.67,14.52,36.4a133.13,133.13,0,0,1,7.22,22c2.17-2.09-2.09-14-6-24.33C118.77,190.19,113.49,177.61,107.75,161.94Z"/>
    <path d="M151.9,132.45a35.83,35.83,0,0,0-1.39-7.69c.27,4.46.13,11.07-1,21.5l-.13,2c-.84,13.17-2.38,22.06-3.22,30.12-.86,8.24-2,23.69-3.28,29.23s-1.53,11.78-4.92,14.76c6.37-2.25,8.87-29.26,9.78-39.21,1.19-13.07,3.56-28.69,4.25-42.87C152.14,137.34,152,134.74,151.9,132.45Z"/>
  </g>
<script type="text/ecmascript" xlink:href="param.min.js"/> 
</svg>
