<?xml version="1.0"?>
<svg xmlns="http://www.w3.org/2000/svg" xmlns:xlink="http://www.w3.org/1999/xlink" viewBox="0 0 600 600">
  <title>skull-design-top-slender</title>
  <g id="main-colour">
    <path d="M315.52,291.35c-.36,0-.4-.41-.74,0,0,0-.44,2.25-.12,2.23S315.89,291.39,315.52,291.35Z" fill="param(main_colour)"/>
    <path d="M316.43,291.91c-.79,0-1.12,1.85-.88,2.18s.61.31.85-.5S316.9,291.92,316.43,291.91Z" fill="param(main_colour)"/>
    <path d="M317.4,292.51c-.34,0-.67.93-.72,1.66s.39.8.74.72.51-1,.6-1.67S317.92,292.47,317.4,292.51Z" fill="param(main_colour)"/>
    <path d="M320.81,292.13c-.34,0-1.14,1.91-.54,1.87s.81-.55,1-1.12S321.22,292.1,320.81,292.13Z" fill="param(main_colour)"/>
    <path d="M321.88,292c-.6,1.8.69.63.85.22s.46-1.19.23-1.37S322.16,291.11,321.88,292Z" fill="param(main_colour)"/>
    <path d="M331.72,280.87c-.13-1.72.61-6.36.42-9.2s-.08-8.43-5.19-11.61-12.86-2.23-15.21.59c-3.62,4.34-1.42,14.1-1.36,16.73.28,2.63-.88,3.87-.34,5.91s1.16,2.35,2.2,2.23,2.93,1.49,3,2.79-.95,2.83,1,2.64.26,1.78,1.85,1,2.09.73,2.59-.12,2.69-1.14,3-2.84,2.35-4,4.46-3S331.95,282.59,331.72,280.87Zm-15.44.77c-1.09.65-3.76.19-4.06-.88a18.46,18.46,0,0,1-.07-4.29c.08-.62.18-1.67,1.12-1.87,1.4-.29,2.85-1.25,3.89-.59a3.73,3.73,0,0,1,1.76,3.09C318.8,278.07,317.39,281,316.28,281.64Zm6.24,3.28c-.32,1.06-.89,2.32-1.59,2.18s0-1.9,0-2.8-.42-1.82-.77-.48-.36,3.31-1.36,3.33c-.58,0-.55-2,.06-4s1.43-3.17,1.84-2.84.8-.85,1.17,0S322.87,283.87,322.53,284.92Zm7.11-3.41a5.33,5.33,0,0,1-4.36.51c-1.07-.57-.83-1.94-1.47-2.42a1.93,1.93,0,0,1-.87-1.53c-.13-.92,1.22-2.2,1.95-3.08s1.32-.89,2.54-.1,2.54.79,2.62,1.92S330.33,280.85,329.64,281.51Z" fill="param(main_colour)"/>
  </g>
  <g id="fixed-colours">
    <path d="M333.59,265.28s-11.53,10.53-24.4,10.73C318.3,278.93,327.92,273,333.59,265.28Z" opacity="0.15"/>
    <path d="M329.33,272.55s-5.52,6-11.73,7.4C323.4,280.48,327.76,275.14,329.33,272.55Z" opacity="0.15"/>
  </g>
<script type="text/ecmascript" xlink:href="param.min.js"/> 
</svg>
