<?xml version="1.0"?>
<svg xmlns="http://www.w3.org/2000/svg" xmlns:xlink="http://www.w3.org/1999/xlink" viewBox="0 0 600 600">
  <title>skull-design-top-slender</title>
  <g id="main-colour">
    <path d="M314.73,291.57c-.36,0-.41-.39-.74.06,0,0-.34,2.26,0,2.23S315.09,291.59,314.73,291.57Z" fill="param(main_colour)"/>
    <path d="M315.66,292.09c-.79,0-1,1.9-.79,2.21s.62.28.83-.54S316.13,292.09,315.66,292.09Z" fill="param(main_colour)"/>
    <path d="M316.65,292.66c-.34,0-.63,1-.65,1.69s.42.78.76.69.47-1.07.53-1.7S317.17,292.59,316.65,292.66Z" fill="param(main_colour)"/>
    <path d="M320,292.13c-.34,0-1.06,2-.46,1.9s.78-.59.92-1.16S320.45,292.09,320,292.13Z" fill="param(main_colour)"/>
    <path d="M321.11,291.94c-.52,1.83.72.6.86.19s.41-1.21.17-1.38S321.36,291.05,321.11,291.94Z" fill="param(main_colour)"/>
    <path d="M330.48,280.43c-.21-1.71.34-6.38,0-9.21s-.43-8.42-5.67-11.38-12.94-1.69-15.17,1.22c-3.43,4.49-.83,14.15-.66,16.77.39,2.61-.72,3.9-.09,5.92s1.26,2.3,2.29,2.13,3,1.37,3.13,2.66-.83,2.87,1.13,2.59.33,1.77,1.88.89,2.12.64,2.58-.23,2.64-1.25,2.87-3,2.18-4.11,4.33-3.2S330.77,282.14,330.48,280.43Zm-15.39,1.41c-1.06.7-3.75.35-4.09-.71a18.46,18.46,0,0,1-.25-4.29c.05-.62.11-1.68,1-1.92,1.39-.35,2.8-1.37,3.86-.76a3.73,3.73,0,0,1,1.89,3C317.45,278.17,316.16,281.15,315.08,281.84Zm6.38,3c-.27,1.07-.79,2.36-1.5,2.25s-.12-1.9-.16-2.8-.5-1.8-.79-.44-.22,3.32-1.22,3.38c-.58,0-.63-1.94-.11-4S319,280,319.4,280.3s.76-.88,1.17-.08S321.75,283.79,321.46,284.86Zm7-3.71a5.33,5.33,0,0,1-4.33.69c-1.09-.52-.91-1.9-1.57-2.36a1.93,1.93,0,0,1-.93-1.49c-.17-.92,1.12-2.25,1.82-3.16s1.28-.95,2.53-.21,2.57.68,2.7,1.81S329.08,280.47,328.42,281.15Z" fill="param(main_colour)"/>
  </g>
  <g id="fixed-colours">
    <path d="M331.69,264.76s-11.08,11-23.93,11.74C317,279,326.34,272.75,331.69,264.76Z" opacity="0.15"/>
    <path d="M327.74,272.21s-5.26,6.23-11.41,7.88C322.14,280.39,326.28,274.86,327.74,272.21Z" opacity="0.15"/>
  </g>
<script type="text/ecmascript" xlink:href="param.min.js"/> 
</svg>
