<?xml version="1.0"?>
<svg xmlns="http://www.w3.org/2000/svg" xmlns:xlink="http://www.w3.org/1999/xlink" viewBox="0 0 600 600">
  <title>skull-design-top-hourglass</title>
  <g id="main-colour">
    <path d="M311.05,298.09c-.43,0-.51-.46-.89.11,0,0-.32,2.74.06,2.69S311.5,298.1,311.05,298.09Z" fill="param(main_colour)"/>
    <path d="M312.2,298.68c-.95,0-1.18,2.33-.86,2.7s.76.31,1-.68S312.77,298.65,312.2,298.68Z" fill="param(main_colour)"/>
    <path d="M313.42,299.32c-.41.06-.73,1.18-.71,2.06s.54.93.95.8.52-1.31.57-2.07S314,299.22,313.42,299.32Z" fill="param(main_colour)"/>
    <path d="M317.49,298.54c-.4.05-1.2,2.4-.48,2.3s.92-.74,1.07-1.44S318,298.48,317.49,298.54Z" fill="param(main_colour)"/>
    <path d="M318.77,298.28c-.55,2.22.89.7,1,.19s.44-1.47.15-1.67S319,297.2,318.77,298.28Z" fill="param(main_colour)"/>
    <path d="M329.6,284c-.32-2.06.16-7.71-.33-11.11s-.86-10.13-7.3-13.5-15.67-1.52-18.24,2.09c-4,5.55-.43,17.09-.12,20.25.57,3.14-.71,4.73.12,7.14s1.62,2.72,2.85,2.48,3.67,1.53,3.88,3.08-.88,3.49,1.47,3.08.47,2.12,2.31,1,2.58.69,3.11-.38,3.13-1.61,3.34-3.69,2.46-5,5.09-4S330,286.06,329.6,284Zm-18.5,2.32c-1.25.89-4.51.58-5-.69a22.27,22.27,0,0,1-.47-5.16c0-.75.06-2,1.18-2.36,1.66-.48,3.32-1.77,4.63-1.07s2.49,2.37,2.4,3.56S312.36,285.46,311.09,286.34Zm7.81,3.38c-.28,1.3-.86,2.88-1.72,2.77s-.22-2.28-.31-3.37-.67-2.15-1-.5-.13,4-1.33,4.13c-.7.07-.84-2.32-.29-4.85s1.43-3.95,2-3.59.88-1.09,1.41-.15S319.21,288.42,318.9,289.72Zm8.25-4.75a6.43,6.43,0,0,1-5.2,1c-1.33-.59-1.17-2.25-2-2.78a2.33,2.33,0,0,1-1.19-1.76c-.24-1.1,1.27-2.76,2.06-3.88s1.51-1.19,3-.35,3.12.72,3.32,2.07S327.92,284.12,327.15,285Z" fill="param(main_colour)"/>
  </g>
  <g id="fixed-colours">
    <path d="M330.42,265.08S317.51,278.8,302,280.2C313.27,282.89,324.3,274.92,330.42,265.08Z" opacity="0.15"/>
    <path d="M326,274.22s-6.09,7.72-13.44,10C319.55,284.3,324.31,277.48,326,274.22Z" opacity="0.15"/>
  </g>
<script type="text/ecmascript" xlink:href="param.min.js"/> 
</svg>
