<?xml version="1.0"?>
<svg xmlns="http://www.w3.org/2000/svg" xmlns:xlink="http://www.w3.org/1999/xlink" viewBox="0 0 600 600">
  <title>skull-design-top-slender</title>
  <g id="main-colour">
    <path d="M306.55,295.11c-.42,0-.57-.43-.85,0,0,0,.15,2.37.52,2.35S307,295.15,306.55,295.11Z" fill="param(main_colour)"/>
    <path d="M307.77,295.69c-.93,0-.75,2-.35,2.31s.81.32.83-.54S308.32,295.7,307.77,295.69Z" fill="param(main_colour)"/>
    <path d="M309.07,296.32c-.39,0-.5,1-.31,1.76a.86.86,0,0,0,1.09.76c.37-.09.24-1.12.15-1.78S309.67,296.27,309.07,296.32Z" fill="param(main_colour)"/>
    <path d="M312.92,295.88c-.39,0-.75,2-.05,2s.76-.59.78-1.2S313.39,295.86,312.92,295.88Z" fill="param(main_colour)"/>
    <path d="M314.13,295.73c-.16,1.92,1,.67,1.06.23s.19-1.26-.12-1.45S314.21,294.8,314.13,295.73Z" fill="param(main_colour)"/>
    <path d="M323.46,283.93c-.37-1.8.3-6.65.28-9.61s-.47-10.19-5.62-13.4-14.05-2.22-17,.9c-4.83,5.28-3.29,16.19-2.82,18.9s-.74,4,.17,6.08,1.75,2.41,2.92,2.27,3.68,1.51,4.07,2.86-.4,3,1.84,2.75.8,1.87,2.42,1,2.63.75,3-.15,2.8-1.23,2.74-3a3.41,3.41,0,0,1,4.56-3.22C322.63,290.28,323.83,285.72,323.46,283.93ZM305.54,285c-1.19.69-4.37.26-4.82-.83a13.6,13.6,0,0,1-.37-4.41c.07-.64.17-1.72,1.27-1.95,1.63-.33,3.34-1.36,4.55-.7s2.24,2.14,2.1,3.15S306.73,284.31,305.54,285Zm7.74,3.3c-.2,1.11-.6,2.44-1.45,2.3s-.42-2-.56-2.92-.75-1.88-1-.48.16,3.45-1,3.48c-.67,0-1.06-2-.62-4.19s1.31-3.31,1.81-3,.85-.89,1.36-.06S313.48,287.2,313.28,288.3Zm7.81-3.68c-.71.7-3.71,1.17-5,.61s-1.17-2-2-2.49a2.06,2.06,0,0,1-1.12-1.57c-.21-1,1.33-2.3,2.18-3.23s1.55-1,3-.16,3,.76,3.09,1.94S321.81,283.93,321.09,284.63Z" fill="param(main_colour)"/>
  </g>
  <g id="fixed-colours">
    <path d="M320.73,265.28s-8.53,12.57-20.94,16C309.33,281.66,317.17,273.81,320.73,265.28Z" opacity="0.15"/>
    <path d="M318.42,273s-3.84,6.89-9.51,9.76C314.66,281.77,317.55,275.78,318.42,273Z" opacity="0.15"/>
  </g>
<script type="text/ecmascript" xlink:href="param.min.js"/> 
</svg>
