<?xml version="1.0"?>
<svg xmlns="http://www.w3.org/2000/svg" xmlns:xlink="http://www.w3.org/1999/xlink" viewBox="0 0 600 600">
  <title>skull-design-top-hourglass</title>
  <g id="main-colour">
    <path d="M305.11,302.46c-.49,0-.66-.49-1,0,0,0,.16,2.74.59,2.72S305.6,302.5,305.11,302.46Z" fill="param(main_colour)"/>
    <path d="M306.51,303.13c-1.08,0-.88,2.26-.42,2.67s.93.38,1-.62S307.15,303.15,306.51,303.13Z" fill="param(main_colour)"/>
    <path d="M308,303.87c-.45,0-.59,1.14-.37,2a1,1,0,0,0,1.26.88c.43-.1.29-1.29.19-2.05S308.7,303.82,308,303.87Z" fill="param(main_colour)"/>
    <path d="M312.46,303.39c-.46,0-.87,2.34-.08,2.3s.88-.68.9-1.38S313,303.36,312.46,303.39Z" fill="param(main_colour)"/>
    <path d="M313.86,303.21c-.2,2.21,1.14.78,1.22.27s.23-1.46-.13-1.68S314,302.14,313.86,303.21Z" fill="param(main_colour)"/>
    <path d="M324.7,289.65c-.42-2.08.39-7.67.39-11.09s-.48-11.78-6.4-15.51-16.21-2.65-19.64.94c-5.61,6.07-3.9,18.68-3.38,21.81s-.88,4.6.16,7,2,2.8,3.36,2.64,4.24,1.76,4.69,3.33S303.4,302.2,306,302s.91,2.16,2.78,1.17,3,.88,3.44-.16,3.24-1.4,3.18-3.48,2.25-4.88,5.28-3.69S325.12,291.72,324.7,289.65ZM304,290.77c-1.38.79-5,.28-5.56-1a15.7,15.7,0,0,1-.4-5.1c.08-.74.21-2,1.48-2.24,1.89-.37,3.86-1.55,5.26-.78s2.57,2.48,2.41,3.65S305.39,290,304,290.77Zm8.91,3.86c-.23,1.28-.71,2.81-1.69,2.65s-.48-2.29-.63-3.38-.86-2.18-1.12-.56.17,4-1.16,4c-.78,0-1.21-2.37-.69-4.84s1.54-3.82,2.11-3.43,1-1,1.57-.06S313.16,293.36,312.92,294.64Zm9-4.2c-.83.8-4.29,1.33-5.8.67s-1.34-2.31-2.24-2.89a2.38,2.38,0,0,1-1.28-1.82c-.23-1.1,1.55-2.65,2.54-3.72s1.79-1.09,3.42-.17,3.42.9,3.55,2.26S322.8,289.64,322,290.44Z" fill="param(main_colour)"/>
  </g>
  <g id="fixed-colours">
    <path d="M321.67,268.1s-9.93,14.46-24.29,18.4C308.4,286.94,317.51,277.93,321.67,268.1Z" opacity="0.15"/>
    <path d="M319,277s-4.48,7.94-11,11.21C314.55,287.1,317.93,280.2,319,277Z" opacity="0.15"/>
  </g>
<script type="text/ecmascript" xlink:href="param.min.js"/> 
</svg>
