<?xml version="1.0"?>
<svg xmlns="http://www.w3.org/2000/svg" xmlns:xlink="http://www.w3.org/1999/xlink" viewBox="0 0 600 1032.36">
  <title>EX002</title>
  <g id="skin-tone">
    <circle cx="300" cy="516.18" r="72.64" fill="param(skin_tone)"/>
  </g>
  <g id="lip-colour">
    <path d="M283.48,559.93s.2.82,2.36.69,4.36-1.25,5.58-1.61a5,5,0,0,1,4.53.49c1.9,1.15,4,2.36,6.69.89s3.25-2.21,6.14-1.24,6,2.32,8.07.73c-.92,0-2.66-.11-5.05-3.26s-4.43-6.37-7.15-6.27-4.65,3-4.65,3-2.11-3.42-4.93-3.22-4.73,3.15-6.14,5.32S285.09,559.74,283.48,559.93Z" fill="#e8b0af"/>
    <path d="M282.81,560.12a8.67,8.67,0,0,1,3.94,2.17c1.92,1.8,4,6.4,6.92,8s7.31,1.62,9.72,1.11a8.55,8.55,0,0,0,5.78-4c1.48-2.34,5-6.18,6.3-6.77.91-.3,1.67-.47,1.67-.47a16.45,16.45,0,0,0-3,5.15c-1.06,3-2.93,8.12-5.32,10.8A11.6,11.6,0,0,1,300,580a12.45,12.45,0,0,1-9.24-4.33,26.17,26.17,0,0,1-4.33-8C285.29,564.6,284.16,561,282.81,560.12Z" fill="#e8b0af"/>
  </g>
  <g id="fixed-colours">
    <path d="M366.87,495a45.78,45.78,0,0,0-20.05-14.12c-12.84-4.44-26.69.17-29.63,1.88s-3.16,4.15-2.67,5.63,3,2.37,5.43,1.78,9.09-4.35,15.8-4.94S356.69,486.55,366.87,495Z" opacity="0.5"/>
    <path d="M233,495a45.78,45.78,0,0,1,20.05-14.12c12.84-4.44,26.69.17,29.63,1.88s3.16,4.15,2.67,5.63-3,2.37-5.43,1.78-9.09-4.35-15.8-4.94S243.19,486.55,233,495Z" opacity="0.5"/>
    <circle cx="266.75" cy="559.16" r="10.94" fill="#e8b0af"/>
    <circle cx="333.25" cy="559.16" r="10.94" fill="#e8b0af"/>
    <path d="M285,560.69a9.19,9.19,0,0,0,4.14-.79c1.87-.94,4.48-1.58,6.55-.59s3.7,2.58,6.18,1.39,3.91-2.43,6.07-1.79,4.63,1.93,7.24,1.78a21.67,21.67,0,0,0-4.63,4.63c-1.35,2-3.37,6.38-10.55,6.38s-8.21-3.08-9.54-4.9S286.6,561.67,285,560.69Z" fill="#7d4040"/>
    <path d="M292,568.66a9.73,9.73,0,0,1,8-4.23,10.35,10.35,0,0,1,8.22,4.23s-2.08,3-8.22,3S292,568.66,292,568.66Z" fill="#c78383"/>
    <path d="M298.16,555.41c0,1.58-1.28,0-2.86,0s-2.86,1.58-2.86,0a2.86,2.86,0,1,1,5.73,0Z" fill="#fff" opacity="0.5"/>
    <path d="M301.84,555.41c0,1.58,1.28,0,2.86,0s2.86,1.58,2.86,0a2.86,2.86,0,1,0-5.73,0Z" fill="#fff" opacity="0.5"/>
    <path d="M305.67,573.79c0,1.28-2.55,2.32-5.69,2.32s-5.69-1-5.69-2.32,2.55,0,5.69,0S305.67,572.51,305.67,573.79Z" fill="#fff" opacity="0.5"/>
  </g>
  <g id="outline">
    <path d="M300,590a73.86,73.86,0,1,1,73.86-73.86A73.94,73.94,0,0,1,300,590Zm0-145.24a71.38,71.38,0,1,0,71.38,71.38A71.46,71.46,0,0,0,300,444.8Z"/>
    <path d="M300,539.57c-8-6.52-13.18,1.93-13.18,1.93,8-6.07,13.18,1.18,13.18,1.18s5.18-7.26,13.18-1.18C313.18,541.5,308,533.06,300,539.57Z"/>
    <path d="M319,558.73a4.3,4.3,0,0,1-4.7-.56c-2.71-2.17-4.82-8.84-9.15-8.84s-5.19,2.89-5.19,2.89-.85-2.89-5.19-2.89-6.44,6.68-9.15,8.84a4.3,4.3,0,0,1-4.7.56l-.13-.08a6.66,6.66,0,0,0,1,1,15.76,15.76,0,0,1,3,5.42c.85,2.63,3,9,5.74,11.88a13.15,13.15,0,0,0,18.77,0c2.79-2.86,4.89-9.25,5.74-11.88a15.76,15.76,0,0,1,3-5.42,6.66,6.66,0,0,0,1-1Zm-24.09-7.43c3.35,0,5.05,3.48,5.05,3.48s1.71-3.48,5.05-3.48,6.32,8.26,10.42,8.9c-2,.21-3.56-.74-5.21-1.44a7.9,7.9,0,0,0-6-.38c-1.09.46-2.46,1.87-4.29,1.87s-3.2-1.41-4.29-1.87a7.9,7.9,0,0,0-6,.38c-1.65.7-3.23,1.65-5.21,1.44C288.63,559.56,291.62,551.3,294.95,551.3ZM300,564c-1.8,0-6,.54-8.09,3.93-1.28-1.64-2.77-4.82-6.21-6.89a6.91,6.91,0,0,0,3.2-.45c2.17-.92,4.07-1.73,6.17-.57S298.49,562,300,562s2.82-.79,4.92-1.95,4-.35,6.17.57a6.91,6.91,0,0,0,3.2.45c-3.43,2.07-4.93,5.25-6.21,6.89C306,564.58,301.8,564,300,564Zm7.51,4.57c-1.65,1.64-4.1,2.52-7.51,2.52s-5.86-.88-7.51-2.52a9.6,9.6,0,0,1,15,0Zm6.11-4c-1,2.23-1.51,5.28-4.2,9.32a11.3,11.3,0,0,1-18.84,0c-2.69-4-3.22-7.09-4.2-9.32a11.57,11.57,0,0,0-3-4.07,7.41,7.41,0,0,0,1,.33,27,27,0,0,1,4.95,5.54c2,3,3.87,6.28,10.63,6.28s8.6-3.33,10.63-6.28a27,27,0,0,1,4.95-5.54,7.41,7.41,0,0,0,1-.33A11.57,11.57,0,0,0,313.62,564.59Z"/>
  </g>
<script type="text/ecmascript" xlink:href="param.min.js"/> 
</svg>
