<?xml version="1.0"?>
<svg xmlns="http://www.w3.org/2000/svg" xmlns:xlink="http://www.w3.org/1999/xlink" viewBox="0 0 600 1032.36">
  <title>HS002</title>
  <g id="main-colour">
    <path d="M351.24,371.86c-32.7-1.3-51.83,21.83-51.83,21.83S275.72,370.05,242.08,371c-68.67,2-103.33,76.5-82,141.83C181,577,242.74,589,242.74,589s-8.67-7.33-10.67-16c6.67,8.67,20,10.67,20,10.67s-5.33-4-6.67-9.33c7.33,6.67,21.33,9.33,21.33,9.33a37.92,37.92,0,0,1-4.34-3.84c-21.82-12.85-34-36.57-34-63.67,0-15,5.74-29.79,12.74-38.83,14.32-18.49,38.11-27.69,58.65-14.48,18.69-12.27,42.84-4.35,56.63,11.33,8.53,12,15,26.15,15,42,0,21-6.59,40-20.75,53.5a26.32,26.32,0,0,1-3.86,8c10.67-4.67,18-15.33,18-15.33a30.77,30.77,0,0,1-6.67,15.33c4.67-1.33,15.33-11.33,15.33-11.33s-1.33,9.33-16.67,18.67c17.33-4,52.1-26.33,68.5-64.67C462.24,433.86,397.41,373.7,351.24,371.86Z" fill="param(main_colour)"/>
  </g>
  <g id="accent-colour-1">
    <path d="M297.24,451.86s-34-19.5-64.25,15.5c-33.61,38.89-9.75,88.75,11.5,111.5-27-11.5-41-55-34.25-88.75,6.25-31.5,30.25-49.75,54.75-50.75C279,438.36,290.49,442.36,297.24,451.86Z" fill="param(accent_colour_1)"/>
    <path d="M298.74,404.86s-32.5-37.25-81.25-18.75c-46.62,17.69-62,76.5-50.5,123.5s57.25,68.75,57.25,68.75-56.5-36-54-97.75c2.48-61.2,34.07-82.45,54.25-89.5C256,380.11,282.74,394.36,298.74,404.86Z" fill="param(accent_colour_1)"/>
    <path d="M294.49,415.86c1.26.81-40.38-44.21-90.75,2.75-37,34.5-22.25,122.5,22.5,154.75-23.5-22.5-45-67.75-33.5-112.75C208.59,398.58,267.24,398.36,294.49,415.86Z" fill="param(accent_colour_1)"/>
    <path d="M296.24,431.11s-25-28.39-60.75-8.75c-51,28-35.25,99.5-33.75,110.5C191.74,486.86,210.49,405.36,296.24,431.11Z" fill="param(accent_colour_1)"/>
    <path d="M303.24,401.86s19.2-31.43,61-16.5c49,17.5,66.5,68.5,56.5,115s-43.5,71.5-43.5,71.5,31.5-29.5,38-73c5.38-36-3.77-81.94-46-104C335.74,377.36,314.24,392.36,303.24,401.86Z" fill="param(accent_colour_1)"/>
    <path d="M302.41,413.2s28.46-30.17,67.33-5.08c43,27.75,47.5,100.75,2.5,155.25,12-24,39-77.5,18.5-117C373.74,413.6,344.24,395.36,302.41,413.2Z" fill="param(accent_colour_1)"/>
    <path d="M305.24,430.36s27-26.5,60.75,3.5c30.79,27.37,17.75,90.5,2.25,123,10-25,25.5-83.5-3.5-113C337.93,416.59,318.74,427.86,305.24,430.36Z" fill="param(accent_colour_1)"/>
    <path d="M302.74,449.86s12.5-18,37-10c24.65,8,33.5,36.5,35,59C367.24,469.36,346.74,433.11,302.74,449.86Z" fill="param(accent_colour_1)"/>
  </g>
  <g id="accent-colour-2">
    <path d="M297,411.11S275.74,391,246.41,393.7s-60.33,25.08-66.67,68.42,13.75,94.75,55,122.25c-16.67-8-40.75-31.08-53.75-71.75s0-83.58,22.25-103C225.17,390.48,267.74,379.86,297,411.11Z" fill="param(accent_colour_2)"/>
    <path d="M298,424.36s-25.75-20.5-61.5-7.5c-29.15,10.6-45,47.75-42.75,91-3.33-22.67-1.58-76.83,43.75-94.5C264.74,404.78,291,415.86,298,424.36Z" fill="param(accent_colour_2)"/>
    <path d="M298.49,442.36s-38.25-22-70.25,7c-13.67,14-21.5,27.33-23.83,51.33s8.58,55.92,24.67,73.67c-16-14-27.17-41.67-26.83-70,.33-28.1,12.63-55.34,39.75-67.5C263.74,427.11,289,433.61,298.49,442.36Z" fill="param(accent_colour_2)"/>
    <path d="M245.74,571.7s-16.25-12.92-22.25-38.58-.67-48.5,17-66.5,43.25-19,57.25-7.58c-11-6.67-35.33-11-57,12S217.41,540,245.74,571.7Z" fill="param(accent_colour_2)"/>
    <path d="M296.08,396S270.33,368.45,227,378.11s-63.58,51.5-67.25,81.5.92,73.17,46.25,109.5c-23-13.75-46.25-45.42-48.92-83.08s7-64.33,30.67-89.67S268.41,361.7,296.08,396Z" fill="param(accent_colour_2)"/>
    <path d="M304.74,456.86s14.17-13,37.5,1,47.17,58.5,17.17,104.5c10.67-12.67,21.75-40.67,11.33-70.75C360.55,462.19,327.74,435.86,304.74,456.86Z" fill="param(accent_colour_2)"/>
    <path d="M303.24,438.36s21.36-13.08,47,1,29.17,55.67,27.5,64c3.5-30-3.52-52-26.5-66.5S307.24,434.36,303.24,438.36Z" fill="param(accent_colour_2)"/>
    <path d="M302.91,423.36s26.79-19.73,57.33,0c32.5,21,30.19,59.18,27.83,76s-12.67,51-23,68.67c10.33-12.67,21.17-45.17,25.17-65.17s4.69-55.86-22.5-77.5C343.24,405.86,317.24,409.7,302.91,423.36Z" fill="param(accent_colour_2)"/>
    <path d="M302.08,407.7s21.5-22,50.17-12.68,50.5,32.85,55.5,64.85c3.51,22.48,2,67-29.67,100.5,18-18.67,30.5-36.17,33.17-74.5,2.54-36.58-8.86-59.53-28.17-76.83C362.24,390.36,325.91,377.86,302.08,407.7Z" fill="param(accent_colour_2)"/>
    <path d="M303.08,395s17-21.83,50.67-17.17,67.68,37.5,73,72.5c6,39.5-4.5,94.5-54.67,124,0,0,35-19.4,48.67-52,13-31,15.23-59.67,5.57-87s-35.57-52-65.9-59.67S306.74,388.7,303.08,395Z" fill="param(accent_colour_2)"/>
  </g>
<script type="text/ecmascript" xlink:href="param.min.js"/> 
</svg>
