<?xml version="1.0"?>
<svg xmlns="http://www.w3.org/2000/svg" xmlns:xlink="http://www.w3.org/1999/xlink" viewBox="0 0 215 215">
  <title>adult-accessory-template</title>
  <g id="skin-tone">
    <path d="M114.47,125.3c-.78-2,0-4.11.47-7.31s-.12-5.49-1.82-7.15a5.89,5.89,0,0,1-1.46-3l-.85,0c0-.08,0-.15,0-.23a3.33,3.33,0,0,0-6.66,0l-1.27,0v0a12.87,12.87,0,0,1-.74,1.73c-1,2-3.12,10.66-3,13.64s-.1,5.68,2.4,7.13a6.75,6.75,0,0,0,2.75,4.69c.61,1.59,2.71,3.14,4.91,4.05,1.31,2.8,2.41,3.77,3.07,3.68s1.24-1.21,1.24-1.21a27.46,27.46,0,0,1-1.91-12.78c1.34,1.25,2.63,1.33,3.44.73S115.25,127.29,114.47,125.3Z" fill="param(skin_tone)"/>
  </g>
  <g id="fixed-colours">
    <path d="M110.19,140s.73-.71,1.29-.27a3.4,3.4,0,0,1,1.06,1.68C112.08,141.54,111.14,141.83,110.19,140Z" fill="#fff"/>
    <path d="M114,125.82a1.09,1.09,0,0,0-.3,1.53c.63.85,1.08.87,1.08.87A3.3,3.3,0,0,0,114,125.82Z" fill="#fff"/>
  </g>
  <g id="outline">
    <path d="M115.18,129.33c.81-.6.45-2.16-.49-4s.37-3.87.83-7.07.5-5.82-1.68-7.85a4.9,4.9,0,0,1-1-1.21h0c-.4-.59-.07-3.07-1.23-3.69a6.07,6.07,0,0,0-.78,2.36v0c0,.08,0,.16,0,.23.15,1.75,2.66,4,3.38,5.83s-.31,6.05-.75,8.87.68,3.6,1,4.52,0,1.61-1.11,1.29a2.9,2.9,0,0,1-1.59-1.39s.44-4,.56-5.84.46-6.37-1.68-8.25c1.35,2.15,1,7,.77,9.42a97.92,97.92,0,0,0-.85,10.54c.13,2.08,2,8.14,2,8.14a1.24,1.24,0,0,1-.85.21c-1.29-.19-2.76-4.44-3-5.29s-1.67-9.41-1.67-9.41-.1,6.71,1.15,10.6a5.81,5.81,0,0,1-2.47-1.77c-.6-.68-1.23-4-1.65-9.73a33.43,33.43,0,0,0,.14,8.08c-2.29-1.56-2.79-10.19-2.79-10.19a37,37,0,0,0,.12,5.37c-1.79-1.34-1.38-3.7-1.44-6a42.09,42.09,0,0,1,2.2-11c.76-1.8,1.6-2.17,1.9-4.57a3.22,3.22,0,0,0-.82-2.57,35.45,35.45,0,0,1-1.25,3.4h0c-.67,1.8-1.41,2.95-1.84,4.4-.74,2.55-2.06,7.9-2,10.88s.47,5.89,2.83,7.1a7.2,7.2,0,0,0,2.87,4.85,6.45,6.45,0,0,0,4.84,3.68c1.31,2.8,2.75,3.37,3.4,3.28s1.46-.37,1.55-1-2.15-4.82-1.89-12.4A2.33,2.33,0,0,0,115.18,129.33Z"/>
    <path d="M110.29,140.19s1.14-1.65,2.12,1.16l.28,0s-.7-3.15-2.59-1.53C109.79,140,110.29,140.19,110.29,140.19Z"/>
    <path d="M114,125.82s-1.22,1,.78,2.41a1,1,0,0,1,0,.34s-2.5-1.72-.87-3A.14.14,0,0,1,114,125.82Z"/>
    <rect width="215" height="215" fill="none"/>
  </g>
<script type="text/ecmascript" xlink:href="param.min.js"/> 
</svg>
